<?xml version="1.0" encoding="UTF-8" standalone="no"?>
<!DOCTYPE svg PUBLIC "-//W3C//DTD SVG 1.1//EN"
 "http://www.w3.org/Graphics/SVG/1.1/DTD/svg11.dtd">
<!-- Generated by graphviz version 2.26.3 (20100126.1600)
 -->
<!-- Title: HoTT Core Library Dependency Graph Pages: 1 -->
<svg width="1795pt" height="1230pt"
 viewBox="0.00 0.00 1795.00 1230.00" xmlns="http://www.w3.org/2000/svg" xmlns:xlink="http://www.w3.org/1999/xlink">
<g id="graph1" class="graph" transform="scale(1 1) rotate(0) translate(4 1226)">
<title>HoTT Core Library Dependency Graph</title>
<polygon fill="white" stroke="white" points="-4,5 -4,-1226 1792,-1226 1792,5 -4,5"/>
<!-- 0 -->
<g id="node1" class="node"><title>0</title>
<a xlink:href="http://hott.github.io/HoTT/proviola-html/HoTT.Overture.html" xlink:title="Overture">
<ellipse fill="none" stroke="green" cx="1609" cy="-19" rx="56.0679" ry="18.3848"/>
<text text-anchor="middle" x="1609" y="-15.4" font-family="Times Roman,serif" font-size="14.00">Overture</text>
</a>
</g>
<!-- 3 -->
<g id="node2" class="node"><title>3</title>
<a xlink:href="http://hott.github.io/HoTT/proviola-html/HoTT.PathGroupoids.html" xlink:title="PathGroupoids">
<ellipse fill="none" stroke="green" cx="1357" cy="-93" rx="82.939" ry="18.3848"/>
<text text-anchor="middle" x="1357" y="-89.4" font-family="Times Roman,serif" font-size="14.00">PathGroupoids</text>
</a>
</g>
<!-- 3&#45;&gt;0 -->
<g id="edge2" class="edge"><title>3&#45;&gt;0</title>
<path fill="none" stroke="black" d="M1407.39,-78.2028C1450.92,-65.4197 1513.56,-47.0255 1557.43,-34.1426"/>
<polygon fill="black" stroke="black" points="1558.44,-37.4947 1567.05,-31.3189 1556.47,-30.7783 1558.44,-37.4947"/>
</g>
<!-- 6 -->
<g id="node3" class="node"><title>6</title>
<a xlink:href="http://hott.github.io/HoTT/proviola-html/HoTT.Conjugation.html" xlink:title="Conjugation">
<ellipse fill="none" stroke="green" cx="1554" cy="-759" rx="70.2092" ry="18.3848"/>
<text text-anchor="middle" x="1554" y="-755.4" font-family="Times Roman,serif" font-size="14.00">Conjugation</text>
</a>
</g>
<!-- 6&#45;&gt;3 -->
<g id="edge4" class="edge"><title>6&#45;&gt;3</title>
<path fill="none" stroke="black" d="M1553.59,-740.311C1553,-712.237 1552,-657.511 1552,-611 1552,-611 1552,-611 1552,-241 1552,-172.8 1475.38,-131.949 1418.2,-110.956"/>
<polygon fill="black" stroke="black" points="1419.08,-107.556 1408.49,-107.511 1416.74,-114.153 1419.08,-107.556"/>
</g>
<!-- 9 -->
<g id="node4" class="node"><title>9</title>
<a xlink:href="http://hott.github.io/HoTT/proviola-html/HoTT.Contractible.html" xlink:title="Contractible">
<ellipse fill="none" stroke="green" cx="1357" cy="-241" rx="70.9184" ry="18.3848"/>
<text text-anchor="middle" x="1357" y="-237.4" font-family="Times Roman,serif" font-size="14.00">Contractible</text>
</a>
</g>
<!-- 9&#45;&gt;3 -->
<g id="edge6" class="edge"><title>9&#45;&gt;3</title>
<path fill="none" stroke="black" d="M1357,-222.256C1357,-196.901 1357,-151.439 1357,-121.75"/>
<polygon fill="black" stroke="black" points="1360.5,-121.592 1357,-111.592 1353.5,-121.592 1360.5,-121.592"/>
</g>
<!-- 12 -->
<g id="node5" class="node"><title>12</title>
<a xlink:href="http://hott.github.io/HoTT/proviola-html/HoTT.Equivalences.html" xlink:title="Equivalences">
<ellipse fill="none" stroke="green" cx="1227" cy="-167" rx="74.9533" ry="18.3848"/>
<text text-anchor="middle" x="1227" y="-163.4" font-family="Times Roman,serif" font-size="14.00">Equivalences</text>
</a>
</g>
<!-- 12&#45;&gt;3 -->
<g id="edge8" class="edge"><title>12&#45;&gt;3</title>
<path fill="none" stroke="black" d="M1256.82,-150.023C1274.9,-139.736 1298.16,-126.494 1317.72,-115.361"/>
<polygon fill="black" stroke="black" points="1319.45,-118.401 1326.41,-110.412 1315.99,-112.317 1319.45,-118.401"/>
</g>
<!-- 15 -->
<g id="node6" class="node"><title>15</title>
<a xlink:href="http://hott.github.io/HoTT/proviola-html/HoTT.types.Paths.html" xlink:title="types/Paths">
<ellipse fill="none" stroke="blueviolet" cx="1200" cy="-241" rx="68.0887" ry="18.3848"/>
<text text-anchor="middle" x="1200" y="-237.4" font-family="Times Roman,serif" font-size="14.00">types/Paths</text>
</a>
</g>
<!-- 15&#45;&gt;12 -->
<g id="edge10" class="edge"><title>15&#45;&gt;12</title>
<path fill="none" stroke="black" d="M1206.81,-222.327C1209.82,-214.089 1213.42,-204.229 1216.74,-195.13"/>
<polygon fill="black" stroke="black" points="1220.05,-196.261 1220.19,-185.667 1213.47,-193.862 1220.05,-196.261"/>
</g>
<!-- 18 -->
<g id="node7" class="node"><title>18</title>
<a xlink:href="http://hott.github.io/HoTT/proviola-html/HoTT.types.Unit.html" xlink:title="types/Unit">
<ellipse fill="none" stroke="blueviolet" cx="1052" cy="-241" rx="62.2254" ry="18.3848"/>
<text text-anchor="middle" x="1052" y="-237.4" font-family="Times Roman,serif" font-size="14.00">types/Unit</text>
</a>
</g>
<!-- 18&#45;&gt;12 -->
<g id="edge12" class="edge"><title>18&#45;&gt;12</title>
<path fill="none" stroke="black" d="M1087.84,-225.846C1114.34,-214.639 1150.69,-199.266 1179.6,-187.043"/>
<polygon fill="black" stroke="black" points="1181.25,-190.148 1189.09,-183.029 1178.52,-183.701 1181.25,-190.148"/>
</g>
<!-- 21 -->
<g id="node8" class="node"><title>21</title>
<a xlink:href="http://hott.github.io/HoTT/proviola-html/HoTT.Trunc.html" xlink:title="Trunc">
<ellipse fill="none" stroke="green" cx="1200" cy="-315" rx="38.1838" ry="18.3848"/>
<text text-anchor="middle" x="1200" y="-311.4" font-family="Times Roman,serif" font-size="14.00">Trunc</text>
</a>
</g>
<!-- 21&#45;&gt;9 -->
<g id="edge18" class="edge"><title>21&#45;&gt;9</title>
<path fill="none" stroke="black" d="M1227.35,-302.11C1251.11,-290.912 1285.94,-274.495 1313.52,-261.496"/>
<polygon fill="black" stroke="black" points="1315.01,-264.661 1322.56,-257.231 1312.03,-258.329 1315.01,-264.661"/>
</g>
<!-- 21&#45;&gt;15 -->
<g id="edge16" class="edge"><title>21&#45;&gt;15</title>
<path fill="none" stroke="black" d="M1200,-296.327C1200,-288.264 1200,-278.648 1200,-269.711"/>
<polygon fill="black" stroke="black" points="1203.5,-269.667 1200,-259.667 1196.5,-269.667 1203.5,-269.667"/>
</g>
<!-- 21&#45;&gt;18 -->
<g id="edge14" class="edge"><title>21&#45;&gt;18</title>
<path fill="none" stroke="black" d="M1173.2,-301.599C1150.87,-290.434 1118.69,-274.347 1093.11,-261.554"/>
<polygon fill="black" stroke="black" points="1094.52,-258.347 1084.01,-257.005 1091.39,-264.608 1094.52,-258.347"/>
</g>
<!-- 24 -->
<g id="node9" class="node"><title>24</title>
<a xlink:href="http://hott.github.io/HoTT/proviola-html/HoTT.types.Forall.html" xlink:title="types/Forall">
<ellipse fill="none" stroke="blueviolet" cx="1222" cy="-389" rx="67.8823" ry="18.3848"/>
<text text-anchor="middle" x="1222" y="-385.4" font-family="Times Roman,serif" font-size="14.00">types/Forall</text>
</a>
</g>
<!-- 24&#45;&gt;21 -->
<g id="edge20" class="edge"><title>24&#45;&gt;21</title>
<path fill="none" stroke="black" d="M1216.45,-370.327C1214.01,-362.114 1211.09,-352.29 1208.39,-343.214"/>
<polygon fill="black" stroke="black" points="1211.68,-341.999 1205.47,-333.411 1204.97,-343.994 1211.68,-341.999"/>
</g>
<!-- 27 -->
<g id="node10" class="node"><title>27</title>
<a xlink:href="http://hott.github.io/HoTT/proviola-html/HoTT.types.Arrow.html" xlink:title="types/Arrow">
<ellipse fill="none" stroke="blueviolet" cx="1222" cy="-463" rx="70.9184" ry="18.3848"/>
<text text-anchor="middle" x="1222" y="-459.4" font-family="Times Roman,serif" font-size="14.00">types/Arrow</text>
</a>
</g>
<!-- 27&#45;&gt;24 -->
<g id="edge22" class="edge"><title>27&#45;&gt;24</title>
<path fill="none" stroke="black" d="M1222,-444.327C1222,-436.264 1222,-426.648 1222,-417.711"/>
<polygon fill="black" stroke="black" points="1225.5,-417.667 1222,-407.667 1218.5,-417.667 1225.5,-417.667"/>
</g>
<!-- 30 -->
<g id="node11" class="node"><title>30</title>
<a xlink:href="http://hott.github.io/HoTT/proviola-html/HoTT.types.Sigma.html" xlink:title="types/Sigma">
<ellipse fill="none" stroke="blueviolet" cx="1222" cy="-537" rx="70.9184" ry="18.3848"/>
<text text-anchor="middle" x="1222" y="-533.4" font-family="Times Roman,serif" font-size="14.00">types/Sigma</text>
</a>
</g>
<!-- 30&#45;&gt;27 -->
<g id="edge24" class="edge"><title>30&#45;&gt;27</title>
<path fill="none" stroke="black" d="M1222,-518.327C1222,-510.264 1222,-500.648 1222,-491.711"/>
<polygon fill="black" stroke="black" points="1225.5,-491.667 1222,-481.667 1218.5,-491.667 1225.5,-491.667"/>
</g>
<!-- 33 -->
<g id="node12" class="node"><title>33</title>
<a xlink:href="http://hott.github.io/HoTT/proviola-html/HoTT.types.Prod.html" xlink:title="types/Prod">
<ellipse fill="none" stroke="blueviolet" cx="1067" cy="-611" rx="63.1385" ry="18.3848"/>
<text text-anchor="middle" x="1067" y="-607.4" font-family="Times Roman,serif" font-size="14.00">types/Prod</text>
</a>
</g>
<!-- 33&#45;&gt;21 -->
<g id="edge26" class="edge"><title>33&#45;&gt;21</title>
<path fill="none" stroke="black" d="M1069.97,-592.218C1077.31,-549.916 1099.09,-445.02 1145,-370 1152.23,-358.185 1162.5,-347.008 1172.21,-337.854"/>
<polygon fill="black" stroke="black" points="1174.74,-340.281 1179.8,-330.974 1170.04,-335.092 1174.74,-340.281"/>
</g>
<!-- 36 -->
<g id="node13" class="node"><title>36</title>
<a xlink:href="http://hott.github.io/HoTT/proviola-html/HoTT.types.Record.html" xlink:title="types/Record">
<ellipse fill="none" stroke="blueviolet" cx="1222" cy="-611" rx="74.2462" ry="18.3848"/>
<text text-anchor="middle" x="1222" y="-607.4" font-family="Times Roman,serif" font-size="14.00">types/Record</text>
</a>
</g>
<!-- 36&#45;&gt;30 -->
<g id="edge28" class="edge"><title>36&#45;&gt;30</title>
<path fill="none" stroke="black" d="M1222,-592.327C1222,-584.264 1222,-574.648 1222,-565.711"/>
<polygon fill="black" stroke="black" points="1225.5,-565.667 1222,-555.667 1218.5,-565.667 1225.5,-565.667"/>
</g>
<!-- 39 -->
<g id="node14" class="node"><title>39</title>
<a xlink:href="http://hott.github.io/HoTT/proviola-html/HoTT.types.Empty.html" xlink:title="types/Empty">
<ellipse fill="none" stroke="blueviolet" cx="987" cy="-463" rx="72.832" ry="18.3848"/>
<text text-anchor="middle" x="987" y="-459.4" font-family="Times Roman,serif" font-size="14.00">types/Empty</text>
</a>
</g>
<!-- 39&#45;&gt;9 -->
<g id="edge30" class="edge"><title>39&#45;&gt;9</title>
<path fill="none" stroke="black" d="M1000.01,-444.564C1025.37,-410.024 1084.94,-335.502 1153,-296 1165.48,-288.759 1239.65,-269.65 1294.98,-255.992"/>
<polygon fill="black" stroke="black" points="1295.85,-259.382 1304.73,-253.595 1294.18,-252.585 1295.85,-259.382"/>
</g>
<!-- 42 -->
<g id="node15" class="node"><title>42</title>
<a xlink:href="http://hott.github.io/HoTT/proviola-html/HoTT.HProp.html" xlink:title="HProp">
<ellipse fill="none" stroke="green" cx="1067" cy="-685" rx="41.2167" ry="18.3848"/>
<text text-anchor="middle" x="1067" y="-681.4" font-family="Times Roman,serif" font-size="14.00">HProp</text>
</a>
</g>
<!-- 42&#45;&gt;33 -->
<g id="edge36" class="edge"><title>42&#45;&gt;33</title>
<path fill="none" stroke="black" d="M1067,-666.327C1067,-658.264 1067,-648.648 1067,-639.711"/>
<polygon fill="black" stroke="black" points="1070.5,-639.667 1067,-629.667 1063.5,-639.667 1070.5,-639.667"/>
</g>
<!-- 42&#45;&gt;36 -->
<g id="edge34" class="edge"><title>42&#45;&gt;36</title>
<path fill="none" stroke="black" d="M1095.43,-671.427C1118.65,-660.342 1151.85,-644.491 1178.42,-631.804"/>
<polygon fill="black" stroke="black" points="1180,-634.929 1187.52,-627.462 1176.99,-628.612 1180,-634.929"/>
</g>
<!-- 42&#45;&gt;39 -->
<g id="edge32" class="edge"><title>42&#45;&gt;39</title>
<path fill="none" stroke="black" d="M1038.75,-671.304C1022.92,-662.008 1004.5,-648.108 995,-630 971.963,-586.091 976.109,-526.42 981.418,-491.575"/>
<polygon fill="black" stroke="black" points="984.888,-492.041 983.074,-481.603 977.983,-490.894 984.888,-492.041"/>
</g>
<!-- 45 -->
<g id="node16" class="node"><title>45</title>
<a xlink:href="http://hott.github.io/HoTT/proviola-html/HoTT.EquivalenceVarieties.html" xlink:title="EquivalenceVarieties">
<ellipse fill="none" stroke="green" cx="949" cy="-833" rx="111.93" ry="18.3848"/>
<text text-anchor="middle" x="949" y="-829.4" font-family="Times Roman,serif" font-size="14.00">EquivalenceVarieties</text>
</a>
</g>
<!-- 45&#45;&gt;42 -->
<g id="edge38" class="edge"><title>45&#45;&gt;42</title>
<path fill="none" stroke="black" d="M963.706,-814.555C984.601,-788.348 1022.96,-740.235 1046.6,-710.59"/>
<polygon fill="black" stroke="black" points="1049.35,-712.753 1052.85,-702.752 1043.88,-708.389 1049.35,-712.753"/>
</g>
<!-- 48 -->
<g id="node17" class="node"><title>48</title>
<a xlink:href="http://hott.github.io/HoTT/proviola-html/HoTT.Fibrations.html" xlink:title="Fibrations">
<ellipse fill="none" stroke="green" cx="521" cy="-907" rx="58.8978" ry="18.3848"/>
<text text-anchor="middle" x="521" y="-903.4" font-family="Times Roman,serif" font-size="14.00">Fibrations</text>
</a>
</g>
<!-- 48&#45;&gt;3 -->
<g id="edge40" class="edge"><title>48&#45;&gt;3</title>
<path fill="none" stroke="black" d="M510.608,-888.495C496.225,-861.096 472,-807.719 472,-759 472,-759 472,-759 472,-241 472,-161.029 1041.41,-114.128 1266.76,-98.6976"/>
<polygon fill="black" stroke="black" points="1267.16,-102.178 1276.9,-98.0085 1266.69,-95.1945 1267.16,-102.178"/>
</g>
<!-- 51 -->
<g id="node18" class="node"><title>51</title>
<a xlink:href="http://hott.github.io/HoTT/proviola-html/HoTT.FunextVarieties.html" xlink:title="FunextVarieties">
<ellipse fill="none" stroke="green" cx="1417" cy="-389" rx="87.889" ry="18.3848"/>
<text text-anchor="middle" x="1417" y="-385.4" font-family="Times Roman,serif" font-size="14.00">FunextVarieties</text>
</a>
</g>
<!-- 51&#45;&gt;9 -->
<g id="edge44" class="edge"><title>51&#45;&gt;9</title>
<path fill="none" stroke="black" d="M1409.52,-370.555C1399.19,-345.075 1380.47,-298.885 1368.39,-269.097"/>
<polygon fill="black" stroke="black" points="1371.57,-267.63 1364.57,-259.678 1365.09,-270.26 1371.57,-267.63"/>
</g>
<!-- 51&#45;&gt;12 -->
<g id="edge42" class="edge"><title>51&#45;&gt;12</title>
<path fill="none" stroke="black" d="M1426.93,-370.445C1443.32,-337.009 1470.99,-266.036 1437,-222 1420.5,-200.628 1356.7,-185.952 1303.71,-177.17"/>
<polygon fill="black" stroke="black" points="1304.04,-173.679 1293.61,-175.545 1302.93,-180.59 1304.04,-173.679"/>
</g>
<!-- 54 -->
<g id="node19" class="node"><title>54</title>
<a xlink:href="http://hott.github.io/HoTT/proviola-html/HoTT.HSet.html" xlink:title="HSet">
<ellipse fill="none" stroke="green" cx="1191" cy="-759" rx="34.8574" ry="18.3848"/>
<text text-anchor="middle" x="1191" y="-755.4" font-family="Times Roman,serif" font-size="14.00">HSet</text>
</a>
</g>
<!-- 54&#45;&gt;42 -->
<g id="edge48" class="edge"><title>54&#45;&gt;42</title>
<path fill="none" stroke="black" d="M1167.68,-745.081C1148.77,-733.798 1121.87,-717.747 1100.64,-705.073"/>
<polygon fill="black" stroke="black" points="1102.3,-701.991 1091.92,-699.872 1098.71,-708.002 1102.3,-701.991"/>
</g>
<!-- 54&#45;&gt;51 -->
<g id="edge46" class="edge"><title>54&#45;&gt;51</title>
<path fill="none" stroke="black" d="M1225.73,-756.069C1260.63,-751.208 1313.37,-738.295 1343,-704 1370.58,-672.078 1362,-653.187 1362,-611 1362,-611 1362,-611 1362,-537 1362,-492.478 1384.14,-444.875 1400.33,-416.022"/>
<polygon fill="black" stroke="black" points="1403.37,-417.752 1405.34,-407.341 1397.31,-414.253 1403.37,-417.752"/>
</g>
<!-- 57 -->
<g id="node20" class="node"><title>57</title>
<a xlink:href="http://hott.github.io/HoTT/proviola-html/HoTT.types.Bool.html" xlink:title="types/Bool">
<ellipse fill="none" stroke="blueviolet" cx="1145" cy="-833" rx="62.9325" ry="18.3848"/>
<text text-anchor="middle" x="1145" y="-829.4" font-family="Times Roman,serif" font-size="14.00">types/Bool</text>
</a>
</g>
<!-- 57&#45;&gt;54 -->
<g id="edge50" class="edge"><title>57&#45;&gt;54</title>
<path fill="none" stroke="black" d="M1156.37,-814.708C1161.87,-805.86 1168.57,-795.076 1174.61,-785.361"/>
<polygon fill="black" stroke="black" points="1177.61,-787.167 1179.92,-776.826 1171.67,-783.471 1177.61,-787.167"/>
</g>
<!-- 60 -->
<g id="node21" class="node"><title>60</title>
<a xlink:href="http://hott.github.io/HoTT/proviola-html/HoTT.types.Sum.html" xlink:title="types/Sum">
<ellipse fill="none" stroke="blueviolet" cx="1327" cy="-907" rx="62.9325" ry="18.3848"/>
<text text-anchor="middle" x="1327" y="-903.4" font-family="Times Roman,serif" font-size="14.00">types/Sum</text>
</a>
</g>
<!-- 60&#45;&gt;57 -->
<g id="edge52" class="edge"><title>60&#45;&gt;57</title>
<path fill="none" stroke="black" d="M1289.73,-891.846C1261.3,-880.285 1221.96,-864.291 1191.47,-851.895"/>
<polygon fill="black" stroke="black" points="1192.49,-848.531 1181.91,-848.007 1189.85,-855.015 1192.49,-848.531"/>
</g>
<!-- 63 -->
<g id="node22" class="node"><title>63</title>
<a xlink:href="http://hott.github.io/HoTT/proviola-html/HoTT.types.Universe.html" xlink:title="types/Universe">
<ellipse fill="none" stroke="blueviolet" cx="944" cy="-907" rx="84.1457" ry="18.3848"/>
<text text-anchor="middle" x="944" y="-903.4" font-family="Times Roman,serif" font-size="14.00">types/Universe</text>
</a>
</g>
<!-- 63&#45;&gt;45 -->
<g id="edge54" class="edge"><title>63&#45;&gt;45</title>
<path fill="none" stroke="black" d="M945.262,-888.327C945.806,-880.264 946.456,-870.648 947.06,-861.711"/>
<polygon fill="black" stroke="black" points="950.556,-861.881 947.739,-851.667 943.572,-861.409 950.556,-861.881"/>
</g>
<!-- 66 -->
<g id="node23" class="node"><title>66</title>
<a xlink:href="http://hott.github.io/HoTT/proviola-html/HoTT.Pointed.html" xlink:title="Pointed">
<ellipse fill="none" stroke="green" cx="1641" cy="-537" rx="48.0833" ry="18.3848"/>
<text text-anchor="middle" x="1641" y="-533.4" font-family="Times Roman,serif" font-size="14.00">Pointed</text>
</a>
</g>
<!-- 66&#45;&gt;0 -->
<g id="edge56" class="edge"><title>66&#45;&gt;0</title>
<path fill="none" stroke="black" d="M1634.37,-518.586C1625,-490.864 1609,-436.582 1609,-389 1609,-389 1609,-389 1609,-167 1609,-125.58 1609,-77.6389 1609,-47.8136"/>
<polygon fill="black" stroke="black" points="1612.5,-47.6905 1609,-37.6905 1605.5,-47.6906 1612.5,-47.6905"/>
</g>
<!-- 69 -->
<g id="node24" class="node"><title>69</title>
<a xlink:href="http://hott.github.io/HoTT/proviola-html/HoTT.Tactics.html" xlink:title="Tactics">
<ellipse fill="none" stroke="green" cx="1290" cy="-685" rx="43.8406" ry="18.3848"/>
<text text-anchor="middle" x="1290" y="-681.4" font-family="Times Roman,serif" font-size="14.00">Tactics</text>
</a>
</g>
<!-- 69&#45;&gt;24 -->
<g id="edge60" class="edge"><title>69&#45;&gt;24</title>
<path fill="none" stroke="black" d="M1296.96,-666.671C1311.77,-624.418 1341.95,-518.121 1302,-444 1294.32,-429.761 1281.16,-418.467 1267.7,-409.913"/>
<polygon fill="black" stroke="black" points="1269.26,-406.767 1258.87,-404.683 1265.69,-412.79 1269.26,-406.767"/>
</g>
<!-- 69&#45;&gt;33 -->
<g id="edge58" class="edge"><title>69&#45;&gt;33</title>
<path fill="none" stroke="black" d="M1255.16,-673.438C1218.53,-661.282 1160.5,-642.028 1118.57,-628.113"/>
<polygon fill="black" stroke="black" points="1119.41,-624.703 1108.81,-624.875 1117.2,-631.347 1119.41,-624.703"/>
</g>
<!-- 72 -->
<g id="node25" class="node"><title>72</title>
<a xlink:href="http://hott.github.io/HoTT/proviola-html/HoTT.HoTT.html" xlink:title="HoTT">
<ellipse fill="none" stroke="green" cx="1137" cy="-1203" rx="36.977" ry="18.3848"/>
<text text-anchor="middle" x="1137" y="-1199.4" font-family="Times Roman,serif" font-size="14.00">HoTT</text>
</a>
</g>
<!-- 72&#45;&gt;6 -->
<g id="edge84" class="edge"><title>72&#45;&gt;6</title>
<path fill="none" stroke="black" d="M1173.76,-1200.85C1250.04,-1195.76 1422.38,-1180.87 1470,-1148 1509.33,-1120.85 1524,-1102.8 1524,-1055 1524,-1055 1524,-1055 1524,-907 1524,-864.552 1536,-816.596 1544.82,-787.079"/>
<polygon fill="black" stroke="black" points="1548.19,-788.034 1547.78,-777.447 1541.5,-785.976 1548.19,-788.034"/>
</g>
<!-- 72&#45;&gt;60 -->
<g id="edge80" class="edge"><title>72&#45;&gt;60</title>
<path fill="none" stroke="black" d="M1162.79,-1189.43C1212.37,-1161.66 1319.74,-1093.08 1361,-1000 1370.74,-978.021 1359.69,-952.301 1347.66,-933.487"/>
<polygon fill="black" stroke="black" points="1350.48,-931.401 1341.95,-925.11 1344.69,-935.344 1350.48,-931.401"/>
</g>
<!-- 72&#45;&gt;66 -->
<g id="edge82" class="edge"><title>72&#45;&gt;66</title>
<path fill="none" stroke="black" d="M1174.04,-1200.39C1292.12,-1191.08 1652,-1154.54 1652,-1055 1652,-1055 1652,-1055 1652,-685 1652,-643.466 1647.64,-595.554 1644.41,-565.767"/>
<polygon fill="black" stroke="black" points="1647.87,-565.207 1643.28,-555.657 1640.91,-565.984 1647.87,-565.207"/>
</g>
<!-- 72&#45;&gt;69 -->
<g id="edge78" class="edge"><title>72&#45;&gt;69</title>
<path fill="none" stroke="black" d="M1173.74,-1200.46C1249.9,-1193 1418,-1164.17 1418,-1055 1418,-1055 1418,-1055 1418,-833 1418,-776.076 1363.16,-730.262 1325.27,-705.403"/>
<polygon fill="black" stroke="black" points="1326.84,-702.251 1316.52,-699.833 1323.08,-708.156 1326.84,-702.251"/>
</g>
<!-- 81 -->
<g id="node28" class="node"><title>81</title>
<a xlink:href="http://hott.github.io/HoTT/proviola-html/HoTT.Functorish.html" xlink:title="Functorish">
<ellipse fill="none" stroke="green" cx="939" cy="-1055" rx="62.9325" ry="18.3848"/>
<text text-anchor="middle" x="939" y="-1051.4" font-family="Times Roman,serif" font-size="14.00">Functorish</text>
</a>
</g>
<!-- 72&#45;&gt;81 -->
<g id="edge62" class="edge"><title>72&#45;&gt;81</title>
<path fill="none" stroke="black" d="M1102.46,-1195.94C1072.01,-1188.3 1027.82,-1173.63 997,-1148 975.908,-1130.46 960.178,-1103.18 950.46,-1082.69"/>
<polygon fill="black" stroke="black" points="953.622,-1081.19 946.297,-1073.54 947.249,-1084.09 953.622,-1081.19"/>
</g>
<!-- 93 -->
<g id="node32" class="node"><title>93</title>
<a xlink:href="http://hott.github.io/HoTT/proviola-html/HoTT.hit.Truncations.html" xlink:title="hit/Truncations">
<ellipse fill="none" stroke="orange" cx="84" cy="-981" rx="84.1457" ry="18.3848"/>
<text text-anchor="middle" x="84" y="-977.4" font-family="Times Roman,serif" font-size="14.00">hit/Truncations</text>
</a>
</g>
<!-- 72&#45;&gt;93 -->
<g id="edge76" class="edge"><title>72&#45;&gt;93</title>
<path fill="none" stroke="black" d="M1100.19,-1200.98C924.488,-1191.02 176.683,-1144.67 103,-1074 85.9856,-1057.68 82.0541,-1030.56 81.8966,-1009.8"/>
<polygon fill="black" stroke="black" points="85.3996,-1009.69 82.109,-999.619 78.4012,-1009.54 85.3996,-1009.69"/>
</g>
<!-- 99 -->
<g id="node34" class="node"><title>99</title>
<a xlink:href="http://hott.github.io/HoTT/proviola-html/HoTT.hit.Flattening.html" xlink:title="hit/Flattening">
<ellipse fill="none" stroke="orange" cx="1084" cy="-1129" rx="77.7817" ry="18.3848"/>
<text text-anchor="middle" x="1084" y="-1125.4" font-family="Times Roman,serif" font-size="14.00">hit/Flattening</text>
</a>
</g>
<!-- 72&#45;&gt;99 -->
<g id="edge74" class="edge"><title>72&#45;&gt;99</title>
<path fill="none" stroke="black" d="M1124.44,-1185.46C1118.09,-1176.6 1110.26,-1165.66 1103.18,-1155.78"/>
<polygon fill="black" stroke="black" points="1105.88,-1153.54 1097.21,-1147.44 1100.19,-1157.61 1105.88,-1153.54"/>
</g>
<!-- 102 -->
<g id="node35" class="node"><title>102</title>
<a xlink:href="http://hott.github.io/HoTT/proviola-html/HoTT.hit.Interval.html" xlink:title="hit/Interval">
<ellipse fill="none" stroke="orange" cx="1456" cy="-611" rx="65.9683" ry="18.3848"/>
<text text-anchor="middle" x="1456" y="-607.4" font-family="Times Roman,serif" font-size="14.00">hit/Interval</text>
</a>
</g>
<!-- 72&#45;&gt;102 -->
<g id="edge72" class="edge"><title>72&#45;&gt;102</title>
<path fill="none" stroke="black" d="M1173.09,-1198.8C1235.45,-1190.98 1360.14,-1172.72 1396,-1148 1436.5,-1120.08 1456,-1104.19 1456,-1055 1456,-1055 1456,-1055 1456,-759 1456,-717.58 1456,-669.639 1456,-639.814"/>
<polygon fill="black" stroke="black" points="1459.5,-639.69 1456,-629.691 1452.5,-639.691 1459.5,-639.69"/>
</g>
<!-- 108 -->
<g id="node37" class="node"><title>108</title>
<a xlink:href="http://hott.github.io/HoTT/proviola-html/HoTT.hit.Spheres.html" xlink:title="hit/Spheres">
<ellipse fill="none" stroke="orange" cx="1190" cy="-1055" rx="67.1751" ry="18.3848"/>
<text text-anchor="middle" x="1190" y="-1051.4" font-family="Times Roman,serif" font-size="14.00">hit/Spheres</text>
</a>
</g>
<!-- 72&#45;&gt;108 -->
<g id="edge70" class="edge"><title>72&#45;&gt;108</title>
<path fill="none" stroke="black" d="M1150.03,-1185.52C1157.2,-1175.11 1165.7,-1161.36 1171,-1148 1179.22,-1127.29 1184.05,-1102.51 1186.79,-1083.74"/>
<polygon fill="black" stroke="black" points="1190.27,-1084.1 1188.13,-1073.73 1183.33,-1083.17 1190.27,-1084.1"/>
</g>
<!-- 120 -->
<g id="node41" class="node"><title>120</title>
<a xlink:href="http://hott.github.io/HoTT/proviola-html/HoTT.hit.quotient.html" xlink:title="hit/quotient">
<ellipse fill="none" stroke="orange" cx="881" cy="-1129" rx="68.7979" ry="18.3848"/>
<text text-anchor="middle" x="881" y="-1125.4" font-family="Times Roman,serif" font-size="14.00">hit/quotient</text>
</a>
</g>
<!-- 72&#45;&gt;120 -->
<g id="edge68" class="edge"><title>72&#45;&gt;120</title>
<path fill="none" stroke="black" d="M1104.84,-1193.7C1062.95,-1181.6 989.033,-1160.23 937.652,-1145.38"/>
<polygon fill="black" stroke="black" points="938.591,-1142 928.013,-1142.59 936.647,-1148.73 938.591,-1142"/>
</g>
<!-- 123 -->
<g id="node42" class="node"><title>123</title>
<a xlink:href="http://hott.github.io/HoTT/proviola-html/HoTT.hit.iso.html" xlink:title="hit/iso">
<ellipse fill="none" stroke="orange" cx="753" cy="-1129" rx="41.2167" ry="18.3848"/>
<text text-anchor="middle" x="753" y="-1125.4" font-family="Times Roman,serif" font-size="14.00">hit/iso</text>
</a>
</g>
<!-- 72&#45;&gt;123 -->
<g id="edge66" class="edge"><title>72&#45;&gt;123</title>
<path fill="none" stroke="black" d="M1100.41,-1199.4C1038.42,-1192.76 909.111,-1176.59 803,-1148 799.671,-1147.1 796.256,-1146.07 792.85,-1144.95"/>
<polygon fill="black" stroke="black" points="793.949,-1141.63 783.354,-1141.64 791.645,-1148.24 793.949,-1141.63"/>
</g>
<!-- 126 -->
<g id="node43" class="node"><title>126</title>
<a xlink:href="http://hott.github.io/HoTT/proviola-html/HoTT.types.ObjectClassifier.html" xlink:title="types/ObjectClassifier">
<ellipse fill="none" stroke="blueviolet" cx="340" cy="-981" rx="115.966" ry="18.3848"/>
<text text-anchor="middle" x="340" y="-977.4" font-family="Times Roman,serif" font-size="14.00">types/ObjectClassifier</text>
</a>
</g>
<!-- 72&#45;&gt;126 -->
<g id="edge64" class="edge"><title>72&#45;&gt;126</title>
<path fill="none" stroke="black" d="M1099.99,-1200.78C1024.53,-1195.7 847.753,-1181.07 703,-1148 602.019,-1124.93 575.204,-1119.19 482,-1074 441.868,-1054.54 399.558,-1025.59 371.671,-1005.16"/>
<polygon fill="black" stroke="black" points="373.62,-1002.25 363.498,-999.12 369.457,-1007.88 373.62,-1002.25"/>
</g>
<!-- 75 -->
<g id="node26" class="node"><title>75</title>
<a xlink:href="http://hott.github.io/HoTT/proviola-html/HoTT.Misc.html" xlink:title="Misc">
<ellipse fill="none" stroke="green" cx="1109" cy="-907" rx="32.0265" ry="18.3848"/>
<text text-anchor="middle" x="1109" y="-903.4" font-family="Times Roman,serif" font-size="14.00">Misc</text>
</a>
</g>
<!-- 75&#45;&gt;45 -->
<g id="edge88" class="edge"><title>75&#45;&gt;45</title>
<path fill="none" stroke="black" d="M1084,-895.438C1060.52,-884.58 1024.8,-868.059 996.002,-854.738"/>
<polygon fill="black" stroke="black" points="997.463,-851.558 986.918,-850.537 994.525,-857.911 997.463,-851.558"/>
</g>
<!-- 75&#45;&gt;57 -->
<g id="edge86" class="edge"><title>75&#45;&gt;57</title>
<path fill="none" stroke="black" d="M1117.71,-889.087C1121.87,-880.553 1126.92,-870.154 1131.55,-860.64"/>
<polygon fill="black" stroke="black" points="1134.76,-862.045 1135.99,-851.521 1128.47,-858.982 1134.76,-862.045"/>
</g>
<!-- 78 -->
<g id="node27" class="node"><title>78</title>
<a xlink:href="http://hott.github.io/HoTT/proviola-html/HoTT.TruncType.html" xlink:title="TruncType">
<ellipse fill="none" stroke="green" cx="941" cy="-981" rx="60.8112" ry="18.3848"/>
<text text-anchor="middle" x="941" y="-977.4" font-family="Times Roman,serif" font-size="14.00">TruncType</text>
</a>
</g>
<!-- 78&#45;&gt;63 -->
<g id="edge92" class="edge"><title>78&#45;&gt;63</title>
<path fill="none" stroke="black" d="M941.757,-962.327C942.084,-954.264 942.474,-944.648 942.836,-935.711"/>
<polygon fill="black" stroke="black" points="946.335,-935.801 943.243,-925.667 939.341,-935.517 946.335,-935.801"/>
</g>
<!-- 78&#45;&gt;75 -->
<g id="edge90" class="edge"><title>78&#45;&gt;75</title>
<path fill="none" stroke="black" d="M975.81,-965.667C1004.65,-952.964 1045.44,-934.999 1074.26,-922.303"/>
<polygon fill="black" stroke="black" points="1075.8,-925.449 1083.54,-918.215 1072.98,-919.043 1075.8,-925.449"/>
</g>
<!-- 81&#45;&gt;78 -->
<g id="edge94" class="edge"><title>81&#45;&gt;78</title>
<path fill="none" stroke="black" d="M939.505,-1036.33C939.723,-1028.26 939.982,-1018.65 940.224,-1009.71"/>
<polygon fill="black" stroke="black" points="943.724,-1009.76 940.495,-999.667 936.726,-1009.57 943.724,-1009.76"/>
</g>
<!-- 84 -->
<g id="node29" class="node"><title>84</title>
<a xlink:href="http://hott.github.io/HoTT/proviola-html/HoTT.FunextAxiom.html" xlink:title="FunextAxiom">
<ellipse fill="none" stroke="green" cx="1712" cy="-93" rx="75.1594" ry="18.3848"/>
<text text-anchor="middle" x="1712" y="-89.4" font-family="Times Roman,serif" font-size="14.00">FunextAxiom</text>
</a>
</g>
<!-- 84&#45;&gt;0 -->
<g id="edge96" class="edge"><title>84&#45;&gt;0</title>
<path fill="none" stroke="black" d="M1687.59,-75.463C1673.67,-65.4592 1656.05,-52.8018 1641.02,-42.0077"/>
<polygon fill="black" stroke="black" points="1642.69,-38.894 1632.53,-35.9017 1638.6,-44.579 1642.69,-38.894"/>
</g>
<!-- 87 -->
<g id="node30" class="node"><title>87</title>
<a xlink:href="http://hott.github.io/HoTT/proviola-html/HoTT.UnivalenceAxiom.html" xlink:title="UnivalenceAxiom">
<ellipse fill="none" stroke="green" cx="767" cy="-981" rx="94.9596" ry="18.3848"/>
<text text-anchor="middle" x="767" y="-977.4" font-family="Times Roman,serif" font-size="14.00">UnivalenceAxiom</text>
</a>
</g>
<!-- 87&#45;&gt;63 -->
<g id="edge98" class="edge"><title>87&#45;&gt;63</title>
<path fill="none" stroke="black" d="M807.164,-964.208C833.259,-953.299 867.44,-939.008 895.112,-927.439"/>
<polygon fill="black" stroke="black" points="896.729,-930.557 904.605,-923.47 894.028,-924.099 896.729,-930.557"/>
</g>
<!-- 90 -->
<g id="node31" class="node"><title>90</title>
<a xlink:href="http://hott.github.io/HoTT/proviola-html/HoTT.hit.Circle.html" xlink:title="hit/Circle">
<ellipse fill="none" stroke="orange" cx="1297" cy="-981" rx="55.1543" ry="18.3848"/>
<text text-anchor="middle" x="1297" y="-977.4" font-family="Times Roman,serif" font-size="14.00">hit/Circle</text>
</a>
</g>
<!-- 90&#45;&gt;54 -->
<g id="edge100" class="edge"><title>90&#45;&gt;54</title>
<path fill="none" stroke="black" d="M1281.02,-963.191C1272.41,-952.892 1262.12,-939.359 1255,-926 1230.28,-879.611 1236.71,-862.73 1217,-814 1213.28,-804.796 1208.78,-794.936 1204.59,-786.142"/>
<polygon fill="black" stroke="black" points="1207.71,-784.569 1200.2,-777.1 1201.42,-787.625 1207.71,-784.569"/>
</g>
<!-- 90&#45;&gt;63 -->
<g id="edge102" class="edge"><title>90&#45;&gt;63</title>
<path fill="none" stroke="black" d="M1256.54,-968.32C1248.76,-966.073 1240.66,-963.861 1233,-962 1162.04,-944.761 1080.19,-929.622 1021.76,-919.614"/>
<polygon fill="black" stroke="black" points="1022.3,-916.157 1011.86,-917.93 1021.13,-923.058 1022.3,-916.157"/>
</g>
<!-- 93&#45;&gt;30 -->
<g id="edge104" class="edge"><title>93&#45;&gt;30</title>
<path fill="none" stroke="black" d="M145.366,-968.257C245.744,-945.628 434,-894.932 434,-833 434,-833 434,-833 434,-759 434,-612.749 943.241,-558.172 1142.97,-542.391"/>
<polygon fill="black" stroke="black" points="1143.41,-545.868 1153.11,-541.603 1142.86,-538.889 1143.41,-545.868"/>
</g>
<!-- 96 -->
<g id="node33" class="node"><title>96</title>
<a xlink:href="http://hott.github.io/HoTT/proviola-html/HoTT.hit.Connectedness.html" xlink:title="hit/Connectedness">
<ellipse fill="none" stroke="orange" cx="214" cy="-1055" rx="101.823" ry="18.3848"/>
<text text-anchor="middle" x="214" y="-1051.4" font-family="Times Roman,serif" font-size="14.00">hit/Connectedness</text>
</a>
</g>
<!-- 96&#45;&gt;48 -->
<g id="edge106" class="edge"><title>96&#45;&gt;48</title>
<path fill="none" stroke="black" d="M207.875,-1036.48C202.295,-1015.74 197.339,-982.377 215,-962 249.315,-922.409 396.694,-936.612 448,-926 454.144,-924.729 460.544,-923.269 466.891,-921.734"/>
<polygon fill="black" stroke="black" points="467.914,-925.086 476.774,-919.278 466.225,-918.293 467.914,-925.086"/>
</g>
<!-- 96&#45;&gt;78 -->
<g id="edge108" class="edge"><title>96&#45;&gt;78</title>
<path fill="none" stroke="black" d="M308.817,-1048.02C477.499,-1035.46 817.137,-1009.48 871,-1000 876.426,-999.045 882.041,-997.861 887.624,-996.555"/>
<polygon fill="black" stroke="black" points="888.718,-999.89 897.587,-994.094 887.04,-993.094 888.718,-999.89"/>
</g>
<!-- 96&#45;&gt;93 -->
<g id="edge110" class="edge"><title>96&#45;&gt;93</title>
<path fill="none" stroke="black" d="M182.862,-1037.28C164.964,-1027.09 142.315,-1014.19 123.212,-1003.32"/>
<polygon fill="black" stroke="black" points="124.858,-1000.23 114.436,-998.325 121.395,-1006.31 124.858,-1000.23"/>
</g>
<!-- 99&#45;&gt;63 -->
<g id="edge112" class="edge"><title>99&#45;&gt;63</title>
<path fill="none" stroke="black" d="M1079.03,-1110.47C1069.68,-1077.99 1047.09,-1009.69 1011,-962 1002.16,-950.315 990.35,-939.563 979.111,-930.723"/>
<polygon fill="black" stroke="black" points="981.163,-927.887 971.078,-924.639 976.937,-933.467 981.163,-927.887"/>
</g>
<!-- 102&#45;&gt;30 -->
<g id="edge116" class="edge"><title>102&#45;&gt;30</title>
<path fill="none" stroke="black" d="M1411.99,-597.081C1373.75,-584.988 1318.19,-567.418 1277.02,-554.399"/>
<polygon fill="black" stroke="black" points="1278,-551.039 1267.41,-551.361 1275.89,-557.714 1278,-551.039"/>
</g>
<!-- 102&#45;&gt;51 -->
<g id="edge114" class="edge"><title>102&#45;&gt;51</title>
<path fill="none" stroke="black" d="M1452.74,-592.454C1445.93,-553.686 1430.15,-463.842 1422.03,-417.613"/>
<polygon fill="black" stroke="black" points="1425.45,-416.893 1420.28,-407.649 1418.56,-418.104 1425.45,-416.893"/>
</g>
<!-- 105 -->
<g id="node36" class="node"><title>105</title>
<a xlink:href="http://hott.github.io/HoTT/proviola-html/HoTT.hit.Suspension.html" xlink:title="hit/Suspension">
<ellipse fill="none" stroke="orange" cx="1141" cy="-981" rx="82.939" ry="18.3848"/>
<text text-anchor="middle" x="1141" y="-977.4" font-family="Times Roman,serif" font-size="14.00">hit/Suspension</text>
</a>
</g>
<!-- 105&#45;&gt;75 -->
<g id="edge118" class="edge"><title>105&#45;&gt;75</title>
<path fill="none" stroke="black" d="M1132.93,-962.327C1129.27,-953.874 1124.88,-943.714 1120.86,-934.42"/>
<polygon fill="black" stroke="black" points="1124.03,-932.945 1116.85,-925.156 1117.61,-935.724 1124.03,-932.945"/>
</g>
<!-- 108&#45;&gt;90 -->
<g id="edge122" class="edge"><title>108&#45;&gt;90</title>
<path fill="none" stroke="black" d="M1215.09,-1037.65C1229.78,-1027.49 1248.51,-1014.53 1264.35,-1003.58"/>
<polygon fill="black" stroke="black" points="1266.57,-1006.3 1272.81,-997.732 1262.59,-1000.54 1266.57,-1006.3"/>
</g>
<!-- 108&#45;&gt;105 -->
<g id="edge120" class="edge"><title>108&#45;&gt;105</title>
<path fill="none" stroke="black" d="M1177.89,-1036.71C1172.12,-1027.99 1165.1,-1017.4 1158.74,-1007.79"/>
<polygon fill="black" stroke="black" points="1161.58,-1005.74 1153.14,-999.338 1155.75,-1009.61 1161.58,-1005.74"/>
</g>
<!-- 111 -->
<g id="node38" class="node"><title>111</title>
<a xlink:href="http://hott.github.io/HoTT/proviola-html/HoTT.hit.minus1Trunc.html" xlink:title="hit/minus1Trunc">
<ellipse fill="none" stroke="orange" cx="564" cy="-981" rx="90.0096" ry="18.3848"/>
<text text-anchor="middle" x="564" y="-977.4" font-family="Times Roman,serif" font-size="14.00">hit/minus1Trunc</text>
</a>
</g>
<!-- 111&#45;&gt;45 -->
<g id="edge126" class="edge"><title>111&#45;&gt;45</title>
<path fill="none" stroke="black" d="M606.673,-964.596C677.173,-937.495 817.839,-883.42 895.1,-853.72"/>
<polygon fill="black" stroke="black" points="896.577,-856.902 904.655,-850.047 894.065,-850.368 896.577,-856.902"/>
</g>
<!-- 111&#45;&gt;48 -->
<g id="edge124" class="edge"><title>111&#45;&gt;48</title>
<path fill="none" stroke="black" d="M553.149,-962.327C548.223,-953.849 542.299,-943.654 536.886,-934.338"/>
<polygon fill="black" stroke="black" points="539.749,-932.299 531.698,-925.411 533.696,-935.816 539.749,-932.299"/>
</g>
<!-- 114 -->
<g id="node39" class="node"><title>114</title>
<a xlink:href="http://hott.github.io/HoTT/proviola-html/HoTT.hit.epi.html" xlink:title="hit/epi">
<ellipse fill="none" stroke="orange" cx="792" cy="-1055" rx="41.9273" ry="18.3848"/>
<text text-anchor="middle" x="792" y="-1051.4" font-family="Times Roman,serif" font-size="14.00">hit/epi</text>
</a>
</g>
<!-- 114&#45;&gt;78 -->
<g id="edge128" class="edge"><title>114&#45;&gt;78</title>
<path fill="none" stroke="black" d="M820.026,-1041.08C842.55,-1029.89 874.51,-1014.02 899.924,-1001.4"/>
<polygon fill="black" stroke="black" points="901.562,-1004.49 908.961,-996.912 898.448,-998.225 901.562,-1004.49"/>
</g>
<!-- 114&#45;&gt;111 -->
<g id="edge130" class="edge"><title>114&#45;&gt;111</title>
<path fill="none" stroke="black" d="M757.866,-1043.92C722.023,-1032.29 665.013,-1013.78 622.074,-999.849"/>
<polygon fill="black" stroke="black" points="622.905,-996.439 612.313,-996.68 620.744,-1003.1 622.905,-996.439"/>
</g>
<!-- 117 -->
<g id="node40" class="node"><title>117</title>
<a xlink:href="http://hott.github.io/HoTT/proviola-html/HoTT.hit.unique_choice.html" xlink:title="hit/unique_choice">
<ellipse fill="none" stroke="orange" cx="588" cy="-1055" rx="96.8736" ry="18.3848"/>
<text text-anchor="middle" x="588" y="-1051.4" font-family="Times Roman,serif" font-size="14.00">hit/unique_choice</text>
</a>
</g>
<!-- 117&#45;&gt;111 -->
<g id="edge132" class="edge"><title>117&#45;&gt;111</title>
<path fill="none" stroke="black" d="M581.944,-1036.33C579.3,-1028.18 576.142,-1018.44 573.217,-1009.42"/>
<polygon fill="black" stroke="black" points="576.469,-1008.1 570.054,-999.667 569.81,-1010.26 576.469,-1008.1"/>
</g>
<!-- 120&#45;&gt;114 -->
<g id="edge134" class="edge"><title>120&#45;&gt;114</title>
<path fill="none" stroke="black" d="M859.456,-1111.09C847.555,-1101.19 832.638,-1088.79 819.86,-1078.16"/>
<polygon fill="black" stroke="black" points="821.752,-1075.19 811.825,-1071.48 817.276,-1080.57 821.752,-1075.19"/>
</g>
<!-- 123&#45;&gt;114 -->
<g id="edge138" class="edge"><title>123&#45;&gt;114</title>
<path fill="none" stroke="black" d="M762.64,-1110.71C767.174,-1102.11 772.673,-1091.67 777.681,-1082.17"/>
<polygon fill="black" stroke="black" points="780.904,-1083.56 782.47,-1073.08 774.712,-1080.3 780.904,-1083.56"/>
</g>
<!-- 123&#45;&gt;117 -->
<g id="edge136" class="edge"><title>123&#45;&gt;117</title>
<path fill="none" stroke="black" d="M723.881,-1115.94C699.444,-1104.98 664.056,-1089.11 635.52,-1076.31"/>
<polygon fill="black" stroke="black" points="636.688,-1073 626.131,-1072.1 633.823,-1079.39 636.688,-1073"/>
</g>
<!-- 126&#45;&gt;48 -->
<g id="edge140" class="edge"><title>126&#45;&gt;48</title>
<path fill="none" stroke="black" d="M382.436,-963.65C410.412,-952.213 447.019,-937.246 475.58,-925.569"/>
<polygon fill="black" stroke="black" points="477.002,-928.769 484.934,-921.745 474.353,-922.29 477.002,-928.769"/>
</g>
<!-- 126&#45;&gt;63 -->
<g id="edge142" class="edge"><title>126&#45;&gt;63</title>
<path fill="none" stroke="black" d="M422.642,-968.003C436.761,-965.907 451.292,-963.828 465,-962 602.032,-943.725 761.616,-926.138 857.621,-915.958"/>
<polygon fill="black" stroke="black" points="857.994,-919.438 867.571,-914.906 857.258,-912.477 857.994,-919.438"/>
</g>
</g>
</svg>
