<?xml version="1.0" encoding="UTF-8" standalone="no"?>
<!DOCTYPE svg PUBLIC "-//W3C//DTD SVG 1.1//EN"
 "http://www.w3.org/Graphics/SVG/1.1/DTD/svg11.dtd">
<!-- Generated by graphviz version 2.26.3 (20100126.1600)
 -->
<!-- Title: HoTT Core Library Dependency Graph Pages: 1 -->
<svg width="1666pt" height="1304pt"
 viewBox="0.00 0.00 1666.00 1304.00" xmlns="http://www.w3.org/2000/svg" xmlns:xlink="http://www.w3.org/1999/xlink">
<g id="graph1" class="graph" transform="scale(1 1) rotate(0) translate(4 1300)">
<title>HoTT Core Library Dependency Graph</title>
<polygon fill="white" stroke="white" points="-4,5 -4,-1300 1663,-1300 1663,5 -4,5"/>
<!-- 0 -->
<g id="node1" class="node"><title>0</title>
<a xlink:href="http://hott.github.io/HoTT/proviola-html/HoTT.Overture.html" xlink:title="Overture">
<ellipse fill="none" stroke="green" cx="1424" cy="-19" rx="56.0679" ry="18.3848"/>
<text text-anchor="middle" x="1424" y="-15.4" font-family="Times Roman,serif" font-size="14.00">Overture</text>
</a>
</g>
<!-- 4 -->
<g id="node2" class="node"><title>4</title>
<a xlink:href="http://hott.github.io/HoTT/proviola-html/HoTT.PathGroupoids.html" xlink:title="PathGroupoids">
<ellipse fill="none" stroke="green" cx="1369" cy="-93" rx="82.939" ry="18.3848"/>
<text text-anchor="middle" x="1369" y="-89.4" font-family="Times Roman,serif" font-size="14.00">PathGroupoids</text>
</a>
</g>
<!-- 4&#45;&gt;0 -->
<g id="edge2" class="edge"><title>4&#45;&gt;0</title>
<path fill="none" stroke="black" d="M1382.6,-74.7079C1389.19,-65.8363 1397.23,-55.0174 1404.47,-45.282"/>
<polygon fill="black" stroke="black" points="1407.4,-47.1955 1410.56,-37.0817 1401.79,-43.0199 1407.4,-47.1955"/>
</g>
<!-- 8 -->
<g id="node3" class="node"><title>8</title>
<a xlink:href="http://hott.github.io/HoTT/proviola-html/HoTT.Conjugation.html" xlink:title="Conjugation">
<ellipse fill="none" stroke="green" cx="1476" cy="-537" rx="70.2092" ry="18.3848"/>
<text text-anchor="middle" x="1476" y="-533.4" font-family="Times Roman,serif" font-size="14.00">Conjugation</text>
</a>
</g>
<!-- 8&#45;&gt;4 -->
<g id="edge4" class="edge"><title>8&#45;&gt;4</title>
<path fill="none" stroke="black" d="M1465.18,-518.547C1450.21,-491.215 1425,-437.919 1425,-389 1425,-389 1425,-389 1425,-241 1425,-196.379 1402.46,-148.803 1385.98,-119.983"/>
<polygon fill="black" stroke="black" points="1388.96,-118.156 1380.88,-111.312 1382.93,-121.706 1388.96,-118.156"/>
</g>
<!-- 12 -->
<g id="node4" class="node"><title>12</title>
<a xlink:href="http://hott.github.io/HoTT/proviola-html/HoTT.Contractible.html" xlink:title="Contractible">
<ellipse fill="none" stroke="green" cx="1028" cy="-241" rx="70.9184" ry="18.3848"/>
<text text-anchor="middle" x="1028" y="-237.4" font-family="Times Roman,serif" font-size="14.00">Contractible</text>
</a>
</g>
<!-- 12&#45;&gt;4 -->
<g id="edge6" class="edge"><title>12&#45;&gt;4</title>
<path fill="none" stroke="black" d="M1091.55,-232.586C1158.27,-222.904 1257.98,-205.77 1291,-186 1317.74,-169.991 1339.61,-141.446 1353.32,-120.189"/>
<polygon fill="black" stroke="black" points="1356.36,-121.921 1358.68,-111.583 1350.42,-118.217 1356.36,-121.921"/>
</g>
<!-- 16 -->
<g id="node5" class="node"><title>16</title>
<a xlink:href="http://hott.github.io/HoTT/proviola-html/HoTT.Equivalences.html" xlink:title="Equivalences">
<ellipse fill="none" stroke="green" cx="927" cy="-167" rx="74.9533" ry="18.3848"/>
<text text-anchor="middle" x="927" y="-163.4" font-family="Times Roman,serif" font-size="14.00">Equivalences</text>
</a>
</g>
<!-- 16&#45;&gt;4 -->
<g id="edge8" class="edge"><title>16&#45;&gt;4</title>
<path fill="none" stroke="black" d="M989.39,-156.555C1069.05,-143.218 1206.81,-120.154 1292.65,-105.782"/>
<polygon fill="black" stroke="black" points="1293.31,-109.221 1302.6,-104.117 1292.16,-102.317 1293.31,-109.221"/>
</g>
<!-- 20 -->
<g id="node6" class="node"><title>20</title>
<a xlink:href="http://hott.github.io/HoTT/proviola-html/HoTT.types.Paths.html" xlink:title="types/Paths">
<ellipse fill="none" stroke="blueviolet" cx="729" cy="-241" rx="68.0887" ry="18.3848"/>
<text text-anchor="middle" x="729" y="-237.4" font-family="Times Roman,serif" font-size="14.00">types/Paths</text>
</a>
</g>
<!-- 20&#45;&gt;16 -->
<g id="edge10" class="edge"><title>20&#45;&gt;16</title>
<path fill="none" stroke="black" d="M769.068,-226.025C799.923,-214.494 842.784,-198.475 876.071,-186.034"/>
<polygon fill="black" stroke="black" points="877.486,-189.242 885.628,-182.462 875.036,-182.685 877.486,-189.242"/>
</g>
<!-- 24 -->
<g id="node7" class="node"><title>24</title>
<a xlink:href="http://hott.github.io/HoTT/proviola-html/HoTT.types.Unit.html" xlink:title="types/Unit">
<ellipse fill="none" stroke="blueviolet" cx="877" cy="-241" rx="62.2254" ry="18.3848"/>
<text text-anchor="middle" x="877" y="-237.4" font-family="Times Roman,serif" font-size="14.00">types/Unit</text>
</a>
</g>
<!-- 24&#45;&gt;16 -->
<g id="edge12" class="edge"><title>24&#45;&gt;16</title>
<path fill="none" stroke="black" d="M889.36,-222.708C895.249,-213.991 902.409,-203.395 908.896,-193.794"/>
<polygon fill="black" stroke="black" points="911.911,-195.584 914.609,-185.338 906.111,-191.665 911.911,-195.584"/>
</g>
<!-- 28 -->
<g id="node8" class="node"><title>28</title>
<a xlink:href="http://hott.github.io/HoTT/proviola-html/HoTT.Trunc.html" xlink:title="Trunc">
<ellipse fill="none" stroke="green" cx="729" cy="-315" rx="38.1838" ry="18.3848"/>
<text text-anchor="middle" x="729" y="-311.4" font-family="Times Roman,serif" font-size="14.00">Trunc</text>
</a>
</g>
<!-- 28&#45;&gt;12 -->
<g id="edge14" class="edge"><title>28&#45;&gt;12</title>
<path fill="none" stroke="black" d="M763.008,-306.583C812.377,-294.365 904.709,-271.513 966.281,-256.275"/>
<polygon fill="black" stroke="black" points="967.399,-259.604 976.265,-253.804 965.717,-252.809 967.399,-259.604"/>
</g>
<!-- 28&#45;&gt;20 -->
<g id="edge16" class="edge"><title>28&#45;&gt;20</title>
<path fill="none" stroke="black" d="M729,-296.327C729,-288.264 729,-278.648 729,-269.711"/>
<polygon fill="black" stroke="black" points="732.5,-269.667 729,-259.667 725.5,-269.667 732.5,-269.667"/>
</g>
<!-- 28&#45;&gt;24 -->
<g id="edge18" class="edge"><title>28&#45;&gt;24</title>
<path fill="none" stroke="black" d="M755.802,-301.599C778.133,-290.434 810.305,-274.347 835.891,-261.554"/>
<polygon fill="black" stroke="black" points="837.61,-264.608 844.989,-257.005 834.48,-258.347 837.61,-264.608"/>
</g>
<!-- 32 -->
<g id="node9" class="node"><title>32</title>
<a xlink:href="http://hott.github.io/HoTT/proviola-html/HoTT.types.Forall.html" xlink:title="types/Forall">
<ellipse fill="none" stroke="blueviolet" cx="726" cy="-389" rx="67.8823" ry="18.3848"/>
<text text-anchor="middle" x="726" y="-385.4" font-family="Times Roman,serif" font-size="14.00">types/Forall</text>
</a>
</g>
<!-- 32&#45;&gt;28 -->
<g id="edge20" class="edge"><title>32&#45;&gt;28</title>
<path fill="none" stroke="black" d="M726.757,-370.327C727.084,-362.264 727.474,-352.648 727.836,-343.711"/>
<polygon fill="black" stroke="black" points="731.335,-343.801 728.243,-333.667 724.341,-343.517 731.335,-343.801"/>
</g>
<!-- 36 -->
<g id="node10" class="node"><title>36</title>
<a xlink:href="http://hott.github.io/HoTT/proviola-html/HoTT.types.Arrow.html" xlink:title="types/Arrow">
<ellipse fill="none" stroke="blueviolet" cx="1086" cy="-463" rx="70.9184" ry="18.3848"/>
<text text-anchor="middle" x="1086" y="-459.4" font-family="Times Roman,serif" font-size="14.00">types/Arrow</text>
</a>
</g>
<!-- 36&#45;&gt;32 -->
<g id="edge22" class="edge"><title>36&#45;&gt;32</title>
<path fill="none" stroke="black" d="M1027.29,-452.474C969.928,-441.983 880.227,-425.021 803,-408 797.401,-406.766 791.586,-405.431 785.774,-404.06"/>
<polygon fill="black" stroke="black" points="786.573,-400.652 776.033,-401.73 784.945,-407.46 786.573,-400.652"/>
</g>
<!-- 40 -->
<g id="node11" class="node"><title>40</title>
<a xlink:href="http://hott.github.io/HoTT/proviola-html/HoTT.types.Sigma.html" xlink:title="types/Sigma">
<ellipse fill="none" stroke="blueviolet" cx="1112" cy="-537" rx="70.9184" ry="18.3848"/>
<text text-anchor="middle" x="1112" y="-533.4" font-family="Times Roman,serif" font-size="14.00">types/Sigma</text>
</a>
</g>
<!-- 40&#45;&gt;36 -->
<g id="edge24" class="edge"><title>40&#45;&gt;36</title>
<path fill="none" stroke="black" d="M1105.44,-518.327C1102.54,-510.089 1099.08,-500.229 1095.88,-491.13"/>
<polygon fill="black" stroke="black" points="1099.18,-489.942 1092.56,-481.667 1092.57,-492.262 1099.18,-489.942"/>
</g>
<!-- 44 -->
<g id="node12" class="node"><title>44</title>
<a xlink:href="http://hott.github.io/HoTT/proviola-html/HoTT.types.Prod.html" xlink:title="types/Prod">
<ellipse fill="none" stroke="blueviolet" cx="683" cy="-611" rx="63.1385" ry="18.3848"/>
<text text-anchor="middle" x="683" y="-607.4" font-family="Times Roman,serif" font-size="14.00">types/Prod</text>
</a>
</g>
<!-- 44&#45;&gt;28 -->
<g id="edge26" class="edge"><title>44&#45;&gt;28</title>
<path fill="none" stroke="black" d="M673.337,-592.502C652.754,-550.342 609.558,-444.98 649,-370 657.855,-353.166 674.449,-340.486 690.239,-331.569"/>
<polygon fill="black" stroke="black" points="692.164,-334.51 699.378,-326.75 688.899,-328.318 692.164,-334.51"/>
</g>
<!-- 48 -->
<g id="node13" class="node"><title>48</title>
<a xlink:href="http://hott.github.io/HoTT/proviola-html/HoTT.types.Record.html" xlink:title="types/Record">
<ellipse fill="none" stroke="blueviolet" cx="1088" cy="-611" rx="74.2462" ry="18.3848"/>
<text text-anchor="middle" x="1088" y="-607.4" font-family="Times Roman,serif" font-size="14.00">types/Record</text>
</a>
</g>
<!-- 48&#45;&gt;40 -->
<g id="edge28" class="edge"><title>48&#45;&gt;40</title>
<path fill="none" stroke="black" d="M1094.06,-592.327C1096.7,-584.176 1099.86,-574.438 1102.78,-565.42"/>
<polygon fill="black" stroke="black" points="1106.19,-566.259 1105.95,-555.667 1099.53,-564.1 1106.19,-566.259"/>
</g>
<!-- 52 -->
<g id="node14" class="node"><title>52</title>
<a xlink:href="http://hott.github.io/HoTT/proviola-html/HoTT.types.Empty.html" xlink:title="types/Empty">
<ellipse fill="none" stroke="blueviolet" cx="885" cy="-389" rx="72.832" ry="18.3848"/>
<text text-anchor="middle" x="885" y="-385.4" font-family="Times Roman,serif" font-size="14.00">types/Empty</text>
</a>
</g>
<!-- 52&#45;&gt;12 -->
<g id="edge30" class="edge"><title>52&#45;&gt;12</title>
<path fill="none" stroke="black" d="M902.535,-370.852C927.729,-344.777 974.295,-296.583 1003.06,-266.808"/>
<polygon fill="black" stroke="black" points="1005.89,-268.92 1010.32,-259.296 1000.86,-264.056 1005.89,-268.92"/>
</g>
<!-- 56 -->
<g id="node15" class="node"><title>56</title>
<a xlink:href="http://hott.github.io/HoTT/proviola-html/HoTT.HProp.html" xlink:title="HProp">
<ellipse fill="none" stroke="green" cx="689" cy="-685" rx="41.2167" ry="18.3848"/>
<text text-anchor="middle" x="689" y="-681.4" font-family="Times Roman,serif" font-size="14.00">HProp</text>
</a>
</g>
<!-- 56&#45;&gt;44 -->
<g id="edge32" class="edge"><title>56&#45;&gt;44</title>
<path fill="none" stroke="black" d="M687.486,-666.327C686.832,-658.264 686.053,-648.648 685.328,-639.711"/>
<polygon fill="black" stroke="black" points="688.81,-639.352 684.514,-629.667 681.833,-639.918 688.81,-639.352"/>
</g>
<!-- 56&#45;&gt;48 -->
<g id="edge34" class="edge"><title>56&#45;&gt;48</title>
<path fill="none" stroke="black" d="M727.258,-677.905C794.265,-665.477 933.758,-639.606 1018.3,-623.927"/>
<polygon fill="black" stroke="black" points="1019.13,-627.332 1028.33,-622.067 1017.86,-620.449 1019.13,-627.332"/>
</g>
<!-- 56&#45;&gt;52 -->
<g id="edge36" class="edge"><title>56&#45;&gt;52</title>
<path fill="none" stroke="black" d="M711.682,-669.517C725.38,-659.389 742.538,-645.242 755,-630 811.325,-561.108 854.785,-464.113 874.079,-416.946"/>
<polygon fill="black" stroke="black" points="877.328,-418.248 877.826,-407.665 870.837,-415.628 877.328,-418.248"/>
</g>
<!-- 60 -->
<g id="node16" class="node"><title>60</title>
<a xlink:href="http://hott.github.io/HoTT/proviola-html/HoTT.EquivalenceVarieties.html" xlink:title="EquivalenceVarieties">
<ellipse fill="none" stroke="green" cx="689" cy="-759" rx="111.93" ry="18.3848"/>
<text text-anchor="middle" x="689" y="-755.4" font-family="Times Roman,serif" font-size="14.00">EquivalenceVarieties</text>
</a>
</g>
<!-- 60&#45;&gt;56 -->
<g id="edge38" class="edge"><title>60&#45;&gt;56</title>
<path fill="none" stroke="black" d="M689,-740.327C689,-732.264 689,-722.648 689,-713.711"/>
<polygon fill="black" stroke="black" points="692.5,-713.667 689,-703.667 685.5,-713.667 692.5,-713.667"/>
</g>
<!-- 64 -->
<g id="node17" class="node"><title>64</title>
<a xlink:href="http://hott.github.io/HoTT/proviola-html/HoTT.Fibrations.html" xlink:title="Fibrations">
<ellipse fill="none" stroke="green" cx="1368" cy="-907" rx="58.8978" ry="18.3848"/>
<text text-anchor="middle" x="1368" y="-903.4" font-family="Times Roman,serif" font-size="14.00">Fibrations</text>
</a>
</g>
<!-- 64&#45;&gt;4 -->
<g id="edge40" class="edge"><title>64&#45;&gt;4</title>
<path fill="none" stroke="black" d="M1370.07,-888.337C1373,-860.296 1378,-805.613 1378,-759 1378,-759 1378,-759 1378,-241 1378,-199.503 1374.43,-151.582 1371.79,-121.782"/>
<polygon fill="black" stroke="black" points="1375.26,-121.309 1370.86,-111.668 1368.29,-121.945 1375.26,-121.309"/>
</g>
<!-- 68 -->
<g id="node18" class="node"><title>68</title>
<a xlink:href="http://hott.github.io/HoTT/proviola-html/HoTT.types.UniverseLevel.html" xlink:title="types/UniverseLevel">
<ellipse fill="none" stroke="blueviolet" cx="1172" cy="-167" rx="109.81" ry="18.3848"/>
<text text-anchor="middle" x="1172" y="-163.4" font-family="Times Roman,serif" font-size="14.00">types/UniverseLevel</text>
</a>
</g>
<!-- 68&#45;&gt;0 -->
<g id="edge42" class="edge"><title>68&#45;&gt;0</title>
<path fill="none" stroke="black" d="M1188.61,-148.694C1208.09,-128.149 1242.15,-94.9587 1277,-74 1306.03,-56.5386 1341.54,-43.0644 1370.39,-33.8235"/>
<polygon fill="black" stroke="black" points="1371.79,-37.053 1380.29,-30.7318 1369.7,-30.371 1371.79,-37.053"/>
</g>
<!-- 72 -->
<g id="node19" class="node"><title>72</title>
<a xlink:href="http://hott.github.io/HoTT/proviola-html/HoTT.FunextVarieties.html" xlink:title="FunextVarieties">
<ellipse fill="none" stroke="green" cx="1127" cy="-315" rx="87.889" ry="18.3848"/>
<text text-anchor="middle" x="1127" y="-311.4" font-family="Times Roman,serif" font-size="14.00">FunextVarieties</text>
</a>
</g>
<!-- 72&#45;&gt;12 -->
<g id="edge44" class="edge"><title>72&#45;&gt;12</title>
<path fill="none" stroke="black" d="M1103.03,-297.087C1090.05,-287.381 1073.84,-275.262 1059.81,-264.775"/>
<polygon fill="black" stroke="black" points="1061.51,-261.677 1051.4,-258.493 1057.32,-267.284 1061.51,-261.677"/>
</g>
<!-- 72&#45;&gt;16 -->
<g id="edge46" class="edge"><title>72&#45;&gt;16</title>
<path fill="none" stroke="black" d="M1128.43,-296.472C1128.97,-275.724 1126.53,-242.348 1108,-222 1092.68,-205.181 1040.95,-190.46 996.689,-180.491"/>
<polygon fill="black" stroke="black" points="997.313,-177.045 986.794,-178.312 995.808,-183.881 997.313,-177.045"/>
</g>
<!-- 72&#45;&gt;68 -->
<g id="edge48" class="edge"><title>72&#45;&gt;68</title>
<path fill="none" stroke="black" d="M1132.7,-296.256C1140.44,-270.79 1154.35,-225.04 1163.38,-195.36"/>
<polygon fill="black" stroke="black" points="1166.79,-196.178 1166.35,-185.592 1160.09,-194.141 1166.79,-196.178"/>
</g>
<!-- 76 -->
<g id="node20" class="node"><title>76</title>
<a xlink:href="http://hott.github.io/HoTT/proviola-html/HoTT.HSet.html" xlink:title="HSet">
<ellipse fill="none" stroke="green" cx="355" cy="-759" rx="34.8574" ry="18.3848"/>
<text text-anchor="middle" x="355" y="-755.4" font-family="Times Roman,serif" font-size="14.00">HSet</text>
</a>
</g>
<!-- 76&#45;&gt;56 -->
<g id="edge50" class="edge"><title>76&#45;&gt;56</title>
<path fill="none" stroke="black" d="M389.105,-754.334C442.876,-746.545 550.362,-729.222 639,-704 642.316,-703.056 645.722,-701.987 649.121,-700.848"/>
<polygon fill="black" stroke="black" points="650.342,-704.129 658.607,-697.501 648.012,-697.528 650.342,-704.129"/>
</g>
<!-- 80 -->
<g id="node21" class="node"><title>80</title>
<a xlink:href="http://hott.github.io/HoTT/proviola-html/HoTT.types.Bool.html" xlink:title="types/Bool">
<ellipse fill="none" stroke="blueviolet" cx="292" cy="-833" rx="62.9325" ry="18.3848"/>
<text text-anchor="middle" x="292" y="-829.4" font-family="Times Roman,serif" font-size="14.00">types/Bool</text>
</a>
</g>
<!-- 80&#45;&gt;76 -->
<g id="edge52" class="edge"><title>80&#45;&gt;76</title>
<path fill="none" stroke="black" d="M307.573,-814.708C315.508,-805.387 325.274,-793.916 333.877,-783.811"/>
<polygon fill="black" stroke="black" points="336.652,-785.95 340.47,-776.067 331.322,-781.413 336.652,-785.95"/>
</g>
<!-- 84 -->
<g id="node22" class="node"><title>84</title>
<a xlink:href="http://hott.github.io/HoTT/proviola-html/HoTT.types.Sum.html" xlink:title="types/Sum">
<ellipse fill="none" stroke="blueviolet" cx="292" cy="-907" rx="62.9325" ry="18.3848"/>
<text text-anchor="middle" x="292" y="-903.4" font-family="Times Roman,serif" font-size="14.00">types/Sum</text>
</a>
</g>
<!-- 84&#45;&gt;80 -->
<g id="edge54" class="edge"><title>84&#45;&gt;80</title>
<path fill="none" stroke="black" d="M292,-888.327C292,-880.264 292,-870.648 292,-861.711"/>
<polygon fill="black" stroke="black" points="295.5,-861.667 292,-851.667 288.5,-861.667 295.5,-861.667"/>
</g>
<!-- 88 -->
<g id="node23" class="node"><title>88</title>
<a xlink:href="http://hott.github.io/HoTT/proviola-html/HoTT.types.Universe.html" xlink:title="types/Universe">
<ellipse fill="none" stroke="blueviolet" cx="689" cy="-833" rx="84.1457" ry="18.3848"/>
<text text-anchor="middle" x="689" y="-829.4" font-family="Times Roman,serif" font-size="14.00">types/Universe</text>
</a>
</g>
<!-- 88&#45;&gt;60 -->
<g id="edge56" class="edge"><title>88&#45;&gt;60</title>
<path fill="none" stroke="black" d="M689,-814.327C689,-806.264 689,-796.648 689,-787.711"/>
<polygon fill="black" stroke="black" points="692.5,-787.667 689,-777.667 685.5,-787.667 692.5,-787.667"/>
</g>
<!-- 92 -->
<g id="node24" class="node"><title>92</title>
<a xlink:href="http://hott.github.io/HoTT/proviola-html/HoTT.UnivalenceImpliesFunext.html" xlink:title="UnivalenceImpliesFunext">
<ellipse fill="none" stroke="green" cx="972" cy="-907" rx="132.936" ry="18.3848"/>
<text text-anchor="middle" x="972" y="-903.4" font-family="Times Roman,serif" font-size="14.00">UnivalenceImpliesFunext</text>
</a>
</g>
<!-- 92&#45;&gt;72 -->
<g id="edge58" class="edge"><title>92&#45;&gt;72</title>
<path fill="none" stroke="black" d="M974.901,-888.363C979.001,-860.356 986,-805.715 986,-759 986,-759 986,-759 986,-463 986,-405.637 1042.21,-361.709 1083.65,-337.119"/>
<polygon fill="black" stroke="black" points="1085.59,-340.044 1092.51,-332.021 1082.09,-333.977 1085.59,-340.044"/>
</g>
<!-- 92&#45;&gt;88 -->
<g id="edge60" class="edge"><title>92&#45;&gt;88</title>
<path fill="none" stroke="black" d="M909.193,-890.577C862.825,-878.452 799.927,-862.006 753.226,-849.794"/>
<polygon fill="black" stroke="black" points="754.078,-846.399 743.518,-847.256 752.307,-853.172 754.078,-846.399"/>
</g>
<!-- 96 -->
<g id="node25" class="node"><title>96</title>
<a xlink:href="http://hott.github.io/HoTT/proviola-html/HoTT.Pointed.html" xlink:title="Pointed">
<ellipse fill="none" stroke="green" cx="1537" cy="-463" rx="48.0833" ry="18.3848"/>
<text text-anchor="middle" x="1537" y="-459.4" font-family="Times Roman,serif" font-size="14.00">Pointed</text>
</a>
</g>
<!-- 96&#45;&gt;0 -->
<g id="edge62" class="edge"><title>96&#45;&gt;0</title>
<path fill="none" stroke="black" d="M1524.91,-444.717C1508.18,-417.596 1480,-364.562 1480,-315 1480,-315 1480,-315 1480,-167 1480,-124.813 1477.31,-112.908 1461,-74 1456.86,-64.1292 1450.85,-54.1716 1444.87,-45.493"/>
<polygon fill="black" stroke="black" points="1447.65,-43.3652 1438.97,-37.2913 1441.97,-47.453 1447.65,-43.3652"/>
</g>
<!-- 100 -->
<g id="node26" class="node"><title>100</title>
<a xlink:href="http://hott.github.io/HoTT/proviola-html/HoTT.Tactics.html" xlink:title="Tactics">
<ellipse fill="none" stroke="green" cx="586" cy="-685" rx="43.8406" ry="18.3848"/>
<text text-anchor="middle" x="586" y="-681.4" font-family="Times Roman,serif" font-size="14.00">Tactics</text>
</a>
</g>
<!-- 100&#45;&gt;32 -->
<g id="edge64" class="edge"><title>100&#45;&gt;32</title>
<path fill="none" stroke="black" d="M589.555,-666.374C593.535,-647.269 600.791,-616.906 611,-592 638.307,-525.381 683.136,-453.407 707.989,-415.632"/>
<polygon fill="black" stroke="black" points="710.953,-417.495 713.562,-407.226 705.119,-413.627 710.953,-417.495"/>
</g>
<!-- 100&#45;&gt;44 -->
<g id="edge66" class="edge"><title>100&#45;&gt;44</title>
<path fill="none" stroke="black" d="M607.527,-668.577C620.592,-658.611 637.484,-645.724 651.974,-634.669"/>
<polygon fill="black" stroke="black" points="654.354,-637.256 660.181,-628.408 650.108,-631.691 654.354,-637.256"/>
</g>
<!-- 104 -->
<g id="node27" class="node"><title>104</title>
<a xlink:href="http://hott.github.io/HoTT/proviola-html/HoTT.TruncType.html" xlink:title="TruncType">
<ellipse fill="none" stroke="green" cx="551" cy="-981" rx="60.8112" ry="18.3848"/>
<text text-anchor="middle" x="551" y="-977.4" font-family="Times Roman,serif" font-size="14.00">TruncType</text>
</a>
</g>
<!-- 104&#45;&gt;92 -->
<g id="edge68" class="edge"><title>104&#45;&gt;92</title>
<path fill="none" stroke="black" d="M595.258,-968.201C603.761,-965.965 612.626,-963.787 621,-962 701.637,-944.793 793.766,-930.559 863.399,-920.886"/>
<polygon fill="black" stroke="black" points="864.077,-924.325 873.505,-919.492 863.121,-917.391 864.077,-924.325"/>
</g>
<!-- 184 -->
<g id="node47" class="node"><title>184</title>
<a xlink:href="http://hott.github.io/HoTT/proviola-html/HoTT.Misc.html" xlink:title="Misc">
<ellipse fill="none" stroke="green" cx="179" cy="-907" rx="32.0265" ry="18.3848"/>
<text text-anchor="middle" x="179" y="-903.4" font-family="Times Roman,serif" font-size="14.00">Misc</text>
</a>
</g>
<!-- 104&#45;&gt;184 -->
<g id="edge70" class="edge"><title>104&#45;&gt;184</title>
<path fill="none" stroke="black" d="M497.408,-972.141C404.138,-956.718 221.657,-926.511 220,-926 217.418,-925.203 214.789,-924.277 212.173,-923.271"/>
<polygon fill="black" stroke="black" points="213.43,-920.003 202.855,-919.363 210.723,-926.458 213.43,-920.003"/>
</g>
<!-- 108 -->
<g id="node28" class="node"><title>108</title>
<a xlink:href="http://hott.github.io/HoTT/proviola-html/HoTT.Functorish.html" xlink:title="Functorish">
<ellipse fill="none" stroke="green" cx="569" cy="-1055" rx="62.9325" ry="18.3848"/>
<text text-anchor="middle" x="569" y="-1051.4" font-family="Times Roman,serif" font-size="14.00">Functorish</text>
</a>
</g>
<!-- 108&#45;&gt;104 -->
<g id="edge72" class="edge"><title>108&#45;&gt;104</title>
<path fill="none" stroke="black" d="M564.458,-1036.33C562.475,-1028.18 560.107,-1018.44 557.913,-1009.42"/>
<polygon fill="black" stroke="black" points="561.305,-1008.56 555.541,-999.667 554.503,-1010.21 561.305,-1008.56"/>
</g>
<!-- 112 -->
<g id="node29" class="node"><title>112</title>
<a xlink:href="http://hott.github.io/HoTT/proviola-html/HoTT.FunextAxiom.html" xlink:title="FunextAxiom">
<ellipse fill="none" stroke="green" cx="1583" cy="-93" rx="75.1594" ry="18.3848"/>
<text text-anchor="middle" x="1583" y="-89.4" font-family="Times Roman,serif" font-size="14.00">FunextAxiom</text>
</a>
</g>
<!-- 112&#45;&gt;0 -->
<g id="edge74" class="edge"><title>112&#45;&gt;0</title>
<path fill="none" stroke="black" d="M1547.71,-76.577C1523.43,-65.276 1491.08,-50.2198 1465.55,-38.3382"/>
<polygon fill="black" stroke="black" points="1467.02,-35.1636 1456.48,-34.1172 1464.07,-41.51 1467.02,-35.1636"/>
</g>
<!-- 116 -->
<g id="node30" class="node"><title>116</title>
<a xlink:href="http://hott.github.io/HoTT/proviola-html/HoTT.UnivalenceAxiom.html" xlink:title="UnivalenceAxiom">
<ellipse fill="none" stroke="green" cx="650" cy="-907" rx="94.9596" ry="18.3848"/>
<text text-anchor="middle" x="650" y="-903.4" font-family="Times Roman,serif" font-size="14.00">UnivalenceAxiom</text>
</a>
</g>
<!-- 116&#45;&gt;88 -->
<g id="edge76" class="edge"><title>116&#45;&gt;88</title>
<path fill="none" stroke="black" d="M659.841,-888.327C664.309,-879.849 669.682,-869.654 674.592,-860.338"/>
<polygon fill="black" stroke="black" points="677.731,-861.889 679.297,-851.411 671.538,-858.626 677.731,-861.889"/>
</g>
<!-- 120 -->
<g id="node31" class="node"><title>120</title>
<a xlink:href="http://hott.github.io/HoTT/proviola-html/HoTT.Modality.html" xlink:title="Modality">
<ellipse fill="none" stroke="green" cx="81" cy="-833" rx="53.033" ry="18.3848"/>
<text text-anchor="middle" x="81" y="-829.4" font-family="Times Roman,serif" font-size="14.00">Modality</text>
</a>
</g>
<!-- 120&#45;&gt;56 -->
<g id="edge78" class="edge"><title>120&#45;&gt;56</title>
<path fill="none" stroke="black" d="M111.339,-817.576C154.501,-796.375 236.656,-758.729 311,-740 453.21,-704.175 496.42,-738.323 639,-704 642.398,-703.182 645.878,-702.194 649.342,-701.103"/>
<polygon fill="black" stroke="black" points="650.648,-704.356 658.982,-697.814 648.387,-697.731 650.648,-704.356"/>
</g>
<!-- 124 -->
<g id="node32" class="node"><title>124</title>
<a xlink:href="http://hott.github.io/HoTT/proviola-html/HoTT.hit.Circle.html" xlink:title="hit/Circle">
<ellipse fill="none" stroke="orange" cx="188" cy="-981" rx="55.1543" ry="18.3848"/>
<text text-anchor="middle" x="188" y="-977.4" font-family="Times Roman,serif" font-size="14.00">hit/Circle</text>
</a>
</g>
<!-- 124&#45;&gt;76 -->
<g id="edge80" class="edge"><title>124&#45;&gt;76</title>
<path fill="none" stroke="black" d="M166.171,-963.877C155.49,-954.08 143.724,-940.805 138,-926 131.91,-910.247 131.139,-903.433 138,-888 169.027,-818.208 258.37,-783.657 312.255,-768.709"/>
<polygon fill="black" stroke="black" points="313.444,-772.015 322.207,-766.059 311.643,-765.25 313.444,-772.015"/>
</g>
<!-- 124&#45;&gt;92 -->
<g id="edge82" class="edge"><title>124&#45;&gt;92</title>
<path fill="none" stroke="black" d="M227.278,-967.883C235.376,-965.592 243.904,-963.474 252,-962 472.067,-921.934 531.018,-943.711 754,-926 785.183,-923.523 818.859,-920.674 850.198,-917.948"/>
<polygon fill="black" stroke="black" points="850.627,-921.424 860.285,-917.068 850.019,-914.451 850.627,-921.424"/>
</g>
<!-- 128 -->
<g id="node33" class="node"><title>128</title>
<a xlink:href="http://hott.github.io/HoTT/proviola-html/HoTT.hit.Truncations.html" xlink:title="hit/Truncations">
<ellipse fill="none" stroke="orange" cx="1207" cy="-907" rx="84.1457" ry="18.3848"/>
<text text-anchor="middle" x="1207" y="-903.4" font-family="Times Roman,serif" font-size="14.00">hit/Truncations</text>
</a>
</g>
<!-- 128&#45;&gt;40 -->
<g id="edge84" class="edge"><title>128&#45;&gt;40</title>
<path fill="none" stroke="black" d="M1203.48,-888.388C1198.5,-860.414 1190,-805.813 1190,-759 1190,-759 1190,-759 1190,-685 1190,-642.813 1191.63,-628.798 1171,-592 1164.46,-580.338 1154.59,-569.724 1144.79,-561"/>
<polygon fill="black" stroke="black" points="1146.9,-558.203 1137,-554.423 1142.38,-563.55 1146.9,-558.203"/>
</g>
<!-- 132 -->
<g id="node34" class="node"><title>132</title>
<a xlink:href="http://hott.github.io/HoTT/proviola-html/HoTT.hit.Connectedness.html" xlink:title="hit/Connectedness">
<ellipse fill="none" stroke="orange" cx="1122" cy="-1055" rx="101.823" ry="18.3848"/>
<text text-anchor="middle" x="1122" y="-1051.4" font-family="Times Roman,serif" font-size="14.00">hit/Connectedness</text>
</a>
</g>
<!-- 132&#45;&gt;64 -->
<g id="edge86" class="edge"><title>132&#45;&gt;64</title>
<path fill="none" stroke="black" d="M1214.63,-1047.12C1278.94,-1039.5 1356.59,-1025.28 1377,-1000 1391.47,-982.076 1387.12,-955.421 1380.37,-935.236"/>
<polygon fill="black" stroke="black" points="1383.57,-933.802 1376.83,-925.633 1377.01,-936.226 1383.57,-933.802"/>
</g>
<!-- 132&#45;&gt;104 -->
<g id="edge88" class="edge"><title>132&#45;&gt;104</title>
<path fill="none" stroke="black" d="M1039.29,-1044.08C1017.73,-1041.34 994.503,-1038.47 973,-1036 816.767,-1018.05 775.621,-1028.69 621,-1000 615.661,-999.009 610.134,-997.813 604.634,-996.509"/>
<polygon fill="black" stroke="black" points="605.359,-993.083 594.81,-994.066 603.67,-999.876 605.359,-993.083"/>
</g>
<!-- 132&#45;&gt;128 -->
<g id="edge90" class="edge"><title>132&#45;&gt;128</title>
<path fill="none" stroke="black" d="M1118.4,-1036.2C1115.61,-1016.41 1114.11,-984.988 1127,-962 1134.71,-948.253 1147.46,-937.21 1160.54,-928.73"/>
<polygon fill="black" stroke="black" points="1162.4,-931.699 1169.14,-923.525 1158.77,-925.711 1162.4,-931.699"/>
</g>
<!-- 136 -->
<g id="node35" class="node"><title>136</title>
<a xlink:href="http://hott.github.io/HoTT/proviola-html/HoTT.hit.Flattening.html" xlink:title="hit/Flattening">
<ellipse fill="none" stroke="orange" cx="988" cy="-1129" rx="77.7817" ry="18.3848"/>
<text text-anchor="middle" x="988" y="-1125.4" font-family="Times Roman,serif" font-size="14.00">hit/Flattening</text>
</a>
</g>
<!-- 136&#45;&gt;92 -->
<g id="edge92" class="edge"><title>136&#45;&gt;92</title>
<path fill="none" stroke="black" d="M986.663,-1110.45C983.875,-1071.77 977.421,-982.22 974.083,-935.906"/>
<polygon fill="black" stroke="black" points="977.554,-935.372 973.344,-925.649 970.572,-935.875 977.554,-935.372"/>
</g>
<!-- 140 -->
<g id="node36" class="node"><title>140</title>
<a xlink:href="http://hott.github.io/HoTT/proviola-html/HoTT.hit.Interval.html" xlink:title="hit/Interval">
<ellipse fill="none" stroke="orange" cx="1284" cy="-611" rx="65.9683" ry="18.3848"/>
<text text-anchor="middle" x="1284" y="-607.4" font-family="Times Roman,serif" font-size="14.00">hit/Interval</text>
</a>
</g>
<!-- 140&#45;&gt;40 -->
<g id="edge94" class="edge"><title>140&#45;&gt;40</title>
<path fill="none" stroke="black" d="M1247.94,-595.487C1221.83,-584.255 1186.33,-568.979 1158.15,-556.855"/>
<polygon fill="black" stroke="black" points="1159.47,-553.612 1148.9,-552.875 1156.7,-560.042 1159.47,-553.612"/>
</g>
<!-- 140&#45;&gt;72 -->
<g id="edge96" class="edge"><title>140&#45;&gt;72</title>
<path fill="none" stroke="black" d="M1274.18,-592.484C1247.42,-542.026 1173.1,-401.907 1141.51,-342.35"/>
<polygon fill="black" stroke="black" points="1144.6,-340.703 1136.82,-333.509 1138.41,-343.983 1144.6,-340.703"/>
</g>
<!-- 144 -->
<g id="node37" class="node"><title>144</title>
<a xlink:href="http://hott.github.io/HoTT/proviola-html/HoTT.hit.Suspension.html" xlink:title="hit/Suspension">
<ellipse fill="none" stroke="orange" cx="344" cy="-981" rx="82.939" ry="18.3848"/>
<text text-anchor="middle" x="344" y="-977.4" font-family="Times Roman,serif" font-size="14.00">hit/Suspension</text>
</a>
</g>
<!-- 144&#45;&gt;184 -->
<g id="edge98" class="edge"><title>144&#45;&gt;184</title>
<path fill="none" stroke="black" d="M306.213,-964.433C281.612,-953.599 248.848,-939.081 220,-926 217.91,-925.052 215.763,-924.073 213.598,-923.082"/>
<polygon fill="black" stroke="black" points="214.669,-919.723 204.122,-918.721 211.743,-926.081 214.669,-919.723"/>
</g>
<!-- 148 -->
<g id="node38" class="node"><title>148</title>
<a xlink:href="http://hott.github.io/HoTT/proviola-html/HoTT.hit.Spheres.html" xlink:title="hit/Spheres">
<ellipse fill="none" stroke="orange" cx="344" cy="-1055" rx="67.1751" ry="18.3848"/>
<text text-anchor="middle" x="344" y="-1051.4" font-family="Times Roman,serif" font-size="14.00">hit/Spheres</text>
</a>
</g>
<!-- 148&#45;&gt;124 -->
<g id="edge100" class="edge"><title>148&#45;&gt;124</title>
<path fill="none" stroke="black" d="M310.15,-1038.94C286.392,-1027.67 254.485,-1012.54 229.239,-1000.56"/>
<polygon fill="black" stroke="black" points="230.455,-997.265 219.92,-996.142 227.455,-1003.59 230.455,-997.265"/>
</g>
<!-- 148&#45;&gt;144 -->
<g id="edge102" class="edge"><title>148&#45;&gt;144</title>
<path fill="none" stroke="black" d="M344,-1036.33C344,-1028.26 344,-1018.65 344,-1009.71"/>
<polygon fill="black" stroke="black" points="347.5,-1009.67 344,-999.667 340.5,-1009.67 347.5,-1009.67"/>
</g>
<!-- 152 -->
<g id="node39" class="node"><title>152</title>
<a xlink:href="http://hott.github.io/HoTT/proviola-html/HoTT.hit.TwoSphere.html" xlink:title="hit/TwoSphere">
<ellipse fill="none" stroke="orange" cx="455" cy="-907" rx="82.0244" ry="18.3848"/>
<text text-anchor="middle" x="455" y="-903.4" font-family="Times Roman,serif" font-size="14.00">hit/TwoSphere</text>
</a>
</g>
<!-- 152&#45;&gt;76 -->
<g id="edge104" class="edge"><title>152&#45;&gt;76</title>
<path fill="none" stroke="black" d="M442.537,-888.555C424.981,-862.572 392.875,-815.055 372.807,-785.354"/>
<polygon fill="black" stroke="black" points="375.493,-783.079 366.995,-776.752 369.693,-786.998 375.493,-783.079"/>
</g>
<!-- 152&#45;&gt;88 -->
<g id="edge106" class="edge"><title>152&#45;&gt;88</title>
<path fill="none" stroke="black" d="M502.635,-891.936C539.715,-880.21 591.343,-863.883 630.858,-851.387"/>
<polygon fill="black" stroke="black" points="632.148,-854.65 640.628,-848.297 630.038,-847.975 632.148,-854.65"/>
</g>
<!-- 156 -->
<g id="node40" class="node"><title>156</title>
<a xlink:href="http://hott.github.io/HoTT/proviola-html/HoTT.hit.minus1Trunc.html" xlink:title="hit/minus1Trunc">
<ellipse fill="none" stroke="orange" cx="874" cy="-981" rx="90.0096" ry="18.3848"/>
<text text-anchor="middle" x="874" y="-977.4" font-family="Times Roman,serif" font-size="14.00">hit/minus1Trunc</text>
</a>
</g>
<!-- 156&#45;&gt;60 -->
<g id="edge108" class="edge"><title>156&#45;&gt;60</title>
<path fill="none" stroke="black" d="M857.185,-962.586C848.36,-952.317 837.793,-939.007 830,-926 802.165,-879.544 817.743,-854.686 782,-814 770.306,-800.688 754.579,-789.712 739.389,-781.16"/>
<polygon fill="black" stroke="black" points="741.007,-778.056 730.541,-776.405 737.693,-784.222 741.007,-778.056"/>
</g>
<!-- 156&#45;&gt;64 -->
<g id="edge110" class="edge"><title>156&#45;&gt;64</title>
<path fill="none" stroke="black" d="M957.043,-973.851C1043.32,-965.591 1181.98,-949.977 1300,-926 1305.05,-924.974 1310.28,-923.772 1315.48,-922.481"/>
<polygon fill="black" stroke="black" points="1316.62,-925.802 1325.42,-919.908 1314.87,-919.025 1316.62,-925.802"/>
</g>
<!-- 160 -->
<g id="node41" class="node"><title>160</title>
<a xlink:href="http://hott.github.io/HoTT/proviola-html/HoTT.hit.epi.html" xlink:title="hit/epi">
<ellipse fill="none" stroke="orange" cx="710" cy="-1055" rx="41.9273" ry="18.3848"/>
<text text-anchor="middle" x="710" y="-1051.4" font-family="Times Roman,serif" font-size="14.00">hit/epi</text>
</a>
</g>
<!-- 160&#45;&gt;104 -->
<g id="edge112" class="edge"><title>160&#45;&gt;104</title>
<path fill="none" stroke="black" d="M680.837,-1041.43C656.457,-1030.08 621.348,-1013.74 593.785,-1000.91"/>
<polygon fill="black" stroke="black" points="594.923,-997.582 584.38,-996.535 591.969,-1003.93 594.923,-997.582"/>
</g>
<!-- 160&#45;&gt;156 -->
<g id="edge114" class="edge"><title>160&#45;&gt;156</title>
<path fill="none" stroke="black" d="M739.699,-1041.6C764.081,-1030.6 799.05,-1014.82 827.193,-1002.12"/>
<polygon fill="black" stroke="black" points="828.775,-1005.25 836.451,-997.943 825.896,-998.866 828.775,-1005.25"/>
</g>
<!-- 176 -->
<g id="node45" class="node"><title>176</title>
<a xlink:href="http://hott.github.io/HoTT/proviola-html/HoTT.hit.Pushout.html" xlink:title="hit/Pushout">
<ellipse fill="none" stroke="orange" cx="698" cy="-981" rx="68.0887" ry="18.3848"/>
<text text-anchor="middle" x="698" y="-977.4" font-family="Times Roman,serif" font-size="14.00">hit/Pushout</text>
</a>
</g>
<!-- 160&#45;&gt;176 -->
<g id="edge116" class="edge"><title>160&#45;&gt;176</title>
<path fill="none" stroke="black" d="M706.972,-1036.33C705.664,-1028.26 704.105,-1018.65 702.656,-1009.71"/>
<polygon fill="black" stroke="black" points="706.083,-1008.98 701.027,-999.667 699.173,-1010.1 706.083,-1008.98"/>
</g>
<!-- 164 -->
<g id="node42" class="node"><title>164</title>
<a xlink:href="http://hott.github.io/HoTT/proviola-html/HoTT.hit.unique_choice.html" xlink:title="hit/unique_choice">
<ellipse fill="none" stroke="orange" cx="867" cy="-1055" rx="96.8736" ry="18.3848"/>
<text text-anchor="middle" x="867" y="-1051.4" font-family="Times Roman,serif" font-size="14.00">hit/unique_choice</text>
</a>
</g>
<!-- 164&#45;&gt;156 -->
<g id="edge118" class="edge"><title>164&#45;&gt;156</title>
<path fill="none" stroke="black" d="M868.766,-1036.33C869.529,-1028.26 870.439,-1018.65 871.284,-1009.71"/>
<polygon fill="black" stroke="black" points="874.777,-1009.95 872.234,-999.667 867.808,-1009.29 874.777,-1009.95"/>
</g>
<!-- 168 -->
<g id="node43" class="node"><title>168</title>
<a xlink:href="http://hott.github.io/HoTT/proviola-html/HoTT.hit.quotient.html" xlink:title="hit/quotient">
<ellipse fill="none" stroke="orange" cx="712" cy="-1129" rx="68.7979" ry="18.3848"/>
<text text-anchor="middle" x="712" y="-1125.4" font-family="Times Roman,serif" font-size="14.00">hit/quotient</text>
</a>
</g>
<!-- 168&#45;&gt;160 -->
<g id="edge120" class="edge"><title>168&#45;&gt;160</title>
<path fill="none" stroke="black" d="M711.495,-1110.33C711.277,-1102.26 711.018,-1092.65 710.776,-1083.71"/>
<polygon fill="black" stroke="black" points="714.274,-1083.57 710.505,-1073.67 707.276,-1083.76 714.274,-1083.57"/>
</g>
<!-- 172 -->
<g id="node44" class="node"><title>172</title>
<a xlink:href="http://hott.github.io/HoTT/proviola-html/HoTT.hit.iso.html" xlink:title="hit/iso">
<ellipse fill="none" stroke="orange" cx="848" cy="-1129" rx="41.2167" ry="18.3848"/>
<text text-anchor="middle" x="848" y="-1125.4" font-family="Times Roman,serif" font-size="14.00">hit/iso</text>
</a>
</g>
<!-- 172&#45;&gt;160 -->
<g id="edge122" class="edge"><title>172&#45;&gt;160</title>
<path fill="none" stroke="black" d="M821.392,-1114.73C799.958,-1103.24 769.612,-1086.97 746.005,-1074.31"/>
<polygon fill="black" stroke="black" points="747.464,-1071.12 736.997,-1069.48 744.156,-1077.29 747.464,-1071.12"/>
</g>
<!-- 172&#45;&gt;164 -->
<g id="edge124" class="edge"><title>172&#45;&gt;164</title>
<path fill="none" stroke="black" d="M852.795,-1110.33C854.887,-1102.18 857.387,-1092.44 859.703,-1083.42"/>
<polygon fill="black" stroke="black" points="863.11,-1084.22 862.207,-1073.67 856.33,-1082.48 863.11,-1084.22"/>
</g>
<!-- 176&#45;&gt;84 -->
<g id="edge126" class="edge"><title>176&#45;&gt;84</title>
<path fill="none" stroke="black" d="M648.874,-968.08C639.649,-965.881 630.058,-963.747 621,-962 507.75,-940.156 477.071,-948.755 364,-926 358.614,-924.916 353.031,-923.668 347.467,-922.341"/>
<polygon fill="black" stroke="black" points="348.062,-918.883 337.515,-919.884 346.385,-925.679 348.062,-918.883"/>
</g>
<!-- 176&#45;&gt;88 -->
<g id="edge128" class="edge"><title>176&#45;&gt;88</title>
<path fill="none" stroke="black" d="M723.266,-963.693C734.974,-954.107 747.674,-941.079 754,-926 760.533,-910.426 761.106,-903.321 754,-888 748.251,-875.604 738.179,-864.989 727.655,-856.485"/>
<polygon fill="black" stroke="black" points="729.675,-853.625 719.584,-850.399 725.461,-859.214 729.675,-853.625"/>
</g>
<!-- 176&#45;&gt;128 -->
<g id="edge130" class="edge"><title>176&#45;&gt;128</title>
<path fill="none" stroke="black" d="M746.668,-967.93C756.023,-965.719 765.778,-963.62 775,-962 924.23,-935.79 964.271,-949.191 1114,-926 1121.56,-924.829 1129.43,-923.459 1137.26,-921.999"/>
<polygon fill="black" stroke="black" points="1137.96,-925.43 1147.12,-920.112 1136.64,-918.554 1137.96,-925.43"/>
</g>
<!-- 180 -->
<g id="node46" class="node"><title>180</title>
<a xlink:href="http://hott.github.io/HoTT/proviola-html/HoTT.types.ObjectClassifier.html" xlink:title="types/ObjectClassifier">
<ellipse fill="none" stroke="blueviolet" cx="1252" cy="-981" rx="115.966" ry="18.3848"/>
<text text-anchor="middle" x="1252" y="-977.4" font-family="Times Roman,serif" font-size="14.00">types/ObjectClassifier</text>
</a>
</g>
<!-- 180&#45;&gt;64 -->
<g id="edge132" class="edge"><title>180&#45;&gt;64</title>
<path fill="none" stroke="black" d="M1280.38,-962.898C1296.37,-952.695 1316.47,-939.873 1333.38,-929.083"/>
<polygon fill="black" stroke="black" points="1335.35,-931.979 1341.9,-923.65 1331.59,-926.078 1335.35,-931.979"/>
</g>
<!-- 180&#45;&gt;92 -->
<g id="edge134" class="edge"><title>180&#45;&gt;92</title>
<path fill="none" stroke="black" d="M1191.93,-965.125C1148.67,-953.691 1090.09,-938.209 1044.26,-926.098"/>
<polygon fill="black" stroke="black" points="1044.95,-922.661 1034.39,-923.489 1043.17,-929.428 1044.95,-922.661"/>
</g>
<!-- 184&#45;&gt;60 -->
<g id="edge136" class="edge"><title>184&#45;&gt;60</title>
<path fill="none" stroke="black" d="M203.403,-894.776C208.791,-892.336 214.526,-889.933 220,-888 282.205,-866.033 300.279,-869.077 364,-852 454.855,-827.651 559.334,-797.338 624.766,-778.073"/>
<polygon fill="black" stroke="black" points="625.925,-781.38 634.527,-775.195 623.946,-774.666 625.925,-781.38"/>
</g>
<!-- 184&#45;&gt;80 -->
<g id="edge138" class="edge"><title>184&#45;&gt;80</title>
<path fill="none" stroke="black" d="M200.254,-893.081C216.37,-882.527 238.856,-867.802 257.533,-855.571"/>
<polygon fill="black" stroke="black" points="259.632,-858.381 266.08,-849.974 255.797,-852.525 259.632,-858.381"/>
</g>
<!-- 188 -->
<g id="node48" class="node"><title>188</title>
<a xlink:href="http://hott.github.io/HoTT/proviola-html/HoTT.HoTT.html" xlink:title="HoTT">
<ellipse fill="none" stroke="green" cx="848" cy="-1203" rx="36.977" ry="18.3848"/>
<text text-anchor="middle" x="848" y="-1199.4" font-family="Times Roman,serif" font-size="14.00">HoTT</text>
</a>
</g>
<!-- 188&#45;&gt;8 -->
<g id="edge140" class="edge"><title>188&#45;&gt;8</title>
<path fill="none" stroke="black" d="M885.114,-1202.25C992.231,-1199.62 1300.05,-1188.63 1391,-1148 1447.01,-1122.98 1493,-1116.35 1493,-1055 1493,-1055 1493,-1055 1493,-685 1493,-643.307 1486.26,-595.437 1481.27,-565.702"/>
<polygon fill="black" stroke="black" points="1484.67,-564.869 1479.52,-555.612 1477.78,-566.062 1484.67,-564.869"/>
</g>
<!-- 188&#45;&gt;96 -->
<g id="edge142" class="edge"><title>188&#45;&gt;96</title>
<path fill="none" stroke="black" d="M885.285,-1202.12C999.259,-1199.05 1341.55,-1186.73 1445,-1148 1511.19,-1123.22 1574,-1125.68 1574,-1055 1574,-1055 1574,-1055 1574,-611 1574,-568.118 1559.2,-520.277 1548.32,-490.903"/>
<polygon fill="black" stroke="black" points="1551.5,-489.418 1544.67,-481.322 1544.96,-491.913 1551.5,-489.418"/>
</g>
<!-- 188&#45;&gt;100 -->
<g id="edge144" class="edge"><title>188&#45;&gt;100</title>
<path fill="none" stroke="black" d="M811.015,-1201.72C690.13,-1197.27 307.661,-1180.88 189,-1148 98.7799,-1123 0,-1148.62 0,-1055 0,-1055 0,-1055 0,-833 0,-723.868 386.881,-694.372 531.937,-687.148"/>
<polygon fill="black" stroke="black" points="532.135,-690.642 541.955,-686.665 531.798,-683.651 532.135,-690.642"/>
</g>
<!-- 188&#45;&gt;108 -->
<g id="edge146" class="edge"><title>188&#45;&gt;108</title>
<path fill="none" stroke="black" d="M812.757,-1197.01C759.806,-1187.51 662.846,-1168 634,-1148 610.415,-1131.65 592.623,-1103.79 581.668,-1082.82"/>
<polygon fill="black" stroke="black" points="584.726,-1081.1 577.12,-1073.73 578.467,-1084.24 584.726,-1081.1"/>
</g>
<!-- 188&#45;&gt;120 -->
<g id="edge148" class="edge"><title>188&#45;&gt;120</title>
<path fill="none" stroke="black" d="M811.522,-1199.89C659.095,-1186.42 81,-1130.35 81,-1055 81,-1055 81,-1055 81,-981 81,-939.58 81,-891.639 81,-861.814"/>
<polygon fill="black" stroke="black" points="84.5001,-861.69 81,-851.691 77.5001,-861.691 84.5001,-861.69"/>
</g>
<!-- 188&#45;&gt;136 -->
<g id="edge150" class="edge"><title>188&#45;&gt;136</title>
<path fill="none" stroke="black" d="M873.678,-1189.43C894.097,-1178.63 923.063,-1163.32 946.728,-1150.82"/>
<polygon fill="black" stroke="black" points="948.635,-1153.77 955.84,-1146 945.363,-1147.58 948.635,-1153.77"/>
</g>
<!-- 188&#45;&gt;140 -->
<g id="edge152" class="edge"><title>188&#45;&gt;140</title>
<path fill="none" stroke="black" d="M885.057,-1201.97C1016.85,-1197.31 1455,-1172.96 1455,-1055 1455,-1055 1455,-1055 1455,-981 1455,-840.372 1351.95,-695.113 1305.85,-637.155"/>
<polygon fill="black" stroke="black" points="1308.48,-634.84 1299.48,-629.249 1303.03,-639.232 1308.48,-634.84"/>
</g>
<!-- 188&#45;&gt;148 -->
<g id="edge154" class="edge"><title>188&#45;&gt;148</title>
<path fill="none" stroke="black" d="M812.824,-1196.97C763.594,-1188.17 671.579,-1170.39 595,-1148 522.24,-1126.73 440.292,-1094.8 390.408,-1074.44"/>
<polygon fill="black" stroke="black" points="391.452,-1071.09 380.871,-1070.53 388.795,-1077.56 391.452,-1071.09"/>
</g>
<!-- 188&#45;&gt;168 -->
<g id="edge156" class="edge"><title>188&#45;&gt;168</title>
<path fill="none" stroke="black" d="M822.738,-1189.25C802.801,-1178.41 774.62,-1163.07 751.677,-1150.59"/>
<polygon fill="black" stroke="black" points="753.305,-1147.49 742.849,-1145.79 749.96,-1153.64 753.305,-1147.49"/>
</g>
<!-- 188&#45;&gt;172 -->
<g id="edge158" class="edge"><title>188&#45;&gt;172</title>
<path fill="none" stroke="black" d="M848,-1184.33C848,-1176.26 848,-1166.65 848,-1157.71"/>
<polygon fill="black" stroke="black" points="851.5,-1157.67 848,-1147.67 844.5,-1157.67 851.5,-1157.67"/>
</g>
<!-- 188&#45;&gt;180 -->
<g id="edge160" class="edge"><title>188&#45;&gt;180</title>
<path fill="none" stroke="black" d="M882.743,-1196.38C968.841,-1179.22 1188.35,-1130.69 1233,-1074 1247.26,-1055.89 1251.61,-1029.81 1252.62,-1009.87"/>
<polygon fill="black" stroke="black" points="1256.12,-1009.89 1252.88,-999.802 1249.13,-1009.71 1256.12,-1009.89"/>
</g>
<!-- 192 -->
<g id="node49" class="node"><title>192</title>
<a xlink:href="http://hott.github.io/HoTT/proviola-html/HoTT.Tests.html" xlink:title="Tests">
<ellipse fill="none" stroke="green" cx="848" cy="-1277" rx="36.0624" ry="18.3848"/>
<text text-anchor="middle" x="848" y="-1273.4" font-family="Times Roman,serif" font-size="14.00">Tests</text>
</a>
</g>
<!-- 192&#45;&gt;188 -->
<g id="edge162" class="edge"><title>192&#45;&gt;188</title>
<path fill="none" stroke="black" d="M848,-1258.33C848,-1250.26 848,-1240.65 848,-1231.71"/>
<polygon fill="black" stroke="black" points="851.5,-1231.67 848,-1221.67 844.5,-1231.67 851.5,-1231.67"/>
</g>
</g>
</svg>
