<?xml version="1.0" encoding="UTF-8" standalone="no"?>
<!DOCTYPE svg PUBLIC "-//W3C//DTD SVG 1.1//EN"
 "http://www.w3.org/Graphics/SVG/1.1/DTD/svg11.dtd">
<!-- Generated by graphviz version 2.39.20141222.0545 (20141222.0545)
 -->
<!-- Title: HoTT_Types_Nat Pages: 1 -->
<svg width="862pt" height="435pt"
 viewBox="0.00 0.00 862.00 435.00" xmlns="http://www.w3.org/2000/svg" xmlns:xlink="http://www.w3.org/1999/xlink">
<g id="graph0" class="graph" transform="scale(1 1) rotate(0) translate(4 431)">
<title>HoTT_Types_Nat</title>
<polygon fill="white" stroke="transparent" points="-4,4 -4,-431 858,-431 858,4 -4,4"/>
<g id="clust1" class="cluster"><title>cluster_Nat</title>
<polygon fill="#ffffc3" stroke="black" points="18.7692,-8 18.7692,-419 835.231,-419 835.231,-8 18.7692,-8"/>
<text text-anchor="middle" x="36.7692" y="-403.8" font-family="Times,serif" font-size="14.00">Nat</text>
</g>
<!-- Nat_leq -->
<g id="node1" class="node"><title>Nat_leq</title>
<g id="a_node1"><a xlink:href="Nat.html#leq" xlink:title="leq">
<ellipse fill="#f070d1" stroke="black" cx="687.385" cy="-114" rx="27" ry="18"/>
<ellipse fill="none" stroke="black" cx="687.385" cy="-114" rx="31" ry="22"/>
<ellipse fill="none" stroke="black" cx="687.385" cy="-114" rx="35" ry="26"/>
<text text-anchor="middle" x="687.385" y="-110.3" font-family="Times,serif" font-size="14.00">leq</text>
</a>
</g>
</g>
<!-- Nat_code_nat -->
<g id="node8" class="node"><title>Nat_code_nat</title>
<g id="a_node8"><a xlink:href="Nat.html#code_nat" xlink:title="code_nat">
<ellipse fill="#f070d1" stroke="black" cx="443.385" cy="-34" rx="42.4939" ry="18"/>
<text text-anchor="middle" x="443.385" y="-30.3" font-family="Times,serif" font-size="14.00">code_nat</text>
</a>
</g>
</g>
<!-- Nat_leq&#45;&gt;Nat_code_nat -->
<g id="edge1" class="edge"><title>Nat_leq&#45;&gt;Nat_code_nat</title>
<path fill="none" stroke="black" d="M655.235,-103.459C612.014,-89.2884 535.033,-64.0487 486.729,-48.2112"/>
<polygon fill="black" stroke="black" points="487.767,-44.8683 477.174,-45.0785 485.586,-51.5199 487.767,-44.8683"/>
</g>
<!-- Nat_hset_nat -->
<g id="node2" class="node"><title>Nat_hset_nat</title>
<g id="a_node2"><a xlink:href="Nat.html#hset_nat" xlink:title="hset_nat">
<ellipse fill="#f070d1" stroke="black" cx="654.385" cy="-362" rx="40.1273" ry="18"/>
<ellipse fill="none" stroke="black" cx="654.385" cy="-362" rx="44.1105" ry="22"/>
<ellipse fill="none" stroke="black" cx="654.385" cy="-362" rx="48.0937" ry="26"/>
<text text-anchor="middle" x="654.385" y="-358.3" font-family="Times,serif" font-size="14.00">hset_nat</text>
</a>
</g>
</g>
<!-- Nat_decidable_paths_nat -->
<g id="node3" class="node"><title>Nat_decidable_paths_nat</title>
<g id="a_node3"><a xlink:href="Nat.html#decidable_paths_nat" xlink:title="decidable_paths_nat">
<ellipse fill="#f070d1" stroke="black" cx="621.385" cy="-274" rx="82.5854" ry="18"/>
<text text-anchor="middle" x="621.385" y="-270.3" font-family="Times,serif" font-size="14.00">decidable_paths_nat</text>
</a>
</g>
</g>
<!-- Nat_hset_nat&#45;&gt;Nat_decidable_paths_nat -->
<g id="edge2" class="edge"><title>Nat_hset_nat&#45;&gt;Nat_decidable_paths_nat</title>
<path fill="none" stroke="black" d="M644.662,-336.073C640.586,-325.204 635.843,-312.555 631.705,-301.522"/>
<polygon fill="black" stroke="black" points="634.901,-300.075 628.112,-291.941 628.347,-302.533 634.901,-300.075"/>
</g>
<!-- Nat_isequiv_path_nat_ -->
<g id="node5" class="node"><title>Nat_isequiv_path_nat_</title>
<g id="a_node5"><a xlink:href="Nat.html#isequiv_path_nat'" xlink:title="isequiv_path_nat&#39;">
<ellipse fill="#f070d1" stroke="black" cx="302.385" cy="-194" rx="72.2875" ry="18"/>
<text text-anchor="middle" x="302.385" y="-190.3" font-family="Times,serif" font-size="14.00">isequiv_path_nat&#39;</text>
</a>
</g>
</g>
<!-- Nat_decidable_paths_nat&#45;&gt;Nat_isequiv_path_nat_ -->
<g id="edge3" class="edge"><title>Nat_decidable_paths_nat&#45;&gt;Nat_isequiv_path_nat_</title>
<path fill="none" stroke="black" d="M566.909,-260.338C510.388,-246.164 422.192,-224.046 363.373,-209.295"/>
<polygon fill="black" stroke="black" points="364.023,-205.849 353.472,-206.812 362.32,-212.639 364.023,-205.849"/>
</g>
<!-- Nat_equiv_path_nat_ -->
<g id="node4" class="node"><title>Nat_equiv_path_nat_</title>
<g id="a_node4"><a xlink:href="Nat.html#equiv_path_nat'" xlink:title="equiv_path_nat&#39;">
<ellipse fill="#f070d1" stroke="black" cx="211.385" cy="-274" rx="66.1109" ry="18"/>
<ellipse fill="none" stroke="black" cx="211.385" cy="-274" rx="70.0999" ry="22"/>
<ellipse fill="none" stroke="black" cx="211.385" cy="-274" rx="74.0888" ry="26"/>
<text text-anchor="middle" x="211.385" y="-270.3" font-family="Times,serif" font-size="14.00">equiv_path_nat&#39;</text>
</a>
</g>
</g>
<!-- Nat_equiv_path_nat_&#45;&gt;Nat_isequiv_path_nat_ -->
<g id="edge4" class="edge"><title>Nat_equiv_path_nat_&#45;&gt;Nat_isequiv_path_nat_</title>
<path fill="none" stroke="black" d="M239.182,-249.563C250.564,-239.557 263.696,-228.012 275.031,-218.047"/>
<polygon fill="black" stroke="black" points="277.348,-220.67 282.548,-211.439 272.726,-215.413 277.348,-220.67"/>
</g>
<!-- Nat_path_nat_ -->
<g id="node6" class="node"><title>Nat_path_nat_</title>
<g id="a_node6"><a xlink:href="Nat.html#path_nat'" xlink:title="path_nat&#39;">
<ellipse fill="#f070d1" stroke="black" cx="183.385" cy="-114" rx="42.4939" ry="18"/>
<text text-anchor="middle" x="183.385" y="-110.3" font-family="Times,serif" font-size="14.00">path_nat&#39;</text>
</a>
</g>
</g>
<!-- Nat_isequiv_path_nat_&#45;&gt;Nat_path_nat_ -->
<g id="edge5" class="edge"><title>Nat_isequiv_path_nat_&#45;&gt;Nat_path_nat_</title>
<path fill="none" stroke="black" d="M277.148,-177.034C258.925,-164.784 234.198,-148.161 214.713,-135.061"/>
<polygon fill="black" stroke="black" points="216.422,-131.993 206.171,-129.318 212.517,-137.802 216.422,-131.993"/>
</g>
<!-- Nat_idcode_nat_ -->
<g id="node7" class="node"><title>Nat_idcode_nat_</title>
<g id="a_node7"><a xlink:href="Nat.html#idcode_nat'" xlink:title="idcode_nat&#39;">
<ellipse fill="#f070d1" stroke="black" cx="443.385" cy="-114" rx="50.8918" ry="18"/>
<text text-anchor="middle" x="443.385" y="-110.3" font-family="Times,serif" font-size="14.00">idcode_nat&#39;</text>
</a>
</g>
</g>
<!-- Nat_isequiv_path_nat_&#45;&gt;Nat_idcode_nat_ -->
<g id="edge6" class="edge"><title>Nat_isequiv_path_nat_&#45;&gt;Nat_idcode_nat_</title>
<path fill="none" stroke="black" d="M331.6,-177.424C353.533,-164.98 383.697,-147.865 407.164,-134.551"/>
<polygon fill="black" stroke="black" points="409.15,-137.448 416.12,-129.469 405.695,-131.36 409.15,-137.448"/>
</g>
<!-- Nat_path_nat_&#45;&gt;Nat_code_nat -->
<g id="edge7" class="edge"><title>Nat_path_nat_&#45;&gt;Nat_code_nat</title>
<path fill="none" stroke="black" d="M217.642,-103.459C264.311,-89.0997 347.917,-63.3746 399.238,-47.5836"/>
<polygon fill="black" stroke="black" points="400.522,-50.8504 409.051,-44.5642 398.464,-44.1599 400.522,-50.8504"/>
</g>
<!-- Nat_idcode_nat_&#45;&gt;Nat_code_nat -->
<g id="edge8" class="edge"><title>Nat_idcode_nat_&#45;&gt;Nat_code_nat</title>
<path fill="none" stroke="black" d="M443.385,-95.8468C443.385,-85.9251 443.385,-73.4167 443.385,-62.2492"/>
<polygon fill="black" stroke="black" points="446.885,-62.0814 443.385,-52.0814 439.885,-62.0814 446.885,-62.0814"/>
</g>
<!-- Nat_nat_rec -->
<g id="node9" class="node"><title>Nat_nat_rec</title>
<g id="a_node9"><a xlink:href="Nat.html#nat_rec" xlink:title="nat_rec">
<ellipse fill="#f070d1" stroke="black" cx="394.385" cy="-362" rx="36.3123" ry="18"/>
<ellipse fill="none" stroke="black" cx="394.385" cy="-362" rx="40.3031" ry="22"/>
<ellipse fill="none" stroke="black" cx="394.385" cy="-362" rx="44.2938" ry="26"/>
<text text-anchor="middle" x="394.385" y="-358.3" font-family="Times,serif" font-size="14.00">nat_rec</text>
</a>
</g>
</g>
<!-- Nat_nat_ind -->
<g id="node10" class="node"><title>Nat_nat_ind</title>
<g id="a_node10"><a xlink:href="Nat.html#nat_ind" xlink:title="nat_ind">
<ellipse fill="#f070d1" stroke="black" cx="143.385" cy="-362" rx="37.0852" ry="18"/>
<ellipse fill="none" stroke="black" cx="143.385" cy="-362" rx="41.0893" ry="22"/>
<ellipse fill="none" stroke="black" cx="143.385" cy="-362" rx="45.0935" ry="26"/>
<text text-anchor="middle" x="143.385" y="-358.3" font-family="Times,serif" font-size="14.00">nat_ind</text>
</a>
</g>
</g>
</g>
</svg>
