<?xml version="1.0" encoding="UTF-8" standalone="no"?>
<!DOCTYPE svg PUBLIC "-//W3C//DTD SVG 1.1//EN"
 "http://www.w3.org/Graphics/SVG/1.1/DTD/svg11.dtd">
<!-- Generated by graphviz version 2.39.20141222.0545 (20141222.0545)
 -->
<!-- Title: HoTT_Types_Nat Pages: 1 -->
<svg width="862pt" height="435pt"
 viewBox="0.00 0.00 862.00 435.00" xmlns="http://www.w3.org/2000/svg" xmlns:xlink="http://www.w3.org/1999/xlink">
<g id="graph0" class="graph" transform="scale(1 1) rotate(0) translate(4 431)">
<title>HoTT_Types_Nat</title>
<polygon fill="white" stroke="transparent" points="-4,4 -4,-431 858,-431 858,4 -4,4"/>
<g id="clust1" class="cluster"><title>cluster_Nat</title>
<polygon fill="#ffffc3" stroke="black" points="18.8729,-8 18.8729,-419 835.127,-419 835.127,-8 18.8729,-8"/>
<text text-anchor="middle" x="36.8729" y="-403.8" font-family="Times,serif" font-size="14.00">Nat</text>
</g>
<!-- Nat_leq -->
<g id="node1" class="node"><title>Nat_leq</title>
<g id="a_node1"><a xlink:href="Nat.html#leq" xlink:title="leq">
<ellipse fill="#f070d1" stroke="black" cx="682.088" cy="-114" rx="27" ry="18"/>
<ellipse fill="none" stroke="black" cx="682.088" cy="-114" rx="31" ry="22"/>
<ellipse fill="none" stroke="black" cx="682.088" cy="-114" rx="35" ry="26"/>
<text text-anchor="middle" x="682.088" y="-110.3" font-family="Times,serif" font-size="14.00">leq</text>
</a>
</g>
</g>
<!-- Nat_code_nat -->
<g id="node8" class="node"><title>Nat_code_nat</title>
<g id="a_node8"><a xlink:href="Nat.html#code_nat" xlink:title="code_nat">
<ellipse fill="#f070d1" stroke="black" cx="441.088" cy="-34" rx="42.4939" ry="18"/>
<text text-anchor="middle" x="441.088" y="-30.3" font-family="Times,serif" font-size="14.00">code_nat</text>
</a>
</g>
</g>
<!-- Nat_leq&#45;&gt;Nat_code_nat -->
<g id="edge1" class="edge"><title>Nat_leq&#45;&gt;Nat_code_nat</title>
<path fill="none" stroke="black" d="M650.085,-103.377C607.53,-89.2503 532.156,-64.2298 484.503,-48.4114"/>
<polygon fill="black" stroke="black" points="485.37,-45.0116 474.777,-45.1829 483.165,-51.6552 485.37,-45.0116"/>
</g>
<!-- Nat_hset_nat -->
<g id="node2" class="node"><title>Nat_hset_nat</title>
<g id="a_node2"><a xlink:href="Nat.html#hset_nat" xlink:title="hset_nat">
<ellipse fill="#f070d1" stroke="black" cx="658.088" cy="-362" rx="40.1273" ry="18"/>
<ellipse fill="none" stroke="black" cx="658.088" cy="-362" rx="44.1105" ry="22"/>
<ellipse fill="none" stroke="black" cx="658.088" cy="-362" rx="48.0937" ry="26"/>
<text text-anchor="middle" x="658.088" y="-358.3" font-family="Times,serif" font-size="14.00">hset_nat</text>
</a>
</g>
</g>
<!-- Nat_decidable_paths_nat -->
<g id="node3" class="node"><title>Nat_decidable_paths_nat</title>
<g id="a_node3"><a xlink:href="Nat.html#decidable_paths_nat" xlink:title="decidable_paths_nat">
<ellipse fill="#f070d1" stroke="black" cx="620.088" cy="-274" rx="82.5854" ry="18"/>
<text text-anchor="middle" x="620.088" y="-270.3" font-family="Times,serif" font-size="14.00">decidable_paths_nat</text>
</a>
</g>
</g>
<!-- Nat_hset_nat&#45;&gt;Nat_decidable_paths_nat -->
<g id="edge2" class="edge"><title>Nat_hset_nat&#45;&gt;Nat_decidable_paths_nat</title>
<path fill="none" stroke="black" d="M647.097,-336.547C642.35,-325.554 636.787,-312.67 631.947,-301.462"/>
<polygon fill="black" stroke="black" points="635.096,-299.927 627.919,-292.134 628.67,-302.702 635.096,-299.927"/>
</g>
<!-- Nat_isequiv_path_nat -->
<g id="node5" class="node"><title>Nat_isequiv_path_nat</title>
<g id="a_node5"><a xlink:href="Nat.html#isequiv_path_nat" xlink:title="isequiv_path_nat">
<ellipse fill="#f070d1" stroke="black" cx="300.088" cy="-194" rx="70.6878" ry="18"/>
<text text-anchor="middle" x="300.088" y="-190.3" font-family="Times,serif" font-size="14.00">isequiv_path_nat</text>
</a>
</g>
</g>
<!-- Nat_decidable_paths_nat&#45;&gt;Nat_isequiv_path_nat -->
<g id="edge3" class="edge"><title>Nat_decidable_paths_nat&#45;&gt;Nat_isequiv_path_nat</title>
<path fill="none" stroke="black" d="M565.805,-260.429C508.915,-246.207 419.749,-223.915 360.621,-209.133"/>
<polygon fill="black" stroke="black" points="361.224,-205.676 350.673,-206.646 359.526,-212.467 361.224,-205.676"/>
</g>
<!-- Nat_equiv_path_nat -->
<g id="node4" class="node"><title>Nat_equiv_path_nat</title>
<g id="a_node4"><a xlink:href="Nat.html#equiv_path_nat" xlink:title="equiv_path_nat">
<ellipse fill="#f070d1" stroke="black" cx="210.088" cy="-274" rx="64.9891" ry="18"/>
<ellipse fill="none" stroke="black" cx="210.088" cy="-274" rx="68.9888" ry="22"/>
<ellipse fill="none" stroke="black" cx="210.088" cy="-274" rx="72.9885" ry="26"/>
<text text-anchor="middle" x="210.088" y="-270.3" font-family="Times,serif" font-size="14.00">equiv_path_nat</text>
</a>
</g>
</g>
<!-- Nat_equiv_path_nat&#45;&gt;Nat_isequiv_path_nat -->
<g id="edge4" class="edge"><title>Nat_equiv_path_nat&#45;&gt;Nat_isequiv_path_nat</title>
<path fill="none" stroke="black" d="M237.58,-249.563C248.729,-239.653 261.575,-228.234 272.712,-218.335"/>
<polygon fill="black" stroke="black" points="275.321,-220.699 280.47,-211.439 270.67,-215.467 275.321,-220.699"/>
</g>
<!-- Nat_path_nat -->
<g id="node6" class="node"><title>Nat_path_nat</title>
<g id="a_node6"><a xlink:href="Nat.html#path_nat" xlink:title="path_nat">
<ellipse fill="#f070d1" stroke="black" cx="186.088" cy="-114" rx="40.8928" ry="18"/>
<text text-anchor="middle" x="186.088" y="-110.3" font-family="Times,serif" font-size="14.00">path_nat</text>
</a>
</g>
</g>
<!-- Nat_isequiv_path_nat&#45;&gt;Nat_path_nat -->
<g id="edge5" class="edge"><title>Nat_isequiv_path_nat&#45;&gt;Nat_path_nat</title>
<path fill="none" stroke="black" d="M275.912,-177.034C258.534,-164.839 234.98,-148.31 216.353,-135.238"/>
<polygon fill="black" stroke="black" points="218.113,-132.198 207.917,-129.318 214.092,-137.928 218.113,-132.198"/>
</g>
<!-- Nat_idcode_nat -->
<g id="node7" class="node"><title>Nat_idcode_nat</title>
<g id="a_node7"><a xlink:href="Nat.html#idcode_nat" xlink:title="idcode_nat">
<ellipse fill="#f070d1" stroke="black" cx="441.088" cy="-114" rx="49.2915" ry="18"/>
<text text-anchor="middle" x="441.088" y="-110.3" font-family="Times,serif" font-size="14.00">idcode_nat</text>
</a>
</g>
</g>
<!-- Nat_isequiv_path_nat&#45;&gt;Nat_idcode_nat -->
<g id="edge6" class="edge"><title>Nat_isequiv_path_nat&#45;&gt;Nat_idcode_nat</title>
<path fill="none" stroke="black" d="M329.304,-177.424C351.379,-164.899 381.793,-147.643 405.324,-134.292"/>
<polygon fill="black" stroke="black" points="407.325,-137.181 414.295,-129.202 403.87,-131.092 407.325,-137.181"/>
</g>
<!-- Nat_path_nat&#45;&gt;Nat_code_nat -->
<g id="edge7" class="edge"><title>Nat_path_nat&#45;&gt;Nat_code_nat</title>
<path fill="none" stroke="black" d="M219.425,-103.541C264.988,-89.2471 346.799,-63.5809 397.273,-47.7461"/>
<polygon fill="black" stroke="black" points="398.436,-51.0495 406.93,-44.7165 396.34,-44.3705 398.436,-51.0495"/>
</g>
<!-- Nat_idcode_nat&#45;&gt;Nat_code_nat -->
<g id="edge8" class="edge"><title>Nat_idcode_nat&#45;&gt;Nat_code_nat</title>
<path fill="none" stroke="black" d="M441.088,-95.8468C441.088,-85.9251 441.088,-73.4167 441.088,-62.2492"/>
<polygon fill="black" stroke="black" points="444.588,-62.0814 441.088,-52.0814 437.588,-62.0814 444.588,-62.0814"/>
</g>
<!-- Nat_nat_rec -->
<g id="node9" class="node"><title>Nat_nat_rec</title>
<g id="a_node9"><a xlink:href="Nat.html#nat_rec" xlink:title="nat_rec">
<ellipse fill="#f070d1" stroke="black" cx="396.088" cy="-362" rx="36.3123" ry="18"/>
<ellipse fill="none" stroke="black" cx="396.088" cy="-362" rx="40.3031" ry="22"/>
<ellipse fill="none" stroke="black" cx="396.088" cy="-362" rx="44.2938" ry="26"/>
<text text-anchor="middle" x="396.088" y="-358.3" font-family="Times,serif" font-size="14.00">nat_rec</text>
</a>
</g>
</g>
<!-- Nat_nat_ind -->
<g id="node10" class="node"><title>Nat_nat_ind</title>
<g id="a_node10"><a xlink:href="Nat.html#nat_ind" xlink:title="nat_ind">
<ellipse fill="#f070d1" stroke="black" cx="144.088" cy="-362" rx="37.0852" ry="18"/>
<ellipse fill="none" stroke="black" cx="144.088" cy="-362" rx="41.0893" ry="22"/>
<ellipse fill="none" stroke="black" cx="144.088" cy="-362" rx="45.0935" ry="26"/>
<text text-anchor="middle" x="144.088" y="-358.3" font-family="Times,serif" font-size="14.00">nat_ind</text>
</a>
</g>
</g>
</g>
</svg>
