<?xml version="1.0" encoding="UTF-8" standalone="no"?>
<!DOCTYPE svg PUBLIC "-//W3C//DTD SVG 1.1//EN"
 "http://www.w3.org/Graphics/SVG/1.1/DTD/svg11.dtd">
<!-- Generated by graphviz version 2.26.3 (20100126.1600)
 -->
<!-- Title: HoTT_categories_Adjoint_Functorial_Parts Pages: 1 -->
<svg width="560pt" height="284pt"
 viewBox="0.00 0.00 560.00 284.00" xmlns="http://www.w3.org/2000/svg" xmlns:xlink="http://www.w3.org/1999/xlink">
<g id="graph1" class="graph" transform="scale(1 1) rotate(0) translate(4 280)">
<title>HoTT_categories_Adjoint_Functorial_Parts</title>
<polygon fill="white" stroke="white" points="-4,5 -4,-280 557,-280 557,5 -4,5"/>
<g id="graph2" class="cluster"><title>cluster_Parts</title>
<polygon fill="#ffffc3" stroke="black" points="8.1476,-8 8.1476,-268 543.852,-268 543.852,-8 8.1476,-8"/>
<text text-anchor="middle" x="34.1476" y="-251.4" font-family="Times Roman,serif" font-size="14.00">Parts</text>
</g>
<!-- Parts_right_morphism_of_nondep -->
<g id="node1" class="node"><title>Parts_right_morphism_of_nondep</title>
<a xlink:href="Parts.html#right_morphism_of_nondep" xlink:title="right_morphism_of_nondep">
<ellipse fill="#f070d1" stroke="black" cx="382.063" cy="-207" rx="143.069" ry="18.3848"/>
<ellipse fill="none" stroke="black" cx="382.063" cy="-207" rx="147.056" ry="22.3848"/>
<ellipse fill="none" stroke="black" cx="382.063" cy="-207" rx="151.043" ry="26.3848"/>
<text text-anchor="middle" x="382.063" y="-203.4" font-family="Times Roman,serif" font-size="14.00">right_morphism_of_nondep</text>
</a>
</g>
<!-- Parts_left_morphism_of_nondep -->
<g id="node3" class="node"><title>Parts_left_morphism_of_nondep</title>
<a xlink:href="Parts.html#left_morphism_of_nondep" xlink:title="left_morphism_of_nondep">
<ellipse fill="#f070d1" stroke="black" cx="397.063" cy="-117" rx="135.972" ry="18.3848"/>
<text text-anchor="middle" x="397.063" y="-113.4" font-family="Times Roman,serif" font-size="14.00">left_morphism_of_nondep</text>
</a>
</g>
<!-- Parts_right_morphism_of_nondep&#45;&gt;Parts_left_morphism_of_nondep -->
<g id="edge2" class="edge"><title>Parts_right_morphism_of_nondep&#45;&gt;Parts_left_morphism_of_nondep</title>
<path fill="none" stroke="black" d="M386.482,-180.484C388.303,-169.56 390.416,-156.878 392.274,-145.734"/>
<polygon fill="black" stroke="black" points="395.766,-146.067 393.958,-135.628 388.862,-144.916 395.766,-146.067"/>
</g>
<!-- Parts_right_morphism_of -->
<g id="node2" class="node"><title>Parts_right_morphism_of</title>
<a xlink:href="Parts.html#right_morphism_of" xlink:title="right_morphism_of">
<ellipse fill="#f070d1" stroke="black" cx="128.063" cy="-117" rx="102.067" ry="18.3848"/>
<ellipse fill="none" stroke="black" cx="128.063" cy="-117" rx="106.048" ry="22.3848"/>
<ellipse fill="none" stroke="black" cx="128.063" cy="-117" rx="110.03" ry="26.3848"/>
<text text-anchor="middle" x="128.063" y="-113.4" font-family="Times Roman,serif" font-size="14.00">right_morphism_of</text>
</a>
</g>
<!-- Parts_left_morphism_of -->
<g id="node4" class="node"><title>Parts_left_morphism_of</title>
<a xlink:href="Parts.html#left_morphism_of" xlink:title="left_morphism_of">
<ellipse fill="#f070d1" stroke="black" cx="263.063" cy="-35" rx="94.7523" ry="18.3848"/>
<text text-anchor="middle" x="263.063" y="-31.4" font-family="Times Roman,serif" font-size="14.00">left_morphism_of</text>
</a>
</g>
<!-- Parts_right_morphism_of&#45;&gt;Parts_left_morphism_of -->
<g id="edge4" class="edge"><title>Parts_right_morphism_of&#45;&gt;Parts_left_morphism_of</title>
<path fill="none" stroke="black" d="M168.934,-92.1748C186.777,-81.3367 207.577,-68.7027 225.079,-58.0715"/>
<polygon fill="black" stroke="black" points="227.168,-60.8976 233.898,-52.7147 223.534,-54.9148 227.168,-60.8976"/>
</g>
<!-- Parts_left_morphism_of_nondep&#45;&gt;Parts_left_morphism_of -->
<g id="edge6" class="edge"><title>Parts_left_morphism_of_nondep&#45;&gt;Parts_left_morphism_of</title>
<path fill="none" stroke="black" d="M367.324,-98.8015C347.759,-86.8288 321.977,-71.0523 300.947,-58.1832"/>
<polygon fill="black" stroke="black" points="302.614,-55.0998 292.257,-52.8655 298.96,-61.0705 302.614,-55.0998"/>
</g>
</g>
</svg>
