<?xml version="1.0" encoding="UTF-8" standalone="no"?>
<!DOCTYPE svg PUBLIC "-//W3C//DTD SVG 1.1//EN"
 "http://www.w3.org/Graphics/SVG/1.1/DTD/svg11.dtd">
<!-- Generated by graphviz version 2.26.3 (20100126.1600)
 -->
<!-- Title: HoTT_categories_NaturalTransformation_Prod Pages: 1 -->
<svg width="524pt" height="266pt"
 viewBox="0.00 0.00 524.00 266.00" xmlns="http://www.w3.org/2000/svg" xmlns:xlink="http://www.w3.org/1999/xlink">
<g id="graph1" class="graph" transform="scale(1 1) rotate(0) translate(4 262)">
<title>HoTT_categories_NaturalTransformation_Prod</title>
<polygon fill="white" stroke="white" points="-4,5 -4,-262 521,-262 521,5 -4,5"/>
<g id="graph2" class="cluster"><title>cluster_Prod</title>
<polygon fill="#ffffc3" stroke="black" points="8,-11.0968 8,-246.903 508,-246.903 508,-11.0968 8,-11.0968"/>
<text text-anchor="middle" x="32" y="-230.303" font-family="Times Roman,serif" font-size="14.00">Prod</text>
</g>
<!-- Prod_induced_snd -->
<g id="node1" class="node"><title>Prod_induced_snd</title>
<a xlink:href="Prod.html#induced_snd" xlink:title="induced_snd">
<ellipse fill="#f070d1" stroke="black" cx="381" cy="-162.097" rx="70.9686" ry="18.3848"/>
<ellipse fill="none" stroke="black" cx="381" cy="-162.097" rx="74.9435" ry="22.3848"/>
<ellipse fill="none" stroke="black" cx="381" cy="-162.097" rx="78.9183" ry="26.3848"/>
<text text-anchor="middle" x="381" y="-158.497" font-family="Times Roman,serif" font-size="14.00">induced_snd</text>
</a>
</g>
<!-- Prod_induced_snd_subproof -->
<g id="node2" class="node"><title>Prod_induced_snd_subproof</title>
<a xlink:href="Prod.html#induced_snd_subproof" xlink:title="induced_snd_subproof">
<ellipse fill="#facdef" stroke="black" cx="381" cy="-48.0968" rx="118.794" ry="18.3848"/>
<text text-anchor="middle" x="381" y="-44.4968" font-family="Times Roman,serif" font-size="14.00">induced_snd_subproof</text>
</a>
</g>
<!-- Prod_induced_snd&#45;&gt;Prod_induced_snd_subproof -->
<g id="edge2" class="edge"><title>Prod_induced_snd&#45;&gt;Prod_induced_snd_subproof</title>
<path fill="none" stroke="black" d="M381,-135.369C381,-117.847 381,-94.9482 381,-77.0032"/>
<polygon fill="black" stroke="black" points="384.5,-76.8258 381,-66.8258 377.5,-76.8258 384.5,-76.8258"/>
</g>
<!-- Prod_induced_fst -->
<g id="node3" class="node"><title>Prod_induced_fst</title>
<a xlink:href="Prod.html#induced_fst" xlink:title="induced_fst">
<ellipse fill="#f070d1" stroke="black" cx="191" cy="-162.097" rx="67.1751" ry="18.3848"/>
<ellipse fill="none" stroke="black" cx="191" cy="-162.097" rx="71.1751" ry="22.3848"/>
<ellipse fill="none" stroke="black" cx="191" cy="-162.097" rx="75.1751" ry="26.3848"/>
<text text-anchor="middle" x="191" y="-158.497" font-family="Times Roman,serif" font-size="14.00">induced_fst</text>
</a>
</g>
<!-- Prod_induced_fst_subproof -->
<g id="node4" class="node"><title>Prod_induced_fst_subproof</title>
<a xlink:href="Prod.html#induced_fst_subproof" xlink:title="induced_fst_subproof">
<ellipse fill="#facdef" stroke="black" cx="130" cy="-48.0968" rx="113.844" ry="18.3848"/>
<text text-anchor="middle" x="130" y="-44.4968" font-family="Times Roman,serif" font-size="14.00">induced_fst_subproof</text>
</a>
</g>
<!-- Prod_induced_fst&#45;&gt;Prod_induced_fst_subproof -->
<g id="edge4" class="edge"><title>Prod_induced_fst&#45;&gt;Prod_induced_fst_subproof</title>
<path fill="none" stroke="black" d="M177.005,-135.943C167.36,-117.918 154.564,-94.0039 144.759,-75.6784"/>
<polygon fill="black" stroke="black" points="147.74,-73.8314 139.936,-66.6656 141.568,-77.134 147.74,-73.8314"/>
</g>
<!-- Prod_prod -->
<g id="node5" class="node"><title>Prod_prod</title>
<a xlink:href="Prod.html#prod" xlink:title="prod">
<ellipse fill="#f070d1" stroke="black" cx="57" cy="-162.097" rx="33.234" ry="18.3848"/>
<ellipse fill="none" stroke="black" cx="57" cy="-162.097" rx="37.234" ry="22.3848"/>
<ellipse fill="none" stroke="black" cx="57" cy="-162.097" rx="41.234" ry="26.3848"/>
<text text-anchor="middle" x="57" y="-158.497" font-family="Times Roman,serif" font-size="14.00">prod</text>
</a>
</g>
</g>
</svg>
