<?xml version="1.0" encoding="UTF-8" standalone="no"?>
<!DOCTYPE svg PUBLIC "-//W3C//DTD SVG 1.1//EN"
 "http://www.w3.org/Graphics/SVG/1.1/DTD/svg11.dtd">
<!-- Generated by graphviz version 2.26.3 (20100126.1600)
 -->
<!-- Title: HoTT_hit_Truncations Pages: 1 -->
<svg width="852pt" height="430pt"
 viewBox="0.00 0.00 852.00 430.00" xmlns="http://www.w3.org/2000/svg" xmlns:xlink="http://www.w3.org/1999/xlink">
<g id="graph1" class="graph" transform="scale(1 1) rotate(0) translate(4 426)">
<title>HoTT_hit_Truncations</title>
<polygon fill="white" stroke="white" points="-4,5 -4,-426 849,-426 849,5 -4,5"/>
<g id="graph2" class="cluster"><title>cluster_Truncations</title>
<polygon fill="#ffffc3" stroke="black" points="10.4845,-8 10.4845,-414 833.516,-414 833.516,-8 10.4845,-8"/>
<text text-anchor="middle" x="58.4845" y="-397.4" font-family="Times Roman,serif" font-size="14.00">Truncations</text>
</g>
<g id="graph3" class="cluster"><title>cluster_Truncations_Truncation</title>
<polygon fill="#ffffa3" stroke="black" points="70.7702,-16 70.7702,-170 608.099,-170 608.099,-16 70.7702,-16"/>
<text text-anchor="middle" x="115.27" y="-153.4" font-family="Times Roman,serif" font-size="14.00">Truncation</text>
</g>
<!-- Truncations_Truncation_Truncation_rect -->
<g id="node1" class="node"><title>Truncations_Truncation_Truncation_rect</title>
<a xlink:href="Truncations.html#Truncation.Truncation_rect" xlink:title="Truncation_rect">
<ellipse fill="#f070d1" stroke="black" cx="483.472" cy="-117" rx="87.1802" ry="18.3848"/>
<text text-anchor="middle" x="483.472" y="-113.4" font-family="Times Roman,serif" font-size="14.00">Truncation_rect</text>
</a>
</g>
<!-- Truncations_Truncation_truncation_incl -->
<g id="node3" class="node"><title>Truncations_Truncation_truncation_incl</title>
<a xlink:href="Truncations.html#Truncation.truncation_incl" xlink:title="truncation_incl">
<ellipse fill="#7faaff" stroke="black" cx="283.472" cy="-43" rx="84.1457" ry="18.3848"/>
<text text-anchor="middle" x="283.472" y="-39.4" font-family="Times Roman,serif" font-size="14.00">truncation_incl</text>
</a>
</g>
<!-- Truncations_Truncation_Truncation_rect&#45;&gt;Truncations_Truncation_truncation_incl -->
<g id="edge2" class="edge"><title>Truncations_Truncation_Truncation_rect&#45;&gt;Truncations_Truncation_truncation_incl</title>
<path fill="none" stroke="black" d="M440.075,-100.943C409.569,-89.656 368.585,-74.4917 336.195,-62.5076"/>
<polygon fill="black" stroke="black" points="337.034,-59.0859 326.44,-58.8983 334.604,-65.651 337.034,-59.0859"/>
</g>
<!-- Truncations_Truncation_Truncation -->
<g id="node4" class="node"><title>Truncations_Truncation_Truncation</title>
<a xlink:href="Truncations.html#Truncation.Truncation" xlink:title="Truncation">
<ellipse fill="#e2cdfa" stroke="black" cx="499.472" cy="-43" rx="62.9325" ry="18.3848"/>
<text text-anchor="middle" x="499.472" y="-39.4" font-family="Times Roman,serif" font-size="14.00">Truncation</text>
</a>
</g>
<!-- Truncations_Truncation_Truncation_rect&#45;&gt;Truncations_Truncation_Truncation -->
<g id="edge4" class="edge"><title>Truncations_Truncation_Truncation_rect&#45;&gt;Truncations_Truncation_Truncation</title>
<path fill="none" stroke="black" d="M487.51,-98.3267C489.253,-90.2639 491.332,-80.6477 493.264,-71.7115"/>
<polygon fill="black" stroke="black" points="496.743,-72.1812 495.436,-61.6674 489.902,-70.7018 496.743,-72.1812"/>
</g>
<!-- Truncations_Truncation_istrunc_truncation -->
<g id="node2" class="node"><title>Truncations_Truncation_istrunc_truncation</title>
<a xlink:href="Truncations.html#Truncation.istrunc_truncation" xlink:title="istrunc_truncation">
<ellipse fill="#facdef" stroke="black" cx="213.472" cy="-117" rx="101.116" ry="18.3848"/>
<text text-anchor="middle" x="213.472" y="-113.4" font-family="Times Roman,serif" font-size="14.00">istrunc_truncation</text>
</a>
</g>
<!-- Truncations_isequiv_functor_Truncation -->
<g id="node5" class="node"><title>Truncations_isequiv_functor_Truncation</title>
<a xlink:href="Truncations.html#isequiv_functor_Truncation" xlink:title="isequiv_functor_Truncation">
<ellipse fill="#f070d1" stroke="black" cx="625.472" cy="-353" rx="142.836" ry="18.3848"/>
<ellipse fill="none" stroke="black" cx="625.472" cy="-353" rx="146.836" ry="22.3848"/>
<ellipse fill="none" stroke="black" cx="625.472" cy="-353" rx="150.836" ry="26.3848"/>
<text text-anchor="middle" x="625.472" y="-349.4" font-family="Times Roman,serif" font-size="14.00">isequiv_functor_Truncation</text>
</a>
</g>
<!-- Truncations_functor_Truncation -->
<g id="node7" class="node"><title>Truncations_functor_Truncation</title>
<a xlink:href="Truncations.html#functor_Truncation" xlink:title="functor_Truncation">
<ellipse fill="#f070d1" stroke="black" cx="284.472" cy="-271" rx="103.238" ry="18.3848"/>
<text text-anchor="middle" x="284.472" y="-267.4" font-family="Times Roman,serif" font-size="14.00">functor_Truncation</text>
</a>
</g>
<!-- Truncations_isequiv_functor_Truncation&#45;&gt;Truncations_functor_Truncation -->
<g id="edge6" class="edge"><title>Truncations_isequiv_functor_Truncation&#45;&gt;Truncations_functor_Truncation</title>
<path fill="none" stroke="black" d="M536.324,-331.563C480.152,-318.055 408.592,-300.847 356.118,-288.229"/>
<polygon fill="black" stroke="black" points="356.76,-284.783 346.219,-285.848 355.124,-291.589 356.76,-284.783"/>
</g>
<!-- Truncations_functor_Truncation_idmap -->
<g id="node6" class="node"><title>Truncations_functor_Truncation_idmap</title>
<a xlink:href="Truncations.html#functor_Truncation_idmap" xlink:title="functor_Truncation_idmap">
<ellipse fill="#f070d1" stroke="black" cx="212.472" cy="-353" rx="137.886" ry="18.3848"/>
<ellipse fill="none" stroke="black" cx="212.472" cy="-353" rx="141.886" ry="22.3848"/>
<ellipse fill="none" stroke="black" cx="212.472" cy="-353" rx="145.886" ry="26.3848"/>
<text text-anchor="middle" x="212.472" y="-349.4" font-family="Times Roman,serif" font-size="14.00">functor_Truncation_idmap</text>
</a>
</g>
<!-- Truncations_functor_Truncation_idmap&#45;&gt;Truncations_functor_Truncation -->
<g id="edge8" class="edge"><title>Truncations_functor_Truncation_idmap&#45;&gt;Truncations_functor_Truncation</title>
<path fill="none" stroke="black" d="M235.65,-326.603C244,-317.093 253.409,-306.377 261.722,-296.909"/>
<polygon fill="black" stroke="black" points="264.433,-299.127 268.401,-289.304 259.173,-294.509 264.433,-299.127"/>
</g>
<!-- Truncations_functor_Truncation&#45;&gt;Truncations_Truncation_istrunc_truncation -->
<g id="edge10" class="edge"><title>Truncations_functor_Truncation&#45;&gt;Truncations_Truncation_istrunc_truncation</title>
<path fill="none" stroke="black" d="M275.908,-252.424C263.594,-225.715 240.791,-176.255 226.414,-145.072"/>
<polygon fill="black" stroke="black" points="229.432,-143.258 222.067,-135.642 223.075,-146.189 229.432,-143.258"/>
</g>
<!-- Truncations_Truncation_rect_nondep -->
<g id="node8" class="node"><title>Truncations_Truncation_rect_nondep</title>
<a xlink:href="Truncations.html#Truncation_rect_nondep" xlink:title="Truncation_rect_nondep">
<ellipse fill="#f070d1" stroke="black" cx="463.472" cy="-197" rx="128.193" ry="18.3848"/>
<text text-anchor="middle" x="463.472" y="-193.4" font-family="Times Roman,serif" font-size="14.00">Truncation_rect_nondep</text>
</a>
</g>
<!-- Truncations_functor_Truncation&#45;&gt;Truncations_Truncation_rect_nondep -->
<g id="edge12" class="edge"><title>Truncations_functor_Truncation&#45;&gt;Truncations_Truncation_rect_nondep</title>
<path fill="none" stroke="black" d="M325.538,-254.023C351.114,-243.45 384.24,-229.755 411.619,-218.436"/>
<polygon fill="black" stroke="black" points="413.138,-221.596 421.042,-214.541 410.463,-215.127 413.138,-221.596"/>
</g>
<!-- Truncations_Truncation_rect_nondep&#45;&gt;Truncations_Truncation_Truncation_rect -->
<g id="edge14" class="edge"><title>Truncations_Truncation_rect_nondep&#45;&gt;Truncations_Truncation_Truncation_rect</title>
<path fill="none" stroke="black" d="M468.111,-178.445C470.542,-168.721 473.573,-156.596 476.299,-145.693"/>
<polygon fill="black" stroke="black" points="479.759,-146.282 478.789,-135.731 472.968,-144.584 479.759,-146.282"/>
</g>
</g>
</svg>
