<?xml version="1.0" encoding="UTF-8" standalone="no"?>
<!DOCTYPE svg PUBLIC "-//W3C//DTD SVG 1.1//EN"
 "http://www.w3.org/Graphics/SVG/1.1/DTD/svg11.dtd">
<!-- Generated by graphviz version 2.26.3 (20100126.1600)
 -->
<!-- Title: HoTT_categories_Category_Dual Pages: 1 -->
<svg width="860pt" height="434pt"
 viewBox="0.00 0.00 860.00 434.00" xmlns="http://www.w3.org/2000/svg" xmlns:xlink="http://www.w3.org/1999/xlink">
<g id="graph1" class="graph" transform="scale(1 1) rotate(0) translate(4 430)">
<title>HoTT_categories_Category_Dual</title>
<polygon fill="white" stroke="white" points="-4,5 -4,-430 857,-430 857,5 -4,5"/>
<g id="graph2" class="cluster"><title>cluster_Dual</title>
<polygon fill="#ffffc3" stroke="black" points="8,-18.3226 8,-407.677 844,-407.677 844,-18.3226 8,-18.3226"/>
<text text-anchor="middle" x="32.5" y="-391.077" font-family="Times Roman,serif" font-size="14.00">Dual</text>
</g>
<!-- Dual_initial_opposite_terminal -->
<g id="node1" class="node"><title>Dual_initial_opposite_terminal</title>
<a xlink:href="Dual.html#initial_opposite_terminal" xlink:title="initial_opposite_terminal">
<ellipse fill="#f070d1" stroke="black" cx="697" cy="-268.323" rx="130.815" ry="18.3848"/>
<ellipse fill="none" stroke="black" cx="697" cy="-268.323" rx="134.815" ry="22.3848"/>
<ellipse fill="none" stroke="black" cx="697" cy="-268.323" rx="138.815" ry="26.3848"/>
<text text-anchor="middle" x="697" y="-264.723" font-family="Times Roman,serif" font-size="14.00">initial_opposite_terminal</text>
</a>
</g>
<!-- Dual_opposite -->
<g id="node4" class="node"><title>Dual_opposite</title>
<a xlink:href="Dual.html#opposite" xlink:title="opposite">
<ellipse fill="#f070d1" stroke="black" cx="401" cy="-80.3226" rx="51.8276" ry="18.3848"/>
<text text-anchor="middle" x="401" y="-76.7226" font-family="Times Roman,serif" font-size="14.00">opposite</text>
</a>
</g>
<!-- Dual_initial_opposite_terminal&#45;&gt;Dual_opposite -->
<g id="edge2" class="edge"><title>Dual_initial_opposite_terminal&#45;&gt;Dual_opposite</title>
<path fill="none" stroke="black" d="M656.772,-242.772C598.226,-205.588 490.537,-137.191 435.443,-102.198"/>
<polygon fill="black" stroke="black" points="437.066,-99.0828 426.748,-96.6759 433.313,-104.992 437.066,-99.0828"/>
</g>
<!-- Dual_terminal_opposite_initial -->
<g id="node2" class="node"><title>Dual_terminal_opposite_initial</title>
<a xlink:href="Dual.html#terminal_opposite_initial" xlink:title="terminal_opposite_initial">
<ellipse fill="#f070d1" stroke="black" cx="401" cy="-268.323" rx="130.815" ry="18.3848"/>
<ellipse fill="none" stroke="black" cx="401" cy="-268.323" rx="134.815" ry="22.3848"/>
<ellipse fill="none" stroke="black" cx="401" cy="-268.323" rx="138.815" ry="26.3848"/>
<text text-anchor="middle" x="401" y="-264.723" font-family="Times Roman,serif" font-size="14.00">terminal_opposite_initial</text>
</a>
</g>
<!-- Dual_terminal_opposite_initial&#45;&gt;Dual_opposite -->
<g id="edge4" class="edge"><title>Dual_terminal_opposite_initial&#45;&gt;Dual_opposite</title>
<path fill="none" stroke="black" d="M401,-241.786C401,-206.838 401,-145.595 401,-109.417"/>
<polygon fill="black" stroke="black" points="404.5,-109.05 401,-99.0503 397.5,-109.05 404.5,-109.05"/>
</g>
<!-- Dual_opposite_involutive -->
<g id="node3" class="node"><title>Dual_opposite_involutive</title>
<a xlink:href="Dual.html#opposite_involutive" xlink:title="opposite_involutive">
<ellipse fill="#f070d1" stroke="black" cx="130" cy="-268.323" rx="106.066" ry="18.3848"/>
<ellipse fill="none" stroke="black" cx="130" cy="-268.323" rx="110.066" ry="22.3848"/>
<ellipse fill="none" stroke="black" cx="130" cy="-268.323" rx="114.066" ry="26.3848"/>
<text text-anchor="middle" x="130" y="-264.723" font-family="Times Roman,serif" font-size="14.00">opposite_involutive</text>
</a>
</g>
<!-- Dual_opposite_involutive&#45;&gt;Dual_opposite -->
<g id="edge6" class="edge"><title>Dual_opposite_involutive&#45;&gt;Dual_opposite</title>
<path fill="none" stroke="black" d="M166.267,-243.163C219.44,-206.276 317.744,-138.08 368.615,-102.789"/>
<polygon fill="black" stroke="black" points="370.728,-105.583 376.95,-97.007 366.738,-99.8312 370.728,-105.583"/>
</g>
</g>
</svg>
