<?xml version="1.0" encoding="UTF-8" standalone="no"?>
<!DOCTYPE svg PUBLIC "-//W3C//DTD SVG 1.1//EN"
 "http://www.w3.org/Graphics/SVG/1.1/DTD/svg11.dtd">
<!-- Generated by graphviz version 2.39.20141222.0545 (20141222.0545)
 -->
<!-- Title: HoTT_Categories_Functor_Prod_Functorial Pages: 1 -->
<svg width="510pt" height="259pt"
 viewBox="0.00 0.00 510.00 259.00" xmlns="http://www.w3.org/2000/svg" xmlns:xlink="http://www.w3.org/1999/xlink">
<g id="graph0" class="graph" transform="scale(1 1) rotate(0) translate(4 255)">
<title>HoTT_Categories_Functor_Prod_Functorial</title>
<polygon fill="white" stroke="transparent" points="-4,4 -4,-255 506,-255 506,4 -4,4"/>
<g id="clust1" class="cluster"><title>cluster_Functorial</title>
<polygon fill="#ffffc3" stroke="black" points="10.04,-8 10.04,-243 491.96,-243 491.96,-8 10.04,-8"/>
<text text-anchor="middle" x="46.04" y="-227.8" font-family="Times,serif" font-size="14.00">Functorial</text>
</g>
<!-- Functorial_functor -->
<g id="node1" class="node"><title>Functorial_functor</title>
<g id="a_node1"><a xlink:href="Functorial.html#functor" xlink:title="functor">
<ellipse fill="#f070d1" stroke="black" cx="239.52" cy="-186" rx="36.3123" ry="18"/>
<ellipse fill="none" stroke="black" cx="239.52" cy="-186" rx="40.3031" ry="22"/>
<ellipse fill="none" stroke="black" cx="239.52" cy="-186" rx="44.2938" ry="26"/>
<text text-anchor="middle" x="239.52" y="-182.3" font-family="Times,serif" font-size="14.00">functor</text>
</a>
</g>
</g>
<!-- Functorial_functor_identity_of -->
<g id="node2" class="node"><title>Functorial_functor_identity_of</title>
<g id="a_node2"><a xlink:href="Functorial.html#functor_identity_of" xlink:title="functor_identity_of">
<ellipse fill="#facdef" stroke="black" cx="119.52" cy="-106" rx="79.0865" ry="18"/>
<text text-anchor="middle" x="119.52" y="-102.3" font-family="Times,serif" font-size="14.00">functor_identity_of</text>
</a>
</g>
</g>
<!-- Functorial_functor&#45;&gt;Functorial_functor_identity_of -->
<g id="edge1" class="edge"><title>Functorial_functor&#45;&gt;Functorial_functor_identity_of</title>
<path fill="none" stroke="black" d="M210.165,-166.43C193.111,-155.061 171.542,-140.681 153.723,-128.802"/>
<polygon fill="black" stroke="black" points="155.575,-125.83 145.313,-123.195 151.692,-131.654 155.575,-125.83"/>
</g>
<!-- Functorial_functor_composition_of -->
<g id="node3" class="node"><title>Functorial_functor_composition_of</title>
<g id="a_node3"><a xlink:href="Functorial.html#functor_composition_of" xlink:title="functor_composition_of">
<ellipse fill="#facdef" stroke="black" cx="361.52" cy="-106" rx="96.3833" ry="18"/>
<text text-anchor="middle" x="361.52" y="-102.3" font-family="Times,serif" font-size="14.00">functor_composition_of</text>
</a>
</g>
</g>
<!-- Functorial_functor&#45;&gt;Functorial_functor_composition_of -->
<g id="edge2" class="edge"><title>Functorial_functor&#45;&gt;Functorial_functor_composition_of</title>
<path fill="none" stroke="black" d="M269.365,-166.43C286.581,-155.14 308.325,-140.882 326.367,-129.051"/>
<polygon fill="black" stroke="black" points="328.447,-131.873 334.89,-123.462 324.609,-126.019 328.447,-131.873"/>
</g>
<!-- Functorial_functor_morphism_of -->
<g id="node4" class="node"><title>Functorial_functor_morphism_of</title>
<g id="a_node4"><a xlink:href="Functorial.html#functor_morphism_of" xlink:title="functor_morphism_of">
<ellipse fill="#f070d1" stroke="black" cx="245.52" cy="-34" rx="89.0842" ry="18"/>
<text text-anchor="middle" x="245.52" y="-30.3" font-family="Times,serif" font-size="14.00">functor_morphism_of</text>
</a>
</g>
</g>
<!-- Functorial_functor_identity_of&#45;&gt;Functorial_functor_morphism_of -->
<g id="edge3" class="edge"><title>Functorial_functor_identity_of&#45;&gt;Functorial_functor_morphism_of</title>
<path fill="none" stroke="black" d="M149.061,-89.1192C166.314,-79.2606 188.282,-66.7072 206.895,-56.0714"/>
<polygon fill="black" stroke="black" points="208.781,-59.0248 215.727,-51.0245 205.308,-52.9471 208.781,-59.0248"/>
</g>
<!-- Functorial_functor_composition_of&#45;&gt;Functorial_functor_morphism_of -->
<g id="edge4" class="edge"><title>Functorial_functor_composition_of&#45;&gt;Functorial_functor_morphism_of</title>
<path fill="none" stroke="black" d="M333.735,-88.7542C318.353,-79.2064 299.036,-67.2168 282.403,-56.8927"/>
<polygon fill="black" stroke="black" points="283.822,-53.6545 273.48,-51.3546 280.131,-59.602 283.822,-53.6545"/>
</g>
</g>
</svg>
