<?xml version="1.0" encoding="UTF-8" standalone="no"?>
<!DOCTYPE svg PUBLIC "-//W3C//DTD SVG 1.1//EN"
 "http://www.w3.org/Graphics/SVG/1.1/DTD/svg11.dtd">
<!-- Generated by graphviz version 2.39.20141222.0545 (20141222.0545)
 -->
<!-- Title: HoTT_Conjugation Pages: 1 -->
<svg width="542pt" height="275pt"
 viewBox="0.00 0.00 542.00 275.00" xmlns="http://www.w3.org/2000/svg" xmlns:xlink="http://www.w3.org/1999/xlink">
<g id="graph0" class="graph" transform="scale(1 1) rotate(0) translate(4 271)">
<title>HoTT_Conjugation</title>
<polygon fill="white" stroke="transparent" points="-4,4 -4,-271 538,-271 538,4 -4,4"/>
<g id="clust1" class="cluster"><title>cluster_Conjugation</title>
<polygon fill="#ffffc3" stroke="black" points="10.4195,-8 10.4195,-259 523.58,-259 523.58,-8 10.4195,-8"/>
<text text-anchor="middle" x="51.9195" y="-243.8" font-family="Times,serif" font-size="14.00">Conjugation</text>
</g>
<!-- Conjugation_ap1_to_conjp -->
<g id="node1" class="node"><title>Conjugation_ap1_to_conjp</title>
<g id="a_node1"><a xlink:href="Conjugation.html#ap1_to_conjp" xlink:title="ap1_to_conjp">
<ellipse fill="#f070d1" stroke="black" cx="427.498" cy="-202" rx="58.4902" ry="18"/>
<ellipse fill="none" stroke="black" cx="427.498" cy="-202" rx="62.4899" ry="22"/>
<ellipse fill="none" stroke="black" cx="427.498" cy="-202" rx="66.4896" ry="26"/>
<text text-anchor="middle" x="427.498" y="-198.3" font-family="Times,serif" font-size="14.00">ap1_to_conjp</text>
</a>
</g>
</g>
<!-- Conjugation_ap_to_conjp -->
<g id="node3" class="node"><title>Conjugation_ap_to_conjp</title>
<g id="a_node3"><a xlink:href="Conjugation.html#ap_to_conjp" xlink:title="ap_to_conjp">
<ellipse fill="#facdef" stroke="black" cx="442.498" cy="-114" rx="53.8905" ry="18"/>
<text text-anchor="middle" x="442.498" y="-110.3" font-family="Times,serif" font-size="14.00">ap_to_conjp</text>
</a>
</g>
</g>
<!-- Conjugation_ap1_to_conjp&#45;&gt;Conjugation_ap_to_conjp -->
<g id="edge1" class="edge"><title>Conjugation_ap1_to_conjp&#45;&gt;Conjugation_ap_to_conjp</title>
<path fill="none" stroke="black" d="M431.998,-175.597C433.797,-165.041 435.872,-152.868 437.7,-142.145"/>
<polygon fill="black" stroke="black" points="441.196,-142.465 439.426,-132.019 434.296,-141.288 441.196,-142.465"/>
</g>
<!-- Conjugation_conjp_ap -->
<g id="node2" class="node"><title>Conjugation_conjp_ap</title>
<g id="a_node2"><a xlink:href="Conjugation.html#conjp_ap" xlink:title="conjp_ap">
<ellipse fill="#facdef" stroke="black" cx="282.498" cy="-114" rx="42.8089" ry="18"/>
<ellipse fill="none" stroke="black" cx="282.498" cy="-114" rx="46.8007" ry="22"/>
<ellipse fill="none" stroke="black" cx="282.498" cy="-114" rx="50.7926" ry="26"/>
<text text-anchor="middle" x="282.498" y="-110.3" font-family="Times,serif" font-size="14.00">conjp_ap</text>
</a>
</g>
</g>
<!-- Conjugation_conjp -->
<g id="node5" class="node"><title>Conjugation_conjp</title>
<g id="a_node5"><a xlink:href="Conjugation.html#conjp" xlink:title="conjp">
<ellipse fill="#f070d1" stroke="black" cx="282.498" cy="-34" rx="30.5947" ry="18"/>
<text text-anchor="middle" x="282.498" y="-30.3" font-family="Times,serif" font-size="14.00">conjp</text>
</a>
</g>
</g>
<!-- Conjugation_conjp_ap&#45;&gt;Conjugation_conjp -->
<g id="edge2" class="edge"><title>Conjugation_conjp_ap&#45;&gt;Conjugation_conjp</title>
<path fill="none" stroke="black" d="M282.498,-87.805C282.498,-79.6026 282.498,-70.5174 282.498,-62.1839"/>
<polygon fill="black" stroke="black" points="285.998,-62.1532 282.498,-52.1532 278.998,-62.1533 285.998,-62.1532"/>
</g>
<!-- Conjugation_ap_to_conjp&#45;&gt;Conjugation_conjp -->
<g id="edge3" class="edge"><title>Conjugation_ap_to_conjp&#45;&gt;Conjugation_conjp</title>
<path fill="none" stroke="black" d="M412.403,-98.9526C384.751,-85.1265 343.854,-64.6781 315.359,-50.4308"/>
<polygon fill="black" stroke="black" points="316.718,-47.1971 306.208,-45.8554 313.587,-53.4581 316.718,-47.1971"/>
</g>
<!-- Conjugation_conjp_concat -->
<g id="node4" class="node"><title>Conjugation_conjp_concat</title>
<g id="a_node4"><a xlink:href="Conjugation.html#conjp_concat" xlink:title="conjp_concat">
<ellipse fill="#facdef" stroke="black" cx="106.498" cy="-114" rx="57.7089" ry="18"/>
<ellipse fill="none" stroke="black" cx="106.498" cy="-114" rx="61.6995" ry="22"/>
<ellipse fill="none" stroke="black" cx="106.498" cy="-114" rx="65.6901" ry="26"/>
<text text-anchor="middle" x="106.498" y="-110.3" font-family="Times,serif" font-size="14.00">conjp_concat</text>
</a>
</g>
</g>
<!-- Conjugation_conjp_concat&#45;&gt;Conjugation_conjp -->
<g id="edge4" class="edge"><title>Conjugation_conjp_concat&#45;&gt;Conjugation_conjp</title>
<path fill="none" stroke="black" d="M150.003,-94.2247C180.508,-80.359 220.692,-62.0935 248.775,-49.3283"/>
<polygon fill="black" stroke="black" points="250.513,-52.383 258.168,-45.0587 247.616,-46.0105 250.513,-52.383"/>
</g>
</g>
</svg>
