<?xml version="1.0" encoding="UTF-8" standalone="no"?>
<!DOCTYPE svg PUBLIC "-//W3C//DTD SVG 1.1//EN"
 "http://www.w3.org/Graphics/SVG/1.1/DTD/svg11.dtd">
<!-- Generated by graphviz version 2.26.3 (20100126.1600)
 -->
<!-- Title: HoTT_hit_epi Pages: 1 -->
<svg width="676pt" height="342pt"
 viewBox="0.00 0.00 676.00 342.00" xmlns="http://www.w3.org/2000/svg" xmlns:xlink="http://www.w3.org/1999/xlink">
<g id="graph1" class="graph" transform="scale(1 1) rotate(0) translate(4 338)">
<title>HoTT_hit_epi</title>
<polygon fill="white" stroke="white" points="-4,5 -4,-338 673,-338 673,5 -4,5"/>
<g id="graph2" class="cluster"><title>cluster_epi</title>
<polygon fill="#ffffc3" stroke="black" points="10.3166,-8 10.3166,-326 657.683,-326 657.683,-8 10.3166,-8"/>
<text text-anchor="middle" x="28.8166" y="-309.4" font-family="Times Roman,serif" font-size="14.00">epi</text>
</g>
<!-- epi_isepi_isequiv -->
<g id="node1" class="node"><title>epi_isepi_isequiv</title>
<a xlink:href="epi.html#isepi_isequiv" xlink:title="isepi_isequiv">
<ellipse fill="#facdef" stroke="black" cx="543.104" cy="-265" rx="72.832" ry="18.3848"/>
<ellipse fill="none" stroke="black" cx="543.104" cy="-265" rx="76.832" ry="22.3848"/>
<ellipse fill="none" stroke="black" cx="543.104" cy="-265" rx="80.832" ry="26.3848"/>
<text text-anchor="middle" x="543.104" y="-261.4" font-family="Times Roman,serif" font-size="14.00">isepi_isequiv</text>
</a>
</g>
<!-- epi_isepi_issurj -->
<g id="node2" class="node"><title>epi_isepi_issurj</title>
<a xlink:href="epi.html#isepi_issurj" xlink:title="isepi_issurj">
<ellipse fill="#f070d1" stroke="black" cx="322.104" cy="-265" rx="63.9029" ry="18.3848"/>
<ellipse fill="none" stroke="black" cx="322.104" cy="-265" rx="67.8754" ry="22.3848"/>
<ellipse fill="none" stroke="black" cx="322.104" cy="-265" rx="71.8478" ry="26.3848"/>
<text text-anchor="middle" x="322.104" y="-261.4" font-family="Times Roman,serif" font-size="14.00">isepi_issurj</text>
</a>
</g>
<!-- epi_isepi -->
<g id="node5" class="node"><title>epi_isepi</title>
<a xlink:href="epi.html#isepi" xlink:title="isepi">
<ellipse fill="#f070d1" stroke="black" cx="253.104" cy="-183" rx="33.234" ry="18.3848"/>
<text text-anchor="middle" x="253.104" y="-179.4" font-family="Times Roman,serif" font-size="14.00">isepi</text>
</a>
</g>
<!-- epi_isepi_issurj&#45;&gt;epi_isepi -->
<g id="edge2" class="edge"><title>epi_isepi_issurj&#45;&gt;epi_isepi</title>
<path fill="none" stroke="black" d="M300.65,-239.504C292.16,-229.414 282.433,-217.854 273.998,-207.83"/>
<polygon fill="black" stroke="black" points="276.675,-205.575 267.558,-200.177 271.319,-210.082 276.675,-205.575"/>
</g>
<!-- epi_path_equiv_biimp_rec -->
<g id="node6" class="node"><title>epi_path_equiv_biimp_rec</title>
<a xlink:href="epi.html#path_equiv_biimp_rec" xlink:title="path_equiv_biimp_rec">
<ellipse fill="#f070d1" stroke="black" cx="469.104" cy="-183" rx="116.88" ry="18.3848"/>
<text text-anchor="middle" x="469.104" y="-179.4" font-family="Times Roman,serif" font-size="14.00">path_equiv_biimp_rec</text>
</a>
</g>
<!-- epi_isepi_issurj&#45;&gt;epi_path_equiv_biimp_rec -->
<g id="edge4" class="edge"><title>epi_isepi_issurj&#45;&gt;epi_path_equiv_biimp_rec</title>
<path fill="none" stroke="black" d="M361.885,-242.81C382.327,-231.406 407.213,-217.524 427.862,-206.006"/>
<polygon fill="black" stroke="black" points="429.694,-208.992 436.722,-201.063 426.284,-202.878 429.694,-208.992"/>
</g>
<!-- epi_issurj_isepi -->
<g id="node3" class="node"><title>epi_issurj_isepi</title>
<a xlink:href="epi.html#issurj_isepi" xlink:title="issurj_isepi">
<ellipse fill="#facdef" stroke="black" cx="113.104" cy="-265" rx="63.9029" ry="18.3848"/>
<ellipse fill="none" stroke="black" cx="113.104" cy="-265" rx="67.8754" ry="22.3848"/>
<ellipse fill="none" stroke="black" cx="113.104" cy="-265" rx="71.8478" ry="26.3848"/>
<text text-anchor="middle" x="113.104" y="-261.4" font-family="Times Roman,serif" font-size="14.00">issurj_isepi</text>
</a>
</g>
<!-- epi_issurj -->
<g id="node4" class="node"><title>epi_issurj</title>
<a xlink:href="epi.html#issurj" xlink:title="issurj">
<ellipse fill="#f070d1" stroke="black" cx="113.104" cy="-183" rx="36.977" ry="18.3848"/>
<text text-anchor="middle" x="113.104" y="-179.4" font-family="Times Roman,serif" font-size="14.00">issurj</text>
</a>
</g>
<!-- epi_issurj_isepi&#45;&gt;epi_issurj -->
<g id="edge6" class="edge"><title>epi_issurj_isepi&#45;&gt;epi_issurj</title>
<path fill="none" stroke="black" d="M113.104,-238.15C113.104,-229.743 113.104,-220.43 113.104,-211.889"/>
<polygon fill="black" stroke="black" points="116.604,-211.607 113.104,-201.607 109.604,-211.607 116.604,-211.607"/>
</g>
<!-- epi_path_equiv_biimp -->
<g id="node7" class="node"><title>epi_path_equiv_biimp</title>
<a xlink:href="epi.html#path_equiv_biimp" xlink:title="path_equiv_biimp">
<ellipse fill="#f070d1" stroke="black" cx="469.104" cy="-109" rx="96.8736" ry="18.3848"/>
<text text-anchor="middle" x="469.104" y="-105.4" font-family="Times Roman,serif" font-size="14.00">path_equiv_biimp</text>
</a>
</g>
<!-- epi_path_equiv_biimp_rec&#45;&gt;epi_path_equiv_biimp -->
<g id="edge8" class="edge"><title>epi_path_equiv_biimp_rec&#45;&gt;epi_path_equiv_biimp</title>
<path fill="none" stroke="black" d="M469.104,-164.327C469.104,-156.264 469.104,-146.648 469.104,-137.711"/>
<polygon fill="black" stroke="black" points="472.604,-137.667 469.104,-127.667 465.604,-137.667 472.604,-137.667"/>
</g>
<!-- epi_biimp_path -->
<g id="node8" class="node"><title>epi_biimp_path</title>
<a xlink:href="epi.html#biimp_path" xlink:title="biimp_path">
<ellipse fill="#f070d1" stroke="black" cx="325.104" cy="-35" rx="65.0538" ry="18.3848"/>
<text text-anchor="middle" x="325.104" y="-31.4" font-family="Times Roman,serif" font-size="14.00">biimp_path</text>
</a>
</g>
<!-- epi_path_equiv_biimp&#45;&gt;epi_biimp_path -->
<g id="edge10" class="edge"><title>epi_path_equiv_biimp&#45;&gt;epi_biimp_path</title>
<path fill="none" stroke="black" d="M435.343,-91.6503C414.54,-80.9598 387.737,-67.1862 365.769,-55.8972"/>
<polygon fill="black" stroke="black" points="367.176,-52.6852 356.682,-51.2275 363.977,-58.9112 367.176,-52.6852"/>
</g>
<!-- epi_path_biimp -->
<g id="node9" class="node"><title>epi_path_biimp</title>
<a xlink:href="epi.html#path_biimp" xlink:title="path_biimp">
<ellipse fill="#f070d1" stroke="black" cx="516.104" cy="-35" rx="65.0538" ry="18.3848"/>
<text text-anchor="middle" x="516.104" y="-31.4" font-family="Times Roman,serif" font-size="14.00">path_biimp</text>
</a>
</g>
<!-- epi_path_equiv_biimp&#45;&gt;epi_path_biimp -->
<g id="edge12" class="edge"><title>epi_path_equiv_biimp&#45;&gt;epi_path_biimp</title>
<path fill="none" stroke="black" d="M480.964,-90.3267C486.405,-81.7608 492.959,-71.4416 498.926,-62.0472"/>
<polygon fill="black" stroke="black" points="502.004,-63.7288 504.411,-53.411 496.095,-59.9758 502.004,-63.7288"/>
</g>
</g>
</svg>
