<?xml version="1.0" encoding="UTF-8" standalone="no"?>
<!DOCTYPE svg PUBLIC "-//W3C//DTD SVG 1.1//EN"
 "http://www.w3.org/Graphics/SVG/1.1/DTD/svg11.dtd">
<!-- Generated by graphviz version 2.26.3 (20100126.1600)
 -->
<!-- Title: HoTT_categories_Profunctor Pages: 1 -->
<svg width="1298pt" height="653pt"
 viewBox="0.00 0.00 1298.00 653.00" xmlns="http://www.w3.org/2000/svg" xmlns:xlink="http://www.w3.org/1999/xlink">
<g id="graph1" class="graph" transform="scale(1 1) rotate(0) translate(4 649)">
<title>HoTT_categories_Profunctor</title>
<polygon fill="white" stroke="white" points="-4,5 -4,-649 1295,-649 1295,5 -4,5"/>
<g id="graph2" class="cluster"><title>cluster_Representable</title>
<polygon fill="#ffffc3" stroke="black" points="8,-322.5 8,-620.192 412,-620.192 412,-322.5 8,-322.5"/>
<text text-anchor="middle" x="65.5" y="-603.592" font-family="Times Roman,serif" font-size="14.00">Representable</text>
</g>
<g id="graph3" class="cluster"><title>cluster_Core</title>
<polygon fill="#ffffc3" stroke="black" points="1124,-322.5 1124,-620.192 1282,-620.192 1282,-322.5 1124,-322.5"/>
<text text-anchor="middle" x="1148.5" y="-603.592" font-family="Times Roman,serif" font-size="14.00">Core</text>
</g>
<g id="graph4" class="cluster"><title>cluster_Profunctor</title>
<polygon fill="#ffffc3" stroke="black" points="420,-24.8077 420,-620.192 1116,-620.192 1116,-24.8077 420,-24.8077"/>
<text text-anchor="middle" x="464.5" y="-603.592" font-family="Times Roman,serif" font-size="14.00">Profunctor</text>
</g>
<g id="graph5" class="cluster"><title>cluster_Profunctor_Identity</title>
<polygon fill="#ffffa3" stroke="black" points="523,-49.6154 523,-297.692 637,-297.692 637,-49.6154 523,-49.6154"/>
<text text-anchor="middle" x="558.5" y="-281.092" font-family="Times Roman,serif" font-size="14.00">Identity</text>
</g>
<!-- Representable_corepresentable -->
<g id="node1" class="node"><title>Representable_corepresentable</title>
<a xlink:href="Representable.html#corepresentable" xlink:title="corepresentable">
<ellipse fill="#f070d1" stroke="black" cx="306" cy="-430.808" rx="89.8026" ry="18.3848"/>
<ellipse fill="none" stroke="black" cx="306" cy="-430.808" rx="93.8026" ry="22.3848"/>
<ellipse fill="none" stroke="black" cx="306" cy="-430.808" rx="97.8026" ry="26.3848"/>
<text text-anchor="middle" x="306" y="-427.208" font-family="Times Roman,serif" font-size="14.00">corepresentable</text>
</a>
</g>
<!-- Profunctor_Identity_identity -->
<g id="node7" class="node"><title>Profunctor_Identity_identity</title>
<a xlink:href="Profunctor.html#Identity.identity" xlink:title="identity">
<ellipse fill="#f070d1" stroke="black" cx="580" cy="-133.808" rx="48.9975" ry="18.3848"/>
<text text-anchor="middle" x="580" y="-130.208" font-family="Times Roman,serif" font-size="14.00">identity</text>
</a>
</g>
<!-- Representable_corepresentable&#45;&gt;Profunctor_Identity_identity -->
<g id="edge2" class="edge"><title>Representable_corepresentable&#45;&gt;Profunctor_Identity_identity</title>
<path fill="none" stroke="black" d="M329.836,-404.97C381.833,-348.609 504.914,-215.196 556.553,-159.222"/>
<polygon fill="black" stroke="black" points="559.429,-161.267 563.637,-151.544 554.284,-156.521 559.429,-161.267"/>
</g>
<!-- Representable_representable -->
<g id="node2" class="node"><title>Representable_representable</title>
<a xlink:href="Representable.html#representable" xlink:title="representable">
<ellipse fill="#f070d1" stroke="black" cx="103" cy="-430.808" rx="79.196" ry="18.3848"/>
<ellipse fill="none" stroke="black" cx="103" cy="-430.808" rx="83.196" ry="22.3848"/>
<ellipse fill="none" stroke="black" cx="103" cy="-430.808" rx="87.196" ry="26.3848"/>
<text text-anchor="middle" x="103" y="-427.208" font-family="Times Roman,serif" font-size="14.00">representable</text>
</a>
</g>
<!-- Representable_representable&#45;&gt;Profunctor_Identity_identity -->
<g id="edge4" class="edge"><title>Representable_representable&#45;&gt;Profunctor_Identity_identity</title>
<path fill="none" stroke="black" d="M141.631,-406.755C232.67,-350.069 459.49,-208.842 545.865,-155.062"/>
<polygon fill="black" stroke="black" points="547.856,-157.945 554.495,-149.688 544.156,-152.003 547.856,-157.945"/>
</g>
<!-- Profunctor_identity -->
<g id="node3" class="node"><title>Profunctor_identity</title>
<a xlink:href="Profunctor.html#identity" xlink:title="identity">
<ellipse fill="#f070d1" stroke="black" cx="1051" cy="-430.808" rx="49.0671" ry="18.3848"/>
<ellipse fill="none" stroke="black" cx="1051" cy="-430.808" rx="53.0323" ry="22.3848"/>
<ellipse fill="none" stroke="black" cx="1051" cy="-430.808" rx="56.9975" ry="26.3848"/>
<text text-anchor="middle" x="1051" y="-427.208" font-family="Times Roman,serif" font-size="14.00">identity</text>
</a>
</g>
<!-- Profunctor_corepresentable -->
<g id="node4" class="node"><title>Profunctor_corepresentable</title>
<a xlink:href="Profunctor.html#corepresentable" xlink:title="corepresentable">
<ellipse fill="#f070d1" stroke="black" cx="878" cy="-430.808" rx="89.8026" ry="18.3848"/>
<ellipse fill="none" stroke="black" cx="878" cy="-430.808" rx="93.8026" ry="22.3848"/>
<ellipse fill="none" stroke="black" cx="878" cy="-430.808" rx="97.8026" ry="26.3848"/>
<text text-anchor="middle" x="878" y="-427.208" font-family="Times Roman,serif" font-size="14.00">corepresentable</text>
</a>
</g>
<!-- Profunctor_corepresentable&#45;&gt;Profunctor_Identity_identity -->
<g id="edge6" class="edge"><title>Profunctor_corepresentable&#45;&gt;Profunctor_Identity_identity</title>
<path fill="none" stroke="black" d="M852.335,-405.229C795.703,-348.787 660.646,-214.183 604.812,-158.536"/>
<polygon fill="black" stroke="black" points="607.029,-155.805 597.476,-151.225 602.088,-160.763 607.029,-155.805"/>
</g>
<!-- Profunctor_representable -->
<g id="node5" class="node"><title>Profunctor_representable</title>
<a xlink:href="Profunctor.html#representable" xlink:title="representable">
<ellipse fill="#f070d1" stroke="black" cx="675" cy="-430.808" rx="79.196" ry="18.3848"/>
<ellipse fill="none" stroke="black" cx="675" cy="-430.808" rx="83.196" ry="22.3848"/>
<ellipse fill="none" stroke="black" cx="675" cy="-430.808" rx="87.196" ry="26.3848"/>
<text text-anchor="middle" x="675" y="-427.208" font-family="Times Roman,serif" font-size="14.00">representable</text>
</a>
</g>
<!-- Profunctor_representable&#45;&gt;Profunctor_Identity_identity -->
<g id="edge8" class="edge"><title>Profunctor_representable&#45;&gt;Profunctor_Identity_identity</title>
<path fill="none" stroke="black" d="M666.486,-404.19C648.65,-348.43 607.5,-219.781 589.136,-162.37"/>
<polygon fill="black" stroke="black" points="592.363,-160.971 585.983,-152.513 585.696,-163.104 592.363,-160.971"/>
</g>
<!-- Profunctor_Profunctor -->
<g id="node6" class="node"><title>Profunctor_Profunctor</title>
<a xlink:href="Profunctor.html#Profunctor" xlink:title="Profunctor">
<ellipse fill="#f070d1" stroke="black" cx="499" cy="-430.808" rx="62.9325" ry="18.3848"/>
<ellipse fill="none" stroke="black" cx="499" cy="-430.808" rx="66.9325" ry="22.3848"/>
<ellipse fill="none" stroke="black" cx="499" cy="-430.808" rx="70.9325" ry="26.3848"/>
<text text-anchor="middle" x="499" y="-427.208" font-family="Times Roman,serif" font-size="14.00">Profunctor</text>
</a>
</g>
<!-- Core_Profunctor -->
<g id="node8" class="node"><title>Core_Profunctor</title>
<a xlink:href="Core.html#Profunctor" xlink:title="Profunctor">
<ellipse fill="#f070d1" stroke="black" cx="1203" cy="-430.808" rx="62.9325" ry="18.3848"/>
<ellipse fill="none" stroke="black" cx="1203" cy="-430.808" rx="66.9325" ry="22.3848"/>
<ellipse fill="none" stroke="black" cx="1203" cy="-430.808" rx="70.9325" ry="26.3848"/>
<text text-anchor="middle" x="1203" y="-427.208" font-family="Times Roman,serif" font-size="14.00">Profunctor</text>
</a>
</g>
</g>
</svg>
