<?xml version="1.0" encoding="UTF-8" standalone="no"?>
<!DOCTYPE svg PUBLIC "-//W3C//DTD SVG 1.1//EN"
 "http://www.w3.org/Graphics/SVG/1.1/DTD/svg11.dtd">
<!-- Generated by graphviz version 2.39.20161220.0128 (20161220.0128)
 -->
<!-- Title: HoTT_Types_Unit Pages: 1 -->
<svg width="954pt" height="481pt"
 viewBox="0.00 0.00 954.00 481.00" xmlns="http://www.w3.org/2000/svg" xmlns:xlink="http://www.w3.org/1999/xlink">
<g id="graph0" class="graph" transform="scale(1 1) rotate(0) translate(4 477)">
<title>HoTT_Types_Unit</title>
<polygon fill="#ffffff" stroke="transparent" points="-4,4 -4,-477 950,-477 950,4 -4,4"/>
<g id="clust1" class="cluster">
<title>cluster_Unit</title>
<polygon fill="#ffffc3" stroke="#000000" points="8,-11.1622 8,-461.8378 938,-461.8378 938,-11.1622 8,-11.1622"/>
<text text-anchor="middle" x="28.5" y="-446.6378" font-family="Times,serif" font-size="14.00" fill="#000000">Unit</text>
</g>
<!-- Unit_contr_equiv_unit -->
<g id="node1" class="node">
<title>Unit_contr_equiv_unit</title>
<g id="a_node1"><a xlink:href="Unit.html#contr_equiv_unit" xlink:title="contr_equiv_unit">
<ellipse fill="#f070d1" stroke="#000000" cx="851" cy="-382.1622" rx="70.7036" ry="18"/>
<ellipse fill="none" stroke="#000000" cx="851" cy="-382.1622" rx="74.6957" ry="22"/>
<ellipse fill="none" stroke="#000000" cx="851" cy="-382.1622" rx="78.6877" ry="26"/>
<text text-anchor="middle" x="851" y="-378.4622" font-family="Times,serif" font-size="14.00" fill="#000000">contr_equiv_unit</text>
</a>
</g>
</g>
<!-- Unit_equiv_contr_unit -->
<g id="node2" class="node">
<title>Unit_equiv_contr_unit</title>
<g id="a_node2"><a xlink:href="Unit.html#equiv_contr_unit" xlink:title="equiv_contr_unit">
<ellipse fill="#f070d1" stroke="#000000" cx="675" cy="-382.1622" rx="70.7036" ry="18"/>
<ellipse fill="none" stroke="#000000" cx="675" cy="-382.1622" rx="74.6957" ry="22"/>
<ellipse fill="none" stroke="#000000" cx="675" cy="-382.1622" rx="78.6877" ry="26"/>
<text text-anchor="middle" x="675" y="-378.4622" font-family="Times,serif" font-size="14.00" fill="#000000">equiv_contr_unit</text>
</a>
</g>
</g>
<!-- Unit_contr_unit -->
<g id="node3" class="node">
<title>Unit_contr_unit</title>
<g id="a_node3"><a xlink:href="Unit.html#contr_unit" xlink:title="contr_unit">
<ellipse fill="#f070d1" stroke="#000000" cx="523" cy="-382.1622" rx="46.6221" ry="18"/>
<ellipse fill="none" stroke="#000000" cx="523" cy="-382.1622" rx="50.6073" ry="22"/>
<ellipse fill="none" stroke="#000000" cx="523" cy="-382.1622" rx="54.5925" ry="26"/>
<text text-anchor="middle" x="523" y="-378.4622" font-family="Times,serif" font-size="14.00" fill="#000000">contr_unit</text>
</a>
</g>
</g>
<!-- Unit_equiv_unit_coind -->
<g id="node4" class="node">
<title>Unit_equiv_unit_coind</title>
<g id="a_node4"><a xlink:href="Unit.html#equiv_unit_coind" xlink:title="equiv_unit_coind">
<ellipse fill="#f070d1" stroke="#000000" cx="370" cy="-382.1622" rx="72.2731" ry="18"/>
<ellipse fill="none" stroke="#000000" cx="370" cy="-382.1622" rx="76.2803" ry="22"/>
<ellipse fill="none" stroke="#000000" cx="370" cy="-382.1622" rx="80.2875" ry="26"/>
<text text-anchor="middle" x="370" y="-378.4622" font-family="Times,serif" font-size="14.00" fill="#000000">equiv_unit_coind</text>
</a>
</g>
</g>
<!-- Unit_isequiv_unit_coind -->
<g id="node5" class="node">
<title>Unit_isequiv_unit_coind</title>
<g id="a_node5"><a xlink:href="Unit.html#isequiv_unit_coind" xlink:title="isequiv_unit_coind">
<ellipse fill="#f070d1" stroke="#000000" cx="761" cy="-259.1622" rx="77.9862" ry="18"/>
<text text-anchor="middle" x="761" y="-255.4622" font-family="Times,serif" font-size="14.00" fill="#000000">isequiv_unit_coind</text>
</a>
</g>
</g>
<!-- Unit_equiv_unit_coind&#45;&gt;Unit_isequiv_unit_coind -->
<g id="edge1" class="edge">
<title>Unit_equiv_unit_coind&#45;&gt;Unit_isequiv_unit_coind</title>
<path fill="none" stroke="#000000" d="M427.6934,-364.0132C502.3046,-340.5421 631.4011,-299.9312 705.1179,-276.7415"/>
<polygon fill="#000000" stroke="#000000" points="706.2134,-280.0661 714.7023,-273.7265 704.1128,-273.3887 706.2134,-280.0661"/>
</g>
<!-- Unit_unit_coind -->
<g id="node6" class="node">
<title>Unit_unit_coind</title>
<g id="a_node6"><a xlink:href="Unit.html#unit_coind" xlink:title="unit_coind">
<ellipse fill="#f070d1" stroke="#000000" cx="761" cy="-148.1622" rx="48.1917" ry="18"/>
<text text-anchor="middle" x="761" y="-144.4622" font-family="Times,serif" font-size="14.00" fill="#000000">unit_coind</text>
</a>
</g>
</g>
<!-- Unit_isequiv_unit_coind&#45;&gt;Unit_unit_coind -->
<g id="edge2" class="edge">
<title>Unit_isequiv_unit_coind&#45;&gt;Unit_unit_coind</title>
<path fill="none" stroke="#000000" d="M761,-240.8328C761,-223.3995 761,-196.9104 761,-176.7111"/>
<polygon fill="#000000" stroke="#000000" points="764.5001,-176.5188 761,-166.5189 757.5001,-176.5189 764.5001,-176.5188"/>
</g>
<!-- Unit_path_unit -->
<g id="node14" class="node">
<title>Unit_path_unit</title>
<g id="a_node14"><a xlink:href="Unit.html#path_unit" xlink:title="path_unit">
<ellipse fill="#f070d1" stroke="#000000" cx="494" cy="-148.1622" rx="44.393" ry="18"/>
<text text-anchor="middle" x="494" y="-144.4622" font-family="Times,serif" font-size="14.00" fill="#000000">path_unit</text>
</a>
</g>
</g>
<!-- Unit_isequiv_unit_coind&#45;&gt;Unit_path_unit -->
<g id="edge3" class="edge">
<title>Unit_isequiv_unit_coind&#45;&gt;Unit_path_unit</title>
<path fill="none" stroke="#000000" d="M723.029,-243.3765C673.1197,-222.6277 585.8029,-186.3275 534.6128,-165.0462"/>
<polygon fill="#000000" stroke="#000000" points="535.7626,-161.7339 525.1852,-161.1269 533.0754,-168.1975 535.7626,-161.7339"/>
</g>
<!-- Unit_isequiv_unit_name -->
<g id="node7" class="node">
<title>Unit_isequiv_unit_name</title>
<g id="a_node7"><a xlink:href="Unit.html#isequiv_unit_name" xlink:title="isequiv_unit_name">
<ellipse fill="#f070d1" stroke="#000000" cx="579" cy="-259.1622" rx="77.9868" ry="18"/>
<ellipse fill="none" stroke="#000000" cx="579" cy="-259.1622" rx="81.9865" ry="22"/>
<ellipse fill="none" stroke="#000000" cx="579" cy="-259.1622" rx="85.9862" ry="26"/>
<text text-anchor="middle" x="579" y="-255.4622" font-family="Times,serif" font-size="14.00" fill="#000000">isequiv_unit_name</text>
</a>
</g>
</g>
<!-- Unit_isequiv_unit_name&#45;&gt;Unit_path_unit -->
<g id="edge4" class="edge">
<title>Unit_isequiv_unit_name&#45;&gt;Unit_path_unit</title>
<path fill="none" stroke="#000000" d="M559.4993,-233.6966C545.7678,-215.765 527.4527,-191.8475 513.6813,-173.8637"/>
<polygon fill="#000000" stroke="#000000" points="516.1845,-171.3757 507.3258,-165.5641 510.6268,-175.6316 516.1845,-171.3757"/>
</g>
<!-- Unit_equiv_unit_rec -->
<g id="node8" class="node">
<title>Unit_equiv_unit_rec</title>
<g id="a_node8"><a xlink:href="Unit.html#equiv_unit_rec" xlink:title="equiv_unit_rec">
<ellipse fill="#f070d1" stroke="#000000" cx="200" cy="-382.1622" rx="63.8675" ry="18"/>
<ellipse fill="none" stroke="#000000" cx="200" cy="-382.1622" rx="67.8784" ry="22"/>
<ellipse fill="none" stroke="#000000" cx="200" cy="-382.1622" rx="71.8892" ry="26"/>
<text text-anchor="middle" x="200" y="-378.4622" font-family="Times,serif" font-size="14.00" fill="#000000">equiv_unit_rec</text>
</a>
</g>
</g>
<!-- Unit_isequiv_unit_rec -->
<g id="node9" class="node">
<title>Unit_isequiv_unit_rec</title>
<g id="a_node9"><a xlink:href="Unit.html#isequiv_unit_rec" xlink:title="isequiv_unit_rec">
<ellipse fill="#f070d1" stroke="#000000" cx="255" cy="-259.1622" rx="69.5877" ry="18"/>
<text text-anchor="middle" x="255" y="-255.4622" font-family="Times,serif" font-size="14.00" fill="#000000">isequiv_unit_rec</text>
</a>
</g>
</g>
<!-- Unit_equiv_unit_rec&#45;&gt;Unit_isequiv_unit_rec -->
<g id="edge5" class="edge">
<title>Unit_equiv_unit_rec&#45;&gt;Unit_isequiv_unit_rec</title>
<path fill="none" stroke="#000000" d="M211.5298,-356.3774C220.6666,-335.9441 233.4029,-307.4613 242.7277,-286.6076"/>
<polygon fill="#000000" stroke="#000000" points="245.9865,-287.8938 246.8735,-277.3361 239.5963,-285.0363 245.9865,-287.8938"/>
</g>
<!-- Unit_isequiv_unit_ind -->
<g id="node10" class="node">
<title>Unit_isequiv_unit_ind</title>
<g id="a_node10"><a xlink:href="Unit.html#isequiv_unit_ind" xlink:title="isequiv_unit_ind">
<ellipse fill="#f070d1" stroke="#000000" cx="255" cy="-148.1622" rx="69.5877" ry="18"/>
<text text-anchor="middle" x="255" y="-144.4622" font-family="Times,serif" font-size="14.00" fill="#000000">isequiv_unit_ind</text>
</a>
</g>
</g>
<!-- Unit_isequiv_unit_rec&#45;&gt;Unit_isequiv_unit_ind -->
<g id="edge6" class="edge">
<title>Unit_isequiv_unit_rec&#45;&gt;Unit_isequiv_unit_ind</title>
<path fill="none" stroke="#000000" d="M255,-240.8328C255,-223.3995 255,-196.9104 255,-176.7111"/>
<polygon fill="#000000" stroke="#000000" points="258.5001,-176.5188 255,-166.5189 251.5001,-176.5189 258.5001,-176.5188"/>
</g>
<!-- Unit_equiv_path_unit -->
<g id="node11" class="node">
<title>Unit_equiv_path_unit</title>
<g id="a_node11"><a xlink:href="Unit.html#equiv_path_unit" xlink:title="equiv_path_unit">
<ellipse fill="#f070d1" stroke="#000000" cx="92" cy="-259.1622" rx="67.6782" ry="18"/>
<ellipse fill="none" stroke="#000000" cx="92" cy="-259.1622" rx="71.6831" ry="22"/>
<ellipse fill="none" stroke="#000000" cx="92" cy="-259.1622" rx="75.6881" ry="26"/>
<text text-anchor="middle" x="92" y="-255.4622" font-family="Times,serif" font-size="14.00" fill="#000000">equiv_path_unit</text>
</a>
</g>
</g>
<!-- Unit_isequiv_path_unit -->
<g id="node12" class="node">
<title>Unit_isequiv_path_unit</title>
<g id="a_node12"><a xlink:href="Unit.html#isequiv_path_unit" xlink:title="isequiv_path_unit">
<ellipse fill="#f070d1" stroke="#000000" cx="93" cy="-148.1622" rx="73.387" ry="18"/>
<text text-anchor="middle" x="93" y="-144.4622" font-family="Times,serif" font-size="14.00" fill="#000000">isequiv_path_unit</text>
</a>
</g>
</g>
<!-- Unit_equiv_path_unit&#45;&gt;Unit_isequiv_path_unit -->
<g id="edge7" class="edge">
<title>Unit_equiv_path_unit&#45;&gt;Unit_isequiv_path_unit</title>
<path fill="none" stroke="#000000" d="M92.2345,-233.1377C92.3874,-216.1568 92.5871,-193.99 92.7442,-176.5544"/>
<polygon fill="#000000" stroke="#000000" points="96.2454,-176.4295 92.8357,-166.3984 89.2457,-176.3664 96.2454,-176.4295"/>
</g>
<!-- Unit_path_unit_uncurried -->
<g id="node15" class="node">
<title>Unit_path_unit_uncurried</title>
<g id="a_node15"><a xlink:href="Unit.html#path_unit_uncurried" xlink:title="path_unit_uncurried">
<ellipse fill="#f070d1" stroke="#000000" cx="253" cy="-47.1622" rx="81.7856" ry="18"/>
<text text-anchor="middle" x="253" y="-43.4622" font-family="Times,serif" font-size="14.00" fill="#000000">path_unit_uncurried</text>
</a>
</g>
</g>
<!-- Unit_isequiv_path_unit&#45;&gt;Unit_path_unit_uncurried -->
<g id="edge8" class="edge">
<title>Unit_isequiv_path_unit&#45;&gt;Unit_path_unit_uncurried</title>
<path fill="none" stroke="#000000" d="M119.7804,-131.2571C146.466,-114.4119 187.6104,-88.4394 217.1117,-69.8167"/>
<polygon fill="#000000" stroke="#000000" points="219.2767,-72.5891 225.8645,-64.2915 215.5401,-66.6698 219.2767,-72.5891"/>
</g>
<!-- Unit_eta_path_unit -->
<g id="node13" class="node">
<title>Unit_eta_path_unit</title>
<g id="a_node13"><a xlink:href="Unit.html#eta_path_unit" xlink:title="eta_path_unit">
<ellipse fill="#f070d1" stroke="#000000" cx="409" cy="-259.1622" rx="58.4902" ry="18"/>
<ellipse fill="none" stroke="#000000" cx="409" cy="-259.1622" rx="62.4899" ry="22"/>
<ellipse fill="none" stroke="#000000" cx="409" cy="-259.1622" rx="66.4896" ry="26"/>
<text text-anchor="middle" x="409" y="-255.4622" font-family="Times,serif" font-size="14.00" fill="#000000">eta_path_unit</text>
</a>
</g>
</g>
<!-- Unit_eta_path_unit&#45;&gt;Unit_path_unit -->
<g id="edge9" class="edge">
<title>Unit_eta_path_unit&#45;&gt;Unit_path_unit</title>
<path fill="none" stroke="#000000" d="M428.0757,-234.2517C441.8726,-216.2345 460.4591,-191.9627 474.3799,-173.7838"/>
<polygon fill="#000000" stroke="#000000" points="477.4964,-175.4707 480.7975,-165.4032 471.9388,-171.2148 477.4964,-175.4707"/>
</g>
<!-- Unit_path_unit&#45;&gt;Unit_path_unit_uncurried -->
<g id="edge10" class="edge">
<title>Unit_path_unit&#45;&gt;Unit_path_unit_uncurried</title>
<path fill="none" stroke="#000000" d="M462.9868,-135.165C421.8684,-117.9328 348.9023,-87.3537 300.7346,-67.1672"/>
<polygon fill="#000000" stroke="#000000" points="302.0241,-63.9127 291.4484,-63.2755 299.3184,-70.3687 302.0241,-63.9127"/>
</g>
<!-- Unit_eta_unit -->
<g id="node16" class="node">
<title>Unit_eta_unit</title>
<g id="a_node16"><a xlink:href="Unit.html#eta_unit" xlink:title="eta_unit">
<ellipse fill="#f070d1" stroke="#000000" cx="63" cy="-382.1622" rx="38.9937" ry="18"/>
<ellipse fill="none" stroke="#000000" cx="63" cy="-382.1622" rx="42.9934" ry="22"/>
<ellipse fill="none" stroke="#000000" cx="63" cy="-382.1622" rx="46.9931" ry="26"/>
<text text-anchor="middle" x="63" y="-378.4622" font-family="Times,serif" font-size="14.00" fill="#000000">eta_unit</text>
</a>
</g>
</g>
</g>
</svg>
