<?xml version="1.0" encoding="UTF-8" standalone="no"?>
<!DOCTYPE svg PUBLIC "-//W3C//DTD SVG 1.1//EN"
 "http://www.w3.org/Graphics/SVG/1.1/DTD/svg11.dtd">
<!-- Generated by graphviz version 2.26.3 (20100126.1600)
 -->
<!-- Title: HoTT_categories_GroupoidCategory Pages: 1 -->
<svg width="3473pt" height="1732pt"
 viewBox="0.00 0.00 3473.30 1732.00" xmlns="http://www.w3.org/2000/svg" xmlns:xlink="http://www.w3.org/1999/xlink">
<g id="graph1" class="graph" transform="scale(1 1) rotate(0) translate(4 1728)">
<title>HoTT_categories_GroupoidCategory</title>
<polygon fill="white" stroke="white" points="-4,5 -4,-1728 3470.3,-1728 3470.3,5 -4,5"/>
<g id="graph2" class="cluster"><title>cluster_GroupoidCategory</title>
<polygon fill="#ffffc3" stroke="black" points="8,-944.752 8,-1696.42 2062,-1696.42 2062,-944.752 8,-944.752"/>
<text text-anchor="middle" x="79.5" y="-1679.82" font-family="Times Roman,serif" font-size="14.00">GroupoidCategory</text>
</g>
<g id="graph3" class="cluster"><title>cluster_GroupoidCategory_GroupoidCategoryInternals</title>
<polygon fill="#ffffa3" stroke="black" points="1784,-1248.18 1784,-1579.18 2054,-1579.18 2054,-1248.18 1784,-1248.18"/>
<text text-anchor="middle" x="1886" y="-1562.58" font-family="Times Roman,serif" font-size="14.00">GroupoidCategoryInternals</text>
</g>
<g id="graph4" class="cluster"><title>cluster_Morphisms</title>
<polygon fill="#ffffc3" stroke="black" points="2070,-613.744 2070,-1220.59 2400,-1220.59 2400,-613.744 2070,-613.744"/>
<text text-anchor="middle" x="2115" y="-1203.99" font-family="Times Roman,serif" font-size="14.00">Morphisms</text>
</g>
<g id="graph5" class="cluster"><title>cluster_Core</title>
<polygon fill="#ffffc3" stroke="black" points="2408,-27.584 2408,-917.168 3440,-917.168 3440,-27.584 2408,-27.584"/>
<text text-anchor="middle" x="2432.5" y="-900.568" font-family="Times Roman,serif" font-size="14.00">Core</text>
</g>
<g id="graph6" class="cluster"><title>cluster_Core_GroupoidCategoryInternals</title>
<polygon fill="#ffffa3" stroke="black" points="2834,-55.168 2834,-331.008 3072,-331.008 3072,-55.168 2834,-55.168"/>
<text text-anchor="middle" x="2936" y="-314.408" font-family="Times Roman,serif" font-size="14.00">GroupoidCategoryInternals</text>
</g>
<!-- GroupoidCategory_GroupoidCategoryInternals_identity -->
<g id="node1" class="node"><title>GroupoidCategory_GroupoidCategoryInternals_identity</title>
<a xlink:href="GroupoidCategory.html#GroupoidCategoryInternals.identity" xlink:title="identity">
<ellipse fill="#f070d1" stroke="black" cx="1989" cy="-1368.58" rx="49.0671" ry="18.3848"/>
<ellipse fill="none" stroke="black" cx="1989" cy="-1368.58" rx="53.0323" ry="22.3848"/>
<ellipse fill="none" stroke="black" cx="1989" cy="-1368.58" rx="56.9975" ry="26.3848"/>
<text text-anchor="middle" x="1989" y="-1364.98" font-family="Times Roman,serif" font-size="14.00">identity</text>
</a>
</g>
<!-- GroupoidCategory_GroupoidCategoryInternals_compose -->
<g id="node2" class="node"><title>GroupoidCategory_GroupoidCategoryInternals_compose</title>
<a xlink:href="GroupoidCategory.html#GroupoidCategoryInternals.compose" xlink:title="compose">
<ellipse fill="#f070d1" stroke="black" cx="1853" cy="-1368.58" rx="53.3032" ry="18.3848"/>
<ellipse fill="none" stroke="black" cx="1853" cy="-1368.58" rx="57.2707" ry="22.3848"/>
<ellipse fill="none" stroke="black" cx="1853" cy="-1368.58" rx="61.2382" ry="26.3848"/>
<text text-anchor="middle" x="1853" y="-1364.98" font-family="Times Roman,serif" font-size="14.00">compose</text>
</a>
</g>
<!-- Core_GroupoidCategoryInternals_identity -->
<g id="node3" class="node"><title>Core_GroupoidCategoryInternals_identity</title>
<a xlink:href="Core.html#GroupoidCategoryInternals.identity" xlink:title="identity">
<ellipse fill="#f070d1" stroke="black" cx="3015" cy="-148.584" rx="48.9975" ry="18.3848"/>
<text text-anchor="middle" x="3015" y="-144.984" font-family="Times Roman,serif" font-size="14.00">identity</text>
</a>
</g>
<!-- Core_GroupoidCategoryInternals_compose -->
<g id="node4" class="node"><title>Core_GroupoidCategoryInternals_compose</title>
<a xlink:href="Core.html#GroupoidCategoryInternals.compose" xlink:title="compose">
<ellipse fill="#f070d1" stroke="black" cx="2895" cy="-148.584" rx="53.2379" ry="18.3848"/>
<text text-anchor="middle" x="2895" y="-144.984" font-family="Times Roman,serif" font-size="14.00">compose</text>
</a>
</g>
<!-- Morphisms_iscategory_groupoid_category -->
<g id="node5" class="node"><title>Morphisms_iscategory_groupoid_category</title>
<a xlink:href="Morphisms.html#iscategory_groupoid_category" xlink:title="iscategory_groupoid_category">
<ellipse fill="#facdef" stroke="black" cx="2235" cy="-1037.58" rx="156.978" ry="18.3848"/>
<text text-anchor="middle" x="2235" y="-1033.98" font-family="Times Roman,serif" font-size="14.00">iscategory_groupoid_category</text>
</a>
</g>
<!-- Morphisms_isotoid -->
<g id="node6" class="node"><title>Morphisms_isotoid</title>
<a xlink:href="Morphisms.html#isotoid" xlink:title="isotoid">
<ellipse fill="#f070d1" stroke="black" cx="2291" cy="-706.584" rx="43.8406" ry="18.3848"/>
<text text-anchor="middle" x="2291" y="-702.984" font-family="Times Roman,serif" font-size="14.00">isotoid</text>
</a>
</g>
<!-- Morphisms_iscategory_groupoid_category&#45;&gt;Morphisms_isotoid -->
<g id="edge2" class="edge"><title>Morphisms_iscategory_groupoid_category&#45;&gt;Morphisms_isotoid</title>
<path fill="none" stroke="black" d="M2238.17,-1018.84C2247.51,-963.652 2274.94,-801.488 2286.15,-735.257"/>
<polygon fill="black" stroke="black" points="2289.65,-735.567 2287.86,-725.123 2282.74,-734.399 2289.65,-735.567"/>
</g>
<!-- Core_groupoid_category -->
<g id="node19" class="node"><title>Core_groupoid_category</title>
<a xlink:href="Core.html#groupoid_category" xlink:title="groupoid_category">
<ellipse fill="#f070d1" stroke="black" cx="2955" cy="-424.584" rx="101.823" ry="18.3848"/>
<text text-anchor="middle" x="2955" y="-420.984" font-family="Times Roman,serif" font-size="14.00">groupoid_category</text>
</a>
</g>
<!-- Morphisms_isotoid&#45;&gt;Core_groupoid_category -->
<g id="edge4" class="edge"><title>Morphisms_isotoid&#45;&gt;Core_groupoid_category</title>
<path fill="none" stroke="black" d="M2322.14,-693.361C2428.07,-648.371 2775.14,-500.97 2905.2,-445.736"/>
<polygon fill="black" stroke="black" points="2906.71,-448.896 2914.54,-441.766 2903.97,-442.453 2906.71,-448.896"/>
</g>
<!-- GroupoidCategory_iscategory_groupoid_category -->
<g id="node7" class="node"><title>GroupoidCategory_iscategory_groupoid_category</title>
<a xlink:href="GroupoidCategory.html#iscategory_groupoid_category" xlink:title="iscategory_groupoid_category">
<ellipse fill="#f070d1" stroke="black" cx="1487" cy="-1368.58" rx="156.978" ry="18.3848"/>
<ellipse fill="none" stroke="black" cx="1487" cy="-1368.58" rx="160.978" ry="22.3848"/>
<ellipse fill="none" stroke="black" cx="1487" cy="-1368.58" rx="164.978" ry="26.3848"/>
<text text-anchor="middle" x="1487" y="-1364.98" font-family="Times Roman,serif" font-size="14.00">iscategory_groupoid_category</text>
</a>
</g>
<!-- GroupoidCategory_iscategory_groupoid_category&#45;&gt;Morphisms_iscategory_groupoid_category -->
<g id="edge6" class="edge"><title>GroupoidCategory_iscategory_groupoid_category&#45;&gt;Morphisms_iscategory_groupoid_category</title>
<path fill="none" stroke="black" d="M1543.53,-1343.57C1684.78,-1281.06 2051.4,-1118.83 2185.19,-1059.62"/>
<polygon fill="black" stroke="black" points="2186.69,-1062.79 2194.42,-1055.54 2183.86,-1056.39 2186.69,-1062.79"/>
</g>
<!-- GroupoidCategory_isotoid -->
<g id="node8" class="node"><title>GroupoidCategory_isotoid</title>
<a xlink:href="GroupoidCategory.html#isotoid" xlink:title="isotoid">
<ellipse fill="#f070d1" stroke="black" cx="1722" cy="-1368.58" rx="43.8406" ry="18.3848"/>
<ellipse fill="none" stroke="black" cx="1722" cy="-1368.58" rx="47.8406" ry="22.3848"/>
<ellipse fill="none" stroke="black" cx="1722" cy="-1368.58" rx="51.8406" ry="26.3848"/>
<text text-anchor="middle" x="1722" y="-1364.98" font-family="Times Roman,serif" font-size="14.00">isotoid</text>
</a>
</g>
<!-- GroupoidCategory_isotoid&#45;&gt;Core_groupoid_category -->
<g id="edge8" class="edge"><title>GroupoidCategory_isotoid&#45;&gt;Core_groupoid_category</title>
<path fill="none" stroke="black" d="M1754.15,-1347.51C1762.39,-1342.58 1771.36,-1337.6 1780,-1333.58 2487.05,-1004.44 2987.09,-1401.79 3441,-767.584 3562.06,-598.442 3191.81,-483.136 3028.39,-441.65"/>
<polygon fill="black" stroke="black" points="3028.96,-438.184 3018.41,-439.142 3027.25,-444.973 3028.96,-438.184"/>
</g>
<!-- GroupoidCategory_identity -->
<g id="node9" class="node"><title>GroupoidCategory_identity</title>
<a xlink:href="GroupoidCategory.html#identity" xlink:title="identity">
<ellipse fill="#f070d1" stroke="black" cx="1247" cy="-1368.58" rx="49.0671" ry="18.3848"/>
<ellipse fill="none" stroke="black" cx="1247" cy="-1368.58" rx="53.0323" ry="22.3848"/>
<ellipse fill="none" stroke="black" cx="1247" cy="-1368.58" rx="56.9975" ry="26.3848"/>
<text text-anchor="middle" x="1247" y="-1364.98" font-family="Times Roman,serif" font-size="14.00">identity</text>
</a>
</g>
<!-- GroupoidCategory_compose -->
<g id="node10" class="node"><title>GroupoidCategory_compose</title>
<a xlink:href="GroupoidCategory.html#compose" xlink:title="compose">
<ellipse fill="#f070d1" stroke="black" cx="1111" cy="-1368.58" rx="53.3032" ry="18.3848"/>
<ellipse fill="none" stroke="black" cx="1111" cy="-1368.58" rx="57.2707" ry="22.3848"/>
<ellipse fill="none" stroke="black" cx="1111" cy="-1368.58" rx="61.2382" ry="26.3848"/>
<text text-anchor="middle" x="1111" y="-1364.98" font-family="Times Roman,serif" font-size="14.00">compose</text>
</a>
</g>
<!-- GroupoidCategory_isstrict_groupoid_category -->
<g id="node11" class="node"><title>GroupoidCategory_isstrict_groupoid_category</title>
<a xlink:href="GroupoidCategory.html#isstrict_groupoid_category" xlink:title="isstrict_groupoid_category">
<ellipse fill="#f070d1" stroke="black" cx="885" cy="-1368.58" rx="138.828" ry="18.3848"/>
<ellipse fill="none" stroke="black" cx="885" cy="-1368.58" rx="142.814" ry="22.3848"/>
<ellipse fill="none" stroke="black" cx="885" cy="-1368.58" rx="146.801" ry="26.3848"/>
<text text-anchor="middle" x="885" y="-1364.98" font-family="Times Roman,serif" font-size="14.00">isstrict_groupoid_category</text>
</a>
</g>
<!-- GroupoidCategory_isgroupoid_groupoid_category -->
<g id="node12" class="node"><title>GroupoidCategory_isgroupoid_groupoid_category</title>
<a xlink:href="GroupoidCategory.html#isgroupoid_groupoid_category" xlink:title="isgroupoid_groupoid_category">
<ellipse fill="#f070d1" stroke="black" cx="555" cy="-1368.58" rx="156.978" ry="18.3848"/>
<ellipse fill="none" stroke="black" cx="555" cy="-1368.58" rx="160.978" ry="22.3848"/>
<ellipse fill="none" stroke="black" cx="555" cy="-1368.58" rx="164.978" ry="26.3848"/>
<text text-anchor="middle" x="555" y="-1364.98" font-family="Times Roman,serif" font-size="14.00">isgroupoid_groupoid_category</text>
</a>
</g>
<!-- GroupoidCategory_groupoid_category -->
<g id="node13" class="node"><title>GroupoidCategory_groupoid_category</title>
<a xlink:href="GroupoidCategory.html#groupoid_category" xlink:title="groupoid_category">
<ellipse fill="#f070d1" stroke="black" cx="555" cy="-1037.58" rx="101.823" ry="18.3848"/>
<text text-anchor="middle" x="555" y="-1033.98" font-family="Times Roman,serif" font-size="14.00">groupoid_category</text>
</a>
</g>
<!-- GroupoidCategory_isgroupoid_groupoid_category&#45;&gt;GroupoidCategory_groupoid_category -->
<g id="edge10" class="edge"><title>GroupoidCategory_isgroupoid_groupoid_category&#45;&gt;GroupoidCategory_groupoid_category</title>
<path fill="none" stroke="black" d="M555,-1342.06C555,-1280.71 555,-1129.48 555,-1066.17"/>
<polygon fill="black" stroke="black" points="558.5,-1066.1 555,-1056.1 551.5,-1066.1 558.5,-1066.1"/>
</g>
<!-- GroupoidCategory_IsGroupoid -->
<g id="node16" class="node"><title>GroupoidCategory_IsGroupoid</title>
<a xlink:href="GroupoidCategory.html#IsGroupoid" xlink:title="IsGroupoid">
<ellipse fill="#f070d1" stroke="black" cx="228" cy="-1037.58" rx="63.8479" ry="18.3848"/>
<text text-anchor="middle" x="228" y="-1033.98" font-family="Times Roman,serif" font-size="14.00">IsGroupoid</text>
</a>
</g>
<!-- GroupoidCategory_isgroupoid_groupoid_category&#45;&gt;GroupoidCategory_IsGroupoid -->
<g id="edge12" class="edge"><title>GroupoidCategory_isgroupoid_groupoid_category&#45;&gt;GroupoidCategory_IsGroupoid</title>
<path fill="none" stroke="black" d="M529.068,-1342.33C467.645,-1280.16 313.901,-1124.54 253.21,-1063.1"/>
<polygon fill="black" stroke="black" points="255.466,-1060.41 245.948,-1055.75 250.486,-1065.33 255.466,-1060.41"/>
</g>
<!-- GroupoidCategory_trunc_isgroupoid -->
<g id="node14" class="node"><title>GroupoidCategory_trunc_isgroupoid</title>
<a xlink:href="GroupoidCategory.html#trunc_isgroupoid" xlink:title="trunc_isgroupoid">
<ellipse fill="#f070d1" stroke="black" cx="272" cy="-1368.58" rx="92.1701" ry="18.3848"/>
<ellipse fill="none" stroke="black" cx="272" cy="-1368.58" rx="96.1502" ry="22.3848"/>
<ellipse fill="none" stroke="black" cx="272" cy="-1368.58" rx="100.13" ry="26.3848"/>
<text text-anchor="middle" x="272" y="-1364.98" font-family="Times Roman,serif" font-size="14.00">trunc_isgroupoid</text>
</a>
</g>
<!-- GroupoidCategory_isgroupoid -->
<g id="node15" class="node"><title>GroupoidCategory_isgroupoid</title>
<a xlink:href="GroupoidCategory.html#isgroupoid" xlink:title="isgroupoid">
<ellipse fill="#f070d1" stroke="black" cx="85" cy="-1368.58" rx="61.0757" ry="18.3848"/>
<ellipse fill="none" stroke="black" cx="85" cy="-1368.58" rx="65.0469" ry="22.3848"/>
<ellipse fill="none" stroke="black" cx="85" cy="-1368.58" rx="69.0182" ry="26.3848"/>
<text text-anchor="middle" x="85" y="-1364.98" font-family="Times Roman,serif" font-size="14.00">isgroupoid</text>
</a>
</g>
<!-- GroupoidCategory_isgroupoid&#45;&gt;GroupoidCategory_IsGroupoid -->
<g id="edge14" class="edge"><title>GroupoidCategory_isgroupoid&#45;&gt;GroupoidCategory_IsGroupoid</title>
<path fill="none" stroke="black" d="M96.3405,-1342.33C122.865,-1280.94 188.758,-1128.42 215.96,-1065.45"/>
<polygon fill="black" stroke="black" points="219.228,-1066.71 219.981,-1056.14 212.802,-1063.94 219.228,-1066.71"/>
</g>
<!-- Core_isstrict_groupoid_category -->
<g id="node17" class="node"><title>Core_isstrict_groupoid_category</title>
<a xlink:href="Core.html#isstrict_groupoid_category" xlink:title="isstrict_groupoid_category">
<ellipse fill="#f070d1" stroke="black" cx="3285" cy="-706.584" rx="138.828" ry="18.3848"/>
<ellipse fill="none" stroke="black" cx="3285" cy="-706.584" rx="142.814" ry="22.3848"/>
<ellipse fill="none" stroke="black" cx="3285" cy="-706.584" rx="146.801" ry="26.3848"/>
<text text-anchor="middle" x="3285" y="-702.984" font-family="Times Roman,serif" font-size="14.00">isstrict_groupoid_category</text>
</a>
</g>
<!-- Core_isgroupoid_groupoid_category -->
<g id="node18" class="node"><title>Core_isgroupoid_groupoid_category</title>
<a xlink:href="Core.html#isgroupoid_groupoid_category" xlink:title="isgroupoid_groupoid_category">
<ellipse fill="#f070d1" stroke="black" cx="2955" cy="-706.584" rx="156.978" ry="18.3848"/>
<ellipse fill="none" stroke="black" cx="2955" cy="-706.584" rx="160.978" ry="22.3848"/>
<ellipse fill="none" stroke="black" cx="2955" cy="-706.584" rx="164.978" ry="26.3848"/>
<text text-anchor="middle" x="2955" y="-702.984" font-family="Times Roman,serif" font-size="14.00">isgroupoid_groupoid_category</text>
</a>
</g>
<!-- Core_isgroupoid_groupoid_category&#45;&gt;Core_groupoid_category -->
<g id="edge16" class="edge"><title>Core_isgroupoid_groupoid_category&#45;&gt;Core_groupoid_category</title>
<path fill="none" stroke="black" d="M2955,-680.054C2955,-626.967 2955,-508.074 2955,-453.263"/>
<polygon fill="black" stroke="black" points="2958.5,-453.193 2955,-443.193 2951.5,-453.193 2958.5,-453.193"/>
</g>
<!-- Core_IsGroupoid -->
<g id="node22" class="node"><title>Core_IsGroupoid</title>
<a xlink:href="Core.html#IsGroupoid" xlink:title="IsGroupoid">
<ellipse fill="#f070d1" stroke="black" cx="2628" cy="-424.584" rx="63.8479" ry="18.3848"/>
<text text-anchor="middle" x="2628" y="-420.984" font-family="Times Roman,serif" font-size="14.00">IsGroupoid</text>
</a>
</g>
<!-- Core_isgroupoid_groupoid_category&#45;&gt;Core_IsGroupoid -->
<g id="edge18" class="edge"><title>Core_isgroupoid_groupoid_category&#45;&gt;Core_IsGroupoid</title>
<path fill="none" stroke="black" d="M2924.53,-680.307C2861.41,-625.871 2717.16,-501.471 2656.11,-448.828"/>
<polygon fill="black" stroke="black" points="2658.27,-446.065 2648.41,-442.184 2653.7,-451.366 2658.27,-446.065"/>
</g>
<!-- Core_groupoid_category&#45;&gt;Core_GroupoidCategoryInternals_identity -->
<g id="edge20" class="edge"><title>Core_groupoid_category&#45;&gt;Core_GroupoidCategoryInternals_identity</title>
<path fill="none" stroke="black" d="M2959.03,-406.046C2969.3,-358.811 2996.5,-233.679 3008.8,-177.089"/>
<polygon fill="black" stroke="black" points="3012.28,-177.556 3010.99,-167.041 3005.44,-176.069 3012.28,-177.556"/>
</g>
<!-- Core_groupoid_category&#45;&gt;Core_GroupoidCategoryInternals_compose -->
<g id="edge22" class="edge"><title>Core_groupoid_category&#45;&gt;Core_GroupoidCategoryInternals_compose</title>
<path fill="none" stroke="black" d="M2950.97,-406.046C2940.7,-358.811 2913.5,-233.679 2901.2,-177.089"/>
<polygon fill="black" stroke="black" points="2904.56,-176.069 2899.01,-167.041 2897.72,-177.556 2904.56,-176.069"/>
</g>
<!-- Core_trunc_isgroupoid -->
<g id="node20" class="node"><title>Core_trunc_isgroupoid</title>
<a xlink:href="Core.html#trunc_isgroupoid" xlink:title="trunc_isgroupoid">
<ellipse fill="#f070d1" stroke="black" cx="2672" cy="-706.584" rx="92.1701" ry="18.3848"/>
<ellipse fill="none" stroke="black" cx="2672" cy="-706.584" rx="96.1502" ry="22.3848"/>
<ellipse fill="none" stroke="black" cx="2672" cy="-706.584" rx="100.13" ry="26.3848"/>
<text text-anchor="middle" x="2672" y="-702.984" font-family="Times Roman,serif" font-size="14.00">trunc_isgroupoid</text>
</a>
</g>
<!-- Core_isgroupoid -->
<g id="node21" class="node"><title>Core_isgroupoid</title>
<a xlink:href="Core.html#isgroupoid" xlink:title="isgroupoid">
<ellipse fill="#f070d1" stroke="black" cx="2485" cy="-706.584" rx="61.0757" ry="18.3848"/>
<ellipse fill="none" stroke="black" cx="2485" cy="-706.584" rx="65.0469" ry="22.3848"/>
<ellipse fill="none" stroke="black" cx="2485" cy="-706.584" rx="69.0182" ry="26.3848"/>
<text text-anchor="middle" x="2485" y="-702.984" font-family="Times Roman,serif" font-size="14.00">isgroupoid</text>
</a>
</g>
<!-- Core_isgroupoid&#45;&gt;Core_IsGroupoid -->
<g id="edge24" class="edge"><title>Core_isgroupoid&#45;&gt;Core_IsGroupoid</title>
<path fill="none" stroke="black" d="M2498.2,-680.56C2525.2,-627.308 2586.53,-506.356 2614.11,-451.971"/>
<polygon fill="black" stroke="black" points="2617.3,-453.426 2618.7,-442.924 2611.06,-450.26 2617.3,-453.426"/>
</g>
</g>
</svg>
