<?xml version="1.0" encoding="UTF-8" standalone="no"?>
<!DOCTYPE svg PUBLIC "-//W3C//DTD SVG 1.1//EN"
 "http://www.w3.org/Graphics/SVG/1.1/DTD/svg11.dtd">
<!-- Generated by graphviz version 2.39.20161220.0128 (20161220.0128)
 -->
<!-- Title: HoTT_Categories_Adjoint_Paths Pages: 1 -->
<svg width="368pt" height="188pt"
 viewBox="0.00 0.00 368.00 188.00" xmlns="http://www.w3.org/2000/svg" xmlns:xlink="http://www.w3.org/1999/xlink">
<g id="graph0" class="graph" transform="scale(1 1) rotate(0) translate(4 184)">
<title>HoTT_Categories_Adjoint_Paths</title>
<polygon fill="#ffffff" stroke="transparent" points="-4,4 -4,-184 364,-184 364,4 -4,4"/>
<g id="clust1" class="cluster">
<title>cluster_Paths</title>
<polygon fill="#ffffc3" stroke="#000000" points="8,-8.0447 8,-171.9553 352,-171.9553 352,-8.0447 8,-8.0447"/>
<text text-anchor="middle" x="31" y="-156.7553" font-family="Times,serif" font-size="14.00" fill="#000000">Paths</text>
</g>
<!-- Paths_path_adjunction -->
<g id="node1" class="node">
<title>Paths_path_adjunction</title>
<g id="a_node1"><a xlink:href="Paths.html#path_adjunction" xlink:title="path_adjunction">
<ellipse fill="#facdef" stroke="#000000" cx="268" cy="-115.0447" rx="67.6782" ry="18"/>
<ellipse fill="none" stroke="#000000" cx="268" cy="-115.0447" rx="71.6831" ry="22"/>
<ellipse fill="none" stroke="#000000" cx="268" cy="-115.0447" rx="75.6881" ry="26"/>
<text text-anchor="middle" x="268" y="-111.3447" font-family="Times,serif" font-size="14.00" fill="#000000">path_adjunction</text>
</a>
</g>
</g>
<!-- Paths_path_adjunction_ -->
<g id="node2" class="node">
<title>Paths_path_adjunction_</title>
<g id="a_node2"><a xlink:href="Paths.html#path_adjunction'" xlink:title="path_adjunction&#39;">
<ellipse fill="#facdef" stroke="#000000" cx="275" cy="-34.0447" rx="68.7879" ry="18"/>
<text text-anchor="middle" x="275" y="-30.3447" font-family="Times,serif" font-size="14.00" fill="#000000">path_adjunction&#39;</text>
</a>
</g>
</g>
<!-- Paths_path_adjunction&#45;&gt;Paths_path_adjunction_ -->
<g id="edge1" class="edge">
<title>Paths_path_adjunction&#45;&gt;Paths_path_adjunction_</title>
<path fill="none" stroke="#000000" d="M270.2534,-88.9699C270.9921,-80.4213 271.8162,-70.8864 272.5676,-62.1915"/>
<polygon fill="#000000" stroke="#000000" points="276.0634,-62.3892 273.4375,-52.125 269.0894,-61.7865 276.0634,-62.3892"/>
</g>
<!-- Paths_trunc_adjunction -->
<g id="node3" class="node">
<title>Paths_trunc_adjunction</title>
<g id="a_node3"><a xlink:href="Paths.html#trunc_adjunction" xlink:title="trunc_adjunction">
<ellipse fill="#facdef" stroke="#000000" cx="96" cy="-115.0447" rx="70.3682" ry="18"/>
<ellipse fill="none" stroke="#000000" cx="96" cy="-115.0447" rx="74.3781" ry="22"/>
<ellipse fill="none" stroke="#000000" cx="96" cy="-115.0447" rx="78.388" ry="26"/>
<text text-anchor="middle" x="96" y="-111.3447" font-family="Times,serif" font-size="14.00" fill="#000000">trunc_adjunction</text>
</a>
</g>
</g>
<!-- Paths_equiv_sig_adjunction -->
<g id="node4" class="node">
<title>Paths_equiv_sig_adjunction</title>
<g id="a_node4"><a xlink:href="Paths.html#equiv_sig_adjunction" xlink:title="equiv_sig_adjunction">
<ellipse fill="#f070d1" stroke="#000000" cx="102" cy="-34.0447" rx="86.3847" ry="18"/>
<text text-anchor="middle" x="102" y="-30.3447" font-family="Times,serif" font-size="14.00" fill="#000000">equiv_sig_adjunction</text>
</a>
</g>
</g>
<!-- Paths_trunc_adjunction&#45;&gt;Paths_equiv_sig_adjunction -->
<g id="edge2" class="edge">
<title>Paths_trunc_adjunction&#45;&gt;Paths_equiv_sig_adjunction</title>
<path fill="none" stroke="#000000" d="M97.9315,-88.9699C98.5647,-80.4213 99.271,-70.8864 99.9151,-62.1915"/>
<polygon fill="#000000" stroke="#000000" points="103.4123,-62.3563 100.6607,-52.125 96.4315,-61.8391 103.4123,-62.3563"/>
</g>
</g>
</svg>
