<?xml version="1.0" encoding="UTF-8" standalone="no"?>
<!DOCTYPE svg PUBLIC "-//W3C//DTD SVG 1.1//EN"
 "http://www.w3.org/Graphics/SVG/1.1/DTD/svg11.dtd">
<!-- Generated by graphviz version 2.26.3 (20100126.1600)
 -->
<!-- Title: HoTT_hit_Spheres Pages: 1 -->
<svg width="832pt" height="420pt"
 viewBox="0.00 0.00 832.00 420.00" xmlns="http://www.w3.org/2000/svg" xmlns:xlink="http://www.w3.org/1999/xlink">
<g id="graph1" class="graph" transform="scale(1 1) rotate(0) translate(4 416)">
<title>HoTT_hit_Spheres</title>
<polygon fill="white" stroke="white" points="-4,5 -4,-416 829,-416 829,5 -4,5"/>
<g id="graph2" class="cluster"><title>cluster_Spheres</title>
<polygon fill="#ffffc3" stroke="black" points="8,-9.00546 8,-402.995 816,-402.995 816,-9.00546 8,-9.00546"/>
<text text-anchor="middle" x="44" y="-386.395" font-family="Times Roman,serif" font-size="14.00">Spheres</text>
</g>
<!-- Spheres_trunc_allnullhomot -->
<g id="node1" class="node"><title>Spheres_trunc_allnullhomot</title>
<a xlink:href="Spheres.html#trunc_allnullhomot" xlink:title="trunc_allnullhomot">
<ellipse fill="#f070d1" stroke="black" cx="697" cy="-233.005" rx="103.238" ry="18.3848"/>
<ellipse fill="none" stroke="black" cx="697" cy="-233.005" rx="107.238" ry="22.3848"/>
<ellipse fill="none" stroke="black" cx="697" cy="-233.005" rx="111.238" ry="26.3848"/>
<text text-anchor="middle" x="697" y="-229.405" font-family="Times Roman,serif" font-size="14.00">trunc_allnullhomot</text>
</a>
</g>
<!-- Spheres_Sph0_to_Bool -->
<g id="node7" class="node"><title>Spheres_Sph0_to_Bool</title>
<a xlink:href="Spheres.html#Sph0_to_Bool" xlink:title="Sph0_to_Bool">
<ellipse fill="#f070d1" stroke="black" cx="450" cy="-132.005" rx="77.9889" ry="18.3848"/>
<text text-anchor="middle" x="450" y="-128.405" font-family="Times Roman,serif" font-size="14.00">Sph0_to_Bool</text>
</a>
</g>
<!-- Spheres_trunc_allnullhomot&#45;&gt;Spheres_Sph0_to_Bool -->
<g id="edge2" class="edge"><title>Spheres_trunc_allnullhomot&#45;&gt;Spheres_Sph0_to_Bool</title>
<path fill="none" stroke="black" d="M640.952,-210.087C598.126,-192.575 539.691,-168.681 498.782,-151.953"/>
<polygon fill="black" stroke="black" points="499.879,-148.62 489.298,-148.075 497.229,-155.099 499.879,-148.62"/>
</g>
<!-- Spheres_allnullhomot_trunc -->
<g id="node2" class="node"><title>Spheres_allnullhomot_trunc</title>
<a xlink:href="Spheres.html#allnullhomot_trunc" xlink:title="allnullhomot_trunc">
<ellipse fill="#f070d1" stroke="black" cx="657" cy="-132.005" rx="103.238" ry="18.3848"/>
<ellipse fill="none" stroke="black" cx="657" cy="-132.005" rx="107.238" ry="22.3848"/>
<ellipse fill="none" stroke="black" cx="657" cy="-132.005" rx="111.238" ry="26.3848"/>
<text text-anchor="middle" x="657" y="-128.405" font-family="Times Roman,serif" font-size="14.00">allnullhomot_trunc</text>
</a>
</g>
<!-- Spheres_Sphere -->
<g id="node8" class="node"><title>Spheres_Sphere</title>
<a xlink:href="Spheres.html#Sphere" xlink:title="Sphere">
<ellipse fill="#f070d1" stroke="black" cx="553" cy="-39.0055" rx="45.9619" ry="18.3848"/>
<text text-anchor="middle" x="553" y="-35.4055" font-family="Times Roman,serif" font-size="14.00">Sphere</text>
</a>
</g>
<!-- Spheres_allnullhomot_trunc&#45;&gt;Spheres_Sphere -->
<g id="edge4" class="edge"><title>Spheres_allnullhomot_trunc&#45;&gt;Spheres_Sphere</title>
<path fill="none" stroke="black" d="M628.306,-106.347C613.189,-92.8282 594.758,-76.3467 579.914,-63.0726"/>
<polygon fill="black" stroke="black" points="581.867,-60.1242 572.08,-56.0673 577.201,-65.3422 581.867,-60.1242"/>
</g>
<!-- Spheres_isequiv_Sph1_to_S1 -->
<g id="node3" class="node"><title>Spheres_isequiv_Sph1_to_S1</title>
<a xlink:href="Spheres.html#isequiv_Sph1_to_S1" xlink:title="isequiv_Sph1_to_S1">
<ellipse fill="#f070d1" stroke="black" cx="244" cy="-334.005" rx="109.135" ry="18.3848"/>
<ellipse fill="none" stroke="black" cx="244" cy="-334.005" rx="113.118" ry="22.3848"/>
<ellipse fill="none" stroke="black" cx="244" cy="-334.005" rx="117.101" ry="26.3848"/>
<text text-anchor="middle" x="244" y="-330.405" font-family="Times Roman,serif" font-size="14.00">isequiv_Sph1_to_S1</text>
</a>
</g>
<!-- Spheres_S1_to_Sph1 -->
<g id="node4" class="node"><title>Spheres_S1_to_Sph1</title>
<a xlink:href="Spheres.html#S1_to_Sph1" xlink:title="S1_to_Sph1">
<ellipse fill="#f070d1" stroke="black" cx="86" cy="-233.005" rx="70.0036" ry="18.3848"/>
<text text-anchor="middle" x="86" y="-229.405" font-family="Times Roman,serif" font-size="14.00">S1_to_Sph1</text>
</a>
</g>
<!-- Spheres_isequiv_Sph1_to_S1&#45;&gt;Spheres_S1_to_Sph1 -->
<g id="edge6" class="edge"><title>Spheres_isequiv_Sph1_to_S1&#45;&gt;Spheres_S1_to_Sph1</title>
<path fill="none" stroke="black" d="M204.537,-308.779C179.139,-292.544 146.394,-271.612 121.758,-255.863"/>
<polygon fill="black" stroke="black" points="123.388,-252.751 113.077,-250.314 119.617,-258.649 123.388,-252.751"/>
</g>
<!-- Spheres_Sph1_to_S1 -->
<g id="node5" class="node"><title>Spheres_Sph1_to_S1</title>
<a xlink:href="Spheres.html#Sph1_to_S1" xlink:title="Sph1_to_S1">
<ellipse fill="#f070d1" stroke="black" cx="244" cy="-233.005" rx="70.0036" ry="18.3848"/>
<text text-anchor="middle" x="244" y="-229.405" font-family="Times Roman,serif" font-size="14.00">Sph1_to_S1</text>
</a>
</g>
<!-- Spheres_isequiv_Sph1_to_S1&#45;&gt;Spheres_Sph1_to_S1 -->
<g id="edge8" class="edge"><title>Spheres_isequiv_Sph1_to_S1&#45;&gt;Spheres_Sph1_to_S1</title>
<path fill="none" stroke="black" d="M244,-307.469C244,-293.497 244,-276.338 244,-262.015"/>
<polygon fill="black" stroke="black" points="247.5,-261.714 244,-251.714 240.5,-261.714 247.5,-261.714"/>
</g>
<!-- Spheres_isequiv_Sph0_to_Bool -->
<g id="node6" class="node"><title>Spheres_isequiv_Sph0_to_Bool</title>
<a xlink:href="Spheres.html#isequiv_Sph0_to_Bool" xlink:title="isequiv_Sph0_to_Bool">
<ellipse fill="#f070d1" stroke="black" cx="450" cy="-233.005" rx="118.087" ry="18.3848"/>
<text text-anchor="middle" x="450" y="-229.405" font-family="Times Roman,serif" font-size="14.00">isequiv_Sph0_to_Bool</text>
</a>
</g>
<!-- Spheres_isequiv_Sph1_to_S1&#45;&gt;Spheres_isequiv_Sph0_to_Bool -->
<g id="edge10" class="edge"><title>Spheres_isequiv_Sph1_to_S1&#45;&gt;Spheres_isequiv_Sph0_to_Bool</title>
<path fill="none" stroke="black" d="M293.08,-309.942C327.019,-293.302 371.835,-271.329 404.881,-255.127"/>
<polygon fill="black" stroke="black" points="406.433,-258.264 413.871,-250.719 403.351,-251.979 406.433,-258.264"/>
</g>
<!-- Spheres_Sph1_to_S1&#45;&gt;Spheres_Sph0_to_Bool -->
<g id="edge12" class="edge"><title>Spheres_Sph1_to_S1&#45;&gt;Spheres_Sph0_to_Bool</title>
<path fill="none" stroke="black" d="M277.556,-216.553C312.66,-199.342 367.908,-172.254 406.376,-153.394"/>
<polygon fill="black" stroke="black" points="408.334,-156.332 415.772,-148.787 405.252,-150.047 408.334,-156.332"/>
</g>
<!-- Spheres_isequiv_Sph0_to_Bool&#45;&gt;Spheres_Sph0_to_Bool -->
<g id="edge14" class="edge"><title>Spheres_isequiv_Sph0_to_Bool&#45;&gt;Spheres_Sph0_to_Bool</title>
<path fill="none" stroke="black" d="M450,-214.481C450,-199.483 450,-178.095 450,-160.857"/>
<polygon fill="black" stroke="black" points="453.5,-160.755 450,-150.755 446.5,-160.755 453.5,-160.755"/>
</g>
<!-- Spheres_Sph0_to_Bool&#45;&gt;Spheres_Sphere -->
<g id="edge16" class="edge"><title>Spheres_Sph0_to_Bool&#45;&gt;Spheres_Sphere</title>
<path fill="none" stroke="black" d="M469.859,-114.074C485.98,-99.5185 508.854,-78.8653 526.53,-62.9054"/>
<polygon fill="black" stroke="black" points="529.166,-65.2408 534.243,-55.9415 524.475,-60.0453 529.166,-65.2408"/>
</g>
</g>
</svg>
