<?xml version="1.0" encoding="UTF-8" standalone="no"?>
<!DOCTYPE svg PUBLIC "-//W3C//DTD SVG 1.1//EN"
 "http://www.w3.org/Graphics/SVG/1.1/DTD/svg11.dtd">
<!-- Generated by graphviz version 2.39.20141222.0545 (20141222.0545)
 -->
<!-- Title: HoTT_Types_Prod Pages: 1 -->
<svg width="2470pt" height="1239pt"
 viewBox="0.00 0.00 2470.00 1239.00" xmlns="http://www.w3.org/2000/svg" xmlns:xlink="http://www.w3.org/1999/xlink">
<g id="graph0" class="graph" transform="scale(1 1) rotate(0) translate(4 1235)">
<title>HoTT_Types_Prod</title>
<polygon fill="white" stroke="transparent" points="-4,4 -4,-1235 2466,-1235 2466,4 -4,4"/>
<g id="clust1" class="cluster"><title>cluster_Prod</title>
<polygon fill="#ffffc3" stroke="black" points="8,-19.1223 8,-1211.88 2454,-1211.88 2454,-19.1223 8,-19.1223"/>
<text text-anchor="middle" x="29" y="-1196.68" font-family="Times,serif" font-size="14.00">Prod</text>
</g>
<!-- Prod_decidable_prod -->
<g id="node1" class="node"><title>Prod_decidable_prod</title>
<g id="a_node1"><a xlink:href="Prod.html#decidable_prod" xlink:title="decidable_prod">
<ellipse fill="#f070d1" stroke="black" cx="2373" cy="-1076.12" rx="64.9891" ry="18"/>
<ellipse fill="none" stroke="black" cx="2373" cy="-1076.12" rx="68.9888" ry="22"/>
<ellipse fill="none" stroke="black" cx="2373" cy="-1076.12" rx="72.9885" ry="26"/>
<text text-anchor="middle" x="2373" y="-1072.42" font-family="Times,serif" font-size="14.00">decidable_prod</text>
</a>
</g>
</g>
<!-- Prod_contr_prod -->
<g id="node2" class="node"><title>Prod_contr_prod</title>
<g id="a_node2"><a xlink:href="Prod.html#contr_prod" xlink:title="contr_prod">
<ellipse fill="#f070d1" stroke="black" cx="1884" cy="-1076.12" rx="49.3059" ry="18"/>
<ellipse fill="none" stroke="black" cx="1884" cy="-1076.12" rx="53.2987" ry="22"/>
<ellipse fill="none" stroke="black" cx="1884" cy="-1076.12" rx="57.2914" ry="26"/>
<text text-anchor="middle" x="1884" y="-1072.42" font-family="Times,serif" font-size="14.00">contr_prod</text>
</a>
</g>
</g>
<!-- Prod_trunc_prod -->
<g id="node3" class="node"><title>Prod_trunc_prod</title>
<g id="a_node3"><a xlink:href="Prod.html#trunc_prod" xlink:title="trunc_prod">
<ellipse fill="#f070d1" stroke="black" cx="1639" cy="-865.122" rx="49.2915" ry="18"/>
<text text-anchor="middle" x="1639" y="-861.422" font-family="Times,serif" font-size="14.00">trunc_prod</text>
</a>
</g>
</g>
<!-- Prod_contr_prod&#45;&gt;Prod_trunc_prod -->
<g id="edge1" class="edge"><title>Prod_contr_prod&#45;&gt;Prod_trunc_prod</title>
<path fill="none" stroke="black" d="M1856.84,-1052.74C1809.74,-1012.16 1713.39,-929.19 1666.23,-888.574"/>
<polygon fill="black" stroke="black" points="1668.42,-885.84 1658.56,-881.966 1663.85,-891.144 1668.42,-885.84"/>
</g>
<!-- Prod_isequiv_path_prod -->
<g id="node28" class="node"><title>Prod_isequiv_path_prod</title>
<g id="a_node28"><a xlink:href="Prod.html#isequiv_path_prod" xlink:title="isequiv_path_prod">
<ellipse fill="#f070d1" stroke="black" cx="1283" cy="-655.122" rx="76.0865" ry="18"/>
<text text-anchor="middle" x="1283" y="-651.422" font-family="Times,serif" font-size="14.00">isequiv_path_prod</text>
</a>
</g>
</g>
<!-- Prod_trunc_prod&#45;&gt;Prod_isequiv_path_prod -->
<g id="edge2" class="edge"><title>Prod_trunc_prod&#45;&gt;Prod_isequiv_path_prod</title>
<path fill="none" stroke="black" d="M1612.82,-849.681C1550.46,-812.892 1392.92,-719.962 1320.49,-677.235"/>
<polygon fill="black" stroke="black" points="1322.06,-674.102 1311.67,-672.036 1318.51,-680.132 1322.06,-674.102"/>
</g>
<!-- Prod_equiv_prod_coind -->
<g id="node4" class="node"><title>Prod_equiv_prod_coind</title>
<g id="a_node4"><a xlink:href="Prod.html#equiv_prod_coind" xlink:title="equiv_prod_coind">
<ellipse fill="#f070d1" stroke="black" cx="2199" cy="-1076.12" rx="74.9639" ry="18"/>
<ellipse fill="none" stroke="black" cx="2199" cy="-1076.12" rx="78.9757" ry="22"/>
<ellipse fill="none" stroke="black" cx="2199" cy="-1076.12" rx="82.9875" ry="26"/>
<text text-anchor="middle" x="2199" y="-1072.42" font-family="Times,serif" font-size="14.00">equiv_prod_coind</text>
</a>
</g>
</g>
<!-- Prod_isequiv_prod_coind -->
<g id="node5" class="node"><title>Prod_isequiv_prod_coind</title>
<g id="a_node5"><a xlink:href="Prod.html#isequiv_prod_coind" xlink:title="isequiv_prod_coind">
<ellipse fill="#f070d1" stroke="black" cx="2199" cy="-865.122" rx="80.6858" ry="18"/>
<text text-anchor="middle" x="2199" y="-861.422" font-family="Times,serif" font-size="14.00">isequiv_prod_coind</text>
</a>
</g>
</g>
<!-- Prod_equiv_prod_coind&#45;&gt;Prod_isequiv_prod_coind -->
<g id="edge3" class="edge"><title>Prod_equiv_prod_coind&#45;&gt;Prod_isequiv_prod_coind</title>
<path fill="none" stroke="black" d="M2199,-1049.83C2199,-1009.97 2199,-934.579 2199,-893.517"/>
<polygon fill="black" stroke="black" points="2202.5,-893.381 2199,-883.381 2195.5,-893.381 2202.5,-893.381"/>
</g>
<!-- Prod_prod_coind_uncurried -->
<g id="node7" class="node"><title>Prod_prod_coind_uncurried</title>
<g id="a_node7"><a xlink:href="Prod.html#prod_coind_uncurried" xlink:title="prod_coind_uncurried">
<ellipse fill="#f070d1" stroke="black" cx="2301" cy="-655.122" rx="89.0842" ry="18"/>
<text text-anchor="middle" x="2301" y="-651.422" font-family="Times,serif" font-size="14.00">prod_coind_uncurried</text>
</a>
</g>
</g>
<!-- Prod_isequiv_prod_coind&#45;&gt;Prod_prod_coind_uncurried -->
<g id="edge4" class="edge"><title>Prod_isequiv_prod_coind&#45;&gt;Prod_prod_coind_uncurried</title>
<path fill="none" stroke="black" d="M2207.7,-847.218C2225.57,-810.425 2266.52,-726.113 2287.73,-682.451"/>
<polygon fill="black" stroke="black" points="2290.96,-683.804 2292.18,-673.28 2284.66,-680.746 2290.96,-683.804"/>
</g>
<!-- Prod_prod_coind -->
<g id="node6" class="node"><title>Prod_prod_coind</title>
<g id="a_node6"><a xlink:href="Prod.html#prod_coind" xlink:title="prod_coind">
<ellipse fill="#f070d1" stroke="black" cx="2356" cy="-865.122" rx="50.8649" ry="18"/>
<ellipse fill="none" stroke="black" cx="2356" cy="-865.122" rx="54.8783" ry="22"/>
<ellipse fill="none" stroke="black" cx="2356" cy="-865.122" rx="58.8917" ry="26"/>
<text text-anchor="middle" x="2356" y="-861.422" font-family="Times,serif" font-size="14.00">prod_coind</text>
</a>
</g>
</g>
<!-- Prod_prod_coind&#45;&gt;Prod_prod_coind_uncurried -->
<g id="edge5" class="edge"><title>Prod_prod_coind&#45;&gt;Prod_prod_coind_uncurried</title>
<path fill="none" stroke="black" d="M2349.15,-838.95C2338.73,-799.2 2319.02,-723.931 2308.33,-683.122"/>
<polygon fill="black" stroke="black" points="2311.68,-682.082 2305.76,-673.295 2304.91,-683.855 2311.68,-682.082"/>
</g>
<!-- Prod_equiv_uncurry -->
<g id="node8" class="node"><title>Prod_equiv_uncurry</title>
<g id="a_node8"><a xlink:href="Prod.html#equiv_uncurry" xlink:title="equiv_uncurry">
<ellipse fill="#f070d1" stroke="black" cx="2029" cy="-1076.12" rx="61.9618" ry="18"/>
<ellipse fill="none" stroke="black" cx="2029" cy="-1076.12" rx="65.9758" ry="22"/>
<ellipse fill="none" stroke="black" cx="2029" cy="-1076.12" rx="69.9899" ry="26"/>
<text text-anchor="middle" x="2029" y="-1072.42" font-family="Times,serif" font-size="14.00">equiv_uncurry</text>
</a>
</g>
</g>
<!-- Prod_equiv_prod_ind -->
<g id="node9" class="node"><title>Prod_equiv_prod_ind</title>
<g id="a_node9"><a xlink:href="Prod.html#equiv_prod_ind" xlink:title="equiv_prod_ind">
<ellipse fill="#f070d1" stroke="black" cx="2031" cy="-865.122" rx="66.0889" ry="18"/>
<text text-anchor="middle" x="2031" y="-861.422" font-family="Times,serif" font-size="14.00">equiv_prod_ind</text>
</a>
</g>
</g>
<!-- Prod_equiv_uncurry&#45;&gt;Prod_equiv_prod_ind -->
<g id="edge6" class="edge"><title>Prod_equiv_uncurry&#45;&gt;Prod_equiv_prod_ind</title>
<path fill="none" stroke="black" d="M2029.25,-1049.83C2029.63,-1009.97 2030.34,-934.579 2030.73,-893.517"/>
<polygon fill="black" stroke="black" points="2034.23,-893.414 2030.83,-883.381 2027.23,-893.348 2034.23,-893.414"/>
</g>
<!-- Prod_isequiv_prod_ind -->
<g id="node10" class="node"><title>Prod_isequiv_prod_ind</title>
<g id="a_node10"><a xlink:href="Prod.html#isequiv_prod_ind" xlink:title="isequiv_prod_ind">
<ellipse fill="#f070d1" stroke="black" cx="2066" cy="-655.122" rx="72.2875" ry="18"/>
<text text-anchor="middle" x="2066" y="-651.422" font-family="Times,serif" font-size="14.00">isequiv_prod_ind</text>
</a>
</g>
</g>
<!-- Prod_equiv_prod_ind&#45;&gt;Prod_isequiv_prod_ind -->
<g id="edge7" class="edge"><title>Prod_equiv_prod_ind&#45;&gt;Prod_isequiv_prod_ind</title>
<path fill="none" stroke="black" d="M2034.04,-846.854C2040.18,-810.071 2054.04,-726.875 2061.33,-683.159"/>
<polygon fill="black" stroke="black" points="2064.8,-683.639 2062.99,-673.199 2057.89,-682.488 2064.8,-683.639"/>
</g>
<!-- Prod_prod_ind -->
<g id="node42" class="node"><title>Prod_prod_ind</title>
<g id="a_node42"><a xlink:href="Prod.html#prod_ind" xlink:title="prod_ind">
<ellipse fill="#f070d1" stroke="black" cx="2066" cy="-444.122" rx="42.4939" ry="18"/>
<text text-anchor="middle" x="2066" y="-440.422" font-family="Times,serif" font-size="14.00">prod_ind</text>
</a>
</g>
</g>
<!-- Prod_isequiv_prod_ind&#45;&gt;Prod_prod_ind -->
<g id="edge8" class="edge"><title>Prod_isequiv_prod_ind&#45;&gt;Prod_prod_ind</title>
<path fill="none" stroke="black" d="M2066,-636.767C2066,-599.809 2066,-516.216 2066,-472.293"/>
<polygon fill="black" stroke="black" points="2069.5,-472.285 2066,-462.285 2062.5,-472.285 2069.5,-472.285"/>
</g>
<!-- Prod_prod_unit_l -->
<g id="node11" class="node"><title>Prod_prod_unit_l</title>
<g id="a_node11"><a xlink:href="Prod.html#prod_unit_l" xlink:title="prod_unit_l">
<ellipse fill="#f070d1" stroke="black" cx="1749" cy="-1076.12" rx="51.9914" ry="18"/>
<ellipse fill="none" stroke="black" cx="1749" cy="-1076.12" rx="55.9911" ry="22"/>
<ellipse fill="none" stroke="black" cx="1749" cy="-1076.12" rx="59.9908" ry="26"/>
<text text-anchor="middle" x="1749" y="-1072.42" font-family="Times,serif" font-size="14.00">prod_unit_l</text>
</a>
</g>
</g>
<!-- Prod_prod_unit_r -->
<g id="node12" class="node"><title>Prod_prod_unit_r</title>
<g id="a_node12"><a xlink:href="Prod.html#prod_unit_r" xlink:title="prod_unit_r">
<ellipse fill="#f070d1" stroke="black" cx="1611" cy="-1076.12" rx="51.9914" ry="18"/>
<ellipse fill="none" stroke="black" cx="1611" cy="-1076.12" rx="55.9911" ry="22"/>
<ellipse fill="none" stroke="black" cx="1611" cy="-1076.12" rx="59.9908" ry="26"/>
<text text-anchor="middle" x="1611" y="-1072.42" font-family="Times,serif" font-size="14.00">prod_unit_r</text>
</a>
</g>
</g>
<!-- Prod_prod_empty_l -->
<g id="node13" class="node"><title>Prod_prod_empty_l</title>
<g id="a_node13"><a xlink:href="Prod.html#prod_empty_l" xlink:title="prod_empty_l">
<ellipse fill="#f070d1" stroke="black" cx="1465" cy="-1076.12" rx="60.3958" ry="18"/>
<ellipse fill="none" stroke="black" cx="1465" cy="-1076.12" rx="64.3926" ry="22"/>
<ellipse fill="none" stroke="black" cx="1465" cy="-1076.12" rx="68.3893" ry="26"/>
<text text-anchor="middle" x="1465" y="-1072.42" font-family="Times,serif" font-size="14.00">prod_empty_l</text>
</a>
</g>
</g>
<!-- Prod_prod_empty_r -->
<g id="node14" class="node"><title>Prod_prod_empty_r</title>
<g id="a_node14"><a xlink:href="Prod.html#prod_empty_r" xlink:title="prod_empty_r">
<ellipse fill="#f070d1" stroke="black" cx="1309" cy="-1076.12" rx="61.1783" ry="18"/>
<ellipse fill="none" stroke="black" cx="1309" cy="-1076.12" rx="65.1838" ry="22"/>
<ellipse fill="none" stroke="black" cx="1309" cy="-1076.12" rx="69.1893" ry="26"/>
<text text-anchor="middle" x="1309" y="-1072.42" font-family="Times,serif" font-size="14.00">prod_empty_r</text>
</a>
</g>
</g>
<!-- Prod_equiv_prod_assoc -->
<g id="node15" class="node"><title>Prod_equiv_prod_assoc</title>
<g id="a_node15"><a xlink:href="Prod.html#equiv_prod_assoc" xlink:title="equiv_prod_assoc">
<ellipse fill="#f070d1" stroke="black" cx="1140" cy="-1076.12" rx="74.1778" ry="18"/>
<ellipse fill="none" stroke="black" cx="1140" cy="-1076.12" rx="78.1824" ry="22"/>
<ellipse fill="none" stroke="black" cx="1140" cy="-1076.12" rx="82.187" ry="26"/>
<text text-anchor="middle" x="1140" y="-1072.42" font-family="Times,serif" font-size="14.00">equiv_prod_assoc</text>
</a>
</g>
</g>
<!-- Prod_equiv_prod_symm -->
<g id="node16" class="node"><title>Prod_equiv_prod_symm</title>
<g id="a_node16"><a xlink:href="Prod.html#equiv_prod_symm" xlink:title="equiv_prod_symm">
<ellipse fill="#f070d1" stroke="black" cx="955" cy="-1076.12" rx="77.2012" ry="18"/>
<ellipse fill="none" stroke="black" cx="955" cy="-1076.12" rx="81.1939" ry="22"/>
<ellipse fill="none" stroke="black" cx="955" cy="-1076.12" rx="85.1866" ry="26"/>
<text text-anchor="middle" x="955" y="-1072.42" font-family="Times,serif" font-size="14.00">equiv_prod_symm</text>
</a>
</g>
</g>
<!-- Prod_equiv_functor_prod_r -->
<g id="node17" class="node"><title>Prod_equiv_functor_prod_r</title>
<g id="a_node17"><a xlink:href="Prod.html#equiv_functor_prod_r" xlink:title="equiv_functor_prod_r">
<ellipse fill="#f070d1" stroke="black" cx="548" cy="-1076.12" rx="87.9648" ry="18"/>
<ellipse fill="none" stroke="black" cx="548" cy="-1076.12" rx="91.9749" ry="22"/>
<ellipse fill="none" stroke="black" cx="548" cy="-1076.12" rx="95.985" ry="26"/>
<text text-anchor="middle" x="548" y="-1072.42" font-family="Times,serif" font-size="14.00">equiv_functor_prod_r</text>
</a>
</g>
</g>
<!-- Prod_equiv_functor_prod_ -->
<g id="node19" class="node"><title>Prod_equiv_functor_prod_</title>
<g id="a_node19"><a xlink:href="Prod.html#equiv_functor_prod'" xlink:title="equiv_functor_prod&#39;">
<ellipse fill="#f070d1" stroke="black" cx="687" cy="-865.122" rx="81.7856" ry="18"/>
<text text-anchor="middle" x="687" y="-861.422" font-family="Times,serif" font-size="14.00">equiv_functor_prod&#39;</text>
</a>
</g>
</g>
<!-- Prod_equiv_functor_prod_r&#45;&gt;Prod_equiv_functor_prod_ -->
<g id="edge9" class="edge"><title>Prod_equiv_functor_prod_r&#45;&gt;Prod_equiv_functor_prod_</title>
<path fill="none" stroke="black" d="M565.044,-1050.25C591.599,-1009.94 642.578,-932.554 669.443,-891.773"/>
<polygon fill="black" stroke="black" points="672.525,-893.457 675.104,-883.18 666.68,-889.606 672.525,-893.457"/>
</g>
<!-- Prod_equiv_functor_prod_l -->
<g id="node18" class="node"><title>Prod_equiv_functor_prod_l</title>
<g id="a_node18"><a xlink:href="Prod.html#equiv_functor_prod_l" xlink:title="equiv_functor_prod_l">
<ellipse fill="#f070d1" stroke="black" cx="757" cy="-1076.12" rx="87.1769" ry="18"/>
<ellipse fill="none" stroke="black" cx="757" cy="-1076.12" rx="91.1807" ry="22"/>
<ellipse fill="none" stroke="black" cx="757" cy="-1076.12" rx="95.1846" ry="26"/>
<text text-anchor="middle" x="757" y="-1072.42" font-family="Times,serif" font-size="14.00">equiv_functor_prod_l</text>
</a>
</g>
</g>
<!-- Prod_equiv_functor_prod_l&#45;&gt;Prod_equiv_functor_prod_ -->
<g id="edge10" class="edge"><title>Prod_equiv_functor_prod_l&#45;&gt;Prod_equiv_functor_prod_</title>
<path fill="none" stroke="black" d="M748.276,-1049.83C734.964,-1009.7 709.701,-933.551 696.143,-892.683"/>
<polygon fill="black" stroke="black" points="699.434,-891.486 692.963,-883.096 692.79,-893.69 699.434,-891.486"/>
</g>
<!-- Prod_isequiv_functor_prod -->
<g id="node21" class="node"><title>Prod_isequiv_functor_prod</title>
<g id="a_node21"><a xlink:href="Prod.html#isequiv_functor_prod" xlink:title="isequiv_functor_prod">
<ellipse fill="#f070d1" stroke="black" cx="840" cy="-655.122" rx="86.3847" ry="18"/>
<text text-anchor="middle" x="840" y="-651.422" font-family="Times,serif" font-size="14.00">isequiv_functor_prod</text>
</a>
</g>
</g>
<!-- Prod_equiv_functor_prod_&#45;&gt;Prod_isequiv_functor_prod -->
<g id="edge11" class="edge"><title>Prod_equiv_functor_prod_&#45;&gt;Prod_isequiv_functor_prod</title>
<path fill="none" stroke="black" d="M700.045,-847.218C727.088,-810.1 789.365,-724.622 820.924,-681.304"/>
<polygon fill="black" stroke="black" points="823.929,-683.125 826.988,-672.981 818.271,-679.003 823.929,-683.125"/>
</g>
<!-- Prod_equiv_functor_prod -->
<g id="node20" class="node"><title>Prod_equiv_functor_prod</title>
<g id="a_node20"><a xlink:href="Prod.html#equiv_functor_prod" xlink:title="equiv_functor_prod">
<ellipse fill="#f070d1" stroke="black" cx="875" cy="-865.122" rx="80.6774" ry="18"/>
<ellipse fill="none" stroke="black" cx="875" cy="-865.122" rx="84.6816" ry="22"/>
<ellipse fill="none" stroke="black" cx="875" cy="-865.122" rx="88.6858" ry="26"/>
<text text-anchor="middle" x="875" y="-861.422" font-family="Times,serif" font-size="14.00">equiv_functor_prod</text>
</a>
</g>
</g>
<!-- Prod_equiv_functor_prod&#45;&gt;Prod_isequiv_functor_prod -->
<g id="edge12" class="edge"><title>Prod_equiv_functor_prod&#45;&gt;Prod_isequiv_functor_prod</title>
<path fill="none" stroke="black" d="M870.638,-838.95C864.027,-799.285 851.521,-724.25 844.71,-683.383"/>
<polygon fill="black" stroke="black" points="848.125,-682.583 843.029,-673.295 841.22,-683.734 848.125,-682.583"/>
</g>
<!-- Prod_ap_functor_prod -->
<g id="node22" class="node"><title>Prod_ap_functor_prod</title>
<g id="a_node22"><a xlink:href="Prod.html#ap_functor_prod" xlink:title="ap_functor_prod">
<ellipse fill="#f070d1" stroke="black" cx="840" cy="-444.122" rx="69.5877" ry="18"/>
<text text-anchor="middle" x="840" y="-440.422" font-family="Times,serif" font-size="14.00">ap_functor_prod</text>
</a>
</g>
</g>
<!-- Prod_isequiv_functor_prod&#45;&gt;Prod_ap_functor_prod -->
<g id="edge13" class="edge"><title>Prod_isequiv_functor_prod&#45;&gt;Prod_ap_functor_prod</title>
<path fill="none" stroke="black" d="M840,-636.767C840,-599.809 840,-516.216 840,-472.293"/>
<polygon fill="black" stroke="black" points="843.5,-472.285 840,-462.285 836.5,-472.285 843.5,-472.285"/>
</g>
<!-- Prod_path_prod_ -->
<g id="node36" class="node"><title>Prod_path_prod_</title>
<g id="a_node36"><a xlink:href="Prod.html#path_prod'" xlink:title="path_prod&#39;">
<ellipse fill="#f070d1" stroke="black" cx="976" cy="-444.122" rx="48.1917" ry="18"/>
<text text-anchor="middle" x="976" y="-440.422" font-family="Times,serif" font-size="14.00">path_prod&#39;</text>
</a>
</g>
</g>
<!-- Prod_isequiv_functor_prod&#45;&gt;Prod_path_prod_ -->
<g id="edge14" class="edge"><title>Prod_isequiv_functor_prod&#45;&gt;Prod_path_prod_</title>
<path fill="none" stroke="black" d="M851.595,-637.133C875.643,-599.823 931.036,-513.883 959.078,-470.376"/>
<polygon fill="black" stroke="black" points="962.15,-472.07 964.626,-461.769 956.266,-468.278 962.15,-472.07"/>
</g>
<!-- Prod_eta_prod -->
<g id="node39" class="node"><title>Prod_eta_prod</title>
<g id="a_node39"><a xlink:href="Prod.html#eta_prod" xlink:title="eta_prod">
<ellipse fill="#f070d1" stroke="black" cx="711" cy="-444.122" rx="41.6928" ry="18"/>
<text text-anchor="middle" x="711" y="-440.422" font-family="Times,serif" font-size="14.00">eta_prod</text>
</a>
</g>
</g>
<!-- Prod_isequiv_functor_prod&#45;&gt;Prod_eta_prod -->
<g id="edge15" class="edge"><title>Prod_isequiv_functor_prod&#45;&gt;Prod_eta_prod</title>
<path fill="none" stroke="black" d="M829.002,-637.133C806.191,-599.823 753.65,-513.883 727.051,-470.376"/>
<polygon fill="black" stroke="black" points="729.991,-468.475 721.789,-461.769 724.019,-472.126 729.991,-468.475"/>
</g>
<!-- Prod_functor_prod -->
<g id="node23" class="node"><title>Prod_functor_prod</title>
<g id="a_node23"><a xlink:href="Prod.html#functor_prod" xlink:title="functor_prod">
<ellipse fill="#f070d1" stroke="black" cx="840" cy="-253.122" rx="56.59" ry="18"/>
<text text-anchor="middle" x="840" y="-249.422" font-family="Times,serif" font-size="14.00">functor_prod</text>
</a>
</g>
</g>
<!-- Prod_ap_functor_prod&#45;&gt;Prod_functor_prod -->
<g id="edge16" class="edge"><title>Prod_ap_functor_prod&#45;&gt;Prod_functor_prod</title>
<path fill="none" stroke="black" d="M840,-425.808C840,-392.367 840,-321.208 840,-281.466"/>
<polygon fill="black" stroke="black" points="843.5,-281.381 840,-271.381 836.5,-281.381 843.5,-281.381"/>
</g>
<!-- Prod_path_prod -->
<g id="node37" class="node"><title>Prod_path_prod</title>
<g id="a_node37"><a xlink:href="Prod.html#path_prod" xlink:title="path_prod">
<ellipse fill="#f070d1" stroke="black" cx="1361" cy="-253.122" rx="46.2923" ry="18"/>
<text text-anchor="middle" x="1361" y="-249.422" font-family="Times,serif" font-size="14.00">path_prod</text>
</a>
</g>
</g>
<!-- Prod_ap_functor_prod&#45;&gt;Prod_path_prod -->
<g id="edge17" class="edge"><title>Prod_ap_functor_prod&#45;&gt;Prod_path_prod</title>
<path fill="none" stroke="black" d="M880.448,-429.294C976.702,-394.007 1218.71,-305.288 1317.74,-268.983"/>
<polygon fill="black" stroke="black" points="1318.96,-272.263 1327.14,-265.535 1316.55,-265.691 1318.96,-272.263"/>
</g>
<!-- Prod_transport_prod -->
<g id="node24" class="node"><title>Prod_transport_prod</title>
<g id="a_node24"><a xlink:href="Prod.html#transport_prod" xlink:title="transport_prod">
<ellipse fill="#f070d1" stroke="black" cx="364" cy="-1076.12" rx="62.3011" ry="18"/>
<ellipse fill="none" stroke="black" cx="364" cy="-1076.12" rx="66.2951" ry="22"/>
<ellipse fill="none" stroke="black" cx="364" cy="-1076.12" rx="70.2891" ry="26"/>
<text text-anchor="middle" x="364" y="-1072.42" font-family="Times,serif" font-size="14.00">transport_prod</text>
</a>
</g>
</g>
<!-- Prod_path_prod_pp_p -->
<g id="node25" class="node"><title>Prod_path_prod_pp_p</title>
<g id="a_node25"><a xlink:href="Prod.html#path_prod_pp_p" xlink:title="path_prod_pp_p">
<ellipse fill="#f070d1" stroke="black" cx="1700" cy="-655.122" rx="68.463" ry="18"/>
<ellipse fill="none" stroke="black" cx="1700" cy="-655.122" rx="72.4758" ry="22"/>
<ellipse fill="none" stroke="black" cx="1700" cy="-655.122" rx="76.4887" ry="26"/>
<text text-anchor="middle" x="1700" y="-651.422" font-family="Times,serif" font-size="14.00">path_prod_pp_p</text>
</a>
</g>
</g>
<!-- Prod_path_prod_pp -->
<g id="node26" class="node"><title>Prod_path_prod_pp</title>
<g id="a_node26"><a xlink:href="Prod.html#path_prod_pp" xlink:title="path_prod_pp">
<ellipse fill="#f070d1" stroke="black" cx="1725" cy="-444.122" rx="59.5901" ry="18"/>
<text text-anchor="middle" x="1725" y="-440.422" font-family="Times,serif" font-size="14.00">path_prod_pp</text>
</a>
</g>
</g>
<!-- Prod_path_prod_pp_p&#45;&gt;Prod_path_prod_pp -->
<g id="edge18" class="edge"><title>Prod_path_prod_pp_p&#45;&gt;Prod_path_prod_pp</title>
<path fill="none" stroke="black" d="M1703.12,-628.826C1707.84,-588.971 1716.77,-513.579 1721.64,-472.517"/>
<polygon fill="black" stroke="black" points="1725.14,-472.724 1722.84,-462.381 1718.18,-471.9 1725.14,-472.724"/>
</g>
<!-- Prod_path_prod_pp&#45;&gt;Prod_path_prod -->
<g id="edge19" class="edge"><title>Prod_path_prod_pp&#45;&gt;Prod_path_prod</title>
<path fill="none" stroke="black" d="M1695.21,-428.492C1629.08,-393.789 1470.14,-310.39 1397.88,-272.472"/>
<polygon fill="black" stroke="black" points="1399.16,-269.196 1388.68,-267.649 1395.91,-275.394 1399.16,-269.196"/>
</g>
<!-- Prod_equiv_path_prod -->
<g id="node27" class="node"><title>Prod_equiv_path_prod</title>
<g id="a_node27"><a xlink:href="Prod.html#equiv_path_prod" xlink:title="equiv_path_prod">
<ellipse fill="#f070d1" stroke="black" cx="1283" cy="-865.122" rx="70.3682" ry="18"/>
<ellipse fill="none" stroke="black" cx="1283" cy="-865.122" rx="74.3781" ry="22"/>
<ellipse fill="none" stroke="black" cx="1283" cy="-865.122" rx="78.388" ry="26"/>
<text text-anchor="middle" x="1283" y="-861.422" font-family="Times,serif" font-size="14.00">equiv_path_prod</text>
</a>
</g>
</g>
<!-- Prod_equiv_path_prod&#45;&gt;Prod_isequiv_path_prod -->
<g id="edge20" class="edge"><title>Prod_equiv_path_prod&#45;&gt;Prod_isequiv_path_prod</title>
<path fill="none" stroke="black" d="M1283,-838.95C1283,-799.285 1283,-724.25 1283,-683.383"/>
<polygon fill="black" stroke="black" points="1286.5,-683.295 1283,-673.295 1279.5,-683.295 1286.5,-683.295"/>
</g>
<!-- Prod_eta_path_prod -->
<g id="node33" class="node"><title>Prod_eta_path_prod</title>
<g id="a_node33"><a xlink:href="Prod.html#eta_path_prod" xlink:title="eta_path_prod">
<ellipse fill="#f070d1" stroke="black" cx="1586" cy="-444.122" rx="61.1893" ry="18"/>
<text text-anchor="middle" x="1586" y="-440.422" font-family="Times,serif" font-size="14.00">eta_path_prod</text>
</a>
</g>
</g>
<!-- Prod_isequiv_path_prod&#45;&gt;Prod_eta_path_prod -->
<g id="edge21" class="edge"><title>Prod_isequiv_path_prod&#45;&gt;Prod_eta_path_prod</title>
<path fill="none" stroke="black" d="M1307.54,-638.034C1361.92,-600.162 1492.59,-509.173 1553.6,-466.688"/>
<polygon fill="black" stroke="black" points="1555.87,-469.37 1562.07,-460.783 1551.87,-463.626 1555.87,-469.37"/>
</g>
<!-- Prod_ap_snd_path_prod -->
<g id="node34" class="node"><title>Prod_ap_snd_path_prod</title>
<g id="a_node34"><a xlink:href="Prod.html#ap_snd_path_prod" xlink:title="ap_snd_path_prod">
<ellipse fill="#f070d1" stroke="black" cx="1117" cy="-444.122" rx="75.2868" ry="18"/>
<text text-anchor="middle" x="1117" y="-440.422" font-family="Times,serif" font-size="14.00">ap_snd_path_prod</text>
</a>
</g>
</g>
<!-- Prod_isequiv_path_prod&#45;&gt;Prod_ap_snd_path_prod -->
<g id="edge22" class="edge"><title>Prod_isequiv_path_prod&#45;&gt;Prod_ap_snd_path_prod</title>
<path fill="none" stroke="black" d="M1268.85,-637.133C1239.44,-599.76 1171.66,-513.594 1137.48,-470.157"/>
<polygon fill="black" stroke="black" points="1140.05,-467.762 1131.12,-462.067 1134.55,-472.09 1140.05,-467.762"/>
</g>
<!-- Prod_ap_fst_path_prod -->
<g id="node35" class="node"><title>Prod_ap_fst_path_prod</title>
<g id="a_node35"><a xlink:href="Prod.html#ap_fst_path_prod" xlink:title="ap_fst_path_prod">
<ellipse fill="#f070d1" stroke="black" cx="1283" cy="-444.122" rx="72.2875" ry="18"/>
<text text-anchor="middle" x="1283" y="-440.422" font-family="Times,serif" font-size="14.00">ap_fst_path_prod</text>
</a>
</g>
</g>
<!-- Prod_isequiv_path_prod&#45;&gt;Prod_ap_fst_path_prod -->
<g id="edge23" class="edge"><title>Prod_isequiv_path_prod&#45;&gt;Prod_ap_fst_path_prod</title>
<path fill="none" stroke="black" d="M1283,-636.767C1283,-599.809 1283,-516.216 1283,-472.293"/>
<polygon fill="black" stroke="black" points="1286.5,-472.285 1283,-462.285 1279.5,-472.285 1286.5,-472.285"/>
</g>
<!-- Prod_isequiv_path_prod&#45;&gt;Prod_path_prod_ -->
<g id="edge24" class="edge"><title>Prod_isequiv_path_prod&#45;&gt;Prod_path_prod_</title>
<path fill="none" stroke="black" d="M1258.14,-638.034C1202.76,-599.975 1069.34,-508.273 1007.92,-466.062"/>
<polygon fill="black" stroke="black" points="1009.62,-462.985 999.4,-460.205 1005.66,-468.754 1009.62,-462.985"/>
</g>
<!-- Prod_transport_path_prod_ -->
<g id="node29" class="node"><title>Prod_transport_path_prod_</title>
<g id="a_node29"><a xlink:href="Prod.html#transport_path_prod'" xlink:title="transport_path_prod&#39;">
<ellipse fill="#f070d1" stroke="black" cx="1885" cy="-655.122" rx="83.3687" ry="18"/>
<ellipse fill="none" stroke="black" cx="1885" cy="-655.122" rx="87.3772" ry="22"/>
<ellipse fill="none" stroke="black" cx="1885" cy="-655.122" rx="91.3856" ry="26"/>
<text text-anchor="middle" x="1885" y="-651.422" font-family="Times,serif" font-size="14.00">transport_path_prod&#39;</text>
</a>
</g>
</g>
<!-- Prod_transport_path_prod -->
<g id="node30" class="node"><title>Prod_transport_path_prod</title>
<g id="a_node30"><a xlink:href="Prod.html#transport_path_prod" xlink:title="transport_path_prod">
<ellipse fill="#f070d1" stroke="black" cx="1885" cy="-444.122" rx="81.7856" ry="18"/>
<text text-anchor="middle" x="1885" y="-440.422" font-family="Times,serif" font-size="14.00">transport_path_prod</text>
</a>
</g>
</g>
<!-- Prod_transport_path_prod_&#45;&gt;Prod_transport_path_prod -->
<g id="edge25" class="edge"><title>Prod_transport_path_prod_&#45;&gt;Prod_transport_path_prod</title>
<path fill="none" stroke="black" d="M1885,-628.826C1885,-588.971 1885,-513.579 1885,-472.517"/>
<polygon fill="black" stroke="black" points="1888.5,-472.381 1885,-462.381 1881.5,-472.381 1888.5,-472.381"/>
</g>
<!-- Prod_transport_path_prod_uncurried -->
<g id="node31" class="node"><title>Prod_transport_path_prod_uncurried</title>
<g id="a_node31"><a xlink:href="Prod.html#transport_path_prod_uncurried" xlink:title="transport_path_prod_uncurried">
<ellipse fill="#f070d1" stroke="black" cx="1754" cy="-253.122" rx="120.479" ry="18"/>
<text text-anchor="middle" x="1754" y="-249.422" font-family="Times,serif" font-size="14.00">transport_path_prod_uncurried</text>
</a>
</g>
</g>
<!-- Prod_transport_path_prod&#45;&gt;Prod_transport_path_prod_uncurried -->
<g id="edge26" class="edge"><title>Prod_transport_path_prod&#45;&gt;Prod_transport_path_prod_uncurried</title>
<path fill="none" stroke="black" d="M1872.68,-426.154C1849.46,-392.31 1799.17,-318.98 1772.11,-279.522"/>
<polygon fill="black" stroke="black" points="1774.93,-277.45 1766.39,-271.183 1769.16,-281.409 1774.93,-277.45"/>
</g>
<!-- Prod_path_prod_uncurried -->
<g id="node38" class="node"><title>Prod_path_prod_uncurried</title>
<g id="a_node38"><a xlink:href="Prod.html#path_prod_uncurried" xlink:title="path_prod_uncurried">
<ellipse fill="#f070d1" stroke="black" cx="1557" cy="-81.1223" rx="84.485" ry="18"/>
<text text-anchor="middle" x="1557" y="-77.4223" font-family="Times,serif" font-size="14.00">path_prod_uncurried</text>
</a>
</g>
</g>
<!-- Prod_transport_path_prod_uncurried&#45;&gt;Prod_path_prod_uncurried -->
<g id="edge27" class="edge"><title>Prod_transport_path_prod_uncurried&#45;&gt;Prod_path_prod_uncurried</title>
<path fill="none" stroke="black" d="M1733.66,-235.363C1698.18,-204.383 1624.93,-140.43 1584.79,-105.389"/>
<polygon fill="black" stroke="black" points="1587.06,-102.725 1577.23,-98.7849 1582.46,-107.998 1587.06,-102.725"/>
</g>
<!-- Prod_ap_path_prod -->
<g id="node32" class="node"><title>Prod_ap_path_prod</title>
<g id="a_node32"><a xlink:href="Prod.html#ap_path_prod" xlink:title="ap_path_prod">
<ellipse fill="#f070d1" stroke="black" cx="1440" cy="-444.122" rx="59.2725" ry="18"/>
<ellipse fill="none" stroke="black" cx="1440" cy="-444.122" rx="63.2812" ry="22"/>
<ellipse fill="none" stroke="black" cx="1440" cy="-444.122" rx="67.2898" ry="26"/>
<text text-anchor="middle" x="1440" y="-440.422" font-family="Times,serif" font-size="14.00">ap_path_prod</text>
</a>
</g>
</g>
<!-- Prod_ap_path_prod&#45;&gt;Prod_path_prod -->
<g id="edge28" class="edge"><title>Prod_ap_path_prod&#45;&gt;Prod_path_prod</title>
<path fill="none" stroke="black" d="M1429.35,-418.363C1414.49,-382.436 1387.65,-317.555 1372.4,-280.686"/>
<polygon fill="black" stroke="black" points="1375.48,-278.981 1368.43,-271.078 1369.01,-281.656 1375.48,-278.981"/>
</g>
<!-- Prod_eta_path_prod&#45;&gt;Prod_path_prod -->
<g id="edge29" class="edge"><title>Prod_eta_path_prod&#45;&gt;Prod_path_prod</title>
<path fill="none" stroke="black" d="M1565.64,-426.835C1525.02,-392.358 1433.93,-315.032 1388.23,-276.24"/>
<polygon fill="black" stroke="black" points="1390.4,-273.491 1380.51,-269.688 1385.87,-278.827 1390.4,-273.491"/>
</g>
<!-- Prod_ap_snd_path_prod&#45;&gt;Prod_path_prod -->
<g id="edge30" class="edge"><title>Prod_ap_snd_path_prod&#45;&gt;Prod_path_prod</title>
<path fill="none" stroke="black" d="M1139.08,-426.835C1183.33,-392.2 1282.82,-314.321 1332.15,-275.709"/>
<polygon fill="black" stroke="black" points="1334.47,-278.338 1340.18,-269.418 1330.15,-272.826 1334.47,-278.338"/>
</g>
<!-- Prod_ap_fst_path_prod&#45;&gt;Prod_path_prod -->
<g id="edge31" class="edge"><title>Prod_ap_fst_path_prod&#45;&gt;Prod_path_prod</title>
<path fill="none" stroke="black" d="M1290.34,-426.154C1304.08,-392.509 1333.75,-319.84 1349.93,-280.221"/>
<polygon fill="black" stroke="black" points="1353.2,-281.485 1353.74,-270.904 1346.72,-278.839 1353.2,-281.485"/>
</g>
<!-- Prod_path_prod_&#45;&gt;Prod_path_prod -->
<g id="edge32" class="edge"><title>Prod_path_prod_&#45;&gt;Prod_path_prod</title>
<path fill="none" stroke="black" d="M1005.25,-429.61C1074.08,-395.464 1246.23,-310.062 1323,-271.973"/>
<polygon fill="black" stroke="black" points="1324.91,-274.933 1332.32,-267.353 1321.8,-268.662 1324.91,-274.933"/>
</g>
<!-- Prod_path_prod&#45;&gt;Prod_path_prod_uncurried -->
<g id="edge33" class="edge"><title>Prod_path_prod&#45;&gt;Prod_path_prod_uncurried</title>
<path fill="none" stroke="black" d="M1379.79,-236.63C1414.47,-206.203 1488.65,-141.103 1529.17,-105.543"/>
<polygon fill="black" stroke="black" points="1531.6,-108.07 1536.81,-98.8439 1526.98,-102.809 1531.6,-108.07"/>
</g>
<!-- Prod_pack_prod -->
<g id="node40" class="node"><title>Prod_pack_prod</title>
<g id="a_node40"><a xlink:href="Prod.html#pack_prod" xlink:title="pack_prod">
<ellipse fill="#f070d1" stroke="black" cx="220" cy="-1076.12" rx="48.178" ry="18"/>
<ellipse fill="none" stroke="black" cx="220" cy="-1076.12" rx="52.1848" ry="22"/>
<ellipse fill="none" stroke="black" cx="220" cy="-1076.12" rx="56.1916" ry="26"/>
<text text-anchor="middle" x="220" y="-1072.42" font-family="Times,serif" font-size="14.00">pack_prod</text>
</a>
</g>
</g>
<!-- Prod_unpack_prod -->
<g id="node41" class="node"><title>Prod_unpack_prod</title>
<g id="a_node41"><a xlink:href="Prod.html#unpack_prod" xlink:title="unpack_prod">
<ellipse fill="#f070d1" stroke="black" cx="81" cy="-1076.12" rx="56.5844" ry="18"/>
<ellipse fill="none" stroke="black" cx="81" cy="-1076.12" rx="60.5872" ry="22"/>
<ellipse fill="none" stroke="black" cx="81" cy="-1076.12" rx="64.59" ry="26"/>
<text text-anchor="middle" x="81" y="-1072.42" font-family="Times,serif" font-size="14.00">unpack_prod</text>
</a>
</g>
</g>
</g>
</svg>
