<?xml version="1.0" encoding="UTF-8" standalone="no"?>
<!DOCTYPE svg PUBLIC "-//W3C//DTD SVG 1.1//EN"
 "http://www.w3.org/Graphics/SVG/1.1/DTD/svg11.dtd">
<!-- Generated by graphviz version 2.39.20161220.0128 (20161220.0128)
 -->
<!-- Title: HoTT_Categories_Category_Strict Pages: 1 -->
<svg width="953pt" height="480pt"
 viewBox="0.00 0.00 953.00 480.50" xmlns="http://www.w3.org/2000/svg" xmlns:xlink="http://www.w3.org/1999/xlink">
<g id="graph0" class="graph" transform="scale(1 1) rotate(0) translate(4 476.5)">
<title>HoTT_Categories_Category_Strict</title>
<polygon fill="#ffffff" stroke="transparent" points="-4,4 -4,-476.5 949,-476.5 949,4 -4,4"/>
<g id="clust1" class="cluster">
<title>cluster_Strict</title>
<polygon fill="#ffffc3" stroke="#000000" points="8,-15.0598 8,-457.4402 937,-457.4402 937,-15.0598 8,-15.0598"/>
<text text-anchor="middle" x="31" y="-442.2402" font-family="Times,serif" font-size="14.00" fill="#000000">Strict</text>
</g>
<!-- Strict_StrictCategory_rec -->
<g id="node1" class="node">
<title>Strict_StrictCategory_rec</title>
<g id="a_node1"><a xlink:href="Strict.html#StrictCategory_rec" xlink:title="StrictCategory_rec">
<ellipse fill="#f070d1" stroke="#000000" cx="844" cy="-350.0598" rx="77.2012" ry="18"/>
<ellipse fill="none" stroke="#000000" cx="844" cy="-350.0598" rx="81.1939" ry="22"/>
<ellipse fill="none" stroke="#000000" cx="844" cy="-350.0598" rx="85.1866" ry="26"/>
<text text-anchor="middle" x="844" y="-346.3598" font-family="Times,serif" font-size="14.00" fill="#000000">StrictCategory_rec</text>
</a>
</g>
</g>
<!-- Strict_StrictCategory_rect -->
<g id="node3" class="node">
<title>Strict_StrictCategory_rect</title>
<g id="a_node3"><a xlink:href="Strict.html#StrictCategory_rect" xlink:title="StrictCategory_rect">
<ellipse fill="#f070d1" stroke="#000000" cx="749" cy="-199.0598" rx="79.0865" ry="18"/>
<text text-anchor="middle" x="749" y="-195.3598" font-family="Times,serif" font-size="14.00" fill="#000000">StrictCategory_rect</text>
</a>
</g>
</g>
<!-- Strict_StrictCategory_rec&#45;&gt;Strict_StrictCategory_rect -->
<g id="edge1" class="edge">
<title>Strict_StrictCategory_rec&#45;&gt;Strict_StrictCategory_rect</title>
<path fill="none" stroke="#000000" d="M827.8845,-324.4447C810.6675,-297.0786 783.4932,-253.8858 765.959,-226.0157"/>
<polygon fill="#000000" stroke="#000000" points="768.6982,-223.7969 760.4105,-217.1965 762.7733,-227.5245 768.6982,-223.7969"/>
</g>
<!-- Strict_StrictCategory_ind -->
<g id="node2" class="node">
<title>Strict_StrictCategory_ind</title>
<g id="a_node2"><a xlink:href="Strict.html#StrictCategory_ind" xlink:title="StrictCategory_ind">
<ellipse fill="#7fffd4" stroke="#000000" cx="655" cy="-350.0598" rx="77.2012" ry="18"/>
<ellipse fill="none" stroke="#000000" cx="655" cy="-350.0598" rx="81.1939" ry="22"/>
<ellipse fill="none" stroke="#000000" cx="655" cy="-350.0598" rx="85.1866" ry="26"/>
<text text-anchor="middle" x="655" y="-346.3598" font-family="Times,serif" font-size="14.00" fill="#000000">StrictCategory_ind</text>
</a>
</g>
</g>
<!-- Strict_StrictCategory_ind&#45;&gt;Strict_StrictCategory_rect -->
<g id="edge2" class="edge">
<title>Strict_StrictCategory_ind&#45;&gt;Strict_StrictCategory_rect</title>
<path fill="none" stroke="#000000" d="M670.9458,-324.4447C687.9816,-297.0786 714.8699,-253.8858 732.2195,-226.0157"/>
<polygon fill="#000000" stroke="#000000" points="735.396,-227.5357 737.7096,-217.1965 729.4534,-223.8362 735.396,-227.5357"/>
</g>
<!-- Strict_Build_StrictCategory -->
<g id="node6" class="node">
<title>Strict_Build_StrictCategory</title>
<g id="a_node6"><a xlink:href="Strict.html#Build_StrictCategory" xlink:title="Build_StrictCategory">
<ellipse fill="#7faaff" stroke="#000000" cx="749" cy="-64.0598" rx="85.5853" ry="18"/>
<text text-anchor="middle" x="749" y="-60.3598" font-family="Times,serif" font-size="14.00" fill="#000000">Build_StrictCategory</text>
</a>
</g>
</g>
<!-- Strict_StrictCategory_rect&#45;&gt;Strict_Build_StrictCategory -->
<g id="edge3" class="edge">
<title>Strict_StrictCategory_rect&#45;&gt;Strict_Build_StrictCategory</title>
<path fill="none" stroke="#000000" d="M749,-180.8531C749,-158.2075 749,-119.2863 749,-92.6463"/>
<polygon fill="#000000" stroke="#000000" points="752.5001,-92.4091 749,-82.4092 745.5001,-92.4092 752.5001,-92.4091"/>
</g>
<!-- Strict_isstrict_StrictCategory -->
<g id="node4" class="node">
<title>Strict_isstrict_StrictCategory</title>
<g id="a_node4"><a xlink:href="Strict.html#isstrict_StrictCategory" xlink:title="isstrict_StrictCategory">
<ellipse fill="#f070d1" stroke="#000000" cx="454" cy="-350.0598" rx="89.8687" ry="18"/>
<ellipse fill="none" stroke="#000000" cx="454" cy="-350.0598" rx="93.8766" ry="22"/>
<ellipse fill="none" stroke="#000000" cx="454" cy="-350.0598" rx="97.8845" ry="26"/>
<text text-anchor="middle" x="454" y="-346.3598" font-family="Times,serif" font-size="14.00" fill="#000000">isstrict_StrictCategory</text>
</a>
</g>
</g>
<!-- Strict_precategory_strict -->
<g id="node5" class="node">
<title>Strict_precategory_strict</title>
<g id="a_node5"><a xlink:href="Strict.html#precategory_strict" xlink:title="precategory_strict">
<ellipse fill="#f070d1" stroke="#000000" cx="256" cy="-350.0598" rx="74.1778" ry="18"/>
<ellipse fill="none" stroke="#000000" cx="256" cy="-350.0598" rx="78.1824" ry="22"/>
<ellipse fill="none" stroke="#000000" cx="256" cy="-350.0598" rx="82.187" ry="26"/>
<text text-anchor="middle" x="256" y="-346.3598" font-family="Times,serif" font-size="14.00" fill="#000000">precategory_strict</text>
</a>
</g>
</g>
<!-- Strict_StrictCategory -->
<g id="node7" class="node">
<title>Strict_StrictCategory</title>
<g id="a_node7"><a xlink:href="Strict.html#StrictCategory" xlink:title="StrictCategory">
<ellipse fill="#e2cdfa" stroke="#000000" cx="86" cy="-350.0598" rx="61.9618" ry="18"/>
<ellipse fill="none" stroke="#000000" cx="86" cy="-350.0598" rx="65.9758" ry="22"/>
<ellipse fill="none" stroke="#000000" cx="86" cy="-350.0598" rx="69.9899" ry="26"/>
<text text-anchor="middle" x="86" y="-346.3598" font-family="Times,serif" font-size="14.00" fill="#000000">StrictCategory</text>
</a>
</g>
</g>
</g>
</svg>
