<?xml version="1.0" encoding="UTF-8" standalone="no"?>
<!DOCTYPE svg PUBLIC "-//W3C//DTD SVG 1.1//EN"
 "http://www.w3.org/Graphics/SVG/1.1/DTD/svg11.dtd">
<!-- Generated by graphviz version 2.26.3 (20100126.1600)
 -->
<!-- Title: HoTT_categories_NaturalTransformation_Composition_Core Pages: 1 -->
<svg width="1622pt" height="815pt"
 viewBox="0.00 0.00 1622.00 815.00" xmlns="http://www.w3.org/2000/svg" xmlns:xlink="http://www.w3.org/1999/xlink">
<g id="graph1" class="graph" transform="scale(1 1) rotate(0) translate(4 811)">
<title>HoTT_categories_NaturalTransformation_Composition_Core</title>
<polygon fill="white" stroke="white" points="-4,5 -4,-811 1619,-811 1619,5 -4,5"/>
<g id="graph2" class="cluster"><title>cluster_Core</title>
<polygon fill="#ffffc3" stroke="black" points="8,-34.7097 8,-772.29 1606,-772.29 1606,-34.7097 8,-34.7097"/>
<text text-anchor="middle" x="32.5" y="-755.69" font-family="Times Roman,serif" font-size="14.00">Core</text>
</g>
<!-- Core_whisker_r -->
<g id="node1" class="node"><title>Core_whisker_r</title>
<a xlink:href="Core.html#whisker_r" xlink:title="whisker_r">
<ellipse fill="#f070d1" stroke="black" cx="1348" cy="-507.71" rx="58.957" ry="18.3848"/>
<ellipse fill="none" stroke="black" cx="1348" cy="-507.71" rx="62.9274" ry="22.3848"/>
<ellipse fill="none" stroke="black" cx="1348" cy="-507.71" rx="66.8977" ry="26.3848"/>
<text text-anchor="middle" x="1348" y="-504.11" font-family="Times Roman,serif" font-size="14.00">whisker_r</text>
</a>
</g>
<!-- Core_whisker_r_commutes_sym -->
<g id="node2" class="node"><title>Core_whisker_r_commutes_sym</title>
<a xlink:href="Core.html#whisker_r_commutes_sym" xlink:title="whisker_r_commutes_sym">
<ellipse fill="#f070d1" stroke="black" cx="1213" cy="-151.71" rx="138.801" ry="18.3848"/>
<text text-anchor="middle" x="1213" y="-148.11" font-family="Times Roman,serif" font-size="14.00">whisker_r_commutes_sym</text>
</a>
</g>
<!-- Core_whisker_r&#45;&gt;Core_whisker_r_commutes_sym -->
<g id="edge2" class="edge"><title>Core_whisker_r&#45;&gt;Core_whisker_r_commutes_sym</title>
<path fill="none" stroke="black" d="M1337.96,-481.243C1313.14,-415.795 1249.07,-246.818 1223.63,-179.748"/>
<polygon fill="black" stroke="black" points="1226.85,-178.361 1220.03,-170.252 1220.3,-180.843 1226.85,-178.361"/>
</g>
<!-- Core_whisker_r_commutes -->
<g id="node3" class="node"><title>Core_whisker_r_commutes</title>
<a xlink:href="Core.html#whisker_r_commutes" xlink:title="whisker_r_commutes">
<ellipse fill="#f070d1" stroke="black" cx="1484" cy="-151.71" rx="114.051" ry="18.3848"/>
<text text-anchor="middle" x="1484" y="-148.11" font-family="Times Roman,serif" font-size="14.00">whisker_r_commutes</text>
</a>
</g>
<!-- Core_whisker_r&#45;&gt;Core_whisker_r_commutes -->
<g id="edge4" class="edge"><title>Core_whisker_r&#45;&gt;Core_whisker_r_commutes</title>
<path fill="none" stroke="black" d="M1358.11,-481.243C1383.11,-415.795 1447.67,-246.818 1473.29,-179.748"/>
<polygon fill="black" stroke="black" points="1476.62,-180.842 1476.92,-170.252 1470.08,-178.344 1476.62,-180.842"/>
</g>
<!-- Core_whisker_l -->
<g id="node4" class="node"><title>Core_whisker_l</title>
<a xlink:href="Core.html#whisker_l" xlink:title="whisker_l">
<ellipse fill="#f070d1" stroke="black" cx="808" cy="-507.71" rx="57.9828" ry="18.3848"/>
<ellipse fill="none" stroke="black" cx="808" cy="-507.71" rx="61.9828" ry="22.3848"/>
<ellipse fill="none" stroke="black" cx="808" cy="-507.71" rx="65.9828" ry="26.3848"/>
<text text-anchor="middle" x="808" y="-504.11" font-family="Times Roman,serif" font-size="14.00">whisker_l</text>
</a>
</g>
<!-- Core_whisker_l_commutes_sym -->
<g id="node5" class="node"><title>Core_whisker_l_commutes_sym</title>
<a xlink:href="Core.html#whisker_l_commutes_sym" xlink:title="whisker_l_commutes_sym">
<ellipse fill="#f070d1" stroke="black" cx="674" cy="-151.71" rx="137.886" ry="18.3848"/>
<text text-anchor="middle" x="674" y="-148.11" font-family="Times Roman,serif" font-size="14.00">whisker_l_commutes_sym</text>
</a>
</g>
<!-- Core_whisker_l&#45;&gt;Core_whisker_l_commutes_sym -->
<g id="edge6" class="edge"><title>Core_whisker_l&#45;&gt;Core_whisker_l_commutes_sym</title>
<path fill="none" stroke="black" d="M798.038,-481.243C773.403,-415.795 709.799,-246.818 684.554,-179.748"/>
<polygon fill="black" stroke="black" points="687.778,-178.378 680.979,-170.252 681.227,-180.844 687.778,-178.378"/>
</g>
<!-- Core_whisker_l_commutes -->
<g id="node6" class="node"><title>Core_whisker_l_commutes</title>
<a xlink:href="Core.html#whisker_l_commutes" xlink:title="whisker_l_commutes">
<ellipse fill="#f070d1" stroke="black" cx="943" cy="-151.71" rx="113.137" ry="18.3848"/>
<text text-anchor="middle" x="943" y="-148.11" font-family="Times Roman,serif" font-size="14.00">whisker_l_commutes</text>
</a>
</g>
<!-- Core_whisker_l&#45;&gt;Core_whisker_l_commutes -->
<g id="edge8" class="edge"><title>Core_whisker_l&#45;&gt;Core_whisker_l_commutes</title>
<path fill="none" stroke="black" d="M818.037,-481.243C842.855,-415.795 906.934,-246.818 932.368,-179.748"/>
<polygon fill="black" stroke="black" points="935.695,-180.843 935.969,-170.252 929.15,-178.361 935.695,-180.843"/>
</g>
<!-- Core_compose -->
<g id="node7" class="node"><title>Core_compose</title>
<a xlink:href="Core.html#compose" xlink:title="compose">
<ellipse fill="#f070d1" stroke="black" cx="279" cy="-507.71" rx="53.3032" ry="18.3848"/>
<ellipse fill="none" stroke="black" cx="279" cy="-507.71" rx="57.2707" ry="22.3848"/>
<ellipse fill="none" stroke="black" cx="279" cy="-507.71" rx="61.2382" ry="26.3848"/>
<text text-anchor="middle" x="279" y="-504.11" font-family="Times Roman,serif" font-size="14.00">compose</text>
</a>
</g>
<!-- Core_compose_commutes_sym -->
<g id="node8" class="node"><title>Core_compose_commutes_sym</title>
<a xlink:href="Core.html#compose_commutes_sym" xlink:title="compose_commutes_sym">
<ellipse fill="#f070d1" stroke="black" cx="149" cy="-151.71" rx="133.143" ry="18.3848"/>
<text text-anchor="middle" x="149" y="-148.11" font-family="Times Roman,serif" font-size="14.00">compose_commutes_sym</text>
</a>
</g>
<!-- Core_compose&#45;&gt;Core_compose_commutes_sym -->
<g id="edge10" class="edge"><title>Core_compose&#45;&gt;Core_compose_commutes_sym</title>
<path fill="none" stroke="black" d="M269.441,-481.532C245.626,-416.315 183.805,-247.021 159.261,-179.809"/>
<polygon fill="black" stroke="black" points="162.504,-178.486 155.786,-170.293 155.929,-180.887 162.504,-178.486"/>
</g>
<!-- Core_compose_commutes -->
<g id="node9" class="node"><title>Core_compose_commutes</title>
<a xlink:href="Core.html#compose_commutes" xlink:title="compose_commutes">
<ellipse fill="#f070d1" stroke="black" cx="409" cy="-151.71" rx="108.894" ry="18.3848"/>
<text text-anchor="middle" x="409" y="-148.11" font-family="Times Roman,serif" font-size="14.00">compose_commutes</text>
</a>
</g>
<!-- Core_compose&#45;&gt;Core_compose_commutes -->
<g id="edge12" class="edge"><title>Core_compose&#45;&gt;Core_compose_commutes</title>
<path fill="none" stroke="black" d="M288.559,-481.532C312.374,-416.315 374.195,-247.021 398.739,-179.809"/>
<polygon fill="black" stroke="black" points="402.071,-180.887 402.214,-170.293 395.496,-178.486 402.071,-180.887"/>
</g>
</g>
</svg>
