<?xml version="1.0" encoding="UTF-8" standalone="no"?>
<!DOCTYPE svg PUBLIC "-//W3C//DTD SVG 1.1//EN"
 "http://www.w3.org/Graphics/SVG/1.1/DTD/svg11.dtd">
<!-- Generated by graphviz version 2.26.3 (20100126.1600)
 -->
<!-- Title: HoTT_categories_Category_Sigma_OnMorphisms Pages: 1 -->
<svg width="1924pt" height="966pt"
 viewBox="0.00 0.00 1924.00 966.00" xmlns="http://www.w3.org/2000/svg" xmlns:xlink="http://www.w3.org/1999/xlink">
<g id="graph1" class="graph" transform="scale(1 1) rotate(0) translate(4 962)">
<title>HoTT_categories_Category_Sigma_OnMorphisms</title>
<polygon fill="white" stroke="white" points="-4,5 -4,-962 1921,-962 1921,5 -4,5"/>
<g id="graph2" class="cluster"><title>cluster_OnMorphisms</title>
<polygon fill="#ffffc3" stroke="black" points="8,-29.4769 8,-928.523 1908,-928.523 1908,-29.4769 8,-29.4769"/>
<text text-anchor="middle" x="63" y="-911.923" font-family="Times Roman,serif" font-size="14.00">OnMorphisms</text>
</g>
<!-- OnMorphisms_proj1_sig_mor -->
<g id="node1" class="node"><title>OnMorphisms_proj1_sig_mor</title>
<a xlink:href="OnMorphisms.html#proj1_sig_mor" xlink:title="proj1_sig_mor">
<ellipse fill="#f070d1" stroke="black" cx="1017" cy="-703.477" rx="79.9031" ry="18.3848"/>
<ellipse fill="none" stroke="black" cx="1017" cy="-703.477" rx="83.9031" ry="22.3848"/>
<ellipse fill="none" stroke="black" cx="1017" cy="-703.477" rx="87.9031" ry="26.3848"/>
<text text-anchor="middle" x="1017" y="-699.877" font-family="Times Roman,serif" font-size="14.00">proj1_sig_mor</text>
</a>
</g>
<!-- OnMorphisms_P_right_identity_on_morphisms_subproof -->
<g id="node3" class="node"><title>OnMorphisms_P_right_identity_on_morphisms_subproof</title>
<a xlink:href="OnMorphisms.html#P_right_identity_on_morphisms_subproof" xlink:title="P_right_identity_on_morphisms_subproof">
<ellipse fill="#facdef" stroke="black" cx="1668" cy="-401.477" rx="212.132" ry="18.3848"/>
<text text-anchor="middle" x="1668" y="-397.877" font-family="Times Roman,serif" font-size="14.00">P_right_identity_on_morphisms_subproof</text>
</a>
</g>
<!-- OnMorphisms_proj1_sig_mor&#45;&gt;OnMorphisms_P_right_identity_on_morphisms_subproof -->
<g id="edge2" class="edge"><title>OnMorphisms_proj1_sig_mor&#45;&gt;OnMorphisms_P_right_identity_on_morphisms_subproof</title>
<path fill="none" stroke="black" d="M1065.13,-681.147C1185.42,-625.346 1498.13,-480.28 1619.16,-424.132"/>
<polygon fill="black" stroke="black" points="1620.97,-427.153 1628.57,-419.77 1618.02,-420.803 1620.97,-427.153"/>
</g>
<!-- OnMorphisms_P_left_identity_on_morphisms_subproof -->
<g id="node4" class="node"><title>OnMorphisms_P_left_identity_on_morphisms_subproof</title>
<a xlink:href="OnMorphisms.html#P_left_identity_on_morphisms_subproof" xlink:title="P_left_identity_on_morphisms_subproof">
<ellipse fill="#facdef" stroke="black" cx="803" cy="-401.477" rx="205.061" ry="18.3848"/>
<text text-anchor="middle" x="803" y="-397.877" font-family="Times Roman,serif" font-size="14.00">P_left_identity_on_morphisms_subproof</text>
</a>
</g>
<!-- OnMorphisms_proj1_sig_mor&#45;&gt;OnMorphisms_P_left_identity_on_morphisms_subproof -->
<g id="edge4" class="edge"><title>OnMorphisms_proj1_sig_mor&#45;&gt;OnMorphisms_P_left_identity_on_morphisms_subproof</title>
<path fill="none" stroke="black" d="M998.569,-677.467C958.356,-620.718 863.08,-486.263 822.187,-428.554"/>
<polygon fill="black" stroke="black" points="824.971,-426.43 816.334,-420.294 819.26,-430.477 824.971,-426.43"/>
</g>
<!-- OnMorphisms_P_associativity_on_morphisms_subproof -->
<g id="node5" class="node"><title>OnMorphisms_P_associativity_on_morphisms_subproof</title>
<a xlink:href="OnMorphisms.html#P_associativity_on_morphisms_subproof" xlink:title="P_associativity_on_morphisms_subproof">
<ellipse fill="#facdef" stroke="black" cx="1232" cy="-401.477" rx="205.768" ry="18.3848"/>
<text text-anchor="middle" x="1232" y="-397.877" font-family="Times Roman,serif" font-size="14.00">P_associativity_on_morphisms_subproof</text>
</a>
</g>
<!-- OnMorphisms_proj1_sig_mor&#45;&gt;OnMorphisms_P_associativity_on_morphisms_subproof -->
<g id="edge6" class="edge"><title>OnMorphisms_proj1_sig_mor&#45;&gt;OnMorphisms_P_associativity_on_morphisms_subproof</title>
<path fill="none" stroke="black" d="M1035.52,-677.467C1075.92,-620.718 1171.64,-486.263 1212.72,-428.554"/>
<polygon fill="black" stroke="black" points="1215.66,-430.47 1218.6,-420.294 1209.95,-426.41 1215.66,-430.47"/>
</g>
<!-- OnMorphisms_pr1_mor -->
<g id="node11" class="node"><title>OnMorphisms_pr1_mor</title>
<a xlink:href="OnMorphisms.html#pr1_mor" xlink:title="pr1_mor">
<ellipse fill="#f070d1" stroke="black" cx="528" cy="-401.477" rx="51.8276" ry="18.3848"/>
<text text-anchor="middle" x="528" y="-397.877" font-family="Times Roman,serif" font-size="14.00">pr1_mor</text>
</a>
</g>
<!-- OnMorphisms_proj1_sig_mor&#45;&gt;OnMorphisms_pr1_mor -->
<g id="edge8" class="edge"><title>OnMorphisms_proj1_sig_mor&#45;&gt;OnMorphisms_pr1_mor</title>
<path fill="none" stroke="black" d="M978.22,-679.527C885.293,-622.136 651.053,-477.473 562.568,-422.826"/>
<polygon fill="black" stroke="black" points="564.326,-419.798 553.979,-417.521 560.648,-425.754 564.326,-419.798"/>
</g>
<!-- OnMorphisms_sig_mor -->
<g id="node2" class="node"><title>OnMorphisms_sig_mor</title>
<a xlink:href="OnMorphisms.html#sig_mor" xlink:title="sig_mor">
<ellipse fill="#f070d1" stroke="black" cx="1450" cy="-703.477" rx="49.0671" ry="18.3848"/>
<ellipse fill="none" stroke="black" cx="1450" cy="-703.477" rx="53.0323" ry="22.3848"/>
<ellipse fill="none" stroke="black" cx="1450" cy="-703.477" rx="56.9975" ry="26.3848"/>
<text text-anchor="middle" x="1450" y="-699.877" font-family="Times Roman,serif" font-size="14.00">sig_mor</text>
</a>
</g>
<!-- OnMorphisms_sig_mor&#45;&gt;OnMorphisms_P_right_identity_on_morphisms_subproof -->
<g id="edge10" class="edge"><title>OnMorphisms_sig_mor&#45;&gt;OnMorphisms_P_right_identity_on_morphisms_subproof</title>
<path fill="none" stroke="black" d="M1468.21,-678.248C1508.9,-621.885 1606.87,-486.16 1648.63,-428.317"/>
<polygon fill="black" stroke="black" points="1651.58,-430.203 1654.6,-420.046 1645.9,-426.106 1651.58,-430.203"/>
</g>
<!-- OnMorphisms_sig_mor&#45;&gt;OnMorphisms_P_left_identity_on_morphisms_subproof -->
<g id="edge12" class="edge"><title>OnMorphisms_sig_mor&#45;&gt;OnMorphisms_P_left_identity_on_morphisms_subproof</title>
<path fill="none" stroke="black" d="M1409.53,-684.585C1295.88,-631.539 974.149,-481.364 851.402,-424.07"/>
<polygon fill="black" stroke="black" points="852.763,-420.842 842.221,-419.784 849.802,-427.185 852.763,-420.842"/>
</g>
<!-- OnMorphisms_sig_mor&#45;&gt;OnMorphisms_P_associativity_on_morphisms_subproof -->
<g id="edge14" class="edge"><title>OnMorphisms_sig_mor&#45;&gt;OnMorphisms_P_associativity_on_morphisms_subproof</title>
<path fill="none" stroke="black" d="M1431.79,-678.248C1391.1,-621.885 1293.13,-486.16 1251.37,-428.317"/>
<polygon fill="black" stroke="black" points="1254.1,-426.106 1245.4,-420.046 1248.42,-430.203 1254.1,-426.106"/>
</g>
<!-- OnMorphisms_sigT_mor -->
<g id="node12" class="node"><title>OnMorphisms_sigT_mor</title>
<a xlink:href="OnMorphisms.html#sigT_mor" xlink:title="sigT_mor">
<ellipse fill="#f070d1" stroke="black" cx="445" cy="-128.477" rx="55.8614" ry="18.3848"/>
<text text-anchor="middle" x="445" y="-124.877" font-family="Times Roman,serif" font-size="14.00">sigT_mor</text>
</a>
</g>
<!-- OnMorphisms_sig_mor&#45;&gt;OnMorphisms_sigT_mor -->
<g id="edge16" class="edge"><title>OnMorphisms_sig_mor&#45;&gt;OnMorphisms_sigT_mor</title>
<path fill="none" stroke="black" d="M1500.03,-690.751C1639.85,-652.916 2016.4,-534.248 1889,-382.477 1708.83,-167.845 770.375,-134.521 511.307,-129.398"/>
<polygon fill="black" stroke="black" points="511.356,-125.898 501.291,-129.207 511.222,-132.897 511.356,-125.898"/>
</g>
<!-- OnMorphisms_sigT_mor_compat -->
<g id="node6" class="node"><title>OnMorphisms_sigT_mor_compat</title>
<a xlink:href="OnMorphisms.html#sigT_mor_compat" xlink:title="sigT_mor_compat">
<ellipse fill="#f070d1" stroke="black" cx="445" cy="-703.477" rx="96.8736" ry="18.3848"/>
<ellipse fill="none" stroke="black" cx="445" cy="-703.477" rx="100.874" ry="22.3848"/>
<ellipse fill="none" stroke="black" cx="445" cy="-703.477" rx="104.874" ry="26.3848"/>
<text text-anchor="middle" x="445" y="-699.877" font-family="Times Roman,serif" font-size="14.00">sigT_mor_compat</text>
</a>
</g>
<!-- OnMorphisms_sigT_functor_mor -->
<g id="node9" class="node"><title>OnMorphisms_sigT_functor_mor</title>
<a xlink:href="OnMorphisms.html#sigT_functor_mor" xlink:title="sigT_functor_mor">
<ellipse fill="#f070d1" stroke="black" cx="362" cy="-401.477" rx="96.1665" ry="18.3848"/>
<text text-anchor="middle" x="362" y="-397.877" font-family="Times Roman,serif" font-size="14.00">sigT_functor_mor</text>
</a>
</g>
<!-- OnMorphisms_sigT_mor_compat&#45;&gt;OnMorphisms_sigT_functor_mor -->
<g id="edge18" class="edge"><title>OnMorphisms_sigT_mor_compat&#45;&gt;OnMorphisms_sigT_functor_mor</title>
<path fill="none" stroke="black" d="M437.707,-676.941C422.146,-620.321 385.805,-488.094 369.802,-429.865"/>
<polygon fill="black" stroke="black" points="373.173,-428.924 367.148,-420.209 366.424,-430.779 373.173,-428.924"/>
</g>
<!-- OnMorphisms_sigT_mor_compat&#45;&gt;OnMorphisms_pr1_mor -->
<g id="edge20" class="edge"><title>OnMorphisms_sigT_mor_compat&#45;&gt;OnMorphisms_pr1_mor</title>
<path fill="none" stroke="black" d="M452.293,-676.941C467.854,-620.321 504.195,-488.094 520.198,-429.865"/>
<polygon fill="black" stroke="black" points="523.576,-430.779 522.852,-420.209 516.827,-428.924 523.576,-430.779"/>
</g>
<!-- OnMorphisms_sigT_mor_eq -->
<g id="node7" class="node"><title>OnMorphisms_sigT_mor_eq</title>
<a xlink:href="OnMorphisms.html#sigT_mor_eq" xlink:title="sigT_mor_eq">
<ellipse fill="#facdef" stroke="black" cx="186" cy="-703.477" rx="72.832" ry="18.3848"/>
<ellipse fill="none" stroke="black" cx="186" cy="-703.477" rx="76.832" ry="22.3848"/>
<ellipse fill="none" stroke="black" cx="186" cy="-703.477" rx="80.832" ry="26.3848"/>
<text text-anchor="middle" x="186" y="-699.877" font-family="Times Roman,serif" font-size="14.00">sigT_mor_eq</text>
</a>
</g>
<!-- OnMorphisms_sigT_functor_mor_inv -->
<g id="node8" class="node"><title>OnMorphisms_sigT_functor_mor_inv</title>
<a xlink:href="OnMorphisms.html#sigT_functor_mor_inv" xlink:title="sigT_functor_mor_inv">
<ellipse fill="#f070d1" stroke="black" cx="132" cy="-401.477" rx="115.966" ry="18.3848"/>
<text text-anchor="middle" x="132" y="-397.877" font-family="Times Roman,serif" font-size="14.00">sigT_functor_mor_inv</text>
</a>
</g>
<!-- OnMorphisms_sigT_mor_eq&#45;&gt;OnMorphisms_sigT_functor_mor_inv -->
<g id="edge22" class="edge"><title>OnMorphisms_sigT_mor_eq&#45;&gt;OnMorphisms_sigT_functor_mor_inv</title>
<path fill="none" stroke="black" d="M181.255,-676.941C171.152,-620.438 147.586,-488.641 137.141,-430.228"/>
<polygon fill="black" stroke="black" points="140.555,-429.437 135.35,-420.209 133.664,-430.669 140.555,-429.437"/>
</g>
<!-- OnMorphisms_sigT_mor_eq&#45;&gt;OnMorphisms_sigT_functor_mor -->
<g id="edge24" class="edge"><title>OnMorphisms_sigT_mor_eq&#45;&gt;OnMorphisms_sigT_functor_mor</title>
<path fill="none" stroke="black" d="M201.311,-677.205C234.426,-620.383 312.426,-486.542 346.082,-428.791"/>
<polygon fill="black" stroke="black" points="349.264,-430.282 351.275,-419.88 343.216,-426.758 349.264,-430.282"/>
</g>
<!-- OnMorphisms_sigT_mor_as_sigT -->
<g id="node10" class="node"><title>OnMorphisms_sigT_mor_as_sigT</title>
<a xlink:href="OnMorphisms.html#sigT_mor_as_sigT" xlink:title="sigT_mor_as_sigT">
<ellipse fill="#f070d1" stroke="black" cx="203" cy="-128.477" rx="96.8736" ry="18.3848"/>
<text text-anchor="middle" x="203" y="-124.877" font-family="Times Roman,serif" font-size="14.00">sigT_mor_as_sigT</text>
</a>
</g>
<!-- OnMorphisms_sigT_functor_mor_inv&#45;&gt;OnMorphisms_sigT_mor_as_sigT -->
<g id="edge26" class="edge"><title>OnMorphisms_sigT_functor_mor_inv&#45;&gt;OnMorphisms_sigT_mor_as_sigT</title>
<path fill="none" stroke="black" d="M136.88,-382.713C149.095,-335.746 181.046,-212.891 195.594,-156.955"/>
<polygon fill="black" stroke="black" points="199.05,-157.571 198.18,-147.012 192.275,-155.809 199.05,-157.571"/>
</g>
<!-- OnMorphisms_sigT_functor_mor_inv&#45;&gt;OnMorphisms_sigT_mor -->
<g id="edge28" class="edge"><title>OnMorphisms_sigT_functor_mor_inv&#45;&gt;OnMorphisms_sigT_mor</title>
<path fill="none" stroke="black" d="M153.023,-383.141C207.855,-335.316 355.247,-206.76 417.087,-152.823"/>
<polygon fill="black" stroke="black" points="419.647,-155.234 424.883,-146.023 415.046,-149.959 419.647,-155.234"/>
</g>
<!-- OnMorphisms_sigT_functor_mor&#45;&gt;OnMorphisms_sigT_mor_as_sigT -->
<g id="edge30" class="edge"><title>OnMorphisms_sigT_functor_mor&#45;&gt;OnMorphisms_sigT_mor_as_sigT</title>
<path fill="none" stroke="black" d="M351.071,-382.713C323.547,-335.453 251.27,-211.356 218.981,-155.916"/>
<polygon fill="black" stroke="black" points="221.852,-153.891 213.795,-147.012 215.803,-157.414 221.852,-153.891"/>
</g>
<!-- OnMorphisms_sigT_functor_mor&#45;&gt;OnMorphisms_sigT_mor -->
<g id="edge32" class="edge"><title>OnMorphisms_sigT_functor_mor&#45;&gt;OnMorphisms_sigT_mor</title>
<path fill="none" stroke="black" d="M367.705,-382.713C382.014,-335.649 419.491,-212.38 436.448,-156.607"/>
<polygon fill="black" stroke="black" points="439.805,-157.597 439.365,-147.012 433.107,-155.561 439.805,-157.597"/>
</g>
<!-- OnMorphisms_pr1_mor&#45;&gt;OnMorphisms_sigT_mor -->
<g id="edge34" class="edge"><title>OnMorphisms_pr1_mor&#45;&gt;OnMorphisms_sigT_mor</title>
<path fill="none" stroke="black" d="M522.295,-382.713C507.986,-335.649 470.509,-212.38 453.552,-156.607"/>
<polygon fill="black" stroke="black" points="456.893,-155.561 450.635,-147.012 450.195,-157.597 456.893,-155.561"/>
</g>
</g>
</svg>
