<?xml version="1.0" encoding="UTF-8" standalone="no"?>
<!DOCTYPE svg PUBLIC "-//W3C//DTD SVG 1.1//EN"
 "http://www.w3.org/Graphics/SVG/1.1/DTD/svg11.dtd">
<!-- Generated by graphviz version 2.39.20141222.0545 (20141222.0545)
 -->
<!-- Title: HoTT_Basics_Trunc Pages: 1 -->
<svg width="2859pt" height="1434pt"
 viewBox="0.00 0.00 2859.00 1433.50" xmlns="http://www.w3.org/2000/svg" xmlns:xlink="http://www.w3.org/1999/xlink">
<g id="graph0" class="graph" transform="scale(1 1) rotate(0) translate(4 1429.5)">
<title>HoTT_Basics_Trunc</title>
<polygon fill="white" stroke="transparent" points="-4,4 -4,-1429.5 2855,-1429.5 2855,4 -4,4"/>
<g id="clust1" class="cluster"><title>cluster_Trunc</title>
<polygon fill="#ffffc3" stroke="black" points="8,-22.1437 8,-1403.36 2843,-1403.36 2843,-22.1437 8,-22.1437"/>
<text text-anchor="middle" x="32.5" y="-1388.16" font-family="Times,serif" font-size="14.00">Trunc</text>
</g>
<!-- Trunc_hset_decpaths -->
<g id="node1" class="node"><title>Trunc_hset_decpaths</title>
<g id="a_node1"><a xlink:href="Trunc.html#hset_decpaths" xlink:title="hset_decpaths">
<ellipse fill="#f070d1" stroke="black" cx="2767" cy="-1245.14" rx="59.6142" ry="18"/>
<ellipse fill="none" stroke="black" cx="2767" cy="-1245.14" rx="63.6021" ry="22"/>
<ellipse fill="none" stroke="black" cx="2767" cy="-1245.14" rx="67.59" ry="26"/>
<text text-anchor="middle" x="2767" y="-1241.44" font-family="Times,serif" font-size="14.00">hset_decpaths</text>
</a>
</g>
</g>
<!-- Trunc_hset_pathcoll -->
<g id="node4" class="node"><title>Trunc_hset_pathcoll</title>
<g id="a_node4"><a xlink:href="Trunc.html#hset_pathcoll" xlink:title="hset_pathcoll">
<ellipse fill="#f070d1" stroke="black" cx="2769" cy="-1002.14" rx="57.6901" ry="18"/>
<text text-anchor="middle" x="2769" y="-998.444" font-family="Times,serif" font-size="14.00">hset_pathcoll</text>
</a>
</g>
</g>
<!-- Trunc_hset_decpaths&#45;&gt;Trunc_hset_pathcoll -->
<g id="edge1" class="edge"><title>Trunc_hset_decpaths&#45;&gt;Trunc_hset_pathcoll</title>
<path fill="none" stroke="black" d="M2767.21,-1219.14C2767.59,-1173.25 2768.37,-1078.26 2768.77,-1030.65"/>
<polygon fill="black" stroke="black" points="2772.27,-1030.46 2768.85,-1020.43 2765.27,-1030.4 2772.27,-1030.46"/>
</g>
<!-- Trunc_pathcoll_decpaths -->
<g id="node5" class="node"><title>Trunc_pathcoll_decpaths</title>
<g id="a_node5"><a xlink:href="Trunc.html#pathcoll_decpaths" xlink:title="pathcoll_decpaths">
<ellipse fill="#f070d1" stroke="black" cx="2498" cy="-758.144" rx="74.187" ry="18"/>
<text text-anchor="middle" x="2498" y="-754.444" font-family="Times,serif" font-size="14.00">pathcoll_decpaths</text>
</a>
</g>
</g>
<!-- Trunc_hset_decpaths&#45;&gt;Trunc_pathcoll_decpaths -->
<g id="edge2" class="edge"><title>Trunc_hset_decpaths&#45;&gt;Trunc_pathcoll_decpaths</title>
<path fill="none" stroke="black" d="M2752.92,-1219.65C2706.7,-1135.98 2559.96,-870.32 2512.77,-784.884"/>
<polygon fill="black" stroke="black" points="2515.79,-783.116 2507.89,-776.054 2509.66,-786.5 2515.79,-783.116"/>
</g>
<!-- Trunc_pathcoll_hset -->
<g id="node2" class="node"><title>Trunc_pathcoll_hset</title>
<g id="a_node2"><a xlink:href="Trunc.html#pathcoll_hset" xlink:title="pathcoll_hset">
<ellipse fill="#f070d1" stroke="black" cx="2340" cy="-758.144" rx="57.7089" ry="18"/>
<ellipse fill="none" stroke="black" cx="2340" cy="-758.144" rx="61.6995" ry="22"/>
<ellipse fill="none" stroke="black" cx="2340" cy="-758.144" rx="65.6901" ry="26"/>
<text text-anchor="middle" x="2340" y="-754.444" font-family="Times,serif" font-size="14.00">pathcoll_hset</text>
</a>
</g>
</g>
<!-- Trunc_collapsible_hprop -->
<g id="node3" class="node"><title>Trunc_collapsible_hprop</title>
<g id="a_node3"><a xlink:href="Trunc.html#collapsible_hprop" xlink:title="collapsible_hprop">
<ellipse fill="#f070d1" stroke="black" cx="2319" cy="-515.144" rx="73.387" ry="18"/>
<text text-anchor="middle" x="2319" y="-511.444" font-family="Times,serif" font-size="14.00">collapsible_hprop</text>
</a>
</g>
</g>
<!-- Trunc_pathcoll_hset&#45;&gt;Trunc_collapsible_hprop -->
<g id="edge3" class="edge"><title>Trunc_pathcoll_hset&#45;&gt;Trunc_collapsible_hprop</title>
<path fill="none" stroke="black" d="M2337.75,-732.138C2333.79,-686.249 2325.58,-591.261 2321.46,-543.651"/>
<polygon fill="black" stroke="black" points="2324.93,-543.095 2320.58,-533.433 2317.95,-543.697 2324.93,-543.095"/>
</g>
<!-- Trunc_PathCollapsible -->
<g id="node8" class="node"><title>Trunc_PathCollapsible</title>
<g id="a_node8"><a xlink:href="Trunc.html#PathCollapsible" xlink:title="PathCollapsible">
<ellipse fill="#f070d1" stroke="black" cx="2669" cy="-515.144" rx="66.0889" ry="18"/>
<text text-anchor="middle" x="2669" y="-511.444" font-family="Times,serif" font-size="14.00">PathCollapsible</text>
</a>
</g>
</g>
<!-- Trunc_pathcoll_hset&#45;&gt;Trunc_PathCollapsible -->
<g id="edge4" class="edge"><title>Trunc_pathcoll_hset&#45;&gt;Trunc_PathCollapsible</title>
<path fill="none" stroke="black" d="M2371.25,-735.064C2434.06,-688.673 2574.96,-584.604 2637.76,-538.218"/>
<polygon fill="black" stroke="black" points="2640.12,-540.824 2646.09,-532.067 2635.96,-535.193 2640.12,-540.824"/>
</g>
<!-- Trunc_Build_Collapsible -->
<g id="node14" class="node"><title>Trunc_Build_Collapsible</title>
<g id="a_node14"><a xlink:href="Trunc.html#Build_Collapsible" xlink:title="Build_Collapsible">
<ellipse fill="#7faaff" stroke="black" cx="2386" cy="-293.144" rx="74.9875" ry="18"/>
<text text-anchor="middle" x="2386" y="-289.444" font-family="Times,serif" font-size="14.00">Build_Collapsible</text>
</a>
</g>
</g>
<!-- Trunc_collapsible_hprop&#45;&gt;Trunc_Build_Collapsible -->
<g id="edge5" class="edge"><title>Trunc_collapsible_hprop&#45;&gt;Trunc_Build_Collapsible</title>
<path fill="none" stroke="black" d="M2324.48,-496.976C2336.19,-458.178 2363.71,-367.014 2377.62,-320.899"/>
<polygon fill="black" stroke="black" points="2381,-321.835 2380.54,-311.251 2374.3,-319.813 2381,-321.835"/>
</g>
<!-- Trunc_path_ishprop -->
<g id="node22" class="node"><title>Trunc_path_ishprop</title>
<g id="a_node22"><a xlink:href="Trunc.html#path_ishprop" xlink:title="path_ishprop">
<ellipse fill="#f070d1" stroke="black" cx="1908" cy="-293.144" rx="56.59" ry="18"/>
<text text-anchor="middle" x="1908" y="-289.444" font-family="Times,serif" font-size="14.00">path_ishprop</text>
</a>
</g>
</g>
<!-- Trunc_collapsible_hprop&#45;&gt;Trunc_path_ishprop -->
<g id="edge6" class="edge"><title>Trunc_collapsible_hprop&#45;&gt;Trunc_path_ishprop</title>
<path fill="none" stroke="black" d="M2288.44,-498.639C2214.55,-458.727 2026.35,-357.07 1945.66,-313.487"/>
<polygon fill="black" stroke="black" points="1947.29,-310.386 1936.83,-308.713 1943.96,-316.545 1947.29,-310.386"/>
</g>
<!-- Trunc_path_coll -->
<g id="node7" class="node"><title>Trunc_path_coll</title>
<g id="a_node7"><a xlink:href="Trunc.html#path_coll" xlink:title="path_coll">
<ellipse fill="#f070d1" stroke="black" cx="2771" cy="-758.144" rx="43.5923" ry="18"/>
<text text-anchor="middle" x="2771" y="-754.444" font-family="Times,serif" font-size="14.00">path_coll</text>
</a>
</g>
</g>
<!-- Trunc_hset_pathcoll&#45;&gt;Trunc_path_coll -->
<g id="edge7" class="edge"><title>Trunc_hset_pathcoll&#45;&gt;Trunc_path_coll</title>
<path fill="none" stroke="black" d="M2769.15,-983.804C2769.5,-941.573 2770.35,-837.215 2770.77,-786.593"/>
<polygon fill="black" stroke="black" points="2774.27,-786.392 2770.85,-776.363 2767.27,-786.334 2774.27,-786.392"/>
</g>
<!-- Trunc_wconst -->
<g id="node16" class="node"><title>Trunc_wconst</title>
<g id="a_node16"><a xlink:href="Trunc.html#wconst" xlink:title="wconst">
<ellipse fill="#f070d1" stroke="black" cx="2749" cy="-293.144" rx="35.9954" ry="18"/>
<text text-anchor="middle" x="2749" y="-289.444" font-family="Times,serif" font-size="14.00">wconst</text>
</a>
</g>
</g>
<!-- Trunc_hset_pathcoll&#45;&gt;Trunc_wconst -->
<g id="edge8" class="edge"><title>Trunc_hset_pathcoll&#45;&gt;Trunc_wconst</title>
<path fill="none" stroke="black" d="M2775.19,-984.06C2787.48,-947.073 2814.59,-859.872 2824,-784.144 2846.03,-606.789 2783.23,-394.79 2758.52,-320.482"/>
<polygon fill="black" stroke="black" points="2761.81,-319.286 2755.3,-310.929 2755.18,-321.523 2761.81,-319.286"/>
</g>
<!-- Trunc_hprop_allpath -->
<g id="node21" class="node"><title>Trunc_hprop_allpath</title>
<g id="a_node21"><a xlink:href="Trunc.html#hprop_allpath" xlink:title="hprop_allpath">
<ellipse fill="#f070d1" stroke="black" cx="2650" cy="-758.144" rx="59.5901" ry="18"/>
<text text-anchor="middle" x="2650" y="-754.444" font-family="Times,serif" font-size="14.00">hprop_allpath</text>
</a>
</g>
</g>
<!-- Trunc_hset_pathcoll&#45;&gt;Trunc_hprop_allpath -->
<g id="edge9" class="edge"><title>Trunc_hset_pathcoll&#45;&gt;Trunc_hprop_allpath</title>
<path fill="none" stroke="black" d="M2760.25,-984.202C2739.62,-941.899 2687.83,-835.706 2663.29,-785.394"/>
<polygon fill="black" stroke="black" points="2666.29,-783.566 2658.76,-776.112 2660,-786.634 2666.29,-783.566"/>
</g>
<!-- Trunc_collapsible_decidable -->
<g id="node6" class="node"><title>Trunc_collapsible_decidable</title>
<g id="a_node6"><a xlink:href="Trunc.html#collapsible_decidable" xlink:title="collapsible_decidable">
<ellipse fill="#f070d1" stroke="black" cx="2498" cy="-515.144" rx="87.1846" ry="18"/>
<text text-anchor="middle" x="2498" y="-511.444" font-family="Times,serif" font-size="14.00">collapsible_decidable</text>
</a>
</g>
</g>
<!-- Trunc_pathcoll_decpaths&#45;&gt;Trunc_collapsible_decidable -->
<g id="edge10" class="edge"><title>Trunc_pathcoll_decpaths&#45;&gt;Trunc_collapsible_decidable</title>
<path fill="none" stroke="black" d="M2498,-739.879C2498,-697.821 2498,-593.891 2498,-543.476"/>
<polygon fill="black" stroke="black" points="2501.5,-543.289 2498,-533.289 2494.5,-543.289 2501.5,-543.289"/>
</g>
<!-- Trunc_pathcoll_decpaths&#45;&gt;Trunc_PathCollapsible -->
<g id="edge11" class="edge"><title>Trunc_pathcoll_decpaths&#45;&gt;Trunc_PathCollapsible</title>
<path fill="none" stroke="black" d="M2510.57,-740.275C2540.41,-697.883 2615.57,-591.064 2650.56,-541.349"/>
<polygon fill="black" stroke="black" points="2653.51,-543.231 2656.41,-533.038 2647.79,-539.202 2653.51,-543.231"/>
</g>
<!-- Trunc_collapsible_decidable&#45;&gt;Trunc_Build_Collapsible -->
<g id="edge12" class="edge"><title>Trunc_collapsible_decidable&#45;&gt;Trunc_Build_Collapsible</title>
<path fill="none" stroke="black" d="M2488.83,-496.976C2469.18,-458.015 2422.88,-366.247 2399.71,-320.32"/>
<polygon fill="black" stroke="black" points="2402.76,-318.602 2395.13,-311.251 2396.51,-321.755 2402.76,-318.602"/>
</g>
<!-- Trunc_Collapsible -->
<g id="node15" class="node"><title>Trunc_Collapsible</title>
<g id="a_node15"><a xlink:href="Trunc.html#Collapsible" xlink:title="Collapsible">
<ellipse fill="#e2cdfa" stroke="black" cx="2547" cy="-293.144" rx="50.8918" ry="18"/>
<text text-anchor="middle" x="2547" y="-289.444" font-family="Times,serif" font-size="14.00">Collapsible</text>
</a>
</g>
</g>
<!-- Trunc_collapsible_decidable&#45;&gt;Trunc_Collapsible -->
<g id="edge13" class="edge"><title>Trunc_collapsible_decidable&#45;&gt;Trunc_Collapsible</title>
<path fill="none" stroke="black" d="M2502.01,-496.976C2510.56,-458.26 2530.61,-367.397 2540.81,-321.19"/>
<polygon fill="black" stroke="black" points="2544.27,-321.77 2543,-311.251 2537.43,-320.261 2544.27,-321.77"/>
</g>
<!-- Trunc_path_coll&#45;&gt;Trunc_PathCollapsible -->
<g id="edge14" class="edge"><title>Trunc_path_coll&#45;&gt;Trunc_PathCollapsible</title>
<path fill="none" stroke="black" d="M2763.5,-740.275C2745.82,-698.146 2701.42,-592.388 2680.39,-542.282"/>
<polygon fill="black" stroke="black" points="2683.61,-540.904 2676.51,-533.038 2677.15,-543.614 2683.61,-540.904"/>
</g>
<!-- Trunc_PathCollapsible&#45;&gt;Trunc_Collapsible -->
<g id="edge15" class="edge"><title>Trunc_PathCollapsible&#45;&gt;Trunc_Collapsible</title>
<path fill="none" stroke="black" d="M2659.02,-496.976C2637.55,-457.919 2586.92,-365.791 2561.75,-319.979"/>
<polygon fill="black" stroke="black" points="2564.66,-318.02 2556.78,-310.941 2558.53,-321.391 2564.66,-318.02"/>
</g>
<!-- Trunc_Collapsible_rec -->
<g id="node9" class="node"><title>Trunc_Collapsible_rec</title>
<g id="a_node9"><a xlink:href="Trunc.html#Collapsible_rec" xlink:title="Collapsible_rec">
<ellipse fill="#f070d1" stroke="black" cx="2016" cy="-758.144" rx="65.7729" ry="18"/>
<ellipse fill="none" stroke="black" cx="2016" cy="-758.144" rx="69.7808" ry="22"/>
<ellipse fill="none" stroke="black" cx="2016" cy="-758.144" rx="73.7886" ry="26"/>
<text text-anchor="middle" x="2016" y="-754.444" font-family="Times,serif" font-size="14.00">Collapsible_rec</text>
</a>
</g>
</g>
<!-- Trunc_Collapsible_rect -->
<g id="node11" class="node"><title>Trunc_Collapsible_rect</title>
<g id="a_node11"><a xlink:href="Trunc.html#Collapsible_rect" xlink:title="Collapsible_rect">
<ellipse fill="#f070d1" stroke="black" cx="2159" cy="-515.144" rx="68.4888" ry="18"/>
<text text-anchor="middle" x="2159" y="-511.444" font-family="Times,serif" font-size="14.00">Collapsible_rect</text>
</a>
</g>
</g>
<!-- Trunc_Collapsible_rec&#45;&gt;Trunc_Collapsible_rect -->
<g id="edge16" class="edge"><title>Trunc_Collapsible_rec&#45;&gt;Trunc_Collapsible_rect</title>
<path fill="none" stroke="black" d="M2031.03,-732.598C2058.26,-686.331 2115.48,-589.099 2143.23,-541.935"/>
<polygon fill="black" stroke="black" points="2146.32,-543.593 2148.37,-533.2 2140.29,-540.043 2146.32,-543.593"/>
</g>
<!-- Trunc_Collapsible_ind -->
<g id="node10" class="node"><title>Trunc_Collapsible_ind</title>
<g id="a_node10"><a xlink:href="Trunc.html#Collapsible_ind" xlink:title="Collapsible_ind">
<ellipse fill="#7fffd4" stroke="black" cx="2182" cy="-758.144" rx="66.1109" ry="18"/>
<ellipse fill="none" stroke="black" cx="2182" cy="-758.144" rx="70.0999" ry="22"/>
<ellipse fill="none" stroke="black" cx="2182" cy="-758.144" rx="74.0888" ry="26"/>
<text text-anchor="middle" x="2182" y="-754.444" font-family="Times,serif" font-size="14.00">Collapsible_ind</text>
</a>
</g>
</g>
<!-- Trunc_Collapsible_ind&#45;&gt;Trunc_Collapsible_rect -->
<g id="edge17" class="edge"><title>Trunc_Collapsible_ind&#45;&gt;Trunc_Collapsible_rect</title>
<path fill="none" stroke="black" d="M2179.54,-732.138C2175.2,-686.249 2166.2,-591.261 2161.7,-543.651"/>
<polygon fill="black" stroke="black" points="2165.16,-543.059 2160.73,-533.433 2158.19,-543.718 2165.16,-543.059"/>
</g>
<!-- Trunc_Collapsible_rect&#45;&gt;Trunc_Build_Collapsible -->
<g id="edge18" class="edge"><title>Trunc_Collapsible_rect&#45;&gt;Trunc_Build_Collapsible</title>
<path fill="none" stroke="black" d="M2176.81,-497.724C2216.91,-458.509 2314.37,-363.2 2360.71,-317.876"/>
<polygon fill="black" stroke="black" points="2363.25,-320.284 2367.96,-310.79 2358.36,-315.28 2363.25,-320.284"/>
</g>
<!-- Trunc_wconst_collapse -->
<g id="node12" class="node"><title>Trunc_wconst_collapse</title>
<g id="a_node12"><a xlink:href="Trunc.html#wconst_collapse" xlink:title="wconst_collapse">
<ellipse fill="#f070d1" stroke="black" cx="2604" cy="-1245.14" rx="68.7989" ry="18"/>
<ellipse fill="none" stroke="black" cx="2604" cy="-1245.14" rx="72.7934" ry="22"/>
<ellipse fill="none" stroke="black" cx="2604" cy="-1245.14" rx="76.7879" ry="26"/>
<text text-anchor="middle" x="2604" y="-1241.44" font-family="Times,serif" font-size="14.00">wconst_collapse</text>
</a>
</g>
</g>
<!-- Trunc_collapse -->
<g id="node13" class="node"><title>Trunc_collapse</title>
<g id="a_node13"><a xlink:href="Trunc.html#collapse" xlink:title="collapse">
<ellipse fill="#f070d1" stroke="black" cx="2461" cy="-1245.14" rx="39.7687" ry="18"/>
<ellipse fill="none" stroke="black" cx="2461" cy="-1245.14" rx="43.7811" ry="22"/>
<ellipse fill="none" stroke="black" cx="2461" cy="-1245.14" rx="47.7934" ry="26"/>
<text text-anchor="middle" x="2461" y="-1241.44" font-family="Times,serif" font-size="14.00">collapse</text>
</a>
</g>
</g>
<!-- Trunc_WeaklyConstant -->
<g id="node17" class="node"><title>Trunc_WeaklyConstant</title>
<g id="a_node17"><a xlink:href="Trunc.html#WeaklyConstant" xlink:title="WeaklyConstant">
<ellipse fill="#f070d1" stroke="black" cx="2547" cy="-94.1437" rx="69.5877" ry="18"/>
<text text-anchor="middle" x="2547" y="-90.4437" font-family="Times,serif" font-size="14.00">WeaklyConstant</text>
</a>
</g>
</g>
<!-- Trunc_Build_Collapsible&#45;&gt;Trunc_WeaklyConstant -->
<g id="edge19" class="edge"><title>Trunc_Build_Collapsible&#45;&gt;Trunc_WeaklyConstant</title>
<path fill="none" stroke="black" d="M2400.57,-275.133C2429.25,-239.687 2493.09,-160.776 2526.19,-119.859"/>
<polygon fill="black" stroke="black" points="2529.01,-121.946 2532.58,-111.971 2523.57,-117.543 2529.01,-121.946"/>
</g>
<!-- Trunc_Collapsible&#45;&gt;Trunc_WeaklyConstant -->
<g id="edge20" class="edge"><title>Trunc_Collapsible&#45;&gt;Trunc_WeaklyConstant</title>
<path fill="none" stroke="black" d="M2547,-275.133C2547,-240.441 2547,-164.112 2547,-122.521"/>
<polygon fill="black" stroke="black" points="2550.5,-122.257 2547,-112.257 2543.5,-122.257 2550.5,-122.257"/>
</g>
<!-- Trunc_wconst&#45;&gt;Trunc_WeaklyConstant -->
<g id="edge21" class="edge"><title>Trunc_wconst&#45;&gt;Trunc_WeaklyConstant</title>
<path fill="none" stroke="black" d="M2732.47,-276.859C2697.17,-242.079 2614.21,-160.354 2572.25,-119.018"/>
<polygon fill="black" stroke="black" points="2574.49,-116.315 2564.91,-111.79 2569.58,-121.301 2574.49,-116.315"/>
</g>
<!-- Trunc_equiv_iff_hprop -->
<g id="node18" class="node"><title>Trunc_equiv_iff_hprop</title>
<g id="a_node18"><a xlink:href="Trunc.html#equiv_iff_hprop" xlink:title="equiv_iff_hprop">
<ellipse fill="#f070d1" stroke="black" cx="1849" cy="-758.144" rx="67.6782" ry="18"/>
<ellipse fill="none" stroke="black" cx="1849" cy="-758.144" rx="71.6831" ry="22"/>
<ellipse fill="none" stroke="black" cx="1849" cy="-758.144" rx="75.6881" ry="26"/>
<text text-anchor="middle" x="1849" y="-754.444" font-family="Times,serif" font-size="14.00">equiv_iff_hprop</text>
</a>
</g>
</g>
<!-- Trunc_equiv_iff_hprop_uncurried -->
<g id="node19" class="node"><title>Trunc_equiv_iff_hprop_uncurried</title>
<g id="a_node19"><a xlink:href="Trunc.html#equiv_iff_hprop_uncurried" xlink:title="equiv_iff_hprop_uncurried">
<ellipse fill="#f070d1" stroke="black" cx="1908" cy="-515.144" rx="105.881" ry="18"/>
<text text-anchor="middle" x="1908" y="-511.444" font-family="Times,serif" font-size="14.00">equiv_iff_hprop_uncurried</text>
</a>
</g>
</g>
<!-- Trunc_equiv_iff_hprop&#45;&gt;Trunc_equiv_iff_hprop_uncurried -->
<g id="edge22" class="edge"><title>Trunc_equiv_iff_hprop&#45;&gt;Trunc_equiv_iff_hprop_uncurried</title>
<path fill="none" stroke="black" d="M1855.31,-732.138C1866.48,-686.152 1889.62,-590.861 1901.15,-543.351"/>
<polygon fill="black" stroke="black" points="1904.6,-543.977 1903.56,-533.433 1897.8,-542.325 1904.6,-543.977"/>
</g>
<!-- Trunc_equiv_iff_hprop_uncurried&#45;&gt;Trunc_path_ishprop -->
<g id="edge23" class="edge"><title>Trunc_equiv_iff_hprop_uncurried&#45;&gt;Trunc_path_ishprop</title>
<path fill="none" stroke="black" d="M1908,-496.976C1908,-458.341 1908,-367.779 1908,-321.482"/>
<polygon fill="black" stroke="black" points="1911.5,-321.251 1908,-311.251 1904.5,-321.251 1911.5,-321.251"/>
</g>
<!-- Trunc_isequiv_iff_hprop -->
<g id="node20" class="node"><title>Trunc_isequiv_iff_hprop</title>
<g id="a_node20"><a xlink:href="Trunc.html#isequiv_iff_hprop" xlink:title="isequiv_iff_hprop">
<ellipse fill="#f070d1" stroke="black" cx="1703" cy="-515.144" rx="73.3926" ry="18"/>
<ellipse fill="none" stroke="black" cx="1703" cy="-515.144" rx="77.3898" ry="22"/>
<ellipse fill="none" stroke="black" cx="1703" cy="-515.144" rx="81.387" ry="26"/>
<text text-anchor="middle" x="1703" y="-511.444" font-family="Times,serif" font-size="14.00">isequiv_iff_hprop</text>
</a>
</g>
</g>
<!-- Trunc_isequiv_iff_hprop&#45;&gt;Trunc_path_ishprop -->
<g id="edge24" class="edge"><title>Trunc_isequiv_iff_hprop&#45;&gt;Trunc_path_ishprop</title>
<path fill="none" stroke="black" d="M1726.12,-490.109C1765.65,-447.302 1845.76,-360.543 1885.12,-317.916"/>
<polygon fill="black" stroke="black" points="1887.77,-320.212 1891.98,-310.491 1882.63,-315.463 1887.77,-320.212"/>
</g>
<!-- Trunc_hprop_inhabited_contr -->
<g id="node23" class="node"><title>Trunc_hprop_inhabited_contr</title>
<g id="a_node23"><a xlink:href="Trunc.html#hprop_inhabited_contr" xlink:title="hprop_inhabited_contr">
<ellipse fill="#f070d1" stroke="black" cx="2296" cy="-1245.14" rx="90.9845" ry="18"/>
<ellipse fill="none" stroke="black" cx="2296" cy="-1245.14" rx="94.9842" ry="22"/>
<ellipse fill="none" stroke="black" cx="2296" cy="-1245.14" rx="98.9839" ry="26"/>
<text text-anchor="middle" x="2296" y="-1241.44" font-family="Times,serif" font-size="14.00">hprop_inhabited_contr</text>
</a>
</g>
</g>
<!-- Trunc_contr_inhabited_hprop -->
<g id="node24" class="node"><title>Trunc_contr_inhabited_hprop</title>
<g id="a_node24"><a xlink:href="Trunc.html#contr_inhabited_hprop" xlink:title="contr_inhabited_hprop">
<ellipse fill="#f070d1" stroke="black" cx="2080" cy="-1245.14" rx="90.9845" ry="18"/>
<ellipse fill="none" stroke="black" cx="2080" cy="-1245.14" rx="94.9842" ry="22"/>
<ellipse fill="none" stroke="black" cx="2080" cy="-1245.14" rx="98.9839" ry="26"/>
<text text-anchor="middle" x="2080" y="-1241.44" font-family="Times,serif" font-size="14.00">contr_inhabited_hprop</text>
</a>
</g>
</g>
<!-- Trunc_default_TruncType -->
<g id="node25" class="node"><title>Trunc_default_TruncType</title>
<g id="a_node25"><a xlink:href="Trunc.html#default_TruncType" xlink:title="default_TruncType">
<ellipse fill="#f070d1" stroke="black" cx="1878" cy="-1002.14" rx="78.7731" ry="18"/>
<ellipse fill="none" stroke="black" cx="1878" cy="-1002.14" rx="82.7797" ry="22"/>
<ellipse fill="none" stroke="black" cx="1878" cy="-1002.14" rx="86.7863" ry="26"/>
<text text-anchor="middle" x="1878" y="-998.444" font-family="Times,serif" font-size="14.00">default_TruncType</text>
</a>
</g>
</g>
<!-- Trunc_BuildTruncType -->
<g id="node31" class="node"><title>Trunc_BuildTruncType</title>
<g id="a_node31"><a xlink:href="Trunc.html#BuildTruncType" xlink:title="BuildTruncType">
<ellipse fill="#7faaff" stroke="black" cx="1686" cy="-758.144" rx="69.5877" ry="18"/>
<text text-anchor="middle" x="1686" y="-754.444" font-family="Times,serif" font-size="14.00">BuildTruncType</text>
</a>
</g>
</g>
<!-- Trunc_default_TruncType&#45;&gt;Trunc_BuildTruncType -->
<g id="edge25" class="edge"><title>Trunc_default_TruncType&#45;&gt;Trunc_BuildTruncType</title>
<path fill="none" stroke="black" d="M1857.82,-976.493C1821.02,-929.727 1743.41,-831.103 1706.43,-784.108"/>
<polygon fill="black" stroke="black" points="1708.95,-781.652 1700.02,-775.957 1703.45,-785.981 1708.95,-781.652"/>
</g>
<!-- Trunc_TruncType_rec -->
<g id="node26" class="node"><title>Trunc_TruncType_rec</title>
<g id="a_node26"><a xlink:href="Trunc.html#TruncType_rec" xlink:title="TruncType_rec">
<ellipse fill="#f070d1" stroke="black" cx="1890" cy="-1245.14" rx="64.9891" ry="18"/>
<ellipse fill="none" stroke="black" cx="1890" cy="-1245.14" rx="68.9888" ry="22"/>
<ellipse fill="none" stroke="black" cx="1890" cy="-1245.14" rx="72.9885" ry="26"/>
<text text-anchor="middle" x="1890" y="-1241.44" font-family="Times,serif" font-size="14.00">TruncType_rec</text>
</a>
</g>
</g>
<!-- Trunc_TruncType_rect -->
<g id="node28" class="node"><title>Trunc_TruncType_rect</title>
<g id="a_node28"><a xlink:href="Trunc.html#TruncType_rect" xlink:title="TruncType_rect">
<ellipse fill="#f070d1" stroke="black" cx="1706" cy="-1002.14" rx="67.6881" ry="18"/>
<text text-anchor="middle" x="1706" y="-998.444" font-family="Times,serif" font-size="14.00">TruncType_rect</text>
</a>
</g>
</g>
<!-- Trunc_TruncType_rec&#45;&gt;Trunc_TruncType_rect -->
<g id="edge26" class="edge"><title>Trunc_TruncType_rec&#45;&gt;Trunc_TruncType_rect</title>
<path fill="none" stroke="black" d="M1870.66,-1219.6C1835.39,-1173.02 1761.02,-1074.8 1725.58,-1028"/>
<polygon fill="black" stroke="black" points="1728.26,-1025.74 1719.43,-1019.88 1722.68,-1029.97 1728.26,-1025.74"/>
</g>
<!-- Trunc_TruncType_ind -->
<g id="node27" class="node"><title>Trunc_TruncType_ind</title>
<g id="a_node27"><a xlink:href="Trunc.html#TruncType_ind" xlink:title="TruncType_ind">
<ellipse fill="#7fffd4" stroke="black" cx="1725" cy="-1245.14" rx="65.7729" ry="18"/>
<ellipse fill="none" stroke="black" cx="1725" cy="-1245.14" rx="69.7808" ry="22"/>
<ellipse fill="none" stroke="black" cx="1725" cy="-1245.14" rx="73.7886" ry="26"/>
<text text-anchor="middle" x="1725" y="-1241.44" font-family="Times,serif" font-size="14.00">TruncType_ind</text>
</a>
</g>
</g>
<!-- Trunc_TruncType_ind&#45;&gt;Trunc_TruncType_rect -->
<g id="edge27" class="edge"><title>Trunc_TruncType_ind&#45;&gt;Trunc_TruncType_rect</title>
<path fill="none" stroke="black" d="M1722.97,-1219.14C1719.38,-1173.25 1711.95,-1078.26 1708.23,-1030.65"/>
<polygon fill="black" stroke="black" points="1711.7,-1030.13 1707.43,-1020.43 1704.72,-1030.68 1711.7,-1030.13"/>
</g>
<!-- Trunc_TruncType_rect&#45;&gt;Trunc_BuildTruncType -->
<g id="edge28" class="edge"><title>Trunc_TruncType_rect&#45;&gt;Trunc_BuildTruncType</title>
<path fill="none" stroke="black" d="M1704.5,-983.804C1701.04,-941.573 1692.48,-837.215 1688.33,-786.593"/>
<polygon fill="black" stroke="black" points="1691.8,-786.044 1687.49,-776.363 1684.82,-786.616 1691.8,-786.044"/>
</g>
<!-- Trunc_istrunc_trunctype_type -->
<g id="node29" class="node"><title>Trunc_istrunc_trunctype_type</title>
<g id="a_node29"><a xlink:href="Trunc.html#istrunc_trunctype_type" xlink:title="istrunc_trunctype_type">
<ellipse fill="#f070d1" stroke="black" cx="1534" cy="-1245.14" rx="91.7725" ry="18"/>
<ellipse fill="none" stroke="black" cx="1534" cy="-1245.14" rx="95.7782" ry="22"/>
<ellipse fill="none" stroke="black" cx="1534" cy="-1245.14" rx="99.7839" ry="26"/>
<text text-anchor="middle" x="1534" y="-1241.44" font-family="Times,serif" font-size="14.00">istrunc_trunctype_type</text>
</a>
</g>
</g>
<!-- Trunc_trunctype_type -->
<g id="node30" class="node"><title>Trunc_trunctype_type</title>
<g id="a_node30"><a xlink:href="Trunc.html#trunctype_type" xlink:title="trunctype_type">
<ellipse fill="#f070d1" stroke="black" cx="1345" cy="-1245.14" rx="63.8675" ry="18"/>
<ellipse fill="none" stroke="black" cx="1345" cy="-1245.14" rx="67.8784" ry="22"/>
<ellipse fill="none" stroke="black" cx="1345" cy="-1245.14" rx="71.8892" ry="26"/>
<text text-anchor="middle" x="1345" y="-1241.44" font-family="Times,serif" font-size="14.00">trunctype_type</text>
</a>
</g>
</g>
<!-- Trunc_TruncType -->
<g id="node32" class="node"><title>Trunc_TruncType</title>
<g id="a_node32"><a xlink:href="Trunc.html#TruncType" xlink:title="TruncType">
<ellipse fill="#e2cdfa" stroke="black" cx="1197" cy="-1245.14" rx="50.0849" ry="18"/>
<ellipse fill="none" stroke="black" cx="1197" cy="-1245.14" rx="54.088" ry="22"/>
<ellipse fill="none" stroke="black" cx="1197" cy="-1245.14" rx="58.0912" ry="26"/>
<text text-anchor="middle" x="1197" y="-1241.44" font-family="Times,serif" font-size="14.00">TruncType</text>
</a>
</g>
</g>
<!-- Trunc_istruncmap_fiber -->
<g id="node33" class="node"><title>Trunc_istruncmap_fiber</title>
<g id="a_node33"><a xlink:href="Trunc.html#istruncmap_fiber" xlink:title="istruncmap_fiber">
<ellipse fill="#f070d1" stroke="black" cx="1041" cy="-1245.14" rx="71.488" ry="18"/>
<ellipse fill="none" stroke="black" cx="1041" cy="-1245.14" rx="75.4876" ry="22"/>
<ellipse fill="none" stroke="black" cx="1041" cy="-1245.14" rx="79.4873" ry="26"/>
<text text-anchor="middle" x="1041" y="-1241.44" font-family="Times,serif" font-size="14.00">istruncmap_fiber</text>
</a>
</g>
</g>
<!-- Trunc_IsTruncMap -->
<g id="node34" class="node"><title>Trunc_IsTruncMap</title>
<g id="a_node34"><a xlink:href="Trunc.html#IsTruncMap" xlink:title="IsTruncMap">
<ellipse fill="#f070d1" stroke="black" cx="1041" cy="-1002.14" rx="54.6905" ry="18"/>
<text text-anchor="middle" x="1041" y="-998.444" font-family="Times,serif" font-size="14.00">IsTruncMap</text>
</a>
</g>
</g>
<!-- Trunc_istruncmap_fiber&#45;&gt;Trunc_IsTruncMap -->
<g id="edge29" class="edge"><title>Trunc_istruncmap_fiber&#45;&gt;Trunc_IsTruncMap</title>
<path fill="none" stroke="black" d="M1041,-1219.14C1041,-1173.25 1041,-1078.26 1041,-1030.65"/>
<polygon fill="black" stroke="black" points="1044.5,-1030.43 1041,-1020.43 1037.5,-1030.43 1044.5,-1030.43"/>
</g>
<!-- Trunc_trunc_equiv_ -->
<g id="node35" class="node"><title>Trunc_trunc_equiv_</title>
<g id="a_node35"><a xlink:href="Trunc.html#trunc_equiv'" xlink:title="trunc_equiv&#39;">
<ellipse fill="#f070d1" stroke="black" cx="882" cy="-1245.14" rx="53.8975" ry="18"/>
<ellipse fill="none" stroke="black" cx="882" cy="-1245.14" rx="57.894" ry="22"/>
<ellipse fill="none" stroke="black" cx="882" cy="-1245.14" rx="61.8905" ry="26"/>
<text text-anchor="middle" x="882" y="-1241.44" font-family="Times,serif" font-size="14.00">trunc_equiv&#39;</text>
</a>
</g>
</g>
<!-- Trunc_trunc_equiv -->
<g id="node36" class="node"><title>Trunc_trunc_equiv</title>
<g id="a_node36"><a xlink:href="Trunc.html#trunc_equiv" xlink:title="trunc_equiv">
<ellipse fill="#facdef" stroke="black" cx="882" cy="-1002.14" rx="52.7911" ry="18"/>
<text text-anchor="middle" x="882" y="-998.444" font-family="Times,serif" font-size="14.00">trunc_equiv</text>
</a>
</g>
</g>
<!-- Trunc_trunc_equiv_&#45;&gt;Trunc_trunc_equiv -->
<g id="edge30" class="edge"><title>Trunc_trunc_equiv_&#45;&gt;Trunc_trunc_equiv</title>
<path fill="none" stroke="black" d="M882,-1219.14C882,-1173.25 882,-1078.26 882,-1030.65"/>
<polygon fill="black" stroke="black" points="885.5,-1030.43 882,-1020.43 878.5,-1030.43 885.5,-1030.43"/>
</g>
<!-- Trunc_trunc_hset -->
<g id="node37" class="node"><title>Trunc_trunc_hset</title>
<g id="a_node37"><a xlink:href="Trunc.html#trunc_hset" xlink:title="trunc_hset">
<ellipse fill="#f070d1" stroke="black" cx="468" cy="-1245.14" rx="47.3994" ry="18"/>
<ellipse fill="none" stroke="black" cx="468" cy="-1245.14" rx="51.3955" ry="22"/>
<ellipse fill="none" stroke="black" cx="468" cy="-1245.14" rx="55.3916" ry="26"/>
<text text-anchor="middle" x="468" y="-1241.44" font-family="Times,serif" font-size="14.00">trunc_hset</text>
</a>
</g>
</g>
<!-- Trunc_trunc_leq -->
<g id="node40" class="node"><title>Trunc_trunc_leq</title>
<g id="a_node40"><a xlink:href="Trunc.html#trunc_leq" xlink:title="trunc_leq">
<ellipse fill="#f070d1" stroke="black" cx="601" cy="-1002.14" rx="44.393" ry="18"/>
<text text-anchor="middle" x="601" y="-998.444" font-family="Times,serif" font-size="14.00">trunc_leq</text>
</a>
</g>
</g>
<!-- Trunc_trunc_hset&#45;&gt;Trunc_trunc_leq -->
<g id="edge31" class="edge"><title>Trunc_trunc_hset&#45;&gt;Trunc_trunc_leq</title>
<path fill="none" stroke="black" d="M481.982,-1219.6C507.314,-1173.31 560.563,-1076.03 586.366,-1028.88"/>
<polygon fill="black" stroke="black" points="589.559,-1030.34 591.29,-1019.88 583.419,-1026.98 589.559,-1030.34"/>
</g>
<!-- Trunc_trunc_hprop -->
<g id="node38" class="node"><title>Trunc_trunc_hprop</title>
<g id="a_node38"><a xlink:href="Trunc.html#trunc_hprop" xlink:title="trunc_hprop">
<ellipse fill="#f070d1" stroke="black" cx="740" cy="-1245.14" rx="53.8975" ry="18"/>
<ellipse fill="none" stroke="black" cx="740" cy="-1245.14" rx="57.894" ry="22"/>
<ellipse fill="none" stroke="black" cx="740" cy="-1245.14" rx="61.8905" ry="26"/>
<text text-anchor="middle" x="740" y="-1241.44" font-family="Times,serif" font-size="14.00">trunc_hprop</text>
</a>
</g>
</g>
<!-- Trunc_trunc_hprop&#45;&gt;Trunc_trunc_leq -->
<g id="edge32" class="edge"><title>Trunc_trunc_hprop&#45;&gt;Trunc_trunc_leq</title>
<path fill="none" stroke="black" d="M725.387,-1219.6C698.857,-1173.22 643.029,-1075.62 616.126,-1028.59"/>
<polygon fill="black" stroke="black" points="619.151,-1026.83 611.148,-1019.88 613.075,-1030.3 619.151,-1026.83"/>
</g>
<!-- Trunc_trunc_contr -->
<g id="node39" class="node"><title>Trunc_trunc_contr</title>
<g id="a_node39"><a xlink:href="Trunc.html#trunc_contr" xlink:title="trunc_contr">
<ellipse fill="#f070d1" stroke="black" cx="601" cy="-1245.14" rx="51.2121" ry="18"/>
<ellipse fill="none" stroke="black" cx="601" cy="-1245.14" rx="55.2017" ry="22"/>
<ellipse fill="none" stroke="black" cx="601" cy="-1245.14" rx="59.1913" ry="26"/>
<text text-anchor="middle" x="601" y="-1241.44" font-family="Times,serif" font-size="14.00">trunc_contr</text>
</a>
</g>
</g>
<!-- Trunc_trunc_contr&#45;&gt;Trunc_trunc_leq -->
<g id="edge33" class="edge"><title>Trunc_trunc_contr&#45;&gt;Trunc_trunc_leq</title>
<path fill="none" stroke="black" d="M601,-1219.14C601,-1173.25 601,-1078.26 601,-1030.65"/>
<polygon fill="black" stroke="black" points="604.5,-1030.43 601,-1020.43 597.5,-1030.43 604.5,-1030.43"/>
</g>
<!-- Trunc_trunc_succ -->
<g id="node41" class="node"><title>Trunc_trunc_succ</title>
<g id="a_node41"><a xlink:href="Trunc.html#trunc_succ" xlink:title="trunc_succ">
<ellipse fill="#facdef" stroke="black" cx="534" cy="-758.144" rx="48.9926" ry="18"/>
<text text-anchor="middle" x="534" y="-754.444" font-family="Times,serif" font-size="14.00">trunc_succ</text>
</a>
</g>
</g>
<!-- Trunc_trunc_leq&#45;&gt;Trunc_trunc_succ -->
<g id="edge34" class="edge"><title>Trunc_trunc_leq&#45;&gt;Trunc_trunc_succ</title>
<path fill="none" stroke="black" d="M596.073,-984.202C584.506,-942.075 555.541,-836.59 541.656,-786.026"/>
<polygon fill="black" stroke="black" points="544.957,-784.828 538.934,-776.112 538.207,-786.682 544.957,-784.828"/>
</g>
<!-- Trunc_trunc_index_leq -->
<g id="node43" class="node"><title>Trunc_trunc_index_leq</title>
<g id="a_node43"><a xlink:href="Trunc.html#trunc_index_leq" xlink:title="trunc_index_leq">
<ellipse fill="#f070d1" stroke="black" cx="668" cy="-758.144" rx="67.6881" ry="18"/>
<text text-anchor="middle" x="668" y="-754.444" font-family="Times,serif" font-size="14.00">trunc_index_leq</text>
</a>
</g>
</g>
<!-- Trunc_trunc_leq&#45;&gt;Trunc_trunc_index_leq -->
<g id="edge35" class="edge"><title>Trunc_trunc_leq&#45;&gt;Trunc_trunc_index_leq</title>
<path fill="none" stroke="black" d="M605.927,-984.202C617.494,-942.075 646.459,-836.59 660.344,-786.026"/>
<polygon fill="black" stroke="black" points="663.793,-786.682 663.066,-776.112 657.043,-784.828 663.793,-786.682"/>
</g>
<!-- Trunc_contr_trunc_minus_two -->
<g id="node42" class="node"><title>Trunc_contr_trunc_minus_two</title>
<g id="a_node42"><a xlink:href="Trunc.html#contr_trunc_minus_two" xlink:title="contr_trunc_minus_two">
<ellipse fill="#f070d1" stroke="black" cx="292" cy="-1245.14" rx="94.7917" ry="18"/>
<ellipse fill="none" stroke="black" cx="292" cy="-1245.14" rx="98.7875" ry="22"/>
<ellipse fill="none" stroke="black" cx="292" cy="-1245.14" rx="102.783" ry="26"/>
<text text-anchor="middle" x="292" y="-1241.44" font-family="Times,serif" font-size="14.00">contr_trunc_minus_two</text>
</a>
</g>
</g>
<!-- Trunc_trunc_index_add -->
<g id="node44" class="node"><title>Trunc_trunc_index_add</title>
<g id="a_node44"><a xlink:href="Trunc.html#trunc_index_add" xlink:title="trunc_index_add">
<ellipse fill="#f070d1" stroke="black" cx="94" cy="-1245.14" rx="69.5832" ry="18"/>
<ellipse fill="none" stroke="black" cx="94" cy="-1245.14" rx="73.5854" ry="22"/>
<ellipse fill="none" stroke="black" cx="94" cy="-1245.14" rx="77.5877" ry="26"/>
<text text-anchor="middle" x="94" y="-1241.44" font-family="Times,serif" font-size="14.00">trunc_index_add</text>
</a>
</g>
</g>
</g>
</svg>
