<?xml version="1.0" encoding="UTF-8" standalone="no"?>
<!DOCTYPE svg PUBLIC "-//W3C//DTD SVG 1.1//EN"
 "http://www.w3.org/Graphics/SVG/1.1/DTD/svg11.dtd">
<!-- Generated by graphviz version 2.26.3 (20100126.1600)
 -->
<!-- Title: HoTT_Types_Arrow Pages: 1 -->
<svg width="4648pt" height="2328pt"
 viewBox="0.00 0.00 4648.00 2328.00" xmlns="http://www.w3.org/2000/svg" xmlns:xlink="http://www.w3.org/1999/xlink">
<g id="graph1" class="graph" transform="scale(1 1) rotate(0) translate(4 2324)">
<title>HoTT_Types_Arrow</title>
<polygon fill="white" stroke="white" points="-4,5 -4,-2324 4645,-2324 4645,5 -4,5"/>
<g id="graph2" class="cluster"><title>cluster_Arrow</title>
<polygon fill="#ffffc3" stroke="black" points="8,-71.3846 8,-2248.62 4632,-2248.62 4632,-71.3846 8,-71.3846"/>
<text text-anchor="middle" x="37.5" y="-2232.02" font-family="Times Roman,serif" font-size="14.00">Arrow</text>
</g>
<!-- Arrow_equiv_functor_arrow_ -->
<g id="node1" class="node"><title>Arrow_equiv_functor_arrow_</title>
<a xlink:href="Arrow.html#equiv_functor_arrow&#39;" xlink:title="equiv_functor_arrow&#39;">
<ellipse fill="#f070d1" stroke="black" cx="4501" cy="-1704.38" rx="114.792" ry="18.3848"/>
<ellipse fill="none" stroke="black" cx="4501" cy="-1704.38" rx="118.776" ry="22.3848"/>
<ellipse fill="none" stroke="black" cx="4501" cy="-1704.38" rx="122.759" ry="26.3848"/>
<text text-anchor="middle" x="4501" y="-1700.78" font-family="Times Roman,serif" font-size="14.00">equiv_functor_arrow&#39;</text>
</a>
</g>
<!-- Arrow_equiv_functor_arrow -->
<g id="node2" class="node"><title>Arrow_equiv_functor_arrow</title>
<a xlink:href="Arrow.html#equiv_functor_arrow" xlink:title="equiv_functor_arrow">
<ellipse fill="#f070d1" stroke="black" cx="4239" cy="-1704.38" rx="113.137" ry="18.3848"/>
<ellipse fill="none" stroke="black" cx="4239" cy="-1704.38" rx="117.137" ry="22.3848"/>
<ellipse fill="none" stroke="black" cx="4239" cy="-1704.38" rx="121.137" ry="26.3848"/>
<text text-anchor="middle" x="4239" y="-1700.78" font-family="Times Roman,serif" font-size="14.00">equiv_functor_arrow</text>
</a>
</g>
<!-- Arrow_isequiv_functor_arrow -->
<g id="node3" class="node"><title>Arrow_isequiv_functor_arrow</title>
<a xlink:href="Arrow.html#isequiv_functor_arrow" xlink:title="isequiv_functor_arrow">
<ellipse fill="#f070d1" stroke="black" cx="3972" cy="-1704.38" rx="120.208" ry="18.3848"/>
<ellipse fill="none" stroke="black" cx="3972" cy="-1704.38" rx="124.208" ry="22.3848"/>
<ellipse fill="none" stroke="black" cx="3972" cy="-1704.38" rx="128.208" ry="26.3848"/>
<text text-anchor="middle" x="3972" y="-1700.78" font-family="Times Roman,serif" font-size="14.00">isequiv_functor_arrow</text>
</a>
</g>
<!-- Arrow_trunc_arrow -->
<g id="node4" class="node"><title>Arrow_trunc_arrow</title>
<a xlink:href="Arrow.html#trunc_arrow" xlink:title="trunc_arrow">
<ellipse fill="#f070d1" stroke="black" cx="3746" cy="-1704.38" rx="72.1249" ry="18.3848"/>
<ellipse fill="none" stroke="black" cx="3746" cy="-1704.38" rx="76.1249" ry="22.3848"/>
<ellipse fill="none" stroke="black" cx="3746" cy="-1704.38" rx="80.1249" ry="26.3848"/>
<text text-anchor="middle" x="3746" y="-1700.78" font-family="Times Roman,serif" font-size="14.00">trunc_arrow</text>
</a>
</g>
<!-- Arrow_contr_arrow -->
<g id="node5" class="node"><title>Arrow_contr_arrow</title>
<a xlink:href="Arrow.html#contr_arrow" xlink:title="contr_arrow">
<ellipse fill="#f070d1" stroke="black" cx="3569" cy="-1704.38" rx="70.9686" ry="18.3848"/>
<ellipse fill="none" stroke="black" cx="3569" cy="-1704.38" rx="74.9435" ry="22.3848"/>
<ellipse fill="none" stroke="black" cx="3569" cy="-1704.38" rx="78.9183" ry="26.3848"/>
<text text-anchor="middle" x="3569" y="-1700.78" font-family="Times Roman,serif" font-size="14.00">contr_arrow</text>
</a>
</g>
<!-- Arrow_ap_functor_arrow -->
<g id="node6" class="node"><title>Arrow_ap_functor_arrow</title>
<a xlink:href="Arrow.html#ap_functor_arrow" xlink:title="ap_functor_arrow">
<ellipse fill="#f070d1" stroke="black" cx="3366" cy="-1704.38" rx="97.8264" ry="18.3848"/>
<ellipse fill="none" stroke="black" cx="3366" cy="-1704.38" rx="101.808" ry="22.3848"/>
<ellipse fill="none" stroke="black" cx="3366" cy="-1704.38" rx="105.789" ry="26.3848"/>
<text text-anchor="middle" x="3366" y="-1700.78" font-family="Times Roman,serif" font-size="14.00">ap_functor_arrow</text>
</a>
</g>
<!-- Arrow_functor_arrow -->
<g id="node7" class="node"><title>Arrow_functor_arrow</title>
<a xlink:href="Arrow.html#functor_arrow" xlink:title="functor_arrow">
<ellipse fill="#f070d1" stroke="black" cx="3153" cy="-1704.38" rx="80.863" ry="18.3848"/>
<ellipse fill="none" stroke="black" cx="3153" cy="-1704.38" rx="84.8406" ry="22.3848"/>
<ellipse fill="none" stroke="black" cx="3153" cy="-1704.38" rx="88.8183" ry="26.3848"/>
<text text-anchor="middle" x="3153" y="-1700.78" font-family="Times Roman,serif" font-size="14.00">functor_arrow</text>
</a>
</g>
<!-- Arrow_ap_lambda -->
<g id="node8" class="node"><title>Arrow_ap_lambda</title>
<a xlink:href="Arrow.html#ap_lambda" xlink:title="ap_lambda">
<ellipse fill="#f070d1" stroke="black" cx="2975" cy="-1704.38" rx="63.1946" ry="18.3848"/>
<ellipse fill="none" stroke="black" cx="2975" cy="-1704.38" rx="67.1666" ry="22.3848"/>
<ellipse fill="none" stroke="black" cx="2975" cy="-1704.38" rx="71.1386" ry="26.3848"/>
<text text-anchor="middle" x="2975" y="-1700.78" font-family="Times Roman,serif" font-size="14.00">ap_lambda</text>
</a>
</g>
<!-- Arrow_path_arrow_1 -->
<g id="node22" class="node"><title>Arrow_path_arrow_1</title>
<a xlink:href="Arrow.html#path_arrow_1" xlink:title="path_arrow_1">
<ellipse fill="#f070d1" stroke="black" cx="2892" cy="-972.385" rx="79.9031" ry="18.3848"/>
<text text-anchor="middle" x="2892" y="-968.785" font-family="Times Roman,serif" font-size="14.00">path_arrow_1</text>
</a>
</g>
<!-- Arrow_ap_lambda&#45;&gt;Arrow_path_arrow_1 -->
<g id="edge2" class="edge"><title>Arrow_ap_lambda&#45;&gt;Arrow_path_arrow_1</title>
<path fill="none" stroke="black" d="M2972,-1677.9C2959.12,-1564.31 2908.6,-1118.79 2895.25,-1001.05"/>
<polygon fill="black" stroke="black" points="2898.72,-1000.55 2894.11,-991.004 2891.76,-1001.33 2898.72,-1000.55"/>
</g>
<!-- Arrow_path_arrow -->
<g id="node27" class="node"><title>Arrow_path_arrow</title>
<a xlink:href="Arrow.html#path_arrow" xlink:title="path_arrow">
<ellipse fill="#f070d1" stroke="black" cx="3058" cy="-972.385" rx="68.0887" ry="18.3848"/>
<text text-anchor="middle" x="3058" y="-968.785" font-family="Times Roman,serif" font-size="14.00">path_arrow</text>
</a>
</g>
<!-- Arrow_ap_lambda&#45;&gt;Arrow_path_arrow -->
<g id="edge4" class="edge"><title>Arrow_ap_lambda&#45;&gt;Arrow_path_arrow</title>
<path fill="none" stroke="black" d="M2978,-1677.9C2990.88,-1564.31 3041.4,-1118.79 3054.75,-1001.05"/>
<polygon fill="black" stroke="black" points="3058.24,-1001.33 3055.89,-991.004 3051.28,-1000.55 3058.24,-1001.33"/>
</g>
<!-- Arrow_ap_apply_FlFr -->
<g id="node9" class="node"><title>Arrow_ap_apply_FlFr</title>
<a xlink:href="Arrow.html#ap_apply_FlFr" xlink:title="ap_apply_FlFr">
<ellipse fill="#f070d1" stroke="black" cx="2800" cy="-1704.38" rx="77.7817" ry="18.3848"/>
<ellipse fill="none" stroke="black" cx="2800" cy="-1704.38" rx="81.7817" ry="22.3848"/>
<ellipse fill="none" stroke="black" cx="2800" cy="-1704.38" rx="85.7817" ry="26.3848"/>
<text text-anchor="middle" x="2800" y="-1700.78" font-family="Times Roman,serif" font-size="14.00">ap_apply_FlFr</text>
</a>
</g>
<!-- Arrow_ap_apply_Fr -->
<g id="node10" class="node"><title>Arrow_ap_apply_Fr</title>
<a xlink:href="Arrow.html#ap_apply_Fr" xlink:title="ap_apply_Fr">
<ellipse fill="#f070d1" stroke="black" cx="2619" cy="-1704.38" rx="68.8494" ry="18.3848"/>
<ellipse fill="none" stroke="black" cx="2619" cy="-1704.38" rx="72.8236" ry="22.3848"/>
<ellipse fill="none" stroke="black" cx="2619" cy="-1704.38" rx="76.7978" ry="26.3848"/>
<text text-anchor="middle" x="2619" y="-1700.78" font-family="Times Roman,serif" font-size="14.00">ap_apply_Fr</text>
</a>
</g>
<!-- Arrow_ap_apply_Fl -->
<g id="node11" class="node"><title>Arrow_ap_apply_Fl</title>
<a xlink:href="Arrow.html#ap_apply_Fl" xlink:title="ap_apply_Fl">
<ellipse fill="#f070d1" stroke="black" cx="2448" cy="-1704.38" rx="68.1411" ry="18.3848"/>
<ellipse fill="none" stroke="black" cx="2448" cy="-1704.38" rx="72.1149" ry="22.3848"/>
<ellipse fill="none" stroke="black" cx="2448" cy="-1704.38" rx="76.0888" ry="26.3848"/>
<text text-anchor="middle" x="2448" y="-1700.78" font-family="Times Roman,serif" font-size="14.00">ap_apply_Fl</text>
</a>
</g>
<!-- Arrow_ap_apply_l -->
<g id="node12" class="node"><title>Arrow_ap_apply_l</title>
<a xlink:href="Arrow.html#ap_apply_l" xlink:title="ap_apply_l">
<ellipse fill="#f070d1" stroke="black" cx="2283" cy="-1704.38" rx="62.9325" ry="18.3848"/>
<ellipse fill="none" stroke="black" cx="2283" cy="-1704.38" rx="66.9325" ry="22.3848"/>
<ellipse fill="none" stroke="black" cx="2283" cy="-1704.38" rx="70.9325" ry="26.3848"/>
<text text-anchor="middle" x="2283" y="-1700.78" font-family="Times Roman,serif" font-size="14.00">ap_apply_l</text>
</a>
</g>
<!-- Arrow_ap10_dpath_arrow -->
<g id="node13" class="node"><title>Arrow_ap10_dpath_arrow</title>
<a xlink:href="Arrow.html#ap10_dpath_arrow" xlink:title="ap10_dpath_arrow">
<ellipse fill="#f070d1" stroke="black" cx="2082" cy="-1704.38" rx="103.945" ry="18.3848"/>
<ellipse fill="none" stroke="black" cx="2082" cy="-1704.38" rx="107.945" ry="22.3848"/>
<ellipse fill="none" stroke="black" cx="2082" cy="-1704.38" rx="111.945" ry="26.3848"/>
<text text-anchor="middle" x="2082" y="-1700.78" font-family="Times Roman,serif" font-size="14.00">ap10_dpath_arrow</text>
</a>
</g>
<!-- Arrow_transport_arrow -->
<g id="node18" class="node"><title>Arrow_transport_arrow</title>
<a xlink:href="Arrow.html#transport_arrow" xlink:title="transport_arrow">
<ellipse fill="#f070d1" stroke="black" cx="2082" cy="-972.385" rx="91.9239" ry="18.3848"/>
<text text-anchor="middle" x="2082" y="-968.785" font-family="Times Roman,serif" font-size="14.00">transport_arrow</text>
</a>
</g>
<!-- Arrow_ap10_dpath_arrow&#45;&gt;Arrow_transport_arrow -->
<g id="edge6" class="edge"><title>Arrow_ap10_dpath_arrow&#45;&gt;Arrow_transport_arrow</title>
<path fill="none" stroke="black" d="M2082,-1677.46C2082,-1563.16 2082,-1118.49 2082,-1000.99"/>
<polygon fill="black" stroke="black" points="2085.5,-1000.96 2082,-990.965 2078.5,-1000.96 2085.5,-1000.96"/>
</g>
<!-- Arrow_dpath_arrow -->
<g id="node14" class="node"><title>Arrow_dpath_arrow</title>
<a xlink:href="Arrow.html#dpath_arrow" xlink:title="dpath_arrow">
<ellipse fill="#f070d1" stroke="black" cx="1870" cy="-1704.38" rx="74.2462" ry="18.3848"/>
<ellipse fill="none" stroke="black" cx="1870" cy="-1704.38" rx="78.2462" ry="22.3848"/>
<ellipse fill="none" stroke="black" cx="1870" cy="-1704.38" rx="82.2462" ry="26.3848"/>
<text text-anchor="middle" x="1870" y="-1700.78" font-family="Times Roman,serif" font-size="14.00">dpath_arrow</text>
</a>
</g>
<!-- Arrow_equiv_path_arrow -->
<g id="node19" class="node"><title>Arrow_equiv_path_arrow</title>
<a xlink:href="Arrow.html#equiv_path_arrow" xlink:title="equiv_path_arrow">
<ellipse fill="#f070d1" stroke="black" cx="1870" cy="-972.385" rx="99.9096" ry="18.3848"/>
<text text-anchor="middle" x="1870" y="-968.785" font-family="Times Roman,serif" font-size="14.00">equiv_path_arrow</text>
</a>
</g>
<!-- Arrow_dpath_arrow&#45;&gt;Arrow_equiv_path_arrow -->
<g id="edge8" class="edge"><title>Arrow_dpath_arrow&#45;&gt;Arrow_equiv_path_arrow</title>
<path fill="none" stroke="black" d="M1870,-1677.46C1870,-1563.16 1870,-1118.49 1870,-1000.99"/>
<polygon fill="black" stroke="black" points="1873.5,-1000.96 1870,-990.965 1866.5,-1000.96 1873.5,-1000.96"/>
</g>
<!-- Arrow_ap_transport_arrow_toconst -->
<g id="node15" class="node"><title>Arrow_ap_transport_arrow_toconst</title>
<a xlink:href="Arrow.html#ap_transport_arrow_toconst" xlink:title="ap_transport_arrow_toconst">
<ellipse fill="#f070d1" stroke="black" cx="1612" cy="-1704.38" rx="149.907" ry="18.3848"/>
<ellipse fill="none" stroke="black" cx="1612" cy="-1704.38" rx="153.907" ry="22.3848"/>
<ellipse fill="none" stroke="black" cx="1612" cy="-1704.38" rx="157.907" ry="26.3848"/>
<text text-anchor="middle" x="1612" y="-1700.78" font-family="Times Roman,serif" font-size="14.00">ap_transport_arrow_toconst</text>
</a>
</g>
<!-- Arrow_transport_arrow_toconst -->
<g id="node17" class="node"><title>Arrow_transport_arrow_toconst</title>
<a xlink:href="Arrow.html#transport_arrow_toconst" xlink:title="transport_arrow_toconst">
<ellipse fill="#f070d1" stroke="black" cx="1612" cy="-972.385" rx="132.936" ry="18.3848"/>
<text text-anchor="middle" x="1612" y="-968.785" font-family="Times Roman,serif" font-size="14.00">transport_arrow_toconst</text>
</a>
</g>
<!-- Arrow_ap_transport_arrow_toconst&#45;&gt;Arrow_transport_arrow_toconst -->
<g id="edge10" class="edge"><title>Arrow_ap_transport_arrow_toconst&#45;&gt;Arrow_transport_arrow_toconst</title>
<path fill="none" stroke="black" d="M1612,-1677.46C1612,-1563.16 1612,-1118.49 1612,-1000.99"/>
<polygon fill="black" stroke="black" points="1615.5,-1000.96 1612,-990.965 1608.5,-1000.96 1615.5,-1000.96"/>
</g>
<!-- Arrow_transport_arrow_fromconst -->
<g id="node16" class="node"><title>Arrow_transport_arrow_fromconst</title>
<a xlink:href="Arrow.html#transport_arrow_fromconst" xlink:title="transport_arrow_fromconst">
<ellipse fill="#f070d1" stroke="black" cx="1283" cy="-1704.38" rx="145.19" ry="18.3848"/>
<ellipse fill="none" stroke="black" cx="1283" cy="-1704.38" rx="149.176" ry="22.3848"/>
<ellipse fill="none" stroke="black" cx="1283" cy="-1704.38" rx="153.163" ry="26.3848"/>
<text text-anchor="middle" x="1283" y="-1700.78" font-family="Times Roman,serif" font-size="14.00">transport_arrow_fromconst</text>
</a>
</g>
<!-- Arrow_isequiv_path_arrow -->
<g id="node20" class="node"><title>Arrow_isequiv_path_arrow</title>
<a xlink:href="Arrow.html#isequiv_path_arrow" xlink:title="isequiv_path_arrow">
<ellipse fill="#f070d1" stroke="black" cx="997" cy="-1704.38" rx="107.015" ry="18.3848"/>
<ellipse fill="none" stroke="black" cx="997" cy="-1704.38" rx="110.998" ry="22.3848"/>
<ellipse fill="none" stroke="black" cx="997" cy="-1704.38" rx="114.98" ry="26.3848"/>
<text text-anchor="middle" x="997" y="-1700.78" font-family="Times Roman,serif" font-size="14.00">isequiv_path_arrow</text>
</a>
</g>
<!-- Arrow_equiv_ap10 -->
<g id="node21" class="node"><title>Arrow_equiv_ap10</title>
<a xlink:href="Arrow.html#equiv_ap10" xlink:title="equiv_ap10">
<ellipse fill="#f070d1" stroke="black" cx="788" cy="-1704.38" rx="67.8823" ry="18.3848"/>
<ellipse fill="none" stroke="black" cx="788" cy="-1704.38" rx="71.8823" ry="22.3848"/>
<ellipse fill="none" stroke="black" cx="788" cy="-1704.38" rx="75.8823" ry="26.3848"/>
<text text-anchor="middle" x="788" y="-1700.78" font-family="Times Roman,serif" font-size="14.00">equiv_ap10</text>
</a>
</g>
<!-- Arrow_eta_path_arrow -->
<g id="node23" class="node"><title>Arrow_eta_path_arrow</title>
<a xlink:href="Arrow.html#eta_path_arrow" xlink:title="eta_path_arrow">
<ellipse fill="#f070d1" stroke="black" cx="2892" cy="-312.385" rx="89.8026" ry="18.3848"/>
<text text-anchor="middle" x="2892" y="-308.785" font-family="Times Roman,serif" font-size="14.00">eta_path_arrow</text>
</a>
</g>
<!-- Arrow_path_arrow_1&#45;&gt;Arrow_eta_path_arrow -->
<g id="edge12" class="edge"><title>Arrow_path_arrow_1&#45;&gt;Arrow_eta_path_arrow</title>
<path fill="none" stroke="black" d="M2892,-953.695C2892,-861.322 2892,-453.487 2892,-341.13"/>
<polygon fill="black" stroke="black" points="2895.5,-340.911 2892,-330.911 2888.5,-340.911 2895.5,-340.911"/>
</g>
<!-- Arrow_ap10_path_forall -->
<g id="node24" class="node"><title>Arrow_ap10_path_forall</title>
<a xlink:href="Arrow.html#ap10_path_forall" xlink:title="ap10_path_forall">
<ellipse fill="#f070d1" stroke="black" cx="593" cy="-1704.38" rx="92.8783" ry="18.3848"/>
<ellipse fill="none" stroke="black" cx="593" cy="-1704.38" rx="96.8586" ry="22.3848"/>
<ellipse fill="none" stroke="black" cx="593" cy="-1704.38" rx="100.839" ry="26.3848"/>
<text text-anchor="middle" x="593" y="-1700.78" font-family="Times Roman,serif" font-size="14.00">ap10_path_forall</text>
</a>
</g>
<!-- Arrow_apD10_path_arrow -->
<g id="node25" class="node"><title>Arrow_apD10_path_arrow</title>
<a xlink:href="Arrow.html#apD10_path_arrow" xlink:title="apD10_path_arrow">
<ellipse fill="#f070d1" stroke="black" cx="360" cy="-1704.38" rx="106.066" ry="18.3848"/>
<ellipse fill="none" stroke="black" cx="360" cy="-1704.38" rx="110.066" ry="22.3848"/>
<ellipse fill="none" stroke="black" cx="360" cy="-1704.38" rx="114.066" ry="26.3848"/>
<text text-anchor="middle" x="360" y="-1700.78" font-family="Times Roman,serif" font-size="14.00">apD10_path_arrow</text>
</a>
</g>
<!-- Arrow_ap10_path_arrow -->
<g id="node26" class="node"><title>Arrow_ap10_path_arrow</title>
<a xlink:href="Arrow.html#ap10_path_arrow" xlink:title="ap10_path_arrow">
<ellipse fill="#f070d1" stroke="black" cx="122" cy="-1704.38" rx="97.8264" ry="18.3848"/>
<ellipse fill="none" stroke="black" cx="122" cy="-1704.38" rx="101.808" ry="22.3848"/>
<ellipse fill="none" stroke="black" cx="122" cy="-1704.38" rx="105.789" ry="26.3848"/>
<text text-anchor="middle" x="122" y="-1700.78" font-family="Times Roman,serif" font-size="14.00">ap10_path_arrow</text>
</a>
</g>
</g>
</svg>
