<?xml version="1.0" encoding="UTF-8" standalone="no"?>
<!DOCTYPE svg PUBLIC "-//W3C//DTD SVG 1.1//EN"
 "http://www.w3.org/Graphics/SVG/1.1/DTD/svg11.dtd">
<!-- Generated by graphviz version 2.39.20141222.0545 (20141222.0545)
 -->
<!-- Title: HoTT_Tactics_EvalIn Pages: 1 -->
<svg width="510pt" height="259pt"
 viewBox="0.00 0.00 510.00 259.00" xmlns="http://www.w3.org/2000/svg" xmlns:xlink="http://www.w3.org/1999/xlink">
<g id="graph0" class="graph" transform="scale(1 1) rotate(0) translate(4 255)">
<title>HoTT_Tactics_EvalIn</title>
<polygon fill="white" stroke="transparent" points="-4,4 -4,-255 506,-255 506,4 -4,4"/>
<g id="clust1" class="cluster"><title>cluster_EvalIn</title>
<polygon fill="#ffffc3" stroke="black" points="13.4765,-8 13.4765,-243 488.523,-243 488.523,-8 13.4765,-8"/>
<text text-anchor="middle" x="39.9765" y="-227.8" font-family="Times,serif" font-size="14.00">EvalIn</text>
</g>
<!-- EvalIn_dummy_rec -->
<g id="node1" class="node"><title>EvalIn_dummy_rec</title>
<g id="a_node1"><a xlink:href="EvalIn.html#dummy_rec" xlink:title="dummy_rec">
<ellipse fill="#f070d1" stroke="black" cx="370.604" cy="-186" rx="53.8975" ry="18"/>
<ellipse fill="none" stroke="black" cx="370.604" cy="-186" rx="57.894" ry="22"/>
<ellipse fill="none" stroke="black" cx="370.604" cy="-186" rx="61.8905" ry="26"/>
<text text-anchor="middle" x="370.604" y="-182.3" font-family="Times,serif" font-size="14.00">dummy_rec</text>
</a>
</g>
</g>
<!-- EvalIn_dummy_rect -->
<g id="node3" class="node"><title>EvalIn_dummy_rect</title>
<g id="a_node3"><a xlink:href="EvalIn.html#dummy_rect" xlink:title="dummy_rect">
<ellipse fill="#f070d1" stroke="black" cx="196.604" cy="-106" rx="55.7903" ry="18"/>
<text text-anchor="middle" x="196.604" y="-102.3" font-family="Times,serif" font-size="14.00">dummy_rect</text>
</a>
</g>
</g>
<!-- EvalIn_dummy_rec&#45;&gt;EvalIn_dummy_rect -->
<g id="edge1" class="edge"><title>EvalIn_dummy_rec&#45;&gt;EvalIn_dummy_rect</title>
<path fill="none" stroke="black" d="M328.483,-166.634C301.043,-154.018 265.399,-137.63 238.087,-125.072"/>
<polygon fill="black" stroke="black" points="239.348,-121.8 228.8,-120.803 236.424,-128.16 239.348,-121.8"/>
</g>
<!-- EvalIn_dummy_ind -->
<g id="node2" class="node"><title>EvalIn_dummy_ind</title>
<g id="a_node2"><a xlink:href="EvalIn.html#dummy_ind" xlink:title="dummy_ind">
<ellipse fill="#7fffd4" stroke="black" cx="131.604" cy="-186" rx="53.8975" ry="18"/>
<ellipse fill="none" stroke="black" cx="131.604" cy="-186" rx="57.894" ry="22"/>
<ellipse fill="none" stroke="black" cx="131.604" cy="-186" rx="61.8905" ry="26"/>
<text text-anchor="middle" x="131.604" y="-182.3" font-family="Times,serif" font-size="14.00">dummy_ind</text>
</a>
</g>
</g>
<!-- EvalIn_dummy_ind&#45;&gt;EvalIn_dummy_rect -->
<g id="edge2" class="edge"><title>EvalIn_dummy_ind&#45;&gt;EvalIn_dummy_rect</title>
<path fill="none" stroke="black" d="M151.814,-161.126C159.424,-151.76 168.087,-141.097 175.754,-131.661"/>
<polygon fill="black" stroke="black" points="178.594,-133.717 182.183,-123.748 173.161,-129.302 178.594,-133.717"/>
</g>
<!-- EvalIn_adummy -->
<g id="node4" class="node"><title>EvalIn_adummy</title>
<g id="a_node4"><a xlink:href="EvalIn.html#adummy" xlink:title="adummy">
<ellipse fill="#7faaff" stroke="black" cx="146.604" cy="-34" rx="42.4939" ry="18"/>
<text text-anchor="middle" x="146.604" y="-30.3" font-family="Times,serif" font-size="14.00">adummy</text>
</a>
</g>
</g>
<!-- EvalIn_dummy_rect&#45;&gt;EvalIn_adummy -->
<g id="edge3" class="edge"><title>EvalIn_dummy_rect&#45;&gt;EvalIn_adummy</title>
<path fill="none" stroke="black" d="M184.244,-88.2022C178.266,-79.5938 170.98,-69.1011 164.416,-59.6488"/>
<polygon fill="black" stroke="black" points="167.228,-57.5619 158.649,-51.3446 161.478,-61.5547 167.228,-57.5619"/>
</g>
<!-- EvalIn_dummy -->
<g id="node5" class="node"><title>EvalIn_dummy</title>
<g id="a_node5"><a xlink:href="EvalIn.html#dummy" xlink:title="dummy">
<ellipse fill="#e2cdfa" stroke="black" cx="313.604" cy="-34" rx="38.1938" ry="18"/>
<text text-anchor="middle" x="313.604" y="-30.3" font-family="Times,serif" font-size="14.00">dummy</text>
</a>
</g>
</g>
<!-- EvalIn_dummy_rect&#45;&gt;EvalIn_dummy -->
<g id="edge4" class="edge"><title>EvalIn_dummy_rect&#45;&gt;EvalIn_dummy</title>
<path fill="none" stroke="black" d="M222.57,-90.0209C239.927,-79.3399 262.886,-65.2113 281.404,-53.8153"/>
<polygon fill="black" stroke="black" points="283.412,-56.6893 290.094,-48.4674 279.743,-50.7277 283.412,-56.6893"/>
</g>
</g>
</svg>
