<?xml version="1.0" encoding="UTF-8" standalone="no"?>
<!DOCTYPE svg PUBLIC "-//W3C//DTD SVG 1.1//EN"
 "http://www.w3.org/Graphics/SVG/1.1/DTD/svg11.dtd">
<!-- Generated by graphviz version 2.26.3 (20100126.1600)
 -->
<!-- Title: HoTT_hit_Truncations Pages: 1 -->
<svg width="2344pt" height="1176pt"
 viewBox="0.00 0.00 2344.00 1176.00" xmlns="http://www.w3.org/2000/svg" xmlns:xlink="http://www.w3.org/1999/xlink">
<g id="graph1" class="graph" transform="scale(1 1) rotate(0) translate(4 1172)">
<title>HoTT_hit_Truncations</title>
<polygon fill="white" stroke="white" points="-4,5 -4,-1172 2341,-1172 2341,5 -4,5"/>
<g id="graph2" class="cluster"><title>cluster_Truncations</title>
<polygon fill="#ffffc3" stroke="black" points="8,-20.8571 8,-1147.14 2328,-1147.14 2328,-20.8571 8,-20.8571"/>
<text text-anchor="middle" x="56" y="-1130.54" font-family="Times Roman,serif" font-size="14.00">Truncations</text>
</g>
<g id="graph3" class="cluster"><title>cluster_Truncations_Trunc</title>
<polygon fill="#ffffa3" stroke="black" points="417,-41.7143 417,-464.071 769,-464.071 769,-41.7143 417,-41.7143"/>
<text text-anchor="middle" x="444" y="-447.471" font-family="Times Roman,serif" font-size="14.00">Trunc</text>
</g>
<!-- Truncations_Trunc_Trunc_ind -->
<g id="node1" class="node"><title>Truncations_Trunc_Trunc_ind</title>
<a xlink:href="Truncations.html#Trunc.Trunc_ind" xlink:title="Trunc_ind">
<ellipse fill="#f070d1" stroke="black" cx="483" cy="-325.857" rx="58.1882" ry="18.3848"/>
<text text-anchor="middle" x="483" y="-322.257" font-family="Times Roman,serif" font-size="14.00">Trunc_ind</text>
</a>
</g>
<!-- Truncations_Trunc_tr -->
<g id="node3" class="node"><title>Truncations_Trunc_tr</title>
<a xlink:href="Truncations.html#Trunc.tr" xlink:title="tr">
<ellipse fill="#7faaff" stroke="black" cx="734" cy="-111.857" rx="27" ry="18.3848"/>
<text text-anchor="middle" x="734" y="-108.257" font-family="Times Roman,serif" font-size="14.00">tr</text>
</a>
</g>
<!-- Truncations_Trunc_Trunc_ind&#45;&gt;Truncations_Trunc_tr -->
<g id="edge2" class="edge"><title>Truncations_Trunc_Trunc_ind&#45;&gt;Truncations_Trunc_tr</title>
<path fill="none" stroke="black" d="M503.54,-308.345C549.345,-269.292 659.706,-175.2 709.224,-132.981"/>
<polygon fill="black" stroke="black" points="711.568,-135.582 716.907,-126.431 707.026,-130.255 711.568,-135.582"/>
</g>
<!-- Truncations_Trunc_Trunc -->
<g id="node4" class="node"><title>Truncations_Trunc_Trunc</title>
<a xlink:href="Truncations.html#Trunc.Trunc" xlink:title="Trunc">
<ellipse fill="#e2cdfa" stroke="black" cx="651" cy="-111.857" rx="38.1838" ry="18.3848"/>
<text text-anchor="middle" x="651" y="-108.257" font-family="Times Roman,serif" font-size="14.00">Trunc</text>
</a>
</g>
<!-- Truncations_Trunc_Trunc_ind&#45;&gt;Truncations_Trunc_Trunc -->
<g id="edge4" class="edge"><title>Truncations_Trunc_Trunc_ind&#45;&gt;Truncations_Trunc_Trunc</title>
<path fill="none" stroke="black" d="M497.324,-307.612C527.303,-269.424 596.718,-181.003 631.043,-137.278"/>
<polygon fill="black" stroke="black" points="633.997,-139.184 637.419,-129.157 628.491,-134.862 633.997,-139.184"/>
</g>
<!-- Truncations_Trunc_istrunc_truncation -->
<g id="node2" class="node"><title>Truncations_Trunc_istrunc_truncation</title>
<a xlink:href="Truncations.html#Trunc.istrunc_truncation" xlink:title="istrunc_truncation">
<ellipse fill="#facdef" stroke="black" cx="660" cy="-325.857" rx="101.116" ry="18.3848"/>
<text text-anchor="middle" x="660" y="-322.257" font-family="Times Roman,serif" font-size="14.00">istrunc_truncation</text>
</a>
</g>
<!-- Truncations_isequiv_surj_emb -->
<g id="node5" class="node"><title>Truncations_isequiv_surj_emb</title>
<a xlink:href="Truncations.html#isequiv_surj_emb" xlink:title="isequiv_surj_emb">
<ellipse fill="#f070d1" stroke="black" cx="891" cy="-753.857" rx="94.7523" ry="18.3848"/>
<ellipse fill="none" stroke="black" cx="891" cy="-753.857" rx="98.7523" ry="22.3848"/>
<ellipse fill="none" stroke="black" cx="891" cy="-753.857" rx="102.752" ry="26.3848"/>
<text text-anchor="middle" x="891" y="-750.257" font-family="Times Roman,serif" font-size="14.00">isequiv_surj_emb</text>
</a>
</g>
<!-- Truncations_Tr -->
<g id="node22" class="node"><title>Truncations_Tr</title>
<a xlink:href="Truncations.html#Tr" xlink:title="Tr">
<ellipse fill="#f070d1" stroke="black" cx="808" cy="-539.857" rx="27" ry="18.3848"/>
<text text-anchor="middle" x="808" y="-536.257" font-family="Times Roman,serif" font-size="14.00">Tr</text>
</a>
</g>
<!-- Truncations_isequiv_surj_emb&#45;&gt;Truncations_Tr -->
<g id="edge6" class="edge"><title>Truncations_isequiv_surj_emb&#45;&gt;Truncations_Tr</title>
<path fill="none" stroke="black" d="M880.656,-727.187C864.798,-686.3 834.638,-608.538 818.617,-567.232"/>
<polygon fill="black" stroke="black" points="821.838,-565.857 814.959,-557.8 815.312,-568.389 821.838,-565.857"/>
</g>
<!-- Truncations_BuildIsSurjection -->
<g id="node6" class="node"><title>Truncations_BuildIsSurjection</title>
<a xlink:href="Truncations.html#BuildIsSurjection" xlink:title="BuildIsSurjection">
<ellipse fill="#f070d1" stroke="black" cx="552" cy="-987.857" rx="92.8783" ry="18.3848"/>
<ellipse fill="none" stroke="black" cx="552" cy="-987.857" rx="96.8586" ry="22.3848"/>
<ellipse fill="none" stroke="black" cx="552" cy="-987.857" rx="100.839" ry="26.3848"/>
<text text-anchor="middle" x="552" y="-984.257" font-family="Times Roman,serif" font-size="14.00">BuildIsSurjection</text>
</a>
</g>
<!-- Truncations_merely -->
<g id="node10" class="node"><title>Truncations_merely</title>
<a xlink:href="Truncations.html#merely" xlink:title="merely">
<ellipse fill="#f070d1" stroke="black" cx="725" cy="-753.857" rx="44.7575" ry="18.3848"/>
<text text-anchor="middle" x="725" y="-750.257" font-family="Times Roman,serif" font-size="14.00">merely</text>
</a>
</g>
<!-- Truncations_BuildIsSurjection&#45;&gt;Truncations_merely -->
<g id="edge8" class="edge"><title>Truncations_BuildIsSurjection&#45;&gt;Truncations_merely</title>
<path fill="none" stroke="black" d="M571.509,-961.469C604.882,-916.329 672.533,-824.824 705.737,-779.913"/>
<polygon fill="black" stroke="black" points="708.578,-781.957 711.709,-771.835 702.95,-777.795 708.578,-781.957"/>
</g>
<!-- Truncations_contr_inhab_prop -->
<g id="node7" class="node"><title>Truncations_contr_inhab_prop</title>
<a xlink:href="Truncations.html#contr_inhab_prop" xlink:title="contr_inhab_prop">
<ellipse fill="#f070d1" stroke="black" cx="1480" cy="-987.857" rx="96.8736" ry="18.3848"/>
<ellipse fill="none" stroke="black" cx="1480" cy="-987.857" rx="100.874" ry="22.3848"/>
<ellipse fill="none" stroke="black" cx="1480" cy="-987.857" rx="104.874" ry="26.3848"/>
<text text-anchor="middle" x="1480" y="-984.257" font-family="Times Roman,serif" font-size="14.00">contr_inhab_prop</text>
</a>
</g>
<!-- Truncations_contr_inhab_prop&#45;&gt;Truncations_merely -->
<g id="edge10" class="edge"><title>Truncations_contr_inhab_prop&#45;&gt;Truncations_merely</title>
<path fill="none" stroke="black" d="M1402.79,-969.811C1272.05,-938.208 999.772,-867.858 779,-780.857 773.315,-778.617 767.419,-775.997 761.703,-773.286"/>
<polygon fill="black" stroke="black" points="762.842,-769.946 752.322,-768.689 759.762,-776.232 762.842,-769.946"/>
</g>
<!-- Truncations_inO_tr_istrunc -->
<g id="node12" class="node"><title>Truncations_inO_tr_istrunc</title>
<a xlink:href="Truncations.html#inO_tr_istrunc" xlink:title="inO_tr_istrunc">
<ellipse fill="#f070d1" stroke="black" cx="1969" cy="-753.857" rx="80.8184" ry="18.3848"/>
<text text-anchor="middle" x="1969" y="-750.257" font-family="Times Roman,serif" font-size="14.00">inO_tr_istrunc</text>
</a>
</g>
<!-- Truncations_contr_inhab_prop&#45;&gt;Truncations_inO_tr_istrunc -->
<g id="edge12" class="edge"><title>Truncations_contr_inhab_prop&#45;&gt;Truncations_inO_tr_istrunc</title>
<path fill="none" stroke="black" d="M1529.13,-964.349C1624.45,-918.735 1833.14,-818.87 1924.58,-775.111"/>
<polygon fill="black" stroke="black" points="1926.33,-778.155 1933.84,-770.681 1923.31,-771.841 1926.33,-778.155"/>
</g>
<!-- Truncations_hor -->
<g id="node8" class="node"><title>Truncations_hor</title>
<a xlink:href="Truncations.html#hor" xlink:title="hor">
<ellipse fill="#f070d1" stroke="black" cx="833" cy="-987.857" rx="27.8968" ry="18.3848"/>
<ellipse fill="none" stroke="black" cx="833" cy="-987.857" rx="31.842" ry="22.3848"/>
<ellipse fill="none" stroke="black" cx="833" cy="-987.857" rx="35.7872" ry="26.3848"/>
<text text-anchor="middle" x="833" y="-984.257" font-family="Times Roman,serif" font-size="14.00">hor</text>
</a>
</g>
<!-- Truncations_hor&#45;&gt;Truncations_merely -->
<g id="edge14" class="edge"><title>Truncations_hor&#45;&gt;Truncations_merely</title>
<path fill="none" stroke="black" d="M821.237,-962.37C800.812,-918.117 758.957,-827.43 737.819,-781.631"/>
<polygon fill="black" stroke="black" points="740.886,-779.924 733.517,-772.311 734.53,-782.857 740.886,-779.924"/>
</g>
<!-- Truncations_hexists -->
<g id="node9" class="node"><title>Truncations_hexists</title>
<a xlink:href="Truncations.html#hexists" xlink:title="hexists">
<ellipse fill="#f070d1" stroke="black" cx="725" cy="-987.857" rx="45.9619" ry="18.3848"/>
<ellipse fill="none" stroke="black" cx="725" cy="-987.857" rx="49.9619" ry="22.3848"/>
<ellipse fill="none" stroke="black" cx="725" cy="-987.857" rx="53.9619" ry="26.3848"/>
<text text-anchor="middle" x="725" y="-984.257" font-family="Times Roman,serif" font-size="14.00">hexists</text>
</a>
</g>
<!-- Truncations_hexists&#45;&gt;Truncations_merely -->
<g id="edge16" class="edge"><title>Truncations_hexists&#45;&gt;Truncations_merely</title>
<path fill="none" stroke="black" d="M725,-961.014C725,-916.559 725,-828.043 725,-782.457"/>
<polygon fill="black" stroke="black" points="728.5,-782.365 725,-772.365 721.5,-782.365 728.5,-782.365"/>
</g>
<!-- Truncations_merely&#45;&gt;Truncations_Tr -->
<g id="edge18" class="edge"><title>Truncations_merely&#45;&gt;Truncations_Tr</title>
<path fill="none" stroke="black" d="M732.221,-735.24C746.857,-697.504 780.085,-611.83 797.266,-567.532"/>
<polygon fill="black" stroke="black" points="800.62,-568.565 800.973,-557.976 794.093,-566.033 800.62,-568.565"/>
</g>
<!-- Truncations_istrunc_inO_tr -->
<g id="node11" class="node"><title>Truncations_istrunc_inO_tr</title>
<a xlink:href="Truncations.html#istrunc_inO_tr" xlink:title="istrunc_inO_tr">
<ellipse fill="#f070d1" stroke="black" cx="573" cy="-753.857" rx="80.863" ry="18.3848"/>
<ellipse fill="none" stroke="black" cx="573" cy="-753.857" rx="84.8406" ry="22.3848"/>
<ellipse fill="none" stroke="black" cx="573" cy="-753.857" rx="88.8183" ry="26.3848"/>
<text text-anchor="middle" x="573" y="-750.257" font-family="Times Roman,serif" font-size="14.00">istrunc_inO_tr</text>
</a>
</g>
<!-- Truncations_istrunc_inO_tr&#45;&gt;Truncations_Tr -->
<g id="edge20" class="edge"><title>Truncations_istrunc_inO_tr&#45;&gt;Truncations_Tr</title>
<path fill="none" stroke="black" d="M600.88,-728.468C647.464,-686.047 740.318,-601.491 784.101,-561.62"/>
<polygon fill="black" stroke="black" points="786.646,-564.036 791.684,-554.715 781.933,-558.861 786.646,-564.036"/>
</g>
<!-- Truncations_equiv_Trunc_prod_cmp -->
<g id="node13" class="node"><title>Truncations_equiv_Trunc_prod_cmp</title>
<a xlink:href="Truncations.html#equiv_Trunc_prod_cmp" xlink:title="equiv_Trunc_prod_cmp">
<ellipse fill="#f070d1" stroke="black" cx="336" cy="-753.857" rx="121.861" ry="18.3848"/>
<ellipse fill="none" stroke="black" cx="336" cy="-753.857" rx="125.845" ry="22.3848"/>
<ellipse fill="none" stroke="black" cx="336" cy="-753.857" rx="129.83" ry="26.3848"/>
<text text-anchor="middle" x="336" y="-750.257" font-family="Times Roman,serif" font-size="14.00">equiv_Trunc_prod_cmp</text>
</a>
</g>
<!-- Truncations_equiv_Trunc_prod_cmp&#45;&gt;Truncations_Tr -->
<g id="edge22" class="edge"><title>Truncations_equiv_Trunc_prod_cmp&#45;&gt;Truncations_Tr</title>
<path fill="none" stroke="black" d="M389.685,-729.517C488.394,-684.763 695.904,-590.681 775.745,-554.481"/>
<polygon fill="black" stroke="black" points="777.608,-557.479 785.271,-550.162 774.718,-551.104 777.608,-557.479"/>
</g>
<!-- Truncations_isequiv_Trunc_functor -->
<g id="node14" class="node"><title>Truncations_isequiv_Trunc_functor</title>
<a xlink:href="Truncations.html#isequiv_Trunc_functor" xlink:title="isequiv_Trunc_functor">
<ellipse fill="#f070d1" stroke="black" cx="2194" cy="-753.857" rx="118.087" ry="18.3848"/>
<ellipse fill="none" stroke="black" cx="2194" cy="-753.857" rx="122.087" ry="22.3848"/>
<ellipse fill="none" stroke="black" cx="2194" cy="-753.857" rx="126.087" ry="26.3848"/>
<text text-anchor="middle" x="2194" y="-750.257" font-family="Times Roman,serif" font-size="14.00">isequiv_Trunc_functor</text>
</a>
</g>
<!-- Truncations_isequiv_Trunc_functor&#45;&gt;Truncations_Tr -->
<g id="edge24" class="edge"><title>Truncations_isequiv_Trunc_functor&#45;&gt;Truncations_Tr</title>
<path fill="none" stroke="black" d="M2104.07,-735.233C2089.04,-732.305 2073.6,-729.406 2059,-726.857 1581.03,-643.389 996.24,-564.703 845.056,-544.72"/>
<polygon fill="black" stroke="black" points="845.3,-541.222 834.928,-543.384 844.384,-548.162 845.3,-541.222"/>
</g>
<!-- Truncations_Trunc_functor_idmap -->
<g id="node15" class="node"><title>Truncations_Trunc_functor_idmap</title>
<a xlink:href="Truncations.html#Trunc_functor_idmap" xlink:title="Trunc_functor_idmap">
<ellipse fill="#f070d1" stroke="black" cx="1749" cy="-753.857" rx="113.137" ry="18.3848"/>
<ellipse fill="none" stroke="black" cx="1749" cy="-753.857" rx="117.137" ry="22.3848"/>
<ellipse fill="none" stroke="black" cx="1749" cy="-753.857" rx="121.137" ry="26.3848"/>
<text text-anchor="middle" x="1749" y="-750.257" font-family="Times Roman,serif" font-size="14.00">Trunc_functor_idmap</text>
</a>
</g>
<!-- Truncations_Trunc_functor_idmap&#45;&gt;Truncations_Tr -->
<g id="edge26" class="edge"><title>Truncations_Trunc_functor_idmap&#45;&gt;Truncations_Tr</title>
<path fill="none" stroke="black" d="M1664.66,-734.678C1466.82,-689.684 979.343,-578.824 843.595,-547.952"/>
<polygon fill="black" stroke="black" points="844.24,-544.51 833.713,-545.705 842.688,-551.335 844.24,-544.51"/>
</g>
<!-- Truncations_Trunc_functor_compose -->
<g id="node16" class="node"><title>Truncations_Trunc_functor_compose</title>
<a xlink:href="Truncations.html#Trunc_functor_compose" xlink:title="Trunc_functor_compose">
<ellipse fill="#f070d1" stroke="black" cx="1476" cy="-753.857" rx="125.865" ry="18.3848"/>
<ellipse fill="none" stroke="black" cx="1476" cy="-753.857" rx="129.865" ry="22.3848"/>
<ellipse fill="none" stroke="black" cx="1476" cy="-753.857" rx="133.865" ry="26.3848"/>
<text text-anchor="middle" x="1476" y="-750.257" font-family="Times Roman,serif" font-size="14.00">Trunc_functor_compose</text>
</a>
</g>
<!-- Truncations_Trunc_functor_compose&#45;&gt;Truncations_Tr -->
<g id="edge28" class="edge"><title>Truncations_Trunc_functor_compose&#45;&gt;Truncations_Tr</title>
<path fill="none" stroke="black" d="M1405.46,-731.259C1263.3,-685.716 947.018,-584.393 842.365,-550.866"/>
<polygon fill="black" stroke="black" points="843.219,-547.465 832.628,-547.747 841.084,-554.131 843.219,-547.465"/>
</g>
<!-- Truncations_Trunc_functor -->
<g id="node17" class="node"><title>Truncations_Trunc_functor</title>
<a xlink:href="Truncations.html#Trunc_functor" xlink:title="Trunc_functor">
<ellipse fill="#f070d1" stroke="black" cx="102" cy="-753.857" rx="78.0352" ry="18.3848"/>
<ellipse fill="none" stroke="black" cx="102" cy="-753.857" rx="82.012" ry="22.3848"/>
<ellipse fill="none" stroke="black" cx="102" cy="-753.857" rx="85.9889" ry="26.3848"/>
<text text-anchor="middle" x="102" y="-750.257" font-family="Times Roman,serif" font-size="14.00">Trunc_functor</text>
</a>
</g>
<!-- Truncations_Trunc_functor&#45;&gt;Truncations_Trunc_istrunc_truncation -->
<g id="edge30" class="edge"><title>Truncations_Trunc_functor&#45;&gt;Truncations_Trunc_istrunc_truncation</title>
<path fill="none" stroke="black" d="M134.412,-728.996C233.293,-653.152 530.307,-425.335 628.27,-350.195"/>
<polygon fill="black" stroke="black" points="630.514,-352.885 636.318,-344.022 626.253,-347.331 630.514,-352.885"/>
</g>
<!-- Truncations_Trunc_rec -->
<g id="node23" class="node"><title>Truncations_Trunc_rec</title>
<a xlink:href="Truncations.html#Trunc_rec" xlink:title="Trunc_rec">
<ellipse fill="#f070d1" stroke="black" cx="268" cy="-539.857" rx="58.1882" ry="18.3848"/>
<text text-anchor="middle" x="268" y="-536.257" font-family="Times Roman,serif" font-size="14.00">Trunc_rec</text>
</a>
</g>
<!-- Truncations_Trunc_functor&#45;&gt;Truncations_Trunc_rec -->
<g id="edge32" class="edge"><title>Truncations_Trunc_functor&#45;&gt;Truncations_Trunc_rec</title>
<path fill="none" stroke="black" d="M122.023,-728.044C153.89,-686.963 215.801,-607.15 247.786,-565.916"/>
<polygon fill="black" stroke="black" points="250.588,-568.015 253.951,-557.968 245.057,-563.724 250.588,-568.015"/>
</g>
<!-- Truncations_untrunc_istrunc -->
<g id="node18" class="node"><title>Truncations_untrunc_istrunc</title>
<a xlink:href="Truncations.html#untrunc_istrunc" xlink:title="untrunc_istrunc">
<ellipse fill="#f070d1" stroke="black" cx="1014" cy="-325.857" rx="89.0955" ry="18.3848"/>
<ellipse fill="none" stroke="black" cx="1014" cy="-325.857" rx="93.0955" ry="22.3848"/>
<ellipse fill="none" stroke="black" cx="1014" cy="-325.857" rx="97.0955" ry="26.3848"/>
<text text-anchor="middle" x="1014" y="-322.257" font-family="Times Roman,serif" font-size="14.00">untrunc_istrunc</text>
</a>
</g>
<!-- Truncations_untrunc_istrunc&#45;&gt;Truncations_Trunc_tr -->
<g id="edge34" class="edge"><title>Truncations_untrunc_istrunc&#45;&gt;Truncations_Trunc_tr</title>
<path fill="none" stroke="black" d="M981.332,-300.89C925.168,-257.964 811.408,-171.019 760.119,-131.82"/>
<polygon fill="black" stroke="black" points="762.226,-129.024 752.155,-125.733 757.975,-134.586 762.226,-129.024"/>
</g>
<!-- Truncations_untrunc_istrunc&#45;&gt;Truncations_Trunc_Trunc -->
<g id="edge36" class="edge"><title>Truncations_untrunc_istrunc&#45;&gt;Truncations_Trunc_Trunc</title>
<path fill="none" stroke="black" d="M973.065,-301.725C900.459,-258.921 750.526,-170.531 684.017,-131.321"/>
<polygon fill="black" stroke="black" points="685.594,-128.189 675.202,-126.125 682.039,-134.219 685.594,-128.189"/>
</g>
<!-- Truncations_isequiv_tr -->
<g id="node20" class="node"><title>Truncations_isequiv_tr</title>
<a xlink:href="Truncations.html#isequiv_tr" xlink:title="isequiv_tr">
<ellipse fill="#f070d1" stroke="black" cx="926" cy="-111.857" rx="58.8978" ry="18.3848"/>
<text text-anchor="middle" x="926" y="-108.257" font-family="Times Roman,serif" font-size="14.00">isequiv_tr</text>
</a>
</g>
<!-- Truncations_untrunc_istrunc&#45;&gt;Truncations_isequiv_tr -->
<g id="edge38" class="edge"><title>Truncations_untrunc_istrunc&#45;&gt;Truncations_isequiv_tr</title>
<path fill="none" stroke="black" d="M1003.03,-299.187C986.305,-258.507 954.566,-181.324 937.516,-139.862"/>
<polygon fill="black" stroke="black" points="940.655,-138.293 933.615,-130.376 934.181,-140.955 940.655,-138.293"/>
</g>
<!-- Truncations_equiv_tr -->
<g id="node19" class="node"><title>Truncations_equiv_tr</title>
<a xlink:href="Truncations.html#equiv_tr" xlink:title="equiv_tr">
<ellipse fill="#f070d1" stroke="black" cx="839" cy="-325.857" rx="51.8935" ry="18.3848"/>
<ellipse fill="none" stroke="black" cx="839" cy="-325.857" rx="55.8604" ry="22.3848"/>
<ellipse fill="none" stroke="black" cx="839" cy="-325.857" rx="59.8273" ry="26.3848"/>
<text text-anchor="middle" x="839" y="-322.257" font-family="Times Roman,serif" font-size="14.00">equiv_tr</text>
</a>
</g>
<!-- Truncations_equiv_tr&#45;&gt;Truncations_Trunc_tr -->
<g id="edge40" class="edge"><title>Truncations_equiv_tr&#45;&gt;Truncations_Trunc_tr</title>
<path fill="none" stroke="black" d="M826.125,-299.617C806.049,-258.699 767.49,-180.113 747.21,-138.781"/>
<polygon fill="black" stroke="black" points="750.251,-137.033 742.704,-129.597 743.967,-140.117 750.251,-137.033"/>
</g>
<!-- Truncations_equiv_tr&#45;&gt;Truncations_Trunc_Trunc -->
<g id="edge42" class="edge"><title>Truncations_equiv_tr&#45;&gt;Truncations_Trunc_Trunc</title>
<path fill="none" stroke="black" d="M817.066,-300.89C780.834,-259.647 708.904,-177.769 672.776,-136.645"/>
<polygon fill="black" stroke="black" points="675.279,-134.19 666.049,-128.988 670.02,-138.81 675.279,-134.19"/>
</g>
<!-- Truncations_equiv_tr&#45;&gt;Truncations_isequiv_tr -->
<g id="edge44" class="edge"><title>Truncations_equiv_tr&#45;&gt;Truncations_isequiv_tr</title>
<path fill="none" stroke="black" d="M849.668,-299.617C866.176,-259.009 897.768,-181.302 914.67,-139.727"/>
<polygon fill="black" stroke="black" points="917.912,-141.044 918.436,-130.462 911.428,-138.408 917.912,-141.044"/>
</g>
<!-- Truncations_trunc_iff_isequiv_truncation -->
<g id="node21" class="node"><title>Truncations_trunc_iff_isequiv_truncation</title>
<a xlink:href="Truncations.html#trunc_iff_isequiv_truncation" xlink:title="trunc_iff_isequiv_truncation">
<ellipse fill="#f070d1" stroke="black" cx="1168" cy="-753.857" rx="147.785" ry="18.3848"/>
<ellipse fill="none" stroke="black" cx="1168" cy="-753.857" rx="151.785" ry="22.3848"/>
<ellipse fill="none" stroke="black" cx="1168" cy="-753.857" rx="155.785" ry="26.3848"/>
<text text-anchor="middle" x="1168" y="-750.257" font-family="Times Roman,serif" font-size="14.00">trunc_iff_isequiv_truncation</text>
</a>
</g>
<!-- Truncations_trunc_iff_isequiv_truncation&#45;&gt;Truncations_Tr -->
<g id="edge46" class="edge"><title>Truncations_trunc_iff_isequiv_truncation&#45;&gt;Truncations_Tr</title>
<path fill="none" stroke="black" d="M1124.93,-728.256C1050.76,-684.162 900.757,-594.996 837.354,-557.306"/>
<polygon fill="black" stroke="black" points="839.031,-554.232 828.647,-552.13 835.454,-560.249 839.031,-554.232"/>
</g>
<!-- Truncations_Tr&#45;&gt;Truncations_Trunc_Trunc_ind -->
<g id="edge48" class="edge"><title>Truncations_Tr&#45;&gt;Truncations_Trunc_Trunc_ind</title>
<path fill="none" stroke="black" d="M787.095,-527.884C742.522,-502.123 635.254,-438.898 550,-378.857 537.12,-369.786 523.394,-359.118 511.741,-349.74"/>
<polygon fill="black" stroke="black" points="513.633,-346.768 503.664,-343.181 509.22,-352.202 513.633,-346.768"/>
</g>
<!-- Truncations_Tr&#45;&gt;Truncations_Trunc_istrunc_truncation -->
<g id="edge50" class="edge"><title>Truncations_Tr&#45;&gt;Truncations_Trunc_istrunc_truncation</title>
<path fill="none" stroke="black" d="M796.387,-523.065C770.833,-486.115 709.548,-397.501 678.58,-352.723"/>
<polygon fill="black" stroke="black" points="681.378,-350.615 672.811,-344.381 675.62,-354.596 681.378,-350.615"/>
</g>
<!-- Truncations_Trunc_rec&#45;&gt;Truncations_Trunc_Trunc_ind -->
<g id="edge52" class="edge"><title>Truncations_Trunc_rec&#45;&gt;Truncations_Trunc_Trunc_ind</title>
<path fill="none" stroke="black" d="M285.961,-521.98C324.314,-483.805 414.281,-394.257 458.116,-350.626"/>
<polygon fill="black" stroke="black" points="460.623,-353.068 465.241,-343.533 455.685,-348.107 460.623,-353.068"/>
</g>
</g>
</svg>
