<?xml version="1.0" encoding="UTF-8" standalone="no"?>
<!DOCTYPE svg PUBLIC "-//W3C//DTD SVG 1.1//EN"
 "http://www.w3.org/Graphics/SVG/1.1/DTD/svg11.dtd">
<!-- Generated by graphviz version 2.39.20161220.0128 (20161220.0128)
 -->
<!-- Title: HoTT_ObjectClassifier Pages: 1 -->
<svg width="830pt" height="419pt"
 viewBox="0.00 0.00 830.00 419.00" xmlns="http://www.w3.org/2000/svg" xmlns:xlink="http://www.w3.org/1999/xlink">
<g id="graph0" class="graph" transform="scale(1 1) rotate(0) translate(4 415)">
<title>HoTT_ObjectClassifier</title>
<polygon fill="#ffffff" stroke="transparent" points="-4,4 -4,-415 826,-415 826,4 -4,4"/>
<g id="clust1" class="cluster">
<title>cluster_ObjectClassifier</title>
<polygon fill="#ffffc3" stroke="#000000" points="8.3241,-8 8.3241,-403 813.6759,-403 813.6759,-8 8.3241,-8"/>
<text text-anchor="middle" x="60.3241" y="-387.8" font-family="Times,serif" font-size="14.00" fill="#000000">ObjectClassifier</text>
</g>
<!-- ObjectClassifier_PowisoPFam -->
<g id="node1" class="node">
<title>ObjectClassifier_PowisoPFam</title>
<g id="a_node1"><a xlink:href="ObjectClassifier.html#PowisoPFam" xlink:title="PowisoPFam">
<ellipse fill="#f070d1" stroke="#000000" cx="734.6127" cy="-346" rx="57.7089" ry="18"/>
<ellipse fill="none" stroke="#000000" cx="734.6127" cy="-346" rx="61.6995" ry="22"/>
<ellipse fill="none" stroke="#000000" cx="734.6127" cy="-346" rx="65.6901" ry="26"/>
<text text-anchor="middle" x="734.6127" y="-342.3" font-family="Times,serif" font-size="14.00" fill="#000000">PowisoPFam</text>
</a>
</g>
</g>
<!-- ObjectClassifier_Pfam2pow -->
<g id="node2" class="node">
<title>ObjectClassifier_Pfam2pow</title>
<g id="a_node2"><a xlink:href="ObjectClassifier.html#Pfam2pow" xlink:title="Pfam2pow">
<ellipse fill="#f070d1" stroke="#000000" cx="733.6127" cy="-266" rx="49.2915" ry="18"/>
<text text-anchor="middle" x="733.6127" y="-262.3" font-family="Times,serif" font-size="14.00" fill="#000000">Pfam2pow</text>
</a>
</g>
</g>
<!-- ObjectClassifier_PowisoPFam&#45;&gt;ObjectClassifier_Pfam2pow -->
<g id="edge1" class="edge">
<title>ObjectClassifier_PowisoPFam&#45;&gt;ObjectClassifier_Pfam2pow</title>
<path fill="none" stroke="#000000" d="M734.2852,-319.805C734.1827,-311.6026 734.0691,-302.5174 733.965,-294.1839"/>
<polygon fill="#000000" stroke="#000000" points="737.4644,-294.1087 733.8396,-284.1532 730.4649,-294.1962 737.4644,-294.1087"/>
</g>
<!-- ObjectClassifier_pow2Pfam -->
<g id="node4" class="node">
<title>ObjectClassifier_pow2Pfam</title>
<g id="a_node4"><a xlink:href="ObjectClassifier.html#pow2Pfam" xlink:title="pow2Pfam">
<ellipse fill="#f070d1" stroke="#000000" cx="739.6127" cy="-186" rx="49.2915" ry="18"/>
<text text-anchor="middle" x="739.6127" y="-182.3" font-family="Times,serif" font-size="14.00" fill="#000000">pow2Pfam</text>
</a>
</g>
</g>
<!-- ObjectClassifier_PowisoPFam&#45;&gt;ObjectClassifier_pow2Pfam -->
<g id="edge2" class="edge">
<title>ObjectClassifier_PowisoPFam&#45;&gt;ObjectClassifier_pow2Pfam</title>
<path fill="none" stroke="#000000" d="M763.9872,-322.5459C774.8363,-312.0464 785.8772,-298.7129 791.6127,-284 797.4239,-269.0926 797.0833,-263.0357 791.6127,-248 786.4333,-233.7647 776.3916,-220.5217 766.5025,-209.9607"/>
<polygon fill="#000000" stroke="#000000" points="768.9173,-207.4249 759.4004,-202.7687 763.9366,-212.3434 768.9173,-207.4249"/>
</g>
<!-- ObjectClassifier_Pfam2pow_pf -->
<g id="node3" class="node">
<title>ObjectClassifier_Pfam2pow_pf</title>
<g id="a_node3"><a xlink:href="ObjectClassifier.html#Pfam2pow_pf" xlink:title="Pfam2pow_pf">
<ellipse fill="#facdef" stroke="#000000" cx="605.6127" cy="-186" rx="61.1893" ry="18"/>
<text text-anchor="middle" x="605.6127" y="-182.3" font-family="Times,serif" font-size="14.00" fill="#000000">Pfam2pow_pf</text>
</a>
</g>
</g>
<!-- ObjectClassifier_Pfam2pow&#45;&gt;ObjectClassifier_Pfam2pow_pf -->
<g id="edge3" class="edge">
<title>ObjectClassifier_Pfam2pow&#45;&gt;ObjectClassifier_Pfam2pow_pf</title>
<path fill="none" stroke="#000000" d="M708.6291,-250.3853C689.19,-238.2358 661.9852,-221.2329 640.4137,-207.7506"/>
<polygon fill="#000000" stroke="#000000" points="642.1883,-204.7324 631.8533,-202.4004 638.4782,-210.6684 642.1883,-204.7324"/>
</g>
<!-- ObjectClassifier_PFam -->
<g id="node6" class="node">
<title>ObjectClassifier_PFam</title>
<g id="a_node6"><a xlink:href="ObjectClassifier.html#PFam" xlink:title="PFam">
<ellipse fill="#f070d1" stroke="#000000" cx="605.6127" cy="-106" rx="31.6951" ry="18"/>
<text text-anchor="middle" x="605.6127" y="-102.3" font-family="Times,serif" font-size="14.00" fill="#000000">PFam</text>
</a>
</g>
</g>
<!-- ObjectClassifier_Pfam2pow_pf&#45;&gt;ObjectClassifier_PFam -->
<g id="edge4" class="edge">
<title>ObjectClassifier_Pfam2pow_pf&#45;&gt;ObjectClassifier_PFam</title>
<path fill="none" stroke="#000000" d="M605.6127,-167.8468C605.6127,-157.9251 605.6127,-145.4167 605.6127,-134.2492"/>
<polygon fill="#000000" stroke="#000000" points="609.1128,-134.0814 605.6127,-124.0814 602.1128,-134.0814 609.1128,-134.0814"/>
</g>
<!-- ObjectClassifier_f2p -->
<g id="node14" class="node">
<title>ObjectClassifier_f2p</title>
<g id="a_node14"><a xlink:href="ObjectClassifier.html#f2p" xlink:title="f2p">
<ellipse fill="#f070d1" stroke="#000000" cx="450.6127" cy="-106" rx="27" ry="18"/>
<text text-anchor="middle" x="450.6127" y="-102.3" font-family="Times,serif" font-size="14.00" fill="#000000">f2p</text>
</a>
</g>
</g>
<!-- ObjectClassifier_Pfam2pow_pf&#45;&gt;ObjectClassifier_f2p -->
<g id="edge5" class="edge">
<title>ObjectClassifier_Pfam2pow_pf&#45;&gt;ObjectClassifier_f2p</title>
<path fill="none" stroke="#000000" d="M574.9896,-170.1946C547.8408,-156.1823 508.3985,-135.825 481.2465,-121.811"/>
<polygon fill="#000000" stroke="#000000" points="482.6868,-118.6157 472.1953,-117.1394 479.4763,-124.8361 482.6868,-118.6157"/>
</g>
<!-- ObjectClassifier_pow2Pfam_pf -->
<g id="node5" class="node">
<title>ObjectClassifier_pow2Pfam_pf</title>
<g id="a_node5"><a xlink:href="ObjectClassifier.html#pow2Pfam_pf" xlink:title="pow2Pfam_pf">
<ellipse fill="#facdef" stroke="#000000" cx="741.6127" cy="-106" rx="61.1893" ry="18"/>
<text text-anchor="middle" x="741.6127" y="-102.3" font-family="Times,serif" font-size="14.00" fill="#000000">pow2Pfam_pf</text>
</a>
</g>
</g>
<!-- ObjectClassifier_pow2Pfam&#45;&gt;ObjectClassifier_pow2Pfam_pf -->
<g id="edge6" class="edge">
<title>ObjectClassifier_pow2Pfam&#45;&gt;ObjectClassifier_pow2Pfam_pf</title>
<path fill="none" stroke="#000000" d="M740.0665,-167.8468C740.3145,-157.9251 740.6272,-145.4167 740.9064,-134.2492"/>
<polygon fill="#000000" stroke="#000000" points="744.4095,-134.1658 741.1606,-124.0814 737.4117,-133.9908 744.4095,-134.1658"/>
</g>
<!-- ObjectClassifier_p2f -->
<g id="node15" class="node">
<title>ObjectClassifier_p2f</title>
<g id="a_node15"><a xlink:href="ObjectClassifier.html#p2f" xlink:title="p2f">
<ellipse fill="#f070d1" stroke="#000000" cx="525.6127" cy="-106" rx="27" ry="18"/>
<text text-anchor="middle" x="525.6127" y="-102.3" font-family="Times,serif" font-size="14.00" fill="#000000">p2f</text>
</a>
</g>
</g>
<!-- ObjectClassifier_pow2Pfam&#45;&gt;ObjectClassifier_p2f -->
<g id="edge7" class="edge">
<title>ObjectClassifier_pow2Pfam&#45;&gt;ObjectClassifier_p2f</title>
<path fill="none" stroke="#000000" d="M707.2307,-172.3152C697.1592,-168.2021 685.9782,-163.7808 675.6127,-160 626.8895,-142.2284 612.9093,-142.9001 564.6127,-124 562.0953,-123.0149 559.5089,-121.9478 556.9235,-120.8418"/>
<polygon fill="#000000" stroke="#000000" points="558.2497,-117.6012 547.6897,-116.7424 555.4093,-123.9991 558.2497,-117.6012"/>
</g>
<!-- ObjectClassifier_Fam -->
<g id="node16" class="node">
<title>ObjectClassifier_Fam</title>
<g id="a_node16"><a xlink:href="ObjectClassifier.html#Fam" xlink:title="Fam">
<ellipse fill="#f070d1" stroke="#000000" cx="605.6127" cy="-34" rx="27" ry="18"/>
<text text-anchor="middle" x="605.6127" y="-30.3" font-family="Times,serif" font-size="14.00" fill="#000000">Fam</text>
</a>
</g>
</g>
<!-- ObjectClassifier_pow2Pfam&#45;&gt;ObjectClassifier_Fam -->
<g id="edge8" class="edge">
<title>ObjectClassifier_pow2Pfam&#45;&gt;ObjectClassifier_Fam</title>
<path fill="none" stroke="#000000" d="M719.1525,-169.4548C705.033,-157.5489 686.2429,-140.706 671.6127,-124 658.779,-109.3455 658.0606,-103.7608 646.6127,-88 639.5156,-78.2291 631.5221,-67.617 624.4904,-58.4072"/>
<polygon fill="#000000" stroke="#000000" points="627.219,-56.2137 618.3566,-50.4078 621.6641,-60.4731 627.219,-56.2137"/>
</g>
<!-- ObjectClassifier_IsPfibered -->
<g id="node7" class="node">
<title>ObjectClassifier_IsPfibered</title>
<g id="a_node7"><a xlink:href="ObjectClassifier.html#IsPfibered" xlink:title="IsPfibered">
<ellipse fill="#f070d1" stroke="#000000" cx="720.6127" cy="-34" rx="46.5926" ry="18"/>
<text text-anchor="middle" x="720.6127" y="-30.3" font-family="Times,serif" font-size="14.00" fill="#000000">IsPfibered</text>
</a>
</g>
</g>
<!-- ObjectClassifier_pow2Pfam_pf&#45;&gt;ObjectClassifier_IsPfibered -->
<g id="edge9" class="edge">
<title>ObjectClassifier_pow2Pfam_pf&#45;&gt;ObjectClassifier_IsPfibered</title>
<path fill="none" stroke="#000000" d="M736.3135,-87.8314C734.0079,-79.9266 731.2548,-70.4872 728.7025,-61.7365"/>
<polygon fill="#000000" stroke="#000000" points="731.9975,-60.5334 725.8374,-51.9134 725.2775,-62.4934 731.9975,-60.5334"/>
</g>
<!-- ObjectClassifier_PFam&#45;&gt;ObjectClassifier_IsPfibered -->
<g id="edge10" class="edge">
<title>ObjectClassifier_PFam&#45;&gt;ObjectClassifier_IsPfibered</title>
<path fill="none" stroke="#000000" d="M626.9738,-92.6261C643.8723,-82.0461 667.774,-67.0816 687.199,-54.9198"/>
<polygon fill="#000000" stroke="#000000" points="689.1493,-57.8283 695.7678,-49.555 685.4346,-51.8952 689.1493,-57.8283"/>
</g>
<!-- ObjectClassifier_PFam&#45;&gt;ObjectClassifier_Fam -->
<g id="edge11" class="edge">
<title>ObjectClassifier_PFam&#45;&gt;ObjectClassifier_Fam</title>
<path fill="none" stroke="#000000" d="M605.6127,-87.8314C605.6127,-80.131 605.6127,-70.9743 605.6127,-62.4166"/>
<polygon fill="#000000" stroke="#000000" points="609.1128,-62.4132 605.6127,-52.4133 602.1128,-62.4133 609.1128,-62.4132"/>
</g>
<!-- ObjectClassifier_objclasspb_is_fibrantreplacement -->
<g id="node8" class="node">
<title>ObjectClassifier_objclasspb_is_fibrantreplacement</title>
<g id="a_node8"><a xlink:href="ObjectClassifier.html#objclasspb_is_fibrantreplacement" xlink:title="objclasspb_is_fibrantreplacement">
<ellipse fill="#facdef" stroke="#000000" cx="447.6127" cy="-346" rx="129.1866" ry="18"/>
<ellipse fill="none" stroke="#000000" cx="447.6127" cy="-346" rx="133.1819" ry="22"/>
<ellipse fill="none" stroke="#000000" cx="447.6127" cy="-346" rx="137.1772" ry="26"/>
<text text-anchor="middle" x="447.6127" y="-342.3" font-family="Times,serif" font-size="14.00" fill="#000000">objclasspb_is_fibrantreplacement</text>
</a>
</g>
</g>
<!-- ObjectClassifier_help_objclasspb_is_fibrantreplacement2 -->
<g id="node9" class="node">
<title>ObjectClassifier_help_objclasspb_is_fibrantreplacement2</title>
<g id="a_node9"><a xlink:href="ObjectClassifier.html#help_objclasspb_is_fibrantreplacement2" xlink:title="help_objclasspb_is_fibrantreplacement2">
<ellipse fill="#f070d1" stroke="#000000" cx="175.6127" cy="-266" rx="153.2729" ry="18"/>
<text text-anchor="middle" x="175.6127" y="-262.3" font-family="Times,serif" font-size="14.00" fill="#000000">help_objclasspb_is_fibrantreplacement2</text>
</a>
</g>
</g>
<!-- ObjectClassifier_objclasspb_is_fibrantreplacement&#45;&gt;ObjectClassifier_help_objclasspb_is_fibrantreplacement2 -->
<g id="edge12" class="edge">
<title>ObjectClassifier_objclasspb_is_fibrantreplacement&#45;&gt;ObjectClassifier_help_objclasspb_is_fibrantreplacement2</title>
<path fill="none" stroke="#000000" d="M372.9277,-324.0338C332.1871,-312.0513 282.1621,-297.3381 242.6765,-285.7247"/>
<polygon fill="#000000" stroke="#000000" points="243.4582,-282.3064 232.877,-282.8424 241.483,-289.022 243.4582,-282.3064"/>
</g>
<!-- ObjectClassifier_help_objclasspb_is_fibrantreplacement -->
<g id="node10" class="node">
<title>ObjectClassifier_help_objclasspb_is_fibrantreplacement</title>
<g id="a_node10"><a xlink:href="ObjectClassifier.html#help_objclasspb_is_fibrantreplacement" xlink:title="help_objclasspb_is_fibrantreplacement">
<ellipse fill="#f070d1" stroke="#000000" cx="508.6127" cy="-266" rx="148.6738" ry="18"/>
<text text-anchor="middle" x="508.6127" y="-262.3" font-family="Times,serif" font-size="14.00" fill="#000000">help_objclasspb_is_fibrantreplacement</text>
</a>
</g>
</g>
<!-- ObjectClassifier_objclasspb_is_fibrantreplacement&#45;&gt;ObjectClassifier_help_objclasspb_is_fibrantreplacement -->
<g id="edge13" class="edge">
<title>ObjectClassifier_objclasspb_is_fibrantreplacement&#45;&gt;ObjectClassifier_help_objclasspb_is_fibrantreplacement</title>
<path fill="none" stroke="#000000" d="M467.2492,-320.2471C474.006,-311.3858 481.5809,-301.4515 488.3839,-292.5295"/>
<polygon fill="#000000" stroke="#000000" points="491.3378,-294.4279 494.618,-284.3536 485.7713,-290.1835 491.3378,-294.4279"/>
</g>
<!-- ObjectClassifier_topmap -->
<g id="node11" class="node">
<title>ObjectClassifier_topmap</title>
<g id="a_node11"><a xlink:href="ObjectClassifier.html#topmap" xlink:title="topmap">
<ellipse fill="#f070d1" stroke="#000000" cx="123.6127" cy="-346" rx="37.8596" ry="18"/>
<ellipse fill="none" stroke="#000000" cx="123.6127" cy="-346" rx="41.8769" ry="22"/>
<ellipse fill="none" stroke="#000000" cx="123.6127" cy="-346" rx="45.8942" ry="26"/>
<text text-anchor="middle" x="123.6127" y="-342.3" font-family="Times,serif" font-size="14.00" fill="#000000">topmap</text>
</a>
</g>
</g>
<!-- ObjectClassifier_FamequivPow -->
<g id="node12" class="node">
<title>ObjectClassifier_FamequivPow</title>
<g id="a_node12"><a xlink:href="ObjectClassifier.html#FamequivPow" xlink:title="FamequivPow">
<ellipse fill="#f070d1" stroke="#000000" cx="450.6127" cy="-186" rx="61.9618" ry="18"/>
<ellipse fill="none" stroke="#000000" cx="450.6127" cy="-186" rx="65.9758" ry="22"/>
<ellipse fill="none" stroke="#000000" cx="450.6127" cy="-186" rx="69.9899" ry="26"/>
<text text-anchor="middle" x="450.6127" y="-182.3" font-family="Times,serif" font-size="14.00" fill="#000000">FamequivPow</text>
</a>
</g>
</g>
<!-- ObjectClassifier_transport_exp -->
<g id="node13" class="node">
<title>ObjectClassifier_transport_exp</title>
<g id="a_node13"><a xlink:href="ObjectClassifier.html#transport_exp" xlink:title="transport_exp">
<ellipse fill="#facdef" stroke="#000000" cx="342.6127" cy="-106" rx="59.2899" ry="18"/>
<text text-anchor="middle" x="342.6127" y="-102.3" font-family="Times,serif" font-size="14.00" fill="#000000">transport_exp</text>
</a>
</g>
</g>
<!-- ObjectClassifier_FamequivPow&#45;&gt;ObjectClassifier_transport_exp -->
<g id="edge14" class="edge">
<title>ObjectClassifier_FamequivPow&#45;&gt;ObjectClassifier_transport_exp</title>
<path fill="none" stroke="#000000" d="M419.0843,-162.6456C404.7195,-152.005 387.7725,-139.4517 373.4874,-128.8702"/>
<polygon fill="#000000" stroke="#000000" points="375.5428,-126.037 365.4239,-122.8972 371.3761,-131.662 375.5428,-126.037"/>
</g>
<!-- ObjectClassifier_FamequivPow&#45;&gt;ObjectClassifier_f2p -->
<g id="edge15" class="edge">
<title>ObjectClassifier_FamequivPow&#45;&gt;ObjectClassifier_f2p</title>
<path fill="none" stroke="#000000" d="M450.6127,-159.805C450.6127,-151.6026 450.6127,-142.5174 450.6127,-134.1839"/>
<polygon fill="#000000" stroke="#000000" points="454.1128,-134.1532 450.6127,-124.1532 447.1128,-134.1533 454.1128,-134.1532"/>
</g>
<!-- ObjectClassifier_FamequivPow&#45;&gt;ObjectClassifier_p2f -->
<g id="edge16" class="edge">
<title>ObjectClassifier_FamequivPow&#45;&gt;ObjectClassifier_p2f</title>
<path fill="none" stroke="#000000" d="M473.932,-161.126C483.6636,-150.7456 494.8895,-138.7714 504.3872,-128.6404"/>
<polygon fill="#000000" stroke="#000000" points="506.974,-130.9987 511.26,-121.3095 501.8672,-126.2111 506.974,-130.9987"/>
</g>
<!-- ObjectClassifier_f2p&#45;&gt;ObjectClassifier_Fam -->
<g id="edge17" class="edge">
<title>ObjectClassifier_f2p&#45;&gt;ObjectClassifier_Fam</title>
<path fill="none" stroke="#000000" d="M472.8204,-95.6842C499.4084,-83.3336 544.1129,-62.5676 574.224,-48.5805"/>
<polygon fill="#000000" stroke="#000000" points="575.8513,-51.6839 583.4461,-44.2967 572.9023,-45.3353 575.8513,-51.6839"/>
</g>
</g>
</svg>
