<?xml version="1.0" encoding="UTF-8" standalone="no"?>
<!DOCTYPE svg PUBLIC "-//W3C//DTD SVG 1.1//EN"
 "http://www.w3.org/Graphics/SVG/1.1/DTD/svg11.dtd">
<!-- Generated by graphviz version 2.39.20141222.0545 (20141222.0545)
 -->
<!-- Title: HoTT_categories_FunctorCategory Pages: 1 -->
<svg width="4407pt" height="2208pt"
 viewBox="0.00 0.00 4407.00 2207.50" xmlns="http://www.w3.org/2000/svg" xmlns:xlink="http://www.w3.org/1999/xlink">
<g id="graph0" class="graph" transform="scale(1 1) rotate(0) translate(4 2203.5)">
<title>HoTT_categories_FunctorCategory</title>
<polygon fill="white" stroke="transparent" points="-4,4 -4,-2203.5 4403,-2203.5 4403,4 -4,4"/>
<g id="clust1" class="cluster"><title>cluster_FunctorCategory</title>
<polygon fill="#ffffc3" stroke="black" points="1419,-892.768 1419,-2159.6 3837,-2159.6 3837,-892.768 1419,-892.768"/>
<text text-anchor="middle" x="1473" y="-2144.4" font-family="Times,serif" font-size="14.00">FunctorCategory</text>
</g>
<g id="clust2" class="cluster"><title>cluster_Functorial</title>
<polygon fill="#ffffc3" stroke="black" points="3845,-892.768 3845,-1705.73 4009,-1705.73 4009,-892.768 3845,-892.768"/>
<text text-anchor="middle" x="3881" y="-1690.53" font-family="Times,serif" font-size="14.00">Functorial</text>
</g>
<g id="clust3" class="cluster"><title>cluster_Morphisms</title>
<polygon fill="#ffffc3" stroke="black" points="8,-39.9002 8,-1705.73 1411,-1705.73 1411,-39.9002 8,-39.9002"/>
<text text-anchor="middle" x="48" y="-1690.53" font-family="Times,serif" font-size="14.00">Morphisms</text>
</g>
<g id="clust4" class="cluster"><title>cluster_Core</title>
<polygon fill="#ffffc3" stroke="black" points="3738,-399.002 3738,-852.867 4128,-852.867 4128,-399.002 3738,-399.002"/>
<text text-anchor="middle" x="3759.5" y="-837.667" font-family="Times,serif" font-size="14.00">Core</text>
</g>
<g id="clust5" class="cluster"><title>cluster_Dual</title>
<polygon fill="#ffffc3" stroke="black" points="4201,-892.768 4201,-1665.83 4391,-1665.83 4391,-892.768 4201,-892.768"/>
<text text-anchor="middle" x="4222.5" y="-1650.63" font-family="Times,serif" font-size="14.00">Dual</text>
</g>
<!-- Morphisms_eta_idtoiso -->
<g id="node1" class="node"><title>Morphisms_eta_idtoiso</title>
<g id="a_node1"><a xlink:href="Morphisms.html#eta_idtoiso" xlink:title="eta_idtoiso">
<ellipse fill="#facdef" stroke="black" cx="65" cy="-1421.9" rx="49.2915" ry="18"/>
<text text-anchor="middle" x="65" y="-1418.2" font-family="Times,serif" font-size="14.00">eta_idtoiso</text>
</a>
</g>
</g>
<!-- Morphisms_idtoiso -->
<g id="node2" class="node"><title>Morphisms_idtoiso</title>
<g id="a_node2"><a xlink:href="Morphisms.html#idtoiso" xlink:title="idtoiso">
<ellipse fill="#f070d1" stroke="black" cx="218" cy="-1022.9" rx="34.394" ry="18"/>
<text text-anchor="middle" x="218" y="-1019.2" font-family="Times,serif" font-size="14.00">idtoiso</text>
</a>
</g>
</g>
<!-- Morphisms_eta_idtoiso&#45;&gt;Morphisms_idtoiso -->
<g id="edge1" class="edge"><title>Morphisms_eta_idtoiso&#45;&gt;Morphisms_idtoiso</title>
<path fill="none" stroke="black" d="M71.8713,-1403.98C96.1896,-1340.56 178.281,-1126.48 207.537,-1050.19"/>
<polygon fill="black" stroke="black" points="210.835,-1051.36 211.148,-1040.77 204.299,-1048.85 210.835,-1051.36"/>
</g>
<!-- Morphisms_idtoiso_subproof0 -->
<g id="node3" class="node"><title>Morphisms_idtoiso_subproof0</title>
<g id="a_node3"><a xlink:href="Morphisms.html#idtoiso_subproof0" xlink:title="idtoiso_subproof0">
<ellipse fill="#facdef" stroke="black" cx="767" cy="-568.9" rx="74.9875" ry="18"/>
<text text-anchor="middle" x="767" y="-565.2" font-family="Times,serif" font-size="14.00">idtoiso_subproof0</text>
</a>
</g>
</g>
<!-- Morphisms_idtoiso&#45;&gt;Morphisms_idtoiso_subproof0 -->
<g id="edge2" class="edge"><title>Morphisms_idtoiso&#45;&gt;Morphisms_idtoiso_subproof0</title>
<path fill="none" stroke="black" d="M236.581,-1007.53C317.47,-940.643 639.27,-674.527 738.028,-592.859"/>
<polygon fill="black" stroke="black" points="740.342,-595.487 745.818,-586.417 735.881,-590.093 740.342,-595.487"/>
</g>
<!-- Morphisms_idtoiso_subproof -->
<g id="node4" class="node"><title>Morphisms_idtoiso_subproof</title>
<g id="a_node4"><a xlink:href="Morphisms.html#idtoiso_subproof" xlink:title="idtoiso_subproof">
<ellipse fill="#facdef" stroke="black" cx="930" cy="-568.9" rx="70.3881" ry="18"/>
<text text-anchor="middle" x="930" y="-565.2" font-family="Times,serif" font-size="14.00">idtoiso_subproof</text>
</a>
</g>
</g>
<!-- Morphisms_idtoiso&#45;&gt;Morphisms_idtoiso_subproof -->
<g id="edge3" class="edge"><title>Morphisms_idtoiso&#45;&gt;Morphisms_idtoiso_subproof</title>
<path fill="none" stroke="black" d="M240.764,-1009.36C323.684,-959.866 616.963,-783.481 851,-625.9 867.066,-615.082 884.568,-602.536 899.006,-591.973"/>
<polygon fill="black" stroke="black" points="901.133,-594.753 907.118,-586.011 896.987,-589.112 901.133,-594.753"/>
</g>
<!-- Core_functor_category -->
<g id="node42" class="node"><title>Core_functor_category</title>
<g id="a_node42"><a xlink:href="Core.html#functor_category" xlink:title="functor_category">
<ellipse fill="#f070d1" stroke="black" cx="3817" cy="-568.9" rx="70.6878" ry="18"/>
<text text-anchor="middle" x="3817" y="-565.2" font-family="Times,serif" font-size="14.00">functor_category</text>
</a>
</g>
</g>
<!-- Morphisms_idtoiso&#45;&gt;Core_functor_category -->
<g id="edge4" class="edge"><title>Morphisms_idtoiso&#45;&gt;Core_functor_category</title>
<path fill="none" stroke="black" d="M238.624,-1008.33C245.728,-1003.97 253.933,-999.634 262,-996.9 940.33,-767.006 3277.81,-604.205 3737.99,-573.976"/>
<polygon fill="black" stroke="black" points="3738.44,-577.455 3748.19,-573.308 3737.98,-570.47 3738.44,-577.455"/>
</g>
<!-- Morphisms_idtoiso_natural_transformation -->
<g id="node5" class="node"><title>Morphisms_idtoiso_natural_transformation</title>
<g id="a_node5"><a xlink:href="Morphisms.html#idtoiso_natural_transformation" xlink:title="idtoiso_natural_transformation">
<ellipse fill="#f070d1" stroke="black" cx="843" cy="-169.9" rx="120.479" ry="18"/>
<text text-anchor="middle" x="843" y="-166.2" font-family="Times,serif" font-size="14.00">idtoiso_natural_transformation</text>
</a>
</g>
</g>
<!-- Morphisms_idtoiso_subproof0&#45;&gt;Morphisms_idtoiso_natural_transformation -->
<g id="edge5" class="edge"><title>Morphisms_idtoiso_subproof0&#45;&gt;Morphisms_idtoiso_natural_transformation</title>
<path fill="none" stroke="black" d="M770.463,-550.719C782.555,-487.236 822.959,-275.115 837.624,-198.125"/>
<polygon fill="black" stroke="black" points="841.084,-198.666 839.517,-188.188 834.207,-197.356 841.084,-198.666"/>
</g>
<!-- Morphisms_idtoiso_subproof&#45;&gt;Morphisms_idtoiso_natural_transformation -->
<g id="edge6" class="edge"><title>Morphisms_idtoiso_subproof&#45;&gt;Morphisms_idtoiso_natural_transformation</title>
<path fill="none" stroke="black" d="M926.036,-550.719C912.193,-487.236 865.942,-275.115 849.154,-198.125"/>
<polygon fill="black" stroke="black" points="852.538,-197.213 846.988,-188.188 845.698,-198.704 852.538,-197.213"/>
</g>
<!-- Morphisms_isisomorphism_natural_transformation -->
<g id="node6" class="node"><title>Morphisms_isisomorphism_natural_transformation</title>
<g id="a_node6"><a xlink:href="Morphisms.html#isisomorphism_natural_transformation" xlink:title="isisomorphism_natural_transformation">
<ellipse fill="#f070d1" stroke="black" cx="690" cy="-1421.9" rx="148.682" ry="18"/>
<ellipse fill="none" stroke="black" cx="690" cy="-1421.9" rx="152.678" ry="22"/>
<ellipse fill="none" stroke="black" cx="690" cy="-1421.9" rx="156.674" ry="26"/>
<text text-anchor="middle" x="690" y="-1418.2" font-family="Times,serif" font-size="14.00">isisomorphism_natural_transformation</text>
</a>
</g>
</g>
<!-- Morphisms_isisomorphism_natural_transformation_subproof0 -->
<g id="node7" class="node"><title>Morphisms_isisomorphism_natural_transformation_subproof0</title>
<g id="a_node7"><a xlink:href="Morphisms.html#isisomorphism_natural_transformation_subproof0" xlink:title="isisomorphism_natural_transformation_subproof0">
<ellipse fill="#facdef" stroke="black" cx="1033" cy="-1022.9" rx="188.467" ry="18"/>
<text text-anchor="middle" x="1033" y="-1019.2" font-family="Times,serif" font-size="14.00">isisomorphism_natural_transformation_subproof0</text>
</a>
</g>
</g>
<!-- Morphisms_isisomorphism_natural_transformation&#45;&gt;Morphisms_isisomorphism_natural_transformation_subproof0 -->
<g id="edge7" class="edge"><title>Morphisms_isisomorphism_natural_transformation&#45;&gt;Morphisms_isisomorphism_natural_transformation_subproof0</title>
<path fill="none" stroke="black" d="M712.241,-1396.03C774.278,-1323.86 948.73,-1120.93 1010.76,-1048.77"/>
<polygon fill="black" stroke="black" points="1013.56,-1050.89 1017.42,-1041.02 1008.25,-1046.32 1013.56,-1050.89"/>
</g>
<!-- Morphisms_isisomorphism_natural_transformation_subproof -->
<g id="node8" class="node"><title>Morphisms_isisomorphism_natural_transformation_subproof</title>
<g id="a_node8"><a xlink:href="Morphisms.html#isisomorphism_natural_transformation_subproof" xlink:title="isisomorphism_natural_transformation_subproof">
<ellipse fill="#facdef" stroke="black" cx="642" cy="-1022.9" rx="184.667" ry="18"/>
<text text-anchor="middle" x="642" y="-1019.2" font-family="Times,serif" font-size="14.00">isisomorphism_natural_transformation_subproof</text>
</a>
</g>
</g>
<!-- Morphisms_isisomorphism_natural_transformation&#45;&gt;Morphisms_isisomorphism_natural_transformation_subproof -->
<g id="edge8" class="edge"><title>Morphisms_isisomorphism_natural_transformation&#45;&gt;Morphisms_isisomorphism_natural_transformation_subproof</title>
<path fill="none" stroke="black" d="M686.851,-1395.72C678.223,-1324 654.261,-1124.82 645.374,-1050.94"/>
<polygon fill="black" stroke="black" points="648.845,-1050.49 644.175,-1040.98 641.895,-1051.33 648.845,-1050.49"/>
</g>
<!-- Morphisms_isisomorphism_natural_transformation&#45;&gt;Core_functor_category -->
<g id="edge9" class="edge"><title>Morphisms_isisomorphism_natural_transformation&#45;&gt;Core_functor_category</title>
<path fill="none" stroke="black" d="M725.591,-1396.26C847.808,-1308.4 1246.45,-1023.41 1312,-996.9 2212.28,-632.799 3416.29,-578.405 3736.18,-570.309"/>
<polygon fill="black" stroke="black" points="3736.38,-573.806 3746.29,-570.062 3736.21,-566.808 3736.38,-573.806"/>
</g>
<!-- Morphisms_inverse -->
<g id="node9" class="node"><title>Morphisms_inverse</title>
<g id="a_node9"><a xlink:href="Morphisms.html#inverse" xlink:title="inverse">
<ellipse fill="#f070d1" stroke="black" cx="1099" cy="-568.9" rx="36.2938" ry="18"/>
<text text-anchor="middle" x="1099" y="-565.2" font-family="Times,serif" font-size="14.00">inverse</text>
</a>
</g>
</g>
<!-- Morphisms_isisomorphism_natural_transformation_subproof0&#45;&gt;Morphisms_inverse -->
<g id="edge10" class="edge"><title>Morphisms_isisomorphism_natural_transformation_subproof0&#45;&gt;Morphisms_inverse</title>
<path fill="none" stroke="black" d="M1035.63,-1004.82C1045.79,-934.918 1082.56,-681.988 1094.92,-596.987"/>
<polygon fill="black" stroke="black" points="1098.39,-597.429 1096.36,-587.029 1091.46,-596.422 1098.39,-597.429"/>
</g>
<!-- Morphisms_isisomorphism_natural_transformation_subproof&#45;&gt;Morphisms_inverse -->
<g id="edge11" class="edge"><title>Morphisms_isisomorphism_natural_transformation_subproof&#45;&gt;Morphisms_inverse</title>
<path fill="none" stroke="black" d="M660.197,-1004.82C731.923,-933.567 995.074,-672.144 1075.5,-592.249"/>
<polygon fill="black" stroke="black" points="1078.07,-594.628 1082.7,-585.097 1073.14,-589.662 1078.07,-594.628"/>
</g>
<!-- Morphisms_inverse_subproof0 -->
<g id="node10" class="node"><title>Morphisms_inverse_subproof0</title>
<g id="a_node10"><a xlink:href="Morphisms.html#inverse_subproof0" xlink:title="inverse_subproof0">
<ellipse fill="#facdef" stroke="black" cx="1116" cy="-169.9" rx="76.0865" ry="18"/>
<text text-anchor="middle" x="1116" y="-166.2" font-family="Times,serif" font-size="14.00">inverse_subproof0</text>
</a>
</g>
</g>
<!-- Morphisms_inverse&#45;&gt;Morphisms_inverse_subproof0 -->
<g id="edge12" class="edge"><title>Morphisms_inverse&#45;&gt;Morphisms_inverse_subproof0</title>
<path fill="none" stroke="black" d="M1099.77,-550.719C1102.47,-487.365 1111.48,-275.982 1114.78,-198.599"/>
<polygon fill="black" stroke="black" points="1118.29,-198.328 1115.22,-188.188 1111.3,-198.03 1118.29,-198.328"/>
</g>
<!-- Morphisms_inverse_subproof -->
<g id="node11" class="node"><title>Morphisms_inverse_subproof</title>
<g id="a_node11"><a xlink:href="Morphisms.html#inverse_subproof" xlink:title="inverse_subproof">
<ellipse fill="#facdef" stroke="black" cx="1315" cy="-169.9" rx="71.4873" ry="18"/>
<text text-anchor="middle" x="1315" y="-166.2" font-family="Times,serif" font-size="14.00">inverse_subproof</text>
</a>
</g>
</g>
<!-- Morphisms_inverse&#45;&gt;Morphisms_inverse_subproof -->
<g id="edge13" class="edge"><title>Morphisms_inverse&#45;&gt;Morphisms_inverse_subproof</title>
<path fill="none" stroke="black" d="M1108.42,-551.499C1142.45,-488.641 1259.17,-273.028 1300.42,-196.835"/>
<polygon fill="black" stroke="black" points="1303.6,-198.307 1305.28,-187.847 1297.45,-194.974 1303.6,-198.307"/>
</g>
<!-- Morphisms_isisomorphism_components_of -->
<g id="node12" class="node"><title>Morphisms_isisomorphism_components_of</title>
<g id="a_node12"><a xlink:href="Morphisms.html#isisomorphism_components_of" xlink:title="isisomorphism_components_of">
<ellipse fill="#f070d1" stroke="black" cx="1273" cy="-1421.9" rx="122.367" ry="18"/>
<ellipse fill="none" stroke="black" cx="1273" cy="-1421.9" rx="126.373" ry="22"/>
<ellipse fill="none" stroke="black" cx="1273" cy="-1421.9" rx="130.379" ry="26"/>
<text text-anchor="middle" x="1273" y="-1418.2" font-family="Times,serif" font-size="14.00">isisomorphism_components_of</text>
</a>
</g>
</g>
<!-- Morphisms_isisomorphism_components_of&#45;&gt;Core_functor_category -->
<g id="edge14" class="edge"><title>Morphisms_isisomorphism_components_of&#45;&gt;Core_functor_category</title>
<path fill="none" stroke="black" d="M1278.13,-1395.73C1295.1,-1311.74 1352,-1051.31 1415,-996.9 1775.98,-685.156 3360.7,-590.677 3736.75,-572.457"/>
<polygon fill="black" stroke="black" points="3737.18,-575.941 3747,-571.965 3736.84,-568.949 3737.18,-575.941"/>
</g>
<!-- Morphisms_natural_transformation_of_natural_isomorphism -->
<g id="node13" class="node"><title>Morphisms_natural_transformation_of_natural_isomorphism</title>
<g id="a_node13"><a xlink:href="Morphisms.html#natural_transformation_of_natural_isomorphism" xlink:title="natural_transformation_of_natural_isomorphism">
<ellipse fill="#f070d1" stroke="black" cx="324" cy="-1421.9" rx="183.077" ry="18"/>
<ellipse fill="none" stroke="black" cx="324" cy="-1421.9" rx="187.072" ry="22"/>
<ellipse fill="none" stroke="black" cx="324" cy="-1421.9" rx="191.068" ry="26"/>
<text text-anchor="middle" x="324" y="-1418.2" font-family="Times,serif" font-size="14.00">natural_transformation_of_natural_isomorphism</text>
</a>
</g>
</g>
<!-- Morphisms_NaturalIsomorphism -->
<g id="node15" class="node"><title>Morphisms_NaturalIsomorphism</title>
<g id="a_node15"><a xlink:href="Morphisms.html#NaturalIsomorphism" xlink:title="NaturalIsomorphism">
<ellipse fill="#f070d1" stroke="black" cx="355" cy="-1022.9" rx="84.485" ry="18"/>
<text text-anchor="middle" x="355" y="-1019.2" font-family="Times,serif" font-size="14.00">NaturalIsomorphism</text>
</a>
</g>
</g>
<!-- Morphisms_natural_transformation_of_natural_isomorphism&#45;&gt;Morphisms_NaturalIsomorphism -->
<g id="edge15" class="edge"><title>Morphisms_natural_transformation_of_natural_isomorphism&#45;&gt;Morphisms_NaturalIsomorphism</title>
<path fill="none" stroke="black" d="M326.034,-1395.72C331.595,-1324.15 347.018,-1125.63 352.786,-1051.4"/>
<polygon fill="black" stroke="black" points="356.31,-1051.22 353.595,-1040.98 349.331,-1050.68 356.31,-1051.22"/>
</g>
<!-- Morphisms_reflexive_natural_isomorphism -->
<g id="node14" class="node"><title>Morphisms_reflexive_natural_isomorphism</title>
<g id="a_node14"><a xlink:href="Morphisms.html#reflexive_natural_isomorphism" xlink:title="reflexive_natural_isomorphism">
<ellipse fill="#f070d1" stroke="black" cx="995" cy="-1421.9" rx="122.367" ry="18"/>
<ellipse fill="none" stroke="black" cx="995" cy="-1421.9" rx="126.373" ry="22"/>
<ellipse fill="none" stroke="black" cx="995" cy="-1421.9" rx="130.379" ry="26"/>
<text text-anchor="middle" x="995" y="-1418.2" font-family="Times,serif" font-size="14.00">reflexive_natural_isomorphism</text>
</a>
</g>
</g>
<!-- Morphisms_reflexive_natural_isomorphism&#45;&gt;Core_functor_category -->
<g id="edge16" class="edge"><title>Morphisms_reflexive_natural_isomorphism&#45;&gt;Core_functor_category</title>
<path fill="none" stroke="black" d="M1009.83,-1395.99C1054.7,-1320.25 1197.24,-1098.17 1381,-996.9 1805.16,-763.147 3373.2,-609.026 3739.93,-575.694"/>
<polygon fill="black" stroke="black" points="3740.27,-579.178 3749.91,-574.79 3739.64,-572.206 3740.27,-579.178"/>
</g>
<!-- Morphisms_NaturalIsomorphism&#45;&gt;Core_functor_category -->
<g id="edge17" class="edge"><title>Morphisms_NaturalIsomorphism&#45;&gt;Core_functor_category</title>
<path fill="none" stroke="black" d="M402.943,-1008.05C417.326,-1003.99 433.211,-999.89 448,-996.9 1749.1,-733.849 3367.42,-602.447 3738.66,-574.591"/>
<polygon fill="black" stroke="black" points="3739.05,-578.072 3748.76,-573.836 3738.53,-571.091 3739.05,-578.072"/>
</g>
<!-- Functorial_functor -->
<g id="node16" class="node"><title>Functorial_functor</title>
<g id="a_node16"><a xlink:href="Functorial.html#functor" xlink:title="functor">
<ellipse fill="#f070d1" stroke="black" cx="3927" cy="-1421.9" rx="36.3123" ry="18"/>
<ellipse fill="none" stroke="black" cx="3927" cy="-1421.9" rx="40.3031" ry="22"/>
<ellipse fill="none" stroke="black" cx="3927" cy="-1421.9" rx="44.2938" ry="26"/>
<text text-anchor="middle" x="3927" y="-1418.2" font-family="Times,serif" font-size="14.00">functor</text>
</a>
</g>
</g>
<!-- Functorial_functor_uncurried -->
<g id="node17" class="node"><title>Functorial_functor_uncurried</title>
<g id="a_node17"><a xlink:href="Functorial.html#functor_uncurried" xlink:title="functor_uncurried">
<ellipse fill="#f070d1" stroke="black" cx="3927" cy="-1022.9" rx="74.187" ry="18"/>
<text text-anchor="middle" x="3927" y="-1019.2" font-family="Times,serif" font-size="14.00">functor_uncurried</text>
</a>
</g>
</g>
<!-- Functorial_functor&#45;&gt;Functorial_functor_uncurried -->
<g id="edge18" class="edge"><title>Functorial_functor&#45;&gt;Functorial_functor_uncurried</title>
<path fill="none" stroke="black" d="M3927,-1395.72C3927,-1324.15 3927,-1125.63 3927,-1051.4"/>
<polygon fill="black" stroke="black" points="3930.5,-1050.98 3927,-1040.98 3923.5,-1050.98 3930.5,-1050.98"/>
</g>
<!-- Functorial_functor_uncurried&#45;&gt;Core_functor_category -->
<g id="edge19" class="edge"><title>Functorial_functor_uncurried&#45;&gt;Core_functor_category</title>
<path fill="none" stroke="black" d="M3922.62,-1004.82C3905.68,-934.918 3844.4,-681.988 3823.81,-596.987"/>
<polygon fill="black" stroke="black" points="3827.15,-595.924 3821.39,-587.029 3820.35,-597.572 3827.15,-595.924"/>
</g>
<!-- FunctorCategory_opposite_functor_law -->
<g id="node18" class="node"><title>FunctorCategory_opposite_functor_law</title>
<g id="a_node18"><a xlink:href="FunctorCategory.html#opposite_functor_law" xlink:title="opposite_functor_law">
<ellipse fill="#f070d1" stroke="black" cx="3734" cy="-1874.9" rx="87.1769" ry="18"/>
<ellipse fill="none" stroke="black" cx="3734" cy="-1874.9" rx="91.1807" ry="22"/>
<ellipse fill="none" stroke="black" cx="3734" cy="-1874.9" rx="95.1846" ry="26"/>
<text text-anchor="middle" x="3734" y="-1871.2" font-family="Times,serif" font-size="14.00">opposite_functor_law</text>
</a>
</g>
</g>
<!-- Dual_opposite_functor_law -->
<g id="node39" class="node"><title>Dual_opposite_functor_law</title>
<g id="a_node39"><a xlink:href="Dual.html#opposite_functor_law" xlink:title="opposite_functor_law">
<ellipse fill="#facdef" stroke="black" cx="4296" cy="-1421.9" rx="87.1846" ry="18"/>
<text text-anchor="middle" x="4296" y="-1418.2" font-family="Times,serif" font-size="14.00">opposite_functor_law</text>
</a>
</g>
</g>
<!-- FunctorCategory_opposite_functor_law&#45;&gt;Dual_opposite_functor_law -->
<g id="edge20" class="edge"><title>FunctorCategory_opposite_functor_law&#45;&gt;Dual_opposite_functor_law</title>
<path fill="none" stroke="black" d="M3764.61,-1850.22C3862.88,-1771.02 4169.53,-1523.84 4266.38,-1445.78"/>
<polygon fill="black" stroke="black" points="4268.71,-1448.39 4274.3,-1439.39 4264.32,-1442.94 4268.71,-1448.39"/>
</g>
<!-- FunctorCategory_opposite_functor -->
<g id="node19" class="node"><title>FunctorCategory_opposite_functor</title>
<g id="a_node19"><a xlink:href="FunctorCategory.html#opposite_functor" xlink:title="opposite_functor">
<ellipse fill="#f070d1" stroke="black" cx="2987" cy="-1874.9" rx="70.3682" ry="18"/>
<ellipse fill="none" stroke="black" cx="2987" cy="-1874.9" rx="74.3781" ry="22"/>
<ellipse fill="none" stroke="black" cx="2987" cy="-1874.9" rx="78.388" ry="26"/>
<text text-anchor="middle" x="2987" y="-1871.2" font-family="Times,serif" font-size="14.00">opposite_functor</text>
</a>
</g>
</g>
<!-- FunctorCategory_opposite_functor&#45;&gt;Core_functor_category -->
<g id="edge21" class="edge"><title>FunctorCategory_opposite_functor&#45;&gt;Core_functor_category</title>
<path fill="none" stroke="black" d="M3042.8,-1856.67C3261.4,-1785.03 4049.04,-1524.45 4081,-1478.9 4142.51,-1391.21 4110.22,-1099.95 4081,-996.9 4032.67,-826.489 3895.12,-657.358 3840.13,-594.516"/>
<polygon fill="black" stroke="black" points="3842.48,-591.888 3833.24,-586.704 3837.23,-596.519 3842.48,-591.888"/>
</g>
<!-- FunctorCategory_functor -->
<g id="node20" class="node"><title>FunctorCategory_functor</title>
<g id="a_node20"><a xlink:href="FunctorCategory.html#functor" xlink:title="functor">
<ellipse fill="#f070d1" stroke="black" cx="2446" cy="-1874.9" rx="36.3123" ry="18"/>
<ellipse fill="none" stroke="black" cx="2446" cy="-1874.9" rx="40.3031" ry="22"/>
<ellipse fill="none" stroke="black" cx="2446" cy="-1874.9" rx="44.2938" ry="26"/>
<text text-anchor="middle" x="2446" y="-1871.2" font-family="Times,serif" font-size="14.00">functor</text>
</a>
</g>
</g>
<!-- FunctorCategory_functor_uncurried -->
<g id="node21" class="node"><title>FunctorCategory_functor_uncurried</title>
<g id="a_node21"><a xlink:href="FunctorCategory.html#functor_uncurried" xlink:title="functor_uncurried">
<ellipse fill="#f070d1" stroke="black" cx="3263" cy="-1421.9" rx="74.187" ry="18"/>
<text text-anchor="middle" x="3263" y="-1418.2" font-family="Times,serif" font-size="14.00">functor_uncurried</text>
</a>
</g>
</g>
<!-- FunctorCategory_functor&#45;&gt;FunctorCategory_functor_uncurried -->
<g id="edge22" class="edge"><title>FunctorCategory_functor&#45;&gt;FunctorCategory_functor_uncurried</title>
<path fill="none" stroke="black" d="M2478.28,-1857C2607,-1785.63 3083.45,-1521.46 3223.83,-1443.62"/>
<polygon fill="black" stroke="black" points="3225.92,-1446.46 3232.97,-1438.55 3222.53,-1440.34 3225.92,-1446.46"/>
</g>
<!-- FunctorCategory_functor_uncurried&#45;&gt;Core_functor_category -->
<g id="edge23" class="edge"><title>FunctorCategory_functor_uncurried&#45;&gt;Core_functor_category</title>
<path fill="none" stroke="black" d="M3274.57,-1404.08C3344.9,-1295.79 3714.82,-726.23 3799.65,-595.612"/>
<polygon fill="black" stroke="black" points="3802.75,-597.271 3805.26,-586.978 3796.88,-593.458 3802.75,-597.271"/>
</g>
<!-- FunctorCategory_eta_idtoiso -->
<g id="node22" class="node"><title>FunctorCategory_eta_idtoiso</title>
<g id="a_node22"><a xlink:href="FunctorCategory.html#eta_idtoiso" xlink:title="eta_idtoiso">
<ellipse fill="#f070d1" stroke="black" cx="1892" cy="-1874.9" rx="49.3059" ry="18"/>
<ellipse fill="none" stroke="black" cx="1892" cy="-1874.9" rx="53.2987" ry="22"/>
<ellipse fill="none" stroke="black" cx="1892" cy="-1874.9" rx="57.2914" ry="26"/>
<text text-anchor="middle" x="1892" y="-1871.2" font-family="Times,serif" font-size="14.00">eta_idtoiso</text>
</a>
</g>
</g>
<!-- FunctorCategory_eta_idtoiso&#45;&gt;Morphisms_eta_idtoiso -->
<g id="edge24" class="edge"><title>FunctorCategory_eta_idtoiso&#45;&gt;Morphisms_eta_idtoiso</title>
<path fill="none" stroke="black" d="M1849.75,-1857.09C1841.93,-1854.13 1833.78,-1851.26 1826,-1848.9 1085.25,-1624.08 806.62,-1843.98 124,-1478.9 109.204,-1470.99 95.5306,-1458.29 85.0805,-1446.88"/>
<polygon fill="black" stroke="black" points="87.6174,-1444.46 78.3865,-1439.26 82.3598,-1449.08 87.6174,-1444.46"/>
</g>
<!-- FunctorCategory_idtoiso -->
<g id="node23" class="node"><title>FunctorCategory_idtoiso</title>
<g id="a_node23"><a xlink:href="FunctorCategory.html#idtoiso" xlink:title="idtoiso">
<ellipse fill="#f070d1" stroke="black" cx="2341" cy="-1874.9" rx="34.4039" ry="18"/>
<ellipse fill="none" stroke="black" cx="2341" cy="-1874.9" rx="38.3989" ry="22"/>
<ellipse fill="none" stroke="black" cx="2341" cy="-1874.9" rx="42.394" ry="26"/>
<text text-anchor="middle" x="2341" y="-1871.2" font-family="Times,serif" font-size="14.00">idtoiso</text>
</a>
</g>
</g>
<!-- FunctorCategory_idtoiso_subproof0 -->
<g id="node24" class="node"><title>FunctorCategory_idtoiso_subproof0</title>
<g id="a_node24"><a xlink:href="FunctorCategory.html#idtoiso_subproof0" xlink:title="idtoiso_subproof0">
<ellipse fill="#f070d1" stroke="black" cx="2284" cy="-1421.9" rx="74.9875" ry="18"/>
<text text-anchor="middle" x="2284" y="-1418.2" font-family="Times,serif" font-size="14.00">idtoiso_subproof0</text>
</a>
</g>
</g>
<!-- FunctorCategory_idtoiso&#45;&gt;FunctorCategory_idtoiso_subproof0 -->
<g id="edge25" class="edge"><title>FunctorCategory_idtoiso&#45;&gt;FunctorCategory_idtoiso_subproof0</title>
<path fill="none" stroke="black" d="M2337.73,-1848.92C2327.77,-1769.75 2297.85,-1531.96 2287.54,-1450.02"/>
<polygon fill="black" stroke="black" points="2290.99,-1449.44 2286.27,-1439.95 2284.05,-1450.31 2290.99,-1449.44"/>
</g>
<!-- FunctorCategory_idtoiso_subproof -->
<g id="node25" class="node"><title>FunctorCategory_idtoiso_subproof</title>
<g id="a_node25"><a xlink:href="FunctorCategory.html#idtoiso_subproof" xlink:title="idtoiso_subproof">
<ellipse fill="#f070d1" stroke="black" cx="2447" cy="-1421.9" rx="70.3881" ry="18"/>
<text text-anchor="middle" x="2447" y="-1418.2" font-family="Times,serif" font-size="14.00">idtoiso_subproof</text>
</a>
</g>
</g>
<!-- FunctorCategory_idtoiso&#45;&gt;FunctorCategory_idtoiso_subproof -->
<g id="edge26" class="edge"><title>FunctorCategory_idtoiso&#45;&gt;FunctorCategory_idtoiso_subproof</title>
<path fill="none" stroke="black" d="M2347.08,-1848.92C2365.6,-1769.75 2421.25,-1531.96 2440.42,-1450.02"/>
<polygon fill="black" stroke="black" points="2443.91,-1450.49 2442.78,-1439.95 2437.09,-1448.89 2443.91,-1450.49"/>
</g>
<!-- FunctorCategory_idtoiso_natural_transformation -->
<g id="node26" class="node"><title>FunctorCategory_idtoiso_natural_transformation</title>
<g id="a_node26"><a xlink:href="FunctorCategory.html#idtoiso_natural_transformation" xlink:title="idtoiso_natural_transformation">
<ellipse fill="#f070d1" stroke="black" cx="2747" cy="-1421.9" rx="120.479" ry="18"/>
<text text-anchor="middle" x="2747" y="-1418.2" font-family="Times,serif" font-size="14.00">idtoiso_natural_transformation</text>
</a>
</g>
</g>
<!-- FunctorCategory_idtoiso&#45;&gt;FunctorCategory_idtoiso_natural_transformation -->
<g id="edge27" class="edge"><title>FunctorCategory_idtoiso&#45;&gt;FunctorCategory_idtoiso_natural_transformation</title>
<path fill="none" stroke="black" d="M2361.69,-1851.81C2430.59,-1774.94 2651.93,-1527.98 2724.05,-1447.51"/>
<polygon fill="black" stroke="black" points="2726.87,-1449.6 2730.94,-1439.82 2721.66,-1444.93 2726.87,-1449.6"/>
</g>
<!-- FunctorCategory_idtoiso&#45;&gt;Core_functor_category -->
<g id="edge28" class="edge"><title>FunctorCategory_idtoiso&#45;&gt;Core_functor_category</title>
<path fill="none" stroke="black" d="M2372.64,-1857.56C2379.24,-1854.37 2386.25,-1851.3 2393,-1848.9 3100.99,-1596.77 3573.3,-2065.59 4043,-1478.9 4109.94,-1395.28 4068.76,-1100.87 4043,-996.9 4001.98,-831.368 3883.96,-659.296 3836.81,-595.093"/>
<polygon fill="black" stroke="black" points="3839.4,-592.716 3830.64,-586.761 3833.77,-596.881 3839.4,-592.716"/>
</g>
<!-- FunctorCategory_idtoiso_subproof0&#45;&gt;Morphisms_idtoiso_subproof0 -->
<g id="edge29" class="edge"><title>FunctorCategory_idtoiso_subproof0&#45;&gt;Morphisms_idtoiso_subproof0</title>
<path fill="none" stroke="black" d="M2240.69,-1407.16C2074.9,-1350.38 1481.37,-1143.94 1311,-1040.9 1084.92,-904.171 861.438,-671.591 790.286,-594.54"/>
<polygon fill="black" stroke="black" points="792.467,-591.741 783.122,-586.749 787.315,-596.479 792.467,-591.741"/>
</g>
<!-- FunctorCategory_idtoiso_subproof&#45;&gt;Morphisms_idtoiso_subproof -->
<g id="edge30" class="edge"><title>FunctorCategory_idtoiso_subproof&#45;&gt;Morphisms_idtoiso_subproof</title>
<path fill="none" stroke="black" d="M2410.17,-1406.56C2294.78,-1358.04 1931.05,-1201.62 1646,-1040.9 1370.93,-885.804 1060.17,-663.711 961.679,-592.099"/>
<polygon fill="black" stroke="black" points="963.493,-589.089 953.348,-586.032 959.372,-594.748 963.493,-589.089"/>
</g>
<!-- FunctorCategory_isisomorphism_natural_transformation -->
<g id="node27" class="node"><title>FunctorCategory_isisomorphism_natural_transformation</title>
<g id="a_node27"><a xlink:href="FunctorCategory.html#isisomorphism_natural_transformation" xlink:title="isisomorphism_natural_transformation">
<ellipse fill="#f070d1" stroke="black" cx="2124" cy="-1874.9" rx="148.682" ry="18"/>
<ellipse fill="none" stroke="black" cx="2124" cy="-1874.9" rx="152.678" ry="22"/>
<ellipse fill="none" stroke="black" cx="2124" cy="-1874.9" rx="156.674" ry="26"/>
<text text-anchor="middle" x="2124" y="-1871.2" font-family="Times,serif" font-size="14.00">isisomorphism_natural_transformation</text>
</a>
</g>
</g>
<!-- FunctorCategory_isisomorphism_natural_transformation_subproof0 -->
<g id="node28" class="node"><title>FunctorCategory_isisomorphism_natural_transformation_subproof0</title>
<g id="a_node28"><a xlink:href="FunctorCategory.html#isisomorphism_natural_transformation_subproof0" xlink:title="isisomorphism_natural_transformation_subproof0">
<ellipse fill="#f070d1" stroke="black" cx="2003" cy="-1421.9" rx="188.467" ry="18"/>
<text text-anchor="middle" x="2003" y="-1418.2" font-family="Times,serif" font-size="14.00">isisomorphism_natural_transformation_subproof0</text>
</a>
</g>
</g>
<!-- FunctorCategory_isisomorphism_natural_transformation&#45;&gt;FunctorCategory_isisomorphism_natural_transformation_subproof0 -->
<g id="edge31" class="edge"><title>FunctorCategory_isisomorphism_natural_transformation&#45;&gt;FunctorCategory_isisomorphism_natural_transformation_subproof0</title>
<path fill="none" stroke="black" d="M2117.06,-1848.92C2095.91,-1769.75 2032.4,-1531.96 2010.51,-1450.02"/>
<polygon fill="black" stroke="black" points="2013.78,-1448.71 2007.82,-1439.95 2007.02,-1450.52 2013.78,-1448.71"/>
</g>
<!-- FunctorCategory_isisomorphism_natural_transformation_subproof -->
<g id="node29" class="node"><title>FunctorCategory_isisomorphism_natural_transformation_subproof</title>
<g id="a_node29"><a xlink:href="FunctorCategory.html#isisomorphism_natural_transformation_subproof" xlink:title="isisomorphism_natural_transformation_subproof">
<ellipse fill="#f070d1" stroke="black" cx="1612" cy="-1421.9" rx="184.667" ry="18"/>
<text text-anchor="middle" x="1612" y="-1418.2" font-family="Times,serif" font-size="14.00">isisomorphism_natural_transformation_subproof</text>
</a>
</g>
</g>
<!-- FunctorCategory_isisomorphism_natural_transformation&#45;&gt;FunctorCategory_isisomorphism_natural_transformation_subproof -->
<g id="edge32" class="edge"><title>FunctorCategory_isisomorphism_natural_transformation&#45;&gt;FunctorCategory_isisomorphism_natural_transformation_subproof</title>
<path fill="none" stroke="black" d="M2095.01,-1849.25C2004.65,-1769.31 1728.93,-1525.35 1639.98,-1446.66"/>
<polygon fill="black" stroke="black" points="1642.26,-1444 1632.45,-1439.99 1637.62,-1449.24 1642.26,-1444"/>
</g>
<!-- FunctorCategory_inverse -->
<g id="node30" class="node"><title>FunctorCategory_inverse</title>
<g id="a_node30"><a xlink:href="FunctorCategory.html#inverse" xlink:title="inverse">
<ellipse fill="#f070d1" stroke="black" cx="2572" cy="-1421.9" rx="36.2938" ry="18"/>
<text text-anchor="middle" x="2572" y="-1418.2" font-family="Times,serif" font-size="14.00">inverse</text>
</a>
</g>
</g>
<!-- FunctorCategory_isisomorphism_natural_transformation&#45;&gt;FunctorCategory_inverse -->
<g id="edge33" class="edge"><title>FunctorCategory_isisomorphism_natural_transformation&#45;&gt;FunctorCategory_inverse</title>
<path fill="none" stroke="black" d="M2152.38,-1849.05C2219.66,-1787.34 2393.15,-1625.58 2526,-1478.9 2535.2,-1468.74 2544.81,-1457.03 2552.86,-1446.87"/>
<polygon fill="black" stroke="black" points="2555.79,-1448.81 2559.2,-1438.78 2550.28,-1444.49 2555.79,-1448.81"/>
</g>
<!-- FunctorCategory_isisomorphism_natural_transformation&#45;&gt;Core_functor_category -->
<g id="edge34" class="edge"><title>FunctorCategory_isisomorphism_natural_transformation&#45;&gt;Core_functor_category</title>
<path fill="none" stroke="black" d="M2232.37,-1856.06C2625.32,-1787.24 3955.42,-1549.8 4013,-1478.9 4080.52,-1395.75 4035.82,-1101.55 4013,-996.9 3977.65,-834.793 3875.1,-660.63 3834.17,-595.481"/>
<polygon fill="black" stroke="black" points="3836.9,-593.25 3828.59,-586.674 3830.99,-596.995 3836.9,-593.25"/>
</g>
<!-- FunctorCategory_isisomorphism_natural_transformation_subproof0&#45;&gt;Morphisms_isisomorphism_natural_transformation_subproof0 -->
<g id="edge35" class="edge"><title>FunctorCategory_isisomorphism_natural_transformation_subproof0&#45;&gt;Morphisms_isisomorphism_natural_transformation_subproof0</title>
<path fill="none" stroke="black" d="M1960.07,-1404.24C1802.55,-1339.45 1256.62,-1114.88 1085.03,-1044.3"/>
<polygon fill="black" stroke="black" points="1086.29,-1041.04 1075.71,-1040.47 1083.63,-1047.51 1086.29,-1041.04"/>
</g>
<!-- FunctorCategory_isisomorphism_natural_transformation_subproof&#45;&gt;Morphisms_isisomorphism_natural_transformation_subproof -->
<g id="edge36" class="edge"><title>FunctorCategory_isisomorphism_natural_transformation_subproof&#45;&gt;Morphisms_isisomorphism_natural_transformation_subproof</title>
<path fill="none" stroke="black" d="M1569.38,-1404.37C1412.29,-1339.75 865.85,-1114.98 694.09,-1044.33"/>
<polygon fill="black" stroke="black" points="695.335,-1041.05 684.755,-1040.49 692.672,-1047.53 695.335,-1041.05"/>
</g>
<!-- FunctorCategory_inverse_subproof0 -->
<g id="node31" class="node"><title>FunctorCategory_inverse_subproof0</title>
<g id="a_node31"><a xlink:href="FunctorCategory.html#inverse_subproof0" xlink:title="inverse_subproof0">
<ellipse fill="#f070d1" stroke="black" cx="1731" cy="-1022.9" rx="76.0865" ry="18"/>
<text text-anchor="middle" x="1731" y="-1019.2" font-family="Times,serif" font-size="14.00">inverse_subproof0</text>
</a>
</g>
</g>
<!-- FunctorCategory_inverse&#45;&gt;FunctorCategory_inverse_subproof0 -->
<g id="edge37" class="edge"><title>FunctorCategory_inverse&#45;&gt;FunctorCategory_inverse_subproof0</title>
<path fill="none" stroke="black" d="M2548.31,-1408.06C2541.2,-1404.03 2533.34,-1399.69 2526,-1395.9 2246.05,-1251.37 1900.02,-1097.12 1777.02,-1043.02"/>
<polygon fill="black" stroke="black" points="1778.09,-1039.67 1767.53,-1038.85 1775.27,-1046.08 1778.09,-1039.67"/>
</g>
<!-- FunctorCategory_inverse_subproof -->
<g id="node32" class="node"><title>FunctorCategory_inverse_subproof</title>
<g id="a_node32"><a xlink:href="FunctorCategory.html#inverse_subproof" xlink:title="inverse_subproof">
<ellipse fill="#f070d1" stroke="black" cx="2122" cy="-1022.9" rx="71.4873" ry="18"/>
<text text-anchor="middle" x="2122" y="-1019.2" font-family="Times,serif" font-size="14.00">inverse_subproof</text>
</a>
</g>
</g>
<!-- FunctorCategory_inverse&#45;&gt;FunctorCategory_inverse_subproof -->
<g id="edge38" class="edge"><title>FunctorCategory_inverse&#45;&gt;FunctorCategory_inverse_subproof</title>
<path fill="none" stroke="black" d="M2554.08,-1406.01C2484.64,-1344.44 2233,-1121.32 2149.29,-1047.1"/>
<polygon fill="black" stroke="black" points="2151.53,-1044.41 2141.72,-1040.39 2146.89,-1049.64 2151.53,-1044.41"/>
</g>
<!-- FunctorCategory_inverse_subproof0&#45;&gt;Morphisms_inverse_subproof0 -->
<g id="edge39" class="edge"><title>FunctorCategory_inverse_subproof0&#45;&gt;Morphisms_inverse_subproof0</title>
<path fill="none" stroke="black" d="M1718.15,-1005.08C1640,-896.685 1228.61,-326.091 1134.98,-196.221"/>
<polygon fill="black" stroke="black" points="1137.72,-194.043 1129.03,-187.978 1132.04,-198.136 1137.72,-194.043"/>
</g>
<!-- FunctorCategory_inverse_subproof&#45;&gt;Morphisms_inverse_subproof -->
<g id="edge40" class="edge"><title>FunctorCategory_inverse_subproof&#45;&gt;Morphisms_inverse_subproof</title>
<path fill="none" stroke="black" d="M2105.14,-1005.08C2002.28,-896.351 1459.44,-322.573 1338.78,-195.034"/>
<polygon fill="black" stroke="black" points="1341.18,-192.477 1331.76,-187.618 1336.09,-197.288 1341.18,-192.477"/>
</g>
<!-- FunctorCategory_isisomorphism_components_of -->
<g id="node33" class="node"><title>FunctorCategory_isisomorphism_components_of</title>
<g id="a_node33"><a xlink:href="FunctorCategory.html#isisomorphism_components_of" xlink:title="isisomorphism_components_of">
<ellipse fill="#f070d1" stroke="black" cx="3213" cy="-1874.9" rx="122.367" ry="18"/>
<ellipse fill="none" stroke="black" cx="3213" cy="-1874.9" rx="126.373" ry="22"/>
<ellipse fill="none" stroke="black" cx="3213" cy="-1874.9" rx="130.379" ry="26"/>
<text text-anchor="middle" x="3213" y="-1871.2" font-family="Times,serif" font-size="14.00">isisomorphism_components_of</text>
</a>
</g>
</g>
<!-- FunctorCategory_isisomorphism_components_of&#45;&gt;Core_functor_category -->
<g id="edge41" class="edge"><title>FunctorCategory_isisomorphism_components_of&#45;&gt;Core_functor_category</title>
<path fill="none" stroke="black" d="M3288.1,-1853.59C3487.47,-1795.33 4021.55,-1627.84 4119,-1478.9 4177.64,-1389.27 4151.39,-1099 4119,-996.9 4063.22,-821.086 3906.26,-655.199 3843.46,-593.871"/>
<polygon fill="black" stroke="black" points="3845.55,-591.025 3835.93,-586.583 3840.68,-596.054 3845.55,-591.025"/>
</g>
<!-- FunctorCategory_natural_transformation_of_natural_isomorphism -->
<g id="node34" class="node"><title>FunctorCategory_natural_transformation_of_natural_isomorphism</title>
<g id="a_node34"><a xlink:href="FunctorCategory.html#natural_transformation_of_natural_isomorphism" xlink:title="natural_transformation_of_natural_isomorphism">
<ellipse fill="#f070d1" stroke="black" cx="2700" cy="-1874.9" rx="183.077" ry="18"/>
<ellipse fill="none" stroke="black" cx="2700" cy="-1874.9" rx="187.072" ry="22"/>
<ellipse fill="none" stroke="black" cx="2700" cy="-1874.9" rx="191.068" ry="26"/>
<text text-anchor="middle" x="2700" y="-1871.2" font-family="Times,serif" font-size="14.00">natural_transformation_of_natural_isomorphism</text>
</a>
</g>
</g>
<!-- FunctorCategory_NaturalIsomorphism -->
<g id="node36" class="node"><title>FunctorCategory_NaturalIsomorphism</title>
<g id="a_node36"><a xlink:href="FunctorCategory.html#NaturalIsomorphism" xlink:title="NaturalIsomorphism">
<ellipse fill="#f070d1" stroke="black" cx="3592" cy="-1421.9" rx="84.485" ry="18"/>
<text text-anchor="middle" x="3592" y="-1418.2" font-family="Times,serif" font-size="14.00">NaturalIsomorphism</text>
</a>
</g>
</g>
<!-- FunctorCategory_natural_transformation_of_natural_isomorphism&#45;&gt;FunctorCategory_NaturalIsomorphism -->
<g id="edge42" class="edge"><title>FunctorCategory_natural_transformation_of_natural_isomorphism&#45;&gt;FunctorCategory_NaturalIsomorphism</title>
<path fill="none" stroke="black" d="M2749.55,-1849.74C2908.23,-1769.15 3402.09,-1518.34 3549.83,-1443.31"/>
<polygon fill="black" stroke="black" points="3551.73,-1446.28 3559.06,-1438.63 3548.56,-1440.04 3551.73,-1446.28"/>
</g>
<!-- FunctorCategory_reflexive_natural_isomorphism -->
<g id="node35" class="node"><title>FunctorCategory_reflexive_natural_isomorphism</title>
<g id="a_node35"><a xlink:href="FunctorCategory.html#reflexive_natural_isomorphism" xlink:title="reflexive_natural_isomorphism">
<ellipse fill="#f070d1" stroke="black" cx="3491" cy="-1874.9" rx="122.367" ry="18"/>
<ellipse fill="none" stroke="black" cx="3491" cy="-1874.9" rx="126.373" ry="22"/>
<ellipse fill="none" stroke="black" cx="3491" cy="-1874.9" rx="130.379" ry="26"/>
<text text-anchor="middle" x="3491" y="-1871.2" font-family="Times,serif" font-size="14.00">reflexive_natural_isomorphism</text>
</a>
</g>
</g>
<!-- FunctorCategory_reflexive_natural_isomorphism&#45;&gt;Core_functor_category -->
<g id="edge43" class="edge"><title>FunctorCategory_reflexive_natural_isomorphism&#45;&gt;Core_functor_category</title>
<path fill="none" stroke="black" d="M3572.85,-1854.63C3720.95,-1813.04 4029.8,-1702.52 4157,-1478.9 4209.96,-1385.8 4192.28,-1098.03 4157,-996.9 4093.62,-815.225 3917.36,-652.847 3846.78,-593.164"/>
<polygon fill="black" stroke="black" points="3848.62,-590.142 3838.71,-586.4 3844.12,-595.506 3848.62,-590.142"/>
</g>
<!-- FunctorCategory_NaturalIsomorphism&#45;&gt;Core_functor_category -->
<g id="edge44" class="edge"><title>FunctorCategory_NaturalIsomorphism&#45;&gt;Core_functor_category</title>
<path fill="none" stroke="black" d="M3596.8,-1403.69C3625.54,-1294.73 3774.69,-729.32 3809.66,-596.742"/>
<polygon fill="black" stroke="black" points="3813.08,-597.503 3812.24,-586.941 3806.31,-595.717 3813.08,-597.503"/>
</g>
<!-- FunctorCategory_isstrict_functor_category -->
<g id="node37" class="node"><title>FunctorCategory_isstrict_functor_category</title>
<g id="a_node37"><a xlink:href="FunctorCategory.html#isstrict_functor_category" xlink:title="isstrict_functor_category">
<ellipse fill="#f070d1" stroke="black" cx="1710" cy="-1874.9" rx="98.5985" ry="18"/>
<ellipse fill="none" stroke="black" cx="1710" cy="-1874.9" rx="102.591" ry="22"/>
<ellipse fill="none" stroke="black" cx="1710" cy="-1874.9" rx="106.583" ry="26"/>
<text text-anchor="middle" x="1710" y="-1871.2" font-family="Times,serif" font-size="14.00">isstrict_functor_category</text>
</a>
</g>
</g>
<!-- FunctorCategory_functor_category -->
<g id="node38" class="node"><title>FunctorCategory_functor_category</title>
<g id="a_node38"><a xlink:href="FunctorCategory.html#functor_category" xlink:title="functor_category">
<ellipse fill="#f070d1" stroke="black" cx="1506" cy="-1874.9" rx="70.7036" ry="18"/>
<ellipse fill="none" stroke="black" cx="1506" cy="-1874.9" rx="74.6957" ry="22"/>
<ellipse fill="none" stroke="black" cx="1506" cy="-1874.9" rx="78.6877" ry="26"/>
<text text-anchor="middle" x="1506" y="-1871.2" font-family="Times,serif" font-size="14.00">functor_category</text>
</a>
</g>
</g>
<!-- Dual_opposite_functor -->
<g id="node40" class="node"><title>Dual_opposite_functor</title>
<g id="a_node40"><a xlink:href="Dual.html#opposite_functor" xlink:title="opposite_functor">
<ellipse fill="#f070d1" stroke="black" cx="4287" cy="-1022.9" rx="70.3881" ry="18"/>
<text text-anchor="middle" x="4287" y="-1019.2" font-family="Times,serif" font-size="14.00">opposite_functor</text>
</a>
</g>
</g>
<!-- Dual_opposite_functor_law&#45;&gt;Dual_opposite_functor -->
<g id="edge45" class="edge"><title>Dual_opposite_functor_law&#45;&gt;Dual_opposite_functor</title>
<path fill="none" stroke="black" d="M4295.59,-1403.72C4294.16,-1340.37 4289.39,-1128.98 4287.65,-1051.6"/>
<polygon fill="black" stroke="black" points="4291.14,-1051.11 4287.41,-1041.19 4284.14,-1051.26 4291.14,-1051.11"/>
</g>
<!-- Dual_opposite_functor&#45;&gt;Core_functor_category -->
<g id="edge46" class="edge"><title>Dual_opposite_functor&#45;&gt;Core_functor_category</title>
<path fill="none" stroke="black" d="M4268.86,-1005.38C4196.31,-935.297 3926.82,-674.981 3842.43,-593.467"/>
<polygon fill="black" stroke="black" points="3844.71,-590.797 3835.08,-586.367 3839.84,-595.832 3844.71,-590.797"/>
</g>
<!-- Core_isstrict_functor_category -->
<g id="node41" class="node"><title>Core_isstrict_functor_category</title>
<g id="a_node41"><a xlink:href="Core.html#isstrict_functor_category" xlink:title="isstrict_functor_category">
<ellipse fill="#f070d1" stroke="black" cx="4013" cy="-568.9" rx="98.5985" ry="18"/>
<ellipse fill="none" stroke="black" cx="4013" cy="-568.9" rx="102.591" ry="22"/>
<ellipse fill="none" stroke="black" cx="4013" cy="-568.9" rx="106.583" ry="26"/>
<text text-anchor="middle" x="4013" y="-565.2" font-family="Times,serif" font-size="14.00">isstrict_functor_category</text>
</a>
</g>
</g>
</g>
</svg>
