<?xml version="1.0" encoding="UTF-8" standalone="no"?>
<!DOCTYPE svg PUBLIC "-//W3C//DTD SVG 1.1//EN"
 "http://www.w3.org/Graphics/SVG/1.1/DTD/svg11.dtd">
<!-- Generated by graphviz version 2.39.20141222.0545 (20141222.0545)
 -->
<!-- Title: HoTT_Algebra_ooAction Pages: 1 -->
<svg width="366pt" height="187pt"
 viewBox="0.00 0.00 366.00 187.00" xmlns="http://www.w3.org/2000/svg" xmlns:xlink="http://www.w3.org/1999/xlink">
<g id="graph0" class="graph" transform="scale(1 1) rotate(0) translate(4 183)">
<title>HoTT_Algebra_ooAction</title>
<polygon fill="white" stroke="transparent" points="-4,4 -4,-183 362,-183 362,4 -4,4"/>
<g id="clust1" class="cluster"><title>cluster_ooAction</title>
<polygon fill="#ffffc3" stroke="black" points="17.9,-8 17.9,-171 340.1,-171 340.1,-8 17.9,-8"/>
<text text-anchor="middle" x="51.4" y="-155.8" font-family="Times,serif" font-size="14.00">ooAction</text>
</g>
<!-- ooAction_action_space -->
<g id="node1" class="node"><title>ooAction_action_space</title>
<g id="a_node1"><a xlink:href="ooAction.html#action_space" xlink:title="action_space">
<ellipse fill="#f070d1" stroke="black" cx="179.012" cy="-114" rx="55.8034" ry="18"/>
<ellipse fill="none" stroke="black" cx="179.012" cy="-114" rx="59.7968" ry="22"/>
<ellipse fill="none" stroke="black" cx="179.012" cy="-114" rx="63.7903" ry="26"/>
<text text-anchor="middle" x="179.012" y="-110.3" font-family="Times,serif" font-size="14.00">action_space</text>
</a>
</g>
</g>
<!-- ooAction_ooAction -->
<g id="node2" class="node"><title>ooAction_ooAction</title>
<g id="a_node2"><a xlink:href="ooAction.html#ooAction" xlink:title="ooAction">
<ellipse fill="#f070d1" stroke="black" cx="179.012" cy="-34" rx="43.5923" ry="18"/>
<text text-anchor="middle" x="179.012" y="-30.3" font-family="Times,serif" font-size="14.00">ooAction</text>
</a>
</g>
</g>
<!-- ooAction_action_space&#45;&gt;ooAction_ooAction -->
<g id="edge1" class="edge"><title>ooAction_action_space&#45;&gt;ooAction_ooAction</title>
<path fill="none" stroke="black" d="M179.012,-87.805C179.012,-79.6026 179.012,-70.5174 179.012,-62.1839"/>
<polygon fill="black" stroke="black" points="182.513,-62.1532 179.012,-52.1532 175.513,-62.1533 182.513,-62.1532"/>
</g>
</g>
</svg>
