<?xml version="1.0" encoding="UTF-8" standalone="no"?>
<!DOCTYPE svg PUBLIC "-//W3C//DTD SVG 1.1//EN"
 "http://www.w3.org/Graphics/SVG/1.1/DTD/svg11.dtd">
<!-- Generated by graphviz version 2.26.3 (20100126.1600)
 -->
<!-- Title: HoTT_categories_SetCategory_Core Pages: 1 -->
<svg width="504pt" height="120pt"
 viewBox="0.00 0.00 504.00 120.00" xmlns="http://www.w3.org/2000/svg" xmlns:xlink="http://www.w3.org/1999/xlink">
<g id="graph1" class="graph" transform="scale(1 1) rotate(0) translate(4 116)">
<title>HoTT_categories_SetCategory_Core</title>
<polygon fill="white" stroke="white" points="-4,5 -4,-116 501,-116 501,5 -4,5"/>
<g id="graph2" class="cluster"><title>cluster_Core</title>
<polygon fill="#ffffc3" stroke="black" points="8,-8 8,-104 488,-104 488,-8 8,-8"/>
<text text-anchor="middle" x="32.5" y="-87.4" font-family="Times Roman,serif" font-size="14.00">Core</text>
</g>
<!-- Core_isstrict_prop_cat -->
<g id="node1" class="node"><title>Core_isstrict_prop_cat</title>
<a xlink:href="Core.html#isstrict_prop_cat" xlink:title="isstrict_prop_cat">
<ellipse fill="#f070d1" stroke="black" cx="381" cy="-43" rx="91.2168" ry="18.3848"/>
<ellipse fill="none" stroke="black" cx="381" cy="-43" rx="95.2168" ry="22.3848"/>
<ellipse fill="none" stroke="black" cx="381" cy="-43" rx="99.2168" ry="26.3848"/>
<text text-anchor="middle" x="381" y="-39.4" font-family="Times Roman,serif" font-size="14.00">isstrict_prop_cat</text>
</a>
</g>
<!-- Core_set_cat -->
<g id="node2" class="node"><title>Core_set_cat</title>
<a xlink:href="Core.html#set_cat" xlink:title="set_cat">
<ellipse fill="#f070d1" stroke="black" cx="210" cy="-43" rx="46.2409" ry="18.3848"/>
<ellipse fill="none" stroke="black" cx="210" cy="-43" rx="50.2042" ry="22.3848"/>
<ellipse fill="none" stroke="black" cx="210" cy="-43" rx="54.1675" ry="26.3848"/>
<text text-anchor="middle" x="210" y="-39.4" font-family="Times Roman,serif" font-size="14.00">set_cat</text>
</a>
</g>
<!-- Core_prop_cat -->
<g id="node3" class="node"><title>Core_prop_cat</title>
<a xlink:href="Core.html#prop_cat" xlink:title="prop_cat">
<ellipse fill="#f070d1" stroke="black" cx="77" cy="-43" rx="53.3032" ry="18.3848"/>
<ellipse fill="none" stroke="black" cx="77" cy="-43" rx="57.2707" ry="22.3848"/>
<ellipse fill="none" stroke="black" cx="77" cy="-43" rx="61.2382" ry="26.3848"/>
<text text-anchor="middle" x="77" y="-39.4" font-family="Times Roman,serif" font-size="14.00">prop_cat</text>
</a>
</g>
</g>
</svg>
