<?xml version="1.0" encoding="UTF-8" standalone="no"?>
<!DOCTYPE svg PUBLIC "-//W3C//DTD SVG 1.1//EN"
 "http://www.w3.org/Graphics/SVG/1.1/DTD/svg11.dtd">
<!-- Generated by graphviz version 2.39.20141222.0545 (20141222.0545)
 -->
<!-- Title: HoTT_Constant Pages: 1 -->
<svg width="2089pt" height="1049pt"
 viewBox="0.00 0.00 2089.00 1048.50" xmlns="http://www.w3.org/2000/svg" xmlns:xlink="http://www.w3.org/1999/xlink">
<g id="graph0" class="graph" transform="scale(1 1) rotate(0) translate(4 1044.5)">
<title>HoTT_Constant</title>
<polygon fill="white" stroke="transparent" points="-4,4 -4,-1044.5 2085,-1044.5 2085,4 -4,4"/>
<g id="clust1" class="cluster"><title>cluster_Constant</title>
<polygon fill="#ffffc3" stroke="black" points="8,-33.1633 8,-1007.34 2073,-1007.34 2073,-33.1633 8,-33.1633"/>
<text text-anchor="middle" x="40.5" y="-992.137" font-family="Times,serif" font-size="14.00">Constant</text>
</g>
<!-- Constant_equiv_merely_rec_hset -->
<g id="node1" class="node"><title>Constant_equiv_merely_rec_hset</title>
<g id="a_node1"><a xlink:href="Constant.html#equiv_merely_rec_hset" xlink:title="equiv_merely_rec_hset">
<ellipse fill="#f070d1" stroke="black" cx="1964" cy="-771.163" rx="92.8882" ry="18"/>
<ellipse fill="none" stroke="black" cx="1964" cy="-771.163" rx="96.8858" ry="22"/>
<ellipse fill="none" stroke="black" cx="1964" cy="-771.163" rx="100.884" ry="26"/>
<text text-anchor="middle" x="1964" y="-767.463" font-family="Times,serif" font-size="14.00">equiv_merely_rec_hset</text>
</a>
</g>
</g>
<!-- Constant_merely_rec_hset -->
<g id="node3" class="node"><title>Constant_merely_rec_hset</title>
<g id="a_node3"><a xlink:href="Constant.html#merely_rec_hset" xlink:title="merely_rec_hset">
<ellipse fill="#f070d1" stroke="black" cx="1964" cy="-439.163" rx="69.5877" ry="18"/>
<text text-anchor="middle" x="1964" y="-435.463" font-family="Times,serif" font-size="14.00">merely_rec_hset</text>
</a>
</g>
</g>
<!-- Constant_equiv_merely_rec_hset&#45;&gt;Constant_merely_rec_hset -->
<g id="edge1" class="edge"><title>Constant_equiv_merely_rec_hset&#45;&gt;Constant_merely_rec_hset</title>
<path fill="none" stroke="black" d="M1964,-745.112C1964,-683.842 1964,-531.005 1964,-467.514"/>
<polygon fill="black" stroke="black" points="1967.5,-467.427 1964,-457.427 1960.5,-467.427 1967.5,-467.427"/>
</g>
<!-- Constant_merely_rec_hset_beta -->
<g id="node2" class="node"><title>Constant_merely_rec_hset_beta</title>
<g id="a_node2"><a xlink:href="Constant.html#merely_rec_hset_beta" xlink:title="merely_rec_hset_beta">
<ellipse fill="#f070d1" stroke="black" cx="1749" cy="-771.163" rx="88.2934" ry="18"/>
<ellipse fill="none" stroke="black" cx="1749" cy="-771.163" rx="92.2889" ry="22"/>
<ellipse fill="none" stroke="black" cx="1749" cy="-771.163" rx="96.2844" ry="26"/>
<text text-anchor="middle" x="1749" y="-767.463" font-family="Times,serif" font-size="14.00">merely_rec_hset_beta</text>
</a>
</g>
</g>
<!-- Constant_cconst_wconst_hset -->
<g id="node4" class="node"><title>Constant_cconst_wconst_hset</title>
<g id="a_node4"><a xlink:href="Constant.html#cconst_wconst_hset" xlink:title="cconst_wconst_hset">
<ellipse fill="#f070d1" stroke="black" cx="1545" cy="-771.163" rx="81.4644" ry="18"/>
<ellipse fill="none" stroke="black" cx="1545" cy="-771.163" rx="85.4753" ry="22"/>
<ellipse fill="none" stroke="black" cx="1545" cy="-771.163" rx="89.4862" ry="26"/>
<text text-anchor="middle" x="1545" y="-767.463" font-family="Times,serif" font-size="14.00">cconst_wconst_hset</text>
</a>
</g>
</g>
<!-- Constant_cconst_factors_hprop -->
<g id="node7" class="node"><title>Constant_cconst_factors_hprop</title>
<g id="a_node7"><a xlink:href="Constant.html#cconst_factors_hprop" xlink:title="cconst_factors_hprop">
<ellipse fill="#f070d1" stroke="black" cx="1545" cy="-439.163" rx="86.3847" ry="18"/>
<text text-anchor="middle" x="1545" y="-435.463" font-family="Times,serif" font-size="14.00">cconst_factors_hprop</text>
</a>
</g>
</g>
<!-- Constant_cconst_wconst_hset&#45;&gt;Constant_cconst_factors_hprop -->
<g id="edge2" class="edge"><title>Constant_cconst_wconst_hset&#45;&gt;Constant_cconst_factors_hprop</title>
<path fill="none" stroke="black" d="M1545,-745.112C1545,-683.842 1545,-531.005 1545,-467.514"/>
<polygon fill="black" stroke="black" points="1548.5,-467.427 1545,-457.427 1541.5,-467.427 1548.5,-467.427"/>
</g>
<!-- Constant_cconst_wconst_collapsible -->
<g id="node5" class="node"><title>Constant_cconst_wconst_collapsible</title>
<g id="a_node5"><a xlink:href="Constant.html#cconst_wconst_collapsible" xlink:title="cconst_wconst_collapsible">
<ellipse fill="#f070d1" stroke="black" cx="1325" cy="-771.163" rx="104.772" ry="18"/>
<ellipse fill="none" stroke="black" cx="1325" cy="-771.163" rx="108.777" ry="22"/>
<ellipse fill="none" stroke="black" cx="1325" cy="-771.163" rx="112.782" ry="26"/>
<text text-anchor="middle" x="1325" y="-767.463" font-family="Times,serif" font-size="14.00">cconst_wconst_collapsible</text>
</a>
</g>
</g>
<!-- Constant_splitsupp_collapsible -->
<g id="node12" class="node"><title>Constant_splitsupp_collapsible</title>
<g id="a_node12"><a xlink:href="Constant.html#splitsupp_collapsible" xlink:title="splitsupp_collapsible">
<ellipse fill="#f070d1" stroke="black" cx="803" cy="-439.163" rx="85.2851" ry="18"/>
<text text-anchor="middle" x="803" y="-435.463" font-family="Times,serif" font-size="14.00">splitsupp_collapsible</text>
</a>
</g>
</g>
<!-- Constant_cconst_wconst_collapsible&#45;&gt;Constant_splitsupp_collapsible -->
<g id="edge3" class="edge"><title>Constant_cconst_wconst_collapsible&#45;&gt;Constant_splitsupp_collapsible</title>
<path fill="none" stroke="black" d="M1286.19,-746.481C1188.34,-684.245 932.649,-521.622 838.483,-461.731"/>
<polygon fill="black" stroke="black" points="840.202,-458.676 829.885,-456.263 836.445,-464.583 840.202,-458.676"/>
</g>
<!-- Constant_cconst_factors_contr -->
<g id="node6" class="node"><title>Constant_cconst_factors_contr</title>
<g id="a_node6"><a xlink:href="Constant.html#cconst_factors_contr" xlink:title="cconst_factors_contr">
<ellipse fill="#f070d1" stroke="black" cx="1103" cy="-771.163" rx="83.6991" ry="18"/>
<ellipse fill="none" stroke="black" cx="1103" cy="-771.163" rx="87.6922" ry="22"/>
<ellipse fill="none" stroke="black" cx="1103" cy="-771.163" rx="91.6854" ry="26"/>
<text text-anchor="middle" x="1103" y="-767.463" font-family="Times,serif" font-size="14.00">cconst_factors_contr</text>
</a>
</g>
</g>
<!-- Constant_equiv_cconst_from_merely -->
<g id="node8" class="node"><title>Constant_equiv_cconst_from_merely</title>
<g id="a_node8"><a xlink:href="Constant.html#equiv_cconst_from_merely" xlink:title="equiv_cconst_from_merely">
<ellipse fill="#f070d1" stroke="black" cx="877" cy="-771.163" rx="108.578" ry="18"/>
<ellipse fill="none" stroke="black" cx="877" cy="-771.163" rx="112.579" ry="22"/>
<ellipse fill="none" stroke="black" cx="877" cy="-771.163" rx="116.581" ry="26"/>
<text text-anchor="middle" x="877" y="-767.463" font-family="Times,serif" font-size="14.00">equiv_cconst_from_merely</text>
</a>
</g>
</g>
<!-- Constant_cconst_const -->
<g id="node9" class="node"><title>Constant_cconst_const</title>
<g id="a_node9"><a xlink:href="Constant.html#cconst_const" xlink:title="cconst_const">
<ellipse fill="#f070d1" stroke="black" cx="679" cy="-771.163" rx="55.8034" ry="18"/>
<ellipse fill="none" stroke="black" cx="679" cy="-771.163" rx="59.7968" ry="22"/>
<ellipse fill="none" stroke="black" cx="679" cy="-771.163" rx="63.7903" ry="26"/>
<text text-anchor="middle" x="679" y="-767.463" font-family="Times,serif" font-size="14.00">cconst_const</text>
</a>
</g>
</g>
<!-- Constant_ConditionallyConstant -->
<g id="node10" class="node"><title>Constant_ConditionallyConstant</title>
<g id="a_node10"><a xlink:href="Constant.html#ConditionallyConstant" xlink:title="ConditionallyConstant">
<ellipse fill="#f070d1" stroke="black" cx="499" cy="-771.163" rx="90.1971" ry="18"/>
<ellipse fill="none" stroke="black" cx="499" cy="-771.163" rx="94.1906" ry="22"/>
<ellipse fill="none" stroke="black" cx="499" cy="-771.163" rx="98.1842" ry="26"/>
<text text-anchor="middle" x="499" y="-767.463" font-family="Times,serif" font-size="14.00">ConditionallyConstant</text>
</a>
</g>
</g>
<!-- Constant_collapsible_splitsupp -->
<g id="node11" class="node"><title>Constant_collapsible_splitsupp</title>
<g id="a_node11"><a xlink:href="Constant.html#collapsible_splitsupp" xlink:title="collapsible_splitsupp">
<ellipse fill="#f070d1" stroke="black" cx="290" cy="-771.163" rx="85.2729" ry="18"/>
<ellipse fill="none" stroke="black" cx="290" cy="-771.163" rx="89.279" ry="22"/>
<ellipse fill="none" stroke="black" cx="290" cy="-771.163" rx="93.2851" ry="26"/>
<text text-anchor="middle" x="290" y="-767.463" font-family="Times,serif" font-size="14.00">collapsible_splitsupp</text>
</a>
</g>
</g>
<!-- Constant_FixedBy -->
<g id="node15" class="node"><title>Constant_FixedBy</title>
<g id="a_node15"><a xlink:href="Constant.html#FixedBy" xlink:title="FixedBy">
<ellipse fill="#f070d1" stroke="black" cx="580" cy="-141.163" rx="40.8928" ry="18"/>
<text text-anchor="middle" x="580" y="-137.463" font-family="Times,serif" font-size="14.00">FixedBy</text>
</a>
</g>
</g>
<!-- Constant_splitsupp_collapsible&#45;&gt;Constant_FixedBy -->
<g id="edge4" class="edge"><title>Constant_splitsupp_collapsible&#45;&gt;Constant_FixedBy</title>
<path fill="none" stroke="black" d="M789.386,-420.971C751.171,-369.902 642.834,-225.13 598.879,-166.392"/>
<polygon fill="black" stroke="black" points="601.671,-164.28 592.877,-158.371 596.066,-168.474 601.671,-164.28"/>
</g>
<!-- Constant_equiv_fix_merely -->
<g id="node13" class="node"><title>Constant_equiv_fix_merely</title>
<g id="a_node13"><a xlink:href="Constant.html#equiv_fix_merely" xlink:title="equiv_fix_merely">
<ellipse fill="#f070d1" stroke="black" cx="97" cy="-771.163" rx="73.3926" ry="18"/>
<ellipse fill="none" stroke="black" cx="97" cy="-771.163" rx="77.3898" ry="22"/>
<ellipse fill="none" stroke="black" cx="97" cy="-771.163" rx="81.387" ry="26"/>
<text text-anchor="middle" x="97" y="-767.463" font-family="Times,serif" font-size="14.00">equiv_fix_merely</text>
</a>
</g>
</g>
<!-- Constant_ishprop_fix_wconst -->
<g id="node14" class="node"><title>Constant_ishprop_fix_wconst</title>
<g id="a_node14"><a xlink:href="Constant.html#ishprop_fix_wconst" xlink:title="ishprop_fix_wconst">
<ellipse fill="#f070d1" stroke="black" cx="358" cy="-439.163" rx="80.6858" ry="18"/>
<text text-anchor="middle" x="358" y="-435.463" font-family="Times,serif" font-size="14.00">ishprop_fix_wconst</text>
</a>
</g>
</g>
<!-- Constant_equiv_fix_merely&#45;&gt;Constant_ishprop_fix_wconst -->
<g id="edge5" class="edge"><title>Constant_equiv_fix_merely&#45;&gt;Constant_ishprop_fix_wconst</title>
<path fill="none" stroke="black" d="M116.832,-745.937C165.119,-684.514 288.421,-527.67 337.447,-465.308"/>
<polygon fill="black" stroke="black" points="340.427,-467.18 343.856,-457.155 334.924,-462.854 340.427,-467.18"/>
</g>
<!-- Constant_ishprop_fix_wconst&#45;&gt;Constant_FixedBy -->
<g id="edge6" class="edge"><title>Constant_ishprop_fix_wconst&#45;&gt;Constant_FixedBy</title>
<path fill="none" stroke="black" d="M371.553,-420.971C409.597,-369.902 517.448,-225.13 561.206,-166.392"/>
<polygon fill="black" stroke="black" points="564.014,-168.481 567.181,-158.371 558.4,-164.299 564.014,-168.481"/>
</g>
</g>
</svg>
