<?xml version="1.0" encoding="UTF-8" standalone="no"?>
<!DOCTYPE svg PUBLIC "-//W3C//DTD SVG 1.1//EN"
 "http://www.w3.org/Graphics/SVG/1.1/DTD/svg11.dtd">
<!-- Generated by graphviz version 2.26.3 (20100126.1600)
 -->
<!-- Title: HoTT_categories_Adjoint_UnitCounit Pages: 1 -->
<svg width="2812pt" height="1410pt"
 viewBox="0.00 0.00 2812.00 1410.00" xmlns="http://www.w3.org/2000/svg" xmlns:xlink="http://www.w3.org/1999/xlink">
<g id="graph1" class="graph" transform="scale(1 1) rotate(0) translate(4 1406)">
<title>HoTT_categories_Adjoint_UnitCounit</title>
<polygon fill="white" stroke="white" points="-4,5 -4,-1406 2809,-1406 2809,5 -4,5"/>
<g id="graph2" class="cluster"><title>cluster_UnitCounit</title>
<polygon fill="#ffffc3" stroke="black" points="8,-43.1385 8,-1358.86 2796,-1358.86 2796,-43.1385 8,-43.1385"/>
<text text-anchor="middle" x="54" y="-1342.26" font-family="Times Roman,serif" font-size="14.00">UnitCounit</text>
</g>
<!-- UnitCounit_unit_counit_equation_2 -->
<g id="node1" class="node"><title>UnitCounit_unit_counit_equation_2</title>
<a xlink:href="UnitCounit.html#unit_counit_equation_2" xlink:title="unit_counit_equation_2">
<ellipse fill="#f070d1" stroke="black" cx="2654" cy="-1030.14" rx="126.102" ry="18.3848"/>
<ellipse fill="none" stroke="black" cx="2654" cy="-1030.14" rx="130.087" ry="22.3848"/>
<ellipse fill="none" stroke="black" cx="2654" cy="-1030.14" rx="134.072" ry="26.3848"/>
<text text-anchor="middle" x="2654" y="-1026.54" font-family="Times Roman,serif" font-size="14.00">unit_counit_equation_2</text>
</a>
</g>
<!-- UnitCounit_counit -->
<g id="node3" class="node"><title>UnitCounit_counit</title>
<a xlink:href="UnitCounit.html#counit" xlink:title="counit">
<ellipse fill="#f070d1" stroke="black" cx="2466" cy="-588.138" rx="41.2167" ry="18.3848"/>
<text text-anchor="middle" x="2466" y="-584.538" font-family="Times Roman,serif" font-size="14.00">counit</text>
</a>
</g>
<!-- UnitCounit_unit_counit_equation_2&#45;&gt;UnitCounit_counit -->
<g id="edge2" class="edge"><title>UnitCounit_unit_counit_equation_2&#45;&gt;UnitCounit_counit</title>
<path fill="none" stroke="black" d="M2642.66,-1003.48C2609.32,-925.088 2511.79,-695.783 2477.82,-615.938"/>
<polygon fill="black" stroke="black" points="2480.96,-614.369 2473.83,-606.536 2474.52,-617.108 2480.96,-614.369"/>
</g>
<!-- UnitCounit_unit -->
<g id="node4" class="node"><title>UnitCounit_unit</title>
<a xlink:href="UnitCounit.html#unit" xlink:title="unit">
<ellipse fill="#f070d1" stroke="black" cx="2556" cy="-588.138" rx="31.1127" ry="18.3848"/>
<text text-anchor="middle" x="2556" y="-584.538" font-family="Times Roman,serif" font-size="14.00">unit</text>
</a>
</g>
<!-- UnitCounit_unit_counit_equation_2&#45;&gt;UnitCounit_unit -->
<g id="edge4" class="edge"><title>UnitCounit_unit_counit_equation_2&#45;&gt;UnitCounit_unit</title>
<path fill="none" stroke="black" d="M2648.09,-1003.48C2630.74,-925.248 2580.07,-696.717 2562.27,-616.427"/>
<polygon fill="black" stroke="black" points="2565.66,-615.542 2560.08,-606.536 2558.83,-617.057 2565.66,-615.542"/>
</g>
<!-- UnitCounit_unit_counit_equation_1 -->
<g id="node2" class="node"><title>UnitCounit_unit_counit_equation_1</title>
<a xlink:href="UnitCounit.html#unit_counit_equation_1" xlink:title="unit_counit_equation_1">
<ellipse fill="#f070d1" stroke="black" cx="2368" cy="-1030.14" rx="126.102" ry="18.3848"/>
<ellipse fill="none" stroke="black" cx="2368" cy="-1030.14" rx="130.087" ry="22.3848"/>
<ellipse fill="none" stroke="black" cx="2368" cy="-1030.14" rx="134.072" ry="26.3848"/>
<text text-anchor="middle" x="2368" y="-1026.54" font-family="Times Roman,serif" font-size="14.00">unit_counit_equation_1</text>
</a>
</g>
<!-- UnitCounit_unit_counit_equation_1&#45;&gt;UnitCounit_counit -->
<g id="edge6" class="edge"><title>UnitCounit_unit_counit_equation_1&#45;&gt;UnitCounit_counit</title>
<path fill="none" stroke="black" d="M2373.91,-1003.48C2391.22,-925.427 2441.69,-697.759 2459.61,-616.98"/>
<polygon fill="black" stroke="black" points="2463.07,-617.535 2461.81,-607.014 2456.23,-616.019 2463.07,-617.535"/>
</g>
<!-- UnitCounit_unit_counit_equation_1&#45;&gt;UnitCounit_unit -->
<g id="edge8" class="edge"><title>UnitCounit_unit_counit_equation_1&#45;&gt;UnitCounit_unit</title>
<path fill="none" stroke="black" d="M2379.34,-1003.48C2412.68,-925.088 2510.21,-695.783 2544.18,-615.938"/>
<polygon fill="black" stroke="black" points="2547.48,-617.108 2548.17,-606.536 2541.04,-614.369 2547.48,-617.108"/>
</g>
<!-- UnitCounit_AdjunctionUnitCounit -->
<g id="node6" class="node"><title>UnitCounit_AdjunctionUnitCounit</title>
<a xlink:href="UnitCounit.html#AdjunctionUnitCounit" xlink:title="AdjunctionUnitCounit">
<ellipse fill="#e2cdfa" stroke="black" cx="2511" cy="-189.138" rx="116.172" ry="18.3848"/>
<text text-anchor="middle" x="2511" y="-185.538" font-family="Times Roman,serif" font-size="14.00">AdjunctionUnitCounit</text>
</a>
</g>
<!-- UnitCounit_counit&#45;&gt;UnitCounit_AdjunctionUnitCounit -->
<g id="edge10" class="edge"><title>UnitCounit_counit&#45;&gt;UnitCounit_AdjunctionUnitCounit</title>
<path fill="none" stroke="black" d="M2468.11,-569.429C2475.33,-505.419 2499.07,-294.891 2507.77,-217.774"/>
<polygon fill="black" stroke="black" points="2511.25,-218.137 2508.89,-207.807 2504.3,-217.352 2511.25,-218.137"/>
</g>
<!-- UnitCounit_unit&#45;&gt;UnitCounit_AdjunctionUnitCounit -->
<g id="edge12" class="edge"><title>UnitCounit_unit&#45;&gt;UnitCounit_AdjunctionUnitCounit</title>
<path fill="none" stroke="black" d="M2553.89,-569.429C2546.67,-505.419 2522.93,-294.891 2514.23,-217.774"/>
<polygon fill="black" stroke="black" points="2517.7,-217.352 2513.11,-207.807 2510.75,-218.137 2517.7,-217.352"/>
</g>
<!-- UnitCounit_Build_AdjunctionUnitCounit -->
<g id="node5" class="node"><title>UnitCounit_Build_AdjunctionUnitCounit</title>
<a xlink:href="UnitCounit.html#Build_AdjunctionUnitCounit" xlink:title="Build_AdjunctionUnitCounit">
<ellipse fill="#7faaff" stroke="black" cx="2062" cy="-1030.14" rx="145.897" ry="18.3848"/>
<ellipse fill="none" stroke="black" cx="2062" cy="-1030.14" rx="149.884" ry="22.3848"/>
<ellipse fill="none" stroke="black" cx="2062" cy="-1030.14" rx="153.872" ry="26.3848"/>
<text text-anchor="middle" x="2062" y="-1026.54" font-family="Times Roman,serif" font-size="14.00">Build_AdjunctionUnitCounit</text>
</a>
</g>
<!-- UnitCounit_adjunction_unit__op__adjunction_counit__inv -->
<g id="node7" class="node"><title>UnitCounit_adjunction_unit__op__adjunction_counit__inv</title>
<a xlink:href="UnitCounit.html#adjunction_unit__op__adjunction_counit__inv" xlink:title="adjunction_unit__op__adjunction_counit__inv">
<ellipse fill="#f070d1" stroke="black" cx="1650" cy="-1030.14" rx="232.154" ry="18.3848"/>
<ellipse fill="none" stroke="black" cx="1650" cy="-1030.14" rx="236.146" ry="22.3848"/>
<ellipse fill="none" stroke="black" cx="1650" cy="-1030.14" rx="240.138" ry="26.3848"/>
<text text-anchor="middle" x="1650" y="-1026.54" font-family="Times Roman,serif" font-size="14.00">adjunction_unit__op__adjunction_counit__inv</text>
</a>
</g>
<!-- UnitCounit_AdjunctionCounit -->
<g id="node11" class="node"><title>UnitCounit_AdjunctionCounit</title>
<a xlink:href="UnitCounit.html#AdjunctionCounit" xlink:title="AdjunctionCounit">
<ellipse fill="#f070d1" stroke="black" cx="1413" cy="-588.138" rx="96.1665" ry="18.3848"/>
<text text-anchor="middle" x="1413" y="-584.538" font-family="Times Roman,serif" font-size="14.00">AdjunctionCounit</text>
</a>
</g>
<!-- UnitCounit_adjunction_unit__op__adjunction_counit__inv&#45;&gt;UnitCounit_AdjunctionCounit -->
<g id="edge14" class="edge"><title>UnitCounit_adjunction_unit__op__adjunction_counit__inv&#45;&gt;UnitCounit_AdjunctionCounit</title>
<path fill="none" stroke="black" d="M1635.71,-1003.48C1593.68,-925.108 1470.78,-695.898 1427.94,-615.998"/>
<polygon fill="black" stroke="black" points="1430.93,-614.173 1423.12,-607.014 1424.76,-617.481 1430.93,-614.173"/>
</g>
<!-- UnitCounit_adjunction_unit__op__adjunction_counit -->
<g id="node8" class="node"><title>UnitCounit_adjunction_unit__op__adjunction_counit</title>
<a xlink:href="UnitCounit.html#adjunction_unit__op__adjunction_counit" xlink:title="adjunction_unit__op__adjunction_counit">
<ellipse fill="#f070d1" stroke="black" cx="1177" cy="-1030.14" rx="207.182" ry="18.3848"/>
<ellipse fill="none" stroke="black" cx="1177" cy="-1030.14" rx="211.182" ry="22.3848"/>
<ellipse fill="none" stroke="black" cx="1177" cy="-1030.14" rx="215.182" ry="26.3848"/>
<text text-anchor="middle" x="1177" y="-1026.54" font-family="Times Roman,serif" font-size="14.00">adjunction_unit__op__adjunction_counit</text>
</a>
</g>
<!-- UnitCounit_adjunction_unit__op__adjunction_counit&#45;&gt;UnitCounit_AdjunctionCounit -->
<g id="edge16" class="edge"><title>UnitCounit_adjunction_unit__op__adjunction_counit&#45;&gt;UnitCounit_AdjunctionCounit</title>
<path fill="none" stroke="black" d="M1191.23,-1003.48C1233.08,-925.108 1355.46,-695.898 1398.12,-615.998"/>
<polygon fill="black" stroke="black" points="1401.3,-617.484 1402.92,-607.014 1395.12,-614.187 1401.3,-617.484"/>
</g>
<!-- UnitCounit_adjunction_counit__op__adjunction_unit__inv -->
<g id="node9" class="node"><title>UnitCounit_adjunction_counit__op__adjunction_unit__inv</title>
<a xlink:href="UnitCounit.html#adjunction_counit__op__adjunction_unit__inv" xlink:title="adjunction_counit__op__adjunction_unit__inv">
<ellipse fill="#f070d1" stroke="black" cx="704" cy="-1030.14" rx="232.154" ry="18.3848"/>
<ellipse fill="none" stroke="black" cx="704" cy="-1030.14" rx="236.146" ry="22.3848"/>
<ellipse fill="none" stroke="black" cx="704" cy="-1030.14" rx="240.138" ry="26.3848"/>
<text text-anchor="middle" x="704" y="-1026.54" font-family="Times Roman,serif" font-size="14.00">adjunction_counit__op__adjunction_unit__inv</text>
</a>
</g>
<!-- UnitCounit_AdjunctionUnit -->
<g id="node12" class="node"><title>UnitCounit_AdjunctionUnit</title>
<a xlink:href="UnitCounit.html#AdjunctionUnit" xlink:title="AdjunctionUnit">
<ellipse fill="#f070d1" stroke="black" cx="467" cy="-588.138" rx="84.1457" ry="18.3848"/>
<text text-anchor="middle" x="467" y="-584.538" font-family="Times Roman,serif" font-size="14.00">AdjunctionUnit</text>
</a>
</g>
<!-- UnitCounit_adjunction_counit__op__adjunction_unit__inv&#45;&gt;UnitCounit_AdjunctionUnit -->
<g id="edge18" class="edge"><title>UnitCounit_adjunction_counit__op__adjunction_unit__inv&#45;&gt;UnitCounit_AdjunctionUnit</title>
<path fill="none" stroke="black" d="M689.708,-1003.48C647.587,-924.929 524.218,-694.849 481.645,-615.452"/>
<polygon fill="black" stroke="black" points="484.675,-613.695 476.865,-606.536 478.506,-617.003 484.675,-613.695"/>
</g>
<!-- UnitCounit_adjunction_counit__op__adjunction_unit -->
<g id="node10" class="node"><title>UnitCounit_adjunction_counit__op__adjunction_unit</title>
<a xlink:href="UnitCounit.html#adjunction_counit__op__adjunction_unit" xlink:title="adjunction_counit__op__adjunction_unit">
<ellipse fill="#f070d1" stroke="black" cx="231" cy="-1030.14" rx="207.182" ry="18.3848"/>
<ellipse fill="none" stroke="black" cx="231" cy="-1030.14" rx="211.182" ry="22.3848"/>
<ellipse fill="none" stroke="black" cx="231" cy="-1030.14" rx="215.182" ry="26.3848"/>
<text text-anchor="middle" x="231" y="-1026.54" font-family="Times Roman,serif" font-size="14.00">adjunction_counit__op__adjunction_unit</text>
</a>
</g>
<!-- UnitCounit_adjunction_counit__op__adjunction_unit&#45;&gt;UnitCounit_AdjunctionUnit -->
<g id="edge20" class="edge"><title>UnitCounit_adjunction_counit__op__adjunction_unit&#45;&gt;UnitCounit_AdjunctionUnit</title>
<path fill="none" stroke="black" d="M245.231,-1003.48C287.175,-924.929 410.024,-694.849 452.417,-615.452"/>
<polygon fill="black" stroke="black" points="455.554,-617.006 457.177,-606.536 449.379,-613.709 455.554,-617.006"/>
</g>
</g>
</svg>
