<?xml version="1.0" encoding="UTF-8" standalone="no"?>
<!DOCTYPE svg PUBLIC "-//W3C//DTD SVG 1.1//EN"
 "http://www.w3.org/Graphics/SVG/1.1/DTD/svg11.dtd">
<!-- Generated by graphviz version 2.26.3 (20100126.1600)
 -->
<!-- Title: HoTT_Basics_Trunc Pages: 1 -->
<svg width="2852pt" height="1430pt"
 viewBox="0.00 0.00 2852.00 1430.00" xmlns="http://www.w3.org/2000/svg" xmlns:xlink="http://www.w3.org/1999/xlink">
<g id="graph1" class="graph" transform="scale(1 1) rotate(0) translate(4 1426)">
<title>HoTT_Basics_Trunc</title>
<polygon fill="white" stroke="white" points="-4,5 -4,-1426 2849,-1426 2849,5 -4,5"/>
<g id="graph2" class="cluster"><title>cluster_Trunc</title>
<polygon fill="#ffffc3" stroke="black" points="8,-21.4642 8,-1400.54 2836,-1400.54 2836,-21.4642 8,-21.4642"/>
<text text-anchor="middle" x="35" y="-1383.94" font-family="Times Roman,serif" font-size="14.00">Trunc</text>
</g>
<!-- Trunc_hset_decpaths -->
<g id="node1" class="node"><title>Trunc_hset_decpaths</title>
<a xlink:href="Trunc.html#hset_decpaths" xlink:title="hset_decpaths">
<ellipse fill="#f070d1" stroke="black" cx="2738" cy="-1236.46" rx="82.0244" ry="18.3848"/>
<ellipse fill="none" stroke="black" cx="2738" cy="-1236.46" rx="86.0244" ry="22.3848"/>
<ellipse fill="none" stroke="black" cx="2738" cy="-1236.46" rx="90.0244" ry="26.3848"/>
<text text-anchor="middle" x="2738" y="-1232.86" font-family="Times Roman,serif" font-size="14.00">hset_decpaths</text>
</a>
</g>
<!-- Trunc_hset_pathcoll -->
<g id="node4" class="node"><title>Trunc_hset_pathcoll</title>
<a xlink:href="Trunc.html#hset_pathcoll" xlink:title="hset_pathcoll">
<ellipse fill="#f070d1" stroke="black" cx="2718" cy="-995.464" rx="75.8684" ry="18.3848"/>
<text text-anchor="middle" x="2718" y="-991.864" font-family="Times Roman,serif" font-size="14.00">hset_pathcoll</text>
</a>
</g>
<!-- Trunc_hset_decpaths&#45;&gt;Trunc_hset_pathcoll -->
<g id="edge2" class="edge"><title>Trunc_hset_decpaths&#45;&gt;Trunc_hset_pathcoll</title>
<path fill="none" stroke="black" d="M2735.78,-1209.75C2731.99,-1164.05 2724.29,-1071.23 2720.38,-1024.18"/>
<polygon fill="black" stroke="black" points="2723.86,-1023.74 2719.54,-1014.07 2716.88,-1024.32 2723.86,-1023.74"/>
</g>
<!-- Trunc_pathcoll_decpaths -->
<g id="node5" class="node"><title>Trunc_pathcoll_decpaths</title>
<a xlink:href="Trunc.html#pathcoll_decpaths" xlink:title="pathcoll_decpaths">
<ellipse fill="#f070d1" stroke="black" cx="1809" cy="-753.464" rx="98.9949" ry="18.3848"/>
<text text-anchor="middle" x="1809" y="-749.864" font-family="Times Roman,serif" font-size="14.00">pathcoll_decpaths</text>
</a>
</g>
<!-- Trunc_hset_decpaths&#45;&gt;Trunc_pathcoll_decpaths -->
<g id="edge4" class="edge"><title>Trunc_hset_decpaths&#45;&gt;Trunc_pathcoll_decpaths</title>
<path fill="none" stroke="black" d="M2693.51,-1213.33C2536.11,-1131.5 2006.8,-856.304 1851.92,-775.777"/>
<polygon fill="black" stroke="black" points="1853.17,-772.486 1842.69,-770.979 1849.95,-778.697 1853.17,-772.486"/>
</g>
<!-- Trunc_pathcoll_hset -->
<g id="node2" class="node"><title>Trunc_pathcoll_hset</title>
<a xlink:href="Trunc.html#pathcoll_hset" xlink:title="pathcoll_hset">
<ellipse fill="#f070d1" stroke="black" cx="1608" cy="-753.464" rx="75.9157" ry="18.3848"/>
<ellipse fill="none" stroke="black" cx="1608" cy="-753.464" rx="79.892" ry="22.3848"/>
<ellipse fill="none" stroke="black" cx="1608" cy="-753.464" rx="83.8683" ry="26.3848"/>
<text text-anchor="middle" x="1608" y="-749.864" font-family="Times Roman,serif" font-size="14.00">pathcoll_hset</text>
</a>
</g>
<!-- Trunc_collapsible_hprop -->
<g id="node3" class="node"><title>Trunc_collapsible_hprop</title>
<a xlink:href="Trunc.html#collapsible_hprop" xlink:title="collapsible_hprop">
<ellipse fill="#f070d1" stroke="black" cx="1663" cy="-512.464" rx="94.7523" ry="18.3848"/>
<text text-anchor="middle" x="1663" y="-508.864" font-family="Times Roman,serif" font-size="14.00">collapsible_hprop</text>
</a>
</g>
<!-- Trunc_pathcoll_hset&#45;&gt;Trunc_collapsible_hprop -->
<g id="edge6" class="edge"><title>Trunc_pathcoll_hset&#45;&gt;Trunc_collapsible_hprop</title>
<path fill="none" stroke="black" d="M1614.1,-726.752C1624.55,-680.95 1645.8,-587.836 1656.51,-540.885"/>
<polygon fill="black" stroke="black" points="1659.94,-541.593 1658.75,-531.065 1653.12,-540.036 1659.94,-541.593"/>
</g>
<!-- Trunc_PathCollapsible -->
<g id="node8" class="node"><title>Trunc_PathCollapsible</title>
<a xlink:href="Trunc.html#PathCollapsible" xlink:title="PathCollapsible">
<ellipse fill="#f070d1" stroke="black" cx="2129" cy="-512.464" rx="85.0596" ry="18.3848"/>
<text text-anchor="middle" x="2129" y="-508.864" font-family="Times Roman,serif" font-size="14.00">PathCollapsible</text>
</a>
</g>
<!-- Trunc_pathcoll_hset&#45;&gt;Trunc_PathCollapsible -->
<g id="edge8" class="edge"><title>Trunc_pathcoll_hset&#45;&gt;Trunc_PathCollapsible</title>
<path fill="none" stroke="black" d="M1655.62,-731.438C1755.41,-685.276 1985.34,-578.916 2083.38,-533.568"/>
<polygon fill="black" stroke="black" points="2085.12,-536.62 2092.72,-529.245 2082.18,-530.267 2085.12,-536.62"/>
</g>
<!-- Trunc_Build_Collapsible -->
<g id="node14" class="node"><title>Trunc_Build_Collapsible</title>
<a xlink:href="Trunc.html#Build_Collapsible" xlink:title="Build_Collapsible">
<ellipse fill="#7faaff" stroke="black" cx="1983" cy="-292.464" rx="92.1303" ry="18.3848"/>
<text text-anchor="middle" x="1983" y="-288.864" font-family="Times Roman,serif" font-size="14.00">Build_Collapsible</text>
</a>
</g>
<!-- Trunc_collapsible_hprop&#45;&gt;Trunc_Build_Collapsible -->
<g id="edge10" class="edge"><title>Trunc_collapsible_hprop&#45;&gt;Trunc_Build_Collapsible</title>
<path fill="none" stroke="black" d="M1688.92,-494.647C1746.19,-455.274 1883.55,-360.839 1948.22,-316.379"/>
<polygon fill="black" stroke="black" points="1950.58,-318.997 1956.84,-310.448 1946.62,-313.229 1950.58,-318.997"/>
</g>
<!-- Trunc_path_ishprop -->
<g id="node22" class="node"><title>Trunc_path_ishprop</title>
<a xlink:href="Trunc.html#path_ishprop" xlink:title="path_ishprop">
<ellipse fill="#f070d1" stroke="black" cx="1412" cy="-292.464" rx="74.9533" ry="18.3848"/>
<text text-anchor="middle" x="1412" y="-288.864" font-family="Times Roman,serif" font-size="14.00">path_ishprop</text>
</a>
</g>
<!-- Trunc_collapsible_hprop&#45;&gt;Trunc_path_ishprop -->
<g id="edge12" class="edge"><title>Trunc_collapsible_hprop&#45;&gt;Trunc_path_ishprop</title>
<path fill="none" stroke="black" d="M1642.03,-494.085C1596.96,-454.581 1490.83,-361.559 1440.04,-317.041"/>
<polygon fill="black" stroke="black" points="1442.21,-314.288 1432.38,-310.329 1437.59,-319.552 1442.21,-314.288"/>
</g>
<!-- Trunc_path_coll -->
<g id="node7" class="node"><title>Trunc_path_coll</title>
<a xlink:href="Trunc.html#path_coll" xlink:title="path_coll">
<ellipse fill="#f070d1" stroke="black" cx="2155" cy="-753.464" rx="55.1543" ry="18.3848"/>
<text text-anchor="middle" x="2155" y="-749.864" font-family="Times Roman,serif" font-size="14.00">path_coll</text>
</a>
</g>
<!-- Trunc_hset_pathcoll&#45;&gt;Trunc_path_coll -->
<g id="edge14" class="edge"><title>Trunc_hset_pathcoll&#45;&gt;Trunc_path_coll</title>
<path fill="none" stroke="black" d="M2680.19,-979.21C2579.43,-935.902 2304.93,-817.909 2198.23,-772.046"/>
<polygon fill="black" stroke="black" points="2199.61,-768.828 2189.04,-768.095 2196.84,-775.259 2199.61,-768.828"/>
</g>
<!-- Trunc_wconst_collapse -->
<g id="node9" class="node"><title>Trunc_wconst_collapse</title>
<a xlink:href="Trunc.html#wconst_collapse" xlink:title="wconst_collapse">
<ellipse fill="#f070d1" stroke="black" cx="2718" cy="-753.464" rx="90.0096" ry="18.3848"/>
<text text-anchor="middle" x="2718" y="-749.864" font-family="Times Roman,serif" font-size="14.00">wconst_collapse</text>
</a>
</g>
<!-- Trunc_hset_pathcoll&#45;&gt;Trunc_wconst_collapse -->
<g id="edge16" class="edge"><title>Trunc_hset_pathcoll&#45;&gt;Trunc_wconst_collapse</title>
<path fill="none" stroke="black" d="M2718,-976.877C2718,-934.91 2718,-832.57 2718,-782.296"/>
<polygon fill="black" stroke="black" points="2721.5,-782.115 2718,-772.115 2714.5,-782.115 2721.5,-782.115"/>
</g>
<!-- Trunc_wconst -->
<g id="node16" class="node"><title>Trunc_wconst</title>
<a xlink:href="Trunc.html#wconst" xlink:title="wconst">
<ellipse fill="#f070d1" stroke="black" cx="2614" cy="-292.464" rx="46.1672" ry="18.3848"/>
<text text-anchor="middle" x="2614" y="-288.864" font-family="Times Roman,serif" font-size="14.00">wconst</text>
</a>
</g>
<!-- Trunc_hset_pathcoll&#45;&gt;Trunc_wconst -->
<g id="edge18" class="edge"><title>Trunc_hset_pathcoll&#45;&gt;Trunc_wconst</title>
<path fill="none" stroke="black" d="M2732.75,-977.071C2765.3,-934.25 2838.71,-824.106 2817,-726.464 2780.28,-561.278 2673.73,-384.563 2631.52,-318.953"/>
<polygon fill="black" stroke="black" points="2634.38,-316.933 2626,-310.446 2628.51,-320.741 2634.38,-316.933"/>
</g>
<!-- Trunc_hprop_allpath -->
<g id="node21" class="node"><title>Trunc_hprop_allpath</title>
<a xlink:href="Trunc.html#hprop_allpath" xlink:title="hprop_allpath">
<ellipse fill="#f070d1" stroke="black" cx="2004" cy="-753.464" rx="77.9889" ry="18.3848"/>
<text text-anchor="middle" x="2004" y="-749.864" font-family="Times Roman,serif" font-size="14.00">hprop_allpath</text>
</a>
</g>
<!-- Trunc_hset_pathcoll&#45;&gt;Trunc_hprop_allpath -->
<g id="edge20" class="edge"><title>Trunc_hset_pathcoll&#45;&gt;Trunc_hprop_allpath</title>
<path fill="none" stroke="black" d="M2673.61,-980.417C2548.92,-938.156 2195.73,-818.449 2059.01,-772.108"/>
<polygon fill="black" stroke="black" points="2059.75,-768.664 2049.15,-768.769 2057.5,-775.294 2059.75,-768.664"/>
</g>
<!-- Trunc_collapsible_decidable -->
<g id="node6" class="node"><title>Trunc_collapsible_decidable</title>
<a xlink:href="Trunc.html#collapsible_decidable" xlink:title="collapsible_decidable">
<ellipse fill="#f070d1" stroke="black" cx="1915" cy="-512.464" rx="111.222" ry="18.3848"/>
<text text-anchor="middle" x="1915" y="-508.864" font-family="Times Roman,serif" font-size="14.00">collapsible_decidable</text>
</a>
</g>
<!-- Trunc_pathcoll_decpaths&#45;&gt;Trunc_collapsible_decidable -->
<g id="edge22" class="edge"><title>Trunc_pathcoll_decpaths&#45;&gt;Trunc_collapsible_decidable</title>
<path fill="none" stroke="black" d="M1817.14,-734.953C1835.64,-692.897 1880.92,-589.958 1902.78,-540.239"/>
<polygon fill="black" stroke="black" points="1906.01,-541.601 1906.83,-531.038 1899.6,-538.782 1906.01,-541.601"/>
</g>
<!-- Trunc_pathcoll_decpaths&#45;&gt;Trunc_PathCollapsible -->
<g id="edge24" class="edge"><title>Trunc_pathcoll_decpaths&#45;&gt;Trunc_PathCollapsible</title>
<path fill="none" stroke="black" d="M1833.05,-735.35C1889.95,-692.502 2032.82,-584.9 2096.96,-536.596"/>
<polygon fill="black" stroke="black" points="2099.22,-539.272 2105.11,-530.46 2095.01,-533.68 2099.22,-539.272"/>
</g>
<!-- Trunc_collapsible_decidable&#45;&gt;Trunc_Build_Collapsible -->
<g id="edge26" class="edge"><title>Trunc_collapsible_decidable&#45;&gt;Trunc_Build_Collapsible</title>
<path fill="none" stroke="black" d="M1920.8,-493.707C1932.74,-455.065 1960.15,-366.393 1974.26,-320.751"/>
<polygon fill="black" stroke="black" points="1977.61,-321.761 1977.22,-311.174 1970.92,-319.694 1977.61,-321.761"/>
</g>
<!-- Trunc_Collapsible -->
<g id="node15" class="node"><title>Trunc_Collapsible</title>
<a xlink:href="Trunc.html#Collapsible" xlink:title="Collapsible">
<ellipse fill="#e2cdfa" stroke="black" cx="2224" cy="-292.464" rx="62.9325" ry="18.3848"/>
<text text-anchor="middle" x="2224" y="-288.864" font-family="Times Roman,serif" font-size="14.00">Collapsible</text>
</a>
</g>
<!-- Trunc_collapsible_decidable&#45;&gt;Trunc_Collapsible -->
<g id="edge28" class="edge"><title>Trunc_collapsible_decidable&#45;&gt;Trunc_Collapsible</title>
<path fill="none" stroke="black" d="M1940.55,-494.273C1996.48,-454.453 2129.68,-359.616 2191.48,-315.619"/>
<polygon fill="black" stroke="black" points="2193.59,-318.41 2199.71,-309.759 2189.53,-312.708 2193.59,-318.41"/>
</g>
<!-- Trunc_path_coll&#45;&gt;Trunc_PathCollapsible -->
<g id="edge30" class="edge"><title>Trunc_path_coll&#45;&gt;Trunc_PathCollapsible</title>
<path fill="none" stroke="black" d="M2153,-734.953C2148.49,-693.16 2137.5,-591.243 2132.1,-541.177"/>
<polygon fill="black" stroke="black" points="2135.56,-540.605 2131,-531.038 2128.6,-541.356 2135.56,-540.605"/>
</g>
<!-- Trunc_PathCollapsible&#45;&gt;Trunc_Collapsible -->
<g id="edge32" class="edge"><title>Trunc_PathCollapsible&#45;&gt;Trunc_Collapsible</title>
<path fill="none" stroke="black" d="M2137.1,-493.707C2153.86,-454.887 2192.43,-365.575 2212.06,-320.123"/>
<polygon fill="black" stroke="black" points="2215.3,-321.432 2216.05,-310.863 2208.88,-318.657 2215.3,-321.432"/>
</g>
<!-- Trunc_collapse -->
<g id="node10" class="node"><title>Trunc_collapse</title>
<a xlink:href="Trunc.html#collapse" xlink:title="collapse">
<ellipse fill="#f070d1" stroke="black" cx="2596" cy="-512.464" rx="50.2046" ry="18.3848"/>
<text text-anchor="middle" x="2596" y="-508.864" font-family="Times Roman,serif" font-size="14.00">collapse</text>
</a>
</g>
<!-- Trunc_wconst_collapse&#45;&gt;Trunc_collapse -->
<g id="edge34" class="edge"><title>Trunc_wconst_collapse&#45;&gt;Trunc_collapse</title>
<path fill="none" stroke="black" d="M2708.63,-734.953C2687.29,-692.794 2634.97,-589.452 2609.88,-539.873"/>
<polygon fill="black" stroke="black" points="2612.87,-538.049 2605.24,-530.708 2606.63,-541.211 2612.87,-538.049"/>
</g>
<!-- Trunc_collapse&#45;&gt;Trunc_Collapsible -->
<g id="edge36" class="edge"><title>Trunc_collapse&#45;&gt;Trunc_Collapsible</title>
<path fill="none" stroke="black" d="M2569.25,-496.642C2503.77,-457.92 2335.38,-358.335 2260.66,-314.143"/>
<polygon fill="black" stroke="black" points="2262.41,-311.114 2252.02,-309.037 2258.85,-317.14 2262.41,-311.114"/>
</g>
<!-- Trunc_Collapsible_rec -->
<g id="node11" class="node"><title>Trunc_Collapsible_rec</title>
<a xlink:href="Trunc.html#Collapsible_rec" xlink:title="Collapsible_rec">
<ellipse fill="#f070d1" stroke="black" cx="2519" cy="-753.464" rx="82.9827" ry="18.3848"/>
<ellipse fill="none" stroke="black" cx="2519" cy="-753.464" rx="86.9608" ry="22.3848"/>
<ellipse fill="none" stroke="black" cx="2519" cy="-753.464" rx="90.9389" ry="26.3848"/>
<text text-anchor="middle" x="2519" y="-749.864" font-family="Times Roman,serif" font-size="14.00">Collapsible_rec</text>
</a>
</g>
<!-- Trunc_Collapsible_rect -->
<g id="node13" class="node"><title>Trunc_Collapsible_rect</title>
<a xlink:href="Trunc.html#Collapsible_rect" xlink:title="Collapsible_rect">
<ellipse fill="#f070d1" stroke="black" cx="2319" cy="-512.464" rx="87.1802" ry="18.3848"/>
<text text-anchor="middle" x="2319" y="-508.864" font-family="Times Roman,serif" font-size="14.00">Collapsible_rect</text>
</a>
</g>
<!-- Trunc_Collapsible_rec&#45;&gt;Trunc_Collapsible_rect -->
<g id="edge38" class="edge"><title>Trunc_Collapsible_rec&#45;&gt;Trunc_Collapsible_rect</title>
<path fill="none" stroke="black" d="M2497.6,-727.673C2459.29,-681.509 2379.4,-585.246 2340.8,-538.737"/>
<polygon fill="black" stroke="black" points="2343.39,-536.379 2334.32,-530.919 2338.01,-540.849 2343.39,-536.379"/>
</g>
<!-- Trunc_Collapsible_ind -->
<g id="node12" class="node"><title>Trunc_Collapsible_ind</title>
<a xlink:href="Trunc.html#Collapsible_ind" xlink:title="Collapsible_ind">
<ellipse fill="#7fffd4" stroke="black" cx="2319" cy="-753.464" rx="82.9827" ry="18.3848"/>
<ellipse fill="none" stroke="black" cx="2319" cy="-753.464" rx="86.9608" ry="22.3848"/>
<ellipse fill="none" stroke="black" cx="2319" cy="-753.464" rx="90.9389" ry="26.3848"/>
<text text-anchor="middle" x="2319" y="-749.864" font-family="Times Roman,serif" font-size="14.00">Collapsible_ind</text>
</a>
</g>
<!-- Trunc_Collapsible_ind&#45;&gt;Trunc_Collapsible_rect -->
<g id="edge40" class="edge"><title>Trunc_Collapsible_ind&#45;&gt;Trunc_Collapsible_rect</title>
<path fill="none" stroke="black" d="M2319,-726.752C2319,-681.046 2319,-588.227 2319,-541.182"/>
<polygon fill="black" stroke="black" points="2322.5,-541.065 2319,-531.065 2315.5,-541.065 2322.5,-541.065"/>
</g>
<!-- Trunc_Collapsible_rect&#45;&gt;Trunc_Build_Collapsible -->
<g id="edge42" class="edge"><title>Trunc_Collapsible_rect&#45;&gt;Trunc_Build_Collapsible</title>
<path fill="none" stroke="black" d="M2292.07,-494.833C2231.86,-455.409 2086.34,-360.124 2018.68,-315.828"/>
<polygon fill="black" stroke="black" points="2020.34,-312.729 2010.06,-310.18 2016.51,-318.586 2020.34,-312.729"/>
</g>
<!-- Trunc_Collapsible_rect&#45;&gt;Trunc_Collapsible -->
<g id="edge44" class="edge"><title>Trunc_Collapsible_rect&#45;&gt;Trunc_Collapsible</title>
<path fill="none" stroke="black" d="M2310.9,-493.707C2294.14,-454.887 2255.57,-365.575 2235.94,-320.123"/>
<polygon fill="black" stroke="black" points="2239.12,-318.657 2231.95,-310.863 2232.7,-321.432 2239.12,-318.657"/>
</g>
<!-- Trunc_WeaklyConstant -->
<g id="node17" class="node"><title>Trunc_WeaklyConstant</title>
<a xlink:href="Trunc.html#WeaklyConstant" xlink:title="WeaklyConstant">
<ellipse fill="#f070d1" stroke="black" cx="2224" cy="-93.4642" rx="92.1303" ry="18.3848"/>
<text text-anchor="middle" x="2224" y="-89.8642" font-family="Times Roman,serif" font-size="14.00">WeaklyConstant</text>
</a>
</g>
<!-- Trunc_Build_Collapsible&#45;&gt;Trunc_WeaklyConstant -->
<g id="edge46" class="edge"><title>Trunc_Build_Collapsible&#45;&gt;Trunc_WeaklyConstant</title>
<path fill="none" stroke="black" d="M2004.81,-274.453C2048.17,-238.655 2145.22,-158.518 2194.32,-117.968"/>
<polygon fill="black" stroke="black" points="2196.58,-120.644 2202.06,-111.578 2192.12,-115.246 2196.58,-120.644"/>
</g>
<!-- Trunc_Collapsible&#45;&gt;Trunc_WeaklyConstant -->
<g id="edge48" class="edge"><title>Trunc_Collapsible&#45;&gt;Trunc_WeaklyConstant</title>
<path fill="none" stroke="black" d="M2224,-273.743C2224,-238.837 2224,-163.617 2224,-122.224"/>
<polygon fill="black" stroke="black" points="2227.5,-121.991 2224,-111.991 2220.5,-121.991 2227.5,-121.991"/>
</g>
<!-- Trunc_wconst&#45;&gt;Trunc_WeaklyConstant -->
<g id="edge50" class="edge"><title>Trunc_wconst&#45;&gt;Trunc_WeaklyConstant</title>
<path fill="none" stroke="black" d="M2585.32,-277.831C2517.62,-243.287 2347.55,-156.505 2267.25,-115.535"/>
<polygon fill="black" stroke="black" points="2268.42,-112.2 2257.92,-110.772 2265.24,-118.435 2268.42,-112.2"/>
</g>
<!-- Trunc_equiv_iff_hprop -->
<g id="node18" class="node"><title>Trunc_equiv_iff_hprop</title>
<a xlink:href="Trunc.html#equiv_iff_hprop" xlink:title="equiv_iff_hprop">
<ellipse fill="#f070d1" stroke="black" cx="1412" cy="-753.464" rx="85.8106" ry="18.3848"/>
<ellipse fill="none" stroke="black" cx="1412" cy="-753.464" rx="89.7894" ry="22.3848"/>
<ellipse fill="none" stroke="black" cx="1412" cy="-753.464" rx="93.7683" ry="26.3848"/>
<text text-anchor="middle" x="1412" y="-749.864" font-family="Times Roman,serif" font-size="14.00">equiv_iff_hprop</text>
</a>
</g>
<!-- Trunc_equiv_iff_hprop_uncurried -->
<g id="node19" class="node"><title>Trunc_equiv_iff_hprop_uncurried</title>
<a xlink:href="Trunc.html#equiv_iff_hprop_uncurried" xlink:title="equiv_iff_hprop_uncurried">
<ellipse fill="#f070d1" stroke="black" cx="1412" cy="-512.464" rx="138.093" ry="18.3848"/>
<text text-anchor="middle" x="1412" y="-508.864" font-family="Times Roman,serif" font-size="14.00">equiv_iff_hprop_uncurried</text>
</a>
</g>
<!-- Trunc_equiv_iff_hprop&#45;&gt;Trunc_equiv_iff_hprop_uncurried -->
<g id="edge52" class="edge"><title>Trunc_equiv_iff_hprop&#45;&gt;Trunc_equiv_iff_hprop_uncurried</title>
<path fill="none" stroke="black" d="M1412,-726.752C1412,-681.046 1412,-588.227 1412,-541.182"/>
<polygon fill="black" stroke="black" points="1415.5,-541.065 1412,-531.065 1408.5,-541.065 1415.5,-541.065"/>
</g>
<!-- Trunc_equiv_iff_hprop_uncurried&#45;&gt;Trunc_path_ishprop -->
<g id="edge54" class="edge"><title>Trunc_equiv_iff_hprop_uncurried&#45;&gt;Trunc_path_ishprop</title>
<path fill="none" stroke="black" d="M1412,-493.707C1412,-455.228 1412,-367.137 1412,-321.328"/>
<polygon fill="black" stroke="black" points="1415.5,-321.174 1412,-311.174 1408.5,-321.174 1415.5,-321.174"/>
</g>
<!-- Trunc_isequiv_iff_hprop -->
<g id="node20" class="node"><title>Trunc_isequiv_iff_hprop</title>
<a xlink:href="Trunc.html#isequiv_iff_hprop" xlink:title="isequiv_iff_hprop">
<ellipse fill="#f070d1" stroke="black" cx="1154" cy="-512.464" rx="94.0452" ry="18.3848"/>
<ellipse fill="none" stroke="black" cx="1154" cy="-512.464" rx="98.0452" ry="22.3848"/>
<ellipse fill="none" stroke="black" cx="1154" cy="-512.464" rx="102.045" ry="26.3848"/>
<text text-anchor="middle" x="1154" y="-508.864" font-family="Times Roman,serif" font-size="14.00">isequiv_iff_hprop</text>
</a>
</g>
<!-- Trunc_isequiv_iff_hprop&#45;&gt;Trunc_path_ishprop -->
<g id="edge56" class="edge"><title>Trunc_isequiv_iff_hprop&#45;&gt;Trunc_path_ishprop</title>
<path fill="none" stroke="black" d="M1183.85,-487.012C1233.86,-444.37 1333.92,-359.04 1383.21,-317.011"/>
<polygon fill="black" stroke="black" points="1385.62,-319.56 1390.96,-310.409 1381.08,-314.234 1385.62,-319.56"/>
</g>
<!-- Trunc_hprop_inhabited_contr -->
<g id="node23" class="node"><title>Trunc_hprop_inhabited_contr</title>
<a xlink:href="Trunc.html#hprop_inhabited_contr" xlink:title="hprop_inhabited_contr">
<ellipse fill="#f070d1" stroke="black" cx="2501" cy="-1236.46" rx="121.153" ry="18.3848"/>
<ellipse fill="none" stroke="black" cx="2501" cy="-1236.46" rx="125.137" ry="22.3848"/>
<ellipse fill="none" stroke="black" cx="2501" cy="-1236.46" rx="129.122" ry="26.3848"/>
<text text-anchor="middle" x="2501" y="-1232.86" font-family="Times Roman,serif" font-size="14.00">hprop_inhabited_contr</text>
</a>
</g>
<!-- Trunc_contr_inhabited_hprop -->
<g id="node24" class="node"><title>Trunc_contr_inhabited_hprop</title>
<a xlink:href="Trunc.html#contr_inhabited_hprop" xlink:title="contr_inhabited_hprop">
<ellipse fill="#f070d1" stroke="black" cx="2225" cy="-1236.46" rx="121.153" ry="18.3848"/>
<ellipse fill="none" stroke="black" cx="2225" cy="-1236.46" rx="125.137" ry="22.3848"/>
<ellipse fill="none" stroke="black" cx="2225" cy="-1236.46" rx="129.122" ry="26.3848"/>
<text text-anchor="middle" x="2225" y="-1232.86" font-family="Times Roman,serif" font-size="14.00">contr_inhabited_hprop</text>
</a>
</g>
<!-- Trunc_default_TruncType -->
<g id="node25" class="node"><title>Trunc_default_TruncType</title>
<a xlink:href="Trunc.html#default_TruncType" xlink:title="default_TruncType">
<ellipse fill="#f070d1" stroke="black" cx="1853" cy="-995.464" rx="99.2383" ry="18.3848"/>
<ellipse fill="none" stroke="black" cx="1853" cy="-995.464" rx="103.22" ry="22.3848"/>
<ellipse fill="none" stroke="black" cx="1853" cy="-995.464" rx="107.201" ry="26.3848"/>
<text text-anchor="middle" x="1853" y="-991.864" font-family="Times Roman,serif" font-size="14.00">default_TruncType</text>
</a>
</g>
<!-- Trunc_BuildTruncType -->
<g id="node31" class="node"><title>Trunc_BuildTruncType</title>
<a xlink:href="Trunc.html#BuildTruncType" xlink:title="BuildTruncType">
<ellipse fill="#7faaff" stroke="black" cx="1215" cy="-753.464" rx="84.8528" ry="18.3848"/>
<text text-anchor="middle" x="1215" y="-749.864" font-family="Times Roman,serif" font-size="14.00">BuildTruncType</text>
</a>
</g>
<!-- Trunc_default_TruncType&#45;&gt;Trunc_BuildTruncType -->
<g id="edge58" class="edge"><title>Trunc_default_TruncType&#45;&gt;Trunc_BuildTruncType</title>
<path fill="none" stroke="black" d="M1794.41,-973.239C1670.66,-926.301 1384.43,-817.729 1266.85,-773.131"/>
<polygon fill="black" stroke="black" points="1267.93,-769.799 1257.34,-769.525 1265.45,-776.344 1267.93,-769.799"/>
</g>
<!-- Trunc_istrunc_trunctype_type -->
<g id="node26" class="node"><title>Trunc_istrunc_trunctype_type</title>
<a xlink:href="Trunc.html#istrunc_trunctype_type" xlink:title="istrunc_trunctype_type">
<ellipse fill="#f070d1" stroke="black" cx="1557" cy="-1236.46" rx="125.158" ry="18.3848"/>
<ellipse fill="none" stroke="black" cx="1557" cy="-1236.46" rx="129.158" ry="22.3848"/>
<ellipse fill="none" stroke="black" cx="1557" cy="-1236.46" rx="133.158" ry="26.3848"/>
<text text-anchor="middle" x="1557" y="-1232.86" font-family="Times Roman,serif" font-size="14.00">istrunc_trunctype_type</text>
</a>
</g>
<!-- Trunc_trunctype_type -->
<g id="node27" class="node"><title>Trunc_trunctype_type</title>
<a xlink:href="Trunc.html#trunctype_type" xlink:title="trunctype_type">
<ellipse fill="#f070d1" stroke="black" cx="1454" cy="-995.464" rx="85.7684" ry="18.3848"/>
<text text-anchor="middle" x="1454" y="-991.864" font-family="Times Roman,serif" font-size="14.00">trunctype_type</text>
</a>
</g>
<!-- Trunc_istrunc_trunctype_type&#45;&gt;Trunc_trunctype_type -->
<g id="edge60" class="edge"><title>Trunc_istrunc_trunctype_type&#45;&gt;Trunc_trunctype_type</title>
<path fill="none" stroke="black" d="M1545.58,-1209.75C1525.93,-1163.76 1485.88,-1070.05 1465.89,-1023.3"/>
<polygon fill="black" stroke="black" points="1469.1,-1021.89 1461.95,-1014.07 1462.66,-1024.64 1469.1,-1021.89"/>
</g>
<!-- Trunc_TruncType -->
<g id="node32" class="node"><title>Trunc_TruncType</title>
<a xlink:href="Trunc.html#TruncType" xlink:title="TruncType">
<ellipse fill="#e2cdfa" stroke="black" cx="1051" cy="-753.464" rx="60.8112" ry="18.3848"/>
<text text-anchor="middle" x="1051" y="-749.864" font-family="Times Roman,serif" font-size="14.00">TruncType</text>
</a>
</g>
<!-- Trunc_trunctype_type&#45;&gt;Trunc_TruncType -->
<g id="edge62" class="edge"><title>Trunc_trunctype_type&#45;&gt;Trunc_TruncType</title>
<path fill="none" stroke="black" d="M1424.69,-977.865C1352.49,-934.507 1166.19,-822.634 1087.23,-775.219"/>
<polygon fill="black" stroke="black" points="1088.96,-772.179 1078.59,-770.032 1085.36,-778.18 1088.96,-772.179"/>
</g>
<!-- Trunc_TruncType_rec -->
<g id="node28" class="node"><title>Trunc_TruncType_rec</title>
<a xlink:href="Trunc.html#TruncType_rec" xlink:title="TruncType_rec">
<ellipse fill="#f070d1" stroke="black" cx="1990" cy="-1236.46" rx="80.1547" ry="18.3848"/>
<ellipse fill="none" stroke="black" cx="1990" cy="-1236.46" rx="84.1321" ry="22.3848"/>
<ellipse fill="none" stroke="black" cx="1990" cy="-1236.46" rx="88.1096" ry="26.3848"/>
<text text-anchor="middle" x="1990" y="-1232.86" font-family="Times Roman,serif" font-size="14.00">TruncType_rec</text>
</a>
</g>
<!-- Trunc_TruncType_rect -->
<g id="node30" class="node"><title>Trunc_TruncType_rect</title>
<a xlink:href="Trunc.html#TruncType_rect" xlink:title="TruncType_rect">
<ellipse fill="#f070d1" stroke="black" cx="1643" cy="-995.464" rx="84.8528" ry="18.3848"/>
<text text-anchor="middle" x="1643" y="-991.864" font-family="Times Roman,serif" font-size="14.00">TruncType_rect</text>
</a>
</g>
<!-- Trunc_TruncType_rec&#45;&gt;Trunc_TruncType_rect -->
<g id="edge64" class="edge"><title>Trunc_TruncType_rec&#45;&gt;Trunc_TruncType_rect</title>
<path fill="none" stroke="black" d="M1954.82,-1212.03C1887.87,-1165.53 1742.95,-1064.88 1676.96,-1019.05"/>
<polygon fill="black" stroke="black" points="1678.78,-1016.05 1668.57,-1013.22 1674.78,-1021.8 1678.78,-1016.05"/>
</g>
<!-- Trunc_TruncType_ind -->
<g id="node29" class="node"><title>Trunc_TruncType_ind</title>
<a xlink:href="Trunc.html#TruncType_ind" xlink:title="TruncType_ind">
<ellipse fill="#7fffd4" stroke="black" cx="1796" cy="-1236.46" rx="80.1547" ry="18.3848"/>
<ellipse fill="none" stroke="black" cx="1796" cy="-1236.46" rx="84.1321" ry="22.3848"/>
<ellipse fill="none" stroke="black" cx="1796" cy="-1236.46" rx="88.1096" ry="26.3848"/>
<text text-anchor="middle" x="1796" y="-1232.86" font-family="Times Roman,serif" font-size="14.00">TruncType_ind</text>
</a>
</g>
<!-- Trunc_TruncType_ind&#45;&gt;Trunc_TruncType_rect -->
<g id="edge66" class="edge"><title>Trunc_TruncType_ind&#45;&gt;Trunc_TruncType_rect</title>
<path fill="none" stroke="black" d="M1779.34,-1210.21C1750.07,-1164.12 1689.76,-1069.12 1660.16,-1022.49"/>
<polygon fill="black" stroke="black" points="1662.98,-1020.4 1654.66,-1013.83 1657.07,-1024.15 1662.98,-1020.4"/>
</g>
<!-- Trunc_TruncType_rect&#45;&gt;Trunc_BuildTruncType -->
<g id="edge68" class="edge"><title>Trunc_TruncType_rect&#45;&gt;Trunc_BuildTruncType</title>
<path fill="none" stroke="black" d="M1612.22,-978.06C1536.12,-935.031 1339.18,-823.68 1254.58,-775.843"/>
<polygon fill="black" stroke="black" points="1256.22,-772.748 1245.79,-770.873 1252.77,-778.841 1256.22,-772.748"/>
</g>
<!-- Trunc_TruncType_rect&#45;&gt;Trunc_TruncType -->
<g id="edge70" class="edge"><title>Trunc_TruncType_rect&#45;&gt;Trunc_TruncType</title>
<path fill="none" stroke="black" d="M1602.77,-979.021C1496.57,-935.606 1209.11,-818.097 1096.82,-772.195"/>
<polygon fill="black" stroke="black" points="1098.04,-768.911 1087.46,-768.367 1095.39,-775.391 1098.04,-768.911"/>
</g>
<!-- Trunc_istruncmap_fiber -->
<g id="node33" class="node"><title>Trunc_istruncmap_fiber</title>
<a xlink:href="Trunc.html#istruncmap_fiber" xlink:title="istruncmap_fiber">
<ellipse fill="#f070d1" stroke="black" cx="1306" cy="-1236.46" rx="92.1701" ry="18.3848"/>
<ellipse fill="none" stroke="black" cx="1306" cy="-1236.46" rx="96.1502" ry="22.3848"/>
<ellipse fill="none" stroke="black" cx="1306" cy="-1236.46" rx="100.13" ry="26.3848"/>
<text text-anchor="middle" x="1306" y="-1232.86" font-family="Times Roman,serif" font-size="14.00">istruncmap_fiber</text>
</a>
</g>
<!-- Trunc_IsTruncMap -->
<g id="node34" class="node"><title>Trunc_IsTruncMap</title>
<a xlink:href="Trunc.html#IsTruncMap" xlink:title="IsTruncMap">
<ellipse fill="#f070d1" stroke="black" cx="1284" cy="-995.464" rx="65.9683" ry="18.3848"/>
<text text-anchor="middle" x="1284" y="-991.864" font-family="Times Roman,serif" font-size="14.00">IsTruncMap</text>
</a>
</g>
<!-- Trunc_istruncmap_fiber&#45;&gt;Trunc_IsTruncMap -->
<g id="edge72" class="edge"><title>Trunc_istruncmap_fiber&#45;&gt;Trunc_IsTruncMap</title>
<path fill="none" stroke="black" d="M1303.56,-1209.75C1299.39,-1164.05 1290.92,-1071.23 1286.62,-1024.18"/>
<polygon fill="black" stroke="black" points="1290.09,-1023.71 1285.7,-1014.07 1283.12,-1024.34 1290.09,-1023.71"/>
</g>
<!-- Trunc_trunc_equiv_ -->
<g id="node35" class="node"><title>Trunc_trunc_equiv_</title>
<a xlink:href="Trunc.html#trunc_equiv&#39;" xlink:title="trunc_equiv&#39;">
<ellipse fill="#f070d1" stroke="black" cx="1109" cy="-1236.46" rx="70.9686" ry="18.3848"/>
<ellipse fill="none" stroke="black" cx="1109" cy="-1236.46" rx="74.9435" ry="22.3848"/>
<ellipse fill="none" stroke="black" cx="1109" cy="-1236.46" rx="78.9183" ry="26.3848"/>
<text text-anchor="middle" x="1109" y="-1232.86" font-family="Times Roman,serif" font-size="14.00">trunc_equiv&#39;</text>
</a>
</g>
<!-- Trunc_trunc_equiv -->
<g id="node36" class="node"><title>Trunc_trunc_equiv</title>
<a xlink:href="Trunc.html#trunc_equiv" xlink:title="trunc_equiv">
<ellipse fill="#facdef" stroke="black" cx="1109" cy="-995.464" rx="68.7979" ry="18.3848"/>
<text text-anchor="middle" x="1109" y="-991.864" font-family="Times Roman,serif" font-size="14.00">trunc_equiv</text>
</a>
</g>
<!-- Trunc_trunc_equiv_&#45;&gt;Trunc_trunc_equiv -->
<g id="edge74" class="edge"><title>Trunc_trunc_equiv_&#45;&gt;Trunc_trunc_equiv</title>
<path fill="none" stroke="black" d="M1109,-1209.75C1109,-1164.05 1109,-1071.23 1109,-1024.18"/>
<polygon fill="black" stroke="black" points="1112.5,-1024.07 1109,-1014.07 1105.5,-1024.07 1112.5,-1024.07"/>
</g>
<!-- Trunc_trunc_hset -->
<g id="node37" class="node"><title>Trunc_trunc_hset</title>
<a xlink:href="Trunc.html#trunc_hset" xlink:title="trunc_hset">
<ellipse fill="#f070d1" stroke="black" cx="940" cy="-1236.46" rx="63.9029" ry="18.3848"/>
<ellipse fill="none" stroke="black" cx="940" cy="-1236.46" rx="67.8754" ry="22.3848"/>
<ellipse fill="none" stroke="black" cx="940" cy="-1236.46" rx="71.8478" ry="26.3848"/>
<text text-anchor="middle" x="940" y="-1232.86" font-family="Times Roman,serif" font-size="14.00">trunc_hset</text>
</a>
</g>
<!-- Trunc_trunc_leq -->
<g id="node40" class="node"><title>Trunc_trunc_leq</title>
<a xlink:href="Trunc.html#trunc_leq" xlink:title="trunc_leq">
<ellipse fill="#f070d1" stroke="black" cx="771" cy="-995.464" rx="56.7776" ry="18.3848"/>
<text text-anchor="middle" x="771" y="-991.864" font-family="Times Roman,serif" font-size="14.00">trunc_leq</text>
</a>
</g>
<!-- Trunc_trunc_hset&#45;&gt;Trunc_trunc_leq -->
<g id="edge76" class="edge"><title>Trunc_trunc_hset&#45;&gt;Trunc_trunc_leq</title>
<path fill="none" stroke="black" d="M921.914,-1210.67C889.596,-1164.59 822.263,-1068.57 789.587,-1021.97"/>
<polygon fill="black" stroke="black" points="792.327,-1019.78 783.72,-1013.6 786.596,-1023.8 792.327,-1019.78"/>
</g>
<!-- Trunc_trunc_hprop -->
<g id="node38" class="node"><title>Trunc_trunc_hprop</title>
<a xlink:href="Trunc.html#trunc_hprop" xlink:title="trunc_hprop">
<ellipse fill="#f070d1" stroke="black" cx="771" cy="-1236.46" rx="70.9686" ry="18.3848"/>
<ellipse fill="none" stroke="black" cx="771" cy="-1236.46" rx="74.9435" ry="22.3848"/>
<ellipse fill="none" stroke="black" cx="771" cy="-1236.46" rx="78.9183" ry="26.3848"/>
<text text-anchor="middle" x="771" y="-1232.86" font-family="Times Roman,serif" font-size="14.00">trunc_hprop</text>
</a>
</g>
<!-- Trunc_trunc_hprop&#45;&gt;Trunc_trunc_leq -->
<g id="edge78" class="edge"><title>Trunc_trunc_hprop&#45;&gt;Trunc_trunc_leq</title>
<path fill="none" stroke="black" d="M771,-1209.75C771,-1164.05 771,-1071.23 771,-1024.18"/>
<polygon fill="black" stroke="black" points="774.5,-1024.07 771,-1014.07 767.5,-1024.07 774.5,-1024.07"/>
</g>
<!-- Trunc_trunc_contr -->
<g id="node39" class="node"><title>Trunc_trunc_contr</title>
<a xlink:href="Trunc.html#trunc_contr" xlink:title="trunc_contr">
<ellipse fill="#f070d1" stroke="black" cx="598" cy="-1236.46" rx="68.1411" ry="18.3848"/>
<ellipse fill="none" stroke="black" cx="598" cy="-1236.46" rx="72.1149" ry="22.3848"/>
<ellipse fill="none" stroke="black" cx="598" cy="-1236.46" rx="76.0888" ry="26.3848"/>
<text text-anchor="middle" x="598" y="-1232.86" font-family="Times Roman,serif" font-size="14.00">trunc_contr</text>
</a>
</g>
<!-- Trunc_trunc_contr&#45;&gt;Trunc_trunc_leq -->
<g id="edge80" class="edge"><title>Trunc_trunc_contr&#45;&gt;Trunc_trunc_leq</title>
<path fill="none" stroke="black" d="M616.514,-1210.67C649.597,-1164.59 718.523,-1068.57 751.973,-1021.97"/>
<polygon fill="black" stroke="black" points="754.991,-1023.77 757.979,-1013.6 749.304,-1019.69 754.991,-1023.77"/>
</g>
<!-- Trunc_trunc_succ -->
<g id="node41" class="node"><title>Trunc_trunc_succ</title>
<a xlink:href="Trunc.html#trunc_succ" xlink:title="trunc_succ">
<ellipse fill="#facdef" stroke="black" cx="840" cy="-753.464" rx="63.1385" ry="18.3848"/>
<text text-anchor="middle" x="840" y="-749.864" font-family="Times Roman,serif" font-size="14.00">trunc_succ</text>
</a>
</g>
<!-- Trunc_trunc_leq&#45;&gt;Trunc_trunc_succ -->
<g id="edge82" class="edge"><title>Trunc_trunc_leq&#45;&gt;Trunc_trunc_succ</title>
<path fill="none" stroke="black" d="M776.3,-976.877C788.291,-934.822 817.568,-832.14 831.869,-781.981"/>
<polygon fill="black" stroke="black" points="835.306,-782.691 834.682,-772.115 828.574,-780.772 835.306,-782.691"/>
</g>
<!-- Trunc_trunc_index_leq -->
<g id="node43" class="node"><title>Trunc_trunc_index_leq</title>
<a xlink:href="Trunc.html#trunc_index_leq" xlink:title="trunc_index_leq">
<ellipse fill="#f070d1" stroke="black" cx="670" cy="-753.464" rx="89.0955" ry="18.3848"/>
<text text-anchor="middle" x="670" y="-749.864" font-family="Times Roman,serif" font-size="14.00">trunc_index_leq</text>
</a>
</g>
<!-- Trunc_trunc_leq&#45;&gt;Trunc_trunc_index_leq -->
<g id="edge84" class="edge"><title>Trunc_trunc_leq&#45;&gt;Trunc_trunc_index_leq</title>
<path fill="none" stroke="black" d="M763.242,-976.877C745.617,-934.646 702.477,-831.28 681.64,-781.354"/>
<polygon fill="black" stroke="black" points="684.866,-779.995 677.784,-772.115 678.406,-782.692 684.866,-779.995"/>
</g>
<!-- Trunc_contr_trunc_minus_two -->
<g id="node42" class="node"><title>Trunc_contr_trunc_minus_two</title>
<a xlink:href="Trunc.html#contr_trunc_minus_two" xlink:title="contr_trunc_minus_two">
<ellipse fill="#f070d1" stroke="black" cx="369" cy="-1236.46" rx="126.81" ry="18.3848"/>
<ellipse fill="none" stroke="black" cx="369" cy="-1236.46" rx="130.795" ry="22.3848"/>
<ellipse fill="none" stroke="black" cx="369" cy="-1236.46" rx="134.78" ry="26.3848"/>
<text text-anchor="middle" x="369" y="-1232.86" font-family="Times Roman,serif" font-size="14.00">contr_trunc_minus_two</text>
</a>
</g>
<!-- Trunc_trunc_index_add -->
<g id="node44" class="node"><title>Trunc_trunc_index_add</title>
<a xlink:href="Trunc.html#trunc_index_add" xlink:title="trunc_index_add">
<ellipse fill="#f070d1" stroke="black" cx="116" cy="-1236.46" rx="92.1701" ry="18.3848"/>
<ellipse fill="none" stroke="black" cx="116" cy="-1236.46" rx="96.1502" ry="22.3848"/>
<ellipse fill="none" stroke="black" cx="116" cy="-1236.46" rx="100.13" ry="26.3848"/>
<text text-anchor="middle" x="116" y="-1232.86" font-family="Times Roman,serif" font-size="14.00">trunc_index_add</text>
</a>
</g>
</g>
</svg>
