<?xml version="1.0" encoding="UTF-8" standalone="no"?>
<!DOCTYPE svg PUBLIC "-//W3C//DTD SVG 1.1//EN"
 "http://www.w3.org/Graphics/SVG/1.1/DTD/svg11.dtd">
<!-- Generated by graphviz version 2.39.20161220.0128 (20161220.0128)
 -->
<!-- Title: HoTT_Spaces_BAut_Bool Pages: 1 -->
<svg width="2158pt" height="1083pt"
 viewBox="0.00 0.00 2158.00 1083.00" xmlns="http://www.w3.org/2000/svg" xmlns:xlink="http://www.w3.org/1999/xlink">
<g id="graph0" class="graph" transform="scale(1 1) rotate(0) translate(4 1079)">
<title>HoTT_Spaces_BAut_Bool</title>
<polygon fill="#ffffff" stroke="transparent" points="-4,4 -4,-1079 2154,-1079 2154,4 -4,4"/>
<g id="clust1" class="cluster">
<title>cluster_Bool</title>
<polygon fill="#ffffc3" stroke="#000000" points="11.9444,-8 11.9444,-1067 2138.0556,-1067 2138.0556,-8 11.9444,-8"/>
<text text-anchor="middle" x="33.4444" y="-1051.8" font-family="Times,serif" font-size="14.00" fill="#000000">Bool</text>
</g>
<!-- Bool_nontrivial_negb_center_baut_baut_bool -->
<g id="node1" class="node">
<title>Bool_nontrivial_negb_center_baut_baut_bool</title>
<g id="a_node1"><a xlink:href="Bool.html#nontrivial_negb_center_baut_baut_bool" xlink:title="nontrivial_negb_center_baut_baut_bool">
<ellipse fill="#f070d1" stroke="#000000" cx="1760.4861" cy="-1010" rx="151.3763" ry="18"/>
<ellipse fill="none" stroke="#000000" cx="1760.4861" cy="-1010" rx="155.3747" ry="22"/>
<ellipse fill="none" stroke="#000000" cx="1760.4861" cy="-1010" rx="159.3732" ry="26"/>
<text text-anchor="middle" x="1760.4861" y="-1006.3" font-family="Times,serif" font-size="14.00" fill="#000000">nontrivial_negb_center_baut_baut_bool</text>
</a>
</g>
</g>
<!-- Bool_negb_center2_baut_baut_bool -->
<g id="node2" class="node">
<title>Bool_negb_center2_baut_baut_bool</title>
<g id="a_node2"><a xlink:href="Bool.html#negb_center2_baut_baut_bool" xlink:title="negb_center2_baut_baut_bool">
<ellipse fill="#f070d1" stroke="#000000" cx="1760.4861" cy="-930" rx="116.9792" ry="18"/>
<text text-anchor="middle" x="1760.4861" y="-926.3" font-family="Times,serif" font-size="14.00" fill="#000000">negb_center2_baut_baut_bool</text>
</a>
</g>
</g>
<!-- Bool_nontrivial_negb_center_baut_baut_bool&#45;&gt;Bool_negb_center2_baut_baut_bool -->
<g id="edge1" class="edge">
<title>Bool_nontrivial_negb_center_baut_baut_bool&#45;&gt;Bool_negb_center2_baut_baut_bool</title>
<path fill="none" stroke="#000000" d="M1760.4861,-983.805C1760.4861,-975.6026 1760.4861,-966.5174 1760.4861,-958.1839"/>
<polygon fill="#000000" stroke="#000000" points="1763.9862,-958.1532 1760.4861,-948.1532 1756.9862,-958.1533 1763.9862,-958.1532"/>
</g>
<!-- Bool_center_baut_bool_central -->
<g id="node3" class="node">
<title>Bool_center_baut_bool_central</title>
<g id="a_node3"><a xlink:href="Bool.html#center_baut_bool_central" xlink:title="center_baut_bool_central">
<ellipse fill="#facdef" stroke="#000000" cx="1682.4861" cy="-858" rx="100.1823" ry="18"/>
<text text-anchor="middle" x="1682.4861" y="-854.3" font-family="Times,serif" font-size="14.00" fill="#000000">center_baut_bool_central</text>
</a>
</g>
</g>
<!-- Bool_negb_center2_baut_baut_bool&#45;&gt;Bool_center_baut_bool_central -->
<g id="edge2" class="edge">
<title>Bool_negb_center2_baut_baut_bool&#45;&gt;Bool_center_baut_bool_central</title>
<path fill="none" stroke="#000000" d="M1741.2052,-912.2022C1731.5488,-903.2887 1719.7038,-892.3548 1709.1877,-882.6476"/>
<polygon fill="#000000" stroke="#000000" points="1711.5376,-880.0536 1701.8155,-875.8425 1706.7896,-885.1972 1711.5376,-880.0536"/>
</g>
<!-- Bool_baut_bool_pairing_1Z -->
<g id="node15" class="node">
<title>Bool_baut_bool_pairing_1Z</title>
<g id="a_node15"><a xlink:href="Bool.html#baut_bool_pairing_1Z" xlink:title="baut_bool_pairing_1Z">
<ellipse fill="#f070d1" stroke="#000000" cx="1425.4861" cy="-778" rx="89.0842" ry="18"/>
<text text-anchor="middle" x="1425.4861" y="-774.3" font-family="Times,serif" font-size="14.00" fill="#000000">baut_bool_pairing_1Z</text>
</a>
</g>
</g>
<!-- Bool_center_baut_bool_central&#45;&gt;Bool_baut_bool_pairing_1Z -->
<g id="edge3" class="edge">
<title>Bool_center_baut_bool_central&#45;&gt;Bool_baut_bool_pairing_1Z</title>
<path fill="none" stroke="#000000" d="M1632.3238,-842.3853C1589.7271,-829.1256 1528.5586,-810.0848 1483.7902,-796.1491"/>
<polygon fill="#000000" stroke="#000000" points="1484.8026,-792.7987 1474.2143,-793.1683 1482.7221,-799.4824 1484.8026,-792.7987"/>
</g>
<!-- Bool_equiv_baut_bool_aut_baut_bool -->
<g id="node4" class="node">
<title>Bool_equiv_baut_bool_aut_baut_bool</title>
<g id="a_node4"><a xlink:href="Bool.html#equiv_baut_bool_aut_baut_bool" xlink:title="equiv_baut_bool_aut_baut_bool">
<ellipse fill="#f070d1" stroke="#000000" cx="1175.4861" cy="-1010" rx="124.2697" ry="18"/>
<ellipse fill="none" stroke="#000000" cx="1175.4861" cy="-1010" rx="128.2739" ry="22"/>
<ellipse fill="none" stroke="#000000" cx="1175.4861" cy="-1010" rx="132.2781" ry="26"/>
<text text-anchor="middle" x="1175.4861" y="-1006.3" font-family="Times,serif" font-size="14.00" fill="#000000">equiv_baut_bool_aut_baut_bool</text>
</a>
</g>
</g>
<!-- Bool_aut_baut_bool_moveR_pairing_V -->
<g id="node5" class="node">
<title>Bool_aut_baut_bool_moveR_pairing_V</title>
<g id="a_node5"><a xlink:href="Bool.html#aut_baut_bool_moveR_pairing_V" xlink:title="aut_baut_bool_moveR_pairing_V">
<ellipse fill="#f070d1" stroke="#000000" cx="1443.4861" cy="-698" rx="131.077" ry="18"/>
<text text-anchor="middle" x="1443.4861" y="-694.3" font-family="Times,serif" font-size="14.00" fill="#000000">aut_baut_bool_moveR_pairing_V</text>
</a>
</g>
</g>
<!-- Bool_equiv_baut_bool_aut_baut_bool&#45;&gt;Bool_aut_baut_bool_moveR_pairing_V -->
<g id="edge4" class="edge">
<title>Bool_equiv_baut_bool_aut_baut_bool&#45;&gt;Bool_aut_baut_bool_moveR_pairing_V</title>
<path fill="none" stroke="#000000" d="M1184.7733,-983.8589C1204.0228,-932.9973 1252.8067,-819.7846 1327.4861,-752 1342.9646,-737.9506 1362.7375,-726.9335 1381.5562,-718.6178"/>
<polygon fill="#000000" stroke="#000000" points="1383.1384,-721.7489 1390.9875,-714.6327 1380.4138,-715.3009 1383.1384,-721.7489"/>
</g>
<!-- Bool_baut_bool_pairing_ZZ_Z -->
<g id="node6" class="node">
<title>Bool_baut_bool_pairing_ZZ_Z</title>
<g id="a_node6"><a xlink:href="Bool.html#baut_bool_pairing_ZZ_Z" xlink:title="baut_bool_pairing_ZZ_Z">
<ellipse fill="#f070d1" stroke="#000000" cx="1083.4861" cy="-930" rx="100.1823" ry="18"/>
<text text-anchor="middle" x="1083.4861" y="-926.3" font-family="Times,serif" font-size="14.00" fill="#000000">baut_bool_pairing_ZZ_Z</text>
</a>
</g>
</g>
<!-- Bool_equiv_baut_bool_aut_baut_bool&#45;&gt;Bool_baut_bool_pairing_ZZ_Z -->
<g id="edge5" class="edge">
<title>Bool_equiv_baut_bool_aut_baut_bool&#45;&gt;Bool_baut_bool_pairing_ZZ_Z</title>
<path fill="none" stroke="#000000" d="M1146.1238,-984.4675C1135.037,-974.8269 1122.46,-963.8904 1111.4999,-954.3599"/>
<polygon fill="#000000" stroke="#000000" points="1113.6922,-951.628 1103.8495,-947.7073 1109.0989,-956.9102 1113.6922,-951.628"/>
</g>
<!-- Bool_baut_bool_pairing_ZZ -->
<g id="node12" class="node">
<title>Bool_baut_bool_pairing_ZZ</title>
<g id="a_node12"><a xlink:href="Bool.html#baut_bool_pairing_ZZ" xlink:title="baut_bool_pairing_ZZ">
<ellipse fill="#f070d1" stroke="#000000" cx="158.4861" cy="-626" rx="90.1842" ry="18"/>
<text text-anchor="middle" x="158.4861" y="-622.3" font-family="Times,serif" font-size="14.00" fill="#000000">baut_bool_pairing_ZZ</text>
</a>
</g>
</g>
<!-- Bool_equiv_baut_bool_aut_baut_bool&#45;&gt;Bool_baut_bool_pairing_ZZ -->
<g id="edge6" class="edge">
<title>Bool_equiv_baut_bool_aut_baut_bool&#45;&gt;Bool_baut_bool_pairing_ZZ</title>
<path fill="none" stroke="#000000" d="M1052.325,-1000.4754C817.4116,-980.6445 328.4861,-930.6446 328.4861,-858 328.4861,-858 328.4861,-858 328.4861,-778 328.4861,-742.4256 244.7113,-681.8926 194.7802,-648.9732"/>
<polygon fill="#000000" stroke="#000000" points="196.464,-645.8926 186.1779,-643.3537 192.6357,-651.753 196.464,-645.8926"/>
</g>
<!-- Bool_baut_bool_pairing_Z1 -->
<g id="node13" class="node">
<title>Bool_baut_bool_pairing_Z1</title>
<g id="a_node13"><a xlink:href="Bool.html#baut_bool_pairing_Z1" xlink:title="baut_bool_pairing_Z1">
<ellipse fill="#f070d1" stroke="#000000" cx="1425.4861" cy="-930" rx="89.0842" ry="18"/>
<text text-anchor="middle" x="1425.4861" y="-926.3" font-family="Times,serif" font-size="14.00" fill="#000000">baut_bool_pairing_Z1</text>
</a>
</g>
</g>
<!-- Bool_equiv_baut_bool_aut_baut_bool&#45;&gt;Bool_baut_bool_pairing_Z1 -->
<g id="edge7" class="edge">
<title>Bool_equiv_baut_bool_aut_baut_bool&#45;&gt;Bool_baut_bool_pairing_Z1</title>
<path fill="none" stroke="#000000" d="M1244.7931,-987.8218C1283.6596,-975.3845 1331.5559,-960.0577 1368.2691,-948.3094"/>
<polygon fill="#000000" stroke="#000000" points="1369.3716,-951.6316 1377.8291,-945.2503 1367.2381,-944.9646 1369.3716,-951.6316"/>
</g>
<!-- Bool_baut_bool_pairing -->
<g id="node16" class="node">
<title>Bool_baut_bool_pairing</title>
<g id="a_node16"><a xlink:href="Bool.html#baut_bool_pairing" xlink:title="baut_bool_pairing">
<ellipse fill="#f070d1" stroke="#000000" cx="1378.4861" cy="-554" rx="75.2868" ry="18"/>
<text text-anchor="middle" x="1378.4861" y="-550.3" font-family="Times,serif" font-size="14.00" fill="#000000">baut_bool_pairing</text>
</a>
</g>
</g>
<!-- Bool_aut_baut_bool_moveR_pairing_V&#45;&gt;Bool_baut_bool_pairing -->
<g id="edge8" class="edge">
<title>Bool_aut_baut_bool_moveR_pairing_V&#45;&gt;Bool_baut_bool_pairing</title>
<path fill="none" stroke="#000000" d="M1525.7474,-683.9689C1583.0593,-670.5407 1644.1693,-646.5334 1613.4861,-608 1594.2588,-583.8534 1519.2024,-569.6071 1459.0179,-561.8676"/>
<polygon fill="#000000" stroke="#000000" points="1459.0911,-558.3498 1448.7356,-560.5891 1458.2273,-565.2963 1459.0911,-558.3498"/>
</g>
<!-- Bool_baut_bool_pairing_ZZ_Z_symm -->
<g id="node7" class="node">
<title>Bool_baut_bool_pairing_ZZ_Z_symm</title>
<g id="a_node7"><a xlink:href="Bool.html#baut_bool_pairing_ZZ_Z_symm" xlink:title="baut_bool_pairing_ZZ_Z_symm">
<ellipse fill="#f070d1" stroke="#000000" cx="715.4861" cy="-858" rx="126.978" ry="18"/>
<text text-anchor="middle" x="715.4861" y="-854.3" font-family="Times,serif" font-size="14.00" fill="#000000">baut_bool_pairing_ZZ_Z_symm</text>
</a>
</g>
</g>
<!-- Bool_baut_bool_pairing_ZZ_Z&#45;&gt;Bool_baut_bool_pairing_ZZ_Z_symm -->
<g id="edge9" class="edge">
<title>Bool_baut_bool_pairing_ZZ_Z&#45;&gt;Bool_baut_bool_pairing_ZZ_Z_symm</title>
<path fill="none" stroke="#000000" d="M1015.5604,-916.7102C954.7186,-904.8064 865.2584,-887.3033 799.8497,-874.5059"/>
<polygon fill="#000000" stroke="#000000" points="800.4597,-871.059 789.9737,-872.5737 799.1156,-877.9287 800.4597,-871.059"/>
</g>
<!-- Bool_baut_bool_pairing_symm -->
<g id="node14" class="node">
<title>Bool_baut_bool_pairing_symm</title>
<g id="a_node14"><a xlink:href="Bool.html#baut_bool_pairing_symm" xlink:title="baut_bool_pairing_symm">
<ellipse fill="#f070d1" stroke="#000000" cx="1083.4861" cy="-858" rx="102.0819" ry="18"/>
<text text-anchor="middle" x="1083.4861" y="-854.3" font-family="Times,serif" font-size="14.00" fill="#000000">baut_bool_pairing_symm</text>
</a>
</g>
</g>
<!-- Bool_baut_bool_pairing_ZZ_Z&#45;&gt;Bool_baut_bool_pairing_symm -->
<g id="edge10" class="edge">
<title>Bool_baut_bool_pairing_ZZ_Z&#45;&gt;Bool_baut_bool_pairing_symm</title>
<path fill="none" stroke="#000000" d="M1083.4861,-911.8314C1083.4861,-904.131 1083.4861,-894.9743 1083.4861,-886.4166"/>
<polygon fill="#000000" stroke="#000000" points="1086.9862,-886.4132 1083.4861,-876.4133 1079.9862,-886.4133 1086.9862,-886.4132"/>
</g>
<!-- Bool_baut_bool_pairing_ZZ_Z_symm_inv -->
<g id="node8" class="node">
<title>Bool_baut_bool_pairing_ZZ_Z_symm_inv</title>
<g id="a_node8"><a xlink:href="Bool.html#baut_bool_pairing_ZZ_Z_symm_inv" xlink:title="baut_bool_pairing_ZZ_Z_symm_inv">
<ellipse fill="#f070d1" stroke="#000000" cx="759.4861" cy="-778" rx="142.1749" ry="18"/>
<text text-anchor="middle" x="759.4861" y="-774.3" font-family="Times,serif" font-size="14.00" fill="#000000">baut_bool_pairing_ZZ_Z_symm_inv</text>
</a>
</g>
</g>
<!-- Bool_baut_bool_pairing_ZZ_Z_symm&#45;&gt;Bool_baut_bool_pairing_ZZ_Z_symm_inv -->
<g id="edge11" class="edge">
<title>Bool_baut_bool_pairing_ZZ_Z_symm&#45;&gt;Bool_baut_bool_pairing_ZZ_Z_symm_inv</title>
<path fill="none" stroke="#000000" d="M725.4704,-839.8468C731.1523,-829.516 738.3768,-816.3806 744.705,-804.8748"/>
<polygon fill="#000000" stroke="#000000" points="747.7889,-806.5303 749.5413,-796.0814 741.6553,-803.1568 747.7889,-806.5303"/>
</g>
<!-- Bool_baut_bool_pairing_ZZ_Z_symm_map -->
<g id="node9" class="node">
<title>Bool_baut_bool_pairing_ZZ_Z_symm_map</title>
<g id="a_node9"><a xlink:href="Bool.html#baut_bool_pairing_ZZ_Z_symm_map" xlink:title="baut_bool_pairing_ZZ_Z_symm_map">
<ellipse fill="#f070d1" stroke="#000000" cx="804.4861" cy="-698" rx="146.774" ry="18"/>
<text text-anchor="middle" x="804.4861" y="-694.3" font-family="Times,serif" font-size="14.00" fill="#000000">baut_bool_pairing_ZZ_Z_symm_map</text>
</a>
</g>
</g>
<!-- Bool_baut_bool_pairing_ZZ_Z_symm_inv&#45;&gt;Bool_baut_bool_pairing_ZZ_Z_symm_map -->
<g id="edge12" class="edge">
<title>Bool_baut_bool_pairing_ZZ_Z_symm_inv&#45;&gt;Bool_baut_bool_pairing_ZZ_Z_symm_map</title>
<path fill="none" stroke="#000000" d="M769.6973,-759.8468C775.5084,-749.516 782.897,-736.3806 789.369,-724.8748"/>
<polygon fill="#000000" stroke="#000000" points="792.4632,-726.5131 794.3153,-716.0814 786.3621,-723.0812 792.4632,-726.5131"/>
</g>
<!-- Bool_baut_bool_pairing_ZZ_Z_symm_lemma -->
<g id="node10" class="node">
<title>Bool_baut_bool_pairing_ZZ_Z_symm_lemma</title>
<g id="a_node10"><a xlink:href="Bool.html#baut_bool_pairing_ZZ_Z_symm_lemma" xlink:title="baut_bool_pairing_ZZ_Z_symm_lemma">
<ellipse fill="#f070d1" stroke="#000000" cx="1346.4861" cy="-626" rx="155.9723" ry="18"/>
<text text-anchor="middle" x="1346.4861" y="-622.3" font-family="Times,serif" font-size="14.00" fill="#000000">baut_bool_pairing_ZZ_Z_symm_lemma</text>
</a>
</g>
</g>
<!-- Bool_baut_bool_pairing_ZZ_Z_symm_map&#45;&gt;Bool_baut_bool_pairing_ZZ_Z_symm_lemma -->
<g id="edge13" class="edge">
<title>Bool_baut_bool_pairing_ZZ_Z_symm_map&#45;&gt;Bool_baut_bool_pairing_ZZ_Z_symm_lemma</title>
<path fill="none" stroke="#000000" d="M904.2129,-684.7522C997.5249,-672.3565 1136.743,-653.8626 1233.9824,-640.9451"/>
<polygon fill="#000000" stroke="#000000" points="1234.6925,-644.3817 1244.1445,-639.5952 1233.7706,-637.4426 1234.6925,-644.3817"/>
</g>
<!-- Bool_baut_bool_pairing_ZZ_Z_symm_part1 -->
<g id="node11" class="node">
<title>Bool_baut_bool_pairing_ZZ_Z_symm_part1</title>
<g id="a_node11"><a xlink:href="Bool.html#baut_bool_pairing_ZZ_Z_symm_part1" xlink:title="baut_bool_pairing_ZZ_Z_symm_part1">
<ellipse fill="#f070d1" stroke="#000000" cx="864.4861" cy="-626" rx="149.4735" ry="18"/>
<text text-anchor="middle" x="864.4861" y="-622.3" font-family="Times,serif" font-size="14.00" fill="#000000">baut_bool_pairing_ZZ_Z_symm_part1</text>
</a>
</g>
</g>
<!-- Bool_baut_bool_pairing_ZZ_Z_symm_map&#45;&gt;Bool_baut_bool_pairing_ZZ_Z_symm_part1 -->
<g id="edge14" class="edge">
<title>Bool_baut_bool_pairing_ZZ_Z_symm_map&#45;&gt;Bool_baut_bool_pairing_ZZ_Z_symm_part1</title>
<path fill="none" stroke="#000000" d="M819.6266,-679.8314C826.7152,-671.3251 835.2845,-661.0419 843.0261,-651.752"/>
<polygon fill="#000000" stroke="#000000" points="845.8452,-653.8363 849.5583,-643.9134 840.4676,-649.355 845.8452,-653.8363"/>
</g>
<!-- Bool_merely_inhab_baut_bool -->
<g id="node26" class="node">
<title>Bool_merely_inhab_baut_bool</title>
<g id="a_node26"><a xlink:href="Bool.html#merely_inhab_baut_bool" xlink:title="merely_inhab_baut_bool">
<ellipse fill="#f070d1" stroke="#000000" cx="467.4861" cy="-626" rx="98.5829" ry="18"/>
<text text-anchor="middle" x="467.4861" y="-622.3" font-family="Times,serif" font-size="14.00" fill="#000000">merely_inhab_baut_bool</text>
</a>
</g>
</g>
<!-- Bool_baut_bool_pairing_ZZ_Z_symm_map&#45;&gt;Bool_merely_inhab_baut_bool -->
<g id="edge15" class="edge">
<title>Bool_baut_bool_pairing_ZZ_Z_symm_map&#45;&gt;Bool_merely_inhab_baut_bool</title>
<path fill="none" stroke="#000000" d="M731.3621,-682.3771C675.207,-670.3795 597.9792,-653.8798 541.5827,-641.8307"/>
<polygon fill="#000000" stroke="#000000" points="542.1693,-638.3771 531.6587,-639.7105 540.7067,-645.2226 542.1693,-638.3771"/>
</g>
<!-- Bool_baut_bool_pairing_ZZ_Z_symm_lemma&#45;&gt;Bool_baut_bool_pairing -->
<g id="edge16" class="edge">
<title>Bool_baut_bool_pairing_ZZ_Z_symm_lemma&#45;&gt;Bool_baut_bool_pairing</title>
<path fill="none" stroke="#000000" d="M1354.5611,-607.8314C1358.1507,-599.7547 1362.4523,-590.0761 1366.412,-581.1668"/>
<polygon fill="#000000" stroke="#000000" points="1369.6615,-582.473 1370.5246,-571.9134 1363.2648,-579.63 1369.6615,-582.473"/>
</g>
<!-- Bool_path_baut_bool_inhab -->
<g id="node21" class="node">
<title>Bool_path_baut_bool_inhab</title>
<g id="a_node21"><a xlink:href="Bool.html#path_baut_bool_inhab" xlink:title="path_baut_bool_inhab">
<ellipse fill="#f070d1" stroke="#000000" cx="958.4861" cy="-554" rx="89.0842" ry="18"/>
<text text-anchor="middle" x="958.4861" y="-550.3" font-family="Times,serif" font-size="14.00" fill="#000000">path_baut_bool_inhab</text>
</a>
</g>
</g>
<!-- Bool_baut_bool_pairing_ZZ_Z_symm_lemma&#45;&gt;Bool_path_baut_bool_inhab -->
<g id="edge17" class="edge">
<title>Bool_baut_bool_pairing_ZZ_Z_symm_lemma&#45;&gt;Bool_path_baut_bool_inhab</title>
<path fill="none" stroke="#000000" d="M1263.7263,-610.6425C1195.6667,-598.0129 1100.0184,-580.2637 1034.0162,-568.0159"/>
<polygon fill="#000000" stroke="#000000" points="1034.5644,-564.5579 1024.0937,-566.1746 1033.2872,-571.4405 1034.5644,-564.5579"/>
</g>
<!-- Bool_baut_bool_pairing_ZZ_Z_symm_part1&#45;&gt;Bool_baut_bool_pairing -->
<g id="edge18" class="edge">
<title>Bool_baut_bool_pairing_ZZ_Z_symm_part1&#45;&gt;Bool_baut_bool_pairing</title>
<path fill="none" stroke="#000000" d="M962.0725,-612.3303C1061.3179,-598.4282 1212.9817,-577.1835 1303.2812,-564.5345"/>
<polygon fill="#000000" stroke="#000000" points="1304.0239,-567.9648 1313.4416,-563.1113 1303.0527,-561.0325 1304.0239,-567.9648"/>
</g>
<!-- Bool_baut_bool_pairing_ZZ_Z_symm_part1&#45;&gt;Bool_path_baut_bool_inhab -->
<g id="edge19" class="edge">
<title>Bool_baut_bool_pairing_ZZ_Z_symm_part1&#45;&gt;Bool_path_baut_bool_inhab</title>
<path fill="none" stroke="#000000" d="M887.7221,-608.2022C899.6744,-599.0473 914.4092,-587.761 927.3333,-577.8617"/>
<polygon fill="#000000" stroke="#000000" points="929.7069,-580.4524 935.5174,-571.593 925.4504,-574.8953 929.7069,-580.4524"/>
</g>
<!-- Bool_baut_bool_pairing_ZZ&#45;&gt;Bool_baut_bool_pairing -->
<g id="edge20" class="edge">
<title>Bool_baut_bool_pairing_ZZ&#45;&gt;Bool_baut_bool_pairing</title>
<path fill="none" stroke="#000000" d="M239.6037,-618.0342C276.2036,-614.6209 319.9943,-610.7872 359.4861,-608 668.9072,-586.1623 746.7429,-588.6564 1056.4861,-572 1137.4181,-567.6479 1229.7788,-562.4623 1294.7666,-558.7774"/>
<polygon fill="#000000" stroke="#000000" points="1295.1702,-562.2603 1304.9558,-558.1993 1294.7735,-555.2715 1295.1702,-562.2603"/>
</g>
<!-- Bool_baut_bool_pairing_ZZ&#45;&gt;Bool_path_baut_bool_inhab -->
<g id="edge21" class="edge">
<title>Bool_baut_bool_pairing_ZZ&#45;&gt;Bool_path_baut_bool_inhab</title>
<path fill="none" stroke="#000000" d="M241.087,-618.5659C391.6784,-605.0127 709.7806,-576.3835 866.8235,-562.2496"/>
<polygon fill="#000000" stroke="#000000" points="867.2852,-565.7223 876.9312,-561.3399 866.6577,-558.7505 867.2852,-565.7223"/>
</g>
<!-- Bool_baut_bool_pairing_Z1&#45;&gt;Bool_baut_bool_pairing_symm -->
<g id="edge22" class="edge">
<title>Bool_baut_bool_pairing_Z1&#45;&gt;Bool_baut_bool_pairing_symm</title>
<path fill="none" stroke="#000000" d="M1363.5525,-916.9613C1306.1156,-904.8694 1220.503,-886.8457 1159.0639,-873.9111"/>
<polygon fill="#000000" stroke="#000000" points="1159.5433,-870.4354 1149.0367,-871.8001 1158.1011,-877.2852 1159.5433,-870.4354"/>
</g>
<!-- Bool_baut_bool_pairing_Z1&#45;&gt;Bool_baut_bool_pairing_1Z -->
<g id="edge23" class="edge">
<title>Bool_baut_bool_pairing_Z1&#45;&gt;Bool_baut_bool_pairing_1Z</title>
<path fill="none" stroke="#000000" d="M1425.4861,-911.9667C1425.4861,-885.7983 1425.4861,-837.0561 1425.4861,-806.1368"/>
<polygon fill="#000000" stroke="#000000" points="1428.9862,-806.0098 1425.4861,-796.0098 1421.9862,-806.0099 1428.9862,-806.0098"/>
</g>
<!-- Bool_baut_bool_pairing_symm&#45;&gt;Bool_baut_bool_pairing -->
<g id="edge24" class="edge">
<title>Bool_baut_bool_pairing_symm&#45;&gt;Bool_baut_bool_pairing</title>
<path fill="none" stroke="#000000" d="M1099.3666,-840.0857C1132.9982,-803.4104 1215.5659,-719.878 1303.4861,-680 1388.927,-641.2465 1451.0673,-715.7742 1511.4861,-644 1521.79,-631.7595 1520.4219,-621.2722 1511.4861,-608 1497.7247,-587.5603 1474.7534,-574.8541 1451.7392,-566.9566"/>
<polygon fill="#000000" stroke="#000000" points="1452.4896,-563.5235 1441.9001,-563.8578 1450.3868,-570.2002 1452.4896,-563.5235"/>
</g>
<!-- Bool_baut_bool_pairing_1Z&#45;&gt;Bool_baut_bool_pairing -->
<g id="edge25" class="edge">
<title>Bool_baut_bool_pairing_1Z&#45;&gt;Bool_baut_bool_pairing</title>
<path fill="none" stroke="#000000" d="M1486.3577,-764.8552C1518.1912,-755.5101 1556.1163,-740.2072 1583.4861,-716 1621.7133,-682.1899 1654.4366,-647.7946 1622.4861,-608 1602.2558,-582.8029 1522.9577,-568.6458 1460.1801,-561.2121"/>
<polygon fill="#000000" stroke="#000000" points="1460.1952,-557.6911 1449.8623,-560.0323 1459.3999,-564.6457 1460.1952,-557.6911"/>
</g>
<!-- Bool_equiv_equiv_inhab_baut_bool_bool -->
<g id="node18" class="node">
<title>Bool_equiv_equiv_inhab_baut_bool_bool</title>
<g id="a_node18"><a xlink:href="Bool.html#equiv_equiv_inhab_baut_bool_bool" xlink:title="equiv_equiv_inhab_baut_bool_bool">
<ellipse fill="#f070d1" stroke="#000000" cx="1902.4861" cy="-698" rx="137.5759" ry="18"/>
<text text-anchor="middle" x="1902.4861" y="-694.3" font-family="Times,serif" font-size="14.00" fill="#000000">equiv_equiv_inhab_baut_bool_bool</text>
</a>
</g>
</g>
<!-- Bool_baut_bool_pairing_1Z&#45;&gt;Bool_equiv_equiv_inhab_baut_bool_bool -->
<g id="edge26" class="edge">
<title>Bool_baut_bool_pairing_1Z&#45;&gt;Bool_equiv_equiv_inhab_baut_bool_bool</title>
<path fill="none" stroke="#000000" d="M1494.0824,-766.4954C1576.4155,-752.6869 1714.9355,-729.455 1807.515,-713.9281"/>
<polygon fill="#000000" stroke="#000000" points="1808.1638,-717.3682 1817.4471,-712.2623 1807.0059,-710.4647 1808.1638,-717.3682"/>
</g>
<!-- Bool_equiv_equiv_inhab_baut_bool_bool_bool_inv -->
<g id="node17" class="node">
<title>Bool_equiv_equiv_inhab_baut_bool_bool_bool_inv</title>
<g id="a_node17"><a xlink:href="Bool.html#equiv_equiv_inhab_baut_bool_bool_bool_inv" xlink:title="equiv_equiv_inhab_baut_bool_bool_bool_inv">
<ellipse fill="#f070d1" stroke="#000000" cx="1855.4861" cy="-778" rx="172.7745" ry="18"/>
<ellipse fill="none" stroke="#000000" cx="1855.4861" cy="-778" rx="176.7719" ry="22"/>
<ellipse fill="none" stroke="#000000" cx="1855.4861" cy="-778" rx="180.7694" ry="26"/>
<text text-anchor="middle" x="1855.4861" y="-774.3" font-family="Times,serif" font-size="14.00" fill="#000000">equiv_equiv_inhab_baut_bool_bool_bool_inv</text>
</a>
</g>
</g>
<!-- Bool_equiv_equiv_inhab_baut_bool_bool_bool_inv&#45;&gt;Bool_equiv_equiv_inhab_baut_bool_bool -->
<g id="edge27" class="edge">
<title>Bool_equiv_equiv_inhab_baut_bool_bool_bool_inv&#45;&gt;Bool_equiv_equiv_inhab_baut_bool_bool</title>
<path fill="none" stroke="#000000" d="M1870.8757,-751.805C1875.9623,-743.1469 1881.6268,-733.5052 1886.7398,-724.8022"/>
<polygon fill="#000000" stroke="#000000" points="1889.7733,-726.5483 1891.8211,-716.1532 1883.7378,-723.0024 1889.7733,-726.5483"/>
</g>
<!-- Bool_isequiv_equiv_inhab_baut_bool_bool -->
<g id="node19" class="node">
<title>Bool_isequiv_equiv_inhab_baut_bool_bool</title>
<g id="a_node19"><a xlink:href="Bool.html#isequiv_equiv_inhab_baut_bool_bool" xlink:title="isequiv_equiv_inhab_baut_bool_bool">
<ellipse fill="#f070d1" stroke="#000000" cx="1911.4861" cy="-626" rx="143.7746" ry="18"/>
<text text-anchor="middle" x="1911.4861" y="-622.3" font-family="Times,serif" font-size="14.00" fill="#000000">isequiv_equiv_inhab_baut_bool_bool</text>
</a>
</g>
</g>
<!-- Bool_equiv_equiv_inhab_baut_bool_bool&#45;&gt;Bool_isequiv_equiv_inhab_baut_bool_bool -->
<g id="edge28" class="edge">
<title>Bool_equiv_equiv_inhab_baut_bool_bool&#45;&gt;Bool_isequiv_equiv_inhab_baut_bool_bool</title>
<path fill="none" stroke="#000000" d="M1904.7572,-679.8314C1905.7197,-672.131 1906.8643,-662.9743 1907.934,-654.4166"/>
<polygon fill="#000000" stroke="#000000" points="1911.417,-654.7702 1909.1845,-644.4133 1904.471,-653.9019 1911.417,-654.7702"/>
</g>
<!-- Bool_isequiv_equiv_inhab_baut_bool_bool_lemma -->
<g id="node20" class="node">
<title>Bool_isequiv_equiv_inhab_baut_bool_bool_lemma</title>
<g id="a_node20"><a xlink:href="Bool.html#isequiv_equiv_inhab_baut_bool_bool_lemma" xlink:title="isequiv_equiv_inhab_baut_bool_bool_lemma">
<ellipse fill="#f070d1" stroke="#000000" cx="1836.4861" cy="-554" rx="172.7694" ry="18"/>
<text text-anchor="middle" x="1836.4861" y="-550.3" font-family="Times,serif" font-size="14.00" fill="#000000">isequiv_equiv_inhab_baut_bool_bool_lemma</text>
</a>
</g>
</g>
<!-- Bool_isequiv_equiv_inhab_baut_bool_bool&#45;&gt;Bool_isequiv_equiv_inhab_baut_bool_bool_lemma -->
<g id="edge29" class="edge">
<title>Bool_isequiv_equiv_inhab_baut_bool_bool&#45;&gt;Bool_isequiv_equiv_inhab_baut_bool_bool_lemma</title>
<path fill="none" stroke="#000000" d="M1892.5604,-607.8314C1883.4313,-599.0673 1872.3372,-588.4171 1862.4343,-578.9103"/>
<polygon fill="#000000" stroke="#000000" points="1864.7837,-576.3139 1855.1459,-571.9134 1859.9359,-581.3636 1864.7837,-576.3139"/>
</g>
<!-- Bool_equiv_inhab_baut_bool_bool -->
<g id="node22" class="node">
<title>Bool_equiv_inhab_baut_bool_bool</title>
<g id="a_node22"><a xlink:href="Bool.html#equiv_inhab_baut_bool_bool" xlink:title="equiv_inhab_baut_bool_bool">
<ellipse fill="#f070d1" stroke="#000000" cx="1052.4861" cy="-482" rx="113.9803" ry="18"/>
<text text-anchor="middle" x="1052.4861" y="-478.3" font-family="Times,serif" font-size="14.00" fill="#000000">equiv_inhab_baut_bool_bool</text>
</a>
</g>
</g>
<!-- Bool_isequiv_equiv_inhab_baut_bool_bool_lemma&#45;&gt;Bool_equiv_inhab_baut_bool_bool -->
<g id="edge30" class="edge">
<title>Bool_isequiv_equiv_inhab_baut_bool_bool_lemma&#45;&gt;Bool_equiv_inhab_baut_bool_bool</title>
<path fill="none" stroke="#000000" d="M1706.5847,-542.0703C1554.0207,-528.0593 1303.7047,-505.0711 1161.0378,-491.969"/>
<polygon fill="#000000" stroke="#000000" points="1161.2329,-488.4723 1150.9547,-491.043 1160.5927,-495.443 1161.2329,-488.4723"/>
</g>
<!-- Bool_path_baut_bool_inhab&#45;&gt;Bool_equiv_inhab_baut_bool_bool -->
<g id="edge31" class="edge">
<title>Bool_path_baut_bool_inhab&#45;&gt;Bool_equiv_inhab_baut_bool_bool</title>
<path fill="none" stroke="#000000" d="M981.2409,-536.5708C993.1861,-527.4213 1008.0086,-516.0679 1021.0352,-506.0901"/>
<polygon fill="#000000" stroke="#000000" points="1023.4773,-508.6283 1029.2879,-499.7689 1019.2208,-503.0711 1023.4773,-508.6283"/>
</g>
<!-- Bool_isequiv_inhab_baut_bool_from_bool -->
<g id="node23" class="node">
<title>Bool_isequiv_inhab_baut_bool_from_bool</title>
<g id="a_node23"><a xlink:href="Bool.html#isequiv_inhab_baut_bool_from_bool" xlink:title="isequiv_inhab_baut_bool_from_bool">
<ellipse fill="#f070d1" stroke="#000000" cx="1052.4861" cy="-410" rx="141.8751" ry="18"/>
<text text-anchor="middle" x="1052.4861" y="-406.3" font-family="Times,serif" font-size="14.00" fill="#000000">isequiv_inhab_baut_bool_from_bool</text>
</a>
</g>
</g>
<!-- Bool_equiv_inhab_baut_bool_bool&#45;&gt;Bool_isequiv_inhab_baut_bool_from_bool -->
<g id="edge32" class="edge">
<title>Bool_equiv_inhab_baut_bool_bool&#45;&gt;Bool_isequiv_inhab_baut_bool_from_bool</title>
<path fill="none" stroke="#000000" d="M1052.4861,-463.8314C1052.4861,-456.131 1052.4861,-446.9743 1052.4861,-438.4166"/>
<polygon fill="#000000" stroke="#000000" points="1055.9862,-438.4132 1052.4861,-428.4133 1048.9862,-438.4133 1055.9862,-438.4132"/>
</g>
<!-- Bool_inhab_baut_bool_from_bool_bool -->
<g id="node24" class="node">
<title>Bool_inhab_baut_bool_from_bool_bool</title>
<g id="a_node24"><a xlink:href="Bool.html#inhab_baut_bool_from_bool_bool" xlink:title="inhab_baut_bool_from_bool_bool">
<ellipse fill="#f070d1" stroke="#000000" cx="1052.4861" cy="-330" rx="131.8766" ry="18"/>
<text text-anchor="middle" x="1052.4861" y="-326.3" font-family="Times,serif" font-size="14.00" fill="#000000">inhab_baut_bool_from_bool_bool</text>
</a>
</g>
</g>
<!-- Bool_isequiv_inhab_baut_bool_from_bool&#45;&gt;Bool_inhab_baut_bool_from_bool_bool -->
<g id="edge33" class="edge">
<title>Bool_isequiv_inhab_baut_bool_from_bool&#45;&gt;Bool_inhab_baut_bool_from_bool_bool</title>
<path fill="none" stroke="#000000" d="M1052.4861,-391.8468C1052.4861,-381.9251 1052.4861,-369.4167 1052.4861,-358.2492"/>
<polygon fill="#000000" stroke="#000000" points="1055.9862,-358.0814 1052.4861,-348.0814 1048.9862,-358.0814 1055.9862,-358.0814"/>
</g>
<!-- Bool_inhab_baut_bool_from_bool -->
<g id="node25" class="node">
<title>Bool_inhab_baut_bool_from_bool</title>
<g id="a_node25"><a xlink:href="Bool.html#inhab_baut_bool_from_bool" xlink:title="inhab_baut_bool_from_bool">
<ellipse fill="#f070d1" stroke="#000000" cx="1052.4861" cy="-250" rx="111.5806" ry="18"/>
<text text-anchor="middle" x="1052.4861" y="-246.3" font-family="Times,serif" font-size="14.00" fill="#000000">inhab_baut_bool_from_bool</text>
</a>
</g>
</g>
<!-- Bool_inhab_baut_bool_from_bool_bool&#45;&gt;Bool_inhab_baut_bool_from_bool -->
<g id="edge34" class="edge">
<title>Bool_inhab_baut_bool_from_bool_bool&#45;&gt;Bool_inhab_baut_bool_from_bool</title>
<path fill="none" stroke="#000000" d="M1052.4861,-311.8468C1052.4861,-301.9251 1052.4861,-289.4167 1052.4861,-278.2492"/>
<polygon fill="#000000" stroke="#000000" points="1055.9862,-278.0814 1052.4861,-268.0814 1048.9862,-278.0814 1055.9862,-278.0814"/>
</g>
<!-- Bool_negb_baut_bool_bool_negb -->
<g id="node30" class="node">
<title>Bool_negb_baut_bool_bool_negb</title>
<g id="a_node30"><a xlink:href="Bool.html#negb_baut_bool_bool_negb" xlink:title="negb_baut_bool_bool_negb">
<ellipse fill="#f070d1" stroke="#000000" cx="643.4861" cy="-250" rx="108.5808" ry="18"/>
<text text-anchor="middle" x="643.4861" y="-246.3" font-family="Times,serif" font-size="14.00" fill="#000000">negb_baut_bool_bool_negb</text>
</a>
</g>
</g>
<!-- Bool_inhab_baut_bool_from_bool_bool&#45;&gt;Bool_negb_baut_bool_bool_negb -->
<g id="edge35" class="edge">
<title>Bool_inhab_baut_bool_from_bool_bool&#45;&gt;Bool_negb_baut_bool_bool_negb</title>
<path fill="none" stroke="#000000" d="M976.9926,-315.2335C905.1265,-301.1766 797.3338,-280.0925 723.8861,-265.7262"/>
<polygon fill="#000000" stroke="#000000" points="724.2435,-262.2298 713.7576,-263.745 722.8997,-269.0996 724.2435,-262.2298"/>
</g>
<!-- Bool_isminusoneconnected_baut_bool -->
<g id="node27" class="node">
<title>Bool_isminusoneconnected_baut_bool</title>
<g id="a_node27"><a xlink:href="Bool.html#isminusoneconnected_baut_bool" xlink:title="isminusoneconnected_baut_bool">
<ellipse fill="#f070d1" stroke="#000000" cx="443.4861" cy="-1010" rx="126.1724" ry="18"/>
<ellipse fill="none" stroke="#000000" cx="443.4861" cy="-1010" rx="130.175" ry="22"/>
<ellipse fill="none" stroke="#000000" cx="443.4861" cy="-1010" rx="134.1777" ry="26"/>
<text text-anchor="middle" x="443.4861" y="-1006.3" font-family="Times,serif" font-size="14.00" fill="#000000">isminusoneconnected_baut_bool</text>
</a>
</g>
</g>
<!-- Bool_aut_baut_bool_idmap_or_negb -->
<g id="node28" class="node">
<title>Bool_aut_baut_bool_idmap_or_negb</title>
<g id="a_node28"><a xlink:href="Bool.html#aut_baut_bool_idmap_or_negb" xlink:title="aut_baut_bool_idmap_or_negb">
<ellipse fill="#f070d1" stroke="#000000" cx="238.4861" cy="-330" rx="120.7855" ry="18"/>
<ellipse fill="none" stroke="#000000" cx="238.4861" cy="-330" rx="124.7821" ry="22"/>
<ellipse fill="none" stroke="#000000" cx="238.4861" cy="-330" rx="128.7786" ry="26"/>
<text text-anchor="middle" x="238.4861" y="-326.3" font-family="Times,serif" font-size="14.00" fill="#000000">aut_baut_bool_idmap_or_negb</text>
</a>
</g>
</g>
<!-- Bool_aut_baut_bool_idmap_or_negb&#45;&gt;Bool_negb_baut_bool_bool_negb -->
<g id="edge36" class="edge">
<title>Bool_aut_baut_bool_idmap_or_negb&#45;&gt;Bool_negb_baut_bool_bool_negb</title>
<path fill="none" stroke="#000000" d="M330.6402,-311.7967C400.7999,-297.938 496.4008,-279.0539 563.3932,-265.8208"/>
<polygon fill="#000000" stroke="#000000" points="564.3446,-269.2006 573.4768,-263.829 562.9881,-262.3333 564.3446,-269.2006"/>
</g>
<!-- Bool_ap_pr1_negb_baut_bool_bool -->
<g id="node29" class="node">
<title>Bool_ap_pr1_negb_baut_bool_bool</title>
<g id="a_node29"><a xlink:href="Bool.html#ap_pr1_negb_baut_bool_bool" xlink:title="ap_pr1_negb_baut_bool_bool">
<ellipse fill="#f070d1" stroke="#000000" cx="643.4861" cy="-330" rx="116.1899" ry="18"/>
<ellipse fill="none" stroke="#000000" cx="643.4861" cy="-330" rx="120.1847" ry="22"/>
<ellipse fill="none" stroke="#000000" cx="643.4861" cy="-330" rx="124.1796" ry="26"/>
<text text-anchor="middle" x="643.4861" y="-326.3" font-family="Times,serif" font-size="14.00" fill="#000000">ap_pr1_negb_baut_bool_bool</text>
</a>
</g>
</g>
<!-- Bool_ap_pr1_negb_baut_bool_bool&#45;&gt;Bool_negb_baut_bool_bool_negb -->
<g id="edge37" class="edge">
<title>Bool_ap_pr1_negb_baut_bool_bool&#45;&gt;Bool_negb_baut_bool_bool_negb</title>
<path fill="none" stroke="#000000" d="M643.4861,-303.805C643.4861,-295.6026 643.4861,-286.5174 643.4861,-278.1839"/>
<polygon fill="#000000" stroke="#000000" points="646.9862,-278.1532 643.4861,-268.1532 639.9862,-278.1533 646.9862,-278.1532"/>
</g>
<!-- Bool_negb_baut_bool_ne_idmap -->
<g id="node31" class="node">
<title>Bool_negb_baut_bool_ne_idmap</title>
<g id="a_node31"><a xlink:href="Bool.html#negb_baut_bool_ne_idmap" xlink:title="negb_baut_bool_ne_idmap">
<ellipse fill="#f070d1" stroke="#000000" cx="643.4861" cy="-178" rx="106.6812" ry="18"/>
<text text-anchor="middle" x="643.4861" y="-174.3" font-family="Times,serif" font-size="14.00" fill="#000000">negb_baut_bool_ne_idmap</text>
</a>
</g>
</g>
<!-- Bool_negb_baut_bool_bool_negb&#45;&gt;Bool_negb_baut_bool_ne_idmap -->
<g id="edge38" class="edge">
<title>Bool_negb_baut_bool_bool_negb&#45;&gt;Bool_negb_baut_bool_ne_idmap</title>
<path fill="none" stroke="#000000" d="M643.4861,-231.8314C643.4861,-224.131 643.4861,-214.9743 643.4861,-206.4166"/>
<polygon fill="#000000" stroke="#000000" points="646.9862,-206.4132 643.4861,-196.4133 639.9862,-206.4133 646.9862,-206.4132"/>
</g>
<!-- Bool_negb_baut_bool -->
<g id="node32" class="node">
<title>Bool_negb_baut_bool</title>
<g id="a_node32"><a xlink:href="Bool.html#negb_baut_bool" xlink:title="negb_baut_bool">
<ellipse fill="#f070d1" stroke="#000000" cx="480.4861" cy="-106" rx="67.6881" ry="18"/>
<text text-anchor="middle" x="480.4861" y="-102.3" font-family="Times,serif" font-size="14.00" fill="#000000">negb_baut_bool</text>
</a>
</g>
</g>
<!-- Bool_negb_baut_bool_ne_idmap&#45;&gt;Bool_negb_baut_bool -->
<g id="edge39" class="edge">
<title>Bool_negb_baut_bool_ne_idmap&#45;&gt;Bool_negb_baut_bool</title>
<path fill="none" stroke="#000000" d="M605.2699,-161.1192C581.1563,-150.4678 549.9212,-136.6707 524.7341,-125.5451"/>
<polygon fill="#000000" stroke="#000000" points="525.966,-122.2631 515.4045,-121.4241 523.1376,-128.6662 525.966,-122.2631"/>
</g>
<!-- Bool_nontrivial_negb_center_baut_bool -->
<g id="node33" class="node">
<title>Bool_nontrivial_negb_center_baut_bool</title>
<g id="a_node33"><a xlink:href="Bool.html#nontrivial_negb_center_baut_bool" xlink:title="nontrivial_negb_center_baut_bool">
<ellipse fill="#f070d1" stroke="#000000" cx="806.4861" cy="-106" rx="131.8766" ry="18"/>
<text text-anchor="middle" x="806.4861" y="-102.3" font-family="Times,serif" font-size="14.00" fill="#000000">nontrivial_negb_center_baut_bool</text>
</a>
</g>
</g>
<!-- Bool_negb_baut_bool_ne_idmap&#45;&gt;Bool_nontrivial_negb_center_baut_bool -->
<g id="edge40" class="edge">
<title>Bool_negb_baut_bool_ne_idmap&#45;&gt;Bool_nontrivial_negb_center_baut_bool</title>
<path fill="none" stroke="#000000" d="M681.7024,-161.1192C704.4637,-151.0651 733.5701,-138.2083 757.9459,-127.4411"/>
<polygon fill="#000000" stroke="#000000" points="759.644,-130.5173 767.3771,-123.2751 756.8156,-124.1142 759.644,-130.5173"/>
</g>
<!-- Bool_negb_center_baut_bool -->
<g id="node34" class="node">
<title>Bool_negb_center_baut_bool</title>
<g id="a_node34"><a xlink:href="Bool.html#negb_center_baut_bool" xlink:title="negb_center_baut_bool">
<ellipse fill="#f070d1" stroke="#000000" cx="643.4861" cy="-34" rx="92.8835" ry="18"/>
<text text-anchor="middle" x="643.4861" y="-30.3" font-family="Times,serif" font-size="14.00" fill="#000000">negb_center_baut_bool</text>
</a>
</g>
</g>
<!-- Bool_negb_baut_bool&#45;&gt;Bool_negb_center_baut_bool -->
<g id="edge41" class="edge">
<title>Bool_negb_baut_bool&#45;&gt;Bool_negb_center_baut_bool</title>
<path fill="none" stroke="#000000" d="M515.4537,-90.5542C539.1979,-80.066 570.8667,-66.0773 596.7669,-54.6367"/>
<polygon fill="#000000" stroke="#000000" points="598.2896,-57.7904 606.0227,-50.5483 595.4611,-51.3873 598.2896,-57.7904"/>
</g>
<!-- Bool_nontrivial_negb_center_baut_bool&#45;&gt;Bool_negb_center_baut_bool -->
<g id="edge42" class="edge">
<title>Bool_nontrivial_negb_center_baut_bool&#45;&gt;Bool_negb_center_baut_bool</title>
<path fill="none" stroke="#000000" d="M767.4435,-88.7542C744.2456,-78.5073 714.6805,-65.4478 690.2428,-54.6533"/>
<polygon fill="#000000" stroke="#000000" points="691.3705,-51.3252 680.8089,-50.4862 688.5421,-57.7283 691.3705,-51.3252"/>
</g>
</g>
</svg>
