<?xml version="1.0" encoding="UTF-8" standalone="no"?>
<!DOCTYPE svg PUBLIC "-//W3C//DTD SVG 1.1//EN"
 "http://www.w3.org/Graphics/SVG/1.1/DTD/svg11.dtd">
<!-- Generated by graphviz version 2.39.20161220.0128 (20161220.0128)
 -->
<!-- Title: HoTT_Categories_Grothendieck_ToSet_Univalent Pages: 1 -->
<svg width="366pt" height="187pt"
 viewBox="0.00 0.00 366.00 187.00" xmlns="http://www.w3.org/2000/svg" xmlns:xlink="http://www.w3.org/1999/xlink">
<g id="graph0" class="graph" transform="scale(1 1) rotate(0) translate(4 183)">
<title>HoTT_Categories_Grothendieck_ToSet_Univalent</title>
<polygon fill="#ffffff" stroke="transparent" points="-4,4 -4,-183 362,-183 362,4 -4,4"/>
<g id="clust1" class="cluster">
<title>cluster_Univalent</title>
<polygon fill="#ffffc3" stroke="#000000" points="8.7052,-8 8.7052,-171 349.2948,-171 349.2948,-8 8.7052,-8"/>
<text text-anchor="middle" x="43.7052" y="-155.8" font-family="Times,serif" font-size="14.00" fill="#000000">Univalent</text>
</g>
<!-- Univalent_preservation -->
<g id="node1" class="node">
<title>Univalent_preservation</title>
<g id="a_node1"><a xlink:href="Univalent.html#preservation" xlink:title="preservation">
<ellipse fill="#f070d1" stroke="#000000" cx="273.1976" cy="-114" rx="53.8975" ry="18"/>
<ellipse fill="none" stroke="#000000" cx="273.1976" cy="-114" rx="57.894" ry="22"/>
<ellipse fill="none" stroke="#000000" cx="273.1976" cy="-114" rx="61.8905" ry="26"/>
<text text-anchor="middle" x="273.1976" y="-110.3" font-family="Times,serif" font-size="14.00" fill="#000000">preservation</text>
</a>
</g>
</g>
<!-- Univalent_category_isotoid -->
<g id="node2" class="node">
<title>Univalent_category_isotoid</title>
<g id="a_node2"><a xlink:href="Univalent.html#category_isotoid" xlink:title="category_isotoid">
<ellipse fill="#f070d1" stroke="#000000" cx="102.1976" cy="-114" rx="69.5832" ry="18"/>
<ellipse fill="none" stroke="#000000" cx="102.1976" cy="-114" rx="73.5854" ry="22"/>
<ellipse fill="none" stroke="#000000" cx="102.1976" cy="-114" rx="77.5877" ry="26"/>
<text text-anchor="middle" x="102.1976" y="-110.3" font-family="Times,serif" font-size="14.00" fill="#000000">category_isotoid</text>
</a>
</g>
</g>
<!-- Univalent_category_isotoid_helper -->
<g id="node3" class="node">
<title>Univalent_category_isotoid_helper</title>
<g id="a_node3"><a xlink:href="Univalent.html#category_isotoid_helper" xlink:title="category_isotoid_helper">
<ellipse fill="#f070d1" stroke="#000000" cx="122.1976" cy="-34" rx="95.5831" ry="18"/>
<text text-anchor="middle" x="122.1976" y="-30.3" font-family="Times,serif" font-size="14.00" fill="#000000">category_isotoid_helper</text>
</a>
</g>
</g>
<!-- Univalent_category_isotoid&#45;&gt;Univalent_category_isotoid_helper -->
<g id="edge1" class="edge">
<title>Univalent_category_isotoid&#45;&gt;Univalent_category_isotoid_helper</title>
<path fill="none" stroke="#000000" d="M108.7463,-87.805C110.8197,-79.5114 113.1187,-70.3154 115.221,-61.9064"/>
<polygon fill="#000000" stroke="#000000" points="118.6293,-62.7036 117.6593,-52.1532 111.8383,-61.0058 118.6293,-62.7036"/>
</g>
</g>
</svg>
