<?xml version="1.0" encoding="UTF-8" standalone="no"?>
<!DOCTYPE svg PUBLIC "-//W3C//DTD SVG 1.1//EN"
 "http://www.w3.org/Graphics/SVG/1.1/DTD/svg11.dtd">
<!-- Generated by graphviz version 2.39.20141222.0545 (20141222.0545)
 -->
<!-- Title: HoTT_Categories_SetCategory_Core Pages: 1 -->
<svg width="418pt" height="115pt"
 viewBox="0.00 0.00 418.00 115.00" xmlns="http://www.w3.org/2000/svg" xmlns:xlink="http://www.w3.org/1999/xlink">
<g id="graph0" class="graph" transform="scale(1 1) rotate(0) translate(4 111)">
<title>HoTT_Categories_SetCategory_Core</title>
<polygon fill="white" stroke="transparent" points="-4,4 -4,-111 414,-111 414,4 -4,4"/>
<g id="clust1" class="cluster"><title>cluster_Core</title>
<polygon fill="#ffffc3" stroke="black" points="8,-8 8,-99 402,-99 402,-8 8,-8"/>
<text text-anchor="middle" x="29.5" y="-83.8" font-family="Times,serif" font-size="14.00">Core</text>
</g>
<!-- Core_isstrict_prop_cat -->
<g id="node1" class="node"><title>Core_isstrict_prop_cat</title>
<g id="a_node1"><a xlink:href="Core.html#isstrict_prop_cat" xlink:title="isstrict_prop_cat">
<ellipse fill="#f070d1" stroke="black" cx="316" cy="-42" rx="69.5832" ry="18"/>
<ellipse fill="none" stroke="black" cx="316" cy="-42" rx="73.5854" ry="22"/>
<ellipse fill="none" stroke="black" cx="316" cy="-42" rx="77.5877" ry="26"/>
<text text-anchor="middle" x="316" y="-38.3" font-family="Times,serif" font-size="14.00">isstrict_prop_cat</text>
</a>
</g>
</g>
<!-- Core_set_cat -->
<g id="node2" class="node"><title>Core_set_cat</title>
<g id="a_node2"><a xlink:href="Core.html#set_cat" xlink:title="set_cat">
<ellipse fill="#f070d1" stroke="black" cx="177" cy="-42" rx="35.176" ry="18"/>
<ellipse fill="none" stroke="black" cx="177" cy="-42" rx="39.185" ry="22"/>
<ellipse fill="none" stroke="black" cx="177" cy="-42" rx="43.194" ry="26"/>
<text text-anchor="middle" x="177" y="-38.3" font-family="Times,serif" font-size="14.00">set_cat</text>
</a>
</g>
</g>
<!-- Core_prop_cat -->
<g id="node3" class="node"><title>Core_prop_cat</title>
<g id="a_node3"><a xlink:href="Core.html#prop_cat" xlink:title="prop_cat">
<ellipse fill="#f070d1" stroke="black" cx="66" cy="-42" rx="41.6772" ry="18"/>
<ellipse fill="none" stroke="black" cx="66" cy="-42" rx="45.685" ry="22"/>
<ellipse fill="none" stroke="black" cx="66" cy="-42" rx="49.6928" ry="26"/>
<text text-anchor="middle" x="66" y="-38.3" font-family="Times,serif" font-size="14.00">prop_cat</text>
</a>
</g>
</g>
</g>
</svg>
