<?xml version="1.0" encoding="UTF-8" standalone="no"?>
<!DOCTYPE svg PUBLIC "-//W3C//DTD SVG 1.1//EN"
 "http://www.w3.org/Graphics/SVG/1.1/DTD/svg11.dtd">
<!-- Generated by graphviz version 2.39.20161220.0128 (20161220.0128)
 -->
<!-- Title: HoTT_HIT_TwoSphere Pages: 1 -->
<svg width="676pt" height="342pt"
 viewBox="0.00 0.00 676.00 342.00" xmlns="http://www.w3.org/2000/svg" xmlns:xlink="http://www.w3.org/1999/xlink">
<g id="graph0" class="graph" transform="scale(1 1) rotate(0) translate(4 338)">
<title>HoTT_HIT_TwoSphere</title>
<polygon fill="#ffffff" stroke="transparent" points="-4,4 -4,-338 672,-338 672,4 -4,4"/>
<g id="clust1" class="cluster">
<title>cluster_TwoSphere</title>
<polygon fill="#ffffc3" stroke="#000000" points="18.8169,-8 18.8169,-326 649.1831,-326 649.1831,-8 18.8169,-8"/>
<text text-anchor="middle" x="58.3169" y="-310.8" font-family="Times,serif" font-size="14.00" fill="#000000">TwoSphere</text>
</g>
<g id="clust2" class="cluster">
<title>cluster_TwoSphere_TwoSphere</title>
<polygon fill="#ffffa3" stroke="#000000" points="37.6338,-16 37.6338,-163 630.3662,-163 630.3662,-16 37.6338,-16"/>
<text text-anchor="middle" x="77.1338" y="-147.8" font-family="Times,serif" font-size="14.00" fill="#000000">TwoSphere</text>
</g>
<!-- TwoSphere_TwoSphere_S2_ind_beta_surf -->
<g id="node1" class="node">
<title>TwoSphere_TwoSphere_S2_ind_beta_surf</title>
<g id="a_node1"><a xlink:href="TwoSphere.html#TwoSphere.S2_ind_beta_surf" xlink:title="S2_ind_beta_surf">
<ellipse fill="#facdef" stroke="#000000" cx="228.6479" cy="-114" rx="72.5877" ry="18"/>
<text text-anchor="middle" x="228.6479" y="-110.3" font-family="Times,serif" font-size="14.00" fill="#000000">S2_ind_beta_surf</text>
</a>
</g>
</g>
<!-- TwoSphere_TwoSphere_S2_ind -->
<g id="node2" class="node">
<title>TwoSphere_TwoSphere_S2_ind</title>
<g id="a_node2"><a xlink:href="TwoSphere.html#TwoSphere.S2_ind" xlink:title="S2_ind">
<ellipse fill="#f070d1" stroke="#000000" cx="526.6479" cy="-114" rx="35.9954" ry="18"/>
<text text-anchor="middle" x="526.6479" y="-110.3" font-family="Times,serif" font-size="14.00" fill="#000000">S2_ind</text>
</a>
</g>
</g>
<!-- TwoSphere_TwoSphere_surf -->
<g id="node3" class="node">
<title>TwoSphere_TwoSphere_surf</title>
<g id="a_node3"><a xlink:href="TwoSphere.html#TwoSphere.surf" xlink:title="surf">
<ellipse fill="#facdef" stroke="#000000" cx="209.6479" cy="-42" rx="27" ry="18"/>
<text text-anchor="middle" x="209.6479" y="-38.3" font-family="Times,serif" font-size="14.00" fill="#000000">surf</text>
</a>
</g>
</g>
<!-- TwoSphere_TwoSphere_S2_ind&#45;&gt;TwoSphere_TwoSphere_surf -->
<g id="edge1" class="edge">
<title>TwoSphere_TwoSphere_S2_ind&#45;&gt;TwoSphere_TwoSphere_surf</title>
<path fill="none" stroke="#000000" d="M493.9173,-106.5659C434.1019,-92.9801 307.5907,-64.2457 245.5213,-50.1479"/>
<polygon fill="#000000" stroke="#000000" points="245.9482,-46.6558 235.4214,-47.8539 244.3978,-53.4819 245.9482,-46.6558"/>
</g>
<!-- TwoSphere_TwoSphere_base -->
<g id="node4" class="node">
<title>TwoSphere_TwoSphere_base</title>
<g id="a_node4"><a xlink:href="TwoSphere.html#TwoSphere.base" xlink:title="base">
<ellipse fill="#7faaff" stroke="#000000" cx="378.6479" cy="-42" rx="27" ry="18"/>
<text text-anchor="middle" x="378.6479" y="-38.3" font-family="Times,serif" font-size="14.00" fill="#000000">base</text>
</a>
</g>
</g>
<!-- TwoSphere_TwoSphere_S2_ind&#45;&gt;TwoSphere_TwoSphere_base -->
<g id="edge2" class="edge">
<title>TwoSphere_TwoSphere_S2_ind&#45;&gt;TwoSphere_TwoSphere_base</title>
<path fill="none" stroke="#000000" d="M500.8683,-101.4586C475.5317,-89.1327 436.8371,-70.3082 409.7937,-57.152"/>
<polygon fill="#000000" stroke="#000000" points="411.2785,-53.9822 400.755,-52.7548 408.2162,-60.2768 411.2785,-53.9822"/>
</g>
<!-- TwoSphere_TwoSphere_S2 -->
<g id="node5" class="node">
<title>TwoSphere_TwoSphere_S2</title>
<g id="a_node5"><a xlink:href="TwoSphere.html#TwoSphere.S2" xlink:title="S2">
<ellipse fill="#e2cdfa" stroke="#000000" cx="547.6479" cy="-42" rx="27" ry="18"/>
<text text-anchor="middle" x="547.6479" y="-38.3" font-family="Times,serif" font-size="14.00" fill="#000000">S2</text>
</a>
</g>
</g>
<!-- TwoSphere_TwoSphere_S2_ind&#45;&gt;TwoSphere_TwoSphere_S2 -->
<g id="edge3" class="edge">
<title>TwoSphere_TwoSphere_S2_ind&#45;&gt;TwoSphere_TwoSphere_S2</title>
<path fill="none" stroke="#000000" d="M531.9471,-95.8314C534.2526,-87.9266 537.0058,-78.4872 539.5581,-69.7365"/>
<polygon fill="#000000" stroke="#000000" points="542.9831,-70.4934 542.4231,-59.9134 536.2631,-68.5334 542.9831,-70.4934"/>
</g>
<!-- TwoSphere_S2_rec_beta_surf -->
<g id="node6" class="node">
<title>TwoSphere_S2_rec_beta_surf</title>
<g id="a_node6"><a xlink:href="TwoSphere.html#S2_rec_beta_surf" xlink:title="S2_rec_beta_surf">
<ellipse fill="#f070d1" stroke="#000000" cx="333.6479" cy="-269" rx="72.2731" ry="18"/>
<ellipse fill="none" stroke="#000000" cx="333.6479" cy="-269" rx="76.2803" ry="22"/>
<ellipse fill="none" stroke="#000000" cx="333.6479" cy="-269" rx="80.2875" ry="26"/>
<text text-anchor="middle" x="333.6479" y="-265.3" font-family="Times,serif" font-size="14.00" fill="#000000">S2_rec_beta_surf</text>
</a>
</g>
</g>
<!-- TwoSphere_S2_rec_beta_surf&#45;&gt;TwoSphere_TwoSphere_S2_ind_beta_surf -->
<g id="edge4" class="edge">
<title>TwoSphere_S2_rec_beta_surf&#45;&gt;TwoSphere_TwoSphere_S2_ind_beta_surf</title>
<path fill="none" stroke="#000000" d="M316.3093,-243.4049C296.9892,-214.8847 265.9115,-169.0082 246.4183,-140.2325"/>
<polygon fill="#000000" stroke="#000000" points="249.2727,-138.2055 240.7664,-131.8893 243.4772,-142.1314 249.2727,-138.2055"/>
</g>
<!-- TwoSphere_S2_rec -->
<g id="node7" class="node">
<title>TwoSphere_S2_rec</title>
<g id="a_node7"><a xlink:href="TwoSphere.html#S2_rec" xlink:title="S2_rec">
<ellipse fill="#f070d1" stroke="#000000" cx="418.6479" cy="-189" rx="35.194" ry="18"/>
<text text-anchor="middle" x="418.6479" y="-185.3" font-family="Times,serif" font-size="14.00" fill="#000000">S2_rec</text>
</a>
</g>
</g>
<!-- TwoSphere_S2_rec_beta_surf&#45;&gt;TwoSphere_S2_rec -->
<g id="edge5" class="edge">
<title>TwoSphere_S2_rec_beta_surf&#45;&gt;TwoSphere_S2_rec</title>
<path fill="none" stroke="#000000" d="M360.0765,-244.126C370.9785,-233.8653 383.5351,-222.0473 394.2193,-211.9916"/>
<polygon fill="#000000" stroke="#000000" points="396.7345,-214.4308 401.6177,-205.0284 391.9369,-209.3334 396.7345,-214.4308"/>
</g>
<!-- TwoSphere_S2_rec&#45;&gt;TwoSphere_TwoSphere_S2_ind -->
<g id="edge6" class="edge">
<title>TwoSphere_S2_rec&#45;&gt;TwoSphere_TwoSphere_S2_ind</title>
<path fill="none" stroke="#000000" d="M439.7278,-174.3612C456.0815,-163.0044 478.9493,-147.124 497.1248,-134.5022"/>
<polygon fill="#000000" stroke="#000000" points="499.4039,-137.1807 505.6212,-128.6019 495.4111,-131.4311 499.4039,-137.1807"/>
</g>
</g>
</svg>
