<?xml version="1.0" encoding="UTF-8" standalone="no"?>
<!DOCTYPE svg PUBLIC "-//W3C//DTD SVG 1.1//EN"
 "http://www.w3.org/Graphics/SVG/1.1/DTD/svg11.dtd">
<!-- Generated by graphviz version 2.26.3 (20100126.1600)
 -->
<!-- Title: HoTT_categories_LaxComma_CoreParts Pages: 1 -->
<svg width="2370pt" height="1189pt"
 viewBox="0.00 0.00 2370.00 1189.00" xmlns="http://www.w3.org/2000/svg" xmlns:xlink="http://www.w3.org/1999/xlink">
<g id="graph1" class="graph" transform="scale(1 1) rotate(0) translate(4 1185)">
<title>HoTT_categories_LaxComma_CoreParts</title>
<polygon fill="white" stroke="white" points="-4,5 -4,-1185 2367,-1185 2367,5 -4,5"/>
<g id="graph2" class="cluster"><title>cluster_CoreParts</title>
<polygon fill="#ffffc3" stroke="black" points="8,-23.1569 8,-1157.84 2354,-1157.84 2354,-23.1569 8,-23.1569"/>
<text text-anchor="middle" x="50" y="-1141.24" font-family="Times Roman,serif" font-size="14.00">CoreParts</text>
</g>
<g id="graph3" class="cluster"><title>cluster_CoreParts_LaxCommaCategoryParts</title>
<polygon fill="#ffffa3" stroke="black" points="16,-46.3137 16,-1059.43 2346,-1059.43 2346,-46.3137 16,-46.3137"/>
<text text-anchor="middle" x="111.5" y="-1042.83" font-family="Times Roman,serif" font-size="14.00">LaxCommaCategoryParts</text>
</g>
<!-- CoreParts_LaxCommaCategoryParts_identity -->
<g id="node1" class="node"><title>CoreParts_LaxCommaCategoryParts_identity</title>
<a xlink:href="CoreParts.html#LaxCommaCategoryParts.identity" xlink:title="identity">
<ellipse fill="#f070d1" stroke="black" cx="2281" cy="-362.157" rx="49.0671" ry="18.3848"/>
<ellipse fill="none" stroke="black" cx="2281" cy="-362.157" rx="53.0323" ry="22.3848"/>
<ellipse fill="none" stroke="black" cx="2281" cy="-362.157" rx="56.9975" ry="26.3848"/>
<text text-anchor="middle" x="2281" y="-358.557" font-family="Times Roman,serif" font-size="14.00">identity</text>
</a>
</g>
<!-- CoreParts_LaxCommaCategoryParts_Build_morphism -->
<g id="node16" class="node"><title>CoreParts_LaxCommaCategoryParts_Build_morphism</title>
<a xlink:href="CoreParts.html#LaxCommaCategoryParts.Build_morphism" xlink:title="Build_morphism">
<ellipse fill="#7faaff" stroke="black" cx="1711" cy="-124.157" rx="89.0955" ry="18.3848"/>
<text text-anchor="middle" x="1711" y="-120.557" font-family="Times Roman,serif" font-size="14.00">Build_morphism</text>
</a>
</g>
<!-- CoreParts_LaxCommaCategoryParts_identity&#45;&gt;CoreParts_LaxCommaCategoryParts_Build_morphism -->
<g id="edge2" class="edge"><title>CoreParts_LaxCommaCategoryParts_identity&#45;&gt;CoreParts_LaxCommaCategoryParts_Build_morphism</title>
<path fill="none" stroke="black" d="M2238.16,-344.268C2134.49,-300.981 1870.55,-190.776 1760.43,-144.796"/>
<polygon fill="black" stroke="black" points="1761.46,-141.435 1750.89,-140.812 1758.77,-147.895 1761.46,-141.435"/>
</g>
<!-- CoreParts_LaxCommaCategoryParts_compose -->
<g id="node2" class="node"><title>CoreParts_LaxCommaCategoryParts_compose</title>
<a xlink:href="CoreParts.html#LaxCommaCategoryParts.compose" xlink:title="compose">
<ellipse fill="#f070d1" stroke="black" cx="2145" cy="-362.157" rx="53.3032" ry="18.3848"/>
<ellipse fill="none" stroke="black" cx="2145" cy="-362.157" rx="57.2707" ry="22.3848"/>
<ellipse fill="none" stroke="black" cx="2145" cy="-362.157" rx="61.2382" ry="26.3848"/>
<text text-anchor="middle" x="2145" y="-358.557" font-family="Times Roman,serif" font-size="14.00">compose</text>
</a>
</g>
<!-- CoreParts_LaxCommaCategoryParts_compose&#45;&gt;CoreParts_LaxCommaCategoryParts_Build_morphism -->
<g id="edge4" class="edge"><title>CoreParts_LaxCommaCategoryParts_compose&#45;&gt;CoreParts_LaxCommaCategoryParts_Build_morphism</title>
<path fill="none" stroke="black" d="M2106.87,-341.245C2025.42,-296.582 1835.13,-192.228 1751.57,-146.404"/>
<polygon fill="black" stroke="black" points="1753.08,-143.243 1742.63,-141.503 1749.72,-149.38 1753.08,-143.243"/>
</g>
<!-- CoreParts_LaxCommaCategoryParts_path_morphism__uncurried -->
<g id="node3" class="node"><title>CoreParts_LaxCommaCategoryParts_path_morphism__uncurried</title>
<a xlink:href="CoreParts.html#LaxCommaCategoryParts.path_morphism&#39;_uncurried" xlink:title="path_morphism&#39;_uncurried">
<ellipse fill="#f070d1" stroke="black" cx="2189" cy="-883.157" rx="140.948" ry="18.3848"/>
<ellipse fill="none" stroke="black" cx="2189" cy="-883.157" rx="144.935" ry="22.3848"/>
<ellipse fill="none" stroke="black" cx="2189" cy="-883.157" rx="148.922" ry="26.3848"/>
<text text-anchor="middle" x="2189" y="-879.557" font-family="Times Roman,serif" font-size="14.00">path_morphism&#39;_uncurried</text>
</a>
</g>
<!-- CoreParts_LaxCommaCategoryParts_path_morphism_ -->
<g id="node4" class="node"><title>CoreParts_LaxCommaCategoryParts_path_morphism_</title>
<a xlink:href="CoreParts.html#LaxCommaCategoryParts.path_morphism&#39;" xlink:title="path_morphism&#39;">
<ellipse fill="#f070d1" stroke="black" cx="2047" cy="-622.157" rx="89.0955" ry="18.3848"/>
<text text-anchor="middle" x="2047" y="-618.557" font-family="Times Roman,serif" font-size="14.00">path_morphism&#39;</text>
</a>
</g>
<!-- CoreParts_LaxCommaCategoryParts_path_morphism__uncurried&#45;&gt;CoreParts_LaxCommaCategoryParts_path_morphism_ -->
<g id="edge6" class="edge"><title>CoreParts_LaxCommaCategoryParts_path_morphism__uncurried&#45;&gt;CoreParts_LaxCommaCategoryParts_path_morphism_</title>
<path fill="none" stroke="black" d="M2174.6,-856.694C2147.58,-807.02 2089.5,-700.276 2062.01,-649.75"/>
<polygon fill="black" stroke="black" points="2064.95,-647.823 2057.09,-640.712 2058.8,-651.168 2064.95,-647.823"/>
</g>
<!-- CoreParts_LaxCommaCategoryParts_path_morphism__helper -->
<g id="node5" class="node"><title>CoreParts_LaxCommaCategoryParts_path_morphism__helper</title>
<a xlink:href="CoreParts.html#LaxCommaCategoryParts.path_morphism&#39;_helper" xlink:title="path_morphism&#39;_helper">
<ellipse fill="#facdef" stroke="black" cx="1941" cy="-362.157" rx="125.158" ry="18.3848"/>
<text text-anchor="middle" x="1941" y="-358.557" font-family="Times Roman,serif" font-size="14.00">path_morphism&#39;_helper</text>
</a>
</g>
<!-- CoreParts_LaxCommaCategoryParts_path_morphism_&#45;&gt;CoreParts_LaxCommaCategoryParts_path_morphism__helper -->
<g id="edge8" class="edge"><title>CoreParts_LaxCommaCategoryParts_path_morphism_&#45;&gt;CoreParts_LaxCommaCategoryParts_path_morphism__helper</title>
<path fill="none" stroke="black" d="M2039.38,-603.458C2021,-558.391 1974.19,-443.562 1952.43,-390.202"/>
<polygon fill="black" stroke="black" points="1955.57,-388.625 1948.55,-380.686 1949.09,-391.267 1955.57,-388.625"/>
</g>
<!-- CoreParts_LaxCommaCategoryParts_path_morphism -->
<g id="node7" class="node"><title>CoreParts_LaxCommaCategoryParts_path_morphism</title>
<a xlink:href="CoreParts.html#LaxCommaCategoryParts.path_morphism" xlink:title="path_morphism">
<ellipse fill="#facdef" stroke="black" cx="1711" cy="-362.157" rx="86.9741" ry="18.3848"/>
<text text-anchor="middle" x="1711" y="-358.557" font-family="Times Roman,serif" font-size="14.00">path_morphism</text>
</a>
</g>
<!-- CoreParts_LaxCommaCategoryParts_path_morphism_&#45;&gt;CoreParts_LaxCommaCategoryParts_path_morphism -->
<g id="edge10" class="edge"><title>CoreParts_LaxCommaCategoryParts_path_morphism_&#45;&gt;CoreParts_LaxCommaCategoryParts_path_morphism</title>
<path fill="none" stroke="black" d="M2023.91,-604.286C1965.04,-558.736 1809.32,-438.238 1742.35,-386.414"/>
<polygon fill="black" stroke="black" points="1744.31,-383.505 1734.26,-380.153 1740.02,-389.041 1744.31,-383.505"/>
</g>
<!-- CoreParts_LaxCommaCategoryParts_path_morphism_uncurried -->
<g id="node6" class="node"><title>CoreParts_LaxCommaCategoryParts_path_morphism_uncurried</title>
<a xlink:href="CoreParts.html#LaxCommaCategoryParts.path_morphism_uncurried" xlink:title="path_morphism_uncurried">
<ellipse fill="#f070d1" stroke="black" cx="1793" cy="-622.157" rx="138.828" ry="18.3848"/>
<ellipse fill="none" stroke="black" cx="1793" cy="-622.157" rx="142.814" ry="22.3848"/>
<ellipse fill="none" stroke="black" cx="1793" cy="-622.157" rx="146.801" ry="26.3848"/>
<text text-anchor="middle" x="1793" y="-618.557" font-family="Times Roman,serif" font-size="14.00">path_morphism_uncurried</text>
</a>
</g>
<!-- CoreParts_LaxCommaCategoryParts_path_morphism_uncurried&#45;&gt;CoreParts_LaxCommaCategoryParts_path_morphism -->
<g id="edge12" class="edge"><title>CoreParts_LaxCommaCategoryParts_path_morphism_uncurried&#45;&gt;CoreParts_LaxCommaCategoryParts_path_morphism</title>
<path fill="none" stroke="black" d="M1784.53,-595.312C1768.95,-545.909 1735.88,-441.036 1719.95,-390.52"/>
<polygon fill="black" stroke="black" points="1723.25,-389.374 1716.91,-380.89 1716.58,-391.479 1723.25,-389.374"/>
</g>
<!-- CoreParts_LaxCommaCategoryParts_path_morphism&#45;&gt;CoreParts_LaxCommaCategoryParts_Build_morphism -->
<g id="edge14" class="edge"><title>CoreParts_LaxCommaCategoryParts_path_morphism&#45;&gt;CoreParts_LaxCommaCategoryParts_Build_morphism</title>
<path fill="none" stroke="black" d="M1711,-343.481C1711,-302.032 1711,-202.125 1711,-152.754"/>
<polygon fill="black" stroke="black" points="1714.5,-152.746 1711,-142.746 1707.5,-152.746 1714.5,-152.746"/>
</g>
<!-- CoreParts_LaxCommaCategoryParts_trunc_morphism -->
<g id="node8" class="node"><title>CoreParts_LaxCommaCategoryParts_trunc_morphism</title>
<a xlink:href="CoreParts.html#LaxCommaCategoryParts.trunc_morphism" xlink:title="trunc_morphism">
<ellipse fill="#facdef" stroke="black" cx="1530" cy="-622.157" rx="90.0502" ry="18.3848"/>
<ellipse fill="none" stroke="black" cx="1530" cy="-622.157" rx="94.0299" ry="22.3848"/>
<ellipse fill="none" stroke="black" cx="1530" cy="-622.157" rx="98.0096" ry="26.3848"/>
<text text-anchor="middle" x="1530" y="-618.557" font-family="Times Roman,serif" font-size="14.00">trunc_morphism</text>
</a>
</g>
<!-- CoreParts_LaxCommaCategoryParts_issig_morphism -->
<g id="node9" class="node"><title>CoreParts_LaxCommaCategoryParts_issig_morphism</title>
<a xlink:href="CoreParts.html#LaxCommaCategoryParts.issig_morphism" xlink:title="issig_morphism">
<ellipse fill="#f070d1" stroke="black" cx="1521" cy="-362.157" rx="85.0596" ry="18.3848"/>
<text text-anchor="middle" x="1521" y="-358.557" font-family="Times Roman,serif" font-size="14.00">issig_morphism</text>
</a>
</g>
<!-- CoreParts_LaxCommaCategoryParts_trunc_morphism&#45;&gt;CoreParts_LaxCommaCategoryParts_issig_morphism -->
<g id="edge16" class="edge"><title>CoreParts_LaxCommaCategoryParts_trunc_morphism&#45;&gt;CoreParts_LaxCommaCategoryParts_issig_morphism</title>
<path fill="none" stroke="black" d="M1529.07,-595.312C1527.37,-546.115 1523.76,-441.91 1522,-391.156"/>
<polygon fill="black" stroke="black" points="1525.49,-390.763 1521.65,-380.89 1518.5,-391.005 1525.49,-390.763"/>
</g>
<!-- CoreParts_LaxCommaCategoryParts_issig_morphism&#45;&gt;CoreParts_LaxCommaCategoryParts_Build_morphism -->
<g id="edge18" class="edge"><title>CoreParts_LaxCommaCategoryParts_issig_morphism&#45;&gt;CoreParts_LaxCommaCategoryParts_Build_morphism</title>
<path fill="none" stroke="black" d="M1535.59,-343.877C1569.03,-301.998 1651.26,-198.988 1690.07,-150.369"/>
<polygon fill="black" stroke="black" points="1692.85,-152.498 1696.36,-142.499 1687.38,-148.131 1692.85,-152.498"/>
</g>
<!-- CoreParts_LaxCommaCategoryParts_morphism_rec -->
<g id="node10" class="node"><title>CoreParts_LaxCommaCategoryParts_morphism_rec</title>
<a xlink:href="CoreParts.html#LaxCommaCategoryParts.morphism_rec" xlink:title="morphism_rec">
<ellipse fill="#f070d1" stroke="black" cx="1326" cy="-622.157" rx="79.9031" ry="18.3848"/>
<ellipse fill="none" stroke="black" cx="1326" cy="-622.157" rx="83.9031" ry="22.3848"/>
<ellipse fill="none" stroke="black" cx="1326" cy="-622.157" rx="87.9031" ry="26.3848"/>
<text text-anchor="middle" x="1326" y="-618.557" font-family="Times Roman,serif" font-size="14.00">morphism_rec</text>
</a>
</g>
<!-- CoreParts_LaxCommaCategoryParts_morphism_rect -->
<g id="node12" class="node"><title>CoreParts_LaxCommaCategoryParts_morphism_rect</title>
<a xlink:href="CoreParts.html#LaxCommaCategoryParts.morphism_rect" xlink:title="morphism_rect">
<ellipse fill="#f070d1" stroke="black" cx="1326" cy="-362.157" rx="84.1457" ry="18.3848"/>
<text text-anchor="middle" x="1326" y="-358.557" font-family="Times Roman,serif" font-size="14.00">morphism_rect</text>
</a>
</g>
<!-- CoreParts_LaxCommaCategoryParts_morphism_rec&#45;&gt;CoreParts_LaxCommaCategoryParts_morphism_rect -->
<g id="edge20" class="edge"><title>CoreParts_LaxCommaCategoryParts_morphism_rec&#45;&gt;CoreParts_LaxCommaCategoryParts_morphism_rect</title>
<path fill="none" stroke="black" d="M1326,-595.312C1326,-546.115 1326,-441.91 1326,-391.156"/>
<polygon fill="black" stroke="black" points="1329.5,-390.89 1326,-380.89 1322.5,-390.89 1329.5,-390.89"/>
</g>
<!-- CoreParts_LaxCommaCategoryParts_morphism_ind -->
<g id="node11" class="node"><title>CoreParts_LaxCommaCategoryParts_morphism_ind</title>
<a xlink:href="CoreParts.html#LaxCommaCategoryParts.morphism_ind" xlink:title="morphism_ind">
<ellipse fill="#7fffd4" stroke="black" cx="1132" cy="-622.157" rx="79.9031" ry="18.3848"/>
<ellipse fill="none" stroke="black" cx="1132" cy="-622.157" rx="83.9031" ry="22.3848"/>
<ellipse fill="none" stroke="black" cx="1132" cy="-622.157" rx="87.9031" ry="26.3848"/>
<text text-anchor="middle" x="1132" y="-618.557" font-family="Times Roman,serif" font-size="14.00">morphism_ind</text>
</a>
</g>
<!-- CoreParts_LaxCommaCategoryParts_morphism_ind&#45;&gt;CoreParts_LaxCommaCategoryParts_morphism_rect -->
<g id="edge22" class="edge"><title>CoreParts_LaxCommaCategoryParts_morphism_ind&#45;&gt;CoreParts_LaxCommaCategoryParts_morphism_rect</title>
<path fill="none" stroke="black" d="M1151.31,-596.277C1188.27,-546.737 1268.68,-438.981 1306.1,-388.828"/>
<polygon fill="black" stroke="black" points="1308.97,-390.833 1312.15,-380.725 1303.36,-386.647 1308.97,-390.833"/>
</g>
<!-- CoreParts_LaxCommaCategoryParts_morphism_rect&#45;&gt;CoreParts_LaxCommaCategoryParts_Build_morphism -->
<g id="edge24" class="edge"><title>CoreParts_LaxCommaCategoryParts_morphism_rect&#45;&gt;CoreParts_LaxCommaCategoryParts_Build_morphism</title>
<path fill="none" stroke="black" d="M1354.31,-344.656C1422.64,-302.414 1596.63,-194.857 1673.51,-147.334"/>
<polygon fill="black" stroke="black" points="1675.72,-150.08 1682.39,-141.845 1672.04,-144.126 1675.72,-150.08"/>
</g>
<!-- CoreParts_LaxCommaCategoryParts_p -->
<g id="node13" class="node"><title>CoreParts_LaxCommaCategoryParts_p</title>
<a xlink:href="CoreParts.html#LaxCommaCategoryParts.p" xlink:title="p">
<ellipse fill="#f070d1" stroke="black" cx="1987" cy="-883.157" rx="27" ry="18.3848"/>
<ellipse fill="none" stroke="black" cx="1987" cy="-883.157" rx="31" ry="22.3848"/>
<ellipse fill="none" stroke="black" cx="1987" cy="-883.157" rx="35" ry="26.3848"/>
<text text-anchor="middle" x="1987" y="-879.557" font-family="Times Roman,serif" font-size="14.00">p</text>
</a>
</g>
<!-- CoreParts_LaxCommaCategoryParts_h -->
<g id="node14" class="node"><title>CoreParts_LaxCommaCategoryParts_h</title>
<a xlink:href="CoreParts.html#LaxCommaCategoryParts.h" xlink:title="h">
<ellipse fill="#f070d1" stroke="black" cx="1899" cy="-883.157" rx="27" ry="18.3848"/>
<ellipse fill="none" stroke="black" cx="1899" cy="-883.157" rx="31" ry="22.3848"/>
<ellipse fill="none" stroke="black" cx="1899" cy="-883.157" rx="35" ry="26.3848"/>
<text text-anchor="middle" x="1899" y="-879.557" font-family="Times Roman,serif" font-size="14.00">h</text>
</a>
</g>
<!-- CoreParts_LaxCommaCategoryParts_g -->
<g id="node15" class="node"><title>CoreParts_LaxCommaCategoryParts_g</title>
<a xlink:href="CoreParts.html#LaxCommaCategoryParts.g" xlink:title="g">
<ellipse fill="#f070d1" stroke="black" cx="1811" cy="-883.157" rx="27" ry="18.3848"/>
<ellipse fill="none" stroke="black" cx="1811" cy="-883.157" rx="31" ry="22.3848"/>
<ellipse fill="none" stroke="black" cx="1811" cy="-883.157" rx="35" ry="26.3848"/>
<text text-anchor="middle" x="1811" y="-879.557" font-family="Times Roman,serif" font-size="14.00">g</text>
</a>
</g>
<!-- CoreParts_LaxCommaCategoryParts_morphism -->
<g id="node17" class="node"><title>CoreParts_LaxCommaCategoryParts_morphism</title>
<a xlink:href="CoreParts.html#LaxCommaCategoryParts.morphism" xlink:title="morphism">
<ellipse fill="#e2cdfa" stroke="black" cx="1691" cy="-883.157" rx="58.957" ry="18.3848"/>
<ellipse fill="none" stroke="black" cx="1691" cy="-883.157" rx="62.9274" ry="22.3848"/>
<ellipse fill="none" stroke="black" cx="1691" cy="-883.157" rx="66.8977" ry="26.3848"/>
<text text-anchor="middle" x="1691" y="-879.557" font-family="Times Roman,serif" font-size="14.00">morphism</text>
</a>
</g>
<!-- CoreParts_LaxCommaCategoryParts_ap_b_path_object -->
<g id="node18" class="node"><title>CoreParts_LaxCommaCategoryParts_ap_b_path_object</title>
<a xlink:href="CoreParts.html#LaxCommaCategoryParts.ap_b_path_object" xlink:title="ap_b_path_object">
<ellipse fill="#facdef" stroke="black" cx="1501" cy="-883.157" rx="96.8736" ry="18.3848"/>
<ellipse fill="none" stroke="black" cx="1501" cy="-883.157" rx="100.874" ry="22.3848"/>
<ellipse fill="none" stroke="black" cx="1501" cy="-883.157" rx="104.874" ry="26.3848"/>
<text text-anchor="middle" x="1501" y="-879.557" font-family="Times Roman,serif" font-size="14.00">ap_b_path_object</text>
</a>
</g>
<!-- CoreParts_LaxCommaCategoryParts_path_object -->
<g id="node21" class="node"><title>CoreParts_LaxCommaCategoryParts_path_object</title>
<a xlink:href="CoreParts.html#LaxCommaCategoryParts.path_object" xlink:title="path_object">
<ellipse fill="#f070d1" stroke="black" cx="958" cy="-622.157" rx="68.0887" ry="18.3848"/>
<text text-anchor="middle" x="958" y="-618.557" font-family="Times Roman,serif" font-size="14.00">path_object</text>
</a>
</g>
<!-- CoreParts_LaxCommaCategoryParts_ap_b_path_object&#45;&gt;CoreParts_LaxCommaCategoryParts_path_object -->
<g id="edge26" class="edge"><title>CoreParts_LaxCommaCategoryParts_ap_b_path_object&#45;&gt;CoreParts_LaxCommaCategoryParts_path_object</title>
<path fill="none" stroke="black" d="M1451.85,-859.535C1346.52,-808.904 1100.51,-690.654 1000.95,-642.803"/>
<polygon fill="black" stroke="black" points="1002.32,-639.575 991.787,-638.397 999.283,-645.884 1002.32,-639.575"/>
</g>
<!-- CoreParts_LaxCommaCategoryParts_ap_a_path_object -->
<g id="node19" class="node"><title>CoreParts_LaxCommaCategoryParts_ap_a_path_object</title>
<a xlink:href="CoreParts.html#LaxCommaCategoryParts.ap_a_path_object" xlink:title="ap_a_path_object">
<ellipse fill="#facdef" stroke="black" cx="1273" cy="-883.157" rx="96.8736" ry="18.3848"/>
<ellipse fill="none" stroke="black" cx="1273" cy="-883.157" rx="100.874" ry="22.3848"/>
<ellipse fill="none" stroke="black" cx="1273" cy="-883.157" rx="104.874" ry="26.3848"/>
<text text-anchor="middle" x="1273" y="-879.557" font-family="Times Roman,serif" font-size="14.00">ap_a_path_object</text>
</a>
</g>
<!-- CoreParts_LaxCommaCategoryParts_ap_a_path_object&#45;&gt;CoreParts_LaxCommaCategoryParts_path_object -->
<g id="edge28" class="edge"><title>CoreParts_LaxCommaCategoryParts_ap_a_path_object&#45;&gt;CoreParts_LaxCommaCategoryParts_path_object</title>
<path fill="none" stroke="black" d="M1242.22,-857.656C1181.45,-807.305 1046.8,-695.736 987.275,-646.413"/>
<polygon fill="black" stroke="black" points="989.322,-643.564 979.389,-639.879 984.856,-648.955 989.322,-643.564"/>
</g>
<!-- CoreParts_LaxCommaCategoryParts_path_object_uncurried -->
<g id="node20" class="node"><title>CoreParts_LaxCommaCategoryParts_path_object_uncurried</title>
<a xlink:href="CoreParts.html#LaxCommaCategoryParts.path_object_uncurried" xlink:title="path_object_uncurried">
<ellipse fill="#f070d1" stroke="black" cx="1022" cy="-883.157" rx="120.208" ry="18.3848"/>
<ellipse fill="none" stroke="black" cx="1022" cy="-883.157" rx="124.208" ry="22.3848"/>
<ellipse fill="none" stroke="black" cx="1022" cy="-883.157" rx="128.208" ry="26.3848"/>
<text text-anchor="middle" x="1022" y="-879.557" font-family="Times Roman,serif" font-size="14.00">path_object_uncurried</text>
</a>
</g>
<!-- CoreParts_LaxCommaCategoryParts_path_object_uncurried&#45;&gt;CoreParts_LaxCommaCategoryParts_path_object -->
<g id="edge30" class="edge"><title>CoreParts_LaxCommaCategoryParts_path_object_uncurried&#45;&gt;CoreParts_LaxCommaCategoryParts_path_object</title>
<path fill="none" stroke="black" d="M1015.39,-856.208C1003.23,-806.597 977.397,-701.262 964.968,-650.574"/>
<polygon fill="black" stroke="black" points="968.31,-649.506 962.529,-640.627 961.511,-651.173 968.31,-649.506"/>
</g>
<!-- CoreParts_LaxCommaCategoryParts_Build_object -->
<g id="node30" class="node"><title>CoreParts_LaxCommaCategoryParts_Build_object</title>
<a xlink:href="CoreParts.html#LaxCommaCategoryParts.Build_object" xlink:title="Build_object">
<ellipse fill="#7faaff" stroke="black" cx="796" cy="-362.157" rx="70.2092" ry="18.3848"/>
<text text-anchor="middle" x="796" y="-358.557" font-family="Times Roman,serif" font-size="14.00">Build_object</text>
</a>
</g>
<!-- CoreParts_LaxCommaCategoryParts_path_object&#45;&gt;CoreParts_LaxCommaCategoryParts_Build_object -->
<g id="edge32" class="edge"><title>CoreParts_LaxCommaCategoryParts_path_object&#45;&gt;CoreParts_LaxCommaCategoryParts_Build_object</title>
<path fill="none" stroke="black" d="M946.608,-603.874C918.491,-558.747 845.683,-441.895 812.689,-388.942"/>
<polygon fill="black" stroke="black" points="815.638,-387.056 807.379,-380.419 809.697,-390.758 815.638,-387.056"/>
</g>
<!-- CoreParts_LaxCommaCategoryParts_trunc_object -->
<g id="node22" class="node"><title>CoreParts_LaxCommaCategoryParts_trunc_object</title>
<a xlink:href="CoreParts.html#LaxCommaCategoryParts.trunc_object" xlink:title="trunc_object">
<ellipse fill="#facdef" stroke="black" cx="796" cy="-883.157" rx="72.1249" ry="18.3848"/>
<ellipse fill="none" stroke="black" cx="796" cy="-883.157" rx="76.1249" ry="22.3848"/>
<ellipse fill="none" stroke="black" cx="796" cy="-883.157" rx="80.1249" ry="26.3848"/>
<text text-anchor="middle" x="796" y="-879.557" font-family="Times Roman,serif" font-size="14.00">trunc_object</text>
</a>
</g>
<!-- CoreParts_LaxCommaCategoryParts_issig_object -->
<g id="node23" class="node"><title>CoreParts_LaxCommaCategoryParts_issig_object</title>
<a xlink:href="CoreParts.html#LaxCommaCategoryParts.issig_object" xlink:title="issig_object">
<ellipse fill="#f070d1" stroke="black" cx="796" cy="-622.157" rx="67.1751" ry="18.3848"/>
<text text-anchor="middle" x="796" y="-618.557" font-family="Times Roman,serif" font-size="14.00">issig_object</text>
</a>
</g>
<!-- CoreParts_LaxCommaCategoryParts_trunc_object&#45;&gt;CoreParts_LaxCommaCategoryParts_issig_object -->
<g id="edge34" class="edge"><title>CoreParts_LaxCommaCategoryParts_trunc_object&#45;&gt;CoreParts_LaxCommaCategoryParts_issig_object</title>
<path fill="none" stroke="black" d="M796,-856.208C796,-806.823 796,-702.217 796,-651.267"/>
<polygon fill="black" stroke="black" points="799.5,-650.962 796,-640.962 792.5,-650.962 799.5,-650.962"/>
</g>
<!-- CoreParts_LaxCommaCategoryParts_issig_object&#45;&gt;CoreParts_LaxCommaCategoryParts_Build_object -->
<g id="edge36" class="edge"><title>CoreParts_LaxCommaCategoryParts_issig_object&#45;&gt;CoreParts_LaxCommaCategoryParts_Build_object</title>
<path fill="none" stroke="black" d="M796,-603.458C796,-558.578 796,-444.516 796,-390.871"/>
<polygon fill="black" stroke="black" points="799.5,-390.686 796,-380.686 792.5,-390.686 799.5,-390.686"/>
</g>
<!-- CoreParts_LaxCommaCategoryParts_object_rec -->
<g id="node24" class="node"><title>CoreParts_LaxCommaCategoryParts_object_rec</title>
<a xlink:href="CoreParts.html#LaxCommaCategoryParts.object_rec" xlink:title="object_rec">
<ellipse fill="#f070d1" stroke="black" cx="629" cy="-883.157" rx="60.8112" ry="18.3848"/>
<ellipse fill="none" stroke="black" cx="629" cy="-883.157" rx="64.8112" ry="22.3848"/>
<ellipse fill="none" stroke="black" cx="629" cy="-883.157" rx="68.8112" ry="26.3848"/>
<text text-anchor="middle" x="629" y="-879.557" font-family="Times Roman,serif" font-size="14.00">object_rec</text>
</a>
</g>
<!-- CoreParts_LaxCommaCategoryParts_object_rect -->
<g id="node26" class="node"><title>CoreParts_LaxCommaCategoryParts_object_rect</title>
<a xlink:href="CoreParts.html#LaxCommaCategoryParts.object_rect" xlink:title="object_rect">
<ellipse fill="#f070d1" stroke="black" cx="629" cy="-622.157" rx="65.0538" ry="18.3848"/>
<text text-anchor="middle" x="629" y="-618.557" font-family="Times Roman,serif" font-size="14.00">object_rect</text>
</a>
</g>
<!-- CoreParts_LaxCommaCategoryParts_object_rec&#45;&gt;CoreParts_LaxCommaCategoryParts_object_rect -->
<g id="edge38" class="edge"><title>CoreParts_LaxCommaCategoryParts_object_rec&#45;&gt;CoreParts_LaxCommaCategoryParts_object_rect</title>
<path fill="none" stroke="black" d="M629,-856.208C629,-806.823 629,-702.217 629,-651.267"/>
<polygon fill="black" stroke="black" points="632.5,-650.962 629,-640.962 625.5,-650.962 632.5,-650.962"/>
</g>
<!-- CoreParts_LaxCommaCategoryParts_object_ind -->
<g id="node25" class="node"><title>CoreParts_LaxCommaCategoryParts_object_ind</title>
<a xlink:href="CoreParts.html#LaxCommaCategoryParts.object_ind" xlink:title="object_ind">
<ellipse fill="#7fffd4" stroke="black" cx="473" cy="-883.157" rx="60.8112" ry="18.3848"/>
<ellipse fill="none" stroke="black" cx="473" cy="-883.157" rx="64.8112" ry="22.3848"/>
<ellipse fill="none" stroke="black" cx="473" cy="-883.157" rx="68.8112" ry="26.3848"/>
<text text-anchor="middle" x="473" y="-879.557" font-family="Times Roman,serif" font-size="14.00">object_ind</text>
</a>
</g>
<!-- CoreParts_LaxCommaCategoryParts_object_ind&#45;&gt;CoreParts_LaxCommaCategoryParts_object_rect -->
<g id="edge40" class="edge"><title>CoreParts_LaxCommaCategoryParts_object_ind&#45;&gt;CoreParts_LaxCommaCategoryParts_object_rect</title>
<path fill="none" stroke="black" d="M488.528,-857.177C518.202,-807.531 582.687,-699.642 612.844,-649.187"/>
<polygon fill="black" stroke="black" points="615.933,-650.841 618.059,-640.461 609.925,-647.249 615.933,-650.841"/>
</g>
<!-- CoreParts_LaxCommaCategoryParts_object_rect&#45;&gt;CoreParts_LaxCommaCategoryParts_Build_object -->
<g id="edge42" class="edge"><title>CoreParts_LaxCommaCategoryParts_object_rect&#45;&gt;CoreParts_LaxCommaCategoryParts_Build_object</title>
<path fill="none" stroke="black" d="M640.743,-603.874C669.729,-558.747 744.784,-441.895 778.796,-388.942"/>
<polygon fill="black" stroke="black" points="781.81,-390.725 784.27,-380.419 775.921,-386.942 781.81,-390.725"/>
</g>
<!-- CoreParts_LaxCommaCategoryParts_f -->
<g id="node27" class="node"><title>CoreParts_LaxCommaCategoryParts_f</title>
<a xlink:href="CoreParts.html#LaxCommaCategoryParts.f" xlink:title="f">
<ellipse fill="#f070d1" stroke="black" cx="351" cy="-883.157" rx="27" ry="18.3848"/>
<ellipse fill="none" stroke="black" cx="351" cy="-883.157" rx="31" ry="22.3848"/>
<ellipse fill="none" stroke="black" cx="351" cy="-883.157" rx="35" ry="26.3848"/>
<text text-anchor="middle" x="351" y="-879.557" font-family="Times Roman,serif" font-size="14.00">f</text>
</a>
</g>
<!-- CoreParts_LaxCommaCategoryParts_b -->
<g id="node28" class="node"><title>CoreParts_LaxCommaCategoryParts_b</title>
<a xlink:href="CoreParts.html#LaxCommaCategoryParts.b" xlink:title="b">
<ellipse fill="#f070d1" stroke="black" cx="263" cy="-883.157" rx="27" ry="18.3848"/>
<ellipse fill="none" stroke="black" cx="263" cy="-883.157" rx="31" ry="22.3848"/>
<ellipse fill="none" stroke="black" cx="263" cy="-883.157" rx="35" ry="26.3848"/>
<text text-anchor="middle" x="263" y="-879.557" font-family="Times Roman,serif" font-size="14.00">b</text>
</a>
</g>
<!-- CoreParts_LaxCommaCategoryParts_a -->
<g id="node29" class="node"><title>CoreParts_LaxCommaCategoryParts_a</title>
<a xlink:href="CoreParts.html#LaxCommaCategoryParts.a" xlink:title="a">
<ellipse fill="#f070d1" stroke="black" cx="175" cy="-883.157" rx="27" ry="18.3848"/>
<ellipse fill="none" stroke="black" cx="175" cy="-883.157" rx="31" ry="22.3848"/>
<ellipse fill="none" stroke="black" cx="175" cy="-883.157" rx="35" ry="26.3848"/>
<text text-anchor="middle" x="175" y="-879.557" font-family="Times Roman,serif" font-size="14.00">a</text>
</a>
</g>
<!-- CoreParts_LaxCommaCategoryParts_object -->
<g id="node31" class="node"><title>CoreParts_LaxCommaCategoryParts_object</title>
<a xlink:href="CoreParts.html#LaxCommaCategoryParts.object" xlink:title="object">
<ellipse fill="#e2cdfa" stroke="black" cx="73" cy="-883.157" rx="41.0122" ry="18.3848"/>
<ellipse fill="none" stroke="black" cx="73" cy="-883.157" rx="45.0122" ry="22.3848"/>
<ellipse fill="none" stroke="black" cx="73" cy="-883.157" rx="49.0122" ry="26.3848"/>
<text text-anchor="middle" x="73" y="-879.557" font-family="Times Roman,serif" font-size="14.00">object</text>
</a>
</g>
</g>
</svg>
