<?xml version="1.0" encoding="UTF-8" standalone="no"?>
<!DOCTYPE svg PUBLIC "-//W3C//DTD SVG 1.1//EN"
 "http://www.w3.org/Graphics/SVG/1.1/DTD/svg11.dtd">
<!-- Generated by graphviz version 2.39.20141222.0545 (20141222.0545)
 -->
<!-- Title: HoTT_Types_Arrow Pages: 1 -->
<svg width="3857pt" height="1933pt"
 viewBox="0.00 0.00 3857.00 1932.50" xmlns="http://www.w3.org/2000/svg" xmlns:xlink="http://www.w3.org/1999/xlink">
<g id="graph0" class="graph" transform="scale(1 1) rotate(0) translate(4 1928.5)">
<title>HoTT_Types_Arrow</title>
<polygon fill="white" stroke="transparent" points="-4,4 -4,-1928.5 3853,-1928.5 3853,4 -4,4"/>
<g id="clust1" class="cluster"><title>cluster_Arrow</title>
<polygon fill="#ffffc3" stroke="black" points="8,-61.3386 8,-1863.16 3841,-1863.16 3841,-61.3386 8,-61.3386"/>
<text text-anchor="middle" x="34" y="-1847.96" font-family="Times,serif" font-size="14.00">Arrow</text>
</g>
<!-- Arrow_equiv_functor_arrow_ -->
<g id="node1" class="node"><title>Arrow_equiv_functor_arrow_</title>
<g id="a_node1"><a xlink:href="Arrow.html#equiv_functor_arrow'" xlink:title="equiv_functor_arrow&#39;">
<ellipse fill="#f070d1" stroke="black" cx="3739" cy="-1426.34" rx="86.3896" ry="18"/>
<ellipse fill="none" stroke="black" cx="3739" cy="-1426.34" rx="90.3871" ry="22"/>
<ellipse fill="none" stroke="black" cx="3739" cy="-1426.34" rx="94.3847" ry="26"/>
<text text-anchor="middle" x="3739" y="-1422.64" font-family="Times,serif" font-size="14.00">equiv_functor_arrow&#39;</text>
</a>
</g>
</g>
<!-- Arrow_equiv_functor_arrow -->
<g id="node2" class="node"><title>Arrow_equiv_functor_arrow</title>
<g id="a_node2"><a xlink:href="Arrow.html#equiv_functor_arrow" xlink:title="equiv_functor_arrow">
<ellipse fill="#f070d1" stroke="black" cx="3533" cy="-1426.34" rx="85.2729" ry="18"/>
<ellipse fill="none" stroke="black" cx="3533" cy="-1426.34" rx="89.279" ry="22"/>
<ellipse fill="none" stroke="black" cx="3533" cy="-1426.34" rx="93.2851" ry="26"/>
<text text-anchor="middle" x="3533" y="-1422.64" font-family="Times,serif" font-size="14.00">equiv_functor_arrow</text>
</a>
</g>
</g>
<!-- Arrow_isequiv_functor_arrow -->
<g id="node3" class="node"><title>Arrow_isequiv_functor_arrow</title>
<g id="a_node3"><a xlink:href="Arrow.html#isequiv_functor_arrow" xlink:title="isequiv_functor_arrow">
<ellipse fill="#f070d1" stroke="black" cx="3323" cy="-1426.34" rx="90.9845" ry="18"/>
<ellipse fill="none" stroke="black" cx="3323" cy="-1426.34" rx="94.9842" ry="22"/>
<ellipse fill="none" stroke="black" cx="3323" cy="-1426.34" rx="98.9839" ry="26"/>
<text text-anchor="middle" x="3323" y="-1422.64" font-family="Times,serif" font-size="14.00">isequiv_functor_arrow</text>
</a>
</g>
</g>
<!-- Arrow_trunc_arrow -->
<g id="node4" class="node"><title>Arrow_trunc_arrow</title>
<g id="a_node4"><a xlink:href="Arrow.html#trunc_arrow" xlink:title="trunc_arrow">
<ellipse fill="#f070d1" stroke="black" cx="3144" cy="-1426.34" rx="53.8975" ry="18"/>
<ellipse fill="none" stroke="black" cx="3144" cy="-1426.34" rx="57.894" ry="22"/>
<ellipse fill="none" stroke="black" cx="3144" cy="-1426.34" rx="61.8905" ry="26"/>
<text text-anchor="middle" x="3144" y="-1422.64" font-family="Times,serif" font-size="14.00">trunc_arrow</text>
</a>
</g>
</g>
<!-- Arrow_contr_arrow -->
<g id="node5" class="node"><title>Arrow_contr_arrow</title>
<g id="a_node5"><a xlink:href="Arrow.html#contr_arrow" xlink:title="contr_arrow">
<ellipse fill="#f070d1" stroke="black" cx="3002" cy="-1426.34" rx="53.8975" ry="18"/>
<ellipse fill="none" stroke="black" cx="3002" cy="-1426.34" rx="57.894" ry="22"/>
<ellipse fill="none" stroke="black" cx="3002" cy="-1426.34" rx="61.8905" ry="26"/>
<text text-anchor="middle" x="3002" y="-1422.64" font-family="Times,serif" font-size="14.00">contr_arrow</text>
</a>
</g>
</g>
<!-- Arrow_ap_functor_arrow -->
<g id="node6" class="node"><title>Arrow_ap_functor_arrow</title>
<g id="a_node6"><a xlink:href="Arrow.html#ap_functor_arrow" xlink:title="ap_functor_arrow">
<ellipse fill="#f070d1" stroke="black" cx="2841" cy="-1426.34" rx="73.3926" ry="18"/>
<ellipse fill="none" stroke="black" cx="2841" cy="-1426.34" rx="77.3898" ry="22"/>
<ellipse fill="none" stroke="black" cx="2841" cy="-1426.34" rx="81.387" ry="26"/>
<text text-anchor="middle" x="2841" y="-1422.64" font-family="Times,serif" font-size="14.00">ap_functor_arrow</text>
</a>
</g>
</g>
<!-- Arrow_functor_arrow -->
<g id="node7" class="node"><title>Arrow_functor_arrow</title>
<g id="a_node7"><a xlink:href="Arrow.html#functor_arrow" xlink:title="functor_arrow">
<ellipse fill="#f070d1" stroke="black" cx="2672" cy="-1426.34" rx="61.1783" ry="18"/>
<ellipse fill="none" stroke="black" cx="2672" cy="-1426.34" rx="65.1838" ry="22"/>
<ellipse fill="none" stroke="black" cx="2672" cy="-1426.34" rx="69.1893" ry="26"/>
<text text-anchor="middle" x="2672" y="-1422.64" font-family="Times,serif" font-size="14.00">functor_arrow</text>
</a>
</g>
</g>
<!-- Arrow_ap_lambda -->
<g id="node8" class="node"><title>Arrow_ap_lambda</title>
<g id="a_node8"><a xlink:href="Arrow.html#ap_lambda" xlink:title="ap_lambda">
<ellipse fill="#f070d1" stroke="black" cx="2527" cy="-1426.34" rx="50.0849" ry="18"/>
<ellipse fill="none" stroke="black" cx="2527" cy="-1426.34" rx="54.088" ry="22"/>
<ellipse fill="none" stroke="black" cx="2527" cy="-1426.34" rx="58.0912" ry="26"/>
<text text-anchor="middle" x="2527" y="-1422.64" font-family="Times,serif" font-size="14.00">ap_lambda</text>
</a>
</g>
</g>
<!-- Arrow_path_arrow_1 -->
<g id="node23" class="node"><title>Arrow_path_arrow_1</title>
<g id="a_node23"><a xlink:href="Arrow.html#path_arrow_1" xlink:title="path_arrow_1">
<ellipse fill="#f070d1" stroke="black" cx="2463" cy="-812.339" rx="59.5901" ry="18"/>
<text text-anchor="middle" x="2463" y="-808.639" font-family="Times,serif" font-size="14.00">path_arrow_1</text>
</a>
</g>
</g>
<!-- Arrow_ap_lambda&#45;&gt;Arrow_path_arrow_1 -->
<g id="edge1" class="edge"><title>Arrow_ap_lambda&#45;&gt;Arrow_path_arrow_1</title>
<path fill="none" stroke="black" d="M2524.29,-1400.35C2513.9,-1300.7 2476.67,-943.502 2465.92,-840.391"/>
<polygon fill="black" stroke="black" points="2469.4,-840.004 2464.88,-830.421 2462.44,-840.73 2469.4,-840.004"/>
</g>
<!-- Arrow_path_arrow -->
<g id="node28" class="node"><title>Arrow_path_arrow</title>
<g id="a_node28"><a xlink:href="Arrow.html#path_arrow" xlink:title="path_arrow">
<ellipse fill="#f070d1" stroke="black" cx="2591" cy="-812.339" rx="50.8918" ry="18"/>
<text text-anchor="middle" x="2591" y="-808.639" font-family="Times,serif" font-size="14.00">path_arrow</text>
</a>
</g>
</g>
<!-- Arrow_ap_lambda&#45;&gt;Arrow_path_arrow -->
<g id="edge2" class="edge"><title>Arrow_ap_lambda&#45;&gt;Arrow_path_arrow</title>
<path fill="none" stroke="black" d="M2529.71,-1400.35C2540.1,-1300.7 2577.33,-943.502 2588.08,-840.391"/>
<polygon fill="black" stroke="black" points="2591.56,-840.73 2589.12,-830.421 2584.6,-840.004 2591.56,-840.73"/>
</g>
<!-- Arrow_ap_apply_FlFr -->
<g id="node9" class="node"><title>Arrow_ap_apply_FlFr</title>
<g id="a_node9"><a xlink:href="Arrow.html#ap_apply_FlFr" xlink:title="ap_apply_FlFr">
<ellipse fill="#f070d1" stroke="black" cx="2381" cy="-1426.34" rx="62.3011" ry="18"/>
<ellipse fill="none" stroke="black" cx="2381" cy="-1426.34" rx="66.2951" ry="22"/>
<ellipse fill="none" stroke="black" cx="2381" cy="-1426.34" rx="70.2891" ry="26"/>
<text text-anchor="middle" x="2381" y="-1422.64" font-family="Times,serif" font-size="14.00">ap_apply_FlFr</text>
</a>
</g>
</g>
<!-- Arrow_ap_apply_Fr -->
<g id="node10" class="node"><title>Arrow_ap_apply_Fr</title>
<g id="a_node10"><a xlink:href="Arrow.html#ap_apply_Fr" xlink:title="ap_apply_Fr">
<ellipse fill="#f070d1" stroke="black" cx="2229" cy="-1426.34" rx="55.46" ry="18"/>
<ellipse fill="none" stroke="black" cx="2229" cy="-1426.34" rx="59.4756" ry="22"/>
<ellipse fill="none" stroke="black" cx="2229" cy="-1426.34" rx="63.4911" ry="26"/>
<text text-anchor="middle" x="2229" y="-1422.64" font-family="Times,serif" font-size="14.00">ap_apply_Fr</text>
</a>
</g>
</g>
<!-- Arrow_ap_apply_Fl -->
<g id="node11" class="node"><title>Arrow_ap_apply_Fl</title>
<g id="a_node11"><a xlink:href="Arrow.html#ap_apply_Fl" xlink:title="ap_apply_Fl">
<ellipse fill="#f070d1" stroke="black" cx="2085" cy="-1426.34" rx="54.6783" ry="18"/>
<ellipse fill="none" stroke="black" cx="2085" cy="-1426.34" rx="58.6844" ry="22"/>
<ellipse fill="none" stroke="black" cx="2085" cy="-1426.34" rx="62.6905" ry="26"/>
<text text-anchor="middle" x="2085" y="-1422.64" font-family="Times,serif" font-size="14.00">ap_apply_Fl</text>
</a>
</g>
</g>
<!-- Arrow_ap_apply_l -->
<g id="node12" class="node"><title>Arrow_ap_apply_l</title>
<g id="a_node12"><a xlink:href="Arrow.html#ap_apply_l" xlink:title="ap_apply_l">
<ellipse fill="#f070d1" stroke="black" cx="1946" cy="-1426.34" rx="50.0849" ry="18"/>
<ellipse fill="none" stroke="black" cx="1946" cy="-1426.34" rx="54.088" ry="22"/>
<ellipse fill="none" stroke="black" cx="1946" cy="-1426.34" rx="58.0912" ry="26"/>
<text text-anchor="middle" x="1946" y="-1422.64" font-family="Times,serif" font-size="14.00">ap_apply_l</text>
</a>
</g>
</g>
<!-- Arrow_ap10_dpath_arrow -->
<g id="node13" class="node"><title>Arrow_ap10_dpath_arrow</title>
<g id="a_node13"><a xlink:href="Arrow.html#ap10_dpath_arrow" xlink:title="ap10_dpath_arrow">
<ellipse fill="#f070d1" stroke="black" cx="1785" cy="-1426.34" rx="76.8685" ry="18"/>
<ellipse fill="none" stroke="black" cx="1785" cy="-1426.34" rx="80.8777" ry="22"/>
<ellipse fill="none" stroke="black" cx="1785" cy="-1426.34" rx="84.8868" ry="26"/>
<text text-anchor="middle" x="1785" y="-1422.64" font-family="Times,serif" font-size="14.00">ap10_dpath_arrow</text>
</a>
</g>
</g>
<!-- Arrow_transport_arrow -->
<g id="node18" class="node"><title>Arrow_transport_arrow</title>
<g id="a_node18"><a xlink:href="Arrow.html#transport_arrow" xlink:title="transport_arrow">
<ellipse fill="#f070d1" stroke="black" cx="1785" cy="-812.339" rx="66.8882" ry="18"/>
<text text-anchor="middle" x="1785" y="-808.639" font-family="Times,serif" font-size="14.00">transport_arrow</text>
</a>
</g>
</g>
<!-- Arrow_ap10_dpath_arrow&#45;&gt;Arrow_transport_arrow -->
<g id="edge3" class="edge"><title>Arrow_ap10_dpath_arrow&#45;&gt;Arrow_transport_arrow</title>
<path fill="none" stroke="black" d="M1785,-1399.96C1785,-1299.85 1785,-943.951 1785,-840.644"/>
<polygon fill="black" stroke="black" points="1788.5,-840.382 1785,-830.382 1781.5,-840.382 1788.5,-840.382"/>
</g>
<!-- Arrow_dpath_arrow -->
<g id="node14" class="node"><title>Arrow_dpath_arrow</title>
<g id="a_node14"><a xlink:href="Arrow.html#dpath_arrow" xlink:title="dpath_arrow">
<ellipse fill="#f070d1" stroke="black" cx="1619" cy="-1426.34" rx="55.46" ry="18"/>
<ellipse fill="none" stroke="black" cx="1619" cy="-1426.34" rx="59.4756" ry="22"/>
<ellipse fill="none" stroke="black" cx="1619" cy="-1426.34" rx="63.4911" ry="26"/>
<text text-anchor="middle" x="1619" y="-1422.64" font-family="Times,serif" font-size="14.00">dpath_arrow</text>
</a>
</g>
</g>
<!-- Arrow_equiv_path_arrow -->
<g id="node20" class="node"><title>Arrow_equiv_path_arrow</title>
<g id="a_node20"><a xlink:href="Arrow.html#equiv_path_arrow" xlink:title="equiv_path_arrow">
<ellipse fill="#f070d1" stroke="black" cx="1619" cy="-812.339" rx="74.9875" ry="18"/>
<text text-anchor="middle" x="1619" y="-808.639" font-family="Times,serif" font-size="14.00">equiv_path_arrow</text>
</a>
</g>
</g>
<!-- Arrow_dpath_arrow&#45;&gt;Arrow_equiv_path_arrow -->
<g id="edge4" class="edge"><title>Arrow_dpath_arrow&#45;&gt;Arrow_equiv_path_arrow</title>
<path fill="none" stroke="black" d="M1619,-1399.96C1619,-1299.85 1619,-943.951 1619,-840.644"/>
<polygon fill="black" stroke="black" points="1622.5,-840.382 1619,-830.382 1615.5,-840.382 1622.5,-840.382"/>
</g>
<!-- Arrow_ap_transport_arrow_toconst -->
<g id="node15" class="node"><title>Arrow_ap_transport_arrow_toconst</title>
<g id="a_node15"><a xlink:href="Arrow.html#ap_transport_arrow_toconst" xlink:title="ap_transport_arrow_toconst">
<ellipse fill="#f070d1" stroke="black" cx="1421" cy="-1426.34" rx="109.368" ry="18"/>
<ellipse fill="none" stroke="black" cx="1421" cy="-1426.34" rx="113.374" ry="22"/>
<ellipse fill="none" stroke="black" cx="1421" cy="-1426.34" rx="117.381" ry="26"/>
<text text-anchor="middle" x="1421" y="-1422.64" font-family="Times,serif" font-size="14.00">ap_transport_arrow_toconst</text>
</a>
</g>
</g>
<!-- Arrow_transport_arrow_toconst -->
<g id="node17" class="node"><title>Arrow_transport_arrow_toconst</title>
<g id="a_node17"><a xlink:href="Arrow.html#transport_arrow_toconst" xlink:title="transport_arrow_toconst">
<ellipse fill="#f070d1" stroke="black" cx="1421" cy="-812.339" rx="96.6831" ry="18"/>
<text text-anchor="middle" x="1421" y="-808.639" font-family="Times,serif" font-size="14.00">transport_arrow_toconst</text>
</a>
</g>
</g>
<!-- Arrow_ap_transport_arrow_toconst&#45;&gt;Arrow_transport_arrow_toconst -->
<g id="edge5" class="edge"><title>Arrow_ap_transport_arrow_toconst&#45;&gt;Arrow_transport_arrow_toconst</title>
<path fill="none" stroke="black" d="M1421,-1399.96C1421,-1299.85 1421,-943.951 1421,-840.644"/>
<polygon fill="black" stroke="black" points="1424.5,-840.382 1421,-830.382 1417.5,-840.382 1424.5,-840.382"/>
</g>
<!-- Arrow_transport_arrow_fromconst -->
<g id="node16" class="node"><title>Arrow_transport_arrow_fromconst</title>
<g id="a_node16"><a xlink:href="Arrow.html#transport_arrow_fromconst" xlink:title="transport_arrow_fromconst">
<ellipse fill="#f070d1" stroke="black" cx="1171" cy="-1426.34" rx="107.465" ry="18"/>
<ellipse fill="none" stroke="black" cx="1171" cy="-1426.34" rx="111.473" ry="22"/>
<ellipse fill="none" stroke="black" cx="1171" cy="-1426.34" rx="115.481" ry="26"/>
<text text-anchor="middle" x="1171" y="-1422.64" font-family="Times,serif" font-size="14.00">transport_arrow_fromconst</text>
</a>
</g>
</g>
<!-- Arrow_path_arrow_pp -->
<g id="node19" class="node"><title>Arrow_path_arrow_pp</title>
<g id="a_node19"><a xlink:href="Arrow.html#path_arrow_pp" xlink:title="path_arrow_pp">
<ellipse fill="#f070d1" stroke="black" cx="966" cy="-1426.34" rx="63.8675" ry="18"/>
<ellipse fill="none" stroke="black" cx="966" cy="-1426.34" rx="67.8784" ry="22"/>
<ellipse fill="none" stroke="black" cx="966" cy="-1426.34" rx="71.8892" ry="26"/>
<text text-anchor="middle" x="966" y="-1422.64" font-family="Times,serif" font-size="14.00">path_arrow_pp</text>
</a>
</g>
</g>
<!-- Arrow_isequiv_path_arrow -->
<g id="node21" class="node"><title>Arrow_isequiv_path_arrow</title>
<g id="a_node21"><a xlink:href="Arrow.html#isequiv_path_arrow" xlink:title="isequiv_path_arrow">
<ellipse fill="#f070d1" stroke="black" cx="788" cy="-1426.34" rx="80.6774" ry="18"/>
<ellipse fill="none" stroke="black" cx="788" cy="-1426.34" rx="84.6816" ry="22"/>
<ellipse fill="none" stroke="black" cx="788" cy="-1426.34" rx="88.6858" ry="26"/>
<text text-anchor="middle" x="788" y="-1422.64" font-family="Times,serif" font-size="14.00">isequiv_path_arrow</text>
</a>
</g>
</g>
<!-- Arrow_equiv_ap10 -->
<g id="node22" class="node"><title>Arrow_equiv_ap10</title>
<g id="a_node22"><a xlink:href="Arrow.html#equiv_ap10" xlink:title="equiv_ap10">
<ellipse fill="#f070d1" stroke="black" cx="621" cy="-1426.34" rx="51.9914" ry="18"/>
<ellipse fill="none" stroke="black" cx="621" cy="-1426.34" rx="55.9911" ry="22"/>
<ellipse fill="none" stroke="black" cx="621" cy="-1426.34" rx="59.9908" ry="26"/>
<text text-anchor="middle" x="621" y="-1422.64" font-family="Times,serif" font-size="14.00">equiv_ap10</text>
</a>
</g>
</g>
<!-- Arrow_eta_path_arrow -->
<g id="node24" class="node"><title>Arrow_eta_path_arrow</title>
<g id="a_node24"><a xlink:href="Arrow.html#eta_path_arrow" xlink:title="eta_path_arrow">
<ellipse fill="#f070d1" stroke="black" cx="2463" cy="-260.339" rx="65.7887" ry="18"/>
<text text-anchor="middle" x="2463" y="-256.639" font-family="Times,serif" font-size="14.00">eta_path_arrow</text>
</a>
</g>
</g>
<!-- Arrow_path_arrow_1&#45;&gt;Arrow_eta_path_arrow -->
<g id="edge6" class="edge"><title>Arrow_path_arrow_1&#45;&gt;Arrow_eta_path_arrow</title>
<path fill="none" stroke="black" d="M2463,-794.286C2463,-713.784 2463,-387.182 2463,-288.629"/>
<polygon fill="black" stroke="black" points="2466.5,-288.532 2463,-278.532 2459.5,-288.532 2466.5,-288.532"/>
</g>
<!-- Arrow_ap10_path_forall -->
<g id="node25" class="node"><title>Arrow_ap10_path_forall</title>
<g id="a_node25"><a xlink:href="Arrow.html#ap10_path_forall" xlink:title="ap10_path_forall">
<ellipse fill="#f070d1" stroke="black" cx="464" cy="-1426.34" rx="70.7036" ry="18"/>
<ellipse fill="none" stroke="black" cx="464" cy="-1426.34" rx="74.6957" ry="22"/>
<ellipse fill="none" stroke="black" cx="464" cy="-1426.34" rx="78.6877" ry="26"/>
<text text-anchor="middle" x="464" y="-1422.64" font-family="Times,serif" font-size="14.00">ap10_path_forall</text>
</a>
</g>
</g>
<!-- Arrow_apD10_path_arrow -->
<g id="node26" class="node"><title>Arrow_apD10_path_arrow</title>
<g id="a_node26"><a xlink:href="Arrow.html#apD10_path_arrow" xlink:title="apD10_path_arrow">
<ellipse fill="#f070d1" stroke="black" cx="281" cy="-1426.34" rx="78.7731" ry="18"/>
<ellipse fill="none" stroke="black" cx="281" cy="-1426.34" rx="82.7797" ry="22"/>
<ellipse fill="none" stroke="black" cx="281" cy="-1426.34" rx="86.7863" ry="26"/>
<text text-anchor="middle" x="281" y="-1422.64" font-family="Times,serif" font-size="14.00">apD10_path_arrow</text>
</a>
</g>
</g>
<!-- Arrow_ap10_path_arrow -->
<g id="node27" class="node"><title>Arrow_ap10_path_arrow</title>
<g id="a_node27"><a xlink:href="Arrow.html#ap10_path_arrow" xlink:title="ap10_path_arrow">
<ellipse fill="#f070d1" stroke="black" cx="96" cy="-1426.34" rx="72.2731" ry="18"/>
<ellipse fill="none" stroke="black" cx="96" cy="-1426.34" rx="76.2803" ry="22"/>
<ellipse fill="none" stroke="black" cx="96" cy="-1426.34" rx="80.2875" ry="26"/>
<text text-anchor="middle" x="96" y="-1422.64" font-family="Times,serif" font-size="14.00">ap10_path_arrow</text>
</a>
</g>
</g>
</g>
</svg>
