<?xml version="1.0" encoding="UTF-8" standalone="no"?>
<!DOCTYPE svg PUBLIC "-//W3C//DTD SVG 1.1//EN"
 "http://www.w3.org/Graphics/SVG/1.1/DTD/svg11.dtd">
<!-- Generated by graphviz version 2.26.3 (20100126.1600)
 -->
<!-- Title: HoTT_categories_Functor_Prod_Universal Pages: 1 -->
<svg width="676pt" height="342pt"
 viewBox="0.00 0.00 676.00 342.00" xmlns="http://www.w3.org/2000/svg" xmlns:xlink="http://www.w3.org/1999/xlink">
<g id="graph1" class="graph" transform="scale(1 1) rotate(0) translate(4 338)">
<title>HoTT_categories_Functor_Prod_Universal</title>
<polygon fill="white" stroke="white" points="-4,5 -4,-338 673,-338 673,5 -4,5"/>
<g id="graph2" class="cluster"><title>cluster_Universal</title>
<polygon fill="#ffffc3" stroke="black" points="9.54286,-8 9.54286,-326 658.457,-326 658.457,-8 9.54286,-8"/>
<text text-anchor="middle" x="50.0429" y="-309.4" font-family="Times Roman,serif" font-size="14.00">Universal</text>
</g>
<!-- Universal_path_prod -->
<g id="node1" class="node"><title>Universal_path_prod</title>
<a xlink:href="Universal.html#path_prod" xlink:title="path_prod">
<ellipse fill="#f070d1" stroke="black" cx="566.857" cy="-265" rx="60.8112" ry="18.3848"/>
<ellipse fill="none" stroke="black" cx="566.857" cy="-265" rx="64.8112" ry="22.3848"/>
<ellipse fill="none" stroke="black" cx="566.857" cy="-265" rx="68.8112" ry="26.3848"/>
<text text-anchor="middle" x="566.857" y="-261.4" font-family="Times Roman,serif" font-size="14.00">path_prod</text>
</a>
</g>
<!-- Universal_unique -->
<g id="node3" class="node"><title>Universal_unique</title>
<a xlink:href="Universal.html#unique" xlink:title="unique">
<ellipse fill="#f070d1" stroke="black" cx="594.857" cy="-183" rx="44.7575" ry="18.3848"/>
<text text-anchor="middle" x="594.857" y="-179.4" font-family="Times Roman,serif" font-size="14.00">unique</text>
</a>
</g>
<!-- Universal_path_prod&#45;&gt;Universal_unique -->
<g id="edge2" class="edge"><title>Universal_path_prod&#45;&gt;Universal_unique</title>
<path fill="none" stroke="black" d="M575.871,-238.603C578.867,-229.827 582.215,-220.024 585.255,-211.122"/>
<polygon fill="black" stroke="black" points="588.601,-212.152 588.52,-201.557 581.977,-209.89 588.601,-212.152"/>
</g>
<!-- Universal_contr_prod_type -->
<g id="node2" class="node"><title>Universal_contr_prod_type</title>
<a xlink:href="Universal.html#contr_prod_type" xlink:title="contr_prod_type">
<ellipse fill="#facdef" stroke="black" cx="344.857" cy="-265" rx="91.2168" ry="18.3848"/>
<ellipse fill="none" stroke="black" cx="344.857" cy="-265" rx="95.2168" ry="22.3848"/>
<ellipse fill="none" stroke="black" cx="344.857" cy="-265" rx="99.2168" ry="26.3848"/>
<text text-anchor="middle" x="344.857" y="-261.4" font-family="Times Roman,serif" font-size="14.00">contr_prod_type</text>
</a>
</g>
<!-- Universal_contr_prod_type&#45;&gt;Universal_unique -->
<g id="edge4" class="edge"><title>Universal_contr_prod_type&#45;&gt;Universal_unique</title>
<path fill="none" stroke="black" d="M407.62,-244.414C451.888,-229.894 510.139,-210.788 549.836,-197.767"/>
<polygon fill="black" stroke="black" points="551.097,-201.037 559.509,-194.594 548.916,-194.385 551.097,-201.037"/>
</g>
<!-- Universal_compose_snd_prod -->
<g id="node6" class="node"><title>Universal_compose_snd_prod</title>
<a xlink:href="Universal.html#compose_snd_prod" xlink:title="compose_snd_prod">
<ellipse fill="#f070d1" stroke="black" cx="141.857" cy="-183" rx="103.238" ry="18.3848"/>
<text text-anchor="middle" x="141.857" y="-179.4" font-family="Times Roman,serif" font-size="14.00">compose_snd_prod</text>
</a>
</g>
<!-- Universal_contr_prod_type&#45;&gt;Universal_compose_snd_prod -->
<g id="edge6" class="edge"><title>Universal_contr_prod_type&#45;&gt;Universal_compose_snd_prod</title>
<path fill="none" stroke="black" d="M289.922,-242.81C259.832,-230.655 222.77,-215.684 193.253,-203.761"/>
<polygon fill="black" stroke="black" points="194.537,-200.505 183.954,-200.004 191.915,-206.995 194.537,-200.505"/>
</g>
<!-- Universal_compose_fst_prod -->
<g id="node7" class="node"><title>Universal_compose_fst_prod</title>
<a xlink:href="Universal.html#compose_fst_prod" xlink:title="compose_fst_prod">
<ellipse fill="#f070d1" stroke="black" cx="402.857" cy="-183" rx="97.7889" ry="18.3848"/>
<text text-anchor="middle" x="402.857" y="-179.4" font-family="Times Roman,serif" font-size="14.00">compose_fst_prod</text>
</a>
</g>
<!-- Universal_contr_prod_type&#45;&gt;Universal_compose_fst_prod -->
<g id="edge8" class="edge"><title>Universal_contr_prod_type&#45;&gt;Universal_compose_fst_prod</title>
<path fill="none" stroke="black" d="M363.528,-238.603C370.003,-229.45 377.267,-219.179 383.775,-209.979"/>
<polygon fill="black" stroke="black" points="386.814,-211.743 389.731,-201.557 381.099,-207.7 386.814,-211.743"/>
</g>
<!-- Universal_unique_helper2 -->
<g id="node4" class="node"><title>Universal_unique_helper2</title>
<a xlink:href="Universal.html#unique_helper2" xlink:title="unique_helper2">
<ellipse fill="#facdef" stroke="black" cx="544.857" cy="-109" rx="87.1802" ry="18.3848"/>
<text text-anchor="middle" x="544.857" y="-105.4" font-family="Times Roman,serif" font-size="14.00">unique_helper2</text>
</a>
</g>
<!-- Universal_unique&#45;&gt;Universal_unique_helper2 -->
<g id="edge10" class="edge"><title>Universal_unique&#45;&gt;Universal_unique_helper2</title>
<path fill="none" stroke="black" d="M582.754,-165.087C576.868,-156.375 569.668,-145.72 563.131,-136.046"/>
<polygon fill="black" stroke="black" points="565.87,-133.848 557.371,-127.521 560.07,-137.767 565.87,-133.848"/>
</g>
<!-- Universal_unique_helper -->
<g id="node5" class="node"><title>Universal_unique_helper</title>
<a xlink:href="Universal.html#unique_helper" xlink:title="unique_helper">
<ellipse fill="#f070d1" stroke="black" cx="544.857" cy="-35" rx="80.8184" ry="18.3848"/>
<text text-anchor="middle" x="544.857" y="-31.4" font-family="Times Roman,serif" font-size="14.00">unique_helper</text>
</a>
</g>
<!-- Universal_unique_helper2&#45;&gt;Universal_unique_helper -->
<g id="edge12" class="edge"><title>Universal_unique_helper2&#45;&gt;Universal_unique_helper</title>
<path fill="none" stroke="black" d="M544.857,-90.3267C544.857,-82.2639 544.857,-72.6477 544.857,-63.7115"/>
<polygon fill="black" stroke="black" points="548.357,-63.6673 544.857,-53.6674 541.357,-63.6674 548.357,-63.6673"/>
</g>
</g>
</svg>
