<?xml version="1.0" encoding="UTF-8" standalone="no"?>
<!DOCTYPE svg PUBLIC "-//W3C//DTD SVG 1.1//EN"
 "http://www.w3.org/Graphics/SVG/1.1/DTD/svg11.dtd">
<!-- Generated by graphviz version 2.26.3 (20100126.1600)
 -->
<!-- Title: HoTT_categories_ExponentialLaws_Law2 Pages: 1 -->
<svg width="1086pt" height="547pt"
 viewBox="0.00 0.00 1086.00 547.00" xmlns="http://www.w3.org/2000/svg" xmlns:xlink="http://www.w3.org/1999/xlink">
<g id="graph1" class="graph" transform="scale(1 1) rotate(0) translate(4 543)">
<title>HoTT_categories_ExponentialLaws_Law2</title>
<polygon fill="white" stroke="white" points="-4,5 -4,-543 1083,-543 1083,5 -4,5"/>
<g id="graph2" class="cluster"><title>cluster_Law</title>
<polygon fill="#ffffc3" stroke="black" points="8,-10.0748 8,-408.028 238,-408.028 238,-10.0748 8,-10.0748"/>
<text text-anchor="middle" x="31" y="-391.428" font-family="Times Roman,serif" font-size="14.00">Law</text>
</g>
<g id="graph3" class="cluster"><title>cluster_Law2</title>
<polygon fill="#ffffc3" stroke="black" points="246,-307.28 246,-528.925 1070,-528.925 1070,-307.28 246,-307.28"/>
<text text-anchor="middle" x="273.5" y="-512.325" font-family="Times Roman,serif" font-size="14.00">Law2</text>
</g>
<g id="graph4" class="cluster"><title>cluster_Functors</title>
<polygon fill="#ffffc3" stroke="black" points="396,-103.266 396,-297.206 822,-297.206 822,-103.266 396,-103.266"/>
<text text-anchor="middle" x="434" y="-280.606" font-family="Times Roman,serif" font-size="14.00">Functors</text>
</g>
<!-- Law2_law -->
<g id="node1" class="node"><title>Law2_law</title>
<a xlink:href="Law2.html#law" xlink:title="law">
<ellipse fill="#f070d1" stroke="black" cx="417" cy="-452.075" rx="28.9914" ry="18.3848"/>
<ellipse fill="none" stroke="black" cx="417" cy="-452.075" rx="32.9914" ry="22.3848"/>
<ellipse fill="none" stroke="black" cx="417" cy="-452.075" rx="36.9914" ry="26.3848"/>
<text text-anchor="middle" x="417" y="-448.475" font-family="Times Roman,serif" font-size="14.00">law</text>
</a>
</g>
<!-- Law_law -->
<g id="node10" class="node"><title>Law_law</title>
<a xlink:href="Law.html#law" xlink:title="law">
<ellipse fill="#facdef" stroke="black" cx="201" cy="-341.075" rx="28.9914" ry="18.3848"/>
<text text-anchor="middle" x="201" y="-337.475" font-family="Times Roman,serif" font-size="14.00">law</text>
</a>
</g>
<!-- Law2_law&#45;&gt;Law_law -->
<g id="edge2" class="edge"><title>Law2_law&#45;&gt;Law_law</title>
<path fill="none" stroke="black" d="M389.452,-434.145C383.527,-430.795 377.183,-427.568 371,-425.075 316.313,-403.022 291.512,-426.098 242,-394.075 231.605,-387.351 222.767,-377.059 215.988,-367.326"/>
<polygon fill="black" stroke="black" points="218.741,-365.14 210.356,-358.664 212.873,-368.956 218.741,-365.14"/>
</g>
<!-- Law2_helper2 -->
<g id="node2" class="node"><title>Law2_helper2</title>
<a xlink:href="Law2.html#helper2" xlink:title="helper2">
<ellipse fill="#f070d1" stroke="black" cx="661" cy="-452.075" rx="48.7904" ry="18.3848"/>
<ellipse fill="none" stroke="black" cx="661" cy="-452.075" rx="52.7904" ry="22.3848"/>
<ellipse fill="none" stroke="black" cx="661" cy="-452.075" rx="56.7904" ry="26.3848"/>
<text text-anchor="middle" x="661" y="-448.475" font-family="Times Roman,serif" font-size="14.00">helper2</text>
</a>
</g>
<!-- Law2_helper2_subproof -->
<g id="node3" class="node"><title>Law2_helper2_subproof</title>
<a xlink:href="Law2.html#helper2_subproof" xlink:title="helper2_subproof">
<ellipse fill="#f070d1" stroke="black" cx="350" cy="-341.075" rx="96.1665" ry="18.3848"/>
<text text-anchor="middle" x="350" y="-337.475" font-family="Times Roman,serif" font-size="14.00">helper2_subproof</text>
</a>
</g>
<!-- Law2_helper2&#45;&gt;Law2_helper2_subproof -->
<g id="edge4" class="edge"><title>Law2_helper2&#45;&gt;Law2_helper2_subproof</title>
<path fill="none" stroke="black" d="M619.496,-433.843C611.458,-430.671 603.035,-427.588 595,-425.075 534.176,-406.052 515.024,-415.489 455,-394.075 432.254,-385.96 408.114,-374.031 388.723,-363.544"/>
<polygon fill="black" stroke="black" points="390.341,-360.44 379.892,-358.691 386.97,-366.574 390.341,-360.44"/>
</g>
<!-- Law2_helper2_helper -->
<g id="node4" class="node"><title>Law2_helper2_helper</title>
<a xlink:href="Law2.html#helper2_helper" xlink:title="helper2_helper">
<ellipse fill="#f070d1" stroke="black" cx="549" cy="-341.075" rx="84.8528" ry="18.3848"/>
<text text-anchor="middle" x="549" y="-337.475" font-family="Times Roman,serif" font-size="14.00">helper2_helper</text>
</a>
</g>
<!-- Law2_helper2&#45;&gt;Law2_helper2_helper -->
<g id="edge6" class="edge"><title>Law2_helper2&#45;&gt;Law2_helper2_helper</title>
<path fill="none" stroke="black" d="M636.698,-427.989C618.458,-409.913 593.53,-385.207 574.912,-366.756"/>
<polygon fill="black" stroke="black" points="576.924,-363.822 567.357,-359.268 571.996,-368.793 576.924,-363.822"/>
</g>
<!-- Law_helper2_subproof -->
<g id="node12" class="node"><title>Law_helper2_subproof</title>
<a xlink:href="Law.html#helper2_subproof" xlink:title="helper2_subproof">
<ellipse fill="#facdef" stroke="black" cx="123" cy="-137.075" rx="96.1665" ry="18.3848"/>
<text text-anchor="middle" x="123" y="-133.475" font-family="Times Roman,serif" font-size="14.00">helper2_subproof</text>
</a>
</g>
<!-- Law2_helper2_subproof&#45;&gt;Law_helper2_subproof -->
<g id="edge8" class="edge"><title>Law2_helper2_subproof&#45;&gt;Law_helper2_subproof</title>
<path fill="none" stroke="black" d="M336.792,-322.33C317.379,-295.607 279.079,-245.941 239,-211.075 216.248,-191.282 187.727,-173.015 164.659,-159.582"/>
<polygon fill="black" stroke="black" points="166.203,-156.433 155.787,-154.496 162.722,-162.506 166.203,-156.433"/>
</g>
<!-- Law2_helper1 -->
<g id="node5" class="node"><title>Law2_helper1</title>
<a xlink:href="Law2.html#helper1" xlink:title="helper1">
<ellipse fill="#f070d1" stroke="black" cx="529" cy="-452.075" rx="48.7904" ry="18.3848"/>
<ellipse fill="none" stroke="black" cx="529" cy="-452.075" rx="52.7904" ry="22.3848"/>
<ellipse fill="none" stroke="black" cx="529" cy="-452.075" rx="56.7904" ry="26.3848"/>
<text text-anchor="middle" x="529" y="-448.475" font-family="Times Roman,serif" font-size="14.00">helper1</text>
</a>
</g>
<!-- Law2_inverse -->
<g id="node6" class="node"><title>Law2_inverse</title>
<a xlink:href="Law2.html#inverse" xlink:title="inverse">
<ellipse fill="#f070d1" stroke="black" cx="879" cy="-452.075" rx="46.9493" ry="18.3848"/>
<ellipse fill="none" stroke="black" cx="879" cy="-452.075" rx="50.9133" ry="22.3848"/>
<ellipse fill="none" stroke="black" cx="879" cy="-452.075" rx="54.8773" ry="26.3848"/>
<text text-anchor="middle" x="879" y="-448.475" font-family="Times Roman,serif" font-size="14.00">inverse</text>
</a>
</g>
<!-- Law2_inverse_subproof0 -->
<g id="node7" class="node"><title>Law2_inverse_subproof0</title>
<a xlink:href="Law2.html#inverse_subproof0" xlink:title="inverse_subproof0">
<ellipse fill="#f070d1" stroke="black" cx="753" cy="-341.075" rx="101.116" ry="18.3848"/>
<text text-anchor="middle" x="753" y="-337.475" font-family="Times Roman,serif" font-size="14.00">inverse_subproof0</text>
</a>
</g>
<!-- Law2_inverse&#45;&gt;Law2_inverse_subproof0 -->
<g id="edge10" class="edge"><title>Law2_inverse&#45;&gt;Law2_inverse_subproof0</title>
<path fill="none" stroke="black" d="M852.586,-428.806C831.726,-410.429 802.677,-384.837 781.334,-366.036"/>
<polygon fill="black" stroke="black" points="783.382,-363.176 773.565,-359.192 778.755,-368.428 783.382,-363.176"/>
</g>
<!-- Law2_inverse_subproof -->
<g id="node8" class="node"><title>Law2_inverse_subproof</title>
<a xlink:href="Law2.html#inverse_subproof" xlink:title="inverse_subproof">
<ellipse fill="#f070d1" stroke="black" cx="967" cy="-341.075" rx="94.7523" ry="18.3848"/>
<text text-anchor="middle" x="967" y="-337.475" font-family="Times Roman,serif" font-size="14.00">inverse_subproof</text>
</a>
</g>
<!-- Law2_inverse&#45;&gt;Law2_inverse_subproof -->
<g id="edge12" class="edge"><title>Law2_inverse&#45;&gt;Law2_inverse_subproof</title>
<path fill="none" stroke="black" d="M898.749,-427.164C912.811,-409.427 931.679,-385.627 946.013,-367.547"/>
<polygon fill="black" stroke="black" points="948.776,-369.696 952.246,-359.685 943.291,-365.347 948.776,-369.696"/>
</g>
<!-- Functors_inverse_subproof0 -->
<g id="node16" class="node"><title>Functors_inverse_subproof0</title>
<a xlink:href="Functors.html#inverse_subproof0" xlink:title="inverse_subproof0">
<ellipse fill="#facdef" stroke="black" cx="505" cy="-137.075" rx="101.116" ry="18.3848"/>
<text text-anchor="middle" x="505" y="-133.475" font-family="Times Roman,serif" font-size="14.00">inverse_subproof0</text>
</a>
</g>
<!-- Law2_inverse_subproof0&#45;&gt;Functors_inverse_subproof0 -->
<g id="edge14" class="edge"><title>Law2_inverse_subproof0&#45;&gt;Functors_inverse_subproof0</title>
<path fill="none" stroke="black" d="M735.895,-322.762C710.986,-296.566 662.705,-247.535 617,-211.075 593.782,-192.553 565.925,-174.133 543.801,-160.304"/>
<polygon fill="black" stroke="black" points="545.355,-157.15 535.01,-154.861 541.67,-163.101 545.355,-157.15"/>
</g>
<!-- Functors_inverse_subproof -->
<g id="node17" class="node"><title>Functors_inverse_subproof</title>
<a xlink:href="Functors.html#inverse_subproof" xlink:title="inverse_subproof">
<ellipse fill="#facdef" stroke="black" cx="719" cy="-137.075" rx="94.7523" ry="18.3848"/>
<text text-anchor="middle" x="719" y="-133.475" font-family="Times Roman,serif" font-size="14.00">inverse_subproof</text>
</a>
</g>
<!-- Law2_inverse_subproof&#45;&gt;Functors_inverse_subproof -->
<g id="edge16" class="edge"><title>Law2_inverse_subproof&#45;&gt;Functors_inverse_subproof</title>
<path fill="none" stroke="black" d="M944.992,-322.971C900.411,-286.3 799.399,-203.209 748.904,-161.673"/>
<polygon fill="black" stroke="black" points="750.905,-158.788 740.959,-155.138 746.458,-164.194 750.905,-158.788"/>
</g>
<!-- Law2_functor -->
<g id="node9" class="node"><title>Law2_functor</title>
<a xlink:href="Law2.html#functor" xlink:title="functor">
<ellipse fill="#f070d1" stroke="black" cx="308" cy="-452.075" rx="46.2409" ry="18.3848"/>
<ellipse fill="none" stroke="black" cx="308" cy="-452.075" rx="50.2042" ry="22.3848"/>
<ellipse fill="none" stroke="black" cx="308" cy="-452.075" rx="54.1675" ry="26.3848"/>
<text text-anchor="middle" x="308" y="-448.475" font-family="Times Roman,serif" font-size="14.00">functor</text>
</a>
</g>
<!-- Law_helper2 -->
<g id="node11" class="node"><title>Law_helper2</title>
<a xlink:href="Law.html#helper2" xlink:title="helper2">
<ellipse fill="#f070d1" stroke="black" cx="65" cy="-230.075" rx="48.7904" ry="18.3848"/>
<text text-anchor="middle" x="65" y="-226.475" font-family="Times Roman,serif" font-size="14.00">helper2</text>
</a>
</g>
<!-- Law_law&#45;&gt;Law_helper2 -->
<g id="edge18" class="edge"><title>Law_law&#45;&gt;Law_helper2</title>
<path fill="none" stroke="black" d="M181.352,-327.303C165.324,-315.872 142.264,-298.97 123,-283.075 112.125,-274.101 100.576,-263.733 90.6701,-254.56"/>
<polygon fill="black" stroke="black" points="92.8192,-251.778 83.1226,-247.509 88.0405,-256.893 92.8192,-251.778"/>
</g>
<!-- Law_helper1 -->
<g id="node14" class="node"><title>Law_helper1</title>
<a xlink:href="Law.html#helper1" xlink:title="helper1">
<ellipse fill="#f070d1" stroke="black" cx="181" cy="-230.075" rx="48.7904" ry="18.3848"/>
<text text-anchor="middle" x="181" y="-226.475" font-family="Times Roman,serif" font-size="14.00">helper1</text>
</a>
</g>
<!-- Law_law&#45;&gt;Law_helper1 -->
<g id="edge20" class="edge"><title>Law_law&#45;&gt;Law_helper1</title>
<path fill="none" stroke="black" d="M197.652,-322.496C194.509,-305.047 189.759,-278.689 186.136,-258.58"/>
<polygon fill="black" stroke="black" points="189.576,-257.935 184.358,-248.714 182.687,-259.176 189.576,-257.935"/>
</g>
<!-- Functors_inverse -->
<g id="node15" class="node"><title>Functors_inverse</title>
<a xlink:href="Functors.html#inverse" xlink:title="inverse">
<ellipse fill="#f070d1" stroke="black" cx="561" cy="-230.075" rx="46.8775" ry="18.3848"/>
<text text-anchor="middle" x="561" y="-226.475" font-family="Times Roman,serif" font-size="14.00">inverse</text>
</a>
</g>
<!-- Law_law&#45;&gt;Functors_inverse -->
<g id="edge22" class="edge"><title>Law_law&#45;&gt;Functors_inverse</title>
<path fill="none" stroke="black" d="M219.2,-326.47C225.986,-321.755 233.993,-316.996 242,-314.075 352.569,-273.734 398.393,-332.952 505,-283.075 518.527,-276.746 530.899,-265.868 540.554,-255.608"/>
<polygon fill="black" stroke="black" points="543.328,-257.756 547.382,-247.967 538.108,-253.092 543.328,-257.756"/>
</g>
<!-- Functors_functor -->
<g id="node18" class="node"><title>Functors_functor</title>
<a xlink:href="Functors.html#functor" xlink:title="functor">
<ellipse fill="#f070d1" stroke="black" cx="450" cy="-230.075" rx="46.1672" ry="18.3848"/>
<text text-anchor="middle" x="450" y="-226.475" font-family="Times Roman,serif" font-size="14.00">functor</text>
</a>
</g>
<!-- Law_law&#45;&gt;Functors_functor -->
<g id="edge24" class="edge"><title>Law_law&#45;&gt;Functors_functor</title>
<path fill="none" stroke="black" d="M220.536,-327.072C227.177,-322.622 234.754,-317.875 242,-314.075 296.073,-285.711 361.932,-260.582 404.857,-245.365"/>
<polygon fill="black" stroke="black" points="406.18,-248.61 414.454,-241.992 403.86,-242.006 406.18,-248.61"/>
</g>
<!-- Law_helper2&#45;&gt;Law_helper2_subproof -->
<g id="edge26" class="edge"><title>Law_helper2&#45;&gt;Law_helper2_subproof</title>
<path fill="none" stroke="black" d="M76.4589,-211.701C84.9037,-198.16 96.5272,-179.522 106.045,-164.261"/>
<polygon fill="black" stroke="black" points="109.044,-166.066 111.366,-155.729 103.105,-162.362 109.044,-166.066"/>
</g>
<!-- Law_helper2_helper -->
<g id="node13" class="node"><title>Law_helper2_helper</title>
<a xlink:href="Law.html#helper2_helper" xlink:title="helper2_helper">
<ellipse fill="#f070d1" stroke="black" cx="123" cy="-44.0748" rx="84.8528" ry="18.3848"/>
<text text-anchor="middle" x="123" y="-40.4748" font-family="Times Roman,serif" font-size="14.00">helper2_helper</text>
</a>
</g>
<!-- Law_helper2_subproof&#45;&gt;Law_helper2_helper -->
<g id="edge28" class="edge"><title>Law_helper2_subproof&#45;&gt;Law_helper2_helper</title>
<path fill="none" stroke="black" d="M123,-118.255C123,-105.271 123,-87.7606 123,-73.0129"/>
<polygon fill="black" stroke="black" points="126.5,-72.8667 123,-62.8667 119.5,-72.8667 126.5,-72.8667"/>
</g>
<!-- Functors_inverse&#45;&gt;Functors_inverse_subproof0 -->
<g id="edge30" class="edge"><title>Functors_inverse&#45;&gt;Functors_inverse_subproof0</title>
<path fill="none" stroke="black" d="M549.936,-211.701C541.859,-198.287 530.769,-179.87 521.628,-164.689"/>
<polygon fill="black" stroke="black" points="524.389,-162.49 516.232,-155.729 518.393,-166.101 524.389,-162.49"/>
</g>
<!-- Functors_inverse&#45;&gt;Functors_inverse_subproof -->
<g id="edge32" class="edge"><title>Functors_inverse&#45;&gt;Functors_inverse_subproof</title>
<path fill="none" stroke="black" d="M587.446,-214.509C612.733,-199.624 651.168,-177.001 679.974,-160.046"/>
<polygon fill="black" stroke="black" points="682.117,-162.846 688.96,-154.757 678.566,-156.813 682.117,-162.846"/>
</g>
</g>
</svg>
