<?xml version="1.0" encoding="UTF-8" standalone="no"?>
<!DOCTYPE svg PUBLIC "-//W3C//DTD SVG 1.1//EN"
 "http://www.w3.org/Graphics/SVG/1.1/DTD/svg11.dtd">
<!-- Generated by graphviz version 2.26.3 (20100126.1600)
 -->
<!-- Title: HoTT_categories_Pseudofunctor_Core Pages: 1 -->
<svg width="1620pt" height="814pt"
 viewBox="0.00 0.00 1620.00 814.00" xmlns="http://www.w3.org/2000/svg" xmlns:xlink="http://www.w3.org/1999/xlink">
<g id="graph1" class="graph" transform="scale(1 1) rotate(0) translate(4 810)">
<title>HoTT_categories_Pseudofunctor_Core</title>
<polygon fill="white" stroke="white" points="-4,5 -4,-810 1617,-810 1617,5 -4,5"/>
<g id="graph2" class="cluster"><title>cluster_Core</title>
<polygon fill="#ffffc3" stroke="black" points="8,-13.3776 8,-792.622 1604,-792.622 1604,-13.3776 8,-13.3776"/>
<text text-anchor="middle" x="32.5" y="-776.022" font-family="Times Roman,serif" font-size="14.00">Core</text>
</g>
<!-- Core_p_right_identity_of_coherent_for_rewrite -->
<g id="node1" class="node"><title>Core_p_right_identity_of_coherent_for_rewrite</title>
<a xlink:href="Core.html#p_right_identity_of_coherent_for_rewrite" xlink:title="p_right_identity_of_coherent_for_rewrite">
<ellipse fill="#facdef" stroke="black" cx="1376" cy="-690.378" rx="212.132" ry="18.3848"/>
<ellipse fill="none" stroke="black" cx="1376" cy="-690.378" rx="216.132" ry="22.3848"/>
<ellipse fill="none" stroke="black" cx="1376" cy="-690.378" rx="220.132" ry="26.3848"/>
<text text-anchor="middle" x="1376" y="-686.778" font-family="Times Roman,serif" font-size="14.00">p_right_identity_of_coherent_for_rewrite</text>
</a>
</g>
<!-- Core_p_right_identity_of_coherent -->
<g id="node5" class="node"><title>Core_p_right_identity_of_coherent</title>
<a xlink:href="Core.html#p_right_identity_of_coherent" xlink:title="p_right_identity_of_coherent">
<ellipse fill="#f070d1" stroke="black" cx="1326" cy="-553.378" rx="152.028" ry="18.3848"/>
<text text-anchor="middle" x="1326" y="-549.778" font-family="Times Roman,serif" font-size="14.00">p_right_identity_of_coherent</text>
</a>
</g>
<!-- Core_p_right_identity_of_coherent_for_rewrite&#45;&gt;Core_p_right_identity_of_coherent -->
<g id="edge2" class="edge"><title>Core_p_right_identity_of_coherent_for_rewrite&#45;&gt;Core_p_right_identity_of_coherent</title>
<path fill="none" stroke="black" d="M1366.24,-663.637C1357.64,-640.062 1345.14,-605.816 1336.36,-581.761"/>
<polygon fill="black" stroke="black" points="1339.56,-580.33 1332.85,-572.136 1332.99,-582.73 1339.56,-580.33"/>
</g>
<!-- Core_p_left_identity_of_coherent_for_rewrite -->
<g id="node2" class="node"><title>Core_p_left_identity_of_coherent_for_rewrite</title>
<a xlink:href="Core.html#p_left_identity_of_coherent_for_rewrite" xlink:title="p_left_identity_of_coherent_for_rewrite">
<ellipse fill="#facdef" stroke="black" cx="925" cy="-690.378" rx="205.061" ry="18.3848"/>
<ellipse fill="none" stroke="black" cx="925" cy="-690.378" rx="209.061" ry="22.3848"/>
<ellipse fill="none" stroke="black" cx="925" cy="-690.378" rx="213.061" ry="26.3848"/>
<text text-anchor="middle" x="925" y="-686.778" font-family="Times Roman,serif" font-size="14.00">p_left_identity_of_coherent_for_rewrite</text>
</a>
</g>
<!-- Core_p_left_identity_of_coherent -->
<g id="node6" class="node"><title>Core_p_left_identity_of_coherent</title>
<a xlink:href="Core.html#p_left_identity_of_coherent" xlink:title="p_left_identity_of_coherent">
<ellipse fill="#f070d1" stroke="black" cx="1011" cy="-553.378" rx="144.957" ry="18.3848"/>
<text text-anchor="middle" x="1011" y="-549.778" font-family="Times Roman,serif" font-size="14.00">p_left_identity_of_coherent</text>
</a>
</g>
<!-- Core_p_left_identity_of_coherent_for_rewrite&#45;&gt;Core_p_left_identity_of_coherent -->
<g id="edge4" class="edge"><title>Core_p_left_identity_of_coherent_for_rewrite&#45;&gt;Core_p_left_identity_of_coherent</title>
<path fill="none" stroke="black" d="M941.786,-663.637C956.783,-639.746 978.66,-604.896 993.786,-580.8"/>
<polygon fill="black" stroke="black" points="996.872,-582.467 999.224,-572.136 990.943,-578.745 996.872,-582.467"/>
</g>
<!-- Core_p_composition_of_coherent_for_rewrite -->
<g id="node3" class="node"><title>Core_p_composition_of_coherent_for_rewrite</title>
<a xlink:href="Core.html#p_composition_of_coherent_for_rewrite" xlink:title="p_composition_of_coherent_for_rewrite">
<ellipse fill="#facdef" stroke="black" cx="483" cy="-690.378" rx="203.165" ry="18.3848"/>
<ellipse fill="none" stroke="black" cx="483" cy="-690.378" rx="207.156" ry="22.3848"/>
<ellipse fill="none" stroke="black" cx="483" cy="-690.378" rx="211.146" ry="26.3848"/>
<text text-anchor="middle" x="483" y="-686.778" font-family="Times Roman,serif" font-size="14.00">p_composition_of_coherent_for_rewrite</text>
</a>
</g>
<!-- Core_p_composition_of_coherent_for_rewrite_helper -->
<g id="node4" class="node"><title>Core_p_composition_of_coherent_for_rewrite_helper</title>
<a xlink:href="Core.html#p_composition_of_coherent_for_rewrite_helper" xlink:title="p_composition_of_coherent_for_rewrite_helper">
<ellipse fill="#facdef" stroke="black" cx="305" cy="-553.378" rx="239.209" ry="18.3848"/>
<text text-anchor="middle" x="305" y="-549.778" font-family="Times Roman,serif" font-size="14.00">p_composition_of_coherent_for_rewrite_helper</text>
</a>
</g>
<!-- Core_p_composition_of_coherent_for_rewrite&#45;&gt;Core_p_composition_of_coherent_for_rewrite_helper -->
<g id="edge6" class="edge"><title>Core_p_composition_of_coherent_for_rewrite&#45;&gt;Core_p_composition_of_coherent_for_rewrite_helper</title>
<path fill="none" stroke="black" d="M448.68,-663.963C416.407,-639.124 368.473,-602.23 336.984,-577.995"/>
<polygon fill="black" stroke="black" points="339.019,-575.144 328.96,-571.818 334.749,-580.691 339.019,-575.144"/>
</g>
<!-- Core_p_composition_of_coherent -->
<g id="node7" class="node"><title>Core_p_composition_of_coherent</title>
<a xlink:href="Core.html#p_composition_of_coherent" xlink:title="p_composition_of_coherent">
<ellipse fill="#f070d1" stroke="black" cx="705" cy="-553.378" rx="143.043" ry="18.3848"/>
<text text-anchor="middle" x="705" y="-549.778" font-family="Times Roman,serif" font-size="14.00">p_composition_of_coherent</text>
</a>
</g>
<!-- Core_p_composition_of_coherent_for_rewrite&#45;&gt;Core_p_composition_of_coherent -->
<g id="edge8" class="edge"><title>Core_p_composition_of_coherent_for_rewrite&#45;&gt;Core_p_composition_of_coherent</title>
<path fill="none" stroke="black" d="M525.279,-664.286C566.214,-639.025 627.707,-601.076 667.094,-576.77"/>
<polygon fill="black" stroke="black" points="668.961,-579.731 675.633,-571.501 665.285,-573.774 668.961,-579.731"/>
</g>
<!-- Core_p_identity_of -->
<g id="node8" class="node"><title>Core_p_identity_of</title>
<a xlink:href="Core.html#p_identity_of" xlink:title="p_identity_of">
<ellipse fill="#f070d1" stroke="black" cx="1199" cy="-429.378" rx="74.9533" ry="18.3848"/>
<text text-anchor="middle" x="1199" y="-425.778" font-family="Times Roman,serif" font-size="14.00">p_identity_of</text>
</a>
</g>
<!-- Core_p_right_identity_of_coherent&#45;&gt;Core_p_identity_of -->
<g id="edge10" class="edge"><title>Core_p_right_identity_of_coherent&#45;&gt;Core_p_identity_of</title>
<path fill="none" stroke="black" d="M1306.99,-534.814C1285.16,-513.506 1249.25,-478.444 1224.89,-454.656"/>
<polygon fill="black" stroke="black" points="1227.33,-452.146 1217.73,-447.664 1222.44,-457.154 1227.33,-452.146"/>
</g>
<!-- Core_p_composition_of -->
<g id="node9" class="node"><title>Core_p_composition_of</title>
<a xlink:href="Core.html#p_composition_of" xlink:title="p_composition_of">
<ellipse fill="#f070d1" stroke="black" cx="1011" cy="-429.378" rx="94.7523" ry="18.3848"/>
<text text-anchor="middle" x="1011" y="-425.778" font-family="Times Roman,serif" font-size="14.00">p_composition_of</text>
</a>
</g>
<!-- Core_p_right_identity_of_coherent&#45;&gt;Core_p_composition_of -->
<g id="edge12" class="edge"><title>Core_p_right_identity_of_coherent&#45;&gt;Core_p_composition_of</title>
<path fill="none" stroke="black" d="M1280.87,-535.611C1223.22,-512.918 1123.66,-473.728 1062.93,-449.819"/>
<polygon fill="black" stroke="black" points="1064.11,-446.524 1053.53,-446.118 1061.55,-453.038 1064.11,-446.524"/>
</g>
<!-- Core_p_left_identity_of_coherent&#45;&gt;Core_p_identity_of -->
<g id="edge14" class="edge"><title>Core_p_left_identity_of_coherent&#45;&gt;Core_p_identity_of</title>
<path fill="none" stroke="black" d="M1038.74,-535.081C1071.98,-513.158 1127.71,-476.401 1163.91,-452.524"/>
<polygon fill="black" stroke="black" points="1166.24,-455.175 1172.66,-446.748 1162.39,-449.332 1166.24,-455.175"/>
</g>
<!-- Core_p_left_identity_of_coherent&#45;&gt;Core_p_composition_of -->
<g id="edge16" class="edge"><title>Core_p_left_identity_of_coherent&#45;&gt;Core_p_composition_of</title>
<path fill="none" stroke="black" d="M1011,-534.814C1011,-514.542 1011,-481.82 1011,-458.202"/>
<polygon fill="black" stroke="black" points="1014.5,-458.069 1011,-448.069 1007.5,-458.069 1014.5,-458.069"/>
</g>
<!-- Core_p_composition_of_coherent&#45;&gt;Core_p_composition_of -->
<g id="edge18" class="edge"><title>Core_p_composition_of_coherent&#45;&gt;Core_p_composition_of</title>
<path fill="none" stroke="black" d="M748.517,-535.743C804.317,-513.132 900.915,-473.987 960.074,-450.014"/>
<polygon fill="black" stroke="black" points="961.639,-453.156 969.593,-446.157 959.01,-446.669 961.639,-453.156"/>
</g>
<!-- Core_p_morphism_of -->
<g id="node10" class="node"><title>Core_p_morphism_of</title>
<a xlink:href="Core.html#p_morphism_of" xlink:title="p_morphism_of">
<ellipse fill="#f070d1" stroke="black" cx="1105" cy="-306.378" rx="84.8528" ry="18.3848"/>
<text text-anchor="middle" x="1105" y="-302.778" font-family="Times Roman,serif" font-size="14.00">p_morphism_of</text>
</a>
</g>
<!-- Core_p_identity_of&#45;&gt;Core_p_morphism_of -->
<g id="edge20" class="edge"><title>Core_p_identity_of&#45;&gt;Core_p_morphism_of</title>
<path fill="none" stroke="black" d="M1184.93,-410.963C1169.14,-390.311 1143.41,-356.633 1125.41,-333.09"/>
<polygon fill="black" stroke="black" points="1128.02,-330.738 1119.17,-324.918 1122.46,-334.989 1128.02,-330.738"/>
</g>
<!-- Core_p_composition_of&#45;&gt;Core_p_morphism_of -->
<g id="edge22" class="edge"><title>Core_p_composition_of&#45;&gt;Core_p_morphism_of</title>
<path fill="none" stroke="black" d="M1025.07,-410.963C1040.86,-390.311 1066.59,-356.633 1084.59,-333.09"/>
<polygon fill="black" stroke="black" points="1087.54,-334.989 1090.83,-324.918 1081.98,-330.738 1087.54,-334.989"/>
</g>
<!-- Core_p_object_of -->
<g id="node11" class="node"><title>Core_p_object_of</title>
<a xlink:href="Core.html#p_object_of" xlink:title="p_object_of">
<ellipse fill="#f070d1" stroke="black" cx="1105" cy="-182.378" rx="65.9683" ry="18.3848"/>
<text text-anchor="middle" x="1105" y="-178.778" font-family="Times Roman,serif" font-size="14.00">p_object_of</text>
</a>
</g>
<!-- Core_p_morphism_of&#45;&gt;Core_p_object_of -->
<g id="edge24" class="edge"><title>Core_p_morphism_of&#45;&gt;Core_p_object_of</title>
<path fill="none" stroke="black" d="M1105,-287.814C1105,-267.542 1105,-234.82 1105,-211.202"/>
<polygon fill="black" stroke="black" points="1108.5,-211.069 1105,-201.069 1101.5,-211.069 1108.5,-211.069"/>
</g>
<!-- Core_Pseudofunctor -->
<g id="node13" class="node"><title>Core_Pseudofunctor</title>
<a xlink:href="Core.html#Pseudofunctor" xlink:title="Pseudofunctor">
<ellipse fill="#e2cdfa" stroke="black" cx="1105" cy="-58.3776" rx="82.0244" ry="18.3848"/>
<text text-anchor="middle" x="1105" y="-54.7776" font-family="Times Roman,serif" font-size="14.00">Pseudofunctor</text>
</a>
</g>
<!-- Core_p_object_of&#45;&gt;Core_Pseudofunctor -->
<g id="edge26" class="edge"><title>Core_p_object_of&#45;&gt;Core_Pseudofunctor</title>
<path fill="none" stroke="black" d="M1105,-163.814C1105,-143.542 1105,-110.82 1105,-87.2019"/>
<polygon fill="black" stroke="black" points="1108.5,-87.0685 1105,-77.0686 1101.5,-87.0686 1108.5,-87.0685"/>
</g>
<!-- Core_Build_Pseudofunctor -->
<g id="node12" class="node"><title>Core_Build_Pseudofunctor</title>
<a xlink:href="Core.html#Build_Pseudofunctor" xlink:title="Build_Pseudofunctor">
<ellipse fill="#7faaff" stroke="black" cx="135" cy="-690.378" rx="111.255" ry="18.3848"/>
<ellipse fill="none" stroke="black" cx="135" cy="-690.378" rx="115.239" ry="22.3848"/>
<ellipse fill="none" stroke="black" cx="135" cy="-690.378" rx="119.222" ry="26.3848"/>
<text text-anchor="middle" x="135" y="-686.778" font-family="Times Roman,serif" font-size="14.00">Build_Pseudofunctor</text>
</a>
</g>
</g>
</svg>
