<?xml version="1.0" encoding="UTF-8" standalone="no"?>
<!DOCTYPE svg PUBLIC "-//W3C//DTD SVG 1.1//EN"
 "http://www.w3.org/Graphics/SVG/1.1/DTD/svg11.dtd">
<!-- Generated by graphviz version 2.26.3 (20100126.1600)
 -->
<!-- Title: HoTT_EquivalenceVarieties Pages: 1 -->
<svg width="1238pt" height="623pt"
 viewBox="0.00 0.00 1238.00 623.00" xmlns="http://www.w3.org/2000/svg" xmlns:xlink="http://www.w3.org/1999/xlink">
<g id="graph1" class="graph" transform="scale(1 1) rotate(0) translate(4 619)">
<title>HoTT_EquivalenceVarieties</title>
<polygon fill="white" stroke="white" points="-4,5 -4,-619 1235,-619 1235,5 -4,5"/>
<g id="graph2" class="cluster"><title>cluster_EquivalenceVarieties</title>
<polygon fill="#ffffc3" stroke="black" points="8,-11.6038 8,-603.396 1222,-603.396 1222,-11.6038 8,-11.6038"/>
<text text-anchor="middle" x="87.5" y="-586.796" font-family="Times Roman,serif" font-size="14.00">EquivalenceVarieties</text>
</g>
<!-- EquivalenceVarieties_equiv_oopathsplit_isequiv -->
<g id="node1" class="node"><title>EquivalenceVarieties_equiv_oopathsplit_isequiv</title>
<a xlink:href="EquivalenceVarieties.html#equiv_oopathsplit_isequiv" xlink:title="equiv_oopathsplit_isequiv">
<ellipse fill="#f070d1" stroke="black" cx="891" cy="-514.604" rx="137.179" ry="18.3848"/>
<ellipse fill="none" stroke="black" cx="891" cy="-514.604" rx="141.179" ry="22.3848"/>
<ellipse fill="none" stroke="black" cx="891" cy="-514.604" rx="145.179" ry="26.3848"/>
<text text-anchor="middle" x="891" y="-511.004" font-family="Times Roman,serif" font-size="14.00">equiv_oopathsplit_isequiv</text>
</a>
</g>
<!-- EquivalenceVarieties_ishprop_oopathsplit -->
<g id="node2" class="node"><title>EquivalenceVarieties_ishprop_oopathsplit</title>
<a xlink:href="EquivalenceVarieties.html#ishprop_oopathsplit" xlink:title="ishprop_oopathsplit">
<ellipse fill="#f070d1" stroke="black" cx="1006" cy="-384.604" rx="106.773" ry="18.3848"/>
<text text-anchor="middle" x="1006" y="-381.004" font-family="Times Roman,serif" font-size="14.00">ishprop_oopathsplit</text>
</a>
</g>
<!-- EquivalenceVarieties_equiv_oopathsplit_isequiv&#45;&gt;EquivalenceVarieties_ishprop_oopathsplit -->
<g id="edge2" class="edge"><title>EquivalenceVarieties_equiv_oopathsplit_isequiv&#45;&gt;EquivalenceVarieties_ishprop_oopathsplit</title>
<path fill="none" stroke="black" d="M914.272,-488.296C934.351,-465.599 963.184,-433.004 983.141,-410.444"/>
<polygon fill="black" stroke="black" points="985.797,-412.724 989.801,-402.915 980.554,-408.086 985.797,-412.724"/>
</g>
<!-- EquivalenceVarieties_hprop_isequiv -->
<g id="node18" class="node"><title>EquivalenceVarieties_hprop_isequiv</title>
<a xlink:href="EquivalenceVarieties.html#hprop_isequiv" xlink:title="hprop_isequiv">
<ellipse fill="#facdef" stroke="black" cx="389" cy="-265.604" rx="79.196" ry="18.3848"/>
<text text-anchor="middle" x="389" y="-262.004" font-family="Times Roman,serif" font-size="14.00">hprop_isequiv</text>
</a>
</g>
<!-- EquivalenceVarieties_equiv_oopathsplit_isequiv&#45;&gt;EquivalenceVarieties_hprop_isequiv -->
<g id="edge4" class="edge"><title>EquivalenceVarieties_equiv_oopathsplit_isequiv&#45;&gt;EquivalenceVarieties_hprop_isequiv</title>
<path fill="none" stroke="black" d="M791.547,-495.287C738.675,-480.419 676.088,-454.821 634,-411.604 616.144,-393.269 631.792,-376.001 614,-357.604 590.114,-332.906 505.587,-302.406 447.223,-283.477"/>
<polygon fill="black" stroke="black" points="447.965,-280.04 437.374,-280.312 445.823,-286.704 447.965,-280.04"/>
</g>
<!-- EquivalenceVarieties_contr_oopathsplit_isequiv -->
<g id="node3" class="node"><title>EquivalenceVarieties_contr_oopathsplit_isequiv</title>
<a xlink:href="EquivalenceVarieties.html#contr_oopathsplit_isequiv" xlink:title="contr_oopathsplit_isequiv">
<ellipse fill="#f070d1" stroke="black" cx="830" cy="-265.604" rx="135.765" ry="18.3848"/>
<text text-anchor="middle" x="830" y="-262.004" font-family="Times Roman,serif" font-size="14.00">contr_oopathsplit_isequiv</text>
</a>
</g>
<!-- EquivalenceVarieties_ishprop_oopathsplit&#45;&gt;EquivalenceVarieties_contr_oopathsplit_isequiv -->
<g id="edge6" class="edge"><title>EquivalenceVarieties_ishprop_oopathsplit&#45;&gt;EquivalenceVarieties_contr_oopathsplit_isequiv</title>
<path fill="none" stroke="black" d="M979.269,-366.53C948.903,-345.998 899.213,-312.401 865.587,-289.665"/>
<polygon fill="black" stroke="black" points="867.227,-286.549 856.982,-283.847 863.306,-292.348 867.227,-286.549"/>
</g>
<!-- EquivalenceVarieties_isequiv_oopathsplit -->
<g id="node4" class="node"><title>EquivalenceVarieties_isequiv_oopathsplit</title>
<a xlink:href="EquivalenceVarieties.html#isequiv_oopathsplit" xlink:title="isequiv_oopathsplit">
<ellipse fill="#f070d1" stroke="black" cx="1089" cy="-265.604" rx="104.86" ry="18.3848"/>
<text text-anchor="middle" x="1089" y="-262.004" font-family="Times Roman,serif" font-size="14.00">isequiv_oopathsplit</text>
</a>
</g>
<!-- EquivalenceVarieties_ishprop_oopathsplit&#45;&gt;EquivalenceVarieties_isequiv_oopathsplit -->
<g id="edge8" class="edge"><title>EquivalenceVarieties_ishprop_oopathsplit&#45;&gt;EquivalenceVarieties_isequiv_oopathsplit</title>
<path fill="none" stroke="black" d="M1018.97,-366.01C1032.73,-346.274 1054.62,-314.899 1070.26,-292.475"/>
<polygon fill="black" stroke="black" points="1073.27,-294.271 1076.12,-284.067 1067.53,-290.267 1073.27,-294.271"/>
</g>
<!-- EquivalenceVarieties_contr_pathsplit_isequiv -->
<g id="node9" class="node"><title>EquivalenceVarieties_contr_pathsplit_isequiv</title>
<a xlink:href="EquivalenceVarieties.html#contr_pathsplit_isequiv" xlink:title="contr_pathsplit_isequiv">
<ellipse fill="#f070d1" stroke="black" cx="714" cy="-157.604" rx="123.951" ry="18.3848"/>
<text text-anchor="middle" x="714" y="-154.004" font-family="Times Roman,serif" font-size="14.00">contr_pathsplit_isequiv</text>
</a>
</g>
<!-- EquivalenceVarieties_contr_oopathsplit_isequiv&#45;&gt;EquivalenceVarieties_contr_pathsplit_isequiv -->
<g id="edge10" class="edge"><title>EquivalenceVarieties_contr_oopathsplit_isequiv&#45;&gt;EquivalenceVarieties_contr_pathsplit_isequiv</title>
<path fill="none" stroke="black" d="M810.322,-247.283C791.324,-229.595 762.398,-202.664 741.201,-182.929"/>
<polygon fill="black" stroke="black" points="743.478,-180.267 733.774,-176.014 738.708,-185.39 743.478,-180.267"/>
</g>
<!-- EquivalenceVarieties_ooPathSplit -->
<g id="node5" class="node"><title>EquivalenceVarieties_ooPathSplit</title>
<a xlink:href="EquivalenceVarieties.html#ooPathSplit" xlink:title="ooPathSplit">
<ellipse fill="#f070d1" stroke="black" cx="1127" cy="-157.604" rx="67.1751" ry="18.3848"/>
<text text-anchor="middle" x="1127" y="-154.004" font-family="Times Roman,serif" font-size="14.00">ooPathSplit</text>
</a>
</g>
<!-- EquivalenceVarieties_isequiv_oopathsplit&#45;&gt;EquivalenceVarieties_ooPathSplit -->
<g id="edge12" class="edge"><title>EquivalenceVarieties_isequiv_oopathsplit&#45;&gt;EquivalenceVarieties_ooPathSplit</title>
<path fill="none" stroke="black" d="M1095.62,-246.792C1101.56,-229.911 1110.36,-204.906 1117.13,-185.664"/>
<polygon fill="black" stroke="black" points="1120.44,-186.795 1120.46,-176.2 1113.84,-184.472 1120.44,-186.795"/>
</g>
<!-- EquivalenceVarieties_isequiv_pathsplit -->
<g id="node10" class="node"><title>EquivalenceVarieties_isequiv_pathsplit</title>
<a xlink:href="EquivalenceVarieties.html#isequiv_pathsplit" xlink:title="isequiv_pathsplit">
<ellipse fill="#f070d1" stroke="black" cx="949" cy="-157.604" rx="92.839" ry="18.3848"/>
<text text-anchor="middle" x="949" y="-154.004" font-family="Times Roman,serif" font-size="14.00">isequiv_pathsplit</text>
</a>
</g>
<!-- EquivalenceVarieties_isequiv_oopathsplit&#45;&gt;EquivalenceVarieties_isequiv_pathsplit -->
<g id="edge14" class="edge"><title>EquivalenceVarieties_isequiv_oopathsplit&#45;&gt;EquivalenceVarieties_isequiv_pathsplit</title>
<path fill="none" stroke="black" d="M1065.57,-247.527C1042.25,-229.538 1006.31,-201.814 980.503,-181.906"/>
<polygon fill="black" stroke="black" points="982.565,-179.076 972.509,-175.74 978.289,-184.619 982.565,-179.076"/>
</g>
<!-- EquivalenceVarieties_PathSplit -->
<g id="node11" class="node"><title>EquivalenceVarieties_PathSplit</title>
<a xlink:href="EquivalenceVarieties.html#PathSplit" xlink:title="PathSplit">
<ellipse fill="#f070d1" stroke="black" cx="949" cy="-50.6038" rx="55.8614" ry="18.3848"/>
<text text-anchor="middle" x="949" y="-47.0038" font-family="Times Roman,serif" font-size="14.00">PathSplit</text>
</a>
</g>
<!-- EquivalenceVarieties_ooPathSplit&#45;&gt;EquivalenceVarieties_PathSplit -->
<g id="edge16" class="edge"><title>EquivalenceVarieties_ooPathSplit&#45;&gt;EquivalenceVarieties_PathSplit</title>
<path fill="none" stroke="black" d="M1098.8,-140.649C1067.93,-122.095 1018.38,-92.3075 984.793,-72.1198"/>
<polygon fill="black" stroke="black" points="986.571,-69.1049 976.197,-66.9526 982.965,-75.1044 986.571,-69.1049"/>
</g>
<!-- EquivalenceVarieties_equiv_functor_pathsplit -->
<g id="node6" class="node"><title>EquivalenceVarieties_equiv_functor_pathsplit</title>
<a xlink:href="EquivalenceVarieties.html#equiv_functor_pathsplit" xlink:title="equiv_functor_pathsplit">
<ellipse fill="#f070d1" stroke="black" cx="480" cy="-514.604" rx="126.102" ry="18.3848"/>
<ellipse fill="none" stroke="black" cx="480" cy="-514.604" rx="130.087" ry="22.3848"/>
<ellipse fill="none" stroke="black" cx="480" cy="-514.604" rx="134.072" ry="26.3848"/>
<text text-anchor="middle" x="480" y="-511.004" font-family="Times Roman,serif" font-size="14.00">equiv_functor_pathsplit</text>
</a>
</g>
<!-- EquivalenceVarieties_equiv_pathsplit_isequiv -->
<g id="node7" class="node"><title>EquivalenceVarieties_equiv_pathsplit_isequiv</title>
<a xlink:href="EquivalenceVarieties.html#equiv_pathsplit_isequiv" xlink:title="equiv_pathsplit_isequiv">
<ellipse fill="#f070d1" stroke="black" cx="480" cy="-384.604" rx="125.158" ry="18.3848"/>
<text text-anchor="middle" x="480" y="-381.004" font-family="Times Roman,serif" font-size="14.00">equiv_pathsplit_isequiv</text>
</a>
</g>
<!-- EquivalenceVarieties_equiv_functor_pathsplit&#45;&gt;EquivalenceVarieties_equiv_pathsplit_isequiv -->
<g id="edge18" class="edge"><title>EquivalenceVarieties_equiv_functor_pathsplit&#45;&gt;EquivalenceVarieties_equiv_pathsplit_isequiv</title>
<path fill="none" stroke="black" d="M480,-487.983C480,-466.278 480,-435.678 480,-413.405"/>
<polygon fill="black" stroke="black" points="483.5,-413.214 480,-403.214 476.5,-413.215 483.5,-413.214"/>
</g>
<!-- EquivalenceVarieties_ishprop_pathsplit -->
<g id="node8" class="node"><title>EquivalenceVarieties_ishprop_pathsplit</title>
<a xlink:href="EquivalenceVarieties.html#ishprop_pathsplit" xlink:title="ishprop_pathsplit">
<ellipse fill="#f070d1" stroke="black" cx="581" cy="-265.604" rx="94.7523" ry="18.3848"/>
<text text-anchor="middle" x="581" y="-262.004" font-family="Times Roman,serif" font-size="14.00">ishprop_pathsplit</text>
</a>
</g>
<!-- EquivalenceVarieties_equiv_pathsplit_isequiv&#45;&gt;EquivalenceVarieties_ishprop_pathsplit -->
<g id="edge20" class="edge"><title>EquivalenceVarieties_equiv_pathsplit_isequiv&#45;&gt;EquivalenceVarieties_ishprop_pathsplit</title>
<path fill="none" stroke="black" d="M495.781,-366.01C512.68,-346.099 539.633,-314.343 558.696,-291.882"/>
<polygon fill="black" stroke="black" points="561.527,-293.956 565.33,-284.067 556.19,-289.426 561.527,-293.956"/>
</g>
<!-- EquivalenceVarieties_equiv_pathsplit_isequiv&#45;&gt;EquivalenceVarieties_hprop_isequiv -->
<g id="edge22" class="edge"><title>EquivalenceVarieties_equiv_pathsplit_isequiv&#45;&gt;EquivalenceVarieties_hprop_isequiv</title>
<path fill="none" stroke="black" d="M465.781,-366.01C450.622,-346.186 426.484,-314.621 409.322,-292.178"/>
<polygon fill="black" stroke="black" points="411.974,-289.884 403.119,-284.067 406.413,-294.137 411.974,-289.884"/>
</g>
<!-- EquivalenceVarieties_ishprop_pathsplit&#45;&gt;EquivalenceVarieties_contr_pathsplit_isequiv -->
<g id="edge24" class="edge"><title>EquivalenceVarieties_ishprop_pathsplit&#45;&gt;EquivalenceVarieties_contr_pathsplit_isequiv</title>
<path fill="none" stroke="black" d="M603.261,-247.527C625.186,-229.723 658.852,-202.386 683.309,-182.525"/>
<polygon fill="black" stroke="black" points="685.664,-185.122 691.22,-176.102 681.251,-179.688 685.664,-185.122"/>
</g>
<!-- EquivalenceVarieties_ishprop_pathsplit&#45;&gt;EquivalenceVarieties_isequiv_pathsplit -->
<g id="edge26" class="edge"><title>EquivalenceVarieties_ishprop_pathsplit&#45;&gt;EquivalenceVarieties_isequiv_pathsplit</title>
<path fill="none" stroke="black" d="M633.725,-250.13C700.635,-230.494 815.867,-196.675 886.943,-175.816"/>
<polygon fill="black" stroke="black" points="888.06,-179.136 896.67,-172.962 886.089,-172.419 888.06,-179.136"/>
</g>
<!-- EquivalenceVarieties_contr_pathsplit_isequiv&#45;&gt;EquivalenceVarieties_PathSplit -->
<g id="edge28" class="edge"><title>EquivalenceVarieties_contr_pathsplit_isequiv&#45;&gt;EquivalenceVarieties_PathSplit</title>
<path fill="none" stroke="black" d="M752.805,-139.935C795.193,-120.635 862.866,-89.8223 906.616,-69.9022"/>
<polygon fill="black" stroke="black" points="908.19,-73.0313 915.84,-65.702 905.289,-66.6606 908.19,-73.0313"/>
</g>
<!-- EquivalenceVarieties_fcontr_isequiv -->
<g id="node22" class="node"><title>EquivalenceVarieties_fcontr_isequiv</title>
<a xlink:href="EquivalenceVarieties.html#fcontr_isequiv" xlink:title="fcontr_isequiv">
<ellipse fill="#f070d1" stroke="black" cx="478" cy="-50.6038" rx="79.9031" ry="18.3848"/>
<text text-anchor="middle" x="478" y="-47.0038" font-family="Times Roman,serif" font-size="14.00">fcontr_isequiv</text>
</a>
</g>
<!-- EquivalenceVarieties_contr_pathsplit_isequiv&#45;&gt;EquivalenceVarieties_fcontr_isequiv -->
<g id="edge30" class="edge"><title>EquivalenceVarieties_contr_pathsplit_isequiv&#45;&gt;EquivalenceVarieties_fcontr_isequiv</title>
<path fill="none" stroke="black" d="M675.029,-139.935C633.56,-121.133 567.989,-91.4039 524.011,-71.4646"/>
<polygon fill="black" stroke="black" points="525.25,-68.1835 514.697,-67.2418 522.359,-74.5588 525.25,-68.1835"/>
</g>
<!-- EquivalenceVarieties_isequiv_pathsplit&#45;&gt;EquivalenceVarieties_PathSplit -->
<g id="edge32" class="edge"><title>EquivalenceVarieties_isequiv_pathsplit&#45;&gt;EquivalenceVarieties_PathSplit</title>
<path fill="none" stroke="black" d="M949,-138.966C949,-122.573 949,-98.4445 949,-79.5415"/>
<polygon fill="black" stroke="black" points="952.5,-79.3871 949,-69.3872 945.5,-79.3872 952.5,-79.3871"/>
</g>
<!-- EquivalenceVarieties_isequiv_fcontr -->
<g id="node21" class="node"><title>EquivalenceVarieties_isequiv_fcontr</title>
<a xlink:href="EquivalenceVarieties.html#isequiv_fcontr" xlink:title="isequiv_fcontr">
<ellipse fill="#f070d1" stroke="black" cx="1118" cy="-50.6038" rx="79.9031" ry="18.3848"/>
<text text-anchor="middle" x="1118" y="-47.0038" font-family="Times Roman,serif" font-size="14.00">isequiv_fcontr</text>
</a>
</g>
<!-- EquivalenceVarieties_isequiv_pathsplit&#45;&gt;EquivalenceVarieties_isequiv_fcontr -->
<g id="edge34" class="edge"><title>EquivalenceVarieties_isequiv_pathsplit&#45;&gt;EquivalenceVarieties_isequiv_fcontr</title>
<path fill="none" stroke="black" d="M976.907,-139.935C1005.61,-121.759 1050.45,-93.3715 1081.86,-73.4881"/>
<polygon fill="black" stroke="black" points="1083.76,-76.4276 1090.33,-68.1211 1080.01,-70.5133 1083.76,-76.4276"/>
</g>
<!-- EquivalenceVarieties_equiv_biinv_isequiv -->
<g id="node12" class="node"><title>EquivalenceVarieties_equiv_biinv_isequiv</title>
<a xlink:href="EquivalenceVarieties.html#equiv_biinv_isequiv" xlink:title="equiv_biinv_isequiv">
<ellipse fill="#f070d1" stroke="black" cx="223" cy="-384.604" rx="106.066" ry="18.3848"/>
<ellipse fill="none" stroke="black" cx="223" cy="-384.604" rx="110.066" ry="22.3848"/>
<ellipse fill="none" stroke="black" cx="223" cy="-384.604" rx="114.066" ry="26.3848"/>
<text text-anchor="middle" x="223" y="-381.004" font-family="Times Roman,serif" font-size="14.00">equiv_biinv_isequiv</text>
</a>
</g>
<!-- EquivalenceVarieties_isprop_biinv -->
<g id="node13" class="node"><title>EquivalenceVarieties_isprop_biinv</title>
<a xlink:href="EquivalenceVarieties.html#isprop_biinv" xlink:title="isprop_biinv">
<ellipse fill="#f070d1" stroke="black" cx="223" cy="-265.604" rx="68.7979" ry="18.3848"/>
<text text-anchor="middle" x="223" y="-262.004" font-family="Times Roman,serif" font-size="14.00">isprop_biinv</text>
</a>
</g>
<!-- EquivalenceVarieties_equiv_biinv_isequiv&#45;&gt;EquivalenceVarieties_isprop_biinv -->
<g id="edge36" class="edge"><title>EquivalenceVarieties_equiv_biinv_isequiv&#45;&gt;EquivalenceVarieties_isprop_biinv</title>
<path fill="none" stroke="black" d="M223,-357.898C223,-339.049 223,-313.815 223,-294.496"/>
<polygon fill="black" stroke="black" points="226.5,-294.45 223,-284.45 219.5,-294.45 226.5,-294.45"/>
</g>
<!-- EquivalenceVarieties_equiv_biinv_isequiv&#45;&gt;EquivalenceVarieties_hprop_isequiv -->
<g id="edge38" class="edge"><title>EquivalenceVarieties_equiv_biinv_isequiv&#45;&gt;EquivalenceVarieties_hprop_isequiv</title>
<path fill="none" stroke="black" d="M258.204,-359.367C287.098,-338.654 327.714,-309.538 355.991,-289.267"/>
<polygon fill="black" stroke="black" points="358.256,-291.95 364.344,-283.279 354.178,-286.26 358.256,-291.95"/>
</g>
<!-- EquivalenceVarieties_isequiv_biinv -->
<g id="node14" class="node"><title>EquivalenceVarieties_isequiv_biinv</title>
<a xlink:href="EquivalenceVarieties.html#isequiv_biinv" xlink:title="isequiv_biinv">
<ellipse fill="#f070d1" stroke="black" cx="90" cy="-157.604" rx="74.2462" ry="18.3848"/>
<text text-anchor="middle" x="90" y="-154.004" font-family="Times Roman,serif" font-size="14.00">isequiv_biinv</text>
</a>
</g>
<!-- EquivalenceVarieties_isprop_biinv&#45;&gt;EquivalenceVarieties_isequiv_biinv -->
<g id="edge40" class="edge"><title>EquivalenceVarieties_isprop_biinv&#45;&gt;EquivalenceVarieties_isequiv_biinv</title>
<path fill="none" stroke="black" d="M201.335,-248.011C179.247,-230.075 144.806,-202.108 120.08,-182.03"/>
<polygon fill="black" stroke="black" points="122.068,-179.135 112.099,-175.549 117.655,-184.569 122.068,-179.135"/>
</g>
<!-- EquivalenceVarieties_contr_retr_equiv -->
<g id="node19" class="node"><title>EquivalenceVarieties_contr_retr_equiv</title>
<a xlink:href="EquivalenceVarieties.html#contr_retr_equiv" xlink:title="contr_retr_equiv">
<ellipse fill="#f070d1" stroke="black" cx="274" cy="-157.604" rx="92.1303" ry="18.3848"/>
<text text-anchor="middle" x="274" y="-154.004" font-family="Times Roman,serif" font-size="14.00">contr_retr_equiv</text>
</a>
</g>
<!-- EquivalenceVarieties_isprop_biinv&#45;&gt;EquivalenceVarieties_contr_retr_equiv -->
<g id="edge42" class="edge"><title>EquivalenceVarieties_isprop_biinv&#45;&gt;EquivalenceVarieties_contr_retr_equiv</title>
<path fill="none" stroke="black" d="M231.884,-246.792C239.891,-229.834 251.771,-204.676 260.874,-185.399"/>
<polygon fill="black" stroke="black" points="264.113,-186.737 265.218,-176.2 257.783,-183.748 264.113,-186.737"/>
</g>
<!-- EquivalenceVarieties_contr_sect_equiv -->
<g id="node20" class="node"><title>EquivalenceVarieties_contr_sect_equiv</title>
<a xlink:href="EquivalenceVarieties.html#contr_sect_equiv" xlink:title="contr_sect_equiv">
<ellipse fill="#f070d1" stroke="black" cx="478" cy="-157.604" rx="94.0452" ry="18.3848"/>
<text text-anchor="middle" x="478" y="-154.004" font-family="Times Roman,serif" font-size="14.00">contr_sect_equiv</text>
</a>
</g>
<!-- EquivalenceVarieties_isprop_biinv&#45;&gt;EquivalenceVarieties_contr_sect_equiv -->
<g id="edge44" class="edge"><title>EquivalenceVarieties_isprop_biinv&#45;&gt;EquivalenceVarieties_contr_sect_equiv</title>
<path fill="none" stroke="black" d="M260.079,-249.9C304.627,-231.032 379.515,-199.315 428.848,-178.421"/>
<polygon fill="black" stroke="black" points="430.514,-181.516 438.357,-174.394 427.784,-175.071 430.514,-181.516"/>
</g>
<!-- EquivalenceVarieties_BiInv -->
<g id="node15" class="node"><title>EquivalenceVarieties_BiInv</title>
<a xlink:href="EquivalenceVarieties.html#BiInv" xlink:title="BiInv">
<ellipse fill="#f070d1" stroke="black" cx="90" cy="-50.6038" rx="36.7696" ry="18.3848"/>
<text text-anchor="middle" x="90" y="-47.0038" font-family="Times Roman,serif" font-size="14.00">BiInv</text>
</a>
</g>
<!-- EquivalenceVarieties_isequiv_biinv&#45;&gt;EquivalenceVarieties_BiInv -->
<g id="edge46" class="edge"><title>EquivalenceVarieties_isequiv_biinv&#45;&gt;EquivalenceVarieties_BiInv</title>
<path fill="none" stroke="black" d="M90,-138.966C90,-122.573 90,-98.4445 90,-79.5415"/>
<polygon fill="black" stroke="black" points="93.5001,-79.3871 90,-69.3872 86.5001,-79.3872 93.5001,-79.3871"/>
</g>
<!-- EquivalenceVarieties_equiv_fcontr_isequiv_ -->
<g id="node16" class="node"><title>EquivalenceVarieties_equiv_fcontr_isequiv_</title>
<a xlink:href="EquivalenceVarieties.html#equiv_fcontr_isequiv&#39;" xlink:title="equiv_fcontr_isequiv&#39;">
<ellipse fill="#f070d1" stroke="black" cx="172" cy="-514.604" rx="113.844" ry="18.3848"/>
<ellipse fill="none" stroke="black" cx="172" cy="-514.604" rx="117.844" ry="22.3848"/>
<ellipse fill="none" stroke="black" cx="172" cy="-514.604" rx="121.844" ry="26.3848"/>
<text text-anchor="middle" x="172" y="-511.004" font-family="Times Roman,serif" font-size="14.00">equiv_fcontr_isequiv&#39;</text>
</a>
</g>
<!-- EquivalenceVarieties_equiv_fcontr_isequiv -->
<g id="node17" class="node"><title>EquivalenceVarieties_equiv_fcontr_isequiv</title>
<a xlink:href="EquivalenceVarieties.html#equiv_fcontr_isequiv" xlink:title="equiv_fcontr_isequiv">
<ellipse fill="#f070d1" stroke="black" cx="762" cy="-384.604" rx="111.255" ry="18.3848"/>
<ellipse fill="none" stroke="black" cx="762" cy="-384.604" rx="115.239" ry="22.3848"/>
<ellipse fill="none" stroke="black" cx="762" cy="-384.604" rx="119.222" ry="26.3848"/>
<text text-anchor="middle" x="762" y="-381.004" font-family="Times Roman,serif" font-size="14.00">equiv_fcontr_isequiv</text>
</a>
</g>
<!-- EquivalenceVarieties_equiv_fcontr_isequiv&#45;&gt;EquivalenceVarieties_hprop_isequiv -->
<g id="edge48" class="edge"><title>EquivalenceVarieties_equiv_fcontr_isequiv&#45;&gt;EquivalenceVarieties_hprop_isequiv</title>
<path fill="none" stroke="black" d="M693.586,-362.777C622.469,-340.089 512.437,-304.984 445.91,-283.76"/>
<polygon fill="black" stroke="black" points="446.61,-280.31 436.019,-280.605 444.482,-286.978 446.61,-280.31"/>
</g>
<!-- EquivalenceVarieties_equiv_fcontr_isequiv&#45;&gt;EquivalenceVarieties_isequiv_fcontr -->
<g id="edge50" class="edge"><title>EquivalenceVarieties_equiv_fcontr_isequiv&#45;&gt;EquivalenceVarieties_isequiv_fcontr</title>
<path fill="none" stroke="black" d="M848.541,-366.393C975.365,-339.508 1197.41,-291.606 1203,-284.604 1243.49,-233.9 1227.31,-198.766 1203,-138.604 1192.55,-112.756 1170.48,-90.2806 1151.44,-74.5142"/>
<polygon fill="black" stroke="black" points="1153.51,-71.6861 1143.51,-68.1777 1149.14,-77.1546 1153.51,-71.6861"/>
</g>
<!-- EquivalenceVarieties_hprop_isequiv&#45;&gt;EquivalenceVarieties_contr_sect_equiv -->
<g id="edge52" class="edge"><title>EquivalenceVarieties_hprop_isequiv&#45;&gt;EquivalenceVarieties_contr_sect_equiv</title>
<path fill="none" stroke="black" d="M404.098,-247.283C418.418,-229.906 440.091,-203.606 456.269,-183.974"/>
<polygon fill="black" stroke="black" points="459.17,-185.958 462.828,-176.014 453.768,-181.506 459.17,-185.958"/>
</g>
<!-- EquivalenceVarieties_contr_retr_equiv&#45;&gt;EquivalenceVarieties_fcontr_isequiv -->
<g id="edge54" class="edge"><title>EquivalenceVarieties_contr_retr_equiv&#45;&gt;EquivalenceVarieties_fcontr_isequiv</title>
<path fill="none" stroke="black" d="M307.23,-140.174C342.41,-121.722 398.018,-92.555 436.161,-72.5488"/>
<polygon fill="black" stroke="black" points="438.229,-75.4164 445.459,-67.6719 434.977,-69.2174 438.229,-75.4164"/>
</g>
<!-- EquivalenceVarieties_contr_sect_equiv&#45;&gt;EquivalenceVarieties_fcontr_isequiv -->
<g id="edge56" class="edge"><title>EquivalenceVarieties_contr_sect_equiv&#45;&gt;EquivalenceVarieties_fcontr_isequiv</title>
<path fill="none" stroke="black" d="M478,-138.966C478,-122.573 478,-98.4445 478,-79.5415"/>
<polygon fill="black" stroke="black" points="481.5,-79.3871 478,-69.3872 474.5,-79.3872 481.5,-79.3871"/>
</g>
</g>
</svg>
