<?xml version="1.0" encoding="UTF-8" standalone="no"?>
<!DOCTYPE svg PUBLIC "-//W3C//DTD SVG 1.1//EN"
 "http://www.w3.org/Graphics/SVG/1.1/DTD/svg11.dtd">
<!-- Generated by graphviz version 2.26.3 (20100126.1600)
 -->
<!-- Title: HoTT_categories_Grothendieck_Grothendieck Pages: 1 -->
<svg width="2802pt" height="1405pt"
 viewBox="0.00 0.00 2802.00 1405.00" xmlns="http://www.w3.org/2000/svg" xmlns:xlink="http://www.w3.org/1999/xlink">
<g id="graph1" class="graph" transform="scale(1 1) rotate(0) translate(4 1401)">
<title>HoTT_categories_Grothendieck_Grothendieck</title>
<polygon fill="white" stroke="white" points="-4,5 -4,-1401 2799,-1401 2799,5 -4,5"/>
<g id="graph2" class="cluster"><title>cluster_Grothendieck</title>
<polygon fill="#ffffc3" stroke="black" points="8,-18.689 8,-1378.31 2786,-1378.31 2786,-18.689 8,-18.689"/>
<text text-anchor="middle" x="63" y="-1361.71" font-family="Times Roman,serif" font-size="14.00">Grothendieck</text>
</g>
<g id="graph3" class="cluster"><title>cluster_Grothendieck_PseudofunctorToCat</title>
<polygon fill="#ffffa3" stroke="black" points="1184,-210.251 1184,-1298.88 2778,-1298.88 2778,-210.251 1184,-210.251"/>
<text text-anchor="middle" x="1261.5" y="-1282.28" font-family="Times Roman,serif" font-size="14.00">PseudofunctorToCat</text>
</g>
<g id="graph4" class="cluster"><title>cluster_Grothendieck_ToCat</title>
<polygon fill="#ffffa3" stroke="black" points="946,-1074.62 946,-1298.88 1176,-1298.88 1176,-1074.62 946,-1074.62"/>
<text text-anchor="middle" x="974" y="-1282.28" font-family="Times Roman,serif" font-size="14.00">ToCat</text>
</g>
<g id="graph5" class="cluster"><title>cluster_Grothendieck_ToSet</title>
<polygon fill="#ffffa3" stroke="black" points="16,-37.3779 16,-1298.88 938,-1298.88 938,-37.3779 16,-37.3779"/>
<text text-anchor="middle" x="43.5" y="-1282.28" font-family="Times Roman,serif" font-size="14.00">ToSet</text>
</g>
<!-- Grothendieck_ToSet_pr1 -->
<g id="node1" class="node"><title>Grothendieck_ToSet_pr1</title>
<a xlink:href="Grothendieck.html#ToSet.pr1" xlink:title="pr1">
<ellipse fill="#f070d1" stroke="black" cx="589" cy="-1156.69" rx="27.8968" ry="18.3848"/>
<ellipse fill="none" stroke="black" cx="589" cy="-1156.69" rx="31.842" ry="22.3848"/>
<ellipse fill="none" stroke="black" cx="589" cy="-1156.69" rx="35.7872" ry="26.3848"/>
<text text-anchor="middle" x="589" y="-1153.09" font-family="Times Roman,serif" font-size="14.00">pr1</text>
</a>
</g>
<!-- Grothendieck_ToSet_category -->
<g id="node2" class="node"><title>Grothendieck_ToSet_category</title>
<a xlink:href="Grothendieck.html#ToSet.category" xlink:title="category">
<ellipse fill="#f070d1" stroke="black" cx="589" cy="-964.689" rx="53.9477" ry="18.3848"/>
<text text-anchor="middle" x="589" y="-961.089" font-family="Times Roman,serif" font-size="14.00">category</text>
</a>
</g>
<!-- Grothendieck_ToSet_pr1&#45;&gt;Grothendieck_ToSet_category -->
<g id="edge2" class="edge"><title>Grothendieck_ToSet_pr1&#45;&gt;Grothendieck_ToSet_category</title>
<path fill="none" stroke="black" d="M589,-1129.99C589,-1094.07 589,-1030.44 589,-993.479"/>
<polygon fill="black" stroke="black" points="592.5,-993.366 589,-983.366 585.5,-993.366 592.5,-993.366"/>
</g>
<!-- Grothendieck_ToSet_category_subproof1 -->
<g id="node3" class="node"><title>Grothendieck_ToSet_category_subproof1</title>
<a xlink:href="Grothendieck.html#ToSet.category_subproof1" xlink:title="category_subproof1">
<ellipse fill="#f070d1" stroke="black" cx="131" cy="-791.689" rx="106.98" ry="18.3848"/>
<text text-anchor="middle" x="131" y="-788.089" font-family="Times Roman,serif" font-size="14.00">category_subproof1</text>
</a>
</g>
<!-- Grothendieck_ToSet_category&#45;&gt;Grothendieck_ToSet_category_subproof1 -->
<g id="edge4" class="edge"><title>Grothendieck_ToSet_category&#45;&gt;Grothendieck_ToSet_category_subproof1</title>
<path fill="none" stroke="black" d="M552.679,-950.969C472.393,-920.643 279.486,-847.776 184.997,-812.085"/>
<polygon fill="black" stroke="black" points="186.21,-808.802 175.619,-808.543 183.737,-815.351 186.21,-808.802"/>
</g>
<!-- Grothendieck_ToSet_category_subproof0 -->
<g id="node4" class="node"><title>Grothendieck_ToSet_category_subproof0</title>
<a xlink:href="Grothendieck.html#ToSet.category_subproof0" xlink:title="category_subproof0">
<ellipse fill="#f070d1" stroke="black" cx="363" cy="-791.689" rx="106.98" ry="18.3848"/>
<text text-anchor="middle" x="363" y="-788.089" font-family="Times Roman,serif" font-size="14.00">category_subproof0</text>
</a>
</g>
<!-- Grothendieck_ToSet_category&#45;&gt;Grothendieck_ToSet_category_subproof0 -->
<g id="edge6" class="edge"><title>Grothendieck_ToSet_category&#45;&gt;Grothendieck_ToSet_category_subproof0</title>
<path fill="none" stroke="black" d="M566.919,-947.786C526.767,-917.051 441.658,-851.9 395.092,-816.255"/>
<polygon fill="black" stroke="black" points="396.933,-813.257 386.865,-809.958 392.678,-818.815 396.933,-813.257"/>
</g>
<!-- Grothendieck_ToSet_category_subproof -->
<g id="node5" class="node"><title>Grothendieck_ToSet_category_subproof</title>
<a xlink:href="Grothendieck.html#ToSet.category_subproof" xlink:title="category_subproof">
<ellipse fill="#f070d1" stroke="black" cx="589" cy="-791.689" rx="101.116" ry="18.3848"/>
<text text-anchor="middle" x="589" y="-788.089" font-family="Times Roman,serif" font-size="14.00">category_subproof</text>
</a>
</g>
<!-- Grothendieck_ToSet_category&#45;&gt;Grothendieck_ToSet_category_subproof -->
<g id="edge8" class="edge"><title>Grothendieck_ToSet_category&#45;&gt;Grothendieck_ToSet_category_subproof</title>
<path fill="none" stroke="black" d="M589,-946.175C589,-916.078 589,-856.317 589,-820.588"/>
<polygon fill="black" stroke="black" points="592.5,-820.331 589,-810.331 585.5,-820.331 592.5,-820.331"/>
</g>
<!-- Grothendieck_ToSet_identity -->
<g id="node6" class="node"><title>Grothendieck_ToSet_identity</title>
<a xlink:href="Grothendieck.html#ToSet.identity" xlink:title="identity">
<ellipse fill="#f070d1" stroke="black" cx="757" cy="-791.689" rx="48.9975" ry="18.3848"/>
<text text-anchor="middle" x="757" y="-788.089" font-family="Times Roman,serif" font-size="14.00">identity</text>
</a>
</g>
<!-- Grothendieck_ToSet_category&#45;&gt;Grothendieck_ToSet_identity -->
<g id="edge10" class="edge"><title>Grothendieck_ToSet_category&#45;&gt;Grothendieck_ToSet_identity</title>
<path fill="none" stroke="black" d="M606.346,-946.827C636.431,-915.846 698.353,-852.081 732.703,-816.709"/>
<polygon fill="black" stroke="black" points="735.543,-818.809 739.998,-809.197 730.521,-813.932 735.543,-818.809"/>
</g>
<!-- Grothendieck_ToSet_compose -->
<g id="node8" class="node"><title>Grothendieck_ToSet_compose</title>
<a xlink:href="Grothendieck.html#ToSet.compose" xlink:title="compose">
<ellipse fill="#f070d1" stroke="black" cx="877" cy="-791.689" rx="53.2379" ry="18.3848"/>
<text text-anchor="middle" x="877" y="-788.089" font-family="Times Roman,serif" font-size="14.00">compose</text>
</a>
</g>
<!-- Grothendieck_ToSet_category&#45;&gt;Grothendieck_ToSet_compose -->
<g id="edge12" class="edge"><title>Grothendieck_ToSet_category&#45;&gt;Grothendieck_ToSet_compose</title>
<path fill="none" stroke="black" d="M615.836,-948.569C667.928,-917.278 782.752,-848.303 841.242,-813.169"/>
<polygon fill="black" stroke="black" points="843.357,-815.981 850.127,-807.831 839.753,-809.98 843.357,-815.981"/>
</g>
<!-- Grothendieck_ToSet_identity_H -->
<g id="node7" class="node"><title>Grothendieck_ToSet_identity_H</title>
<a xlink:href="Grothendieck.html#ToSet.identity_H" xlink:title="identity_H">
<ellipse fill="#f070d1" stroke="black" cx="718" cy="-618.689" rx="62.2254" ry="18.3848"/>
<text text-anchor="middle" x="718" y="-615.089" font-family="Times Roman,serif" font-size="14.00">identity_H</text>
</a>
</g>
<!-- Grothendieck_ToSet_identity&#45;&gt;Grothendieck_ToSet_identity_H -->
<g id="edge14" class="edge"><title>Grothendieck_ToSet_identity&#45;&gt;Grothendieck_ToSet_identity_H</title>
<path fill="none" stroke="black" d="M752.826,-773.175C746.012,-742.948 732.453,-682.801 724.411,-647.128"/>
<polygon fill="black" stroke="black" points="727.816,-646.317 722.203,-637.331 720.988,-647.856 727.816,-646.317"/>
</g>
<!-- Grothendieck_ToSet_x -->
<g id="node10" class="node"><title>Grothendieck_ToSet_x</title>
<a xlink:href="Grothendieck.html#ToSet.x" xlink:title="x">
<ellipse fill="#f070d1" stroke="black" cx="791" cy="-446.689" rx="27" ry="18.3848"/>
<text text-anchor="middle" x="791" y="-443.089" font-family="Times Roman,serif" font-size="14.00">x</text>
</a>
</g>
<!-- Grothendieck_ToSet_identity_H&#45;&gt;Grothendieck_ToSet_x -->
<g id="edge16" class="edge"><title>Grothendieck_ToSet_identity_H&#45;&gt;Grothendieck_ToSet_x</title>
<path fill="none" stroke="black" d="M725.812,-600.282C738.689,-569.943 764.434,-509.284 779.429,-473.952"/>
<polygon fill="black" stroke="black" points="782.669,-475.278 783.354,-464.705 776.225,-472.543 782.669,-475.278"/>
</g>
<!-- Grothendieck_ToSet_compose_H -->
<g id="node9" class="node"><title>Grothendieck_ToSet_compose_H</title>
<a xlink:href="Grothendieck.html#ToSet.compose_H" xlink:title="compose_H">
<ellipse fill="#f070d1" stroke="black" cx="864" cy="-618.689" rx="65.9683" ry="18.3848"/>
<text text-anchor="middle" x="864" y="-615.089" font-family="Times Roman,serif" font-size="14.00">compose_H</text>
</a>
</g>
<!-- Grothendieck_ToSet_compose&#45;&gt;Grothendieck_ToSet_compose_H -->
<g id="edge18" class="edge"><title>Grothendieck_ToSet_compose&#45;&gt;Grothendieck_ToSet_compose_H</title>
<path fill="none" stroke="black" d="M875.609,-773.175C873.347,-743.078 868.856,-683.317 866.172,-647.588"/>
<polygon fill="black" stroke="black" points="869.64,-647.041 865.401,-637.331 862.66,-647.566 869.64,-647.041"/>
</g>
<!-- Grothendieck_ToSet_compose_H&#45;&gt;Grothendieck_ToSet_x -->
<g id="edge20" class="edge"><title>Grothendieck_ToSet_compose_H&#45;&gt;Grothendieck_ToSet_x</title>
<path fill="none" stroke="black" d="M856.188,-600.282C843.311,-569.943 817.566,-509.284 802.571,-473.952"/>
<polygon fill="black" stroke="black" points="805.775,-472.543 798.646,-464.705 799.331,-475.278 805.775,-472.543"/>
</g>
<!-- Grothendieck_ToSet_c -->
<g id="node11" class="node"><title>Grothendieck_ToSet_c</title>
<a xlink:href="Grothendieck.html#ToSet.c" xlink:title="c">
<ellipse fill="#f070d1" stroke="black" cx="791" cy="-273.689" rx="27" ry="18.3848"/>
<text text-anchor="middle" x="791" y="-270.089" font-family="Times Roman,serif" font-size="14.00">c</text>
</a>
</g>
<!-- Grothendieck_ToSet_x&#45;&gt;Grothendieck_ToSet_c -->
<g id="edge22" class="edge"><title>Grothendieck_ToSet_x&#45;&gt;Grothendieck_ToSet_c</title>
<path fill="none" stroke="black" d="M791,-428.175C791,-398.078 791,-338.317 791,-302.588"/>
<polygon fill="black" stroke="black" points="794.5,-302.331 791,-292.331 787.5,-302.331 794.5,-302.331"/>
</g>
<!-- Grothendieck_ToSet_Pair -->
<g id="node13" class="node"><title>Grothendieck_ToSet_Pair</title>
<a xlink:href="Grothendieck.html#ToSet.Pair" xlink:title="Pair">
<ellipse fill="#e2cdfa" stroke="black" cx="791" cy="-100.689" rx="29.9071" ry="18.3848"/>
<text text-anchor="middle" x="791" y="-97.089" font-family="Times Roman,serif" font-size="14.00">Pair</text>
</a>
</g>
<!-- Grothendieck_ToSet_c&#45;&gt;Grothendieck_ToSet_Pair -->
<g id="edge24" class="edge"><title>Grothendieck_ToSet_c&#45;&gt;Grothendieck_ToSet_Pair</title>
<path fill="none" stroke="black" d="M791,-255.175C791,-225.078 791,-165.317 791,-129.588"/>
<polygon fill="black" stroke="black" points="794.5,-129.331 791,-119.331 787.5,-129.331 794.5,-129.331"/>
</g>
<!-- Grothendieck_ToSet_Build_Pair -->
<g id="node12" class="node"><title>Grothendieck_ToSet_Build_Pair</title>
<a xlink:href="Grothendieck.html#ToSet.Build_Pair" xlink:title="Build_Pair">
<ellipse fill="#7faaff" stroke="black" cx="280" cy="-1156.69" rx="60.1041" ry="18.3848"/>
<ellipse fill="none" stroke="black" cx="280" cy="-1156.69" rx="64.1041" ry="22.3848"/>
<ellipse fill="none" stroke="black" cx="280" cy="-1156.69" rx="68.1041" ry="26.3848"/>
<text text-anchor="middle" x="280" y="-1153.09" font-family="Times Roman,serif" font-size="14.00">Build_Pair</text>
</a>
</g>
<!-- Grothendieck_ToCat_pr1 -->
<g id="node14" class="node"><title>Grothendieck_ToCat_pr1</title>
<a xlink:href="Grothendieck.html#ToCat.pr1" xlink:title="pr1">
<ellipse fill="#f070d1" stroke="black" cx="1132" cy="-1156.69" rx="27.8968" ry="18.3848"/>
<ellipse fill="none" stroke="black" cx="1132" cy="-1156.69" rx="31.842" ry="22.3848"/>
<ellipse fill="none" stroke="black" cx="1132" cy="-1156.69" rx="35.7872" ry="26.3848"/>
<text text-anchor="middle" x="1132" y="-1153.09" font-family="Times Roman,serif" font-size="14.00">pr1</text>
</a>
</g>
<!-- Grothendieck_ToCat_category -->
<g id="node15" class="node"><title>Grothendieck_ToCat_category</title>
<a xlink:href="Grothendieck.html#ToCat.category" xlink:title="category">
<ellipse fill="#f070d1" stroke="black" cx="1016" cy="-1156.69" rx="54.0116" ry="18.3848"/>
<ellipse fill="none" stroke="black" cx="1016" cy="-1156.69" rx="57.9796" ry="22.3848"/>
<ellipse fill="none" stroke="black" cx="1016" cy="-1156.69" rx="61.9476" ry="26.3848"/>
<text text-anchor="middle" x="1016" y="-1153.09" font-family="Times Roman,serif" font-size="14.00">category</text>
</a>
</g>
<!-- Grothendieck_PseudofunctorToCat_pr1 -->
<g id="node16" class="node"><title>Grothendieck_PseudofunctorToCat_pr1</title>
<a xlink:href="Grothendieck.html#PseudofunctorToCat.pr1" xlink:title="pr1">
<ellipse fill="#f070d1" stroke="black" cx="2734" cy="-1156.69" rx="27.8968" ry="18.3848"/>
<ellipse fill="none" stroke="black" cx="2734" cy="-1156.69" rx="31.842" ry="22.3848"/>
<ellipse fill="none" stroke="black" cx="2734" cy="-1156.69" rx="35.7872" ry="26.3848"/>
<text text-anchor="middle" x="2734" y="-1153.09" font-family="Times Roman,serif" font-size="14.00">pr1</text>
</a>
</g>
<!-- Grothendieck_PseudofunctorToCat_category -->
<g id="node17" class="node"><title>Grothendieck_PseudofunctorToCat_category</title>
<a xlink:href="Grothendieck.html#PseudofunctorToCat.category" xlink:title="category">
<ellipse fill="#f070d1" stroke="black" cx="2513" cy="-964.689" rx="53.9477" ry="18.3848"/>
<text text-anchor="middle" x="2513" y="-961.089" font-family="Times Roman,serif" font-size="14.00">category</text>
</a>
</g>
<!-- Grothendieck_PseudofunctorToCat_pr1&#45;&gt;Grothendieck_PseudofunctorToCat_category -->
<g id="edge26" class="edge"><title>Grothendieck_PseudofunctorToCat_pr1&#45;&gt;Grothendieck_PseudofunctorToCat_category</title>
<path fill="none" stroke="black" d="M2710.35,-1136.14C2669.15,-1100.35 2584.45,-1026.76 2540.62,-988.687"/>
<polygon fill="black" stroke="black" points="2542.78,-985.924 2532.93,-982.008 2538.19,-991.209 2542.78,-985.924"/>
</g>
<!-- Grothendieck_PseudofunctorToCat_category_subproof1 -->
<g id="node18" class="node"><title>Grothendieck_PseudofunctorToCat_category_subproof1</title>
<a xlink:href="Grothendieck.html#PseudofunctorToCat.category_subproof1" xlink:title="category_subproof1">
<ellipse fill="#f070d1" stroke="black" cx="1971" cy="-791.689" rx="106.98" ry="18.3848"/>
<text text-anchor="middle" x="1971" y="-788.089" font-family="Times Roman,serif" font-size="14.00">category_subproof1</text>
</a>
</g>
<!-- Grothendieck_PseudofunctorToCat_category&#45;&gt;Grothendieck_PseudofunctorToCat_category_subproof1 -->
<g id="edge28" class="edge"><title>Grothendieck_PseudofunctorToCat_category&#45;&gt;Grothendieck_PseudofunctorToCat_category_subproof1</title>
<path fill="none" stroke="black" d="M2473.15,-951.968C2379.29,-922.01 2143.86,-846.863 2031.93,-811.139"/>
<polygon fill="black" stroke="black" points="2032.74,-807.721 2022.15,-808.014 2030.61,-814.389 2032.74,-807.721"/>
</g>
<!-- Grothendieck_PseudofunctorToCat_category_subproof0 -->
<g id="node19" class="node"><title>Grothendieck_PseudofunctorToCat_category_subproof0</title>
<a xlink:href="Grothendieck.html#PseudofunctorToCat.category_subproof0" xlink:title="category_subproof0">
<ellipse fill="#f070d1" stroke="black" cx="2203" cy="-791.689" rx="106.98" ry="18.3848"/>
<text text-anchor="middle" x="2203" y="-788.089" font-family="Times Roman,serif" font-size="14.00">category_subproof0</text>
</a>
</g>
<!-- Grothendieck_PseudofunctorToCat_category&#45;&gt;Grothendieck_PseudofunctorToCat_category_subproof0 -->
<g id="edge30" class="edge"><title>Grothendieck_PseudofunctorToCat_category&#45;&gt;Grothendieck_PseudofunctorToCat_category_subproof0</title>
<path fill="none" stroke="black" d="M2484.67,-948.878C2429.54,-918.11 2307.65,-850.091 2243.81,-814.463"/>
<polygon fill="black" stroke="black" points="2245.26,-811.266 2234.83,-809.45 2241.85,-817.379 2245.26,-811.266"/>
</g>
<!-- Grothendieck_PseudofunctorToCat_category_subproof -->
<g id="node20" class="node"><title>Grothendieck_PseudofunctorToCat_category_subproof</title>
<a xlink:href="Grothendieck.html#PseudofunctorToCat.category_subproof" xlink:title="category_subproof">
<ellipse fill="#f070d1" stroke="black" cx="2429" cy="-791.689" rx="101.116" ry="18.3848"/>
<text text-anchor="middle" x="2429" y="-788.089" font-family="Times Roman,serif" font-size="14.00">category_subproof</text>
</a>
</g>
<!-- Grothendieck_PseudofunctorToCat_category&#45;&gt;Grothendieck_PseudofunctorToCat_category_subproof -->
<g id="edge32" class="edge"><title>Grothendieck_PseudofunctorToCat_category&#45;&gt;Grothendieck_PseudofunctorToCat_category_subproof</title>
<path fill="none" stroke="black" d="M2504.01,-946.175C2489.27,-915.818 2459.88,-855.284 2442.59,-819.67"/>
<polygon fill="black" stroke="black" points="2445.57,-817.798 2438.05,-810.331 2439.27,-820.856 2445.57,-817.798"/>
</g>
<!-- Grothendieck_PseudofunctorToCat_identity -->
<g id="node24" class="node"><title>Grothendieck_PseudofunctorToCat_identity</title>
<a xlink:href="Grothendieck.html#PseudofunctorToCat.identity" xlink:title="identity">
<ellipse fill="#f070d1" stroke="black" cx="2597" cy="-791.689" rx="48.9975" ry="18.3848"/>
<text text-anchor="middle" x="2597" y="-788.089" font-family="Times Roman,serif" font-size="14.00">identity</text>
</a>
</g>
<!-- Grothendieck_PseudofunctorToCat_category&#45;&gt;Grothendieck_PseudofunctorToCat_identity -->
<g id="edge34" class="edge"><title>Grothendieck_PseudofunctorToCat_category&#45;&gt;Grothendieck_PseudofunctorToCat_identity</title>
<path fill="none" stroke="black" d="M2521.99,-946.175C2536.77,-915.739 2566.28,-854.966 2583.55,-819.39"/>
<polygon fill="black" stroke="black" points="2586.86,-820.594 2588.08,-810.07 2580.56,-817.537 2586.86,-820.594"/>
</g>
<!-- Grothendieck_PseudofunctorToCat_compose -->
<g id="node25" class="node"><title>Grothendieck_PseudofunctorToCat_compose</title>
<a xlink:href="Grothendieck.html#PseudofunctorToCat.compose" xlink:title="compose">
<ellipse fill="#f070d1" stroke="black" cx="2717" cy="-791.689" rx="53.2379" ry="18.3848"/>
<text text-anchor="middle" x="2717" y="-788.089" font-family="Times Roman,serif" font-size="14.00">compose</text>
</a>
</g>
<!-- Grothendieck_PseudofunctorToCat_category&#45;&gt;Grothendieck_PseudofunctorToCat_compose -->
<g id="edge36" class="edge"><title>Grothendieck_PseudofunctorToCat_category&#45;&gt;Grothendieck_PseudofunctorToCat_compose</title>
<path fill="none" stroke="black" d="M2533.31,-947.469C2569.96,-916.381 2647.25,-850.838 2688.94,-815.488"/>
<polygon fill="black" stroke="black" points="2691.41,-817.977 2696.78,-808.84 2686.89,-812.638 2691.41,-817.977"/>
</g>
<!-- Grothendieck_PseudofunctorToCat_pseudofunctor_to_cat_right_identity_helper -->
<g id="node21" class="node"><title>Grothendieck_PseudofunctorToCat_pseudofunctor_to_cat_right_identity_helper</title>
<a xlink:href="Grothendieck.html#PseudofunctorToCat.pseudofunctor_to_cat_right_identity_helper" xlink:title="pseudofunctor_to_cat_right_identity_helper">
<ellipse fill="#f070d1" stroke="black" cx="2448" cy="-1156.69" rx="224.153" ry="18.3848"/>
<ellipse fill="none" stroke="black" cx="2448" cy="-1156.69" rx="228.153" ry="22.3848"/>
<ellipse fill="none" stroke="black" cx="2448" cy="-1156.69" rx="232.153" ry="26.3848"/>
<text text-anchor="middle" x="2448" y="-1153.09" font-family="Times Roman,serif" font-size="14.00">pseudofunctor_to_cat_right_identity_helper</text>
</a>
</g>
<!-- Grothendieck_PseudofunctorToCat_pseudofunctor_to_cat_left_identity_helper -->
<g id="node22" class="node"><title>Grothendieck_PseudofunctorToCat_pseudofunctor_to_cat_left_identity_helper</title>
<a xlink:href="Grothendieck.html#PseudofunctorToCat.pseudofunctor_to_cat_left_identity_helper" xlink:title="pseudofunctor_to_cat_left_identity_helper">
<ellipse fill="#f070d1" stroke="black" cx="1973" cy="-1156.69" rx="217.082" ry="18.3848"/>
<ellipse fill="none" stroke="black" cx="1973" cy="-1156.69" rx="221.082" ry="22.3848"/>
<ellipse fill="none" stroke="black" cx="1973" cy="-1156.69" rx="225.082" ry="26.3848"/>
<text text-anchor="middle" x="1973" y="-1153.09" font-family="Times Roman,serif" font-size="14.00">pseudofunctor_to_cat_left_identity_helper</text>
</a>
</g>
<!-- Grothendieck_PseudofunctorToCat_pseudofunctor_to_cat_assoc_helper -->
<g id="node23" class="node"><title>Grothendieck_PseudofunctorToCat_pseudofunctor_to_cat_assoc_helper</title>
<a xlink:href="Grothendieck.html#PseudofunctorToCat.pseudofunctor_to_cat_assoc_helper" xlink:title="pseudofunctor_to_cat_assoc_helper">
<ellipse fill="#f070d1" stroke="black" cx="1538" cy="-1156.69" rx="183.848" ry="18.3848"/>
<ellipse fill="none" stroke="black" cx="1538" cy="-1156.69" rx="187.848" ry="22.3848"/>
<ellipse fill="none" stroke="black" cx="1538" cy="-1156.69" rx="191.848" ry="26.3848"/>
<text text-anchor="middle" x="1538" y="-1153.09" font-family="Times Roman,serif" font-size="14.00">pseudofunctor_to_cat_assoc_helper</text>
</a>
</g>
<!-- Grothendieck_PseudofunctorToCat_x -->
<g id="node26" class="node"><title>Grothendieck_PseudofunctorToCat_x</title>
<a xlink:href="Grothendieck.html#PseudofunctorToCat.x" xlink:title="x">
<ellipse fill="#f070d1" stroke="black" cx="2657" cy="-618.689" rx="27" ry="18.3848"/>
<text text-anchor="middle" x="2657" y="-615.089" font-family="Times Roman,serif" font-size="14.00">x</text>
</a>
</g>
<!-- Grothendieck_PseudofunctorToCat_identity&#45;&gt;Grothendieck_PseudofunctorToCat_x -->
<g id="edge38" class="edge"><title>Grothendieck_PseudofunctorToCat_identity&#45;&gt;Grothendieck_PseudofunctorToCat_x</title>
<path fill="none" stroke="black" d="M2603.42,-773.175C2613.96,-742.79 2634.98,-682.169 2647.33,-646.568"/>
<polygon fill="black" stroke="black" points="2650.75,-647.405 2650.72,-636.81 2644.13,-645.111 2650.75,-647.405"/>
</g>
<!-- Grothendieck_PseudofunctorToCat_compose&#45;&gt;Grothendieck_PseudofunctorToCat_x -->
<g id="edge40" class="edge"><title>Grothendieck_PseudofunctorToCat_compose&#45;&gt;Grothendieck_PseudofunctorToCat_x</title>
<path fill="none" stroke="black" d="M2710.58,-773.175C2700.04,-742.79 2679.02,-682.169 2666.67,-646.568"/>
<polygon fill="black" stroke="black" points="2669.87,-645.111 2663.28,-636.81 2663.25,-647.405 2669.87,-645.111"/>
</g>
<!-- Grothendieck_PseudofunctorToCat_c -->
<g id="node27" class="node"><title>Grothendieck_PseudofunctorToCat_c</title>
<a xlink:href="Grothendieck.html#PseudofunctorToCat.c" xlink:title="c">
<ellipse fill="#f070d1" stroke="black" cx="2657" cy="-446.689" rx="27" ry="18.3848"/>
<text text-anchor="middle" x="2657" y="-443.089" font-family="Times Roman,serif" font-size="14.00">c</text>
</a>
</g>
<!-- Grothendieck_PseudofunctorToCat_x&#45;&gt;Grothendieck_PseudofunctorToCat_c -->
<g id="edge42" class="edge"><title>Grothendieck_PseudofunctorToCat_x&#45;&gt;Grothendieck_PseudofunctorToCat_c</title>
<path fill="none" stroke="black" d="M2657,-599.955C2657,-569.971 2657,-510.984 2657,-475.574"/>
<polygon fill="black" stroke="black" points="2660.5,-475.4 2657,-465.4 2653.5,-475.4 2660.5,-475.4"/>
</g>
<!-- Grothendieck_PseudofunctorToCat_Pair -->
<g id="node29" class="node"><title>Grothendieck_PseudofunctorToCat_Pair</title>
<a xlink:href="Grothendieck.html#PseudofunctorToCat.Pair" xlink:title="Pair">
<ellipse fill="#e2cdfa" stroke="black" cx="2657" cy="-273.689" rx="29.9071" ry="18.3848"/>
<text text-anchor="middle" x="2657" y="-270.089" font-family="Times Roman,serif" font-size="14.00">Pair</text>
</a>
</g>
<!-- Grothendieck_PseudofunctorToCat_c&#45;&gt;Grothendieck_PseudofunctorToCat_Pair -->
<g id="edge44" class="edge"><title>Grothendieck_PseudofunctorToCat_c&#45;&gt;Grothendieck_PseudofunctorToCat_Pair</title>
<path fill="none" stroke="black" d="M2657,-428.175C2657,-398.078 2657,-338.317 2657,-302.588"/>
<polygon fill="black" stroke="black" points="2660.5,-302.331 2657,-292.331 2653.5,-302.331 2660.5,-302.331"/>
</g>
<!-- Grothendieck_PseudofunctorToCat_Build_Pair -->
<g id="node28" class="node"><title>Grothendieck_PseudofunctorToCat_Build_Pair</title>
<a xlink:href="Grothendieck.html#PseudofunctorToCat.Build_Pair" xlink:title="Build_Pair">
<ellipse fill="#7faaff" stroke="black" cx="1260" cy="-1156.69" rx="60.1041" ry="18.3848"/>
<ellipse fill="none" stroke="black" cx="1260" cy="-1156.69" rx="64.1041" ry="22.3848"/>
<ellipse fill="none" stroke="black" cx="1260" cy="-1156.69" rx="68.1041" ry="26.3848"/>
<text text-anchor="middle" x="1260" y="-1153.09" font-family="Times Roman,serif" font-size="14.00">Build_Pair</text>
</a>
</g>
</g>
</svg>
