<?xml version="1.0" encoding="UTF-8" standalone="no"?>
<!DOCTYPE svg PUBLIC "-//W3C//DTD SVG 1.1//EN"
 "http://www.w3.org/Graphics/SVG/1.1/DTD/svg11.dtd">
<!-- Generated by graphviz version 2.39.20141222.0545 (20141222.0545)
 -->
<!-- Title: HoTT_Algebra_ooGroup Pages: 1 -->
<svg width="1964pt" height="986pt"
 viewBox="0.00 0.00 1964.00 986.00" xmlns="http://www.w3.org/2000/svg" xmlns:xlink="http://www.w3.org/1999/xlink">
<g id="graph0" class="graph" transform="scale(1 1) rotate(0) translate(4 982)">
<title>HoTT_Algebra_ooGroup</title>
<polygon fill="white" stroke="transparent" points="-4,4 -4,-982 1960,-982 1960,4 -4,4"/>
<g id="clust1" class="cluster"><title>cluster_ooGroup</title>
<polygon fill="#ffffc3" stroke="black" points="8,-18.3232 8,-959.677 1948,-959.677 1948,-18.3232 8,-18.3232"/>
<text text-anchor="middle" x="40.5" y="-944.477" font-family="Times,serif" font-size="14.00">ooGroup</text>
</g>
<!-- ooGroup_cosets -->
<g id="node1" class="node"><title>ooGroup_cosets</title>
<g id="a_node1"><a xlink:href="ooGroup.html#cosets" xlink:title="cosets">
<ellipse fill="#f070d1" stroke="black" cx="1107" cy="-627.323" rx="32.4948" ry="18"/>
<ellipse fill="none" stroke="black" cx="1107" cy="-627.323" rx="36.4945" ry="22"/>
<ellipse fill="none" stroke="black" cx="1107" cy="-627.323" rx="40.4942" ry="26"/>
<text text-anchor="middle" x="1107" y="-623.623" font-family="Times,serif" font-size="14.00">cosets</text>
</a>
</g>
</g>
<!-- ooGroup_ishprop_in_coset -->
<g id="node7" class="node"><title>ooGroup_ishprop_in_coset</title>
<g id="a_node7"><a xlink:href="ooGroup.html#ishprop_in_coset" xlink:title="ishprop_in_coset">
<ellipse fill="#f070d1" stroke="black" cx="1369" cy="-426.323" rx="70.6878" ry="18"/>
<text text-anchor="middle" x="1369" y="-422.623" font-family="Times,serif" font-size="14.00">ishprop_in_coset</text>
</a>
</g>
</g>
<!-- ooGroup_cosets&#45;&gt;ooGroup_ishprop_in_coset -->
<g id="edge1" class="edge"><title>ooGroup_cosets&#45;&gt;ooGroup_ishprop_in_coset</title>
<path fill="none" stroke="black" d="M1133.08,-607.316C1181.75,-569.973 1286.2,-489.843 1338.23,-449.926"/>
<polygon fill="black" stroke="black" points="1340.61,-452.512 1346.42,-443.648 1336.35,-446.958 1340.61,-452.512"/>
</g>
<!-- ooGroup_in_coset -->
<g id="node8" class="node"><title>ooGroup_in_coset</title>
<g id="a_node8"><a xlink:href="ooGroup.html#in_coset" xlink:title="in_coset">
<ellipse fill="#f070d1" stroke="black" cx="1498" cy="-426.323" rx="40.0939" ry="18"/>
<text text-anchor="middle" x="1498" y="-422.623" font-family="Times,serif" font-size="14.00">in_coset</text>
</a>
</g>
</g>
<!-- ooGroup_cosets&#45;&gt;ooGroup_in_coset -->
<g id="edge2" class="edge"><title>ooGroup_cosets&#45;&gt;ooGroup_in_coset</title>
<path fill="none" stroke="black" d="M1139.14,-611.076C1199.84,-580.351 1335.44,-511.503 1449,-452.323 1453.58,-449.937 1458.39,-447.409 1463.14,-444.904"/>
<polygon fill="black" stroke="black" points="1464.9,-447.931 1472.1,-440.159 1461.62,-441.744 1464.9,-447.931"/>
</g>
<!-- ooGroup_equiv_coset_subgroup -->
<g id="node2" class="node"><title>ooGroup_equiv_coset_subgroup</title>
<g id="a_node2"><a xlink:href="ooGroup.html#equiv_coset_subgroup" xlink:title="equiv_coset_subgroup">
<ellipse fill="#f070d1" stroke="black" cx="1166" cy="-829.323" rx="89.8687" ry="18"/>
<ellipse fill="none" stroke="black" cx="1166" cy="-829.323" rx="93.8766" ry="22"/>
<ellipse fill="none" stroke="black" cx="1166" cy="-829.323" rx="97.8845" ry="26"/>
<text text-anchor="middle" x="1166" y="-825.623" font-family="Times,serif" font-size="14.00">equiv_coset_subgroup</text>
</a>
</g>
</g>
<!-- ooGroup_equiv_coset_subgroup_subproof -->
<g id="node3" class="node"><title>ooGroup_equiv_coset_subgroup_subproof</title>
<g id="a_node3"><a xlink:href="ooGroup.html#equiv_coset_subgroup_subproof" xlink:title="equiv_coset_subgroup_subproof">
<ellipse fill="#facdef" stroke="black" cx="1815" cy="-627.323" rx="125.378" ry="18"/>
<text text-anchor="middle" x="1815" y="-623.623" font-family="Times,serif" font-size="14.00">equiv_coset_subgroup_subproof</text>
</a>
</g>
</g>
<!-- ooGroup_equiv_coset_subgroup&#45;&gt;ooGroup_equiv_coset_subgroup_subproof -->
<g id="edge3" class="edge"><title>ooGroup_equiv_coset_subgroup&#45;&gt;ooGroup_equiv_coset_subgroup_subproof</title>
<path fill="none" stroke="black" d="M1229.71,-809.494C1354.4,-770.684 1629.26,-685.134 1752.76,-646.694"/>
<polygon fill="black" stroke="black" points="1753.95,-649.991 1762.46,-643.677 1751.87,-643.307 1753.95,-649.991"/>
</g>
<!-- ooGroup_equiv_coset_subgroup&#45;&gt;ooGroup_ishprop_in_coset -->
<g id="edge4" class="edge"><title>ooGroup_equiv_coset_subgroup&#45;&gt;ooGroup_ishprop_in_coset</title>
<path fill="none" stroke="black" d="M1138.04,-804.314C1093.75,-761.571 1016.55,-672.217 1058,-601.323 1087.56,-550.766 1243.09,-479.435 1322.4,-445.589"/>
<polygon fill="black" stroke="black" points="1323.84,-448.78 1331.68,-441.652 1321.1,-442.336 1323.84,-448.78"/>
</g>
<!-- ooGroup_equiv_coset_subgroup&#45;&gt;ooGroup_in_coset -->
<g id="edge5" class="edge"><title>ooGroup_equiv_coset_subgroup&#45;&gt;ooGroup_in_coset</title>
<path fill="none" stroke="black" d="M1164,-803.048C1160.49,-750.409 1155.43,-634.254 1176,-601.323 1178.14,-597.893 1380.17,-489.428 1463.09,-445.01"/>
<polygon fill="black" stroke="black" points="1464.96,-447.976 1472.13,-440.169 1461.66,-441.806 1464.96,-447.976"/>
</g>
<!-- ooGroup_grouphom_V -->
<g id="node10" class="node"><title>ooGroup_grouphom_V</title>
<g id="a_node10"><a xlink:href="ooGroup.html#grouphom_V" xlink:title="grouphom_V">
<ellipse fill="#facdef" stroke="black" cx="1882" cy="-426.323" rx="57.6901" ry="18"/>
<text text-anchor="middle" x="1882" y="-422.623" font-family="Times,serif" font-size="14.00">grouphom_V</text>
</a>
</g>
</g>
<!-- ooGroup_equiv_coset_subgroup_subproof&#45;&gt;ooGroup_grouphom_V -->
<g id="edge6" class="edge"><title>ooGroup_equiv_coset_subgroup_subproof&#45;&gt;ooGroup_grouphom_V</title>
<path fill="none" stroke="black" d="M1821.06,-609.131C1832.85,-573.778 1858.9,-495.615 1872.82,-453.868"/>
<polygon fill="black" stroke="black" points="1876.16,-454.923 1876,-444.329 1869.52,-452.709 1876.16,-454.923"/>
</g>
<!-- ooGroup_transitive_coset -->
<g id="node4" class="node"><title>ooGroup_transitive_coset</title>
<g id="a_node4"><a xlink:href="ooGroup.html#transitive_coset" xlink:title="transitive_coset">
<ellipse fill="#f070d1" stroke="black" cx="1421" cy="-627.323" rx="65.7729" ry="18"/>
<ellipse fill="none" stroke="black" cx="1421" cy="-627.323" rx="69.7808" ry="22"/>
<ellipse fill="none" stroke="black" cx="1421" cy="-627.323" rx="73.7886" ry="26"/>
<text text-anchor="middle" x="1421" y="-623.623" font-family="Times,serif" font-size="14.00">transitive_coset</text>
</a>
</g>
</g>
<!-- ooGroup_transitive_coset&#45;&gt;ooGroup_in_coset -->
<g id="edge7" class="edge"><title>ooGroup_transitive_coset&#45;&gt;ooGroup_in_coset</title>
<path fill="none" stroke="black" d="M1430.91,-601.457C1445.49,-563.401 1472.6,-492.634 1487.5,-453.721"/>
<polygon fill="black" stroke="black" points="1490.88,-454.688 1491.19,-444.098 1484.35,-452.184 1490.88,-454.688"/>
</g>
<!-- ooGroup_grouphom_pp -->
<g id="node11" class="node"><title>ooGroup_grouphom_pp</title>
<g id="a_node11"><a xlink:href="ooGroup.html#grouphom_pp" xlink:title="grouphom_pp">
<ellipse fill="#facdef" stroke="black" cx="1746" cy="-426.323" rx="60.3893" ry="18"/>
<text text-anchor="middle" x="1746" y="-422.623" font-family="Times,serif" font-size="14.00">grouphom_pp</text>
</a>
</g>
</g>
<!-- ooGroup_transitive_coset&#45;&gt;ooGroup_grouphom_pp -->
<g id="edge8" class="edge"><title>ooGroup_transitive_coset&#45;&gt;ooGroup_grouphom_pp</title>
<path fill="none" stroke="black" d="M1457.65,-604.657C1520.78,-565.612 1649.21,-486.182 1711.11,-447.902"/>
<polygon fill="black" stroke="black" points="1713.08,-450.799 1719.74,-442.562 1709.4,-444.846 1713.08,-450.799"/>
</g>
<!-- ooGroup_symmetric_coset -->
<g id="node5" class="node"><title>ooGroup_symmetric_coset</title>
<g id="a_node5"><a xlink:href="ooGroup.html#symmetric_coset" xlink:title="symmetric_coset">
<ellipse fill="#f070d1" stroke="black" cx="1592" cy="-627.323" rx="71.488" ry="18"/>
<ellipse fill="none" stroke="black" cx="1592" cy="-627.323" rx="75.4876" ry="22"/>
<ellipse fill="none" stroke="black" cx="1592" cy="-627.323" rx="79.4873" ry="26"/>
<text text-anchor="middle" x="1592" y="-623.623" font-family="Times,serif" font-size="14.00">symmetric_coset</text>
</a>
</g>
</g>
<!-- ooGroup_symmetric_coset&#45;&gt;ooGroup_in_coset -->
<g id="edge9" class="edge"><title>ooGroup_symmetric_coset&#45;&gt;ooGroup_in_coset</title>
<path fill="none" stroke="black" d="M1579.9,-601.457C1562.03,-563.239 1528.73,-492.031 1510.58,-453.226"/>
<polygon fill="black" stroke="black" points="1513.72,-451.674 1506.31,-444.098 1507.38,-454.639 1513.72,-451.674"/>
</g>
<!-- ooGroup_symmetric_coset&#45;&gt;ooGroup_grouphom_V -->
<g id="edge10" class="edge"><title>ooGroup_symmetric_coset&#45;&gt;ooGroup_grouphom_V</title>
<path fill="none" stroke="black" d="M1626.12,-603.675C1682.54,-564.568 1794.52,-486.953 1849.72,-448.7"/>
<polygon fill="black" stroke="black" points="1851.84,-451.484 1858.07,-442.91 1847.86,-445.73 1851.84,-451.484"/>
</g>
<!-- ooGroup_reflexive_coset -->
<g id="node6" class="node"><title>ooGroup_reflexive_coset</title>
<g id="a_node6"><a xlink:href="ooGroup.html#reflexive_coset" xlink:title="reflexive_coset">
<ellipse fill="#f070d1" stroke="black" cx="1257" cy="-627.323" rx="64.2061" ry="18"/>
<ellipse fill="none" stroke="black" cx="1257" cy="-627.323" rx="68.1975" ry="22"/>
<ellipse fill="none" stroke="black" cx="1257" cy="-627.323" rx="72.1889" ry="26"/>
<text text-anchor="middle" x="1257" y="-623.623" font-family="Times,serif" font-size="14.00">reflexive_coset</text>
</a>
</g>
</g>
<!-- ooGroup_reflexive_coset&#45;&gt;ooGroup_in_coset -->
<g id="edge11" class="edge"><title>ooGroup_reflexive_coset&#45;&gt;ooGroup_in_coset</title>
<path fill="none" stroke="black" d="M1286.07,-603.078C1333.19,-563.776 1425.57,-486.732 1471.19,-448.68"/>
<polygon fill="black" stroke="black" points="1473.45,-451.357 1478.89,-442.264 1468.97,-445.981 1473.45,-451.357"/>
</g>
<!-- ooGroup_grouphom_1 -->
<g id="node9" class="node"><title>ooGroup_grouphom_1</title>
<g id="a_node9"><a xlink:href="ooGroup.html#grouphom_1" xlink:title="grouphom_1">
<ellipse fill="#facdef" stroke="black" cx="1612" cy="-426.323" rx="55.7903" ry="18"/>
<text text-anchor="middle" x="1612" y="-422.623" font-family="Times,serif" font-size="14.00">grouphom_1</text>
</a>
</g>
</g>
<!-- ooGroup_reflexive_coset&#45;&gt;ooGroup_grouphom_1 -->
<g id="edge12" class="edge"><title>ooGroup_reflexive_coset&#45;&gt;ooGroup_grouphom_1</title>
<path fill="none" stroke="black" d="M1296.01,-605.238C1364.99,-566.18 1507.58,-485.446 1575.06,-447.238"/>
<polygon fill="black" stroke="black" points="1577.09,-450.111 1584.07,-442.138 1573.64,-444.02 1577.09,-450.111"/>
</g>
<!-- ooGroup_grouphom_fun -->
<g id="node21" class="node"><title>ooGroup_grouphom_fun</title>
<g id="a_node21"><a xlink:href="ooGroup.html#grouphom_fun" xlink:title="grouphom_fun">
<ellipse fill="#f070d1" stroke="black" cx="1258" cy="-242.323" rx="63.8893" ry="18"/>
<text text-anchor="middle" x="1258" y="-238.623" font-family="Times,serif" font-size="14.00">grouphom_fun</text>
</a>
</g>
</g>
<!-- ooGroup_ishprop_in_coset&#45;&gt;ooGroup_grouphom_fun -->
<g id="edge13" class="edge"><title>ooGroup_ishprop_in_coset&#45;&gt;ooGroup_grouphom_fun</title>
<path fill="none" stroke="black" d="M1358.15,-408.345C1338.54,-375.834 1297.09,-307.117 1274.14,-269.073"/>
<polygon fill="black" stroke="black" points="1276.89,-266.858 1268.73,-260.103 1270.89,-270.474 1276.89,-266.858"/>
</g>
<!-- ooGroup_group_type -->
<g id="node25" class="node"><title>ooGroup_group_type</title>
<g id="a_node25"><a xlink:href="ooGroup.html#group_type" xlink:title="group_type">
<ellipse fill="#f070d1" stroke="black" cx="1390" cy="-242.323" rx="50.8918" ry="18"/>
<text text-anchor="middle" x="1390" y="-238.623" font-family="Times,serif" font-size="14.00">group_type</text>
</a>
</g>
</g>
<!-- ooGroup_ishprop_in_coset&#45;&gt;ooGroup_group_type -->
<g id="edge14" class="edge"><title>ooGroup_ishprop_in_coset&#45;&gt;ooGroup_group_type</title>
<path fill="none" stroke="black" d="M1371.09,-408.008C1374.77,-375.77 1382.42,-308.695 1386.78,-270.514"/>
<polygon fill="black" stroke="black" points="1390.26,-270.897 1387.92,-260.564 1383.31,-270.103 1390.26,-270.897"/>
</g>
<!-- ooGroup_in_coset&#45;&gt;ooGroup_grouphom_fun -->
<g id="edge15" class="edge"><title>ooGroup_in_coset&#45;&gt;ooGroup_grouphom_fun</title>
<path fill="none" stroke="black" d="M1477.54,-410.635C1435.21,-378.185 1337.86,-303.546 1288.25,-265.514"/>
<polygon fill="black" stroke="black" points="1290.2,-262.603 1280.14,-259.296 1285.94,-268.158 1290.2,-262.603"/>
</g>
<!-- ooGroup_in_coset&#45;&gt;ooGroup_group_type -->
<g id="edge16" class="edge"><title>ooGroup_in_coset&#45;&gt;ooGroup_group_type</title>
<path fill="none" stroke="black" d="M1487.64,-408.68C1468.66,-376.341 1428.19,-307.389 1405.77,-269.191"/>
<polygon fill="black" stroke="black" points="1408.56,-267.035 1400.48,-260.183 1402.53,-270.579 1408.56,-267.035"/>
</g>
<!-- ooGroup_grouphom_1&#45;&gt;ooGroup_grouphom_fun -->
<g id="edge17" class="edge"><title>ooGroup_grouphom_1&#45;&gt;ooGroup_grouphom_fun</title>
<path fill="none" stroke="black" d="M1582.43,-410.952C1518.89,-377.929 1369.34,-300.193 1297.66,-262.937"/>
<polygon fill="black" stroke="black" points="1298.98,-259.678 1288.49,-258.172 1295.75,-265.889 1298.98,-259.678"/>
</g>
<!-- ooGroup_grouphom_1&#45;&gt;ooGroup_group_type -->
<g id="edge18" class="edge"><title>ooGroup_grouphom_1&#45;&gt;ooGroup_group_type</title>
<path fill="none" stroke="black" d="M1591.51,-409.343C1551.6,-376.26 1463.37,-303.132 1418.06,-265.577"/>
<polygon fill="black" stroke="black" points="1420.05,-262.683 1410.12,-258.997 1415.58,-268.073 1420.05,-262.683"/>
</g>
<!-- ooGroup_Build_ooGroup -->
<g id="node31" class="node"><title>ooGroup_Build_ooGroup</title>
<g id="a_node31"><a xlink:href="ooGroup.html#Build_ooGroup" xlink:title="Build_ooGroup">
<ellipse fill="#7faaff" stroke="black" cx="1113" cy="-78.3232" rx="65.7887" ry="18"/>
<text text-anchor="middle" x="1113" y="-74.6232" font-family="Times,serif" font-size="14.00">Build_ooGroup</text>
</a>
</g>
</g>
<!-- ooGroup_grouphom_1&#45;&gt;ooGroup_Build_ooGroup -->
<g id="edge19" class="edge"><title>ooGroup_grouphom_1&#45;&gt;ooGroup_Build_ooGroup</title>
<path fill="none" stroke="black" d="M1601.89,-408.522C1579.27,-370.09 1520.94,-278.457 1450,-224.323 1362.86,-157.825 1240.78,-114.798 1169.99,-93.7074"/>
<polygon fill="black" stroke="black" points="1170.93,-90.3359 1160.34,-90.8767 1168.95,-97.0524 1170.93,-90.3359"/>
</g>
<!-- ooGroup_grouphom_V&#45;&gt;ooGroup_grouphom_fun -->
<g id="edge20" class="edge"><title>ooGroup_grouphom_V&#45;&gt;ooGroup_grouphom_fun</title>
<path fill="none" stroke="black" d="M1846.76,-411.934C1836.58,-407.974 1825.41,-403.811 1815,-400.323 1634.91,-339.984 1417.21,-282.639 1315.54,-256.741"/>
<polygon fill="black" stroke="black" points="1316.33,-253.331 1305.77,-254.26 1314.6,-260.115 1316.33,-253.331"/>
</g>
<!-- ooGroup_grouphom_V&#45;&gt;ooGroup_group_type -->
<g id="edge21" class="edge"><title>ooGroup_grouphom_V&#45;&gt;ooGroup_group_type</title>
<path fill="none" stroke="black" d="M1845.87,-412.196C1835.88,-408.318 1825.03,-404.134 1815,-400.323 1676.68,-347.778 1512.37,-287.218 1434.79,-258.738"/>
<polygon fill="black" stroke="black" points="1435.92,-255.423 1425.33,-255.263 1433.51,-261.994 1435.92,-255.423"/>
</g>
<!-- ooGroup_grouphom_V&#45;&gt;ooGroup_Build_ooGroup -->
<g id="edge22" class="edge"><title>ooGroup_grouphom_V&#45;&gt;ooGroup_Build_ooGroup</title>
<path fill="none" stroke="black" d="M1855.36,-410.298C1794.84,-374.263 1641.77,-285.235 1507,-224.323 1387.72,-170.412 1242.07,-120.344 1165.63,-95.2204"/>
<polygon fill="black" stroke="black" points="1166.35,-91.7745 1155.76,-91.9892 1164.18,-98.4271 1166.35,-91.7745"/>
</g>
<!-- ooGroup_grouphom_pp&#45;&gt;ooGroup_grouphom_fun -->
<g id="edge23" class="edge"><title>ooGroup_grouphom_pp&#45;&gt;ooGroup_grouphom_fun</title>
<path fill="none" stroke="black" d="M1708.52,-412.191C1620.91,-379.159 1402.85,-296.937 1305.84,-260.361"/>
<polygon fill="black" stroke="black" points="1306.87,-257.011 1296.28,-256.758 1304.41,-263.561 1306.87,-257.011"/>
</g>
<!-- ooGroup_grouphom_pp&#45;&gt;ooGroup_group_type -->
<g id="edge24" class="edge"><title>ooGroup_grouphom_pp&#45;&gt;ooGroup_group_type</title>
<path fill="none" stroke="black" d="M1715.65,-410.635C1650.8,-377.117 1498.86,-298.589 1427.84,-261.882"/>
<polygon fill="black" stroke="black" points="1429.27,-258.68 1418.78,-257.198 1426.06,-264.899 1429.27,-258.68"/>
</g>
<!-- ooGroup_grouphom_pp&#45;&gt;ooGroup_Build_ooGroup -->
<g id="edge25" class="edge"><title>ooGroup_grouphom_pp&#45;&gt;ooGroup_Build_ooGroup</title>
<path fill="none" stroke="black" d="M1726.73,-409.262C1683.81,-371.901 1576.07,-281.624 1474,-224.323 1370.26,-166.085 1238.57,-118.926 1166.36,-95.1319"/>
<polygon fill="black" stroke="black" points="1167.17,-91.714 1156.58,-91.9309 1165,-98.367 1167.17,-91.714"/>
</g>
<!-- ooGroup_idmap_grouphom -->
<g id="node12" class="node"><title>ooGroup_idmap_grouphom</title>
<g id="a_node12"><a xlink:href="ooGroup.html#idmap_grouphom" xlink:title="idmap_grouphom">
<ellipse fill="#facdef" stroke="black" cx="643" cy="-426.323" rx="74.1778" ry="18"/>
<ellipse fill="none" stroke="black" cx="643" cy="-426.323" rx="78.1824" ry="22"/>
<ellipse fill="none" stroke="black" cx="643" cy="-426.323" rx="82.187" ry="26"/>
<text text-anchor="middle" x="643" y="-422.623" font-family="Times,serif" font-size="14.00">idmap_grouphom</text>
</a>
</g>
</g>
<!-- ooGroup_grouphom_idmap -->
<g id="node16" class="node"><title>ooGroup_grouphom_idmap</title>
<g id="a_node16"><a xlink:href="ooGroup.html#grouphom_idmap" xlink:title="grouphom_idmap">
<ellipse fill="#f070d1" stroke="black" cx="198" cy="-242.323" rx="74.187" ry="18"/>
<text text-anchor="middle" x="198" y="-238.623" font-family="Times,serif" font-size="14.00">grouphom_idmap</text>
</a>
</g>
</g>
<!-- ooGroup_idmap_grouphom&#45;&gt;ooGroup_grouphom_idmap -->
<g id="edge26" class="edge"><title>ooGroup_idmap_grouphom&#45;&gt;ooGroup_grouphom_idmap</title>
<path fill="none" stroke="black" d="M592.818,-405.574C506.146,-369.737 329.591,-296.734 245.102,-261.799"/>
<polygon fill="black" stroke="black" points="246.333,-258.521 235.754,-257.934 243.658,-264.99 246.333,-258.521"/>
</g>
<!-- ooGroup_idmap_grouphom&#45;&gt;ooGroup_grouphom_fun -->
<g id="edge27" class="edge"><title>ooGroup_idmap_grouphom&#45;&gt;ooGroup_grouphom_fun</title>
<path fill="none" stroke="black" d="M702.808,-408.429C822.621,-372.583 1090.34,-292.483 1204.63,-258.29"/>
<polygon fill="black" stroke="black" points="1205.65,-261.639 1214.23,-255.42 1203.64,-254.933 1205.65,-261.639"/>
</g>
<!-- ooGroup_idmap_grouphom&#45;&gt;ooGroup_group_type -->
<g id="edge28" class="edge"><title>ooGroup_idmap_grouphom&#45;&gt;ooGroup_group_type</title>
<path fill="none" stroke="black" d="M703.586,-408.575C713.719,-405.733 724.141,-402.886 734,-400.323 997.765,-331.757 1067.86,-331.236 1331,-260.323 1334.63,-259.346 1338.36,-258.299 1342.12,-257.22"/>
<polygon fill="black" stroke="black" points="1343.41,-260.488 1352.02,-254.312 1341.44,-253.771 1343.41,-260.488"/>
</g>
<!-- ooGroup_idmap_grouphom&#45;&gt;ooGroup_Build_ooGroup -->
<g id="edge29" class="edge"><title>ooGroup_idmap_grouphom&#45;&gt;ooGroup_Build_ooGroup</title>
<path fill="none" stroke="black" d="M687.739,-404.378C745.348,-375.179 847.396,-320.224 926,-260.323 990.822,-210.926 1056.88,-141.08 1090.43,-103.918"/>
<polygon fill="black" stroke="black" points="1093.4,-105.851 1097.47,-96.0695 1088.19,-101.177 1093.4,-105.851"/>
</g>
<!-- ooGroup_compose_grouphom -->
<g id="node13" class="node"><title>ooGroup_compose_grouphom</title>
<g id="a_node13"><a xlink:href="ooGroup.html#compose_grouphom" xlink:title="compose_grouphom">
<ellipse fill="#facdef" stroke="black" cx="834" cy="-426.323" rx="83.3687" ry="18"/>
<ellipse fill="none" stroke="black" cx="834" cy="-426.323" rx="87.3772" ry="22"/>
<ellipse fill="none" stroke="black" cx="834" cy="-426.323" rx="91.3856" ry="26"/>
<text text-anchor="middle" x="834" y="-422.623" font-family="Times,serif" font-size="14.00">compose_grouphom</text>
</a>
</g>
</g>
<!-- ooGroup_grouphom_compose -->
<g id="node18" class="node"><title>ooGroup_grouphom_compose</title>
<g id="a_node18"><a xlink:href="ooGroup.html#grouphom_compose" xlink:title="grouphom_compose">
<ellipse fill="#f070d1" stroke="black" cx="834" cy="-242.323" rx="83.3857" ry="18"/>
<text text-anchor="middle" x="834" y="-238.623" font-family="Times,serif" font-size="14.00">grouphom_compose</text>
</a>
</g>
</g>
<!-- ooGroup_compose_grouphom&#45;&gt;ooGroup_grouphom_compose -->
<g id="edge30" class="edge"><title>ooGroup_compose_grouphom&#45;&gt;ooGroup_grouphom_compose</title>
<path fill="none" stroke="black" d="M834,-399.96C834,-365.65 834,-305.925 834,-270.667"/>
<polygon fill="black" stroke="black" points="837.5,-270.566 834,-260.566 830.5,-270.566 837.5,-270.566"/>
</g>
<!-- ooGroup_compose_grouphom&#45;&gt;ooGroup_grouphom_fun -->
<g id="edge31" class="edge"><title>ooGroup_compose_grouphom&#45;&gt;ooGroup_grouphom_fun</title>
<path fill="none" stroke="black" d="M884.303,-404.493C967.988,-368.177 1134.43,-295.946 1213.85,-261.483"/>
<polygon fill="black" stroke="black" points="1215.31,-264.664 1223.09,-257.472 1212.52,-258.243 1215.31,-264.664"/>
</g>
<!-- ooGroup_compose_grouphom&#45;&gt;ooGroup_group_type -->
<g id="edge32" class="edge"><title>ooGroup_compose_grouphom&#45;&gt;ooGroup_group_type</title>
<path fill="none" stroke="black" d="M893.766,-406.545C1005.19,-369.671 1242.46,-291.149 1343.2,-257.811"/>
<polygon fill="black" stroke="black" points="1344.41,-261.098 1352.8,-254.634 1342.21,-254.453 1344.41,-261.098"/>
</g>
<!-- ooGroup_compose_grouphom&#45;&gt;ooGroup_Build_ooGroup -->
<g id="edge33" class="edge"><title>ooGroup_compose_grouphom&#45;&gt;ooGroup_Build_ooGroup</title>
<path fill="none" stroke="black" d="M855.341,-400.907C882.478,-368.489 930.657,-310.594 971,-260.323 1015.17,-205.288 1065.75,-139.86 1093.04,-104.371"/>
<polygon fill="black" stroke="black" points="1096.14,-106.081 1099.45,-96.0184 1090.58,-101.817 1096.14,-106.081"/>
</g>
<!-- ooGroup_group_loops_2functor -->
<g id="node14" class="node"><title>ooGroup_group_loops_2functor</title>
<g id="a_node14"><a xlink:href="ooGroup.html#group_loops_2functor" xlink:title="group_loops_2functor">
<ellipse fill="#f070d1" stroke="black" cx="932" cy="-627.323" rx="89.0807" ry="18"/>
<ellipse fill="none" stroke="black" cx="932" cy="-627.323" rx="93.0825" ry="22"/>
<ellipse fill="none" stroke="black" cx="932" cy="-627.323" rx="97.0842" ry="26"/>
<text text-anchor="middle" x="932" y="-623.623" font-family="Times,serif" font-size="14.00">group_loops_2functor</text>
</a>
</g>
</g>
<!-- ooGroup_loops_functor_group -->
<g id="node19" class="node"><title>ooGroup_loops_functor_group</title>
<g id="a_node19"><a xlink:href="ooGroup.html#loops_functor_group" xlink:title="loops_functor_group">
<ellipse fill="#facdef" stroke="black" cx="1028" cy="-426.323" rx="84.485" ry="18"/>
<text text-anchor="middle" x="1028" y="-422.623" font-family="Times,serif" font-size="14.00">loops_functor_group</text>
</a>
</g>
</g>
<!-- ooGroup_group_loops_2functor&#45;&gt;ooGroup_loops_functor_group -->
<g id="edge34" class="edge"><title>ooGroup_group_loops_2functor&#45;&gt;ooGroup_loops_functor_group</title>
<path fill="none" stroke="black" d="M944.354,-601.457C962.561,-563.337 996.443,-492.395 1015.01,-453.524"/>
<polygon fill="black" stroke="black" points="1018.23,-454.904 1019.38,-444.372 1011.91,-451.887 1018.23,-454.904"/>
</g>
<!-- ooGroup_group_loops_functor -->
<g id="node20" class="node"><title>ooGroup_group_loops_functor</title>
<g id="a_node20"><a xlink:href="ooGroup.html#group_loops_functor" xlink:title="group_loops_functor">
<ellipse fill="#f070d1" stroke="black" cx="140" cy="-426.323" rx="84.485" ry="18"/>
<text text-anchor="middle" x="140" y="-422.623" font-family="Times,serif" font-size="14.00">group_loops_functor</text>
</a>
</g>
</g>
<!-- ooGroup_group_loops_2functor&#45;&gt;ooGroup_group_loops_functor -->
<g id="edge35" class="edge"><title>ooGroup_group_loops_2functor&#45;&gt;ooGroup_group_loops_functor</title>
<path fill="none" stroke="black" d="M860.612,-609.658C707.965,-571.848 353.974,-483.95 234,-452.323 223.345,-449.514 212.032,-446.453 201.085,-443.45"/>
<polygon fill="black" stroke="black" points="201.735,-439.998 191.164,-440.717 199.875,-446.747 201.735,-439.998"/>
</g>
<!-- ooGroup_group_loops_2functor&#45;&gt;ooGroup_grouphom_fun -->
<g id="edge36" class="edge"><title>ooGroup_group_loops_2functor&#45;&gt;ooGroup_grouphom_fun</title>
<path fill="none" stroke="black" d="M988.791,-606.159C1076.32,-572.254 1237.42,-504.3 1269,-452.323 1303.67,-395.249 1283.18,-312.523 1268.65,-269.941"/>
<polygon fill="black" stroke="black" points="1271.86,-268.515 1265.22,-260.263 1265.27,-270.858 1271.86,-268.515"/>
</g>
<!-- ooGroup_loops_group -->
<g id="node23" class="node"><title>ooGroup_loops_group</title>
<g id="a_node23"><a xlink:href="ooGroup.html#loops_group" xlink:title="loops_group">
<ellipse fill="#f070d1" stroke="black" cx="1205" cy="-426.323" rx="54.6905" ry="18"/>
<text text-anchor="middle" x="1205" y="-422.623" font-family="Times,serif" font-size="14.00">loops_group</text>
</a>
</g>
</g>
<!-- ooGroup_group_loops_2functor&#45;&gt;ooGroup_loops_group -->
<g id="edge37" class="edge"><title>ooGroup_group_loops_2functor&#45;&gt;ooGroup_loops_group</title>
<path fill="none" stroke="black" d="M965.202,-602.878C1018.64,-563.533 1122.95,-486.736 1174.57,-448.73"/>
<polygon fill="black" stroke="black" points="1176.7,-451.504 1182.68,-442.757 1172.55,-445.867 1176.7,-451.504"/>
</g>
<!-- ooGroup_group_loops_functor_idmap -->
<g id="node15" class="node"><title>ooGroup_group_loops_functor_idmap</title>
<g id="a_node15"><a xlink:href="ooGroup.html#group_loops_functor_idmap" xlink:title="group_loops_functor_idmap">
<ellipse fill="#facdef" stroke="black" cx="138" cy="-627.323" rx="111.271" ry="18"/>
<ellipse fill="none" stroke="black" cx="138" cy="-627.323" rx="115.276" ry="22"/>
<ellipse fill="none" stroke="black" cx="138" cy="-627.323" rx="119.28" ry="26"/>
<text text-anchor="middle" x="138" y="-623.623" font-family="Times,serif" font-size="14.00">group_loops_functor_idmap</text>
</a>
</g>
</g>
<!-- ooGroup_group_loops_functor_idmap&#45;&gt;ooGroup_grouphom_idmap -->
<g id="edge38" class="edge"><title>ooGroup_group_loops_functor_idmap&#45;&gt;ooGroup_grouphom_idmap</title>
<path fill="none" stroke="black" d="M110.745,-601.692C69.7686,-559.891 0.292083,-474.278 32,-400.323 58.0727,-339.512 120.321,-291.034 160.743,-264.527"/>
<polygon fill="black" stroke="black" points="162.744,-267.401 169.265,-259.05 158.96,-261.512 162.744,-267.401"/>
</g>
<!-- ooGroup_group_loops_functor_idmap&#45;&gt;ooGroup_loops_functor_group -->
<g id="edge39" class="edge"><title>ooGroup_group_loops_functor_idmap&#45;&gt;ooGroup_loops_functor_group</title>
<path fill="none" stroke="black" d="M225.517,-609.679C372.466,-579.696 677.873,-515.851 934,-452.323 944.931,-449.612 956.528,-446.554 967.707,-443.513"/>
<polygon fill="black" stroke="black" points="968.678,-446.876 977.395,-440.854 966.825,-440.126 968.678,-446.876"/>
</g>
<!-- ooGroup_group_loops_functor_idmap&#45;&gt;ooGroup_group_loops_functor -->
<g id="edge40" class="edge"><title>ooGroup_group_loops_functor_idmap&#45;&gt;ooGroup_group_loops_functor</title>
<path fill="none" stroke="black" d="M138.261,-601.046C138.638,-563.209 139.33,-493.658 139.718,-454.69"/>
<polygon fill="black" stroke="black" points="143.219,-454.597 139.819,-444.562 136.219,-454.527 143.219,-454.597"/>
</g>
<!-- ooGroup_group_loops_functor_idmap&#45;&gt;ooGroup_grouphom_fun -->
<g id="edge41" class="edge"><title>ooGroup_group_loops_functor_idmap&#45;&gt;ooGroup_grouphom_fun</title>
<path fill="none" stroke="black" d="M121.061,-601.301C87.774,-548.596 19.3756,-431.581 47,-400.323 214.56,-210.723 927.658,-303.373 1177,-260.323 1184.12,-259.093 1191.57,-257.654 1198.93,-256.134"/>
<polygon fill="black" stroke="black" points="1199.83,-259.521 1208.89,-254.024 1198.38,-252.673 1199.83,-259.521"/>
</g>
<!-- ooGroup_group_loops_functor_compose -->
<g id="node17" class="node"><title>ooGroup_group_loops_functor_compose</title>
<g id="a_node17"><a xlink:href="ooGroup.html#group_loops_functor_compose" xlink:title="group_loops_functor_compose">
<ellipse fill="#facdef" stroke="black" cx="689" cy="-627.323" rx="120.464" ry="18"/>
<ellipse fill="none" stroke="black" cx="689" cy="-627.323" rx="124.472" ry="22"/>
<ellipse fill="none" stroke="black" cx="689" cy="-627.323" rx="128.479" ry="26"/>
<text text-anchor="middle" x="689" y="-623.623" font-family="Times,serif" font-size="14.00">group_loops_functor_compose</text>
</a>
</g>
</g>
<!-- ooGroup_group_loops_functor_compose&#45;&gt;ooGroup_grouphom_compose -->
<g id="edge42" class="edge"><title>ooGroup_group_loops_functor_compose&#45;&gt;ooGroup_grouphom_compose</title>
<path fill="none" stroke="black" d="M654.163,-602.257C600.649,-560.552 508.714,-474.192 552,-400.323 598.242,-321.408 699.908,-278.934 767.681,-258.487"/>
<polygon fill="black" stroke="black" points="768.814,-261.803 777.424,-255.629 766.843,-255.086 768.814,-261.803"/>
</g>
<!-- ooGroup_group_loops_functor_compose&#45;&gt;ooGroup_loops_functor_group -->
<g id="edge43" class="edge"><title>ooGroup_group_loops_functor_compose&#45;&gt;ooGroup_loops_functor_group</title>
<path fill="none" stroke="black" d="M730.568,-602.677C796.963,-563.31 925.969,-486.819 990.023,-448.84"/>
<polygon fill="black" stroke="black" points="992.171,-451.636 998.987,-443.525 988.6,-445.615 992.171,-451.636"/>
</g>
<!-- ooGroup_group_loops_functor_compose&#45;&gt;ooGroup_group_loops_functor -->
<g id="edge44" class="edge"><title>ooGroup_group_loops_functor_compose&#45;&gt;ooGroup_group_loops_functor</title>
<path fill="none" stroke="black" d="M626.824,-604.559C517.768,-564.632 293.95,-482.688 192.297,-445.47"/>
<polygon fill="black" stroke="black" points="193.443,-442.163 182.849,-442.011 191.036,-448.736 193.443,-442.163"/>
</g>
<!-- ooGroup_group_loops_functor_compose&#45;&gt;ooGroup_grouphom_fun -->
<g id="edge45" class="edge"><title>ooGroup_group_loops_functor_compose&#45;&gt;ooGroup_grouphom_fun</title>
<path fill="none" stroke="black" d="M761.245,-605.771C870.111,-572.053 1069.04,-505.213 1121,-452.323 1138.35,-434.66 1129.08,-422.026 1141,-400.323 1168.49,-350.281 1210.01,-298.177 1235.48,-268.072"/>
<polygon fill="black" stroke="black" points="1238.39,-270.061 1242.22,-260.184 1233.06,-265.515 1238.39,-270.061"/>
</g>
<!-- ooGroup_group_loops_functor_compose&#45;&gt;ooGroup_loops_group -->
<g id="edge46" class="edge"><title>ooGroup_group_loops_functor_compose&#45;&gt;ooGroup_loops_group</title>
<path fill="none" stroke="black" d="M748.444,-604.168C852.87,-563.49 1066.99,-480.082 1160.1,-443.812"/>
<polygon fill="black" stroke="black" points="1161.48,-447.034 1169.52,-440.142 1158.94,-440.511 1161.48,-447.034"/>
</g>
<!-- ooGroup_ooGroupHom -->
<g id="node22" class="node"><title>ooGroup_ooGroupHom</title>
<g id="a_node22"><a xlink:href="ooGroup.html#ooGroupHom" xlink:title="ooGroupHom">
<ellipse fill="#f070d1" stroke="black" cx="902" cy="-78.3232" rx="59.5901" ry="18"/>
<text text-anchor="middle" x="902" y="-74.6232" font-family="Times,serif" font-size="14.00">ooGroupHom</text>
</a>
</g>
</g>
<!-- ooGroup_grouphom_compose&#45;&gt;ooGroup_ooGroupHom -->
<g id="edge47" class="edge"><title>ooGroup_grouphom_compose&#45;&gt;ooGroup_ooGroupHom</title>
<path fill="none" stroke="black" d="M841.537,-224.146C853.434,-195.454 876.643,-139.479 890.59,-105.843"/>
<polygon fill="black" stroke="black" points="893.832,-107.16 894.429,-96.5821 887.366,-104.479 893.832,-107.16"/>
</g>
<!-- ooGroup_group_loops -->
<g id="node24" class="node"><title>ooGroup_group_loops</title>
<g id="a_node24"><a xlink:href="ooGroup.html#group_loops" xlink:title="group_loops">
<ellipse fill="#f070d1" stroke="black" cx="1113" cy="-242.323" rx="54.6905" ry="18"/>
<text text-anchor="middle" x="1113" y="-238.623" font-family="Times,serif" font-size="14.00">group_loops</text>
</a>
</g>
</g>
<!-- ooGroup_loops_functor_group&#45;&gt;ooGroup_group_loops -->
<g id="edge48" class="edge"><title>ooGroup_loops_functor_group&#45;&gt;ooGroup_group_loops</title>
<path fill="none" stroke="black" d="M1036.3,-408.345C1051.22,-376.055 1082.64,-308.048 1100.28,-269.853"/>
<polygon fill="black" stroke="black" points="1103.64,-270.92 1104.66,-260.374 1097.29,-267.984 1103.64,-270.92"/>
</g>
<!-- ooGroup_loops_functor_group&#45;&gt;ooGroup_group_type -->
<g id="edge49" class="edge"><title>ooGroup_loops_functor_group&#45;&gt;ooGroup_group_type</title>
<path fill="none" stroke="black" d="M1060.76,-409.67C1127.72,-375.636 1279.95,-298.26 1351.49,-261.895"/>
<polygon fill="black" stroke="black" points="1353.3,-264.904 1360.63,-257.253 1350.13,-258.664 1353.3,-264.904"/>
</g>
<!-- ooGroup_grouphom_fun&#45;&gt;ooGroup_ooGroupHom -->
<g id="edge50" class="edge"><title>ooGroup_grouphom_fun&#45;&gt;ooGroup_ooGroupHom</title>
<path fill="none" stroke="black" d="M1224.51,-226.894C1159.32,-196.866 1015.55,-130.633 944.063,-97.7007"/>
<polygon fill="black" stroke="black" points="945.432,-94.4778 934.885,-93.4725 942.503,-100.836 945.432,-94.4778"/>
</g>
<!-- ooGroup_loops_group&#45;&gt;ooGroup_group_loops -->
<g id="edge51" class="edge"><title>ooGroup_loops_group&#45;&gt;ooGroup_group_loops</title>
<path fill="none" stroke="black" d="M1196.01,-408.345C1179.76,-375.834 1145.4,-307.117 1126.38,-269.073"/>
<polygon fill="black" stroke="black" points="1129.49,-267.482 1121.89,-260.103 1123.23,-270.613 1129.49,-267.482"/>
</g>
<!-- ooGroup_loops_group&#45;&gt;ooGroup_group_type -->
<g id="edge52" class="edge"><title>ooGroup_loops_group&#45;&gt;ooGroup_group_type</title>
<path fill="none" stroke="black" d="M1222.4,-409.013C1255.54,-376.052 1327.78,-304.212 1365.68,-266.516"/>
<polygon fill="black" stroke="black" points="1368.15,-268.987 1372.78,-259.453 1363.22,-264.024 1368.15,-268.987"/>
</g>
<!-- ooGroup_group_loops&#45;&gt;ooGroup_Build_ooGroup -->
<g id="edge53" class="edge"><title>ooGroup_group_loops&#45;&gt;ooGroup_Build_ooGroup</title>
<path fill="none" stroke="black" d="M1113,-224.146C1113,-195.7 1113,-140.438 1113,-106.714"/>
<polygon fill="black" stroke="black" points="1116.5,-106.582 1113,-96.5821 1109.5,-106.582 1116.5,-106.582"/>
</g>
<!-- ooGroup_ooGroup -->
<g id="node32" class="node"><title>ooGroup_ooGroup</title>
<g id="a_node32"><a xlink:href="ooGroup.html#ooGroup" xlink:title="ooGroup">
<ellipse fill="#e2cdfa" stroke="black" cx="1390" cy="-78.3232" rx="42.4939" ry="18"/>
<text text-anchor="middle" x="1390" y="-74.6232" font-family="Times,serif" font-size="14.00">ooGroup</text>
</a>
</g>
</g>
<!-- ooGroup_group_type&#45;&gt;ooGroup_ooGroup -->
<g id="edge54" class="edge"><title>ooGroup_group_type&#45;&gt;ooGroup_ooGroup</title>
<path fill="none" stroke="black" d="M1390,-224.146C1390,-195.7 1390,-140.438 1390,-106.714"/>
<polygon fill="black" stroke="black" points="1393.5,-106.582 1390,-96.5821 1386.5,-106.582 1393.5,-106.582"/>
</g>
<!-- ooGroup_ooGroup_rec -->
<g id="node26" class="node"><title>ooGroup_ooGroup_rec</title>
<g id="a_node26"><a xlink:href="ooGroup.html#ooGroup_rec" xlink:title="ooGroup_rec">
<ellipse fill="#f070d1" stroke="black" cx="308" cy="-426.323" rx="57.3664" ry="18"/>
<ellipse fill="none" stroke="black" cx="308" cy="-426.323" rx="61.3784" ry="22"/>
<ellipse fill="none" stroke="black" cx="308" cy="-426.323" rx="65.3904" ry="26"/>
<text text-anchor="middle" x="308" y="-422.623" font-family="Times,serif" font-size="14.00">ooGroup_rec</text>
</a>
</g>
</g>
<!-- ooGroup_ooGroup_rect -->
<g id="node28" class="node"><title>ooGroup_ooGroup_rect</title>
<g id="a_node28"><a xlink:href="ooGroup.html#ooGroup_rect" xlink:title="ooGroup_rect">
<ellipse fill="#f070d1" stroke="black" cx="457" cy="-242.323" rx="59.5901" ry="18"/>
<text text-anchor="middle" x="457" y="-238.623" font-family="Times,serif" font-size="14.00">ooGroup_rect</text>
</a>
</g>
</g>
<!-- ooGroup_ooGroup_rec&#45;&gt;ooGroup_ooGroup_rect -->
<g id="edge55" class="edge"><title>ooGroup_ooGroup_rec&#45;&gt;ooGroup_ooGroup_rect</title>
<path fill="none" stroke="black" d="M328.095,-401.508C356.407,-366.545 407.77,-303.117 436.37,-267.799"/>
<polygon fill="black" stroke="black" points="439.213,-269.85 442.786,-259.876 433.773,-265.445 439.213,-269.85"/>
</g>
<!-- ooGroup_ooGroup_ind -->
<g id="node27" class="node"><title>ooGroup_ooGroup_ind</title>
<g id="a_node27"><a xlink:href="ooGroup.html#ooGroup_ind" xlink:title="ooGroup_ind">
<ellipse fill="#7fffd4" stroke="black" cx="457" cy="-426.323" rx="57.7089" ry="18"/>
<ellipse fill="none" stroke="black" cx="457" cy="-426.323" rx="61.6995" ry="22"/>
<ellipse fill="none" stroke="black" cx="457" cy="-426.323" rx="65.6901" ry="26"/>
<text text-anchor="middle" x="457" y="-422.623" font-family="Times,serif" font-size="14.00">ooGroup_ind</text>
</a>
</g>
</g>
<!-- ooGroup_ooGroup_ind&#45;&gt;ooGroup_ooGroup_rect -->
<g id="edge56" class="edge"><title>ooGroup_ooGroup_ind&#45;&gt;ooGroup_ooGroup_rect</title>
<path fill="none" stroke="black" d="M457,-399.96C457,-365.65 457,-305.925 457,-270.667"/>
<polygon fill="black" stroke="black" points="460.5,-270.566 457,-260.566 453.5,-270.566 460.5,-270.566"/>
</g>
<!-- ooGroup_ooGroup_rect&#45;&gt;ooGroup_Build_ooGroup -->
<g id="edge57" class="edge"><title>ooGroup_ooGroup_rect&#45;&gt;ooGroup_Build_ooGroup</title>
<path fill="none" stroke="black" d="M503.129,-230.791C619.548,-201.686 925.16,-125.283 1054.18,-93.028"/>
<polygon fill="black" stroke="black" points="1055.41,-96.3274 1064.27,-90.5065 1053.72,-89.5364 1055.41,-96.3274"/>
</g>
<!-- ooGroup_isconn_classifying_space -->
<g id="node29" class="node"><title>ooGroup_isconn_classifying_space</title>
<g id="a_node29"><a xlink:href="ooGroup.html#isconn_classifying_space" xlink:title="isconn_classifying_space">
<ellipse fill="#f070d1" stroke="black" cx="783" cy="-829.323" rx="100.176" ry="18"/>
<ellipse fill="none" stroke="black" cx="783" cy="-829.323" rx="104.179" ry="22"/>
<ellipse fill="none" stroke="black" cx="783" cy="-829.323" rx="108.182" ry="26"/>
<text text-anchor="middle" x="783" y="-825.623" font-family="Times,serif" font-size="14.00">isconn_classifying_space</text>
</a>
</g>
</g>
<!-- ooGroup_classifying_space -->
<g id="node30" class="node"><title>ooGroup_classifying_space</title>
<g id="a_node30"><a xlink:href="ooGroup.html#classifying_space" xlink:title="classifying_space">
<ellipse fill="#f070d1" stroke="black" cx="257" cy="-829.323" rx="72.608" ry="18"/>
<ellipse fill="none" stroke="black" cx="257" cy="-829.323" rx="76.5978" ry="22"/>
<ellipse fill="none" stroke="black" cx="257" cy="-829.323" rx="80.5876" ry="26"/>
<text text-anchor="middle" x="257" y="-825.623" font-family="Times,serif" font-size="14.00">classifying_space</text>
</a>
</g>
</g>
</g>
</svg>
