<?xml version="1.0" encoding="UTF-8" standalone="no"?>
<!DOCTYPE svg PUBLIC "-//W3C//DTD SVG 1.1//EN"
 "http://www.w3.org/Graphics/SVG/1.1/DTD/svg11.dtd">
<!-- Generated by graphviz version 2.26.3 (20100126.1600)
 -->
<!-- Title: HoTT_categories_Functor_Sum Pages: 1 -->
<svg width="676pt" height="342pt"
 viewBox="0.00 0.00 676.00 342.00" xmlns="http://www.w3.org/2000/svg" xmlns:xlink="http://www.w3.org/1999/xlink">
<g id="graph1" class="graph" transform="scale(1 1) rotate(0) translate(4 338)">
<title>HoTT_categories_Functor_Sum</title>
<polygon fill="white" stroke="white" points="-4,5 -4,-338 673,-338 673,5 -4,5"/>
<g id="graph2" class="cluster"><title>cluster_Sum</title>
<polygon fill="#ffffc3" stroke="black" points="14.1376,-8 14.1376,-326 653.862,-326 653.862,-8 14.1376,-8"/>
<text text-anchor="middle" x="37.6376" y="-309.4" font-family="Times Roman,serif" font-size="14.00">Sum</text>
</g>
<!-- Sum_swap_involutive -->
<g id="node1" class="node"><title>Sum_swap_involutive</title>
<a xlink:href="Sum.html#swap_involutive" xlink:title="swap_involutive">
<ellipse fill="#facdef" stroke="black" cx="358.37" cy="-265" rx="90.0502" ry="18.3848"/>
<ellipse fill="none" stroke="black" cx="358.37" cy="-265" rx="94.0299" ry="22.3848"/>
<ellipse fill="none" stroke="black" cx="358.37" cy="-265" rx="98.0096" ry="26.3848"/>
<text text-anchor="middle" x="358.37" y="-261.4" font-family="Times Roman,serif" font-size="14.00">swap_involutive</text>
</a>
</g>
<!-- Sum_swap_involutive_helper -->
<g id="node2" class="node"><title>Sum_swap_involutive_helper</title>
<a xlink:href="Sum.html#swap_involutive_helper" xlink:title="swap_involutive_helper">
<ellipse fill="#f070d1" stroke="black" cx="251.37" cy="-183" rx="126.072" ry="18.3848"/>
<text text-anchor="middle" x="251.37" y="-179.4" font-family="Times Roman,serif" font-size="14.00">swap_involutive_helper</text>
</a>
</g>
<!-- Sum_swap_involutive&#45;&gt;Sum_swap_involutive_helper -->
<g id="edge2" class="edge"><title>Sum_swap_involutive&#45;&gt;Sum_swap_involutive_helper</title>
<path fill="none" stroke="black" d="M325.685,-239.952C312.249,-229.655 296.738,-217.767 283.373,-207.525"/>
<polygon fill="black" stroke="black" points="285.433,-204.694 275.367,-201.39 281.175,-210.25 285.433,-204.694"/>
</g>
<!-- Sum_swap -->
<g id="node3" class="node"><title>Sum_swap</title>
<a xlink:href="Sum.html#swap" xlink:title="swap">
<ellipse fill="#f070d1" stroke="black" cx="570.37" cy="-183" rx="36.977" ry="18.3848"/>
<text text-anchor="middle" x="570.37" y="-179.4" font-family="Times Roman,serif" font-size="14.00">swap</text>
</a>
</g>
<!-- Sum_swap_involutive&#45;&gt;Sum_swap -->
<g id="edge4" class="edge"><title>Sum_swap_involutive&#45;&gt;Sum_swap</title>
<path fill="none" stroke="black" d="M414.626,-243.241C451.422,-229.008 498.562,-210.775 531.295,-198.114"/>
<polygon fill="black" stroke="black" points="532.899,-201.246 540.963,-194.374 530.374,-194.718 532.899,-201.246"/>
</g>
<!-- Sum_sum -->
<g id="node4" class="node"><title>Sum_sum</title>
<a xlink:href="Sum.html#sum" xlink:title="sum">
<ellipse fill="#f070d1" stroke="black" cx="328.37" cy="-109" rx="31.8198" ry="18.3848"/>
<text text-anchor="middle" x="328.37" y="-105.4" font-family="Times Roman,serif" font-size="14.00">sum</text>
</a>
</g>
<!-- Sum_swap&#45;&gt;Sum_sum -->
<g id="edge6" class="edge"><title>Sum_swap&#45;&gt;Sum_sum</title>
<path fill="none" stroke="black" d="M538.733,-173.326C494.477,-159.793 414.185,-135.241 366.626,-120.698"/>
<polygon fill="black" stroke="black" points="367.585,-117.331 356.999,-117.754 365.539,-124.026 367.585,-117.331"/>
</g>
<!-- Sum_inr -->
<g id="node7" class="node"><title>Sum_inr</title>
<a xlink:href="Sum.html#inr" xlink:title="inr">
<ellipse fill="#f070d1" stroke="black" cx="464.37" cy="-109" rx="27" ry="18.3848"/>
<text text-anchor="middle" x="464.37" y="-105.4" font-family="Times Roman,serif" font-size="14.00">inr</text>
</a>
</g>
<!-- Sum_swap&#45;&gt;Sum_inr -->
<g id="edge8" class="edge"><title>Sum_swap&#45;&gt;Sum_inr</title>
<path fill="none" stroke="black" d="M548.664,-167.846C532.215,-156.364 509.502,-140.507 491.797,-128.147"/>
<polygon fill="black" stroke="black" points="493.76,-125.249 483.557,-122.394 489.753,-130.988 493.76,-125.249"/>
</g>
<!-- Sum_inl -->
<g id="node8" class="node"><title>Sum_inl</title>
<a xlink:href="Sum.html#inl" xlink:title="inl">
<ellipse fill="#f070d1" stroke="black" cx="592.37" cy="-109" rx="27" ry="18.3848"/>
<text text-anchor="middle" x="592.37" y="-105.4" font-family="Times Roman,serif" font-size="14.00">inl</text>
</a>
</g>
<!-- Sum_swap&#45;&gt;Sum_inl -->
<g id="edge10" class="edge"><title>Sum_swap&#45;&gt;Sum_inl</title>
<path fill="none" stroke="black" d="M575.922,-164.327C578.382,-156.052 581.329,-146.141 584.044,-137.008"/>
<polygon fill="black" stroke="black" points="587.478,-137.739 586.973,-127.156 580.768,-135.744 587.478,-137.739"/>
</g>
<!-- Sum_sum_subproof0 -->
<g id="node5" class="node"><title>Sum_sum_subproof0</title>
<a xlink:href="Sum.html#sum_subproof0" xlink:title="sum_subproof0">
<ellipse fill="#facdef" stroke="black" cx="178.37" cy="-35" rx="85.0596" ry="18.3848"/>
<text text-anchor="middle" x="178.37" y="-31.4" font-family="Times Roman,serif" font-size="14.00">sum_subproof0</text>
</a>
</g>
<!-- Sum_sum&#45;&gt;Sum_sum_subproof0 -->
<g id="edge12" class="edge"><title>Sum_sum&#45;&gt;Sum_sum_subproof0</title>
<path fill="none" stroke="black" d="M303.936,-96.9459C281.807,-86.0286 248.683,-69.6876 222.012,-56.53"/>
<polygon fill="black" stroke="black" points="223.393,-53.3083 212.876,-52.0228 220.296,-59.5859 223.393,-53.3083"/>
</g>
<!-- Sum_sum_subproof -->
<g id="node6" class="node"><title>Sum_sum_subproof</title>
<a xlink:href="Sum.html#sum_subproof" xlink:title="sum_subproof">
<ellipse fill="#facdef" stroke="black" cx="500.37" cy="-35" rx="79.196" ry="18.3848"/>
<text text-anchor="middle" x="500.37" y="-31.4" font-family="Times Roman,serif" font-size="14.00">sum_subproof</text>
</a>
</g>
<!-- Sum_sum&#45;&gt;Sum_sum_subproof -->
<g id="edge14" class="edge"><title>Sum_sum&#45;&gt;Sum_sum_subproof</title>
<path fill="none" stroke="black" d="M354.121,-97.9215C380.109,-86.7404 420.849,-69.2127 452.737,-55.4934"/>
<polygon fill="black" stroke="black" points="454.52,-58.5364 462.323,-51.3692 451.754,-52.1063 454.52,-58.5364"/>
</g>
</g>
</svg>
