<?xml version="1.0" encoding="UTF-8" standalone="no"?>
<!DOCTYPE svg PUBLIC "-//W3C//DTD SVG 1.1//EN"
 "http://www.w3.org/Graphics/SVG/1.1/DTD/svg11.dtd">
<!-- Generated by graphviz version 2.26.3 (20100126.1600)
 -->
<!-- Title: HoTT_types_ObjectClassifier Pages: 1 -->
<svg width="1084pt" height="546pt"
 viewBox="0.00 0.00 1084.00 546.00" xmlns="http://www.w3.org/2000/svg" xmlns:xlink="http://www.w3.org/1999/xlink">
<g id="graph1" class="graph" transform="scale(1 1) rotate(0) translate(4 542)">
<title>HoTT_types_ObjectClassifier</title>
<polygon fill="white" stroke="white" points="-4,5 -4,-542 1081,-542 1081,5 -4,5"/>
<g id="graph2" class="cluster"><title>cluster_ObjectClassifier</title>
<polygon fill="#ffffc3" stroke="black" points="8,-12.8862 8,-525.114 1068,-525.114 1068,-12.8862 8,-12.8862"/>
<text text-anchor="middle" x="69" y="-508.514" font-family="Times Roman,serif" font-size="14.00">ObjectClassifier</text>
</g>
<!-- ObjectClassifier_objclasspb_is_fibrantreplacement -->
<g id="node1" class="node"><title>ObjectClassifier_objclasspb_is_fibrantreplacement</title>
<a xlink:href="ObjectClassifier.html#objclasspb_is_fibrantreplacement" xlink:title="objclasspb_is_fibrantreplacement">
<ellipse fill="#facdef" stroke="black" cx="881" cy="-426.886" rx="171.12" ry="18.3848"/>
<ellipse fill="none" stroke="black" cx="881" cy="-426.886" rx="175.12" ry="22.3848"/>
<ellipse fill="none" stroke="black" cx="881" cy="-426.886" rx="179.12" ry="26.3848"/>
<text text-anchor="middle" x="881" y="-423.286" font-family="Times Roman,serif" font-size="14.00">objclasspb_is_fibrantreplacement</text>
</a>
</g>
<!-- ObjectClassifier_pullback -->
<g id="node16" class="node"><title>ObjectClassifier_pullback</title>
<a xlink:href="ObjectClassifier.html#pullback" xlink:title="pullback">
<ellipse fill="#f070d1" stroke="black" cx="881" cy="-294.886" rx="51.1176" ry="18.3848"/>
<text text-anchor="middle" x="881" y="-291.286" font-family="Times Roman,serif" font-size="14.00">pullback</text>
</a>
</g>
<!-- ObjectClassifier_objclasspb_is_fibrantreplacement&#45;&gt;ObjectClassifier_pullback -->
<g id="edge2" class="edge"><title>ObjectClassifier_objclasspb_is_fibrantreplacement&#45;&gt;ObjectClassifier_pullback</title>
<path fill="none" stroke="black" d="M881,-400.174C881,-377.932 881,-346.332 881,-323.561"/>
<polygon fill="black" stroke="black" points="884.5,-323.479 881,-313.479 877.5,-323.479 884.5,-323.479"/>
</g>
<!-- ObjectClassifier_topmap -->
<g id="node2" class="node"><title>ObjectClassifier_topmap</title>
<a xlink:href="ObjectClassifier.html#topmap" xlink:title="topmap">
<ellipse fill="#f070d1" stroke="black" cx="628" cy="-426.886" rx="48.0833" ry="18.3848"/>
<ellipse fill="none" stroke="black" cx="628" cy="-426.886" rx="52.0833" ry="22.3848"/>
<ellipse fill="none" stroke="black" cx="628" cy="-426.886" rx="56.0833" ry="26.3848"/>
<text text-anchor="middle" x="628" y="-423.286" font-family="Times Roman,serif" font-size="14.00">topmap</text>
</a>
</g>
<!-- ObjectClassifier_FamequivPow -->
<g id="node3" class="node"><title>ObjectClassifier_FamequivPow</title>
<a xlink:href="ObjectClassifier.html#FamequivPow" xlink:title="FamequivPow">
<ellipse fill="#facdef" stroke="black" cx="468" cy="-426.886" rx="78.0352" ry="18.3848"/>
<ellipse fill="none" stroke="black" cx="468" cy="-426.886" rx="82.012" ry="22.3848"/>
<ellipse fill="none" stroke="black" cx="468" cy="-426.886" rx="85.9889" ry="26.3848"/>
<text text-anchor="middle" x="468" y="-423.286" font-family="Times Roman,serif" font-size="14.00">FamequivPow</text>
</a>
</g>
<!-- ObjectClassifier_PowisoFam -->
<g id="node4" class="node"><title>ObjectClassifier_PowisoFam</title>
<a xlink:href="ObjectClassifier.html#PowisoFam" xlink:title="PowisoFam">
<ellipse fill="#facdef" stroke="black" cx="440" cy="-294.886" rx="65.0538" ry="18.3848"/>
<text text-anchor="middle" x="440" y="-291.286" font-family="Times Roman,serif" font-size="14.00">PowisoFam</text>
</a>
</g>
<!-- ObjectClassifier_FamequivPow&#45;&gt;ObjectClassifier_PowisoFam -->
<g id="edge4" class="edge"><title>ObjectClassifier_FamequivPow&#45;&gt;ObjectClassifier_PowisoFam</title>
<path fill="none" stroke="black" d="M462.334,-400.174C457.616,-377.932 450.913,-346.332 446.083,-323.561"/>
<polygon fill="black" stroke="black" points="449.443,-322.535 443.944,-313.479 442.595,-323.988 449.443,-322.535"/>
</g>
<!-- ObjectClassifier_transport_exp -->
<g id="node5" class="node"><title>ObjectClassifier_transport_exp</title>
<a xlink:href="ObjectClassifier.html#transport_exp" xlink:title="transport_exp">
<ellipse fill="#facdef" stroke="black" cx="112" cy="-175.886" rx="79.9031" ry="18.3848"/>
<text text-anchor="middle" x="112" y="-172.286" font-family="Times Roman,serif" font-size="14.00">transport_exp</text>
</a>
</g>
<!-- ObjectClassifier_PowisoFam&#45;&gt;ObjectClassifier_transport_exp -->
<g id="edge6" class="edge"><title>ObjectClassifier_PowisoFam&#45;&gt;ObjectClassifier_transport_exp</title>
<path fill="none" stroke="black" d="M399.781,-280.294C340.716,-258.866 230.44,-218.857 164.884,-195.073"/>
<polygon fill="black" stroke="black" points="165.748,-191.663 155.154,-191.543 163.361,-198.244 165.748,-191.663"/>
</g>
<!-- ObjectClassifier_f2p -->
<g id="node9" class="node"><title>ObjectClassifier_f2p</title>
<a xlink:href="ObjectClassifier.html#f2p" xlink:title="f2p">
<ellipse fill="#f070d1" stroke="black" cx="237" cy="-175.886" rx="27" ry="18.3848"/>
<text text-anchor="middle" x="237" y="-172.286" font-family="Times Roman,serif" font-size="14.00">f2p</text>
</a>
</g>
<!-- ObjectClassifier_PowisoFam&#45;&gt;ObjectClassifier_f2p -->
<g id="edge8" class="edge"><title>ObjectClassifier_PowisoFam&#45;&gt;ObjectClassifier_f2p</title>
<path fill="none" stroke="black" d="M411.346,-278.089C372.998,-255.609 305.332,-215.943 266.539,-193.202"/>
<polygon fill="black" stroke="black" points="268.193,-190.115 257.796,-188.077 264.653,-196.154 268.193,-190.115"/>
</g>
<!-- ObjectClassifier_p2f -->
<g id="node10" class="node"><title>ObjectClassifier_p2f</title>
<a xlink:href="ObjectClassifier.html#p2f" xlink:title="p2f">
<ellipse fill="#f070d1" stroke="black" cx="309" cy="-175.886" rx="27" ry="18.3848"/>
<text text-anchor="middle" x="309" y="-172.286" font-family="Times Roman,serif" font-size="14.00">p2f</text>
</a>
</g>
<!-- ObjectClassifier_PowisoFam&#45;&gt;ObjectClassifier_p2f -->
<g id="edge10" class="edge"><title>ObjectClassifier_PowisoFam&#45;&gt;ObjectClassifier_p2f</title>
<path fill="none" stroke="black" d="M420.388,-277.071C397.073,-255.892 358.17,-220.552 333.058,-197.74"/>
<polygon fill="black" stroke="black" points="335.182,-194.941 325.427,-190.808 330.475,-200.123 335.182,-194.941"/>
</g>
<!-- ObjectClassifier_hfiber_fibration -->
<g id="node12" class="node"><title>ObjectClassifier_hfiber_fibration</title>
<a xlink:href="ObjectClassifier.html#hfiber_fibration" xlink:title="hfiber_fibration">
<ellipse fill="#f070d1" stroke="black" cx="440" cy="-175.886" rx="85.7684" ry="18.3848"/>
<text text-anchor="middle" x="440" y="-172.286" font-family="Times Roman,serif" font-size="14.00">hfiber_fibration</text>
</a>
</g>
<!-- ObjectClassifier_PowisoFam&#45;&gt;ObjectClassifier_hfiber_fibration -->
<g id="edge12" class="edge"><title>ObjectClassifier_PowisoFam&#45;&gt;ObjectClassifier_hfiber_fibration</title>
<path fill="none" stroke="black" d="M440,-276.292C440,-257.193 440,-227.193 440,-204.954"/>
<polygon fill="black" stroke="black" points="443.5,-204.742 440,-194.742 436.5,-204.742 443.5,-204.742"/>
</g>
<!-- ObjectClassifier_equiv_total_paths -->
<g id="node13" class="node"><title>ObjectClassifier_equiv_total_paths</title>
<a xlink:href="ObjectClassifier.html#equiv_total_paths" xlink:title="equiv_total_paths">
<ellipse fill="#f070d1" stroke="black" cx="643" cy="-175.886" rx="98.9949" ry="18.3848"/>
<text text-anchor="middle" x="643" y="-172.286" font-family="Times Roman,serif" font-size="14.00">equiv_total_paths</text>
</a>
</g>
<!-- ObjectClassifier_PowisoFam&#45;&gt;ObjectClassifier_equiv_total_paths -->
<g id="edge14" class="edge"><title>ObjectClassifier_PowisoFam&#45;&gt;ObjectClassifier_equiv_total_paths</title>
<path fill="none" stroke="black" d="M468.654,-278.089C504.041,-257.345 564.394,-221.966 603.985,-198.757"/>
<polygon fill="black" stroke="black" points="605.98,-201.644 612.837,-193.568 602.44,-195.606 605.98,-201.644"/>
</g>
<!-- ObjectClassifier_equiv_fibration_replacement -->
<g id="node14" class="node"><title>ObjectClassifier_equiv_fibration_replacement</title>
<a xlink:href="ObjectClassifier.html#equiv_fibration_replacement" xlink:title="equiv_fibration_replacement">
<ellipse fill="#f070d1" stroke="black" cx="910" cy="-175.886" rx="149.907" ry="18.3848"/>
<text text-anchor="middle" x="910" y="-172.286" font-family="Times Roman,serif" font-size="14.00">equiv_fibration_replacement</text>
</a>
</g>
<!-- ObjectClassifier_PowisoFam&#45;&gt;ObjectClassifier_equiv_fibration_replacement -->
<g id="edge16" class="edge"><title>ObjectClassifier_PowisoFam&#45;&gt;ObjectClassifier_equiv_fibration_replacement</title>
<path fill="none" stroke="black" d="M488.968,-282.488C571.14,-261.683 737.312,-219.609 834.517,-194.998"/>
<polygon fill="black" stroke="black" points="835.447,-198.373 844.282,-192.526 833.729,-191.587 835.447,-198.373"/>
</g>
<!-- ObjectClassifier_equiv_induction -->
<g id="node6" class="node"><title>ObjectClassifier_equiv_induction</title>
<a xlink:href="ObjectClassifier.html#equiv_induction" xlink:title="equiv_induction">
<ellipse fill="#f070d1" stroke="black" cx="104" cy="-55.8862" rx="87.889" ry="18.3848"/>
<text text-anchor="middle" x="104" y="-52.2862" font-family="Times Roman,serif" font-size="14.00">equiv_induction</text>
</a>
</g>
<!-- ObjectClassifier_transport_exp&#45;&gt;ObjectClassifier_equiv_induction -->
<g id="edge18" class="edge"><title>ObjectClassifier_transport_exp&#45;&gt;ObjectClassifier_equiv_induction</title>
<path fill="none" stroke="black" d="M110.75,-157.136C109.453,-137.674 107.407,-106.99 105.907,-84.4976"/>
<polygon fill="black" stroke="black" points="109.399,-84.2496 105.241,-74.5046 102.414,-84.7153 109.399,-84.2496"/>
</g>
<!-- ObjectClassifier_exp -->
<g id="node8" class="node"><title>ObjectClassifier_exp</title>
<a xlink:href="ObjectClassifier.html#exp" xlink:title="exp">
<ellipse fill="#f070d1" stroke="black" cx="239" cy="-55.8862" rx="28.9914" ry="18.3848"/>
<text text-anchor="middle" x="239" y="-52.2862" font-family="Times Roman,serif" font-size="14.00">exp</text>
</a>
</g>
<!-- ObjectClassifier_transport_exp&#45;&gt;ObjectClassifier_exp -->
<g id="edge20" class="edge"><title>ObjectClassifier_transport_exp&#45;&gt;ObjectClassifier_exp</title>
<path fill="none" stroke="black" d="M131.289,-157.661C153.83,-136.362 191.126,-101.122 215.381,-78.2037"/>
<polygon fill="black" stroke="black" points="217.897,-80.641 222.762,-71.2291 213.09,-75.553 217.897,-80.641"/>
</g>
<!-- ObjectClassifier_exp_ -->
<g id="node7" class="node"><title>ObjectClassifier_exp_</title>
<a xlink:href="ObjectClassifier.html#exp&#39;" xlink:title="exp&#39;">
<ellipse fill="#f070d1" stroke="black" cx="325" cy="-426.886" rx="31.1127" ry="18.3848"/>
<ellipse fill="none" stroke="black" cx="325" cy="-426.886" rx="35.1127" ry="22.3848"/>
<ellipse fill="none" stroke="black" cx="325" cy="-426.886" rx="39.1127" ry="26.3848"/>
<text text-anchor="middle" x="325" y="-423.286" font-family="Times Roman,serif" font-size="14.00">exp&#39;</text>
</a>
</g>
<!-- ObjectClassifier_Fam -->
<g id="node11" class="node"><title>ObjectClassifier_Fam</title>
<a xlink:href="ObjectClassifier.html#Fam" xlink:title="Fam">
<ellipse fill="#f070d1" stroke="black" cx="317" cy="-55.8862" rx="31.1127" ry="18.3848"/>
<text text-anchor="middle" x="317" y="-52.2862" font-family="Times Roman,serif" font-size="14.00">Fam</text>
</a>
</g>
<!-- ObjectClassifier_f2p&#45;&gt;ObjectClassifier_Fam -->
<g id="edge22" class="edge"><title>ObjectClassifier_f2p&#45;&gt;ObjectClassifier_Fam</title>
<path fill="none" stroke="black" d="M248.292,-158.948C261.736,-138.783 284.323,-104.902 299.909,-81.5229"/>
<polygon fill="black" stroke="black" points="302.871,-83.3892 305.506,-73.1272 297.047,-79.5062 302.871,-83.3892"/>
</g>
<!-- ObjectClassifier_fibration_replacement -->
<g id="node15" class="node"><title>ObjectClassifier_fibration_replacement</title>
<a xlink:href="ObjectClassifier.html#fibration_replacement" xlink:title="fibration_replacement">
<ellipse fill="#f070d1" stroke="black" cx="142" cy="-426.886" rx="118.087" ry="18.3848"/>
<ellipse fill="none" stroke="black" cx="142" cy="-426.886" rx="122.087" ry="22.3848"/>
<ellipse fill="none" stroke="black" cx="142" cy="-426.886" rx="126.087" ry="26.3848"/>
<text text-anchor="middle" x="142" y="-423.286" font-family="Times Roman,serif" font-size="14.00">fibration_replacement</text>
</a>
</g>
</g>
</svg>
