<?xml version="1.0" encoding="UTF-8" standalone="no"?>
<!DOCTYPE svg PUBLIC "-//W3C//DTD SVG 1.1//EN"
 "http://www.w3.org/Graphics/SVG/1.1/DTD/svg11.dtd">
<!-- Generated by graphviz version 2.26.3 (20100126.1600)
 -->
<!-- Title: HoTT_Contractible Pages: 1 -->
<svg width="716pt" height="362pt"
 viewBox="0.00 0.00 716.00 362.00" xmlns="http://www.w3.org/2000/svg" xmlns:xlink="http://www.w3.org/1999/xlink">
<g id="graph1" class="graph" transform="scale(1 1) rotate(0) translate(4 358)">
<title>HoTT_Contractible</title>
<polygon fill="white" stroke="white" points="-4,5 -4,-358 713,-358 713,5 -4,5"/>
<g id="graph2" class="cluster"><title>cluster_Contractible</title>
<polygon fill="#ffffc3" stroke="black" points="8,-10.8923 8,-343.108 700,-343.108 700,-10.8923 8,-10.8923"/>
<text text-anchor="middle" x="58.5" y="-326.508" font-family="Times Roman,serif" font-size="14.00">Contractible</text>
</g>
<!-- Contractible_contr_basedpaths_ -->
<g id="node1" class="node"><title>Contractible_contr_basedpaths_</title>
<a xlink:href="Contractible.html#contr_basedpaths&#39;" xlink:title="contr_basedpaths&#39;">
<ellipse fill="#f070d1" stroke="black" cx="585" cy="-259.892" rx="99.2383" ry="18.3848"/>
<ellipse fill="none" stroke="black" cx="585" cy="-259.892" rx="103.22" ry="22.3848"/>
<ellipse fill="none" stroke="black" cx="585" cy="-259.892" rx="107.201" ry="26.3848"/>
<text text-anchor="middle" x="585" y="-256.292" font-family="Times Roman,serif" font-size="14.00">contr_basedpaths&#39;</text>
</a>
</g>
<!-- Contractible_contr_basedpaths -->
<g id="node2" class="node"><title>Contractible_contr_basedpaths</title>
<a xlink:href="Contractible.html#contr_basedpaths" xlink:title="contr_basedpaths">
<ellipse fill="#f070d1" stroke="black" cx="355" cy="-259.892" rx="97.1183" ry="18.3848"/>
<ellipse fill="none" stroke="black" cx="355" cy="-259.892" rx="101.099" ry="22.3848"/>
<ellipse fill="none" stroke="black" cx="355" cy="-259.892" rx="105.08" ry="26.3848"/>
<text text-anchor="middle" x="355" y="-256.292" font-family="Times Roman,serif" font-size="14.00">contr_basedpaths</text>
</a>
</g>
<!-- Contractible_contr_paths_contr -->
<g id="node3" class="node"><title>Contractible_contr_paths_contr</title>
<a xlink:href="Contractible.html#contr_paths_contr" xlink:title="contr_paths_contr">
<ellipse fill="#f070d1" stroke="black" cx="124" cy="-259.892" rx="99.9464" ry="18.3848"/>
<ellipse fill="none" stroke="black" cx="124" cy="-259.892" rx="103.928" ry="22.3848"/>
<ellipse fill="none" stroke="black" cx="124" cy="-259.892" rx="107.91" ry="26.3848"/>
<text text-anchor="middle" x="124" y="-256.292" font-family="Times Roman,serif" font-size="14.00">contr_paths_contr</text>
</a>
</g>
<!-- Contractible_path2_contr -->
<g id="node4" class="node"><title>Contractible_path2_contr</title>
<a xlink:href="Contractible.html#path2_contr" xlink:title="path2_contr">
<ellipse fill="#f070d1" stroke="black" cx="124" cy="-148.892" rx="70.9184" ry="18.3848"/>
<text text-anchor="middle" x="124" y="-145.292" font-family="Times Roman,serif" font-size="14.00">path2_contr</text>
</a>
</g>
<!-- Contractible_contr_paths_contr&#45;&gt;Contractible_path2_contr -->
<g id="edge2" class="edge"><title>Contractible_contr_paths_contr&#45;&gt;Contractible_path2_contr</title>
<path fill="none" stroke="black" d="M124,-233.305C124,-216.521 124,-194.843 124,-177.658"/>
<polygon fill="black" stroke="black" points="127.5,-177.622 124,-167.622 120.5,-177.622 127.5,-177.622"/>
</g>
<!-- Contractible_path_contr -->
<g id="node5" class="node"><title>Contractible_path_contr</title>
<a xlink:href="Contractible.html#path_contr" xlink:title="path_contr">
<ellipse fill="#f070d1" stroke="black" cx="124" cy="-47.8923" rx="65.0538" ry="18.3848"/>
<text text-anchor="middle" x="124" y="-44.2923" font-family="Times Roman,serif" font-size="14.00">path_contr</text>
</a>
</g>
<!-- Contractible_path2_contr&#45;&gt;Contractible_path_contr -->
<g id="edge4" class="edge"><title>Contractible_path2_contr&#45;&gt;Contractible_path_contr</title>
<path fill="none" stroke="black" d="M124,-130.367C124,-115.37 124,-93.9817 124,-76.7441"/>
<polygon fill="black" stroke="black" points="127.5,-76.6418 124,-66.6419 120.5,-76.6419 127.5,-76.6418"/>
</g>
</g>
</svg>
