<?xml version="1.0" encoding="UTF-8" standalone="no"?>
<!DOCTYPE svg PUBLIC "-//W3C//DTD SVG 1.1//EN"
 "http://www.w3.org/Graphics/SVG/1.1/DTD/svg11.dtd">
<!-- Generated by graphviz version 2.26.3 (20100126.1600)
 -->
<!-- Title: HoTT_Conjugation Pages: 1 -->
<svg width="560pt" height="284pt"
 viewBox="0.00 0.00 560.00 284.00" xmlns="http://www.w3.org/2000/svg" xmlns:xlink="http://www.w3.org/1999/xlink">
<g id="graph1" class="graph" transform="scale(1 1) rotate(0) translate(4 280)">
<title>HoTT_Conjugation</title>
<polygon fill="white" stroke="white" points="-4,5 -4,-280 557,-280 557,5 -4,5"/>
<g id="graph2" class="cluster"><title>cluster_Conjugation</title>
<polygon fill="#ffffc3" stroke="black" points="8.93927,-8 8.93927,-268 543.061,-268 543.061,-8 8.93927,-8"/>
<text text-anchor="middle" x="58.9393" y="-251.4" font-family="Times Roman,serif" font-size="14.00">Conjugation</text>
</g>
<!-- Conjugation_ap1_to_conjp -->
<g id="node1" class="node"><title>Conjugation_ap1_to_conjp</title>
<a xlink:href="Conjugation.html#ap1_to_conjp" xlink:title="ap1_to_conjp">
<ellipse fill="#f070d1" stroke="black" cx="441.506" cy="-207" rx="75.2074" ry="18.3848"/>
<ellipse fill="none" stroke="black" cx="441.506" cy="-207" rx="79.1834" ry="22.3848"/>
<ellipse fill="none" stroke="black" cx="441.506" cy="-207" rx="83.1595" ry="26.3848"/>
<text text-anchor="middle" x="441.506" y="-203.4" font-family="Times Roman,serif" font-size="14.00">ap1_to_conjp</text>
</a>
</g>
<!-- Conjugation_ap_to_conjp -->
<g id="node3" class="node"><title>Conjugation_ap_to_conjp</title>
<a xlink:href="Conjugation.html#ap_to_conjp" xlink:title="ap_to_conjp">
<ellipse fill="#facdef" stroke="black" cx="457.506" cy="-117" rx="68.7979" ry="18.3848"/>
<text text-anchor="middle" x="457.506" y="-113.4" font-family="Times Roman,serif" font-size="14.00">ap_to_conjp</text>
</a>
</g>
<!-- Conjugation_ap1_to_conjp&#45;&gt;Conjugation_ap_to_conjp -->
<g id="edge2" class="edge"><title>Conjugation_ap1_to_conjp&#45;&gt;Conjugation_ap_to_conjp</title>
<path fill="none" stroke="black" d="M446.22,-180.484C448.162,-169.56 450.417,-156.878 452.398,-145.734"/>
<polygon fill="black" stroke="black" points="455.89,-146.086 454.195,-135.628 448.998,-144.861 455.89,-146.086"/>
</g>
<!-- Conjugation_conjp_ap -->
<g id="node2" class="node"><title>Conjugation_conjp_ap</title>
<a xlink:href="Conjugation.html#conjp_ap" xlink:title="conjp_ap">
<ellipse fill="#facdef" stroke="black" cx="290.506" cy="-117" rx="54.0116" ry="18.3848"/>
<ellipse fill="none" stroke="black" cx="290.506" cy="-117" rx="57.9796" ry="22.3848"/>
<ellipse fill="none" stroke="black" cx="290.506" cy="-117" rx="61.9476" ry="26.3848"/>
<text text-anchor="middle" x="290.506" y="-113.4" font-family="Times Roman,serif" font-size="14.00">conjp_ap</text>
</a>
</g>
<!-- Conjugation_conjp -->
<g id="node5" class="node"><title>Conjugation_conjp</title>
<a xlink:href="Conjugation.html#conjp" xlink:title="conjp">
<ellipse fill="#f070d1" stroke="black" cx="290.506" cy="-35" rx="36.977" ry="18.3848"/>
<text text-anchor="middle" x="290.506" y="-31.4" font-family="Times Roman,serif" font-size="14.00">conjp</text>
</a>
</g>
<!-- Conjugation_conjp_ap&#45;&gt;Conjugation_conjp -->
<g id="edge4" class="edge"><title>Conjugation_conjp_ap&#45;&gt;Conjugation_conjp</title>
<path fill="none" stroke="black" d="M290.506,-90.1501C290.506,-81.7426 290.506,-72.4303 290.506,-63.8885"/>
<polygon fill="black" stroke="black" points="294.006,-63.607 290.506,-53.6071 287.006,-63.6071 294.006,-63.607"/>
</g>
<!-- Conjugation_ap_to_conjp&#45;&gt;Conjugation_conjp -->
<g id="edge6" class="edge"><title>Conjugation_ap_to_conjp&#45;&gt;Conjugation_conjp</title>
<path fill="none" stroke="black" d="M424.113,-100.603C395.806,-86.7042 355.309,-66.8192 326.331,-52.5908"/>
<polygon fill="black" stroke="black" points="327.499,-49.265 316.98,-47.9992 324.414,-55.5484 327.499,-49.265"/>
</g>
<!-- Conjugation_conjp_concat -->
<g id="node4" class="node"><title>Conjugation_conjp_concat</title>
<a xlink:href="Conjugation.html#conjp_concat" xlink:title="conjp_concat">
<ellipse fill="#facdef" stroke="black" cx="109.506" cy="-117" rx="74.2462" ry="18.3848"/>
<ellipse fill="none" stroke="black" cx="109.506" cy="-117" rx="78.2462" ry="22.3848"/>
<ellipse fill="none" stroke="black" cx="109.506" cy="-117" rx="82.2462" ry="26.3848"/>
<text text-anchor="middle" x="109.506" y="-113.4" font-family="Times Roman,serif" font-size="14.00">conjp_concat</text>
</a>
</g>
<!-- Conjugation_conjp_concat&#45;&gt;Conjugation_conjp -->
<g id="edge8" class="edge"><title>Conjugation_conjp_concat&#45;&gt;Conjugation_conjp</title>
<path fill="none" stroke="black" d="M157.536,-95.2408C187.608,-81.6166 225.773,-64.3266 253.494,-51.7678"/>
<polygon fill="black" stroke="black" points="255.169,-54.8515 262.834,-47.5367 252.28,-48.4753 255.169,-54.8515"/>
</g>
</g>
</svg>
