<?xml version="1.0" encoding="UTF-8" standalone="no"?>
<!DOCTYPE svg PUBLIC "-//W3C//DTD SVG 1.1//EN"
 "http://www.w3.org/Graphics/SVG/1.1/DTD/svg11.dtd">
<!-- Generated by graphviz version 2.39.20161220.0128 (20161220.0128)
 -->
<!-- Title: HoTT_Spaces_BAut Pages: 1 -->
<svg width="1156pt" height="582pt"
 viewBox="0.00 0.00 1156.00 582.00" xmlns="http://www.w3.org/2000/svg" xmlns:xlink="http://www.w3.org/1999/xlink">
<g id="graph0" class="graph" transform="scale(1 1) rotate(0) translate(4 578)">
<title>HoTT_Spaces_BAut</title>
<polygon fill="#ffffff" stroke="transparent" points="-4,4 -4,-578 1152,-578 1152,4 -4,4"/>
<g id="clust1" class="cluster">
<title>cluster_BAut</title>
<polygon fill="#ffffc3" stroke="#000000" points="8,-18.2948 8,-555.7052 1140,-555.7052 1140,-18.2948 8,-18.2948"/>
<text text-anchor="middle" x="31" y="-540.5052" font-family="Times,serif" font-size="14.00" fill="#000000">BAut</text>
</g>
<!-- BAut_id_center2_baut -->
<g id="node1" class="node">
<title>BAut_id_center2_baut</title>
<g id="a_node1"><a xlink:href="BAut.html#id_center2_baut" xlink:title="id_center2_baut">
<ellipse fill="#f070d1" stroke="#000000" cx="1034" cy="-425.2948" rx="67.6782" ry="18"/>
<ellipse fill="none" stroke="#000000" cx="1034" cy="-425.2948" rx="71.6831" ry="22"/>
<ellipse fill="none" stroke="#000000" cx="1034" cy="-425.2948" rx="75.6881" ry="26"/>
<text text-anchor="middle" x="1034" y="-421.5948" font-family="Times,serif" font-size="14.00" fill="#000000">id_center2_baut</text>
</a>
</g>
</g>
<!-- BAut_trunc_el_baut -->
<g id="node8" class="node">
<title>BAut_trunc_el_baut</title>
<g id="a_node8"><a xlink:href="BAut.html#trunc_el_baut" xlink:title="trunc_el_baut">
<ellipse fill="#f070d1" stroke="#000000" cx="791" cy="-242.2948" rx="59.2899" ry="18"/>
<text text-anchor="middle" x="791" y="-238.5948" font-family="Times,serif" font-size="14.00" fill="#000000">trunc_el_baut</text>
</a>
</g>
</g>
<!-- BAut_id_center2_baut&#45;&gt;BAut_trunc_el_baut -->
<g id="edge1" class="edge">
<title>BAut_id_center2_baut&#45;&gt;BAut_trunc_el_baut</title>
<path fill="none" stroke="#000000" d="M1002.232,-401.3708C955.2411,-365.9826 867.7905,-300.1247 821.5251,-265.2829"/>
<polygon fill="#000000" stroke="#000000" points="823.4783,-262.3723 813.3846,-259.1524 819.2673,-267.9641 823.4783,-262.3723"/>
</g>
<!-- BAut_merely_path_baut -->
<g id="node9" class="node">
<title>BAut_merely_path_baut</title>
<g id="a_node9"><a xlink:href="BAut.html#merely_path_baut" xlink:title="merely_path_baut">
<ellipse fill="#f070d1" stroke="#000000" cx="1057" cy="-242.2948" rx="74.9875" ry="18"/>
<text text-anchor="middle" x="1057" y="-238.5948" font-family="Times,serif" font-size="14.00" fill="#000000">merely_path_baut</text>
</a>
</g>
</g>
<!-- BAut_id_center2_baut&#45;&gt;BAut_merely_path_baut -->
<g id="edge2" class="edge">
<title>BAut_id_center2_baut&#45;&gt;BAut_merely_path_baut</title>
<path fill="none" stroke="#000000" d="M1037.2953,-399.0754C1041.5842,-364.9511 1049.0498,-305.5507 1053.457,-270.4846"/>
<polygon fill="#000000" stroke="#000000" points="1056.9453,-270.7967 1054.7197,-260.4382 1049.9999,-269.9237 1056.9453,-270.7967"/>
</g>
<!-- BAut_trunc_baut -->
<g id="node10" class="node">
<title>BAut_trunc_baut</title>
<g id="a_node10"><a xlink:href="BAut.html#trunc_baut" xlink:title="trunc_baut">
<ellipse fill="#f070d1" stroke="#000000" cx="916" cy="-242.2948" rx="48.1917" ry="18"/>
<text text-anchor="middle" x="916" y="-238.5948" font-family="Times,serif" font-size="14.00" fill="#000000">trunc_baut</text>
</a>
</g>
</g>
<!-- BAut_id_center2_baut&#45;&gt;BAut_trunc_baut -->
<g id="edge3" class="edge">
<title>BAut_id_center2_baut&#45;&gt;BAut_trunc_baut</title>
<path fill="none" stroke="#000000" d="M1017.5926,-399.8495C995.27,-365.2305 955.5297,-303.5993 932.9359,-268.5599"/>
<polygon fill="#000000" stroke="#000000" points="935.6751,-266.3492 927.3143,-259.8416 929.792,-270.1427 935.6751,-266.3492"/>
</g>
<!-- BAut_center2_baut -->
<g id="node2" class="node">
<title>BAut_center2_baut</title>
<g id="a_node2"><a xlink:href="BAut.html#center2_baut" xlink:title="center2_baut">
<ellipse fill="#f070d1" stroke="#000000" cx="496" cy="-425.2948" rx="55.8034" ry="18"/>
<ellipse fill="none" stroke="#000000" cx="496" cy="-425.2948" rx="59.7968" ry="22"/>
<ellipse fill="none" stroke="#000000" cx="496" cy="-425.2948" rx="63.7903" ry="26"/>
<text text-anchor="middle" x="496" y="-421.5948" font-family="Times,serif" font-size="14.00" fill="#000000">center2_baut</text>
</a>
</g>
</g>
<!-- BAut_center2_baut_subproof0 -->
<g id="node3" class="node">
<title>BAut_center2_baut_subproof0</title>
<g id="a_node3"><a xlink:href="BAut.html#center2_baut_subproof0" xlink:title="center2_baut_subproof0">
<ellipse fill="#facdef" stroke="#000000" cx="480" cy="-242.2948" rx="96.3833" ry="18"/>
<text text-anchor="middle" x="480" y="-238.5948" font-family="Times,serif" font-size="14.00" fill="#000000">center2_baut_subproof0</text>
</a>
</g>
</g>
<!-- BAut_center2_baut&#45;&gt;BAut_center2_baut_subproof0 -->
<g id="edge4" class="edge">
<title>BAut_center2_baut&#45;&gt;BAut_center2_baut_subproof0</title>
<path fill="none" stroke="#000000" d="M493.7076,-399.0754C490.724,-364.9511 485.5306,-305.5507 482.4647,-270.4846"/>
<polygon fill="#000000" stroke="#000000" points="485.9441,-270.0954 481.5863,-260.4382 478.9707,-270.7051 485.9441,-270.0954"/>
</g>
<!-- BAut_center2_baut_subproof -->
<g id="node4" class="node">
<title>BAut_center2_baut_subproof</title>
<g id="a_node4"><a xlink:href="BAut.html#center2_baut_subproof" xlink:title="center2_baut_subproof">
<ellipse fill="#facdef" stroke="#000000" cx="274" cy="-242.2948" rx="91.784" ry="18"/>
<text text-anchor="middle" x="274" y="-238.5948" font-family="Times,serif" font-size="14.00" fill="#000000">center2_baut_subproof</text>
</a>
</g>
</g>
<!-- BAut_center2_baut&#45;&gt;BAut_center2_baut_subproof -->
<g id="edge5" class="edge">
<title>BAut_center2_baut&#45;&gt;BAut_center2_baut_subproof</title>
<path fill="none" stroke="#000000" d="M467.4319,-401.7454C425.0756,-366.8301 346.0329,-301.6733 303.2735,-266.4257"/>
<polygon fill="#000000" stroke="#000000" points="305.4203,-263.6595 295.4777,-259.9994 300.9678,-269.0609 305.4203,-263.6595"/>
</g>
<!-- BAut_baut_ind_hset -->
<g id="node7" class="node">
<title>BAut_baut_ind_hset</title>
<g id="a_node7"><a xlink:href="BAut.html#baut_ind_hset" xlink:title="baut_ind_hset">
<ellipse fill="#f070d1" stroke="#000000" cx="654" cy="-242.2948" rx="59.5901" ry="18"/>
<text text-anchor="middle" x="654" y="-238.5948" font-family="Times,serif" font-size="14.00" fill="#000000">baut_ind_hset</text>
</a>
</g>
</g>
<!-- BAut_center2_baut&#45;&gt;BAut_baut_ind_hset -->
<g id="edge6" class="edge">
<title>BAut_center2_baut&#45;&gt;BAut_baut_ind_hset</title>
<path fill="none" stroke="#000000" d="M517.3086,-400.6146C547.3314,-365.8414 601.7967,-302.7581 632.124,-267.6322"/>
<polygon fill="#000000" stroke="#000000" points="635.0415,-269.6088 638.9275,-259.7523 629.7431,-265.0341 635.0415,-269.6088"/>
</g>
<!-- BAut_center2_baut&#45;&gt;BAut_trunc_el_baut -->
<g id="edge7" class="edge">
<title>BAut_center2_baut&#45;&gt;BAut_trunc_el_baut</title>
<path fill="none" stroke="#000000" d="M531.2909,-403.4025C588.1969,-368.1015 699.5583,-299.0197 756.1692,-263.9017"/>
<polygon fill="#000000" stroke="#000000" points="758.1154,-266.8132 764.7681,-258.5675 754.4253,-260.8648 758.1154,-266.8132"/>
</g>
<!-- BAut_id_center_baut -->
<g id="node5" class="node">
<title>BAut_id_center_baut</title>
<g id="a_node5"><a xlink:href="BAut.html#id_center_baut" xlink:title="id_center_baut">
<ellipse fill="#f070d1" stroke="#000000" cx="869" cy="-425.2948" rx="63.0838" ry="18"/>
<ellipse fill="none" stroke="#000000" cx="869" cy="-425.2948" rx="67.0863" ry="22"/>
<ellipse fill="none" stroke="#000000" cx="869" cy="-425.2948" rx="71.0888" ry="26"/>
<text text-anchor="middle" x="869" y="-421.5948" font-family="Times,serif" font-size="14.00" fill="#000000">id_center_baut</text>
</a>
</g>
</g>
<!-- BAut_id_center_baut&#45;&gt;BAut_trunc_el_baut -->
<g id="edge8" class="edge">
<title>BAut_id_center_baut&#45;&gt;BAut_trunc_el_baut</title>
<path fill="none" stroke="#000000" d="M857.9899,-399.4635C843.3896,-365.2089 817.7276,-305.0019 802.7596,-269.8847"/>
<polygon fill="#000000" stroke="#000000" points="805.8013,-268.0946 798.6606,-260.2677 799.3619,-270.8393 805.8013,-268.0946"/>
</g>
<!-- BAut_id_center_baut&#45;&gt;BAut_merely_path_baut -->
<g id="edge9" class="edge">
<title>BAut_id_center_baut&#45;&gt;BAut_merely_path_baut</title>
<path fill="none" stroke="#000000" d="M894.3545,-400.6146C930.2857,-365.6391 995.64,-302.0229 1031.5974,-267.0218"/>
<polygon fill="#000000" stroke="#000000" points="1034.0785,-269.4911 1038.8029,-260.0079 1029.1959,-264.4751 1034.0785,-269.4911"/>
</g>
<!-- BAut_id_center_baut&#45;&gt;BAut_trunc_baut -->
<g id="edge10" class="edge">
<title>BAut_id_center_baut&#45;&gt;BAut_trunc_baut</title>
<path fill="none" stroke="#000000" d="M875.734,-399.0754C884.4981,-364.9511 899.754,-305.5507 908.76,-270.4846"/>
<polygon fill="#000000" stroke="#000000" points="912.2425,-270.9946 911.3402,-260.4382 905.4626,-269.2532 912.2425,-270.9946"/>
</g>
<!-- BAut_center_baut -->
<g id="node6" class="node">
<title>BAut_center_baut</title>
<g id="a_node6"><a xlink:href="BAut.html#center_baut" xlink:title="center_baut">
<ellipse fill="#f070d1" stroke="#000000" cx="676" cy="-425.2948" rx="51.9914" ry="18"/>
<ellipse fill="none" stroke="#000000" cx="676" cy="-425.2948" rx="55.9911" ry="22"/>
<ellipse fill="none" stroke="#000000" cx="676" cy="-425.2948" rx="59.9908" ry="26"/>
<text text-anchor="middle" x="676" y="-421.5948" font-family="Times,serif" font-size="14.00" fill="#000000">center_baut</text>
</a>
</g>
</g>
<!-- BAut_center_baut&#45;&gt;BAut_baut_ind_hset -->
<g id="edge11" class="edge">
<title>BAut_center_baut&#45;&gt;BAut_baut_ind_hset</title>
<path fill="none" stroke="#000000" d="M672.8479,-399.0754C668.7456,-364.9511 661.6045,-305.5507 657.3889,-270.4846"/>
<polygon fill="#000000" stroke="#000000" points="660.8498,-269.949 656.1812,-260.4382 653.8999,-270.7845 660.8498,-269.949"/>
</g>
<!-- BAut_center_baut&#45;&gt;BAut_trunc_el_baut -->
<g id="edge12" class="edge">
<title>BAut_center_baut&#45;&gt;BAut_trunc_el_baut</title>
<path fill="none" stroke="#000000" d="M691.9903,-399.8495C713.6887,-365.3207 752.2737,-303.9202 774.3223,-268.8342"/>
<polygon fill="#000000" stroke="#000000" points="777.4558,-270.4258 779.8131,-260.0965 771.5289,-266.7012 777.4558,-270.4258"/>
</g>
<!-- BAut_BAut_pr1 -->
<g id="node14" class="node">
<title>BAut_BAut_pr1</title>
<g id="a_node14"><a xlink:href="BAut.html#BAut_pr1" xlink:title="BAut_pr1">
<ellipse fill="#f070d1" stroke="#000000" cx="722" cy="-77.2948" rx="46.2923" ry="18"/>
<text text-anchor="middle" x="722" y="-73.5948" font-family="Times,serif" font-size="14.00" fill="#000000">BAut_pr1</text>
</a>
</g>
</g>
<!-- BAut_baut_ind_hset&#45;&gt;BAut_BAut_pr1 -->
<g id="edge13" class="edge">
<title>BAut_baut_ind_hset&#45;&gt;BAut_BAut_pr1</title>
<path fill="none" stroke="#000000" d="M661.4066,-224.3228C673.3118,-195.4352 696.7823,-138.4849 710.7607,-104.5667"/>
<polygon fill="#000000" stroke="#000000" points="714.0281,-105.8239 714.6025,-95.2447 707.5561,-103.1566 714.0281,-105.8239"/>
</g>
<!-- BAut_trunc_el_baut&#45;&gt;BAut_BAut_pr1 -->
<g id="edge14" class="edge">
<title>BAut_trunc_el_baut&#45;&gt;BAut_BAut_pr1</title>
<path fill="none" stroke="#000000" d="M783.4844,-224.3228C771.4042,-195.4352 747.5886,-138.4849 733.4046,-104.5667"/>
<polygon fill="#000000" stroke="#000000" points="736.5934,-103.1201 729.5063,-95.2447 730.1354,-105.8208 736.5934,-103.1201"/>
</g>
<!-- BAut_path_baut -->
<g id="node13" class="node">
<title>BAut_path_baut</title>
<g id="a_node13"><a xlink:href="BAut.html#path_baut" xlink:title="path_baut">
<ellipse fill="#f070d1" stroke="#000000" cx="916" cy="-77.2948" rx="45.4919" ry="18"/>
<text text-anchor="middle" x="916" y="-73.5948" font-family="Times,serif" font-size="14.00" fill="#000000">path_baut</text>
</a>
</g>
</g>
<!-- BAut_trunc_baut&#45;&gt;BAut_path_baut -->
<g id="edge15" class="edge">
<title>BAut_trunc_baut&#45;&gt;BAut_path_baut</title>
<path fill="none" stroke="#000000" d="M916,-224.0065C916,-195.3117 916,-139.4944 916,-105.5895"/>
<polygon fill="#000000" stroke="#000000" points="919.5001,-105.4135 916,-95.4136 912.5001,-105.4136 919.5001,-105.4135"/>
</g>
<!-- BAut_trunc_baut&#45;&gt;BAut_BAut_pr1 -->
<g id="edge16" class="edge">
<title>BAut_trunc_baut&#45;&gt;BAut_BAut_pr1</title>
<path fill="none" stroke="#000000" d="M896.3306,-225.5657C861.5269,-195.9646 789.0324,-134.3069 749.3723,-100.5754"/>
<polygon fill="#000000" stroke="#000000" points="751.3181,-97.6356 741.433,-93.8229 746.7829,-102.9678 751.3181,-97.6356"/>
</g>
<!-- BAut_transport_path_baut -->
<g id="node11" class="node">
<title>BAut_transport_path_baut</title>
<g id="a_node11"><a xlink:href="BAut.html#transport_path_baut" xlink:title="transport_path_baut">
<ellipse fill="#f070d1" stroke="#000000" cx="105" cy="-425.2948" rx="81.4644" ry="18"/>
<ellipse fill="none" stroke="#000000" cx="105" cy="-425.2948" rx="85.4753" ry="22"/>
<ellipse fill="none" stroke="#000000" cx="105" cy="-425.2948" rx="89.4862" ry="26"/>
<text text-anchor="middle" x="105" y="-421.5948" font-family="Times,serif" font-size="14.00" fill="#000000">transport_path_baut</text>
</a>
</g>
</g>
<!-- BAut_ap_pr1_path_baut -->
<g id="node12" class="node">
<title>BAut_ap_pr1_path_baut</title>
<g id="a_node12"><a xlink:href="BAut.html#ap_pr1_path_baut" xlink:title="ap_pr1_path_baut">
<ellipse fill="#f070d1" stroke="#000000" cx="90" cy="-242.2948" rx="74.187" ry="18"/>
<text text-anchor="middle" x="90" y="-238.5948" font-family="Times,serif" font-size="14.00" fill="#000000">ap_pr1_path_baut</text>
</a>
</g>
</g>
<!-- BAut_transport_path_baut&#45;&gt;BAut_ap_pr1_path_baut -->
<g id="edge17" class="edge">
<title>BAut_transport_path_baut&#45;&gt;BAut_ap_pr1_path_baut</title>
<path fill="none" stroke="#000000" d="M102.8509,-399.0754C100.0538,-364.9511 95.1849,-305.5507 92.3106,-270.4846"/>
<polygon fill="#000000" stroke="#000000" points="95.7925,-270.1189 91.4872,-260.4382 88.8159,-270.6908 95.7925,-270.1189"/>
</g>
<!-- BAut_ap_pr1_path_baut&#45;&gt;BAut_BAut_pr1 -->
<g id="edge18" class="edge">
<title>BAut_ap_pr1_path_baut&#45;&gt;BAut_BAut_pr1</title>
<path fill="none" stroke="#000000" d="M140.6509,-229.0711C259.9055,-197.9366 557.0981,-120.3467 673.8355,-89.8694"/>
<polygon fill="#000000" stroke="#000000" points="674.7824,-93.2396 683.5739,-87.327 673.0141,-86.4666 674.7824,-93.2396"/>
</g>
</g>
</svg>
