<?xml version="1.0" encoding="UTF-8" standalone="no"?>
<!DOCTYPE svg PUBLIC "-//W3C//DTD SVG 1.1//EN"
 "http://www.w3.org/Graphics/SVG/1.1/DTD/svg11.dtd">
<!-- Generated by graphviz version 2.39.20161220.0128 (20161220.0128)
 -->
<!-- Title: HoTT_Categories_NaturalTransformation_Sum Pages: 1 -->
<svg width="366pt" height="187pt"
 viewBox="0.00 0.00 366.00 187.00" xmlns="http://www.w3.org/2000/svg" xmlns:xlink="http://www.w3.org/1999/xlink">
<g id="graph0" class="graph" transform="scale(1 1) rotate(0) translate(4 183)">
<title>HoTT_Categories_NaturalTransformation_Sum</title>
<polygon fill="#ffffff" stroke="transparent" points="-4,4 -4,-183 362,-183 362,4 -4,4"/>
<g id="clust1" class="cluster">
<title>cluster_Sum</title>
<polygon fill="#ffffc3" stroke="#000000" points="18.359,-8 18.359,-171 339.641,-171 339.641,-8 18.359,-8"/>
<text text-anchor="middle" x="39.359" y="-155.8" font-family="Times,serif" font-size="14.00" fill="#000000">Sum</text>
</g>
<!-- Sum_sum -->
<g id="node1" class="node">
<title>Sum_sum</title>
<g id="a_node1"><a xlink:href="Sum.html#sum" xlink:title="sum">
<ellipse fill="#f070d1" stroke="#000000" cx="178.7436" cy="-114" rx="27" ry="18"/>
<ellipse fill="none" stroke="#000000" cx="178.7436" cy="-114" rx="31" ry="22"/>
<ellipse fill="none" stroke="#000000" cx="178.7436" cy="-114" rx="35" ry="26"/>
<text text-anchor="middle" x="178.7436" y="-110.3" font-family="Times,serif" font-size="14.00" fill="#000000">sum</text>
</a>
</g>
</g>
<!-- Sum_sum_subproof -->
<g id="node2" class="node">
<title>Sum_sum_subproof</title>
<g id="a_node2"><a xlink:href="Sum.html#sum_subproof" xlink:title="sum_subproof">
<ellipse fill="#facdef" stroke="#000000" cx="178.7436" cy="-34" rx="61.99" ry="18"/>
<text text-anchor="middle" x="178.7436" y="-30.3" font-family="Times,serif" font-size="14.00" fill="#000000">sum_subproof</text>
</a>
</g>
</g>
<!-- Sum_sum&#45;&gt;Sum_sum_subproof -->
<g id="edge1" class="edge">
<title>Sum_sum&#45;&gt;Sum_sum_subproof</title>
<path fill="none" stroke="#000000" d="M178.7436,-87.805C178.7436,-79.6026 178.7436,-70.5174 178.7436,-62.1839"/>
<polygon fill="#000000" stroke="#000000" points="182.2437,-62.1532 178.7436,-52.1532 175.2437,-62.1533 182.2437,-62.1532"/>
</g>
</g>
</svg>
