<?xml version="1.0" encoding="UTF-8" standalone="no"?>
<!DOCTYPE svg PUBLIC "-//W3C//DTD SVG 1.1//EN"
 "http://www.w3.org/Graphics/SVG/1.1/DTD/svg11.dtd">
<!-- Generated by graphviz version 2.39.20161220.0128 (20161220.0128)
 -->
<!-- Title: HoTT_HIT_TruncImpliesFunext Pages: 1 -->
<svg width="510pt" height="259pt"
 viewBox="0.00 0.00 510.00 259.00" xmlns="http://www.w3.org/2000/svg" xmlns:xlink="http://www.w3.org/1999/xlink">
<g id="graph0" class="graph" transform="scale(1 1) rotate(0) translate(4 255)">
<title>HoTT_HIT_TruncImpliesFunext</title>
<polygon fill="#ffffff" stroke="transparent" points="-4,4 -4,-255 506,-255 506,4 -4,4"/>
<g id="clust1" class="cluster">
<title>cluster_TruncImpliesFunext</title>
<polygon fill="#ffffc3" stroke="#000000" points="9.3395,-8 9.3395,-243 492.6605,-243 492.6605,-8 9.3395,-8"/>
<text text-anchor="middle" x="73.3395" y="-227.8" font-family="Times,serif" font-size="14.00" fill="#000000">TruncImpliesFunext</text>
</g>
<!-- TruncImpliesFunext_funext_from_trunc -->
<g id="node1" class="node">
<title>TruncImpliesFunext_funext_from_trunc</title>
<g id="a_node1"><a xlink:href="TruncImpliesFunext.html#funext_from_trunc" xlink:title="funext_from_trunc">
<ellipse fill="#facdef" stroke="#000000" cx="384.093" cy="-186" rx="77.2012" ry="18"/>
<ellipse fill="none" stroke="#000000" cx="384.093" cy="-186" rx="81.1939" ry="22"/>
<ellipse fill="none" stroke="#000000" cx="384.093" cy="-186" rx="85.1866" ry="26"/>
<text text-anchor="middle" x="384.093" y="-182.3" font-family="Times,serif" font-size="14.00" fill="#000000">funext_from_trunc</text>
</a>
</g>
</g>
<!-- TruncImpliesFunext_funext_type_from_trunc -->
<g id="node2" class="node">
<title>TruncImpliesFunext_funext_type_from_trunc</title>
<g id="a_node2"><a xlink:href="TruncImpliesFunext.html#funext_type_from_trunc" xlink:title="funext_type_from_trunc">
<ellipse fill="#f070d1" stroke="#000000" cx="141.093" cy="-186" rx="96.6951" ry="18"/>
<ellipse fill="none" stroke="#000000" cx="141.093" cy="-186" rx="100.6891" ry="22"/>
<ellipse fill="none" stroke="#000000" cx="141.093" cy="-186" rx="104.6831" ry="26"/>
<text text-anchor="middle" x="141.093" y="-182.3" font-family="Times,serif" font-size="14.00" fill="#000000">funext_type_from_trunc</text>
</a>
</g>
</g>
<!-- TruncImpliesFunext_seg -->
<g id="node3" class="node">
<title>TruncImpliesFunext_seg</title>
<g id="a_node3"><a xlink:href="TruncImpliesFunext.html#seg" xlink:title="seg">
<ellipse fill="#f070d1" stroke="#000000" cx="56.093" cy="-106" rx="27" ry="18"/>
<text text-anchor="middle" x="56.093" y="-102.3" font-family="Times,serif" font-size="14.00" fill="#000000">seg</text>
</a>
</g>
</g>
<!-- TruncImpliesFunext_funext_type_from_trunc&#45;&gt;TruncImpliesFunext_seg -->
<g id="edge1" class="edge">
<title>TruncImpliesFunext_funext_type_from_trunc&#45;&gt;TruncImpliesFunext_seg</title>
<path fill="none" stroke="#000000" d="M114.1985,-160.6875C103.0051,-150.1525 90.1345,-138.039 79.3561,-127.8946"/>
<polygon fill="#000000" stroke="#000000" points="81.6122,-125.2117 71.9314,-120.9067 76.8146,-130.3091 81.6122,-125.2117"/>
</g>
<!-- TruncImpliesFunext_interval_rec -->
<g id="node4" class="node">
<title>TruncImpliesFunext_interval_rec</title>
<g id="a_node4"><a xlink:href="TruncImpliesFunext.html#interval_rec" xlink:title="interval_rec">
<ellipse fill="#f070d1" stroke="#000000" cx="170.093" cy="-106" rx="52.7911" ry="18"/>
<text text-anchor="middle" x="170.093" y="-102.3" font-family="Times,serif" font-size="14.00" fill="#000000">interval_rec</text>
</a>
</g>
</g>
<!-- TruncImpliesFunext_funext_type_from_trunc&#45;&gt;TruncImpliesFunext_interval_rec -->
<g id="edge2" class="edge">
<title>TruncImpliesFunext_funext_type_from_trunc&#45;&gt;TruncImpliesFunext_interval_rec</title>
<path fill="none" stroke="#000000" d="M150.5887,-159.805C153.6282,-151.4203 157.002,-142.1132 160.0773,-133.6295"/>
<polygon fill="#000000" stroke="#000000" points="163.3949,-134.7474 163.5125,-124.1532 156.8139,-132.3618 163.3949,-134.7474"/>
</g>
<!-- TruncImpliesFunext_interval -->
<g id="node5" class="node">
<title>TruncImpliesFunext_interval</title>
<g id="a_node5"><a xlink:href="TruncImpliesFunext.html#interval" xlink:title="interval">
<ellipse fill="#f070d1" stroke="#000000" cx="117.093" cy="-34" rx="37.8943" ry="18"/>
<text text-anchor="middle" x="117.093" y="-30.3" font-family="Times,serif" font-size="14.00" fill="#000000">interval</text>
</a>
</g>
</g>
<!-- TruncImpliesFunext_seg&#45;&gt;TruncImpliesFunext_interval -->
<g id="edge3" class="edge">
<title>TruncImpliesFunext_seg&#45;&gt;TruncImpliesFunext_interval</title>
<path fill="none" stroke="#000000" d="M69.6309,-90.0209C77.3858,-80.8676 87.2857,-69.1824 96.0355,-58.8548"/>
<polygon fill="#000000" stroke="#000000" points="98.9493,-60.83 102.7431,-50.9377 93.6084,-56.3051 98.9493,-60.83"/>
</g>
<!-- TruncImpliesFunext_interval_rec&#45;&gt;TruncImpliesFunext_interval -->
<g id="edge4" class="edge">
<title>TruncImpliesFunext_interval_rec&#45;&gt;TruncImpliesFunext_interval</title>
<path fill="none" stroke="#000000" d="M156.9919,-88.2022C150.6082,-79.5301 142.8168,-68.9455 135.8189,-59.4389"/>
<polygon fill="#000000" stroke="#000000" points="138.4254,-57.0757 129.6785,-51.0972 132.788,-61.2255 138.4254,-57.0757"/>
</g>
</g>
</svg>
