<?xml version="1.0" encoding="UTF-8" standalone="no"?>
<!DOCTYPE svg PUBLIC "-//W3C//DTD SVG 1.1//EN"
 "http://www.w3.org/Graphics/SVG/1.1/DTD/svg11.dtd">
<!-- Generated by graphviz version 2.26.3 (20100126.1600)
 -->
<!-- Title: HoTT_categories_FunctorCategory_Dual Pages: 1 -->
<svg width="924pt" height="466pt"
 viewBox="0.00 0.00 924.00 466.00" xmlns="http://www.w3.org/2000/svg" xmlns:xlink="http://www.w3.org/1999/xlink">
<g id="graph1" class="graph" transform="scale(1 1) rotate(0) translate(4 462)">
<title>HoTT_categories_FunctorCategory_Dual</title>
<polygon fill="white" stroke="white" points="-4,5 -4,-462 921,-462 921,5 -4,5"/>
<g id="graph2" class="cluster"><title>cluster_Dual</title>
<polygon fill="#ffffc3" stroke="black" points="8,-19.6989 8,-438.301 908,-438.301 908,-19.6989 8,-19.6989"/>
<text text-anchor="middle" x="32.5" y="-421.701" font-family="Times Roman,serif" font-size="14.00">Dual</text>
</g>
<!-- Dual_opposite_functor__law -->
<g id="node1" class="node"><title>Dual_opposite_functor__law</title>
<a xlink:href="Dual.html#opposite_functor&#39;_law" xlink:title="opposite_functor&#39;_law">
<ellipse fill="#facdef" stroke="black" cx="640" cy="-287.699" rx="118.087" ry="18.3848"/>
<ellipse fill="none" stroke="black" cx="640" cy="-287.699" rx="122.087" ry="22.3848"/>
<ellipse fill="none" stroke="black" cx="640" cy="-287.699" rx="126.087" ry="26.3848"/>
<text text-anchor="middle" x="640" y="-284.099" font-family="Times Roman,serif" font-size="14.00">opposite_functor&#39;_law</text>
</a>
</g>
<!-- Dual_opposite_functor_inv_ -->
<g id="node3" class="node"><title>Dual_opposite_functor_inv_</title>
<a xlink:href="Dual.html#opposite_functor_inv&#39;" xlink:title="opposite_functor_inv&#39;">
<ellipse fill="#f070d1" stroke="black" cx="577" cy="-85.6989" rx="114.759" ry="18.3848"/>
<text text-anchor="middle" x="577" y="-82.0989" font-family="Times Roman,serif" font-size="14.00">opposite_functor_inv&#39;</text>
</a>
</g>
<!-- Dual_opposite_functor__law&#45;&gt;Dual_opposite_functor_inv_ -->
<g id="edge2" class="edge"><title>Dual_opposite_functor__law&#45;&gt;Dual_opposite_functor_inv_</title>
<path fill="none" stroke="black" d="M631.634,-260.875C619.713,-222.65 597.939,-152.835 585.789,-113.879"/>
<polygon fill="black" stroke="black" points="589.095,-112.724 582.776,-104.22 582.412,-114.808 589.095,-112.724"/>
</g>
<!-- Dual_opposite_functor_ -->
<g id="node4" class="node"><title>Dual_opposite_functor_</title>
<a xlink:href="Dual.html#opposite_functor&#39;" xlink:title="opposite_functor&#39;">
<ellipse fill="#f070d1" stroke="black" cx="805" cy="-85.6989" rx="94.7523" ry="18.3848"/>
<text text-anchor="middle" x="805" y="-82.0989" font-family="Times Roman,serif" font-size="14.00">opposite_functor&#39;</text>
</a>
</g>
<!-- Dual_opposite_functor__law&#45;&gt;Dual_opposite_functor_ -->
<g id="edge4" class="edge"><title>Dual_opposite_functor__law&#45;&gt;Dual_opposite_functor_</title>
<path fill="none" stroke="black" d="M661.571,-261.291C693.162,-222.615 751.685,-150.97 783.332,-112.226"/>
<polygon fill="black" stroke="black" points="786.412,-113.988 790.028,-104.029 780.991,-109.559 786.412,-113.988"/>
</g>
<!-- Dual_opposite_functor_law -->
<g id="node2" class="node"><title>Dual_opposite_functor_law</title>
<a xlink:href="Dual.html#opposite_functor_law" xlink:title="opposite_functor_law">
<ellipse fill="#facdef" stroke="black" cx="288" cy="-287.699" rx="115.966" ry="18.3848"/>
<ellipse fill="none" stroke="black" cx="288" cy="-287.699" rx="119.966" ry="22.3848"/>
<ellipse fill="none" stroke="black" cx="288" cy="-287.699" rx="123.966" ry="26.3848"/>
<text text-anchor="middle" x="288" y="-284.099" font-family="Times Roman,serif" font-size="14.00">opposite_functor_law</text>
</a>
</g>
<!-- Dual_opposite_functor_inv -->
<g id="node5" class="node"><title>Dual_opposite_functor_inv</title>
<a xlink:href="Dual.html#opposite_functor_inv" xlink:title="opposite_functor_inv">
<ellipse fill="#f070d1" stroke="black" cx="129" cy="-85.6989" rx="113.137" ry="18.3848"/>
<text text-anchor="middle" x="129" y="-82.0989" font-family="Times Roman,serif" font-size="14.00">opposite_functor_inv</text>
</a>
</g>
<!-- Dual_opposite_functor_law&#45;&gt;Dual_opposite_functor_inv -->
<g id="edge6" class="edge"><title>Dual_opposite_functor_law&#45;&gt;Dual_opposite_functor_inv</title>
<path fill="none" stroke="black" d="M267.214,-261.291C236.849,-222.715 180.666,-151.338 150.116,-112.526"/>
<polygon fill="black" stroke="black" points="152.582,-110 143.647,-104.307 147.082,-114.329 152.582,-110"/>
</g>
<!-- Dual_opposite_functor -->
<g id="node6" class="node"><title>Dual_opposite_functor</title>
<a xlink:href="Dual.html#opposite_functor" xlink:title="opposite_functor">
<ellipse fill="#f070d1" stroke="black" cx="352" cy="-85.6989" rx="92.1303" ry="18.3848"/>
<text text-anchor="middle" x="352" y="-82.0989" font-family="Times Roman,serif" font-size="14.00">opposite_functor</text>
</a>
</g>
<!-- Dual_opposite_functor_law&#45;&gt;Dual_opposite_functor -->
<g id="edge8" class="edge"><title>Dual_opposite_functor_law&#45;&gt;Dual_opposite_functor</title>
<path fill="none" stroke="black" d="M296.499,-260.875C308.609,-222.65 330.729,-152.835 343.072,-113.879"/>
<polygon fill="black" stroke="black" points="346.448,-114.81 346.132,-104.22 339.775,-112.695 346.448,-114.81"/>
</g>
</g>
</svg>
