<?xml version="1.0" encoding="UTF-8" standalone="no"?>
<!DOCTYPE svg PUBLIC "-//W3C//DTD SVG 1.1//EN"
 "http://www.w3.org/Graphics/SVG/1.1/DTD/svg11.dtd">
<!-- Generated by graphviz version 2.39.20161220.0128 (20161220.0128)
 -->
<!-- Title: HoTT_Spectra_Coinductive Pages: 1 -->
<svg width="862pt" height="435pt"
 viewBox="0.00 0.00 862.00 435.00" xmlns="http://www.w3.org/2000/svg" xmlns:xlink="http://www.w3.org/1999/xlink">
<g id="graph0" class="graph" transform="scale(1 1) rotate(0) translate(4 431)">
<title>HoTT_Spectra_Coinductive</title>
<polygon fill="#ffffff" stroke="transparent" points="-4,4 -4,-431 858,-431 858,4 -4,4"/>
<g id="clust1" class="cluster">
<title>cluster_Coinductive</title>
<polygon fill="#ffffc3" stroke="#000000" points="8.1722,-8 8.1722,-419 845.8278,-419 845.8278,-8 8.1722,-8"/>
<text text-anchor="middle" x="49.6722" y="-403.8" font-family="Times,serif" font-size="14.00" fill="#000000">Coinductive</text>
</g>
<!-- Coinductive_Trsp -->
<g id="node1" class="node">
<title>Coinductive_Trsp</title>
<g id="a_node1"><a xlink:href="Coinductive.html#Trsp" xlink:title="Trsp">
<ellipse fill="#f070d1" stroke="#000000" cx="393.0981" cy="-186" rx="27" ry="18"/>
<ellipse fill="none" stroke="#000000" cx="393.0981" cy="-186" rx="31" ry="22"/>
<ellipse fill="none" stroke="#000000" cx="393.0981" cy="-186" rx="35" ry="26"/>
<text text-anchor="middle" x="393.0981" y="-182.3" font-family="Times,serif" font-size="14.00" fill="#000000">Trsp</text>
</a>
</g>
</g>
<!-- Coinductive_isspectrum_tr -->
<g id="node2" class="node">
<title>Coinductive_isspectrum_tr</title>
<g id="a_node2"><a xlink:href="Coinductive.html#isspectrum_tr" xlink:title="isspectrum_tr">
<ellipse fill="#f070d1" stroke="#000000" cx="395.0981" cy="-106" rx="59.2899" ry="18"/>
<text text-anchor="middle" x="395.0981" y="-102.3" font-family="Times,serif" font-size="14.00" fill="#000000">isspectrum_tr</text>
</a>
</g>
</g>
<!-- Coinductive_Trsp&#45;&gt;Coinductive_isspectrum_tr -->
<g id="edge1" class="edge">
<title>Coinductive_Trsp&#45;&gt;Coinductive_isspectrum_tr</title>
<path fill="none" stroke="#000000" d="M393.753,-159.805C393.958,-151.6026 394.1852,-142.5174 394.3935,-134.1839"/>
<polygon fill="#000000" stroke="#000000" points="397.8931,-134.2376 394.6443,-124.1532 390.8953,-134.0626 397.8931,-134.2376"/>
</g>
<!-- Coinductive_Spectrum -->
<g id="node17" class="node">
<title>Coinductive_Spectrum</title>
<g id="a_node17"><a xlink:href="Coinductive.html#Spectrum" xlink:title="Spectrum">
<ellipse fill="#f070d1" stroke="#000000" cx="521.0981" cy="-106" rx="44.6926" ry="18"/>
<text text-anchor="middle" x="521.0981" y="-102.3" font-family="Times,serif" font-size="14.00" fill="#000000">Spectrum</text>
</a>
</g>
</g>
<!-- Coinductive_Trsp&#45;&gt;Coinductive_Spectrum -->
<g id="edge2" class="edge">
<title>Coinductive_Trsp&#45;&gt;Coinductive_Spectrum</title>
<path fill="none" stroke="#000000" d="M419.9311,-169.2294C439.6876,-156.8816 466.6753,-140.0142 487.8079,-126.8063"/>
<polygon fill="#000000" stroke="#000000" points="489.8431,-129.6618 496.4681,-121.3937 486.1331,-123.7258 489.8431,-129.6618"/>
</g>
<!-- Coinductive_isspectrum_loops -->
<g id="node18" class="node">
<title>Coinductive_isspectrum_loops</title>
<g id="a_node18"><a xlink:href="Coinductive.html#isspectrum_loops" xlink:title="isspectrum_loops">
<ellipse fill="#7faaff" stroke="#000000" cx="440.0981" cy="-34" rx="72.5877" ry="18"/>
<text text-anchor="middle" x="440.0981" y="-30.3" font-family="Times,serif" font-size="14.00" fill="#000000">isspectrum_loops</text>
</a>
</g>
</g>
<!-- Coinductive_isspectrum_tr&#45;&gt;Coinductive_isspectrum_loops -->
<g id="edge3" class="edge">
<title>Coinductive_isspectrum_tr&#45;&gt;Coinductive_isspectrum_loops</title>
<path fill="none" stroke="#000000" d="M406.2217,-88.2022C411.4681,-79.8079 417.8345,-69.6218 423.6257,-60.3558"/>
<polygon fill="#000000" stroke="#000000" points="426.6145,-62.1776 428.9465,-51.8425 420.6785,-58.4675 426.6145,-62.1776"/>
</g>
<!-- Coinductive_IsSpectrum -->
<g id="node19" class="node">
<title>Coinductive_IsSpectrum</title>
<g id="a_node19"><a xlink:href="Coinductive.html#IsSpectrum" xlink:title="IsSpectrum">
<ellipse fill="#e2cdfa" stroke="#000000" cx="295.0981" cy="-34" rx="51.1914" ry="18"/>
<text text-anchor="middle" x="295.0981" y="-30.3" font-family="Times,serif" font-size="14.00" fill="#000000">IsSpectrum</text>
</a>
</g>
</g>
<!-- Coinductive_isspectrum_tr&#45;&gt;Coinductive_IsSpectrum -->
<g id="edge4" class="edge">
<title>Coinductive_isspectrum_tr&#45;&gt;Coinductive_IsSpectrum</title>
<path fill="none" stroke="#000000" d="M371.9047,-89.3008C358.3035,-79.5079 340.9449,-67.0097 326.1721,-56.3733"/>
<polygon fill="#000000" stroke="#000000" points="327.9813,-53.3631 317.8209,-50.3604 323.8912,-59.0439 327.9813,-53.3631"/>
</g>
<!-- Coinductive_loopsp_functor -->
<g id="node3" class="node">
<title>Coinductive_loopsp_functor</title>
<g id="a_node3"><a xlink:href="Coinductive.html#loopsp_functor" xlink:title="loopsp_functor">
<ellipse fill="#f070d1" stroke="#000000" cx="535.0981" cy="-362" rx="63.8675" ry="18"/>
<ellipse fill="none" stroke="#000000" cx="535.0981" cy="-362" rx="67.8784" ry="22"/>
<ellipse fill="none" stroke="#000000" cx="535.0981" cy="-362" rx="71.8892" ry="26"/>
<text text-anchor="middle" x="535.0981" y="-358.3" font-family="Times,serif" font-size="14.00" fill="#000000">loopsp_functor</text>
</a>
</g>
</g>
<!-- Coinductive_isspmap_loops_functor -->
<g id="node4" class="node">
<title>Coinductive_isspmap_loops_functor</title>
<g id="a_node4"><a xlink:href="Coinductive.html#isspmap_loops_functor" xlink:title="isspmap_loops_functor">
<ellipse fill="#facdef" stroke="#000000" cx="535.0981" cy="-274" rx="92.8835" ry="18"/>
<text text-anchor="middle" x="535.0981" y="-270.3" font-family="Times,serif" font-size="14.00" fill="#000000">isspmap_loops_functor</text>
</a>
</g>
</g>
<!-- Coinductive_loopsp_functor&#45;&gt;Coinductive_isspmap_loops_functor -->
<g id="edge5" class="edge">
<title>Coinductive_loopsp_functor&#45;&gt;Coinductive_isspmap_loops_functor</title>
<path fill="none" stroke="#000000" d="M535.0981,-335.5971C535.0981,-325.0414 535.0981,-312.868 535.0981,-302.1448"/>
<polygon fill="#000000" stroke="#000000" points="538.5982,-302.0188 535.0981,-292.0188 531.5982,-302.0188 538.5982,-302.0188"/>
</g>
<!-- Coinductive_SpMap -->
<g id="node7" class="node">
<title>Coinductive_SpMap</title>
<g id="a_node7"><a xlink:href="Coinductive.html#SpMap" xlink:title="SpMap">
<ellipse fill="#f070d1" stroke="#000000" cx="201.0981" cy="-274" rx="36.2938" ry="18"/>
<text text-anchor="middle" x="201.0981" y="-270.3" font-family="Times,serif" font-size="14.00" fill="#000000">SpMap</text>
</a>
</g>
</g>
<!-- Coinductive_loopsp_functor&#45;&gt;Coinductive_SpMap -->
<g id="edge6" class="edge">
<title>Coinductive_loopsp_functor&#45;&gt;Coinductive_SpMap</title>
<path fill="none" stroke="#000000" d="M467.6976,-352.9051C408.7584,-343.6643 321.5094,-326.8392 249.0981,-300 243.7662,-298.0237 238.2969,-295.5456 233.0475,-292.9094"/>
<polygon fill="#000000" stroke="#000000" points="234.388,-289.6587 223.9132,-288.0679 231.1097,-295.8436 234.388,-289.6587"/>
</g>
<!-- Coinductive_loopsp -->
<g id="node14" class="node">
<title>Coinductive_loopsp</title>
<g id="a_node14"><a xlink:href="Coinductive.html#loopsp" xlink:title="loopsp">
<ellipse fill="#f070d1" stroke="#000000" cx="803.0981" cy="-186" rx="34.394" ry="18"/>
<text text-anchor="middle" x="803.0981" y="-182.3" font-family="Times,serif" font-size="14.00" fill="#000000">loopsp</text>
</a>
</g>
</g>
<!-- Coinductive_loopsp_functor&#45;&gt;Coinductive_loopsp -->
<g id="edge7" class="edge">
<title>Coinductive_loopsp_functor&#45;&gt;Coinductive_loopsp</title>
<path fill="none" stroke="#000000" d="M603.7409,-354.2925C670.9621,-345.242 766.7386,-327.8281 791.0981,-300 811.399,-276.8084 811.5286,-239.9536 808.4632,-214.4556"/>
<polygon fill="#000000" stroke="#000000" points="811.8902,-213.6967 807.0034,-204.2962 804.9614,-214.6924 811.8902,-213.6967"/>
</g>
<!-- Coinductive_spmap_loop -->
<g id="node8" class="node">
<title>Coinductive_spmap_loop</title>
<g id="a_node8"><a xlink:href="Coinductive.html#spmap_loop" xlink:title="spmap_loop">
<ellipse fill="#7faaff" stroke="#000000" cx="640.0981" cy="-106" rx="53.8905" ry="18"/>
<text text-anchor="middle" x="640.0981" y="-102.3" font-family="Times,serif" font-size="14.00" fill="#000000">spmap_loop</text>
</a>
</g>
</g>
<!-- Coinductive_isspmap_loops_functor&#45;&gt;Coinductive_spmap_loop -->
<g id="edge8" class="edge">
<title>Coinductive_isspmap_loops_functor&#45;&gt;Coinductive_spmap_loop</title>
<path fill="none" stroke="#000000" d="M575.7253,-257.7276C595.5185,-247.6126 617.6764,-232.5676 630.0981,-212 644.2049,-188.6424 645.3676,-156.9758 643.8238,-134.3498"/>
<polygon fill="#000000" stroke="#000000" points="647.3063,-133.9966 642.9273,-124.349 640.3342,-134.6216 647.3063,-133.9966"/>
</g>
<!-- Coinductive_IsSpMap -->
<g id="node9" class="node">
<title>Coinductive_IsSpMap</title>
<g id="a_node9"><a xlink:href="Coinductive.html#IsSpMap" xlink:title="IsSpMap">
<ellipse fill="#e2cdfa" stroke="#000000" cx="295.0981" cy="-186" rx="42.7926" ry="18"/>
<text text-anchor="middle" x="295.0981" y="-182.3" font-family="Times,serif" font-size="14.00" fill="#000000">IsSpMap</text>
</a>
</g>
</g>
<!-- Coinductive_isspmap_loops_functor&#45;&gt;Coinductive_IsSpMap -->
<g id="edge9" class="edge">
<title>Coinductive_isspmap_loops_functor&#45;&gt;Coinductive_IsSpMap</title>
<path fill="none" stroke="#000000" d="M483.9423,-258.8711C446.2192,-247.2526 393.8902,-230.1631 349.0981,-212 343.4768,-209.7206 337.6154,-207.131 331.9148,-204.4908"/>
<polygon fill="#000000" stroke="#000000" points="333.0786,-201.1691 322.5435,-200.0454 330.0784,-207.4936 333.0786,-201.1691"/>
</g>
<!-- Coinductive_isspmap_loops_oo_functor -->
<g id="node5" class="node">
<title>Coinductive_isspmap_loops_oo_functor</title>
<g id="a_node5"><a xlink:href="Coinductive.html#isspmap_loops_oo_functor" xlink:title="isspmap_loops_oo_functor">
<ellipse fill="#f070d1" stroke="#000000" cx="201.0981" cy="-362" rx="106.6748" ry="18"/>
<ellipse fill="none" stroke="#000000" cx="201.0981" cy="-362" rx="110.678" ry="22"/>
<ellipse fill="none" stroke="#000000" cx="201.0981" cy="-362" rx="114.6812" ry="26"/>
<text text-anchor="middle" x="201.0981" y="-358.3" font-family="Times,serif" font-size="14.00" fill="#000000">isspmap_loops_oo_functor</text>
</a>
</g>
</g>
<!-- Coinductive_isspmap_loops_oo_functor&#45;&gt;Coinductive_SpMap -->
<g id="edge10" class="edge">
<title>Coinductive_isspmap_loops_oo_functor&#45;&gt;Coinductive_SpMap</title>
<path fill="none" stroke="#000000" d="M201.0981,-335.5971C201.0981,-325.0414 201.0981,-312.868 201.0981,-302.1448"/>
<polygon fill="#000000" stroke="#000000" points="204.5982,-302.0188 201.0981,-292.0188 197.5982,-302.0188 204.5982,-302.0188"/>
</g>
<!-- Coinductive_loops_oo_functor -->
<g id="node6" class="node">
<title>Coinductive_loops_oo_functor</title>
<g id="a_node6"><a xlink:href="Coinductive.html#loops_oo_functor" xlink:title="loops_oo_functor">
<ellipse fill="#f070d1" stroke="#000000" cx="339.0981" cy="-274" rx="72.608" ry="18"/>
<ellipse fill="none" stroke="#000000" cx="339.0981" cy="-274" rx="76.5978" ry="22"/>
<ellipse fill="none" stroke="#000000" cx="339.0981" cy="-274" rx="80.5876" ry="26"/>
<text text-anchor="middle" x="339.0981" y="-270.3" font-family="Times,serif" font-size="14.00" fill="#000000">loops_oo_functor</text>
</a>
</g>
</g>
<!-- Coinductive_loops_oo_functor&#45;&gt;Coinductive_IsSpMap -->
<g id="edge11" class="edge">
<title>Coinductive_loops_oo_functor&#45;&gt;Coinductive_IsSpMap</title>
<path fill="none" stroke="#000000" d="M326.1346,-248.0731C320.6057,-237.0152 314.1551,-224.114 308.5714,-212.9467"/>
<polygon fill="#000000" stroke="#000000" points="311.5354,-211.0482 303.9327,-203.6692 305.2744,-214.1788 311.5354,-211.0482"/>
</g>
<!-- Coinductive_isspectrum_loops_oo -->
<g id="node15" class="node">
<title>Coinductive_isspectrum_loops_oo</title>
<g id="a_node15"><a xlink:href="Coinductive.html#isspectrum_loops_oo" xlink:title="isspectrum_loops_oo">
<ellipse fill="#f070d1" stroke="#000000" cx="535.0981" cy="-186" rx="85.5853" ry="18"/>
<text text-anchor="middle" x="535.0981" y="-182.3" font-family="Times,serif" font-size="14.00" fill="#000000">isspectrum_loops_oo</text>
</a>
</g>
</g>
<!-- Coinductive_loops_oo_functor&#45;&gt;Coinductive_isspectrum_loops_oo -->
<g id="edge12" class="edge">
<title>Coinductive_loops_oo_functor&#45;&gt;Coinductive_isspectrum_loops_oo</title>
<path fill="none" stroke="#000000" d="M386.5442,-252.6977C417.7568,-238.6838 458.3911,-220.4399 489.2705,-206.5757"/>
<polygon fill="#000000" stroke="#000000" points="490.8302,-209.712 498.5193,-202.4231 487.963,-203.3261 490.8302,-209.712"/>
</g>
<!-- Coinductive_loops_oo -->
<g id="node16" class="node">
<title>Coinductive_loops_oo</title>
<g id="a_node16"><a xlink:href="Coinductive.html#loops_oo" xlink:title="loops_oo">
<ellipse fill="#f070d1" stroke="#000000" cx="60.0981" cy="-186" rx="42.7926" ry="18"/>
<text text-anchor="middle" x="60.0981" y="-182.3" font-family="Times,serif" font-size="14.00" fill="#000000">loops_oo</text>
</a>
</g>
</g>
<!-- Coinductive_loops_oo_functor&#45;&gt;Coinductive_loops_oo -->
<g id="edge13" class="edge">
<title>Coinductive_loops_oo_functor&#45;&gt;Coinductive_loops_oo</title>
<path fill="none" stroke="#000000" d="M278.0776,-256.8989C267.4201,-253.9241 256.4378,-250.866 246.0981,-248 187.9114,-231.8713 171.7161,-232.9815 115.0981,-212 109.0538,-209.7601 102.7655,-207.1105 96.693,-204.3738"/>
<polygon fill="#000000" stroke="#000000" points="97.9375,-201.0926 87.3943,-200.0479 94.9849,-207.4394 97.9375,-201.0926"/>
</g>
<!-- Coinductive_SpMap&#45;&gt;Coinductive_IsSpMap -->
<g id="edge14" class="edge">
<title>Coinductive_SpMap&#45;&gt;Coinductive_IsSpMap</title>
<path fill="none" stroke="#000000" d="M218.3391,-257.8594C232.7325,-244.3848 253.4513,-224.9885 269.7364,-209.7428"/>
<polygon fill="#000000" stroke="#000000" points="272.4194,-212.0255 277.3276,-202.6362 267.6354,-206.9154 272.4194,-212.0255"/>
</g>
<!-- Coinductive_SpMap&#45;&gt;Coinductive_isspectrum_loops_oo -->
<g id="edge15" class="edge">
<title>Coinductive_SpMap&#45;&gt;Coinductive_isspectrum_loops_oo</title>
<path fill="none" stroke="#000000" d="M223.869,-259.8104C231.637,-255.4791 240.5293,-251.0582 249.0981,-248 329.2216,-219.4037 354.1548,-230.9196 437.0981,-212 448.8967,-209.3087 461.4261,-206.1878 473.4429,-203.062"/>
<polygon fill="#000000" stroke="#000000" points="474.609,-206.3744 483.389,-200.4446 472.8275,-199.6049 474.609,-206.3744"/>
</g>
<!-- Coinductive_SpMap&#45;&gt;Coinductive_loops_oo -->
<g id="edge16" class="edge">
<title>Coinductive_SpMap&#45;&gt;Coinductive_loops_oo</title>
<path fill="none" stroke="#000000" d="M178.444,-259.8613C155.2238,-245.3693 118.8923,-222.6943 92.6072,-206.2893"/>
<polygon fill="#000000" stroke="#000000" points="94.4482,-203.3126 84.1117,-200.9872 90.7419,-209.251 94.4482,-203.3126"/>
</g>
<!-- Coinductive_spmap_loop&#45;&gt;Coinductive_isspectrum_loops -->
<g id="edge17" class="edge">
<title>Coinductive_spmap_loop&#45;&gt;Coinductive_isspectrum_loops</title>
<path fill="none" stroke="#000000" d="M603.415,-92.7941C571.8728,-81.4389 526.0533,-64.9439 490.9691,-52.3136"/>
<polygon fill="#000000" stroke="#000000" points="491.9734,-48.9553 481.379,-48.8611 489.6024,-55.5415 491.9734,-48.9553"/>
</g>
<!-- Coinductive_spmap_loop&#45;&gt;Coinductive_IsSpectrum -->
<g id="edge18" class="edge">
<title>Coinductive_spmap_loop&#45;&gt;Coinductive_IsSpectrum</title>
<path fill="none" stroke="#000000" d="M599.348,-94.0061C591.3463,-91.8522 582.9876,-89.7417 575.0981,-88 479.6341,-66.9251 453.4755,-73.4635 358.0981,-52 353.4197,-50.9472 348.5738,-49.753 343.7423,-48.4926"/>
<polygon fill="#000000" stroke="#000000" points="344.4704,-45.0639 333.9038,-45.8364 342.6458,-51.8219 344.4704,-45.0639"/>
</g>
<!-- Coinductive_IsSpMap&#45;&gt;Coinductive_isspectrum_loops -->
<g id="edge19" class="edge">
<title>Coinductive_IsSpMap&#45;&gt;Coinductive_isspectrum_loops</title>
<path fill="none" stroke="#000000" d="M296.7108,-167.9941C299.5023,-146.5808 307.0282,-110.8686 327.0981,-88 341.5802,-71.4983 362.2185,-59.613 381.9034,-51.2697"/>
<polygon fill="#000000" stroke="#000000" points="383.4703,-54.4128 391.4591,-47.4537 380.8742,-47.912 383.4703,-54.4128"/>
</g>
<!-- Coinductive_IsSpMap&#45;&gt;Coinductive_IsSpectrum -->
<g id="edge20" class="edge">
<title>Coinductive_IsSpMap&#45;&gt;Coinductive_IsSpectrum</title>
<path fill="none" stroke="#000000" d="M295.0981,-167.9667C295.0981,-141.7983 295.0981,-93.0561 295.0981,-62.1368"/>
<polygon fill="#000000" stroke="#000000" points="298.5982,-62.0098 295.0981,-52.0098 291.5982,-62.0099 298.5982,-62.0098"/>
</g>
<!-- Coinductive_equiv_loopsp -->
<g id="node10" class="node">
<title>Coinductive_equiv_loopsp</title>
<g id="a_node10"><a xlink:href="Coinductive.html#equiv_loopsp" xlink:title="equiv_loopsp">
<ellipse fill="#f070d1" stroke="#000000" cx="716.0981" cy="-274" rx="57.7089" ry="18"/>
<ellipse fill="none" stroke="#000000" cx="716.0981" cy="-274" rx="61.6995" ry="22"/>
<ellipse fill="none" stroke="#000000" cx="716.0981" cy="-274" rx="65.6901" ry="26"/>
<text text-anchor="middle" x="716.0981" y="-270.3" font-family="Times,serif" font-size="14.00" fill="#000000">equiv_loopsp</text>
</a>
</g>
</g>
<!-- Coinductive_unloopsp -->
<g id="node11" class="node">
<title>Coinductive_unloopsp</title>
<g id="a_node11"><a xlink:href="Coinductive.html#unloopsp" xlink:title="unloopsp">
<ellipse fill="#f070d1" stroke="#000000" cx="706.0981" cy="-186" rx="42.7926" ry="18"/>
<text text-anchor="middle" x="706.0981" y="-182.3" font-family="Times,serif" font-size="14.00" fill="#000000">unloopsp</text>
</a>
</g>
</g>
<!-- Coinductive_equiv_loopsp&#45;&gt;Coinductive_unloopsp -->
<g id="edge21" class="edge">
<title>Coinductive_equiv_loopsp&#45;&gt;Coinductive_unloopsp</title>
<path fill="none" stroke="#000000" d="M713.0978,-247.5971C711.8982,-237.0414 710.5149,-224.868 709.2964,-214.1448"/>
<polygon fill="#000000" stroke="#000000" points="712.7525,-213.5596 708.1457,-204.0188 705.7972,-214.3501 712.7525,-213.5596"/>
</g>
<!-- Coinductive_equiv_loopsp&#45;&gt;Coinductive_loopsp -->
<g id="edge22" class="edge">
<title>Coinductive_equiv_loopsp&#45;&gt;Coinductive_loopsp</title>
<path fill="none" stroke="#000000" d="M740.3324,-249.4871C752.7402,-236.9367 767.7687,-221.7355 780.0089,-209.3545"/>
<polygon fill="#000000" stroke="#000000" points="782.68,-211.6311 787.2216,-202.059 777.702,-206.7097 782.68,-211.6311"/>
</g>
<!-- Coinductive_unloopsp&#45;&gt;Coinductive_Spectrum -->
<g id="edge23" class="edge">
<title>Coinductive_unloopsp&#45;&gt;Coinductive_Spectrum</title>
<path fill="none" stroke="#000000" d="M675.9629,-172.9686C644.7046,-159.4515 595.6612,-138.2435 561.1566,-123.3226"/>
<polygon fill="#000000" stroke="#000000" points="562.4047,-120.0491 551.8369,-119.2925 559.6262,-126.4741 562.4047,-120.0491"/>
</g>
<!-- Coinductive_frobsp_eq -->
<g id="node12" class="node">
<title>Coinductive_frobsp_eq</title>
<g id="a_node12"><a xlink:href="Coinductive.html#frobsp_eq" xlink:title="frobsp_eq">
<ellipse fill="#f070d1" stroke="#000000" cx="178.0981" cy="-186" rx="46.2706" ry="18"/>
<ellipse fill="none" stroke="#000000" cx="178.0981" cy="-186" rx="50.2814" ry="22"/>
<ellipse fill="none" stroke="#000000" cx="178.0981" cy="-186" rx="54.2922" ry="26"/>
<text text-anchor="middle" x="178.0981" y="-182.3" font-family="Times,serif" font-size="14.00" fill="#000000">frobsp_eq</text>
</a>
</g>
</g>
<!-- Coinductive_frobsp -->
<g id="node13" class="node">
<title>Coinductive_frobsp</title>
<g id="a_node13"><a xlink:href="Coinductive.html#frobsp" xlink:title="frobsp">
<ellipse fill="#f070d1" stroke="#000000" cx="242.0981" cy="-106" rx="33.2948" ry="18"/>
<text text-anchor="middle" x="242.0981" y="-102.3" font-family="Times,serif" font-size="14.00" fill="#000000">frobsp</text>
</a>
</g>
</g>
<!-- Coinductive_frobsp_eq&#45;&gt;Coinductive_frobsp -->
<g id="edge24" class="edge">
<title>Coinductive_frobsp_eq&#45;&gt;Coinductive_frobsp</title>
<path fill="none" stroke="#000000" d="M197.648,-161.5627C205.4595,-151.7982 214.4437,-140.568 222.2816,-130.7706"/>
<polygon fill="#000000" stroke="#000000" points="225.031,-132.9366 228.5449,-122.9415 219.5649,-128.5638 225.031,-132.9366"/>
</g>
<!-- Coinductive_frobsp&#45;&gt;Coinductive_isspectrum_loops -->
<g id="edge25" class="edge">
<title>Coinductive_frobsp&#45;&gt;Coinductive_isspectrum_loops</title>
<path fill="none" stroke="#000000" d="M270.0467,-95.8369C300.871,-84.628 351.1179,-66.3564 389.0173,-52.5748"/>
<polygon fill="#000000" stroke="#000000" points="390.6573,-55.7028 398.8591,-48.996 388.265,-49.1242 390.6573,-55.7028"/>
</g>
<!-- Coinductive_frobsp&#45;&gt;Coinductive_IsSpectrum -->
<g id="edge26" class="edge">
<title>Coinductive_frobsp&#45;&gt;Coinductive_IsSpectrum</title>
<path fill="none" stroke="#000000" d="M254.6583,-88.937C261.0981,-80.1886 269.0733,-69.3545 276.2348,-59.6256"/>
<polygon fill="#000000" stroke="#000000" points="279.1503,-61.5689 282.2598,-51.4407 273.5129,-57.4192 279.1503,-61.5689"/>
</g>
<!-- Coinductive_loopsp&#45;&gt;Coinductive_Spectrum -->
<g id="edge27" class="edge">
<title>Coinductive_loopsp&#45;&gt;Coinductive_Spectrum</title>
<path fill="none" stroke="#000000" d="M781.8358,-171.8036C774.559,-167.4717 766.2043,-163.0524 758.0981,-160 681.3393,-131.0967 656.4935,-144.5833 577.0981,-124 573.2057,-122.9909 569.186,-121.8664 565.17,-120.6859"/>
<polygon fill="#000000" stroke="#000000" points="565.8561,-117.2361 555.2701,-117.6697 563.816,-123.9322 565.8561,-117.2361"/>
</g>
<!-- Coinductive_loopsp&#45;&gt;Coinductive_isspectrum_loops -->
<g id="edge28" class="edge">
<title>Coinductive_loopsp&#45;&gt;Coinductive_isspectrum_loops</title>
<path fill="none" stroke="#000000" d="M790.6789,-168.7758C773.5937,-146.4383 740.6536,-107.9788 703.0981,-88 670.8547,-70.8472 579.5384,-54.4599 513.5516,-44.3281"/>
<polygon fill="#000000" stroke="#000000" points="514.0131,-40.8581 503.6011,-42.818 512.9627,-47.7789 514.0131,-40.8581"/>
</g>
<!-- Coinductive_isspectrum_loops_oo&#45;&gt;Coinductive_Spectrum -->
<g id="edge29" class="edge">
<title>Coinductive_isspectrum_loops_oo&#45;&gt;Coinductive_Spectrum</title>
<path fill="none" stroke="#000000" d="M531.9213,-167.8468C530.185,-157.9251 527.996,-145.4167 526.0417,-134.2492"/>
<polygon fill="#000000" stroke="#000000" points="529.4338,-133.3283 524.2623,-124.0814 522.5386,-134.5351 529.4338,-133.3283"/>
</g>
<!-- Coinductive_loops_oo&#45;&gt;Coinductive_IsSpectrum -->
<g id="edge30" class="edge">
<title>Coinductive_loops_oo&#45;&gt;Coinductive_IsSpectrum</title>
<path fill="none" stroke="#000000" d="M81.4944,-170.0788C108.5943,-150.1351 156.9658,-115.2707 200.0981,-88 218.8053,-76.1722 240.1917,-63.91 257.9301,-54.0657"/>
<polygon fill="#000000" stroke="#000000" points="259.7728,-57.0465 266.8402,-49.1533 256.3931,-50.9165 259.7728,-57.0465"/>
</g>
<!-- Coinductive_Spectrum&#45;&gt;Coinductive_IsSpectrum -->
<g id="edge31" class="edge">
<title>Coinductive_Spectrum&#45;&gt;Coinductive_IsSpectrum</title>
<path fill="none" stroke="#000000" d="M485.7856,-94.75C447.3175,-82.4947 385.5683,-62.8224 342.8073,-49.1994"/>
<polygon fill="#000000" stroke="#000000" points="343.771,-45.8331 333.1803,-46.1324 341.646,-52.5028 343.771,-45.8331"/>
</g>
</g>
</svg>
