<?xml version="1.0" encoding="UTF-8" standalone="no"?>
<!DOCTYPE svg PUBLIC "-//W3C//DTD SVG 1.1//EN"
 "http://www.w3.org/Graphics/SVG/1.1/DTD/svg11.dtd">
<!-- Generated by graphviz version 2.39.20161220.0128 (20161220.0128)
 -->
<!-- Title: HoTT_Categories_Cat Pages: 1 -->
<svg width="2482pt" height="1245pt"
 viewBox="0.00 0.00 2482.00 1245.00" xmlns="http://www.w3.org/2000/svg" xmlns:xlink="http://www.w3.org/1999/xlink">
<g id="graph0" class="graph" transform="scale(1 1) rotate(0) translate(4 1241)">
<title>HoTT_Categories_Cat</title>
<polygon fill="#ffffff" stroke="transparent" points="-4,4 -4,-1241 2478,-1241 2478,4 -4,4"/>
<g id="clust1" class="cluster">
<title>cluster_Morphisms</title>
<polygon fill="#ffffc3" stroke="#000000" points="1254,-54.3736 1254,-564.1264 1668,-564.1264 1668,-54.3736 1254,-54.3736"/>
<text text-anchor="middle" x="1294" y="-548.9264" font-family="Times,serif" font-size="14.00" fill="#000000">Morphisms</text>
</g>
<g id="clust2" class="cluster">
<title>cluster_Cat</title>
<polygon fill="#ffffc3" stroke="#000000" points="8,-54.3736 8,-1182.6264 1246,-1182.6264 1246,-54.3736 8,-54.3736"/>
<text text-anchor="middle" x="25.5" y="-1167.4264" font-family="Times,serif" font-size="14.00" fill="#000000">Cat</text>
</g>
<g id="clust3" class="cluster">
<title>cluster_Core</title>
<polygon fill="#ffffc3" stroke="#000000" points="1676,-54.3736 1676,-1182.6264 2466,-1182.6264 2466,-54.3736 1676,-54.3736"/>
<text text-anchor="middle" x="1697.5" y="-1167.4264" font-family="Times,serif" font-size="14.00" fill="#000000">Core</text>
</g>
<!-- Morphisms_transport_cF_to_idtoiso -->
<g id="node1" class="node">
<title>Morphisms_transport_cF_to_idtoiso</title>
<g id="a_node1"><a xlink:href="Morphisms.html#transport_cF_to_idtoiso" xlink:title="transport_cF_to_idtoiso">
<ellipse fill="#facdef" stroke="#000000" cx="1565" cy="-231.3736" rx="94.7833" ry="18"/>
<text text-anchor="middle" x="1565" y="-227.6736" font-family="Times,serif" font-size="14.00" fill="#000000">transport_cF_to_idtoiso</text>
</a>
</g>
</g>
<!-- Morphisms_transport_Fc_to_idtoiso -->
<g id="node2" class="node">
<title>Morphisms_transport_Fc_to_idtoiso</title>
<g id="a_node2"><a xlink:href="Morphisms.html#transport_Fc_to_idtoiso" xlink:title="transport_Fc_to_idtoiso">
<ellipse fill="#facdef" stroke="#000000" cx="1357" cy="-231.3736" rx="94.7833" ry="18"/>
<text text-anchor="middle" x="1357" y="-227.6736" font-family="Times,serif" font-size="14.00" fill="#000000">transport_Fc_to_idtoiso</text>
</a>
</g>
</g>
<!-- Core_is_initial_object__is_initial_category -->
<g id="node3" class="node">
<title>Core_is_initial_object__is_initial_category</title>
<g id="a_node3"><a xlink:href="Core.html#is_initial_object__is_initial_category" xlink:title="is_initial_object__is_initial_category">
<ellipse fill="#f070d1" stroke="#000000" cx="2308" cy="-795.3736" rx="141.8651" ry="18"/>
<ellipse fill="none" stroke="#000000" cx="2308" cy="-795.3736" rx="145.8701" ry="22"/>
<ellipse fill="none" stroke="#000000" cx="2308" cy="-795.3736" rx="149.8751" ry="26"/>
<text text-anchor="middle" x="2308" y="-791.6736" font-family="Times,serif" font-size="14.00" fill="#000000">is_initial_object__is_initial_category</text>
</a>
</g>
</g>
<!-- Core_sub_pre_cat -->
<g id="node6" class="node">
<title>Core_sub_pre_cat</title>
<g id="a_node6"><a xlink:href="Core.html#sub_pre_cat" xlink:title="sub_pre_cat">
<ellipse fill="#f070d1" stroke="#000000" cx="1972" cy="-231.3736" rx="53.0913" ry="18"/>
<text text-anchor="middle" x="1972" y="-227.6736" font-family="Times,serif" font-size="14.00" fill="#000000">sub_pre_cat</text>
</a>
</g>
</g>
<!-- Core_is_initial_object__is_initial_category&#45;&gt;Core_sub_pre_cat -->
<g id="edge1" class="edge">
<title>Core_is_initial_object__is_initial_category&#45;&gt;Core_sub_pre_cat</title>
<path fill="none" stroke="#000000" d="M2292.4679,-769.3019C2236.323,-675.0587 2044.2433,-352.6392 1987.7494,-257.81"/>
<polygon fill="#000000" stroke="#000000" points="1990.6917,-255.9103 1982.5667,-249.1106 1984.678,-259.493 1990.6917,-255.9103"/>
</g>
<!-- Core_is_terminal_object__is_terminal_category -->
<g id="node4" class="node">
<title>Core_is_terminal_object__is_terminal_category</title>
<g id="a_node4"><a xlink:href="Core.html#is_terminal_object__is_terminal_category" xlink:title="is_terminal_object__is_terminal_category">
<ellipse fill="#f070d1" stroke="#000000" cx="1972" cy="-795.3736" rx="159.7771" ry="18"/>
<ellipse fill="none" stroke="#000000" cx="1972" cy="-795.3736" rx="163.7744" ry="22"/>
<ellipse fill="none" stroke="#000000" cx="1972" cy="-795.3736" rx="167.7717" ry="26"/>
<text text-anchor="middle" x="1972" y="-791.6736" font-family="Times,serif" font-size="14.00" fill="#000000">is_terminal_object__is_terminal_category</text>
</a>
</g>
</g>
<!-- Core_is_terminal_object__is_terminal_category&#45;&gt;Core_sub_pre_cat -->
<g id="edge2" class="edge">
<title>Core_is_terminal_object__is_terminal_category&#45;&gt;Core_sub_pre_cat</title>
<path fill="none" stroke="#000000" d="M1972,-769.3019C1972,-675.6385 1972,-356.5977 1972,-259.586"/>
<polygon fill="#000000" stroke="#000000" points="1975.5001,-259.3845 1972,-249.3846 1968.5001,-259.3846 1975.5001,-259.3845"/>
</g>
<!-- Core_strict_cat -->
<g id="node5" class="node">
<title>Core_strict_cat</title>
<g id="a_node5"><a xlink:href="Core.html#strict_cat" xlink:title="strict_cat">
<ellipse fill="#f070d1" stroke="#000000" cx="1735" cy="-795.3736" rx="42.8089" ry="18"/>
<ellipse fill="none" stroke="#000000" cx="1735" cy="-795.3736" rx="46.8007" ry="22"/>
<ellipse fill="none" stroke="#000000" cx="1735" cy="-795.3736" rx="50.7926" ry="26"/>
<text text-anchor="middle" x="1735" y="-791.6736" font-family="Times,serif" font-size="14.00" fill="#000000">strict_cat</text>
</a>
</g>
</g>
<!-- Core_strict_cat&#45;&gt;Core_sub_pre_cat -->
<g id="edge3" class="edge">
<title>Core_strict_cat&#45;&gt;Core_sub_pre_cat</title>
<path fill="none" stroke="#000000" d="M1745.7992,-769.6742C1785.0687,-676.2228 1920.0878,-354.9115 1960.4898,-258.7651"/>
<polygon fill="#000000" stroke="#000000" points="1963.7679,-259.9985 1964.4152,-249.4235 1957.3145,-257.2867 1963.7679,-259.9985"/>
</g>
<!-- Cat_transport_cF_to_idtoiso -->
<g id="node7" class="node">
<title>Cat_transport_cF_to_idtoiso</title>
<g id="a_node7"><a xlink:href="Cat.html#transport_cF_to_idtoiso" xlink:title="transport_cF_to_idtoiso">
<ellipse fill="#f070d1" stroke="#000000" cx="1135" cy="-795.3736" rx="94.7917" ry="18"/>
<ellipse fill="none" stroke="#000000" cx="1135" cy="-795.3736" rx="98.7875" ry="22"/>
<ellipse fill="none" stroke="#000000" cx="1135" cy="-795.3736" rx="102.7833" ry="26"/>
<text text-anchor="middle" x="1135" y="-791.6736" font-family="Times,serif" font-size="14.00" fill="#000000">transport_cF_to_idtoiso</text>
</a>
</g>
</g>
<!-- Cat_transport_cF_to_idtoiso&#45;&gt;Morphisms_transport_cF_to_idtoiso -->
<g id="edge4" class="edge">
<title>Cat_transport_cF_to_idtoiso&#45;&gt;Morphisms_transport_cF_to_idtoiso</title>
<path fill="none" stroke="#000000" d="M1154.5936,-769.6742C1226.1301,-675.8448 1472.7977,-352.3087 1544.9974,-257.6096"/>
<polygon fill="#000000" stroke="#000000" points="1547.9589,-259.4979 1551.2386,-249.4235 1542.3922,-255.2538 1547.9589,-259.4979"/>
</g>
<!-- Cat_transport_Fc_to_idtoiso -->
<g id="node8" class="node">
<title>Cat_transport_Fc_to_idtoiso</title>
<g id="a_node8"><a xlink:href="Cat.html#transport_Fc_to_idtoiso" xlink:title="transport_Fc_to_idtoiso">
<ellipse fill="#f070d1" stroke="#000000" cx="911" cy="-795.3736" rx="94.7917" ry="18"/>
<ellipse fill="none" stroke="#000000" cx="911" cy="-795.3736" rx="98.7875" ry="22"/>
<ellipse fill="none" stroke="#000000" cx="911" cy="-795.3736" rx="102.7833" ry="26"/>
<text text-anchor="middle" x="911" y="-791.6736" font-family="Times,serif" font-size="14.00" fill="#000000">transport_Fc_to_idtoiso</text>
</a>
</g>
</g>
<!-- Cat_transport_Fc_to_idtoiso&#45;&gt;Morphisms_transport_Fc_to_idtoiso -->
<g id="edge5" class="edge">
<title>Cat_transport_Fc_to_idtoiso&#45;&gt;Morphisms_transport_Fc_to_idtoiso</title>
<path fill="none" stroke="#000000" d="M931.3226,-769.6742C1005.5957,-675.7503 1261.8824,-351.6568 1336.4788,-257.3241"/>
<polygon fill="#000000" stroke="#000000" points="1339.2691,-259.4383 1342.7265,-249.4235 1333.7784,-255.0964 1339.2691,-259.4383"/>
</g>
<!-- Cat_is_initial_object__is_initial_category -->
<g id="node9" class="node">
<title>Cat_is_initial_object__is_initial_category</title>
<g id="a_node9"><a xlink:href="Cat.html#is_initial_object__is_initial_category" xlink:title="is_initial_object__is_initial_category">
<ellipse fill="#f070d1" stroke="#000000" cx="640" cy="-795.3736" rx="141.8651" ry="18"/>
<ellipse fill="none" stroke="#000000" cx="640" cy="-795.3736" rx="145.8701" ry="22"/>
<ellipse fill="none" stroke="#000000" cx="640" cy="-795.3736" rx="149.8751" ry="26"/>
<text text-anchor="middle" x="640" y="-791.6736" font-family="Times,serif" font-size="14.00" fill="#000000">is_initial_object__is_initial_category</text>
</a>
</g>
</g>
<!-- Cat_sub_pre_cat -->
<g id="node12" class="node">
<title>Cat_sub_pre_cat</title>
<g id="a_node12"><a xlink:href="Cat.html#sub_pre_cat" xlink:title="sub_pre_cat">
<ellipse fill="#f070d1" stroke="#000000" cx="304" cy="-231.3736" rx="53.0913" ry="18"/>
<text text-anchor="middle" x="304" y="-227.6736" font-family="Times,serif" font-size="14.00" fill="#000000">sub_pre_cat</text>
</a>
</g>
</g>
<!-- Cat_is_initial_object__is_initial_category&#45;&gt;Cat_sub_pre_cat -->
<g id="edge6" class="edge">
<title>Cat_is_initial_object__is_initial_category&#45;&gt;Cat_sub_pre_cat</title>
<path fill="none" stroke="#000000" d="M624.4679,-769.3019C568.323,-675.0587 376.2433,-352.6392 319.7494,-257.81"/>
<polygon fill="#000000" stroke="#000000" points="322.6917,-255.9103 314.5667,-249.1106 316.678,-259.493 322.6917,-255.9103"/>
</g>
<!-- Cat_is_terminal_object__is_terminal_category -->
<g id="node10" class="node">
<title>Cat_is_terminal_object__is_terminal_category</title>
<g id="a_node10"><a xlink:href="Cat.html#is_terminal_object__is_terminal_category" xlink:title="is_terminal_object__is_terminal_category">
<ellipse fill="#f070d1" stroke="#000000" cx="304" cy="-795.3736" rx="159.7771" ry="18"/>
<ellipse fill="none" stroke="#000000" cx="304" cy="-795.3736" rx="163.7744" ry="22"/>
<ellipse fill="none" stroke="#000000" cx="304" cy="-795.3736" rx="167.7717" ry="26"/>
<text text-anchor="middle" x="304" y="-791.6736" font-family="Times,serif" font-size="14.00" fill="#000000">is_terminal_object__is_terminal_category</text>
</a>
</g>
</g>
<!-- Cat_is_terminal_object__is_terminal_category&#45;&gt;Cat_sub_pre_cat -->
<g id="edge7" class="edge">
<title>Cat_is_terminal_object__is_terminal_category&#45;&gt;Cat_sub_pre_cat</title>
<path fill="none" stroke="#000000" d="M304,-769.3019C304,-675.6385 304,-356.5977 304,-259.586"/>
<polygon fill="#000000" stroke="#000000" points="307.5001,-259.3845 304,-249.3846 300.5001,-259.3846 307.5001,-259.3845"/>
</g>
<!-- Cat_strict_cat -->
<g id="node11" class="node">
<title>Cat_strict_cat</title>
<g id="a_node11"><a xlink:href="Cat.html#strict_cat" xlink:title="strict_cat">
<ellipse fill="#f070d1" stroke="#000000" cx="67" cy="-795.3736" rx="42.8089" ry="18"/>
<ellipse fill="none" stroke="#000000" cx="67" cy="-795.3736" rx="46.8007" ry="22"/>
<ellipse fill="none" stroke="#000000" cx="67" cy="-795.3736" rx="50.7926" ry="26"/>
<text text-anchor="middle" x="67" y="-791.6736" font-family="Times,serif" font-size="14.00" fill="#000000">strict_cat</text>
</a>
</g>
</g>
<!-- Cat_strict_cat&#45;&gt;Cat_sub_pre_cat -->
<g id="edge8" class="edge">
<title>Cat_strict_cat&#45;&gt;Cat_sub_pre_cat</title>
<path fill="none" stroke="#000000" d="M77.7992,-769.6742C117.0687,-676.2228 252.0878,-354.9115 292.4898,-258.7651"/>
<polygon fill="#000000" stroke="#000000" points="295.7679,-259.9985 296.4152,-249.4235 289.3145,-257.2867 295.7679,-259.9985"/>
</g>
</g>
</svg>
