<?xml version="1.0" encoding="UTF-8" standalone="no"?>
<!DOCTYPE svg PUBLIC "-//W3C//DTD SVG 1.1//EN"
 "http://www.w3.org/Graphics/SVG/1.1/DTD/svg11.dtd">
<!-- Generated by graphviz version 2.26.3 (20100126.1600)
 -->
<!-- Title: HoTT_categories_UniversalProperties Pages: 1 -->
<svg width="2912pt" height="1460pt"
 viewBox="0.00 0.00 2912.00 1460.00" xmlns="http://www.w3.org/2000/svg" xmlns:xlink="http://www.w3.org/1999/xlink">
<g id="graph1" class="graph" transform="scale(1 1) rotate(0) translate(4 1456)">
<title>HoTT_categories_UniversalProperties</title>
<polygon fill="white" stroke="white" points="-4,5 -4,-1456 2909,-1456 2909,5 -4,5"/>
<g id="graph2" class="cluster"><title>cluster_UniversalProperties</title>
<polygon fill="#ffffc3" stroke="black" points="8,-26.4 8,-1425.6 2896,-1425.6 2896,-26.4 8,-26.4"/>
<text text-anchor="middle" x="84" y="-1409" font-family="Times Roman,serif" font-size="14.00">UniversalProperties</text>
</g>
<!-- UniversalProperties_IsTerminalMorphism_property_morphism_unique -->
<g id="node1" class="node"><title>UniversalProperties_IsTerminalMorphism_property_morphism_unique</title>
<a xlink:href="UniversalProperties.html#IsTerminalMorphism_property_morphism_unique" xlink:title="IsTerminalMorphism_property_morphism_unique">
<ellipse fill="#f070d1" stroke="black" cx="1303" cy="-927.4" rx="247.003" ry="18.3848"/>
<ellipse fill="none" stroke="black" cx="1303" cy="-927.4" rx="250.995" ry="22.3848"/>
<ellipse fill="none" stroke="black" cx="1303" cy="-927.4" rx="254.987" ry="26.3848"/>
<text text-anchor="middle" x="1303" y="-923.8" font-family="Times Roman,serif" font-size="14.00">IsTerminalMorphism_property_morphism_unique</text>
</a>
</g>
<!-- UniversalProperties_IsTerminalMorphism -->
<g id="node10" class="node"><title>UniversalProperties_IsTerminalMorphism</title>
<a xlink:href="UniversalProperties.html#IsTerminalMorphism" xlink:title="IsTerminalMorphism">
<ellipse fill="#f070d1" stroke="black" cx="1831" cy="-359.4" rx="108.187" ry="18.3848"/>
<text text-anchor="middle" x="1831" y="-355.8" font-family="Times Roman,serif" font-size="14.00">IsTerminalMorphism</text>
</a>
</g>
<!-- UniversalProperties_IsTerminalMorphism_property_morphism_unique&#45;&gt;UniversalProperties_IsTerminalMorphism -->
<g id="edge2" class="edge"><title>UniversalProperties_IsTerminalMorphism_property_morphism_unique&#45;&gt;UniversalProperties_IsTerminalMorphism</title>
<path fill="none" stroke="black" d="M1416.51,-903.647C1539.84,-871.202 1731.23,-799.968 1821,-657.4 1874.64,-572.213 1852.56,-444.488 1838.84,-388.009"/>
<polygon fill="black" stroke="black" points="1842.16,-386.846 1836.32,-378.007 1835.37,-388.56 1842.16,-386.846"/>
</g>
<!-- UniversalProperties_IsInitialMorphism_property_morphism_unique -->
<g id="node12" class="node"><title>UniversalProperties_IsInitialMorphism_property_morphism_unique</title>
<a xlink:href="UniversalProperties.html#IsInitialMorphism_property_morphism_unique" xlink:title="IsInitialMorphism_property_morphism_unique">
<ellipse fill="#f070d1" stroke="black" cx="903" cy="-630.4" rx="232.846" ry="18.3848"/>
<text text-anchor="middle" x="903" y="-626.8" font-family="Times Roman,serif" font-size="14.00">IsInitialMorphism_property_morphism_unique</text>
</a>
</g>
<!-- UniversalProperties_IsTerminalMorphism_property_morphism_unique&#45;&gt;UniversalProperties_IsInitialMorphism_property_morphism_unique -->
<g id="edge4" class="edge"><title>UniversalProperties_IsTerminalMorphism_property_morphism_unique&#45;&gt;UniversalProperties_IsInitialMorphism_property_morphism_unique</title>
<path fill="none" stroke="black" d="M1267.5,-901.043C1190.91,-844.177 1011.06,-710.637 936.401,-655.2"/>
<polygon fill="black" stroke="black" points="938.365,-652.299 928.249,-649.148 934.192,-657.919 938.365,-652.299"/>
</g>
<!-- UniversalProperties_IsTerminalMorphism_property_morphism_property -->
<g id="node2" class="node"><title>UniversalProperties_IsTerminalMorphism_property_morphism_property</title>
<a xlink:href="UniversalProperties.html#IsTerminalMorphism_property_morphism_property" xlink:title="IsTerminalMorphism_property_morphism_property">
<ellipse fill="#f070d1" stroke="black" cx="2584" cy="-630.4" rx="255.973" ry="18.3848"/>
<ellipse fill="none" stroke="black" cx="2584" cy="-630.4" rx="259.973" ry="22.3848"/>
<ellipse fill="none" stroke="black" cx="2584" cy="-630.4" rx="263.973" ry="26.3848"/>
<text text-anchor="middle" x="2584" y="-626.8" font-family="Times Roman,serif" font-size="14.00">IsTerminalMorphism_property_morphism_property</text>
</a>
</g>
<!-- UniversalProperties_IsTerminalMorphism_property_morphism_property&#45;&gt;UniversalProperties_IsTerminalMorphism -->
<g id="edge6" class="edge"><title>UniversalProperties_IsTerminalMorphism_property_morphism_property&#45;&gt;UniversalProperties_IsTerminalMorphism</title>
<path fill="none" stroke="black" d="M2512.82,-604.783C2364.03,-551.235 2022.72,-428.4 1887.59,-379.766"/>
<polygon fill="black" stroke="black" points="1888.43,-376.349 1877.84,-376.256 1886.06,-382.936 1888.43,-376.349"/>
</g>
<!-- UniversalProperties_IsInitialMorphism_property_morphism_property -->
<g id="node13" class="node"><title>UniversalProperties_IsInitialMorphism_property_morphism_property</title>
<a xlink:href="UniversalProperties.html#IsInitialMorphism_property_morphism_property" xlink:title="IsInitialMorphism_property_morphism_property">
<ellipse fill="#f070d1" stroke="black" cx="2605" cy="-359.4" rx="241.831" ry="18.3848"/>
<text text-anchor="middle" x="2605" y="-355.8" font-family="Times Roman,serif" font-size="14.00">IsInitialMorphism_property_morphism_property</text>
</a>
</g>
<!-- UniversalProperties_IsTerminalMorphism_property_morphism_property&#45;&gt;UniversalProperties_IsInitialMorphism_property_morphism_property -->
<g id="edge8" class="edge"><title>UniversalProperties_IsTerminalMorphism_property_morphism_property&#45;&gt;UniversalProperties_IsInitialMorphism_property_morphism_property</title>
<path fill="none" stroke="black" d="M2586.09,-603.425C2590.07,-552.072 2598.7,-440.703 2602.78,-388.065"/>
<polygon fill="black" stroke="black" points="2606.27,-388.301 2603.55,-378.06 2599.29,-387.76 2606.27,-388.301"/>
</g>
<!-- UniversalProperties_IsTerminalMorphism_property_morphism -->
<g id="node3" class="node"><title>UniversalProperties_IsTerminalMorphism_property_morphism</title>
<a xlink:href="UniversalProperties.html#IsTerminalMorphism_property_morphism" xlink:title="IsTerminalMorphism_property_morphism">
<ellipse fill="#f070d1" stroke="black" cx="2086" cy="-630.4" rx="208.115" ry="18.3848"/>
<ellipse fill="none" stroke="black" cx="2086" cy="-630.4" rx="212.106" ry="22.3848"/>
<ellipse fill="none" stroke="black" cx="2086" cy="-630.4" rx="216.096" ry="26.3848"/>
<text text-anchor="middle" x="2086" y="-626.8" font-family="Times Roman,serif" font-size="14.00">IsTerminalMorphism_property_morphism</text>
</a>
</g>
<!-- UniversalProperties_IsTerminalMorphism_property_morphism&#45;&gt;UniversalProperties_IsTerminalMorphism -->
<g id="edge10" class="edge"><title>UniversalProperties_IsTerminalMorphism_property_morphism&#45;&gt;UniversalProperties_IsTerminalMorphism</title>
<path fill="none" stroke="black" d="M2061.09,-603.922C2012.09,-551.856 1903.78,-436.745 1855.29,-385.217"/>
<polygon fill="black" stroke="black" points="1857.72,-382.686 1848.31,-377.801 1852.62,-387.483 1857.72,-382.686"/>
</g>
<!-- UniversalProperties_IsInitialMorphism_property_morphism -->
<g id="node14" class="node"><title>UniversalProperties_IsInitialMorphism_property_morphism</title>
<a xlink:href="UniversalProperties.html#IsInitialMorphism_property_morphism" xlink:title="IsInitialMorphism_property_morphism">
<ellipse fill="#f070d1" stroke="black" cx="2151" cy="-359.4" rx="193.954" ry="18.3848"/>
<text text-anchor="middle" x="2151" y="-355.8" font-family="Times Roman,serif" font-size="14.00">IsInitialMorphism_property_morphism</text>
</a>
</g>
<!-- UniversalProperties_IsTerminalMorphism_property_morphism&#45;&gt;UniversalProperties_IsInitialMorphism_property_morphism -->
<g id="edge12" class="edge"><title>UniversalProperties_IsTerminalMorphism_property_morphism&#45;&gt;UniversalProperties_IsInitialMorphism_property_morphism</title>
<path fill="none" stroke="black" d="M2092.47,-603.425C2104.79,-552.072 2131.5,-440.703 2144.12,-388.065"/>
<polygon fill="black" stroke="black" points="2147.6,-388.601 2146.52,-378.06 2140.79,-386.968 2147.6,-388.601"/>
</g>
<!-- UniversalProperties_IsTerminalMorphism_property -->
<g id="node4" class="node"><title>UniversalProperties_IsTerminalMorphism_property</title>
<a xlink:href="UniversalProperties.html#IsTerminalMorphism_property" xlink:title="IsTerminalMorphism_property">
<ellipse fill="#f070d1" stroke="black" cx="1931" cy="-1224.4" rx="155.088" ry="18.3848"/>
<ellipse fill="none" stroke="black" cx="1931" cy="-1224.4" rx="159.076" ry="22.3848"/>
<ellipse fill="none" stroke="black" cx="1931" cy="-1224.4" rx="163.063" ry="26.3848"/>
<text text-anchor="middle" x="1931" y="-1220.8" font-family="Times Roman,serif" font-size="14.00">IsTerminalMorphism_property</text>
</a>
</g>
<!-- UniversalProperties_IsTerminalMorphism_property&#45;&gt;UniversalProperties_IsTerminalMorphism -->
<g id="edge14" class="edge"><title>UniversalProperties_IsTerminalMorphism_property&#45;&gt;UniversalProperties_IsTerminalMorphism</title>
<path fill="none" stroke="black" d="M1927.51,-1197.86C1916.9,-1116.89 1884.36,-865.871 1861,-657.4 1849.92,-558.537 1838.65,-441.004 1833.66,-387.924"/>
<polygon fill="black" stroke="black" points="1837.13,-387.528 1832.72,-377.898 1830.16,-388.181 1837.13,-387.528"/>
</g>
<!-- UniversalProperties_IsInitialMorphism_property -->
<g id="node11" class="node"><title>UniversalProperties_IsInitialMorphism_property</title>
<a xlink:href="UniversalProperties.html#IsInitialMorphism_property" xlink:title="IsInitialMorphism_property">
<ellipse fill="#f070d1" stroke="black" cx="2379" cy="-927.4" rx="140.922" ry="18.3848"/>
<text text-anchor="middle" x="2379" y="-923.8" font-family="Times Roman,serif" font-size="14.00">IsInitialMorphism_property</text>
</a>
</g>
<!-- UniversalProperties_IsTerminalMorphism_property&#45;&gt;UniversalProperties_IsInitialMorphism_property -->
<g id="edge16" class="edge"><title>UniversalProperties_IsTerminalMorphism_property&#45;&gt;UniversalProperties_IsInitialMorphism_property</title>
<path fill="none" stroke="black" d="M1969.97,-1198.56C2055.81,-1141.66 2260.14,-1006.2 2343.09,-951.209"/>
<polygon fill="black" stroke="black" points="2345.02,-954.124 2351.42,-945.681 2341.16,-948.289 2345.02,-954.124"/>
</g>
<!-- UniversalProperties_IsTerminalMorphism_morphism -->
<g id="node5" class="node"><title>UniversalProperties_IsTerminalMorphism_morphism</title>
<a xlink:href="UniversalProperties.html#IsTerminalMorphism_morphism" xlink:title="IsTerminalMorphism_morphism">
<ellipse fill="#f070d1" stroke="black" cx="1323" cy="-630.4" rx="161.22" ry="18.3848"/>
<ellipse fill="none" stroke="black" cx="1323" cy="-630.4" rx="165.22" ry="22.3848"/>
<ellipse fill="none" stroke="black" cx="1323" cy="-630.4" rx="169.22" ry="26.3848"/>
<text text-anchor="middle" x="1323" y="-626.8" font-family="Times Roman,serif" font-size="14.00">IsTerminalMorphism_morphism</text>
</a>
</g>
<!-- UniversalProperties_IsTerminalMorphism_morphism&#45;&gt;UniversalProperties_IsTerminalMorphism -->
<g id="edge18" class="edge"><title>UniversalProperties_IsTerminalMorphism_morphism&#45;&gt;UniversalProperties_IsTerminalMorphism</title>
<path fill="none" stroke="black" d="M1370.79,-604.905C1469.63,-552.178 1695.1,-431.898 1788.87,-381.872"/>
<polygon fill="black" stroke="black" points="1790.62,-384.909 1797.8,-377.114 1787.32,-378.732 1790.62,-384.909"/>
</g>
<!-- UniversalProperties_IsInitialMorphism_morphism -->
<g id="node15" class="node"><title>UniversalProperties_IsInitialMorphism_morphism</title>
<a xlink:href="UniversalProperties.html#IsInitialMorphism_morphism" xlink:title="IsInitialMorphism_morphism">
<ellipse fill="#f070d1" stroke="black" cx="1283" cy="-359.4" rx="147.785" ry="18.3848"/>
<text text-anchor="middle" x="1283" y="-355.8" font-family="Times Roman,serif" font-size="14.00">IsInitialMorphism_morphism</text>
</a>
</g>
<!-- UniversalProperties_IsTerminalMorphism_morphism&#45;&gt;UniversalProperties_IsInitialMorphism_morphism -->
<g id="edge20" class="edge"><title>UniversalProperties_IsTerminalMorphism_morphism&#45;&gt;UniversalProperties_IsInitialMorphism_morphism</title>
<path fill="none" stroke="black" d="M1319.02,-603.425C1311.44,-552.072 1295,-440.703 1287.23,-388.065"/>
<polygon fill="black" stroke="black" points="1290.68,-387.442 1285.75,-378.06 1283.75,-388.464 1290.68,-387.442"/>
</g>
<!-- UniversalProperties_IsTerminalMorphism_object -->
<g id="node6" class="node"><title>UniversalProperties_IsTerminalMorphism_object</title>
<a xlink:href="UniversalProperties.html#IsTerminalMorphism_object" xlink:title="IsTerminalMorphism_object">
<ellipse fill="#f070d1" stroke="black" cx="1661" cy="-630.4" rx="142.836" ry="18.3848"/>
<ellipse fill="none" stroke="black" cx="1661" cy="-630.4" rx="146.836" ry="22.3848"/>
<ellipse fill="none" stroke="black" cx="1661" cy="-630.4" rx="150.836" ry="26.3848"/>
<text text-anchor="middle" x="1661" y="-626.8" font-family="Times Roman,serif" font-size="14.00">IsTerminalMorphism_object</text>
</a>
</g>
<!-- UniversalProperties_IsTerminalMorphism_object&#45;&gt;UniversalProperties_IsTerminalMorphism -->
<g id="edge22" class="edge"><title>UniversalProperties_IsTerminalMorphism_object&#45;&gt;UniversalProperties_IsTerminalMorphism</title>
<path fill="none" stroke="black" d="M1677.61,-603.922C1710,-552.283 1781.3,-438.631 1814,-386.5"/>
<polygon fill="black" stroke="black" points="1817.11,-388.133 1819.46,-377.801 1811.18,-384.413 1817.11,-388.133"/>
</g>
<!-- UniversalProperties_IsInitialMorphism_object -->
<g id="node16" class="node"><title>UniversalProperties_IsInitialMorphism_object</title>
<a xlink:href="UniversalProperties.html#IsInitialMorphism_object" xlink:title="IsInitialMorphism_object">
<ellipse fill="#f070d1" stroke="black" cx="1577" cy="-359.4" rx="128.193" ry="18.3848"/>
<text text-anchor="middle" x="1577" y="-355.8" font-family="Times Roman,serif" font-size="14.00">IsInitialMorphism_object</text>
</a>
</g>
<!-- UniversalProperties_IsTerminalMorphism_object&#45;&gt;UniversalProperties_IsInitialMorphism_object -->
<g id="edge24" class="edge"><title>UniversalProperties_IsTerminalMorphism_object&#45;&gt;UniversalProperties_IsInitialMorphism_object</title>
<path fill="none" stroke="black" d="M1652.79,-603.922C1636.92,-552.729 1602.17,-440.588 1585.82,-387.863"/>
<polygon fill="black" stroke="black" points="1589.11,-386.661 1582.81,-378.146 1582.43,-388.733 1589.11,-386.661"/>
</g>
<!-- UniversalProperties_Build_IsTerminalMorphism_uncurried -->
<g id="node7" class="node"><title>UniversalProperties_Build_IsTerminalMorphism_uncurried</title>
<a xlink:href="UniversalProperties.html#Build_IsTerminalMorphism_uncurried" xlink:title="Build_IsTerminalMorphism_uncurried">
<ellipse fill="#f070d1" stroke="black" cx="214" cy="-1224.4" rx="190.212" ry="18.3848"/>
<ellipse fill="none" stroke="black" cx="214" cy="-1224.4" rx="194.212" ry="22.3848"/>
<ellipse fill="none" stroke="black" cx="214" cy="-1224.4" rx="198.212" ry="26.3848"/>
<text text-anchor="middle" x="214" y="-1220.8" font-family="Times Roman,serif" font-size="14.00">Build_IsTerminalMorphism_uncurried</text>
</a>
</g>
<!-- UniversalProperties_Build_IsInitialMorphism_uncurried -->
<g id="node17" class="node"><title>UniversalProperties_Build_IsInitialMorphism_uncurried</title>
<a xlink:href="UniversalProperties.html#Build_IsInitialMorphism_uncurried" xlink:title="Build_IsInitialMorphism_uncurried">
<ellipse fill="#f070d1" stroke="black" cx="192" cy="-927.4" rx="176.07" ry="18.3848"/>
<text text-anchor="middle" x="192" y="-923.8" font-family="Times Roman,serif" font-size="14.00">Build_IsInitialMorphism_uncurried</text>
</a>
</g>
<!-- UniversalProperties_Build_IsTerminalMorphism_uncurried&#45;&gt;UniversalProperties_Build_IsInitialMorphism_uncurried -->
<g id="edge26" class="edge"><title>UniversalProperties_Build_IsTerminalMorphism_uncurried&#45;&gt;UniversalProperties_Build_IsInitialMorphism_uncurried</title>
<path fill="none" stroke="black" d="M212.028,-1197.78C207.906,-1142.14 198.408,-1013.91 194.142,-956.321"/>
<polygon fill="black" stroke="black" points="197.615,-955.819 193.386,-946.105 190.634,-956.337 197.615,-955.819"/>
</g>
<!-- UniversalProperties_Build_IsTerminalMorphism_curried -->
<g id="node8" class="node"><title>UniversalProperties_Build_IsTerminalMorphism_curried</title>
<a xlink:href="UniversalProperties.html#Build_IsTerminalMorphism_curried" xlink:title="Build_IsTerminalMorphism_curried">
<ellipse fill="#f070d1" stroke="black" cx="571" cy="-927.4" rx="177.005" ry="18.3848"/>
<ellipse fill="none" stroke="black" cx="571" cy="-927.4" rx="180.995" ry="22.3848"/>
<ellipse fill="none" stroke="black" cx="571" cy="-927.4" rx="184.984" ry="26.3848"/>
<text text-anchor="middle" x="571" y="-923.8" font-family="Times Roman,serif" font-size="14.00">Build_IsTerminalMorphism_curried</text>
</a>
</g>
<!-- UniversalProperties_Build_IsInitialMorphism_curried -->
<g id="node18" class="node"><title>UniversalProperties_Build_IsInitialMorphism_curried</title>
<a xlink:href="UniversalProperties.html#Build_IsInitialMorphism_curried" xlink:title="Build_IsInitialMorphism_curried">
<ellipse fill="#f070d1" stroke="black" cx="179" cy="-630.4" rx="162.842" ry="18.3848"/>
<text text-anchor="middle" x="179" y="-626.8" font-family="Times Roman,serif" font-size="14.00">Build_IsInitialMorphism_curried</text>
</a>
</g>
<!-- UniversalProperties_Build_IsTerminalMorphism_curried&#45;&gt;UniversalProperties_Build_IsInitialMorphism_curried -->
<g id="edge28" class="edge"><title>UniversalProperties_Build_IsTerminalMorphism_curried&#45;&gt;UniversalProperties_Build_IsInitialMorphism_curried</title>
<path fill="none" stroke="black" d="M536.556,-901.304C461.693,-844.583 285,-710.711 211.724,-655.194"/>
<polygon fill="black" stroke="black" points="213.399,-652.072 203.315,-648.822 209.172,-657.651 213.399,-652.072"/>
</g>
<!-- UniversalProperties_Build_IsTerminalMorphism -->
<g id="node9" class="node"><title>UniversalProperties_Build_IsTerminalMorphism</title>
<a xlink:href="UniversalProperties.html#Build_IsTerminalMorphism" xlink:title="Build_IsTerminalMorphism">
<ellipse fill="#f070d1" stroke="black" cx="506" cy="-630.4" rx="137.886" ry="18.3848"/>
<ellipse fill="none" stroke="black" cx="506" cy="-630.4" rx="141.886" ry="22.3848"/>
<ellipse fill="none" stroke="black" cx="506" cy="-630.4" rx="145.886" ry="26.3848"/>
<text text-anchor="middle" x="506" y="-626.8" font-family="Times Roman,serif" font-size="14.00">Build_IsTerminalMorphism</text>
</a>
</g>
<!-- UniversalProperties_Build_IsInitialMorphism -->
<g id="node19" class="node"><title>UniversalProperties_Build_IsInitialMorphism</title>
<a xlink:href="UniversalProperties.html#Build_IsInitialMorphism" xlink:title="Build_IsInitialMorphism">
<ellipse fill="#f070d1" stroke="black" cx="506" cy="-359.4" rx="123.951" ry="18.3848"/>
<text text-anchor="middle" x="506" y="-355.8" font-family="Times Roman,serif" font-size="14.00">Build_IsInitialMorphism</text>
</a>
</g>
<!-- UniversalProperties_Build_IsTerminalMorphism&#45;&gt;UniversalProperties_Build_IsInitialMorphism -->
<g id="edge30" class="edge"><title>UniversalProperties_Build_IsTerminalMorphism&#45;&gt;UniversalProperties_Build_IsInitialMorphism</title>
<path fill="none" stroke="black" d="M506,-603.425C506,-552.072 506,-440.703 506,-388.065"/>
<polygon fill="black" stroke="black" points="509.5,-388.06 506,-378.06 502.5,-388.06 509.5,-388.06"/>
</g>
<!-- UniversalProperties_IsInitialMorphism -->
<g id="node22" class="node"><title>UniversalProperties_IsInitialMorphism</title>
<a xlink:href="UniversalProperties.html#IsInitialMorphism" xlink:title="IsInitialMorphism">
<ellipse fill="#f070d1" stroke="black" cx="1704" cy="-115.4" rx="94.7523" ry="18.3848"/>
<text text-anchor="middle" x="1704" y="-111.8" font-family="Times Roman,serif" font-size="14.00">IsInitialMorphism</text>
</a>
</g>
<!-- UniversalProperties_IsTerminalMorphism&#45;&gt;UniversalProperties_IsInitialMorphism -->
<g id="edge32" class="edge"><title>UniversalProperties_IsTerminalMorphism&#45;&gt;UniversalProperties_IsInitialMorphism</title>
<path fill="none" stroke="black" d="M1821.25,-340.659C1798.98,-297.886 1744.34,-192.91 1718.28,-142.837"/>
<polygon fill="black" stroke="black" points="1721.34,-141.125 1713.61,-133.871 1715.13,-144.357 1721.34,-141.125"/>
</g>
<!-- UniversalProperties_IsInitialMorphism_property&#45;&gt;UniversalProperties_IsInitialMorphism_property_morphism_unique -->
<g id="edge34" class="edge"><title>UniversalProperties_IsInitialMorphism_property&#45;&gt;UniversalProperties_IsInitialMorphism_property_morphism_unique</title>
<path fill="none" stroke="black" d="M2301.98,-911.902C2053.26,-861.855 1271.87,-704.623 998.541,-649.625"/>
<polygon fill="black" stroke="black" points="999.136,-646.174 988.642,-647.633 997.755,-653.037 999.136,-646.174"/>
</g>
<!-- UniversalProperties_IsInitialMorphism_property&#45;&gt;UniversalProperties_IsInitialMorphism_property_morphism_property -->
<g id="edge36" class="edge"><title>UniversalProperties_IsInitialMorphism_property&#45;&gt;UniversalProperties_IsInitialMorphism_property_morphism_property</title>
<path fill="none" stroke="black" d="M2453.73,-911.653C2567.58,-883.19 2780.85,-811.25 2872,-657.4 2941.05,-540.859 2749.97,-428.951 2655.01,-382.241"/>
<polygon fill="black" stroke="black" points="2656.38,-379.016 2645.85,-377.794 2653.32,-385.312 2656.38,-379.016"/>
</g>
<!-- UniversalProperties_IsInitialMorphism_property&#45;&gt;UniversalProperties_IsInitialMorphism_property_morphism -->
<g id="edge38" class="edge"><title>UniversalProperties_IsInitialMorphism_property&#45;&gt;UniversalProperties_IsInitialMorphism_property_morphism</title>
<path fill="none" stroke="black" d="M2450.19,-911.283C2560.34,-882.079 2768.6,-808.86 2857,-657.4 2869.1,-636.672 2870.93,-622.947 2857,-603.4 2784.52,-501.669 2421.36,-414.88 2246.03,-378.148"/>
<polygon fill="black" stroke="black" points="2246.54,-374.679 2236.03,-376.066 2245.11,-381.532 2246.54,-374.679"/>
</g>
<!-- UniversalProperties_IsInitialMorphism_property_morphism_unique&#45;&gt;UniversalProperties_IsInitialMorphism_morphism -->
<g id="edge40" class="edge"><title>UniversalProperties_IsInitialMorphism_property_morphism_unique&#45;&gt;UniversalProperties_IsInitialMorphism_morphism</title>
<path fill="none" stroke="black" d="M928.82,-611.986C995.652,-564.324 1174.3,-436.92 1249.21,-383.499"/>
<polygon fill="black" stroke="black" points="1251.29,-386.317 1257.39,-377.661 1247.22,-380.618 1251.29,-386.317"/>
</g>
<!-- UniversalProperties_IsInitialMorphism_property_morphism_unique&#45;&gt;UniversalProperties_IsInitialMorphism_object -->
<g id="edge42" class="edge"><title>UniversalProperties_IsInitialMorphism_property_morphism_unique&#45;&gt;UniversalProperties_IsInitialMorphism_object</title>
<path fill="none" stroke="black" d="M948.27,-612.198C1068.51,-563.852 1395.46,-432.394 1524.04,-380.693"/>
<polygon fill="black" stroke="black" points="1525.71,-383.796 1533.68,-376.818 1523.1,-377.301 1525.71,-383.796"/>
</g>
<!-- UniversalProperties_IsInitialMorphism_property_morphism_property&#45;&gt;UniversalProperties_IsInitialMorphism -->
<g id="edge44" class="edge"><title>UniversalProperties_IsInitialMorphism_property_morphism_property&#45;&gt;UniversalProperties_IsInitialMorphism</title>
<path fill="none" stroke="black" d="M2539.11,-341.557C2372.52,-296.442 1935.94,-178.212 1769.63,-133.173"/>
<polygon fill="black" stroke="black" points="1770.11,-129.677 1759.54,-130.441 1768.28,-136.434 1770.11,-129.677"/>
</g>
<!-- UniversalProperties_IsInitialMorphism_property_morphism&#45;&gt;UniversalProperties_IsInitialMorphism -->
<g id="edge46" class="edge"><title>UniversalProperties_IsInitialMorphism_property_morphism&#45;&gt;UniversalProperties_IsInitialMorphism</title>
<path fill="none" stroke="black" d="M2117.4,-341.06C2036.81,-297.066 1832.69,-185.648 1745.03,-137.797"/>
<polygon fill="black" stroke="black" points="1746.63,-134.681 1736.17,-132.962 1743.27,-140.825 1746.63,-134.681"/>
</g>
<!-- UniversalProperties_IsInitialMorphism_morphism&#45;&gt;UniversalProperties_IsInitialMorphism -->
<g id="edge48" class="edge"><title>UniversalProperties_IsInitialMorphism_morphism&#45;&gt;UniversalProperties_IsInitialMorphism</title>
<path fill="none" stroke="black" d="M1314.3,-341.26C1389.79,-297.507 1581.76,-186.247 1664.77,-138.138"/>
<polygon fill="black" stroke="black" points="1666.74,-141.043 1673.63,-133 1663.23,-134.987 1666.74,-141.043"/>
</g>
<!-- UniversalProperties_IsInitialMorphism_object&#45;&gt;UniversalProperties_IsInitialMorphism -->
<g id="edge50" class="edge"><title>UniversalProperties_IsInitialMorphism_object&#45;&gt;UniversalProperties_IsInitialMorphism</title>
<path fill="none" stroke="black" d="M1586.75,-340.659C1609.02,-297.886 1663.66,-192.91 1689.72,-142.837"/>
<polygon fill="black" stroke="black" points="1692.87,-144.357 1694.39,-133.871 1686.66,-141.125 1692.87,-144.357"/>
</g>
<!-- UniversalProperties_Build_IsInitialMorphism_uncurried&#45;&gt;UniversalProperties_Build_IsInitialMorphism_curried -->
<g id="edge52" class="edge"><title>UniversalProperties_Build_IsInitialMorphism_uncurried&#45;&gt;UniversalProperties_Build_IsInitialMorphism_curried</title>
<path fill="none" stroke="black" d="M191.187,-908.821C188.989,-858.609 182.918,-719.909 180.266,-659.334"/>
<polygon fill="black" stroke="black" points="183.747,-658.809 179.813,-648.972 176.754,-659.115 183.747,-658.809"/>
</g>
<!-- UniversalProperties_Build_IsInitialMorphism_curried&#45;&gt;UniversalProperties_Build_IsInitialMorphism -->
<g id="edge54" class="edge"><title>UniversalProperties_Build_IsInitialMorphism_curried&#45;&gt;UniversalProperties_Build_IsInitialMorphism</title>
<path fill="none" stroke="black" d="M201.219,-611.986C258.428,-564.575 410.848,-438.257 475.898,-384.347"/>
<polygon fill="black" stroke="black" points="478.284,-386.915 483.75,-377.839 473.818,-381.525 478.284,-386.915"/>
</g>
<!-- UniversalProperties_Build_IsInitialMorphism_subproof0 -->
<g id="node20" class="node"><title>UniversalProperties_Build_IsInitialMorphism_subproof0</title>
<a xlink:href="UniversalProperties.html#Build_IsInitialMorphism_subproof0" xlink:title="Build_IsInitialMorphism_subproof0">
<ellipse fill="#facdef" stroke="black" cx="350" cy="-115.4" rx="176.984" ry="18.3848"/>
<text text-anchor="middle" x="350" y="-111.8" font-family="Times Roman,serif" font-size="14.00">Build_IsInitialMorphism_subproof0</text>
</a>
</g>
<!-- UniversalProperties_Build_IsInitialMorphism&#45;&gt;UniversalProperties_Build_IsInitialMorphism_subproof0 -->
<g id="edge56" class="edge"><title>UniversalProperties_Build_IsInitialMorphism&#45;&gt;UniversalProperties_Build_IsInitialMorphism_subproof0</title>
<path fill="none" stroke="black" d="M494.018,-340.659C466.614,-297.797 399.276,-192.473 367.342,-142.525"/>
<polygon fill="black" stroke="black" points="370.145,-140.411 361.809,-133.871 364.247,-144.182 370.145,-140.411"/>
</g>
<!-- UniversalProperties_Build_IsInitialMorphism_subproof -->
<g id="node21" class="node"><title>UniversalProperties_Build_IsInitialMorphism_subproof</title>
<a xlink:href="UniversalProperties.html#Build_IsInitialMorphism_subproof" xlink:title="Build_IsInitialMorphism_subproof">
<ellipse fill="#facdef" stroke="black" cx="716" cy="-115.4" rx="171.12" ry="18.3848"/>
<text text-anchor="middle" x="716" y="-111.8" font-family="Times Roman,serif" font-size="14.00">Build_IsInitialMorphism_subproof</text>
</a>
</g>
<!-- UniversalProperties_Build_IsInitialMorphism&#45;&gt;UniversalProperties_Build_IsInitialMorphism_subproof -->
<g id="edge58" class="edge"><title>UniversalProperties_Build_IsInitialMorphism&#45;&gt;UniversalProperties_Build_IsInitialMorphism_subproof</title>
<path fill="none" stroke="black" d="M522.13,-340.659C559.249,-297.53 650.797,-191.16 693.451,-141.599"/>
<polygon fill="black" stroke="black" points="696.232,-143.734 700.103,-133.871 690.927,-139.167 696.232,-143.734"/>
</g>
<!-- UniversalProperties_Build_IsInitialMorphism&#45;&gt;UniversalProperties_IsInitialMorphism -->
<g id="edge60" class="edge"><title>UniversalProperties_Build_IsInitialMorphism&#45;&gt;UniversalProperties_IsInitialMorphism</title>
<path fill="none" stroke="black" d="M579.586,-344.413C793.19,-300.907 1411.85,-174.904 1628.21,-130.836"/>
<polygon fill="black" stroke="black" points="1629.11,-134.226 1638.21,-128.8 1627.71,-127.367 1629.11,-134.226"/>
</g>
</g>
</svg>
