<?xml version="1.0" encoding="UTF-8" standalone="no"?>
<!DOCTYPE svg PUBLIC "-//W3C//DTD SVG 1.1//EN"
 "http://www.w3.org/Graphics/SVG/1.1/DTD/svg11.dtd">
<!-- Generated by graphviz version 2.39.20141222.0545 (20141222.0545)
 -->
<!-- Title: HoTT_categories_Pseudofunctor_FromFunctor Pages: 1 -->
<svg width="1084pt" height="546pt"
 viewBox="0.00 0.00 1084.00 546.00" xmlns="http://www.w3.org/2000/svg" xmlns:xlink="http://www.w3.org/1999/xlink">
<g id="graph0" class="graph" transform="scale(1 1) rotate(0) translate(4 542)">
<title>HoTT_categories_Pseudofunctor_FromFunctor</title>
<polygon fill="white" stroke="transparent" points="-4,4 -4,-542 1080,-542 1080,4 -4,4"/>
<g id="clust1" class="cluster"><title>cluster_FromFunctor</title>
<polygon fill="#ffffc3" stroke="black" points="8,-13.3251 8,-524.675 1068,-524.675 1068,-13.3251 8,-13.3251"/>
<text text-anchor="middle" x="52.5" y="-509.475" font-family="Times,serif" font-size="14.00">FromFunctor</text>
</g>
<!-- FromFunctor_pseudofunctor_of_functor_to_cat -->
<g id="node1" class="node"><title>FromFunctor_pseudofunctor_of_functor_to_cat</title>
<g id="a_node1"><a xlink:href="FromFunctor.html#pseudofunctor_of_functor_to_cat" xlink:title="pseudofunctor_of_functor_to_cat">
<ellipse fill="#f070d1" stroke="black" cx="542" cy="-429.325" rx="128.075" ry="18"/>
<ellipse fill="none" stroke="black" cx="542" cy="-429.325" rx="132.076" ry="22"/>
<ellipse fill="none" stroke="black" cx="542" cy="-429.325" rx="136.077" ry="26"/>
<text text-anchor="middle" x="542" y="-425.625" font-family="Times,serif" font-size="14.00">pseudofunctor_of_functor_to_cat</text>
</a>
</g>
</g>
<!-- FromFunctor_FunctorToCat -->
<g id="node3" class="node"><title>FromFunctor_FunctorToCat</title>
<g id="a_node3"><a xlink:href="FromFunctor.html#FunctorToCat" xlink:title="FunctorToCat">
<ellipse fill="#f070d1" stroke="black" cx="334" cy="-296.325" rx="59.5901" ry="18"/>
<text text-anchor="middle" x="334" y="-292.625" font-family="Times,serif" font-size="14.00">FunctorToCat</text>
</a>
</g>
</g>
<!-- FromFunctor_pseudofunctor_of_functor_to_cat&#45;&gt;FromFunctor_FunctorToCat -->
<g id="edge1" class="edge"><title>FromFunctor_pseudofunctor_of_functor_to_cat&#45;&gt;FromFunctor_FunctorToCat</title>
<path fill="none" stroke="black" d="M502.877,-404.309C463.983,-379.439 404.933,-341.681 367.956,-318.037"/>
<polygon fill="black" stroke="black" points="369.82,-315.075 359.51,-312.637 366.049,-320.972 369.82,-315.075"/>
</g>
<!-- FromFunctor_pseudofunctor_of_functor -->
<g id="node4" class="node"><title>FromFunctor_pseudofunctor_of_functor</title>
<g id="a_node4"><a xlink:href="FromFunctor.html#pseudofunctor_of_functor" xlink:title="pseudofunctor_of_functor">
<ellipse fill="#f070d1" stroke="black" cx="542" cy="-296.325" rx="102.882" ry="18"/>
<text text-anchor="middle" x="542" y="-292.625" font-family="Times,serif" font-size="14.00">pseudofunctor_of_functor</text>
</a>
</g>
</g>
<!-- FromFunctor_pseudofunctor_of_functor_to_cat&#45;&gt;FromFunctor_pseudofunctor_of_functor -->
<g id="edge2" class="edge"><title>FromFunctor_pseudofunctor_of_functor_to_cat&#45;&gt;FromFunctor_pseudofunctor_of_functor</title>
<path fill="none" stroke="black" d="M542,-403.049C542,-380.436 542,-347.885 542,-324.687"/>
<polygon fill="black" stroke="black" points="545.5,-324.446 542,-314.446 538.5,-324.446 545.5,-324.446"/>
</g>
<!-- FromFunctor_functor_to_cat_id -->
<g id="node2" class="node"><title>FromFunctor_functor_to_cat_id</title>
<g id="a_node2"><a xlink:href="FromFunctor.html#functor_to_cat_id" xlink:title="functor_to_cat_id">
<ellipse fill="#f070d1" stroke="black" cx="307" cy="-429.325" rx="73.3926" ry="18"/>
<ellipse fill="none" stroke="black" cx="307" cy="-429.325" rx="77.3898" ry="22"/>
<ellipse fill="none" stroke="black" cx="307" cy="-429.325" rx="81.387" ry="26"/>
<text text-anchor="middle" x="307" y="-425.625" font-family="Times,serif" font-size="14.00">functor_to_cat_id</text>
</a>
</g>
</g>
<!-- FromFunctor_functor_to_cat_id&#45;&gt;FromFunctor_FunctorToCat -->
<g id="edge3" class="edge"><title>FromFunctor_functor_to_cat_id&#45;&gt;FromFunctor_FunctorToCat</title>
<path fill="none" stroke="black" d="M312.27,-403.366C316.875,-380.683 323.545,-347.825 328.279,-324.507"/>
<polygon fill="black" stroke="black" points="331.744,-325.032 330.303,-314.536 324.883,-323.64 331.744,-325.032"/>
</g>
<!-- FromFunctor_pseudofunctor_of_functor__right_identity_of -->
<g id="node5" class="node"><title>FromFunctor_pseudofunctor_of_functor__right_identity_of</title>
<g id="a_node5"><a xlink:href="FromFunctor.html#pseudofunctor_of_functor__right_identity_of" xlink:title="pseudofunctor_of_functor__right_identity_of">
<ellipse fill="#facdef" stroke="black" cx="187" cy="-176.325" rx="170.87" ry="18"/>
<text text-anchor="middle" x="187" y="-172.625" font-family="Times,serif" font-size="14.00">pseudofunctor_of_functor__right_identity_of</text>
</a>
</g>
</g>
<!-- FromFunctor_pseudofunctor_of_functor&#45;&gt;FromFunctor_pseudofunctor_of_functor__right_identity_of -->
<g id="edge4" class="edge"><title>FromFunctor_pseudofunctor_of_functor&#45;&gt;FromFunctor_pseudofunctor_of_functor__right_identity_of</title>
<path fill="none" stroke="black" d="M494.491,-280.266C430.704,-258.704 317.335,-220.382 247.511,-196.78"/>
<polygon fill="black" stroke="black" points="248.552,-193.437 237.958,-193.55 246.31,-200.068 248.552,-193.437"/>
</g>
<!-- FromFunctor_pseudofunctor_of_functor__left_identity_of -->
<g id="node6" class="node"><title>FromFunctor_pseudofunctor_of_functor__left_identity_of</title>
<g id="a_node6"><a xlink:href="FromFunctor.html#pseudofunctor_of_functor__left_identity_of" xlink:title="pseudofunctor_of_functor__left_identity_of">
<ellipse fill="#facdef" stroke="black" cx="542" cy="-176.325" rx="165.971" ry="18"/>
<text text-anchor="middle" x="542" y="-172.625" font-family="Times,serif" font-size="14.00">pseudofunctor_of_functor__left_identity_of</text>
</a>
</g>
</g>
<!-- FromFunctor_pseudofunctor_of_functor&#45;&gt;FromFunctor_pseudofunctor_of_functor__left_identity_of -->
<g id="edge5" class="edge"><title>FromFunctor_pseudofunctor_of_functor&#45;&gt;FromFunctor_pseudofunctor_of_functor__left_identity_of</title>
<path fill="none" stroke="black" d="M542,-278.1C542,-258.515 542,-227.143 542,-204.403"/>
<polygon fill="black" stroke="black" points="545.5,-204.329 542,-194.329 538.5,-204.329 545.5,-204.329"/>
</g>
<!-- FromFunctor_pseudofunctor_of_functor__composition_of -->
<g id="node7" class="node"><title>FromFunctor_pseudofunctor_of_functor__composition_of</title>
<g id="a_node7"><a xlink:href="FromFunctor.html#pseudofunctor_of_functor__composition_of" xlink:title="pseudofunctor_of_functor__composition_of">
<ellipse fill="#facdef" stroke="black" cx="893" cy="-176.325" rx="167.07" ry="18"/>
<text text-anchor="middle" x="893" y="-172.625" font-family="Times,serif" font-size="14.00">pseudofunctor_of_functor__composition_of</text>
</a>
</g>
</g>
<!-- FromFunctor_pseudofunctor_of_functor&#45;&gt;FromFunctor_pseudofunctor_of_functor__composition_of -->
<g id="edge6" class="edge"><title>FromFunctor_pseudofunctor_of_functor&#45;&gt;FromFunctor_pseudofunctor_of_functor__composition_of</title>
<path fill="none" stroke="black" d="M588.973,-280.266C651.913,-258.748 763.675,-220.539 832.746,-196.925"/>
<polygon fill="black" stroke="black" points="834.287,-200.097 842.617,-193.55 832.022,-193.473 834.287,-200.097"/>
</g>
<!-- FromFunctor_path_functor_helper -->
<g id="node8" class="node"><title>FromFunctor_path_functor_helper</title>
<g id="a_node8"><a xlink:href="FromFunctor.html#path_functor_helper" xlink:title="path_functor_helper">
<ellipse fill="#f070d1" stroke="black" cx="542" cy="-56.3251" rx="81.7856" ry="18"/>
<text text-anchor="middle" x="542" y="-52.6251" font-family="Times,serif" font-size="14.00">path_functor_helper</text>
</a>
</g>
</g>
<!-- FromFunctor_pseudofunctor_of_functor__right_identity_of&#45;&gt;FromFunctor_path_functor_helper -->
<g id="edge7" class="edge"><title>FromFunctor_pseudofunctor_of_functor__right_identity_of&#45;&gt;FromFunctor_path_functor_helper</title>
<path fill="none" stroke="black" d="M237.863,-159.132C304.104,-136.741 419.442,-97.7532 487.449,-74.765"/>
<polygon fill="black" stroke="black" points="488.775,-78.0113 497.128,-71.4932 486.533,-71.3799 488.775,-78.0113"/>
</g>
<!-- FromFunctor_pseudofunctor_of_functor__left_identity_of&#45;&gt;FromFunctor_path_functor_helper -->
<g id="edge8" class="edge"><title>FromFunctor_pseudofunctor_of_functor__left_identity_of&#45;&gt;FromFunctor_path_functor_helper</title>
<path fill="none" stroke="black" d="M542,-158.1C542,-138.515 542,-107.143 542,-84.4027"/>
<polygon fill="black" stroke="black" points="545.5,-84.3288 542,-74.3288 538.5,-84.3289 545.5,-84.3288"/>
</g>
<!-- FromFunctor_pseudofunctor_of_functor__composition_of&#45;&gt;FromFunctor_path_functor_helper -->
<g id="edge9" class="edge"><title>FromFunctor_pseudofunctor_of_functor__composition_of&#45;&gt;FromFunctor_path_functor_helper</title>
<path fill="none" stroke="black" d="M842.71,-159.132C777.216,-136.741 663.177,-97.7532 595.937,-74.765"/>
<polygon fill="black" stroke="black" points="596.961,-71.4165 586.367,-71.4932 594.697,-78.0401 596.961,-71.4165"/>
</g>
</g>
</svg>
