<?xml version="1.0" encoding="UTF-8" standalone="no"?>
<!DOCTYPE svg PUBLIC "-//W3C//DTD SVG 1.1//EN"
 "http://www.w3.org/Graphics/SVG/1.1/DTD/svg11.dtd">
<!-- Generated by graphviz version 2.39.20141222.0545 (20141222.0545)
 -->
<!-- Title: HoTT_categories_ExponentialLaws_Law3_Law Pages: 1 -->
<svg width="366pt" height="187pt"
 viewBox="0.00 0.00 366.00 187.00" xmlns="http://www.w3.org/2000/svg" xmlns:xlink="http://www.w3.org/1999/xlink">
<g id="graph0" class="graph" transform="scale(1 1) rotate(0) translate(4 183)">
<title>HoTT_categories_ExponentialLaws_Law3_Law</title>
<polygon fill="white" stroke="transparent" points="-4,4 -4,-183 362,-183 362,4 -4,4"/>
<g id="clust1" class="cluster"><title>cluster_Law</title>
<polygon fill="#ffffc3" stroke="black" points="28.0784,-8 28.0784,-171 329.922,-171 329.922,-8 28.0784,-8"/>
<text text-anchor="middle" x="48.5784" y="-155.8" font-family="Times,serif" font-size="14.00">Law</text>
</g>
<!-- Law_Law -->
<g id="node1" class="node"><title>Law_Law</title>
<g id="a_node1"><a xlink:href="Law.html#Law" xlink:title="Law">
<ellipse fill="#facdef" stroke="black" cx="178.961" cy="-114" rx="27" ry="18"/>
<ellipse fill="none" stroke="black" cx="178.961" cy="-114" rx="31" ry="22"/>
<ellipse fill="none" stroke="black" cx="178.961" cy="-114" rx="35" ry="26"/>
<text text-anchor="middle" x="178.961" y="-110.3" font-family="Times,serif" font-size="14.00">Law</text>
</a>
</g>
</g>
<!-- Law_helper -->
<g id="node2" class="node"><title>Law_helper</title>
<g id="a_node2"><a xlink:href="Law.html#helper" xlink:title="helper">
<ellipse fill="#f070d1" stroke="black" cx="178.961" cy="-34" rx="32.4942" ry="18"/>
<text text-anchor="middle" x="178.961" y="-30.3" font-family="Times,serif" font-size="14.00">helper</text>
</a>
</g>
</g>
<!-- Law_Law&#45;&gt;Law_helper -->
<g id="edge1" class="edge"><title>Law_Law&#45;&gt;Law_helper</title>
<path fill="none" stroke="black" d="M178.961,-87.805C178.961,-79.6026 178.961,-70.5174 178.961,-62.1839"/>
<polygon fill="black" stroke="black" points="182.461,-62.1532 178.961,-52.1532 175.461,-62.1533 182.461,-62.1532"/>
</g>
</g>
</svg>
