<?xml version="1.0" encoding="UTF-8" standalone="no"?>
<!DOCTYPE svg PUBLIC "-//W3C//DTD SVG 1.1//EN"
 "http://www.w3.org/Graphics/SVG/1.1/DTD/svg11.dtd">
<!-- Generated by graphviz version 2.26.3 (20100126.1600)
 -->
<!-- Title: HoTT_categories_SetCategory_SetCategory Pages: 1 -->
<svg width="1544pt" height="776pt"
 viewBox="0.00 0.00 1544.00 776.00" xmlns="http://www.w3.org/2000/svg" xmlns:xlink="http://www.w3.org/1999/xlink">
<g id="graph1" class="graph" transform="scale(1 1) rotate(0) translate(4 772)">
<title>HoTT_categories_SetCategory_SetCategory</title>
<polygon fill="white" stroke="white" points="-4,5 -4,-772 1541,-772 1541,5 -4,5"/>
<g id="graph2" class="cluster"><title>cluster_SetCategory</title>
<polygon fill="#ffffc3" stroke="black" points="8,-26.9474 8,-741.053 1528,-741.053 1528,-26.9474 8,-26.9474"/>
<text text-anchor="middle" x="59.5" y="-724.453" font-family="Times Roman,serif" font-size="14.00">SetCategory</text>
</g>
<g id="graph3" class="cluster"><title>cluster_SetCategory_Functors</title>
<polygon fill="#ffffa3" stroke="black" points="490,-53.8947 490,-626.526 1520,-626.526 1520,-53.8947 490,-53.8947"/>
<text text-anchor="middle" x="528" y="-609.926" font-family="Times Roman,serif" font-size="14.00">Functors</text>
</g>
<!-- SetCategory_Functors_from_set2prop -->
<g id="node1" class="node"><title>SetCategory_Functors_from_set2prop</title>
<a xlink:href="SetCategory.html#Functors.from_set2prop" xlink:title="from_set2prop">
<ellipse fill="#f070d1" stroke="black" cx="1422" cy="-420.947" rx="82.0244" ry="18.3848"/>
<ellipse fill="none" stroke="black" cx="1422" cy="-420.947" rx="86.0244" ry="22.3848"/>
<ellipse fill="none" stroke="black" cx="1422" cy="-420.947" rx="90.0244" ry="26.3848"/>
<text text-anchor="middle" x="1422" y="-417.347" font-family="Times Roman,serif" font-size="14.00">from_set2prop</text>
</a>
</g>
<!-- SetCategory_Functors_from_set -->
<g id="node7" class="node"><title>SetCategory_Functors_from_set</title>
<a xlink:href="SetCategory.html#Functors.from_set" xlink:title="from_set">
<ellipse fill="#f070d1" stroke="black" cx="1330" cy="-144.947" rx="53.9477" ry="18.3848"/>
<text text-anchor="middle" x="1330" y="-141.347" font-family="Times Roman,serif" font-size="14.00">from_set</text>
</a>
</g>
<!-- SetCategory_Functors_from_set2prop&#45;&gt;SetCategory_Functors_from_set -->
<g id="edge2" class="edge"><title>SetCategory_Functors_from_set2prop&#45;&gt;SetCategory_Functors_from_set</title>
<path fill="none" stroke="black" d="M1413.18,-394.483C1395.77,-342.261 1357.15,-226.389 1339.33,-172.946"/>
<polygon fill="black" stroke="black" points="1342.64,-171.805 1336.16,-163.425 1336,-174.018 1342.64,-171.805"/>
</g>
<!-- SetCategory_Functors_to_prop2set -->
<g id="node2" class="node"><title>SetCategory_Functors_to_prop2set</title>
<a xlink:href="SetCategory.html#Functors.to_prop2set" xlink:title="to_prop2set">
<ellipse fill="#f070d1" stroke="black" cx="882" cy="-420.947" rx="70.0036" ry="18.3848"/>
<ellipse fill="none" stroke="black" cx="882" cy="-420.947" rx="74.0036" ry="22.3848"/>
<ellipse fill="none" stroke="black" cx="882" cy="-420.947" rx="78.0036" ry="26.3848"/>
<text text-anchor="middle" x="882" y="-417.347" font-family="Times Roman,serif" font-size="14.00">to_prop2set</text>
</a>
</g>
<!-- SetCategory_Functors_to_prop -->
<g id="node10" class="node"><title>SetCategory_Functors_to_prop</title>
<a xlink:href="SetCategory.html#Functors.to_prop" xlink:title="to_prop">
<ellipse fill="#f070d1" stroke="black" cx="798" cy="-144.947" rx="48.7904" ry="18.3848"/>
<text text-anchor="middle" x="798" y="-141.347" font-family="Times Roman,serif" font-size="14.00">to_prop</text>
</a>
</g>
<!-- SetCategory_Functors_to_prop2set&#45;&gt;SetCategory_Functors_to_prop -->
<g id="edge4" class="edge"><title>SetCategory_Functors_to_prop2set&#45;&gt;SetCategory_Functors_to_prop</title>
<path fill="none" stroke="black" d="M873.946,-394.483C858.085,-342.369 822.933,-226.871 806.623,-173.28"/>
<polygon fill="black" stroke="black" points="809.884,-171.972 803.623,-163.425 803.187,-174.01 809.884,-171.972"/>
</g>
<!-- SetCategory_Functors_from_set_id -->
<g id="node3" class="node"><title>SetCategory_Functors_from_set_id</title>
<a xlink:href="SetCategory.html#Functors.from_set_id" xlink:title="from_set_id">
<ellipse fill="#f070d1" stroke="black" cx="1238" cy="-420.947" rx="67.8823" ry="18.3848"/>
<ellipse fill="none" stroke="black" cx="1238" cy="-420.947" rx="71.8823" ry="22.3848"/>
<ellipse fill="none" stroke="black" cx="1238" cy="-420.947" rx="75.8823" ry="26.3848"/>
<text text-anchor="middle" x="1238" y="-417.347" font-family="Times Roman,serif" font-size="14.00">from_set_id</text>
</a>
</g>
<!-- SetCategory_Functors_from_set_id&#45;&gt;SetCategory_Functors_from_set -->
<g id="edge6" class="edge"><title>SetCategory_Functors_from_set_id&#45;&gt;SetCategory_Functors_from_set</title>
<path fill="none" stroke="black" d="M1246.82,-394.483C1264.23,-342.261 1302.85,-226.389 1320.67,-172.946"/>
<polygon fill="black" stroke="black" points="1324,-174.018 1323.84,-163.425 1317.36,-171.805 1324,-174.018"/>
</g>
<!-- SetCategory_Functors_from_prop_id -->
<g id="node4" class="node"><title>SetCategory_Functors_from_prop_id</title>
<a xlink:href="SetCategory.html#Functors.from_prop_id" xlink:title="from_prop_id">
<ellipse fill="#f070d1" stroke="black" cx="1061" cy="-420.947" rx="74.9533" ry="18.3848"/>
<ellipse fill="none" stroke="black" cx="1061" cy="-420.947" rx="78.9533" ry="22.3848"/>
<ellipse fill="none" stroke="black" cx="1061" cy="-420.947" rx="82.9533" ry="26.3848"/>
<text text-anchor="middle" x="1061" y="-417.347" font-family="Times Roman,serif" font-size="14.00">from_prop_id</text>
</a>
</g>
<!-- SetCategory_Functors_from_prop -->
<g id="node8" class="node"><title>SetCategory_Functors_from_prop</title>
<a xlink:href="SetCategory.html#Functors.from_prop" xlink:title="from_prop">
<ellipse fill="#f070d1" stroke="black" cx="1061" cy="-144.947" rx="60.8112" ry="18.3848"/>
<text text-anchor="middle" x="1061" y="-141.347" font-family="Times Roman,serif" font-size="14.00">from_prop</text>
</a>
</g>
<!-- SetCategory_Functors_from_prop_id&#45;&gt;SetCategory_Functors_from_prop -->
<g id="edge8" class="edge"><title>SetCategory_Functors_from_prop_id&#45;&gt;SetCategory_Functors_from_prop</title>
<path fill="none" stroke="black" d="M1061,-394.233C1061,-342.215 1061,-227.732 1061,-173.943"/>
<polygon fill="black" stroke="black" points="1064.5,-173.731 1061,-163.731 1057.5,-173.731 1064.5,-173.731"/>
</g>
<!-- SetCategory_Functors_to_set_id -->
<g id="node5" class="node"><title>SetCategory_Functors_to_set_id</title>
<a xlink:href="SetCategory.html#Functors.to_set_id" xlink:title="to_set_id">
<ellipse fill="#f070d1" stroke="black" cx="562" cy="-420.947" rx="55.8614" ry="18.3848"/>
<ellipse fill="none" stroke="black" cx="562" cy="-420.947" rx="59.8614" ry="22.3848"/>
<ellipse fill="none" stroke="black" cx="562" cy="-420.947" rx="63.8614" ry="26.3848"/>
<text text-anchor="middle" x="562" y="-417.347" font-family="Times Roman,serif" font-size="14.00">to_set_id</text>
</a>
</g>
<!-- SetCategory_Functors_to_set -->
<g id="node9" class="node"><title>SetCategory_Functors_to_set</title>
<a xlink:href="SetCategory.html#Functors.to_set" xlink:title="to_set">
<ellipse fill="#f070d1" stroke="black" cx="562" cy="-144.947" rx="41.2167" ry="18.3848"/>
<text text-anchor="middle" x="562" y="-141.347" font-family="Times Roman,serif" font-size="14.00">to_set</text>
</a>
</g>
<!-- SetCategory_Functors_to_set_id&#45;&gt;SetCategory_Functors_to_set -->
<g id="edge10" class="edge"><title>SetCategory_Functors_to_set_id&#45;&gt;SetCategory_Functors_to_set</title>
<path fill="none" stroke="black" d="M562,-394.233C562,-342.215 562,-227.732 562,-173.943"/>
<polygon fill="black" stroke="black" points="565.5,-173.731 562,-163.731 558.5,-173.731 565.5,-173.731"/>
</g>
<!-- SetCategory_Functors_to_prop_id -->
<g id="node6" class="node"><title>SetCategory_Functors_to_prop_id</title>
<a xlink:href="SetCategory.html#Functors.to_prop_id" xlink:title="to_prop_id">
<ellipse fill="#f070d1" stroke="black" cx="715" cy="-420.947" rx="62.9325" ry="18.3848"/>
<ellipse fill="none" stroke="black" cx="715" cy="-420.947" rx="66.9325" ry="22.3848"/>
<ellipse fill="none" stroke="black" cx="715" cy="-420.947" rx="70.9325" ry="26.3848"/>
<text text-anchor="middle" x="715" y="-417.347" font-family="Times Roman,serif" font-size="14.00">to_prop_id</text>
</a>
</g>
<!-- SetCategory_Functors_to_prop_id&#45;&gt;SetCategory_Functors_to_prop -->
<g id="edge12" class="edge"><title>SetCategory_Functors_to_prop_id&#45;&gt;SetCategory_Functors_to_prop</title>
<path fill="none" stroke="black" d="M722.958,-394.483C738.63,-342.369 773.364,-226.871 789.48,-173.28"/>
<polygon fill="black" stroke="black" points="792.915,-174.009 792.443,-163.425 786.212,-171.993 792.915,-174.009"/>
</g>
<!-- SetCategory_isstrict_prop_cat -->
<g id="node11" class="node"><title>SetCategory_isstrict_prop_cat</title>
<a xlink:href="SetCategory.html#isstrict_prop_cat" xlink:title="isstrict_prop_cat">
<ellipse fill="#f070d1" stroke="black" cx="381" cy="-420.947" rx="91.2168" ry="18.3848"/>
<ellipse fill="none" stroke="black" cx="381" cy="-420.947" rx="95.2168" ry="22.3848"/>
<ellipse fill="none" stroke="black" cx="381" cy="-420.947" rx="99.2168" ry="26.3848"/>
<text text-anchor="middle" x="381" y="-417.347" font-family="Times Roman,serif" font-size="14.00">isstrict_prop_cat</text>
</a>
</g>
<!-- SetCategory_set_cat -->
<g id="node12" class="node"><title>SetCategory_set_cat</title>
<a xlink:href="SetCategory.html#set_cat" xlink:title="set_cat">
<ellipse fill="#f070d1" stroke="black" cx="210" cy="-420.947" rx="46.2409" ry="18.3848"/>
<ellipse fill="none" stroke="black" cx="210" cy="-420.947" rx="50.2042" ry="22.3848"/>
<ellipse fill="none" stroke="black" cx="210" cy="-420.947" rx="54.1675" ry="26.3848"/>
<text text-anchor="middle" x="210" y="-417.347" font-family="Times Roman,serif" font-size="14.00">set_cat</text>
</a>
</g>
<!-- SetCategory_prop_cat -->
<g id="node13" class="node"><title>SetCategory_prop_cat</title>
<a xlink:href="SetCategory.html#prop_cat" xlink:title="prop_cat">
<ellipse fill="#f070d1" stroke="black" cx="77" cy="-420.947" rx="53.3032" ry="18.3848"/>
<ellipse fill="none" stroke="black" cx="77" cy="-420.947" rx="57.2707" ry="22.3848"/>
<ellipse fill="none" stroke="black" cx="77" cy="-420.947" rx="61.2382" ry="26.3848"/>
<text text-anchor="middle" x="77" y="-417.347" font-family="Times Roman,serif" font-size="14.00">prop_cat</text>
</a>
</g>
</g>
</svg>
