<?xml version="1.0" encoding="UTF-8" standalone="no"?>
<!DOCTYPE svg PUBLIC "-//W3C//DTD SVG 1.1//EN"
 "http://www.w3.org/Graphics/SVG/1.1/DTD/svg11.dtd">
<!-- Generated by graphviz version 2.39.20161220.0128 (20161220.0128)
 -->
<!-- Title: HoTT_TruncType Pages: 1 -->
<svg width="1607pt" height="808pt"
 viewBox="0.00 0.00 1607.00 807.50" xmlns="http://www.w3.org/2000/svg" xmlns:xlink="http://www.w3.org/1999/xlink">
<g id="graph0" class="graph" transform="scale(1 1) rotate(0) translate(4 803.5)">
<title>HoTT_TruncType</title>
<polygon fill="#ffffff" stroke="transparent" points="-4,4 -4,-803.5 1603,-803.5 1603,4 -4,4"/>
<g id="clust1" class="cluster">
<title>cluster_TruncType</title>
<polygon fill="#ffffc3" stroke="#000000" points="8,-18.0169 8,-781.4831 1591,-781.4831 1591,-18.0169 8,-18.0169"/>
<text text-anchor="middle" x="46.5" y="-766.2831" font-family="Times,serif" font-size="14.00" fill="#000000">TruncType</text>
</g>
<!-- TruncType_path_iff_hprop -->
<g id="node1" class="node">
<title>TruncType_path_iff_hprop</title>
<g id="a_node1"><a xlink:href="TruncType.html#path_iff_hprop" xlink:title="path_iff_hprop">
<ellipse fill="#f070d1" stroke="#000000" cx="1511" cy="-653.0169" rx="63.8675" ry="18"/>
<ellipse fill="none" stroke="#000000" cx="1511" cy="-653.0169" rx="67.8784" ry="22"/>
<ellipse fill="none" stroke="#000000" cx="1511" cy="-653.0169" rx="71.8892" ry="26"/>
<text text-anchor="middle" x="1511" y="-649.3169" font-family="Times,serif" font-size="14.00" fill="#000000">path_iff_hprop</text>
</a>
</g>
</g>
<!-- TruncType_path_iff_hprop_uncurried -->
<g id="node5" class="node">
<title>TruncType_path_iff_hprop_uncurried</title>
<g id="a_node5"><a xlink:href="TruncType.html#path_iff_hprop_uncurried" xlink:title="path_iff_hprop_uncurried">
<ellipse fill="#f070d1" stroke="#000000" cx="1482" cy="-455.0169" rx="101.2821" ry="18"/>
<text text-anchor="middle" x="1482" y="-451.3169" font-family="Times,serif" font-size="14.00" fill="#000000">path_iff_hprop_uncurried</text>
</a>
</g>
</g>
<!-- TruncType_path_iff_hprop&#45;&gt;TruncType_path_iff_hprop_uncurried -->
<g id="edge1" class="edge">
<title>TruncType_path_iff_hprop&#45;&gt;TruncType_path_iff_hprop_uncurried</title>
<path fill="none" stroke="#000000" d="M1507.149,-626.724C1501.6847,-589.4159 1491.7236,-521.4056 1486.1173,-483.1283"/>
<polygon fill="#000000" stroke="#000000" points="1489.5712,-482.558 1484.6589,-473.1708 1482.6451,-483.5725 1489.5712,-482.558"/>
</g>
<!-- TruncType_path_iff_ishprop -->
<g id="node2" class="node">
<title>TruncType_path_iff_ishprop</title>
<g id="a_node2"><a xlink:href="TruncType.html#path_iff_ishprop" xlink:title="path_iff_ishprop">
<ellipse fill="#f070d1" stroke="#000000" cx="1344" cy="-653.0169" rx="69.5832" ry="18"/>
<ellipse fill="none" stroke="#000000" cx="1344" cy="-653.0169" rx="73.5854" ry="22"/>
<ellipse fill="none" stroke="#000000" cx="1344" cy="-653.0169" rx="77.5877" ry="26"/>
<text text-anchor="middle" x="1344" y="-649.3169" font-family="Times,serif" font-size="14.00" fill="#000000">path_iff_ishprop</text>
</a>
</g>
</g>
<!-- TruncType_path_iff_ishprop_uncurried -->
<g id="node6" class="node">
<title>TruncType_path_iff_ishprop_uncurried</title>
<g id="a_node6"><a xlink:href="TruncType.html#path_iff_ishprop_uncurried" xlink:title="path_iff_ishprop_uncurried">
<ellipse fill="#f070d1" stroke="#000000" cx="1255" cy="-455.0169" rx="107.4815" ry="18"/>
<text text-anchor="middle" x="1255" y="-451.3169" font-family="Times,serif" font-size="14.00" fill="#000000">path_iff_ishprop_uncurried</text>
</a>
</g>
</g>
<!-- TruncType_path_iff_ishprop&#45;&gt;TruncType_path_iff_ishprop_uncurried -->
<g id="edge2" class="edge">
<title>TruncType_path_iff_ishprop&#45;&gt;TruncType_path_iff_ishprop_uncurried</title>
<path fill="none" stroke="#000000" d="M1332.3648,-627.1319C1315.5394,-589.7 1284.5513,-520.7603 1267.3402,-482.4703"/>
<polygon fill="#000000" stroke="#000000" points="1270.3683,-480.6699 1263.0761,-472.9839 1263.9836,-483.5398 1270.3683,-480.6699"/>
</g>
<!-- TruncType_isequiv_path_iff_hprop_uncurried -->
<g id="node3" class="node">
<title>TruncType_isequiv_path_iff_hprop_uncurried</title>
<g id="a_node3"><a xlink:href="TruncType.html#isequiv_path_iff_hprop_uncurried" xlink:title="isequiv_path_iff_hprop_uncurried">
<ellipse fill="#f070d1" stroke="#000000" cx="944" cy="-455.0169" rx="131.0892" ry="18"/>
<ellipse fill="none" stroke="#000000" cx="944" cy="-455.0169" rx="135.0831" ry="22"/>
<ellipse fill="none" stroke="#000000" cx="944" cy="-455.0169" rx="139.077" ry="26"/>
<text text-anchor="middle" x="944" y="-451.3169" font-family="Times,serif" font-size="14.00" fill="#000000">isequiv_path_iff_hprop_uncurried</text>
</a>
</g>
</g>
<!-- TruncType_path_hprop -->
<g id="node15" class="node">
<title>TruncType_path_hprop</title>
<g id="a_node15"><a xlink:href="TruncType.html#path_hprop" xlink:title="path_hprop">
<ellipse fill="#f070d1" stroke="#000000" cx="1025" cy="-257.0169" rx="50.8918" ry="18"/>
<text text-anchor="middle" x="1025" y="-253.3169" font-family="Times,serif" font-size="14.00" fill="#000000">path_hprop</text>
</a>
</g>
</g>
<!-- TruncType_isequiv_path_iff_hprop_uncurried&#45;&gt;TruncType_path_hprop -->
<g id="edge3" class="edge">
<title>TruncType_isequiv_path_iff_hprop_uncurried&#45;&gt;TruncType_path_hprop</title>
<path fill="none" stroke="#000000" d="M954.7562,-428.724C970.1233,-391.1599 998.2234,-322.4708 1013.8205,-284.3445"/>
<polygon fill="#000000" stroke="#000000" points="1017.1374,-285.4804 1017.6843,-274.8996 1010.6585,-282.8299 1017.1374,-285.4804"/>
</g>
<!-- TruncType_isequiv_path_trunctype -->
<g id="node17" class="node">
<title>TruncType_isequiv_path_trunctype</title>
<g id="a_node17"><a xlink:href="TruncType.html#isequiv_path_trunctype" xlink:title="isequiv_path_trunctype">
<ellipse fill="#f070d1" stroke="#000000" cx="863" cy="-257.0169" rx="92.8835" ry="18"/>
<text text-anchor="middle" x="863" y="-253.3169" font-family="Times,serif" font-size="14.00" fill="#000000">isequiv_path_trunctype</text>
</a>
</g>
</g>
<!-- TruncType_isequiv_path_iff_hprop_uncurried&#45;&gt;TruncType_isequiv_path_trunctype -->
<g id="edge4" class="edge">
<title>TruncType_isequiv_path_iff_hprop_uncurried&#45;&gt;TruncType_isequiv_path_trunctype</title>
<path fill="none" stroke="#000000" d="M933.2438,-428.724C917.9162,-391.2565 889.921,-322.8238 874.3,-284.6392"/>
<polygon fill="#000000" stroke="#000000" points="877.4524,-283.101 870.4266,-275.1708 870.9736,-285.7515 877.4524,-283.101"/>
</g>
<!-- TruncType_isequiv_path_iff_ishprop_uncurried -->
<g id="node4" class="node">
<title>TruncType_isequiv_path_iff_ishprop_uncurried</title>
<g id="a_node4"><a xlink:href="TruncType.html#isequiv_path_iff_ishprop_uncurried" xlink:title="isequiv_path_iff_ishprop_uncurried">
<ellipse fill="#f070d1" stroke="#000000" cx="1103" cy="-653.0169" rx="137.2682" ry="18"/>
<ellipse fill="none" stroke="#000000" cx="1103" cy="-653.0169" rx="141.272" ry="22"/>
<ellipse fill="none" stroke="#000000" cx="1103" cy="-653.0169" rx="145.2758" ry="26"/>
<text text-anchor="middle" x="1103" y="-649.3169" font-family="Times,serif" font-size="14.00" fill="#000000">isequiv_path_iff_ishprop_uncurried</text>
</a>
</g>
</g>
<!-- TruncType_path_iff_hprop_uncurried&#45;&gt;TruncType_path_hprop -->
<g id="edge5" class="edge">
<title>TruncType_path_iff_hprop_uncurried&#45;&gt;TruncType_path_hprop</title>
<path fill="none" stroke="#000000" d="M1443.4303,-438.3062C1358.2871,-401.417 1154.8521,-313.2767 1066.8018,-275.128"/>
<polygon fill="#000000" stroke="#000000" points="1067.9656,-271.8178 1057.3983,-271.0538 1065.1827,-278.2409 1067.9656,-271.8178"/>
</g>
<!-- TruncType_trunc_path_IsHProp -->
<g id="node7" class="node">
<title>TruncType_trunc_path_IsHProp</title>
<g id="a_node7"><a xlink:href="TruncType.html#trunc_path_IsHProp" xlink:title="trunc_path_IsHProp">
<ellipse fill="#facdef" stroke="#000000" cx="850" cy="-653.0169" rx="81.7951" ry="18"/>
<ellipse fill="none" stroke="#000000" cx="850" cy="-653.0169" rx="85.7904" ry="22"/>
<ellipse fill="none" stroke="#000000" cx="850" cy="-653.0169" rx="89.7856" ry="26"/>
<text text-anchor="middle" x="850" y="-649.3169" font-family="Times,serif" font-size="14.00" fill="#000000">trunc_path_IsHProp</text>
</a>
</g>
</g>
<!-- TruncType_is_true -->
<g id="node8" class="node">
<title>TruncType_is_true</title>
<g id="a_node8"><a xlink:href="TruncType.html#is_true" xlink:title="is_true">
<ellipse fill="#f070d1" stroke="#000000" cx="700" cy="-653.0169" rx="34.4039" ry="18"/>
<ellipse fill="none" stroke="#000000" cx="700" cy="-653.0169" rx="38.3989" ry="22"/>
<ellipse fill="none" stroke="#000000" cx="700" cy="-653.0169" rx="42.394" ry="26"/>
<text text-anchor="middle" x="700" y="-649.3169" font-family="Times,serif" font-size="14.00" fill="#000000">is_true</text>
</a>
</g>
</g>
<!-- TruncType_False_hp -->
<g id="node10" class="node">
<title>TruncType_False_hp</title>
<g id="a_node10"><a xlink:href="TruncType.html#False_hp" xlink:title="False_hp">
<ellipse fill="#f070d1" stroke="#000000" cx="623" cy="-455.0169" rx="42.4939" ry="18"/>
<text text-anchor="middle" x="623" y="-451.3169" font-family="Times,serif" font-size="14.00" fill="#000000">False_hp</text>
</a>
</g>
</g>
<!-- TruncType_is_true&#45;&gt;TruncType_False_hp -->
<g id="edge6" class="edge">
<title>TruncType_is_true&#45;&gt;TruncType_False_hp</title>
<path fill="none" stroke="#000000" d="M690.0912,-627.5372C675.5496,-590.1445 648.5412,-520.6943 633.6102,-482.3003"/>
<polygon fill="#000000" stroke="#000000" points="636.8008,-480.8479 629.9143,-472.7964 630.2768,-483.3851 636.8008,-480.8479"/>
</g>
<!-- TruncType_Unit_hp -->
<g id="node11" class="node">
<title>TruncType_Unit_hp</title>
<g id="a_node11"><a xlink:href="TruncType.html#Unit_hp" xlink:title="Unit_hp">
<ellipse fill="#f070d1" stroke="#000000" cx="723" cy="-455.0169" rx="39.7935" ry="18"/>
<text text-anchor="middle" x="723" y="-451.3169" font-family="Times,serif" font-size="14.00" fill="#000000">Unit_hp</text>
</a>
</g>
</g>
<!-- TruncType_is_true&#45;&gt;TruncType_Unit_hp -->
<g id="edge7" class="edge">
<title>TruncType_is_true&#45;&gt;TruncType_Unit_hp</title>
<path fill="none" stroke="#000000" d="M703.0542,-626.724C707.388,-589.4159 715.2882,-521.4056 719.7345,-483.1283"/>
<polygon fill="#000000" stroke="#000000" points="723.2139,-483.5079 720.8912,-473.1708 716.2606,-482.7001 723.2139,-483.5079"/>
</g>
<!-- TruncType_Negation_hp -->
<g id="node9" class="node">
<title>TruncType_Negation_hp</title>
<g id="a_node9"><a xlink:href="TruncType.html#Negation_hp" xlink:title="Negation_hp">
<ellipse fill="#f070d1" stroke="#000000" cx="576" cy="-653.0169" rx="55.8034" ry="18"/>
<ellipse fill="none" stroke="#000000" cx="576" cy="-653.0169" rx="59.7968" ry="22"/>
<ellipse fill="none" stroke="#000000" cx="576" cy="-653.0169" rx="63.7903" ry="26"/>
<text text-anchor="middle" x="576" y="-649.3169" font-family="Times,serif" font-size="14.00" fill="#000000">Negation_hp</text>
</a>
</g>
</g>
<!-- TruncType_Sn_trunctype -->
<g id="node12" class="node">
<title>TruncType_Sn_trunctype</title>
<g id="a_node12"><a xlink:href="TruncType.html#Sn_trunctype" xlink:title="Sn_trunctype">
<ellipse fill="#f070d1" stroke="#000000" cx="428" cy="-653.0169" rx="57.7089" ry="18"/>
<ellipse fill="none" stroke="#000000" cx="428" cy="-653.0169" rx="61.6995" ry="22"/>
<ellipse fill="none" stroke="#000000" cx="428" cy="-653.0169" rx="65.6901" ry="26"/>
<text text-anchor="middle" x="428" y="-649.3169" font-family="Times,serif" font-size="14.00" fill="#000000">Sn_trunctype</text>
</a>
</g>
</g>
<!-- TruncType_istrunc_trunctype -->
<g id="node14" class="node">
<title>TruncType_istrunc_trunctype</title>
<g id="a_node14"><a xlink:href="TruncType.html#istrunc_trunctype" xlink:title="istrunc_trunctype">
<ellipse fill="#f070d1" stroke="#000000" cx="328" cy="-455.0169" rx="72.2875" ry="18"/>
<text text-anchor="middle" x="328" y="-451.3169" font-family="Times,serif" font-size="14.00" fill="#000000">istrunc_trunctype</text>
</a>
</g>
</g>
<!-- TruncType_Sn_trunctype&#45;&gt;TruncType_istrunc_trunctype -->
<g id="edge8" class="edge">
<title>TruncType_Sn_trunctype&#45;&gt;TruncType_istrunc_trunctype</title>
<path fill="none" stroke="#000000" d="M414.9267,-627.1319C395.9413,-589.5407 360.9071,-520.173 341.6193,-481.9831"/>
<polygon fill="#000000" stroke="#000000" points="344.7066,-480.3322 337.0742,-472.9839 338.4583,-483.4879 344.7066,-480.3322"/>
</g>
<!-- TruncType_issig_trunctype -->
<g id="node21" class="node">
<title>TruncType_issig_trunctype</title>
<g id="a_node21"><a xlink:href="TruncType.html#issig_trunctype" xlink:title="issig_trunctype">
<ellipse fill="#f070d1" stroke="#000000" cx="482" cy="-455.0169" rx="64.189" ry="18"/>
<text text-anchor="middle" x="482" y="-451.3169" font-family="Times,serif" font-size="14.00" fill="#000000">issig_trunctype</text>
</a>
</g>
</g>
<!-- TruncType_Sn_trunctype&#45;&gt;TruncType_issig_trunctype -->
<g id="edge9" class="edge">
<title>TruncType_Sn_trunctype&#45;&gt;TruncType_issig_trunctype</title>
<path fill="none" stroke="#000000" d="M435.0596,-627.1319C445.2248,-589.8593 463.9101,-521.3465 474.379,-482.9607"/>
<polygon fill="#000000" stroke="#000000" points="477.8453,-483.5525 477.0999,-472.9839 471.092,-481.7106 477.8453,-483.5525"/>
</g>
<!-- TruncType_isset_hProp -->
<g id="node13" class="node">
<title>TruncType_isset_hProp</title>
<g id="a_node13"><a xlink:href="TruncType.html#isset_hProp" xlink:title="isset_hProp">
<ellipse fill="#f070d1" stroke="#000000" cx="284" cy="-653.0169" rx="51.9914" ry="18"/>
<ellipse fill="none" stroke="#000000" cx="284" cy="-653.0169" rx="55.9911" ry="22"/>
<ellipse fill="none" stroke="#000000" cx="284" cy="-653.0169" rx="59.9908" ry="26"/>
<text text-anchor="middle" x="284" y="-649.3169" font-family="Times,serif" font-size="14.00" fill="#000000">isset_hProp</text>
</a>
</g>
</g>
<!-- TruncType_isset_hProp&#45;&gt;TruncType_istrunc_trunctype -->
<g id="edge10" class="edge">
<title>TruncType_isset_hProp&#45;&gt;TruncType_istrunc_trunctype</title>
<path fill="none" stroke="#000000" d="M289.7522,-627.1319C298.0137,-589.9551 313.1819,-521.6985 321.7243,-483.2574"/>
<polygon fill="#000000" stroke="#000000" points="325.1941,-483.7774 323.9468,-473.2562 318.3608,-482.2588 325.1941,-483.7774"/>
</g>
<!-- TruncType_istrunc_trunctype&#45;&gt;TruncType_isequiv_path_trunctype -->
<g id="edge11" class="edge">
<title>TruncType_istrunc_trunctype&#45;&gt;TruncType_isequiv_path_trunctype</title>
<path fill="none" stroke="#000000" d="M368.6511,-439.9722C464.3015,-404.5726 703.5467,-316.0295 810.2231,-276.5493"/>
<polygon fill="#000000" stroke="#000000" points="811.6544,-279.7516 819.8179,-272.9983 809.2248,-273.1868 811.6544,-279.7516"/>
</g>
<!-- TruncType_path_trunctype -->
<g id="node18" class="node">
<title>TruncType_path_trunctype</title>
<g id="a_node18"><a xlink:href="TruncType.html#path_trunctype" xlink:title="path_trunctype">
<ellipse fill="#f070d1" stroke="#000000" cx="862" cy="-77.0169" rx="63.8893" ry="18"/>
<text text-anchor="middle" x="862" y="-73.3169" font-family="Times,serif" font-size="14.00" fill="#000000">path_trunctype</text>
</a>
</g>
</g>
<!-- TruncType_path_hprop&#45;&gt;TruncType_path_trunctype -->
<g id="edge12" class="edge">
<title>TruncType_path_hprop&#45;&gt;TruncType_path_trunctype</title>
<path fill="none" stroke="#000000" d="M1009.3709,-239.7577C980.4796,-207.8533 918.6025,-139.5227 884.9467,-102.3569"/>
<polygon fill="#000000" stroke="#000000" points="887.1281,-99.5514 877.8213,-94.4883 881.9393,-104.2501 887.1281,-99.5514"/>
</g>
<!-- TruncType_path_hset -->
<g id="node16" class="node">
<title>TruncType_path_hset</title>
<g id="a_node16"><a xlink:href="TruncType.html#path_hset" xlink:title="path_hset">
<ellipse fill="#f070d1" stroke="#000000" cx="700" cy="-257.0169" rx="44.3627" ry="18"/>
<ellipse fill="none" stroke="#000000" cx="700" cy="-257.0169" rx="48.3778" ry="22"/>
<ellipse fill="none" stroke="#000000" cx="700" cy="-257.0169" rx="52.3929" ry="26"/>
<text text-anchor="middle" x="700" y="-253.3169" font-family="Times,serif" font-size="14.00" fill="#000000">path_hset</text>
</a>
</g>
</g>
<!-- TruncType_path_hset&#45;&gt;TruncType_path_trunctype -->
<g id="edge13" class="edge">
<title>TruncType_path_hset&#45;&gt;TruncType_path_trunctype</title>
<path fill="none" stroke="#000000" d="M721.5123,-233.1143C752.1098,-199.1172 807.9468,-137.076 839.2229,-102.3248"/>
<polygon fill="#000000" stroke="#000000" points="842.1576,-104.296 846.2458,-94.5216 836.9545,-99.6132 842.1576,-104.296"/>
</g>
<!-- TruncType_equiv_path_trunctype -->
<g id="node19" class="node">
<title>TruncType_equiv_path_trunctype</title>
<g id="a_node19"><a xlink:href="TruncType.html#equiv_path_trunctype" xlink:title="equiv_path_trunctype">
<ellipse fill="#f070d1" stroke="#000000" cx="111" cy="-653.0169" rx="87.1769" ry="18"/>
<ellipse fill="none" stroke="#000000" cx="111" cy="-653.0169" rx="91.1807" ry="22"/>
<ellipse fill="none" stroke="#000000" cx="111" cy="-653.0169" rx="95.1846" ry="26"/>
<text text-anchor="middle" x="111" y="-649.3169" font-family="Times,serif" font-size="14.00" fill="#000000">equiv_path_trunctype</text>
</a>
</g>
</g>
<!-- TruncType_isequiv_ap_trunctype -->
<g id="node20" class="node">
<title>TruncType_isequiv_ap_trunctype</title>
<g id="a_node20"><a xlink:href="TruncType.html#isequiv_ap_trunctype" xlink:title="isequiv_ap_trunctype">
<ellipse fill="#f070d1" stroke="#000000" cx="111" cy="-455.0169" rx="86.3847" ry="18"/>
<text text-anchor="middle" x="111" y="-451.3169" font-family="Times,serif" font-size="14.00" fill="#000000">isequiv_ap_trunctype</text>
</a>
</g>
</g>
<!-- TruncType_equiv_path_trunctype&#45;&gt;TruncType_isequiv_ap_trunctype -->
<g id="edge14" class="edge">
<title>TruncType_equiv_path_trunctype&#45;&gt;TruncType_isequiv_ap_trunctype</title>
<path fill="none" stroke="#000000" d="M111,-626.724C111,-589.5754 111,-521.9864 111,-483.6206"/>
<polygon fill="#000000" stroke="#000000" points="114.5001,-483.1707 111,-473.1708 107.5001,-483.1708 114.5001,-483.1707"/>
</g>
</g>
</svg>
