<?xml version="1.0" encoding="UTF-8" standalone="no"?>
<!DOCTYPE svg PUBLIC "-//W3C//DTD SVG 1.1//EN"
 "http://www.w3.org/Graphics/SVG/1.1/DTD/svg11.dtd">
<!-- Generated by graphviz version 2.26.3 (20100126.1600)
 -->
<!-- Title: HoTT_categories_Pseudofunctor_FromFunctor Pages: 1 -->
<svg width="1406pt" height="707pt"
 viewBox="0.00 0.00 1406.00 707.00" xmlns="http://www.w3.org/2000/svg" xmlns:xlink="http://www.w3.org/1999/xlink">
<g id="graph1" class="graph" transform="scale(1 1) rotate(0) translate(4 703)">
<title>HoTT_categories_Pseudofunctor_FromFunctor</title>
<polygon fill="white" stroke="white" points="-4,5 -4,-703 1403,-703 1403,5 -4,5"/>
<g id="graph2" class="cluster"><title>cluster_FromFunctor</title>
<polygon fill="#ffffc3" stroke="black" points="8,-16.7425 8,-682.257 1390,-682.257 1390,-16.7425 8,-16.7425"/>
<text text-anchor="middle" x="60" y="-665.657" font-family="Times Roman,serif" font-size="14.00">FromFunctor</text>
</g>
<!-- FromFunctor_pseudofunctor_of_functor_to_cat -->
<g id="node1" class="node"><title>FromFunctor_pseudofunctor_of_functor_to_cat</title>
<a xlink:href="FromFunctor.html#pseudofunctor_of_functor_to_cat" xlink:title="pseudofunctor_of_functor_to_cat">
<ellipse fill="#f070d1" stroke="black" cx="708" cy="-554.743" rx="171.12" ry="18.3848"/>
<ellipse fill="none" stroke="black" cx="708" cy="-554.743" rx="175.12" ry="22.3848"/>
<ellipse fill="none" stroke="black" cx="708" cy="-554.743" rx="179.12" ry="26.3848"/>
<text text-anchor="middle" x="708" y="-551.143" font-family="Times Roman,serif" font-size="14.00">pseudofunctor_of_functor_to_cat</text>
</a>
</g>
<!-- FromFunctor_FunctorToCat -->
<g id="node3" class="node"><title>FromFunctor_FunctorToCat</title>
<a xlink:href="FromFunctor.html#FunctorToCat" xlink:title="FunctorToCat">
<ellipse fill="#f070d1" stroke="black" cx="442" cy="-382.743" rx="75.8684" ry="18.3848"/>
<text text-anchor="middle" x="442" y="-379.143" font-family="Times Roman,serif" font-size="14.00">FunctorToCat</text>
</a>
</g>
<!-- FromFunctor_pseudofunctor_of_functor_to_cat&#45;&gt;FromFunctor_FunctorToCat -->
<g id="edge2" class="edge"><title>FromFunctor_pseudofunctor_of_functor_to_cat&#45;&gt;FromFunctor_FunctorToCat</title>
<path fill="none" stroke="black" d="M667.889,-528.806C616.135,-495.341 526.9,-437.641 477.497,-405.695"/>
<polygon fill="black" stroke="black" points="479.343,-402.721 469.046,-400.231 475.542,-408.6 479.343,-402.721"/>
</g>
<!-- FromFunctor_pseudofunctor_of_functor -->
<g id="node4" class="node"><title>FromFunctor_pseudofunctor_of_functor</title>
<a xlink:href="FromFunctor.html#pseudofunctor_of_functor" xlink:title="pseudofunctor_of_functor">
<ellipse fill="#f070d1" stroke="black" cx="708" cy="-382.743" rx="135.765" ry="18.3848"/>
<text text-anchor="middle" x="708" y="-379.143" font-family="Times Roman,serif" font-size="14.00">pseudofunctor_of_functor</text>
</a>
</g>
<!-- FromFunctor_pseudofunctor_of_functor_to_cat&#45;&gt;FromFunctor_pseudofunctor_of_functor -->
<g id="edge4" class="edge"><title>FromFunctor_pseudofunctor_of_functor_to_cat&#45;&gt;FromFunctor_pseudofunctor_of_functor</title>
<path fill="none" stroke="black" d="M708,-527.868C708,-496.29 708,-444.099 708,-411.662"/>
<polygon fill="black" stroke="black" points="711.5,-411.477 708,-401.477 704.5,-411.477 711.5,-411.477"/>
</g>
<!-- FromFunctor_functor_to_cat_id -->
<g id="node2" class="node"><title>FromFunctor_functor_to_cat_id</title>
<a xlink:href="FromFunctor.html#functor_to_cat_id" xlink:title="functor_to_cat_id">
<ellipse fill="#f070d1" stroke="black" cx="407" cy="-554.743" rx="96.1665" ry="18.3848"/>
<ellipse fill="none" stroke="black" cx="407" cy="-554.743" rx="100.167" ry="22.3848"/>
<ellipse fill="none" stroke="black" cx="407" cy="-554.743" rx="104.167" ry="26.3848"/>
<text text-anchor="middle" x="407" y="-551.143" font-family="Times Roman,serif" font-size="14.00">functor_to_cat_id</text>
</a>
</g>
<!-- FromFunctor_functor_to_cat_id&#45;&gt;FromFunctor_FunctorToCat -->
<g id="edge6" class="edge"><title>FromFunctor_functor_to_cat_id&#45;&gt;FromFunctor_FunctorToCat</title>
<path fill="none" stroke="black" d="M412.392,-528.244C418.829,-496.613 429.552,-443.917 436.174,-411.373"/>
<polygon fill="black" stroke="black" points="439.605,-412.064 438.169,-401.567 432.746,-410.668 439.605,-412.064"/>
</g>
<!-- FromFunctor_pseudofunctor_of_functor__right_identity_of -->
<g id="node5" class="node"><title>FromFunctor_pseudofunctor_of_functor__right_identity_of</title>
<a xlink:href="FromFunctor.html#pseudofunctor_of_functor__right_identity_of" xlink:title="pseudofunctor_of_functor__right_identity_of">
<ellipse fill="#facdef" stroke="black" cx="243" cy="-227.743" rx="226.981" ry="18.3848"/>
<text text-anchor="middle" x="243" y="-224.143" font-family="Times Roman,serif" font-size="14.00">pseudofunctor_of_functor__right_identity_of</text>
</a>
</g>
<!-- FromFunctor_pseudofunctor_of_functor&#45;&gt;FromFunctor_pseudofunctor_of_functor__right_identity_of -->
<g id="edge8" class="edge"><title>FromFunctor_pseudofunctor_of_functor&#45;&gt;FromFunctor_pseudofunctor_of_functor__right_identity_of</title>
<path fill="none" stroke="black" d="M656.46,-365.563C570.818,-337.015 399.446,-279.891 306.487,-248.905"/>
<polygon fill="black" stroke="black" points="307.514,-245.558 296.92,-245.716 305.3,-252.199 307.514,-245.558"/>
</g>
<!-- FromFunctor_pseudofunctor_of_functor__left_identity_of -->
<g id="node6" class="node"><title>FromFunctor_pseudofunctor_of_functor__left_identity_of</title>
<a xlink:href="FromFunctor.html#pseudofunctor_of_functor__left_identity_of" xlink:title="pseudofunctor_of_functor__left_identity_of">
<ellipse fill="#facdef" stroke="black" cx="708" cy="-227.743" rx="219.91" ry="18.3848"/>
<text text-anchor="middle" x="708" y="-224.143" font-family="Times Roman,serif" font-size="14.00">pseudofunctor_of_functor__left_identity_of</text>
</a>
</g>
<!-- FromFunctor_pseudofunctor_of_functor&#45;&gt;FromFunctor_pseudofunctor_of_functor__left_identity_of -->
<g id="edge10" class="edge"><title>FromFunctor_pseudofunctor_of_functor&#45;&gt;FromFunctor_pseudofunctor_of_functor__left_identity_of</title>
<path fill="none" stroke="black" d="M708,-364.046C708,-337.396 708,-288.243 708,-256.816"/>
<polygon fill="black" stroke="black" points="711.5,-256.505 708,-246.505 704.5,-256.505 711.5,-256.505"/>
</g>
<!-- FromFunctor_pseudofunctor_of_functor__composition_of -->
<g id="node7" class="node"><title>FromFunctor_pseudofunctor_of_functor__composition_of</title>
<a xlink:href="FromFunctor.html#pseudofunctor_of_functor__composition_of" xlink:title="pseudofunctor_of_functor__composition_of">
<ellipse fill="#facdef" stroke="black" cx="1164" cy="-227.743" rx="217.996" ry="18.3848"/>
<text text-anchor="middle" x="1164" y="-224.143" font-family="Times Roman,serif" font-size="14.00">pseudofunctor_of_functor__composition_of</text>
</a>
</g>
<!-- FromFunctor_pseudofunctor_of_functor&#45;&gt;FromFunctor_pseudofunctor_of_functor__composition_of -->
<g id="edge12" class="edge"><title>FromFunctor_pseudofunctor_of_functor&#45;&gt;FromFunctor_pseudofunctor_of_functor__composition_of</title>
<path fill="none" stroke="black" d="M758.542,-365.563C842.442,-337.044 1010.24,-280.007 1101.46,-248.999"/>
<polygon fill="black" stroke="black" points="1102.78,-252.248 1111.12,-245.716 1100.53,-245.62 1102.78,-252.248"/>
</g>
<!-- FromFunctor_path_functor_helper -->
<g id="node8" class="node"><title>FromFunctor_path_functor_helper</title>
<a xlink:href="FromFunctor.html#path_functor_helper" xlink:title="path_functor_helper">
<ellipse fill="#f070d1" stroke="black" cx="708" cy="-73.7425" rx="109.81" ry="18.3848"/>
<text text-anchor="middle" x="708" y="-70.1425" font-family="Times Roman,serif" font-size="14.00">path_functor_helper</text>
</a>
</g>
<!-- FromFunctor_pseudofunctor_of_functor__right_identity_of&#45;&gt;FromFunctor_path_functor_helper -->
<g id="edge14" class="edge"><title>FromFunctor_pseudofunctor_of_functor__right_identity_of&#45;&gt;FromFunctor_path_functor_helper</title>
<path fill="none" stroke="black" d="M297.251,-209.775C384.973,-180.723 557.301,-123.651 648.357,-93.4952"/>
<polygon fill="black" stroke="black" points="649.586,-96.7751 657.979,-90.3086 647.386,-90.13 649.586,-96.7751"/>
</g>
<!-- FromFunctor_pseudofunctor_of_functor__left_identity_of&#45;&gt;FromFunctor_path_functor_helper -->
<g id="edge16" class="edge"><title>FromFunctor_pseudofunctor_of_functor__left_identity_of&#45;&gt;FromFunctor_path_functor_helper</title>
<path fill="none" stroke="black" d="M708,-209.167C708,-182.689 708,-133.852 708,-102.629"/>
<polygon fill="black" stroke="black" points="711.5,-102.384 708,-92.3844 704.5,-102.384 711.5,-102.384"/>
</g>
<!-- FromFunctor_pseudofunctor_of_functor__composition_of&#45;&gt;FromFunctor_path_functor_helper -->
<g id="edge18" class="edge"><title>FromFunctor_pseudofunctor_of_functor__composition_of&#45;&gt;FromFunctor_path_functor_helper</title>
<path fill="none" stroke="black" d="M1110.8,-209.775C1024.86,-180.753 856.124,-123.767 766.76,-93.5868"/>
<polygon fill="black" stroke="black" points="767.647,-90.1923 757.053,-90.3086 765.407,-96.8243 767.647,-90.1923"/>
</g>
</g>
</svg>
