<?xml version="1.0" encoding="UTF-8" standalone="no"?>
<!DOCTYPE svg PUBLIC "-//W3C//DTD SVG 1.1//EN"
 "http://www.w3.org/Graphics/SVG/1.1/DTD/svg11.dtd">
<!-- Generated by graphviz version 2.39.20161220.0128 (20161220.0128)
 -->
<!-- Title: HoTT_HIT_unique_choice Pages: 1 -->
<svg width="510pt" height="259pt"
 viewBox="0.00 0.00 510.00 259.00" xmlns="http://www.w3.org/2000/svg" xmlns:xlink="http://www.w3.org/1999/xlink">
<g id="graph0" class="graph" transform="scale(1 1) rotate(0) translate(4 255)">
<title>HoTT_HIT_unique_choice</title>
<polygon fill="#ffffff" stroke="transparent" points="-4,4 -4,-255 506,-255 506,4 -4,4"/>
<g id="clust1" class="cluster">
<title>cluster_unique_choice</title>
<polygon fill="#ffffc3" stroke="#000000" points="15.4462,-8 15.4462,-243 486.5538,-243 486.5538,-8 15.4462,-8"/>
<text text-anchor="middle" x="62.9462" y="-227.8" font-family="Times,serif" font-size="14.00" fill="#000000">unique_choice</text>
</g>
<!-- unique_choice_unique_choice -->
<g id="node1" class="node">
<title>unique_choice_unique_choice</title>
<g id="a_node1"><a xlink:href="unique_choice.html#unique_choice" xlink:title="unique_choice">
<ellipse fill="#facdef" stroke="#000000" cx="335.5385" cy="-186" rx="61.9618" ry="18"/>
<ellipse fill="none" stroke="#000000" cx="335.5385" cy="-186" rx="65.9758" ry="22"/>
<ellipse fill="none" stroke="#000000" cx="335.5385" cy="-186" rx="69.9899" ry="26"/>
<text text-anchor="middle" x="335.5385" y="-182.3" font-family="Times,serif" font-size="14.00" fill="#000000">unique_choice</text>
</a>
</g>
</g>
<!-- unique_choice_hunique -->
<g id="node4" class="node">
<title>unique_choice_hunique</title>
<g id="a_node4"><a xlink:href="unique_choice.html#hunique" xlink:title="hunique">
<ellipse fill="#f070d1" stroke="#000000" cx="301.5385" cy="-106" rx="38.9931" ry="18"/>
<text text-anchor="middle" x="301.5385" y="-102.3" font-family="Times,serif" font-size="14.00" fill="#000000">hunique</text>
</a>
</g>
</g>
<!-- unique_choice_unique_choice&#45;&gt;unique_choice_hunique -->
<g id="edge1" class="edge">
<title>unique_choice_unique_choice&#45;&gt;unique_choice_hunique</title>
<path fill="none" stroke="#000000" d="M324.5935,-160.2471C320.9263,-151.6185 316.8267,-141.9724 313.113,-133.2343"/>
<polygon fill="#000000" stroke="#000000" points="316.2604,-131.6914 309.1277,-123.8571 309.818,-134.4294 316.2604,-131.6914"/>
</g>
<!-- unique_choice_iota -->
<g id="node2" class="node">
<title>unique_choice_iota</title>
<g id="a_node2"><a xlink:href="unique_choice.html#iota" xlink:title="iota">
<ellipse fill="#facdef" stroke="#000000" cx="98.5385" cy="-186" rx="27" ry="18"/>
<ellipse fill="none" stroke="#000000" cx="98.5385" cy="-186" rx="31" ry="22"/>
<ellipse fill="none" stroke="#000000" cx="98.5385" cy="-186" rx="35" ry="26"/>
<text text-anchor="middle" x="98.5385" y="-182.3" font-family="Times,serif" font-size="14.00" fill="#000000">iota</text>
</a>
</g>
</g>
<!-- unique_choice_atmost -->
<g id="node3" class="node">
<title>unique_choice_atmost</title>
<g id="a_node3"><a xlink:href="unique_choice.html#atmost" xlink:title="atmost">
<ellipse fill="#facdef" stroke="#000000" cx="106.5385" cy="-106" rx="34.394" ry="18"/>
<text text-anchor="middle" x="106.5385" y="-102.3" font-family="Times,serif" font-size="14.00" fill="#000000">atmost</text>
</a>
</g>
</g>
<!-- unique_choice_iota&#45;&gt;unique_choice_atmost -->
<g id="edge2" class="edge">
<title>unique_choice_iota&#45;&gt;unique_choice_atmost</title>
<path fill="none" stroke="#000000" d="M101.158,-159.805C101.9782,-151.6026 102.8867,-142.5174 103.7201,-134.1839"/>
<polygon fill="#000000" stroke="#000000" points="107.2106,-134.4519 104.7231,-124.1532 100.2454,-133.7553 107.2106,-134.4519"/>
</g>
<!-- unique_choice_iota&#45;&gt;unique_choice_hunique -->
<g id="edge3" class="edge">
<title>unique_choice_iota&#45;&gt;unique_choice_hunique</title>
<path fill="none" stroke="#000000" d="M129.8123,-173.6753C165.3896,-159.6547 223.5452,-136.7363 262.1779,-121.5115"/>
<polygon fill="#000000" stroke="#000000" points="263.5332,-124.7395 271.5536,-117.8167 260.9667,-118.227 263.5332,-124.7395"/>
</g>
<!-- unique_choice_atmost1P -->
<g id="node5" class="node">
<title>unique_choice_atmost1P</title>
<g id="a_node5"><a xlink:href="unique_choice.html#atmost1P" xlink:title="atmost1P">
<ellipse fill="#f070d1" stroke="#000000" cx="301.5385" cy="-34" rx="44.393" ry="18"/>
<text text-anchor="middle" x="301.5385" y="-30.3" font-family="Times,serif" font-size="14.00" fill="#000000">atmost1P</text>
</a>
</g>
</g>
<!-- unique_choice_atmost&#45;&gt;unique_choice_atmost1P -->
<g id="edge4" class="edge">
<title>unique_choice_atmost&#45;&gt;unique_choice_atmost1P</title>
<path fill="none" stroke="#000000" d="M134.8931,-95.5306C167.4735,-83.5009 221.2766,-63.6352 258.9089,-49.7402"/>
<polygon fill="#000000" stroke="#000000" points="260.4148,-52.9151 268.5835,-46.168 257.9902,-46.3485 260.4148,-52.9151"/>
</g>
<!-- unique_choice_atmost1 -->
<g id="node6" class="node">
<title>unique_choice_atmost1</title>
<g id="a_node6"><a xlink:href="unique_choice.html#atmost1" xlink:title="atmost1">
<ellipse fill="#f070d1" stroke="#000000" cx="106.5385" cy="-34" rx="38.9931" ry="18"/>
<text text-anchor="middle" x="106.5385" y="-30.3" font-family="Times,serif" font-size="14.00" fill="#000000">atmost1</text>
</a>
</g>
</g>
<!-- unique_choice_atmost&#45;&gt;unique_choice_atmost1 -->
<g id="edge5" class="edge">
<title>unique_choice_atmost&#45;&gt;unique_choice_atmost1</title>
<path fill="none" stroke="#000000" d="M106.5385,-87.8314C106.5385,-80.131 106.5385,-70.9743 106.5385,-62.4166"/>
<polygon fill="#000000" stroke="#000000" points="110.0386,-62.4132 106.5385,-52.4133 103.0386,-62.4133 110.0386,-62.4132"/>
</g>
<!-- unique_choice_hunique&#45;&gt;unique_choice_atmost1P -->
<g id="edge6" class="edge">
<title>unique_choice_hunique&#45;&gt;unique_choice_atmost1P</title>
<path fill="none" stroke="#000000" d="M301.5385,-87.8314C301.5385,-80.131 301.5385,-70.9743 301.5385,-62.4166"/>
<polygon fill="#000000" stroke="#000000" points="305.0386,-62.4132 301.5385,-52.4133 298.0386,-62.4133 305.0386,-62.4132"/>
</g>
</g>
</svg>
