<?xml version="1.0" encoding="UTF-8" standalone="no"?>
<!DOCTYPE svg PUBLIC "-//W3C//DTD SVG 1.1//EN"
 "http://www.w3.org/Graphics/SVG/1.1/DTD/svg11.dtd">
<!-- Generated by graphviz version 2.39.20141222.0545 (20141222.0545)
 -->
<!-- Title: HoTT_categories_SemiSimplicialSets Pages: 1 -->
<svg width="720pt" height="364pt"
 viewBox="0.00 0.00 720.00 364.00" xmlns="http://www.w3.org/2000/svg" xmlns:xlink="http://www.w3.org/1999/xlink">
<g id="graph0" class="graph" transform="scale(1 1) rotate(0) translate(4 360)">
<title>HoTT_categories_SemiSimplicialSets</title>
<polygon fill="white" stroke="transparent" points="-4,4 -4,-360 716,-360 716,4 -4,4"/>
<g id="clust1" class="cluster"><title>cluster_SemiSimplicialSets</title>
<polygon fill="#ffffc3" stroke="black" points="8,-9.82069 8,-346.179 704,-346.179 704,-9.82069 8,-9.82069"/>
<text text-anchor="middle" x="70" y="-330.979" font-family="Times,serif" font-size="14.00">SemiSimplicialSets</text>
</g>
<g id="clust2" class="cluster"><title>cluster_SemiSimplicialSets_Core</title>
<polygon fill="#ffffa3" stroke="black" points="16,-19.6414 16,-308.124 696,-308.124 696,-19.6414 16,-19.6414"/>
<text text-anchor="middle" x="37.5" y="-292.924" font-family="Times,serif" font-size="14.00">Core</text>
</g>
<!-- SemiSimplicialSets_Core_semisimplicial_prop -->
<g id="node1" class="node"><title>SemiSimplicialSets_Core_semisimplicial_prop</title>
<g id="a_node1"><a xlink:href="SemiSimplicialSets.html#Core.semisimplicial_prop" xlink:title="semisimplicial_prop">
<ellipse fill="#f070d1" stroke="black" cx="597" cy="-237.821" rx="83.3687" ry="18"/>
<ellipse fill="none" stroke="black" cx="597" cy="-237.821" rx="87.3772" ry="22"/>
<ellipse fill="none" stroke="black" cx="597" cy="-237.821" rx="91.3856" ry="26"/>
<text text-anchor="middle" x="597" y="-234.121" font-family="Times,serif" font-size="14.00">semisimplicial_prop</text>
</a>
</g>
</g>
<!-- SemiSimplicialSets_Core_semisimplicial_category -->
<g id="node3" class="node"><title>SemiSimplicialSets_Core_semisimplicial_category</title>
<g id="a_node3"><a xlink:href="SemiSimplicialSets.html#Core.semisimplicial_category" xlink:title="semisimplicial_category">
<ellipse fill="#f070d1" stroke="black" cx="496" cy="-139.821" rx="97.4827" ry="18"/>
<text text-anchor="middle" x="496" y="-136.121" font-family="Times,serif" font-size="14.00">semisimplicial_category</text>
</a>
</g>
</g>
<!-- SemiSimplicialSets_Core_semisimplicial_prop&#45;&gt;SemiSimplicialSets_Core_semisimplicial_category -->
<g id="edge1" class="edge"><title>SemiSimplicialSets_Core_semisimplicial_prop&#45;&gt;SemiSimplicialSets_Core_semisimplicial_category</title>
<path fill="none" stroke="black" d="M571.252,-212.838C556.122,-198.157 537.054,-179.655 521.898,-164.95"/>
<polygon fill="black" stroke="black" points="523.985,-162.098 514.371,-157.646 519.11,-167.122 523.985,-162.098"/>
</g>
<!-- SemiSimplicialSets_Core_semisimplicial_set -->
<g id="node2" class="node"><title>SemiSimplicialSets_Core_semisimplicial_set</title>
<g id="a_node2"><a xlink:href="SemiSimplicialSets.html#Core.semisimplicial_set" xlink:title="semisimplicial_set">
<ellipse fill="#f070d1" stroke="black" cx="402" cy="-237.821" rx="77.2012" ry="18"/>
<ellipse fill="none" stroke="black" cx="402" cy="-237.821" rx="81.1939" ry="22"/>
<ellipse fill="none" stroke="black" cx="402" cy="-237.821" rx="85.1866" ry="26"/>
<text text-anchor="middle" x="402" y="-234.121" font-family="Times,serif" font-size="14.00">semisimplicial_set</text>
</a>
</g>
</g>
<!-- SemiSimplicialSets_Core_semisimplicial_set&#45;&gt;SemiSimplicialSets_Core_semisimplicial_category -->
<g id="edge2" class="edge"><title>SemiSimplicialSets_Core_semisimplicial_set&#45;&gt;SemiSimplicialSets_Core_semisimplicial_category</title>
<path fill="none" stroke="black" d="M425.963,-212.838C440.045,-198.157 457.791,-179.655 471.897,-164.95"/>
<polygon fill="black" stroke="black" points="474.506,-167.286 478.902,-157.646 469.454,-162.44 474.506,-167.286"/>
</g>
<!-- SemiSimplicialSets_Core_semisimplex_category -->
<g id="node5" class="node"><title>SemiSimplicialSets_Core_semisimplex_category</title>
<g id="a_node5"><a xlink:href="SemiSimplicialSets.html#Core.semisimplex_category" xlink:title="semisimplex_category">
<ellipse fill="#f070d1" stroke="black" cx="496" cy="-51.8207" rx="90.9839" ry="18"/>
<text text-anchor="middle" x="496" y="-48.1207" font-family="Times,serif" font-size="14.00">semisimplex_category</text>
</a>
</g>
</g>
<!-- SemiSimplicialSets_Core_semisimplicial_category&#45;&gt;SemiSimplicialSets_Core_semisimplex_category -->
<g id="edge3" class="edge"><title>SemiSimplicialSets_Core_semisimplicial_category&#45;&gt;SemiSimplicialSets_Core_semisimplex_category</title>
<path fill="none" stroke="black" d="M496,-121.587C496,-109.67 496,-93.8591 496,-80.3024"/>
<polygon fill="black" stroke="black" points="499.5,-80.031 496,-70.031 492.5,-80.031 499.5,-80.031"/>
</g>
<!-- SemiSimplicialSets_Core_semisimplicial_inclusion_functor -->
<g id="node4" class="node"><title>SemiSimplicialSets_Core_semisimplicial_inclusion_functor</title>
<g id="a_node4"><a xlink:href="SemiSimplicialSets.html#Core.semisimplicial_inclusion_functor" xlink:title="semisimplicial_inclusion_functor">
<ellipse fill="#f070d1" stroke="black" cx="161" cy="-237.821" rx="129.187" ry="18"/>
<ellipse fill="none" stroke="black" cx="161" cy="-237.821" rx="133.182" ry="22"/>
<ellipse fill="none" stroke="black" cx="161" cy="-237.821" rx="137.177" ry="26"/>
<text text-anchor="middle" x="161" y="-234.121" font-family="Times,serif" font-size="14.00">semisimplicial_inclusion_functor</text>
</a>
</g>
</g>
</g>
</svg>
