<?xml version="1.0" encoding="UTF-8" standalone="no"?>
<!DOCTYPE svg PUBLIC "-//W3C//DTD SVG 1.1//EN"
 "http://www.w3.org/Graphics/SVG/1.1/DTD/svg11.dtd">
<!-- Generated by graphviz version 2.39.20141222.0545 (20141222.0545)
 -->
<!-- Title: HoTT_categories_Grothendieck_ToSet Pages: 1 -->
<svg width="2154pt" height="1081pt"
 viewBox="0.00 0.00 2154.00 1081.00" xmlns="http://www.w3.org/2000/svg" xmlns:xlink="http://www.w3.org/1999/xlink">
<g id="graph0" class="graph" transform="scale(1 1) rotate(0) translate(4 1077)">
<title>HoTT_categories_Grothendieck_ToSet</title>
<polygon fill="white" stroke="transparent" points="-4,4 -4,-1077 2150,-1077 2150,4 -4,4"/>
<g id="clust1" class="cluster"><title>cluster_Univalent</title>
<polygon fill="#ffffc3" stroke="black" points="8,-671.177 8,-1055.34 321,-1055.34 321,-671.177 8,-671.177"/>
<text text-anchor="middle" x="43" y="-1040.14" font-family="Times,serif" font-size="14.00">Univalent</text>
</g>
<g id="clust2" class="cluster"><title>cluster_ToSet</title>
<polygon fill="#ffffc3" stroke="black" points="1303,-335.588 1303,-1055.34 2138,-1055.34 2138,-335.588 1303,-335.588"/>
<text text-anchor="middle" x="1327.5" y="-1040.14" font-family="Times,serif" font-size="14.00">ToSet</text>
</g>
<g id="clust3" class="cluster"><title>cluster_Morphisms</title>
<polygon fill="#ffffc3" stroke="black" points="329,-671.177 329,-836.763 641,-836.763 641,-671.177 329,-671.177"/>
<text text-anchor="middle" x="369" y="-821.563" font-family="Times,serif" font-size="14.00">Morphisms</text>
</g>
<g id="clust4" class="cluster"><title>cluster_Core</title>
<polygon fill="#ffffc3" stroke="black" points="649,-17.6626 649,-854.426 1295,-854.426 1295,-17.6626 649,-17.6626"/>
<text text-anchor="middle" x="670.5" y="-839.226" font-family="Times,serif" font-size="14.00">Core</text>
</g>
<!-- Univalent_preservation -->
<g id="node1" class="node"><title>Univalent_preservation</title>
<g id="a_node1"><a xlink:href="Univalent.html#preservation" xlink:title="preservation">
<ellipse fill="#f070d1" stroke="black" cx="78" cy="-929.663" rx="53.8975" ry="18"/>
<ellipse fill="none" stroke="black" cx="78" cy="-929.663" rx="57.894" ry="22"/>
<ellipse fill="none" stroke="black" cx="78" cy="-929.663" rx="61.8905" ry="26"/>
<text text-anchor="middle" x="78" y="-925.963" font-family="Times,serif" font-size="14.00">preservation</text>
</a>
</g>
</g>
<!-- Core_category -->
<g id="node23" class="node"><title>Core_category</title>
<g id="a_node23"><a xlink:href="Core.html#category" xlink:title="category">
<ellipse fill="#f070d1" stroke="black" cx="921" cy="-551.663" rx="40.8928" ry="18"/>
<text text-anchor="middle" x="921" y="-547.963" font-family="Times,serif" font-size="14.00">category</text>
</a>
</g>
</g>
<!-- Univalent_preservation&#45;&gt;Core_category -->
<g id="edge1" class="edge"><title>Univalent_preservation&#45;&gt;Core_category</title>
<path fill="none" stroke="black" d="M119.975,-910.388C167.032,-886.9 242.898,-843.13 290,-785.663 315.378,-754.7 294.638,-728.756 325,-702.663 408.464,-630.932 744.155,-576.788 871.594,-558.438"/>
<polygon fill="black" stroke="black" points="872.433,-561.854 881.838,-556.976 871.443,-554.924 872.433,-561.854"/>
</g>
<!-- Univalent_category_isotoid -->
<g id="node2" class="node"><title>Univalent_category_isotoid</title>
<g id="a_node2"><a xlink:href="Univalent.html#category_isotoid" xlink:title="category_isotoid">
<ellipse fill="#f070d1" stroke="black" cx="235" cy="-929.663" rx="69.5832" ry="18"/>
<ellipse fill="none" stroke="black" cx="235" cy="-929.663" rx="73.5854" ry="22"/>
<ellipse fill="none" stroke="black" cx="235" cy="-929.663" rx="77.5877" ry="26"/>
<text text-anchor="middle" x="235" y="-925.963" font-family="Times,serif" font-size="14.00">category_isotoid</text>
</a>
</g>
</g>
<!-- Univalent_category_isotoid_helper -->
<g id="node3" class="node"><title>Univalent_category_isotoid_helper</title>
<g id="a_node3"><a xlink:href="Univalent.html#category_isotoid_helper" xlink:title="category_isotoid_helper">
<ellipse fill="#f070d1" stroke="black" cx="185" cy="-728.663" rx="95.5831" ry="18"/>
<text text-anchor="middle" x="185" y="-724.963" font-family="Times,serif" font-size="14.00">category_isotoid_helper</text>
</a>
</g>
</g>
<!-- Univalent_category_isotoid&#45;&gt;Univalent_category_isotoid_helper -->
<g id="edge2" class="edge"><title>Univalent_category_isotoid&#45;&gt;Univalent_category_isotoid_helper</title>
<path fill="none" stroke="black" d="M228.463,-903.385C219.051,-865.548 201.75,-795.997 192.057,-757.03"/>
<polygon fill="black" stroke="black" points="195.348,-755.761 189.537,-746.902 188.555,-757.451 195.348,-755.761"/>
</g>
<!-- Morphisms_isequiv_sigma_category_isomorphism -->
<g id="node21" class="node"><title>Morphisms_isequiv_sigma_category_isomorphism</title>
<g id="a_node21"><a xlink:href="Morphisms.html#isequiv_sigma_category_isomorphism" xlink:title="isequiv_sigma_category_isomorphism">
<ellipse fill="#f070d1" stroke="black" cx="485" cy="-728.663" rx="147.574" ry="18"/>
<text text-anchor="middle" x="485" y="-724.963" font-family="Times,serif" font-size="14.00">isequiv_sigma_category_isomorphism</text>
</a>
</g>
</g>
<!-- Univalent_category_isotoid&#45;&gt;Morphisms_isequiv_sigma_category_isomorphism -->
<g id="edge3" class="edge"><title>Univalent_category_isotoid&#45;&gt;Morphisms_isequiv_sigma_category_isomorphism</title>
<path fill="none" stroke="black" d="M265.156,-905.417C313.28,-866.725 406.903,-791.453 454.956,-752.818"/>
<polygon fill="black" stroke="black" points="457.221,-755.488 462.821,-746.494 452.834,-750.033 457.221,-755.488"/>
</g>
<!-- Core_issig_pair -->
<g id="node31" class="node"><title>Core_issig_pair</title>
<g id="a_node31"><a xlink:href="Core.html#issig_pair" xlink:title="issig_pair">
<ellipse fill="#f070d1" stroke="black" cx="704" cy="-551.663" rx="44.6926" ry="18"/>
<text text-anchor="middle" x="704" y="-547.963" font-family="Times,serif" font-size="14.00">issig_pair</text>
</a>
</g>
</g>
<!-- Univalent_category_isotoid&#45;&gt;Core_issig_pair -->
<g id="edge4" class="edge"><title>Univalent_category_isotoid&#45;&gt;Core_issig_pair</title>
<path fill="none" stroke="black" d="M311.005,-924.182C403.399,-913.364 557.756,-881.208 645,-785.663 672.544,-755.497 692.359,-635.516 700.238,-580.051"/>
<polygon fill="black" stroke="black" points="703.744,-580.25 701.654,-569.864 696.811,-579.287 703.744,-580.25"/>
</g>
<!-- ToSet_pr1 -->
<g id="node4" class="node"><title>ToSet_pr1</title>
<g id="a_node4"><a xlink:href="ToSet.html#pr1" xlink:title="pr1">
<ellipse fill="#f070d1" stroke="black" cx="2095" cy="-929.663" rx="27" ry="18"/>
<ellipse fill="none" stroke="black" cx="2095" cy="-929.663" rx="31" ry="22"/>
<ellipse fill="none" stroke="black" cx="2095" cy="-929.663" rx="35" ry="26"/>
<text text-anchor="middle" x="2095" y="-925.963" font-family="Times,serif" font-size="14.00">pr1</text>
</a>
</g>
</g>
<!-- ToSet_category -->
<g id="node5" class="node"><title>ToSet_category</title>
<g id="a_node5"><a xlink:href="ToSet.html#category" xlink:title="category">
<ellipse fill="#f070d1" stroke="black" cx="1874" cy="-728.663" rx="40.8928" ry="18"/>
<text text-anchor="middle" x="1874" y="-724.963" font-family="Times,serif" font-size="14.00">category</text>
</a>
</g>
</g>
<!-- ToSet_pr1&#45;&gt;ToSet_category -->
<g id="edge5" class="edge"><title>ToSet_pr1&#45;&gt;ToSet_category</title>
<path fill="none" stroke="black" d="M2072.59,-909.283C2031.27,-871.701 1943.31,-791.698 1899.66,-752.003"/>
<polygon fill="black" stroke="black" points="1901.8,-749.218 1892.05,-745.079 1897.09,-754.397 1901.8,-749.218"/>
</g>
<!-- ToSet_category_subproof1 -->
<g id="node6" class="node"><title>ToSet_category_subproof1</title>
<g id="a_node6"><a xlink:href="ToSet.html#category_subproof1" xlink:title="category_subproof1">
<ellipse fill="#f070d1" stroke="black" cx="1392" cy="-551.663" rx="81.4863" ry="18"/>
<text text-anchor="middle" x="1392" y="-547.963" font-family="Times,serif" font-size="14.00">category_subproof1</text>
</a>
</g>
</g>
<!-- ToSet_category&#45;&gt;ToSet_category_subproof1 -->
<g id="edge6" class="edge"><title>ToSet_category&#45;&gt;ToSet_category_subproof1</title>
<path fill="none" stroke="black" d="M1844.48,-715.916C1834.24,-711.593 1822.66,-706.811 1812,-702.663 1681.81,-652.001 1526.69,-597.805 1446.32,-570.179"/>
<polygon fill="black" stroke="black" points="1447.02,-566.719 1436.42,-566.783 1444.74,-573.34 1447.02,-566.719"/>
</g>
<!-- ToSet_category_subproof0 -->
<g id="node7" class="node"><title>ToSet_category_subproof0</title>
<g id="a_node7"><a xlink:href="ToSet.html#category_subproof0" xlink:title="category_subproof0">
<ellipse fill="#f070d1" stroke="black" cx="1572" cy="-551.663" rx="81.4863" ry="18"/>
<text text-anchor="middle" x="1572" y="-547.963" font-family="Times,serif" font-size="14.00">category_subproof0</text>
</a>
</g>
</g>
<!-- ToSet_category&#45;&gt;ToSet_category_subproof0 -->
<g id="edge7" class="edge"><title>ToSet_category&#45;&gt;ToSet_category_subproof0</title>
<path fill="none" stroke="black" d="M1849.29,-714.178C1796.52,-683.251 1672.55,-610.592 1609.8,-573.817"/>
<polygon fill="black" stroke="black" points="1611.4,-570.697 1601,-568.66 1607.86,-576.737 1611.4,-570.697"/>
</g>
<!-- ToSet_category_subproof -->
<g id="node8" class="node"><title>ToSet_category_subproof</title>
<g id="a_node8"><a xlink:href="ToSet.html#category_subproof" xlink:title="category_subproof">
<ellipse fill="#f070d1" stroke="black" cx="1748" cy="-551.663" rx="76.8869" ry="18"/>
<text text-anchor="middle" x="1748" y="-547.963" font-family="Times,serif" font-size="14.00">category_subproof</text>
</a>
</g>
</g>
<!-- ToSet_category&#45;&gt;ToSet_category_subproof -->
<g id="edge8" class="edge"><title>ToSet_category&#45;&gt;ToSet_category_subproof</title>
<path fill="none" stroke="black" d="M1861.69,-711.369C1839.5,-680.203 1792.7,-614.452 1766.59,-577.779"/>
<polygon fill="black" stroke="black" points="1769.39,-575.669 1760.74,-569.553 1763.68,-579.729 1769.39,-575.669"/>
</g>
<!-- ToSet_identity -->
<g id="node9" class="node"><title>ToSet_identity</title>
<g id="a_node9"><a xlink:href="ToSet.html#identity" xlink:title="identity">
<ellipse fill="#f070d1" stroke="black" cx="1880" cy="-551.663" rx="37.8943" ry="18"/>
<text text-anchor="middle" x="1880" y="-547.963" font-family="Times,serif" font-size="14.00">identity</text>
</a>
</g>
</g>
<!-- ToSet_category&#45;&gt;ToSet_identity -->
<g id="edge9" class="edge"><title>ToSet_category&#45;&gt;ToSet_identity</title>
<path fill="none" stroke="black" d="M1874.62,-710.387C1875.67,-679.437 1877.8,-616.505 1879.04,-579.865"/>
<polygon fill="black" stroke="black" points="1882.54,-579.951 1879.38,-569.839 1875.55,-579.714 1882.54,-579.951"/>
</g>
<!-- ToSet_compose -->
<g id="node11" class="node"><title>ToSet_compose</title>
<g id="a_node11"><a xlink:href="ToSet.html#compose" xlink:title="compose">
<ellipse fill="#f070d1" stroke="black" cx="1988" cy="-551.663" rx="42.4939" ry="18"/>
<text text-anchor="middle" x="1988" y="-547.963" font-family="Times,serif" font-size="14.00">compose</text>
</a>
</g>
</g>
<!-- ToSet_category&#45;&gt;ToSet_compose -->
<g id="edge10" class="edge"><title>ToSet_category&#45;&gt;ToSet_compose</title>
<path fill="none" stroke="black" d="M1885.35,-711.044C1905.49,-679.767 1947.59,-614.404 1971.14,-577.846"/>
<polygon fill="black" stroke="black" points="1974.23,-579.512 1976.7,-569.21 1968.34,-575.722 1974.23,-579.512"/>
</g>
<!-- Core_category_subproof1 -->
<g id="node24" class="node"><title>Core_category_subproof1</title>
<g id="a_node24"><a xlink:href="Core.html#category_subproof1" xlink:title="category_subproof1">
<ellipse fill="#facdef" stroke="black" cx="854" cy="-392.663" rx="81.4863" ry="18"/>
<text text-anchor="middle" x="854" y="-388.963" font-family="Times,serif" font-size="14.00">category_subproof1</text>
</a>
</g>
</g>
<!-- ToSet_category_subproof1&#45;&gt;Core_category_subproof1 -->
<g id="edge11" class="edge"><title>ToSet_category_subproof1&#45;&gt;Core_category_subproof1</title>
<path fill="none" stroke="black" d="M1342.83,-537.131C1243.47,-507.766 1019.18,-441.48 912.501,-409.952"/>
<polygon fill="black" stroke="black" points="913.443,-406.581 902.861,-407.103 911.459,-413.294 913.443,-406.581"/>
</g>
<!-- Core_category_subproof0 -->
<g id="node25" class="node"><title>Core_category_subproof0</title>
<g id="a_node25"><a xlink:href="Core.html#category_subproof0" xlink:title="category_subproof0">
<ellipse fill="#facdef" stroke="black" cx="1034" cy="-392.663" rx="81.4863" ry="18"/>
<text text-anchor="middle" x="1034" y="-388.963" font-family="Times,serif" font-size="14.00">category_subproof0</text>
</a>
</g>
</g>
<!-- ToSet_category_subproof0&#45;&gt;Core_category_subproof0 -->
<g id="edge12" class="edge"><title>ToSet_category_subproof0&#45;&gt;Core_category_subproof0</title>
<path fill="none" stroke="black" d="M1522.83,-537.131C1423.47,-507.766 1199.18,-441.48 1092.5,-409.952"/>
<polygon fill="black" stroke="black" points="1093.44,-406.581 1082.86,-407.103 1091.46,-413.294 1093.44,-406.581"/>
</g>
<!-- Core_category_subproof -->
<g id="node26" class="node"><title>Core_category_subproof</title>
<g id="a_node26"><a xlink:href="Core.html#category_subproof" xlink:title="category_subproof">
<ellipse fill="#facdef" stroke="black" cx="1210" cy="-392.663" rx="76.8869" ry="18"/>
<text text-anchor="middle" x="1210" y="-388.963" font-family="Times,serif" font-size="14.00">category_subproof</text>
</a>
</g>
</g>
<!-- ToSet_category_subproof&#45;&gt;Core_category_subproof -->
<g id="edge13" class="edge"><title>ToSet_category_subproof&#45;&gt;Core_category_subproof</title>
<path fill="none" stroke="black" d="M1700.26,-537.552C1601.38,-508.33 1374.53,-441.286 1267.67,-409.707"/>
<polygon fill="black" stroke="black" points="1268.6,-406.333 1258.02,-406.855 1266.62,-413.046 1268.6,-406.333"/>
</g>
<!-- ToSet_identity_H -->
<g id="node10" class="node"><title>ToSet_identity_H</title>
<g id="a_node10"><a xlink:href="ToSet.html#identity_H" xlink:title="identity_H">
<ellipse fill="#f070d1" stroke="black" cx="1874" cy="-392.663" rx="48.1917" ry="18"/>
<text text-anchor="middle" x="1874" y="-388.963" font-family="Times,serif" font-size="14.00">identity_H</text>
</a>
</g>
</g>
<!-- ToSet_identity&#45;&gt;ToSet_identity_H -->
<g id="edge14" class="edge"><title>ToSet_identity&#45;&gt;ToSet_identity_H</title>
<path fill="none" stroke="black" d="M1879.31,-533.423C1878.27,-505.868 1876.29,-453.398 1875.07,-420.885"/>
<polygon fill="black" stroke="black" points="1878.55,-420.55 1874.68,-410.689 1871.56,-420.814 1878.55,-420.55"/>
</g>
<!-- ToSet_compose_H -->
<g id="node12" class="node"><title>ToSet_compose_H</title>
<g id="a_node12"><a xlink:href="ToSet.html#compose_H" xlink:title="compose_H">
<ellipse fill="#f070d1" stroke="black" cx="1993" cy="-392.663" rx="53.0913" ry="18"/>
<text text-anchor="middle" x="1993" y="-388.963" font-family="Times,serif" font-size="14.00">compose_H</text>
</a>
</g>
</g>
<!-- ToSet_compose&#45;&gt;ToSet_compose_H -->
<g id="edge15" class="edge"><title>ToSet_compose&#45;&gt;ToSet_compose_H</title>
<path fill="none" stroke="black" d="M1988.57,-533.423C1989.44,-505.868 1991.09,-453.398 1992.11,-420.885"/>
<polygon fill="black" stroke="black" points="1995.62,-420.794 1992.43,-410.689 1988.62,-420.574 1995.62,-420.794"/>
</g>
<!-- ToSet_issig_pair -->
<g id="node13" class="node"><title>ToSet_issig_pair</title>
<g id="a_node13"><a xlink:href="ToSet.html#issig_pair" xlink:title="issig_pair">
<ellipse fill="#f070d1" stroke="black" cx="1989" cy="-929.663" rx="44.7157" ry="18"/>
<ellipse fill="none" stroke="black" cx="1989" cy="-929.663" rx="48.7041" ry="22"/>
<ellipse fill="none" stroke="black" cx="1989" cy="-929.663" rx="52.6925" ry="26"/>
<text text-anchor="middle" x="1989" y="-925.963" font-family="Times,serif" font-size="14.00">issig_pair</text>
</a>
</g>
</g>
<!-- ToSet_Pair_rec -->
<g id="node14" class="node"><title>ToSet_Pair_rec</title>
<g id="a_node14"><a xlink:href="ToSet.html#Pair_rec" xlink:title="Pair_rec">
<ellipse fill="#f070d1" stroke="black" cx="1870" cy="-929.663" rx="40.1273" ry="18"/>
<ellipse fill="none" stroke="black" cx="1870" cy="-929.663" rx="44.1105" ry="22"/>
<ellipse fill="none" stroke="black" cx="1870" cy="-929.663" rx="48.0937" ry="26"/>
<text text-anchor="middle" x="1870" y="-925.963" font-family="Times,serif" font-size="14.00">Pair_rec</text>
</a>
</g>
</g>
<!-- ToSet_Pair_rect -->
<g id="node16" class="node"><title>ToSet_Pair_rect</title>
<g id="a_node16"><a xlink:href="ToSet.html#Pair_rect" xlink:title="Pair_rect">
<ellipse fill="#f070d1" stroke="black" cx="1761" cy="-728.663" rx="42.4939" ry="18"/>
<text text-anchor="middle" x="1761" y="-724.963" font-family="Times,serif" font-size="14.00">Pair_rect</text>
</a>
</g>
</g>
<!-- ToSet_Pair_rec&#45;&gt;ToSet_Pair_rect -->
<g id="edge16" class="edge"><title>ToSet_Pair_rec&#45;&gt;ToSet_Pair_rect</title>
<path fill="none" stroke="black" d="M1856.42,-904.612C1835.79,-866.582 1796.75,-794.583 1775.56,-755.512"/>
<polygon fill="black" stroke="black" points="1778.42,-753.451 1770.58,-746.329 1772.27,-756.788 1778.42,-753.451"/>
</g>
<!-- ToSet_Pair_ind -->
<g id="node15" class="node"><title>ToSet_Pair_ind</title>
<g id="a_node15"><a xlink:href="ToSet.html#Pair_ind" xlink:title="Pair_ind">
<ellipse fill="#7fffd4" stroke="black" cx="1755" cy="-929.663" rx="40.1273" ry="18"/>
<ellipse fill="none" stroke="black" cx="1755" cy="-929.663" rx="44.1105" ry="22"/>
<ellipse fill="none" stroke="black" cx="1755" cy="-929.663" rx="48.0937" ry="26"/>
<text text-anchor="middle" x="1755" y="-925.963" font-family="Times,serif" font-size="14.00">Pair_ind</text>
</a>
</g>
</g>
<!-- ToSet_Pair_ind&#45;&gt;ToSet_Pair_rect -->
<g id="edge17" class="edge"><title>ToSet_Pair_ind&#45;&gt;ToSet_Pair_rect</title>
<path fill="none" stroke="black" d="M1755.78,-903.385C1756.91,-865.548 1758.99,-795.997 1760.15,-757.03"/>
<polygon fill="black" stroke="black" points="1763.66,-757.002 1760.46,-746.902 1756.66,-756.793 1763.66,-757.002"/>
</g>
<!-- ToSet_x -->
<g id="node17" class="node"><title>ToSet_x</title>
<g id="a_node17"><a xlink:href="ToSet.html#x" xlink:title="x">
<ellipse fill="#f070d1" stroke="black" cx="1654" cy="-929.663" rx="27" ry="18"/>
<ellipse fill="none" stroke="black" cx="1654" cy="-929.663" rx="31" ry="22"/>
<ellipse fill="none" stroke="black" cx="1654" cy="-929.663" rx="35" ry="26"/>
<text text-anchor="middle" x="1654" y="-925.963" font-family="Times,serif" font-size="14.00">x</text>
</a>
</g>
</g>
<!-- ToSet_c -->
<g id="node18" class="node"><title>ToSet_c</title>
<g id="a_node18"><a xlink:href="ToSet.html#c" xlink:title="c">
<ellipse fill="#f070d1" stroke="black" cx="1566" cy="-929.663" rx="27" ry="18"/>
<ellipse fill="none" stroke="black" cx="1566" cy="-929.663" rx="31" ry="22"/>
<ellipse fill="none" stroke="black" cx="1566" cy="-929.663" rx="35" ry="26"/>
<text text-anchor="middle" x="1566" y="-925.963" font-family="Times,serif" font-size="14.00">c</text>
</a>
</g>
</g>
<!-- ToSet_Build_Pair -->
<g id="node19" class="node"><title>ToSet_Build_Pair</title>
<g id="a_node19"><a xlink:href="ToSet.html#Build_Pair" xlink:title="Build_Pair">
<ellipse fill="#7faaff" stroke="black" cx="1456" cy="-929.663" rx="48.9576" ry="18"/>
<ellipse fill="none" stroke="black" cx="1456" cy="-929.663" rx="52.975" ry="22"/>
<ellipse fill="none" stroke="black" cx="1456" cy="-929.663" rx="56.9924" ry="26"/>
<text text-anchor="middle" x="1456" y="-925.963" font-family="Times,serif" font-size="14.00">Build_Pair</text>
</a>
</g>
</g>
<!-- ToSet_Pair -->
<g id="node20" class="node"><title>ToSet_Pair</title>
<g id="a_node20"><a xlink:href="ToSet.html#Pair" xlink:title="Pair">
<ellipse fill="#e2cdfa" stroke="black" cx="1346" cy="-929.663" rx="27" ry="18"/>
<ellipse fill="none" stroke="black" cx="1346" cy="-929.663" rx="31" ry="22"/>
<ellipse fill="none" stroke="black" cx="1346" cy="-929.663" rx="35" ry="26"/>
<text text-anchor="middle" x="1346" y="-925.963" font-family="Times,serif" font-size="14.00">Pair</text>
</a>
</g>
</g>
<!-- Morphisms_isequiv_sigma_category_isomorphism&#45;&gt;Core_category -->
<g id="edge18" class="edge"><title>Morphisms_isequiv_sigma_category_isomorphism&#45;&gt;Core_category</title>
<path fill="none" stroke="black" d="M527.599,-711.369C612.02,-677.097 799.462,-601.002 881.387,-567.744"/>
<polygon fill="black" stroke="black" points="882.892,-570.91 890.841,-563.906 880.259,-564.425 882.892,-570.91"/>
</g>
<!-- Core_pr1 -->
<g id="node22" class="node"><title>Core_pr1</title>
<g id="a_node22"><a xlink:href="Core.html#pr1" xlink:title="pr1">
<ellipse fill="#f070d1" stroke="black" cx="988" cy="-728.663" rx="27" ry="18"/>
<ellipse fill="none" stroke="black" cx="988" cy="-728.663" rx="31" ry="22"/>
<ellipse fill="none" stroke="black" cx="988" cy="-728.663" rx="35" ry="26"/>
<text text-anchor="middle" x="988" y="-724.963" font-family="Times,serif" font-size="14.00">pr1</text>
</a>
</g>
</g>
<!-- Core_pr1&#45;&gt;Core_category -->
<g id="edge19" class="edge"><title>Core_pr1&#45;&gt;Core_category</title>
<path fill="none" stroke="black" d="M978.401,-703.303C965.94,-670.384 944.273,-613.146 931.422,-579.196"/>
<polygon fill="black" stroke="black" points="934.55,-577.573 927.737,-569.46 928.004,-580.051 934.55,-577.573"/>
</g>
<!-- Core_category&#45;&gt;Core_category_subproof1 -->
<g id="edge20" class="edge"><title>Core_category&#45;&gt;Core_category_subproof1</title>
<path fill="none" stroke="black" d="M913.444,-533.732C901.783,-506.058 879.314,-452.736 865.588,-420.163"/>
<polygon fill="black" stroke="black" points="868.739,-418.627 861.631,-410.771 862.289,-421.346 868.739,-418.627"/>
</g>
<!-- Core_category&#45;&gt;Core_category_subproof0 -->
<g id="edge21" class="edge"><title>Core_category&#45;&gt;Core_category_subproof0</title>
<path fill="none" stroke="black" d="M933.308,-534.344C953.157,-506.416 992.35,-451.268 1015.55,-418.622"/>
<polygon fill="black" stroke="black" points="1018.42,-420.624 1021.36,-410.445 1012.72,-416.569 1018.42,-420.624"/>
</g>
<!-- Core_category&#45;&gt;Core_category_subproof -->
<g id="edge22" class="edge"><title>Core_category&#45;&gt;Core_category_subproof</title>
<path fill="none" stroke="black" d="M946.647,-537.552C997.366,-509.648 1110.77,-447.258 1170.87,-414.19"/>
<polygon fill="black" stroke="black" points="1172.62,-417.225 1179.69,-409.338 1169.24,-411.092 1172.62,-417.225"/>
</g>
<!-- Core_identity -->
<g id="node27" class="node"><title>Core_identity</title>
<g id="a_node27"><a xlink:href="Core.html#identity" xlink:title="identity">
<ellipse fill="#f070d1" stroke="black" cx="885" cy="-233.663" rx="37.8943" ry="18"/>
<text text-anchor="middle" x="885" y="-229.963" font-family="Times,serif" font-size="14.00">identity</text>
</a>
</g>
</g>
<!-- Core_category_subproof1&#45;&gt;Core_identity -->
<g id="edge23" class="edge"><title>Core_category_subproof1&#45;&gt;Core_identity</title>
<path fill="none" stroke="black" d="M857.556,-374.423C862.929,-346.868 873.159,-294.398 879.497,-261.885"/>
<polygon fill="black" stroke="black" points="883.007,-262.174 881.485,-251.689 876.136,-260.835 883.007,-262.174"/>
</g>
<!-- Core_compose -->
<g id="node29" class="node"><title>Core_compose</title>
<g id="a_node29"><a xlink:href="Core.html#compose" xlink:title="compose">
<ellipse fill="#f070d1" stroke="black" cx="1034" cy="-233.663" rx="42.4939" ry="18"/>
<text text-anchor="middle" x="1034" y="-229.963" font-family="Times,serif" font-size="14.00">compose</text>
</a>
</g>
</g>
<!-- Core_category_subproof1&#45;&gt;Core_compose -->
<g id="edge24" class="edge"><title>Core_category_subproof1&#45;&gt;Core_compose</title>
<path fill="none" stroke="black" d="M873.951,-375.039C906.628,-346.174 971.549,-288.828 1007.86,-256.752"/>
<polygon fill="black" stroke="black" points="1010.41,-259.175 1015.58,-249.931 1005.77,-253.928 1010.41,-259.175"/>
</g>
<!-- Core_category_subproof0&#45;&gt;Core_identity -->
<g id="edge25" class="edge"><title>Core_category_subproof0&#45;&gt;Core_identity</title>
<path fill="none" stroke="black" d="M1017.2,-374.732C990.396,-346.132 937.923,-290.138 907.772,-257.963"/>
<polygon fill="black" stroke="black" points="910.009,-255.231 900.617,-250.328 904.901,-260.018 910.009,-255.231"/>
</g>
<!-- Core_category_subproof0&#45;&gt;Core_compose -->
<g id="edge26" class="edge"><title>Core_category_subproof0&#45;&gt;Core_compose</title>
<path fill="none" stroke="black" d="M1034,-374.423C1034,-346.868 1034,-294.398 1034,-261.885"/>
<polygon fill="black" stroke="black" points="1037.5,-261.689 1034,-251.689 1030.5,-261.689 1037.5,-261.689"/>
</g>
<!-- Core_category_subproof&#45;&gt;Core_compose -->
<g id="edge27" class="edge"><title>Core_category_subproof&#45;&gt;Core_compose</title>
<path fill="none" stroke="black" d="M1190.49,-375.039C1158.62,-346.249 1095.39,-289.126 1059.84,-257.003"/>
<polygon fill="black" stroke="black" points="1062.04,-254.273 1052.27,-250.167 1057.34,-259.467 1062.04,-254.273"/>
</g>
<!-- Core_identity_H -->
<g id="node28" class="node"><title>Core_identity_H</title>
<g id="a_node28"><a xlink:href="Core.html#identity_H" xlink:title="identity_H">
<ellipse fill="#f070d1" stroke="black" cx="885" cy="-74.6626" rx="48.1917" ry="18"/>
<text text-anchor="middle" x="885" y="-70.9626" font-family="Times,serif" font-size="14.00">identity_H</text>
</a>
</g>
</g>
<!-- Core_identity&#45;&gt;Core_identity_H -->
<g id="edge28" class="edge"><title>Core_identity&#45;&gt;Core_identity_H</title>
<path fill="none" stroke="black" d="M885,-215.423C885,-187.868 885,-135.398 885,-102.885"/>
<polygon fill="black" stroke="black" points="888.5,-102.689 885,-92.6892 881.5,-102.689 888.5,-102.689"/>
</g>
<!-- Core_compose_H -->
<g id="node30" class="node"><title>Core_compose_H</title>
<g id="a_node30"><a xlink:href="Core.html#compose_H" xlink:title="compose_H">
<ellipse fill="#f070d1" stroke="black" cx="1034" cy="-74.6626" rx="53.0913" ry="18"/>
<text text-anchor="middle" x="1034" y="-70.9626" font-family="Times,serif" font-size="14.00">compose_H</text>
</a>
</g>
</g>
<!-- Core_compose&#45;&gt;Core_compose_H -->
<g id="edge29" class="edge"><title>Core_compose&#45;&gt;Core_compose_H</title>
<path fill="none" stroke="black" d="M1034,-215.423C1034,-187.868 1034,-135.398 1034,-102.885"/>
<polygon fill="black" stroke="black" points="1037.5,-102.689 1034,-92.6892 1030.5,-102.689 1037.5,-102.689"/>
</g>
<!-- Core_Build_Pair -->
<g id="node37" class="node"><title>Core_Build_Pair</title>
<g id="a_node37"><a xlink:href="Core.html#Build_Pair" xlink:title="Build_Pair">
<ellipse fill="#7faaff" stroke="black" cx="706" cy="-392.663" rx="48.9926" ry="18"/>
<text text-anchor="middle" x="706" y="-388.963" font-family="Times,serif" font-size="14.00">Build_Pair</text>
</a>
</g>
</g>
<!-- Core_issig_pair&#45;&gt;Core_Build_Pair -->
<g id="edge30" class="edge"><title>Core_issig_pair&#45;&gt;Core_Build_Pair</title>
<path fill="none" stroke="black" d="M704.229,-533.423C704.576,-505.868 705.236,-453.398 705.645,-420.885"/>
<polygon fill="black" stroke="black" points="709.147,-420.732 705.773,-410.689 702.148,-420.644 709.147,-420.732"/>
</g>
<!-- Core_Pair_rec -->
<g id="node32" class="node"><title>Core_Pair_rec</title>
<g id="a_node32"><a xlink:href="Core.html#Pair_rec" xlink:title="Pair_rec">
<ellipse fill="#f070d1" stroke="black" cx="1089" cy="-728.663" rx="40.1273" ry="18"/>
<ellipse fill="none" stroke="black" cx="1089" cy="-728.663" rx="44.1105" ry="22"/>
<ellipse fill="none" stroke="black" cx="1089" cy="-728.663" rx="48.0937" ry="26"/>
<text text-anchor="middle" x="1089" y="-724.963" font-family="Times,serif" font-size="14.00">Pair_rec</text>
</a>
</g>
</g>
<!-- Core_Pair_rect -->
<g id="node34" class="node"><title>Core_Pair_rect</title>
<g id="a_node34"><a xlink:href="Core.html#Pair_rect" xlink:title="Pair_rect">
<ellipse fill="#f070d1" stroke="black" cx="1089" cy="-551.663" rx="42.4939" ry="18"/>
<text text-anchor="middle" x="1089" y="-547.963" font-family="Times,serif" font-size="14.00">Pair_rect</text>
</a>
</g>
</g>
<!-- Core_Pair_rec&#45;&gt;Core_Pair_rect -->
<g id="edge31" class="edge"><title>Core_Pair_rec&#45;&gt;Core_Pair_rect</title>
<path fill="none" stroke="black" d="M1089,-702.546C1089,-669.746 1089,-613.685 1089,-579.913"/>
<polygon fill="black" stroke="black" points="1092.5,-579.788 1089,-569.788 1085.5,-579.788 1092.5,-579.788"/>
</g>
<!-- Core_Pair_ind -->
<g id="node33" class="node"><title>Core_Pair_ind</title>
<g id="a_node33"><a xlink:href="Core.html#Pair_ind" xlink:title="Pair_ind">
<ellipse fill="#7fffd4" stroke="black" cx="1204" cy="-728.663" rx="40.1273" ry="18"/>
<ellipse fill="none" stroke="black" cx="1204" cy="-728.663" rx="44.1105" ry="22"/>
<ellipse fill="none" stroke="black" cx="1204" cy="-728.663" rx="48.0937" ry="26"/>
<text text-anchor="middle" x="1204" y="-724.963" font-family="Times,serif" font-size="14.00">Pair_ind</text>
</a>
</g>
</g>
<!-- Core_Pair_ind&#45;&gt;Core_Pair_rect -->
<g id="edge32" class="edge"><title>Core_Pair_ind&#45;&gt;Core_Pair_rect</title>
<path fill="none" stroke="black" d="M1188.01,-704.051C1166.37,-670.742 1127.93,-611.577 1105.85,-577.598"/>
<polygon fill="black" stroke="black" points="1108.73,-575.607 1100.35,-569.129 1102.86,-579.421 1108.73,-575.607"/>
</g>
<!-- Core_Pair_rect&#45;&gt;Core_Build_Pair -->
<g id="edge33" class="edge"><title>Core_Pair_rect&#45;&gt;Core_Build_Pair</title>
<path fill="none" stroke="black" d="M1058.63,-539.053C990.588,-510.807 825.83,-442.409 748.023,-410.108"/>
<polygon fill="black" stroke="black" points="749.109,-406.769 738.531,-406.168 746.425,-413.234 749.109,-406.769"/>
</g>
<!-- Core_x -->
<g id="node35" class="node"><title>Core_x</title>
<g id="a_node35"><a xlink:href="Core.html#x" xlink:title="x">
<ellipse fill="#f070d1" stroke="black" cx="900" cy="-728.663" rx="27" ry="18"/>
<ellipse fill="none" stroke="black" cx="900" cy="-728.663" rx="31" ry="22"/>
<ellipse fill="none" stroke="black" cx="900" cy="-728.663" rx="35" ry="26"/>
<text text-anchor="middle" x="900" y="-724.963" font-family="Times,serif" font-size="14.00">x</text>
</a>
</g>
</g>
<!-- Core_c -->
<g id="node36" class="node"><title>Core_c</title>
<g id="a_node36"><a xlink:href="Core.html#c" xlink:title="c">
<ellipse fill="#f070d1" stroke="black" cx="812" cy="-728.663" rx="27" ry="18"/>
<ellipse fill="none" stroke="black" cx="812" cy="-728.663" rx="31" ry="22"/>
<ellipse fill="none" stroke="black" cx="812" cy="-728.663" rx="35" ry="26"/>
<text text-anchor="middle" x="812" y="-724.963" font-family="Times,serif" font-size="14.00">c</text>
</a>
</g>
</g>
<!-- Core_Pair -->
<g id="node38" class="node"><title>Core_Pair</title>
<g id="a_node38"><a xlink:href="Core.html#Pair" xlink:title="Pair">
<ellipse fill="#e2cdfa" stroke="black" cx="724" cy="-728.663" rx="27" ry="18"/>
<ellipse fill="none" stroke="black" cx="724" cy="-728.663" rx="31" ry="22"/>
<ellipse fill="none" stroke="black" cx="724" cy="-728.663" rx="35" ry="26"/>
<text text-anchor="middle" x="724" y="-724.963" font-family="Times,serif" font-size="14.00">Pair</text>
</a>
</g>
</g>
</g>
</svg>
