<?xml version="1.0" encoding="UTF-8" standalone="no"?>
<!DOCTYPE svg PUBLIC "-//W3C//DTD SVG 1.1//EN"
 "http://www.w3.org/Graphics/SVG/1.1/DTD/svg11.dtd">
<!-- Generated by graphviz version 2.26.3 (20100126.1600)
 -->
<!-- Title: HoTT_categories_HomotopyPreCategory Pages: 1 -->
<svg width="408pt" height="208pt"
 viewBox="0.00 0.00 408.00 208.00" xmlns="http://www.w3.org/2000/svg" xmlns:xlink="http://www.w3.org/1999/xlink">
<g id="graph1" class="graph" transform="scale(1 1) rotate(0) translate(4 204)">
<title>HoTT_categories_HomotopyPreCategory</title>
<polygon fill="white" stroke="white" points="-4,5 -4,-204 405,-204 405,5 -4,5"/>
<g id="graph2" class="cluster"><title>cluster_HomotopyPreCategory</title>
<polygon fill="#ffffc3" stroke="black" points="10.8108,-8 10.8108,-192 389.189,-192 389.189,-8 10.8108,-8"/>
<text text-anchor="middle" x="97.3108" y="-175.4" font-family="Times Roman,serif" font-size="14.00">HomotopyPreCategory</text>
</g>
<g id="graph3" class="cluster"><title>cluster_HomotopyPreCategory_HomotopyPreCategoryInternals</title>
<polygon fill="#ffffa3" stroke="black" points="39.1892,-16 39.1892,-96 360.811,-96 360.811,-16 39.1892,-16"/>
<text text-anchor="middle" x="156.689" y="-79.4" font-family="Times Roman,serif" font-size="14.00">HomotopyPreCategoryInternals</text>
</g>
<!-- HomotopyPreCategory_HomotopyPreCategoryInternals_identity -->
<g id="node1" class="node"><title>HomotopyPreCategory_HomotopyPreCategoryInternals_identity</title>
<a xlink:href="HomotopyPreCategory.html#HomotopyPreCategoryInternals.identity" xlink:title="identity">
<ellipse fill="#f070d1" stroke="black" cx="283.649" cy="-43" rx="48.9975" ry="18.3848"/>
<text text-anchor="middle" x="283.649" y="-39.4" font-family="Times Roman,serif" font-size="14.00">identity</text>
</a>
</g>
<!-- HomotopyPreCategory_HomotopyPreCategoryInternals_compose -->
<g id="node2" class="node"><title>HomotopyPreCategory_HomotopyPreCategoryInternals_compose</title>
<a xlink:href="HomotopyPreCategory.html#HomotopyPreCategoryInternals.compose" xlink:title="compose">
<ellipse fill="#f070d1" stroke="black" cx="121.649" cy="-43" rx="53.2379" ry="18.3848"/>
<text text-anchor="middle" x="121.649" y="-39.4" font-family="Times Roman,serif" font-size="14.00">compose</text>
</a>
</g>
<!-- HomotopyPreCategory_homotopy_precategory -->
<g id="node3" class="node"><title>HomotopyPreCategory_homotopy_precategory</title>
<a xlink:href="HomotopyPreCategory.html#homotopy_precategory" xlink:title="homotopy_precategory">
<ellipse fill="#f070d1" stroke="black" cx="199.649" cy="-131" rx="123.981" ry="18.3848"/>
<ellipse fill="none" stroke="black" cx="199.649" cy="-131" rx="127.966" ry="22.3848"/>
<ellipse fill="none" stroke="black" cx="199.649" cy="-131" rx="131.951" ry="26.3848"/>
<text text-anchor="middle" x="199.649" y="-127.4" font-family="Times Roman,serif" font-size="14.00">homotopy_precategory</text>
</a>
</g>
<!-- HomotopyPreCategory_homotopy_precategory&#45;&gt;HomotopyPreCategory_HomotopyPreCategoryInternals_identity -->
<g id="edge2" class="edge"><title>HomotopyPreCategory_homotopy_precategory&#45;&gt;HomotopyPreCategory_HomotopyPreCategoryInternals_identity</title>
<path fill="none" stroke="black" d="M224.851,-104.597C235.924,-92.9972 248.861,-79.4437 259.777,-68.0082"/>
<polygon fill="black" stroke="black" points="262.59,-70.1299 266.964,-60.4797 257.527,-65.2966 262.59,-70.1299"/>
</g>
<!-- HomotopyPreCategory_homotopy_precategory&#45;&gt;HomotopyPreCategory_HomotopyPreCategoryInternals_compose -->
<g id="edge4" class="edge"><title>HomotopyPreCategory_homotopy_precategory&#45;&gt;HomotopyPreCategory_HomotopyPreCategoryInternals_compose</title>
<path fill="none" stroke="black" d="M176.246,-104.597C166.037,-93.0795 154.121,-79.6359 144.031,-68.2518"/>
<polygon fill="black" stroke="black" points="146.633,-65.9104 137.38,-60.7485 141.394,-70.5536 146.633,-65.9104"/>
</g>
</g>
</svg>
