<?xml version="1.0" encoding="UTF-8" standalone="no"?>
<!DOCTYPE svg PUBLIC "-//W3C//DTD SVG 1.1//EN"
 "http://www.w3.org/Graphics/SVG/1.1/DTD/svg11.dtd">
<!-- Generated by graphviz version 2.39.20161220.0128 (20161220.0128)
 -->
<!-- Title: HoTT_Types_Record Pages: 1 -->
<svg width="437pt" height="115pt"
 viewBox="0.00 0.00 437.00 115.00" xmlns="http://www.w3.org/2000/svg" xmlns:xlink="http://www.w3.org/1999/xlink">
<g id="graph0" class="graph" transform="scale(1 1) rotate(0) translate(4 111)">
<title>HoTT_Types_Record</title>
<polygon fill="#ffffff" stroke="transparent" points="-4,4 -4,-111 433,-111 433,4 -4,4"/>
<g id="clust1" class="cluster">
<title>cluster_Record</title>
<polygon fill="#ffffc3" stroke="#000000" points="8,-8 8,-99 421,-99 421,-8 8,-8"/>
<text text-anchor="middle" x="36" y="-83.8" font-family="Times,serif" font-size="14.00" fill="#000000">Record</text>
</g>
<!-- Record_issig_isequiv -->
<g id="node1" class="node">
<title>Record_issig_isequiv</title>
<g id="a_node1"><a xlink:href="Record.html#issig_isequiv" xlink:title="issig_isequiv">
<ellipse fill="#f070d1" stroke="#000000" cx="348" cy="-42" rx="56.5844" ry="18"/>
<ellipse fill="none" stroke="#000000" cx="348" cy="-42" rx="60.5872" ry="22"/>
<ellipse fill="none" stroke="#000000" cx="348" cy="-42" rx="64.59" ry="26"/>
<text text-anchor="middle" x="348" y="-38.3" font-family="Times,serif" font-size="14.00" fill="#000000">issig_isequiv</text>
</a>
</g>
</g>
<!-- Record_issig_equiv -->
<g id="node2" class="node">
<title>Record_issig_equiv</title>
<g id="a_node2"><a xlink:href="Record.html#issig_equiv" xlink:title="issig_equiv">
<ellipse fill="#f070d1" stroke="#000000" cx="207" cy="-42" rx="50.8649" ry="18"/>
<ellipse fill="none" stroke="#000000" cx="207" cy="-42" rx="54.8783" ry="22"/>
<ellipse fill="none" stroke="#000000" cx="207" cy="-42" rx="58.8917" ry="26"/>
<text text-anchor="middle" x="207" y="-38.3" font-family="Times,serif" font-size="14.00" fill="#000000">issig_equiv</text>
</a>
</g>
</g>
<!-- Record_issig_contr -->
<g id="node3" class="node">
<title>Record_issig_contr</title>
<g id="a_node3"><a xlink:href="Record.html#issig_contr" xlink:title="issig_contr">
<ellipse fill="#f070d1" stroke="#000000" cx="73" cy="-42" rx="49.3059" ry="18"/>
<ellipse fill="none" stroke="#000000" cx="73" cy="-42" rx="53.2987" ry="22"/>
<ellipse fill="none" stroke="#000000" cx="73" cy="-42" rx="57.2914" ry="26"/>
<text text-anchor="middle" x="73" y="-38.3" font-family="Times,serif" font-size="14.00" fill="#000000">issig_contr</text>
</a>
</g>
</g>
</g>
</svg>
