<?xml version="1.0" encoding="UTF-8" standalone="no"?>
<!DOCTYPE svg PUBLIC "-//W3C//DTD SVG 1.1//EN"
 "http://www.w3.org/Graphics/SVG/1.1/DTD/svg11.dtd">
<!-- Generated by graphviz version 2.26.3 (20100126.1600)
 -->
<!-- Title: HoTT_types_Forall Pages: 1 -->
<svg width="1624pt" height="816pt"
 viewBox="0.00 0.00 1624.00 816.00" xmlns="http://www.w3.org/2000/svg" xmlns:xlink="http://www.w3.org/1999/xlink">
<g id="graph1" class="graph" transform="scale(1 1) rotate(0) translate(4 812)">
<title>HoTT_types_Forall</title>
<polygon fill="white" stroke="white" points="-4,5 -4,-812 1621,-812 1621,5 -4,5"/>
<g id="graph2" class="cluster"><title>cluster_Forall</title>
<polygon fill="#ffffc3" stroke="black" points="8,-12.5759 8,-795.424 1608,-795.424 1608,-12.5759 8,-12.5759"/>
<text text-anchor="middle" x="35" y="-778.824" font-family="Times Roman,serif" font-size="14.00">Forall</text>
</g>
<!-- Forall_equiv_flip -->
<g id="node1" class="node"><title>Forall_equiv_flip</title>
<a xlink:href="Forall.html#equiv_flip" xlink:title="equiv_flip">
<ellipse fill="#f070d1" stroke="black" cx="1534" cy="-699.576" rx="58.2486" ry="18.3848"/>
<ellipse fill="none" stroke="black" cx="1534" cy="-699.576" rx="62.2185" ry="22.3848"/>
<ellipse fill="none" stroke="black" cx="1534" cy="-699.576" rx="66.1884" ry="26.3848"/>
<text text-anchor="middle" x="1534" y="-695.976" font-family="Times Roman,serif" font-size="14.00">equiv_flip</text>
</a>
</g>
<!-- Forall_isequiv_flip -->
<g id="node2" class="node"><title>Forall_isequiv_flip</title>
<a xlink:href="Forall.html#isequiv_flip" xlink:title="isequiv_flip">
<ellipse fill="#f070d1" stroke="black" cx="1534" cy="-557.576" rx="65.7609" ry="18.3848"/>
<text text-anchor="middle" x="1534" y="-553.976" font-family="Times Roman,serif" font-size="14.00">isequiv_flip</text>
</a>
</g>
<!-- Forall_equiv_flip&#45;&gt;Forall_isequiv_flip -->
<g id="edge2" class="edge"><title>Forall_equiv_flip&#45;&gt;Forall_isequiv_flip</title>
<path fill="none" stroke="black" d="M1534,-672.867C1534,-648.263 1534,-611.844 1534,-586.547"/>
<polygon fill="black" stroke="black" points="1537.5,-586.453 1534,-576.453 1530.5,-586.453 1537.5,-586.453"/>
</g>
<!-- Forall_flip -->
<g id="node3" class="node"><title>Forall_flip</title>
<a xlink:href="Forall.html#flip" xlink:title="flip">
<ellipse fill="#f070d1" stroke="black" cx="1534" cy="-429.576" rx="27" ry="18.3848"/>
<text text-anchor="middle" x="1534" y="-425.976" font-family="Times Roman,serif" font-size="14.00">flip</text>
</a>
</g>
<!-- Forall_isequiv_flip&#45;&gt;Forall_flip -->
<g id="edge4" class="edge"><title>Forall_isequiv_flip&#45;&gt;Forall_flip</title>
<path fill="none" stroke="black" d="M1534,-538.964C1534,-517.824 1534,-483.073 1534,-458.417"/>
<polygon fill="black" stroke="black" points="1537.5,-458.211 1534,-448.211 1530.5,-458.211 1537.5,-458.211"/>
</g>
<!-- Forall_trunc_forall -->
<g id="node4" class="node"><title>Forall_trunc_forall</title>
<a xlink:href="Forall.html#trunc_forall" xlink:title="trunc_forall">
<ellipse fill="#f070d1" stroke="black" cx="1029" cy="-557.576" rx="67.1751" ry="18.3848"/>
<ellipse fill="none" stroke="black" cx="1029" cy="-557.576" rx="71.1751" ry="22.3848"/>
<ellipse fill="none" stroke="black" cx="1029" cy="-557.576" rx="75.1751" ry="26.3848"/>
<text text-anchor="middle" x="1029" y="-553.976" font-family="Times Roman,serif" font-size="14.00">trunc_forall</text>
</a>
</g>
<!-- Forall_contr_forall -->
<g id="node5" class="node"><title>Forall_contr_forall</title>
<a xlink:href="Forall.html#contr_forall" xlink:title="contr_forall">
<ellipse fill="#f070d1" stroke="black" cx="1029" cy="-429.576" rx="67.1751" ry="18.3848"/>
<text text-anchor="middle" x="1029" y="-425.976" font-family="Times Roman,serif" font-size="14.00">contr_forall</text>
</a>
</g>
<!-- Forall_trunc_forall&#45;&gt;Forall_contr_forall -->
<g id="edge6" class="edge"><title>Forall_trunc_forall&#45;&gt;Forall_contr_forall</title>
<path fill="none" stroke="black" d="M1029,-531.054C1029,-509.881 1029,-480.258 1029,-458.481"/>
<polygon fill="black" stroke="black" points="1032.5,-458.195 1029,-448.195 1025.5,-458.195 1032.5,-458.195"/>
</g>
<!-- Forall_isequiv_path_forall -->
<g id="node19" class="node"><title>Forall_isequiv_path_forall</title>
<a xlink:href="Forall.html#isequiv_path_forall" xlink:title="isequiv_path_forall">
<ellipse fill="#f070d1" stroke="black" cx="841" cy="-429.576" rx="103.238" ry="18.3848"/>
<text text-anchor="middle" x="841" y="-425.976" font-family="Times Roman,serif" font-size="14.00">isequiv_path_forall</text>
</a>
</g>
<!-- Forall_trunc_forall&#45;&gt;Forall_isequiv_path_forall -->
<g id="edge8" class="edge"><title>Forall_trunc_forall&#45;&gt;Forall_isequiv_path_forall</title>
<path fill="none" stroke="black" d="M994.079,-533.8C960.45,-510.903 909.854,-476.455 876.148,-453.507"/>
<polygon fill="black" stroke="black" points="877.777,-450.381 867.541,-447.646 873.837,-456.167 877.777,-450.381"/>
</g>
<!-- Forall_equiv_functor_forall_id -->
<g id="node6" class="node"><title>Forall_equiv_functor_forall_id</title>
<a xlink:href="Forall.html#equiv_functor_forall_id" xlink:title="equiv_functor_forall_id">
<ellipse fill="#f070d1" stroke="black" cx="1066" cy="-699.576" rx="121.861" ry="18.3848"/>
<ellipse fill="none" stroke="black" cx="1066" cy="-699.576" rx="125.845" ry="22.3848"/>
<ellipse fill="none" stroke="black" cx="1066" cy="-699.576" rx="129.83" ry="26.3848"/>
<text text-anchor="middle" x="1066" y="-695.976" font-family="Times Roman,serif" font-size="14.00">equiv_functor_forall_id</text>
</a>
</g>
<!-- Forall_equiv_functor_forall -->
<g id="node8" class="node"><title>Forall_equiv_functor_forall</title>
<a xlink:href="Forall.html#equiv_functor_forall" xlink:title="equiv_functor_forall">
<ellipse fill="#f070d1" stroke="black" cx="1281" cy="-557.576" rx="108.187" ry="18.3848"/>
<text text-anchor="middle" x="1281" y="-553.976" font-family="Times Roman,serif" font-size="14.00">equiv_functor_forall</text>
</a>
</g>
<!-- Forall_equiv_functor_forall_id&#45;&gt;Forall_equiv_functor_forall -->
<g id="edge10" class="edge"><title>Forall_equiv_functor_forall_id&#45;&gt;Forall_equiv_functor_forall</title>
<path fill="none" stroke="black" d="M1104.44,-674.189C1144.41,-647.786 1206.49,-606.79 1245.38,-581.1"/>
<polygon fill="black" stroke="black" points="1247.38,-583.978 1253.79,-575.547 1243.52,-578.137 1247.38,-583.978"/>
</g>
<!-- Forall_equiv_functor_forall_ -->
<g id="node7" class="node"><title>Forall_equiv_functor_forall_</title>
<a xlink:href="Forall.html#equiv_functor_forall&#39;" xlink:title="equiv_functor_forall&#39;">
<ellipse fill="#f070d1" stroke="black" cx="1332" cy="-699.576" rx="109.843" ry="18.3848"/>
<ellipse fill="none" stroke="black" cx="1332" cy="-699.576" rx="113.826" ry="22.3848"/>
<ellipse fill="none" stroke="black" cx="1332" cy="-699.576" rx="117.809" ry="26.3848"/>
<text text-anchor="middle" x="1332" y="-695.976" font-family="Times Roman,serif" font-size="14.00">equiv_functor_forall&#39;</text>
</a>
</g>
<!-- Forall_equiv_functor_forall_&#45;&gt;Forall_equiv_functor_forall -->
<g id="edge12" class="edge"><title>Forall_equiv_functor_forall_&#45;&gt;Forall_equiv_functor_forall</title>
<path fill="none" stroke="black" d="M1322.41,-672.867C1313.49,-648.043 1300.26,-611.193 1291.16,-585.872"/>
<polygon fill="black" stroke="black" points="1294.45,-584.681 1287.78,-576.453 1287.87,-587.047 1294.45,-584.681"/>
</g>
<!-- Forall_isequiv_functor_forall -->
<g id="node9" class="node"><title>Forall_isequiv_functor_forall</title>
<a xlink:href="Forall.html#isequiv_functor_forall" xlink:title="isequiv_functor_forall">
<ellipse fill="#f070d1" stroke="black" cx="1281" cy="-429.576" rx="115.966" ry="18.3848"/>
<text text-anchor="middle" x="1281" y="-425.976" font-family="Times Roman,serif" font-size="14.00">isequiv_functor_forall</text>
</a>
</g>
<!-- Forall_equiv_functor_forall&#45;&gt;Forall_isequiv_functor_forall -->
<g id="edge14" class="edge"><title>Forall_equiv_functor_forall&#45;&gt;Forall_isequiv_functor_forall</title>
<path fill="none" stroke="black" d="M1281,-538.964C1281,-517.824 1281,-483.073 1281,-458.417"/>
<polygon fill="black" stroke="black" points="1284.5,-458.211 1281,-448.211 1277.5,-458.211 1284.5,-458.211"/>
</g>
<!-- Forall_isequiv_functor_forall_subproof0 -->
<g id="node10" class="node"><title>Forall_isequiv_functor_forall_subproof0</title>
<a xlink:href="Forall.html#isequiv_functor_forall_subproof0" xlink:title="isequiv_functor_forall_subproof0">
<ellipse fill="#facdef" stroke="black" cx="1010" cy="-300.576" rx="168.999" ry="18.3848"/>
<text text-anchor="middle" x="1010" y="-296.976" font-family="Times Roman,serif" font-size="14.00">isequiv_functor_forall_subproof0</text>
</a>
</g>
<!-- Forall_isequiv_functor_forall&#45;&gt;Forall_isequiv_functor_forall_subproof0 -->
<g id="edge16" class="edge"><title>Forall_isequiv_functor_forall&#45;&gt;Forall_isequiv_functor_forall_subproof0</title>
<path fill="none" stroke="black" d="M1243.89,-411.909C1195.34,-388.801 1110.24,-348.29 1057.17,-323.029"/>
<polygon fill="black" stroke="black" points="1058.51,-319.789 1047.97,-318.651 1055.5,-326.11 1058.51,-319.789"/>
</g>
<!-- Forall_isequiv_functor_forall_subproof -->
<g id="node11" class="node"><title>Forall_isequiv_functor_forall_subproof</title>
<a xlink:href="Forall.html#isequiv_functor_forall_subproof" xlink:title="isequiv_functor_forall_subproof">
<ellipse fill="#facdef" stroke="black" cx="1359" cy="-300.576" rx="162.134" ry="18.3848"/>
<text text-anchor="middle" x="1359" y="-296.976" font-family="Times Roman,serif" font-size="14.00">isequiv_functor_forall_subproof</text>
</a>
</g>
<!-- Forall_isequiv_functor_forall&#45;&gt;Forall_isequiv_functor_forall_subproof -->
<g id="edge18" class="edge"><title>Forall_isequiv_functor_forall&#45;&gt;Forall_isequiv_functor_forall_subproof</title>
<path fill="none" stroke="black" d="M1292.18,-411.093C1305.31,-389.377 1327.22,-353.138 1342.35,-328.11"/>
<polygon fill="black" stroke="black" points="1345.41,-329.812 1347.59,-319.444 1339.42,-326.19 1345.41,-329.812"/>
</g>
<!-- Forall_functor_forall -->
<g id="node13" class="node"><title>Forall_functor_forall</title>
<a xlink:href="Forall.html#functor_forall" xlink:title="functor_forall">
<ellipse fill="#f070d1" stroke="black" cx="1010" cy="-171.576" rx="75.8684" ry="18.3848"/>
<text text-anchor="middle" x="1010" y="-167.976" font-family="Times Roman,serif" font-size="14.00">functor_forall</text>
</a>
</g>
<!-- Forall_isequiv_functor_forall_subproof0&#45;&gt;Forall_functor_forall -->
<g id="edge20" class="edge"><title>Forall_isequiv_functor_forall_subproof0&#45;&gt;Forall_functor_forall</title>
<path fill="none" stroke="black" d="M1010,-281.818C1010,-260.513 1010,-225.491 1010,-200.642"/>
<polygon fill="black" stroke="black" points="1013.5,-200.356 1010,-190.356 1006.5,-200.356 1013.5,-200.356"/>
</g>
<!-- Forall_isequiv_functor_forall_subproof&#45;&gt;Forall_functor_forall -->
<g id="edge22" class="edge"><title>Forall_isequiv_functor_forall_subproof&#45;&gt;Forall_functor_forall</title>
<path fill="none" stroke="black" d="M1310.84,-282.774C1245.34,-258.564 1128.66,-215.436 1061.48,-190.605"/>
<polygon fill="black" stroke="black" points="1062.53,-187.262 1051.94,-187.078 1060.11,-193.828 1062.53,-187.262"/>
</g>
<!-- Forall_ap_functor_forall -->
<g id="node12" class="node"><title>Forall_ap_functor_forall</title>
<a xlink:href="Forall.html#ap_functor_forall" xlink:title="ap_functor_forall">
<ellipse fill="#f070d1" stroke="black" cx="722" cy="-300.576" rx="92.8783" ry="18.3848"/>
<ellipse fill="none" stroke="black" cx="722" cy="-300.576" rx="96.8586" ry="22.3848"/>
<ellipse fill="none" stroke="black" cx="722" cy="-300.576" rx="100.839" ry="26.3848"/>
<text text-anchor="middle" x="722" y="-296.976" font-family="Times Roman,serif" font-size="14.00">ap_functor_forall</text>
</a>
</g>
<!-- Forall_ap_functor_forall&#45;&gt;Forall_functor_forall -->
<g id="edge24" class="edge"><title>Forall_ap_functor_forall&#45;&gt;Forall_functor_forall</title>
<path fill="none" stroke="black" d="M773.157,-277.662C827.329,-253.397 912.061,-215.445 964.134,-192.12"/>
<polygon fill="black" stroke="black" points="965.767,-195.224 973.463,-187.941 962.906,-188.835 965.767,-195.224"/>
</g>
<!-- Forall_path_forall_1 -->
<g id="node20" class="node"><title>Forall_path_forall_1</title>
<a xlink:href="Forall.html#path_forall_1" xlink:title="path_forall_1">
<ellipse fill="#f070d1" stroke="black" cx="623" cy="-171.576" rx="75.1594" ry="18.3848"/>
<text text-anchor="middle" x="623" y="-167.976" font-family="Times Roman,serif" font-size="14.00">path_forall_1</text>
</a>
</g>
<!-- Forall_ap_functor_forall&#45;&gt;Forall_path_forall_1 -->
<g id="edge26" class="edge"><title>Forall_ap_functor_forall&#45;&gt;Forall_path_forall_1</title>
<path fill="none" stroke="black" d="M701.966,-274.471C684.932,-252.275 660.579,-220.542 643.432,-198.199"/>
<polygon fill="black" stroke="black" points="646.108,-195.938 637.244,-190.136 640.555,-200.2 646.108,-195.938"/>
</g>
<!-- Forall_dpath_forall -->
<g id="node14" class="node"><title>Forall_dpath_forall</title>
<a xlink:href="Forall.html#dpath_forall" xlink:title="dpath_forall">
<ellipse fill="#f070d1" stroke="black" cx="841" cy="-699.576" rx="68.8494" ry="18.3848"/>
<ellipse fill="none" stroke="black" cx="841" cy="-699.576" rx="72.8236" ry="22.3848"/>
<ellipse fill="none" stroke="black" cx="841" cy="-699.576" rx="76.7978" ry="26.3848"/>
<text text-anchor="middle" x="841" y="-695.976" font-family="Times Roman,serif" font-size="14.00">dpath_forall</text>
</a>
</g>
<!-- Forall_equiv_path_forall -->
<g id="node18" class="node"><title>Forall_equiv_path_forall</title>
<a xlink:href="Forall.html#equiv_path_forall" xlink:title="equiv_path_forall">
<ellipse fill="#f070d1" stroke="black" cx="841" cy="-557.576" rx="94.9596" ry="18.3848"/>
<text text-anchor="middle" x="841" y="-553.976" font-family="Times Roman,serif" font-size="14.00">equiv_path_forall</text>
</a>
</g>
<!-- Forall_dpath_forall&#45;&gt;Forall_equiv_path_forall -->
<g id="edge28" class="edge"><title>Forall_dpath_forall&#45;&gt;Forall_equiv_path_forall</title>
<path fill="none" stroke="black" d="M841,-672.867C841,-648.263 841,-611.844 841,-586.547"/>
<polygon fill="black" stroke="black" points="844.5,-586.453 841,-576.453 837.5,-586.453 844.5,-586.453"/>
</g>
<!-- Forall_ap_lambdaD -->
<g id="node15" class="node"><title>Forall_ap_lambdaD</title>
<a xlink:href="Forall.html#ap_lambdaD" xlink:title="ap_lambdaD">
<ellipse fill="#f070d1" stroke="black" cx="524" cy="-300.576" rx="70.9686" ry="18.3848"/>
<ellipse fill="none" stroke="black" cx="524" cy="-300.576" rx="74.9435" ry="22.3848"/>
<ellipse fill="none" stroke="black" cx="524" cy="-300.576" rx="78.9183" ry="26.3848"/>
<text text-anchor="middle" x="524" y="-296.976" font-family="Times Roman,serif" font-size="14.00">ap_lambdaD</text>
</a>
</g>
<!-- Forall_ap_lambdaD&#45;&gt;Forall_path_forall_1 -->
<g id="edge30" class="edge"><title>Forall_ap_lambdaD&#45;&gt;Forall_path_forall_1</title>
<path fill="none" stroke="black" d="M543.796,-274.781C560.908,-252.483 585.536,-220.393 602.772,-197.933"/>
<polygon fill="black" stroke="black" points="605.674,-199.901 608.986,-189.837 600.121,-195.639 605.674,-199.901"/>
</g>
<!-- Forall_transport_forall_constant -->
<g id="node16" class="node"><title>Forall_transport_forall_constant</title>
<a xlink:href="Forall.html#transport_forall_constant" xlink:title="transport_forall_constant">
<ellipse fill="#f070d1" stroke="black" cx="603" cy="-699.576" rx="135.057" ry="18.3848"/>
<ellipse fill="none" stroke="black" cx="603" cy="-699.576" rx="139.057" ry="22.3848"/>
<ellipse fill="none" stroke="black" cx="603" cy="-699.576" rx="143.057" ry="26.3848"/>
<text text-anchor="middle" x="603" y="-695.976" font-family="Times Roman,serif" font-size="14.00">transport_forall_constant</text>
</a>
</g>
<!-- Forall_transport_forall -->
<g id="node17" class="node"><title>Forall_transport_forall</title>
<a xlink:href="Forall.html#transport_forall" xlink:title="transport_forall">
<ellipse fill="#f070d1" stroke="black" cx="347" cy="-699.576" rx="86.9741" ry="18.3848"/>
<ellipse fill="none" stroke="black" cx="347" cy="-699.576" rx="90.9741" ry="22.3848"/>
<ellipse fill="none" stroke="black" cx="347" cy="-699.576" rx="94.9741" ry="26.3848"/>
<text text-anchor="middle" x="347" y="-695.976" font-family="Times Roman,serif" font-size="14.00">transport_forall</text>
</a>
</g>
<!-- Forall_equiv_path_forall&#45;&gt;Forall_isequiv_path_forall -->
<g id="edge32" class="edge"><title>Forall_equiv_path_forall&#45;&gt;Forall_isequiv_path_forall</title>
<path fill="none" stroke="black" d="M841,-538.964C841,-517.824 841,-483.073 841,-458.417"/>
<polygon fill="black" stroke="black" points="844.5,-458.211 841,-448.211 837.5,-458.211 844.5,-458.211"/>
</g>
<!-- Forall_eta_path_forall -->
<g id="node21" class="node"><title>Forall_eta_path_forall</title>
<a xlink:href="Forall.html#eta_path_forall" xlink:title="eta_path_forall">
<ellipse fill="#f070d1" stroke="black" cx="623" cy="-54.5759" rx="84.8528" ry="18.3848"/>
<text text-anchor="middle" x="623" y="-50.9759" font-family="Times Roman,serif" font-size="14.00">eta_path_forall</text>
</a>
</g>
<!-- Forall_path_forall_1&#45;&gt;Forall_eta_path_forall -->
<g id="edge34" class="edge"><title>Forall_path_forall_1&#45;&gt;Forall_eta_path_forall</title>
<path fill="none" stroke="black" d="M623,-153.037C623,-134.406 623,-105.415 623,-83.7088"/>
<polygon fill="black" stroke="black" points="626.5,-83.4155 623,-73.4156 619.5,-83.4156 626.5,-83.4155"/>
</g>
<!-- Forall_apD10_path_forall -->
<g id="node22" class="node"><title>Forall_apD10_path_forall</title>
<a xlink:href="Forall.html#apD10_path_forall" xlink:title="apD10_path_forall">
<ellipse fill="#f070d1" stroke="black" cx="125" cy="-699.576" rx="101.116" ry="18.3848"/>
<ellipse fill="none" stroke="black" cx="125" cy="-699.576" rx="105.116" ry="22.3848"/>
<ellipse fill="none" stroke="black" cx="125" cy="-699.576" rx="109.116" ry="26.3848"/>
<text text-anchor="middle" x="125" y="-695.976" font-family="Times Roman,serif" font-size="14.00">apD10_path_forall</text>
</a>
</g>
</g>
</svg>
