<?xml version="1.0" encoding="UTF-8" standalone="no"?>
<!DOCTYPE svg PUBLIC "-//W3C//DTD SVG 1.1//EN"
 "http://www.w3.org/Graphics/SVG/1.1/DTD/svg11.dtd">
<!-- Generated by graphviz version 2.39.20141222.0545 (20141222.0545)
 -->
<!-- Title: HoTT_Categories_Category_Sigma_OnObjects Pages: 1 -->
<svg width="510pt" height="259pt"
 viewBox="0.00 0.00 510.00 259.00" xmlns="http://www.w3.org/2000/svg" xmlns:xlink="http://www.w3.org/1999/xlink">
<g id="graph0" class="graph" transform="scale(1 1) rotate(0) translate(4 255)">
<title>HoTT_Categories_Category_Sigma_OnObjects</title>
<polygon fill="white" stroke="transparent" points="-4,4 -4,-255 506,-255 506,4 -4,4"/>
<g id="clust1" class="cluster"><title>cluster_OnObjects</title>
<polygon fill="#ffffc3" stroke="black" points="8.69264,-8 8.69264,-243 493.307,-243 493.307,-8 8.69264,-8"/>
<text text-anchor="middle" x="45.6926" y="-227.8" font-family="Times,serif" font-size="14.00">OnObjects</text>
</g>
<!-- OnObjects_sigT_obj_compat -->
<g id="node1" class="node"><title>OnObjects_sigT_obj_compat</title>
<g id="a_node1"><a xlink:href="OnObjects.html#sigT_obj_compat" xlink:title="sigT_obj_compat">
<ellipse fill="#f070d1" stroke="black" cx="349.693" cy="-186" rx="72.608" ry="18"/>
<ellipse fill="none" stroke="black" cx="349.693" cy="-186" rx="76.5978" ry="22"/>
<ellipse fill="none" stroke="black" cx="349.693" cy="-186" rx="80.5876" ry="26"/>
<text text-anchor="middle" x="349.693" y="-182.3" font-family="Times,serif" font-size="14.00">sigT_obj_compat</text>
</a>
</g>
</g>
<!-- OnObjects_sigT_functor_obj -->
<g id="node4" class="node"><title>OnObjects_sigT_functor_obj</title>
<g id="a_node4"><a xlink:href="OnObjects.html#sigT_functor_obj" xlink:title="sigT_functor_obj">
<ellipse fill="#f070d1" stroke="black" cx="304.693" cy="-106" rx="71.4873" ry="18"/>
<text text-anchor="middle" x="304.693" y="-102.3" font-family="Times,serif" font-size="14.00">sigT_functor_obj</text>
</a>
</g>
</g>
<!-- OnObjects_sigT_obj_compat&#45;&gt;OnObjects_sigT_functor_obj -->
<g id="edge1" class="edge"><title>OnObjects_sigT_obj_compat&#45;&gt;OnObjects_sigT_functor_obj</title>
<path fill="none" stroke="black" d="M335.207,-160.247C330.249,-151.433 324.693,-141.557 319.696,-132.672"/>
<polygon fill="black" stroke="black" points="322.69,-130.857 314.737,-123.857 316.589,-134.289 322.69,-130.857"/>
</g>
<!-- OnObjects_pr1_obj -->
<g id="node6" class="node"><title>OnObjects_pr1_obj</title>
<g id="a_node6"><a xlink:href="OnObjects.html#pr1_obj" xlink:title="pr1_obj">
<ellipse fill="#f070d1" stroke="black" cx="443.693" cy="-106" rx="38.1938" ry="18"/>
<text text-anchor="middle" x="443.693" y="-102.3" font-family="Times,serif" font-size="14.00">pr1_obj</text>
</a>
</g>
</g>
<!-- OnObjects_sigT_obj_compat&#45;&gt;OnObjects_pr1_obj -->
<g id="edge2" class="edge"><title>OnObjects_sigT_obj_compat&#45;&gt;OnObjects_pr1_obj</title>
<path fill="none" stroke="black" d="M378.407,-161.563C390.69,-151.109 404.947,-138.975 416.999,-128.718"/>
<polygon fill="black" stroke="black" points="419.592,-131.108 424.939,-121.961 415.055,-125.777 419.592,-131.108"/>
</g>
<!-- OnObjects_sigT_obj_eq -->
<g id="node2" class="node"><title>OnObjects_sigT_obj_eq</title>
<g id="a_node2"><a xlink:href="OnObjects.html#sigT_obj_eq" xlink:title="sigT_obj_eq">
<ellipse fill="#facdef" stroke="black" cx="143.693" cy="-186" rx="54.6783" ry="18"/>
<ellipse fill="none" stroke="black" cx="143.693" cy="-186" rx="58.6844" ry="22"/>
<ellipse fill="none" stroke="black" cx="143.693" cy="-186" rx="62.6905" ry="26"/>
<text text-anchor="middle" x="143.693" y="-182.3" font-family="Times,serif" font-size="14.00">sigT_obj_eq</text>
</a>
</g>
</g>
<!-- OnObjects_sigT_functor_obj_inv -->
<g id="node3" class="node"><title>OnObjects_sigT_functor_obj_inv</title>
<g id="a_node3"><a xlink:href="OnObjects.html#sigT_functor_obj_inv" xlink:title="sigT_functor_obj_inv">
<ellipse fill="#f070d1" stroke="black" cx="111.693" cy="-106" rx="87.1846" ry="18"/>
<text text-anchor="middle" x="111.693" y="-102.3" font-family="Times,serif" font-size="14.00">sigT_functor_obj_inv</text>
</a>
</g>
</g>
<!-- OnObjects_sigT_obj_eq&#45;&gt;OnObjects_sigT_functor_obj_inv -->
<g id="edge3" class="edge"><title>OnObjects_sigT_obj_eq&#45;&gt;OnObjects_sigT_functor_obj_inv</title>
<path fill="none" stroke="black" d="M133.391,-160.247C130.03,-151.843 126.282,-142.473 122.859,-133.917"/>
<polygon fill="black" stroke="black" points="125.998,-132.339 119.034,-124.354 119.498,-134.938 125.998,-132.339"/>
</g>
<!-- OnObjects_sigT_obj_eq&#45;&gt;OnObjects_sigT_functor_obj -->
<g id="edge4" class="edge"><title>OnObjects_sigT_obj_eq&#45;&gt;OnObjects_sigT_functor_obj</title>
<path fill="none" stroke="black" d="M183.904,-166.019C208.103,-153.995 238.845,-138.719 263.259,-126.588"/>
<polygon fill="black" stroke="black" points="264.881,-129.69 272.279,-122.106 261.766,-123.422 264.881,-129.69"/>
</g>
<!-- OnObjects_sigT_obj_as_sigT -->
<g id="node5" class="node"><title>OnObjects_sigT_obj_as_sigT</title>
<g id="a_node5"><a xlink:href="OnObjects.html#sigT_obj_as_sigT" xlink:title="sigT_obj_as_sigT">
<ellipse fill="#f070d1" stroke="black" cx="134.693" cy="-34" rx="73.387" ry="18"/>
<text text-anchor="middle" x="134.693" y="-30.3" font-family="Times,serif" font-size="14.00">sigT_obj_as_sigT</text>
</a>
</g>
</g>
<!-- OnObjects_sigT_functor_obj_inv&#45;&gt;OnObjects_sigT_obj_as_sigT -->
<g id="edge5" class="edge"><title>OnObjects_sigT_functor_obj_inv&#45;&gt;OnObjects_sigT_obj_as_sigT</title>
<path fill="none" stroke="black" d="M117.497,-87.8314C119.983,-80.0463 122.946,-70.7729 125.705,-62.1347"/>
<polygon fill="black" stroke="black" points="129.102,-63.0041 128.811,-52.4133 122.434,-60.874 129.102,-63.0041"/>
</g>
<!-- OnObjects_sigT_obj -->
<g id="node7" class="node"><title>OnObjects_sigT_obj</title>
<g id="a_node7"><a xlink:href="OnObjects.html#sigT_obj" xlink:title="sigT_obj">
<ellipse fill="#f070d1" stroke="black" cx="304.693" cy="-34" rx="42.4939" ry="18"/>
<text text-anchor="middle" x="304.693" y="-30.3" font-family="Times,serif" font-size="14.00">sigT_obj</text>
</a>
</g>
</g>
<!-- OnObjects_sigT_functor_obj_inv&#45;&gt;OnObjects_sigT_obj -->
<g id="edge6" class="edge"><title>OnObjects_sigT_functor_obj_inv&#45;&gt;OnObjects_sigT_obj</title>
<path fill="none" stroke="black" d="M154.047,-90.1993C186.428,-78.1196 230.833,-61.5538 263.038,-49.5395"/>
<polygon fill="black" stroke="black" points="264.469,-52.7416 272.614,-45.967 262.022,-46.1831 264.469,-52.7416"/>
</g>
<!-- OnObjects_sigT_functor_obj&#45;&gt;OnObjects_sigT_obj_as_sigT -->
<g id="edge7" class="edge"><title>OnObjects_sigT_functor_obj&#45;&gt;OnObjects_sigT_obj_as_sigT</title>
<path fill="none" stroke="black" d="M267.805,-90.3771C242.298,-79.574 208.172,-65.1205 180.859,-53.553"/>
<polygon fill="black" stroke="black" points="182.081,-50.2696 171.508,-49.5924 179.351,-56.7153 182.081,-50.2696"/>
</g>
<!-- OnObjects_sigT_functor_obj&#45;&gt;OnObjects_sigT_obj -->
<g id="edge8" class="edge"><title>OnObjects_sigT_functor_obj&#45;&gt;OnObjects_sigT_obj</title>
<path fill="none" stroke="black" d="M304.693,-87.8314C304.693,-80.131 304.693,-70.9743 304.693,-62.4166"/>
<polygon fill="black" stroke="black" points="308.193,-62.4132 304.693,-52.4133 301.193,-62.4133 308.193,-62.4132"/>
</g>
<!-- OnObjects_pr1_obj&#45;&gt;OnObjects_sigT_obj -->
<g id="edge9" class="edge"><title>OnObjects_pr1_obj&#45;&gt;OnObjects_sigT_obj</title>
<path fill="none" stroke="black" d="M417.874,-92.6261C396.153,-81.3751 364.86,-65.1658 340.681,-52.6415"/>
<polygon fill="black" stroke="black" points="342.287,-49.5315 331.797,-48.0399 339.067,-55.7472 342.287,-49.5315"/>
</g>
</g>
</svg>
