<?xml version="1.0" encoding="UTF-8" standalone="no"?>
<!DOCTYPE svg PUBLIC "-//W3C//DTD SVG 1.1//EN"
 "http://www.w3.org/Graphics/SVG/1.1/DTD/svg11.dtd">
<!-- Generated by graphviz version 2.39.20141222.0545 (20141222.0545)
 -->
<!-- Title: HoTT_Categories_ExponentialLaws_Law2_Law Pages: 1 -->
<svg width="654pt" height="331pt"
 viewBox="0.00 0.00 654.00 331.00" xmlns="http://www.w3.org/2000/svg" xmlns:xlink="http://www.w3.org/1999/xlink">
<g id="graph0" class="graph" transform="scale(1 1) rotate(0) translate(4 327)">
<title>HoTT_Categories_ExponentialLaws_Law2_Law</title>
<polygon fill="white" stroke="transparent" points="-4,4 -4,-327 650,-327 650,4 -4,4"/>
<g id="clust1" class="cluster"><title>cluster_Law</title>
<polygon fill="#ffffc3" stroke="black" points="26.101,-8 26.101,-315 619.899,-315 619.899,-8 26.101,-8"/>
<text text-anchor="middle" x="46.601" y="-299.8" font-family="Times,serif" font-size="14.00">Law</text>
</g>
<!-- Law_law -->
<g id="node1" class="node"><title>Law_law</title>
<g id="a_node1"><a xlink:href="Law.html#law" xlink:title="law">
<ellipse fill="#facdef" stroke="black" cx="322.747" cy="-258" rx="27" ry="18"/>
<ellipse fill="none" stroke="black" cx="322.747" cy="-258" rx="31" ry="22"/>
<ellipse fill="none" stroke="black" cx="322.747" cy="-258" rx="35" ry="26"/>
<text text-anchor="middle" x="322.747" y="-254.3" font-family="Times,serif" font-size="14.00">law</text>
</a>
</g>
</g>
<!-- Law_helper2 -->
<g id="node2" class="node"><title>Law_helper2</title>
<g id="a_node2"><a xlink:href="Law.html#helper2" xlink:title="helper2">
<ellipse fill="#f070d1" stroke="black" cx="172.747" cy="-178" rx="37.0935" ry="18"/>
<text text-anchor="middle" x="172.747" y="-174.3" font-family="Times,serif" font-size="14.00">helper2</text>
</a>
</g>
</g>
<!-- Law_law&#45;&gt;Law_helper2 -->
<g id="edge1" class="edge"><title>Law_law&#45;&gt;Law_helper2</title>
<path fill="none" stroke="black" d="M294.181,-242.764C269.24,-229.463 233.006,-210.138 206.613,-196.062"/>
<polygon fill="black" stroke="black" points="208.193,-192.938 197.722,-191.32 204.899,-199.114 208.193,-192.938"/>
</g>
<!-- Law_helper1 -->
<g id="node5" class="node"><title>Law_helper1</title>
<g id="a_node5"><a xlink:href="Law.html#helper1" xlink:title="helper1">
<ellipse fill="#f070d1" stroke="black" cx="472.747" cy="-178" rx="37.0935" ry="18"/>
<text text-anchor="middle" x="472.747" y="-174.3" font-family="Times,serif" font-size="14.00">helper1</text>
</a>
</g>
</g>
<!-- Law_law&#45;&gt;Law_helper1 -->
<g id="edge2" class="edge"><title>Law_law&#45;&gt;Law_helper1</title>
<path fill="none" stroke="black" d="M351.314,-242.764C376.255,-229.463 412.489,-210.138 438.882,-196.062"/>
<polygon fill="black" stroke="black" points="440.596,-199.114 447.773,-191.32 437.302,-192.938 440.596,-199.114"/>
</g>
<!-- Law_helper2_subproof -->
<g id="node3" class="node"><title>Law_helper2_subproof</title>
<g id="a_node3"><a xlink:href="Law.html#helper2_subproof" xlink:title="helper2_subproof">
<ellipse fill="#facdef" stroke="black" cx="290.747" cy="-106" rx="72.5877" ry="18"/>
<text text-anchor="middle" x="290.747" y="-102.3" font-family="Times,serif" font-size="14.00">helper2_subproof</text>
</a>
</g>
</g>
<!-- Law_helper2&#45;&gt;Law_helper2_subproof -->
<g id="edge3" class="edge"><title>Law_helper2&#45;&gt;Law_helper2_subproof</title>
<path fill="none" stroke="black" d="M196.06,-163.775C212.76,-153.586 235.568,-139.669 254.615,-128.047"/>
<polygon fill="black" stroke="black" points="256.629,-130.918 263.342,-122.722 252.983,-124.943 256.629,-130.918"/>
</g>
<!-- Law_helper2_helper -->
<g id="node4" class="node"><title>Law_helper2_helper</title>
<g id="a_node4"><a xlink:href="Law.html#helper2_helper" xlink:title="helper2_helper">
<ellipse fill="#f070d1" stroke="black" cx="290.747" cy="-34" rx="63.8893" ry="18"/>
<text text-anchor="middle" x="290.747" y="-30.3" font-family="Times,serif" font-size="14.00">helper2_helper</text>
</a>
</g>
</g>
<!-- Law_helper2_subproof&#45;&gt;Law_helper2_helper -->
<g id="edge4" class="edge"><title>Law_helper2_subproof&#45;&gt;Law_helper2_helper</title>
<path fill="none" stroke="black" d="M290.747,-87.8314C290.747,-80.131 290.747,-70.9743 290.747,-62.4166"/>
<polygon fill="black" stroke="black" points="294.248,-62.4132 290.747,-52.4133 287.248,-62.4133 294.248,-62.4132"/>
</g>
</g>
</svg>
