<?xml version="1.0" encoding="UTF-8" standalone="no"?>
<!DOCTYPE svg PUBLIC "-//W3C//DTD SVG 1.1//EN"
 "http://www.w3.org/Graphics/SVG/1.1/DTD/svg11.dtd">
<!-- Generated by graphviz version 2.26.3 (20100126.1600)
 -->
<!-- Title: HoTT_categories_Adjoint_UniversalMorphisms_Core Pages: 1 -->
<svg width="1646pt" height="827pt"
 viewBox="0.00 0.00 1646.00 827.00" xmlns="http://www.w3.org/2000/svg" xmlns:xlink="http://www.w3.org/1999/xlink">
<g id="graph1" class="graph" transform="scale(1 1) rotate(0) translate(4 823)">
<title>HoTT_categories_Adjoint_UniversalMorphisms_Core</title>
<polygon fill="white" stroke="white" points="-4,5 -4,-823 1643,-823 1643,5 -4,5"/>
<g id="graph2" class="cluster"><title>cluster_Core</title>
<polygon fill="#ffffc3" stroke="black" points="8,-18.72 8,-800.28 1630,-800.28 1630,-18.72 8,-18.72"/>
<text text-anchor="middle" x="32.5" y="-783.68" font-family="Times Roman,serif" font-size="14.00">Core</text>
</g>
<!-- Core_adjunction__of__terminal_morphism -->
<g id="node1" class="node"><title>Core_adjunction__of__terminal_morphism</title>
<a xlink:href="Core.html#adjunction__of__terminal_morphism" xlink:title="adjunction__of__terminal_morphism">
<ellipse fill="#f070d1" stroke="black" cx="1428" cy="-657.72" rx="186.196" ry="18.3848"/>
<ellipse fill="none" stroke="black" cx="1428" cy="-657.72" rx="190.186" ry="22.3848"/>
<ellipse fill="none" stroke="black" cx="1428" cy="-657.72" rx="194.176" ry="26.3848"/>
<text text-anchor="middle" x="1428" y="-654.12" font-family="Times Roman,serif" font-size="14.00">adjunction__of__terminal_morphism</text>
</a>
</g>
<!-- Core_adjunction__of__initial_morphism -->
<g id="node3" class="node"><title>Core_adjunction__of__initial_morphism</title>
<a xlink:href="Core.html#adjunction__of__initial_morphism" xlink:title="adjunction__of__initial_morphism">
<ellipse fill="#f070d1" stroke="black" cx="1438" cy="-446.72" rx="173.241" ry="18.3848"/>
<text text-anchor="middle" x="1438" y="-443.12" font-family="Times Roman,serif" font-size="14.00">adjunction__of__initial_morphism</text>
</a>
</g>
<!-- Core_adjunction__of__terminal_morphism&#45;&gt;Core_adjunction__of__initial_morphism -->
<g id="edge2" class="edge"><title>Core_adjunction__of__terminal_morphism&#45;&gt;Core_adjunction__of__initial_morphism</title>
<path fill="none" stroke="black" d="M1429.27,-630.997C1431.15,-591.194 1434.69,-516.636 1436.63,-475.612"/>
<polygon fill="black" stroke="black" points="1440.13,-475.621 1437.11,-465.467 1433.14,-475.29 1440.13,-475.621"/>
</g>
<!-- Core_functor__of__terminal_morphism -->
<g id="node2" class="node"><title>Core_functor__of__terminal_morphism</title>
<a xlink:href="Core.html#functor__of__terminal_morphism" xlink:title="functor__of__terminal_morphism">
<ellipse fill="#f070d1" stroke="black" cx="1068" cy="-446.72" rx="171.12" ry="18.3848"/>
<ellipse fill="none" stroke="black" cx="1068" cy="-446.72" rx="175.12" ry="22.3848"/>
<ellipse fill="none" stroke="black" cx="1068" cy="-446.72" rx="179.12" ry="26.3848"/>
<text text-anchor="middle" x="1068" y="-443.12" font-family="Times Roman,serif" font-size="14.00">functor__of__terminal_morphism</text>
</a>
</g>
<!-- Core_functor__of__initial_morphism -->
<g id="node4" class="node"><title>Core_functor__of__initial_morphism</title>
<a xlink:href="Core.html#functor__of__initial_morphism" xlink:title="functor__of__initial_morphism">
<ellipse fill="#f070d1" stroke="black" cx="1253" cy="-254.72" rx="156.978" ry="18.3848"/>
<text text-anchor="middle" x="1253" y="-251.12" font-family="Times Roman,serif" font-size="14.00">functor__of__initial_morphism</text>
</a>
</g>
<!-- Core_functor__of__terminal_morphism&#45;&gt;Core_functor__of__initial_morphism -->
<g id="edge4" class="edge"><title>Core_functor__of__terminal_morphism&#45;&gt;Core_functor__of__initial_morphism</title>
<path fill="none" stroke="black" d="M1093.34,-420.426C1128.81,-383.607 1192.89,-317.108 1228.12,-280.543"/>
<polygon fill="black" stroke="black" points="1230.76,-282.847 1235.18,-273.217 1225.72,-277.99 1230.76,-282.847"/>
</g>
<!-- Core_adjunction__of__initial_morphism&#45;&gt;Core_functor__of__initial_morphism -->
<g id="edge6" class="edge"><title>Core_adjunction__of__initial_morphism&#45;&gt;Core_functor__of__initial_morphism</title>
<path fill="none" stroke="black" d="M1420.26,-428.31C1387.2,-393.993 1316.06,-320.165 1278.09,-280.757"/>
<polygon fill="black" stroke="black" points="1280.42,-278.129 1270.96,-273.356 1275.37,-282.986 1280.42,-278.129"/>
</g>
<!-- Core_composition_of -->
<g id="node5" class="node"><title>Core_composition_of</title>
<a xlink:href="Core.html#composition_of" xlink:title="composition_of">
<ellipse fill="#facdef" stroke="black" cx="1170" cy="-81.72" rx="84.1457" ry="18.3848"/>
<text text-anchor="middle" x="1170" y="-78.12" font-family="Times Roman,serif" font-size="14.00">composition_of</text>
</a>
</g>
<!-- Core_functor__of__initial_morphism&#45;&gt;Core_composition_of -->
<g id="edge8" class="edge"><title>Core_functor__of__initial_morphism&#45;&gt;Core_composition_of</title>
<path fill="none" stroke="black" d="M1244.12,-236.206C1229.55,-205.85 1200.51,-145.315 1183.42,-109.701"/>
<polygon fill="black" stroke="black" points="1186.43,-107.864 1178.94,-100.362 1180.11,-110.892 1186.43,-107.864"/>
</g>
<!-- Core_identity_of -->
<g id="node6" class="node"><title>Core_identity_of</title>
<a xlink:href="Core.html#identity_of" xlink:title="identity_of">
<ellipse fill="#facdef" stroke="black" cx="1335" cy="-81.72" rx="63.1385" ry="18.3848"/>
<text text-anchor="middle" x="1335" y="-78.12" font-family="Times Roman,serif" font-size="14.00">identity_of</text>
</a>
</g>
<!-- Core_functor__of__initial_morphism&#45;&gt;Core_identity_of -->
<g id="edge10" class="edge"><title>Core_functor__of__initial_morphism&#45;&gt;Core_identity_of</title>
<path fill="none" stroke="black" d="M1261.78,-236.206C1276.2,-205.77 1305.01,-144.997 1321.87,-109.421"/>
<polygon fill="black" stroke="black" points="1325.17,-110.636 1326.29,-100.101 1318.84,-107.638 1325.17,-110.636"/>
</g>
<!-- Core_is_terminal_morphism__of__adjunction -->
<g id="node7" class="node"><title>Core_is_terminal_morphism__of__adjunction</title>
<a xlink:href="Core.html#is_terminal_morphism__of__adjunction" xlink:title="is_terminal_morphism__of__adjunction">
<ellipse fill="#f070d1" stroke="black" cx="1009" cy="-657.72" rx="198.924" ry="18.3848"/>
<ellipse fill="none" stroke="black" cx="1009" cy="-657.72" rx="202.914" ry="22.3848"/>
<ellipse fill="none" stroke="black" cx="1009" cy="-657.72" rx="206.904" ry="26.3848"/>
<text text-anchor="middle" x="1009" y="-654.12" font-family="Times Roman,serif" font-size="14.00">is_terminal_morphism__of__adjunction</text>
</a>
</g>
<!-- Core_is_initial_morphism__of__adjunction -->
<g id="node9" class="node"><title>Core_is_initial_morphism__of__adjunction</title>
<a xlink:href="Core.html#is_initial_morphism__of__adjunction" xlink:title="is_initial_morphism__of__adjunction">
<ellipse fill="#f070d1" stroke="black" cx="685" cy="-446.72" rx="185.969" ry="18.3848"/>
<text text-anchor="middle" x="685" y="-443.12" font-family="Times Roman,serif" font-size="14.00">is_initial_morphism__of__adjunction</text>
</a>
</g>
<!-- Core_is_terminal_morphism__of__adjunction&#45;&gt;Core_is_initial_morphism__of__adjunction -->
<g id="edge12" class="edge"><title>Core_is_terminal_morphism__of__adjunction&#45;&gt;Core_is_initial_morphism__of__adjunction</title>
<path fill="none" stroke="black" d="M968.946,-631.636C905.527,-590.335 782.924,-510.492 721.679,-470.607"/>
<polygon fill="black" stroke="black" points="723.393,-467.546 713.103,-465.022 719.573,-473.412 723.393,-467.546"/>
</g>
<!-- Core_terminal_morphism__of__adjunction -->
<g id="node8" class="node"><title>Core_terminal_morphism__of__adjunction</title>
<a xlink:href="Core.html#terminal_morphism__of__adjunction" xlink:title="terminal_morphism__of__adjunction">
<ellipse fill="#f070d1" stroke="black" cx="590" cy="-657.72" rx="186.196" ry="18.3848"/>
<ellipse fill="none" stroke="black" cx="590" cy="-657.72" rx="190.186" ry="22.3848"/>
<ellipse fill="none" stroke="black" cx="590" cy="-657.72" rx="194.176" ry="26.3848"/>
<text text-anchor="middle" x="590" y="-654.12" font-family="Times Roman,serif" font-size="14.00">terminal_morphism__of__adjunction</text>
</a>
</g>
<!-- Core_initial_morphism__of__adjunction -->
<g id="node10" class="node"><title>Core_initial_morphism__of__adjunction</title>
<a xlink:href="Core.html#initial_morphism__of__adjunction" xlink:title="initial_morphism__of__adjunction">
<ellipse fill="#f070d1" stroke="black" cx="197" cy="-657.72" rx="173.241" ry="18.3848"/>
<ellipse fill="none" stroke="black" cx="197" cy="-657.72" rx="177.241" ry="22.3848"/>
<ellipse fill="none" stroke="black" cx="197" cy="-657.72" rx="181.241" ry="26.3848"/>
<text text-anchor="middle" x="197" y="-654.12" font-family="Times Roman,serif" font-size="14.00">initial_morphism__of__adjunction</text>
</a>
</g>
</g>
</svg>
