<?xml version="1.0" encoding="UTF-8" standalone="no"?>
<!DOCTYPE svg PUBLIC "-//W3C//DTD SVG 1.1//EN"
 "http://www.w3.org/Graphics/SVG/1.1/DTD/svg11.dtd">
<!-- Generated by graphviz version 2.39.20141222.0545 (20141222.0545)
 -->
<!-- Title: HoTT_categories_SetCategory_Functors_SetProp Pages: 1 -->
<svg width="868pt" height="438pt"
 viewBox="0.00 0.00 868.00 438.00" xmlns="http://www.w3.org/2000/svg" xmlns:xlink="http://www.w3.org/1999/xlink">
<g id="graph0" class="graph" transform="scale(1 1) rotate(0) translate(4 434)">
<title>HoTT_categories_SetCategory_Functors_SetProp</title>
<polygon fill="white" stroke="transparent" points="-4,4 -4,-434 864,-434 864,4 -4,4"/>
<g id="clust1" class="cluster"><title>cluster_SetProp</title>
<polygon fill="#ffffc3" stroke="black" points="8,-19.2179 8,-410.782 852,-410.782 852,-19.2179 8,-19.2179"/>
<text text-anchor="middle" x="37.5" y="-395.582" font-family="Times,serif" font-size="14.00">SetProp</text>
</g>
<!-- SetProp_from_set2prop -->
<g id="node1" class="node"><title>SetProp_from_set2prop</title>
<g id="a_node1"><a xlink:href="SetProp.html#from_set2prop" xlink:title="from_set2prop">
<ellipse fill="#f070d1" stroke="black" cx="773" cy="-274.218" rx="63.0838" ry="18"/>
<ellipse fill="none" stroke="black" cx="773" cy="-274.218" rx="67.0863" ry="22"/>
<ellipse fill="none" stroke="black" cx="773" cy="-274.218" rx="71.0888" ry="26"/>
<text text-anchor="middle" x="773" y="-270.518" font-family="Times,serif" font-size="14.00">from_set2prop</text>
</a>
</g>
</g>
<!-- SetProp_from_set -->
<g id="node7" class="node"><title>SetProp_from_set</title>
<g id="a_node7"><a xlink:href="SetProp.html#from_set" xlink:title="from_set">
<ellipse fill="#f070d1" stroke="black" cx="697" cy="-81.2179" rx="42.4939" ry="18"/>
<text text-anchor="middle" x="697" y="-77.5179" font-family="Times,serif" font-size="14.00">from_set</text>
</a>
</g>
</g>
<!-- SetProp_from_set2prop&#45;&gt;SetProp_from_set -->
<g id="edge1" class="edge"><title>SetProp_from_set2prop&#45;&gt;SetProp_from_set</title>
<path fill="none" stroke="black" d="M762.75,-248.189C748.418,-211.792 722.504,-145.985 707.854,-108.782"/>
<polygon fill="black" stroke="black" points="710.96,-107.117 704.04,-99.0949 704.447,-109.682 710.96,-107.117"/>
</g>
<!-- SetProp_to_prop2set -->
<g id="node2" class="node"><title>SetProp_to_prop2set</title>
<g id="a_node2"><a xlink:href="SetProp.html#to_prop2set" xlink:title="to_prop2set">
<ellipse fill="#f070d1" stroke="black" cx="328" cy="-274.218" rx="51.9914" ry="18"/>
<ellipse fill="none" stroke="black" cx="328" cy="-274.218" rx="55.9911" ry="22"/>
<ellipse fill="none" stroke="black" cx="328" cy="-274.218" rx="59.9908" ry="26"/>
<text text-anchor="middle" x="328" y="-270.518" font-family="Times,serif" font-size="14.00">to_prop2set</text>
</a>
</g>
</g>
<!-- SetProp_to_prop -->
<g id="node10" class="node"><title>SetProp_to_prop</title>
<g id="a_node10"><a xlink:href="SetProp.html#to_prop" xlink:title="to_prop">
<ellipse fill="#f070d1" stroke="black" cx="260" cy="-81.2179" rx="38.1938" ry="18"/>
<text text-anchor="middle" x="260" y="-77.5179" font-family="Times,serif" font-size="14.00">to_prop</text>
</a>
</g>
</g>
<!-- SetProp_to_prop2set&#45;&gt;SetProp_to_prop -->
<g id="edge2" class="edge"><title>SetProp_to_prop2set&#45;&gt;SetProp_to_prop</title>
<path fill="none" stroke="black" d="M318.829,-248.189C306.005,-211.792 282.82,-145.985 269.712,-108.782"/>
<polygon fill="black" stroke="black" points="272.923,-107.364 266.299,-99.0949 266.321,-109.69 272.923,-107.364"/>
</g>
<!-- SetProp_from_set_id -->
<g id="node3" class="node"><title>SetProp_from_set_id</title>
<g id="a_node3"><a xlink:href="SetProp.html#from_set_id" xlink:title="from_set_id">
<ellipse fill="#f070d1" stroke="black" cx="622" cy="-274.218" rx="53.8975" ry="18"/>
<ellipse fill="none" stroke="black" cx="622" cy="-274.218" rx="57.894" ry="22"/>
<ellipse fill="none" stroke="black" cx="622" cy="-274.218" rx="61.8905" ry="26"/>
<text text-anchor="middle" x="622" y="-270.518" font-family="Times,serif" font-size="14.00">from_set_id</text>
</a>
</g>
</g>
<!-- SetProp_from_set_id&#45;&gt;SetProp_from_set -->
<g id="edge3" class="edge"><title>SetProp_from_set_id&#45;&gt;SetProp_from_set</title>
<path fill="none" stroke="black" d="M632.115,-248.189C646.259,-211.792 671.831,-145.985 686.289,-108.782"/>
<polygon fill="black" stroke="black" points="689.693,-109.684 690.053,-99.0949 683.168,-107.148 689.693,-109.684"/>
</g>
<!-- SetProp_from_prop_id -->
<g id="node4" class="node"><title>SetProp_from_prop_id</title>
<g id="a_node4"><a xlink:href="SetProp.html#from_prop_id" xlink:title="from_prop_id">
<ellipse fill="#f070d1" stroke="black" cx="474" cy="-274.218" rx="59.6142" ry="18"/>
<ellipse fill="none" stroke="black" cx="474" cy="-274.218" rx="63.6021" ry="22"/>
<ellipse fill="none" stroke="black" cx="474" cy="-274.218" rx="67.59" ry="26"/>
<text text-anchor="middle" x="474" y="-270.518" font-family="Times,serif" font-size="14.00">from_prop_id</text>
</a>
</g>
</g>
<!-- SetProp_from_prop -->
<g id="node8" class="node"><title>SetProp_from_prop</title>
<g id="a_node8"><a xlink:href="SetProp.html#from_prop" xlink:title="from_prop">
<ellipse fill="#f070d1" stroke="black" cx="474" cy="-81.2179" rx="48.9926" ry="18"/>
<text text-anchor="middle" x="474" y="-77.5179" font-family="Times,serif" font-size="14.00">from_prop</text>
</a>
</g>
</g>
<!-- SetProp_from_prop_id&#45;&gt;SetProp_from_prop -->
<g id="edge4" class="edge"><title>SetProp_from_prop_id&#45;&gt;SetProp_from_prop</title>
<path fill="none" stroke="black" d="M474,-248.189C474,-212.041 474,-146.885 474,-109.55"/>
<polygon fill="black" stroke="black" points="477.5,-109.361 474,-99.3613 470.5,-109.361 477.5,-109.361"/>
</g>
<!-- SetProp_to_set_id -->
<g id="node5" class="node"><title>SetProp_to_set_id</title>
<g id="a_node5"><a xlink:href="SetProp.html#to_set_id" xlink:title="to_set_id">
<ellipse fill="#f070d1" stroke="black" cx="67" cy="-274.218" rx="42.8089" ry="18"/>
<ellipse fill="none" stroke="black" cx="67" cy="-274.218" rx="46.8007" ry="22"/>
<ellipse fill="none" stroke="black" cx="67" cy="-274.218" rx="50.7926" ry="26"/>
<text text-anchor="middle" x="67" y="-270.518" font-family="Times,serif" font-size="14.00">to_set_id</text>
</a>
</g>
</g>
<!-- SetProp_to_set -->
<g id="node9" class="node"><title>SetProp_to_set</title>
<g id="a_node9"><a xlink:href="SetProp.html#to_set" xlink:title="to_set">
<ellipse fill="#f070d1" stroke="black" cx="67" cy="-81.2179" rx="31.6951" ry="18"/>
<text text-anchor="middle" x="67" y="-77.5179" font-family="Times,serif" font-size="14.00">to_set</text>
</a>
</g>
</g>
<!-- SetProp_to_set_id&#45;&gt;SetProp_to_set -->
<g id="edge5" class="edge"><title>SetProp_to_set_id&#45;&gt;SetProp_to_set</title>
<path fill="none" stroke="black" d="M67,-248.189C67,-212.041 67,-146.885 67,-109.55"/>
<polygon fill="black" stroke="black" points="70.5001,-109.361 67,-99.3613 63.5001,-109.361 70.5001,-109.361"/>
</g>
<!-- SetProp_to_prop_id -->
<g id="node6" class="node"><title>SetProp_to_prop_id</title>
<g id="a_node6"><a xlink:href="SetProp.html#to_prop_id" xlink:title="to_prop_id">
<ellipse fill="#f070d1" stroke="black" cx="193" cy="-274.218" rx="49.3059" ry="18"/>
<ellipse fill="none" stroke="black" cx="193" cy="-274.218" rx="53.2987" ry="22"/>
<ellipse fill="none" stroke="black" cx="193" cy="-274.218" rx="57.2914" ry="26"/>
<text text-anchor="middle" x="193" y="-270.518" font-family="Times,serif" font-size="14.00">to_prop_id</text>
</a>
</g>
</g>
<!-- SetProp_to_prop_id&#45;&gt;SetProp_to_prop -->
<g id="edge6" class="edge"><title>SetProp_to_prop_id&#45;&gt;SetProp_to_prop</title>
<path fill="none" stroke="black" d="M202.036,-248.189C214.671,-211.792 237.516,-145.985 250.431,-108.782"/>
<polygon fill="black" stroke="black" points="253.821,-109.69 253.794,-99.0949 247.208,-107.394 253.821,-109.69"/>
</g>
</g>
</svg>
