<?xml version="1.0" encoding="UTF-8" standalone="no"?>
<!DOCTYPE svg PUBLIC "-//W3C//DTD SVG 1.1//EN"
 "http://www.w3.org/Graphics/SVG/1.1/DTD/svg11.dtd">
<!-- Generated by graphviz version 2.26.3 (20100126.1600)
 -->
<!-- Title: HoTT_categories_Functor_Dual Pages: 1 -->
<svg width="642pt" height="325pt"
 viewBox="0.00 0.00 642.00 325.00" xmlns="http://www.w3.org/2000/svg" xmlns:xlink="http://www.w3.org/1999/xlink">
<g id="graph1" class="graph" transform="scale(1 1) rotate(0) translate(4 321)">
<title>HoTT_categories_Functor_Dual</title>
<polygon fill="white" stroke="white" points="-4,5 -4,-321 639,-321 639,5 -4,5"/>
<g id="graph2" class="cluster"><title>cluster_Dual</title>
<polygon fill="#ffffc3" stroke="black" points="8,-13.6344 8,-303.366 626,-303.366 626,-13.6344 8,-13.6344"/>
<text text-anchor="middle" x="32.5" y="-286.766" font-family="Times Roman,serif" font-size="14.00">Dual</text>
</g>
<!-- Dual_opposite__law -->
<g id="node1" class="node"><title>Dual_opposite__law</title>
<a xlink:href="Dual.html#opposite&#39;_law" xlink:title="opposite&#39;_law">
<ellipse fill="#f070d1" stroke="black" cx="532" cy="-199.634" rx="77.7817" ry="18.3848"/>
<ellipse fill="none" stroke="black" cx="532" cy="-199.634" rx="81.7817" ry="22.3848"/>
<ellipse fill="none" stroke="black" cx="532" cy="-199.634" rx="85.7817" ry="26.3848"/>
<text text-anchor="middle" x="532" y="-196.034" font-family="Times Roman,serif" font-size="14.00">opposite&#39;_law</text>
</a>
</g>
<!-- Dual_opposite_inv -->
<g id="node4" class="node"><title>Dual_opposite_inv</title>
<a xlink:href="Dual.html#opposite_inv" xlink:title="opposite_inv">
<ellipse fill="#f070d1" stroke="black" cx="510" cy="-59.6344" rx="72.832" ry="18.3848"/>
<text text-anchor="middle" x="510" y="-56.0344" font-family="Times Roman,serif" font-size="14.00">opposite_inv</text>
</a>
</g>
<!-- Dual_opposite__law&#45;&gt;Dual_opposite_inv -->
<g id="edge2" class="edge"><title>Dual_opposite__law&#45;&gt;Dual_opposite_inv</title>
<path fill="none" stroke="black" d="M527.81,-172.972C523.992,-148.675 518.37,-112.895 514.467,-88.0615"/>
<polygon fill="black" stroke="black" points="517.92,-87.4896 512.91,-78.1542 511.005,-88.5763 517.92,-87.4896"/>
</g>
<!-- Dual_opposite -->
<g id="node5" class="node"><title>Dual_opposite</title>
<a xlink:href="Dual.html#opposite" xlink:title="opposite">
<ellipse fill="#f070d1" stroke="black" cx="345" cy="-59.6344" rx="51.8276" ry="18.3848"/>
<text text-anchor="middle" x="345" y="-56.0344" font-family="Times Roman,serif" font-size="14.00">opposite</text>
</a>
</g>
<!-- Dual_opposite__law&#45;&gt;Dual_opposite -->
<g id="edge4" class="edge"><title>Dual_opposite__law&#45;&gt;Dual_opposite</title>
<path fill="none" stroke="black" d="M498.999,-174.927C464.104,-148.803 409.509,-107.93 375.566,-82.5183"/>
<polygon fill="black" stroke="black" points="377.509,-79.6006 367.406,-76.4092 373.314,-85.2042 377.509,-79.6006"/>
</g>
<!-- Dual_opposite_law -->
<g id="node2" class="node"><title>Dual_opposite_law</title>
<a xlink:href="Dual.html#opposite_law" xlink:title="opposite_law">
<ellipse fill="#f070d1" stroke="black" cx="345" cy="-199.634" rx="75.2074" ry="18.3848"/>
<ellipse fill="none" stroke="black" cx="345" cy="-199.634" rx="79.1834" ry="22.3848"/>
<ellipse fill="none" stroke="black" cx="345" cy="-199.634" rx="83.1595" ry="26.3848"/>
<text text-anchor="middle" x="345" y="-196.034" font-family="Times Roman,serif" font-size="14.00">opposite_law</text>
</a>
</g>
<!-- Dual_opposite_law&#45;&gt;Dual_opposite_inv -->
<g id="edge6" class="edge"><title>Dual_opposite_law&#45;&gt;Dual_opposite_inv</title>
<path fill="none" stroke="black" d="M374.499,-174.605C404.493,-149.156 450.696,-109.953 480.64,-84.5462"/>
<polygon fill="black" stroke="black" points="483.267,-86.9074 488.627,-77.7688 478.738,-81.5698 483.267,-86.9074"/>
</g>
<!-- Dual_opposite_law&#45;&gt;Dual_opposite -->
<g id="edge8" class="edge"><title>Dual_opposite_law&#45;&gt;Dual_opposite</title>
<path fill="none" stroke="black" d="M345,-172.972C345,-148.784 345,-113.214 345,-88.3948"/>
<polygon fill="black" stroke="black" points="348.5,-88.1542 345,-78.1542 341.5,-88.1542 348.5,-88.1542"/>
</g>
<!-- Dual_opposite_involutive -->
<g id="node3" class="node"><title>Dual_opposite_involutive</title>
<a xlink:href="Dual.html#opposite_involutive" xlink:title="opposite_involutive">
<ellipse fill="#f070d1" stroke="black" cx="130" cy="-199.634" rx="106.066" ry="18.3848"/>
<ellipse fill="none" stroke="black" cx="130" cy="-199.634" rx="110.066" ry="22.3848"/>
<ellipse fill="none" stroke="black" cx="130" cy="-199.634" rx="114.066" ry="26.3848"/>
<text text-anchor="middle" x="130" y="-196.034" font-family="Times Roman,serif" font-size="14.00">opposite_involutive</text>
</a>
</g>
<!-- Dual_opposite_involutive&#45;&gt;Dual_opposite -->
<g id="edge10" class="edge"><title>Dual_opposite_involutive&#45;&gt;Dual_opposite</title>
<path fill="none" stroke="black" d="M168.438,-174.605C209.028,-148.174 272.4,-106.909 311.16,-81.6695"/>
<polygon fill="black" stroke="black" points="313.513,-84.314 319.984,-75.9242 309.694,-78.448 313.513,-84.314"/>
</g>
</g>
</svg>
