<?xml version="1.0" encoding="UTF-8" standalone="no"?>
<!DOCTYPE svg PUBLIC "-//W3C//DTD SVG 1.1//EN"
 "http://www.w3.org/Graphics/SVG/1.1/DTD/svg11.dtd">
<!-- Generated by graphviz version 2.26.3 (20100126.1600)
 -->
<!-- Title: HoTT_FunextVarieties Pages: 1 -->
<svg width="1086pt" height="547pt"
 viewBox="0.00 0.00 1086.00 547.00" xmlns="http://www.w3.org/2000/svg" xmlns:xlink="http://www.w3.org/1999/xlink">
<g id="graph1" class="graph" transform="scale(1 1) rotate(0) translate(4 543)">
<title>HoTT_FunextVarieties</title>
<polygon fill="white" stroke="white" points="-4,5 -4,-543 1083,-543 1083,5 -4,5"/>
<g id="graph2" class="cluster"><title>cluster_FunextVarieties</title>
<polygon fill="#ffffc3" stroke="black" points="8,-12.9102 8,-526.09 1070,-526.09 1070,-12.9102 8,-12.9102"/>
<text text-anchor="middle" x="70.5" y="-509.49" font-family="Times Roman,serif" font-size="14.00">FunextVarieties</text>
</g>
<!-- FunextVarieties_WeakFunext_implies_Funext -->
<g id="node1" class="node"><title>FunextVarieties_WeakFunext_implies_Funext</title>
<a xlink:href="FunextVarieties.html#WeakFunext_implies_Funext" xlink:title="WeakFunext_implies_Funext">
<ellipse fill="#f070d1" stroke="black" cx="903" cy="-427.91" rx="150.846" ry="18.3848"/>
<ellipse fill="none" stroke="black" cx="903" cy="-427.91" rx="154.834" ry="22.3848"/>
<ellipse fill="none" stroke="black" cx="903" cy="-427.91" rx="158.821" ry="26.3848"/>
<text text-anchor="middle" x="903" y="-424.31" font-family="Times Roman,serif" font-size="14.00">WeakFunext_implies_Funext</text>
</a>
</g>
<!-- FunextVarieties_htpy_rect_beta -->
<g id="node2" class="node"><title>FunextVarieties_htpy_rect_beta</title>
<a xlink:href="FunextVarieties.html#htpy_rect_beta" xlink:title="htpy_rect_beta">
<ellipse fill="#f070d1" stroke="black" cx="792" cy="-294.91" rx="85.0596" ry="18.3848"/>
<text text-anchor="middle" x="792" y="-291.31" font-family="Times Roman,serif" font-size="14.00">htpy_rect_beta</text>
</a>
</g>
<!-- FunextVarieties_WeakFunext_implies_Funext&#45;&gt;FunextVarieties_htpy_rect_beta -->
<g id="edge2" class="edge"><title>FunextVarieties_WeakFunext_implies_Funext&#45;&gt;FunextVarieties_htpy_rect_beta</title>
<path fill="none" stroke="black" d="M881.07,-401.634C861.628,-378.338 833.382,-344.494 813.938,-321.196"/>
<polygon fill="black" stroke="black" points="816.551,-318.864 807.456,-313.429 811.176,-323.35 816.551,-318.864"/>
</g>
<!-- FunextVarieties_htpy_rect -->
<g id="node3" class="node"><title>FunextVarieties_htpy_rect</title>
<a xlink:href="FunextVarieties.html#htpy_rect" xlink:title="htpy_rect">
<ellipse fill="#f070d1" stroke="black" cx="953" cy="-294.91" rx="58.1882" ry="18.3848"/>
<text text-anchor="middle" x="953" y="-291.31" font-family="Times Roman,serif" font-size="14.00">htpy_rect</text>
</a>
</g>
<!-- FunextVarieties_WeakFunext_implies_Funext&#45;&gt;FunextVarieties_htpy_rect -->
<g id="edge4" class="edge"><title>FunextVarieties_WeakFunext_implies_Funext&#45;&gt;FunextVarieties_htpy_rect</title>
<path fill="none" stroke="black" d="M912.998,-401.315C921.538,-378.599 933.784,-346.026 942.472,-322.914"/>
<polygon fill="black" stroke="black" points="945.829,-323.93 946.072,-313.338 939.277,-321.467 945.829,-323.93"/>
</g>
<!-- FunextVarieties_contr_basedhtpy -->
<g id="node4" class="node"><title>FunextVarieties_contr_basedhtpy</title>
<a xlink:href="FunextVarieties.html#contr_basedhtpy" xlink:title="contr_basedhtpy">
<ellipse fill="#f070d1" stroke="black" cx="872" cy="-175.91" rx="92.1303" ry="18.3848"/>
<text text-anchor="middle" x="872" y="-172.31" font-family="Times Roman,serif" font-size="14.00">contr_basedhtpy</text>
</a>
</g>
<!-- FunextVarieties_htpy_rect_beta&#45;&gt;FunextVarieties_contr_basedhtpy -->
<g id="edge6" class="edge"><title>FunextVarieties_htpy_rect_beta&#45;&gt;FunextVarieties_contr_basedhtpy</title>
<path fill="none" stroke="black" d="M804.325,-276.577C817.558,-256.893 838.717,-225.419 853.853,-202.904"/>
<polygon fill="black" stroke="black" points="856.855,-204.712 859.53,-194.46 851.046,-200.806 856.855,-204.712"/>
</g>
<!-- FunextVarieties_htpy_rect&#45;&gt;FunextVarieties_contr_basedhtpy -->
<g id="edge8" class="edge"><title>FunextVarieties_htpy_rect&#45;&gt;FunextVarieties_contr_basedhtpy</title>
<path fill="none" stroke="black" d="M940.521,-276.577C927.123,-256.893 905.699,-225.419 890.374,-202.904"/>
<polygon fill="black" stroke="black" points="893.147,-200.757 884.626,-194.46 887.36,-204.696 893.147,-200.757"/>
</g>
<!-- FunextVarieties_WeakFunext -->
<g id="node7" class="node"><title>FunextVarieties_WeakFunext</title>
<a xlink:href="FunextVarieties.html#WeakFunext" xlink:title="WeakFunext">
<ellipse fill="#f070d1" stroke="black" cx="872" cy="-56.9102" rx="73.0388" ry="18.3848"/>
<text text-anchor="middle" x="872" y="-53.3102" font-family="Times Roman,serif" font-size="14.00">WeakFunext</text>
</a>
</g>
<!-- FunextVarieties_contr_basedhtpy&#45;&gt;FunextVarieties_WeakFunext -->
<g id="edge10" class="edge"><title>FunextVarieties_contr_basedhtpy&#45;&gt;FunextVarieties_WeakFunext</title>
<path fill="none" stroke="black" d="M872,-157.316C872,-138.217 872,-108.217 872,-85.978"/>
<polygon fill="black" stroke="black" points="875.5,-85.766 872,-75.7661 868.5,-85.7661 875.5,-85.766"/>
</g>
<!-- FunextVarieties_NaiveFunext_implies_WeakFunext -->
<g id="node5" class="node"><title>FunextVarieties_NaiveFunext_implies_WeakFunext</title>
<a xlink:href="FunextVarieties.html#NaiveFunext_implies_WeakFunext" xlink:title="NaiveFunext_implies_WeakFunext">
<ellipse fill="#f070d1" stroke="black" cx="539" cy="-427.91" rx="178.898" ry="18.3848"/>
<ellipse fill="none" stroke="black" cx="539" cy="-427.91" rx="182.898" ry="22.3848"/>
<ellipse fill="none" stroke="black" cx="539" cy="-427.91" rx="186.898" ry="26.3848"/>
<text text-anchor="middle" x="539" y="-424.31" font-family="Times Roman,serif" font-size="14.00">NaiveFunext_implies_WeakFunext</text>
</a>
</g>
<!-- FunextVarieties_NaiveFunext -->
<g id="node8" class="node"><title>FunextVarieties_NaiveFunext</title>
<a xlink:href="FunextVarieties.html#NaiveFunext" xlink:title="NaiveFunext">
<ellipse fill="#f070d1" stroke="black" cx="539" cy="-294.91" rx="73.0388" ry="18.3848"/>
<text text-anchor="middle" x="539" y="-291.31" font-family="Times Roman,serif" font-size="14.00">NaiveFunext</text>
</a>
</g>
<!-- FunextVarieties_NaiveFunext_implies_WeakFunext&#45;&gt;FunextVarieties_NaiveFunext -->
<g id="edge12" class="edge"><title>FunextVarieties_NaiveFunext_implies_WeakFunext&#45;&gt;FunextVarieties_NaiveFunext</title>
<path fill="none" stroke="black" d="M539,-401.315C539,-378.934 539,-346.983 539,-323.941"/>
<polygon fill="black" stroke="black" points="542.5,-323.738 539,-313.738 535.5,-323.738 542.5,-323.738"/>
</g>
<!-- FunextVarieties_Funext_implies_NaiveFunext -->
<g id="node6" class="node"><title>FunextVarieties_Funext_implies_NaiveFunext</title>
<a xlink:href="FunextVarieties.html#Funext_implies_NaiveFunext" xlink:title="Funext_implies_NaiveFunext">
<ellipse fill="#f070d1" stroke="black" cx="175" cy="-427.91" rx="150.846" ry="18.3848"/>
<ellipse fill="none" stroke="black" cx="175" cy="-427.91" rx="154.834" ry="22.3848"/>
<ellipse fill="none" stroke="black" cx="175" cy="-427.91" rx="158.821" ry="26.3848"/>
<text text-anchor="middle" x="175" y="-424.31" font-family="Times Roman,serif" font-size="14.00">Funext_implies_NaiveFunext</text>
</a>
</g>
</g>
</svg>
