<?xml version="1.0" encoding="UTF-8" standalone="no"?>
<!DOCTYPE svg PUBLIC "-//W3C//DTD SVG 1.1//EN"
 "http://www.w3.org/Graphics/SVG/1.1/DTD/svg11.dtd">
<!-- Generated by graphviz version 2.26.3 (20100126.1600)
 -->
<!-- Title: HoTT_hit_Connectedness Pages: 1 -->
<svg width="1542pt" height="775pt"
 viewBox="0.00 0.00 1542.00 775.00" xmlns="http://www.w3.org/2000/svg" xmlns:xlink="http://www.w3.org/1999/xlink">
<g id="graph1" class="graph" transform="scale(1 1) rotate(0) translate(4 771)">
<title>HoTT_hit_Connectedness</title>
<polygon fill="white" stroke="white" points="-4,5 -4,-771 1539,-771 1539,5 -4,5"/>
<g id="graph2" class="cluster"><title>cluster_Connectedness</title>
<polygon fill="#ffffc3" stroke="black" points="8,-32.9892 8,-734.011 1526,-734.011 1526,-32.9892 8,-32.9892"/>
<text text-anchor="middle" x="68.5" y="-717.411" font-family="Times Roman,serif" font-size="14.00">Connectedness</text>
</g>
<!-- Connectedness_wedge_incl_elim_uncurried -->
<g id="node1" class="node"><title>Connectedness_wedge_incl_elim_uncurried</title>
<a xlink:href="Connectedness.html#wedge_incl_elim_uncurried" xlink:title="wedge_incl_elim_uncurried">
<ellipse fill="#f070d1" stroke="black" cx="1367" cy="-481.989" rx="143.069" ry="18.3848"/>
<ellipse fill="none" stroke="black" cx="1367" cy="-481.989" rx="147.056" ry="22.3848"/>
<ellipse fill="none" stroke="black" cx="1367" cy="-481.989" rx="151.043" ry="26.3848"/>
<text text-anchor="middle" x="1367" y="-478.389" font-family="Times Roman,serif" font-size="14.00">wedge_incl_elim_uncurried</text>
</a>
</g>
<!-- Connectedness_wedge_incl_elim -->
<g id="node5" class="node"><title>Connectedness_wedge_incl_elim</title>
<a xlink:href="Connectedness.html#wedge_incl_elim" xlink:title="wedge_incl_elim">
<ellipse fill="#f070d1" stroke="black" cx="1367" cy="-143.989" rx="91.2168" ry="18.3848"/>
<text text-anchor="middle" x="1367" y="-140.389" font-family="Times Roman,serif" font-size="14.00">wedge_incl_elim</text>
</a>
</g>
<!-- Connectedness_wedge_incl_elim_uncurried&#45;&gt;Connectedness_wedge_incl_elim -->
<g id="edge2" class="edge"><title>Connectedness_wedge_incl_elim_uncurried&#45;&gt;Connectedness_wedge_incl_elim</title>
<path fill="none" stroke="black" d="M1367,-455.467C1367,-393.09 1367,-237.491 1367,-172.852"/>
<polygon fill="black" stroke="black" points="1370.5,-172.583 1367,-162.583 1363.5,-172.583 1370.5,-172.583"/>
</g>
<!-- Connectedness_wedge_incl_comp3 -->
<g id="node2" class="node"><title>Connectedness_wedge_incl_comp3</title>
<a xlink:href="Connectedness.html#wedge_incl_comp3" xlink:title="wedge_incl_comp3">
<ellipse fill="#f070d1" stroke="black" cx="1087" cy="-481.989" rx="103.238" ry="18.3848"/>
<ellipse fill="none" stroke="black" cx="1087" cy="-481.989" rx="107.238" ry="22.3848"/>
<ellipse fill="none" stroke="black" cx="1087" cy="-481.989" rx="111.238" ry="26.3848"/>
<text text-anchor="middle" x="1087" y="-478.389" font-family="Times Roman,serif" font-size="14.00">wedge_incl_comp3</text>
</a>
</g>
<!-- Connectedness_wedge_incl_comp2 -->
<g id="node3" class="node"><title>Connectedness_wedge_incl_comp2</title>
<a xlink:href="Connectedness.html#wedge_incl_comp2" xlink:title="wedge_incl_comp2">
<ellipse fill="#f070d1" stroke="black" cx="847" cy="-481.989" rx="103.238" ry="18.3848"/>
<ellipse fill="none" stroke="black" cx="847" cy="-481.989" rx="107.238" ry="22.3848"/>
<ellipse fill="none" stroke="black" cx="847" cy="-481.989" rx="111.238" ry="26.3848"/>
<text text-anchor="middle" x="847" y="-478.389" font-family="Times Roman,serif" font-size="14.00">wedge_incl_comp2</text>
</a>
</g>
<!-- Connectedness_wedge_incl_comp1 -->
<g id="node4" class="node"><title>Connectedness_wedge_incl_comp1</title>
<a xlink:href="Connectedness.html#wedge_incl_comp1" xlink:title="wedge_incl_comp1">
<ellipse fill="#f070d1" stroke="black" cx="607" cy="-481.989" rx="103.238" ry="18.3848"/>
<ellipse fill="none" stroke="black" cx="607" cy="-481.989" rx="107.238" ry="22.3848"/>
<ellipse fill="none" stroke="black" cx="607" cy="-481.989" rx="111.238" ry="26.3848"/>
<text text-anchor="middle" x="607" y="-478.389" font-family="Times Roman,serif" font-size="14.00">wedge_incl_comp1</text>
</a>
</g>
<!-- Connectedness_isconn_wedge_incl -->
<g id="node6" class="node"><title>Connectedness_isconn_wedge_incl</title>
<a xlink:href="Connectedness.html#isconn_wedge_incl" xlink:title="isconn_wedge_incl">
<ellipse fill="#facdef" stroke="black" cx="368" cy="-481.989" rx="101.823" ry="18.3848"/>
<ellipse fill="none" stroke="black" cx="368" cy="-481.989" rx="105.823" ry="22.3848"/>
<ellipse fill="none" stroke="black" cx="368" cy="-481.989" rx="109.823" ry="26.3848"/>
<text text-anchor="middle" x="368" y="-478.389" font-family="Times Roman,serif" font-size="14.00">isconn_wedge_incl</text>
</a>
</g>
<!-- Connectedness_conn_point_incl -->
<g id="node7" class="node"><title>Connectedness_conn_point_incl</title>
<a xlink:href="Connectedness.html#conn_point_incl" xlink:title="conn_point_incl">
<ellipse fill="#f070d1" stroke="black" cx="236" cy="-143.989" rx="86.9741" ry="18.3848"/>
<text text-anchor="middle" x="236" y="-140.389" font-family="Times Roman,serif" font-size="14.00">conn_point_incl</text>
</a>
</g>
<!-- Connectedness_isconn_wedge_incl&#45;&gt;Connectedness_conn_point_incl -->
<g id="edge4" class="edge"><title>Connectedness_isconn_wedge_incl&#45;&gt;Connectedness_conn_point_incl</title>
<path fill="none" stroke="black" d="M357.642,-455.467C333.181,-392.832 272.013,-236.204 246.961,-172.055"/>
<polygon fill="black" stroke="black" points="250.159,-170.624 243.261,-162.583 243.639,-173.171 250.159,-170.624"/>
</g>
<!-- Connectedness_istrunc_extension_along_conn -->
<g id="node9" class="node"><title>Connectedness_istrunc_extension_along_conn</title>
<a xlink:href="Connectedness.html#istrunc_extension_along_conn" xlink:title="istrunc_extension_along_conn">
<ellipse fill="#f070d1" stroke="black" cx="499" cy="-143.989" rx="157.892" ry="18.3848"/>
<text text-anchor="middle" x="499" y="-140.389" font-family="Times Roman,serif" font-size="14.00">istrunc_extension_along_conn</text>
</a>
</g>
<!-- Connectedness_isconn_wedge_incl&#45;&gt;Connectedness_istrunc_extension_along_conn -->
<g id="edge6" class="edge"><title>Connectedness_isconn_wedge_incl&#45;&gt;Connectedness_istrunc_extension_along_conn</title>
<path fill="none" stroke="black" d="M378.279,-455.467C402.555,-392.832 463.26,-236.204 488.122,-172.055"/>
<polygon fill="black" stroke="black" points="491.443,-173.172 491.794,-162.583 484.916,-170.642 491.443,-173.172"/>
</g>
<!-- Connectedness_conn_pointed_type -->
<g id="node8" class="node"><title>Connectedness_conn_pointed_type</title>
<a xlink:href="Connectedness.html#conn_pointed_type" xlink:title="conn_pointed_type">
<ellipse fill="#f070d1" stroke="black" cx="128" cy="-481.989" rx="103.945" ry="18.3848"/>
<ellipse fill="none" stroke="black" cx="128" cy="-481.989" rx="107.945" ry="22.3848"/>
<ellipse fill="none" stroke="black" cx="128" cy="-481.989" rx="111.945" ry="26.3848"/>
<text text-anchor="middle" x="128" y="-478.389" font-family="Times Roman,serif" font-size="14.00">conn_pointed_type</text>
</a>
</g>
</g>
</svg>
