<?xml version="1.0" encoding="UTF-8" standalone="no"?>
<!DOCTYPE svg PUBLIC "-//W3C//DTD SVG 1.1//EN"
 "http://www.w3.org/Graphics/SVG/1.1/DTD/svg11.dtd">
<!-- Generated by graphviz version 2.39.20161220.0128 (20161220.0128)
 -->
<!-- Title: HoTT_Categories_ExponentialLaws_Law2_Functors Pages: 1 -->
<svg width="366pt" height="187pt"
 viewBox="0.00 0.00 366.00 187.00" xmlns="http://www.w3.org/2000/svg" xmlns:xlink="http://www.w3.org/1999/xlink">
<g id="graph0" class="graph" transform="scale(1 1) rotate(0) translate(4 183)">
<title>HoTT_Categories_ExponentialLaws_Law2_Functors</title>
<polygon fill="#ffffff" stroke="transparent" points="-4,4 -4,-183 362,-183 362,4 -4,4"/>
<g id="clust1" class="cluster">
<title>cluster_Functors</title>
<polygon fill="#ffffc3" stroke="#000000" points="8.3014,-8 8.3014,-171 349.6986,-171 349.6986,-8 8.3014,-8"/>
<text text-anchor="middle" x="40.3014" y="-155.8" font-family="Times,serif" font-size="14.00" fill="#000000">Functors</text>
</g>
<!-- Functors_inverse -->
<g id="node1" class="node">
<title>Functors_inverse</title>
<g id="a_node1"><a xlink:href="Functors.html#inverse" xlink:title="inverse">
<ellipse fill="#f070d1" stroke="#000000" cx="244.2551" cy="-114" rx="36.3123" ry="18"/>
<ellipse fill="none" stroke="#000000" cx="244.2551" cy="-114" rx="40.3031" ry="22"/>
<ellipse fill="none" stroke="#000000" cx="244.2551" cy="-114" rx="44.2938" ry="26"/>
<text text-anchor="middle" x="244.2551" y="-110.3" font-family="Times,serif" font-size="14.00" fill="#000000">inverse</text>
</a>
</g>
</g>
<!-- Functors_inverse_subproof0 -->
<g id="node2" class="node">
<title>Functors_inverse_subproof0</title>
<g id="a_node2"><a xlink:href="Functors.html#inverse_subproof0" xlink:title="inverse_subproof0">
<ellipse fill="#facdef" stroke="#000000" cx="95.2551" cy="-34" rx="76.0865" ry="18"/>
<text text-anchor="middle" x="95.2551" y="-30.3" font-family="Times,serif" font-size="14.00" fill="#000000">inverse_subproof0</text>
</a>
</g>
</g>
<!-- Functors_inverse&#45;&gt;Functors_inverse_subproof0 -->
<g id="edge1" class="edge">
<title>Functors_inverse&#45;&gt;Functors_inverse_subproof0</title>
<path fill="none" stroke="#000000" d="M211.1871,-96.2454C188.7834,-84.2165 159.0499,-68.2522 135.3043,-55.503"/>
<polygon fill="#000000" stroke="#000000" points="136.6619,-52.2593 126.1958,-50.6125 133.3506,-58.4266 136.6619,-52.2593"/>
</g>
<!-- Functors_inverse_subproof -->
<g id="node3" class="node">
<title>Functors_inverse_subproof</title>
<g id="a_node3"><a xlink:href="Functors.html#inverse_subproof" xlink:title="inverse_subproof">
<ellipse fill="#facdef" stroke="#000000" cx="267.2551" cy="-34" rx="71.4873" ry="18"/>
<text text-anchor="middle" x="267.2551" y="-30.3" font-family="Times,serif" font-size="14.00" fill="#000000">inverse_subproof</text>
</a>
</g>
</g>
<!-- Functors_inverse&#45;&gt;Functors_inverse_subproof -->
<g id="edge2" class="edge">
<title>Functors_inverse&#45;&gt;Functors_inverse_subproof</title>
<path fill="none" stroke="#000000" d="M251.659,-88.2471C254.0491,-79.934 256.7106,-70.6764 259.1487,-62.1962"/>
<polygon fill="#000000" stroke="#000000" points="262.579,-62.9314 261.9784,-52.3536 255.8515,-60.9972 262.579,-62.9314"/>
</g>
<!-- Functors_functor -->
<g id="node4" class="node">
<title>Functors_functor</title>
<g id="a_node4"><a xlink:href="Functors.html#functor" xlink:title="functor">
<ellipse fill="#f070d1" stroke="#000000" cx="109.2551" cy="-114" rx="36.3123" ry="18"/>
<ellipse fill="none" stroke="#000000" cx="109.2551" cy="-114" rx="40.3031" ry="22"/>
<ellipse fill="none" stroke="#000000" cx="109.2551" cy="-114" rx="44.2938" ry="26"/>
<text text-anchor="middle" x="109.2551" y="-110.3" font-family="Times,serif" font-size="14.00" fill="#000000">functor</text>
</a>
</g>
</g>
</g>
</svg>
