<?xml version="1.0" encoding="UTF-8" standalone="no"?>
<!DOCTYPE svg PUBLIC "-//W3C//DTD SVG 1.1//EN"
 "http://www.w3.org/Graphics/SVG/1.1/DTD/svg11.dtd">
<!-- Generated by graphviz version 2.26.3 (20100126.1600)
 -->
<!-- Title: HoTT_EquivalenceVarieties Pages: 1 -->
<svg width="1474pt" height="741pt"
 viewBox="0.00 0.00 1474.00 741.00" xmlns="http://www.w3.org/2000/svg" xmlns:xlink="http://www.w3.org/1999/xlink">
<g id="graph1" class="graph" transform="scale(1 1) rotate(0) translate(4 737)">
<title>HoTT_EquivalenceVarieties</title>
<polygon fill="white" stroke="white" points="-4,5 -4,-737 1471,-737 1471,5 -4,5"/>
<g id="graph2" class="cluster"><title>cluster_EquivalenceVarieties</title>
<polygon fill="#ffffc3" stroke="black" points="8,-12.8596 8,-720.14 1458,-720.14 1458,-12.8596 8,-12.8596"/>
<text text-anchor="middle" x="87.5" y="-703.54" font-family="Times Roman,serif" font-size="14.00">EquivalenceVarieties</text>
</g>
<!-- EquivalenceVarieties_equiv_oopathsplit_isequiv -->
<g id="node1" class="node"><title>EquivalenceVarieties_equiv_oopathsplit_isequiv</title>
<a xlink:href="EquivalenceVarieties.html#equiv_oopathsplit_isequiv" xlink:title="equiv_oopathsplit_isequiv">
<ellipse fill="#f070d1" stroke="black" cx="866" cy="-621.86" rx="137.179" ry="18.3848"/>
<ellipse fill="none" stroke="black" cx="866" cy="-621.86" rx="141.179" ry="22.3848"/>
<ellipse fill="none" stroke="black" cx="866" cy="-621.86" rx="145.179" ry="26.3848"/>
<text text-anchor="middle" x="866" y="-618.26" font-family="Times Roman,serif" font-size="14.00">equiv_oopathsplit_isequiv</text>
</a>
</g>
<!-- EquivalenceVarieties_ishprop_oopathsplit -->
<g id="node2" class="node"><title>EquivalenceVarieties_ishprop_oopathsplit</title>
<a xlink:href="EquivalenceVarieties.html#ishprop_oopathsplit" xlink:title="ishprop_oopathsplit">
<ellipse fill="#f070d1" stroke="black" cx="878" cy="-477.86" rx="106.773" ry="18.3848"/>
<text text-anchor="middle" x="878" y="-474.26" font-family="Times Roman,serif" font-size="14.00">ishprop_oopathsplit</text>
</a>
</g>
<!-- EquivalenceVarieties_equiv_oopathsplit_isequiv&#45;&gt;EquivalenceVarieties_ishprop_oopathsplit -->
<g id="edge2" class="edge"><title>EquivalenceVarieties_equiv_oopathsplit_isequiv&#45;&gt;EquivalenceVarieties_ishprop_oopathsplit</title>
<path fill="none" stroke="black" d="M868.229,-595.112C870.317,-570.061 873.428,-532.718 875.577,-506.938"/>
<polygon fill="black" stroke="black" points="879.09,-506.923 876.433,-496.667 872.114,-506.341 879.09,-506.923"/>
</g>
<!-- EquivalenceVarieties_contr_oopathsplit_isequiv -->
<g id="node3" class="node"><title>EquivalenceVarieties_contr_oopathsplit_isequiv</title>
<a xlink:href="EquivalenceVarieties.html#contr_oopathsplit_isequiv" xlink:title="contr_oopathsplit_isequiv">
<ellipse fill="#f070d1" stroke="black" cx="878" cy="-332.86" rx="135.765" ry="18.3848"/>
<text text-anchor="middle" x="878" y="-329.26" font-family="Times Roman,serif" font-size="14.00">contr_oopathsplit_isequiv</text>
</a>
</g>
<!-- EquivalenceVarieties_ishprop_oopathsplit&#45;&gt;EquivalenceVarieties_contr_oopathsplit_isequiv -->
<g id="edge4" class="edge"><title>EquivalenceVarieties_ishprop_oopathsplit&#45;&gt;EquivalenceVarieties_contr_oopathsplit_isequiv</title>
<path fill="none" stroke="black" d="M878,-459.2C878,-434.512 878,-390.743 878,-361.76"/>
<polygon fill="black" stroke="black" points="881.5,-361.447 878,-351.447 874.5,-361.447 881.5,-361.447"/>
</g>
<!-- EquivalenceVarieties_isequiv_oopathsplit -->
<g id="node4" class="node"><title>EquivalenceVarieties_isequiv_oopathsplit</title>
<a xlink:href="EquivalenceVarieties.html#isequiv_oopathsplit" xlink:title="isequiv_oopathsplit">
<ellipse fill="#f070d1" stroke="black" cx="1345" cy="-332.86" rx="104.86" ry="18.3848"/>
<text text-anchor="middle" x="1345" y="-329.26" font-family="Times Roman,serif" font-size="14.00">isequiv_oopathsplit</text>
</a>
</g>
<!-- EquivalenceVarieties_ishprop_oopathsplit&#45;&gt;EquivalenceVarieties_isequiv_oopathsplit -->
<g id="edge6" class="edge"><title>EquivalenceVarieties_ishprop_oopathsplit&#45;&gt;EquivalenceVarieties_isequiv_oopathsplit</title>
<path fill="none" stroke="black" d="M930.211,-461.648C1017.02,-434.696 1190.62,-380.793 1283.32,-352.01"/>
<polygon fill="black" stroke="black" points="1284.61,-355.275 1293.12,-348.967 1282.54,-348.589 1284.61,-355.275"/>
</g>
<!-- EquivalenceVarieties_contr_pathsplit_isequiv -->
<g id="node9" class="node"><title>EquivalenceVarieties_contr_pathsplit_isequiv</title>
<a xlink:href="EquivalenceVarieties.html#contr_pathsplit_isequiv" xlink:title="contr_pathsplit_isequiv">
<ellipse fill="#f070d1" stroke="black" cx="970" cy="-187.86" rx="123.951" ry="18.3848"/>
<text text-anchor="middle" x="970" y="-184.26" font-family="Times Roman,serif" font-size="14.00">contr_pathsplit_isequiv</text>
</a>
</g>
<!-- EquivalenceVarieties_contr_oopathsplit_isequiv&#45;&gt;EquivalenceVarieties_contr_pathsplit_isequiv -->
<g id="edge8" class="edge"><title>EquivalenceVarieties_contr_oopathsplit_isequiv&#45;&gt;EquivalenceVarieties_contr_pathsplit_isequiv</title>
<path fill="none" stroke="black" d="M889.839,-314.2C905.779,-289.077 934.257,-244.194 952.626,-215.242"/>
<polygon fill="black" stroke="black" points="955.804,-216.766 958.206,-206.447 949.894,-213.016 955.804,-216.766"/>
</g>
<!-- EquivalenceVarieties_ooPathSplit -->
<g id="node5" class="node"><title>EquivalenceVarieties_ooPathSplit</title>
<a xlink:href="EquivalenceVarieties.html#ooPathSplit" xlink:title="ooPathSplit">
<ellipse fill="#f070d1" stroke="black" cx="1383" cy="-187.86" rx="67.1751" ry="18.3848"/>
<text text-anchor="middle" x="1383" y="-184.26" font-family="Times Roman,serif" font-size="14.00">ooPathSplit</text>
</a>
</g>
<!-- EquivalenceVarieties_isequiv_oopathsplit&#45;&gt;EquivalenceVarieties_ooPathSplit -->
<g id="edge10" class="edge"><title>EquivalenceVarieties_isequiv_oopathsplit&#45;&gt;EquivalenceVarieties_ooPathSplit</title>
<path fill="none" stroke="black" d="M1349.89,-314.2C1356.39,-289.404 1367.93,-245.357 1375.53,-216.378"/>
<polygon fill="black" stroke="black" points="1378.98,-217.008 1378.13,-206.447 1372.21,-215.233 1378.98,-217.008"/>
</g>
<!-- EquivalenceVarieties_isequiv_pathsplit -->
<g id="node10" class="node"><title>EquivalenceVarieties_isequiv_pathsplit</title>
<a xlink:href="EquivalenceVarieties.html#isequiv_pathsplit" xlink:title="isequiv_pathsplit">
<ellipse fill="#f070d1" stroke="black" cx="1205" cy="-187.86" rx="92.839" ry="18.3848"/>
<text text-anchor="middle" x="1205" y="-184.26" font-family="Times Roman,serif" font-size="14.00">isequiv_pathsplit</text>
</a>
</g>
<!-- EquivalenceVarieties_isequiv_oopathsplit&#45;&gt;EquivalenceVarieties_isequiv_pathsplit -->
<g id="edge12" class="edge"><title>EquivalenceVarieties_isequiv_oopathsplit&#45;&gt;EquivalenceVarieties_isequiv_pathsplit</title>
<path fill="none" stroke="black" d="M1327.27,-314.495C1302.55,-288.892 1257.62,-242.361 1229.65,-213.393"/>
<polygon fill="black" stroke="black" points="1232.05,-210.838 1222.59,-206.075 1227.02,-215.7 1232.05,-210.838"/>
</g>
<!-- EquivalenceVarieties_PathSplit -->
<g id="node11" class="node"><title>EquivalenceVarieties_PathSplit</title>
<a xlink:href="EquivalenceVarieties.html#PathSplit" xlink:title="PathSplit">
<ellipse fill="#f070d1" stroke="black" cx="1205" cy="-55.8596" rx="55.8614" ry="18.3848"/>
<text text-anchor="middle" x="1205" y="-52.2596" font-family="Times Roman,serif" font-size="14.00">PathSplit</text>
</a>
</g>
<!-- EquivalenceVarieties_ooPathSplit&#45;&gt;EquivalenceVarieties_PathSplit -->
<g id="edge14" class="edge"><title>EquivalenceVarieties_ooPathSplit&#45;&gt;EquivalenceVarieties_PathSplit</title>
<path fill="none" stroke="black" d="M1359.36,-170.331C1327.72,-146.863 1271.5,-105.171 1236.34,-79.1032"/>
<polygon fill="black" stroke="black" points="1238.01,-75.9783 1227.89,-72.833 1233.84,-81.6009 1238.01,-75.9783"/>
</g>
<!-- EquivalenceVarieties_equiv_functor_pathsplit -->
<g id="node6" class="node"><title>EquivalenceVarieties_equiv_functor_pathsplit</title>
<a xlink:href="EquivalenceVarieties.html#equiv_functor_pathsplit" xlink:title="equiv_functor_pathsplit">
<ellipse fill="#f070d1" stroke="black" cx="1163" cy="-621.86" rx="126.102" ry="18.3848"/>
<ellipse fill="none" stroke="black" cx="1163" cy="-621.86" rx="130.087" ry="22.3848"/>
<ellipse fill="none" stroke="black" cx="1163" cy="-621.86" rx="134.072" ry="26.3848"/>
<text text-anchor="middle" x="1163" y="-618.26" font-family="Times Roman,serif" font-size="14.00">equiv_functor_pathsplit</text>
</a>
</g>
<!-- EquivalenceVarieties_equiv_pathsplit_isequiv -->
<g id="node7" class="node"><title>EquivalenceVarieties_equiv_pathsplit_isequiv</title>
<a xlink:href="EquivalenceVarieties.html#equiv_pathsplit_isequiv" xlink:title="equiv_pathsplit_isequiv">
<ellipse fill="#f070d1" stroke="black" cx="1151" cy="-477.86" rx="125.158" ry="18.3848"/>
<text text-anchor="middle" x="1151" y="-474.26" font-family="Times Roman,serif" font-size="14.00">equiv_pathsplit_isequiv</text>
</a>
</g>
<!-- EquivalenceVarieties_equiv_functor_pathsplit&#45;&gt;EquivalenceVarieties_equiv_pathsplit_isequiv -->
<g id="edge16" class="edge"><title>EquivalenceVarieties_equiv_functor_pathsplit&#45;&gt;EquivalenceVarieties_equiv_pathsplit_isequiv</title>
<path fill="none" stroke="black" d="M1160.77,-595.112C1158.68,-570.061 1155.57,-532.718 1153.42,-506.938"/>
<polygon fill="black" stroke="black" points="1156.89,-506.341 1152.57,-496.667 1149.91,-506.923 1156.89,-506.341"/>
</g>
<!-- EquivalenceVarieties_ishprop_pathsplit -->
<g id="node8" class="node"><title>EquivalenceVarieties_ishprop_pathsplit</title>
<a xlink:href="EquivalenceVarieties.html#ishprop_pathsplit" xlink:title="ishprop_pathsplit">
<ellipse fill="#f070d1" stroke="black" cx="1127" cy="-332.86" rx="94.7523" ry="18.3848"/>
<text text-anchor="middle" x="1127" y="-329.26" font-family="Times Roman,serif" font-size="14.00">ishprop_pathsplit</text>
</a>
</g>
<!-- EquivalenceVarieties_equiv_pathsplit_isequiv&#45;&gt;EquivalenceVarieties_ishprop_pathsplit -->
<g id="edge18" class="edge"><title>EquivalenceVarieties_equiv_pathsplit_isequiv&#45;&gt;EquivalenceVarieties_ishprop_pathsplit</title>
<path fill="none" stroke="black" d="M1147.91,-459.2C1143.81,-434.404 1136.52,-390.357 1131.72,-361.378"/>
<polygon fill="black" stroke="black" points="1135.16,-360.742 1130.08,-351.447 1128.26,-361.885 1135.16,-360.742"/>
</g>
<!-- EquivalenceVarieties_ishprop_pathsplit&#45;&gt;EquivalenceVarieties_contr_pathsplit_isequiv -->
<g id="edge20" class="edge"><title>EquivalenceVarieties_ishprop_pathsplit&#45;&gt;EquivalenceVarieties_contr_pathsplit_isequiv</title>
<path fill="none" stroke="black" d="M1107.12,-314.495C1079.43,-288.923 1029.14,-242.475 997.762,-213.5"/>
<polygon fill="black" stroke="black" points="999.94,-210.746 990.219,-206.533 995.19,-215.889 999.94,-210.746"/>
</g>
<!-- EquivalenceVarieties_ishprop_pathsplit&#45;&gt;EquivalenceVarieties_isequiv_pathsplit -->
<g id="edge22" class="edge"><title>EquivalenceVarieties_ishprop_pathsplit&#45;&gt;EquivalenceVarieties_isequiv_pathsplit</title>
<path fill="none" stroke="black" d="M1137.04,-314.2C1150.49,-289.186 1174.49,-244.582 1190.07,-215.619"/>
<polygon fill="black" stroke="black" points="1193.35,-216.912 1195,-206.447 1187.18,-213.596 1193.35,-216.912"/>
</g>
<!-- EquivalenceVarieties_contr_pathsplit_isequiv&#45;&gt;EquivalenceVarieties_PathSplit -->
<g id="edge24" class="edge"><title>EquivalenceVarieties_contr_pathsplit_isequiv&#45;&gt;EquivalenceVarieties_PathSplit</title>
<path fill="none" stroke="black" d="M1002.18,-169.782C1045.34,-145.539 1121.82,-102.58 1167.53,-76.9084"/>
<polygon fill="black" stroke="black" points="1169.51,-79.8094 1176.51,-71.8605 1166.08,-73.7063 1169.51,-79.8094"/>
</g>
<!-- EquivalenceVarieties_fcontr_isequiv -->
<g id="node22" class="node"><title>EquivalenceVarieties_fcontr_isequiv</title>
<a xlink:href="EquivalenceVarieties.html#fcontr_isequiv" xlink:title="fcontr_isequiv">
<ellipse fill="#f070d1" stroke="black" cx="590" cy="-55.8596" rx="79.9031" ry="18.3848"/>
<text text-anchor="middle" x="590" y="-52.2596" font-family="Times Roman,serif" font-size="14.00">fcontr_isequiv</text>
</a>
</g>
<!-- EquivalenceVarieties_contr_pathsplit_isequiv&#45;&gt;EquivalenceVarieties_fcontr_isequiv -->
<g id="edge26" class="edge"><title>EquivalenceVarieties_contr_pathsplit_isequiv&#45;&gt;EquivalenceVarieties_fcontr_isequiv</title>
<path fill="none" stroke="black" d="M920.711,-170.738C849.409,-145.97 717.958,-100.308 644.072,-74.6424"/>
<polygon fill="black" stroke="black" points="645.073,-71.2852 634.478,-71.31 642.776,-77.8976 645.073,-71.2852"/>
</g>
<!-- EquivalenceVarieties_isequiv_pathsplit&#45;&gt;EquivalenceVarieties_PathSplit -->
<g id="edge28" class="edge"><title>EquivalenceVarieties_isequiv_pathsplit&#45;&gt;EquivalenceVarieties_PathSplit</title>
<path fill="none" stroke="black" d="M1205,-169.227C1205,-147.214 1205,-110.344 1205,-84.6491"/>
<polygon fill="black" stroke="black" points="1208.5,-84.3972 1205,-74.3973 1201.5,-84.3973 1208.5,-84.3972"/>
</g>
<!-- EquivalenceVarieties_isequiv_fcontr -->
<g id="node21" class="node"><title>EquivalenceVarieties_isequiv_fcontr</title>
<a xlink:href="EquivalenceVarieties.html#isequiv_fcontr" xlink:title="isequiv_fcontr">
<ellipse fill="#f070d1" stroke="black" cx="880" cy="-55.8596" rx="79.9031" ry="18.3848"/>
<text text-anchor="middle" x="880" y="-52.2596" font-family="Times Roman,serif" font-size="14.00">isequiv_fcontr</text>
</a>
</g>
<!-- EquivalenceVarieties_isequiv_pathsplit&#45;&gt;EquivalenceVarieties_isequiv_fcontr -->
<g id="edge30" class="edge"><title>EquivalenceVarieties_isequiv_pathsplit&#45;&gt;EquivalenceVarieties_isequiv_fcontr</title>
<path fill="none" stroke="black" d="M1163.84,-171.142C1104.05,-146.859 993.35,-101.897 929.294,-75.8805"/>
<polygon fill="black" stroke="black" points="930.393,-72.5492 919.811,-72.0289 927.759,-79.0347 930.393,-72.5492"/>
</g>
<!-- EquivalenceVarieties_equiv_biinv_isequiv -->
<g id="node12" class="node"><title>EquivalenceVarieties_equiv_biinv_isequiv</title>
<a xlink:href="EquivalenceVarieties.html#equiv_biinv_isequiv" xlink:title="equiv_biinv_isequiv">
<ellipse fill="#f070d1" stroke="black" cx="274" cy="-477.86" rx="106.066" ry="18.3848"/>
<ellipse fill="none" stroke="black" cx="274" cy="-477.86" rx="110.066" ry="22.3848"/>
<ellipse fill="none" stroke="black" cx="274" cy="-477.86" rx="114.066" ry="26.3848"/>
<text text-anchor="middle" x="274" y="-474.26" font-family="Times Roman,serif" font-size="14.00">equiv_biinv_isequiv</text>
</a>
</g>
<!-- EquivalenceVarieties_isprop_biinv -->
<g id="node13" class="node"><title>EquivalenceVarieties_isprop_biinv</title>
<a xlink:href="EquivalenceVarieties.html#isprop_biinv" xlink:title="isprop_biinv">
<ellipse fill="#f070d1" stroke="black" cx="274" cy="-332.86" rx="68.7979" ry="18.3848"/>
<text text-anchor="middle" x="274" y="-329.26" font-family="Times Roman,serif" font-size="14.00">isprop_biinv</text>
</a>
</g>
<!-- EquivalenceVarieties_equiv_biinv_isequiv&#45;&gt;EquivalenceVarieties_isprop_biinv -->
<g id="edge32" class="edge"><title>EquivalenceVarieties_equiv_biinv_isequiv&#45;&gt;EquivalenceVarieties_isprop_biinv</title>
<path fill="none" stroke="black" d="M274,-451.264C274,-425.827 274,-387.581 274,-361.487"/>
<polygon fill="black" stroke="black" points="277.5,-361.459 274,-351.459 270.5,-361.459 277.5,-361.459"/>
</g>
<!-- EquivalenceVarieties_isequiv_biinv -->
<g id="node14" class="node"><title>EquivalenceVarieties_isequiv_biinv</title>
<a xlink:href="EquivalenceVarieties.html#isequiv_biinv" xlink:title="isequiv_biinv">
<ellipse fill="#f070d1" stroke="black" cx="90" cy="-187.86" rx="74.2462" ry="18.3848"/>
<text text-anchor="middle" x="90" y="-184.26" font-family="Times Roman,serif" font-size="14.00">isequiv_biinv</text>
</a>
</g>
<!-- EquivalenceVarieties_isprop_biinv&#45;&gt;EquivalenceVarieties_isequiv_biinv -->
<g id="edge34" class="edge"><title>EquivalenceVarieties_isprop_biinv&#45;&gt;EquivalenceVarieties_isequiv_biinv</title>
<path fill="none" stroke="black" d="M251.438,-315.08C218.517,-289.137 157.236,-240.845 120.379,-211.8"/>
<polygon fill="black" stroke="black" points="122.479,-208.998 112.458,-205.558 118.146,-214.496 122.479,-208.998"/>
</g>
<!-- EquivalenceVarieties_contr_retr_equiv -->
<g id="node19" class="node"><title>EquivalenceVarieties_contr_retr_equiv</title>
<a xlink:href="EquivalenceVarieties.html#contr_retr_equiv" xlink:title="contr_retr_equiv">
<ellipse fill="#f070d1" stroke="black" cx="274" cy="-187.86" rx="92.1303" ry="18.3848"/>
<text text-anchor="middle" x="274" y="-184.26" font-family="Times Roman,serif" font-size="14.00">contr_retr_equiv</text>
</a>
</g>
<!-- EquivalenceVarieties_isprop_biinv&#45;&gt;EquivalenceVarieties_contr_retr_equiv -->
<g id="edge36" class="edge"><title>EquivalenceVarieties_isprop_biinv&#45;&gt;EquivalenceVarieties_contr_retr_equiv</title>
<path fill="none" stroke="black" d="M274,-314.2C274,-289.512 274,-245.743 274,-216.76"/>
<polygon fill="black" stroke="black" points="277.5,-216.447 274,-206.447 270.5,-216.447 277.5,-216.447"/>
</g>
<!-- EquivalenceVarieties_contr_sect_equiv -->
<g id="node20" class="node"><title>EquivalenceVarieties_contr_sect_equiv</title>
<a xlink:href="EquivalenceVarieties.html#contr_sect_equiv" xlink:title="contr_sect_equiv">
<ellipse fill="#f070d1" stroke="black" cx="478" cy="-187.86" rx="94.0452" ry="18.3848"/>
<text text-anchor="middle" x="478" y="-184.26" font-family="Times Roman,serif" font-size="14.00">contr_sect_equiv</text>
</a>
</g>
<!-- EquivalenceVarieties_isprop_biinv&#45;&gt;EquivalenceVarieties_contr_sect_equiv -->
<g id="edge38" class="edge"><title>EquivalenceVarieties_isprop_biinv&#45;&gt;EquivalenceVarieties_contr_sect_equiv</title>
<path fill="none" stroke="black" d="M298.607,-315.369C335.015,-289.491 403.337,-240.929 444.35,-211.778"/>
<polygon fill="black" stroke="black" points="446.543,-214.513 452.666,-205.867 442.487,-208.808 446.543,-214.513"/>
</g>
<!-- EquivalenceVarieties_BiInv -->
<g id="node15" class="node"><title>EquivalenceVarieties_BiInv</title>
<a xlink:href="EquivalenceVarieties.html#BiInv" xlink:title="BiInv">
<ellipse fill="#f070d1" stroke="black" cx="90" cy="-55.8596" rx="36.7696" ry="18.3848"/>
<text text-anchor="middle" x="90" y="-52.2596" font-family="Times Roman,serif" font-size="14.00">BiInv</text>
</a>
</g>
<!-- EquivalenceVarieties_isequiv_biinv&#45;&gt;EquivalenceVarieties_BiInv -->
<g id="edge40" class="edge"><title>EquivalenceVarieties_isequiv_biinv&#45;&gt;EquivalenceVarieties_BiInv</title>
<path fill="none" stroke="black" d="M90,-169.227C90,-147.214 90,-110.344 90,-84.6491"/>
<polygon fill="black" stroke="black" points="93.5001,-84.3972 90,-74.3973 86.5001,-84.3973 93.5001,-84.3972"/>
</g>
<!-- EquivalenceVarieties_equiv_fcontr_isequiv_ -->
<g id="node16" class="node"><title>EquivalenceVarieties_equiv_fcontr_isequiv_</title>
<a xlink:href="EquivalenceVarieties.html#equiv_fcontr_isequiv&#39;" xlink:title="equiv_fcontr_isequiv&#39;">
<ellipse fill="#f070d1" stroke="black" cx="354" cy="-621.86" rx="113.844" ry="18.3848"/>
<ellipse fill="none" stroke="black" cx="354" cy="-621.86" rx="117.844" ry="22.3848"/>
<ellipse fill="none" stroke="black" cx="354" cy="-621.86" rx="121.844" ry="26.3848"/>
<text text-anchor="middle" x="354" y="-618.26" font-family="Times Roman,serif" font-size="14.00">equiv_fcontr_isequiv&#39;</text>
</a>
</g>
<!-- EquivalenceVarieties_equiv_fcontr_isequiv -->
<g id="node17" class="node"><title>EquivalenceVarieties_equiv_fcontr_isequiv</title>
<a xlink:href="EquivalenceVarieties.html#equiv_fcontr_isequiv" xlink:title="equiv_fcontr_isequiv">
<ellipse fill="#f070d1" stroke="black" cx="709" cy="-187.86" rx="111.255" ry="18.3848"/>
<ellipse fill="none" stroke="black" cx="709" cy="-187.86" rx="115.239" ry="22.3848"/>
<ellipse fill="none" stroke="black" cx="709" cy="-187.86" rx="119.222" ry="26.3848"/>
<text text-anchor="middle" x="709" y="-184.26" font-family="Times Roman,serif" font-size="14.00">equiv_fcontr_isequiv</text>
</a>
</g>
<!-- EquivalenceVarieties_equiv_fcontr_isequiv&#45;&gt;EquivalenceVarieties_isequiv_fcontr -->
<g id="edge42" class="edge"><title>EquivalenceVarieties_equiv_fcontr_isequiv&#45;&gt;EquivalenceVarieties_isequiv_fcontr</title>
<path fill="none" stroke="black" d="M742.376,-162.095C773.205,-138.298 818.653,-103.215 848.777,-79.962"/>
<polygon fill="black" stroke="black" points="851.064,-82.6174 856.842,-73.7363 846.787,-77.0763 851.064,-82.6174"/>
</g>
<!-- EquivalenceVarieties_equiv_fcontr_isequiv&#45;&gt;EquivalenceVarieties_fcontr_isequiv -->
<g id="edge44" class="edge"><title>EquivalenceVarieties_equiv_fcontr_isequiv&#45;&gt;EquivalenceVarieties_fcontr_isequiv</title>
<path fill="none" stroke="black" d="M685.489,-161.781C664.646,-138.66 634.365,-105.071 613.519,-81.9478"/>
<polygon fill="black" stroke="black" points="615.865,-79.3235 606.57,-74.2397 610.666,-84.0106 615.865,-79.3235"/>
</g>
<!-- EquivalenceVarieties_hprop_isequiv -->
<g id="node18" class="node"><title>EquivalenceVarieties_hprop_isequiv</title>
<a xlink:href="EquivalenceVarieties.html#hprop_isequiv" xlink:title="hprop_isequiv">
<ellipse fill="#facdef" stroke="black" cx="478" cy="-332.86" rx="79.196" ry="18.3848"/>
<ellipse fill="none" stroke="black" cx="478" cy="-332.86" rx="83.196" ry="22.3848"/>
<ellipse fill="none" stroke="black" cx="478" cy="-332.86" rx="87.196" ry="26.3848"/>
<text text-anchor="middle" x="478" y="-329.26" font-family="Times Roman,serif" font-size="14.00">hprop_isequiv</text>
</a>
</g>
<!-- EquivalenceVarieties_hprop_isequiv&#45;&gt;EquivalenceVarieties_contr_sect_equiv -->
<g id="edge46" class="edge"><title>EquivalenceVarieties_hprop_isequiv&#45;&gt;EquivalenceVarieties_contr_sect_equiv</title>
<path fill="none" stroke="black" d="M478,-306.264C478,-280.827 478,-242.581 478,-216.487"/>
<polygon fill="black" stroke="black" points="481.5,-216.459 478,-206.459 474.5,-216.459 481.5,-216.459"/>
</g>
<!-- EquivalenceVarieties_contr_retr_equiv&#45;&gt;EquivalenceVarieties_fcontr_isequiv -->
<g id="edge48" class="edge"><title>EquivalenceVarieties_contr_retr_equiv&#45;&gt;EquivalenceVarieties_fcontr_isequiv</title>
<path fill="none" stroke="black" d="M314.022,-171.142C371.996,-146.925 479.204,-102.141 541.563,-76.093"/>
<polygon fill="black" stroke="black" points="542.921,-79.3189 550.799,-72.2348 540.222,-72.8598 542.921,-79.3189"/>
</g>
<!-- EquivalenceVarieties_contr_sect_equiv&#45;&gt;EquivalenceVarieties_fcontr_isequiv -->
<g id="edge50" class="edge"><title>EquivalenceVarieties_contr_sect_equiv&#45;&gt;EquivalenceVarieties_fcontr_isequiv</title>
<path fill="none" stroke="black" d="M493.573,-169.506C512.881,-146.749 545.919,-107.812 567.858,-81.9559"/>
<polygon fill="black" stroke="black" points="570.758,-83.9473 574.559,-74.0578 565.421,-79.4185 570.758,-83.9473"/>
</g>
</g>
</svg>
