<?xml version="1.0" encoding="UTF-8" standalone="no"?>
<!DOCTYPE svg PUBLIC "-//W3C//DTD SVG 1.1//EN"
 "http://www.w3.org/Graphics/SVG/1.1/DTD/svg11.dtd">
<!-- Generated by graphviz version 2.26.3 (20100126.1600)
 -->
<!-- Title: HoTT_categories_ExponentialLaws_Law2_Functors Pages: 1 -->
<svg width="450pt" height="229pt"
 viewBox="0.00 0.00 450.00 229.00" xmlns="http://www.w3.org/2000/svg" xmlns:xlink="http://www.w3.org/1999/xlink">
<g id="graph1" class="graph" transform="scale(1 1) rotate(0) translate(4 225)">
<title>HoTT_categories_ExponentialLaws_Law2_Functors</title>
<polygon fill="white" stroke="white" points="-4,5 -4,-225 447,-225 447,5 -4,5"/>
<g id="graph2" class="cluster"><title>cluster_Functors</title>
<polygon fill="#ffffc3" stroke="black" points="8,-9.50538 8,-211.495 434,-211.495 434,-9.50538 8,-9.50538"/>
<text text-anchor="middle" x="46" y="-194.895" font-family="Times Roman,serif" font-size="14.00">Functors</text>
</g>
<!-- Functors_inverse -->
<g id="node1" class="node"><title>Functors_inverse</title>
<a xlink:href="Functors.html#inverse" xlink:title="inverse">
<ellipse fill="#f070d1" stroke="black" cx="297" cy="-139.505" rx="46.9493" ry="18.3848"/>
<ellipse fill="none" stroke="black" cx="297" cy="-139.505" rx="50.9133" ry="22.3848"/>
<ellipse fill="none" stroke="black" cx="297" cy="-139.505" rx="54.8773" ry="26.3848"/>
<text text-anchor="middle" x="297" y="-135.905" font-family="Times Roman,serif" font-size="14.00">inverse</text>
</a>
</g>
<!-- Functors_inverse_subproof0 -->
<g id="node2" class="node"><title>Functors_inverse_subproof0</title>
<a xlink:href="Functors.html#inverse_subproof0" xlink:title="inverse_subproof0">
<ellipse fill="#facdef" stroke="black" cx="117" cy="-41.5054" rx="101.116" ry="18.3848"/>
<text text-anchor="middle" x="117" y="-37.9054" font-family="Times Roman,serif" font-size="14.00">inverse_subproof0</text>
</a>
</g>
<!-- Functors_inverse&#45;&gt;Functors_inverse_subproof0 -->
<g id="edge2" class="edge"><title>Functors_inverse&#45;&gt;Functors_inverse_subproof0</title>
<path fill="none" stroke="black" d="M260.14,-119.437C230.592,-103.35 189.138,-80.7804 158.441,-64.0678"/>
<polygon fill="black" stroke="black" points="159.741,-60.7906 149.285,-59.0828 156.394,-66.9385 159.741,-60.7906"/>
</g>
<!-- Functors_inverse_subproof -->
<g id="node3" class="node"><title>Functors_inverse_subproof</title>
<a xlink:href="Functors.html#inverse_subproof" xlink:title="inverse_subproof">
<ellipse fill="#facdef" stroke="black" cx="331" cy="-41.5054" rx="94.7523" ry="18.3848"/>
<text text-anchor="middle" x="331" y="-37.9054" font-family="Times Roman,serif" font-size="14.00">inverse_subproof</text>
</a>
</g>
<!-- Functors_inverse&#45;&gt;Functors_inverse_subproof -->
<g id="edge4" class="edge"><title>Functors_inverse&#45;&gt;Functors_inverse_subproof</title>
<path fill="none" stroke="black" d="M306.111,-113.243C310.797,-99.7387 316.509,-83.2735 321.279,-69.525"/>
<polygon fill="black" stroke="black" points="324.586,-70.6701 324.557,-60.0753 317.973,-68.3756 324.586,-70.6701"/>
</g>
<!-- Functors_functor -->
<g id="node4" class="node"><title>Functors_functor</title>
<a xlink:href="Functors.html#functor" xlink:title="functor">
<ellipse fill="#f070d1" stroke="black" cx="137" cy="-139.505" rx="46.2409" ry="18.3848"/>
<ellipse fill="none" stroke="black" cx="137" cy="-139.505" rx="50.2042" ry="22.3848"/>
<ellipse fill="none" stroke="black" cx="137" cy="-139.505" rx="54.1675" ry="26.3848"/>
<text text-anchor="middle" x="137" y="-135.905" font-family="Times Roman,serif" font-size="14.00">functor</text>
</a>
</g>
</g>
</svg>
