<?xml version="1.0" encoding="UTF-8" standalone="no"?>
<!DOCTYPE svg PUBLIC "-//W3C//DTD SVG 1.1//EN"
 "http://www.w3.org/Graphics/SVG/1.1/DTD/svg11.dtd">
<!-- Generated by graphviz version 2.39.20141222.0545 (20141222.0545)
 -->
<!-- Title: HoTT_categories_LaxComma_CoreParts Pages: 1 -->
<svg width="2016pt" height="1012pt"
 viewBox="0.00 0.00 2016.00 1012.00" xmlns="http://www.w3.org/2000/svg" xmlns:xlink="http://www.w3.org/1999/xlink">
<g id="graph0" class="graph" transform="scale(1 1) rotate(0) translate(4 1008)">
<title>HoTT_categories_LaxComma_CoreParts</title>
<polygon fill="white" stroke="transparent" points="-4,4 -4,-1008 2012,-1008 2012,4 -4,4"/>
<g id="clust1" class="cluster"><title>cluster_CoreParts</title>
<polygon fill="#ffffc3" stroke="black" points="8,-20.3858 8,-983.614 2000,-983.614 2000,-20.3858 8,-20.3858"/>
<text text-anchor="middle" x="43" y="-968.414" font-family="Times,serif" font-size="14.00">CoreParts</text>
</g>
<g id="clust2" class="cluster"><title>cluster_CoreParts_LaxCommaCategoryParts</title>
<polygon fill="#ffffa3" stroke="black" points="16,-40.7716 16,-904.619 1992,-904.619 1992,-40.7716 16,-40.7716"/>
<text text-anchor="middle" x="95" y="-889.419" font-family="Times,serif" font-size="14.00">LaxCommaCategoryParts</text>
</g>
<!-- CoreParts_LaxCommaCategoryParts_identity -->
<g id="node1" class="node"><title>CoreParts_LaxCommaCategoryParts_identity</title>
<g id="a_node1"><a xlink:href="CoreParts.html#LaxCommaCategoryParts.identity" xlink:title="identity">
<ellipse fill="#f070d1" stroke="black" cx="1938" cy="-310.386" rx="37.8596" ry="18"/>
<ellipse fill="none" stroke="black" cx="1938" cy="-310.386" rx="41.8769" ry="22"/>
<ellipse fill="none" stroke="black" cx="1938" cy="-310.386" rx="45.8942" ry="26"/>
<text text-anchor="middle" x="1938" y="-306.686" font-family="Times,serif" font-size="14.00">identity</text>
</a>
</g>
</g>
<!-- CoreParts_LaxCommaCategoryParts_Build_morphism -->
<g id="node16" class="node"><title>CoreParts_LaxCommaCategoryParts_Build_morphism</title>
<g id="a_node16"><a xlink:href="CoreParts.html#LaxCommaCategoryParts.Build_morphism" xlink:title="Build_morphism">
<ellipse fill="#7faaff" stroke="black" cx="1481" cy="-107.386" rx="71.4873" ry="18"/>
<text text-anchor="middle" x="1481" y="-103.686" font-family="Times,serif" font-size="14.00">Build_morphism</text>
</a>
</g>
</g>
<!-- CoreParts_LaxCommaCategoryParts_identity&#45;&gt;CoreParts_LaxCommaCategoryParts_Build_morphism -->
<g id="edge1" class="edge"><title>CoreParts_LaxCommaCategoryParts_identity&#45;&gt;CoreParts_LaxCommaCategoryParts_Build_morphism</title>
<path fill="none" stroke="black" d="M1902.86,-293.601C1896.27,-290.505 1889.44,-287.324 1883,-284.386 1754.53,-225.751 1601.57,-159.326 1526.77,-127.064"/>
<polygon fill="black" stroke="black" points="1527.75,-123.674 1517.18,-122.929 1524.98,-130.102 1527.75,-123.674"/>
</g>
<!-- CoreParts_LaxCommaCategoryParts_compose -->
<g id="node2" class="node"><title>CoreParts_LaxCommaCategoryParts_compose</title>
<g id="a_node2"><a xlink:href="CoreParts.html#LaxCommaCategoryParts.compose" xlink:title="compose">
<ellipse fill="#f070d1" stroke="black" cx="1824" cy="-310.386" rx="42.4543" ry="18"/>
<ellipse fill="none" stroke="black" cx="1824" cy="-310.386" rx="46.474" ry="22"/>
<ellipse fill="none" stroke="black" cx="1824" cy="-310.386" rx="50.4937" ry="26"/>
<text text-anchor="middle" x="1824" y="-306.686" font-family="Times,serif" font-size="14.00">compose</text>
</a>
</g>
</g>
<!-- CoreParts_LaxCommaCategoryParts_compose&#45;&gt;CoreParts_LaxCommaCategoryParts_Build_morphism -->
<g id="edge2" class="edge"><title>CoreParts_LaxCommaCategoryParts_compose&#45;&gt;CoreParts_LaxCommaCategoryParts_Build_morphism</title>
<path fill="none" stroke="black" d="M1790.8,-290.737C1726.57,-252.724 1585.71,-169.358 1518.34,-129.483"/>
<polygon fill="black" stroke="black" points="1519.72,-126.236 1509.33,-124.155 1516.16,-132.26 1519.72,-126.236"/>
</g>
<!-- CoreParts_LaxCommaCategoryParts_path_morphism__uncurried -->
<g id="node3" class="node"><title>CoreParts_LaxCommaCategoryParts_path_morphism__uncurried</title>
<g id="a_node3"><a xlink:href="CoreParts.html#LaxCommaCategoryParts.path_morphism'_uncurried" xlink:title="path_morphism&#39;_uncurried">
<ellipse fill="#f070d1" stroke="black" cx="1869" cy="-759.386" rx="106.675" ry="18"/>
<ellipse fill="none" stroke="black" cx="1869" cy="-759.386" rx="110.678" ry="22"/>
<ellipse fill="none" stroke="black" cx="1869" cy="-759.386" rx="114.681" ry="26"/>
<text text-anchor="middle" x="1869" y="-755.686" font-family="Times,serif" font-size="14.00">path_morphism&#39;_uncurried</text>
</a>
</g>
</g>
<!-- CoreParts_LaxCommaCategoryParts_path_morphism_ -->
<g id="node4" class="node"><title>CoreParts_LaxCommaCategoryParts_path_morphism_</title>
<g id="a_node4"><a xlink:href="CoreParts.html#LaxCommaCategoryParts.path_morphism'" xlink:title="path_morphism&#39;">
<ellipse fill="#f070d1" stroke="black" cx="1743" cy="-535.386" rx="68.4888" ry="18"/>
<text text-anchor="middle" x="1743" y="-531.686" font-family="Times,serif" font-size="14.00">path_morphism&#39;</text>
</a>
</g>
</g>
<!-- CoreParts_LaxCommaCategoryParts_path_morphism__uncurried&#45;&gt;CoreParts_LaxCommaCategoryParts_path_morphism_ -->
<g id="edge3" class="edge"><title>CoreParts_LaxCommaCategoryParts_path_morphism__uncurried&#45;&gt;CoreParts_LaxCommaCategoryParts_path_morphism_</title>
<path fill="none" stroke="black" d="M1854.3,-733.252C1830.17,-690.352 1782.41,-605.447 1758.05,-562.144"/>
<polygon fill="black" stroke="black" points="1761.04,-560.316 1753.09,-553.317 1754.94,-563.748 1761.04,-560.316"/>
</g>
<!-- CoreParts_LaxCommaCategoryParts_path_morphism__helper -->
<g id="node5" class="node"><title>CoreParts_LaxCommaCategoryParts_path_morphism__helper</title>
<g id="a_node5"><a xlink:href="CoreParts.html#LaxCommaCategoryParts.path_morphism'_helper" xlink:title="path_morphism&#39;_helper">
<ellipse fill="#facdef" stroke="black" cx="1661" cy="-310.386" rx="94.7833" ry="18"/>
<text text-anchor="middle" x="1661" y="-306.686" font-family="Times,serif" font-size="14.00">path_morphism&#39;_helper</text>
</a>
</g>
</g>
<!-- CoreParts_LaxCommaCategoryParts_path_morphism_&#45;&gt;CoreParts_LaxCommaCategoryParts_path_morphism__helper -->
<g id="edge4" class="edge"><title>CoreParts_LaxCommaCategoryParts_path_morphism_&#45;&gt;CoreParts_LaxCommaCategoryParts_path_morphism__helper</title>
<path fill="none" stroke="black" d="M1736.43,-517.353C1722.12,-478.104 1688.09,-384.714 1671.06,-337.995"/>
<polygon fill="black" stroke="black" points="1674.32,-336.701 1667.6,-328.504 1667.74,-339.098 1674.32,-336.701"/>
</g>
<!-- CoreParts_LaxCommaCategoryParts_path_morphism -->
<g id="node7" class="node"><title>CoreParts_LaxCommaCategoryParts_path_morphism</title>
<g id="a_node7"><a xlink:href="CoreParts.html#LaxCommaCategoryParts.path_morphism" xlink:title="path_morphism">
<ellipse fill="#facdef" stroke="black" cx="1481" cy="-310.386" rx="66.8882" ry="18"/>
<text text-anchor="middle" x="1481" y="-306.686" font-family="Times,serif" font-size="14.00">path_morphism</text>
</a>
</g>
</g>
<!-- CoreParts_LaxCommaCategoryParts_path_morphism_&#45;&gt;CoreParts_LaxCommaCategoryParts_path_morphism -->
<g id="edge5" class="edge"><title>CoreParts_LaxCommaCategoryParts_path_morphism_&#45;&gt;CoreParts_LaxCommaCategoryParts_path_morphism</title>
<path fill="none" stroke="black" d="M1722.88,-518.104C1676.49,-478.267 1561.97,-379.92 1508.87,-334.317"/>
<polygon fill="black" stroke="black" points="1511.06,-331.586 1501.19,-327.726 1506.5,-336.897 1511.06,-331.586"/>
</g>
<!-- CoreParts_LaxCommaCategoryParts_path_morphism_uncurried -->
<g id="node6" class="node"><title>CoreParts_LaxCommaCategoryParts_path_morphism_uncurried</title>
<g id="a_node6"><a xlink:href="CoreParts.html#LaxCommaCategoryParts.path_morphism_uncurried" xlink:title="path_morphism_uncurried">
<ellipse fill="#f070d1" stroke="black" cx="1544" cy="-535.386" rx="104.772" ry="18"/>
<ellipse fill="none" stroke="black" cx="1544" cy="-535.386" rx="108.777" ry="22"/>
<ellipse fill="none" stroke="black" cx="1544" cy="-535.386" rx="112.782" ry="26"/>
<text text-anchor="middle" x="1544" y="-531.686" font-family="Times,serif" font-size="14.00">path_morphism_uncurried</text>
</a>
</g>
</g>
<!-- CoreParts_LaxCommaCategoryParts_path_morphism_uncurried&#45;&gt;CoreParts_LaxCommaCategoryParts_path_morphism -->
<g id="edge6" class="edge"><title>CoreParts_LaxCommaCategoryParts_path_morphism_uncurried&#45;&gt;CoreParts_LaxCommaCategoryParts_path_morphism</title>
<path fill="none" stroke="black" d="M1536.65,-509.135C1524.66,-466.315 1501,-381.831 1488.76,-338.089"/>
<polygon fill="black" stroke="black" points="1492.11,-337.083 1486.04,-328.397 1485.37,-338.97 1492.11,-337.083"/>
</g>
<!-- CoreParts_LaxCommaCategoryParts_path_morphism&#45;&gt;CoreParts_LaxCommaCategoryParts_Build_morphism -->
<g id="edge7" class="edge"><title>CoreParts_LaxCommaCategoryParts_path_morphism&#45;&gt;CoreParts_LaxCommaCategoryParts_Build_morphism</title>
<path fill="none" stroke="black" d="M1481,-292.371C1481,-257.022 1481,-178.329 1481,-135.865"/>
<polygon fill="black" stroke="black" points="1484.5,-135.652 1481,-125.652 1477.5,-135.652 1484.5,-135.652"/>
</g>
<!-- CoreParts_LaxCommaCategoryParts_trunc_morphism -->
<g id="node8" class="node"><title>CoreParts_LaxCommaCategoryParts_trunc_morphism</title>
<g id="a_node8"><a xlink:href="CoreParts.html#LaxCommaCategoryParts.trunc_morphism" xlink:title="trunc_morphism">
<ellipse fill="#facdef" stroke="black" cx="1336" cy="-535.386" rx="69.5832" ry="18"/>
<ellipse fill="none" stroke="black" cx="1336" cy="-535.386" rx="73.5854" ry="22"/>
<ellipse fill="none" stroke="black" cx="1336" cy="-535.386" rx="77.5877" ry="26"/>
<text text-anchor="middle" x="1336" y="-531.686" font-family="Times,serif" font-size="14.00">trunc_morphism</text>
</a>
</g>
</g>
<!-- CoreParts_LaxCommaCategoryParts_issig_morphism -->
<g id="node9" class="node"><title>CoreParts_LaxCommaCategoryParts_issig_morphism</title>
<g id="a_node9"><a xlink:href="CoreParts.html#LaxCommaCategoryParts.issig_morphism" xlink:title="issig_morphism">
<ellipse fill="#f070d1" stroke="black" cx="1328" cy="-310.386" rx="67.6881" ry="18"/>
<text text-anchor="middle" x="1328" y="-306.686" font-family="Times,serif" font-size="14.00">issig_morphism</text>
</a>
</g>
</g>
<!-- CoreParts_LaxCommaCategoryParts_trunc_morphism&#45;&gt;CoreParts_LaxCommaCategoryParts_issig_morphism -->
<g id="edge8" class="edge"><title>CoreParts_LaxCommaCategoryParts_trunc_morphism&#45;&gt;CoreParts_LaxCommaCategoryParts_issig_morphism</title>
<path fill="none" stroke="black" d="M1335.07,-509.135C1333.55,-466.495 1330.57,-382.543 1329,-338.645"/>
<polygon fill="black" stroke="black" points="1332.49,-338.266 1328.64,-328.397 1325.5,-338.515 1332.49,-338.266"/>
</g>
<!-- CoreParts_LaxCommaCategoryParts_issig_morphism&#45;&gt;CoreParts_LaxCommaCategoryParts_Build_morphism -->
<g id="edge9" class="edge"><title>CoreParts_LaxCommaCategoryParts_issig_morphism&#45;&gt;CoreParts_LaxCommaCategoryParts_Build_morphism</title>
<path fill="none" stroke="black" d="M1341.31,-292.726C1368.38,-256.809 1429.96,-175.11 1461.53,-133.214"/>
<polygon fill="black" stroke="black" points="1464.39,-135.242 1467.61,-125.149 1458.8,-131.029 1464.39,-135.242"/>
</g>
<!-- CoreParts_LaxCommaCategoryParts_morphism_rec -->
<g id="node10" class="node"><title>CoreParts_LaxCommaCategoryParts_morphism_rec</title>
<g id="a_node10"><a xlink:href="CoreParts.html#LaxCommaCategoryParts.morphism_rec" xlink:title="morphism_rec">
<ellipse fill="#f070d1" stroke="black" cx="1170" cy="-535.386" rx="62.3011" ry="18"/>
<ellipse fill="none" stroke="black" cx="1170" cy="-535.386" rx="66.2951" ry="22"/>
<ellipse fill="none" stroke="black" cx="1170" cy="-535.386" rx="70.2891" ry="26"/>
<text text-anchor="middle" x="1170" y="-531.686" font-family="Times,serif" font-size="14.00">morphism_rec</text>
</a>
</g>
</g>
<!-- CoreParts_LaxCommaCategoryParts_morphism_rect -->
<g id="node12" class="node"><title>CoreParts_LaxCommaCategoryParts_morphism_rect</title>
<g id="a_node12"><a xlink:href="CoreParts.html#LaxCommaCategoryParts.morphism_rect" xlink:title="morphism_rect">
<ellipse fill="#f070d1" stroke="black" cx="1170" cy="-310.386" rx="64.9885" ry="18"/>
<text text-anchor="middle" x="1170" y="-306.686" font-family="Times,serif" font-size="14.00">morphism_rect</text>
</a>
</g>
</g>
<!-- CoreParts_LaxCommaCategoryParts_morphism_rec&#45;&gt;CoreParts_LaxCommaCategoryParts_morphism_rect -->
<g id="edge10" class="edge"><title>CoreParts_LaxCommaCategoryParts_morphism_rec&#45;&gt;CoreParts_LaxCommaCategoryParts_morphism_rect</title>
<path fill="none" stroke="black" d="M1170,-509.135C1170,-466.495 1170,-382.543 1170,-338.645"/>
<polygon fill="black" stroke="black" points="1173.5,-338.397 1170,-328.397 1166.5,-338.397 1173.5,-338.397"/>
</g>
<!-- CoreParts_LaxCommaCategoryParts_morphism_ind -->
<g id="node11" class="node"><title>CoreParts_LaxCommaCategoryParts_morphism_ind</title>
<g id="a_node11"><a xlink:href="CoreParts.html#LaxCommaCategoryParts.morphism_ind" xlink:title="morphism_ind">
<ellipse fill="#7fffd4" stroke="black" cx="1011" cy="-535.386" rx="63.0838" ry="18"/>
<ellipse fill="none" stroke="black" cx="1011" cy="-535.386" rx="67.0863" ry="22"/>
<ellipse fill="none" stroke="black" cx="1011" cy="-535.386" rx="71.0888" ry="26"/>
<text text-anchor="middle" x="1011" y="-531.686" font-family="Times,serif" font-size="14.00">morphism_ind</text>
</a>
</g>
</g>
<!-- CoreParts_LaxCommaCategoryParts_morphism_ind&#45;&gt;CoreParts_LaxCommaCategoryParts_morphism_rect -->
<g id="edge11" class="edge"><title>CoreParts_LaxCommaCategoryParts_morphism_ind&#45;&gt;CoreParts_LaxCommaCategoryParts_morphism_rect</title>
<path fill="none" stroke="black" d="M1028.93,-510.013C1059.32,-467.005 1120.65,-380.223 1151.45,-336.631"/>
<polygon fill="black" stroke="black" points="1154.45,-338.451 1157.37,-328.265 1148.74,-334.411 1154.45,-338.451"/>
</g>
<!-- CoreParts_LaxCommaCategoryParts_morphism_rect&#45;&gt;CoreParts_LaxCommaCategoryParts_Build_morphism -->
<g id="edge12" class="edge"><title>CoreParts_LaxCommaCategoryParts_morphism_rect&#45;&gt;CoreParts_LaxCommaCategoryParts_Build_morphism</title>
<path fill="none" stroke="black" d="M1195.45,-293.773C1251.15,-257.417 1383.89,-170.776 1446.8,-129.71"/>
<polygon fill="black" stroke="black" points="1448.74,-132.625 1455.2,-124.228 1444.91,-126.763 1448.74,-132.625"/>
</g>
<!-- CoreParts_LaxCommaCategoryParts_p -->
<g id="node13" class="node"><title>CoreParts_LaxCommaCategoryParts_p</title>
<g id="a_node13"><a xlink:href="CoreParts.html#LaxCommaCategoryParts.p" xlink:title="p">
<ellipse fill="#f070d1" stroke="black" cx="1701" cy="-759.386" rx="27" ry="18"/>
<ellipse fill="none" stroke="black" cx="1701" cy="-759.386" rx="31" ry="22"/>
<ellipse fill="none" stroke="black" cx="1701" cy="-759.386" rx="35" ry="26"/>
<text text-anchor="middle" x="1701" y="-755.686" font-family="Times,serif" font-size="14.00">p</text>
</a>
</g>
</g>
<!-- CoreParts_LaxCommaCategoryParts_h -->
<g id="node14" class="node"><title>CoreParts_LaxCommaCategoryParts_h</title>
<g id="a_node14"><a xlink:href="CoreParts.html#LaxCommaCategoryParts.h" xlink:title="h">
<ellipse fill="#f070d1" stroke="black" cx="1613" cy="-759.386" rx="27" ry="18"/>
<ellipse fill="none" stroke="black" cx="1613" cy="-759.386" rx="31" ry="22"/>
<ellipse fill="none" stroke="black" cx="1613" cy="-759.386" rx="35" ry="26"/>
<text text-anchor="middle" x="1613" y="-755.686" font-family="Times,serif" font-size="14.00">h</text>
</a>
</g>
</g>
<!-- CoreParts_LaxCommaCategoryParts_g -->
<g id="node15" class="node"><title>CoreParts_LaxCommaCategoryParts_g</title>
<g id="a_node15"><a xlink:href="CoreParts.html#LaxCommaCategoryParts.g" xlink:title="g">
<ellipse fill="#f070d1" stroke="black" cx="1525" cy="-759.386" rx="27" ry="18"/>
<ellipse fill="none" stroke="black" cx="1525" cy="-759.386" rx="31" ry="22"/>
<ellipse fill="none" stroke="black" cx="1525" cy="-759.386" rx="35" ry="26"/>
<text text-anchor="middle" x="1525" y="-755.686" font-family="Times,serif" font-size="14.00">g</text>
</a>
</g>
</g>
<!-- CoreParts_LaxCommaCategoryParts_morphism -->
<g id="node17" class="node"><title>CoreParts_LaxCommaCategoryParts_morphism</title>
<g id="a_node17"><a xlink:href="CoreParts.html#LaxCommaCategoryParts.morphism" xlink:title="morphism">
<ellipse fill="#e2cdfa" stroke="black" cx="1417" cy="-759.386" rx="47.3994" ry="18"/>
<ellipse fill="none" stroke="black" cx="1417" cy="-759.386" rx="51.3955" ry="22"/>
<ellipse fill="none" stroke="black" cx="1417" cy="-759.386" rx="55.3916" ry="26"/>
<text text-anchor="middle" x="1417" y="-755.686" font-family="Times,serif" font-size="14.00">morphism</text>
</a>
</g>
</g>
<!-- CoreParts_LaxCommaCategoryParts_ap_b_path_object -->
<g id="node18" class="node"><title>CoreParts_LaxCommaCategoryParts_ap_b_path_object</title>
<g id="a_node18"><a xlink:href="CoreParts.html#LaxCommaCategoryParts.ap_b_path_object" xlink:title="ap_b_path_object">
<ellipse fill="#facdef" stroke="black" cx="1262" cy="-759.386" rx="73.3926" ry="18"/>
<ellipse fill="none" stroke="black" cx="1262" cy="-759.386" rx="77.3898" ry="22"/>
<ellipse fill="none" stroke="black" cx="1262" cy="-759.386" rx="81.387" ry="26"/>
<text text-anchor="middle" x="1262" y="-755.686" font-family="Times,serif" font-size="14.00">ap_b_path_object</text>
</a>
</g>
</g>
<!-- CoreParts_LaxCommaCategoryParts_path_object -->
<g id="node21" class="node"><title>CoreParts_LaxCommaCategoryParts_path_object</title>
<g id="a_node21"><a xlink:href="CoreParts.html#LaxCommaCategoryParts.path_object" xlink:title="path_object">
<ellipse fill="#f070d1" stroke="black" cx="870" cy="-535.386" rx="51.9908" ry="18"/>
<text text-anchor="middle" x="870" y="-531.686" font-family="Times,serif" font-size="14.00">path_object</text>
</a>
</g>
</g>
<!-- CoreParts_LaxCommaCategoryParts_ap_b_path_object&#45;&gt;CoreParts_LaxCommaCategoryParts_path_object -->
<g id="edge13" class="edge"><title>CoreParts_LaxCommaCategoryParts_ap_b_path_object&#45;&gt;CoreParts_LaxCommaCategoryParts_path_object</title>
<path fill="none" stroke="black" d="M1222.26,-736.675C1145.91,-693.05 979.814,-598.137 906.279,-556.117"/>
<polygon fill="black" stroke="black" points="907.785,-552.946 897.366,-551.024 904.312,-559.024 907.785,-552.946"/>
</g>
<!-- CoreParts_LaxCommaCategoryParts_ap_a_path_object -->
<g id="node19" class="node"><title>CoreParts_LaxCommaCategoryParts_ap_a_path_object</title>
<g id="a_node19"><a xlink:href="CoreParts.html#LaxCommaCategoryParts.ap_a_path_object" xlink:title="ap_a_path_object">
<ellipse fill="#facdef" stroke="black" cx="1082" cy="-759.386" rx="72.608" ry="18"/>
<ellipse fill="none" stroke="black" cx="1082" cy="-759.386" rx="76.5978" ry="22"/>
<ellipse fill="none" stroke="black" cx="1082" cy="-759.386" rx="80.5876" ry="26"/>
<text text-anchor="middle" x="1082" y="-755.686" font-family="Times,serif" font-size="14.00">ap_a_path_object</text>
</a>
</g>
</g>
<!-- CoreParts_LaxCommaCategoryParts_ap_a_path_object&#45;&gt;CoreParts_LaxCommaCategoryParts_path_object -->
<g id="edge14" class="edge"><title>CoreParts_LaxCommaCategoryParts_ap_a_path_object&#45;&gt;CoreParts_LaxCommaCategoryParts_path_object</title>
<path fill="none" stroke="black" d="M1058.09,-734.126C1017.11,-690.825 933.95,-602.955 893.353,-560.06"/>
<polygon fill="black" stroke="black" points="895.703,-557.452 886.287,-552.595 890.619,-562.264 895.703,-557.452"/>
</g>
<!-- CoreParts_LaxCommaCategoryParts_path_object_uncurried -->
<g id="node20" class="node"><title>CoreParts_LaxCommaCategoryParts_path_object_uncurried</title>
<g id="a_node20"><a xlink:href="CoreParts.html#LaxCommaCategoryParts.path_object_uncurried" xlink:title="path_object_uncurried">
<ellipse fill="#f070d1" stroke="black" cx="886" cy="-759.386" rx="89.8687" ry="18"/>
<ellipse fill="none" stroke="black" cx="886" cy="-759.386" rx="93.8766" ry="22"/>
<ellipse fill="none" stroke="black" cx="886" cy="-759.386" rx="97.8845" ry="26"/>
<text text-anchor="middle" x="886" y="-755.686" font-family="Times,serif" font-size="14.00">path_object_uncurried</text>
</a>
</g>
</g>
<!-- CoreParts_LaxCommaCategoryParts_path_object_uncurried&#45;&gt;CoreParts_LaxCommaCategoryParts_path_object -->
<g id="edge15" class="edge"><title>CoreParts_LaxCommaCategoryParts_path_object_uncurried&#45;&gt;CoreParts_LaxCommaCategoryParts_path_object</title>
<path fill="none" stroke="black" d="M884.133,-733.252C881.109,-690.908 875.161,-607.641 872.033,-563.849"/>
<polygon fill="black" stroke="black" points="875.506,-563.339 871.302,-553.614 868.523,-563.838 875.506,-563.339"/>
</g>
<!-- CoreParts_LaxCommaCategoryParts_Build_object -->
<g id="node30" class="node"><title>CoreParts_LaxCommaCategoryParts_Build_object</title>
<g id="a_node30"><a xlink:href="CoreParts.html#LaxCommaCategoryParts.Build_object" xlink:title="Build_object">
<ellipse fill="#7faaff" stroke="black" cx="708" cy="-310.386" rx="55.7903" ry="18"/>
<text text-anchor="middle" x="708" y="-306.686" font-family="Times,serif" font-size="14.00">Build_object</text>
</a>
</g>
</g>
<!-- CoreParts_LaxCommaCategoryParts_path_object&#45;&gt;CoreParts_LaxCommaCategoryParts_Build_object -->
<g id="edge16" class="edge"><title>CoreParts_LaxCommaCategoryParts_path_object&#45;&gt;CoreParts_LaxCommaCategoryParts_Build_object</title>
<path fill="none" stroke="black" d="M857.288,-517.73C828.838,-478.217 759.927,-382.507 726.627,-336.257"/>
<polygon fill="black" stroke="black" points="729.336,-334.029 720.653,-327.959 723.656,-338.12 729.336,-334.029"/>
</g>
<!-- CoreParts_LaxCommaCategoryParts_trunc_object -->
<g id="node22" class="node"><title>CoreParts_LaxCommaCategoryParts_trunc_object</title>
<g id="a_node22"><a xlink:href="CoreParts.html#LaxCommaCategoryParts.trunc_object" xlink:title="trunc_object">
<ellipse fill="#facdef" stroke="black" cx="708" cy="-759.386" rx="54.6783" ry="18"/>
<ellipse fill="none" stroke="black" cx="708" cy="-759.386" rx="58.6844" ry="22"/>
<ellipse fill="none" stroke="black" cx="708" cy="-759.386" rx="62.6905" ry="26"/>
<text text-anchor="middle" x="708" y="-755.686" font-family="Times,serif" font-size="14.00">trunc_object</text>
</a>
</g>
</g>
<!-- CoreParts_LaxCommaCategoryParts_issig_object -->
<g id="node23" class="node"><title>CoreParts_LaxCommaCategoryParts_issig_object</title>
<g id="a_node23"><a xlink:href="CoreParts.html#LaxCommaCategoryParts.issig_object" xlink:title="issig_object">
<ellipse fill="#f070d1" stroke="black" cx="708" cy="-535.386" rx="52.7911" ry="18"/>
<text text-anchor="middle" x="708" y="-531.686" font-family="Times,serif" font-size="14.00">issig_object</text>
</a>
</g>
</g>
<!-- CoreParts_LaxCommaCategoryParts_trunc_object&#45;&gt;CoreParts_LaxCommaCategoryParts_issig_object -->
<g id="edge17" class="edge"><title>CoreParts_LaxCommaCategoryParts_trunc_object&#45;&gt;CoreParts_LaxCommaCategoryParts_issig_object</title>
<path fill="none" stroke="black" d="M708,-733.252C708,-690.908 708,-607.641 708,-563.849"/>
<polygon fill="black" stroke="black" points="711.5,-563.614 708,-553.614 704.5,-563.614 711.5,-563.614"/>
</g>
<!-- CoreParts_LaxCommaCategoryParts_issig_object&#45;&gt;CoreParts_LaxCommaCategoryParts_Build_object -->
<g id="edge18" class="edge"><title>CoreParts_LaxCommaCategoryParts_issig_object&#45;&gt;CoreParts_LaxCommaCategoryParts_Build_object</title>
<path fill="none" stroke="black" d="M708,-517.353C708,-478.269 708,-385.497 708,-338.585"/>
<polygon fill="black" stroke="black" points="711.5,-338.504 708,-328.504 704.5,-338.504 711.5,-338.504"/>
</g>
<!-- CoreParts_LaxCommaCategoryParts_object_rec -->
<g id="node24" class="node"><title>CoreParts_LaxCommaCategoryParts_object_rec</title>
<g id="a_node24"><a xlink:href="CoreParts.html#LaxCommaCategoryParts.object_rec" xlink:title="object_rec">
<ellipse fill="#f070d1" stroke="black" cx="572" cy="-759.386" rx="47.3994" ry="18"/>
<ellipse fill="none" stroke="black" cx="572" cy="-759.386" rx="51.3955" ry="22"/>
<ellipse fill="none" stroke="black" cx="572" cy="-759.386" rx="55.3916" ry="26"/>
<text text-anchor="middle" x="572" y="-755.686" font-family="Times,serif" font-size="14.00">object_rec</text>
</a>
</g>
</g>
<!-- CoreParts_LaxCommaCategoryParts_object_rect -->
<g id="node26" class="node"><title>CoreParts_LaxCommaCategoryParts_object_rect</title>
<g id="a_node26"><a xlink:href="CoreParts.html#LaxCommaCategoryParts.object_rect" xlink:title="object_rect">
<ellipse fill="#f070d1" stroke="black" cx="572" cy="-535.386" rx="50.0912" ry="18"/>
<text text-anchor="middle" x="572" y="-531.686" font-family="Times,serif" font-size="14.00">object_rect</text>
</a>
</g>
</g>
<!-- CoreParts_LaxCommaCategoryParts_object_rec&#45;&gt;CoreParts_LaxCommaCategoryParts_object_rect -->
<g id="edge19" class="edge"><title>CoreParts_LaxCommaCategoryParts_object_rec&#45;&gt;CoreParts_LaxCommaCategoryParts_object_rect</title>
<path fill="none" stroke="black" d="M572,-733.252C572,-690.908 572,-607.641 572,-563.849"/>
<polygon fill="black" stroke="black" points="575.5,-563.614 572,-553.614 568.5,-563.614 575.5,-563.614"/>
</g>
<!-- CoreParts_LaxCommaCategoryParts_object_ind -->
<g id="node25" class="node"><title>CoreParts_LaxCommaCategoryParts_object_ind</title>
<g id="a_node25"><a xlink:href="CoreParts.html#LaxCommaCategoryParts.object_ind" xlink:title="object_ind">
<ellipse fill="#7fffd4" stroke="black" cx="442" cy="-759.386" rx="48.178" ry="18"/>
<ellipse fill="none" stroke="black" cx="442" cy="-759.386" rx="52.1848" ry="22"/>
<ellipse fill="none" stroke="black" cx="442" cy="-759.386" rx="56.1916" ry="26"/>
<text text-anchor="middle" x="442" y="-755.686" font-family="Times,serif" font-size="14.00">object_ind</text>
</a>
</g>
</g>
<!-- CoreParts_LaxCommaCategoryParts_object_ind&#45;&gt;CoreParts_LaxCommaCategoryParts_object_rect -->
<g id="edge20" class="edge"><title>CoreParts_LaxCommaCategoryParts_object_ind&#45;&gt;CoreParts_LaxCommaCategoryParts_object_rect</title>
<path fill="none" stroke="black" d="M456.66,-734.126C481.405,-691.487 531.231,-605.633 556.519,-562.06"/>
<polygon fill="black" stroke="black" points="559.678,-563.591 561.67,-553.185 553.623,-560.077 559.678,-563.591"/>
</g>
<!-- CoreParts_LaxCommaCategoryParts_object_rect&#45;&gt;CoreParts_LaxCommaCategoryParts_Build_object -->
<g id="edge21" class="edge"><title>CoreParts_LaxCommaCategoryParts_object_rect&#45;&gt;CoreParts_LaxCommaCategoryParts_Build_object</title>
<path fill="none" stroke="black" d="M582.672,-517.73C606.447,-478.396 663.883,-383.374 691.98,-336.889"/>
<polygon fill="black" stroke="black" points="695.012,-338.639 697.19,-328.27 689.021,-335.018 695.012,-338.639"/>
</g>
<!-- CoreParts_LaxCommaCategoryParts_f -->
<g id="node27" class="node"><title>CoreParts_LaxCommaCategoryParts_f</title>
<g id="a_node27"><a xlink:href="CoreParts.html#LaxCommaCategoryParts.f" xlink:title="f">
<ellipse fill="#f070d1" stroke="black" cx="333" cy="-759.386" rx="27" ry="18"/>
<ellipse fill="none" stroke="black" cx="333" cy="-759.386" rx="31" ry="22"/>
<ellipse fill="none" stroke="black" cx="333" cy="-759.386" rx="35" ry="26"/>
<text text-anchor="middle" x="333" y="-755.686" font-family="Times,serif" font-size="14.00">f</text>
</a>
</g>
</g>
<!-- CoreParts_LaxCommaCategoryParts_b -->
<g id="node28" class="node"><title>CoreParts_LaxCommaCategoryParts_b</title>
<g id="a_node28"><a xlink:href="CoreParts.html#LaxCommaCategoryParts.b" xlink:title="b">
<ellipse fill="#f070d1" stroke="black" cx="245" cy="-759.386" rx="27" ry="18"/>
<ellipse fill="none" stroke="black" cx="245" cy="-759.386" rx="31" ry="22"/>
<ellipse fill="none" stroke="black" cx="245" cy="-759.386" rx="35" ry="26"/>
<text text-anchor="middle" x="245" y="-755.686" font-family="Times,serif" font-size="14.00">b</text>
</a>
</g>
</g>
<!-- CoreParts_LaxCommaCategoryParts_a -->
<g id="node29" class="node"><title>CoreParts_LaxCommaCategoryParts_a</title>
<g id="a_node29"><a xlink:href="CoreParts.html#LaxCommaCategoryParts.a" xlink:title="a">
<ellipse fill="#f070d1" stroke="black" cx="157" cy="-759.386" rx="27" ry="18"/>
<ellipse fill="none" stroke="black" cx="157" cy="-759.386" rx="31" ry="22"/>
<ellipse fill="none" stroke="black" cx="157" cy="-759.386" rx="35" ry="26"/>
<text text-anchor="middle" x="157" y="-755.686" font-family="Times,serif" font-size="14.00">a</text>
</a>
</g>
</g>
<!-- CoreParts_LaxCommaCategoryParts_object -->
<g id="node31" class="node"><title>CoreParts_LaxCommaCategoryParts_object</title>
<g id="a_node31"><a xlink:href="CoreParts.html#LaxCommaCategoryParts.object" xlink:title="object">
<ellipse fill="#e2cdfa" stroke="black" cx="64" cy="-759.386" rx="32.4948" ry="18"/>
<ellipse fill="none" stroke="black" cx="64" cy="-759.386" rx="36.4945" ry="22"/>
<ellipse fill="none" stroke="black" cx="64" cy="-759.386" rx="40.4942" ry="26"/>
<text text-anchor="middle" x="64" y="-755.686" font-family="Times,serif" font-size="14.00">object</text>
</a>
</g>
</g>
</g>
</svg>
