<?xml version="1.0" encoding="UTF-8" standalone="no"?>
<!DOCTYPE svg PUBLIC "-//W3C//DTD SVG 1.1//EN"
 "http://www.w3.org/Graphics/SVG/1.1/DTD/svg11.dtd">
<!-- Generated by graphviz version 2.26.3 (20100126.1600)
 -->
<!-- Title: HoTT_Tactics Pages: 1 -->
<svg width="912pt" height="460pt"
 viewBox="0.00 0.00 912.00 460.00" xmlns="http://www.w3.org/2000/svg" xmlns:xlink="http://www.w3.org/1999/xlink">
<g id="graph1" class="graph" transform="scale(1 1) rotate(0) translate(4 456)">
<title>HoTT_Tactics</title>
<polygon fill="white" stroke="white" points="-4,5 -4,-456 909,-456 909,5 -4,5"/>
<g id="graph2" class="cluster"><title>cluster_Tactics</title>
<polygon fill="#ffffc3" stroke="black" points="8,-13.9077 8,-438.092 896,-438.092 896,-13.9077 8,-13.9077"/>
<text text-anchor="middle" x="39" y="-421.492" font-family="Times Roman,serif" font-size="14.00">Tactics</text>
</g>
<!-- Tactics_match_eta2 -->
<g id="node1" class="node"><title>Tactics_match_eta2</title>
<a xlink:href="Tactics.html#match_eta2" xlink:title="match_eta2">
<ellipse fill="#f070d1" stroke="black" cx="811" cy="-331.908" rx="68.8494" ry="18.3848"/>
<ellipse fill="none" stroke="black" cx="811" cy="-331.908" rx="72.8236" ry="22.3848"/>
<ellipse fill="none" stroke="black" cx="811" cy="-331.908" rx="76.7978" ry="26.3848"/>
<text text-anchor="middle" x="811" y="-328.308" font-family="Times Roman,serif" font-size="14.00">match_eta2</text>
</a>
</g>
<!-- Tactics_match_eta1 -->
<g id="node2" class="node"><title>Tactics_match_eta1</title>
<a xlink:href="Tactics.html#match_eta1" xlink:title="match_eta1">
<ellipse fill="#f070d1" stroke="black" cx="811" cy="-189.908" rx="68.7979" ry="18.3848"/>
<text text-anchor="middle" x="811" y="-186.308" font-family="Times Roman,serif" font-size="14.00">match_eta1</text>
</a>
</g>
<!-- Tactics_match_eta2&#45;&gt;Tactics_match_eta1 -->
<g id="edge2" class="edge"><title>Tactics_match_eta2&#45;&gt;Tactics_match_eta1</title>
<path fill="none" stroke="black" d="M811,-305.199C811,-280.595 811,-244.176 811,-218.879"/>
<polygon fill="black" stroke="black" points="814.5,-218.785 811,-208.785 807.5,-218.785 814.5,-218.785"/>
</g>
<!-- Tactics_match_eta -->
<g id="node3" class="node"><title>Tactics_match_eta</title>
<a xlink:href="Tactics.html#match_eta" xlink:title="match_eta">
<ellipse fill="#f070d1" stroke="black" cx="811" cy="-60.9077" rx="62.9325" ry="18.3848"/>
<text text-anchor="middle" x="811" y="-57.3077" font-family="Times Roman,serif" font-size="14.00">match_eta</text>
</a>
</g>
<!-- Tactics_match_eta1&#45;&gt;Tactics_match_eta -->
<g id="edge4" class="edge"><title>Tactics_match_eta1&#45;&gt;Tactics_match_eta</title>
<path fill="none" stroke="black" d="M811,-171.15C811,-149.845 811,-114.823 811,-89.9738"/>
<polygon fill="black" stroke="black" points="814.5,-89.688 811,-79.688 807.5,-89.6881 814.5,-89.688"/>
</g>
<!-- Tactics_path_forall_2_beta -->
<g id="node4" class="node"><title>Tactics_path_forall_2_beta</title>
<a xlink:href="Tactics.html#path_forall_2_beta" xlink:title="path_forall_2_beta">
<ellipse fill="#facdef" stroke="black" cx="606" cy="-331.908" rx="102.067" ry="18.3848"/>
<ellipse fill="none" stroke="black" cx="606" cy="-331.908" rx="106.048" ry="22.3848"/>
<ellipse fill="none" stroke="black" cx="606" cy="-331.908" rx="110.03" ry="26.3848"/>
<text text-anchor="middle" x="606" y="-328.308" font-family="Times Roman,serif" font-size="14.00">path_forall_2_beta</text>
</a>
</g>
<!-- Tactics_path_forall_recr_beta -->
<g id="node6" class="node"><title>Tactics_path_forall_recr_beta</title>
<a xlink:href="Tactics.html#path_forall_recr_beta" xlink:title="path_forall_recr_beta">
<ellipse fill="#f070d1" stroke="black" cx="486" cy="-189.908" rx="114.759" ry="18.3848"/>
<text text-anchor="middle" x="486" y="-186.308" font-family="Times Roman,serif" font-size="14.00">path_forall_recr_beta</text>
</a>
</g>
<!-- Tactics_path_forall_2_beta&#45;&gt;Tactics_path_forall_recr_beta -->
<g id="edge6" class="edge"><title>Tactics_path_forall_2_beta&#45;&gt;Tactics_path_forall_recr_beta</title>
<path fill="none" stroke="black" d="M583.99,-305.863C562.499,-280.431 529.961,-241.928 508.353,-216.359"/>
<polygon fill="black" stroke="black" points="510.877,-213.924 501.75,-208.545 505.531,-218.442 510.877,-213.924"/>
</g>
<!-- Tactics_path_forall_2_beta_ -->
<g id="node5" class="node"><title>Tactics_path_forall_2_beta_</title>
<a xlink:href="Tactics.html#path_forall_2_beta&#39;" xlink:title="path_forall_2_beta&#39;">
<ellipse fill="#facdef" stroke="black" cx="366" cy="-331.908" rx="104.187" ry="18.3848"/>
<ellipse fill="none" stroke="black" cx="366" cy="-331.908" rx="108.169" ry="22.3848"/>
<ellipse fill="none" stroke="black" cx="366" cy="-331.908" rx="112.151" ry="26.3848"/>
<text text-anchor="middle" x="366" y="-328.308" font-family="Times Roman,serif" font-size="14.00">path_forall_2_beta&#39;</text>
</a>
</g>
<!-- Tactics_path_forall_2_beta_&#45;&gt;Tactics_path_forall_recr_beta -->
<g id="edge8" class="edge"><title>Tactics_path_forall_2_beta_&#45;&gt;Tactics_path_forall_recr_beta</title>
<path fill="none" stroke="black" d="M388.01,-305.863C409.501,-280.431 442.039,-241.928 463.647,-216.359"/>
<polygon fill="black" stroke="black" points="466.469,-218.442 470.25,-208.545 461.123,-213.924 466.469,-218.442"/>
</g>
<!-- Tactics_path_forall_recr_beta_ -->
<g id="node7" class="node"><title>Tactics_path_forall_recr_beta_</title>
<a xlink:href="Tactics.html#path_forall_recr_beta&#39;" xlink:title="path_forall_recr_beta&#39;">
<ellipse fill="#f070d1" stroke="black" cx="486" cy="-60.9077" rx="116.88" ry="18.3848"/>
<text text-anchor="middle" x="486" y="-57.3077" font-family="Times Roman,serif" font-size="14.00">path_forall_recr_beta&#39;</text>
</a>
</g>
<!-- Tactics_path_forall_recr_beta&#45;&gt;Tactics_path_forall_recr_beta_ -->
<g id="edge10" class="edge"><title>Tactics_path_forall_recr_beta&#45;&gt;Tactics_path_forall_recr_beta_</title>
<path fill="none" stroke="black" d="M486,-171.15C486,-149.845 486,-114.823 486,-89.9738"/>
<polygon fill="black" stroke="black" points="489.5,-89.688 486,-79.688 482.5,-89.6881 489.5,-89.688"/>
</g>
<!-- Tactics_path_forall_1_beta -->
<g id="node8" class="node"><title>Tactics_path_forall_1_beta</title>
<a xlink:href="Tactics.html#path_forall_1_beta" xlink:title="path_forall_1_beta">
<ellipse fill="#f070d1" stroke="black" cx="126" cy="-331.908" rx="102.067" ry="18.3848"/>
<ellipse fill="none" stroke="black" cx="126" cy="-331.908" rx="106.048" ry="22.3848"/>
<ellipse fill="none" stroke="black" cx="126" cy="-331.908" rx="110.03" ry="26.3848"/>
<text text-anchor="middle" x="126" y="-328.308" font-family="Times Roman,serif" font-size="14.00">path_forall_1_beta</text>
</a>
</g>
</g>
</svg>
