<?xml version="1.0" encoding="UTF-8" standalone="no"?>
<!DOCTYPE svg PUBLIC "-//W3C//DTD SVG 1.1//EN"
 "http://www.w3.org/Graphics/SVG/1.1/DTD/svg11.dtd">
<!-- Generated by graphviz version 2.26.3 (20100126.1600)
 -->
<!-- Title: HoTT_categories_Grothendieck_Grothendieck Pages: 1 -->
<svg width="3940pt" height="1974pt"
 viewBox="0.00 0.00 3940.00 1974.00" xmlns="http://www.w3.org/2000/svg" xmlns:xlink="http://www.w3.org/1999/xlink">
<g id="graph1" class="graph" transform="scale(1 1) rotate(0) translate(4 1970)">
<title>HoTT_categories_Grothendieck_Grothendieck</title>
<polygon fill="white" stroke="white" points="-4,5 -4,-1970 3937,-1970 3937,5 -4,5"/>
<g id="graph2" class="cluster"><title>cluster_Grothendieck</title>
<polygon fill="#ffffc3" stroke="black" points="8,-26.301 8,-1939.7 3924,-1939.7 3924,-26.301 8,-26.301"/>
<text text-anchor="middle" x="63" y="-1923.1" font-family="Times Roman,serif" font-size="14.00">Grothendieck</text>
</g>
<g id="graph3" class="cluster"><title>cluster_Grothendieck_PseudofunctorToCat</title>
<polygon fill="#ffffa3" stroke="black" points="1184,-295.886 1184,-1827.92 3916,-1827.92 3916,-295.886 1184,-295.886"/>
<text text-anchor="middle" x="1261.5" y="-1811.32" font-family="Times Roman,serif" font-size="14.00">PseudofunctorToCat</text>
</g>
<g id="graph4" class="cluster"><title>cluster_Grothendieck_ToCat</title>
<polygon fill="#ffffa3" stroke="black" points="946,-1512.31 946,-1827.92 1176,-1827.92 1176,-1512.31 946,-1512.31"/>
<text text-anchor="middle" x="974" y="-1811.32" font-family="Times Roman,serif" font-size="14.00">ToCat</text>
</g>
<g id="graph5" class="cluster"><title>cluster_Grothendieck_ToSet</title>
<polygon fill="#ffffa3" stroke="black" points="16,-52.602 16,-1827.92 938,-1827.92 938,-52.602 16,-52.602"/>
<text text-anchor="middle" x="43.5" y="-1811.32" font-family="Times Roman,serif" font-size="14.00">ToSet</text>
</g>
<!-- Grothendieck_ToSet_pr1 -->
<g id="node1" class="node"><title>Grothendieck_ToSet_pr1</title>
<a xlink:href="Grothendieck.html#ToSet.pr1" xlink:title="pr1">
<ellipse fill="#f070d1" stroke="black" cx="589" cy="-1627.3" rx="27.8968" ry="18.3848"/>
<ellipse fill="none" stroke="black" cx="589" cy="-1627.3" rx="31.842" ry="22.3848"/>
<ellipse fill="none" stroke="black" cx="589" cy="-1627.3" rx="35.7872" ry="26.3848"/>
<text text-anchor="middle" x="589" y="-1623.7" font-family="Times Roman,serif" font-size="14.00">pr1</text>
</a>
</g>
<!-- Grothendieck_ToSet_category -->
<g id="node2" class="node"><title>Grothendieck_ToSet_category</title>
<a xlink:href="Grothendieck.html#ToSet.category" xlink:title="category">
<ellipse fill="#f070d1" stroke="black" cx="589" cy="-1357.3" rx="53.9477" ry="18.3848"/>
<text text-anchor="middle" x="589" y="-1353.7" font-family="Times Roman,serif" font-size="14.00">category</text>
</a>
</g>
<!-- Grothendieck_ToSet_pr1&#45;&gt;Grothendieck_ToSet_category -->
<g id="edge2" class="edge"><title>Grothendieck_ToSet_pr1&#45;&gt;Grothendieck_ToSet_category</title>
<path fill="none" stroke="black" d="M589,-1600.43C589,-1549.37 589,-1438.77 589,-1386.19"/>
<polygon fill="black" stroke="black" points="592.5,-1385.89 589,-1375.89 585.5,-1385.89 592.5,-1385.89"/>
</g>
<!-- Grothendieck_ToSet_category_subproof1 -->
<g id="node3" class="node"><title>Grothendieck_ToSet_category_subproof1</title>
<a xlink:href="Grothendieck.html#ToSet.category_subproof1" xlink:title="category_subproof1">
<ellipse fill="#f070d1" stroke="black" cx="131" cy="-1114.3" rx="106.98" ry="18.3848"/>
<text text-anchor="middle" x="131" y="-1110.7" font-family="Times Roman,serif" font-size="14.00">category_subproof1</text>
</a>
</g>
<!-- Grothendieck_ToSet_category&#45;&gt;Grothendieck_ToSet_category_subproof1 -->
<g id="edge4" class="edge"><title>Grothendieck_ToSet_category&#45;&gt;Grothendieck_ToSet_category_subproof1</title>
<path fill="none" stroke="black" d="M559.653,-1341.73C481.012,-1300.01 265.295,-1185.55 173.381,-1136.79"/>
<polygon fill="black" stroke="black" points="174.833,-1133.6 164.359,-1132 171.552,-1139.78 174.833,-1133.6"/>
</g>
<!-- Grothendieck_ToSet_category_subproof0 -->
<g id="node4" class="node"><title>Grothendieck_ToSet_category_subproof0</title>
<a xlink:href="Grothendieck.html#ToSet.category_subproof0" xlink:title="category_subproof0">
<ellipse fill="#f070d1" stroke="black" cx="363" cy="-1114.3" rx="106.98" ry="18.3848"/>
<text text-anchor="middle" x="363" y="-1110.7" font-family="Times Roman,serif" font-size="14.00">category_subproof0</text>
</a>
</g>
<!-- Grothendieck_ToSet_category&#45;&gt;Grothendieck_ToSet_category_subproof0 -->
<g id="edge6" class="edge"><title>Grothendieck_ToSet_category&#45;&gt;Grothendieck_ToSet_category_subproof0</title>
<path fill="none" stroke="black" d="M572.382,-1339.43C532.903,-1296.98 433.35,-1189.94 387.192,-1140.31"/>
<polygon fill="black" stroke="black" points="389.633,-1137.8 380.259,-1132.86 384.507,-1142.56 389.633,-1137.8"/>
</g>
<!-- Grothendieck_ToSet_category_subproof -->
<g id="node5" class="node"><title>Grothendieck_ToSet_category_subproof</title>
<a xlink:href="Grothendieck.html#ToSet.category_subproof" xlink:title="category_subproof">
<ellipse fill="#f070d1" stroke="black" cx="589" cy="-1114.3" rx="101.116" ry="18.3848"/>
<text text-anchor="middle" x="589" y="-1110.7" font-family="Times Roman,serif" font-size="14.00">category_subproof</text>
</a>
</g>
<!-- Grothendieck_ToSet_category&#45;&gt;Grothendieck_ToSet_category_subproof -->
<g id="edge8" class="edge"><title>Grothendieck_ToSet_category&#45;&gt;Grothendieck_ToSet_category_subproof</title>
<path fill="none" stroke="black" d="M589,-1338.64C589,-1296.5 589,-1193.73 589,-1143.25"/>
<polygon fill="black" stroke="black" points="592.5,-1143.03 589,-1133.03 585.5,-1143.03 592.5,-1143.03"/>
</g>
<!-- Grothendieck_ToSet_identity -->
<g id="node6" class="node"><title>Grothendieck_ToSet_identity</title>
<a xlink:href="Grothendieck.html#ToSet.identity" xlink:title="identity">
<ellipse fill="#f070d1" stroke="black" cx="757" cy="-1114.3" rx="48.9975" ry="18.3848"/>
<text text-anchor="middle" x="757" y="-1110.7" font-family="Times Roman,serif" font-size="14.00">identity</text>
</a>
</g>
<!-- Grothendieck_ToSet_category&#45;&gt;Grothendieck_ToSet_identity -->
<g id="edge10" class="edge"><title>Grothendieck_ToSet_category&#45;&gt;Grothendieck_ToSet_identity</title>
<path fill="none" stroke="black" d="M601.627,-1339.04C631.07,-1296.45 704.372,-1190.42 738.71,-1140.76"/>
<polygon fill="black" stroke="black" points="741.647,-1142.66 744.455,-1132.45 735.89,-1138.68 741.647,-1142.66"/>
</g>
<!-- Grothendieck_ToSet_compose -->
<g id="node8" class="node"><title>Grothendieck_ToSet_compose</title>
<a xlink:href="Grothendieck.html#ToSet.compose" xlink:title="compose">
<ellipse fill="#f070d1" stroke="black" cx="877" cy="-1114.3" rx="53.2379" ry="18.3848"/>
<text text-anchor="middle" x="877" y="-1110.7" font-family="Times Roman,serif" font-size="14.00">compose</text>
</a>
</g>
<!-- Grothendieck_ToSet_category&#45;&gt;Grothendieck_ToSet_compose -->
<g id="edge12" class="edge"><title>Grothendieck_ToSet_category&#45;&gt;Grothendieck_ToSet_compose</title>
<path fill="none" stroke="black" d="M609.712,-1339.83C660.463,-1297 791.08,-1186.8 848.827,-1138.07"/>
<polygon fill="black" stroke="black" points="851.09,-1140.74 856.475,-1131.62 846.575,-1135.39 851.09,-1140.74"/>
</g>
<!-- Grothendieck_ToSet_identity_H -->
<g id="node7" class="node"><title>Grothendieck_ToSet_identity_H</title>
<a xlink:href="Grothendieck.html#ToSet.identity_H" xlink:title="identity_H">
<ellipse fill="#f070d1" stroke="black" cx="718" cy="-871.301" rx="62.2254" ry="18.3848"/>
<text text-anchor="middle" x="718" y="-867.701" font-family="Times Roman,serif" font-size="14.00">identity_H</text>
</a>
</g>
<!-- Grothendieck_ToSet_identity&#45;&gt;Grothendieck_ToSet_identity_H -->
<g id="edge14" class="edge"><title>Grothendieck_ToSet_identity&#45;&gt;Grothendieck_ToSet_identity_H</title>
<path fill="none" stroke="black" d="M754.004,-1095.64C747.227,-1053.41 730.679,-950.302 722.596,-899.935"/>
<polygon fill="black" stroke="black" points="726.046,-899.348 721.006,-890.029 719.135,-900.457 726.046,-899.348"/>
</g>
<!-- Grothendieck_ToSet_x -->
<g id="node10" class="node"><title>Grothendieck_ToSet_x</title>
<a xlink:href="Grothendieck.html#ToSet.x" xlink:title="x">
<ellipse fill="#f070d1" stroke="black" cx="791" cy="-628.301" rx="27" ry="18.3848"/>
<text text-anchor="middle" x="791" y="-624.701" font-family="Times Roman,serif" font-size="14.00">x</text>
</a>
</g>
<!-- Grothendieck_ToSet_identity_H&#45;&gt;Grothendieck_ToSet_x -->
<g id="edge16" class="edge"><title>Grothendieck_ToSet_identity_H&#45;&gt;Grothendieck_ToSet_x</title>
<path fill="none" stroke="black" d="M723.607,-852.637C736.324,-810.304 767.419,-706.795 782.509,-656.565"/>
<polygon fill="black" stroke="black" points="785.949,-657.28 785.474,-646.696 779.245,-655.266 785.949,-657.28"/>
</g>
<!-- Grothendieck_ToSet_compose_H -->
<g id="node9" class="node"><title>Grothendieck_ToSet_compose_H</title>
<a xlink:href="Grothendieck.html#ToSet.compose_H" xlink:title="compose_H">
<ellipse fill="#f070d1" stroke="black" cx="864" cy="-871.301" rx="65.9683" ry="18.3848"/>
<text text-anchor="middle" x="864" y="-867.701" font-family="Times Roman,serif" font-size="14.00">compose_H</text>
</a>
</g>
<!-- Grothendieck_ToSet_compose&#45;&gt;Grothendieck_ToSet_compose_H -->
<g id="edge18" class="edge"><title>Grothendieck_ToSet_compose&#45;&gt;Grothendieck_ToSet_compose_H</title>
<path fill="none" stroke="black" d="M876.001,-1095.64C873.747,-1053.5 868.249,-950.733 865.549,-900.252"/>
<polygon fill="black" stroke="black" points="869.031,-899.828 865.002,-890.029 862.041,-900.202 869.031,-899.828"/>
</g>
<!-- Grothendieck_ToSet_compose_H&#45;&gt;Grothendieck_ToSet_x -->
<g id="edge20" class="edge"><title>Grothendieck_ToSet_compose_H&#45;&gt;Grothendieck_ToSet_x</title>
<path fill="none" stroke="black" d="M858.393,-852.637C845.676,-810.304 814.581,-706.795 799.491,-656.565"/>
<polygon fill="black" stroke="black" points="802.755,-655.266 796.526,-646.696 796.051,-657.28 802.755,-655.266"/>
</g>
<!-- Grothendieck_ToSet_c -->
<g id="node11" class="node"><title>Grothendieck_ToSet_c</title>
<a xlink:href="Grothendieck.html#ToSet.c" xlink:title="c">
<ellipse fill="#f070d1" stroke="black" cx="791" cy="-384.301" rx="27" ry="18.3848"/>
<text text-anchor="middle" x="791" y="-380.701" font-family="Times Roman,serif" font-size="14.00">c</text>
</a>
</g>
<!-- Grothendieck_ToSet_x&#45;&gt;Grothendieck_ToSet_c -->
<g id="edge22" class="edge"><title>Grothendieck_ToSet_x&#45;&gt;Grothendieck_ToSet_c</title>
<path fill="none" stroke="black" d="M791,-609.56C791,-567.246 791,-464.06 791,-413.371"/>
<polygon fill="black" stroke="black" points="794.5,-413.106 791,-403.106 787.5,-413.106 794.5,-413.106"/>
</g>
<!-- Grothendieck_ToSet_Pair -->
<g id="node13" class="node"><title>Grothendieck_ToSet_Pair</title>
<a xlink:href="Grothendieck.html#ToSet.Pair" xlink:title="Pair">
<ellipse fill="#e2cdfa" stroke="black" cx="791" cy="-141.301" rx="29.9071" ry="18.3848"/>
<text text-anchor="middle" x="791" y="-137.701" font-family="Times Roman,serif" font-size="14.00">Pair</text>
</a>
</g>
<!-- Grothendieck_ToSet_c&#45;&gt;Grothendieck_ToSet_Pair -->
<g id="edge24" class="edge"><title>Grothendieck_ToSet_c&#45;&gt;Grothendieck_ToSet_Pair</title>
<path fill="none" stroke="black" d="M791,-365.637C791,-323.497 791,-220.733 791,-170.252"/>
<polygon fill="black" stroke="black" points="794.5,-170.029 791,-160.029 787.5,-170.029 794.5,-170.029"/>
</g>
<!-- Grothendieck_ToSet_Build_Pair -->
<g id="node12" class="node"><title>Grothendieck_ToSet_Build_Pair</title>
<a xlink:href="Grothendieck.html#ToSet.Build_Pair" xlink:title="Build_Pair">
<ellipse fill="#7faaff" stroke="black" cx="280" cy="-1627.3" rx="60.1041" ry="18.3848"/>
<ellipse fill="none" stroke="black" cx="280" cy="-1627.3" rx="64.1041" ry="22.3848"/>
<ellipse fill="none" stroke="black" cx="280" cy="-1627.3" rx="68.1041" ry="26.3848"/>
<text text-anchor="middle" x="280" y="-1623.7" font-family="Times Roman,serif" font-size="14.00">Build_Pair</text>
</a>
</g>
<!-- Grothendieck_ToCat_pr1 -->
<g id="node14" class="node"><title>Grothendieck_ToCat_pr1</title>
<a xlink:href="Grothendieck.html#ToCat.pr1" xlink:title="pr1">
<ellipse fill="#f070d1" stroke="black" cx="1132" cy="-1627.3" rx="27.8968" ry="18.3848"/>
<ellipse fill="none" stroke="black" cx="1132" cy="-1627.3" rx="31.842" ry="22.3848"/>
<ellipse fill="none" stroke="black" cx="1132" cy="-1627.3" rx="35.7872" ry="26.3848"/>
<text text-anchor="middle" x="1132" y="-1623.7" font-family="Times Roman,serif" font-size="14.00">pr1</text>
</a>
</g>
<!-- Grothendieck_ToCat_category -->
<g id="node15" class="node"><title>Grothendieck_ToCat_category</title>
<a xlink:href="Grothendieck.html#ToCat.category" xlink:title="category">
<ellipse fill="#f070d1" stroke="black" cx="1016" cy="-1627.3" rx="54.0116" ry="18.3848"/>
<ellipse fill="none" stroke="black" cx="1016" cy="-1627.3" rx="57.9796" ry="22.3848"/>
<ellipse fill="none" stroke="black" cx="1016" cy="-1627.3" rx="61.9476" ry="26.3848"/>
<text text-anchor="middle" x="1016" y="-1623.7" font-family="Times Roman,serif" font-size="14.00">category</text>
</a>
</g>
<!-- Grothendieck_PseudofunctorToCat_pr1 -->
<g id="node16" class="node"><title>Grothendieck_PseudofunctorToCat_pr1</title>
<a xlink:href="Grothendieck.html#PseudofunctorToCat.pr1" xlink:title="pr1">
<ellipse fill="#f070d1" stroke="black" cx="3872" cy="-1627.3" rx="27.8968" ry="18.3848"/>
<ellipse fill="none" stroke="black" cx="3872" cy="-1627.3" rx="31.842" ry="22.3848"/>
<ellipse fill="none" stroke="black" cx="3872" cy="-1627.3" rx="35.7872" ry="26.3848"/>
<text text-anchor="middle" x="3872" y="-1623.7" font-family="Times Roman,serif" font-size="14.00">pr1</text>
</a>
</g>
<!-- Grothendieck_PseudofunctorToCat_category -->
<g id="node17" class="node"><title>Grothendieck_PseudofunctorToCat_category</title>
<a xlink:href="Grothendieck.html#PseudofunctorToCat.category" xlink:title="category">
<ellipse fill="#f070d1" stroke="black" cx="3651" cy="-1357.3" rx="53.9477" ry="18.3848"/>
<text text-anchor="middle" x="3651" y="-1353.7" font-family="Times Roman,serif" font-size="14.00">category</text>
</a>
</g>
<!-- Grothendieck_PseudofunctorToCat_pr1&#45;&gt;Grothendieck_PseudofunctorToCat_category -->
<g id="edge26" class="edge"><title>Grothendieck_PseudofunctorToCat_pr1&#45;&gt;Grothendieck_PseudofunctorToCat_category</title>
<path fill="none" stroke="black" d="M3853.16,-1604.28C3812.14,-1554.17 3714.99,-1435.48 3672.04,-1383.01"/>
<polygon fill="black" stroke="black" points="3674.68,-1380.7 3665.63,-1375.18 3669.26,-1385.13 3674.68,-1380.7"/>
</g>
<!-- Grothendieck_PseudofunctorToCat_category_subproof1 -->
<g id="node18" class="node"><title>Grothendieck_PseudofunctorToCat_category_subproof1</title>
<a xlink:href="Grothendieck.html#PseudofunctorToCat.category_subproof1" xlink:title="category_subproof1">
<ellipse fill="#f070d1" stroke="black" cx="3109" cy="-1114.3" rx="106.98" ry="18.3848"/>
<text text-anchor="middle" x="3109" y="-1110.7" font-family="Times Roman,serif" font-size="14.00">category_subproof1</text>
</a>
</g>
<!-- Grothendieck_PseudofunctorToCat_category&#45;&gt;Grothendieck_PseudofunctorToCat_category_subproof1 -->
<g id="edge28" class="edge"><title>Grothendieck_PseudofunctorToCat_category&#45;&gt;Grothendieck_PseudofunctorToCat_category_subproof1</title>
<path fill="none" stroke="black" d="M3617.91,-1342.47C3525.66,-1301.11 3265.28,-1184.37 3157.08,-1135.86"/>
<polygon fill="black" stroke="black" points="3158.26,-1132.55 3147.71,-1131.65 3155.4,-1138.94 3158.26,-1132.55"/>
</g>
<!-- Grothendieck_PseudofunctorToCat_category_subproof0 -->
<g id="node19" class="node"><title>Grothendieck_PseudofunctorToCat_category_subproof0</title>
<a xlink:href="Grothendieck.html#PseudofunctorToCat.category_subproof0" xlink:title="category_subproof0">
<ellipse fill="#f070d1" stroke="black" cx="3341" cy="-1114.3" rx="106.98" ry="18.3848"/>
<text text-anchor="middle" x="3341" y="-1110.7" font-family="Times Roman,serif" font-size="14.00">category_subproof0</text>
</a>
</g>
<!-- Grothendieck_PseudofunctorToCat_category&#45;&gt;Grothendieck_PseudofunctorToCat_category_subproof0 -->
<g id="edge30" class="edge"><title>Grothendieck_PseudofunctorToCat_category&#45;&gt;Grothendieck_PseudofunctorToCat_category_subproof0</title>
<path fill="none" stroke="black" d="M3629.2,-1340.21C3575.26,-1297.93 3435.35,-1188.26 3372.45,-1138.95"/>
<polygon fill="black" stroke="black" points="3374.48,-1136.1 3364.45,-1132.69 3370.17,-1141.61 3374.48,-1136.1"/>
</g>
<!-- Grothendieck_PseudofunctorToCat_category_subproof -->
<g id="node20" class="node"><title>Grothendieck_PseudofunctorToCat_category_subproof</title>
<a xlink:href="Grothendieck.html#PseudofunctorToCat.category_subproof" xlink:title="category_subproof">
<ellipse fill="#f070d1" stroke="black" cx="3567" cy="-1114.3" rx="101.116" ry="18.3848"/>
<text text-anchor="middle" x="3567" y="-1110.7" font-family="Times Roman,serif" font-size="14.00">category_subproof</text>
</a>
</g>
<!-- Grothendieck_PseudofunctorToCat_category&#45;&gt;Grothendieck_PseudofunctorToCat_category_subproof -->
<g id="edge32" class="edge"><title>Grothendieck_PseudofunctorToCat_category&#45;&gt;Grothendieck_PseudofunctorToCat_category_subproof</title>
<path fill="none" stroke="black" d="M3644.55,-1338.64C3629.92,-1296.32 3594.16,-1192.87 3576.79,-1142.62"/>
<polygon fill="black" stroke="black" points="3580.05,-1141.34 3573.47,-1133.03 3573.43,-1143.62 3580.05,-1141.34"/>
</g>
<!-- Grothendieck_PseudofunctorToCat_identity -->
<g id="node26" class="node"><title>Grothendieck_PseudofunctorToCat_identity</title>
<a xlink:href="Grothendieck.html#PseudofunctorToCat.identity" xlink:title="identity">
<ellipse fill="#f070d1" stroke="black" cx="3735" cy="-1114.3" rx="48.9975" ry="18.3848"/>
<text text-anchor="middle" x="3735" y="-1110.7" font-family="Times Roman,serif" font-size="14.00">identity</text>
</a>
</g>
<!-- Grothendieck_PseudofunctorToCat_category&#45;&gt;Grothendieck_PseudofunctorToCat_identity -->
<g id="edge34" class="edge"><title>Grothendieck_PseudofunctorToCat_category&#45;&gt;Grothendieck_PseudofunctorToCat_identity</title>
<path fill="none" stroke="black" d="M3657.45,-1338.64C3672.12,-1296.22 3708.02,-1192.36 3725.34,-1142.25"/>
<polygon fill="black" stroke="black" points="3728.68,-1143.29 3728.64,-1132.7 3722.07,-1141 3728.68,-1143.29"/>
</g>
<!-- Grothendieck_PseudofunctorToCat_compose -->
<g id="node27" class="node"><title>Grothendieck_PseudofunctorToCat_compose</title>
<a xlink:href="Grothendieck.html#PseudofunctorToCat.compose" xlink:title="compose">
<ellipse fill="#f070d1" stroke="black" cx="3855" cy="-1114.3" rx="53.2379" ry="18.3848"/>
<text text-anchor="middle" x="3855" y="-1110.7" font-family="Times Roman,serif" font-size="14.00">compose</text>
</a>
</g>
<!-- Grothendieck_PseudofunctorToCat_category&#45;&gt;Grothendieck_PseudofunctorToCat_compose -->
<g id="edge36" class="edge"><title>Grothendieck_PseudofunctorToCat_category&#45;&gt;Grothendieck_PseudofunctorToCat_compose</title>
<path fill="none" stroke="black" d="M3666,-1339.43C3701.74,-1296.86 3792.01,-1189.34 3833.52,-1139.89"/>
<polygon fill="black" stroke="black" points="3836.23,-1142.1 3839.98,-1132.2 3830.87,-1137.6 3836.23,-1142.1"/>
</g>
<!-- Grothendieck_PseudofunctorToCat_pseudofunctor_to_cat_right_identity_helper -->
<g id="node21" class="node"><title>Grothendieck_PseudofunctorToCat_pseudofunctor_to_cat_right_identity_helper</title>
<a xlink:href="Grothendieck.html#PseudofunctorToCat.pseudofunctor_to_cat_right_identity_helper" xlink:title="pseudofunctor_to_cat_right_identity_helper">
<ellipse fill="#f070d1" stroke="black" cx="3586" cy="-1627.3" rx="224.153" ry="18.3848"/>
<ellipse fill="none" stroke="black" cx="3586" cy="-1627.3" rx="228.153" ry="22.3848"/>
<ellipse fill="none" stroke="black" cx="3586" cy="-1627.3" rx="232.153" ry="26.3848"/>
<text text-anchor="middle" x="3586" y="-1623.7" font-family="Times Roman,serif" font-size="14.00">pseudofunctor_to_cat_right_identity_helper</text>
</a>
</g>
<!-- Grothendieck_PseudofunctorToCat_pseudofunctor_to_cat_right_identity_helper_subproof -->
<g id="node22" class="node"><title>Grothendieck_PseudofunctorToCat_pseudofunctor_to_cat_right_identity_helper_subproof</title>
<a xlink:href="Grothendieck.html#PseudofunctorToCat.pseudofunctor_to_cat_right_identity_helper_subproof" xlink:title="pseudofunctor_to_cat_right_identity_helper_subproof">
<ellipse fill="#f070d1" stroke="black" cx="3057" cy="-1627.3" rx="271.043" ry="18.3848"/>
<ellipse fill="none" stroke="black" cx="3057" cy="-1627.3" rx="275.036" ry="22.3848"/>
<ellipse fill="none" stroke="black" cx="3057" cy="-1627.3" rx="279.029" ry="26.3848"/>
<text text-anchor="middle" x="3057" y="-1623.7" font-family="Times Roman,serif" font-size="14.00">pseudofunctor_to_cat_right_identity_helper_subproof</text>
</a>
</g>
<!-- Grothendieck_PseudofunctorToCat_pseudofunctor_to_cat_left_identity_helper -->
<g id="node23" class="node"><title>Grothendieck_PseudofunctorToCat_pseudofunctor_to_cat_left_identity_helper</title>
<a xlink:href="Grothendieck.html#PseudofunctorToCat.pseudofunctor_to_cat_left_identity_helper" xlink:title="pseudofunctor_to_cat_left_identity_helper">
<ellipse fill="#f070d1" stroke="black" cx="2535" cy="-1627.3" rx="217.082" ry="18.3848"/>
<ellipse fill="none" stroke="black" cx="2535" cy="-1627.3" rx="221.082" ry="22.3848"/>
<ellipse fill="none" stroke="black" cx="2535" cy="-1627.3" rx="225.082" ry="26.3848"/>
<text text-anchor="middle" x="2535" y="-1623.7" font-family="Times Roman,serif" font-size="14.00">pseudofunctor_to_cat_left_identity_helper</text>
</a>
</g>
<!-- Grothendieck_PseudofunctorToCat_pseudofunctor_to_cat_left_identity_helper_subproof -->
<g id="node24" class="node"><title>Grothendieck_PseudofunctorToCat_pseudofunctor_to_cat_left_identity_helper_subproof</title>
<a xlink:href="Grothendieck.html#PseudofunctorToCat.pseudofunctor_to_cat_left_identity_helper_subproof" xlink:title="pseudofunctor_to_cat_left_identity_helper_subproof">
<ellipse fill="#f070d1" stroke="black" cx="2020" cy="-1627.3" rx="263.973" ry="18.3848"/>
<ellipse fill="none" stroke="black" cx="2020" cy="-1627.3" rx="267.965" ry="22.3848"/>
<ellipse fill="none" stroke="black" cx="2020" cy="-1627.3" rx="271.958" ry="26.3848"/>
<text text-anchor="middle" x="2020" y="-1623.7" font-family="Times Roman,serif" font-size="14.00">pseudofunctor_to_cat_left_identity_helper_subproof</text>
</a>
</g>
<!-- Grothendieck_PseudofunctorToCat_pseudofunctor_to_cat_assoc_helper -->
<g id="node25" class="node"><title>Grothendieck_PseudofunctorToCat_pseudofunctor_to_cat_assoc_helper</title>
<a xlink:href="Grothendieck.html#PseudofunctorToCat.pseudofunctor_to_cat_assoc_helper" xlink:title="pseudofunctor_to_cat_assoc_helper">
<ellipse fill="#f070d1" stroke="black" cx="1538" cy="-1627.3" rx="183.848" ry="18.3848"/>
<ellipse fill="none" stroke="black" cx="1538" cy="-1627.3" rx="187.848" ry="22.3848"/>
<ellipse fill="none" stroke="black" cx="1538" cy="-1627.3" rx="191.848" ry="26.3848"/>
<text text-anchor="middle" x="1538" y="-1623.7" font-family="Times Roman,serif" font-size="14.00">pseudofunctor_to_cat_assoc_helper</text>
</a>
</g>
<!-- Grothendieck_PseudofunctorToCat_x -->
<g id="node28" class="node"><title>Grothendieck_PseudofunctorToCat_x</title>
<a xlink:href="Grothendieck.html#PseudofunctorToCat.x" xlink:title="x">
<ellipse fill="#f070d1" stroke="black" cx="3795" cy="-871.301" rx="27" ry="18.3848"/>
<text text-anchor="middle" x="3795" y="-867.701" font-family="Times Roman,serif" font-size="14.00">x</text>
</a>
</g>
<!-- Grothendieck_PseudofunctorToCat_identity&#45;&gt;Grothendieck_PseudofunctorToCat_x -->
<g id="edge38" class="edge"><title>Grothendieck_PseudofunctorToCat_identity&#45;&gt;Grothendieck_PseudofunctorToCat_x</title>
<path fill="none" stroke="black" d="M3739.61,-1095.64C3750.06,-1053.3 3775.62,-949.795 3788.02,-899.565"/>
<polygon fill="black" stroke="black" points="3791.46,-900.244 3790.46,-889.696 3784.66,-898.566 3791.46,-900.244"/>
</g>
<!-- Grothendieck_PseudofunctorToCat_compose&#45;&gt;Grothendieck_PseudofunctorToCat_x -->
<g id="edge40" class="edge"><title>Grothendieck_PseudofunctorToCat_compose&#45;&gt;Grothendieck_PseudofunctorToCat_x</title>
<path fill="none" stroke="black" d="M3850.39,-1095.64C3839.94,-1053.3 3814.38,-949.795 3801.98,-899.565"/>
<polygon fill="black" stroke="black" points="3805.34,-898.566 3799.54,-889.696 3798.54,-900.244 3805.34,-898.566"/>
</g>
<!-- Grothendieck_PseudofunctorToCat_c -->
<g id="node29" class="node"><title>Grothendieck_PseudofunctorToCat_c</title>
<a xlink:href="Grothendieck.html#PseudofunctorToCat.c" xlink:title="c">
<ellipse fill="#f070d1" stroke="black" cx="3795" cy="-628.301" rx="27" ry="18.3848"/>
<text text-anchor="middle" x="3795" y="-624.701" font-family="Times Roman,serif" font-size="14.00">c</text>
</a>
</g>
<!-- Grothendieck_PseudofunctorToCat_x&#45;&gt;Grothendieck_PseudofunctorToCat_c -->
<g id="edge42" class="edge"><title>Grothendieck_PseudofunctorToCat_x&#45;&gt;Grothendieck_PseudofunctorToCat_c</title>
<path fill="none" stroke="black" d="M3795,-852.637C3795,-810.497 3795,-707.733 3795,-657.252"/>
<polygon fill="black" stroke="black" points="3798.5,-657.029 3795,-647.029 3791.5,-657.029 3798.5,-657.029"/>
</g>
<!-- Grothendieck_PseudofunctorToCat_Pair -->
<g id="node31" class="node"><title>Grothendieck_PseudofunctorToCat_Pair</title>
<a xlink:href="Grothendieck.html#PseudofunctorToCat.Pair" xlink:title="Pair">
<ellipse fill="#e2cdfa" stroke="black" cx="3795" cy="-384.301" rx="29.9071" ry="18.3848"/>
<text text-anchor="middle" x="3795" y="-380.701" font-family="Times Roman,serif" font-size="14.00">Pair</text>
</a>
</g>
<!-- Grothendieck_PseudofunctorToCat_c&#45;&gt;Grothendieck_PseudofunctorToCat_Pair -->
<g id="edge44" class="edge"><title>Grothendieck_PseudofunctorToCat_c&#45;&gt;Grothendieck_PseudofunctorToCat_Pair</title>
<path fill="none" stroke="black" d="M3795,-609.56C3795,-567.246 3795,-464.06 3795,-413.371"/>
<polygon fill="black" stroke="black" points="3798.5,-413.106 3795,-403.106 3791.5,-413.106 3798.5,-413.106"/>
</g>
<!-- Grothendieck_PseudofunctorToCat_Build_Pair -->
<g id="node30" class="node"><title>Grothendieck_PseudofunctorToCat_Build_Pair</title>
<a xlink:href="Grothendieck.html#PseudofunctorToCat.Build_Pair" xlink:title="Build_Pair">
<ellipse fill="#7faaff" stroke="black" cx="1260" cy="-1627.3" rx="60.1041" ry="18.3848"/>
<ellipse fill="none" stroke="black" cx="1260" cy="-1627.3" rx="64.1041" ry="22.3848"/>
<ellipse fill="none" stroke="black" cx="1260" cy="-1627.3" rx="68.1041" ry="26.3848"/>
<text text-anchor="middle" x="1260" y="-1623.7" font-family="Times Roman,serif" font-size="14.00">Build_Pair</text>
</a>
</g>
</g>
</svg>
