<?xml version="1.0" encoding="UTF-8" standalone="no"?>
<!DOCTYPE svg PUBLIC "-//W3C//DTD SVG 1.1//EN"
 "http://www.w3.org/Graphics/SVG/1.1/DTD/svg11.dtd">
<!-- Generated by graphviz version 2.26.3 (20100126.1600)
 -->
<!-- Title: HoTT_categories_NaturalTransformation_Core Pages: 1 -->
<svg width="720pt" height="364pt"
 viewBox="0.00 0.00 720.00 364.00" xmlns="http://www.w3.org/2000/svg" xmlns:xlink="http://www.w3.org/1999/xlink">
<g id="graph1" class="graph" transform="scale(1 1) rotate(0) translate(4 360)">
<title>HoTT_categories_NaturalTransformation_Core</title>
<polygon fill="white" stroke="white" points="-4,5 -4,-360 717,-360 717,5 -4,5"/>
<g id="graph2" class="cluster"><title>cluster_Core</title>
<polygon fill="#ffffc3" stroke="black" points="8,-10.9538 8,-345.046 704,-345.046 704,-10.9538 8,-10.9538"/>
<text text-anchor="middle" x="32.5" y="-328.446" font-family="Times Roman,serif" font-size="14.00">Core</text>
</g>
<!-- Core_Build_NaturalTransformation -->
<g id="node1" class="node"><title>Core_Build_NaturalTransformation</title>
<a xlink:href="Core.html#Build_NaturalTransformation" xlink:title="Build_NaturalTransformation">
<ellipse fill="#f070d1" stroke="black" cx="537" cy="-261.954" rx="150.846" ry="18.3848"/>
<ellipse fill="none" stroke="black" cx="537" cy="-261.954" rx="154.834" ry="22.3848"/>
<ellipse fill="none" stroke="black" cx="537" cy="-261.954" rx="158.821" ry="26.3848"/>
<text text-anchor="middle" x="537" y="-258.354" font-family="Times Roman,serif" font-size="14.00">Build_NaturalTransformation</text>
</a>
</g>
<!-- Core_Build_NaturalTransformation_ -->
<g id="node5" class="node"><title>Core_Build_NaturalTransformation_</title>
<a xlink:href="Core.html#Build_NaturalTransformation&#39;" xlink:title="Build_NaturalTransformation&#39;">
<ellipse fill="#7faaff" stroke="black" cx="537" cy="-148.954" rx="152.942" ry="18.3848"/>
<text text-anchor="middle" x="537" y="-145.354" font-family="Times Roman,serif" font-size="14.00">Build_NaturalTransformation&#39;</text>
</a>
</g>
<!-- Core_Build_NaturalTransformation&#45;&gt;Core_Build_NaturalTransformation_ -->
<g id="edge2" class="edge"><title>Core_Build_NaturalTransformation&#45;&gt;Core_Build_NaturalTransformation_</title>
<path fill="none" stroke="black" d="M537,-235.174C537,-217.987 537,-195.671 537,-178.048"/>
<polygon fill="black" stroke="black" points="540.5,-177.77 537,-167.77 533.5,-177.77 540.5,-177.77"/>
</g>
<!-- Core_commutes_sym -->
<g id="node2" class="node"><title>Core_commutes_sym</title>
<a xlink:href="Core.html#commutes_sym" xlink:title="commutes_sym">
<ellipse fill="#f070d1" stroke="black" cx="266" cy="-261.954" rx="85.8106" ry="18.3848"/>
<ellipse fill="none" stroke="black" cx="266" cy="-261.954" rx="89.7894" ry="22.3848"/>
<ellipse fill="none" stroke="black" cx="266" cy="-261.954" rx="93.7683" ry="26.3848"/>
<text text-anchor="middle" x="266" y="-258.354" font-family="Times Roman,serif" font-size="14.00">commutes_sym</text>
</a>
</g>
<!-- Core_components_of -->
<g id="node4" class="node"><title>Core_components_of</title>
<a xlink:href="Core.html#components_of" xlink:title="components_of">
<ellipse fill="#f070d1" stroke="black" cx="201" cy="-148.954" rx="84.8528" ry="18.3848"/>
<text text-anchor="middle" x="201" y="-145.354" font-family="Times Roman,serif" font-size="14.00">components_of</text>
</a>
</g>
<!-- Core_commutes_sym&#45;&gt;Core_components_of -->
<g id="edge4" class="edge"><title>Core_commutes_sym&#45;&gt;Core_components_of</title>
<path fill="none" stroke="black" d="M250.924,-235.745C240.705,-217.979 227.222,-194.539 216.844,-176.497"/>
<polygon fill="black" stroke="black" points="219.754,-174.537 211.733,-167.613 213.686,-178.027 219.754,-174.537"/>
</g>
<!-- Core_commutes -->
<g id="node3" class="node"><title>Core_commutes</title>
<a xlink:href="Core.html#commutes" xlink:title="commutes">
<ellipse fill="#f070d1" stroke="black" cx="85" cy="-261.954" rx="61.0757" ry="18.3848"/>
<ellipse fill="none" stroke="black" cx="85" cy="-261.954" rx="65.0469" ry="22.3848"/>
<ellipse fill="none" stroke="black" cx="85" cy="-261.954" rx="69.0182" ry="26.3848"/>
<text text-anchor="middle" x="85" y="-258.354" font-family="Times Roman,serif" font-size="14.00">commutes</text>
</a>
</g>
<!-- Core_commutes&#45;&gt;Core_components_of -->
<g id="edge6" class="edge"><title>Core_commutes&#45;&gt;Core_components_of</title>
<path fill="none" stroke="black" d="M110.457,-237.156C129.651,-218.458 155.875,-192.912 175.161,-174.125"/>
<polygon fill="black" stroke="black" points="177.721,-176.517 182.442,-167.032 172.837,-171.503 177.721,-176.517"/>
</g>
<!-- Core_NaturalTransformation -->
<g id="node6" class="node"><title>Core_NaturalTransformation</title>
<a xlink:href="Core.html#NaturalTransformation" xlink:title="NaturalTransformation">
<ellipse fill="#e2cdfa" stroke="black" cx="201" cy="-47.9538" rx="121.122" ry="18.3848"/>
<text text-anchor="middle" x="201" y="-44.3538" font-family="Times Roman,serif" font-size="14.00">NaturalTransformation</text>
</a>
</g>
<!-- Core_components_of&#45;&gt;Core_NaturalTransformation -->
<g id="edge8" class="edge"><title>Core_components_of&#45;&gt;Core_NaturalTransformation</title>
<path fill="none" stroke="black" d="M201,-130.429C201,-115.432 201,-94.0433 201,-76.8056"/>
<polygon fill="black" stroke="black" points="204.5,-76.7034 201,-66.7034 197.5,-76.7034 204.5,-76.7034"/>
</g>
</g>
</svg>
