<?xml version="1.0" encoding="UTF-8" standalone="no"?>
<!DOCTYPE svg PUBLIC "-//W3C//DTD SVG 1.1//EN"
 "http://www.w3.org/Graphics/SVG/1.1/DTD/svg11.dtd">
<!-- Generated by graphviz version 2.39.20161220.0128 (20161220.0128)
 -->
<!-- Title: HoTT_Categories_Category_Objects Pages: 1 -->
<svg width="2280pt" height="1144pt"
 viewBox="0.00 0.00 2280.00 1144.00" xmlns="http://www.w3.org/2000/svg" xmlns:xlink="http://www.w3.org/1999/xlink">
<g id="graph0" class="graph" transform="scale(1 1) rotate(0) translate(4 1140)">
<title>HoTT_Categories_Category_Objects</title>
<polygon fill="#ffffff" stroke="transparent" points="-4,4 -4,-1140 2276,-1140 2276,4 -4,4"/>
<g id="clust1" class="cluster">
<title>cluster_Objects</title>
<polygon fill="#ffffc3" stroke="#000000" points="8,-36.2072 8,-1099.7928 2264,-1099.7928 2264,-36.2072 8,-36.2072"/>
<text text-anchor="middle" x="37" y="-1084.5928" font-family="Times,serif" font-size="14.00" fill="#000000">Objects</text>
</g>
<!-- Objects_initial_object_unique -->
<g id="node1" class="node">
<title>Objects_initial_object_unique</title>
<g id="a_node1"><a xlink:href="Objects.html#initial_object_unique" xlink:title="initial_object_unique">
<ellipse fill="#facdef" stroke="#000000" cx="2163" cy="-842.2072" rx="85.2729" ry="18"/>
<ellipse fill="none" stroke="#000000" cx="2163" cy="-842.2072" rx="89.279" ry="22"/>
<ellipse fill="none" stroke="#000000" cx="2163" cy="-842.2072" rx="93.2851" ry="26"/>
<text text-anchor="middle" x="2163" y="-838.5072" font-family="Times,serif" font-size="14.00" fill="#000000">initial_object_unique</text>
</a>
</g>
</g>
<!-- Objects_unique_up_to_unique_isomorphism -->
<g id="node17" class="node">
<title>Objects_unique_up_to_unique_isomorphism</title>
<g id="a_node17"><a xlink:href="Objects.html#unique_up_to_unique_isomorphism" xlink:title="unique_up_to_unique_isomorphism">
<ellipse fill="#f070d1" stroke="#000000" cx="2033" cy="-480.2072" rx="138.3755" ry="18"/>
<text text-anchor="middle" x="2033" y="-476.5072" font-family="Times,serif" font-size="14.00" fill="#000000">unique_up_to_unique_isomorphism</text>
</a>
</g>
</g>
<!-- Objects_initial_object_unique&#45;&gt;Objects_unique_up_to_unique_isomorphism -->
<g id="edge1" class="edge">
<title>Objects_initial_object_unique&#45;&gt;Objects_unique_up_to_unique_isomorphism</title>
<path fill="none" stroke="#000000" d="M2153.6507,-816.173C2129.8945,-750.0212 2067.3705,-575.9157 2042.9621,-507.9479"/>
<polygon fill="#000000" stroke="#000000" points="2046.1888,-506.5772 2039.5149,-498.3486 2039.6007,-508.9431 2046.1888,-506.5772"/>
</g>
<!-- Objects_terminal_object_unique -->
<g id="node2" class="node">
<title>Objects_terminal_object_unique</title>
<g id="a_node2"><a xlink:href="Objects.html#terminal_object_unique" xlink:title="terminal_object_unique">
<ellipse fill="#facdef" stroke="#000000" cx="1949" cy="-842.2072" rx="94.7917" ry="18"/>
<ellipse fill="none" stroke="#000000" cx="1949" cy="-842.2072" rx="98.7875" ry="22"/>
<ellipse fill="none" stroke="#000000" cx="1949" cy="-842.2072" rx="102.7833" ry="26"/>
<text text-anchor="middle" x="1949" y="-838.5072" font-family="Times,serif" font-size="14.00" fill="#000000">terminal_object_unique</text>
</a>
</g>
</g>
<!-- Objects_terminal_object_unique&#45;&gt;Objects_unique_up_to_unique_isomorphism -->
<g id="edge2" class="edge">
<title>Objects_terminal_object_unique&#45;&gt;Objects_unique_up_to_unique_isomorphism</title>
<path fill="none" stroke="#000000" d="M1955.0411,-816.173C1970.3597,-750.157 2010.6256,-576.6303 2026.4655,-508.3679"/>
<polygon fill="#000000" stroke="#000000" points="2029.9393,-508.881 2028.7904,-498.3486 2023.1205,-507.2986 2029.9393,-508.881"/>
</g>
<!-- Objects_InitialObject_rec -->
<g id="node3" class="node">
<title>Objects_InitialObject_rec</title>
<g id="a_node3"><a xlink:href="Objects.html#InitialObject_rec" xlink:title="InitialObject_rec">
<ellipse fill="#f070d1" stroke="#000000" cx="1750" cy="-842.2072" rx="70.3682" ry="18"/>
<ellipse fill="none" stroke="#000000" cx="1750" cy="-842.2072" rx="74.3781" ry="22"/>
<ellipse fill="none" stroke="#000000" cx="1750" cy="-842.2072" rx="78.388" ry="26"/>
<text text-anchor="middle" x="1750" y="-838.5072" font-family="Times,serif" font-size="14.00" fill="#000000">InitialObject_rec</text>
</a>
</g>
</g>
<!-- Objects_InitialObject_rect -->
<g id="node5" class="node">
<title>Objects_InitialObject_rect</title>
<g id="a_node5"><a xlink:href="Objects.html#InitialObject_rect" xlink:title="InitialObject_rect">
<ellipse fill="#f070d1" stroke="#000000" cx="1662" cy="-480.2072" rx="72.5877" ry="18"/>
<text text-anchor="middle" x="1662" y="-476.5072" font-family="Times,serif" font-size="14.00" fill="#000000">InitialObject_rect</text>
</a>
</g>
</g>
<!-- Objects_InitialObject_rec&#45;&gt;Objects_InitialObject_rect -->
<g id="edge3" class="edge">
<title>Objects_InitialObject_rec&#45;&gt;Objects_InitialObject_rect</title>
<path fill="none" stroke="#000000" d="M1743.6713,-816.173C1727.6232,-750.157 1685.4399,-576.6303 1668.8457,-508.3679"/>
<polygon fill="#000000" stroke="#000000" points="1672.1732,-507.2388 1666.4101,-498.3486 1665.3713,-508.8924 1672.1732,-507.2388"/>
</g>
<!-- Objects_InitialObject_ind -->
<g id="node4" class="node">
<title>Objects_InitialObject_ind</title>
<g id="a_node4"><a xlink:href="Objects.html#InitialObject_ind" xlink:title="InitialObject_ind">
<ellipse fill="#7fffd4" stroke="#000000" cx="1575" cy="-842.2072" rx="70.7036" ry="18"/>
<ellipse fill="none" stroke="#000000" cx="1575" cy="-842.2072" rx="74.6957" ry="22"/>
<ellipse fill="none" stroke="#000000" cx="1575" cy="-842.2072" rx="78.6877" ry="26"/>
<text text-anchor="middle" x="1575" y="-838.5072" font-family="Times,serif" font-size="14.00" fill="#000000">InitialObject_ind</text>
</a>
</g>
</g>
<!-- Objects_InitialObject_ind&#45;&gt;Objects_InitialObject_rect -->
<g id="edge4" class="edge">
<title>Objects_InitialObject_ind&#45;&gt;Objects_InitialObject_rect</title>
<path fill="none" stroke="#000000" d="M1581.2568,-816.173C1597.1225,-750.157 1638.8265,-576.6303 1655.2321,-508.3679"/>
<polygon fill="#000000" stroke="#000000" points="1658.7063,-508.8897 1657.64,-498.3486 1651.9001,-507.2539 1658.7063,-508.8897"/>
</g>
<!-- Objects_Build_InitialObject -->
<g id="node8" class="node">
<title>Objects_Build_InitialObject</title>
<g id="a_node8"><a xlink:href="Objects.html#Build_InitialObject" xlink:title="Build_InitialObject">
<ellipse fill="#7faaff" stroke="#000000" cx="1662" cy="-154.2072" rx="79.0865" ry="18"/>
<text text-anchor="middle" x="1662" y="-150.5072" font-family="Times,serif" font-size="14.00" fill="#000000">Build_InitialObject</text>
</a>
</g>
</g>
<!-- Objects_InitialObject_rect&#45;&gt;Objects_Build_InitialObject -->
<g id="edge5" class="edge">
<title>Objects_InitialObject_rect&#45;&gt;Objects_Build_InitialObject</title>
<path fill="none" stroke="#000000" d="M1662,-461.7459C1662,-407.5043 1662,-248.3357 1662,-182.8518"/>
<polygon fill="#000000" stroke="#000000" points="1665.5001,-182.4659 1662,-172.4659 1658.5001,-182.466 1665.5001,-182.4659"/>
</g>
<!-- Objects_isinitial_object_initial -->
<g id="node6" class="node">
<title>Objects_isinitial_object_initial</title>
<g id="a_node6"><a xlink:href="Objects.html#isinitial_object_initial" xlink:title="isinitial_object_initial">
<ellipse fill="#f070d1" stroke="#000000" cx="1382" cy="-842.2072" rx="87.9648" ry="18"/>
<ellipse fill="none" stroke="#000000" cx="1382" cy="-842.2072" rx="91.9749" ry="22"/>
<ellipse fill="none" stroke="#000000" cx="1382" cy="-842.2072" rx="95.985" ry="26"/>
<text text-anchor="middle" x="1382" y="-838.5072" font-family="Times,serif" font-size="14.00" fill="#000000">isinitial_object_initial</text>
</a>
</g>
</g>
<!-- Objects_object_initial -->
<g id="node7" class="node">
<title>Objects_object_initial</title>
<g id="a_node7"><a xlink:href="Objects.html#object_initial" xlink:title="object_initial">
<ellipse fill="#f070d1" stroke="#000000" cx="1203" cy="-842.2072" rx="57.3664" ry="18"/>
<ellipse fill="none" stroke="#000000" cx="1203" cy="-842.2072" rx="61.3784" ry="22"/>
<ellipse fill="none" stroke="#000000" cx="1203" cy="-842.2072" rx="65.3904" ry="26"/>
<text text-anchor="middle" x="1203" y="-838.5072" font-family="Times,serif" font-size="14.00" fill="#000000">object_initial</text>
</a>
</g>
</g>
<!-- Objects_InitialObject -->
<g id="node9" class="node">
<title>Objects_InitialObject</title>
<g id="a_node9"><a xlink:href="Objects.html#InitialObject" xlink:title="InitialObject">
<ellipse fill="#e2cdfa" stroke="#000000" cx="1057" cy="-842.2072" rx="55.46" ry="18"/>
<ellipse fill="none" stroke="#000000" cx="1057" cy="-842.2072" rx="59.4756" ry="22"/>
<ellipse fill="none" stroke="#000000" cx="1057" cy="-842.2072" rx="63.4911" ry="26"/>
<text text-anchor="middle" x="1057" y="-838.5072" font-family="Times,serif" font-size="14.00" fill="#000000">InitialObject</text>
</a>
</g>
</g>
<!-- Objects_TerminalObject_rec -->
<g id="node10" class="node">
<title>Objects_TerminalObject_rec</title>
<g id="a_node10"><a xlink:href="Objects.html#TerminalObject_rec" xlink:title="TerminalObject_rec">
<ellipse fill="#f070d1" stroke="#000000" cx="886" cy="-842.2072" rx="81.7951" ry="18"/>
<ellipse fill="none" stroke="#000000" cx="886" cy="-842.2072" rx="85.7904" ry="22"/>
<ellipse fill="none" stroke="#000000" cx="886" cy="-842.2072" rx="89.7856" ry="26"/>
<text text-anchor="middle" x="886" y="-838.5072" font-family="Times,serif" font-size="14.00" fill="#000000">TerminalObject_rec</text>
</a>
</g>
</g>
<!-- Objects_TerminalObject_rect -->
<g id="node12" class="node">
<title>Objects_TerminalObject_rect</title>
<g id="a_node12"><a xlink:href="Objects.html#TerminalObject_rect" xlink:title="TerminalObject_rect">
<ellipse fill="#f070d1" stroke="#000000" cx="787" cy="-480.2072" rx="84.485" ry="18"/>
<text text-anchor="middle" x="787" y="-476.5072" font-family="Times,serif" font-size="14.00" fill="#000000">TerminalObject_rect</text>
</a>
</g>
</g>
<!-- Objects_TerminalObject_rec&#45;&gt;Objects_TerminalObject_rect -->
<g id="edge6" class="edge">
<title>Objects_TerminalObject_rec&#45;&gt;Objects_TerminalObject_rect</title>
<path fill="none" stroke="#000000" d="M878.8802,-816.173C860.8261,-750.157 813.3699,-576.6303 794.7014,-508.3679"/>
<polygon fill="#000000" stroke="#000000" points="797.9754,-507.0711 791.9613,-498.3486 791.2233,-508.9177 797.9754,-507.0711"/>
</g>
<!-- Objects_TerminalObject_ind -->
<g id="node11" class="node">
<title>Objects_TerminalObject_ind</title>
<g id="a_node11"><a xlink:href="Objects.html#TerminalObject_ind" xlink:title="TerminalObject_ind">
<ellipse fill="#7fffd4" stroke="#000000" cx="688" cy="-842.2072" rx="82.5816" ry="18"/>
<ellipse fill="none" stroke="#000000" cx="688" cy="-842.2072" rx="86.5835" ry="22"/>
<ellipse fill="none" stroke="#000000" cx="688" cy="-842.2072" rx="90.5854" ry="26"/>
<text text-anchor="middle" x="688" y="-838.5072" font-family="Times,serif" font-size="14.00" fill="#000000">TerminalObject_ind</text>
</a>
</g>
</g>
<!-- Objects_TerminalObject_ind&#45;&gt;Objects_TerminalObject_rect -->
<g id="edge7" class="edge">
<title>Objects_TerminalObject_ind&#45;&gt;Objects_TerminalObject_rect</title>
<path fill="none" stroke="#000000" d="M695.1198,-816.173C713.1739,-750.157 760.6301,-576.6303 779.2986,-508.3679"/>
<polygon fill="#000000" stroke="#000000" points="782.7767,-508.9177 782.0387,-498.3486 776.0246,-507.0711 782.7767,-508.9177"/>
</g>
<!-- Objects_Build_TerminalObject -->
<g id="node15" class="node">
<title>Objects_Build_TerminalObject</title>
<g id="a_node15"><a xlink:href="Objects.html#Build_TerminalObject" xlink:title="Build_TerminalObject">
<ellipse fill="#7faaff" stroke="#000000" cx="787" cy="-154.2072" rx="90.9839" ry="18"/>
<text text-anchor="middle" x="787" y="-150.5072" font-family="Times,serif" font-size="14.00" fill="#000000">Build_TerminalObject</text>
</a>
</g>
</g>
<!-- Objects_TerminalObject_rect&#45;&gt;Objects_Build_TerminalObject -->
<g id="edge8" class="edge">
<title>Objects_TerminalObject_rect&#45;&gt;Objects_Build_TerminalObject</title>
<path fill="none" stroke="#000000" d="M787,-461.7459C787,-407.5043 787,-248.3357 787,-182.8518"/>
<polygon fill="#000000" stroke="#000000" points="790.5001,-182.4659 787,-172.4659 783.5001,-182.466 790.5001,-182.4659"/>
</g>
<!-- Objects_isterminal_object_terminal -->
<g id="node13" class="node">
<title>Objects_isterminal_object_terminal</title>
<g id="a_node13"><a xlink:href="Objects.html#isterminal_object_terminal" xlink:title="isterminal_object_terminal">
<ellipse fill="#f070d1" stroke="#000000" cx="465" cy="-842.2072" rx="106.6748" ry="18"/>
<ellipse fill="none" stroke="#000000" cx="465" cy="-842.2072" rx="110.678" ry="22"/>
<ellipse fill="none" stroke="#000000" cx="465" cy="-842.2072" rx="114.6812" ry="26"/>
<text text-anchor="middle" x="465" y="-838.5072" font-family="Times,serif" font-size="14.00" fill="#000000">isterminal_object_terminal</text>
</a>
</g>
</g>
<!-- Objects_object_terminal -->
<g id="node14" class="node">
<title>Objects_object_terminal</title>
<g id="a_node14"><a xlink:href="Objects.html#object_terminal" xlink:title="object_terminal">
<ellipse fill="#f070d1" stroke="#000000" cx="258" cy="-842.2072" rx="66.1109" ry="18"/>
<ellipse fill="none" stroke="#000000" cx="258" cy="-842.2072" rx="70.0999" ry="22"/>
<ellipse fill="none" stroke="#000000" cx="258" cy="-842.2072" rx="74.0888" ry="26"/>
<text text-anchor="middle" x="258" y="-838.5072" font-family="Times,serif" font-size="14.00" fill="#000000">object_terminal</text>
</a>
</g>
</g>
<!-- Objects_TerminalObject -->
<g id="node16" class="node">
<title>Objects_TerminalObject</title>
<g id="a_node16"><a xlink:href="Objects.html#TerminalObject" xlink:title="TerminalObject">
<ellipse fill="#e2cdfa" stroke="#000000" cx="91" cy="-842.2072" rx="66.8941" ry="18"/>
<ellipse fill="none" stroke="#000000" cx="91" cy="-842.2072" rx="70.8911" ry="22"/>
<ellipse fill="none" stroke="#000000" cx="91" cy="-842.2072" rx="74.8882" ry="26"/>
<text text-anchor="middle" x="91" y="-838.5072" font-family="Times,serif" font-size="14.00" fill="#000000">TerminalObject</text>
</a>
</g>
</g>
</g>
</svg>
