<?xml version="1.0" encoding="UTF-8" standalone="no"?>
<!DOCTYPE svg PUBLIC "-//W3C//DTD SVG 1.1//EN"
 "http://www.w3.org/Graphics/SVG/1.1/DTD/svg11.dtd">
<!-- Generated by graphviz version 2.39.20141222.0545 (20141222.0545)
 -->
<!-- Title: HoTT_Types_Forall Pages: 1 -->
<svg width="1679pt" height="844pt"
 viewBox="0.00 0.00 1679.00 843.50" xmlns="http://www.w3.org/2000/svg" xmlns:xlink="http://www.w3.org/1999/xlink">
<g id="graph0" class="graph" transform="scale(1 1) rotate(0) translate(4 839.5)">
<title>HoTT_Types_Forall</title>
<polygon fill="white" stroke="transparent" points="-4,4 -4,-839.5 1675,-839.5 1675,4 -4,4"/>
<g id="clust1" class="cluster"><title>cluster_Forall</title>
<polygon fill="#ffffc3" stroke="black" points="8,-12.9786 8,-822.521 1663,-822.521 1663,-12.9786 8,-12.9786"/>
<text text-anchor="middle" x="32.5" y="-807.321" font-family="Times,serif" font-size="14.00">Forall</text>
</g>
<!-- Forall_equiv_flip -->
<g id="node1" class="node"><title>Forall_equiv_flip</title>
<g id="a_node1"><a xlink:href="Forall.html#equiv_flip" xlink:title="equiv_flip">
<ellipse fill="#f070d1" stroke="black" cx="1600" cy="-729.979" rx="46.6221" ry="18"/>
<ellipse fill="none" stroke="black" cx="1600" cy="-729.979" rx="50.6073" ry="22"/>
<ellipse fill="none" stroke="black" cx="1600" cy="-729.979" rx="54.5925" ry="26"/>
<text text-anchor="middle" x="1600" y="-726.279" font-family="Times,serif" font-size="14.00">equiv_flip</text>
</a>
</g>
</g>
<!-- Forall_isequiv_flip -->
<g id="node2" class="node"><title>Forall_isequiv_flip</title>
<g id="a_node2"><a xlink:href="Forall.html#isequiv_flip" xlink:title="isequiv_flip">
<ellipse fill="#f070d1" stroke="black" cx="1600" cy="-586.979" rx="52.7911" ry="18"/>
<text text-anchor="middle" x="1600" y="-583.279" font-family="Times,serif" font-size="14.00">isequiv_flip</text>
</a>
</g>
</g>
<!-- Forall_equiv_flip&#45;&gt;Forall_isequiv_flip -->
<g id="edge1" class="edge"><title>Forall_equiv_flip&#45;&gt;Forall_isequiv_flip</title>
<path fill="none" stroke="black" d="M1600,-703.75C1600,-678.775 1600,-641.28 1600,-615.555"/>
<polygon fill="black" stroke="black" points="1603.5,-615.321 1600,-605.321 1596.5,-615.321 1603.5,-615.321"/>
</g>
<!-- Forall_flip -->
<g id="node3" class="node"><title>Forall_flip</title>
<g id="a_node3"><a xlink:href="Forall.html#flip" xlink:title="flip">
<ellipse fill="#f070d1" stroke="black" cx="1600" cy="-457.979" rx="27" ry="18"/>
<text text-anchor="middle" x="1600" y="-454.279" font-family="Times,serif" font-size="14.00">flip</text>
</a>
</g>
</g>
<!-- Forall_isequiv_flip&#45;&gt;Forall_flip -->
<g id="edge2" class="edge"><title>Forall_isequiv_flip&#45;&gt;Forall_flip</title>
<path fill="none" stroke="black" d="M1600,-568.77C1600,-547.257 1600,-511.224 1600,-486.114"/>
<polygon fill="black" stroke="black" points="1603.5,-486.095 1600,-476.095 1596.5,-486.095 1603.5,-486.095"/>
</g>
<!-- Forall_equiv_contr_forall -->
<g id="node4" class="node"><title>Forall_equiv_contr_forall</title>
<g id="a_node4"><a xlink:href="Forall.html#equiv_contr_forall" xlink:title="equiv_contr_forall">
<ellipse fill="#f070d1" stroke="black" cx="1443" cy="-729.979" rx="76.0824" ry="18"/>
<ellipse fill="none" stroke="black" cx="1443" cy="-729.979" rx="80.0845" ry="22"/>
<ellipse fill="none" stroke="black" cx="1443" cy="-729.979" rx="84.0865" ry="26"/>
<text text-anchor="middle" x="1443" y="-726.279" font-family="Times,serif" font-size="14.00">equiv_contr_forall</text>
</a>
</g>
</g>
<!-- Forall_trunc_forall -->
<g id="node5" class="node"><title>Forall_trunc_forall</title>
<g id="a_node5"><a xlink:href="Forall.html#trunc_forall" xlink:title="trunc_forall">
<ellipse fill="#f070d1" stroke="black" cx="1002" cy="-586.979" rx="51.9914" ry="18"/>
<ellipse fill="none" stroke="black" cx="1002" cy="-586.979" rx="55.9911" ry="22"/>
<ellipse fill="none" stroke="black" cx="1002" cy="-586.979" rx="59.9908" ry="26"/>
<text text-anchor="middle" x="1002" y="-583.279" font-family="Times,serif" font-size="14.00">trunc_forall</text>
</a>
</g>
</g>
<!-- Forall_contr_forall -->
<g id="node6" class="node"><title>Forall_contr_forall</title>
<g id="a_node6"><a xlink:href="Forall.html#contr_forall" xlink:title="contr_forall">
<ellipse fill="#f070d1" stroke="black" cx="1002" cy="-457.979" rx="51.9908" ry="18"/>
<text text-anchor="middle" x="1002" y="-454.279" font-family="Times,serif" font-size="14.00">contr_forall</text>
</a>
</g>
</g>
<!-- Forall_trunc_forall&#45;&gt;Forall_contr_forall -->
<g id="edge3" class="edge"><title>Forall_trunc_forall&#45;&gt;Forall_contr_forall</title>
<path fill="none" stroke="black" d="M1002,-560.874C1002,-539.236 1002,-508.534 1002,-486.305"/>
<polygon fill="black" stroke="black" points="1005.5,-486.149 1002,-476.149 998.5,-486.149 1005.5,-486.149"/>
</g>
<!-- Forall_isequiv_path_forall -->
<g id="node22" class="node"><title>Forall_isequiv_path_forall</title>
<g id="a_node22"><a xlink:href="Forall.html#isequiv_path_forall" xlink:title="isequiv_path_forall">
<ellipse fill="#f070d1" stroke="black" cx="852" cy="-457.979" rx="79.0865" ry="18"/>
<text text-anchor="middle" x="852" y="-454.279" font-family="Times,serif" font-size="14.00">isequiv_path_forall</text>
</a>
</g>
</g>
<!-- Forall_trunc_forall&#45;&gt;Forall_isequiv_path_forall -->
<g id="edge4" class="edge"><title>Forall_trunc_forall&#45;&gt;Forall_isequiv_path_forall</title>
<path fill="none" stroke="black" d="M974.836,-563.618C948.096,-540.621 907.431,-505.649 880.303,-482.32"/>
<polygon fill="black" stroke="black" points="882.556,-479.641 872.692,-475.774 877.992,-484.948 882.556,-479.641"/>
</g>
<!-- Forall_equiv_functor_forall_id -->
<g id="node7" class="node"><title>Forall_equiv_functor_forall_id</title>
<g id="a_node7"><a xlink:href="Forall.html#equiv_functor_forall_id" xlink:title="equiv_functor_forall_id">
<ellipse fill="#f070d1" stroke="black" cx="1034" cy="-729.979" rx="94.7917" ry="18"/>
<ellipse fill="none" stroke="black" cx="1034" cy="-729.979" rx="98.7875" ry="22"/>
<ellipse fill="none" stroke="black" cx="1034" cy="-729.979" rx="102.783" ry="26"/>
<text text-anchor="middle" x="1034" y="-726.279" font-family="Times,serif" font-size="14.00">equiv_functor_forall_id</text>
</a>
</g>
</g>
<!-- Forall_equiv_functor_forall -->
<g id="node9" class="node"><title>Forall_equiv_functor_forall</title>
<g id="a_node9"><a xlink:href="Forall.html#equiv_functor_forall" xlink:title="equiv_functor_forall">
<ellipse fill="#f070d1" stroke="black" cx="1206" cy="-586.979" rx="83.3857" ry="18"/>
<text text-anchor="middle" x="1206" y="-583.279" font-family="Times,serif" font-size="14.00">equiv_functor_forall</text>
</a>
</g>
</g>
<!-- Forall_equiv_functor_forall_id&#45;&gt;Forall_equiv_functor_forall -->
<g id="edge5" class="edge"><title>Forall_equiv_functor_forall_id&#45;&gt;Forall_equiv_functor_forall</title>
<path fill="none" stroke="black" d="M1063.96,-705.07C1095.77,-678.626 1145.69,-637.121 1177.09,-611.014"/>
<polygon fill="black" stroke="black" points="1179.59,-613.49 1185.04,-604.406 1175.11,-608.108 1179.59,-613.49"/>
</g>
<!-- Forall_equiv_functor_forall_ -->
<g id="node8" class="node"><title>Forall_equiv_functor_forall_</title>
<g id="a_node8"><a xlink:href="Forall.html#equiv_functor_forall'" xlink:title="equiv_functor_forall&#39;">
<ellipse fill="#f070d1" stroke="black" cx="1248" cy="-729.979" rx="85.2729" ry="18"/>
<ellipse fill="none" stroke="black" cx="1248" cy="-729.979" rx="89.279" ry="22"/>
<ellipse fill="none" stroke="black" cx="1248" cy="-729.979" rx="93.2851" ry="26"/>
<text text-anchor="middle" x="1248" y="-726.279" font-family="Times,serif" font-size="14.00">equiv_functor_forall&#39;</text>
</a>
</g>
</g>
<!-- Forall_equiv_functor_forall_&#45;&gt;Forall_equiv_functor_forall -->
<g id="edge6" class="edge"><title>Forall_equiv_functor_forall_&#45;&gt;Forall_equiv_functor_forall</title>
<path fill="none" stroke="black" d="M1240.3,-703.75C1232.93,-678.663 1221.85,-640.945 1214.29,-615.211"/>
<polygon fill="black" stroke="black" points="1217.56,-613.93 1211.39,-605.321 1210.85,-615.902 1217.56,-613.93"/>
</g>
<!-- Forall_isequiv_functor_forall -->
<g id="node10" class="node"><title>Forall_isequiv_functor_forall</title>
<g id="a_node10"><a xlink:href="Forall.html#isequiv_functor_forall" xlink:title="isequiv_functor_forall">
<ellipse fill="#f070d1" stroke="black" cx="1206" cy="-457.979" rx="89.0842" ry="18"/>
<text text-anchor="middle" x="1206" y="-454.279" font-family="Times,serif" font-size="14.00">isequiv_functor_forall</text>
</a>
</g>
</g>
<!-- Forall_equiv_functor_forall&#45;&gt;Forall_isequiv_functor_forall -->
<g id="edge7" class="edge"><title>Forall_equiv_functor_forall&#45;&gt;Forall_isequiv_functor_forall</title>
<path fill="none" stroke="black" d="M1206,-568.77C1206,-547.257 1206,-511.224 1206,-486.114"/>
<polygon fill="black" stroke="black" points="1209.5,-486.095 1206,-476.095 1202.5,-486.095 1209.5,-486.095"/>
</g>
<!-- Forall_isequiv_functor_forall_subproof0 -->
<g id="node11" class="node"><title>Forall_isequiv_functor_forall_subproof0</title>
<g id="a_node11"><a xlink:href="Forall.html#isequiv_functor_forall_subproof0" xlink:title="isequiv_functor_forall_subproof0">
<ellipse fill="#facdef" stroke="black" cx="1070" cy="-327.979" rx="129.177" ry="18"/>
<text text-anchor="middle" x="1070" y="-324.279" font-family="Times,serif" font-size="14.00">isequiv_functor_forall_subproof0</text>
</a>
</g>
</g>
<!-- Forall_isequiv_functor_forall&#45;&gt;Forall_isequiv_functor_forall_subproof0 -->
<g id="edge8" class="edge"><title>Forall_isequiv_functor_forall&#45;&gt;Forall_isequiv_functor_forall_subproof0</title>
<path fill="none" stroke="black" d="M1187.37,-440.175C1163.8,-417.644 1123.06,-378.696 1096.32,-353.134"/>
<polygon fill="black" stroke="black" points="1098.48,-350.364 1088.84,-345.984 1093.65,-355.424 1098.48,-350.364"/>
</g>
<!-- Forall_isequiv_functor_forall_subproof -->
<g id="node12" class="node"><title>Forall_isequiv_functor_forall_subproof</title>
<g id="a_node12"><a xlink:href="Forall.html#isequiv_functor_forall_subproof" xlink:title="isequiv_functor_forall_subproof">
<ellipse fill="#facdef" stroke="black" cx="1342" cy="-327.979" rx="124.578" ry="18"/>
<text text-anchor="middle" x="1342" y="-324.279" font-family="Times,serif" font-size="14.00">isequiv_functor_forall_subproof</text>
</a>
</g>
</g>
<!-- Forall_isequiv_functor_forall&#45;&gt;Forall_isequiv_functor_forall_subproof -->
<g id="edge9" class="edge"><title>Forall_isequiv_functor_forall&#45;&gt;Forall_isequiv_functor_forall_subproof</title>
<path fill="none" stroke="black" d="M1224.63,-440.175C1248.2,-417.644 1288.94,-378.696 1315.68,-353.134"/>
<polygon fill="black" stroke="black" points="1318.35,-355.424 1323.16,-345.984 1313.52,-350.364 1318.35,-355.424"/>
</g>
<!-- Forall_functor_forall -->
<g id="node14" class="node"><title>Forall_functor_forall</title>
<g id="a_node14"><a xlink:href="Forall.html#functor_forall" xlink:title="functor_forall">
<ellipse fill="#f070d1" stroke="black" cx="1070" cy="-184.979" rx="59.5901" ry="18"/>
<text text-anchor="middle" x="1070" y="-181.279" font-family="Times,serif" font-size="14.00">functor_forall</text>
</a>
</g>
</g>
<!-- Forall_isequiv_functor_forall_subproof0&#45;&gt;Forall_functor_forall -->
<g id="edge10" class="edge"><title>Forall_isequiv_functor_forall_subproof0&#45;&gt;Forall_functor_forall</title>
<path fill="none" stroke="black" d="M1070,-309.868C1070,-285.61 1070,-242.305 1070,-213.607"/>
<polygon fill="black" stroke="black" points="1073.5,-213.394 1070,-203.394 1066.5,-213.394 1073.5,-213.394"/>
</g>
<!-- Forall_isequiv_functor_forall_subproof&#45;&gt;Forall_functor_forall -->
<g id="edge11" class="edge"><title>Forall_isequiv_functor_forall_subproof&#45;&gt;Forall_functor_forall</title>
<path fill="none" stroke="black" d="M1308.92,-310.587C1258.46,-284.06 1162.49,-233.605 1108.81,-205.384"/>
<polygon fill="black" stroke="black" points="1110.42,-202.274 1099.94,-200.719 1107.16,-208.47 1110.42,-202.274"/>
</g>
<!-- Forall_ap_functor_forall -->
<g id="node13" class="node"><title>Forall_ap_functor_forall</title>
<g id="a_node13"><a xlink:href="Forall.html#ap_functor_forall" xlink:title="ap_functor_forall">
<ellipse fill="#f070d1" stroke="black" cx="843" cy="-327.979" rx="72.2731" ry="18"/>
<ellipse fill="none" stroke="black" cx="843" cy="-327.979" rx="76.2803" ry="22"/>
<ellipse fill="none" stroke="black" cx="843" cy="-327.979" rx="80.2875" ry="26"/>
<text text-anchor="middle" x="843" y="-324.279" font-family="Times,serif" font-size="14.00">ap_functor_forall</text>
</a>
</g>
</g>
<!-- Forall_ap_functor_forall&#45;&gt;Forall_functor_forall -->
<g id="edge12" class="edge"><title>Forall_ap_functor_forall&#45;&gt;Forall_functor_forall</title>
<path fill="none" stroke="black" d="M879.724,-304.844C922.717,-277.76 993.379,-233.247 1035.42,-206.76"/>
<polygon fill="black" stroke="black" points="1037.35,-209.686 1043.94,-201.394 1033.61,-203.763 1037.35,-209.686"/>
</g>
<!-- Forall_path_forall_1 -->
<g id="node24" class="node"><title>Forall_path_forall_1</title>
<g id="a_node24"><a xlink:href="Forall.html#path_forall_1" xlink:title="path_forall_1">
<ellipse fill="#f070d1" stroke="black" cx="728" cy="-184.979" rx="57.6901" ry="18"/>
<text text-anchor="middle" x="728" y="-181.279" font-family="Times,serif" font-size="14.00">path_forall_1</text>
</a>
</g>
</g>
<!-- Forall_ap_functor_forall&#45;&gt;Forall_path_forall_1 -->
<g id="edge13" class="edge"><title>Forall_ap_functor_forall&#45;&gt;Forall_path_forall_1</title>
<path fill="none" stroke="black" d="M822.705,-302.742C801.875,-276.841 769.63,-236.744 748.666,-210.676"/>
<polygon fill="black" stroke="black" points="751.279,-208.34 742.284,-202.741 745.824,-212.727 751.279,-208.34"/>
</g>
<!-- Forall_dpath_forall -->
<g id="node15" class="node"><title>Forall_dpath_forall</title>
<g id="a_node15"><a xlink:href="Forall.html#dpath_forall" xlink:title="dpath_forall">
<ellipse fill="#f070d1" stroke="black" cx="851" cy="-729.979" rx="53.8975" ry="18"/>
<ellipse fill="none" stroke="black" cx="851" cy="-729.979" rx="57.894" ry="22"/>
<ellipse fill="none" stroke="black" cx="851" cy="-729.979" rx="61.8905" ry="26"/>
<text text-anchor="middle" x="851" y="-726.279" font-family="Times,serif" font-size="14.00">dpath_forall</text>
</a>
</g>
</g>
<!-- Forall_equiv_path_forall -->
<g id="node21" class="node"><title>Forall_equiv_path_forall</title>
<g id="a_node21"><a xlink:href="Forall.html#equiv_path_forall" xlink:title="equiv_path_forall">
<ellipse fill="#f070d1" stroke="black" cx="851" cy="-586.979" rx="73.387" ry="18"/>
<text text-anchor="middle" x="851" y="-583.279" font-family="Times,serif" font-size="14.00">equiv_path_forall</text>
</a>
</g>
</g>
<!-- Forall_dpath_forall&#45;&gt;Forall_equiv_path_forall -->
<g id="edge14" class="edge"><title>Forall_dpath_forall&#45;&gt;Forall_equiv_path_forall</title>
<path fill="none" stroke="black" d="M851,-703.75C851,-678.775 851,-641.28 851,-615.555"/>
<polygon fill="black" stroke="black" points="854.5,-615.321 851,-605.321 847.5,-615.321 854.5,-615.321"/>
</g>
<!-- Forall_ap_lambdaD -->
<g id="node16" class="node"><title>Forall_ap_lambdaD</title>
<g id="a_node16"><a xlink:href="Forall.html#ap_lambdaD" xlink:title="ap_lambdaD">
<ellipse fill="#f070d1" stroke="black" cx="681" cy="-327.979" rx="55.8034" ry="18"/>
<ellipse fill="none" stroke="black" cx="681" cy="-327.979" rx="59.7968" ry="22"/>
<ellipse fill="none" stroke="black" cx="681" cy="-327.979" rx="63.7903" ry="26"/>
<text text-anchor="middle" x="681" y="-324.279" font-family="Times,serif" font-size="14.00">ap_lambdaD</text>
</a>
</g>
</g>
<!-- Forall_ap_lambdaD&#45;&gt;Forall_path_forall_1 -->
<g id="edge15" class="edge"><title>Forall_ap_lambdaD&#45;&gt;Forall_path_forall_1</title>
<path fill="none" stroke="black" d="M689.511,-302.082C697.825,-276.787 710.434,-238.423 718.933,-212.564"/>
<polygon fill="black" stroke="black" points="722.283,-213.581 722.081,-202.988 715.633,-211.395 722.283,-213.581"/>
</g>
<!-- Forall_apD_transport_forall_constant -->
<g id="node17" class="node"><title>Forall_apD_transport_forall_constant</title>
<g id="a_node17"><a xlink:href="Forall.html#apD_transport_forall_constant" xlink:title="apD_transport_forall_constant">
<ellipse fill="#f070d1" stroke="black" cx="645" cy="-729.979" rx="118.093" ry="18"/>
<ellipse fill="none" stroke="black" cx="645" cy="-729.979" rx="122.086" ry="22"/>
<ellipse fill="none" stroke="black" cx="645" cy="-729.979" rx="126.079" ry="26"/>
<text text-anchor="middle" x="645" y="-726.279" font-family="Times,serif" font-size="14.00">apD_transport_forall_constant</text>
</a>
</g>
</g>
<!-- Forall_transport_forall_constant -->
<g id="node18" class="node"><title>Forall_transport_forall_constant</title>
<g id="a_node18"><a xlink:href="Forall.html#transport_forall_constant" xlink:title="transport_forall_constant">
<ellipse fill="#f070d1" stroke="black" cx="645" cy="-586.979" rx="98.5829" ry="18"/>
<text text-anchor="middle" x="645" y="-583.279" font-family="Times,serif" font-size="14.00">transport_forall_constant</text>
</a>
</g>
</g>
<!-- Forall_apD_transport_forall_constant&#45;&gt;Forall_transport_forall_constant -->
<g id="edge16" class="edge"><title>Forall_apD_transport_forall_constant&#45;&gt;Forall_transport_forall_constant</title>
<path fill="none" stroke="black" d="M645,-703.75C645,-678.775 645,-641.28 645,-615.555"/>
<polygon fill="black" stroke="black" points="648.5,-615.321 645,-605.321 641.5,-615.321 648.5,-615.321"/>
</g>
<!-- Forall_transport_forall -->
<g id="node19" class="node"><title>Forall_transport_forall</title>
<g id="a_node19"><a xlink:href="Forall.html#transport_forall" xlink:title="transport_forall">
<ellipse fill="#f070d1" stroke="black" cx="427" cy="-729.979" rx="65.7729" ry="18"/>
<ellipse fill="none" stroke="black" cx="427" cy="-729.979" rx="69.7808" ry="22"/>
<ellipse fill="none" stroke="black" cx="427" cy="-729.979" rx="73.7886" ry="26"/>
<text text-anchor="middle" x="427" y="-726.279" font-family="Times,serif" font-size="14.00">transport_forall</text>
</a>
</g>
</g>
<!-- Forall_path_forall_pp -->
<g id="node20" class="node"><title>Forall_path_forall_pp</title>
<g id="a_node20"><a xlink:href="Forall.html#path_forall_pp" xlink:title="path_forall_pp">
<ellipse fill="#f070d1" stroke="black" cx="874" cy="-184.979" rx="62.3011" ry="18"/>
<ellipse fill="none" stroke="black" cx="874" cy="-184.979" rx="66.2951" ry="22"/>
<ellipse fill="none" stroke="black" cx="874" cy="-184.979" rx="70.2891" ry="26"/>
<text text-anchor="middle" x="874" y="-181.279" font-family="Times,serif" font-size="14.00">path_forall_pp</text>
</a>
</g>
</g>
<!-- Forall_eta_path_forall -->
<g id="node25" class="node"><title>Forall_eta_path_forall</title>
<g id="a_node25"><a xlink:href="Forall.html#eta_path_forall" xlink:title="eta_path_forall">
<ellipse fill="#f070d1" stroke="black" cx="801" cy="-54.9786" rx="63.8893" ry="18"/>
<text text-anchor="middle" x="801" y="-51.2786" font-family="Times,serif" font-size="14.00">eta_path_forall</text>
</a>
</g>
</g>
<!-- Forall_path_forall_pp&#45;&gt;Forall_eta_path_forall -->
<g id="edge17" class="edge"><title>Forall_path_forall_pp&#45;&gt;Forall_eta_path_forall</title>
<path fill="none" stroke="black" d="M859.578,-159.295C847.015,-136.923 828.862,-104.597 816.103,-81.8742"/>
<polygon fill="black" stroke="black" points="819.113,-80.0859 811.165,-73.0802 813.009,-83.5133 819.113,-80.0859"/>
</g>
<!-- Forall_equiv_path_forall&#45;&gt;Forall_isequiv_path_forall -->
<g id="edge18" class="edge"><title>Forall_equiv_path_forall&#45;&gt;Forall_isequiv_path_forall</title>
<path fill="none" stroke="black" d="M851.141,-568.77C851.308,-547.257 851.587,-511.224 851.782,-486.114"/>
<polygon fill="black" stroke="black" points="855.282,-486.122 851.86,-476.095 848.282,-486.067 855.282,-486.122"/>
</g>
<!-- Forall_equiv_apD10 -->
<g id="node23" class="node"><title>Forall_equiv_apD10</title>
<g id="a_node23"><a xlink:href="Forall.html#equiv_apD10" xlink:title="equiv_apD10">
<ellipse fill="#f070d1" stroke="black" cx="270" cy="-729.979" rx="57.7089" ry="18"/>
<ellipse fill="none" stroke="black" cx="270" cy="-729.979" rx="61.6995" ry="22"/>
<ellipse fill="none" stroke="black" cx="270" cy="-729.979" rx="65.6901" ry="26"/>
<text text-anchor="middle" x="270" y="-726.279" font-family="Times,serif" font-size="14.00">equiv_apD10</text>
</a>
</g>
</g>
<!-- Forall_path_forall_1&#45;&gt;Forall_eta_path_forall -->
<g id="edge19" class="edge"><title>Forall_path_forall_1&#45;&gt;Forall_eta_path_forall</title>
<path fill="none" stroke="black" d="M737.997,-167.175C750.378,-145.127 771.586,-107.36 785.94,-81.798"/>
<polygon fill="black" stroke="black" points="789.045,-83.4172 790.889,-72.9842 782.941,-79.9898 789.045,-83.4172"/>
</g>
<!-- Forall_apD10_path_forall -->
<g id="node26" class="node"><title>Forall_apD10_path_forall</title>
<g id="a_node26"><a xlink:href="Forall.html#apD10_path_forall" xlink:title="apD10_path_forall">
<ellipse fill="#f070d1" stroke="black" cx="101" cy="-729.979" rx="77.2012" ry="18"/>
<ellipse fill="none" stroke="black" cx="101" cy="-729.979" rx="81.1939" ry="22"/>
<ellipse fill="none" stroke="black" cx="101" cy="-729.979" rx="85.1866" ry="26"/>
<text text-anchor="middle" x="101" y="-726.279" font-family="Times,serif" font-size="14.00">apD10_path_forall</text>
</a>
</g>
</g>
</g>
</svg>
