<?xml version="1.0" encoding="UTF-8" standalone="no"?>
<!DOCTYPE svg PUBLIC "-//W3C//DTD SVG 1.1//EN"
 "http://www.w3.org/Graphics/SVG/1.1/DTD/svg11.dtd">
<!-- Generated by graphviz version 2.26.3 (20100126.1600)
 -->
<!-- Title: HoTT_categories_Category_Sigma Pages: 1 -->
<svg width="2916pt" height="1462pt"
 viewBox="0.00 0.00 2916.00 1462.00" xmlns="http://www.w3.org/2000/svg" xmlns:xlink="http://www.w3.org/1999/xlink">
<g id="graph1" class="graph" transform="scale(1 1) rotate(0) translate(4 1458)">
<title>HoTT_categories_Category_Sigma</title>
<polygon fill="white" stroke="white" points="-4,5 -4,-1458 2913,-1458 2913,5 -4,5"/>
<g id="graph2" class="cluster"><title>cluster_OnMorphisms</title>
<polygon fill="#ffffc3" stroke="black" points="2188,-439.956 2188,-1175 2900,-1175 2900,-439.956 2188,-439.956"/>
<text text-anchor="middle" x="2243" y="-1158.4" font-family="Times Roman,serif" font-size="14.00">OnMorphisms</text>
</g>
<g id="graph3" class="cluster"><title>cluster_Sigma</title>
<polygon fill="#ffffc3" stroke="black" points="8,-697.491 8,-1432.54 1468,-1432.54 1468,-697.491 8,-697.491"/>
<text text-anchor="middle" x="37.5" y="-1415.94" font-family="Times Roman,serif" font-size="14.00">Sigma</text>
</g>
<g id="graph4" class="cluster"><title>cluster_Core</title>
<polygon fill="#ffffc3" stroke="black" points="2036,-21.4613 2036,-676.03 2180,-676.03 2180,-21.4613 2036,-21.4613"/>
<text text-anchor="middle" x="2060.5" y="-659.43" font-family="Times Roman,serif" font-size="14.00">Core</text>
</g>
<g id="graph5" class="cluster"><title>cluster_OnObjects</title>
<polygon fill="#ffffc3" stroke="black" points="1476,-439.956 1476,-1175 2028,-1175 2028,-439.956 1476,-439.956"/>
<text text-anchor="middle" x="1520" y="-1158.4" font-family="Times Roman,serif" font-size="14.00">OnObjects</text>
</g>
<!-- Sigma_sigT_obj_compat -->
<g id="node1" class="node"><title>Sigma_sigT_obj_compat</title>
<a xlink:href="Sigma.html#sigT_obj_compat" xlink:title="sigT_obj_compat">
<ellipse fill="#f070d1" stroke="black" cx="984" cy="-1268.46" rx="91.9239" ry="18.3848"/>
<ellipse fill="none" stroke="black" cx="984" cy="-1268.46" rx="95.9239" ry="22.3848"/>
<ellipse fill="none" stroke="black" cx="984" cy="-1268.46" rx="99.9239" ry="26.3848"/>
<text text-anchor="middle" x="984" y="-1264.86" font-family="Times Roman,serif" font-size="14.00">sigT_obj_compat</text>
</a>
</g>
<!-- Sigma_sigT_functor_obj -->
<g id="node4" class="node"><title>Sigma_sigT_functor_obj</title>
<a xlink:href="Sigma.html#sigT_functor_obj" xlink:title="sigT_functor_obj">
<ellipse fill="#f070d1" stroke="black" cx="1369" cy="-1011.46" rx="91.2168" ry="18.3848"/>
<text text-anchor="middle" x="1369" y="-1007.86" font-family="Times Roman,serif" font-size="14.00">sigT_functor_obj</text>
</a>
</g>
<!-- Sigma_sigT_obj_compat&#45;&gt;Sigma_sigT_functor_obj -->
<g id="edge2" class="edge"><title>Sigma_sigT_obj_compat&#45;&gt;Sigma_sigT_functor_obj</title>
<path fill="none" stroke="black" d="M1020.92,-1243.82C1095.07,-1194.32 1261.21,-1083.41 1333.86,-1034.92"/>
<polygon fill="black" stroke="black" points="1335.87,-1037.78 1342.25,-1029.32 1331.99,-1031.96 1335.87,-1037.78"/>
</g>
<!-- Sigma_pr1_obj -->
<g id="node6" class="node"><title>Sigma_pr1_obj</title>
<a xlink:href="Sigma.html#pr1_obj" xlink:title="pr1_obj">
<ellipse fill="#f070d1" stroke="black" cx="956" cy="-1011.46" rx="48.0833" ry="18.3848"/>
<text text-anchor="middle" x="956" y="-1007.86" font-family="Times Roman,serif" font-size="14.00">pr1_obj</text>
</a>
</g>
<!-- Sigma_sigT_obj_compat&#45;&gt;Sigma_pr1_obj -->
<g id="edge4" class="edge"><title>Sigma_sigT_obj_compat&#45;&gt;Sigma_pr1_obj</title>
<path fill="none" stroke="black" d="M981.109,-1241.93C975.811,-1193.3 964.589,-1090.29 959.123,-1040.13"/>
<polygon fill="black" stroke="black" points="962.58,-1039.54 958.017,-1029.98 955.621,-1040.3 962.58,-1039.54"/>
</g>
<!-- Sigma_sigT_obj_eq -->
<g id="node2" class="node"><title>Sigma_sigT_obj_eq</title>
<a xlink:href="Sigma.html#sigT_obj_eq" xlink:title="sigT_obj_eq">
<ellipse fill="#f070d1" stroke="black" cx="1204" cy="-1268.46" rx="67.8823" ry="18.3848"/>
<ellipse fill="none" stroke="black" cx="1204" cy="-1268.46" rx="71.8823" ry="22.3848"/>
<ellipse fill="none" stroke="black" cx="1204" cy="-1268.46" rx="75.8823" ry="26.3848"/>
<text text-anchor="middle" x="1204" y="-1264.86" font-family="Times Roman,serif" font-size="14.00">sigT_obj_eq</text>
</a>
</g>
<!-- OnObjects_sigT_obj_eq -->
<g id="node22" class="node"><title>OnObjects_sigT_obj_eq</title>
<a xlink:href="OnObjects.html#sigT_obj_eq" xlink:title="sigT_obj_eq">
<ellipse fill="#facdef" stroke="black" cx="1595" cy="-1011.46" rx="67.8823" ry="18.3848"/>
<text text-anchor="middle" x="1595" y="-1007.86" font-family="Times Roman,serif" font-size="14.00">sigT_obj_eq</text>
</a>
</g>
<!-- Sigma_sigT_obj_eq&#45;&gt;OnObjects_sigT_obj_eq -->
<g id="edge6" class="edge"><title>Sigma_sigT_obj_eq&#45;&gt;OnObjects_sigT_obj_eq</title>
<path fill="none" stroke="black" d="M1239.74,-1244.97C1314.37,-1195.92 1486,-1083.1 1560,-1034.47"/>
<polygon fill="black" stroke="black" points="1562.09,-1037.28 1568.53,-1028.86 1558.25,-1031.43 1562.09,-1037.28"/>
</g>
<!-- Sigma_sigT_functor_obj_inv -->
<g id="node3" class="node"><title>Sigma_sigT_functor_obj_inv</title>
<a xlink:href="Sigma.html#sigT_functor_obj_inv" xlink:title="sigT_functor_obj_inv">
<ellipse fill="#f070d1" stroke="black" cx="1141" cy="-1011.46" rx="111.255" ry="18.3848"/>
<ellipse fill="none" stroke="black" cx="1141" cy="-1011.46" rx="115.239" ry="22.3848"/>
<ellipse fill="none" stroke="black" cx="1141" cy="-1011.46" rx="119.222" ry="26.3848"/>
<text text-anchor="middle" x="1141" y="-1007.86" font-family="Times Roman,serif" font-size="14.00">sigT_functor_obj_inv</text>
</a>
</g>
<!-- Sigma_sigT_obj_as_sigT -->
<g id="node5" class="node"><title>Sigma_sigT_obj_as_sigT</title>
<a xlink:href="Sigma.html#sigT_obj_as_sigT" xlink:title="sigT_obj_as_sigT">
<ellipse fill="#f070d1" stroke="black" cx="1368" cy="-769.461" rx="91.9239" ry="18.3848"/>
<text text-anchor="middle" x="1368" y="-765.861" font-family="Times Roman,serif" font-size="14.00">sigT_obj_as_sigT</text>
</a>
</g>
<!-- Sigma_sigT_functor_obj_inv&#45;&gt;Sigma_sigT_obj_as_sigT -->
<g id="edge8" class="edge"><title>Sigma_sigT_functor_obj_inv&#45;&gt;Sigma_sigT_obj_as_sigT</title>
<path fill="none" stroke="black" d="M1165.73,-985.102C1209.5,-938.434 1300.12,-841.828 1343.64,-795.436"/>
<polygon fill="black" stroke="black" points="1346.41,-797.596 1350.7,-787.908 1341.3,-792.807 1346.41,-797.596"/>
</g>
<!-- Sigma_sigT_obj -->
<g id="node7" class="node"><title>Sigma_sigT_obj</title>
<a xlink:href="Sigma.html#sigT_obj" xlink:title="sigT_obj">
<ellipse fill="#f070d1" stroke="black" cx="1141" cy="-769.461" rx="50.9117" ry="18.3848"/>
<text text-anchor="middle" x="1141" y="-765.861" font-family="Times Roman,serif" font-size="14.00">sigT_obj</text>
</a>
</g>
<!-- Sigma_sigT_functor_obj_inv&#45;&gt;Sigma_sigT_obj -->
<g id="edge10" class="edge"><title>Sigma_sigT_functor_obj_inv&#45;&gt;Sigma_sigT_obj</title>
<path fill="none" stroke="black" d="M1141,-984.638C1141,-938.743 1141,-845.538 1141,-798.298"/>
<polygon fill="black" stroke="black" points="1144.5,-798.139 1141,-788.139 1137.5,-798.14 1144.5,-798.139"/>
</g>
<!-- Sigma_sigT_functor_obj&#45;&gt;Sigma_sigT_obj_as_sigT -->
<g id="edge12" class="edge"><title>Sigma_sigT_functor_obj&#45;&gt;Sigma_sigT_obj_as_sigT</title>
<path fill="none" stroke="black" d="M1368.92,-992.874C1368.75,-950.907 1368.33,-848.567 1368.12,-798.293"/>
<polygon fill="black" stroke="black" points="1371.62,-798.098 1368.08,-788.112 1364.62,-798.126 1371.62,-798.098"/>
</g>
<!-- Sigma_sigT_functor_obj&#45;&gt;Sigma_sigT_obj -->
<g id="edge14" class="edge"><title>Sigma_sigT_functor_obj&#45;&gt;Sigma_sigT_obj</title>
<path fill="none" stroke="black" d="M1351.86,-993.272C1311.56,-950.493 1210.69,-843.435 1164.62,-794.534"/>
<polygon fill="black" stroke="black" points="1167.12,-792.082 1157.72,-787.204 1162.03,-796.883 1167.12,-792.082"/>
</g>
<!-- Core_sig -->
<g id="node38" class="node"><title>Core_sig</title>
<a xlink:href="Core.html#sig" xlink:title="sig">
<ellipse fill="#f070d1" stroke="black" cx="2071" cy="-292.461" rx="27" ry="18.3848"/>
<text text-anchor="middle" x="2071" y="-288.861" font-family="Times Roman,serif" font-size="14.00">sig</text>
</a>
</g>
<!-- Sigma_sigT_obj_as_sigT&#45;&gt;Core_sig -->
<g id="edge16" class="edge"><title>Sigma_sigT_obj_as_sigT&#45;&gt;Core_sig</title>
<path fill="none" stroke="black" d="M1369.33,-750.874C1373.91,-700.657 1393.46,-560.973 1472,-485.461 1556.39,-404.331 1919.19,-323.796 2035.19,-299.703"/>
<polygon fill="black" stroke="black" points="2035.92,-303.127 2045,-297.677 2034.5,-296.271 2035.92,-303.127"/>
</g>
<!-- Sigma_pr1_obj&#45;&gt;Sigma_sigT_obj -->
<g id="edge18" class="edge"><title>Sigma_pr1_obj&#45;&gt;Sigma_sigT_obj</title>
<path fill="none" stroke="black" d="M969.603,-993.666C1001.87,-951.464 1083.14,-845.148 1121.01,-795.614"/>
<polygon fill="black" stroke="black" points="1123.83,-797.681 1127.13,-787.611 1118.27,-793.43 1123.83,-797.681"/>
</g>
<!-- Sigma_proj1_sig_mor -->
<g id="node8" class="node"><title>Sigma_proj1_sig_mor</title>
<a xlink:href="Sigma.html#proj1_sig_mor" xlink:title="proj1_sig_mor">
<ellipse fill="#f070d1" stroke="black" cx="751" cy="-1268.46" rx="79.9031" ry="18.3848"/>
<ellipse fill="none" stroke="black" cx="751" cy="-1268.46" rx="83.9031" ry="22.3848"/>
<ellipse fill="none" stroke="black" cx="751" cy="-1268.46" rx="87.9031" ry="26.3848"/>
<text text-anchor="middle" x="751" y="-1264.86" font-family="Times Roman,serif" font-size="14.00">proj1_sig_mor</text>
</a>
</g>
<!-- Sigma_pr1_mor -->
<g id="node15" class="node"><title>Sigma_pr1_mor</title>
<a xlink:href="Sigma.html#pr1_mor" xlink:title="pr1_mor">
<ellipse fill="#f070d1" stroke="black" cx="706" cy="-1011.46" rx="51.8276" ry="18.3848"/>
<text text-anchor="middle" x="706" y="-1007.86" font-family="Times Roman,serif" font-size="14.00">pr1_mor</text>
</a>
</g>
<!-- Sigma_proj1_sig_mor&#45;&gt;Sigma_pr1_mor -->
<g id="edge20" class="edge"><title>Sigma_proj1_sig_mor&#45;&gt;Sigma_pr1_mor</title>
<path fill="none" stroke="black" d="M746.354,-1241.93C737.839,-1193.3 719.803,-1090.29 711.019,-1040.13"/>
<polygon fill="black" stroke="black" points="714.415,-1039.22 709.242,-1029.98 707.519,-1040.43 714.415,-1039.22"/>
</g>
<!-- Sigma_sig_mor -->
<g id="node9" class="node"><title>Sigma_sig_mor</title>
<a xlink:href="Sigma.html#sig_mor" xlink:title="sig_mor">
<ellipse fill="#f070d1" stroke="black" cx="833" cy="-1011.46" rx="49.0671" ry="18.3848"/>
<ellipse fill="none" stroke="black" cx="833" cy="-1011.46" rx="53.0323" ry="22.3848"/>
<ellipse fill="none" stroke="black" cx="833" cy="-1011.46" rx="56.9975" ry="26.3848"/>
<text text-anchor="middle" x="833" y="-1007.86" font-family="Times Roman,serif" font-size="14.00">sig_mor</text>
</a>
</g>
<!-- Sigma_sigT_mor -->
<g id="node16" class="node"><title>Sigma_sigT_mor</title>
<a xlink:href="Sigma.html#sigT_mor" xlink:title="sigT_mor">
<ellipse fill="#f070d1" stroke="black" cx="706" cy="-769.461" rx="55.8614" ry="18.3848"/>
<text text-anchor="middle" x="706" y="-765.861" font-family="Times Roman,serif" font-size="14.00">sigT_mor</text>
</a>
</g>
<!-- Sigma_sig_mor&#45;&gt;Sigma_sigT_mor -->
<g id="edge22" class="edge"><title>Sigma_sig_mor&#45;&gt;Sigma_sigT_mor</title>
<path fill="none" stroke="black" d="M819.409,-985.563C795.283,-939.591 745.193,-844.143 720.459,-797.013"/>
<polygon fill="black" stroke="black" points="723.471,-795.221 715.725,-787.993 717.273,-798.474 723.471,-795.221"/>
</g>
<!-- Sigma_sigT_mor_compat -->
<g id="node10" class="node"><title>Sigma_sigT_mor_compat</title>
<a xlink:href="Sigma.html#sigT_mor_compat" xlink:title="sigT_mor_compat">
<ellipse fill="#f070d1" stroke="black" cx="540" cy="-1268.46" rx="96.8736" ry="18.3848"/>
<ellipse fill="none" stroke="black" cx="540" cy="-1268.46" rx="100.874" ry="22.3848"/>
<ellipse fill="none" stroke="black" cx="540" cy="-1268.46" rx="104.874" ry="26.3848"/>
<text text-anchor="middle" x="540" y="-1264.86" font-family="Times Roman,serif" font-size="14.00">sigT_mor_compat</text>
</a>
</g>
<!-- Sigma_sigT_functor_mor -->
<g id="node13" class="node"><title>Sigma_sigT_functor_mor</title>
<a xlink:href="Sigma.html#sigT_functor_mor" xlink:title="sigT_functor_mor">
<ellipse fill="#f070d1" stroke="black" cx="540" cy="-1011.46" rx="96.1665" ry="18.3848"/>
<text text-anchor="middle" x="540" y="-1007.86" font-family="Times Roman,serif" font-size="14.00">sigT_functor_mor</text>
</a>
</g>
<!-- Sigma_sigT_mor_compat&#45;&gt;Sigma_sigT_functor_mor -->
<g id="edge24" class="edge"><title>Sigma_sigT_mor_compat&#45;&gt;Sigma_sigT_functor_mor</title>
<path fill="none" stroke="black" d="M540,-1241.93C540,-1193.3 540,-1090.29 540,-1040.13"/>
<polygon fill="black" stroke="black" points="543.5,-1039.98 540,-1029.98 536.5,-1039.98 543.5,-1039.98"/>
</g>
<!-- Sigma_sigT_mor_compat&#45;&gt;Sigma_pr1_mor -->
<g id="edge26" class="edge"><title>Sigma_sigT_mor_compat&#45;&gt;Sigma_pr1_mor</title>
<path fill="none" stroke="black" d="M557.14,-1241.93C588.957,-1192.67 656.812,-1087.61 688.728,-1038.2"/>
<polygon fill="black" stroke="black" points="691.767,-1039.95 694.253,-1029.65 685.887,-1036.15 691.767,-1039.95"/>
</g>
<!-- Sigma_sigT_mor_eq -->
<g id="node11" class="node"><title>Sigma_sigT_mor_eq</title>
<a xlink:href="Sigma.html#sigT_mor_eq" xlink:title="sigT_mor_eq">
<ellipse fill="#f070d1" stroke="black" cx="1379" cy="-1268.46" rx="72.832" ry="18.3848"/>
<ellipse fill="none" stroke="black" cx="1379" cy="-1268.46" rx="76.832" ry="22.3848"/>
<ellipse fill="none" stroke="black" cx="1379" cy="-1268.46" rx="80.832" ry="26.3848"/>
<text text-anchor="middle" x="1379" y="-1264.86" font-family="Times Roman,serif" font-size="14.00">sigT_mor_eq</text>
</a>
</g>
<!-- OnMorphisms_sigT_mor_eq -->
<g id="node31" class="node"><title>OnMorphisms_sigT_mor_eq</title>
<a xlink:href="OnMorphisms.html#sigT_mor_eq" xlink:title="sigT_mor_eq">
<ellipse fill="#facdef" stroke="black" cx="2312" cy="-1011.46" rx="72.832" ry="18.3848"/>
<text text-anchor="middle" x="2312" y="-1007.86" font-family="Times Roman,serif" font-size="14.00">sigT_mor_eq</text>
</a>
</g>
<!-- Sigma_sigT_mor_eq&#45;&gt;OnMorphisms_sigT_mor_eq -->
<g id="edge28" class="edge"><title>Sigma_sigT_mor_eq&#45;&gt;OnMorphisms_sigT_mor_eq</title>
<path fill="none" stroke="black" d="M1441.3,-1251.3C1611.94,-1204.3 2085.25,-1073.92 2252.51,-1027.85"/>
<polygon fill="black" stroke="black" points="2253.66,-1031.16 2262.37,-1025.13 2251.8,-1024.41 2253.66,-1031.16"/>
</g>
<!-- Sigma_sigT_functor_mor_inv -->
<g id="node12" class="node"><title>Sigma_sigT_functor_mor_inv</title>
<a xlink:href="Sigma.html#sigT_functor_mor_inv" xlink:title="sigT_functor_mor_inv">
<ellipse fill="#f070d1" stroke="black" cx="302" cy="-1011.46" rx="115.966" ry="18.3848"/>
<ellipse fill="none" stroke="black" cx="302" cy="-1011.46" rx="119.966" ry="22.3848"/>
<ellipse fill="none" stroke="black" cx="302" cy="-1011.46" rx="123.966" ry="26.3848"/>
<text text-anchor="middle" x="302" y="-1007.86" font-family="Times Roman,serif" font-size="14.00">sigT_functor_mor_inv</text>
</a>
</g>
<!-- Sigma_sigT_mor_as_sigT -->
<g id="node14" class="node"><title>Sigma_sigT_mor_as_sigT</title>
<a xlink:href="Sigma.html#sigT_mor_as_sigT" xlink:title="sigT_mor_as_sigT">
<ellipse fill="#f070d1" stroke="black" cx="535" cy="-769.461" rx="96.8736" ry="18.3848"/>
<text text-anchor="middle" x="535" y="-765.861" font-family="Times Roman,serif" font-size="14.00">sigT_mor_as_sigT</text>
</a>
</g>
<!-- Sigma_sigT_functor_mor_inv&#45;&gt;Sigma_sigT_mor_as_sigT -->
<g id="edge30" class="edge"><title>Sigma_sigT_functor_mor_inv&#45;&gt;Sigma_sigT_mor_as_sigT</title>
<path fill="none" stroke="black" d="M327.379,-985.102C372.404,-938.337 465.709,-841.429 510.268,-795.149"/>
<polygon fill="black" stroke="black" points="512.825,-797.539 517.24,-787.908 507.782,-792.684 512.825,-797.539"/>
</g>
<!-- Sigma_sigT_functor_mor_inv&#45;&gt;Sigma_sigT_mor -->
<g id="edge32" class="edge"><title>Sigma_sigT_functor_mor_inv&#45;&gt;Sigma_sigT_mor</title>
<path fill="none" stroke="black" d="M343.713,-986.474C423.336,-938.78 595.689,-835.538 670.335,-790.825"/>
<polygon fill="black" stroke="black" points="672.161,-793.811 678.941,-785.67 668.564,-787.806 672.161,-793.811"/>
</g>
<!-- Sigma_sigT_functor_mor&#45;&gt;Sigma_sigT_mor_as_sigT -->
<g id="edge34" class="edge"><title>Sigma_sigT_functor_mor&#45;&gt;Sigma_sigT_mor_as_sigT</title>
<path fill="none" stroke="black" d="M539.616,-992.874C538.749,-950.907 536.634,-848.567 535.596,-798.293"/>
<polygon fill="black" stroke="black" points="539.091,-798.038 535.385,-788.112 532.093,-798.182 539.091,-798.038"/>
</g>
<!-- Sigma_sigT_functor_mor&#45;&gt;Sigma_sigT_mor -->
<g id="edge36" class="edge"><title>Sigma_sigT_functor_mor&#45;&gt;Sigma_sigT_mor</title>
<path fill="none" stroke="black" d="M552.75,-992.874C581.971,-950.275 653.862,-845.469 687.757,-796.057"/>
<polygon fill="black" stroke="black" points="690.663,-798.007 693.434,-787.781 684.891,-794.047 690.663,-798.007"/>
</g>
<!-- Core_sigT -->
<g id="node40" class="node"><title>Core_sigT</title>
<a xlink:href="Core.html#sigT" xlink:title="sigT">
<ellipse fill="#f070d1" stroke="black" cx="2108" cy="-93.4613" rx="31.1127" ry="18.3848"/>
<text text-anchor="middle" x="2108" y="-89.8613" font-family="Times Roman,serif" font-size="14.00">sigT</text>
</a>
</g>
<!-- Sigma_sigT_mor_as_sigT&#45;&gt;Core_sigT -->
<g id="edge38" class="edge"><title>Sigma_sigT_mor_as_sigT&#45;&gt;Core_sigT</title>
<path fill="none" stroke="black" d="M574.67,-752.413C795.014,-657.72 1865.88,-197.511 2073.2,-108.415"/>
<polygon fill="black" stroke="black" points="2074.88,-111.503 2082.69,-104.339 2072.12,-105.072 2074.88,-111.503"/>
</g>
<!-- Sigma_pr1_mor&#45;&gt;Sigma_sigT_mor -->
<g id="edge40" class="edge"><title>Sigma_pr1_mor&#45;&gt;Sigma_sigT_mor</title>
<path fill="none" stroke="black" d="M706,-992.874C706,-950.907 706,-848.567 706,-798.293"/>
<polygon fill="black" stroke="black" points="709.5,-798.112 706,-788.112 702.5,-798.112 709.5,-798.112"/>
</g>
<!-- Sigma_proj1_sig -->
<g id="node17" class="node"><title>Sigma_proj1_sig</title>
<a xlink:href="Sigma.html#proj1_sig" xlink:title="proj1_sig">
<ellipse fill="#f070d1" stroke="black" cx="132" cy="-1268.46" rx="55.1543" ry="18.3848"/>
<ellipse fill="none" stroke="black" cx="132" cy="-1268.46" rx="59.1543" ry="22.3848"/>
<ellipse fill="none" stroke="black" cx="132" cy="-1268.46" rx="63.1543" ry="26.3848"/>
<text text-anchor="middle" x="132" y="-1264.86" font-family="Times Roman,serif" font-size="14.00">proj1_sig</text>
</a>
</g>
<!-- Sigma_pr1 -->
<g id="node19" class="node"><title>Sigma_pr1</title>
<a xlink:href="Sigma.html#pr1" xlink:title="pr1">
<ellipse fill="#f070d1" stroke="black" cx="132" cy="-1011.46" rx="27.7881" ry="18.3848"/>
<text text-anchor="middle" x="132" y="-1007.86" font-family="Times Roman,serif" font-size="14.00">pr1</text>
</a>
</g>
<!-- Sigma_proj1_sig&#45;&gt;Sigma_pr1 -->
<g id="edge42" class="edge"><title>Sigma_proj1_sig&#45;&gt;Sigma_pr1</title>
<path fill="none" stroke="black" d="M132,-1241.93C132,-1193.3 132,-1090.29 132,-1040.13"/>
<polygon fill="black" stroke="black" points="135.5,-1039.98 132,-1029.98 128.5,-1039.98 135.5,-1039.98"/>
</g>
<!-- Sigma_sig -->
<g id="node18" class="node"><title>Sigma_sig</title>
<a xlink:href="Sigma.html#sig" xlink:title="sig">
<ellipse fill="#f070d1" stroke="black" cx="51" cy="-1011.46" rx="27" ry="18.3848"/>
<ellipse fill="none" stroke="black" cx="51" cy="-1011.46" rx="31" ry="22.3848"/>
<ellipse fill="none" stroke="black" cx="51" cy="-1011.46" rx="35" ry="26.3848"/>
<text text-anchor="middle" x="51" y="-1007.86" font-family="Times Roman,serif" font-size="14.00">sig</text>
</a>
</g>
<!-- Sigma_sigT -->
<g id="node20" class="node"><title>Sigma_sigT</title>
<a xlink:href="Sigma.html#sigT" xlink:title="sigT">
<ellipse fill="#f070d1" stroke="black" cx="91" cy="-769.461" rx="31.1127" ry="18.3848"/>
<text text-anchor="middle" x="91" y="-765.861" font-family="Times Roman,serif" font-size="14.00">sigT</text>
</a>
</g>
<!-- Sigma_sig&#45;&gt;Sigma_sigT -->
<g id="edge44" class="edge"><title>Sigma_sig&#45;&gt;Sigma_sigT</title>
<path fill="none" stroke="black" d="M55.3568,-985.102C62.9432,-939.205 78.5129,-845.008 86.3197,-797.777"/>
<polygon fill="black" stroke="black" points="89.7733,-798.345 87.951,-787.908 82.867,-797.203 89.7733,-798.345"/>
</g>
<!-- Sigma_pr1&#45;&gt;Sigma_sigT -->
<g id="edge46" class="edge"><title>Sigma_pr1&#45;&gt;Sigma_sigT</title>
<path fill="none" stroke="black" d="M128.851,-992.874C121.726,-950.819 104.329,-848.137 95.8313,-797.978"/>
<polygon fill="black" stroke="black" points="99.2812,-797.387 94.1599,-788.112 92.3795,-798.556 99.2812,-797.387"/>
</g>
<!-- OnObjects_sigT_obj_compat -->
<g id="node21" class="node"><title>OnObjects_sigT_obj_compat</title>
<a xlink:href="OnObjects.html#sigT_obj_compat" xlink:title="sigT_obj_compat">
<ellipse fill="#f070d1" stroke="black" cx="1867" cy="-1011.46" rx="91.9239" ry="18.3848"/>
<ellipse fill="none" stroke="black" cx="1867" cy="-1011.46" rx="95.9239" ry="22.3848"/>
<ellipse fill="none" stroke="black" cx="1867" cy="-1011.46" rx="99.9239" ry="26.3848"/>
<text text-anchor="middle" x="1867" y="-1007.86" font-family="Times Roman,serif" font-size="14.00">sigT_obj_compat</text>
</a>
</g>
<!-- OnObjects_sigT_functor_obj -->
<g id="node24" class="node"><title>OnObjects_sigT_functor_obj</title>
<a xlink:href="OnObjects.html#sigT_functor_obj" xlink:title="sigT_functor_obj">
<ellipse fill="#f070d1" stroke="black" cx="1815" cy="-769.461" rx="91.2168" ry="18.3848"/>
<text text-anchor="middle" x="1815" y="-765.861" font-family="Times Roman,serif" font-size="14.00">sigT_functor_obj</text>
</a>
</g>
<!-- OnObjects_sigT_obj_compat&#45;&gt;OnObjects_sigT_functor_obj -->
<g id="edge48" class="edge"><title>OnObjects_sigT_obj_compat&#45;&gt;OnObjects_sigT_functor_obj</title>
<path fill="none" stroke="black" d="M1861.24,-984.638C1851.35,-938.646 1831.26,-845.146 1821.13,-798"/>
<polygon fill="black" stroke="black" points="1824.54,-797.181 1819.01,-788.139 1817.69,-798.652 1824.54,-797.181"/>
</g>
<!-- OnObjects_pr1_obj -->
<g id="node26" class="node"><title>OnObjects_pr1_obj</title>
<a xlink:href="OnObjects.html#pr1_obj" xlink:title="pr1_obj">
<ellipse fill="#f070d1" stroke="black" cx="1972" cy="-769.461" rx="48.0833" ry="18.3848"/>
<text text-anchor="middle" x="1972" y="-765.861" font-family="Times Roman,serif" font-size="14.00">pr1_obj</text>
</a>
</g>
<!-- OnObjects_sigT_obj_compat&#45;&gt;OnObjects_pr1_obj -->
<g id="edge50" class="edge"><title>OnObjects_sigT_obj_compat&#45;&gt;OnObjects_pr1_obj</title>
<path fill="none" stroke="black" d="M1878.44,-985.102C1898.43,-939.012 1939.57,-844.216 1959.97,-797.184"/>
<polygon fill="black" stroke="black" points="1963.23,-798.474 1964,-787.908 1956.81,-795.688 1963.23,-798.474"/>
</g>
<!-- OnObjects_sigT_functor_obj_inv -->
<g id="node23" class="node"><title>OnObjects_sigT_functor_obj_inv</title>
<a xlink:href="OnObjects.html#sigT_functor_obj_inv" xlink:title="sigT_functor_obj_inv">
<ellipse fill="#f070d1" stroke="black" cx="1595" cy="-769.461" rx="111.222" ry="18.3848"/>
<text text-anchor="middle" x="1595" y="-765.861" font-family="Times Roman,serif" font-size="14.00">sigT_functor_obj_inv</text>
</a>
</g>
<!-- OnObjects_sigT_obj_eq&#45;&gt;OnObjects_sigT_functor_obj_inv -->
<g id="edge52" class="edge"><title>OnObjects_sigT_obj_eq&#45;&gt;OnObjects_sigT_functor_obj_inv</title>
<path fill="none" stroke="black" d="M1595,-992.874C1595,-950.907 1595,-848.567 1595,-798.293"/>
<polygon fill="black" stroke="black" points="1598.5,-798.112 1595,-788.112 1591.5,-798.112 1598.5,-798.112"/>
</g>
<!-- OnObjects_sigT_obj_eq&#45;&gt;OnObjects_sigT_functor_obj -->
<g id="edge54" class="edge"><title>OnObjects_sigT_obj_eq&#45;&gt;OnObjects_sigT_functor_obj</title>
<path fill="none" stroke="black" d="M1611.54,-993.272C1650.16,-950.789 1746.41,-844.915 1791.28,-795.559"/>
<polygon fill="black" stroke="black" points="1794.14,-797.615 1798.27,-787.862 1788.96,-792.907 1794.14,-797.615"/>
</g>
<!-- OnObjects_sigT_obj_as_sigT -->
<g id="node25" class="node"><title>OnObjects_sigT_obj_as_sigT</title>
<a xlink:href="OnObjects.html#sigT_obj_as_sigT" xlink:title="sigT_obj_as_sigT">
<ellipse fill="#f070d1" stroke="black" cx="1731" cy="-512.461" rx="91.9239" ry="18.3848"/>
<text text-anchor="middle" x="1731" y="-508.861" font-family="Times Roman,serif" font-size="14.00">sigT_obj_as_sigT</text>
</a>
</g>
<!-- OnObjects_sigT_functor_obj_inv&#45;&gt;OnObjects_sigT_obj_as_sigT -->
<g id="edge56" class="edge"><title>OnObjects_sigT_functor_obj_inv&#45;&gt;OnObjects_sigT_obj_as_sigT</title>
<path fill="none" stroke="black" d="M1604.78,-750.978C1628.35,-706.447 1688.38,-593.008 1716.3,-540.239"/>
<polygon fill="black" stroke="black" points="1719.54,-541.598 1721.13,-531.122 1713.35,-538.324 1719.54,-541.598"/>
</g>
<!-- OnObjects_sigT_obj -->
<g id="node27" class="node"><title>OnObjects_sigT_obj</title>
<a xlink:href="OnObjects.html#sigT_obj" xlink:title="sigT_obj">
<ellipse fill="#f070d1" stroke="black" cx="1892" cy="-512.461" rx="50.9117" ry="18.3848"/>
<text text-anchor="middle" x="1892" y="-508.861" font-family="Times Roman,serif" font-size="14.00">sigT_obj</text>
</a>
</g>
<!-- OnObjects_sigT_functor_obj_inv&#45;&gt;OnObjects_sigT_obj -->
<g id="edge58" class="edge"><title>OnObjects_sigT_functor_obj_inv&#45;&gt;OnObjects_sigT_obj</title>
<path fill="none" stroke="black" d="M1618.54,-751.304C1661.91,-717.574 1756.85,-642.401 1832,-573.461 1844.45,-562.039 1857.68,-548.724 1868.54,-537.453"/>
<polygon fill="black" stroke="black" points="1871.27,-539.672 1875.65,-530.025 1866.21,-534.835 1871.27,-539.672"/>
</g>
<!-- OnObjects_sigT_functor_obj&#45;&gt;OnObjects_sigT_obj_as_sigT -->
<g id="edge60" class="edge"><title>OnObjects_sigT_functor_obj&#45;&gt;OnObjects_sigT_obj_as_sigT</title>
<path fill="none" stroke="black" d="M1808.96,-750.978C1794.46,-706.632 1757.63,-593.948 1740.29,-540.899"/>
<polygon fill="black" stroke="black" points="1743.53,-539.54 1737.1,-531.122 1736.88,-541.714 1743.53,-539.54"/>
</g>
<!-- OnObjects_sigT_functor_obj&#45;&gt;OnObjects_sigT_obj -->
<g id="edge62" class="edge"><title>OnObjects_sigT_functor_obj&#45;&gt;OnObjects_sigT_obj</title>
<path fill="none" stroke="black" d="M1820.54,-750.978C1833.82,-706.632 1867.59,-593.948 1883.48,-540.899"/>
<polygon fill="black" stroke="black" points="1886.89,-541.706 1886.41,-531.122 1880.19,-539.697 1886.89,-541.706"/>
</g>
<!-- OnObjects_sigT_obj_as_sigT&#45;&gt;Core_sig -->
<g id="edge64" class="edge"><title>OnObjects_sigT_obj_as_sigT&#45;&gt;Core_sig</title>
<path fill="none" stroke="black" d="M1758.54,-494.644C1822.1,-453.513 1978.54,-352.29 2042.77,-310.727"/>
<polygon fill="black" stroke="black" points="2044.71,-313.641 2051.2,-305.27 2040.91,-307.764 2044.71,-313.641"/>
</g>
<!-- OnObjects_pr1_obj&#45;&gt;OnObjects_sigT_obj -->
<g id="edge66" class="edge"><title>OnObjects_pr1_obj&#45;&gt;OnObjects_sigT_obj</title>
<path fill="none" stroke="black" d="M1966.25,-750.978C1952.44,-706.632 1917.37,-593.948 1900.85,-540.899"/>
<polygon fill="black" stroke="black" points="1904.12,-539.63 1897.81,-531.122 1897.44,-541.71 1904.12,-539.63"/>
</g>
<!-- OnMorphisms_proj1_sig_mor -->
<g id="node28" class="node"><title>OnMorphisms_proj1_sig_mor</title>
<a xlink:href="OnMorphisms.html#proj1_sig_mor" xlink:title="proj1_sig_mor">
<ellipse fill="#f070d1" stroke="black" cx="2753" cy="-1011.46" rx="79.9031" ry="18.3848"/>
<ellipse fill="none" stroke="black" cx="2753" cy="-1011.46" rx="83.9031" ry="22.3848"/>
<ellipse fill="none" stroke="black" cx="2753" cy="-1011.46" rx="87.9031" ry="26.3848"/>
<text text-anchor="middle" x="2753" y="-1007.86" font-family="Times Roman,serif" font-size="14.00">proj1_sig_mor</text>
</a>
</g>
<!-- OnMorphisms_pr1_mor -->
<g id="node35" class="node"><title>OnMorphisms_pr1_mor</title>
<a xlink:href="OnMorphisms.html#pr1_mor" xlink:title="pr1_mor">
<ellipse fill="#f070d1" stroke="black" cx="2708" cy="-769.461" rx="51.8276" ry="18.3848"/>
<text text-anchor="middle" x="2708" y="-765.861" font-family="Times Roman,serif" font-size="14.00">pr1_mor</text>
</a>
</g>
<!-- OnMorphisms_proj1_sig_mor&#45;&gt;OnMorphisms_pr1_mor -->
<g id="edge68" class="edge"><title>OnMorphisms_proj1_sig_mor&#45;&gt;OnMorphisms_pr1_mor</title>
<path fill="none" stroke="black" d="M2748.01,-984.638C2739.46,-938.646 2722.07,-845.146 2713.31,-798"/>
<polygon fill="black" stroke="black" points="2716.74,-797.331 2711.47,-788.139 2709.86,-798.611 2716.74,-797.331"/>
</g>
<!-- OnMorphisms_sig_mor -->
<g id="node29" class="node"><title>OnMorphisms_sig_mor</title>
<a xlink:href="OnMorphisms.html#sig_mor" xlink:title="sig_mor">
<ellipse fill="#f070d1" stroke="black" cx="2835" cy="-769.461" rx="49.0671" ry="18.3848"/>
<ellipse fill="none" stroke="black" cx="2835" cy="-769.461" rx="53.0323" ry="22.3848"/>
<ellipse fill="none" stroke="black" cx="2835" cy="-769.461" rx="56.9975" ry="26.3848"/>
<text text-anchor="middle" x="2835" y="-765.861" font-family="Times Roman,serif" font-size="14.00">sig_mor</text>
</a>
</g>
<!-- OnMorphisms_sigT_mor -->
<g id="node36" class="node"><title>OnMorphisms_sigT_mor</title>
<a xlink:href="OnMorphisms.html#sigT_mor" xlink:title="sigT_mor">
<ellipse fill="#f070d1" stroke="black" cx="2625" cy="-512.461" rx="55.8614" ry="18.3848"/>
<text text-anchor="middle" x="2625" y="-508.861" font-family="Times Roman,serif" font-size="14.00">sigT_mor</text>
</a>
</g>
<!-- OnMorphisms_sig_mor&#45;&gt;OnMorphisms_sigT_mor -->
<g id="edge70" class="edge"><title>OnMorphisms_sig_mor&#45;&gt;OnMorphisms_sigT_mor</title>
<path fill="none" stroke="black" d="M2814.48,-744.351C2774.58,-695.518 2686.89,-588.204 2646.34,-538.578"/>
<polygon fill="black" stroke="black" points="2648.83,-536.096 2639.79,-530.567 2643.41,-540.526 2648.83,-536.096"/>
</g>
<!-- OnMorphisms_sigT_mor_compat -->
<g id="node30" class="node"><title>OnMorphisms_sigT_mor_compat</title>
<a xlink:href="OnMorphisms.html#sigT_mor_compat" xlink:title="sigT_mor_compat">
<ellipse fill="#f070d1" stroke="black" cx="2542" cy="-1011.46" rx="96.8736" ry="18.3848"/>
<ellipse fill="none" stroke="black" cx="2542" cy="-1011.46" rx="100.874" ry="22.3848"/>
<ellipse fill="none" stroke="black" cx="2542" cy="-1011.46" rx="104.874" ry="26.3848"/>
<text text-anchor="middle" x="2542" y="-1007.86" font-family="Times Roman,serif" font-size="14.00">sigT_mor_compat</text>
</a>
</g>
<!-- OnMorphisms_sigT_functor_mor -->
<g id="node33" class="node"><title>OnMorphisms_sigT_functor_mor</title>
<a xlink:href="OnMorphisms.html#sigT_functor_mor" xlink:title="sigT_functor_mor">
<ellipse fill="#f070d1" stroke="black" cx="2542" cy="-769.461" rx="96.1665" ry="18.3848"/>
<text text-anchor="middle" x="2542" y="-765.861" font-family="Times Roman,serif" font-size="14.00">sigT_functor_mor</text>
</a>
</g>
<!-- OnMorphisms_sigT_mor_compat&#45;&gt;OnMorphisms_sigT_functor_mor -->
<g id="edge72" class="edge"><title>OnMorphisms_sigT_mor_compat&#45;&gt;OnMorphisms_sigT_functor_mor</title>
<path fill="none" stroke="black" d="M2542,-984.638C2542,-938.743 2542,-845.538 2542,-798.298"/>
<polygon fill="black" stroke="black" points="2545.5,-798.139 2542,-788.139 2538.5,-798.14 2545.5,-798.139"/>
</g>
<!-- OnMorphisms_sigT_mor_compat&#45;&gt;OnMorphisms_pr1_mor -->
<g id="edge74" class="edge"><title>OnMorphisms_sigT_mor_compat&#45;&gt;OnMorphisms_pr1_mor</title>
<path fill="none" stroke="black" d="M2560.08,-985.102C2591.97,-938.608 2657.87,-842.549 2689.83,-795.957"/>
<polygon fill="black" stroke="black" points="2692.79,-797.818 2695.56,-787.592 2687.02,-793.858 2692.79,-797.818"/>
</g>
<!-- OnMorphisms_sigT_functor_mor_inv -->
<g id="node32" class="node"><title>OnMorphisms_sigT_functor_mor_inv</title>
<a xlink:href="OnMorphisms.html#sigT_functor_mor_inv" xlink:title="sigT_functor_mor_inv">
<ellipse fill="#f070d1" stroke="black" cx="2312" cy="-769.461" rx="115.966" ry="18.3848"/>
<text text-anchor="middle" x="2312" y="-765.861" font-family="Times Roman,serif" font-size="14.00">sigT_functor_mor_inv</text>
</a>
</g>
<!-- OnMorphisms_sigT_mor_eq&#45;&gt;OnMorphisms_sigT_functor_mor_inv -->
<g id="edge76" class="edge"><title>OnMorphisms_sigT_mor_eq&#45;&gt;OnMorphisms_sigT_functor_mor_inv</title>
<path fill="none" stroke="black" d="M2312,-992.874C2312,-950.907 2312,-848.567 2312,-798.293"/>
<polygon fill="black" stroke="black" points="2315.5,-798.112 2312,-788.112 2308.5,-798.112 2315.5,-798.112"/>
</g>
<!-- OnMorphisms_sigT_mor_eq&#45;&gt;OnMorphisms_sigT_functor_mor -->
<g id="edge78" class="edge"><title>OnMorphisms_sigT_mor_eq&#45;&gt;OnMorphisms_sigT_functor_mor</title>
<path fill="none" stroke="black" d="M2329.29,-993.272C2369.75,-950.701 2470.7,-844.478 2517.49,-795.254"/>
<polygon fill="black" stroke="black" points="2520.16,-797.521 2524.51,-787.862 2515.09,-792.699 2520.16,-797.521"/>
</g>
<!-- OnMorphisms_sigT_mor_as_sigT -->
<g id="node34" class="node"><title>OnMorphisms_sigT_mor_as_sigT</title>
<a xlink:href="OnMorphisms.html#sigT_mor_as_sigT" xlink:title="sigT_mor_as_sigT">
<ellipse fill="#f070d1" stroke="black" cx="2312" cy="-512.461" rx="96.8736" ry="18.3848"/>
<text text-anchor="middle" x="2312" y="-508.861" font-family="Times Roman,serif" font-size="14.00">sigT_mor_as_sigT</text>
</a>
</g>
<!-- OnMorphisms_sigT_functor_mor_inv&#45;&gt;OnMorphisms_sigT_mor_as_sigT -->
<g id="edge80" class="edge"><title>OnMorphisms_sigT_functor_mor_inv&#45;&gt;OnMorphisms_sigT_mor_as_sigT</title>
<path fill="none" stroke="black" d="M2312,-750.563C2312,-705.991 2312,-594.078 2312,-541.108"/>
<polygon fill="black" stroke="black" points="2315.5,-541.04 2312,-531.04 2308.5,-541.04 2315.5,-541.04"/>
</g>
<!-- OnMorphisms_sigT_functor_mor_inv&#45;&gt;OnMorphisms_sigT_mor -->
<g id="edge82" class="edge"><title>OnMorphisms_sigT_functor_mor_inv&#45;&gt;OnMorphisms_sigT_mor</title>
<path fill="none" stroke="black" d="M2334.51,-750.978C2390.18,-705.267 2534.28,-586.949 2596.12,-536.175"/>
<polygon fill="black" stroke="black" points="2598.43,-538.808 2603.94,-529.757 2593.99,-533.398 2598.43,-538.808"/>
</g>
<!-- OnMorphisms_sigT_functor_mor&#45;&gt;OnMorphisms_sigT_mor_as_sigT -->
<g id="edge84" class="edge"><title>OnMorphisms_sigT_functor_mor&#45;&gt;OnMorphisms_sigT_mor_as_sigT</title>
<path fill="none" stroke="black" d="M2525.46,-750.978C2485.09,-705.875 2381.47,-590.085 2335.07,-538.238"/>
<polygon fill="black" stroke="black" points="2337.67,-535.894 2328.39,-530.777 2332.45,-540.562 2337.67,-535.894"/>
</g>
<!-- OnMorphisms_sigT_functor_mor&#45;&gt;OnMorphisms_sigT_mor -->
<g id="edge86" class="edge"><title>OnMorphisms_sigT_functor_mor&#45;&gt;OnMorphisms_sigT_mor</title>
<path fill="none" stroke="black" d="M2547.97,-750.978C2562.29,-706.632 2598.68,-593.948 2615.82,-540.899"/>
<polygon fill="black" stroke="black" points="2619.23,-541.714 2618.97,-531.122 2612.57,-539.562 2619.23,-541.714"/>
</g>
<!-- OnMorphisms_sigT_mor_as_sigT&#45;&gt;Core_sigT -->
<g id="edge88" class="edge"><title>OnMorphisms_sigT_mor_as_sigT&#45;&gt;Core_sigT</title>
<path fill="none" stroke="black" d="M2302.97,-493.917C2270.51,-427.241 2159.61,-199.465 2121.21,-120.6"/>
<polygon fill="black" stroke="black" points="2124.22,-118.781 2116.7,-111.322 2117.93,-121.845 2124.22,-118.781"/>
</g>
<!-- OnMorphisms_pr1_mor&#45;&gt;OnMorphisms_sigT_mor -->
<g id="edge90" class="edge"><title>OnMorphisms_pr1_mor&#45;&gt;OnMorphisms_sigT_mor</title>
<path fill="none" stroke="black" d="M2702.03,-750.978C2687.71,-706.632 2651.32,-593.948 2634.18,-540.899"/>
<polygon fill="black" stroke="black" points="2637.43,-539.562 2631.03,-531.122 2630.77,-541.714 2637.43,-539.562"/>
</g>
<!-- Core_proj1_sig -->
<g id="node37" class="node"><title>Core_proj1_sig</title>
<a xlink:href="Core.html#proj1_sig" xlink:title="proj1_sig">
<ellipse fill="#f070d1" stroke="black" cx="2109" cy="-512.461" rx="55.1543" ry="18.3848"/>
<ellipse fill="none" stroke="black" cx="2109" cy="-512.461" rx="59.1543" ry="22.3848"/>
<ellipse fill="none" stroke="black" cx="2109" cy="-512.461" rx="63.1543" ry="26.3848"/>
<text text-anchor="middle" x="2109" y="-508.861" font-family="Times Roman,serif" font-size="14.00">proj1_sig</text>
</a>
</g>
<!-- Core_pr1 -->
<g id="node39" class="node"><title>Core_pr1</title>
<a xlink:href="Core.html#pr1" xlink:title="pr1">
<ellipse fill="#f070d1" stroke="black" cx="2144" cy="-292.461" rx="27.7881" ry="18.3848"/>
<text text-anchor="middle" x="2144" y="-288.861" font-family="Times Roman,serif" font-size="14.00">pr1</text>
</a>
</g>
<!-- Core_proj1_sig&#45;&gt;Core_pr1 -->
<g id="edge92" class="edge"><title>Core_proj1_sig&#45;&gt;Core_pr1</title>
<path fill="none" stroke="black" d="M2113.22,-485.924C2119.84,-444.309 2132.61,-364.03 2139.44,-321.134"/>
<polygon fill="black" stroke="black" points="2142.92,-321.505 2141.04,-311.08 2136.01,-320.406 2142.92,-321.505"/>
</g>
<!-- Core_sig&#45;&gt;Core_sigT -->
<g id="edge94" class="edge"><title>Core_sig&#45;&gt;Core_sigT</title>
<path fill="none" stroke="black" d="M2074.41,-274.097C2080.88,-239.31 2094.96,-163.586 2102.68,-122.082"/>
<polygon fill="black" stroke="black" points="2106.15,-122.542 2104.54,-112.071 2099.27,-121.263 2106.15,-122.542"/>
</g>
<!-- Core_pr1&#45;&gt;Core_sigT -->
<g id="edge96" class="edge"><title>Core_pr1&#45;&gt;Core_sigT</title>
<path fill="none" stroke="black" d="M2140.61,-273.74C2134.29,-238.76 2120.63,-163.294 2113.16,-121.958"/>
<polygon fill="black" stroke="black" points="2116.58,-121.205 2111.35,-111.988 2109.69,-122.451 2116.58,-121.205"/>
</g>
</g>
</svg>
