<?xml version="1.0" encoding="UTF-8" standalone="no"?>
<!DOCTYPE svg PUBLIC "-//W3C//DTD SVG 1.1//EN"
 "http://www.w3.org/Graphics/SVG/1.1/DTD/svg11.dtd">
<!-- Generated by graphviz version 2.26.3 (20100126.1600)
 -->
<!-- Title: HoTT_categories_LaxComma_Core Pages: 1 -->
<svg width="4424pt" height="2216pt"
 viewBox="0.00 0.00 4424.00 2216.00" xmlns="http://www.w3.org/2000/svg" xmlns:xlink="http://www.w3.org/1999/xlink">
<g id="graph1" class="graph" transform="scale(1 1) rotate(0) translate(4 2212)">
<title>HoTT_categories_LaxComma_Core</title>
<polygon fill="white" stroke="white" points="-4,5 -4,-2212 4421,-2212 4421,5 -4,5"/>
<g id="graph2" class="cluster"><title>cluster_Core</title>
<polygon fill="#ffffc3" stroke="black" points="8,-44.16 8,-2163.84 4408,-2163.84 4408,-44.16 8,-44.16"/>
<text text-anchor="middle" x="32.5" y="-2147.24" font-family="Times Roman,serif" font-size="14.00">Core</text>
</g>
<g id="graph3" class="cluster"><title>cluster_Core_LaxCommaCoreNotations</title>
<polygon fill="#ffffa3" stroke="black" points="1696,-993.6 1696,-1976.16 4400,-1976.16 4400,-993.6 1696,-993.6"/>
<text text-anchor="middle" x="1792" y="-1959.56" font-family="Times Roman,serif" font-size="14.00">LaxCommaCoreNotations</text>
</g>
<!-- Core_LaxCommaCoreNotations_OLCC_coslice_over -->
<g id="node1" class="node"><title>Core_LaxCommaCoreNotations_OLCC_coslice_over</title>
<a xlink:href="Core.html#LaxCommaCoreNotations.OLCC_coslice_over" xlink:title="OLCC_coslice_over">
<ellipse fill="#7fffd4" stroke="black" cx="4281" cy="-1639.16" rx="103.238" ry="18.3848"/>
<ellipse fill="none" stroke="black" cx="4281" cy="-1639.16" rx="107.238" ry="22.3848"/>
<ellipse fill="none" stroke="black" cx="4281" cy="-1639.16" rx="111.238" ry="26.3848"/>
<text text-anchor="middle" x="4281" y="-1635.56" font-family="Times Roman,serif" font-size="14.00">OLCC_coslice_over</text>
</a>
</g>
<!-- Core_LaxCommaCoreNotations_OLCC_slice_over -->
<g id="node2" class="node"><title>Core_LaxCommaCoreNotations_OLCC_slice_over</title>
<a xlink:href="Core.html#LaxCommaCoreNotations.OLCC_slice_over" xlink:title="OLCC_slice_over">
<ellipse fill="#7fffd4" stroke="black" cx="4052" cy="-1639.16" rx="92.1701" ry="18.3848"/>
<ellipse fill="none" stroke="black" cx="4052" cy="-1639.16" rx="96.1502" ry="22.3848"/>
<ellipse fill="none" stroke="black" cx="4052" cy="-1639.16" rx="100.13" ry="26.3848"/>
<text text-anchor="middle" x="4052" y="-1635.56" font-family="Times Roman,serif" font-size="14.00">OLCC_slice_over</text>
</a>
</g>
<!-- Core_LaxCommaCoreNotations_OLCC_coslice -->
<g id="node3" class="node"><title>Core_LaxCommaCoreNotations_OLCC_coslice</title>
<a xlink:href="Core.html#LaxCommaCoreNotations.OLCC_coslice" xlink:title="OLCC_coslice">
<ellipse fill="#7fffd4" stroke="black" cx="3851" cy="-1639.16" rx="75.2074" ry="18.3848"/>
<ellipse fill="none" stroke="black" cx="3851" cy="-1639.16" rx="79.1834" ry="22.3848"/>
<ellipse fill="none" stroke="black" cx="3851" cy="-1639.16" rx="83.1595" ry="26.3848"/>
<text text-anchor="middle" x="3851" y="-1635.56" font-family="Times Roman,serif" font-size="14.00">OLCC_coslice</text>
</a>
</g>
<!-- Core_LaxCommaCoreNotations_OLCC_slice -->
<g id="node4" class="node"><title>Core_LaxCommaCoreNotations_OLCC_slice</title>
<a xlink:href="Core.html#LaxCommaCoreNotations.OLCC_slice" xlink:title="OLCC_slice">
<ellipse fill="#7fffd4" stroke="black" cx="3677" cy="-1639.16" rx="65.0538" ry="18.3848"/>
<ellipse fill="none" stroke="black" cx="3677" cy="-1639.16" rx="69.0538" ry="22.3848"/>
<ellipse fill="none" stroke="black" cx="3677" cy="-1639.16" rx="73.0538" ry="26.3848"/>
<text text-anchor="middle" x="3677" y="-1635.56" font-family="Times Roman,serif" font-size="14.00">OLCC_slice</text>
</a>
</g>
<!-- Core_LaxCommaCoreNotations_OLCC_comma -->
<g id="node5" class="node"><title>Core_LaxCommaCoreNotations_OLCC_comma</title>
<a xlink:href="Core.html#LaxCommaCoreNotations.OLCC_comma" xlink:title="OLCC_comma">
<ellipse fill="#7fffd4" stroke="black" cx="3499" cy="-1639.16" rx="79.196" ry="18.3848"/>
<ellipse fill="none" stroke="black" cx="3499" cy="-1639.16" rx="83.196" ry="22.3848"/>
<ellipse fill="none" stroke="black" cx="3499" cy="-1639.16" rx="87.196" ry="26.3848"/>
<text text-anchor="middle" x="3499" y="-1635.56" font-family="Times Roman,serif" font-size="14.00">OLCC_comma</text>
</a>
</g>
<!-- Core_LaxCommaCoreNotations_get_OLCC -->
<g id="node6" class="node"><title>Core_LaxCommaCoreNotations_get_OLCC</title>
<a xlink:href="Core.html#LaxCommaCoreNotations.get_OLCC" xlink:title="get_OLCC">
<ellipse fill="#f070d1" stroke="black" cx="3325" cy="-1639.16" rx="60.8112" ry="18.3848"/>
<ellipse fill="none" stroke="black" cx="3325" cy="-1639.16" rx="64.8112" ry="22.3848"/>
<ellipse fill="none" stroke="black" cx="3325" cy="-1639.16" rx="68.8112" ry="26.3848"/>
<text text-anchor="middle" x="3325" y="-1635.56" font-family="Times Roman,serif" font-size="14.00">get_OLCC</text>
</a>
</g>
<!-- Core_LaxCommaCoreNotations_OLCC_Builder -->
<g id="node8" class="node"><title>Core_LaxCommaCoreNotations_OLCC_Builder</title>
<a xlink:href="Core.html#LaxCommaCoreNotations.OLCC_Builder" xlink:title="OLCC_Builder">
<ellipse fill="#f070d1" stroke="black" cx="3223" cy="-1142.16" rx="79.196" ry="18.3848"/>
<text text-anchor="middle" x="3223" y="-1138.56" font-family="Times Roman,serif" font-size="14.00">OLCC_Builder</text>
</a>
</g>
<!-- Core_LaxCommaCoreNotations_get_OLCC&#45;&gt;Core_LaxCommaCoreNotations_OLCC_Builder -->
<g id="edge2" class="edge"><title>Core_LaxCommaCoreNotations_get_OLCC&#45;&gt;Core_LaxCommaCoreNotations_OLCC_Builder</title>
<path fill="none" stroke="black" d="M3319.52,-1612.44C3301.92,-1526.71 3246.98,-1259.01 3228.86,-1170.72"/>
<polygon fill="black" stroke="black" points="3232.28,-1169.96 3226.84,-1160.87 3225.42,-1171.37 3232.28,-1169.96"/>
</g>
<!-- Core_LaxCommaCoreNotations_olcc_builder_dummy -->
<g id="node7" class="node"><title>Core_LaxCommaCoreNotations_olcc_builder_dummy</title>
<a xlink:href="Core.html#LaxCommaCoreNotations.olcc_builder_dummy" xlink:title="olcc_builder_dummy">
<ellipse fill="#7fffd4" stroke="black" cx="3121" cy="-1639.16" rx="109.135" ry="18.3848"/>
<ellipse fill="none" stroke="black" cx="3121" cy="-1639.16" rx="113.118" ry="22.3848"/>
<ellipse fill="none" stroke="black" cx="3121" cy="-1639.16" rx="117.101" ry="26.3848"/>
<text text-anchor="middle" x="3121" y="-1635.56" font-family="Times Roman,serif" font-size="14.00">olcc_builder_dummy</text>
</a>
</g>
<!-- Core_LaxCommaCoreNotations_olcc_builder_dummy&#45;&gt;Core_LaxCommaCoreNotations_OLCC_Builder -->
<g id="edge4" class="edge"><title>Core_LaxCommaCoreNotations_olcc_builder_dummy&#45;&gt;Core_LaxCommaCoreNotations_OLCC_Builder</title>
<path fill="none" stroke="black" d="M3126.48,-1612.44C3144.08,-1526.71 3199.02,-1259.01 3217.14,-1170.72"/>
<polygon fill="black" stroke="black" points="3220.58,-1171.37 3219.16,-1160.87 3213.72,-1169.96 3220.58,-1171.37"/>
</g>
<!-- Core_LaxCommaCoreNotations_LCC_coslice_over -->
<g id="node9" class="node"><title>Core_LaxCommaCoreNotations_LCC_coslice_over</title>
<a xlink:href="Core.html#LaxCommaCoreNotations.LCC_coslice_over" xlink:title="LCC_coslice_over">
<ellipse fill="#7fffd4" stroke="black" cx="2883" cy="-1639.16" rx="94.7523" ry="18.3848"/>
<ellipse fill="none" stroke="black" cx="2883" cy="-1639.16" rx="98.7523" ry="22.3848"/>
<ellipse fill="none" stroke="black" cx="2883" cy="-1639.16" rx="102.752" ry="26.3848"/>
<text text-anchor="middle" x="2883" y="-1635.56" font-family="Times Roman,serif" font-size="14.00">LCC_coslice_over</text>
</a>
</g>
<!-- Core_LaxCommaCoreNotations_LCC_slice_over -->
<g id="node10" class="node"><title>Core_LaxCommaCoreNotations_LCC_slice_over</title>
<a xlink:href="Core.html#LaxCommaCoreNotations.LCC_slice_over" xlink:title="LCC_slice_over">
<ellipse fill="#7fffd4" stroke="black" cx="2670" cy="-1639.16" rx="84.1457" ry="18.3848"/>
<ellipse fill="none" stroke="black" cx="2670" cy="-1639.16" rx="88.1457" ry="22.3848"/>
<ellipse fill="none" stroke="black" cx="2670" cy="-1639.16" rx="92.1457" ry="26.3848"/>
<text text-anchor="middle" x="2670" y="-1635.56" font-family="Times Roman,serif" font-size="14.00">LCC_slice_over</text>
</a>
</g>
<!-- Core_LaxCommaCoreNotations_LCC_coslice -->
<g id="node11" class="node"><title>Core_LaxCommaCoreNotations_LCC_coslice</title>
<a xlink:href="Core.html#LaxCommaCoreNotations.LCC_coslice" xlink:title="LCC_coslice">
<ellipse fill="#7fffd4" stroke="black" cx="2484" cy="-1639.16" rx="67.8823" ry="18.3848"/>
<ellipse fill="none" stroke="black" cx="2484" cy="-1639.16" rx="71.8823" ry="22.3848"/>
<ellipse fill="none" stroke="black" cx="2484" cy="-1639.16" rx="75.8823" ry="26.3848"/>
<text text-anchor="middle" x="2484" y="-1635.56" font-family="Times Roman,serif" font-size="14.00">LCC_coslice</text>
</a>
</g>
<!-- Core_LaxCommaCoreNotations_LCC_slice -->
<g id="node12" class="node"><title>Core_LaxCommaCoreNotations_LCC_slice</title>
<a xlink:href="Core.html#LaxCommaCoreNotations.LCC_slice" xlink:title="LCC_slice">
<ellipse fill="#7fffd4" stroke="black" cx="2325" cy="-1639.16" rx="56.8384" ry="18.3848"/>
<ellipse fill="none" stroke="black" cx="2325" cy="-1639.16" rx="60.8079" ry="22.3848"/>
<ellipse fill="none" stroke="black" cx="2325" cy="-1639.16" rx="64.7774" ry="26.3848"/>
<text text-anchor="middle" x="2325" y="-1635.56" font-family="Times Roman,serif" font-size="14.00">LCC_slice</text>
</a>
</g>
<!-- Core_LaxCommaCoreNotations_LCC_comma -->
<g id="node13" class="node"><title>Core_LaxCommaCoreNotations_LCC_comma</title>
<a xlink:href="Core.html#LaxCommaCoreNotations.LCC_comma" xlink:title="LCC_comma">
<ellipse fill="#7fffd4" stroke="black" cx="2163" cy="-1639.16" rx="70.9686" ry="18.3848"/>
<ellipse fill="none" stroke="black" cx="2163" cy="-1639.16" rx="74.9435" ry="22.3848"/>
<ellipse fill="none" stroke="black" cx="2163" cy="-1639.16" rx="78.9183" ry="26.3848"/>
<text text-anchor="middle" x="2163" y="-1635.56" font-family="Times Roman,serif" font-size="14.00">LCC_comma</text>
</a>
</g>
<!-- Core_LaxCommaCoreNotations_get_LCC -->
<g id="node14" class="node"><title>Core_LaxCommaCoreNotations_get_LCC</title>
<a xlink:href="Core.html#LaxCommaCoreNotations.get_LCC" xlink:title="get_LCC">
<ellipse fill="#f070d1" stroke="black" cx="2006" cy="-1639.16" rx="51.8935" ry="18.3848"/>
<ellipse fill="none" stroke="black" cx="2006" cy="-1639.16" rx="55.8604" ry="22.3848"/>
<ellipse fill="none" stroke="black" cx="2006" cy="-1639.16" rx="59.8273" ry="26.3848"/>
<text text-anchor="middle" x="2006" y="-1635.56" font-family="Times Roman,serif" font-size="14.00">get_LCC</text>
</a>
</g>
<!-- Core_LaxCommaCoreNotations_LCC_Builder -->
<g id="node16" class="node"><title>Core_LaxCommaCoreNotations_LCC_Builder</title>
<a xlink:href="Core.html#LaxCommaCoreNotations.LCC_Builder" xlink:title="LCC_Builder">
<ellipse fill="#f070d1" stroke="black" cx="1911" cy="-1142.16" rx="70.9184" ry="18.3848"/>
<text text-anchor="middle" x="1911" y="-1138.56" font-family="Times Roman,serif" font-size="14.00">LCC_Builder</text>
</a>
</g>
<!-- Core_LaxCommaCoreNotations_get_LCC&#45;&gt;Core_LaxCommaCoreNotations_LCC_Builder -->
<g id="edge6" class="edge"><title>Core_LaxCommaCoreNotations_get_LCC&#45;&gt;Core_LaxCommaCoreNotations_LCC_Builder</title>
<path fill="none" stroke="black" d="M2000.89,-1612.44C1984.5,-1526.71 1933.34,-1259.01 1916.46,-1170.72"/>
<polygon fill="black" stroke="black" points="1919.89,-1170.04 1914.58,-1160.87 1913.02,-1171.35 1919.89,-1170.04"/>
</g>
<!-- Core_LaxCommaCoreNotations_lcc_builder_dummy -->
<g id="node15" class="node"><title>Core_LaxCommaCoreNotations_lcc_builder_dummy</title>
<a xlink:href="Core.html#LaxCommaCoreNotations.lcc_builder_dummy" xlink:title="lcc_builder_dummy">
<ellipse fill="#7fffd4" stroke="black" cx="1816" cy="-1639.16" rx="103.945" ry="18.3848"/>
<ellipse fill="none" stroke="black" cx="1816" cy="-1639.16" rx="107.945" ry="22.3848"/>
<ellipse fill="none" stroke="black" cx="1816" cy="-1639.16" rx="111.945" ry="26.3848"/>
<text text-anchor="middle" x="1816" y="-1635.56" font-family="Times Roman,serif" font-size="14.00">lcc_builder_dummy</text>
</a>
</g>
<!-- Core_LaxCommaCoreNotations_lcc_builder_dummy&#45;&gt;Core_LaxCommaCoreNotations_LCC_Builder -->
<g id="edge8" class="edge"><title>Core_LaxCommaCoreNotations_lcc_builder_dummy&#45;&gt;Core_LaxCommaCoreNotations_LCC_Builder</title>
<path fill="none" stroke="black" d="M1821.11,-1612.44C1837.5,-1526.71 1888.66,-1259.01 1905.54,-1170.72"/>
<polygon fill="black" stroke="black" points="1908.98,-1171.35 1907.42,-1160.87 1902.11,-1170.04 1908.98,-1171.35"/>
</g>
<!-- Core_oplax_arrow_category -->
<g id="node17" class="node"><title>Core_oplax_arrow_category</title>
<a xlink:href="Core.html#oplax_arrow_category" xlink:title="oplax_arrow_category">
<ellipse fill="#f070d1" stroke="black" cx="1560" cy="-1142.16" rx="120.208" ry="18.3848"/>
<ellipse fill="none" stroke="black" cx="1560" cy="-1142.16" rx="124.208" ry="22.3848"/>
<ellipse fill="none" stroke="black" cx="1560" cy="-1142.16" rx="128.208" ry="26.3848"/>
<text text-anchor="middle" x="1560" y="-1138.56" font-family="Times Roman,serif" font-size="14.00">oplax_arrow_category</text>
</a>
</g>
<!-- Core_oplax_comma_category -->
<g id="node29" class="node"><title>Core_oplax_comma_category</title>
<a xlink:href="Core.html#oplax_comma_category" xlink:title="oplax_comma_category">
<ellipse fill="#f070d1" stroke="black" cx="1041" cy="-646.16" rx="125.158" ry="18.3848"/>
<text text-anchor="middle" x="1041" y="-642.56" font-family="Times Roman,serif" font-size="14.00">oplax_comma_category</text>
</a>
</g>
<!-- Core_oplax_arrow_category&#45;&gt;Core_oplax_comma_category -->
<g id="edge10" class="edge"><title>Core_oplax_arrow_category&#45;&gt;Core_oplax_comma_category</title>
<path fill="none" stroke="black" d="M1532.83,-1116.19C1443.05,-1030.39 1156.59,-756.629 1067.62,-671.602"/>
<polygon fill="black" stroke="black" points="1070,-669.037 1060.36,-664.658 1065.17,-674.097 1070,-669.037"/>
</g>
<!-- Core_lax_arrow_category -->
<g id="node18" class="node"><title>Core_lax_arrow_category</title>
<a xlink:href="Core.html#lax_arrow_category" xlink:title="lax_arrow_category">
<ellipse fill="#f070d1" stroke="black" cx="1300" cy="-646.16" rx="108.187" ry="18.3848"/>
<ellipse fill="none" stroke="black" cx="1300" cy="-646.16" rx="112.187" ry="22.3848"/>
<ellipse fill="none" stroke="black" cx="1300" cy="-646.16" rx="116.187" ry="26.3848"/>
<text text-anchor="middle" x="1300" y="-642.56" font-family="Times Roman,serif" font-size="14.00">lax_arrow_category</text>
</a>
</g>
<!-- Core_lax_comma_category -->
<g id="node30" class="node"><title>Core_lax_comma_category</title>
<a xlink:href="Core.html#lax_comma_category" xlink:title="lax_comma_category">
<ellipse fill="#f070d1" stroke="black" cx="909" cy="-193.16" rx="113.844" ry="18.3848"/>
<text text-anchor="middle" x="909" y="-189.56" font-family="Times Roman,serif" font-size="14.00">lax_comma_category</text>
</a>
</g>
<!-- Core_lax_arrow_category&#45;&gt;Core_lax_comma_category -->
<g id="edge12" class="edge"><title>Core_lax_arrow_category&#45;&gt;Core_lax_comma_category</title>
<path fill="none" stroke="black" d="M1277.29,-619.847C1208.11,-539.703 1000.55,-299.227 931.567,-219.306"/>
<polygon fill="black" stroke="black" points="934.145,-216.936 924.962,-211.653 928.846,-221.51 934.145,-216.936"/>
</g>
<!-- Core_oplax_coslice_category_over -->
<g id="node19" class="node"><title>Core_oplax_coslice_category_over</title>
<a xlink:href="Core.html#oplax_coslice_category_over" xlink:title="oplax_coslice_category_over">
<ellipse fill="#f070d1" stroke="black" cx="1327" cy="-1639.16" rx="149.2" ry="18.3848"/>
<ellipse fill="none" stroke="black" cx="1327" cy="-1639.16" rx="153.2" ry="22.3848"/>
<ellipse fill="none" stroke="black" cx="1327" cy="-1639.16" rx="157.2" ry="26.3848"/>
<text text-anchor="middle" x="1327" y="-1635.56" font-family="Times Roman,serif" font-size="14.00">oplax_coslice_category_over</text>
</a>
</g>
<!-- Core_oplax_coslice_category -->
<g id="node23" class="node"><title>Core_oplax_coslice_category</title>
<a xlink:href="Core.html#oplax_coslice_category" xlink:title="oplax_coslice_category">
<ellipse fill="#f070d1" stroke="black" cx="1292" cy="-1142.16" rx="121.83" ry="18.3848"/>
<text text-anchor="middle" x="1292" y="-1138.56" font-family="Times Roman,serif" font-size="14.00">oplax_coslice_category</text>
</a>
</g>
<!-- Core_oplax_coslice_category_over&#45;&gt;Core_oplax_coslice_category -->
<g id="edge14" class="edge"><title>Core_oplax_coslice_category_over&#45;&gt;Core_oplax_coslice_category</title>
<path fill="none" stroke="black" d="M1325.12,-1612.44C1319.09,-1526.79 1300.27,-1259.55 1294.03,-1170.99"/>
<polygon fill="black" stroke="black" points="1297.51,-1170.6 1293.32,-1160.87 1290.53,-1171.09 1297.51,-1170.6"/>
</g>
<!-- Core_oplax_slice_category_over -->
<g id="node20" class="node"><title>Core_oplax_slice_category_over</title>
<a xlink:href="Core.html#oplax_slice_category_over" xlink:title="oplax_slice_category_over">
<ellipse fill="#f070d1" stroke="black" cx="1006" cy="-1639.16" rx="138.12" ry="18.3848"/>
<ellipse fill="none" stroke="black" cx="1006" cy="-1639.16" rx="142.106" ry="22.3848"/>
<ellipse fill="none" stroke="black" cx="1006" cy="-1639.16" rx="146.093" ry="26.3848"/>
<text text-anchor="middle" x="1006" y="-1635.56" font-family="Times Roman,serif" font-size="14.00">oplax_slice_category_over</text>
</a>
</g>
<!-- Core_oplax_slice_category -->
<g id="node24" class="node"><title>Core_oplax_slice_category</title>
<a xlink:href="Core.html#oplax_slice_category" xlink:title="oplax_slice_category">
<ellipse fill="#f070d1" stroke="black" cx="1041" cy="-1142.16" rx="111.222" ry="18.3848"/>
<text text-anchor="middle" x="1041" y="-1138.56" font-family="Times Roman,serif" font-size="14.00">oplax_slice_category</text>
</a>
</g>
<!-- Core_oplax_slice_category_over&#45;&gt;Core_oplax_slice_category -->
<g id="edge16" class="edge"><title>Core_oplax_slice_category_over&#45;&gt;Core_oplax_slice_category</title>
<path fill="none" stroke="black" d="M1007.88,-1612.44C1013.91,-1526.79 1032.73,-1259.55 1038.97,-1170.99"/>
<polygon fill="black" stroke="black" points="1042.47,-1171.09 1039.68,-1160.87 1035.49,-1170.6 1042.47,-1171.09"/>
</g>
<!-- Core_lax_coslice_category_over -->
<g id="node21" class="node"><title>Core_lax_coslice_category_over</title>
<a xlink:href="Core.html#lax_coslice_category_over" xlink:title="lax_coslice_category_over">
<ellipse fill="#f070d1" stroke="black" cx="767" cy="-1142.16" rx="137.179" ry="18.3848"/>
<ellipse fill="none" stroke="black" cx="767" cy="-1142.16" rx="141.179" ry="22.3848"/>
<ellipse fill="none" stroke="black" cx="767" cy="-1142.16" rx="145.179" ry="26.3848"/>
<text text-anchor="middle" x="767" y="-1138.56" font-family="Times Roman,serif" font-size="14.00">lax_coslice_category_over</text>
</a>
</g>
<!-- Core_lax_coslice_category -->
<g id="node25" class="node"><title>Core_lax_coslice_category</title>
<a xlink:href="Core.html#lax_coslice_category" xlink:title="lax_coslice_category">
<ellipse fill="#f070d1" stroke="black" cx="777" cy="-646.16" rx="109.81" ry="18.3848"/>
<text text-anchor="middle" x="777" y="-642.56" font-family="Times Roman,serif" font-size="14.00">lax_coslice_category</text>
</a>
</g>
<!-- Core_lax_coslice_category_over&#45;&gt;Core_lax_coslice_category -->
<g id="edge18" class="edge"><title>Core_lax_coslice_category_over&#45;&gt;Core_lax_coslice_category</title>
<path fill="none" stroke="black" d="M767.538,-1115.49C769.261,-1030.02 774.638,-763.319 776.42,-674.936"/>
<polygon fill="black" stroke="black" points="779.921,-674.903 776.624,-664.834 772.923,-674.761 779.921,-674.903"/>
</g>
<!-- Core_lax_slice_category_over -->
<g id="node22" class="node"><title>Core_lax_slice_category_over</title>
<a xlink:href="Core.html#lax_slice_category_over" xlink:title="lax_slice_category_over">
<ellipse fill="#f070d1" stroke="black" cx="470" cy="-1142.16" rx="126.102" ry="18.3848"/>
<ellipse fill="none" stroke="black" cx="470" cy="-1142.16" rx="130.087" ry="22.3848"/>
<ellipse fill="none" stroke="black" cx="470" cy="-1142.16" rx="134.072" ry="26.3848"/>
<text text-anchor="middle" x="470" y="-1138.56" font-family="Times Roman,serif" font-size="14.00">lax_slice_category_over</text>
</a>
</g>
<!-- Core_lax_slice_category -->
<g id="node26" class="node"><title>Core_lax_slice_category</title>
<a xlink:href="Core.html#lax_slice_category" xlink:title="lax_slice_category">
<ellipse fill="#f070d1" stroke="black" cx="515" cy="-646.16" rx="99.201" ry="18.3848"/>
<text text-anchor="middle" x="515" y="-642.56" font-family="Times Roman,serif" font-size="14.00">lax_slice_category</text>
</a>
</g>
<!-- Core_lax_slice_category_over&#45;&gt;Core_lax_slice_category -->
<g id="edge20" class="edge"><title>Core_lax_slice_category_over&#45;&gt;Core_lax_slice_category</title>
<path fill="none" stroke="black" d="M472.419,-1115.49C480.174,-1030.02 504.371,-763.319 512.389,-674.936"/>
<polygon fill="black" stroke="black" points="515.888,-675.109 513.306,-664.834 508.916,-674.477 515.888,-675.109"/>
</g>
<!-- Core_oplax_coslice_category&#45;&gt;Core_oplax_comma_category -->
<g id="edge22" class="edge"><title>Core_oplax_coslice_category&#45;&gt;Core_oplax_comma_category</title>
<path fill="none" stroke="black" d="M1282.62,-1123.62C1244.45,-1048.2 1100.69,-764.121 1055.02,-673.866"/>
<polygon fill="black" stroke="black" points="1058.07,-672.134 1050.43,-664.792 1051.82,-675.295 1058.07,-672.134"/>
</g>
<!-- Core_oplax_slice_category&#45;&gt;Core_oplax_comma_category -->
<g id="edge24" class="edge"><title>Core_oplax_slice_category&#45;&gt;Core_oplax_comma_category</title>
<path fill="none" stroke="black" d="M1041,-1123.62C1041,-1048.5 1041,-766.418 1041,-674.972"/>
<polygon fill="black" stroke="black" points="1044.5,-674.792 1041,-664.792 1037.5,-674.792 1044.5,-674.792"/>
</g>
<!-- Core_lax_coslice_category&#45;&gt;Core_lax_comma_category -->
<g id="edge26" class="edge"><title>Core_lax_coslice_category&#45;&gt;Core_lax_comma_category</title>
<path fill="none" stroke="black" d="M782.421,-627.557C802.959,-557.075 876.071,-306.165 900.776,-221.384"/>
<polygon fill="black" stroke="black" points="904.17,-222.248 903.607,-211.668 897.449,-220.289 904.17,-222.248"/>
</g>
<!-- Core_lax_slice_category&#45;&gt;Core_lax_comma_category -->
<g id="edge28" class="edge"><title>Core_lax_slice_category&#45;&gt;Core_lax_comma_category</title>
<path fill="none" stroke="black" d="M530.933,-627.841C592.377,-557.196 814.081,-302.293 886.175,-219.402"/>
<polygon fill="black" stroke="black" points="888.947,-221.549 892.868,-211.707 883.665,-216.956 888.947,-221.549"/>
</g>
<!-- Core_isstrict_oplax_comma_category -->
<g id="node27" class="node"><title>Core_isstrict_oplax_comma_category</title>
<a xlink:href="Core.html#isstrict_oplax_comma_category" xlink:title="isstrict_oplax_comma_category">
<ellipse fill="#f070d1" stroke="black" cx="186" cy="-1639.16" rx="162.158" ry="18.3848"/>
<ellipse fill="none" stroke="black" cx="186" cy="-1639.16" rx="166.146" ry="22.3848"/>
<ellipse fill="none" stroke="black" cx="186" cy="-1639.16" rx="170.134" ry="26.3848"/>
<text text-anchor="middle" x="186" y="-1635.56" font-family="Times Roman,serif" font-size="14.00">isstrict_oplax_comma_category</text>
</a>
</g>
<!-- Core_isstrict_lax_comma_category -->
<g id="node28" class="node"><title>Core_isstrict_lax_comma_category</title>
<a xlink:href="Core.html#isstrict_lax_comma_category" xlink:title="isstrict_lax_comma_category">
<ellipse fill="#facdef" stroke="black" cx="167" cy="-1142.16" rx="150.821" ry="18.3848"/>
<text text-anchor="middle" x="167" y="-1138.56" font-family="Times Roman,serif" font-size="14.00">isstrict_lax_comma_category</text>
</a>
</g>
<!-- Core_isstrict_oplax_comma_category&#45;&gt;Core_isstrict_lax_comma_category -->
<g id="edge30" class="edge"><title>Core_isstrict_oplax_comma_category&#45;&gt;Core_isstrict_lax_comma_category</title>
<path fill="none" stroke="black" d="M184.978,-1612.44C181.704,-1526.79 171.488,-1259.55 168.102,-1170.99"/>
<polygon fill="black" stroke="black" points="171.595,-1170.73 167.715,-1160.87 164.6,-1171 171.595,-1170.73"/>
</g>
<!-- Core_oplax_comma_category&#45;&gt;Core_lax_comma_category -->
<g id="edge32" class="edge"><title>Core_oplax_comma_category&#45;&gt;Core_lax_comma_category</title>
<path fill="none" stroke="black" d="M1035.58,-627.557C1015.04,-557.075 941.929,-306.165 917.224,-221.384"/>
<polygon fill="black" stroke="black" points="920.551,-220.289 914.393,-211.668 913.83,-222.248 920.551,-220.289"/>
</g>
</g>
</svg>
