<?xml version="1.0" encoding="UTF-8" standalone="no"?>
<!DOCTYPE svg PUBLIC "-//W3C//DTD SVG 1.1//EN"
 "http://www.w3.org/Graphics/SVG/1.1/DTD/svg11.dtd">
<!-- Generated by graphviz version 2.26.3 (20100126.1600)
 -->
<!-- Title: HoTT_categories_Functor_Attributes Pages: 1 -->
<svg width="1738pt" height="873pt"
 viewBox="0.00 0.00 1738.00 873.00" xmlns="http://www.w3.org/2000/svg" xmlns:xlink="http://www.w3.org/1999/xlink">
<g id="graph1" class="graph" transform="scale(1 1) rotate(0) translate(4 869)">
<title>HoTT_categories_Functor_Attributes</title>
<polygon fill="white" stroke="white" points="-4,5 -4,-869 1735,-869 1735,5 -4,5"/>
<g id="graph2" class="cluster"><title>cluster_Attributes</title>
<polygon fill="#ffffc3" stroke="black" points="8,-20.7186 8,-844.281 1722,-844.281 1722,-20.7186 8,-20.7186"/>
<text text-anchor="middle" x="51" y="-827.681" font-family="Times Roman,serif" font-size="14.00">Attributes</text>
</g>
<!-- Attributes_isfullyfaithful_isfull_isfaithful -->
<g id="node1" class="node"><title>Attributes_isfullyfaithful_isfull_isfaithful</title>
<a xlink:href="Attributes.html#isfullyfaithful_isfull_isfaithful" xlink:title="isfullyfaithful_isfull_isfaithful">
<ellipse fill="#f070d1" stroke="black" cx="1557" cy="-686.719" rx="149.2" ry="18.3848"/>
<ellipse fill="none" stroke="black" cx="1557" cy="-686.719" rx="153.2" ry="22.3848"/>
<ellipse fill="none" stroke="black" cx="1557" cy="-686.719" rx="157.2" ry="26.3848"/>
<text text-anchor="middle" x="1557" y="-683.119" font-family="Times Roman,serif" font-size="14.00">isfullyfaithful_isfull_isfaithful</text>
</a>
</g>
<!-- Attributes_isequiv_isepimorphism_ismonomorphism -->
<g id="node2" class="node"><title>Attributes_isequiv_isepimorphism_ismonomorphism</title>
<a xlink:href="Attributes.html#isequiv_isepimorphism_ismonomorphism" xlink:title="isequiv_isepimorphism_ismonomorphism">
<ellipse fill="#f070d1" stroke="black" cx="1506" cy="-473.719" rx="207.889" ry="18.3848"/>
<text text-anchor="middle" x="1506" y="-470.119" font-family="Times Roman,serif" font-size="14.00">isequiv_isepimorphism_ismonomorphism</text>
</a>
</g>
<!-- Attributes_isfullyfaithful_isfull_isfaithful&#45;&gt;Attributes_isequiv_isepimorphism_ismonomorphism -->
<g id="edge2" class="edge"><title>Attributes_isfullyfaithful_isfull_isfaithful&#45;&gt;Attributes_isequiv_isepimorphism_ismonomorphism</title>
<path fill="none" stroke="black" d="M1550.64,-660.173C1540.99,-619.872 1522.73,-543.575 1512.81,-502.171"/>
<polygon fill="black" stroke="black" points="1516.22,-501.35 1510.48,-492.44 1509.41,-502.98 1516.22,-501.35"/>
</g>
<!-- Attributes_isisomorphism_isequiv_set_cat -->
<g id="node3" class="node"><title>Attributes_isisomorphism_isequiv_set_cat</title>
<a xlink:href="Attributes.html#isisomorphism_isequiv_set_cat" xlink:title="isisomorphism_isequiv_set_cat">
<ellipse fill="#facdef" stroke="black" cx="1120" cy="-473.719" rx="159.806" ry="18.3848"/>
<text text-anchor="middle" x="1120" y="-470.119" font-family="Times Roman,serif" font-size="14.00">isisomorphism_isequiv_set_cat</text>
</a>
</g>
<!-- Attributes_isfullyfaithful_isfull_isfaithful&#45;&gt;Attributes_isisomorphism_isequiv_set_cat -->
<g id="edge4" class="edge"><title>Attributes_isfullyfaithful_isfull_isfaithful&#45;&gt;Attributes_isisomorphism_isequiv_set_cat</title>
<path fill="none" stroke="black" d="M1505.59,-661.658C1419.66,-619.779 1248.24,-536.225 1166.04,-496.16"/>
<polygon fill="black" stroke="black" points="1167.47,-492.961 1156.95,-491.726 1164.4,-499.254 1167.47,-492.961"/>
</g>
<!-- Attributes_IsFaithful -->
<g id="node10" class="node"><title>Attributes_IsFaithful</title>
<a xlink:href="Attributes.html#IsFaithful" xlink:title="IsFaithful">
<ellipse fill="#f070d1" stroke="black" cx="794" cy="-473.719" rx="55.8614" ry="18.3848"/>
<text text-anchor="middle" x="794" y="-470.119" font-family="Times Roman,serif" font-size="14.00">IsFaithful</text>
</a>
</g>
<!-- Attributes_isfullyfaithful_isfull_isfaithful&#45;&gt;Attributes_IsFaithful -->
<g id="edge6" class="edge"><title>Attributes_isfullyfaithful_isfull_isfaithful&#45;&gt;Attributes_IsFaithful</title>
<path fill="none" stroke="black" d="M1474.43,-664.152C1343.7,-628.336 1081.1,-556.042 859,-492.719 854.686,-491.489 850.214,-490.203 845.727,-488.906"/>
<polygon fill="black" stroke="black" points="846.514,-485.49 835.935,-486.065 844.564,-492.213 846.514,-485.49"/>
</g>
<!-- Attributes_IsFull -->
<g id="node12" class="node"><title>Attributes_IsFull</title>
<a xlink:href="Attributes.html#IsFull" xlink:title="IsFull">
<ellipse fill="#f070d1" stroke="black" cx="905" cy="-473.719" rx="36.7696" ry="18.3848"/>
<text text-anchor="middle" x="905" y="-470.119" font-family="Times Roman,serif" font-size="14.00">IsFull</text>
</a>
</g>
<!-- Attributes_isfullyfaithful_isfull_isfaithful&#45;&gt;Attributes_IsFull -->
<g id="edge8" class="edge"><title>Attributes_isfullyfaithful_isfull_isfaithful&#45;&gt;Attributes_IsFull</title>
<path fill="none" stroke="black" d="M1477.86,-663.642C1361.47,-629.197 1137.74,-561.043 951,-492.719 948.426,-491.777 945.784,-490.777 943.13,-489.747"/>
<polygon fill="black" stroke="black" points="944.153,-486.388 933.567,-485.942 941.565,-492.892 944.153,-486.388"/>
</g>
<!-- Attributes_isfullyfaithful_isfull_isfaithful_helper -->
<g id="node4" class="node"><title>Attributes_isfullyfaithful_isfull_isfaithful_helper</title>
<a xlink:href="Attributes.html#isfullyfaithful_isfull_isfaithful_helper" xlink:title="isfullyfaithful_isfull_isfaithful_helper">
<ellipse fill="#facdef" stroke="black" cx="1077" cy="-686.719" rx="184.783" ry="18.3848"/>
<ellipse fill="none" stroke="black" cx="1077" cy="-686.719" rx="188.773" ry="22.3848"/>
<ellipse fill="none" stroke="black" cx="1077" cy="-686.719" rx="192.763" ry="26.3848"/>
<text text-anchor="middle" x="1077" y="-683.119" font-family="Times Roman,serif" font-size="14.00">isfullyfaithful_isfull_isfaithful_helper</text>
</a>
</g>
<!-- Attributes_isfullyfaithful_isfull_isfaithful_helper&#45;&gt;Attributes_IsFaithful -->
<g id="edge10" class="edge"><title>Attributes_isfullyfaithful_isfull_isfaithful_helper&#45;&gt;Attributes_IsFaithful</title>
<path fill="none" stroke="black" d="M1042.3,-660.601C986.538,-618.633 877.879,-536.85 824.745,-496.859"/>
<polygon fill="black" stroke="black" points="826.805,-494.029 816.71,-490.812 822.596,-499.622 826.805,-494.029"/>
</g>
<!-- Attributes_isfullyfaithful_isfull_isfaithful_helper&#45;&gt;Attributes_IsFull -->
<g id="edge12" class="edge"><title>Attributes_isfullyfaithful_isfull_isfaithful_helper&#45;&gt;Attributes_IsFull</title>
<path fill="none" stroke="black" d="M1055.56,-660.173C1022.12,-618.753 957.965,-539.309 925.257,-498.804"/>
<polygon fill="black" stroke="black" points="927.97,-496.593 918.964,-491.012 922.524,-500.991 927.97,-496.593"/>
</g>
<!-- Attributes_isfaithful_isfullyfaithful -->
<g id="node5" class="node"><title>Attributes_isfaithful_isfullyfaithful</title>
<a xlink:href="Attributes.html#isfaithful_isfullyfaithful" xlink:title="isfaithful_isfullyfaithful">
<ellipse fill="#facdef" stroke="black" cx="587" cy="-686.719" rx="121.153" ry="18.3848"/>
<ellipse fill="none" stroke="black" cx="587" cy="-686.719" rx="125.137" ry="22.3848"/>
<ellipse fill="none" stroke="black" cx="587" cy="-686.719" rx="129.122" ry="26.3848"/>
<text text-anchor="middle" x="587" y="-683.119" font-family="Times Roman,serif" font-size="14.00">isfaithful_isfullyfaithful</text>
</a>
</g>
<!-- Attributes_IsFullyFaithful -->
<g id="node8" class="node"><title>Attributes_IsFullyFaithful</title>
<a xlink:href="Attributes.html#IsFullyFaithful" xlink:title="IsFullyFaithful">
<ellipse fill="#f070d1" stroke="black" cx="459" cy="-473.719" rx="77.9889" ry="18.3848"/>
<text text-anchor="middle" x="459" y="-470.119" font-family="Times Roman,serif" font-size="14.00">IsFullyFaithful</text>
</a>
</g>
<!-- Attributes_isfaithful_isfullyfaithful&#45;&gt;Attributes_IsFullyFaithful -->
<g id="edge14" class="edge"><title>Attributes_isfaithful_isfullyfaithful&#45;&gt;Attributes_IsFullyFaithful</title>
<path fill="none" stroke="black" d="M571.048,-660.173C546.562,-619.427 499.964,-541.885 475.282,-500.812"/>
<polygon fill="black" stroke="black" points="478.227,-498.919 470.077,-492.151 472.227,-502.525 478.227,-498.919"/>
</g>
<!-- Attributes_isfull_isfullyfaithful -->
<g id="node6" class="node"><title>Attributes_isfull_isfullyfaithful</title>
<a xlink:href="Attributes.html#isfull_isfullyfaithful" xlink:title="isfull_isfullyfaithful">
<ellipse fill="#facdef" stroke="black" cx="330" cy="-686.719" rx="101.823" ry="18.3848"/>
<ellipse fill="none" stroke="black" cx="330" cy="-686.719" rx="105.823" ry="22.3848"/>
<ellipse fill="none" stroke="black" cx="330" cy="-686.719" rx="109.823" ry="26.3848"/>
<text text-anchor="middle" x="330" y="-683.119" font-family="Times Roman,serif" font-size="14.00">isfull_isfullyfaithful</text>
</a>
</g>
<!-- Attributes_isfull_isfullyfaithful&#45;&gt;Attributes_IsFullyFaithful -->
<g id="edge16" class="edge"><title>Attributes_isfull_isfullyfaithful&#45;&gt;Attributes_IsFullyFaithful</title>
<path fill="none" stroke="black" d="M346.077,-660.173C370.754,-619.427 417.716,-541.885 442.591,-500.812"/>
<polygon fill="black" stroke="black" points="445.65,-502.517 447.837,-492.151 439.663,-498.891 445.65,-502.517"/>
</g>
<!-- Attributes_is_fully_faithful -->
<g id="node7" class="node"><title>Attributes_is_fully_faithful</title>
<a xlink:href="Attributes.html#is_fully_faithful" xlink:title="is_fully_faithful">
<ellipse fill="#f070d1" stroke="black" cx="109" cy="-686.719" rx="84.8528" ry="18.3848"/>
<ellipse fill="none" stroke="black" cx="109" cy="-686.719" rx="88.8528" ry="22.3848"/>
<ellipse fill="none" stroke="black" cx="109" cy="-686.719" rx="92.8528" ry="26.3848"/>
<text text-anchor="middle" x="109" y="-683.119" font-family="Times Roman,serif" font-size="14.00">is_fully_faithful</text>
</a>
</g>
<!-- Attributes_is_fully_faithful&#45;&gt;Attributes_IsFullyFaithful -->
<g id="edge18" class="edge"><title>Attributes_is_fully_faithful&#45;&gt;Attributes_IsFullyFaithful</title>
<path fill="none" stroke="black" d="M148.469,-662.699C216.426,-621.342 354.64,-537.229 421.332,-496.642"/>
<polygon fill="black" stroke="black" points="423.531,-499.401 430.253,-491.213 419.891,-493.422 423.531,-499.401"/>
</g>
<!-- Attributes_induced_hom_natural_transformation -->
<g id="node13" class="node"><title>Attributes_induced_hom_natural_transformation</title>
<a xlink:href="Attributes.html#induced_hom_natural_transformation" xlink:title="induced_hom_natural_transformation">
<ellipse fill="#f070d1" stroke="black" cx="794" cy="-282.719" rx="193.954" ry="18.3848"/>
<text text-anchor="middle" x="794" y="-279.119" font-family="Times Roman,serif" font-size="14.00">induced_hom_natural_transformation</text>
</a>
</g>
<!-- Attributes_IsFullyFaithful&#45;&gt;Attributes_induced_hom_natural_transformation -->
<g id="edge20" class="edge"><title>Attributes_IsFullyFaithful&#45;&gt;Attributes_induced_hom_natural_transformation</title>
<path fill="none" stroke="black" d="M489.024,-456.6C549.273,-422.249 684.968,-344.883 753.2,-305.981"/>
<polygon fill="black" stroke="black" points="755.015,-308.975 761.969,-300.981 751.548,-302.894 755.015,-308.975"/>
</g>
<!-- Attributes_is_faithful -->
<g id="node9" class="node"><title>Attributes_is_faithful</title>
<a xlink:href="Attributes.html#is_faithful" xlink:title="is_faithful">
<ellipse fill="#f070d1" stroke="black" cx="800" cy="-686.719" rx="58.2486" ry="18.3848"/>
<ellipse fill="none" stroke="black" cx="800" cy="-686.719" rx="62.2185" ry="22.3848"/>
<ellipse fill="none" stroke="black" cx="800" cy="-686.719" rx="66.1884" ry="26.3848"/>
<text text-anchor="middle" x="800" y="-683.119" font-family="Times Roman,serif" font-size="14.00">is_faithful</text>
</a>
</g>
<!-- Attributes_is_faithful&#45;&gt;Attributes_IsFaithful -->
<g id="edge22" class="edge"><title>Attributes_is_faithful&#45;&gt;Attributes_IsFaithful</title>
<path fill="none" stroke="black" d="M799.252,-660.173C798.122,-620.043 795.986,-544.221 794.816,-502.7"/>
<polygon fill="black" stroke="black" points="798.308,-502.337 794.527,-492.44 791.31,-502.535 798.308,-502.337"/>
</g>
<!-- Attributes_IsFaithful&#45;&gt;Attributes_induced_hom_natural_transformation -->
<g id="edge24" class="edge"><title>Attributes_IsFaithful&#45;&gt;Attributes_induced_hom_natural_transformation</title>
<path fill="none" stroke="black" d="M794,-455.057C794,-421.609 794,-351.244 794,-311.549"/>
<polygon fill="black" stroke="black" points="797.5,-311.456 794,-301.456 790.5,-311.456 797.5,-311.456"/>
</g>
<!-- Attributes_is_full -->
<g id="node11" class="node"><title>Attributes_is_full</title>
<a xlink:href="Attributes.html#is_full" xlink:title="is_full">
<ellipse fill="#f070d1" stroke="black" cx="1335" cy="-686.719" rx="39.1812" ry="18.3848"/>
<ellipse fill="none" stroke="black" cx="1335" cy="-686.719" rx="43.1391" ry="22.3848"/>
<ellipse fill="none" stroke="black" cx="1335" cy="-686.719" rx="47.0969" ry="26.3848"/>
<text text-anchor="middle" x="1335" y="-683.119" font-family="Times Roman,serif" font-size="14.00">is_full</text>
</a>
</g>
<!-- Attributes_is_full&#45;&gt;Attributes_IsFull -->
<g id="edge26" class="edge"><title>Attributes_is_full&#45;&gt;Attributes_IsFull</title>
<path fill="none" stroke="black" d="M1299.45,-669.107C1218.62,-629.071 1021.85,-531.598 940.794,-491.449"/>
<polygon fill="black" stroke="black" points="942.014,-488.148 931.499,-486.845 938.907,-494.42 942.014,-488.148"/>
</g>
<!-- Attributes_IsFull&#45;&gt;Attributes_induced_hom_natural_transformation -->
<g id="edge28" class="edge"><title>Attributes_IsFull&#45;&gt;Attributes_induced_hom_natural_transformation</title>
<path fill="none" stroke="black" d="M894.557,-455.75C875.072,-422.22 833.062,-349.934 809.986,-310.226"/>
<polygon fill="black" stroke="black" points="812.873,-308.228 804.822,-301.341 806.821,-311.745 812.873,-308.228"/>
</g>
<!-- Attributes_induced_hom_natural_transformation_subproof -->
<g id="node14" class="node"><title>Attributes_induced_hom_natural_transformation_subproof</title>
<a xlink:href="Attributes.html#induced_hom_natural_transformation_subproof" xlink:title="induced_hom_natural_transformation_subproof">
<ellipse fill="#facdef" stroke="black" cx="794" cy="-90.7186" rx="241.831" ry="18.3848"/>
<text text-anchor="middle" x="794" y="-87.1186" font-family="Times Roman,serif" font-size="14.00">induced_hom_natural_transformation_subproof</text>
</a>
</g>
<!-- Attributes_induced_hom_natural_transformation&#45;&gt;Attributes_induced_hom_natural_transformation_subproof -->
<g id="edge30" class="edge"><title>Attributes_induced_hom_natural_transformation&#45;&gt;Attributes_induced_hom_natural_transformation_subproof</title>
<path fill="none" stroke="black" d="M794,-263.959C794,-230.25 794,-159.239 794,-119.393"/>
<polygon fill="black" stroke="black" points="797.5,-119.271 794,-109.271 790.5,-119.271 797.5,-119.271"/>
</g>
</g>
</svg>
