<?xml version="1.0" encoding="UTF-8" standalone="no"?>
<!DOCTYPE svg PUBLIC "-//W3C//DTD SVG 1.1//EN"
 "http://www.w3.org/Graphics/SVG/1.1/DTD/svg11.dtd">
<!-- Generated by graphviz version 2.39.20141222.0545 (20141222.0545)
 -->
<!-- Title: HoTT_Categories_Grothendieck_PseudofunctorToCat Pages: 1 -->
<svg width="1000pt" height="504pt"
 viewBox="0.00 0.00 1000.00 504.00" xmlns="http://www.w3.org/2000/svg" xmlns:xlink="http://www.w3.org/1999/xlink">
<g id="graph0" class="graph" transform="scale(1 1) rotate(0) translate(4 500)">
<title>HoTT_Categories_Grothendieck_PseudofunctorToCat</title>
<polygon fill="white" stroke="transparent" points="-4,4 -4,-500 996,-500 996,4 -4,4"/>
<g id="clust1" class="cluster"><title>cluster_PseudofunctorToCat</title>
<polygon fill="#ffffc3" stroke="black" points="8,-12.2848 8,-483.715 984,-483.715 984,-12.2848 8,-12.2848"/>
<text text-anchor="middle" x="72" y="-468.515" font-family="Times,serif" font-size="14.00">PseudofunctorToCat</text>
</g>
<!-- PseudofunctorToCat_pr1 -->
<g id="node1" class="node"><title>PseudofunctorToCat_pr1</title>
<g id="a_node1"><a xlink:href="PseudofunctorToCat.html#pr1" xlink:title="pr1">
<ellipse fill="#f070d1" stroke="black" cx="702" cy="-396.285" rx="27" ry="18"/>
<ellipse fill="none" stroke="black" cx="702" cy="-396.285" rx="31" ry="22"/>
<ellipse fill="none" stroke="black" cx="702" cy="-396.285" rx="35" ry="26"/>
<text text-anchor="middle" x="702" y="-392.585" font-family="Times,serif" font-size="14.00">pr1</text>
</a>
</g>
</g>
<!-- PseudofunctorToCat_category -->
<g id="node2" class="node"><title>PseudofunctorToCat_category</title>
<g id="a_node2"><a xlink:href="PseudofunctorToCat.html#category" xlink:title="category">
<ellipse fill="#f070d1" stroke="black" cx="702" cy="-273.285" rx="40.8928" ry="18"/>
<text text-anchor="middle" x="702" y="-269.585" font-family="Times,serif" font-size="14.00">category</text>
</a>
</g>
</g>
<!-- PseudofunctorToCat_pr1&#45;&gt;PseudofunctorToCat_category -->
<g id="edge1" class="edge"><title>PseudofunctorToCat_pr1&#45;&gt;PseudofunctorToCat_category</title>
<path fill="none" stroke="black" d="M702,-370.2C702,-350.023 702,-322.13 702,-301.447"/>
<polygon fill="black" stroke="black" points="705.5,-301.368 702,-291.368 698.5,-301.368 705.5,-301.368"/>
</g>
<!-- PseudofunctorToCat_category_subproof1 -->
<g id="node3" class="node"><title>PseudofunctorToCat_category_subproof1</title>
<g id="a_node3"><a xlink:href="PseudofunctorToCat.html#category_subproof1" xlink:title="category_subproof1">
<ellipse fill="#facdef" stroke="black" cx="346" cy="-162.285" rx="81.4863" ry="18"/>
<text text-anchor="middle" x="346" y="-158.585" font-family="Times,serif" font-size="14.00">category_subproof1</text>
</a>
</g>
</g>
<!-- PseudofunctorToCat_category&#45;&gt;PseudofunctorToCat_category_subproof1 -->
<g id="edge2" class="edge"><title>PseudofunctorToCat_category&#45;&gt;PseudofunctorToCat_category_subproof1</title>
<path fill="none" stroke="black" d="M668.508,-262.842C607.549,-243.835 477.855,-203.397 402.831,-180.005"/>
<polygon fill="black" stroke="black" points="403.656,-176.596 393.067,-176.96 401.572,-183.278 403.656,-176.596"/>
</g>
<!-- PseudofunctorToCat_category_subproof0 -->
<g id="node4" class="node"><title>PseudofunctorToCat_category_subproof0</title>
<g id="a_node4"><a xlink:href="PseudofunctorToCat.html#category_subproof0" xlink:title="category_subproof0">
<ellipse fill="#facdef" stroke="black" cx="526" cy="-162.285" rx="81.4863" ry="18"/>
<text text-anchor="middle" x="526" y="-158.585" font-family="Times,serif" font-size="14.00">category_subproof0</text>
</a>
</g>
</g>
<!-- PseudofunctorToCat_category&#45;&gt;PseudofunctorToCat_category_subproof0 -->
<g id="edge3" class="edge"><title>PseudofunctorToCat_category&#45;&gt;PseudofunctorToCat_category_subproof0</title>
<path fill="none" stroke="black" d="M678.264,-258.315C648.376,-239.465 596.742,-206.901 561.989,-184.982"/>
<polygon fill="black" stroke="black" points="563.429,-181.753 553.104,-179.379 559.695,-187.674 563.429,-181.753"/>
</g>
<!-- PseudofunctorToCat_category_subproof -->
<g id="node5" class="node"><title>PseudofunctorToCat_category_subproof</title>
<g id="a_node5"><a xlink:href="PseudofunctorToCat.html#category_subproof" xlink:title="category_subproof">
<ellipse fill="#facdef" stroke="black" cx="702" cy="-162.285" rx="76.8869" ry="18"/>
<text text-anchor="middle" x="702" y="-158.585" font-family="Times,serif" font-size="14.00">category_subproof</text>
</a>
</g>
</g>
<!-- PseudofunctorToCat_category&#45;&gt;PseudofunctorToCat_category_subproof -->
<g id="edge4" class="edge"><title>PseudofunctorToCat_category&#45;&gt;PseudofunctorToCat_category_subproof</title>
<path fill="none" stroke="black" d="M702,-254.955C702,-237.522 702,-211.033 702,-190.834"/>
<polygon fill="black" stroke="black" points="705.5,-190.641 702,-180.641 698.5,-190.641 705.5,-190.641"/>
</g>
<!-- PseudofunctorToCat_identity -->
<g id="node9" class="node"><title>PseudofunctorToCat_identity</title>
<g id="a_node9"><a xlink:href="PseudofunctorToCat.html#identity" xlink:title="identity">
<ellipse fill="#f070d1" stroke="black" cx="834" cy="-162.285" rx="37.8943" ry="18"/>
<text text-anchor="middle" x="834" y="-158.585" font-family="Times,serif" font-size="14.00">identity</text>
</a>
</g>
</g>
<!-- PseudofunctorToCat_category&#45;&gt;PseudofunctorToCat_identity -->
<g id="edge5" class="edge"><title>PseudofunctorToCat_category&#45;&gt;PseudofunctorToCat_identity</title>
<path fill="none" stroke="black" d="M721.194,-257.144C743.905,-238.046 781.851,-206.137 807.39,-184.662"/>
<polygon fill="black" stroke="black" points="809.809,-187.2 815.21,-178.085 805.304,-181.843 809.809,-187.2"/>
</g>
<!-- PseudofunctorToCat_compose -->
<g id="node10" class="node"><title>PseudofunctorToCat_compose</title>
<g id="a_node10"><a xlink:href="PseudofunctorToCat.html#compose" xlink:title="compose">
<ellipse fill="#f070d1" stroke="black" cx="932" cy="-162.285" rx="42.4939" ry="18"/>
<text text-anchor="middle" x="932" y="-158.585" font-family="Times,serif" font-size="14.00">compose</text>
</a>
</g>
</g>
<!-- PseudofunctorToCat_category&#45;&gt;PseudofunctorToCat_compose -->
<g id="edge6" class="edge"><title>PseudofunctorToCat_category&#45;&gt;PseudofunctorToCat_compose</title>
<path fill="none" stroke="black" d="M729.743,-259.896C770.989,-239.99 848.564,-202.552 894.727,-180.273"/>
<polygon fill="black" stroke="black" points="896.314,-183.394 903.798,-175.895 893.271,-177.09 896.314,-183.394"/>
</g>
<!-- PseudofunctorToCat_pseudofunctor_to_cat_right_identity_helper -->
<g id="node6" class="node"><title>PseudofunctorToCat_pseudofunctor_to_cat_right_identity_helper</title>
<g id="a_node6"><a xlink:href="PseudofunctorToCat.html#pseudofunctor_to_cat_right_identity_helper" xlink:title="pseudofunctor_to_cat_right_identity_helper">
<ellipse fill="#facdef" stroke="black" cx="181" cy="-52.2848" rx="165.171" ry="18"/>
<text text-anchor="middle" x="181" y="-48.5848" font-family="Times,serif" font-size="14.00">pseudofunctor_to_cat_right_identity_helper</text>
</a>
</g>
</g>
<!-- PseudofunctorToCat_category_subproof1&#45;&gt;PseudofunctorToCat_pseudofunctor_to_cat_right_identity_helper -->
<g id="edge7" class="edge"><title>PseudofunctorToCat_category_subproof1&#45;&gt;PseudofunctorToCat_pseudofunctor_to_cat_right_identity_helper</title>
<path fill="none" stroke="black" d="M320.219,-145.097C292.216,-126.429 247.316,-96.4955 216.107,-75.6898"/>
<polygon fill="black" stroke="black" points="217.955,-72.7154 207.693,-70.0805 214.073,-78.5397 217.955,-72.7154"/>
</g>
<!-- PseudofunctorToCat_pseudofunctor_to_cat_left_identity_helper -->
<g id="node7" class="node"><title>PseudofunctorToCat_pseudofunctor_to_cat_left_identity_helper</title>
<g id="a_node7"><a xlink:href="PseudofunctorToCat.html#pseudofunctor_to_cat_left_identity_helper" xlink:title="pseudofunctor_to_cat_left_identity_helper">
<ellipse fill="#facdef" stroke="black" cx="525" cy="-52.2848" rx="160.572" ry="18"/>
<text text-anchor="middle" x="525" y="-48.5848" font-family="Times,serif" font-size="14.00">pseudofunctor_to_cat_left_identity_helper</text>
</a>
</g>
</g>
<!-- PseudofunctorToCat_category_subproof0&#45;&gt;PseudofunctorToCat_pseudofunctor_to_cat_left_identity_helper -->
<g id="edge8" class="edge"><title>PseudofunctorToCat_category_subproof0&#45;&gt;PseudofunctorToCat_pseudofunctor_to_cat_left_identity_helper</title>
<path fill="none" stroke="black" d="M525.835,-144.121C525.678,-126.844 525.439,-100.594 525.257,-80.5765"/>
<polygon fill="black" stroke="black" points="528.756,-80.4438 525.165,-70.4761 521.757,-80.5075 528.756,-80.4438"/>
</g>
<!-- PseudofunctorToCat_pseudofunctor_to_cat_assoc_helper -->
<g id="node8" class="node"><title>PseudofunctorToCat_pseudofunctor_to_cat_assoc_helper</title>
<g id="a_node8"><a xlink:href="PseudofunctorToCat.html#pseudofunctor_to_cat_assoc_helper" xlink:title="pseudofunctor_to_cat_assoc_helper">
<ellipse fill="#facdef" stroke="black" cx="840" cy="-52.2848" rx="136.476" ry="18"/>
<text text-anchor="middle" x="840" y="-48.5848" font-family="Times,serif" font-size="14.00">pseudofunctor_to_cat_assoc_helper</text>
</a>
</g>
</g>
<!-- PseudofunctorToCat_category_subproof&#45;&gt;PseudofunctorToCat_pseudofunctor_to_cat_assoc_helper -->
<g id="edge9" class="edge"><title>PseudofunctorToCat_category_subproof&#45;&gt;PseudofunctorToCat_pseudofunctor_to_cat_assoc_helper</title>
<path fill="none" stroke="black" d="M723.867,-144.855C746.909,-126.488 783.385,-97.413 809.304,-76.7525"/>
<polygon fill="black" stroke="black" points="811.68,-79.3344 817.318,-70.3644 807.317,-73.8606 811.68,-79.3344"/>
</g>
<!-- PseudofunctorToCat_Pair_rec -->
<g id="node11" class="node"><title>PseudofunctorToCat_Pair_rec</title>
<g id="a_node11"><a xlink:href="PseudofunctorToCat.html#Pair_rec" xlink:title="Pair_rec">
<ellipse fill="#f070d1" stroke="black" cx="443" cy="-396.285" rx="40.1273" ry="18"/>
<ellipse fill="none" stroke="black" cx="443" cy="-396.285" rx="44.1105" ry="22"/>
<ellipse fill="none" stroke="black" cx="443" cy="-396.285" rx="48.0937" ry="26"/>
<text text-anchor="middle" x="443" y="-392.585" font-family="Times,serif" font-size="14.00">Pair_rec</text>
</a>
</g>
</g>
<!-- PseudofunctorToCat_Pair_rect -->
<g id="node13" class="node"><title>PseudofunctorToCat_Pair_rect</title>
<g id="a_node13"><a xlink:href="PseudofunctorToCat.html#Pair_rect" xlink:title="Pair_rect">
<ellipse fill="#f070d1" stroke="black" cx="328" cy="-273.285" rx="42.4939" ry="18"/>
<text text-anchor="middle" x="328" y="-269.585" font-family="Times,serif" font-size="14.00">Pair_rect</text>
</a>
</g>
</g>
<!-- PseudofunctorToCat_Pair_rec&#45;&gt;PseudofunctorToCat_Pair_rect -->
<g id="edge10" class="edge"><title>PseudofunctorToCat_Pair_rec&#45;&gt;PseudofunctorToCat_Pair_rect</title>
<path fill="none" stroke="black" d="M421.099,-372.86C401.017,-351.381 371.384,-319.686 350.971,-297.854"/>
<polygon fill="black" stroke="black" points="353.289,-295.208 343.902,-290.294 348.175,-299.989 353.289,-295.208"/>
</g>
<!-- PseudofunctorToCat_Pair_ind -->
<g id="node12" class="node"><title>PseudofunctorToCat_Pair_ind</title>
<g id="a_node12"><a xlink:href="PseudofunctorToCat.html#Pair_ind" xlink:title="Pair_ind">
<ellipse fill="#7fffd4" stroke="black" cx="328" cy="-396.285" rx="40.1273" ry="18"/>
<ellipse fill="none" stroke="black" cx="328" cy="-396.285" rx="44.1105" ry="22"/>
<ellipse fill="none" stroke="black" cx="328" cy="-396.285" rx="48.0937" ry="26"/>
<text text-anchor="middle" x="328" y="-392.585" font-family="Times,serif" font-size="14.00">Pair_ind</text>
</a>
</g>
</g>
<!-- PseudofunctorToCat_Pair_ind&#45;&gt;PseudofunctorToCat_Pair_rect -->
<g id="edge11" class="edge"><title>PseudofunctorToCat_Pair_ind&#45;&gt;PseudofunctorToCat_Pair_rect</title>
<path fill="none" stroke="black" d="M328,-370.2C328,-350.023 328,-322.13 328,-301.447"/>
<polygon fill="black" stroke="black" points="331.5,-301.368 328,-291.368 324.5,-301.368 331.5,-301.368"/>
</g>
<!-- PseudofunctorToCat_Build_Pair -->
<g id="node16" class="node"><title>PseudofunctorToCat_Build_Pair</title>
<g id="a_node16"><a xlink:href="PseudofunctorToCat.html#Build_Pair" xlink:title="Build_Pair">
<ellipse fill="#7faaff" stroke="black" cx="198" cy="-162.285" rx="48.9926" ry="18"/>
<text text-anchor="middle" x="198" y="-158.585" font-family="Times,serif" font-size="14.00">Build_Pair</text>
</a>
</g>
</g>
<!-- PseudofunctorToCat_Pair_rect&#45;&gt;PseudofunctorToCat_Build_Pair -->
<g id="edge12" class="edge"><title>PseudofunctorToCat_Pair_rect&#45;&gt;PseudofunctorToCat_Build_Pair</title>
<path fill="none" stroke="black" d="M309.097,-257.144C286.984,-238.263 250.206,-206.861 225.069,-185.398"/>
<polygon fill="black" stroke="black" points="227.228,-182.639 217.35,-178.807 222.683,-187.962 227.228,-182.639"/>
</g>
<!-- PseudofunctorToCat_x -->
<g id="node14" class="node"><title>PseudofunctorToCat_x</title>
<g id="a_node14"><a xlink:href="PseudofunctorToCat.html#x" xlink:title="x">
<ellipse fill="#f070d1" stroke="black" cx="227" cy="-396.285" rx="27" ry="18"/>
<ellipse fill="none" stroke="black" cx="227" cy="-396.285" rx="31" ry="22"/>
<ellipse fill="none" stroke="black" cx="227" cy="-396.285" rx="35" ry="26"/>
<text text-anchor="middle" x="227" y="-392.585" font-family="Times,serif" font-size="14.00">x</text>
</a>
</g>
</g>
<!-- PseudofunctorToCat_c -->
<g id="node15" class="node"><title>PseudofunctorToCat_c</title>
<g id="a_node15"><a xlink:href="PseudofunctorToCat.html#c" xlink:title="c">
<ellipse fill="#f070d1" stroke="black" cx="139" cy="-396.285" rx="27" ry="18"/>
<ellipse fill="none" stroke="black" cx="139" cy="-396.285" rx="31" ry="22"/>
<ellipse fill="none" stroke="black" cx="139" cy="-396.285" rx="35" ry="26"/>
<text text-anchor="middle" x="139" y="-392.585" font-family="Times,serif" font-size="14.00">c</text>
</a>
</g>
</g>
<!-- PseudofunctorToCat_Pair -->
<g id="node17" class="node"><title>PseudofunctorToCat_Pair</title>
<g id="a_node17"><a xlink:href="PseudofunctorToCat.html#Pair" xlink:title="Pair">
<ellipse fill="#e2cdfa" stroke="black" cx="51" cy="-396.285" rx="27" ry="18"/>
<ellipse fill="none" stroke="black" cx="51" cy="-396.285" rx="31" ry="22"/>
<ellipse fill="none" stroke="black" cx="51" cy="-396.285" rx="35" ry="26"/>
<text text-anchor="middle" x="51" y="-392.585" font-family="Times,serif" font-size="14.00">Pair</text>
</a>
</g>
</g>
</g>
</svg>
