<?xml version="1.0" encoding="UTF-8" standalone="no"?>
<!DOCTYPE svg PUBLIC "-//W3C//DTD SVG 1.1//EN"
 "http://www.w3.org/Graphics/SVG/1.1/DTD/svg11.dtd">
<!-- Generated by graphviz version 2.39.20161220.0128 (20161220.0128)
 -->
<!-- Title: HoTT_Categories_Cat_Core Pages: 1 -->
<svg width="814pt" height="411pt"
 viewBox="0.00 0.00 814.00 411.00" xmlns="http://www.w3.org/2000/svg" xmlns:xlink="http://www.w3.org/1999/xlink">
<g id="graph0" class="graph" transform="scale(1 1) rotate(0) translate(4 407)">
<title>HoTT_Categories_Cat_Core</title>
<polygon fill="#ffffff" stroke="transparent" points="-4,4 -4,-407 810,-407 810,4 -4,4"/>
<g id="clust1" class="cluster">
<title>cluster_Core</title>
<polygon fill="#ffffc3" stroke="#000000" points="8,-18.0112 8,-384.9888 798,-384.9888 798,-18.0112 8,-18.0112"/>
<text text-anchor="middle" x="29.5" y="-369.7888" font-family="Times,serif" font-size="14.00" fill="#000000">Core</text>
</g>
<!-- Core_is_initial_object__is_initial_category -->
<g id="node1" class="node">
<title>Core_is_initial_object__is_initial_category</title>
<g id="a_node1"><a xlink:href="Core.html#is_initial_object__is_initial_category" xlink:title="is_initial_object__is_initial_category">
<ellipse fill="#f070d1" stroke="#000000" cx="640" cy="-257.0112" rx="141.8651" ry="18"/>
<ellipse fill="none" stroke="#000000" cx="640" cy="-257.0112" rx="145.8701" ry="22"/>
<ellipse fill="none" stroke="#000000" cx="640" cy="-257.0112" rx="149.8751" ry="26"/>
<text text-anchor="middle" x="640" y="-253.3112" font-family="Times,serif" font-size="14.00" fill="#000000">is_initial_object__is_initial_category</text>
</a>
</g>
</g>
<!-- Core_sub_pre_cat -->
<g id="node4" class="node">
<title>Core_sub_pre_cat</title>
<g id="a_node4"><a xlink:href="Core.html#sub_pre_cat" xlink:title="sub_pre_cat">
<ellipse fill="#f070d1" stroke="#000000" cx="304" cy="-77.0112" rx="53.0913" ry="18"/>
<text text-anchor="middle" x="304" y="-73.3112" font-family="Times,serif" font-size="14.00" fill="#000000">sub_pre_cat</text>
</a>
</g>
</g>
<!-- Core_is_initial_object__is_initial_category&#45;&gt;Core_sub_pre_cat -->
<g id="edge1" class="edge">
<title>Core_is_initial_object__is_initial_category&#45;&gt;Core_sub_pre_cat</title>
<path fill="none" stroke="#000000" d="M593.6334,-232.1719C526.5088,-196.2123 403.5473,-130.3401 341.6728,-97.193"/>
<polygon fill="#000000" stroke="#000000" points="343.1102,-93.9925 332.6426,-92.3554 339.8047,-100.1629 343.1102,-93.9925"/>
</g>
<!-- Core_is_terminal_object__is_terminal_category -->
<g id="node2" class="node">
<title>Core_is_terminal_object__is_terminal_category</title>
<g id="a_node2"><a xlink:href="Core.html#is_terminal_object__is_terminal_category" xlink:title="is_terminal_object__is_terminal_category">
<ellipse fill="#f070d1" stroke="#000000" cx="304" cy="-257.0112" rx="159.7771" ry="18"/>
<ellipse fill="none" stroke="#000000" cx="304" cy="-257.0112" rx="163.7744" ry="22"/>
<ellipse fill="none" stroke="#000000" cx="304" cy="-257.0112" rx="167.7717" ry="26"/>
<text text-anchor="middle" x="304" y="-253.3112" font-family="Times,serif" font-size="14.00" fill="#000000">is_terminal_object__is_terminal_category</text>
</a>
</g>
</g>
<!-- Core_is_terminal_object__is_terminal_category&#45;&gt;Core_sub_pre_cat -->
<g id="edge2" class="edge">
<title>Core_is_terminal_object__is_terminal_category&#45;&gt;Core_sub_pre_cat</title>
<path fill="none" stroke="#000000" d="M304,-230.8376C304,-197.4041 304,-139.7594 304,-105.3276"/>
<polygon fill="#000000" stroke="#000000" points="307.5001,-105.0242 304,-95.0243 300.5001,-105.0243 307.5001,-105.0242"/>
</g>
<!-- Core_strict_cat -->
<g id="node3" class="node">
<title>Core_strict_cat</title>
<g id="a_node3"><a xlink:href="Core.html#strict_cat" xlink:title="strict_cat">
<ellipse fill="#f070d1" stroke="#000000" cx="67" cy="-257.0112" rx="42.8089" ry="18"/>
<ellipse fill="none" stroke="#000000" cx="67" cy="-257.0112" rx="46.8007" ry="22"/>
<ellipse fill="none" stroke="#000000" cx="67" cy="-257.0112" rx="50.7926" ry="26"/>
<text text-anchor="middle" x="67" y="-253.3112" font-family="Times,serif" font-size="14.00" fill="#000000">strict_cat</text>
</a>
</g>
</g>
<!-- Core_strict_cat&#45;&gt;Core_sub_pre_cat -->
<g id="edge3" class="edge">
<title>Core_strict_cat&#45;&gt;Core_sub_pre_cat</title>
<path fill="none" stroke="#000000" d="M95.5877,-235.299C140.7891,-200.9688 228.3323,-134.4803 274.2486,-99.6072"/>
<polygon fill="#000000" stroke="#000000" points="276.4715,-102.314 282.3181,-93.4784 272.2377,-96.7395 276.4715,-102.314"/>
</g>
</g>
</svg>
