<?xml version="1.0" encoding="UTF-8" standalone="no"?>
<!DOCTYPE svg PUBLIC "-//W3C//DTD SVG 1.1//EN"
 "http://www.w3.org/Graphics/SVG/1.1/DTD/svg11.dtd">
<!-- Generated by graphviz version 2.39.20141222.0545 (20141222.0545)
 -->
<!-- Title: HoTT_Basics_Pointed Pages: 1 -->
<svg width="2940pt" height="1474pt"
 viewBox="0.00 0.00 2940.00 1474.00" xmlns="http://www.w3.org/2000/svg" xmlns:xlink="http://www.w3.org/1999/xlink">
<g id="graph0" class="graph" transform="scale(1 1) rotate(0) translate(4 1470)">
<title>HoTT_Basics_Pointed</title>
<polygon fill="white" stroke="transparent" points="-4,4 -4,-1470 2936,-1470 2936,4 -4,4"/>
<g id="clust1" class="cluster"><title>cluster_Pointed</title>
<polygon fill="#ffffc3" stroke="black" points="8,-33.0366 8,-1432.96 2924,-1432.96 2924,-33.0366 8,-33.0366"/>
<text text-anchor="middle" x="37" y="-1417.76" font-family="Times,serif" font-size="14.00">Pointed</text>
</g>
<!-- Pointed_pequiv_inverse -->
<g id="node1" class="node"><title>Pointed_pequiv_inverse</title>
<g id="a_node1"><a xlink:href="Pointed.html#pequiv_inverse" xlink:title="pequiv_inverse">
<ellipse fill="#f070d1" stroke="black" cx="2587" cy="-471.037" rx="64.2061" ry="18"/>
<ellipse fill="none" stroke="black" cx="2587" cy="-471.037" rx="68.1975" ry="22"/>
<ellipse fill="none" stroke="black" cx="2587" cy="-471.037" rx="72.1889" ry="26"/>
<text text-anchor="middle" x="2587" y="-467.337" font-family="Times,serif" font-size="14.00">pequiv_inverse</text>
</a>
</g>
</g>
<!-- Pointed_Build_pEquiv -->
<g id="node8" class="node"><title>Pointed_Build_pEquiv</title>
<g id="a_node8"><a xlink:href="Pointed.html#Build_pEquiv" xlink:title="Build_pEquiv">
<ellipse fill="#7faaff" stroke="black" cx="2659" cy="-140.037" rx="59.5901" ry="18"/>
<text text-anchor="middle" x="2659" y="-136.337" font-family="Times,serif" font-size="14.00">Build_pEquiv</text>
</a>
</g>
</g>
<!-- Pointed_pequiv_inverse&#45;&gt;Pointed_Build_pEquiv -->
<g id="edge1" class="edge"><title>Pointed_pequiv_inverse&#45;&gt;Pointed_Build_pEquiv</title>
<path fill="none" stroke="black" d="M2592.65,-445.064C2605.94,-383.979 2639.08,-231.602 2652.85,-168.302"/>
<polygon fill="black" stroke="black" points="2656.33,-168.76 2655.04,-158.245 2649.49,-167.272 2656.33,-168.76"/>
</g>
<!-- Pointed_Build_pMap -->
<g id="node36" class="node"><title>Pointed_Build_pMap</title>
<g id="a_node36"><a xlink:href="Pointed.html#Build_pMap" xlink:title="Build_pMap">
<ellipse fill="#7faaff" stroke="black" cx="2095" cy="-140.037" rx="55.7903" ry="18"/>
<text text-anchor="middle" x="2095" y="-136.337" font-family="Times,serif" font-size="14.00">Build_pMap</text>
</a>
</g>
</g>
<!-- Pointed_pequiv_inverse&#45;&gt;Pointed_Build_pMap -->
<g id="edge2" class="edge"><title>Pointed_pequiv_inverse&#45;&gt;Pointed_Build_pMap</title>
<path fill="none" stroke="black" d="M2552.79,-448.024C2462.11,-387.014 2216.41,-221.72 2127.6,-161.965"/>
<polygon fill="black" stroke="black" points="2129.51,-159.033 2119.26,-156.355 2125.6,-164.841 2129.51,-159.033"/>
</g>
<!-- Pointed_pointed_equiv_equiv -->
<g id="node2" class="node"><title>Pointed_pointed_equiv_equiv</title>
<g id="a_node2"><a xlink:href="Pointed.html#pointed_equiv_equiv" xlink:title="pointed_equiv_equiv">
<ellipse fill="#f070d1" stroke="black" cx="2809" cy="-1198.04" rx="85.2729" ry="18"/>
<ellipse fill="none" stroke="black" cx="2809" cy="-1198.04" rx="89.279" ry="22"/>
<ellipse fill="none" stroke="black" cx="2809" cy="-1198.04" rx="93.2851" ry="26"/>
<text text-anchor="middle" x="2809" y="-1194.34" font-family="Times,serif" font-size="14.00">pointed_equiv_equiv</text>
</a>
</g>
</g>
<!-- Pointed_pEquiv_rec -->
<g id="node3" class="node"><title>Pointed_pEquiv_rec</title>
<g id="a_node3"><a xlink:href="Pointed.html#pEquiv_rec" xlink:title="pEquiv_rec">
<ellipse fill="#f070d1" stroke="black" cx="2857" cy="-834.037" rx="51.2121" ry="18"/>
<ellipse fill="none" stroke="black" cx="2857" cy="-834.037" rx="55.2017" ry="22"/>
<ellipse fill="none" stroke="black" cx="2857" cy="-834.037" rx="59.1913" ry="26"/>
<text text-anchor="middle" x="2857" y="-830.337" font-family="Times,serif" font-size="14.00">pEquiv_rec</text>
</a>
</g>
</g>
<!-- Pointed_pEquiv_rect -->
<g id="node5" class="node"><title>Pointed_pEquiv_rect</title>
<g id="a_node5"><a xlink:href="Pointed.html#pEquiv_rect" xlink:title="pEquiv_rect">
<ellipse fill="#f070d1" stroke="black" cx="2731" cy="-471.037" rx="53.8905" ry="18"/>
<text text-anchor="middle" x="2731" y="-467.337" font-family="Times,serif" font-size="14.00">pEquiv_rect</text>
</a>
</g>
</g>
<!-- Pointed_pEquiv_rec&#45;&gt;Pointed_pEquiv_rect -->
<g id="edge3" class="edge"><title>Pointed_pEquiv_rec&#45;&gt;Pointed_pEquiv_rect</title>
<path fill="none" stroke="black" d="M2848.04,-808.222C2825.1,-742.128 2764.38,-567.213 2740.68,-498.915"/>
<polygon fill="black" stroke="black" points="2743.91,-497.568 2737.33,-489.269 2737.3,-499.863 2743.91,-497.568"/>
</g>
<!-- Pointed_pEquiv_ind -->
<g id="node4" class="node"><title>Pointed_pEquiv_ind</title>
<g id="a_node4"><a xlink:href="Pointed.html#pEquiv_ind" xlink:title="pEquiv_ind">
<ellipse fill="#7fffd4" stroke="black" cx="2720" cy="-834.037" rx="51.9914" ry="18"/>
<ellipse fill="none" stroke="black" cx="2720" cy="-834.037" rx="55.9911" ry="22"/>
<ellipse fill="none" stroke="black" cx="2720" cy="-834.037" rx="59.9908" ry="26"/>
<text text-anchor="middle" x="2720" y="-830.337" font-family="Times,serif" font-size="14.00">pEquiv_ind</text>
</a>
</g>
</g>
<!-- Pointed_pEquiv_ind&#45;&gt;Pointed_pEquiv_rect -->
<g id="edge4" class="edge"><title>Pointed_pEquiv_ind&#45;&gt;Pointed_pEquiv_rect</title>
<path fill="none" stroke="black" d="M2720.79,-807.931C2722.8,-741.732 2728.07,-567.726 2730.14,-499.275"/>
<polygon fill="black" stroke="black" points="2733.64,-499.33 2730.45,-489.228 2726.65,-499.118 2733.64,-499.33"/>
</g>
<!-- Pointed_pEquiv_rect&#45;&gt;Pointed_Build_pEquiv -->
<g id="edge5" class="edge"><title>Pointed_pEquiv_rect&#45;&gt;Pointed_Build_pEquiv</title>
<path fill="none" stroke="black" d="M2727.03,-452.769C2715.1,-397.95 2679.56,-234.567 2665.16,-168.365"/>
<polygon fill="black" stroke="black" points="2668.51,-167.275 2662.96,-158.248 2661.67,-168.763 2668.51,-167.275"/>
</g>
<!-- Pointed_pointed_isequiv -->
<g id="node6" class="node"><title>Pointed_pointed_isequiv</title>
<g id="a_node6"><a xlink:href="Pointed.html#pointed_isequiv" xlink:title="pointed_isequiv">
<ellipse fill="#f070d1" stroke="black" cx="2597" cy="-1198.04" rx="66.8941" ry="18"/>
<ellipse fill="none" stroke="black" cx="2597" cy="-1198.04" rx="70.8911" ry="22"/>
<ellipse fill="none" stroke="black" cx="2597" cy="-1198.04" rx="74.8882" ry="26"/>
<text text-anchor="middle" x="2597" y="-1194.34" font-family="Times,serif" font-size="14.00">pointed_isequiv</text>
</a>
</g>
</g>
<!-- Pointed_pointed_equiv_fun -->
<g id="node7" class="node"><title>Pointed_pointed_equiv_fun</title>
<g id="a_node7"><a xlink:href="Pointed.html#pointed_equiv_fun" xlink:title="pointed_equiv_fun">
<ellipse fill="#f070d1" stroke="black" cx="2366" cy="-1198.04" rx="77.2012" ry="18"/>
<ellipse fill="none" stroke="black" cx="2366" cy="-1198.04" rx="81.1939" ry="22"/>
<ellipse fill="none" stroke="black" cx="2366" cy="-1198.04" rx="85.1866" ry="26"/>
<text text-anchor="middle" x="2366" y="-1194.34" font-family="Times,serif" font-size="14.00">pointed_equiv_fun</text>
</a>
</g>
</g>
<!-- Pointed_pEquiv -->
<g id="node9" class="node"><title>Pointed_pEquiv</title>
<g id="a_node9"><a xlink:href="Pointed.html#pEquiv" xlink:title="pEquiv">
<ellipse fill="#e2cdfa" stroke="black" cx="2112" cy="-1198.04" rx="36.3123" ry="18"/>
<ellipse fill="none" stroke="black" cx="2112" cy="-1198.04" rx="40.3031" ry="22"/>
<ellipse fill="none" stroke="black" cx="2112" cy="-1198.04" rx="44.2938" ry="26"/>
<text text-anchor="middle" x="2112" y="-1194.34" font-family="Times,serif" font-size="14.00">pEquiv</text>
</a>
</g>
</g>
<!-- Pointed_loops_functor_idmap -->
<g id="node10" class="node"><title>Pointed_loops_functor_idmap</title>
<g id="a_node10"><a xlink:href="Pointed.html#loops_functor_idmap" xlink:title="loops_functor_idmap">
<ellipse fill="#facdef" stroke="black" cx="755" cy="-834.037" rx="86.3896" ry="18"/>
<ellipse fill="none" stroke="black" cx="755" cy="-834.037" rx="90.3871" ry="22"/>
<ellipse fill="none" stroke="black" cx="755" cy="-834.037" rx="94.3847" ry="26"/>
<text text-anchor="middle" x="755" y="-830.337" font-family="Times,serif" font-size="14.00">loops_functor_idmap</text>
</a>
</g>
</g>
<!-- Pointed_Build_pHomotopy -->
<g id="node26" class="node"><title>Pointed_Build_pHomotopy</title>
<g id="a_node26"><a xlink:href="Pointed.html#Build_pHomotopy" xlink:title="Build_pHomotopy">
<ellipse fill="#7faaff" stroke="black" cx="1438" cy="-471.037" rx="77.1866" ry="18"/>
<text text-anchor="middle" x="1438" y="-467.337" font-family="Times,serif" font-size="14.00">Build_pHomotopy</text>
</a>
</g>
</g>
<!-- Pointed_loops_functor_idmap&#45;&gt;Pointed_Build_pHomotopy -->
<g id="edge6" class="edge"><title>Pointed_loops_functor_idmap&#45;&gt;Pointed_Build_pHomotopy</title>
<path fill="none" stroke="black" d="M798.503,-810.916C922.788,-744.861 1278.18,-555.98 1398,-492.297"/>
<polygon fill="black" stroke="black" points="1399.69,-495.362 1406.88,-487.579 1396.4,-489.181 1399.69,-495.362"/>
</g>
<!-- Pointed_pHomotopy -->
<g id="node27" class="node"><title>Pointed_pHomotopy</title>
<g id="a_node27"><a xlink:href="Pointed.html#pHomotopy" xlink:title="pHomotopy">
<ellipse fill="#e2cdfa" stroke="black" cx="755" cy="-471.037" rx="53.0913" ry="18"/>
<text text-anchor="middle" x="755" y="-467.337" font-family="Times,serif" font-size="14.00">pHomotopy</text>
</a>
</g>
</g>
<!-- Pointed_loops_functor_idmap&#45;&gt;Pointed_pHomotopy -->
<g id="edge7" class="edge"><title>Pointed_loops_functor_idmap&#45;&gt;Pointed_pHomotopy</title>
<path fill="none" stroke="black" d="M755,-807.931C755,-741.732 755,-567.726 755,-499.275"/>
<polygon fill="black" stroke="black" points="758.5,-499.228 755,-489.228 751.5,-499.228 758.5,-499.228"/>
</g>
<!-- Pointed_pmap_idmap -->
<g id="node29" class="node"><title>Pointed_pmap_idmap</title>
<g id="a_node29"><a xlink:href="Pointed.html#pmap_idmap" xlink:title="pmap_idmap">
<ellipse fill="#f070d1" stroke="black" cx="576" cy="-471.037" rx="57.6901" ry="18"/>
<text text-anchor="middle" x="576" y="-467.337" font-family="Times,serif" font-size="14.00">pmap_idmap</text>
</a>
</g>
</g>
<!-- Pointed_loops_functor_idmap&#45;&gt;Pointed_pmap_idmap -->
<g id="edge8" class="edge"><title>Pointed_loops_functor_idmap&#45;&gt;Pointed_pmap_idmap</title>
<path fill="none" stroke="black" d="M742.27,-808.222C709.535,-741.838 622.668,-565.676 589.307,-498.022"/>
<polygon fill="black" stroke="black" points="592.347,-496.274 584.786,-488.853 586.069,-499.37 592.347,-496.274"/>
</g>
<!-- Pointed_loops_functor -->
<g id="node30" class="node"><title>Pointed_loops_functor</title>
<g id="a_node30"><a xlink:href="Pointed.html#loops_functor" xlink:title="loops_functor">
<ellipse fill="#f070d1" stroke="black" cx="1283" cy="-471.037" rx="59.5901" ry="18"/>
<text text-anchor="middle" x="1283" y="-467.337" font-family="Times,serif" font-size="14.00">loops_functor</text>
</a>
</g>
</g>
<!-- Pointed_loops_functor_idmap&#45;&gt;Pointed_loops_functor -->
<g id="edge9" class="edge"><title>Pointed_loops_functor_idmap&#45;&gt;Pointed_loops_functor</title>
<path fill="none" stroke="black" d="M790.463,-809.656C887.565,-742.898 1156.74,-557.842 1250.38,-493.462"/>
<polygon fill="black" stroke="black" points="1252.63,-496.165 1258.88,-487.616 1248.66,-490.397 1252.63,-496.165"/>
</g>
<!-- Pointed_loops_functor_compose -->
<g id="node11" class="node"><title>Pointed_loops_functor_compose</title>
<g id="a_node11"><a xlink:href="Pointed.html#loops_functor_compose" xlink:title="loops_functor_compose">
<ellipse fill="#facdef" stroke="black" cx="1186" cy="-834.037" rx="95.5799" ry="18"/>
<ellipse fill="none" stroke="black" cx="1186" cy="-834.037" rx="99.5815" ry="22"/>
<ellipse fill="none" stroke="black" cx="1186" cy="-834.037" rx="103.583" ry="26"/>
<text text-anchor="middle" x="1186" y="-830.337" font-family="Times,serif" font-size="14.00">loops_functor_compose</text>
</a>
</g>
</g>
<!-- Pointed_loops_functor_compose&#45;&gt;Pointed_Build_pHomotopy -->
<g id="edge10" class="edge"><title>Pointed_loops_functor_compose&#45;&gt;Pointed_Build_pHomotopy</title>
<path fill="none" stroke="black" d="M1203.92,-808.222C1250.19,-741.566 1373.3,-564.23 1419.84,-497.195"/>
<polygon fill="black" stroke="black" points="1422.8,-499.064 1425.63,-488.853 1417.05,-495.072 1422.8,-499.064"/>
</g>
<!-- Pointed_loops_functor_compose&#45;&gt;Pointed_pHomotopy -->
<g id="edge11" class="edge"><title>Pointed_loops_functor_compose&#45;&gt;Pointed_pHomotopy</title>
<path fill="none" stroke="black" d="M1156.38,-809.086C1076.92,-742.167 859.892,-559.379 782.704,-494.37"/>
<polygon fill="black" stroke="black" points="784.74,-491.509 774.837,-487.744 780.231,-496.863 784.74,-491.509"/>
</g>
<!-- Pointed_pmap_compose -->
<g id="node28" class="node"><title>Pointed_pmap_compose</title>
<g id="a_node28"><a xlink:href="Pointed.html#pmap_compose" xlink:title="pmap_compose">
<ellipse fill="#f070d1" stroke="black" cx="1138" cy="-471.037" rx="66.8882" ry="18"/>
<text text-anchor="middle" x="1138" y="-467.337" font-family="Times,serif" font-size="14.00">pmap_compose</text>
</a>
</g>
</g>
<!-- Pointed_loops_functor_compose&#45;&gt;Pointed_pmap_compose -->
<g id="edge12" class="edge"><title>Pointed_loops_functor_compose&#45;&gt;Pointed_pmap_compose</title>
<path fill="none" stroke="black" d="M1182.55,-807.931C1173.79,-741.732 1150.79,-567.726 1141.73,-499.275"/>
<polygon fill="black" stroke="black" points="1145.19,-498.683 1140.41,-489.228 1138.25,-499.601 1145.19,-498.683"/>
</g>
<!-- Pointed_loops_functor_compose&#45;&gt;Pointed_loops_functor -->
<g id="edge13" class="edge"><title>Pointed_loops_functor_compose&#45;&gt;Pointed_loops_functor</title>
<path fill="none" stroke="black" d="M1192.98,-807.931C1210.67,-741.732 1257.16,-567.726 1275.45,-499.275"/>
<polygon fill="black" stroke="black" points="1278.94,-499.793 1278.14,-489.228 1272.18,-497.986 1278.94,-499.793"/>
</g>
<!-- Pointed_phomotopy_inverse -->
<g id="node12" class="node"><title>Pointed_phomotopy_inverse</title>
<g id="a_node12"><a xlink:href="Pointed.html#phomotopy_inverse" xlink:title="phomotopy_inverse">
<ellipse fill="#facdef" stroke="black" cx="2297" cy="-834.037" rx="81.4644" ry="18"/>
<ellipse fill="none" stroke="black" cx="2297" cy="-834.037" rx="85.4753" ry="22"/>
<ellipse fill="none" stroke="black" cx="2297" cy="-834.037" rx="89.4862" ry="26"/>
<text text-anchor="middle" x="2297" y="-830.337" font-family="Times,serif" font-size="14.00">phomotopy_inverse</text>
</a>
</g>
</g>
<!-- Pointed_phomotopy_inverse&#45;&gt;Pointed_Build_pHomotopy -->
<g id="edge14" class="edge"><title>Pointed_phomotopy_inverse&#45;&gt;Pointed_Build_pHomotopy</title>
<path fill="none" stroke="black" d="M2246.16,-812.551C2092.39,-747.573 1633.75,-553.758 1485.08,-490.934"/>
<polygon fill="black" stroke="black" points="1486.32,-487.656 1475.75,-486.988 1483.6,-494.104 1486.32,-487.656"/>
</g>
<!-- Pointed_phomotopy_inverse&#45;&gt;Pointed_Build_pMap -->
<g id="edge15" class="edge"><title>Pointed_phomotopy_inverse&#45;&gt;Pointed_Build_pMap</title>
<path fill="none" stroke="black" d="M2289.45,-808.098C2257.81,-699.395 2136.02,-280.956 2103.19,-168.176"/>
<polygon fill="black" stroke="black" points="2106.45,-166.861 2100.3,-158.237 2099.73,-168.817 2106.45,-166.861"/>
</g>
<!-- Pointed_phomotopy_compose -->
<g id="node13" class="node"><title>Pointed_phomotopy_compose</title>
<g id="a_node13"><a xlink:href="Pointed.html#phomotopy_compose" xlink:title="phomotopy_compose">
<ellipse fill="#facdef" stroke="black" cx="2095" cy="-834.037" rx="87.1769" ry="18"/>
<ellipse fill="none" stroke="black" cx="2095" cy="-834.037" rx="91.1807" ry="22"/>
<ellipse fill="none" stroke="black" cx="2095" cy="-834.037" rx="95.1846" ry="26"/>
<text text-anchor="middle" x="2095" y="-830.337" font-family="Times,serif" font-size="14.00">phomotopy_compose</text>
</a>
</g>
</g>
<!-- Pointed_phomotopy_compose&#45;&gt;Pointed_Build_pHomotopy -->
<g id="edge16" class="edge"><title>Pointed_phomotopy_compose&#45;&gt;Pointed_Build_pHomotopy</title>
<path fill="none" stroke="black" d="M2052.65,-810.638C1932.87,-744.46 1592.88,-556.61 1477.14,-492.662"/>
<polygon fill="black" stroke="black" points="1478.69,-489.517 1468.24,-487.744 1475.3,-495.644 1478.69,-489.517"/>
</g>
<!-- Pointed_phomotopy_compose&#45;&gt;Pointed_Build_pMap -->
<g id="edge17" class="edge"><title>Pointed_phomotopy_compose&#45;&gt;Pointed_Build_pMap</title>
<path fill="none" stroke="black" d="M2095,-807.678C2095,-698.415 2095,-281.506 2095,-168.458"/>
<polygon fill="black" stroke="black" points="2098.5,-168.198 2095,-158.198 2091.5,-168.198 2098.5,-168.198"/>
</g>
<!-- Pointed_pmap_prewhisker -->
<g id="node14" class="node"><title>Pointed_pmap_prewhisker</title>
<g id="a_node14"><a xlink:href="Pointed.html#pmap_prewhisker" xlink:title="pmap_prewhisker">
<ellipse fill="#facdef" stroke="black" cx="1390" cy="-834.037" rx="74.1778" ry="18"/>
<ellipse fill="none" stroke="black" cx="1390" cy="-834.037" rx="78.1824" ry="22"/>
<ellipse fill="none" stroke="black" cx="1390" cy="-834.037" rx="82.187" ry="26"/>
<text text-anchor="middle" x="1390" y="-830.337" font-family="Times,serif" font-size="14.00">pmap_prewhisker</text>
</a>
</g>
</g>
<!-- Pointed_pmap_prewhisker&#45;&gt;Pointed_Build_pHomotopy -->
<g id="edge18" class="edge"><title>Pointed_pmap_prewhisker&#45;&gt;Pointed_Build_pHomotopy</title>
<path fill="none" stroke="black" d="M1393.45,-807.931C1402.21,-741.732 1425.21,-567.726 1434.27,-499.275"/>
<polygon fill="black" stroke="black" points="1437.75,-499.601 1435.59,-489.228 1430.81,-498.683 1437.75,-499.601"/>
</g>
<!-- Pointed_pmap_prewhisker&#45;&gt;Pointed_pmap_compose -->
<g id="edge19" class="edge"><title>Pointed_pmap_prewhisker&#45;&gt;Pointed_pmap_compose</title>
<path fill="none" stroke="black" d="M1372.28,-808.511C1326.18,-742.1 1202.83,-564.429 1156.2,-497.253"/>
<polygon fill="black" stroke="black" points="1158.97,-495.111 1150.4,-488.893 1153.22,-499.103 1158.97,-495.111"/>
</g>
<!-- Pointed_pmap_postwhisker -->
<g id="node15" class="node"><title>Pointed_pmap_postwhisker</title>
<g id="a_node15"><a xlink:href="Pointed.html#pmap_postwhisker" xlink:title="pmap_postwhisker">
<ellipse fill="#facdef" stroke="black" cx="1575" cy="-834.037" rx="77.2012" ry="18"/>
<ellipse fill="none" stroke="black" cx="1575" cy="-834.037" rx="81.1939" ry="22"/>
<ellipse fill="none" stroke="black" cx="1575" cy="-834.037" rx="85.1866" ry="26"/>
<text text-anchor="middle" x="1575" y="-830.337" font-family="Times,serif" font-size="14.00">pmap_postwhisker</text>
</a>
</g>
</g>
<!-- Pointed_pmap_postwhisker&#45;&gt;Pointed_Build_pHomotopy -->
<g id="edge20" class="edge"><title>Pointed_pmap_postwhisker&#45;&gt;Pointed_Build_pHomotopy</title>
<path fill="none" stroke="black" d="M1565.15,-807.931C1540.11,-741.596 1474.22,-567.01 1448.5,-498.854"/>
<polygon fill="black" stroke="black" points="1451.67,-497.348 1444.87,-489.228 1445.12,-499.82 1451.67,-497.348"/>
</g>
<!-- Pointed_pmap_postwhisker&#45;&gt;Pointed_pmap_compose -->
<g id="edge21" class="edge"><title>Pointed_pmap_postwhisker&#45;&gt;Pointed_pmap_compose</title>
<path fill="none" stroke="black" d="M1545.31,-809.372C1465.24,-742.859 1245.6,-560.413 1166.7,-494.874"/>
<polygon fill="black" stroke="black" points="1168.57,-491.884 1158.65,-488.187 1164.1,-497.269 1168.57,-491.884"/>
</g>
<!-- Pointed_pmap_postcompose_idmap -->
<g id="node16" class="node"><title>Pointed_pmap_postcompose_idmap</title>
<g id="a_node16"><a xlink:href="Pointed.html#pmap_postcompose_idmap" xlink:title="pmap_postcompose_idmap">
<ellipse fill="#facdef" stroke="black" cx="526" cy="-834.037" rx="108.578" ry="18"/>
<ellipse fill="none" stroke="black" cx="526" cy="-834.037" rx="112.579" ry="22"/>
<ellipse fill="none" stroke="black" cx="526" cy="-834.037" rx="116.581" ry="26"/>
<text text-anchor="middle" x="526" y="-830.337" font-family="Times,serif" font-size="14.00">pmap_postcompose_idmap</text>
</a>
</g>
</g>
<!-- Pointed_pmap_postcompose_idmap&#45;&gt;Pointed_Build_pHomotopy -->
<g id="edge22" class="edge"><title>Pointed_pmap_postcompose_idmap&#45;&gt;Pointed_Build_pHomotopy</title>
<path fill="none" stroke="black" d="M583.05,-811.329C749.776,-744.968 1234.22,-552.145 1389.5,-490.341"/>
<polygon fill="black" stroke="black" points="1390.82,-493.583 1398.81,-486.633 1388.23,-487.08 1390.82,-493.583"/>
</g>
<!-- Pointed_pmap_postcompose_idmap&#45;&gt;Pointed_pHomotopy -->
<g id="edge23" class="edge"><title>Pointed_pmap_postcompose_idmap&#45;&gt;Pointed_pHomotopy</title>
<path fill="none" stroke="black" d="M542.286,-808.222C584.25,-741.702 695.752,-564.953 738.238,-497.607"/>
<polygon fill="black" stroke="black" points="741.385,-499.178 743.76,-488.853 735.465,-495.443 741.385,-499.178"/>
</g>
<!-- Pointed_pmap_postcompose_idmap&#45;&gt;Pointed_pmap_compose -->
<g id="edge24" class="edge"><title>Pointed_pmap_postcompose_idmap&#45;&gt;Pointed_pmap_compose</title>
<path fill="none" stroke="black" d="M567.105,-809.656C679.995,-742.697 993.539,-556.722 1101.17,-492.881"/>
<polygon fill="black" stroke="black" points="1103.23,-495.728 1110.05,-487.616 1099.66,-489.707 1103.23,-495.728"/>
</g>
<!-- Pointed_pmap_postcompose_idmap&#45;&gt;Pointed_pmap_idmap -->
<g id="edge25" class="edge"><title>Pointed_pmap_postcompose_idmap&#45;&gt;Pointed_pmap_idmap</title>
<path fill="none" stroke="black" d="M529.596,-807.931C538.714,-741.732 562.682,-567.726 572.11,-499.275"/>
<polygon fill="black" stroke="black" points="575.597,-499.612 573.494,-489.228 568.662,-498.657 575.597,-499.612"/>
</g>
<!-- Pointed_pmap_precompose_idmap -->
<g id="node17" class="node"><title>Pointed_pmap_precompose_idmap</title>
<g id="a_node17"><a xlink:href="Pointed.html#pmap_precompose_idmap" xlink:title="pmap_precompose_idmap">
<ellipse fill="#facdef" stroke="black" cx="279" cy="-834.037" rx="104.772" ry="18"/>
<ellipse fill="none" stroke="black" cx="279" cy="-834.037" rx="108.777" ry="22"/>
<ellipse fill="none" stroke="black" cx="279" cy="-834.037" rx="112.782" ry="26"/>
<text text-anchor="middle" x="279" y="-830.337" font-family="Times,serif" font-size="14.00">pmap_precompose_idmap</text>
</a>
</g>
</g>
<!-- Pointed_pmap_precompose_idmap&#45;&gt;Pointed_Build_pHomotopy -->
<g id="edge26" class="edge"><title>Pointed_pmap_precompose_idmap&#45;&gt;Pointed_Build_pHomotopy</title>
<path fill="none" stroke="black" d="M345.898,-813.084C554.382,-747.787 1189.87,-548.751 1382.24,-488.501"/>
<polygon fill="black" stroke="black" points="1383.37,-491.814 1391.87,-485.485 1381.28,-485.134 1383.37,-491.814"/>
</g>
<!-- Pointed_pmap_precompose_idmap&#45;&gt;Pointed_pHomotopy -->
<g id="edge27" class="edge"><title>Pointed_pmap_precompose_idmap&#45;&gt;Pointed_pHomotopy</title>
<path fill="none" stroke="black" d="M311.717,-809.086C399.748,-741.954 640.683,-558.215 725.212,-493.753"/>
<polygon fill="black" stroke="black" points="727.526,-496.39 733.356,-487.543 723.282,-490.824 727.526,-496.39"/>
</g>
<!-- Pointed_pmap_precompose_idmap&#45;&gt;Pointed_pmap_compose -->
<g id="edge28" class="edge"><title>Pointed_pmap_precompose_idmap&#45;&gt;Pointed_pmap_compose</title>
<path fill="none" stroke="black" d="M333.06,-811.192C490.465,-744.675 946.536,-551.946 1092.5,-490.266"/>
<polygon fill="black" stroke="black" points="1094.21,-493.341 1102.06,-486.225 1091.49,-486.893 1094.21,-493.341"/>
</g>
<!-- Pointed_pmap_precompose_idmap&#45;&gt;Pointed_pmap_idmap -->
<g id="edge29" class="edge"><title>Pointed_pmap_precompose_idmap&#45;&gt;Pointed_pmap_idmap</title>
<path fill="none" stroke="black" d="M300.121,-808.222C354.769,-741.429 500.343,-563.506 554.932,-496.786"/>
<polygon fill="black" stroke="black" points="557.799,-498.809 561.423,-488.853 552.382,-494.376 557.799,-498.809"/>
</g>
<!-- Pointed_pmap_compose_assoc -->
<g id="node18" class="node"><title>Pointed_pmap_compose_assoc</title>
<g id="a_node18"><a xlink:href="Pointed.html#pmap_compose_assoc" xlink:title="pmap_compose_assoc">
<ellipse fill="#facdef" stroke="black" cx="966" cy="-834.037" rx="90.1971" ry="18"/>
<ellipse fill="none" stroke="black" cx="966" cy="-834.037" rx="94.1906" ry="22"/>
<ellipse fill="none" stroke="black" cx="966" cy="-834.037" rx="98.1842" ry="26"/>
<text text-anchor="middle" x="966" y="-830.337" font-family="Times,serif" font-size="14.00">pmap_compose_assoc</text>
</a>
</g>
</g>
<!-- Pointed_pmap_compose_assoc&#45;&gt;Pointed_Build_pHomotopy -->
<g id="edge30" class="edge"><title>Pointed_pmap_compose_assoc&#45;&gt;Pointed_Build_pHomotopy</title>
<path fill="none" stroke="black" d="M998.071,-809.372C1084.72,-742.735 1322.68,-559.729 1407.48,-494.506"/>
<polygon fill="black" stroke="black" points="1409.64,-497.262 1415.43,-488.391 1405.37,-491.713 1409.64,-497.262"/>
</g>
<!-- Pointed_pmap_compose_assoc&#45;&gt;Pointed_pHomotopy -->
<g id="edge31" class="edge"><title>Pointed_pmap_compose_assoc&#45;&gt;Pointed_pHomotopy</title>
<path fill="none" stroke="black" d="M950.995,-808.222C912.329,-741.702 809.591,-564.953 770.445,-497.607"/>
<polygon fill="black" stroke="black" points="773.408,-495.74 765.356,-488.853 767.356,-499.258 773.408,-495.74"/>
</g>
<!-- Pointed_pmap_compose_assoc&#45;&gt;Pointed_pmap_compose -->
<g id="edge32" class="edge"><title>Pointed_pmap_compose_assoc&#45;&gt;Pointed_pmap_compose</title>
<path fill="none" stroke="black" d="M978.232,-808.222C1009.61,-741.992 1092.77,-566.495 1124.99,-498.495"/>
<polygon fill="black" stroke="black" points="1128.24,-499.804 1129.36,-489.269 1121.92,-496.807 1128.24,-499.804"/>
</g>
<!-- Pointed_loops_2functor -->
<g id="node19" class="node"><title>Pointed_loops_2functor</title>
<g id="a_node19"><a xlink:href="Pointed.html#loops_2functor" xlink:title="loops_2functor">
<ellipse fill="#facdef" stroke="black" cx="1910" cy="-834.037" rx="63.8675" ry="18"/>
<ellipse fill="none" stroke="black" cx="1910" cy="-834.037" rx="67.8784" ry="22"/>
<ellipse fill="none" stroke="black" cx="1910" cy="-834.037" rx="71.8892" ry="26"/>
<text text-anchor="middle" x="1910" y="-830.337" font-family="Times,serif" font-size="14.00">loops_2functor</text>
</a>
</g>
</g>
<!-- Pointed_loops_2functor_subproof -->
<g id="node20" class="node"><title>Pointed_loops_2functor_subproof</title>
<g id="a_node20"><a xlink:href="Pointed.html#loops_2functor_subproof" xlink:title="loops_2functor_subproof">
<ellipse fill="#facdef" stroke="black" cx="1910" cy="-471.037" rx="99.3824" ry="18"/>
<text text-anchor="middle" x="1910" y="-467.337" font-family="Times,serif" font-size="14.00">loops_2functor_subproof</text>
</a>
</g>
</g>
<!-- Pointed_loops_2functor&#45;&gt;Pointed_loops_2functor_subproof -->
<g id="edge33" class="edge"><title>Pointed_loops_2functor&#45;&gt;Pointed_loops_2functor_subproof</title>
<path fill="none" stroke="black" d="M1910,-807.931C1910,-741.732 1910,-567.726 1910,-499.275"/>
<polygon fill="black" stroke="black" points="1913.5,-499.228 1910,-489.228 1906.5,-499.228 1913.5,-499.228"/>
</g>
<!-- Pointed_loops_2functor&#45;&gt;Pointed_Build_pHomotopy -->
<g id="edge34" class="edge"><title>Pointed_loops_2functor&#45;&gt;Pointed_Build_pHomotopy</title>
<path fill="none" stroke="black" d="M1879.39,-810.499C1793.99,-744.816 1553.75,-560.058 1468.49,-494.484"/>
<polygon fill="black" stroke="black" points="1470.56,-491.661 1460.5,-488.339 1466.29,-497.209 1470.56,-491.661"/>
</g>
<!-- Pointed_loops_2functor&#45;&gt;Pointed_loops_functor -->
<g id="edge35" class="edge"><title>Pointed_loops_2functor&#45;&gt;Pointed_loops_functor</title>
<path fill="none" stroke="black" d="M1871.72,-811.876C1759.1,-746.672 1429.86,-556.063 1319.52,-492.182"/>
<polygon fill="black" stroke="black" points="1321.15,-489.082 1310.75,-487.1 1317.65,-495.14 1321.15,-489.082"/>
</g>
<!-- Pointed_pHomotopy_rec -->
<g id="node21" class="node"><title>Pointed_pHomotopy_rec</title>
<g id="a_node21"><a xlink:href="Pointed.html#pHomotopy_rec" xlink:title="pHomotopy_rec">
<ellipse fill="#f070d1" stroke="black" cx="1762" cy="-1198.04" rx="68.463" ry="18"/>
<ellipse fill="none" stroke="black" cx="1762" cy="-1198.04" rx="72.4758" ry="22"/>
<ellipse fill="none" stroke="black" cx="1762" cy="-1198.04" rx="76.4887" ry="26"/>
<text text-anchor="middle" x="1762" y="-1194.34" font-family="Times,serif" font-size="14.00">pHomotopy_rec</text>
</a>
</g>
</g>
<!-- Pointed_pHomotopy_rect -->
<g id="node23" class="node"><title>Pointed_pHomotopy_rect</title>
<g id="a_node23"><a xlink:href="Pointed.html#pHomotopy_rect" xlink:title="pHomotopy_rect">
<ellipse fill="#f070d1" stroke="black" cx="1749" cy="-834.037" rx="70.6878" ry="18"/>
<text text-anchor="middle" x="1749" y="-830.337" font-family="Times,serif" font-size="14.00">pHomotopy_rect</text>
</a>
</g>
</g>
<!-- Pointed_pHomotopy_rec&#45;&gt;Pointed_pHomotopy_rect -->
<g id="edge36" class="edge"><title>Pointed_pHomotopy_rec&#45;&gt;Pointed_pHomotopy_rect</title>
<path fill="none" stroke="black" d="M1761.07,-1171.86C1758.69,-1105.48 1752.46,-930.992 1750.01,-862.353"/>
<polygon fill="black" stroke="black" points="1753.51,-862.147 1749.65,-852.278 1746.51,-862.397 1753.51,-862.147"/>
</g>
<!-- Pointed_pHomotopy_ind -->
<g id="node22" class="node"><title>Pointed_pHomotopy_ind</title>
<g id="a_node22"><a xlink:href="Pointed.html#pHomotopy_ind" xlink:title="pHomotopy_ind">
<ellipse fill="#7fffd4" stroke="black" cx="1591" cy="-1198.04" rx="68.7989" ry="18"/>
<ellipse fill="none" stroke="black" cx="1591" cy="-1198.04" rx="72.7934" ry="22"/>
<ellipse fill="none" stroke="black" cx="1591" cy="-1198.04" rx="76.7879" ry="26"/>
<text text-anchor="middle" x="1591" y="-1194.34" font-family="Times,serif" font-size="14.00">pHomotopy_ind</text>
</a>
</g>
</g>
<!-- Pointed_pHomotopy_ind&#45;&gt;Pointed_pHomotopy_rect -->
<g id="edge37" class="edge"><title>Pointed_pHomotopy_ind&#45;&gt;Pointed_pHomotopy_rect</title>
<path fill="none" stroke="black" d="M1602.24,-1172.15C1631.06,-1105.74 1707.45,-929.758 1737.05,-861.571"/>
<polygon fill="black" stroke="black" points="1740.29,-862.886 1741.06,-852.319 1733.87,-860.098 1740.29,-862.886"/>
</g>
<!-- Pointed_pHomotopy_rect&#45;&gt;Pointed_Build_pHomotopy -->
<g id="edge38" class="edge"><title>Pointed_pHomotopy_rect&#45;&gt;Pointed_Build_pHomotopy</title>
<path fill="none" stroke="black" d="M1733.58,-816.035C1682.58,-756.511 1519.26,-565.886 1459.86,-496.555"/>
<polygon fill="black" stroke="black" points="1462.31,-494.035 1453.15,-488.718 1457,-498.59 1462.31,-494.035"/>
</g>
<!-- Pointed_point_htpy -->
<g id="node24" class="node"><title>Pointed_point_htpy</title>
<g id="a_node24"><a xlink:href="Pointed.html#point_htpy" xlink:title="point_htpy">
<ellipse fill="#f070d1" stroke="black" cx="1438" cy="-1198.04" rx="48.9576" ry="18"/>
<ellipse fill="none" stroke="black" cx="1438" cy="-1198.04" rx="52.975" ry="22"/>
<ellipse fill="none" stroke="black" cx="1438" cy="-1198.04" rx="56.9924" ry="26"/>
<text text-anchor="middle" x="1438" y="-1194.34" font-family="Times,serif" font-size="14.00">point_htpy</text>
</a>
</g>
</g>
<!-- Pointed_pointed_htpy -->
<g id="node25" class="node"><title>Pointed_pointed_htpy</title>
<g id="a_node25"><a xlink:href="Pointed.html#pointed_htpy" xlink:title="pointed_htpy">
<ellipse fill="#f070d1" stroke="black" cx="1296" cy="-1198.04" rx="57.3664" ry="18"/>
<ellipse fill="none" stroke="black" cx="1296" cy="-1198.04" rx="61.3784" ry="22"/>
<ellipse fill="none" stroke="black" cx="1296" cy="-1198.04" rx="65.3904" ry="26"/>
<text text-anchor="middle" x="1296" y="-1194.34" font-family="Times,serif" font-size="14.00">pointed_htpy</text>
</a>
</g>
</g>
<!-- Pointed_pmap_compose&#45;&gt;Pointed_Build_pMap -->
<g id="edge39" class="edge"><title>Pointed_pmap_compose&#45;&gt;Pointed_Build_pMap</title>
<path fill="none" stroke="black" d="M1179.12,-456.814C1333.84,-403.303 1880.57,-214.201 2046.74,-156.728"/>
<polygon fill="black" stroke="black" points="2048.36,-159.87 2056.67,-153.293 2046.08,-153.254 2048.36,-159.87"/>
</g>
<!-- Pointed_pmap_idmap&#45;&gt;Pointed_Build_pMap -->
<g id="edge40" class="edge"><title>Pointed_pmap_idmap&#45;&gt;Pointed_Build_pMap</title>
<path fill="none" stroke="black" d="M623.24,-460.489C644.548,-455.744 670.036,-450.086 693,-445.037 1215.57,-330.132 1848.24,-193.326 2038.35,-152.266"/>
<polygon fill="black" stroke="black" points="2039.35,-155.63 2048.39,-150.097 2037.88,-148.787 2039.35,-155.63"/>
</g>
<!-- Pointed_loops_functor&#45;&gt;Pointed_Build_pMap -->
<g id="edge41" class="edge"><title>Pointed_loops_functor&#45;&gt;Pointed_Build_pMap</title>
<path fill="none" stroke="black" d="M1318.68,-456.494C1450.03,-402.949 1906.57,-216.846 2050.9,-158.012"/>
<polygon fill="black" stroke="black" points="2052.41,-161.177 2060.35,-154.161 2049.77,-154.695 2052.41,-161.177"/>
</g>
<!-- Pointed_loops -->
<g id="node39" class="node"><title>Pointed_loops</title>
<g id="a_node39"><a xlink:href="Pointed.html#loops" xlink:title="loops">
<ellipse fill="#f070d1" stroke="black" cx="1283" cy="-140.037" rx="29.795" ry="18"/>
<text text-anchor="middle" x="1283" y="-136.337" font-family="Times,serif" font-size="14.00">loops</text>
</a>
</g>
</g>
<!-- Pointed_loops_functor&#45;&gt;Pointed_loops -->
<g id="edge42" class="edge"><title>Pointed_loops_functor&#45;&gt;Pointed_loops</title>
<path fill="none" stroke="black" d="M1283,-452.769C1283,-397.95 1283,-234.567 1283,-168.365"/>
<polygon fill="black" stroke="black" points="1286.5,-168.248 1283,-158.248 1279.5,-168.248 1286.5,-168.248"/>
</g>
<!-- Pointed_pMap_rec -->
<g id="node31" class="node"><title>Pointed_pMap_rec</title>
<g id="a_node31"><a xlink:href="Pointed.html#pMap_rec" xlink:title="pMap_rec">
<ellipse fill="#f070d1" stroke="black" cx="2459" cy="-834.037" rx="46.6221" ry="18"/>
<ellipse fill="none" stroke="black" cx="2459" cy="-834.037" rx="50.6073" ry="22"/>
<ellipse fill="none" stroke="black" cx="2459" cy="-834.037" rx="54.5925" ry="26"/>
<text text-anchor="middle" x="2459" y="-830.337" font-family="Times,serif" font-size="14.00">pMap_rec</text>
</a>
</g>
</g>
<!-- Pointed_pMap_rect -->
<g id="node33" class="node"><title>Pointed_pMap_rect</title>
<g id="a_node33"><a xlink:href="Pointed.html#pMap_rect" xlink:title="pMap_rect">
<ellipse fill="#f070d1" stroke="black" cx="2447" cy="-471.037" rx="49.2915" ry="18"/>
<text text-anchor="middle" x="2447" y="-467.337" font-family="Times,serif" font-size="14.00">pMap_rect</text>
</a>
</g>
</g>
<!-- Pointed_pMap_rec&#45;&gt;Pointed_pMap_rect -->
<g id="edge43" class="edge"><title>Pointed_pMap_rec&#45;&gt;Pointed_pMap_rect</title>
<path fill="none" stroke="black" d="M2458.14,-807.931C2455.95,-741.732 2450.2,-567.726 2447.93,-499.275"/>
<polygon fill="black" stroke="black" points="2451.43,-499.107 2447.6,-489.228 2444.43,-499.338 2451.43,-499.107"/>
</g>
<!-- Pointed_pMap_ind -->
<g id="node32" class="node"><title>Pointed_pMap_ind</title>
<g id="a_node32"><a xlink:href="Pointed.html#pMap_ind" xlink:title="pMap_ind">
<ellipse fill="#7fffd4" stroke="black" cx="2587" cy="-834.037" rx="47.3994" ry="18"/>
<ellipse fill="none" stroke="black" cx="2587" cy="-834.037" rx="51.3955" ry="22"/>
<ellipse fill="none" stroke="black" cx="2587" cy="-834.037" rx="55.3916" ry="26"/>
<text text-anchor="middle" x="2587" y="-830.337" font-family="Times,serif" font-size="14.00">pMap_ind</text>
</a>
</g>
</g>
<!-- Pointed_pMap_ind&#45;&gt;Pointed_pMap_rect -->
<g id="edge44" class="edge"><title>Pointed_pMap_ind&#45;&gt;Pointed_pMap_rect</title>
<path fill="none" stroke="black" d="M2577.04,-808.222C2551.55,-742.128 2484.09,-567.213 2457.75,-498.915"/>
<polygon fill="black" stroke="black" points="2460.9,-497.339 2454.03,-489.269 2454.36,-499.858 2460.9,-497.339"/>
</g>
<!-- Pointed_pMap_rect&#45;&gt;Pointed_Build_pMap -->
<g id="edge45" class="edge"><title>Pointed_pMap_rect&#45;&gt;Pointed_Build_pMap</title>
<path fill="none" stroke="black" d="M2429.06,-454.167C2371.05,-399.621 2188.4,-227.867 2120.64,-164.142"/>
<polygon fill="black" stroke="black" points="2123.01,-161.57 2113.33,-157.269 2118.21,-166.669 2123.01,-161.57"/>
</g>
<!-- Pointed_point_eq -->
<g id="node34" class="node"><title>Pointed_point_eq</title>
<g id="a_node34"><a xlink:href="Pointed.html#point_eq" xlink:title="point_eq">
<ellipse fill="#f070d1" stroke="black" cx="1159" cy="-1198.04" rx="41.6772" ry="18"/>
<ellipse fill="none" stroke="black" cx="1159" cy="-1198.04" rx="45.685" ry="22"/>
<ellipse fill="none" stroke="black" cx="1159" cy="-1198.04" rx="49.6928" ry="26"/>
<text text-anchor="middle" x="1159" y="-1194.34" font-family="Times,serif" font-size="14.00">point_eq</text>
</a>
</g>
</g>
<!-- Pointed_pointed_fun -->
<g id="node35" class="node"><title>Pointed_pointed_fun</title>
<g id="a_node35"><a xlink:href="Pointed.html#pointed_fun" xlink:title="pointed_fun">
<ellipse fill="#f070d1" stroke="black" cx="1023" cy="-1198.04" rx="53.1179" ry="18"/>
<ellipse fill="none" stroke="black" cx="1023" cy="-1198.04" rx="57.1045" ry="22"/>
<ellipse fill="none" stroke="black" cx="1023" cy="-1198.04" rx="61.0912" ry="26"/>
<text text-anchor="middle" x="1023" y="-1194.34" font-family="Times,serif" font-size="14.00">pointed_fun</text>
</a>
</g>
</g>
<!-- Pointed_pMap -->
<g id="node37" class="node"><title>Pointed_pMap</title>
<g id="a_node37"><a xlink:href="Pointed.html#pMap" xlink:title="pMap">
<ellipse fill="#e2cdfa" stroke="black" cx="890" cy="-1198.04" rx="31.7255" ry="18"/>
<ellipse fill="none" stroke="black" cx="890" cy="-1198.04" rx="35.7102" ry="22"/>
<ellipse fill="none" stroke="black" cx="890" cy="-1198.04" rx="39.6949" ry="26"/>
<text text-anchor="middle" x="890" y="-1194.34" font-family="Times,serif" font-size="14.00">pMap</text>
</a>
</g>
</g>
<!-- Pointed_iterated_loops -->
<g id="node38" class="node"><title>Pointed_iterated_loops</title>
<g id="a_node38"><a xlink:href="Pointed.html#iterated_loops" xlink:title="iterated_loops">
<ellipse fill="#f070d1" stroke="black" cx="750" cy="-1198.04" rx="60.3958" ry="18"/>
<ellipse fill="none" stroke="black" cx="750" cy="-1198.04" rx="64.3926" ry="22"/>
<ellipse fill="none" stroke="black" cx="750" cy="-1198.04" rx="68.3893" ry="26"/>
<text text-anchor="middle" x="750" y="-1194.34" font-family="Times,serif" font-size="14.00">iterated_loops</text>
</a>
</g>
</g>
<!-- Pointed_ispointed_loops -->
<g id="node40" class="node"><title>Pointed_ispointed_loops</title>
<g id="a_node40"><a xlink:href="Pointed.html#ispointed_loops" xlink:title="ispointed_loops">
<ellipse fill="#f070d1" stroke="black" cx="82" cy="-834.037" rx="66.0889" ry="18"/>
<text text-anchor="middle" x="82" y="-830.337" font-family="Times,serif" font-size="14.00">ispointed_loops</text>
</a>
</g>
</g>
<!-- Pointed_iterated_loops&#45;&gt;Pointed_ispointed_loops -->
<g id="edge46" class="edge"><title>Pointed_iterated_loops&#45;&gt;Pointed_ispointed_loops</title>
<path fill="none" stroke="black" d="M710.707,-1176.63C592.124,-1112.01 238.755,-919.454 120.811,-855.185"/>
<polygon fill="black" stroke="black" points="122.211,-851.962 111.756,-850.251 118.862,-858.109 122.211,-851.962"/>
</g>
<!-- Pointed_ispointed_prod -->
<g id="node41" class="node"><title>Pointed_ispointed_prod</title>
<g id="a_node41"><a xlink:href="Pointed.html#ispointed_prod" xlink:title="ispointed_prod">
<ellipse fill="#f070d1" stroke="black" cx="592" cy="-1198.04" rx="63.8675" ry="18"/>
<ellipse fill="none" stroke="black" cx="592" cy="-1198.04" rx="67.8784" ry="22"/>
<ellipse fill="none" stroke="black" cx="592" cy="-1198.04" rx="71.8892" ry="26"/>
<text text-anchor="middle" x="592" y="-1194.34" font-family="Times,serif" font-size="14.00">ispointed_prod</text>
</a>
</g>
</g>
<!-- Pointed_ispointed_sigma -->
<g id="node42" class="node"><title>Pointed_ispointed_sigma</title>
<g id="a_node42"><a xlink:href="Pointed.html#ispointed_sigma" xlink:title="ispointed_sigma">
<ellipse fill="#f070d1" stroke="black" cx="425" cy="-1198.04" rx="68.7989" ry="18"/>
<ellipse fill="none" stroke="black" cx="425" cy="-1198.04" rx="72.7934" ry="22"/>
<ellipse fill="none" stroke="black" cx="425" cy="-1198.04" rx="76.7879" ry="26"/>
<text text-anchor="middle" x="425" y="-1194.34" font-family="Times,serif" font-size="14.00">ispointed_sigma</text>
</a>
</g>
</g>
<!-- Pointed_ispointed_forall -->
<g id="node43" class="node"><title>Pointed_ispointed_forall</title>
<g id="a_node43"><a xlink:href="Pointed.html#ispointed_forall" xlink:title="ispointed_forall">
<ellipse fill="#f070d1" stroke="black" cx="256" cy="-1198.04" rx="66.1109" ry="18"/>
<ellipse fill="none" stroke="black" cx="256" cy="-1198.04" rx="70.0999" ry="22"/>
<ellipse fill="none" stroke="black" cx="256" cy="-1198.04" rx="74.0888" ry="26"/>
<text text-anchor="middle" x="256" y="-1194.34" font-family="Times,serif" font-size="14.00">ispointed_forall</text>
</a>
</g>
</g>
<!-- Pointed_ispointed_contr -->
<g id="node44" class="node"><title>Pointed_ispointed_contr</title>
<g id="a_node44"><a xlink:href="Pointed.html#ispointed_contr" xlink:title="ispointed_contr">
<ellipse fill="#f070d1" stroke="black" cx="90" cy="-1198.04" rx="65.7729" ry="18"/>
<ellipse fill="none" stroke="black" cx="90" cy="-1198.04" rx="69.7808" ry="22"/>
<ellipse fill="none" stroke="black" cx="90" cy="-1198.04" rx="73.7886" ry="26"/>
<text text-anchor="middle" x="90" y="-1194.34" font-family="Times,serif" font-size="14.00">ispointed_contr</text>
</a>
</g>
</g>
</g>
</svg>
