<?xml version="1.0" encoding="UTF-8" standalone="no"?>
<!DOCTYPE svg PUBLIC "-//W3C//DTD SVG 1.1//EN"
 "http://www.w3.org/Graphics/SVG/1.1/DTD/svg11.dtd">
<!-- Generated by graphviz version 2.26.3 (20100126.1600)
 -->
<!-- Title: HoTT_Types_Unit Pages: 1 -->
<svg width="1040pt" height="524pt"
 viewBox="0.00 0.00 1040.00 524.00" xmlns="http://www.w3.org/2000/svg" xmlns:xlink="http://www.w3.org/1999/xlink">
<g id="graph1" class="graph" transform="scale(1 1) rotate(0) translate(4 520)">
<title>HoTT_Types_Unit</title>
<polygon fill="white" stroke="white" points="-4,5 -4,-520 1037,-520 1037,5 -4,5"/>
<g id="graph2" class="cluster"><title>cluster_Unit</title>
<polygon fill="#ffffc3" stroke="black" points="8,-11.7943 8,-504.206 1024,-504.206 1024,-11.7943 8,-11.7943"/>
<text text-anchor="middle" x="31" y="-487.606" font-family="Times Roman,serif" font-size="14.00">Unit</text>
</g>
<!-- Unit_contr_equiv_unit -->
<g id="node1" class="node"><title>Unit_contr_equiv_unit</title>
<a xlink:href="Unit.html#contr_equiv_unit" xlink:title="contr_equiv_unit">
<ellipse fill="#f070d1" stroke="black" cx="914" cy="-413.794" rx="94.0452" ry="18.3848"/>
<ellipse fill="none" stroke="black" cx="914" cy="-413.794" rx="98.0452" ry="22.3848"/>
<ellipse fill="none" stroke="black" cx="914" cy="-413.794" rx="102.045" ry="26.3848"/>
<text text-anchor="middle" x="914" y="-410.194" font-family="Times Roman,serif" font-size="14.00">contr_equiv_unit</text>
</a>
</g>
<!-- Unit_contr_unit -->
<g id="node3" class="node"><title>Unit_contr_unit</title>
<a xlink:href="Unit.html#contr_unit" xlink:title="contr_unit">
<ellipse fill="#f070d1" stroke="black" cx="946" cy="-281.794" rx="62.2254" ry="18.3848"/>
<text text-anchor="middle" x="946" y="-278.194" font-family="Times Roman,serif" font-size="14.00">contr_unit</text>
</a>
</g>
<!-- Unit_contr_equiv_unit&#45;&gt;Unit_contr_unit -->
<g id="edge2" class="edge"><title>Unit_contr_equiv_unit&#45;&gt;Unit_contr_unit</title>
<path fill="none" stroke="black" d="M920.476,-387.082C925.892,-364.74 933.598,-332.953 939.123,-310.161"/>
<polygon fill="black" stroke="black" points="942.538,-310.931 941.493,-300.387 935.735,-309.281 942.538,-310.931"/>
</g>
<!-- Unit_equiv_contr_unit -->
<g id="node2" class="node"><title>Unit_equiv_contr_unit</title>
<a xlink:href="Unit.html#equiv_contr_unit" xlink:title="equiv_contr_unit">
<ellipse fill="#f070d1" stroke="black" cx="692" cy="-413.794" rx="94.0452" ry="18.3848"/>
<ellipse fill="none" stroke="black" cx="692" cy="-413.794" rx="98.0452" ry="22.3848"/>
<ellipse fill="none" stroke="black" cx="692" cy="-413.794" rx="102.045" ry="26.3848"/>
<text text-anchor="middle" x="692" y="-410.194" font-family="Times Roman,serif" font-size="14.00">equiv_contr_unit</text>
</a>
</g>
<!-- Unit_equiv_unit_coind -->
<g id="node4" class="node"><title>Unit_equiv_unit_coind</title>
<a xlink:href="Unit.html#equiv_unit_coind" xlink:title="equiv_unit_coind">
<ellipse fill="#f070d1" stroke="black" cx="470" cy="-413.794" rx="94.0452" ry="18.3848"/>
<ellipse fill="none" stroke="black" cx="470" cy="-413.794" rx="98.0452" ry="22.3848"/>
<ellipse fill="none" stroke="black" cx="470" cy="-413.794" rx="102.045" ry="26.3848"/>
<text text-anchor="middle" x="470" y="-410.194" font-family="Times Roman,serif" font-size="14.00">equiv_unit_coind</text>
</a>
</g>
<!-- Unit_isequiv_unit_coind -->
<g id="node5" class="node"><title>Unit_isequiv_unit_coind</title>
<a xlink:href="Unit.html#isequiv_unit_coind" xlink:title="isequiv_unit_coind">
<ellipse fill="#f070d1" stroke="black" cx="765" cy="-281.794" rx="101.116" ry="18.3848"/>
<text text-anchor="middle" x="765" y="-278.194" font-family="Times Roman,serif" font-size="14.00">isequiv_unit_coind</text>
</a>
</g>
<!-- Unit_equiv_unit_coind&#45;&gt;Unit_isequiv_unit_coind -->
<g id="edge4" class="edge"><title>Unit_equiv_unit_coind&#45;&gt;Unit_isequiv_unit_coind</title>
<path fill="none" stroke="black" d="M521.385,-390.802C576.512,-366.134 663.366,-327.271 717.107,-303.224"/>
<polygon fill="black" stroke="black" points="718.717,-306.339 726.415,-299.059 715.858,-299.949 718.717,-306.339"/>
</g>
<!-- Unit_unit_coind -->
<g id="node6" class="node"><title>Unit_unit_coind</title>
<a xlink:href="Unit.html#unit_coind" xlink:title="unit_coind">
<ellipse fill="#f070d1" stroke="black" cx="765" cy="-160.794" rx="62.2254" ry="18.3848"/>
<text text-anchor="middle" x="765" y="-157.194" font-family="Times Roman,serif" font-size="14.00">unit_coind</text>
</a>
</g>
<!-- Unit_isequiv_unit_coind&#45;&gt;Unit_unit_coind -->
<g id="edge6" class="edge"><title>Unit_isequiv_unit_coind&#45;&gt;Unit_unit_coind</title>
<path fill="none" stroke="black" d="M765,-263.153C765,-243.581 765,-212.545 765,-189.774"/>
<polygon fill="black" stroke="black" points="768.5,-189.656 765,-179.656 761.5,-189.656 768.5,-189.656"/>
</g>
<!-- Unit_path_unit -->
<g id="node12" class="node"><title>Unit_path_unit</title>
<a xlink:href="Unit.html#path_unit" xlink:title="path_unit">
<ellipse fill="#f070d1" stroke="black" cx="426" cy="-160.794" rx="58.1882" ry="18.3848"/>
<text text-anchor="middle" x="426" y="-157.194" font-family="Times Roman,serif" font-size="14.00">path_unit</text>
</a>
</g>
<!-- Unit_isequiv_unit_coind&#45;&gt;Unit_path_unit -->
<g id="edge8" class="edge"><title>Unit_isequiv_unit_coind&#45;&gt;Unit_path_unit</title>
<path fill="none" stroke="black" d="M718.574,-265.223C654.498,-242.352 539.509,-201.309 474.403,-178.071"/>
<polygon fill="black" stroke="black" points="475.38,-174.703 464.785,-174.638 473.026,-181.296 475.38,-174.703"/>
</g>
<!-- Unit_isequiv_unit_name -->
<g id="node7" class="node"><title>Unit_isequiv_unit_name</title>
<a xlink:href="Unit.html#isequiv_unit_name" xlink:title="isequiv_unit_name">
<ellipse fill="#f070d1" stroke="black" cx="535" cy="-281.794" rx="103.238" ry="18.3848"/>
<ellipse fill="none" stroke="black" cx="535" cy="-281.794" rx="107.238" ry="22.3848"/>
<ellipse fill="none" stroke="black" cx="535" cy="-281.794" rx="111.238" ry="26.3848"/>
<text text-anchor="middle" x="535" y="-278.194" font-family="Times Roman,serif" font-size="14.00">isequiv_unit_name</text>
</a>
</g>
<!-- Unit_isequiv_unit_name&#45;&gt;Unit_path_unit -->
<g id="edge10" class="edge"><title>Unit_isequiv_unit_name&#45;&gt;Unit_path_unit</title>
<path fill="none" stroke="black" d="M511.617,-255.837C493.172,-235.361 467.576,-206.948 449.184,-186.53"/>
<polygon fill="black" stroke="black" points="451.567,-183.946 442.273,-178.859 446.366,-188.632 451.567,-183.946"/>
</g>
<!-- Unit_isequiv_unit_ind -->
<g id="node8" class="node"><title>Unit_isequiv_unit_ind</title>
<a xlink:href="Unit.html#isequiv_unit_ind" xlink:title="isequiv_unit_ind">
<ellipse fill="#f070d1" stroke="black" cx="252" cy="-413.794" rx="90.0502" ry="18.3848"/>
<ellipse fill="none" stroke="black" cx="252" cy="-413.794" rx="94.0299" ry="22.3848"/>
<ellipse fill="none" stroke="black" cx="252" cy="-413.794" rx="98.0096" ry="26.3848"/>
<text text-anchor="middle" x="252" y="-410.194" font-family="Times Roman,serif" font-size="14.00">isequiv_unit_ind</text>
</a>
</g>
<!-- Unit_equiv_path_unit -->
<g id="node9" class="node"><title>Unit_equiv_path_unit</title>
<a xlink:href="Unit.html#equiv_path_unit" xlink:title="equiv_path_unit">
<ellipse fill="#f070d1" stroke="black" cx="114" cy="-281.794" rx="90.0502" ry="18.3848"/>
<ellipse fill="none" stroke="black" cx="114" cy="-281.794" rx="94.0299" ry="22.3848"/>
<ellipse fill="none" stroke="black" cx="114" cy="-281.794" rx="98.0096" ry="26.3848"/>
<text text-anchor="middle" x="114" y="-278.194" font-family="Times Roman,serif" font-size="14.00">equiv_path_unit</text>
</a>
</g>
<!-- Unit_isequiv_path_unit -->
<g id="node10" class="node"><title>Unit_isequiv_path_unit</title>
<a xlink:href="Unit.html#isequiv_path_unit" xlink:title="isequiv_path_unit">
<ellipse fill="#f070d1" stroke="black" cx="186" cy="-160.794" rx="97.7889" ry="18.3848"/>
<text text-anchor="middle" x="186" y="-157.194" font-family="Times Roman,serif" font-size="14.00">isequiv_path_unit</text>
</a>
</g>
<!-- Unit_equiv_path_unit&#45;&gt;Unit_isequiv_path_unit -->
<g id="edge12" class="edge"><title>Unit_equiv_path_unit&#45;&gt;Unit_isequiv_path_unit</title>
<path fill="none" stroke="black" d="M129.623,-255.539C141.459,-235.648 157.676,-208.394 169.679,-188.222"/>
<polygon fill="black" stroke="black" points="172.761,-189.887 174.867,-179.504 166.746,-186.308 172.761,-189.887"/>
</g>
<!-- Unit_path_unit_uncurried -->
<g id="node13" class="node"><title>Unit_path_unit_uncurried</title>
<a xlink:href="Unit.html#path_unit_uncurried" xlink:title="path_unit_uncurried">
<ellipse fill="#f070d1" stroke="black" cx="192" cy="-51.7943" rx="111.016" ry="18.3848"/>
<text text-anchor="middle" x="192" y="-48.1943" font-family="Times Roman,serif" font-size="14.00">path_unit_uncurried</text>
</a>
</g>
<!-- Unit_isequiv_path_unit&#45;&gt;Unit_path_unit_uncurried -->
<g id="edge14" class="edge"><title>Unit_isequiv_path_unit&#45;&gt;Unit_path_unit_uncurried</title>
<path fill="none" stroke="black" d="M187.045,-141.808C187.974,-124.928 189.347,-99.9966 190.412,-80.65"/>
<polygon fill="black" stroke="black" points="193.912,-80.7403 190.967,-70.5631 186.922,-80.3555 193.912,-80.7403"/>
</g>
<!-- Unit_eta_path_unit -->
<g id="node11" class="node"><title>Unit_eta_path_unit</title>
<a xlink:href="Unit.html#eta_path_unit" xlink:title="eta_path_unit">
<ellipse fill="#f070d1" stroke="black" cx="318" cy="-281.794" rx="79.9031" ry="18.3848"/>
<ellipse fill="none" stroke="black" cx="318" cy="-281.794" rx="83.9031" ry="22.3848"/>
<ellipse fill="none" stroke="black" cx="318" cy="-281.794" rx="87.9031" ry="26.3848"/>
<text text-anchor="middle" x="318" y="-278.194" font-family="Times Roman,serif" font-size="14.00">eta_path_unit</text>
</a>
</g>
<!-- Unit_eta_path_unit&#45;&gt;Unit_path_unit -->
<g id="edge16" class="edge"><title>Unit_eta_path_unit&#45;&gt;Unit_path_unit</title>
<path fill="none" stroke="black" d="M340.904,-256.133C359.161,-235.678 384.613,-207.163 402.917,-186.656"/>
<polygon fill="black" stroke="black" points="405.747,-188.741 409.795,-178.95 400.525,-184.08 405.747,-188.741"/>
</g>
<!-- Unit_path_unit&#45;&gt;Unit_path_unit_uncurried -->
<g id="edge18" class="edge"><title>Unit_path_unit&#45;&gt;Unit_path_unit_uncurried</title>
<path fill="none" stroke="black" d="M392.97,-145.408C352.661,-126.632 284.249,-94.7649 238.599,-73.5007"/>
<polygon fill="black" stroke="black" points="240.048,-70.3144 229.505,-69.2645 237.092,-76.6597 240.048,-70.3144"/>
</g>
<!-- Unit_eta_unit -->
<g id="node14" class="node"><title>Unit_eta_unit</title>
<a xlink:href="Unit.html#eta_unit" xlink:title="eta_unit">
<ellipse fill="#f070d1" stroke="black" cx="76" cy="-413.794" rx="51.8935" ry="18.3848"/>
<ellipse fill="none" stroke="black" cx="76" cy="-413.794" rx="55.8604" ry="22.3848"/>
<ellipse fill="none" stroke="black" cx="76" cy="-413.794" rx="59.8273" ry="26.3848"/>
<text text-anchor="middle" x="76" y="-410.194" font-family="Times Roman,serif" font-size="14.00">eta_unit</text>
</a>
</g>
</g>
</svg>
