<?xml version="1.0" encoding="UTF-8" standalone="no"?>
<!DOCTYPE svg PUBLIC "-//W3C//DTD SVG 1.1//EN"
 "http://www.w3.org/Graphics/SVG/1.1/DTD/svg11.dtd">
<!-- Generated by graphviz version 2.39.20141222.0545 (20141222.0545)
 -->
<!-- Title: HoTT_EquivalenceVarieties Pages: 1 -->
<svg width="1903pt" height="956pt"
 viewBox="0.00 0.00 1903.00 955.50" xmlns="http://www.w3.org/2000/svg" xmlns:xlink="http://www.w3.org/1999/xlink">
<g id="graph0" class="graph" transform="scale(1 1) rotate(0) translate(4 951.5)">
<title>HoTT_EquivalenceVarieties</title>
<polygon fill="white" stroke="transparent" points="-4,4 -4,-951.5 1899,-951.5 1899,4 -4,4"/>
<g id="clust1" class="cluster"><title>cluster_EquivalenceVarieties</title>
<polygon fill="#ffffc3" stroke="black" points="8,-17.1106 8,-930.389 1887,-930.389 1887,-17.1106 8,-17.1106"/>
<text text-anchor="middle" x="74" y="-915.189" font-family="Times,serif" font-size="14.00">EquivalenceVarieties</text>
</g>
<!-- EquivalenceVarieties_relequiv_idmap -->
<g id="node1" class="node"><title>EquivalenceVarieties_relequiv_idmap</title>
<g id="a_node1"><a xlink:href="EquivalenceVarieties.html#relequiv_idmap" xlink:title="relequiv_idmap">
<ellipse fill="#f070d1" stroke="black" cx="1401" cy="-620.111" rx="66.1109" ry="18"/>
<ellipse fill="none" stroke="black" cx="1401" cy="-620.111" rx="70.0999" ry="22"/>
<ellipse fill="none" stroke="black" cx="1401" cy="-620.111" rx="74.0888" ry="26"/>
<text text-anchor="middle" x="1401" y="-616.411" font-family="Times,serif" font-size="14.00">relequiv_idmap</text>
</a>
</g>
</g>
<!-- EquivalenceVarieties_Build_RelEquiv -->
<g id="node15" class="node"><title>EquivalenceVarieties_Build_RelEquiv</title>
<g id="a_node15"><a xlink:href="EquivalenceVarieties.html#Build_RelEquiv" xlink:title="Build_RelEquiv">
<ellipse fill="#7faaff" stroke="black" cx="1583" cy="-432.111" rx="67.6881" ry="18"/>
<text text-anchor="middle" x="1583" y="-428.411" font-family="Times,serif" font-size="14.00">Build_RelEquiv</text>
</a>
</g>
</g>
<!-- EquivalenceVarieties_relequiv_idmap&#45;&gt;EquivalenceVarieties_Build_RelEquiv -->
<g id="edge1" class="edge"><title>EquivalenceVarieties_relequiv_idmap&#45;&gt;EquivalenceVarieties_Build_RelEquiv</title>
<path fill="none" stroke="black" d="M1425.17,-595.146C1459.96,-559.209 1523.79,-493.271 1558.67,-457.242"/>
<polygon fill="black" stroke="black" points="1561.62,-459.226 1566.06,-449.607 1556.59,-454.357 1561.62,-459.226"/>
</g>
<!-- EquivalenceVarieties_reinv_V -->
<g id="node2" class="node"><title>EquivalenceVarieties_reinv_V</title>
<g id="a_node2"><a xlink:href="EquivalenceVarieties.html#reinv_V" xlink:title="reinv_V">
<ellipse fill="#f070d1" stroke="black" cx="1207" cy="-808.111" rx="39.7687" ry="18"/>
<ellipse fill="none" stroke="black" cx="1207" cy="-808.111" rx="43.7811" ry="22"/>
<ellipse fill="none" stroke="black" cx="1207" cy="-808.111" rx="47.7934" ry="26"/>
<text text-anchor="middle" x="1207" y="-804.411" font-family="Times,serif" font-size="14.00">reinv_V</text>
</a>
</g>
</g>
<!-- EquivalenceVarieties_inverse_relequiv -->
<g id="node3" class="node"><title>EquivalenceVarieties_inverse_relequiv</title>
<g id="a_node3"><a xlink:href="EquivalenceVarieties.html#inverse_relequiv" xlink:title="inverse_relequiv">
<ellipse fill="#f070d1" stroke="black" cx="1239" cy="-620.111" rx="69.5877" ry="18"/>
<text text-anchor="middle" x="1239" y="-616.411" font-family="Times,serif" font-size="14.00">inverse_relequiv</text>
</a>
</g>
</g>
<!-- EquivalenceVarieties_reinv_V&#45;&gt;EquivalenceVarieties_inverse_relequiv -->
<g id="edge2" class="edge"><title>EquivalenceVarieties_reinv_V&#45;&gt;EquivalenceVarieties_inverse_relequiv</title>
<path fill="none" stroke="black" d="M1211.45,-781.97C1217.45,-746.708 1228.1,-684.166 1234.25,-648.018"/>
<polygon fill="black" stroke="black" points="1237.7,-648.582 1235.93,-638.137 1230.8,-647.408 1237.7,-648.582"/>
</g>
<!-- EquivalenceVarieties_inverse_relequiv&#45;&gt;EquivalenceVarieties_Build_RelEquiv -->
<g id="edge3" class="edge"><title>EquivalenceVarieties_inverse_relequiv&#45;&gt;EquivalenceVarieties_Build_RelEquiv</title>
<path fill="none" stroke="black" d="M1268.93,-603.756C1331.35,-569.643 1475.36,-490.939 1544.54,-453.131"/>
<polygon fill="black" stroke="black" points="1546.29,-456.161 1553.39,-448.294 1542.93,-450.018 1546.29,-456.161"/>
</g>
<!-- EquivalenceVarieties_RelIsEquiv -->
<g id="node4" class="node"><title>EquivalenceVarieties_RelIsEquiv</title>
<g id="a_node4"><a xlink:href="EquivalenceVarieties.html#RelIsEquiv" xlink:title="RelIsEquiv">
<ellipse fill="#f070d1" stroke="black" cx="1331" cy="-808.111" rx="50.0849" ry="18"/>
<ellipse fill="none" stroke="black" cx="1331" cy="-808.111" rx="54.088" ry="22"/>
<ellipse fill="none" stroke="black" cx="1331" cy="-808.111" rx="58.0912" ry="26"/>
<text text-anchor="middle" x="1331" y="-804.411" font-family="Times,serif" font-size="14.00">RelIsEquiv</text>
</a>
</g>
</g>
<!-- EquivalenceVarieties_RelEquiv -->
<g id="node16" class="node"><title>EquivalenceVarieties_RelEquiv</title>
<g id="a_node16"><a xlink:href="EquivalenceVarieties.html#RelEquiv" xlink:title="RelEquiv">
<ellipse fill="#e2cdfa" stroke="black" cx="1537" cy="-620.111" rx="44.393" ry="18"/>
<text text-anchor="middle" x="1537" y="-616.411" font-family="Times,serif" font-size="14.00">RelEquiv</text>
</a>
</g>
</g>
<!-- EquivalenceVarieties_RelIsEquiv&#45;&gt;EquivalenceVarieties_RelEquiv -->
<g id="edge4" class="edge"><title>EquivalenceVarieties_RelIsEquiv&#45;&gt;EquivalenceVarieties_RelEquiv</title>
<path fill="none" stroke="black" d="M1356.67,-784.68C1396.31,-748.507 1471.95,-679.476 1511.49,-643.393"/>
<polygon fill="black" stroke="black" points="1513.87,-645.961 1518.89,-636.635 1509.15,-640.79 1513.87,-645.961"/>
</g>
<!-- EquivalenceVarieties_equiv_of_relequiv -->
<g id="node5" class="node"><title>EquivalenceVarieties_equiv_of_relequiv</title>
<g id="a_node5"><a xlink:href="EquivalenceVarieties.html#equiv_of_relequiv" xlink:title="equiv_of_relequiv">
<ellipse fill="#f070d1" stroke="black" cx="1490" cy="-808.111" rx="75.297" ry="18"/>
<ellipse fill="none" stroke="black" cx="1490" cy="-808.111" rx="79.2919" ry="22"/>
<ellipse fill="none" stroke="black" cx="1490" cy="-808.111" rx="83.2868" ry="26"/>
<text text-anchor="middle" x="1490" y="-804.411" font-family="Times,serif" font-size="14.00">equiv_of_relequiv</text>
</a>
</g>
</g>
<!-- EquivalenceVarieties_relequiv_of_equiv -->
<g id="node6" class="node"><title>EquivalenceVarieties_relequiv_of_equiv</title>
<g id="a_node6"><a xlink:href="EquivalenceVarieties.html#relequiv_of_equiv" xlink:title="relequiv_of_equiv">
<ellipse fill="#f070d1" stroke="black" cx="1068" cy="-620.111" rx="75.297" ry="18"/>
<ellipse fill="none" stroke="black" cx="1068" cy="-620.111" rx="79.2919" ry="22"/>
<ellipse fill="none" stroke="black" cx="1068" cy="-620.111" rx="83.2868" ry="26"/>
<text text-anchor="middle" x="1068" y="-616.411" font-family="Times,serif" font-size="14.00">relequiv_of_equiv</text>
</a>
</g>
</g>
<!-- EquivalenceVarieties_relequiv_of_equiv_subproof -->
<g id="node7" class="node"><title>EquivalenceVarieties_relequiv_of_equiv_subproof</title>
<g id="a_node7"><a xlink:href="EquivalenceVarieties.html#relequiv_of_equiv_subproof" xlink:title="relequiv_of_equiv_subproof">
<ellipse fill="#facdef" stroke="black" cx="1387" cy="-432.111" rx="110.48" ry="18"/>
<text text-anchor="middle" x="1387" y="-428.411" font-family="Times,serif" font-size="14.00">relequiv_of_equiv_subproof</text>
</a>
</g>
</g>
<!-- EquivalenceVarieties_relequiv_of_equiv&#45;&gt;EquivalenceVarieties_relequiv_of_equiv_subproof -->
<g id="edge5" class="edge"><title>EquivalenceVarieties_relequiv_of_equiv&#45;&gt;EquivalenceVarieties_relequiv_of_equiv_subproof</title>
<path fill="none" stroke="black" d="M1107.12,-597.058C1168.67,-560.779 1287.43,-490.792 1348.56,-454.763"/>
<polygon fill="black" stroke="black" points="1350.67,-457.584 1357.51,-449.492 1347.12,-451.554 1350.67,-457.584"/>
</g>
<!-- EquivalenceVarieties_relequiv_of_equiv&#45;&gt;EquivalenceVarieties_Build_RelEquiv -->
<g id="edge6" class="edge"><title>EquivalenceVarieties_relequiv_of_equiv&#45;&gt;EquivalenceVarieties_Build_RelEquiv</title>
<path fill="none" stroke="black" d="M1122.63,-600.169C1223.36,-563.396 1436.91,-485.442 1533.59,-450.146"/>
<polygon fill="black" stroke="black" points="1534.94,-453.381 1543.13,-446.664 1532.54,-446.805 1534.94,-453.381"/>
</g>
<!-- EquivalenceVarieties_issig_relequiv -->
<g id="node8" class="node"><title>EquivalenceVarieties_issig_relequiv</title>
<g id="a_node8"><a xlink:href="EquivalenceVarieties.html#issig_relequiv" xlink:title="issig_relequiv">
<ellipse fill="#f070d1" stroke="black" cx="1809" cy="-620.111" rx="59.6142" ry="18"/>
<ellipse fill="none" stroke="black" cx="1809" cy="-620.111" rx="63.6021" ry="22"/>
<ellipse fill="none" stroke="black" cx="1809" cy="-620.111" rx="67.59" ry="26"/>
<text text-anchor="middle" x="1809" y="-616.411" font-family="Times,serif" font-size="14.00">issig_relequiv</text>
</a>
</g>
</g>
<!-- EquivalenceVarieties_issig_relequiv&#45;&gt;EquivalenceVarieties_Build_RelEquiv -->
<g id="edge7" class="edge"><title>EquivalenceVarieties_issig_relequiv&#45;&gt;EquivalenceVarieties_Build_RelEquiv</title>
<path fill="none" stroke="black" d="M1780.38,-596.3C1736.97,-560.192 1654.97,-491.982 1611.59,-455.891"/>
<polygon fill="black" stroke="black" points="1613.63,-453.035 1603.7,-449.331 1609.15,-458.417 1613.63,-453.035"/>
</g>
<!-- EquivalenceVarieties_RelEquiv_rec -->
<g id="node9" class="node"><title>EquivalenceVarieties_RelEquiv_rec</title>
<g id="a_node9"><a xlink:href="EquivalenceVarieties.html#RelEquiv_rec" xlink:title="RelEquiv_rec">
<ellipse fill="#f070d1" stroke="black" cx="1812" cy="-808.111" rx="59.2725" ry="18"/>
<ellipse fill="none" stroke="black" cx="1812" cy="-808.111" rx="63.2812" ry="22"/>
<ellipse fill="none" stroke="black" cx="1812" cy="-808.111" rx="67.2898" ry="26"/>
<text text-anchor="middle" x="1812" y="-804.411" font-family="Times,serif" font-size="14.00">RelEquiv_rec</text>
</a>
</g>
</g>
<!-- EquivalenceVarieties_RelEquiv_rect -->
<g id="node11" class="node"><title>EquivalenceVarieties_RelEquiv_rect</title>
<g id="a_node11"><a xlink:href="EquivalenceVarieties.html#RelEquiv_rect" xlink:title="RelEquiv_rect">
<ellipse fill="#f070d1" stroke="black" cx="1661" cy="-620.111" rx="61.99" ry="18"/>
<text text-anchor="middle" x="1661" y="-616.411" font-family="Times,serif" font-size="14.00">RelEquiv_rect</text>
</a>
</g>
</g>
<!-- EquivalenceVarieties_RelEquiv_rec&#45;&gt;EquivalenceVarieties_RelEquiv_rect -->
<g id="edge8" class="edge"><title>EquivalenceVarieties_RelEquiv_rec&#45;&gt;EquivalenceVarieties_RelEquiv_rect</title>
<path fill="none" stroke="black" d="M1791.95,-783.146C1763.28,-747.453 1710.84,-682.163 1681.78,-645.979"/>
<polygon fill="black" stroke="black" points="1684.25,-643.472 1675.26,-637.867 1678.8,-647.856 1684.25,-643.472"/>
</g>
<!-- EquivalenceVarieties_RelEquiv_ind -->
<g id="node10" class="node"><title>EquivalenceVarieties_RelEquiv_ind</title>
<g id="a_node10"><a xlink:href="EquivalenceVarieties.html#RelEquiv_ind" xlink:title="RelEquiv_ind">
<ellipse fill="#f070d1" stroke="black" cx="1659" cy="-808.111" rx="59.6142" ry="18"/>
<ellipse fill="none" stroke="black" cx="1659" cy="-808.111" rx="63.6021" ry="22"/>
<ellipse fill="none" stroke="black" cx="1659" cy="-808.111" rx="67.59" ry="26"/>
<text text-anchor="middle" x="1659" y="-804.411" font-family="Times,serif" font-size="14.00">RelEquiv_ind</text>
</a>
</g>
</g>
<!-- EquivalenceVarieties_RelEquiv_ind&#45;&gt;EquivalenceVarieties_RelEquiv_rect -->
<g id="edge9" class="edge"><title>EquivalenceVarieties_RelEquiv_ind&#45;&gt;EquivalenceVarieties_RelEquiv_rect</title>
<path fill="none" stroke="black" d="M1659.28,-781.97C1659.65,-746.859 1660.31,-684.702 1660.7,-648.485"/>
<polygon fill="black" stroke="black" points="1664.2,-648.174 1660.81,-638.137 1657.2,-648.099 1664.2,-648.174"/>
</g>
<!-- EquivalenceVarieties_RelEquiv_rect&#45;&gt;EquivalenceVarieties_Build_RelEquiv -->
<g id="edge10" class="edge"><title>EquivalenceVarieties_RelEquiv_rect&#45;&gt;EquivalenceVarieties_Build_RelEquiv</title>
<path fill="none" stroke="black" d="M1653.52,-602.084C1639.81,-569.027 1610.56,-498.529 1594.37,-459.511"/>
<polygon fill="black" stroke="black" points="1597.52,-457.978 1590.46,-450.082 1591.06,-460.66 1597.52,-457.978"/>
</g>
<!-- EquivalenceVarieties_relequiv_contr_g -->
<g id="node12" class="node"><title>EquivalenceVarieties_relequiv_contr_g</title>
<g id="a_node12"><a xlink:href="EquivalenceVarieties.html#relequiv_contr_g" xlink:title="relequiv_contr_g">
<ellipse fill="#f070d1" stroke="black" cx="1063" cy="-808.111" rx="70.7036" ry="18"/>
<ellipse fill="none" stroke="black" cx="1063" cy="-808.111" rx="74.6957" ry="22"/>
<ellipse fill="none" stroke="black" cx="1063" cy="-808.111" rx="78.6877" ry="26"/>
<text text-anchor="middle" x="1063" y="-804.411" font-family="Times,serif" font-size="14.00">relequiv_contr_g</text>
</a>
</g>
</g>
<!-- EquivalenceVarieties_relequiv_contr_f -->
<g id="node13" class="node"><title>EquivalenceVarieties_relequiv_contr_f</title>
<g id="a_node13"><a xlink:href="EquivalenceVarieties.html#relequiv_contr_f" xlink:title="relequiv_contr_f">
<ellipse fill="#f070d1" stroke="black" cx="889" cy="-808.111" rx="69.5832" ry="18"/>
<ellipse fill="none" stroke="black" cx="889" cy="-808.111" rx="73.5854" ry="22"/>
<ellipse fill="none" stroke="black" cx="889" cy="-808.111" rx="77.5877" ry="26"/>
<text text-anchor="middle" x="889" y="-804.411" font-family="Times,serif" font-size="14.00">relequiv_contr_f</text>
</a>
</g>
</g>
<!-- EquivalenceVarieties_equiv_rel -->
<g id="node14" class="node"><title>EquivalenceVarieties_equiv_rel</title>
<g id="a_node14"><a xlink:href="EquivalenceVarieties.html#equiv_rel" xlink:title="equiv_rel">
<ellipse fill="#f070d1" stroke="black" cx="741" cy="-808.111" rx="44.3627" ry="18"/>
<ellipse fill="none" stroke="black" cx="741" cy="-808.111" rx="48.3778" ry="22"/>
<ellipse fill="none" stroke="black" cx="741" cy="-808.111" rx="52.3929" ry="26"/>
<text text-anchor="middle" x="741" y="-804.411" font-family="Times,serif" font-size="14.00">equiv_rel</text>
</a>
</g>
</g>
<!-- EquivalenceVarieties_equiv_oopathsplit_isequiv -->
<g id="node17" class="node"><title>EquivalenceVarieties_equiv_oopathsplit_isequiv</title>
<g id="a_node17"><a xlink:href="EquivalenceVarieties.html#equiv_oopathsplit_isequiv" xlink:title="equiv_oopathsplit_isequiv">
<ellipse fill="#f070d1" stroke="black" cx="559" cy="-808.111" rx="103.193" ry="18"/>
<ellipse fill="none" stroke="black" cx="559" cy="-808.111" rx="107.188" ry="22"/>
<ellipse fill="none" stroke="black" cx="559" cy="-808.111" rx="111.182" ry="26"/>
<text text-anchor="middle" x="559" y="-804.411" font-family="Times,serif" font-size="14.00">equiv_oopathsplit_isequiv</text>
</a>
</g>
</g>
<!-- EquivalenceVarieties_ishprop_oopathsplit -->
<g id="node18" class="node"><title>EquivalenceVarieties_ishprop_oopathsplit</title>
<g id="a_node18"><a xlink:href="EquivalenceVarieties.html#ishprop_oopathsplit" xlink:title="ishprop_oopathsplit">
<ellipse fill="#f070d1" stroke="black" cx="852" cy="-620.111" rx="80.6858" ry="18"/>
<text text-anchor="middle" x="852" y="-616.411" font-family="Times,serif" font-size="14.00">ishprop_oopathsplit</text>
</a>
</g>
</g>
<!-- EquivalenceVarieties_equiv_oopathsplit_isequiv&#45;&gt;EquivalenceVarieties_ishprop_oopathsplit -->
<g id="edge11" class="edge"><title>EquivalenceVarieties_equiv_oopathsplit_isequiv&#45;&gt;EquivalenceVarieties_ishprop_oopathsplit</title>
<path fill="none" stroke="black" d="M597.305,-783.533C654.464,-746.857 761.272,-678.325 816.658,-642.787"/>
<polygon fill="black" stroke="black" points="818.886,-645.516 825.412,-637.17 815.106,-639.625 818.886,-645.516"/>
</g>
<!-- EquivalenceVarieties_contr_oopathsplit_isequiv -->
<g id="node19" class="node"><title>EquivalenceVarieties_contr_oopathsplit_isequiv</title>
<g id="a_node19"><a xlink:href="EquivalenceVarieties.html#contr_oopathsplit_isequiv" xlink:title="contr_oopathsplit_isequiv">
<ellipse fill="#f070d1" stroke="black" cx="818" cy="-432.111" rx="102.082" ry="18"/>
<text text-anchor="middle" x="818" y="-428.411" font-family="Times,serif" font-size="14.00">contr_oopathsplit_isequiv</text>
</a>
</g>
</g>
<!-- EquivalenceVarieties_ishprop_oopathsplit&#45;&gt;EquivalenceVarieties_contr_oopathsplit_isequiv -->
<g id="edge12" class="edge"><title>EquivalenceVarieties_ishprop_oopathsplit&#45;&gt;EquivalenceVarieties_contr_oopathsplit_isequiv</title>
<path fill="none" stroke="black" d="M848.74,-602.084C842.802,-569.252 830.185,-499.485 823.1,-460.31"/>
<polygon fill="black" stroke="black" points="826.524,-459.576 821.3,-450.358 819.636,-460.822 826.524,-459.576"/>
</g>
<!-- EquivalenceVarieties_isequiv_oopathsplit -->
<g id="node20" class="node"><title>EquivalenceVarieties_isequiv_oopathsplit</title>
<g id="a_node20"><a xlink:href="EquivalenceVarieties.html#isequiv_oopathsplit" xlink:title="isequiv_oopathsplit">
<ellipse fill="#f070d1" stroke="black" cx="1179" cy="-432.111" rx="79.0865" ry="18"/>
<text text-anchor="middle" x="1179" y="-428.411" font-family="Times,serif" font-size="14.00">isequiv_oopathsplit</text>
</a>
</g>
</g>
<!-- EquivalenceVarieties_ishprop_oopathsplit&#45;&gt;EquivalenceVarieties_isequiv_oopathsplit -->
<g id="edge13" class="edge"><title>EquivalenceVarieties_ishprop_oopathsplit&#45;&gt;EquivalenceVarieties_isequiv_oopathsplit</title>
<path fill="none" stroke="black" d="M881.307,-603.261C940.596,-569.175 1074.73,-492.056 1140.79,-454.08"/>
<polygon fill="black" stroke="black" points="1142.72,-457.008 1149.64,-448.99 1139.23,-450.94 1142.72,-457.008"/>
</g>
<!-- EquivalenceVarieties_contr_pathsplit_isequiv -->
<g id="node25" class="node"><title>EquivalenceVarieties_contr_pathsplit_isequiv</title>
<g id="a_node25"><a xlink:href="EquivalenceVarieties.html#contr_pathsplit_isequiv" xlink:title="contr_pathsplit_isequiv">
<ellipse fill="#f070d1" stroke="black" cx="997" cy="-244.111" rx="92.8835" ry="18"/>
<text text-anchor="middle" x="997" y="-240.411" font-family="Times,serif" font-size="14.00">contr_pathsplit_isequiv</text>
</a>
</g>
</g>
<!-- EquivalenceVarieties_contr_oopathsplit_isequiv&#45;&gt;EquivalenceVarieties_contr_pathsplit_isequiv -->
<g id="edge14" class="edge"><title>EquivalenceVarieties_contr_oopathsplit_isequiv&#45;&gt;EquivalenceVarieties_contr_pathsplit_isequiv</title>
<path fill="none" stroke="black" d="M835.163,-414.084C867.105,-380.536 935.764,-308.425 972.548,-269.792"/>
<polygon fill="black" stroke="black" points="975.528,-271.738 979.889,-262.082 970.458,-266.911 975.528,-271.738"/>
</g>
<!-- EquivalenceVarieties_ooPathSplit -->
<g id="node21" class="node"><title>EquivalenceVarieties_ooPathSplit</title>
<g id="a_node21"><a xlink:href="EquivalenceVarieties.html#ooPathSplit" xlink:title="ooPathSplit">
<ellipse fill="#f070d1" stroke="black" cx="1320" cy="-244.111" rx="51.9908" ry="18"/>
<text text-anchor="middle" x="1320" y="-240.411" font-family="Times,serif" font-size="14.00">ooPathSplit</text>
</a>
</g>
</g>
<!-- EquivalenceVarieties_isequiv_oopathsplit&#45;&gt;EquivalenceVarieties_ooPathSplit -->
<g id="edge15" class="edge"><title>EquivalenceVarieties_isequiv_oopathsplit&#45;&gt;EquivalenceVarieties_ooPathSplit</title>
<path fill="none" stroke="black" d="M1192.52,-414.084C1217.7,-380.506 1271.86,-308.294 1300.82,-269.687"/>
<polygon fill="black" stroke="black" points="1303.73,-271.635 1306.93,-261.535 1298.13,-267.435 1303.73,-271.635"/>
</g>
<!-- EquivalenceVarieties_isequiv_pathsplit -->
<g id="node26" class="node"><title>EquivalenceVarieties_isequiv_pathsplit</title>
<g id="a_node26"><a xlink:href="EquivalenceVarieties.html#isequiv_pathsplit" xlink:title="isequiv_pathsplit">
<ellipse fill="#f070d1" stroke="black" cx="1179" cy="-244.111" rx="70.6878" ry="18"/>
<text text-anchor="middle" x="1179" y="-240.411" font-family="Times,serif" font-size="14.00">isequiv_pathsplit</text>
</a>
</g>
</g>
<!-- EquivalenceVarieties_isequiv_oopathsplit&#45;&gt;EquivalenceVarieties_isequiv_pathsplit -->
<g id="edge16" class="edge"><title>EquivalenceVarieties_isequiv_oopathsplit&#45;&gt;EquivalenceVarieties_isequiv_pathsplit</title>
<path fill="none" stroke="black" d="M1179,-414.084C1179,-381.322 1179,-311.783 1179,-272.561"/>
<polygon fill="black" stroke="black" points="1182.5,-272.358 1179,-262.358 1175.5,-272.359 1182.5,-272.358"/>
</g>
<!-- EquivalenceVarieties_PathSplit -->
<g id="node27" class="node"><title>EquivalenceVarieties_PathSplit</title>
<g id="a_node27"><a xlink:href="EquivalenceVarieties.html#PathSplit" xlink:title="PathSplit">
<ellipse fill="#f070d1" stroke="black" cx="1179" cy="-73.1106" rx="42.7926" ry="18"/>
<text text-anchor="middle" x="1179" y="-69.4106" font-family="Times,serif" font-size="14.00">PathSplit</text>
</a>
</g>
</g>
<!-- EquivalenceVarieties_ooPathSplit&#45;&gt;EquivalenceVarieties_PathSplit -->
<g id="edge17" class="edge"><title>EquivalenceVarieties_ooPathSplit&#45;&gt;EquivalenceVarieties_PathSplit</title>
<path fill="none" stroke="black" d="M1305.7,-226.773C1280.62,-196.352 1228.6,-133.263 1199.62,-98.1214"/>
<polygon fill="black" stroke="black" points="1202.19,-95.7285 1193.12,-90.2397 1196.79,-100.182 1202.19,-95.7285"/>
</g>
<!-- EquivalenceVarieties_equiv_functor_pathsplit -->
<g id="node22" class="node"><title>EquivalenceVarieties_equiv_functor_pathsplit</title>
<g id="a_node22"><a xlink:href="EquivalenceVarieties.html#equiv_functor_pathsplit" xlink:title="equiv_functor_pathsplit">
<ellipse fill="#f070d1" stroke="black" cx="327" cy="-808.111" rx="94.7917" ry="18"/>
<ellipse fill="none" stroke="black" cx="327" cy="-808.111" rx="98.7875" ry="22"/>
<ellipse fill="none" stroke="black" cx="327" cy="-808.111" rx="102.783" ry="26"/>
<text text-anchor="middle" x="327" y="-804.411" font-family="Times,serif" font-size="14.00">equiv_functor_pathsplit</text>
</a>
</g>
</g>
<!-- EquivalenceVarieties_equiv_pathsplit_isequiv -->
<g id="node23" class="node"><title>EquivalenceVarieties_equiv_pathsplit_isequiv</title>
<g id="a_node23"><a xlink:href="EquivalenceVarieties.html#equiv_pathsplit_isequiv" xlink:title="equiv_pathsplit_isequiv">
<ellipse fill="#f070d1" stroke="black" cx="659" cy="-620.111" rx="94.7833" ry="18"/>
<text text-anchor="middle" x="659" y="-616.411" font-family="Times,serif" font-size="14.00">equiv_pathsplit_isequiv</text>
</a>
</g>
</g>
<!-- EquivalenceVarieties_equiv_functor_pathsplit&#45;&gt;EquivalenceVarieties_equiv_pathsplit_isequiv -->
<g id="edge18" class="edge"><title>EquivalenceVarieties_equiv_functor_pathsplit&#45;&gt;EquivalenceVarieties_equiv_pathsplit_isequiv</title>
<path fill="none" stroke="black" d="M369.048,-784.3C433.741,-747.667 556.789,-677.989 619.751,-642.336"/>
<polygon fill="black" stroke="black" points="621.613,-645.304 628.59,-637.331 618.164,-639.213 621.613,-645.304"/>
</g>
<!-- EquivalenceVarieties_ishprop_pathsplit -->
<g id="node24" class="node"><title>EquivalenceVarieties_ishprop_pathsplit</title>
<g id="a_node24"><a xlink:href="EquivalenceVarieties.html#ishprop_pathsplit" xlink:title="ishprop_pathsplit">
<ellipse fill="#f070d1" stroke="black" cx="1010" cy="-432.111" rx="71.4873" ry="18"/>
<text text-anchor="middle" x="1010" y="-428.411" font-family="Times,serif" font-size="14.00">ishprop_pathsplit</text>
</a>
</g>
</g>
<!-- EquivalenceVarieties_equiv_pathsplit_isequiv&#45;&gt;EquivalenceVarieties_ishprop_pathsplit -->
<g id="edge19" class="edge"><title>EquivalenceVarieties_equiv_pathsplit_isequiv&#45;&gt;EquivalenceVarieties_ishprop_pathsplit</title>
<path fill="none" stroke="black" d="M690.768,-603.095C755.046,-568.667 900.365,-490.833 970.57,-453.23"/>
<polygon fill="black" stroke="black" points="972.396,-456.223 979.558,-448.416 969.09,-450.052 972.396,-456.223"/>
</g>
<!-- EquivalenceVarieties_ishprop_pathsplit&#45;&gt;EquivalenceVarieties_contr_pathsplit_isequiv -->
<g id="edge20" class="edge"><title>EquivalenceVarieties_ishprop_pathsplit&#45;&gt;EquivalenceVarieties_contr_pathsplit_isequiv</title>
<path fill="none" stroke="black" d="M1008.75,-414.084C1006.49,-381.322 1001.68,-311.783 998.967,-272.561"/>
<polygon fill="black" stroke="black" points="1002.44,-272.093 998.262,-262.358 995.46,-272.576 1002.44,-272.093"/>
</g>
<!-- EquivalenceVarieties_ishprop_pathsplit&#45;&gt;EquivalenceVarieties_isequiv_pathsplit -->
<g id="edge21" class="edge"><title>EquivalenceVarieties_ishprop_pathsplit&#45;&gt;EquivalenceVarieties_isequiv_pathsplit</title>
<path fill="none" stroke="black" d="M1025.9,-414.424C1055.97,-380.972 1121.27,-308.326 1156.08,-269.608"/>
<polygon fill="black" stroke="black" points="1158.94,-271.664 1163.02,-261.887 1153.73,-266.984 1158.94,-271.664"/>
</g>
<!-- EquivalenceVarieties_contr_pathsplit_isequiv&#45;&gt;EquivalenceVarieties_PathSplit -->
<g id="edge22" class="edge"><title>EquivalenceVarieties_contr_pathsplit_isequiv&#45;&gt;EquivalenceVarieties_PathSplit</title>
<path fill="none" stroke="black" d="M1015.79,-226.455C1048.78,-195.465 1117.08,-131.287 1154.01,-96.5939"/>
<polygon fill="black" stroke="black" points="1156.49,-99.0592 1161.39,-89.661 1151.7,-93.9576 1156.49,-99.0592"/>
</g>
<!-- EquivalenceVarieties_fcontr_isequiv -->
<g id="node39" class="node"><title>EquivalenceVarieties_fcontr_isequiv</title>
<g id="a_node39"><a xlink:href="EquivalenceVarieties.html#fcontr_isequiv" xlink:title="fcontr_isequiv">
<ellipse fill="#f070d1" stroke="black" cx="524" cy="-73.1106" rx="61.99" ry="18"/>
<text text-anchor="middle" x="524" y="-69.4106" font-family="Times,serif" font-size="14.00">fcontr_isequiv</text>
</a>
</g>
</g>
<!-- EquivalenceVarieties_contr_pathsplit_isequiv&#45;&gt;EquivalenceVarieties_fcontr_isequiv -->
<g id="edge23" class="edge"><title>EquivalenceVarieties_contr_pathsplit_isequiv&#45;&gt;EquivalenceVarieties_fcontr_isequiv</title>
<path fill="none" stroke="black" d="M952.926,-228.177C864.194,-196.098 664.634,-123.953 572.414,-90.6133"/>
<polygon fill="black" stroke="black" points="573.365,-87.2357 562.771,-87.1272 570.985,-93.8187 573.365,-87.2357"/>
</g>
<!-- EquivalenceVarieties_isequiv_pathsplit&#45;&gt;EquivalenceVarieties_PathSplit -->
<g id="edge24" class="edge"><title>EquivalenceVarieties_isequiv_pathsplit&#45;&gt;EquivalenceVarieties_PathSplit</title>
<path fill="none" stroke="black" d="M1179,-225.811C1179,-195.983 1179,-136.681 1179,-101.398"/>
<polygon fill="black" stroke="black" points="1182.5,-101.279 1179,-91.279 1175.5,-101.279 1182.5,-101.279"/>
</g>
<!-- EquivalenceVarieties_isequiv_fcontr -->
<g id="node38" class="node"><title>EquivalenceVarieties_isequiv_fcontr</title>
<g id="a_node38"><a xlink:href="EquivalenceVarieties.html#isequiv_fcontr" xlink:title="isequiv_fcontr">
<ellipse fill="#f070d1" stroke="black" cx="342" cy="-73.1106" rx="61.99" ry="18"/>
<text text-anchor="middle" x="342" y="-69.4106" font-family="Times,serif" font-size="14.00">isequiv_fcontr</text>
</a>
</g>
</g>
<!-- EquivalenceVarieties_isequiv_pathsplit&#45;&gt;EquivalenceVarieties_isequiv_fcontr -->
<g id="edge25" class="edge"><title>EquivalenceVarieties_isequiv_pathsplit&#45;&gt;EquivalenceVarieties_isequiv_fcontr</title>
<path fill="none" stroke="black" d="M1137.35,-229.486C1125.09,-225.477 1111.59,-221.348 1099,-218.111 966.403,-184.007 562.102,-111.777 405.189,-84.1627"/>
<polygon fill="black" stroke="black" points="405.672,-80.694 395.217,-82.4092 404.46,-87.5882 405.672,-80.694"/>
</g>
<!-- EquivalenceVarieties_equiv_biinv_isequiv -->
<g id="node28" class="node"><title>EquivalenceVarieties_equiv_biinv_isequiv</title>
<g id="a_node28"><a xlink:href="EquivalenceVarieties.html#equiv_biinv_isequiv" xlink:title="equiv_biinv_isequiv">
<ellipse fill="#f070d1" stroke="black" cx="456" cy="-620.111" rx="82.5816" ry="18"/>
<ellipse fill="none" stroke="black" cx="456" cy="-620.111" rx="86.5835" ry="22"/>
<ellipse fill="none" stroke="black" cx="456" cy="-620.111" rx="90.5854" ry="26"/>
<text text-anchor="middle" x="456" y="-616.411" font-family="Times,serif" font-size="14.00">equiv_biinv_isequiv</text>
</a>
</g>
</g>
<!-- EquivalenceVarieties_isprop_biinv -->
<g id="node29" class="node"><title>EquivalenceVarieties_isprop_biinv</title>
<g id="a_node29"><a xlink:href="EquivalenceVarieties.html#isprop_biinv" xlink:title="isprop_biinv">
<ellipse fill="#f070d1" stroke="black" cx="643" cy="-432.111" rx="55.4913" ry="18"/>
<text text-anchor="middle" x="643" y="-428.411" font-family="Times,serif" font-size="14.00">isprop_biinv</text>
</a>
</g>
</g>
<!-- EquivalenceVarieties_equiv_biinv_isequiv&#45;&gt;EquivalenceVarieties_isprop_biinv -->
<g id="edge26" class="edge"><title>EquivalenceVarieties_equiv_biinv_isequiv&#45;&gt;EquivalenceVarieties_isprop_biinv</title>
<path fill="none" stroke="black" d="M481.22,-594.756C517.332,-558.451 583.324,-492.106 618.841,-456.399"/>
<polygon fill="black" stroke="black" points="621.364,-458.825 625.935,-449.267 616.402,-453.888 621.364,-458.825"/>
</g>
<!-- EquivalenceVarieties_isequiv_biinv -->
<g id="node30" class="node"><title>EquivalenceVarieties_isequiv_biinv</title>
<g id="a_node30"><a xlink:href="EquivalenceVarieties.html#isequiv_biinv" xlink:title="isequiv_biinv">
<ellipse fill="#f070d1" stroke="black" cx="828" cy="-244.111" rx="58.4896" ry="18"/>
<text text-anchor="middle" x="828" y="-240.411" font-family="Times,serif" font-size="14.00">isequiv_biinv</text>
</a>
</g>
</g>
<!-- EquivalenceVarieties_isprop_biinv&#45;&gt;EquivalenceVarieties_isequiv_biinv -->
<g id="edge27" class="edge"><title>EquivalenceVarieties_isprop_biinv&#45;&gt;EquivalenceVarieties_isequiv_biinv</title>
<path fill="none" stroke="black" d="M660.073,-414.761C693.113,-381.185 765.882,-307.236 803.859,-268.643"/>
<polygon fill="black" stroke="black" points="806.449,-271.001 810.969,-261.418 801.46,-266.091 806.449,-271.001"/>
</g>
<!-- EquivalenceVarieties_contr_retr_equiv -->
<g id="node35" class="node"><title>EquivalenceVarieties_contr_retr_equiv</title>
<g id="a_node35"><a xlink:href="EquivalenceVarieties.html#contr_retr_equiv" xlink:title="contr_retr_equiv">
<ellipse fill="#f070d1" stroke="black" cx="682" cy="-244.111" rx="69.5877" ry="18"/>
<text text-anchor="middle" x="682" y="-240.411" font-family="Times,serif" font-size="14.00">contr_retr_equiv</text>
</a>
</g>
</g>
<!-- EquivalenceVarieties_isprop_biinv&#45;&gt;EquivalenceVarieties_contr_retr_equiv -->
<g id="edge28" class="edge"><title>EquivalenceVarieties_isprop_biinv&#45;&gt;EquivalenceVarieties_contr_retr_equiv</title>
<path fill="none" stroke="black" d="M646.739,-414.084C653.55,-381.252 668.023,-311.485 676.15,-272.31"/>
<polygon fill="black" stroke="black" points="679.61,-272.861 678.215,-262.358 672.756,-271.439 679.61,-272.861"/>
</g>
<!-- EquivalenceVarieties_contr_sect_equiv -->
<g id="node36" class="node"><title>EquivalenceVarieties_contr_sect_equiv</title>
<g id="a_node36"><a xlink:href="EquivalenceVarieties.html#contr_sect_equiv" xlink:title="contr_sect_equiv">
<ellipse fill="#f070d1" stroke="black" cx="524" cy="-244.111" rx="70.6878" ry="18"/>
<text text-anchor="middle" x="524" y="-240.411" font-family="Times,serif" font-size="14.00">contr_sect_equiv</text>
</a>
</g>
</g>
<!-- EquivalenceVarieties_isprop_biinv&#45;&gt;EquivalenceVarieties_contr_sect_equiv -->
<g id="edge29" class="edge"><title>EquivalenceVarieties_isprop_biinv&#45;&gt;EquivalenceVarieties_contr_sect_equiv</title>
<path fill="none" stroke="black" d="M631.805,-414.424C610.808,-381.252 565.415,-309.539 540.759,-270.587"/>
<polygon fill="black" stroke="black" points="543.558,-268.465 535.252,-261.887 537.643,-272.209 543.558,-268.465"/>
</g>
<!-- EquivalenceVarieties_BiInv -->
<g id="node31" class="node"><title>EquivalenceVarieties_BiInv</title>
<g id="a_node31"><a xlink:href="EquivalenceVarieties.html#BiInv" xlink:title="BiInv">
<ellipse fill="#f070d1" stroke="black" cx="828" cy="-73.1106" rx="30.5947" ry="18"/>
<text text-anchor="middle" x="828" y="-69.4106" font-family="Times,serif" font-size="14.00">BiInv</text>
</a>
</g>
</g>
<!-- EquivalenceVarieties_isequiv_biinv&#45;&gt;EquivalenceVarieties_BiInv -->
<g id="edge30" class="edge"><title>EquivalenceVarieties_isequiv_biinv&#45;&gt;EquivalenceVarieties_BiInv</title>
<path fill="none" stroke="black" d="M828,-225.811C828,-195.983 828,-136.681 828,-101.398"/>
<polygon fill="black" stroke="black" points="831.5,-101.279 828,-91.279 824.5,-101.279 831.5,-101.279"/>
</g>
<!-- EquivalenceVarieties_equiv_fcontr_isequiv_ -->
<g id="node32" class="node"><title>EquivalenceVarieties_equiv_fcontr_isequiv_</title>
<g id="a_node32"><a xlink:href="EquivalenceVarieties.html#equiv_fcontr_isequiv'" xlink:title="equiv_fcontr_isequiv&#39;">
<ellipse fill="#f070d1" stroke="black" cx="111" cy="-808.111" rx="87.1769" ry="18"/>
<ellipse fill="none" stroke="black" cx="111" cy="-808.111" rx="91.1807" ry="22"/>
<ellipse fill="none" stroke="black" cx="111" cy="-808.111" rx="95.1846" ry="26"/>
<text text-anchor="middle" x="111" y="-804.411" font-family="Times,serif" font-size="14.00">equiv_fcontr_isequiv&#39;</text>
</a>
</g>
</g>
<!-- EquivalenceVarieties_equiv_fcontr_isequiv -->
<g id="node33" class="node"><title>EquivalenceVarieties_equiv_fcontr_isequiv</title>
<g id="a_node33"><a xlink:href="EquivalenceVarieties.html#equiv_fcontr_isequiv" xlink:title="equiv_fcontr_isequiv">
<ellipse fill="#f070d1" stroke="black" cx="342" cy="-244.111" rx="85.2729" ry="18"/>
<ellipse fill="none" stroke="black" cx="342" cy="-244.111" rx="89.279" ry="22"/>
<ellipse fill="none" stroke="black" cx="342" cy="-244.111" rx="93.2851" ry="26"/>
<text text-anchor="middle" x="342" y="-240.411" font-family="Times,serif" font-size="14.00">equiv_fcontr_isequiv</text>
</a>
</g>
</g>
<!-- EquivalenceVarieties_equiv_fcontr_isequiv&#45;&gt;EquivalenceVarieties_isequiv_fcontr -->
<g id="edge31" class="edge"><title>EquivalenceVarieties_equiv_fcontr_isequiv&#45;&gt;EquivalenceVarieties_isequiv_fcontr</title>
<path fill="none" stroke="black" d="M342,-217.767C342,-186.287 342,-133.822 342,-101.475"/>
<polygon fill="black" stroke="black" points="345.5,-101.336 342,-91.3359 338.5,-101.336 345.5,-101.336"/>
</g>
<!-- EquivalenceVarieties_equiv_fcontr_isequiv&#45;&gt;EquivalenceVarieties_fcontr_isequiv -->
<g id="edge32" class="edge"><title>EquivalenceVarieties_equiv_fcontr_isequiv&#45;&gt;EquivalenceVarieties_fcontr_isequiv</title>
<path fill="none" stroke="black" d="M368.855,-218.879C403.695,-186.144 464.059,-129.429 498.316,-97.2421"/>
<polygon fill="black" stroke="black" points="500.727,-99.7794 505.618,-90.3812 495.934,-94.6778 500.727,-99.7794"/>
</g>
<!-- EquivalenceVarieties_hprop_isequiv -->
<g id="node34" class="node"><title>EquivalenceVarieties_hprop_isequiv</title>
<g id="a_node34"><a xlink:href="EquivalenceVarieties.html#hprop_isequiv" xlink:title="hprop_isequiv">
<ellipse fill="#facdef" stroke="black" cx="501" cy="-432.111" rx="61.1783" ry="18"/>
<ellipse fill="none" stroke="black" cx="501" cy="-432.111" rx="65.1838" ry="22"/>
<ellipse fill="none" stroke="black" cx="501" cy="-432.111" rx="69.1893" ry="26"/>
<text text-anchor="middle" x="501" y="-428.411" font-family="Times,serif" font-size="14.00">hprop_isequiv</text>
</a>
</g>
</g>
<!-- EquivalenceVarieties_hprop_isequiv&#45;&gt;EquivalenceVarieties_contr_sect_equiv -->
<g id="edge33" class="edge"><title>EquivalenceVarieties_hprop_isequiv&#45;&gt;EquivalenceVarieties_contr_sect_equiv</title>
<path fill="none" stroke="black" d="M504.198,-405.97C508.494,-370.859 516.098,-308.702 520.529,-272.485"/>
<polygon fill="black" stroke="black" points="524.054,-272.488 521.795,-262.137 517.106,-271.638 524.054,-272.488"/>
</g>
<!-- EquivalenceVarieties_contr_retr_equiv&#45;&gt;EquivalenceVarieties_fcontr_isequiv -->
<g id="edge34" class="edge"><title>EquivalenceVarieties_contr_retr_equiv&#45;&gt;EquivalenceVarieties_fcontr_isequiv</title>
<path fill="none" stroke="black" d="M665.686,-226.455C637.465,-195.912 579.458,-133.131 547.102,-98.1134"/>
<polygon fill="black" stroke="black" points="549.582,-95.64 540.225,-90.6705 544.441,-100.391 549.582,-95.64"/>
</g>
<!-- EquivalenceVarieties_contr_sect_equiv&#45;&gt;EquivalenceVarieties_fcontr_isequiv -->
<g id="edge35" class="edge"><title>EquivalenceVarieties_contr_sect_equiv&#45;&gt;EquivalenceVarieties_fcontr_isequiv</title>
<path fill="none" stroke="black" d="M524,-225.811C524,-195.983 524,-136.681 524,-101.398"/>
<polygon fill="black" stroke="black" points="527.5,-101.279 524,-91.279 520.5,-101.279 527.5,-101.279"/>
</g>
<!-- EquivalenceVarieties_isequiv_inhab_codomain -->
<g id="node37" class="node"><title>EquivalenceVarieties_isequiv_inhab_codomain</title>
<g id="a_node37"><a xlink:href="EquivalenceVarieties.html#isequiv_inhab_codomain" xlink:title="isequiv_inhab_codomain">
<ellipse fill="#f070d1" stroke="black" cx="123" cy="-244.111" rx="99.3868" ry="18"/>
<ellipse fill="none" stroke="black" cx="123" cy="-244.111" rx="103.385" ry="22"/>
<ellipse fill="none" stroke="black" cx="123" cy="-244.111" rx="107.382" ry="26"/>
<text text-anchor="middle" x="123" y="-240.411" font-family="Times,serif" font-size="14.00">isequiv_inhab_codomain</text>
</a>
</g>
</g>
<!-- EquivalenceVarieties_isequiv_inhab_codomain&#45;&gt;EquivalenceVarieties_isequiv_fcontr -->
<g id="edge36" class="edge"><title>EquivalenceVarieties_isequiv_inhab_codomain&#45;&gt;EquivalenceVarieties_isequiv_fcontr</title>
<path fill="none" stroke="black" d="M154.844,-219.246C197.13,-186.228 271.246,-128.357 312.38,-96.2388"/>
<polygon fill="black" stroke="black" points="314.662,-98.897 320.39,-89.9839 310.354,-93.3796 314.662,-98.897"/>
</g>
<!-- EquivalenceVarieties_isequiv_inhab_codomain&#45;&gt;EquivalenceVarieties_fcontr_isequiv -->
<g id="edge37" class="edge"><title>EquivalenceVarieties_isequiv_inhab_codomain&#45;&gt;EquivalenceVarieties_fcontr_isequiv</title>
<path fill="none" stroke="black" d="M176.25,-221.403C256.074,-187.364 405.296,-123.73 479.599,-92.0449"/>
<polygon fill="black" stroke="black" points="481.315,-95.118 489.141,-87.9758 478.569,-88.679 481.315,-95.118"/>
</g>
</g>
</svg>
