<?xml version="1.0" encoding="UTF-8" standalone="no"?>
<!DOCTYPE svg PUBLIC "-//W3C//DTD SVG 1.1//EN"
 "http://www.w3.org/Graphics/SVG/1.1/DTD/svg11.dtd">
<!-- Generated by graphviz version 2.39.20161220.0128 (20161220.0128)
 -->
<!-- Title: HoTT_PropResizing_Truncations Pages: 1 -->
<svg width="510pt" height="259pt"
 viewBox="0.00 0.00 510.00 259.00" xmlns="http://www.w3.org/2000/svg" xmlns:xlink="http://www.w3.org/1999/xlink">
<g id="graph0" class="graph" transform="scale(1 1) rotate(0) translate(4 255)">
<title>HoTT_PropResizing_Truncations</title>
<polygon fill="#ffffff" stroke="transparent" points="-4,4 -4,-255 506,-255 506,4 -4,4"/>
<g id="clust1" class="cluster">
<title>cluster_Truncations</title>
<polygon fill="#ffffc3" stroke="#000000" points="11.2809,-8 11.2809,-243 490.7191,-243 490.7191,-8 11.2809,-8"/>
<text text-anchor="middle" x="51.7809" y="-227.8" font-family="Times,serif" font-size="14.00" fill="#000000">Truncations</text>
</g>
<!-- Truncations_functor_merely -->
<g id="node1" class="node">
<title>Truncations_functor_merely</title>
<g id="a_node1"><a xlink:href="Truncations.html#functor_merely" xlink:title="functor_merely">
<ellipse fill="#f070d1" stroke="#000000" cx="284.5" cy="-186" rx="65.7729" ry="18"/>
<ellipse fill="none" stroke="#000000" cx="284.5" cy="-186" rx="69.7808" ry="22"/>
<ellipse fill="none" stroke="#000000" cx="284.5" cy="-186" rx="73.7886" ry="26"/>
<text text-anchor="middle" x="284.5" y="-182.3" font-family="Times,serif" font-size="14.00" fill="#000000">functor_merely</text>
</a>
</g>
</g>
<!-- Truncations_merely_rec -->
<g id="node2" class="node">
<title>Truncations_merely_rec</title>
<g id="a_node2"><a xlink:href="Truncations.html#merely_rec" xlink:title="merely_rec">
<ellipse fill="#f070d1" stroke="#000000" cx="94.5" cy="-106" rx="50.8918" ry="18"/>
<text text-anchor="middle" x="94.5" y="-102.3" font-family="Times,serif" font-size="14.00" fill="#000000">merely_rec</text>
</a>
</g>
</g>
<!-- Truncations_functor_merely&#45;&gt;Truncations_merely_rec -->
<g id="edge1" class="edge">
<title>Truncations_functor_merely&#45;&gt;Truncations_merely_rec</title>
<path fill="none" stroke="#000000" d="M237.0451,-166.019C206.1997,-153.0314 166.3442,-136.2502 136.622,-123.7356"/>
<polygon fill="#000000" stroke="#000000" points="137.9269,-120.4875 127.3523,-119.8326 135.2105,-126.9389 137.9269,-120.4875"/>
</g>
<!-- Truncations_ishprop_merely -->
<g id="node3" class="node">
<title>Truncations_ishprop_merely</title>
<g id="a_node3"><a xlink:href="Truncations.html#ishprop_merely" xlink:title="ishprop_merely">
<ellipse fill="#f070d1" stroke="#000000" cx="284.5" cy="-106" rx="66.0889" ry="18"/>
<text text-anchor="middle" x="284.5" y="-102.3" font-family="Times,serif" font-size="14.00" fill="#000000">ishprop_merely</text>
</a>
</g>
</g>
<!-- Truncations_functor_merely&#45;&gt;Truncations_ishprop_merely -->
<g id="edge2" class="edge">
<title>Truncations_functor_merely&#45;&gt;Truncations_ishprop_merely</title>
<path fill="none" stroke="#000000" d="M284.5,-159.805C284.5,-151.6026 284.5,-142.5174 284.5,-134.1839"/>
<polygon fill="#000000" stroke="#000000" points="288.0001,-134.1532 284.5,-124.1532 281.0001,-134.1533 288.0001,-134.1532"/>
</g>
<!-- Truncations_trm -->
<g id="node4" class="node">
<title>Truncations_trm</title>
<g id="a_node4"><a xlink:href="Truncations.html#trm" xlink:title="trm">
<ellipse fill="#f070d1" stroke="#000000" cx="441.5" cy="-106" rx="27" ry="18"/>
<text text-anchor="middle" x="441.5" y="-102.3" font-family="Times,serif" font-size="14.00" fill="#000000">trm</text>
</a>
</g>
</g>
<!-- Truncations_functor_merely&#45;&gt;Truncations_trm -->
<g id="edge3" class="edge">
<title>Truncations_functor_merely&#45;&gt;Truncations_trm</title>
<path fill="none" stroke="#000000" d="M326.5731,-164.5615C353.0346,-151.0779 386.5918,-133.9787 410.6026,-121.7439"/>
<polygon fill="#000000" stroke="#000000" points="412.2999,-124.8073 419.6208,-117.1486 409.1218,-118.5703 412.2999,-124.8073"/>
</g>
<!-- Truncations_merely -->
<g id="node5" class="node">
<title>Truncations_merely</title>
<g id="a_node5"><a xlink:href="Truncations.html#merely" xlink:title="merely">
<ellipse fill="#f070d1" stroke="#000000" cx="94.5" cy="-34" rx="35.9954" ry="18"/>
<text text-anchor="middle" x="94.5" y="-30.3" font-family="Times,serif" font-size="14.00" fill="#000000">merely</text>
</a>
</g>
</g>
<!-- Truncations_merely_rec&#45;&gt;Truncations_merely -->
<g id="edge4" class="edge">
<title>Truncations_merely_rec&#45;&gt;Truncations_merely</title>
<path fill="none" stroke="#000000" d="M94.5,-87.8314C94.5,-80.131 94.5,-70.9743 94.5,-62.4166"/>
<polygon fill="#000000" stroke="#000000" points="98.0001,-62.4132 94.5,-52.4133 91.0001,-62.4133 98.0001,-62.4132"/>
</g>
</g>
</svg>
