<?xml version="1.0" encoding="UTF-8" standalone="no"?>
<!DOCTYPE svg PUBLIC "-//W3C//DTD SVG 1.1//EN"
 "http://www.w3.org/Graphics/SVG/1.1/DTD/svg11.dtd">
<!-- Generated by graphviz version 2.26.3 (20100126.1600)
 -->
<!-- Title: HoTT_categories_Yoneda Pages: 1 -->
<svg width="1222pt" height="615pt"
 viewBox="0.00 0.00 1222.00 615.00" xmlns="http://www.w3.org/2000/svg" xmlns:xlink="http://www.w3.org/1999/xlink">
<g id="graph1" class="graph" transform="scale(1 1) rotate(0) translate(4 611)">
<title>HoTT_categories_Yoneda</title>
<polygon fill="white" stroke="white" points="-4,5 -4,-611 1219,-611 1219,5 -4,5"/>
<g id="graph2" class="cluster"><title>cluster_Yoneda</title>
<polygon fill="#ffffc3" stroke="black" points="8,-8.2585 8,-598.741 1206,-598.741 1206,-8.2585 8,-8.2585"/>
<text text-anchor="middle" x="41" y="-582.141" font-family="Times Roman,serif" font-size="14.00">Yoneda</text>
</g>
<!-- Yoneda_yoneda_embedding -->
<g id="node1" class="node"><title>Yoneda_yoneda_embedding</title>
<a xlink:href="Yoneda.html#yoneda_embedding" xlink:title="yoneda_embedding">
<ellipse fill="#facdef" stroke="black" cx="932" cy="-536.259" rx="104.895" ry="18.3848"/>
<ellipse fill="none" stroke="black" cx="932" cy="-536.259" rx="108.877" ry="22.3848"/>
<ellipse fill="none" stroke="black" cx="932" cy="-536.259" rx="112.86" ry="26.3848"/>
<text text-anchor="middle" x="932" y="-532.659" font-family="Times Roman,serif" font-size="14.00">yoneda_embedding</text>
</a>
</g>
<!-- Yoneda_coyoneda_embedding -->
<g id="node2" class="node"><title>Yoneda_coyoneda_embedding</title>
<a xlink:href="Yoneda.html#coyoneda_embedding" xlink:title="coyoneda_embedding">
<ellipse fill="#facdef" stroke="black" cx="932" cy="-443.259" rx="115.966" ry="18.3848"/>
<text text-anchor="middle" x="932" y="-439.659" font-family="Times Roman,serif" font-size="14.00">coyoneda_embedding</text>
</a>
</g>
<!-- Yoneda_yoneda_embedding&#45;&gt;Yoneda_coyoneda_embedding -->
<g id="edge2" class="edge"><title>Yoneda_yoneda_embedding&#45;&gt;Yoneda_coyoneda_embedding</title>
<path fill="none" stroke="black" d="M932,-509.359C932,-497.695 932,-484.016 932,-472.138"/>
<polygon fill="black" stroke="black" points="935.5,-471.844 932,-461.844 928.5,-471.845 935.5,-471.844"/>
</g>
<!-- Yoneda_coyoneda_lemma -->
<g id="node6" class="node"><title>Yoneda_coyoneda_lemma</title>
<a xlink:href="Yoneda.html#coyoneda_lemma" xlink:title="coyoneda_lemma">
<ellipse fill="#f070d1" stroke="black" cx="705" cy="-358.259" rx="94.9596" ry="18.3848"/>
<text text-anchor="middle" x="705" y="-354.659" font-family="Times Roman,serif" font-size="14.00">coyoneda_lemma</text>
</a>
</g>
<!-- Yoneda_coyoneda_embedding&#45;&gt;Yoneda_coyoneda_lemma -->
<g id="edge4" class="edge"><title>Yoneda_coyoneda_embedding&#45;&gt;Yoneda_coyoneda_lemma</title>
<path fill="none" stroke="black" d="M886.336,-426.16C849.456,-412.35 797.482,-392.888 758.626,-378.339"/>
<polygon fill="black" stroke="black" points="759.639,-374.981 749.047,-374.752 757.185,-381.536 759.639,-374.981"/>
</g>
<!-- Yoneda_yoneda_lemma -->
<g id="node3" class="node"><title>Yoneda_yoneda_lemma</title>
<a xlink:href="Yoneda.html#yoneda_lemma" xlink:title="yoneda_lemma">
<ellipse fill="#f070d1" stroke="black" cx="705" cy="-443.259" rx="84.8528" ry="18.3848"/>
<ellipse fill="none" stroke="black" cx="705" cy="-443.259" rx="88.8528" ry="22.3848"/>
<ellipse fill="none" stroke="black" cx="705" cy="-443.259" rx="92.8528" ry="26.3848"/>
<text text-anchor="middle" x="705" y="-439.659" font-family="Times Roman,serif" font-size="14.00">yoneda_lemma</text>
</a>
</g>
<!-- Yoneda_yoneda_lemma&#45;&gt;Yoneda_coyoneda_lemma -->
<g id="edge6" class="edge"><title>Yoneda_yoneda_lemma&#45;&gt;Yoneda_coyoneda_lemma</title>
<path fill="none" stroke="black" d="M705,-416.364C705,-407.035 705,-396.54 705,-387.063"/>
<polygon fill="black" stroke="black" points="708.5,-386.912 705,-376.912 701.5,-386.912 708.5,-386.912"/>
</g>
<!-- Yoneda_yoneda_natural_transformation -->
<g id="node4" class="node"><title>Yoneda_yoneda_natural_transformation</title>
<a xlink:href="Yoneda.html#yoneda_natural_transformation" xlink:title="yoneda_natural_transformation">
<ellipse fill="#f070d1" stroke="black" cx="420" cy="-443.259" rx="166.17" ry="18.3848"/>
<ellipse fill="none" stroke="black" cx="420" cy="-443.259" rx="170.17" ry="22.3848"/>
<ellipse fill="none" stroke="black" cx="420" cy="-443.259" rx="174.17" ry="26.3848"/>
<text text-anchor="middle" x="420" y="-439.659" font-family="Times Roman,serif" font-size="14.00">yoneda_natural_transformation</text>
</a>
</g>
<!-- Yoneda_yoneda_natural_transformation&#45;&gt;Yoneda_coyoneda_lemma -->
<g id="edge8" class="edge"><title>Yoneda_yoneda_natural_transformation&#45;&gt;Yoneda_coyoneda_lemma</title>
<path fill="none" stroke="black" d="M499.388,-419.581C544.924,-406.001 601.233,-389.206 643.405,-376.629"/>
<polygon fill="black" stroke="black" points="644.408,-379.982 652.991,-373.77 642.408,-373.274 644.408,-379.982"/>
</g>
<!-- Yoneda_yoneda_functor -->
<g id="node5" class="node"><title>Yoneda_yoneda_functor</title>
<a xlink:href="Yoneda.html#yoneda_functor" xlink:title="yoneda_functor">
<ellipse fill="#f070d1" stroke="black" cx="415" cy="-273.259" rx="87.2222" ry="18.3848"/>
<ellipse fill="none" stroke="black" cx="415" cy="-273.259" rx="91.2012" ry="22.3848"/>
<ellipse fill="none" stroke="black" cx="415" cy="-273.259" rx="95.1803" ry="26.3848"/>
<text text-anchor="middle" x="415" y="-269.659" font-family="Times Roman,serif" font-size="14.00">yoneda_functor</text>
</a>
</g>
<!-- Yoneda_coyoneda_functor -->
<g id="node15" class="node"><title>Yoneda_coyoneda_functor</title>
<a xlink:href="Yoneda.html#coyoneda_functor" xlink:title="coyoneda_functor">
<ellipse fill="#f070d1" stroke="black" cx="540" cy="-189.259" rx="97.7889" ry="18.3848"/>
<text text-anchor="middle" x="540" y="-185.659" font-family="Times Roman,serif" font-size="14.00">coyoneda_functor</text>
</a>
</g>
<!-- Yoneda_yoneda_functor&#45;&gt;Yoneda_coyoneda_functor -->
<g id="edge10" class="edge"><title>Yoneda_yoneda_functor&#45;&gt;Yoneda_coyoneda_functor</title>
<path fill="none" stroke="black" d="M451.491,-248.736C468.305,-237.437 488.176,-224.084 504.825,-212.896"/>
<polygon fill="black" stroke="black" points="506.857,-215.748 513.205,-207.265 502.953,-209.938 506.857,-215.748"/>
</g>
<!-- Yoneda_coyoneda_lemma_subproof0 -->
<g id="node7" class="node"><title>Yoneda_coyoneda_lemma_subproof0</title>
<a xlink:href="Yoneda.html#coyoneda_lemma_subproof0" xlink:title="coyoneda_lemma_subproof0">
<ellipse fill="#facdef" stroke="black" cx="1049" cy="-273.259" rx="149.2" ry="18.3848"/>
<text text-anchor="middle" x="1049" y="-269.659" font-family="Times Roman,serif" font-size="14.00">coyoneda_lemma_subproof0</text>
</a>
</g>
<!-- Yoneda_coyoneda_lemma&#45;&gt;Yoneda_coyoneda_lemma_subproof0 -->
<g id="edge12" class="edge"><title>Yoneda_coyoneda_lemma&#45;&gt;Yoneda_coyoneda_lemma_subproof0</title>
<path fill="none" stroke="black" d="M764.136,-343.646C821.574,-329.454 909.077,-307.832 971.941,-292.299"/>
<polygon fill="black" stroke="black" points="972.942,-295.657 981.81,-289.861 971.263,-288.862 972.942,-295.657"/>
</g>
<!-- Yoneda_coyoneda_lemma_subproof -->
<g id="node8" class="node"><title>Yoneda_coyoneda_lemma_subproof</title>
<a xlink:href="Yoneda.html#coyoneda_lemma_subproof" xlink:title="coyoneda_lemma_subproof">
<ellipse fill="#facdef" stroke="black" cx="159" cy="-273.259" rx="142.836" ry="18.3848"/>
<text text-anchor="middle" x="159" y="-269.659" font-family="Times Roman,serif" font-size="14.00">coyoneda_lemma_subproof</text>
</a>
</g>
<!-- Yoneda_coyoneda_lemma&#45;&gt;Yoneda_coyoneda_lemma_subproof -->
<g id="edge14" class="edge"><title>Yoneda_coyoneda_lemma&#45;&gt;Yoneda_coyoneda_lemma_subproof</title>
<path fill="none" stroke="black" d="M627.518,-347.544C547.989,-336.384 420.706,-318.073 311,-300.259 291.851,-297.149 271.379,-293.639 251.863,-290.204"/>
<polygon fill="black" stroke="black" points="252.213,-286.712 241.756,-288.418 250.994,-293.605 252.213,-286.712"/>
</g>
<!-- Yoneda_coyoneda_natural_transformation -->
<g id="node11" class="node"><title>Yoneda_coyoneda_natural_transformation</title>
<a xlink:href="Yoneda.html#coyoneda_natural_transformation" xlink:title="coyoneda_natural_transformation">
<ellipse fill="#f070d1" stroke="black" cx="705" cy="-273.259" rx="176.777" ry="18.3848"/>
<text text-anchor="middle" x="705" y="-269.659" font-family="Times Roman,serif" font-size="14.00">coyoneda_natural_transformation</text>
</a>
</g>
<!-- Yoneda_coyoneda_lemma&#45;&gt;Yoneda_coyoneda_natural_transformation -->
<g id="edge16" class="edge"><title>Yoneda_coyoneda_lemma&#45;&gt;Yoneda_coyoneda_natural_transformation</title>
<path fill="none" stroke="black" d="M705,-339.394C705,-328.424 705,-314.373 705,-302.046"/>
<polygon fill="black" stroke="black" points="708.5,-301.778 705,-291.778 701.5,-301.778 708.5,-301.778"/>
</g>
<!-- Yoneda_coyoneda_lemma_morphism_inverse -->
<g id="node9" class="node"><title>Yoneda_coyoneda_lemma_morphism_inverse</title>
<a xlink:href="Yoneda.html#coyoneda_lemma_morphism_inverse" xlink:title="coyoneda_lemma_morphism_inverse">
<ellipse fill="#f070d1" stroke="black" cx="225" cy="-189.259" rx="189.005" ry="18.3848"/>
<text text-anchor="middle" x="225" y="-185.659" font-family="Times Roman,serif" font-size="14.00">coyoneda_lemma_morphism_inverse</text>
</a>
</g>
<!-- Yoneda_coyoneda_lemma_subproof&#45;&gt;Yoneda_coyoneda_lemma_morphism_inverse -->
<g id="edge18" class="edge"><title>Yoneda_coyoneda_lemma_subproof&#45;&gt;Yoneda_coyoneda_lemma_morphism_inverse</title>
<path fill="none" stroke="black" d="M173.648,-254.616C182.62,-243.197 194.245,-228.401 204.166,-215.775"/>
<polygon fill="black" stroke="black" points="206.967,-217.874 210.393,-207.849 201.463,-213.55 206.967,-217.874"/>
</g>
<!-- Yoneda_coyoneda_lemma_morphism_inverse_subproof -->
<g id="node10" class="node"><title>Yoneda_coyoneda_lemma_morphism_inverse_subproof</title>
<a xlink:href="Yoneda.html#coyoneda_lemma_morphism_inverse_subproof" xlink:title="coyoneda_lemma_morphism_inverse_subproof">
<ellipse fill="#facdef" stroke="black" cx="253" cy="-112.259" rx="236.881" ry="18.3848"/>
<text text-anchor="middle" x="253" y="-108.659" font-family="Times Roman,serif" font-size="14.00">coyoneda_lemma_morphism_inverse_subproof</text>
</a>
</g>
<!-- Yoneda_coyoneda_lemma_morphism_inverse&#45;&gt;Yoneda_coyoneda_lemma_morphism_inverse_subproof -->
<g id="edge20" class="edge"><title>Yoneda_coyoneda_lemma_morphism_inverse&#45;&gt;Yoneda_coyoneda_lemma_morphism_inverse_subproof</title>
<path fill="none" stroke="black" d="M231.778,-170.619C235.055,-161.606 239.06,-150.593 242.704,-140.573"/>
<polygon fill="black" stroke="black" points="246.059,-141.587 246.187,-130.993 239.481,-139.195 246.059,-141.587"/>
</g>
<!-- Yoneda_coyoneda_natural_transformation_subproof -->
<g id="node12" class="node"><title>Yoneda_coyoneda_natural_transformation_subproof</title>
<a xlink:href="Yoneda.html#coyoneda_natural_transformation_subproof" xlink:title="coyoneda_natural_transformation_subproof">
<ellipse fill="#facdef" stroke="black" cx="880" cy="-189.259" rx="224.153" ry="18.3848"/>
<text text-anchor="middle" x="880" y="-185.659" font-family="Times Roman,serif" font-size="14.00">coyoneda_natural_transformation_subproof</text>
</a>
</g>
<!-- Yoneda_coyoneda_natural_transformation&#45;&gt;Yoneda_coyoneda_natural_transformation_subproof -->
<g id="edge22" class="edge"><title>Yoneda_coyoneda_natural_transformation&#45;&gt;Yoneda_coyoneda_natural_transformation_subproof</title>
<path fill="none" stroke="black" d="M742.972,-255.032C769.254,-242.416 804.425,-225.535 832.554,-212.033"/>
<polygon fill="black" stroke="black" points="834.299,-215.077 841.8,-207.595 831.27,-208.767 834.299,-215.077"/>
</g>
<!-- Yoneda_coyoneda_natural_transformation&#45;&gt;Yoneda_coyoneda_functor -->
<g id="edge24" class="edge"><title>Yoneda_coyoneda_natural_transformation&#45;&gt;Yoneda_coyoneda_functor</title>
<path fill="none" stroke="black" d="M669.197,-255.032C644.016,-242.212 610.181,-224.987 583.453,-211.38"/>
<polygon fill="black" stroke="black" points="584.821,-208.149 574.321,-206.731 581.645,-214.387 584.821,-208.149"/>
</g>
<!-- Yoneda_coyoneda_natural_transformation_helper -->
<g id="node13" class="node"><title>Yoneda_coyoneda_natural_transformation_helper</title>
<a xlink:href="Yoneda.html#coyoneda_natural_transformation_helper" xlink:title="coyoneda_natural_transformation_helper">
<ellipse fill="#f070d1" stroke="black" cx="886" cy="-112.259" rx="212.839" ry="18.3848"/>
<text text-anchor="middle" x="886" y="-108.659" font-family="Times Roman,serif" font-size="14.00">coyoneda_natural_transformation_helper</text>
</a>
</g>
<!-- Yoneda_coyoneda_natural_transformation_subproof&#45;&gt;Yoneda_coyoneda_natural_transformation_helper -->
<g id="edge26" class="edge"><title>Yoneda_coyoneda_natural_transformation_subproof&#45;&gt;Yoneda_coyoneda_natural_transformation_helper</title>
<path fill="none" stroke="black" d="M881.452,-170.619C882.14,-161.794 882.977,-151.051 883.745,-141.2"/>
<polygon fill="black" stroke="black" points="887.253,-141.235 884.54,-130.993 880.274,-140.691 887.253,-141.235"/>
</g>
<!-- Yoneda_coyoneda -->
<g id="node17" class="node"><title>Yoneda_coyoneda</title>
<a xlink:href="Yoneda.html#coyoneda" xlink:title="coyoneda">
<ellipse fill="#f070d1" stroke="black" cx="555" cy="-36.2585" rx="57.9828" ry="18.3848"/>
<text text-anchor="middle" x="555" y="-32.6585" font-family="Times Roman,serif" font-size="14.00">coyoneda</text>
</a>
</g>
<!-- Yoneda_coyoneda_natural_transformation_subproof&#45;&gt;Yoneda_coyoneda -->
<g id="edge28" class="edge"><title>Yoneda_coyoneda_natural_transformation_subproof&#45;&gt;Yoneda_coyoneda</title>
<path fill="none" stroke="black" d="M781.029,-172.602C742.986,-163.697 700.066,-150.477 664,-131.259 645.954,-121.642 606.732,-85.7903 580.595,-60.9899"/>
<polygon fill="black" stroke="black" points="582.922,-58.3732 573.27,-54.0045 578.091,-63.4389 582.922,-58.3732"/>
</g>
<!-- Yoneda_coyoneda_natural_transformation_helper_subproof -->
<g id="node14" class="node"><title>Yoneda_coyoneda_natural_transformation_helper_subproof</title>
<a xlink:href="Yoneda.html#coyoneda_natural_transformation_helper_subproof" xlink:title="coyoneda_natural_transformation_helper_subproof">
<ellipse fill="#facdef" stroke="black" cx="891" cy="-36.2585" rx="260.215" ry="18.3848"/>
<text text-anchor="middle" x="891" y="-32.6585" font-family="Times Roman,serif" font-size="14.00">coyoneda_natural_transformation_helper_subproof</text>
</a>
</g>
<!-- Yoneda_coyoneda_natural_transformation_helper&#45;&gt;Yoneda_coyoneda_natural_transformation_helper_subproof -->
<g id="edge30" class="edge"><title>Yoneda_coyoneda_natural_transformation_helper&#45;&gt;Yoneda_coyoneda_natural_transformation_helper_subproof</title>
<path fill="none" stroke="black" d="M887.236,-93.472C887.799,-84.9128 888.478,-74.5888 889.104,-65.0803"/>
<polygon fill="black" stroke="black" points="892.614,-65.0372 889.778,-54.8289 885.629,-64.5776 892.614,-65.0372"/>
</g>
<!-- Yoneda_yoneda -->
<g id="node16" class="node"><title>Yoneda_yoneda</title>
<a xlink:href="Yoneda.html#yoneda" xlink:title="yoneda">
<ellipse fill="#f070d1" stroke="black" cx="555" cy="-112.259" rx="46.8775" ry="18.3848"/>
<text text-anchor="middle" x="555" y="-108.659" font-family="Times Roman,serif" font-size="14.00">yoneda</text>
</a>
</g>
<!-- Yoneda_coyoneda_functor&#45;&gt;Yoneda_yoneda -->
<g id="edge32" class="edge"><title>Yoneda_coyoneda_functor&#45;&gt;Yoneda_yoneda</title>
<path fill="none" stroke="black" d="M543.631,-170.619C545.381,-161.634 547.519,-150.661 549.466,-140.665"/>
<polygon fill="black" stroke="black" points="552.926,-141.211 551.402,-130.726 546.055,-139.873 552.926,-141.211"/>
</g>
<!-- Yoneda_yoneda&#45;&gt;Yoneda_coyoneda -->
<g id="edge34" class="edge"><title>Yoneda_yoneda&#45;&gt;Yoneda_coyoneda</title>
<path fill="none" stroke="black" d="M555,-93.472C555,-84.9128 555,-74.5888 555,-65.0803"/>
<polygon fill="black" stroke="black" points="558.5,-64.8289 555,-54.8289 551.5,-64.829 558.5,-64.8289"/>
</g>
</g>
</svg>
