<?xml version="1.0" encoding="UTF-8" standalone="no"?>
<!DOCTYPE svg PUBLIC "-//W3C//DTD SVG 1.1//EN"
 "http://www.w3.org/Graphics/SVG/1.1/DTD/svg11.dtd">
<!-- Generated by graphviz version 2.39.20141222.0545 (20141222.0545)
 -->
<!-- Title: HoTT_Categories_Pseudofunctor_Identity Pages: 1 -->
<svg width="811pt" height="410pt"
 viewBox="0.00 0.00 811.00 409.50" xmlns="http://www.w3.org/2000/svg" xmlns:xlink="http://www.w3.org/1999/xlink">
<g id="graph0" class="graph" transform="scale(1 1) rotate(0) translate(4 405.5)">
<title>HoTT_Categories_Pseudofunctor_Identity</title>
<polygon fill="white" stroke="transparent" points="-4,4 -4,-405.5 807,-405.5 807,4 -4,4"/>
<g id="clust1" class="cluster"><title>cluster_Identity</title>
<polygon fill="#ffffc3" stroke="black" points="8,-12.7968 8,-388.703 795,-388.703 795,-12.7968 8,-12.7968"/>
<text text-anchor="middle" x="37.5" y="-373.503" font-family="Times,serif" font-size="14.00">Identity</text>
</g>
<!-- Identity_identity -->
<g id="node1" class="node"><title>Identity_identity</title>
<g id="a_node1"><a xlink:href="Identity.html#identity" xlink:title="identity">
<ellipse fill="#f070d1" stroke="black" cx="405" cy="-297.797" rx="37.8596" ry="18"/>
<ellipse fill="none" stroke="black" cx="405" cy="-297.797" rx="41.8769" ry="22"/>
<ellipse fill="none" stroke="black" cx="405" cy="-297.797" rx="45.8942" ry="26"/>
<text text-anchor="middle" x="405" y="-294.097" font-family="Times,serif" font-size="14.00">identity</text>
</a>
</g>
</g>
<!-- Identity_identity_right_identity -->
<g id="node2" class="node"><title>Identity_identity_right_identity</title>
<g id="a_node2"><a xlink:href="Identity.html#identity_right_identity" xlink:title="identity_right_identity">
<ellipse fill="#f070d1" stroke="black" cx="176" cy="-169.797" rx="89.8845" ry="18"/>
<text text-anchor="middle" x="176" y="-166.097" font-family="Times,serif" font-size="14.00">identity_right_identity</text>
</a>
</g>
</g>
<!-- Identity_identity&#45;&gt;Identity_identity_right_identity -->
<g id="edge1" class="edge"><title>Identity_identity&#45;&gt;Identity_identity_right_identity</title>
<path fill="none" stroke="black" d="M372.19,-279.458C330.769,-256.305 259.586,-216.518 215.304,-191.766"/>
<polygon fill="black" stroke="black" points="216.99,-188.699 206.554,-186.875 213.575,-194.809 216.99,-188.699"/>
</g>
<!-- Identity_identity_left_identity -->
<g id="node4" class="node"><title>Identity_identity_left_identity</title>
<g id="a_node4"><a xlink:href="Identity.html#identity_left_identity" xlink:title="identity_left_identity">
<ellipse fill="#f070d1" stroke="black" cx="405" cy="-169.797" rx="85.2851" ry="18"/>
<text text-anchor="middle" x="405" y="-166.097" font-family="Times,serif" font-size="14.00">identity_left_identity</text>
</a>
</g>
</g>
<!-- Identity_identity&#45;&gt;Identity_identity_left_identity -->
<g id="edge2" class="edge"><title>Identity_identity&#45;&gt;Identity_identity_left_identity</title>
<path fill="none" stroke="black" d="M405,-271.585C405,-250.214 405,-220.085 405,-198.154"/>
<polygon fill="black" stroke="black" points="408.5,-198.121 405,-188.121 401.5,-198.121 408.5,-198.121"/>
</g>
<!-- Identity_identity_associativity -->
<g id="node6" class="node"><title>Identity_identity_associativity</title>
<g id="a_node6"><a xlink:href="Identity.html#identity_associativity" xlink:title="identity_associativity">
<ellipse fill="#f070d1" stroke="black" cx="629" cy="-169.797" rx="85.5853" ry="18"/>
<text text-anchor="middle" x="629" y="-166.097" font-family="Times,serif" font-size="14.00">identity_associativity</text>
</a>
</g>
</g>
<!-- Identity_identity&#45;&gt;Identity_identity_associativity -->
<g id="edge3" class="edge"><title>Identity_identity&#45;&gt;Identity_identity_associativity</title>
<path fill="none" stroke="black" d="M437.572,-279.185C478.126,-256.01 547.307,-216.478 590.459,-191.82"/>
<polygon fill="black" stroke="black" points="592.307,-194.796 599.253,-186.795 588.834,-188.718 592.307,-194.796"/>
</g>
<!-- Identity_identity_right_identity_subproof -->
<g id="node3" class="node"><title>Identity_identity_right_identity_subproof</title>
<g id="a_node3"><a xlink:href="Identity.html#identity_right_identity_subproof" xlink:title="identity_right_identity_subproof">
<ellipse fill="#facdef" stroke="black" cx="141" cy="-54.7968" rx="125.378" ry="18"/>
<text text-anchor="middle" x="141" y="-51.0968" font-family="Times,serif" font-size="14.00">identity_right_identity_subproof</text>
</a>
</g>
</g>
<!-- Identity_identity_right_identity&#45;&gt;Identity_identity_right_identity_subproof -->
<g id="edge4" class="edge"><title>Identity_identity_right_identity&#45;&gt;Identity_identity_right_identity_subproof</title>
<path fill="none" stroke="black" d="M170.531,-151.828C164.888,-133.286 156.01,-104.115 149.46,-82.595"/>
<polygon fill="black" stroke="black" points="152.806,-81.5666 146.546,-73.0189 146.109,-83.6047 152.806,-81.5666"/>
</g>
<!-- Identity_identity_left_identity_subproof -->
<g id="node5" class="node"><title>Identity_identity_left_identity_subproof</title>
<g id="a_node5"><a xlink:href="Identity.html#identity_left_identity_subproof" xlink:title="identity_left_identity_subproof">
<ellipse fill="#facdef" stroke="black" cx="405" cy="-54.7968" rx="120.479" ry="18"/>
<text text-anchor="middle" x="405" y="-51.0968" font-family="Times,serif" font-size="14.00">identity_left_identity_subproof</text>
</a>
</g>
</g>
<!-- Identity_identity_left_identity&#45;&gt;Identity_identity_left_identity_subproof -->
<g id="edge5" class="edge"><title>Identity_identity_left_identity&#45;&gt;Identity_identity_left_identity_subproof</title>
<path fill="none" stroke="black" d="M405,-151.575C405,-133.154 405,-104.43 405,-83.0537"/>
<polygon fill="black" stroke="black" points="408.5,-82.9336 405,-72.9337 401.5,-82.9337 408.5,-82.9336"/>
</g>
<!-- Identity_identity_associativity_subproof -->
<g id="node7" class="node"><title>Identity_identity_associativity_subproof</title>
<g id="a_node7"><a xlink:href="Identity.html#identity_associativity_subproof" xlink:title="identity_associativity_subproof">
<ellipse fill="#facdef" stroke="black" cx="665" cy="-54.7968" rx="121.578" ry="18"/>
<text text-anchor="middle" x="665" y="-51.0968" font-family="Times,serif" font-size="14.00">identity_associativity_subproof</text>
</a>
</g>
</g>
<!-- Identity_identity_associativity&#45;&gt;Identity_identity_associativity_subproof -->
<g id="edge6" class="edge"><title>Identity_identity_associativity&#45;&gt;Identity_identity_associativity_subproof</title>
<path fill="none" stroke="black" d="M634.625,-151.828C640.429,-133.286 649.561,-104.115 656.298,-82.595"/>
<polygon fill="black" stroke="black" points="659.648,-83.6079 659.296,-73.0189 652.968,-81.5166 659.648,-83.6079"/>
</g>
</g>
</svg>
