<?xml version="1.0" encoding="UTF-8" standalone="no"?>
<!DOCTYPE svg PUBLIC "-//W3C//DTD SVG 1.1//EN"
 "http://www.w3.org/Graphics/SVG/1.1/DTD/svg11.dtd">
<!-- Generated by graphviz version 2.26.3 (20100126.1600)
 -->
<!-- Title: HoTT_categories_Adjoint_UniversalMorphisms Pages: 1 -->
<svg width="4340pt" height="2174pt"
 viewBox="0.00 0.00 4340.00 2174.00" xmlns="http://www.w3.org/2000/svg" xmlns:xlink="http://www.w3.org/1999/xlink">
<g id="graph1" class="graph" transform="scale(1 1) rotate(0) translate(4 2170)">
<title>HoTT_categories_Adjoint_UniversalMorphisms</title>
<polygon fill="white" stroke="white" points="-4,5 -4,-2170 4337,-2170 4337,5 -4,5"/>
<g id="graph2" class="cluster"><title>cluster_FunctorialLaws</title>
<polygon fill="#ffffc3" stroke="black" points="1638,-1015.06 1638,-1750.38 1888,-1750.38 1888,-1015.06 1638,-1015.06"/>
<text text-anchor="middle" x="1698.5" y="-1733.78" font-family="Times Roman,serif" font-size="14.00">FunctorialLaws</text>
</g>
<g id="graph3" class="cluster"><title>cluster_FunctorialParts</title>
<polygon fill="#ffffc3" stroke="black" points="1896,-655.395 1896,-1366.74 2168,-1366.74 2168,-655.395 1896,-655.395"/>
<text text-anchor="middle" x="1956" y="-1350.14" font-family="Times Roman,serif" font-size="14.00">FunctorialParts</text>
</g>
<g id="graph4" class="cluster"><title>cluster_Core</title>
<polygon fill="#ffffc3" stroke="black" points="8,-31.9705 8,-1366.74 1630,-1366.74 1630,-31.9705 8,-31.9705"/>
<text text-anchor="middle" x="32.5" y="-1350.14" font-family="Times Roman,serif" font-size="14.00">Core</text>
</g>
<g id="graph5" class="cluster"><title>cluster_UniversalMorphisms</title>
<polygon fill="#ffffc3" stroke="black" points="2176,-655.395 2176,-2134.03 4324,-2134.03 4324,-655.395 2176,-655.395"/>
<text text-anchor="middle" x="2253.5" y="-2117.43" font-family="Times Roman,serif" font-size="14.00">UniversalMorphisms</text>
</g>
<!-- UniversalMorphisms_terminal_identity_of -->
<g id="node1" class="node"><title>UniversalMorphisms_terminal_identity_of</title>
<a xlink:href="UniversalMorphisms.html#terminal_identity_of" xlink:title="terminal_identity_of">
<ellipse fill="#f070d1" stroke="black" cx="3519" cy="-1889.97" rx="109.135" ry="18.3848"/>
<ellipse fill="none" stroke="black" cx="3519" cy="-1889.97" rx="113.118" ry="22.3848"/>
<ellipse fill="none" stroke="black" cx="3519" cy="-1889.97" rx="117.101" ry="26.3848"/>
<text text-anchor="middle" x="3519" y="-1886.37" font-family="Times Roman,serif" font-size="14.00">terminal_identity_of</text>
</a>
</g>
<!-- UniversalMorphisms_initial_identity_of -->
<g id="node2" class="node"><title>UniversalMorphisms_initial_identity_of</title>
<a xlink:href="UniversalMorphisms.html#initial_identity_of" xlink:title="initial_identity_of">
<ellipse fill="#f070d1" stroke="black" cx="2960" cy="-1506.97" rx="96.1665" ry="18.3848"/>
<text text-anchor="middle" x="2960" y="-1503.37" font-family="Times Roman,serif" font-size="14.00">initial_identity_of</text>
</a>
</g>
<!-- UniversalMorphisms_terminal_identity_of&#45;&gt;UniversalMorphisms_initial_identity_of -->
<g id="edge2" class="edge"><title>UniversalMorphisms_terminal_identity_of&#45;&gt;UniversalMorphisms_initial_identity_of</title>
<path fill="none" stroke="black" d="M3481.89,-1864.54C3379.51,-1794.4 3094.13,-1598.87 2994.7,-1530.74"/>
<polygon fill="black" stroke="black" points="2996.44,-1527.69 2986.21,-1524.93 2992.48,-1533.47 2996.44,-1527.69"/>
</g>
<!-- FunctorialLaws_initial_identity_of -->
<g id="node18" class="node"><title>FunctorialLaws_initial_identity_of</title>
<a xlink:href="FunctorialLaws.html#initial_identity_of" xlink:title="initial_identity_of">
<ellipse fill="#facdef" stroke="black" cx="1773" cy="-1122.97" rx="96.1665" ry="18.3848"/>
<text text-anchor="middle" x="1773" y="-1119.37" font-family="Times Roman,serif" font-size="14.00">initial_identity_of</text>
</a>
</g>
<!-- UniversalMorphisms_initial_identity_of&#45;&gt;FunctorialLaws_initial_identity_of -->
<g id="edge4" class="edge"><title>UniversalMorphisms_initial_identity_of&#45;&gt;FunctorialLaws_initial_identity_of</title>
<path fill="none" stroke="black" d="M2905.13,-1491.79C2715.13,-1439 2086.33,-1262.42 1892,-1183.97 1864.75,-1172.97 1835.36,-1157.94 1812.61,-1145.55"/>
<polygon fill="black" stroke="black" points="1814.05,-1142.35 1803.6,-1140.6 1810.68,-1148.48 1814.05,-1142.35"/>
</g>
<!-- UniversalMorphisms_terminal_morphism_of -->
<g id="node3" class="node"><title>UniversalMorphisms_terminal_morphism_of</title>
<a xlink:href="UniversalMorphisms.html#terminal_morphism_of" xlink:title="terminal_morphism_of">
<ellipse fill="#f070d1" stroke="black" cx="3782" cy="-1889.97" rx="120.208" ry="18.3848"/>
<ellipse fill="none" stroke="black" cx="3782" cy="-1889.97" rx="124.208" ry="22.3848"/>
<ellipse fill="none" stroke="black" cx="3782" cy="-1889.97" rx="128.208" ry="26.3848"/>
<text text-anchor="middle" x="3782" y="-1886.37" font-family="Times Roman,serif" font-size="14.00">terminal_morphism_of</text>
</a>
</g>
<!-- UniversalMorphisms_initial_morphism_of -->
<g id="node4" class="node"><title>UniversalMorphisms_initial_morphism_of</title>
<a xlink:href="UniversalMorphisms.html#initial_morphism_of" xlink:title="initial_morphism_of">
<ellipse fill="#f070d1" stroke="black" cx="3180" cy="-1506.97" rx="106.066" ry="18.3848"/>
<text text-anchor="middle" x="3180" y="-1503.37" font-family="Times Roman,serif" font-size="14.00">initial_morphism_of</text>
</a>
</g>
<!-- UniversalMorphisms_terminal_morphism_of&#45;&gt;UniversalMorphisms_initial_morphism_of -->
<g id="edge6" class="edge"><title>UniversalMorphisms_terminal_morphism_of&#45;&gt;UniversalMorphisms_initial_morphism_of</title>
<path fill="none" stroke="black" d="M3742.03,-1864.54C3631.56,-1794.26 3323.21,-1598.08 3216.72,-1530.33"/>
<polygon fill="black" stroke="black" points="3218.54,-1527.34 3208.23,-1524.93 3214.79,-1533.25 3218.54,-1527.34"/>
</g>
<!-- Core_functor__of__initial_morphism -->
<g id="node22" class="node"><title>Core_functor__of__initial_morphism</title>
<a xlink:href="Core.html#functor__of__initial_morphism" xlink:title="functor__of__initial_morphism">
<ellipse fill="#f070d1" stroke="black" cx="1457" cy="-435.97" rx="156.978" ry="18.3848"/>
<text text-anchor="middle" x="1457" y="-432.37" font-family="Times Roman,serif" font-size="14.00">functor__of__initial_morphism</text>
</a>
</g>
<!-- UniversalMorphisms_initial_morphism_of&#45;&gt;Core_functor__of__initial_morphism -->
<g id="edge8" class="edge"><title>UniversalMorphisms_initial_morphism_of&#45;&gt;Core_functor__of__initial_morphism</title>
<path fill="none" stroke="black" d="M3160.13,-1488.58C3060.59,-1397.17 2603.79,-986.14 2172,-735.97 1944.96,-604.428 1649.14,-499.277 1520.91,-456.589"/>
<polygon fill="black" stroke="black" points="1521.82,-453.206 1511.23,-453.381 1519.62,-459.85 1521.82,-453.206"/>
</g>
<!-- UniversalMorphisms_adjunction__of__terminal_morphism -->
<g id="node5" class="node"><title>UniversalMorphisms_adjunction__of__terminal_morphism</title>
<a xlink:href="UniversalMorphisms.html#adjunction__of__terminal_morphism" xlink:title="adjunction__of__terminal_morphism">
<ellipse fill="#f070d1" stroke="black" cx="4122" cy="-1889.97" rx="186.196" ry="18.3848"/>
<ellipse fill="none" stroke="black" cx="4122" cy="-1889.97" rx="190.186" ry="22.3848"/>
<ellipse fill="none" stroke="black" cx="4122" cy="-1889.97" rx="194.176" ry="26.3848"/>
<text text-anchor="middle" x="4122" y="-1886.37" font-family="Times Roman,serif" font-size="14.00">adjunction__of__terminal_morphism</text>
</a>
</g>
<!-- UniversalMorphisms_adjunction__of__initial_morphism -->
<g id="node7" class="node"><title>UniversalMorphisms_adjunction__of__initial_morphism</title>
<a xlink:href="UniversalMorphisms.html#adjunction__of__initial_morphism" xlink:title="adjunction__of__initial_morphism">
<ellipse fill="#f070d1" stroke="black" cx="3477" cy="-1506.97" rx="173.241" ry="18.3848"/>
<text text-anchor="middle" x="3477" y="-1503.37" font-family="Times Roman,serif" font-size="14.00">adjunction__of__initial_morphism</text>
</a>
</g>
<!-- UniversalMorphisms_adjunction__of__terminal_morphism&#45;&gt;UniversalMorphisms_adjunction__of__initial_morphism -->
<g id="edge10" class="edge"><title>UniversalMorphisms_adjunction__of__terminal_morphism&#45;&gt;UniversalMorphisms_adjunction__of__initial_morphism</title>
<path fill="none" stroke="black" d="M4078.43,-1864.1C3959.53,-1793.5 3630.81,-1598.3 3516.66,-1530.52"/>
<polygon fill="black" stroke="black" points="3518.26,-1527.4 3507.87,-1525.3 3514.68,-1533.42 3518.26,-1527.4"/>
</g>
<!-- UniversalMorphisms_functor__of__terminal_morphism -->
<g id="node6" class="node"><title>UniversalMorphisms_functor__of__terminal_morphism</title>
<a xlink:href="UniversalMorphisms.html#functor__of__terminal_morphism" xlink:title="functor__of__terminal_morphism">
<ellipse fill="#f070d1" stroke="black" cx="3847" cy="-1506.97" rx="171.12" ry="18.3848"/>
<ellipse fill="none" stroke="black" cx="3847" cy="-1506.97" rx="175.12" ry="22.3848"/>
<ellipse fill="none" stroke="black" cx="3847" cy="-1506.97" rx="179.12" ry="26.3848"/>
<text text-anchor="middle" x="3847" y="-1503.37" font-family="Times Roman,serif" font-size="14.00">functor__of__terminal_morphism</text>
</a>
</g>
<!-- UniversalMorphisms_functor__of__initial_morphism -->
<g id="node8" class="node"><title>UniversalMorphisms_functor__of__initial_morphism</title>
<a xlink:href="UniversalMorphisms.html#functor__of__initial_morphism" xlink:title="functor__of__initial_morphism">
<ellipse fill="#f070d1" stroke="black" cx="3413" cy="-1122.97" rx="156.978" ry="18.3848"/>
<text text-anchor="middle" x="3413" y="-1119.37" font-family="Times Roman,serif" font-size="14.00">functor__of__initial_morphism</text>
</a>
</g>
<!-- UniversalMorphisms_functor__of__terminal_morphism&#45;&gt;UniversalMorphisms_functor__of__initial_morphism -->
<g id="edge12" class="edge"><title>UniversalMorphisms_functor__of__terminal_morphism&#45;&gt;UniversalMorphisms_functor__of__initial_morphism</title>
<path fill="none" stroke="black" d="M3817.17,-1480.58C3737.37,-1409.97 3519.76,-1217.43 3441.51,-1148.19"/>
<polygon fill="black" stroke="black" points="3443.76,-1145.51 3433.95,-1141.51 3439.12,-1150.75 3443.76,-1145.51"/>
</g>
<!-- UniversalMorphisms_adjunction__of__initial_morphism&#45;&gt;UniversalMorphisms_functor__of__initial_morphism -->
<g id="edge14" class="edge"><title>UniversalMorphisms_adjunction__of__initial_morphism&#45;&gt;UniversalMorphisms_functor__of__initial_morphism</title>
<path fill="none" stroke="black" d="M3473.91,-1488.45C3463.61,-1426.62 3430.34,-1227 3417.82,-1151.9"/>
<polygon fill="black" stroke="black" points="3421.23,-1151.04 3416.13,-1141.76 3414.32,-1152.19 3421.23,-1151.04"/>
</g>
<!-- UniversalMorphisms_composition_of -->
<g id="node9" class="node"><title>UniversalMorphisms_composition_of</title>
<a xlink:href="UniversalMorphisms.html#composition_of" xlink:title="composition_of">
<ellipse fill="#f070d1" stroke="black" cx="2932" cy="-762.97" rx="84.1457" ry="18.3848"/>
<text text-anchor="middle" x="2932" y="-759.37" font-family="Times Roman,serif" font-size="14.00">composition_of</text>
</a>
</g>
<!-- UniversalMorphisms_functor__of__initial_morphism&#45;&gt;UniversalMorphisms_composition_of -->
<g id="edge16" class="edge"><title>UniversalMorphisms_functor__of__initial_morphism&#45;&gt;UniversalMorphisms_composition_of</title>
<path fill="none" stroke="black" d="M3388.49,-1104.62C3308.37,-1044.66 3054.24,-854.459 2964.09,-786.991"/>
<polygon fill="black" stroke="black" points="2966,-784.044 2955.89,-780.854 2961.8,-789.648 2966,-784.044"/>
</g>
<!-- UniversalMorphisms_identity_of -->
<g id="node10" class="node"><title>UniversalMorphisms_identity_of</title>
<a xlink:href="UniversalMorphisms.html#identity_of" xlink:title="identity_of">
<ellipse fill="#f070d1" stroke="black" cx="3350" cy="-762.97" rx="63.1385" ry="18.3848"/>
<text text-anchor="middle" x="3350" y="-759.37" font-family="Times Roman,serif" font-size="14.00">identity_of</text>
</a>
</g>
<!-- UniversalMorphisms_functor__of__initial_morphism&#45;&gt;UniversalMorphisms_identity_of -->
<g id="edge18" class="edge"><title>UniversalMorphisms_functor__of__initial_morphism&#45;&gt;UniversalMorphisms_identity_of</title>
<path fill="none" stroke="black" d="M3409.75,-1104.37C3399.44,-1045.48 3367.47,-862.818 3355.03,-791.71"/>
<polygon fill="black" stroke="black" points="3358.44,-790.919 3353.27,-781.672 3351.55,-792.126 3358.44,-790.919"/>
</g>
<!-- Core_composition_of -->
<g id="node23" class="node"><title>Core_composition_of</title>
<a xlink:href="Core.html#composition_of" xlink:title="composition_of">
<ellipse fill="#facdef" stroke="black" cx="1394" cy="-139.97" rx="84.1457" ry="18.3848"/>
<text text-anchor="middle" x="1394" y="-136.37" font-family="Times Roman,serif" font-size="14.00">composition_of</text>
</a>
</g>
<!-- UniversalMorphisms_composition_of&#45;&gt;Core_composition_of -->
<g id="edge20" class="edge"><title>UniversalMorphisms_composition_of&#45;&gt;Core_composition_of</title>
<path fill="none" stroke="black" d="M2891.65,-746.627C2677.9,-660.042 1678.68,-255.285 1443.61,-160.066"/>
<polygon fill="black" stroke="black" points="1444.86,-156.797 1434.28,-156.286 1442.23,-163.285 1444.86,-156.797"/>
</g>
<!-- Core_identity_of -->
<g id="node24" class="node"><title>Core_identity_of</title>
<a xlink:href="Core.html#identity_of" xlink:title="identity_of">
<ellipse fill="#facdef" stroke="black" cx="1559" cy="-139.97" rx="63.1385" ry="18.3848"/>
<text text-anchor="middle" x="1559" y="-136.37" font-family="Times Roman,serif" font-size="14.00">identity_of</text>
</a>
</g>
<!-- UniversalMorphisms_identity_of&#45;&gt;Core_identity_of -->
<g id="edge22" class="edge"><title>UniversalMorphisms_identity_of&#45;&gt;Core_identity_of</title>
<path fill="none" stroke="black" d="M3309.23,-748.788C3071.98,-666.262 1870.88,-248.458 1609.33,-157.477"/>
<polygon fill="black" stroke="black" points="1610.3,-154.111 1599.71,-154.131 1608,-160.722 1610.3,-154.111"/>
</g>
<!-- UniversalMorphisms_is_terminal_morphism__of__adjunction -->
<g id="node11" class="node"><title>UniversalMorphisms_is_terminal_morphism__of__adjunction</title>
<a xlink:href="UniversalMorphisms.html#is_terminal_morphism__of__adjunction" xlink:title="is_terminal_morphism__of__adjunction">
<ellipse fill="#f070d1" stroke="black" cx="3177" cy="-1889.97" rx="198.924" ry="18.3848"/>
<ellipse fill="none" stroke="black" cx="3177" cy="-1889.97" rx="202.914" ry="22.3848"/>
<ellipse fill="none" stroke="black" cx="3177" cy="-1889.97" rx="206.904" ry="26.3848"/>
<text text-anchor="middle" x="3177" y="-1886.37" font-family="Times Roman,serif" font-size="14.00">is_terminal_morphism__of__adjunction</text>
</a>
</g>
<!-- UniversalMorphisms_is_initial_morphism__of__adjunction -->
<g id="node13" class="node"><title>UniversalMorphisms_is_initial_morphism__of__adjunction</title>
<a xlink:href="UniversalMorphisms.html#is_initial_morphism__of__adjunction" xlink:title="is_initial_morphism__of__adjunction">
<ellipse fill="#f070d1" stroke="black" cx="2660" cy="-1506.97" rx="185.969" ry="18.3848"/>
<text text-anchor="middle" x="2660" y="-1503.37" font-family="Times Roman,serif" font-size="14.00">is_initial_morphism__of__adjunction</text>
</a>
</g>
<!-- UniversalMorphisms_is_terminal_morphism__of__adjunction&#45;&gt;UniversalMorphisms_is_initial_morphism__of__adjunction -->
<g id="edge24" class="edge"><title>UniversalMorphisms_is_terminal_morphism__of__adjunction&#45;&gt;UniversalMorphisms_is_initial_morphism__of__adjunction</title>
<path fill="none" stroke="black" d="M3141.46,-1863.65C3046.12,-1793.01 2785.6,-1600.02 2693.12,-1531.5"/>
<polygon fill="black" stroke="black" points="2695.07,-1528.6 2684.96,-1525.46 2690.91,-1534.22 2695.07,-1528.6"/>
</g>
<!-- UniversalMorphisms_terminal_morphism__of__adjunction -->
<g id="node12" class="node"><title>UniversalMorphisms_terminal_morphism__of__adjunction</title>
<a xlink:href="UniversalMorphisms.html#terminal_morphism__of__adjunction" xlink:title="terminal_morphism__of__adjunction">
<ellipse fill="#f070d1" stroke="black" cx="2758" cy="-1889.97" rx="186.196" ry="18.3848"/>
<ellipse fill="none" stroke="black" cx="2758" cy="-1889.97" rx="190.186" ry="22.3848"/>
<ellipse fill="none" stroke="black" cx="2758" cy="-1889.97" rx="194.176" ry="26.3848"/>
<text text-anchor="middle" x="2758" y="-1886.37" font-family="Times Roman,serif" font-size="14.00">terminal_morphism__of__adjunction</text>
</a>
</g>
<!-- UniversalMorphisms_initial_morphism__of__adjunction -->
<g id="node14" class="node"><title>UniversalMorphisms_initial_morphism__of__adjunction</title>
<a xlink:href="UniversalMorphisms.html#initial_morphism__of__adjunction" xlink:title="initial_morphism__of__adjunction">
<ellipse fill="#f070d1" stroke="black" cx="2365" cy="-1889.97" rx="173.241" ry="18.3848"/>
<ellipse fill="none" stroke="black" cx="2365" cy="-1889.97" rx="177.241" ry="22.3848"/>
<ellipse fill="none" stroke="black" cx="2365" cy="-1889.97" rx="181.241" ry="26.3848"/>
<text text-anchor="middle" x="2365" y="-1886.37" font-family="Times Roman,serif" font-size="14.00">initial_morphism__of__adjunction</text>
</a>
</g>
<!-- FunctorialParts_terminal_morphism_of -->
<g id="node15" class="node"><title>FunctorialParts_terminal_morphism_of</title>
<a xlink:href="FunctorialParts.html#terminal_morphism_of" xlink:title="terminal_morphism_of">
<ellipse fill="#f070d1" stroke="black" cx="2032" cy="-1122.97" rx="120.208" ry="18.3848"/>
<ellipse fill="none" stroke="black" cx="2032" cy="-1122.97" rx="124.208" ry="22.3848"/>
<ellipse fill="none" stroke="black" cx="2032" cy="-1122.97" rx="128.208" ry="26.3848"/>
<text text-anchor="middle" x="2032" y="-1119.37" font-family="Times Roman,serif" font-size="14.00">terminal_morphism_of</text>
</a>
</g>
<!-- FunctorialParts_initial_morphism_of -->
<g id="node16" class="node"><title>FunctorialParts_initial_morphism_of</title>
<a xlink:href="FunctorialParts.html#initial_morphism_of" xlink:title="initial_morphism_of">
<ellipse fill="#f070d1" stroke="black" cx="2010" cy="-762.97" rx="106.066" ry="18.3848"/>
<text text-anchor="middle" x="2010" y="-759.37" font-family="Times Roman,serif" font-size="14.00">initial_morphism_of</text>
</a>
</g>
<!-- FunctorialParts_terminal_morphism_of&#45;&gt;FunctorialParts_initial_morphism_of -->
<g id="edge26" class="edge"><title>FunctorialParts_terminal_morphism_of&#45;&gt;FunctorialParts_initial_morphism_of</title>
<path fill="none" stroke="black" d="M2030.36,-1096.21C2026.33,-1030.16 2015.92,-859.849 2011.76,-791.742"/>
<polygon fill="black" stroke="black" points="2015.25,-791.489 2011.15,-781.721 2008.26,-791.916 2015.25,-791.489"/>
</g>
<!-- FunctorialParts_initial_morphism_of&#45;&gt;Core_functor__of__initial_morphism -->
<g id="edge28" class="edge"><title>FunctorialParts_initial_morphism_of&#45;&gt;Core_functor__of__initial_morphism</title>
<path fill="none" stroke="black" d="M1979.88,-745.157C1886.47,-689.925 1601.71,-521.539 1496.56,-459.362"/>
<polygon fill="black" stroke="black" points="1498.22,-456.279 1487.83,-454.202 1494.66,-462.304 1498.22,-456.279"/>
</g>
<!-- FunctorialLaws_terminal_identity_of -->
<g id="node17" class="node"><title>FunctorialLaws_terminal_identity_of</title>
<a xlink:href="FunctorialLaws.html#terminal_identity_of" xlink:title="terminal_identity_of">
<ellipse fill="#f070d1" stroke="black" cx="1763" cy="-1506.97" rx="109.135" ry="18.3848"/>
<ellipse fill="none" stroke="black" cx="1763" cy="-1506.97" rx="113.118" ry="22.3848"/>
<ellipse fill="none" stroke="black" cx="1763" cy="-1506.97" rx="117.101" ry="26.3848"/>
<text text-anchor="middle" x="1763" y="-1503.37" font-family="Times Roman,serif" font-size="14.00">terminal_identity_of</text>
</a>
</g>
<!-- FunctorialLaws_terminal_identity_of&#45;&gt;FunctorialLaws_initial_identity_of -->
<g id="edge30" class="edge"><title>FunctorialLaws_terminal_identity_of&#45;&gt;FunctorialLaws_initial_identity_of</title>
<path fill="none" stroke="black" d="M1763.7,-1480.27C1765.51,-1410.71 1770.36,-1224.28 1772.24,-1152.08"/>
<polygon fill="black" stroke="black" points="1775.75,-1151.99 1772.51,-1141.9 1768.75,-1151.81 1775.75,-1151.99"/>
</g>
<!-- FunctorialLaws_initial_identity_of&#45;&gt;FunctorialParts_initial_morphism_of -->
<g id="edge32" class="edge"><title>FunctorialLaws_initial_identity_of&#45;&gt;FunctorialParts_initial_morphism_of</title>
<path fill="none" stroke="black" d="M1785.24,-1104.37C1824.25,-1045.12 1945.75,-860.563 1991.94,-790.408"/>
<polygon fill="black" stroke="black" points="1995.11,-791.949 1997.69,-781.672 1989.27,-788.1 1995.11,-791.949"/>
</g>
<!-- Core_adjunction__of__initial_morphism -->
<g id="node21" class="node"><title>Core_adjunction__of__initial_morphism</title>
<a xlink:href="Core.html#adjunction__of__initial_morphism" xlink:title="adjunction__of__initial_morphism">
<ellipse fill="#f070d1" stroke="black" cx="1449" cy="-762.97" rx="173.241" ry="18.3848"/>
<text text-anchor="middle" x="1449" y="-759.37" font-family="Times Roman,serif" font-size="14.00">adjunction__of__initial_morphism</text>
</a>
</g>
<!-- FunctorialLaws_initial_identity_of&#45;&gt;Core_adjunction__of__initial_morphism -->
<g id="edge34" class="edge"><title>FunctorialLaws_initial_identity_of&#45;&gt;Core_adjunction__of__initial_morphism</title>
<path fill="none" stroke="black" d="M1756.49,-1104.62C1703.09,-1045.3 1534.97,-858.496 1472.6,-789.188"/>
<polygon fill="black" stroke="black" points="1475.16,-786.804 1465.87,-781.713 1469.96,-791.487 1475.16,-786.804"/>
</g>
<!-- Core_adjunction__of__terminal_morphism -->
<g id="node19" class="node"><title>Core_adjunction__of__terminal_morphism</title>
<a xlink:href="Core.html#adjunction__of__terminal_morphism" xlink:title="adjunction__of__terminal_morphism">
<ellipse fill="#f070d1" stroke="black" cx="1428" cy="-1122.97" rx="186.196" ry="18.3848"/>
<ellipse fill="none" stroke="black" cx="1428" cy="-1122.97" rx="190.186" ry="22.3848"/>
<ellipse fill="none" stroke="black" cx="1428" cy="-1122.97" rx="194.176" ry="26.3848"/>
<text text-anchor="middle" x="1428" y="-1119.37" font-family="Times Roman,serif" font-size="14.00">adjunction__of__terminal_morphism</text>
</a>
</g>
<!-- Core_adjunction__of__terminal_morphism&#45;&gt;Core_adjunction__of__initial_morphism -->
<g id="edge36" class="edge"><title>Core_adjunction__of__terminal_morphism&#45;&gt;Core_adjunction__of__initial_morphism</title>
<path fill="none" stroke="black" d="M1429.56,-1096.21C1433.41,-1030.16 1443.35,-859.849 1447.32,-791.742"/>
<polygon fill="black" stroke="black" points="1450.82,-791.908 1447.91,-781.721 1443.83,-791.5 1450.82,-791.908"/>
</g>
<!-- Core_functor__of__terminal_morphism -->
<g id="node20" class="node"><title>Core_functor__of__terminal_morphism</title>
<a xlink:href="Core.html#functor__of__terminal_morphism" xlink:title="functor__of__terminal_morphism">
<ellipse fill="#f070d1" stroke="black" cx="1079" cy="-762.97" rx="171.12" ry="18.3848"/>
<ellipse fill="none" stroke="black" cx="1079" cy="-762.97" rx="175.12" ry="22.3848"/>
<ellipse fill="none" stroke="black" cx="1079" cy="-762.97" rx="179.12" ry="26.3848"/>
<text text-anchor="middle" x="1079" y="-759.37" font-family="Times Roman,serif" font-size="14.00">functor__of__terminal_morphism</text>
</a>
</g>
<!-- Core_functor__of__terminal_morphism&#45;&gt;Core_functor__of__initial_morphism -->
<g id="edge38" class="edge"><title>Core_functor__of__terminal_morphism&#45;&gt;Core_functor__of__initial_morphism</title>
<path fill="none" stroke="black" d="M1109.29,-736.763C1180.48,-675.181 1357.68,-521.891 1427.78,-461.245"/>
<polygon fill="black" stroke="black" points="1430.13,-463.847 1435.4,-454.657 1425.55,-458.553 1430.13,-463.847"/>
</g>
<!-- Core_adjunction__of__initial_morphism&#45;&gt;Core_functor__of__initial_morphism -->
<g id="edge40" class="edge"><title>Core_adjunction__of__initial_morphism&#45;&gt;Core_functor__of__initial_morphism</title>
<path fill="none" stroke="black" d="M1449.45,-744.453C1450.78,-690.06 1454.69,-530.479 1456.3,-464.759"/>
<polygon fill="black" stroke="black" points="1459.8,-464.773 1456.54,-454.691 1452.8,-464.602 1459.8,-464.773"/>
</g>
<!-- Core_functor__of__initial_morphism&#45;&gt;Core_composition_of -->
<g id="edge42" class="edge"><title>Core_functor__of__initial_morphism&#45;&gt;Core_composition_of</title>
<path fill="none" stroke="black" d="M1453.06,-417.454C1442.39,-367.308 1412.86,-228.604 1400.06,-168.432"/>
<polygon fill="black" stroke="black" points="1403.44,-167.532 1397.94,-158.48 1396.6,-168.989 1403.44,-167.532"/>
</g>
<!-- Core_functor__of__initial_morphism&#45;&gt;Core_identity_of -->
<g id="edge44" class="edge"><title>Core_functor__of__initial_morphism&#45;&gt;Core_identity_of</title>
<path fill="none" stroke="black" d="M1463.38,-417.454C1480.7,-367.204 1528.66,-228.029 1549.32,-168.06"/>
<polygon fill="black" stroke="black" points="1552.67,-169.074 1552.62,-158.48 1546.05,-166.794 1552.67,-169.074"/>
</g>
<!-- Core_is_terminal_morphism__of__adjunction -->
<g id="node25" class="node"><title>Core_is_terminal_morphism__of__adjunction</title>
<a xlink:href="Core.html#is_terminal_morphism__of__adjunction" xlink:title="is_terminal_morphism__of__adjunction">
<ellipse fill="#f070d1" stroke="black" cx="1009" cy="-1122.97" rx="198.924" ry="18.3848"/>
<ellipse fill="none" stroke="black" cx="1009" cy="-1122.97" rx="202.914" ry="22.3848"/>
<ellipse fill="none" stroke="black" cx="1009" cy="-1122.97" rx="206.904" ry="26.3848"/>
<text text-anchor="middle" x="1009" y="-1119.37" font-family="Times Roman,serif" font-size="14.00">is_terminal_morphism__of__adjunction</text>
</a>
</g>
<!-- Core_is_initial_morphism__of__adjunction -->
<g id="node27" class="node"><title>Core_is_initial_morphism__of__adjunction</title>
<a xlink:href="Core.html#is_initial_morphism__of__adjunction" xlink:title="is_initial_morphism__of__adjunction">
<ellipse fill="#f070d1" stroke="black" cx="696" cy="-762.97" rx="185.969" ry="18.3848"/>
<text text-anchor="middle" x="696" y="-759.37" font-family="Times Roman,serif" font-size="14.00">is_initial_morphism__of__adjunction</text>
</a>
</g>
<!-- Core_is_terminal_morphism__of__adjunction&#45;&gt;Core_is_initial_morphism__of__adjunction -->
<g id="edge46" class="edge"><title>Core_is_terminal_morphism__of__adjunction&#45;&gt;Core_is_initial_morphism__of__adjunction</title>
<path fill="none" stroke="black" d="M985.984,-1096.5C928.056,-1029.87 776.733,-855.826 718.914,-789.325"/>
<polygon fill="black" stroke="black" points="721.541,-787.013 712.339,-781.763 716.259,-791.606 721.541,-787.013"/>
</g>
<!-- Core_terminal_morphism__of__adjunction -->
<g id="node26" class="node"><title>Core_terminal_morphism__of__adjunction</title>
<a xlink:href="Core.html#terminal_morphism__of__adjunction" xlink:title="terminal_morphism__of__adjunction">
<ellipse fill="#f070d1" stroke="black" cx="590" cy="-1122.97" rx="186.196" ry="18.3848"/>
<ellipse fill="none" stroke="black" cx="590" cy="-1122.97" rx="190.186" ry="22.3848"/>
<ellipse fill="none" stroke="black" cx="590" cy="-1122.97" rx="194.176" ry="26.3848"/>
<text text-anchor="middle" x="590" y="-1119.37" font-family="Times Roman,serif" font-size="14.00">terminal_morphism__of__adjunction</text>
</a>
</g>
<!-- Core_initial_morphism__of__adjunction -->
<g id="node28" class="node"><title>Core_initial_morphism__of__adjunction</title>
<a xlink:href="Core.html#initial_morphism__of__adjunction" xlink:title="initial_morphism__of__adjunction">
<ellipse fill="#f070d1" stroke="black" cx="197" cy="-1122.97" rx="173.241" ry="18.3848"/>
<ellipse fill="none" stroke="black" cx="197" cy="-1122.97" rx="177.241" ry="22.3848"/>
<ellipse fill="none" stroke="black" cx="197" cy="-1122.97" rx="181.241" ry="26.3848"/>
<text text-anchor="middle" x="197" y="-1119.37" font-family="Times Roman,serif" font-size="14.00">initial_morphism__of__adjunction</text>
</a>
</g>
</g>
</svg>
