<?xml version="1.0" encoding="UTF-8" standalone="no"?>
<!DOCTYPE svg PUBLIC "-//W3C//DTD SVG 1.1//EN"
 "http://www.w3.org/Graphics/SVG/1.1/DTD/svg11.dtd">
<!-- Generated by graphviz version 2.39.20141222.0545 (20141222.0545)
 -->
<!-- Title: HoTT_Categories_FunctorCategory_Dual Pages: 1 -->
<svg width="366pt" height="187pt"
 viewBox="0.00 0.00 366.00 187.00" xmlns="http://www.w3.org/2000/svg" xmlns:xlink="http://www.w3.org/1999/xlink">
<g id="graph0" class="graph" transform="scale(1 1) rotate(0) translate(4 183)">
<title>HoTT_Categories_FunctorCategory_Dual</title>
<polygon fill="white" stroke="transparent" points="-4,4 -4,-183 362,-183 362,4 -4,4"/>
<g id="clust1" class="cluster"><title>cluster_Dual</title>
<polygon fill="#ffffc3" stroke="black" points="12.9009,-8 12.9009,-171 345.099,-171 345.099,-8 12.9009,-8"/>
<text text-anchor="middle" x="34.4009" y="-155.8" font-family="Times,serif" font-size="14.00">Dual</text>
</g>
<!-- Dual_opposite_functor_law -->
<g id="node1" class="node"><title>Dual_opposite_functor_law</title>
<g id="a_node1"><a xlink:href="Dual.html#opposite_functor_law" xlink:title="opposite_functor_law">
<ellipse fill="#facdef" stroke="black" cx="179.072" cy="-114" rx="87.1769" ry="18"/>
<ellipse fill="none" stroke="black" cx="179.072" cy="-114" rx="91.1807" ry="22"/>
<ellipse fill="none" stroke="black" cx="179.072" cy="-114" rx="95.1846" ry="26"/>
<text text-anchor="middle" x="179.072" y="-110.3" font-family="Times,serif" font-size="14.00">opposite_functor_law</text>
</a>
</g>
</g>
<!-- Dual_opposite_functor -->
<g id="node2" class="node"><title>Dual_opposite_functor</title>
<g id="a_node2"><a xlink:href="Dual.html#opposite_functor" xlink:title="opposite_functor">
<ellipse fill="#f070d1" stroke="black" cx="179.072" cy="-34" rx="70.3881" ry="18"/>
<text text-anchor="middle" x="179.072" y="-30.3" font-family="Times,serif" font-size="14.00">opposite_functor</text>
</a>
</g>
</g>
<!-- Dual_opposite_functor_law&#45;&gt;Dual_opposite_functor -->
<g id="edge1" class="edge"><title>Dual_opposite_functor_law&#45;&gt;Dual_opposite_functor</title>
<path fill="none" stroke="black" d="M179.072,-87.805C179.072,-79.6026 179.072,-70.5174 179.072,-62.1839"/>
<polygon fill="black" stroke="black" points="182.572,-62.1532 179.072,-52.1532 175.572,-62.1533 182.572,-62.1532"/>
</g>
</g>
</svg>
