<?xml version="1.0" encoding="UTF-8" standalone="no"?>
<!DOCTYPE svg PUBLIC "-//W3C//DTD SVG 1.1//EN"
 "http://www.w3.org/Graphics/SVG/1.1/DTD/svg11.dtd">
<!-- Generated by graphviz version 2.26.3 (20100126.1600)
 -->
<!-- Title: HoTT_categories_Category_Strict Pages: 1 -->
<svg width="554pt" height="281pt"
 viewBox="0.00 0.00 554.00 281.00" xmlns="http://www.w3.org/2000/svg" xmlns:xlink="http://www.w3.org/1999/xlink">
<g id="graph1" class="graph" transform="scale(1 1) rotate(0) translate(4 277)">
<title>HoTT_categories_Category_Strict</title>
<polygon fill="white" stroke="white" points="-4,5 -4,-277 551,-277 551,5 -4,5"/>
<g id="graph2" class="cluster"><title>cluster_Strict</title>
<polygon fill="#ffffc3" stroke="black" points="8,-8.4 8,-264.6 538,-264.6 538,-8.4 8,-8.4"/>
<text text-anchor="middle" x="35" y="-248" font-family="Times Roman,serif" font-size="14.00">Strict</text>
</g>
<!-- Strict_isstrict_StrictCategory -->
<g id="node1" class="node"><title>Strict_isstrict_StrictCategory</title>
<a xlink:href="Strict.html#isstrict_StrictCategory" xlink:title="isstrict_StrictCategory">
<ellipse fill="#f070d1" stroke="black" cx="402" cy="-200.4" rx="120.208" ry="18.3848"/>
<ellipse fill="none" stroke="black" cx="402" cy="-200.4" rx="124.208" ry="22.3848"/>
<ellipse fill="none" stroke="black" cx="402" cy="-200.4" rx="128.208" ry="26.3848"/>
<text text-anchor="middle" x="402" y="-196.8" font-family="Times Roman,serif" font-size="14.00">isstrict_StrictCategory</text>
</a>
</g>
<!-- Strict_precategory_strict -->
<g id="node2" class="node"><title>Strict_precategory_strict</title>
<a xlink:href="Strict.html#precategory_strict" xlink:title="precategory_strict">
<ellipse fill="#f070d1" stroke="black" cx="402" cy="-114.4" rx="99.9096" ry="18.3848"/>
<text text-anchor="middle" x="402" y="-110.8" font-family="Times Roman,serif" font-size="14.00">precategory_strict</text>
</a>
</g>
<!-- Strict_isstrict_StrictCategory&#45;&gt;Strict_precategory_strict -->
<g id="edge2" class="edge"><title>Strict_isstrict_StrictCategory&#45;&gt;Strict_precategory_strict</title>
<path fill="none" stroke="black" d="M402,-173.66C402,-163.956 402,-152.956 402,-143.09"/>
<polygon fill="black" stroke="black" points="405.5,-142.945 402,-132.945 398.5,-142.945 405.5,-142.945"/>
</g>
<!-- Strict_StrictCategory -->
<g id="node4" class="node"><title>Strict_StrictCategory</title>
<a xlink:href="Strict.html#StrictCategory" xlink:title="StrictCategory">
<ellipse fill="#e2cdfa" stroke="black" cx="402" cy="-36.4" rx="82.2301" ry="18.3848"/>
<text text-anchor="middle" x="402" y="-32.8" font-family="Times Roman,serif" font-size="14.00">StrictCategory</text>
</a>
</g>
<!-- Strict_precategory_strict&#45;&gt;Strict_StrictCategory -->
<g id="edge4" class="edge"><title>Strict_precategory_strict&#45;&gt;Strict_StrictCategory</title>
<path fill="none" stroke="black" d="M402,-95.5184C402,-86.4165 402,-75.3015 402,-65.1758"/>
<polygon fill="black" stroke="black" points="405.5,-65.1077 402,-55.1077 398.5,-65.1078 405.5,-65.1077"/>
</g>
<!-- Strict_Build_StrictCategory -->
<g id="node3" class="node"><title>Strict_Build_StrictCategory</title>
<a xlink:href="Strict.html#Build_StrictCategory" xlink:title="Build_StrictCategory">
<ellipse fill="#7faaff" stroke="black" cx="136" cy="-200.4" rx="111.963" ry="18.3848"/>
<ellipse fill="none" stroke="black" cx="136" cy="-200.4" rx="115.947" ry="22.3848"/>
<ellipse fill="none" stroke="black" cx="136" cy="-200.4" rx="119.93" ry="26.3848"/>
<text text-anchor="middle" x="136" y="-196.8" font-family="Times Roman,serif" font-size="14.00">Build_StrictCategory</text>
</a>
</g>
</g>
</svg>
