<?xml version="1.0" encoding="UTF-8" standalone="no"?>
<!DOCTYPE svg PUBLIC "-//W3C//DTD SVG 1.1//EN"
 "http://www.w3.org/Graphics/SVG/1.1/DTD/svg11.dtd">
<!-- Generated by graphviz version 2.26.3 (20100126.1600)
 -->
<!-- Title: HoTT_Types_Universe Pages: 1 -->
<svg width="2190pt" height="1099pt"
 viewBox="0.00 0.00 2190.00 1099.00" xmlns="http://www.w3.org/2000/svg" xmlns:xlink="http://www.w3.org/1999/xlink">
<g id="graph1" class="graph" transform="scale(1 1) rotate(0) translate(4 1095)">
<title>HoTT_Types_Universe</title>
<polygon fill="white" stroke="white" points="-4,5 -4,-1095 2187,-1095 2187,5 -4,5"/>
<g id="graph2" class="cluster"><title>cluster_Universe</title>
<polygon fill="#ffffc3" stroke="black" points="8,-12.5764 8,-1078.42 2174,-1078.42 2174,-12.5764 8,-12.5764"/>
<text text-anchor="middle" x="46.5" y="-1061.82" font-family="Times Roman,serif" font-size="14.00">Universe</text>
</g>
<!-- Universe_equiv_induction__comp -->
<g id="node1" class="node"><title>Universe_equiv_induction__comp</title>
<a xlink:href="Universe.html#equiv_induction&#39;_comp" xlink:title="equiv_induction&#39;_comp">
<ellipse fill="#f070d1" stroke="black" cx="1107" cy="-300.576" rx="121.153" ry="18.3848"/>
<ellipse fill="none" stroke="black" cx="1107" cy="-300.576" rx="125.137" ry="22.3848"/>
<ellipse fill="none" stroke="black" cx="1107" cy="-300.576" rx="129.122" ry="26.3848"/>
<text text-anchor="middle" x="1107" y="-296.976" font-family="Times Roman,serif" font-size="14.00">equiv_induction&#39;_comp</text>
</a>
</g>
<!-- Universe_isequiv_equiv_path -->
<g id="node21" class="node"><title>Universe_isequiv_equiv_path</title>
<a xlink:href="Universe.html#isequiv_equiv_path" xlink:title="isequiv_equiv_path">
<ellipse fill="#facdef" stroke="black" cx="1107" cy="-171.576" rx="104.86" ry="18.3848"/>
<text text-anchor="middle" x="1107" y="-167.976" font-family="Times Roman,serif" font-size="14.00">isequiv_equiv_path</text>
</a>
</g>
<!-- Universe_equiv_induction__comp&#45;&gt;Universe_isequiv_equiv_path -->
<g id="edge2" class="edge"><title>Universe_equiv_induction__comp&#45;&gt;Universe_isequiv_equiv_path</title>
<path fill="none" stroke="black" d="M1107,-273.847C1107,-252.411 1107,-222.381 1107,-200.407"/>
<polygon fill="black" stroke="black" points="1110.5,-200.341 1107,-190.341 1103.5,-200.341 1110.5,-200.341"/>
</g>
<!-- Universe_Univalence -->
<g id="node26" class="node"><title>Universe_Univalence</title>
<a xlink:href="Universe.html#Univalence" xlink:title="Univalence">
<ellipse fill="#e2cdfa" stroke="black" cx="1329" cy="-171.576" rx="65.0538" ry="18.3848"/>
<text text-anchor="middle" x="1329" y="-167.976" font-family="Times Roman,serif" font-size="14.00">Univalence</text>
</a>
</g>
<!-- Universe_equiv_induction__comp&#45;&gt;Universe_Univalence -->
<g id="edge4" class="edge"><title>Universe_equiv_induction__comp&#45;&gt;Universe_Univalence</title>
<path fill="none" stroke="black" d="M1150.07,-275.551C1191.04,-251.742 1252.08,-216.273 1291.21,-193.535"/>
<polygon fill="black" stroke="black" points="1293.29,-196.375 1300.18,-188.325 1289.77,-190.323 1293.29,-196.375"/>
</g>
<!-- Universe_equiv_path -->
<g id="node29" class="node"><title>Universe_equiv_path</title>
<a xlink:href="Universe.html#equiv_path" xlink:title="equiv_path">
<ellipse fill="#f070d1" stroke="black" cx="862" cy="-171.576" rx="65.7609" ry="18.3848"/>
<text text-anchor="middle" x="862" y="-167.976" font-family="Times Roman,serif" font-size="14.00">equiv_path</text>
</a>
</g>
<!-- Universe_equiv_induction__comp&#45;&gt;Universe_equiv_path -->
<g id="edge6" class="edge"><title>Universe_equiv_induction__comp&#45;&gt;Universe_equiv_path</title>
<path fill="none" stroke="black" d="M1060.05,-275.857C1014.36,-251.797 945.652,-215.622 902.349,-192.821"/>
<polygon fill="black" stroke="black" points="903.726,-189.591 893.247,-188.029 900.464,-195.785 903.726,-189.591"/>
</g>
<!-- Universe_equiv_induction_ -->
<g id="node2" class="node"><title>Universe_equiv_induction_</title>
<a xlink:href="Universe.html#equiv_induction&#39;" xlink:title="equiv_induction&#39;">
<ellipse fill="#f070d1" stroke="black" cx="862" cy="-300.576" rx="90.0502" ry="18.3848"/>
<ellipse fill="none" stroke="black" cx="862" cy="-300.576" rx="94.0299" ry="22.3848"/>
<ellipse fill="none" stroke="black" cx="862" cy="-300.576" rx="98.0096" ry="26.3848"/>
<text text-anchor="middle" x="862" y="-296.976" font-family="Times Roman,serif" font-size="14.00">equiv_induction&#39;</text>
</a>
</g>
<!-- Universe_equiv_induction_&#45;&gt;Universe_isequiv_equiv_path -->
<g id="edge8" class="edge"><title>Universe_equiv_induction_&#45;&gt;Universe_isequiv_equiv_path</title>
<path fill="none" stroke="black" d="M906.937,-276.916C951.818,-253.284 1020.3,-217.228 1064.35,-194.031"/>
<polygon fill="black" stroke="black" points="1066.15,-197.041 1073.37,-189.285 1062.89,-190.847 1066.15,-197.041"/>
</g>
<!-- Universe_equiv_induction_&#45;&gt;Universe_Univalence -->
<g id="edge10" class="edge"><title>Universe_equiv_induction_&#45;&gt;Universe_Univalence</title>
<path fill="none" stroke="black" d="M930.657,-281.611C1023.21,-256.046 1186.28,-211 1272.26,-187.249"/>
<polygon fill="black" stroke="black" points="1273.4,-190.566 1282.11,-184.53 1271.53,-183.819 1273.4,-190.566"/>
</g>
<!-- Universe_equiv_induction_&#45;&gt;Universe_equiv_path -->
<g id="edge12" class="edge"><title>Universe_equiv_induction_&#45;&gt;Universe_equiv_path</title>
<path fill="none" stroke="black" d="M862,-273.847C862,-252.411 862,-222.381 862,-200.407"/>
<polygon fill="black" stroke="black" points="865.5,-200.341 862,-190.341 858.5,-200.341 865.5,-200.341"/>
</g>
<!-- Universe_equiv_induction_comp -->
<g id="node3" class="node"><title>Universe_equiv_induction_comp</title>
<a xlink:href="Universe.html#equiv_induction_comp" xlink:title="equiv_induction_comp">
<ellipse fill="#f070d1" stroke="black" cx="361" cy="-300.576" rx="119.032" ry="18.3848"/>
<ellipse fill="none" stroke="black" cx="361" cy="-300.576" rx="123.017" ry="22.3848"/>
<ellipse fill="none" stroke="black" cx="361" cy="-300.576" rx="127.001" ry="26.3848"/>
<text text-anchor="middle" x="361" y="-296.976" font-family="Times Roman,serif" font-size="14.00">equiv_induction_comp</text>
</a>
</g>
<!-- Universe_equiv_induction_comp&#45;&gt;Universe_isequiv_equiv_path -->
<g id="edge14" class="edge"><title>Universe_equiv_induction_comp&#45;&gt;Universe_isequiv_equiv_path</title>
<path fill="none" stroke="black" d="M452.372,-282.042C467.273,-279.133 482.556,-276.217 497,-273.576 681.993,-239.755 899.382,-204.468 1018.25,-185.552"/>
<polygon fill="black" stroke="black" points="1019.06,-188.967 1028.39,-183.94 1017.96,-182.054 1019.06,-188.967"/>
</g>
<!-- Universe_equiv_induction_comp&#45;&gt;Universe_Univalence -->
<g id="edge16" class="edge"><title>Universe_equiv_induction_comp&#45;&gt;Universe_Univalence</title>
<path fill="none" stroke="black" d="M450.43,-281.74C465.92,-278.788 481.898,-275.937 497,-273.576 816.999,-223.555 900.474,-237.101 1221,-190.576 1235.1,-188.53 1250.18,-186.056 1264.47,-183.58"/>
<polygon fill="black" stroke="black" points="1265.47,-186.959 1274.71,-181.783 1264.26,-180.064 1265.47,-186.959"/>
</g>
<!-- Universe_equiv_induction_comp&#45;&gt;Universe_equiv_path -->
<g id="edge18" class="edge"><title>Universe_equiv_induction_comp&#45;&gt;Universe_equiv_path</title>
<path fill="none" stroke="black" d="M441.216,-279.922C542.332,-253.886 713.74,-209.751 803.391,-186.667"/>
<polygon fill="black" stroke="black" points="804.31,-190.045 813.121,-184.162 802.564,-183.266 804.31,-190.045"/>
</g>
<!-- Universe_equiv_induction -->
<g id="node4" class="node"><title>Universe_equiv_induction</title>
<a xlink:href="Universe.html#equiv_induction" xlink:title="equiv_induction">
<ellipse fill="#f070d1" stroke="black" cx="1872" cy="-300.576" rx="87.9304" ry="18.3848"/>
<ellipse fill="none" stroke="black" cx="1872" cy="-300.576" rx="91.9097" ry="22.3848"/>
<ellipse fill="none" stroke="black" cx="1872" cy="-300.576" rx="95.8889" ry="26.3848"/>
<text text-anchor="middle" x="1872" y="-296.976" font-family="Times Roman,serif" font-size="14.00">equiv_induction</text>
</a>
</g>
<!-- Universe_equiv_induction&#45;&gt;Universe_isequiv_equiv_path -->
<g id="edge20" class="edge"><title>Universe_equiv_induction&#45;&gt;Universe_isequiv_equiv_path</title>
<path fill="none" stroke="black" d="M1803.6,-281.954C1791.46,-278.943 1778.89,-276.018 1767,-273.576 1660.1,-251.628 1353.55,-206.807 1198.77,-184.618"/>
<polygon fill="black" stroke="black" points="1199.19,-181.143 1188.8,-183.19 1198.2,-188.072 1199.19,-181.143"/>
</g>
<!-- Universe_equiv_induction&#45;&gt;Universe_Univalence -->
<g id="edge22" class="edge"><title>Universe_equiv_induction&#45;&gt;Universe_Univalence</title>
<path fill="none" stroke="black" d="M1802.02,-282.344C1790.34,-279.368 1778.33,-276.353 1767,-273.576 1632.73,-240.684 1474.68,-204.5 1389.97,-185.31"/>
<polygon fill="black" stroke="black" points="1390.53,-181.85 1380.01,-183.056 1388.99,-188.677 1390.53,-181.85"/>
</g>
<!-- Universe_equiv_induction&#45;&gt;Universe_equiv_path -->
<g id="edge24" class="edge"><title>Universe_equiv_induction&#45;&gt;Universe_equiv_path</title>
<path fill="none" stroke="black" d="M1804.54,-281.695C1792.12,-278.659 1779.22,-275.791 1767,-273.576 1426.57,-211.89 1336.25,-233.858 993,-190.576 972.52,-187.994 950.283,-184.885 930.045,-181.936"/>
<polygon fill="black" stroke="black" points="930.379,-178.448 919.976,-180.459 929.362,-185.373 930.379,-178.448"/>
</g>
<!-- Universe_transport_path_universe_Vp -->
<g id="node5" class="node"><title>Universe_transport_path_universe_Vp</title>
<a xlink:href="Universe.html#transport_path_universe_Vp" xlink:title="transport_path_universe_Vp">
<ellipse fill="#f070d1" stroke="black" cx="1272" cy="-982.576" rx="149.907" ry="18.3848"/>
<ellipse fill="none" stroke="black" cx="1272" cy="-982.576" rx="153.907" ry="22.3848"/>
<ellipse fill="none" stroke="black" cx="1272" cy="-982.576" rx="157.907" ry="26.3848"/>
<text text-anchor="middle" x="1272" y="-978.976" font-family="Times Roman,serif" font-size="14.00">transport_path_universe_Vp</text>
</a>
</g>
<!-- Universe_transport_path_universe_Vp_uncurried -->
<g id="node6" class="node"><title>Universe_transport_path_universe_Vp_uncurried</title>
<a xlink:href="Universe.html#transport_path_universe_Vp_uncurried" xlink:title="transport_path_universe_Vp_uncurried">
<ellipse fill="#f070d1" stroke="black" cx="1272" cy="-840.576" rx="202.233" ry="18.3848"/>
<text text-anchor="middle" x="1272" y="-836.976" font-family="Times Roman,serif" font-size="14.00">transport_path_universe_Vp_uncurried</text>
</a>
</g>
<!-- Universe_transport_path_universe_Vp&#45;&gt;Universe_transport_path_universe_Vp_uncurried -->
<g id="edge26" class="edge"><title>Universe_transport_path_universe_Vp&#45;&gt;Universe_transport_path_universe_Vp_uncurried</title>
<path fill="none" stroke="black" d="M1272,-955.867C1272,-931.263 1272,-894.844 1272,-869.547"/>
<polygon fill="black" stroke="black" points="1275.5,-869.453 1272,-859.454 1268.5,-869.454 1275.5,-869.453"/>
</g>
<!-- Universe_transport_path_universe_V_equiv_path -->
<g id="node7" class="node"><title>Universe_transport_path_universe_V_equiv_path</title>
<a xlink:href="Universe.html#transport_path_universe_V_equiv_path" xlink:title="transport_path_universe_V_equiv_path">
<ellipse fill="#f070d1" stroke="black" cx="1167" cy="-570.576" rx="203.146" ry="18.3848"/>
<text text-anchor="middle" x="1167" y="-566.976" font-family="Times Roman,serif" font-size="14.00">transport_path_universe_V_equiv_path</text>
</a>
</g>
<!-- Universe_transport_path_universe_Vp_uncurried&#45;&gt;Universe_transport_path_universe_V_equiv_path -->
<g id="edge28" class="edge"><title>Universe_transport_path_universe_Vp_uncurried&#45;&gt;Universe_transport_path_universe_V_equiv_path</title>
<path fill="none" stroke="black" d="M1265.2,-821.857C1253.85,-790.75 1230.2,-726.496 1209,-672.576 1199.12,-647.458 1187.39,-619.082 1178.84,-598.648"/>
<polygon fill="black" stroke="black" points="1182.02,-597.171 1174.92,-589.303 1175.56,-599.879 1182.02,-597.171"/>
</g>
<!-- Universe_transport_path_universe_V -->
<g id="node8" class="node"><title>Universe_transport_path_universe_V</title>
<a xlink:href="Universe.html#transport_path_universe_V" xlink:title="transport_path_universe_V">
<ellipse fill="#f070d1" stroke="black" cx="1515" cy="-699.576" rx="144.25" ry="18.3848"/>
<text text-anchor="middle" x="1515" y="-695.976" font-family="Times Roman,serif" font-size="14.00">transport_path_universe_V</text>
</a>
</g>
<!-- Universe_transport_path_universe_Vp_uncurried&#45;&gt;Universe_transport_path_universe_V -->
<g id="edge30" class="edge"><title>Universe_transport_path_universe_Vp_uncurried&#45;&gt;Universe_transport_path_universe_V</title>
<path fill="none" stroke="black" d="M1303.77,-822.143C1347.64,-796.687 1426.78,-750.766 1474.74,-722.936"/>
<polygon fill="black" stroke="black" points="1476.72,-725.837 1483.61,-717.791 1473.2,-719.782 1476.72,-725.837"/>
</g>
<!-- Universe_transport_path_universe_equiv_path -->
<g id="node11" class="node"><title>Universe_transport_path_universe_equiv_path</title>
<a xlink:href="Universe.html#transport_path_universe_equiv_path" xlink:title="transport_path_universe_equiv_path">
<ellipse fill="#f070d1" stroke="black" cx="1009" cy="-699.576" rx="191.126" ry="18.3848"/>
<text text-anchor="middle" x="1009" y="-695.976" font-family="Times Roman,serif" font-size="14.00">transport_path_universe_equiv_path</text>
</a>
</g>
<!-- Universe_transport_path_universe_Vp_uncurried&#45;&gt;Universe_transport_path_universe_equiv_path -->
<g id="edge32" class="edge"><title>Universe_transport_path_universe_Vp_uncurried&#45;&gt;Universe_transport_path_universe_equiv_path</title>
<path fill="none" stroke="black" d="M1237.89,-822.288C1190.29,-796.771 1103.97,-750.494 1052.02,-722.642"/>
<polygon fill="black" stroke="black" points="1053.52,-719.473 1043.05,-717.833 1050.21,-725.642 1053.52,-719.473"/>
</g>
<!-- Universe_transport_path_universe -->
<g id="node12" class="node"><title>Universe_transport_path_universe</title>
<a xlink:href="Universe.html#transport_path_universe" xlink:title="transport_path_universe">
<ellipse fill="#f070d1" stroke="black" cx="1924" cy="-699.576" rx="132.229" ry="18.3848"/>
<text text-anchor="middle" x="1924" y="-695.976" font-family="Times Roman,serif" font-size="14.00">transport_path_universe</text>
</a>
</g>
<!-- Universe_transport_path_universe_Vp_uncurried&#45;&gt;Universe_transport_path_universe -->
<g id="edge34" class="edge"><title>Universe_transport_path_universe_Vp_uncurried&#45;&gt;Universe_transport_path_universe</title>
<path fill="none" stroke="black" d="M1350.97,-823.498C1475.42,-796.586 1715.95,-744.57 1842.15,-717.276"/>
<polygon fill="black" stroke="black" points="1843.12,-720.649 1852.15,-715.114 1841.64,-713.807 1843.12,-720.649"/>
</g>
<!-- Universe_path_universe -->
<g id="node19" class="node"><title>Universe_path_universe</title>
<a xlink:href="Universe.html#path_universe" xlink:title="path_universe">
<ellipse fill="#f070d1" stroke="black" cx="1584" cy="-441.576" rx="80.8184" ry="18.3848"/>
<text text-anchor="middle" x="1584" y="-437.976" font-family="Times Roman,serif" font-size="14.00">path_universe</text>
</a>
</g>
<!-- Universe_transport_path_universe_V_equiv_path&#45;&gt;Universe_path_universe -->
<g id="edge36" class="edge"><title>Universe_transport_path_universe_V_equiv_path&#45;&gt;Universe_path_universe</title>
<path fill="none" stroke="black" d="M1224.54,-552.775C1303.93,-528.217 1446.24,-484.193 1525.91,-459.547"/>
<polygon fill="black" stroke="black" points="1527.26,-462.793 1535.78,-456.494 1525.19,-456.106 1527.26,-462.793"/>
</g>
<!-- Universe_transport_path_universe_V_uncurried -->
<g id="node9" class="node"><title>Universe_transport_path_universe_V_uncurried</title>
<a xlink:href="Universe.html#transport_path_universe_V_uncurried" xlink:title="transport_path_universe_V_uncurried">
<ellipse fill="#f070d1" stroke="black" cx="1584" cy="-570.576" rx="196.075" ry="18.3848"/>
<text text-anchor="middle" x="1584" y="-566.976" font-family="Times Roman,serif" font-size="14.00">transport_path_universe_V_uncurried</text>
</a>
</g>
<!-- Universe_transport_path_universe_V&#45;&gt;Universe_transport_path_universe_V_uncurried -->
<g id="edge38" class="edge"><title>Universe_transport_path_universe_V&#45;&gt;Universe_transport_path_universe_V_uncurried</title>
<path fill="none" stroke="black" d="M1524.89,-681.094C1536.45,-659.472 1555.72,-623.456 1569.1,-598.44"/>
<polygon fill="black" stroke="black" points="1572.28,-599.913 1573.91,-589.444 1566.11,-596.611 1572.28,-599.913"/>
</g>
<!-- Universe_transport_path_universe_V_uncurried&#45;&gt;Universe_path_universe -->
<g id="edge40" class="edge"><title>Universe_transport_path_universe_V_uncurried&#45;&gt;Universe_path_universe</title>
<path fill="none" stroke="black" d="M1584,-551.819C1584,-530.514 1584,-495.491 1584,-470.642"/>
<polygon fill="black" stroke="black" points="1587.5,-470.357 1584,-460.357 1580.5,-470.357 1587.5,-470.357"/>
</g>
<!-- Universe_transport_path_universe_ -->
<g id="node10" class="node"><title>Universe_transport_path_universe_</title>
<a xlink:href="Universe.html#transport_path_universe&#39;" xlink:title="transport_path_universe&#39;">
<ellipse fill="#f070d1" stroke="black" cx="1924" cy="-840.576" rx="133.879" ry="18.3848"/>
<ellipse fill="none" stroke="black" cx="1924" cy="-840.576" rx="137.865" ry="22.3848"/>
<ellipse fill="none" stroke="black" cx="1924" cy="-840.576" rx="141.851" ry="26.3848"/>
<text text-anchor="middle" x="1924" y="-836.976" font-family="Times Roman,serif" font-size="14.00">transport_path_universe&#39;</text>
</a>
</g>
<!-- Universe_transport_path_universe_&#45;&gt;Universe_transport_path_universe -->
<g id="edge42" class="edge"><title>Universe_transport_path_universe_&#45;&gt;Universe_transport_path_universe</title>
<path fill="none" stroke="black" d="M1924,-814.055C1924,-789.625 1924,-753.462 1924,-728.343"/>
<polygon fill="black" stroke="black" points="1927.5,-728.321 1924,-718.321 1920.5,-728.321 1927.5,-728.321"/>
</g>
<!-- Universe_transport_path_universe_equiv_path&#45;&gt;Universe_path_universe -->
<g id="edge44" class="edge"><title>Universe_transport_path_universe_equiv_path&#45;&gt;Universe_path_universe</title>
<path fill="none" stroke="black" d="M991.331,-680.678C965.144,-650.355 922.448,-590.315 955,-551.576 1022.65,-471.071 1335.46,-449.475 1492.92,-443.69"/>
<polygon fill="black" stroke="black" points="1493.19,-447.182 1503.06,-443.331 1492.95,-440.187 1493.19,-447.182"/>
</g>
<!-- Universe_transport_path_universe_uncurried -->
<g id="node13" class="node"><title>Universe_transport_path_universe_uncurried</title>
<a xlink:href="Universe.html#transport_path_universe_uncurried" xlink:title="transport_path_universe_uncurried">
<ellipse fill="#f070d1" stroke="black" cx="1982" cy="-570.576" rx="183.848" ry="18.3848"/>
<text text-anchor="middle" x="1982" y="-566.976" font-family="Times Roman,serif" font-size="14.00">transport_path_universe_uncurried</text>
</a>
</g>
<!-- Universe_transport_path_universe&#45;&gt;Universe_transport_path_universe_uncurried -->
<g id="edge46" class="edge"><title>Universe_transport_path_universe&#45;&gt;Universe_transport_path_universe_uncurried</title>
<path fill="none" stroke="black" d="M1932.31,-681.094C1941.99,-659.568 1958.08,-623.773 1969.32,-598.771"/>
<polygon fill="black" stroke="black" points="1972.61,-600 1973.52,-589.444 1966.22,-597.129 1972.61,-600"/>
</g>
<!-- Universe_transport_path_universe_uncurried&#45;&gt;Universe_path_universe -->
<g id="edge48" class="edge"><title>Universe_transport_path_universe_uncurried&#45;&gt;Universe_path_universe</title>
<path fill="none" stroke="black" d="M1927.08,-552.775C1851.77,-528.366 1717.13,-484.728 1640.84,-459.998"/>
<polygon fill="black" stroke="black" points="1641.52,-456.539 1630.92,-456.785 1639.36,-463.198 1641.52,-456.539"/>
</g>
<!-- Universe_path_universe_V -->
<g id="node14" class="node"><title>Universe_path_universe_V</title>
<a xlink:href="Universe.html#path_universe_V" xlink:title="path_universe_V">
<ellipse fill="#f070d1" stroke="black" cx="521" cy="-699.576" rx="92.8783" ry="18.3848"/>
<ellipse fill="none" stroke="black" cx="521" cy="-699.576" rx="96.8586" ry="22.3848"/>
<ellipse fill="none" stroke="black" cx="521" cy="-699.576" rx="100.839" ry="26.3848"/>
<text text-anchor="middle" x="521" y="-695.976" font-family="Times Roman,serif" font-size="14.00">path_universe_V</text>
</a>
</g>
<!-- Universe_path_universe_V_uncurried -->
<g id="node15" class="node"><title>Universe_path_universe_V_uncurried</title>
<a xlink:href="Universe.html#path_universe_V_uncurried" xlink:title="path_universe_V_uncurried">
<ellipse fill="#f070d1" stroke="black" cx="521" cy="-570.576" rx="145.163" ry="18.3848"/>
<text text-anchor="middle" x="521" y="-566.976" font-family="Times Roman,serif" font-size="14.00">path_universe_V_uncurried</text>
</a>
</g>
<!-- Universe_path_universe_V&#45;&gt;Universe_path_universe_V_uncurried -->
<g id="edge50" class="edge"><title>Universe_path_universe_V&#45;&gt;Universe_path_universe_V_uncurried</title>
<path fill="none" stroke="black" d="M521,-672.847C521,-651.411 521,-621.381 521,-599.407"/>
<polygon fill="black" stroke="black" points="524.5,-599.341 521,-589.341 517.5,-599.341 524.5,-599.341"/>
</g>
<!-- Universe_equiv_path_universe -->
<g id="node16" class="node"><title>Universe_equiv_path_universe</title>
<a xlink:href="Universe.html#equiv_path_universe" xlink:title="equiv_path_universe">
<ellipse fill="#f070d1" stroke="black" cx="626" cy="-441.576" rx="113.137" ry="18.3848"/>
<text text-anchor="middle" x="626" y="-437.976" font-family="Times Roman,serif" font-size="14.00">equiv_path_universe</text>
</a>
</g>
<!-- Universe_path_universe_V_uncurried&#45;&gt;Universe_equiv_path_universe -->
<g id="edge52" class="edge"><title>Universe_path_universe_V_uncurried&#45;&gt;Universe_equiv_path_universe</title>
<path fill="none" stroke="black" d="M536.044,-552.094C553.977,-530.062 584.077,-493.082 604.471,-468.026"/>
<polygon fill="black" stroke="black" points="607.386,-469.99 610.984,-460.025 601.957,-465.571 607.386,-469.99"/>
</g>
<!-- Universe_equiv_path_V -->
<g id="node28" class="node"><title>Universe_equiv_path_V</title>
<a xlink:href="Universe.html#equiv_path_V" xlink:title="equiv_path_V">
<ellipse fill="#f070d1" stroke="black" cx="316" cy="-441.576" rx="77.7817" ry="18.3848"/>
<text text-anchor="middle" x="316" y="-437.976" font-family="Times Roman,serif" font-size="14.00">equiv_path_V</text>
</a>
</g>
<!-- Universe_path_universe_V_uncurried&#45;&gt;Universe_equiv_path_V -->
<g id="edge54" class="edge"><title>Universe_path_universe_V_uncurried&#45;&gt;Universe_equiv_path_V</title>
<path fill="none" stroke="black" d="M492.063,-552.367C455.432,-529.317 392.308,-489.595 352.432,-464.502"/>
<polygon fill="black" stroke="black" points="354.132,-461.437 343.805,-459.073 350.404,-467.361 354.132,-461.437"/>
</g>
<!-- Universe_isequiv_path_universe -->
<g id="node17" class="node"><title>Universe_isequiv_path_universe</title>
<a xlink:href="Universe.html#isequiv_path_universe" xlink:title="isequiv_path_universe">
<ellipse fill="#f070d1" stroke="black" cx="626" cy="-300.576" rx="120.208" ry="18.3848"/>
<text text-anchor="middle" x="626" y="-296.976" font-family="Times Roman,serif" font-size="14.00">isequiv_path_universe</text>
</a>
</g>
<!-- Universe_equiv_path_universe&#45;&gt;Universe_isequiv_path_universe -->
<g id="edge56" class="edge"><title>Universe_equiv_path_universe&#45;&gt;Universe_isequiv_path_universe</title>
<path fill="none" stroke="black" d="M626,-422.853C626,-399.045 626,-357.68 626,-329.728"/>
<polygon fill="black" stroke="black" points="629.5,-329.377 626,-319.378 622.5,-329.378 629.5,-329.377"/>
</g>
<!-- Universe_path_universe_uncurried -->
<g id="node20" class="node"><title>Universe_path_universe_uncurried</title>
<a xlink:href="Universe.html#path_universe_uncurried" xlink:title="path_universe_uncurried">
<ellipse fill="#f070d1" stroke="black" cx="1625" cy="-300.576" rx="132.936" ry="18.3848"/>
<text text-anchor="middle" x="1625" y="-296.976" font-family="Times Roman,serif" font-size="14.00">path_universe_uncurried</text>
</a>
</g>
<!-- Universe_equiv_path_universe&#45;&gt;Universe_path_universe_uncurried -->
<g id="edge58" class="edge"><title>Universe_equiv_path_universe&#45;&gt;Universe_path_universe_uncurried</title>
<path fill="none" stroke="black" d="M718.825,-430.946C876.349,-412.521 1205.91,-372.313 1483,-327.576 1501.27,-324.627 1520.8,-321.136 1539.34,-317.66"/>
<polygon fill="black" stroke="black" points="1540.06,-321.087 1549.23,-315.791 1538.76,-314.209 1540.06,-321.087"/>
</g>
<!-- Universe_isequiv_path_universe&#45;&gt;Universe_isequiv_equiv_path -->
<g id="edge60" class="edge"><title>Universe_isequiv_path_universe&#45;&gt;Universe_isequiv_equiv_path</title>
<path fill="none" stroke="black" d="M685.946,-284.499C775.941,-260.363 945.424,-214.91 1039.6,-189.653"/>
<polygon fill="black" stroke="black" points="1040.55,-193.021 1049.31,-187.05 1038.74,-186.26 1040.55,-193.021"/>
</g>
<!-- Universe_isequiv_path_universe&#45;&gt;Universe_Univalence -->
<g id="edge62" class="edge"><title>Universe_isequiv_path_universe&#45;&gt;Universe_Univalence</title>
<path fill="none" stroke="black" d="M696.22,-285.474C715.269,-281.488 735.905,-277.27 755,-273.576 804.382,-264.023 1123.14,-207.81 1263.18,-183.156"/>
<polygon fill="black" stroke="black" points="1264.11,-186.546 1273.35,-181.365 1262.9,-179.652 1264.11,-186.546"/>
</g>
<!-- Universe_isequiv_path_universe&#45;&gt;Universe_equiv_path -->
<g id="edge64" class="edge"><title>Universe_isequiv_path_universe&#45;&gt;Universe_equiv_path</title>
<path fill="none" stroke="black" d="M658.815,-282.639C701.708,-259.194 776.757,-218.171 822.654,-193.083"/>
<polygon fill="black" stroke="black" points="824.61,-196.003 831.705,-188.136 821.252,-189.861 824.61,-196.003"/>
</g>
<!-- Universe_eta_path_universe -->
<g id="node18" class="node"><title>Universe_eta_path_universe</title>
<a xlink:href="Universe.html#eta_path_universe" xlink:title="eta_path_universe">
<ellipse fill="#f070d1" stroke="black" cx="1364" cy="-300.576" rx="102.067" ry="18.3848"/>
<ellipse fill="none" stroke="black" cx="1364" cy="-300.576" rx="106.048" ry="22.3848"/>
<ellipse fill="none" stroke="black" cx="1364" cy="-300.576" rx="110.03" ry="26.3848"/>
<text text-anchor="middle" x="1364" y="-296.976" font-family="Times Roman,serif" font-size="14.00">eta_path_universe</text>
</a>
</g>
<!-- Universe_eta_path_universe&#45;&gt;Universe_isequiv_equiv_path -->
<g id="edge66" class="edge"><title>Universe_eta_path_universe&#45;&gt;Universe_isequiv_equiv_path</title>
<path fill="none" stroke="black" d="M1316.26,-276.615C1269,-252.893 1197.23,-216.868 1151.23,-193.778"/>
<polygon fill="black" stroke="black" points="1152.62,-190.557 1142.11,-189.199 1149.47,-196.813 1152.62,-190.557"/>
</g>
<!-- Universe_eta_path_universe&#45;&gt;Universe_Univalence -->
<g id="edge68" class="edge"><title>Universe_eta_path_universe&#45;&gt;Universe_Univalence</title>
<path fill="none" stroke="black" d="M1356.75,-273.847C1350.91,-252.314 1342.71,-222.108 1336.74,-200.108"/>
<polygon fill="black" stroke="black" points="1340.09,-199.075 1334.09,-190.341 1333.33,-200.908 1340.09,-199.075"/>
</g>
<!-- Universe_eta_path_universe&#45;&gt;Universe_equiv_path -->
<g id="edge70" class="edge"><title>Universe_eta_path_universe&#45;&gt;Universe_equiv_path</title>
<path fill="none" stroke="black" d="M1288.57,-281.194C1187.93,-255.33 1011.82,-210.076 920.557,-186.624"/>
<polygon fill="black" stroke="black" points="921.216,-183.18 910.659,-184.08 919.474,-189.959 921.216,-183.18"/>
</g>
<!-- Universe_path_universe&#45;&gt;Universe_path_universe_uncurried -->
<g id="edge72" class="edge"><title>Universe_path_universe&#45;&gt;Universe_path_universe_uncurried</title>
<path fill="none" stroke="black" d="M1589.44,-422.853C1596.43,-398.834 1608.61,-356.946 1616.74,-328.989"/>
<polygon fill="black" stroke="black" points="1620.1,-329.957 1619.53,-319.378 1613.38,-328.003 1620.1,-329.957"/>
</g>
<!-- Universe_path_universe_uncurried&#45;&gt;Universe_isequiv_equiv_path -->
<g id="edge74" class="edge"><title>Universe_path_universe_uncurried&#45;&gt;Universe_isequiv_equiv_path</title>
<path fill="none" stroke="black" d="M1559.92,-284.369C1462.23,-260.04 1278.4,-214.262 1177.58,-189.154"/>
<polygon fill="black" stroke="black" points="1178.34,-185.737 1167.8,-186.717 1176.65,-192.529 1178.34,-185.737"/>
</g>
<!-- Universe_path_universe_uncurried&#45;&gt;Universe_Univalence -->
<g id="edge76" class="edge"><title>Universe_path_universe_uncurried&#45;&gt;Universe_Univalence</title>
<path fill="none" stroke="black" d="M1584.46,-282.91C1529.42,-258.921 1431.35,-216.18 1374.06,-191.212"/>
<polygon fill="black" stroke="black" points="1375.45,-188 1364.88,-187.214 1372.65,-194.417 1375.45,-188"/>
</g>
<!-- Universe_path_universe_uncurried&#45;&gt;Universe_equiv_path -->
<g id="edge78" class="edge"><title>Universe_path_universe_uncurried&#45;&gt;Universe_equiv_path</title>
<path fill="none" stroke="black" d="M1547.68,-285.51C1526.71,-281.524 1504,-277.297 1483,-273.576 1282.23,-238.007 1044.17,-200.093 929.878,-182.154"/>
<polygon fill="black" stroke="black" points="930.294,-178.677 919.872,-180.585 929.209,-185.592 930.294,-178.677"/>
</g>
<!-- Universe_Univalence_rec -->
<g id="node22" class="node"><title>Universe_Univalence_rec</title>
<a xlink:href="Universe.html#Univalence_rec" xlink:title="Univalence_rec">
<ellipse fill="#f070d1" stroke="black" cx="1869" cy="-441.576" rx="85.1024" ry="18.3848"/>
<ellipse fill="none" stroke="black" cx="1869" cy="-441.576" rx="89.081" ry="22.3848"/>
<ellipse fill="none" stroke="black" cx="1869" cy="-441.576" rx="93.0596" ry="26.3848"/>
<text text-anchor="middle" x="1869" y="-437.976" font-family="Times Roman,serif" font-size="14.00">Univalence_rec</text>
</a>
</g>
<!-- Universe_Univalence_rect -->
<g id="node24" class="node"><title>Universe_Univalence_rect</title>
<a xlink:href="Universe.html#Univalence_rect" xlink:title="Univalence_rect">
<ellipse fill="#f070d1" stroke="black" cx="2076" cy="-300.576" rx="89.8026" ry="18.3848"/>
<text text-anchor="middle" x="2076" y="-296.976" font-family="Times Roman,serif" font-size="14.00">Univalence_rect</text>
</a>
</g>
<!-- Universe_Univalence_rec&#45;&gt;Universe_Univalence_rect -->
<g id="edge80" class="edge"><title>Universe_Univalence_rec&#45;&gt;Universe_Univalence_rect</title>
<path fill="none" stroke="black" d="M1905.06,-417.016C1943.34,-390.939 2003.43,-350.009 2041.22,-324.268"/>
<polygon fill="black" stroke="black" points="2043.56,-326.907 2049.86,-318.385 2039.62,-321.122 2043.56,-326.907"/>
</g>
<!-- Universe_Univalence_ind -->
<g id="node23" class="node"><title>Universe_Univalence_ind</title>
<a xlink:href="Universe.html#Univalence_ind" xlink:title="Univalence_ind">
<ellipse fill="#7fffd4" stroke="black" cx="2073" cy="-441.576" rx="85.1024" ry="18.3848"/>
<ellipse fill="none" stroke="black" cx="2073" cy="-441.576" rx="89.081" ry="22.3848"/>
<ellipse fill="none" stroke="black" cx="2073" cy="-441.576" rx="93.0596" ry="26.3848"/>
<text text-anchor="middle" x="2073" y="-437.976" font-family="Times Roman,serif" font-size="14.00">Univalence_ind</text>
</a>
</g>
<!-- Universe_Univalence_ind&#45;&gt;Universe_Univalence_rect -->
<g id="edge82" class="edge"><title>Universe_Univalence_ind&#45;&gt;Universe_Univalence_rect</title>
<path fill="none" stroke="black" d="M2073.56,-415.055C2074.08,-390.625 2074.85,-354.462 2075.39,-329.343"/>
<polygon fill="black" stroke="black" points="2078.89,-329.393 2075.6,-319.321 2071.89,-329.244 2078.89,-329.393"/>
</g>
<!-- Universe_Univalence_rect&#45;&gt;Universe_Univalence -->
<g id="edge84" class="edge"><title>Universe_Univalence_rect&#45;&gt;Universe_Univalence</title>
<path fill="none" stroke="black" d="M2024.37,-285.341C2009.19,-281.176 1992.5,-276.9 1977,-273.576 1768.71,-228.922 1518.86,-195.068 1399.37,-180.071"/>
<polygon fill="black" stroke="black" points="1399.62,-176.574 1389.26,-178.808 1398.75,-183.52 1399.62,-176.574"/>
</g>
<!-- Universe_Build_Univalence -->
<g id="node25" class="node"><title>Universe_Build_Univalence</title>
<a xlink:href="Universe.html#Build_Univalence" xlink:title="Build_Univalence">
<ellipse fill="#7faaff" stroke="black" cx="609" cy="-982.576" rx="94.7523" ry="18.3848"/>
<ellipse fill="none" stroke="black" cx="609" cy="-982.576" rx="98.7523" ry="22.3848"/>
<ellipse fill="none" stroke="black" cx="609" cy="-982.576" rx="102.752" ry="26.3848"/>
<text text-anchor="middle" x="609" y="-978.976" font-family="Times Roman,serif" font-size="14.00">Build_Univalence</text>
</a>
</g>
<!-- Universe_equiv_path_pp -->
<g id="node27" class="node"><title>Universe_equiv_path_pp</title>
<a xlink:href="Universe.html#equiv_path_pp" xlink:title="equiv_path_pp">
<ellipse fill="#f070d1" stroke="black" cx="106" cy="-300.576" rx="82.2744" ry="18.3848"/>
<ellipse fill="none" stroke="black" cx="106" cy="-300.576" rx="86.2523" ry="22.3848"/>
<ellipse fill="none" stroke="black" cx="106" cy="-300.576" rx="90.2302" ry="26.3848"/>
<text text-anchor="middle" x="106" y="-296.976" font-family="Times Roman,serif" font-size="14.00">equiv_path_pp</text>
</a>
</g>
<!-- Universe_equiv_path_pp&#45;&gt;Universe_equiv_path -->
<g id="edge86" class="edge"><title>Universe_equiv_path_pp&#45;&gt;Universe_equiv_path</title>
<path fill="none" stroke="black" d="M171.79,-282.449C184.42,-279.267 197.58,-276.154 210,-273.576 419.834,-230.036 671.111,-195.668 791.248,-180.313"/>
<polygon fill="black" stroke="black" points="791.936,-183.754 801.414,-179.019 791.052,-176.81 791.936,-183.754"/>
</g>
<!-- Universe_equiv_path_V&#45;&gt;Universe_equiv_path -->
<g id="edge88" class="edge"><title>Universe_equiv_path_V&#45;&gt;Universe_equiv_path</title>
<path fill="none" stroke="black" d="M293.125,-423.654C254.411,-391.212 184.002,-321.661 225,-273.576 261.285,-231.019 628.73,-192.777 788.483,-178.024"/>
<polygon fill="black" stroke="black" points="789.061,-181.486 798.7,-177.086 788.422,-174.515 789.061,-181.486"/>
</g>
<!-- Universe_isequiv_path -->
<g id="node30" class="node"><title>Universe_isequiv_path</title>
<a xlink:href="Universe.html#isequiv_path" xlink:title="isequiv_path">
<ellipse fill="#f070d1" stroke="black" cx="862" cy="-54.5764" rx="73.0388" ry="18.3848"/>
<text text-anchor="middle" x="862" y="-50.9764" font-family="Times Roman,serif" font-size="14.00">isequiv_path</text>
</a>
</g>
<!-- Universe_equiv_path&#45;&gt;Universe_isequiv_path -->
<g id="edge90" class="edge"><title>Universe_equiv_path&#45;&gt;Universe_isequiv_path</title>
<path fill="none" stroke="black" d="M862,-153.037C862,-134.406 862,-105.416 862,-83.7093"/>
<polygon fill="black" stroke="black" points="865.5,-83.416 862,-73.4161 858.5,-83.4161 865.5,-83.416"/>
</g>
</g>
</svg>
