<?xml version="1.0" encoding="UTF-8" standalone="no"?>
<!DOCTYPE svg PUBLIC "-//W3C//DTD SVG 1.1//EN"
 "http://www.w3.org/Graphics/SVG/1.1/DTD/svg11.dtd">
<!-- Generated by graphviz version 2.26.3 (20100126.1600)
 -->
<!-- Title: HoTT_TruncType Pages: 1 -->
<svg width="1152pt" height="580pt"
 viewBox="0.00 0.00 1152.00 580.00" xmlns="http://www.w3.org/2000/svg" xmlns:xlink="http://www.w3.org/1999/xlink">
<g id="graph1" class="graph" transform="scale(1 1) rotate(0) translate(4 576)">
<title>HoTT_TruncType</title>
<polygon fill="white" stroke="white" points="-4,5 -4,-576 1149,-576 1149,5 -4,5"/>
<g id="graph2" class="cluster"><title>cluster_TruncType</title>
<polygon fill="#ffffc3" stroke="black" points="19.4723,-8 19.4723,-564 1124.53,-564 1124.53,-8 19.4723,-8"/>
<text text-anchor="middle" x="62.4723" y="-547.4" font-family="Times Roman,serif" font-size="14.00">TruncType</text>
</g>
<!-- TruncType_Sn_trunctype -->
<g id="node1" class="node"><title>TruncType_Sn_trunctype</title>
<a xlink:href="TruncType.html#Sn_trunctype" xlink:title="Sn_trunctype">
<ellipse fill="#f070d1" stroke="black" cx="820.162" cy="-503" rx="77.7817" ry="18.3848"/>
<ellipse fill="none" stroke="black" cx="820.162" cy="-503" rx="81.7817" ry="22.3848"/>
<ellipse fill="none" stroke="black" cx="820.162" cy="-503" rx="85.7817" ry="26.3848"/>
<text text-anchor="middle" x="820.162" y="-499.4" font-family="Times Roman,serif" font-size="14.00">Sn_trunctype</text>
</a>
</g>
<!-- TruncType_istrunc_trunctype -->
<g id="node2" class="node"><title>TruncType_istrunc_trunctype</title>
<a xlink:href="TruncType.html#istrunc_trunctype" xlink:title="istrunc_trunctype">
<ellipse fill="#f070d1" stroke="black" cx="820.162" cy="-413" rx="97.7889" ry="18.3848"/>
<text text-anchor="middle" x="820.162" y="-409.4" font-family="Times Roman,serif" font-size="14.00">istrunc_trunctype</text>
</a>
</g>
<!-- TruncType_Sn_trunctype&#45;&gt;TruncType_istrunc_trunctype -->
<g id="edge2" class="edge"><title>TruncType_Sn_trunctype&#45;&gt;TruncType_istrunc_trunctype</title>
<path fill="none" stroke="black" d="M820.162,-476.484C820.162,-465.56 820.162,-452.878 820.162,-441.734"/>
<polygon fill="black" stroke="black" points="823.662,-441.628 820.162,-431.628 816.662,-441.628 823.662,-441.628"/>
</g>
<!-- TruncType_equiv_path_trunctype -->
<g id="node4" class="node"><title>TruncType_equiv_path_trunctype</title>
<a xlink:href="TruncType.html#equiv_path_trunctype" xlink:title="equiv_path_trunctype">
<ellipse fill="#f070d1" stroke="black" cx="579.162" cy="-331" rx="118.794" ry="18.3848"/>
<text text-anchor="middle" x="579.162" y="-327.4" font-family="Times Roman,serif" font-size="14.00">equiv_path_trunctype</text>
</a>
</g>
<!-- TruncType_istrunc_trunctype&#45;&gt;TruncType_equiv_path_trunctype -->
<g id="edge4" class="edge"><title>TruncType_istrunc_trunctype&#45;&gt;TruncType_equiv_path_trunctype</title>
<path fill="none" stroke="black" d="M772.548,-396.799C734.068,-383.707 679.704,-365.21 638.412,-351.16"/>
<polygon fill="black" stroke="black" points="639.342,-347.779 628.748,-347.872 637.087,-354.406 639.342,-347.779"/>
</g>
<!-- TruncType_path_trunctype -->
<g id="node3" class="node"><title>TruncType_path_trunctype</title>
<a xlink:href="TruncType.html#path_trunctype" xlink:title="path_trunctype">
<ellipse fill="#f070d1" stroke="black" cx="307.162" cy="-413" rx="86.9741" ry="18.3848"/>
<ellipse fill="none" stroke="black" cx="307.162" cy="-413" rx="90.9741" ry="22.3848"/>
<ellipse fill="none" stroke="black" cx="307.162" cy="-413" rx="94.9741" ry="26.3848"/>
<text text-anchor="middle" x="307.162" y="-409.4" font-family="Times Roman,serif" font-size="14.00">path_trunctype</text>
</a>
</g>
<!-- TruncType_path_trunctype&#45;&gt;TruncType_equiv_path_trunctype -->
<g id="edge6" class="edge"><title>TruncType_path_trunctype&#45;&gt;TruncType_equiv_path_trunctype</title>
<path fill="none" stroke="black" d="M371.967,-393.463C415.117,-380.455 471.584,-363.432 514.669,-350.443"/>
<polygon fill="black" stroke="black" points="515.917,-353.722 524.481,-347.485 513.897,-347.02 515.917,-353.722"/>
</g>
<!-- TruncType_issig_trunctype -->
<g id="node5" class="node"><title>TruncType_issig_trunctype</title>
<a xlink:href="TruncType.html#issig_trunctype" xlink:title="issig_trunctype">
<ellipse fill="#f070d1" stroke="black" cx="579.162" cy="-257" rx="85.0596" ry="18.3848"/>
<text text-anchor="middle" x="579.162" y="-253.4" font-family="Times Roman,serif" font-size="14.00">issig_trunctype</text>
</a>
</g>
<!-- TruncType_equiv_path_trunctype&#45;&gt;TruncType_issig_trunctype -->
<g id="edge8" class="edge"><title>TruncType_equiv_path_trunctype&#45;&gt;TruncType_issig_trunctype</title>
<path fill="none" stroke="black" d="M579.162,-312.327C579.162,-304.264 579.162,-294.648 579.162,-285.711"/>
<polygon fill="black" stroke="black" points="582.662,-285.667 579.162,-275.667 575.662,-285.667 582.662,-285.667"/>
</g>
<!-- TruncType_istrunc_trunctype_type -->
<g id="node6" class="node"><title>TruncType_istrunc_trunctype_type</title>
<a xlink:href="TruncType.html#istrunc_trunctype_type" xlink:title="istrunc_trunctype_type">
<ellipse fill="#f070d1" stroke="black" cx="343.162" cy="-183" rx="125.158" ry="18.3848"/>
<text text-anchor="middle" x="343.162" y="-179.4" font-family="Times Roman,serif" font-size="14.00">istrunc_trunctype_type</text>
</a>
</g>
<!-- TruncType_issig_trunctype&#45;&gt;TruncType_istrunc_trunctype_type -->
<g id="edge10" class="edge"><title>TruncType_issig_trunctype&#45;&gt;TruncType_istrunc_trunctype_type</title>
<path fill="none" stroke="black" d="M530.549,-241.757C494.599,-230.485 445.324,-215.034 406.325,-202.806"/>
<polygon fill="black" stroke="black" points="407.235,-199.423 396.646,-199.771 405.141,-206.102 407.235,-199.423"/>
</g>
<!-- TruncType_BuildTruncType -->
<g id="node8" class="node"><title>TruncType_BuildTruncType</title>
<a xlink:href="TruncType.html#BuildTruncType" xlink:title="BuildTruncType">
<ellipse fill="#7faaff" stroke="black" cx="898.162" cy="-183" rx="84.8528" ry="18.3848"/>
<text text-anchor="middle" x="898.162" y="-179.4" font-family="Times Roman,serif" font-size="14.00">BuildTruncType</text>
</a>
</g>
<!-- TruncType_issig_trunctype&#45;&gt;TruncType_BuildTruncType -->
<g id="edge12" class="edge"><title>TruncType_issig_trunctype&#45;&gt;TruncType_BuildTruncType</title>
<path fill="none" stroke="black" d="M637.671,-243.427C691.884,-230.851 772.54,-212.141 829.719,-198.877"/>
<polygon fill="black" stroke="black" points="830.803,-202.218 839.754,-196.549 829.221,-195.4 830.803,-202.218"/>
</g>
<!-- TruncType_trunctype_type -->
<g id="node7" class="node"><title>TruncType_trunctype_type</title>
<a xlink:href="TruncType.html#trunctype_type" xlink:title="trunctype_type">
<ellipse fill="#f070d1" stroke="black" cx="343.162" cy="-109" rx="85.7684" ry="18.3848"/>
<text text-anchor="middle" x="343.162" y="-105.4" font-family="Times Roman,serif" font-size="14.00">trunctype_type</text>
</a>
</g>
<!-- TruncType_istrunc_trunctype_type&#45;&gt;TruncType_trunctype_type -->
<g id="edge14" class="edge"><title>TruncType_istrunc_trunctype_type&#45;&gt;TruncType_trunctype_type</title>
<path fill="none" stroke="black" d="M343.162,-164.327C343.162,-156.264 343.162,-146.648 343.162,-137.711"/>
<polygon fill="black" stroke="black" points="346.662,-137.667 343.162,-127.667 339.662,-137.667 346.662,-137.667"/>
</g>
<!-- TruncType_TruncType -->
<g id="node9" class="node"><title>TruncType_TruncType</title>
<a xlink:href="TruncType.html#TruncType" xlink:title="TruncType">
<ellipse fill="#e2cdfa" stroke="black" cx="343.162" cy="-35" rx="60.8112" ry="18.3848"/>
<text text-anchor="middle" x="343.162" y="-31.4" font-family="Times Roman,serif" font-size="14.00">TruncType</text>
</a>
</g>
<!-- TruncType_trunctype_type&#45;&gt;TruncType_TruncType -->
<g id="edge16" class="edge"><title>TruncType_trunctype_type&#45;&gt;TruncType_TruncType</title>
<path fill="none" stroke="black" d="M343.162,-90.3267C343.162,-82.2639 343.162,-72.6477 343.162,-63.7115"/>
<polygon fill="black" stroke="black" points="346.662,-63.6673 343.162,-53.6674 339.662,-63.6674 346.662,-63.6673"/>
</g>
</g>
</svg>
