<?xml version="1.0" encoding="UTF-8" standalone="no"?>
<!DOCTYPE svg PUBLIC "-//W3C//DTD SVG 1.1//EN"
 "http://www.w3.org/Graphics/SVG/1.1/DTD/svg11.dtd">
<!-- Generated by graphviz version 2.39.20161220.0128 (20161220.0128)
 -->
<!-- Title: HoTT_Categories_Adjoint_Functorial Pages: 1 -->
<svg width="1349pt" height="657pt"
 viewBox="0.00 0.00 1348.80 656.50" xmlns="http://www.w3.org/2000/svg" xmlns:xlink="http://www.w3.org/1999/xlink">
<g id="graph0" class="graph" transform="scale(1 1) rotate(0) translate(4 652.5)">
<title>HoTT_Categories_Adjoint_Functorial</title>
<polygon fill="#ffffff" stroke="transparent" points="-4,4 -4,-652.5 1344.7958,-652.5 1344.7958,4 -4,4"/>
<g id="clust1" class="cluster">
<title>cluster_Parts</title>
<polygon fill="#ffffc3" stroke="#000000" points="8,-11.7642 8,-357.3367 428,-357.3367 428,-11.7642 8,-11.7642"/>
<text text-anchor="middle" x="30" y="-342.1367" font-family="Times,serif" font-size="14.00" fill="#000000">Parts</text>
</g>
<g id="clust2" class="cluster">
<title>cluster_Core</title>
<polygon fill="#ffffc3" stroke="#000000" points="678,-502.9184 678,-636.7358 1084,-636.7358 1084,-502.9184 678,-502.9184"/>
<text text-anchor="middle" x="699.5" y="-621.5358" font-family="Times,serif" font-size="14.00" fill="#000000">Core</text>
</g>
<g id="clust3" class="cluster">
<title>cluster_Laws</title>
<polygon fill="#ffffc3" stroke="#000000" points="436,-247.0476 436,-491.1542 1289,-491.1542 1289,-247.0476 436,-247.0476"/>
<text text-anchor="middle" x="459" y="-475.9542" font-family="Times,serif" font-size="14.00" fill="#000000">Laws</text>
</g>
<!-- Parts_right_morphism_of_nondep -->
<g id="node1" class="node">
<title>Parts_right_morphism_of_nondep</title>
<g id="a_node1"><a xlink:href="Parts.html#right_morphism_of_nondep" xlink:title="right_morphism_of_nondep">
<ellipse fill="#f070d1" stroke="#000000" cx="310" cy="-285.7642" rx="110.4804" ry="18"/>
<text text-anchor="middle" x="310" y="-282.0642" font-family="Times,serif" font-size="14.00" fill="#000000">right_morphism_of_nondep</text>
</a>
</g>
</g>
<!-- Parts_left_morphism_of_nondep -->
<g id="node3" class="node">
<title>Parts_left_morphism_of_nondep</title>
<g id="a_node3"><a xlink:href="Parts.html#left_morphism_of_nondep" xlink:title="left_morphism_of_nondep">
<ellipse fill="#f070d1" stroke="#000000" cx="315" cy="-167.7642" rx="105.0817" ry="18"/>
<text text-anchor="middle" x="315" y="-164.0642" font-family="Times,serif" font-size="14.00" fill="#000000">left_morphism_of_nondep</text>
</a>
</g>
</g>
<!-- Parts_right_morphism_of_nondep&#45;&gt;Parts_left_morphism_of_nondep -->
<g id="edge1" class="edge">
<title>Parts_right_morphism_of_nondep&#45;&gt;Parts_left_morphism_of_nondep</title>
<path fill="none" stroke="#000000" d="M310.7703,-267.5853C311.5801,-248.4736 312.8649,-218.1532 313.8061,-195.9393"/>
<polygon fill="#000000" stroke="#000000" points="317.3105,-195.9093 314.237,-185.7701 310.3167,-195.6129 317.3105,-195.9093"/>
</g>
<!-- Parts_right_morphism_of -->
<g id="node2" class="node">
<title>Parts_right_morphism_of</title>
<g id="a_node2"><a xlink:href="Parts.html#right_morphism_of" xlink:title="right_morphism_of">
<ellipse fill="#f070d1" stroke="#000000" cx="104" cy="-167.7642" rx="79.891" ry="18"/>
<ellipse fill="none" stroke="#000000" cx="104" cy="-167.7642" rx="83.8884" ry="22"/>
<ellipse fill="none" stroke="#000000" cx="104" cy="-167.7642" rx="87.8859" ry="26"/>
<text text-anchor="middle" x="104" y="-164.0642" font-family="Times,serif" font-size="14.00" fill="#000000">right_morphism_of</text>
</a>
</g>
</g>
<!-- Parts_left_morphism_of -->
<g id="node4" class="node">
<title>Parts_left_morphism_of</title>
<g id="a_node4"><a xlink:href="Parts.html#left_morphism_of" xlink:title="left_morphism_of">
<ellipse fill="#f070d1" stroke="#000000" cx="330" cy="-49.7642" rx="75.2868" ry="18"/>
<text text-anchor="middle" x="330" y="-46.0642" font-family="Times,serif" font-size="14.00" fill="#000000">left_morphism_of</text>
</a>
</g>
</g>
<!-- Parts_right_morphism_of&#45;&gt;Parts_left_morphism_of -->
<g id="edge2" class="edge">
<title>Parts_right_morphism_of&#45;&gt;Parts_left_morphism_of</title>
<path fill="none" stroke="#000000" d="M147.5751,-145.0126C188.6295,-123.5771 249.6451,-91.7194 289.6213,-70.8468"/>
<polygon fill="#000000" stroke="#000000" points="291.3163,-73.9103 298.5608,-66.1793 288.0764,-67.7052 291.3163,-73.9103"/>
</g>
<!-- Parts_left_morphism_of_nondep&#45;&gt;Parts_left_morphism_of -->
<g id="edge3" class="edge">
<title>Parts_left_morphism_of_nondep&#45;&gt;Parts_left_morphism_of</title>
<path fill="none" stroke="#000000" d="M317.3109,-149.5853C319.7403,-130.4736 323.5946,-100.1532 326.4184,-77.9393"/>
<polygon fill="#000000" stroke="#000000" points="329.922,-78.1317 327.7111,-67.7701 322.9779,-77.2489 329.922,-78.1317"/>
</g>
<!-- Laws_right_composition_of_nondep -->
<g id="node5" class="node">
<title>Laws_right_composition_of_nondep</title>
<g id="a_node5"><a xlink:href="Laws.html#right_composition_of_nondep" xlink:title="right_composition_of_nondep">
<ellipse fill="#f070d1" stroke="#000000" cx="781" cy="-407.7642" rx="117.7793" ry="18"/>
<text text-anchor="middle" x="781" y="-404.0642" font-family="Times,serif" font-size="14.00" fill="#000000">right_composition_of_nondep</text>
</a>
</g>
</g>
<!-- Laws_left_composition_of_nondep -->
<g id="node9" class="node">
<title>Laws_left_composition_of_nondep</title>
<g id="a_node9"><a xlink:href="Laws.html#left_composition_of_nondep" xlink:title="left_composition_of_nondep">
<ellipse fill="#facdef" stroke="#000000" cx="781" cy="-285.7642" rx="112.3801" ry="18"/>
<text text-anchor="middle" x="781" y="-282.0642" font-family="Times,serif" font-size="14.00" fill="#000000">left_composition_of_nondep</text>
</a>
</g>
</g>
<!-- Laws_right_composition_of_nondep&#45;&gt;Laws_left_composition_of_nondep -->
<g id="edge4" class="edge">
<title>Laws_right_composition_of_nondep&#45;&gt;Laws_left_composition_of_nondep</title>
<path fill="none" stroke="#000000" d="M781,-389.7627C781,-369.76 781,-337.2068 781,-313.8473"/>
<polygon fill="#000000" stroke="#000000" points="784.5001,-313.8395 781,-303.8395 777.5001,-313.8396 784.5001,-313.8395"/>
</g>
<!-- Laws_right_composition_of -->
<g id="node6" class="node">
<title>Laws_right_composition_of</title>
<g id="a_node6"><a xlink:href="Laws.html#right_composition_of" xlink:title="right_composition_of">
<ellipse fill="#f070d1" stroke="#000000" cx="1012" cy="-407.7642" rx="87.1769" ry="18"/>
<ellipse fill="none" stroke="#000000" cx="1012" cy="-407.7642" rx="91.1807" ry="22"/>
<ellipse fill="none" stroke="#000000" cx="1012" cy="-407.7642" rx="95.1846" ry="26"/>
<text text-anchor="middle" x="1012" y="-404.0642" font-family="Times,serif" font-size="14.00" fill="#000000">right_composition_of</text>
</a>
</g>
</g>
<!-- Laws_left_composition_of -->
<g id="node10" class="node">
<title>Laws_left_composition_of</title>
<g id="a_node10"><a xlink:href="Laws.html#left_composition_of" xlink:title="left_composition_of">
<ellipse fill="#facdef" stroke="#000000" cx="1003" cy="-285.7642" rx="82.5854" ry="18"/>
<text text-anchor="middle" x="1003" y="-282.0642" font-family="Times,serif" font-size="14.00" fill="#000000">left_composition_of</text>
</a>
</g>
</g>
<!-- Laws_right_composition_of&#45;&gt;Laws_left_composition_of -->
<g id="edge5" class="edge">
<title>Laws_right_composition_of&#45;&gt;Laws_left_composition_of</title>
<path fill="none" stroke="#000000" d="M1010.0693,-381.5921C1008.607,-361.7697 1006.6003,-334.5683 1005.0984,-314.2095"/>
<polygon fill="#000000" stroke="#000000" points="1008.57,-313.6937 1004.3437,-303.9783 1001.5889,-314.2088 1008.57,-313.6937"/>
</g>
<!-- Laws_right_identity_of_nondep -->
<g id="node7" class="node">
<title>Laws_right_identity_of_nondep</title>
<g id="a_node7"><a xlink:href="Laws.html#right_identity_of_nondep" xlink:title="right_identity_of_nondep">
<ellipse fill="#f070d1" stroke="#000000" cx="545" cy="-407.7642" rx="100.9827" ry="18"/>
<text text-anchor="middle" x="545" y="-404.0642" font-family="Times,serif" font-size="14.00" fill="#000000">right_identity_of_nondep</text>
</a>
</g>
</g>
<!-- Laws_left_identity_of_nondep -->
<g id="node11" class="node">
<title>Laws_left_identity_of_nondep</title>
<g id="a_node11"><a xlink:href="Laws.html#left_identity_of_nondep" xlink:title="left_identity_of_nondep">
<ellipse fill="#facdef" stroke="#000000" cx="545" cy="-285.7642" rx="95.5831" ry="18"/>
<text text-anchor="middle" x="545" y="-282.0642" font-family="Times,serif" font-size="14.00" fill="#000000">left_identity_of_nondep</text>
</a>
</g>
</g>
<!-- Laws_right_identity_of_nondep&#45;&gt;Laws_left_identity_of_nondep -->
<g id="edge6" class="edge">
<title>Laws_right_identity_of_nondep&#45;&gt;Laws_left_identity_of_nondep</title>
<path fill="none" stroke="#000000" d="M545,-389.7627C545,-369.76 545,-337.2068 545,-313.8473"/>
<polygon fill="#000000" stroke="#000000" points="548.5001,-313.8395 545,-303.8395 541.5001,-313.8396 548.5001,-313.8395"/>
</g>
<!-- Laws_right_identity_of -->
<g id="node8" class="node">
<title>Laws_right_identity_of</title>
<g id="a_node8"><a xlink:href="Laws.html#right_identity_of" xlink:title="right_identity_of">
<ellipse fill="#f070d1" stroke="#000000" cx="1203" cy="-407.7642" rx="70.3682" ry="18"/>
<ellipse fill="none" stroke="#000000" cx="1203" cy="-407.7642" rx="74.3781" ry="22"/>
<ellipse fill="none" stroke="#000000" cx="1203" cy="-407.7642" rx="78.388" ry="26"/>
<text text-anchor="middle" x="1203" y="-404.0642" font-family="Times,serif" font-size="14.00" fill="#000000">right_identity_of</text>
</a>
</g>
</g>
<!-- Laws_left_identity_of -->
<g id="node12" class="node">
<title>Laws_left_identity_of</title>
<g id="a_node12"><a xlink:href="Laws.html#left_identity_of" xlink:title="left_identity_of">
<ellipse fill="#facdef" stroke="#000000" cx="1186" cy="-285.7642" rx="65.7887" ry="18"/>
<text text-anchor="middle" x="1186" y="-282.0642" font-family="Times,serif" font-size="14.00" fill="#000000">left_identity_of</text>
</a>
</g>
</g>
<!-- Laws_right_identity_of&#45;&gt;Laws_left_identity_of -->
<g id="edge7" class="edge">
<title>Laws_right_identity_of&#45;&gt;Laws_left_identity_of</title>
<path fill="none" stroke="#000000" d="M1199.3531,-381.5921C1196.5782,-361.6783 1192.7656,-334.3174 1189.9245,-313.9285"/>
<polygon fill="#000000" stroke="#000000" points="1193.3847,-313.3996 1188.538,-303.9783 1186.4517,-314.3657 1193.3847,-313.3996"/>
</g>
<!-- Laws_left_composition_of_nondep&#45;&gt;Parts_left_morphism_of_nondep -->
<g id="edge8" class="edge">
<title>Laws_left_composition_of_nondep&#45;&gt;Parts_left_morphism_of_nondep</title>
<path fill="none" stroke="#000000" d="M720.5564,-270.4587C634.0358,-248.5501 475.2952,-208.3539 384.1868,-185.2836"/>
<polygon fill="#000000" stroke="#000000" points="384.7863,-181.825 374.2331,-182.7631 383.0679,-188.6108 384.7863,-181.825"/>
</g>
<!-- Laws_left_composition_of&#45;&gt;Parts_left_morphism_of -->
<g id="edge9" class="edge">
<title>Laws_left_composition_of&#45;&gt;Parts_left_morphism_of</title>
<path fill="none" stroke="#000000" d="M959.3611,-270.4614C840.4153,-228.7508 510.8486,-113.1821 382.301,-68.1045"/>
<polygon fill="#000000" stroke="#000000" points="383.2656,-64.7338 372.6707,-64.7275 380.9491,-71.3395 383.2656,-64.7338"/>
</g>
<!-- Laws_left_identity_of_nondep&#45;&gt;Parts_left_morphism_of_nondep -->
<g id="edge10" class="edge">
<title>Laws_left_identity_of_nondep&#45;&gt;Parts_left_morphism_of_nondep</title>
<path fill="none" stroke="#000000" d="M512.0466,-268.8576C471.459,-248.0345 402.4207,-212.6148 357.7773,-189.7108"/>
<polygon fill="#000000" stroke="#000000" points="359.1353,-186.4738 348.6402,-185.0231 355.9399,-192.7019 359.1353,-186.4738"/>
</g>
<!-- Laws_left_identity_of&#45;&gt;Parts_left_morphism_of -->
<g id="edge11" class="edge">
<title>Laws_left_identity_of&#45;&gt;Parts_left_morphism_of</title>
<path fill="none" stroke="#000000" d="M1140.176,-272.6593C1125.7232,-268.5293 1109.6954,-263.9527 1095,-259.7642 910.589,-207.2023 864.9592,-192.3631 680,-141.7642 579.2078,-114.1907 461.6493,-83.6128 391.6542,-65.573"/>
<polygon fill="#000000" stroke="#000000" points="392.2368,-62.1089 381.6798,-63.0042 390.4909,-68.8877 392.2368,-62.1089"/>
</g>
<!-- Core_right_functor_nondep -->
<g id="node13" class="node">
<title>Core_right_functor_nondep</title>
<g id="a_node13"><a xlink:href="Core.html#right_functor_nondep" xlink:title="right_functor_nondep">
<ellipse fill="#f070d1" stroke="#000000" cx="781" cy="-552.7642" rx="87.1769" ry="18"/>
<ellipse fill="none" stroke="#000000" cx="781" cy="-552.7642" rx="91.1807" ry="22"/>
<ellipse fill="none" stroke="#000000" cx="781" cy="-552.7642" rx="95.1846" ry="26"/>
<text text-anchor="middle" x="781" y="-549.0642" font-family="Times,serif" font-size="14.00" fill="#000000">right_functor_nondep</text>
</a>
</g>
</g>
<!-- Core_right_functor_nondep&#45;&gt;Parts_right_morphism_of_nondep -->
<g id="edge12" class="edge">
<title>Core_right_functor_nondep&#45;&gt;Parts_right_morphism_of_nondep</title>
<path fill="none" stroke="#000000" d="M699.6929,-539.158C610.6642,-523.074 474.837,-494.6895 432,-464.7642 376.4359,-425.948 338.6403,-353.068 321.134,-313.3252"/>
<polygon fill="#000000" stroke="#000000" points="324.2819,-311.7852 317.122,-303.9759 317.8492,-314.5458 324.2819,-311.7852"/>
</g>
<!-- Core_right_functor_nondep&#45;&gt;Laws_right_composition_of_nondep -->
<g id="edge13" class="edge">
<title>Core_right_functor_nondep&#45;&gt;Laws_right_composition_of_nondep</title>
<path fill="none" stroke="#000000" d="M781,-526.5058C781,-500.9703 781,-462.2997 781,-436.0846"/>
<polygon fill="#000000" stroke="#000000" points="784.5001,-436.0252 781,-426.0252 777.5001,-436.0253 784.5001,-436.0252"/>
</g>
<!-- Core_right_functor_nondep&#45;&gt;Laws_right_identity_of_nondep -->
<g id="edge14" class="edge">
<title>Core_right_functor_nondep&#45;&gt;Laws_right_identity_of_nondep</title>
<path fill="none" stroke="#000000" d="M742.2937,-528.9827C697.8848,-501.6976 625.5881,-457.2781 581.9367,-430.4583"/>
<polygon fill="#000000" stroke="#000000" points="583.6937,-427.43 573.3411,-425.1771 580.0292,-433.3942 583.6937,-427.43"/>
</g>
<!-- Core_left_functor_nondep -->
<g id="node14" class="node">
<title>Core_left_functor_nondep</title>
<g id="a_node14"><a xlink:href="Core.html#left_functor_nondep" xlink:title="left_functor_nondep">
<ellipse fill="#f070d1" stroke="#000000" cx="985" cy="-552.7642" rx="82.5816" ry="18"/>
<ellipse fill="none" stroke="#000000" cx="985" cy="-552.7642" rx="86.5835" ry="22"/>
<ellipse fill="none" stroke="#000000" cx="985" cy="-552.7642" rx="90.5854" ry="26"/>
<text text-anchor="middle" x="985" y="-549.0642" font-family="Times,serif" font-size="14.00" fill="#000000">left_functor_nondep</text>
</a>
</g>
</g>
<!-- Core_left_functor_nondep&#45;&gt;Laws_left_composition_of_nondep -->
<g id="edge15" class="edge">
<title>Core_left_functor_nondep&#45;&gt;Laws_left_composition_of_nondep</title>
<path fill="none" stroke="#000000" d="M1068.7311,-542.662C1158.4368,-529.9151 1292.1277,-504.7034 1323,-464.7642 1345.5603,-435.5781 1347.5617,-409.2871 1323,-381.7642 1261.6442,-313.0112 1000.573,-356.4016 911,-334.7642 882.7477,-327.9395 852.2883,-316.6826 827.9597,-306.6783"/>
<polygon fill="#000000" stroke="#000000" points="829.1912,-303.3997 818.6149,-302.7739 826.4925,-309.8586 829.1912,-303.3997"/>
</g>
<!-- Core_left_functor_nondep&#45;&gt;Laws_left_identity_of_nondep -->
<g id="edge16" class="edge">
<title>Core_left_functor_nondep&#45;&gt;Laws_left_identity_of_nondep</title>
<path fill="none" stroke="#000000" d="M1065.4476,-540.6368C1146.3746,-526.5985 1262.9571,-500.7127 1290,-464.7642 1312.1761,-435.2852 1315.0953,-408.8014 1290,-381.7642 1242.247,-330.3159 728.2054,-351.356 660,-334.7642 634.651,-328.5977 607.751,-317.418 586.346,-307.2929"/>
<polygon fill="#000000" stroke="#000000" points="587.754,-304.0861 577.2272,-302.8868 584.7085,-310.3889 587.754,-304.0861"/>
</g>
</g>
</svg>
