<?xml version="1.0" encoding="UTF-8" standalone="no"?>
<!DOCTYPE svg PUBLIC "-//W3C//DTD SVG 1.1//EN"
 "http://www.w3.org/Graphics/SVG/1.1/DTD/svg11.dtd">
<!-- Generated by graphviz version 2.39.20141222.0545 (20141222.0545)
 -->
<!-- Title: HoTT_categories_Adjoint_Hom Pages: 1 -->
<svg width="709pt" height="359pt"
 viewBox="0.00 0.00 709.00 358.50" xmlns="http://www.w3.org/2000/svg" xmlns:xlink="http://www.w3.org/1999/xlink">
<g id="graph0" class="graph" transform="scale(1 1) rotate(0) translate(4 354.5)">
<title>HoTT_categories_Adjoint_Hom</title>
<polygon fill="white" stroke="transparent" points="-4,4 -4,-354.5 705,-354.5 705,4 -4,4"/>
<g id="clust1" class="cluster"><title>cluster_Hom</title>
<polygon fill="#ffffc3" stroke="black" points="8,-11.1713 8,-339.329 693,-339.329 693,-11.1713 8,-11.1713"/>
<text text-anchor="middle" x="30" y="-324.129" font-family="Times,serif" font-size="14.00">Hom</text>
</g>
<!-- Hom_AdjunctionHom_rec -->
<g id="node1" class="node"><title>Hom_AdjunctionHom_rec</title>
<g id="a_node1"><a xlink:href="Hom.html#AdjunctionHom_rec" xlink:title="AdjunctionHom_rec">
<ellipse fill="#f070d1" stroke="black" cx="594" cy="-260.171" rx="83.3687" ry="18"/>
<ellipse fill="none" stroke="black" cx="594" cy="-260.171" rx="87.3772" ry="22"/>
<ellipse fill="none" stroke="black" cx="594" cy="-260.171" rx="91.3856" ry="26"/>
<text text-anchor="middle" x="594" y="-256.471" font-family="Times,serif" font-size="14.00">AdjunctionHom_rec</text>
</a>
</g>
</g>
<!-- Hom_AdjunctionHom_rect -->
<g id="node3" class="node"><title>Hom_AdjunctionHom_rect</title>
<g id="a_node3"><a xlink:href="Hom.html#AdjunctionHom_rect" xlink:title="AdjunctionHom_rect">
<ellipse fill="#f070d1" stroke="black" cx="493" cy="-148.171" rx="85.5853" ry="18"/>
<text text-anchor="middle" x="493" y="-144.471" font-family="Times,serif" font-size="14.00">AdjunctionHom_rect</text>
</a>
</g>
</g>
<!-- Hom_AdjunctionHom_rec&#45;&gt;Hom_AdjunctionHom_rect -->
<g id="edge1" class="edge"><title>Hom_AdjunctionHom_rec&#45;&gt;Hom_AdjunctionHom_rect</title>
<path fill="none" stroke="black" d="M571.082,-234.757C554.729,-216.623 532.81,-192.317 516.358,-174.074"/>
<polygon fill="black" stroke="black" points="518.52,-171.245 509.224,-166.162 513.322,-175.932 518.52,-171.245"/>
</g>
<!-- Hom_AdjunctionHom_ind -->
<g id="node2" class="node"><title>Hom_AdjunctionHom_ind</title>
<g id="a_node2"><a xlink:href="Hom.html#AdjunctionHom_ind" xlink:title="AdjunctionHom_ind">
<ellipse fill="#7fffd4" stroke="black" cx="393" cy="-260.171" rx="83.6991" ry="18"/>
<ellipse fill="none" stroke="black" cx="393" cy="-260.171" rx="87.6922" ry="22"/>
<ellipse fill="none" stroke="black" cx="393" cy="-260.171" rx="91.6854" ry="26"/>
<text text-anchor="middle" x="393" y="-256.471" font-family="Times,serif" font-size="14.00">AdjunctionHom_ind</text>
</a>
</g>
</g>
<!-- Hom_AdjunctionHom_ind&#45;&gt;Hom_AdjunctionHom_rect -->
<g id="edge2" class="edge"><title>Hom_AdjunctionHom_ind&#45;&gt;Hom_AdjunctionHom_rect</title>
<path fill="none" stroke="black" d="M415.692,-234.757C431.882,-216.623 453.584,-192.317 469.873,-174.074"/>
<polygon fill="black" stroke="black" points="472.887,-175.953 476.937,-166.162 467.666,-171.291 472.887,-175.953"/>
</g>
<!-- Hom_Build_AdjunctionHom -->
<g id="node5" class="node"><title>Hom_Build_AdjunctionHom</title>
<g id="a_node5"><a xlink:href="Hom.html#Build_AdjunctionHom" xlink:title="Build_AdjunctionHom">
<ellipse fill="#7faaff" stroke="black" cx="493" cy="-47.1713" rx="92.0841" ry="18"/>
<text text-anchor="middle" x="493" y="-43.4713" font-family="Times,serif" font-size="14.00">Build_AdjunctionHom</text>
</a>
</g>
</g>
<!-- Hom_AdjunctionHom_rect&#45;&gt;Hom_Build_AdjunctionHom -->
<g id="edge3" class="edge"><title>Hom_AdjunctionHom_rect&#45;&gt;Hom_Build_AdjunctionHom</title>
<path fill="none" stroke="black" d="M493,-130.115C493,-114.984 493,-93.1161 493,-75.6324"/>
<polygon fill="black" stroke="black" points="496.5,-75.4123 493,-65.4123 489.5,-75.4123 496.5,-75.4123"/>
</g>
<!-- Hom_mate_of -->
<g id="node4" class="node"><title>Hom_mate_of</title>
<g id="a_node4"><a xlink:href="Hom.html#mate_of" xlink:title="mate_of">
<ellipse fill="#f070d1" stroke="black" cx="235" cy="-260.171" rx="40.1273" ry="18"/>
<ellipse fill="none" stroke="black" cx="235" cy="-260.171" rx="44.1105" ry="22"/>
<ellipse fill="none" stroke="black" cx="235" cy="-260.171" rx="48.0937" ry="26"/>
<text text-anchor="middle" x="235" y="-256.471" font-family="Times,serif" font-size="14.00">mate_of</text>
</a>
</g>
</g>
<!-- Hom_AdjunctionHom -->
<g id="node6" class="node"><title>Hom_AdjunctionHom</title>
<g id="a_node6"><a xlink:href="Hom.html#AdjunctionHom" xlink:title="AdjunctionHom">
<ellipse fill="#e2cdfa" stroke="black" cx="92" cy="-260.171" rx="68.463" ry="18"/>
<ellipse fill="none" stroke="black" cx="92" cy="-260.171" rx="72.4758" ry="22"/>
<ellipse fill="none" stroke="black" cx="92" cy="-260.171" rx="76.4887" ry="26"/>
<text text-anchor="middle" x="92" y="-256.471" font-family="Times,serif" font-size="14.00">AdjunctionHom</text>
</a>
</g>
</g>
</g>
</svg>
