<?xml version="1.0" encoding="UTF-8" standalone="no"?>
<!DOCTYPE svg PUBLIC "-//W3C//DTD SVG 1.1//EN"
 "http://www.w3.org/Graphics/SVG/1.1/DTD/svg11.dtd">
<!-- Generated by graphviz version 2.26.3 (20100126.1600)
 -->
<!-- Title: HoTT_Types_Bool Pages: 1 -->
<svg width="1270pt" height="639pt"
 viewBox="0.00 0.00 1270.00 639.00" xmlns="http://www.w3.org/2000/svg" xmlns:xlink="http://www.w3.org/1999/xlink">
<g id="graph1" class="graph" transform="scale(1 1) rotate(0) translate(4 635)">
<title>HoTT_Types_Bool</title>
<polygon fill="white" stroke="white" points="-4,5 -4,-635 1267,-635 1267,5 -4,5"/>
<g id="graph2" class="cluster"><title>cluster_Bool</title>
<polygon fill="#ffffc3" stroke="black" points="8,-11.4727 8,-619.527 1254,-619.527 1254,-11.4727 8,-11.4727"/>
<text text-anchor="middle" x="31.5" y="-602.927" font-family="Times Roman,serif" font-size="14.00">Bool</text>
</g>
<!-- Bool_equiv_bool_equiv_bool_bool -->
<g id="node1" class="node"><title>Bool_equiv_bool_equiv_bool_bool</title>
<a xlink:href="Bool.html#equiv_bool_equiv_bool_bool" xlink:title="equiv_bool_equiv_bool_bool">
<ellipse fill="#f070d1" stroke="black" cx="357" cy="-532.473" rx="145.897" ry="18.3848"/>
<ellipse fill="none" stroke="black" cx="357" cy="-532.473" rx="149.884" ry="22.3848"/>
<ellipse fill="none" stroke="black" cx="357" cy="-532.473" rx="153.872" ry="26.3848"/>
<text text-anchor="middle" x="357" y="-528.873" font-family="Times Roman,serif" font-size="14.00">equiv_bool_equiv_bool_bool</text>
</a>
</g>
<!-- Bool_eval_bool_isequiv -->
<g id="node2" class="node"><title>Bool_eval_bool_isequiv</title>
<a xlink:href="Bool.html#eval_bool_isequiv" xlink:title="eval_bool_isequiv">
<ellipse fill="#f070d1" stroke="black" cx="478" cy="-285.473" rx="96.8736" ry="18.3848"/>
<text text-anchor="middle" x="478" y="-281.873" font-family="Times Roman,serif" font-size="14.00">eval_bool_isequiv</text>
</a>
</g>
<!-- Bool_equiv_bool_equiv_bool_bool&#45;&gt;Bool_eval_bool_isequiv -->
<g id="edge2" class="edge"><title>Bool_equiv_bool_equiv_bool_bool&#45;&gt;Bool_eval_bool_isequiv</title>
<path fill="none" stroke="black" d="M369.949,-506.039C392.992,-459.002 440.896,-361.214 464.399,-313.237"/>
<polygon fill="black" stroke="black" points="467.637,-314.583 468.893,-304.063 461.35,-311.504 467.637,-314.583"/>
</g>
<!-- Bool_equiv_negb -->
<g id="node3" class="node"><title>Bool_equiv_negb</title>
<a xlink:href="Bool.html#equiv_negb" xlink:title="equiv_negb">
<ellipse fill="#f070d1" stroke="black" cx="314" cy="-403.473" rx="67.1751" ry="18.3848"/>
<text text-anchor="middle" x="314" y="-399.873" font-family="Times Roman,serif" font-size="14.00">equiv_negb</text>
</a>
</g>
<!-- Bool_equiv_bool_equiv_bool_bool&#45;&gt;Bool_equiv_negb -->
<g id="edge4" class="edge"><title>Bool_equiv_bool_equiv_bool_bool&#45;&gt;Bool_equiv_negb</title>
<path fill="none" stroke="black" d="M348.09,-505.744C340.912,-484.21 330.844,-454.004 323.511,-432.005"/>
<polygon fill="black" stroke="black" points="326.737,-430.617 320.255,-422.237 320.097,-432.831 326.737,-430.617"/>
</g>
<!-- Bool_negb -->
<g id="node13" class="node"><title>Bool_negb</title>
<a xlink:href="Bool.html#negb" xlink:title="negb">
<ellipse fill="#f070d1" stroke="black" cx="519" cy="-167.473" rx="34.8574" ry="18.3848"/>
<text text-anchor="middle" x="519" y="-163.873" font-family="Times Roman,serif" font-size="14.00">negb</text>
</a>
</g>
<!-- Bool_eval_bool_isequiv&#45;&gt;Bool_negb -->
<g id="edge6" class="edge"><title>Bool_eval_bool_isequiv&#45;&gt;Bool_negb</title>
<path fill="none" stroke="black" d="M484.497,-266.775C491.193,-247.502 501.709,-217.237 509.372,-195.182"/>
<polygon fill="black" stroke="black" points="512.692,-196.29 512.669,-185.695 506.08,-193.992 512.692,-196.29"/>
</g>
<!-- Bool_isequiv_negb -->
<g id="node4" class="node"><title>Bool_isequiv_negb</title>
<a xlink:href="Bool.html#isequiv_negb" xlink:title="isequiv_negb">
<ellipse fill="#f070d1" stroke="black" cx="288" cy="-285.473" rx="74.9533" ry="18.3848"/>
<text text-anchor="middle" x="288" y="-281.873" font-family="Times Roman,serif" font-size="14.00">isequiv_negb</text>
</a>
</g>
<!-- Bool_equiv_negb&#45;&gt;Bool_isequiv_negb -->
<g id="edge8" class="edge"><title>Bool_equiv_negb&#45;&gt;Bool_isequiv_negb</title>
<path fill="none" stroke="black" d="M309.88,-384.775C305.677,-365.701 299.103,-335.861 294.257,-313.868"/>
<polygon fill="black" stroke="black" points="297.67,-313.095 292.101,-304.083 290.834,-314.602 297.67,-313.095"/>
</g>
<!-- Bool_isequiv_negb&#45;&gt;Bool_negb -->
<g id="edge10" class="edge"><title>Bool_isequiv_negb&#45;&gt;Bool_negb</title>
<path fill="none" stroke="black" d="M324.027,-269.213C362.075,-251.748 423.558,-222.686 475,-194.473 479.199,-192.17 483.563,-189.652 487.839,-187.109"/>
<polygon fill="black" stroke="black" points="489.673,-190.09 496.412,-181.915 486.046,-184.103 489.673,-190.09"/>
</g>
<!-- Bool_equiv_bool_forall_prod -->
<g id="node5" class="node"><title>Bool_equiv_bool_forall_prod</title>
<a xlink:href="Bool.html#equiv_bool_forall_prod" xlink:title="equiv_bool_forall_prod">
<ellipse fill="#f070d1" stroke="black" cx="874" cy="-167.473" rx="120.208" ry="18.3848"/>
<ellipse fill="none" stroke="black" cx="874" cy="-167.473" rx="124.208" ry="22.3848"/>
<ellipse fill="none" stroke="black" cx="874" cy="-167.473" rx="128.208" ry="26.3848"/>
<text text-anchor="middle" x="874" y="-163.873" font-family="Times Roman,serif" font-size="14.00">equiv_bool_forall_prod</text>
</a>
</g>
<!-- Bool_false -->
<g id="node18" class="node"><title>Bool_false</title>
<a xlink:href="Bool.html#false" xlink:title="false">
<ellipse fill="#7faaff" stroke="black" cx="874" cy="-50.4727" rx="33.9411" ry="18.3848"/>
<text text-anchor="middle" x="874" y="-46.8727" font-family="Times Roman,serif" font-size="14.00">false</text>
</a>
</g>
<!-- Bool_equiv_bool_forall_prod&#45;&gt;Bool_false -->
<g id="edge12" class="edge"><title>Bool_equiv_bool_forall_prod&#45;&gt;Bool_false</title>
<path fill="none" stroke="black" d="M874,-140.924C874,-122.578 874,-98.1838 874,-79.3526"/>
<polygon fill="black" stroke="black" points="877.5,-79.2667 874,-69.2667 870.5,-79.2668 877.5,-79.2667"/>
</g>
<!-- Bool_true -->
<g id="node19" class="node"><title>Bool_true</title>
<a xlink:href="Bool.html#true" xlink:title="true">
<ellipse fill="#7faaff" stroke="black" cx="626" cy="-50.4727" rx="32.0265" ry="18.3848"/>
<text text-anchor="middle" x="626" y="-46.8727" font-family="Times Roman,serif" font-size="14.00">true</text>
</a>
</g>
<!-- Bool_equiv_bool_forall_prod&#45;&gt;Bool_true -->
<g id="edge14" class="edge"><title>Bool_equiv_bool_forall_prod&#45;&gt;Bool_true</title>
<path fill="none" stroke="black" d="M822.313,-143.088C773.585,-120.099 701.956,-86.3067 660.035,-66.5296"/>
<polygon fill="black" stroke="black" points="661.342,-63.2763 650.805,-62.1749 658.355,-69.6071 661.342,-63.2763"/>
</g>
<!-- Bool_Bool -->
<g id="node20" class="node"><title>Bool_Bool</title>
<a xlink:href="Bool.html#Bool" xlink:title="Bool">
<ellipse fill="#e2cdfa" stroke="black" cx="519" cy="-50.4727" rx="33.234" ry="18.3848"/>
<text text-anchor="middle" x="519" y="-46.8727" font-family="Times Roman,serif" font-size="14.00">Bool</text>
</a>
</g>
<!-- Bool_equiv_bool_forall_prod&#45;&gt;Bool_Bool -->
<g id="edge16" class="edge"><title>Bool_equiv_bool_forall_prod&#45;&gt;Bool_Bool</title>
<path fill="none" stroke="black" d="M805.552,-144.914C731.653,-120.558 616.577,-82.632 557.245,-63.0773"/>
<polygon fill="black" stroke="black" points="558.119,-59.6803 547.526,-59.8742 555.928,-66.3285 558.119,-59.6803"/>
</g>
<!-- Bool_not_fixed_negb -->
<g id="node6" class="node"><title>Bool_not_fixed_negb</title>
<a xlink:href="Bool.html#not_fixed_negb" xlink:title="not_fixed_negb">
<ellipse fill="#f070d1" stroke="black" cx="594" cy="-403.473" rx="85.1024" ry="18.3848"/>
<ellipse fill="none" stroke="black" cx="594" cy="-403.473" rx="89.081" ry="22.3848"/>
<ellipse fill="none" stroke="black" cx="594" cy="-403.473" rx="93.0596" ry="26.3848"/>
<text text-anchor="middle" x="594" y="-399.873" font-family="Times Roman,serif" font-size="14.00">not_fixed_negb</text>
</a>
</g>
<!-- Bool_true_ne_false -->
<g id="node9" class="node"><title>Bool_true_ne_false</title>
<a xlink:href="Bool.html#true_ne_false" xlink:title="true_ne_false">
<ellipse fill="#f070d1" stroke="black" cx="691" cy="-285.473" rx="77.7817" ry="18.3848"/>
<text text-anchor="middle" x="691" y="-281.873" font-family="Times Roman,serif" font-size="14.00">true_ne_false</text>
</a>
</g>
<!-- Bool_not_fixed_negb&#45;&gt;Bool_true_ne_false -->
<g id="edge18" class="edge"><title>Bool_not_fixed_negb&#45;&gt;Bool_true_ne_false</title>
<path fill="none" stroke="black" d="M615.287,-377.577C631.293,-358.106 653.144,-331.524 669.259,-311.92"/>
<polygon fill="black" stroke="black" points="672.134,-313.935 675.78,-303.987 666.726,-309.49 672.134,-313.935"/>
</g>
<!-- Bool_not_fixed_negb&#45;&gt;Bool_negb -->
<g id="edge20" class="edge"><title>Bool_not_fixed_negb&#45;&gt;Bool_negb</title>
<path fill="none" stroke="black" d="M595.942,-376.943C597.124,-348.761 596.483,-303.286 584,-266.473 574.567,-238.655 555.421,-211.054 540.339,-192.091"/>
<polygon fill="black" stroke="black" points="542.989,-189.803 533.955,-184.268 537.565,-194.228 542.989,-189.803"/>
</g>
<!-- Bool_hset_bool -->
<g id="node7" class="node"><title>Bool_hset_bool</title>
<a xlink:href="Bool.html#hset_bool" xlink:title="hset_bool">
<ellipse fill="#f070d1" stroke="black" cx="819" cy="-532.473" rx="58.2486" ry="18.3848"/>
<ellipse fill="none" stroke="black" cx="819" cy="-532.473" rx="62.2185" ry="22.3848"/>
<ellipse fill="none" stroke="black" cx="819" cy="-532.473" rx="66.1884" ry="26.3848"/>
<text text-anchor="middle" x="819" y="-528.873" font-family="Times Roman,serif" font-size="14.00">hset_bool</text>
</a>
</g>
<!-- Bool_decidable_paths_bool -->
<g id="node8" class="node"><title>Bool_decidable_paths_bool</title>
<a xlink:href="Bool.html#decidable_paths_bool" xlink:title="decidable_paths_bool">
<ellipse fill="#f070d1" stroke="black" cx="819" cy="-403.473" rx="114.051" ry="18.3848"/>
<text text-anchor="middle" x="819" y="-399.873" font-family="Times Roman,serif" font-size="14.00">decidable_paths_bool</text>
</a>
</g>
<!-- Bool_hset_bool&#45;&gt;Bool_decidable_paths_bool -->
<g id="edge22" class="edge"><title>Bool_hset_bool&#45;&gt;Bool_decidable_paths_bool</title>
<path fill="none" stroke="black" d="M819,-505.744C819,-484.308 819,-454.278 819,-432.304"/>
<polygon fill="black" stroke="black" points="822.5,-432.237 819,-422.237 815.5,-432.237 822.5,-432.237"/>
</g>
<!-- Bool_decidable_paths_bool&#45;&gt;Bool_true_ne_false -->
<g id="edge24" class="edge"><title>Bool_decidable_paths_bool&#45;&gt;Bool_true_ne_false</title>
<path fill="none" stroke="black" d="M799,-385.035C777.175,-364.915 742.117,-332.596 717.894,-310.266"/>
<polygon fill="black" stroke="black" points="720.165,-307.599 710.44,-303.394 715.421,-312.746 720.165,-307.599"/>
</g>
<!-- Bool_false_ne_true -->
<g id="node10" class="node"><title>Bool_false_ne_true</title>
<a xlink:href="Bool.html#false_ne_true" xlink:title="false_ne_true">
<ellipse fill="#f070d1" stroke="black" cx="650" cy="-167.473" rx="77.7817" ry="18.3848"/>
<text text-anchor="middle" x="650" y="-163.873" font-family="Times Roman,serif" font-size="14.00">false_ne_true</text>
</a>
</g>
<!-- Bool_true_ne_false&#45;&gt;Bool_false_ne_true -->
<g id="edge26" class="edge"><title>Bool_true_ne_false&#45;&gt;Bool_false_ne_true</title>
<path fill="none" stroke="black" d="M684.594,-267.035C677.953,-247.924 667.489,-217.806 659.807,-195.697"/>
<polygon fill="black" stroke="black" points="663.085,-194.467 656.497,-186.17 656.473,-196.765 663.085,-194.467"/>
</g>
<!-- Bool_false_ne_true&#45;&gt;Bool_false -->
<g id="edge28" class="edge"><title>Bool_false_ne_true&#45;&gt;Bool_false</title>
<path fill="none" stroke="black" d="M682.572,-150.46C724.737,-128.436 797.848,-90.2484 840.475,-67.9837"/>
<polygon fill="black" stroke="black" points="842.098,-71.0846 849.341,-63.3526 838.857,-64.88 842.098,-71.0846"/>
</g>
<!-- Bool_false_ne_true&#45;&gt;Bool_true -->
<g id="edge30" class="edge"><title>Bool_false_ne_true&#45;&gt;Bool_true</title>
<path fill="none" stroke="black" d="M646.197,-148.934C642.335,-130.107 636.303,-100.702 631.836,-78.9236"/>
<polygon fill="black" stroke="black" points="635.223,-78.0177 629.785,-68.925 628.366,-79.4244 635.223,-78.0177"/>
</g>
<!-- Bool_false_ne_true&#45;&gt;Bool_Bool -->
<g id="edge32" class="edge"><title>Bool_false_ne_true&#45;&gt;Bool_Bool</title>
<path fill="none" stroke="black" d="M629.818,-149.448C606.893,-128.972 569.439,-95.5211 544.508,-73.2547"/>
<polygon fill="black" stroke="black" points="546.678,-70.4998 536.888,-66.449 542.015,-75.7207 546.678,-70.4998"/>
</g>
<!-- Bool_trunc_if -->
<g id="node11" class="node"><title>Bool_trunc_if</title>
<a xlink:href="Bool.html#trunc_if" xlink:title="trunc_if">
<ellipse fill="#f070d1" stroke="black" cx="213" cy="-167.473" rx="48.7904" ry="18.3848"/>
<ellipse fill="none" stroke="black" cx="213" cy="-167.473" rx="52.7904" ry="22.3848"/>
<ellipse fill="none" stroke="black" cx="213" cy="-167.473" rx="56.7904" ry="26.3848"/>
<text text-anchor="middle" x="213" y="-163.873" font-family="Times Roman,serif" font-size="14.00">trunc_if</text>
</a>
</g>
<!-- Bool_trunc_if&#45;&gt;Bool_Bool -->
<g id="edge34" class="edge"><title>Bool_trunc_if&#45;&gt;Bool_Bool</title>
<path fill="none" stroke="black" d="M255.884,-149.715C263.565,-146.595 271.508,-143.409 279,-140.473 350.365,-112.502 434.347,-81.4262 481.66,-64.0869"/>
<polygon fill="black" stroke="black" points="482.994,-67.3257 491.182,-60.6015 480.588,-60.7523 482.994,-67.3257"/>
</g>
<!-- Bool_implb -->
<g id="node12" class="node"><title>Bool_implb</title>
<a xlink:href="Bool.html#implb" xlink:title="implb">
<ellipse fill="#f070d1" stroke="black" cx="333" cy="-167.473" rx="37.0648" ry="18.3848"/>
<ellipse fill="none" stroke="black" cx="333" cy="-167.473" rx="41.0209" ry="22.3848"/>
<ellipse fill="none" stroke="black" cx="333" cy="-167.473" rx="44.9769" ry="26.3848"/>
<text text-anchor="middle" x="333" y="-163.873" font-family="Times Roman,serif" font-size="14.00">implb</text>
</a>
</g>
<!-- Bool_implb&#45;&gt;Bool_true -->
<g id="edge36" class="edge"><title>Bool_implb&#45;&gt;Bool_true</title>
<path fill="none" stroke="black" d="M366.737,-149.935C373.395,-146.664 380.373,-143.368 387,-140.473 456.983,-109.898 540.991,-79.7226 588.467,-63.2509"/>
<polygon fill="black" stroke="black" points="589.717,-66.5223 598.026,-59.9488 587.431,-59.906 589.717,-66.5223"/>
</g>
<!-- Bool_implb&#45;&gt;Bool_Bool -->
<g id="edge38" class="edge"><title>Bool_implb&#45;&gt;Bool_Bool</title>
<path fill="none" stroke="black" d="M364.132,-147.89C398.593,-126.212 453.796,-91.4882 488.145,-69.8814"/>
<polygon fill="black" stroke="black" points="490.223,-72.7091 496.824,-64.4219 486.496,-66.7838 490.223,-72.7091"/>
</g>
<!-- Bool_negb&#45;&gt;Bool_false -->
<g id="edge40" class="edge"><title>Bool_negb&#45;&gt;Bool_false</title>
<path fill="none" stroke="black" d="M540.751,-152.53C547.654,-148.229 555.458,-143.805 563,-140.473 655.101,-99.7797 770.588,-71.968 831.635,-58.9355"/>
<polygon fill="black" stroke="black" points="832.605,-62.3083 841.669,-56.8225 831.162,-55.4585 832.605,-62.3083"/>
</g>
<!-- Bool_negb&#45;&gt;Bool_true -->
<g id="edge42" class="edge"><title>Bool_negb&#45;&gt;Bool_true</title>
<path fill="none" stroke="black" d="M534.33,-150.709C552.629,-130.701 583.359,-97.0992 604.143,-74.3727"/>
<polygon fill="black" stroke="black" points="606.877,-76.5691 611.043,-66.8277 601.711,-71.845 606.877,-76.5691"/>
</g>
<!-- Bool_negb&#45;&gt;Bool_Bool -->
<g id="edge44" class="edge"><title>Bool_negb&#45;&gt;Bool_Bool</title>
<path fill="none" stroke="black" d="M519,-148.934C519,-130.302 519,-101.312 519,-79.6056"/>
<polygon fill="black" stroke="black" points="522.5,-79.3124 519,-69.3124 515.5,-79.3125 522.5,-79.3124"/>
</g>
<!-- Bool_orb -->
<g id="node14" class="node"><title>Bool_orb</title>
<a xlink:href="Bool.html#orb" xlink:title="orb">
<ellipse fill="#f070d1" stroke="black" cx="431" cy="-167.473" rx="27.1888" ry="18.3848"/>
<ellipse fill="none" stroke="black" cx="431" cy="-167.473" rx="31.1324" ry="22.3848"/>
<ellipse fill="none" stroke="black" cx="431" cy="-167.473" rx="35.0761" ry="26.3848"/>
<text text-anchor="middle" x="431" y="-163.873" font-family="Times Roman,serif" font-size="14.00">orb</text>
</a>
</g>
<!-- Bool_orb&#45;&gt;Bool_true -->
<g id="edge46" class="edge"><title>Bool_orb&#45;&gt;Bool_true</title>
<path fill="none" stroke="black" d="M458.428,-150.567C463.909,-147.209 469.632,-143.719 475,-140.473 516.179,-115.568 563.92,-87.1969 594.515,-69.079"/>
<polygon fill="black" stroke="black" points="596.61,-71.906 603.433,-63.8006 593.045,-65.882 596.61,-71.906"/>
</g>
<!-- Bool_orb&#45;&gt;Bool_Bool -->
<g id="edge48" class="edge"><title>Bool_orb&#45;&gt;Bool_Bool</title>
<path fill="none" stroke="black" d="M448.386,-144.357C463.2,-124.661 484.461,-96.3937 499.778,-76.0288"/>
<polygon fill="black" stroke="black" points="502.729,-77.9286 505.943,-67.8329 497.135,-73.7209 502.729,-77.9286"/>
</g>
<!-- Bool_andb -->
<g id="node15" class="node"><title>Bool_andb</title>
<a xlink:href="Bool.html#andb" xlink:title="andb">
<ellipse fill="#f070d1" stroke="black" cx="1203" cy="-167.473" rx="34.949" ry="18.3848"/>
<ellipse fill="none" stroke="black" cx="1203" cy="-167.473" rx="38.903" ry="22.3848"/>
<ellipse fill="none" stroke="black" cx="1203" cy="-167.473" rx="42.857" ry="26.3848"/>
<text text-anchor="middle" x="1203" y="-163.873" font-family="Times Roman,serif" font-size="14.00">andb</text>
</a>
</g>
<!-- Bool_andb&#45;&gt;Bool_false -->
<g id="edge50" class="edge"><title>Bool_andb&#45;&gt;Bool_false</title>
<path fill="none" stroke="black" d="M1170.94,-149.78C1164.43,-146.488 1157.57,-143.223 1151,-140.473 1069.11,-106.185 969.255,-76.5956 914.595,-61.3879"/>
<polygon fill="black" stroke="black" points="915.5,-58.0069 904.929,-58.7177 913.636,-64.7541 915.5,-58.0069"/>
</g>
<!-- Bool_andb&#45;&gt;Bool_Bool -->
<g id="edge52" class="edge"><title>Bool_andb&#45;&gt;Bool_Bool</title>
<path fill="none" stroke="black" d="M1171.86,-149.053C1165.17,-145.738 1157.99,-142.65 1151,-140.473 908.936,-65.102 833.344,-120.473 585,-69.4727 576.005,-67.6254 566.448,-65.17 557.482,-62.6396"/>
<polygon fill="black" stroke="black" points="558.252,-59.2183 547.672,-59.7791 556.293,-65.9385 558.252,-59.2183"/>
</g>
<!-- Bool_Bool_rec -->
<g id="node16" class="node"><title>Bool_Bool_rec</title>
<a xlink:href="Bool.html#Bool_rec" xlink:title="Bool_rec">
<ellipse fill="#f070d1" stroke="black" cx="77" cy="-167.473" rx="53.033" ry="18.3848"/>
<ellipse fill="none" stroke="black" cx="77" cy="-167.473" rx="57.033" ry="22.3848"/>
<ellipse fill="none" stroke="black" cx="77" cy="-167.473" rx="61.033" ry="26.3848"/>
<text text-anchor="middle" x="77" y="-163.873" font-family="Times Roman,serif" font-size="14.00">Bool_rec</text>
</a>
</g>
<!-- Bool_Bool_rec&#45;&gt;Bool_Bool -->
<g id="edge54" class="edge"><title>Bool_Bool_rec&#45;&gt;Bool_Bool</title>
<path fill="none" stroke="black" d="M121.504,-149.308C129.905,-146.164 138.67,-143.075 147,-140.473 265.242,-103.539 408.551,-72.6686 477.71,-58.6174"/>
<polygon fill="black" stroke="black" points="478.652,-61.998 487.761,-56.5879 477.266,-55.1365 478.652,-61.998"/>
</g>
<!-- Bool_Bool_ind -->
<g id="node17" class="node"><title>Bool_Bool_ind</title>
<a xlink:href="Bool.html#Bool_ind" xlink:title="Bool_ind">
<ellipse fill="#f070d1" stroke="black" cx="1081" cy="-167.473" rx="53.033" ry="18.3848"/>
<ellipse fill="none" stroke="black" cx="1081" cy="-167.473" rx="57.033" ry="22.3848"/>
<ellipse fill="none" stroke="black" cx="1081" cy="-167.473" rx="61.033" ry="26.3848"/>
<text text-anchor="middle" x="1081" y="-163.873" font-family="Times Roman,serif" font-size="14.00">Bool_ind</text>
</a>
</g>
<!-- Bool_Bool_ind&#45;&gt;Bool_false -->
<g id="edge56" class="edge"><title>Bool_Bool_ind&#45;&gt;Bool_false</title>
<path fill="none" stroke="black" d="M1043.51,-146.285C1004.42,-124.187 943.755,-89.8997 906.589,-68.8923"/>
<polygon fill="black" stroke="black" points="908.101,-65.7268 897.673,-63.8531 904.656,-71.8207 908.101,-65.7268"/>
</g>
<!-- Bool_Bool_ind&#45;&gt;Bool_true -->
<g id="edge58" class="edge"><title>Bool_Bool_ind&#45;&gt;Bool_true</title>
<path fill="none" stroke="black" d="M1036.51,-149.255C1028.11,-146.117 1019.34,-143.042 1011,-140.473 887.359,-102.377 737.084,-71.5912 666.415,-58.0021"/>
<polygon fill="black" stroke="black" points="667.058,-54.5617 656.579,-56.1231 665.745,-61.4373 667.058,-54.5617"/>
</g>
<!-- Bool_Bool_ind&#45;&gt;Bool_Bool -->
<g id="edge60" class="edge"><title>Bool_Bool_ind&#45;&gt;Bool_Bool</title>
<path fill="none" stroke="black" d="M1037.02,-148.952C1028.49,-145.806 1019.54,-142.807 1011,-140.473 825.838,-89.8969 772.204,-111.871 585,-69.4727 576.128,-67.4634 566.683,-64.9644 557.794,-62.4459"/>
<polygon fill="black" stroke="black" points="558.633,-59.0452 548.054,-59.6193 556.682,-65.7678 558.633,-59.0452"/>
</g>
</g>
</svg>
