<?xml version="1.0" encoding="UTF-8" standalone="no"?>
<!DOCTYPE svg PUBLIC "-//W3C//DTD SVG 1.1//EN"
 "http://www.w3.org/Graphics/SVG/1.1/DTD/svg11.dtd">
<!-- Generated by graphviz version 2.39.20161220.0128 (20161220.0128)
 -->
<!-- Title: HoTT_HIT_Spheres Pages: 1 -->
<svg width="1011pt" height="509pt"
 viewBox="0.00 0.00 1011.00 509.50" xmlns="http://www.w3.org/2000/svg" xmlns:xlink="http://www.w3.org/1999/xlink">
<g id="graph0" class="graph" transform="scale(1 1) rotate(0) translate(4 505.5)">
<title>HoTT_HIT_Spheres</title>
<polygon fill="#ffffff" stroke="transparent" points="-4,4 -4,-505.5 1007,-505.5 1007,4 -4,4"/>
<g id="clust1" class="cluster">
<title>cluster_Spheres</title>
<polygon fill="#ffffc3" stroke="#000000" points="8,-11.3014 8,-490.1986 995,-490.1986 995,-11.3014 8,-11.3014"/>
<text text-anchor="middle" x="37.5" y="-474.9986" font-family="Times,serif" font-size="14.00" fill="#000000">Spheres</text>
</g>
<!-- Spheres_trunc_allnullhomot -->
<g id="node1" class="node">
<title>Spheres_trunc_allnullhomot</title>
<g id="a_node1"><a xlink:href="Spheres.html#trunc_allnullhomot" xlink:title="trunc_allnullhomot">
<ellipse fill="#f070d1" stroke="#000000" cx="229" cy="-285.3014" rx="78.7731" ry="18"/>
<ellipse fill="none" stroke="#000000" cx="229" cy="-285.3014" rx="82.7797" ry="22"/>
<ellipse fill="none" stroke="#000000" cx="229" cy="-285.3014" rx="86.7863" ry="26"/>
<text text-anchor="middle" x="229" y="-281.6014" font-family="Times,serif" font-size="14.00" fill="#000000">trunc_allnullhomot</text>
</a>
</g>
</g>
<!-- Spheres_Sph0_to_Bool -->
<g id="node13" class="node">
<title>Spheres_Sph0_to_Bool</title>
<g id="a_node13"><a xlink:href="Spheres.html#Sph0_to_Bool" xlink:title="Sph0_to_Bool">
<ellipse fill="#f070d1" stroke="#000000" cx="410" cy="-161.3014" rx="61.99" ry="18"/>
<text text-anchor="middle" x="410" y="-157.6014" font-family="Times,serif" font-size="14.00" fill="#000000">Sph0_to_Bool</text>
</a>
</g>
</g>
<!-- Spheres_trunc_allnullhomot&#45;&gt;Spheres_Sph0_to_Bool -->
<g id="edge1" class="edge">
<title>Spheres_trunc_allnullhomot&#45;&gt;Spheres_Sph0_to_Bool</title>
<path fill="none" stroke="#000000" d="M263.8986,-261.393C296.5756,-239.0065 345.0426,-205.8026 377.0669,-183.8633"/>
<polygon fill="#000000" stroke="#000000" points="379.3649,-186.5316 385.6365,-177.9924 375.4087,-180.7568 379.3649,-186.5316"/>
</g>
<!-- Spheres_allnullhomot_trunc -->
<g id="node2" class="node">
<title>Spheres_allnullhomot_trunc</title>
<g id="a_node2"><a xlink:href="Spheres.html#allnullhomot_trunc" xlink:title="allnullhomot_trunc">
<ellipse fill="#f070d1" stroke="#000000" cx="244" cy="-161.3014" rx="78.7731" ry="18"/>
<ellipse fill="none" stroke="#000000" cx="244" cy="-161.3014" rx="82.7797" ry="22"/>
<ellipse fill="none" stroke="#000000" cx="244" cy="-161.3014" rx="86.7863" ry="26"/>
<text text-anchor="middle" x="244" y="-157.6014" font-family="Times,serif" font-size="14.00" fill="#000000">allnullhomot_trunc</text>
</a>
</g>
</g>
<!-- Spheres_Sphere -->
<g id="node14" class="node">
<title>Spheres_Sphere</title>
<g id="a_node14"><a xlink:href="Spheres.html#Sphere" xlink:title="Sphere">
<ellipse fill="#f070d1" stroke="#000000" cx="480" cy="-48.3014" rx="35.194" ry="18"/>
<text text-anchor="middle" x="480" y="-44.6014" font-family="Times,serif" font-size="14.00" fill="#000000">Sphere</text>
</a>
</g>
</g>
<!-- Spheres_allnullhomot_trunc&#45;&gt;Spheres_Sphere -->
<g id="edge2" class="edge">
<title>Spheres_allnullhomot_trunc&#45;&gt;Spheres_Sphere</title>
<path fill="none" stroke="#000000" d="M290.0634,-139.2456C335.4867,-117.4963 403.9075,-84.7355 445.0372,-65.0421"/>
<polygon fill="#000000" stroke="#000000" points="446.6201,-68.1648 454.128,-60.6893 443.597,-61.8512 446.6201,-68.1648"/>
</g>
<!-- Spheres_isequiv_Sph2_to_S2 -->
<g id="node3" class="node">
<title>Spheres_isequiv_Sph2_to_S2</title>
<g id="a_node3"><a xlink:href="Spheres.html#isequiv_Sph2_to_S2" xlink:title="isequiv_Sph2_to_S2">
<ellipse fill="#f070d1" stroke="#000000" cx="816" cy="-409.3014" rx="83.3687" ry="18"/>
<ellipse fill="none" stroke="#000000" cx="816" cy="-409.3014" rx="87.3772" ry="22"/>
<ellipse fill="none" stroke="#000000" cx="816" cy="-409.3014" rx="91.3856" ry="26"/>
<text text-anchor="middle" x="816" y="-405.6014" font-family="Times,serif" font-size="14.00" fill="#000000">isequiv_Sph2_to_S2</text>
</a>
</g>
</g>
<!-- Spheres_issect_Sph2_to_S2 -->
<g id="node4" class="node">
<title>Spheres_issect_Sph2_to_S2</title>
<g id="a_node4"><a xlink:href="Spheres.html#issect_Sph2_to_S2" xlink:title="issect_Sph2_to_S2">
<ellipse fill="#f070d1" stroke="#000000" cx="737" cy="-285.3014" rx="77.1866" ry="18"/>
<text text-anchor="middle" x="737" y="-281.6014" font-family="Times,serif" font-size="14.00" fill="#000000">issect_Sph2_to_S2</text>
</a>
</g>
</g>
<!-- Spheres_isequiv_Sph2_to_S2&#45;&gt;Spheres_issect_Sph2_to_S2 -->
<g id="edge3" class="edge">
<title>Spheres_isequiv_Sph2_to_S2&#45;&gt;Spheres_issect_Sph2_to_S2</title>
<path fill="none" stroke="#000000" d="M799.6311,-383.6085C786.2649,-362.6286 767.4425,-333.0846 753.9272,-311.8707"/>
<polygon fill="#000000" stroke="#000000" points="756.8163,-309.8915 748.4912,-303.3383 750.9126,-313.6527 756.8163,-309.8915"/>
</g>
<!-- Spheres_issect_S2_to_Sph2 -->
<g id="node5" class="node">
<title>Spheres_issect_S2_to_Sph2</title>
<g id="a_node5"><a xlink:href="Spheres.html#issect_S2_to_Sph2" xlink:title="issect_S2_to_Sph2">
<ellipse fill="#f070d1" stroke="#000000" cx="910" cy="-285.3014" rx="77.1866" ry="18"/>
<text text-anchor="middle" x="910" y="-281.6014" font-family="Times,serif" font-size="14.00" fill="#000000">issect_S2_to_Sph2</text>
</a>
</g>
</g>
<!-- Spheres_isequiv_Sph2_to_S2&#45;&gt;Spheres_issect_S2_to_Sph2 -->
<g id="edge4" class="edge">
<title>Spheres_isequiv_Sph2_to_S2&#45;&gt;Spheres_issect_S2_to_Sph2</title>
<path fill="none" stroke="#000000" d="M835.4769,-383.6085C851.452,-362.5349 873.9773,-332.8207 890.0738,-311.5871"/>
<polygon fill="#000000" stroke="#000000" points="893.075,-313.4217 896.3269,-303.3383 887.4966,-309.193 893.075,-313.4217"/>
</g>
<!-- Spheres_S2_to_Sph2 -->
<g id="node6" class="node">
<title>Spheres_S2_to_Sph2</title>
<g id="a_node6"><a xlink:href="Spheres.html#S2_to_Sph2" xlink:title="S2_to_Sph2">
<ellipse fill="#f070d1" stroke="#000000" cx="863" cy="-161.3014" rx="53.8905" ry="18"/>
<text text-anchor="middle" x="863" y="-157.6014" font-family="Times,serif" font-size="14.00" fill="#000000">S2_to_Sph2</text>
</a>
</g>
</g>
<!-- Spheres_issect_Sph2_to_S2&#45;&gt;Spheres_S2_to_Sph2 -->
<g id="edge5" class="edge">
<title>Spheres_issect_Sph2_to_S2&#45;&gt;Spheres_S2_to_Sph2</title>
<path fill="none" stroke="#000000" d="M755.0527,-267.5352C776.8831,-246.0514 813.7375,-209.7819 838.2174,-185.6906"/>
<polygon fill="#000000" stroke="#000000" points="840.7146,-188.1437 845.387,-178.6348 835.8046,-183.1545 840.7146,-188.1437"/>
</g>
<!-- Spheres_Sph2_to_S2 -->
<g id="node7" class="node">
<title>Spheres_Sph2_to_S2</title>
<g id="a_node7"><a xlink:href="Spheres.html#Sph2_to_S2" xlink:title="Sph2_to_S2">
<ellipse fill="#f070d1" stroke="#000000" cx="737" cy="-161.3014" rx="53.8905" ry="18"/>
<text text-anchor="middle" x="737" y="-157.6014" font-family="Times,serif" font-size="14.00" fill="#000000">Sph2_to_S2</text>
</a>
</g>
</g>
<!-- Spheres_issect_Sph2_to_S2&#45;&gt;Spheres_Sph2_to_S2 -->
<g id="edge6" class="edge">
<title>Spheres_issect_Sph2_to_S2&#45;&gt;Spheres_Sph2_to_S2</title>
<path fill="none" stroke="#000000" d="M737,-267.2707C737,-246.8836 737,-213.4282 737,-189.5628"/>
<polygon fill="#000000" stroke="#000000" points="740.5001,-189.3538 737,-179.3538 733.5001,-189.3539 740.5001,-189.3538"/>
</g>
<!-- Spheres_issect_S2_to_Sph2&#45;&gt;Spheres_S2_to_Sph2 -->
<g id="edge7" class="edge">
<title>Spheres_issect_S2_to_Sph2&#45;&gt;Spheres_S2_to_Sph2</title>
<path fill="none" stroke="#000000" d="M903.1658,-267.2707C895.3688,-246.6999 882.5289,-212.8243 873.4684,-188.9201"/>
<polygon fill="#000000" stroke="#000000" points="876.6596,-187.4642 869.8425,-179.3538 870.114,-189.9452 876.6596,-187.4642"/>
</g>
<!-- Spheres_issect_S2_to_Sph2&#45;&gt;Spheres_Sph2_to_S2 -->
<g id="edge8" class="edge">
<title>Spheres_issect_S2_to_Sph2&#45;&gt;Spheres_Sph2_to_S2</title>
<path fill="none" stroke="#000000" d="M885.9451,-268.0597C855.2184,-246.036 801.9819,-207.8781 768.1744,-183.646"/>
<polygon fill="#000000" stroke="#000000" points="770.1902,-180.7847 760.0233,-177.8037 766.1122,-186.4742 770.1902,-180.7847"/>
</g>
<!-- Spheres_S2_to_Sph2&#45;&gt;Spheres_Sphere -->
<g id="edge9" class="edge">
<title>Spheres_S2_to_Sph2&#45;&gt;Spheres_Sphere</title>
<path fill="none" stroke="#000000" d="M830.2746,-146.8804C820.6195,-142.8757 809.9679,-138.6982 800,-135.3014 701.9198,-101.8783 583.5811,-72.4492 521.9482,-57.9184"/>
<polygon fill="#000000" stroke="#000000" points="522.7303,-54.5069 512.1954,-55.632 521.1325,-61.3222 522.7303,-54.5069"/>
</g>
<!-- Spheres_isequiv_Sph1_to_S1 -->
<g id="node8" class="node">
<title>Spheres_isequiv_Sph1_to_S1</title>
<g id="a_node8"><a xlink:href="Spheres.html#isequiv_Sph1_to_S1" xlink:title="isequiv_Sph1_to_S1">
<ellipse fill="#f070d1" stroke="#000000" cx="388" cy="-409.3014" rx="83.3687" ry="18"/>
<ellipse fill="none" stroke="#000000" cx="388" cy="-409.3014" rx="87.3772" ry="22"/>
<ellipse fill="none" stroke="#000000" cx="388" cy="-409.3014" rx="91.3856" ry="26"/>
<text text-anchor="middle" x="388" y="-405.6014" font-family="Times,serif" font-size="14.00" fill="#000000">isequiv_Sph1_to_S1</text>
</a>
</g>
</g>
<!-- Spheres_S1_to_Sph1 -->
<g id="node9" class="node">
<title>Spheres_S1_to_Sph1</title>
<g id="a_node9"><a xlink:href="Spheres.html#S1_to_Sph1" xlink:title="S1_to_Sph1">
<ellipse fill="#f070d1" stroke="#000000" cx="70" cy="-285.3014" rx="53.8905" ry="18"/>
<text text-anchor="middle" x="70" y="-281.6014" font-family="Times,serif" font-size="14.00" fill="#000000">S1_to_Sph1</text>
</a>
</g>
</g>
<!-- Spheres_isequiv_Sph1_to_S1&#45;&gt;Spheres_S1_to_Sph1 -->
<g id="edge10" class="edge">
<title>Spheres_isequiv_Sph1_to_S1&#45;&gt;Spheres_S1_to_Sph1</title>
<path fill="none" stroke="#000000" d="M332.8828,-388.565C281.133,-368.99 201.6221,-338.643 133,-311.3014 126.6487,-308.7708 119.955,-306.058 113.397,-303.3742"/>
<polygon fill="#000000" stroke="#000000" points="114.5214,-300.0523 103.9417,-299.4874 111.86,-306.5266 114.5214,-300.0523"/>
</g>
<!-- Spheres_Sph1_to_S1 -->
<g id="node10" class="node">
<title>Spheres_Sph1_to_S1</title>
<g id="a_node10"><a xlink:href="Spheres.html#Sph1_to_S1" xlink:title="Sph1_to_S1">
<ellipse fill="#f070d1" stroke="#000000" cx="388" cy="-285.3014" rx="53.8905" ry="18"/>
<text text-anchor="middle" x="388" y="-281.6014" font-family="Times,serif" font-size="14.00" fill="#000000">Sph1_to_S1</text>
</a>
</g>
</g>
<!-- Spheres_isequiv_Sph1_to_S1&#45;&gt;Spheres_Sph1_to_S1 -->
<g id="edge11" class="edge">
<title>Spheres_isequiv_Sph1_to_S1&#45;&gt;Spheres_Sph1_to_S1</title>
<path fill="none" stroke="#000000" d="M388,-383.0042C388,-362.663 388,-334.5441 388,-313.693"/>
<polygon fill="#000000" stroke="#000000" points="391.5001,-313.5314 388,-303.5314 384.5001,-313.5314 391.5001,-313.5314"/>
</g>
<!-- Spheres_isequiv_Sph0_to_Bool -->
<g id="node11" class="node">
<title>Spheres_isequiv_Sph0_to_Bool</title>
<g id="a_node11"><a xlink:href="Spheres.html#isequiv_Sph0_to_Bool" xlink:title="isequiv_Sph0_to_Bool">
<ellipse fill="#f070d1" stroke="#000000" cx="551" cy="-285.3014" rx="90.9839" ry="18"/>
<text text-anchor="middle" x="551" y="-281.6014" font-family="Times,serif" font-size="14.00" fill="#000000">isequiv_Sph0_to_Bool</text>
</a>
</g>
</g>
<!-- Spheres_isequiv_Sph1_to_S1&#45;&gt;Spheres_isequiv_Sph0_to_Bool -->
<g id="edge12" class="edge">
<title>Spheres_isequiv_Sph1_to_S1&#45;&gt;Spheres_isequiv_Sph0_to_Bool</title>
<path fill="none" stroke="#000000" d="M420.2036,-384.803C449.0834,-362.8331 491.1916,-330.7998 519.7694,-309.0597"/>
<polygon fill="#000000" stroke="#000000" points="521.9714,-311.7822 527.8111,-302.9421 517.7332,-306.2111 521.9714,-311.7822"/>
</g>
<!-- Spheres_Sph1_to_S1&#45;&gt;Spheres_Sph0_to_Bool -->
<g id="edge13" class="edge">
<title>Spheres_Sph1_to_S1&#45;&gt;Spheres_Sph0_to_Bool</title>
<path fill="none" stroke="#000000" d="M391.199,-267.2707C394.8324,-246.7917 400.8052,-213.1265 405.043,-189.2409"/>
<polygon fill="#000000" stroke="#000000" points="408.4963,-189.8115 406.7972,-179.3538 401.604,-188.5886 408.4963,-189.8115"/>
</g>
<!-- Spheres_Bool_to_Sph0 -->
<g id="node12" class="node">
<title>Spheres_Bool_to_Sph0</title>
<g id="a_node12"><a xlink:href="Spheres.html#Bool_to_Sph0" xlink:title="Bool_to_Sph0">
<ellipse fill="#f070d1" stroke="#000000" cx="551" cy="-161.3014" rx="61.99" ry="18"/>
<text text-anchor="middle" x="551" y="-157.6014" font-family="Times,serif" font-size="14.00" fill="#000000">Bool_to_Sph0</text>
</a>
</g>
</g>
<!-- Spheres_isequiv_Sph0_to_Bool&#45;&gt;Spheres_Bool_to_Sph0 -->
<g id="edge14" class="edge">
<title>Spheres_isequiv_Sph0_to_Bool&#45;&gt;Spheres_Bool_to_Sph0</title>
<path fill="none" stroke="#000000" d="M551,-267.2707C551,-246.8836 551,-213.4282 551,-189.5628"/>
<polygon fill="#000000" stroke="#000000" points="554.5001,-189.3538 551,-179.3538 547.5001,-189.3539 554.5001,-189.3538"/>
</g>
<!-- Spheres_isequiv_Sph0_to_Bool&#45;&gt;Spheres_Sph0_to_Bool -->
<g id="edge15" class="edge">
<title>Spheres_isequiv_Sph0_to_Bool&#45;&gt;Spheres_Sph0_to_Bool</title>
<path fill="none" stroke="#000000" d="M530.7981,-267.5352C506.2636,-245.9588 464.7712,-209.469 437.3794,-185.3798"/>
<polygon fill="#000000" stroke="#000000" points="439.5304,-182.6105 429.7098,-178.6348 434.9077,-187.867 439.5304,-182.6105"/>
</g>
<!-- Spheres_Bool_to_Sph0&#45;&gt;Spheres_Sphere -->
<g id="edge16" class="edge">
<title>Spheres_Bool_to_Sph0&#45;&gt;Spheres_Sphere</title>
<path fill="none" stroke="#000000" d="M539.7498,-143.3962C528.0487,-124.7732 509.6145,-95.4343 496.315,-74.2676"/>
<polygon fill="#000000" stroke="#000000" points="499.248,-72.3568 490.9642,-65.7515 493.3209,-76.0809 499.248,-72.3568"/>
</g>
<!-- Spheres_Sph0_to_Bool&#45;&gt;Spheres_Sphere -->
<g id="edge17" class="edge">
<title>Spheres_Sph0_to_Bool&#45;&gt;Spheres_Sphere</title>
<path fill="none" stroke="#000000" d="M421.0917,-143.3962C432.6281,-124.7732 450.8026,-95.4343 463.9148,-74.2676"/>
<polygon fill="#000000" stroke="#000000" points="466.8994,-76.0957 469.1902,-65.7515 460.9486,-72.4094 466.8994,-76.0957"/>
</g>
</g>
</svg>
