<?xml version="1.0" encoding="UTF-8" standalone="no"?>
<!DOCTYPE svg PUBLIC "-//W3C//DTD SVG 1.1//EN"
 "http://www.w3.org/Graphics/SVG/1.1/DTD/svg11.dtd">
<!-- Generated by graphviz version 2.26.3 (20100126.1600)
 -->
<!-- Title: HoTT_categories_Yoneda Pages: 1 -->
<svg width="1402pt" height="705pt"
 viewBox="0.00 0.00 1402.00 705.00" xmlns="http://www.w3.org/2000/svg" xmlns:xlink="http://www.w3.org/1999/xlink">
<g id="graph1" class="graph" transform="scale(1 1) rotate(0) translate(4 701)">
<title>HoTT_categories_Yoneda</title>
<polygon fill="white" stroke="white" points="-4,5 -4,-701 1399,-701 1399,5 -4,5"/>
<g id="graph2" class="cluster"><title>cluster_Yoneda</title>
<polygon fill="#ffffc3" stroke="black" points="8,-13.6667 8,-683.333 1386,-683.333 1386,-13.6667 8,-13.6667"/>
<text text-anchor="middle" x="41" y="-666.733" font-family="Times Roman,serif" font-size="14.00">Yoneda</text>
</g>
<!-- Yoneda_yoneda_embedding -->
<g id="node1" class="node"><title>Yoneda_yoneda_embedding</title>
<a xlink:href="Yoneda.html#yoneda_embedding" xlink:title="yoneda_embedding">
<ellipse fill="#facdef" stroke="black" cx="1072" cy="-578.667" rx="104.895" ry="18.3848"/>
<ellipse fill="none" stroke="black" cx="1072" cy="-578.667" rx="108.877" ry="22.3848"/>
<ellipse fill="none" stroke="black" cx="1072" cy="-578.667" rx="112.86" ry="26.3848"/>
<text text-anchor="middle" x="1072" y="-575.067" font-family="Times Roman,serif" font-size="14.00">yoneda_embedding</text>
</a>
</g>
<!-- Yoneda_yoneda_lemma -->
<g id="node3" class="node"><title>Yoneda_yoneda_lemma</title>
<a xlink:href="Yoneda.html#yoneda_lemma" xlink:title="yoneda_lemma">
<ellipse fill="#f070d1" stroke="black" cx="1072" cy="-438.667" rx="84.8528" ry="18.3848"/>
<text text-anchor="middle" x="1072" y="-435.067" font-family="Times Roman,serif" font-size="14.00">yoneda_lemma</text>
</a>
</g>
<!-- Yoneda_yoneda_embedding&#45;&gt;Yoneda_yoneda_lemma -->
<g id="edge2" class="edge"><title>Yoneda_yoneda_embedding&#45;&gt;Yoneda_yoneda_lemma</title>
<path fill="none" stroke="black" d="M1072,-552.004C1072,-527.816 1072,-492.247 1072,-467.427"/>
<polygon fill="black" stroke="black" points="1075.5,-467.186 1072,-457.186 1068.5,-467.186 1075.5,-467.186"/>
</g>
<!-- Yoneda_coyoneda_embedding -->
<g id="node2" class="node"><title>Yoneda_coyoneda_embedding</title>
<a xlink:href="Yoneda.html#coyoneda_embedding" xlink:title="coyoneda_embedding">
<ellipse fill="#facdef" stroke="black" cx="382" cy="-578.667" rx="115.966" ry="18.3848"/>
<ellipse fill="none" stroke="black" cx="382" cy="-578.667" rx="119.966" ry="22.3848"/>
<ellipse fill="none" stroke="black" cx="382" cy="-578.667" rx="123.966" ry="26.3848"/>
<text text-anchor="middle" x="382" y="-575.067" font-family="Times Roman,serif" font-size="14.00">coyoneda_embedding</text>
</a>
</g>
<!-- Yoneda_coyoneda_lemma -->
<g id="node9" class="node"><title>Yoneda_coyoneda_lemma</title>
<a xlink:href="Yoneda.html#coyoneda_lemma" xlink:title="coyoneda_lemma">
<ellipse fill="#f070d1" stroke="black" cx="382" cy="-438.667" rx="94.9596" ry="18.3848"/>
<text text-anchor="middle" x="382" y="-435.067" font-family="Times Roman,serif" font-size="14.00">coyoneda_lemma</text>
</a>
</g>
<!-- Yoneda_coyoneda_embedding&#45;&gt;Yoneda_coyoneda_lemma -->
<g id="edge4" class="edge"><title>Yoneda_coyoneda_embedding&#45;&gt;Yoneda_coyoneda_lemma</title>
<path fill="none" stroke="black" d="M382,-552.004C382,-527.816 382,-492.247 382,-467.427"/>
<polygon fill="black" stroke="black" points="385.5,-467.186 382,-457.186 378.5,-467.186 385.5,-467.186"/>
</g>
<!-- Yoneda_yoneda_lemma_subproof0 -->
<g id="node4" class="node"><title>Yoneda_yoneda_lemma_subproof0</title>
<a xlink:href="Yoneda.html#yoneda_lemma_subproof0" xlink:title="yoneda_lemma_subproof0">
<ellipse fill="#facdef" stroke="black" cx="928" cy="-312.667" rx="138.093" ry="18.3848"/>
<text text-anchor="middle" x="928" y="-309.067" font-family="Times Roman,serif" font-size="14.00">yoneda_lemma_subproof0</text>
</a>
</g>
<!-- Yoneda_yoneda_lemma&#45;&gt;Yoneda_yoneda_lemma_subproof0 -->
<g id="edge6" class="edge"><title>Yoneda_yoneda_lemma&#45;&gt;Yoneda_yoneda_lemma_subproof0</title>
<path fill="none" stroke="black" d="M1051.37,-420.614C1026.59,-398.937 984.892,-362.447 956.916,-337.968"/>
<polygon fill="black" stroke="black" points="958.892,-335.047 949.062,-331.096 954.283,-340.315 958.892,-335.047"/>
</g>
<!-- Yoneda_yoneda_lemma_subproof -->
<g id="node5" class="node"><title>Yoneda_yoneda_lemma_subproof</title>
<a xlink:href="Yoneda.html#yoneda_lemma_subproof" xlink:title="yoneda_lemma_subproof">
<ellipse fill="#facdef" stroke="black" cx="1216" cy="-312.667" rx="132.229" ry="18.3848"/>
<text text-anchor="middle" x="1216" y="-309.067" font-family="Times Roman,serif" font-size="14.00">yoneda_lemma_subproof</text>
</a>
</g>
<!-- Yoneda_yoneda_lemma&#45;&gt;Yoneda_yoneda_lemma_subproof -->
<g id="edge8" class="edge"><title>Yoneda_yoneda_lemma&#45;&gt;Yoneda_yoneda_lemma_subproof</title>
<path fill="none" stroke="black" d="M1092.63,-420.614C1117.41,-398.937 1159.11,-362.447 1187.08,-337.968"/>
<polygon fill="black" stroke="black" points="1189.72,-340.315 1194.94,-331.096 1185.11,-335.047 1189.72,-340.315"/>
</g>
<!-- Yoneda_yoneda_lemma_morphism_inverse -->
<g id="node6" class="node"><title>Yoneda_yoneda_lemma_morphism_inverse</title>
<a xlink:href="Yoneda.html#yoneda_lemma_morphism_inverse" xlink:title="yoneda_lemma_morphism_inverse">
<ellipse fill="#f070d1" stroke="black" cx="905" cy="-186.667" rx="178.898" ry="18.3848"/>
<text text-anchor="middle" x="905" y="-183.067" font-family="Times Roman,serif" font-size="14.00">yoneda_lemma_morphism_inverse</text>
</a>
</g>
<!-- Yoneda_yoneda_lemma_subproof0&#45;&gt;Yoneda_yoneda_lemma_morphism_inverse -->
<g id="edge10" class="edge"><title>Yoneda_yoneda_lemma_subproof0&#45;&gt;Yoneda_yoneda_lemma_morphism_inverse</title>
<path fill="none" stroke="black" d="M924.606,-294.075C920.818,-273.323 914.643,-239.493 910.235,-215.345"/>
<polygon fill="black" stroke="black" points="913.647,-214.544 908.408,-205.335 906.76,-215.801 913.647,-214.544"/>
</g>
<!-- Yoneda_yoneda_lemma_morphism -->
<g id="node8" class="node"><title>Yoneda_yoneda_lemma_morphism</title>
<a xlink:href="Yoneda.html#yoneda_lemma_morphism" xlink:title="yoneda_lemma_morphism">
<ellipse fill="#f070d1" stroke="black" cx="1240" cy="-186.667" rx="137.886" ry="18.3848"/>
<text text-anchor="middle" x="1240" y="-183.067" font-family="Times Roman,serif" font-size="14.00">yoneda_lemma_morphism</text>
</a>
</g>
<!-- Yoneda_yoneda_lemma_subproof0&#45;&gt;Yoneda_yoneda_lemma_morphism -->
<g id="edge12" class="edge"><title>Yoneda_yoneda_lemma_subproof0&#45;&gt;Yoneda_yoneda_lemma_morphism</title>
<path fill="none" stroke="black" d="M971.711,-295.014C1028.14,-272.224 1126.28,-232.59 1186.93,-208.097"/>
<polygon fill="black" stroke="black" points="1188.37,-211.291 1196.33,-204.301 1185.75,-204.8 1188.37,-211.291"/>
</g>
<!-- Yoneda_yoneda_lemma_subproof&#45;&gt;Yoneda_yoneda_lemma_morphism_inverse -->
<g id="edge14" class="edge"><title>Yoneda_yoneda_lemma_subproof&#45;&gt;Yoneda_yoneda_lemma_morphism_inverse</title>
<path fill="none" stroke="black" d="M1172.76,-295.147C1116.83,-272.489 1019.43,-233.026 958.788,-208.459"/>
<polygon fill="black" stroke="black" points="959.966,-205.159 949.383,-204.648 957.337,-211.647 959.966,-205.159"/>
</g>
<!-- Yoneda_yoneda_lemma_subproof&#45;&gt;Yoneda_yoneda_lemma_morphism -->
<g id="edge16" class="edge"><title>Yoneda_yoneda_lemma_subproof&#45;&gt;Yoneda_yoneda_lemma_morphism</title>
<path fill="none" stroke="black" d="M1219.54,-294.075C1223.49,-273.323 1229.94,-239.493 1234.54,-215.345"/>
<polygon fill="black" stroke="black" points="1238.01,-215.813 1236.44,-205.335 1231.13,-214.503 1238.01,-215.813"/>
</g>
<!-- Yoneda_yoneda_lemma_morphism_inverse_subproof -->
<g id="node7" class="node"><title>Yoneda_yoneda_lemma_morphism_inverse_subproof</title>
<a xlink:href="Yoneda.html#yoneda_lemma_morphism_inverse_subproof" xlink:title="yoneda_lemma_morphism_inverse_subproof">
<ellipse fill="#facdef" stroke="black" cx="905" cy="-59.6667" rx="225.775" ry="18.3848"/>
<text text-anchor="middle" x="905" y="-56.0667" font-family="Times Roman,serif" font-size="14.00">yoneda_lemma_morphism_inverse_subproof</text>
</a>
</g>
<!-- Yoneda_yoneda_lemma_morphism_inverse&#45;&gt;Yoneda_yoneda_lemma_morphism_inverse_subproof -->
<g id="edge18" class="edge"><title>Yoneda_yoneda_lemma_morphism_inverse&#45;&gt;Yoneda_yoneda_lemma_morphism_inverse_subproof</title>
<path fill="none" stroke="black" d="M905,-167.927C905,-147.011 905,-112.912 905,-88.5727"/>
<polygon fill="black" stroke="black" points="908.5,-88.4828 905,-78.4828 901.5,-88.4829 908.5,-88.4828"/>
</g>
<!-- Yoneda_yoneda -->
<g id="node15" class="node"><title>Yoneda_yoneda</title>
<a xlink:href="Yoneda.html#yoneda" xlink:title="yoneda">
<ellipse fill="#f070d1" stroke="black" cx="1218" cy="-59.6667" rx="46.8775" ry="18.3848"/>
<text text-anchor="middle" x="1218" y="-56.0667" font-family="Times Roman,serif" font-size="14.00">yoneda</text>
</a>
</g>
<!-- Yoneda_yoneda_lemma_morphism_inverse&#45;&gt;Yoneda_yoneda -->
<g id="edge20" class="edge"><title>Yoneda_yoneda_lemma_morphism_inverse&#45;&gt;Yoneda_yoneda</title>
<path fill="none" stroke="black" d="M949.513,-168.606C1009.79,-144.15 1116.6,-100.81 1175.7,-76.828"/>
<polygon fill="black" stroke="black" points="1177.17,-80.0123 1185.12,-73.0092 1174.53,-73.5259 1177.17,-80.0123"/>
</g>
<!-- Yoneda_yoneda_lemma_morphism&#45;&gt;Yoneda_yoneda -->
<g id="edge22" class="edge"><title>Yoneda_yoneda_lemma_morphism&#45;&gt;Yoneda_yoneda</title>
<path fill="none" stroke="black" d="M1236.75,-167.927C1233.13,-147.011 1227.22,-112.912 1223.01,-88.5727"/>
<polygon fill="black" stroke="black" points="1226.42,-87.7387 1221.26,-78.4828 1219.52,-88.9335 1226.42,-87.7387"/>
</g>
<!-- Yoneda_coyoneda_lemma_subproof0 -->
<g id="node10" class="node"><title>Yoneda_coyoneda_lemma_subproof0</title>
<a xlink:href="Yoneda.html#coyoneda_lemma_subproof0" xlink:title="coyoneda_lemma_subproof0">
<ellipse fill="#facdef" stroke="black" cx="227" cy="-312.667" rx="149.2" ry="18.3848"/>
<text text-anchor="middle" x="227" y="-309.067" font-family="Times Roman,serif" font-size="14.00">coyoneda_lemma_subproof0</text>
</a>
</g>
<!-- Yoneda_coyoneda_lemma&#45;&gt;Yoneda_coyoneda_lemma_subproof0 -->
<g id="edge24" class="edge"><title>Yoneda_coyoneda_lemma&#45;&gt;Yoneda_coyoneda_lemma_subproof0</title>
<path fill="none" stroke="black" d="M359.792,-420.614C333.012,-398.844 287.852,-362.134 257.738,-337.653"/>
<polygon fill="black" stroke="black" points="259.638,-334.688 249.671,-331.096 255.222,-340.119 259.638,-334.688"/>
</g>
<!-- Yoneda_coyoneda_lemma_subproof -->
<g id="node11" class="node"><title>Yoneda_coyoneda_lemma_subproof</title>
<a xlink:href="Yoneda.html#coyoneda_lemma_subproof" xlink:title="coyoneda_lemma_subproof">
<ellipse fill="#facdef" stroke="black" cx="537" cy="-312.667" rx="142.836" ry="18.3848"/>
<text text-anchor="middle" x="537" y="-309.067" font-family="Times Roman,serif" font-size="14.00">coyoneda_lemma_subproof</text>
</a>
</g>
<!-- Yoneda_coyoneda_lemma&#45;&gt;Yoneda_coyoneda_lemma_subproof -->
<g id="edge26" class="edge"><title>Yoneda_coyoneda_lemma&#45;&gt;Yoneda_coyoneda_lemma_subproof</title>
<path fill="none" stroke="black" d="M404.208,-420.614C430.988,-398.844 476.148,-362.134 506.262,-337.653"/>
<polygon fill="black" stroke="black" points="508.778,-340.119 514.329,-331.096 504.362,-334.688 508.778,-340.119"/>
</g>
<!-- Yoneda_coyoneda_lemma_morphism_inverse -->
<g id="node12" class="node"><title>Yoneda_coyoneda_lemma_morphism_inverse</title>
<a xlink:href="Yoneda.html#coyoneda_lemma_morphism_inverse" xlink:title="coyoneda_lemma_morphism_inverse">
<ellipse fill="#f070d1" stroke="black" cx="205" cy="-186.667" rx="189.005" ry="18.3848"/>
<text text-anchor="middle" x="205" y="-183.067" font-family="Times Roman,serif" font-size="14.00">coyoneda_lemma_morphism_inverse</text>
</a>
</g>
<!-- Yoneda_coyoneda_lemma_subproof0&#45;&gt;Yoneda_coyoneda_lemma_morphism_inverse -->
<g id="edge28" class="edge"><title>Yoneda_coyoneda_lemma_subproof0&#45;&gt;Yoneda_coyoneda_lemma_morphism_inverse</title>
<path fill="none" stroke="black" d="M223.754,-294.075C220.131,-273.323 214.224,-239.493 210.007,-215.345"/>
<polygon fill="black" stroke="black" points="213.427,-214.584 208.259,-205.335 206.532,-215.788 213.427,-214.584"/>
</g>
<!-- Yoneda_coyoneda_lemma_morphism -->
<g id="node14" class="node"><title>Yoneda_coyoneda_lemma_morphism</title>
<a xlink:href="Yoneda.html#coyoneda_lemma_morphism" xlink:title="coyoneda_lemma_morphism">
<ellipse fill="#f070d1" stroke="black" cx="560" cy="-186.667" rx="147.992" ry="18.3848"/>
<text text-anchor="middle" x="560" y="-183.067" font-family="Times Roman,serif" font-size="14.00">coyoneda_lemma_morphism</text>
</a>
</g>
<!-- Yoneda_coyoneda_lemma_subproof0&#45;&gt;Yoneda_coyoneda_lemma_morphism -->
<g id="edge30" class="edge"><title>Yoneda_coyoneda_lemma_subproof0&#45;&gt;Yoneda_coyoneda_lemma_morphism</title>
<path fill="none" stroke="black" d="M273.653,-295.014C334.009,-272.177 439.062,-232.427 503.761,-207.946"/>
<polygon fill="black" stroke="black" points="505.281,-211.114 513.395,-204.301 502.803,-204.567 505.281,-211.114"/>
</g>
<!-- Yoneda_coyoneda_lemma_subproof&#45;&gt;Yoneda_coyoneda_lemma_morphism_inverse -->
<g id="edge32" class="edge"><title>Yoneda_coyoneda_lemma_subproof&#45;&gt;Yoneda_coyoneda_lemma_morphism_inverse</title>
<path fill="none" stroke="black" d="M490.837,-295.147C431.013,-272.443 326.726,-232.864 262.021,-208.307"/>
<polygon fill="black" stroke="black" points="262.971,-204.924 252.38,-204.648 260.488,-211.469 262.971,-204.924"/>
</g>
<!-- Yoneda_coyoneda_lemma_subproof&#45;&gt;Yoneda_coyoneda_lemma_morphism -->
<g id="edge34" class="edge"><title>Yoneda_coyoneda_lemma_subproof&#45;&gt;Yoneda_coyoneda_lemma_morphism</title>
<path fill="none" stroke="black" d="M540.394,-294.075C544.182,-273.323 550.357,-239.493 554.765,-215.345"/>
<polygon fill="black" stroke="black" points="558.24,-215.801 556.592,-205.335 551.353,-214.544 558.24,-215.801"/>
</g>
<!-- Yoneda_coyoneda_lemma_morphism_inverse_subproof -->
<g id="node13" class="node"><title>Yoneda_coyoneda_lemma_morphism_inverse_subproof</title>
<a xlink:href="Yoneda.html#coyoneda_lemma_morphism_inverse_subproof" xlink:title="coyoneda_lemma_morphism_inverse_subproof">
<ellipse fill="#facdef" stroke="black" cx="253" cy="-59.6667" rx="236.881" ry="18.3848"/>
<text text-anchor="middle" x="253" y="-56.0667" font-family="Times Roman,serif" font-size="14.00">coyoneda_lemma_morphism_inverse_subproof</text>
</a>
</g>
<!-- Yoneda_coyoneda_lemma_morphism_inverse&#45;&gt;Yoneda_coyoneda_lemma_morphism_inverse_subproof -->
<g id="edge36" class="edge"><title>Yoneda_coyoneda_lemma_morphism_inverse&#45;&gt;Yoneda_coyoneda_lemma_morphism_inverse_subproof</title>
<path fill="none" stroke="black" d="M212.083,-167.927C220.059,-146.824 233.107,-112.299 242.322,-87.9202"/>
<polygon fill="black" stroke="black" points="245.627,-89.0744 245.888,-78.4828 239.079,-86.5996 245.627,-89.0744"/>
</g>
<!-- Yoneda_coyoneda -->
<g id="node16" class="node"><title>Yoneda_coyoneda</title>
<a xlink:href="Yoneda.html#coyoneda" xlink:title="coyoneda">
<ellipse fill="#f070d1" stroke="black" cx="566" cy="-59.6667" rx="57.9828" ry="18.3848"/>
<text text-anchor="middle" x="566" y="-56.0667" font-family="Times Roman,serif" font-size="14.00">coyoneda</text>
</a>
</g>
<!-- Yoneda_coyoneda_lemma_morphism_inverse&#45;&gt;Yoneda_coyoneda -->
<g id="edge38" class="edge"><title>Yoneda_coyoneda_lemma_morphism_inverse&#45;&gt;Yoneda_coyoneda</title>
<path fill="none" stroke="black" d="M255.957,-168.74C325.424,-144.302 448.995,-100.829 517.279,-76.8069"/>
<polygon fill="black" stroke="black" points="518.667,-80.0287 526.939,-73.4083 516.344,-73.4254 518.667,-80.0287"/>
</g>
<!-- Yoneda_coyoneda_lemma_morphism&#45;&gt;Yoneda_coyoneda -->
<g id="edge40" class="edge"><title>Yoneda_coyoneda_lemma_morphism&#45;&gt;Yoneda_coyoneda</title>
<path fill="none" stroke="black" d="M560.885,-167.927C561.873,-147.011 563.484,-112.912 564.634,-88.5727"/>
<polygon fill="black" stroke="black" points="568.135,-88.6369 565.111,-78.4828 561.143,-88.3065 568.135,-88.6369"/>
</g>
</g>
</svg>
