<?xml version="1.0" encoding="UTF-8" standalone="no"?>
<!DOCTYPE svg PUBLIC "-//W3C//DTD SVG 1.1//EN"
 "http://www.w3.org/Graphics/SVG/1.1/DTD/svg11.dtd">
<!-- Generated by graphviz version 2.39.20161220.0128 (20161220.0128)
 -->
<!-- Title: HoTT_HSet Pages: 1 -->
<svg width="1258pt" height="633pt"
 viewBox="0.00 0.00 1258.00 633.00" xmlns="http://www.w3.org/2000/svg" xmlns:xlink="http://www.w3.org/1999/xlink">
<g id="graph0" class="graph" transform="scale(1 1) rotate(0) translate(4 629)">
<title>HoTT_HSet</title>
<polygon fill="#ffffff" stroke="transparent" points="-4,4 -4,-629 1254,-629 1254,4 -4,4"/>
<g id="clust1" class="cluster">
<title>cluster_HSet</title>
<polygon fill="#ffffc3" stroke="#000000" points="8,-14.0845 8,-610.9155 1242,-610.9155 1242,-14.0845 8,-14.0845"/>
<text text-anchor="middle" x="30" y="-595.7155" font-family="Times,serif" font-size="14.00" fill="#000000">HSet</text>
</g>
<!-- HSet_ismono_isequiv -->
<g id="node1" class="node">
<title>HSet_ismono_isequiv</title>
<g id="a_node1"><a xlink:href="HSet.html#ismono_isequiv" xlink:title="ismono_isequiv">
<ellipse fill="#facdef" stroke="#000000" cx="1159" cy="-510.0845" rx="66.8941" ry="18"/>
<ellipse fill="none" stroke="#000000" cx="1159" cy="-510.0845" rx="70.8911" ry="22"/>
<ellipse fill="none" stroke="#000000" cx="1159" cy="-510.0845" rx="74.8882" ry="26"/>
<text text-anchor="middle" x="1159" y="-506.3845" font-family="Times,serif" font-size="14.00" fill="#000000">ismono_isequiv</text>
</a>
</g>
</g>
<!-- HSet_ismono -->
<g id="node7" class="node">
<title>HSet_ismono</title>
<g id="a_node7"><a xlink:href="HSet.html#ismono" xlink:title="ismono">
<ellipse fill="#f070d1" stroke="#000000" cx="1002" cy="-356.0845" rx="37.0935" ry="18"/>
<text text-anchor="middle" x="1002" y="-352.3845" font-family="Times,serif" font-size="14.00" fill="#000000">ismono</text>
</a>
</g>
</g>
<!-- HSet_ismono_isequiv&#45;&gt;HSet_ismono -->
<g id="edge1" class="edge">
<title>HSet_ismono_isequiv&#45;&gt;HSet_ismono</title>
<path fill="none" stroke="#000000" d="M1133.7752,-485.3417C1104.0162,-456.1513 1054.9162,-407.9896 1025.794,-379.4239"/>
<polygon fill="#000000" stroke="#000000" points="1028.0833,-376.7667 1018.4935,-372.2628 1023.1815,-381.764 1028.0833,-376.7667"/>
</g>
<!-- HSet_ismono_isinj -->
<g id="node2" class="node">
<title>HSet_ismono_isinj</title>
<g id="a_node2"><a xlink:href="HSet.html#ismono_isinj" xlink:title="ismono_isinj">
<ellipse fill="#f070d1" stroke="#000000" cx="1002" cy="-510.0845" rx="56.5844" ry="18"/>
<ellipse fill="none" stroke="#000000" cx="1002" cy="-510.0845" rx="60.5872" ry="22"/>
<ellipse fill="none" stroke="#000000" cx="1002" cy="-510.0845" rx="64.59" ry="26"/>
<text text-anchor="middle" x="1002" y="-506.3845" font-family="Times,serif" font-size="14.00" fill="#000000">ismono_isinj</text>
</a>
</g>
</g>
<!-- HSet_ismono_isinj&#45;&gt;HSet_ismono -->
<g id="edge2" class="edge">
<title>HSet_ismono_isinj&#45;&gt;HSet_ismono</title>
<path fill="none" stroke="#000000" d="M1002,-483.9605C1002,-456.2626 1002,-412.6676 1002,-384.2259"/>
<polygon fill="#000000" stroke="#000000" points="1005.5001,-384.132 1002,-374.1321 998.5001,-384.1321 1005.5001,-384.132"/>
</g>
<!-- HSet_isinj_ismono -->
<g id="node3" class="node">
<title>HSet_isinj_ismono</title>
<g id="a_node3"><a xlink:href="HSet.html#isinj_ismono" xlink:title="isinj_ismono">
<ellipse fill="#facdef" stroke="#000000" cx="855" cy="-510.0845" rx="56.5844" ry="18"/>
<ellipse fill="none" stroke="#000000" cx="855" cy="-510.0845" rx="60.5872" ry="22"/>
<ellipse fill="none" stroke="#000000" cx="855" cy="-510.0845" rx="64.59" ry="26"/>
<text text-anchor="middle" x="855" y="-506.3845" font-family="Times,serif" font-size="14.00" fill="#000000">isinj_ismono</text>
</a>
</g>
</g>
<!-- HSet_isinj -->
<g id="node6" class="node">
<title>HSet_isinj</title>
<g id="a_node6"><a xlink:href="HSet.html#isinj" xlink:title="isinj">
<ellipse fill="#f070d1" stroke="#000000" cx="670" cy="-356.0845" rx="27" ry="18"/>
<text text-anchor="middle" x="670" y="-352.3845" font-family="Times,serif" font-size="14.00" fill="#000000">isinj</text>
</a>
</g>
</g>
<!-- HSet_isinj_ismono&#45;&gt;HSet_isinj -->
<g id="edge3" class="edge">
<title>HSet_isinj_ismono&#45;&gt;HSet_isinj</title>
<path fill="none" stroke="#000000" d="M826.4992,-486.3595C790.6194,-456.492 729.5413,-405.6486 695.2616,-377.1131"/>
<polygon fill="#000000" stroke="#000000" points="697.0803,-374.073 687.1554,-370.3652 692.6018,-379.453 697.0803,-374.073"/>
</g>
<!-- HSet_isinj_ismono&#45;&gt;HSet_ismono -->
<g id="edge4" class="edge">
<title>HSet_isinj_ismono&#45;&gt;HSet_ismono</title>
<path fill="none" stroke="#000000" d="M878.2926,-485.6827C905.8205,-456.844 951.347,-409.1496 978.824,-380.3642"/>
<polygon fill="#000000" stroke="#000000" points="981.6923,-382.4283 986.0653,-372.778 976.6288,-377.5949 981.6923,-382.4283"/>
</g>
<!-- HSet_isembedding_isinj_hset -->
<g id="node4" class="node">
<title>HSet_isembedding_isinj_hset</title>
<g id="a_node4"><a xlink:href="HSet.html#isembedding_isinj_hset" xlink:title="isembedding_isinj_hset">
<ellipse fill="#f070d1" stroke="#000000" cx="670" cy="-510.0845" rx="94.4649" ry="18"/>
<ellipse fill="none" stroke="#000000" cx="670" cy="-510.0845" rx="98.4744" ry="22"/>
<ellipse fill="none" stroke="#000000" cx="670" cy="-510.0845" rx="102.4838" ry="26"/>
<text text-anchor="middle" x="670" y="-506.3845" font-family="Times,serif" font-size="14.00" fill="#000000">isembedding_isinj_hset</text>
</a>
</g>
</g>
<!-- HSet_isembedding_isinj_hset&#45;&gt;HSet_isinj -->
<g id="edge5" class="edge">
<title>HSet_isembedding_isinj_hset&#45;&gt;HSet_isinj</title>
<path fill="none" stroke="#000000" d="M670,-483.9605C670,-456.2626 670,-412.6676 670,-384.2259"/>
<polygon fill="#000000" stroke="#000000" points="673.5001,-384.132 670,-374.1321 666.5001,-384.1321 673.5001,-384.132"/>
</g>
<!-- HSet_isinj_embedding -->
<g id="node5" class="node">
<title>HSet_isinj_embedding</title>
<g id="a_node5"><a xlink:href="HSet.html#isinj_embedding" xlink:title="isinj_embedding">
<ellipse fill="#f070d1" stroke="#000000" cx="472" cy="-510.0845" rx="69.5832" ry="18"/>
<ellipse fill="none" stroke="#000000" cx="472" cy="-510.0845" rx="73.5854" ry="22"/>
<ellipse fill="none" stroke="#000000" cx="472" cy="-510.0845" rx="77.5877" ry="26"/>
<text text-anchor="middle" x="472" y="-506.3845" font-family="Times,serif" font-size="14.00" fill="#000000">isinj_embedding</text>
</a>
</g>
</g>
<!-- HSet_isinj_embedding&#45;&gt;HSet_isinj -->
<g id="edge6" class="edge">
<title>HSet_isinj_embedding&#45;&gt;HSet_isinj</title>
<path fill="none" stroke="#000000" d="M502.9375,-486.022C541.8047,-455.7919 607.7994,-404.4628 644.1205,-376.213"/>
<polygon fill="#000000" stroke="#000000" points="646.5098,-378.7887 652.2546,-369.8865 642.2122,-373.2632 646.5098,-378.7887"/>
</g>
<!-- HSet_isequiv_hrel_subpaths -->
<g id="node8" class="node">
<title>HSet_isequiv_hrel_subpaths</title>
<g id="a_node8"><a xlink:href="HSet.html#isequiv_hrel_subpaths" xlink:title="isequiv_hrel_subpaths">
<ellipse fill="#f070d1" stroke="#000000" cx="279" cy="-510.0845" rx="89.0807" ry="18"/>
<ellipse fill="none" stroke="#000000" cx="279" cy="-510.0845" rx="93.0825" ry="22"/>
<ellipse fill="none" stroke="#000000" cx="279" cy="-510.0845" rx="97.0842" ry="26"/>
<text text-anchor="middle" x="279" y="-506.3845" font-family="Times,serif" font-size="14.00" fill="#000000">isequiv_hrel_subpaths</text>
</a>
</g>
</g>
<!-- HSet_isset_hrel_subpaths -->
<g id="node9" class="node">
<title>HSet_isset_hrel_subpaths</title>
<g id="a_node9"><a xlink:href="HSet.html#isset_hrel_subpaths" xlink:title="isset_hrel_subpaths">
<ellipse fill="#f070d1" stroke="#000000" cx="419" cy="-356.0845" rx="79.0865" ry="18"/>
<text text-anchor="middle" x="419" y="-352.3845" font-family="Times,serif" font-size="14.00" fill="#000000">isset_hrel_subpaths</text>
</a>
</g>
</g>
<!-- HSet_isequiv_hrel_subpaths&#45;&gt;HSet_isset_hrel_subpaths -->
<g id="edge7" class="edge">
<title>HSet_isequiv_hrel_subpaths&#45;&gt;HSet_isset_hrel_subpaths</title>
<path fill="none" stroke="#000000" d="M302.1182,-484.6545C328.1004,-456.0741 370.0308,-409.9507 395.9749,-381.4122"/>
<polygon fill="#000000" stroke="#000000" points="398.705,-383.6121 402.842,-373.8583 393.5254,-378.9034 398.705,-383.6121"/>
</g>
<!-- HSet_hset_axiomK -->
<g id="node14" class="node">
<title>HSet_hset_axiomK</title>
<g id="a_node14"><a xlink:href="HSet.html#hset_axiomK" xlink:title="hset_axiomK">
<ellipse fill="#f070d1" stroke="#000000" cx="321" cy="-201.0845" rx="57.6901" ry="18"/>
<text text-anchor="middle" x="321" y="-197.3845" font-family="Times,serif" font-size="14.00" fill="#000000">hset_axiomK</text>
</a>
</g>
</g>
<!-- HSet_isset_hrel_subpaths&#45;&gt;HSet_hset_axiomK -->
<g id="edge8" class="edge">
<title>HSet_isset_hrel_subpaths&#45;&gt;HSet_hset_axiomK</title>
<path fill="none" stroke="#000000" d="M407.5664,-338.0007C390.3793,-310.8171 357.7821,-259.2603 337.8622,-227.7544"/>
<polygon fill="#000000" stroke="#000000" points="340.6632,-225.635 332.3608,-219.0531 334.7466,-229.3759 340.6632,-225.635"/>
</g>
<!-- HSet_axiomK_idpath -->
<g id="node10" class="node">
<title>HSet_axiomK_idpath</title>
<g id="a_node10"><a xlink:href="HSet.html#axiomK_idpath" xlink:title="axiomK_idpath">
<ellipse fill="#f070d1" stroke="#000000" cx="90" cy="-510.0845" rx="65.7729" ry="18"/>
<ellipse fill="none" stroke="#000000" cx="90" cy="-510.0845" rx="69.7808" ry="22"/>
<ellipse fill="none" stroke="#000000" cx="90" cy="-510.0845" rx="73.7886" ry="26"/>
<text text-anchor="middle" x="90" y="-506.3845" font-family="Times,serif" font-size="14.00" fill="#000000">axiomK_idpath</text>
</a>
</g>
</g>
<!-- HSet_set_path2 -->
<g id="node11" class="node">
<title>HSet_set_path2</title>
<g id="a_node11"><a xlink:href="HSet.html#set_path2" xlink:title="set_path2">
<ellipse fill="#f070d1" stroke="#000000" cx="60" cy="-356.0845" rx="44.393" ry="18"/>
<text text-anchor="middle" x="60" y="-352.3845" font-family="Times,serif" font-size="14.00" fill="#000000">set_path2</text>
</a>
</g>
</g>
<!-- HSet_axiomK_idpath&#45;&gt;HSet_set_path2 -->
<g id="edge9" class="edge">
<title>HSet_axiomK_idpath&#45;&gt;HSet_set_path2</title>
<path fill="none" stroke="#000000" d="M84.9109,-483.9605C79.5152,-456.2626 71.0227,-412.6676 65.4821,-384.2259"/>
<polygon fill="#000000" stroke="#000000" points="68.8634,-383.2783 63.5158,-374.1321 61.9925,-384.6168 68.8634,-383.2783"/>
</g>
<!-- HSet_axiomK_idpath&#45;&gt;HSet_hset_axiomK -->
<g id="edge10" class="edge">
<title>HSet_axiomK_idpath&#45;&gt;HSet_hset_axiomK</title>
<path fill="none" stroke="#000000" d="M136.2785,-489.6809C194.8835,-462.8227 290.7048,-415.1492 311,-382.0845 339.9196,-334.9691 333.8599,-267.2916 327.2082,-229.4537"/>
<polygon fill="#000000" stroke="#000000" points="330.5593,-228.3402 325.2542,-219.1693 323.6824,-229.6469 330.5593,-228.3402"/>
</g>
<!-- HSet_axiomK_hset -->
<g id="node15" class="node">
<title>HSet_axiomK_hset</title>
<g id="a_node15"><a xlink:href="HSet.html#axiomK_hset" xlink:title="axiomK_hset">
<ellipse fill="#f070d1" stroke="#000000" cx="187" cy="-201.0845" rx="57.6901" ry="18"/>
<text text-anchor="middle" x="187" y="-197.3845" font-family="Times,serif" font-size="14.00" fill="#000000">axiomK_hset</text>
</a>
</g>
</g>
<!-- HSet_set_path2&#45;&gt;HSet_axiomK_hset -->
<g id="edge11" class="edge">
<title>HSet_set_path2&#45;&gt;HSet_axiomK_hset</title>
<path fill="none" stroke="#000000" d="M74.0765,-338.9046C96.3674,-311.6991 139.9229,-258.5408 165.9425,-226.7846"/>
<polygon fill="#000000" stroke="#000000" points="168.8396,-228.7712 172.4702,-218.8178 163.425,-224.3347 168.8396,-228.7712"/>
</g>
<!-- HSet_axiomK_isprop -->
<g id="node12" class="node">
<title>HSet_axiomK_isprop</title>
<g id="a_node12"><a xlink:href="HSet.html#axiomK_isprop" xlink:title="axiomK_isprop">
<ellipse fill="#f070d1" stroke="#000000" cx="470" cy="-201.0845" rx="65.7729" ry="18"/>
<ellipse fill="none" stroke="#000000" cx="470" cy="-201.0845" rx="69.7808" ry="22"/>
<ellipse fill="none" stroke="#000000" cx="470" cy="-201.0845" rx="73.7886" ry="26"/>
<text text-anchor="middle" x="470" y="-197.3845" font-family="Times,serif" font-size="14.00" fill="#000000">axiomK_isprop</text>
</a>
</g>
</g>
<!-- HSet_axiomK -->
<g id="node16" class="node">
<title>HSet_axiomK</title>
<g id="a_node16"><a xlink:href="HSet.html#axiomK" xlink:title="axiomK">
<ellipse fill="#f070d1" stroke="#000000" cx="321" cy="-60.0845" rx="39.7935" ry="18"/>
<text text-anchor="middle" x="321" y="-56.3845" font-family="Times,serif" font-size="14.00" fill="#000000">axiomK</text>
</a>
</g>
</g>
<!-- HSet_axiomK_isprop&#45;&gt;HSet_axiomK -->
<g id="edge12" class="edge">
<title>HSet_axiomK_isprop&#45;&gt;HSet_axiomK</title>
<path fill="none" stroke="#000000" d="M444.0462,-176.5242C416.4233,-150.3844 373.0295,-109.3205 345.8399,-83.5907"/>
<polygon fill="#000000" stroke="#000000" points="347.9616,-80.7797 338.2925,-76.4485 343.1502,-85.8641 347.9616,-80.7797"/>
</g>
<!-- HSet_equiv_hset_axiomK -->
<g id="node13" class="node">
<title>HSet_equiv_hset_axiomK</title>
<g id="a_node13"><a xlink:href="HSet.html#equiv_hset_axiomK" xlink:title="equiv_hset_axiomK">
<ellipse fill="#f070d1" stroke="#000000" cx="212" cy="-356.0845" rx="81.7951" ry="18"/>
<ellipse fill="none" stroke="#000000" cx="212" cy="-356.0845" rx="85.7904" ry="22"/>
<ellipse fill="none" stroke="#000000" cx="212" cy="-356.0845" rx="89.7856" ry="26"/>
<text text-anchor="middle" x="212" y="-352.3845" font-family="Times,serif" font-size="14.00" fill="#000000">equiv_hset_axiomK</text>
</a>
</g>
</g>
<!-- HSet_equiv_hset_axiomK&#45;&gt;HSet_hset_axiomK -->
<g id="edge13" class="edge">
<title>HSet_equiv_hset_axiomK&#45;&gt;HSet_hset_axiomK</title>
<path fill="none" stroke="#000000" d="M229.9991,-330.4894C250.0553,-301.9692 282.3168,-256.0927 302.5526,-227.317"/>
<polygon fill="#000000" stroke="#000000" points="305.5304,-229.167 308.4198,-218.9738 299.8045,-225.1404 305.5304,-229.167"/>
</g>
<!-- HSet_equiv_hset_axiomK&#45;&gt;HSet_axiomK_hset -->
<g id="edge14" class="edge">
<title>HSet_equiv_hset_axiomK&#45;&gt;HSet_axiomK_hset</title>
<path fill="none" stroke="#000000" d="M207.7591,-329.7909C203.2627,-301.9131 196.1856,-258.035 191.5684,-229.4087"/>
<polygon fill="#000000" stroke="#000000" points="194.9775,-228.5643 189.9298,-219.2492 188.0669,-229.679 194.9775,-228.5643"/>
</g>
<!-- HSet_hset_axiomK&#45;&gt;HSet_axiomK -->
<g id="edge15" class="edge">
<title>HSet_hset_axiomK&#45;&gt;HSet_axiomK</title>
<path fill="none" stroke="#000000" d="M321,-182.9399C321,-158.933 321,-116.3706 321,-88.188"/>
<polygon fill="#000000" stroke="#000000" points="324.5001,-88.1595 321,-78.1595 317.5001,-88.1595 324.5001,-88.1595"/>
</g>
<!-- HSet_axiomK_hset&#45;&gt;HSet_axiomK -->
<g id="edge16" class="edge">
<title>HSet_axiomK_hset&#45;&gt;HSet_axiomK</title>
<path fill="none" stroke="#000000" d="M203.431,-183.7951C227.1946,-158.7902 271.2493,-112.4342 298.1623,-84.1153"/>
<polygon fill="#000000" stroke="#000000" points="300.9156,-86.2988 305.2674,-76.6389 295.8415,-81.4765 300.9156,-86.2988"/>
</g>
</g>
</svg>
