<?xml version="1.0" encoding="UTF-8" standalone="no"?>
<!DOCTYPE svg PUBLIC "-//W3C//DTD SVG 1.1//EN"
 "http://www.w3.org/Graphics/SVG/1.1/DTD/svg11.dtd">
<!-- Generated by graphviz version 2.26.3 (20100126.1600)
 -->
<!-- Title: HoTT_types_Sum Pages: 1 -->
<svg width="1948pt" height="978pt"
 viewBox="0.00 0.00 1948.00 978.00" xmlns="http://www.w3.org/2000/svg" xmlns:xlink="http://www.w3.org/1999/xlink">
<g id="graph1" class="graph" transform="scale(1 1) rotate(0) translate(4 974)">
<title>HoTT_types_Sum</title>
<polygon fill="white" stroke="white" points="-4,5 -4,-974 1945,-974 1945,5 -4,5"/>
<g id="graph2" class="cluster"><title>cluster_Sum</title>
<polygon fill="#ffffc3" stroke="black" points="8,-15.5823 8,-954.418 1932,-954.418 1932,-15.5823 8,-15.5823"/>
<text text-anchor="middle" x="31.5" y="-937.818" font-family="Times Roman,serif" font-size="14.00">Sum</text>
</g>
<!-- Sum_trunc_sum_ -->
<g id="node1" class="node"><title>Sum_trunc_sum_</title>
<a xlink:href="Sum.html#trunc_sum&#39;" xlink:title="trunc_sum&#39;">
<ellipse fill="#f070d1" stroke="black" cx="1851" cy="-835.582" rx="65.0538" ry="18.3848"/>
<ellipse fill="none" stroke="black" cx="1851" cy="-835.582" rx="69.0538" ry="22.3848"/>
<ellipse fill="none" stroke="black" cx="1851" cy="-835.582" rx="73.0538" ry="26.3848"/>
<text text-anchor="middle" x="1851" y="-831.982" font-family="Times Roman,serif" font-size="14.00">trunc_sum&#39;</text>
</a>
</g>
<!-- Sum_isequiv_sum_of_sigT -->
<g id="node2" class="node"><title>Sum_isequiv_sum_of_sigT</title>
<a xlink:href="Sum.html#isequiv_sum_of_sigT" xlink:title="isequiv_sum_of_sigT">
<ellipse fill="#f070d1" stroke="black" cx="1814" cy="-675.582" rx="109.81" ry="18.3848"/>
<text text-anchor="middle" x="1814" y="-671.982" font-family="Times Roman,serif" font-size="14.00">isequiv_sum_of_sigT</text>
</a>
</g>
<!-- Sum_trunc_sum_&#45;&gt;Sum_isequiv_sum_of_sigT -->
<g id="edge2" class="edge"><title>Sum_trunc_sum_&#45;&gt;Sum_isequiv_sum_of_sigT</title>
<path fill="none" stroke="black" d="M1844.89,-809.162C1838.21,-780.261 1827.53,-734.095 1820.64,-704.312"/>
<polygon fill="black" stroke="black" points="1824.04,-703.47 1818.38,-694.515 1817.22,-705.047 1824.04,-703.47"/>
</g>
<!-- Sum_isequiv_sigT_of_sum -->
<g id="node3" class="node"><title>Sum_isequiv_sigT_of_sum</title>
<a xlink:href="Sum.html#isequiv_sigT_of_sum" xlink:title="isequiv_sigT_of_sum">
<ellipse fill="#f070d1" stroke="black" cx="1814" cy="-531.582" rx="109.81" ry="18.3848"/>
<text text-anchor="middle" x="1814" y="-527.982" font-family="Times Roman,serif" font-size="14.00">isequiv_sigT_of_sum</text>
</a>
</g>
<!-- Sum_isequiv_sum_of_sigT&#45;&gt;Sum_isequiv_sigT_of_sum -->
<g id="edge4" class="edge"><title>Sum_isequiv_sum_of_sigT&#45;&gt;Sum_isequiv_sigT_of_sum</title>
<path fill="none" stroke="black" d="M1814,-657.052C1814,-632.669 1814,-589.543 1814,-560.76"/>
<polygon fill="black" stroke="black" points="1817.5,-560.499 1814,-550.499 1810.5,-560.499 1817.5,-560.499"/>
</g>
<!-- Sum_sum_of_sigT -->
<g id="node4" class="node"><title>Sum_sum_of_sigT</title>
<a xlink:href="Sum.html#sum_of_sigT" xlink:title="sum_of_sigT">
<ellipse fill="#f070d1" stroke="black" cx="1693" cy="-387.582" rx="70.9184" ry="18.3848"/>
<text text-anchor="middle" x="1693" y="-383.982" font-family="Times Roman,serif" font-size="14.00">sum_of_sigT</text>
</a>
</g>
<!-- Sum_isequiv_sigT_of_sum&#45;&gt;Sum_sum_of_sigT -->
<g id="edge6" class="edge"><title>Sum_isequiv_sigT_of_sum&#45;&gt;Sum_sum_of_sigT</title>
<path fill="none" stroke="black" d="M1798.43,-513.052C1777.28,-487.886 1739.36,-442.755 1715.23,-414.033"/>
<polygon fill="black" stroke="black" points="1717.62,-411.446 1708.51,-406.042 1712.26,-415.95 1717.62,-411.446"/>
</g>
<!-- Sum_sigT_of_sum -->
<g id="node5" class="node"><title>Sum_sigT_of_sum</title>
<a xlink:href="Sum.html#sigT_of_sum" xlink:title="sigT_of_sum">
<ellipse fill="#f070d1" stroke="black" cx="1853" cy="-387.582" rx="70.9184" ry="18.3848"/>
<text text-anchor="middle" x="1853" y="-383.982" font-family="Times Roman,serif" font-size="14.00">sigT_of_sum</text>
</a>
</g>
<!-- Sum_isequiv_sigT_of_sum&#45;&gt;Sum_sigT_of_sum -->
<g id="edge8" class="edge"><title>Sum_isequiv_sigT_of_sum&#45;&gt;Sum_sigT_of_sum</title>
<path fill="none" stroke="black" d="M1819.02,-513.052C1825.69,-488.426 1837.54,-444.683 1845.33,-415.904"/>
<polygon fill="black" stroke="black" points="1848.76,-416.609 1848,-406.042 1842.01,-414.779 1848.76,-416.609"/>
</g>
<!-- Sum_hset_sum -->
<g id="node6" class="node"><title>Sum_hset_sum</title>
<a xlink:href="Sum.html#hset_sum" xlink:title="hset_sum">
<ellipse fill="#f070d1" stroke="black" cx="1694" cy="-835.582" rx="58.2486" ry="18.3848"/>
<ellipse fill="none" stroke="black" cx="1694" cy="-835.582" rx="62.2185" ry="22.3848"/>
<ellipse fill="none" stroke="black" cx="1694" cy="-835.582" rx="66.1884" ry="26.3848"/>
<text text-anchor="middle" x="1694" y="-831.982" font-family="Times Roman,serif" font-size="14.00">hset_sum</text>
</a>
</g>
<!-- Sum_trunc_sum -->
<g id="node7" class="node"><title>Sum_trunc_sum</title>
<a xlink:href="Sum.html#trunc_sum" xlink:title="trunc_sum">
<ellipse fill="#f070d1" stroke="black" cx="1609" cy="-675.582" rx="62.9325" ry="18.3848"/>
<text text-anchor="middle" x="1609" y="-671.982" font-family="Times Roman,serif" font-size="14.00">trunc_sum</text>
</a>
</g>
<!-- Sum_hset_sum&#45;&gt;Sum_trunc_sum -->
<g id="edge10" class="edge"><title>Sum_hset_sum&#45;&gt;Sum_trunc_sum</title>
<path fill="none" stroke="black" d="M1680.15,-809.519C1664.62,-780.275 1639.52,-733.031 1623.66,-703.175"/>
<polygon fill="black" stroke="black" points="1626.64,-701.327 1618.86,-694.138 1620.46,-704.611 1626.64,-701.327"/>
</g>
<!-- Sum_equiv_path_sum -->
<g id="node20" class="node"><title>Sum_equiv_path_sum</title>
<a xlink:href="Sum.html#equiv_path_sum" xlink:title="equiv_path_sum">
<ellipse fill="#f070d1" stroke="black" cx="1567" cy="-531.582" rx="91.2168" ry="18.3848"/>
<text text-anchor="middle" x="1567" y="-527.982" font-family="Times Roman,serif" font-size="14.00">equiv_path_sum</text>
</a>
</g>
<!-- Sum_trunc_sum&#45;&gt;Sum_equiv_path_sum -->
<g id="edge12" class="edge"><title>Sum_trunc_sum&#45;&gt;Sum_equiv_path_sum</title>
<path fill="none" stroke="black" d="M1603.6,-657.052C1596.45,-632.561 1583.79,-589.163 1575.4,-560.38"/>
<polygon fill="black" stroke="black" points="1578.68,-559.119 1572.52,-550.499 1571.96,-561.079 1578.68,-559.119"/>
</g>
<!-- Sum_equiv_sum_distributive -->
<g id="node8" class="node"><title>Sum_equiv_sum_distributive</title>
<a xlink:href="Sum.html#equiv_sum_distributive" xlink:title="equiv_sum_distributive">
<ellipse fill="#f070d1" stroke="black" cx="1478" cy="-835.582" rx="123.981" ry="18.3848"/>
<ellipse fill="none" stroke="black" cx="1478" cy="-835.582" rx="127.966" ry="22.3848"/>
<ellipse fill="none" stroke="black" cx="1478" cy="-835.582" rx="131.951" ry="26.3848"/>
<text text-anchor="middle" x="1478" y="-831.982" font-family="Times Roman,serif" font-size="14.00">equiv_sum_distributive</text>
</a>
</g>
<!-- Sum_equiv_sum_rect -->
<g id="node9" class="node"><title>Sum_equiv_sum_rect</title>
<a xlink:href="Sum.html#equiv_sum_rect" xlink:title="equiv_sum_rect">
<ellipse fill="#f070d1" stroke="black" cx="1409" cy="-675.582" rx="87.889" ry="18.3848"/>
<text text-anchor="middle" x="1409" y="-671.982" font-family="Times Roman,serif" font-size="14.00">equiv_sum_rect</text>
</a>
</g>
<!-- Sum_equiv_sum_distributive&#45;&gt;Sum_equiv_sum_rect -->
<g id="edge14" class="edge"><title>Sum_equiv_sum_distributive&#45;&gt;Sum_equiv_sum_rect</title>
<path fill="none" stroke="black" d="M1466.61,-809.162C1454.02,-779.975 1433.84,-733.18 1421.01,-703.433"/>
<polygon fill="black" stroke="black" points="1424.14,-701.845 1416.96,-694.049 1417.71,-704.617 1424.14,-701.845"/>
</g>
<!-- Sum_isequiv_sum_rect -->
<g id="node10" class="node"><title>Sum_isequiv_sum_rect</title>
<a xlink:href="Sum.html#isequiv_sum_rect" xlink:title="isequiv_sum_rect">
<ellipse fill="#f070d1" stroke="black" cx="1308" cy="-531.582" rx="94.9596" ry="18.3848"/>
<text text-anchor="middle" x="1308" y="-527.982" font-family="Times Roman,serif" font-size="14.00">isequiv_sum_rect</text>
</a>
</g>
<!-- Sum_equiv_sum_rect&#45;&gt;Sum_isequiv_sum_rect -->
<g id="edge16" class="edge"><title>Sum_equiv_sum_rect&#45;&gt;Sum_isequiv_sum_rect</title>
<path fill="none" stroke="black" d="M1396,-657.052C1378.43,-631.994 1346.97,-587.142 1326.81,-558.404"/>
<polygon fill="black" stroke="black" points="1329.56,-556.219 1320.95,-550.042 1323.82,-560.239 1329.56,-556.219"/>
</g>
<!-- Sum_sum_rect_uncurried -->
<g id="node11" class="node"><title>Sum_sum_rect_uncurried</title>
<a xlink:href="Sum.html#sum_rect_uncurried" xlink:title="sum_rect_uncurried">
<ellipse fill="#f070d1" stroke="black" cx="1280" cy="-387.582" rx="108.187" ry="18.3848"/>
<text text-anchor="middle" x="1280" y="-383.982" font-family="Times Roman,serif" font-size="14.00">sum_rect_uncurried</text>
</a>
</g>
<!-- Sum_isequiv_sum_rect&#45;&gt;Sum_sum_rect_uncurried -->
<g id="edge18" class="edge"><title>Sum_isequiv_sum_rect&#45;&gt;Sum_sum_rect_uncurried</title>
<path fill="none" stroke="black" d="M1304.4,-513.052C1299.63,-488.561 1291.2,-445.163 1285.6,-416.38"/>
<polygon fill="black" stroke="black" points="1289.02,-415.647 1283.68,-406.499 1282.15,-416.983 1289.02,-415.647"/>
</g>
<!-- Sum_equiv_sum_symm -->
<g id="node12" class="node"><title>Sum_equiv_sum_symm</title>
<a xlink:href="Sum.html#equiv_sum_symm" xlink:title="equiv_sum_symm">
<ellipse fill="#f070d1" stroke="black" cx="1223" cy="-835.582" rx="97.1183" ry="18.3848"/>
<ellipse fill="none" stroke="black" cx="1223" cy="-835.582" rx="101.099" ry="22.3848"/>
<ellipse fill="none" stroke="black" cx="1223" cy="-835.582" rx="105.08" ry="26.3848"/>
<text text-anchor="middle" x="1223" y="-831.982" font-family="Times Roman,serif" font-size="14.00">equiv_sum_symm</text>
</a>
</g>
<!-- Sum_equiv_functor_sum_r -->
<g id="node13" class="node"><title>Sum_equiv_functor_sum_r</title>
<a xlink:href="Sum.html#equiv_functor_sum_r" xlink:title="equiv_functor_sum_r">
<ellipse fill="#f070d1" stroke="black" cx="978" cy="-835.582" rx="113.844" ry="18.3848"/>
<ellipse fill="none" stroke="black" cx="978" cy="-835.582" rx="117.844" ry="22.3848"/>
<ellipse fill="none" stroke="black" cx="978" cy="-835.582" rx="121.844" ry="26.3848"/>
<text text-anchor="middle" x="978" y="-831.982" font-family="Times Roman,serif" font-size="14.00">equiv_functor_sum_r</text>
</a>
</g>
<!-- Sum_equiv_functor_sum -->
<g id="node16" class="node"><title>Sum_equiv_functor_sum</title>
<a xlink:href="Sum.html#equiv_functor_sum" xlink:title="equiv_functor_sum">
<ellipse fill="#f070d1" stroke="black" cx="719" cy="-675.582" rx="103.945" ry="18.3848"/>
<text text-anchor="middle" x="719" y="-671.982" font-family="Times Roman,serif" font-size="14.00">equiv_functor_sum</text>
</a>
</g>
<!-- Sum_equiv_functor_sum_r&#45;&gt;Sum_equiv_functor_sum -->
<g id="edge20" class="edge"><title>Sum_equiv_functor_sum_r&#45;&gt;Sum_equiv_functor_sum</title>
<path fill="none" stroke="black" d="M937.531,-810.582C887.975,-779.968 804.704,-728.527 756.528,-698.766"/>
<polygon fill="black" stroke="black" points="758.304,-695.749 747.957,-693.471 754.625,-701.704 758.304,-695.749"/>
</g>
<!-- Sum_equiv_functor_sum_l -->
<g id="node14" class="node"><title>Sum_equiv_functor_sum_l</title>
<a xlink:href="Sum.html#equiv_functor_sum_l" xlink:title="equiv_functor_sum_l">
<ellipse fill="#f070d1" stroke="black" cx="719" cy="-835.582" rx="111.255" ry="18.3848"/>
<ellipse fill="none" stroke="black" cx="719" cy="-835.582" rx="115.239" ry="22.3848"/>
<ellipse fill="none" stroke="black" cx="719" cy="-835.582" rx="119.222" ry="26.3848"/>
<text text-anchor="middle" x="719" y="-831.982" font-family="Times Roman,serif" font-size="14.00">equiv_functor_sum_l</text>
</a>
</g>
<!-- Sum_equiv_functor_sum_l&#45;&gt;Sum_equiv_functor_sum -->
<g id="edge22" class="edge"><title>Sum_equiv_functor_sum_l&#45;&gt;Sum_equiv_functor_sum</title>
<path fill="none" stroke="black" d="M719,-808.802C719,-779.962 719,-734.234 719,-704.566"/>
<polygon fill="black" stroke="black" points="722.5,-704.424 719,-694.424 715.5,-704.424 722.5,-704.424"/>
</g>
<!-- Sum_equiv_functor_sum_ -->
<g id="node15" class="node"><title>Sum_equiv_functor_sum_</title>
<a xlink:href="Sum.html#equiv_functor_sum&#39;" xlink:title="equiv_functor_sum&#39;">
<ellipse fill="#f070d1" stroke="black" cx="468" cy="-835.582" rx="106.066" ry="18.3848"/>
<ellipse fill="none" stroke="black" cx="468" cy="-835.582" rx="110.066" ry="22.3848"/>
<ellipse fill="none" stroke="black" cx="468" cy="-835.582" rx="114.066" ry="26.3848"/>
<text text-anchor="middle" x="468" y="-831.982" font-family="Times Roman,serif" font-size="14.00">equiv_functor_sum&#39;</text>
</a>
</g>
<!-- Sum_equiv_functor_sum_&#45;&gt;Sum_equiv_functor_sum -->
<g id="edge24" class="edge"><title>Sum_equiv_functor_sum_&#45;&gt;Sum_equiv_functor_sum</title>
<path fill="none" stroke="black" d="M507.219,-810.582C555.145,-780.032 635.608,-728.74 682.34,-698.951"/>
<polygon fill="black" stroke="black" points="684.387,-701.797 690.938,-693.471 680.624,-695.895 684.387,-701.797"/>
</g>
<!-- Sum_isequiv_functor_sum -->
<g id="node17" class="node"><title>Sum_isequiv_functor_sum</title>
<a xlink:href="Sum.html#isequiv_functor_sum" xlink:title="isequiv_functor_sum">
<ellipse fill="#f070d1" stroke="black" cx="719" cy="-531.582" rx="111.222" ry="18.3848"/>
<text text-anchor="middle" x="719" y="-527.982" font-family="Times Roman,serif" font-size="14.00">isequiv_functor_sum</text>
</a>
</g>
<!-- Sum_equiv_functor_sum&#45;&gt;Sum_isequiv_functor_sum -->
<g id="edge26" class="edge"><title>Sum_equiv_functor_sum&#45;&gt;Sum_isequiv_functor_sum</title>
<path fill="none" stroke="black" d="M719,-657.052C719,-632.669 719,-589.543 719,-560.76"/>
<polygon fill="black" stroke="black" points="722.5,-560.499 719,-550.499 715.5,-560.499 722.5,-560.499"/>
</g>
<!-- Sum_functor_sum -->
<g id="node18" class="node"><title>Sum_functor_sum</title>
<a xlink:href="Sum.html#functor_sum" xlink:title="functor_sum">
<ellipse fill="#f070d1" stroke="black" cx="719" cy="-387.582" rx="72.1249" ry="18.3848"/>
<text text-anchor="middle" x="719" y="-383.982" font-family="Times Roman,serif" font-size="14.00">functor_sum</text>
</a>
</g>
<!-- Sum_isequiv_functor_sum&#45;&gt;Sum_functor_sum -->
<g id="edge28" class="edge"><title>Sum_isequiv_functor_sum&#45;&gt;Sum_functor_sum</title>
<path fill="none" stroke="black" d="M719,-513.052C719,-488.669 719,-445.543 719,-416.76"/>
<polygon fill="black" stroke="black" points="722.5,-416.499 719,-406.499 715.5,-416.499 722.5,-416.499"/>
</g>
<!-- Sum_transport_sum -->
<g id="node19" class="node"><title>Sum_transport_sum</title>
<a xlink:href="Sum.html#transport_sum" xlink:title="transport_sum">
<ellipse fill="#f070d1" stroke="black" cx="246" cy="-835.582" rx="82.2744" ry="18.3848"/>
<ellipse fill="none" stroke="black" cx="246" cy="-835.582" rx="86.2523" ry="22.3848"/>
<ellipse fill="none" stroke="black" cx="246" cy="-835.582" rx="90.2302" ry="26.3848"/>
<text text-anchor="middle" x="246" y="-831.982" font-family="Times Roman,serif" font-size="14.00">transport_sum</text>
</a>
</g>
<!-- Sum_isequiv_path_sum -->
<g id="node21" class="node"><title>Sum_isequiv_path_sum</title>
<a xlink:href="Sum.html#isequiv_path_sum" xlink:title="isequiv_path_sum">
<ellipse fill="#f070d1" stroke="black" cx="1505" cy="-387.582" rx="98.9949" ry="18.3848"/>
<text text-anchor="middle" x="1505" y="-383.982" font-family="Times Roman,serif" font-size="14.00">isequiv_path_sum</text>
</a>
</g>
<!-- Sum_equiv_path_sum&#45;&gt;Sum_isequiv_path_sum -->
<g id="edge30" class="edge"><title>Sum_equiv_path_sum&#45;&gt;Sum_isequiv_path_sum</title>
<path fill="none" stroke="black" d="M1559.02,-513.052C1548.37,-488.318 1529.42,-444.299 1517.03,-415.526"/>
<polygon fill="black" stroke="black" points="1520.12,-413.843 1512.95,-406.042 1513.69,-416.611 1520.12,-413.843"/>
</g>
<!-- Sum_eissect_path_sum -->
<g id="node22" class="node"><title>Sum_eissect_path_sum</title>
<a xlink:href="Sum.html#eissect_path_sum" xlink:title="eissect_path_sum">
<ellipse fill="#f070d1" stroke="black" cx="1399" cy="-227.582" rx="97.0803" ry="18.3848"/>
<text text-anchor="middle" x="1399" y="-223.982" font-family="Times Roman,serif" font-size="14.00">eissect_path_sum</text>
</a>
</g>
<!-- Sum_isequiv_path_sum&#45;&gt;Sum_eissect_path_sum -->
<g id="edge32" class="edge"><title>Sum_isequiv_path_sum&#45;&gt;Sum_eissect_path_sum</title>
<path fill="none" stroke="black" d="M1492.63,-368.915C1473.96,-340.734 1438.48,-287.177 1416.96,-254.695"/>
<polygon fill="black" stroke="black" points="1419.73,-252.534 1411.29,-246.131 1413.89,-256.4 1419.73,-252.534"/>
</g>
<!-- Sum_eisretr_path_sum -->
<g id="node23" class="node"><title>Sum_eisretr_path_sum</title>
<a xlink:href="Sum.html#eisretr_path_sum" xlink:title="eisretr_path_sum">
<ellipse fill="#f070d1" stroke="black" cx="1611" cy="-227.582" rx="96.8736" ry="18.3848"/>
<text text-anchor="middle" x="1611" y="-223.982" font-family="Times Roman,serif" font-size="14.00">eisretr_path_sum</text>
</a>
</g>
<!-- Sum_isequiv_path_sum&#45;&gt;Sum_eisretr_path_sum -->
<g id="edge34" class="edge"><title>Sum_isequiv_path_sum&#45;&gt;Sum_eisretr_path_sum</title>
<path fill="none" stroke="black" d="M1517.37,-368.915C1536.04,-340.734 1571.52,-287.177 1593.04,-254.695"/>
<polygon fill="black" stroke="black" points="1596.11,-256.4 1598.71,-246.131 1590.27,-252.534 1596.11,-256.4"/>
</g>
<!-- Sum_path_sum_inv -->
<g id="node26" class="node"><title>Sum_path_sum_inv</title>
<a xlink:href="Sum.html#path_sum_inv" xlink:title="path_sum_inv">
<ellipse fill="#f070d1" stroke="black" cx="1273" cy="-68.5823" rx="79.9031" ry="18.3848"/>
<text text-anchor="middle" x="1273" y="-64.9823" font-family="Times Roman,serif" font-size="14.00">path_sum_inv</text>
</a>
</g>
<!-- Sum_eissect_path_sum&#45;&gt;Sum_path_sum_inv -->
<g id="edge36" class="edge"><title>Sum_eissect_path_sum&#45;&gt;Sum_path_sum_inv</title>
<path fill="none" stroke="black" d="M1384.3,-209.032C1362.01,-180.907 1319.57,-127.35 1294.02,-95.1128"/>
<polygon fill="black" stroke="black" points="1296.56,-92.6784 1287.61,-87.0147 1291.07,-97.026 1296.56,-92.6784"/>
</g>
<!-- Sum_path_sum -->
<g id="node27" class="node"><title>Sum_path_sum</title>
<a xlink:href="Sum.html#path_sum" xlink:title="path_sum">
<ellipse fill="#f070d1" stroke="black" cx="1505" cy="-68.5823" rx="58.8978" ry="18.3848"/>
<text text-anchor="middle" x="1505" y="-64.9823" font-family="Times Roman,serif" font-size="14.00">path_sum</text>
</a>
</g>
<!-- Sum_eissect_path_sum&#45;&gt;Sum_path_sum -->
<g id="edge38" class="edge"><title>Sum_eissect_path_sum&#45;&gt;Sum_path_sum</title>
<path fill="none" stroke="black" d="M1411.37,-209.032C1430.04,-181.027 1465.52,-127.805 1487.04,-95.5255"/>
<polygon fill="black" stroke="black" points="1490.08,-97.2767 1492.71,-87.0147 1484.25,-93.3937 1490.08,-97.2767"/>
</g>
<!-- Sum_eisretr_path_sum&#45;&gt;Sum_path_sum_inv -->
<g id="edge40" class="edge"><title>Sum_eisretr_path_sum&#45;&gt;Sum_path_sum_inv</title>
<path fill="none" stroke="black" d="M1574.51,-210.415C1512.07,-181.042 1384.95,-121.244 1317.44,-89.4879"/>
<polygon fill="black" stroke="black" points="1318.86,-86.2888 1308.32,-85.1992 1315.88,-92.623 1318.86,-86.2888"/>
</g>
<!-- Sum_eisretr_path_sum&#45;&gt;Sum_path_sum -->
<g id="edge42" class="edge"><title>Sum_eisretr_path_sum&#45;&gt;Sum_path_sum</title>
<path fill="none" stroke="black" d="M1598.63,-209.032C1579.96,-181.027 1544.48,-127.805 1522.96,-95.5255"/>
<polygon fill="black" stroke="black" points="1525.75,-93.3937 1517.29,-87.0147 1519.92,-97.2767 1525.75,-93.3937"/>
</g>
<!-- Sum_path_sum_inr -->
<g id="node24" class="node"><title>Sum_path_sum_inr</title>
<a xlink:href="Sum.html#path_sum_inr" xlink:title="path_sum_inr">
<ellipse fill="#f070d1" stroke="black" cx="1198" cy="-227.582" rx="77.7817" ry="18.3848"/>
<ellipse fill="none" stroke="black" cx="1198" cy="-227.582" rx="81.7817" ry="22.3848"/>
<ellipse fill="none" stroke="black" cx="1198" cy="-227.582" rx="85.7817" ry="26.3848"/>
<text text-anchor="middle" x="1198" y="-223.982" font-family="Times Roman,serif" font-size="14.00">path_sum_inr</text>
</a>
</g>
<!-- Sum_path_sum_inr&#45;&gt;Sum_path_sum_inv -->
<g id="edge44" class="edge"><title>Sum_path_sum_inr&#45;&gt;Sum_path_sum_inv</title>
<path fill="none" stroke="black" d="M1210.38,-201.327C1223.99,-172.481 1245.76,-126.328 1259.72,-96.7452"/>
<polygon fill="black" stroke="black" points="1263.02,-97.9345 1264.13,-87.397 1256.69,-94.9482 1263.02,-97.9345"/>
</g>
<!-- Sum_path_sum_inl -->
<g id="node25" class="node"><title>Sum_path_sum_inl</title>
<a xlink:href="Sum.html#path_sum_inl" xlink:title="path_sum_inl">
<ellipse fill="#f070d1" stroke="black" cx="1010" cy="-227.582" rx="75.9157" ry="18.3848"/>
<ellipse fill="none" stroke="black" cx="1010" cy="-227.582" rx="79.892" ry="22.3848"/>
<ellipse fill="none" stroke="black" cx="1010" cy="-227.582" rx="83.8683" ry="26.3848"/>
<text text-anchor="middle" x="1010" y="-223.982" font-family="Times Roman,serif" font-size="14.00">path_sum_inl</text>
</a>
</g>
<!-- Sum_path_sum_inl&#45;&gt;Sum_path_sum_inv -->
<g id="edge46" class="edge"><title>Sum_path_sum_inl&#45;&gt;Sum_path_sum_inv</title>
<path fill="none" stroke="black" d="M1049.09,-203.95C1099.34,-173.573 1185.98,-121.191 1235.46,-91.2757"/>
<polygon fill="black" stroke="black" points="1237.51,-94.1305 1244.25,-85.9616 1233.88,-88.1401 1237.51,-94.1305"/>
</g>
<!-- Sum_eta_sum -->
<g id="node28" class="node"><title>Sum_eta_sum</title>
<a xlink:href="Sum.html#eta_sum" xlink:title="eta_sum">
<ellipse fill="#f070d1" stroke="black" cx="77" cy="-835.582" rx="53.033" ry="18.3848"/>
<ellipse fill="none" stroke="black" cx="77" cy="-835.582" rx="57.033" ry="22.3848"/>
<ellipse fill="none" stroke="black" cx="77" cy="-835.582" rx="61.033" ry="26.3848"/>
<text text-anchor="middle" x="77" y="-831.982" font-family="Times Roman,serif" font-size="14.00">eta_sum</text>
</a>
</g>
</g>
</svg>
