<?xml version="1.0" encoding="UTF-8" standalone="no"?>
<!DOCTYPE svg PUBLIC "-//W3C//DTD SVG 1.1//EN"
 "http://www.w3.org/Graphics/SVG/1.1/DTD/svg11.dtd">
<!-- Generated by graphviz version 2.39.20141222.0545 (20141222.0545)
 -->
<!-- Title: HoTT_categories_LaxComma_CoreLaws Pages: 1 -->
<svg width="3346pt" height="1677pt"
 viewBox="0.00 0.00 3346.00 1677.00" xmlns="http://www.w3.org/2000/svg" xmlns:xlink="http://www.w3.org/1999/xlink">
<g id="graph0" class="graph" transform="scale(1 1) rotate(0) translate(4 1673)">
<title>HoTT_categories_LaxComma_CoreLaws</title>
<polygon fill="white" stroke="transparent" points="-4,4 -4,-1673 3342,-1673 3342,4 -4,4"/>
<g id="clust1" class="cluster"><title>cluster_CoreLaws</title>
<polygon fill="#ffffc3" stroke="black" points="8,-43.634 8,-1625.37 3330,-1625.37 3330,-43.634 8,-43.634"/>
<text text-anchor="middle" x="44" y="-1610.17" font-family="Times,serif" font-size="14.00">CoreLaws</text>
</g>
<g id="clust2" class="cluster"><title>cluster_CoreLaws_LaxCommaCategory</title>
<polygon fill="#ffffa3" stroke="black" points="16,-87.268 16,-1456.28 3322,-1456.28 3322,-87.268 16,-87.268"/>
<text text-anchor="middle" x="81.5" y="-1441.08" font-family="Times,serif" font-size="14.00">LaxCommaCategory</text>
</g>
<!-- CoreLaws_LaxCommaCategory_right_identity -->
<g id="node1" class="node"><title>CoreLaws_LaxCommaCategory_right_identity</title>
<g id="a_node1"><a xlink:href="CoreLaws.html#LaxCommaCategory.right_identity" xlink:title="right_identity">
<ellipse fill="#f070d1" stroke="black" cx="3248" cy="-1145.63" rx="58.4902" ry="18"/>
<ellipse fill="none" stroke="black" cx="3248" cy="-1145.63" rx="62.4899" ry="22"/>
<ellipse fill="none" stroke="black" cx="3248" cy="-1145.63" rx="66.4896" ry="26"/>
<text text-anchor="middle" x="3248" y="-1141.93" font-family="Times,serif" font-size="14.00">right_identity</text>
</a>
</g>
</g>
<!-- CoreLaws_LaxCommaCategory_right_identity_helper -->
<g id="node2" class="node"><title>CoreLaws_LaxCommaCategory_right_identity_helper</title>
<g id="a_node2"><a xlink:href="CoreLaws.html#LaxCommaCategory.right_identity_helper" xlink:title="right_identity_helper">
<ellipse fill="#facdef" stroke="black" cx="3229" cy="-665.634" rx="85.2851" ry="18"/>
<text text-anchor="middle" x="3229" y="-661.934" font-family="Times,serif" font-size="14.00">right_identity_helper</text>
</a>
</g>
</g>
<!-- CoreLaws_LaxCommaCategory_right_identity&#45;&gt;CoreLaws_LaxCommaCategory_right_identity_helper -->
<g id="edge1" class="edge"><title>CoreLaws_LaxCommaCategory_right_identity&#45;&gt;CoreLaws_LaxCommaCategory_right_identity_helper</title>
<path fill="none" stroke="black" d="M3246.96,-1119.49C3243.68,-1036.56 3233.52,-779.881 3230.12,-693.974"/>
<polygon fill="black" stroke="black" points="3233.62,-693.769 3229.72,-683.916 3226.62,-694.046 3233.62,-693.769"/>
</g>
<!-- CoreLaws_LaxCommaCategory_identity -->
<g id="node7" class="node"><title>CoreLaws_LaxCommaCategory_identity</title>
<g id="a_node7"><a xlink:href="CoreLaws.html#LaxCommaCategory.identity" xlink:title="identity">
<ellipse fill="#f070d1" stroke="black" cx="3088" cy="-665.634" rx="37.8943" ry="18"/>
<text text-anchor="middle" x="3088" y="-661.934" font-family="Times,serif" font-size="14.00">identity</text>
</a>
</g>
</g>
<!-- CoreLaws_LaxCommaCategory_right_identity&#45;&gt;CoreLaws_LaxCommaCategory_identity -->
<g id="edge2" class="edge"><title>CoreLaws_LaxCommaCategory_right_identity&#45;&gt;CoreLaws_LaxCommaCategory_identity</title>
<path fill="none" stroke="black" d="M3239.4,-1119.83C3211.79,-1037.02 3125.6,-778.43 3097.19,-693.193"/>
<polygon fill="black" stroke="black" points="3100.42,-691.837 3093.94,-683.457 3093.78,-694.051 3100.42,-691.837"/>
</g>
<!-- CoreLaws_LaxCommaCategory_compose -->
<g id="node8" class="node"><title>CoreLaws_LaxCommaCategory_compose</title>
<g id="a_node8"><a xlink:href="CoreLaws.html#LaxCommaCategory.compose" xlink:title="compose">
<ellipse fill="#f070d1" stroke="black" cx="2616" cy="-665.634" rx="42.4939" ry="18"/>
<text text-anchor="middle" x="2616" y="-661.934" font-family="Times,serif" font-size="14.00">compose</text>
</a>
</g>
</g>
<!-- CoreLaws_LaxCommaCategory_right_identity&#45;&gt;CoreLaws_LaxCommaCategory_compose -->
<g id="edge3" class="edge"><title>CoreLaws_LaxCommaCategory_right_identity&#45;&gt;CoreLaws_LaxCommaCategory_compose</title>
<path fill="none" stroke="black" d="M3217.52,-1122.48C3110.19,-1040.97 2750.62,-767.88 2645.25,-687.851"/>
<polygon fill="black" stroke="black" points="2647.06,-684.829 2636.98,-681.568 2642.83,-690.404 2647.06,-684.829"/>
</g>
<!-- CoreLaws_LaxCommaCategory_path_morphism_ -->
<g id="node10" class="node"><title>CoreLaws_LaxCommaCategory_path_morphism_</title>
<g id="a_node10"><a xlink:href="CoreLaws.html#LaxCommaCategory.path_morphism'" xlink:title="path_morphism&#39;">
<ellipse fill="#f070d1" stroke="black" cx="2488" cy="-665.634" rx="68.4888" ry="18"/>
<text text-anchor="middle" x="2488" y="-661.934" font-family="Times,serif" font-size="14.00">path_morphism&#39;</text>
</a>
</g>
</g>
<!-- CoreLaws_LaxCommaCategory_right_identity&#45;&gt;CoreLaws_LaxCommaCategory_path_morphism_ -->
<g id="edge4" class="edge"><title>CoreLaws_LaxCommaCategory_right_identity&#45;&gt;CoreLaws_LaxCommaCategory_path_morphism_</title>
<path fill="none" stroke="black" d="M3212.87,-1123.45C3085.72,-1043.14 2650.34,-768.166 2523.16,-687.837"/>
<polygon fill="black" stroke="black" points="2524.86,-684.776 2514.54,-682.395 2521.12,-690.695 2524.86,-684.776"/>
</g>
<!-- CoreLaws_LaxCommaCategory_morphism -->
<g id="node23" class="node"><title>CoreLaws_LaxCommaCategory_morphism</title>
<g id="a_node23"><a xlink:href="CoreLaws.html#LaxCommaCategory.morphism" xlink:title="morphism">
<ellipse fill="#e2cdfa" stroke="black" cx="2724" cy="-665.634" rx="47.3916" ry="18"/>
<text text-anchor="middle" x="2724" y="-661.934" font-family="Times,serif" font-size="14.00">morphism</text>
</a>
</g>
</g>
<!-- CoreLaws_LaxCommaCategory_right_identity&#45;&gt;CoreLaws_LaxCommaCategory_morphism -->
<g id="edge5" class="edge"><title>CoreLaws_LaxCommaCategory_right_identity&#45;&gt;CoreLaws_LaxCommaCategory_morphism</title>
<path fill="none" stroke="black" d="M3221.66,-1121.5C3131.91,-1039.29 2838.74,-770.742 2749.81,-689.276"/>
<polygon fill="black" stroke="black" points="2752.06,-686.595 2742.33,-682.421 2747.34,-691.757 2752.06,-686.595"/>
</g>
<!-- CoreLaws_LaxCommaCategory_object -->
<g id="node37" class="node"><title>CoreLaws_LaxCommaCategory_object</title>
<g id="a_node37"><a xlink:href="CoreLaws.html#LaxCommaCategory.object" xlink:title="object">
<ellipse fill="#e2cdfa" stroke="black" cx="2822" cy="-665.634" rx="32.4942" ry="18"/>
<text text-anchor="middle" x="2822" y="-661.934" font-family="Times,serif" font-size="14.00">object</text>
</a>
</g>
</g>
<!-- CoreLaws_LaxCommaCategory_right_identity&#45;&gt;CoreLaws_LaxCommaCategory_object -->
<g id="edge6" class="edge"><title>CoreLaws_LaxCommaCategory_right_identity&#45;&gt;CoreLaws_LaxCommaCategory_object</title>
<path fill="none" stroke="black" d="M3225.99,-1120.84C3152.53,-1038.06 2916.27,-771.854 2843.52,-689.886"/>
<polygon fill="black" stroke="black" points="2845.88,-687.264 2836.62,-682.108 2840.64,-691.91 2845.88,-687.264"/>
</g>
<!-- CoreLaws_LaxCommaCategory_left_identity -->
<g id="node3" class="node"><title>CoreLaws_LaxCommaCategory_left_identity</title>
<g id="a_node3"><a xlink:href="CoreLaws.html#LaxCommaCategory.left_identity" xlink:title="left_identity">
<ellipse fill="#f070d1" stroke="black" cx="3102" cy="-1145.63" rx="53.8975" ry="18"/>
<ellipse fill="none" stroke="black" cx="3102" cy="-1145.63" rx="57.894" ry="22"/>
<ellipse fill="none" stroke="black" cx="3102" cy="-1145.63" rx="61.8905" ry="26"/>
<text text-anchor="middle" x="3102" y="-1141.93" font-family="Times,serif" font-size="14.00">left_identity</text>
</a>
</g>
</g>
<!-- CoreLaws_LaxCommaCategory_left_identity_helper -->
<g id="node4" class="node"><title>CoreLaws_LaxCommaCategory_left_identity_helper</title>
<g id="a_node4"><a xlink:href="CoreLaws.html#LaxCommaCategory.left_identity_helper" xlink:title="left_identity_helper">
<ellipse fill="#facdef" stroke="black" cx="2952" cy="-665.634" rx="79.8859" ry="18"/>
<text text-anchor="middle" x="2952" y="-661.934" font-family="Times,serif" font-size="14.00">left_identity_helper</text>
</a>
</g>
</g>
<!-- CoreLaws_LaxCommaCategory_left_identity&#45;&gt;CoreLaws_LaxCommaCategory_left_identity_helper -->
<g id="edge7" class="edge"><title>CoreLaws_LaxCommaCategory_left_identity&#45;&gt;CoreLaws_LaxCommaCategory_left_identity_helper</title>
<path fill="none" stroke="black" d="M3093.94,-1119.83C3068.09,-1037.12 2987.45,-779.072 2960.71,-693.511"/>
<polygon fill="black" stroke="black" points="2964.05,-692.456 2957.73,-683.955 2957.37,-694.544 2964.05,-692.456"/>
</g>
<!-- CoreLaws_LaxCommaCategory_left_identity&#45;&gt;CoreLaws_LaxCommaCategory_identity -->
<g id="edge8" class="edge"><title>CoreLaws_LaxCommaCategory_left_identity&#45;&gt;CoreLaws_LaxCommaCategory_identity</title>
<path fill="none" stroke="black" d="M3101.24,-1119.49C3098.82,-1036.56 3091.33,-779.881 3088.83,-693.974"/>
<polygon fill="black" stroke="black" points="3092.32,-693.809 3088.53,-683.916 3085.33,-694.013 3092.32,-693.809"/>
</g>
<!-- CoreLaws_LaxCommaCategory_left_identity&#45;&gt;CoreLaws_LaxCommaCategory_compose -->
<g id="edge9" class="edge"><title>CoreLaws_LaxCommaCategory_left_identity&#45;&gt;CoreLaws_LaxCommaCategory_compose</title>
<path fill="none" stroke="black" d="M3077.57,-1121.5C2994.4,-1039.36 2722.91,-771.221 2640.16,-689.494"/>
<polygon fill="black" stroke="black" points="2642.33,-686.716 2632.75,-682.18 2637.41,-691.697 2642.33,-686.716"/>
</g>
<!-- CoreLaws_LaxCommaCategory_left_identity&#45;&gt;CoreLaws_LaxCommaCategory_path_morphism_ -->
<g id="edge10" class="edge"><title>CoreLaws_LaxCommaCategory_left_identity&#45;&gt;CoreLaws_LaxCommaCategory_path_morphism_</title>
<path fill="none" stroke="black" d="M3072.39,-1122.48C2968.6,-1041.35 2621.99,-770.382 2517.84,-688.965"/>
<polygon fill="black" stroke="black" points="2519.96,-686.176 2509.93,-682.775 2515.65,-691.691 2519.96,-686.176"/>
</g>
<!-- CoreLaws_LaxCommaCategory_left_identity&#45;&gt;CoreLaws_LaxCommaCategory_morphism -->
<g id="edge11" class="edge"><title>CoreLaws_LaxCommaCategory_left_identity&#45;&gt;CoreLaws_LaxCommaCategory_morphism</title>
<path fill="none" stroke="black" d="M3082.47,-1120.84C3017.58,-1038.43 2809.53,-774.238 2743.98,-691"/>
<polygon fill="black" stroke="black" points="2746.67,-688.77 2737.74,-683.079 2741.18,-693.101 2746.67,-688.77"/>
</g>
<!-- CoreLaws_LaxCommaCategory_left_identity&#45;&gt;CoreLaws_LaxCommaCategory_object -->
<g id="edge12" class="edge"><title>CoreLaws_LaxCommaCategory_left_identity&#45;&gt;CoreLaws_LaxCommaCategory_object</title>
<path fill="none" stroke="black" d="M3087.14,-1120.17C3038.76,-1037.22 2886.02,-775.376 2837.18,-691.65"/>
<polygon fill="black" stroke="black" points="2840.19,-689.877 2832.13,-683.003 2834.15,-693.405 2840.19,-689.877"/>
</g>
<!-- CoreLaws_LaxCommaCategory_associativity -->
<g id="node5" class="node"><title>CoreLaws_LaxCommaCategory_associativity</title>
<g id="a_node5"><a xlink:href="CoreLaws.html#LaxCommaCategory.associativity" xlink:title="associativity">
<ellipse fill="#f070d1" stroke="black" cx="2959" cy="-1145.63" rx="54.6783" ry="18"/>
<ellipse fill="none" stroke="black" cx="2959" cy="-1145.63" rx="58.6844" ry="22"/>
<ellipse fill="none" stroke="black" cx="2959" cy="-1145.63" rx="62.6905" ry="26"/>
<text text-anchor="middle" x="2959" y="-1141.93" font-family="Times,serif" font-size="14.00">associativity</text>
</a>
</g>
</g>
<!-- CoreLaws_LaxCommaCategory_associativity_helper -->
<g id="node6" class="node"><title>CoreLaws_LaxCommaCategory_associativity_helper</title>
<g id="a_node6"><a xlink:href="CoreLaws.html#LaxCommaCategory.associativity_helper" xlink:title="associativity_helper">
<ellipse fill="#facdef" stroke="black" cx="2321" cy="-665.634" rx="81.4863" ry="18"/>
<text text-anchor="middle" x="2321" y="-661.934" font-family="Times,serif" font-size="14.00">associativity_helper</text>
</a>
</g>
</g>
<!-- CoreLaws_LaxCommaCategory_associativity&#45;&gt;CoreLaws_LaxCommaCategory_associativity_helper -->
<g id="edge13" class="edge"><title>CoreLaws_LaxCommaCategory_associativity&#45;&gt;CoreLaws_LaxCommaCategory_associativity_helper</title>
<path fill="none" stroke="black" d="M2928.66,-1122.81C2821.48,-1042.17 2461.33,-771.211 2352.44,-689.291"/>
<polygon fill="black" stroke="black" points="2354.26,-686.274 2344.16,-683.059 2350.05,-691.867 2354.26,-686.274"/>
</g>
<!-- CoreLaws_LaxCommaCategory_associativity&#45;&gt;CoreLaws_LaxCommaCategory_compose -->
<g id="edge14" class="edge"><title>CoreLaws_LaxCommaCategory_associativity&#45;&gt;CoreLaws_LaxCommaCategory_compose</title>
<path fill="none" stroke="black" d="M2941.04,-1120.5C2881.93,-1037.78 2693.82,-774.543 2634.27,-691.198"/>
<polygon fill="black" stroke="black" points="2637.1,-689.142 2628.44,-683.041 2631.41,-693.212 2637.1,-689.142"/>
</g>
<!-- CoreLaws_LaxCommaCategory_associativity&#45;&gt;CoreLaws_LaxCommaCategory_path_morphism_ -->
<g id="edge15" class="edge"><title>CoreLaws_LaxCommaCategory_associativity&#45;&gt;CoreLaws_LaxCommaCategory_path_morphism_</title>
<path fill="none" stroke="black" d="M2935.32,-1121.5C2855.08,-1039.73 2593.96,-773.622 2512.5,-690.605"/>
<polygon fill="black" stroke="black" points="2514.69,-687.841 2505.19,-683.155 2509.7,-692.744 2514.69,-687.841"/>
</g>
<!-- CoreLaws_LaxCommaCategory_associativity&#45;&gt;CoreLaws_LaxCommaCategory_morphism -->
<g id="edge16" class="edge"><title>CoreLaws_LaxCommaCategory_associativity&#45;&gt;CoreLaws_LaxCommaCategory_morphism</title>
<path fill="none" stroke="black" d="M2946.37,-1119.83C2905.74,-1036.85 2778.71,-777.377 2737.24,-692.675"/>
<polygon fill="black" stroke="black" points="2740.27,-690.9 2732.73,-683.457 2733.98,-693.978 2740.27,-690.9"/>
</g>
<!-- CoreLaws_LaxCommaCategory_associativity&#45;&gt;CoreLaws_LaxCommaCategory_object -->
<g id="edge17" class="edge"><title>CoreLaws_LaxCommaCategory_associativity&#45;&gt;CoreLaws_LaxCommaCategory_object</title>
<path fill="none" stroke="black" d="M2951.54,-1119.49C2927.79,-1036.29 2854.13,-778.193 2829.85,-693.134"/>
<polygon fill="black" stroke="black" points="2833.19,-692.074 2827.08,-683.419 2826.46,-693.995 2833.19,-692.074"/>
</g>
<!-- CoreLaws_LaxCommaCategory_path_morphism__uncurried -->
<g id="node9" class="node"><title>CoreLaws_LaxCommaCategory_path_morphism__uncurried</title>
<g id="a_node9"><a xlink:href="CoreLaws.html#LaxCommaCategory.path_morphism'_uncurried" xlink:title="path_morphism&#39;_uncurried">
<ellipse fill="#f070d1" stroke="black" cx="2764" cy="-1145.63" rx="106.675" ry="18"/>
<ellipse fill="none" stroke="black" cx="2764" cy="-1145.63" rx="110.678" ry="22"/>
<ellipse fill="none" stroke="black" cx="2764" cy="-1145.63" rx="114.681" ry="26"/>
<text text-anchor="middle" x="2764" y="-1141.93" font-family="Times,serif" font-size="14.00">path_morphism&#39;_uncurried</text>
</a>
</g>
</g>
<!-- CoreLaws_LaxCommaCategory_path_morphism__uncurried&#45;&gt;CoreLaws_LaxCommaCategory_path_morphism_ -->
<g id="edge18" class="edge"><title>CoreLaws_LaxCommaCategory_path_morphism__uncurried&#45;&gt;CoreLaws_LaxCommaCategory_path_morphism_</title>
<path fill="none" stroke="black" d="M2749.16,-1119.83C2701.35,-1036.68 2551.65,-776.322 2503.25,-692.161"/>
<polygon fill="black" stroke="black" points="2506.27,-690.382 2498.25,-683.457 2500.2,-693.871 2506.27,-690.382"/>
</g>
<!-- CoreLaws_LaxCommaCategory_path_morphism__helper -->
<g id="node11" class="node"><title>CoreLaws_LaxCommaCategory_path_morphism__helper</title>
<g id="a_node11"><a xlink:href="CoreLaws.html#LaxCommaCategory.path_morphism'_helper" xlink:title="path_morphism&#39;_helper">
<ellipse fill="#f070d1" stroke="black" cx="2488" cy="-228.634" rx="94.7833" ry="18"/>
<text text-anchor="middle" x="2488" y="-224.934" font-family="Times,serif" font-size="14.00">path_morphism&#39;_helper</text>
</a>
</g>
</g>
<!-- CoreLaws_LaxCommaCategory_path_morphism_&#45;&gt;CoreLaws_LaxCommaCategory_path_morphism__helper -->
<g id="edge19" class="edge"><title>CoreLaws_LaxCommaCategory_path_morphism_&#45;&gt;CoreLaws_LaxCommaCategory_path_morphism__helper</title>
<path fill="none" stroke="black" d="M2488,-647.413C2488,-579.392 2488,-339.987 2488,-257.118"/>
<polygon fill="black" stroke="black" points="2491.5,-256.933 2488,-246.933 2484.5,-256.933 2491.5,-256.933"/>
</g>
<!-- CoreLaws_LaxCommaCategory_path_morphism -->
<g id="node13" class="node"><title>CoreLaws_LaxCommaCategory_path_morphism</title>
<g id="a_node13"><a xlink:href="CoreLaws.html#LaxCommaCategory.path_morphism" xlink:title="path_morphism">
<ellipse fill="#f070d1" stroke="black" cx="2208" cy="-228.634" rx="66.8882" ry="18"/>
<text text-anchor="middle" x="2208" y="-224.934" font-family="Times,serif" font-size="14.00">path_morphism</text>
</a>
</g>
</g>
<!-- CoreLaws_LaxCommaCategory_path_morphism_&#45;&gt;CoreLaws_LaxCommaCategory_path_morphism -->
<g id="edge20" class="edge"><title>CoreLaws_LaxCommaCategory_path_morphism_&#45;&gt;CoreLaws_LaxCommaCategory_path_morphism</title>
<path fill="none" stroke="black" d="M2476.5,-647.688C2432.8,-579.488 2276.9,-336.169 2224.97,-255.117"/>
<polygon fill="black" stroke="black" points="2227.78,-253.02 2219.44,-246.488 2221.89,-256.796 2227.78,-253.02"/>
</g>
<!-- CoreLaws_LaxCommaCategory_path_morphism_uncurried -->
<g id="node12" class="node"><title>CoreLaws_LaxCommaCategory_path_morphism_uncurried</title>
<g id="a_node12"><a xlink:href="CoreLaws.html#LaxCommaCategory.path_morphism_uncurried" xlink:title="path_morphism_uncurried">
<ellipse fill="#f070d1" stroke="black" cx="2109" cy="-665.634" rx="104.772" ry="18"/>
<ellipse fill="none" stroke="black" cx="2109" cy="-665.634" rx="108.777" ry="22"/>
<ellipse fill="none" stroke="black" cx="2109" cy="-665.634" rx="112.782" ry="26"/>
<text text-anchor="middle" x="2109" y="-661.934" font-family="Times,serif" font-size="14.00">path_morphism_uncurried</text>
</a>
</g>
</g>
<!-- CoreLaws_LaxCommaCategory_path_morphism_uncurried&#45;&gt;CoreLaws_LaxCommaCategory_path_morphism -->
<g id="edge21" class="edge"><title>CoreLaws_LaxCommaCategory_path_morphism_uncurried&#45;&gt;CoreLaws_LaxCommaCategory_path_morphism</title>
<path fill="none" stroke="black" d="M2114.9,-639.606C2132.35,-562.584 2183.63,-336.21 2201.65,-256.663"/>
<polygon fill="black" stroke="black" points="2205.07,-257.39 2203.87,-246.864 2198.25,-255.843 2205.07,-257.39"/>
</g>
<!-- CoreLaws_LaxCommaCategory_trunc_morphism -->
<g id="node14" class="node"><title>CoreLaws_LaxCommaCategory_trunc_morphism</title>
<g id="a_node14"><a xlink:href="CoreLaws.html#LaxCommaCategory.trunc_morphism" xlink:title="trunc_morphism">
<ellipse fill="#f070d1" stroke="black" cx="2554" cy="-1145.63" rx="69.5832" ry="18"/>
<ellipse fill="none" stroke="black" cx="2554" cy="-1145.63" rx="73.5854" ry="22"/>
<ellipse fill="none" stroke="black" cx="2554" cy="-1145.63" rx="77.5877" ry="26"/>
<text text-anchor="middle" x="2554" y="-1141.93" font-family="Times,serif" font-size="14.00">trunc_morphism</text>
</a>
</g>
</g>
<!-- CoreLaws_LaxCommaCategory_issig_morphism -->
<g id="node15" class="node"><title>CoreLaws_LaxCommaCategory_issig_morphism</title>
<g id="a_node15"><a xlink:href="CoreLaws.html#LaxCommaCategory.issig_morphism" xlink:title="issig_morphism">
<ellipse fill="#f070d1" stroke="black" cx="2383" cy="-1145.63" rx="67.6782" ry="18"/>
<ellipse fill="none" stroke="black" cx="2383" cy="-1145.63" rx="71.6831" ry="22"/>
<ellipse fill="none" stroke="black" cx="2383" cy="-1145.63" rx="75.6881" ry="26"/>
<text text-anchor="middle" x="2383" y="-1141.93" font-family="Times,serif" font-size="14.00">issig_morphism</text>
</a>
</g>
</g>
<!-- CoreLaws_LaxCommaCategory_morphism_rec -->
<g id="node16" class="node"><title>CoreLaws_LaxCommaCategory_morphism_rec</title>
<g id="a_node16"><a xlink:href="CoreLaws.html#LaxCommaCategory.morphism_rec" xlink:title="morphism_rec">
<ellipse fill="#f070d1" stroke="black" cx="2219" cy="-1145.63" rx="62.3011" ry="18"/>
<ellipse fill="none" stroke="black" cx="2219" cy="-1145.63" rx="66.2951" ry="22"/>
<ellipse fill="none" stroke="black" cx="2219" cy="-1145.63" rx="70.2891" ry="26"/>
<text text-anchor="middle" x="2219" y="-1141.93" font-family="Times,serif" font-size="14.00">morphism_rec</text>
</a>
</g>
</g>
<!-- CoreLaws_LaxCommaCategory_morphism_rect -->
<g id="node18" class="node"><title>CoreLaws_LaxCommaCategory_morphism_rect</title>
<g id="a_node18"><a xlink:href="CoreLaws.html#LaxCommaCategory.morphism_rect" xlink:title="morphism_rect">
<ellipse fill="#f070d1" stroke="black" cx="1913" cy="-665.634" rx="64.9885" ry="18"/>
<text text-anchor="middle" x="1913" y="-661.934" font-family="Times,serif" font-size="14.00">morphism_rect</text>
</a>
</g>
</g>
<!-- CoreLaws_LaxCommaCategory_morphism_rec&#45;&gt;CoreLaws_LaxCommaCategory_morphism_rect -->
<g id="edge22" class="edge"><title>CoreLaws_LaxCommaCategory_morphism_rec&#45;&gt;CoreLaws_LaxCommaCategory_morphism_rect</title>
<path fill="none" stroke="black" d="M2202.76,-1120.17C2149.95,-1037.32 1983.38,-776.026 1929.78,-691.962"/>
<polygon fill="black" stroke="black" points="1932.71,-690.047 1924.39,-683.496 1926.81,-693.81 1932.71,-690.047"/>
</g>
<!-- CoreLaws_LaxCommaCategory_morphism_ind -->
<g id="node17" class="node"><title>CoreLaws_LaxCommaCategory_morphism_ind</title>
<g id="a_node17"><a xlink:href="CoreLaws.html#LaxCommaCategory.morphism_ind" xlink:title="morphism_ind">
<ellipse fill="#7fffd4" stroke="black" cx="2060" cy="-1145.63" rx="63.0838" ry="18"/>
<ellipse fill="none" stroke="black" cx="2060" cy="-1145.63" rx="67.0863" ry="22"/>
<ellipse fill="none" stroke="black" cx="2060" cy="-1145.63" rx="71.0888" ry="26"/>
<text text-anchor="middle" x="2060" y="-1141.93" font-family="Times,serif" font-size="14.00">morphism_ind</text>
</a>
</g>
</g>
<!-- CoreLaws_LaxCommaCategory_morphism_ind&#45;&gt;CoreLaws_LaxCommaCategory_morphism_rect -->
<g id="edge23" class="edge"><title>CoreLaws_LaxCommaCategory_morphism_ind&#45;&gt;CoreLaws_LaxCommaCategory_morphism_rect</title>
<path fill="none" stroke="black" d="M2051.99,-1119.49C2026.57,-1036.48 1947.83,-779.358 1921.6,-693.712"/>
<polygon fill="black" stroke="black" points="1924.87,-692.452 1918.6,-683.916 1918.18,-694.502 1924.87,-692.452"/>
</g>
<!-- CoreLaws_LaxCommaCategory_p -->
<g id="node19" class="node"><title>CoreLaws_LaxCommaCategory_p</title>
<g id="a_node19"><a xlink:href="CoreLaws.html#LaxCommaCategory.p" xlink:title="p">
<ellipse fill="#f070d1" stroke="black" cx="1936" cy="-1145.63" rx="27" ry="18"/>
<ellipse fill="none" stroke="black" cx="1936" cy="-1145.63" rx="31" ry="22"/>
<ellipse fill="none" stroke="black" cx="1936" cy="-1145.63" rx="35" ry="26"/>
<text text-anchor="middle" x="1936" y="-1141.93" font-family="Times,serif" font-size="14.00">p</text>
</a>
</g>
</g>
<!-- CoreLaws_LaxCommaCategory_h -->
<g id="node20" class="node"><title>CoreLaws_LaxCommaCategory_h</title>
<g id="a_node20"><a xlink:href="CoreLaws.html#LaxCommaCategory.h" xlink:title="h">
<ellipse fill="#f070d1" stroke="black" cx="1848" cy="-1145.63" rx="27" ry="18"/>
<ellipse fill="none" stroke="black" cx="1848" cy="-1145.63" rx="31" ry="22"/>
<ellipse fill="none" stroke="black" cx="1848" cy="-1145.63" rx="35" ry="26"/>
<text text-anchor="middle" x="1848" y="-1141.93" font-family="Times,serif" font-size="14.00">h</text>
</a>
</g>
</g>
<!-- CoreLaws_LaxCommaCategory_g -->
<g id="node21" class="node"><title>CoreLaws_LaxCommaCategory_g</title>
<g id="a_node21"><a xlink:href="CoreLaws.html#LaxCommaCategory.g" xlink:title="g">
<ellipse fill="#f070d1" stroke="black" cx="1760" cy="-1145.63" rx="27" ry="18"/>
<ellipse fill="none" stroke="black" cx="1760" cy="-1145.63" rx="31" ry="22"/>
<ellipse fill="none" stroke="black" cx="1760" cy="-1145.63" rx="35" ry="26"/>
<text text-anchor="middle" x="1760" y="-1141.93" font-family="Times,serif" font-size="14.00">g</text>
</a>
</g>
</g>
<!-- CoreLaws_LaxCommaCategory_Build_morphism -->
<g id="node22" class="node"><title>CoreLaws_LaxCommaCategory_Build_morphism</title>
<g id="a_node22"><a xlink:href="CoreLaws.html#LaxCommaCategory.Build_morphism" xlink:title="Build_morphism">
<ellipse fill="#7faaff" stroke="black" cx="1628" cy="-1145.63" rx="71.488" ry="18"/>
<ellipse fill="none" stroke="black" cx="1628" cy="-1145.63" rx="75.4876" ry="22"/>
<ellipse fill="none" stroke="black" cx="1628" cy="-1145.63" rx="79.4873" ry="26"/>
<text text-anchor="middle" x="1628" y="-1141.93" font-family="Times,serif" font-size="14.00">Build_morphism</text>
</a>
</g>
</g>
<!-- CoreLaws_LaxCommaCategory_ap_b_path_object -->
<g id="node24" class="node"><title>CoreLaws_LaxCommaCategory_ap_b_path_object</title>
<g id="a_node24"><a xlink:href="CoreLaws.html#LaxCommaCategory.ap_b_path_object" xlink:title="ap_b_path_object">
<ellipse fill="#f070d1" stroke="black" cx="1449" cy="-1145.63" rx="73.3926" ry="18"/>
<ellipse fill="none" stroke="black" cx="1449" cy="-1145.63" rx="77.3898" ry="22"/>
<ellipse fill="none" stroke="black" cx="1449" cy="-1145.63" rx="81.387" ry="26"/>
<text text-anchor="middle" x="1449" y="-1141.93" font-family="Times,serif" font-size="14.00">ap_b_path_object</text>
</a>
</g>
</g>
<!-- CoreLaws_LaxCommaCategory_ap_a_path_object -->
<g id="node25" class="node"><title>CoreLaws_LaxCommaCategory_ap_a_path_object</title>
<g id="a_node25"><a xlink:href="CoreLaws.html#LaxCommaCategory.ap_a_path_object" xlink:title="ap_a_path_object">
<ellipse fill="#f070d1" stroke="black" cx="1269" cy="-1145.63" rx="72.608" ry="18"/>
<ellipse fill="none" stroke="black" cx="1269" cy="-1145.63" rx="76.5978" ry="22"/>
<ellipse fill="none" stroke="black" cx="1269" cy="-1145.63" rx="80.5876" ry="26"/>
<text text-anchor="middle" x="1269" y="-1141.93" font-family="Times,serif" font-size="14.00">ap_a_path_object</text>
</a>
</g>
</g>
<!-- CoreLaws_LaxCommaCategory_path_object_uncurried -->
<g id="node26" class="node"><title>CoreLaws_LaxCommaCategory_path_object_uncurried</title>
<g id="a_node26"><a xlink:href="CoreLaws.html#LaxCommaCategory.path_object_uncurried" xlink:title="path_object_uncurried">
<ellipse fill="#f070d1" stroke="black" cx="1073" cy="-1145.63" rx="89.8687" ry="18"/>
<ellipse fill="none" stroke="black" cx="1073" cy="-1145.63" rx="93.8766" ry="22"/>
<ellipse fill="none" stroke="black" cx="1073" cy="-1145.63" rx="97.8845" ry="26"/>
<text text-anchor="middle" x="1073" y="-1141.93" font-family="Times,serif" font-size="14.00">path_object_uncurried</text>
</a>
</g>
</g>
<!-- CoreLaws_LaxCommaCategory_path_object -->
<g id="node27" class="node"><title>CoreLaws_LaxCommaCategory_path_object</title>
<g id="a_node27"><a xlink:href="CoreLaws.html#LaxCommaCategory.path_object" xlink:title="path_object">
<ellipse fill="#f070d1" stroke="black" cx="1073" cy="-665.634" rx="51.9908" ry="18"/>
<text text-anchor="middle" x="1073" y="-661.934" font-family="Times,serif" font-size="14.00">path_object</text>
</a>
</g>
</g>
<!-- CoreLaws_LaxCommaCategory_path_object_uncurried&#45;&gt;CoreLaws_LaxCommaCategory_path_object -->
<g id="edge24" class="edge"><title>CoreLaws_LaxCommaCategory_path_object_uncurried&#45;&gt;CoreLaws_LaxCommaCategory_path_object</title>
<path fill="none" stroke="black" d="M1073,-1119.49C1073,-1036.56 1073,-779.881 1073,-693.974"/>
<polygon fill="black" stroke="black" points="1076.5,-693.916 1073,-683.916 1069.5,-693.916 1076.5,-693.916"/>
</g>
<!-- CoreLaws_LaxCommaCategory_trunc_object -->
<g id="node28" class="node"><title>CoreLaws_LaxCommaCategory_trunc_object</title>
<g id="a_node28"><a xlink:href="CoreLaws.html#LaxCommaCategory.trunc_object" xlink:title="trunc_object">
<ellipse fill="#f070d1" stroke="black" cx="895" cy="-1145.63" rx="54.6783" ry="18"/>
<ellipse fill="none" stroke="black" cx="895" cy="-1145.63" rx="58.6844" ry="22"/>
<ellipse fill="none" stroke="black" cx="895" cy="-1145.63" rx="62.6905" ry="26"/>
<text text-anchor="middle" x="895" y="-1141.93" font-family="Times,serif" font-size="14.00">trunc_object</text>
</a>
</g>
</g>
<!-- CoreLaws_LaxCommaCategory_issig_object -->
<g id="node29" class="node"><title>CoreLaws_LaxCommaCategory_issig_object</title>
<g id="a_node29"><a xlink:href="CoreLaws.html#LaxCommaCategory.issig_object" xlink:title="issig_object">
<ellipse fill="#f070d1" stroke="black" cx="754" cy="-1145.63" rx="52.7718" ry="18"/>
<ellipse fill="none" stroke="black" cx="754" cy="-1145.63" rx="56.7814" ry="22"/>
<ellipse fill="none" stroke="black" cx="754" cy="-1145.63" rx="60.791" ry="26"/>
<text text-anchor="middle" x="754" y="-1141.93" font-family="Times,serif" font-size="14.00">issig_object</text>
</a>
</g>
</g>
<!-- CoreLaws_LaxCommaCategory_object_rec -->
<g id="node30" class="node"><title>CoreLaws_LaxCommaCategory_object_rec</title>
<g id="a_node30"><a xlink:href="CoreLaws.html#LaxCommaCategory.object_rec" xlink:title="object_rec">
<ellipse fill="#f070d1" stroke="black" cx="620" cy="-1145.63" rx="47.3994" ry="18"/>
<ellipse fill="none" stroke="black" cx="620" cy="-1145.63" rx="51.3955" ry="22"/>
<ellipse fill="none" stroke="black" cx="620" cy="-1145.63" rx="55.3916" ry="26"/>
<text text-anchor="middle" x="620" y="-1141.93" font-family="Times,serif" font-size="14.00">object_rec</text>
</a>
</g>
</g>
<!-- CoreLaws_LaxCommaCategory_object_rect -->
<g id="node32" class="node"><title>CoreLaws_LaxCommaCategory_object_rect</title>
<g id="a_node32"><a xlink:href="CoreLaws.html#LaxCommaCategory.object_rect" xlink:title="object_rect">
<ellipse fill="#f070d1" stroke="black" cx="555" cy="-665.634" rx="50.0912" ry="18"/>
<text text-anchor="middle" x="555" y="-661.934" font-family="Times,serif" font-size="14.00">object_rect</text>
</a>
</g>
</g>
<!-- CoreLaws_LaxCommaCategory_object_rec&#45;&gt;CoreLaws_LaxCommaCategory_object_rect -->
<g id="edge25" class="edge"><title>CoreLaws_LaxCommaCategory_object_rec&#45;&gt;CoreLaws_LaxCommaCategory_object_rect</title>
<path fill="none" stroke="black" d="M616.459,-1119.49C605.23,-1036.56 570.471,-779.881 558.838,-693.974"/>
<polygon fill="black" stroke="black" points="562.286,-693.355 557.476,-683.916 555.349,-694.295 562.286,-693.355"/>
</g>
<!-- CoreLaws_LaxCommaCategory_object_ind -->
<g id="node31" class="node"><title>CoreLaws_LaxCommaCategory_object_ind</title>
<g id="a_node31"><a xlink:href="CoreLaws.html#LaxCommaCategory.object_ind" xlink:title="object_ind">
<ellipse fill="#7fffd4" stroke="black" cx="490" cy="-1145.63" rx="48.178" ry="18"/>
<ellipse fill="none" stroke="black" cx="490" cy="-1145.63" rx="52.1848" ry="22"/>
<ellipse fill="none" stroke="black" cx="490" cy="-1145.63" rx="56.1916" ry="26"/>
<text text-anchor="middle" x="490" y="-1141.93" font-family="Times,serif" font-size="14.00">object_ind</text>
</a>
</g>
</g>
<!-- CoreLaws_LaxCommaCategory_object_ind&#45;&gt;CoreLaws_LaxCommaCategory_object_rect -->
<g id="edge26" class="edge"><title>CoreLaws_LaxCommaCategory_object_ind&#45;&gt;CoreLaws_LaxCommaCategory_object_rect</title>
<path fill="none" stroke="black" d="M493.541,-1119.49C504.77,-1036.56 539.529,-779.881 551.162,-693.974"/>
<polygon fill="black" stroke="black" points="554.651,-694.295 552.524,-683.916 547.714,-693.355 554.651,-694.295"/>
</g>
<!-- CoreLaws_LaxCommaCategory_f -->
<g id="node33" class="node"><title>CoreLaws_LaxCommaCategory_f</title>
<g id="a_node33"><a xlink:href="CoreLaws.html#LaxCommaCategory.f" xlink:title="f">
<ellipse fill="#f070d1" stroke="black" cx="381" cy="-1145.63" rx="27" ry="18"/>
<ellipse fill="none" stroke="black" cx="381" cy="-1145.63" rx="31" ry="22"/>
<ellipse fill="none" stroke="black" cx="381" cy="-1145.63" rx="35" ry="26"/>
<text text-anchor="middle" x="381" y="-1141.93" font-family="Times,serif" font-size="14.00">f</text>
</a>
</g>
</g>
<!-- CoreLaws_LaxCommaCategory_b -->
<g id="node34" class="node"><title>CoreLaws_LaxCommaCategory_b</title>
<g id="a_node34"><a xlink:href="CoreLaws.html#LaxCommaCategory.b" xlink:title="b">
<ellipse fill="#f070d1" stroke="black" cx="293" cy="-1145.63" rx="27" ry="18"/>
<ellipse fill="none" stroke="black" cx="293" cy="-1145.63" rx="31" ry="22"/>
<ellipse fill="none" stroke="black" cx="293" cy="-1145.63" rx="35" ry="26"/>
<text text-anchor="middle" x="293" y="-1141.93" font-family="Times,serif" font-size="14.00">b</text>
</a>
</g>
</g>
<!-- CoreLaws_LaxCommaCategory_a -->
<g id="node35" class="node"><title>CoreLaws_LaxCommaCategory_a</title>
<g id="a_node35"><a xlink:href="CoreLaws.html#LaxCommaCategory.a" xlink:title="a">
<ellipse fill="#f070d1" stroke="black" cx="205" cy="-1145.63" rx="27" ry="18"/>
<ellipse fill="none" stroke="black" cx="205" cy="-1145.63" rx="31" ry="22"/>
<ellipse fill="none" stroke="black" cx="205" cy="-1145.63" rx="35" ry="26"/>
<text text-anchor="middle" x="205" y="-1141.93" font-family="Times,serif" font-size="14.00">a</text>
</a>
</g>
</g>
<!-- CoreLaws_LaxCommaCategory_Build_object -->
<g id="node36" class="node"><title>CoreLaws_LaxCommaCategory_Build_object</title>
<g id="a_node36"><a xlink:href="CoreLaws.html#LaxCommaCategory.Build_object" xlink:title="Build_object">
<ellipse fill="#7faaff" stroke="black" cx="88" cy="-1145.63" rx="55.8034" ry="18"/>
<ellipse fill="none" stroke="black" cx="88" cy="-1145.63" rx="59.7968" ry="22"/>
<ellipse fill="none" stroke="black" cx="88" cy="-1145.63" rx="63.7903" ry="26"/>
<text text-anchor="middle" x="88" y="-1141.93" font-family="Times,serif" font-size="14.00">Build_object</text>
</a>
</g>
</g>
</g>
</svg>
