<?xml version="1.0" encoding="UTF-8" standalone="no"?>
<!DOCTYPE svg PUBLIC "-//W3C//DTD SVG 1.1//EN"
 "http://www.w3.org/Graphics/SVG/1.1/DTD/svg11.dtd">
<!-- Generated by graphviz version 2.26.3 (20100126.1600)
 -->
<!-- Title: HoTT_categories_CategoryOfSections_Core Pages: 1 -->
<svg width="1804pt" height="906pt"
 viewBox="0.00 0.00 1804.00 906.00" xmlns="http://www.w3.org/2000/svg" xmlns:xlink="http://www.w3.org/1999/xlink">
<g id="graph1" class="graph" transform="scale(1 1) rotate(0) translate(4 902)">
<title>HoTT_categories_CategoryOfSections_Core</title>
<polygon fill="white" stroke="white" points="-4,5 -4,-902 1801,-902 1801,5 -4,5"/>
<g id="graph2" class="cluster"><title>cluster_Core</title>
<polygon fill="#ffffc3" stroke="black" points="8,-26.029 8,-871.971 1788,-871.971 1788,-26.029 8,-26.029"/>
<text text-anchor="middle" x="32.5" y="-855.371" font-family="Times Roman,serif" font-size="14.00">Core</text>
</g>
<!-- Core_isstrict_category_of_sections -->
<g id="node1" class="node"><title>Core_isstrict_category_of_sections</title>
<a xlink:href="Core.html#isstrict_category_of_sections" xlink:title="isstrict_category_of_sections">
<ellipse fill="#facdef" stroke="black" cx="1622" cy="-673.029" rx="150.139" ry="18.3848"/>
<ellipse fill="none" stroke="black" cx="1622" cy="-673.029" rx="154.126" ry="22.3848"/>
<ellipse fill="none" stroke="black" cx="1622" cy="-673.029" rx="158.113" ry="26.3848"/>
<text text-anchor="middle" x="1622" y="-669.429" font-family="Times Roman,serif" font-size="14.00">isstrict_category_of_sections</text>
</a>
</g>
<!-- Core_SectionOfFunctor -->
<g id="node13" class="node"><title>Core_SectionOfFunctor</title>
<a xlink:href="Core.html#SectionOfFunctor" xlink:title="SectionOfFunctor">
<ellipse fill="#e2cdfa" stroke="black" cx="1684" cy="-381.029" rx="96.1665" ry="18.3848"/>
<text text-anchor="middle" x="1684" y="-377.429" font-family="Times Roman,serif" font-size="14.00">SectionOfFunctor</text>
</a>
</g>
<!-- Core_isstrict_category_of_sections&#45;&gt;Core_SectionOfFunctor -->
<g id="edge2" class="edge"><title>Core_isstrict_category_of_sections&#45;&gt;Core_SectionOfFunctor</title>
<path fill="none" stroke="black" d="M1627.67,-646.342C1639.32,-591.452 1665.89,-466.318 1677.9,-409.745"/>
<polygon fill="black" stroke="black" points="1681.38,-410.207 1680.04,-399.698 1674.54,-408.753 1681.38,-410.207"/>
</g>
<!-- Core_category_of_sections -->
<g id="node2" class="node"><title>Core_category_of_sections</title>
<a xlink:href="Core.html#category_of_sections" xlink:title="category_of_sections">
<ellipse fill="#f070d1" stroke="black" cx="1311" cy="-673.029" rx="113.137" ry="18.3848"/>
<ellipse fill="none" stroke="black" cx="1311" cy="-673.029" rx="117.137" ry="22.3848"/>
<ellipse fill="none" stroke="black" cx="1311" cy="-673.029" rx="121.137" ry="26.3848"/>
<text text-anchor="middle" x="1311" y="-669.429" font-family="Times Roman,serif" font-size="14.00">category_of_sections</text>
</a>
</g>
<!-- Core_category_of_sections_subproof1 -->
<g id="node3" class="node"><title>Core_category_of_sections_subproof1</title>
<a xlink:href="Core.html#category_of_sections_subproof1" xlink:title="category_of_sections_subproof1">
<ellipse fill="#facdef" stroke="black" cx="713" cy="-381.029" rx="166.877" ry="18.3848"/>
<text text-anchor="middle" x="713" y="-377.429" font-family="Times Roman,serif" font-size="14.00">category_of_sections_subproof1</text>
</a>
</g>
<!-- Core_category_of_sections&#45;&gt;Core_category_of_sections_subproof1 -->
<g id="edge4" class="edge"><title>Core_category_of_sections&#45;&gt;Core_category_of_sections_subproof1</title>
<path fill="none" stroke="black" d="M1261.3,-648.76C1147.6,-593.242 869.856,-457.621 759.405,-403.688"/>
<polygon fill="black" stroke="black" points="760.704,-400.427 750.182,-399.185 757.632,-406.718 760.704,-400.427"/>
</g>
<!-- Core_category_of_sections_subproof0 -->
<g id="node4" class="node"><title>Core_category_of_sections_subproof0</title>
<a xlink:href="Core.html#category_of_sections_subproof0" xlink:title="category_of_sections_subproof0">
<ellipse fill="#facdef" stroke="black" cx="1065" cy="-381.029" rx="166.877" ry="18.3848"/>
<text text-anchor="middle" x="1065" y="-377.429" font-family="Times Roman,serif" font-size="14.00">category_of_sections_subproof0</text>
</a>
</g>
<!-- Core_category_of_sections&#45;&gt;Core_category_of_sections_subproof0 -->
<g id="edge6" class="edge"><title>Core_category_of_sections&#45;&gt;Core_category_of_sections_subproof0</title>
<path fill="none" stroke="black" d="M1288.95,-646.859C1242.31,-591.489 1134.07,-463.014 1087.25,-407.436"/>
<polygon fill="black" stroke="black" points="1089.92,-405.175 1080.8,-399.782 1084.57,-409.685 1089.92,-405.175"/>
</g>
<!-- Core_category_of_sections_subproof -->
<g id="node5" class="node"><title>Core_category_of_sections_subproof</title>
<a xlink:href="Core.html#category_of_sections_subproof" xlink:title="category_of_sections_subproof">
<ellipse fill="#facdef" stroke="black" cx="1410" cy="-381.029" rx="160.013" ry="18.3848"/>
<text text-anchor="middle" x="1410" y="-377.429" font-family="Times Roman,serif" font-size="14.00">category_of_sections_subproof</text>
</a>
</g>
<!-- Core_category_of_sections&#45;&gt;Core_category_of_sections_subproof -->
<g id="edge8" class="edge"><title>Core_category_of_sections&#45;&gt;Core_category_of_sections_subproof</title>
<path fill="none" stroke="black" d="M1319.96,-646.601C1338.56,-591.754 1381.2,-465.98 1400.36,-409.456"/>
<polygon fill="black" stroke="black" points="1403.76,-410.334 1403.66,-399.74 1397.13,-408.087 1403.76,-410.334"/>
</g>
<!-- Core_section_of_functor_sig -->
<g id="node6" class="node"><title>Core_section_of_functor_sig</title>
<a xlink:href="Core.html#section_of_functor_sig" xlink:title="section_of_functor_sig">
<ellipse fill="#f070d1" stroke="black" cx="401" cy="-381.029" rx="119.032" ry="18.3848"/>
<ellipse fill="none" stroke="black" cx="401" cy="-381.029" rx="123.017" ry="22.3848"/>
<ellipse fill="none" stroke="black" cx="401" cy="-381.029" rx="127.001" ry="26.3848"/>
<text text-anchor="middle" x="401" y="-377.429" font-family="Times Roman,serif" font-size="14.00">section_of_functor_sig</text>
</a>
</g>
<!-- Core_Build_SectionOfFunctor -->
<g id="node12" class="node"><title>Core_Build_SectionOfFunctor</title>
<a xlink:href="Core.html#Build_SectionOfFunctor" xlink:title="Build_SectionOfFunctor">
<ellipse fill="#7faaff" stroke="black" cx="271" cy="-114.029" rx="125.865" ry="18.3848"/>
<text text-anchor="middle" x="271" y="-110.429" font-family="Times Roman,serif" font-size="14.00">Build_SectionOfFunctor</text>
</a>
</g>
<!-- Core_section_of_functor_sig&#45;&gt;Core_Build_SectionOfFunctor -->
<g id="edge10" class="edge"><title>Core_section_of_functor_sig&#45;&gt;Core_Build_SectionOfFunctor</title>
<path fill="none" stroke="black" d="M388.06,-354.452C363.383,-303.77 309.817,-193.753 284.62,-142.002"/>
<polygon fill="black" stroke="black" points="287.642,-140.213 280.117,-132.754 281.348,-143.277 287.642,-140.213"/>
</g>
<!-- Core_SectionOfFunctor_rec -->
<g id="node7" class="node"><title>Core_SectionOfFunctor_rec</title>
<a xlink:href="Core.html#SectionOfFunctor_rec" xlink:title="SectionOfFunctor_rec">
<ellipse fill="#f070d1" stroke="black" cx="1048" cy="-673.029" rx="115.966" ry="18.3848"/>
<ellipse fill="none" stroke="black" cx="1048" cy="-673.029" rx="119.966" ry="22.3848"/>
<ellipse fill="none" stroke="black" cx="1048" cy="-673.029" rx="123.966" ry="26.3848"/>
<text text-anchor="middle" x="1048" y="-669.429" font-family="Times Roman,serif" font-size="14.00">SectionOfFunctor_rec</text>
</a>
</g>
<!-- Core_SectionOfFunctor_rect -->
<g id="node9" class="node"><title>Core_SectionOfFunctor_rect</title>
<a xlink:href="Core.html#SectionOfFunctor_rect" xlink:title="SectionOfFunctor_rect">
<ellipse fill="#f070d1" stroke="black" cx="136" cy="-381.029" rx="120.208" ry="18.3848"/>
<text text-anchor="middle" x="136" y="-377.429" font-family="Times Roman,serif" font-size="14.00">SectionOfFunctor_rect</text>
</a>
</g>
<!-- Core_SectionOfFunctor_rec&#45;&gt;Core_SectionOfFunctor_rect -->
<g id="edge12" class="edge"><title>Core_SectionOfFunctor_rec&#45;&gt;Core_SectionOfFunctor_rect</title>
<path fill="none" stroke="black" d="M979.078,-650.962C807.35,-595.979 362.442,-453.53 198.152,-400.928"/>
<polygon fill="black" stroke="black" points="198.798,-397.46 188.207,-397.744 196.663,-404.127 198.798,-397.46"/>
</g>
<!-- Core_SectionOfFunctor_ind -->
<g id="node8" class="node"><title>Core_SectionOfFunctor_ind</title>
<a xlink:href="Core.html#SectionOfFunctor_ind" xlink:title="SectionOfFunctor_ind">
<ellipse fill="#7fffd4" stroke="black" cx="782" cy="-673.029" rx="115.966" ry="18.3848"/>
<ellipse fill="none" stroke="black" cx="782" cy="-673.029" rx="119.966" ry="22.3848"/>
<ellipse fill="none" stroke="black" cx="782" cy="-673.029" rx="123.966" ry="26.3848"/>
<text text-anchor="middle" x="782" y="-669.429" font-family="Times Roman,serif" font-size="14.00">SectionOfFunctor_ind</text>
</a>
</g>
<!-- Core_SectionOfFunctor_ind&#45;&gt;Core_SectionOfFunctor_rect -->
<g id="edge14" class="edge"><title>Core_SectionOfFunctor_ind&#45;&gt;Core_SectionOfFunctor_rect</title>
<path fill="none" stroke="black" d="M728.861,-649.009C605.735,-593.355 302.434,-456.259 184.246,-402.837"/>
<polygon fill="black" stroke="black" points="185.612,-399.613 175.058,-398.684 182.729,-405.992 185.612,-399.613"/>
</g>
<!-- Core_SectionOfFunctor_rect&#45;&gt;Core_Build_SectionOfFunctor -->
<g id="edge16" class="edge"><title>Core_SectionOfFunctor_rect&#45;&gt;Core_Build_SectionOfFunctor</title>
<path fill="none" stroke="black" d="M145.493,-362.254C168.876,-316.007 229.347,-196.409 256.922,-141.873"/>
<polygon fill="black" stroke="black" points="260.129,-143.287 261.518,-132.783 253.882,-140.128 260.129,-143.287"/>
</g>
<!-- Core_section_of_functor_issect -->
<g id="node10" class="node"><title>Core_section_of_functor_issect</title>
<a xlink:href="Core.html#section_of_functor_issect" xlink:title="section_of_functor_issect">
<ellipse fill="#f070d1" stroke="black" cx="499" cy="-673.029" rx="132.936" ry="18.3848"/>
<ellipse fill="none" stroke="black" cx="499" cy="-673.029" rx="136.936" ry="22.3848"/>
<ellipse fill="none" stroke="black" cx="499" cy="-673.029" rx="140.936" ry="26.3848"/>
<text text-anchor="middle" x="499" y="-669.429" font-family="Times Roman,serif" font-size="14.00">section_of_functor_issect</text>
</a>
</g>
<!-- Core_section_of_functor_morphism -->
<g id="node11" class="node"><title>Core_section_of_functor_morphism</title>
<a xlink:href="Core.html#section_of_functor_morphism" xlink:title="section_of_functor_morphism">
<ellipse fill="#f070d1" stroke="black" cx="178" cy="-673.029" rx="154.149" ry="18.3848"/>
<ellipse fill="none" stroke="black" cx="178" cy="-673.029" rx="158.149" ry="22.3848"/>
<ellipse fill="none" stroke="black" cx="178" cy="-673.029" rx="162.149" ry="26.3848"/>
<text text-anchor="middle" x="178" y="-669.429" font-family="Times Roman,serif" font-size="14.00">section_of_functor_morphism</text>
</a>
</g>
</g>
</svg>
