<?xml version="1.0" encoding="UTF-8" standalone="no"?>
<!DOCTYPE svg PUBLIC "-//W3C//DTD SVG 1.1//EN"
 "http://www.w3.org/Graphics/SVG/1.1/DTD/svg11.dtd">
<!-- Generated by graphviz version 2.26.3 (20100126.1600)
 -->
<!-- Title: HoTT_categories_Grothendieck_PseudofunctorToCat Pages: 1 -->
<svg width="1326pt" height="667pt"
 viewBox="0.00 0.00 1326.00 667.00" xmlns="http://www.w3.org/2000/svg" xmlns:xlink="http://www.w3.org/1999/xlink">
<g id="graph1" class="graph" transform="scale(1 1) rotate(0) translate(4 663)">
<title>HoTT_categories_Grothendieck_PseudofunctorToCat</title>
<polygon fill="white" stroke="white" points="-4,5 -4,-663 1323,-663 1323,5 -4,5"/>
<g id="graph2" class="cluster"><title>cluster_PseudofunctorToCat</title>
<polygon fill="#ffffc3" stroke="black" points="8,-15.7844 8,-643.216 1310,-643.216 1310,-15.7844 8,-15.7844"/>
<text text-anchor="middle" x="85.5" y="-626.616" font-family="Times Roman,serif" font-size="14.00">PseudofunctorToCat</text>
</g>
<!-- PseudofunctorToCat_pr1 -->
<g id="node1" class="node"><title>PseudofunctorToCat_pr1</title>
<a xlink:href="PseudofunctorToCat.html#pr1" xlink:title="pr1">
<ellipse fill="#f070d1" stroke="black" cx="943" cy="-522.784" rx="27.8968" ry="18.3848"/>
<ellipse fill="none" stroke="black" cx="943" cy="-522.784" rx="31.842" ry="22.3848"/>
<ellipse fill="none" stroke="black" cx="943" cy="-522.784" rx="35.7872" ry="26.3848"/>
<text text-anchor="middle" x="943" y="-519.184" font-family="Times Roman,serif" font-size="14.00">pr1</text>
</a>
</g>
<!-- PseudofunctorToCat_category -->
<g id="node2" class="node"><title>PseudofunctorToCat_category</title>
<a xlink:href="PseudofunctorToCat.html#category" xlink:title="category">
<ellipse fill="#f070d1" stroke="black" cx="943" cy="-360.784" rx="53.9477" ry="18.3848"/>
<text text-anchor="middle" x="943" y="-357.184" font-family="Times Roman,serif" font-size="14.00">category</text>
</a>
</g>
<!-- PseudofunctorToCat_pr1&#45;&gt;PseudofunctorToCat_category -->
<g id="edge2" class="edge"><title>PseudofunctorToCat_pr1&#45;&gt;PseudofunctorToCat_category</title>
<path fill="none" stroke="black" d="M943,-496.033C943,-466.739 943,-419.925 943,-389.773"/>
<polygon fill="black" stroke="black" points="946.5,-389.482 943,-379.482 939.5,-389.482 946.5,-389.482"/>
</g>
<!-- PseudofunctorToCat_category_subproof1 -->
<g id="node3" class="node"><title>PseudofunctorToCat_category_subproof1</title>
<a xlink:href="PseudofunctorToCat.html#category_subproof1" xlink:title="category_subproof1">
<ellipse fill="#facdef" stroke="black" cx="485" cy="-214.784" rx="106.98" ry="18.3848"/>
<text text-anchor="middle" x="485" y="-211.184" font-family="Times Roman,serif" font-size="14.00">category_subproof1</text>
</a>
</g>
<!-- PseudofunctorToCat_category&#45;&gt;PseudofunctorToCat_category_subproof1 -->
<g id="edge4" class="edge"><title>PseudofunctorToCat_category&#45;&gt;PseudofunctorToCat_category_subproof1</title>
<path fill="none" stroke="black" d="M903.157,-348.083C822.862,-322.487 641.158,-264.564 545.887,-234.194"/>
<polygon fill="black" stroke="black" points="546.696,-230.778 536.105,-231.076 544.57,-237.448 546.696,-230.778"/>
</g>
<!-- PseudofunctorToCat_category_subproof0 -->
<g id="node4" class="node"><title>PseudofunctorToCat_category_subproof0</title>
<a xlink:href="PseudofunctorToCat.html#category_subproof0" xlink:title="category_subproof0">
<ellipse fill="#facdef" stroke="black" cx="717" cy="-214.784" rx="106.98" ry="18.3848"/>
<text text-anchor="middle" x="717" y="-211.184" font-family="Times Roman,serif" font-size="14.00">category_subproof0</text>
</a>
</g>
<!-- PseudofunctorToCat_category&#45;&gt;PseudofunctorToCat_category_subproof0 -->
<g id="edge6" class="edge"><title>PseudofunctorToCat_category&#45;&gt;PseudofunctorToCat_category_subproof0</title>
<path fill="none" stroke="black" d="M917.514,-344.32C877.388,-318.398 799.327,-267.969 753.333,-238.256"/>
<polygon fill="black" stroke="black" points="755.158,-235.268 744.859,-232.782 751.359,-241.148 755.158,-235.268"/>
</g>
<!-- PseudofunctorToCat_category_subproof -->
<g id="node5" class="node"><title>PseudofunctorToCat_category_subproof</title>
<a xlink:href="PseudofunctorToCat.html#category_subproof" xlink:title="category_subproof">
<ellipse fill="#facdef" stroke="black" cx="943" cy="-214.784" rx="101.116" ry="18.3848"/>
<text text-anchor="middle" x="943" y="-211.184" font-family="Times Roman,serif" font-size="14.00">category_subproof</text>
</a>
</g>
<!-- PseudofunctorToCat_category&#45;&gt;PseudofunctorToCat_category_subproof -->
<g id="edge8" class="edge"><title>PseudofunctorToCat_category&#45;&gt;PseudofunctorToCat_category_subproof</title>
<path fill="none" stroke="black" d="M943,-341.996C943,-317.138 943,-273.066 943,-243.885"/>
<polygon fill="black" stroke="black" points="946.5,-243.5 943,-233.5 939.5,-243.5 946.5,-243.5"/>
</g>
<!-- PseudofunctorToCat_identity -->
<g id="node9" class="node"><title>PseudofunctorToCat_identity</title>
<a xlink:href="PseudofunctorToCat.html#identity" xlink:title="identity">
<ellipse fill="#f070d1" stroke="black" cx="1111" cy="-214.784" rx="48.9975" ry="18.3848"/>
<text text-anchor="middle" x="1111" y="-211.184" font-family="Times Roman,serif" font-size="14.00">identity</text>
</a>
</g>
<!-- PseudofunctorToCat_category&#45;&gt;PseudofunctorToCat_identity -->
<g id="edge10" class="edge"><title>PseudofunctorToCat_category&#45;&gt;PseudofunctorToCat_identity</title>
<path fill="none" stroke="black" d="M962.932,-343.463C992.945,-317.38 1049.83,-267.947 1083.68,-238.525"/>
<polygon fill="black" stroke="black" points="1086.1,-241.059 1091.35,-231.857 1081.51,-235.775 1086.1,-241.059"/>
</g>
<!-- PseudofunctorToCat_compose -->
<g id="node10" class="node"><title>PseudofunctorToCat_compose</title>
<a xlink:href="PseudofunctorToCat.html#compose" xlink:title="compose">
<ellipse fill="#f070d1" stroke="black" cx="1231" cy="-214.784" rx="53.2379" ry="18.3848"/>
<text text-anchor="middle" x="1231" y="-211.184" font-family="Times Roman,serif" font-size="14.00">compose</text>
</a>
</g>
<!-- PseudofunctorToCat_category&#45;&gt;PseudofunctorToCat_compose -->
<g id="edge12" class="edge"><title>PseudofunctorToCat_category&#45;&gt;PseudofunctorToCat_compose</title>
<path fill="none" stroke="black" d="M973.277,-345.436C1025.67,-318.874 1133.22,-264.354 1191.45,-234.835"/>
<polygon fill="black" stroke="black" points="1193.36,-237.79 1200.7,-230.146 1190.19,-231.546 1193.36,-237.79"/>
</g>
<!-- PseudofunctorToCat_pseudofunctor_to_cat_right_identity_helper -->
<g id="node6" class="node"><title>PseudofunctorToCat_pseudofunctor_to_cat_right_identity_helper</title>
<a xlink:href="PseudofunctorToCat.html#pseudofunctor_to_cat_right_identity_helper" xlink:title="pseudofunctor_to_cat_right_identity_helper">
<ellipse fill="#facdef" stroke="black" cx="240" cy="-68.7844" rx="224.153" ry="18.3848"/>
<text text-anchor="middle" x="240" y="-65.1844" font-family="Times Roman,serif" font-size="14.00">pseudofunctor_to_cat_right_identity_helper</text>
</a>
</g>
<!-- PseudofunctorToCat_category_subproof1&#45;&gt;PseudofunctorToCat_pseudofunctor_to_cat_right_identity_helper -->
<g id="edge14" class="edge"><title>PseudofunctorToCat_category_subproof1&#45;&gt;PseudofunctorToCat_pseudofunctor_to_cat_right_identity_helper</title>
<path fill="none" stroke="black" d="M454.958,-196.882C410.932,-170.646 328.813,-121.709 279.809,-92.5071"/>
<polygon fill="black" stroke="black" points="281.443,-89.4065 271.06,-87.2939 277.859,-95.4198 281.443,-89.4065"/>
</g>
<!-- PseudofunctorToCat_pseudofunctor_to_cat_left_identity_helper -->
<g id="node7" class="node"><title>PseudofunctorToCat_pseudofunctor_to_cat_left_identity_helper</title>
<a xlink:href="PseudofunctorToCat.html#pseudofunctor_to_cat_left_identity_helper" xlink:title="pseudofunctor_to_cat_left_identity_helper">
<ellipse fill="#facdef" stroke="black" cx="699" cy="-68.7844" rx="217.082" ry="18.3848"/>
<text text-anchor="middle" x="699" y="-65.1844" font-family="Times Roman,serif" font-size="14.00">pseudofunctor_to_cat_left_identity_helper</text>
</a>
</g>
<!-- PseudofunctorToCat_category_subproof0&#45;&gt;PseudofunctorToCat_pseudofunctor_to_cat_left_identity_helper -->
<g id="edge16" class="edge"><title>PseudofunctorToCat_category_subproof0&#45;&gt;PseudofunctorToCat_pseudofunctor_to_cat_left_identity_helper</title>
<path fill="none" stroke="black" d="M714.684,-195.996C711.605,-171.029 706.138,-126.678 702.54,-97.4997"/>
<polygon fill="black" stroke="black" points="706.005,-96.9969 701.307,-87.5004 699.057,-97.8535 706.005,-96.9969"/>
</g>
<!-- PseudofunctorToCat_pseudofunctor_to_cat_assoc_helper -->
<g id="node8" class="node"><title>PseudofunctorToCat_pseudofunctor_to_cat_assoc_helper</title>
<a xlink:href="PseudofunctorToCat.html#pseudofunctor_to_cat_assoc_helper" xlink:title="pseudofunctor_to_cat_assoc_helper">
<ellipse fill="#facdef" stroke="black" cx="1118" cy="-68.7844" rx="183.848" ry="18.3848"/>
<text text-anchor="middle" x="1118" y="-65.1844" font-family="Times Roman,serif" font-size="14.00">pseudofunctor_to_cat_assoc_helper</text>
</a>
</g>
<!-- PseudofunctorToCat_category_subproof&#45;&gt;PseudofunctorToCat_pseudofunctor_to_cat_assoc_helper -->
<g id="edge18" class="edge"><title>PseudofunctorToCat_category_subproof&#45;&gt;PseudofunctorToCat_pseudofunctor_to_cat_assoc_helper</title>
<path fill="none" stroke="black" d="M964.81,-196.589C995.856,-170.688 1052.9,-123.095 1087.94,-93.8649"/>
<polygon fill="black" stroke="black" points="1090.48,-96.3033 1095.92,-87.2095 1085.99,-90.9282 1090.48,-96.3033"/>
</g>
<!-- PseudofunctorToCat_Pair_rec -->
<g id="node11" class="node"><title>PseudofunctorToCat_Pair_rec</title>
<a xlink:href="PseudofunctorToCat.html#Pair_rec" xlink:title="Pair_rec">
<ellipse fill="#f070d1" stroke="black" cx="478" cy="-522.784" rx="50.2046" ry="18.3848"/>
<ellipse fill="none" stroke="black" cx="478" cy="-522.784" rx="54.2046" ry="22.3848"/>
<ellipse fill="none" stroke="black" cx="478" cy="-522.784" rx="58.2046" ry="26.3848"/>
<text text-anchor="middle" x="478" y="-519.184" font-family="Times Roman,serif" font-size="14.00">Pair_rec</text>
</a>
</g>
<!-- PseudofunctorToCat_Pair_rect -->
<g id="node13" class="node"><title>PseudofunctorToCat_Pair_rect</title>
<a xlink:href="PseudofunctorToCat.html#Pair_rect" xlink:title="Pair_rect">
<ellipse fill="#f070d1" stroke="black" cx="344" cy="-360.784" rx="53.9477" ry="18.3848"/>
<text text-anchor="middle" x="344" y="-357.184" font-family="Times Roman,serif" font-size="14.00">Pair_rect</text>
</a>
</g>
<!-- PseudofunctorToCat_Pair_rec&#45;&gt;PseudofunctorToCat_Pair_rect -->
<g id="edge20" class="edge"><title>PseudofunctorToCat_Pair_rec&#45;&gt;PseudofunctorToCat_Pair_rect</title>
<path fill="none" stroke="black" d="M457.356,-497.827C432.527,-467.81 391.039,-417.653 365.734,-387.06"/>
<polygon fill="black" stroke="black" points="368.124,-384.458 359.053,-378.983 362.73,-388.92 368.124,-384.458"/>
</g>
<!-- PseudofunctorToCat_Pair_ind -->
<g id="node12" class="node"><title>PseudofunctorToCat_Pair_ind</title>
<a xlink:href="PseudofunctorToCat.html#Pair_ind" xlink:title="Pair_ind">
<ellipse fill="#7fffd4" stroke="black" cx="344" cy="-522.784" rx="50.2046" ry="18.3848"/>
<ellipse fill="none" stroke="black" cx="344" cy="-522.784" rx="54.2046" ry="22.3848"/>
<ellipse fill="none" stroke="black" cx="344" cy="-522.784" rx="58.2046" ry="26.3848"/>
<text text-anchor="middle" x="344" y="-519.184" font-family="Times Roman,serif" font-size="14.00">Pair_ind</text>
</a>
</g>
<!-- PseudofunctorToCat_Pair_ind&#45;&gt;PseudofunctorToCat_Pair_rect -->
<g id="edge22" class="edge"><title>PseudofunctorToCat_Pair_ind&#45;&gt;PseudofunctorToCat_Pair_rect</title>
<path fill="none" stroke="black" d="M344,-496.033C344,-466.739 344,-419.925 344,-389.773"/>
<polygon fill="black" stroke="black" points="347.5,-389.482 344,-379.482 340.5,-389.482 347.5,-389.482"/>
</g>
<!-- PseudofunctorToCat_Build_Pair -->
<g id="node16" class="node"><title>PseudofunctorToCat_Build_Pair</title>
<a xlink:href="PseudofunctorToCat.html#Build_Pair" xlink:title="Build_Pair">
<ellipse fill="#7faaff" stroke="black" cx="300" cy="-214.784" rx="60.1041" ry="18.3848"/>
<text text-anchor="middle" x="300" y="-211.184" font-family="Times Roman,serif" font-size="14.00">Build_Pair</text>
</a>
</g>
<!-- PseudofunctorToCat_Pair_rect&#45;&gt;PseudofunctorToCat_Build_Pair -->
<g id="edge24" class="edge"><title>PseudofunctorToCat_Pair_rect&#45;&gt;PseudofunctorToCat_Build_Pair</title>
<path fill="none" stroke="black" d="M338.427,-342.293C330.898,-317.309 317.404,-272.533 308.577,-243.243"/>
<polygon fill="black" stroke="black" points="311.903,-242.151 305.666,-233.586 305.201,-244.171 311.903,-242.151"/>
</g>
<!-- PseudofunctorToCat_x -->
<g id="node14" class="node"><title>PseudofunctorToCat_x</title>
<a xlink:href="PseudofunctorToCat.html#x" xlink:title="x">
<ellipse fill="#f070d1" stroke="black" cx="233" cy="-522.784" rx="27" ry="18.3848"/>
<ellipse fill="none" stroke="black" cx="233" cy="-522.784" rx="31" ry="22.3848"/>
<ellipse fill="none" stroke="black" cx="233" cy="-522.784" rx="35" ry="26.3848"/>
<text text-anchor="middle" x="233" y="-519.184" font-family="Times Roman,serif" font-size="14.00">x</text>
</a>
</g>
<!-- PseudofunctorToCat_c -->
<g id="node15" class="node"><title>PseudofunctorToCat_c</title>
<a xlink:href="PseudofunctorToCat.html#c" xlink:title="c">
<ellipse fill="#f070d1" stroke="black" cx="145" cy="-522.784" rx="27" ry="18.3848"/>
<ellipse fill="none" stroke="black" cx="145" cy="-522.784" rx="31" ry="22.3848"/>
<ellipse fill="none" stroke="black" cx="145" cy="-522.784" rx="35" ry="26.3848"/>
<text text-anchor="middle" x="145" y="-519.184" font-family="Times Roman,serif" font-size="14.00">c</text>
</a>
</g>
<!-- PseudofunctorToCat_Pair -->
<g id="node17" class="node"><title>PseudofunctorToCat_Pair</title>
<a xlink:href="PseudofunctorToCat.html#Pair" xlink:title="Pair">
<ellipse fill="#e2cdfa" stroke="black" cx="54" cy="-522.784" rx="30.0107" ry="18.3848"/>
<ellipse fill="none" stroke="black" cx="54" cy="-522.784" rx="33.9588" ry="22.3848"/>
<ellipse fill="none" stroke="black" cx="54" cy="-522.784" rx="37.9068" ry="26.3848"/>
<text text-anchor="middle" x="54" y="-519.184" font-family="Times Roman,serif" font-size="14.00">Pair</text>
</a>
</g>
</g>
</svg>
