<?xml version="1.0" encoding="UTF-8" standalone="no"?>
<!DOCTYPE svg PUBLIC "-//W3C//DTD SVG 1.1//EN"
 "http://www.w3.org/Graphics/SVG/1.1/DTD/svg11.dtd">
<!-- Generated by graphviz version 2.39.20141222.0545 (20141222.0545)
 -->
<!-- Title: HoTT_categories_LaxComma_Notations Pages: 1 -->
<svg width="2322pt" height="1165pt"
 viewBox="0.00 0.00 2322.00 1165.00" xmlns="http://www.w3.org/2000/svg" xmlns:xlink="http://www.w3.org/1999/xlink">
<g id="graph0" class="graph" transform="scale(1 1) rotate(0) translate(4 1161)">
<title>HoTT_categories_LaxComma_Notations</title>
<polygon fill="white" stroke="transparent" points="-4,4 -4,-1161 2318,-1161 2318,4 -4,4"/>
<g id="clust1" class="cluster"><title>cluster_Notations</title>
<polygon fill="#ffffc3" stroke="black" points="8,-51.7095 8,-1105.29 2306,-1105.29 2306,-51.7095 8,-51.7095"/>
<text text-anchor="middle" x="42.5" y="-1090.09" font-family="Times,serif" font-size="14.00">Notations</text>
</g>
<!-- Notations_OLCC_coslice_over -->
<g id="node1" class="node"><title>Notations_OLCC_coslice_over</title>
<g id="a_node1"><a xlink:href="Notations.html#OLCC_coslice_over" xlink:title="OLCC_coslice_over">
<ellipse fill="#7fffd4" stroke="black" cx="2207" cy="-736.709" rx="83.3687" ry="18"/>
<ellipse fill="none" stroke="black" cx="2207" cy="-736.709" rx="87.3772" ry="22"/>
<ellipse fill="none" stroke="black" cx="2207" cy="-736.709" rx="91.3856" ry="26"/>
<text text-anchor="middle" x="2207" y="-733.009" font-family="Times,serif" font-size="14.00">OLCC_coslice_over</text>
</a>
</g>
</g>
<!-- Notations_OLCC_slice_over -->
<g id="node2" class="node"><title>Notations_OLCC_slice_over</title>
<g id="a_node2"><a xlink:href="Notations.html#OLCC_slice_over" xlink:title="OLCC_slice_over">
<ellipse fill="#7fffd4" stroke="black" cx="2015" cy="-736.709" rx="74.9639" ry="18"/>
<ellipse fill="none" stroke="black" cx="2015" cy="-736.709" rx="78.9757" ry="22"/>
<ellipse fill="none" stroke="black" cx="2015" cy="-736.709" rx="82.9875" ry="26"/>
<text text-anchor="middle" x="2015" y="-733.009" font-family="Times,serif" font-size="14.00">OLCC_slice_over</text>
</a>
</g>
</g>
<!-- Notations_OLCC_coslice -->
<g id="node3" class="node"><title>Notations_OLCC_coslice</title>
<g id="a_node3"><a xlink:href="Notations.html#OLCC_coslice" xlink:title="OLCC_coslice">
<ellipse fill="#7fffd4" stroke="black" cx="1843" cy="-736.709" rx="63.0838" ry="18"/>
<ellipse fill="none" stroke="black" cx="1843" cy="-736.709" rx="67.0863" ry="22"/>
<ellipse fill="none" stroke="black" cx="1843" cy="-736.709" rx="71.0888" ry="26"/>
<text text-anchor="middle" x="1843" y="-733.009" font-family="Times,serif" font-size="14.00">OLCC_coslice</text>
</a>
</g>
</g>
<!-- Notations_OLCC_slice -->
<g id="node4" class="node"><title>Notations_OLCC_slice</title>
<g id="a_node4"><a xlink:href="Notations.html#OLCC_slice" xlink:title="OLCC_slice">
<ellipse fill="#7fffd4" stroke="black" cx="1691" cy="-736.709" rx="54.6783" ry="18"/>
<ellipse fill="none" stroke="black" cx="1691" cy="-736.709" rx="58.6844" ry="22"/>
<ellipse fill="none" stroke="black" cx="1691" cy="-736.709" rx="62.6905" ry="26"/>
<text text-anchor="middle" x="1691" y="-733.009" font-family="Times,serif" font-size="14.00">OLCC_slice</text>
</a>
</g>
</g>
<!-- Notations_OLCC_comma -->
<g id="node5" class="node"><title>Notations_OLCC_comma</title>
<g id="a_node5"><a xlink:href="Notations.html#OLCC_comma" xlink:title="OLCC_comma">
<ellipse fill="#7fffd4" stroke="black" cx="1537" cy="-736.709" rx="65.7729" ry="18"/>
<ellipse fill="none" stroke="black" cx="1537" cy="-736.709" rx="69.7808" ry="22"/>
<ellipse fill="none" stroke="black" cx="1537" cy="-736.709" rx="73.7886" ry="26"/>
<text text-anchor="middle" x="1537" y="-733.009" font-family="Times,serif" font-size="14.00">OLCC_comma</text>
</a>
</g>
</g>
<!-- Notations_get_OLCC -->
<g id="node6" class="node"><title>Notations_get_OLCC</title>
<g id="a_node6"><a xlink:href="Notations.html#get_OLCC" xlink:title="get_OLCC">
<ellipse fill="#f070d1" stroke="black" cx="1388" cy="-736.709" rx="49.3059" ry="18"/>
<ellipse fill="none" stroke="black" cx="1388" cy="-736.709" rx="53.2987" ry="22"/>
<ellipse fill="none" stroke="black" cx="1388" cy="-736.709" rx="57.2914" ry="26"/>
<text text-anchor="middle" x="1388" y="-733.009" font-family="Times,serif" font-size="14.00">get_OLCC</text>
</a>
</g>
</g>
<!-- Notations_OLCC_Builder -->
<g id="node8" class="node"><title>Notations_OLCC_Builder</title>
<g id="a_node8"><a xlink:href="Notations.html#OLCC_Builder" xlink:title="OLCC_Builder">
<ellipse fill="#f070d1" stroke="black" cx="1303" cy="-219.709" rx="64.9885" ry="18"/>
<text text-anchor="middle" x="1303" y="-216.009" font-family="Times,serif" font-size="14.00">OLCC_Builder</text>
</a>
</g>
</g>
<!-- Notations_get_OLCC&#45;&gt;Notations_OLCC_Builder -->
<g id="edge1" class="edge"><title>Notations_get_OLCC&#45;&gt;Notations_OLCC_Builder</title>
<path fill="none" stroke="black" d="M1383.73,-710.717C1369.31,-623.058 1322.57,-338.719 1307.63,-247.883"/>
<polygon fill="black" stroke="black" points="1311.05,-247.09 1305.97,-237.79 1304.14,-248.226 1311.05,-247.09"/>
</g>
<!-- Notations_olcc_builder_dummy -->
<g id="node7" class="node"><title>Notations_olcc_builder_dummy</title>
<g id="a_node7"><a xlink:href="Notations.html#olcc_builder_dummy" xlink:title="olcc_builder_dummy">
<ellipse fill="#7fffd4" stroke="black" cx="1218" cy="-736.709" rx="87.1769" ry="18"/>
<ellipse fill="none" stroke="black" cx="1218" cy="-736.709" rx="91.1807" ry="22"/>
<ellipse fill="none" stroke="black" cx="1218" cy="-736.709" rx="95.1846" ry="26"/>
<text text-anchor="middle" x="1218" y="-733.009" font-family="Times,serif" font-size="14.00">olcc_builder_dummy</text>
</a>
</g>
</g>
<!-- Notations_olcc_builder_dummy&#45;&gt;Notations_OLCC_Builder -->
<g id="edge2" class="edge"><title>Notations_olcc_builder_dummy&#45;&gt;Notations_OLCC_Builder</title>
<path fill="none" stroke="black" d="M1222.27,-710.717C1236.69,-623.058 1283.43,-338.719 1298.37,-247.883"/>
<polygon fill="black" stroke="black" points="1301.86,-248.226 1300.03,-237.79 1294.95,-247.09 1301.86,-248.226"/>
</g>
<!-- Notations_LCC_coslice_over -->
<g id="node9" class="node"><title>Notations_LCC_coslice_over</title>
<g id="a_node9"><a xlink:href="Notations.html#LCC_coslice_over" xlink:title="LCC_coslice_over">
<ellipse fill="#7fffd4" stroke="black" cx="1020" cy="-736.709" rx="76.8685" ry="18"/>
<ellipse fill="none" stroke="black" cx="1020" cy="-736.709" rx="80.8777" ry="22"/>
<ellipse fill="none" stroke="black" cx="1020" cy="-736.709" rx="84.8868" ry="26"/>
<text text-anchor="middle" x="1020" y="-733.009" font-family="Times,serif" font-size="14.00">LCC_coslice_over</text>
</a>
</g>
</g>
<!-- Notations_LCC_slice_over -->
<g id="node10" class="node"><title>Notations_LCC_slice_over</title>
<g id="a_node10"><a xlink:href="Notations.html#LCC_slice_over" xlink:title="LCC_slice_over">
<ellipse fill="#7fffd4" stroke="black" cx="841" cy="-736.709" rx="68.463" ry="18"/>
<ellipse fill="none" stroke="black" cx="841" cy="-736.709" rx="72.4758" ry="22"/>
<ellipse fill="none" stroke="black" cx="841" cy="-736.709" rx="76.4887" ry="26"/>
<text text-anchor="middle" x="841" y="-733.009" font-family="Times,serif" font-size="14.00">LCC_slice_over</text>
</a>
</g>
</g>
<!-- Notations_LCC_coslice -->
<g id="node11" class="node"><title>Notations_LCC_coslice</title>
<g id="a_node11"><a xlink:href="Notations.html#LCC_coslice" xlink:title="LCC_coslice">
<ellipse fill="#7fffd4" stroke="black" cx="682" cy="-736.709" rx="56.5844" ry="18"/>
<ellipse fill="none" stroke="black" cx="682" cy="-736.709" rx="60.5872" ry="22"/>
<ellipse fill="none" stroke="black" cx="682" cy="-736.709" rx="64.59" ry="26"/>
<text text-anchor="middle" x="682" y="-733.009" font-family="Times,serif" font-size="14.00">LCC_coslice</text>
</a>
</g>
</g>
<!-- Notations_LCC_slice -->
<g id="node12" class="node"><title>Notations_LCC_slice</title>
<g id="a_node12"><a xlink:href="Notations.html#LCC_slice" xlink:title="LCC_slice">
<ellipse fill="#7fffd4" stroke="black" cx="543" cy="-736.709" rx="48.178" ry="18"/>
<ellipse fill="none" stroke="black" cx="543" cy="-736.709" rx="52.1848" ry="22"/>
<ellipse fill="none" stroke="black" cx="543" cy="-736.709" rx="56.1916" ry="26"/>
<text text-anchor="middle" x="543" y="-733.009" font-family="Times,serif" font-size="14.00">LCC_slice</text>
</a>
</g>
</g>
<!-- Notations_LCC_comma -->
<g id="node13" class="node"><title>Notations_LCC_comma</title>
<g id="a_node13"><a xlink:href="Notations.html#LCC_comma" xlink:title="LCC_comma">
<ellipse fill="#7fffd4" stroke="black" cx="402" cy="-736.709" rx="59.2725" ry="18"/>
<ellipse fill="none" stroke="black" cx="402" cy="-736.709" rx="63.2812" ry="22"/>
<ellipse fill="none" stroke="black" cx="402" cy="-736.709" rx="67.2898" ry="26"/>
<text text-anchor="middle" x="402" y="-733.009" font-family="Times,serif" font-size="14.00">LCC_comma</text>
</a>
</g>
</g>
<!-- Notations_get_LCC -->
<g id="node14" class="node"><title>Notations_get_LCC</title>
<g id="a_node14"><a xlink:href="Notations.html#get_LCC" xlink:title="get_LCC">
<ellipse fill="#f070d1" stroke="black" cx="266" cy="-736.709" rx="42.8089" ry="18"/>
<ellipse fill="none" stroke="black" cx="266" cy="-736.709" rx="46.8007" ry="22"/>
<ellipse fill="none" stroke="black" cx="266" cy="-736.709" rx="50.7926" ry="26"/>
<text text-anchor="middle" x="266" y="-733.009" font-family="Times,serif" font-size="14.00">get_LCC</text>
</a>
</g>
</g>
<!-- Notations_LCC_Builder -->
<g id="node16" class="node"><title>Notations_LCC_Builder</title>
<g id="a_node16"><a xlink:href="Notations.html#LCC_Builder" xlink:title="LCC_Builder">
<ellipse fill="#f070d1" stroke="black" cx="186" cy="-219.709" rx="58.4896" ry="18"/>
<text text-anchor="middle" x="186" y="-216.009" font-family="Times,serif" font-size="14.00">LCC_Builder</text>
</a>
</g>
</g>
<!-- Notations_get_LCC&#45;&gt;Notations_LCC_Builder -->
<g id="edge3" class="edge"><title>Notations_get_LCC&#45;&gt;Notations_LCC_Builder</title>
<path fill="none" stroke="black" d="M261.978,-710.717C248.414,-623.058 204.415,-338.719 190.359,-247.883"/>
<polygon fill="black" stroke="black" points="193.786,-247.138 188.798,-237.79 186.868,-248.208 193.786,-247.138"/>
</g>
<!-- Notations_lcc_builder_dummy -->
<g id="node15" class="node"><title>Notations_lcc_builder_dummy</title>
<g id="a_node15"><a xlink:href="Notations.html#lcc_builder_dummy" xlink:title="lcc_builder_dummy">
<ellipse fill="#7fffd4" stroke="black" cx="107" cy="-736.709" rx="82.5816" ry="18"/>
<ellipse fill="none" stroke="black" cx="107" cy="-736.709" rx="86.5835" ry="22"/>
<ellipse fill="none" stroke="black" cx="107" cy="-736.709" rx="90.5854" ry="26"/>
<text text-anchor="middle" x="107" y="-733.009" font-family="Times,serif" font-size="14.00">lcc_builder_dummy</text>
</a>
</g>
</g>
<!-- Notations_lcc_builder_dummy&#45;&gt;Notations_LCC_Builder -->
<g id="edge4" class="edge"><title>Notations_lcc_builder_dummy&#45;&gt;Notations_LCC_Builder</title>
<path fill="none" stroke="black" d="M110.972,-710.717C124.366,-623.058 167.815,-338.719 181.695,-247.883"/>
<polygon fill="black" stroke="black" points="185.186,-248.204 183.237,-237.79 178.267,-247.147 185.186,-248.204"/>
</g>
</g>
</svg>
