<?xml version="1.0" encoding="UTF-8" standalone="no"?>
<!DOCTYPE svg PUBLIC "-//W3C//DTD SVG 1.1//EN"
 "http://www.w3.org/Graphics/SVG/1.1/DTD/svg11.dtd">
<!-- Generated by graphviz version 2.26.3 (20100126.1600)
 -->
<!-- Title: HoTT_categories_Category_Objects Pages: 1 -->
<svg width="2814pt" height="1411pt"
 viewBox="0.00 0.00 2814.00 1411.00" xmlns="http://www.w3.org/2000/svg" xmlns:xlink="http://www.w3.org/1999/xlink">
<g id="graph1" class="graph" transform="scale(1 1) rotate(0) translate(4 1407)">
<title>HoTT_categories_Category_Objects</title>
<polygon fill="white" stroke="white" points="-4,5 -4,-1407 2811,-1407 2811,5 -4,5"/>
<g id="graph2" class="cluster"><title>cluster_Objects</title>
<polygon fill="#ffffc3" stroke="black" points="8,-43.1692 8,-1359.83 2798,-1359.83 2798,-43.1692 8,-43.1692"/>
<text text-anchor="middle" x="42" y="-1343.23" font-family="Times Roman,serif" font-size="14.00">Objects</text>
</g>
<!-- Objects_initial_object_unique -->
<g id="node1" class="node"><title>Objects_initial_object_unique</title>
<a xlink:href="Objects.html#initial_object_unique" xlink:title="initial_object_unique">
<ellipse fill="#facdef" stroke="black" cx="2671" cy="-1030.17" rx="111.255" ry="18.3848"/>
<ellipse fill="none" stroke="black" cx="2671" cy="-1030.17" rx="115.239" ry="22.3848"/>
<ellipse fill="none" stroke="black" cx="2671" cy="-1030.17" rx="119.222" ry="26.3848"/>
<text text-anchor="middle" x="2671" y="-1026.57" font-family="Times Roman,serif" font-size="14.00">initial_object_unique</text>
</a>
</g>
<!-- Objects_unique_up_to_unique_isomorphism -->
<g id="node17" class="node"><title>Objects_unique_up_to_unique_isomorphism</title>
<a xlink:href="Objects.html#unique_up_to_unique_isomorphism" xlink:title="unique_up_to_unique_isomorphism">
<ellipse fill="#f070d1" stroke="black" cx="2503" cy="-588.169" rx="183.141" ry="18.3848"/>
<text text-anchor="middle" x="2503" y="-584.569" font-family="Times Roman,serif" font-size="14.00">unique_up_to_unique_isomorphism</text>
</a>
</g>
<!-- Objects_initial_object_unique&#45;&gt;Objects_unique_up_to_unique_isomorphism -->
<g id="edge2" class="edge"><title>Objects_initial_object_unique&#45;&gt;Objects_unique_up_to_unique_isomorphism</title>
<path fill="none" stroke="black" d="M2660.87,-1003.52C2631.14,-925.298 2544.31,-696.86 2513.77,-616.518"/>
<polygon fill="black" stroke="black" points="2517,-615.149 2510.17,-607.045 2510.46,-617.636 2517,-615.149"/>
</g>
<!-- Objects_terminal_object_unique -->
<g id="node2" class="node"><title>Objects_terminal_object_unique</title>
<a xlink:href="Objects.html#terminal_object_unique" xlink:title="terminal_object_unique">
<ellipse fill="#facdef" stroke="black" cx="2400" cy="-1030.17" rx="125.865" ry="18.3848"/>
<ellipse fill="none" stroke="black" cx="2400" cy="-1030.17" rx="129.865" ry="22.3848"/>
<ellipse fill="none" stroke="black" cx="2400" cy="-1030.17" rx="133.865" ry="26.3848"/>
<text text-anchor="middle" x="2400" y="-1026.57" font-family="Times Roman,serif" font-size="14.00">terminal_object_unique</text>
</a>
</g>
<!-- Objects_terminal_object_unique&#45;&gt;Objects_unique_up_to_unique_isomorphism -->
<g id="edge4" class="edge"><title>Objects_terminal_object_unique&#45;&gt;Objects_unique_up_to_unique_isomorphism</title>
<path fill="none" stroke="black" d="M2406.21,-1003.52C2424.4,-925.457 2477.45,-697.79 2496.28,-617.01"/>
<polygon fill="black" stroke="black" points="2499.74,-617.578 2498.6,-607.045 2492.92,-615.99 2499.74,-617.578"/>
</g>
<!-- Objects_InitialObject_rec -->
<g id="node3" class="node"><title>Objects_InitialObject_rec</title>
<a xlink:href="Objects.html#InitialObject_rec" xlink:title="InitialObject_rec">
<ellipse fill="#f070d1" stroke="black" cx="2150" cy="-1030.17" rx="90.0502" ry="18.3848"/>
<ellipse fill="none" stroke="black" cx="2150" cy="-1030.17" rx="94.0299" ry="22.3848"/>
<ellipse fill="none" stroke="black" cx="2150" cy="-1030.17" rx="98.0096" ry="26.3848"/>
<text text-anchor="middle" x="2150" y="-1026.57" font-family="Times Roman,serif" font-size="14.00">InitialObject_rec</text>
</a>
</g>
<!-- Objects_InitialObject_rect -->
<g id="node5" class="node"><title>Objects_InitialObject_rect</title>
<a xlink:href="Objects.html#InitialObject_rect" xlink:title="InitialObject_rect">
<ellipse fill="#f070d1" stroke="black" cx="2043" cy="-588.169" rx="94.7523" ry="18.3848"/>
<text text-anchor="middle" x="2043" y="-584.569" font-family="Times Roman,serif" font-size="14.00">InitialObject_rect</text>
</a>
</g>
<!-- Objects_InitialObject_rec&#45;&gt;Objects_InitialObject_rect -->
<g id="edge6" class="edge"><title>Objects_InitialObject_rec&#45;&gt;Objects_InitialObject_rect</title>
<path fill="none" stroke="black" d="M2143.55,-1003.52C2124.65,-925.457 2069.54,-697.79 2049.98,-617.01"/>
<polygon fill="black" stroke="black" points="2053.32,-615.941 2047.57,-607.045 2046.52,-617.588 2053.32,-615.941"/>
</g>
<!-- Objects_InitialObject_ind -->
<g id="node4" class="node"><title>Objects_InitialObject_ind</title>
<a xlink:href="Objects.html#InitialObject_ind" xlink:title="InitialObject_ind">
<ellipse fill="#7fffd4" stroke="black" cx="1936" cy="-1030.17" rx="90.0502" ry="18.3848"/>
<ellipse fill="none" stroke="black" cx="1936" cy="-1030.17" rx="94.0299" ry="22.3848"/>
<ellipse fill="none" stroke="black" cx="1936" cy="-1030.17" rx="98.0096" ry="26.3848"/>
<text text-anchor="middle" x="1936" y="-1026.57" font-family="Times Roman,serif" font-size="14.00">InitialObject_ind</text>
</a>
</g>
<!-- Objects_InitialObject_ind&#45;&gt;Objects_InitialObject_rect -->
<g id="edge8" class="edge"><title>Objects_InitialObject_ind&#45;&gt;Objects_InitialObject_rect</title>
<path fill="none" stroke="black" d="M1942.45,-1003.52C1961.35,-925.457 2016.46,-697.79 2036.02,-617.01"/>
<polygon fill="black" stroke="black" points="2039.48,-617.588 2038.43,-607.045 2032.68,-615.941 2039.48,-617.588"/>
</g>
<!-- Objects_Build_InitialObject -->
<g id="node8" class="node"><title>Objects_Build_InitialObject</title>
<a xlink:href="Objects.html#Build_InitialObject" xlink:title="Build_InitialObject">
<ellipse fill="#7faaff" stroke="black" cx="2043" cy="-189.169" rx="99.9096" ry="18.3848"/>
<text text-anchor="middle" x="2043" y="-185.569" font-family="Times Roman,serif" font-size="14.00">Build_InitialObject</text>
</a>
</g>
<!-- Objects_InitialObject_rect&#45;&gt;Objects_Build_InitialObject -->
<g id="edge10" class="edge"><title>Objects_InitialObject_rect&#45;&gt;Objects_Build_InitialObject</title>
<path fill="none" stroke="black" d="M2043,-569.46C2043,-505.581 2043,-295.783 2043,-218.28"/>
<polygon fill="black" stroke="black" points="2046.5,-217.838 2043,-207.838 2039.5,-217.838 2046.5,-217.838"/>
</g>
<!-- Objects_isinitial_object_initial -->
<g id="node6" class="node"><title>Objects_isinitial_object_initial</title>
<a xlink:href="Objects.html#isinitial_object_initial" xlink:title="isinitial_object_initial">
<ellipse fill="#f070d1" stroke="black" cx="1699" cy="-1030.17" rx="113.137" ry="18.3848"/>
<ellipse fill="none" stroke="black" cx="1699" cy="-1030.17" rx="117.137" ry="22.3848"/>
<ellipse fill="none" stroke="black" cx="1699" cy="-1030.17" rx="121.137" ry="26.3848"/>
<text text-anchor="middle" x="1699" y="-1026.57" font-family="Times Roman,serif" font-size="14.00">isinitial_object_initial</text>
</a>
</g>
<!-- Objects_object_initial -->
<g id="node7" class="node"><title>Objects_object_initial</title>
<a xlink:href="Objects.html#object_initial" xlink:title="object_initial">
<ellipse fill="#f070d1" stroke="black" cx="1479" cy="-1030.17" rx="73.0879" ry="18.3848"/>
<ellipse fill="none" stroke="black" cx="1479" cy="-1030.17" rx="77.0634" ry="22.3848"/>
<ellipse fill="none" stroke="black" cx="1479" cy="-1030.17" rx="81.0389" ry="26.3848"/>
<text text-anchor="middle" x="1479" y="-1026.57" font-family="Times Roman,serif" font-size="14.00">object_initial</text>
</a>
</g>
<!-- Objects_InitialObject -->
<g id="node9" class="node"><title>Objects_InitialObject</title>
<a xlink:href="Objects.html#InitialObject" xlink:title="InitialObject">
<ellipse fill="#e2cdfa" stroke="black" cx="1302" cy="-1030.17" rx="70.2603" ry="18.3848"/>
<ellipse fill="none" stroke="black" cx="1302" cy="-1030.17" rx="74.2348" ry="22.3848"/>
<ellipse fill="none" stroke="black" cx="1302" cy="-1030.17" rx="78.2093" ry="26.3848"/>
<text text-anchor="middle" x="1302" y="-1026.57" font-family="Times Roman,serif" font-size="14.00">InitialObject</text>
</a>
</g>
<!-- Objects_TerminalObject_rec -->
<g id="node10" class="node"><title>Objects_TerminalObject_rec</title>
<a xlink:href="Objects.html#TerminalObject_rec" xlink:title="TerminalObject_rec">
<ellipse fill="#f070d1" stroke="black" cx="1094" cy="-1030.17" rx="104.187" ry="18.3848"/>
<ellipse fill="none" stroke="black" cx="1094" cy="-1030.17" rx="108.169" ry="22.3848"/>
<ellipse fill="none" stroke="black" cx="1094" cy="-1030.17" rx="112.151" ry="26.3848"/>
<text text-anchor="middle" x="1094" y="-1026.57" font-family="Times Roman,serif" font-size="14.00">TerminalObject_rec</text>
</a>
</g>
<!-- Objects_TerminalObject_rect -->
<g id="node12" class="node"><title>Objects_TerminalObject_rect</title>
<a xlink:href="Objects.html#TerminalObject_rect" xlink:title="TerminalObject_rect">
<ellipse fill="#f070d1" stroke="black" cx="973" cy="-588.169" rx="108.894" ry="18.3848"/>
<text text-anchor="middle" x="973" y="-584.569" font-family="Times Roman,serif" font-size="14.00">TerminalObject_rect</text>
</a>
</g>
<!-- Objects_TerminalObject_rec&#45;&gt;Objects_TerminalObject_rect -->
<g id="edge12" class="edge"><title>Objects_TerminalObject_rec&#45;&gt;Objects_TerminalObject_rect</title>
<path fill="none" stroke="black" d="M1086.7,-1003.52C1065.33,-925.457 1003.01,-697.79 980.895,-617.01"/>
<polygon fill="black" stroke="black" points="984.184,-615.766 978.167,-607.045 977.432,-617.614 984.184,-615.766"/>
</g>
<!-- Objects_TerminalObject_ind -->
<g id="node11" class="node"><title>Objects_TerminalObject_ind</title>
<a xlink:href="Objects.html#TerminalObject_ind" xlink:title="TerminalObject_ind">
<ellipse fill="#7fffd4" stroke="black" cx="852" cy="-1030.17" rx="104.187" ry="18.3848"/>
<ellipse fill="none" stroke="black" cx="852" cy="-1030.17" rx="108.169" ry="22.3848"/>
<ellipse fill="none" stroke="black" cx="852" cy="-1030.17" rx="112.151" ry="26.3848"/>
<text text-anchor="middle" x="852" y="-1026.57" font-family="Times Roman,serif" font-size="14.00">TerminalObject_ind</text>
</a>
</g>
<!-- Objects_TerminalObject_ind&#45;&gt;Objects_TerminalObject_rect -->
<g id="edge14" class="edge"><title>Objects_TerminalObject_ind&#45;&gt;Objects_TerminalObject_rect</title>
<path fill="none" stroke="black" d="M859.297,-1003.52C880.665,-925.457 942.991,-697.79 965.105,-617.01"/>
<polygon fill="black" stroke="black" points="968.568,-617.614 967.833,-607.045 961.816,-615.766 968.568,-617.614"/>
</g>
<!-- Objects_Build_TerminalObject -->
<g id="node15" class="node"><title>Objects_Build_TerminalObject</title>
<a xlink:href="Objects.html#Build_TerminalObject" xlink:title="Build_TerminalObject">
<ellipse fill="#7faaff" stroke="black" cx="973" cy="-189.169" rx="113.844" ry="18.3848"/>
<text text-anchor="middle" x="973" y="-185.569" font-family="Times Roman,serif" font-size="14.00">Build_TerminalObject</text>
</a>
</g>
<!-- Objects_TerminalObject_rect&#45;&gt;Objects_Build_TerminalObject -->
<g id="edge16" class="edge"><title>Objects_TerminalObject_rect&#45;&gt;Objects_Build_TerminalObject</title>
<path fill="none" stroke="black" d="M973,-569.46C973,-505.581 973,-295.783 973,-218.28"/>
<polygon fill="black" stroke="black" points="976.5,-217.838 973,-207.838 969.5,-217.838 976.5,-217.838"/>
</g>
<!-- Objects_isterminal_object_terminal -->
<g id="node13" class="node"><title>Objects_isterminal_object_terminal</title>
<a xlink:href="Objects.html#isterminal_object_terminal" xlink:title="isterminal_object_terminal">
<ellipse fill="#f070d1" stroke="black" cx="574" cy="-1030.17" rx="140.24" ry="18.3848"/>
<ellipse fill="none" stroke="black" cx="574" cy="-1030.17" rx="144.227" ry="22.3848"/>
<ellipse fill="none" stroke="black" cx="574" cy="-1030.17" rx="148.214" ry="26.3848"/>
<text text-anchor="middle" x="574" y="-1026.57" font-family="Times Roman,serif" font-size="14.00">isterminal_object_terminal</text>
</a>
</g>
<!-- Objects_object_terminal -->
<g id="node14" class="node"><title>Objects_object_terminal</title>
<a xlink:href="Objects.html#object_terminal" xlink:title="object_terminal">
<ellipse fill="#f070d1" stroke="black" cx="313" cy="-1030.17" rx="86.9741" ry="18.3848"/>
<ellipse fill="none" stroke="black" cx="313" cy="-1030.17" rx="90.9741" ry="22.3848"/>
<ellipse fill="none" stroke="black" cx="313" cy="-1030.17" rx="94.9741" ry="26.3848"/>
<text text-anchor="middle" x="313" y="-1026.57" font-family="Times Roman,serif" font-size="14.00">object_terminal</text>
</a>
</g>
<!-- Objects_TerminalObject -->
<g id="node16" class="node"><title>Objects_TerminalObject</title>
<a xlink:href="Objects.html#TerminalObject" xlink:title="TerminalObject">
<ellipse fill="#e2cdfa" stroke="black" cx="108" cy="-1030.17" rx="84.1457" ry="18.3848"/>
<ellipse fill="none" stroke="black" cx="108" cy="-1030.17" rx="88.1457" ry="22.3848"/>
<ellipse fill="none" stroke="black" cx="108" cy="-1030.17" rx="92.1457" ry="26.3848"/>
<text text-anchor="middle" x="108" y="-1026.57" font-family="Times Roman,serif" font-size="14.00">TerminalObject</text>
</a>
</g>
</g>
</svg>
