<?xml version="1.0" encoding="UTF-8" standalone="no"?>
<!DOCTYPE svg PUBLIC "-//W3C//DTD SVG 1.1//EN"
 "http://www.w3.org/Graphics/SVG/1.1/DTD/svg11.dtd">
<!-- Generated by graphviz version 2.39.20161220.0128 (20161220.0128)
 -->
<!-- Title: HoTT_Modalities_Accessible Pages: 1 -->
<svg width="2363pt" height="1186pt"
 viewBox="0.00 0.00 2363.00 1185.50" xmlns="http://www.w3.org/2000/svg" xmlns:xlink="http://www.w3.org/1999/xlink">
<g id="graph0" class="graph" transform="scale(1 1) rotate(0) translate(4 1181.5)">
<title>HoTT_Modalities_Accessible</title>
<polygon fill="#ffffff" stroke="transparent" points="-4,4 -4,-1181.5 2359,-1181.5 2359,4 -4,4"/>
<g id="clust1" class="cluster">
<title>cluster_Accessible</title>
<polygon fill="#ffffc3" stroke="#000000" points="8,-32.1502 8,-1145.3498 2347,-1145.3498 2347,-32.1502 8,-32.1502"/>
<text text-anchor="middle" x="45.5" y="-1130.1498" font-family="Times,serif" font-size="14.00" fill="#000000">Accessible</text>
</g>
<g id="clust2" class="cluster">
<title>cluster_Accessible_IsLocal_Internal</title>
<polygon fill="#ffffa3" stroke="#000000" points="1997,-321.5017 1997,-622.9096 2103,-622.9096 2103,-321.5017 1997,-321.5017"/>
<text text-anchor="middle" x="2050" y="-607.7096" font-family="Times,serif" font-size="14.00" fill="#000000">IsLocal_Internal</text>
</g>
<g id="clust3" class="cluster">
<title>cluster_Accessible_IsNull_Internal</title>
<polygon fill="#ffffa3" stroke="#000000" points="1842,-655.0597 1842,-1020.7679 1941,-1020.7679 1941,-655.0597 1842,-655.0597"/>
<text text-anchor="middle" x="1891.5" y="-1005.5679" font-family="Times,serif" font-size="14.00" fill="#000000">IsNull_Internal</text>
</g>
<!-- Accessible_IsNull_Internal_IsNull -->
<g id="node1" class="node">
<title>Accessible_IsNull_Internal_IsNull</title>
<g id="a_node1"><a xlink:href="Accessible.html#IsNull_Internal.IsNull" xlink:title="IsNull">
<ellipse fill="#f070d1" stroke="#000000" cx="1891" cy="-792.1502" rx="32.4948" ry="18"/>
<ellipse fill="none" stroke="#000000" cx="1891" cy="-792.1502" rx="36.4945" ry="22"/>
<ellipse fill="none" stroke="#000000" cx="1891" cy="-792.1502" rx="40.4942" ry="26"/>
<text text-anchor="middle" x="1891" y="-788.4502" font-family="Times,serif" font-size="14.00" fill="#000000">IsNull</text>
</a>
</g>
</g>
<!-- Accessible_IsLocal_Internal_IsLocal -->
<g id="node2" class="node">
<title>Accessible_IsLocal_Internal_IsLocal</title>
<g id="a_node2"><a xlink:href="Accessible.html#IsLocal_Internal.IsLocal" xlink:title="IsLocal">
<ellipse fill="#f070d1" stroke="#000000" cx="2044" cy="-426.1502" rx="37.0935" ry="18"/>
<text text-anchor="middle" x="2044" y="-422.4502" font-family="Times,serif" font-size="14.00" fill="#000000">IsLocal</text>
</a>
</g>
</g>
<!-- Accessible_IsNull_Internal_IsNull&#45;&gt;Accessible_IsLocal_Internal_IsLocal -->
<g id="edge1" class="edge">
<title>Accessible_IsNull_Internal_IsNull&#45;&gt;Accessible_IsLocal_Internal_IsLocal</title>
<path fill="none" stroke="#000000" d="M1901.5163,-766.9935C1929.2508,-700.6484 2004.2037,-521.3492 2032.7508,-453.0599"/>
<polygon fill="#000000" stroke="#000000" points="2035.9871,-454.3929 2036.6148,-443.8166 2029.5287,-451.693 2035.9871,-454.3929"/>
</g>
<!-- Accessible_null_to_local_generators -->
<g id="node5" class="node">
<title>Accessible_null_to_local_generators</title>
<g id="a_node5"><a xlink:href="Accessible.html#null_to_local_generators" xlink:title="null_to_local_generators">
<ellipse fill="#f070d1" stroke="#000000" cx="1891" cy="-426.1502" rx="98.2828" ry="18"/>
<text text-anchor="middle" x="1891" y="-422.4502" font-family="Times,serif" font-size="14.00" fill="#000000">null_to_local_generators</text>
</a>
</g>
</g>
<!-- Accessible_IsNull_Internal_IsNull&#45;&gt;Accessible_null_to_local_generators -->
<g id="edge2" class="edge">
<title>Accessible_IsNull_Internal_IsNull&#45;&gt;Accessible_null_to_local_generators</title>
<path fill="none" stroke="#000000" d="M1891,-766.1218C1891,-699.6185 1891,-523.8457 1891,-454.6843"/>
<polygon fill="#000000" stroke="#000000" points="1894.5001,-454.5328 1891,-444.5328 1887.5001,-454.5328 1894.5001,-454.5328"/>
</g>
<!-- Accessible_ooextendable_isnull_fibers -->
<g id="node3" class="node">
<title>Accessible_ooextendable_isnull_fibers</title>
<g id="a_node3"><a xlink:href="Accessible.html#ooextendable_isnull_fibers" xlink:title="ooextendable_isnull_fibers">
<ellipse fill="#f070d1" stroke="#000000" cx="1719" cy="-792.1502" rx="105.8854" ry="18"/>
<ellipse fill="none" stroke="#000000" cx="1719" cy="-792.1502" rx="109.8833" ry="22"/>
<ellipse fill="none" stroke="#000000" cx="1719" cy="-792.1502" rx="113.8812" ry="26"/>
<text text-anchor="middle" x="1719" y="-788.4502" font-family="Times,serif" font-size="14.00" fill="#000000">ooextendable_isnull_fibers</text>
</a>
</g>
</g>
<!-- Accessible_extendable_isnull_fibers -->
<g id="node4" class="node">
<title>Accessible_extendable_isnull_fibers</title>
<g id="a_node4"><a xlink:href="Accessible.html#extendable_isnull_fibers" xlink:title="extendable_isnull_fibers">
<ellipse fill="#f070d1" stroke="#000000" cx="1678" cy="-426.1502" rx="96.6831" ry="18"/>
<text text-anchor="middle" x="1678" y="-422.4502" font-family="Times,serif" font-size="14.00" fill="#000000">extendable_isnull_fibers</text>
</a>
</g>
</g>
<!-- Accessible_ooextendable_isnull_fibers&#45;&gt;Accessible_extendable_isnull_fibers -->
<g id="edge3" class="edge">
<title>Accessible_ooextendable_isnull_fibers&#45;&gt;Accessible_extendable_isnull_fibers</title>
<path fill="none" stroke="#000000" d="M1716.0842,-766.1218C1708.6344,-699.6185 1688.944,-523.8457 1681.1965,-454.6843"/>
<polygon fill="#000000" stroke="#000000" points="1684.6508,-454.081 1680.0593,-444.5328 1677.6944,-454.8603 1684.6508,-454.081"/>
</g>
<!-- Accessible_Build_LocalGenerators -->
<g id="node20" class="node">
<title>Accessible_Build_LocalGenerators</title>
<g id="a_node20"><a xlink:href="Accessible.html#Build_LocalGenerators" xlink:title="Build_LocalGenerators">
<ellipse fill="#7faaff" stroke="#000000" cx="2044" cy="-136.1502" rx="92.8835" ry="18"/>
<text text-anchor="middle" x="2044" y="-132.4502" font-family="Times,serif" font-size="14.00" fill="#000000">Build_LocalGenerators</text>
</a>
</g>
</g>
<!-- Accessible_null_to_local_generators&#45;&gt;Accessible_Build_LocalGenerators -->
<g id="edge4" class="edge">
<title>Accessible_null_to_local_generators&#45;&gt;Accessible_Build_LocalGenerators</title>
<path fill="none" stroke="#000000" d="M1900.5708,-408.0094C1926.5986,-358.6757 1998.7808,-221.8598 2029.6725,-163.3068"/>
<polygon fill="#000000" stroke="#000000" points="2032.8621,-164.7619 2034.4328,-154.2841 2026.6709,-161.4955 2032.8621,-164.7619"/>
</g>
<!-- Accessible_NullGenerators_rec -->
<g id="node6" class="node">
<title>Accessible_NullGenerators_rec</title>
<g id="a_node6"><a xlink:href="Accessible.html#NullGenerators_rec" xlink:title="NullGenerators_rec">
<ellipse fill="#f070d1" stroke="#000000" cx="1058" cy="-792.1502" rx="79.891" ry="18"/>
<ellipse fill="none" stroke="#000000" cx="1058" cy="-792.1502" rx="83.8884" ry="22"/>
<ellipse fill="none" stroke="#000000" cx="1058" cy="-792.1502" rx="87.8859" ry="26"/>
<text text-anchor="middle" x="1058" y="-788.4502" font-family="Times,serif" font-size="14.00" fill="#000000">NullGenerators_rec</text>
</a>
</g>
</g>
<!-- Accessible_NullGenerators_rect -->
<g id="node8" class="node">
<title>Accessible_NullGenerators_rect</title>
<g id="a_node8"><a xlink:href="Accessible.html#NullGenerators_rect" xlink:title="NullGenerators_rect">
<ellipse fill="#f070d1" stroke="#000000" cx="961" cy="-426.1502" rx="82.5854" ry="18"/>
<text text-anchor="middle" x="961" y="-422.4502" font-family="Times,serif" font-size="14.00" fill="#000000">NullGenerators_rect</text>
</a>
</g>
</g>
<!-- Accessible_NullGenerators_rec&#45;&gt;Accessible_NullGenerators_rect -->
<g id="edge5" class="edge">
<title>Accessible_NullGenerators_rec&#45;&gt;Accessible_NullGenerators_rect</title>
<path fill="none" stroke="#000000" d="M1051.1018,-766.1218C1033.4403,-699.4817 986.7001,-523.1219 968.4496,-454.2588"/>
<polygon fill="#000000" stroke="#000000" points="971.817,-453.3024 965.8719,-444.5328 965.0506,-455.0958 971.817,-453.3024"/>
</g>
<!-- Accessible_NullGenerators_ind -->
<g id="node7" class="node">
<title>Accessible_NullGenerators_ind</title>
<g id="a_node7"><a xlink:href="Accessible.html#NullGenerators_ind" xlink:title="NullGenerators_ind">
<ellipse fill="#7fffd4" stroke="#000000" cx="863" cy="-792.1502" rx="80.6774" ry="18"/>
<ellipse fill="none" stroke="#000000" cx="863" cy="-792.1502" rx="84.6816" ry="22"/>
<ellipse fill="none" stroke="#000000" cx="863" cy="-792.1502" rx="88.6858" ry="26"/>
<text text-anchor="middle" x="863" y="-788.4502" font-family="Times,serif" font-size="14.00" fill="#000000">NullGenerators_ind</text>
</a>
</g>
</g>
<!-- Accessible_NullGenerators_ind&#45;&gt;Accessible_NullGenerators_rect -->
<g id="edge6" class="edge">
<title>Accessible_NullGenerators_ind&#45;&gt;Accessible_NullGenerators_rect</title>
<path fill="none" stroke="#000000" d="M869.9694,-766.1218C887.8129,-699.4817 935.0349,-523.1219 953.4737,-454.2588"/>
<polygon fill="#000000" stroke="#000000" points="956.8722,-455.0978 956.0779,-444.5328 950.1104,-453.2872 956.8722,-455.0978"/>
</g>
<!-- Accessible_Build_NullGenerators -->
<g id="node11" class="node">
<title>Accessible_Build_NullGenerators</title>
<g id="a_node11"><a xlink:href="Accessible.html#Build_NullGenerators" xlink:title="Build_NullGenerators">
<ellipse fill="#7faaff" stroke="#000000" cx="961" cy="-136.1502" rx="89.0842" ry="18"/>
<text text-anchor="middle" x="961" y="-132.4502" font-family="Times,serif" font-size="14.00" fill="#000000">Build_NullGenerators</text>
</a>
</g>
</g>
<!-- Accessible_NullGenerators_rect&#45;&gt;Accessible_Build_NullGenerators -->
<g id="edge7" class="edge">
<title>Accessible_NullGenerators_rect&#45;&gt;Accessible_Build_NullGenerators</title>
<path fill="none" stroke="#000000" d="M961,-408.0094C961,-358.9809 961,-223.5491 961,-164.4023"/>
<polygon fill="#000000" stroke="#000000" points="964.5001,-164.2841 961,-154.2841 957.5001,-164.2841 964.5001,-164.2841"/>
</g>
<!-- Accessible_ngen_type -->
<g id="node9" class="node">
<title>Accessible_ngen_type</title>
<g id="a_node9"><a xlink:href="Accessible.html#ngen_type" xlink:title="ngen_type">
<ellipse fill="#f070d1" stroke="#000000" cx="1532" cy="-792.1502" rx="47.3994" ry="18"/>
<ellipse fill="none" stroke="#000000" cx="1532" cy="-792.1502" rx="51.3955" ry="22"/>
<ellipse fill="none" stroke="#000000" cx="1532" cy="-792.1502" rx="55.3916" ry="26"/>
<text text-anchor="middle" x="1532" y="-788.4502" font-family="Times,serif" font-size="14.00" fill="#000000">ngen_type</text>
</a>
</g>
</g>
<!-- Accessible_ngen_indices -->
<g id="node10" class="node">
<title>Accessible_ngen_indices</title>
<g id="a_node10"><a xlink:href="Accessible.html#ngen_indices" xlink:title="ngen_indices">
<ellipse fill="#f070d1" stroke="#000000" cx="1393" cy="-792.1502" rx="57.3664" ry="18"/>
<ellipse fill="none" stroke="#000000" cx="1393" cy="-792.1502" rx="61.3784" ry="22"/>
<ellipse fill="none" stroke="#000000" cx="1393" cy="-792.1502" rx="65.3904" ry="26"/>
<text text-anchor="middle" x="1393" y="-788.4502" font-family="Times,serif" font-size="14.00" fill="#000000">ngen_indices</text>
</a>
</g>
</g>
<!-- Accessible_NullGenerators -->
<g id="node12" class="node">
<title>Accessible_NullGenerators</title>
<g id="a_node12"><a xlink:href="Accessible.html#NullGenerators" xlink:title="NullGenerators">
<ellipse fill="#e2cdfa" stroke="#000000" cx="1237" cy="-792.1502" rx="64.9891" ry="18"/>
<ellipse fill="none" stroke="#000000" cx="1237" cy="-792.1502" rx="68.9888" ry="22"/>
<ellipse fill="none" stroke="#000000" cx="1237" cy="-792.1502" rx="72.9885" ry="26"/>
<text text-anchor="middle" x="1237" y="-788.4502" font-family="Times,serif" font-size="14.00" fill="#000000">NullGenerators</text>
</a>
</g>
</g>
<!-- Accessible_LocalGenerators_rec -->
<g id="node13" class="node">
<title>Accessible_LocalGenerators_rec</title>
<g id="a_node13"><a xlink:href="Accessible.html#LocalGenerators_rec" xlink:title="LocalGenerators_rec">
<ellipse fill="#f070d1" stroke="#000000" cx="2247" cy="-792.1502" rx="84.4857" ry="18"/>
<ellipse fill="none" stroke="#000000" cx="2247" cy="-792.1502" rx="88.4853" ry="22"/>
<ellipse fill="none" stroke="#000000" cx="2247" cy="-792.1502" rx="92.485" ry="26"/>
<text text-anchor="middle" x="2247" y="-788.4502" font-family="Times,serif" font-size="14.00" fill="#000000">LocalGenerators_rec</text>
</a>
</g>
</g>
<!-- Accessible_LocalGenerators_rect -->
<g id="node15" class="node">
<title>Accessible_LocalGenerators_rect</title>
<g id="a_node15"><a xlink:href="Accessible.html#LocalGenerators_rect" xlink:title="LocalGenerators_rect">
<ellipse fill="#f070d1" stroke="#000000" cx="2198" cy="-426.1502" rx="87.1846" ry="18"/>
<text text-anchor="middle" x="2198" y="-422.4502" font-family="Times,serif" font-size="14.00" fill="#000000">LocalGenerators_rect</text>
</a>
</g>
</g>
<!-- Accessible_LocalGenerators_rec&#45;&gt;Accessible_LocalGenerators_rect -->
<g id="edge8" class="edge">
<title>Accessible_LocalGenerators_rec&#45;&gt;Accessible_LocalGenerators_rect</title>
<path fill="none" stroke="#000000" d="M2243.5153,-766.1218C2234.6119,-699.6185 2211.0795,-523.8457 2201.8201,-454.6843"/>
<polygon fill="#000000" stroke="#000000" points="2205.2572,-453.9799 2200.4611,-444.5328 2198.3191,-454.9088 2205.2572,-453.9799"/>
</g>
<!-- Accessible_LocalGenerators_ind -->
<g id="node14" class="node">
<title>Accessible_LocalGenerators_ind</title>
<g id="a_node14"><a xlink:href="Accessible.html#LocalGenerators_ind" xlink:title="LocalGenerators_ind">
<ellipse fill="#7fffd4" stroke="#000000" cx="2043" cy="-792.1502" rx="85.2729" ry="18"/>
<ellipse fill="none" stroke="#000000" cx="2043" cy="-792.1502" rx="89.279" ry="22"/>
<ellipse fill="none" stroke="#000000" cx="2043" cy="-792.1502" rx="93.2851" ry="26"/>
<text text-anchor="middle" x="2043" y="-788.4502" font-family="Times,serif" font-size="14.00" fill="#000000">LocalGenerators_ind</text>
</a>
</g>
</g>
<!-- Accessible_LocalGenerators_ind&#45;&gt;Accessible_LocalGenerators_rect -->
<g id="edge9" class="edge">
<title>Accessible_LocalGenerators_ind&#45;&gt;Accessible_LocalGenerators_rect</title>
<path fill="none" stroke="#000000" d="M2054.023,-766.1218C2082.3687,-699.1892 2157.5893,-521.5716 2186.4774,-453.3583"/>
<polygon fill="#000000" stroke="#000000" points="2189.7155,-454.6872 2190.3924,-444.114 2183.2697,-451.9574 2189.7155,-454.6872"/>
</g>
<!-- Accessible_LocalGenerators_rect&#45;&gt;Accessible_Build_LocalGenerators -->
<g id="edge10" class="edge">
<title>Accessible_LocalGenerators_rect&#45;&gt;Accessible_Build_LocalGenerators</title>
<path fill="none" stroke="#000000" d="M2188.3666,-408.0094C2162.1687,-358.6757 2089.5148,-221.8598 2058.4211,-163.3068"/>
<polygon fill="#000000" stroke="#000000" points="2061.4111,-161.4745 2053.6297,-154.2841 2055.2287,-164.7576 2061.4111,-161.4745"/>
</g>
<!-- Accessible_lgenerator -->
<g id="node16" class="node">
<title>Accessible_lgenerator</title>
<g id="a_node16"><a xlink:href="Accessible.html#lgenerator" xlink:title="lgenerator">
<ellipse fill="#f070d1" stroke="#000000" cx="702" cy="-792.1502" rx="46.2706" ry="18"/>
<ellipse fill="none" stroke="#000000" cx="702" cy="-792.1502" rx="50.2814" ry="22"/>
<ellipse fill="none" stroke="#000000" cx="702" cy="-792.1502" rx="54.2922" ry="26"/>
<text text-anchor="middle" x="702" y="-788.4502" font-family="Times,serif" font-size="14.00" fill="#000000">lgenerator</text>
</a>
</g>
</g>
<!-- Accessible_lgen_codomain -->
<g id="node17" class="node">
<title>Accessible_lgen_codomain</title>
<g id="a_node17"><a xlink:href="Accessible.html#lgen_codomain" xlink:title="lgen_codomain">
<ellipse fill="#f070d1" stroke="#000000" cx="556" cy="-792.1502" rx="65.7729" ry="18"/>
<ellipse fill="none" stroke="#000000" cx="556" cy="-792.1502" rx="69.7808" ry="22"/>
<ellipse fill="none" stroke="#000000" cx="556" cy="-792.1502" rx="73.7886" ry="26"/>
<text text-anchor="middle" x="556" y="-788.4502" font-family="Times,serif" font-size="14.00" fill="#000000">lgen_codomain</text>
</a>
</g>
</g>
<!-- Accessible_lgen_domain -->
<g id="node18" class="node">
<title>Accessible_lgen_domain</title>
<g id="a_node18"><a xlink:href="Accessible.html#lgen_domain" xlink:title="lgen_domain">
<ellipse fill="#f070d1" stroke="#000000" cx="399" cy="-792.1502" rx="57.3664" ry="18"/>
<ellipse fill="none" stroke="#000000" cx="399" cy="-792.1502" rx="61.3784" ry="22"/>
<ellipse fill="none" stroke="#000000" cx="399" cy="-792.1502" rx="65.3904" ry="26"/>
<text text-anchor="middle" x="399" y="-788.4502" font-family="Times,serif" font-size="14.00" fill="#000000">lgen_domain</text>
</a>
</g>
</g>
<!-- Accessible_lgen_indices -->
<g id="node19" class="node">
<title>Accessible_lgen_indices</title>
<g id="a_node19"><a xlink:href="Accessible.html#lgen_indices" xlink:title="lgen_indices">
<ellipse fill="#f070d1" stroke="#000000" cx="253" cy="-792.1502" rx="55.46" ry="18"/>
<ellipse fill="none" stroke="#000000" cx="253" cy="-792.1502" rx="59.4756" ry="22"/>
<ellipse fill="none" stroke="#000000" cx="253" cy="-792.1502" rx="63.4911" ry="26"/>
<text text-anchor="middle" x="253" y="-788.4502" font-family="Times,serif" font-size="14.00" fill="#000000">lgen_indices</text>
</a>
</g>
</g>
<!-- Accessible_LocalGenerators -->
<g id="node21" class="node">
<title>Accessible_LocalGenerators</title>
<g id="a_node21"><a xlink:href="Accessible.html#LocalGenerators" xlink:title="LocalGenerators">
<ellipse fill="#e2cdfa" stroke="#000000" cx="94" cy="-792.1502" rx="69.5832" ry="18"/>
<ellipse fill="none" stroke="#000000" cx="94" cy="-792.1502" rx="73.5854" ry="22"/>
<ellipse fill="none" stroke="#000000" cx="94" cy="-792.1502" rx="77.5877" ry="26"/>
<text text-anchor="middle" x="94" y="-788.4502" font-family="Times,serif" font-size="14.00" fill="#000000">LocalGenerators</text>
</a>
</g>
</g>
</g>
</svg>
