<?xml version="1.0" encoding="UTF-8" standalone="no"?>
<!DOCTYPE svg PUBLIC "-//W3C//DTD SVG 1.1//EN"
 "http://www.w3.org/Graphics/SVG/1.1/DTD/svg11.dtd">
<!-- Generated by graphviz version 2.26.3 (20100126.1600)
 -->
<!-- Title: HoTT_categories_NaturalTransformation_Core Pages: 1 -->
<svg width="1924pt" height="966pt"
 viewBox="0.00 0.00 1924.00 966.00" xmlns="http://www.w3.org/2000/svg" xmlns:xlink="http://www.w3.org/1999/xlink">
<g id="graph1" class="graph" transform="scale(1 1) rotate(0) translate(4 962)">
<title>HoTT_categories_NaturalTransformation_Core</title>
<polygon fill="white" stroke="white" points="-4,5 -4,-962 1921,-962 1921,5 -4,5"/>
<g id="graph2" class="cluster"><title>cluster_Core</title>
<polygon fill="#ffffc3" stroke="black" points="8,-27.7681 8,-930.232 1908,-930.232 1908,-27.7681 8,-27.7681"/>
<text text-anchor="middle" x="32.5" y="-913.632" font-family="Times Roman,serif" font-size="14.00">Core</text>
</g>
<!-- Core_commutes_T_Fp -->
<g id="node1" class="node"><title>Core_commutes_T_Fp</title>
<a xlink:href="Core.html#commutes_T_Fp" xlink:title="commutes_T_Fp">
<ellipse fill="#f070d1" stroke="black" cx="1802" cy="-718.768" rx="90.0502" ry="18.3848"/>
<ellipse fill="none" stroke="black" cx="1802" cy="-718.768" rx="94.0299" ry="22.3848"/>
<ellipse fill="none" stroke="black" cx="1802" cy="-718.768" rx="98.0096" ry="26.3848"/>
<text text-anchor="middle" x="1802" y="-715.168" font-family="Times Roman,serif" font-size="14.00">commutes_T_Fp</text>
</a>
</g>
<!-- Core_commutes_pT_F -->
<g id="node2" class="node"><title>Core_commutes_pT_F</title>
<a xlink:href="Core.html#commutes_pT_F" xlink:title="commutes_pT_F">
<ellipse fill="#f070d1" stroke="black" cx="1588" cy="-718.768" rx="90.0502" ry="18.3848"/>
<ellipse fill="none" stroke="black" cx="1588" cy="-718.768" rx="94.0299" ry="22.3848"/>
<ellipse fill="none" stroke="black" cx="1588" cy="-718.768" rx="98.0096" ry="26.3848"/>
<text text-anchor="middle" x="1588" y="-715.168" font-family="Times Roman,serif" font-size="14.00">commutes_pT_F</text>
</a>
</g>
<!-- Core_Build_NaturalTransformation -->
<g id="node3" class="node"><title>Core_Build_NaturalTransformation</title>
<a xlink:href="Core.html#Build_NaturalTransformation" xlink:title="Build_NaturalTransformation">
<ellipse fill="#f070d1" stroke="black" cx="1487" cy="-405.768" rx="150.846" ry="18.3848"/>
<ellipse fill="none" stroke="black" cx="1487" cy="-405.768" rx="154.834" ry="22.3848"/>
<ellipse fill="none" stroke="black" cx="1487" cy="-405.768" rx="158.821" ry="26.3848"/>
<text text-anchor="middle" x="1487" y="-402.168" font-family="Times Roman,serif" font-size="14.00">Build_NaturalTransformation</text>
</a>
</g>
<!-- Core_Build_NaturalTransformation_ -->
<g id="node10" class="node"><title>Core_Build_NaturalTransformation_</title>
<a xlink:href="Core.html#Build_NaturalTransformation&#39;" xlink:title="Build_NaturalTransformation&#39;">
<ellipse fill="#7faaff" stroke="black" cx="1326" cy="-121.768" rx="152.942" ry="18.3848"/>
<text text-anchor="middle" x="1326" y="-118.168" font-family="Times Roman,serif" font-size="14.00">Build_NaturalTransformation&#39;</text>
</a>
</g>
<!-- Core_Build_NaturalTransformation&#45;&gt;Core_Build_NaturalTransformation_ -->
<g id="edge2" class="edge"><title>Core_Build_NaturalTransformation&#45;&gt;Core_Build_NaturalTransformation_</title>
<path fill="none" stroke="black" d="M1472,-379.305C1441.52,-325.545 1372.63,-204.027 1341.63,-149.345"/>
<polygon fill="black" stroke="black" points="1344.63,-147.525 1336.65,-140.552 1338.54,-150.977 1344.63,-147.525"/>
</g>
<!-- Core_NaturalTransformation_rec -->
<g id="node4" class="node"><title>Core_NaturalTransformation_rec</title>
<a xlink:href="Core.html#NaturalTransformation_rec" xlink:title="NaturalTransformation_rec">
<ellipse fill="#f070d1" stroke="black" cx="1323" cy="-718.768" rx="140.948" ry="18.3848"/>
<ellipse fill="none" stroke="black" cx="1323" cy="-718.768" rx="144.935" ry="22.3848"/>
<ellipse fill="none" stroke="black" cx="1323" cy="-718.768" rx="148.922" ry="26.3848"/>
<text text-anchor="middle" x="1323" y="-715.168" font-family="Times Roman,serif" font-size="14.00">NaturalTransformation_rec</text>
</a>
</g>
<!-- Core_NaturalTransformation_rect -->
<g id="node6" class="node"><title>Core_NaturalTransformation_rect</title>
<a xlink:href="Core.html#NaturalTransformation_rect" xlink:title="NaturalTransformation_rect">
<ellipse fill="#f070d1" stroke="black" cx="1165" cy="-405.768" rx="145.163" ry="18.3848"/>
<text text-anchor="middle" x="1165" y="-402.168" font-family="Times Roman,serif" font-size="14.00">NaturalTransformation_rect</text>
</a>
</g>
<!-- Core_NaturalTransformation_rec&#45;&gt;Core_NaturalTransformation_rect -->
<g id="edge4" class="edge"><title>Core_NaturalTransformation_rec&#45;&gt;Core_NaturalTransformation_rect</title>
<path fill="none" stroke="black" d="M1309.67,-692.352C1280.14,-633.855 1209.45,-493.832 1179.17,-433.835"/>
<polygon fill="black" stroke="black" points="1182.13,-431.937 1174.5,-424.587 1175.88,-435.091 1182.13,-431.937"/>
</g>
<!-- Core_NaturalTransformation_ind -->
<g id="node5" class="node"><title>Core_NaturalTransformation_ind</title>
<a xlink:href="Core.html#NaturalTransformation_ind" xlink:title="NaturalTransformation_ind">
<ellipse fill="#7fffd4" stroke="black" cx="1007" cy="-718.768" rx="140.948" ry="18.3848"/>
<ellipse fill="none" stroke="black" cx="1007" cy="-718.768" rx="144.935" ry="22.3848"/>
<ellipse fill="none" stroke="black" cx="1007" cy="-718.768" rx="148.922" ry="26.3848"/>
<text text-anchor="middle" x="1007" y="-715.168" font-family="Times Roman,serif" font-size="14.00">NaturalTransformation_ind</text>
</a>
</g>
<!-- Core_NaturalTransformation_ind&#45;&gt;Core_NaturalTransformation_rect -->
<g id="edge6" class="edge"><title>Core_NaturalTransformation_ind&#45;&gt;Core_NaturalTransformation_rect</title>
<path fill="none" stroke="black" d="M1020.33,-692.352C1049.86,-633.855 1120.55,-493.832 1150.83,-433.835"/>
<polygon fill="black" stroke="black" points="1154.12,-435.091 1155.5,-424.587 1147.87,-431.937 1154.12,-435.091"/>
</g>
<!-- Core_NaturalTransformation_rect&#45;&gt;Core_Build_NaturalTransformation_ -->
<g id="edge8" class="edge"><title>Core_NaturalTransformation_rect&#45;&gt;Core_Build_NaturalTransformation_</title>
<path fill="none" stroke="black" d="M1175.56,-387.134C1203.2,-338.389 1277.73,-206.907 1310.35,-149.366"/>
<polygon fill="black" stroke="black" points="1313.51,-150.896 1315.4,-140.471 1307.42,-147.444 1313.51,-150.896"/>
</g>
<!-- Core_commutes_sym -->
<g id="node7" class="node"><title>Core_commutes_sym</title>
<a xlink:href="Core.html#commutes_sym" xlink:title="commutes_sym">
<ellipse fill="#f070d1" stroke="black" cx="746" cy="-718.768" rx="85.8106" ry="18.3848"/>
<ellipse fill="none" stroke="black" cx="746" cy="-718.768" rx="89.7894" ry="22.3848"/>
<ellipse fill="none" stroke="black" cx="746" cy="-718.768" rx="93.7683" ry="26.3848"/>
<text text-anchor="middle" x="746" y="-715.168" font-family="Times Roman,serif" font-size="14.00">commutes_sym</text>
</a>
</g>
<!-- Core_commutes -->
<g id="node8" class="node"><title>Core_commutes</title>
<a xlink:href="Core.html#commutes" xlink:title="commutes">
<ellipse fill="#f070d1" stroke="black" cx="565" cy="-718.768" rx="61.0757" ry="18.3848"/>
<ellipse fill="none" stroke="black" cx="565" cy="-718.768" rx="65.0469" ry="22.3848"/>
<ellipse fill="none" stroke="black" cx="565" cy="-718.768" rx="69.0182" ry="26.3848"/>
<text text-anchor="middle" x="565" y="-715.168" font-family="Times Roman,serif" font-size="14.00">commutes</text>
</a>
</g>
<!-- Core_components_of -->
<g id="node9" class="node"><title>Core_components_of</title>
<a xlink:href="Core.html#components_of" xlink:title="components_of">
<ellipse fill="#f070d1" stroke="black" cx="385" cy="-718.768" rx="84.8528" ry="18.3848"/>
<ellipse fill="none" stroke="black" cx="385" cy="-718.768" rx="88.8528" ry="22.3848"/>
<ellipse fill="none" stroke="black" cx="385" cy="-718.768" rx="92.8528" ry="26.3848"/>
<text text-anchor="middle" x="385" y="-715.168" font-family="Times Roman,serif" font-size="14.00">components_of</text>
</a>
</g>
<!-- Core_NaturalTransformation -->
<g id="node11" class="node"><title>Core_NaturalTransformation</title>
<a xlink:href="Core.html#NaturalTransformation" xlink:title="NaturalTransformation">
<ellipse fill="#e2cdfa" stroke="black" cx="145" cy="-718.768" rx="121.153" ry="18.3848"/>
<ellipse fill="none" stroke="black" cx="145" cy="-718.768" rx="125.137" ry="22.3848"/>
<ellipse fill="none" stroke="black" cx="145" cy="-718.768" rx="129.122" ry="26.3848"/>
<text text-anchor="middle" x="145" y="-715.168" font-family="Times Roman,serif" font-size="14.00">NaturalTransformation</text>
</a>
</g>
</g>
</svg>
