<?xml version="1.0" encoding="UTF-8" standalone="no"?>
<!DOCTYPE svg PUBLIC "-//W3C//DTD SVG 1.1//EN"
 "http://www.w3.org/Graphics/SVG/1.1/DTD/svg11.dtd">
<!-- Generated by graphviz version 2.39.20141222.0545 (20141222.0545)
 -->
<!-- Title: HoTT_categories_CategoryOfSections_Core Pages: 1 -->
<svg width="1416pt" height="712pt"
 viewBox="0.00 0.00 1416.00 712.00" xmlns="http://www.w3.org/2000/svg" xmlns:xlink="http://www.w3.org/1999/xlink">
<g id="graph0" class="graph" transform="scale(1 1) rotate(0) translate(4 708)">
<title>HoTT_categories_CategoryOfSections_Core</title>
<polygon fill="white" stroke="transparent" points="-4,4 -4,-708 1412,-708 1412,4 -4,4"/>
<g id="clust1" class="cluster"><title>cluster_Core</title>
<polygon fill="#ffffc3" stroke="black" points="8,-21.0936 8,-682.906 1400,-682.906 1400,-21.0936 8,-21.0936"/>
<text text-anchor="middle" x="29.5" y="-667.706" font-family="Times,serif" font-size="14.00">Core</text>
</g>
<!-- Core_isstrict_category_of_sections -->
<g id="node1" class="node"><title>Core_isstrict_category_of_sections</title>
<g id="a_node1"><a xlink:href="Core.html#isstrict_category_of_sections" xlink:title="isstrict_category_of_sections">
<ellipse fill="#facdef" stroke="black" cx="1271" cy="-533.094" rx="113.174" ry="18"/>
<ellipse fill="none" stroke="black" cx="1271" cy="-533.094" rx="117.177" ry="22"/>
<ellipse fill="none" stroke="black" cx="1271" cy="-533.094" rx="121.18" ry="26"/>
<text text-anchor="middle" x="1271" y="-529.394" font-family="Times,serif" font-size="14.00">isstrict_category_of_sections</text>
</a>
</g>
</g>
<!-- Core_SectionOfFunctor -->
<g id="node13" class="node"><title>Core_SectionOfFunctor</title>
<g id="a_node13"><a xlink:href="Core.html#SectionOfFunctor" xlink:title="SectionOfFunctor">
<ellipse fill="#e2cdfa" stroke="black" cx="1319" cy="-300.094" rx="73.387" ry="18"/>
<text text-anchor="middle" x="1319" y="-296.394" font-family="Times,serif" font-size="14.00">SectionOfFunctor</text>
</a>
</g>
</g>
<!-- Core_isstrict_category_of_sections&#45;&gt;Core_SectionOfFunctor -->
<g id="edge1" class="edge"><title>Core_isstrict_category_of_sections&#45;&gt;Core_SectionOfFunctor</title>
<path fill="none" stroke="black" d="M1276.41,-506.818C1285.51,-462.636 1303.81,-373.842 1313.18,-328.359"/>
<polygon fill="black" stroke="black" points="1316.66,-328.801 1315.25,-318.3 1309.8,-327.388 1316.66,-328.801"/>
</g>
<!-- Core_category_of_sections -->
<g id="node2" class="node"><title>Core_category_of_sections</title>
<g id="a_node2"><a xlink:href="Core.html#category_of_sections" xlink:title="category_of_sections">
<ellipse fill="#f070d1" stroke="black" cx="1039" cy="-533.094" rx="85.2729" ry="18"/>
<ellipse fill="none" stroke="black" cx="1039" cy="-533.094" rx="89.279" ry="22"/>
<ellipse fill="none" stroke="black" cx="1039" cy="-533.094" rx="93.2851" ry="26"/>
<text text-anchor="middle" x="1039" y="-529.394" font-family="Times,serif" font-size="14.00">category_of_sections</text>
</a>
</g>
</g>
<!-- Core_category_of_sections_subproof1 -->
<g id="node3" class="node"><title>Core_category_of_sections_subproof1</title>
<g id="a_node3"><a xlink:href="Core.html#category_of_sections_subproof1" xlink:title="category_of_sections_subproof1">
<ellipse fill="#facdef" stroke="black" cx="574" cy="-300.094" rx="125.378" ry="18"/>
<text text-anchor="middle" x="574" y="-296.394" font-family="Times,serif" font-size="14.00">category_of_sections_subproof1</text>
</a>
</g>
</g>
<!-- Core_category_of_sections&#45;&gt;Core_category_of_sections_subproof1 -->
<g id="edge2" class="edge"><title>Core_category_of_sections&#45;&gt;Core_category_of_sections_subproof1</title>
<path fill="none" stroke="black" d="M993.567,-510.328C904.047,-465.472 705.909,-366.19 617.761,-322.021"/>
<polygon fill="black" stroke="black" points="619.082,-318.768 608.574,-317.418 615.946,-325.027 619.082,-318.768"/>
</g>
<!-- Core_category_of_sections_subproof0 -->
<g id="node4" class="node"><title>Core_category_of_sections_subproof0</title>
<g id="a_node4"><a xlink:href="Core.html#category_of_sections_subproof0" xlink:title="category_of_sections_subproof0">
<ellipse fill="#facdef" stroke="black" cx="843" cy="-300.094" rx="125.378" ry="18"/>
<text text-anchor="middle" x="843" y="-296.394" font-family="Times,serif" font-size="14.00">category_of_sections_subproof0</text>
</a>
</g>
</g>
<!-- Core_category_of_sections&#45;&gt;Core_category_of_sections_subproof0 -->
<g id="edge3" class="edge"><title>Core_category_of_sections&#45;&gt;Core_category_of_sections_subproof0</title>
<path fill="none" stroke="black" d="M1017.65,-507.715C980.103,-463.079 902.643,-370.996 864.787,-325.993"/>
<polygon fill="black" stroke="black" points="867.313,-323.56 858.198,-318.16 861.957,-328.066 867.313,-323.56"/>
</g>
<!-- Core_category_of_sections_subproof -->
<g id="node5" class="node"><title>Core_category_of_sections_subproof</title>
<g id="a_node5"><a xlink:href="Core.html#category_of_sections_subproof" xlink:title="category_of_sections_subproof">
<ellipse fill="#facdef" stroke="black" cx="1107" cy="-300.094" rx="120.779" ry="18"/>
<text text-anchor="middle" x="1107" y="-296.394" font-family="Times,serif" font-size="14.00">category_of_sections_subproof</text>
</a>
</g>
</g>
<!-- Core_category_of_sections&#45;&gt;Core_category_of_sections_subproof -->
<g id="edge4" class="edge"><title>Core_category_of_sections&#45;&gt;Core_category_of_sections_subproof</title>
<path fill="none" stroke="black" d="M1046.67,-506.818C1059.59,-462.543 1085.59,-373.468 1098.83,-328.072"/>
<polygon fill="black" stroke="black" points="1102.24,-328.88 1101.69,-318.3 1095.53,-326.919 1102.24,-328.88"/>
</g>
<!-- Core_section_of_functor_sig -->
<g id="node6" class="node"><title>Core_section_of_functor_sig</title>
<g id="a_node6"><a xlink:href="Core.html#section_of_functor_sig" xlink:title="section_of_functor_sig">
<ellipse fill="#f070d1" stroke="black" cx="331" cy="-300.094" rx="91.7725" ry="18"/>
<ellipse fill="none" stroke="black" cx="331" cy="-300.094" rx="95.7782" ry="22"/>
<ellipse fill="none" stroke="black" cx="331" cy="-300.094" rx="99.7839" ry="26"/>
<text text-anchor="middle" x="331" y="-296.394" font-family="Times,serif" font-size="14.00">section_of_functor_sig</text>
</a>
</g>
</g>
<!-- Core_Build_SectionOfFunctor -->
<g id="node12" class="node"><title>Core_Build_SectionOfFunctor</title>
<g id="a_node12"><a xlink:href="Core.html#Build_SectionOfFunctor" xlink:title="Build_SectionOfFunctor">
<ellipse fill="#7faaff" stroke="black" cx="226" cy="-90.0936" rx="97.4827" ry="18"/>
<text text-anchor="middle" x="226" y="-86.3936" font-family="Times,serif" font-size="14.00">Build_SectionOfFunctor</text>
</a>
</g>
</g>
<!-- Core_section_of_functor_sig&#45;&gt;Core_Build_SectionOfFunctor -->
<g id="edge5" class="edge"><title>Core_section_of_functor_sig&#45;&gt;Core_Build_SectionOfFunctor</title>
<path fill="none" stroke="black" d="M317.914,-273.922C297.912,-233.918 259.924,-157.942 239.612,-117.318"/>
<polygon fill="black" stroke="black" points="242.689,-115.645 235.086,-108.266 236.428,-118.776 242.689,-115.645"/>
</g>
<!-- Core_SectionOfFunctor_rec -->
<g id="node7" class="node"><title>Core_SectionOfFunctor_rec</title>
<g id="a_node7"><a xlink:href="Core.html#SectionOfFunctor_rec" xlink:title="SectionOfFunctor_rec">
<ellipse fill="#f070d1" stroke="black" cx="831" cy="-533.094" rx="89.0807" ry="18"/>
<ellipse fill="none" stroke="black" cx="831" cy="-533.094" rx="93.0825" ry="22"/>
<ellipse fill="none" stroke="black" cx="831" cy="-533.094" rx="97.0842" ry="26"/>
<text text-anchor="middle" x="831" y="-529.394" font-family="Times,serif" font-size="14.00">SectionOfFunctor_rec</text>
</a>
</g>
</g>
<!-- Core_SectionOfFunctor_rect -->
<g id="node9" class="node"><title>Core_SectionOfFunctor_rect</title>
<g id="a_node9"><a xlink:href="Core.html#SectionOfFunctor_rect" xlink:title="SectionOfFunctor_rect">
<ellipse fill="#f070d1" stroke="black" cx="122" cy="-300.094" rx="90.9839" ry="18"/>
<text text-anchor="middle" x="122" y="-296.394" font-family="Times,serif" font-size="14.00">SectionOfFunctor_rect</text>
</a>
</g>
</g>
<!-- Core_SectionOfFunctor_rec&#45;&gt;Core_SectionOfFunctor_rect -->
<g id="edge6" class="edge"><title>Core_SectionOfFunctor_rec&#45;&gt;Core_SectionOfFunctor_rect</title>
<path fill="none" stroke="black" d="M769.63,-512.925C634.06,-468.373 310.672,-362.097 179.125,-318.867"/>
<polygon fill="black" stroke="black" points="179.834,-315.416 169.241,-315.619 177.648,-322.066 179.834,-315.416"/>
</g>
<!-- Core_SectionOfFunctor_ind -->
<g id="node8" class="node"><title>Core_SectionOfFunctor_ind</title>
<g id="a_node8"><a xlink:href="Core.html#SectionOfFunctor_ind" xlink:title="SectionOfFunctor_ind">
<ellipse fill="#7fffd4" stroke="black" cx="619" cy="-533.094" rx="89.0807" ry="18"/>
<ellipse fill="none" stroke="black" cx="619" cy="-533.094" rx="93.0825" ry="22"/>
<ellipse fill="none" stroke="black" cx="619" cy="-533.094" rx="97.0842" ry="26"/>
<text text-anchor="middle" x="619" y="-529.394" font-family="Times,serif" font-size="14.00">SectionOfFunctor_ind</text>
</a>
</g>
</g>
<!-- Core_SectionOfFunctor_ind&#45;&gt;Core_SectionOfFunctor_rect -->
<g id="edge7" class="edge"><title>Core_SectionOfFunctor_ind&#45;&gt;Core_SectionOfFunctor_rect</title>
<path fill="none" stroke="black" d="M570.441,-510.328C474.094,-465.16 260.033,-364.805 166.822,-321.107"/>
<polygon fill="black" stroke="black" points="168.196,-317.885 157.656,-316.809 165.224,-324.223 168.196,-317.885"/>
</g>
<!-- Core_SectionOfFunctor_rect&#45;&gt;Core_Build_SectionOfFunctor -->
<g id="edge8" class="edge"><title>Core_SectionOfFunctor_rect&#45;&gt;Core_Build_SectionOfFunctor</title>
<path fill="none" stroke="black" d="M131.047,-281.825C149.379,-244.809 190.989,-160.789 212.525,-117.304"/>
<polygon fill="black" stroke="black" points="215.746,-118.685 217.048,-108.171 209.473,-115.579 215.746,-118.685"/>
</g>
<!-- Core_section_of_functor_issect -->
<g id="node10" class="node"><title>Core_section_of_functor_issect</title>
<g id="a_node10"><a xlink:href="Core.html#section_of_functor_issect" xlink:title="section_of_functor_issect">
<ellipse fill="#f070d1" stroke="black" cx="395" cy="-533.094" rx="100.965" ry="18"/>
<ellipse fill="none" stroke="black" cx="395" cy="-533.094" rx="104.974" ry="22"/>
<ellipse fill="none" stroke="black" cx="395" cy="-533.094" rx="108.983" ry="26"/>
<text text-anchor="middle" x="395" y="-529.394" font-family="Times,serif" font-size="14.00">section_of_functor_issect</text>
</a>
</g>
</g>
<!-- Core_section_of_functor_morphism -->
<g id="node11" class="node"><title>Core_section_of_functor_morphism</title>
<g id="a_node11"><a xlink:href="Core.html#section_of_functor_morphism" xlink:title="section_of_functor_morphism">
<ellipse fill="#f070d1" stroke="black" cx="142" cy="-533.094" rx="118.093" ry="18"/>
<ellipse fill="none" stroke="black" cx="142" cy="-533.094" rx="122.086" ry="22"/>
<ellipse fill="none" stroke="black" cx="142" cy="-533.094" rx="126.079" ry="26"/>
<text text-anchor="middle" x="142" y="-529.394" font-family="Times,serif" font-size="14.00">section_of_functor_morphism</text>
</a>
</g>
</g>
</g>
</svg>
