<?xml version="1.0" encoding="UTF-8" standalone="no"?>
<!DOCTYPE svg PUBLIC "-//W3C//DTD SVG 1.1//EN"
 "http://www.w3.org/Graphics/SVG/1.1/DTD/svg11.dtd">
<!-- Generated by graphviz version 2.26.3 (20100126.1600)
 -->
<!-- Title: HoTT_categories_Functor_Composition Pages: 1 -->
<svg width="6832pt" height="3420pt"
 viewBox="0.00 0.00 6832.00 3420.00" xmlns="http://www.w3.org/2000/svg" xmlns:xlink="http://www.w3.org/1999/xlink">
<g id="graph1" class="graph" transform="scale(1 1) rotate(0) translate(4 3416)">
<title>HoTT_categories_Functor_Composition</title>
<polygon fill="white" stroke="white" points="-4,5 -4,-3416 6829,-3416 6829,5 -4,5"/>
<g id="graph2" class="cluster"><title>cluster_Laws</title>
<polygon fill="#ffffc3" stroke="black" points="2780,-1816.63 2780,-2759.88 3868,-2759.88 3868,-1816.63 2780,-1816.63"/>
<text text-anchor="middle" x="2806.5" y="-2743.28" font-family="Times Roman,serif" font-size="14.00">Laws</text>
</g>
<g id="graph3" class="cluster"><title>cluster_Attributes</title>
<polygon fill="#ffffc3" stroke="black" points="2130,-1816.63 2130,-2759.88 2702,-2759.88 2702,-1816.63 2130,-1816.63"/>
<text text-anchor="middle" x="2173" y="-2743.28" font-family="Times Roman,serif" font-size="14.00">Attributes</text>
</g>
<g id="graph4" class="cluster"><title>cluster_Functorial</title>
<polygon fill="#ffffc3" stroke="black" points="760,-908.314 760,-3365.42 2092,-3365.42 2092,-908.314 760,-908.314"/>
<text text-anchor="middle" x="802.5" y="-3348.82" font-family="Times Roman,serif" font-size="14.00">Functorial</text>
</g>
<g id="graph5" class="cluster"><title>cluster_Composition</title>
<polygon fill="#ffffc3" stroke="black" points="3876,-908.314 3876,-3365.42 6816,-3365.42 6816,-908.314 3876,-908.314"/>
<text text-anchor="middle" x="3926.5" y="-3348.82" font-family="Times Roman,serif" font-size="14.00">Composition</text>
</g>
<g id="graph6" class="cluster"><title>cluster_Core</title>
<polygon fill="#ffffc3" stroke="black" points="8,-46.5802 8,-2806.46 752,-2806.46 752,-46.5802 8,-46.5802"/>
<text text-anchor="middle" x="32.5" y="-2789.86" font-family="Times Roman,serif" font-size="14.00">Core</text>
</g>
<g id="graph7" class="cluster"><title>cluster_Functor</title>
<polygon fill="#ffffc3" stroke="black" points="2955,-815.154 2955,-1770.05 3109,-1770.05 3109,-815.154 2955,-815.154"/>
<text text-anchor="middle" x="2989.5" y="-1753.45" font-family="Times Roman,serif" font-size="14.00">Functor</text>
</g>
<g id="graph8" class="cluster"><title>cluster_Functor_Composition</title>
<polygon fill="#ffffa3" stroke="black" points="2963,-861.734 2963,-1572.08 3101,-1572.08 3101,-861.734 2963,-861.734"/>
<text text-anchor="middle" x="3013.5" y="-1555.48" font-family="Times Roman,serif" font-size="14.00">Composition</text>
</g>
<g id="graph9" class="cluster"><title>cluster_Functor_Composition_Core</title>
<polygon fill="#ffff83" stroke="black" points="2971,-908.314 2971,-1374.12 3093,-1374.12 3093,-908.314 2971,-908.314"/>
<text text-anchor="middle" x="2995.5" y="-1357.52" font-family="Times Roman,serif" font-size="14.00">Core</text>
</g>
<!-- Laws_pentagon -->
<g id="node1" class="node"><title>Laws_pentagon</title>
<a xlink:href="Laws.html#pentagon" xlink:title="pentagon">
<ellipse fill="#facdef" stroke="black" cx="3789" cy="-2451.58" rx="57.9828" ry="18.3848"/>
<text text-anchor="middle" x="3789" y="-2447.98" font-family="Times Roman,serif" font-size="14.00">pentagon</text>
</a>
</g>
<!-- Laws_associativity_fst -->
<g id="node3" class="node"><title>Laws_associativity_fst</title>
<a xlink:href="Laws.html#associativity_fst" xlink:title="associativity_fst">
<ellipse fill="#f070d1" stroke="black" cx="3611" cy="-1973.58" rx="89.0955" ry="18.3848"/>
<text text-anchor="middle" x="3611" y="-1969.98" font-family="Times Roman,serif" font-size="14.00">associativity_fst</text>
</a>
</g>
<!-- Laws_pentagon&#45;&gt;Laws_associativity_fst -->
<g id="edge2" class="edge"><title>Laws_pentagon&#45;&gt;Laws_associativity_fst</title>
<path fill="none" stroke="black" d="M3782.13,-2433.13C3754.91,-2360.02 3654.46,-2090.28 3621.53,-2001.86"/>
<polygon fill="black" stroke="black" points="3624.71,-2000.38 3617.94,-1992.23 3618.15,-2002.82 3624.71,-2000.38"/>
</g>
<!-- Laws_associativity -->
<g id="node4" class="node"><title>Laws_associativity</title>
<a xlink:href="Laws.html#associativity" xlink:title="associativity">
<ellipse fill="#f070d1" stroke="black" cx="3789" cy="-1973.58" rx="70.9184" ry="18.3848"/>
<text text-anchor="middle" x="3789" y="-1969.98" font-family="Times Roman,serif" font-size="14.00">associativity</text>
</a>
</g>
<!-- Laws_pentagon&#45;&gt;Laws_associativity -->
<g id="edge4" class="edge"><title>Laws_pentagon&#45;&gt;Laws_associativity</title>
<path fill="none" stroke="black" d="M3789,-2432.84C3789,-2359.44 3789,-2091.14 3789,-2002.34"/>
<polygon fill="black" stroke="black" points="3792.5,-2002.19 3789,-1992.19 3785.5,-2002.19 3792.5,-2002.19"/>
</g>
<!-- Laws_triangle -->
<g id="node2" class="node"><title>Laws_triangle</title>
<a xlink:href="Laws.html#triangle" xlink:title="triangle">
<ellipse fill="#facdef" stroke="black" cx="3416" cy="-2451.58" rx="48.9975" ry="18.3848"/>
<text text-anchor="middle" x="3416" y="-2447.98" font-family="Times Roman,serif" font-size="14.00">triangle</text>
</a>
</g>
<!-- Laws_triangle&#45;&gt;Laws_associativity_fst -->
<g id="edge6" class="edge"><title>Laws_triangle&#45;&gt;Laws_associativity_fst</title>
<path fill="none" stroke="black" d="M3423.52,-2433.13C3453.38,-2359.95 3563.62,-2089.73 3599.57,-2001.59"/>
<polygon fill="black" stroke="black" points="3602.86,-2002.81 3603.39,-1992.23 3596.37,-2000.17 3602.86,-2002.81"/>
</g>
<!-- Laws_triangle&#45;&gt;Laws_associativity -->
<g id="edge8" class="edge"><title>Laws_triangle&#45;&gt;Laws_associativity</title>
<path fill="none" stroke="black" d="M3429.94,-2433.71C3486.77,-2360.89 3701.11,-2086.22 3768.55,-1999.78"/>
<polygon fill="black" stroke="black" points="3771.4,-2001.83 3774.79,-1991.79 3765.88,-1997.52 3771.4,-2001.83"/>
</g>
<!-- Laws_right_identity_fst -->
<g id="node5" class="node"><title>Laws_right_identity_fst</title>
<a xlink:href="Laws.html#right_identity_fst" xlink:title="right_identity_fst">
<ellipse fill="#f070d1" stroke="black" cx="3215" cy="-1973.58" rx="94.9596" ry="18.3848"/>
<text text-anchor="middle" x="3215" y="-1969.98" font-family="Times Roman,serif" font-size="14.00">right_identity_fst</text>
</a>
</g>
<!-- Laws_triangle&#45;&gt;Laws_right_identity_fst -->
<g id="edge10" class="edge"><title>Laws_triangle&#45;&gt;Laws_right_identity_fst</title>
<path fill="none" stroke="black" d="M3408.24,-2433.13C3377.47,-2359.95 3263.84,-2089.73 3226.78,-2001.59"/>
<polygon fill="black" stroke="black" points="3229.94,-2000.09 3222.84,-1992.23 3223.49,-2002.8 3229.94,-2000.09"/>
</g>
<!-- Laws_left_identity_fst -->
<g id="node6" class="node"><title>Laws_left_identity_fst</title>
<a xlink:href="Laws.html#left_identity_fst" xlink:title="left_identity_fst">
<ellipse fill="#f070d1" stroke="black" cx="3416" cy="-1973.58" rx="87.889" ry="18.3848"/>
<text text-anchor="middle" x="3416" y="-1969.98" font-family="Times Roman,serif" font-size="14.00">left_identity_fst</text>
</a>
</g>
<!-- Laws_triangle&#45;&gt;Laws_left_identity_fst -->
<g id="edge12" class="edge"><title>Laws_triangle&#45;&gt;Laws_left_identity_fst</title>
<path fill="none" stroke="black" d="M3416,-2432.84C3416,-2359.44 3416,-2091.14 3416,-2002.34"/>
<polygon fill="black" stroke="black" points="3419.5,-2002.19 3416,-1992.19 3412.5,-2002.19 3419.5,-2002.19"/>
</g>
<!-- Laws_right_identity -->
<g id="node7" class="node"><title>Laws_right_identity</title>
<a xlink:href="Laws.html#right_identity" xlink:title="right_identity">
<ellipse fill="#f070d1" stroke="black" cx="2866" cy="-1973.58" rx="77.7817" ry="18.3848"/>
<text text-anchor="middle" x="2866" y="-1969.98" font-family="Times Roman,serif" font-size="14.00">right_identity</text>
</a>
</g>
<!-- Laws_triangle&#45;&gt;Laws_right_identity -->
<g id="edge14" class="edge"><title>Laws_triangle&#45;&gt;Laws_right_identity</title>
<path fill="none" stroke="black" d="M3396.43,-2434.57C3313.69,-2362.66 2992.46,-2083.49 2894.51,-1998.36"/>
<polygon fill="black" stroke="black" points="2896.64,-1995.57 2886.79,-1991.65 2892.04,-2000.85 2896.64,-1995.57"/>
</g>
<!-- Laws_left_identity -->
<g id="node8" class="node"><title>Laws_left_identity</title>
<a xlink:href="Laws.html#left_identity" xlink:title="left_identity">
<ellipse fill="#f070d1" stroke="black" cx="3032" cy="-1973.58" rx="70.2092" ry="18.3848"/>
<text text-anchor="middle" x="3032" y="-1969.98" font-family="Times Roman,serif" font-size="14.00">left_identity</text>
</a>
</g>
<!-- Laws_triangle&#45;&gt;Laws_left_identity -->
<g id="edge16" class="edge"><title>Laws_triangle&#45;&gt;Laws_left_identity</title>
<path fill="none" stroke="black" d="M3401.65,-2433.71C3343.14,-2360.89 3122.48,-2086.22 3053.05,-1999.78"/>
<polygon fill="black" stroke="black" points="3055.62,-1997.4 3046.63,-1991.79 3050.16,-2001.78 3055.62,-1997.4"/>
</g>
<!-- Functor_Composition_Core_compose -->
<g id="node23" class="node"><title>Functor_Composition_Core_compose</title>
<a xlink:href="Functor.html#Composition.Core.compose" xlink:title="compose">
<ellipse fill="#f070d1" stroke="black" cx="3032" cy="-1065.58" rx="53.2379" ry="18.3848"/>
<text text-anchor="middle" x="3032" y="-1061.98" font-family="Times Roman,serif" font-size="14.00">compose</text>
</a>
</g>
<!-- Laws_associativity_fst&#45;&gt;Functor_Composition_Core_compose -->
<g id="edge18" class="edge"><title>Laws_associativity_fst&#45;&gt;Functor_Composition_Core_compose</title>
<path fill="none" stroke="black" d="M3599.17,-1955.03C3526.04,-1840.34 3135.72,-1228.23 3049.05,-1092.33"/>
<polygon fill="black" stroke="black" points="3051.9,-1090.27 3043.57,-1083.72 3045.99,-1094.04 3051.9,-1090.27"/>
</g>
<!-- Laws_associativity&#45;&gt;Functor_Composition_Core_compose -->
<g id="edge20" class="edge"><title>Laws_associativity&#45;&gt;Functor_Composition_Core_compose</title>
<path fill="none" stroke="black" d="M3773.88,-1955.44C3678.87,-1841.48 3164.73,-1224.79 3053.31,-1091.14"/>
<polygon fill="black" stroke="black" points="3055.94,-1088.83 3046.85,-1083.39 3050.56,-1093.31 3055.94,-1088.83"/>
</g>
<!-- Laws_right_identity_fst&#45;&gt;Functor_Composition_Core_compose -->
<g id="edge22" class="edge"><title>Laws_right_identity_fst&#45;&gt;Functor_Composition_Core_compose</title>
<path fill="none" stroke="black" d="M3211.26,-1955.03C3188.24,-1840.81 3065.78,-1233.21 3037.73,-1094.01"/>
<polygon fill="black" stroke="black" points="3041.14,-1093.21 3035.73,-1084.1 3034.28,-1094.59 3041.14,-1093.21"/>
</g>
<!-- Laws_left_identity_fst&#45;&gt;Functor_Composition_Core_compose -->
<g id="edge24" class="edge"><title>Laws_left_identity_fst&#45;&gt;Functor_Composition_Core_compose</title>
<path fill="none" stroke="black" d="M3408.16,-1955.03C3359.8,-1840.69 3102.38,-1231.99 3043.85,-1093.59"/>
<polygon fill="black" stroke="black" points="3046.95,-1091.95 3039.83,-1084.1 3040.5,-1094.67 3046.95,-1091.95"/>
</g>
<!-- Laws_right_identity&#45;&gt;Functor_Composition_Core_compose -->
<g id="edge26" class="edge"><title>Laws_right_identity&#45;&gt;Functor_Composition_Core_compose</title>
<path fill="none" stroke="black" d="M2869.39,-1955.03C2890.27,-1840.81 3001.35,-1233.21 3026.8,-1094.01"/>
<polygon fill="black" stroke="black" points="3030.26,-1094.57 3028.61,-1084.1 3023.37,-1093.31 3030.26,-1094.57"/>
</g>
<!-- Laws_left_identity&#45;&gt;Functor_Composition_Core_compose -->
<g id="edge28" class="edge"><title>Laws_left_identity&#45;&gt;Functor_Composition_Core_compose</title>
<path fill="none" stroke="black" d="M3032,-1955.03C3032,-1840.92 3032,-1234.42 3032,-1094.43"/>
<polygon fill="black" stroke="black" points="3035.5,-1094.1 3032,-1084.1 3028.5,-1094.1 3035.5,-1094.1"/>
</g>
<!-- Functorial_isfaithful_precomposition_essentially_surjective -->
<g id="node9" class="node"><title>Functorial_isfaithful_precomposition_essentially_surjective</title>
<a xlink:href="Functorial.html#isfaithful_precomposition_essentially_surjective" xlink:title="isfaithful_precomposition_essentially_surjective">
<ellipse fill="#f070d1" stroke="black" cx="1834" cy="-3010.58" rx="241.831" ry="18.3848"/>
<ellipse fill="none" stroke="black" cx="1834" cy="-3010.58" rx="245.831" ry="22.3848"/>
<ellipse fill="none" stroke="black" cx="1834" cy="-3010.58" rx="249.831" ry="26.3848"/>
<text text-anchor="middle" x="1834" y="-3006.98" font-family="Times Roman,serif" font-size="14.00">isfaithful_precomposition_essentially_surjective</text>
</a>
</g>
<!-- Attributes_isfaithful_precomposition_essentially_surjective -->
<g id="node45" class="node"><title>Attributes_isfaithful_precomposition_essentially_surjective</title>
<a xlink:href="Attributes.html#isfaithful_precomposition_essentially_surjective" xlink:title="isfaithful_precomposition_essentially_surjective">
<ellipse fill="#facdef" stroke="black" cx="2414" cy="-2451.58" rx="241.831" ry="18.3848"/>
<text text-anchor="middle" x="2414" y="-2447.98" font-family="Times Roman,serif" font-size="14.00">isfaithful_precomposition_essentially_surjective</text>
</a>
</g>
<!-- Functorial_isfaithful_precomposition_essentially_surjective&#45;&gt;Attributes_isfaithful_precomposition_essentially_surjective -->
<g id="edge30" class="edge"><title>Functorial_isfaithful_precomposition_essentially_surjective&#45;&gt;Attributes_isfaithful_precomposition_essentially_surjective</title>
<path fill="none" stroke="black" d="M1861.58,-2983.99C1959.67,-2889.46 2290.86,-2570.26 2387.39,-2477.23"/>
<polygon fill="black" stroke="black" points="2389.93,-2479.64 2394.7,-2470.18 2385.08,-2474.6 2389.93,-2479.64"/>
</g>
<!-- Functorial_isfaithful_precomposition_essentially_surjective_helper -->
<g id="node10" class="node"><title>Functorial_isfaithful_precomposition_essentially_surjective_helper</title>
<a xlink:href="Functorial.html#isfaithful_precomposition_essentially_surjective_helper" xlink:title="isfaithful_precomposition_essentially_surjective_helper">
<ellipse fill="#f070d1" stroke="black" cx="1280" cy="-3010.58" rx="277.893" ry="18.3848"/>
<ellipse fill="none" stroke="black" cx="1280" cy="-3010.58" rx="281.893" ry="22.3848"/>
<ellipse fill="none" stroke="black" cx="1280" cy="-3010.58" rx="285.893" ry="26.3848"/>
<text text-anchor="middle" x="1280" y="-3006.98" font-family="Times Roman,serif" font-size="14.00">isfaithful_precomposition_essentially_surjective_helper</text>
</a>
</g>
<!-- Attributes_isfaithful_precomposition_essentially_surjective_helper -->
<g id="node46" class="node"><title>Attributes_isfaithful_precomposition_essentially_surjective_helper</title>
<a xlink:href="Attributes.html#isfaithful_precomposition_essentially_surjective_helper" xlink:title="isfaithful_precomposition_essentially_surjective_helper">
<ellipse fill="#facdef" stroke="black" cx="2416" cy="-1973.58" rx="277.893" ry="18.3848"/>
<text text-anchor="middle" x="2416" y="-1969.98" font-family="Times Roman,serif" font-size="14.00">isfaithful_precomposition_essentially_surjective_helper</text>
</a>
</g>
<!-- Functorial_isfaithful_precomposition_essentially_surjective_helper&#45;&gt;Attributes_isfaithful_precomposition_essentially_surjective_helper -->
<g id="edge32" class="edge"><title>Functorial_isfaithful_precomposition_essentially_surjective_helper&#45;&gt;Attributes_isfaithful_precomposition_essentially_surjective_helper</title>
<path fill="none" stroke="black" d="M1308.94,-2984.17C1467.63,-2839.31 2230.84,-2142.6 2387.76,-1999.36"/>
<polygon fill="black" stroke="black" points="2390.57,-2001.54 2395.59,-1992.21 2385.85,-1996.37 2390.57,-2001.54"/>
</g>
<!-- Functorial_compose_functor_ -->
<g id="node11" class="node"><title>Functorial_compose_functor_</title>
<a xlink:href="Functorial.html#compose_functor&#39;" xlink:title="compose_functor&#39;">
<ellipse fill="#f070d1" stroke="black" cx="872" cy="-3010.58" rx="96.1665" ry="18.3848"/>
<ellipse fill="none" stroke="black" cx="872" cy="-3010.58" rx="100.167" ry="22.3848"/>
<ellipse fill="none" stroke="black" cx="872" cy="-3010.58" rx="104.167" ry="26.3848"/>
<text text-anchor="middle" x="872" y="-3006.98" font-family="Times Roman,serif" font-size="14.00">compose_functor&#39;</text>
</a>
</g>
<!-- Functorial_compose_functor_uncurried -->
<g id="node12" class="node"><title>Functorial_compose_functor_uncurried</title>
<a xlink:href="Functorial.html#compose_functor_uncurried" xlink:title="compose_functor_uncurried">
<ellipse fill="#f070d1" stroke="black" cx="1010" cy="-2451.58" rx="145.163" ry="18.3848"/>
<text text-anchor="middle" x="1010" y="-2447.98" font-family="Times Roman,serif" font-size="14.00">compose_functor_uncurried</text>
</a>
</g>
<!-- Functorial_compose_functor_&#45;&gt;Functorial_compose_functor_uncurried -->
<g id="edge34" class="edge"><title>Functorial_compose_functor_&#45;&gt;Functorial_compose_functor_uncurried</title>
<path fill="none" stroke="black" d="M878.563,-2983.99C901.667,-2890.41 979.126,-2576.64 1002.96,-2480.1"/>
<polygon fill="black" stroke="black" points="1006.41,-2480.72 1005.41,-2470.18 999.614,-2479.05 1006.41,-2480.72"/>
</g>
<!-- Functorial_compose_functor -->
<g id="node13" class="node"><title>Functorial_compose_functor</title>
<a xlink:href="Functorial.html#compose_functor" xlink:title="compose_functor">
<ellipse fill="#f070d1" stroke="black" cx="1119" cy="-1973.58" rx="94.0452" ry="18.3848"/>
<text text-anchor="middle" x="1119" y="-1969.98" font-family="Times Roman,serif" font-size="14.00">compose_functor</text>
</a>
</g>
<!-- Functorial_compose_functor_uncurried&#45;&gt;Functorial_compose_functor -->
<g id="edge36" class="edge"><title>Functorial_compose_functor_uncurried&#45;&gt;Functorial_compose_functor</title>
<path fill="none" stroke="black" d="M1014.27,-2432.84C1031.03,-2359.36 1092.32,-2090.59 1112.5,-2002.07"/>
<polygon fill="black" stroke="black" points="1115.95,-2002.72 1114.76,-1992.19 1109.12,-2001.16 1115.95,-2002.72"/>
</g>
<!-- Functorial_compose_functor_subproof0 -->
<g id="node14" class="node"><title>Functorial_compose_functor_subproof0</title>
<a xlink:href="Functorial.html#compose_functor_subproof0" xlink:title="compose_functor_subproof0">
<ellipse fill="#f070d1" stroke="black" cx="1556" cy="-1065.58" rx="147.785" ry="18.3848"/>
<text text-anchor="middle" x="1556" y="-1061.98" font-family="Times Roman,serif" font-size="14.00">compose_functor_subproof0</text>
</a>
</g>
<!-- Functorial_compose_functor&#45;&gt;Functorial_compose_functor_subproof0 -->
<g id="edge38" class="edge"><title>Functorial_compose_functor&#45;&gt;Functorial_compose_functor_subproof0</title>
<path fill="none" stroke="black" d="M1127.93,-1955.03C1183.01,-1840.58 1476.5,-1230.77 1542.72,-1093.18"/>
<polygon fill="black" stroke="black" points="1545.9,-1094.63 1547.09,-1084.1 1539.6,-1091.59 1545.9,-1094.63"/>
</g>
<!-- Functorial_compose_functor_subproof -->
<g id="node15" class="node"><title>Functorial_compose_functor_subproof</title>
<a xlink:href="Functorial.html#compose_functor_subproof" xlink:title="compose_functor_subproof">
<ellipse fill="#f070d1" stroke="black" cx="909" cy="-1065.58" rx="140.922" ry="18.3848"/>
<text text-anchor="middle" x="909" y="-1061.98" font-family="Times Roman,serif" font-size="14.00">compose_functor_subproof</text>
</a>
</g>
<!-- Functorial_compose_functor&#45;&gt;Functorial_compose_functor_subproof -->
<g id="edge40" class="edge"><title>Functorial_compose_functor&#45;&gt;Functorial_compose_functor_subproof</title>
<path fill="none" stroke="black" d="M1114.71,-1955.03C1088.29,-1840.81 947.768,-1233.21 915.575,-1094.01"/>
<polygon fill="black" stroke="black" points="918.947,-1093.05 913.283,-1084.1 912.127,-1094.63 918.947,-1093.05"/>
</g>
<!-- Functorial_compose_functor_morphism_of -->
<g id="node16" class="node"><title>Functorial_compose_functor_morphism_of</title>
<a xlink:href="Functorial.html#compose_functor_morphism_of" xlink:title="compose_functor_morphism_of">
<ellipse fill="#f070d1" stroke="black" cx="1229" cy="-1065.58" rx="161.22" ry="18.3848"/>
<text text-anchor="middle" x="1229" y="-1061.98" font-family="Times Roman,serif" font-size="14.00">compose_functor_morphism_of</text>
</a>
</g>
<!-- Functorial_compose_functor&#45;&gt;Functorial_compose_functor_morphism_of -->
<g id="edge42" class="edge"><title>Functorial_compose_functor&#45;&gt;Functorial_compose_functor_morphism_of</title>
<path fill="none" stroke="black" d="M1121.25,-1955.03C1135.07,-1840.92 1208.55,-1234.42 1225.51,-1094.43"/>
<polygon fill="black" stroke="black" points="1229.03,-1094.45 1226.76,-1084.1 1222.08,-1093.61 1229.03,-1094.45"/>
</g>
<!-- Core_compose_functor_subproof0 -->
<g id="node20" class="node"><title>Core_compose_functor_subproof0</title>
<a xlink:href="Core.html#compose_functor_subproof0" xlink:title="compose_functor_subproof0">
<ellipse fill="#facdef" stroke="black" cx="596" cy="-634.58" rx="147.785" ry="18.3848"/>
<text text-anchor="middle" x="596" y="-630.98" font-family="Times Roman,serif" font-size="14.00">compose_functor_subproof0</text>
</a>
</g>
<!-- Functorial_compose_functor_subproof0&#45;&gt;Core_compose_functor_subproof0 -->
<g id="edge44" class="edge"><title>Functorial_compose_functor_subproof0&#45;&gt;Core_compose_functor_subproof0</title>
<path fill="none" stroke="black" d="M1516.28,-1047.75C1363.45,-979.134 813.613,-732.279 645.307,-656.717"/>
<polygon fill="black" stroke="black" points="646.265,-653.311 635.709,-652.408 643.398,-659.697 646.265,-653.311"/>
</g>
<!-- Core_compose_functor_subproof -->
<g id="node21" class="node"><title>Core_compose_functor_subproof</title>
<a xlink:href="Core.html#compose_functor_subproof" xlink:title="compose_functor_subproof">
<ellipse fill="#facdef" stroke="black" cx="289" cy="-634.58" rx="140.922" ry="18.3848"/>
<text text-anchor="middle" x="289" y="-630.98" font-family="Times Roman,serif" font-size="14.00">compose_functor_subproof</text>
</a>
</g>
<!-- Functorial_compose_functor_subproof&#45;&gt;Core_compose_functor_subproof -->
<g id="edge46" class="edge"><title>Functorial_compose_functor_subproof&#45;&gt;Core_compose_functor_subproof</title>
<path fill="none" stroke="black" d="M882.755,-1047.34C784.03,-978.706 434.92,-736.018 323.469,-658.542"/>
<polygon fill="black" stroke="black" points="325.46,-655.663 315.251,-652.829 321.464,-661.411 325.46,-655.663"/>
</g>
<!-- Core_compose_functor_ -->
<g id="node17" class="node"><title>Core_compose_functor_</title>
<a xlink:href="Core.html#compose_functor&#39;" xlink:title="compose_functor&#39;">
<ellipse fill="#f070d1" stroke="black" cx="120" cy="-2451.58" rx="96.1665" ry="18.3848"/>
<ellipse fill="none" stroke="black" cx="120" cy="-2451.58" rx="100.167" ry="22.3848"/>
<ellipse fill="none" stroke="black" cx="120" cy="-2451.58" rx="104.167" ry="26.3848"/>
<text text-anchor="middle" x="120" y="-2447.98" font-family="Times Roman,serif" font-size="14.00">compose_functor&#39;</text>
</a>
</g>
<!-- Core_compose_functor_uncurried -->
<g id="node18" class="node"><title>Core_compose_functor_uncurried</title>
<a xlink:href="Core.html#compose_functor_uncurried" xlink:title="compose_functor_uncurried">
<ellipse fill="#f070d1" stroke="black" cx="225" cy="-1973.58" rx="145.163" ry="18.3848"/>
<text text-anchor="middle" x="225" y="-1969.98" font-family="Times Roman,serif" font-size="14.00">compose_functor_uncurried</text>
</a>
</g>
<!-- Core_compose_functor_&#45;&gt;Core_compose_functor_uncurried -->
<g id="edge48" class="edge"><title>Core_compose_functor_&#45;&gt;Core_compose_functor_uncurried</title>
<path fill="none" stroke="black" d="M125.87,-2424.86C144.154,-2341.62 199.974,-2087.51 218.757,-2002"/>
<polygon fill="black" stroke="black" points="222.182,-2002.72 220.909,-1992.21 215.345,-2001.22 222.182,-2002.72"/>
</g>
<!-- Core_compose_functor -->
<g id="node19" class="node"><title>Core_compose_functor</title>
<a xlink:href="Core.html#compose_functor" xlink:title="compose_functor">
<ellipse fill="#f070d1" stroke="black" cx="289" cy="-1065.58" rx="94.0452" ry="18.3848"/>
<text text-anchor="middle" x="289" y="-1061.98" font-family="Times Roman,serif" font-size="14.00">compose_functor</text>
</a>
</g>
<!-- Core_compose_functor_uncurried&#45;&gt;Core_compose_functor -->
<g id="edge50" class="edge"><title>Core_compose_functor_uncurried&#45;&gt;Core_compose_functor</title>
<path fill="none" stroke="black" d="M226.307,-1955.03C234.35,-1840.92 277.099,-1234.42 286.967,-1094.43"/>
<polygon fill="black" stroke="black" points="290.483,-1094.32 287.695,-1084.1 283.5,-1093.83 290.483,-1094.32"/>
</g>
<!-- Core_compose_functor&#45;&gt;Core_compose_functor_subproof0 -->
<g id="edge52" class="edge"><title>Core_compose_functor&#45;&gt;Core_compose_functor_subproof0</title>
<path fill="none" stroke="black" d="M302.191,-1047.06C350.705,-978.952 519.379,-742.149 576.736,-661.626"/>
<polygon fill="black" stroke="black" points="579.907,-663.206 582.858,-653.031 574.205,-659.145 579.907,-663.206"/>
</g>
<!-- Core_compose_functor&#45;&gt;Core_compose_functor_subproof -->
<g id="edge54" class="edge"><title>Core_compose_functor&#45;&gt;Core_compose_functor_subproof</title>
<path fill="none" stroke="black" d="M289,-1047.06C289,-979.52 289,-746.092 289,-663.675"/>
<polygon fill="black" stroke="black" points="292.5,-663.516 289,-653.516 285.5,-663.516 292.5,-663.516"/>
</g>
<!-- Core_compose_functor_morphism_of -->
<g id="node22" class="node"><title>Core_compose_functor_morphism_of</title>
<a xlink:href="Core.html#compose_functor_morphism_of" xlink:title="compose_functor_morphism_of">
<ellipse fill="#f070d1" stroke="black" cx="436" cy="-203.58" rx="161.22" ry="18.3848"/>
<text text-anchor="middle" x="436" y="-199.98" font-family="Times Roman,serif" font-size="14.00">compose_functor_morphism_of</text>
</a>
</g>
<!-- Core_compose_functor_subproof0&#45;&gt;Core_compose_functor_morphism_of -->
<g id="edge56" class="edge"><title>Core_compose_functor_subproof0&#45;&gt;Core_compose_functor_morphism_of</title>
<path fill="none" stroke="black" d="M589.125,-616.061C563.975,-548.314 476.865,-313.661 446.522,-231.923"/>
<polygon fill="black" stroke="black" points="449.791,-230.673 443.03,-222.516 443.229,-233.109 449.791,-230.673"/>
</g>
<!-- Core_compose_functor_subproof0&#45;&gt;Functor_Composition_Core_compose -->
<g id="edge58" class="edge"><title>Core_compose_functor_subproof0&#45;&gt;Functor_Composition_Core_compose</title>
<path fill="none" stroke="black" d="M681.431,-649.696C1068.47,-718.173 2652.5,-998.435 2974.66,-1055.43"/>
<polygon fill="black" stroke="black" points="2974.25,-1058.92 2984.7,-1057.21 2975.47,-1052.02 2974.25,-1058.92"/>
</g>
<!-- Core_compose_functor_subproof&#45;&gt;Core_compose_functor_morphism_of -->
<g id="edge60" class="edge"><title>Core_compose_functor_subproof&#45;&gt;Core_compose_functor_morphism_of</title>
<path fill="none" stroke="black" d="M295.316,-616.061C318.399,-548.382 398.292,-314.138 426.248,-232.173"/>
<polygon fill="black" stroke="black" points="429.626,-233.111 429.542,-222.516 423.001,-230.851 429.626,-233.111"/>
</g>
<!-- Core_compose_functor_subproof&#45;&gt;Functor_Composition_Core_compose -->
<g id="edge62" class="edge"><title>Core_compose_functor_subproof&#45;&gt;Functor_Composition_Core_compose</title>
<path fill="none" stroke="black" d="M379.418,-648.787C807.447,-716.042 2623.86,-1001.45 2973.6,-1056.4"/>
<polygon fill="black" stroke="black" points="2973.1,-1059.87 2983.52,-1057.96 2974.18,-1052.95 2973.1,-1059.87"/>
</g>
<!-- Core_compose_identity_of -->
<g id="node24" class="node"><title>Core_compose_identity_of</title>
<a xlink:href="Core.html#compose_identity_of" xlink:title="compose_identity_of">
<ellipse fill="#f070d1" stroke="black" cx="353" cy="-2451.58" rx="111.016" ry="18.3848"/>
<text text-anchor="middle" x="353" y="-2447.98" font-family="Times Roman,serif" font-size="14.00">compose_identity_of</text>
</a>
</g>
<!-- Functor_Composition_Core_compose&#45;&gt;Core_compose_identity_of -->
<g id="edge64" class="edge"><title>Functor_Composition_Core_compose&#45;&gt;Core_compose_identity_of</title>
<path fill="none" stroke="black" d="M2985.05,-1074.22C2734.32,-1122.14 1535.57,-1374.24 756,-1946.58 564.464,-2087.2 413.968,-2340.89 367.742,-2424.23"/>
<polygon fill="black" stroke="black" points="364.621,-2422.64 362.866,-2433.09 370.754,-2426.02 364.621,-2422.64"/>
</g>
<!-- Core_compose_composition_of -->
<g id="node25" class="node"><title>Core_compose_composition_of</title>
<a xlink:href="Core.html#compose_composition_of" xlink:title="compose_composition_of">
<ellipse fill="#f070d1" stroke="black" cx="613" cy="-2451.58" rx="130.815" ry="18.3848"/>
<text text-anchor="middle" x="613" y="-2447.98" font-family="Times Roman,serif" font-size="14.00">compose_composition_of</text>
</a>
</g>
<!-- Functor_Composition_Core_compose&#45;&gt;Core_compose_composition_of -->
<g id="edge66" class="edge"><title>Functor_Composition_Core_compose&#45;&gt;Core_compose_composition_of</title>
<path fill="none" stroke="black" d="M3011.26,-1082.7C2908.01,-1168.5 2441.8,-1562.89 2126,-1946.58 2110.49,-1965.43 2115.48,-1977.88 2096,-1992.58 1864.25,-2167.49 972.084,-2373.12 695.347,-2433.85"/>
<polygon fill="black" stroke="black" points="694.392,-2430.48 685.372,-2436.04 695.889,-2437.32 694.392,-2430.48"/>
</g>
<!-- Composition_pentagon -->
<g id="node26" class="node"><title>Composition_pentagon</title>
<a xlink:href="Composition.html#pentagon" xlink:title="pentagon">
<ellipse fill="#f070d1" stroke="black" cx="5554" cy="-3010.58" rx="57.9828" ry="18.3848"/>
<ellipse fill="none" stroke="black" cx="5554" cy="-3010.58" rx="61.9828" ry="22.3848"/>
<ellipse fill="none" stroke="black" cx="5554" cy="-3010.58" rx="65.9828" ry="26.3848"/>
<text text-anchor="middle" x="5554" y="-3006.98" font-family="Times Roman,serif" font-size="14.00">pentagon</text>
</a>
</g>
<!-- Composition_pentagon&#45;&gt;Laws_pentagon -->
<g id="edge68" class="edge"><title>Composition_pentagon&#45;&gt;Laws_pentagon</title>
<path fill="none" stroke="black" d="M5505.33,-2992.58C5496.6,-2989.48 5487.55,-2986.37 5479,-2983.58 4771.43,-2752.76 4539.08,-2842.63 3872,-2512.58 3852.26,-2502.81 3832.29,-2488.32 3816.9,-2475.91"/>
<polygon fill="black" stroke="black" points="3818.79,-2472.93 3808.84,-2469.28 3814.33,-2478.34 3818.79,-2472.93"/>
</g>
<!-- Composition_triangle -->
<g id="node27" class="node"><title>Composition_triangle</title>
<a xlink:href="Composition.html#triangle" xlink:title="triangle">
<ellipse fill="#f070d1" stroke="black" cx="5413" cy="-3010.58" rx="49.0671" ry="18.3848"/>
<ellipse fill="none" stroke="black" cx="5413" cy="-3010.58" rx="53.0323" ry="22.3848"/>
<ellipse fill="none" stroke="black" cx="5413" cy="-3010.58" rx="56.9975" ry="26.3848"/>
<text text-anchor="middle" x="5413" y="-3006.98" font-family="Times Roman,serif" font-size="14.00">triangle</text>
</a>
</g>
<!-- Composition_triangle&#45;&gt;Laws_triangle -->
<g id="edge70" class="edge"><title>Composition_triangle&#45;&gt;Laws_triangle</title>
<path fill="none" stroke="black" d="M5371.03,-2992.54C5363.11,-2989.38 5354.85,-2986.26 5347,-2983.58 4613.61,-2733.54 3693.97,-2515.72 3467.93,-2463.47"/>
<polygon fill="black" stroke="black" points="3468.53,-2460.02 3458,-2461.18 3466.96,-2466.84 3468.53,-2460.02"/>
</g>
<!-- Composition_associativity_fst -->
<g id="node28" class="node"><title>Composition_associativity_fst</title>
<a xlink:href="Composition.html#associativity_fst" xlink:title="associativity_fst">
<ellipse fill="#f070d1" stroke="black" cx="5735" cy="-3010.58" rx="89.0955" ry="18.3848"/>
<ellipse fill="none" stroke="black" cx="5735" cy="-3010.58" rx="93.0955" ry="22.3848"/>
<ellipse fill="none" stroke="black" cx="5735" cy="-3010.58" rx="97.0955" ry="26.3848"/>
<text text-anchor="middle" x="5735" y="-3006.98" font-family="Times Roman,serif" font-size="14.00">associativity_fst</text>
</a>
</g>
<!-- Composition_associativity_fst&#45;&gt;Functor_Composition_Core_compose -->
<g id="edge72" class="edge"><title>Composition_associativity_fst&#45;&gt;Functor_Composition_Core_compose</title>
<path fill="none" stroke="black" d="M5664.13,-2992.47C5345.1,-2910.65 4055.23,-2576.84 3995,-2512.58 3818.96,-2324.75 3992.65,-2173.98 3872,-1946.58 3653.89,-1535.47 3189.45,-1179.73 3063.87,-1088.31"/>
<polygon fill="black" stroke="black" points="3065.57,-1085.22 3055.42,-1082.19 3061.46,-1090.89 3065.57,-1085.22"/>
</g>
<!-- Composition_associativity -->
<g id="node29" class="node"><title>Composition_associativity</title>
<a xlink:href="Composition.html#associativity" xlink:title="associativity">
<ellipse fill="#f070d1" stroke="black" cx="5929" cy="-3010.58" rx="70.9686" ry="18.3848"/>
<ellipse fill="none" stroke="black" cx="5929" cy="-3010.58" rx="74.9435" ry="22.3848"/>
<ellipse fill="none" stroke="black" cx="5929" cy="-3010.58" rx="78.9183" ry="26.3848"/>
<text text-anchor="middle" x="5929" y="-3006.98" font-family="Times Roman,serif" font-size="14.00">associativity</text>
</a>
</g>
<!-- Composition_associativity&#45;&gt;Functor_Composition_Core_compose -->
<g id="edge74" class="edge"><title>Composition_associativity&#45;&gt;Functor_Composition_Core_compose</title>
<path fill="none" stroke="black" d="M5870.82,-2992.58C5860.88,-2989.55 5850.65,-2986.45 5841,-2983.58 5117.87,-2768.25 4800.44,-2982.33 4210,-2512.58 3984.71,-2333.35 4067.26,-2177.24 3895,-1946.58 3611.93,-1567.55 3174.63,-1186.53 3060.19,-1089.29"/>
<polygon fill="black" stroke="black" points="3062.4,-1086.58 3052.51,-1082.78 3057.88,-1091.92 3062.4,-1086.58"/>
</g>
<!-- Composition_right_identity_fst -->
<g id="node30" class="node"><title>Composition_right_identity_fst</title>
<a xlink:href="Composition.html#right_identity_fst" xlink:title="right_identity_fst">
<ellipse fill="#f070d1" stroke="black" cx="6129" cy="-3010.58" rx="94.9983" ry="18.3848"/>
<ellipse fill="none" stroke="black" cx="6129" cy="-3010.58" rx="98.9789" ry="22.3848"/>
<ellipse fill="none" stroke="black" cx="6129" cy="-3010.58" rx="102.96" ry="26.3848"/>
<text text-anchor="middle" x="6129" y="-3006.98" font-family="Times Roman,serif" font-size="14.00">right_identity_fst</text>
</a>
</g>
<!-- Composition_right_identity_fst&#45;&gt;Functor_Composition_Core_compose -->
<g id="edge76" class="edge"><title>Composition_right_identity_fst&#45;&gt;Functor_Composition_Core_compose</title>
<path fill="none" stroke="black" d="M6053.78,-2992.41C5735.02,-2915 4505.19,-2612.16 4358,-2512.58 4095.22,-2334.8 4132.95,-2184.44 3923,-1946.58 3604.23,-1585.44 3170.28,-1189.9 3058.91,-1089.67"/>
<polygon fill="black" stroke="black" points="3061.23,-1087.05 3051.45,-1082.97 3056.55,-1092.26 3061.23,-1087.05"/>
</g>
<!-- Composition_left_identity_fst -->
<g id="node31" class="node"><title>Composition_left_identity_fst</title>
<a xlink:href="Composition.html#left_identity_fst" xlink:title="left_identity_fst">
<ellipse fill="#f070d1" stroke="black" cx="6346" cy="-3010.58" rx="87.9304" ry="18.3848"/>
<ellipse fill="none" stroke="black" cx="6346" cy="-3010.58" rx="91.9097" ry="22.3848"/>
<ellipse fill="none" stroke="black" cx="6346" cy="-3010.58" rx="95.8889" ry="26.3848"/>
<text text-anchor="middle" x="6346" y="-3006.98" font-family="Times Roman,serif" font-size="14.00">left_identity_fst</text>
</a>
</g>
<!-- Composition_left_identity_fst&#45;&gt;Functor_Composition_Core_compose -->
<g id="edge78" class="edge"><title>Composition_left_identity_fst&#45;&gt;Functor_Composition_Core_compose</title>
<path fill="none" stroke="black" d="M6297.64,-2987.68C6076.11,-2882.27 5137.56,-2430.16 4405,-1992.58 3849.4,-1660.71 3209.74,-1196.05 3063.05,-1088.44"/>
<polygon fill="black" stroke="black" points="3065.01,-1085.54 3054.87,-1082.44 3060.86,-1091.18 3065.01,-1085.54"/>
</g>
<!-- Composition_right_identity -->
<g id="node32" class="node"><title>Composition_right_identity</title>
<a xlink:href="Composition.html#right_identity" xlink:title="right_identity">
<ellipse fill="#f070d1" stroke="black" cx="5078" cy="-3010.58" rx="77.7817" ry="18.3848"/>
<ellipse fill="none" stroke="black" cx="5078" cy="-3010.58" rx="81.7817" ry="22.3848"/>
<ellipse fill="none" stroke="black" cx="5078" cy="-3010.58" rx="85.7817" ry="26.3848"/>
<text text-anchor="middle" x="5078" y="-3006.98" font-family="Times Roman,serif" font-size="14.00">right_identity</text>
</a>
</g>
<!-- Composition_right_identity&#45;&gt;Functor_Composition_Core_compose -->
<g id="edge80" class="edge"><title>Composition_right_identity&#45;&gt;Functor_Composition_Core_compose</title>
<path fill="none" stroke="black" d="M5015.82,-2992.24C5004.92,-2989.22 4993.65,-2986.21 4983,-2983.58 3996.64,-2739.89 3386.16,-3301.56 2746,-2512.58 2558.16,-2281.07 2948.63,-1273.6 3020.8,-1093.26"/>
<polygon fill="black" stroke="black" points="3024.06,-1094.52 3024.54,-1083.93 3017.57,-1091.91 3024.06,-1094.52"/>
</g>
<!-- Composition_left_identity -->
<g id="node33" class="node"><title>Composition_left_identity</title>
<a xlink:href="Composition.html#left_identity" xlink:title="left_identity">
<ellipse fill="#f070d1" stroke="black" cx="5260" cy="-3010.58" rx="70.2603" ry="18.3848"/>
<ellipse fill="none" stroke="black" cx="5260" cy="-3010.58" rx="74.2348" ry="22.3848"/>
<ellipse fill="none" stroke="black" cx="5260" cy="-3010.58" rx="78.2093" ry="26.3848"/>
<text text-anchor="middle" x="5260" y="-3006.98" font-family="Times Roman,serif" font-size="14.00">left_identity</text>
</a>
</g>
<!-- Composition_left_identity&#45;&gt;Functor_Composition_Core_compose -->
<g id="edge82" class="edge"><title>Composition_left_identity&#45;&gt;Functor_Composition_Core_compose</title>
<path fill="none" stroke="black" d="M5203.62,-2992.12C5193.48,-2989.08 5182.97,-2986.1 5173,-2983.58 4120.37,-2717.63 3465.74,-3351.04 2776,-2512.58 2696.09,-2415.45 2758.27,-2071.1 2776,-1946.58 2825.2,-1600.96 2977.81,-1201.36 3020.69,-1093.56"/>
<polygon fill="black" stroke="black" points="3024.03,-1094.64 3024.49,-1084.05 3017.53,-1092.04 3024.03,-1094.64"/>
</g>
<!-- Composition_isfaithful_precomposition_essentially_surjective -->
<g id="node34" class="node"><title>Composition_isfaithful_precomposition_essentially_surjective</title>
<a xlink:href="Composition.html#isfaithful_precomposition_essentially_surjective" xlink:title="isfaithful_precomposition_essentially_surjective">
<ellipse fill="#f070d1" stroke="black" cx="4134" cy="-3010.58" rx="241.831" ry="18.3848"/>
<ellipse fill="none" stroke="black" cx="4134" cy="-3010.58" rx="245.831" ry="22.3848"/>
<ellipse fill="none" stroke="black" cx="4134" cy="-3010.58" rx="249.831" ry="26.3848"/>
<text text-anchor="middle" x="4134" y="-3006.98" font-family="Times Roman,serif" font-size="14.00">isfaithful_precomposition_essentially_surjective</text>
</a>
</g>
<!-- Composition_isfaithful_precomposition_essentially_surjective&#45;&gt;Attributes_isfaithful_precomposition_essentially_surjective -->
<g id="edge84" class="edge"><title>Composition_isfaithful_precomposition_essentially_surjective&#45;&gt;Attributes_isfaithful_precomposition_essentially_surjective</title>
<path fill="none" stroke="black" d="M4056.47,-2985.38C3766.33,-2891.09 2747.46,-2559.96 2479.16,-2472.76"/>
<polygon fill="black" stroke="black" points="2480.15,-2469.4 2469.56,-2469.64 2477.98,-2476.06 2480.15,-2469.4"/>
</g>
<!-- Composition_isfaithful_precomposition_essentially_surjective_helper -->
<g id="node35" class="node"><title>Composition_isfaithful_precomposition_essentially_surjective_helper</title>
<a xlink:href="Composition.html#isfaithful_precomposition_essentially_surjective_helper" xlink:title="isfaithful_precomposition_essentially_surjective_helper">
<ellipse fill="#f070d1" stroke="black" cx="4688" cy="-3010.58" rx="277.893" ry="18.3848"/>
<ellipse fill="none" stroke="black" cx="4688" cy="-3010.58" rx="281.893" ry="22.3848"/>
<ellipse fill="none" stroke="black" cx="4688" cy="-3010.58" rx="285.893" ry="26.3848"/>
<text text-anchor="middle" x="4688" y="-3006.98" font-family="Times Roman,serif" font-size="14.00">isfaithful_precomposition_essentially_surjective_helper</text>
</a>
</g>
<!-- Composition_isfaithful_precomposition_essentially_surjective_helper&#45;&gt;Attributes_isfaithful_precomposition_essentially_surjective_helper -->
<g id="edge86" class="edge"><title>Composition_isfaithful_precomposition_essentially_surjective_helper&#45;&gt;Attributes_isfaithful_precomposition_essentially_surjective_helper</title>
<path fill="none" stroke="black" d="M4530.6,-2988.39C4113.68,-2926.97 2993.21,-2743.85 2708,-2512.58 2674.19,-2485.16 2685.08,-2463.2 2665,-2424.58 2580.5,-2262.06 2471.83,-2070.92 2431.75,-2000.98"/>
<polygon fill="black" stroke="black" points="2434.79,-1999.24 2426.78,-1992.3 2428.72,-2002.72 2434.79,-1999.24"/>
</g>
<!-- Composition_compose_functor_ -->
<g id="node36" class="node"><title>Composition_compose_functor_</title>
<a xlink:href="Composition.html#compose_functor&#39;" xlink:title="compose_functor&#39;">
<ellipse fill="#f070d1" stroke="black" cx="6704" cy="-3010.58" rx="96.1665" ry="18.3848"/>
<ellipse fill="none" stroke="black" cx="6704" cy="-3010.58" rx="100.167" ry="22.3848"/>
<ellipse fill="none" stroke="black" cx="6704" cy="-3010.58" rx="104.167" ry="26.3848"/>
<text text-anchor="middle" x="6704" y="-3006.98" font-family="Times Roman,serif" font-size="14.00">compose_functor&#39;</text>
</a>
</g>
<!-- Composition_compose_functor_uncurried -->
<g id="node37" class="node"><title>Composition_compose_functor_uncurried</title>
<a xlink:href="Composition.html#compose_functor_uncurried" xlink:title="compose_functor_uncurried">
<ellipse fill="#f070d1" stroke="black" cx="6663" cy="-2451.58" rx="145.163" ry="18.3848"/>
<text text-anchor="middle" x="6663" y="-2447.98" font-family="Times Roman,serif" font-size="14.00">compose_functor_uncurried</text>
</a>
</g>
<!-- Composition_compose_functor_&#45;&gt;Composition_compose_functor_uncurried -->
<g id="edge88" class="edge"><title>Composition_compose_functor_&#45;&gt;Composition_compose_functor_uncurried</title>
<path fill="none" stroke="black" d="M6702.05,-2983.99C6695.19,-2890.5 6672.22,-2577.28 6665.11,-2480.39"/>
<polygon fill="black" stroke="black" points="6668.59,-2479.89 6664.36,-2470.18 6661.6,-2480.41 6668.59,-2479.89"/>
</g>
<!-- Composition_compose_functor -->
<g id="node38" class="node"><title>Composition_compose_functor</title>
<a xlink:href="Composition.html#compose_functor" xlink:title="compose_functor">
<ellipse fill="#f070d1" stroke="black" cx="4508" cy="-1973.58" rx="94.0452" ry="18.3848"/>
<text text-anchor="middle" x="4508" y="-1969.98" font-family="Times Roman,serif" font-size="14.00">compose_functor</text>
</a>
</g>
<!-- Composition_compose_functor_uncurried&#45;&gt;Composition_compose_functor -->
<g id="edge90" class="edge"><title>Composition_compose_functor_uncurried&#45;&gt;Composition_compose_functor</title>
<path fill="none" stroke="black" d="M6590.68,-2435.54C6261.87,-2362.6 4909.68,-2062.68 4580.5,-1989.66"/>
<polygon fill="black" stroke="black" points="4581.12,-1986.21 4570.6,-1987.46 4579.6,-1993.05 4581.12,-1986.21"/>
</g>
<!-- Composition_compose_functor_subproof0 -->
<g id="node39" class="node"><title>Composition_compose_functor_subproof0</title>
<a xlink:href="Composition.html#compose_functor_subproof0" xlink:title="compose_functor_subproof0">
<ellipse fill="#f070d1" stroke="black" cx="4672" cy="-1065.58" rx="147.785" ry="18.3848"/>
<text text-anchor="middle" x="4672" y="-1061.98" font-family="Times Roman,serif" font-size="14.00">compose_functor_subproof0</text>
</a>
</g>
<!-- Composition_compose_functor&#45;&gt;Composition_compose_functor_subproof0 -->
<g id="edge92" class="edge"><title>Composition_compose_functor&#45;&gt;Composition_compose_functor_subproof0</title>
<path fill="none" stroke="black" d="M4511.35,-1955.03C4531.98,-1840.81 4641.72,-1233.21 4666.87,-1094.01"/>
<polygon fill="black" stroke="black" points="4670.32,-1094.56 4668.66,-1084.1 4663.43,-1093.32 4670.32,-1094.56"/>
</g>
<!-- Composition_compose_functor_subproof -->
<g id="node40" class="node"><title>Composition_compose_functor_subproof</title>
<a xlink:href="Composition.html#compose_functor_subproof" xlink:title="compose_functor_subproof">
<ellipse fill="#f070d1" stroke="black" cx="4025" cy="-1065.58" rx="140.922" ry="18.3848"/>
<text text-anchor="middle" x="4025" y="-1061.98" font-family="Times Roman,serif" font-size="14.00">compose_functor_subproof</text>
</a>
</g>
<!-- Composition_compose_functor&#45;&gt;Composition_compose_functor_subproof -->
<g id="edge94" class="edge"><title>Composition_compose_functor&#45;&gt;Composition_compose_functor_subproof</title>
<path fill="none" stroke="black" d="M4498.13,-1955.03C4437.25,-1840.58 4112.87,-1230.77 4039.68,-1093.18"/>
<polygon fill="black" stroke="black" points="4042.64,-1091.28 4034.85,-1084.1 4036.46,-1094.57 4042.64,-1091.28"/>
</g>
<!-- Composition_compose_functor_morphism_of -->
<g id="node41" class="node"><title>Composition_compose_functor_morphism_of</title>
<a xlink:href="Composition.html#compose_functor_morphism_of" xlink:title="compose_functor_morphism_of">
<ellipse fill="#f070d1" stroke="black" cx="4345" cy="-1065.58" rx="161.22" ry="18.3848"/>
<text text-anchor="middle" x="4345" y="-1061.98" font-family="Times Roman,serif" font-size="14.00">compose_functor_morphism_of</text>
</a>
</g>
<!-- Composition_compose_functor&#45;&gt;Composition_compose_functor_morphism_of -->
<g id="edge96" class="edge"><title>Composition_compose_functor&#45;&gt;Composition_compose_functor_morphism_of</title>
<path fill="none" stroke="black" d="M4504.67,-1955.03C4484.17,-1840.81 4375.09,-1233.21 4350.1,-1094.01"/>
<polygon fill="black" stroke="black" points="4353.54,-1093.32 4348.32,-1084.1 4346.65,-1094.56 4353.54,-1093.32"/>
</g>
<!-- Composition_compose_functor_subproof0&#45;&gt;Core_compose_functor_subproof0 -->
<g id="edge98" class="edge"><title>Composition_compose_functor_subproof0&#45;&gt;Core_compose_functor_subproof0</title>
<path fill="none" stroke="black" d="M4617.67,-1048.27C4587.68,-1039.33 4549.6,-1028.98 4515,-1022.58 3064.08,-754.047 1274.23,-662.524 748.107,-640.409"/>
<polygon fill="black" stroke="black" points="747.938,-636.899 737.801,-639.978 747.646,-643.893 747.938,-636.899"/>
</g>
<!-- Composition_compose_functor_subproof&#45;&gt;Core_compose_functor_subproof -->
<g id="edge100" class="edge"><title>Composition_compose_functor_subproof&#45;&gt;Core_compose_functor_subproof</title>
<path fill="none" stroke="black" d="M3917.13,-1053.65C3481.76,-1005.4 1811.6,-819.356 439,-653.58 426.332,-652.05 413.067,-650.416 399.888,-648.773"/>
<polygon fill="black" stroke="black" points="400.195,-645.284 389.838,-647.516 399.326,-652.23 400.195,-645.284"/>
</g>
<!-- Composition_compose -->
<g id="node42" class="node"><title>Composition_compose</title>
<a xlink:href="Composition.html#compose" xlink:title="compose">
<ellipse fill="#f070d1" stroke="black" cx="6521" cy="-3010.58" rx="53.3032" ry="18.3848"/>
<ellipse fill="none" stroke="black" cx="6521" cy="-3010.58" rx="57.2707" ry="22.3848"/>
<ellipse fill="none" stroke="black" cx="6521" cy="-3010.58" rx="61.2382" ry="26.3848"/>
<text text-anchor="middle" x="6521" y="-3006.98" font-family="Times Roman,serif" font-size="14.00">compose</text>
</a>
</g>
<!-- Composition_compose_identity_of -->
<g id="node43" class="node"><title>Composition_compose_identity_of</title>
<a xlink:href="Composition.html#compose_identity_of" xlink:title="compose_identity_of">
<ellipse fill="#f070d1" stroke="black" cx="6389" cy="-2451.58" rx="111.016" ry="18.3848"/>
<text text-anchor="middle" x="6389" y="-2447.98" font-family="Times Roman,serif" font-size="14.00">compose_identity_of</text>
</a>
</g>
<!-- Composition_compose&#45;&gt;Composition_compose_identity_of -->
<g id="edge102" class="edge"><title>Composition_compose&#45;&gt;Composition_compose_identity_of</title>
<path fill="none" stroke="black" d="M6514.72,-2983.99C6492.62,-2890.41 6418.53,-2576.64 6395.73,-2480.1"/>
<polygon fill="black" stroke="black" points="6399.1,-2479.1 6393.39,-2470.18 6392.28,-2480.71 6399.1,-2479.1"/>
</g>
<!-- Composition_compose_composition_of -->
<g id="node44" class="node"><title>Composition_compose_composition_of</title>
<a xlink:href="Composition.html#compose_composition_of" xlink:title="compose_composition_of">
<ellipse fill="#f070d1" stroke="black" cx="6129" cy="-2451.58" rx="130.815" ry="18.3848"/>
<text text-anchor="middle" x="6129" y="-2447.98" font-family="Times Roman,serif" font-size="14.00">compose_composition_of</text>
</a>
</g>
<!-- Composition_compose&#45;&gt;Composition_compose_composition_of -->
<g id="edge104" class="edge"><title>Composition_compose&#45;&gt;Composition_compose_composition_of</title>
<path fill="none" stroke="black" d="M6503.14,-2985.11C6438.07,-2892.32 6214.06,-2572.87 6147.68,-2478.21"/>
<polygon fill="black" stroke="black" points="6150.54,-2476.2 6141.93,-2470.02 6144.81,-2480.22 6150.54,-2476.2"/>
</g>
<!-- Attributes_isfaithful_precomposition_essentially_surjective&#45;&gt;Attributes_isfaithful_precomposition_essentially_surjective_helper -->
<g id="edge106" class="edge"><title>Attributes_isfaithful_precomposition_essentially_surjective&#45;&gt;Attributes_isfaithful_precomposition_essentially_surjective_helper</title>
<path fill="none" stroke="black" d="M2414.08,-2432.84C2414.39,-2359.44 2415.51,-2091.14 2415.88,-2002.34"/>
<polygon fill="black" stroke="black" points="2419.38,-2002.2 2415.92,-1992.19 2412.38,-2002.17 2419.38,-2002.2"/>
</g>
<!-- Attributes_isfaithful_precomposition_essentially_surjective_helper&#45;&gt;Functor_Composition_Core_compose -->
<g id="edge108" class="edge"><title>Attributes_isfaithful_precomposition_essentially_surjective_helper&#45;&gt;Functor_Composition_Core_compose</title>
<path fill="none" stroke="black" d="M2428.58,-1955.03C2506.39,-1840.34 2921.65,-1228.23 3013.86,-1092.33"/>
<polygon fill="black" stroke="black" points="3016.97,-1093.96 3019.69,-1083.72 3011.18,-1090.03 3016.97,-1093.96"/>
</g>
</g>
</svg>
