<?xml version="1.0" encoding="UTF-8" standalone="no"?>
<!DOCTYPE svg PUBLIC "-//W3C//DTD SVG 1.1//EN"
 "http://www.w3.org/Graphics/SVG/1.1/DTD/svg11.dtd">
<!-- Generated by graphviz version 2.26.3 (20100126.1600)
 -->
<!-- Title: HoTT_categories_Functor_Pointwise Pages: 1 -->
<svg width="7170pt" height="3589pt"
 viewBox="0.00 0.00 7170.00 3589.00" xmlns="http://www.w3.org/2000/svg" xmlns:xlink="http://www.w3.org/1999/xlink">
<g id="graph1" class="graph" transform="scale(1 1) rotate(0) translate(4 3585)">
<title>HoTT_categories_Functor_Pointwise</title>
<polygon fill="white" stroke="white" points="-4,5 -4,-3585 7167,-3585 7167,5 -4,5"/>
<g id="graph2" class="cluster"><title>cluster_Pointwise</title>
<polygon fill="#ffffc3" stroke="black" points="3338,-1299.3 3338,-3517.62 7154,-3517.62 7154,-1299.3 3338,-1299.3"/>
<text text-anchor="middle" x="3379.5" y="-3501.02" font-family="Times Roman,serif" font-size="14.00">Pointwise</text>
</g>
<g id="graph3" class="cluster"><title>cluster_Core</title>
<polygon fill="#ffffc3" stroke="black" points="1518,-63.3805 1518,-1996.49 3330,-1996.49 3330,-63.3805 1518,-63.3805"/>
<text text-anchor="middle" x="1542.5" y="-1979.89" font-family="Times Roman,serif" font-size="14.00">Core</text>
</g>
<g id="graph4" class="cluster"><title>cluster_Properties</title>
<polygon fill="#ffffc3" stroke="black" points="8,-649.65 8,-2757.05 1440,-2757.05 1440,-649.65 8,-649.65"/>
<text text-anchor="middle" x="51.5" y="-2740.45" font-family="Times Roman,serif" font-size="14.00">Properties</text>
</g>
<!-- Properties_composition_of -->
<g id="node1" class="node"><title>Properties_composition_of</title>
<a xlink:href="Properties.html#composition_of" xlink:title="composition_of">
<ellipse fill="#f070d1" stroke="black" cx="1264" cy="-2273.38" rx="84.1457" ry="18.3848"/>
<ellipse fill="none" stroke="black" cx="1264" cy="-2273.38" rx="88.1457" ry="22.3848"/>
<ellipse fill="none" stroke="black" cx="1264" cy="-2273.38" rx="92.1457" ry="26.3848"/>
<text text-anchor="middle" x="1264" y="-2269.78" font-family="Times Roman,serif" font-size="14.00">composition_of</text>
</a>
</g>
<!-- Properties_composition_of_subproof -->
<g id="node2" class="node"><title>Properties_composition_of_subproof</title>
<a xlink:href="Properties.html#composition_of_subproof" xlink:title="composition_of_subproof">
<ellipse fill="#facdef" stroke="black" cx="1264" cy="-1513.38" rx="130.815" ry="18.3848"/>
<text text-anchor="middle" x="1264" y="-1509.78" font-family="Times Roman,serif" font-size="14.00">composition_of_subproof</text>
</a>
</g>
<!-- Properties_composition_of&#45;&gt;Properties_composition_of_subproof -->
<g id="edge2" class="edge"><title>Properties_composition_of&#45;&gt;Properties_composition_of_subproof</title>
<path fill="none" stroke="black" d="M1264,-2246.78C1264,-2130.09 1264,-1663.98 1264,-1542.47"/>
<polygon fill="black" stroke="black" points="1267.5,-1542.12 1264,-1532.12 1260.5,-1542.12 1267.5,-1542.12"/>
</g>
<!-- Properties_composition_of_helper -->
<g id="node3" class="node"><title>Properties_composition_of_helper</title>
<a xlink:href="Properties.html#composition_of_helper" xlink:title="composition_of_helper">
<ellipse fill="#f070d1" stroke="black" cx="954" cy="-1513.38" rx="120.208" ry="18.3848"/>
<text text-anchor="middle" x="954" y="-1509.78" font-family="Times Roman,serif" font-size="14.00">composition_of_helper</text>
</a>
</g>
<!-- Properties_composition_of&#45;&gt;Properties_composition_of_helper -->
<g id="edge4" class="edge"><title>Properties_composition_of&#45;&gt;Properties_composition_of_helper</title>
<path fill="none" stroke="black" d="M1253.15,-2246.78C1205.41,-2129.74 1014.28,-1661.17 965.42,-1541.38"/>
<polygon fill="black" stroke="black" points="968.661,-1540.06 961.643,-1532.12 962.179,-1542.7 968.661,-1540.06"/>
</g>
<!-- Core_pointwise -->
<g id="node39" class="node"><title>Core_pointwise</title>
<a xlink:href="Core.html#pointwise" xlink:title="pointwise">
<ellipse fill="#f070d1" stroke="black" cx="1750" cy="-1513.38" rx="58.1882" ry="18.3848"/>
<text text-anchor="middle" x="1750" y="-1509.78" font-family="Times Roman,serif" font-size="14.00">pointwise</text>
</a>
</g>
<!-- Properties_composition_of&#45;&gt;Core_pointwise -->
<g id="edge6" class="edge"><title>Properties_composition_of&#45;&gt;Core_pointwise</title>
<path fill="none" stroke="black" d="M1280.73,-2247.22C1355.31,-2130.58 1657.16,-1658.55 1732.77,-1540.33"/>
<polygon fill="black" stroke="black" points="1735.77,-1542.13 1738.21,-1531.82 1729.87,-1538.36 1735.77,-1542.13"/>
</g>
<!-- Properties_composition_of_helper_helper_object_of -->
<g id="node4" class="node"><title>Properties_composition_of_helper_helper_object_of</title>
<a xlink:href="Properties.html#composition_of_helper_helper_object_of" xlink:title="composition_of_helper_helper_object_of">
<ellipse fill="#f070d1" stroke="black" cx="1227" cy="-863.381" rx="205.061" ry="18.3848"/>
<text text-anchor="middle" x="1227" y="-859.781" font-family="Times Roman,serif" font-size="14.00">composition_of_helper_helper_object_of</text>
</a>
</g>
<!-- Properties_composition_of_subproof&#45;&gt;Properties_composition_of_helper_helper_object_of -->
<g id="edge8" class="edge"><title>Properties_composition_of_subproof&#45;&gt;Properties_composition_of_helper_helper_object_of</title>
<path fill="none" stroke="black" d="M1262.93,-1494.63C1257.72,-1403.07 1234.94,-1002.94 1228.63,-891.997"/>
<polygon fill="black" stroke="black" points="1232.12,-891.682 1228.05,-881.897 1225.13,-892.08 1232.12,-891.682"/>
</g>
<!-- Properties_composition_of_helper_helper -->
<g id="node5" class="node"><title>Properties_composition_of_helper_helper</title>
<a xlink:href="Properties.html#composition_of_helper_helper" xlink:title="composition_of_helper_helper">
<ellipse fill="#f070d1" stroke="black" cx="848" cy="-863.381" rx="155.771" ry="18.3848"/>
<text text-anchor="middle" x="848" y="-859.781" font-family="Times Roman,serif" font-size="14.00">composition_of_helper_helper</text>
</a>
</g>
<!-- Properties_composition_of_subproof&#45;&gt;Properties_composition_of_helper_helper -->
<g id="edge10" class="edge"><title>Properties_composition_of_subproof&#45;&gt;Properties_composition_of_helper_helper</title>
<path fill="none" stroke="black" d="M1252,-1494.63C1193.11,-1402.61 934.732,-998.899 865.254,-890.34"/>
<polygon fill="black" stroke="black" points="868.189,-888.433 859.851,-881.897 862.293,-892.207 868.189,-888.433"/>
</g>
<!-- Core_pointwise_morphism_of -->
<g id="node44" class="node"><title>Core_pointwise_morphism_of</title>
<a xlink:href="Core.html#pointwise_morphism_of" xlink:title="pointwise_morphism_of">
<ellipse fill="#f070d1" stroke="black" cx="1652" cy="-277.381" rx="126.072" ry="18.3848"/>
<text text-anchor="middle" x="1652" y="-273.781" font-family="Times Roman,serif" font-size="14.00">pointwise_morphism_of</text>
</a>
</g>
<!-- Properties_composition_of_subproof&#45;&gt;Core_pointwise_morphism_of -->
<g id="edge12" class="edge"><title>Properties_composition_of_subproof&#45;&gt;Core_pointwise_morphism_of</title>
<path fill="none" stroke="black" d="M1270.42,-1494.88C1296.63,-1419.21 1397.69,-1125.86 1474,-882.381 1543.22,-661.512 1619.5,-392.85 1643.98,-305.953"/>
<polygon fill="black" stroke="black" points="1647.36,-306.846 1646.7,-296.272 1640.63,-304.95 1647.36,-306.846"/>
</g>
<!-- Properties_composition_of_helper&#45;&gt;Properties_composition_of_helper_helper -->
<g id="edge14" class="edge"><title>Properties_composition_of_helper&#45;&gt;Properties_composition_of_helper_helper</title>
<path fill="none" stroke="black" d="M950.942,-1494.63C936.011,-1403.07 870.76,-1002.94 852.667,-891.997"/>
<polygon fill="black" stroke="black" points="856.084,-891.204 851.02,-881.897 849.175,-892.33 856.084,-891.204"/>
</g>
<!-- Properties_identity_of -->
<g id="node6" class="node"><title>Properties_identity_of</title>
<a xlink:href="Properties.html#identity_of" xlink:title="identity_of">
<ellipse fill="#f070d1" stroke="black" cx="623" cy="-2273.38" rx="63.1946" ry="18.3848"/>
<ellipse fill="none" stroke="black" cx="623" cy="-2273.38" rx="67.1666" ry="22.3848"/>
<ellipse fill="none" stroke="black" cx="623" cy="-2273.38" rx="71.1386" ry="26.3848"/>
<text text-anchor="middle" x="623" y="-2269.78" font-family="Times Roman,serif" font-size="14.00">identity_of</text>
</a>
</g>
<!-- Properties_identity_of_subproof -->
<g id="node7" class="node"><title>Properties_identity_of_subproof</title>
<a xlink:href="Properties.html#identity_of_subproof" xlink:title="identity_of_subproof">
<ellipse fill="#facdef" stroke="black" cx="623" cy="-1513.38" rx="111.016" ry="18.3848"/>
<text text-anchor="middle" x="623" y="-1509.78" font-family="Times Roman,serif" font-size="14.00">identity_of_subproof</text>
</a>
</g>
<!-- Properties_identity_of&#45;&gt;Properties_identity_of_subproof -->
<g id="edge16" class="edge"><title>Properties_identity_of&#45;&gt;Properties_identity_of_subproof</title>
<path fill="none" stroke="black" d="M623,-2246.78C623,-2130.09 623,-1663.98 623,-1542.47"/>
<polygon fill="black" stroke="black" points="626.5,-1542.12 623,-1532.12 619.5,-1542.12 626.5,-1542.12"/>
</g>
<!-- Properties_identity_of_helper -->
<g id="node8" class="node"><title>Properties_identity_of_helper</title>
<a xlink:href="Properties.html#identity_of_helper" xlink:title="identity_of_helper">
<ellipse fill="#f070d1" stroke="black" cx="231" cy="-1513.38" rx="99.201" ry="18.3848"/>
<text text-anchor="middle" x="231" y="-1509.78" font-family="Times Roman,serif" font-size="14.00">identity_of_helper</text>
</a>
</g>
<!-- Properties_identity_of&#45;&gt;Properties_identity_of_helper -->
<g id="edge18" class="edge"><title>Properties_identity_of&#45;&gt;Properties_identity_of_helper</title>
<path fill="none" stroke="black" d="M609.506,-2247.22C549.468,-2130.82 306.854,-1660.45 245.269,-1541.05"/>
<polygon fill="black" stroke="black" points="248.207,-1539.11 240.513,-1531.82 241.986,-1542.32 248.207,-1539.11"/>
</g>
<!-- Properties_identity_of&#45;&gt;Core_pointwise -->
<g id="edge20" class="edge"><title>Properties_identity_of&#45;&gt;Core_pointwise</title>
<path fill="none" stroke="black" d="M657.654,-2250.01C825.324,-2136.94 1551.07,-1647.53 1716.4,-1536.04"/>
<polygon fill="black" stroke="black" points="1718.39,-1538.92 1724.72,-1530.43 1714.48,-1533.11 1718.39,-1538.92"/>
</g>
<!-- Properties_identity_of_helper_helper_object_of -->
<g id="node9" class="node"><title>Properties_identity_of_helper_helper_object_of</title>
<a xlink:href="Properties.html#identity_of_helper_helper_object_of" xlink:title="identity_of_helper_helper_object_of">
<ellipse fill="#f070d1" stroke="black" cx="490" cy="-863.381" rx="184.055" ry="18.3848"/>
<text text-anchor="middle" x="490" y="-859.781" font-family="Times Roman,serif" font-size="14.00">identity_of_helper_helper_object_of</text>
</a>
</g>
<!-- Properties_identity_of_subproof&#45;&gt;Properties_identity_of_helper_helper_object_of -->
<g id="edge22" class="edge"><title>Properties_identity_of_subproof&#45;&gt;Properties_identity_of_helper_helper_object_of</title>
<path fill="none" stroke="black" d="M619.163,-1494.63C600.429,-1403.07 518.557,-1002.94 495.855,-891.997"/>
<polygon fill="black" stroke="black" points="499.222,-890.993 493.789,-881.897 492.365,-892.396 499.222,-890.993"/>
</g>
<!-- Properties_identity_of_helper_helper -->
<g id="node10" class="node"><title>Properties_identity_of_helper_helper</title>
<a xlink:href="Properties.html#identity_of_helper_helper" xlink:title="identity_of_helper_helper">
<ellipse fill="#f070d1" stroke="black" cx="152" cy="-863.381" rx="135.765" ry="18.3848"/>
<text text-anchor="middle" x="152" y="-859.781" font-family="Times Roman,serif" font-size="14.00">identity_of_helper_helper</text>
</a>
</g>
<!-- Properties_identity_of_subproof&#45;&gt;Properties_identity_of_helper_helper -->
<g id="edge24" class="edge"><title>Properties_identity_of_subproof&#45;&gt;Properties_identity_of_helper_helper</title>
<path fill="none" stroke="black" d="M609.663,-1494.97C543.416,-1403.55 249.81,-998.362 171.339,-890.069"/>
<polygon fill="black" stroke="black" points="174.147,-887.98 165.446,-881.936 168.479,-892.087 174.147,-887.98"/>
</g>
<!-- Properties_identity_of_subproof&#45;&gt;Core_pointwise_morphism_of -->
<g id="edge26" class="edge"><title>Properties_identity_of_subproof&#45;&gt;Core_pointwise_morphism_of</title>
<path fill="none" stroke="black" d="M658.757,-1495.67C784.888,-1431.42 1213.65,-1197.73 1441,-882.381 1579.92,-689.692 1633.9,-397.497 1647.98,-305.881"/>
<polygon fill="black" stroke="black" points="1651.44,-306.369 1649.47,-295.961 1644.52,-305.331 1651.44,-306.369"/>
</g>
<!-- Properties_identity_of_helper&#45;&gt;Properties_identity_of_helper_helper -->
<g id="edge28" class="edge"><title>Properties_identity_of_helper&#45;&gt;Properties_identity_of_helper_helper</title>
<path fill="none" stroke="black" d="M228.721,-1494.63C217.593,-1403.07 168.962,-1002.94 155.478,-891.997"/>
<polygon fill="black" stroke="black" points="158.932,-891.402 154.25,-881.897 151.983,-892.247 158.932,-891.402"/>
</g>
<!-- Pointwise_composition_of -->
<g id="node11" class="node"><title>Pointwise_composition_of</title>
<a xlink:href="Pointwise.html#composition_of" xlink:title="composition_of">
<ellipse fill="#f070d1" stroke="black" cx="3933" cy="-3034.38" rx="84.1457" ry="18.3848"/>
<ellipse fill="none" stroke="black" cx="3933" cy="-3034.38" rx="88.1457" ry="22.3848"/>
<ellipse fill="none" stroke="black" cx="3933" cy="-3034.38" rx="92.1457" ry="26.3848"/>
<text text-anchor="middle" x="3933" y="-3030.78" font-family="Times Roman,serif" font-size="14.00">composition_of</text>
</a>
</g>
<!-- Pointwise_composition_of_subproof -->
<g id="node12" class="node"><title>Pointwise_composition_of_subproof</title>
<a xlink:href="Pointwise.html#composition_of_subproof" xlink:title="composition_of_subproof">
<ellipse fill="#f070d1" stroke="black" cx="3933" cy="-2273.38" rx="130.815" ry="18.3848"/>
<text text-anchor="middle" x="3933" y="-2269.78" font-family="Times Roman,serif" font-size="14.00">composition_of_subproof</text>
</a>
</g>
<!-- Pointwise_composition_of&#45;&gt;Pointwise_composition_of_subproof -->
<g id="edge30" class="edge"><title>Pointwise_composition_of&#45;&gt;Pointwise_composition_of_subproof</title>
<path fill="none" stroke="black" d="M3933,-3007.74C3933,-2890.9 3933,-2424.18 3933,-2302.51"/>
<polygon fill="black" stroke="black" points="3936.5,-2302.14 3933,-2292.14 3929.5,-2302.14 3936.5,-2302.14"/>
</g>
<!-- Pointwise_composition_of_helper -->
<g id="node13" class="node"><title>Pointwise_composition_of_helper</title>
<a xlink:href="Pointwise.html#composition_of_helper" xlink:title="composition_of_helper">
<ellipse fill="#f070d1" stroke="black" cx="4202" cy="-2273.38" rx="120.208" ry="18.3848"/>
<text text-anchor="middle" x="4202" y="-2269.78" font-family="Times Roman,serif" font-size="14.00">composition_of_helper</text>
</a>
</g>
<!-- Pointwise_composition_of&#45;&gt;Pointwise_composition_of_helper -->
<g id="edge32" class="edge"><title>Pointwise_composition_of&#45;&gt;Pointwise_composition_of_helper</title>
<path fill="none" stroke="black" d="M3942.42,-3007.74C3983.8,-2890.67 4149.36,-2422.3 4191.96,-2301.78"/>
<polygon fill="black" stroke="black" points="4195.33,-2302.74 4195.37,-2292.14 4188.74,-2300.4 4195.33,-2302.74"/>
</g>
<!-- Pointwise_composition_of&#45;&gt;Core_pointwise -->
<g id="edge34" class="edge"><title>Pointwise_composition_of&#45;&gt;Core_pointwise</title>
<path fill="none" stroke="black" d="M3897.83,-3009.87C3639.03,-2829.56 2032.69,-1710.35 1782.69,-1536.16"/>
<polygon fill="black" stroke="black" points="1784.58,-1533.21 1774.38,-1530.36 1780.58,-1538.95 1784.58,-1533.21"/>
</g>
<!-- Pointwise_composition_of_subproof&#45;&gt;Properties_composition_of_subproof -->
<g id="edge36" class="edge"><title>Pointwise_composition_of_subproof&#45;&gt;Properties_composition_of_subproof</title>
<path fill="none" stroke="black" d="M3874.77,-2256.8C3525.2,-2157.26 1707.59,-1639.69 1331.97,-1532.73"/>
<polygon fill="black" stroke="black" points="1332.89,-1529.36 1322.32,-1529.99 1330.98,-1536.09 1332.89,-1529.36"/>
</g>
<!-- Pointwise_composition_of_helper_helper -->
<g id="node15" class="node"><title>Pointwise_composition_of_helper_helper</title>
<a xlink:href="Pointwise.html#composition_of_helper_helper" xlink:title="composition_of_helper_helper">
<ellipse fill="#f070d1" stroke="black" cx="4202" cy="-1513.38" rx="155.771" ry="18.3848"/>
<text text-anchor="middle" x="4202" y="-1509.78" font-family="Times Roman,serif" font-size="14.00">composition_of_helper_helper</text>
</a>
</g>
<!-- Pointwise_composition_of_helper&#45;&gt;Pointwise_composition_of_helper_helper -->
<g id="edge38" class="edge"><title>Pointwise_composition_of_helper&#45;&gt;Pointwise_composition_of_helper_helper</title>
<path fill="none" stroke="black" d="M4202,-2254.59C4202,-2152.75 4202,-1666.85 4202,-1542.45"/>
<polygon fill="black" stroke="black" points="4205.5,-1542.19 4202,-1532.19 4198.5,-1542.19 4205.5,-1542.19"/>
</g>
<!-- Pointwise_composition_of_helper_helper_object_of -->
<g id="node14" class="node"><title>Pointwise_composition_of_helper_helper_object_of</title>
<a xlink:href="Pointwise.html#composition_of_helper_helper_object_of" xlink:title="composition_of_helper_helper_object_of">
<ellipse fill="#f070d1" stroke="black" cx="6108" cy="-3034.38" rx="205.061" ry="18.3848"/>
<ellipse fill="none" stroke="black" cx="6108" cy="-3034.38" rx="209.061" ry="22.3848"/>
<ellipse fill="none" stroke="black" cx="6108" cy="-3034.38" rx="213.061" ry="26.3848"/>
<text text-anchor="middle" x="6108" y="-3030.78" font-family="Times Roman,serif" font-size="14.00">composition_of_helper_helper_object_of</text>
</a>
</g>
<!-- Pointwise_identity_of -->
<g id="node16" class="node"><title>Pointwise_identity_of</title>
<a xlink:href="Pointwise.html#identity_of" xlink:title="identity_of">
<ellipse fill="#f070d1" stroke="black" cx="3457" cy="-3034.38" rx="63.1946" ry="18.3848"/>
<ellipse fill="none" stroke="black" cx="3457" cy="-3034.38" rx="67.1666" ry="22.3848"/>
<ellipse fill="none" stroke="black" cx="3457" cy="-3034.38" rx="71.1386" ry="26.3848"/>
<text text-anchor="middle" x="3457" y="-3030.78" font-family="Times Roman,serif" font-size="14.00">identity_of</text>
</a>
</g>
<!-- Pointwise_identity_of_subproof -->
<g id="node17" class="node"><title>Pointwise_identity_of_subproof</title>
<a xlink:href="Pointwise.html#identity_of_subproof" xlink:title="identity_of_subproof">
<ellipse fill="#f070d1" stroke="black" cx="3457" cy="-2273.38" rx="111.016" ry="18.3848"/>
<text text-anchor="middle" x="3457" y="-2269.78" font-family="Times Roman,serif" font-size="14.00">identity_of_subproof</text>
</a>
</g>
<!-- Pointwise_identity_of&#45;&gt;Pointwise_identity_of_subproof -->
<g id="edge40" class="edge"><title>Pointwise_identity_of&#45;&gt;Pointwise_identity_of_subproof</title>
<path fill="none" stroke="black" d="M3457,-3007.74C3457,-2890.9 3457,-2424.18 3457,-2302.51"/>
<polygon fill="black" stroke="black" points="3460.5,-2302.14 3457,-2292.14 3453.5,-2302.14 3460.5,-2302.14"/>
</g>
<!-- Pointwise_identity_of_helper -->
<g id="node18" class="node"><title>Pointwise_identity_of_helper</title>
<a xlink:href="Pointwise.html#identity_of_helper" xlink:title="identity_of_helper">
<ellipse fill="#f070d1" stroke="black" cx="3685" cy="-2273.38" rx="99.201" ry="18.3848"/>
<text text-anchor="middle" x="3685" y="-2269.78" font-family="Times Roman,serif" font-size="14.00">identity_of_helper</text>
</a>
</g>
<!-- Pointwise_identity_of&#45;&gt;Pointwise_identity_of_helper -->
<g id="edge42" class="edge"><title>Pointwise_identity_of&#45;&gt;Pointwise_identity_of_helper</title>
<path fill="none" stroke="black" d="M3464.98,-3007.74C3500.06,-2890.67 3640.38,-2422.3 3676.49,-2301.78"/>
<polygon fill="black" stroke="black" points="3679.86,-2302.73 3679.38,-2292.14 3673.16,-2300.72 3679.86,-2302.73"/>
</g>
<!-- Pointwise_identity_of&#45;&gt;Core_pointwise -->
<g id="edge44" class="edge"><title>Pointwise_identity_of&#45;&gt;Core_pointwise</title>
<path fill="none" stroke="black" d="M3429.5,-3009.87C3227.74,-2830.1 1978.63,-1717.1 1777.36,-1537.76"/>
<polygon fill="black" stroke="black" points="1779.4,-1534.89 1769.6,-1530.85 1774.74,-1540.11 1779.4,-1534.89"/>
</g>
<!-- Pointwise_identity_of_subproof&#45;&gt;Properties_identity_of_subproof -->
<g id="edge46" class="edge"><title>Pointwise_identity_of_subproof&#45;&gt;Properties_identity_of_subproof</title>
<path fill="none" stroke="black" d="M3395.58,-2257.88C3106.01,-2184.65 1848.38,-1864.71 825,-1574.38 777.953,-1561.03 725.045,-1545.02 685.181,-1532.75"/>
<polygon fill="black" stroke="black" points="686.184,-1529.4 675.597,-1529.79 684.121,-1536.09 686.184,-1529.4"/>
</g>
<!-- Pointwise_identity_of_helper_helper -->
<g id="node20" class="node"><title>Pointwise_identity_of_helper_helper</title>
<a xlink:href="Pointwise.html#identity_of_helper_helper" xlink:title="identity_of_helper_helper">
<ellipse fill="#f070d1" stroke="black" cx="3685" cy="-1513.38" rx="135.765" ry="18.3848"/>
<text text-anchor="middle" x="3685" y="-1509.78" font-family="Times Roman,serif" font-size="14.00">identity_of_helper_helper</text>
</a>
</g>
<!-- Pointwise_identity_of_helper&#45;&gt;Pointwise_identity_of_helper_helper -->
<g id="edge48" class="edge"><title>Pointwise_identity_of_helper&#45;&gt;Pointwise_identity_of_helper_helper</title>
<path fill="none" stroke="black" d="M3685,-2254.59C3685,-2152.75 3685,-1666.85 3685,-1542.45"/>
<polygon fill="black" stroke="black" points="3688.5,-1542.19 3685,-1532.19 3681.5,-1542.19 3688.5,-1542.19"/>
</g>
<!-- Pointwise_identity_of_helper_helper_object_of -->
<g id="node19" class="node"><title>Pointwise_identity_of_helper_helper_object_of</title>
<a xlink:href="Pointwise.html#identity_of_helper_helper_object_of" xlink:title="identity_of_helper_helper_object_of">
<ellipse fill="#f070d1" stroke="black" cx="5119" cy="-3034.38" rx="184.076" ry="18.3848"/>
<ellipse fill="none" stroke="black" cx="5119" cy="-3034.38" rx="188.065" ry="22.3848"/>
<ellipse fill="none" stroke="black" cx="5119" cy="-3034.38" rx="192.055" ry="26.3848"/>
<text text-anchor="middle" x="5119" y="-3030.78" font-family="Times Roman,serif" font-size="14.00">identity_of_helper_helper_object_of</text>
</a>
</g>
<!-- Pointwise_pointwise_whiskerR -->
<g id="node21" class="node"><title>Pointwise_pointwise_whiskerR</title>
<a xlink:href="Pointwise.html#pointwise_whiskerR" xlink:title="pointwise_whiskerR">
<ellipse fill="#f070d1" stroke="black" cx="6612" cy="-3034.38" rx="109.135" ry="18.3848"/>
<ellipse fill="none" stroke="black" cx="6612" cy="-3034.38" rx="113.118" ry="22.3848"/>
<ellipse fill="none" stroke="black" cx="6612" cy="-3034.38" rx="117.101" ry="26.3848"/>
<text text-anchor="middle" x="6612" y="-3030.78" font-family="Times Roman,serif" font-size="14.00">pointwise_whiskerR</text>
</a>
</g>
<!-- Pointwise_pointwise_whiskerR_subproof0 -->
<g id="node22" class="node"><title>Pointwise_pointwise_whiskerR_subproof0</title>
<a xlink:href="Pointwise.html#pointwise_whiskerR_subproof0" xlink:title="pointwise_whiskerR_subproof0">
<ellipse fill="#f070d1" stroke="black" cx="6612" cy="-2273.38" rx="162.134" ry="18.3848"/>
<text text-anchor="middle" x="6612" y="-2269.78" font-family="Times Roman,serif" font-size="14.00">pointwise_whiskerR_subproof0</text>
</a>
</g>
<!-- Pointwise_pointwise_whiskerR&#45;&gt;Pointwise_pointwise_whiskerR_subproof0 -->
<g id="edge50" class="edge"><title>Pointwise_pointwise_whiskerR&#45;&gt;Pointwise_pointwise_whiskerR_subproof0</title>
<path fill="none" stroke="black" d="M6612,-3007.74C6612,-2890.9 6612,-2424.18 6612,-2302.51"/>
<polygon fill="black" stroke="black" points="6615.5,-2302.14 6612,-2292.14 6608.5,-2302.14 6615.5,-2302.14"/>
</g>
<!-- Pointwise_pointwise_whiskerR_subproof -->
<g id="node23" class="node"><title>Pointwise_pointwise_whiskerR_subproof</title>
<a xlink:href="Pointwise.html#pointwise_whiskerR_subproof" xlink:title="pointwise_whiskerR_subproof">
<ellipse fill="#f070d1" stroke="black" cx="6276" cy="-2273.38" rx="155.771" ry="18.3848"/>
<text text-anchor="middle" x="6276" y="-2269.78" font-family="Times Roman,serif" font-size="14.00">pointwise_whiskerR_subproof</text>
</a>
</g>
<!-- Pointwise_pointwise_whiskerR&#45;&gt;Pointwise_pointwise_whiskerR_subproof -->
<g id="edge52" class="edge"><title>Pointwise_pointwise_whiskerR&#45;&gt;Pointwise_pointwise_whiskerR_subproof</title>
<path fill="none" stroke="black" d="M6600.24,-3007.74C6548.5,-2890.55 6341.34,-2421.36 6288.38,-2301.42"/>
<polygon fill="black" stroke="black" points="6291.53,-2299.88 6284.28,-2292.14 6285.12,-2302.7 6291.53,-2299.88"/>
</g>
<!-- Pointwise_pointwise_whiskerR_morphism_of -->
<g id="node30" class="node"><title>Pointwise_pointwise_whiskerR_morphism_of</title>
<a xlink:href="Pointwise.html#pointwise_whiskerR_morphism_of" xlink:title="pointwise_whiskerR_morphism_of">
<ellipse fill="#f070d1" stroke="black" cx="6969" cy="-2273.38" rx="176.777" ry="18.3848"/>
<text text-anchor="middle" x="6969" y="-2269.78" font-family="Times Roman,serif" font-size="14.00">pointwise_whiskerR_morphism_of</text>
</a>
</g>
<!-- Pointwise_pointwise_whiskerR&#45;&gt;Pointwise_pointwise_whiskerR_morphism_of -->
<g id="edge54" class="edge"><title>Pointwise_pointwise_whiskerR&#45;&gt;Pointwise_pointwise_whiskerR_morphism_of</title>
<path fill="none" stroke="black" d="M6624.5,-3007.74C6679.47,-2890.55 6899.58,-2421.36 6955.85,-2301.42"/>
<polygon fill="black" stroke="black" points="6959.12,-2302.68 6960.2,-2292.14 6952.78,-2299.71 6959.12,-2302.68"/>
</g>
<!-- Core_pointwise_whiskerR_subproof0 -->
<g id="node34" class="node"><title>Core_pointwise_whiskerR_subproof0</title>
<a xlink:href="Core.html#pointwise_whiskerR_subproof0" xlink:title="pointwise_whiskerR_subproof0">
<ellipse fill="#facdef" stroke="black" cx="3160" cy="-863.381" rx="162.134" ry="18.3848"/>
<text text-anchor="middle" x="3160" y="-859.781" font-family="Times Roman,serif" font-size="14.00">pointwise_whiskerR_subproof0</text>
</a>
</g>
<!-- Pointwise_pointwise_whiskerR_subproof0&#45;&gt;Core_pointwise_whiskerR_subproof0 -->
<g id="edge56" class="edge"><title>Pointwise_pointwise_whiskerR_subproof0&#45;&gt;Core_pointwise_whiskerR_subproof0</title>
<path fill="none" stroke="black" d="M6597.76,-2254.65C6522.5,-2157.01 6159.03,-1702.7 5752,-1486.38 4903.16,-1035.26 3725.51,-906.063 3311.34,-873.368"/>
<polygon fill="black" stroke="black" points="3311.35,-869.858 3301.1,-872.567 3310.8,-876.836 3311.35,-869.858"/>
</g>
<!-- Core_pointwise_whiskerR_subproof -->
<g id="node35" class="node"><title>Core_pointwise_whiskerR_subproof</title>
<a xlink:href="Core.html#pointwise_whiskerR_subproof" xlink:title="pointwise_whiskerR_subproof">
<ellipse fill="#facdef" stroke="black" cx="2824" cy="-863.381" rx="155.771" ry="18.3848"/>
<text text-anchor="middle" x="2824" y="-859.781" font-family="Times Roman,serif" font-size="14.00">pointwise_whiskerR_subproof</text>
</a>
</g>
<!-- Pointwise_pointwise_whiskerR_subproof&#45;&gt;Core_pointwise_whiskerR_subproof -->
<g id="edge58" class="edge"><title>Pointwise_pointwise_whiskerR_subproof&#45;&gt;Core_pointwise_whiskerR_subproof</title>
<path fill="none" stroke="black" d="M6256.13,-2254.75C6152.47,-2158.55 5660,-1713.85 5177,-1486.38 4367.56,-1105.17 3287.54,-928.382 2938.17,-878.632"/>
<polygon fill="black" stroke="black" points="2938.44,-875.135 2928.05,-877.197 2937.46,-882.066 2938.44,-875.135"/>
</g>
<!-- Pointwise_pointwise_whiskerL -->
<g id="node24" class="node"><title>Pointwise_pointwise_whiskerL</title>
<a xlink:href="Pointwise.html#pointwise_whiskerL" xlink:title="pointwise_whiskerL">
<ellipse fill="#f070d1" stroke="black" cx="5605" cy="-3034.38" rx="108.187" ry="18.3848"/>
<ellipse fill="none" stroke="black" cx="5605" cy="-3034.38" rx="112.187" ry="22.3848"/>
<ellipse fill="none" stroke="black" cx="5605" cy="-3034.38" rx="116.187" ry="26.3848"/>
<text text-anchor="middle" x="5605" y="-3030.78" font-family="Times Roman,serif" font-size="14.00">pointwise_whiskerL</text>
</a>
</g>
<!-- Pointwise_pointwise_whiskerL_subproof0 -->
<g id="node25" class="node"><title>Pointwise_pointwise_whiskerL_subproof0</title>
<a xlink:href="Pointwise.html#pointwise_whiskerL_subproof0" xlink:title="pointwise_whiskerL_subproof0">
<ellipse fill="#f070d1" stroke="black" cx="5940" cy="-2273.38" rx="161.927" ry="18.3848"/>
<text text-anchor="middle" x="5940" y="-2269.78" font-family="Times Roman,serif" font-size="14.00">pointwise_whiskerL_subproof0</text>
</a>
</g>
<!-- Pointwise_pointwise_whiskerL&#45;&gt;Pointwise_pointwise_whiskerL_subproof0 -->
<g id="edge60" class="edge"><title>Pointwise_pointwise_whiskerL&#45;&gt;Pointwise_pointwise_whiskerL_subproof0</title>
<path fill="none" stroke="black" d="M5616.73,-3007.74C5668.32,-2890.55 5874.86,-2421.36 5927.66,-2301.42"/>
<polygon fill="black" stroke="black" points="5930.91,-2302.71 5931.74,-2292.14 5924.51,-2299.89 5930.91,-2302.71"/>
</g>
<!-- Pointwise_pointwise_whiskerL_subproof -->
<g id="node26" class="node"><title>Pointwise_pointwise_whiskerL_subproof</title>
<a xlink:href="Pointwise.html#pointwise_whiskerL_subproof" xlink:title="pointwise_whiskerL_subproof">
<ellipse fill="#f070d1" stroke="black" cx="5605" cy="-2273.38" rx="155.063" ry="18.3848"/>
<text text-anchor="middle" x="5605" y="-2269.78" font-family="Times Roman,serif" font-size="14.00">pointwise_whiskerL_subproof</text>
</a>
</g>
<!-- Pointwise_pointwise_whiskerL&#45;&gt;Pointwise_pointwise_whiskerL_subproof -->
<g id="edge62" class="edge"><title>Pointwise_pointwise_whiskerL&#45;&gt;Pointwise_pointwise_whiskerL_subproof</title>
<path fill="none" stroke="black" d="M5605,-3007.74C5605,-2890.9 5605,-2424.18 5605,-2302.51"/>
<polygon fill="black" stroke="black" points="5608.5,-2302.14 5605,-2292.14 5601.5,-2302.14 5608.5,-2302.14"/>
</g>
<!-- Pointwise_pointwise_whiskerL_morphism_of -->
<g id="node31" class="node"><title>Pointwise_pointwise_whiskerL_morphism_of</title>
<a xlink:href="Pointwise.html#pointwise_whiskerL_morphism_of" xlink:title="pointwise_whiskerL_morphism_of">
<ellipse fill="#f070d1" stroke="black" cx="5257" cy="-2273.38" rx="174.863" ry="18.3848"/>
<text text-anchor="middle" x="5257" y="-2269.78" font-family="Times Roman,serif" font-size="14.00">pointwise_whiskerL_morphism_of</text>
</a>
</g>
<!-- Pointwise_pointwise_whiskerL&#45;&gt;Pointwise_pointwise_whiskerL_morphism_of -->
<g id="edge64" class="edge"><title>Pointwise_pointwise_whiskerL&#45;&gt;Pointwise_pointwise_whiskerL_morphism_of</title>
<path fill="none" stroke="black" d="M5592.82,-3007.74C5539.23,-2890.55 5324.67,-2421.36 5269.82,-2301.42"/>
<polygon fill="black" stroke="black" points="5272.92,-2299.78 5265.58,-2292.14 5266.56,-2302.69 5272.92,-2299.78"/>
</g>
<!-- Core_pointwise_whiskerL_subproof0 -->
<g id="node37" class="node"><title>Core_pointwise_whiskerL_subproof0</title>
<a xlink:href="Core.html#pointwise_whiskerL_subproof0" xlink:title="pointwise_whiskerL_subproof0">
<ellipse fill="#facdef" stroke="black" cx="2488" cy="-863.381" rx="161.927" ry="18.3848"/>
<text text-anchor="middle" x="2488" y="-859.781" font-family="Times Roman,serif" font-size="14.00">pointwise_whiskerL_subproof0</text>
</a>
</g>
<!-- Pointwise_pointwise_whiskerL_subproof0&#45;&gt;Core_pointwise_whiskerL_subproof0 -->
<g id="edge66" class="edge"><title>Pointwise_pointwise_whiskerL_subproof0&#45;&gt;Core_pointwise_whiskerL_subproof0</title>
<path fill="none" stroke="black" d="M5907.88,-2255.12C5746.49,-2163.81 5006.53,-1750.78 4367,-1486.38 3680.22,-1202.45 2813.04,-953.683 2560.21,-883.253"/>
<polygon fill="black" stroke="black" points="2560.98,-879.834 2550.41,-880.526 2559.1,-886.578 2560.98,-879.834"/>
</g>
<!-- Core_pointwise_whiskerL_subproof -->
<g id="node38" class="node"><title>Core_pointwise_whiskerL_subproof</title>
<a xlink:href="Core.html#pointwise_whiskerL_subproof" xlink:title="pointwise_whiskerL_subproof">
<ellipse fill="#facdef" stroke="black" cx="2153" cy="-863.381" rx="155.063" ry="18.3848"/>
<text text-anchor="middle" x="2153" y="-859.781" font-family="Times Roman,serif" font-size="14.00">pointwise_whiskerL_subproof</text>
</a>
</g>
<!-- Pointwise_pointwise_whiskerL_subproof&#45;&gt;Core_pointwise_whiskerL_subproof -->
<g id="edge68" class="edge"><title>Pointwise_pointwise_whiskerL_subproof&#45;&gt;Core_pointwise_whiskerL_subproof</title>
<path fill="none" stroke="black" d="M5543.82,-2256.27C5291.83,-2185.03 4311.29,-1900.51 3540,-1574.38 3259.11,-1455.61 2397.53,-994.759 2195.65,-886.322"/>
<polygon fill="black" stroke="black" points="2197.27,-883.224 2186.81,-881.574 2193.96,-889.39 2197.27,-883.224"/>
</g>
<!-- Pointwise_pointwise -->
<g id="node27" class="node"><title>Pointwise_pointwise</title>
<a xlink:href="Pointwise.html#pointwise" xlink:title="pointwise">
<ellipse fill="#f070d1" stroke="black" cx="4682" cy="-3034.38" rx="58.2486" ry="18.3848"/>
<ellipse fill="none" stroke="black" cx="4682" cy="-3034.38" rx="62.2185" ry="22.3848"/>
<ellipse fill="none" stroke="black" cx="4682" cy="-3034.38" rx="66.1884" ry="26.3848"/>
<text text-anchor="middle" x="4682" y="-3030.78" font-family="Times Roman,serif" font-size="14.00">pointwise</text>
</a>
</g>
<!-- Pointwise_pointwise_subproof0 -->
<g id="node28" class="node"><title>Pointwise_pointwise_subproof0</title>
<a xlink:href="Pointwise.html#pointwise_subproof0" xlink:title="pointwise_subproof0">
<ellipse fill="#f070d1" stroke="black" cx="4682" cy="-2273.38" rx="111.93" ry="18.3848"/>
<text text-anchor="middle" x="4682" y="-2269.78" font-family="Times Roman,serif" font-size="14.00">pointwise_subproof0</text>
</a>
</g>
<!-- Pointwise_pointwise&#45;&gt;Pointwise_pointwise_subproof0 -->
<g id="edge70" class="edge"><title>Pointwise_pointwise&#45;&gt;Pointwise_pointwise_subproof0</title>
<path fill="none" stroke="black" d="M4682,-3007.74C4682,-2890.9 4682,-2424.18 4682,-2302.51"/>
<polygon fill="black" stroke="black" points="4685.5,-2302.14 4682,-2292.14 4678.5,-2302.14 4685.5,-2302.14"/>
</g>
<!-- Pointwise_pointwise_subproof -->
<g id="node29" class="node"><title>Pointwise_pointwise_subproof</title>
<a xlink:href="Pointwise.html#pointwise_subproof" xlink:title="pointwise_subproof">
<ellipse fill="#f070d1" stroke="black" cx="4446" cy="-2273.38" rx="106.066" ry="18.3848"/>
<text text-anchor="middle" x="4446" y="-2269.78" font-family="Times Roman,serif" font-size="14.00">pointwise_subproof</text>
</a>
</g>
<!-- Pointwise_pointwise&#45;&gt;Pointwise_pointwise_subproof -->
<g id="edge72" class="edge"><title>Pointwise_pointwise&#45;&gt;Pointwise_pointwise_subproof</title>
<path fill="none" stroke="black" d="M4673.74,-3007.74C4637.43,-2890.67 4492.18,-2422.3 4454.81,-2301.78"/>
<polygon fill="black" stroke="black" points="4458.12,-2300.66 4451.82,-2292.14 4451.44,-2302.73 4458.12,-2300.66"/>
</g>
<!-- Pointwise_pointwise_morphism_of -->
<g id="node32" class="node"><title>Pointwise_pointwise_morphism_of</title>
<a xlink:href="Pointwise.html#pointwise_morphism_of" xlink:title="pointwise_morphism_of">
<ellipse fill="#f070d1" stroke="black" cx="4938" cy="-2273.38" rx="126.072" ry="18.3848"/>
<text text-anchor="middle" x="4938" y="-2269.78" font-family="Times Roman,serif" font-size="14.00">pointwise_morphism_of</text>
</a>
</g>
<!-- Pointwise_pointwise&#45;&gt;Pointwise_pointwise_morphism_of -->
<g id="edge74" class="edge"><title>Pointwise_pointwise&#45;&gt;Pointwise_pointwise_morphism_of</title>
<path fill="none" stroke="black" d="M4690.96,-3007.74C4730.34,-2890.67 4887.9,-2422.3 4928.45,-2301.78"/>
<polygon fill="black" stroke="black" points="4931.82,-2302.74 4931.69,-2292.14 4925.18,-2300.51 4931.82,-2302.74"/>
</g>
<!-- Core_pointwise_subproof0 -->
<g id="node40" class="node"><title>Core_pointwise_subproof0</title>
<a xlink:href="Core.html#pointwise_subproof0" xlink:title="pointwise_subproof0">
<ellipse fill="#facdef" stroke="black" cx="1868" cy="-863.381" rx="111.93" ry="18.3848"/>
<text text-anchor="middle" x="1868" y="-859.781" font-family="Times Roman,serif" font-size="14.00">pointwise_subproof0</text>
</a>
</g>
<!-- Pointwise_pointwise_subproof0&#45;&gt;Core_pointwise_subproof0 -->
<g id="edge76" class="edge"><title>Pointwise_pointwise_subproof0&#45;&gt;Core_pointwise_subproof0</title>
<path fill="none" stroke="black" d="M4651.27,-2255.28C4500.63,-2166.82 3824.31,-1772.59 3251,-1486.38 2739.74,-1231.14 2101.55,-960.991 1918.93,-884.588"/>
<polygon fill="black" stroke="black" points="1920.15,-881.303 1909.57,-880.674 1917.45,-887.761 1920.15,-881.303"/>
</g>
<!-- Core_pointwise_subproof -->
<g id="node41" class="node"><title>Core_pointwise_subproof</title>
<a xlink:href="Core.html#pointwise_subproof" xlink:title="pointwise_subproof">
<ellipse fill="#facdef" stroke="black" cx="1632" cy="-863.381" rx="106.066" ry="18.3848"/>
<text text-anchor="middle" x="1632" y="-859.781" font-family="Times Roman,serif" font-size="14.00">pointwise_subproof</text>
</a>
</g>
<!-- Pointwise_pointwise_subproof&#45;&gt;Core_pointwise_subproof -->
<g id="edge78" class="edge"><title>Pointwise_pointwise_subproof&#45;&gt;Core_pointwise_subproof</title>
<path fill="none" stroke="black" d="M4414.64,-2255.64C4260.22,-2168.48 3564.49,-1778.01 2980,-1486.38 2478.81,-1236.32 1857.46,-962.001 1680.85,-884.691"/>
<polygon fill="black" stroke="black" points="1682.12,-881.427 1671.56,-880.625 1679.32,-887.84 1682.12,-881.427"/>
</g>
<!-- Core_pointwise_whiskerR -->
<g id="node33" class="node"><title>Core_pointwise_whiskerR</title>
<a xlink:href="Core.html#pointwise_whiskerR" xlink:title="pointwise_whiskerR">
<ellipse fill="#f070d1" stroke="black" cx="2854" cy="-1513.38" rx="109.135" ry="18.3848"/>
<ellipse fill="none" stroke="black" cx="2854" cy="-1513.38" rx="113.118" ry="22.3848"/>
<ellipse fill="none" stroke="black" cx="2854" cy="-1513.38" rx="117.101" ry="26.3848"/>
<text text-anchor="middle" x="2854" y="-1509.78" font-family="Times Roman,serif" font-size="14.00">pointwise_whiskerR</text>
</a>
</g>
<!-- Core_pointwise_whiskerR&#45;&gt;Core_pointwise_whiskerR_subproof0 -->
<g id="edge80" class="edge"><title>Core_pointwise_whiskerR&#45;&gt;Core_pointwise_whiskerR_subproof0</title>
<path fill="none" stroke="black" d="M2866.57,-1486.69C2915.97,-1381.75 3096.6,-998.044 3146.92,-891.175"/>
<polygon fill="black" stroke="black" points="3150.15,-892.531 3151.24,-881.993 3143.81,-889.549 3150.15,-892.531"/>
</g>
<!-- Core_pointwise_whiskerR&#45;&gt;Core_pointwise_whiskerR_subproof -->
<g id="edge82" class="edge"><title>Core_pointwise_whiskerR&#45;&gt;Core_pointwise_whiskerR_subproof</title>
<path fill="none" stroke="black" d="M2852.77,-1486.69C2847.94,-1382.06 2830.32,-1000.36 2825.33,-892.151"/>
<polygon fill="black" stroke="black" points="2828.82,-891.82 2824.86,-881.993 2821.82,-892.143 2828.82,-891.82"/>
</g>
<!-- Core_pointwise_whiskerR_morphism_of -->
<g id="node42" class="node"><title>Core_pointwise_whiskerR_morphism_of</title>
<a xlink:href="Core.html#pointwise_whiskerR_morphism_of" xlink:title="pointwise_whiskerR_morphism_of">
<ellipse fill="#f070d1" stroke="black" cx="2984" cy="-277.381" rx="176.777" ry="18.3848"/>
<text text-anchor="middle" x="2984" y="-273.781" font-family="Times Roman,serif" font-size="14.00">pointwise_whiskerR_morphism_of</text>
</a>
</g>
<!-- Core_pointwise_whiskerR_subproof0&#45;&gt;Core_pointwise_whiskerR_morphism_of -->
<g id="edge84" class="edge"><title>Core_pointwise_whiskerR_subproof0&#45;&gt;Core_pointwise_whiskerR_morphism_of</title>
<path fill="none" stroke="black" d="M3154.44,-844.875C3128.96,-760.047 3023.27,-408.129 2992.46,-305.556"/>
<polygon fill="black" stroke="black" points="2995.79,-304.461 2989.56,-295.891 2989.08,-306.475 2995.79,-304.461"/>
</g>
<!-- Core_pointwise_whiskerR_subproof&#45;&gt;Core_pointwise_whiskerR_morphism_of -->
<g id="edge86" class="edge"><title>Core_pointwise_whiskerR_subproof&#45;&gt;Core_pointwise_whiskerR_morphism_of</title>
<path fill="none" stroke="black" d="M2829.05,-844.875C2852.21,-760.047 2948.3,-408.129 2976.31,-305.556"/>
<polygon fill="black" stroke="black" points="2979.69,-306.459 2978.95,-295.891 2972.94,-304.616 2979.69,-306.459"/>
</g>
<!-- Core_pointwise_whiskerL -->
<g id="node36" class="node"><title>Core_pointwise_whiskerL</title>
<a xlink:href="Core.html#pointwise_whiskerL" xlink:title="pointwise_whiskerL">
<ellipse fill="#f070d1" stroke="black" cx="2320" cy="-1513.38" rx="108.187" ry="18.3848"/>
<ellipse fill="none" stroke="black" cx="2320" cy="-1513.38" rx="112.187" ry="22.3848"/>
<ellipse fill="none" stroke="black" cx="2320" cy="-1513.38" rx="116.187" ry="26.3848"/>
<text text-anchor="middle" x="2320" y="-1509.78" font-family="Times Roman,serif" font-size="14.00">pointwise_whiskerL</text>
</a>
</g>
<!-- Core_pointwise_whiskerL&#45;&gt;Core_pointwise_whiskerL_subproof0 -->
<g id="edge88" class="edge"><title>Core_pointwise_whiskerL&#45;&gt;Core_pointwise_whiskerL_subproof0</title>
<path fill="none" stroke="black" d="M2326.9,-1486.69C2353.97,-1381.96 2452.8,-999.589 2480.65,-891.824"/>
<polygon fill="black" stroke="black" points="2484.08,-892.55 2483.19,-881.993 2477.3,-890.798 2484.08,-892.55"/>
</g>
<!-- Core_pointwise_whiskerL&#45;&gt;Core_pointwise_whiskerL_subproof -->
<g id="edge90" class="edge"><title>Core_pointwise_whiskerL&#45;&gt;Core_pointwise_whiskerL_subproof</title>
<path fill="none" stroke="black" d="M2313.14,-1486.69C2286.23,-1381.96 2188,-999.589 2160.31,-891.824"/>
<polygon fill="black" stroke="black" points="2163.66,-890.807 2157.78,-881.993 2156.88,-892.549 2163.66,-890.807"/>
</g>
<!-- Core_pointwise_whiskerL_morphism_of -->
<g id="node43" class="node"><title>Core_pointwise_whiskerL_morphism_of</title>
<a xlink:href="Core.html#pointwise_whiskerL_morphism_of" xlink:title="pointwise_whiskerL_morphism_of">
<ellipse fill="#f070d1" stroke="black" cx="2320" cy="-277.381" rx="174.863" ry="18.3848"/>
<text text-anchor="middle" x="2320" y="-273.781" font-family="Times Roman,serif" font-size="14.00">pointwise_whiskerL_morphism_of</text>
</a>
</g>
<!-- Core_pointwise_whiskerL_subproof0&#45;&gt;Core_pointwise_whiskerL_morphism_of -->
<g id="edge92" class="edge"><title>Core_pointwise_whiskerL_subproof0&#45;&gt;Core_pointwise_whiskerL_morphism_of</title>
<path fill="none" stroke="black" d="M2482.69,-844.875C2458.38,-760.047 2357.48,-408.129 2328.08,-305.556"/>
<polygon fill="black" stroke="black" points="2331.43,-304.539 2325.31,-295.891 2324.7,-306.468 2331.43,-304.539"/>
</g>
<!-- Core_pointwise_whiskerL_subproof&#45;&gt;Core_pointwise_whiskerL_morphism_of -->
<g id="edge94" class="edge"><title>Core_pointwise_whiskerL_subproof&#45;&gt;Core_pointwise_whiskerL_morphism_of</title>
<path fill="none" stroke="black" d="M2158.27,-844.875C2182.45,-760.047 2282.74,-408.129 2311.97,-305.556"/>
<polygon fill="black" stroke="black" points="2315.35,-306.467 2314.72,-295.891 2308.62,-304.548 2315.35,-306.467"/>
</g>
<!-- Core_pointwise&#45;&gt;Core_pointwise_subproof0 -->
<g id="edge96" class="edge"><title>Core_pointwise&#45;&gt;Core_pointwise_subproof0</title>
<path fill="none" stroke="black" d="M1753.4,-1494.63C1770.03,-1403.07 1842.66,-1002.94 1862.81,-891.997"/>
<polygon fill="black" stroke="black" points="1866.3,-892.362 1864.64,-881.897 1859.41,-891.111 1866.3,-892.362"/>
</g>
<!-- Core_pointwise&#45;&gt;Core_pointwise_subproof -->
<g id="edge98" class="edge"><title>Core_pointwise&#45;&gt;Core_pointwise_subproof</title>
<path fill="none" stroke="black" d="M1746.6,-1494.63C1729.97,-1403.07 1657.34,-1002.94 1637.19,-891.997"/>
<polygon fill="black" stroke="black" points="1640.59,-891.111 1635.36,-881.897 1633.7,-892.362 1640.59,-891.111"/>
</g>
<!-- Core_pointwise_subproof0&#45;&gt;Core_pointwise_morphism_of -->
<g id="edge100" class="edge"><title>Core_pointwise_subproof0&#45;&gt;Core_pointwise_morphism_of</title>
<path fill="none" stroke="black" d="M1861.18,-844.875C1829.91,-760.047 1700.19,-408.129 1662.39,-305.556"/>
<polygon fill="black" stroke="black" points="1665.57,-304.063 1658.82,-295.891 1659,-306.484 1665.57,-304.063"/>
</g>
<!-- Core_pointwise_subproof&#45;&gt;Core_pointwise_morphism_of -->
<g id="edge102" class="edge"><title>Core_pointwise_subproof&#45;&gt;Core_pointwise_morphism_of</title>
<path fill="none" stroke="black" d="M1632.63,-844.875C1635.52,-760.218 1647.49,-409.549 1651.02,-306.18"/>
<polygon fill="black" stroke="black" points="1654.53,-306.004 1651.37,-295.891 1647.53,-305.765 1654.53,-306.004"/>
</g>
</g>
</svg>
