<?xml version="1.0" encoding="UTF-8" standalone="no"?>
<!DOCTYPE svg PUBLIC "-//W3C//DTD SVG 1.1//EN"
 "http://www.w3.org/Graphics/SVG/1.1/DTD/svg11.dtd">
<!-- Generated by graphviz version 2.26.3 (20100126.1600)
 -->
<!-- Title: HoTT_categories_Adjoint_Functorial_Laws Pages: 1 -->
<svg width="1140pt" height="574pt"
 viewBox="0.00 0.00 1140.00 574.00" xmlns="http://www.w3.org/2000/svg" xmlns:xlink="http://www.w3.org/1999/xlink">
<g id="graph1" class="graph" transform="scale(1 1) rotate(0) translate(4 570)">
<title>HoTT_categories_Adjoint_Functorial_Laws</title>
<polygon fill="white" stroke="white" points="-4,5 -4,-570 1137,-570 1137,5 -4,5"/>
<g id="graph2" class="cluster"><title>cluster_Laws</title>
<polygon fill="#ffffc3" stroke="black" points="8,-24.3441 8,-541.656 1124,-541.656 1124,-24.3441 8,-24.3441"/>
<text text-anchor="middle" x="34.5" y="-525.056" font-family="Times Roman,serif" font-size="14.00">Laws</text>
</g>
<!-- Laws_right_composition_of_nondep -->
<g id="node1" class="node"><title>Laws_right_composition_of_nondep</title>
<a xlink:href="Laws.html#right_composition_of_nondep" xlink:title="right_composition_of_nondep">
<ellipse fill="#f070d1" stroke="black" cx="954" cy="-356.344" rx="154.149" ry="18.3848"/>
<ellipse fill="none" stroke="black" cx="954" cy="-356.344" rx="158.149" ry="22.3848"/>
<ellipse fill="none" stroke="black" cx="954" cy="-356.344" rx="162.149" ry="26.3848"/>
<text text-anchor="middle" x="954" y="-352.744" font-family="Times Roman,serif" font-size="14.00">right_composition_of_nondep</text>
</a>
</g>
<!-- Laws_left_composition_of_nondep -->
<g id="node5" class="node"><title>Laws_left_composition_of_nondep</title>
<a xlink:href="Laws.html#left_composition_of_nondep" xlink:title="left_composition_of_nondep">
<ellipse fill="#facdef" stroke="black" cx="954" cy="-106.344" rx="145.872" ry="18.3848"/>
<text text-anchor="middle" x="954" y="-102.744" font-family="Times Roman,serif" font-size="14.00">left_composition_of_nondep</text>
</a>
</g>
<!-- Laws_right_composition_of_nondep&#45;&gt;Laws_left_composition_of_nondep -->
<g id="edge2" class="edge"><title>Laws_right_composition_of_nondep&#45;&gt;Laws_left_composition_of_nondep</title>
<path fill="none" stroke="black" d="M954,-329.59C954,-282.279 954,-184.243 954,-135.364"/>
<polygon fill="black" stroke="black" points="957.5,-135.16 954,-125.16 950.5,-135.16 957.5,-135.16"/>
</g>
<!-- Laws_right_composition_of -->
<g id="node2" class="node"><title>Laws_right_composition_of</title>
<a xlink:href="Laws.html#right_composition_of" xlink:title="right_composition_of">
<ellipse fill="#f070d1" stroke="black" cx="654" cy="-356.344" rx="111.963" ry="18.3848"/>
<ellipse fill="none" stroke="black" cx="654" cy="-356.344" rx="115.947" ry="22.3848"/>
<ellipse fill="none" stroke="black" cx="654" cy="-356.344" rx="119.93" ry="26.3848"/>
<text text-anchor="middle" x="654" y="-352.744" font-family="Times Roman,serif" font-size="14.00">right_composition_of</text>
</a>
</g>
<!-- Laws_left_composition_of -->
<g id="node6" class="node"><title>Laws_left_composition_of</title>
<a xlink:href="Laws.html#left_composition_of" xlink:title="left_composition_of">
<ellipse fill="#facdef" stroke="black" cx="654" cy="-106.344" rx="104.86" ry="18.3848"/>
<text text-anchor="middle" x="654" y="-102.744" font-family="Times Roman,serif" font-size="14.00">left_composition_of</text>
</a>
</g>
<!-- Laws_right_composition_of&#45;&gt;Laws_left_composition_of -->
<g id="edge4" class="edge"><title>Laws_right_composition_of&#45;&gt;Laws_left_composition_of</title>
<path fill="none" stroke="black" d="M654,-329.59C654,-282.279 654,-184.243 654,-135.364"/>
<polygon fill="black" stroke="black" points="657.5,-135.16 654,-125.16 650.5,-135.16 657.5,-135.16"/>
</g>
<!-- Laws_right_identity_of_nondep -->
<g id="node3" class="node"><title>Laws_right_identity_of_nondep</title>
<a xlink:href="Laws.html#right_identity_of_nondep" xlink:title="right_identity_of_nondep">
<ellipse fill="#f070d1" stroke="black" cx="375" cy="-356.344" rx="133.171" ry="18.3848"/>
<ellipse fill="none" stroke="black" cx="375" cy="-356.344" rx="137.157" ry="22.3848"/>
<ellipse fill="none" stroke="black" cx="375" cy="-356.344" rx="141.143" ry="26.3848"/>
<text text-anchor="middle" x="375" y="-352.744" font-family="Times Roman,serif" font-size="14.00">right_identity_of_nondep</text>
</a>
</g>
<!-- Laws_left_identity_of_nondep -->
<g id="node7" class="node"><title>Laws_left_identity_of_nondep</title>
<a xlink:href="Laws.html#left_identity_of_nondep" xlink:title="left_identity_of_nondep">
<ellipse fill="#facdef" stroke="black" cx="375" cy="-106.344" rx="126.072" ry="18.3848"/>
<text text-anchor="middle" x="375" y="-102.744" font-family="Times Roman,serif" font-size="14.00">left_identity_of_nondep</text>
</a>
</g>
<!-- Laws_right_identity_of_nondep&#45;&gt;Laws_left_identity_of_nondep -->
<g id="edge6" class="edge"><title>Laws_right_identity_of_nondep&#45;&gt;Laws_left_identity_of_nondep</title>
<path fill="none" stroke="black" d="M375,-329.59C375,-282.279 375,-184.243 375,-135.364"/>
<polygon fill="black" stroke="black" points="378.5,-135.16 375,-125.16 371.5,-135.16 378.5,-135.16"/>
</g>
<!-- Laws_right_identity_of -->
<g id="node4" class="node"><title>Laws_right_identity_of</title>
<a xlink:href="Laws.html#right_identity_of" xlink:title="right_identity_of">
<ellipse fill="#f070d1" stroke="black" cx="116" cy="-356.344" rx="92.1701" ry="18.3848"/>
<ellipse fill="none" stroke="black" cx="116" cy="-356.344" rx="96.1502" ry="22.3848"/>
<ellipse fill="none" stroke="black" cx="116" cy="-356.344" rx="100.13" ry="26.3848"/>
<text text-anchor="middle" x="116" y="-352.744" font-family="Times Roman,serif" font-size="14.00">right_identity_of</text>
</a>
</g>
<!-- Laws_left_identity_of -->
<g id="node8" class="node"><title>Laws_left_identity_of</title>
<a xlink:href="Laws.html#left_identity_of" xlink:title="left_identity_of">
<ellipse fill="#facdef" stroke="black" cx="116" cy="-106.344" rx="84.8528" ry="18.3848"/>
<text text-anchor="middle" x="116" y="-102.744" font-family="Times Roman,serif" font-size="14.00">left_identity_of</text>
</a>
</g>
<!-- Laws_right_identity_of&#45;&gt;Laws_left_identity_of -->
<g id="edge8" class="edge"><title>Laws_right_identity_of&#45;&gt;Laws_left_identity_of</title>
<path fill="none" stroke="black" d="M116,-329.59C116,-282.279 116,-184.243 116,-135.364"/>
<polygon fill="black" stroke="black" points="119.5,-135.16 116,-125.16 112.5,-135.16 119.5,-135.16"/>
</g>
</g>
</svg>
