<?xml version="1.0" encoding="UTF-8" standalone="no"?>
<!DOCTYPE svg PUBLIC "-//W3C//DTD SVG 1.1//EN"
 "http://www.w3.org/Graphics/SVG/1.1/DTD/svg11.dtd">
<!-- Generated by graphviz version 2.39.20161220.0128 (20161220.0128)
 -->
<!-- Title: HoTT_Categories_ProductLaws Pages: 1 -->
<svg width="1303pt" height="655pt"
 viewBox="0.00 0.00 1303.00 655.50" xmlns="http://www.w3.org/2000/svg" xmlns:xlink="http://www.w3.org/1999/xlink">
<g id="graph0" class="graph" transform="scale(1 1) rotate(0) translate(4 651.5)">
<title>HoTT_Categories_ProductLaws</title>
<polygon fill="#ffffff" stroke="transparent" points="-4,4 -4,-651.5 1299,-651.5 1299,4 -4,4"/>
<g id="clust1" class="cluster">
<title>cluster_ProductLaws</title>
<polygon fill="#ffffc3" stroke="#000000" points="8,-23.7615 8,-623.7385 1287,-623.7385 1287,-23.7615 8,-23.7615"/>
<text text-anchor="middle" x="52" y="-608.5385" font-family="Times,serif" font-size="14.00" fill="#000000">ProductLaws</text>
</g>
<g id="clust2" class="cluster">
<title>cluster_ProductLaws_Associativity</title>
<polygon fill="#ffffa3" stroke="#000000" points="1100,-47.5229 1100,-531.6628 1279,-531.6628 1279,-47.5229 1100,-47.5229"/>
<text text-anchor="middle" x="1144" y="-516.4628" font-family="Times,serif" font-size="14.00" fill="#000000">Associativity</text>
</g>
<g id="clust3" class="cluster">
<title>cluster_ProductLaws_Law0</title>
<polygon fill="#ffffa3" stroke="#000000" points="486,-47.5229 486,-531.6628 1092,-531.6628 1092,-47.5229 486,-47.5229"/>
<text text-anchor="middle" x="509.5" y="-516.4628" font-family="Times,serif" font-size="14.00" fill="#000000">Law0</text>
</g>
<g id="clust4" class="cluster">
<title>cluster_ProductLaws_Law1</title>
<polygon fill="#ffffa3" stroke="#000000" points="112,-47.5229 112,-531.6628 478,-531.6628 478,-47.5229 112,-47.5229"/>
<text text-anchor="middle" x="135.5" y="-516.4628" font-family="Times,serif" font-size="14.00" fill="#000000">Law1</text>
</g>
<g id="clust5" class="cluster">
<title>cluster_ProductLaws_Swap</title>
<polygon fill="#ffffa3" stroke="#000000" points="16,-47.5229 16,-531.6628 104,-531.6628 104,-47.5229 16,-47.5229"/>
<text text-anchor="middle" x="39.5" y="-516.4628" font-family="Times,serif" font-size="14.00" fill="#000000">Swap</text>
</g>
<!-- ProductLaws_Swap_law -->
<g id="node1" class="node">
<title>ProductLaws_Swap_law</title>
<g id="a_node1"><a xlink:href="ProductLaws.html#Swap.law" xlink:title="law">
<ellipse fill="#f070d1" stroke="#000000" cx="60" cy="-362.7615" rx="27" ry="18"/>
<ellipse fill="none" stroke="#000000" cx="60" cy="-362.7615" rx="31" ry="22"/>
<ellipse fill="none" stroke="#000000" cx="60" cy="-362.7615" rx="35" ry="26"/>
<text text-anchor="middle" x="60" y="-359.0615" font-family="Times,serif" font-size="14.00" fill="#000000">law</text>
</a>
</g>
</g>
<!-- ProductLaws_Swap_functor -->
<g id="node2" class="node">
<title>ProductLaws_Swap_functor</title>
<g id="a_node2"><a xlink:href="ProductLaws.html#Swap.functor" xlink:title="functor">
<ellipse fill="#f070d1" stroke="#000000" cx="60" cy="-124.7615" rx="36.2938" ry="18"/>
<text text-anchor="middle" x="60" y="-121.0615" font-family="Times,serif" font-size="14.00" fill="#000000">functor</text>
</a>
</g>
</g>
<!-- ProductLaws_Swap_law&#45;&gt;ProductLaws_Swap_functor -->
<g id="edge1" class="edge">
<title>ProductLaws_Swap_law&#45;&gt;ProductLaws_Swap_functor</title>
<path fill="none" stroke="#000000" d="M60,-336.382C60,-291.2277 60,-199.5119 60,-153.0691"/>
<polygon fill="#000000" stroke="#000000" points="63.5001,-152.8195 60,-142.8195 56.5001,-152.8195 63.5001,-152.8195"/>
</g>
<!-- ProductLaws_Law1_law1_ -->
<g id="node3" class="node">
<title>ProductLaws_Law1_law1_</title>
<g id="a_node3"><a xlink:href="ProductLaws.html#Law1.law1'" xlink:title="law1&#39;">
<ellipse fill="#facdef" stroke="#000000" cx="385" cy="-362.7615" rx="29.443" ry="18"/>
<ellipse fill="none" stroke="#000000" cx="385" cy="-362.7615" rx="33.4697" ry="22"/>
<ellipse fill="none" stroke="#000000" cx="385" cy="-362.7615" rx="37.4965" ry="26"/>
<text text-anchor="middle" x="385" y="-359.0615" font-family="Times,serif" font-size="14.00" fill="#000000">law1&#39;</text>
</a>
</g>
</g>
<!-- ProductLaws_Law1_inverse_ -->
<g id="node5" class="node">
<title>ProductLaws_Law1_inverse_</title>
<g id="a_node5"><a xlink:href="ProductLaws.html#Law1.inverse'" xlink:title="inverse&#39;">
<ellipse fill="#f070d1" stroke="#000000" cx="339" cy="-124.7615" rx="37.8943" ry="18"/>
<text text-anchor="middle" x="339" y="-121.0615" font-family="Times,serif" font-size="14.00" fill="#000000">inverse&#39;</text>
</a>
</g>
</g>
<!-- ProductLaws_Law1_law1_&#45;&gt;ProductLaws_Law1_inverse_ -->
<g id="edge2" class="edge">
<title>ProductLaws_Law1_law1_&#45;&gt;ProductLaws_Law1_inverse_</title>
<path fill="none" stroke="#000000" d="M379.9896,-336.8382C371.2837,-291.7945 353.4354,-199.4488 344.439,-152.9024"/>
<polygon fill="#000000" stroke="#000000" points="347.8405,-152.057 342.5063,-142.9029 340.9677,-153.3854 347.8405,-152.057"/>
</g>
<!-- ProductLaws_Law1_functor_ -->
<g id="node7" class="node">
<title>ProductLaws_Law1_functor_</title>
<g id="a_node7"><a xlink:href="ProductLaws.html#Law1.functor'" xlink:title="functor&#39;">
<ellipse fill="#f070d1" stroke="#000000" cx="432" cy="-124.7615" rx="37.8943" ry="18"/>
<text text-anchor="middle" x="432" y="-121.0615" font-family="Times,serif" font-size="14.00" fill="#000000">functor&#39;</text>
</a>
</g>
</g>
<!-- ProductLaws_Law1_law1_&#45;&gt;ProductLaws_Law1_functor_ -->
<g id="edge3" class="edge">
<title>ProductLaws_Law1_law1_&#45;&gt;ProductLaws_Law1_functor_</title>
<path fill="none" stroke="#000000" d="M390.1193,-336.8382C399.0145,-291.7945 417.2508,-199.4488 426.4428,-152.9024"/>
<polygon fill="#000000" stroke="#000000" points="429.9137,-153.3915 428.4174,-142.9029 423.0463,-152.0353 429.9137,-153.3915"/>
</g>
<!-- ProductLaws_Law1_law1 -->
<g id="node4" class="node">
<title>ProductLaws_Law1_law1</title>
<g id="a_node4"><a xlink:href="ProductLaws.html#Law1.law1" xlink:title="law1">
<ellipse fill="#facdef" stroke="#000000" cx="201" cy="-362.7615" rx="27.9068" ry="18"/>
<ellipse fill="none" stroke="#000000" cx="201" cy="-362.7615" rx="31.9009" ry="22"/>
<ellipse fill="none" stroke="#000000" cx="201" cy="-362.7615" rx="35.8951" ry="26"/>
<text text-anchor="middle" x="201" y="-359.0615" font-family="Times,serif" font-size="14.00" fill="#000000">law1</text>
</a>
</g>
</g>
<!-- ProductLaws_Law1_inverse -->
<g id="node6" class="node">
<title>ProductLaws_Law1_inverse</title>
<g id="a_node6"><a xlink:href="ProductLaws.html#Law1.inverse" xlink:title="inverse">
<ellipse fill="#f070d1" stroke="#000000" cx="156" cy="-124.7615" rx="36.2938" ry="18"/>
<text text-anchor="middle" x="156" y="-121.0615" font-family="Times,serif" font-size="14.00" fill="#000000">inverse</text>
</a>
</g>
</g>
<!-- ProductLaws_Law1_law1&#45;&gt;ProductLaws_Law1_inverse -->
<g id="edge4" class="edge">
<title>ProductLaws_Law1_law1&#45;&gt;ProductLaws_Law1_inverse</title>
<path fill="none" stroke="#000000" d="M196.0985,-336.8382C187.5819,-291.7945 170.1215,-199.4488 161.3208,-152.9024"/>
<polygon fill="#000000" stroke="#000000" points="164.7271,-152.0785 159.4301,-142.9029 157.849,-153.3791 164.7271,-152.0785"/>
</g>
<!-- ProductLaws_Law1_functor -->
<g id="node8" class="node">
<title>ProductLaws_Law1_functor</title>
<g id="a_node8"><a xlink:href="ProductLaws.html#Law1.functor" xlink:title="functor">
<ellipse fill="#f070d1" stroke="#000000" cx="247" cy="-124.7615" rx="36.2938" ry="18"/>
<text text-anchor="middle" x="247" y="-121.0615" font-family="Times,serif" font-size="14.00" fill="#000000">functor</text>
</a>
</g>
</g>
<!-- ProductLaws_Law1_law1&#45;&gt;ProductLaws_Law1_functor -->
<g id="edge5" class="edge">
<title>ProductLaws_Law1_law1&#45;&gt;ProductLaws_Law1_functor</title>
<path fill="none" stroke="#000000" d="M206.0104,-336.8382C214.7163,-291.7945 232.5646,-199.4488 241.561,-152.9024"/>
<polygon fill="#000000" stroke="#000000" points="245.0323,-153.3854 243.4937,-142.9029 238.1595,-152.057 245.0323,-153.3854"/>
</g>
<!-- ProductLaws_Law0_law_ -->
<g id="node9" class="node">
<title>ProductLaws_Law0_law_</title>
<g id="a_node9"><a xlink:href="ProductLaws.html#Law0.law'" xlink:title="law&#39;">
<ellipse fill="#f070d1" stroke="#000000" cx="1049" cy="-362.7615" rx="27" ry="18"/>
<ellipse fill="none" stroke="#000000" cx="1049" cy="-362.7615" rx="31" ry="22"/>
<ellipse fill="none" stroke="#000000" cx="1049" cy="-362.7615" rx="35" ry="26"/>
<text text-anchor="middle" x="1049" y="-359.0615" font-family="Times,serif" font-size="14.00" fill="#000000">law&#39;</text>
</a>
</g>
</g>
<!-- ProductLaws_Law0_law -->
<g id="node10" class="node">
<title>ProductLaws_Law0_law</title>
<g id="a_node10"><a xlink:href="ProductLaws.html#Law0.law" xlink:title="law">
<ellipse fill="#f070d1" stroke="#000000" cx="961" cy="-362.7615" rx="27" ry="18"/>
<ellipse fill="none" stroke="#000000" cx="961" cy="-362.7615" rx="31" ry="22"/>
<ellipse fill="none" stroke="#000000" cx="961" cy="-362.7615" rx="35" ry="26"/>
<text text-anchor="middle" x="961" y="-359.0615" font-family="Times,serif" font-size="14.00" fill="#000000">law</text>
</a>
</g>
</g>
<!-- ProductLaws_Law0_inverse_ -->
<g id="node11" class="node">
<title>ProductLaws_Law0_inverse_</title>
<g id="a_node11"><a xlink:href="ProductLaws.html#Law0.inverse'" xlink:title="inverse&#39;">
<ellipse fill="#f070d1" stroke="#000000" cx="862" cy="-362.7615" rx="37.8596" ry="18"/>
<ellipse fill="none" stroke="#000000" cx="862" cy="-362.7615" rx="41.8769" ry="22"/>
<ellipse fill="none" stroke="#000000" cx="862" cy="-362.7615" rx="45.8942" ry="26"/>
<text text-anchor="middle" x="862" y="-359.0615" font-family="Times,serif" font-size="14.00" fill="#000000">inverse&#39;</text>
</a>
</g>
</g>
<!-- ProductLaws_Law0_inverse -->
<g id="node12" class="node">
<title>ProductLaws_Law0_inverse</title>
<g id="a_node12"><a xlink:href="ProductLaws.html#Law0.inverse" xlink:title="inverse">
<ellipse fill="#f070d1" stroke="#000000" cx="754" cy="-362.7615" rx="36.3123" ry="18"/>
<ellipse fill="none" stroke="#000000" cx="754" cy="-362.7615" rx="40.3031" ry="22"/>
<ellipse fill="none" stroke="#000000" cx="754" cy="-362.7615" rx="44.2938" ry="26"/>
<text text-anchor="middle" x="754" y="-359.0615" font-family="Times,serif" font-size="14.00" fill="#000000">inverse</text>
</a>
</g>
</g>
<!-- ProductLaws_Law0_functor_ -->
<g id="node13" class="node">
<title>ProductLaws_Law0_functor_</title>
<g id="a_node13"><a xlink:href="ProductLaws.html#Law0.functor'" xlink:title="functor&#39;">
<ellipse fill="#f070d1" stroke="#000000" cx="646" cy="-362.7615" rx="37.8596" ry="18"/>
<ellipse fill="none" stroke="#000000" cx="646" cy="-362.7615" rx="41.8769" ry="22"/>
<ellipse fill="none" stroke="#000000" cx="646" cy="-362.7615" rx="45.8942" ry="26"/>
<text text-anchor="middle" x="646" y="-359.0615" font-family="Times,serif" font-size="14.00" fill="#000000">functor&#39;</text>
</a>
</g>
</g>
<!-- ProductLaws_Law0_is_initial_category__product_ -->
<g id="node15" class="node">
<title>ProductLaws_Law0_is_initial_category__product_</title>
<g id="a_node15"><a xlink:href="ProductLaws.html#Law0.is_initial_category__product'" xlink:title="is_initial_category__product&#39;">
<ellipse fill="#f070d1" stroke="#000000" cx="849" cy="-124.7615" rx="113.18" ry="18"/>
<text text-anchor="middle" x="849" y="-121.0615" font-family="Times,serif" font-size="14.00" fill="#000000">is_initial_category__product&#39;</text>
</a>
</g>
</g>
<!-- ProductLaws_Law0_functor_&#45;&gt;ProductLaws_Law0_is_initial_category__product_ -->
<g id="edge6" class="edge">
<title>ProductLaws_Law0_functor_&#45;&gt;ProductLaws_Law0_is_initial_category__product_</title>
<path fill="none" stroke="#000000" d="M666.2066,-339.071C704.5219,-294.1496 787.4398,-196.9355 827.0591,-150.4853"/>
<polygon fill="#000000" stroke="#000000" points="829.8817,-152.5694 833.7082,-142.6898 824.5558,-148.0268 829.8817,-152.5694"/>
</g>
<!-- ProductLaws_Law0_functor -->
<g id="node14" class="node">
<title>ProductLaws_Law0_functor</title>
<g id="a_node14"><a xlink:href="ProductLaws.html#Law0.functor" xlink:title="functor">
<ellipse fill="#f070d1" stroke="#000000" cx="538" cy="-362.7615" rx="36.3123" ry="18"/>
<ellipse fill="none" stroke="#000000" cx="538" cy="-362.7615" rx="40.3031" ry="22"/>
<ellipse fill="none" stroke="#000000" cx="538" cy="-362.7615" rx="44.2938" ry="26"/>
<text text-anchor="middle" x="538" y="-359.0615" font-family="Times,serif" font-size="14.00" fill="#000000">functor</text>
</a>
</g>
</g>
<!-- ProductLaws_Law0_is_initial_category__product -->
<g id="node16" class="node">
<title>ProductLaws_Law0_is_initial_category__product</title>
<g id="a_node16"><a xlink:href="ProductLaws.html#Law0.is_initial_category__product" xlink:title="is_initial_category__product">
<ellipse fill="#f070d1" stroke="#000000" cx="606" cy="-124.7615" rx="111.5806" ry="18"/>
<text text-anchor="middle" x="606" y="-121.0615" font-family="Times,serif" font-size="14.00" fill="#000000">is_initial_category__product</text>
</a>
</g>
</g>
<!-- ProductLaws_Law0_functor&#45;&gt;ProductLaws_Law0_is_initial_category__product -->
<g id="edge7" class="edge">
<title>ProductLaws_Law0_functor&#45;&gt;ProductLaws_Law0_is_initial_category__product</title>
<path fill="none" stroke="#000000" d="M545.4066,-336.8382C558.3034,-291.6997 584.7719,-199.0597 598.0436,-152.609"/>
<polygon fill="#000000" stroke="#000000" points="601.4348,-153.4797 600.8167,-142.9029 594.7041,-151.5566 601.4348,-153.4797"/>
</g>
<!-- ProductLaws_Associativity_law -->
<g id="node17" class="node">
<title>ProductLaws_Associativity_law</title>
<g id="a_node17"><a xlink:href="ProductLaws.html#Associativity.law" xlink:title="law">
<ellipse fill="#f070d1" stroke="#000000" cx="1189" cy="-362.7615" rx="27" ry="18"/>
<ellipse fill="none" stroke="#000000" cx="1189" cy="-362.7615" rx="31" ry="22"/>
<ellipse fill="none" stroke="#000000" cx="1189" cy="-362.7615" rx="35" ry="26"/>
<text text-anchor="middle" x="1189" y="-359.0615" font-family="Times,serif" font-size="14.00" fill="#000000">law</text>
</a>
</g>
</g>
<!-- ProductLaws_Associativity_inverse -->
<g id="node18" class="node">
<title>ProductLaws_Associativity_inverse</title>
<g id="a_node18"><a xlink:href="ProductLaws.html#Associativity.inverse" xlink:title="inverse">
<ellipse fill="#f070d1" stroke="#000000" cx="1144" cy="-124.7615" rx="36.2938" ry="18"/>
<text text-anchor="middle" x="1144" y="-121.0615" font-family="Times,serif" font-size="14.00" fill="#000000">inverse</text>
</a>
</g>
</g>
<!-- ProductLaws_Associativity_law&#45;&gt;ProductLaws_Associativity_inverse -->
<g id="edge8" class="edge">
<title>ProductLaws_Associativity_law&#45;&gt;ProductLaws_Associativity_inverse</title>
<path fill="none" stroke="#000000" d="M1184.0985,-336.8382C1175.5819,-291.7945 1158.1215,-199.4488 1149.3208,-152.9024"/>
<polygon fill="#000000" stroke="#000000" points="1152.7271,-152.0785 1147.4301,-142.9029 1145.849,-153.3791 1152.7271,-152.0785"/>
</g>
<!-- ProductLaws_Associativity_functor -->
<g id="node19" class="node">
<title>ProductLaws_Associativity_functor</title>
<g id="a_node19"><a xlink:href="ProductLaws.html#Associativity.functor" xlink:title="functor">
<ellipse fill="#f070d1" stroke="#000000" cx="1235" cy="-124.7615" rx="36.2938" ry="18"/>
<text text-anchor="middle" x="1235" y="-121.0615" font-family="Times,serif" font-size="14.00" fill="#000000">functor</text>
</a>
</g>
</g>
<!-- ProductLaws_Associativity_law&#45;&gt;ProductLaws_Associativity_functor -->
<g id="edge9" class="edge">
<title>ProductLaws_Associativity_law&#45;&gt;ProductLaws_Associativity_functor</title>
<path fill="none" stroke="#000000" d="M1194.0104,-336.8382C1202.7163,-291.7945 1220.5646,-199.4488 1229.561,-152.9024"/>
<polygon fill="#000000" stroke="#000000" points="1233.0323,-153.3854 1231.4937,-142.9029 1226.1595,-152.057 1233.0323,-153.3854"/>
</g>
</g>
</svg>
