<?xml version="1.0" encoding="UTF-8" standalone="no"?>
<!DOCTYPE svg PUBLIC "-//W3C//DTD SVG 1.1//EN"
 "http://www.w3.org/Graphics/SVG/1.1/DTD/svg11.dtd">
<!-- Generated by graphviz version 2.39.20161220.0128 (20161220.0128)
 -->
<!-- Title: HoTT_Extensions Pages: 1 -->
<svg width="3277pt" height="1643pt"
 viewBox="0.00 0.00 3277.00 1642.50" xmlns="http://www.w3.org/2000/svg" xmlns:xlink="http://www.w3.org/1999/xlink">
<g id="graph0" class="graph" transform="scale(1 1) rotate(0) translate(4 1638.5)">
<title>HoTT_Extensions</title>
<polygon fill="#ffffff" stroke="transparent" points="-4,4 -4,-1638.5 3273,-1638.5 3273,4 -4,4"/>
<g id="clust1" class="cluster">
<title>cluster_Extensions</title>
<polygon fill="#ffffc3" stroke="#000000" points="8,-29.5169 8,-1604.9831 3261,-1604.9831 3261,-29.5169 8,-29.5169"/>
<text text-anchor="middle" x="46" y="-1589.7831" font-family="Times,serif" font-size="14.00" fill="#000000">Extensions</text>
</g>
<!-- Extensions_ooextendable_isnull_fibers -->
<g id="node1" class="node">
<title>Extensions_ooextendable_isnull_fibers</title>
<g id="a_node1"><a xlink:href="Extensions.html#ooextendable_isnull_fibers" xlink:title="ooextendable_isnull_fibers">
<ellipse fill="#f070d1" stroke="#000000" cx="744" cy="-1394.5169" rx="105.8854" ry="18"/>
<ellipse fill="none" stroke="#000000" cx="744" cy="-1394.5169" rx="109.8833" ry="22"/>
<ellipse fill="none" stroke="#000000" cx="744" cy="-1394.5169" rx="113.8812" ry="26"/>
<text text-anchor="middle" x="744" y="-1390.8169" font-family="Times,serif" font-size="14.00" fill="#000000">ooextendable_isnull_fibers</text>
</a>
</g>
</g>
<!-- Extensions_ooextendable_homotopy -->
<g id="node2" class="node">
<title>Extensions_ooextendable_homotopy</title>
<g id="a_node2"><a xlink:href="Extensions.html#ooextendable_homotopy" xlink:title="ooextendable_homotopy">
<ellipse fill="#f070d1" stroke="#000000" cx="744" cy="-1069.5169" rx="98.2828" ry="18"/>
<text text-anchor="middle" x="744" y="-1065.8169" font-family="Times,serif" font-size="14.00" fill="#000000">ooextendable_homotopy</text>
</a>
</g>
</g>
<!-- Extensions_ooextendable_isnull_fibers&#45;&gt;Extensions_ooextendable_homotopy -->
<g id="edge1" class="edge">
<title>Extensions_ooextendable_isnull_fibers&#45;&gt;Extensions_ooextendable_homotopy</title>
<path fill="none" stroke="#000000" d="M744,-1368.4702C744,-1308.3636 744,-1160.3557 744,-1097.9734"/>
<polygon fill="#000000" stroke="#000000" points="747.5001,-1097.7004 744,-1087.7005 740.5001,-1097.7005 747.5001,-1097.7004"/>
</g>
<!-- Extensions_ooExtendableAlong -->
<g id="node16" class="node">
<title>Extensions_ooExtendableAlong</title>
<g id="a_node16"><a xlink:href="Extensions.html#ooExtendableAlong" xlink:title="ooExtendableAlong">
<ellipse fill="#f070d1" stroke="#000000" cx="1082" cy="-745.5169" rx="81.4863" ry="18"/>
<text text-anchor="middle" x="1082" y="-741.8169" font-family="Times,serif" font-size="14.00" fill="#000000">ooExtendableAlong</text>
</a>
</g>
</g>
<!-- Extensions_ooextendable_homotopy&#45;&gt;Extensions_ooExtendableAlong -->
<g id="edge2" class="edge">
<title>Extensions_ooextendable_homotopy&#45;&gt;Extensions_ooExtendableAlong</title>
<path fill="none" stroke="#000000" d="M762.6538,-1051.6358C819.4399,-997.2018 990.3095,-833.4096 1055.937,-770.5004"/>
<polygon fill="#000000" stroke="#000000" points="1058.6068,-772.7895 1063.4039,-763.3428 1053.7628,-767.7362 1058.6068,-772.7895"/>
</g>
<!-- Extensions_extendable_homotopy -->
<g id="node17" class="node">
<title>Extensions_extendable_homotopy</title>
<g id="a_node17"><a xlink:href="Extensions.html#extendable_homotopy" xlink:title="extendable_homotopy">
<ellipse fill="#f070d1" stroke="#000000" cx="819" cy="-745.5169" rx="89.0842" ry="18"/>
<text text-anchor="middle" x="819" y="-741.8169" font-family="Times,serif" font-size="14.00" fill="#000000">extendable_homotopy</text>
</a>
</g>
</g>
<!-- Extensions_ooextendable_homotopy&#45;&gt;Extensions_extendable_homotopy -->
<g id="edge3" class="edge">
<title>Extensions_ooextendable_homotopy&#45;&gt;Extensions_extendable_homotopy</title>
<path fill="none" stroke="#000000" d="M748.2472,-1051.169C760.7519,-997.1487 797.4961,-838.4138 812.5031,-773.5836"/>
<polygon fill="#000000" stroke="#000000" points="815.9539,-774.1954 814.7994,-763.6637 809.1343,-772.6167 815.9539,-774.1954"/>
</g>
<!-- Extensions_ooextendable_contr -->
<g id="node3" class="node">
<title>Extensions_ooextendable_contr</title>
<g id="a_node3"><a xlink:href="Extensions.html#ooextendable_contr" xlink:title="ooextendable_contr">
<ellipse fill="#f070d1" stroke="#000000" cx="1888" cy="-1069.5169" rx="79.891" ry="18"/>
<ellipse fill="none" stroke="#000000" cx="1888" cy="-1069.5169" rx="83.8884" ry="22"/>
<ellipse fill="none" stroke="#000000" cx="1888" cy="-1069.5169" rx="87.8859" ry="26"/>
<text text-anchor="middle" x="1888" y="-1065.8169" font-family="Times,serif" font-size="14.00" fill="#000000">ooextendable_contr</text>
</a>
</g>
</g>
<!-- Extensions_extendable_contr -->
<g id="node18" class="node">
<title>Extensions_extendable_contr</title>
<g id="a_node18"><a xlink:href="Extensions.html#extendable_contr" xlink:title="extendable_contr">
<ellipse fill="#f070d1" stroke="#000000" cx="1863" cy="-745.5169" rx="71.4873" ry="18"/>
<text text-anchor="middle" x="1863" y="-741.8169" font-family="Times,serif" font-size="14.00" fill="#000000">extendable_contr</text>
</a>
</g>
</g>
<!-- Extensions_ooextendable_contr&#45;&gt;Extensions_extendable_contr -->
<g id="edge4" class="edge">
<title>Extensions_ooextendable_contr&#45;&gt;Extensions_extendable_contr</title>
<path fill="none" stroke="#000000" d="M1885.9753,-1043.2771C1881.3368,-983.1612 1869.9727,-835.8832 1865.1841,-773.8235"/>
<polygon fill="#000000" stroke="#000000" points="1868.6546,-773.305 1864.3956,-763.6039 1861.6754,-773.8436 1868.6546,-773.305"/>
</g>
<!-- Extensions_ooextendable_equiv -->
<g id="node4" class="node">
<title>Extensions_ooextendable_equiv</title>
<g id="a_node4"><a xlink:href="Extensions.html#ooextendable_equiv" xlink:title="ooextendable_equiv">
<ellipse fill="#f070d1" stroke="#000000" cx="3164" cy="-1069.5169" rx="81.4644" ry="18"/>
<ellipse fill="none" stroke="#000000" cx="3164" cy="-1069.5169" rx="85.4753" ry="22"/>
<ellipse fill="none" stroke="#000000" cx="3164" cy="-1069.5169" rx="89.4862" ry="26"/>
<text text-anchor="middle" x="3164" y="-1065.8169" font-family="Times,serif" font-size="14.00" fill="#000000">ooextendable_equiv</text>
</a>
</g>
</g>
<!-- Extensions_extendable_equiv -->
<g id="node19" class="node">
<title>Extensions_extendable_equiv</title>
<g id="a_node19"><a xlink:href="Extensions.html#extendable_equiv" xlink:title="extendable_equiv">
<ellipse fill="#f070d1" stroke="#000000" cx="3057" cy="-745.5169" rx="72.5877" ry="18"/>
<text text-anchor="middle" x="3057" y="-741.8169" font-family="Times,serif" font-size="14.00" fill="#000000">extendable_equiv</text>
</a>
</g>
</g>
<!-- Extensions_ooextendable_equiv&#45;&gt;Extensions_extendable_equiv -->
<g id="edge5" class="edge">
<title>Extensions_ooextendable_equiv&#45;&gt;Extensions_extendable_equiv</title>
<path fill="none" stroke="#000000" d="M3155.4246,-1043.5503C3135.5947,-983.5047 3086.705,-835.4648 3066.2416,-773.5007"/>
<polygon fill="#000000" stroke="#000000" points="3069.446,-772.0425 3062.9866,-763.6445 3062.7991,-774.2377 3069.446,-772.0425"/>
</g>
<!-- Extensions_ooextendable_homotopic -->
<g id="node5" class="node">
<title>Extensions_ooextendable_homotopic</title>
<g id="a_node5"><a xlink:href="Extensions.html#ooextendable_homotopic" xlink:title="ooextendable_homotopic">
<ellipse fill="#f070d1" stroke="#000000" cx="1674" cy="-1069.5169" rx="100.1756" ry="18"/>
<ellipse fill="none" stroke="#000000" cx="1674" cy="-1069.5169" rx="104.1789" ry="22"/>
<ellipse fill="none" stroke="#000000" cx="1674" cy="-1069.5169" rx="108.1823" ry="26"/>
<text text-anchor="middle" x="1674" y="-1065.8169" font-family="Times,serif" font-size="14.00" fill="#000000">ooextendable_homotopic</text>
</a>
</g>
</g>
<!-- Extensions_ooextendable_homotopic&#45;&gt;Extensions_ooExtendableAlong -->
<g id="edge6" class="edge">
<title>Extensions_ooextendable_homotopic&#45;&gt;Extensions_ooExtendableAlong</title>
<path fill="none" stroke="#000000" d="M1630.4688,-1045.6924C1519.5499,-984.9868 1227.5919,-825.199 1121.3644,-767.061"/>
<polygon fill="#000000" stroke="#000000" points="1123.0111,-763.9723 1112.5586,-762.2415 1119.6504,-770.1128 1123.0111,-763.9723"/>
</g>
<!-- Extensions_extendable_homotopic -->
<g id="node20" class="node">
<title>Extensions_extendable_homotopic</title>
<g id="a_node20"><a xlink:href="Extensions.html#extendable_homotopic" xlink:title="extendable_homotopic">
<ellipse fill="#f070d1" stroke="#000000" cx="1657" cy="-745.5169" rx="90.9839" ry="18"/>
<text text-anchor="middle" x="1657" y="-741.8169" font-family="Times,serif" font-size="14.00" fill="#000000">extendable_homotopic</text>
</a>
</g>
</g>
<!-- Extensions_ooextendable_homotopic&#45;&gt;Extensions_extendable_homotopic -->
<g id="edge7" class="edge">
<title>Extensions_ooextendable_homotopic&#45;&gt;Extensions_extendable_homotopic</title>
<path fill="none" stroke="#000000" d="M1672.6232,-1043.2771C1669.469,-983.1612 1661.7414,-835.8832 1658.4852,-773.8235"/>
<polygon fill="#000000" stroke="#000000" points="1661.9683,-773.4068 1657.949,-763.6039 1654.9779,-773.7736 1661.9683,-773.4068"/>
</g>
<!-- Extensions_cancelR_ooextendable -->
<g id="node6" class="node">
<title>Extensions_cancelR_ooextendable</title>
<g id="a_node6"><a xlink:href="Extensions.html#cancelR_ooextendable" xlink:title="cancelR_ooextendable">
<ellipse fill="#f070d1" stroke="#000000" cx="1450" cy="-1069.5169" rx="90.1971" ry="18"/>
<ellipse fill="none" stroke="#000000" cx="1450" cy="-1069.5169" rx="94.1906" ry="22"/>
<ellipse fill="none" stroke="#000000" cx="1450" cy="-1069.5169" rx="98.1842" ry="26"/>
<text text-anchor="middle" x="1450" y="-1065.8169" font-family="Times,serif" font-size="14.00" fill="#000000">cancelR_ooextendable</text>
</a>
</g>
</g>
<!-- Extensions_cancelR_ooextendable&#45;&gt;Extensions_ooExtendableAlong -->
<g id="edge8" class="edge">
<title>Extensions_cancelR_ooextendable&#45;&gt;Extensions_ooExtendableAlong</title>
<path fill="none" stroke="#000000" d="M1421.4299,-1044.3628C1352.4622,-983.6413 1177.5566,-829.6483 1109.5973,-769.8145"/>
<polygon fill="#000000" stroke="#000000" points="1111.6724,-766.9783 1101.854,-762.9971 1107.0467,-772.2322 1111.6724,-766.9783"/>
</g>
<!-- Extensions_cancelR_extendable -->
<g id="node21" class="node">
<title>Extensions_cancelR_extendable</title>
<g id="a_node21"><a xlink:href="Extensions.html#cancelR_extendable" xlink:title="cancelR_extendable">
<ellipse fill="#f070d1" stroke="#000000" cx="1450" cy="-745.5169" rx="81.4863" ry="18"/>
<text text-anchor="middle" x="1450" y="-741.8169" font-family="Times,serif" font-size="14.00" fill="#000000">cancelR_extendable</text>
</a>
</g>
</g>
<!-- Extensions_cancelR_ooextendable&#45;&gt;Extensions_cancelR_extendable -->
<g id="edge9" class="edge">
<title>Extensions_cancelR_ooextendable&#45;&gt;Extensions_cancelR_extendable</title>
<path fill="none" stroke="#000000" d="M1450,-1043.2771C1450,-983.1612 1450,-835.8832 1450,-773.8235"/>
<polygon fill="#000000" stroke="#000000" points="1453.5001,-773.6039 1450,-763.6039 1446.5001,-773.604 1453.5001,-773.6039"/>
</g>
<!-- Extensions_cancelL_ooextendable -->
<g id="node7" class="node">
<title>Extensions_cancelL_ooextendable</title>
<g id="a_node7"><a xlink:href="Extensions.html#cancelL_ooextendable" xlink:title="cancelL_ooextendable">
<ellipse fill="#f070d1" stroke="#000000" cx="2256" cy="-1394.5169" rx="89.8687" ry="18"/>
<ellipse fill="none" stroke="#000000" cx="2256" cy="-1394.5169" rx="93.8766" ry="22"/>
<ellipse fill="none" stroke="#000000" cx="2256" cy="-1394.5169" rx="97.8845" ry="26"/>
<text text-anchor="middle" x="2256" y="-1390.8169" font-family="Times,serif" font-size="14.00" fill="#000000">cancelL_ooextendable</text>
</a>
</g>
</g>
<!-- Extensions_cancelL_ooextendable&#45;&gt;Extensions_ooExtendableAlong -->
<g id="edge10" class="edge">
<title>Extensions_cancelL_ooextendable&#45;&gt;Extensions_ooExtendableAlong</title>
<path fill="none" stroke="#000000" d="M2165.6539,-1384.4988C1918.9734,-1355.1669 1243.2155,-1260.945 1106,-1095.5169 1065.7884,-1047.0375 1074.8868,-848.4348 1079.8655,-773.9291"/>
<polygon fill="#000000" stroke="#000000" points="1083.3628,-774.088 1080.5638,-763.8696 1076.3796,-773.6031 1083.3628,-774.088"/>
</g>
<!-- Extensions_cancelL_extendable -->
<g id="node22" class="node">
<title>Extensions_cancelL_extendable</title>
<g id="a_node22"><a xlink:href="Extensions.html#cancelL_extendable" xlink:title="cancelL_extendable">
<ellipse fill="#f070d1" stroke="#000000" cx="2758" cy="-1069.5169" rx="81.4863" ry="18"/>
<text text-anchor="middle" x="2758" y="-1065.8169" font-family="Times,serif" font-size="14.00" fill="#000000">cancelL_extendable</text>
</a>
</g>
</g>
<!-- Extensions_cancelL_ooextendable&#45;&gt;Extensions_cancelL_extendable -->
<g id="edge11" class="edge">
<title>Extensions_cancelL_ooextendable&#45;&gt;Extensions_cancelL_extendable</title>
<path fill="none" stroke="#000000" d="M2293.3215,-1370.3546C2387.1102,-1309.6348 2631.6749,-1151.3011 2722.9624,-1092.2007"/>
<polygon fill="#000000" stroke="#000000" points="2725.0685,-1095.0066 2731.5608,-1086.634 2721.2643,-1089.1306 2725.0685,-1095.0066"/>
</g>
<!-- Extensions_ooextendable_compose -->
<g id="node8" class="node">
<title>Extensions_ooextendable_compose</title>
<g id="a_node8"><a xlink:href="Extensions.html#ooextendable_compose" xlink:title="ooextendable_compose">
<ellipse fill="#f070d1" stroke="#000000" cx="1232" cy="-1069.5169" rx="93.6762" ry="18"/>
<ellipse fill="none" stroke="#000000" cx="1232" cy="-1069.5169" rx="97.6799" ry="22"/>
<ellipse fill="none" stroke="#000000" cx="1232" cy="-1069.5169" rx="101.6835" ry="26"/>
<text text-anchor="middle" x="1232" y="-1065.8169" font-family="Times,serif" font-size="14.00" fill="#000000">ooextendable_compose</text>
</a>
</g>
</g>
<!-- Extensions_ooextendable_compose&#45;&gt;Extensions_ooExtendableAlong -->
<g id="edge12" class="edge">
<title>Extensions_ooextendable_compose&#45;&gt;Extensions_ooExtendableAlong</title>
<path fill="none" stroke="#000000" d="M1219.9784,-1043.5503C1192.0646,-983.2566 1123.0754,-834.2399 1094.6019,-772.737"/>
<polygon fill="#000000" stroke="#000000" points="1097.7698,-771.2487 1090.3924,-763.6445 1091.4176,-774.1896 1097.7698,-771.2487"/>
</g>
<!-- Extensions_extendable_compose -->
<g id="node23" class="node">
<title>Extensions_extendable_compose</title>
<g id="a_node23"><a xlink:href="Extensions.html#extendable_compose" xlink:title="extendable_compose">
<ellipse fill="#f070d1" stroke="#000000" cx="1266" cy="-745.5169" rx="85.2851" ry="18"/>
<text text-anchor="middle" x="1266" y="-741.8169" font-family="Times,serif" font-size="14.00" fill="#000000">extendable_compose</text>
</a>
</g>
</g>
<!-- Extensions_ooextendable_compose&#45;&gt;Extensions_extendable_compose -->
<g id="edge13" class="edge">
<title>Extensions_ooextendable_compose&#45;&gt;Extensions_extendable_compose</title>
<path fill="none" stroke="#000000" d="M1234.7536,-1043.2771C1241.062,-983.1612 1256.5171,-835.8832 1263.0296,-773.8235"/>
<polygon fill="#000000" stroke="#000000" points="1266.5391,-773.9146 1264.102,-763.6039 1259.5774,-773.184 1266.5391,-773.9146"/>
</g>
<!-- Extensions_ooextendable_postcompose -->
<g id="node9" class="node">
<title>Extensions_ooextendable_postcompose</title>
<g id="a_node9"><a xlink:href="Extensions.html#ooextendable_postcompose" xlink:title="ooextendable_postcompose">
<ellipse fill="#f070d1" stroke="#000000" cx="2722" cy="-1394.5169" rx="108.578" ry="18"/>
<ellipse fill="none" stroke="#000000" cx="2722" cy="-1394.5169" rx="112.5794" ry="22"/>
<ellipse fill="none" stroke="#000000" cx="2722" cy="-1394.5169" rx="116.5808" ry="26"/>
<text text-anchor="middle" x="2722" y="-1390.8169" font-family="Times,serif" font-size="14.00" fill="#000000">ooextendable_postcompose</text>
</a>
</g>
</g>
<!-- Extensions_ooextendable_postcompose&#45;&gt;Extensions_ooExtendableAlong -->
<g id="edge14" class="edge">
<title>Extensions_ooextendable_postcompose&#45;&gt;Extensions_ooExtendableAlong</title>
<path fill="none" stroke="#000000" d="M2618.7394,-1382.3925C2280.9163,-1341.7658 1224.3172,-1206.7392 1121,-1095.5169 1099.2413,-1072.0934 1087.0034,-853.302 1083.2537,-774.0258"/>
<polygon fill="#000000" stroke="#000000" points="1086.7392,-773.6279 1082.7808,-763.8003 1079.7466,-773.9514 1086.7392,-773.6279"/>
</g>
<!-- Extensions_extendable_postcompose -->
<g id="node24" class="node">
<title>Extensions_extendable_postcompose</title>
<g id="a_node24"><a xlink:href="Extensions.html#extendable_postcompose" xlink:title="extendable_postcompose">
<ellipse fill="#f070d1" stroke="#000000" cx="2957" cy="-1069.5169" rx="99.3824" ry="18"/>
<text text-anchor="middle" x="2957" y="-1065.8169" font-family="Times,serif" font-size="14.00" fill="#000000">extendable_postcompose</text>
</a>
</g>
</g>
<!-- Extensions_ooextendable_postcompose&#45;&gt;Extensions_extendable_postcompose -->
<g id="edge15" class="edge">
<title>Extensions_ooextendable_postcompose&#45;&gt;Extensions_extendable_postcompose</title>
<path fill="none" stroke="#000000" d="M2740.6365,-1368.7431C2784.4046,-1308.2126 2893.4032,-1157.4699 2937.7622,-1096.1224"/>
<polygon fill="#000000" stroke="#000000" points="2940.7992,-1097.8955 2943.8225,-1087.7412 2935.1267,-1093.7939 2940.7992,-1097.8955"/>
</g>
<!-- Extensions_equiv_ooextendable_isequiv -->
<g id="node10" class="node">
<title>Extensions_equiv_ooextendable_isequiv</title>
<g id="a_node10"><a xlink:href="Extensions.html#equiv_ooextendable_isequiv" xlink:title="equiv_ooextendable_isequiv">
<ellipse fill="#f070d1" stroke="#000000" cx="1552" cy="-1394.5169" rx="111.271" ry="18"/>
<ellipse fill="none" stroke="#000000" cx="1552" cy="-1394.5169" rx="115.2757" ry="22"/>
<ellipse fill="none" stroke="#000000" cx="1552" cy="-1394.5169" rx="119.2804" ry="26"/>
<text text-anchor="middle" x="1552" y="-1390.8169" font-family="Times,serif" font-size="14.00" fill="#000000">equiv_ooextendable_isequiv</text>
</a>
</g>
</g>
<!-- Extensions_equiv_ooextendable_pathsplit -->
<g id="node12" class="node">
<title>Extensions_equiv_ooextendable_pathsplit</title>
<g id="a_node12"><a xlink:href="Extensions.html#equiv_ooextendable_pathsplit" xlink:title="equiv_ooextendable_pathsplit">
<ellipse fill="#f070d1" stroke="#000000" cx="2110" cy="-1069.5169" rx="116.1796" ry="18"/>
<text text-anchor="middle" x="2110" y="-1065.8169" font-family="Times,serif" font-size="14.00" fill="#000000">equiv_ooextendable_pathsplit</text>
</a>
</g>
</g>
<!-- Extensions_equiv_ooextendable_isequiv&#45;&gt;Extensions_equiv_ooextendable_pathsplit -->
<g id="edge16" class="edge">
<title>Extensions_equiv_ooextendable_isequiv&#45;&gt;Extensions_equiv_ooextendable_pathsplit</title>
<path fill="none" stroke="#000000" d="M1593.9407,-1370.0891C1698.6265,-1309.1162 1970.2501,-1150.9125 2071.3445,-1092.0313"/>
<polygon fill="#000000" stroke="#000000" points="2073.143,-1095.0343 2080.0226,-1086.9769 2069.6199,-1088.9854 2073.143,-1095.0343"/>
</g>
<!-- Extensions_equiv_ooextendable_isequiv&#45;&gt;Extensions_ooExtendableAlong -->
<g id="edge17" class="edge">
<title>Extensions_equiv_ooextendable_isequiv&#45;&gt;Extensions_ooExtendableAlong</title>
<path fill="none" stroke="#000000" d="M1444.7796,-1383.094C1287.4988,-1359.9237 999.0591,-1291.6012 871,-1095.5169 792.2706,-974.9663 970.9417,-825.6085 1048.4051,-768.8632"/>
<polygon fill="#000000" stroke="#000000" points="1050.8412,-771.4206 1056.8898,-762.722 1046.7369,-765.75 1050.8412,-771.4206"/>
</g>
<!-- Extensions_ishprop_ooextendable -->
<g id="node11" class="node">
<title>Extensions_ishprop_ooextendable</title>
<g id="a_node11"><a xlink:href="Extensions.html#ishprop_ooextendable" xlink:title="ishprop_ooextendable">
<ellipse fill="#f070d1" stroke="#000000" cx="976" cy="-1069.5169" rx="88.2934" ry="18"/>
<ellipse fill="none" stroke="#000000" cx="976" cy="-1069.5169" rx="92.2889" ry="22"/>
<ellipse fill="none" stroke="#000000" cx="976" cy="-1069.5169" rx="96.2844" ry="26"/>
<text text-anchor="middle" x="976" y="-1065.8169" font-family="Times,serif" font-size="14.00" fill="#000000">ishprop_ooextendable</text>
</a>
</g>
</g>
<!-- Extensions_ishprop_ooextendable&#45;&gt;Extensions_ooExtendableAlong -->
<g id="edge18" class="edge">
<title>Extensions_ishprop_ooextendable&#45;&gt;Extensions_ooExtendableAlong</title>
<path fill="none" stroke="#000000" d="M984.4952,-1043.5503C1004.1398,-983.5047 1052.5726,-835.4648 1072.8448,-773.5007"/>
<polygon fill="#000000" stroke="#000000" points="1076.2864,-774.2371 1076.0694,-763.6445 1069.6334,-772.0605 1076.2864,-774.2371"/>
</g>
<!-- Extensions_equiv_extendable_pathsplit -->
<g id="node29" class="node">
<title>Extensions_equiv_extendable_pathsplit</title>
<g id="a_node29"><a xlink:href="Extensions.html#equiv_extendable_pathsplit" xlink:title="equiv_extendable_pathsplit">
<ellipse fill="#f070d1" stroke="#000000" cx="2221" cy="-745.5169" rx="107.4815" ry="18"/>
<text text-anchor="middle" x="2221" y="-741.8169" font-family="Times,serif" font-size="14.00" fill="#000000">equiv_extendable_pathsplit</text>
</a>
</g>
</g>
<!-- Extensions_equiv_ooextendable_pathsplit&#45;&gt;Extensions_equiv_extendable_pathsplit -->
<g id="edge19" class="edge">
<title>Extensions_equiv_ooextendable_pathsplit&#45;&gt;Extensions_equiv_extendable_pathsplit</title>
<path fill="none" stroke="#000000" d="M2116.2859,-1051.169C2134.831,-997.0373 2189.3986,-837.7588 2211.5215,-773.1838"/>
<polygon fill="#000000" stroke="#000000" points="2214.8531,-774.2583 2214.7831,-763.6637 2208.2309,-771.9895 2214.8531,-774.2583"/>
</g>
<!-- Extensions_isequiv_ooextendable -->
<g id="node13" class="node">
<title>Extensions_isequiv_ooextendable</title>
<g id="a_node13"><a xlink:href="Extensions.html#isequiv_ooextendable" xlink:title="isequiv_ooextendable">
<ellipse fill="#f070d1" stroke="#000000" cx="533" cy="-1069.5169" rx="87.1769" ry="18"/>
<ellipse fill="none" stroke="#000000" cx="533" cy="-1069.5169" rx="91.1807" ry="22"/>
<ellipse fill="none" stroke="#000000" cx="533" cy="-1069.5169" rx="95.1846" ry="26"/>
<text text-anchor="middle" x="533" y="-1065.8169" font-family="Times,serif" font-size="14.00" fill="#000000">isequiv_ooextendable</text>
</a>
</g>
</g>
<!-- Extensions_isequiv_ooextendable&#45;&gt;Extensions_ooExtendableAlong -->
<g id="edge20" class="edge">
<title>Extensions_isequiv_ooextendable&#45;&gt;Extensions_ooExtendableAlong</title>
<path fill="none" stroke="#000000" d="M573.3693,-1045.6924C675.9048,-985.1797 945.2644,-826.2134 1044.5506,-767.6182"/>
<polygon fill="#000000" stroke="#000000" points="1046.5087,-770.5268 1053.3418,-762.4299 1042.9508,-764.4983 1046.5087,-770.5268"/>
</g>
<!-- Extensions_isequiv_extendable -->
<g id="node28" class="node">
<title>Extensions_isequiv_extendable</title>
<g id="a_node28"><a xlink:href="Extensions.html#isequiv_extendable" xlink:title="isequiv_extendable">
<ellipse fill="#f070d1" stroke="#000000" cx="583" cy="-745.5169" rx="78.7863" ry="18"/>
<text text-anchor="middle" x="583" y="-741.8169" font-family="Times,serif" font-size="14.00" fill="#000000">isequiv_extendable</text>
</a>
</g>
</g>
<!-- Extensions_isequiv_ooextendable&#45;&gt;Extensions_isequiv_extendable -->
<g id="edge21" class="edge">
<title>Extensions_isequiv_ooextendable&#45;&gt;Extensions_isequiv_extendable</title>
<path fill="none" stroke="#000000" d="M537.0494,-1043.2771C546.3265,-983.1612 569.0546,-835.8832 578.6317,-773.8235"/>
<polygon fill="#000000" stroke="#000000" points="582.1426,-774.0208 580.2088,-763.6039 575.2245,-772.9531 582.1426,-774.0208"/>
</g>
<!-- Extensions_lower_ooextendablealong -->
<g id="node14" class="node">
<title>Extensions_lower_ooextendablealong</title>
<g id="a_node14"><a xlink:href="Extensions.html#lower_ooextendablealong" xlink:title="lower_ooextendablealong">
<ellipse fill="#f070d1" stroke="#000000" cx="328" cy="-1394.5169" rx="101.2901" ry="18"/>
<ellipse fill="none" stroke="#000000" cx="328" cy="-1394.5169" rx="105.2861" ry="22"/>
<ellipse fill="none" stroke="#000000" cx="328" cy="-1394.5169" rx="109.2821" ry="26"/>
<text text-anchor="middle" x="328" y="-1390.8169" font-family="Times,serif" font-size="14.00" fill="#000000">lower_ooextendablealong</text>
</a>
</g>
</g>
<!-- Extensions_lift_ooextendablealong -->
<g id="node15" class="node">
<title>Extensions_lift_ooextendablealong</title>
<g id="a_node15"><a xlink:href="Extensions.html#lift_ooextendablealong" xlink:title="lift_ooextendablealong">
<ellipse fill="#f070d1" stroke="#000000" cx="328" cy="-1069.5169" rx="91.784" ry="18"/>
<text text-anchor="middle" x="328" y="-1065.8169" font-family="Times,serif" font-size="14.00" fill="#000000">lift_ooextendablealong</text>
</a>
</g>
</g>
<!-- Extensions_lower_ooextendablealong&#45;&gt;Extensions_lift_ooextendablealong -->
<g id="edge22" class="edge">
<title>Extensions_lower_ooextendablealong&#45;&gt;Extensions_lift_ooextendablealong</title>
<path fill="none" stroke="#000000" d="M328,-1368.4702C328,-1308.3636 328,-1160.3557 328,-1097.9734"/>
<polygon fill="#000000" stroke="#000000" points="331.5001,-1097.7004 328,-1087.7005 324.5001,-1097.7005 331.5001,-1097.7004"/>
</g>
<!-- Extensions_lift_ooextendablealong&#45;&gt;Extensions_ooExtendableAlong -->
<g id="edge23" class="edge">
<title>Extensions_lift_ooextendablealong&#45;&gt;Extensions_ooExtendableAlong</title>
<path fill="none" stroke="#000000" d="M366.1672,-1053.1162C492.462,-998.8463 896.6327,-825.1708 1035.0081,-765.7097"/>
<polygon fill="#000000" stroke="#000000" points="1036.6985,-768.7929 1044.5043,-761.6291 1033.9348,-762.3615 1036.6985,-768.7929"/>
</g>
<!-- Extensions_lift_extendablealong -->
<g id="node31" class="node">
<title>Extensions_lift_extendablealong</title>
<g id="a_node31"><a xlink:href="Extensions.html#lift_extendablealong" xlink:title="lift_extendablealong">
<ellipse fill="#f070d1" stroke="#000000" cx="365" cy="-745.5169" rx="83.3857" ry="18"/>
<text text-anchor="middle" x="365" y="-741.8169" font-family="Times,serif" font-size="14.00" fill="#000000">lift_extendablealong</text>
</a>
</g>
</g>
<!-- Extensions_lift_ooextendablealong&#45;&gt;Extensions_lift_extendablealong -->
<g id="edge24" class="edge">
<title>Extensions_lift_ooextendablealong&#45;&gt;Extensions_lift_extendablealong</title>
<path fill="none" stroke="#000000" d="M330.0953,-1051.169C336.2516,-997.2601 354.3167,-839.0679 361.7489,-773.9858"/>
<polygon fill="#000000" stroke="#000000" points="365.2704,-773.9962 362.9277,-763.6637 358.3156,-773.202 365.2704,-773.9962"/>
</g>
<!-- Extensions_ExtendableAlong -->
<g id="node32" class="node">
<title>Extensions_ExtendableAlong</title>
<g id="a_node32"><a xlink:href="Extensions.html#ExtendableAlong" xlink:title="ExtendableAlong">
<ellipse fill="#f070d1" stroke="#000000" cx="1358" cy="-420.5169" rx="72.2875" ry="18"/>
<text text-anchor="middle" x="1358" y="-416.8169" font-family="Times,serif" font-size="14.00" fill="#000000">ExtendableAlong</text>
</a>
</g>
</g>
<!-- Extensions_ooExtendableAlong&#45;&gt;Extensions_ExtendableAlong -->
<g id="edge25" class="edge">
<title>Extensions_ooExtendableAlong&#45;&gt;Extensions_ExtendableAlong</title>
<path fill="none" stroke="#000000" d="M1097.2321,-727.5806C1143.4133,-673.2006 1281.9956,-510.0148 1336.06,-446.3521"/>
<polygon fill="#000000" stroke="#000000" points="1339.0097,-448.2857 1342.815,-438.3978 1333.6741,-443.7546 1339.0097,-448.2857"/>
</g>
<!-- Extensions_extendable_homotopy&#45;&gt;Extensions_ExtendableAlong -->
<g id="edge26" class="edge">
<title>Extensions_extendable_homotopy&#45;&gt;Extensions_ExtendableAlong</title>
<path fill="none" stroke="#000000" d="M847.5984,-728.273C938.4415,-673.4975 1220.3872,-503.4931 1321.4714,-442.5425"/>
<polygon fill="#000000" stroke="#000000" points="1323.363,-445.489 1330.1194,-437.3281 1319.7484,-439.4944 1323.363,-445.489"/>
</g>
<!-- Extensions_extendable_contr&#45;&gt;Extensions_ExtendableAlong -->
<g id="edge27" class="edge">
<title>Extensions_extendable_contr&#45;&gt;Extensions_ExtendableAlong</title>
<path fill="none" stroke="#000000" d="M1836.9124,-728.7279C1752.6935,-674.5276 1488.0015,-504.1812 1392.6583,-442.8217"/>
<polygon fill="#000000" stroke="#000000" points="1394.5379,-439.8692 1384.2346,-437.4006 1390.7496,-445.7556 1394.5379,-439.8692"/>
</g>
<!-- Extensions_extendable_equiv&#45;&gt;Extensions_ExtendableAlong -->
<g id="edge28" class="edge">
<title>Extensions_extendable_equiv&#45;&gt;Extensions_ExtendableAlong</title>
<path fill="none" stroke="#000000" d="M2999.0081,-734.4237C2741.3536,-685.1372 1700.9392,-486.1174 1425.2933,-433.3894"/>
<polygon fill="#000000" stroke="#000000" points="1425.9069,-429.9434 1415.4274,-431.5022 1424.5917,-436.8187 1425.9069,-429.9434"/>
</g>
<!-- Extensions_extendable_homotopic&#45;&gt;Extensions_ExtendableAlong -->
<g id="edge29" class="edge">
<title>Extensions_extendable_homotopic&#45;&gt;Extensions_ExtendableAlong</title>
<path fill="none" stroke="#000000" d="M1640.4986,-727.5806C1590.3668,-673.0896 1439.7249,-509.3483 1381.4109,-445.9636"/>
<polygon fill="#000000" stroke="#000000" points="1383.7968,-443.3875 1374.4504,-438.3978 1378.6453,-448.1269 1383.7968,-443.3875"/>
</g>
<!-- Extensions_cancelR_extendable&#45;&gt;Extensions_ExtendableAlong -->
<g id="edge30" class="edge">
<title>Extensions_cancelR_extendable&#45;&gt;Extensions_ExtendableAlong</title>
<path fill="none" stroke="#000000" d="M1444.7901,-727.1123C1429.451,-672.9254 1384.3781,-513.7005 1365.9696,-448.6703"/>
<polygon fill="#000000" stroke="#000000" points="1369.2443,-447.3883 1363.1528,-438.7197 1362.5089,-449.2949 1369.2443,-447.3883"/>
</g>
<!-- Extensions_extendable_postcompose_ -->
<g id="node25" class="node">
<title>Extensions_extendable_postcompose_</title>
<g id="a_node25"><a xlink:href="Extensions.html#extendable_postcompose'" xlink:title="extendable_postcompose&#39;">
<ellipse fill="#f070d1" stroke="#000000" cx="2758" cy="-745.5169" rx="100.9827" ry="18"/>
<text text-anchor="middle" x="2758" y="-741.8169" font-family="Times,serif" font-size="14.00" fill="#000000">extendable_postcompose&#39;</text>
</a>
</g>
</g>
<!-- Extensions_cancelL_extendable&#45;&gt;Extensions_extendable_postcompose_ -->
<g id="edge31" class="edge">
<title>Extensions_cancelL_extendable&#45;&gt;Extensions_extendable_postcompose_</title>
<path fill="none" stroke="#000000" d="M2758,-1051.169C2758,-997.2601 2758,-839.0679 2758,-773.9858"/>
<polygon fill="#000000" stroke="#000000" points="2761.5001,-773.6636 2758,-763.6637 2754.5001,-773.6637 2761.5001,-773.6636"/>
</g>
<!-- Extensions_extendable_compose&#45;&gt;Extensions_ExtendableAlong -->
<g id="edge32" class="edge">
<title>Extensions_extendable_compose&#45;&gt;Extensions_ExtendableAlong</title>
<path fill="none" stroke="#000000" d="M1271.2099,-727.1123C1286.549,-672.9254 1331.6219,-513.7005 1350.0304,-448.6703"/>
<polygon fill="#000000" stroke="#000000" points="1353.4911,-449.2949 1352.8472,-438.7197 1346.7557,-447.3883 1353.4911,-449.2949"/>
</g>
<!-- Extensions_extendable_postcompose&#45;&gt;Extensions_extendable_postcompose_ -->
<g id="edge33" class="edge">
<title>Extensions_extendable_postcompose&#45;&gt;Extensions_extendable_postcompose_</title>
<path fill="none" stroke="#000000" d="M2945.7307,-1051.169C2912.3464,-996.8146 2813.8485,-836.4461 2774.5062,-772.3914"/>
<polygon fill="#000000" stroke="#000000" points="2777.3618,-770.353 2769.1457,-763.6637 2771.397,-774.0166 2777.3618,-770.353"/>
</g>
<!-- Extensions_extendable_postcompose_&#45;&gt;Extensions_ExtendableAlong -->
<g id="edge34" class="edge">
<title>Extensions_extendable_postcompose_&#45;&gt;Extensions_ExtendableAlong</title>
<path fill="none" stroke="#000000" d="M2696.4912,-731.2381C2465.8677,-677.7005 1653.8375,-489.1935 1420.8971,-435.118"/>
<polygon fill="#000000" stroke="#000000" points="1421.4285,-431.6484 1410.896,-432.7964 1419.8455,-438.4671 1421.4285,-431.6484"/>
</g>
<!-- Extensions_equiv_extendable_isequiv -->
<g id="node26" class="node">
<title>Extensions_equiv_extendable_isequiv</title>
<g id="a_node26"><a xlink:href="Extensions.html#equiv_extendable_isequiv" xlink:title="equiv_extendable_isequiv">
<ellipse fill="#f070d1" stroke="#000000" cx="2548" cy="-1069.5169" rx="102.8683" ry="18"/>
<ellipse fill="none" stroke="#000000" cx="2548" cy="-1069.5169" rx="106.8752" ry="22"/>
<ellipse fill="none" stroke="#000000" cx="2548" cy="-1069.5169" rx="110.8821" ry="26"/>
<text text-anchor="middle" x="2548" y="-1065.8169" font-family="Times,serif" font-size="14.00" fill="#000000">equiv_extendable_isequiv</text>
</a>
</g>
</g>
<!-- Extensions_equiv_extendable_isequiv&#45;&gt;Extensions_equiv_extendable_pathsplit -->
<g id="edge35" class="edge">
<title>Extensions_equiv_extendable_isequiv&#45;&gt;Extensions_equiv_extendable_pathsplit</title>
<path fill="none" stroke="#000000" d="M2522.3409,-1044.0932C2461.1214,-983.4354 2307.0857,-830.8129 2246.2659,-770.551"/>
<polygon fill="#000000" stroke="#000000" points="2248.5553,-767.8923 2238.9882,-763.3401 2243.6284,-772.8648 2248.5553,-767.8923"/>
</g>
<!-- Extensions_ishprop_extendable -->
<g id="node27" class="node">
<title>Extensions_ishprop_extendable</title>
<g id="a_node27"><a xlink:href="Extensions.html#ishprop_extendable" xlink:title="ishprop_extendable">
<ellipse fill="#f070d1" stroke="#000000" cx="2332" cy="-1069.5169" rx="79.1053" ry="18"/>
<ellipse fill="none" stroke="#000000" cx="2332" cy="-1069.5169" rx="83.0959" ry="22"/>
<ellipse fill="none" stroke="#000000" cx="2332" cy="-1069.5169" rx="87.0864" ry="26"/>
<text text-anchor="middle" x="2332" y="-1065.8169" font-family="Times,serif" font-size="14.00" fill="#000000">ishprop_extendable</text>
</a>
</g>
</g>
<!-- Extensions_ishprop_extendable&#45;&gt;Extensions_equiv_extendable_pathsplit -->
<g id="edge36" class="edge">
<title>Extensions_ishprop_extendable&#45;&gt;Extensions_equiv_extendable_pathsplit</title>
<path fill="none" stroke="#000000" d="M2323.104,-1043.5503C2302.4903,-983.3806 2251.6058,-834.8527 2230.4558,-773.1177"/>
<polygon fill="#000000" stroke="#000000" points="2233.7625,-771.9704 2227.2104,-763.6445 2227.1404,-774.2391 2233.7625,-771.9704"/>
</g>
<!-- Extensions_isequiv_extendable&#45;&gt;Extensions_ExtendableAlong -->
<g id="edge37" class="edge">
<title>Extensions_isequiv_extendable&#45;&gt;Extensions_ExtendableAlong</title>
<path fill="none" stroke="#000000" d="M620.9045,-729.6215C749.8344,-675.5541 1171.1917,-498.8559 1311.8316,-439.8779"/>
<polygon fill="#000000" stroke="#000000" points="1313.2061,-443.0968 1321.0745,-436.0018 1310.499,-436.6415 1313.2061,-443.0968"/>
</g>
<!-- Extensions_equiv_extendable_pathsplit&#45;&gt;Extensions_ExtendableAlong -->
<g id="edge38" class="edge">
<title>Extensions_equiv_extendable_pathsplit&#45;&gt;Extensions_ExtendableAlong</title>
<path fill="none" stroke="#000000" d="M2177.3152,-729.0655C2031.4681,-674.1405 1561.8507,-497.2857 1407.6024,-439.1969"/>
<polygon fill="#000000" stroke="#000000" points="1408.4971,-435.7939 1397.9052,-435.545 1406.0301,-442.3448 1408.4971,-435.7939"/>
</g>
<!-- Extensions_lower_extendablealong -->
<g id="node30" class="node">
<title>Extensions_lower_extendablealong</title>
<g id="a_node30"><a xlink:href="Extensions.html#lower_extendablealong" xlink:title="lower_extendablealong">
<ellipse fill="#f070d1" stroke="#000000" cx="117" cy="-1069.5169" rx="92.8882" ry="18"/>
<ellipse fill="none" stroke="#000000" cx="117" cy="-1069.5169" rx="96.8858" ry="22"/>
<ellipse fill="none" stroke="#000000" cx="117" cy="-1069.5169" rx="100.8835" ry="26"/>
<text text-anchor="middle" x="117" y="-1065.8169" font-family="Times,serif" font-size="14.00" fill="#000000">lower_extendablealong</text>
</a>
</g>
</g>
<!-- Extensions_lower_extendablealong&#45;&gt;Extensions_lift_extendablealong -->
<g id="edge39" class="edge">
<title>Extensions_lower_extendablealong&#45;&gt;Extensions_lift_extendablealong</title>
<path fill="none" stroke="#000000" d="M136.6674,-1043.8224C182.966,-983.3355 298.4294,-832.4882 345.0288,-771.6083"/>
<polygon fill="#000000" stroke="#000000" points="348.0891,-773.3685 351.388,-763.3003 342.5306,-769.1137 348.0891,-773.3685"/>
</g>
<!-- Extensions_lift_extendablealong&#45;&gt;Extensions_ExtendableAlong -->
<g id="edge40" class="edge">
<title>Extensions_lift_extendablealong&#45;&gt;Extensions_ExtendableAlong</title>
<path fill="none" stroke="#000000" d="M410.9029,-730.4933C574.5892,-676.9202 1129.2298,-495.3914 1304.4705,-438.0366"/>
<polygon fill="#000000" stroke="#000000" points="1305.5823,-441.3555 1313.9975,-434.9185 1303.4049,-434.7028 1305.5823,-441.3555"/>
</g>
<!-- Extensions_lift_extensionalong -->
<g id="node37" class="node">
<title>Extensions_lift_extensionalong</title>
<g id="a_node37"><a xlink:href="Extensions.html#lift_extensionalong" xlink:title="lift_extensionalong">
<ellipse fill="#f070d1" stroke="#000000" cx="365" cy="-420.5169" rx="78.7863" ry="18"/>
<text text-anchor="middle" x="365" y="-416.8169" font-family="Times,serif" font-size="14.00" fill="#000000">lift_extensionalong</text>
</a>
</g>
</g>
<!-- Extensions_lift_extendablealong&#45;&gt;Extensions_lift_extensionalong -->
<g id="edge41" class="edge">
<title>Extensions_lift_extendablealong&#45;&gt;Extensions_lift_extensionalong</title>
<path fill="none" stroke="#000000" d="M365,-727.1123C365,-673.0371 365,-514.3567 365,-449.0737"/>
<polygon fill="#000000" stroke="#000000" points="368.5001,-448.7196 365,-438.7197 361.5001,-448.7197 368.5001,-448.7196"/>
</g>
<!-- Extensions_ExtensionAlong -->
<g id="node38" class="node">
<title>Extensions_ExtensionAlong</title>
<g id="a_node38"><a xlink:href="Extensions.html#ExtensionAlong" xlink:title="ExtensionAlong">
<ellipse fill="#f070d1" stroke="#000000" cx="886" cy="-125.5169" rx="67.6881" ry="18"/>
<text text-anchor="middle" x="886" y="-121.8169" font-family="Times,serif" font-size="14.00" fill="#000000">ExtensionAlong</text>
</a>
</g>
</g>
<!-- Extensions_ExtendableAlong&#45;&gt;Extensions_ExtensionAlong -->
<g id="edge42" class="edge">
<title>Extensions_ExtendableAlong&#45;&gt;Extensions_ExtensionAlong</title>
<path fill="none" stroke="#000000" d="M1330.928,-403.5969C1250.2643,-353.1821 1011.5481,-203.9845 921.1917,-147.5118"/>
<polygon fill="#000000" stroke="#000000" points="923.0051,-144.5178 912.6701,-142.1857 919.2951,-150.4538 923.0051,-144.5178"/>
</g>
<!-- Extensions_isequiv_path_extension -->
<g id="node33" class="node">
<title>Extensions_isequiv_path_extension</title>
<g id="a_node33"><a xlink:href="Extensions.html#isequiv_path_extension" xlink:title="isequiv_path_extension">
<ellipse fill="#f070d1" stroke="#000000" cx="1077" cy="-420.5169" rx="93.6762" ry="18"/>
<ellipse fill="none" stroke="#000000" cx="1077" cy="-420.5169" rx="97.6799" ry="22"/>
<ellipse fill="none" stroke="#000000" cx="1077" cy="-420.5169" rx="101.6835" ry="26"/>
<text text-anchor="middle" x="1077" y="-416.8169" font-family="Times,serif" font-size="14.00" fill="#000000">isequiv_path_extension</text>
</a>
</g>
</g>
<!-- Extensions_isequiv_path_extension&#45;&gt;Extensions_ExtensionAlong -->
<g id="edge43" class="edge">
<title>Extensions_isequiv_path_extension&#45;&gt;Extensions_ExtensionAlong</title>
<path fill="none" stroke="#000000" d="M1060.3841,-394.8537C1024.4471,-339.3488 939.7992,-208.6099 903.275,-152.1981"/>
<polygon fill="#000000" stroke="#000000" points="906.0121,-149.9856 897.6392,-143.4937 900.1361,-153.7901 906.0121,-149.9856"/>
</g>
<!-- Extensions_path_extension -->
<g id="node34" class="node">
<title>Extensions_path_extension</title>
<g id="a_node34"><a xlink:href="Extensions.html#path_extension" xlink:title="path_extension">
<ellipse fill="#f070d1" stroke="#000000" cx="886" cy="-420.5169" rx="63.8675" ry="18"/>
<ellipse fill="none" stroke="#000000" cx="886" cy="-420.5169" rx="67.8784" ry="22"/>
<ellipse fill="none" stroke="#000000" cx="886" cy="-420.5169" rx="71.8892" ry="26"/>
<text text-anchor="middle" x="886" y="-416.8169" font-family="Times,serif" font-size="14.00" fill="#000000">path_extension</text>
</a>
</g>
</g>
<!-- Extensions_path_extension&#45;&gt;Extensions_ExtensionAlong -->
<g id="edge44" class="edge">
<title>Extensions_path_extension&#45;&gt;Extensions_ExtensionAlong</title>
<path fill="none" stroke="#000000" d="M886,-394.3376C886,-339.0964 886,-211.0114 886,-153.8945"/>
<polygon fill="#000000" stroke="#000000" points="889.5001,-153.7739 886,-143.7739 882.5001,-153.7739 889.5001,-153.7739"/>
</g>
<!-- Extensions_equiv_path_extension -->
<g id="node35" class="node">
<title>Extensions_equiv_path_extension</title>
<g id="a_node35"><a xlink:href="Extensions.html#equiv_path_extension" xlink:title="equiv_path_extension">
<ellipse fill="#f070d1" stroke="#000000" cx="701" cy="-420.5169" rx="87.9648" ry="18"/>
<ellipse fill="none" stroke="#000000" cx="701" cy="-420.5169" rx="91.9749" ry="22"/>
<ellipse fill="none" stroke="#000000" cx="701" cy="-420.5169" rx="95.985" ry="26"/>
<text text-anchor="middle" x="701" y="-416.8169" font-family="Times,serif" font-size="14.00" fill="#000000">equiv_path_extension</text>
</a>
</g>
</g>
<!-- Extensions_equiv_path_extension&#45;&gt;Extensions_ExtensionAlong -->
<g id="edge45" class="edge">
<title>Extensions_equiv_path_extension&#45;&gt;Extensions_ExtensionAlong</title>
<path fill="none" stroke="#000000" d="M717.0939,-394.8537C751.9021,-339.3488 833.8908,-208.6099 869.2677,-152.1981"/>
<polygon fill="#000000" stroke="#000000" points="872.3787,-153.8251 874.7265,-143.4937 866.4484,-150.1061 872.3787,-153.8251"/>
</g>
<!-- Extensions_lower_extensionalong -->
<g id="node36" class="node">
<title>Extensions_lower_extensionalong</title>
<g id="a_node36"><a xlink:href="Extensions.html#lower_extensionalong" xlink:title="lower_extensionalong">
<ellipse fill="#f070d1" stroke="#000000" cx="167" cy="-745.5169" rx="88.2934" ry="18"/>
<ellipse fill="none" stroke="#000000" cx="167" cy="-745.5169" rx="92.2889" ry="22"/>
<ellipse fill="none" stroke="#000000" cx="167" cy="-745.5169" rx="96.2844" ry="26"/>
<text text-anchor="middle" x="167" y="-741.8169" font-family="Times,serif" font-size="14.00" fill="#000000">lower_extensionalong</text>
</a>
</g>
</g>
<!-- Extensions_lower_extensionalong&#45;&gt;Extensions_lift_extensionalong -->
<g id="edge46" class="edge">
<title>Extensions_lower_extensionalong&#45;&gt;Extensions_lift_extensionalong</title>
<path fill="none" stroke="#000000" d="M182.7022,-719.7431C219.5907,-659.1939 311.4733,-508.3764 348.8259,-447.0654"/>
<polygon fill="#000000" stroke="#000000" points="351.9185,-448.7162 354.1324,-438.3552 345.9405,-445.0742 351.9185,-448.7162"/>
</g>
<!-- Extensions_lift_extensionalong&#45;&gt;Extensions_ExtensionAlong -->
<g id="edge47" class="edge">
<title>Extensions_lift_extensionalong&#45;&gt;Extensions_ExtensionAlong</title>
<path fill="none" stroke="#000000" d="M394.504,-403.8112C483.5339,-353.4008 749.442,-202.8386 848.3733,-146.8218"/>
<polygon fill="#000000" stroke="#000000" points="850.1628,-149.8308 857.1402,-141.8579 846.7137,-143.7395 850.1628,-149.8308"/>
</g>
</g>
</svg>
