<?xml version="1.0" encoding="UTF-8" standalone="no"?>
<!DOCTYPE svg PUBLIC "-//W3C//DTD SVG 1.1//EN"
 "http://www.w3.org/Graphics/SVG/1.1/DTD/svg11.dtd">
<!-- Generated by graphviz version 2.26.3 (20100126.1600)
 -->
<!-- Title: HoTT_types_Record Pages: 1 -->
<svg width="520pt" height="120pt"
 viewBox="0.00 0.00 520.00 120.00" xmlns="http://www.w3.org/2000/svg" xmlns:xlink="http://www.w3.org/1999/xlink">
<g id="graph1" class="graph" transform="scale(1 1) rotate(0) translate(4 116)">
<title>HoTT_types_Record</title>
<polygon fill="white" stroke="white" points="-4,5 -4,-116 517,-116 517,5 -4,5"/>
<g id="graph2" class="cluster"><title>cluster_Record</title>
<polygon fill="#ffffc3" stroke="black" points="8,-8 8,-104 504,-104 504,-8 8,-8"/>
<text text-anchor="middle" x="39.5" y="-87.4" font-family="Times Roman,serif" font-size="14.00">Record</text>
</g>
<!-- Record_issig_isequiv -->
<g id="node1" class="node"><title>Record_issig_isequiv</title>
<a xlink:href="Record.html#issig_isequiv" xlink:title="issig_isequiv">
<ellipse fill="#f070d1" stroke="black" cx="417" cy="-43" rx="70.9686" ry="18.3848"/>
<ellipse fill="none" stroke="black" cx="417" cy="-43" rx="74.9435" ry="22.3848"/>
<ellipse fill="none" stroke="black" cx="417" cy="-43" rx="78.9183" ry="26.3848"/>
<text text-anchor="middle" x="417" y="-39.4" font-family="Times Roman,serif" font-size="14.00">issig_isequiv</text>
</a>
</g>
<!-- Record_issig_equiv -->
<g id="node2" class="node"><title>Record_issig_equiv</title>
<a xlink:href="Record.html#issig_equiv" xlink:title="issig_equiv">
<ellipse fill="#f070d1" stroke="black" cx="248" cy="-43" rx="63.9029" ry="18.3848"/>
<ellipse fill="none" stroke="black" cx="248" cy="-43" rx="67.8754" ry="22.3848"/>
<ellipse fill="none" stroke="black" cx="248" cy="-43" rx="71.8478" ry="26.3848"/>
<text text-anchor="middle" x="248" y="-39.4" font-family="Times Roman,serif" font-size="14.00">issig_equiv</text>
</a>
</g>
<!-- Record_issig_contr -->
<g id="node3" class="node"><title>Record_issig_contr</title>
<a xlink:href="Record.html#issig_contr" xlink:title="issig_contr">
<ellipse fill="#f070d1" stroke="black" cx="87" cy="-43" rx="62.9325" ry="18.3848"/>
<ellipse fill="none" stroke="black" cx="87" cy="-43" rx="66.9325" ry="22.3848"/>
<ellipse fill="none" stroke="black" cx="87" cy="-43" rx="70.9325" ry="26.3848"/>
<text text-anchor="middle" x="87" y="-39.4" font-family="Times Roman,serif" font-size="14.00">issig_contr</text>
</a>
</g>
</g>
</svg>
