<?xml version="1.0" encoding="UTF-8" standalone="no"?>
<!DOCTYPE svg PUBLIC "-//W3C//DTD SVG 1.1//EN"
 "http://www.w3.org/Graphics/SVG/1.1/DTD/svg11.dtd">
<!-- Generated by graphviz version 2.26.3 (20100126.1600)
 -->
<!-- Title: HoTT_categories_ProductLaws Pages: 1 -->
<svg width="1470pt" height="739pt"
 viewBox="0.00 0.00 1470.00 739.00" xmlns="http://www.w3.org/2000/svg" xmlns:xlink="http://www.w3.org/1999/xlink">
<g id="graph1" class="graph" transform="scale(1 1) rotate(0) translate(4 735)">
<title>HoTT_categories_ProductLaws</title>
<polygon fill="white" stroke="white" points="-4,5 -4,-735 1467,-735 1467,5 -4,5"/>
<g id="graph2" class="cluster"><title>cluster_ProductLaws</title>
<polygon fill="#ffffc3" stroke="black" points="8,-19.3642 8,-711.636 1454,-711.636 1454,-19.3642 8,-19.3642"/>
<text text-anchor="middle" x="61" y="-695.036" font-family="Times Roman,serif" font-size="14.00">ProductLaws</text>
</g>
<g id="graph3" class="cluster"><title>cluster_ProductLaws_Associativity</title>
<polygon fill="#ffffa3" stroke="black" points="1226,-217.848 1226,-629.338 1446,-629.338 1446,-217.848 1226,-217.848"/>
<text text-anchor="middle" x="1277.5" y="-612.738" font-family="Times Roman,serif" font-size="14.00">Associativity</text>
</g>
<g id="graph4" class="cluster"><title>cluster_ProductLaws_Law0</title>
<polygon fill="#ffffa3" stroke="black" points="592,-38.7285 592,-629.338 1218,-629.338 1218,-38.7285 592,-38.7285"/>
<text text-anchor="middle" x="619.5" y="-612.738" font-family="Times Roman,serif" font-size="14.00">Law0</text>
</g>
<g id="graph5" class="cluster"><title>cluster_ProductLaws_Law1</title>
<polygon fill="#ffffa3" stroke="black" points="132,-217.848 132,-629.338 584,-629.338 584,-217.848 132,-217.848"/>
<text text-anchor="middle" x="159.5" y="-612.738" font-family="Times Roman,serif" font-size="14.00">Law1</text>
</g>
<g id="graph6" class="cluster"><title>cluster_ProductLaws_Swap</title>
<polygon fill="#ffffa3" stroke="black" points="16,-217.848 16,-629.338 124,-629.338 124,-217.848 16,-217.848"/>
<text text-anchor="middle" x="43.5" y="-612.738" font-family="Times Roman,serif" font-size="14.00">Swap</text>
</g>
<!-- ProductLaws_Swap_law -->
<g id="node1" class="node"><title>ProductLaws_Swap_law</title>
<a xlink:href="ProductLaws.html#Swap.law" xlink:title="law">
<ellipse fill="#f070d1" stroke="black" cx="70" cy="-481.364" rx="28.9914" ry="18.3848"/>
<ellipse fill="none" stroke="black" cx="70" cy="-481.364" rx="32.9914" ry="22.3848"/>
<ellipse fill="none" stroke="black" cx="70" cy="-481.364" rx="36.9914" ry="26.3848"/>
<text text-anchor="middle" x="70" y="-477.764" font-family="Times Roman,serif" font-size="14.00">law</text>
</a>
</g>
<!-- ProductLaws_Swap_functor -->
<g id="node2" class="node"><title>ProductLaws_Swap_functor</title>
<a xlink:href="ProductLaws.html#Swap.functor" xlink:title="functor">
<ellipse fill="#f070d1" stroke="black" cx="70" cy="-283.364" rx="46.1672" ry="18.3848"/>
<text text-anchor="middle" x="70" y="-279.764" font-family="Times Roman,serif" font-size="14.00">functor</text>
</a>
</g>
<!-- ProductLaws_Swap_law&#45;&gt;ProductLaws_Swap_functor -->
<g id="edge2" class="edge"><title>ProductLaws_Swap_law&#45;&gt;ProductLaws_Swap_functor</title>
<path fill="none" stroke="black" d="M70,-454.661C70,-417.577 70,-350.733 70,-312.43"/>
<polygon fill="black" stroke="black" points="73.5001,-311.978 70,-301.978 66.5001,-311.978 73.5001,-311.978"/>
</g>
<!-- ProductLaws_Law1_law1_ -->
<g id="node3" class="node"><title>ProductLaws_Law1_law1_</title>
<a xlink:href="ProductLaws.html#Law1.law1&#39;" xlink:title="law1&#39;">
<ellipse fill="#facdef" stroke="black" cx="469" cy="-481.364" rx="37.0648" ry="18.3848"/>
<ellipse fill="none" stroke="black" cx="469" cy="-481.364" rx="41.0209" ry="22.3848"/>
<ellipse fill="none" stroke="black" cx="469" cy="-481.364" rx="44.9769" ry="26.3848"/>
<text text-anchor="middle" x="469" y="-477.764" font-family="Times Roman,serif" font-size="14.00">law1&#39;</text>
</a>
</g>
<!-- ProductLaws_Law1_inverse_ -->
<g id="node5" class="node"><title>ProductLaws_Law1_inverse_</title>
<a xlink:href="ProductLaws.html#Law1.inverse&#39;" xlink:title="inverse&#39;">
<ellipse fill="#f070d1" stroke="black" cx="411" cy="-283.364" rx="48.9975" ry="18.3848"/>
<text text-anchor="middle" x="411" y="-279.764" font-family="Times Roman,serif" font-size="14.00">inverse&#39;</text>
</a>
</g>
<!-- ProductLaws_Law1_law1_&#45;&gt;ProductLaws_Law1_inverse_ -->
<g id="edge4" class="edge"><title>ProductLaws_Law1_law1_&#45;&gt;ProductLaws_Law1_inverse_</title>
<path fill="none" stroke="black" d="M461.298,-455.071C450.398,-417.859 430.55,-350.103 419.322,-311.772"/>
<polygon fill="black" stroke="black" points="422.568,-310.404 416.398,-301.791 415.85,-312.372 422.568,-310.404"/>
</g>
<!-- ProductLaws_Law1_functor_ -->
<g id="node7" class="node"><title>ProductLaws_Law1_functor_</title>
<a xlink:href="ProductLaws.html#Law1.functor&#39;" xlink:title="functor&#39;">
<ellipse fill="#f070d1" stroke="black" cx="527" cy="-283.364" rx="48.7904" ry="18.3848"/>
<text text-anchor="middle" x="527" y="-279.764" font-family="Times Roman,serif" font-size="14.00">functor&#39;</text>
</a>
</g>
<!-- ProductLaws_Law1_law1_&#45;&gt;ProductLaws_Law1_functor_ -->
<g id="edge6" class="edge"><title>ProductLaws_Law1_law1_&#45;&gt;ProductLaws_Law1_functor_</title>
<path fill="none" stroke="black" d="M476.702,-455.071C487.602,-417.859 507.45,-350.103 518.678,-311.772"/>
<polygon fill="black" stroke="black" points="522.15,-312.372 521.602,-301.791 515.432,-310.404 522.15,-312.372"/>
</g>
<!-- ProductLaws_Law1_law1 -->
<g id="node4" class="node"><title>ProductLaws_Law1_law1</title>
<a xlink:href="ProductLaws.html#Law1.law1" xlink:title="law1">
<ellipse fill="#facdef" stroke="black" cx="242" cy="-481.364" rx="34.949" ry="18.3848"/>
<ellipse fill="none" stroke="black" cx="242" cy="-481.364" rx="38.903" ry="22.3848"/>
<ellipse fill="none" stroke="black" cx="242" cy="-481.364" rx="42.857" ry="26.3848"/>
<text text-anchor="middle" x="242" y="-477.764" font-family="Times Roman,serif" font-size="14.00">law1</text>
</a>
</g>
<!-- ProductLaws_Law1_inverse -->
<g id="node6" class="node"><title>ProductLaws_Law1_inverse</title>
<a xlink:href="ProductLaws.html#Law1.inverse" xlink:title="inverse">
<ellipse fill="#f070d1" stroke="black" cx="187" cy="-283.364" rx="46.8775" ry="18.3848"/>
<text text-anchor="middle" x="187" y="-279.764" font-family="Times Roman,serif" font-size="14.00">inverse</text>
</a>
</g>
<!-- ProductLaws_Law1_law1&#45;&gt;ProductLaws_Law1_inverse -->
<g id="edge8" class="edge"><title>ProductLaws_Law1_law1&#45;&gt;ProductLaws_Law1_inverse</title>
<path fill="none" stroke="black" d="M234.696,-455.071C224.36,-417.859 205.539,-350.103 194.891,-311.772"/>
<polygon fill="black" stroke="black" points="198.167,-310.489 192.119,-301.791 191.423,-312.363 198.167,-310.489"/>
</g>
<!-- ProductLaws_Law1_functor -->
<g id="node8" class="node"><title>ProductLaws_Law1_functor</title>
<a xlink:href="ProductLaws.html#Law1.functor" xlink:title="functor">
<ellipse fill="#f070d1" stroke="black" cx="298" cy="-283.364" rx="46.1672" ry="18.3848"/>
<text text-anchor="middle" x="298" y="-279.764" font-family="Times Roman,serif" font-size="14.00">functor</text>
</a>
</g>
<!-- ProductLaws_Law1_law1&#45;&gt;ProductLaws_Law1_functor -->
<g id="edge10" class="edge"><title>ProductLaws_Law1_law1&#45;&gt;ProductLaws_Law1_functor</title>
<path fill="none" stroke="black" d="M249.436,-455.071C259.961,-417.859 279.124,-350.103 289.965,-311.772"/>
<polygon fill="black" stroke="black" points="293.435,-312.366 292.788,-301.791 286.699,-310.461 293.435,-312.366"/>
</g>
<!-- ProductLaws_Law0_law_ -->
<g id="node9" class="node"><title>ProductLaws_Law0_law_</title>
<a xlink:href="ProductLaws.html#Law0.law&#39;" xlink:title="law&#39;">
<ellipse fill="#f070d1" stroke="black" cx="1003" cy="-481.364" rx="31.1127" ry="18.3848"/>
<ellipse fill="none" stroke="black" cx="1003" cy="-481.364" rx="35.1127" ry="22.3848"/>
<ellipse fill="none" stroke="black" cx="1003" cy="-481.364" rx="39.1127" ry="26.3848"/>
<text text-anchor="middle" x="1003" y="-477.764" font-family="Times Roman,serif" font-size="14.00">law&#39;</text>
</a>
</g>
<!-- ProductLaws_Law0_inverse_ -->
<g id="node11" class="node"><title>ProductLaws_Law0_inverse_</title>
<a xlink:href="ProductLaws.html#Law0.inverse&#39;" xlink:title="inverse&#39;">
<ellipse fill="#f070d1" stroke="black" cx="945" cy="-283.364" rx="48.9975" ry="18.3848"/>
<text text-anchor="middle" x="945" y="-279.764" font-family="Times Roman,serif" font-size="14.00">inverse&#39;</text>
</a>
</g>
<!-- ProductLaws_Law0_law_&#45;&gt;ProductLaws_Law0_inverse_ -->
<g id="edge12" class="edge"><title>ProductLaws_Law0_law_&#45;&gt;ProductLaws_Law0_inverse_</title>
<path fill="none" stroke="black" d="M995.298,-455.071C984.398,-417.859 964.55,-350.103 953.322,-311.772"/>
<polygon fill="black" stroke="black" points="956.568,-310.404 950.398,-301.791 949.85,-312.372 956.568,-310.404"/>
</g>
<!-- ProductLaws_Law0_functor_ -->
<g id="node13" class="node"><title>ProductLaws_Law0_functor_</title>
<a xlink:href="ProductLaws.html#Law0.functor&#39;" xlink:title="functor&#39;">
<ellipse fill="#f070d1" stroke="black" cx="1061" cy="-283.364" rx="48.7904" ry="18.3848"/>
<text text-anchor="middle" x="1061" y="-279.764" font-family="Times Roman,serif" font-size="14.00">functor&#39;</text>
</a>
</g>
<!-- ProductLaws_Law0_law_&#45;&gt;ProductLaws_Law0_functor_ -->
<g id="edge14" class="edge"><title>ProductLaws_Law0_law_&#45;&gt;ProductLaws_Law0_functor_</title>
<path fill="none" stroke="black" d="M1010.7,-455.071C1021.6,-417.859 1041.45,-350.103 1052.68,-311.772"/>
<polygon fill="black" stroke="black" points="1056.15,-312.372 1055.6,-301.791 1049.43,-310.404 1056.15,-312.372"/>
</g>
<!-- ProductLaws_Law0_law -->
<g id="node10" class="node"><title>ProductLaws_Law0_law</title>
<a xlink:href="ProductLaws.html#Law0.law" xlink:title="law">
<ellipse fill="#f070d1" stroke="black" cx="702" cy="-481.364" rx="28.9914" ry="18.3848"/>
<ellipse fill="none" stroke="black" cx="702" cy="-481.364" rx="32.9914" ry="22.3848"/>
<ellipse fill="none" stroke="black" cx="702" cy="-481.364" rx="36.9914" ry="26.3848"/>
<text text-anchor="middle" x="702" y="-477.764" font-family="Times Roman,serif" font-size="14.00">law</text>
</a>
</g>
<!-- ProductLaws_Law0_inverse -->
<g id="node12" class="node"><title>ProductLaws_Law0_inverse</title>
<a xlink:href="ProductLaws.html#Law0.inverse" xlink:title="inverse">
<ellipse fill="#f070d1" stroke="black" cx="647" cy="-283.364" rx="46.8775" ry="18.3848"/>
<text text-anchor="middle" x="647" y="-279.764" font-family="Times Roman,serif" font-size="14.00">inverse</text>
</a>
</g>
<!-- ProductLaws_Law0_law&#45;&gt;ProductLaws_Law0_inverse -->
<g id="edge16" class="edge"><title>ProductLaws_Law0_law&#45;&gt;ProductLaws_Law0_inverse</title>
<path fill="none" stroke="black" d="M694.696,-455.071C684.36,-417.859 665.539,-350.103 654.891,-311.772"/>
<polygon fill="black" stroke="black" points="658.167,-310.489 652.119,-301.791 651.423,-312.363 658.167,-310.489"/>
</g>
<!-- ProductLaws_Law0_functor -->
<g id="node14" class="node"><title>ProductLaws_Law0_functor</title>
<a xlink:href="ProductLaws.html#Law0.functor" xlink:title="functor">
<ellipse fill="#f070d1" stroke="black" cx="758" cy="-283.364" rx="46.1672" ry="18.3848"/>
<text text-anchor="middle" x="758" y="-279.764" font-family="Times Roman,serif" font-size="14.00">functor</text>
</a>
</g>
<!-- ProductLaws_Law0_law&#45;&gt;ProductLaws_Law0_functor -->
<g id="edge18" class="edge"><title>ProductLaws_Law0_law&#45;&gt;ProductLaws_Law0_functor</title>
<path fill="none" stroke="black" d="M709.436,-455.071C719.961,-417.859 739.124,-350.103 749.965,-311.772"/>
<polygon fill="black" stroke="black" points="753.435,-312.366 752.788,-301.791 746.699,-310.461 753.435,-312.366"/>
</g>
<!-- ProductLaws_Law0_is_initial_category__product_ -->
<g id="node15" class="node"><title>ProductLaws_Law0_is_initial_category__product_</title>
<a xlink:href="ProductLaws.html#Law0.is_initial_category__product&#39;" xlink:title="is_initial_category__product&#39;">
<ellipse fill="#f070d1" stroke="black" cx="1061" cy="-104.364" rx="149.2" ry="18.3848"/>
<text text-anchor="middle" x="1061" y="-100.764" font-family="Times Roman,serif" font-size="14.00">is_initial_category__product&#39;</text>
</a>
</g>
<!-- ProductLaws_Law0_functor_&#45;&gt;ProductLaws_Law0_is_initial_category__product_ -->
<g id="edge20" class="edge"><title>ProductLaws_Law0_functor_&#45;&gt;ProductLaws_Law0_is_initial_category__product_</title>
<path fill="none" stroke="black" d="M1061,-264.546C1061,-233.175 1061,-169.993 1061,-133.048"/>
<polygon fill="black" stroke="black" points="1064.5,-132.93 1061,-122.93 1057.5,-132.93 1064.5,-132.93"/>
</g>
<!-- ProductLaws_Law0_is_initial_category__product -->
<g id="node16" class="node"><title>ProductLaws_Law0_is_initial_category__product</title>
<a xlink:href="ProductLaws.html#Law0.is_initial_category__product" xlink:title="is_initial_category__product">
<ellipse fill="#f070d1" stroke="black" cx="747" cy="-104.364" rx="147.078" ry="18.3848"/>
<text text-anchor="middle" x="747" y="-100.764" font-family="Times Roman,serif" font-size="14.00">is_initial_category__product</text>
</a>
</g>
<!-- ProductLaws_Law0_functor&#45;&gt;ProductLaws_Law0_is_initial_category__product -->
<g id="edge22" class="edge"><title>ProductLaws_Law0_functor&#45;&gt;ProductLaws_Law0_is_initial_category__product</title>
<path fill="none" stroke="black" d="M756.844,-264.546C754.916,-233.175 751.033,-169.993 748.763,-133.048"/>
<polygon fill="black" stroke="black" points="752.248,-132.696 748.141,-122.93 745.261,-133.126 752.248,-132.696"/>
</g>
<!-- ProductLaws_Associativity_law -->
<g id="node17" class="node"><title>ProductLaws_Associativity_law</title>
<a xlink:href="ProductLaws.html#Associativity.law" xlink:title="law">
<ellipse fill="#f070d1" stroke="black" cx="1336" cy="-481.364" rx="28.9914" ry="18.3848"/>
<ellipse fill="none" stroke="black" cx="1336" cy="-481.364" rx="32.9914" ry="22.3848"/>
<ellipse fill="none" stroke="black" cx="1336" cy="-481.364" rx="36.9914" ry="26.3848"/>
<text text-anchor="middle" x="1336" y="-477.764" font-family="Times Roman,serif" font-size="14.00">law</text>
</a>
</g>
<!-- ProductLaws_Associativity_inverse -->
<g id="node18" class="node"><title>ProductLaws_Associativity_inverse</title>
<a xlink:href="ProductLaws.html#Associativity.inverse" xlink:title="inverse">
<ellipse fill="#f070d1" stroke="black" cx="1281" cy="-283.364" rx="46.8775" ry="18.3848"/>
<text text-anchor="middle" x="1281" y="-279.764" font-family="Times Roman,serif" font-size="14.00">inverse</text>
</a>
</g>
<!-- ProductLaws_Associativity_law&#45;&gt;ProductLaws_Associativity_inverse -->
<g id="edge24" class="edge"><title>ProductLaws_Associativity_law&#45;&gt;ProductLaws_Associativity_inverse</title>
<path fill="none" stroke="black" d="M1328.7,-455.071C1318.36,-417.859 1299.54,-350.103 1288.89,-311.772"/>
<polygon fill="black" stroke="black" points="1292.17,-310.489 1286.12,-301.791 1285.42,-312.363 1292.17,-310.489"/>
</g>
<!-- ProductLaws_Associativity_functor -->
<g id="node19" class="node"><title>ProductLaws_Associativity_functor</title>
<a xlink:href="ProductLaws.html#Associativity.functor" xlink:title="functor">
<ellipse fill="#f070d1" stroke="black" cx="1392" cy="-283.364" rx="46.1672" ry="18.3848"/>
<text text-anchor="middle" x="1392" y="-279.764" font-family="Times Roman,serif" font-size="14.00">functor</text>
</a>
</g>
<!-- ProductLaws_Associativity_law&#45;&gt;ProductLaws_Associativity_functor -->
<g id="edge26" class="edge"><title>ProductLaws_Associativity_law&#45;&gt;ProductLaws_Associativity_functor</title>
<path fill="none" stroke="black" d="M1343.44,-455.071C1353.96,-417.859 1373.12,-350.103 1383.97,-311.772"/>
<polygon fill="black" stroke="black" points="1387.43,-312.366 1386.79,-301.791 1380.7,-310.461 1387.43,-312.366"/>
</g>
</g>
</svg>
