<?xml version="1.0" encoding="UTF-8" standalone="no"?>
<!DOCTYPE svg PUBLIC "-//W3C//DTD SVG 1.1//EN"
 "http://www.w3.org/Graphics/SVG/1.1/DTD/svg11.dtd">
<!-- Generated by graphviz version 2.26.3 (20100126.1600)
 -->
<!-- Title: HoTT_Modalities_Accessible Pages: 1 -->
<svg width="1100pt" height="554pt"
 viewBox="0.00 0.00 1100.00 554.00" xmlns="http://www.w3.org/2000/svg" xmlns:xlink="http://www.w3.org/1999/xlink">
<g id="graph1" class="graph" transform="scale(1 1) rotate(0) translate(4 550)">
<title>HoTT_Modalities_Accessible</title>
<polygon fill="white" stroke="white" points="-4,5 -4,-550 1097,-550 1097,5 -4,5"/>
<g id="graph2" class="cluster"><title>cluster_Accessible</title>
<polygon fill="#ffffc3" stroke="black" points="8.13408,-8 8.13408,-538 1083.87,-538 1083.87,-8 8.13408,-8"/>
<text text-anchor="middle" x="51.1341" y="-521.4" font-family="Times Roman,serif" font-size="14.00">Accessible</text>
</g>
<g id="graph3" class="cluster"><title>cluster_Accessible_IsLocal_Internal</title>
<polygon fill="#ffffa3" stroke="black" points="948.637,-320 948.637,-400 1075.73,-400 1075.73,-320 948.637,-320"/>
<text text-anchor="middle" x="1011.14" y="-383.4" font-family="Times Roman,serif" font-size="14.00">IsLocal_Internal</text>
</g>
<g id="graph4" class="cluster"><title>cluster_Accessible_IsNull_Internal</title>
<polygon fill="#ffffa3" stroke="black" points="896.782,-408 896.782,-504 1015.74,-504 1015.74,-408 896.782,-408"/>
<text text-anchor="middle" x="955.282" y="-487.4" font-family="Times Roman,serif" font-size="14.00">IsNull_Internal</text>
</g>
<!-- Accessible_IsNull_Internal_IsNull -->
<g id="node1" class="node"><title>Accessible_IsNull_Internal_IsNull</title>
<a xlink:href="Accessible.html#IsNull_Internal.IsNull" xlink:title="IsNull">
<ellipse fill="#f070d1" stroke="black" cx="956.464" cy="-443" rx="38.8909" ry="18.3848"/>
<ellipse fill="none" stroke="black" cx="956.464" cy="-443" rx="42.8909" ry="22.3848"/>
<ellipse fill="none" stroke="black" cx="956.464" cy="-443" rx="46.8909" ry="26.3848"/>
<text text-anchor="middle" x="956.464" y="-439.4" font-family="Times Roman,serif" font-size="14.00">IsNull</text>
</a>
</g>
<!-- Accessible_IsLocal_Internal_IsLocal -->
<g id="node2" class="node"><title>Accessible_IsLocal_Internal_IsLocal</title>
<a xlink:href="Accessible.html#IsLocal_Internal.IsLocal" xlink:title="IsLocal">
<ellipse fill="#f070d1" stroke="black" cx="1007.46" cy="-347" rx="44.0472" ry="18.3848"/>
<text text-anchor="middle" x="1007.46" y="-343.4" font-family="Times Roman,serif" font-size="14.00">IsLocal</text>
</a>
</g>
<!-- Accessible_IsNull_Internal_IsNull&#45;&gt;Accessible_IsLocal_Internal_IsLocal -->
<g id="edge2" class="edge"><title>Accessible_IsNull_Internal_IsNull&#45;&gt;Accessible_IsLocal_Internal_IsLocal</title>
<path fill="none" stroke="black" d="M969.997,-417.526C977.094,-404.167 985.79,-387.797 993.018,-374.192"/>
<polygon fill="black" stroke="black" points="996.148,-375.76 997.749,-365.286 989.967,-372.475 996.148,-375.76"/>
</g>
<!-- Accessible_null_to_local_generators -->
<g id="node5" class="node"><title>Accessible_null_to_local_generators</title>
<a xlink:href="Accessible.html#null_to_local_generators" xlink:title="null_to_local_generators">
<ellipse fill="#f070d1" stroke="black" cx="807.464" cy="-347" rx="130.815" ry="18.3848"/>
<text text-anchor="middle" x="807.464" y="-343.4" font-family="Times Roman,serif" font-size="14.00">null_to_local_generators</text>
</a>
</g>
<!-- Accessible_IsNull_Internal_IsNull&#45;&gt;Accessible_null_to_local_generators -->
<g id="edge4" class="edge"><title>Accessible_IsNull_Internal_IsNull&#45;&gt;Accessible_null_to_local_generators</title>
<path fill="none" stroke="black" d="M926.68,-422.232C919.756,-417.495 912.384,-412.525 905.464,-408 886.004,-395.276 864.055,-381.556 845.87,-370.357"/>
<polygon fill="black" stroke="black" points="847.625,-367.328 837.272,-365.077 843.962,-373.293 847.625,-367.328"/>
</g>
<!-- Accessible_lgenerator -->
<g id="node13" class="node"><title>Accessible_lgenerator</title>
<a xlink:href="Accessible.html#lgenerator" xlink:title="lgenerator">
<ellipse fill="#f070d1" stroke="black" cx="1011.46" cy="-265" rx="62.9325" ry="18.3848"/>
<text text-anchor="middle" x="1011.46" y="-261.4" font-family="Times Roman,serif" font-size="14.00">lgenerator</text>
</a>
</g>
<!-- Accessible_IsLocal_Internal_IsLocal&#45;&gt;Accessible_lgenerator -->
<g id="edge6" class="edge"><title>Accessible_IsLocal_Internal_IsLocal&#45;&gt;Accessible_lgenerator</title>
<path fill="none" stroke="black" d="M1008.37,-328.393C1008.87,-318.118 1009.51,-305.137 1010.07,-293.602"/>
<polygon fill="black" stroke="black" points="1013.57,-293.692 1010.56,-283.533 1006.58,-293.351 1013.57,-293.692"/>
</g>
<!-- Accessible_ooextendable_isnull_fibers -->
<g id="node3" class="node"><title>Accessible_ooextendable_isnull_fibers</title>
<a xlink:href="Accessible.html#ooextendable_isnull_fibers" xlink:title="ooextendable_isnull_fibers">
<ellipse fill="#f070d1" stroke="black" cx="687.464" cy="-443" rx="140.007" ry="18.3848"/>
<ellipse fill="none" stroke="black" cx="687.464" cy="-443" rx="144.007" ry="22.3848"/>
<ellipse fill="none" stroke="black" cx="687.464" cy="-443" rx="148.007" ry="26.3848"/>
<text text-anchor="middle" x="687.464" y="-439.4" font-family="Times Roman,serif" font-size="14.00">ooextendable_isnull_fibers</text>
</a>
</g>
<!-- Accessible_extendable_isnull_fibers -->
<g id="node4" class="node"><title>Accessible_extendable_isnull_fibers</title>
<a xlink:href="Accessible.html#extendable_isnull_fibers" xlink:title="extendable_isnull_fibers">
<ellipse fill="#f070d1" stroke="black" cx="525.464" cy="-347" rx="128.193" ry="18.3848"/>
<text text-anchor="middle" x="525.464" y="-343.4" font-family="Times Roman,serif" font-size="14.00">extendable_isnull_fibers</text>
</a>
</g>
<!-- Accessible_ooextendable_isnull_fibers&#45;&gt;Accessible_extendable_isnull_fibers -->
<g id="edge8" class="edge"><title>Accessible_ooextendable_isnull_fibers&#45;&gt;Accessible_extendable_isnull_fibers</title>
<path fill="none" stroke="black" d="M644.476,-417.526C619.707,-402.848 588.804,-384.535 564.697,-370.249"/>
<polygon fill="black" stroke="black" points="566.205,-367.074 555.817,-364.987 562.636,-373.096 566.205,-367.074"/>
</g>
<!-- Accessible_ngen_type -->
<g id="node6" class="node"><title>Accessible_ngen_type</title>
<a xlink:href="Accessible.html#ngen_type" xlink:title="ngen_type">
<ellipse fill="#f070d1" stroke="black" cx="865.464" cy="-265" rx="62.9325" ry="18.3848"/>
<text text-anchor="middle" x="865.464" y="-261.4" font-family="Times Roman,serif" font-size="14.00">ngen_type</text>
</a>
</g>
<!-- Accessible_null_to_local_generators&#45;&gt;Accessible_ngen_type -->
<g id="edge10" class="edge"><title>Accessible_null_to_local_generators&#45;&gt;Accessible_ngen_type</title>
<path fill="none" stroke="black" d="M820.625,-328.393C828.317,-317.518 838.153,-303.611 846.652,-291.596"/>
<polygon fill="black" stroke="black" points="849.637,-293.436 852.554,-283.251 843.922,-289.394 849.637,-293.436"/>
</g>
<!-- Accessible_Build_LocalGenerators -->
<g id="node20" class="node"><title>Accessible_Build_LocalGenerators</title>
<a xlink:href="Accessible.html#Build_LocalGenerators" xlink:title="Build_LocalGenerators">
<ellipse fill="#7faaff" stroke="black" cx="159.464" cy="-265" rx="121.122" ry="18.3848"/>
<text text-anchor="middle" x="159.464" y="-261.4" font-family="Times Roman,serif" font-size="14.00">Build_LocalGenerators</text>
</a>
</g>
<!-- Accessible_null_to_local_generators&#45;&gt;Accessible_Build_LocalGenerators -->
<g id="edge12" class="edge"><title>Accessible_null_to_local_generators&#45;&gt;Accessible_Build_LocalGenerators</title>
<path fill="none" stroke="black" d="M733.572,-331.642C710.845,-327.35 685.696,-323.035 662.464,-320 499.378,-298.692 456.388,-314.508 293.464,-292 275.215,-289.479 255.713,-286.004 237.395,-282.386"/>
<polygon fill="black" stroke="black" points="237.85,-278.908 227.356,-280.366 236.469,-285.77 237.85,-278.908"/>
</g>
<!-- Accessible_ngen_indices -->
<g id="node7" class="node"><title>Accessible_ngen_indices</title>
<a xlink:href="Accessible.html#ngen_indices" xlink:title="ngen_indices">
<ellipse fill="#f070d1" stroke="black" cx="644.464" cy="-183" rx="74.2462" ry="18.3848"/>
<text text-anchor="middle" x="644.464" y="-179.4" font-family="Times Roman,serif" font-size="14.00">ngen_indices</text>
</a>
</g>
<!-- Accessible_ngen_type&#45;&gt;Accessible_ngen_indices -->
<g id="edge14" class="edge"><title>Accessible_ngen_type&#45;&gt;Accessible_ngen_indices</title>
<path fill="none" stroke="black" d="M826.208,-250.435C789.769,-236.914 735.311,-216.708 695.509,-201.94"/>
<polygon fill="black" stroke="black" points="696.573,-198.602 685.98,-198.404 694.138,-205.165 696.573,-198.602"/>
</g>
<!-- Accessible_NullGenerators -->
<g id="node12" class="node"><title>Accessible_NullGenerators</title>
<a xlink:href="Accessible.html#NullGenerators" xlink:title="NullGenerators">
<ellipse fill="#e2cdfa" stroke="black" cx="644.464" cy="-109" rx="85.7684" ry="18.3848"/>
<text text-anchor="middle" x="644.464" y="-105.4" font-family="Times Roman,serif" font-size="14.00">NullGenerators</text>
</a>
</g>
<!-- Accessible_ngen_indices&#45;&gt;Accessible_NullGenerators -->
<g id="edge16" class="edge"><title>Accessible_ngen_indices&#45;&gt;Accessible_NullGenerators</title>
<path fill="none" stroke="black" d="M644.464,-164.327C644.464,-156.264 644.464,-146.648 644.464,-137.711"/>
<polygon fill="black" stroke="black" points="647.964,-137.667 644.464,-127.667 640.964,-137.667 647.964,-137.667"/>
</g>
<!-- Accessible_NullGenerators_rec -->
<g id="node8" class="node"><title>Accessible_NullGenerators_rec</title>
<a xlink:href="Accessible.html#NullGenerators_rec" xlink:title="NullGenerators_rec">
<ellipse fill="#f070d1" stroke="black" cx="667.464" cy="-265" rx="106.066" ry="18.3848"/>
<ellipse fill="none" stroke="black" cx="667.464" cy="-265" rx="110.066" ry="22.3848"/>
<ellipse fill="none" stroke="black" cx="667.464" cy="-265" rx="114.066" ry="26.3848"/>
<text text-anchor="middle" x="667.464" y="-261.4" font-family="Times Roman,serif" font-size="14.00">NullGenerators_rec</text>
</a>
</g>
<!-- Accessible_NullGenerators_rect -->
<g id="node10" class="node"><title>Accessible_NullGenerators_rect</title>
<a xlink:href="Accessible.html#NullGenerators_rect" xlink:title="NullGenerators_rect">
<ellipse fill="#f070d1" stroke="black" cx="430.464" cy="-183" rx="109.81" ry="18.3848"/>
<text text-anchor="middle" x="430.464" y="-179.4" font-family="Times Roman,serif" font-size="14.00">NullGenerators_rect</text>
</a>
</g>
<!-- Accessible_NullGenerators_rec&#45;&gt;Accessible_NullGenerators_rect -->
<g id="edge18" class="edge"><title>Accessible_NullGenerators_rec&#45;&gt;Accessible_NullGenerators_rect</title>
<path fill="none" stroke="black" d="M603.64,-242.918C567.674,-230.473 523.1,-215.051 488.182,-202.97"/>
<polygon fill="black" stroke="black" points="489.199,-199.618 478.604,-199.656 486.91,-206.234 489.199,-199.618"/>
</g>
<!-- Accessible_NullGenerators_ind -->
<g id="node9" class="node"><title>Accessible_NullGenerators_ind</title>
<a xlink:href="Accessible.html#NullGenerators_ind" xlink:title="NullGenerators_ind">
<ellipse fill="#7fffd4" stroke="black" cx="416.464" cy="-265" rx="106.066" ry="18.3848"/>
<ellipse fill="none" stroke="black" cx="416.464" cy="-265" rx="110.066" ry="22.3848"/>
<ellipse fill="none" stroke="black" cx="416.464" cy="-265" rx="114.066" ry="26.3848"/>
<text text-anchor="middle" x="416.464" y="-261.4" font-family="Times Roman,serif" font-size="14.00">NullGenerators_ind</text>
</a>
</g>
<!-- Accessible_NullGenerators_ind&#45;&gt;Accessible_NullGenerators_rect -->
<g id="edge20" class="edge"><title>Accessible_NullGenerators_ind&#45;&gt;Accessible_NullGenerators_rect</title>
<path fill="none" stroke="black" d="M421.048,-238.15C422.499,-229.649 424.108,-220.223 425.58,-211.604"/>
<polygon fill="black" stroke="black" points="429.054,-212.054 427.287,-201.607 422.154,-210.875 429.054,-212.054"/>
</g>
<!-- Accessible_Build_NullGenerators -->
<g id="node11" class="node"><title>Accessible_Build_NullGenerators</title>
<a xlink:href="Accessible.html#Build_NullGenerators" xlink:title="Build_NullGenerators">
<ellipse fill="#7faaff" stroke="black" cx="420.464" cy="-109" rx="115.966" ry="18.3848"/>
<text text-anchor="middle" x="420.464" y="-105.4" font-family="Times Roman,serif" font-size="14.00">Build_NullGenerators</text>
</a>
</g>
<!-- Accessible_NullGenerators_rect&#45;&gt;Accessible_Build_NullGenerators -->
<g id="edge22" class="edge"><title>Accessible_NullGenerators_rect&#45;&gt;Accessible_Build_NullGenerators</title>
<path fill="none" stroke="black" d="M427.94,-164.327C426.851,-156.264 425.551,-146.648 424.344,-137.711"/>
<polygon fill="black" stroke="black" points="427.794,-137.109 422.986,-127.667 420.857,-138.046 427.794,-137.109"/>
</g>
<!-- Accessible_NullGenerators_rect&#45;&gt;Accessible_NullGenerators -->
<g id="edge24" class="edge"><title>Accessible_NullGenerators_rect&#45;&gt;Accessible_NullGenerators</title>
<path fill="none" stroke="black" d="M478.756,-166.301C511.519,-154.972 554.917,-139.965 589.081,-128.151"/>
<polygon fill="black" stroke="black" points="590.603,-131.328 598.91,-124.752 588.315,-124.713 590.603,-131.328"/>
</g>
<!-- Accessible_lgen_codomain -->
<g id="node14" class="node"><title>Accessible_lgen_codomain</title>
<a xlink:href="Accessible.html#lgen_codomain" xlink:title="lgen_codomain">
<ellipse fill="#f070d1" stroke="black" cx="823.464" cy="-183" rx="84.1457" ry="18.3848"/>
<text text-anchor="middle" x="823.464" y="-179.4" font-family="Times Roman,serif" font-size="14.00">lgen_codomain</text>
</a>
</g>
<!-- Accessible_lgenerator&#45;&gt;Accessible_lgen_codomain -->
<g id="edge26" class="edge"><title>Accessible_lgenerator&#45;&gt;Accessible_lgen_codomain</title>
<path fill="none" stroke="black" d="M976.102,-249.576C946.382,-236.613 903.64,-217.971 870.941,-203.708"/>
<polygon fill="black" stroke="black" points="872.139,-200.412 861.574,-199.622 869.34,-206.829 872.139,-200.412"/>
</g>
<!-- Accessible_lgen_domain -->
<g id="node15" class="node"><title>Accessible_lgen_domain</title>
<a xlink:href="Accessible.html#lgen_domain" xlink:title="lgen_domain">
<ellipse fill="#f070d1" stroke="black" cx="1001.46" cy="-183" rx="73.0388" ry="18.3848"/>
<text text-anchor="middle" x="1001.46" y="-179.4" font-family="Times Roman,serif" font-size="14.00">lgen_domain</text>
</a>
</g>
<!-- Accessible_lgenerator&#45;&gt;Accessible_lgen_domain -->
<g id="edge28" class="edge"><title>Accessible_lgenerator&#45;&gt;Accessible_lgen_domain</title>
<path fill="none" stroke="black" d="M1009.19,-246.393C1007.94,-236.118 1006.36,-223.137 1004.95,-211.602"/>
<polygon fill="black" stroke="black" points="1008.41,-211.036 1003.72,-201.533 1001.46,-211.884 1008.41,-211.036"/>
</g>
<!-- Accessible_lgen_indices -->
<g id="node16" class="node"><title>Accessible_lgen_indices</title>
<a xlink:href="Accessible.html#lgen_indices" xlink:title="lgen_indices">
<ellipse fill="#f070d1" stroke="black" cx="823.464" cy="-109" rx="70.2092" ry="18.3848"/>
<text text-anchor="middle" x="823.464" y="-105.4" font-family="Times Roman,serif" font-size="14.00">lgen_indices</text>
</a>
</g>
<!-- Accessible_lgen_codomain&#45;&gt;Accessible_lgen_indices -->
<g id="edge30" class="edge"><title>Accessible_lgen_codomain&#45;&gt;Accessible_lgen_indices</title>
<path fill="none" stroke="black" d="M823.464,-164.327C823.464,-156.264 823.464,-146.648 823.464,-137.711"/>
<polygon fill="black" stroke="black" points="826.964,-137.667 823.464,-127.667 819.964,-137.667 826.964,-137.667"/>
</g>
<!-- Accessible_lgen_domain&#45;&gt;Accessible_lgen_indices -->
<g id="edge32" class="edge"><title>Accessible_lgen_domain&#45;&gt;Accessible_lgen_indices</title>
<path fill="none" stroke="black" d="M963.278,-167.125C936.204,-155.869 899.694,-140.691 870.773,-128.668"/>
<polygon fill="black" stroke="black" points="871.858,-125.328 861.28,-124.721 869.17,-131.792 871.858,-125.328"/>
</g>
<!-- Accessible_LocalGenerators -->
<g id="node21" class="node"><title>Accessible_LocalGenerators</title>
<a xlink:href="Accessible.html#LocalGenerators" xlink:title="LocalGenerators">
<ellipse fill="#e2cdfa" stroke="black" cx="466.464" cy="-35" rx="91.9239" ry="18.3848"/>
<text text-anchor="middle" x="466.464" y="-31.4" font-family="Times Roman,serif" font-size="14.00">LocalGenerators</text>
</a>
</g>
<!-- Accessible_lgen_indices&#45;&gt;Accessible_LocalGenerators -->
<g id="edge34" class="edge"><title>Accessible_lgen_indices&#45;&gt;Accessible_LocalGenerators</title>
<path fill="none" stroke="black" d="M770.631,-96.8495C760.305,-94.5314 749.552,-92.1569 739.464,-90 673.145,-75.8212 597.54,-60.668 542.737,-49.865"/>
<polygon fill="black" stroke="black" points="543.24,-46.397 532.753,-47.8996 541.888,-53.2652 543.24,-46.397"/>
</g>
<!-- Accessible_LocalGenerators_rec -->
<g id="node17" class="node"><title>Accessible_LocalGenerators_rec</title>
<a xlink:href="Accessible.html#LocalGenerators_rec" xlink:title="LocalGenerators_rec">
<ellipse fill="#f070d1" stroke="black" cx="397.464" cy="-443" rx="111.255" ry="18.3848"/>
<ellipse fill="none" stroke="black" cx="397.464" cy="-443" rx="115.239" ry="22.3848"/>
<ellipse fill="none" stroke="black" cx="397.464" cy="-443" rx="119.222" ry="26.3848"/>
<text text-anchor="middle" x="397.464" y="-439.4" font-family="Times Roman,serif" font-size="14.00">LocalGenerators_rec</text>
</a>
</g>
<!-- Accessible_LocalGenerators_rect -->
<g id="node19" class="node"><title>Accessible_LocalGenerators_rect</title>
<a xlink:href="Accessible.html#LocalGenerators_rect" xlink:title="LocalGenerators_rect">
<ellipse fill="#f070d1" stroke="black" cx="148.464" cy="-347" rx="115.966" ry="18.3848"/>
<text text-anchor="middle" x="148.464" y="-343.4" font-family="Times Roman,serif" font-size="14.00">LocalGenerators_rect</text>
</a>
</g>
<!-- Accessible_LocalGenerators_rec&#45;&gt;Accessible_LocalGenerators_rect -->
<g id="edge36" class="edge"><title>Accessible_LocalGenerators_rec&#45;&gt;Accessible_LocalGenerators_rect</title>
<path fill="none" stroke="black" d="M337.822,-420.006C296.751,-404.171 242.614,-383.299 202.749,-367.929"/>
<polygon fill="black" stroke="black" points="203.784,-364.577 193.194,-364.246 201.266,-371.109 203.784,-364.577"/>
</g>
<!-- Accessible_LocalGenerators_ind -->
<g id="node18" class="node"><title>Accessible_LocalGenerators_ind</title>
<a xlink:href="Accessible.html#LocalGenerators_ind" xlink:title="LocalGenerators_ind">
<ellipse fill="#7fffd4" stroke="black" cx="137.464" cy="-443" rx="111.255" ry="18.3848"/>
<ellipse fill="none" stroke="black" cx="137.464" cy="-443" rx="115.239" ry="22.3848"/>
<ellipse fill="none" stroke="black" cx="137.464" cy="-443" rx="119.222" ry="26.3848"/>
<text text-anchor="middle" x="137.464" y="-439.4" font-family="Times Roman,serif" font-size="14.00">LocalGenerators_ind</text>
</a>
</g>
<!-- Accessible_LocalGenerators_ind&#45;&gt;Accessible_LocalGenerators_rect -->
<g id="edge38" class="edge"><title>Accessible_LocalGenerators_ind&#45;&gt;Accessible_LocalGenerators_rect</title>
<path fill="none" stroke="black" d="M140.528,-416.259C141.968,-403.689 143.688,-388.682 145.157,-375.856"/>
<polygon fill="black" stroke="black" points="148.66,-376.03 146.321,-365.697 141.706,-375.233 148.66,-376.03"/>
</g>
<!-- Accessible_LocalGenerators_rect&#45;&gt;Accessible_Build_LocalGenerators -->
<g id="edge40" class="edge"><title>Accessible_LocalGenerators_rect&#45;&gt;Accessible_Build_LocalGenerators</title>
<path fill="none" stroke="black" d="M150.96,-328.393C152.338,-318.118 154.079,-305.137 155.627,-293.602"/>
<polygon fill="black" stroke="black" points="159.117,-293.91 156.977,-283.533 152.179,-292.979 159.117,-293.91"/>
</g>
<!-- Accessible_LocalGenerators_rect&#45;&gt;Accessible_LocalGenerators -->
<g id="edge42" class="edge"><title>Accessible_LocalGenerators_rect&#45;&gt;Accessible_LocalGenerators</title>
<path fill="none" stroke="black" d="M82.7855,-331.733C62.1491,-323.509 41.6023,-310.983 29.4637,-292 16.5342,-271.781 17.2992,-258.689 29.4637,-238 101.962,-114.699 272.562,-65.5466 377.876,-46.499"/>
<polygon fill="black" stroke="black" points="378.614,-49.9232 387.859,-44.7482 377.404,-43.0284 378.614,-49.9232"/>
</g>
</g>
</svg>
