<?xml version="1.0" encoding="UTF-8" standalone="no"?>
<!DOCTYPE svg PUBLIC "-//W3C//DTD SVG 1.1//EN"
 "http://www.w3.org/Graphics/SVG/1.1/DTD/svg11.dtd">
<!-- Generated by graphviz version 2.39.20161220.0128 (20161220.0128)
 -->
<!-- Title: HoTT_Categories_Functor_Pointwise_Core Pages: 1 -->
<svg width="1424pt" height="716pt"
 viewBox="0.00 0.00 1424.00 716.00" xmlns="http://www.w3.org/2000/svg" xmlns:xlink="http://www.w3.org/1999/xlink">
<g id="graph0" class="graph" transform="scale(1 1) rotate(0) translate(4 712)">
<title>HoTT_Categories_Functor_Pointwise_Core</title>
<polygon fill="#ffffff" stroke="transparent" points="-4,4 -4,-712 1420,-712 1420,4 -4,4"/>
<g id="clust1" class="cluster">
<title>cluster_Core</title>
<polygon fill="#ffffc3" stroke="#000000" points="8,-22.5657 8,-685.4343 1408,-685.4343 1408,-22.5657 8,-22.5657"/>
<text text-anchor="middle" x="29.5" y="-670.2343" font-family="Times,serif" font-size="14.00" fill="#000000">Core</text>
</g>
<!-- Core_pointwise_whiskerR -->
<g id="node1" class="node">
<title>Core_pointwise_whiskerR</title>
<g id="a_node1"><a xlink:href="Core.html#pointwise_whiskerR" xlink:title="pointwise_whiskerR">
<ellipse fill="#f070d1" stroke="#000000" cx="1152" cy="-524.5657" rx="83.3687" ry="18"/>
<ellipse fill="none" stroke="#000000" cx="1152" cy="-524.5657" rx="87.3772" ry="22"/>
<ellipse fill="none" stroke="#000000" cx="1152" cy="-524.5657" rx="91.3856" ry="26"/>
<text text-anchor="middle" x="1152" y="-520.8657" font-family="Times,serif" font-size="14.00" fill="#000000">pointwise_whiskerR</text>
</a>
</g>
</g>
<!-- Core_pointwise_whiskerR_subproof0 -->
<g id="node2" class="node">
<title>Core_pointwise_whiskerR_subproof0</title>
<g id="a_node2"><a xlink:href="Core.html#pointwise_whiskerR_subproof0" xlink:title="pointwise_whiskerR_subproof0">
<ellipse fill="#facdef" stroke="#000000" cx="1023" cy="-298.5657" rx="122.6784" ry="18"/>
<text text-anchor="middle" x="1023" y="-294.8657" font-family="Times,serif" font-size="14.00" fill="#000000">pointwise_whiskerR_subproof0</text>
</a>
</g>
</g>
<!-- Core_pointwise_whiskerR&#45;&gt;Core_pointwise_whiskerR_subproof0 -->
<g id="edge1" class="edge">
<title>Core_pointwise_whiskerR&#45;&gt;Core_pointwise_whiskerR_subproof0</title>
<path fill="none" stroke="#000000" d="M1137.2021,-498.6407C1112.6013,-455.5417 1063.5248,-369.5627 1038.4799,-325.6856"/>
<polygon fill="#000000" stroke="#000000" points="1041.3712,-323.6904 1033.3742,-316.7407 1035.2918,-327.1605 1041.3712,-323.6904"/>
</g>
<!-- Core_pointwise_whiskerR_subproof -->
<g id="node3" class="node">
<title>Core_pointwise_whiskerR_subproof</title>
<g id="a_node3"><a xlink:href="Core.html#pointwise_whiskerR_subproof" xlink:title="pointwise_whiskerR_subproof">
<ellipse fill="#facdef" stroke="#000000" cx="1282" cy="-298.5657" rx="118.0794" ry="18"/>
<text text-anchor="middle" x="1282" y="-294.8657" font-family="Times,serif" font-size="14.00" fill="#000000">pointwise_whiskerR_subproof</text>
</a>
</g>
</g>
<!-- Core_pointwise_whiskerR&#45;&gt;Core_pointwise_whiskerR_subproof -->
<g id="edge2" class="edge">
<title>Core_pointwise_whiskerR&#45;&gt;Core_pointwise_whiskerR_subproof</title>
<path fill="none" stroke="#000000" d="M1166.9127,-498.6407C1191.756,-455.4514 1241.3685,-369.202 1266.5585,-325.4102"/>
<polygon fill="#000000" stroke="#000000" points="1269.5931,-327.1541 1271.5454,-316.7407 1263.5253,-323.6638 1269.5931,-327.1541"/>
</g>
<!-- Core_pointwise_whiskerR_morphism_of -->
<g id="node10" class="node">
<title>Core_pointwise_whiskerR_morphism_of</title>
<g id="a_node10"><a xlink:href="Core.html#pointwise_whiskerR_morphism_of" xlink:title="pointwise_whiskerR_morphism_of">
<ellipse fill="#f070d1" stroke="#000000" cx="1143" cy="-95.5657" rx="135.6761" ry="18"/>
<text text-anchor="middle" x="1143" y="-91.8657" font-family="Times,serif" font-size="14.00" fill="#000000">pointwise_whiskerR_morphism_of</text>
</a>
</g>
</g>
<!-- Core_pointwise_whiskerR_subproof0&#45;&gt;Core_pointwise_whiskerR_morphism_of -->
<g id="edge3" class="edge">
<title>Core_pointwise_whiskerR_subproof0&#45;&gt;Core_pointwise_whiskerR_morphism_of</title>
<path fill="none" stroke="#000000" d="M1033.6492,-280.5508C1054.8201,-244.7367 1102.2927,-164.4289 1127.1452,-122.3868"/>
<polygon fill="#000000" stroke="#000000" points="1130.2988,-123.9298 1132.3747,-113.5403 1124.2729,-120.3676 1130.2988,-123.9298"/>
</g>
<!-- Core_pointwise_whiskerR_subproof&#45;&gt;Core_pointwise_whiskerR_morphism_of -->
<g id="edge4" class="edge">
<title>Core_pointwise_whiskerR_subproof&#45;&gt;Core_pointwise_whiskerR_morphism_of</title>
<path fill="none" stroke="#000000" d="M1269.6647,-280.5508C1245.0387,-244.5863 1189.69,-163.7533 1161.0037,-121.8589"/>
<polygon fill="#000000" stroke="#000000" points="1163.8454,-119.8139 1155.3077,-113.5403 1158.0696,-123.7688 1163.8454,-119.8139"/>
</g>
<!-- Core_pointwise_whiskerL -->
<g id="node4" class="node">
<title>Core_pointwise_whiskerL</title>
<g id="a_node4"><a xlink:href="Core.html#pointwise_whiskerL" xlink:title="pointwise_whiskerL">
<ellipse fill="#f070d1" stroke="#000000" cx="635" cy="-524.5657" rx="82.5816" ry="18"/>
<ellipse fill="none" stroke="#000000" cx="635" cy="-524.5657" rx="86.5835" ry="22"/>
<ellipse fill="none" stroke="#000000" cx="635" cy="-524.5657" rx="90.5854" ry="26"/>
<text text-anchor="middle" x="635" y="-520.8657" font-family="Times,serif" font-size="14.00" fill="#000000">pointwise_whiskerL</text>
</a>
</g>
</g>
<!-- Core_pointwise_whiskerL_subproof0 -->
<g id="node5" class="node">
<title>Core_pointwise_whiskerL_subproof0</title>
<g id="a_node5"><a xlink:href="Core.html#pointwise_whiskerL_subproof0" xlink:title="pointwise_whiskerL_subproof0">
<ellipse fill="#facdef" stroke="#000000" cx="506" cy="-298.5657" rx="122.3786" ry="18"/>
<text text-anchor="middle" x="506" y="-294.8657" font-family="Times,serif" font-size="14.00" fill="#000000">pointwise_whiskerL_subproof0</text>
</a>
</g>
</g>
<!-- Core_pointwise_whiskerL&#45;&gt;Core_pointwise_whiskerL_subproof0 -->
<g id="edge5" class="edge">
<title>Core_pointwise_whiskerL&#45;&gt;Core_pointwise_whiskerL_subproof0</title>
<path fill="none" stroke="#000000" d="M620.2021,-498.6407C595.6013,-455.5417 546.5248,-369.5627 521.4799,-325.6856"/>
<polygon fill="#000000" stroke="#000000" points="524.3712,-323.6904 516.3742,-316.7407 518.2918,-327.1605 524.3712,-323.6904"/>
</g>
<!-- Core_pointwise_whiskerL_subproof -->
<g id="node6" class="node">
<title>Core_pointwise_whiskerL_subproof</title>
<g id="a_node6"><a xlink:href="Core.html#pointwise_whiskerL_subproof" xlink:title="pointwise_whiskerL_subproof">
<ellipse fill="#facdef" stroke="#000000" cx="764" cy="-298.5657" rx="118.0794" ry="18"/>
<text text-anchor="middle" x="764" y="-294.8657" font-family="Times,serif" font-size="14.00" fill="#000000">pointwise_whiskerL_subproof</text>
</a>
</g>
</g>
<!-- Core_pointwise_whiskerL&#45;&gt;Core_pointwise_whiskerL_subproof -->
<g id="edge6" class="edge">
<title>Core_pointwise_whiskerL&#45;&gt;Core_pointwise_whiskerL_subproof</title>
<path fill="none" stroke="#000000" d="M649.7979,-498.6407C674.3987,-455.5417 723.4752,-369.5627 748.5201,-325.6856"/>
<polygon fill="#000000" stroke="#000000" points="751.7082,-327.1605 753.6258,-316.7407 745.6288,-323.6904 751.7082,-327.1605"/>
</g>
<!-- Core_pointwise_whiskerL_morphism_of -->
<g id="node11" class="node">
<title>Core_pointwise_whiskerL_morphism_of</title>
<g id="a_node11"><a xlink:href="Core.html#pointwise_whiskerL_morphism_of" xlink:title="pointwise_whiskerL_morphism_of">
<ellipse fill="#f070d1" stroke="#000000" cx="556" cy="-95.5657" rx="135.3763" ry="18"/>
<text text-anchor="middle" x="556" y="-91.8657" font-family="Times,serif" font-size="14.00" fill="#000000">pointwise_whiskerL_morphism_of</text>
</a>
</g>
</g>
<!-- Core_pointwise_whiskerL_subproof0&#45;&gt;Core_pointwise_whiskerL_morphism_of -->
<g id="edge7" class="edge">
<title>Core_pointwise_whiskerL_subproof0&#45;&gt;Core_pointwise_whiskerL_morphism_of</title>
<path fill="none" stroke="#000000" d="M510.4372,-280.5508C519.1622,-245.1271 538.6087,-166.1745 549.0518,-123.7752"/>
<polygon fill="#000000" stroke="#000000" points="552.5077,-124.379 551.5009,-113.8321 545.7108,-122.7048 552.5077,-124.379"/>
</g>
<!-- Core_pointwise_whiskerL_subproof&#45;&gt;Core_pointwise_whiskerL_morphism_of -->
<g id="edge8" class="edge">
<title>Core_pointwise_whiskerL_subproof&#45;&gt;Core_pointwise_whiskerL_morphism_of</title>
<path fill="none" stroke="#000000" d="M745.5414,-280.5508C708.3055,-244.2101 624.1293,-162.0573 581.6069,-120.5571"/>
<polygon fill="#000000" stroke="#000000" points="584.0184,-118.02 574.4172,-113.5403 579.1292,-123.0296 584.0184,-118.02"/>
</g>
<!-- Core_pointwise -->
<g id="node7" class="node">
<title>Core_pointwise</title>
<g id="a_node7"><a xlink:href="Core.html#pointwise" xlink:title="pointwise">
<ellipse fill="#f070d1" stroke="#000000" cx="193" cy="-524.5657" rx="44.7157" ry="18"/>
<ellipse fill="none" stroke="#000000" cx="193" cy="-524.5657" rx="48.7041" ry="22"/>
<ellipse fill="none" stroke="#000000" cx="193" cy="-524.5657" rx="52.6925" ry="26"/>
<text text-anchor="middle" x="193" y="-520.8657" font-family="Times,serif" font-size="14.00" fill="#000000">pointwise</text>
</a>
</g>
</g>
<!-- Core_pointwise_subproof0 -->
<g id="node8" class="node">
<title>Core_pointwise_subproof0</title>
<g id="a_node8"><a xlink:href="Core.html#pointwise_subproof0" xlink:title="pointwise_subproof0">
<ellipse fill="#facdef" stroke="#000000" cx="101" cy="-298.5657" rx="85.2851" ry="18"/>
<text text-anchor="middle" x="101" y="-294.8657" font-family="Times,serif" font-size="14.00" fill="#000000">pointwise_subproof0</text>
</a>
</g>
</g>
<!-- Core_pointwise&#45;&gt;Core_pointwise_subproof0 -->
<g id="edge9" class="edge">
<title>Core_pointwise&#45;&gt;Core_pointwise_subproof0</title>
<path fill="none" stroke="#000000" d="M182.4464,-498.6407C164.9753,-455.7225 130.1946,-370.283 112.2655,-326.2397"/>
<polygon fill="#000000" stroke="#000000" points="115.4108,-324.683 108.3986,-316.7407 108.9274,-327.3223 115.4108,-324.683"/>
</g>
<!-- Core_pointwise_subproof -->
<g id="node9" class="node">
<title>Core_pointwise_subproof</title>
<g id="a_node9"><a xlink:href="Core.html#pointwise_subproof" xlink:title="pointwise_subproof">
<ellipse fill="#facdef" stroke="#000000" cx="285" cy="-298.5657" rx="80.6858" ry="18"/>
<text text-anchor="middle" x="285" y="-294.8657" font-family="Times,serif" font-size="14.00" fill="#000000">pointwise_subproof</text>
</a>
</g>
</g>
<!-- Core_pointwise&#45;&gt;Core_pointwise_subproof -->
<g id="edge10" class="edge">
<title>Core_pointwise&#45;&gt;Core_pointwise_subproof</title>
<path fill="none" stroke="#000000" d="M203.5536,-498.6407C221.0247,-455.7225 255.8054,-370.283 273.7345,-326.2397"/>
<polygon fill="#000000" stroke="#000000" points="277.0726,-327.3223 277.6014,-316.7407 270.5892,-324.683 277.0726,-327.3223"/>
</g>
<!-- Core_pointwise_morphism_of -->
<g id="node12" class="node">
<title>Core_pointwise_morphism_of</title>
<g id="a_node12"><a xlink:href="Core.html#pointwise_morphism_of" xlink:title="pointwise_morphism_of">
<ellipse fill="#f070d1" stroke="#000000" cx="234" cy="-95.5657" rx="97.4827" ry="18"/>
<text text-anchor="middle" x="234" y="-91.8657" font-family="Times,serif" font-size="14.00" fill="#000000">pointwise_morphism_of</text>
</a>
</g>
</g>
<!-- Core_pointwise_subproof0&#45;&gt;Core_pointwise_morphism_of -->
<g id="edge11" class="edge">
<title>Core_pointwise_subproof0&#45;&gt;Core_pointwise_morphism_of</title>
<path fill="none" stroke="#000000" d="M112.8029,-280.5508C136.3166,-244.6615 189.104,-164.0913 216.6009,-122.1223"/>
<polygon fill="#000000" stroke="#000000" points="219.6709,-123.823 222.2236,-113.5403 213.8157,-119.9868 219.6709,-123.823"/>
</g>
<!-- Core_pointwise_subproof&#45;&gt;Core_pointwise_morphism_of -->
<g id="edge12" class="edge">
<title>Core_pointwise_subproof&#45;&gt;Core_pointwise_morphism_of</title>
<path fill="none" stroke="#000000" d="M280.4741,-280.5508C271.5745,-245.1271 251.7391,-166.1745 241.0871,-123.7752"/>
<polygon fill="#000000" stroke="#000000" points="244.4203,-122.6778 238.5891,-113.8321 237.6312,-124.3835 244.4203,-122.6778"/>
</g>
</g>
</svg>
