<?xml version="1.0" encoding="UTF-8" standalone="no"?>
<!DOCTYPE svg PUBLIC "-//W3C//DTD SVG 1.1//EN"
 "http://www.w3.org/Graphics/SVG/1.1/DTD/svg11.dtd">
<!-- Generated by graphviz version 2.39.20161220.0128 (20161220.0128)
 -->
<!-- Title: HoTT_HIT_Pushout Pages: 1 -->
<svg width="1294pt" height="651pt"
 viewBox="0.00 0.00 1294.00 651.00" xmlns="http://www.w3.org/2000/svg" xmlns:xlink="http://www.w3.org/1999/xlink">
<g id="graph0" class="graph" transform="scale(1 1) rotate(0) translate(4 647)">
<title>HoTT_HIT_Pushout</title>
<polygon fill="#ffffff" stroke="transparent" points="-4,4 -4,-647 1290,-647 1290,4 -4,4"/>
<g id="clust1" class="cluster">
<title>cluster_Pushout</title>
<polygon fill="#ffffc3" stroke="#000000" points="17.0331,-8 17.0331,-635 1268.9669,-635 1268.9669,-8 17.0331,-8"/>
<text text-anchor="middle" x="47.0331" y="-619.8" font-family="Times,serif" font-size="14.00" fill="#000000">Pushout</text>
</g>
<!-- Pushout_setcone_point -->
<g id="node1" class="node">
<title>Pushout_setcone_point</title>
<g id="a_node1"><a xlink:href="Pushout.html#setcone_point" xlink:title="setcone_point">
<ellipse fill="#f070d1" stroke="#000000" cx="178.4603" cy="-114" rx="59.6142" ry="18"/>
<ellipse fill="none" stroke="#000000" cx="178.4603" cy="-114" rx="63.6021" ry="22"/>
<ellipse fill="none" stroke="#000000" cx="178.4603" cy="-114" rx="67.59" ry="26"/>
<text text-anchor="middle" x="178.4603" y="-110.3" font-family="Times,serif" font-size="14.00" fill="#000000">setcone_point</text>
</a>
</g>
</g>
<!-- Pushout_push -->
<g id="node17" class="node">
<title>Pushout_push</title>
<g id="a_node17"><a xlink:href="Pushout.html#push" xlink:title="push">
<ellipse fill="#f070d1" stroke="#000000" cx="581.4603" cy="-34" rx="27.0966" ry="18"/>
<text text-anchor="middle" x="581.4603" y="-30.3" font-family="Times,serif" font-size="14.00" fill="#000000">push</text>
</a>
</g>
</g>
<!-- Pushout_setcone_point&#45;&gt;Pushout_push -->
<g id="edge1" class="edge">
<title>Pushout_setcone_point&#45;&gt;Pushout_push</title>
<path fill="none" stroke="#000000" d="M238.7934,-102.0232C323.5888,-85.1904 475.411,-55.052 544.9107,-41.2555"/>
<polygon fill="#000000" stroke="#000000" points="545.8158,-44.6442 554.9429,-39.264 544.4527,-37.7782 545.8158,-44.6442"/>
</g>
<!-- Pushout_istrunc_setcone -->
<g id="node2" class="node">
<title>Pushout_istrunc_setcone</title>
<g id="a_node2"><a xlink:href="Pushout.html#istrunc_setcone" xlink:title="istrunc_setcone">
<ellipse fill="#f070d1" stroke="#000000" cx="1094.4603" cy="-202" rx="65.7729" ry="18"/>
<ellipse fill="none" stroke="#000000" cx="1094.4603" cy="-202" rx="69.7808" ry="22"/>
<ellipse fill="none" stroke="#000000" cx="1094.4603" cy="-202" rx="73.7886" ry="26"/>
<text text-anchor="middle" x="1094.4603" y="-198.3" font-family="Times,serif" font-size="14.00" fill="#000000">istrunc_setcone</text>
</a>
</g>
</g>
<!-- Pushout_pushout -->
<g id="node18" class="node">
<title>Pushout_pushout</title>
<g id="a_node18"><a xlink:href="Pushout.html#pushout" xlink:title="pushout">
<ellipse fill="#f070d1" stroke="#000000" cx="930.4603" cy="-114" rx="38.1938" ry="18"/>
<text text-anchor="middle" x="930.4603" y="-110.3" font-family="Times,serif" font-size="14.00" fill="#000000">pushout</text>
</a>
</g>
</g>
<!-- Pushout_istrunc_setcone&#45;&gt;Pushout_pushout -->
<g id="edge2" class="edge">
<title>Pushout_istrunc_setcone&#45;&gt;Pushout_pushout</title>
<path fill="none" stroke="#000000" d="M1053.9209,-180.2472C1026.5497,-165.5602 990.8148,-146.3854 964.838,-132.4466"/>
<polygon fill="#000000" stroke="#000000" points="966.2092,-129.2103 955.7427,-127.5662 962.8994,-135.3785 966.2092,-129.2103"/>
</g>
<!-- Pushout_setcone -->
<g id="node3" class="node">
<title>Pushout_setcone</title>
<g id="a_node3"><a xlink:href="Pushout.html#setcone" xlink:title="setcone">
<ellipse fill="#f070d1" stroke="#000000" cx="802.4603" cy="-202" rx="37.0852" ry="18"/>
<ellipse fill="none" stroke="#000000" cx="802.4603" cy="-202" rx="41.0893" ry="22"/>
<ellipse fill="none" stroke="#000000" cx="802.4603" cy="-202" rx="45.0935" ry="26"/>
<text text-anchor="middle" x="802.4603" y="-198.3" font-family="Times,serif" font-size="14.00" fill="#000000">setcone</text>
</a>
</g>
</g>
<!-- Pushout_setcone&#45;&gt;Pushout_pushout -->
<g id="edge3" class="edge">
<title>Pushout_setcone&#45;&gt;Pushout_pushout</title>
<path fill="none" stroke="#000000" d="M831.5054,-182.0314C852.0293,-167.9213 879.4714,-149.0549 900.2505,-134.7692"/>
<polygon fill="#000000" stroke="#000000" points="902.4507,-137.504 908.7083,-128.9545 898.485,-131.7357 902.4507,-137.504"/>
</g>
<!-- Pushout_equiv_pushout_pp -->
<g id="node4" class="node">
<title>Pushout_equiv_pushout_pp</title>
<g id="a_node4"><a xlink:href="Pushout.html#equiv_pushout_pp" xlink:title="equiv_pushout_pp">
<ellipse fill="#f070d1" stroke="#000000" cx="1066.4603" cy="-578" rx="75.297" ry="18"/>
<ellipse fill="none" stroke="#000000" cx="1066.4603" cy="-578" rx="79.2919" ry="22"/>
<ellipse fill="none" stroke="#000000" cx="1066.4603" cy="-578" rx="83.2868" ry="26"/>
<text text-anchor="middle" x="1066.4603" y="-574.3" font-family="Times,serif" font-size="14.00" fill="#000000">equiv_pushout_pp</text>
</a>
</g>
</g>
<!-- Pushout_equiv_pushout -->
<g id="node5" class="node">
<title>Pushout_equiv_pushout</title>
<g id="a_node5"><a xlink:href="Pushout.html#equiv_pushout" xlink:title="equiv_pushout">
<ellipse fill="#f070d1" stroke="#000000" cx="683.4603" cy="-578" rx="62.3011" ry="18"/>
<ellipse fill="none" stroke="#000000" cx="683.4603" cy="-578" rx="66.2951" ry="22"/>
<ellipse fill="none" stroke="#000000" cx="683.4603" cy="-578" rx="70.2891" ry="26"/>
<text text-anchor="middle" x="683.4603" y="-574.3" font-family="Times,serif" font-size="14.00" fill="#000000">equiv_pushout</text>
</a>
</g>
</g>
<!-- Pushout_pushout_sym -->
<g id="node6" class="node">
<title>Pushout_pushout_sym</title>
<g id="a_node6"><a xlink:href="Pushout.html#pushout_sym" xlink:title="pushout_sym">
<ellipse fill="#f070d1" stroke="#000000" cx="323.4603" cy="-578" rx="57.7089" ry="18"/>
<ellipse fill="none" stroke="#000000" cx="323.4603" cy="-578" rx="61.6995" ry="22"/>
<ellipse fill="none" stroke="#000000" cx="323.4603" cy="-578" rx="65.6901" ry="26"/>
<text text-anchor="middle" x="323.4603" y="-574.3" font-family="Times,serif" font-size="14.00" fill="#000000">pushout_sym</text>
</a>
</g>
</g>
<!-- Pushout_sect_pushout_sym_map -->
<g id="node7" class="node">
<title>Pushout_sect_pushout_sym_map</title>
<g id="a_node7"><a xlink:href="Pushout.html#sect_pushout_sym_map" xlink:title="sect_pushout_sym_map">
<ellipse fill="#f070d1" stroke="#000000" cx="323.4603" cy="-498" rx="96.3833" ry="18"/>
<text text-anchor="middle" x="323.4603" y="-494.3" font-family="Times,serif" font-size="14.00" fill="#000000">sect_pushout_sym_map</text>
</a>
</g>
</g>
<!-- Pushout_pushout_sym&#45;&gt;Pushout_sect_pushout_sym_map -->
<g id="edge4" class="edge">
<title>Pushout_pushout_sym&#45;&gt;Pushout_sect_pushout_sym_map</title>
<path fill="none" stroke="#000000" d="M323.4603,-551.805C323.4603,-543.6026 323.4603,-534.5174 323.4603,-526.1839"/>
<polygon fill="#000000" stroke="#000000" points="326.9604,-526.1532 323.4603,-516.1532 319.9604,-526.1533 326.9604,-526.1532"/>
</g>
<!-- Pushout_sect_pushout_sym_map_subproof -->
<g id="node8" class="node">
<title>Pushout_sect_pushout_sym_map_subproof</title>
<g id="a_node8"><a xlink:href="Pushout.html#sect_pushout_sym_map_subproof" xlink:title="sect_pushout_sym_map_subproof">
<ellipse fill="#facdef" stroke="#000000" cx="323.4603" cy="-426" rx="131.8766" ry="18"/>
<text text-anchor="middle" x="323.4603" y="-422.3" font-family="Times,serif" font-size="14.00" fill="#000000">sect_pushout_sym_map_subproof</text>
</a>
</g>
</g>
<!-- Pushout_sect_pushout_sym_map&#45;&gt;Pushout_sect_pushout_sym_map_subproof -->
<g id="edge5" class="edge">
<title>Pushout_sect_pushout_sym_map&#45;&gt;Pushout_sect_pushout_sym_map_subproof</title>
<path fill="none" stroke="#000000" d="M323.4603,-479.8314C323.4603,-472.131 323.4603,-462.9743 323.4603,-454.4166"/>
<polygon fill="#000000" stroke="#000000" points="326.9604,-454.4132 323.4603,-444.4133 319.9604,-454.4133 326.9604,-454.4132"/>
</g>
<!-- Pushout_pushout_sym_map -->
<g id="node9" class="node">
<title>Pushout_pushout_sym_map</title>
<g id="a_node9"><a xlink:href="Pushout.html#pushout_sym_map" xlink:title="pushout_sym_map">
<ellipse fill="#f070d1" stroke="#000000" cx="200.4603" cy="-354" rx="77.9862" ry="18"/>
<text text-anchor="middle" x="200.4603" y="-350.3" font-family="Times,serif" font-size="14.00" fill="#000000">pushout_sym_map</text>
</a>
</g>
</g>
<!-- Pushout_sect_pushout_sym_map_subproof&#45;&gt;Pushout_pushout_sym_map -->
<g id="edge6" class="edge">
<title>Pushout_sect_pushout_sym_map_subproof&#45;&gt;Pushout_pushout_sym_map</title>
<path fill="none" stroke="#000000" d="M293.3711,-408.3868C276.7765,-398.6729 256.0112,-386.5176 238.3228,-376.1634"/>
<polygon fill="#000000" stroke="#000000" points="239.7901,-372.9668 229.3918,-370.9355 236.2538,-379.0079 239.7901,-372.9668"/>
</g>
<!-- Pushout_pushout_rec_beta_pp -->
<g id="node10" class="node">
<title>Pushout_pushout_rec_beta_pp</title>
<g id="a_node10"><a xlink:href="Pushout.html#pushout_rec_beta_pp" xlink:title="pushout_rec_beta_pp">
<ellipse fill="#f070d1" stroke="#000000" cx="587.4603" cy="-354" rx="85.5853" ry="18"/>
<text text-anchor="middle" x="587.4603" y="-350.3" font-family="Times,serif" font-size="14.00" fill="#000000">pushout_rec_beta_pp</text>
</a>
</g>
</g>
<!-- Pushout_sect_pushout_sym_map_subproof&#45;&gt;Pushout_pushout_rec_beta_pp -->
<g id="edge7" class="edge">
<title>Pushout_sect_pushout_sym_map_subproof&#45;&gt;Pushout_pushout_rec_beta_pp</title>
<path fill="none" stroke="#000000" d="M382.707,-409.8418C425.1593,-398.2639 482.2116,-382.7042 525.3099,-370.9501"/>
<polygon fill="#000000" stroke="#000000" points="526.3871,-374.2842 535.1138,-368.2763 524.5452,-367.5309 526.3871,-374.2842"/>
</g>
<!-- Pushout_pushout_rec -->
<g id="node11" class="node">
<title>Pushout_pushout_rec</title>
<g id="a_node11"><a xlink:href="Pushout.html#pushout_rec" xlink:title="pushout_rec">
<ellipse fill="#f070d1" stroke="#000000" cx="200.4603" cy="-282" rx="53.8905" ry="18"/>
<text text-anchor="middle" x="200.4603" y="-278.3" font-family="Times,serif" font-size="14.00" fill="#000000">pushout_rec</text>
</a>
</g>
</g>
<!-- Pushout_pushout_sym_map&#45;&gt;Pushout_pushout_rec -->
<g id="edge8" class="edge">
<title>Pushout_pushout_sym_map&#45;&gt;Pushout_pushout_rec</title>
<path fill="none" stroke="#000000" d="M200.4603,-335.8314C200.4603,-328.131 200.4603,-318.9743 200.4603,-310.4166"/>
<polygon fill="#000000" stroke="#000000" points="203.9604,-310.4132 200.4603,-300.4133 196.9604,-310.4133 203.9604,-310.4132"/>
</g>
<!-- Pushout_pushout_rec_beta_pp&#45;&gt;Pushout_pushout_rec -->
<g id="edge9" class="edge">
<title>Pushout_pushout_rec_beta_pp&#45;&gt;Pushout_pushout_rec</title>
<path fill="none" stroke="#000000" d="M523.1207,-342.0298C449.1673,-328.2711 328.8911,-305.8941 257.9514,-292.696"/>
<polygon fill="#000000" stroke="#000000" points="258.3258,-289.2057 247.8543,-290.8175 257.0454,-296.0876 258.3258,-289.2057"/>
</g>
<!-- Pushout_pushout_ind_beta_pp -->
<g id="node12" class="node">
<title>Pushout_pushout_ind_beta_pp</title>
<g id="a_node12"><a xlink:href="Pushout.html#pushout_ind_beta_pp" xlink:title="pushout_ind_beta_pp">
<ellipse fill="#f070d1" stroke="#000000" cx="485.4603" cy="-202" rx="86.3847" ry="18"/>
<text text-anchor="middle" x="485.4603" y="-198.3" font-family="Times,serif" font-size="14.00" fill="#000000">pushout_ind_beta_pp</text>
</a>
</g>
</g>
<!-- Pushout_pushout_rec_beta_pp&#45;&gt;Pushout_pushout_ind_beta_pp -->
<g id="edge10" class="edge">
<title>Pushout_pushout_rec_beta_pp&#45;&gt;Pushout_pushout_ind_beta_pp</title>
<path fill="none" stroke="#000000" d="M575.359,-335.9667C557.4919,-309.3412 523.9427,-259.3464 503.2654,-228.5331"/>
<polygon fill="#000000" stroke="#000000" points="506.0243,-226.3632 497.5458,-220.0098 500.2118,-230.2638 506.0243,-226.3632"/>
</g>
<!-- Pushout_pushout_ind -->
<g id="node13" class="node">
<title>Pushout_pushout_ind</title>
<g id="a_node13"><a xlink:href="Pushout.html#pushout_ind" xlink:title="pushout_ind">
<ellipse fill="#f070d1" stroke="#000000" cx="149.4603" cy="-202" rx="53.8905" ry="18"/>
<text text-anchor="middle" x="149.4603" y="-198.3" font-family="Times,serif" font-size="14.00" fill="#000000">pushout_ind</text>
</a>
</g>
</g>
<!-- Pushout_pushout_rec&#45;&gt;Pushout_pushout_ind -->
<g id="edge11" class="edge">
<title>Pushout_pushout_rec&#45;&gt;Pushout_pushout_ind</title>
<path fill="none" stroke="#000000" d="M189.1417,-264.2454C182.4069,-253.6809 173.7369,-240.0809 166.2197,-228.2893"/>
<polygon fill="#000000" stroke="#000000" points="169.0741,-226.2558 160.7472,-219.705 163.1715,-230.0187 169.0741,-226.2558"/>
</g>
<!-- Pushout_pp -->
<g id="node14" class="node">
<title>Pushout_pp</title>
<g id="a_node14"><a xlink:href="Pushout.html#pp" xlink:title="pp">
<ellipse fill="#f070d1" stroke="#000000" cx="419.4603" cy="-114" rx="27" ry="18"/>
<text text-anchor="middle" x="419.4603" y="-110.3" font-family="Times,serif" font-size="14.00" fill="#000000">pp</text>
</a>
</g>
</g>
<!-- Pushout_pushout_ind_beta_pp&#45;&gt;Pushout_pp -->
<g id="edge12" class="edge">
<title>Pushout_pushout_ind_beta_pp&#45;&gt;Pushout_pp</title>
<path fill="none" stroke="#000000" d="M472.1042,-184.1919C462.2172,-171.0093 448.6315,-152.895 437.738,-138.3704"/>
<polygon fill="#000000" stroke="#000000" points="440.4836,-136.1977 431.6835,-130.2977 434.8836,-140.3977 440.4836,-136.1977"/>
</g>
<!-- Pushout_pushr -->
<g id="node15" class="node">
<title>Pushout_pushr</title>
<g id="a_node15"><a xlink:href="Pushout.html#pushr" xlink:title="pushr">
<ellipse fill="#f070d1" stroke="#000000" cx="581.4603" cy="-114" rx="30.5947" ry="18"/>
<text text-anchor="middle" x="581.4603" y="-110.3" font-family="Times,serif" font-size="14.00" fill="#000000">pushr</text>
</a>
</g>
</g>
<!-- Pushout_pushout_ind_beta_pp&#45;&gt;Pushout_pushr -->
<g id="edge13" class="edge">
<title>Pushout_pushout_ind_beta_pp&#45;&gt;Pushout_pushr</title>
<path fill="none" stroke="#000000" d="M504.8873,-184.1919C520.0482,-170.2944 541.1884,-150.9159 557.4162,-136.0404"/>
<polygon fill="#000000" stroke="#000000" points="559.9337,-138.4807 564.9402,-129.1434 555.2036,-133.3206 559.9337,-138.4807"/>
</g>
<!-- Pushout_pushl -->
<g id="node16" class="node">
<title>Pushout_pushl</title>
<g id="a_node16"><a xlink:href="Pushout.html#pushl" xlink:title="pushl">
<ellipse fill="#f070d1" stroke="#000000" cx="747.4603" cy="-114" rx="29.795" ry="18"/>
<text text-anchor="middle" x="747.4603" y="-110.3" font-family="Times,serif" font-size="14.00" fill="#000000">pushl</text>
</a>
</g>
</g>
<!-- Pushout_pushout_ind_beta_pp&#45;&gt;Pushout_pushl -->
<g id="edge14" class="edge">
<title>Pushout_pushout_ind_beta_pp&#45;&gt;Pushout_pushl</title>
<path fill="none" stroke="#000000" d="M531.0972,-186.6716C582.3179,-169.4677 664.3775,-141.9057 711.3411,-126.1316"/>
<polygon fill="#000000" stroke="#000000" points="712.721,-129.3604 721.0861,-122.8585 710.4921,-122.7247 712.721,-129.3604"/>
</g>
<!-- Pushout_pushout_ind_beta_pp&#45;&gt;Pushout_pushout -->
<g id="edge15" class="edge">
<title>Pushout_pushout_ind_beta_pp&#45;&gt;Pushout_pushout</title>
<path fill="none" stroke="#000000" d="M548.2741,-189.5784C639.0708,-171.6231 804.8519,-138.8394 884.8622,-123.0172"/>
<polygon fill="#000000" stroke="#000000" points="885.9748,-126.365 895.1058,-120.9914 884.6168,-119.498 885.9748,-126.365"/>
</g>
<!-- Pushout_pushout_ind&#45;&gt;Pushout_pp -->
<g id="edge16" class="edge">
<title>Pushout_pushout_ind&#45;&gt;Pushout_pp</title>
<path fill="none" stroke="#000000" d="M188.1447,-189.3917C240.9381,-172.185 334.7359,-141.6139 385.1469,-125.1836"/>
<polygon fill="#000000" stroke="#000000" points="386.4974,-128.4247 394.9205,-121.9981 384.3282,-121.7693 386.4974,-128.4247"/>
</g>
<!-- Pushout_pushout_ind&#45;&gt;Pushout_pushr -->
<g id="edge17" class="edge">
<title>Pushout_pushout_ind&#45;&gt;Pushout_pushr</title>
<path fill="none" stroke="#000000" d="M195.8685,-192.6509C255.8318,-180.5586 363.4548,-158.8134 455.4603,-140 484.6947,-134.0221 517.7304,-127.2028 542.6387,-122.0483"/>
<polygon fill="#000000" stroke="#000000" points="543.3573,-125.4738 552.4401,-120.0191 541.9381,-118.6191 543.3573,-125.4738"/>
</g>
<!-- Pushout_pushout_ind&#45;&gt;Pushout_pushl -->
<g id="edge18" class="edge">
<title>Pushout_pushout_ind&#45;&gt;Pushout_pushl</title>
<path fill="none" stroke="#000000" d="M200.9787,-196.4778C287.9402,-186.8784 469.263,-165.6638 621.4603,-140 651.0778,-135.0058 684.3464,-128.0844 709.2582,-122.6384"/>
<polygon fill="#000000" stroke="#000000" points="710.0358,-126.0511 719.0478,-120.4803 708.5288,-119.2152 710.0358,-126.0511"/>
</g>
<!-- Pushout_pushout_ind&#45;&gt;Pushout_pushout -->
<g id="edge19" class="edge">
<title>Pushout_pushout_ind&#45;&gt;Pushout_pushout</title>
<path fill="none" stroke="#000000" d="M200.679,-196.222C249.4484,-190.7802 324.9232,-182.5137 390.4603,-176 566.3196,-158.5215 611.334,-163.7235 786.4603,-140 819.6431,-135.5049 856.8313,-128.7458 885.1028,-123.2459"/>
<polygon fill="#000000" stroke="#000000" points="885.9538,-126.6457 895.0913,-121.2831 884.604,-119.777 885.9538,-126.6457"/>
</g>
<!-- Pushout_pushr&#45;&gt;Pushout_push -->
<g id="edge20" class="edge">
<title>Pushout_pushr&#45;&gt;Pushout_push</title>
<path fill="none" stroke="#000000" d="M581.4603,-95.8468C581.4603,-85.9251 581.4603,-73.4167 581.4603,-62.2492"/>
<polygon fill="#000000" stroke="#000000" points="584.9604,-62.0814 581.4603,-52.0814 577.9604,-62.0814 584.9604,-62.0814"/>
</g>
<!-- Pushout_pushl&#45;&gt;Pushout_push -->
<g id="edge21" class="edge">
<title>Pushout_pushl&#45;&gt;Pushout_push</title>
<path fill="none" stroke="#000000" d="M724.0286,-102.7076C694.9083,-88.6737 645.1116,-64.6754 612.7492,-49.079"/>
<polygon fill="#000000" stroke="#000000" points="614.2398,-45.9122 603.7118,-44.7236 611.2007,-52.2181 614.2398,-45.9122"/>
</g>
</g>
</svg>
