<?xml version="1.0" encoding="UTF-8" standalone="no"?>
<!DOCTYPE svg PUBLIC "-//W3C//DTD SVG 1.1//EN"
 "http://www.w3.org/Graphics/SVG/1.1/DTD/svg11.dtd">
<!-- Generated by graphviz version 2.26.3 (20100126.1600)
 -->
<!-- Title: HoTT_hit_quotient Pages: 1 -->
<svg width="1406pt" height="707pt"
 viewBox="0.00 0.00 1406.00 707.00" xmlns="http://www.w3.org/2000/svg" xmlns:xlink="http://www.w3.org/1999/xlink">
<g id="graph1" class="graph" transform="scale(1 1) rotate(0) translate(4 703)">
<title>HoTT_hit_quotient</title>
<polygon fill="white" stroke="white" points="-4,5 -4,-703 1403,-703 1403,5 -4,5"/>
<g id="graph2" class="cluster"><title>cluster_quotient</title>
<polygon fill="#ffffc3" stroke="black" points="8,-11.8979 8,-687.102 1390,-687.102 1390,-11.8979 8,-11.8979"/>
<text text-anchor="middle" x="45.5" y="-670.502" font-family="Times Roman,serif" font-size="14.00">quotient</text>
</g>
<g id="graph3" class="cluster"><title>cluster_quotient_Quotient</title>
<polygon fill="#ffffa3" stroke="black" points="16,-23.7957 16,-276.626 946,-276.626 946,-23.7957 16,-23.7957"/>
<text text-anchor="middle" x="55" y="-260.026" font-family="Times Roman,serif" font-size="14.00">Quotient</text>
</g>
<!-- quotient_Quotient_quotient_ind_compute_path -->
<g id="node1" class="node"><title>quotient_Quotient_quotient_ind_compute_path</title>
<a xlink:href="quotient.html#Quotient.quotient_ind_compute_path" xlink:title="quotient_ind_compute_path">
<ellipse fill="#facdef" stroke="black" cx="782" cy="-185.898" rx="147.785" ry="18.3848"/>
<ellipse fill="none" stroke="black" cx="782" cy="-185.898" rx="151.785" ry="22.3848"/>
<ellipse fill="none" stroke="black" cx="782" cy="-185.898" rx="155.785" ry="26.3848"/>
<text text-anchor="middle" x="782" y="-182.298" font-family="Times Roman,serif" font-size="14.00">quotient_ind_compute_path</text>
</a>
</g>
<!-- quotient_Quotient_quotient_ind_compute -->
<g id="node2" class="node"><title>quotient_Quotient_quotient_ind_compute</title>
<a xlink:href="quotient.html#Quotient.quotient_ind_compute" xlink:title="quotient_ind_compute">
<ellipse fill="#f070d1" stroke="black" cx="480" cy="-185.898" rx="120.208" ry="18.3848"/>
<ellipse fill="none" stroke="black" cx="480" cy="-185.898" rx="124.208" ry="22.3848"/>
<ellipse fill="none" stroke="black" cx="480" cy="-185.898" rx="128.208" ry="26.3848"/>
<text text-anchor="middle" x="480" y="-182.298" font-family="Times Roman,serif" font-size="14.00">quotient_ind_compute</text>
</a>
</g>
<!-- quotient_Quotient_related_classes_eq -->
<g id="node5" class="node"><title>quotient_Quotient_related_classes_eq</title>
<a xlink:href="quotient.html#Quotient.related_classes_eq" xlink:title="related_classes_eq">
<ellipse fill="#facdef" stroke="black" cx="509" cy="-63.8979" rx="101.823" ry="18.3848"/>
<text text-anchor="middle" x="509" y="-60.2979" font-family="Times Roman,serif" font-size="14.00">related_classes_eq</text>
</a>
</g>
<!-- quotient_Quotient_quotient_ind_compute&#45;&gt;quotient_Quotient_related_classes_eq -->
<g id="edge2" class="edge"><title>quotient_Quotient_quotient_ind_compute&#45;&gt;quotient_Quotient_related_classes_eq</title>
<path fill="none" stroke="black" d="M486.293,-159.426C491.002,-139.613 497.434,-112.553 502.251,-92.2914"/>
<polygon fill="black" stroke="black" points="505.697,-92.9281 504.604,-82.3898 498.887,-91.3092 505.697,-92.9281"/>
</g>
<!-- quotient_Quotient_class_of -->
<g id="node6" class="node"><title>quotient_Quotient_class_of</title>
<a xlink:href="quotient.html#Quotient.class_of" xlink:title="class_of">
<ellipse fill="#7faaff" stroke="black" cx="707" cy="-63.8979" rx="48.7904" ry="18.3848"/>
<text text-anchor="middle" x="707" y="-60.2979" font-family="Times Roman,serif" font-size="14.00">class_of</text>
</a>
</g>
<!-- quotient_Quotient_quotient_ind_compute&#45;&gt;quotient_Quotient_class_of -->
<g id="edge4" class="edge"><title>quotient_Quotient_quotient_ind_compute&#45;&gt;quotient_Quotient_class_of</title>
<path fill="none" stroke="black" d="M526.21,-161.062C568.574,-138.294 630.512,-105.006 669.778,-83.9028"/>
<polygon fill="black" stroke="black" points="671.611,-86.8911 678.762,-79.074 668.297,-80.7252 671.611,-86.8911"/>
</g>
<!-- quotient_Quotient_quotient -->
<g id="node7" class="node"><title>quotient_Quotient_quotient</title>
<a xlink:href="quotient.html#Quotient.quotient" xlink:title="quotient">
<ellipse fill="#e2cdfa" stroke="black" cx="885" cy="-63.8979" rx="53.033" ry="18.3848"/>
<text text-anchor="middle" x="885" y="-60.2979" font-family="Times Roman,serif" font-size="14.00">quotient</text>
</a>
</g>
<!-- quotient_Quotient_quotient_ind_compute&#45;&gt;quotient_Quotient_quotient -->
<g id="edge6" class="edge"><title>quotient_Quotient_quotient_ind_compute&#45;&gt;quotient_Quotient_quotient</title>
<path fill="none" stroke="black" d="M552.874,-163.946C634.439,-139.375 764.41,-100.224 835.153,-78.9135"/>
<polygon fill="black" stroke="black" points="836.165,-82.264 844.731,-76.0283 834.146,-75.5615 836.165,-82.264"/>
</g>
<!-- quotient_Quotient_quotient_ind -->
<g id="node3" class="node"><title>quotient_Quotient_quotient_ind</title>
<a xlink:href="quotient.html#Quotient.quotient_ind" xlink:title="quotient_ind">
<ellipse fill="#f070d1" stroke="black" cx="97" cy="-185.898" rx="73.0388" ry="18.3848"/>
<text text-anchor="middle" x="97" y="-182.298" font-family="Times Roman,serif" font-size="14.00">quotient_ind</text>
</a>
</g>
<!-- quotient_Quotient_quotient_ind&#45;&gt;quotient_Quotient_related_classes_eq -->
<g id="edge8" class="edge"><title>quotient_Quotient_quotient_ind&#45;&gt;quotient_Quotient_related_classes_eq</title>
<path fill="none" stroke="black" d="M141.161,-171.018C153.387,-166.991 166.683,-162.697 179,-158.898 270.036,-130.818 376.001,-100.778 442.786,-82.1659"/>
<polygon fill="black" stroke="black" points="444.059,-85.4448 452.754,-79.3918 442.182,-78.7011 444.059,-85.4448"/>
</g>
<!-- quotient_Quotient_quotient_ind&#45;&gt;quotient_Quotient_class_of -->
<g id="edge10" class="edge"><title>quotient_Quotient_quotient_ind&#45;&gt;quotient_Quotient_class_of</title>
<path fill="none" stroke="black" d="M139.212,-170.68C151.891,-166.468 165.912,-162.162 179,-158.898 371.98,-110.777 424.797,-121.014 620,-82.8979 631.384,-80.675 643.567,-78.1233 655.104,-75.6262"/>
<polygon fill="black" stroke="black" points="656.017,-79.0094 665.039,-73.4556 654.523,-72.1707 656.017,-79.0094"/>
</g>
<!-- quotient_Quotient_quotient_ind&#45;&gt;quotient_Quotient_quotient -->
<g id="edge12" class="edge"><title>quotient_Quotient_quotient_ind&#45;&gt;quotient_Quotient_quotient</title>
<path fill="none" stroke="black" d="M138.286,-170.616C151.182,-166.301 165.554,-161.955 179,-158.898 435.092,-100.681 505.055,-120.326 765,-82.8979 785.179,-79.9925 807.226,-76.5726 826.854,-73.4409"/>
<polygon fill="black" stroke="black" points="827.555,-76.8732 836.875,-71.8338 826.447,-69.9615 827.555,-76.8732"/>
</g>
<!-- quotient_Quotient_quotient_set -->
<g id="node4" class="node"><title>quotient_Quotient_quotient_set</title>
<a xlink:href="quotient.html#Quotient.quotient_set" xlink:title="quotient_set">
<ellipse fill="#facdef" stroke="black" cx="261" cy="-185.898" rx="73.0388" ry="18.3848"/>
<text text-anchor="middle" x="261" y="-182.298" font-family="Times Roman,serif" font-size="14.00">quotient_set</text>
</a>
</g>
<!-- quotient_quotient_kernel_factor -->
<g id="node8" class="node"><title>quotient_quotient_kernel_factor</title>
<a xlink:href="quotient.html#quotient_kernel_factor" xlink:title="quotient_kernel_factor">
<ellipse fill="#f070d1" stroke="black" cx="357" cy="-595.898" rx="121.861" ry="18.3848"/>
<ellipse fill="none" stroke="black" cx="357" cy="-595.898" rx="125.845" ry="22.3848"/>
<ellipse fill="none" stroke="black" cx="357" cy="-595.898" rx="129.83" ry="26.3848"/>
<text text-anchor="middle" x="357" y="-592.298" font-family="Times Roman,serif" font-size="14.00">quotient_kernel_factor</text>
</a>
</g>
<!-- quotient_quotient_kernel_factor&#45;&gt;quotient_Quotient_quotient_set -->
<g id="edge14" class="edge"><title>quotient_quotient_kernel_factor&#45;&gt;quotient_Quotient_quotient_set</title>
<path fill="none" stroke="black" d="M420.93,-572.66C457.32,-555.747 499.767,-528.904 521,-489.898 540.974,-453.204 545.8,-335.518 521,-301.898 471.847,-235.264 416.837,-284.371 343,-246.898 323.643,-237.074 304.059,-222.708 288.886,-210.385"/>
<polygon fill="black" stroke="black" points="290.871,-207.483 280.94,-203.79 286.401,-212.87 290.871,-207.483"/>
</g>
<!-- quotient_quotient_surjective -->
<g id="node12" class="node"><title>quotient_quotient_surjective</title>
<a xlink:href="quotient.html#quotient_surjective" xlink:title="quotient_surjective">
<ellipse fill="#f070d1" stroke="black" cx="213" cy="-462.898" rx="104.86" ry="18.3848"/>
<text text-anchor="middle" x="213" y="-459.298" font-family="Times Roman,serif" font-size="14.00">quotient_surjective</text>
</a>
</g>
<!-- quotient_quotient_kernel_factor&#45;&gt;quotient_quotient_surjective -->
<g id="edge16" class="edge"><title>quotient_quotient_kernel_factor&#45;&gt;quotient_quotient_surjective</title>
<path fill="none" stroke="black" d="M328.894,-569.938C303.229,-546.234 265.532,-511.417 240.166,-487.989"/>
<polygon fill="black" stroke="black" points="242.438,-485.323 232.717,-481.109 237.688,-490.465 242.438,-485.323"/>
</g>
<!-- quotient_quotient_ump -->
<g id="node9" class="node"><title>quotient_quotient_ump</title>
<a xlink:href="quotient.html#quotient_ump" xlink:title="quotient_ump">
<ellipse fill="#f070d1" stroke="black" cx="737" cy="-595.898" rx="79.9031" ry="18.3848"/>
<ellipse fill="none" stroke="black" cx="737" cy="-595.898" rx="83.9031" ry="22.3848"/>
<ellipse fill="none" stroke="black" cx="737" cy="-595.898" rx="87.9031" ry="26.3848"/>
<text text-anchor="middle" x="737" y="-592.298" font-family="Times Roman,serif" font-size="14.00">quotient_ump</text>
</a>
</g>
<!-- quotient_quotient_ump__ -->
<g id="node10" class="node"><title>quotient_quotient_ump__</title>
<a xlink:href="quotient.html#quotient_ump&#39;&#39;" xlink:title="quotient_ump&#39;&#39;">
<ellipse fill="#f070d1" stroke="black" cx="634" cy="-462.898" rx="84.1457" ry="18.3848"/>
<text text-anchor="middle" x="634" y="-459.298" font-family="Times Roman,serif" font-size="14.00">quotient_ump&#39;&#39;</text>
</a>
</g>
<!-- quotient_quotient_ump&#45;&gt;quotient_quotient_ump__ -->
<g id="edge18" class="edge"><title>quotient_quotient_ump&#45;&gt;quotient_quotient_ump__</title>
<path fill="none" stroke="black" d="M716.896,-569.938C698.959,-546.778 672.806,-513.007 654.693,-489.618"/>
<polygon fill="black" stroke="black" points="657.303,-487.272 648.413,-481.509 651.769,-491.558 657.303,-487.272"/>
</g>
<!-- quotient_quotient_ump_ -->
<g id="node11" class="node"><title>quotient_quotient_ump_</title>
<a xlink:href="quotient.html#quotient_ump&#39;" xlink:title="quotient_ump&#39;">
<ellipse fill="#f070d1" stroke="black" cx="1058" cy="-185.898" rx="82.0244" ry="18.3848"/>
<text text-anchor="middle" x="1058" y="-182.298" font-family="Times Roman,serif" font-size="14.00">quotient_ump&#39;</text>
</a>
</g>
<!-- quotient_quotient_ump&#45;&gt;quotient_quotient_ump_ -->
<g id="edge20" class="edge"><title>quotient_quotient_ump&#45;&gt;quotient_quotient_ump_</title>
<path fill="none" stroke="black" d="M804.741,-578.971C899.972,-550.99 1069.15,-484.899 1135,-355.898 1160.64,-305.671 1115.82,-245.162 1084.5,-211.567"/>
<polygon fill="black" stroke="black" points="1086.72,-208.823 1077.27,-204.026 1081.67,-213.667 1086.72,-208.823"/>
</g>
<!-- quotient_quotient_ind_prop_ -->
<g id="node13" class="node"><title>quotient_quotient_ind_prop_</title>
<a xlink:href="quotient.html#quotient_ind_prop&#39;" xlink:title="quotient_ind_prop&#39;">
<ellipse fill="#f070d1" stroke="black" cx="652" cy="-328.898" rx="102.03" ry="18.3848"/>
<text text-anchor="middle" x="652" y="-325.298" font-family="Times Roman,serif" font-size="14.00">quotient_ind_prop&#39;</text>
</a>
</g>
<!-- quotient_quotient_ump&#45;&gt;quotient_quotient_ind_prop_ -->
<g id="edge22" class="edge"><title>quotient_quotient_ump&#45;&gt;quotient_quotient_ind_prop_</title>
<path fill="none" stroke="black" d="M739.648,-569.265C741.913,-536.786 742.686,-480.684 727,-435.898 716.21,-405.089 693.853,-375.108 676.342,-354.758"/>
<polygon fill="black" stroke="black" points="678.902,-352.37 669.663,-347.184 673.652,-357 678.902,-352.37"/>
</g>
<!-- quotient_quotient_rec -->
<g id="node15" class="node"><title>quotient_quotient_rec</title>
<a xlink:href="quotient.html#quotient_rec" xlink:title="quotient_rec">
<ellipse fill="#f070d1" stroke="black" cx="439" cy="-328.898" rx="73.0388" ry="18.3848"/>
<text text-anchor="middle" x="439" y="-325.298" font-family="Times Roman,serif" font-size="14.00">quotient_rec</text>
</a>
</g>
<!-- quotient_quotient_ump__&#45;&gt;quotient_quotient_rec -->
<g id="edge24" class="edge"><title>quotient_quotient_ump__&#45;&gt;quotient_quotient_rec</title>
<path fill="none" stroke="black" d="M608.106,-445.104C573.239,-421.144 511.144,-378.474 472.681,-352.043"/>
<polygon fill="black" stroke="black" points="474.606,-349.119 464.382,-346.34 470.641,-354.888 474.606,-349.119"/>
</g>
<!-- quotient_quotient_ump_&#45;&gt;quotient_Quotient_related_classes_eq -->
<g id="edge26" class="edge"><title>quotient_quotient_ump_&#45;&gt;quotient_Quotient_related_classes_eq</title>
<path fill="none" stroke="black" d="M1007.85,-171.103C993.128,-166.949 976.966,-162.567 962,-158.898 832.613,-127.174 680.827,-96.6974 589.916,-79.157"/>
<polygon fill="black" stroke="black" points="590.434,-75.6926 579.953,-77.2395 589.111,-82.5664 590.434,-75.6926"/>
</g>
<!-- quotient_quotient_ump_&#45;&gt;quotient_Quotient_class_of -->
<g id="edge28" class="edge"><title>quotient_quotient_ump_&#45;&gt;quotient_Quotient_class_of</title>
<path fill="none" stroke="black" d="M1013.19,-170.323C946.163,-147.026 820.466,-103.336 752.844,-79.8321"/>
<polygon fill="black" stroke="black" points="753.897,-76.4928 743.302,-76.5156 751.598,-83.1047 753.897,-76.4928"/>
</g>
<!-- quotient_quotient_ump_&#45;&gt;quotient_Quotient_quotient -->
<g id="edge30" class="edge"><title>quotient_quotient_ump_&#45;&gt;quotient_Quotient_quotient</title>
<path fill="none" stroke="black" d="M1032.84,-168.158C1002.22,-146.561 950.457,-110.059 917.018,-86.4768"/>
<polygon fill="black" stroke="black" points="918.709,-83.3871 908.52,-80.4843 914.675,-89.1077 918.709,-83.3871"/>
</g>
<!-- quotient_quotient_ind_prop -->
<g id="node19" class="node"><title>quotient_quotient_ind_prop</title>
<a xlink:href="quotient.html#quotient_ind_prop" xlink:title="quotient_ind_prop">
<ellipse fill="#f070d1" stroke="black" cx="248" cy="-328.898" rx="99.9096" ry="18.3848"/>
<text text-anchor="middle" x="248" y="-325.298" font-family="Times Roman,serif" font-size="14.00">quotient_ind_prop</text>
</a>
</g>
<!-- quotient_quotient_surjective&#45;&gt;quotient_quotient_ind_prop -->
<g id="edge32" class="edge"><title>quotient_quotient_surjective&#45;&gt;quotient_quotient_ind_prop</title>
<path fill="none" stroke="black" d="M217.867,-444.266C223.737,-421.792 233.667,-383.771 240.515,-357.556"/>
<polygon fill="black" stroke="black" points="243.921,-358.364 243.062,-347.804 237.148,-356.595 243.921,-358.364"/>
</g>
<!-- quotient_quotient_ind_prop_&#45;&gt;quotient_Quotient_quotient_ind -->
<g id="edge34" class="edge"><title>quotient_quotient_ind_prop_&#45;&gt;quotient_Quotient_quotient_ind</title>
<path fill="none" stroke="black" d="M586.139,-314.736C565.338,-310.421 542.241,-305.793 521,-301.898 369.572,-274.13 320.829,-306.782 179,-246.898 158.588,-238.279 138.579,-223.555 123.436,-210.731"/>
<polygon fill="black" stroke="black" points="125.388,-207.79 115.552,-203.854 120.787,-213.065 125.388,-207.79"/>
</g>
<!-- quotient_quotient_rec2 -->
<g id="node14" class="node"><title>quotient_quotient_rec2</title>
<a xlink:href="quotient.html#quotient_rec2" xlink:title="quotient_rec2">
<ellipse fill="#f070d1" stroke="black" cx="424" cy="-462.898" rx="79.9031" ry="18.3848"/>
<ellipse fill="none" stroke="black" cx="424" cy="-462.898" rx="83.9031" ry="22.3848"/>
<ellipse fill="none" stroke="black" cx="424" cy="-462.898" rx="87.9031" ry="26.3848"/>
<text text-anchor="middle" x="424" y="-459.298" font-family="Times Roman,serif" font-size="14.00">quotient_rec2</text>
</a>
</g>
<!-- quotient_quotient_rec2&#45;&gt;quotient_quotient_rec -->
<g id="edge36" class="edge"><title>quotient_quotient_rec2&#45;&gt;quotient_quotient_rec</title>
<path fill="none" stroke="black" d="M426.999,-436.103C429.55,-413.319 433.202,-380.692 435.807,-357.426"/>
<polygon fill="black" stroke="black" points="439.287,-357.791 436.922,-347.464 432.331,-357.013 439.287,-357.791"/>
</g>
<!-- quotient_quotient_rec&#45;&gt;quotient_Quotient_quotient_ind -->
<g id="edge38" class="edge"><title>quotient_quotient_rec&#45;&gt;quotient_Quotient_quotient_ind</title>
<path fill="none" stroke="black" d="M394.79,-314.176C382.563,-310.149 369.28,-305.816 357,-301.898 278.117,-276.726 252.837,-284.371 179,-246.898 159.643,-237.074 140.059,-222.708 124.886,-210.385"/>
<polygon fill="black" stroke="black" points="126.871,-207.483 116.94,-203.79 122.401,-212.87 126.871,-207.483"/>
</g>
<!-- quotient_sets_exact -->
<g id="node16" class="node"><title>quotient_sets_exact</title>
<a xlink:href="quotient.html#sets_exact" xlink:title="sets_exact">
<ellipse fill="#f070d1" stroke="black" cx="1055" cy="-328.898" rx="62.9325" ry="18.3848"/>
<ellipse fill="none" stroke="black" cx="1055" cy="-328.898" rx="66.9325" ry="22.3848"/>
<ellipse fill="none" stroke="black" cx="1055" cy="-328.898" rx="70.9325" ry="26.3848"/>
<text text-anchor="middle" x="1055" y="-325.298" font-family="Times Roman,serif" font-size="14.00">sets_exact</text>
</a>
</g>
<!-- quotient_sets_exact&#45;&gt;quotient_Quotient_quotient_set -->
<g id="edge40" class="edge"><title>quotient_sets_exact&#45;&gt;quotient_Quotient_quotient_set</title>
<path fill="none" stroke="black" d="M1004.72,-309.902C994.975,-306.8 984.757,-303.938 975,-301.898 699.02,-244.184 606.558,-347.065 343,-246.898 322.149,-238.973 302.001,-224.121 286.895,-211.056"/>
<polygon fill="black" stroke="black" points="288.835,-208.096 279.049,-204.037 284.168,-213.313 288.835,-208.096"/>
</g>
<!-- quotient_sets_exact&#45;&gt;quotient_Quotient_related_classes_eq -->
<g id="edge42" class="edge"><title>quotient_sets_exact&#45;&gt;quotient_Quotient_related_classes_eq</title>
<path fill="none" stroke="black" d="M1021,-305.274C1002.33,-290.567 980.33,-270.067 967,-246.898 946.999,-212.132 975.501,-187.118 947,-158.898 922.194,-134.336 716.935,-97.5272 596.406,-77.7111"/>
<polygon fill="black" stroke="black" points="596.881,-74.2424 586.447,-76.0808 595.75,-81.1505 596.881,-74.2424"/>
</g>
<!-- quotient_classes_eq_related -->
<g id="node17" class="node"><title>quotient_classes_eq_related</title>
<a xlink:href="quotient.html#classes_eq_related" xlink:title="classes_eq_related">
<ellipse fill="#f070d1" stroke="black" cx="1280" cy="-185.898" rx="101.823" ry="18.3848"/>
<text text-anchor="middle" x="1280" y="-182.298" font-family="Times Roman,serif" font-size="14.00">classes_eq_related</text>
</a>
</g>
<!-- quotient_sets_exact&#45;&gt;quotient_classes_eq_related -->
<g id="edge44" class="edge"><title>quotient_sets_exact&#45;&gt;quotient_classes_eq_related</title>
<path fill="none" stroke="black" d="M1091.15,-305.922C1132.9,-279.388 1201.21,-235.97 1243.23,-209.269"/>
<polygon fill="black" stroke="black" points="1245.21,-212.155 1251.77,-203.837 1241.46,-206.247 1245.21,-212.155"/>
</g>
<!-- quotient_classes_eq_related&#45;&gt;quotient_Quotient_class_of -->
<g id="edge46" class="edge"><title>quotient_classes_eq_related&#45;&gt;quotient_Quotient_class_of</title>
<path fill="none" stroke="black" d="M1213.71,-171.784C1098.82,-147.321 864.941,-97.5258 760.019,-75.1864"/>
<polygon fill="black" stroke="black" points="760.485,-71.7073 749.976,-73.048 759.027,-78.5538 760.485,-71.7073"/>
</g>
<!-- quotient_classes_eq_related&#45;&gt;quotient_Quotient_quotient -->
<g id="edge48" class="edge"><title>quotient_classes_eq_related&#45;&gt;quotient_Quotient_quotient</title>
<path fill="none" stroke="black" d="M1226.59,-170.09C1159.86,-150.23 1042.23,-114.869 942,-82.8979 939.064,-81.9613 936.046,-80.9878 933.004,-79.9983"/>
<polygon fill="black" stroke="black" points="933.874,-76.6002 923.281,-76.8098 931.693,-83.2517 933.874,-76.6002"/>
</g>
<!-- quotient_in_class_pr -->
<g id="node20" class="node"><title>quotient_in_class_pr</title>
<a xlink:href="quotient.html#in_class_pr" xlink:title="in_class_pr">
<ellipse fill="#f070d1" stroke="black" cx="1280" cy="-63.8979" rx="63.8479" ry="18.3848"/>
<text text-anchor="middle" x="1280" y="-60.2979" font-family="Times Roman,serif" font-size="14.00">in_class_pr</text>
</a>
</g>
<!-- quotient_classes_eq_related&#45;&gt;quotient_in_class_pr -->
<g id="edge50" class="edge"><title>quotient_classes_eq_related&#45;&gt;quotient_in_class_pr</title>
<path fill="none" stroke="black" d="M1280,-167.369C1280,-147.573 1280,-115.932 1280,-92.8452"/>
<polygon fill="black" stroke="black" points="1283.5,-92.6014 1280,-82.6014 1276.5,-92.6015 1283.5,-92.6014"/>
</g>
<!-- quotient_class_of_repr -->
<g id="node18" class="node"><title>quotient_class_of_repr</title>
<a xlink:href="quotient.html#class_of_repr" xlink:title="class_of_repr">
<ellipse fill="#f070d1" stroke="black" cx="859" cy="-462.898" rx="74.2462" ry="18.3848"/>
<ellipse fill="none" stroke="black" cx="859" cy="-462.898" rx="78.2462" ry="22.3848"/>
<ellipse fill="none" stroke="black" cx="859" cy="-462.898" rx="82.2462" ry="26.3848"/>
<text text-anchor="middle" x="859" y="-459.298" font-family="Times Roman,serif" font-size="14.00">class_of_repr</text>
</a>
</g>
<!-- quotient_class_of_repr&#45;&gt;quotient_Quotient_quotient_ind -->
<g id="edge52" class="edge"><title>quotient_class_of_repr&#45;&gt;quotient_Quotient_quotient_ind</title>
<path fill="none" stroke="black" d="M837.572,-436.9C821.077,-415.977 798.543,-385.31 783,-355.898 771.042,-333.27 783.297,-317.488 763,-301.898 659.624,-222.493 300.684,-293.639 179,-246.898 158.177,-238.899 138.03,-224.045 122.917,-210.998"/>
<polygon fill="black" stroke="black" points="124.857,-208.039 115.066,-203.991 120.196,-213.261 124.857,-208.039"/>
</g>
<!-- quotient_quotient_path2 -->
<g id="node22" class="node"><title>quotient_quotient_path2</title>
<a xlink:href="quotient.html#quotient_path2" xlink:title="quotient_path2">
<ellipse fill="#f070d1" stroke="black" cx="879" cy="-328.898" rx="86.9741" ry="18.3848"/>
<text text-anchor="middle" x="879" y="-325.298" font-family="Times Roman,serif" font-size="14.00">quotient_path2</text>
</a>
</g>
<!-- quotient_class_of_repr&#45;&gt;quotient_quotient_path2 -->
<g id="edge54" class="edge"><title>quotient_class_of_repr&#45;&gt;quotient_quotient_path2</title>
<path fill="none" stroke="black" d="M862.951,-436.424C866.347,-413.671 871.234,-380.929 874.722,-357.563"/>
<polygon fill="black" stroke="black" points="878.201,-357.964 876.215,-347.556 871.277,-356.93 878.201,-357.964"/>
</g>
<!-- quotient_quotient_ind_prop&#45;&gt;quotient_Quotient_quotient_ind -->
<g id="edge56" class="edge"><title>quotient_quotient_ind_prop&#45;&gt;quotient_Quotient_quotient_ind</title>
<path fill="none" stroke="black" d="M228.569,-310.496C201.807,-285.152 153.513,-239.417 123.47,-210.966"/>
<polygon fill="black" stroke="black" points="125.549,-208.114 115.882,-203.779 120.736,-213.197 125.549,-208.114"/>
</g>
<!-- quotient_in_class -->
<g id="node21" class="node"><title>quotient_in_class</title>
<a xlink:href="quotient.html#in_class" xlink:title="in_class">
<ellipse fill="#f070d1" stroke="black" cx="73" cy="-328.898" rx="48.7904" ry="18.3848"/>
<ellipse fill="none" stroke="black" cx="73" cy="-328.898" rx="52.7904" ry="22.3848"/>
<ellipse fill="none" stroke="black" cx="73" cy="-328.898" rx="56.7904" ry="26.3848"/>
<text text-anchor="middle" x="73" y="-325.298" font-family="Times Roman,serif" font-size="14.00">in_class</text>
</a>
</g>
<!-- quotient_in_class&#45;&gt;quotient_Quotient_quotient_ind -->
<g id="edge58" class="edge"><title>quotient_in_class&#45;&gt;quotient_Quotient_quotient_ind</title>
<path fill="none" stroke="black" d="M77.458,-302.336C81.6332,-277.458 87.8569,-240.375 92.1536,-214.774"/>
<polygon fill="black" stroke="black" points="95.662,-215.016 93.8655,-204.574 88.7585,-213.857 95.662,-215.016"/>
</g>
<!-- quotient_quotient_path2&#45;&gt;quotient_Quotient_quotient_set -->
<g id="edge60" class="edge"><title>quotient_quotient_path2&#45;&gt;quotient_Quotient_quotient_set</title>
<path fill="none" stroke="black" d="M828.191,-313.876C812.232,-309.547 794.476,-305.126 778,-301.898 586.764,-264.426 523.777,-319.665 343,-246.898 322.446,-238.624 302.433,-223.908 287.324,-211.003"/>
<polygon fill="black" stroke="black" points="289.278,-208.06 279.462,-204.072 284.649,-213.31 289.278,-208.06"/>
</g>
<!-- quotient_quotient_path2&#45;&gt;quotient_Quotient_quotient -->
<g id="edge62" class="edge"><title>quotient_quotient_path2&#45;&gt;quotient_Quotient_quotient</title>
<path fill="none" stroke="black" d="M930.895,-313.979C1008.38,-291.586 1145.65,-251.411 1149,-246.898 1172.29,-215.48 1171.49,-190.895 1149,-158.898 1145.74,-154.262 1007.64,-106.141 932.519,-80.2236"/>
<polygon fill="black" stroke="black" points="933.393,-76.823 922.798,-76.873 931.112,-83.4409 933.393,-76.823"/>
</g>
</g>
</svg>
