<?xml version="1.0" encoding="UTF-8" standalone="no"?>
<!DOCTYPE svg PUBLIC "-//W3C//DTD SVG 1.1//EN"
 "http://www.w3.org/Graphics/SVG/1.1/DTD/svg11.dtd">
<!-- Generated by graphviz version 2.39.20141222.0545 (20141222.0545)
 -->
<!-- Title: HoTT_hit_Circle Pages: 1 -->
<svg width="1406pt" height="707pt"
 viewBox="0.00 0.00 1406.00 707.00" xmlns="http://www.w3.org/2000/svg" xmlns:xlink="http://www.w3.org/1999/xlink">
<g id="graph0" class="graph" transform="scale(1 1) rotate(0) translate(4 703)">
<title>HoTT_hit_Circle</title>
<polygon fill="white" stroke="transparent" points="-4,4 -4,-703 1402,-703 1402,4 -4,4"/>
<g id="clust1" class="cluster"><title>cluster_Circle</title>
<polygon fill="#ffffc3" stroke="black" points="19.0853,-8 19.0853,-691 1378.91,-691 1378.91,-8 19.0853,-8"/>
<text text-anchor="middle" x="44.0853" y="-675.8" font-family="Times,serif" font-size="14.00">Circle</text>
</g>
<!-- Circle_S1_action_is_iter -->
<g id="node1" class="node"><title>Circle_S1_action_is_iter</title>
<g id="a_node1"><a xlink:href="Circle.html#S1_action_is_iter" xlink:title="S1_action_is_iter">
<ellipse fill="#facdef" stroke="black" cx="332.099" cy="-474" rx="72.2731" ry="18"/>
<ellipse fill="none" stroke="black" cx="332.099" cy="-474" rx="76.2803" ry="22"/>
<ellipse fill="none" stroke="black" cx="332.099" cy="-474" rx="80.2875" ry="26"/>
<text text-anchor="middle" x="332.099" y="-470.3" font-family="Times,serif" font-size="14.00">S1_action_is_iter</text>
</a>
</g>
</g>
<!-- Circle_S1_decode -->
<g id="node7" class="node"><title>Circle_S1_decode</title>
<g id="a_node7"><a xlink:href="Circle.html#S1_decode" xlink:title="S1_decode">
<ellipse fill="#f070d1" stroke="black" cx="332.099" cy="-394" rx="49.2915" ry="18"/>
<text text-anchor="middle" x="332.099" y="-390.3" font-family="Times,serif" font-size="14.00">S1_decode</text>
</a>
</g>
</g>
<!-- Circle_S1_action_is_iter&#45;&gt;Circle_S1_decode -->
<g id="edge1" class="edge"><title>Circle_S1_action_is_iter&#45;&gt;Circle_S1_decode</title>
<path fill="none" stroke="black" d="M332.099,-447.805C332.099,-439.603 332.099,-430.517 332.099,-422.184"/>
<polygon fill="black" stroke="black" points="335.599,-422.153 332.099,-412.153 328.599,-422.153 335.599,-422.153"/>
</g>
<!-- Circle_is1type_S1 -->
<g id="node2" class="node"><title>Circle_is1type_S1</title>
<g id="a_node2"><a xlink:href="Circle.html#is1type_S1" xlink:title="is1type_S1">
<ellipse fill="#f070d1" stroke="black" cx="1116.1" cy="-634" rx="50.0849" ry="18"/>
<ellipse fill="none" stroke="black" cx="1116.1" cy="-634" rx="54.088" ry="22"/>
<ellipse fill="none" stroke="black" cx="1116.1" cy="-634" rx="58.0912" ry="26"/>
<text text-anchor="middle" x="1116.1" y="-630.3" font-family="Times,serif" font-size="14.00">is1type_S1</text>
</a>
</g>
</g>
<!-- Circle_isconnected_S1 -->
<g id="node3" class="node"><title>Circle_isconnected_S1</title>
<g id="a_node3"><a xlink:href="Circle.html#isconnected_S1" xlink:title="isconnected_S1">
<ellipse fill="#f070d1" stroke="black" cx="1176.1" cy="-178" rx="65.7887" ry="18"/>
<text text-anchor="middle" x="1176.1" y="-174.3" font-family="Times,serif" font-size="14.00">isconnected_S1</text>
</a>
</g>
</g>
<!-- Circle_is1type_S1&#45;&gt;Circle_isconnected_S1 -->
<g id="edge2" class="edge"><title>Circle_is1type_S1&#45;&gt;Circle_isconnected_S1</title>
<path fill="none" stroke="black" d="M1169.29,-623.461C1240.26,-605.947 1357.1,-563.52 1357.1,-474 1357.1,-474 1357.1,-474 1357.1,-322 1357.1,-256.277 1283.11,-215.731 1229.75,-195.034"/>
<polygon fill="black" stroke="black" points="1230.97,-191.755 1220.38,-191.52 1228.51,-198.309 1230.97,-191.755"/>
</g>
<!-- Circle_equiv_loopS1_int -->
<g id="node4" class="node"><title>Circle_equiv_loopS1_int</title>
<g id="a_node4"><a xlink:href="Circle.html#equiv_loopS1_int" xlink:title="equiv_loopS1_int">
<ellipse fill="#f070d1" stroke="black" cx="909.099" cy="-554" rx="73.387" ry="18"/>
<text text-anchor="middle" x="909.099" y="-550.3" font-family="Times,serif" font-size="14.00">equiv_loopS1_int</text>
</a>
</g>
</g>
<!-- Circle_is1type_S1&#45;&gt;Circle_equiv_loopS1_int -->
<g id="edge3" class="edge"><title>Circle_is1type_S1&#45;&gt;Circle_equiv_loopS1_int</title>
<path fill="none" stroke="black" d="M1071.95,-616.936C1038.52,-604.017 992.614,-586.277 958.062,-572.923"/>
<polygon fill="black" stroke="black" points="959.227,-569.621 948.638,-569.281 956.704,-576.15 959.227,-569.621"/>
</g>
<!-- Circle_S1_ind -->
<g id="node15" class="node"><title>Circle_S1_ind</title>
<g id="a_node15"><a xlink:href="Circle.html#S1_ind" xlink:title="S1_ind">
<ellipse fill="#f070d1" stroke="black" cx="864.099" cy="-106" rx="35.9954" ry="18"/>
<text text-anchor="middle" x="864.099" y="-102.3" font-family="Times,serif" font-size="14.00">S1_ind</text>
</a>
</g>
</g>
<!-- Circle_isconnected_S1&#45;&gt;Circle_S1_ind -->
<g id="edge4" class="edge"><title>Circle_isconnected_S1&#45;&gt;Circle_S1_ind</title>
<path fill="none" stroke="black" d="M1125.62,-166.352C1064.78,-152.31 963.602,-128.962 906.573,-115.802"/>
<polygon fill="black" stroke="black" points="907.328,-112.384 896.797,-113.546 905.754,-119.205 907.328,-112.384"/>
</g>
<!-- Circle_S1_encode_isequiv -->
<g id="node5" class="node"><title>Circle_S1_encode_isequiv</title>
<g id="a_node5"><a xlink:href="Circle.html#S1_encode_isequiv" xlink:title="S1_encode_isequiv">
<ellipse fill="#f070d1" stroke="black" cx="804.099" cy="-474" rx="79.0865" ry="18"/>
<text text-anchor="middle" x="804.099" y="-470.3" font-family="Times,serif" font-size="14.00">S1_encode_isequiv</text>
</a>
</g>
</g>
<!-- Circle_equiv_loopS1_int&#45;&gt;Circle_S1_encode_isequiv -->
<g id="edge5" class="edge"><title>Circle_equiv_loopS1_int&#45;&gt;Circle_S1_encode_isequiv</title>
<path fill="none" stroke="black" d="M886.574,-536.838C871.59,-525.422 851.708,-510.273 835.219,-497.71"/>
<polygon fill="black" stroke="black" points="837.025,-494.686 826.949,-491.41 832.782,-500.254 837.025,-494.686"/>
</g>
<!-- Circle_S1_encode_loopexp -->
<g id="node6" class="node"><title>Circle_S1_encode_loopexp</title>
<g id="a_node6"><a xlink:href="Circle.html#S1_encode_loopexp" xlink:title="S1_encode_loopexp">
<ellipse fill="#f070d1" stroke="black" cx="804.099" cy="-394" rx="81.7856" ry="18"/>
<text text-anchor="middle" x="804.099" y="-390.3" font-family="Times,serif" font-size="14.00">S1_encode_loopexp</text>
</a>
</g>
</g>
<!-- Circle_S1_encode_isequiv&#45;&gt;Circle_S1_encode_loopexp -->
<g id="edge6" class="edge"><title>Circle_S1_encode_isequiv&#45;&gt;Circle_S1_encode_loopexp</title>
<path fill="none" stroke="black" d="M804.099,-455.847C804.099,-445.925 804.099,-433.417 804.099,-422.249"/>
<polygon fill="black" stroke="black" points="807.599,-422.081 804.099,-412.081 800.599,-422.081 807.599,-422.081"/>
</g>
<!-- Circle_S1_encode_isequiv&#45;&gt;Circle_S1_decode -->
<g id="edge7" class="edge"><title>Circle_S1_encode_isequiv&#45;&gt;Circle_S1_decode</title>
<path fill="none" stroke="black" d="M740.443,-463.211C647.254,-447.416 475.236,-418.261 387.18,-403.336"/>
<polygon fill="black" stroke="black" points="387.57,-399.852 377.126,-401.632 386.4,-406.754 387.57,-399.852"/>
</g>
<!-- Circle_S1_encode -->
<g id="node8" class="node"><title>Circle_S1_encode</title>
<g id="a_node8"><a xlink:href="Circle.html#S1_encode" xlink:title="S1_encode">
<ellipse fill="#f070d1" stroke="black" cx="1195.1" cy="-322" rx="49.2915" ry="18"/>
<text text-anchor="middle" x="1195.1" y="-318.3" font-family="Times,serif" font-size="14.00">S1_encode</text>
</a>
</g>
</g>
<!-- Circle_S1_encode_loopexp&#45;&gt;Circle_S1_encode -->
<g id="edge8" class="edge"><title>Circle_S1_encode_loopexp&#45;&gt;Circle_S1_encode</title>
<path fill="none" stroke="black" d="M866.92,-382.432C942.74,-368.47 1068.97,-345.226 1140.77,-332.004"/>
<polygon fill="black" stroke="black" points="1141.76,-335.382 1150.96,-330.128 1140.49,-328.497 1141.76,-335.382"/>
</g>
<!-- Circle_transport_S1_code_loopV -->
<g id="node9" class="node"><title>Circle_transport_S1_code_loopV</title>
<g id="a_node9"><a xlink:href="Circle.html#transport_S1_code_loopV" xlink:title="transport_S1_code_loopV">
<ellipse fill="#f070d1" stroke="black" cx="284.099" cy="-322" rx="102.882" ry="18"/>
<text text-anchor="middle" x="284.099" y="-318.3" font-family="Times,serif" font-size="14.00">transport_S1_code_loopV</text>
</a>
</g>
</g>
<!-- Circle_S1_encode_loopexp&#45;&gt;Circle_transport_S1_code_loopV -->
<g id="edge9" class="edge"><title>Circle_S1_encode_loopexp&#45;&gt;Circle_transport_S1_code_loopV</title>
<path fill="none" stroke="black" d="M734.778,-384.402C642.055,-371.563 477.468,-348.774 374.925,-334.576"/>
<polygon fill="black" stroke="black" points="375.278,-331.091 364.892,-333.187 374.318,-338.025 375.278,-331.091"/>
</g>
<!-- Circle_transport_S1_code_loop -->
<g id="node10" class="node"><title>Circle_transport_S1_code_loop</title>
<g id="a_node10"><a xlink:href="Circle.html#transport_S1_code_loop" xlink:title="transport_S1_code_loop">
<ellipse fill="#f070d1" stroke="black" cx="804.099" cy="-322" rx="96.6831" ry="18"/>
<text text-anchor="middle" x="804.099" y="-318.3" font-family="Times,serif" font-size="14.00">transport_S1_code_loop</text>
</a>
</g>
</g>
<!-- Circle_S1_encode_loopexp&#45;&gt;Circle_transport_S1_code_loop -->
<g id="edge10" class="edge"><title>Circle_S1_encode_loopexp&#45;&gt;Circle_transport_S1_code_loop</title>
<path fill="none" stroke="black" d="M804.099,-375.831C804.099,-368.131 804.099,-358.974 804.099,-350.417"/>
<polygon fill="black" stroke="black" points="807.599,-350.413 804.099,-340.413 800.599,-350.413 807.599,-350.413"/>
</g>
<!-- Circle_S1_decode&#45;&gt;Circle_transport_S1_code_loopV -->
<g id="edge11" class="edge"><title>Circle_S1_decode&#45;&gt;Circle_transport_S1_code_loopV</title>
<path fill="none" stroke="black" d="M320.234,-376.202C314.68,-367.871 307.949,-357.775 301.809,-348.565"/>
<polygon fill="black" stroke="black" points="304.62,-346.472 296.161,-340.093 298.796,-350.355 304.62,-346.472"/>
</g>
<!-- Circle_S1_code -->
<g id="node11" class="node"><title>Circle_S1_code</title>
<g id="a_node11"><a xlink:href="Circle.html#S1_code" xlink:title="S1_code">
<ellipse fill="#f070d1" stroke="black" cx="866.099" cy="-250" rx="40.8928" ry="18"/>
<text text-anchor="middle" x="866.099" y="-246.3" font-family="Times,serif" font-size="14.00">S1_code</text>
</a>
</g>
</g>
<!-- Circle_S1_encode&#45;&gt;Circle_S1_code -->
<g id="edge12" class="edge"><title>Circle_S1_encode&#45;&gt;Circle_S1_code</title>
<path fill="none" stroke="black" d="M1152.43,-312.661C1090.7,-299.153 976.916,-274.252 912.941,-260.251"/>
<polygon fill="black" stroke="black" points="913.634,-256.82 903.117,-258.101 912.137,-263.658 913.634,-256.82"/>
</g>
<!-- Circle_transport_S1_code_loopV&#45;&gt;Circle_S1_code -->
<g id="edge13" class="edge"><title>Circle_transport_S1_code_loopV&#45;&gt;Circle_S1_code</title>
<path fill="none" stroke="black" d="M368.105,-311.607C491.239,-296.374 716.89,-268.459 816.548,-256.13"/>
<polygon fill="black" stroke="black" points="817.15,-259.582 826.645,-254.881 816.291,-252.635 817.15,-259.582"/>
</g>
<!-- Circle_S1_rec_beta_loop -->
<g id="node12" class="node"><title>Circle_S1_rec_beta_loop</title>
<g id="a_node12"><a xlink:href="Circle.html#S1_rec_beta_loop" xlink:title="S1_rec_beta_loop">
<ellipse fill="#f070d1" stroke="black" cx="549.099" cy="-250" rx="74.187" ry="18"/>
<text text-anchor="middle" x="549.099" y="-246.3" font-family="Times,serif" font-size="14.00">S1_rec_beta_loop</text>
</a>
</g>
</g>
<!-- Circle_transport_S1_code_loopV&#45;&gt;Circle_S1_rec_beta_loop -->
<g id="edge14" class="edge"><title>Circle_transport_S1_code_loopV&#45;&gt;Circle_S1_rec_beta_loop</title>
<path fill="none" stroke="black" d="M339.975,-306.819C383.88,-294.89 444.887,-278.314 489.68,-266.144"/>
<polygon fill="black" stroke="black" points="490.818,-269.462 499.55,-263.462 488.982,-262.707 490.818,-269.462"/>
</g>
<!-- Circle_transport_S1_code_loop&#45;&gt;Circle_S1_code -->
<g id="edge15" class="edge"><title>Circle_transport_S1_code_loop&#45;&gt;Circle_S1_code</title>
<path fill="none" stroke="black" d="M819.425,-304.202C827.045,-295.353 836.38,-284.513 844.693,-274.858"/>
<polygon fill="black" stroke="black" points="847.503,-276.959 851.376,-267.097 842.199,-272.391 847.503,-276.959"/>
</g>
<!-- Circle_transport_S1_code_loop&#45;&gt;Circle_S1_rec_beta_loop -->
<g id="edge16" class="edge"><title>Circle_transport_S1_code_loop&#45;&gt;Circle_S1_rec_beta_loop</title>
<path fill="none" stroke="black" d="M750.643,-306.906C708.776,-295.085 650.61,-278.662 607.521,-266.496"/>
<polygon fill="black" stroke="black" points="608.316,-263.083 597.741,-263.734 606.414,-269.82 608.316,-263.083"/>
</g>
<!-- Circle_S1_rec -->
<g id="node13" class="node"><title>Circle_S1_rec</title>
<g id="a_node13"><a xlink:href="Circle.html#S1_rec" xlink:title="S1_rec">
<ellipse fill="#f070d1" stroke="black" cx="864.099" cy="-178" rx="35.194" ry="18"/>
<text text-anchor="middle" x="864.099" y="-174.3" font-family="Times,serif" font-size="14.00">S1_rec</text>
</a>
</g>
</g>
<!-- Circle_S1_code&#45;&gt;Circle_S1_rec -->
<g id="edge17" class="edge"><title>Circle_S1_code&#45;&gt;Circle_S1_rec</title>
<path fill="none" stroke="black" d="M865.594,-231.831C865.38,-224.131 865.126,-214.974 864.888,-206.417"/>
<polygon fill="black" stroke="black" points="868.387,-206.312 864.61,-196.413 861.39,-206.507 868.387,-206.312"/>
</g>
<!-- Circle_S1_rec_beta_loop&#45;&gt;Circle_S1_rec -->
<g id="edge18" class="edge"><title>Circle_S1_rec_beta_loop&#45;&gt;Circle_S1_rec</title>
<path fill="none" stroke="black" d="M603.249,-237.623C665.183,-223.467 765.289,-200.585 821.781,-187.673"/>
<polygon fill="black" stroke="black" points="822.834,-191.022 831.802,-185.382 821.274,-184.198 822.834,-191.022"/>
</g>
<!-- Circle_S1_ind_beta_loop -->
<g id="node14" class="node"><title>Circle_S1_ind_beta_loop</title>
<g id="a_node14"><a xlink:href="Circle.html#S1_ind_beta_loop" xlink:title="S1_ind_beta_loop">
<ellipse fill="#f070d1" stroke="black" cx="556.099" cy="-106" rx="74.9875" ry="18"/>
<text text-anchor="middle" x="556.099" y="-102.3" font-family="Times,serif" font-size="14.00">S1_ind_beta_loop</text>
</a>
</g>
</g>
<!-- Circle_S1_rec_beta_loop&#45;&gt;Circle_S1_ind_beta_loop -->
<g id="edge19" class="edge"><title>Circle_S1_rec_beta_loop&#45;&gt;Circle_S1_ind_beta_loop</title>
<path fill="none" stroke="black" d="M549.986,-231.762C551.179,-207.201 553.316,-163.247 554.721,-134.354"/>
<polygon fill="black" stroke="black" points="558.23,-134.248 555.22,-124.09 551.238,-133.908 558.23,-134.248"/>
</g>
<!-- Circle_S1_rec&#45;&gt;Circle_S1_ind -->
<g id="edge20" class="edge"><title>Circle_S1_rec&#45;&gt;Circle_S1_ind</title>
<path fill="none" stroke="black" d="M864.099,-159.831C864.099,-152.131 864.099,-142.974 864.099,-134.417"/>
<polygon fill="black" stroke="black" points="867.599,-134.413 864.099,-124.413 860.599,-134.413 867.599,-134.413"/>
</g>
<!-- Circle_loop -->
<g id="node16" class="node"><title>Circle_loop</title>
<g id="a_node16"><a xlink:href="Circle.html#loop" xlink:title="loop">
<ellipse fill="#f070d1" stroke="black" cx="537.099" cy="-34" rx="27" ry="18"/>
<text text-anchor="middle" x="537.099" y="-30.3" font-family="Times,serif" font-size="14.00">loop</text>
</a>
</g>
</g>
<!-- Circle_S1_ind_beta_loop&#45;&gt;Circle_loop -->
<g id="edge21" class="edge"><title>Circle_S1_ind_beta_loop&#45;&gt;Circle_loop</title>
<path fill="none" stroke="black" d="M551.304,-87.8314C549.218,-79.9266 546.728,-70.4872 544.418,-61.7365"/>
<polygon fill="black" stroke="black" points="547.762,-60.6894 541.826,-51.9134 540.994,-62.4755 547.762,-60.6894"/>
</g>
<!-- Circle_base -->
<g id="node17" class="node"><title>Circle_base</title>
<g id="a_node17"><a xlink:href="Circle.html#base" xlink:title="base">
<ellipse fill="#f070d1" stroke="black" cx="708.099" cy="-34" rx="27" ry="18"/>
<text text-anchor="middle" x="708.099" y="-30.3" font-family="Times,serif" font-size="14.00">base</text>
</a>
</g>
</g>
<!-- Circle_S1_ind_beta_loop&#45;&gt;Circle_base -->
<g id="edge22" class="edge"><title>Circle_S1_ind_beta_loop&#45;&gt;Circle_base</title>
<path fill="none" stroke="black" d="M590.211,-89.8418C616.134,-77.5626 651.512,-60.8044 676.733,-48.8576"/>
<polygon fill="black" stroke="black" points="678.322,-51.9779 685.861,-44.5339 675.325,-45.6517 678.322,-51.9779"/>
</g>
<!-- Circle_S1 -->
<g id="node18" class="node"><title>Circle_S1</title>
<g id="a_node18"><a xlink:href="Circle.html#S1" xlink:title="S1">
<ellipse fill="#f070d1" stroke="black" cx="880.099" cy="-34" rx="27" ry="18"/>
<text text-anchor="middle" x="880.099" y="-30.3" font-family="Times,serif" font-size="14.00">S1</text>
</a>
</g>
</g>
<!-- Circle_S1_ind_beta_loop&#45;&gt;Circle_S1 -->
<g id="edge23" class="edge"><title>Circle_S1_ind_beta_loop&#45;&gt;Circle_S1</title>
<path fill="none" stroke="black" d="M611.061,-93.7862C677.688,-78.9803 788.036,-54.4585 844.467,-41.9183"/>
<polygon fill="black" stroke="black" points="845.351,-45.3073 854.354,-39.7212 843.832,-38.4739 845.351,-45.3073"/>
</g>
<!-- Circle_S1_ind&#45;&gt;Circle_loop -->
<g id="edge24" class="edge"><title>Circle_S1_ind&#45;&gt;Circle_loop</title>
<path fill="none" stroke="black" d="M831.248,-98.7667C769.574,-85.1871 636.927,-55.9805 572.995,-41.9038"/>
<polygon fill="black" stroke="black" points="573.5,-38.4311 562.981,-39.6988 571.995,-45.2674 573.5,-38.4311"/>
</g>
<!-- Circle_S1_ind&#45;&gt;Circle_base -->
<g id="edge25" class="edge"><title>Circle_S1_ind&#45;&gt;Circle_base</title>
<path fill="none" stroke="black" d="M837.636,-93.7862C810.613,-81.3142 768.653,-61.948 739.855,-48.6568"/>
<polygon fill="black" stroke="black" points="741.181,-45.4137 730.634,-44.4009 738.247,-51.7694 741.181,-45.4137"/>
</g>
<!-- Circle_S1_ind&#45;&gt;Circle_S1 -->
<g id="edge26" class="edge"><title>Circle_S1_ind&#45;&gt;Circle_S1</title>
<path fill="none" stroke="black" d="M868.136,-87.8314C869.893,-79.9266 871.991,-70.4872 873.935,-61.7365"/>
<polygon fill="black" stroke="black" points="877.365,-62.4346 876.118,-51.9134 870.532,-60.916 877.365,-62.4346"/>
</g>
</g>
</svg>
