<?xml version="1.0" encoding="UTF-8" standalone="no"?>
<!DOCTYPE svg PUBLIC "-//W3C//DTD SVG 1.1//EN"
 "http://www.w3.org/Graphics/SVG/1.1/DTD/svg11.dtd">
<!-- Generated by graphviz version 2.26.3 (20100126.1600)
 -->
<!-- Title: HoTT_categories_NaturalTransformation_Dual Pages: 1 -->
<svg width="782pt" height="395pt"
 viewBox="0.00 0.00 782.00 395.00" xmlns="http://www.w3.org/2000/svg" xmlns:xlink="http://www.w3.org/1999/xlink">
<g id="graph1" class="graph" transform="scale(1 1) rotate(0) translate(4 391)">
<title>HoTT_categories_NaturalTransformation_Dual</title>
<polygon fill="white" stroke="white" points="-4,5 -4,-391 779,-391 779,5 -4,5"/>
<g id="graph2" class="cluster"><title>cluster_Dual</title>
<polygon fill="#ffffc3" stroke="black" points="8,-16.6452 8,-370.355 766,-370.355 766,-16.6452 8,-16.6452"/>
<text text-anchor="middle" x="32.5" y="-353.755" font-family="Times Roman,serif" font-size="14.00">Dual</text>
</g>
<!-- Dual_opposite_involutive -->
<g id="node1" class="node"><title>Dual_opposite_involutive</title>
<a xlink:href="Dual.html#opposite_involutive" xlink:title="opposite_involutive">
<ellipse fill="#f070d1" stroke="black" cx="644" cy="-243.645" rx="106.066" ry="18.3848"/>
<ellipse fill="none" stroke="black" cx="644" cy="-243.645" rx="110.066" ry="22.3848"/>
<ellipse fill="none" stroke="black" cx="644" cy="-243.645" rx="114.066" ry="26.3848"/>
<text text-anchor="middle" x="644" y="-240.045" font-family="Times Roman,serif" font-size="14.00">opposite_involutive</text>
</a>
</g>
<!-- Dual_opposite -->
<g id="node5" class="node"><title>Dual_opposite</title>
<a xlink:href="Dual.html#opposite" xlink:title="opposite">
<ellipse fill="#f070d1" stroke="black" cx="644" cy="-72.6452" rx="51.8276" ry="18.3848"/>
<text text-anchor="middle" x="644" y="-69.0452" font-family="Times Roman,serif" font-size="14.00">opposite</text>
</a>
</g>
<!-- Dual_opposite_involutive&#45;&gt;Dual_opposite -->
<g id="edge2" class="edge"><title>Dual_opposite_involutive&#45;&gt;Dual_opposite</title>
<path fill="none" stroke="black" d="M644,-216.926C644,-185.532 644,-133.645 644,-101.396"/>
<polygon fill="black" stroke="black" points="647.5,-101.271 644,-91.2707 640.5,-101.271 647.5,-101.271"/>
</g>
<!-- Dual_opposite_tinv -->
<g id="node2" class="node"><title>Dual_opposite_tinv</title>
<a xlink:href="Dual.html#opposite_tinv" xlink:title="opposite_tinv">
<ellipse fill="#f070d1" stroke="black" cx="427" cy="-243.645" rx="77.0746" ry="18.3848"/>
<ellipse fill="none" stroke="black" cx="427" cy="-243.645" rx="81.0746" ry="22.3848"/>
<ellipse fill="none" stroke="black" cx="427" cy="-243.645" rx="85.0746" ry="26.3848"/>
<text text-anchor="middle" x="427" y="-240.045" font-family="Times Roman,serif" font-size="14.00">opposite_tinv</text>
</a>
</g>
<!-- Dual_opposite_finv -->
<g id="node3" class="node"><title>Dual_opposite_finv</title>
<a xlink:href="Dual.html#opposite_finv" xlink:title="opposite_finv">
<ellipse fill="#f070d1" stroke="black" cx="241" cy="-243.645" rx="75.2074" ry="18.3848"/>
<ellipse fill="none" stroke="black" cx="241" cy="-243.645" rx="79.1834" ry="22.3848"/>
<ellipse fill="none" stroke="black" cx="241" cy="-243.645" rx="83.1595" ry="26.3848"/>
<text text-anchor="middle" x="241" y="-240.045" font-family="Times Roman,serif" font-size="14.00">opposite_finv</text>
</a>
</g>
<!-- Dual_opposite_ -->
<g id="node4" class="node"><title>Dual_opposite_</title>
<a xlink:href="Dual.html#opposite&#39;" xlink:title="opposite&#39;">
<ellipse fill="#f070d1" stroke="black" cx="78" cy="-243.645" rx="54.0116" ry="18.3848"/>
<ellipse fill="none" stroke="black" cx="78" cy="-243.645" rx="57.9796" ry="22.3848"/>
<ellipse fill="none" stroke="black" cx="78" cy="-243.645" rx="61.9476" ry="26.3848"/>
<text text-anchor="middle" x="78" y="-240.045" font-family="Times Roman,serif" font-size="14.00">opposite&#39;</text>
</a>
</g>
</g>
</svg>
