<?xml version="1.0" encoding="UTF-8" standalone="no"?>
<!DOCTYPE svg PUBLIC "-//W3C//DTD SVG 1.1//EN"
 "http://www.w3.org/Graphics/SVG/1.1/DTD/svg11.dtd">
<!-- Generated by graphviz version 2.39.20141222.0545 (20141222.0545)
 -->
<!-- Title: HoTT_HIT_Suspension Pages: 1 -->
<svg width="1888pt" height="948pt"
 viewBox="0.00 0.00 1888.00 948.00" xmlns="http://www.w3.org/2000/svg" xmlns:xlink="http://www.w3.org/1999/xlink">
<g id="graph0" class="graph" transform="scale(1 1) rotate(0) translate(4 944)">
<title>HoTT_HIT_Suspension</title>
<polygon fill="white" stroke="transparent" points="-4,4 -4,-944 1884,-944 1884,4 -4,4"/>
<g id="clust1" class="cluster"><title>cluster_Suspension</title>
<polygon fill="#ffffc3" stroke="black" points="8,-13.574 8,-926.426 1872,-926.426 1872,-13.574 8,-13.574"/>
<text text-anchor="middle" x="47" y="-911.226" font-family="Times,serif" font-size="14.00">Suspension</text>
</g>
<g id="clust2" class="cluster"><title>cluster_Suspension_Book_Loop_Susp_Adjunction</title>
<polygon fill="#ffffa3" stroke="black" points="1462,-719.422 1462,-873.827 1644,-873.827 1644,-719.422 1462,-719.422"/>
<text text-anchor="middle" x="1553" y="-858.627" font-family="Times,serif" font-size="14.00">Book_Loop_Susp_Adjunction</text>
</g>
<g id="clust3" class="cluster"><title>cluster_Suspension_Suspension</title>
<polygon fill="#ffffa3" stroke="black" points="666,-27.148 666,-290.144 980,-290.144 980,-27.148 666,-27.148"/>
<text text-anchor="middle" x="705" y="-274.944" font-family="Times,serif" font-size="14.00">Suspension</text>
</g>
<!-- Suspension_Suspension_Susp_ind_beta_merid -->
<g id="node1" class="node"><title>Suspension_Suspension_Susp_ind_beta_merid</title>
<g id="a_node1"><a xlink:href="Suspension.html#Suspension.Susp_ind_beta_merid" xlink:title="Susp_ind_beta_merid">
<ellipse fill="#facdef" stroke="black" cx="762" cy="-206.574" rx="87.9851" ry="18"/>
<text text-anchor="middle" x="762" y="-202.874" font-family="Times,serif" font-size="14.00">Susp_ind_beta_merid</text>
</a>
</g>
</g>
<!-- Suspension_Suspension_Susp_ind -->
<g id="node2" class="node"><title>Suspension_Suspension_Susp_ind</title>
<g id="a_node2"><a xlink:href="Suspension.html#Suspension.Susp_ind" xlink:title="Susp_ind">
<ellipse fill="#f070d1" stroke="black" cx="911" cy="-206.574" rx="43.5923" ry="18"/>
<text text-anchor="middle" x="911" y="-202.874" font-family="Times,serif" font-size="14.00">Susp_ind</text>
</a>
</g>
</g>
<!-- Suspension_Suspension_merid -->
<g id="node3" class="node"><title>Suspension_Suspension_merid</title>
<g id="a_node3"><a xlink:href="Suspension.html#Suspension.merid" xlink:title="merid">
<ellipse fill="#facdef" stroke="black" cx="706" cy="-71.574" rx="31.6951" ry="18"/>
<text text-anchor="middle" x="706" y="-67.874" font-family="Times,serif" font-size="14.00">merid</text>
</a>
</g>
</g>
<!-- Suspension_Suspension_Susp_ind&#45;&gt;Suspension_Suspension_merid -->
<g id="edge1" class="edge"><title>Suspension_Suspension_Susp_ind&#45;&gt;Suspension_Suspension_merid</title>
<path fill="none" stroke="black" d="M887.484,-191.088C849.859,-166.311 776.209,-117.809 735.246,-90.8338"/>
<polygon fill="black" stroke="black" points="737.061,-87.8383 726.785,-85.2615 733.211,-93.6845 737.061,-87.8383"/>
</g>
<!-- Suspension_Suspension_South -->
<g id="node4" class="node"><title>Suspension_Suspension_South</title>
<g id="a_node4"><a xlink:href="Suspension.html#Suspension.South" xlink:title="South">
<ellipse fill="#7faaff" stroke="black" cx="787" cy="-71.574" rx="31.3957" ry="18"/>
<text text-anchor="middle" x="787" y="-67.874" font-family="Times,serif" font-size="14.00">South</text>
</a>
</g>
</g>
<!-- Suspension_Suspension_Susp_ind&#45;&gt;Suspension_Suspension_South -->
<g id="edge2" class="edge"><title>Suspension_Suspension_Susp_ind&#45;&gt;Suspension_Suspension_South</title>
<path fill="none" stroke="black" d="M895.295,-189.476C873.349,-165.583 833.423,-122.115 808.663,-95.1582"/>
<polygon fill="black" stroke="black" points="811.148,-92.6898 801.805,-87.6927 805.992,-97.4251 811.148,-92.6898"/>
</g>
<!-- Suspension_Suspension_North -->
<g id="node5" class="node"><title>Suspension_Suspension_North</title>
<g id="a_node5"><a xlink:href="Suspension.html#Suspension.North" xlink:title="North">
<ellipse fill="#7faaff" stroke="black" cx="867" cy="-71.574" rx="31.3957" ry="18"/>
<text text-anchor="middle" x="867" y="-67.874" font-family="Times,serif" font-size="14.00">North</text>
</a>
</g>
</g>
<!-- Suspension_Suspension_Susp_ind&#45;&gt;Suspension_Suspension_North -->
<g id="edge3" class="edge"><title>Suspension_Suspension_Susp_ind&#45;&gt;Suspension_Suspension_North</title>
<path fill="none" stroke="black" d="M905.157,-188.647C897.695,-165.751 884.705,-125.897 875.981,-99.1302"/>
<polygon fill="black" stroke="black" points="879.294,-97.9983 872.867,-89.5751 872.638,-100.167 879.294,-97.9983"/>
</g>
<!-- Suspension_Suspension_Susp -->
<g id="node6" class="node"><title>Suspension_Suspension_Susp</title>
<g id="a_node6"><a xlink:href="Suspension.html#Suspension.Susp" xlink:title="Susp">
<ellipse fill="#e2cdfa" stroke="black" cx="944" cy="-71.574" rx="27.8951" ry="18"/>
<text text-anchor="middle" x="944" y="-67.874" font-family="Times,serif" font-size="14.00">Susp</text>
</a>
</g>
</g>
<!-- Suspension_Suspension_Susp_ind&#45;&gt;Suspension_Suspension_Susp -->
<g id="edge4" class="edge"><title>Suspension_Suspension_Susp_ind&#45;&gt;Suspension_Suspension_Susp</title>
<path fill="none" stroke="black" d="M915.382,-188.647C920.954,-165.852 930.635,-126.248 937.177,-99.4847"/>
<polygon fill="black" stroke="black" points="940.625,-100.12 939.6,-89.5751 933.825,-98.458 940.625,-100.12"/>
</g>
<!-- Suspension_Book_Loop_Susp_Adjunction_loop_susp_adjoint -->
<g id="node7" class="node"><title>Suspension_Book_Loop_Susp_Adjunction_loop_susp_adjoint</title>
<g id="a_node7"><a xlink:href="Suspension.html#Book_Loop_Susp_Adjunction.loop_susp_adjoint" xlink:title="loop_susp_adjoint">
<ellipse fill="#f070d1" stroke="black" cx="1553" cy="-777.574" rx="75.297" ry="18"/>
<ellipse fill="none" stroke="black" cx="1553" cy="-777.574" rx="79.2919" ry="22"/>
<ellipse fill="none" stroke="black" cx="1553" cy="-777.574" rx="83.2868" ry="26"/>
<text text-anchor="middle" x="1553" y="-773.874" font-family="Times,serif" font-size="14.00">loop_susp_adjoint</text>
</a>
</g>
</g>
<!-- Suspension_psusp -->
<g id="node19" class="node"><title>Suspension_psusp</title>
<g id="a_node19"><a xlink:href="Suspension.html#psusp" xlink:title="psusp">
<ellipse fill="#f070d1" stroke="black" cx="1439" cy="-356.574" rx="30.5947" ry="18"/>
<text text-anchor="middle" x="1439" y="-352.874" font-family="Times,serif" font-size="14.00">psusp</text>
</a>
</g>
</g>
<!-- Suspension_Book_Loop_Susp_Adjunction_loop_susp_adjoint&#45;&gt;Suspension_psusp -->
<g id="edge5" class="edge"><title>Suspension_Book_Loop_Susp_Adjunction_loop_susp_adjoint&#45;&gt;Suspension_psusp</title>
<path fill="none" stroke="black" d="M1627.79,-765.806C1733.32,-745.59 1907.36,-696.913 1853,-601.574 1770.11,-456.212 1563.38,-388.314 1477.43,-365.664"/>
<polygon fill="black" stroke="black" points="1478.12,-362.228 1467.56,-363.125 1476.37,-369.007 1478.12,-362.228"/>
</g>
<!-- Suspension_equiv_Susp_rec -->
<g id="node25" class="node"><title>Suspension_equiv_Susp_rec</title>
<g id="a_node25"><a xlink:href="Suspension.html#equiv_Susp_rec" xlink:title="equiv_Susp_rec">
<ellipse fill="#f070d1" stroke="black" cx="271" cy="-627.574" rx="66.8882" ry="18"/>
<text text-anchor="middle" x="271" y="-623.874" font-family="Times,serif" font-size="14.00">equiv_Susp_rec</text>
</a>
</g>
</g>
<!-- Suspension_Book_Loop_Susp_Adjunction_loop_susp_adjoint&#45;&gt;Suspension_equiv_Susp_rec -->
<g id="edge6" class="edge"><title>Suspension_Book_Loop_Susp_Adjunction_loop_susp_adjoint&#45;&gt;Suspension_equiv_Susp_rec</title>
<path fill="none" stroke="black" d="M1505.48,-756.118C1492.87,-751.232 1479.12,-746.595 1466,-743.574 979.794,-631.574 835.498,-755.113 347,-653.574 337.576,-651.615 327.709,-648.822 318.323,-645.788"/>
<polygon fill="black" stroke="black" points="319.348,-642.44 308.754,-642.563 317.113,-649.074 319.348,-642.44"/>
</g>
<!-- Suspension_loop_susp_adjoint_nat_l -->
<g id="node8" class="node"><title>Suspension_loop_susp_adjoint_nat_l</title>
<g id="a_node8"><a xlink:href="Suspension.html#loop_susp_adjoint_nat_l" xlink:title="loop_susp_adjoint_nat_l">
<ellipse fill="#f070d1" stroke="black" cx="673" cy="-777.574" rx="96.6951" ry="18"/>
<ellipse fill="none" stroke="black" cx="673" cy="-777.574" rx="100.689" ry="22"/>
<ellipse fill="none" stroke="black" cx="673" cy="-777.574" rx="104.683" ry="26"/>
<text text-anchor="middle" x="673" y="-773.874" font-family="Times,serif" font-size="14.00">loop_susp_adjoint_nat_l</text>
</a>
</g>
</g>
<!-- Suspension_loop_susp_counit -->
<g id="node14" class="node"><title>Suspension_loop_susp_counit</title>
<g id="a_node14"><a xlink:href="Suspension.html#loop_susp_counit" xlink:title="loop_susp_counit">
<ellipse fill="#f070d1" stroke="black" cx="1092" cy="-491.574" rx="72.5877" ry="18"/>
<text text-anchor="middle" x="1092" y="-487.874" font-family="Times,serif" font-size="14.00">loop_susp_counit</text>
</a>
</g>
</g>
<!-- Suspension_loop_susp_adjoint_nat_l&#45;&gt;Suspension_loop_susp_counit -->
<g id="edge7" class="edge"><title>Suspension_loop_susp_adjoint_nat_l&#45;&gt;Suspension_loop_susp_counit</title>
<path fill="none" stroke="black" d="M653.248,-751.758C627.507,-714.741 589.709,-646.144 625,-601.574 649.644,-570.451 896.565,-524.68 1021.04,-503.337"/>
<polygon fill="black" stroke="black" points="1021.97,-506.729 1031.24,-501.596 1020.79,-499.829 1021.97,-506.729"/>
</g>
<!-- Suspension_psusp_functor_compose -->
<g id="node17" class="node"><title>Suspension_psusp_functor_compose</title>
<g id="a_node17"><a xlink:href="Suspension.html#psusp_functor_compose" xlink:title="psusp_functor_compose">
<ellipse fill="#facdef" stroke="black" cx="731" cy="-627.574" rx="96.6831" ry="18"/>
<text text-anchor="middle" x="731" y="-623.874" font-family="Times,serif" font-size="14.00">psusp_functor_compose</text>
</a>
</g>
</g>
<!-- Suspension_loop_susp_adjoint_nat_l&#45;&gt;Suspension_psusp_functor_compose -->
<g id="edge8" class="edge"><title>Suspension_loop_susp_adjoint_nat_l&#45;&gt;Suspension_psusp_functor_compose</title>
<path fill="none" stroke="black" d="M683.103,-751.446C693.509,-724.534 709.665,-682.751 720.289,-655.275"/>
<polygon fill="black" stroke="black" points="723.59,-656.444 723.932,-645.854 717.061,-653.919 723.59,-656.444"/>
</g>
<!-- Suspension_loop_susp_adjoint_nat_r -->
<g id="node9" class="node"><title>Suspension_loop_susp_adjoint_nat_r</title>
<g id="a_node9"><a xlink:href="Suspension.html#loop_susp_adjoint_nat_r" xlink:title="loop_susp_adjoint_nat_r">
<ellipse fill="#f070d1" stroke="black" cx="1739" cy="-627.574" rx="97.4834" ry="18"/>
<ellipse fill="none" stroke="black" cx="1739" cy="-627.574" rx="101.483" ry="22"/>
<ellipse fill="none" stroke="black" cx="1739" cy="-627.574" rx="105.483" ry="26"/>
<text text-anchor="middle" x="1739" y="-623.874" font-family="Times,serif" font-size="14.00">loop_susp_adjoint_nat_r</text>
</a>
</g>
</g>
<!-- Suspension_loop_susp_unit -->
<g id="node16" class="node"><title>Suspension_loop_susp_unit</title>
<g id="a_node16"><a xlink:href="Suspension.html#loop_susp_unit" xlink:title="loop_susp_unit">
<ellipse fill="#f070d1" stroke="black" cx="1386" cy="-491.574" rx="64.189" ry="18"/>
<text text-anchor="middle" x="1386" y="-487.874" font-family="Times,serif" font-size="14.00">loop_susp_unit</text>
</a>
</g>
</g>
<!-- Suspension_loop_susp_adjoint_nat_r&#45;&gt;Suspension_loop_susp_unit -->
<g id="edge9" class="edge"><title>Suspension_loop_susp_adjoint_nat_r&#45;&gt;Suspension_loop_susp_unit</title>
<path fill="none" stroke="black" d="M1681.89,-605.572C1612.85,-578.972 1497.92,-534.692 1433.5,-509.873"/>
<polygon fill="black" stroke="black" points="1434.58,-506.539 1423.99,-506.21 1432.06,-513.071 1434.58,-506.539"/>
</g>
<!-- Suspension_loop_susp_adjoint -->
<g id="node10" class="node"><title>Suspension_loop_susp_adjoint</title>
<g id="a_node10"><a xlink:href="Suspension.html#loop_susp_adjoint" xlink:title="loop_susp_adjoint">
<ellipse fill="#f070d1" stroke="black" cx="1148" cy="-777.574" rx="75.297" ry="18"/>
<ellipse fill="none" stroke="black" cx="1148" cy="-777.574" rx="79.2919" ry="22"/>
<ellipse fill="none" stroke="black" cx="1148" cy="-777.574" rx="83.2868" ry="26"/>
<text text-anchor="middle" x="1148" y="-773.874" font-family="Times,serif" font-size="14.00">loop_susp_adjoint</text>
</a>
</g>
</g>
<!-- Suspension_loop_susp_triangle2 -->
<g id="node11" class="node"><title>Suspension_loop_susp_triangle2</title>
<g id="a_node11"><a xlink:href="Suspension.html#loop_susp_triangle2" xlink:title="loop_susp_triangle2">
<ellipse fill="#facdef" stroke="black" cx="1330" cy="-627.574" rx="81.7856" ry="18"/>
<text text-anchor="middle" x="1330" y="-623.874" font-family="Times,serif" font-size="14.00">loop_susp_triangle2</text>
</a>
</g>
</g>
<!-- Suspension_loop_susp_adjoint&#45;&gt;Suspension_loop_susp_triangle2 -->
<g id="edge10" class="edge"><title>Suspension_loop_susp_adjoint&#45;&gt;Suspension_loop_susp_triangle2</title>
<path fill="none" stroke="black" d="M1177.65,-753.14C1211.63,-725.13 1266.99,-679.507 1300.79,-651.648"/>
<polygon fill="black" stroke="black" points="1303.4,-654.031 1308.89,-644.97 1298.95,-648.629 1303.4,-654.031"/>
</g>
<!-- Suspension_loop_susp_triangle1 -->
<g id="node12" class="node"><title>Suspension_loop_susp_triangle1</title>
<g id="a_node12"><a xlink:href="Suspension.html#loop_susp_triangle1" xlink:title="loop_susp_triangle1">
<ellipse fill="#facdef" stroke="black" cx="1148" cy="-627.574" rx="81.7856" ry="18"/>
<text text-anchor="middle" x="1148" y="-623.874" font-family="Times,serif" font-size="14.00">loop_susp_triangle1</text>
</a>
</g>
</g>
<!-- Suspension_loop_susp_adjoint&#45;&gt;Suspension_loop_susp_triangle1 -->
<g id="edge11" class="edge"><title>Suspension_loop_susp_adjoint&#45;&gt;Suspension_loop_susp_triangle1</title>
<path fill="none" stroke="black" d="M1148,-751.446C1148,-724.77 1148,-683.483 1148,-656.002"/>
<polygon fill="black" stroke="black" points="1151.5,-655.854 1148,-645.854 1144.5,-655.854 1151.5,-655.854"/>
</g>
<!-- Suspension_loop_susp_counit_natural -->
<g id="node13" class="node"><title>Suspension_loop_susp_counit_natural</title>
<g id="a_node13"><a xlink:href="Suspension.html#loop_susp_counit_natural" xlink:title="loop_susp_counit_natural">
<ellipse fill="#facdef" stroke="black" cx="947" cy="-627.574" rx="101.282" ry="18"/>
<text text-anchor="middle" x="947" y="-623.874" font-family="Times,serif" font-size="14.00">loop_susp_counit_natural</text>
</a>
</g>
</g>
<!-- Suspension_loop_susp_adjoint&#45;&gt;Suspension_loop_susp_counit_natural -->
<g id="edge12" class="edge"><title>Suspension_loop_susp_adjoint&#45;&gt;Suspension_loop_susp_counit_natural</title>
<path fill="none" stroke="black" d="M1115.71,-753.474C1078.05,-725.372 1016.2,-679.217 978.771,-651.284"/>
<polygon fill="black" stroke="black" points="980.826,-648.45 970.718,-645.274 976.639,-654.06 980.826,-648.45"/>
</g>
<!-- Suspension_loop_susp_unit_natural -->
<g id="node15" class="node"><title>Suspension_loop_susp_unit_natural</title>
<g id="a_node15"><a xlink:href="Suspension.html#loop_susp_unit_natural" xlink:title="loop_susp_unit_natural">
<ellipse fill="#facdef" stroke="black" cx="1523" cy="-627.574" rx="92.8835" ry="18"/>
<text text-anchor="middle" x="1523" y="-623.874" font-family="Times,serif" font-size="14.00">loop_susp_unit_natural</text>
</a>
</g>
</g>
<!-- Suspension_loop_susp_adjoint&#45;&gt;Suspension_loop_susp_unit_natural -->
<g id="edge13" class="edge"><title>Suspension_loop_susp_adjoint&#45;&gt;Suspension_loop_susp_unit_natural</title>
<path fill="none" stroke="black" d="M1199.36,-757.032C1271.29,-728.256 1401.24,-676.276 1472.64,-647.717"/>
<polygon fill="black" stroke="black" points="1474.33,-650.811 1482.32,-643.848 1471.73,-644.312 1474.33,-650.811"/>
</g>
<!-- Suspension_loop_susp_adjoint&#45;&gt;Suspension_psusp_functor_compose -->
<g id="edge14" class="edge"><title>Suspension_loop_susp_adjoint&#45;&gt;Suspension_psusp_functor_compose</title>
<path fill="none" stroke="black" d="M1093.06,-757.81C1012.99,-729.01 865.143,-675.827 785.392,-647.14"/>
<polygon fill="black" stroke="black" points="786.139,-643.689 775.544,-643.597 783.769,-650.275 786.139,-643.689"/>
</g>
<!-- Suspension_loop_susp_triangle2&#45;&gt;Suspension_loop_susp_counit -->
<g id="edge15" class="edge"><title>Suspension_loop_susp_triangle2&#45;&gt;Suspension_loop_susp_counit</title>
<path fill="none" stroke="black" d="M1300.34,-610.624C1257.14,-585.941 1176.93,-540.107 1129.63,-513.079"/>
<polygon fill="black" stroke="black" points="1131.34,-510.02 1120.92,-508.098 1127.86,-516.098 1131.34,-510.02"/>
</g>
<!-- Suspension_loop_susp_triangle2&#45;&gt;Suspension_loop_susp_unit -->
<g id="edge16" class="edge"><title>Suspension_loop_susp_triangle2&#45;&gt;Suspension_loop_susp_unit</title>
<path fill="none" stroke="black" d="M1337.44,-609.514C1346.98,-586.347 1363.61,-545.945 1374.72,-518.979"/>
<polygon fill="black" stroke="black" points="1377.96,-520.288 1378.53,-509.708 1371.49,-517.623 1377.96,-520.288"/>
</g>
<!-- Suspension_psusp_functor -->
<g id="node18" class="node"><title>Suspension_psusp_functor</title>
<g id="a_node18"><a xlink:href="Suspension.html#psusp_functor" xlink:title="psusp_functor">
<ellipse fill="#f070d1" stroke="black" cx="1243" cy="-491.574" rx="60.3893" ry="18"/>
<text text-anchor="middle" x="1243" y="-487.874" font-family="Times,serif" font-size="14.00">psusp_functor</text>
</a>
</g>
</g>
<!-- Suspension_loop_susp_triangle2&#45;&gt;Suspension_psusp_functor -->
<g id="edge17" class="edge"><title>Suspension_loop_susp_triangle2&#45;&gt;Suspension_psusp_functor</title>
<path fill="none" stroke="black" d="M1318.45,-609.514C1303.41,-586.014 1277.04,-544.78 1259.79,-517.824"/>
<polygon fill="black" stroke="black" points="1262.66,-515.814 1254.32,-509.276 1256.76,-519.586 1262.66,-515.814"/>
</g>
<!-- Suspension_Susp_rec_beta_merid -->
<g id="node30" class="node"><title>Suspension_Susp_rec_beta_merid</title>
<g id="a_node30"><a xlink:href="Suspension.html#Susp_rec_beta_merid" xlink:title="Susp_rec_beta_merid">
<ellipse fill="#f070d1" stroke="black" cx="851" cy="-491.574" rx="87.1846" ry="18"/>
<text text-anchor="middle" x="851" y="-487.874" font-family="Times,serif" font-size="14.00">Susp_rec_beta_merid</text>
</a>
</g>
</g>
<!-- Suspension_loop_susp_triangle2&#45;&gt;Suspension_Susp_rec_beta_merid -->
<g id="edge18" class="edge"><title>Suspension_loop_susp_triangle2&#45;&gt;Suspension_Susp_rec_beta_merid</title>
<path fill="none" stroke="black" d="M1279.94,-613.251C1266.64,-609.45 1252.27,-605.352 1239,-601.574 1123.64,-568.741 988.927,-530.593 912.42,-508.945"/>
<polygon fill="black" stroke="black" points="913.049,-505.486 902.474,-506.131 911.144,-512.221 913.049,-505.486"/>
</g>
<!-- Suspension_loop_susp_triangle1&#45;&gt;Suspension_loop_susp_counit -->
<g id="edge19" class="edge"><title>Suspension_loop_susp_triangle1&#45;&gt;Suspension_loop_susp_counit</title>
<path fill="none" stroke="black" d="M1140.56,-609.514C1131.02,-586.347 1114.39,-545.945 1103.28,-518.979"/>
<polygon fill="black" stroke="black" points="1106.51,-517.623 1099.47,-509.708 1100.04,-520.288 1106.51,-517.623"/>
</g>
<!-- Suspension_loop_susp_triangle1&#45;&gt;Suspension_loop_susp_unit -->
<g id="edge20" class="edge"><title>Suspension_loop_susp_triangle1&#45;&gt;Suspension_loop_susp_unit</title>
<path fill="none" stroke="black" d="M1177.66,-610.624C1220.98,-585.874 1301.5,-539.858 1348.75,-512.859"/>
<polygon fill="black" stroke="black" points="1350.51,-515.887 1357.45,-507.887 1347.03,-509.81 1350.51,-515.887"/>
</g>
<!-- Suspension_loop_susp_triangle1&#45;&gt;Suspension_Susp_rec_beta_merid -->
<g id="edge21" class="edge"><title>Suspension_loop_susp_triangle1&#45;&gt;Suspension_Susp_rec_beta_merid</title>
<path fill="none" stroke="black" d="M1112.47,-611.304C1058.39,-586.542 955.474,-539.414 896.164,-512.255"/>
<polygon fill="black" stroke="black" points="897.584,-509.056 887.034,-508.075 894.669,-515.42 897.584,-509.056"/>
</g>
<!-- Suspension_loop_susp_counit_natural&#45;&gt;Suspension_loop_susp_counit -->
<g id="edge22" class="edge"><title>Suspension_loop_susp_counit_natural&#45;&gt;Suspension_loop_susp_counit</title>
<path fill="none" stroke="black" d="M965.956,-609.794C991.357,-585.97 1036.57,-543.563 1065.38,-516.543"/>
<polygon fill="black" stroke="black" points="1068.14,-518.752 1073.04,-509.358 1063.35,-513.646 1068.14,-518.752"/>
</g>
<!-- Suspension_loop_susp_counit_natural&#45;&gt;Suspension_psusp_functor -->
<g id="edge23" class="edge"><title>Suspension_loop_susp_counit_natural&#45;&gt;Suspension_psusp_functor</title>
<path fill="none" stroke="black" d="M983.592,-610.761C1038.54,-585.516 1142.11,-537.93 1200.38,-511.154"/>
<polygon fill="black" stroke="black" points="1202.05,-514.239 1209.68,-506.884 1199.13,-507.878 1202.05,-514.239"/>
</g>
<!-- Suspension_loop_susp_counit_natural&#45;&gt;Suspension_Susp_rec_beta_merid -->
<g id="edge24" class="edge"><title>Suspension_loop_susp_counit_natural&#45;&gt;Suspension_Susp_rec_beta_merid</title>
<path fill="none" stroke="black" d="M934.252,-609.514C917.684,-586.043 888.627,-544.879 869.598,-517.921"/>
<polygon fill="black" stroke="black" points="872.427,-515.86 863.801,-509.708 866.708,-519.897 872.427,-515.86"/>
</g>
<!-- Suspension_loop_susp_counit&#45;&gt;Suspension_psusp -->
<g id="edge25" class="edge"><title>Suspension_loop_susp_counit&#45;&gt;Suspension_psusp</title>
<path fill="none" stroke="black" d="M1131.13,-476.35C1199.24,-449.852 1338.54,-395.659 1403.8,-370.27"/>
<polygon fill="black" stroke="black" points="1405.19,-373.483 1413.24,-366.595 1402.65,-366.959 1405.19,-373.483"/>
</g>
<!-- Suspension_Susp_rec -->
<g id="node31" class="node"><title>Suspension_Susp_rec</title>
<g id="a_node31"><a xlink:href="Suspension.html#Susp_rec" xlink:title="Susp_rec">
<ellipse fill="#f070d1" stroke="black" cx="1092" cy="-356.574" rx="42.7926" ry="18"/>
<text text-anchor="middle" x="1092" y="-352.874" font-family="Times,serif" font-size="14.00">Susp_rec</text>
</a>
</g>
</g>
<!-- Suspension_loop_susp_counit&#45;&gt;Suspension_Susp_rec -->
<g id="edge26" class="edge"><title>Suspension_loop_susp_counit&#45;&gt;Suspension_Susp_rec</title>
<path fill="none" stroke="black" d="M1092,-473.367C1092,-450.722 1092,-411.801 1092,-385.161"/>
<polygon fill="black" stroke="black" points="1095.5,-384.923 1092,-374.923 1088.5,-384.923 1095.5,-384.923"/>
</g>
<!-- Suspension_loop_susp_unit_natural&#45;&gt;Suspension_loop_susp_unit -->
<g id="edge27" class="edge"><title>Suspension_loop_susp_unit_natural&#45;&gt;Suspension_loop_susp_unit</title>
<path fill="none" stroke="black" d="M1505.09,-609.794C1480.96,-585.838 1437.9,-543.094 1410.7,-516.096"/>
<polygon fill="black" stroke="black" points="1413.04,-513.489 1403.48,-508.928 1408.11,-518.457 1413.04,-513.489"/>
</g>
<!-- Suspension_loop_susp_unit_natural&#45;&gt;Suspension_psusp_functor -->
<g id="edge28" class="edge"><title>Suspension_loop_susp_unit_natural&#45;&gt;Suspension_psusp_functor</title>
<path fill="none" stroke="black" d="M1488.39,-610.761C1436.66,-585.635 1339.36,-538.379 1284.1,-511.535"/>
<polygon fill="black" stroke="black" points="1285.47,-508.31 1274.94,-507.09 1282.41,-514.607 1285.47,-508.31"/>
</g>
<!-- Suspension_loop_susp_unit_natural&#45;&gt;Suspension_Susp_rec_beta_merid -->
<g id="edge29" class="edge"><title>Suspension_loop_susp_unit_natural&#45;&gt;Suspension_Susp_rec_beta_merid</title>
<path fill="none" stroke="black" d="M1468.35,-613.012C1453.07,-609.113 1436.43,-605.025 1421,-601.574 1245.51,-562.31 1037.75,-524.342 927.95,-504.937"/>
<polygon fill="black" stroke="black" points="928.413,-501.465 917.957,-503.175 927.197,-508.359 928.413,-501.465"/>
</g>
<!-- Suspension_loop_susp_unit&#45;&gt;Suspension_Suspension_merid -->
<g id="edge30" class="edge"><title>Suspension_loop_susp_unit&#45;&gt;Suspension_Suspension_merid</title>
<path fill="none" stroke="black" d="M1361.26,-474.602C1333.9,-454.9 1289.76,-420.255 1260,-382.574 1220.58,-332.652 1215.11,-315.579 1194,-255.574 1182.72,-223.508 1202.91,-204.733 1179,-180.574 1040.97,-41.1231 933.822,-149.552 747,-89.574 744.604,-88.8047 742.158,-87.9421 739.713,-87.022"/>
<polygon fill="black" stroke="black" points="740.981,-83.7596 730.398,-83.2651 738.363,-90.2515 740.981,-83.7596"/>
</g>
<!-- Suspension_loop_susp_unit&#45;&gt;Suspension_Suspension_South -->
<g id="edge31" class="edge"><title>Suspension_loop_susp_unit&#45;&gt;Suspension_Suspension_South</title>
<path fill="none" stroke="black" d="M1370.6,-473.802C1338.49,-435.988 1263.67,-343.786 1219,-255.574 1203.13,-224.228 1219.8,-204.423 1194,-180.574 1070.59,-66.5108 985.821,-144.499 827,-89.574 824.895,-88.846 822.749,-88.0494 820.598,-87.2093"/>
<polygon fill="black" stroke="black" points="821.834,-83.9328 811.257,-83.3261 819.147,-90.3966 821.834,-83.9328"/>
</g>
<!-- Suspension_loop_susp_unit&#45;&gt;Suspension_psusp -->
<g id="edge32" class="edge"><title>Suspension_loop_susp_unit&#45;&gt;Suspension_psusp</title>
<path fill="none" stroke="black" d="M1393.04,-473.647C1402.08,-450.624 1417.85,-410.453 1428.36,-383.685"/>
<polygon fill="black" stroke="black" points="1431.7,-384.733 1432.1,-374.146 1425.19,-382.175 1431.7,-384.733"/>
</g>
<!-- Suspension_psusp_functor_compose&#45;&gt;Suspension_psusp_functor -->
<g id="edge33" class="edge"><title>Suspension_psusp_functor_compose&#45;&gt;Suspension_psusp_functor</title>
<path fill="none" stroke="black" d="M786.768,-612.761C885.493,-586.537 1089.85,-532.255 1188.01,-506.18"/>
<polygon fill="black" stroke="black" points="1188.98,-509.546 1197.74,-503.596 1187.18,-502.78 1188.98,-509.546"/>
</g>
<!-- Suspension_psusp_functor_compose&#45;&gt;Suspension_Susp_rec_beta_merid -->
<g id="edge34" class="edge"><title>Suspension_psusp_functor_compose&#45;&gt;Suspension_Susp_rec_beta_merid</title>
<path fill="none" stroke="black" d="M746.688,-609.794C767.62,-586.072 804.808,-543.925 828.662,-516.89"/>
<polygon fill="black" stroke="black" points="831.316,-519.172 835.308,-509.358 826.068,-514.541 831.316,-519.172"/>
</g>
<!-- Suspension_psusp_functor&#45;&gt;Suspension_psusp -->
<g id="edge35" class="edge"><title>Suspension_psusp_functor&#45;&gt;Suspension_psusp</title>
<path fill="none" stroke="black" d="M1267.03,-475.02C1303.18,-450.121 1371.44,-403.108 1410.2,-376.41"/>
<polygon fill="black" stroke="black" points="1412.67,-378.958 1418.92,-370.403 1408.7,-373.193 1412.67,-378.958"/>
</g>
<!-- Suspension_psusp_functor&#45;&gt;Suspension_Susp_rec -->
<g id="edge36" class="edge"><title>Suspension_psusp_functor&#45;&gt;Suspension_Susp_rec</title>
<path fill="none" stroke="black" d="M1223.88,-474.476C1197.07,-450.508 1148.23,-406.842 1118.1,-379.905"/>
<polygon fill="black" stroke="black" points="1120.28,-377.167 1110.5,-373.111 1115.62,-382.385 1120.28,-377.167"/>
</g>
<!-- Suspension_psusp&#45;&gt;Suspension_Suspension_Susp -->
<g id="edge37" class="edge"><title>Suspension_psusp&#45;&gt;Suspension_Suspension_Susp</title>
<path fill="none" stroke="black" d="M1463.26,-345.529C1493.56,-330.229 1543.95,-299.425 1565,-255.574 1579.43,-225.524 1586.44,-206.1 1565,-180.574 1489.59,-90.775 1105.42,-74.9377 982.137,-72.1604"/>
<polygon fill="black" stroke="black" points="982.107,-68.6592 972.036,-71.9494 981.961,-75.6576 982.107,-68.6592"/>
</g>
<!-- Suspension_ispointed_susp -->
<g id="node22" class="node"><title>Suspension_ispointed_susp</title>
<g id="a_node22"><a xlink:href="Suspension.html#ispointed_susp" xlink:title="ispointed_susp">
<ellipse fill="#f070d1" stroke="black" cx="1493" cy="-206.574" rx="63.0888" ry="18"/>
<text text-anchor="middle" x="1493" y="-202.874" font-family="Times,serif" font-size="14.00">ispointed_susp</text>
</a>
</g>
</g>
<!-- Suspension_psusp&#45;&gt;Suspension_ispointed_susp -->
<g id="edge38" class="edge"><title>Suspension_psusp&#45;&gt;Suspension_ispointed_susp</title>
<path fill="none" stroke="black" d="M1445.41,-338.778C1454.69,-312.981 1471.98,-264.952 1482.97,-234.435"/>
<polygon fill="black" stroke="black" points="1486.34,-235.409 1486.43,-224.815 1479.75,-233.038 1486.34,-235.409"/>
</g>
<!-- Suspension_ispointed_path_susp_ -->
<g id="node20" class="node"><title>Suspension_ispointed_path_susp_</title>
<g id="a_node20"><a xlink:href="Suspension.html#ispointed_path_susp'" xlink:title="ispointed_path_susp&#39;">
<ellipse fill="#f070d1" stroke="black" cx="1320" cy="-206.574" rx="83.6991" ry="18"/>
<ellipse fill="none" stroke="black" cx="1320" cy="-206.574" rx="87.6922" ry="22"/>
<ellipse fill="none" stroke="black" cx="1320" cy="-206.574" rx="91.6854" ry="26"/>
<text text-anchor="middle" x="1320" y="-202.874" font-family="Times,serif" font-size="14.00">ispointed_path_susp&#39;</text>
</a>
</g>
</g>
<!-- Suspension_ispointed_path_susp_&#45;&gt;Suspension_Suspension_merid -->
<g id="edge39" class="edge"><title>Suspension_ispointed_path_susp_&#45;&gt;Suspension_Suspension_merid</title>
<path fill="none" stroke="black" d="M1245.72,-191.212C1228.73,-187.707 1210.74,-184.005 1194,-180.574 995.387,-139.866 940.246,-150.893 747,-89.574 744.601,-88.8128 742.153,-87.9563 739.707,-87.0406"/>
<polygon fill="black" stroke="black" points="740.973,-83.7772 730.389,-83.2933 738.361,-90.2717 740.973,-83.7772"/>
</g>
<!-- Suspension_ispointed_path_susp_&#45;&gt;Suspension_Suspension_South -->
<g id="edge40" class="edge"><title>Suspension_ispointed_path_susp_&#45;&gt;Suspension_Suspension_South</title>
<path fill="none" stroke="black" d="M1250.75,-189.486C1238.51,-186.495 1225.88,-183.429 1214,-180.574 1042.2,-139.305 994.334,-146.311 827,-89.574 824.891,-88.8588 822.741,-88.072 820.588,-87.2393"/>
<polygon fill="black" stroke="black" points="821.819,-83.9609 811.24,-83.3748 819.144,-90.4299 821.819,-83.9609"/>
</g>
<!-- Suspension_ispointed_path_susp_&#45;&gt;Suspension_Suspension_North -->
<g id="edge41" class="edge"><title>Suspension_ispointed_path_susp_&#45;&gt;Suspension_Suspension_North</title>
<path fill="none" stroke="black" d="M1252.81,-188.827C1153.08,-162.269 970.805,-112.825 907,-89.574 904.907,-88.8114 902.77,-87.988 900.627,-87.1278"/>
<polygon fill="black" stroke="black" points="901.878,-83.8567 891.304,-83.194 899.157,-90.3062 901.878,-83.8567"/>
</g>
<!-- Suspension_ispointed_path_susp_&#45;&gt;Suspension_Suspension_Susp -->
<g id="edge42" class="edge"><title>Suspension_ispointed_path_susp_&#45;&gt;Suspension_Suspension_Susp</title>
<path fill="none" stroke="black" d="M1262.89,-186.07C1183.72,-157.644 1043.06,-107.142 978.336,-83.902"/>
<polygon fill="black" stroke="black" points="979.215,-80.499 968.621,-80.4138 976.85,-87.0872 979.215,-80.499"/>
</g>
<!-- Suspension_ispointed_path_susp -->
<g id="node21" class="node"><title>Suspension_ispointed_path_susp</title>
<g id="a_node21"><a xlink:href="Suspension.html#ispointed_path_susp" xlink:title="ispointed_path_susp">
<ellipse fill="#f070d1" stroke="black" cx="1079" cy="-206.574" rx="82.5816" ry="18"/>
<ellipse fill="none" stroke="black" cx="1079" cy="-206.574" rx="86.5835" ry="22"/>
<ellipse fill="none" stroke="black" cx="1079" cy="-206.574" rx="90.5854" ry="26"/>
<text text-anchor="middle" x="1079" y="-202.874" font-family="Times,serif" font-size="14.00">ispointed_path_susp</text>
</a>
</g>
</g>
<!-- Suspension_ispointed_path_susp&#45;&gt;Suspension_Suspension_merid -->
<g id="edge43" class="edge"><title>Suspension_ispointed_path_susp&#45;&gt;Suspension_Suspension_merid</title>
<path fill="none" stroke="black" d="M1019.13,-186.98C952.265,-164.749 841.067,-126.738 747,-89.574 744.804,-88.7064 742.552,-87.7912 740.288,-86.852"/>
<polygon fill="black" stroke="black" points="741.599,-83.6066 731.027,-82.9161 738.861,-90.0489 741.599,-83.6066"/>
</g>
<!-- Suspension_ispointed_susp&#45;&gt;Suspension_Suspension_North -->
<g id="edge44" class="edge"><title>Suspension_ispointed_susp&#45;&gt;Suspension_Suspension_North</title>
<path fill="none" stroke="black" d="M1456.02,-191.847C1444.89,-187.789 1432.56,-183.659 1421,-180.574 1196.85,-120.734 1128.7,-157.921 907,-89.574 904.728,-88.8736 902.416,-88.0764 900.106,-87.2163"/>
<polygon fill="black" stroke="black" points="901.322,-83.9327 890.74,-83.4141 898.689,-90.4186 901.322,-83.9327"/>
</g>
<!-- Suspension_nullhomot_paths_from_susp -->
<g id="node23" class="node"><title>Suspension_nullhomot_paths_from_susp</title>
<g id="a_node23"><a xlink:href="Suspension.html#nullhomot_paths_from_susp" xlink:title="nullhomot_paths_from_susp">
<ellipse fill="#f070d1" stroke="black" cx="476" cy="-627.574" rx="112.384" ry="18"/>
<ellipse fill="none" stroke="black" cx="476" cy="-627.574" rx="116.382" ry="22"/>
<ellipse fill="none" stroke="black" cx="476" cy="-627.574" rx="120.38" ry="26"/>
<text text-anchor="middle" x="476" y="-623.874" font-family="Times,serif" font-size="14.00">nullhomot_paths_from_susp</text>
</a>
</g>
</g>
<!-- Suspension_nullhomot_paths_from_susp&#45;&gt;Suspension_Susp_rec_beta_merid -->
<g id="edge45" class="edge"><title>Suspension_nullhomot_paths_from_susp&#45;&gt;Suspension_Susp_rec_beta_merid</title>
<path fill="none" stroke="black" d="M537.924,-605.116C610.493,-578.798 729.51,-535.634 797.994,-510.798"/>
<polygon fill="black" stroke="black" points="799.512,-513.97 807.72,-507.27 797.125,-507.39 799.512,-513.97"/>
</g>
<!-- Suspension_nullhomot_susp_from_paths -->
<g id="node24" class="node"><title>Suspension_nullhomot_susp_from_paths</title>
<g id="a_node24"><a xlink:href="Suspension.html#nullhomot_susp_from_paths" xlink:title="nullhomot_susp_from_paths">
<ellipse fill="#f070d1" stroke="black" cx="911" cy="-356.574" rx="112.384" ry="18"/>
<ellipse fill="none" stroke="black" cx="911" cy="-356.574" rx="116.382" ry="22"/>
<ellipse fill="none" stroke="black" cx="911" cy="-356.574" rx="120.38" ry="26"/>
<text text-anchor="middle" x="911" y="-352.874" font-family="Times,serif" font-size="14.00">nullhomot_susp_from_paths</text>
</a>
</g>
</g>
<!-- Suspension_nullhomot_susp_from_paths&#45;&gt;Suspension_Suspension_Susp_ind -->
<g id="edge46" class="edge"><title>Suspension_nullhomot_susp_from_paths&#45;&gt;Suspension_Suspension_Susp_ind</title>
<path fill="none" stroke="black" d="M911,-330.446C911,-303.77 911,-262.483 911,-235.002"/>
<polygon fill="black" stroke="black" points="914.5,-234.854 911,-224.854 907.5,-234.854 914.5,-234.854"/>
</g>
<!-- Suspension_Susp_eta -->
<g id="node27" class="node"><title>Suspension_Susp_eta</title>
<g id="a_node27"><a xlink:href="Suspension.html#Susp_eta" xlink:title="Susp_eta">
<ellipse fill="#f070d1" stroke="black" cx="477" cy="-491.574" rx="42.4939" ry="18"/>
<text text-anchor="middle" x="477" y="-487.874" font-family="Times,serif" font-size="14.00">Susp_eta</text>
</a>
</g>
</g>
<!-- Suspension_equiv_Susp_rec&#45;&gt;Suspension_Susp_eta -->
<g id="edge47" class="edge"><title>Suspension_equiv_Susp_rec&#45;&gt;Suspension_Susp_eta</title>
<path fill="none" stroke="black" d="M296.26,-610.898C333.895,-586.051 404.635,-539.349 445.565,-512.327"/>
<polygon fill="black" stroke="black" points="447.651,-515.144 454.068,-506.713 443.794,-509.302 447.651,-515.144"/>
</g>
<!-- Suspension_equiv_Susp_rec&#45;&gt;Suspension_Susp_rec_beta_merid -->
<g id="edge48" class="edge"><title>Suspension_equiv_Susp_rec&#45;&gt;Suspension_Susp_rec_beta_merid</title>
<path fill="none" stroke="black" d="M310.962,-612.942C322.506,-608.977 335.18,-604.874 347,-601.574 497.114,-559.664 676.038,-523.902 775.235,-505.296"/>
<polygon fill="black" stroke="black" points="775.981,-508.717 785.169,-503.44 774.696,-501.836 775.981,-508.717"/>
</g>
<!-- Suspension_Susp_rec_eta -->
<g id="node26" class="node"><title>Suspension_Susp_rec_eta</title>
<g id="a_node26"><a xlink:href="Suspension.html#Susp_rec_eta" xlink:title="Susp_rec_eta">
<ellipse fill="#f070d1" stroke="black" cx="101" cy="-777.574" rx="57.7089" ry="18"/>
<ellipse fill="none" stroke="black" cx="101" cy="-777.574" rx="61.6995" ry="22"/>
<ellipse fill="none" stroke="black" cx="101" cy="-777.574" rx="65.6901" ry="26"/>
<text text-anchor="middle" x="101" y="-773.874" font-family="Times,serif" font-size="14.00">Susp_rec_eta</text>
</a>
</g>
</g>
<!-- Suspension_Susp_rec_eta_homot -->
<g id="node28" class="node"><title>Suspension_Susp_rec_eta_homot</title>
<g id="a_node28"><a xlink:href="Suspension.html#Susp_rec_eta_homot" xlink:title="Susp_rec_eta_homot">
<ellipse fill="#f070d1" stroke="black" cx="101" cy="-627.574" rx="85.2851" ry="18"/>
<text text-anchor="middle" x="101" y="-623.874" font-family="Times,serif" font-size="14.00">Susp_rec_eta_homot</text>
</a>
</g>
</g>
<!-- Suspension_Susp_rec_eta&#45;&gt;Suspension_Susp_rec_eta_homot -->
<g id="edge49" class="edge"><title>Suspension_Susp_rec_eta&#45;&gt;Suspension_Susp_rec_eta_homot</title>
<path fill="none" stroke="black" d="M101,-751.446C101,-724.77 101,-683.483 101,-656.002"/>
<polygon fill="black" stroke="black" points="104.5,-655.854 101,-645.854 97.5001,-655.854 104.5,-655.854"/>
</g>
<!-- Suspension_Susp_eta_homot -->
<g id="node29" class="node"><title>Suspension_Susp_eta_homot</title>
<g id="a_node29"><a xlink:href="Suspension.html#Susp_eta_homot" xlink:title="Susp_eta_homot">
<ellipse fill="#f070d1" stroke="black" cx="683" cy="-356.574" rx="69.5877" ry="18"/>
<text text-anchor="middle" x="683" y="-352.874" font-family="Times,serif" font-size="14.00">Susp_eta_homot</text>
</a>
</g>
</g>
<!-- Suspension_Susp_eta&#45;&gt;Suspension_Susp_eta_homot -->
<g id="edge50" class="edge"><title>Suspension_Susp_eta&#45;&gt;Suspension_Susp_eta_homot</title>
<path fill="none" stroke="black" d="M500.23,-476.35C536.479,-452.595 606.692,-406.582 648.753,-379.018"/>
<polygon fill="black" stroke="black" points="650.833,-381.839 657.279,-373.43 646.996,-375.984 650.833,-381.839"/>
</g>
<!-- Suspension_Susp_rec_eta_homot&#45;&gt;Suspension_Susp_rec_beta_merid -->
<g id="edge51" class="edge"><title>Suspension_Susp_rec_eta_homot&#45;&gt;Suspension_Susp_rec_beta_merid</title>
<path fill="none" stroke="black" d="M150.519,-612.842C164.799,-608.876 180.452,-604.797 195,-601.574 398.973,-556.391 642.271,-520.133 767.445,-502.751"/>
<polygon fill="black" stroke="black" points="768.292,-506.167 777.718,-501.33 767.332,-499.233 768.292,-506.167"/>
</g>
<!-- Suspension_Susp_eta_homot&#45;&gt;Suspension_Suspension_Susp_ind_beta_merid -->
<g id="edge52" class="edge"><title>Suspension_Susp_eta_homot&#45;&gt;Suspension_Suspension_Susp_ind_beta_merid</title>
<path fill="none" stroke="black" d="M692.529,-338.481C706.231,-312.465 731.603,-264.29 747.599,-233.917"/>
<polygon fill="black" stroke="black" points="750.874,-235.211 752.437,-224.732 744.68,-231.949 750.874,-235.211"/>
</g>
<!-- Suspension_Susp_eta_homot&#45;&gt;Suspension_Suspension_Susp_ind -->
<g id="edge53" class="edge"><title>Suspension_Susp_eta_homot&#45;&gt;Suspension_Suspension_Susp_ind</title>
<path fill="none" stroke="black" d="M715.879,-340.657C752.336,-322.35 812.176,-290.316 859,-255.574 869.016,-248.142 879.186,-238.989 887.844,-230.614"/>
<polygon fill="black" stroke="black" points="890.371,-233.037 895.021,-223.517 885.449,-228.06 890.371,-233.037"/>
</g>
<!-- Suspension_Susp_rec_beta_merid&#45;&gt;Suspension_Suspension_Susp_ind_beta_merid -->
<g id="edge54" class="edge"><title>Suspension_Susp_rec_beta_merid&#45;&gt;Suspension_Suspension_Susp_ind_beta_merid</title>
<path fill="none" stroke="black" d="M835.993,-473.632C819.699,-453.061 794.355,-417.639 782,-382.574 764.404,-332.632 761.43,-270.25 761.369,-234.757"/>
<polygon fill="black" stroke="black" points="764.87,-234.669 761.431,-224.648 757.87,-234.626 764.87,-234.669"/>
</g>
<!-- Suspension_Susp_rec_beta_merid&#45;&gt;Suspension_Susp_rec -->
<g id="edge55" class="edge"><title>Suspension_Susp_rec_beta_merid&#45;&gt;Suspension_Susp_rec</title>
<path fill="none" stroke="black" d="M881.523,-474.476C926.408,-449.333 1009.99,-402.513 1057.2,-376.068"/>
<polygon fill="black" stroke="black" points="1059.12,-379.004 1066.13,-371.063 1055.7,-372.897 1059.12,-379.004"/>
</g>
<!-- Suspension_Susp_rec&#45;&gt;Suspension_Suspension_Susp_ind -->
<g id="edge56" class="edge"><title>Suspension_Susp_rec&#45;&gt;Suspension_Suspension_Susp_ind</title>
<path fill="none" stroke="black" d="M1069.57,-341.073C1042.49,-322.014 995.971,-288.171 959,-255.574 950.425,-248.014 941.531,-239.233 933.763,-231.21"/>
<polygon fill="black" stroke="black" points="935.859,-228.336 926.425,-223.514 930.793,-233.166 935.859,-228.336"/>
</g>
</g>
</svg>
