<?xml version="1.0" encoding="UTF-8" standalone="no"?>
<!DOCTYPE svg PUBLIC "-//W3C//DTD SVG 1.1//EN"
 "http://www.w3.org/Graphics/SVG/1.1/DTD/svg11.dtd">
<!-- Generated by graphviz version 2.26.3 (20100126.1600)
 -->
<!-- Title: HoTT_categories_Adjoint_UniversalMorphisms Pages: 1 -->
<svg width="5262pt" height="2635pt"
 viewBox="0.00 0.00 5262.00 2635.00" xmlns="http://www.w3.org/2000/svg" xmlns:xlink="http://www.w3.org/1999/xlink">
<g id="graph1" class="graph" transform="scale(1 1) rotate(0) translate(4 2631)">
<title>HoTT_categories_Adjoint_UniversalMorphisms</title>
<polygon fill="white" stroke="white" points="-4,5 -4,-2631 5259,-2631 5259,5 -4,5"/>
<g id="graph2" class="cluster"><title>cluster_FunctorialLaws</title>
<polygon fill="#ffffc3" stroke="black" points="1004,-1441.14 1004,-2198.77 1922,-2198.77 1922,-1441.14 1004,-1441.14"/>
<text text-anchor="middle" x="1064.5" y="-2182.17" font-family="Times Roman,serif" font-size="14.00">FunctorialLaws</text>
</g>
<g id="graph3" class="cluster"><title>cluster_FunctorialParts</title>
<polygon fill="#ffffc3" stroke="black" points="8,-675.279 8,-1803.49 594,-1803.49 594,-675.279 8,-675.279"/>
<text text-anchor="middle" x="68" y="-1786.89" font-family="Times Roman,serif" font-size="14.00">FunctorialParts</text>
</g>
<g id="graph4" class="cluster"><title>cluster_Core</title>
<polygon fill="#ffffc3" stroke="black" points="672,-32.9404 672,-1408.2 2294,-1408.2 2294,-32.9404 672,-32.9404"/>
<text text-anchor="middle" x="696.5" y="-1391.6" font-family="Times Roman,serif" font-size="14.00">Core</text>
</g>
<g id="graph5" class="cluster"><title>cluster_UniversalMorphisms</title>
<polygon fill="#ffffc3" stroke="black" points="2332,-1045.86 2332,-2594.06 5246,-2594.06 5246,-1045.86 2332,-1045.86"/>
<text text-anchor="middle" x="2409.5" y="-2577.46" font-family="Times Roman,serif" font-size="14.00">UniversalMorphisms</text>
</g>
<!-- UniversalMorphisms_terminal_composition_of_nondep -->
<g id="node1" class="node"><title>UniversalMorphisms_terminal_composition_of_nondep</title>
<a xlink:href="UniversalMorphisms.html#terminal_composition_of_nondep" xlink:title="terminal_composition_of_nondep">
<ellipse fill="#f070d1" stroke="black" cx="4045" cy="-2342.94" rx="171.12" ry="18.3848"/>
<ellipse fill="none" stroke="black" cx="4045" cy="-2342.94" rx="175.12" ry="22.3848"/>
<ellipse fill="none" stroke="black" cx="4045" cy="-2342.94" rx="179.12" ry="26.3848"/>
<text text-anchor="middle" x="4045" y="-2339.34" font-family="Times Roman,serif" font-size="14.00">terminal_composition_of_nondep</text>
</a>
</g>
<!-- UniversalMorphisms_initial_composition_of_nondep -->
<g id="node3" class="node"><title>UniversalMorphisms_initial_composition_of_nondep</title>
<a xlink:href="UniversalMorphisms.html#initial_composition_of_nondep" xlink:title="initial_composition_of_nondep">
<ellipse fill="#f070d1" stroke="black" cx="3215" cy="-1947.94" rx="157.184" ry="18.3848"/>
<text text-anchor="middle" x="3215" y="-1944.34" font-family="Times Roman,serif" font-size="14.00">initial_composition_of_nondep</text>
</a>
</g>
<!-- UniversalMorphisms_terminal_composition_of_nondep&#45;&gt;UniversalMorphisms_initial_composition_of_nondep -->
<g id="edge2" class="edge"><title>UniversalMorphisms_terminal_composition_of_nondep&#45;&gt;UniversalMorphisms_initial_composition_of_nondep</title>
<path fill="none" stroke="black" d="M3991.82,-2317.63C3839.87,-2245.32 3405.55,-2038.63 3261.82,-1970.22"/>
<polygon fill="black" stroke="black" points="3263.32,-1967.06 3252.78,-1965.92 3260.31,-1973.38 3263.32,-1967.06"/>
</g>
<!-- UniversalMorphisms_terminal_identity_of -->
<g id="node2" class="node"><title>UniversalMorphisms_terminal_identity_of</title>
<a xlink:href="UniversalMorphisms.html#terminal_identity_of" xlink:title="terminal_identity_of">
<ellipse fill="#f070d1" stroke="black" cx="4359" cy="-2342.94" rx="109.135" ry="18.3848"/>
<ellipse fill="none" stroke="black" cx="4359" cy="-2342.94" rx="113.118" ry="22.3848"/>
<ellipse fill="none" stroke="black" cx="4359" cy="-2342.94" rx="117.101" ry="26.3848"/>
<text text-anchor="middle" x="4359" y="-2339.34" font-family="Times Roman,serif" font-size="14.00">terminal_identity_of</text>
</a>
</g>
<!-- UniversalMorphisms_initial_identity_of -->
<g id="node5" class="node"><title>UniversalMorphisms_initial_identity_of</title>
<a xlink:href="UniversalMorphisms.html#initial_identity_of" xlink:title="initial_identity_of">
<ellipse fill="#f070d1" stroke="black" cx="3486" cy="-1947.94" rx="96.1665" ry="18.3848"/>
<text text-anchor="middle" x="3486" y="-1944.34" font-family="Times Roman,serif" font-size="14.00">initial_identity_of</text>
</a>
</g>
<!-- UniversalMorphisms_terminal_identity_of&#45;&gt;UniversalMorphisms_initial_identity_of -->
<g id="edge4" class="edge"><title>UniversalMorphisms_terminal_identity_of&#45;&gt;UniversalMorphisms_initial_identity_of</title>
<path fill="none" stroke="black" d="M4299.64,-2319.87C4169.24,-2268.59 3848.87,-2139.36 3591,-2008.94 3568,-1997.31 3543.01,-1982.87 3523.19,-1970.96"/>
<polygon fill="black" stroke="black" points="3524.84,-1967.87 3514.47,-1965.69 3521.22,-1973.86 3524.84,-1967.87"/>
</g>
<!-- FunctorialLaws_initial_composition_of_nondep -->
<g id="node26" class="node"><title>FunctorialLaws_initial_composition_of_nondep</title>
<a xlink:href="FunctorialLaws.html#initial_composition_of_nondep" xlink:title="initial_composition_of_nondep">
<ellipse fill="#facdef" stroke="black" cx="1483" cy="-1551.94" rx="157.184" ry="18.3848"/>
<text text-anchor="middle" x="1483" y="-1548.34" font-family="Times Roman,serif" font-size="14.00">initial_composition_of_nondep</text>
</a>
</g>
<!-- UniversalMorphisms_initial_composition_of_nondep&#45;&gt;FunctorialLaws_initial_composition_of_nondep -->
<g id="edge6" class="edge"><title>UniversalMorphisms_initial_composition_of_nondep&#45;&gt;FunctorialLaws_initial_composition_of_nondep</title>
<path fill="none" stroke="black" d="M3135.49,-1931.91C2909.96,-1886.09 2247.2,-1749.12 1702,-1612.94 1651.38,-1600.3 1594.64,-1584.44 1551.59,-1572.07"/>
<polygon fill="black" stroke="black" points="1552.37,-1568.65 1541.8,-1569.24 1550.43,-1575.38 1552.37,-1568.65"/>
</g>
<!-- UniversalMorphisms_initial_identity_of_nondep -->
<g id="node4" class="node"><title>UniversalMorphisms_initial_identity_of_nondep</title>
<a xlink:href="UniversalMorphisms.html#initial_identity_of_nondep" xlink:title="initial_identity_of_nondep">
<ellipse fill="#f070d1" stroke="black" cx="3271" cy="-2342.94" rx="137.179" ry="18.3848"/>
<ellipse fill="none" stroke="black" cx="3271" cy="-2342.94" rx="141.179" ry="22.3848"/>
<ellipse fill="none" stroke="black" cx="3271" cy="-2342.94" rx="145.179" ry="26.3848"/>
<text text-anchor="middle" x="3271" y="-2339.34" font-family="Times Roman,serif" font-size="14.00">initial_identity_of_nondep</text>
</a>
</g>
<!-- FunctorialLaws_initial_identity_of_nondep -->
<g id="node27" class="node"><title>FunctorialLaws_initial_identity_of_nondep</title>
<a xlink:href="FunctorialLaws.html#initial_identity_of_nondep" xlink:title="initial_identity_of_nondep">
<ellipse fill="#facdef" stroke="black" cx="1149" cy="-1947.94" rx="137.179" ry="18.3848"/>
<text text-anchor="middle" x="1149" y="-1944.34" font-family="Times Roman,serif" font-size="14.00">initial_identity_of_nondep</text>
</a>
</g>
<!-- UniversalMorphisms_initial_identity_of_nondep&#45;&gt;FunctorialLaws_initial_identity_of_nondep -->
<g id="edge8" class="edge"><title>UniversalMorphisms_initial_identity_of_nondep&#45;&gt;FunctorialLaws_initial_identity_of_nondep</title>
<path fill="none" stroke="black" d="M3166.22,-2324.47C3149.75,-2321.6 3132.92,-2318.68 3117,-2315.94 2307.68,-2176.81 2083.91,-2236.94 1295,-2008.94 1260.38,-1998.94 1222.91,-1983.17 1194.6,-1970.17"/>
<polygon fill="black" stroke="black" points="1195.91,-1966.92 1185.36,-1965.88 1192.96,-1973.27 1195.91,-1966.92"/>
</g>
<!-- FunctorialLaws_initial_identity_of -->
<g id="node28" class="node"><title>FunctorialLaws_initial_identity_of</title>
<a xlink:href="FunctorialLaws.html#initial_identity_of" xlink:title="initial_identity_of">
<ellipse fill="#facdef" stroke="black" cx="1807" cy="-1551.94" rx="96.1665" ry="18.3848"/>
<text text-anchor="middle" x="1807" y="-1548.34" font-family="Times Roman,serif" font-size="14.00">initial_identity_of</text>
</a>
</g>
<!-- UniversalMorphisms_initial_identity_of&#45;&gt;FunctorialLaws_initial_identity_of -->
<g id="edge10" class="edge"><title>UniversalMorphisms_initial_identity_of&#45;&gt;FunctorialLaws_initial_identity_of</title>
<path fill="none" stroke="black" d="M3428.84,-1933C3413.33,-1929.02 3396.54,-1924.76 3381,-1920.94 2803.19,-1778.94 2102.99,-1619.08 1879.33,-1568.32"/>
<polygon fill="black" stroke="black" points="1879.88,-1564.85 1869.35,-1566.05 1878.33,-1571.68 1879.88,-1564.85"/>
</g>
<!-- UniversalMorphisms_terminal_morphism_of_nondep -->
<g id="node6" class="node"><title>UniversalMorphisms_terminal_morphism_of_nondep</title>
<a xlink:href="UniversalMorphisms.html#terminal_morphism_of_nondep" xlink:title="terminal_morphism_of_nondep">
<ellipse fill="#f070d1" stroke="black" cx="4663" cy="-2342.94" rx="161.22" ry="18.3848"/>
<ellipse fill="none" stroke="black" cx="4663" cy="-2342.94" rx="165.22" ry="22.3848"/>
<ellipse fill="none" stroke="black" cx="4663" cy="-2342.94" rx="169.22" ry="26.3848"/>
<text text-anchor="middle" x="4663" y="-2339.34" font-family="Times Roman,serif" font-size="14.00">terminal_morphism_of_nondep</text>
</a>
</g>
<!-- UniversalMorphisms_initial_morphism_of_nondep -->
<g id="node8" class="node"><title>UniversalMorphisms_initial_morphism_of_nondep</title>
<a xlink:href="UniversalMorphisms.html#initial_morphism_of_nondep" xlink:title="initial_morphism_of_nondep">
<ellipse fill="#f070d1" stroke="black" cx="3748" cy="-1947.94" rx="147.785" ry="18.3848"/>
<text text-anchor="middle" x="3748" y="-1944.34" font-family="Times Roman,serif" font-size="14.00">initial_morphism_of_nondep</text>
</a>
</g>
<!-- UniversalMorphisms_terminal_morphism_of_nondep&#45;&gt;UniversalMorphisms_initial_morphism_of_nondep -->
<g id="edge12" class="edge"><title>UniversalMorphisms_terminal_morphism_of_nondep&#45;&gt;UniversalMorphisms_initial_morphism_of_nondep</title>
<path fill="none" stroke="black" d="M4605.07,-2317.93C4437.88,-2245.76 3956.45,-2037.93 3798.71,-1969.83"/>
<polygon fill="black" stroke="black" points="3799.8,-1966.49 3789.23,-1965.74 3797.03,-1972.92 3799.8,-1966.49"/>
</g>
<!-- UniversalMorphisms_terminal_morphism_of -->
<g id="node7" class="node"><title>UniversalMorphisms_terminal_morphism_of</title>
<a xlink:href="UniversalMorphisms.html#terminal_morphism_of" xlink:title="terminal_morphism_of">
<ellipse fill="#f070d1" stroke="black" cx="4042" cy="-1947.94" rx="120.208" ry="18.3848"/>
<ellipse fill="none" stroke="black" cx="4042" cy="-1947.94" rx="124.208" ry="22.3848"/>
<ellipse fill="none" stroke="black" cx="4042" cy="-1947.94" rx="128.208" ry="26.3848"/>
<text text-anchor="middle" x="4042" y="-1944.34" font-family="Times Roman,serif" font-size="14.00">terminal_morphism_of</text>
</a>
</g>
<!-- UniversalMorphisms_initial_morphism_of -->
<g id="node9" class="node"><title>UniversalMorphisms_initial_morphism_of</title>
<a xlink:href="UniversalMorphisms.html#initial_morphism_of" xlink:title="initial_morphism_of">
<ellipse fill="#f070d1" stroke="black" cx="3748" cy="-1551.94" rx="106.066" ry="18.3848"/>
<text text-anchor="middle" x="3748" y="-1548.34" font-family="Times Roman,serif" font-size="14.00">initial_morphism_of</text>
</a>
</g>
<!-- UniversalMorphisms_terminal_morphism_of&#45;&gt;UniversalMorphisms_initial_morphism_of -->
<g id="edge14" class="edge"><title>UniversalMorphisms_terminal_morphism_of&#45;&gt;UniversalMorphisms_initial_morphism_of</title>
<path fill="none" stroke="black" d="M4022.48,-1921.65C3969.12,-1849.77 3821.21,-1650.55 3767.67,-1578.44"/>
<polygon fill="black" stroke="black" points="3770.39,-1576.23 3761.62,-1570.29 3764.77,-1580.4 3770.39,-1576.23"/>
</g>
<!-- UniversalMorphisms_initial_morphism_of_nondep&#45;&gt;UniversalMorphisms_initial_morphism_of -->
<g id="edge16" class="edge"><title>UniversalMorphisms_initial_morphism_of_nondep&#45;&gt;UniversalMorphisms_initial_morphism_of</title>
<path fill="none" stroke="black" d="M3748,-1929.37C3748,-1865.97 3748,-1657.75 3748,-1580.83"/>
<polygon fill="black" stroke="black" points="3751.5,-1580.47 3748,-1570.47 3744.5,-1580.47 3751.5,-1580.47"/>
</g>
<!-- Core_functor__of__initial_morphism -->
<g id="node32" class="node"><title>Core_functor__of__initial_morphism</title>
<a xlink:href="Core.html#functor__of__initial_morphism" xlink:title="functor__of__initial_morphism">
<ellipse fill="#f070d1" stroke="black" cx="2081" cy="-448.94" rx="156.978" ry="18.3848"/>
<text text-anchor="middle" x="2081" y="-445.34" font-family="Times Roman,serif" font-size="14.00">functor__of__initial_morphism</text>
</a>
</g>
<!-- UniversalMorphisms_initial_morphism_of&#45;&gt;Core_functor__of__initial_morphism -->
<g id="edge18" class="edge"><title>UniversalMorphisms_initial_morphism_of&#45;&gt;Core_functor__of__initial_morphism</title>
<path fill="none" stroke="black" d="M3720.8,-1533.94C3525.62,-1404.8 2339.69,-620.105 2117.02,-472.773"/>
<polygon fill="black" stroke="black" points="2118.89,-469.812 2108.62,-467.212 2115.02,-475.65 2118.89,-469.812"/>
</g>
<!-- UniversalMorphisms_adjunction__of__terminal_morphism -->
<g id="node10" class="node"><title>UniversalMorphisms_adjunction__of__terminal_morphism</title>
<a xlink:href="UniversalMorphisms.html#adjunction__of__terminal_morphism" xlink:title="adjunction__of__terminal_morphism">
<ellipse fill="#f070d1" stroke="black" cx="5044" cy="-2342.94" rx="186.196" ry="18.3848"/>
<ellipse fill="none" stroke="black" cx="5044" cy="-2342.94" rx="190.186" ry="22.3848"/>
<ellipse fill="none" stroke="black" cx="5044" cy="-2342.94" rx="194.176" ry="26.3848"/>
<text text-anchor="middle" x="5044" y="-2339.34" font-family="Times Roman,serif" font-size="14.00">adjunction__of__terminal_morphism</text>
</a>
</g>
<!-- UniversalMorphisms_adjunction__of__initial_morphism -->
<g id="node12" class="node"><title>UniversalMorphisms_adjunction__of__initial_morphism</title>
<a xlink:href="UniversalMorphisms.html#adjunction__of__initial_morphism" xlink:title="adjunction__of__initial_morphism">
<ellipse fill="#f070d1" stroke="black" cx="4361" cy="-1947.94" rx="173.241" ry="18.3848"/>
<text text-anchor="middle" x="4361" y="-1944.34" font-family="Times Roman,serif" font-size="14.00">adjunction__of__initial_morphism</text>
</a>
</g>
<!-- UniversalMorphisms_adjunction__of__terminal_morphism&#45;&gt;UniversalMorphisms_adjunction__of__initial_morphism -->
<g id="edge20" class="edge"><title>UniversalMorphisms_adjunction__of__terminal_morphism&#45;&gt;UniversalMorphisms_adjunction__of__initial_morphism</title>
<path fill="none" stroke="black" d="M4999.19,-2317.02C4873.95,-2244.59 4521.6,-2040.82 4401.61,-1971.43"/>
<polygon fill="black" stroke="black" points="4403.12,-1968.26 4392.71,-1966.28 4399.62,-1974.32 4403.12,-1968.26"/>
</g>
<!-- UniversalMorphisms_functor__of__terminal_morphism -->
<g id="node11" class="node"><title>UniversalMorphisms_functor__of__terminal_morphism</title>
<a xlink:href="UniversalMorphisms.html#functor__of__terminal_morphism" xlink:title="functor__of__terminal_morphism">
<ellipse fill="#f070d1" stroke="black" cx="4731" cy="-1947.94" rx="171.12" ry="18.3848"/>
<ellipse fill="none" stroke="black" cx="4731" cy="-1947.94" rx="175.12" ry="22.3848"/>
<ellipse fill="none" stroke="black" cx="4731" cy="-1947.94" rx="179.12" ry="26.3848"/>
<text text-anchor="middle" x="4731" y="-1944.34" font-family="Times Roman,serif" font-size="14.00">functor__of__terminal_morphism</text>
</a>
</g>
<!-- UniversalMorphisms_functor__of__initial_morphism -->
<g id="node13" class="node"><title>UniversalMorphisms_functor__of__initial_morphism</title>
<a xlink:href="UniversalMorphisms.html#functor__of__initial_morphism" xlink:title="functor__of__initial_morphism">
<ellipse fill="#f070d1" stroke="black" cx="4195" cy="-1551.94" rx="156.978" ry="18.3848"/>
<text text-anchor="middle" x="4195" y="-1548.34" font-family="Times Roman,serif" font-size="14.00">functor__of__initial_morphism</text>
</a>
</g>
<!-- UniversalMorphisms_functor__of__terminal_morphism&#45;&gt;UniversalMorphisms_functor__of__initial_morphism -->
<g id="edge22" class="edge"><title>UniversalMorphisms_functor__of__terminal_morphism&#45;&gt;UniversalMorphisms_functor__of__initial_morphism</title>
<path fill="none" stroke="black" d="M4695.42,-1921.65C4597.14,-1849.04 4322.98,-1646.49 4227.94,-1576.28"/>
<polygon fill="black" stroke="black" points="4229.96,-1573.41 4219.83,-1570.29 4225.8,-1579.04 4229.96,-1573.41"/>
</g>
<!-- UniversalMorphisms_adjunction__of__initial_morphism&#45;&gt;UniversalMorphisms_functor__of__initial_morphism -->
<g id="edge24" class="edge"><title>UniversalMorphisms_adjunction__of__initial_morphism&#45;&gt;UniversalMorphisms_functor__of__initial_morphism</title>
<path fill="none" stroke="black" d="M4353.22,-1929.37C4326.53,-1865.71 4238.64,-1656.04 4206.72,-1579.89"/>
<polygon fill="black" stroke="black" points="4209.86,-1578.34 4202.77,-1570.47 4203.41,-1581.04 4209.86,-1578.34"/>
</g>
<!-- UniversalMorphisms_composition_of -->
<g id="node14" class="node"><title>UniversalMorphisms_composition_of</title>
<a xlink:href="UniversalMorphisms.html#composition_of" xlink:title="composition_of">
<ellipse fill="#f070d1" stroke="black" cx="3596" cy="-1156.94" rx="84.1457" ry="18.3848"/>
<text text-anchor="middle" x="3596" y="-1153.34" font-family="Times Roman,serif" font-size="14.00">composition_of</text>
</a>
</g>
<!-- UniversalMorphisms_functor__of__initial_morphism&#45;&gt;UniversalMorphisms_composition_of -->
<g id="edge26" class="edge"><title>UniversalMorphisms_functor__of__initial_morphism&#45;&gt;UniversalMorphisms_composition_of</title>
<path fill="none" stroke="black" d="M4167.31,-1533.68C4069.51,-1469.19 3740.35,-1252.13 3631.37,-1180.27"/>
<polygon fill="black" stroke="black" points="3632.99,-1177.14 3622.71,-1174.56 3629.13,-1182.98 3632.99,-1177.14"/>
</g>
<!-- UniversalMorphisms_identity_of -->
<g id="node15" class="node"><title>UniversalMorphisms_identity_of</title>
<a xlink:href="UniversalMorphisms.html#identity_of" xlink:title="identity_of">
<ellipse fill="#f070d1" stroke="black" cx="3978" cy="-1156.94" rx="63.1385" ry="18.3848"/>
<text text-anchor="middle" x="3978" y="-1153.34" font-family="Times Roman,serif" font-size="14.00">identity_of</text>
</a>
</g>
<!-- UniversalMorphisms_functor__of__initial_morphism&#45;&gt;UniversalMorphisms_identity_of -->
<g id="edge28" class="edge"><title>UniversalMorphisms_functor__of__initial_morphism&#45;&gt;UniversalMorphisms_identity_of</title>
<path fill="none" stroke="black" d="M4184.82,-1533.42C4149.87,-1469.79 4034.58,-1259.93 3993.06,-1184.36"/>
<polygon fill="black" stroke="black" points="3996.04,-1182.5 3988.15,-1175.42 3989.9,-1185.87 3996.04,-1182.5"/>
</g>
<!-- Core_composition_of -->
<g id="node33" class="node"><title>Core_composition_of</title>
<a xlink:href="Core.html#composition_of" xlink:title="composition_of">
<ellipse fill="#facdef" stroke="black" cx="2058" cy="-143.94" rx="84.1457" ry="18.3848"/>
<text text-anchor="middle" x="2058" y="-140.34" font-family="Times Roman,serif" font-size="14.00">composition_of</text>
</a>
</g>
<!-- UniversalMorphisms_composition_of&#45;&gt;Core_composition_of -->
<g id="edge30" class="edge"><title>UniversalMorphisms_composition_of&#45;&gt;Core_composition_of</title>
<path fill="none" stroke="black" d="M3573.47,-1138.95C3501.12,-1081.44 3267.49,-897.742 3064,-759.94 2698.08,-512.139 2234.25,-244.406 2097.57,-166.416"/>
<polygon fill="black" stroke="black" points="2099.1,-163.256 2088.68,-161.343 2095.63,-169.337 2099.1,-163.256"/>
</g>
<!-- Core_identity_of -->
<g id="node34" class="node"><title>Core_identity_of</title>
<a xlink:href="Core.html#identity_of" xlink:title="identity_of">
<ellipse fill="#facdef" stroke="black" cx="2223" cy="-143.94" rx="63.1385" ry="18.3848"/>
<text text-anchor="middle" x="2223" y="-140.34" font-family="Times Roman,serif" font-size="14.00">identity_of</text>
</a>
</g>
<!-- UniversalMorphisms_identity_of&#45;&gt;Core_identity_of -->
<g id="edge32" class="edge"><title>UniversalMorphisms_identity_of&#45;&gt;Core_identity_of</title>
<path fill="none" stroke="black" d="M3949.36,-1140.41C3743.77,-1021.74 2494.01,-300.371 2260.55,-165.613"/>
<polygon fill="black" stroke="black" points="2262.15,-162.497 2251.74,-160.529 2258.65,-168.559 2262.15,-162.497"/>
</g>
<!-- UniversalMorphisms_is_terminal_morphism__of__adjunction -->
<g id="node16" class="node"><title>UniversalMorphisms_is_terminal_morphism__of__adjunction</title>
<a xlink:href="UniversalMorphisms.html#is_terminal_morphism__of__adjunction" xlink:title="is_terminal_morphism__of__adjunction">
<ellipse fill="#f070d1" stroke="black" cx="3641" cy="-2342.94" rx="198.924" ry="18.3848"/>
<ellipse fill="none" stroke="black" cx="3641" cy="-2342.94" rx="202.914" ry="22.3848"/>
<ellipse fill="none" stroke="black" cx="3641" cy="-2342.94" rx="206.904" ry="26.3848"/>
<text text-anchor="middle" x="3641" y="-2339.34" font-family="Times Roman,serif" font-size="14.00">is_terminal_morphism__of__adjunction</text>
</a>
</g>
<!-- UniversalMorphisms_is_initial_morphism__of__adjunction -->
<g id="node18" class="node"><title>UniversalMorphisms_is_initial_morphism__of__adjunction</title>
<a xlink:href="UniversalMorphisms.html#is_initial_morphism__of__adjunction" xlink:title="is_initial_morphism__of__adjunction">
<ellipse fill="#f070d1" stroke="black" cx="2854" cy="-1947.94" rx="185.969" ry="18.3848"/>
<text text-anchor="middle" x="2854" y="-1944.34" font-family="Times Roman,serif" font-size="14.00">is_initial_morphism__of__adjunction</text>
</a>
</g>
<!-- UniversalMorphisms_is_terminal_morphism__of__adjunction&#45;&gt;UniversalMorphisms_is_initial_morphism__of__adjunction -->
<g id="edge34" class="edge"><title>UniversalMorphisms_is_terminal_morphism__of__adjunction&#45;&gt;UniversalMorphisms_is_initial_morphism__of__adjunction</title>
<path fill="none" stroke="black" d="M3589.67,-2317.18C3445.21,-2244.67 3036.81,-2039.69 2899.61,-1970.83"/>
<polygon fill="black" stroke="black" points="2901.09,-1967.66 2890.58,-1966.3 2897.95,-1973.92 2901.09,-1967.66"/>
</g>
<!-- UniversalMorphisms_terminal_morphism__of__adjunction -->
<g id="node17" class="node"><title>UniversalMorphisms_terminal_morphism__of__adjunction</title>
<a xlink:href="UniversalMorphisms.html#terminal_morphism__of__adjunction" xlink:title="terminal_morphism__of__adjunction">
<ellipse fill="#f070d1" stroke="black" cx="2914" cy="-2342.94" rx="186.196" ry="18.3848"/>
<ellipse fill="none" stroke="black" cx="2914" cy="-2342.94" rx="190.186" ry="22.3848"/>
<ellipse fill="none" stroke="black" cx="2914" cy="-2342.94" rx="194.176" ry="26.3848"/>
<text text-anchor="middle" x="2914" y="-2339.34" font-family="Times Roman,serif" font-size="14.00">terminal_morphism__of__adjunction</text>
</a>
</g>
<!-- UniversalMorphisms_initial_morphism__of__adjunction -->
<g id="node19" class="node"><title>UniversalMorphisms_initial_morphism__of__adjunction</title>
<a xlink:href="UniversalMorphisms.html#initial_morphism__of__adjunction" xlink:title="initial_morphism__of__adjunction">
<ellipse fill="#f070d1" stroke="black" cx="2521" cy="-2342.94" rx="173.241" ry="18.3848"/>
<ellipse fill="none" stroke="black" cx="2521" cy="-2342.94" rx="177.241" ry="22.3848"/>
<ellipse fill="none" stroke="black" cx="2521" cy="-2342.94" rx="181.241" ry="26.3848"/>
<text text-anchor="middle" x="2521" y="-2339.34" font-family="Times Roman,serif" font-size="14.00">initial_morphism__of__adjunction</text>
</a>
</g>
<!-- FunctorialParts_terminal_morphism_of_nondep -->
<g id="node20" class="node"><title>FunctorialParts_terminal_morphism_of_nondep</title>
<a xlink:href="FunctorialParts.html#terminal_morphism_of_nondep" xlink:title="terminal_morphism_of_nondep">
<ellipse fill="#f070d1" stroke="black" cx="379" cy="-1551.94" rx="161.22" ry="18.3848"/>
<ellipse fill="none" stroke="black" cx="379" cy="-1551.94" rx="165.22" ry="22.3848"/>
<ellipse fill="none" stroke="black" cx="379" cy="-1551.94" rx="169.22" ry="26.3848"/>
<text text-anchor="middle" x="379" y="-1548.34" font-family="Times Roman,serif" font-size="14.00">terminal_morphism_of_nondep</text>
</a>
</g>
<!-- FunctorialParts_initial_morphism_of_nondep -->
<g id="node22" class="node"><title>FunctorialParts_initial_morphism_of_nondep</title>
<a xlink:href="FunctorialParts.html#initial_morphism_of_nondep" xlink:title="initial_morphism_of_nondep">
<ellipse fill="#f070d1" stroke="black" cx="438" cy="-1156.94" rx="147.785" ry="18.3848"/>
<text text-anchor="middle" x="438" y="-1153.34" font-family="Times Roman,serif" font-size="14.00">initial_morphism_of_nondep</text>
</a>
</g>
<!-- FunctorialParts_terminal_morphism_of_nondep&#45;&gt;FunctorialParts_initial_morphism_of_nondep -->
<g id="edge36" class="edge"><title>FunctorialParts_terminal_morphism_of_nondep&#45;&gt;FunctorialParts_initial_morphism_of_nondep</title>
<path fill="none" stroke="black" d="M382.963,-1525.41C393.601,-1454.19 422.723,-1259.22 433.72,-1185.6"/>
<polygon fill="black" stroke="black" points="437.191,-1186.05 435.206,-1175.64 430.267,-1185.02 437.191,-1186.05"/>
</g>
<!-- FunctorialParts_terminal_morphism_of -->
<g id="node21" class="node"><title>FunctorialParts_terminal_morphism_of</title>
<a xlink:href="FunctorialParts.html#terminal_morphism_of" xlink:title="terminal_morphism_of">
<ellipse fill="#f070d1" stroke="black" cx="144" cy="-1156.94" rx="120.208" ry="18.3848"/>
<ellipse fill="none" stroke="black" cx="144" cy="-1156.94" rx="124.208" ry="22.3848"/>
<ellipse fill="none" stroke="black" cx="144" cy="-1156.94" rx="128.208" ry="26.3848"/>
<text text-anchor="middle" x="144" y="-1153.34" font-family="Times Roman,serif" font-size="14.00">terminal_morphism_of</text>
</a>
</g>
<!-- FunctorialParts_initial_morphism_of -->
<g id="node23" class="node"><title>FunctorialParts_initial_morphism_of</title>
<a xlink:href="FunctorialParts.html#initial_morphism_of" xlink:title="initial_morphism_of">
<ellipse fill="#f070d1" stroke="black" cx="459" cy="-786.94" rx="106.066" ry="18.3848"/>
<text text-anchor="middle" x="459" y="-783.34" font-family="Times Roman,serif" font-size="14.00">initial_morphism_of</text>
</a>
</g>
<!-- FunctorialParts_terminal_morphism_of&#45;&gt;FunctorialParts_initial_morphism_of -->
<g id="edge38" class="edge"><title>FunctorialParts_terminal_morphism_of&#45;&gt;FunctorialParts_initial_morphism_of</title>
<path fill="none" stroke="black" d="M166.401,-1130.63C224.345,-1062.57 378.667,-881.299 436.604,-813.247"/>
<polygon fill="black" stroke="black" points="439.361,-815.407 443.179,-805.524 434.031,-810.869 439.361,-815.407"/>
</g>
<!-- FunctorialParts_initial_morphism_of_nondep&#45;&gt;FunctorialParts_initial_morphism_of -->
<g id="edge40" class="edge"><title>FunctorialParts_initial_morphism_of_nondep&#45;&gt;FunctorialParts_initial_morphism_of</title>
<path fill="none" stroke="black" d="M439.056,-1138.34C442.465,-1078.26 453.201,-889.107 457.345,-816.093"/>
<polygon fill="black" stroke="black" points="460.857,-815.982 457.93,-805.8 453.868,-815.586 460.857,-815.982"/>
</g>
<!-- FunctorialParts_initial_morphism_of&#45;&gt;Core_functor__of__initial_morphism -->
<g id="edge42" class="edge"><title>FunctorialParts_initial_morphism_of&#45;&gt;Core_functor__of__initial_morphism</title>
<path fill="none" stroke="black" d="M527.144,-772.74C785.483,-718.906 1704.48,-527.402 1993.4,-467.195"/>
<polygon fill="black" stroke="black" points="1994.33,-470.576 2003.41,-465.109 1992.9,-463.723 1994.33,-470.576"/>
</g>
<!-- FunctorialLaws_terminal_composition_of_nondep -->
<g id="node24" class="node"><title>FunctorialLaws_terminal_composition_of_nondep</title>
<a xlink:href="FunctorialLaws.html#terminal_composition_of_nondep" xlink:title="terminal_composition_of_nondep">
<ellipse fill="#f070d1" stroke="black" cx="1483" cy="-1947.94" rx="171.12" ry="18.3848"/>
<ellipse fill="none" stroke="black" cx="1483" cy="-1947.94" rx="175.12" ry="22.3848"/>
<ellipse fill="none" stroke="black" cx="1483" cy="-1947.94" rx="179.12" ry="26.3848"/>
<text text-anchor="middle" x="1483" y="-1944.34" font-family="Times Roman,serif" font-size="14.00">terminal_composition_of_nondep</text>
</a>
</g>
<!-- FunctorialLaws_terminal_composition_of_nondep&#45;&gt;FunctorialLaws_initial_composition_of_nondep -->
<g id="edge44" class="edge"><title>FunctorialLaws_terminal_composition_of_nondep&#45;&gt;FunctorialLaws_initial_composition_of_nondep</title>
<path fill="none" stroke="black" d="M1483,-1921.34C1483,-1850.09 1483,-1655.28 1483,-1581.12"/>
<polygon fill="black" stroke="black" points="1486.5,-1580.69 1483,-1570.69 1479.5,-1580.69 1486.5,-1580.69"/>
</g>
<!-- FunctorialLaws_terminal_identity_of -->
<g id="node25" class="node"><title>FunctorialLaws_terminal_identity_of</title>
<a xlink:href="FunctorialLaws.html#terminal_identity_of" xlink:title="terminal_identity_of">
<ellipse fill="#f070d1" stroke="black" cx="1797" cy="-1947.94" rx="109.135" ry="18.3848"/>
<ellipse fill="none" stroke="black" cx="1797" cy="-1947.94" rx="113.118" ry="22.3848"/>
<ellipse fill="none" stroke="black" cx="1797" cy="-1947.94" rx="117.101" ry="26.3848"/>
<text text-anchor="middle" x="1797" y="-1944.34" font-family="Times Roman,serif" font-size="14.00">terminal_identity_of</text>
</a>
</g>
<!-- FunctorialLaws_terminal_identity_of&#45;&gt;FunctorialLaws_initial_identity_of -->
<g id="edge46" class="edge"><title>FunctorialLaws_terminal_identity_of&#45;&gt;FunctorialLaws_initial_identity_of</title>
<path fill="none" stroke="black" d="M1797.67,-1921.34C1799.47,-1850.09 1804.39,-1655.28 1806.26,-1581.12"/>
<polygon fill="black" stroke="black" points="1809.77,-1580.78 1806.53,-1570.69 1802.78,-1580.6 1809.77,-1580.78"/>
</g>
<!-- FunctorialLaws_initial_composition_of_nondep&#45;&gt;FunctorialParts_initial_morphism_of_nondep -->
<g id="edge48" class="edge"><title>FunctorialLaws_initial_composition_of_nondep&#45;&gt;FunctorialParts_initial_morphism_of_nondep</title>
<path fill="none" stroke="black" d="M1436.07,-1534.2C1265.47,-1469.72 678.584,-1247.88 494.021,-1178.12"/>
<polygon fill="black" stroke="black" points="495.097,-1174.78 484.505,-1174.52 492.622,-1181.33 495.097,-1174.78"/>
</g>
<!-- FunctorialLaws_initial_identity_of_nondep&#45;&gt;FunctorialParts_initial_morphism_of_nondep -->
<g id="edge50" class="edge"><title>FunctorialLaws_initial_identity_of_nondep&#45;&gt;FunctorialParts_initial_morphism_of_nondep</title>
<path fill="none" stroke="black" d="M1098.69,-1930.57C991.571,-1891.1 739.379,-1784.55 600,-1612.94 571.506,-1577.86 476.454,-1279.57 446.868,-1185.34"/>
<polygon fill="black" stroke="black" points="450.155,-1184.13 443.824,-1175.63 443.476,-1186.22 450.155,-1184.13"/>
</g>
<!-- Core_adjunction__of__initial_morphism -->
<g id="node31" class="node"><title>Core_adjunction__of__initial_morphism</title>
<a xlink:href="Core.html#adjunction__of__initial_morphism" xlink:title="adjunction__of__initial_morphism">
<ellipse fill="#f070d1" stroke="black" cx="2103" cy="-786.94" rx="173.241" ry="18.3848"/>
<text text-anchor="middle" x="2103" y="-783.34" font-family="Times Roman,serif" font-size="14.00">adjunction__of__initial_morphism</text>
</a>
</g>
<!-- FunctorialLaws_initial_identity_of_nondep&#45;&gt;Core_adjunction__of__initial_morphism -->
<g id="edge52" class="edge"><title>FunctorialLaws_initial_identity_of_nondep&#45;&gt;Core_adjunction__of__initial_morphism</title>
<path fill="none" stroke="black" d="M1122.23,-1929.51C992.009,-1837.69 440.278,-1422.45 671,-1129.94 755.011,-1023.43 1684.15,-857.743 1999.22,-804.232"/>
<polygon fill="black" stroke="black" points="1999.99,-807.651 2009.26,-802.529 1998.82,-800.75 1999.99,-807.651"/>
</g>
<!-- FunctorialLaws_initial_identity_of&#45;&gt;FunctorialParts_initial_morphism_of -->
<g id="edge54" class="edge"><title>FunctorialLaws_initial_identity_of&#45;&gt;FunctorialParts_initial_morphism_of</title>
<path fill="none" stroke="black" d="M1737.13,-1539.13C1515.97,-1497.43 835.928,-1360.04 668,-1217.94 600.523,-1160.84 500.992,-901.37 469.173,-815"/>
<polygon fill="black" stroke="black" points="472.447,-813.761 465.718,-805.578 465.875,-816.171 472.447,-813.761"/>
</g>
<!-- FunctorialLaws_initial_identity_of&#45;&gt;Core_adjunction__of__initial_morphism -->
<g id="edge56" class="edge"><title>FunctorialLaws_initial_identity_of&#45;&gt;Core_adjunction__of__initial_morphism</title>
<path fill="none" stroke="black" d="M1856.2,-1535.96C1960.11,-1499.22 2200.18,-1397.75 2295,-1217.94 2373.74,-1068.64 2201.33,-880.446 2131.06,-812.703"/>
<polygon fill="black" stroke="black" points="2133.07,-809.78 2123.41,-805.416 2128.24,-814.848 2133.07,-809.78"/>
</g>
<!-- Core_adjunction__of__terminal_morphism -->
<g id="node29" class="node"><title>Core_adjunction__of__terminal_morphism</title>
<a xlink:href="Core.html#adjunction__of__terminal_morphism" xlink:title="adjunction__of__terminal_morphism">
<ellipse fill="#f070d1" stroke="black" cx="2092" cy="-1156.94" rx="186.196" ry="18.3848"/>
<ellipse fill="none" stroke="black" cx="2092" cy="-1156.94" rx="190.186" ry="22.3848"/>
<ellipse fill="none" stroke="black" cx="2092" cy="-1156.94" rx="194.176" ry="26.3848"/>
<text text-anchor="middle" x="2092" y="-1153.34" font-family="Times Roman,serif" font-size="14.00">adjunction__of__terminal_morphism</text>
</a>
</g>
<!-- Core_adjunction__of__terminal_morphism&#45;&gt;Core_adjunction__of__initial_morphism -->
<g id="edge58" class="edge"><title>Core_adjunction__of__terminal_morphism&#45;&gt;Core_adjunction__of__initial_morphism</title>
<path fill="none" stroke="black" d="M2092.79,-1130.33C2094.8,-1062.86 2100.07,-885.494 2102.14,-815.724"/>
<polygon fill="black" stroke="black" points="2105.65,-815.582 2102.45,-805.483 2098.65,-815.374 2105.65,-815.582"/>
</g>
<!-- Core_functor__of__terminal_morphism -->
<g id="node30" class="node"><title>Core_functor__of__terminal_morphism</title>
<a xlink:href="Core.html#functor__of__terminal_morphism" xlink:title="functor__of__terminal_morphism">
<ellipse fill="#f070d1" stroke="black" cx="1733" cy="-786.94" rx="171.12" ry="18.3848"/>
<ellipse fill="none" stroke="black" cx="1733" cy="-786.94" rx="175.12" ry="22.3848"/>
<ellipse fill="none" stroke="black" cx="1733" cy="-786.94" rx="179.12" ry="26.3848"/>
<text text-anchor="middle" x="1733" y="-783.34" font-family="Times Roman,serif" font-size="14.00">functor__of__terminal_morphism</text>
</a>
</g>
<!-- Core_functor__of__terminal_morphism&#45;&gt;Core_functor__of__initial_morphism -->
<g id="edge60" class="edge"><title>Core_functor__of__terminal_morphism&#45;&gt;Core_functor__of__initial_morphism</title>
<path fill="none" stroke="black" d="M1760.02,-760.699C1825.08,-697.503 1989.86,-537.463 2054.45,-474.73"/>
<polygon fill="black" stroke="black" points="2057.08,-477.053 2061.81,-467.575 2052.2,-472.032 2057.08,-477.053"/>
</g>
<!-- Core_adjunction__of__initial_morphism&#45;&gt;Core_functor__of__initial_morphism -->
<g id="edge62" class="edge"><title>Core_adjunction__of__initial_morphism&#45;&gt;Core_functor__of__initial_morphism</title>
<path fill="none" stroke="black" d="M2101.79,-768.287C2098.14,-712.309 2087.28,-545.47 2082.88,-477.868"/>
<polygon fill="black" stroke="black" points="2086.35,-477.288 2082.21,-467.537 2079.37,-477.743 2086.35,-477.288"/>
</g>
<!-- Core_functor__of__initial_morphism&#45;&gt;Core_composition_of -->
<g id="edge64" class="edge"><title>Core_functor__of__initial_morphism&#45;&gt;Core_composition_of</title>
<path fill="none" stroke="black" d="M2079.6,-430.32C2075.72,-378.954 2064.86,-234.962 2060.19,-172.95"/>
<polygon fill="black" stroke="black" points="2063.66,-172.413 2059.41,-162.704 2056.68,-172.939 2063.66,-172.413"/>
</g>
<!-- Core_functor__of__initial_morphism&#45;&gt;Core_identity_of -->
<g id="edge66" class="edge"><title>Core_functor__of__initial_morphism&#45;&gt;Core_identity_of</title>
<path fill="none" stroke="black" d="M2089.67,-430.32C2113.74,-378.619 2181.5,-233.079 2210.05,-171.746"/>
<polygon fill="black" stroke="black" points="2213.4,-172.86 2214.44,-162.317 2207.05,-169.905 2213.4,-172.86"/>
</g>
<!-- Core_is_terminal_morphism__of__adjunction -->
<g id="node35" class="node"><title>Core_is_terminal_morphism__of__adjunction</title>
<a xlink:href="Core.html#is_terminal_morphism__of__adjunction" xlink:title="is_terminal_morphism__of__adjunction">
<ellipse fill="#f070d1" stroke="black" cx="1673" cy="-1156.94" rx="198.924" ry="18.3848"/>
<ellipse fill="none" stroke="black" cx="1673" cy="-1156.94" rx="202.914" ry="22.3848"/>
<ellipse fill="none" stroke="black" cx="1673" cy="-1156.94" rx="206.904" ry="26.3848"/>
<text text-anchor="middle" x="1673" y="-1153.34" font-family="Times Roman,serif" font-size="14.00">is_terminal_morphism__of__adjunction</text>
</a>
</g>
<!-- Core_is_initial_morphism__of__adjunction -->
<g id="node37" class="node"><title>Core_is_initial_morphism__of__adjunction</title>
<a xlink:href="Core.html#is_initial_morphism__of__adjunction" xlink:title="is_initial_morphism__of__adjunction">
<ellipse fill="#f070d1" stroke="black" cx="1350" cy="-786.94" rx="185.969" ry="18.3848"/>
<text text-anchor="middle" x="1350" y="-783.34" font-family="Times Roman,serif" font-size="14.00">is_initial_morphism__of__adjunction</text>
</a>
</g>
<!-- Core_is_terminal_morphism__of__adjunction&#45;&gt;Core_is_initial_morphism__of__adjunction -->
<g id="edge68" class="edge"><title>Core_is_terminal_morphism__of__adjunction&#45;&gt;Core_is_initial_morphism__of__adjunction</title>
<path fill="none" stroke="black" d="M1649.77,-1130.33C1590.14,-1062.02 1432.2,-881.098 1372.91,-813.189"/>
<polygon fill="black" stroke="black" points="1375.4,-810.714 1366.19,-805.483 1370.13,-815.318 1375.4,-810.714"/>
</g>
<!-- Core_terminal_morphism__of__adjunction -->
<g id="node36" class="node"><title>Core_terminal_morphism__of__adjunction</title>
<a xlink:href="Core.html#terminal_morphism__of__adjunction" xlink:title="terminal_morphism__of__adjunction">
<ellipse fill="#f070d1" stroke="black" cx="1254" cy="-1156.94" rx="186.196" ry="18.3848"/>
<ellipse fill="none" stroke="black" cx="1254" cy="-1156.94" rx="190.186" ry="22.3848"/>
<ellipse fill="none" stroke="black" cx="1254" cy="-1156.94" rx="194.176" ry="26.3848"/>
<text text-anchor="middle" x="1254" y="-1153.34" font-family="Times Roman,serif" font-size="14.00">terminal_morphism__of__adjunction</text>
</a>
</g>
<!-- Core_initial_morphism__of__adjunction -->
<g id="node38" class="node"><title>Core_initial_morphism__of__adjunction</title>
<a xlink:href="Core.html#initial_morphism__of__adjunction" xlink:title="initial_morphism__of__adjunction">
<ellipse fill="#f070d1" stroke="black" cx="861" cy="-1156.94" rx="173.241" ry="18.3848"/>
<ellipse fill="none" stroke="black" cx="861" cy="-1156.94" rx="177.241" ry="22.3848"/>
<ellipse fill="none" stroke="black" cx="861" cy="-1156.94" rx="181.241" ry="26.3848"/>
<text text-anchor="middle" x="861" y="-1153.34" font-family="Times Roman,serif" font-size="14.00">initial_morphism__of__adjunction</text>
</a>
</g>
</g>
</svg>
