<?xml version="1.0" encoding="UTF-8" standalone="no"?>
<!DOCTYPE svg PUBLIC "-//W3C//DTD SVG 1.1//EN"
 "http://www.w3.org/Graphics/SVG/1.1/DTD/svg11.dtd">
<!-- Generated by graphviz version 2.39.20161220.0128 (20161220.0128)
 -->
<!-- Title: HoTT_Basics_UniverseLevel Pages: 1 -->
<svg width="1142pt" height="575pt"
 viewBox="0.00 0.00 1142.00 575.00" xmlns="http://www.w3.org/2000/svg" xmlns:xlink="http://www.w3.org/1999/xlink">
<g id="graph0" class="graph" transform="scale(1 1) rotate(0) translate(4 571)">
<title>HoTT_Basics_UniverseLevel</title>
<polygon fill="#ffffff" stroke="transparent" points="-4,4 -4,-571 1138,-571 1138,4 -4,4"/>
<g id="clust1" class="cluster">
<title>cluster_UniverseLevel</title>
<polygon fill="#ffffc3" stroke="#000000" points="8,-11.0365 8,-555.9635 1126,-555.9635 1126,-11.0365 8,-11.0365"/>
<text text-anchor="middle" x="56" y="-540.7635" font-family="Times,serif" font-size="14.00" fill="#000000">UniverseLevel</text>
</g>
<!-- UniverseLevel_lower__equiv -->
<g id="node1" class="node">
<title>UniverseLevel_lower__equiv</title>
<g id="a_node1"><a xlink:href="UniverseLevel.html#lower'_equiv" xlink:title="lower&#39;_equiv">
<ellipse fill="#f070d1" stroke="#000000" cx="918" cy="-477.0365" rx="55.8034" ry="18"/>
<ellipse fill="none" stroke="#000000" cx="918" cy="-477.0365" rx="59.7968" ry="22"/>
<ellipse fill="none" stroke="#000000" cx="918" cy="-477.0365" rx="63.7903" ry="26"/>
<text text-anchor="middle" x="918" y="-473.3365" font-family="Times,serif" font-size="14.00" fill="#000000">lower&#39;_equiv</text>
</a>
</g>
</g>
<!-- UniverseLevel_lower__isequiv -->
<g id="node2" class="node">
<title>UniverseLevel_lower__isequiv</title>
<g id="a_node2"><a xlink:href="UniverseLevel.html#lower'_isequiv" xlink:title="lower&#39;_isequiv">
<ellipse fill="#f070d1" stroke="#000000" cx="918" cy="-356.0365" rx="61.99" ry="18"/>
<text text-anchor="middle" x="918" y="-352.3365" font-family="Times,serif" font-size="14.00" fill="#000000">lower&#39;_isequiv</text>
</a>
</g>
</g>
<!-- UniverseLevel_lower__equiv&#45;&gt;UniverseLevel_lower__isequiv -->
<g id="edge1" class="edge">
<title>UniverseLevel_lower__equiv&#45;&gt;UniverseLevel_lower__isequiv</title>
<path fill="none" stroke="#000000" d="M918,-450.7813C918,-431.2208 918,-404.5392 918,-384.4743"/>
<polygon fill="#000000" stroke="#000000" points="921.5001,-384.3768 918,-374.3768 914.5001,-384.3768 921.5001,-384.3768"/>
</g>
<!-- UniverseLevel_lower_2 -->
<g id="node6" class="node">
<title>UniverseLevel_lower_2</title>
<g id="a_node6"><a xlink:href="UniverseLevel.html#lower'2" xlink:title="lower&#39;2">
<ellipse fill="#f070d1" stroke="#000000" cx="805" cy="-246.0365" rx="36.2938" ry="18"/>
<text text-anchor="middle" x="805" y="-242.3365" font-family="Times,serif" font-size="14.00" fill="#000000">lower&#39;2</text>
</a>
</g>
</g>
<!-- UniverseLevel_lower__isequiv&#45;&gt;UniverseLevel_lower_2 -->
<g id="edge2" class="edge">
<title>UniverseLevel_lower__isequiv&#45;&gt;UniverseLevel_lower_2</title>
<path fill="none" stroke="#000000" d="M900.0948,-338.6067C880.9175,-319.9385 850.377,-290.2088 829.0985,-269.4952"/>
<polygon fill="#000000" stroke="#000000" points="831.3232,-266.7764 821.7163,-262.309 826.4405,-271.7923 831.3232,-266.7764"/>
</g>
<!-- UniverseLevel_lift_ -->
<g id="node9" class="node">
<title>UniverseLevel_lift_</title>
<g id="a_node9"><a xlink:href="UniverseLevel.html#lift'" xlink:title="lift&#39;">
<ellipse fill="#f070d1" stroke="#000000" cx="918" cy="-246.0365" rx="27" ry="18"/>
<text text-anchor="middle" x="918" y="-242.3365" font-family="Times,serif" font-size="14.00" fill="#000000">lift&#39;</text>
</a>
</g>
</g>
<!-- UniverseLevel_lower__isequiv&#45;&gt;UniverseLevel_lift_ -->
<g id="edge3" class="edge">
<title>UniverseLevel_lower__isequiv&#45;&gt;UniverseLevel_lift_</title>
<path fill="none" stroke="#000000" d="M918,-337.8722C918,-320.596 918,-294.3455 918,-274.3282"/>
<polygon fill="#000000" stroke="#000000" points="921.5001,-274.2277 918,-264.2277 914.5001,-274.2278 921.5001,-274.2277"/>
</g>
<!-- UniverseLevel_lift__isequiv -->
<g id="node3" class="node">
<title>UniverseLevel_lift__isequiv</title>
<g id="a_node3"><a xlink:href="UniverseLevel.html#lift'_isequiv" xlink:title="lift&#39;_isequiv">
<ellipse fill="#f070d1" stroke="#000000" cx="631" cy="-356.0365" rx="51.9914" ry="18"/>
<ellipse fill="none" stroke="#000000" cx="631" cy="-356.0365" rx="55.9911" ry="22"/>
<ellipse fill="none" stroke="#000000" cx="631" cy="-356.0365" rx="59.9908" ry="26"/>
<text text-anchor="middle" x="631" y="-352.3365" font-family="Times,serif" font-size="14.00" fill="#000000">lift&#39;_isequiv</text>
</a>
</g>
</g>
<!-- UniverseLevel_lift_2 -->
<g id="node7" class="node">
<title>UniverseLevel_lift_2</title>
<g id="a_node7"><a xlink:href="UniverseLevel.html#lift'2" xlink:title="lift&#39;2">
<ellipse fill="#f070d1" stroke="#000000" cx="689" cy="-246.0365" rx="27" ry="18"/>
<text text-anchor="middle" x="689" y="-242.3365" font-family="Times,serif" font-size="14.00" fill="#000000">lift&#39;2</text>
</a>
</g>
</g>
<!-- UniverseLevel_lift__isequiv&#45;&gt;UniverseLevel_lift_2 -->
<g id="edge4" class="edge">
<title>UniverseLevel_lift__isequiv&#45;&gt;UniverseLevel_lift_2</title>
<path fill="none" stroke="#000000" d="M644.4521,-330.5238C653.657,-313.0664 665.8288,-289.9818 675.1231,-272.3547"/>
<polygon fill="#000000" stroke="#000000" points="678.3853,-273.6719 679.9534,-263.1938 672.1933,-270.407 678.3853,-273.6719"/>
</g>
<!-- UniverseLevel_lower_ -->
<g id="node8" class="node">
<title>UniverseLevel_lower_</title>
<g id="a_node8"><a xlink:href="UniverseLevel.html#lower'" xlink:title="lower&#39;">
<ellipse fill="#f070d1" stroke="#000000" cx="805" cy="-146.0365" rx="32.4942" ry="18"/>
<text text-anchor="middle" x="805" y="-142.3365" font-family="Times,serif" font-size="14.00" fill="#000000">lower&#39;</text>
</a>
</g>
</g>
<!-- UniverseLevel_lift__isequiv&#45;&gt;UniverseLevel_lower_ -->
<g id="edge5" class="edge">
<title>UniverseLevel_lift__isequiv&#45;&gt;UniverseLevel_lower_</title>
<path fill="none" stroke="#000000" d="M629.1204,-329.9592C628.4603,-302.1508 631.4196,-258.0651 653,-228.0365 680.0746,-190.3629 729.947,-168.2746 765.1688,-156.6942"/>
<polygon fill="#000000" stroke="#000000" points="766.6415,-159.9005 775.135,-153.5671 764.5459,-153.2215 766.6415,-159.9005"/>
</g>
<!-- UniverseLevel_lift__isequiv&#45;&gt;UniverseLevel_lift_ -->
<g id="edge6" class="edge">
<title>UniverseLevel_lift__isequiv&#45;&gt;UniverseLevel_lift_</title>
<path fill="none" stroke="#000000" d="M676.1595,-338.728C734.1722,-316.4931 833.5009,-278.4229 884.9464,-258.7051"/>
<polygon fill="#000000" stroke="#000000" points="886.4856,-261.8635 894.5707,-255.0164 883.9804,-255.3272 886.4856,-261.8635"/>
</g>
<!-- UniverseLevel_isequiv_lift_2 -->
<g id="node4" class="node">
<title>UniverseLevel_isequiv_lift_2</title>
<g id="a_node4"><a xlink:href="UniverseLevel.html#isequiv_lift'2" xlink:title="isequiv_lift&#39;2">
<ellipse fill="#f070d1" stroke="#000000" cx="774" cy="-356.0365" rx="56.5844" ry="18"/>
<ellipse fill="none" stroke="#000000" cx="774" cy="-356.0365" rx="60.5872" ry="22"/>
<ellipse fill="none" stroke="#000000" cx="774" cy="-356.0365" rx="64.59" ry="26"/>
<text text-anchor="middle" x="774" y="-352.3365" font-family="Times,serif" font-size="14.00" fill="#000000">isequiv_lift&#39;2</text>
</a>
</g>
</g>
<!-- UniverseLevel_isequiv_lift_2&#45;&gt;UniverseLevel_lower_2 -->
<g id="edge7" class="edge">
<title>UniverseLevel_isequiv_lift_2&#45;&gt;UniverseLevel_lower_2</title>
<path fill="none" stroke="#000000" d="M781.3466,-329.968C786.0913,-313.132 792.2609,-291.2397 797.1094,-274.0353"/>
<polygon fill="#000000" stroke="#000000" points="800.5892,-274.5906 799.933,-264.0161 793.8516,-272.6918 800.5892,-274.5906"/>
</g>
<!-- UniverseLevel_isequiv_lift_2&#45;&gt;UniverseLevel_lift_2 -->
<g id="edge8" class="edge">
<title>UniverseLevel_isequiv_lift_2&#45;&gt;UniverseLevel_lift_2</title>
<path fill="none" stroke="#000000" d="M754.7122,-331.0758C740.6529,-312.8815 721.705,-288.3607 707.7683,-270.3249"/>
<polygon fill="#000000" stroke="#000000" points="710.2565,-267.8208 701.3725,-262.048 704.7175,-272.1009 710.2565,-267.8208"/>
</g>
<!-- UniverseLevel_isequiv_lift_ -->
<g id="node5" class="node">
<title>UniverseLevel_isequiv_lift_</title>
<g id="a_node5"><a xlink:href="UniverseLevel.html#isequiv_lift'" xlink:title="isequiv_lift&#39;">
<ellipse fill="#f070d1" stroke="#000000" cx="1058" cy="-356.0365" rx="51.9914" ry="18"/>
<ellipse fill="none" stroke="#000000" cx="1058" cy="-356.0365" rx="55.9911" ry="22"/>
<ellipse fill="none" stroke="#000000" cx="1058" cy="-356.0365" rx="59.9908" ry="26"/>
<text text-anchor="middle" x="1058" y="-352.3365" font-family="Times,serif" font-size="14.00" fill="#000000">isequiv_lift&#39;</text>
</a>
</g>
</g>
<!-- UniverseLevel_isequiv_lift_&#45;&gt;UniverseLevel_lower_ -->
<g id="edge9" class="edge">
<title>UniverseLevel_isequiv_lift_&#45;&gt;UniverseLevel_lower_</title>
<path fill="none" stroke="#000000" d="M1041.8343,-330.7449C1023.182,-303.009 990.3718,-258.4112 954,-228.0365 919.1873,-198.9638 872.5059,-175.2569 840.7331,-160.9439"/>
<polygon fill="#000000" stroke="#000000" points="841.9421,-157.6516 831.3809,-156.8079 839.1109,-164.0535 841.9421,-157.6516"/>
</g>
<!-- UniverseLevel_isequiv_lift_&#45;&gt;UniverseLevel_lift_ -->
<g id="edge10" class="edge">
<title>UniverseLevel_isequiv_lift_&#45;&gt;UniverseLevel_lift_</title>
<path fill="none" stroke="#000000" d="M1028.9919,-333.2444C1003.7731,-313.4296 967.5943,-285.0035 943.4743,-266.052"/>
<polygon fill="#000000" stroke="#000000" points="945.5089,-263.1995 935.4833,-259.7734 941.1841,-268.7038 945.5089,-263.1995"/>
</g>
<!-- UniverseLevel_lower_2&#45;&gt;UniverseLevel_lower_ -->
<g id="edge11" class="edge">
<title>UniverseLevel_lower_2&#45;&gt;UniverseLevel_lower_</title>
<path fill="none" stroke="#000000" d="M805,-227.695C805,-212.7529 805,-191.403 805,-174.2811"/>
<polygon fill="#000000" stroke="#000000" points="808.5001,-174.2617 805,-164.2618 801.5001,-174.2618 808.5001,-174.2617"/>
</g>
<!-- UniverseLevel_Lift_ -->
<g id="node10" class="node">
<title>UniverseLevel_Lift_</title>
<g id="a_node10"><a xlink:href="UniverseLevel.html#Lift'" xlink:title="Lift&#39;">
<ellipse fill="#f070d1" stroke="#000000" cx="805" cy="-47.0365" rx="27" ry="18"/>
<text text-anchor="middle" x="805" y="-43.3365" font-family="Times,serif" font-size="14.00" fill="#000000">Lift&#39;</text>
</a>
</g>
</g>
<!-- UniverseLevel_lower_&#45;&gt;UniverseLevel_Lift_ -->
<g id="edge12" class="edge">
<title>UniverseLevel_lower_&#45;&gt;UniverseLevel_Lift_</title>
<path fill="none" stroke="#000000" d="M805,-127.8784C805,-113.2253 805,-92.3475 805,-75.4795"/>
<polygon fill="#000000" stroke="#000000" points="808.5001,-75.0795 805,-65.0795 801.5001,-75.0795 808.5001,-75.0795"/>
</g>
<!-- UniverseLevel_lower_equiv -->
<g id="node11" class="node">
<title>UniverseLevel_lower_equiv</title>
<g id="a_node11"><a xlink:href="UniverseLevel.html#lower_equiv" xlink:title="lower_equiv">
<ellipse fill="#f070d1" stroke="#000000" cx="357" cy="-477.0365" rx="54.6783" ry="18"/>
<ellipse fill="none" stroke="#000000" cx="357" cy="-477.0365" rx="58.6844" ry="22"/>
<ellipse fill="none" stroke="#000000" cx="357" cy="-477.0365" rx="62.6905" ry="26"/>
<text text-anchor="middle" x="357" y="-473.3365" font-family="Times,serif" font-size="14.00" fill="#000000">lower_equiv</text>
</a>
</g>
</g>
<!-- UniverseLevel_lower_isequiv -->
<g id="node12" class="node">
<title>UniverseLevel_lower_isequiv</title>
<g id="a_node12"><a xlink:href="UniverseLevel.html#lower_isequiv" xlink:title="lower_isequiv">
<ellipse fill="#f070d1" stroke="#000000" cx="357" cy="-356.0365" rx="60.3893" ry="18"/>
<text text-anchor="middle" x="357" y="-352.3365" font-family="Times,serif" font-size="14.00" fill="#000000">lower_isequiv</text>
</a>
</g>
</g>
<!-- UniverseLevel_lower_equiv&#45;&gt;UniverseLevel_lower_isequiv -->
<g id="edge13" class="edge">
<title>UniverseLevel_lower_equiv&#45;&gt;UniverseLevel_lower_isequiv</title>
<path fill="none" stroke="#000000" d="M357,-450.7813C357,-431.2208 357,-404.5392 357,-384.4743"/>
<polygon fill="#000000" stroke="#000000" points="360.5001,-384.3768 357,-374.3768 353.5001,-384.3768 360.5001,-384.3768"/>
</g>
<!-- UniverseLevel_lower2 -->
<g id="node16" class="node">
<title>UniverseLevel_lower2</title>
<g id="a_node16"><a xlink:href="UniverseLevel.html#lower2" xlink:title="lower2">
<ellipse fill="#f070d1" stroke="#000000" cx="268" cy="-246.0365" rx="35.194" ry="18"/>
<text text-anchor="middle" x="268" y="-242.3365" font-family="Times,serif" font-size="14.00" fill="#000000">lower2</text>
</a>
</g>
</g>
<!-- UniverseLevel_lower_isequiv&#45;&gt;UniverseLevel_lower2 -->
<g id="edge14" class="edge">
<title>UniverseLevel_lower_isequiv&#45;&gt;UniverseLevel_lower2</title>
<path fill="none" stroke="#000000" d="M342.7006,-338.3631C327.9307,-320.1081 304.7564,-291.4657 288.1365,-270.9243"/>
<polygon fill="#000000" stroke="#000000" points="290.6902,-268.5161 281.6793,-262.9435 285.2483,-272.9191 290.6902,-268.5161"/>
</g>
<!-- UniverseLevel_lift -->
<g id="node19" class="node">
<title>UniverseLevel_lift</title>
<g id="a_node19"><a xlink:href="UniverseLevel.html#lift" xlink:title="lift">
<ellipse fill="#f070d1" stroke="#000000" cx="357" cy="-246.0365" rx="27" ry="18"/>
<text text-anchor="middle" x="357" y="-242.3365" font-family="Times,serif" font-size="14.00" fill="#000000">lift</text>
</a>
</g>
</g>
<!-- UniverseLevel_lower_isequiv&#45;&gt;UniverseLevel_lift -->
<g id="edge15" class="edge">
<title>UniverseLevel_lower_isequiv&#45;&gt;UniverseLevel_lift</title>
<path fill="none" stroke="#000000" d="M357,-337.8722C357,-320.596 357,-294.3455 357,-274.3282"/>
<polygon fill="#000000" stroke="#000000" points="360.5001,-274.2277 357,-264.2277 353.5001,-274.2278 360.5001,-274.2277"/>
</g>
<!-- UniverseLevel_lift_isequiv -->
<g id="node13" class="node">
<title>UniverseLevel_lift_isequiv</title>
<g id="a_node13"><a xlink:href="UniverseLevel.html#lift_isequiv" xlink:title="lift_isequiv">
<ellipse fill="#f070d1" stroke="#000000" cx="75" cy="-356.0365" rx="50.8649" ry="18"/>
<ellipse fill="none" stroke="#000000" cx="75" cy="-356.0365" rx="54.8783" ry="22"/>
<ellipse fill="none" stroke="#000000" cx="75" cy="-356.0365" rx="58.8917" ry="26"/>
<text text-anchor="middle" x="75" y="-352.3365" font-family="Times,serif" font-size="14.00" fill="#000000">lift_isequiv</text>
</a>
</g>
</g>
<!-- UniverseLevel_lift2 -->
<g id="node17" class="node">
<title>UniverseLevel_lift2</title>
<g id="a_node17"><a xlink:href="UniverseLevel.html#lift2" xlink:title="lift2">
<ellipse fill="#f070d1" stroke="#000000" cx="169" cy="-246.0365" rx="27" ry="18"/>
<text text-anchor="middle" x="169" y="-242.3365" font-family="Times,serif" font-size="14.00" fill="#000000">lift2</text>
</a>
</g>
</g>
<!-- UniverseLevel_lift_isequiv&#45;&gt;UniverseLevel_lift2 -->
<g id="edge16" class="edge">
<title>UniverseLevel_lift_isequiv&#45;&gt;UniverseLevel_lift2</title>
<path fill="none" stroke="#000000" d="M95.8616,-331.6239C111.6216,-313.1814 133.1308,-288.0111 148.7415,-269.7433"/>
<polygon fill="#000000" stroke="#000000" points="151.6213,-271.7608 155.457,-261.8846 146.2997,-267.2132 151.6213,-271.7608"/>
</g>
<!-- UniverseLevel_lower -->
<g id="node18" class="node">
<title>UniverseLevel_lower</title>
<g id="a_node18"><a xlink:href="UniverseLevel.html#lower" xlink:title="lower">
<ellipse fill="#f070d1" stroke="#000000" cx="268" cy="-146.0365" rx="30.5947" ry="18"/>
<text text-anchor="middle" x="268" y="-142.3365" font-family="Times,serif" font-size="14.00" fill="#000000">lower</text>
</a>
</g>
</g>
<!-- UniverseLevel_lift_isequiv&#45;&gt;UniverseLevel_lower -->
<g id="edge17" class="edge">
<title>UniverseLevel_lift_isequiv&#45;&gt;UniverseLevel_lower</title>
<path fill="none" stroke="#000000" d="M81.7299,-330.1803C90.0224,-302.3585 106.3802,-258.071 133,-228.0365 160.7372,-196.7413 203.3329,-173.6332 233.2427,-160.0633"/>
<polygon fill="#000000" stroke="#000000" points="234.7344,-163.2307 242.473,-155.9943 231.9108,-156.8254 234.7344,-163.2307"/>
</g>
<!-- UniverseLevel_lift_isequiv&#45;&gt;UniverseLevel_lift -->
<g id="edge18" class="edge">
<title>UniverseLevel_lift_isequiv&#45;&gt;UniverseLevel_lift</title>
<path fill="none" stroke="#000000" d="M119.6074,-338.8768C167.2861,-320.499 245.0663,-290.4138 312,-264.0365 315.9631,-262.4747 320.1186,-260.8267 324.2353,-259.1877"/>
<polygon fill="#000000" stroke="#000000" points="325.6726,-262.3825 333.6622,-255.4242 323.0772,-255.8815 325.6726,-262.3825"/>
</g>
<!-- UniverseLevel_isequiv_lift2 -->
<g id="node14" class="node">
<title>UniverseLevel_isequiv_lift2</title>
<g id="a_node14"><a xlink:href="UniverseLevel.html#isequiv_lift2" xlink:title="isequiv_lift2">
<ellipse fill="#f070d1" stroke="#000000" cx="215" cy="-356.0365" rx="55.46" ry="18"/>
<ellipse fill="none" stroke="#000000" cx="215" cy="-356.0365" rx="59.4756" ry="22"/>
<ellipse fill="none" stroke="#000000" cx="215" cy="-356.0365" rx="63.4911" ry="26"/>
<text text-anchor="middle" x="215" y="-352.3365" font-family="Times,serif" font-size="14.00" fill="#000000">isequiv_lift2</text>
</a>
</g>
</g>
<!-- UniverseLevel_isequiv_lift2&#45;&gt;UniverseLevel_lower2 -->
<g id="edge19" class="edge">
<title>UniverseLevel_isequiv_lift2&#45;&gt;UniverseLevel_lower2</title>
<path fill="none" stroke="#000000" d="M227.2925,-330.5238C235.6522,-313.1735 246.69,-290.2648 255.1628,-272.6798"/>
<polygon fill="#000000" stroke="#000000" points="258.3851,-274.0552 259.5727,-263.5271 252.0789,-271.0167 258.3851,-274.0552"/>
</g>
<!-- UniverseLevel_isequiv_lift2&#45;&gt;UniverseLevel_lift2 -->
<g id="edge20" class="edge">
<title>UniverseLevel_isequiv_lift2&#45;&gt;UniverseLevel_lift2</title>
<path fill="none" stroke="#000000" d="M204.215,-330.2464C197.0228,-313.0474 187.5855,-290.4801 180.291,-273.0368"/>
<polygon fill="#000000" stroke="#000000" points="183.3641,-271.3133 176.2769,-263.4379 176.906,-274.014 183.3641,-271.3133"/>
</g>
<!-- UniverseLevel_isequiv_lift -->
<g id="node15" class="node">
<title>UniverseLevel_isequiv_lift</title>
<g id="a_node15"><a xlink:href="UniverseLevel.html#isequiv_lift" xlink:title="isequiv_lift">
<ellipse fill="#f070d1" stroke="#000000" cx="494" cy="-356.0365" rx="50.8649" ry="18"/>
<ellipse fill="none" stroke="#000000" cx="494" cy="-356.0365" rx="54.8783" ry="22"/>
<ellipse fill="none" stroke="#000000" cx="494" cy="-356.0365" rx="58.8917" ry="26"/>
<text text-anchor="middle" x="494" y="-352.3365" font-family="Times,serif" font-size="14.00" fill="#000000">isequiv_lift</text>
</a>
</g>
</g>
<!-- UniverseLevel_isequiv_lift&#45;&gt;UniverseLevel_lower -->
<g id="edge21" class="edge">
<title>UniverseLevel_isequiv_lift&#45;&gt;UniverseLevel_lower</title>
<path fill="none" stroke="#000000" d="M477.8415,-330.9739C459.4413,-303.6414 427.4388,-259.5879 393,-228.0365 364.4118,-201.8452 326.6233,-178.2986 300.1069,-163.2288"/>
<polygon fill="#000000" stroke="#000000" points="301.667,-160.0911 291.2314,-158.2615 298.2483,-166.1996 301.667,-160.0911"/>
</g>
<!-- UniverseLevel_isequiv_lift&#45;&gt;UniverseLevel_lift -->
<g id="edge22" class="edge">
<title>UniverseLevel_isequiv_lift&#45;&gt;UniverseLevel_lift</title>
<path fill="none" stroke="#000000" d="M465.6135,-333.2444C441.0753,-313.5422 405.9336,-285.3262 382.3318,-266.3759"/>
<polygon fill="#000000" stroke="#000000" points="384.4901,-263.6202 374.5012,-260.0885 380.1075,-269.0786 384.4901,-263.6202"/>
</g>
<!-- UniverseLevel_lower2&#45;&gt;UniverseLevel_lower -->
<g id="edge23" class="edge">
<title>UniverseLevel_lower2&#45;&gt;UniverseLevel_lower</title>
<path fill="none" stroke="#000000" d="M268,-227.695C268,-212.7529 268,-191.403 268,-174.2811"/>
<polygon fill="#000000" stroke="#000000" points="271.5001,-174.2617 268,-164.2618 264.5001,-174.2618 271.5001,-174.2617"/>
</g>
<!-- UniverseLevel_Lift -->
<g id="node20" class="node">
<title>UniverseLevel_Lift</title>
<g id="a_node20"><a xlink:href="UniverseLevel.html#Lift" xlink:title="Lift">
<ellipse fill="#f070d1" stroke="#000000" cx="268" cy="-47.0365" rx="27" ry="18"/>
<text text-anchor="middle" x="268" y="-43.3365" font-family="Times,serif" font-size="14.00" fill="#000000">Lift</text>
</a>
</g>
</g>
<!-- UniverseLevel_lower&#45;&gt;UniverseLevel_Lift -->
<g id="edge24" class="edge">
<title>UniverseLevel_lower&#45;&gt;UniverseLevel_Lift</title>
<path fill="none" stroke="#000000" d="M268,-127.8784C268,-113.2253 268,-92.3475 268,-75.4795"/>
<polygon fill="#000000" stroke="#000000" points="271.5001,-75.0795 268,-65.0795 264.5001,-75.0795 271.5001,-75.0795"/>
</g>
</g>
</svg>
