<?xml version="1.0" encoding="UTF-8" standalone="no"?>
<!DOCTYPE svg PUBLIC "-//W3C//DTD SVG 1.1//EN"
 "http://www.w3.org/Graphics/SVG/1.1/DTD/svg11.dtd">
<!-- Generated by graphviz version 2.39.20161220.0128 (20161220.0128)
 -->
<!-- Title: HoTT_Pullback Pages: 1 -->
<svg width="1684pt" height="846pt"
 viewBox="0.00 0.00 1684.00 846.00" xmlns="http://www.w3.org/2000/svg" xmlns:xlink="http://www.w3.org/1999/xlink">
<g id="graph0" class="graph" transform="scale(1 1) rotate(0) translate(4 842)">
<title>HoTT_Pullback</title>
<polygon fill="#ffffff" stroke="transparent" points="-4,4 -4,-842 1680,-842 1680,4 -4,4"/>
<g id="clust1" class="cluster">
<title>cluster_Pullback</title>
<polygon fill="#ffffc3" stroke="#000000" points="8,-25.1086 8,-812.8914 1668,-812.8914 1668,-25.1086 8,-25.1086"/>
<text text-anchor="middle" x="40" y="-797.6914" font-family="Times,serif" font-size="14.00" fill="#000000">Pullback</text>
</g>
<!-- Pullback_hfiber_functor_pullback -->
<g id="node1" class="node">
<title>Pullback_hfiber_functor_pullback</title>
<g id="a_node1"><a xlink:href="Pullback.html#hfiber_functor_pullback" xlink:title="hfiber_functor_pullback">
<ellipse fill="#f070d1" stroke="#000000" cx="1556" cy="-358.1086" rx="96.3686" ry="18"/>
<ellipse fill="none" stroke="#000000" cx="1556" cy="-358.1086" rx="100.3759" ry="22"/>
<ellipse fill="none" stroke="#000000" cx="1556" cy="-358.1086" rx="104.3833" ry="26"/>
<text text-anchor="middle" x="1556" y="-354.4086" font-family="Times,serif" font-size="14.00" fill="#000000">hfiber_functor_pullback</text>
</a>
</g>
</g>
<!-- Pullback_hfiber_functor_pullback_subproof -->
<g id="node2" class="node">
<title>Pullback_hfiber_functor_pullback_subproof</title>
<g id="a_node2"><a xlink:href="Pullback.html#hfiber_functor_pullback_subproof" xlink:title="hfiber_functor_pullback_subproof">
<ellipse fill="#facdef" stroke="#000000" cx="1528" cy="-107.1086" rx="131.8766" ry="18"/>
<text text-anchor="middle" x="1528" y="-103.4086" font-family="Times,serif" font-size="14.00" fill="#000000">hfiber_functor_pullback_subproof</text>
</a>
</g>
</g>
<!-- Pullback_hfiber_functor_pullback&#45;&gt;Pullback_hfiber_functor_pullback_subproof -->
<g id="edge1" class="edge">
<title>Pullback_hfiber_functor_pullback&#45;&gt;Pullback_hfiber_functor_pullback_subproof</title>
<path fill="none" stroke="#000000" d="M1553.0564,-331.7216C1547.7436,-284.0962 1536.5985,-184.1884 1531.1433,-135.2859"/>
<polygon fill="#000000" stroke="#000000" points="1534.5953,-134.6606 1530.0082,-125.1103 1527.6385,-135.4367 1534.5953,-134.6606"/>
</g>
<!-- Pullback_Pullback -->
<g id="node15" class="node">
<title>Pullback_Pullback</title>
<g id="a_node15"><a xlink:href="Pullback.html#Pullback" xlink:title="Pullback">
<ellipse fill="#f070d1" stroke="#000000" cx="827" cy="-107.1086" rx="41.6928" ry="18"/>
<text text-anchor="middle" x="827" y="-103.4086" font-family="Times,serif" font-size="14.00" fill="#000000">Pullback</text>
</a>
</g>
</g>
<!-- Pullback_hfiber_functor_pullback&#45;&gt;Pullback_Pullback -->
<g id="edge2" class="edge">
<title>Pullback_hfiber_functor_pullback&#45;&gt;Pullback_Pullback</title>
<path fill="none" stroke="#000000" d="M1494.7873,-337.0326C1350.6075,-287.3905 992.5467,-164.1075 869.3983,-121.7067"/>
<polygon fill="#000000" stroke="#000000" points="870.1739,-118.2721 859.5792,-118.3259 867.895,-124.8908 870.1739,-118.2721"/>
</g>
<!-- Pullback_functor_pullback -->
<g id="node3" class="node">
<title>Pullback_functor_pullback</title>
<g id="a_node3"><a xlink:href="Pullback.html#functor_pullback" xlink:title="functor_pullback">
<ellipse fill="#f070d1" stroke="#000000" cx="1400" cy="-634.1086" rx="70.7036" ry="18"/>
<ellipse fill="none" stroke="#000000" cx="1400" cy="-634.1086" rx="74.6957" ry="22"/>
<ellipse fill="none" stroke="#000000" cx="1400" cy="-634.1086" rx="78.6877" ry="26"/>
<text text-anchor="middle" x="1400" y="-630.4086" font-family="Times,serif" font-size="14.00" fill="#000000">functor_pullback</text>
</a>
</g>
</g>
<!-- Pullback_hfiber_pullback_along_ -->
<g id="node4" class="node">
<title>Pullback_hfiber_pullback_along_</title>
<g id="a_node4"><a xlink:href="Pullback.html#hfiber_pullback_along'" xlink:title="hfiber_pullback_along&#39;">
<ellipse fill="#f070d1" stroke="#000000" cx="1023" cy="-634.1086" rx="91.7725" ry="18"/>
<ellipse fill="none" stroke="#000000" cx="1023" cy="-634.1086" rx="95.7782" ry="22"/>
<ellipse fill="none" stroke="#000000" cx="1023" cy="-634.1086" rx="99.7839" ry="26"/>
<text text-anchor="middle" x="1023" y="-630.4086" font-family="Times,serif" font-size="14.00" fill="#000000">hfiber_pullback_along&#39;</text>
</a>
</g>
</g>
<!-- Pullback_pullback_along_ -->
<g id="node5" class="node">
<title>Pullback_pullback_along_</title>
<g id="a_node5"><a xlink:href="Pullback.html#pullback_along'" xlink:title="pullback_along&#39;">
<ellipse fill="#f070d1" stroke="#000000" cx="1023" cy="-358.1086" rx="66.0889" ry="18"/>
<text text-anchor="middle" x="1023" y="-354.4086" font-family="Times,serif" font-size="14.00" fill="#000000">pullback_along&#39;</text>
</a>
</g>
</g>
<!-- Pullback_hfiber_pullback_along_&#45;&gt;Pullback_pullback_along_ -->
<g id="edge3" class="edge">
<title>Pullback_hfiber_pullback_along_&#45;&gt;Pullback_pullback_along_</title>
<path fill="none" stroke="#000000" d="M1023,-607.6446C1023,-555.5129 1023,-439.9536 1023,-386.3869"/>
<polygon fill="#000000" stroke="#000000" points="1026.5001,-386.2394 1023,-376.2394 1019.5001,-386.2394 1026.5001,-386.2394"/>
</g>
<!-- Pullback_pullback_along_&#45;&gt;Pullback_Pullback -->
<g id="edge4" class="edge">
<title>Pullback_pullback_along_&#45;&gt;Pullback_Pullback</title>
<path fill="none" stroke="#000000" d="M1009.2177,-340.4588C975.1161,-296.7879 886.6834,-183.5399 846.9026,-132.5961"/>
<polygon fill="#000000" stroke="#000000" points="849.4201,-130.1333 840.5069,-124.4057 843.9029,-134.4415 849.4201,-130.1333"/>
</g>
<!-- Pullback_hfiber_pullback_along -->
<g id="node6" class="node">
<title>Pullback_hfiber_pullback_along</title>
<g id="a_node6"><a xlink:href="Pullback.html#hfiber_pullback_along" xlink:title="hfiber_pullback_along">
<ellipse fill="#f070d1" stroke="#000000" cx="1335" cy="-358.1086" rx="90.1971" ry="18"/>
<ellipse fill="none" stroke="#000000" cx="1335" cy="-358.1086" rx="94.1906" ry="22"/>
<ellipse fill="none" stroke="#000000" cx="1335" cy="-358.1086" rx="98.1842" ry="26"/>
<text text-anchor="middle" x="1335" y="-354.4086" font-family="Times,serif" font-size="14.00" fill="#000000">hfiber_pullback_along</text>
</a>
</g>
</g>
<!-- Pullback_pullback_along -->
<g id="node7" class="node">
<title>Pullback_pullback_along</title>
<g id="a_node7"><a xlink:href="Pullback.html#pullback_along" xlink:title="pullback_along">
<ellipse fill="#f070d1" stroke="#000000" cx="1313" cy="-107.1086" rx="64.9885" ry="18"/>
<text text-anchor="middle" x="1313" y="-103.4086" font-family="Times,serif" font-size="14.00" fill="#000000">pullback_along</text>
</a>
</g>
</g>
<!-- Pullback_hfiber_pullback_along&#45;&gt;Pullback_pullback_along -->
<g id="edge5" class="edge">
<title>Pullback_hfiber_pullback_along&#45;&gt;Pullback_pullback_along</title>
<path fill="none" stroke="#000000" d="M1332.6872,-331.7216C1328.5129,-284.0962 1319.756,-184.1884 1315.4697,-135.2859"/>
<polygon fill="#000000" stroke="#000000" points="1318.9377,-134.7665 1314.5778,-125.1103 1311.9644,-135.3777 1318.9377,-134.7665"/>
</g>
<!-- Pullback_hfiber_pullback_along&#45;&gt;Pullback_Pullback -->
<g id="edge6" class="edge">
<title>Pullback_hfiber_pullback_along&#45;&gt;Pullback_Pullback</title>
<path fill="none" stroke="#000000" d="M1288.5717,-335.1686C1188.5063,-285.7269 954.2502,-169.9822 863.6654,-125.2248"/>
<polygon fill="#000000" stroke="#000000" points="865.1161,-122.0377 854.6003,-120.7458 862.0152,-128.3134 865.1161,-122.0377"/>
</g>
<!-- Pullback_IsPullback -->
<g id="node8" class="node">
<title>Pullback_IsPullback</title>
<g id="a_node8"><a xlink:href="Pullback.html#IsPullback" xlink:title="IsPullback">
<ellipse fill="#f070d1" stroke="#000000" cx="1163" cy="-358.1086" rx="48.178" ry="18"/>
<ellipse fill="none" stroke="#000000" cx="1163" cy="-358.1086" rx="52.1848" ry="22"/>
<ellipse fill="none" stroke="#000000" cx="1163" cy="-358.1086" rx="56.1916" ry="26"/>
<text text-anchor="middle" x="1163" y="-354.4086" font-family="Times,serif" font-size="14.00" fill="#000000">IsPullback</text>
</a>
</g>
</g>
<!-- Pullback_pullback_corec -->
<g id="node11" class="node">
<title>Pullback_pullback_corec</title>
<g id="a_node11"><a xlink:href="Pullback.html#pullback_corec" xlink:title="pullback_corec">
<ellipse fill="#f070d1" stroke="#000000" cx="1163" cy="-107.1086" rx="64.189" ry="18"/>
<text text-anchor="middle" x="1163" y="-103.4086" font-family="Times,serif" font-size="14.00" fill="#000000">pullback_corec</text>
</a>
</g>
</g>
<!-- Pullback_IsPullback&#45;&gt;Pullback_pullback_corec -->
<g id="edge7" class="edge">
<title>Pullback_IsPullback&#45;&gt;Pullback_pullback_corec</title>
<path fill="none" stroke="#000000" d="M1163,-331.7216C1163,-284.0962 1163,-184.1884 1163,-135.2859"/>
<polygon fill="#000000" stroke="#000000" points="1166.5001,-135.1103 1163,-125.1103 1159.5001,-135.1103 1166.5001,-135.1103"/>
</g>
<!-- Pullback_IsPullback&#45;&gt;Pullback_Pullback -->
<g id="edge8" class="edge">
<title>Pullback_IsPullback&#45;&gt;Pullback_Pullback</title>
<path fill="none" stroke="#000000" d="M1133.1822,-335.834C1069.3703,-288.165 920.2185,-176.7451 856.6007,-129.221"/>
<polygon fill="#000000" stroke="#000000" points="858.3155,-126.1333 848.2094,-122.9525 854.1261,-131.7413 858.3155,-126.1333"/>
</g>
<!-- Pullback_equiv_pullback_unit_prod -->
<g id="node9" class="node">
<title>Pullback_equiv_pullback_unit_prod</title>
<g id="a_node9"><a xlink:href="Pullback.html#equiv_pullback_unit_prod" xlink:title="equiv_pullback_unit_prod">
<ellipse fill="#f070d1" stroke="#000000" cx="827" cy="-358.1086" rx="103.1933" ry="18"/>
<ellipse fill="none" stroke="#000000" cx="827" cy="-358.1086" rx="107.1876" ry="22"/>
<ellipse fill="none" stroke="#000000" cx="827" cy="-358.1086" rx="111.1819" ry="26"/>
<text text-anchor="middle" x="827" y="-354.4086" font-family="Times,serif" font-size="14.00" fill="#000000">equiv_pullback_unit_prod</text>
</a>
</g>
</g>
<!-- Pullback_equiv_pullback_unit_prod&#45;&gt;Pullback_Pullback -->
<g id="edge9" class="edge">
<title>Pullback_equiv_pullback_unit_prod&#45;&gt;Pullback_Pullback</title>
<path fill="none" stroke="#000000" d="M827,-331.7216C827,-284.0962 827,-184.1884 827,-135.2859"/>
<polygon fill="#000000" stroke="#000000" points="830.5001,-135.1103 827,-125.1103 823.5001,-135.1103 830.5001,-135.1103"/>
</g>
<!-- Pullback_equiv_pullback_symm -->
<g id="node10" class="node">
<title>Pullback_equiv_pullback_symm</title>
<g id="a_node10"><a xlink:href="Pullback.html#equiv_pullback_symm" xlink:title="equiv_pullback_symm">
<ellipse fill="#f070d1" stroke="#000000" cx="598" cy="-358.1086" rx="91.7725" ry="18"/>
<ellipse fill="none" stroke="#000000" cx="598" cy="-358.1086" rx="95.7782" ry="22"/>
<ellipse fill="none" stroke="#000000" cx="598" cy="-358.1086" rx="99.7839" ry="26"/>
<text text-anchor="middle" x="598" y="-354.4086" font-family="Times,serif" font-size="14.00" fill="#000000">equiv_pullback_symm</text>
</a>
</g>
</g>
<!-- Pullback_equiv_pullback_symm&#45;&gt;Pullback_Pullback -->
<g id="edge10" class="edge">
<title>Pullback_equiv_pullback_symm&#45;&gt;Pullback_Pullback</title>
<path fill="none" stroke="#000000" d="M621.218,-332.6601C665.4874,-284.1377 761.4173,-178.9918 804.8451,-131.392"/>
<polygon fill="#000000" stroke="#000000" points="807.4375,-133.7434 811.5918,-123.997 802.2663,-129.0255 807.4375,-133.7434"/>
</g>
<!-- Pullback_pullback_commsq -->
<g id="node12" class="node">
<title>Pullback_pullback_commsq</title>
<g id="a_node12"><a xlink:href="Pullback.html#pullback_commsq" xlink:title="pullback_commsq">
<ellipse fill="#f070d1" stroke="#000000" cx="396" cy="-358.1086" rx="76.0824" ry="18"/>
<ellipse fill="none" stroke="#000000" cx="396" cy="-358.1086" rx="80.0845" ry="22"/>
<ellipse fill="none" stroke="#000000" cx="396" cy="-358.1086" rx="84.0865" ry="26"/>
<text text-anchor="middle" x="396" y="-354.4086" font-family="Times,serif" font-size="14.00" fill="#000000">pullback_commsq</text>
</a>
</g>
</g>
<!-- Pullback_pullback_commsq&#45;&gt;Pullback_Pullback -->
<g id="edge11" class="edge">
<title>Pullback_pullback_commsq&#45;&gt;Pullback_Pullback</title>
<path fill="none" stroke="#000000" d="M435.7749,-334.945C519.8814,-285.9642 714.4856,-172.6332 793.1226,-126.8377"/>
<polygon fill="#000000" stroke="#000000" points="795.2423,-129.6536 802.1223,-121.5965 791.7195,-123.6046 795.2423,-129.6536"/>
</g>
<!-- Pullback_pullback_pr2 -->
<g id="node13" class="node">
<title>Pullback_pullback_pr2</title>
<g id="a_node13"><a xlink:href="Pullback.html#pullback_pr2" xlink:title="pullback_pr2">
<ellipse fill="#f070d1" stroke="#000000" cx="229" cy="-358.1086" rx="57.3664" ry="18"/>
<ellipse fill="none" stroke="#000000" cx="229" cy="-358.1086" rx="61.3784" ry="22"/>
<ellipse fill="none" stroke="#000000" cx="229" cy="-358.1086" rx="65.3904" ry="26"/>
<text text-anchor="middle" x="229" y="-354.4086" font-family="Times,serif" font-size="14.00" fill="#000000">pullback_pr2</text>
</a>
</g>
</g>
<!-- Pullback_pullback_pr2&#45;&gt;Pullback_Pullback -->
<g id="edge12" class="edge">
<title>Pullback_pullback_pr2&#45;&gt;Pullback_Pullback</title>
<path fill="none" stroke="#000000" d="M273.9472,-339.2428C386.8147,-291.8686 680.7536,-168.493 787.5157,-123.6814"/>
<polygon fill="#000000" stroke="#000000" points="789.09,-126.8165 796.9561,-119.719 786.3808,-120.362 789.09,-126.8165"/>
</g>
<!-- Pullback_pullback_pr1 -->
<g id="node14" class="node">
<title>Pullback_pullback_pr1</title>
<g id="a_node14"><a xlink:href="Pullback.html#pullback_pr1" xlink:title="pullback_pr1">
<ellipse fill="#f070d1" stroke="#000000" cx="81" cy="-358.1086" rx="57.3664" ry="18"/>
<ellipse fill="none" stroke="#000000" cx="81" cy="-358.1086" rx="61.3784" ry="22"/>
<ellipse fill="none" stroke="#000000" cx="81" cy="-358.1086" rx="65.3904" ry="26"/>
<text text-anchor="middle" x="81" y="-354.4086" font-family="Times,serif" font-size="14.00" fill="#000000">pullback_pr1</text>
</a>
</g>
</g>
<!-- Pullback_pullback_pr1&#45;&gt;Pullback_Pullback -->
<g id="edge13" class="edge">
<title>Pullback_pullback_pr1&#45;&gt;Pullback_Pullback</title>
<path fill="none" stroke="#000000" d="M129.9247,-340.8042C138.2832,-337.8807 146.8854,-334.8924 155,-332.1086 392.0315,-250.7913 677.2748,-156.4411 783.9679,-121.2718"/>
<polygon fill="#000000" stroke="#000000" points="785.3259,-124.5095 793.7281,-118.0555 783.135,-117.8612 785.3259,-124.5095"/>
</g>
</g>
</svg>
