<?xml version="1.0" encoding="UTF-8" standalone="no"?>
<!DOCTYPE svg PUBLIC "-//W3C//DTD SVG 1.1//EN"
 "http://www.w3.org/Graphics/SVG/1.1/DTD/svg11.dtd">
<!-- Generated by graphviz version 2.26.3 (20100126.1600)
 -->
<!-- Title: HoTT_categories_Adjoint_Composition Pages: 1 -->
<svg width="1348pt" height="678pt"
 viewBox="0.00 0.00 1348.00 678.00" xmlns="http://www.w3.org/2000/svg" xmlns:xlink="http://www.w3.org/1999/xlink">
<g id="graph1" class="graph" transform="scale(1 1) rotate(0) translate(4 674)">
<title>HoTT_categories_Adjoint_Composition</title>
<polygon fill="white" stroke="white" points="-4,5 -4,-674 1345,-674 1345,5 -4,5"/>
<g id="graph2" class="cluster"><title>cluster_IdentityLaws</title>
<polygon fill="#ffffc3" stroke="black" points="836,-321.751 836,-473.164 1166,-473.164 1166,-321.751 836,-321.751"/>
<text text-anchor="middle" x="889.5" y="-456.564" font-family="Times Roman,serif" font-size="14.00">IdentityLaws</text>
</g>
<g id="graph3" class="cluster"><title>cluster_AssociativityLaw</title>
<polygon fill="#ffffc3" stroke="black" points="1174,-321.751 1174,-473.164 1332,-473.164 1332,-321.751 1174,-321.751"/>
<text text-anchor="middle" x="1240" y="-456.564" font-family="Times Roman,serif" font-size="14.00">AssociativityLaw</text>
</g>
<g id="graph4" class="cluster"><title>cluster_Composition</title>
<polygon fill="#ffffc3" stroke="black" points="8,-321.751 8,-654.859 828,-654.859 828,-321.751 8,-321.751"/>
<text text-anchor="middle" x="58.5" y="-638.259" font-family="Times Roman,serif" font-size="14.00">Composition</text>
</g>
<g id="graph5" class="cluster"><title>cluster_Core</title>
<polygon fill="#ffffc3" stroke="black" points="378,-15.1412 378,-306.61 1198,-306.61 1198,-15.1412 378,-15.1412"/>
<text text-anchor="middle" x="402.5" y="-290.01" font-family="Times Roman,serif" font-size="14.00">Core</text>
</g>
<!-- IdentityLaws_right_identity -->
<g id="node1" class="node"><title>IdentityLaws_right_identity</title>
<a xlink:href="IdentityLaws.html#right_identity" xlink:title="right_identity">
<ellipse fill="#facdef" stroke="black" cx="922" cy="-373.141" rx="77.7817" ry="18.3848"/>
<text text-anchor="middle" x="922" y="-369.541" font-family="Times Roman,serif" font-size="14.00">right_identity</text>
</a>
</g>
<!-- Core_compose -->
<g id="node3" class="node"><title>Core_compose</title>
<a xlink:href="Core.html#compose" xlink:title="compose">
<ellipse fill="#f070d1" stroke="black" cx="927" cy="-206.141" rx="53.2379" ry="18.3848"/>
<text text-anchor="middle" x="927" y="-202.541" font-family="Times Roman,serif" font-size="14.00">compose</text>
</a>
</g>
<!-- IdentityLaws_right_identity&#45;&gt;Core_compose -->
<g id="edge2" class="edge"><title>IdentityLaws_right_identity&#45;&gt;Core_compose</title>
<path fill="none" stroke="black" d="M922.554,-354.631C923.421,-325.665 925.106,-269.393 926.134,-235.051"/>
<polygon fill="black" stroke="black" points="929.642,-234.834 926.443,-224.734 922.646,-234.625 929.642,-234.834"/>
</g>
<!-- IdentityLaws_left_identity -->
<g id="node2" class="node"><title>IdentityLaws_left_identity</title>
<a xlink:href="IdentityLaws.html#left_identity" xlink:title="left_identity">
<ellipse fill="#facdef" stroke="black" cx="1088" cy="-373.141" rx="70.2092" ry="18.3848"/>
<text text-anchor="middle" x="1088" y="-369.541" font-family="Times Roman,serif" font-size="14.00">left_identity</text>
</a>
</g>
<!-- IdentityLaws_left_identity&#45;&gt;Core_compose -->
<g id="edge4" class="edge"><title>IdentityLaws_left_identity&#45;&gt;Core_compose</title>
<path fill="none" stroke="black" d="M1070.46,-354.951C1041.52,-324.929 983.705,-264.959 950.996,-231.031"/>
<polygon fill="black" stroke="black" points="953.489,-228.575 944.029,-223.805 948.45,-233.433 953.489,-228.575"/>
</g>
<!-- Core_compose_subproof0 -->
<g id="node4" class="node"><title>Core_compose_subproof0</title>
<a xlink:href="Core.html#compose_subproof0" xlink:title="compose_subproof0">
<ellipse fill="#facdef" stroke="black" cx="493" cy="-66.1412" rx="106.98" ry="18.3848"/>
<text text-anchor="middle" x="493" y="-62.5412" font-family="Times Roman,serif" font-size="14.00">compose_subproof0</text>
</a>
</g>
<!-- Core_compose&#45;&gt;Core_compose_subproof0 -->
<g id="edge6" class="edge"><title>Core_compose&#45;&gt;Core_compose_subproof0</title>
<path fill="none" stroke="black" d="M887.72,-193.47C811.62,-168.922 643.652,-114.739 553.309,-85.5959"/>
<polygon fill="black" stroke="black" points="554.343,-82.2517 543.751,-82.5126 552.194,-88.9137 554.343,-82.2517"/>
</g>
<!-- Core_compose_subproof -->
<g id="node5" class="node"><title>Core_compose_subproof</title>
<a xlink:href="Core.html#compose_subproof" xlink:title="compose_subproof">
<ellipse fill="#facdef" stroke="black" cx="719" cy="-66.1412" rx="101.116" ry="18.3848"/>
<text text-anchor="middle" x="719" y="-62.5412" font-family="Times Roman,serif" font-size="14.00">compose_subproof</text>
</a>
</g>
<!-- Core_compose&#45;&gt;Core_compose_subproof -->
<g id="edge8" class="edge"><title>Core_compose&#45;&gt;Core_compose_subproof</title>
<path fill="none" stroke="black" d="M902.323,-189.532C865.553,-164.782 796.212,-118.111 754.151,-89.8003"/>
<polygon fill="black" stroke="black" points="755.861,-86.7326 745.611,-84.0524 751.952,-92.5398 755.861,-86.7326"/>
</g>
<!-- Core_compose_counit -->
<g id="node6" class="node"><title>Core_compose_counit</title>
<a xlink:href="Core.html#compose_counit" xlink:title="compose_counit">
<ellipse fill="#f070d1" stroke="black" cx="927" cy="-66.1412" rx="89.0955" ry="18.3848"/>
<text text-anchor="middle" x="927" y="-62.5412" font-family="Times Roman,serif" font-size="14.00">compose_counit</text>
</a>
</g>
<!-- Core_compose&#45;&gt;Core_compose_counit -->
<g id="edge10" class="edge"><title>Core_compose&#45;&gt;Core_compose_counit</title>
<path fill="none" stroke="black" d="M927,-187.55C927,-163.911 927,-122.84 927,-95.0857"/>
<polygon fill="black" stroke="black" points="930.5,-94.809 927,-84.8091 923.5,-94.8091 930.5,-94.809"/>
</g>
<!-- Core_compose_unit -->
<g id="node7" class="node"><title>Core_compose_unit</title>
<a xlink:href="Core.html#compose_unit" xlink:title="compose_unit">
<ellipse fill="#f070d1" stroke="black" cx="1112" cy="-66.1412" rx="77.9889" ry="18.3848"/>
<text text-anchor="middle" x="1112" y="-62.5412" font-family="Times Roman,serif" font-size="14.00">compose_unit</text>
</a>
</g>
<!-- Core_compose&#45;&gt;Core_compose_unit -->
<g id="edge12" class="edge"><title>Core_compose&#45;&gt;Core_compose_unit</title>
<path fill="none" stroke="black" d="M949.315,-189.254C982.016,-164.508 1043.1,-118.278 1080.41,-90.0499"/>
<polygon fill="black" stroke="black" points="1082.58,-92.7966 1088.44,-83.9712 1078.35,-87.2147 1082.58,-92.7966"/>
</g>
<!-- Composition_right_identity -->
<g id="node8" class="node"><title>Composition_right_identity</title>
<a xlink:href="Composition.html#right_identity" xlink:title="right_identity">
<ellipse fill="#f070d1" stroke="black" cx="384" cy="-539.141" rx="77.7817" ry="18.3848"/>
<ellipse fill="none" stroke="black" cx="384" cy="-539.141" rx="81.7817" ry="22.3848"/>
<ellipse fill="none" stroke="black" cx="384" cy="-539.141" rx="85.7817" ry="26.3848"/>
<text text-anchor="middle" x="384" y="-535.541" font-family="Times Roman,serif" font-size="14.00">right_identity</text>
</a>
</g>
<!-- Composition_right_identity&#45;&gt;IdentityLaws_right_identity -->
<g id="edge14" class="edge"><title>Composition_right_identity&#45;&gt;IdentityLaws_right_identity</title>
<path fill="none" stroke="black" d="M446.762,-520.94C457.498,-517.931 468.555,-514.897 479,-512.141 635.136,-470.95 682.378,-486.874 832,-426.141 851.422,-418.258 871.654,-406.688 888.005,-396.368"/>
<polygon fill="black" stroke="black" points="890.147,-399.151 896.66,-390.794 886.357,-393.266 890.147,-399.151"/>
</g>
<!-- Composition_left_identity -->
<g id="node9" class="node"><title>Composition_left_identity</title>
<a xlink:href="Composition.html#left_identity" xlink:title="left_identity">
<ellipse fill="#f070d1" stroke="black" cx="566" cy="-539.141" rx="70.2603" ry="18.3848"/>
<ellipse fill="none" stroke="black" cx="566" cy="-539.141" rx="74.2348" ry="22.3848"/>
<ellipse fill="none" stroke="black" cx="566" cy="-539.141" rx="78.2093" ry="26.3848"/>
<text text-anchor="middle" x="566" y="-535.541" font-family="Times Roman,serif" font-size="14.00">left_identity</text>
</a>
</g>
<!-- Composition_left_identity&#45;&gt;IdentityLaws_left_identity -->
<g id="edge16" class="edge"><title>Composition_left_identity&#45;&gt;IdentityLaws_left_identity</title>
<path fill="none" stroke="black" d="M622.94,-520.899C632.926,-517.863 643.242,-514.831 653,-512.141 809.921,-468.885 859.976,-491.617 1009,-426.141 1026.15,-418.604 1043.62,-407.338 1057.75,-397.128"/>
<polygon fill="black" stroke="black" points="1060.14,-399.717 1066.09,-390.951 1055.97,-394.093 1060.14,-399.717"/>
</g>
<!-- Composition_associativity -->
<g id="node10" class="node"><title>Composition_associativity</title>
<a xlink:href="Composition.html#associativity" xlink:title="associativity">
<ellipse fill="#f070d1" stroke="black" cx="741" cy="-539.141" rx="70.9686" ry="18.3848"/>
<ellipse fill="none" stroke="black" cx="741" cy="-539.141" rx="74.9435" ry="22.3848"/>
<ellipse fill="none" stroke="black" cx="741" cy="-539.141" rx="78.9183" ry="26.3848"/>
<text text-anchor="middle" x="741" y="-535.541" font-family="Times Roman,serif" font-size="14.00">associativity</text>
</a>
</g>
<!-- AssociativityLaw_associativity -->
<g id="node16" class="node"><title>AssociativityLaw_associativity</title>
<a xlink:href="AssociativityLaw.html#associativity" xlink:title="associativity">
<ellipse fill="#facdef" stroke="black" cx="1253" cy="-373.141" rx="70.9184" ry="18.3848"/>
<text text-anchor="middle" x="1253" y="-369.541" font-family="Times Roman,serif" font-size="14.00">associativity</text>
</a>
</g>
<!-- Composition_associativity&#45;&gt;AssociativityLaw_associativity -->
<g id="edge18" class="edge"><title>Composition_associativity&#45;&gt;AssociativityLaw_associativity</title>
<path fill="none" stroke="black" d="M811.962,-527.451C898.92,-511.56 1049.54,-478.915 1170,-426.141 1187.93,-418.284 1206.43,-406.85 1221.4,-396.612"/>
<polygon fill="black" stroke="black" points="1223.59,-399.356 1229.78,-390.758 1219.58,-393.618 1223.59,-399.356"/>
</g>
<!-- Composition_compose -->
<g id="node11" class="node"><title>Composition_compose</title>
<a xlink:href="Composition.html#compose" xlink:title="compose">
<ellipse fill="#f070d1" stroke="black" cx="219" cy="-539.141" rx="53.3032" ry="18.3848"/>
<ellipse fill="none" stroke="black" cx="219" cy="-539.141" rx="57.2707" ry="22.3848"/>
<ellipse fill="none" stroke="black" cx="219" cy="-539.141" rx="61.2382" ry="26.3848"/>
<text text-anchor="middle" x="219" y="-535.541" font-family="Times Roman,serif" font-size="14.00">compose</text>
</a>
</g>
<!-- Composition_compose_subproof0 -->
<g id="node12" class="node"><title>Composition_compose_subproof0</title>
<a xlink:href="Composition.html#compose_subproof0" xlink:title="compose_subproof0">
<ellipse fill="#f070d1" stroke="black" cx="493" cy="-373.141" rx="106.98" ry="18.3848"/>
<text text-anchor="middle" x="493" y="-369.541" font-family="Times Roman,serif" font-size="14.00">compose_subproof0</text>
</a>
</g>
<!-- Composition_compose&#45;&gt;Composition_compose_subproof0 -->
<g id="edge20" class="edge"><title>Composition_compose&#45;&gt;Composition_compose_subproof0</title>
<path fill="none" stroke="black" d="M254.821,-517.44C306.518,-486.12 401.644,-428.488 454.694,-396.349"/>
<polygon fill="black" stroke="black" points="456.722,-399.212 463.462,-391.037 453.095,-393.225 456.722,-399.212"/>
</g>
<!-- Composition_compose_subproof -->
<g id="node13" class="node"><title>Composition_compose_subproof</title>
<a xlink:href="Composition.html#compose_subproof" xlink:title="compose_subproof">
<ellipse fill="#f070d1" stroke="black" cx="719" cy="-373.141" rx="101.116" ry="18.3848"/>
<text text-anchor="middle" x="719" y="-369.541" font-family="Times Roman,serif" font-size="14.00">compose_subproof</text>
</a>
</g>
<!-- Composition_compose&#45;&gt;Composition_compose_subproof -->
<g id="edge22" class="edge"><title>Composition_compose&#45;&gt;Composition_compose_subproof</title>
<path fill="none" stroke="black" d="M263.935,-521.006C272.216,-517.893 280.827,-514.807 289,-512.141 429.007,-466.468 470.953,-477.437 609,-426.141 632.263,-417.497 657.253,-405.675 677.527,-395.39"/>
<polygon fill="black" stroke="black" points="679.189,-398.47 686.486,-390.789 675.992,-392.243 679.189,-398.47"/>
</g>
<!-- Composition_compose_counit -->
<g id="node14" class="node"><title>Composition_compose_counit</title>
<a xlink:href="Composition.html#compose_counit" xlink:title="compose_counit">
<ellipse fill="#f070d1" stroke="black" cx="105" cy="-373.141" rx="89.0955" ry="18.3848"/>
<text text-anchor="middle" x="105" y="-369.541" font-family="Times Roman,serif" font-size="14.00">compose_counit</text>
</a>
</g>
<!-- Composition_compose&#45;&gt;Composition_compose_counit -->
<g id="edge24" class="edge"><title>Composition_compose&#45;&gt;Composition_compose_counit</title>
<path fill="none" stroke="black" d="M201.437,-513.568C180.314,-482.809 145.018,-431.414 123.49,-400.066"/>
<polygon fill="black" stroke="black" points="126.353,-398.051 117.807,-391.789 120.582,-402.014 126.353,-398.051"/>
</g>
<!-- Composition_compose_unit -->
<g id="node15" class="node"><title>Composition_compose_unit</title>
<a xlink:href="Composition.html#compose_unit" xlink:title="compose_unit">
<ellipse fill="#f070d1" stroke="black" cx="290" cy="-373.141" rx="77.9889" ry="18.3848"/>
<text text-anchor="middle" x="290" y="-369.541" font-family="Times Roman,serif" font-size="14.00">compose_unit</text>
</a>
</g>
<!-- Composition_compose&#45;&gt;Composition_compose_unit -->
<g id="edge26" class="edge"><title>Composition_compose&#45;&gt;Composition_compose_unit</title>
<path fill="none" stroke="black" d="M230.25,-512.838C243.305,-482.316 264.741,-432.199 278.076,-401.02"/>
<polygon fill="black" stroke="black" points="281.385,-402.182 282.1,-391.612 274.949,-399.429 281.385,-402.182"/>
</g>
<!-- Composition_compose_subproof0&#45;&gt;Core_compose_subproof0 -->
<g id="edge28" class="edge"><title>Composition_compose_subproof0&#45;&gt;Core_compose_subproof0</title>
<path fill="none" stroke="black" d="M493,-354.399C493,-302.696 493,-157.76 493,-95.3409"/>
<polygon fill="black" stroke="black" points="496.5,-95.0281 493,-85.0281 489.5,-95.0282 496.5,-95.0281"/>
</g>
<!-- Composition_compose_subproof&#45;&gt;Core_compose_subproof -->
<g id="edge30" class="edge"><title>Composition_compose_subproof&#45;&gt;Core_compose_subproof</title>
<path fill="none" stroke="black" d="M719,-354.399C719,-302.696 719,-157.76 719,-95.3409"/>
<polygon fill="black" stroke="black" points="722.5,-95.0281 719,-85.0281 715.5,-95.0282 722.5,-95.0281"/>
</g>
<!-- AssociativityLaw_associativity&#45;&gt;Core_compose -->
<g id="edge32" class="edge"><title>AssociativityLaw_associativity&#45;&gt;Core_compose</title>
<path fill="none" stroke="black" d="M1220.55,-356.518C1160.22,-325.615 1031.05,-259.442 966.052,-226.147"/>
<polygon fill="black" stroke="black" points="967.44,-222.925 956.944,-221.481 964.249,-229.155 967.44,-222.925"/>
</g>
</g>
</svg>
