<?xml version="1.0" encoding="UTF-8" standalone="no"?>
<!DOCTYPE svg PUBLIC "-//W3C//DTD SVG 1.1//EN"
 "http://www.w3.org/Graphics/SVG/1.1/DTD/svg11.dtd">
<!-- Generated by graphviz version 2.26.3 (20100126.1600)
 -->
<!-- Title: HoTT_TruncType Pages: 1 -->
<svg width="2016pt" height="1012pt"
 viewBox="0.00 0.00 2016.00 1012.00" xmlns="http://www.w3.org/2000/svg" xmlns:xlink="http://www.w3.org/1999/xlink">
<g id="graph1" class="graph" transform="scale(1 1) rotate(0) translate(4 1008)">
<title>HoTT_TruncType</title>
<polygon fill="white" stroke="white" points="-4,5 -4,-1008 2013,-1008 2013,5 -4,5"/>
<g id="graph2" class="cluster"><title>cluster_TruncType</title>
<polygon fill="#ffffc3" stroke="black" points="8,-21.9454 8,-982.055 2000,-982.055 2000,-21.9454 8,-21.9454"/>
<text text-anchor="middle" x="51" y="-965.455" font-family="Times Roman,serif" font-size="14.00">TruncType</text>
</g>
<!-- TruncType_path_iff_hprop -->
<g id="node1" class="node"><title>TruncType_path_iff_hprop</title>
<a xlink:href="TruncType.html#path_iff_hprop" xlink:title="path_iff_hprop">
<ellipse fill="#f070d1" stroke="black" cx="1902" cy="-814.945" rx="82.0244" ry="18.3848"/>
<ellipse fill="none" stroke="black" cx="1902" cy="-814.945" rx="86.0244" ry="22.3848"/>
<ellipse fill="none" stroke="black" cx="1902" cy="-814.945" rx="90.0244" ry="26.3848"/>
<text text-anchor="middle" x="1902" y="-811.345" font-family="Times Roman,serif" font-size="14.00">path_iff_hprop</text>
</a>
</g>
<!-- TruncType_path_iff_hprop_uncurried -->
<g id="node5" class="node"><title>TruncType_path_iff_hprop_uncurried</title>
<a xlink:href="TruncType.html#path_iff_hprop_uncurried" xlink:title="path_iff_hprop_uncurried">
<ellipse fill="#f070d1" stroke="black" cx="1858" cy="-567.945" rx="133.851" ry="18.3848"/>
<text text-anchor="middle" x="1858" y="-564.345" font-family="Times Roman,serif" font-size="14.00">path_iff_hprop_uncurried</text>
</a>
</g>
<!-- TruncType_path_iff_hprop&#45;&gt;TruncType_path_iff_hprop_uncurried -->
<g id="edge2" class="edge"><title>TruncType_path_iff_hprop&#45;&gt;TruncType_path_iff_hprop_uncurried</title>
<path fill="none" stroke="black" d="M1897.21,-788.042C1888.84,-741.08 1871.65,-644.576 1863.08,-596.488"/>
<polygon fill="black" stroke="black" points="1866.5,-595.682 1861.3,-586.45 1859.6,-596.909 1866.5,-595.682"/>
</g>
<!-- TruncType_path_iff_ishprop -->
<g id="node2" class="node"><title>TruncType_path_iff_ishprop</title>
<a xlink:href="TruncType.html#path_iff_ishprop" xlink:title="path_iff_ishprop">
<ellipse fill="#f070d1" stroke="black" cx="1696" cy="-814.945" rx="89.8026" ry="18.3848"/>
<ellipse fill="none" stroke="black" cx="1696" cy="-814.945" rx="93.8026" ry="22.3848"/>
<ellipse fill="none" stroke="black" cx="1696" cy="-814.945" rx="97.8026" ry="26.3848"/>
<text text-anchor="middle" x="1696" y="-811.345" font-family="Times Roman,serif" font-size="14.00">path_iff_ishprop</text>
</a>
</g>
<!-- TruncType_path_iff_ishprop_uncurried -->
<g id="node6" class="node"><title>TruncType_path_iff_ishprop_uncurried</title>
<a xlink:href="TruncType.html#path_iff_ishprop_uncurried" xlink:title="path_iff_ishprop_uncurried">
<ellipse fill="#f070d1" stroke="black" cx="1565" cy="-567.945" rx="140.922" ry="18.3848"/>
<text text-anchor="middle" x="1565" y="-564.345" font-family="Times Roman,serif" font-size="14.00">path_iff_ishprop_uncurried</text>
</a>
</g>
<!-- TruncType_path_iff_ishprop&#45;&gt;TruncType_path_iff_ishprop_uncurried -->
<g id="edge4" class="edge"><title>TruncType_path_iff_ishprop&#45;&gt;TruncType_path_iff_ishprop_uncurried</title>
<path fill="none" stroke="black" d="M1681.98,-788.512C1656.98,-741.376 1604.95,-643.278 1579.57,-595.41"/>
<polygon fill="black" stroke="black" points="1582.64,-593.73 1574.86,-586.536 1576.45,-597.01 1582.64,-593.73"/>
</g>
<!-- TruncType_isequiv_path_iff_hprop_uncurried -->
<g id="node3" class="node"><title>TruncType_isequiv_path_iff_hprop_uncurried</title>
<a xlink:href="TruncType.html#isequiv_path_iff_hprop_uncurried" xlink:title="isequiv_path_iff_hprop_uncurried">
<ellipse fill="#f070d1" stroke="black" cx="1178" cy="-567.945" rx="173.241" ry="18.3848"/>
<ellipse fill="none" stroke="black" cx="1178" cy="-567.945" rx="177.241" ry="22.3848"/>
<ellipse fill="none" stroke="black" cx="1178" cy="-567.945" rx="181.241" ry="26.3848"/>
<text text-anchor="middle" x="1178" y="-564.345" font-family="Times Roman,serif" font-size="14.00">isequiv_path_iff_hprop_uncurried</text>
</a>
</g>
<!-- TruncType_path_hprop -->
<g id="node15" class="node"><title>TruncType_path_hprop</title>
<a xlink:href="TruncType.html#path_hprop" xlink:title="path_hprop">
<ellipse fill="#f070d1" stroke="black" cx="1283" cy="-320.945" rx="67.1751" ry="18.3848"/>
<text text-anchor="middle" x="1283" y="-317.345" font-family="Times Roman,serif" font-size="14.00">path_hprop</text>
</a>
</g>
<!-- TruncType_isequiv_path_iff_hprop_uncurried&#45;&gt;TruncType_path_hprop -->
<g id="edge6" class="edge"><title>TruncType_isequiv_path_iff_hprop_uncurried&#45;&gt;TruncType_path_hprop</title>
<path fill="none" stroke="black" d="M1189.44,-541.042C1209.48,-493.883 1250.77,-396.764 1271.12,-348.884"/>
<polygon fill="black" stroke="black" points="1274.44,-350.023 1275.13,-339.45 1268,-347.284 1274.44,-350.023"/>
</g>
<!-- TruncType_isequiv_path_trunctype -->
<g id="node17" class="node"><title>TruncType_isequiv_path_trunctype</title>
<a xlink:href="TruncType.html#isequiv_path_trunctype" xlink:title="isequiv_path_trunctype">
<ellipse fill="#f070d1" stroke="black" cx="1072" cy="-320.945" rx="126.072" ry="18.3848"/>
<text text-anchor="middle" x="1072" y="-317.345" font-family="Times Roman,serif" font-size="14.00">isequiv_path_trunctype</text>
</a>
</g>
<!-- TruncType_isequiv_path_iff_hprop_uncurried&#45;&gt;TruncType_isequiv_path_trunctype -->
<g id="edge8" class="edge"><title>TruncType_isequiv_path_iff_hprop_uncurried&#45;&gt;TruncType_isequiv_path_trunctype</title>
<path fill="none" stroke="black" d="M1166.45,-541.042C1146.22,-493.883 1104.54,-396.764 1083.99,-348.884"/>
<polygon fill="black" stroke="black" points="1087.1,-347.26 1079.94,-339.45 1080.67,-350.02 1087.1,-347.26"/>
</g>
<!-- TruncType_isequiv_path_iff_ishprop_uncurried -->
<g id="node4" class="node"><title>TruncType_isequiv_path_iff_ishprop_uncurried</title>
<a xlink:href="TruncType.html#isequiv_path_iff_ishprop_uncurried" xlink:title="isequiv_path_iff_ishprop_uncurried">
<ellipse fill="#f070d1" stroke="black" cx="1391" cy="-814.945" rx="181.019" ry="18.3848"/>
<ellipse fill="none" stroke="black" cx="1391" cy="-814.945" rx="185.019" ry="22.3848"/>
<ellipse fill="none" stroke="black" cx="1391" cy="-814.945" rx="189.019" ry="26.3848"/>
<text text-anchor="middle" x="1391" y="-811.345" font-family="Times Roman,serif" font-size="14.00">isequiv_path_iff_ishprop_uncurried</text>
</a>
</g>
<!-- TruncType_path_iff_hprop_uncurried&#45;&gt;TruncType_path_hprop -->
<g id="edge10" class="edge"><title>TruncType_path_iff_hprop_uncurried&#45;&gt;TruncType_path_hprop</title>
<path fill="none" stroke="black" d="M1816.65,-550.182C1712.16,-505.299 1438.13,-387.585 1328.9,-340.664"/>
<polygon fill="black" stroke="black" points="1330.04,-337.344 1319.47,-336.613 1327.28,-343.776 1330.04,-337.344"/>
</g>
<!-- TruncType_trunc_path_IsHProp -->
<g id="node7" class="node"><title>TruncType_trunc_path_IsHProp</title>
<a xlink:href="TruncType.html#trunc_path_IsHProp" xlink:title="trunc_path_IsHProp">
<ellipse fill="#facdef" stroke="black" cx="1068" cy="-814.945" rx="108.187" ry="18.3848"/>
<ellipse fill="none" stroke="black" cx="1068" cy="-814.945" rx="112.187" ry="22.3848"/>
<ellipse fill="none" stroke="black" cx="1068" cy="-814.945" rx="116.187" ry="26.3848"/>
<text text-anchor="middle" x="1068" y="-811.345" font-family="Times Roman,serif" font-size="14.00">trunc_path_IsHProp</text>
</a>
</g>
<!-- TruncType_is_true -->
<g id="node8" class="node"><title>TruncType_is_true</title>
<a xlink:href="TruncType.html#is_true" xlink:title="is_true">
<ellipse fill="#f070d1" stroke="black" cx="881" cy="-814.945" rx="44.8319" ry="18.3848"/>
<ellipse fill="none" stroke="black" cx="881" cy="-814.945" rx="48.7945" ry="22.3848"/>
<ellipse fill="none" stroke="black" cx="881" cy="-814.945" rx="52.7571" ry="26.3848"/>
<text text-anchor="middle" x="881" y="-811.345" font-family="Times Roman,serif" font-size="14.00">is_true</text>
</a>
</g>
<!-- TruncType_False_hp -->
<g id="node10" class="node"><title>TruncType_False_hp</title>
<a xlink:href="TruncType.html#False_hp" xlink:title="False_hp">
<ellipse fill="#f070d1" stroke="black" cx="784" cy="-567.945" rx="53.033" ry="18.3848"/>
<text text-anchor="middle" x="784" y="-564.345" font-family="Times Roman,serif" font-size="14.00">False_hp</text>
</a>
</g>
<!-- TruncType_is_true&#45;&gt;TruncType_False_hp -->
<g id="edge12" class="edge"><title>TruncType_is_true&#45;&gt;TruncType_False_hp</title>
<path fill="none" stroke="black" d="M870.619,-788.512C852.186,-741.572 813.905,-644.094 795.022,-596.011"/>
<polygon fill="black" stroke="black" points="798.214,-594.564 791.301,-586.536 791.698,-597.123 798.214,-594.564"/>
</g>
<!-- TruncType_Unit_hp -->
<g id="node11" class="node"><title>TruncType_Unit_hp</title>
<a xlink:href="TruncType.html#Unit_hp" xlink:title="Unit_hp">
<ellipse fill="#f070d1" stroke="black" cx="905" cy="-567.945" rx="50.2046" ry="18.3848"/>
<text text-anchor="middle" x="905" y="-564.345" font-family="Times Roman,serif" font-size="14.00">Unit_hp</text>
</a>
</g>
<!-- TruncType_is_true&#45;&gt;TruncType_Unit_hp -->
<g id="edge14" class="edge"><title>TruncType_is_true&#45;&gt;TruncType_Unit_hp</title>
<path fill="none" stroke="black" d="M883.614,-788.042C888.177,-741.08 897.554,-644.576 902.227,-596.488"/>
<polygon fill="black" stroke="black" points="905.718,-596.742 903.202,-586.45 898.751,-596.065 905.718,-596.742"/>
</g>
<!-- TruncType_Negation_hp -->
<g id="node9" class="node"><title>TruncType_Negation_hp</title>
<a xlink:href="TruncType.html#Negation_hp" xlink:title="Negation_hp">
<ellipse fill="#f070d1" stroke="black" cx="729" cy="-814.945" rx="73.0879" ry="18.3848"/>
<ellipse fill="none" stroke="black" cx="729" cy="-814.945" rx="77.0634" ry="22.3848"/>
<ellipse fill="none" stroke="black" cx="729" cy="-814.945" rx="81.0389" ry="26.3848"/>
<text text-anchor="middle" x="729" y="-811.345" font-family="Times Roman,serif" font-size="14.00">Negation_hp</text>
</a>
</g>
<!-- TruncType_Sn_trunctype -->
<g id="node12" class="node"><title>TruncType_Sn_trunctype</title>
<a xlink:href="TruncType.html#Sn_trunctype" xlink:title="Sn_trunctype">
<ellipse fill="#f070d1" stroke="black" cx="544" cy="-814.945" rx="77.7817" ry="18.3848"/>
<ellipse fill="none" stroke="black" cx="544" cy="-814.945" rx="81.7817" ry="22.3848"/>
<ellipse fill="none" stroke="black" cx="544" cy="-814.945" rx="85.7817" ry="26.3848"/>
<text text-anchor="middle" x="544" y="-811.345" font-family="Times Roman,serif" font-size="14.00">Sn_trunctype</text>
</a>
</g>
<!-- TruncType_istrunc_trunctype -->
<g id="node14" class="node"><title>TruncType_istrunc_trunctype</title>
<a xlink:href="TruncType.html#istrunc_trunctype" xlink:title="istrunc_trunctype">
<ellipse fill="#f070d1" stroke="black" cx="413" cy="-567.945" rx="97.7889" ry="18.3848"/>
<text text-anchor="middle" x="413" y="-564.345" font-family="Times Roman,serif" font-size="14.00">istrunc_trunctype</text>
</a>
</g>
<!-- TruncType_Sn_trunctype&#45;&gt;TruncType_istrunc_trunctype -->
<g id="edge16" class="edge"><title>TruncType_Sn_trunctype&#45;&gt;TruncType_istrunc_trunctype</title>
<path fill="none" stroke="black" d="M529.981,-788.512C504.981,-741.376 452.954,-643.278 427.566,-595.41"/>
<polygon fill="black" stroke="black" points="430.637,-593.73 422.86,-586.536 424.453,-597.01 430.637,-593.73"/>
</g>
<!-- TruncType_issig_trunctype -->
<g id="node21" class="node"><title>TruncType_issig_trunctype</title>
<a xlink:href="TruncType.html#issig_trunctype" xlink:title="issig_trunctype">
<ellipse fill="#f070d1" stroke="black" cx="614" cy="-567.945" rx="85.0596" ry="18.3848"/>
<text text-anchor="middle" x="614" y="-564.345" font-family="Times Roman,serif" font-size="14.00">issig_trunctype</text>
</a>
</g>
<!-- TruncType_Sn_trunctype&#45;&gt;TruncType_issig_trunctype -->
<g id="edge18" class="edge"><title>TruncType_Sn_trunctype&#45;&gt;TruncType_issig_trunctype</title>
<path fill="none" stroke="black" d="M551.491,-788.512C564.766,-741.671 592.304,-644.502 605.961,-596.313"/>
<polygon fill="black" stroke="black" points="609.372,-597.111 608.731,-586.536 602.637,-595.203 609.372,-597.111"/>
</g>
<!-- TruncType_isset_hProp -->
<g id="node13" class="node"><title>TruncType_isset_hProp</title>
<a xlink:href="TruncType.html#isset_hProp" xlink:title="isset_hProp">
<ellipse fill="#f070d1" stroke="black" cx="364" cy="-814.945" rx="67.8823" ry="18.3848"/>
<ellipse fill="none" stroke="black" cx="364" cy="-814.945" rx="71.8823" ry="22.3848"/>
<ellipse fill="none" stroke="black" cx="364" cy="-814.945" rx="75.8823" ry="26.3848"/>
<text text-anchor="middle" x="364" y="-811.345" font-family="Times Roman,serif" font-size="14.00">isset_hProp</text>
</a>
</g>
<!-- TruncType_isset_hProp&#45;&gt;TruncType_istrunc_trunctype -->
<g id="edge20" class="edge"><title>TruncType_isset_hProp&#45;&gt;TruncType_istrunc_trunctype</title>
<path fill="none" stroke="black" d="M369.337,-788.042C378.653,-741.08 397.798,-644.576 407.338,-596.488"/>
<polygon fill="black" stroke="black" points="410.816,-596.94 409.329,-586.45 403.95,-595.578 410.816,-596.94"/>
</g>
<!-- TruncType_istrunc_trunctype&#45;&gt;TruncType_isequiv_path_trunctype -->
<g id="edge22" class="edge"><title>TruncType_istrunc_trunctype&#45;&gt;TruncType_isequiv_path_trunctype</title>
<path fill="none" stroke="black" d="M457.262,-551.355C573.563,-507.765 887.637,-390.046 1016.09,-341.9"/>
<polygon fill="black" stroke="black" points="1017.61,-345.068 1025.75,-338.281 1015.16,-338.514 1017.61,-345.068"/>
</g>
<!-- TruncType_path_trunctype -->
<g id="node18" class="node"><title>TruncType_path_trunctype</title>
<a xlink:href="TruncType.html#path_trunctype" xlink:title="path_trunctype">
<ellipse fill="#f070d1" stroke="black" cx="1071" cy="-95.9454" rx="86.9741" ry="18.3848"/>
<text text-anchor="middle" x="1071" y="-92.3454" font-family="Times Roman,serif" font-size="14.00">path_trunctype</text>
</a>
</g>
<!-- TruncType_path_hprop&#45;&gt;TruncType_path_trunctype -->
<g id="edge24" class="edge"><title>TruncType_path_hprop&#45;&gt;TruncType_path_trunctype</title>
<path fill="none" stroke="black" d="M1266.01,-302.913C1228.58,-263.186 1138.89,-167.994 1095.43,-121.87"/>
<polygon fill="black" stroke="black" points="1097.77,-119.256 1088.37,-114.378 1092.68,-124.057 1097.77,-119.256"/>
</g>
<!-- TruncType_path_hset -->
<g id="node16" class="node"><title>TruncType_path_hset</title>
<a xlink:href="TruncType.html#path_hset" xlink:title="path_hset">
<ellipse fill="#f070d1" stroke="black" cx="859" cy="-320.945" rx="60.8112" ry="18.3848"/>
<ellipse fill="none" stroke="black" cx="859" cy="-320.945" rx="64.8112" ry="22.3848"/>
<ellipse fill="none" stroke="black" cx="859" cy="-320.945" rx="68.8112" ry="26.3848"/>
<text text-anchor="middle" x="859" y="-317.345" font-family="Times Roman,serif" font-size="14.00">path_hset</text>
</a>
</g>
<!-- TruncType_path_hset&#45;&gt;TruncType_path_trunctype -->
<g id="edge26" class="edge"><title>TruncType_path_hset&#45;&gt;TruncType_path_trunctype</title>
<path fill="none" stroke="black" d="M882.498,-296.007C923.076,-252.94 1005.87,-165.071 1046.88,-121.548"/>
<polygon fill="black" stroke="black" points="1049.48,-123.886 1053.79,-114.208 1044.39,-119.086 1049.48,-123.886"/>
</g>
<!-- TruncType_equiv_path_trunctype -->
<g id="node19" class="node"><title>TruncType_equiv_path_trunctype</title>
<a xlink:href="TruncType.html#equiv_path_trunctype" xlink:title="equiv_path_trunctype">
<ellipse fill="#f070d1" stroke="black" cx="143" cy="-814.945" rx="118.794" ry="18.3848"/>
<ellipse fill="none" stroke="black" cx="143" cy="-814.945" rx="122.794" ry="22.3848"/>
<ellipse fill="none" stroke="black" cx="143" cy="-814.945" rx="126.794" ry="26.3848"/>
<text text-anchor="middle" x="143" y="-811.345" font-family="Times Roman,serif" font-size="14.00">equiv_path_trunctype</text>
</a>
</g>
<!-- TruncType_isequiv_ap_trunctype -->
<g id="node20" class="node"><title>TruncType_isequiv_ap_trunctype</title>
<a xlink:href="TruncType.html#isequiv_ap_trunctype" xlink:title="isequiv_ap_trunctype">
<ellipse fill="#f070d1" stroke="black" cx="143" cy="-567.945" rx="115.966" ry="18.3848"/>
<text text-anchor="middle" x="143" y="-564.345" font-family="Times Roman,serif" font-size="14.00">isequiv_ap_trunctype</text>
</a>
</g>
<!-- TruncType_equiv_path_trunctype&#45;&gt;TruncType_isequiv_ap_trunctype -->
<g id="edge28" class="edge"><title>TruncType_equiv_path_trunctype&#45;&gt;TruncType_isequiv_ap_trunctype</title>
<path fill="none" stroke="black" d="M143,-788.042C143,-741.08 143,-644.576 143,-596.488"/>
<polygon fill="black" stroke="black" points="146.5,-596.45 143,-586.45 139.5,-596.451 146.5,-596.45"/>
</g>
</g>
</svg>
