<?xml version="1.0" encoding="UTF-8" standalone="no"?>
<!DOCTYPE svg PUBLIC "-//W3C//DTD SVG 1.1//EN"
 "http://www.w3.org/Graphics/SVG/1.1/DTD/svg11.dtd">
<!-- Generated by graphviz version 2.39.20141222.0545 (20141222.0545)
 -->
<!-- Title: HoTT_Categories_Functor_Pointwise_Core Pages: 1 -->
<svg width="1424pt" height="716pt"
 viewBox="0.00 0.00 1424.00 716.00" xmlns="http://www.w3.org/2000/svg" xmlns:xlink="http://www.w3.org/1999/xlink">
<g id="graph0" class="graph" transform="scale(1 1) rotate(0) translate(4 712)">
<title>HoTT_Categories_Functor_Pointwise_Core</title>
<polygon fill="white" stroke="transparent" points="-4,4 -4,-712 1420,-712 1420,4 -4,4"/>
<g id="clust1" class="cluster"><title>cluster_Core</title>
<polygon fill="#ffffc3" stroke="black" points="8,-22.5657 8,-685.434 1408,-685.434 1408,-22.5657 8,-22.5657"/>
<text text-anchor="middle" x="29.5" y="-670.234" font-family="Times,serif" font-size="14.00">Core</text>
</g>
<!-- Core_pointwise_whiskerR -->
<g id="node1" class="node"><title>Core_pointwise_whiskerR</title>
<g id="a_node1"><a xlink:href="Core.html#pointwise_whiskerR" xlink:title="pointwise_whiskerR">
<ellipse fill="#f070d1" stroke="black" cx="1152" cy="-524.566" rx="83.3687" ry="18"/>
<ellipse fill="none" stroke="black" cx="1152" cy="-524.566" rx="87.3772" ry="22"/>
<ellipse fill="none" stroke="black" cx="1152" cy="-524.566" rx="91.3856" ry="26"/>
<text text-anchor="middle" x="1152" y="-520.866" font-family="Times,serif" font-size="14.00">pointwise_whiskerR</text>
</a>
</g>
</g>
<!-- Core_pointwise_whiskerR_subproof0 -->
<g id="node2" class="node"><title>Core_pointwise_whiskerR_subproof0</title>
<g id="a_node2"><a xlink:href="Core.html#pointwise_whiskerR_subproof0" xlink:title="pointwise_whiskerR_subproof0">
<ellipse fill="#facdef" stroke="black" cx="1023" cy="-298.566" rx="122.678" ry="18"/>
<text text-anchor="middle" x="1023" y="-294.866" font-family="Times,serif" font-size="14.00">pointwise_whiskerR_subproof0</text>
</a>
</g>
</g>
<!-- Core_pointwise_whiskerR&#45;&gt;Core_pointwise_whiskerR_subproof0 -->
<g id="edge1" class="edge"><title>Core_pointwise_whiskerR&#45;&gt;Core_pointwise_whiskerR_subproof0</title>
<path fill="none" stroke="black" d="M1137.2,-498.641C1112.6,-455.542 1063.52,-369.563 1038.48,-325.686"/>
<polygon fill="black" stroke="black" points="1041.37,-323.69 1033.37,-316.741 1035.29,-327.161 1041.37,-323.69"/>
</g>
<!-- Core_pointwise_whiskerR_subproof -->
<g id="node3" class="node"><title>Core_pointwise_whiskerR_subproof</title>
<g id="a_node3"><a xlink:href="Core.html#pointwise_whiskerR_subproof" xlink:title="pointwise_whiskerR_subproof">
<ellipse fill="#facdef" stroke="black" cx="1282" cy="-298.566" rx="118.079" ry="18"/>
<text text-anchor="middle" x="1282" y="-294.866" font-family="Times,serif" font-size="14.00">pointwise_whiskerR_subproof</text>
</a>
</g>
</g>
<!-- Core_pointwise_whiskerR&#45;&gt;Core_pointwise_whiskerR_subproof -->
<g id="edge2" class="edge"><title>Core_pointwise_whiskerR&#45;&gt;Core_pointwise_whiskerR_subproof</title>
<path fill="none" stroke="black" d="M1166.91,-498.641C1191.76,-455.451 1241.37,-369.202 1266.56,-325.41"/>
<polygon fill="black" stroke="black" points="1269.59,-327.154 1271.55,-316.741 1263.53,-323.664 1269.59,-327.154"/>
</g>
<!-- Core_pointwise_whiskerR_morphism_of -->
<g id="node10" class="node"><title>Core_pointwise_whiskerR_morphism_of</title>
<g id="a_node10"><a xlink:href="Core.html#pointwise_whiskerR_morphism_of" xlink:title="pointwise_whiskerR_morphism_of">
<ellipse fill="#f070d1" stroke="black" cx="1143" cy="-95.5657" rx="135.676" ry="18"/>
<text text-anchor="middle" x="1143" y="-91.8657" font-family="Times,serif" font-size="14.00">pointwise_whiskerR_morphism_of</text>
</a>
</g>
</g>
<!-- Core_pointwise_whiskerR_subproof0&#45;&gt;Core_pointwise_whiskerR_morphism_of -->
<g id="edge3" class="edge"><title>Core_pointwise_whiskerR_subproof0&#45;&gt;Core_pointwise_whiskerR_morphism_of</title>
<path fill="none" stroke="black" d="M1033.65,-280.551C1054.82,-244.737 1102.29,-164.429 1127.15,-122.387"/>
<polygon fill="black" stroke="black" points="1130.3,-123.93 1132.37,-113.54 1124.27,-120.368 1130.3,-123.93"/>
</g>
<!-- Core_pointwise_whiskerR_subproof&#45;&gt;Core_pointwise_whiskerR_morphism_of -->
<g id="edge4" class="edge"><title>Core_pointwise_whiskerR_subproof&#45;&gt;Core_pointwise_whiskerR_morphism_of</title>
<path fill="none" stroke="black" d="M1269.66,-280.551C1245.04,-244.586 1189.69,-163.753 1161,-121.859"/>
<polygon fill="black" stroke="black" points="1163.85,-119.814 1155.31,-113.54 1158.07,-123.769 1163.85,-119.814"/>
</g>
<!-- Core_pointwise_whiskerL -->
<g id="node4" class="node"><title>Core_pointwise_whiskerL</title>
<g id="a_node4"><a xlink:href="Core.html#pointwise_whiskerL" xlink:title="pointwise_whiskerL">
<ellipse fill="#f070d1" stroke="black" cx="635" cy="-524.566" rx="82.5816" ry="18"/>
<ellipse fill="none" stroke="black" cx="635" cy="-524.566" rx="86.5835" ry="22"/>
<ellipse fill="none" stroke="black" cx="635" cy="-524.566" rx="90.5854" ry="26"/>
<text text-anchor="middle" x="635" y="-520.866" font-family="Times,serif" font-size="14.00">pointwise_whiskerL</text>
</a>
</g>
</g>
<!-- Core_pointwise_whiskerL_subproof0 -->
<g id="node5" class="node"><title>Core_pointwise_whiskerL_subproof0</title>
<g id="a_node5"><a xlink:href="Core.html#pointwise_whiskerL_subproof0" xlink:title="pointwise_whiskerL_subproof0">
<ellipse fill="#facdef" stroke="black" cx="506" cy="-298.566" rx="122.379" ry="18"/>
<text text-anchor="middle" x="506" y="-294.866" font-family="Times,serif" font-size="14.00">pointwise_whiskerL_subproof0</text>
</a>
</g>
</g>
<!-- Core_pointwise_whiskerL&#45;&gt;Core_pointwise_whiskerL_subproof0 -->
<g id="edge5" class="edge"><title>Core_pointwise_whiskerL&#45;&gt;Core_pointwise_whiskerL_subproof0</title>
<path fill="none" stroke="black" d="M620.202,-498.641C595.601,-455.542 546.525,-369.563 521.48,-325.686"/>
<polygon fill="black" stroke="black" points="524.371,-323.69 516.374,-316.741 518.292,-327.161 524.371,-323.69"/>
</g>
<!-- Core_pointwise_whiskerL_subproof -->
<g id="node6" class="node"><title>Core_pointwise_whiskerL_subproof</title>
<g id="a_node6"><a xlink:href="Core.html#pointwise_whiskerL_subproof" xlink:title="pointwise_whiskerL_subproof">
<ellipse fill="#facdef" stroke="black" cx="764" cy="-298.566" rx="118.079" ry="18"/>
<text text-anchor="middle" x="764" y="-294.866" font-family="Times,serif" font-size="14.00">pointwise_whiskerL_subproof</text>
</a>
</g>
</g>
<!-- Core_pointwise_whiskerL&#45;&gt;Core_pointwise_whiskerL_subproof -->
<g id="edge6" class="edge"><title>Core_pointwise_whiskerL&#45;&gt;Core_pointwise_whiskerL_subproof</title>
<path fill="none" stroke="black" d="M649.798,-498.641C674.399,-455.542 723.475,-369.563 748.52,-325.686"/>
<polygon fill="black" stroke="black" points="751.708,-327.161 753.626,-316.741 745.629,-323.69 751.708,-327.161"/>
</g>
<!-- Core_pointwise_whiskerL_morphism_of -->
<g id="node11" class="node"><title>Core_pointwise_whiskerL_morphism_of</title>
<g id="a_node11"><a xlink:href="Core.html#pointwise_whiskerL_morphism_of" xlink:title="pointwise_whiskerL_morphism_of">
<ellipse fill="#f070d1" stroke="black" cx="556" cy="-95.5657" rx="135.376" ry="18"/>
<text text-anchor="middle" x="556" y="-91.8657" font-family="Times,serif" font-size="14.00">pointwise_whiskerL_morphism_of</text>
</a>
</g>
</g>
<!-- Core_pointwise_whiskerL_subproof0&#45;&gt;Core_pointwise_whiskerL_morphism_of -->
<g id="edge7" class="edge"><title>Core_pointwise_whiskerL_subproof0&#45;&gt;Core_pointwise_whiskerL_morphism_of</title>
<path fill="none" stroke="black" d="M510.437,-280.551C519.162,-245.127 538.609,-166.174 549.052,-123.775"/>
<polygon fill="black" stroke="black" points="552.508,-124.379 551.501,-113.832 545.711,-122.705 552.508,-124.379"/>
</g>
<!-- Core_pointwise_whiskerL_subproof&#45;&gt;Core_pointwise_whiskerL_morphism_of -->
<g id="edge8" class="edge"><title>Core_pointwise_whiskerL_subproof&#45;&gt;Core_pointwise_whiskerL_morphism_of</title>
<path fill="none" stroke="black" d="M745.541,-280.551C708.306,-244.21 624.129,-162.057 581.607,-120.557"/>
<polygon fill="black" stroke="black" points="584.018,-118.02 574.417,-113.54 579.129,-123.03 584.018,-118.02"/>
</g>
<!-- Core_pointwise -->
<g id="node7" class="node"><title>Core_pointwise</title>
<g id="a_node7"><a xlink:href="Core.html#pointwise" xlink:title="pointwise">
<ellipse fill="#f070d1" stroke="black" cx="193" cy="-524.566" rx="44.7157" ry="18"/>
<ellipse fill="none" stroke="black" cx="193" cy="-524.566" rx="48.7041" ry="22"/>
<ellipse fill="none" stroke="black" cx="193" cy="-524.566" rx="52.6925" ry="26"/>
<text text-anchor="middle" x="193" y="-520.866" font-family="Times,serif" font-size="14.00">pointwise</text>
</a>
</g>
</g>
<!-- Core_pointwise_subproof0 -->
<g id="node8" class="node"><title>Core_pointwise_subproof0</title>
<g id="a_node8"><a xlink:href="Core.html#pointwise_subproof0" xlink:title="pointwise_subproof0">
<ellipse fill="#facdef" stroke="black" cx="101" cy="-298.566" rx="85.2851" ry="18"/>
<text text-anchor="middle" x="101" y="-294.866" font-family="Times,serif" font-size="14.00">pointwise_subproof0</text>
</a>
</g>
</g>
<!-- Core_pointwise&#45;&gt;Core_pointwise_subproof0 -->
<g id="edge9" class="edge"><title>Core_pointwise&#45;&gt;Core_pointwise_subproof0</title>
<path fill="none" stroke="black" d="M182.446,-498.641C164.975,-455.722 130.195,-370.283 112.266,-326.24"/>
<polygon fill="black" stroke="black" points="115.411,-324.683 108.399,-316.741 108.927,-327.322 115.411,-324.683"/>
</g>
<!-- Core_pointwise_subproof -->
<g id="node9" class="node"><title>Core_pointwise_subproof</title>
<g id="a_node9"><a xlink:href="Core.html#pointwise_subproof" xlink:title="pointwise_subproof">
<ellipse fill="#facdef" stroke="black" cx="285" cy="-298.566" rx="80.6858" ry="18"/>
<text text-anchor="middle" x="285" y="-294.866" font-family="Times,serif" font-size="14.00">pointwise_subproof</text>
</a>
</g>
</g>
<!-- Core_pointwise&#45;&gt;Core_pointwise_subproof -->
<g id="edge10" class="edge"><title>Core_pointwise&#45;&gt;Core_pointwise_subproof</title>
<path fill="none" stroke="black" d="M203.554,-498.641C221.025,-455.722 255.805,-370.283 273.734,-326.24"/>
<polygon fill="black" stroke="black" points="277.073,-327.322 277.601,-316.741 270.589,-324.683 277.073,-327.322"/>
</g>
<!-- Core_pointwise_morphism_of -->
<g id="node12" class="node"><title>Core_pointwise_morphism_of</title>
<g id="a_node12"><a xlink:href="Core.html#pointwise_morphism_of" xlink:title="pointwise_morphism_of">
<ellipse fill="#f070d1" stroke="black" cx="234" cy="-95.5657" rx="97.4827" ry="18"/>
<text text-anchor="middle" x="234" y="-91.8657" font-family="Times,serif" font-size="14.00">pointwise_morphism_of</text>
</a>
</g>
</g>
<!-- Core_pointwise_subproof0&#45;&gt;Core_pointwise_morphism_of -->
<g id="edge11" class="edge"><title>Core_pointwise_subproof0&#45;&gt;Core_pointwise_morphism_of</title>
<path fill="none" stroke="black" d="M112.803,-280.551C136.317,-244.661 189.104,-164.091 216.601,-122.122"/>
<polygon fill="black" stroke="black" points="219.671,-123.823 222.224,-113.54 213.816,-119.987 219.671,-123.823"/>
</g>
<!-- Core_pointwise_subproof&#45;&gt;Core_pointwise_morphism_of -->
<g id="edge12" class="edge"><title>Core_pointwise_subproof&#45;&gt;Core_pointwise_morphism_of</title>
<path fill="none" stroke="black" d="M280.474,-280.551C271.575,-245.127 251.739,-166.174 241.087,-123.775"/>
<polygon fill="black" stroke="black" points="244.42,-122.678 238.589,-113.832 237.631,-124.384 244.42,-122.678"/>
</g>
</g>
</svg>
