<?xml version="1.0" encoding="UTF-8" standalone="no"?>
<!DOCTYPE svg PUBLIC "-//W3C//DTD SVG 1.1//EN"
 "http://www.w3.org/Graphics/SVG/1.1/DTD/svg11.dtd">
<!-- Generated by graphviz version 2.26.3 (20100126.1600)
 -->
<!-- Title: HoTT_categories_Adjoint_Pointwise Pages: 1 -->
<svg width="1472pt" height="740pt"
 viewBox="0.00 0.00 1472.00 740.00" xmlns="http://www.w3.org/2000/svg" xmlns:xlink="http://www.w3.org/1999/xlink">
<g id="graph1" class="graph" transform="scale(1 1) rotate(0) translate(4 736)">
<title>HoTT_categories_Adjoint_Pointwise</title>
<polygon fill="white" stroke="white" points="-4,5 -4,-736 1469,-736 1469,5 -4,5"/>
<g id="graph2" class="cluster"><title>cluster_Pointwise</title>
<polygon fill="#ffffc3" stroke="black" points="8,-31.4839 8,-700.516 1456,-700.516 1456,-31.4839 8,-31.4839"/>
<text text-anchor="middle" x="49.5" y="-683.916" font-family="Times Roman,serif" font-size="14.00">Pointwise</text>
</g>
<!-- Pointwise_pointwise_r -->
<g id="node1" class="node"><title>Pointwise_pointwise_r</title>
<a xlink:href="Pointwise.html#pointwise_r" xlink:title="pointwise_r">
<ellipse fill="#f070d1" stroke="black" cx="1204" cy="-460.484" rx="68.1411" ry="18.3848"/>
<ellipse fill="none" stroke="black" cx="1204" cy="-460.484" rx="72.1149" ry="22.3848"/>
<ellipse fill="none" stroke="black" cx="1204" cy="-460.484" rx="76.0888" ry="26.3848"/>
<text text-anchor="middle" x="1204" y="-456.884" font-family="Times Roman,serif" font-size="14.00">pointwise_r</text>
</a>
</g>
<!-- Pointwise_pointwise_r_subproof0 -->
<g id="node2" class="node"><title>Pointwise_pointwise_r_subproof0</title>
<a xlink:href="Pointwise.html#pointwise_r_subproof0" xlink:title="pointwise_r_subproof0">
<ellipse fill="#facdef" stroke="black" cx="856" cy="-137.484" rx="121.83" ry="18.3848"/>
<text text-anchor="middle" x="856" y="-133.884" font-family="Times Roman,serif" font-size="14.00">pointwise_r_subproof0</text>
</a>
</g>
<!-- Pointwise_pointwise_r&#45;&gt;Pointwise_pointwise_r_subproof0 -->
<g id="edge2" class="edge"><title>Pointwise_pointwise_r&#45;&gt;Pointwise_pointwise_r_subproof0</title>
<path fill="none" stroke="black" d="M1177.27,-435.675C1112.73,-375.771 948.892,-223.702 883.534,-163.04"/>
<polygon fill="black" stroke="black" points="885.775,-160.345 876.065,-156.107 881.013,-165.476 885.775,-160.345"/>
</g>
<!-- Pointwise_pointwise_r_subproof -->
<g id="node3" class="node"><title>Pointwise_pointwise_r_subproof</title>
<a xlink:href="Pointwise.html#pointwise_r_subproof" xlink:title="pointwise_r_subproof">
<ellipse fill="#facdef" stroke="black" cx="1112" cy="-137.484" rx="115.966" ry="18.3848"/>
<text text-anchor="middle" x="1112" y="-133.884" font-family="Times Roman,serif" font-size="14.00">pointwise_r_subproof</text>
</a>
</g>
<!-- Pointwise_pointwise_r&#45;&gt;Pointwise_pointwise_r_subproof -->
<g id="edge4" class="edge"><title>Pointwise_pointwise_r&#45;&gt;Pointwise_pointwise_r_subproof</title>
<path fill="none" stroke="black" d="M1196.47,-434.051C1179.39,-374.089 1137.83,-228.16 1120.16,-166.137"/>
<polygon fill="black" stroke="black" points="1123.45,-164.906 1117.34,-156.248 1116.72,-166.824 1123.45,-164.906"/>
</g>
<!-- Pointwise_counit_r -->
<g id="node4" class="node"><title>Pointwise_counit_r</title>
<a xlink:href="Pointwise.html#counit_r" xlink:title="counit_r">
<ellipse fill="#f070d1" stroke="black" cx="1297" cy="-137.484" rx="51.1176" ry="18.3848"/>
<text text-anchor="middle" x="1297" y="-133.884" font-family="Times Roman,serif" font-size="14.00">counit_r</text>
</a>
</g>
<!-- Pointwise_pointwise_r&#45;&gt;Pointwise_counit_r -->
<g id="edge6" class="edge"><title>Pointwise_pointwise_r&#45;&gt;Pointwise_counit_r</title>
<path fill="none" stroke="black" d="M1211.61,-434.051C1228.88,-374.089 1270.89,-228.16 1288.75,-166.137"/>
<polygon fill="black" stroke="black" points="1292.19,-166.826 1291.6,-156.248 1285.47,-164.889 1292.19,-166.826"/>
</g>
<!-- Pointwise_unit_r -->
<g id="node5" class="node"><title>Pointwise_unit_r</title>
<a xlink:href="Pointwise.html#unit_r" xlink:title="unit_r">
<ellipse fill="#f070d1" stroke="black" cx="1407" cy="-137.484" rx="41.0122" ry="18.3848"/>
<text text-anchor="middle" x="1407" y="-133.884" font-family="Times Roman,serif" font-size="14.00">unit_r</text>
</a>
</g>
<!-- Pointwise_pointwise_r&#45;&gt;Pointwise_unit_r -->
<g id="edge8" class="edge"><title>Pointwise_pointwise_r&#45;&gt;Pointwise_unit_r</title>
<path fill="none" stroke="black" d="M1220.27,-434.597C1258.12,-374.366 1351.8,-225.321 1390.18,-164.243"/>
<polygon fill="black" stroke="black" points="1393.28,-165.885 1395.64,-155.556 1387.36,-162.16 1393.28,-165.885"/>
</g>
<!-- Pointwise_pointwise_l -->
<g id="node6" class="node"><title>Pointwise_pointwise_l</title>
<a xlink:href="Pointwise.html#pointwise_l" xlink:title="pointwise_l">
<ellipse fill="#f070d1" stroke="black" cx="479" cy="-460.484" rx="67.1751" ry="18.3848"/>
<ellipse fill="none" stroke="black" cx="479" cy="-460.484" rx="71.1751" ry="22.3848"/>
<ellipse fill="none" stroke="black" cx="479" cy="-460.484" rx="75.1751" ry="26.3848"/>
<text text-anchor="middle" x="479" y="-456.884" font-family="Times Roman,serif" font-size="14.00">pointwise_l</text>
</a>
</g>
<!-- Pointwise_pointwise_l_subproof0 -->
<g id="node7" class="node"><title>Pointwise_pointwise_l_subproof0</title>
<a xlink:href="Pointwise.html#pointwise_l_subproof0" xlink:title="pointwise_l_subproof0">
<ellipse fill="#facdef" stroke="black" cx="136" cy="-137.484" rx="120.208" ry="18.3848"/>
<text text-anchor="middle" x="136" y="-133.884" font-family="Times Roman,serif" font-size="14.00">pointwise_l_subproof0</text>
</a>
</g>
<!-- Pointwise_pointwise_l&#45;&gt;Pointwise_pointwise_l_subproof0 -->
<g id="edge10" class="edge"><title>Pointwise_pointwise_l&#45;&gt;Pointwise_pointwise_l_subproof0</title>
<path fill="none" stroke="black" d="M452.371,-435.407C388.542,-375.301 227.362,-223.518 163.079,-162.984"/>
<polygon fill="black" stroke="black" points="165.412,-160.374 155.733,-156.066 160.613,-165.47 165.412,-160.374"/>
</g>
<!-- Pointwise_pointwise_l_subproof -->
<g id="node8" class="node"><title>Pointwise_pointwise_l_subproof</title>
<a xlink:href="Pointwise.html#pointwise_l_subproof" xlink:title="pointwise_l_subproof">
<ellipse fill="#facdef" stroke="black" cx="388" cy="-137.484" rx="113.844" ry="18.3848"/>
<text text-anchor="middle" x="388" y="-133.884" font-family="Times Roman,serif" font-size="14.00">pointwise_l_subproof</text>
</a>
</g>
<!-- Pointwise_pointwise_l&#45;&gt;Pointwise_pointwise_l_subproof -->
<g id="edge12" class="edge"><title>Pointwise_pointwise_l&#45;&gt;Pointwise_pointwise_l_subproof</title>
<path fill="none" stroke="black" d="M471.553,-434.051C454.66,-374.089 413.547,-228.16 396.072,-166.137"/>
<polygon fill="black" stroke="black" points="399.367,-164.924 393.286,-156.248 392.629,-166.822 399.367,-164.924"/>
</g>
<!-- Pointwise_counit_l -->
<g id="node9" class="node"><title>Pointwise_counit_l</title>
<a xlink:href="Pointwise.html#counit_l" xlink:title="counit_l">
<ellipse fill="#f070d1" stroke="black" cx="570" cy="-137.484" rx="50.2046" ry="18.3848"/>
<text text-anchor="middle" x="570" y="-133.884" font-family="Times Roman,serif" font-size="14.00">counit_l</text>
</a>
</g>
<!-- Pointwise_pointwise_l&#45;&gt;Pointwise_counit_l -->
<g id="edge14" class="edge"><title>Pointwise_pointwise_l&#45;&gt;Pointwise_counit_l</title>
<path fill="none" stroke="black" d="M486.447,-434.051C503.34,-374.089 544.453,-228.16 561.928,-166.137"/>
<polygon fill="black" stroke="black" points="565.371,-166.822 564.714,-156.248 558.633,-164.924 565.371,-166.822"/>
</g>
<!-- Pointwise_unit_l -->
<g id="node10" class="node"><title>Pointwise_unit_l</title>
<a xlink:href="Pointwise.html#unit_l" xlink:title="unit_l">
<ellipse fill="#f070d1" stroke="black" cx="677" cy="-137.484" rx="39.0967" ry="18.3848"/>
<text text-anchor="middle" x="677" y="-133.884" font-family="Times Roman,serif" font-size="14.00">unit_l</text>
</a>
</g>
<!-- Pointwise_pointwise_l&#45;&gt;Pointwise_unit_l -->
<g id="edge16" class="edge"><title>Pointwise_pointwise_l&#45;&gt;Pointwise_unit_l</title>
<path fill="none" stroke="black" d="M495.035,-434.325C532.077,-373.898 623.271,-225.133 660.633,-164.184"/>
<polygon fill="black" stroke="black" points="663.705,-165.87 665.947,-155.515 657.737,-162.212 663.705,-165.87"/>
</g>
</g>
</svg>
