<?xml version="1.0" encoding="UTF-8" standalone="no"?>
<!DOCTYPE svg PUBLIC "-//W3C//DTD SVG 1.1//EN"
 "http://www.w3.org/Graphics/SVG/1.1/DTD/svg11.dtd">
<!-- Generated by graphviz version 2.39.20141222.0545 (20141222.0545)
 -->
<!-- Title: HoTT_hit_TwoSphere Pages: 1 -->
<svg width="564pt" height="286pt"
 viewBox="0.00 0.00 564.00 286.00" xmlns="http://www.w3.org/2000/svg" xmlns:xlink="http://www.w3.org/1999/xlink">
<g id="graph0" class="graph" transform="scale(1 1) rotate(0) translate(4 282)">
<title>HoTT_hit_TwoSphere</title>
<polygon fill="white" stroke="transparent" points="-4,4 -4,-282 560,-282 560,4 -4,4"/>
<g id="clust1" class="cluster"><title>cluster_TwoSphere</title>
<polygon fill="#ffffc3" stroke="black" points="14.6799,-8 14.6799,-270 541.32,-270 541.32,-8 14.6799,-8"/>
<text text-anchor="middle" x="54.1799" y="-254.8" font-family="Times,serif" font-size="14.00">TwoSphere</text>
</g>
<g id="clust2" class="cluster"><title>cluster_TwoSphere_TwoSphere</title>
<polygon fill="#ffffa3" stroke="black" points="29.3597,-16 29.3597,-179 526.64,-179 526.64,-16 29.3597,-16"/>
<text text-anchor="middle" x="68.8597" y="-163.8" font-family="Times,serif" font-size="14.00">TwoSphere</text>
</g>
<!-- TwoSphere_TwoSphere_S2_ind_beta_loop -->
<g id="node1" class="node"><title>TwoSphere_TwoSphere_S2_ind_beta_loop</title>
<g id="a_node1"><a xlink:href="TwoSphere.html#TwoSphere.S2_ind_beta_loop" xlink:title="S2_ind_beta_loop">
<ellipse fill="#facdef" stroke="black" cx="359.264" cy="-122" rx="74.9639" ry="18"/>
<ellipse fill="none" stroke="black" cx="359.264" cy="-122" rx="78.9757" ry="22"/>
<ellipse fill="none" stroke="black" cx="359.264" cy="-122" rx="82.9875" ry="26"/>
<text text-anchor="middle" x="359.264" y="-118.3" font-family="Times,serif" font-size="14.00">S2_ind_beta_loop</text>
</a>
</g>
</g>
<!-- TwoSphere_TwoSphere_S2_ind -->
<g id="node2" class="node"><title>TwoSphere_TwoSphere_S2_ind</title>
<g id="a_node2"><a xlink:href="TwoSphere.html#TwoSphere.S2_ind" xlink:title="S2_ind">
<ellipse fill="#f070d1" stroke="black" cx="110.264" cy="-122" rx="35.9954" ry="18"/>
<text text-anchor="middle" x="110.264" y="-118.3" font-family="Times,serif" font-size="14.00">S2_ind</text>
</a>
</g>
</g>
<!-- TwoSphere_TwoSphere_surf -->
<g id="node3" class="node"><title>TwoSphere_TwoSphere_surf</title>
<g id="a_node3"><a xlink:href="TwoSphere.html#TwoSphere.surf" xlink:title="surf">
<ellipse fill="#facdef" stroke="black" cx="93.264" cy="-42" rx="27" ry="18"/>
<text text-anchor="middle" x="93.264" y="-38.3" font-family="Times,serif" font-size="14.00">surf</text>
</a>
</g>
</g>
<!-- TwoSphere_TwoSphere_S2_ind&#45;&gt;TwoSphere_TwoSphere_surf -->
<g id="edge1" class="edge"><title>TwoSphere_TwoSphere_S2_ind&#45;&gt;TwoSphere_TwoSphere_surf</title>
<path fill="none" stroke="black" d="M106.406,-103.847C104.276,-93.8228 101.585,-81.1585 99.1937,-69.9043"/>
<polygon fill="black" stroke="black" points="102.609,-69.1355 97.1063,-60.0814 95.7614,-70.5905 102.609,-69.1355"/>
</g>
<!-- TwoSphere_TwoSphere_base -->
<g id="node4" class="node"><title>TwoSphere_TwoSphere_base</title>
<g id="a_node4"><a xlink:href="TwoSphere.html#TwoSphere.base" xlink:title="base">
<ellipse fill="#7faaff" stroke="black" cx="225.264" cy="-42" rx="27" ry="18"/>
<text text-anchor="middle" x="225.264" y="-38.3" font-family="Times,serif" font-size="14.00">base</text>
</a>
</g>
</g>
<!-- TwoSphere_TwoSphere_S2_ind&#45;&gt;TwoSphere_TwoSphere_base -->
<g id="edge2" class="edge"><title>TwoSphere_TwoSphere_S2_ind&#45;&gt;TwoSphere_TwoSphere_base</title>
<path fill="none" stroke="black" d="M131.357,-107.327C150.08,-94.3018 177.553,-75.1905 197.951,-61.0005"/>
<polygon fill="black" stroke="black" points="200.003,-63.8363 206.214,-55.2524 196.006,-58.09 200.003,-63.8363"/>
</g>
<!-- TwoSphere_TwoSphere_S2 -->
<g id="node5" class="node"><title>TwoSphere_TwoSphere_S2</title>
<g id="a_node5"><a xlink:href="TwoSphere.html#TwoSphere.S2" xlink:title="S2">
<ellipse fill="#e2cdfa" stroke="black" cx="358.264" cy="-42" rx="27" ry="18"/>
<text text-anchor="middle" x="358.264" y="-38.3" font-family="Times,serif" font-size="14.00">S2</text>
</a>
</g>
</g>
<!-- TwoSphere_TwoSphere_S2_ind&#45;&gt;TwoSphere_TwoSphere_S2 -->
<g id="edge3" class="edge"><title>TwoSphere_TwoSphere_S2_ind&#45;&gt;TwoSphere_TwoSphere_S2</title>
<path fill="none" stroke="black" d="M140.674,-112.19C187.164,-97.1937 275.615,-68.661 324.201,-52.9881"/>
<polygon fill="black" stroke="black" points="325.491,-56.2495 333.934,-49.8484 323.342,-49.5875 325.491,-56.2495"/>
</g>
<!-- TwoSphere_S2_rec -->
<g id="node6" class="node"><title>TwoSphere_S2_rec</title>
<g id="a_node6"><a xlink:href="TwoSphere.html#S2_rec" xlink:title="S2_rec">
<ellipse fill="#f070d1" stroke="black" cx="110.264" cy="-213" rx="35.176" ry="18"/>
<ellipse fill="none" stroke="black" cx="110.264" cy="-213" rx="39.185" ry="22"/>
<ellipse fill="none" stroke="black" cx="110.264" cy="-213" rx="43.194" ry="26"/>
<text text-anchor="middle" x="110.264" y="-209.3" font-family="Times,serif" font-size="14.00">S2_rec</text>
</a>
</g>
</g>
<!-- TwoSphere_S2_rec&#45;&gt;TwoSphere_TwoSphere_S2_ind -->
<g id="edge4" class="edge"><title>TwoSphere_S2_rec&#45;&gt;TwoSphere_TwoSphere_S2_ind</title>
<path fill="none" stroke="black" d="M110.264,-186.679C110.264,-175.265 110.264,-161.881 110.264,-150.258"/>
<polygon fill="black" stroke="black" points="113.764,-150.186 110.264,-140.186 106.764,-150.186 113.764,-150.186"/>
</g>
</g>
</svg>
