<?xml version="1.0" encoding="UTF-8" standalone="no"?>
<!DOCTYPE svg PUBLIC "-//W3C//DTD SVG 1.1//EN"
 "http://www.w3.org/Graphics/SVG/1.1/DTD/svg11.dtd">
<!-- Generated by graphviz version 2.39.20141222.0545 (20141222.0545)
 -->
<!-- Title: HoTT_Categories_Category_Prod Pages: 1 -->
<svg width="468pt" height="238pt"
 viewBox="0.00 0.00 468.00 238.00" xmlns="http://www.w3.org/2000/svg" xmlns:xlink="http://www.w3.org/1999/xlink">
<g id="graph0" class="graph" transform="scale(1 1) rotate(0) translate(4 234)">
<title>HoTT_Categories_Category_Prod</title>
<polygon fill="white" stroke="transparent" points="-4,4 -4,-234 464,-234 464,4 -4,4"/>
<g id="clust1" class="cluster"><title>cluster_Prod</title>
<polygon fill="#ffffc3" stroke="black" points="8,-10.2793 8,-219.721 452,-219.721 452,-10.2793 8,-10.2793"/>
<text text-anchor="middle" x="29" y="-204.521" font-family="Times,serif" font-size="14.00">Prod</text>
</g>
<!-- Prod_isstrict_category_product -->
<g id="node1" class="node"><title>Prod_isstrict_category_product</title>
<g id="a_node1"><a xlink:href="Prod.html#isstrict_category_product" xlink:title="isstrict_category_product">
<ellipse fill="#facdef" stroke="black" cx="336" cy="-146.279" rx="100.176" ry="18"/>
<ellipse fill="none" stroke="black" cx="336" cy="-146.279" rx="104.179" ry="22"/>
<ellipse fill="none" stroke="black" cx="336" cy="-146.279" rx="108.182" ry="26"/>
<text text-anchor="middle" x="336" y="-142.579" font-family="Times,serif" font-size="14.00">isstrict_category_product</text>
</a>
</g>
</g>
<!-- Prod_prod -->
<g id="node2" class="node"><title>Prod_prod</title>
<g id="a_node2"><a xlink:href="Prod.html#prod" xlink:title="prod">
<ellipse fill="#f070d1" stroke="black" cx="175" cy="-146.279" rx="27" ry="18"/>
<ellipse fill="none" stroke="black" cx="175" cy="-146.279" rx="31" ry="22"/>
<ellipse fill="none" stroke="black" cx="175" cy="-146.279" rx="35" ry="26"/>
<text text-anchor="middle" x="175" y="-142.579" font-family="Times,serif" font-size="14.00">prod</text>
</a>
</g>
</g>
<!-- Prod_prod_subproof1 -->
<g id="node3" class="node"><title>Prod_prod_subproof1</title>
<g id="a_node3"><a xlink:href="Prod.html#prod_subproof1" xlink:title="prod_subproof1">
<ellipse fill="#facdef" stroke="black" cx="83" cy="-43.2793" rx="66.8882" ry="18"/>
<text text-anchor="middle" x="83" y="-39.5793" font-family="Times,serif" font-size="14.00">prod_subproof1</text>
</a>
</g>
</g>
<!-- Prod_prod&#45;&gt;Prod_prod_subproof1 -->
<g id="edge1" class="edge"><title>Prod_prod&#45;&gt;Prod_prod_subproof1</title>
<path fill="none" stroke="black" d="M155.489,-124.436C140.852,-108.049 120.787,-85.5848 105.478,-68.4451"/>
<polygon fill="black" stroke="black" points="108.087,-66.1122 98.8154,-60.9857 102.867,-70.7753 108.087,-66.1122"/>
</g>
<!-- Prod_prod_subproof0 -->
<g id="node4" class="node"><title>Prod_prod_subproof0</title>
<g id="a_node4"><a xlink:href="Prod.html#prod_subproof0" xlink:title="prod_subproof0">
<ellipse fill="#facdef" stroke="black" cx="235" cy="-43.2793" rx="66.8882" ry="18"/>
<text text-anchor="middle" x="235" y="-39.5793" font-family="Times,serif" font-size="14.00">prod_subproof0</text>
</a>
</g>
</g>
<!-- Prod_prod&#45;&gt;Prod_prod_subproof0 -->
<g id="edge2" class="edge"><title>Prod_prod&#45;&gt;Prod_prod_subproof0</title>
<path fill="none" stroke="black" d="M188.916,-122.39C198.003,-106.791 209.885,-86.394 219.308,-70.2181"/>
<polygon fill="black" stroke="black" points="222.522,-71.6526 224.532,-61.25 216.474,-68.1291 222.522,-71.6526"/>
</g>
<!-- Prod_prod_subproof -->
<g id="node5" class="node"><title>Prod_prod_subproof</title>
<g id="a_node5"><a xlink:href="Prod.html#prod_subproof" xlink:title="prod_subproof">
<ellipse fill="#facdef" stroke="black" cx="382" cy="-43.2793" rx="62.2891" ry="18"/>
<text text-anchor="middle" x="382" y="-39.5793" font-family="Times,serif" font-size="14.00">prod_subproof</text>
</a>
</g>
</g>
<!-- Prod_prod&#45;&gt;Prod_prod_subproof -->
<g id="edge3" class="edge"><title>Prod_prod&#45;&gt;Prod_prod_subproof</title>
<path fill="none" stroke="black" d="M202.239,-129.656C207.736,-126.451 213.513,-123.189 219,-120.279 258.638,-99.2635 304.994,-77.64 338.116,-62.6789"/>
<polygon fill="black" stroke="black" points="339.834,-65.744 347.518,-58.4502 336.962,-59.3599 339.834,-65.744"/>
</g>
</g>
</svg>
