<?xml version="1.0" encoding="UTF-8" standalone="no"?>
<!DOCTYPE svg PUBLIC "-//W3C//DTD SVG 1.1//EN"
 "http://www.w3.org/Graphics/SVG/1.1/DTD/svg11.dtd">
<!-- Generated by graphviz version 2.39.20161220.0128 (20161220.0128)
 -->
<!-- Title: HoTT_Categories_Functor_Composition_Functorial Pages: 1 -->
<svg width="1972pt" height="990pt"
 viewBox="0.00 0.00 1972.00 990.00" xmlns="http://www.w3.org/2000/svg" xmlns:xlink="http://www.w3.org/1999/xlink">
<g id="graph0" class="graph" transform="scale(1 1) rotate(0) translate(4 986)">
<title>HoTT_Categories_Functor_Composition_Functorial</title>
<polygon fill="#ffffff" stroke="transparent" points="-4,4 -4,-986 1968,-986 1968,4 -4,4"/>
<g id="clust1" class="cluster">
<title>cluster_Functorial</title>
<polygon fill="#ffffc3" stroke="#000000" points="8,-307.1276 8,-965.8354 1034,-965.8354 1034,-307.1276 8,-307.1276"/>
<text text-anchor="middle" x="44" y="-950.6354" font-family="Times,serif" font-size="14.00" fill="#000000">Functorial</text>
</g>
<g id="clust2" class="cluster">
<title>cluster_Attributes</title>
<polygon fill="#ffffc3" stroke="#000000" points="1042,-452.6091 1042,-765.7984 1474,-765.7984 1474,-452.6091 1042,-452.6091"/>
<text text-anchor="middle" x="1077.5" y="-750.5984" font-family="Times,serif" font-size="14.00" fill="#000000">Attributes</text>
</g>
<g id="clust3" class="cluster">
<title>cluster_Core</title>
<polygon fill="#ffffc3" stroke="#000000" points="1482,-16.1646 1482,-781.963 1956,-781.963 1956,-16.1646 1482,-16.1646"/>
<text text-anchor="middle" x="1503.5" y="-766.763" font-family="Times,serif" font-size="14.00" fill="#000000">Core</text>
</g>
<!-- Functorial_isfaithful_precomposition_essentially_surjective -->
<g id="node1" class="node">
<title>Functorial_isfaithful_precomposition_essentially_surjective</title>
<g id="a_node1"><a xlink:href="Functorial.html#isfaithful_precomposition_essentially_surjective" xlink:title="isfaithful_precomposition_essentially_surjective">
<ellipse fill="#f070d1" stroke="#000000" cx="386" cy="-850.1646" rx="181.9684" ry="18"/>
<ellipse fill="none" stroke="#000000" cx="386" cy="-850.1646" rx="185.968" ry="22"/>
<ellipse fill="none" stroke="#000000" cx="386" cy="-850.1646" rx="189.9677" ry="26"/>
<text text-anchor="middle" x="386" y="-846.4646" font-family="Times,serif" font-size="14.00" fill="#000000">isfaithful_precomposition_essentially_surjective</text>
</a>
</g>
</g>
<!-- Attributes_isfaithful_precomposition_essentially_surjective -->
<g id="node15" class="node">
<title>Attributes_isfaithful_precomposition_essentially_surjective</title>
<g id="a_node15"><a xlink:href="Attributes.html#isfaithful_precomposition_essentially_surjective" xlink:title="isfaithful_precomposition_essentially_surjective">
<ellipse fill="#facdef" stroke="#000000" cx="1232" cy="-667.1646" rx="181.9677" ry="18"/>
<text text-anchor="middle" x="1232" y="-663.4646" font-family="Times,serif" font-size="14.00" fill="#000000">isfaithful_precomposition_essentially_surjective</text>
</a>
</g>
</g>
<!-- Functorial_isfaithful_precomposition_essentially_surjective&#45;&gt;Attributes_isfaithful_precomposition_essentially_surjective -->
<g id="edge1" class="edge">
<title>Functorial_isfaithful_precomposition_essentially_surjective&#45;&gt;Attributes_isfaithful_precomposition_essentially_surjective</title>
<path fill="none" stroke="#000000" d="M507.8122,-830.183C639.351,-807.7792 854.6912,-768.7 1038,-724.1646 1081.9957,-713.4757 1130.9021,-699.0893 1168.6041,-687.4441"/>
<polygon fill="#000000" stroke="#000000" points="1169.9193,-690.7006 1178.4315,-684.3924 1167.8433,-684.0155 1169.9193,-690.7006"/>
</g>
<!-- Functorial_isfaithful_precomposition_essentially_surjective_helper -->
<g id="node2" class="node">
<title>Functorial_isfaithful_precomposition_essentially_surjective_helper</title>
<g id="a_node2"><a xlink:href="Functorial.html#isfaithful_precomposition_essentially_surjective_helper" xlink:title="isfaithful_precomposition_essentially_surjective_helper">
<ellipse fill="#f070d1" stroke="#000000" cx="810" cy="-850.1646" rx="207.9638" ry="18"/>
<ellipse fill="none" stroke="#000000" cx="810" cy="-850.1646" rx="211.9634" ry="22"/>
<ellipse fill="none" stroke="#000000" cx="810" cy="-850.1646" rx="215.9631" ry="26"/>
<text text-anchor="middle" x="810" y="-846.4646" font-family="Times,serif" font-size="14.00" fill="#000000">isfaithful_precomposition_essentially_surjective_helper</text>
</a>
</g>
</g>
<!-- Attributes_isfaithful_precomposition_essentially_surjective_helper -->
<g id="node16" class="node">
<title>Attributes_isfaithful_precomposition_essentially_surjective_helper</title>
<g id="a_node16"><a xlink:href="Attributes.html#isfaithful_precomposition_essentially_surjective_helper" xlink:title="isfaithful_precomposition_essentially_surjective_helper">
<ellipse fill="#facdef" stroke="#000000" cx="1258" cy="-505.1646" rx="207.9631" ry="18"/>
<text text-anchor="middle" x="1258" y="-501.4646" font-family="Times,serif" font-size="14.00" fill="#000000">isfaithful_precomposition_essentially_surjective_helper</text>
</a>
</g>
</g>
<!-- Functorial_isfaithful_precomposition_essentially_surjective_helper&#45;&gt;Attributes_isfaithful_precomposition_essentially_surjective_helper -->
<g id="edge2" class="edge">
<title>Functorial_isfaithful_precomposition_essentially_surjective_helper&#45;&gt;Attributes_isfaithful_precomposition_essentially_surjective_helper</title>
<path fill="none" stroke="#000000" d="M997.2762,-837.1641C1157.3251,-821.6919 1369.9189,-789.2661 1423,-724.1646 1479.6002,-654.7472 1363.8743,-569.071 1298.5551,-528.5324"/>
<polygon fill="#000000" stroke="#000000" points="1300.0538,-525.3465 1289.6959,-523.1182 1296.4035,-531.3194 1300.0538,-525.3465"/>
</g>
<!-- Functorial_compose_functor_ -->
<g id="node3" class="node">
<title>Functorial_compose_functor_</title>
<g id="a_node3"><a xlink:href="Functorial.html#compose_functor'" xlink:title="compose_functor&#39;">
<ellipse fill="#f070d1" stroke="#000000" cx="97" cy="-850.1646" rx="73.3926" ry="18"/>
<ellipse fill="none" stroke="#000000" cx="97" cy="-850.1646" rx="77.3898" ry="22"/>
<ellipse fill="none" stroke="#000000" cx="97" cy="-850.1646" rx="81.387" ry="26"/>
<text text-anchor="middle" x="97" y="-846.4646" font-family="Times,serif" font-size="14.00" fill="#000000">compose_functor&#39;</text>
</a>
</g>
</g>
<!-- Functorial_compose_functor_uncurried -->
<g id="node4" class="node">
<title>Functorial_compose_functor_uncurried</title>
<g id="a_node4"><a xlink:href="Functorial.html#compose_functor_uncurried" xlink:title="compose_functor_uncurried">
<ellipse fill="#f070d1" stroke="#000000" cx="339" cy="-667.1646" rx="110.4804" ry="18"/>
<text text-anchor="middle" x="339" y="-663.4646" font-family="Times,serif" font-size="14.00" fill="#000000">compose_functor_uncurried</text>
</a>
</g>
</g>
<!-- Functorial_compose_functor_&#45;&gt;Functorial_compose_functor_uncurried -->
<g id="edge3" class="edge">
<title>Functorial_compose_functor_&#45;&gt;Functorial_compose_functor_uncurried</title>
<path fill="none" stroke="#000000" d="M128.8861,-826.0524C175.2834,-790.9668 260.9072,-726.2182 307.2357,-691.1847"/>
<polygon fill="#000000" stroke="#000000" points="309.5455,-693.8261 315.4107,-685.0028 305.3234,-688.2428 309.5455,-693.8261"/>
</g>
<!-- Functorial_compose_functor -->
<g id="node5" class="node">
<title>Functorial_compose_functor</title>
<g id="a_node5"><a xlink:href="Functorial.html#compose_functor" xlink:title="compose_functor">
<ellipse fill="#f070d1" stroke="#000000" cx="552" cy="-505.1646" rx="72.2875" ry="18"/>
<text text-anchor="middle" x="552" y="-501.4646" font-family="Times,serif" font-size="14.00" fill="#000000">compose_functor</text>
</a>
</g>
</g>
<!-- Functorial_compose_functor_uncurried&#45;&gt;Functorial_compose_functor -->
<g id="edge4" class="edge">
<title>Functorial_compose_functor_uncurried&#45;&gt;Functorial_compose_functor</title>
<path fill="none" stroke="#000000" d="M362.2002,-649.5194C400.814,-620.1511 478.2692,-561.2416 521.3378,-528.4851"/>
<polygon fill="#000000" stroke="#000000" points="523.6307,-531.1386 529.4714,-522.2991 519.3931,-525.567 523.6307,-531.1386"/>
</g>
<!-- Functorial_compose_functor_subproof0 -->
<g id="node6" class="node">
<title>Functorial_compose_functor_subproof0</title>
<g id="a_node6"><a xlink:href="Functorial.html#compose_functor_subproof0" xlink:title="compose_functor_subproof0">
<ellipse fill="#f070d1" stroke="#000000" cx="680" cy="-359.1646" rx="112.3801" ry="18"/>
<text text-anchor="middle" x="680" y="-355.4646" font-family="Times,serif" font-size="14.00" fill="#000000">compose_functor_subproof0</text>
</a>
</g>
</g>
<!-- Functorial_compose_functor&#45;&gt;Functorial_compose_functor_subproof0 -->
<g id="edge5" class="edge">
<title>Functorial_compose_functor&#45;&gt;Functorial_compose_functor_subproof0</title>
<path fill="none" stroke="#000000" d="M567.4398,-487.5536C589.8062,-462.042 631.3678,-414.6357 657.2489,-385.1151"/>
<polygon fill="#000000" stroke="#000000" points="660.1433,-387.1228 664.1039,-377.2961 654.8798,-382.5082 660.1433,-387.1228"/>
</g>
<!-- Functorial_compose_functor_subproof -->
<g id="node7" class="node">
<title>Functorial_compose_functor_subproof</title>
<g id="a_node7"><a xlink:href="Functorial.html#compose_functor_subproof" xlink:title="compose_functor_subproof">
<ellipse fill="#f070d1" stroke="#000000" cx="918" cy="-359.1646" rx="107.781" ry="18"/>
<text text-anchor="middle" x="918" y="-355.4646" font-family="Times,serif" font-size="14.00" fill="#000000">compose_functor_subproof</text>
</a>
</g>
</g>
<!-- Functorial_compose_functor&#45;&gt;Functorial_compose_functor_subproof -->
<g id="edge6" class="edge">
<title>Functorial_compose_functor&#45;&gt;Functorial_compose_functor_subproof</title>
<path fill="none" stroke="#000000" d="M590.4767,-489.816C656.6956,-463.4008 792.2308,-409.3349 866.5059,-379.706"/>
<polygon fill="#000000" stroke="#000000" points="868.1366,-382.8237 876.128,-375.8676 865.5429,-376.322 868.1366,-382.8237"/>
</g>
<!-- Functorial_compose_functor_morphism_of -->
<g id="node8" class="node">
<title>Functorial_compose_functor_morphism_of</title>
<g id="a_node8"><a xlink:href="Functorial.html#compose_functor_morphism_of" xlink:title="compose_functor_morphism_of">
<ellipse fill="#f070d1" stroke="#000000" cx="425" cy="-359.1646" rx="124.5782" ry="18"/>
<text text-anchor="middle" x="425" y="-355.4646" font-family="Times,serif" font-size="14.00" fill="#000000">compose_functor_morphism_of</text>
</a>
</g>
</g>
<!-- Functorial_compose_functor&#45;&gt;Functorial_compose_functor_morphism_of -->
<g id="edge7" class="edge">
<title>Functorial_compose_functor&#45;&gt;Functorial_compose_functor_morphism_of</title>
<path fill="none" stroke="#000000" d="M536.6808,-487.5536C514.4892,-462.042 473.2523,-414.6357 447.5733,-385.1151"/>
<polygon fill="#000000" stroke="#000000" points="449.9757,-382.544 440.7719,-377.2961 444.6943,-387.1381 449.9757,-382.544"/>
</g>
<!-- Core_compose_functor_subproof0 -->
<g id="node12" class="node">
<title>Core_compose_functor_subproof0</title>
<g id="a_node12"><a xlink:href="Core.html#compose_functor_subproof0" xlink:title="compose_functor_subproof0">
<ellipse fill="#facdef" stroke="#000000" cx="1602" cy="-214.1646" rx="112.3801" ry="18"/>
<text text-anchor="middle" x="1602" y="-210.4646" font-family="Times,serif" font-size="14.00" fill="#000000">compose_functor_subproof0</text>
</a>
</g>
</g>
<!-- Functorial_compose_functor_subproof0&#45;&gt;Core_compose_functor_subproof0 -->
<g id="edge8" class="edge">
<title>Functorial_compose_functor_subproof0&#45;&gt;Core_compose_functor_subproof0</title>
<path fill="none" stroke="#000000" d="M744.8416,-344.4297C762.9695,-340.5289 782.7131,-336.4842 801,-333.1646 1053.0185,-287.4165 1352.0181,-246.5127 1503.4855,-226.7286"/>
<polygon fill="#000000" stroke="#000000" points="1504.2266,-230.1617 1513.6903,-225.3985 1503.3218,-223.2204 1504.2266,-230.1617"/>
</g>
<!-- Core_compose_functor_subproof -->
<g id="node13" class="node">
<title>Core_compose_functor_subproof</title>
<g id="a_node13"><a xlink:href="Core.html#compose_functor_subproof" xlink:title="compose_functor_subproof">
<ellipse fill="#facdef" stroke="#000000" cx="1840" cy="-214.1646" rx="107.781" ry="18"/>
<text text-anchor="middle" x="1840" y="-210.4646" font-family="Times,serif" font-size="14.00" fill="#000000">compose_functor_subproof</text>
</a>
</g>
</g>
<!-- Functorial_compose_functor_subproof&#45;&gt;Core_compose_functor_subproof -->
<g id="edge9" class="edge">
<title>Functorial_compose_functor_subproof&#45;&gt;Core_compose_functor_subproof</title>
<path fill="none" stroke="#000000" d="M996.6092,-346.802C1167.462,-319.9325 1571.6943,-256.3602 1751.3195,-228.1111"/>
<polygon fill="#000000" stroke="#000000" points="1751.9284,-231.5585 1761.2632,-226.5473 1750.8409,-224.6434 1751.9284,-231.5585"/>
</g>
<!-- Core_compose_functor_ -->
<g id="node9" class="node">
<title>Core_compose_functor_</title>
<g id="a_node9"><a xlink:href="Core.html#compose_functor'" xlink:title="compose_functor&#39;">
<ellipse fill="#f070d1" stroke="#000000" cx="1720" cy="-667.1646" rx="73.3926" ry="18"/>
<ellipse fill="none" stroke="#000000" cx="1720" cy="-667.1646" rx="77.3898" ry="22"/>
<ellipse fill="none" stroke="#000000" cx="1720" cy="-667.1646" rx="81.387" ry="26"/>
<text text-anchor="middle" x="1720" y="-663.4646" font-family="Times,serif" font-size="14.00" fill="#000000">compose_functor&#39;</text>
</a>
</g>
</g>
<!-- Core_compose_functor_uncurried -->
<g id="node10" class="node">
<title>Core_compose_functor_uncurried</title>
<g id="a_node10"><a xlink:href="Core.html#compose_functor_uncurried" xlink:title="compose_functor_uncurried">
<ellipse fill="#f070d1" stroke="#000000" cx="1720" cy="-505.1646" rx="110.4804" ry="18"/>
<text text-anchor="middle" x="1720" y="-501.4646" font-family="Times,serif" font-size="14.00" fill="#000000">compose_functor_uncurried</text>
</a>
</g>
</g>
<!-- Core_compose_functor_&#45;&gt;Core_compose_functor_uncurried -->
<g id="edge10" class="edge">
<title>Core_compose_functor_&#45;&gt;Core_compose_functor_uncurried</title>
<path fill="none" stroke="#000000" d="M1720,-641.1365C1720,-611.8223 1720,-564.3204 1720,-533.9283"/>
<polygon fill="#000000" stroke="#000000" points="1723.5001,-533.5706 1720,-523.5707 1716.5001,-533.5707 1723.5001,-533.5706"/>
</g>
<!-- Core_compose_functor -->
<g id="node11" class="node">
<title>Core_compose_functor</title>
<g id="a_node11"><a xlink:href="Core.html#compose_functor" xlink:title="compose_functor">
<ellipse fill="#f070d1" stroke="#000000" cx="1720" cy="-359.1646" rx="72.2875" ry="18"/>
<text text-anchor="middle" x="1720" y="-355.4646" font-family="Times,serif" font-size="14.00" fill="#000000">compose_functor</text>
</a>
</g>
</g>
<!-- Core_compose_functor_uncurried&#45;&gt;Core_compose_functor -->
<g id="edge11" class="edge">
<title>Core_compose_functor_uncurried&#45;&gt;Core_compose_functor</title>
<path fill="none" stroke="#000000" d="M1720,-486.9688C1720,-462.0514 1720,-417.0584 1720,-387.6523"/>
<polygon fill="#000000" stroke="#000000" points="1723.5001,-387.5897 1720,-377.5897 1716.5001,-387.5898 1723.5001,-387.5897"/>
</g>
<!-- Core_compose_functor&#45;&gt;Core_compose_functor_subproof0 -->
<g id="edge12" class="edge">
<title>Core_compose_functor&#45;&gt;Core_compose_functor_subproof0</title>
<path fill="none" stroke="#000000" d="M1705.5309,-341.3848C1684.9182,-316.0557 1646.9686,-269.4227 1623.186,-240.1982"/>
<polygon fill="#000000" stroke="#000000" points="1625.6142,-237.6369 1616.5875,-232.0899 1620.1848,-242.0553 1625.6142,-237.6369"/>
</g>
<!-- Core_compose_functor&#45;&gt;Core_compose_functor_subproof -->
<g id="edge13" class="edge">
<title>Core_compose_functor&#45;&gt;Core_compose_functor_subproof</title>
<path fill="none" stroke="#000000" d="M1734.7144,-341.3848C1755.7663,-315.9469 1794.6008,-269.022 1818.7656,-239.8229"/>
<polygon fill="#000000" stroke="#000000" points="1821.486,-242.0254 1825.1653,-232.0899 1816.0932,-237.5624 1821.486,-242.0254"/>
</g>
<!-- Core_compose_functor_morphism_of -->
<g id="node14" class="node">
<title>Core_compose_functor_morphism_of</title>
<g id="a_node14"><a xlink:href="Core.html#compose_functor_morphism_of" xlink:title="compose_functor_morphism_of">
<ellipse fill="#f070d1" stroke="#000000" cx="1719" cy="-69.1646" rx="124.5782" ry="18"/>
<text text-anchor="middle" x="1719" y="-65.4646" font-family="Times,serif" font-size="14.00" fill="#000000">compose_functor_morphism_of</text>
</a>
</g>
</g>
<!-- Core_compose_functor_subproof0&#45;&gt;Core_compose_functor_morphism_of -->
<g id="edge14" class="edge">
<title>Core_compose_functor_subproof0&#45;&gt;Core_compose_functor_morphism_of</title>
<path fill="none" stroke="#000000" d="M1616.5816,-196.0934C1636.9875,-170.804 1674.1948,-124.6925 1697.7028,-95.5585"/>
<polygon fill="#000000" stroke="#000000" points="1700.6789,-97.4439 1704.2347,-87.4635 1695.2312,-93.0481 1700.6789,-97.4439"/>
</g>
<!-- Core_compose_functor_subproof&#45;&gt;Core_compose_functor_morphism_of -->
<g id="edge15" class="edge">
<title>Core_compose_functor_subproof&#45;&gt;Core_compose_functor_morphism_of</title>
<path fill="none" stroke="#000000" d="M1824.9199,-196.0934C1803.7257,-170.6954 1765.0064,-124.2963 1740.713,-95.1843"/>
<polygon fill="#000000" stroke="#000000" points="1743.3645,-92.8989 1734.2701,-87.4635 1737.99,-97.3839 1743.3645,-92.8989"/>
</g>
<!-- Attributes_isfaithful_precomposition_essentially_surjective&#45;&gt;Attributes_isfaithful_precomposition_essentially_surjective_helper -->
<g id="edge16" class="edge">
<title>Attributes_isfaithful_precomposition_essentially_surjective&#45;&gt;Attributes_isfaithful_precomposition_essentially_surjective_helper</title>
<path fill="none" stroke="#000000" d="M1234.932,-648.8961C1239.4378,-620.8211 1248.1016,-566.8395 1253.434,-533.614"/>
<polygon fill="#000000" stroke="#000000" points="1256.9099,-534.0433 1255.0388,-523.615 1249.9983,-532.9339 1256.9099,-534.0433"/>
</g>
</g>
</svg>
