<?xml version="1.0" encoding="UTF-8" standalone="no"?>
<!DOCTYPE svg PUBLIC "-//W3C//DTD SVG 1.1//EN"
 "http://www.w3.org/Graphics/SVG/1.1/DTD/svg11.dtd">
<!-- Generated by graphviz version 2.26.3 (20100126.1600)
 -->
<!-- Title: HoTT_HProp Pages: 1 -->
<svg width="1384pt" height="696pt"
 viewBox="0.00 0.00 1384.00 696.00" xmlns="http://www.w3.org/2000/svg" xmlns:xlink="http://www.w3.org/1999/xlink">
<g id="graph1" class="graph" transform="scale(1 1) rotate(0) translate(4 692)">
<title>HoTT_HProp</title>
<polygon fill="white" stroke="white" points="-4,5 -4,-692 1381,-692 1381,5 -4,5"/>
<g id="graph2" class="cluster"><title>cluster_HProp</title>
<polygon fill="#ffffc3" stroke="black" points="8,-10.3849 8,-677.615 1368,-677.615 1368,-10.3849 8,-10.3849"/>
<text text-anchor="middle" x="37.5" y="-661.015" font-family="Times Roman,serif" font-size="14.00">HProp</text>
</g>
<!-- HProp_path_hprop -->
<g id="node1" class="node"><title>HProp_path_hprop</title>
<a xlink:href="HProp.html#path_hprop" xlink:title="path_hprop">
<ellipse fill="#f070d1" stroke="black" cx="640" cy="-598.385" rx="67.1751" ry="18.3848"/>
<ellipse fill="none" stroke="black" cx="640" cy="-598.385" rx="71.1751" ry="22.3848"/>
<ellipse fill="none" stroke="black" cx="640" cy="-598.385" rx="75.1751" ry="26.3848"/>
<text text-anchor="middle" x="640" y="-594.785" font-family="Times Roman,serif" font-size="14.00">path_hprop</text>
</a>
</g>
<!-- HProp_isequiv_ap_hproptype -->
<g id="node2" class="node"><title>HProp_isequiv_ap_hproptype</title>
<a xlink:href="HProp.html#isequiv_ap_hproptype" xlink:title="isequiv_ap_hproptype">
<ellipse fill="#f070d1" stroke="black" cx="640" cy="-481.385" rx="118.087" ry="18.3848"/>
<text text-anchor="middle" x="640" y="-477.785" font-family="Times Roman,serif" font-size="14.00">isequiv_ap_hproptype</text>
</a>
</g>
<!-- HProp_path_hprop&#45;&gt;HProp_isequiv_ap_hproptype -->
<g id="edge2" class="edge"><title>HProp_path_hprop&#45;&gt;HProp_isequiv_ap_hproptype</title>
<path fill="none" stroke="black" d="M640,-571.836C640,-553.49 640,-529.096 640,-510.265"/>
<polygon fill="black" stroke="black" points="643.5,-510.179 640,-500.179 636.5,-510.179 643.5,-510.179"/>
</g>
<!-- HProp_issig_hProp -->
<g id="node3" class="node"><title>HProp_issig_hProp</title>
<a xlink:href="HProp.html#issig_hProp" xlink:title="issig_hProp">
<ellipse fill="#f070d1" stroke="black" cx="502" cy="-364.385" rx="65.9683" ry="18.3848"/>
<text text-anchor="middle" x="502" y="-360.785" font-family="Times Roman,serif" font-size="14.00">issig_hProp</text>
</a>
</g>
<!-- HProp_isequiv_ap_hproptype&#45;&gt;HProp_issig_hProp -->
<g id="edge4" class="edge"><title>HProp_isequiv_ap_hproptype&#45;&gt;HProp_issig_hProp</title>
<path fill="none" stroke="black" d="M618.438,-463.104C594.805,-443.067 556.783,-410.832 530.657,-388.681"/>
<polygon fill="black" stroke="black" points="532.85,-385.952 522.959,-382.155 528.323,-391.291 532.85,-385.952"/>
</g>
<!-- HProp_isequiv_path_sigma_hprop -->
<g id="node11" class="node"><title>HProp_isequiv_path_sigma_hprop</title>
<a xlink:href="HProp.html#isequiv_path_sigma_hprop" xlink:title="isequiv_path_sigma_hprop">
<ellipse fill="#f070d1" stroke="black" cx="726" cy="-364.385" rx="140.007" ry="18.3848"/>
<text text-anchor="middle" x="726" y="-360.785" font-family="Times Roman,serif" font-size="14.00">isequiv_path_sigma_hprop</text>
</a>
</g>
<!-- HProp_isequiv_ap_hproptype&#45;&gt;HProp_isequiv_path_sigma_hprop -->
<g id="edge6" class="edge"><title>HProp_isequiv_ap_hproptype&#45;&gt;HProp_isequiv_path_sigma_hprop</title>
<path fill="none" stroke="black" d="M653.627,-462.846C667.843,-443.505 690.264,-413.002 706.384,-391.071"/>
<polygon fill="black" stroke="black" points="709.334,-392.968 712.437,-382.837 703.694,-388.822 709.334,-392.968"/>
</g>
<!-- HProp_path_sigma_hprop -->
<g id="node12" class="node"><title>HProp_path_sigma_hprop</title>
<a xlink:href="HProp.html#path_sigma_hprop" xlink:title="path_sigma_hprop">
<ellipse fill="#f070d1" stroke="black" cx="1259" cy="-364.385" rx="101.116" ry="18.3848"/>
<text text-anchor="middle" x="1259" y="-360.785" font-family="Times Roman,serif" font-size="14.00">path_sigma_hprop</text>
</a>
</g>
<!-- HProp_isequiv_ap_hproptype&#45;&gt;HProp_path_sigma_hprop -->
<g id="edge8" class="edge"><title>HProp_isequiv_ap_hproptype&#45;&gt;HProp_path_sigma_hprop</title>
<path fill="none" stroke="black" d="M723.642,-468.325C824.765,-452.138 999.947,-422.82 1149,-391.385 1162.47,-388.544 1176.8,-385.238 1190.51,-381.933"/>
<polygon fill="black" stroke="black" points="1191.48,-385.3 1200.36,-379.534 1189.82,-378.499 1191.48,-385.3"/>
</g>
<!-- HProp_HProp_HProp -->
<g id="node16" class="node"><title>HProp_HProp_HProp</title>
<a xlink:href="HProp.html#HProp_HProp" xlink:title="HProp_HProp">
<ellipse fill="#f070d1" stroke="black" cx="132" cy="-364.385" rx="75.8684" ry="18.3848"/>
<text text-anchor="middle" x="132" y="-360.785" font-family="Times Roman,serif" font-size="14.00">HProp_HProp</text>
</a>
</g>
<!-- HProp_isequiv_ap_hproptype&#45;&gt;HProp_HProp_HProp -->
<g id="edge10" class="edge"><title>HProp_isequiv_ap_hproptype&#45;&gt;HProp_HProp_HProp</title>
<path fill="none" stroke="black" d="M562.663,-467.29C477.441,-451.21 336.583,-423.018 217,-391.385 207.018,-388.744 196.468,-385.647 186.324,-382.511"/>
<polygon fill="black" stroke="black" points="187.344,-379.163 176.755,-379.505 185.246,-385.841 187.344,-379.163"/>
</g>
<!-- HProp_isp -->
<g id="node6" class="node"><title>HProp_isp</title>
<a xlink:href="HProp.html#isp" xlink:title="isp">
<ellipse fill="#f070d1" stroke="black" cx="1253" cy="-248.385" rx="27" ry="18.3848"/>
<text text-anchor="middle" x="1253" y="-244.785" font-family="Times Roman,serif" font-size="14.00">isp</text>
</a>
</g>
<!-- HProp_issig_hProp&#45;&gt;HProp_isp -->
<g id="edge12" class="edge"><title>HProp_issig_hProp&#45;&gt;HProp_isp</title>
<path fill="none" stroke="black" d="M539.225,-348.918C551.111,-344.542 564.443,-340.207 577,-337.385 855.822,-274.723 950.567,-378.736 1217,-275.385 1221.02,-273.827 1224.97,-271.689 1228.71,-269.291"/>
<polygon fill="black" stroke="black" points="1230.86,-272.053 1236.94,-263.38 1226.78,-266.366 1230.86,-272.053"/>
</g>
<!-- HProp_hp -->
<g id="node8" class="node"><title>HProp_hp</title>
<a xlink:href="HProp.html#hp" xlink:title="hp">
<ellipse fill="#7faaff" stroke="black" cx="1325" cy="-248.385" rx="27" ry="18.3848"/>
<text text-anchor="middle" x="1325" y="-244.785" font-family="Times Roman,serif" font-size="14.00">hp</text>
</a>
</g>
<!-- HProp_issig_hProp&#45;&gt;HProp_hp -->
<g id="edge14" class="edge"><title>HProp_issig_hProp&#45;&gt;HProp_hp</title>
<path fill="none" stroke="black" d="M538.826,-348.985C550.807,-344.557 564.294,-340.176 577,-337.385 887.247,-269.242 992.304,-388.82 1289,-275.385 1293.02,-273.847 1296.98,-271.719 1300.72,-269.327"/>
<polygon fill="black" stroke="black" points="1302.87,-272.091 1308.96,-263.42 1298.79,-266.401 1302.87,-272.091"/>
</g>
<!-- HProp_False_hp -->
<g id="node4" class="node"><title>HProp_False_hp</title>
<a xlink:href="HProp.html#False_hp" xlink:title="False_hp">
<ellipse fill="#f070d1" stroke="black" cx="1079" cy="-364.385" rx="53.033" ry="18.3848"/>
<ellipse fill="none" stroke="black" cx="1079" cy="-364.385" rx="57.033" ry="22.3848"/>
<ellipse fill="none" stroke="black" cx="1079" cy="-364.385" rx="61.033" ry="26.3848"/>
<text text-anchor="middle" x="1079" y="-360.785" font-family="Times Roman,serif" font-size="14.00">False_hp</text>
</a>
</g>
<!-- HProp_False_hp&#45;&gt;HProp_hp -->
<g id="edge16" class="edge"><title>HProp_False_hp&#45;&gt;HProp_hp</title>
<path fill="none" stroke="black" d="M1124.76,-346.501C1177.28,-325.713 1259.91,-292.123 1289,-275.385 1292.48,-273.382 1296.02,-271.094 1299.44,-268.718"/>
<polygon fill="black" stroke="black" points="1301.63,-271.457 1307.64,-262.737 1297.5,-265.801 1301.63,-271.457"/>
</g>
<!-- HProp_Unit_hp -->
<g id="node5" class="node"><title>HProp_Unit_hp</title>
<a xlink:href="HProp.html#Unit_hp" xlink:title="Unit_hp">
<ellipse fill="#f070d1" stroke="black" cx="942" cy="-364.385" rx="50.2046" ry="18.3848"/>
<ellipse fill="none" stroke="black" cx="942" cy="-364.385" rx="54.2046" ry="22.3848"/>
<ellipse fill="none" stroke="black" cx="942" cy="-364.385" rx="58.2046" ry="26.3848"/>
<text text-anchor="middle" x="942" y="-360.785" font-family="Times Roman,serif" font-size="14.00">Unit_hp</text>
</a>
</g>
<!-- HProp_Unit_hp&#45;&gt;HProp_hp -->
<g id="edge18" class="edge"><title>HProp_Unit_hp&#45;&gt;HProp_hp</title>
<path fill="none" stroke="black" d="M984.15,-346.172C992.309,-342.997 1000.85,-339.909 1009,-337.385 1130.75,-299.658 1173.18,-328.601 1289,-275.385 1292.73,-273.672 1296.44,-271.527 1299.99,-269.198"/>
<polygon fill="black" stroke="black" points="1302.3,-271.848 1308.38,-263.172 1298.21,-266.162 1302.3,-271.848"/>
</g>
<!-- HProp_hproptype -->
<g id="node7" class="node"><title>HProp_hproptype</title>
<a xlink:href="HProp.html#hproptype" xlink:title="hproptype">
<ellipse fill="#f070d1" stroke="black" cx="1253" cy="-141.385" rx="61.0181" ry="18.3848"/>
<text text-anchor="middle" x="1253" y="-137.785" font-family="Times Roman,serif" font-size="14.00">hproptype</text>
</a>
</g>
<!-- HProp_isp&#45;&gt;HProp_hproptype -->
<g id="edge20" class="edge"><title>HProp_isp&#45;&gt;HProp_hproptype</title>
<path fill="none" stroke="black" d="M1253,-229.747C1253,-213.354 1253,-189.226 1253,-170.323"/>
<polygon fill="black" stroke="black" points="1256.5,-170.168 1253,-160.168 1249.5,-170.168 1256.5,-170.168"/>
</g>
<!-- HProp_hProp -->
<g id="node9" class="node"><title>HProp_hProp</title>
<a xlink:href="HProp.html#hProp" xlink:title="hProp">
<ellipse fill="#e2cdfa" stroke="black" cx="1253" cy="-45.3849" rx="39.8075" ry="18.3848"/>
<text text-anchor="middle" x="1253" y="-41.7849" font-family="Times Roman,serif" font-size="14.00">hProp</text>
</a>
</g>
<!-- HProp_hproptype&#45;&gt;HProp_hProp -->
<g id="edge22" class="edge"><title>HProp_hproptype&#45;&gt;HProp_hProp</title>
<path fill="none" stroke="black" d="M1253,-122.875C1253,-109.152 1253,-90.1772 1253,-74.4394"/>
<polygon fill="black" stroke="black" points="1256.5,-74.1654 1253,-64.1654 1249.5,-74.1654 1256.5,-74.1654"/>
</g>
<!-- HProp_equiv_path_sigma_hprop -->
<g id="node10" class="node"><title>HProp_equiv_path_sigma_hprop</title>
<a xlink:href="HProp.html#equiv_path_sigma_hprop" xlink:title="equiv_path_sigma_hprop">
<ellipse fill="#f070d1" stroke="black" cx="1068" cy="-481.385" rx="132.936" ry="18.3848"/>
<ellipse fill="none" stroke="black" cx="1068" cy="-481.385" rx="136.936" ry="22.3848"/>
<ellipse fill="none" stroke="black" cx="1068" cy="-481.385" rx="140.936" ry="26.3848"/>
<text text-anchor="middle" x="1068" y="-477.785" font-family="Times Roman,serif" font-size="14.00">equiv_path_sigma_hprop</text>
</a>
</g>
<!-- HProp_equiv_path_sigma_hprop&#45;&gt;HProp_isequiv_path_sigma_hprop -->
<g id="edge24" class="edge"><title>HProp_equiv_path_sigma_hprop&#45;&gt;HProp_isequiv_path_sigma_hprop</title>
<path fill="none" stroke="black" d="M1000.02,-458.13C937.653,-436.792 846.13,-405.482 786.306,-385.016"/>
<polygon fill="black" stroke="black" points="787.215,-381.628 776.62,-381.702 784.949,-388.251 787.215,-381.628"/>
</g>
<!-- HProp_equiv_path_sigma_hprop&#45;&gt;HProp_path_sigma_hprop -->
<g id="edge26" class="edge"><title>HProp_equiv_path_sigma_hprop&#45;&gt;HProp_path_sigma_hprop</title>
<path fill="none" stroke="black" d="M1109.44,-455.998C1142.74,-435.602 1189.11,-407.2 1221.35,-387.447"/>
<polygon fill="black" stroke="black" points="1223.35,-390.327 1230.05,-382.119 1219.69,-384.358 1223.35,-390.327"/>
</g>
<!-- HProp_equiv_contr_inhabited_allpath -->
<g id="node13" class="node"><title>HProp_equiv_contr_inhabited_allpath</title>
<a xlink:href="HProp.html#equiv_contr_inhabited_allpath" xlink:title="equiv_contr_inhabited_allpath">
<ellipse fill="#f070d1" stroke="black" cx="325" cy="-598.385" rx="157.916" ry="18.3848"/>
<ellipse fill="none" stroke="black" cx="325" cy="-598.385" rx="161.904" ry="22.3848"/>
<ellipse fill="none" stroke="black" cx="325" cy="-598.385" rx="165.892" ry="26.3848"/>
<text text-anchor="middle" x="325" y="-594.785" font-family="Times Roman,serif" font-size="14.00">equiv_contr_inhabited_allpath</text>
</a>
</g>
<!-- HProp_equiv_contr_inhabited_hprop -->
<g id="node14" class="node"><title>HProp_equiv_contr_inhabited_hprop</title>
<a xlink:href="HProp.html#equiv_contr_inhabited_hprop" xlink:title="equiv_contr_inhabited_hprop">
<ellipse fill="#f070d1" stroke="black" cx="169" cy="-481.385" rx="152.942" ry="18.3848"/>
<text text-anchor="middle" x="169" y="-477.785" font-family="Times Roman,serif" font-size="14.00">equiv_contr_inhabited_hprop</text>
</a>
</g>
<!-- HProp_equiv_contr_inhabited_allpath&#45;&gt;HProp_equiv_contr_inhabited_hprop -->
<g id="edge28" class="edge"><title>HProp_equiv_contr_inhabited_allpath&#45;&gt;HProp_equiv_contr_inhabited_hprop</title>
<path fill="none" stroke="black" d="M290.379,-572.419C263.811,-552.493 227.4,-525.185 201.403,-505.687"/>
<polygon fill="black" stroke="black" points="203.454,-502.85 193.354,-499.65 199.254,-508.45 203.454,-502.85"/>
</g>
<!-- HProp_equiv_hprop_allpath -->
<g id="node20" class="node"><title>HProp_equiv_hprop_allpath</title>
<a xlink:href="HProp.html#equiv_hprop_allpath" xlink:title="equiv_hprop_allpath">
<ellipse fill="#f070d1" stroke="black" cx="804" cy="-248.385" rx="109.81" ry="18.3848"/>
<text text-anchor="middle" x="804" y="-244.785" font-family="Times Roman,serif" font-size="14.00">equiv_hprop_allpath</text>
</a>
</g>
<!-- HProp_equiv_contr_inhabited_allpath&#45;&gt;HProp_equiv_hprop_allpath -->
<g id="edge30" class="edge"><title>HProp_equiv_contr_inhabited_allpath&#45;&gt;HProp_equiv_hprop_allpath</title>
<path fill="none" stroke="black" d="M335.807,-571.664C351.678,-532.299 382.103,-456.356 407,-391.385 416.158,-367.486 407.826,-354.337 427,-337.385 432.703,-332.343 618.998,-289.897 727.526,-265.489"/>
<polygon fill="black" stroke="black" points="728.466,-268.865 737.455,-263.258 726.931,-262.036 728.466,-268.865"/>
</g>
<!-- HProp_equiv_contr_inhabited_hprop&#45;&gt;HProp_HProp_HProp -->
<g id="edge32" class="edge"><title>HProp_equiv_contr_inhabited_hprop&#45;&gt;HProp_HProp_HProp</title>
<path fill="none" stroke="black" d="M163.137,-462.846C157.156,-443.933 147.8,-414.346 140.904,-392.539"/>
<polygon fill="black" stroke="black" points="144.188,-391.316 137.835,-382.837 137.514,-393.427 144.188,-391.316"/>
</g>
<!-- HProp_hprop_contr -->
<g id="node17" class="node"><title>HProp_hprop_contr</title>
<a xlink:href="HProp.html#hprop_contr" xlink:title="hprop_contr">
<ellipse fill="#f070d1" stroke="black" cx="86" cy="-248.385" rx="70.2092" ry="18.3848"/>
<text text-anchor="middle" x="86" y="-244.785" font-family="Times Roman,serif" font-size="14.00">hprop_contr</text>
</a>
</g>
<!-- HProp_equiv_contr_inhabited_hprop&#45;&gt;HProp_hprop_contr -->
<g id="edge34" class="edge"><title>HProp_equiv_contr_inhabited_hprop&#45;&gt;HProp_hprop_contr</title>
<path fill="none" stroke="black" d="M120.397,-463.677C89.0016,-449.4 50.6478,-425.947 32,-391.385 11.1266,-352.698 39.8754,-304.204 62.7685,-274.792"/>
<polygon fill="black" stroke="black" points="65.768,-276.649 69.3234,-266.668 60.3201,-272.253 65.768,-276.649"/>
</g>
<!-- HProp_equiv_iff_hprop -->
<g id="node18" class="node"><title>HProp_equiv_iff_hprop</title>
<a xlink:href="HProp.html#equiv_iff_hprop" xlink:title="equiv_iff_hprop">
<ellipse fill="#f070d1" stroke="black" cx="312" cy="-364.385" rx="85.7684" ry="18.3848"/>
<text text-anchor="middle" x="312" y="-360.785" font-family="Times Roman,serif" font-size="14.00">equiv_iff_hprop</text>
</a>
</g>
<!-- HProp_equiv_contr_inhabited_hprop&#45;&gt;HProp_equiv_iff_hprop -->
<g id="edge36" class="edge"><title>HProp_equiv_contr_inhabited_hprop&#45;&gt;HProp_equiv_iff_hprop</title>
<path fill="none" stroke="black" d="M191.659,-462.846C216.068,-442.875 255.023,-411.002 281.969,-388.955"/>
<polygon fill="black" stroke="black" points="284.394,-391.494 289.917,-382.453 279.961,-386.076 284.394,-391.494"/>
</g>
<!-- HProp_contr_inhabited_hprop -->
<g id="node26" class="node"><title>HProp_contr_inhabited_hprop</title>
<a xlink:href="HProp.html#contr_inhabited_hprop" xlink:title="contr_inhabited_hprop">
<ellipse fill="#f070d1" stroke="black" cx="667" cy="-141.385" rx="121.122" ry="18.3848"/>
<text text-anchor="middle" x="667" y="-137.785" font-family="Times Roman,serif" font-size="14.00">contr_inhabited_hprop</text>
</a>
</g>
<!-- HProp_equiv_contr_inhabited_hprop&#45;&gt;HProp_contr_inhabited_hprop -->
<g id="edge38" class="edge"><title>HProp_equiv_contr_inhabited_hprop&#45;&gt;HProp_contr_inhabited_hprop</title>
<path fill="none" stroke="black" d="M134.283,-463.33C85.5332,-435.733 6.99218,-381.607 47,-337.385 139.598,-235.033 571.641,-377.043 665,-275.385 690.762,-247.333 684.395,-200.364 676.454,-170.142"/>
<polygon fill="black" stroke="black" points="679.732,-168.871 673.63,-160.209 672.999,-170.785 679.732,-168.871"/>
</g>
<!-- HProp_equiv_hprop_inhabited_contr -->
<g id="node15" class="node"><title>HProp_equiv_hprop_inhabited_contr</title>
<a xlink:href="HProp.html#equiv_hprop_inhabited_contr" xlink:title="equiv_hprop_inhabited_contr">
<ellipse fill="#f070d1" stroke="black" cx="495" cy="-248.385" rx="152.967" ry="18.3848"/>
<ellipse fill="none" stroke="black" cx="495" cy="-248.385" rx="156.955" ry="22.3848"/>
<ellipse fill="none" stroke="black" cx="495" cy="-248.385" rx="160.942" ry="26.3848"/>
<text text-anchor="middle" x="495" y="-244.785" font-family="Times Roman,serif" font-size="14.00">equiv_hprop_inhabited_contr</text>
</a>
</g>
<!-- HProp_contr_contr -->
<g id="node24" class="node"><title>HProp_contr_contr</title>
<a xlink:href="HProp.html#contr_contr" xlink:title="contr_contr">
<ellipse fill="#facdef" stroke="black" cx="456" cy="-141.385" rx="67.8823" ry="18.3848"/>
<text text-anchor="middle" x="456" y="-137.785" font-family="Times Roman,serif" font-size="14.00">contr_contr</text>
</a>
</g>
<!-- HProp_equiv_hprop_inhabited_contr&#45;&gt;HProp_contr_contr -->
<g id="edge40" class="edge"><title>HProp_equiv_hprop_inhabited_contr&#45;&gt;HProp_contr_contr</title>
<path fill="none" stroke="black" d="M485.259,-221.66C479.467,-205.769 472.128,-185.632 466.248,-169.502"/>
<polygon fill="black" stroke="black" points="469.516,-168.247 462.803,-160.051 462.94,-170.645 469.516,-168.247"/>
</g>
<!-- HProp_hprop_inhabited_contr -->
<g id="node25" class="node"><title>HProp_hprop_inhabited_contr</title>
<a xlink:href="HProp.html#hprop_inhabited_contr" xlink:title="hprop_inhabited_contr">
<ellipse fill="#f070d1" stroke="black" cx="245" cy="-141.385" rx="121.122" ry="18.3848"/>
<text text-anchor="middle" x="245" y="-137.785" font-family="Times Roman,serif" font-size="14.00">hprop_inhabited_contr</text>
</a>
</g>
<!-- HProp_equiv_hprop_inhabited_contr&#45;&gt;HProp_hprop_inhabited_contr -->
<g id="edge42" class="edge"><title>HProp_equiv_hprop_inhabited_contr&#45;&gt;HProp_hprop_inhabited_contr</title>
<path fill="none" stroke="black" d="M437.017,-223.568C394.061,-205.183 336.113,-180.381 295.147,-162.848"/>
<polygon fill="black" stroke="black" points="296.468,-159.606 285.898,-158.889 293.714,-166.042 296.468,-159.606"/>
</g>
<!-- HProp_equiv_hprop_inhabited_contr&#45;&gt;HProp_contr_inhabited_hprop -->
<g id="edge44" class="edge"><title>HProp_equiv_hprop_inhabited_contr&#45;&gt;HProp_contr_inhabited_hprop</title>
<path fill="none" stroke="black" d="M536.198,-222.756C564.537,-205.127 601.88,-181.896 629.408,-164.77"/>
<polygon fill="black" stroke="black" points="631.335,-167.694 637.978,-159.44 627.638,-161.75 631.335,-167.694"/>
</g>
<!-- HProp_hprop_trunc -->
<g id="node23" class="node"><title>HProp_hprop_trunc</title>
<a xlink:href="HProp.html#hprop_trunc" xlink:title="hprop_trunc">
<ellipse fill="#facdef" stroke="black" cx="245" cy="-248.385" rx="70.9184" ry="18.3848"/>
<text text-anchor="middle" x="245" y="-244.785" font-family="Times Roman,serif" font-size="14.00">hprop_trunc</text>
</a>
</g>
<!-- HProp_HProp_HProp&#45;&gt;HProp_hprop_trunc -->
<g id="edge46" class="edge"><title>HProp_HProp_HProp&#45;&gt;HProp_hprop_trunc</title>
<path fill="none" stroke="black" d="M149.656,-346.26C168.646,-326.766 198.983,-295.624 220.327,-273.713"/>
<polygon fill="black" stroke="black" points="222.997,-275.988 227.468,-266.383 217.983,-271.103 222.997,-275.988"/>
</g>
<!-- HProp_hprop_contr&#45;&gt;HProp_contr_contr -->
<g id="edge48" class="edge"><title>HProp_hprop_contr&#45;&gt;HProp_contr_contr</title>
<path fill="none" stroke="black" d="M128.074,-233.474C139.965,-229.404 152.949,-225.097 165,-221.385 244.523,-196.89 337.371,-171.998 396.407,-156.629"/>
<polygon fill="black" stroke="black" points="397.505,-159.96 406.304,-154.059 395.745,-153.185 397.505,-159.96"/>
</g>
<!-- HProp_hprop_contr&#45;&gt;HProp_hprop_inhabited_contr -->
<g id="edge50" class="edge"><title>HProp_hprop_contr&#45;&gt;HProp_hprop_inhabited_contr</title>
<path fill="none" stroke="black" d="M111.9,-230.955C138.49,-213.061 180.055,-185.09 209.657,-165.169"/>
<polygon fill="black" stroke="black" points="211.705,-168.01 218.048,-159.523 207.797,-162.202 211.705,-168.01"/>
</g>
<!-- HProp_equiv_iff_hprop_uncurried -->
<g id="node19" class="node"><title>HProp_equiv_iff_hprop_uncurried</title>
<a xlink:href="HProp.html#equiv_iff_hprop_uncurried" xlink:title="equiv_iff_hprop_uncurried">
<ellipse fill="#f070d1" stroke="black" cx="1070" cy="-248.385" rx="138.093" ry="18.3848"/>
<text text-anchor="middle" x="1070" y="-244.785" font-family="Times Roman,serif" font-size="14.00">equiv_iff_hprop_uncurried</text>
</a>
</g>
<!-- HProp_equiv_iff_hprop&#45;&gt;HProp_equiv_iff_hprop_uncurried -->
<g id="edge52" class="edge"><title>HProp_equiv_iff_hprop&#45;&gt;HProp_equiv_iff_hprop_uncurried</title>
<path fill="none" stroke="black" d="M367.32,-350.141C386.167,-345.624 407.42,-340.897 427,-337.385 645.67,-298.163 703.435,-309.243 923,-275.385 941.999,-272.455 962.313,-268.96 981.59,-265.472"/>
<polygon fill="black" stroke="black" points="982.354,-268.89 991.563,-263.651 981.097,-262.004 982.354,-268.89"/>
</g>
<!-- HProp_allpath_hprop -->
<g id="node22" class="node"><title>HProp_allpath_hprop</title>
<a xlink:href="HProp.html#allpath_hprop" xlink:title="allpath_hprop">
<ellipse fill="#f070d1" stroke="black" cx="1064" cy="-141.385" rx="77.9889" ry="18.3848"/>
<text text-anchor="middle" x="1064" y="-137.785" font-family="Times Roman,serif" font-size="14.00">allpath_hprop</text>
</a>
</g>
<!-- HProp_equiv_iff_hprop_uncurried&#45;&gt;HProp_allpath_hprop -->
<g id="edge54" class="edge"><title>HProp_equiv_iff_hprop_uncurried&#45;&gt;HProp_allpath_hprop</title>
<path fill="none" stroke="black" d="M1068.95,-229.747C1068.04,-213.354 1066.68,-189.226 1065.62,-170.323"/>
<polygon fill="black" stroke="black" points="1069.11,-169.957 1065.05,-160.168 1062.12,-170.349 1069.11,-169.957"/>
</g>
<!-- HProp_hprop_allpath -->
<g id="node21" class="node"><title>HProp_hprop_allpath</title>
<a xlink:href="HProp.html#hprop_allpath" xlink:title="hprop_allpath">
<ellipse fill="#f070d1" stroke="black" cx="884" cy="-141.385" rx="77.9889" ry="18.3848"/>
<text text-anchor="middle" x="884" y="-137.785" font-family="Times Roman,serif" font-size="14.00">hprop_allpath</text>
</a>
</g>
<!-- HProp_equiv_hprop_allpath&#45;&gt;HProp_hprop_allpath -->
<g id="edge56" class="edge"><title>HProp_equiv_hprop_allpath&#45;&gt;HProp_hprop_allpath</title>
<path fill="none" stroke="black" d="M817.935,-229.747C830.726,-212.639 849.814,-187.108 864.189,-167.883"/>
<polygon fill="black" stroke="black" points="867.04,-169.914 870.225,-159.809 861.434,-165.722 867.04,-169.914"/>
</g>
<!-- HProp_equiv_hprop_allpath&#45;&gt;HProp_allpath_hprop -->
<g id="edge58" class="edge"><title>HProp_equiv_hprop_allpath&#45;&gt;HProp_allpath_hprop</title>
<path fill="none" stroke="black" d="M845.773,-231.194C892.067,-212.142 966.624,-181.459 1015.47,-161.356"/>
<polygon fill="black" stroke="black" points="1016.97,-164.526 1024.88,-157.484 1014.3,-158.053 1016.97,-164.526"/>
</g>
<!-- HProp_equiv_hprop_allpath&#45;&gt;HProp_contr_contr -->
<g id="edge60" class="edge"><title>HProp_equiv_hprop_allpath&#45;&gt;HProp_contr_contr</title>
<path fill="none" stroke="black" d="M751.146,-232.134C686.309,-212.198 576.92,-178.564 511.081,-158.321"/>
<polygon fill="black" stroke="black" points="511.885,-154.906 501.298,-155.313 509.828,-161.597 511.885,-154.906"/>
</g>
<!-- HProp_equiv_hprop_allpath&#45;&gt;HProp_contr_inhabited_hprop -->
<g id="edge62" class="edge"><title>HProp_equiv_hprop_allpath&#45;&gt;HProp_contr_inhabited_hprop</title>
<path fill="none" stroke="black" d="M780.76,-230.234C758.126,-212.556 723.559,-185.559 698.469,-165.963"/>
<polygon fill="black" stroke="black" points="700.39,-163.022 690.354,-159.625 696.081,-168.539 700.39,-163.022"/>
</g>
<!-- HProp_hprop_trunc&#45;&gt;HProp_contr_contr -->
<g id="edge64" class="edge"><title>HProp_hprop_trunc&#45;&gt;HProp_contr_contr</title>
<path fill="none" stroke="black" d="M277.506,-231.901C314.399,-213.192 374.65,-182.638 414.806,-162.275"/>
<polygon fill="black" stroke="black" points="416.467,-165.357 423.803,-157.712 413.301,-159.114 416.467,-165.357"/>
</g>
<!-- HProp_hprop_trunc&#45;&gt;HProp_hprop_inhabited_contr -->
<g id="edge66" class="edge"><title>HProp_hprop_trunc&#45;&gt;HProp_hprop_inhabited_contr</title>
<path fill="none" stroke="black" d="M245,-229.747C245,-213.354 245,-189.226 245,-170.323"/>
<polygon fill="black" stroke="black" points="248.5,-170.168 245,-160.168 241.5,-170.168 248.5,-170.168"/>
</g>
</g>
</svg>
