<?xml version="1.0" encoding="UTF-8" standalone="no"?>
<!DOCTYPE svg PUBLIC "-//W3C//DTD SVG 1.1//EN"
 "http://www.w3.org/Graphics/SVG/1.1/DTD/svg11.dtd">
<!-- Generated by graphviz version 2.39.20161220.0128 (20161220.0128)
 -->
<!-- Title: HoTT_Conjugation Pages: 1 -->
<svg width="542pt" height="275pt"
 viewBox="0.00 0.00 542.00 275.00" xmlns="http://www.w3.org/2000/svg" xmlns:xlink="http://www.w3.org/1999/xlink">
<g id="graph0" class="graph" transform="scale(1 1) rotate(0) translate(4 271)">
<title>HoTT_Conjugation</title>
<polygon fill="#ffffff" stroke="transparent" points="-4,4 -4,-271 538,-271 538,4 -4,4"/>
<g id="clust1" class="cluster">
<title>cluster_Conjugation</title>
<polygon fill="#ffffc3" stroke="#000000" points="10.4195,-8 10.4195,-259 523.5805,-259 523.5805,-8 10.4195,-8"/>
<text text-anchor="middle" x="51.9195" y="-243.8" font-family="Times,serif" font-size="14.00" fill="#000000">Conjugation</text>
</g>
<!-- Conjugation_ap1_to_conjp -->
<g id="node1" class="node">
<title>Conjugation_ap1_to_conjp</title>
<g id="a_node1"><a xlink:href="Conjugation.html#ap1_to_conjp" xlink:title="ap1_to_conjp">
<ellipse fill="#f070d1" stroke="#000000" cx="427.4976" cy="-202" rx="58.4902" ry="18"/>
<ellipse fill="none" stroke="#000000" cx="427.4976" cy="-202" rx="62.4899" ry="22"/>
<ellipse fill="none" stroke="#000000" cx="427.4976" cy="-202" rx="66.4896" ry="26"/>
<text text-anchor="middle" x="427.4976" y="-198.3" font-family="Times,serif" font-size="14.00" fill="#000000">ap1_to_conjp</text>
</a>
</g>
</g>
<!-- Conjugation_ap_to_conjp -->
<g id="node3" class="node">
<title>Conjugation_ap_to_conjp</title>
<g id="a_node3"><a xlink:href="Conjugation.html#ap_to_conjp" xlink:title="ap_to_conjp">
<ellipse fill="#facdef" stroke="#000000" cx="442.4976" cy="-114" rx="53.8905" ry="18"/>
<text text-anchor="middle" x="442.4976" y="-110.3" font-family="Times,serif" font-size="14.00" fill="#000000">ap_to_conjp</text>
</a>
</g>
</g>
<!-- Conjugation_ap1_to_conjp&#45;&gt;Conjugation_ap_to_conjp -->
<g id="edge1" class="edge">
<title>Conjugation_ap1_to_conjp&#45;&gt;Conjugation_ap_to_conjp</title>
<path fill="none" stroke="#000000" d="M431.9981,-175.5971C433.7973,-165.0414 435.8723,-152.868 437.7001,-142.1448"/>
<polygon fill="#000000" stroke="#000000" points="441.196,-142.4648 439.4262,-132.0188 434.2955,-141.2885 441.196,-142.4648"/>
</g>
<!-- Conjugation_conjp_ap -->
<g id="node2" class="node">
<title>Conjugation_conjp_ap</title>
<g id="a_node2"><a xlink:href="Conjugation.html#conjp_ap" xlink:title="conjp_ap">
<ellipse fill="#facdef" stroke="#000000" cx="282.4976" cy="-114" rx="42.8089" ry="18"/>
<ellipse fill="none" stroke="#000000" cx="282.4976" cy="-114" rx="46.8007" ry="22"/>
<ellipse fill="none" stroke="#000000" cx="282.4976" cy="-114" rx="50.7926" ry="26"/>
<text text-anchor="middle" x="282.4976" y="-110.3" font-family="Times,serif" font-size="14.00" fill="#000000">conjp_ap</text>
</a>
</g>
</g>
<!-- Conjugation_conjp -->
<g id="node5" class="node">
<title>Conjugation_conjp</title>
<g id="a_node5"><a xlink:href="Conjugation.html#conjp" xlink:title="conjp">
<ellipse fill="#f070d1" stroke="#000000" cx="282.4976" cy="-34" rx="30.5947" ry="18"/>
<text text-anchor="middle" x="282.4976" y="-30.3" font-family="Times,serif" font-size="14.00" fill="#000000">conjp</text>
</a>
</g>
</g>
<!-- Conjugation_conjp_ap&#45;&gt;Conjugation_conjp -->
<g id="edge2" class="edge">
<title>Conjugation_conjp_ap&#45;&gt;Conjugation_conjp</title>
<path fill="none" stroke="#000000" d="M282.4976,-87.805C282.4976,-79.6026 282.4976,-70.5174 282.4976,-62.1839"/>
<polygon fill="#000000" stroke="#000000" points="285.9977,-62.1532 282.4976,-52.1532 278.9977,-62.1533 285.9977,-62.1532"/>
</g>
<!-- Conjugation_ap_to_conjp&#45;&gt;Conjugation_conjp -->
<g id="edge3" class="edge">
<title>Conjugation_ap_to_conjp&#45;&gt;Conjugation_conjp</title>
<path fill="none" stroke="#000000" d="M412.4028,-98.9526C384.7506,-85.1265 343.8538,-64.6781 315.3592,-50.4308"/>
<polygon fill="#000000" stroke="#000000" points="316.7179,-47.1971 306.2084,-45.8554 313.5874,-53.4581 316.7179,-47.1971"/>
</g>
<!-- Conjugation_conjp_concat -->
<g id="node4" class="node">
<title>Conjugation_conjp_concat</title>
<g id="a_node4"><a xlink:href="Conjugation.html#conjp_concat" xlink:title="conjp_concat">
<ellipse fill="#facdef" stroke="#000000" cx="106.4976" cy="-114" rx="57.7089" ry="18"/>
<ellipse fill="none" stroke="#000000" cx="106.4976" cy="-114" rx="61.6995" ry="22"/>
<ellipse fill="none" stroke="#000000" cx="106.4976" cy="-114" rx="65.6901" ry="26"/>
<text text-anchor="middle" x="106.4976" y="-110.3" font-family="Times,serif" font-size="14.00" fill="#000000">conjp_concat</text>
</a>
</g>
</g>
<!-- Conjugation_conjp_concat&#45;&gt;Conjugation_conjp -->
<g id="edge4" class="edge">
<title>Conjugation_conjp_concat&#45;&gt;Conjugation_conjp</title>
<path fill="none" stroke="#000000" d="M150.0032,-94.2247C180.5077,-80.359 220.692,-62.0935 248.7754,-49.3283"/>
<polygon fill="#000000" stroke="#000000" points="250.5131,-52.383 258.1685,-45.0587 247.6165,-46.0105 250.5131,-52.383"/>
</g>
</g>
</svg>
