<?xml version="1.0" encoding="UTF-8" standalone="no"?>
<!DOCTYPE svg PUBLIC "-//W3C//DTD SVG 1.1//EN"
 "http://www.w3.org/Graphics/SVG/1.1/DTD/svg11.dtd">
<!-- Generated by graphviz version 2.39.20161220.0128 (20161220.0128)
 -->
<!-- Title: HoTT_Categories_HomFunctor Pages: 1 -->
<svg width="510pt" height="259pt"
 viewBox="0.00 0.00 510.00 259.00" xmlns="http://www.w3.org/2000/svg" xmlns:xlink="http://www.w3.org/1999/xlink">
<g id="graph0" class="graph" transform="scale(1 1) rotate(0) translate(4 255)">
<title>HoTT_Categories_HomFunctor</title>
<polygon fill="#ffffff" stroke="transparent" points="-4,4 -4,-255 506,-255 506,4 -4,4"/>
<g id="clust1" class="cluster">
<title>cluster_HomFunctor</title>
<polygon fill="#ffffc3" stroke="#000000" points="8.2975,-8 8.2975,-243 493.7025,-243 493.7025,-8 8.2975,-8"/>
<text text-anchor="middle" x="51.2975" y="-227.8" font-family="Times,serif" font-size="14.00" fill="#000000">HomFunctor</text>
</g>
<!-- HomFunctor_contravariant_hom_functor -->
<g id="node1" class="node">
<title>HomFunctor_contravariant_hom_functor</title>
<g id="a_node1"><a xlink:href="HomFunctor.html#contravariant_hom_functor" xlink:title="contravariant_hom_functor">
<ellipse fill="#f070d1" stroke="#000000" cx="365.6777" cy="-186" rx="107.4647" ry="18"/>
<ellipse fill="none" stroke="#000000" cx="365.6777" cy="-186" rx="111.4731" ry="22"/>
<ellipse fill="none" stroke="#000000" cx="365.6777" cy="-186" rx="115.4815" ry="26"/>
<text text-anchor="middle" x="365.6777" y="-182.3" font-family="Times,serif" font-size="14.00" fill="#000000">contravariant_hom_functor</text>
</a>
</g>
</g>
<!-- HomFunctor_hom_functor -->
<g id="node3" class="node">
<title>HomFunctor_hom_functor</title>
<g id="a_node3"><a xlink:href="HomFunctor.html#hom_functor" xlink:title="hom_functor">
<ellipse fill="#f070d1" stroke="#000000" cx="149.6777" cy="-106" rx="56.59" ry="18"/>
<text text-anchor="middle" x="149.6777" y="-102.3" font-family="Times,serif" font-size="14.00" fill="#000000">hom_functor</text>
</a>
</g>
</g>
<!-- HomFunctor_contravariant_hom_functor&#45;&gt;HomFunctor_hom_functor -->
<g id="edge1" class="edge">
<title>HomFunctor_contravariant_hom_functor&#45;&gt;HomFunctor_hom_functor</title>
<path fill="none" stroke="#000000" d="M305.5096,-163.7155C271.006,-150.9364 228.34,-135.1342 196.3805,-123.2973"/>
<polygon fill="#000000" stroke="#000000" points="197.4198,-119.95 186.8267,-119.7589 194.9886,-126.5142 197.4198,-119.95"/>
</g>
<!-- HomFunctor_covariant_hom_functor -->
<g id="node2" class="node">
<title>HomFunctor_covariant_hom_functor</title>
<g id="a_node2"><a xlink:href="HomFunctor.html#covariant_hom_functor" xlink:title="covariant_hom_functor">
<ellipse fill="#f070d1" stroke="#000000" cx="122.6777" cy="-186" rx="93.6762" ry="18"/>
<ellipse fill="none" stroke="#000000" cx="122.6777" cy="-186" rx="97.6799" ry="22"/>
<ellipse fill="none" stroke="#000000" cx="122.6777" cy="-186" rx="101.6835" ry="26"/>
<text text-anchor="middle" x="122.6777" y="-182.3" font-family="Times,serif" font-size="14.00" fill="#000000">covariant_hom_functor</text>
</a>
</g>
</g>
<!-- HomFunctor_covariant_hom_functor&#45;&gt;HomFunctor_hom_functor -->
<g id="edge2" class="edge">
<title>HomFunctor_covariant_hom_functor&#45;&gt;HomFunctor_hom_functor</title>
<path fill="none" stroke="#000000" d="M131.5185,-159.805C134.3483,-151.4203 137.4895,-142.1132 140.3527,-133.6295"/>
<polygon fill="#000000" stroke="#000000" points="143.6693,-134.7474 143.551,-124.1532 137.0369,-132.5089 143.6693,-134.7474"/>
</g>
<!-- HomFunctor_hom_functor_subproof0 -->
<g id="node4" class="node">
<title>HomFunctor_hom_functor_subproof0</title>
<g id="a_node4"><a xlink:href="HomFunctor.html#hom_functor_subproof0" xlink:title="hom_functor_subproof0">
<ellipse fill="#facdef" stroke="#000000" cx="147.6777" cy="-34" rx="96.6831" ry="18"/>
<text text-anchor="middle" x="147.6777" y="-30.3" font-family="Times,serif" font-size="14.00" fill="#000000">hom_functor_subproof0</text>
</a>
</g>
</g>
<!-- HomFunctor_hom_functor&#45;&gt;HomFunctor_hom_functor_subproof0 -->
<g id="edge3" class="edge">
<title>HomFunctor_hom_functor&#45;&gt;HomFunctor_hom_functor_subproof0</title>
<path fill="none" stroke="#000000" d="M149.173,-87.8314C148.9591,-80.131 148.7048,-70.9743 148.467,-62.4166"/>
<polygon fill="#000000" stroke="#000000" points="151.9656,-62.3122 148.1892,-52.4133 144.9683,-62.5066 151.9656,-62.3122"/>
</g>
<!-- HomFunctor_hom_functor_subproof -->
<g id="node5" class="node">
<title>HomFunctor_hom_functor_subproof</title>
<g id="a_node5"><a xlink:href="HomFunctor.html#hom_functor_subproof" xlink:title="hom_functor_subproof">
<ellipse fill="#facdef" stroke="#000000" cx="361.6777" cy="-34" rx="92.0841" ry="18"/>
<text text-anchor="middle" x="361.6777" y="-30.3" font-family="Times,serif" font-size="14.00" fill="#000000">hom_functor_subproof</text>
</a>
</g>
</g>
<!-- HomFunctor_hom_functor&#45;&gt;HomFunctor_hom_functor_subproof -->
<g id="edge4" class="edge">
<title>HomFunctor_hom_functor&#45;&gt;HomFunctor_hom_functor_subproof</title>
<path fill="none" stroke="#000000" d="M188.5618,-92.7941C221.4809,-81.614 269.0711,-65.4513 306.0262,-52.9005"/>
<polygon fill="#000000" stroke="#000000" points="307.3173,-56.1585 315.6605,-49.6285 305.0661,-49.5303 307.3173,-56.1585"/>
</g>
</g>
</svg>
