<?xml version="1.0" encoding="UTF-8" standalone="no"?>
<!DOCTYPE svg PUBLIC "-//W3C//DTD SVG 1.1//EN"
 "http://www.w3.org/Graphics/SVG/1.1/DTD/svg11.dtd">
<!-- Generated by graphviz version 2.39.20161220.0128 (20161220.0128)
 -->
<!-- Title: HoTT_HProp Pages: 1 -->
<svg width="1268pt" height="638pt"
 viewBox="0.00 0.00 1268.00 638.00" xmlns="http://www.w3.org/2000/svg" xmlns:xlink="http://www.w3.org/1999/xlink">
<g id="graph0" class="graph" transform="scale(1 1) rotate(0) translate(4 634)">
<title>HoTT_HProp</title>
<polygon fill="#ffffff" stroke="transparent" points="-4,4 -4,-634 1264,-634 1264,4 -4,4"/>
<g id="clust1" class="cluster">
<title>cluster_HProp</title>
<polygon fill="#ffffc3" stroke="#000000" points="8,-14.1972 8,-615.8028 1252,-615.8028 1252,-14.1972 8,-14.1972"/>
<text text-anchor="middle" x="34" y="-600.6028" font-family="Times,serif" font-size="14.00" fill="#000000">HProp</text>
</g>
<!-- HProp_equiv_decidable_hprop -->
<g id="node1" class="node">
<title>HProp_equiv_decidable_hprop</title>
<g id="a_node1"><a xlink:href="HProp.html#equiv_decidable_hprop" xlink:title="equiv_decidable_hprop">
<ellipse fill="#f070d1" stroke="#000000" cx="1079" cy="-514.1972" rx="92.8882" ry="18"/>
<ellipse fill="none" stroke="#000000" cx="1079" cy="-514.1972" rx="96.8858" ry="22"/>
<ellipse fill="none" stroke="#000000" cx="1079" cy="-514.1972" rx="100.8835" ry="26"/>
<text text-anchor="middle" x="1079" y="-510.4972" font-family="Times,serif" font-size="14.00" fill="#000000">equiv_decidable_hprop</text>
</a>
</g>
</g>
<!-- HProp_if_not_hprop_then_equiv_Empty -->
<g id="node2" class="node">
<title>HProp_if_not_hprop_then_equiv_Empty</title>
<g id="a_node2"><a xlink:href="HProp.html#if_not_hprop_then_equiv_Empty" xlink:title="if_not_hprop_then_equiv_Empty">
<ellipse fill="#f070d1" stroke="#000000" cx="888" cy="-358.1972" rx="128.0773" ry="18"/>
<text text-anchor="middle" x="888" y="-354.4972" font-family="Times,serif" font-size="14.00" fill="#000000">if_not_hprop_then_equiv_Empty</text>
</a>
</g>
</g>
<!-- HProp_equiv_decidable_hprop&#45;&gt;HProp_if_not_hprop_then_equiv_Empty -->
<g id="edge1" class="edge">
<title>HProp_equiv_decidable_hprop&#45;&gt;HProp_if_not_hprop_then_equiv_Empty</title>
<path fill="none" stroke="#000000" d="M1048.3125,-489.1331C1012.4841,-459.8701 953.6115,-411.7857 918.0563,-382.7458"/>
<polygon fill="#000000" stroke="#000000" points="919.9376,-379.7633 909.9786,-376.1483 915.5096,-385.1848 919.9376,-379.7633"/>
</g>
<!-- HProp_if_hprop_then_equiv_Unit -->
<g id="node3" class="node">
<title>HProp_if_hprop_then_equiv_Unit</title>
<g id="a_node3"><a xlink:href="HProp.html#if_hprop_then_equiv_Unit" xlink:title="if_hprop_then_equiv_Unit">
<ellipse fill="#f070d1" stroke="#000000" cx="1139" cy="-358.1972" rx="104.7816" ry="18"/>
<text text-anchor="middle" x="1139" y="-354.4972" font-family="Times,serif" font-size="14.00" fill="#000000">if_hprop_then_equiv_Unit</text>
</a>
</g>
</g>
<!-- HProp_equiv_decidable_hprop&#45;&gt;HProp_if_hprop_then_equiv_Unit -->
<g id="edge2" class="edge">
<title>HProp_equiv_decidable_hprop&#45;&gt;HProp_if_hprop_then_equiv_Unit</title>
<path fill="none" stroke="#000000" d="M1089.0427,-488.0863C1099.9051,-459.8439 1117.1562,-414.991 1128.277,-386.077"/>
<polygon fill="#000000" stroke="#000000" points="1131.6112,-387.1578 1131.9343,-376.5679 1125.0778,-384.6449 1131.6112,-387.1578"/>
</g>
<!-- HProp_equiv_equiv_iff_hprop -->
<g id="node4" class="node">
<title>HProp_equiv_equiv_iff_hprop</title>
<g id="a_node4"><a xlink:href="HProp.html#equiv_equiv_iff_hprop" xlink:title="equiv_equiv_iff_hprop">
<ellipse fill="#f070d1" stroke="#000000" cx="800" cy="-514.1972" rx="91.7725" ry="18"/>
<ellipse fill="none" stroke="#000000" cx="800" cy="-514.1972" rx="95.7782" ry="22"/>
<ellipse fill="none" stroke="#000000" cx="800" cy="-514.1972" rx="99.7839" ry="26"/>
<text text-anchor="middle" x="800" y="-510.4972" font-family="Times,serif" font-size="14.00" fill="#000000">equiv_equiv_iff_hprop</text>
</a>
</g>
</g>
<!-- HProp_isequiv_equiv_iff_hprop_uncurried -->
<g id="node5" class="node">
<title>HProp_isequiv_equiv_iff_hprop_uncurried</title>
<g id="a_node5"><a xlink:href="HProp.html#isequiv_equiv_iff_hprop_uncurried" xlink:title="isequiv_equiv_iff_hprop_uncurried">
<ellipse fill="#f070d1" stroke="#000000" cx="606" cy="-358.1972" rx="135.6761" ry="18"/>
<text text-anchor="middle" x="606" y="-354.4972" font-family="Times,serif" font-size="14.00" fill="#000000">isequiv_equiv_iff_hprop_uncurried</text>
</a>
</g>
</g>
<!-- HProp_equiv_equiv_iff_hprop&#45;&gt;HProp_isequiv_equiv_iff_hprop_uncurried -->
<g id="edge3" class="edge">
<title>HProp_equiv_equiv_iff_hprop&#45;&gt;HProp_isequiv_equiv_iff_hprop_uncurried</title>
<path fill="none" stroke="#000000" d="M768.8305,-489.1331C732.4393,-459.8701 672.6421,-411.7857 636.5284,-382.7458"/>
<polygon fill="#000000" stroke="#000000" points="638.3101,-379.6873 628.3238,-376.1483 633.9235,-385.1424 638.3101,-379.6873"/>
</g>
<!-- HProp_equiv_contr_inhabited_allpath -->
<g id="node6" class="node">
<title>HProp_equiv_contr_inhabited_allpath</title>
<g id="a_node6"><a xlink:href="HProp.html#equiv_contr_inhabited_allpath" xlink:title="equiv_contr_inhabited_allpath">
<ellipse fill="#f070d1" stroke="#000000" cx="556" cy="-514.1972" rx="118.0927" ry="18"/>
<ellipse fill="none" stroke="#000000" cx="556" cy="-514.1972" rx="122.086" ry="22"/>
<ellipse fill="none" stroke="#000000" cx="556" cy="-514.1972" rx="126.0794" ry="26"/>
<text text-anchor="middle" x="556" y="-510.4972" font-family="Times,serif" font-size="14.00" fill="#000000">equiv_contr_inhabited_allpath</text>
</a>
</g>
</g>
<!-- HProp_equiv_contr_inhabited_hprop -->
<g id="node7" class="node">
<title>HProp_equiv_contr_inhabited_hprop</title>
<g id="a_node7"><a xlink:href="HProp.html#equiv_contr_inhabited_hprop" xlink:title="equiv_contr_inhabited_hprop">
<ellipse fill="#f070d1" stroke="#000000" cx="318" cy="-358.1972" rx="114.2798" ry="18"/>
<text text-anchor="middle" x="318" y="-354.4972" font-family="Times,serif" font-size="14.00" fill="#000000">equiv_contr_inhabited_hprop</text>
</a>
</g>
</g>
<!-- HProp_equiv_contr_inhabited_allpath&#45;&gt;HProp_equiv_contr_inhabited_hprop -->
<g id="edge4" class="edge">
<title>HProp_equiv_contr_inhabited_allpath&#45;&gt;HProp_equiv_contr_inhabited_hprop</title>
<path fill="none" stroke="#000000" d="M518.025,-489.306C472.6249,-459.5479 397.2603,-410.1493 353.1486,-381.2358"/>
<polygon fill="#000000" stroke="#000000" points="355.0434,-378.2929 344.7611,-375.7381 351.206,-384.1473 355.0434,-378.2929"/>
</g>
<!-- HProp_equiv_hprop_allpath -->
<g id="node11" class="node">
<title>HProp_equiv_hprop_allpath</title>
<g id="a_node11"><a xlink:href="HProp.html#equiv_hprop_allpath" xlink:title="equiv_hprop_allpath">
<ellipse fill="#f070d1" stroke="#000000" cx="519" cy="-202.1972" rx="83.3857" ry="18"/>
<text text-anchor="middle" x="519" y="-198.4972" font-family="Times,serif" font-size="14.00" fill="#000000">equiv_hprop_allpath</text>
</a>
</g>
</g>
<!-- HProp_equiv_contr_inhabited_allpath&#45;&gt;HProp_equiv_hprop_allpath -->
<g id="edge5" class="edge">
<title>HProp_equiv_contr_inhabited_allpath&#45;&gt;HProp_equiv_hprop_allpath</title>
<path fill="none" stroke="#000000" d="M529.5852,-488.6923C506.436,-464.3548 474.446,-425.386 461,-384.1972 442.9265,-328.8328 476.9449,-263.7792 500.0901,-228.3847"/>
<polygon fill="#000000" stroke="#000000" points="503.0206,-230.2991 505.7019,-220.0491 497.2139,-226.3898 503.0206,-230.2991"/>
</g>
<!-- HProp_hprop_trunc -->
<g id="node13" class="node">
<title>HProp_hprop_trunc</title>
<g id="a_node13"><a xlink:href="HProp.html#hprop_trunc" xlink:title="hprop_trunc">
<ellipse fill="#facdef" stroke="#000000" cx="101" cy="-202.1972" rx="53.8905" ry="18"/>
<text text-anchor="middle" x="101" y="-198.4972" font-family="Times,serif" font-size="14.00" fill="#000000">hprop_trunc</text>
</a>
</g>
</g>
<!-- HProp_equiv_contr_inhabited_hprop&#45;&gt;HProp_hprop_trunc -->
<g id="edge6" class="edge">
<title>HProp_equiv_contr_inhabited_hprop&#45;&gt;HProp_hprop_trunc</title>
<path fill="none" stroke="#000000" d="M293.5292,-340.6052C253.8339,-312.0686 175.4748,-255.7367 131.9605,-224.4545"/>
<polygon fill="#000000" stroke="#000000" points="133.9067,-221.5431 123.7441,-218.5478 129.8207,-227.2268 133.9067,-221.5431"/>
</g>
<!-- HProp_isequiv_diag_ishprop -->
<g id="node8" class="node">
<title>HProp_isequiv_diag_ishprop</title>
<g id="a_node8"><a xlink:href="HProp.html#isequiv_diag_ishprop" xlink:title="isequiv_diag_ishprop">
<ellipse fill="#f070d1" stroke="#000000" cx="317" cy="-514.1972" rx="86.3896" ry="18"/>
<ellipse fill="none" stroke="#000000" cx="317" cy="-514.1972" rx="90.3871" ry="22"/>
<ellipse fill="none" stroke="#000000" cx="317" cy="-514.1972" rx="94.3847" ry="26"/>
<text text-anchor="middle" x="317" y="-510.4972" font-family="Times,serif" font-size="14.00" fill="#000000">isequiv_diag_ishprop</text>
</a>
</g>
</g>
<!-- HProp_ishprop_isequiv_diag -->
<g id="node9" class="node">
<title>HProp_ishprop_isequiv_diag</title>
<g id="a_node9"><a xlink:href="HProp.html#ishprop_isequiv_diag" xlink:title="ishprop_isequiv_diag">
<ellipse fill="#f070d1" stroke="#000000" cx="110" cy="-514.1972" rx="86.3896" ry="18"/>
<ellipse fill="none" stroke="#000000" cx="110" cy="-514.1972" rx="90.3871" ry="22"/>
<ellipse fill="none" stroke="#000000" cx="110" cy="-514.1972" rx="94.3847" ry="26"/>
<text text-anchor="middle" x="110" y="-510.4972" font-family="Times,serif" font-size="14.00" fill="#000000">ishprop_isequiv_diag</text>
</a>
</g>
</g>
<!-- HProp_equiv_hprop_inhabited_contr -->
<g id="node10" class="node">
<title>HProp_equiv_hprop_inhabited_contr</title>
<g id="a_node10"><a xlink:href="HProp.html#equiv_hprop_inhabited_contr" xlink:title="equiv_hprop_inhabited_contr">
<ellipse fill="#f070d1" stroke="#000000" cx="295" cy="-202.1972" rx="114.287" ry="18"/>
<ellipse fill="none" stroke="#000000" cx="295" cy="-202.1972" rx="118.2834" ry="22"/>
<ellipse fill="none" stroke="#000000" cx="295" cy="-202.1972" rx="122.2798" ry="26"/>
<text text-anchor="middle" x="295" y="-198.4972" font-family="Times,serif" font-size="14.00" fill="#000000">equiv_hprop_inhabited_contr</text>
</a>
</g>
</g>
<!-- HProp_contr_contr -->
<g id="node14" class="node">
<title>HProp_contr_contr</title>
<g id="a_node14"><a xlink:href="HProp.html#contr_contr" xlink:title="contr_contr">
<ellipse fill="#facdef" stroke="#000000" cx="295" cy="-60.1972" rx="51.1914" ry="18"/>
<text text-anchor="middle" x="295" y="-56.4972" font-family="Times,serif" font-size="14.00" fill="#000000">contr_contr</text>
</a>
</g>
</g>
<!-- HProp_equiv_hprop_inhabited_contr&#45;&gt;HProp_contr_contr -->
<g id="edge7" class="edge">
<title>HProp_equiv_hprop_inhabited_contr&#45;&gt;HProp_contr_contr</title>
<path fill="none" stroke="#000000" d="M295,-176.1522C295,-151.3515 295,-114.119 295,-88.5738"/>
<polygon fill="#000000" stroke="#000000" points="298.5001,-88.4116 295,-78.4117 291.5001,-88.4117 298.5001,-88.4116"/>
</g>
<!-- HProp_equiv_hprop_allpath&#45;&gt;HProp_contr_contr -->
<g id="edge8" class="edge">
<title>HProp_equiv_hprop_allpath&#45;&gt;HProp_contr_contr</title>
<path fill="none" stroke="#000000" d="M491.9804,-185.0687C450.9629,-159.0665 373.0559,-109.679 328.4968,-81.4317"/>
<polygon fill="#000000" stroke="#000000" points="330.3703,-78.4754 320.0504,-76.0773 326.6224,-84.3876 330.3703,-78.4754"/>
</g>
<!-- HProp_isprop_istruncmap -->
<g id="node12" class="node">
<title>HProp_isprop_istruncmap</title>
<g id="a_node12"><a xlink:href="HProp.html#isprop_istruncmap" xlink:title="isprop_istruncmap">
<ellipse fill="#f070d1" stroke="#000000" cx="101" cy="-358.1972" rx="76.8685" ry="18"/>
<ellipse fill="none" stroke="#000000" cx="101" cy="-358.1972" rx="80.8777" ry="22"/>
<ellipse fill="none" stroke="#000000" cx="101" cy="-358.1972" rx="84.8868" ry="26"/>
<text text-anchor="middle" x="101" y="-354.4972" font-family="Times,serif" font-size="14.00" fill="#000000">isprop_istruncmap</text>
</a>
</g>
</g>
<!-- HProp_isprop_istruncmap&#45;&gt;HProp_hprop_trunc -->
<g id="edge9" class="edge">
<title>HProp_isprop_istruncmap&#45;&gt;HProp_hprop_trunc</title>
<path fill="none" stroke="#000000" d="M101,-332.0863C101,-304.0905 101,-259.7732 101,-230.8382"/>
<polygon fill="#000000" stroke="#000000" points="104.5001,-230.5679 101,-220.5679 97.5001,-230.5679 104.5001,-230.5679"/>
</g>
<!-- HProp_hprop_trunc&#45;&gt;HProp_contr_contr -->
<g id="edge10" class="edge">
<title>HProp_hprop_trunc&#45;&gt;HProp_contr_contr</title>
<path fill="none" stroke="#000000" d="M123.6339,-185.6301C158.4802,-160.124 225.3263,-111.1955 264.4365,-82.5684"/>
<polygon fill="#000000" stroke="#000000" points="266.8064,-85.1712 272.8085,-76.4404 262.6719,-79.5226 266.8064,-85.1712"/>
</g>
</g>
</svg>
