<?xml version="1.0" encoding="UTF-8" standalone="no"?>
<!DOCTYPE svg PUBLIC "-//W3C//DTD SVG 1.1//EN"
 "http://www.w3.org/Graphics/SVG/1.1/DTD/svg11.dtd">
<!-- Generated by graphviz version 2.39.20141222.0545 (20141222.0545)
 -->
<!-- Title: HoTT_Basics_UniverseLevel Pages: 1 -->
<svg width="1142pt" height="575pt"
 viewBox="0.00 0.00 1142.00 575.00" xmlns="http://www.w3.org/2000/svg" xmlns:xlink="http://www.w3.org/1999/xlink">
<g id="graph0" class="graph" transform="scale(1 1) rotate(0) translate(4 571)">
<title>HoTT_Basics_UniverseLevel</title>
<polygon fill="white" stroke="transparent" points="-4,4 -4,-571 1138,-571 1138,4 -4,4"/>
<g id="clust1" class="cluster"><title>cluster_UniverseLevel</title>
<polygon fill="#ffffc3" stroke="black" points="8,-11.0365 8,-555.964 1126,-555.964 1126,-11.0365 8,-11.0365"/>
<text text-anchor="middle" x="56" y="-540.764" font-family="Times,serif" font-size="14.00">UniverseLevel</text>
</g>
<!-- UniverseLevel_lower__equiv -->
<g id="node1" class="node"><title>UniverseLevel_lower__equiv</title>
<g id="a_node1"><a xlink:href="UniverseLevel.html#lower'_equiv" xlink:title="lower&#39;_equiv">
<ellipse fill="#f070d1" stroke="black" cx="918" cy="-477.036" rx="55.8034" ry="18"/>
<ellipse fill="none" stroke="black" cx="918" cy="-477.036" rx="59.7968" ry="22"/>
<ellipse fill="none" stroke="black" cx="918" cy="-477.036" rx="63.7903" ry="26"/>
<text text-anchor="middle" x="918" y="-473.336" font-family="Times,serif" font-size="14.00">lower&#39;_equiv</text>
</a>
</g>
</g>
<!-- UniverseLevel_lower__isequiv -->
<g id="node2" class="node"><title>UniverseLevel_lower__isequiv</title>
<g id="a_node2"><a xlink:href="UniverseLevel.html#lower'_isequiv" xlink:title="lower&#39;_isequiv">
<ellipse fill="#f070d1" stroke="black" cx="918" cy="-356.036" rx="61.99" ry="18"/>
<text text-anchor="middle" x="918" y="-352.336" font-family="Times,serif" font-size="14.00">lower&#39;_isequiv</text>
</a>
</g>
</g>
<!-- UniverseLevel_lower__equiv&#45;&gt;UniverseLevel_lower__isequiv -->
<g id="edge1" class="edge"><title>UniverseLevel_lower__equiv&#45;&gt;UniverseLevel_lower__isequiv</title>
<path fill="none" stroke="black" d="M918,-450.781C918,-431.221 918,-404.539 918,-384.474"/>
<polygon fill="black" stroke="black" points="921.5,-384.377 918,-374.377 914.5,-384.377 921.5,-384.377"/>
</g>
<!-- UniverseLevel_lower_2 -->
<g id="node6" class="node"><title>UniverseLevel_lower_2</title>
<g id="a_node6"><a xlink:href="UniverseLevel.html#lower'2" xlink:title="lower&#39;2">
<ellipse fill="#f070d1" stroke="black" cx="805" cy="-246.036" rx="36.2938" ry="18"/>
<text text-anchor="middle" x="805" y="-242.336" font-family="Times,serif" font-size="14.00">lower&#39;2</text>
</a>
</g>
</g>
<!-- UniverseLevel_lower__isequiv&#45;&gt;UniverseLevel_lower_2 -->
<g id="edge2" class="edge"><title>UniverseLevel_lower__isequiv&#45;&gt;UniverseLevel_lower_2</title>
<path fill="none" stroke="black" d="M900.095,-338.607C880.918,-319.939 850.377,-290.209 829.098,-269.495"/>
<polygon fill="black" stroke="black" points="831.323,-266.776 821.716,-262.309 826.44,-271.792 831.323,-266.776"/>
</g>
<!-- UniverseLevel_lift_ -->
<g id="node9" class="node"><title>UniverseLevel_lift_</title>
<g id="a_node9"><a xlink:href="UniverseLevel.html#lift'" xlink:title="lift&#39;">
<ellipse fill="#f070d1" stroke="black" cx="918" cy="-246.036" rx="27" ry="18"/>
<text text-anchor="middle" x="918" y="-242.336" font-family="Times,serif" font-size="14.00">lift&#39;</text>
</a>
</g>
</g>
<!-- UniverseLevel_lower__isequiv&#45;&gt;UniverseLevel_lift_ -->
<g id="edge3" class="edge"><title>UniverseLevel_lower__isequiv&#45;&gt;UniverseLevel_lift_</title>
<path fill="none" stroke="black" d="M918,-337.872C918,-320.596 918,-294.346 918,-274.328"/>
<polygon fill="black" stroke="black" points="921.5,-274.228 918,-264.228 914.5,-274.228 921.5,-274.228"/>
</g>
<!-- UniverseLevel_lift__isequiv -->
<g id="node3" class="node"><title>UniverseLevel_lift__isequiv</title>
<g id="a_node3"><a xlink:href="UniverseLevel.html#lift'_isequiv" xlink:title="lift&#39;_isequiv">
<ellipse fill="#f070d1" stroke="black" cx="631" cy="-356.036" rx="51.9914" ry="18"/>
<ellipse fill="none" stroke="black" cx="631" cy="-356.036" rx="55.9911" ry="22"/>
<ellipse fill="none" stroke="black" cx="631" cy="-356.036" rx="59.9908" ry="26"/>
<text text-anchor="middle" x="631" y="-352.336" font-family="Times,serif" font-size="14.00">lift&#39;_isequiv</text>
</a>
</g>
</g>
<!-- UniverseLevel_lift_2 -->
<g id="node7" class="node"><title>UniverseLevel_lift_2</title>
<g id="a_node7"><a xlink:href="UniverseLevel.html#lift'2" xlink:title="lift&#39;2">
<ellipse fill="#f070d1" stroke="black" cx="705" cy="-246.036" rx="27" ry="18"/>
<text text-anchor="middle" x="705" y="-242.336" font-family="Times,serif" font-size="14.00">lift&#39;2</text>
</a>
</g>
</g>
<!-- UniverseLevel_lift__isequiv&#45;&gt;UniverseLevel_lift_2 -->
<g id="edge4" class="edge"><title>UniverseLevel_lift__isequiv&#45;&gt;UniverseLevel_lift_2</title>
<path fill="none" stroke="black" d="M647.977,-330.8C659.968,-312.976 675.974,-289.183 687.976,-271.343"/>
<polygon fill="black" stroke="black" points="691.167,-272.87 693.844,-262.619 685.359,-268.963 691.167,-272.87"/>
</g>
<!-- UniverseLevel_lower_ -->
<g id="node8" class="node"><title>UniverseLevel_lower_</title>
<g id="a_node8"><a xlink:href="UniverseLevel.html#lower'" xlink:title="lower&#39;">
<ellipse fill="#f070d1" stroke="black" cx="805" cy="-146.036" rx="32.4942" ry="18"/>
<text text-anchor="middle" x="805" y="-142.336" font-family="Times,serif" font-size="14.00">lower&#39;</text>
</a>
</g>
</g>
<!-- UniverseLevel_lift__isequiv&#45;&gt;UniverseLevel_lower_ -->
<g id="edge5" class="edge"><title>UniverseLevel_lift__isequiv&#45;&gt;UniverseLevel_lower_</title>
<path fill="none" stroke="black" d="M633.183,-329.975C636.686,-302.181 645.739,-258.106 669,-228.036 694.421,-195.174 737.037,-172.587 767.798,-159.565"/>
<polygon fill="black" stroke="black" points="769.396,-162.693 777.331,-155.673 766.75,-156.213 769.396,-162.693"/>
</g>
<!-- UniverseLevel_lift__isequiv&#45;&gt;UniverseLevel_lift_ -->
<g id="edge6" class="edge"><title>UniverseLevel_lift__isequiv&#45;&gt;UniverseLevel_lift_</title>
<path fill="none" stroke="black" d="M676.159,-338.728C734.172,-316.493 833.501,-278.423 884.946,-258.705"/>
<polygon fill="black" stroke="black" points="886.486,-261.864 894.571,-255.016 883.98,-255.327 886.486,-261.864"/>
</g>
<!-- UniverseLevel_isequiv_lift_2 -->
<g id="node4" class="node"><title>UniverseLevel_isequiv_lift_2</title>
<g id="a_node4"><a xlink:href="UniverseLevel.html#isequiv_lift'2" xlink:title="isequiv_lift&#39;2">
<ellipse fill="#f070d1" stroke="black" cx="774" cy="-356.036" rx="56.5844" ry="18"/>
<ellipse fill="none" stroke="black" cx="774" cy="-356.036" rx="60.5872" ry="22"/>
<ellipse fill="none" stroke="black" cx="774" cy="-356.036" rx="64.59" ry="26"/>
<text text-anchor="middle" x="774" y="-352.336" font-family="Times,serif" font-size="14.00">isequiv_lift&#39;2</text>
</a>
</g>
</g>
<!-- UniverseLevel_isequiv_lift_2&#45;&gt;UniverseLevel_lower_2 -->
<g id="edge7" class="edge"><title>UniverseLevel_isequiv_lift_2&#45;&gt;UniverseLevel_lower_2</title>
<path fill="none" stroke="black" d="M781.347,-329.968C786.091,-313.132 792.261,-291.24 797.109,-274.035"/>
<polygon fill="black" stroke="black" points="800.589,-274.591 799.933,-264.016 793.852,-272.692 800.589,-274.591"/>
</g>
<!-- UniverseLevel_isequiv_lift_2&#45;&gt;UniverseLevel_lift_2 -->
<g id="edge8" class="edge"><title>UniverseLevel_isequiv_lift_2&#45;&gt;UniverseLevel_lift_2</title>
<path fill="none" stroke="black" d="M758.17,-330.8C747.057,-313.084 732.245,-289.471 721.078,-271.668"/>
<polygon fill="black" stroke="black" points="723.888,-269.561 715.609,-262.949 717.958,-273.28 723.888,-269.561"/>
</g>
<!-- UniverseLevel_isequiv_lift_ -->
<g id="node5" class="node"><title>UniverseLevel_isequiv_lift_</title>
<g id="a_node5"><a xlink:href="UniverseLevel.html#isequiv_lift'" xlink:title="isequiv_lift&#39;">
<ellipse fill="#f070d1" stroke="black" cx="1058" cy="-356.036" rx="51.9914" ry="18"/>
<ellipse fill="none" stroke="black" cx="1058" cy="-356.036" rx="55.9911" ry="22"/>
<ellipse fill="none" stroke="black" cx="1058" cy="-356.036" rx="59.9908" ry="26"/>
<text text-anchor="middle" x="1058" y="-352.336" font-family="Times,serif" font-size="14.00">isequiv_lift&#39;</text>
</a>
</g>
</g>
<!-- UniverseLevel_isequiv_lift_&#45;&gt;UniverseLevel_lower_ -->
<g id="edge9" class="edge"><title>UniverseLevel_isequiv_lift_&#45;&gt;UniverseLevel_lower_</title>
<path fill="none" stroke="black" d="M1041.83,-330.745C1023.18,-303.009 990.372,-258.411 954,-228.036 919.187,-198.964 872.506,-175.257 840.733,-160.944"/>
<polygon fill="black" stroke="black" points="841.942,-157.652 831.381,-156.808 839.111,-164.053 841.942,-157.652"/>
</g>
<!-- UniverseLevel_isequiv_lift_&#45;&gt;UniverseLevel_lift_ -->
<g id="edge10" class="edge"><title>UniverseLevel_isequiv_lift_&#45;&gt;UniverseLevel_lift_</title>
<path fill="none" stroke="black" d="M1028.99,-333.244C1003.77,-313.43 967.594,-285.003 943.474,-266.052"/>
<polygon fill="black" stroke="black" points="945.509,-263.2 935.483,-259.773 941.184,-268.704 945.509,-263.2"/>
</g>
<!-- UniverseLevel_lower_2&#45;&gt;UniverseLevel_lower_ -->
<g id="edge11" class="edge"><title>UniverseLevel_lower_2&#45;&gt;UniverseLevel_lower_</title>
<path fill="none" stroke="black" d="M805,-227.695C805,-212.753 805,-191.403 805,-174.281"/>
<polygon fill="black" stroke="black" points="808.5,-174.262 805,-164.262 801.5,-174.262 808.5,-174.262"/>
</g>
<!-- UniverseLevel_Lift_ -->
<g id="node10" class="node"><title>UniverseLevel_Lift_</title>
<g id="a_node10"><a xlink:href="UniverseLevel.html#Lift'" xlink:title="Lift&#39;">
<ellipse fill="#f070d1" stroke="black" cx="805" cy="-47.0365" rx="27" ry="18"/>
<text text-anchor="middle" x="805" y="-43.3365" font-family="Times,serif" font-size="14.00">Lift&#39;</text>
</a>
</g>
</g>
<!-- UniverseLevel_lower_&#45;&gt;UniverseLevel_Lift_ -->
<g id="edge12" class="edge"><title>UniverseLevel_lower_&#45;&gt;UniverseLevel_Lift_</title>
<path fill="none" stroke="black" d="M805,-127.878C805,-113.225 805,-92.3475 805,-75.4795"/>
<polygon fill="black" stroke="black" points="808.5,-75.0795 805,-65.0795 801.5,-75.0795 808.5,-75.0795"/>
</g>
<!-- UniverseLevel_lower_equiv -->
<g id="node11" class="node"><title>UniverseLevel_lower_equiv</title>
<g id="a_node11"><a xlink:href="UniverseLevel.html#lower_equiv" xlink:title="lower_equiv">
<ellipse fill="#f070d1" stroke="black" cx="357" cy="-477.036" rx="54.6783" ry="18"/>
<ellipse fill="none" stroke="black" cx="357" cy="-477.036" rx="58.6844" ry="22"/>
<ellipse fill="none" stroke="black" cx="357" cy="-477.036" rx="62.6905" ry="26"/>
<text text-anchor="middle" x="357" y="-473.336" font-family="Times,serif" font-size="14.00">lower_equiv</text>
</a>
</g>
</g>
<!-- UniverseLevel_lower_isequiv -->
<g id="node12" class="node"><title>UniverseLevel_lower_isequiv</title>
<g id="a_node12"><a xlink:href="UniverseLevel.html#lower_isequiv" xlink:title="lower_isequiv">
<ellipse fill="#f070d1" stroke="black" cx="357" cy="-356.036" rx="60.3893" ry="18"/>
<text text-anchor="middle" x="357" y="-352.336" font-family="Times,serif" font-size="14.00">lower_isequiv</text>
</a>
</g>
</g>
<!-- UniverseLevel_lower_equiv&#45;&gt;UniverseLevel_lower_isequiv -->
<g id="edge13" class="edge"><title>UniverseLevel_lower_equiv&#45;&gt;UniverseLevel_lower_isequiv</title>
<path fill="none" stroke="black" d="M357,-450.781C357,-431.221 357,-404.539 357,-384.474"/>
<polygon fill="black" stroke="black" points="360.5,-384.377 357,-374.377 353.5,-384.377 360.5,-384.377"/>
</g>
<!-- UniverseLevel_lower2 -->
<g id="node16" class="node"><title>UniverseLevel_lower2</title>
<g id="a_node16"><a xlink:href="UniverseLevel.html#lower2" xlink:title="lower2">
<ellipse fill="#f070d1" stroke="black" cx="268" cy="-246.036" rx="35.194" ry="18"/>
<text text-anchor="middle" x="268" y="-242.336" font-family="Times,serif" font-size="14.00">lower2</text>
</a>
</g>
</g>
<!-- UniverseLevel_lower_isequiv&#45;&gt;UniverseLevel_lower2 -->
<g id="edge14" class="edge"><title>UniverseLevel_lower_isequiv&#45;&gt;UniverseLevel_lower2</title>
<path fill="none" stroke="black" d="M342.701,-338.363C327.931,-320.108 304.756,-291.466 288.136,-270.924"/>
<polygon fill="black" stroke="black" points="290.69,-268.516 281.679,-262.943 285.248,-272.919 290.69,-268.516"/>
</g>
<!-- UniverseLevel_lift -->
<g id="node19" class="node"><title>UniverseLevel_lift</title>
<g id="a_node19"><a xlink:href="UniverseLevel.html#lift" xlink:title="lift">
<ellipse fill="#f070d1" stroke="black" cx="357" cy="-246.036" rx="27" ry="18"/>
<text text-anchor="middle" x="357" y="-242.336" font-family="Times,serif" font-size="14.00">lift</text>
</a>
</g>
</g>
<!-- UniverseLevel_lower_isequiv&#45;&gt;UniverseLevel_lift -->
<g id="edge15" class="edge"><title>UniverseLevel_lower_isequiv&#45;&gt;UniverseLevel_lift</title>
<path fill="none" stroke="black" d="M357,-337.872C357,-320.596 357,-294.346 357,-274.328"/>
<polygon fill="black" stroke="black" points="360.5,-274.228 357,-264.228 353.5,-274.228 360.5,-274.228"/>
</g>
<!-- UniverseLevel_lift_isequiv -->
<g id="node13" class="node"><title>UniverseLevel_lift_isequiv</title>
<g id="a_node13"><a xlink:href="UniverseLevel.html#lift_isequiv" xlink:title="lift_isequiv">
<ellipse fill="#f070d1" stroke="black" cx="75" cy="-356.036" rx="50.8649" ry="18"/>
<ellipse fill="none" stroke="black" cx="75" cy="-356.036" rx="54.8783" ry="22"/>
<ellipse fill="none" stroke="black" cx="75" cy="-356.036" rx="58.8917" ry="26"/>
<text text-anchor="middle" x="75" y="-352.336" font-family="Times,serif" font-size="14.00">lift_isequiv</text>
</a>
</g>
</g>
<!-- UniverseLevel_lift2 -->
<g id="node17" class="node"><title>UniverseLevel_lift2</title>
<g id="a_node17"><a xlink:href="UniverseLevel.html#lift2" xlink:title="lift2">
<ellipse fill="#f070d1" stroke="black" cx="169" cy="-246.036" rx="27" ry="18"/>
<text text-anchor="middle" x="169" y="-242.336" font-family="Times,serif" font-size="14.00">lift2</text>
</a>
</g>
</g>
<!-- UniverseLevel_lift_isequiv&#45;&gt;UniverseLevel_lift2 -->
<g id="edge16" class="edge"><title>UniverseLevel_lift_isequiv&#45;&gt;UniverseLevel_lift2</title>
<path fill="none" stroke="black" d="M95.8616,-331.624C111.622,-313.181 133.131,-288.011 148.741,-269.743"/>
<polygon fill="black" stroke="black" points="151.621,-271.761 155.457,-261.885 146.3,-267.213 151.621,-271.761"/>
</g>
<!-- UniverseLevel_lower -->
<g id="node18" class="node"><title>UniverseLevel_lower</title>
<g id="a_node18"><a xlink:href="UniverseLevel.html#lower" xlink:title="lower">
<ellipse fill="#f070d1" stroke="black" cx="268" cy="-146.036" rx="30.5947" ry="18"/>
<text text-anchor="middle" x="268" y="-142.336" font-family="Times,serif" font-size="14.00">lower</text>
</a>
</g>
</g>
<!-- UniverseLevel_lift_isequiv&#45;&gt;UniverseLevel_lower -->
<g id="edge17" class="edge"><title>UniverseLevel_lift_isequiv&#45;&gt;UniverseLevel_lower</title>
<path fill="none" stroke="black" d="M81.7299,-330.18C90.0224,-302.358 106.38,-258.071 133,-228.036 160.737,-196.741 203.333,-173.633 233.243,-160.063"/>
<polygon fill="black" stroke="black" points="234.734,-163.231 242.473,-155.994 231.911,-156.825 234.734,-163.231"/>
</g>
<!-- UniverseLevel_lift_isequiv&#45;&gt;UniverseLevel_lift -->
<g id="edge18" class="edge"><title>UniverseLevel_lift_isequiv&#45;&gt;UniverseLevel_lift</title>
<path fill="none" stroke="black" d="M119.607,-338.877C167.286,-320.499 245.066,-290.414 312,-264.036 315.963,-262.475 320.119,-260.827 324.235,-259.188"/>
<polygon fill="black" stroke="black" points="325.673,-262.383 333.662,-255.424 323.077,-255.881 325.673,-262.383"/>
</g>
<!-- UniverseLevel_isequiv_lift2 -->
<g id="node14" class="node"><title>UniverseLevel_isequiv_lift2</title>
<g id="a_node14"><a xlink:href="UniverseLevel.html#isequiv_lift2" xlink:title="isequiv_lift2">
<ellipse fill="#f070d1" stroke="black" cx="215" cy="-356.036" rx="55.46" ry="18"/>
<ellipse fill="none" stroke="black" cx="215" cy="-356.036" rx="59.4756" ry="22"/>
<ellipse fill="none" stroke="black" cx="215" cy="-356.036" rx="63.4911" ry="26"/>
<text text-anchor="middle" x="215" y="-352.336" font-family="Times,serif" font-size="14.00">isequiv_lift2</text>
</a>
</g>
</g>
<!-- UniverseLevel_isequiv_lift2&#45;&gt;UniverseLevel_lower2 -->
<g id="edge19" class="edge"><title>UniverseLevel_isequiv_lift2&#45;&gt;UniverseLevel_lower2</title>
<path fill="none" stroke="black" d="M227.292,-330.524C235.652,-313.174 246.69,-290.265 255.163,-272.68"/>
<polygon fill="black" stroke="black" points="258.385,-274.055 259.573,-263.527 252.079,-271.017 258.385,-274.055"/>
</g>
<!-- UniverseLevel_isequiv_lift2&#45;&gt;UniverseLevel_lift2 -->
<g id="edge20" class="edge"><title>UniverseLevel_isequiv_lift2&#45;&gt;UniverseLevel_lift2</title>
<path fill="none" stroke="black" d="M204.215,-330.246C197.023,-313.047 187.585,-290.48 180.291,-273.037"/>
<polygon fill="black" stroke="black" points="183.364,-271.313 176.277,-263.438 176.906,-274.014 183.364,-271.313"/>
</g>
<!-- UniverseLevel_isequiv_lift -->
<g id="node15" class="node"><title>UniverseLevel_isequiv_lift</title>
<g id="a_node15"><a xlink:href="UniverseLevel.html#isequiv_lift" xlink:title="isequiv_lift">
<ellipse fill="#f070d1" stroke="black" cx="494" cy="-356.036" rx="50.8649" ry="18"/>
<ellipse fill="none" stroke="black" cx="494" cy="-356.036" rx="54.8783" ry="22"/>
<ellipse fill="none" stroke="black" cx="494" cy="-356.036" rx="58.8917" ry="26"/>
<text text-anchor="middle" x="494" y="-352.336" font-family="Times,serif" font-size="14.00">isequiv_lift</text>
</a>
</g>
</g>
<!-- UniverseLevel_isequiv_lift&#45;&gt;UniverseLevel_lower -->
<g id="edge21" class="edge"><title>UniverseLevel_isequiv_lift&#45;&gt;UniverseLevel_lower</title>
<path fill="none" stroke="black" d="M477.841,-330.974C459.441,-303.641 427.439,-259.588 393,-228.036 364.412,-201.845 326.623,-178.299 300.107,-163.229"/>
<polygon fill="black" stroke="black" points="301.667,-160.091 291.231,-158.262 298.248,-166.2 301.667,-160.091"/>
</g>
<!-- UniverseLevel_isequiv_lift&#45;&gt;UniverseLevel_lift -->
<g id="edge22" class="edge"><title>UniverseLevel_isequiv_lift&#45;&gt;UniverseLevel_lift</title>
<path fill="none" stroke="black" d="M465.614,-333.244C441.075,-313.542 405.934,-285.326 382.332,-266.376"/>
<polygon fill="black" stroke="black" points="384.49,-263.62 374.501,-260.089 380.107,-269.079 384.49,-263.62"/>
</g>
<!-- UniverseLevel_lower2&#45;&gt;UniverseLevel_lower -->
<g id="edge23" class="edge"><title>UniverseLevel_lower2&#45;&gt;UniverseLevel_lower</title>
<path fill="none" stroke="black" d="M268,-227.695C268,-212.753 268,-191.403 268,-174.281"/>
<polygon fill="black" stroke="black" points="271.5,-174.262 268,-164.262 264.5,-174.262 271.5,-174.262"/>
</g>
<!-- UniverseLevel_Lift -->
<g id="node20" class="node"><title>UniverseLevel_Lift</title>
<g id="a_node20"><a xlink:href="UniverseLevel.html#Lift" xlink:title="Lift">
<ellipse fill="#f070d1" stroke="black" cx="268" cy="-47.0365" rx="27" ry="18"/>
<text text-anchor="middle" x="268" y="-43.3365" font-family="Times,serif" font-size="14.00">Lift</text>
</a>
</g>
</g>
<!-- UniverseLevel_lower&#45;&gt;UniverseLevel_Lift -->
<g id="edge24" class="edge"><title>UniverseLevel_lower&#45;&gt;UniverseLevel_Lift</title>
<path fill="none" stroke="black" d="M268,-127.878C268,-113.225 268,-92.3475 268,-75.4795"/>
<polygon fill="black" stroke="black" points="271.5,-75.0795 268,-65.0795 264.5,-75.0795 271.5,-75.0795"/>
</g>
</g>
</svg>
