<?xml version="1.0" encoding="UTF-8" standalone="no"?>
<!DOCTYPE svg PUBLIC "-//W3C//DTD SVG 1.1//EN"
 "http://www.w3.org/Graphics/SVG/1.1/DTD/svg11.dtd">
<!-- Generated by graphviz version 2.26.3 (20100126.1600)
 -->
<!-- Title: HoTT_categories_Functor_Composition_Composition Pages: 1 -->
<svg width="1920pt" height="964pt"
 viewBox="0.00 0.00 1920.00 964.00" xmlns="http://www.w3.org/2000/svg" xmlns:xlink="http://www.w3.org/1999/xlink">
<g id="graph1" class="graph" transform="scale(1 1) rotate(0) translate(4 960)">
<title>HoTT_categories_Functor_Composition_Composition</title>
<polygon fill="white" stroke="white" points="-4,5 -4,-960 1917,-960 1917,5 -4,5"/>
<g id="graph2" class="cluster"><title>cluster_Composition</title>
<polygon fill="#ffffc3" stroke="black" points="8,-29.4154 8,-926.585 1904,-926.585 1904,-29.4154 8,-29.4154"/>
<text text-anchor="middle" x="58.5" y="-909.985" font-family="Times Roman,serif" font-size="14.00">Composition</text>
</g>
<!-- Composition_associativity_fst -->
<g id="node1" class="node"><title>Composition_associativity_fst</title>
<a xlink:href="Composition.html#associativity_fst" xlink:title="associativity_fst">
<ellipse fill="#f070d1" stroke="black" cx="1799" cy="-702.415" rx="89.0955" ry="18.3848"/>
<ellipse fill="none" stroke="black" cx="1799" cy="-702.415" rx="93.0955" ry="22.3848"/>
<ellipse fill="none" stroke="black" cx="1799" cy="-702.415" rx="97.0955" ry="26.3848"/>
<text text-anchor="middle" x="1799" y="-698.815" font-family="Times Roman,serif" font-size="14.00">associativity_fst</text>
</a>
</g>
<!-- Composition_associativity -->
<g id="node2" class="node"><title>Composition_associativity</title>
<a xlink:href="Composition.html#associativity" xlink:title="associativity">
<ellipse fill="#f070d1" stroke="black" cx="1605" cy="-702.415" rx="70.9686" ry="18.3848"/>
<ellipse fill="none" stroke="black" cx="1605" cy="-702.415" rx="74.9435" ry="22.3848"/>
<ellipse fill="none" stroke="black" cx="1605" cy="-702.415" rx="78.9183" ry="26.3848"/>
<text text-anchor="middle" x="1605" y="-698.815" font-family="Times Roman,serif" font-size="14.00">associativity</text>
</a>
</g>
<!-- Composition_right_identity_fst -->
<g id="node3" class="node"><title>Composition_right_identity_fst</title>
<a xlink:href="Composition.html#right_identity_fst" xlink:title="right_identity_fst">
<ellipse fill="#f070d1" stroke="black" cx="1405" cy="-702.415" rx="94.9983" ry="18.3848"/>
<ellipse fill="none" stroke="black" cx="1405" cy="-702.415" rx="98.9789" ry="22.3848"/>
<ellipse fill="none" stroke="black" cx="1405" cy="-702.415" rx="102.96" ry="26.3848"/>
<text text-anchor="middle" x="1405" y="-698.815" font-family="Times Roman,serif" font-size="14.00">right_identity_fst</text>
</a>
</g>
<!-- Composition_left_identity_fst -->
<g id="node4" class="node"><title>Composition_left_identity_fst</title>
<a xlink:href="Composition.html#left_identity_fst" xlink:title="left_identity_fst">
<ellipse fill="#f070d1" stroke="black" cx="1188" cy="-702.415" rx="87.9304" ry="18.3848"/>
<ellipse fill="none" stroke="black" cx="1188" cy="-702.415" rx="91.9097" ry="22.3848"/>
<ellipse fill="none" stroke="black" cx="1188" cy="-702.415" rx="95.8889" ry="26.3848"/>
<text text-anchor="middle" x="1188" y="-698.815" font-family="Times Roman,serif" font-size="14.00">left_identity_fst</text>
</a>
</g>
<!-- Composition_right_identity -->
<g id="node5" class="node"><title>Composition_right_identity</title>
<a xlink:href="Composition.html#right_identity" xlink:title="right_identity">
<ellipse fill="#f070d1" stroke="black" cx="988" cy="-702.415" rx="77.7817" ry="18.3848"/>
<ellipse fill="none" stroke="black" cx="988" cy="-702.415" rx="81.7817" ry="22.3848"/>
<ellipse fill="none" stroke="black" cx="988" cy="-702.415" rx="85.7817" ry="26.3848"/>
<text text-anchor="middle" x="988" y="-698.815" font-family="Times Roman,serif" font-size="14.00">right_identity</text>
</a>
</g>
<!-- Composition_left_identity -->
<g id="node6" class="node"><title>Composition_left_identity</title>
<a xlink:href="Composition.html#left_identity" xlink:title="left_identity">
<ellipse fill="#f070d1" stroke="black" cx="806" cy="-702.415" rx="70.2603" ry="18.3848"/>
<ellipse fill="none" stroke="black" cx="806" cy="-702.415" rx="74.2348" ry="22.3848"/>
<ellipse fill="none" stroke="black" cx="806" cy="-702.415" rx="78.2093" ry="26.3848"/>
<text text-anchor="middle" x="806" y="-698.815" font-family="Times Roman,serif" font-size="14.00">left_identity</text>
</a>
</g>
<!-- Composition_compose_functor_uncurried -->
<g id="node7" class="node"><title>Composition_compose_functor_uncurried</title>
<a xlink:href="Composition.html#compose_functor_uncurried" xlink:title="compose_functor_uncurried">
<ellipse fill="#f070d1" stroke="black" cx="557" cy="-702.415" rx="145.19" ry="18.3848"/>
<ellipse fill="none" stroke="black" cx="557" cy="-702.415" rx="149.176" ry="22.3848"/>
<ellipse fill="none" stroke="black" cx="557" cy="-702.415" rx="153.163" ry="26.3848"/>
<text text-anchor="middle" x="557" y="-698.815" font-family="Times Roman,serif" font-size="14.00">compose_functor_uncurried</text>
</a>
</g>
<!-- Composition_compose_functor -->
<g id="node8" class="node"><title>Composition_compose_functor</title>
<a xlink:href="Composition.html#compose_functor" xlink:title="compose_functor">
<ellipse fill="#f070d1" stroke="black" cx="630" cy="-400.415" rx="94.0452" ry="18.3848"/>
<text text-anchor="middle" x="630" y="-396.815" font-family="Times Roman,serif" font-size="14.00">compose_functor</text>
</a>
</g>
<!-- Composition_compose_functor_uncurried&#45;&gt;Composition_compose_functor -->
<g id="edge2" class="edge"><title>Composition_compose_functor_uncurried&#45;&gt;Composition_compose_functor</title>
<path fill="none" stroke="black" d="M563.414,-675.88C577.072,-619.376 608.93,-487.58 623.05,-429.166"/>
<polygon fill="black" stroke="black" points="626.524,-429.69 625.472,-419.148 619.72,-428.045 626.524,-429.69"/>
</g>
<!-- Composition_compose_functor_subproof0 -->
<g id="node9" class="node"><title>Composition_compose_functor_subproof0</title>
<a xlink:href="Composition.html#compose_functor_subproof0" xlink:title="compose_functor_subproof0">
<ellipse fill="#f070d1" stroke="black" cx="323" cy="-128.415" rx="147.785" ry="18.3848"/>
<text text-anchor="middle" x="323" y="-124.815" font-family="Times Roman,serif" font-size="14.00">compose_functor_subproof0</text>
</a>
</g>
<!-- Composition_compose_functor&#45;&gt;Composition_compose_functor_subproof0 -->
<g id="edge4" class="edge"><title>Composition_compose_functor&#45;&gt;Composition_compose_functor_subproof0</title>
<path fill="none" stroke="black" d="M609.38,-382.146C555.985,-334.839 413.103,-208.246 351.697,-153.841"/>
<polygon fill="black" stroke="black" points="353.74,-150.975 343.934,-146.963 349.098,-156.214 353.74,-150.975"/>
</g>
<!-- Composition_compose_functor_subproof -->
<g id="node10" class="node"><title>Composition_compose_functor_subproof</title>
<a xlink:href="Composition.html#compose_functor_subproof" xlink:title="compose_functor_subproof">
<ellipse fill="#f070d1" stroke="black" cx="630" cy="-128.415" rx="140.922" ry="18.3848"/>
<text text-anchor="middle" x="630" y="-124.815" font-family="Times Roman,serif" font-size="14.00">compose_functor_subproof</text>
</a>
</g>
<!-- Composition_compose_functor&#45;&gt;Composition_compose_functor_subproof -->
<g id="edge6" class="edge"><title>Composition_compose_functor&#45;&gt;Composition_compose_functor_subproof</title>
<path fill="none" stroke="black" d="M630,-381.72C630,-335.135 630,-213.617 630,-157.543"/>
<polygon fill="black" stroke="black" points="633.5,-157.242 630,-147.242 626.5,-157.242 633.5,-157.242"/>
</g>
<!-- Composition_compose_functor_morphism_of -->
<g id="node11" class="node"><title>Composition_compose_functor_morphism_of</title>
<a xlink:href="Composition.html#compose_functor_morphism_of" xlink:title="compose_functor_morphism_of">
<ellipse fill="#f070d1" stroke="black" cx="950" cy="-128.415" rx="161.22" ry="18.3848"/>
<text text-anchor="middle" x="950" y="-124.815" font-family="Times Roman,serif" font-size="14.00">compose_functor_morphism_of</text>
</a>
</g>
<!-- Composition_compose_functor&#45;&gt;Composition_compose_functor_morphism_of -->
<g id="edge8" class="edge"><title>Composition_compose_functor&#45;&gt;Composition_compose_functor_morphism_of</title>
<path fill="none" stroke="black" d="M651.244,-382.358C706.798,-335.137 856.495,-207.894 920.415,-153.563"/>
<polygon fill="black" stroke="black" points="922.779,-156.147 928.132,-147.004 918.245,-150.813 922.779,-156.147"/>
</g>
<!-- Composition_compose -->
<g id="node12" class="node"><title>Composition_compose</title>
<a xlink:href="Composition.html#compose" xlink:title="compose">
<ellipse fill="#f070d1" stroke="black" cx="325" cy="-702.415" rx="53.3032" ry="18.3848"/>
<ellipse fill="none" stroke="black" cx="325" cy="-702.415" rx="57.2707" ry="22.3848"/>
<ellipse fill="none" stroke="black" cx="325" cy="-702.415" rx="61.2382" ry="26.3848"/>
<text text-anchor="middle" x="325" y="-698.815" font-family="Times Roman,serif" font-size="14.00">compose</text>
</a>
</g>
<!-- Composition_compose_identity_of -->
<g id="node13" class="node"><title>Composition_compose_identity_of</title>
<a xlink:href="Composition.html#compose_identity_of" xlink:title="compose_identity_of">
<ellipse fill="#f070d1" stroke="black" cx="127" cy="-400.415" rx="111.016" ry="18.3848"/>
<text text-anchor="middle" x="127" y="-396.815" font-family="Times Roman,serif" font-size="14.00">compose_identity_of</text>
</a>
</g>
<!-- Composition_compose&#45;&gt;Composition_compose_identity_of -->
<g id="edge10" class="edge"><title>Composition_compose&#45;&gt;Composition_compose_identity_of</title>
<path fill="none" stroke="black" d="M308.289,-676.927C271.297,-620.505 182.767,-485.474 144.792,-427.553"/>
<polygon fill="black" stroke="black" points="147.557,-425.387 139.147,-418.943 141.703,-429.225 147.557,-425.387"/>
</g>
<!-- Composition_compose_composition_of -->
<g id="node14" class="node"><title>Composition_compose_composition_of</title>
<a xlink:href="Composition.html#compose_composition_of" xlink:title="compose_composition_of">
<ellipse fill="#f070d1" stroke="black" cx="387" cy="-400.415" rx="130.815" ry="18.3848"/>
<text text-anchor="middle" x="387" y="-396.815" font-family="Times Roman,serif" font-size="14.00">compose_composition_of</text>
</a>
</g>
<!-- Composition_compose&#45;&gt;Composition_compose_composition_of -->
<g id="edge12" class="edge"><title>Composition_compose&#45;&gt;Composition_compose_composition_of</title>
<path fill="none" stroke="black" d="M330.448,-675.88C342.048,-619.376 369.105,-487.58 381.098,-429.166"/>
<polygon fill="black" stroke="black" points="384.572,-429.647 383.154,-419.148 377.715,-428.24 384.572,-429.647"/>
</g>
<!-- Composition_internal_paths_rew -->
<g id="node15" class="node"><title>Composition_internal_paths_rew</title>
<a xlink:href="Composition.html#internal_paths_rew" xlink:title="internal_paths_rew">
<ellipse fill="#f070d1" stroke="black" cx="131" cy="-702.415" rx="106.773" ry="18.3848"/>
<ellipse fill="none" stroke="black" cx="131" cy="-702.415" rx="110.773" ry="22.3848"/>
<ellipse fill="none" stroke="black" cx="131" cy="-702.415" rx="114.773" ry="26.3848"/>
<text text-anchor="middle" x="131" y="-698.815" font-family="Times Roman,serif" font-size="14.00">internal_paths_rew</text>
</a>
</g>
</g>
</svg>
