<?xml version="1.0" encoding="UTF-8" standalone="no"?>
<!DOCTYPE svg PUBLIC "-//W3C//DTD SVG 1.1//EN"
 "http://www.w3.org/Graphics/SVG/1.1/DTD/svg11.dtd">
<!-- Generated by graphviz version 2.39.20141222.0545 (20141222.0545)
 -->
<!-- Title: HoTT_Types_Empty Pages: 1 -->
<svg width="576pt" height="292pt"
 viewBox="0.00 0.00 576.00 292.00" xmlns="http://www.w3.org/2000/svg" xmlns:xlink="http://www.w3.org/1999/xlink">
<g id="graph0" class="graph" transform="scale(1 1) rotate(0) translate(4 288)">
<title>HoTT_Types_Empty</title>
<polygon fill="white" stroke="transparent" points="-4,4 -4,-288 572,-288 572,4 -4,4"/>
<g id="clust1" class="cluster"><title>cluster_Empty</title>
<polygon fill="#ffffc3" stroke="black" points="8,-12.6927 8,-271.307 560,-271.307 560,-12.6927 8,-12.6927"/>
<text text-anchor="middle" x="34.5" y="-256.107" font-family="Times,serif" font-size="14.00">Empty</text>
</g>
<!-- Empty_all_to_empty_isequiv -->
<g id="node1" class="node"><title>Empty_all_to_empty_isequiv</title>
<g id="a_node1"><a xlink:href="Empty.html#all_to_empty_isequiv" xlink:title="all_to_empty_isequiv">
<ellipse fill="#f070d1" stroke="black" cx="457" cy="-180.693" rx="87.1769" ry="18"/>
<ellipse fill="none" stroke="black" cx="457" cy="-180.693" rx="91.1807" ry="22"/>
<ellipse fill="none" stroke="black" cx="457" cy="-180.693" rx="95.1846" ry="26"/>
<text text-anchor="middle" x="457" y="-176.993" font-family="Times,serif" font-size="14.00">all_to_empty_isequiv</text>
</a>
</g>
</g>
<!-- Empty_Empty_rec -->
<g id="node2" class="node"><title>Empty_Empty_rec</title>
<g id="a_node2"><a xlink:href="Empty.html#Empty_rec" xlink:title="Empty_rec">
<ellipse fill="#f070d1" stroke="black" cx="457" cy="-53.6927" rx="50.0912" ry="18"/>
<text text-anchor="middle" x="457" y="-49.9927" font-family="Times,serif" font-size="14.00">Empty_rec</text>
</a>
</g>
</g>
<!-- Empty_all_to_empty_isequiv&#45;&gt;Empty_Empty_rec -->
<g id="edge1" class="edge"><title>Empty_all_to_empty_isequiv&#45;&gt;Empty_Empty_rec</title>
<path fill="none" stroke="black" d="M457,-154.686C457,-133.578 457,-103.86 457,-82.1261"/>
<polygon fill="black" stroke="black" points="460.5,-81.8739 457,-71.874 453.5,-81.874 460.5,-81.8739"/>
</g>
<!-- Empty_hprop_Empty -->
<g id="node3" class="node"><title>Empty_hprop_Empty</title>
<g id="a_node3"><a xlink:href="Empty.html#hprop_Empty" xlink:title="hprop_Empty">
<ellipse fill="#f070d1" stroke="black" cx="276" cy="-180.693" rx="59.6142" ry="18"/>
<ellipse fill="none" stroke="black" cx="276" cy="-180.693" rx="63.6021" ry="22"/>
<ellipse fill="none" stroke="black" cx="276" cy="-180.693" rx="67.59" ry="26"/>
<text text-anchor="middle" x="276" y="-176.993" font-family="Times,serif" font-size="14.00">hprop_Empty</text>
</a>
</g>
</g>
<!-- Empty_contr_from_Empty -->
<g id="node4" class="node"><title>Empty_contr_from_Empty</title>
<g id="a_node4"><a xlink:href="Empty.html#contr_from_Empty" xlink:title="contr_from_Empty">
<ellipse fill="#f070d1" stroke="black" cx="103" cy="-180.693" rx="79.1053" ry="18"/>
<ellipse fill="none" stroke="black" cx="103" cy="-180.693" rx="83.0959" ry="22"/>
<ellipse fill="none" stroke="black" cx="103" cy="-180.693" rx="87.0864" ry="26"/>
<text text-anchor="middle" x="103" y="-176.993" font-family="Times,serif" font-size="14.00">contr_from_Empty</text>
</a>
</g>
</g>
</g>
</svg>
