<?xml version="1.0" encoding="UTF-8" standalone="no"?>
<!DOCTYPE svg PUBLIC "-//W3C//DTD SVG 1.1//EN"
 "http://www.w3.org/Graphics/SVG/1.1/DTD/svg11.dtd">
<!-- Generated by graphviz version 2.26.3 (20100126.1600)
 -->
<!-- Title: HoTT_categories_Functor_Composition_Laws Pages: 1 -->
<svg width="1112pt" height="560pt"
 viewBox="0.00 0.00 1112.00 560.00" xmlns="http://www.w3.org/2000/svg" xmlns:xlink="http://www.w3.org/1999/xlink">
<g id="graph1" class="graph" transform="scale(1 1) rotate(0) translate(4 556)">
<title>HoTT_categories_Functor_Composition_Laws</title>
<polygon fill="white" stroke="white" points="-4,5 -4,-556 1109,-556 1109,5 -4,5"/>
<g id="graph2" class="cluster"><title>cluster_Laws</title>
<polygon fill="#ffffc3" stroke="black" points="8,-23.7419 8,-528.258 1096,-528.258 1096,-23.7419 8,-23.7419"/>
<text text-anchor="middle" x="34.5" y="-511.658" font-family="Times Roman,serif" font-size="14.00">Laws</text>
</g>
<!-- Laws_pentagon -->
<g id="node1" class="node"><title>Laws_pentagon</title>
<a xlink:href="Laws.html#pentagon" xlink:title="pentagon">
<ellipse fill="#facdef" stroke="black" cx="928" cy="-346.742" rx="57.9828" ry="18.3848"/>
<ellipse fill="none" stroke="black" cx="928" cy="-346.742" rx="61.9828" ry="22.3848"/>
<ellipse fill="none" stroke="black" cx="928" cy="-346.742" rx="65.9828" ry="26.3848"/>
<text text-anchor="middle" x="928" y="-343.142" font-family="Times Roman,serif" font-size="14.00">pentagon</text>
</a>
</g>
<!-- Laws_associativity_fst -->
<g id="node3" class="node"><title>Laws_associativity_fst</title>
<a xlink:href="Laws.html#associativity_fst" xlink:title="associativity_fst">
<ellipse fill="#f070d1" stroke="black" cx="839" cy="-103.742" rx="89.0955" ry="18.3848"/>
<text text-anchor="middle" x="839" y="-100.142" font-family="Times Roman,serif" font-size="14.00">associativity_fst</text>
</a>
</g>
<!-- Laws_pentagon&#45;&gt;Laws_associativity_fst -->
<g id="edge2" class="edge"><title>Laws_pentagon&#45;&gt;Laws_associativity_fst</title>
<path fill="none" stroke="black" d="M918.306,-320.274C901.391,-274.09 866.638,-179.203 849.304,-131.876"/>
<polygon fill="black" stroke="black" points="852.51,-130.451 845.784,-122.264 845.937,-132.858 852.51,-130.451"/>
</g>
<!-- Laws_associativity -->
<g id="node4" class="node"><title>Laws_associativity</title>
<a xlink:href="Laws.html#associativity" xlink:title="associativity">
<ellipse fill="#f070d1" stroke="black" cx="1017" cy="-103.742" rx="70.9184" ry="18.3848"/>
<text text-anchor="middle" x="1017" y="-100.142" font-family="Times Roman,serif" font-size="14.00">associativity</text>
</a>
</g>
<!-- Laws_pentagon&#45;&gt;Laws_associativity -->
<g id="edge4" class="edge"><title>Laws_pentagon&#45;&gt;Laws_associativity</title>
<path fill="none" stroke="black" d="M937.694,-320.274C954.609,-274.09 989.362,-179.203 1006.7,-131.876"/>
<polygon fill="black" stroke="black" points="1010.06,-132.858 1010.22,-122.264 1003.49,-130.451 1010.06,-132.858"/>
</g>
<!-- Laws_triangle -->
<g id="node2" class="node"><title>Laws_triangle</title>
<a xlink:href="Laws.html#triangle" xlink:title="triangle">
<ellipse fill="#facdef" stroke="black" cx="579" cy="-346.742" rx="49.0671" ry="18.3848"/>
<ellipse fill="none" stroke="black" cx="579" cy="-346.742" rx="53.0323" ry="22.3848"/>
<ellipse fill="none" stroke="black" cx="579" cy="-346.742" rx="56.9975" ry="26.3848"/>
<text text-anchor="middle" x="579" y="-343.142" font-family="Times Roman,serif" font-size="14.00">triangle</text>
</a>
</g>
<!-- Laws_triangle&#45;&gt;Laws_associativity_fst -->
<g id="edge6" class="edge"><title>Laws_triangle&#45;&gt;Laws_associativity_fst</title>
<path fill="none" stroke="black" d="M604.403,-323C653.647,-276.976 761.672,-176.014 812.089,-128.893"/>
<polygon fill="black" stroke="black" points="814.752,-131.195 819.669,-121.809 809.973,-126.081 814.752,-131.195"/>
</g>
<!-- Laws_triangle&#45;&gt;Laws_associativity -->
<g id="edge8" class="edge"><title>Laws_triangle&#45;&gt;Laws_associativity</title>
<path fill="none" stroke="black" d="M615.966,-326.233C697.868,-280.795 893.973,-171.997 977.857,-125.458"/>
<polygon fill="black" stroke="black" points="979.759,-128.406 986.805,-120.494 976.363,-122.285 979.759,-128.406"/>
</g>
<!-- Laws_right_identity_fst -->
<g id="node5" class="node"><title>Laws_right_identity_fst</title>
<a xlink:href="Laws.html#right_identity_fst" xlink:title="right_identity_fst">
<ellipse fill="#f070d1" stroke="black" cx="111" cy="-103.742" rx="94.9596" ry="18.3848"/>
<text text-anchor="middle" x="111" y="-100.142" font-family="Times Roman,serif" font-size="14.00">right_identity_fst</text>
</a>
</g>
<!-- Laws_triangle&#45;&gt;Laws_right_identity_fst -->
<g id="edge10" class="edge"><title>Laws_triangle&#45;&gt;Laws_right_identity_fst</title>
<path fill="none" stroke="black" d="M540.702,-326.856C454.15,-281.916 243.982,-172.79 153.542,-125.831"/>
<polygon fill="black" stroke="black" points="154.889,-122.587 144.401,-121.085 151.663,-128.799 154.889,-122.587"/>
</g>
<!-- Laws_left_identity_fst -->
<g id="node6" class="node"><title>Laws_left_identity_fst</title>
<a xlink:href="Laws.html#left_identity_fst" xlink:title="left_identity_fst">
<ellipse fill="#f070d1" stroke="black" cx="312" cy="-103.742" rx="87.889" ry="18.3848"/>
<text text-anchor="middle" x="312" y="-100.142" font-family="Times Roman,serif" font-size="14.00">left_identity_fst</text>
</a>
</g>
<!-- Laws_triangle&#45;&gt;Laws_left_identity_fst -->
<g id="edge12" class="edge"><title>Laws_triangle&#45;&gt;Laws_left_identity_fst</title>
<path fill="none" stroke="black" d="M552.913,-323C502.239,-276.881 390.953,-175.598 339.316,-128.603"/>
<polygon fill="black" stroke="black" points="341.603,-125.952 331.852,-121.809 336.892,-131.129 341.603,-125.952"/>
</g>
<!-- Laws_right_identity -->
<g id="node7" class="node"><title>Laws_right_identity</title>
<a xlink:href="Laws.html#right_identity" xlink:title="right_identity">
<ellipse fill="#f070d1" stroke="black" cx="496" cy="-103.742" rx="77.7817" ry="18.3848"/>
<text text-anchor="middle" x="496" y="-100.142" font-family="Times Roman,serif" font-size="14.00">right_identity</text>
</a>
</g>
<!-- Laws_triangle&#45;&gt;Laws_right_identity -->
<g id="edge14" class="edge"><title>Laws_triangle&#45;&gt;Laws_right_identity</title>
<path fill="none" stroke="black" d="M569.96,-320.274C554.185,-274.09 521.775,-179.203 505.61,-131.876"/>
<polygon fill="black" stroke="black" points="508.871,-130.596 502.327,-122.264 502.247,-132.859 508.871,-130.596"/>
</g>
<!-- Laws_left_identity -->
<g id="node8" class="node"><title>Laws_left_identity</title>
<a xlink:href="Laws.html#left_identity" xlink:title="left_identity">
<ellipse fill="#f070d1" stroke="black" cx="662" cy="-103.742" rx="70.2092" ry="18.3848"/>
<text text-anchor="middle" x="662" y="-100.142" font-family="Times Roman,serif" font-size="14.00">left_identity</text>
</a>
</g>
<!-- Laws_triangle&#45;&gt;Laws_left_identity -->
<g id="edge16" class="edge"><title>Laws_triangle&#45;&gt;Laws_left_identity</title>
<path fill="none" stroke="black" d="M588.04,-320.274C603.815,-274.09 636.225,-179.203 652.39,-131.876"/>
<polygon fill="black" stroke="black" points="655.753,-132.859 655.673,-122.264 649.129,-130.596 655.753,-132.859"/>
</g>
</g>
</svg>
