<?xml version="1.0" encoding="UTF-8" standalone="no"?>
<!DOCTYPE svg PUBLIC "-//W3C//DTD SVG 1.1//EN"
 "http://www.w3.org/Graphics/SVG/1.1/DTD/svg11.dtd">
<!-- Generated by graphviz version 2.39.20161220.0128 (20161220.0128)
 -->
<!-- Title: HoTT_Types_Equiv Pages: 1 -->
<svg width="1134pt" height="571pt"
 viewBox="0.00 0.00 1134.00 571.00" xmlns="http://www.w3.org/2000/svg" xmlns:xlink="http://www.w3.org/1999/xlink">
<g id="graph0" class="graph" transform="scale(1 1) rotate(0) translate(4 567)">
<title>HoTT_Types_Equiv</title>
<polygon fill="#ffffff" stroke="transparent" points="-4,4 -4,-567 1130,-567 1130,4 -4,4"/>
<g id="clust1" class="cluster">
<title>cluster_Equiv</title>
<polygon fill="#ffffc3" stroke="#000000" points="8,-16.8689 8,-546.1311 1118,-546.1311 1118,-16.8689 8,-16.8689"/>
<text text-anchor="middle" x="32.5" y="-530.9311" font-family="Times,serif" font-size="14.00" fill="#000000">Equiv</text>
</g>
<!-- Equiv_equiv_equiv_inverse -->
<g id="node1" class="node">
<title>Equiv_equiv_equiv_inverse</title>
<g id="a_node1"><a xlink:href="Equiv.html#equiv_equiv_inverse" xlink:title="equiv_equiv_inverse">
<ellipse fill="#f070d1" stroke="#000000" cx="439" cy="-425.8689" rx="83.6991" ry="18"/>
<ellipse fill="none" stroke="#000000" cx="439" cy="-425.8689" rx="87.6922" ry="22"/>
<ellipse fill="none" stroke="#000000" cx="439" cy="-425.8689" rx="91.6854" ry="26"/>
<text text-anchor="middle" x="439" y="-422.1689" font-family="Times,serif" font-size="14.00" fill="#000000">equiv_equiv_inverse</text>
</a>
</g>
</g>
<!-- Equiv_isequiv_equiv_inverse -->
<g id="node2" class="node">
<title>Equiv_isequiv_equiv_inverse</title>
<g id="a_node2"><a xlink:href="Equiv.html#isequiv_equiv_inverse" xlink:title="isequiv_equiv_inverse">
<ellipse fill="#f070d1" stroke="#000000" cx="422" cy="-240.8689" rx="89.8845" ry="18"/>
<text text-anchor="middle" x="422" y="-237.1689" font-family="Times,serif" font-size="14.00" fill="#000000">isequiv_equiv_inverse</text>
</a>
</g>
</g>
<!-- Equiv_equiv_equiv_inverse&#45;&gt;Equiv_isequiv_equiv_inverse -->
<g id="edge1" class="edge">
<title>Equiv_equiv_equiv_inverse&#45;&gt;Equiv_isequiv_equiv_inverse</title>
<path fill="none" stroke="#000000" d="M436.6004,-399.7553C433.4319,-365.2749 427.8732,-304.7832 424.6051,-269.2188"/>
<polygon fill="#000000" stroke="#000000" points="428.0701,-268.676 423.6696,-259.0382 421.0994,-269.3166 428.0701,-268.676"/>
</g>
<!-- Equiv_path_equiv -->
<g id="node10" class="node">
<title>Equiv_path_equiv</title>
<g id="a_node10"><a xlink:href="Equiv.html#path_equiv" xlink:title="path_equiv">
<ellipse fill="#f070d1" stroke="#000000" cx="707" cy="-71.8689" rx="50.0912" ry="18"/>
<text text-anchor="middle" x="707" y="-68.1689" font-family="Times,serif" font-size="14.00" fill="#000000">path_equiv</text>
</a>
</g>
</g>
<!-- Equiv_isequiv_equiv_inverse&#45;&gt;Equiv_path_equiv -->
<g id="edge2" class="edge">
<title>Equiv_isequiv_equiv_inverse&#45;&gt;Equiv_path_equiv</title>
<path fill="none" stroke="#000000" d="M450.8957,-223.7343C503.6866,-192.4302 615.5055,-126.1236 672.3124,-92.4381"/>
<polygon fill="#000000" stroke="#000000" points="674.1235,-95.4332 680.9398,-87.3222 670.5531,-89.4122 674.1235,-95.4332"/>
</g>
<!-- Equiv_equiv_functor_equiv -->
<g id="node3" class="node">
<title>Equiv_equiv_functor_equiv</title>
<g id="a_node3"><a xlink:href="Equiv.html#equiv_functor_equiv" xlink:title="equiv_functor_equiv">
<ellipse fill="#f070d1" stroke="#000000" cx="1018" cy="-425.8689" rx="83.6991" ry="18"/>
<ellipse fill="none" stroke="#000000" cx="1018" cy="-425.8689" rx="87.6922" ry="22"/>
<ellipse fill="none" stroke="#000000" cx="1018" cy="-425.8689" rx="91.6854" ry="26"/>
<text text-anchor="middle" x="1018" y="-422.1689" font-family="Times,serif" font-size="14.00" fill="#000000">equiv_functor_equiv</text>
</a>
</g>
</g>
<!-- Equiv_isequiv_functor_equiv -->
<g id="node4" class="node">
<title>Equiv_isequiv_functor_equiv</title>
<g id="a_node4"><a xlink:href="Equiv.html#isequiv_functor_equiv" xlink:title="isequiv_functor_equiv">
<ellipse fill="#f070d1" stroke="#000000" cx="1020" cy="-240.8689" rx="89.8845" ry="18"/>
<text text-anchor="middle" x="1020" y="-237.1689" font-family="Times,serif" font-size="14.00" fill="#000000">isequiv_functor_equiv</text>
</a>
</g>
</g>
<!-- Equiv_equiv_functor_equiv&#45;&gt;Equiv_isequiv_functor_equiv -->
<g id="edge3" class="edge">
<title>Equiv_equiv_functor_equiv&#45;&gt;Equiv_isequiv_functor_equiv</title>
<path fill="none" stroke="#000000" d="M1018.2823,-399.7553C1018.6551,-365.2749 1019.309,-304.7832 1019.6935,-269.2188"/>
<polygon fill="#000000" stroke="#000000" points="1023.1952,-269.0755 1019.8036,-259.0382 1016.1956,-268.9998 1023.1952,-269.0755"/>
</g>
<!-- Equiv_functor_equiv -->
<g id="node5" class="node">
<title>Equiv_functor_equiv</title>
<g id="a_node5"><a xlink:href="Equiv.html#functor_equiv" xlink:title="functor_equiv">
<ellipse fill="#f070d1" stroke="#000000" cx="1020" cy="-71.8689" rx="59.5901" ry="18"/>
<text text-anchor="middle" x="1020" y="-68.1689" font-family="Times,serif" font-size="14.00" fill="#000000">functor_equiv</text>
</a>
</g>
</g>
<!-- Equiv_isequiv_functor_equiv&#45;&gt;Equiv_functor_equiv -->
<g id="edge4" class="edge">
<title>Equiv_isequiv_functor_equiv&#45;&gt;Equiv_functor_equiv</title>
<path fill="none" stroke="#000000" d="M1020,-222.783C1020,-193.3819 1020,-135.0022 1020,-100.1001"/>
<polygon fill="#000000" stroke="#000000" points="1023.5001,-100.0802 1020,-90.0803 1016.5001,-100.0803 1023.5001,-100.0802"/>
</g>
<!-- Equiv_isequiv_functor_equiv&#45;&gt;Equiv_path_equiv -->
<g id="edge5" class="edge">
<title>Equiv_isequiv_functor_equiv&#45;&gt;Equiv_path_equiv</title>
<path fill="none" stroke="#000000" d="M988.5553,-223.8908C930.3106,-192.4424 805.9346,-125.2873 743.8473,-91.7641"/>
<polygon fill="#000000" stroke="#000000" points="745.2576,-88.548 734.7955,-86.8767 741.9319,-94.7075 745.2576,-88.548"/>
</g>
<!-- Equiv_contr_aut_hprop -->
<g id="node6" class="node">
<title>Equiv_contr_aut_hprop</title>
<g id="a_node6"><a xlink:href="Equiv.html#contr_aut_hprop" xlink:title="contr_aut_hprop">
<ellipse fill="#f070d1" stroke="#000000" cx="607" cy="-240.8689" rx="68.7989" ry="18"/>
<ellipse fill="none" stroke="#000000" cx="607" cy="-240.8689" rx="72.7934" ry="22"/>
<ellipse fill="none" stroke="#000000" cx="607" cy="-240.8689" rx="76.7879" ry="26"/>
<text text-anchor="middle" x="607" y="-237.1689" font-family="Times,serif" font-size="14.00" fill="#000000">contr_aut_hprop</text>
</a>
</g>
</g>
<!-- Equiv_contr_aut_hprop&#45;&gt;Equiv_path_equiv -->
<g id="edge6" class="edge">
<title>Equiv_contr_aut_hprop&#45;&gt;Equiv_path_equiv</title>
<path fill="none" stroke="#000000" d="M622.1878,-215.2015C640.886,-183.6015 672.4787,-130.2099 691.3752,-98.2748"/>
<polygon fill="#000000" stroke="#000000" points="694.4951,-99.8751 696.5754,-89.4865 688.4707,-96.3104 694.4951,-99.8751"/>
</g>
<!-- Equiv_contr_equiv_contr_contr -->
<g id="node7" class="node">
<title>Equiv_contr_equiv_contr_contr</title>
<g id="a_node7"><a xlink:href="Equiv.html#contr_equiv_contr_contr" xlink:title="contr_equiv_contr_contr">
<ellipse fill="#f070d1" stroke="#000000" cx="807" cy="-240.8689" rx="97.4834" ry="18"/>
<ellipse fill="none" stroke="#000000" cx="807" cy="-240.8689" rx="101.483" ry="22"/>
<ellipse fill="none" stroke="#000000" cx="807" cy="-240.8689" rx="105.4827" ry="26"/>
<text text-anchor="middle" x="807" y="-237.1689" font-family="Times,serif" font-size="14.00" fill="#000000">contr_equiv_contr_contr</text>
</a>
</g>
</g>
<!-- Equiv_contr_equiv_contr_contr&#45;&gt;Equiv_path_equiv -->
<g id="edge7" class="edge">
<title>Equiv_contr_equiv_contr_contr&#45;&gt;Equiv_path_equiv</title>
<path fill="none" stroke="#000000" d="M791.5942,-214.833C772.9448,-183.3157 741.7014,-130.5144 722.8533,-98.661"/>
<polygon fill="#000000" stroke="#000000" points="725.7627,-96.7049 717.6581,-89.8811 719.7384,-100.2697 725.7627,-96.7049"/>
</g>
<!-- Equiv_istrunc_equiv -->
<g id="node8" class="node">
<title>Equiv_istrunc_equiv</title>
<g id="a_node8"><a xlink:href="Equiv.html#istrunc_equiv" xlink:title="istrunc_equiv">
<ellipse fill="#f070d1" stroke="#000000" cx="263" cy="-425.8689" rx="58.4902" ry="18"/>
<ellipse fill="none" stroke="#000000" cx="263" cy="-425.8689" rx="62.4899" ry="22"/>
<ellipse fill="none" stroke="#000000" cx="263" cy="-425.8689" rx="66.4896" ry="26"/>
<text text-anchor="middle" x="263" y="-422.1689" font-family="Times,serif" font-size="14.00" fill="#000000">istrunc_equiv</text>
</a>
</g>
</g>
<!-- Equiv_isequiv_path_equiv -->
<g id="node9" class="node">
<title>Equiv_isequiv_path_equiv</title>
<g id="a_node9"><a xlink:href="Equiv.html#isequiv_path_equiv" xlink:title="isequiv_path_equiv">
<ellipse fill="#f070d1" stroke="#000000" cx="235" cy="-240.8689" rx="79.0865" ry="18"/>
<text text-anchor="middle" x="235" y="-237.1689" font-family="Times,serif" font-size="14.00" fill="#000000">isequiv_path_equiv</text>
</a>
</g>
</g>
<!-- Equiv_istrunc_equiv&#45;&gt;Equiv_isequiv_path_equiv -->
<g id="edge8" class="edge">
<title>Equiv_istrunc_equiv&#45;&gt;Equiv_isequiv_path_equiv</title>
<path fill="none" stroke="#000000" d="M259.0477,-399.7553C253.829,-365.2749 244.6735,-304.7832 239.2908,-269.2188"/>
<polygon fill="#000000" stroke="#000000" points="242.7071,-268.4018 237.7499,-259.0382 235.7859,-269.4494 242.7071,-268.4018"/>
</g>
<!-- Equiv_equiv_path_equiv -->
<g id="node11" class="node">
<title>Equiv_equiv_path_equiv</title>
<g id="a_node11"><a xlink:href="Equiv.html#equiv_path_equiv" xlink:title="equiv_path_equiv">
<ellipse fill="#f070d1" stroke="#000000" cx="97" cy="-425.8689" rx="73.3926" ry="18"/>
<ellipse fill="none" stroke="#000000" cx="97" cy="-425.8689" rx="77.3898" ry="22"/>
<ellipse fill="none" stroke="#000000" cx="97" cy="-425.8689" rx="81.387" ry="26"/>
<text text-anchor="middle" x="97" y="-422.1689" font-family="Times,serif" font-size="14.00" fill="#000000">equiv_path_equiv</text>
</a>
</g>
</g>
<!-- Equiv_hprop_isequiv -->
<g id="node12" class="node">
<title>Equiv_hprop_isequiv</title>
<g id="a_node12"><a xlink:href="Equiv.html#hprop_isequiv" xlink:title="hprop_isequiv">
<ellipse fill="#facdef" stroke="#000000" cx="77" cy="-240.8689" rx="61.1893" ry="18"/>
<text text-anchor="middle" x="77" y="-237.1689" font-family="Times,serif" font-size="14.00" fill="#000000">hprop_isequiv</text>
</a>
</g>
</g>
<!-- Equiv_equiv_path_equiv&#45;&gt;Equiv_hprop_isequiv -->
<g id="edge9" class="edge">
<title>Equiv_equiv_path_equiv&#45;&gt;Equiv_hprop_isequiv</title>
<path fill="none" stroke="#000000" d="M94.1769,-399.7553C90.4493,-365.2749 83.9097,-304.7832 80.0649,-269.2188"/>
<polygon fill="#000000" stroke="#000000" points="83.5189,-268.6041 78.9642,-259.0382 76.5594,-269.3565 83.5189,-268.6041"/>
</g>
</g>
</svg>
