<?xml version="1.0" encoding="UTF-8" standalone="no"?>
<!DOCTYPE svg PUBLIC "-//W3C//DTD SVG 1.1//EN"
 "http://www.w3.org/Graphics/SVG/1.1/DTD/svg11.dtd">
<!-- Generated by graphviz version 2.39.20141222.0545 (20141222.0545)
 -->
<!-- Title: HoTT_categories_NatCategory Pages: 1 -->
<svg width="588pt" height="298pt"
 viewBox="0.00 0.00 588.00 298.00" xmlns="http://www.w3.org/2000/svg" xmlns:xlink="http://www.w3.org/1999/xlink">
<g id="graph0" class="graph" transform="scale(1 1) rotate(0) translate(4 294)">
<title>HoTT_categories_NatCategory</title>
<polygon fill="white" stroke="transparent" points="-4,4 -4,-294 584,-294 584,4 -4,4"/>
<g id="clust1" class="cluster"><title>cluster_NatCategory</title>
<polygon fill="#ffffc3" stroke="black" points="15.6757,-8 15.6757,-282 564.324,-282 564.324,-8 15.6757,-8"/>
<text text-anchor="middle" x="58.6757" y="-266.8" font-family="Times,serif" font-size="14.00">NatCategory</text>
</g>
<g id="clust2" class="cluster"><title>cluster_NatCategory_Core</title>
<polygon fill="#ffffa3" stroke="black" points="31.3514,-16 31.3514,-251 548.649,-251 548.649,-16 31.3514,-16"/>
<text text-anchor="middle" x="52.8514" y="-235.8" font-family="Times,serif" font-size="14.00">Core</text>
</g>
<!-- NatCategory_Core_nat_category -->
<g id="node1" class="node"><title>NatCategory_Core_nat_category</title>
<g id="a_node1"><a xlink:href="NatCategory.html#Core.nat_category" xlink:title="nat_category">
<ellipse fill="#f070d1" stroke="black" cx="289.892" cy="-194" rx="55.8034" ry="18"/>
<ellipse fill="none" stroke="black" cx="289.892" cy="-194" rx="59.7968" ry="22"/>
<ellipse fill="none" stroke="black" cx="289.892" cy="-194" rx="63.7903" ry="26"/>
<text text-anchor="middle" x="289.892" y="-190.3" font-family="Times,serif" font-size="14.00">nat_category</text>
</a>
</g>
</g>
<!-- NatCategory_Core_trunc_cardinality_representative -->
<g id="node2" class="node"><title>NatCategory_Core_trunc_cardinality_representative</title>
<g id="a_node2"><a xlink:href="NatCategory.html#Core.trunc_cardinality_representative" xlink:title="trunc_cardinality_representative">
<ellipse fill="#facdef" stroke="black" cx="289.892" cy="-114" rx="124.278" ry="18"/>
<text text-anchor="middle" x="289.892" y="-110.3" font-family="Times,serif" font-size="14.00">trunc_cardinality_representative</text>
</a>
</g>
</g>
<!-- NatCategory_Core_nat_category&#45;&gt;NatCategory_Core_trunc_cardinality_representative -->
<g id="edge1" class="edge"><title>NatCategory_Core_nat_category&#45;&gt;NatCategory_Core_trunc_cardinality_representative</title>
<path fill="none" stroke="black" d="M289.892,-167.805C289.892,-159.603 289.892,-150.517 289.892,-142.184"/>
<polygon fill="black" stroke="black" points="293.392,-142.153 289.892,-132.153 286.392,-142.153 293.392,-142.153"/>
</g>
<!-- NatCategory_Core_CardinalityRepresentative -->
<g id="node3" class="node"><title>NatCategory_Core_CardinalityRepresentative</title>
<g id="a_node3"><a xlink:href="NatCategory.html#Core.CardinalityRepresentative" xlink:title="CardinalityRepresentative">
<ellipse fill="#f070d1" stroke="black" cx="289.892" cy="-42" rx="102.882" ry="18"/>
<text text-anchor="middle" x="289.892" y="-38.3" font-family="Times,serif" font-size="14.00">CardinalityRepresentative</text>
</a>
</g>
</g>
<!-- NatCategory_Core_trunc_cardinality_representative&#45;&gt;NatCategory_Core_CardinalityRepresentative -->
<g id="edge2" class="edge"><title>NatCategory_Core_trunc_cardinality_representative&#45;&gt;NatCategory_Core_CardinalityRepresentative</title>
<path fill="none" stroke="black" d="M289.892,-95.8314C289.892,-88.131 289.892,-78.9743 289.892,-70.4166"/>
<polygon fill="black" stroke="black" points="293.392,-70.4132 289.892,-60.4133 286.392,-70.4133 293.392,-70.4132"/>
</g>
</g>
</svg>
