<?xml version="1.0" encoding="UTF-8" standalone="no"?>
<!DOCTYPE svg PUBLIC "-//W3C//DTD SVG 1.1//EN"
 "http://www.w3.org/Graphics/SVG/1.1/DTD/svg11.dtd">
<!-- Generated by graphviz version 2.26.3 (20100126.1600)
 -->
<!-- Title: HoTT_types_Sigma Pages: 1 -->
<svg width="2992pt" height="1500pt"
 viewBox="0.00 0.00 2992.00 1500.00" xmlns="http://www.w3.org/2000/svg" xmlns:xlink="http://www.w3.org/1999/xlink">
<g id="graph1" class="graph" transform="scale(1 1) rotate(0) translate(4 1496)">
<title>HoTT_types_Sigma</title>
<polygon fill="white" stroke="white" points="-4,5 -4,-1496 2989,-1496 2989,5 -4,5"/>
<g id="graph2" class="cluster"><title>cluster_Sigma</title>
<polygon fill="#ffffc3" stroke="black" points="8,-18.7673 8,-1473.23 2976,-1473.23 2976,-18.7673 8,-18.7673"/>
<text text-anchor="middle" x="37.5" y="-1456.63" font-family="Times Roman,serif" font-size="14.00">Sigma</text>
</g>
<!-- Sigma_trunc_sigma -->
<g id="node1" class="node"><title>Sigma_trunc_sigma</title>
<a xlink:href="Sigma.html#trunc_sigma" xlink:title="trunc_sigma">
<ellipse fill="#f070d1" stroke="black" cx="551" cy="-907.767" rx="70.9686" ry="18.3848"/>
<ellipse fill="none" stroke="black" cx="551" cy="-907.767" rx="74.9435" ry="22.3848"/>
<ellipse fill="none" stroke="black" cx="551" cy="-907.767" rx="78.9183" ry="26.3848"/>
<text text-anchor="middle" x="551" y="-904.167" font-family="Times Roman,serif" font-size="14.00">trunc_sigma</text>
</a>
</g>
<!-- Sigma_isequiv_path_sigma -->
<g id="node32" class="node"><title>Sigma_isequiv_path_sigma</title>
<a xlink:href="Sigma.html#isequiv_path_sigma" xlink:title="isequiv_path_sigma">
<ellipse fill="#f070d1" stroke="black" cx="551" cy="-696.767" rx="106.773" ry="18.3848"/>
<text text-anchor="middle" x="551" y="-693.167" font-family="Times Roman,serif" font-size="14.00">isequiv_path_sigma</text>
</a>
</g>
<!-- Sigma_trunc_sigma&#45;&gt;Sigma_isequiv_path_sigma -->
<g id="edge2" class="edge"><title>Sigma_trunc_sigma&#45;&gt;Sigma_isequiv_path_sigma</title>
<path fill="none" stroke="black" d="M551,-881.044C551,-841.242 551,-766.684 551,-725.66"/>
<polygon fill="black" stroke="black" points="554.5,-725.514 551,-715.514 547.5,-725.514 554.5,-725.514"/>
</g>
<!-- Sigma_path_sigma_ -->
<g id="node43" class="node"><title>Sigma_path_sigma_</title>
<a xlink:href="Sigma.html#path_sigma&#39;" xlink:title="path_sigma&#39;">
<ellipse fill="#f070d1" stroke="black" cx="1304" cy="-696.767" rx="68.7979" ry="18.3848"/>
<text text-anchor="middle" x="1304" y="-693.167" font-family="Times Roman,serif" font-size="14.00">path_sigma&#39;</text>
</a>
</g>
<!-- Sigma_trunc_sigma&#45;&gt;Sigma_path_sigma_ -->
<g id="edge4" class="edge"><title>Sigma_trunc_sigma&#45;&gt;Sigma_path_sigma_</title>
<path fill="none" stroke="black" d="M609.155,-889.675C619.097,-886.653 629.335,-883.587 639,-880.767 862.201,-815.661 1129.21,-743.51 1245.3,-712.421"/>
<polygon fill="black" stroke="black" points="1246.31,-715.776 1255.06,-709.809 1244.5,-709.014 1246.31,-715.776"/>
</g>
<!-- Sigma_equiv_sigT_corect -->
<g id="node2" class="node"><title>Sigma_equiv_sigT_corect</title>
<a xlink:href="Sigma.html#equiv_sigT_corect" xlink:title="equiv_sigT_corect">
<ellipse fill="#f070d1" stroke="black" cx="2718" cy="-1329.77" rx="97.8264" ry="18.3848"/>
<ellipse fill="none" stroke="black" cx="2718" cy="-1329.77" rx="101.808" ry="22.3848"/>
<ellipse fill="none" stroke="black" cx="2718" cy="-1329.77" rx="105.789" ry="26.3848"/>
<text text-anchor="middle" x="2718" y="-1326.17" font-family="Times Roman,serif" font-size="14.00">equiv_sigT_corect</text>
</a>
</g>
<!-- Sigma_isequiv_sigT_corect -->
<g id="node3" class="node"><title>Sigma_isequiv_sigT_corect</title>
<a xlink:href="Sigma.html#isequiv_sigT_corect" xlink:title="isequiv_sigT_corect">
<ellipse fill="#f070d1" stroke="black" cx="2667" cy="-1118.77" rx="104.86" ry="18.3848"/>
<text text-anchor="middle" x="2667" y="-1115.17" font-family="Times Roman,serif" font-size="14.00">isequiv_sigT_corect</text>
</a>
</g>
<!-- Sigma_equiv_sigT_corect&#45;&gt;Sigma_isequiv_sigT_corect -->
<g id="edge6" class="edge"><title>Sigma_equiv_sigT_corect&#45;&gt;Sigma_isequiv_sigT_corect</title>
<path fill="none" stroke="black" d="M2711.54,-1303.04C2701.9,-1263.16 2683.82,-1188.37 2673.92,-1147.4"/>
<polygon fill="black" stroke="black" points="2677.28,-1146.41 2671.53,-1137.51 2670.48,-1148.06 2677.28,-1146.41"/>
</g>
<!-- Sigma_sigT_corect_uncurried -->
<g id="node5" class="node"><title>Sigma_sigT_corect_uncurried</title>
<a xlink:href="Sigma.html#sigT_corect_uncurried" xlink:title="sigT_corect_uncurried">
<ellipse fill="#f070d1" stroke="black" cx="2470" cy="-907.767" rx="118.087" ry="18.3848"/>
<text text-anchor="middle" x="2470" y="-904.167" font-family="Times Roman,serif" font-size="14.00">sigT_corect_uncurried</text>
</a>
</g>
<!-- Sigma_isequiv_sigT_corect&#45;&gt;Sigma_sigT_corect_uncurried -->
<g id="edge8" class="edge"><title>Sigma_isequiv_sigT_corect&#45;&gt;Sigma_sigT_corect_uncurried</title>
<path fill="none" stroke="black" d="M2649.86,-1100.41C2614.79,-1062.84 2534.73,-977.094 2494.31,-933.8"/>
<polygon fill="black" stroke="black" points="2496.62,-931.152 2487.24,-926.231 2491.5,-935.929 2496.62,-931.152"/>
</g>
<!-- Sigma_eta_sigma -->
<g id="node49" class="node"><title>Sigma_eta_sigma</title>
<a xlink:href="Sigma.html#eta_sigma" xlink:title="eta_sigma">
<ellipse fill="#f070d1" stroke="black" cx="2667" cy="-907.767" rx="60.8112" ry="18.3848"/>
<text text-anchor="middle" x="2667" y="-904.167" font-family="Times Roman,serif" font-size="14.00">eta_sigma</text>
</a>
</g>
<!-- Sigma_isequiv_sigT_corect&#45;&gt;Sigma_eta_sigma -->
<g id="edge10" class="edge"><title>Sigma_isequiv_sigT_corect&#45;&gt;Sigma_eta_sigma</title>
<path fill="none" stroke="black" d="M2667,-1100.04C2667,-1063.05 2667,-980.395 2667,-936.476"/>
<polygon fill="black" stroke="black" points="2670.5,-936.45 2667,-926.45 2663.5,-936.45 2670.5,-936.45"/>
</g>
<!-- Sigma_sigT_corect -->
<g id="node4" class="node"><title>Sigma_sigT_corect</title>
<a xlink:href="Sigma.html#sigT_corect" xlink:title="sigT_corect">
<ellipse fill="#f070d1" stroke="black" cx="2470" cy="-1118.77" rx="66.0219" ry="18.3848"/>
<ellipse fill="none" stroke="black" cx="2470" cy="-1118.77" rx="69.9951" ry="22.3848"/>
<ellipse fill="none" stroke="black" cx="2470" cy="-1118.77" rx="73.9683" ry="26.3848"/>
<text text-anchor="middle" x="2470" y="-1115.17" font-family="Times Roman,serif" font-size="14.00">sigT_corect</text>
</a>
</g>
<!-- Sigma_sigT_corect&#45;&gt;Sigma_sigT_corect_uncurried -->
<g id="edge12" class="edge"><title>Sigma_sigT_corect&#45;&gt;Sigma_sigT_corect_uncurried</title>
<path fill="none" stroke="black" d="M2470,-1092.04C2470,-1052.24 2470,-977.684 2470,-936.66"/>
<polygon fill="black" stroke="black" points="2473.5,-936.514 2470,-926.514 2466.5,-936.514 2473.5,-936.514"/>
</g>
<!-- Sigma_equiv_sigT_rect -->
<g id="node6" class="node"><title>Sigma_equiv_sigT_rect</title>
<a xlink:href="Sigma.html#equiv_sigT_rect" xlink:title="equiv_sigT_rect">
<ellipse fill="#f070d1" stroke="black" cx="2499" cy="-1329.77" rx="87.2222" ry="18.3848"/>
<ellipse fill="none" stroke="black" cx="2499" cy="-1329.77" rx="91.2012" ry="22.3848"/>
<ellipse fill="none" stroke="black" cx="2499" cy="-1329.77" rx="95.1803" ry="26.3848"/>
<text text-anchor="middle" x="2499" y="-1326.17" font-family="Times Roman,serif" font-size="14.00">equiv_sigT_rect</text>
</a>
</g>
<!-- Sigma_isequiv_sigT_rect -->
<g id="node7" class="node"><title>Sigma_isequiv_sigT_rect</title>
<a xlink:href="Sigma.html#isequiv_sigT_rect" xlink:title="isequiv_sigT_rect">
<ellipse fill="#f070d1" stroke="black" cx="2283" cy="-1118.77" rx="94.7523" ry="18.3848"/>
<text text-anchor="middle" x="2283" y="-1115.17" font-family="Times Roman,serif" font-size="14.00">isequiv_sigT_rect</text>
</a>
</g>
<!-- Sigma_equiv_sigT_rect&#45;&gt;Sigma_isequiv_sigT_rect -->
<g id="edge14" class="edge"><title>Sigma_equiv_sigT_rect&#45;&gt;Sigma_isequiv_sigT_rect</title>
<path fill="none" stroke="black" d="M2472.51,-1303.89C2430.84,-1263.18 2350.44,-1184.64 2309.04,-1144.2"/>
<polygon fill="black" stroke="black" points="2311.38,-1141.6 2301.78,-1137.11 2306.49,-1146.6 2311.38,-1141.6"/>
</g>
<!-- Sigma_equiv_sigma_prod -->
<g id="node8" class="node"><title>Sigma_equiv_sigma_prod</title>
<a xlink:href="Sigma.html#equiv_sigma_prod" xlink:title="equiv_sigma_prod">
<ellipse fill="#f070d1" stroke="black" cx="2279" cy="-1329.77" rx="98.9949" ry="18.3848"/>
<ellipse fill="none" stroke="black" cx="2279" cy="-1329.77" rx="102.995" ry="22.3848"/>
<ellipse fill="none" stroke="black" cx="2279" cy="-1329.77" rx="106.995" ry="26.3848"/>
<text text-anchor="middle" x="2279" y="-1326.17" font-family="Times Roman,serif" font-size="14.00">equiv_sigma_prod</text>
</a>
</g>
<!-- Sigma_equiv_sigma_assoc -->
<g id="node9" class="node"><title>Sigma_equiv_sigma_assoc</title>
<a xlink:href="Sigma.html#equiv_sigma_assoc" xlink:title="equiv_sigma_assoc">
<ellipse fill="#f070d1" stroke="black" cx="2043" cy="-1329.77" rx="103.238" ry="18.3848"/>
<ellipse fill="none" stroke="black" cx="2043" cy="-1329.77" rx="107.238" ry="22.3848"/>
<ellipse fill="none" stroke="black" cx="2043" cy="-1329.77" rx="111.238" ry="26.3848"/>
<text text-anchor="middle" x="2043" y="-1326.17" font-family="Times Roman,serif" font-size="14.00">equiv_sigma_assoc</text>
</a>
</g>
<!-- Sigma_equiv_sigma_contr -->
<g id="node10" class="node"><title>Sigma_equiv_sigma_contr</title>
<a xlink:href="Sigma.html#equiv_sigma_contr" xlink:title="equiv_sigma_contr">
<ellipse fill="#f070d1" stroke="black" cx="746" cy="-1118.77" rx="102.067" ry="18.3848"/>
<ellipse fill="none" stroke="black" cx="746" cy="-1118.77" rx="106.048" ry="22.3848"/>
<ellipse fill="none" stroke="black" cx="746" cy="-1118.77" rx="110.03" ry="26.3848"/>
<text text-anchor="middle" x="746" y="-1115.17" font-family="Times Roman,serif" font-size="14.00">equiv_sigma_contr</text>
</a>
</g>
<!-- Sigma_isequiv_pr1_contr -->
<g id="node11" class="node"><title>Sigma_isequiv_pr1_contr</title>
<a xlink:href="Sigma.html#isequiv_pr1_contr" xlink:title="isequiv_pr1_contr">
<ellipse fill="#f070d1" stroke="black" cx="746" cy="-907.767" rx="97.7889" ry="18.3848"/>
<text text-anchor="middle" x="746" y="-904.167" font-family="Times Roman,serif" font-size="14.00">isequiv_pr1_contr</text>
</a>
</g>
<!-- Sigma_equiv_sigma_contr&#45;&gt;Sigma_isequiv_pr1_contr -->
<g id="edge16" class="edge"><title>Sigma_equiv_sigma_contr&#45;&gt;Sigma_isequiv_pr1_contr</title>
<path fill="none" stroke="black" d="M746,-1092.04C746,-1052.24 746,-977.684 746,-936.66"/>
<polygon fill="black" stroke="black" points="749.5,-936.514 746,-926.514 742.5,-936.514 749.5,-936.514"/>
</g>
<!-- Sigma_isequiv_pr1_contr&#45;&gt;Sigma_path_sigma_ -->
<g id="edge18" class="edge"><title>Sigma_isequiv_pr1_contr&#45;&gt;Sigma_path_sigma_</title>
<path fill="none" stroke="black" d="M789.785,-891.21C892.058,-852.537 1146.13,-756.462 1254.14,-715.621"/>
<polygon fill="black" stroke="black" points="1255.71,-718.771 1263.82,-711.96 1253.23,-712.224 1255.71,-718.771"/>
</g>
<!-- Sigma_equiv_functor_sigma_id -->
<g id="node12" class="node"><title>Sigma_equiv_functor_sigma_id</title>
<a xlink:href="Sigma.html#equiv_functor_sigma_id" xlink:title="equiv_functor_sigma_id">
<ellipse fill="#f070d1" stroke="black" cx="1780" cy="-1329.77" rx="125.865" ry="18.3848"/>
<ellipse fill="none" stroke="black" cx="1780" cy="-1329.77" rx="129.865" ry="22.3848"/>
<ellipse fill="none" stroke="black" cx="1780" cy="-1329.77" rx="133.865" ry="26.3848"/>
<text text-anchor="middle" x="1780" y="-1326.17" font-family="Times Roman,serif" font-size="14.00">equiv_functor_sigma_id</text>
</a>
</g>
<!-- Sigma_equiv_functor_sigma -->
<g id="node14" class="node"><title>Sigma_equiv_functor_sigma</title>
<a xlink:href="Sigma.html#equiv_functor_sigma" xlink:title="equiv_functor_sigma">
<ellipse fill="#f070d1" stroke="black" cx="1780" cy="-1118.77" rx="111.222" ry="18.3848"/>
<text text-anchor="middle" x="1780" y="-1115.17" font-family="Times Roman,serif" font-size="14.00">equiv_functor_sigma</text>
</a>
</g>
<!-- Sigma_equiv_functor_sigma_id&#45;&gt;Sigma_equiv_functor_sigma -->
<g id="edge20" class="edge"><title>Sigma_equiv_functor_sigma_id&#45;&gt;Sigma_equiv_functor_sigma</title>
<path fill="none" stroke="black" d="M1780,-1303.04C1780,-1263.24 1780,-1188.68 1780,-1147.66"/>
<polygon fill="black" stroke="black" points="1783.5,-1147.51 1780,-1137.51 1776.5,-1147.51 1783.5,-1147.51"/>
</g>
<!-- Sigma_equiv_functor_sigma_ -->
<g id="node13" class="node"><title>Sigma_equiv_functor_sigma_</title>
<a xlink:href="Sigma.html#equiv_functor_sigma&#39;" xlink:title="equiv_functor_sigma&#39;">
<ellipse fill="#f070d1" stroke="black" cx="1506" cy="-1329.77" rx="113.844" ry="18.3848"/>
<ellipse fill="none" stroke="black" cx="1506" cy="-1329.77" rx="117.844" ry="22.3848"/>
<ellipse fill="none" stroke="black" cx="1506" cy="-1329.77" rx="121.844" ry="26.3848"/>
<text text-anchor="middle" x="1506" y="-1326.17" font-family="Times Roman,serif" font-size="14.00">equiv_functor_sigma&#39;</text>
</a>
</g>
<!-- Sigma_equiv_functor_sigma_&#45;&gt;Sigma_equiv_functor_sigma -->
<g id="edge22" class="edge"><title>Sigma_equiv_functor_sigma_&#45;&gt;Sigma_equiv_functor_sigma</title>
<path fill="none" stroke="black" d="M1539.32,-1304.11C1592.55,-1263.12 1696.07,-1183.4 1748.27,-1143.2"/>
<polygon fill="black" stroke="black" points="1750.71,-1145.74 1756.5,-1136.87 1746.44,-1140.2 1750.71,-1145.74"/>
</g>
<!-- Sigma_isequiv_functor_sigma -->
<g id="node15" class="node"><title>Sigma_isequiv_functor_sigma</title>
<a xlink:href="Sigma.html#isequiv_functor_sigma" xlink:title="isequiv_functor_sigma">
<ellipse fill="#facdef" stroke="black" cx="1987" cy="-907.767" rx="119.001" ry="18.3848"/>
<text text-anchor="middle" x="1987" y="-904.167" font-family="Times Roman,serif" font-size="14.00">isequiv_functor_sigma</text>
</a>
</g>
<!-- Sigma_equiv_functor_sigma&#45;&gt;Sigma_isequiv_functor_sigma -->
<g id="edge24" class="edge"><title>Sigma_equiv_functor_sigma&#45;&gt;Sigma_isequiv_functor_sigma</title>
<path fill="none" stroke="black" d="M1798.01,-1100.41C1834.94,-1062.77 1919.34,-976.738 1961.72,-933.531"/>
<polygon fill="black" stroke="black" points="1964.38,-935.82 1968.89,-926.231 1959.38,-930.918 1964.38,-935.82"/>
</g>
<!-- Sigma_functor_sigma -->
<g id="node17" class="node"><title>Sigma_functor_sigma</title>
<a xlink:href="Sigma.html#functor_sigma" xlink:title="functor_sigma">
<ellipse fill="#f070d1" stroke="black" cx="1954" cy="-696.767" rx="79.9031" ry="18.3848"/>
<text text-anchor="middle" x="1954" y="-693.167" font-family="Times Roman,serif" font-size="14.00">functor_sigma</text>
</a>
</g>
<!-- Sigma_isequiv_functor_sigma&#45;&gt;Sigma_functor_sigma -->
<g id="edge26" class="edge"><title>Sigma_isequiv_functor_sigma&#45;&gt;Sigma_functor_sigma</title>
<path fill="none" stroke="black" d="M1984.07,-889.042C1978.29,-852.052 1965.36,-769.395 1958.49,-725.476"/>
<polygon fill="black" stroke="black" points="1961.93,-724.789 1956.92,-715.45 1955.01,-725.871 1961.93,-724.789"/>
</g>
<!-- Sigma_isequiv_functor_sigma&#45;&gt;Sigma_path_sigma_ -->
<g id="edge28" class="edge"><title>Sigma_isequiv_functor_sigma&#45;&gt;Sigma_path_sigma_</title>
<path fill="none" stroke="black" d="M1933.41,-891.21C1806.37,-851.964 1487.97,-753.6 1359.27,-713.841"/>
<polygon fill="black" stroke="black" points="1360.19,-710.462 1349.6,-710.854 1358.12,-717.15 1360.19,-710.462"/>
</g>
<!-- Sigma_ap_functor_sigma -->
<g id="node16" class="node"><title>Sigma_ap_functor_sigma</title>
<a xlink:href="Sigma.html#ap_functor_sigma" xlink:title="ap_functor_sigma">
<ellipse fill="#f070d1" stroke="black" cx="2229" cy="-907.767" rx="96.8736" ry="18.3848"/>
<ellipse fill="none" stroke="black" cx="2229" cy="-907.767" rx="100.874" ry="22.3848"/>
<ellipse fill="none" stroke="black" cx="2229" cy="-907.767" rx="104.874" ry="26.3848"/>
<text text-anchor="middle" x="2229" y="-904.167" font-family="Times Roman,serif" font-size="14.00">ap_functor_sigma</text>
</a>
</g>
<!-- Sigma_ap_functor_sigma&#45;&gt;Sigma_functor_sigma -->
<g id="edge30" class="edge"><title>Sigma_ap_functor_sigma&#45;&gt;Sigma_functor_sigma</title>
<path fill="none" stroke="black" d="M2196.1,-882.525C2142.65,-841.512 2037.65,-760.95 1985.27,-720.757"/>
<polygon fill="black" stroke="black" points="1987.39,-717.976 1977.33,-714.666 1983.13,-723.53 1987.39,-717.976"/>
</g>
<!-- Sigma_path_sigma -->
<g id="node45" class="node"><title>Sigma_path_sigma</title>
<a xlink:href="Sigma.html#path_sigma" xlink:title="path_sigma">
<ellipse fill="#f070d1" stroke="black" cx="1377" cy="-485.767" rx="67.1751" ry="18.3848"/>
<text text-anchor="middle" x="1377" y="-482.167" font-family="Times Roman,serif" font-size="14.00">path_sigma</text>
</a>
</g>
<!-- Sigma_ap_functor_sigma&#45;&gt;Sigma_path_sigma -->
<g id="edge32" class="edge"><title>Sigma_ap_functor_sigma&#45;&gt;Sigma_path_sigma</title>
<path fill="none" stroke="black" d="M2237.3,-881.161C2250.57,-832.793 2270.21,-729.911 2219,-669.767 1993.71,-405.161 1787.77,-606.051 1453,-512.767 1444.08,-510.283 1434.71,-507.282 1425.7,-504.196"/>
<polygon fill="black" stroke="black" points="1426.71,-500.84 1416.11,-500.835 1424.39,-507.446 1426.71,-500.84"/>
</g>
<!-- Sigma_transport_sigma_ -->
<g id="node18" class="node"><title>Sigma_transport_sigma_</title>
<a xlink:href="Sigma.html#transport_sigma&#39;" xlink:title="transport_sigma&#39;">
<ellipse fill="#f070d1" stroke="black" cx="1266" cy="-1329.77" rx="92.1701" ry="18.3848"/>
<ellipse fill="none" stroke="black" cx="1266" cy="-1329.77" rx="96.1502" ry="22.3848"/>
<ellipse fill="none" stroke="black" cx="1266" cy="-1329.77" rx="100.13" ry="26.3848"/>
<text text-anchor="middle" x="1266" y="-1326.17" font-family="Times Roman,serif" font-size="14.00">transport_sigma&#39;</text>
</a>
</g>
<!-- Sigma_transport_sigma -->
<g id="node19" class="node"><title>Sigma_transport_sigma</title>
<a xlink:href="Sigma.html#transport_sigma" xlink:title="transport_sigma">
<ellipse fill="#f070d1" stroke="black" cx="1050" cy="-1329.77" rx="90.0502" ry="18.3848"/>
<ellipse fill="none" stroke="black" cx="1050" cy="-1329.77" rx="94.0299" ry="22.3848"/>
<ellipse fill="none" stroke="black" cx="1050" cy="-1329.77" rx="98.0096" ry="26.3848"/>
<text text-anchor="middle" x="1050" y="-1326.17" font-family="Times Roman,serif" font-size="14.00">transport_sigma</text>
</a>
</g>
<!-- Sigma_path_path_sigma -->
<g id="node20" class="node"><title>Sigma_path_path_sigma</title>
<a xlink:href="Sigma.html#path_path_sigma" xlink:title="path_path_sigma">
<ellipse fill="#f070d1" stroke="black" cx="351" cy="-907.767" rx="94.7523" ry="18.3848"/>
<ellipse fill="none" stroke="black" cx="351" cy="-907.767" rx="98.7523" ry="22.3848"/>
<ellipse fill="none" stroke="black" cx="351" cy="-907.767" rx="102.752" ry="26.3848"/>
<text text-anchor="middle" x="351" y="-904.167" font-family="Times Roman,serif" font-size="14.00">path_path_sigma</text>
</a>
</g>
<!-- Sigma_path_path_sigma_uncurried -->
<g id="node21" class="node"><title>Sigma_path_path_sigma_uncurried</title>
<a xlink:href="Sigma.html#path_path_sigma_uncurried" xlink:title="path_path_sigma_uncurried">
<ellipse fill="#f070d1" stroke="black" cx="823" cy="-696.767" rx="147.078" ry="18.3848"/>
<text text-anchor="middle" x="823" y="-693.167" font-family="Times Roman,serif" font-size="14.00">path_path_sigma_uncurried</text>
</a>
</g>
<!-- Sigma_path_path_sigma&#45;&gt;Sigma_path_path_sigma_uncurried -->
<g id="edge34" class="edge"><title>Sigma_path_path_sigma&#45;&gt;Sigma_path_path_sigma_uncurried</title>
<path fill="none" stroke="black" d="M402.411,-884.785C493.908,-843.882 683.822,-758.984 773.747,-718.785"/>
<polygon fill="black" stroke="black" points="775.209,-721.966 782.909,-714.689 772.352,-715.575 775.209,-721.966"/>
</g>
<!-- Sigma_eta_path_sigma -->
<g id="node34" class="node"><title>Sigma_eta_path_sigma</title>
<a xlink:href="Sigma.html#eta_path_sigma" xlink:title="eta_path_sigma">
<ellipse fill="#f070d1" stroke="black" cx="700" cy="-485.767" rx="87.889" ry="18.3848"/>
<text text-anchor="middle" x="700" y="-482.167" font-family="Times Roman,serif" font-size="14.00">eta_path_sigma</text>
</a>
</g>
<!-- Sigma_path_path_sigma_uncurried&#45;&gt;Sigma_eta_path_sigma -->
<g id="edge36" class="edge"><title>Sigma_path_path_sigma_uncurried&#45;&gt;Sigma_eta_path_sigma</title>
<path fill="none" stroke="black" d="M812.085,-678.042C790.284,-640.645 741.274,-556.571 715.899,-513.042"/>
<polygon fill="black" stroke="black" points="718.775,-511.026 710.715,-504.149 712.728,-514.551 718.775,-511.026"/>
</g>
<!-- Sigma_path_path_sigma_uncurried&#45;&gt;Sigma_path_sigma -->
<g id="edge38" class="edge"><title>Sigma_path_path_sigma_uncurried&#45;&gt;Sigma_path_sigma</title>
<path fill="none" stroke="black" d="M869.281,-679.14C972.802,-639.713 1222.26,-544.703 1328.15,-504.373"/>
<polygon fill="black" stroke="black" points="1329.54,-507.589 1337.64,-500.759 1327.05,-501.048 1329.54,-507.589"/>
</g>
<!-- Sigma_ap_sigT_rectnd_path_sigma -->
<g id="node22" class="node"><title>Sigma_ap_sigT_rectnd_path_sigma</title>
<a xlink:href="Sigma.html#ap_sigT_rectnd_path_sigma" xlink:title="ap_sigT_rectnd_path_sigma">
<ellipse fill="#f070d1" stroke="black" cx="1455" cy="-907.767" rx="145.19" ry="18.3848"/>
<ellipse fill="none" stroke="black" cx="1455" cy="-907.767" rx="149.176" ry="22.3848"/>
<ellipse fill="none" stroke="black" cx="1455" cy="-907.767" rx="153.163" ry="26.3848"/>
<text text-anchor="middle" x="1455" y="-904.167" font-family="Times Roman,serif" font-size="14.00">ap_sigT_rectnd_path_sigma</text>
</a>
</g>
<!-- Sigma_ap_sigT_rectnd_path_sigma&#45;&gt;Sigma_path_sigma_ -->
<g id="edge40" class="edge"><title>Sigma_ap_sigT_rectnd_path_sigma&#45;&gt;Sigma_path_sigma_</title>
<path fill="none" stroke="black" d="M1435.88,-881.044C1406.82,-840.442 1351.88,-763.675 1322.94,-723.229"/>
<polygon fill="black" stroke="black" points="1325.67,-721.036 1317.01,-714.941 1319.98,-725.11 1325.67,-721.036"/>
</g>
<!-- Sigma_transportD_is_transport -->
<g id="node23" class="node"><title>Sigma_transportD_is_transport</title>
<a xlink:href="Sigma.html#transportD_is_transport" xlink:title="transportD_is_transport">
<ellipse fill="#f070d1" stroke="black" cx="1148" cy="-907.767" rx="128.222" ry="18.3848"/>
<ellipse fill="none" stroke="black" cx="1148" cy="-907.767" rx="132.207" ry="22.3848"/>
<ellipse fill="none" stroke="black" cx="1148" cy="-907.767" rx="136.193" ry="26.3848"/>
<text text-anchor="middle" x="1148" y="-904.167" font-family="Times Roman,serif" font-size="14.00">transportD_is_transport</text>
</a>
</g>
<!-- Sigma_transportD_is_transport&#45;&gt;Sigma_path_sigma_ -->
<g id="edge42" class="edge"><title>Sigma_transportD_is_transport&#45;&gt;Sigma_path_sigma_</title>
<path fill="none" stroke="black" d="M1167.44,-881.471C1197.41,-840.938 1254.55,-763.647 1284.53,-723.096"/>
<polygon fill="black" stroke="black" points="1287.37,-725.148 1290.5,-715.026 1281.74,-720.986 1287.37,-725.148"/>
</g>
<!-- Sigma_ap_existT -->
<g id="node24" class="node"><title>Sigma_ap_existT</title>
<a xlink:href="Sigma.html#ap_existT" xlink:title="ap_existT">
<ellipse fill="#f070d1" stroke="black" cx="928" cy="-907.767" rx="58.2486" ry="18.3848"/>
<ellipse fill="none" stroke="black" cx="928" cy="-907.767" rx="62.2185" ry="22.3848"/>
<ellipse fill="none" stroke="black" cx="928" cy="-907.767" rx="66.1884" ry="26.3848"/>
<text text-anchor="middle" x="928" y="-904.167" font-family="Times Roman,serif" font-size="14.00">ap_existT</text>
</a>
</g>
<!-- Sigma_ap_existT&#45;&gt;Sigma_path_sigma_ -->
<g id="edge44" class="edge"><title>Sigma_ap_existT&#45;&gt;Sigma_path_sigma_</title>
<path fill="none" stroke="black" d="M966.472,-886.178C1038.54,-845.737 1193.1,-759.004 1265.32,-718.473"/>
<polygon fill="black" stroke="black" points="1267.11,-721.48 1274.12,-713.534 1263.69,-715.375 1267.11,-721.48"/>
</g>
<!-- Sigma_projT1_path_V -->
<g id="node25" class="node"><title>Sigma_projT1_path_V</title>
<a xlink:href="Sigma.html#projT1_path_V" xlink:title="projT1_path_V">
<ellipse fill="#f070d1" stroke="black" cx="844" cy="-1329.77" rx="82.2744" ry="18.3848"/>
<ellipse fill="none" stroke="black" cx="844" cy="-1329.77" rx="86.2523" ry="22.3848"/>
<ellipse fill="none" stroke="black" cx="844" cy="-1329.77" rx="90.2302" ry="26.3848"/>
<text text-anchor="middle" x="844" y="-1326.17" font-family="Times Roman,serif" font-size="14.00">projT1_path_V</text>
</a>
</g>
<!-- Sigma_projT1_path_pp -->
<g id="node26" class="node"><title>Sigma_projT1_path_pp</title>
<a xlink:href="Sigma.html#projT1_path_pp" xlink:title="projT1_path_pp">
<ellipse fill="#f070d1" stroke="black" cx="641" cy="-1329.77" rx="87.2222" ry="18.3848"/>
<ellipse fill="none" stroke="black" cx="641" cy="-1329.77" rx="91.2012" ry="22.3848"/>
<ellipse fill="none" stroke="black" cx="641" cy="-1329.77" rx="95.1803" ry="26.3848"/>
<text text-anchor="middle" x="641" y="-1326.17" font-family="Times Roman,serif" font-size="14.00">projT1_path_pp</text>
</a>
</g>
<!-- Sigma_projT1_path_1 -->
<g id="node27" class="node"><title>Sigma_projT1_path_1</title>
<a xlink:href="Sigma.html#projT1_path_1" xlink:title="projT1_path_1">
<ellipse fill="#f070d1" stroke="black" cx="922" cy="-274.767" rx="82.0244" ry="18.3848"/>
<ellipse fill="none" stroke="black" cx="922" cy="-274.767" rx="86.0244" ry="22.3848"/>
<ellipse fill="none" stroke="black" cx="922" cy="-274.767" rx="90.0244" ry="26.3848"/>
<text text-anchor="middle" x="922" y="-271.167" font-family="Times Roman,serif" font-size="14.00">projT1_path_1</text>
</a>
</g>
<!-- Sigma_projT1_path -->
<g id="node42" class="node"><title>Sigma_projT1_path</title>
<a xlink:href="Sigma.html#projT1_path" xlink:title="projT1_path">
<ellipse fill="#f070d1" stroke="black" cx="922" cy="-81.7673" rx="70.2092" ry="18.3848"/>
<text text-anchor="middle" x="922" y="-78.1673" font-family="Times Roman,serif" font-size="14.00">projT1_path</text>
</a>
</g>
<!-- Sigma_projT1_path_1&#45;&gt;Sigma_projT1_path -->
<g id="edge46" class="edge"><title>Sigma_projT1_path_1&#45;&gt;Sigma_projT1_path</title>
<path fill="none" stroke="black" d="M922,-247.931C922,-211.732 922,-147.526 922,-110.417"/>
<polygon fill="black" stroke="black" points="925.5,-110.273 922,-100.273 918.5,-110.273 925.5,-110.273"/>
</g>
<!-- Sigma_path_sigma_p1_1p_ -->
<g id="node28" class="node"><title>Sigma_path_sigma_p1_1p_</title>
<a xlink:href="Sigma.html#path_sigma_p1_1p&#39;" xlink:title="path_sigma_p1_1p&#39;">
<ellipse fill="#f070d1" stroke="black" cx="1738" cy="-907.767" rx="104.187" ry="18.3848"/>
<ellipse fill="none" stroke="black" cx="1738" cy="-907.767" rx="108.169" ry="22.3848"/>
<ellipse fill="none" stroke="black" cx="1738" cy="-907.767" rx="112.151" ry="26.3848"/>
<text text-anchor="middle" x="1738" y="-904.167" font-family="Times Roman,serif" font-size="14.00">path_sigma_p1_1p&#39;</text>
</a>
</g>
<!-- Sigma_path_sigma_p1_1p_&#45;&gt;Sigma_path_sigma_ -->
<g id="edge48" class="edge"><title>Sigma_path_sigma_p1_1p_&#45;&gt;Sigma_path_sigma_</title>
<path fill="none" stroke="black" d="M1688.64,-883.768C1602.92,-842.095 1427.98,-757.042 1346.95,-717.65"/>
<polygon fill="black" stroke="black" points="1348.07,-714.303 1337.55,-713.078 1345.01,-720.598 1348.07,-714.303"/>
</g>
<!-- Sigma_path_sigma_pp_pp_ -->
<g id="node29" class="node"><title>Sigma_path_sigma_pp_pp_</title>
<a xlink:href="Sigma.html#path_sigma_pp_pp&#39;" xlink:title="path_sigma_pp_pp&#39;">
<ellipse fill="#f070d1" stroke="black" cx="2857" cy="-907.767" rx="103.238" ry="18.3848"/>
<ellipse fill="none" stroke="black" cx="2857" cy="-907.767" rx="107.238" ry="22.3848"/>
<ellipse fill="none" stroke="black" cx="2857" cy="-907.767" rx="111.238" ry="26.3848"/>
<text text-anchor="middle" x="2857" y="-904.167" font-family="Times Roman,serif" font-size="14.00">path_sigma_pp_pp&#39;</text>
</a>
</g>
<!-- Sigma_path_sigma_pp_pp -->
<g id="node30" class="node"><title>Sigma_path_sigma_pp_pp</title>
<a xlink:href="Sigma.html#path_sigma_pp_pp" xlink:title="path_sigma_pp_pp">
<ellipse fill="#f070d1" stroke="black" cx="2603" cy="-696.767" rx="101.116" ry="18.3848"/>
<text text-anchor="middle" x="2603" y="-693.167" font-family="Times Roman,serif" font-size="14.00">path_sigma_pp_pp</text>
</a>
</g>
<!-- Sigma_path_sigma_pp_pp_&#45;&gt;Sigma_path_sigma_pp_pp -->
<g id="edge50" class="edge"><title>Sigma_path_sigma_pp_pp_&#45;&gt;Sigma_path_sigma_pp_pp</title>
<path fill="none" stroke="black" d="M2826.11,-882.106C2776.87,-841.2 2681.2,-761.73 2632.71,-721.45"/>
<polygon fill="black" stroke="black" points="2634.72,-718.565 2624.79,-714.868 2630.24,-723.95 2634.72,-718.565"/>
</g>
<!-- Sigma_path_sigma_pp_pp&#45;&gt;Sigma_path_sigma -->
<g id="edge52" class="edge"><title>Sigma_path_sigma_pp_pp&#45;&gt;Sigma_path_sigma</title>
<path fill="none" stroke="black" d="M2513.5,-688.08C2318.5,-667.93 1841.63,-612.003 1453,-512.767 1443.93,-510.452 1434.42,-507.506 1425.31,-504.416"/>
<polygon fill="black" stroke="black" points="1426.23,-501.027 1415.63,-501.029 1423.92,-507.634 1426.23,-501.027"/>
</g>
<!-- Sigma_equiv_path_sigma -->
<g id="node31" class="node"><title>Sigma_equiv_path_sigma</title>
<a xlink:href="Sigma.html#equiv_path_sigma" xlink:title="equiv_path_sigma">
<ellipse fill="#f070d1" stroke="black" cx="123" cy="-907.767" rx="98.9949" ry="18.3848"/>
<ellipse fill="none" stroke="black" cx="123" cy="-907.767" rx="102.995" ry="22.3848"/>
<ellipse fill="none" stroke="black" cx="123" cy="-907.767" rx="106.995" ry="26.3848"/>
<text text-anchor="middle" x="123" y="-904.167" font-family="Times Roman,serif" font-size="14.00">equiv_path_sigma</text>
</a>
</g>
<!-- Sigma_equiv_path_sigma&#45;&gt;Sigma_isequiv_path_sigma -->
<g id="edge54" class="edge"><title>Sigma_equiv_path_sigma&#45;&gt;Sigma_isequiv_path_sigma</title>
<path fill="none" stroke="black" d="M171.265,-883.973C254.772,-842.805 425.031,-758.869 506.123,-718.891"/>
<polygon fill="black" stroke="black" points="508.137,-721.801 515.559,-714.239 505.042,-715.522 508.137,-721.801"/>
</g>
<!-- Sigma_isequiv_path_sigma&#45;&gt;Sigma_eta_path_sigma -->
<g id="edge56" class="edge"><title>Sigma_isequiv_path_sigma&#45;&gt;Sigma_eta_path_sigma</title>
<path fill="none" stroke="black" d="M564.223,-678.042C590.742,-640.488 650.499,-555.865 681.125,-512.496"/>
<polygon fill="black" stroke="black" points="684.11,-514.336 687.02,-504.149 678.392,-510.299 684.11,-514.336"/>
</g>
<!-- Sigma_transport_projT1_path_sigma -->
<g id="node33" class="node"><title>Sigma_transport_projT1_path_sigma</title>
<a xlink:href="Sigma.html#transport_projT1_path_sigma" xlink:title="transport_projT1_path_sigma">
<ellipse fill="#f070d1" stroke="black" cx="1625" cy="-485.767" rx="154.856" ry="18.3848"/>
<ellipse fill="none" stroke="black" cx="1625" cy="-485.767" rx="158.856" ry="22.3848"/>
<ellipse fill="none" stroke="black" cx="1625" cy="-485.767" rx="162.856" ry="26.3848"/>
<text text-anchor="middle" x="1625" y="-482.167" font-family="Times Roman,serif" font-size="14.00">transport_projT1_path_sigma</text>
</a>
</g>
<!-- Sigma_transport_projT1_path_sigma_uncurried -->
<g id="node37" class="node"><title>Sigma_transport_projT1_path_sigma_uncurried</title>
<a xlink:href="Sigma.html#transport_projT1_path_sigma_uncurried" xlink:title="transport_projT1_path_sigma_uncurried">
<ellipse fill="#f070d1" stroke="black" cx="1608" cy="-274.767" rx="207.182" ry="18.3848"/>
<text text-anchor="middle" x="1608" y="-271.167" font-family="Times Roman,serif" font-size="14.00">transport_projT1_path_sigma_uncurried</text>
</a>
</g>
<!-- Sigma_transport_projT1_path_sigma&#45;&gt;Sigma_transport_projT1_path_sigma_uncurried -->
<g id="edge58" class="edge"><title>Sigma_transport_projT1_path_sigma&#45;&gt;Sigma_transport_projT1_path_sigma_uncurried</title>
<path fill="none" stroke="black" d="M1622.85,-459.044C1619.64,-419.242 1613.63,-344.684 1610.33,-303.66"/>
<polygon fill="black" stroke="black" points="1613.8,-303.2 1609.51,-293.514 1606.82,-303.763 1613.8,-303.2"/>
</g>
<!-- Sigma_eta_path_sigma_uncurried -->
<g id="node38" class="node"><title>Sigma_eta_path_sigma_uncurried</title>
<a xlink:href="Sigma.html#eta_path_sigma_uncurried" xlink:title="eta_path_sigma_uncurried">
<ellipse fill="#f070d1" stroke="black" cx="674" cy="-274.767" rx="140.213" ry="18.3848"/>
<text text-anchor="middle" x="674" y="-271.167" font-family="Times Roman,serif" font-size="14.00">eta_path_sigma_uncurried</text>
</a>
</g>
<!-- Sigma_eta_path_sigma&#45;&gt;Sigma_eta_path_sigma_uncurried -->
<g id="edge60" class="edge"><title>Sigma_eta_path_sigma&#45;&gt;Sigma_eta_path_sigma_uncurried</title>
<path fill="none" stroke="black" d="M697.693,-467.042C693.135,-430.052 682.949,-347.395 677.538,-303.476"/>
<polygon fill="black" stroke="black" points="680.999,-302.947 676.302,-293.45 674.051,-303.803 680.999,-302.947"/>
</g>
<!-- Sigma_projT2_path_sigma -->
<g id="node35" class="node"><title>Sigma_projT2_path_sigma</title>
<a xlink:href="Sigma.html#projT2_path_sigma" xlink:title="projT2_path_sigma">
<ellipse fill="#f070d1" stroke="black" cx="314" cy="-696.767" rx="103.945" ry="18.3848"/>
<ellipse fill="none" stroke="black" cx="314" cy="-696.767" rx="107.945" ry="22.3848"/>
<ellipse fill="none" stroke="black" cx="314" cy="-696.767" rx="111.945" ry="26.3848"/>
<text text-anchor="middle" x="314" y="-693.167" font-family="Times Roman,serif" font-size="14.00">projT2_path_sigma</text>
</a>
</g>
<!-- Sigma_projT2_path_sigma_uncurried -->
<g id="node39" class="node"><title>Sigma_projT2_path_sigma_uncurried</title>
<a xlink:href="Sigma.html#projT2_path_sigma_uncurried" xlink:title="projT2_path_sigma_uncurried">
<ellipse fill="#f070d1" stroke="black" cx="438" cy="-485.767" rx="155.771" ry="18.3848"/>
<text text-anchor="middle" x="438" y="-482.167" font-family="Times Roman,serif" font-size="14.00">projT2_path_sigma_uncurried</text>
</a>
</g>
<!-- Sigma_projT2_path_sigma&#45;&gt;Sigma_projT2_path_sigma_uncurried -->
<g id="edge62" class="edge"><title>Sigma_projT2_path_sigma&#45;&gt;Sigma_projT2_path_sigma_uncurried</title>
<path fill="none" stroke="black" d="M329.454,-670.471C353.064,-630.295 397.898,-554.006 421.893,-513.175"/>
<polygon fill="black" stroke="black" points="425.052,-514.708 427.101,-504.313 419.017,-511.161 425.052,-514.708"/>
</g>
<!-- Sigma_projT1_path_sigma -->
<g id="node36" class="node"><title>Sigma_projT1_path_sigma</title>
<a xlink:href="Sigma.html#projT1_path_sigma" xlink:title="projT1_path_sigma">
<ellipse fill="#f070d1" stroke="black" cx="1180" cy="-485.767" rx="103.945" ry="18.3848"/>
<ellipse fill="none" stroke="black" cx="1180" cy="-485.767" rx="107.945" ry="22.3848"/>
<ellipse fill="none" stroke="black" cx="1180" cy="-485.767" rx="111.945" ry="26.3848"/>
<text text-anchor="middle" x="1180" y="-482.167" font-family="Times Roman,serif" font-size="14.00">projT1_path_sigma</text>
</a>
</g>
<!-- Sigma_projT1_path_sigma_uncurried -->
<g id="node40" class="node"><title>Sigma_projT1_path_sigma_uncurried</title>
<a xlink:href="Sigma.html#projT1_path_sigma_uncurried" xlink:title="projT1_path_sigma_uncurried">
<ellipse fill="#f070d1" stroke="black" cx="1186" cy="-274.767" rx="155.771" ry="18.3848"/>
<text text-anchor="middle" x="1186" y="-271.167" font-family="Times Roman,serif" font-size="14.00">projT1_path_sigma_uncurried</text>
</a>
</g>
<!-- Sigma_projT1_path_sigma&#45;&gt;Sigma_projT1_path_sigma_uncurried -->
<g id="edge64" class="edge"><title>Sigma_projT1_path_sigma&#45;&gt;Sigma_projT1_path_sigma_uncurried</title>
<path fill="none" stroke="black" d="M1180.76,-459.044C1181.89,-419.242 1184.01,-344.684 1185.18,-303.66"/>
<polygon fill="black" stroke="black" points="1188.68,-303.609 1185.47,-293.514 1181.68,-303.41 1188.68,-303.609"/>
</g>
<!-- Sigma_path_sigma_uncurried -->
<g id="node46" class="node"><title>Sigma_path_sigma_uncurried</title>
<a xlink:href="Sigma.html#path_sigma_uncurried" xlink:title="path_sigma_uncurried">
<ellipse fill="#f070d1" stroke="black" cx="1276" cy="-81.7673" rx="119.001" ry="18.3848"/>
<text text-anchor="middle" x="1276" y="-78.1673" font-family="Times Roman,serif" font-size="14.00">path_sigma_uncurried</text>
</a>
</g>
<!-- Sigma_transport_projT1_path_sigma_uncurried&#45;&gt;Sigma_path_sigma_uncurried -->
<g id="edge66" class="edge"><title>Sigma_transport_projT1_path_sigma_uncurried&#45;&gt;Sigma_path_sigma_uncurried</title>
<path fill="none" stroke="black" d="M1576.47,-256.436C1515.71,-221.119 1382.56,-143.711 1315.8,-104.906"/>
<polygon fill="black" stroke="black" points="1317.24,-101.695 1306.84,-99.6952 1313.73,-107.747 1317.24,-101.695"/>
</g>
<!-- Sigma_projT2_path -->
<g id="node41" class="node"><title>Sigma_projT2_path</title>
<a xlink:href="Sigma.html#projT2_path" xlink:title="projT2_path">
<ellipse fill="#f070d1" stroke="black" cx="569" cy="-81.7673" rx="70.2092" ry="18.3848"/>
<text text-anchor="middle" x="569" y="-78.1673" font-family="Times Roman,serif" font-size="14.00">projT2_path</text>
</a>
</g>
<!-- Sigma_eta_path_sigma_uncurried&#45;&gt;Sigma_projT2_path -->
<g id="edge68" class="edge"><title>Sigma_eta_path_sigma_uncurried&#45;&gt;Sigma_projT2_path</title>
<path fill="none" stroke="black" d="M663.932,-256.262C645.352,-222.109 605.593,-149.029 583.889,-109.135"/>
<polygon fill="black" stroke="black" points="586.891,-107.328 579.037,-100.217 580.742,-110.674 586.891,-107.328"/>
</g>
<!-- Sigma_eta_path_sigma_uncurried&#45;&gt;Sigma_projT1_path -->
<g id="edge70" class="edge"><title>Sigma_eta_path_sigma_uncurried&#45;&gt;Sigma_projT1_path</title>
<path fill="none" stroke="black" d="M697.779,-256.262C742.934,-221.121 841.046,-144.768 891.174,-105.757"/>
<polygon fill="black" stroke="black" points="893.63,-108.281 899.372,-99.3769 889.331,-102.756 893.63,-108.281"/>
</g>
<!-- Sigma_eta_path_sigma_uncurried&#45;&gt;Sigma_path_sigma_uncurried -->
<g id="edge72" class="edge"><title>Sigma_eta_path_sigma_uncurried&#45;&gt;Sigma_path_sigma_uncurried</title>
<path fill="none" stroke="black" d="M727.423,-257.64C838.959,-221.882 1096.01,-139.47 1214.34,-101.536"/>
<polygon fill="black" stroke="black" points="1215.53,-104.83 1223.98,-98.4437 1213.39,-98.1638 1215.53,-104.83"/>
</g>
<!-- Sigma_projT2_path_sigma_uncurried&#45;&gt;Sigma_projT1_path_sigma_uncurried -->
<g id="edge74" class="edge"><title>Sigma_projT2_path_sigma_uncurried&#45;&gt;Sigma_projT1_path_sigma_uncurried</title>
<path fill="none" stroke="black" d="M498.578,-468.679C635.763,-429.981 969.558,-335.823 1115.61,-294.622"/>
<polygon fill="black" stroke="black" points="1116.7,-297.951 1125.38,-291.868 1114.8,-291.214 1116.7,-297.951"/>
</g>
<!-- Sigma_projT2_path_sigma_uncurried&#45;&gt;Sigma_projT2_path -->
<g id="edge76" class="edge"><title>Sigma_projT2_path_sigma_uncurried&#45;&gt;Sigma_projT2_path</title>
<path fill="none" stroke="black" d="M444.056,-467.092C465.052,-402.339 534.811,-187.205 559.907,-109.81"/>
<polygon fill="black" stroke="black" points="563.253,-110.837 563.009,-100.245 556.595,-108.678 563.253,-110.837"/>
</g>
<!-- Sigma_projT1_path_sigma_uncurried&#45;&gt;Sigma_projT1_path -->
<g id="edge78" class="edge"><title>Sigma_projT1_path_sigma_uncurried&#45;&gt;Sigma_projT1_path</title>
<path fill="none" stroke="black" d="M1160.69,-256.262C1112.52,-221.049 1007.74,-144.452 954.485,-105.516"/>
<polygon fill="black" stroke="black" points="956.226,-102.453 946.088,-99.3769 952.095,-108.104 956.226,-102.453"/>
</g>
<!-- Sigma_projT1_path_sigma_uncurried&#45;&gt;Sigma_path_sigma_uncurried -->
<g id="edge80" class="edge"><title>Sigma_projT1_path_sigma_uncurried&#45;&gt;Sigma_path_sigma_uncurried</title>
<path fill="none" stroke="black" d="M1194.63,-256.262C1210.48,-222.269 1244.32,-149.709 1262.98,-109.695"/>
<polygon fill="black" stroke="black" points="1266.21,-111.043 1267.26,-100.501 1259.87,-108.084 1266.21,-111.043"/>
</g>
<!-- Sigma_path_sigma_&#45;&gt;Sigma_path_sigma -->
<g id="edge82" class="edge"><title>Sigma_path_sigma_&#45;&gt;Sigma_path_sigma</title>
<path fill="none" stroke="black" d="M1310.48,-678.042C1323.33,-640.895 1352.12,-557.695 1367.26,-513.921"/>
<polygon fill="black" stroke="black" points="1370.57,-515.045 1370.54,-504.45 1363.96,-512.756 1370.57,-515.045"/>
</g>
<!-- Sigma_dpath_forall_ -->
<g id="node44" class="node"><title>Sigma_dpath_forall_</title>
<a xlink:href="Sigma.html#dpath_forall&#39;" xlink:title="dpath_forall&#39;">
<ellipse fill="#f070d1" stroke="black" cx="2131" cy="-696.767" rx="70.9686" ry="18.3848"/>
<ellipse fill="none" stroke="black" cx="2131" cy="-696.767" rx="74.9435" ry="22.3848"/>
<ellipse fill="none" stroke="black" cx="2131" cy="-696.767" rx="78.9183" ry="26.3848"/>
<text text-anchor="middle" x="2131" y="-693.167" font-family="Times Roman,serif" font-size="14.00">dpath_forall&#39;</text>
</a>
</g>
<!-- Sigma_dpath_forall_&#45;&gt;Sigma_path_sigma -->
<g id="edge84" class="edge"><title>Sigma_dpath_forall_&#45;&gt;Sigma_path_sigma</title>
<path fill="none" stroke="black" d="M2072.87,-678.594C2062.92,-675.581 2052.68,-672.539 2043,-669.767 1782.14,-595.069 1712.17,-593.141 1453,-512.767 1444.45,-510.115 1435.43,-507.104 1426.71,-504.078"/>
<polygon fill="black" stroke="black" points="1427.62,-500.69 1417.03,-500.674 1425.3,-507.293 1427.62,-500.69"/>
</g>
<!-- Sigma_path_sigma&#45;&gt;Sigma_path_sigma_uncurried -->
<g id="edge86" class="edge"><title>Sigma_path_sigma&#45;&gt;Sigma_path_sigma_uncurried</title>
<path fill="none" stroke="black" d="M1376.94,-467.186C1376.4,-426.615 1372.74,-327.36 1351,-247.767 1337.05,-196.677 1309.25,-141.392 1291.7,-109.264"/>
<polygon fill="black" stroke="black" points="1294.73,-107.508 1286.82,-100.453 1288.6,-110.897 1294.73,-107.508"/>
</g>
<!-- Sigma_eta3_sigma -->
<g id="node47" class="node"><title>Sigma_eta3_sigma</title>
<a xlink:href="Sigma.html#eta3_sigma" xlink:title="eta3_sigma">
<ellipse fill="#f070d1" stroke="black" cx="453" cy="-1329.77" rx="67.1751" ry="18.3848"/>
<ellipse fill="none" stroke="black" cx="453" cy="-1329.77" rx="71.1751" ry="22.3848"/>
<ellipse fill="none" stroke="black" cx="453" cy="-1329.77" rx="75.1751" ry="26.3848"/>
<text text-anchor="middle" x="453" y="-1326.17" font-family="Times Roman,serif" font-size="14.00">eta3_sigma</text>
</a>
</g>
<!-- Sigma_eta2_sigma -->
<g id="node48" class="node"><title>Sigma_eta2_sigma</title>
<a xlink:href="Sigma.html#eta2_sigma" xlink:title="eta2_sigma">
<ellipse fill="#f070d1" stroke="black" cx="285" cy="-1329.77" rx="67.1751" ry="18.3848"/>
<ellipse fill="none" stroke="black" cx="285" cy="-1329.77" rx="71.1751" ry="22.3848"/>
<ellipse fill="none" stroke="black" cx="285" cy="-1329.77" rx="75.1751" ry="26.3848"/>
<text text-anchor="middle" x="285" y="-1326.17" font-family="Times Roman,serif" font-size="14.00">eta2_sigma</text>
</a>
</g>
<!-- Sigma_unpack_sigma -->
<g id="node50" class="node"><title>Sigma_unpack_sigma</title>
<a xlink:href="Sigma.html#unpack_sigma" xlink:title="unpack_sigma">
<ellipse fill="#f070d1" stroke="black" cx="104" cy="-1329.77" rx="79.9031" ry="18.3848"/>
<ellipse fill="none" stroke="black" cx="104" cy="-1329.77" rx="83.9031" ry="22.3848"/>
<ellipse fill="none" stroke="black" cx="104" cy="-1329.77" rx="87.9031" ry="26.3848"/>
<text text-anchor="middle" x="104" y="-1326.17" font-family="Times Roman,serif" font-size="14.00">unpack_sigma</text>
</a>
</g>
</g>
</svg>
