<?xml version="1.0" encoding="UTF-8" standalone="no"?>
<!DOCTYPE svg PUBLIC "-//W3C//DTD SVG 1.1//EN"
 "http://www.w3.org/Graphics/SVG/1.1/DTD/svg11.dtd">
<!-- Generated by graphviz version 2.26.3 (20100126.1600)
 -->
<!-- Title: HoTT_FunextVarieties Pages: 1 -->
<svg width="824pt" height="416pt"
 viewBox="0.00 0.00 824.00 416.00" xmlns="http://www.w3.org/2000/svg" xmlns:xlink="http://www.w3.org/1999/xlink">
<g id="graph1" class="graph" transform="scale(1 1) rotate(0) translate(4 412)">
<title>HoTT_FunextVarieties</title>
<polygon fill="white" stroke="white" points="-4,5 -4,-412 821,-412 821,5 -4,5"/>
<g id="graph2" class="cluster"><title>cluster_FunextVarieties</title>
<polygon fill="#ffffc3" stroke="black" points="9.19437,-8 9.19437,-400 806.806,-400 806.806,-8 9.19437,-8"/>
<text text-anchor="middle" x="71.6944" y="-383.4" font-family="Times Roman,serif" font-size="14.00">FunextVarieties</text>
</g>
<!-- FunextVarieties_NaiveFunext_implies_Funext -->
<g id="node1" class="node"><title>FunextVarieties_NaiveFunext_implies_Funext</title>
<a xlink:href="FunextVarieties.html#NaiveFunext_implies_Funext" xlink:title="NaiveFunext_implies_Funext">
<ellipse fill="#f070d1" stroke="black" cx="591.141" cy="-339" rx="150.846" ry="18.3848"/>
<ellipse fill="none" stroke="black" cx="591.141" cy="-339" rx="154.834" ry="22.3848"/>
<ellipse fill="none" stroke="black" cx="591.141" cy="-339" rx="158.821" ry="26.3848"/>
<text text-anchor="middle" x="591.141" y="-335.4" font-family="Times Roman,serif" font-size="14.00">NaiveFunext_implies_Funext</text>
</a>
</g>
<!-- FunextVarieties_WeakFunext_implies_Funext -->
<g id="node2" class="node"><title>FunextVarieties_WeakFunext_implies_Funext</title>
<a xlink:href="FunextVarieties.html#WeakFunext_implies_Funext" xlink:title="WeakFunext_implies_Funext">
<ellipse fill="#f070d1" stroke="black" cx="192.141" cy="-257" rx="150.821" ry="18.3848"/>
<text text-anchor="middle" x="192.141" y="-253.4" font-family="Times Roman,serif" font-size="14.00">WeakFunext_implies_Funext</text>
</a>
</g>
<!-- FunextVarieties_NaiveFunext_implies_Funext&#45;&gt;FunextVarieties_WeakFunext_implies_Funext -->
<g id="edge2" class="edge"><title>FunextVarieties_NaiveFunext_implies_Funext&#45;&gt;FunextVarieties_WeakFunext_implies_Funext</title>
<path fill="none" stroke="black" d="M490.971,-318.414C425.893,-305.039 341.881,-287.774 279.517,-274.957"/>
<polygon fill="black" stroke="black" points="280.2,-271.524 269.7,-272.939 278.79,-278.381 280.2,-271.524"/>
</g>
<!-- FunextVarieties_NaiveFunext_implies_WeakFunext -->
<g id="node6" class="node"><title>FunextVarieties_NaiveFunext_implies_WeakFunext</title>
<a xlink:href="FunextVarieties.html#NaiveFunext_implies_WeakFunext" xlink:title="NaiveFunext_implies_WeakFunext">
<ellipse fill="#f070d1" stroke="black" cx="592.141" cy="-257" rx="178.898" ry="18.3848"/>
<text text-anchor="middle" x="592.141" y="-253.4" font-family="Times Roman,serif" font-size="14.00">NaiveFunext_implies_WeakFunext</text>
</a>
</g>
<!-- FunextVarieties_NaiveFunext_implies_Funext&#45;&gt;FunextVarieties_NaiveFunext_implies_WeakFunext -->
<g id="edge4" class="edge"><title>FunextVarieties_NaiveFunext_implies_Funext&#45;&gt;FunextVarieties_NaiveFunext_implies_WeakFunext</title>
<path fill="none" stroke="black" d="M591.468,-312.15C591.571,-303.743 591.684,-294.43 591.789,-285.889"/>
<polygon fill="black" stroke="black" points="595.292,-285.649 591.914,-275.607 588.292,-285.564 595.292,-285.649"/>
</g>
<!-- FunextVarieties_htpy_rect_beta -->
<g id="node3" class="node"><title>FunextVarieties_htpy_rect_beta</title>
<a xlink:href="FunextVarieties.html#htpy_rect_beta" xlink:title="htpy_rect_beta">
<ellipse fill="#f070d1" stroke="black" cx="156.141" cy="-183" rx="85.0596" ry="18.3848"/>
<text text-anchor="middle" x="156.141" y="-179.4" font-family="Times Roman,serif" font-size="14.00">htpy_rect_beta</text>
</a>
</g>
<!-- FunextVarieties_WeakFunext_implies_Funext&#45;&gt;FunextVarieties_htpy_rect_beta -->
<g id="edge6" class="edge"><title>FunextVarieties_WeakFunext_implies_Funext&#45;&gt;FunextVarieties_htpy_rect_beta</title>
<path fill="none" stroke="black" d="M183.057,-238.327C178.975,-229.937 174.076,-219.866 169.582,-210.629"/>
<polygon fill="black" stroke="black" points="172.62,-208.872 165.098,-201.411 166.325,-211.935 172.62,-208.872"/>
</g>
<!-- FunextVarieties_htpy_rect -->
<g id="node4" class="node"><title>FunextVarieties_htpy_rect</title>
<a xlink:href="FunextVarieties.html#htpy_rect" xlink:title="htpy_rect">
<ellipse fill="#f070d1" stroke="black" cx="341.141" cy="-183" rx="58.1882" ry="18.3848"/>
<text text-anchor="middle" x="341.141" y="-179.4" font-family="Times Roman,serif" font-size="14.00">htpy_rect</text>
</a>
</g>
<!-- FunextVarieties_WeakFunext_implies_Funext&#45;&gt;FunextVarieties_htpy_rect -->
<g id="edge8" class="edge"><title>FunextVarieties_WeakFunext_implies_Funext&#45;&gt;FunextVarieties_htpy_rect</title>
<path fill="none" stroke="black" d="M228.59,-238.898C250.398,-228.067 278.152,-214.283 300.643,-203.113"/>
<polygon fill="black" stroke="black" points="302.211,-206.242 309.61,-198.66 299.097,-199.973 302.211,-206.242"/>
</g>
<!-- FunextVarieties_contr_basedhtpy -->
<g id="node5" class="node"><title>FunextVarieties_contr_basedhtpy</title>
<a xlink:href="FunextVarieties.html#contr_basedhtpy" xlink:title="contr_basedhtpy">
<ellipse fill="#f070d1" stroke="black" cx="160.141" cy="-109" rx="92.1303" ry="18.3848"/>
<text text-anchor="middle" x="160.141" y="-105.4" font-family="Times Roman,serif" font-size="14.00">contr_basedhtpy</text>
</a>
</g>
<!-- FunextVarieties_htpy_rect_beta&#45;&gt;FunextVarieties_contr_basedhtpy -->
<g id="edge10" class="edge"><title>FunextVarieties_htpy_rect_beta&#45;&gt;FunextVarieties_contr_basedhtpy</title>
<path fill="none" stroke="black" d="M157.15,-164.327C157.586,-156.264 158.106,-146.648 158.589,-137.711"/>
<polygon fill="black" stroke="black" points="162.087,-137.842 159.132,-127.667 155.097,-137.464 162.087,-137.842"/>
</g>
<!-- FunextVarieties_htpy_rect&#45;&gt;FunextVarieties_contr_basedhtpy -->
<g id="edge12" class="edge"><title>FunextVarieties_htpy_rect&#45;&gt;FunextVarieties_contr_basedhtpy</title>
<path fill="none" stroke="black" d="M305.381,-168.38C278.236,-157.282 240.565,-141.881 210.391,-129.544"/>
<polygon fill="black" stroke="black" points="211.461,-126.201 200.881,-125.656 208.812,-132.68 211.461,-126.201"/>
</g>
<!-- FunextVarieties_WeakFunext -->
<g id="node8" class="node"><title>FunextVarieties_WeakFunext</title>
<a xlink:href="FunextVarieties.html#WeakFunext" xlink:title="WeakFunext">
<ellipse fill="#f070d1" stroke="black" cx="160.141" cy="-35" rx="73.0388" ry="18.3848"/>
<text text-anchor="middle" x="160.141" y="-31.4" font-family="Times Roman,serif" font-size="14.00">WeakFunext</text>
</a>
</g>
<!-- FunextVarieties_contr_basedhtpy&#45;&gt;FunextVarieties_WeakFunext -->
<g id="edge14" class="edge"><title>FunextVarieties_contr_basedhtpy&#45;&gt;FunextVarieties_WeakFunext</title>
<path fill="none" stroke="black" d="M160.141,-90.3267C160.141,-82.2639 160.141,-72.6477 160.141,-63.7115"/>
<polygon fill="black" stroke="black" points="163.641,-63.6673 160.141,-53.6674 156.641,-63.6674 163.641,-63.6673"/>
</g>
<!-- FunextVarieties_NaiveFunext -->
<g id="node9" class="node"><title>FunextVarieties_NaiveFunext</title>
<a xlink:href="FunextVarieties.html#NaiveFunext" xlink:title="NaiveFunext">
<ellipse fill="#f070d1" stroke="black" cx="592.141" cy="-183" rx="73.0388" ry="18.3848"/>
<text text-anchor="middle" x="592.141" y="-179.4" font-family="Times Roman,serif" font-size="14.00">NaiveFunext</text>
</a>
</g>
<!-- FunextVarieties_NaiveFunext_implies_WeakFunext&#45;&gt;FunextVarieties_NaiveFunext -->
<g id="edge16" class="edge"><title>FunextVarieties_NaiveFunext_implies_WeakFunext&#45;&gt;FunextVarieties_NaiveFunext</title>
<path fill="none" stroke="black" d="M592.141,-238.327C592.141,-230.264 592.141,-220.648 592.141,-211.711"/>
<polygon fill="black" stroke="black" points="595.641,-211.667 592.141,-201.667 588.641,-211.667 595.641,-211.667"/>
</g>
<!-- FunextVarieties_Funext_implies_NaiveFunext -->
<g id="node7" class="node"><title>FunextVarieties_Funext_implies_NaiveFunext</title>
<a xlink:href="FunextVarieties.html#Funext_implies_NaiveFunext" xlink:title="Funext_implies_NaiveFunext">
<ellipse fill="#f070d1" stroke="black" cx="203.141" cy="-339" rx="150.846" ry="18.3848"/>
<ellipse fill="none" stroke="black" cx="203.141" cy="-339" rx="154.834" ry="22.3848"/>
<ellipse fill="none" stroke="black" cx="203.141" cy="-339" rx="158.821" ry="26.3848"/>
<text text-anchor="middle" x="203.141" y="-335.4" font-family="Times Roman,serif" font-size="14.00">Funext_implies_NaiveFunext</text>
</a>
</g>
</g>
</svg>
