<?xml version="1.0" encoding="UTF-8" standalone="no"?>
<!DOCTYPE svg PUBLIC "-//W3C//DTD SVG 1.1//EN"
 "http://www.w3.org/Graphics/SVG/1.1/DTD/svg11.dtd">
<!-- Generated by graphviz version 2.26.3 (20100126.1600)
 -->
<!-- Title: HoTT_categories_Adjoint_UniversalMorphisms_FunctorialLaws Pages: 1 -->
<svg width="380pt" height="194pt"
 viewBox="0.00 0.00 380.00 194.00" xmlns="http://www.w3.org/2000/svg" xmlns:xlink="http://www.w3.org/1999/xlink">
<g id="graph1" class="graph" transform="scale(1 1) rotate(0) translate(4 190)">
<title>HoTT_categories_Adjoint_UniversalMorphisms_FunctorialLaws</title>
<polygon fill="white" stroke="white" points="-4,5 -4,-190 377,-190 377,5 -4,5"/>
<g id="graph2" class="cluster"><title>cluster_FunctorialLaws</title>
<polygon fill="#ffffc3" stroke="black" points="11.188,-8 11.188,-178 360.812,-178 360.812,-8 11.188,-8"/>
<text text-anchor="middle" x="71.688" y="-161.4" font-family="Times Roman,serif" font-size="14.00">FunctorialLaws</text>
</g>
<!-- FunctorialLaws_terminal_identity_of -->
<g id="node1" class="node"><title>FunctorialLaws_terminal_identity_of</title>
<a xlink:href="FunctorialLaws.html#terminal_identity_of" xlink:title="terminal_identity_of">
<ellipse fill="#f070d1" stroke="black" cx="186.233" cy="-117" rx="109.135" ry="18.3848"/>
<ellipse fill="none" stroke="black" cx="186.233" cy="-117" rx="113.118" ry="22.3848"/>
<ellipse fill="none" stroke="black" cx="186.233" cy="-117" rx="117.101" ry="26.3848"/>
<text text-anchor="middle" x="186.233" y="-113.4" font-family="Times Roman,serif" font-size="14.00">terminal_identity_of</text>
</a>
</g>
<!-- FunctorialLaws_initial_identity_of -->
<g id="node2" class="node"><title>FunctorialLaws_initial_identity_of</title>
<a xlink:href="FunctorialLaws.html#initial_identity_of" xlink:title="initial_identity_of">
<ellipse fill="#facdef" stroke="black" cx="186.233" cy="-35" rx="96.1665" ry="18.3848"/>
<text text-anchor="middle" x="186.233" y="-31.4" font-family="Times Roman,serif" font-size="14.00">initial_identity_of</text>
</a>
</g>
<!-- FunctorialLaws_terminal_identity_of&#45;&gt;FunctorialLaws_initial_identity_of -->
<g id="edge2" class="edge"><title>FunctorialLaws_terminal_identity_of&#45;&gt;FunctorialLaws_initial_identity_of</title>
<path fill="none" stroke="black" d="M186.233,-90.1501C186.233,-81.7426 186.233,-72.4303 186.233,-63.8885"/>
<polygon fill="black" stroke="black" points="189.733,-63.607 186.233,-53.6071 182.733,-63.6071 189.733,-63.607"/>
</g>
</g>
</svg>
