<?xml version="1.0" encoding="UTF-8" standalone="no"?>
<!DOCTYPE svg PUBLIC "-//W3C//DTD SVG 1.1//EN"
 "http://www.w3.org/Graphics/SVG/1.1/DTD/svg11.dtd">
<!-- Generated by graphviz version 2.26.3 (20100126.1600)
 -->
<!-- Title: HoTT_categories_ExponentialLaws_Law1 Pages: 1 -->
<svg width="1500pt" height="754pt"
 viewBox="0.00 0.00 1500.00 754.00" xmlns="http://www.w3.org/2000/svg" xmlns:xlink="http://www.w3.org/1999/xlink">
<g id="graph1" class="graph" transform="scale(1 1) rotate(0) translate(4 750)">
<title>HoTT_categories_ExponentialLaws_Law1</title>
<polygon fill="white" stroke="white" points="-4,5 -4,-750 1497,-750 1497,5 -4,5"/>
<g id="graph2" class="cluster"><title>cluster_Law1</title>
<polygon fill="#ffffc3" stroke="black" points="270,-436.847 270,-732.559 1484,-732.559 1484,-436.847 270,-436.847"/>
<text text-anchor="middle" x="297.5" y="-715.959" font-family="Times Roman,serif" font-size="14.00">Law1</text>
</g>
<g id="graph3" class="cluster"><title>cluster_Law</title>
<polygon fill="#ffffc3" stroke="black" points="8,-137.775 8,-571.261 204,-571.261 204,-137.775 8,-137.775"/>
<text text-anchor="middle" x="31" y="-554.661" font-family="Times Roman,serif" font-size="14.00">Law</text>
</g>
<g id="graph4" class="cluster"><title>cluster_Functors</title>
<polygon fill="#ffffc3" stroke="black" points="212,-13.4414 212,-423.405 982,-423.405 982,-13.4414 212,-13.4414"/>
<text text-anchor="middle" x="250" y="-406.805" font-family="Times Roman,serif" font-size="14.00">Functors</text>
</g>
<!-- Law1_law -->
<g id="node1" class="node"><title>Law1_law</title>
<a xlink:href="Law1.html#law" xlink:title="law">
<ellipse fill="#f070d1" stroke="black" cx="441" cy="-630.441" rx="28.9914" ry="18.3848"/>
<ellipse fill="none" stroke="black" cx="441" cy="-630.441" rx="32.9914" ry="22.3848"/>
<ellipse fill="none" stroke="black" cx="441" cy="-630.441" rx="36.9914" ry="26.3848"/>
<text text-anchor="middle" x="441" y="-626.841" font-family="Times Roman,serif" font-size="14.00">law</text>
</a>
</g>
<!-- Law_law -->
<g id="node13" class="node"><title>Law_law</title>
<a xlink:href="Law.html#law" xlink:title="law">
<ellipse fill="#facdef" stroke="black" cx="167" cy="-482.441" rx="28.9914" ry="18.3848"/>
<text text-anchor="middle" x="167" y="-478.841" font-family="Times Roman,serif" font-size="14.00">law</text>
</a>
</g>
<!-- Law1_law&#45;&gt;Law_law -->
<g id="edge2" class="edge"><title>Law1_law&#45;&gt;Law_law</title>
<path fill="none" stroke="black" d="M412.407,-613.387C406.669,-610.042 400.664,-606.594 395,-603.441 338.371,-571.918 323.236,-565.847 266,-535.441 243.362,-523.416 217.863,-509.762 198.413,-499.325"/>
<polygon fill="black" stroke="black" points="199.856,-496.127 189.39,-494.481 196.545,-502.294 199.856,-496.127"/>
</g>
<!-- Law1_helper -->
<g id="node2" class="node"><title>Law1_helper</title>
<a xlink:href="Law1.html#helper" xlink:title="helper">
<ellipse fill="#f070d1" stroke="black" cx="678" cy="-630.441" rx="42.0063" ry="18.3848"/>
<ellipse fill="none" stroke="black" cx="678" cy="-630.441" rx="45.9667" ry="22.3848"/>
<ellipse fill="none" stroke="black" cx="678" cy="-630.441" rx="49.9271" ry="26.3848"/>
<text text-anchor="middle" x="678" y="-626.841" font-family="Times Roman,serif" font-size="14.00">helper</text>
</a>
</g>
<!-- Law1_helper_subproof -->
<g id="node3" class="node"><title>Law1_helper_subproof</title>
<a xlink:href="Law1.html#helper_subproof" xlink:title="helper_subproof">
<ellipse fill="#f070d1" stroke="black" cx="368" cy="-482.441" rx="89.8026" ry="18.3848"/>
<text text-anchor="middle" x="368" y="-478.841" font-family="Times Roman,serif" font-size="14.00">helper_subproof</text>
</a>
</g>
<!-- Law1_helper&#45;&gt;Law1_helper_subproof -->
<g id="edge4" class="edge"><title>Law1_helper&#45;&gt;Law1_helper_subproof</title>
<path fill="none" stroke="black" d="M639.936,-612.965C632.976,-609.786 625.774,-606.506 619,-603.441 551.574,-572.932 533.443,-568.038 467,-535.441 447.475,-525.863 426.168,-514.568 408.339,-504.872"/>
<polygon fill="black" stroke="black" points="409.814,-501.689 399.36,-499.964 406.457,-507.832 409.814,-501.689"/>
</g>
<!-- Law_helper_subproof -->
<g id="node15" class="node"><title>Law_helper_subproof</title>
<a xlink:href="Law.html#helper_subproof" xlink:title="helper_subproof">
<ellipse fill="#facdef" stroke="black" cx="106" cy="-183.441" rx="89.8026" ry="18.3848"/>
<text text-anchor="middle" x="106" y="-179.841" font-family="Times Roman,serif" font-size="14.00">helper_subproof</text>
</a>
</g>
<!-- Law1_helper_subproof&#45;&gt;Law_helper_subproof -->
<g id="edge6" class="edge"><title>Law1_helper_subproof&#45;&gt;Law_helper_subproof</title>
<path fill="none" stroke="black" d="M329.678,-465.543C294.46,-448.465 242.618,-419.225 208,-381.441 201.652,-374.513 146.127,-263.93 119.773,-211.113"/>
<polygon fill="black" stroke="black" points="122.804,-209.349 115.21,-201.962 116.539,-212.473 122.804,-209.349"/>
</g>
<!-- Law1_law_ -->
<g id="node4" class="node"><title>Law1_law_</title>
<a xlink:href="Law1.html#law&#39;" xlink:title="law&#39;">
<ellipse fill="#f070d1" stroke="black" cx="785" cy="-630.441" rx="31.1127" ry="18.3848"/>
<ellipse fill="none" stroke="black" cx="785" cy="-630.441" rx="35.1127" ry="22.3848"/>
<ellipse fill="none" stroke="black" cx="785" cy="-630.441" rx="39.1127" ry="26.3848"/>
<text text-anchor="middle" x="785" y="-626.841" font-family="Times Roman,serif" font-size="14.00">law&#39;</text>
</a>
</g>
<!-- Law1_inverse_ -->
<g id="node5" class="node"><title>Law1_inverse_</title>
<a xlink:href="Law1.html#inverse&#39;" xlink:title="inverse&#39;">
<ellipse fill="#f070d1" stroke="black" cx="1313" cy="-630.441" rx="49.0671" ry="18.3848"/>
<ellipse fill="none" stroke="black" cx="1313" cy="-630.441" rx="53.0323" ry="22.3848"/>
<ellipse fill="none" stroke="black" cx="1313" cy="-630.441" rx="56.9975" ry="26.3848"/>
<text text-anchor="middle" x="1313" y="-626.841" font-family="Times Roman,serif" font-size="14.00">inverse&#39;</text>
</a>
</g>
<!-- Law1_IsTerminalCategory_instance_0 -->
<g id="node7" class="node"><title>Law1_IsTerminalCategory_instance_0</title>
<a xlink:href="Law1.html#IsTerminalCategory_instance_0" xlink:title="IsTerminalCategory_instance_0">
<ellipse fill="#7fffd4" stroke="black" cx="1313" cy="-482.441" rx="162.842" ry="18.3848"/>
<text text-anchor="middle" x="1313" y="-478.841" font-family="Times Roman,serif" font-size="14.00">IsTerminalCategory_instance_0</text>
</a>
</g>
<!-- Law1_inverse_&#45;&gt;Law1_IsTerminalCategory_instance_0 -->
<g id="edge8" class="edge"><title>Law1_inverse_&#45;&gt;Law1_IsTerminalCategory_instance_0</title>
<path fill="none" stroke="black" d="M1313,-603.64C1313,-577.576 1313,-538.105 1313,-511.348"/>
<polygon fill="black" stroke="black" points="1316.5,-511.08 1313,-501.08 1309.5,-511.08 1316.5,-511.08"/>
</g>
<!-- Law1_functor_ -->
<g id="node6" class="node"><title>Law1_functor_</title>
<a xlink:href="Law1.html#functor&#39;" xlink:title="functor&#39;">
<ellipse fill="#f070d1" stroke="black" cx="553" cy="-630.441" rx="48.7904" ry="18.3848"/>
<ellipse fill="none" stroke="black" cx="553" cy="-630.441" rx="52.7904" ry="22.3848"/>
<ellipse fill="none" stroke="black" cx="553" cy="-630.441" rx="56.7904" ry="26.3848"/>
<text text-anchor="middle" x="553" y="-626.841" font-family="Times Roman,serif" font-size="14.00">functor&#39;</text>
</a>
</g>
<!-- Law1_inverse -->
<g id="node8" class="node"><title>Law1_inverse</title>
<a xlink:href="Law1.html#inverse" xlink:title="inverse">
<ellipse fill="#f070d1" stroke="black" cx="897" cy="-630.441" rx="46.9493" ry="18.3848"/>
<ellipse fill="none" stroke="black" cx="897" cy="-630.441" rx="50.9133" ry="22.3848"/>
<ellipse fill="none" stroke="black" cx="897" cy="-630.441" rx="54.8773" ry="26.3848"/>
<text text-anchor="middle" x="897" y="-626.841" font-family="Times Roman,serif" font-size="14.00">inverse</text>
</a>
</g>
<!-- Law1_inverse_subproof0 -->
<g id="node9" class="node"><title>Law1_inverse_subproof0</title>
<a xlink:href="Law1.html#inverse_subproof0" xlink:title="inverse_subproof0">
<ellipse fill="#f070d1" stroke="black" cx="577" cy="-482.441" rx="101.116" ry="18.3848"/>
<text text-anchor="middle" x="577" y="-478.841" font-family="Times Roman,serif" font-size="14.00">inverse_subproof0</text>
</a>
</g>
<!-- Law1_inverse&#45;&gt;Law1_inverse_subproof0 -->
<g id="edge10" class="edge"><title>Law1_inverse&#45;&gt;Law1_inverse_subproof0</title>
<path fill="none" stroke="black" d="M856.216,-612.342C813.806,-593.439 745.554,-562.787 687,-535.441 665.445,-525.375 641.648,-513.949 621.719,-504.29"/>
<polygon fill="black" stroke="black" points="623.089,-501.064 612.565,-499.846 620.032,-507.362 623.089,-501.064"/>
</g>
<!-- Law1_inverse_subproof -->
<g id="node10" class="node"><title>Law1_inverse_subproof</title>
<a xlink:href="Law1.html#inverse_subproof" xlink:title="inverse_subproof">
<ellipse fill="#f070d1" stroke="black" cx="791" cy="-482.441" rx="94.7523" ry="18.3848"/>
<text text-anchor="middle" x="791" y="-478.841" font-family="Times Roman,serif" font-size="14.00">inverse_subproof</text>
</a>
</g>
<!-- Law1_inverse&#45;&gt;Law1_inverse_subproof -->
<g id="edge12" class="edge"><title>Law1_inverse&#45;&gt;Law1_inverse_subproof</title>
<path fill="none" stroke="black" d="M879.019,-605.335C859.938,-578.694 829.896,-536.749 810.32,-509.417"/>
<polygon fill="black" stroke="black" points="813.028,-507.186 804.36,-501.094 807.337,-511.262 813.028,-507.186"/>
</g>
<!-- Law1_inverse_morphism_of -->
<g id="node11" class="node"><title>Law1_inverse_morphism_of</title>
<a xlink:href="Law1.html#inverse_morphism_of" xlink:title="inverse_morphism_of">
<ellipse fill="#f070d1" stroke="black" cx="1018" cy="-482.441" rx="114.051" ry="18.3848"/>
<text text-anchor="middle" x="1018" y="-478.841" font-family="Times Roman,serif" font-size="14.00">inverse_morphism_of</text>
</a>
</g>
<!-- Law1_inverse&#45;&gt;Law1_inverse_morphism_of -->
<g id="edge14" class="edge"><title>Law1_inverse&#45;&gt;Law1_inverse_morphism_of</title>
<path fill="none" stroke="black" d="M917.253,-605.67C939.08,-578.972 973.698,-536.629 996.133,-509.188"/>
<polygon fill="black" stroke="black" points="999.056,-511.142 1002.68,-501.185 993.637,-506.711 999.056,-511.142"/>
</g>
<!-- Functors_inverse_subproof0 -->
<g id="node21" class="node"><title>Functors_inverse_subproof0</title>
<a xlink:href="Functors.html#inverse_subproof0" xlink:title="inverse_subproof0">
<ellipse fill="#facdef" stroke="black" cx="665" cy="-183.441" rx="101.116" ry="18.3848"/>
<text text-anchor="middle" x="665" y="-179.841" font-family="Times Roman,serif" font-size="14.00">inverse_subproof0</text>
</a>
</g>
<!-- Law1_inverse_subproof0&#45;&gt;Functors_inverse_subproof0 -->
<g id="edge16" class="edge"><title>Law1_inverse_subproof0&#45;&gt;Functors_inverse_subproof0</title>
<path fill="none" stroke="black" d="M626.594,-466.22C684.269,-446.233 774.026,-411.259 793,-381.441 813.997,-348.444 809.32,-328.985 793,-293.441 775.418,-255.149 737.199,-225.167 707.075,-206.242"/>
<polygon fill="black" stroke="black" points="708.779,-203.181 698.419,-200.963 705.135,-209.158 708.779,-203.181"/>
</g>
<!-- Functors_inverse_subproof -->
<g id="node22" class="node"><title>Functors_inverse_subproof</title>
<a xlink:href="Functors.html#inverse_subproof" xlink:title="inverse_subproof">
<ellipse fill="#facdef" stroke="black" cx="879" cy="-183.441" rx="94.7523" ry="18.3848"/>
<text text-anchor="middle" x="879" y="-179.841" font-family="Times Roman,serif" font-size="14.00">inverse_subproof</text>
</a>
</g>
<!-- Law1_inverse_subproof&#45;&gt;Functors_inverse_subproof -->
<g id="edge18" class="edge"><title>Law1_inverse_subproof&#45;&gt;Functors_inverse_subproof</title>
<path fill="none" stroke="black" d="M796.505,-463.738C811.444,-412.978 852.82,-272.392 870.649,-211.815"/>
<polygon fill="black" stroke="black" points="874.031,-212.72 873.497,-202.138 867.316,-210.743 874.031,-212.72"/>
</g>
<!-- Law1_functor -->
<g id="node12" class="node"><title>Law1_functor</title>
<a xlink:href="Law1.html#functor" xlink:title="functor">
<ellipse fill="#f070d1" stroke="black" cx="332" cy="-630.441" rx="46.2409" ry="18.3848"/>
<ellipse fill="none" stroke="black" cx="332" cy="-630.441" rx="50.2042" ry="22.3848"/>
<ellipse fill="none" stroke="black" cx="332" cy="-630.441" rx="54.1675" ry="26.3848"/>
<text text-anchor="middle" x="332" y="-626.841" font-family="Times Roman,serif" font-size="14.00">functor</text>
</a>
</g>
<!-- Law_helper -->
<g id="node14" class="node"><title>Law_helper</title>
<a xlink:href="Law.html#helper" xlink:title="helper">
<ellipse fill="#f070d1" stroke="black" cx="110" cy="-320.441" rx="41.9273" ry="18.3848"/>
<text text-anchor="middle" x="110" y="-316.841" font-family="Times Roman,serif" font-size="14.00">helper</text>
</a>
</g>
<!-- Law_law&#45;&gt;Law_helper -->
<g id="edge20" class="edge"><title>Law_law&#45;&gt;Law_helper</title>
<path fill="none" stroke="black" d="M160.572,-464.173C150.651,-435.976 131.536,-381.648 119.859,-348.46"/>
<polygon fill="black" stroke="black" points="123.113,-347.163 116.492,-338.892 116.509,-349.487 123.113,-347.163"/>
</g>
<!-- Functors_inverse -->
<g id="node20" class="node"><title>Functors_inverse</title>
<a xlink:href="Functors.html#inverse" xlink:title="inverse">
<ellipse fill="#f070d1" stroke="black" cx="641" cy="-320.441" rx="46.8775" ry="18.3848"/>
<text text-anchor="middle" x="641" y="-316.841" font-family="Times Roman,serif" font-size="14.00">inverse</text>
</a>
</g>
<!-- Law_law&#45;&gt;Functors_inverse -->
<g id="edge22" class="edge"><title>Law_law&#45;&gt;Functors_inverse</title>
<path fill="none" stroke="black" d="M193.819,-474.828C213.693,-469.26 241.471,-461.629 266,-455.441 407.122,-419.843 459.28,-454.77 585,-381.441 599.832,-372.79 613.014,-358.934 622.857,-346.612"/>
<polygon fill="black" stroke="black" points="625.832,-348.482 629.117,-338.409 620.268,-344.235 625.832,-348.482"/>
</g>
<!-- Functors_functor -->
<g id="node24" class="node"><title>Functors_functor</title>
<a xlink:href="Functors.html#functor" xlink:title="functor">
<ellipse fill="#f070d1" stroke="black" cx="398" cy="-320.441" rx="46.1672" ry="18.3848"/>
<text text-anchor="middle" x="398" y="-316.841" font-family="Times Roman,serif" font-size="14.00">functor</text>
</a>
</g>
<!-- Law_law&#45;&gt;Functors_functor -->
<g id="edge24" class="edge"><title>Law_law&#45;&gt;Functors_functor</title>
<path fill="none" stroke="black" d="M190.983,-471.689C226.316,-455.208 293.516,-421.378 343,-381.441 355.679,-371.208 367.997,-357.958 377.751,-346.421"/>
<polygon fill="black" stroke="black" points="380.709,-348.335 384.368,-338.392 375.307,-343.883 380.709,-348.335"/>
</g>
<!-- Law_helper&#45;&gt;Law_helper_subproof -->
<g id="edge26" class="edge"><title>Law_helper&#45;&gt;Law_helper_subproof</title>
<path fill="none" stroke="black" d="M109.452,-301.679C108.779,-278.621 107.629,-239.249 106.843,-212.322"/>
<polygon fill="black" stroke="black" points="110.332,-211.87 106.541,-201.977 103.335,-212.075 110.332,-211.87"/>
</g>
<!-- Functors_law_ -->
<g id="node16" class="node"><title>Functors_law_</title>
<a xlink:href="Functors.html#law&#39;" xlink:title="law&#39;">
<ellipse fill="#f070d1" stroke="black" cx="745" cy="-320.441" rx="31.1127" ry="18.3848"/>
<ellipse fill="none" stroke="black" cx="745" cy="-320.441" rx="35.1127" ry="22.3848"/>
<ellipse fill="none" stroke="black" cx="745" cy="-320.441" rx="39.1127" ry="26.3848"/>
<text text-anchor="middle" x="745" y="-316.841" font-family="Times Roman,serif" font-size="14.00">law&#39;</text>
</a>
</g>
<!-- Functors_inverse_ -->
<g id="node17" class="node"><title>Functors_inverse_</title>
<a xlink:href="Functors.html#inverse&#39;" xlink:title="inverse&#39;">
<ellipse fill="#f070d1" stroke="black" cx="277" cy="-320.441" rx="49.0671" ry="18.3848"/>
<ellipse fill="none" stroke="black" cx="277" cy="-320.441" rx="53.0323" ry="22.3848"/>
<ellipse fill="none" stroke="black" cx="277" cy="-320.441" rx="56.9975" ry="26.3848"/>
<text text-anchor="middle" x="277" y="-316.841" font-family="Times Roman,serif" font-size="14.00">inverse&#39;</text>
</a>
</g>
<!-- Functors_IsTerminalCategory_instance_0 -->
<g id="node19" class="node"><title>Functors_IsTerminalCategory_instance_0</title>
<a xlink:href="Functors.html#IsTerminalCategory_instance_0" xlink:title="IsTerminalCategory_instance_0">
<ellipse fill="#7fffd4" stroke="black" cx="383" cy="-183.441" rx="162.842" ry="18.3848"/>
<text text-anchor="middle" x="383" y="-179.841" font-family="Times Roman,serif" font-size="14.00">IsTerminalCategory_instance_0</text>
</a>
</g>
<!-- Functors_inverse_&#45;&gt;Functors_IsTerminalCategory_instance_0 -->
<g id="edge28" class="edge"><title>Functors_inverse_&#45;&gt;Functors_IsTerminalCategory_instance_0</title>
<path fill="none" stroke="black" d="M296.442,-295.314C315.048,-271.267 343.026,-235.106 362.103,-210.45"/>
<polygon fill="black" stroke="black" points="365.097,-212.299 368.449,-202.248 359.561,-208.015 365.097,-212.299"/>
</g>
<!-- Functors_functor_ -->
<g id="node18" class="node"><title>Functors_functor_</title>
<a xlink:href="Functors.html#functor&#39;" xlink:title="functor&#39;">
<ellipse fill="#f070d1" stroke="black" cx="519" cy="-320.441" rx="48.7904" ry="18.3848"/>
<ellipse fill="none" stroke="black" cx="519" cy="-320.441" rx="52.7904" ry="22.3848"/>
<ellipse fill="none" stroke="black" cx="519" cy="-320.441" rx="56.7904" ry="26.3848"/>
<text text-anchor="middle" x="519" y="-316.841" font-family="Times Roman,serif" font-size="14.00">functor&#39;</text>
</a>
</g>
<!-- Functors_inverse&#45;&gt;Functors_inverse_subproof0 -->
<g id="edge30" class="edge"><title>Functors_inverse&#45;&gt;Functors_inverse_subproof0</title>
<path fill="none" stroke="black" d="M644.237,-301.965C648.281,-278.882 655.244,-239.135 659.981,-212.092"/>
<polygon fill="black" stroke="black" points="663.46,-212.517 661.738,-202.063 656.565,-211.309 663.46,-212.517"/>
</g>
<!-- Functors_inverse&#45;&gt;Functors_inverse_subproof -->
<g id="edge32" class="edge"><title>Functors_inverse&#45;&gt;Functors_inverse_subproof</title>
<path fill="none" stroke="black" d="M667.839,-304.992C709.753,-280.865 790.971,-234.113 839.553,-206.148"/>
<polygon fill="black" stroke="black" points="841.599,-209.009 848.52,-200.987 838.107,-202.942 841.599,-209.009"/>
</g>
<!-- Functors_inverse_morphism_of -->
<g id="node23" class="node"><title>Functors_inverse_morphism_of</title>
<a xlink:href="Functors.html#inverse_morphism_of" xlink:title="inverse_morphism_of">
<ellipse fill="#f070d1" stroke="black" cx="762" cy="-58.4414" rx="114.051" ry="18.3848"/>
<text text-anchor="middle" x="762" y="-54.8414" font-family="Times Roman,serif" font-size="14.00">inverse_morphism_of</text>
</a>
</g>
<!-- Functors_inverse_subproof0&#45;&gt;Functors_inverse_morphism_of -->
<g id="edge34" class="edge"><title>Functors_inverse_subproof0&#45;&gt;Functors_inverse_morphism_of</title>
<path fill="none" stroke="black" d="M679.313,-164.997C695.718,-143.857 722.741,-109.033 741.406,-84.9799"/>
<polygon fill="black" stroke="black" points="744.263,-87.0074 747.629,-76.9613 738.733,-82.7159 744.263,-87.0074"/>
</g>
<!-- Functors_inverse_subproof&#45;&gt;Functors_inverse_morphism_of -->
<g id="edge36" class="edge"><title>Functors_inverse_subproof&#45;&gt;Functors_inverse_morphism_of</title>
<path fill="none" stroke="black" d="M861.736,-164.997C841.776,-143.672 808.783,-108.424 786.252,-84.3522"/>
<polygon fill="black" stroke="black" points="788.723,-81.8704 779.335,-76.9613 783.613,-86.6539 788.723,-81.8704"/>
</g>
</g>
</svg>
