<?xml version="1.0" encoding="UTF-8" standalone="no"?>
<!DOCTYPE svg PUBLIC "-//W3C//DTD SVG 1.1//EN"
 "http://www.w3.org/Graphics/SVG/1.1/DTD/svg11.dtd">
<!-- Generated by graphviz version 2.26.3 (20100126.1600)
 -->
<!-- Title: HoTT_categories_ExponentialLaws_Law4_Law4 Pages: 1 -->
<svg width="1366pt" height="687pt"
 viewBox="0.00 0.00 1366.00 687.00" xmlns="http://www.w3.org/2000/svg" xmlns:xlink="http://www.w3.org/1999/xlink">
<g id="graph1" class="graph" transform="scale(1 1) rotate(0) translate(4 683)">
<title>HoTT_categories_ExponentialLaws_Law4_Law4</title>
<polygon fill="white" stroke="white" points="-4,5 -4,-683 1363,-683 1363,5 -4,5"/>
<g id="graph2" class="cluster"><title>cluster_Law4</title>
<polygon fill="#ffffc3" stroke="black" points="8,-9.76978 8,-669.23 1350,-669.23 1350,-9.76978 8,-9.76978"/>
<text text-anchor="middle" x="35.5" y="-652.63" font-family="Times Roman,serif" font-size="14.00">Law4</text>
</g>
<!-- Law4_inverse -->
<g id="node1" class="node"><title>Law4_inverse</title>
<a xlink:href="Law4.html#inverse" xlink:title="inverse">
<ellipse fill="#f070d1" stroke="black" cx="1001" cy="-594.77" rx="46.9493" ry="18.3848"/>
<ellipse fill="none" stroke="black" cx="1001" cy="-594.77" rx="50.9133" ry="22.3848"/>
<ellipse fill="none" stroke="black" cx="1001" cy="-594.77" rx="54.8773" ry="26.3848"/>
<text text-anchor="middle" x="1001" y="-591.17" font-family="Times Roman,serif" font-size="14.00">inverse</text>
</a>
</g>
<!-- Law4_inverse_subproof0 -->
<g id="node2" class="node"><title>Law4_inverse_subproof0</title>
<a xlink:href="Law4.html#inverse_subproof0" xlink:title="inverse_subproof0">
<ellipse fill="#f070d1" stroke="black" cx="787" cy="-494.77" rx="101.116" ry="18.3848"/>
<text text-anchor="middle" x="787" y="-491.17" font-family="Times Roman,serif" font-size="14.00">inverse_subproof0</text>
</a>
</g>
<!-- Law4_inverse&#45;&gt;Law4_inverse_subproof0 -->
<g id="edge2" class="edge"><title>Law4_inverse&#45;&gt;Law4_inverse_subproof0</title>
<path fill="none" stroke="black" d="M961.5,-576.312C925.316,-559.403 871.726,-534.361 833.492,-516.495"/>
<polygon fill="black" stroke="black" points="834.663,-513.179 824.122,-512.116 831.7,-519.521 834.663,-513.179"/>
</g>
<!-- Law4_inverse_subproof -->
<g id="node3" class="node"><title>Law4_inverse_subproof</title>
<a xlink:href="Law4.html#inverse_subproof" xlink:title="inverse_subproof">
<ellipse fill="#f070d1" stroke="black" cx="1001" cy="-494.77" rx="94.7523" ry="18.3848"/>
<text text-anchor="middle" x="1001" y="-491.17" font-family="Times Roman,serif" font-size="14.00">inverse_subproof</text>
</a>
</g>
<!-- Law4_inverse&#45;&gt;Law4_inverse_subproof -->
<g id="edge4" class="edge"><title>Law4_inverse&#45;&gt;Law4_inverse_subproof</title>
<path fill="none" stroke="black" d="M1001,-568.234C1001,-554.494 1001,-537.696 1001,-523.632"/>
<polygon fill="black" stroke="black" points="1004.5,-523.507 1001,-513.507 997.5,-523.507 1004.5,-523.507"/>
</g>
<!-- Law4_inverse_morphism_of -->
<g id="node4" class="node"><title>Law4_inverse_morphism_of</title>
<a xlink:href="Law4.html#inverse_morphism_of" xlink:title="inverse_morphism_of">
<ellipse fill="#f070d1" stroke="black" cx="1228" cy="-494.77" rx="114.051" ry="18.3848"/>
<text text-anchor="middle" x="1228" y="-491.17" font-family="Times Roman,serif" font-size="14.00">inverse_morphism_of</text>
</a>
</g>
<!-- Law4_inverse&#45;&gt;Law4_inverse_morphism_of -->
<g id="edge6" class="edge"><title>Law4_inverse&#45;&gt;Law4_inverse_morphism_of</title>
<path fill="none" stroke="black" d="M1041.85,-576.776C1080.33,-559.822 1138.05,-534.396 1179,-516.357"/>
<polygon fill="black" stroke="black" points="1180.5,-519.518 1188.24,-512.283 1177.68,-513.112 1180.5,-519.518"/>
</g>
<!-- Law4_inverse_morphism_of_subproof -->
<g id="node5" class="node"><title>Law4_inverse_morphism_of_subproof</title>
<a xlink:href="Law4.html#inverse_morphism_of_subproof" xlink:title="inverse_morphism_of_subproof">
<ellipse fill="#f070d1" stroke="black" cx="776" cy="-403.77" rx="161.927" ry="18.3848"/>
<text text-anchor="middle" x="776" y="-400.17" font-family="Times Roman,serif" font-size="14.00">inverse_morphism_of_subproof</text>
</a>
</g>
<!-- Law4_inverse_morphism_of&#45;&gt;Law4_inverse_morphism_of_subproof -->
<g id="edge8" class="edge"><title>Law4_inverse_morphism_of&#45;&gt;Law4_inverse_morphism_of_subproof</title>
<path fill="none" stroke="black" d="M1156.38,-480.351C1077.72,-464.514 951.269,-439.056 865.977,-421.885"/>
<polygon fill="black" stroke="black" points="866.539,-418.428 856.045,-419.885 865.157,-425.29 866.539,-418.428"/>
</g>
<!-- Law4_inverse_morphism_of_components_of -->
<g id="node6" class="node"><title>Law4_inverse_morphism_of_components_of</title>
<a xlink:href="Law4.html#inverse_morphism_of_components_of" xlink:title="inverse_morphism_of_components_of">
<ellipse fill="#f070d1" stroke="black" cx="1149" cy="-403.77" rx="193.04" ry="18.3848"/>
<text text-anchor="middle" x="1149" y="-400.17" font-family="Times Roman,serif" font-size="14.00">inverse_morphism_of_components_of</text>
</a>
</g>
<!-- Law4_inverse_morphism_of&#45;&gt;Law4_inverse_morphism_of_components_of -->
<g id="edge10" class="edge"><title>Law4_inverse_morphism_of&#45;&gt;Law4_inverse_morphism_of_components_of</title>
<path fill="none" stroke="black" d="M1212.01,-476.355C1200.52,-463.121 1184.86,-445.081 1172.03,-430.297"/>
<polygon fill="black" stroke="black" points="1174.43,-427.727 1165.23,-422.47 1169.15,-432.316 1174.43,-427.727"/>
</g>
<!-- Law4_inverse_morphism_of_components_of_subproof -->
<g id="node7" class="node"><title>Law4_inverse_morphism_of_components_of_subproof</title>
<a xlink:href="Law4.html#inverse_morphism_of_components_of_subproof" xlink:title="inverse_morphism_of_components_of_subproof">
<ellipse fill="#f070d1" stroke="black" cx="876" cy="-313.77" rx="239.916" ry="18.3848"/>
<text text-anchor="middle" x="876" y="-310.17" font-family="Times Roman,serif" font-size="14.00">inverse_morphism_of_components_of_subproof</text>
</a>
</g>
<!-- Law4_inverse_morphism_of_components_of&#45;&gt;Law4_inverse_morphism_of_components_of_subproof -->
<g id="edge12" class="edge"><title>Law4_inverse_morphism_of_components_of&#45;&gt;Law4_inverse_morphism_of_components_of_subproof</title>
<path fill="none" stroke="black" d="M1095.06,-385.989C1050.67,-371.354 987.618,-350.567 940.548,-335.049"/>
<polygon fill="black" stroke="black" points="941.351,-331.629 930.758,-331.822 939.16,-338.277 941.351,-331.629"/>
</g>
<!-- Law4_inverse_object_of -->
<g id="node8" class="node"><title>Law4_inverse_object_of</title>
<a xlink:href="Law4.html#inverse_object_of" xlink:title="inverse_object_of">
<ellipse fill="#f070d1" stroke="black" cx="1230" cy="-313.77" rx="96.1665" ry="18.3848"/>
<text text-anchor="middle" x="1230" y="-310.17" font-family="Times Roman,serif" font-size="14.00">inverse_object_of</text>
</a>
</g>
<!-- Law4_inverse_morphism_of_components_of&#45;&gt;Law4_inverse_object_of -->
<g id="edge14" class="edge"><title>Law4_inverse_morphism_of_components_of&#45;&gt;Law4_inverse_object_of</title>
<path fill="none" stroke="black" d="M1165.78,-385.122C1177.59,-372.002 1193.55,-354.268 1206.61,-339.763"/>
<polygon fill="black" stroke="black" points="1209.43,-341.86 1213.52,-332.086 1204.22,-337.178 1209.43,-341.86"/>
</g>
<!-- Law4_inverse_object_of_subproof0 -->
<g id="node9" class="node"><title>Law4_inverse_object_of_subproof0</title>
<a xlink:href="Law4.html#inverse_object_of_subproof0" xlink:title="inverse_object_of_subproof0">
<ellipse fill="#f070d1" stroke="black" cx="544" cy="-223.77" rx="149.907" ry="18.3848"/>
<text text-anchor="middle" x="544" y="-220.17" font-family="Times Roman,serif" font-size="14.00">inverse_object_of_subproof0</text>
</a>
</g>
<!-- Law4_inverse_object_of&#45;&gt;Law4_inverse_object_of_subproof0 -->
<g id="edge16" class="edge"><title>Law4_inverse_object_of&#45;&gt;Law4_inverse_object_of_subproof0</title>
<path fill="none" stroke="black" d="M1161.47,-300.784C1149.34,-298.653 1136.81,-296.559 1125,-294.77 1102.41,-291.349 824.775,-257.688 661.621,-237.968"/>
<polygon fill="black" stroke="black" points="661.874,-234.473 651.527,-236.748 661.035,-241.423 661.874,-234.473"/>
</g>
<!-- Law4_inverse_object_of_subproof -->
<g id="node10" class="node"><title>Law4_inverse_object_of_subproof</title>
<a xlink:href="Law4.html#inverse_object_of_subproof" xlink:title="inverse_object_of_subproof">
<ellipse fill="#f070d1" stroke="black" cx="855" cy="-223.77" rx="143.043" ry="18.3848"/>
<text text-anchor="middle" x="855" y="-220.17" font-family="Times Roman,serif" font-size="14.00">inverse_object_of_subproof</text>
</a>
</g>
<!-- Law4_inverse_object_of&#45;&gt;Law4_inverse_object_of_subproof -->
<g id="edge18" class="edge"><title>Law4_inverse_object_of&#45;&gt;Law4_inverse_object_of_subproof</title>
<path fill="none" stroke="black" d="M1169.75,-299.31C1105.52,-283.894 1003.56,-259.425 933.183,-242.534"/>
<polygon fill="black" stroke="black" points="933.578,-239.029 923.037,-240.099 931.944,-245.836 933.578,-239.029"/>
</g>
<!-- Law4_inverse_object_of_morphism_of -->
<g id="node11" class="node"><title>Law4_inverse_object_of_morphism_of</title>
<a xlink:href="Law4.html#inverse_object_of_morphism_of" xlink:title="inverse_object_of_morphism_of">
<ellipse fill="#f070d1" stroke="black" cx="1179" cy="-223.77" rx="162.842" ry="18.3848"/>
<text text-anchor="middle" x="1179" y="-220.17" font-family="Times Roman,serif" font-size="14.00">inverse_object_of_morphism_of</text>
</a>
</g>
<!-- Law4_inverse_object_of&#45;&gt;Law4_inverse_object_of_morphism_of -->
<g id="edge20" class="edge"><title>Law4_inverse_object_of&#45;&gt;Law4_inverse_object_of_morphism_of</title>
<path fill="none" stroke="black" d="M1219.43,-295.122C1212.25,-282.451 1202.63,-265.477 1194.58,-251.263"/>
<polygon fill="black" stroke="black" points="1197.53,-249.369 1189.55,-242.394 1191.44,-252.82 1197.53,-249.369"/>
</g>
<!-- Law4_inverse_object_of_morphism_of_subproof -->
<g id="node12" class="node"><title>Law4_inverse_object_of_morphism_of_subproof</title>
<a xlink:href="Law4.html#inverse_object_of_morphism_of_subproof" xlink:title="inverse_object_of_morphism_of_subproof">
<ellipse fill="#f070d1" stroke="black" cx="792" cy="-132.77" rx="210.217" ry="18.3848"/>
<text text-anchor="middle" x="792" y="-129.17" font-family="Times Roman,serif" font-size="14.00">inverse_object_of_morphism_of_subproof</text>
</a>
</g>
<!-- Law4_inverse_object_of_morphism_of&#45;&gt;Law4_inverse_object_of_morphism_of_subproof -->
<g id="edge22" class="edge"><title>Law4_inverse_object_of_morphism_of&#45;&gt;Law4_inverse_object_of_morphism_of_subproof</title>
<path fill="none" stroke="black" d="M1108.02,-207.079C1042.5,-191.674 945.158,-168.784 875.841,-152.484"/>
<polygon fill="black" stroke="black" points="876.36,-149.011 865.824,-150.129 874.757,-155.825 876.36,-149.011"/>
</g>
<!-- Law4_inverse_object_of_object_of -->
<g id="node13" class="node"><title>Law4_inverse_object_of_object_of</title>
<a xlink:href="Law4.html#inverse_object_of_object_of" xlink:title="inverse_object_of_object_of">
<ellipse fill="#f070d1" stroke="black" cx="1165" cy="-132.77" rx="144.957" ry="18.3848"/>
<text text-anchor="middle" x="1165" y="-129.17" font-family="Times Roman,serif" font-size="14.00">inverse_object_of_object_of</text>
</a>
</g>
<!-- Law4_inverse_object_of_morphism_of&#45;&gt;Law4_inverse_object_of_object_of -->
<g id="edge24" class="edge"><title>Law4_inverse_object_of_morphism_of&#45;&gt;Law4_inverse_object_of_object_of</title>
<path fill="none" stroke="black" d="M1176.1,-204.915C1174.17,-192.386 1171.6,-175.696 1169.42,-161.525"/>
<polygon fill="black" stroke="black" points="1172.83,-160.641 1167.85,-151.29 1165.91,-161.705 1172.83,-160.641"/>
</g>
<!-- Law4_inverse_object_of_object_of_subproof0 -->
<g id="node14" class="node"><title>Law4_inverse_object_of_object_of_subproof0</title>
<a xlink:href="Law4.html#inverse_object_of_object_of_subproof0" xlink:title="inverse_object_of_object_of_subproof0">
<ellipse fill="#f070d1" stroke="black" cx="742" cy="-42.7698" rx="198.197" ry="18.3848"/>
<text text-anchor="middle" x="742" y="-39.1698" font-family="Times Roman,serif" font-size="14.00">inverse_object_of_object_of_subproof0</text>
</a>
</g>
<!-- Law4_inverse_object_of_object_of&#45;&gt;Law4_inverse_object_of_object_of_subproof0 -->
<g id="edge26" class="edge"><title>Law4_inverse_object_of_object_of&#45;&gt;Law4_inverse_object_of_object_of_subproof0</title>
<path fill="none" stroke="black" d="M1090.35,-116.887C1018.17,-101.529 908.718,-78.2418 831.809,-61.878"/>
<polygon fill="black" stroke="black" points="832.162,-58.3749 821.652,-59.7171 830.705,-65.2216 832.162,-58.3749"/>
</g>
<!-- Law4_inverse_object_of_object_of_subproof -->
<g id="node15" class="node"><title>Law4_inverse_object_of_object_of_subproof</title>
<a xlink:href="Law4.html#inverse_object_of_object_of_subproof" xlink:title="inverse_object_of_object_of_subproof">
<ellipse fill="#f070d1" stroke="black" cx="1150" cy="-42.7698" rx="191.833" ry="18.3848"/>
<text text-anchor="middle" x="1150" y="-39.1698" font-family="Times Roman,serif" font-size="14.00">inverse_object_of_object_of_subproof</text>
</a>
</g>
<!-- Law4_inverse_object_of_object_of&#45;&gt;Law4_inverse_object_of_object_of_subproof -->
<g id="edge28" class="edge"><title>Law4_inverse_object_of_object_of&#45;&gt;Law4_inverse_object_of_object_of_subproof</title>
<path fill="none" stroke="black" d="M1161.89,-114.122C1159.84,-101.813 1157.11,-85.443 1154.79,-71.4877"/>
<polygon fill="black" stroke="black" points="1158.2,-70.6825 1153.1,-61.394 1151.3,-71.8333 1158.2,-70.6825"/>
</g>
<!-- Law4_functor -->
<g id="node16" class="node"><title>Law4_functor</title>
<a xlink:href="Law4.html#functor" xlink:title="functor">
<ellipse fill="#f070d1" stroke="black" cx="328" cy="-594.77" rx="46.2409" ry="18.3848"/>
<ellipse fill="none" stroke="black" cx="328" cy="-594.77" rx="50.2042" ry="22.3848"/>
<ellipse fill="none" stroke="black" cx="328" cy="-594.77" rx="54.1675" ry="26.3848"/>
<text text-anchor="middle" x="328" y="-591.17" font-family="Times Roman,serif" font-size="14.00">functor</text>
</a>
</g>
<!-- Law4_functor_subproof0 -->
<g id="node17" class="node"><title>Law4_functor_subproof0</title>
<a xlink:href="Law4.html#functor_subproof0" xlink:title="functor_subproof0">
<ellipse fill="#f070d1" stroke="black" cx="116" cy="-494.77" rx="99.9096" ry="18.3848"/>
<text text-anchor="middle" x="116" y="-491.17" font-family="Times Roman,serif" font-size="14.00">functor_subproof0</text>
</a>
</g>
<!-- Law4_functor&#45;&gt;Law4_functor_subproof0 -->
<g id="edge30" class="edge"><title>Law4_functor&#45;&gt;Law4_functor_subproof0</title>
<path fill="none" stroke="black" d="M288.621,-576.195C252.745,-559.272 199.746,-534.273 161.949,-516.444"/>
<polygon fill="black" stroke="black" points="163.224,-513.175 152.686,-512.075 160.238,-519.506 163.224,-513.175"/>
</g>
<!-- Law4_functor_subproof -->
<g id="node18" class="node"><title>Law4_functor_subproof</title>
<a xlink:href="Law4.html#functor_subproof" xlink:title="functor_subproof">
<ellipse fill="#f070d1" stroke="black" cx="328" cy="-494.77" rx="94.0452" ry="18.3848"/>
<text text-anchor="middle" x="328" y="-491.17" font-family="Times Roman,serif" font-size="14.00">functor_subproof</text>
</a>
</g>
<!-- Law4_functor&#45;&gt;Law4_functor_subproof -->
<g id="edge32" class="edge"><title>Law4_functor&#45;&gt;Law4_functor_subproof</title>
<path fill="none" stroke="black" d="M328,-568.234C328,-554.494 328,-537.696 328,-523.632"/>
<polygon fill="black" stroke="black" points="331.5,-523.507 328,-513.507 324.5,-523.507 331.5,-523.507"/>
</g>
<!-- Law4_functor_morphism_of -->
<g id="node19" class="node"><title>Law4_functor_morphism_of</title>
<a xlink:href="Law4.html#functor_morphism_of" xlink:title="functor_morphism_of">
<ellipse fill="#f070d1" stroke="black" cx="554" cy="-494.77" rx="113.844" ry="18.3848"/>
<text text-anchor="middle" x="554" y="-491.17" font-family="Times Roman,serif" font-size="14.00">functor_morphism_of</text>
</a>
</g>
<!-- Law4_functor&#45;&gt;Law4_functor_morphism_of -->
<g id="edge34" class="edge"><title>Law4_functor&#45;&gt;Law4_functor_morphism_of</title>
<path fill="none" stroke="black" d="M368.144,-577.007C406.506,-560.032 464.398,-534.417 505.362,-516.291"/>
<polygon fill="black" stroke="black" points="506.88,-519.447 514.609,-512.2 504.048,-513.045 506.88,-519.447"/>
</g>
<!-- Law4_functor_morphism_of_subproof -->
<g id="node20" class="node"><title>Law4_functor_morphism_of_subproof</title>
<a xlink:href="Law4.html#functor_morphism_of_subproof" xlink:title="functor_morphism_of_subproof">
<ellipse fill="#f070d1" stroke="black" cx="214" cy="-403.77" rx="161.22" ry="18.3848"/>
<text text-anchor="middle" x="214" y="-400.17" font-family="Times Roman,serif" font-size="14.00">functor_morphism_of_subproof</text>
</a>
</g>
<!-- Law4_functor_morphism_of&#45;&gt;Law4_functor_morphism_of_subproof -->
<g id="edge36" class="edge"><title>Law4_functor_morphism_of&#45;&gt;Law4_functor_morphism_of_subproof</title>
<path fill="none" stroke="black" d="M494.777,-478.919C437.166,-463.5 349.493,-440.034 287.466,-423.433"/>
<polygon fill="black" stroke="black" points="288.304,-420.034 277.739,-420.829 286.494,-426.796 288.304,-420.034"/>
</g>
<!-- Law4_functor_object_of -->
<g id="node21" class="node"><title>Law4_functor_object_of</title>
<a xlink:href="Law4.html#functor_object_of" xlink:title="functor_object_of">
<ellipse fill="#f070d1" stroke="black" cx="488" cy="-403.77" rx="94.9596" ry="18.3848"/>
<text text-anchor="middle" x="488" y="-400.17" font-family="Times Roman,serif" font-size="14.00">functor_object_of</text>
</a>
</g>
<!-- Law4_functor_morphism_of&#45;&gt;Law4_functor_object_of -->
<g id="edge38" class="edge"><title>Law4_functor_morphism_of&#45;&gt;Law4_functor_object_of</title>
<path fill="none" stroke="black" d="M540.644,-476.355C531.072,-463.157 518.033,-445.179 507.327,-430.417"/>
<polygon fill="black" stroke="black" points="510.041,-428.198 501.336,-422.158 504.374,-432.308 510.041,-428.198"/>
</g>
<!-- Law4_functor_object_of_subproof0 -->
<g id="node22" class="node"><title>Law4_functor_object_of_subproof0</title>
<a xlink:href="Law4.html#functor_object_of_subproof0" xlink:title="functor_object_of_subproof0">
<ellipse fill="#f070d1" stroke="black" cx="165" cy="-313.77" rx="149.2" ry="18.3848"/>
<text text-anchor="middle" x="165" y="-310.17" font-family="Times Roman,serif" font-size="14.00">functor_object_of_subproof0</text>
</a>
</g>
<!-- Law4_functor_object_of&#45;&gt;Law4_functor_object_of_subproof0 -->
<g id="edge40" class="edge"><title>Law4_functor_object_of&#45;&gt;Law4_functor_object_of_subproof0</title>
<path fill="none" stroke="black" d="M433.573,-388.604C379.074,-373.419 294.968,-349.984 235.415,-333.39"/>
<polygon fill="black" stroke="black" points="236.279,-329.998 225.706,-330.685 234.4,-336.741 236.279,-329.998"/>
</g>
<!-- Law4_functor_object_of_subproof -->
<g id="node23" class="node"><title>Law4_functor_object_of_subproof</title>
<a xlink:href="Law4.html#functor_object_of_subproof" xlink:title="functor_object_of_subproof">
<ellipse fill="#f070d1" stroke="black" cx="475" cy="-313.77" rx="142.836" ry="18.3848"/>
<text text-anchor="middle" x="475" y="-310.17" font-family="Times Roman,serif" font-size="14.00">functor_object_of_subproof</text>
</a>
</g>
<!-- Law4_functor_object_of&#45;&gt;Law4_functor_object_of_subproof -->
<g id="edge42" class="edge"><title>Law4_functor_object_of&#45;&gt;Law4_functor_object_of_subproof</title>
<path fill="none" stroke="black" d="M485.306,-385.122C483.528,-372.813 481.164,-356.443 479.148,-342.488"/>
<polygon fill="black" stroke="black" points="482.584,-341.791 477.69,-332.394 475.656,-342.792 482.584,-341.791"/>
</g>
</g>
</svg>
