<?xml version="1.0" encoding="UTF-8" standalone="no"?>
<!DOCTYPE svg PUBLIC "-//W3C//DTD SVG 1.1//EN"
 "http://www.w3.org/Graphics/SVG/1.1/DTD/svg11.dtd">
<!-- Generated by graphviz version 2.39.20141222.0545 (20141222.0545)
 -->
<!-- Title: HoTT_Categories_Functor_Prod Pages: 1 -->
<svg width="3707pt" height="1858pt"
 viewBox="0.00 0.00 3707.00 1857.50" xmlns="http://www.w3.org/2000/svg" xmlns:xlink="http://www.w3.org/1999/xlink">
<g id="graph0" class="graph" transform="scale(1 1) rotate(0) translate(4 1853.5)">
<title>HoTT_Categories_Functor_Prod</title>
<polygon fill="white" stroke="transparent" points="-4,4 -4,-1853.5 3703,-1853.5 3703,4 -4,4"/>
<g id="clust1" class="cluster"><title>cluster_Universal</title>
<polygon fill="#ffffc3" stroke="black" points="1032,-317.263 1032,-1492.58 1463,-1492.58 1463,-317.263 1032,-317.263"/>
<text text-anchor="middle" x="1066.5" y="-1477.38" font-family="Times,serif" font-size="14.00">Universal</text>
</g>
<g id="clust2" class="cluster"><title>cluster_Functorial</title>
<polygon fill="#ffffc3" stroke="black" points="3307,-645.342 3307,-1492.58 3691,-1492.58 3691,-645.342 3307,-645.342"/>
<text text-anchor="middle" x="3343" y="-1477.38" font-family="Times,serif" font-size="14.00">Functorial</text>
</g>
<g id="clust3" class="cluster"><title>cluster_Prod</title>
<polygon fill="#ffffc3" stroke="black" points="1471,-904.921 1471,-1820.66 3155,-1820.66 3155,-904.921 1471,-904.921"/>
<text text-anchor="middle" x="1492" y="-1805.46" font-family="Times,serif" font-size="14.00">Prod</text>
</g>
<g id="clust4" class="cluster"><title>cluster_Core</title>
<polygon fill="#ffffc3" stroke="black" points="8,-28.8421 8,-616.5 1024,-616.5 1024,-28.8421 8,-28.8421"/>
<text text-anchor="middle" x="29.5" y="-601.3" font-family="Times,serif" font-size="14.00">Core</text>
</g>
<!-- Universal_path_prod -->
<g id="node1" class="node"><title>Universal_path_prod</title>
<g id="a_node1"><a xlink:href="Universal.html#path_prod" xlink:title="path_prod">
<ellipse fill="#f070d1" stroke="black" cx="1094" cy="-1286.84" rx="46.2706" ry="18"/>
<ellipse fill="none" stroke="black" cx="1094" cy="-1286.84" rx="50.2814" ry="22"/>
<ellipse fill="none" stroke="black" cx="1094" cy="-1286.84" rx="54.2922" ry="26"/>
<text text-anchor="middle" x="1094" y="-1283.14" font-family="Times,serif" font-size="14.00">path_prod</text>
</a>
</g>
</g>
<!-- Universal_unique -->
<g id="node3" class="node"><title>Universal_unique</title>
<g id="a_node3"><a xlink:href="Universal.html#unique" xlink:title="unique">
<ellipse fill="#f070d1" stroke="black" cx="1074" cy="-998.842" rx="34.394" ry="18"/>
<text text-anchor="middle" x="1074" y="-995.142" font-family="Times,serif" font-size="14.00">unique</text>
</a>
</g>
</g>
<!-- Universal_path_prod&#45;&gt;Universal_unique -->
<g id="edge1" class="edge"><title>Universal_path_prod&#45;&gt;Universal_unique</title>
<path fill="none" stroke="black" d="M1092.19,-1260.78C1088.44,-1206.77 1079.85,-1083.06 1075.97,-1027.17"/>
<polygon fill="black" stroke="black" points="1079.44,-1026.67 1075.26,-1016.94 1072.46,-1027.16 1079.44,-1026.67"/>
</g>
<!-- Universal_contr_prod_type -->
<g id="node2" class="node"><title>Universal_contr_prod_type</title>
<g id="a_node2"><a xlink:href="Universal.html#contr_prod_type" xlink:title="contr_prod_type">
<ellipse fill="#facdef" stroke="black" cx="1307" cy="-1286.84" rx="68.7879" ry="18"/>
<text text-anchor="middle" x="1307" y="-1283.14" font-family="Times,serif" font-size="14.00">contr_prod_type</text>
</a>
</g>
</g>
<!-- Universal_contr_prod_type&#45;&gt;Universal_unique -->
<g id="edge2" class="edge"><title>Universal_contr_prod_type&#45;&gt;Universal_unique</title>
<path fill="none" stroke="black" d="M1292.42,-1268.83C1252.34,-1219.28 1140.37,-1080.88 1094.25,-1023.87"/>
<polygon fill="black" stroke="black" points="1096.7,-1021.33 1087.69,-1015.76 1091.25,-1025.73 1096.7,-1021.33"/>
</g>
<!-- Universal_compose_snd_prod -->
<g id="node6" class="node"><title>Universal_compose_snd_prod</title>
<g id="a_node6"><a xlink:href="Universal.html#compose_snd_prod" xlink:title="compose_snd_prod">
<ellipse fill="#f070d1" stroke="black" cx="1206" cy="-998.842" rx="79.0865" ry="18"/>
<text text-anchor="middle" x="1206" y="-995.142" font-family="Times,serif" font-size="14.00">compose_snd_prod</text>
</a>
</g>
</g>
<!-- Universal_contr_prod_type&#45;&gt;Universal_compose_snd_prod -->
<g id="edge3" class="edge"><title>Universal_contr_prod_type&#45;&gt;Universal_compose_snd_prod</title>
<path fill="none" stroke="black" d="M1300.68,-1268.83C1283.57,-1220.04 1236.24,-1085.08 1215.71,-1026.53"/>
<polygon fill="black" stroke="black" points="1218.93,-1025.13 1212.32,-1016.85 1212.32,-1027.45 1218.93,-1025.13"/>
</g>
<!-- Universal_compose_fst_prod -->
<g id="node7" class="node"><title>Universal_compose_fst_prod</title>
<g id="a_node7"><a xlink:href="Universal.html#compose_fst_prod" xlink:title="compose_fst_prod">
<ellipse fill="#f070d1" stroke="black" cx="1379" cy="-998.842" rx="76.0865" ry="18"/>
<text text-anchor="middle" x="1379" y="-995.142" font-family="Times,serif" font-size="14.00">compose_fst_prod</text>
</a>
</g>
</g>
<!-- Universal_contr_prod_type&#45;&gt;Universal_compose_fst_prod -->
<g id="edge4" class="edge"><title>Universal_contr_prod_type&#45;&gt;Universal_compose_fst_prod</title>
<path fill="none" stroke="black" d="M1311.5,-1268.83C1323.68,-1220.14 1357.3,-1085.64 1371.99,-1026.9"/>
<polygon fill="black" stroke="black" points="1375.47,-1027.4 1374.5,-1016.85 1368.68,-1025.7 1375.47,-1027.4"/>
</g>
<!-- Universal_unique_helper2 -->
<g id="node4" class="node"><title>Universal_unique_helper2</title>
<g id="a_node4"><a xlink:href="Universal.html#unique_helper2" xlink:title="unique_helper2">
<ellipse fill="#facdef" stroke="black" cx="1106" cy="-738.842" rx="65.7887" ry="18"/>
<text text-anchor="middle" x="1106" y="-735.142" font-family="Times,serif" font-size="14.00">unique_helper2</text>
</a>
</g>
</g>
<!-- Universal_unique&#45;&gt;Universal_unique_helper2 -->
<g id="edge5" class="edge"><title>Universal_unique&#45;&gt;Universal_unique_helper2</title>
<path fill="none" stroke="black" d="M1076.25,-980.559C1081.75,-935.898 1095.89,-820.987 1102.5,-767.288"/>
<polygon fill="black" stroke="black" points="1106,-767.457 1103.75,-757.105 1099.06,-766.602 1106,-767.457"/>
</g>
<!-- Core_prod -->
<g id="node40" class="node"><title>Core_prod</title>
<g id="a_node40"><a xlink:href="Core.html#prod" xlink:title="prod">
<ellipse fill="#f070d1" stroke="black" cx="989" cy="-122.842" rx="27" ry="18"/>
<text text-anchor="middle" x="989" y="-119.142" font-family="Times,serif" font-size="14.00">prod</text>
</a>
</g>
</g>
<!-- Universal_unique&#45;&gt;Core_prod -->
<g id="edge6" class="edge"><title>Universal_unique&#45;&gt;Core_prod</title>
<path fill="none" stroke="black" d="M1070.08,-980.73C1061.55,-940.612 1041.25,-841.138 1031,-756.842 1002.69,-524.002 992.432,-240.567 989.77,-151.216"/>
<polygon fill="black" stroke="black" points="993.264,-150.961 989.476,-141.067 986.267,-151.164 993.264,-150.961"/>
</g>
<!-- Universal_unique_helper -->
<g id="node5" class="node"><title>Universal_unique_helper</title>
<g id="a_node5"><a xlink:href="Universal.html#unique_helper" xlink:title="unique_helper">
<ellipse fill="#f070d1" stroke="black" cx="1101" cy="-410.842" rx="61.1893" ry="18"/>
<text text-anchor="middle" x="1101" y="-407.142" font-family="Times,serif" font-size="14.00">unique_helper</text>
</a>
</g>
</g>
<!-- Universal_unique_helper2&#45;&gt;Universal_unique_helper -->
<g id="edge7" class="edge"><title>Universal_unique_helper2&#45;&gt;Universal_unique_helper</title>
<path fill="none" stroke="black" d="M1105.72,-720.74C1104.9,-666.418 1102.43,-504.516 1101.43,-438.914"/>
<polygon fill="black" stroke="black" points="1104.93,-438.834 1101.28,-428.888 1097.93,-438.94 1104.93,-438.834"/>
</g>
<!-- Core_snd -->
<g id="node41" class="node"><title>Core_snd</title>
<g id="a_node41"><a xlink:href="Core.html#snd" xlink:title="snd">
<ellipse fill="#f070d1" stroke="black" cx="845" cy="-122.842" rx="27" ry="18"/>
<text text-anchor="middle" x="845" y="-119.142" font-family="Times,serif" font-size="14.00">snd</text>
</a>
</g>
</g>
<!-- Universal_unique_helper&#45;&gt;Core_snd -->
<g id="edge8" class="edge"><title>Universal_unique_helper&#45;&gt;Core_snd</title>
<path fill="none" stroke="black" d="M1085.37,-393.26C1041.19,-343.556 915.368,-202.006 865.613,-146.031"/>
<polygon fill="black" stroke="black" points="868.102,-143.564 858.842,-138.415 862.87,-148.214 868.102,-143.564"/>
</g>
<!-- Core_fst -->
<g id="node42" class="node"><title>Core_fst</title>
<g id="a_node42"><a xlink:href="Core.html#fst" xlink:title="fst">
<ellipse fill="#f070d1" stroke="black" cx="917" cy="-122.842" rx="27" ry="18"/>
<text text-anchor="middle" x="917" y="-119.142" font-family="Times,serif" font-size="14.00">fst</text>
</a>
</g>
</g>
<!-- Universal_unique_helper&#45;&gt;Core_fst -->
<g id="edge9" class="edge"><title>Universal_unique_helper&#45;&gt;Core_fst</title>
<path fill="none" stroke="black" d="M1089.49,-392.826C1057.9,-343.381 969.776,-205.448 933.216,-148.223"/>
<polygon fill="black" stroke="black" points="936.141,-146.3 927.807,-139.758 930.242,-150.069 936.141,-146.3"/>
</g>
<!-- Universal_compose_snd_prod&#45;&gt;Core_prod -->
<g id="edge10" class="edge"><title>Universal_compose_snd_prod&#45;&gt;Core_prod</title>
<path fill="none" stroke="black" d="M1210.8,-980.716C1229.97,-904.855 1296.12,-606.519 1214,-384.842 1173.64,-275.888 1065.45,-181.754 1015.25,-142.436"/>
<polygon fill="black" stroke="black" points="1017.2,-139.518 1007.15,-136.171 1012.92,-145.056 1017.2,-139.518"/>
</g>
<!-- Universal_compose_snd_prod&#45;&gt;Core_snd -->
<g id="edge11" class="edge"><title>Universal_compose_snd_prod&#45;&gt;Core_snd</title>
<path fill="none" stroke="black" d="M1210,-980.642C1226.02,-903.25 1279.6,-595.827 1171,-384.842 1136.74,-318.288 946.202,-188.989 873.34,-141.185"/>
<polygon fill="black" stroke="black" points="874.944,-138.052 864.658,-135.51 871.114,-143.911 874.944,-138.052"/>
</g>
<!-- Universal_compose_fst_prod&#45;&gt;Core_prod -->
<g id="edge12" class="edge"><title>Universal_compose_fst_prod&#45;&gt;Core_prod</title>
<path fill="none" stroke="black" d="M1392.71,-980.949C1450.24,-903.548 1663.24,-592.122 1533,-384.842 1416.65,-199.672 1128.67,-142.307 1026.05,-127.416"/>
<polygon fill="black" stroke="black" points="1026.26,-123.91 1015.87,-125.99 1025.29,-130.843 1026.26,-123.91"/>
</g>
<!-- Universal_compose_fst_prod&#45;&gt;Core_fst -->
<g id="edge13" class="edge"><title>Universal_compose_fst_prod&#45;&gt;Core_fst</title>
<path fill="none" stroke="black" d="M1377.33,-980.84C1369.46,-903.627 1330.9,-594.861 1201,-384.842 1132,-273.284 1002.71,-179.29 945.495,-141.114"/>
<polygon fill="black" stroke="black" points="947.224,-138.061 936.95,-135.472 943.367,-143.903 947.224,-138.061"/>
</g>
<!-- Prod_functor -->
<g id="node8" class="node"><title>Prod_functor</title>
<g id="a_node8"><a xlink:href="Prod.html#functor" xlink:title="functor">
<ellipse fill="#f070d1" stroke="black" cx="2724" cy="-1614.84" rx="36.3123" ry="18"/>
<ellipse fill="none" stroke="black" cx="2724" cy="-1614.84" rx="40.3031" ry="22"/>
<ellipse fill="none" stroke="black" cx="2724" cy="-1614.84" rx="44.2938" ry="26"/>
<text text-anchor="middle" x="2724" y="-1611.14" font-family="Times,serif" font-size="14.00">functor</text>
</a>
</g>
</g>
<!-- Prod_functor_identity_of -->
<g id="node9" class="node"><title>Prod_functor_identity_of</title>
<g id="a_node9"><a xlink:href="Prod.html#functor_identity_of" xlink:title="functor_identity_of">
<ellipse fill="#f070d1" stroke="black" cx="2662" cy="-1286.84" rx="79.0865" ry="18"/>
<text text-anchor="middle" x="2662" y="-1283.14" font-family="Times,serif" font-size="14.00">functor_identity_of</text>
</a>
</g>
</g>
<!-- Prod_functor&#45;&gt;Prod_functor_identity_of -->
<g id="edge14" class="edge"><title>Prod_functor&#45;&gt;Prod_functor_identity_of</title>
<path fill="none" stroke="black" d="M2719.08,-1588.83C2707.6,-1528.1 2679.11,-1377.38 2667.28,-1314.79"/>
<polygon fill="black" stroke="black" points="2670.7,-1314.02 2665.4,-1304.85 2663.82,-1315.32 2670.7,-1314.02"/>
</g>
<!-- Prod_functor_composition_of -->
<g id="node10" class="node"><title>Prod_functor_composition_of</title>
<g id="a_node10"><a xlink:href="Prod.html#functor_composition_of" xlink:title="functor_composition_of">
<ellipse fill="#f070d1" stroke="black" cx="2855" cy="-1286.84" rx="96.3833" ry="18"/>
<text text-anchor="middle" x="2855" y="-1283.14" font-family="Times,serif" font-size="14.00">functor_composition_of</text>
</a>
</g>
</g>
<!-- Prod_functor&#45;&gt;Prod_functor_composition_of -->
<g id="edge15" class="edge"><title>Prod_functor&#45;&gt;Prod_functor_composition_of</title>
<path fill="none" stroke="black" d="M2734.17,-1589.38C2758.32,-1528.92 2818.93,-1377.15 2843.94,-1314.52"/>
<polygon fill="black" stroke="black" points="2847.32,-1315.51 2847.78,-1304.93 2840.82,-1312.91 2847.32,-1315.51"/>
</g>
<!-- Prod_functor_morphism_of -->
<g id="node11" class="node"><title>Prod_functor_morphism_of</title>
<g id="a_node11"><a xlink:href="Prod.html#functor_morphism_of" xlink:title="functor_morphism_of">
<ellipse fill="#f070d1" stroke="black" cx="3058" cy="-1286.84" rx="89.0842" ry="18"/>
<text text-anchor="middle" x="3058" y="-1283.14" font-family="Times,serif" font-size="14.00">functor_morphism_of</text>
</a>
</g>
</g>
<!-- Prod_functor&#45;&gt;Prod_functor_morphism_of -->
<g id="edge16" class="edge"><title>Prod_functor&#45;&gt;Prod_functor_morphism_of</title>
<path fill="none" stroke="black" d="M2746.96,-1592.3C2807.29,-1533.05 2969.98,-1373.28 3032.79,-1311.6"/>
<polygon fill="black" stroke="black" points="3035.25,-1314.09 3039.94,-1304.58 3030.35,-1309.09 3035.25,-1314.09"/>
</g>
<!-- Functorial_functor_identity_of -->
<g id="node30" class="node"><title>Functorial_functor_identity_of</title>
<g id="a_node30"><a xlink:href="Functorial.html#functor_identity_of" xlink:title="functor_identity_of">
<ellipse fill="#facdef" stroke="black" cx="3394" cy="-998.842" rx="79.0865" ry="18"/>
<text text-anchor="middle" x="3394" y="-995.142" font-family="Times,serif" font-size="14.00">functor_identity_of</text>
</a>
</g>
</g>
<!-- Prod_functor_identity_of&#45;&gt;Functorial_functor_identity_of -->
<g id="edge17" class="edge"><title>Prod_functor_identity_of&#45;&gt;Functorial_functor_identity_of</title>
<path fill="none" stroke="black" d="M2701.88,-1271.15C2826.43,-1222.15 3208.03,-1072.01 3344.68,-1018.25"/>
<polygon fill="black" stroke="black" points="3346.06,-1021.46 3354.09,-1014.54 3343.5,-1014.95 3346.06,-1021.46"/>
</g>
<!-- Functorial_functor_composition_of -->
<g id="node31" class="node"><title>Functorial_functor_composition_of</title>
<g id="a_node31"><a xlink:href="Functorial.html#functor_composition_of" xlink:title="functor_composition_of">
<ellipse fill="#facdef" stroke="black" cx="3587" cy="-998.842" rx="96.3833" ry="18"/>
<text text-anchor="middle" x="3587" y="-995.142" font-family="Times,serif" font-size="14.00">functor_composition_of</text>
</a>
</g>
</g>
<!-- Prod_functor_composition_of&#45;&gt;Functorial_functor_composition_of -->
<g id="edge18" class="edge"><title>Prod_functor_composition_of&#45;&gt;Functorial_functor_composition_of</title>
<path fill="none" stroke="black" d="M2896.45,-1270.53C3022.13,-1221.09 3398.65,-1072.95 3536.07,-1018.88"/>
<polygon fill="black" stroke="black" points="3537.53,-1022.07 3545.55,-1015.15 3534.96,-1015.55 3537.53,-1022.07"/>
</g>
<!-- Prod_path_prod -->
<g id="node12" class="node"><title>Prod_path_prod</title>
<g id="a_node12"><a xlink:href="Prod.html#path_prod" xlink:title="path_prod">
<ellipse fill="#f070d1" stroke="black" cx="1793" cy="-1614.84" rx="46.2706" ry="18"/>
<ellipse fill="none" stroke="black" cx="1793" cy="-1614.84" rx="50.2814" ry="22"/>
<ellipse fill="none" stroke="black" cx="1793" cy="-1614.84" rx="54.2922" ry="26"/>
<text text-anchor="middle" x="1793" y="-1611.14" font-family="Times,serif" font-size="14.00">path_prod</text>
</a>
</g>
</g>
<!-- Prod_unique -->
<g id="node14" class="node"><title>Prod_unique</title>
<g id="a_node14"><a xlink:href="Prod.html#unique" xlink:title="unique">
<ellipse fill="#f070d1" stroke="black" cx="1729" cy="-1286.84" rx="34.394" ry="18"/>
<text text-anchor="middle" x="1729" y="-1283.14" font-family="Times,serif" font-size="14.00">unique</text>
</a>
</g>
</g>
<!-- Prod_path_prod&#45;&gt;Prod_unique -->
<g id="edge19" class="edge"><title>Prod_path_prod&#45;&gt;Prod_unique</title>
<path fill="none" stroke="black" d="M1787.92,-1588.83C1776.07,-1528.1 1746.67,-1377.38 1734.45,-1314.79"/>
<polygon fill="black" stroke="black" points="1737.86,-1313.99 1732.51,-1304.85 1730.99,-1315.33 1737.86,-1313.99"/>
</g>
<!-- Prod_contr_prod_type -->
<g id="node13" class="node"><title>Prod_contr_prod_type</title>
<g id="a_node13"><a xlink:href="Prod.html#contr_prod_type" xlink:title="contr_prod_type">
<ellipse fill="#f070d1" stroke="black" cx="1556" cy="-1614.84" rx="68.7989" ry="18"/>
<ellipse fill="none" stroke="black" cx="1556" cy="-1614.84" rx="72.7934" ry="22"/>
<ellipse fill="none" stroke="black" cx="1556" cy="-1614.84" rx="76.7879" ry="26"/>
<text text-anchor="middle" x="1556" y="-1611.14" font-family="Times,serif" font-size="14.00">contr_prod_type</text>
</a>
</g>
</g>
<!-- Prod_contr_prod_type&#45;&gt;Universal_contr_prod_type -->
<g id="edge20" class="edge"><title>Prod_contr_prod_type&#45;&gt;Universal_contr_prod_type</title>
<path fill="none" stroke="black" d="M1536.87,-1589.65C1490.65,-1528.76 1373.24,-1374.1 1326.57,-1312.62"/>
<polygon fill="black" stroke="black" points="1329.3,-1310.43 1320.46,-1304.58 1323.72,-1314.66 1329.3,-1310.43"/>
</g>
<!-- Prod_unique_helper2 -->
<g id="node15" class="node"><title>Prod_unique_helper2</title>
<g id="a_node15"><a xlink:href="Prod.html#unique_helper2" xlink:title="unique_helper2">
<ellipse fill="#f070d1" stroke="black" cx="1642" cy="-998.842" rx="65.7887" ry="18"/>
<text text-anchor="middle" x="1642" y="-995.142" font-family="Times,serif" font-size="14.00">unique_helper2</text>
</a>
</g>
</g>
<!-- Prod_unique&#45;&gt;Prod_unique_helper2 -->
<g id="edge21" class="edge"><title>Prod_unique&#45;&gt;Prod_unique_helper2</title>
<path fill="none" stroke="black" d="M1723.56,-1268.83C1708.82,-1220.04 1668.05,-1085.08 1650.37,-1026.53"/>
<polygon fill="black" stroke="black" points="1653.68,-1025.41 1647.44,-1016.85 1646.98,-1027.44 1653.68,-1025.41"/>
</g>
<!-- Prod_unique_helper -->
<g id="node16" class="node"><title>Prod_unique_helper</title>
<g id="a_node16"><a xlink:href="Prod.html#unique_helper" xlink:title="unique_helper">
<ellipse fill="#f070d1" stroke="black" cx="1787" cy="-998.842" rx="61.1893" ry="18"/>
<text text-anchor="middle" x="1787" y="-995.142" font-family="Times,serif" font-size="14.00">unique_helper</text>
</a>
</g>
</g>
<!-- Prod_unique&#45;&gt;Prod_unique_helper -->
<g id="edge22" class="edge"><title>Prod_unique&#45;&gt;Prod_unique_helper</title>
<path fill="none" stroke="black" d="M1732.63,-1268.83C1742.43,-1220.14 1769.52,-1085.64 1781.35,-1026.9"/>
<polygon fill="black" stroke="black" points="1784.83,-1027.35 1783.37,-1016.85 1777.97,-1025.96 1784.83,-1027.35"/>
</g>
<!-- Prod_unique&#45;&gt;Core_prod -->
<g id="edge23" class="edge"><title>Prod_unique&#45;&gt;Core_prod</title>
<path fill="none" stroke="black" d="M1714.64,-1270.36C1680.82,-1230.34 1596.8,-1123.45 1567,-1016.84 1491.38,-746.321 1716.52,-620.717 1564,-384.842 1439.03,-191.579 1132.72,-139.12 1026.22,-126.479"/>
<polygon fill="black" stroke="black" points="1026.3,-122.966 1015.97,-125.313 1025.51,-129.921 1026.3,-122.966"/>
</g>
<!-- Prod_unique_helper2&#45;&gt;Universal_unique_helper2 -->
<g id="edge24" class="edge"><title>Prod_unique_helper2&#45;&gt;Universal_unique_helper2</title>
<path fill="none" stroke="black" d="M1609.68,-983.163C1517.06,-938.235 1250.73,-809.047 1147.54,-758.993"/>
<polygon fill="black" stroke="black" points="1148.89,-755.757 1138.36,-754.541 1145.83,-762.055 1148.89,-755.757"/>
</g>
<!-- Prod_unique_helper&#45;&gt;Core_snd -->
<g id="edge25" class="edge"><title>Prod_unique_helper&#45;&gt;Core_snd</title>
<path fill="none" stroke="black" d="M1779.61,-980.844C1741.76,-889.417 1567.64,-477.186 1467,-384.842 1259.13,-194.102 1137.54,-258.218 881,-140.842 879.237,-140.035 877.433,-139.192 875.617,-138.329"/>
<polygon fill="black" stroke="black" points="877.109,-135.163 866.585,-133.937 874.048,-141.458 877.109,-135.163"/>
</g>
<!-- Prod_unique_helper&#45;&gt;Core_fst -->
<g id="edge26" class="edge"><title>Prod_unique_helper&#45;&gt;Core_fst</title>
<path fill="none" stroke="black" d="M1782.19,-980.68C1760.03,-900.168 1660.47,-571.244 1467,-384.842 1284.89,-209.39 1180.32,-251.615 953,-140.842 951.257,-139.993 949.469,-139.116 947.666,-138.228"/>
<polygon fill="black" stroke="black" points="949.18,-135.072 938.667,-133.765 946.07,-141.343 949.18,-135.072"/>
</g>
<!-- Prod_compose_snd_prod -->
<g id="node17" class="node"><title>Prod_compose_snd_prod</title>
<g id="a_node17"><a xlink:href="Prod.html#compose_snd_prod" xlink:title="compose_snd_prod">
<ellipse fill="#f070d1" stroke="black" cx="2874" cy="-1614.84" rx="79.1053" ry="18"/>
<ellipse fill="none" stroke="black" cx="2874" cy="-1614.84" rx="83.0959" ry="22"/>
<ellipse fill="none" stroke="black" cx="2874" cy="-1614.84" rx="87.0864" ry="26"/>
<text text-anchor="middle" x="2874" y="-1611.14" font-family="Times,serif" font-size="14.00">compose_snd_prod</text>
</a>
</g>
</g>
<!-- Prod_compose_snd_prod&#45;&gt;Core_prod -->
<g id="edge27" class="edge"><title>Prod_compose_snd_prod&#45;&gt;Core_prod</title>
<path fill="none" stroke="black" d="M2917.99,-1592.2C2989.44,-1552.73 3128.76,-1463.94 3189,-1343.84 3257.91,-1206.45 3213,-1152.55 3213,-998.842 3213,-998.842 3213,-998.842 3213,-738.842 3213,-265.17 1315.66,-140.986 1025.92,-124.783"/>
<polygon fill="black" stroke="black" points="1026.1,-121.288 1015.92,-124.231 1025.71,-128.277 1026.1,-121.288"/>
</g>
<!-- Prod_compose_snd_prod&#45;&gt;Core_snd -->
<g id="edge28" class="edge"><title>Prod_compose_snd_prod&#45;&gt;Core_snd</title>
<path fill="none" stroke="black" d="M2917.56,-1592.21C3015.85,-1538.07 3239.97,-1395.53 3156,-1260.84 3021.4,-1044.94 2337.72,-900.892 2128,-756.842 1927.62,-619.202 1938.65,-504.44 1727,-384.842 1386.31,-192.323 1245.53,-283.162 881,-140.842 879.145,-140.118 877.257,-139.332 875.366,-138.507"/>
<polygon fill="black" stroke="black" points="876.571,-135.207 866.028,-134.16 873.617,-141.553 876.571,-135.207"/>
</g>
<!-- Prod_compose_fst_prod -->
<g id="node18" class="node"><title>Prod_compose_fst_prod</title>
<g id="a_node18"><a xlink:href="Prod.html#compose_fst_prod" xlink:title="compose_fst_prod">
<ellipse fill="#f070d1" stroke="black" cx="3063" cy="-1614.84" rx="76.0824" ry="18"/>
<ellipse fill="none" stroke="black" cx="3063" cy="-1614.84" rx="80.0845" ry="22"/>
<ellipse fill="none" stroke="black" cx="3063" cy="-1614.84" rx="84.0865" ry="26"/>
<text text-anchor="middle" x="3063" y="-1611.14" font-family="Times,serif" font-size="14.00">compose_fst_prod</text>
</a>
</g>
</g>
<!-- Prod_compose_fst_prod&#45;&gt;Core_prod -->
<g id="edge29" class="edge"><title>Prod_compose_fst_prod&#45;&gt;Core_prod</title>
<path fill="none" stroke="black" d="M3090.46,-1590.15C3137.12,-1546.14 3230.18,-1448.83 3265,-1343.84 3277.49,-1306.19 3296.35,-858.82 3227,-712.842 3135.51,-520.283 3069.39,-476.692 2877,-384.842 2530.32,-219.327 1259.47,-138.528 1025.99,-124.926"/>
<polygon fill="black" stroke="black" points="1026.15,-121.429 1015.96,-124.346 1025.74,-128.418 1026.15,-121.429"/>
</g>
<!-- Prod_compose_fst_prod&#45;&gt;Core_fst -->
<g id="edge30" class="edge"><title>Prod_compose_fst_prod&#45;&gt;Core_fst</title>
<path fill="none" stroke="black" d="M3084.93,-1589.47C3134.04,-1529.41 3243.73,-1375.01 3180,-1260.84 3065.49,-1055.69 2162.46,-682.914 1517,-384.842 1269.04,-270.336 1200.57,-256.18 953,-140.842 951.242,-140.023 949.443,-139.17 947.631,-138.301"/>
<polygon fill="black" stroke="black" points="949.129,-135.137 938.608,-133.888 946.054,-141.425 949.129,-135.137"/>
</g>
<!-- Prod_induced_snd -->
<g id="node19" class="node"><title>Prod_induced_snd</title>
<g id="a_node19"><a xlink:href="Prod.html#induced_snd" xlink:title="induced_snd">
<ellipse fill="#f070d1" stroke="black" cx="2004" cy="-1614.84" rx="55.46" ry="18"/>
<ellipse fill="none" stroke="black" cx="2004" cy="-1614.84" rx="59.4756" ry="22"/>
<ellipse fill="none" stroke="black" cx="2004" cy="-1614.84" rx="63.4911" ry="26"/>
<text text-anchor="middle" x="2004" y="-1611.14" font-family="Times,serif" font-size="14.00">induced_snd</text>
</a>
</g>
</g>
<!-- Prod_induced_snd_subproof0 -->
<g id="node20" class="node"><title>Prod_induced_snd_subproof0</title>
<g id="a_node20"><a xlink:href="Prod.html#induced_snd_subproof0" xlink:title="induced_snd_subproof0">
<ellipse fill="#f070d1" stroke="black" cx="1876" cy="-1286.84" rx="94.7833" ry="18"/>
<text text-anchor="middle" x="1876" y="-1283.14" font-family="Times,serif" font-size="14.00">induced_snd_subproof0</text>
</a>
</g>
</g>
<!-- Prod_induced_snd&#45;&gt;Prod_induced_snd_subproof0 -->
<g id="edge31" class="edge"><title>Prod_induced_snd&#45;&gt;Prod_induced_snd_subproof0</title>
<path fill="none" stroke="black" d="M1993.96,-1589.1C1970.29,-1528.45 1911.17,-1376.95 1886.78,-1314.46"/>
<polygon fill="black" stroke="black" points="1889.94,-1312.93 1883.04,-1304.89 1883.42,-1315.47 1889.94,-1312.93"/>
</g>
<!-- Prod_induced_snd_subproof -->
<g id="node21" class="node"><title>Prod_induced_snd_subproof</title>
<g id="a_node21"><a xlink:href="Prod.html#induced_snd_subproof" xlink:title="induced_snd_subproof">
<ellipse fill="#f070d1" stroke="black" cx="2080" cy="-1286.84" rx="90.9839" ry="18"/>
<text text-anchor="middle" x="2080" y="-1283.14" font-family="Times,serif" font-size="14.00">induced_snd_subproof</text>
</a>
</g>
</g>
<!-- Prod_induced_snd&#45;&gt;Prod_induced_snd_subproof -->
<g id="edge32" class="edge"><title>Prod_induced_snd&#45;&gt;Prod_induced_snd_subproof</title>
<path fill="none" stroke="black" d="M2010.03,-1588.83C2024.1,-1528.1 2059.02,-1377.38 2073.52,-1314.79"/>
<polygon fill="black" stroke="black" points="2076.98,-1315.38 2075.83,-1304.85 2070.16,-1313.8 2076.98,-1315.38"/>
</g>
<!-- Core_induced_snd_subproof0 -->
<g id="node34" class="node"><title>Core_induced_snd_subproof0</title>
<g id="a_node34"><a xlink:href="Core.html#induced_snd_subproof0" xlink:title="induced_snd_subproof0">
<ellipse fill="#facdef" stroke="black" cx="111" cy="-122.842" rx="94.7833" ry="18"/>
<text text-anchor="middle" x="111" y="-119.142" font-family="Times,serif" font-size="14.00">induced_snd_subproof0</text>
</a>
</g>
</g>
<!-- Prod_induced_snd_subproof0&#45;&gt;Core_induced_snd_subproof0 -->
<g id="edge33" class="edge"><title>Prod_induced_snd_subproof0&#45;&gt;Core_induced_snd_subproof0</title>
<path fill="none" stroke="black" d="M1878.12,-1268.52C1883.16,-1219.18 1892.89,-1080.04 1857,-972.842 1757.45,-675.471 1727.92,-558.793 1467,-384.842 1439.8,-366.707 474.172,-189.205 189.326,-137.132"/>
<polygon fill="black" stroke="black" points="189.95,-133.688 179.483,-135.333 188.691,-140.574 189.95,-133.688"/>
</g>
<!-- Core_induced_snd_subproof -->
<g id="node35" class="node"><title>Core_induced_snd_subproof</title>
<g id="a_node35"><a xlink:href="Core.html#induced_snd_subproof" xlink:title="induced_snd_subproof">
<ellipse fill="#facdef" stroke="black" cx="315" cy="-122.842" rx="90.9839" ry="18"/>
<text text-anchor="middle" x="315" y="-119.142" font-family="Times,serif" font-size="14.00">induced_snd_subproof</text>
</a>
</g>
</g>
<!-- Prod_induced_snd_subproof&#45;&gt;Core_induced_snd_subproof -->
<g id="edge34" class="edge"><title>Prod_induced_snd_subproof&#45;&gt;Core_induced_snd_subproof</title>
<path fill="none" stroke="black" d="M2070.38,-1268.91C2047.26,-1225.7 1986.82,-1112.34 1938,-1016.84 1786.36,-720.221 1816.61,-562.819 1535,-384.842 1485.47,-353.541 648.233,-188.006 390.135,-137.491"/>
<polygon fill="black" stroke="black" points="390.59,-134.014 380.104,-135.529 389.246,-140.884 390.59,-134.014"/>
</g>
<!-- Prod_induced_fst -->
<g id="node22" class="node"><title>Prod_induced_fst</title>
<g id="a_node22"><a xlink:href="Prod.html#induced_fst" xlink:title="induced_fst">
<ellipse fill="#f070d1" stroke="black" cx="2379" cy="-1614.84" rx="51.9914" ry="18"/>
<ellipse fill="none" stroke="black" cx="2379" cy="-1614.84" rx="55.9911" ry="22"/>
<ellipse fill="none" stroke="black" cx="2379" cy="-1614.84" rx="59.9908" ry="26"/>
<text text-anchor="middle" x="2379" y="-1611.14" font-family="Times,serif" font-size="14.00">induced_fst</text>
</a>
</g>
</g>
<!-- Prod_induced_fst_subproof0 -->
<g id="node23" class="node"><title>Prod_induced_fst_subproof0</title>
<g id="a_node23"><a xlink:href="Prod.html#induced_fst_subproof0" xlink:title="induced_fst_subproof0">
<ellipse fill="#f070d1" stroke="black" cx="2281" cy="-1286.84" rx="91.784" ry="18"/>
<text text-anchor="middle" x="2281" y="-1283.14" font-family="Times,serif" font-size="14.00">induced_fst_subproof0</text>
</a>
</g>
</g>
<!-- Prod_induced_fst&#45;&gt;Prod_induced_fst_subproof0 -->
<g id="edge35" class="edge"><title>Prod_induced_fst&#45;&gt;Prod_induced_fst_subproof0</title>
<path fill="none" stroke="black" d="M2371.23,-1588.83C2353.08,-1528.1 2308.05,-1377.38 2289.35,-1314.79"/>
<polygon fill="black" stroke="black" points="2292.6,-1313.42 2286.38,-1304.85 2285.89,-1315.43 2292.6,-1313.42"/>
</g>
<!-- Prod_induced_fst_subproof -->
<g id="node24" class="node"><title>Prod_induced_fst_subproof</title>
<g id="a_node24"><a xlink:href="Prod.html#induced_fst_subproof" xlink:title="induced_fst_subproof">
<ellipse fill="#f070d1" stroke="black" cx="2478" cy="-1286.84" rx="87.1846" ry="18"/>
<text text-anchor="middle" x="2478" y="-1283.14" font-family="Times,serif" font-size="14.00">induced_fst_subproof</text>
</a>
</g>
</g>
<!-- Prod_induced_fst&#45;&gt;Prod_induced_fst_subproof -->
<g id="edge36" class="edge"><title>Prod_induced_fst&#45;&gt;Prod_induced_fst_subproof</title>
<path fill="none" stroke="black" d="M2386.85,-1588.83C2405.18,-1528.1 2450.67,-1377.38 2469.56,-1314.79"/>
<polygon fill="black" stroke="black" points="2473.03,-1315.43 2472.57,-1304.85 2466.33,-1313.41 2473.03,-1315.43"/>
</g>
<!-- Core_induced_fst_subproof0 -->
<g id="node37" class="node"><title>Core_induced_fst_subproof0</title>
<g id="a_node37"><a xlink:href="Core.html#induced_fst_subproof0" xlink:title="induced_fst_subproof0">
<ellipse fill="#facdef" stroke="black" cx="516" cy="-122.842" rx="91.784" ry="18"/>
<text text-anchor="middle" x="516" y="-119.142" font-family="Times,serif" font-size="14.00">induced_fst_subproof0</text>
</a>
</g>
</g>
<!-- Prod_induced_fst_subproof0&#45;&gt;Core_induced_fst_subproof0 -->
<g id="edge37" class="edge"><title>Prod_induced_fst_subproof0&#45;&gt;Core_induced_fst_subproof0</title>
<path fill="none" stroke="black" d="M2254.92,-1269.4C2197.87,-1230.15 2060.37,-1129.47 1976,-1016.84 1886.48,-897.341 1907.65,-842.153 1833,-712.842 1744.24,-559.087 1751.56,-485.047 1605,-384.842 1519.54,-326.409 822.664,-183.887 590.751,-137.615"/>
<polygon fill="black" stroke="black" points="591.211,-134.137 580.719,-135.615 589.842,-141.002 591.211,-134.137"/>
</g>
<!-- Core_induced_fst_subproof -->
<g id="node38" class="node"><title>Core_induced_fst_subproof</title>
<g id="a_node38"><a xlink:href="Core.html#induced_fst_subproof" xlink:title="induced_fst_subproof">
<ellipse fill="#facdef" stroke="black" cx="713" cy="-122.842" rx="87.1846" ry="18"/>
<text text-anchor="middle" x="713" y="-119.142" font-family="Times,serif" font-size="14.00">induced_fst_subproof</text>
</a>
</g>
</g>
<!-- Prod_induced_fst_subproof&#45;&gt;Core_induced_fst_subproof -->
<g id="edge38" class="edge"><title>Prod_induced_fst_subproof&#45;&gt;Core_induced_fst_subproof</title>
<path fill="none" stroke="black" d="M2463.06,-1269.05C2361.35,-1148.1 1771.7,-449.505 1667,-384.842 1515.28,-291.144 982.07,-177.079 786.028,-137.328"/>
<polygon fill="black" stroke="black" points="786.607,-133.874 776.112,-135.322 785.22,-140.735 786.607,-133.874"/>
</g>
<!-- Prod_pair -->
<g id="node25" class="node"><title>Prod_pair</title>
<g id="a_node25"><a xlink:href="Prod.html#pair" xlink:title="pair">
<ellipse fill="#f070d1" stroke="black" cx="1686" cy="-1614.84" rx="27" ry="18"/>
<ellipse fill="none" stroke="black" cx="1686" cy="-1614.84" rx="31" ry="22"/>
<ellipse fill="none" stroke="black" cx="1686" cy="-1614.84" rx="35" ry="26"/>
<text text-anchor="middle" x="1686" y="-1611.14" font-family="Times,serif" font-size="14.00">pair</text>
</a>
</g>
</g>
<!-- Prod_prod -->
<g id="node26" class="node"><title>Prod_prod</title>
<g id="a_node26"><a xlink:href="Prod.html#prod" xlink:title="prod">
<ellipse fill="#f070d1" stroke="black" cx="1506" cy="-1286.84" rx="27" ry="18"/>
<text text-anchor="middle" x="1506" y="-1283.14" font-family="Times,serif" font-size="14.00">prod</text>
</a>
</g>
</g>
<!-- Prod_pair&#45;&gt;Prod_prod -->
<g id="edge39" class="edge"><title>Prod_pair&#45;&gt;Prod_prod</title>
<path fill="none" stroke="black" d="M1672.76,-1590.72C1639.79,-1530.64 1554.19,-1374.66 1520.21,-1312.73"/>
<polygon fill="black" stroke="black" points="1523.28,-1311.05 1515.4,-1303.96 1517.14,-1314.41 1523.28,-1311.05"/>
</g>
<!-- Prod_snd -->
<g id="node27" class="node"><title>Prod_snd</title>
<g id="a_node27"><a xlink:href="Prod.html#snd" xlink:title="snd">
<ellipse fill="#f070d1" stroke="black" cx="1578" cy="-1286.84" rx="27" ry="18"/>
<text text-anchor="middle" x="1578" y="-1283.14" font-family="Times,serif" font-size="14.00">snd</text>
</a>
</g>
</g>
<!-- Prod_pair&#45;&gt;Prod_snd -->
<g id="edge40" class="edge"><title>Prod_pair&#45;&gt;Prod_snd</title>
<path fill="none" stroke="black" d="M1677.62,-1589.38C1657.66,-1528.78 1607.5,-1376.43 1586.97,-1314.08"/>
<polygon fill="black" stroke="black" points="1590.28,-1312.94 1583.83,-1304.54 1583.63,-1315.13 1590.28,-1312.94"/>
</g>
<!-- Prod_fst -->
<g id="node28" class="node"><title>Prod_fst</title>
<g id="a_node28"><a xlink:href="Prod.html#fst" xlink:title="fst">
<ellipse fill="#f070d1" stroke="black" cx="1650" cy="-1286.84" rx="27" ry="18"/>
<text text-anchor="middle" x="1650" y="-1283.14" font-family="Times,serif" font-size="14.00">fst</text>
</a>
</g>
</g>
<!-- Prod_pair&#45;&gt;Prod_fst -->
<g id="edge41" class="edge"><title>Prod_pair&#45;&gt;Prod_fst</title>
<path fill="none" stroke="black" d="M1683.15,-1588.83C1676.48,-1528.1 1659.94,-1377.38 1653.07,-1314.79"/>
<polygon fill="black" stroke="black" points="1656.55,-1314.4 1651.98,-1304.85 1649.59,-1315.17 1656.55,-1314.4"/>
</g>
<!-- Functorial_functor -->
<g id="node29" class="node"><title>Functorial_functor</title>
<g id="a_node29"><a xlink:href="Functorial.html#functor" xlink:title="functor">
<ellipse fill="#f070d1" stroke="black" cx="3490" cy="-1286.84" rx="36.3123" ry="18"/>
<ellipse fill="none" stroke="black" cx="3490" cy="-1286.84" rx="40.3031" ry="22"/>
<ellipse fill="none" stroke="black" cx="3490" cy="-1286.84" rx="44.2938" ry="26"/>
<text text-anchor="middle" x="3490" y="-1283.14" font-family="Times,serif" font-size="14.00">functor</text>
</a>
</g>
</g>
<!-- Functorial_functor&#45;&gt;Functorial_functor_identity_of -->
<g id="edge42" class="edge"><title>Functorial_functor&#45;&gt;Functorial_functor_identity_of</title>
<path fill="none" stroke="black" d="M3481.48,-1261.28C3463.51,-1207.37 3421.85,-1082.39 3403.25,-1026.6"/>
<polygon fill="black" stroke="black" points="3406.54,-1025.4 3400.06,-1017.02 3399.9,-1027.62 3406.54,-1025.4"/>
</g>
<!-- Functorial_functor&#45;&gt;Functorial_functor_composition_of -->
<g id="edge43" class="edge"><title>Functorial_functor&#45;&gt;Functorial_functor_composition_of</title>
<path fill="none" stroke="black" d="M3498.61,-1261.28C3516.77,-1207.37 3558.86,-1082.39 3577.65,-1026.6"/>
<polygon fill="black" stroke="black" points="3581,-1027.62 3580.88,-1017.02 3574.37,-1025.38 3581,-1027.62"/>
</g>
<!-- Functorial_functor_morphism_of -->
<g id="node32" class="node"><title>Functorial_functor_morphism_of</title>
<g id="a_node32"><a xlink:href="Functorial.html#functor_morphism_of" xlink:title="functor_morphism_of">
<ellipse fill="#f070d1" stroke="black" cx="3568" cy="-738.842" rx="89.0842" ry="18"/>
<text text-anchor="middle" x="3568" y="-735.142" font-family="Times,serif" font-size="14.00">functor_morphism_of</text>
</a>
</g>
</g>
<!-- Functorial_functor_identity_of&#45;&gt;Functorial_functor_morphism_of -->
<g id="edge44" class="edge"><title>Functorial_functor_identity_of&#45;&gt;Functorial_functor_morphism_of</title>
<path fill="none" stroke="black" d="M3405.96,-980.971C3436.01,-936.071 3514.8,-818.344 3550.26,-765.357"/>
<polygon fill="black" stroke="black" points="3553.3,-767.095 3555.96,-756.838 3547.49,-763.202 3553.3,-767.095"/>
</g>
<!-- Functorial_functor_identity_of&#45;&gt;Core_prod -->
<g id="edge45" class="edge"><title>Functorial_functor_identity_of&#45;&gt;Core_prod</title>
<path fill="none" stroke="black" d="M3394.08,-980.565C3394.1,-887.764 3389.23,-469.826 3301,-384.842 3129.46,-219.612 1311.75,-136.457 1026.56,-124.386"/>
<polygon fill="black" stroke="black" points="1026.46,-120.879 1016.32,-123.956 1026.17,-127.873 1026.46,-120.879"/>
</g>
<!-- Functorial_functor_composition_of&#45;&gt;Functorial_functor_morphism_of -->
<g id="edge46" class="edge"><title>Functorial_functor_composition_of&#45;&gt;Functorial_functor_morphism_of</title>
<path fill="none" stroke="black" d="M3585.66,-980.559C3582.4,-935.898 3574,-820.987 3570.08,-767.288"/>
<polygon fill="black" stroke="black" points="3573.55,-766.823 3569.33,-757.105 3566.57,-767.333 3573.55,-766.823"/>
</g>
<!-- Functorial_functor_composition_of&#45;&gt;Core_prod -->
<g id="edge47" class="edge"><title>Functorial_functor_composition_of&#45;&gt;Core_prod</title>
<path fill="none" stroke="black" d="M3577.36,-980.631C3556.43,-940.718 3505.8,-842.276 3470,-756.842 3402.13,-594.905 3474.7,-493.777 3337,-384.842 3147.23,-234.722 1312.42,-138.749 1026.4,-124.647"/>
<polygon fill="black" stroke="black" points="1026.3,-121.138 1016.14,-124.143 1025.96,-128.129 1026.3,-121.138"/>
</g>
<!-- Core_induced_snd -->
<g id="node33" class="node"><title>Core_induced_snd</title>
<g id="a_node33"><a xlink:href="Core.html#induced_snd" xlink:title="induced_snd">
<ellipse fill="#f070d1" stroke="black" cx="213" cy="-410.842" rx="55.46" ry="18"/>
<ellipse fill="none" stroke="black" cx="213" cy="-410.842" rx="59.4756" ry="22"/>
<ellipse fill="none" stroke="black" cx="213" cy="-410.842" rx="63.4911" ry="26"/>
<text text-anchor="middle" x="213" y="-407.142" font-family="Times,serif" font-size="14.00">induced_snd</text>
</a>
</g>
</g>
<!-- Core_induced_snd&#45;&gt;Core_induced_snd_subproof0 -->
<g id="edge48" class="edge"><title>Core_induced_snd&#45;&gt;Core_induced_snd_subproof0</title>
<path fill="none" stroke="black" d="M203.858,-385.031C184.709,-330.96 140.526,-206.21 120.809,-150.539"/>
<polygon fill="black" stroke="black" points="124.062,-149.238 117.424,-140.981 117.463,-151.575 124.062,-149.238"/>
</g>
<!-- Core_induced_snd&#45;&gt;Core_induced_snd_subproof -->
<g id="edge49" class="edge"><title>Core_induced_snd&#45;&gt;Core_induced_snd_subproof</title>
<path fill="none" stroke="black" d="M222.142,-385.031C241.291,-330.96 285.474,-206.21 305.191,-150.539"/>
<polygon fill="black" stroke="black" points="308.537,-151.575 308.576,-140.981 301.938,-149.238 308.537,-151.575"/>
</g>
<!-- Core_induced_fst -->
<g id="node36" class="node"><title>Core_induced_fst</title>
<g id="a_node36"><a xlink:href="Core.html#induced_fst" xlink:title="induced_fst">
<ellipse fill="#f070d1" stroke="black" cx="614" cy="-410.842" rx="51.9914" ry="18"/>
<ellipse fill="none" stroke="black" cx="614" cy="-410.842" rx="55.9911" ry="22"/>
<ellipse fill="none" stroke="black" cx="614" cy="-410.842" rx="59.9908" ry="26"/>
<text text-anchor="middle" x="614" y="-407.142" font-family="Times,serif" font-size="14.00">induced_fst</text>
</a>
</g>
</g>
<!-- Core_induced_fst&#45;&gt;Core_induced_fst_subproof0 -->
<g id="edge50" class="edge"><title>Core_induced_fst&#45;&gt;Core_induced_fst_subproof0</title>
<path fill="none" stroke="black" d="M605.217,-385.031C586.818,-330.96 544.368,-206.21 525.425,-150.539"/>
<polygon fill="black" stroke="black" points="528.707,-149.32 522.172,-140.981 522.08,-151.575 528.707,-149.32"/>
</g>
<!-- Core_induced_fst&#45;&gt;Core_induced_fst_subproof -->
<g id="edge51" class="edge"><title>Core_induced_fst&#45;&gt;Core_induced_fst_subproof</title>
<path fill="none" stroke="black" d="M622.873,-385.031C641.459,-330.96 684.342,-206.21 703.479,-150.539"/>
<polygon fill="black" stroke="black" points="706.824,-151.575 706.765,-140.981 700.204,-149.3 706.824,-151.575"/>
</g>
<!-- Core_pair -->
<g id="node39" class="node"><title>Core_pair</title>
<g id="a_node39"><a xlink:href="Core.html#pair" xlink:title="pair">
<ellipse fill="#f070d1" stroke="black" cx="917" cy="-410.842" rx="27" ry="18"/>
<ellipse fill="none" stroke="black" cx="917" cy="-410.842" rx="31" ry="22"/>
<ellipse fill="none" stroke="black" cx="917" cy="-410.842" rx="35" ry="26"/>
<text text-anchor="middle" x="917" y="-407.142" font-family="Times,serif" font-size="14.00">pair</text>
</a>
</g>
</g>
<!-- Core_pair&#45;&gt;Core_prod -->
<g id="edge52" class="edge"><title>Core_pair&#45;&gt;Core_prod</title>
<path fill="none" stroke="black" d="M923.453,-385.031C936.975,-330.943 968.178,-206.129 982.089,-150.485"/>
<polygon fill="black" stroke="black" points="985.524,-151.176 984.554,-140.626 978.733,-149.478 985.524,-151.176"/>
</g>
<!-- Core_pair&#45;&gt;Core_snd -->
<g id="edge53" class="edge"><title>Core_pair&#45;&gt;Core_snd</title>
<path fill="none" stroke="black" d="M910.547,-385.031C897.025,-330.943 865.822,-206.129 851.911,-150.485"/>
<polygon fill="black" stroke="black" points="855.267,-149.478 849.446,-140.626 848.476,-151.176 855.267,-149.478"/>
</g>
<!-- Core_pair&#45;&gt;Core_fst -->
<g id="edge54" class="edge"><title>Core_pair&#45;&gt;Core_fst</title>
<path fill="none" stroke="black" d="M917,-384.776C917,-330.775 917,-207.063 917,-151.173"/>
<polygon fill="black" stroke="black" points="920.5,-150.94 917,-140.94 913.5,-150.94 920.5,-150.94"/>
</g>
</g>
</svg>
