<?xml version="1.0" encoding="UTF-8" standalone="no"?>
<!DOCTYPE svg PUBLIC "-//W3C//DTD SVG 1.1//EN"
 "http://www.w3.org/Graphics/SVG/1.1/DTD/svg11.dtd">
<!-- Generated by graphviz version 2.39.20141222.0545 (20141222.0545)
 -->
<!-- Title: HoTT_Basics_Trunc Pages: 1 -->
<svg width="2741pt" height="1375pt"
 viewBox="0.00 0.00 2741.00 1374.50" xmlns="http://www.w3.org/2000/svg" xmlns:xlink="http://www.w3.org/1999/xlink">
<g id="graph0" class="graph" transform="scale(1 1) rotate(0) translate(4 1370.5)">
<title>HoTT_Basics_Trunc</title>
<polygon fill="white" stroke="transparent" points="-4,4 -4,-1370.5 2737,-1370.5 2737,4 -4,4"/>
<g id="clust1" class="cluster"><title>cluster_Trunc</title>
<polygon fill="#ffffc3" stroke="black" points="8,-40.9438 8,-1325.56 2725,-1325.56 2725,-40.9438 8,-40.9438"/>
<text text-anchor="middle" x="32.5" y="-1310.36" font-family="Times,serif" font-size="14.00">Trunc</text>
</g>
<!-- Trunc_equiv_iff_hprop -->
<g id="node1" class="node"><title>Trunc_equiv_iff_hprop</title>
<g id="a_node1"><a xlink:href="Trunc.html#equiv_iff_hprop" xlink:title="equiv_iff_hprop">
<ellipse fill="#f070d1" stroke="black" cx="2641" cy="-1033.94" rx="67.6782" ry="18"/>
<ellipse fill="none" stroke="black" cx="2641" cy="-1033.94" rx="71.6831" ry="22"/>
<ellipse fill="none" stroke="black" cx="2641" cy="-1033.94" rx="75.6881" ry="26"/>
<text text-anchor="middle" x="2641" y="-1030.24" font-family="Times,serif" font-size="14.00">equiv_iff_hprop</text>
</a>
</g>
</g>
<!-- Trunc_equiv_iff_hprop_uncurried -->
<g id="node2" class="node"><title>Trunc_equiv_iff_hprop_uncurried</title>
<g id="a_node2"><a xlink:href="Trunc.html#equiv_iff_hprop_uncurried" xlink:title="equiv_iff_hprop_uncurried">
<ellipse fill="#f070d1" stroke="black" cx="2611" cy="-583.944" rx="105.881" ry="18"/>
<text text-anchor="middle" x="2611" y="-580.244" font-family="Times,serif" font-size="14.00">equiv_iff_hprop_uncurried</text>
</a>
</g>
</g>
<!-- Trunc_equiv_iff_hprop&#45;&gt;Trunc_equiv_iff_hprop_uncurried -->
<g id="edge1" class="edge"><title>Trunc_equiv_iff_hprop&#45;&gt;Trunc_equiv_iff_hprop_uncurried</title>
<path fill="none" stroke="black" d="M2639.26,-1007.8C2634,-928.996 2618.34,-694.118 2612.9,-612.371"/>
<polygon fill="black" stroke="black" points="2616.38,-612.059 2612.22,-602.314 2609.4,-612.525 2616.38,-612.059"/>
</g>
<!-- Trunc_path_ishprop -->
<g id="node5" class="node"><title>Trunc_path_ishprop</title>
<g id="a_node5"><a xlink:href="Trunc.html#path_ishprop" xlink:title="path_ishprop">
<ellipse fill="#f070d1" stroke="black" cx="2508" cy="-173.944" rx="56.59" ry="18"/>
<text text-anchor="middle" x="2508" y="-170.244" font-family="Times,serif" font-size="14.00">path_ishprop</text>
</a>
</g>
</g>
<!-- Trunc_equiv_iff_hprop_uncurried&#45;&gt;Trunc_path_ishprop -->
<g id="edge2" class="edge"><title>Trunc_equiv_iff_hprop_uncurried&#45;&gt;Trunc_path_ishprop</title>
<path fill="none" stroke="black" d="M2606.44,-565.798C2590.19,-501.116 2535.02,-281.498 2515.18,-202.525"/>
<polygon fill="black" stroke="black" points="2518.45,-201.192 2512.62,-192.346 2511.66,-202.897 2518.45,-201.192"/>
</g>
<!-- Trunc_isequiv_iff_hprop -->
<g id="node3" class="node"><title>Trunc_isequiv_iff_hprop</title>
<g id="a_node3"><a xlink:href="Trunc.html#isequiv_iff_hprop" xlink:title="isequiv_iff_hprop">
<ellipse fill="#f070d1" stroke="black" cx="2406" cy="-583.944" rx="73.3926" ry="18"/>
<ellipse fill="none" stroke="black" cx="2406" cy="-583.944" rx="77.3898" ry="22"/>
<ellipse fill="none" stroke="black" cx="2406" cy="-583.944" rx="81.387" ry="26"/>
<text text-anchor="middle" x="2406" y="-580.244" font-family="Times,serif" font-size="14.00">isequiv_iff_hprop</text>
</a>
</g>
</g>
<!-- Trunc_isequiv_iff_hprop&#45;&gt;Trunc_path_ishprop -->
<g id="edge3" class="edge"><title>Trunc_isequiv_iff_hprop&#45;&gt;Trunc_path_ishprop</title>
<path fill="none" stroke="black" d="M2412.46,-557.985C2430.65,-484.853 2482.23,-277.538 2501.03,-201.957"/>
<polygon fill="black" stroke="black" points="2504.44,-202.743 2503.46,-192.194 2497.65,-201.053 2504.44,-202.743"/>
</g>
<!-- Trunc_hprop_allpath -->
<g id="node4" class="node"><title>Trunc_hprop_allpath</title>
<g id="a_node4"><a xlink:href="Trunc.html#hprop_allpath" xlink:title="hprop_allpath">
<ellipse fill="#f070d1" stroke="black" cx="2480" cy="-1033.94" rx="59.6142" ry="18"/>
<ellipse fill="none" stroke="black" cx="2480" cy="-1033.94" rx="63.6021" ry="22"/>
<ellipse fill="none" stroke="black" cx="2480" cy="-1033.94" rx="67.59" ry="26"/>
<text text-anchor="middle" x="2480" y="-1030.24" font-family="Times,serif" font-size="14.00">hprop_allpath</text>
</a>
</g>
</g>
<!-- Trunc_hprop_inhabited_contr -->
<g id="node6" class="node"><title>Trunc_hprop_inhabited_contr</title>
<g id="a_node6"><a xlink:href="Trunc.html#hprop_inhabited_contr" xlink:title="hprop_inhabited_contr">
<ellipse fill="#f070d1" stroke="black" cx="2295" cy="-1033.94" rx="90.9845" ry="18"/>
<ellipse fill="none" stroke="black" cx="2295" cy="-1033.94" rx="94.9842" ry="22"/>
<ellipse fill="none" stroke="black" cx="2295" cy="-1033.94" rx="98.9839" ry="26"/>
<text text-anchor="middle" x="2295" y="-1030.24" font-family="Times,serif" font-size="14.00">hprop_inhabited_contr</text>
</a>
</g>
</g>
<!-- Trunc_contr_inhabited_hprop -->
<g id="node7" class="node"><title>Trunc_contr_inhabited_hprop</title>
<g id="a_node7"><a xlink:href="Trunc.html#contr_inhabited_hprop" xlink:title="contr_inhabited_hprop">
<ellipse fill="#f070d1" stroke="black" cx="2079" cy="-1033.94" rx="90.9845" ry="18"/>
<ellipse fill="none" stroke="black" cx="2079" cy="-1033.94" rx="94.9842" ry="22"/>
<ellipse fill="none" stroke="black" cx="2079" cy="-1033.94" rx="98.9839" ry="26"/>
<text text-anchor="middle" x="2079" y="-1030.24" font-family="Times,serif" font-size="14.00">contr_inhabited_hprop</text>
</a>
</g>
</g>
<!-- Trunc_default_TruncType -->
<g id="node8" class="node"><title>Trunc_default_TruncType</title>
<g id="a_node8"><a xlink:href="Trunc.html#default_TruncType" xlink:title="default_TruncType">
<ellipse fill="#f070d1" stroke="black" cx="1978" cy="-583.944" rx="78.7731" ry="18"/>
<ellipse fill="none" stroke="black" cx="1978" cy="-583.944" rx="82.7797" ry="22"/>
<ellipse fill="none" stroke="black" cx="1978" cy="-583.944" rx="86.7863" ry="26"/>
<text text-anchor="middle" x="1978" y="-580.244" font-family="Times,serif" font-size="14.00">default_TruncType</text>
</a>
</g>
</g>
<!-- Trunc_BuildTruncType -->
<g id="node14" class="node"><title>Trunc_BuildTruncType</title>
<g id="a_node14"><a xlink:href="Trunc.html#BuildTruncType" xlink:title="BuildTruncType">
<ellipse fill="#7faaff" stroke="black" cx="1892" cy="-173.944" rx="69.5877" ry="18"/>
<text text-anchor="middle" x="1892" y="-170.244" font-family="Times,serif" font-size="14.00">BuildTruncType</text>
</a>
</g>
</g>
<!-- Trunc_default_TruncType&#45;&gt;Trunc_BuildTruncType -->
<g id="edge4" class="edge"><title>Trunc_default_TruncType&#45;&gt;Trunc_BuildTruncType</title>
<path fill="none" stroke="black" d="M1972.56,-557.985C1957.25,-485.003 1913.91,-278.385 1897.97,-202.422"/>
<polygon fill="black" stroke="black" points="1901.31,-201.262 1895.83,-192.194 1894.46,-202.699 1901.31,-201.262"/>
</g>
<!-- Trunc_TruncType_rec -->
<g id="node9" class="node"><title>Trunc_TruncType_rec</title>
<g id="a_node9"><a xlink:href="Trunc.html#TruncType_rec" xlink:title="TruncType_rec">
<ellipse fill="#f070d1" stroke="black" cx="1889" cy="-1033.94" rx="64.9891" ry="18"/>
<ellipse fill="none" stroke="black" cx="1889" cy="-1033.94" rx="68.9888" ry="22"/>
<ellipse fill="none" stroke="black" cx="1889" cy="-1033.94" rx="72.9885" ry="26"/>
<text text-anchor="middle" x="1889" y="-1030.24" font-family="Times,serif" font-size="14.00">TruncType_rec</text>
</a>
</g>
</g>
<!-- Trunc_TruncType_rect -->
<g id="node11" class="node"><title>Trunc_TruncType_rect</title>
<g id="a_node11"><a xlink:href="Trunc.html#TruncType_rect" xlink:title="TruncType_rect">
<ellipse fill="#f070d1" stroke="black" cx="1806" cy="-583.944" rx="67.6881" ry="18"/>
<text text-anchor="middle" x="1806" y="-580.244" font-family="Times,serif" font-size="14.00">TruncType_rect</text>
</a>
</g>
</g>
<!-- Trunc_TruncType_rec&#45;&gt;Trunc_TruncType_rect -->
<g id="edge5" class="edge"><title>Trunc_TruncType_rec&#45;&gt;Trunc_TruncType_rect</title>
<path fill="none" stroke="black" d="M1884.18,-1007.8C1869.64,-928.996 1826.32,-694.118 1811.24,-612.371"/>
<polygon fill="black" stroke="black" points="1814.64,-611.513 1809.39,-602.314 1807.76,-612.783 1814.64,-611.513"/>
</g>
<!-- Trunc_TruncType_ind -->
<g id="node10" class="node"><title>Trunc_TruncType_ind</title>
<g id="a_node10"><a xlink:href="Trunc.html#TruncType_ind" xlink:title="TruncType_ind">
<ellipse fill="#7fffd4" stroke="black" cx="1724" cy="-1033.94" rx="65.7729" ry="18"/>
<ellipse fill="none" stroke="black" cx="1724" cy="-1033.94" rx="69.7808" ry="22"/>
<ellipse fill="none" stroke="black" cx="1724" cy="-1033.94" rx="73.7886" ry="26"/>
<text text-anchor="middle" x="1724" y="-1030.24" font-family="Times,serif" font-size="14.00">TruncType_ind</text>
</a>
</g>
</g>
<!-- Trunc_TruncType_ind&#45;&gt;Trunc_TruncType_rect -->
<g id="edge6" class="edge"><title>Trunc_TruncType_ind&#45;&gt;Trunc_TruncType_rect</title>
<path fill="none" stroke="black" d="M1728.76,-1007.8C1743.12,-928.996 1785.92,-694.118 1800.82,-612.371"/>
<polygon fill="black" stroke="black" points="1804.3,-612.78 1802.65,-602.314 1797.42,-611.525 1804.3,-612.78"/>
</g>
<!-- Trunc_TruncType_rect&#45;&gt;Trunc_BuildTruncType -->
<g id="edge7" class="edge"><title>Trunc_TruncType_rect&#45;&gt;Trunc_BuildTruncType</title>
<path fill="none" stroke="black" d="M1809.81,-565.798C1823.37,-501.116 1869.44,-281.498 1886,-202.525"/>
<polygon fill="black" stroke="black" points="1889.51,-202.851 1888.14,-192.346 1882.66,-201.414 1889.51,-202.851"/>
</g>
<!-- Trunc_istrunc_trunctype_type -->
<g id="node12" class="node"><title>Trunc_istrunc_trunctype_type</title>
<g id="a_node12"><a xlink:href="Trunc.html#istrunc_trunctype_type" xlink:title="istrunc_trunctype_type">
<ellipse fill="#f070d1" stroke="black" cx="1533" cy="-1033.94" rx="91.7725" ry="18"/>
<ellipse fill="none" stroke="black" cx="1533" cy="-1033.94" rx="95.7782" ry="22"/>
<ellipse fill="none" stroke="black" cx="1533" cy="-1033.94" rx="99.7839" ry="26"/>
<text text-anchor="middle" x="1533" y="-1030.24" font-family="Times,serif" font-size="14.00">istrunc_trunctype_type</text>
</a>
</g>
</g>
<!-- Trunc_trunctype_type -->
<g id="node13" class="node"><title>Trunc_trunctype_type</title>
<g id="a_node13"><a xlink:href="Trunc.html#trunctype_type" xlink:title="trunctype_type">
<ellipse fill="#f070d1" stroke="black" cx="1344" cy="-1033.94" rx="63.8675" ry="18"/>
<ellipse fill="none" stroke="black" cx="1344" cy="-1033.94" rx="67.8784" ry="22"/>
<ellipse fill="none" stroke="black" cx="1344" cy="-1033.94" rx="71.8892" ry="26"/>
<text text-anchor="middle" x="1344" y="-1030.24" font-family="Times,serif" font-size="14.00">trunctype_type</text>
</a>
</g>
</g>
<!-- Trunc_TruncType -->
<g id="node15" class="node"><title>Trunc_TruncType</title>
<g id="a_node15"><a xlink:href="Trunc.html#TruncType" xlink:title="TruncType">
<ellipse fill="#e2cdfa" stroke="black" cx="1196" cy="-1033.94" rx="50.0849" ry="18"/>
<ellipse fill="none" stroke="black" cx="1196" cy="-1033.94" rx="54.088" ry="22"/>
<ellipse fill="none" stroke="black" cx="1196" cy="-1033.94" rx="58.0912" ry="26"/>
<text text-anchor="middle" x="1196" y="-1030.24" font-family="Times,serif" font-size="14.00">TruncType</text>
</a>
</g>
</g>
<!-- Trunc_istruncmap_fiber -->
<g id="node16" class="node"><title>Trunc_istruncmap_fiber</title>
<g id="a_node16"><a xlink:href="Trunc.html#istruncmap_fiber" xlink:title="istruncmap_fiber">
<ellipse fill="#f070d1" stroke="black" cx="1040" cy="-1033.94" rx="71.488" ry="18"/>
<ellipse fill="none" stroke="black" cx="1040" cy="-1033.94" rx="75.4876" ry="22"/>
<ellipse fill="none" stroke="black" cx="1040" cy="-1033.94" rx="79.4873" ry="26"/>
<text text-anchor="middle" x="1040" y="-1030.24" font-family="Times,serif" font-size="14.00">istruncmap_fiber</text>
</a>
</g>
</g>
<!-- Trunc_IsTruncMap -->
<g id="node17" class="node"><title>Trunc_IsTruncMap</title>
<g id="a_node17"><a xlink:href="Trunc.html#IsTruncMap" xlink:title="IsTruncMap">
<ellipse fill="#f070d1" stroke="black" cx="1040" cy="-583.944" rx="54.6905" ry="18"/>
<text text-anchor="middle" x="1040" y="-580.244" font-family="Times,serif" font-size="14.00">IsTruncMap</text>
</a>
</g>
</g>
<!-- Trunc_istruncmap_fiber&#45;&gt;Trunc_IsTruncMap -->
<g id="edge8" class="edge"><title>Trunc_istruncmap_fiber&#45;&gt;Trunc_IsTruncMap</title>
<path fill="none" stroke="black" d="M1040,-1007.8C1040,-928.996 1040,-694.118 1040,-612.371"/>
<polygon fill="black" stroke="black" points="1043.5,-612.314 1040,-602.314 1036.5,-612.314 1043.5,-612.314"/>
</g>
<!-- Trunc_trunc_equiv_ -->
<g id="node18" class="node"><title>Trunc_trunc_equiv_</title>
<g id="a_node18"><a xlink:href="Trunc.html#trunc_equiv'" xlink:title="trunc_equiv&#39;">
<ellipse fill="#f070d1" stroke="black" cx="881" cy="-1033.94" rx="53.8975" ry="18"/>
<ellipse fill="none" stroke="black" cx="881" cy="-1033.94" rx="57.894" ry="22"/>
<ellipse fill="none" stroke="black" cx="881" cy="-1033.94" rx="61.8905" ry="26"/>
<text text-anchor="middle" x="881" y="-1030.24" font-family="Times,serif" font-size="14.00">trunc_equiv&#39;</text>
</a>
</g>
</g>
<!-- Trunc_trunc_equiv -->
<g id="node19" class="node"><title>Trunc_trunc_equiv</title>
<g id="a_node19"><a xlink:href="Trunc.html#trunc_equiv" xlink:title="trunc_equiv">
<ellipse fill="#facdef" stroke="black" cx="881" cy="-583.944" rx="52.7911" ry="18"/>
<text text-anchor="middle" x="881" y="-580.244" font-family="Times,serif" font-size="14.00">trunc_equiv</text>
</a>
</g>
</g>
<!-- Trunc_trunc_equiv_&#45;&gt;Trunc_trunc_equiv -->
<g id="edge9" class="edge"><title>Trunc_trunc_equiv_&#45;&gt;Trunc_trunc_equiv</title>
<path fill="none" stroke="black" d="M881,-1007.8C881,-928.996 881,-694.118 881,-612.371"/>
<polygon fill="black" stroke="black" points="884.5,-612.314 881,-602.314 877.5,-612.314 884.5,-612.314"/>
</g>
<!-- Trunc_trunc_hset -->
<g id="node20" class="node"><title>Trunc_trunc_hset</title>
<g id="a_node20"><a xlink:href="Trunc.html#trunc_hset" xlink:title="trunc_hset">
<ellipse fill="#f070d1" stroke="black" cx="746" cy="-1033.94" rx="47.3994" ry="18"/>
<ellipse fill="none" stroke="black" cx="746" cy="-1033.94" rx="51.3955" ry="22"/>
<ellipse fill="none" stroke="black" cx="746" cy="-1033.94" rx="55.3916" ry="26"/>
<text text-anchor="middle" x="746" y="-1030.24" font-family="Times,serif" font-size="14.00">trunc_hset</text>
</a>
</g>
</g>
<!-- Trunc_trunc_leq -->
<g id="node23" class="node"><title>Trunc_trunc_leq</title>
<g id="a_node23"><a xlink:href="Trunc.html#trunc_leq" xlink:title="trunc_leq">
<ellipse fill="#f070d1" stroke="black" cx="611" cy="-583.944" rx="44.393" ry="18"/>
<text text-anchor="middle" x="611" y="-580.244" font-family="Times,serif" font-size="14.00">trunc_leq</text>
</a>
</g>
</g>
<!-- Trunc_trunc_hset&#45;&gt;Trunc_trunc_leq -->
<g id="edge10" class="edge"><title>Trunc_trunc_hset&#45;&gt;Trunc_trunc_leq</title>
<path fill="none" stroke="black" d="M738.257,-1008.13C714.664,-929.492 643.8,-693.276 619.379,-611.875"/>
<polygon fill="black" stroke="black" points="622.605,-610.448 616.379,-601.875 615.901,-612.459 622.605,-610.448"/>
</g>
<!-- Trunc_trunc_hprop -->
<g id="node21" class="node"><title>Trunc_trunc_hprop</title>
<g id="a_node21"><a xlink:href="Trunc.html#trunc_hprop" xlink:title="trunc_hprop">
<ellipse fill="#f070d1" stroke="black" cx="611" cy="-1033.94" rx="53.8975" ry="18"/>
<ellipse fill="none" stroke="black" cx="611" cy="-1033.94" rx="57.894" ry="22"/>
<ellipse fill="none" stroke="black" cx="611" cy="-1033.94" rx="61.8905" ry="26"/>
<text text-anchor="middle" x="611" y="-1030.24" font-family="Times,serif" font-size="14.00">trunc_hprop</text>
</a>
</g>
</g>
<!-- Trunc_trunc_hprop&#45;&gt;Trunc_trunc_leq -->
<g id="edge11" class="edge"><title>Trunc_trunc_hprop&#45;&gt;Trunc_trunc_leq</title>
<path fill="none" stroke="black" d="M611,-1007.8C611,-928.996 611,-694.118 611,-612.371"/>
<polygon fill="black" stroke="black" points="614.5,-612.314 611,-602.314 607.5,-612.314 614.5,-612.314"/>
</g>
<!-- Trunc_trunc_contr -->
<g id="node22" class="node"><title>Trunc_trunc_contr</title>
<g id="a_node22"><a xlink:href="Trunc.html#trunc_contr" xlink:title="trunc_contr">
<ellipse fill="#f070d1" stroke="black" cx="472" cy="-1033.94" rx="51.2121" ry="18"/>
<ellipse fill="none" stroke="black" cx="472" cy="-1033.94" rx="55.2017" ry="22"/>
<ellipse fill="none" stroke="black" cx="472" cy="-1033.94" rx="59.1913" ry="26"/>
<text text-anchor="middle" x="472" y="-1030.24" font-family="Times,serif" font-size="14.00">trunc_contr</text>
</a>
</g>
</g>
<!-- Trunc_trunc_contr&#45;&gt;Trunc_trunc_leq -->
<g id="edge12" class="edge"><title>Trunc_trunc_contr&#45;&gt;Trunc_trunc_leq</title>
<path fill="none" stroke="black" d="M479.972,-1008.13C504.264,-929.492 577.228,-693.276 602.372,-611.875"/>
<polygon fill="black" stroke="black" points="605.854,-612.463 605.461,-601.875 599.166,-610.397 605.854,-612.463"/>
</g>
<!-- Trunc_trunc_succ -->
<g id="node24" class="node"><title>Trunc_trunc_succ</title>
<g id="a_node24"><a xlink:href="Trunc.html#trunc_succ" xlink:title="trunc_succ">
<ellipse fill="#facdef" stroke="black" cx="544" cy="-173.944" rx="48.9926" ry="18"/>
<text text-anchor="middle" x="544" y="-170.244" font-family="Times,serif" font-size="14.00">trunc_succ</text>
</a>
</g>
</g>
<!-- Trunc_trunc_leq&#45;&gt;Trunc_trunc_succ -->
<g id="edge13" class="edge"><title>Trunc_trunc_leq&#45;&gt;Trunc_trunc_succ</title>
<path fill="none" stroke="black" d="M608.035,-565.798C597.465,-501.116 561.576,-281.498 548.671,-202.525"/>
<polygon fill="black" stroke="black" points="552.074,-201.65 547.007,-192.346 545.166,-202.779 552.074,-201.65"/>
</g>
<!-- Trunc_trunc_index_leq -->
<g id="node26" class="node"><title>Trunc_trunc_index_leq</title>
<g id="a_node26"><a xlink:href="Trunc.html#trunc_index_leq" xlink:title="trunc_index_leq">
<ellipse fill="#f070d1" stroke="black" cx="678" cy="-173.944" rx="67.6881" ry="18"/>
<text text-anchor="middle" x="678" y="-170.244" font-family="Times,serif" font-size="14.00">trunc_index_leq</text>
</a>
</g>
</g>
<!-- Trunc_trunc_leq&#45;&gt;Trunc_trunc_index_leq -->
<g id="edge14" class="edge"><title>Trunc_trunc_leq&#45;&gt;Trunc_trunc_index_leq</title>
<path fill="none" stroke="black" d="M613.965,-565.798C624.535,-501.116 660.424,-281.498 673.329,-202.525"/>
<polygon fill="black" stroke="black" points="676.834,-202.779 674.993,-192.346 669.926,-201.65 676.834,-202.779"/>
</g>
<!-- Trunc_contr_trunc_minus_two -->
<g id="node25" class="node"><title>Trunc_contr_trunc_minus_two</title>
<g id="a_node25"><a xlink:href="Trunc.html#contr_trunc_minus_two" xlink:title="contr_trunc_minus_two">
<ellipse fill="#f070d1" stroke="black" cx="292" cy="-1033.94" rx="94.7917" ry="18"/>
<ellipse fill="none" stroke="black" cx="292" cy="-1033.94" rx="98.7875" ry="22"/>
<ellipse fill="none" stroke="black" cx="292" cy="-1033.94" rx="102.783" ry="26"/>
<text text-anchor="middle" x="292" y="-1030.24" font-family="Times,serif" font-size="14.00">contr_trunc_minus_two</text>
</a>
</g>
</g>
<!-- Trunc_trunc_index_add -->
<g id="node27" class="node"><title>Trunc_trunc_index_add</title>
<g id="a_node27"><a xlink:href="Trunc.html#trunc_index_add" xlink:title="trunc_index_add">
<ellipse fill="#f070d1" stroke="black" cx="94" cy="-1033.94" rx="69.5832" ry="18"/>
<ellipse fill="none" stroke="black" cx="94" cy="-1033.94" rx="73.5854" ry="22"/>
<ellipse fill="none" stroke="black" cx="94" cy="-1033.94" rx="77.5877" ry="26"/>
<text text-anchor="middle" x="94" y="-1030.24" font-family="Times,serif" font-size="14.00">trunc_index_add</text>
</a>
</g>
</g>
</g>
</svg>
