<?xml version="1.0" encoding="UTF-8" standalone="no"?>
<!DOCTYPE svg PUBLIC "-//W3C//DTD SVG 1.1//EN"
 "http://www.w3.org/Graphics/SVG/1.1/DTD/svg11.dtd">
<!-- Generated by graphviz version 2.26.3 (20100126.1600)
 -->
<!-- Title: HoTT_categories_InitialTerminalCategory_Pseudofunctors Pages: 1 -->
<svg width="862pt" height="435pt"
 viewBox="0.00 0.00 862.00 435.00" xmlns="http://www.w3.org/2000/svg" xmlns:xlink="http://www.w3.org/1999/xlink">
<g id="graph1" class="graph" transform="scale(1 1) rotate(0) translate(4 431)">
<title>HoTT_categories_InitialTerminalCategory_Pseudofunctors</title>
<polygon fill="white" stroke="white" points="-4,5 -4,-431 859,-431 859,5 -4,5"/>
<g id="graph2" class="cluster"><title>cluster_Pseudofunctors</title>
<polygon fill="#ffffc3" stroke="black" points="8,-18.3656 8,-408.634 846,-408.634 846,-18.3656 8,-18.3656"/>
<text text-anchor="middle" x="69" y="-392.034" font-family="Times Roman,serif" font-size="14.00">Pseudofunctors</text>
</g>
<!-- Pseudofunctors_from_0 -->
<g id="node1" class="node"><title>Pseudofunctors_from_0</title>
<a xlink:href="Pseudofunctors.html#from_0" xlink:title="from_0">
<ellipse fill="#f070d1" stroke="black" cx="736" cy="-268.366" rx="45.9619" ry="18.3848"/>
<ellipse fill="none" stroke="black" cx="736" cy="-268.366" rx="49.9619" ry="22.3848"/>
<ellipse fill="none" stroke="black" cx="736" cy="-268.366" rx="53.9619" ry="26.3848"/>
<text text-anchor="middle" x="736" y="-264.766" font-family="Times Roman,serif" font-size="14.00">from_0</text>
</a>
</g>
<!-- Pseudofunctors_from_1 -->
<g id="node2" class="node"><title>Pseudofunctors_from_1</title>
<a xlink:href="Pseudofunctors.html#from_1" xlink:title="from_1">
<ellipse fill="#f070d1" stroke="black" cx="516" cy="-268.366" rx="45.9619" ry="18.3848"/>
<ellipse fill="none" stroke="black" cx="516" cy="-268.366" rx="49.9619" ry="22.3848"/>
<ellipse fill="none" stroke="black" cx="516" cy="-268.366" rx="53.9619" ry="26.3848"/>
<text text-anchor="middle" x="516" y="-264.766" font-family="Times Roman,serif" font-size="14.00">from_1</text>
</a>
</g>
<!-- Pseudofunctors_from_terminal_subproof1 -->
<g id="node5" class="node"><title>Pseudofunctors_from_terminal_subproof1</title>
<a xlink:href="Pseudofunctors.html#from_terminal_subproof1" xlink:title="from_terminal_subproof1">
<ellipse fill="#facdef" stroke="black" cx="421" cy="-80.3656" rx="133.143" ry="18.3848"/>
<text text-anchor="middle" x="421" y="-76.7656" font-family="Times Roman,serif" font-size="14.00">from_terminal_subproof1</text>
</a>
</g>
<!-- Pseudofunctors_from_1&#45;&gt;Pseudofunctors_from_terminal_subproof1 -->
<g id="edge2" class="edge"><title>Pseudofunctors_from_1&#45;&gt;Pseudofunctors_from_terminal_subproof1</title>
<path fill="none" stroke="black" d="M502.99,-242.619C485.17,-207.355 453.3,-144.286 434.984,-108.04"/>
<polygon fill="black" stroke="black" points="438.053,-106.351 430.419,-99.0047 431.805,-109.508 438.053,-106.351"/>
</g>
<!-- Pseudofunctors_from_terminal_subproof0 -->
<g id="node6" class="node"><title>Pseudofunctors_from_terminal_subproof0</title>
<a xlink:href="Pseudofunctors.html#from_terminal_subproof0" xlink:title="from_terminal_subproof0">
<ellipse fill="#facdef" stroke="black" cx="705" cy="-80.3656" rx="133.143" ry="18.3848"/>
<text text-anchor="middle" x="705" y="-76.7656" font-family="Times Roman,serif" font-size="14.00">from_terminal_subproof0</text>
</a>
</g>
<!-- Pseudofunctors_from_1&#45;&gt;Pseudofunctors_from_terminal_subproof0 -->
<g id="edge4" class="edge"><title>Pseudofunctors_from_1&#45;&gt;Pseudofunctors_from_terminal_subproof0</title>
<path fill="none" stroke="black" d="M539.937,-244.555C575.547,-209.134 642.215,-142.818 678.989,-106.239"/>
<polygon fill="black" stroke="black" points="681.739,-108.44 686.361,-98.9063 676.803,-103.477 681.739,-108.44"/>
</g>
<!-- Pseudofunctors_from_terminal_subproof -->
<g id="node7" class="node"><title>Pseudofunctors_from_terminal_subproof</title>
<a xlink:href="Pseudofunctors.html#from_terminal_subproof" xlink:title="from_terminal_subproof">
<ellipse fill="#facdef" stroke="black" cx="143" cy="-80.3656" rx="126.78" ry="18.3848"/>
<text text-anchor="middle" x="143" y="-76.7656" font-family="Times Roman,serif" font-size="14.00">from_terminal_subproof</text>
</a>
</g>
<!-- Pseudofunctors_from_1&#45;&gt;Pseudofunctors_from_terminal_subproof -->
<g id="edge6" class="edge"><title>Pseudofunctors_from_1&#45;&gt;Pseudofunctors_from_terminal_subproof</title>
<path fill="none" stroke="black" d="M478.182,-249.305C408.824,-214.347 261.614,-140.15 187.54,-102.815"/>
<polygon fill="black" stroke="black" points="188.954,-99.6081 178.449,-98.2326 185.803,-105.859 188.954,-99.6081"/>
</g>
<!-- Pseudofunctors_from_initial -->
<g id="node3" class="node"><title>Pseudofunctors_from_initial</title>
<a xlink:href="Pseudofunctors.html#from_initial" xlink:title="from_initial">
<ellipse fill="#f070d1" stroke="black" cx="370" cy="-268.366" rx="66.0219" ry="18.3848"/>
<ellipse fill="none" stroke="black" cx="370" cy="-268.366" rx="69.9951" ry="22.3848"/>
<ellipse fill="none" stroke="black" cx="370" cy="-268.366" rx="73.9683" ry="26.3848"/>
<text text-anchor="middle" x="370" y="-264.766" font-family="Times Roman,serif" font-size="14.00">from_initial</text>
</a>
</g>
<!-- Pseudofunctors_from_terminal -->
<g id="node4" class="node"><title>Pseudofunctors_from_terminal</title>
<a xlink:href="Pseudofunctors.html#from_terminal" xlink:title="from_terminal">
<ellipse fill="#f070d1" stroke="black" cx="190" cy="-268.366" rx="79.9031" ry="18.3848"/>
<ellipse fill="none" stroke="black" cx="190" cy="-268.366" rx="83.9031" ry="22.3848"/>
<ellipse fill="none" stroke="black" cx="190" cy="-268.366" rx="87.9031" ry="26.3848"/>
<text text-anchor="middle" x="190" y="-264.766" font-family="Times Roman,serif" font-size="14.00">from_terminal</text>
</a>
</g>
<!-- Pseudofunctors_from_terminal&#45;&gt;Pseudofunctors_from_terminal_subproof1 -->
<g id="edge8" class="edge"><title>Pseudofunctors_from_terminal&#45;&gt;Pseudofunctors_from_terminal_subproof1</title>
<path fill="none" stroke="black" d="M220.675,-243.401C265.041,-207.293 346.622,-140.898 390.749,-104.985"/>
<polygon fill="black" stroke="black" points="392.989,-107.675 398.536,-98.6483 388.57,-102.246 392.989,-107.675"/>
</g>
<!-- Pseudofunctors_from_terminal&#45;&gt;Pseudofunctors_from_terminal_subproof0 -->
<g id="edge10" class="edge"><title>Pseudofunctors_from_terminal&#45;&gt;Pseudofunctors_from_terminal_subproof0</title>
<path fill="none" stroke="black" d="M246.094,-247.888C344.742,-211.877 548.236,-137.592 647.718,-101.276"/>
<polygon fill="black" stroke="black" points="649.109,-104.495 657.302,-97.7775 646.709,-97.9189 649.109,-104.495"/>
</g>
<!-- Pseudofunctors_from_terminal&#45;&gt;Pseudofunctors_from_terminal_subproof -->
<g id="edge12" class="edge"><title>Pseudofunctors_from_terminal&#45;&gt;Pseudofunctors_from_terminal_subproof</title>
<path fill="none" stroke="black" d="M183.366,-241.829C174.591,-206.73 159.186,-145.11 150.157,-108.993"/>
<polygon fill="black" stroke="black" points="153.503,-107.946 147.682,-99.0933 146.712,-109.644 153.503,-107.946"/>
</g>
</g>
</svg>
