<?xml version="1.0" encoding="UTF-8" standalone="no"?>
<!DOCTYPE svg PUBLIC "-//W3C//DTD SVG 1.1//EN"
 "http://www.w3.org/Graphics/SVG/1.1/DTD/svg11.dtd">
<!-- Generated by graphviz version 2.39.20141222.0545 (20141222.0545)
 -->
<!-- Title: HoTT_HProp Pages: 1 -->
<svg width="978pt" height="493pt"
 viewBox="0.00 0.00 978.00 493.00" xmlns="http://www.w3.org/2000/svg" xmlns:xlink="http://www.w3.org/1999/xlink">
<g id="graph0" class="graph" transform="scale(1 1) rotate(0) translate(4 489)">
<title>HoTT_HProp</title>
<polygon fill="white" stroke="transparent" points="-4,4 -4,-489 974,-489 974,4 -4,4"/>
<g id="clust1" class="cluster"><title>cluster_HProp</title>
<polygon fill="#ffffc3" stroke="black" points="8,-10.9296 8,-474.07 962,-474.07 962,-10.9296 8,-10.9296"/>
<text text-anchor="middle" x="34" y="-458.87" font-family="Times,serif" font-size="14.00">HProp</text>
</g>
<!-- HProp_equiv_decidable_hprop -->
<g id="node1" class="node"><title>HProp_equiv_decidable_hprop</title>
<g id="a_node1"><a xlink:href="HProp.html#equiv_decidable_hprop" xlink:title="equiv_decidable_hprop">
<ellipse fill="#f070d1" stroke="black" cx="851" cy="-395.93" rx="92.8882" ry="18"/>
<ellipse fill="none" stroke="black" cx="851" cy="-395.93" rx="96.8858" ry="22"/>
<ellipse fill="none" stroke="black" cx="851" cy="-395.93" rx="100.884" ry="26"/>
<text text-anchor="middle" x="851" y="-392.23" font-family="Times,serif" font-size="14.00">equiv_decidable_hprop</text>
</a>
</g>
</g>
<!-- HProp_if_not_hprop_then_equiv_Empty -->
<g id="node2" class="node"><title>HProp_if_not_hprop_then_equiv_Empty</title>
<g id="a_node2"><a xlink:href="HProp.html#if_not_hprop_then_equiv_Empty" xlink:title="if_not_hprop_then_equiv_Empty">
<ellipse fill="#f070d1" stroke="black" cx="598" cy="-275.93" rx="128.077" ry="18"/>
<text text-anchor="middle" x="598" y="-272.23" font-family="Times,serif" font-size="14.00">if_not_hprop_then_equiv_Empty</text>
</a>
</g>
</g>
<!-- HProp_equiv_decidable_hprop&#45;&gt;HProp_if_not_hprop_then_equiv_Empty -->
<g id="edge1" class="edge"><title>HProp_equiv_decidable_hprop&#45;&gt;HProp_if_not_hprop_then_equiv_Empty</title>
<path fill="none" stroke="black" d="M802.817,-373.076C757.041,-351.364 688.706,-318.952 643.75,-297.629"/>
<polygon fill="black" stroke="black" points="645.064,-294.379 634.529,-293.255 642.064,-300.703 645.064,-294.379"/>
</g>
<!-- HProp_if_hprop_then_equiv_Unit -->
<g id="node3" class="node"><title>HProp_if_hprop_then_equiv_Unit</title>
<g id="a_node3"><a xlink:href="HProp.html#if_hprop_then_equiv_Unit" xlink:title="if_hprop_then_equiv_Unit">
<ellipse fill="#f070d1" stroke="black" cx="849" cy="-275.93" rx="104.782" ry="18"/>
<text text-anchor="middle" x="849" y="-272.23" font-family="Times,serif" font-size="14.00">if_hprop_then_equiv_Unit</text>
</a>
</g>
</g>
<!-- HProp_equiv_decidable_hprop&#45;&gt;HProp_if_hprop_then_equiv_Unit -->
<g id="edge2" class="edge"><title>HProp_equiv_decidable_hprop&#45;&gt;HProp_if_hprop_then_equiv_Unit</title>
<path fill="none" stroke="black" d="M850.566,-369.891C850.243,-350.493 849.802,-324.031 849.47,-304.132"/>
<polygon fill="black" stroke="black" points="852.969,-304.059 849.303,-294.118 845.97,-304.175 852.969,-304.059"/>
</g>
<!-- HProp_isequiv_equiv_iff_hprop_uncurried -->
<g id="node4" class="node"><title>HProp_isequiv_equiv_iff_hprop_uncurried</title>
<g id="a_node4"><a xlink:href="HProp.html#isequiv_equiv_iff_hprop_uncurried" xlink:title="isequiv_equiv_iff_hprop_uncurried">
<ellipse fill="#f070d1" stroke="black" cx="588" cy="-395.93" rx="135.685" ry="18"/>
<ellipse fill="none" stroke="black" cx="588" cy="-395.93" rx="139.681" ry="22"/>
<ellipse fill="none" stroke="black" cx="588" cy="-395.93" rx="143.676" ry="26"/>
<text text-anchor="middle" x="588" y="-392.23" font-family="Times,serif" font-size="14.00">isequiv_equiv_iff_hprop_uncurried</text>
</a>
</g>
</g>
<!-- HProp_equiv_contr_inhabited_allpath -->
<g id="node5" class="node"><title>HProp_equiv_contr_inhabited_allpath</title>
<g id="a_node5"><a xlink:href="HProp.html#equiv_contr_inhabited_allpath" xlink:title="equiv_contr_inhabited_allpath">
<ellipse fill="#f070d1" stroke="black" cx="300" cy="-395.93" rx="118.093" ry="18"/>
<ellipse fill="none" stroke="black" cx="300" cy="-395.93" rx="122.086" ry="22"/>
<ellipse fill="none" stroke="black" cx="300" cy="-395.93" rx="126.079" ry="26"/>
<text text-anchor="middle" x="300" y="-392.23" font-family="Times,serif" font-size="14.00">equiv_contr_inhabited_allpath</text>
</a>
</g>
</g>
<!-- HProp_equiv_contr_inhabited_hprop -->
<g id="node6" class="node"><title>HProp_equiv_contr_inhabited_hprop</title>
<g id="a_node6"><a xlink:href="HProp.html#equiv_contr_inhabited_hprop" xlink:title="equiv_contr_inhabited_hprop">
<ellipse fill="#f070d1" stroke="black" cx="318" cy="-275.93" rx="114.28" ry="18"/>
<text text-anchor="middle" x="318" y="-272.23" font-family="Times,serif" font-size="14.00">equiv_contr_inhabited_hprop</text>
</a>
</g>
</g>
<!-- HProp_equiv_contr_inhabited_allpath&#45;&gt;HProp_equiv_contr_inhabited_hprop -->
<g id="edge3" class="edge"><title>HProp_equiv_contr_inhabited_allpath&#45;&gt;HProp_equiv_contr_inhabited_hprop</title>
<path fill="none" stroke="black" d="M303.906,-369.891C306.816,-350.493 310.785,-324.031 313.77,-304.132"/>
<polygon fill="black" stroke="black" points="317.249,-304.527 315.272,-294.118 310.327,-303.488 317.249,-304.527"/>
</g>
<!-- HProp_equiv_hprop_allpath -->
<g id="node8" class="node"><title>HProp_equiv_hprop_allpath</title>
<g id="a_node8"><a xlink:href="HProp.html#equiv_hprop_allpath" xlink:title="equiv_hprop_allpath">
<ellipse fill="#f070d1" stroke="black" cx="519" cy="-155.93" rx="83.3857" ry="18"/>
<text text-anchor="middle" x="519" y="-152.23" font-family="Times,serif" font-size="14.00">equiv_hprop_allpath</text>
</a>
</g>
</g>
<!-- HProp_equiv_contr_inhabited_allpath&#45;&gt;HProp_equiv_hprop_allpath -->
<g id="edge4" class="edge"><title>HProp_equiv_contr_inhabited_allpath&#45;&gt;HProp_equiv_hprop_allpath</title>
<path fill="none" stroke="black" d="M350.796,-372.103C380.559,-355.928 416.917,-332.019 441,-301.93 456.473,-282.598 450.007,-272.117 461,-249.93 472.706,-226.303 488.569,-200.939 500.747,-182.52"/>
<polygon fill="black" stroke="black" points="503.746,-184.332 506.395,-174.073 497.927,-180.441 503.746,-184.332"/>
</g>
<!-- HProp_hprop_trunc -->
<g id="node10" class="node"><title>HProp_hprop_trunc</title>
<g id="a_node10"><a xlink:href="HProp.html#hprop_trunc" xlink:title="hprop_trunc">
<ellipse fill="#facdef" stroke="black" cx="101" cy="-155.93" rx="53.8905" ry="18"/>
<text text-anchor="middle" x="101" y="-152.23" font-family="Times,serif" font-size="14.00">hprop_trunc</text>
</a>
</g>
</g>
<!-- HProp_equiv_contr_inhabited_hprop&#45;&gt;HProp_hprop_trunc -->
<g id="edge5" class="edge"><title>HProp_equiv_contr_inhabited_hprop&#45;&gt;HProp_hprop_trunc</title>
<path fill="none" stroke="black" d="M286.446,-258.481C247.022,-236.679 179.673,-199.435 137.9,-176.335"/>
<polygon fill="black" stroke="black" points="139.584,-173.267 129.14,-171.491 136.197,-179.393 139.584,-173.267"/>
</g>
<!-- HProp_equiv_hprop_inhabited_contr -->
<g id="node7" class="node"><title>HProp_equiv_hprop_inhabited_contr</title>
<g id="a_node7"><a xlink:href="HProp.html#equiv_hprop_inhabited_contr" xlink:title="equiv_hprop_inhabited_contr">
<ellipse fill="#f070d1" stroke="black" cx="295" cy="-155.93" rx="114.287" ry="18"/>
<ellipse fill="none" stroke="black" cx="295" cy="-155.93" rx="118.283" ry="22"/>
<ellipse fill="none" stroke="black" cx="295" cy="-155.93" rx="122.28" ry="26"/>
<text text-anchor="middle" x="295" y="-152.23" font-family="Times,serif" font-size="14.00">equiv_hprop_inhabited_contr</text>
</a>
</g>
</g>
<!-- HProp_contr_contr -->
<g id="node11" class="node"><title>HProp_contr_contr</title>
<g id="a_node11"><a xlink:href="HProp.html#contr_contr" xlink:title="contr_contr">
<ellipse fill="#facdef" stroke="black" cx="295" cy="-46.9296" rx="51.1914" ry="18"/>
<text text-anchor="middle" x="295" y="-43.2296" font-family="Times,serif" font-size="14.00">contr_contr</text>
</a>
</g>
</g>
<!-- HProp_equiv_hprop_inhabited_contr&#45;&gt;HProp_contr_contr -->
<g id="edge6" class="edge"><title>HProp_equiv_hprop_inhabited_contr&#45;&gt;HProp_contr_contr</title>
<path fill="none" stroke="black" d="M295,-129.821C295,-113.392 295,-92.1867 295,-75.3368"/>
<polygon fill="black" stroke="black" points="298.5,-74.987 295,-64.987 291.5,-74.987 298.5,-74.987"/>
</g>
<!-- HProp_equiv_hprop_allpath&#45;&gt;HProp_contr_contr -->
<g id="edge7" class="edge"><title>HProp_equiv_hprop_allpath&#45;&gt;HProp_contr_contr</title>
<path fill="none" stroke="black" d="M484.979,-139.375C444.472,-119.664 376.949,-86.8067 334.264,-66.0358"/>
<polygon fill="black" stroke="black" points="335.551,-62.7698 325.028,-61.5414 332.488,-69.0642 335.551,-62.7698"/>
</g>
<!-- HProp_isprop_istruncmap -->
<g id="node9" class="node"><title>HProp_isprop_istruncmap</title>
<g id="a_node9"><a xlink:href="HProp.html#isprop_istruncmap" xlink:title="isprop_istruncmap">
<ellipse fill="#f070d1" stroke="black" cx="101" cy="-275.93" rx="76.8685" ry="18"/>
<ellipse fill="none" stroke="black" cx="101" cy="-275.93" rx="80.8777" ry="22"/>
<ellipse fill="none" stroke="black" cx="101" cy="-275.93" rx="84.8868" ry="26"/>
<text text-anchor="middle" x="101" y="-272.23" font-family="Times,serif" font-size="14.00">isprop_istruncmap</text>
</a>
</g>
</g>
<!-- HProp_isprop_istruncmap&#45;&gt;HProp_hprop_trunc -->
<g id="edge8" class="edge"><title>HProp_isprop_istruncmap&#45;&gt;HProp_hprop_trunc</title>
<path fill="none" stroke="black" d="M101,-249.891C101,-230.493 101,-204.031 101,-184.132"/>
<polygon fill="black" stroke="black" points="104.5,-184.118 101,-174.118 97.5001,-184.118 104.5,-184.118"/>
</g>
<!-- HProp_hprop_trunc&#45;&gt;HProp_contr_contr -->
<g id="edge9" class="edge"><title>HProp_hprop_trunc&#45;&gt;HProp_contr_contr</title>
<path fill="none" stroke="black" d="M128.795,-140.313C162.89,-121.156 220.787,-88.6267 258.455,-67.4624"/>
<polygon fill="black" stroke="black" points="260.566,-70.2913 267.57,-62.3416 257.137,-64.1886 260.566,-70.2913"/>
</g>
</g>
</svg>
