<?xml version="1.0" encoding="UTF-8" standalone="no"?>
<!DOCTYPE svg PUBLIC "-//W3C//DTD SVG 1.1//EN"
 "http://www.w3.org/Graphics/SVG/1.1/DTD/svg11.dtd">
<!-- Generated by graphviz version 2.39.20141222.0545 (20141222.0545)
 -->
<!-- Title: HoTT_Basics_Decidable Pages: 1 -->
<svg width="1180pt" height="594pt"
 viewBox="0.00 0.00 1180.00 594.00" xmlns="http://www.w3.org/2000/svg" xmlns:xlink="http://www.w3.org/1999/xlink">
<g id="graph0" class="graph" transform="scale(1 1) rotate(0) translate(4 590)">
<title>HoTT_Basics_Decidable</title>
<polygon fill="white" stroke="transparent" points="-4,4 -4,-590 1176,-590 1176,4 -4,4"/>
<g id="clust1" class="cluster"><title>cluster_Decidable</title>
<polygon fill="#ffffc3" stroke="black" points="8,-9.39479 8,-576.605 1164,-576.605 1164,-9.39479 8,-9.39479"/>
<text text-anchor="middle" x="43.5" y="-561.405" font-family="Times,serif" font-size="14.00">Decidable</text>
</g>
<!-- Decidable_ishprop_decpaths -->
<g id="node1" class="node"><title>Decidable_ishprop_decpaths</title>
<g id="a_node1"><a xlink:href="Decidable.html#ishprop_decpaths" xlink:title="ishprop_decpaths">
<ellipse fill="#f070d1" stroke="black" cx="1032" cy="-509.395" rx="72.2731" ry="18"/>
<ellipse fill="none" stroke="black" cx="1032" cy="-509.395" rx="76.2803" ry="22"/>
<ellipse fill="none" stroke="black" cx="1032" cy="-509.395" rx="80.2875" ry="26"/>
<text text-anchor="middle" x="1032" y="-505.695" font-family="Times,serif" font-size="14.00">ishprop_decpaths</text>
</a>
</g>
</g>
<!-- Decidable_hset_pathcoll -->
<g id="node5" class="node"><title>Decidable_hset_pathcoll</title>
<g id="a_node5"><a xlink:href="Decidable.html#hset_pathcoll" xlink:title="hset_pathcoll">
<ellipse fill="#f070d1" stroke="black" cx="1062" cy="-415.395" rx="57.6901" ry="18"/>
<text text-anchor="middle" x="1062" y="-411.695" font-family="Times,serif" font-size="14.00">hset_pathcoll</text>
</a>
</g>
</g>
<!-- Decidable_ishprop_decpaths&#45;&gt;Decidable_hset_pathcoll -->
<g id="edge1" class="edge"><title>Decidable_ishprop_decpaths&#45;&gt;Decidable_hset_pathcoll</title>
<path fill="none" stroke="black" d="M1040.28,-483.46C1044.27,-470.939 1049.07,-455.903 1053.14,-443.152"/>
<polygon fill="black" stroke="black" points="1056.51,-444.098 1056.22,-433.507 1049.84,-441.969 1056.51,-444.098"/>
</g>
<!-- Decidable_pathcoll_decpaths -->
<g id="node6" class="node"><title>Decidable_pathcoll_decpaths</title>
<g id="a_node6"><a xlink:href="Decidable.html#pathcoll_decpaths" xlink:title="pathcoll_decpaths">
<ellipse fill="#f070d1" stroke="black" cx="785" cy="-321.395" rx="74.187" ry="18"/>
<text text-anchor="middle" x="785" y="-317.695" font-family="Times,serif" font-size="14.00">pathcoll_decpaths</text>
</a>
</g>
</g>
<!-- Decidable_ishprop_decpaths&#45;&gt;Decidable_pathcoll_decpaths -->
<g id="edge2" class="edge"><title>Decidable_ishprop_decpaths&#45;&gt;Decidable_pathcoll_decpaths</title>
<path fill="none" stroke="black" d="M1000.47,-485.394C952.741,-449.068 862.742,-380.567 815.584,-344.673"/>
<polygon fill="black" stroke="black" points="817.648,-341.846 807.571,-338.575 813.409,-347.416 817.648,-341.846"/>
</g>
<!-- Decidable_hset_decpaths -->
<g id="node2" class="node"><title>Decidable_hset_decpaths</title>
<g id="a_node2"><a xlink:href="Decidable.html#hset_decpaths" xlink:title="hset_decpaths">
<ellipse fill="#f070d1" stroke="black" cx="807" cy="-509.395" rx="59.6142" ry="18"/>
<ellipse fill="none" stroke="black" cx="807" cy="-509.395" rx="63.6021" ry="22"/>
<ellipse fill="none" stroke="black" cx="807" cy="-509.395" rx="67.59" ry="26"/>
<text text-anchor="middle" x="807" y="-505.695" font-family="Times,serif" font-size="14.00">hset_decpaths</text>
</a>
</g>
</g>
<!-- Decidable_hset_decpaths&#45;&gt;Decidable_hset_pathcoll -->
<g id="edge3" class="edge"><title>Decidable_hset_decpaths&#45;&gt;Decidable_hset_pathcoll</title>
<path fill="none" stroke="black" d="M856.167,-491.271C902.01,-474.372 969.912,-449.341 1015.03,-432.708"/>
<polygon fill="black" stroke="black" points="1016.41,-435.932 1024.58,-429.189 1013.99,-429.364 1016.41,-435.932"/>
</g>
<!-- Decidable_hset_decpaths&#45;&gt;Decidable_pathcoll_decpaths -->
<g id="edge4" class="edge"><title>Decidable_hset_decpaths&#45;&gt;Decidable_pathcoll_decpaths</title>
<path fill="none" stroke="black" d="M803.941,-483.254C799.832,-448.143 792.559,-385.986 788.32,-349.769"/>
<polygon fill="black" stroke="black" points="791.748,-348.946 787.109,-339.421 784.796,-349.76 791.748,-348.946"/>
</g>
<!-- Decidable_pathcoll_hset -->
<g id="node3" class="node"><title>Decidable_pathcoll_hset</title>
<g id="a_node3"><a xlink:href="Decidable.html#pathcoll_hset" xlink:title="pathcoll_hset">
<ellipse fill="#f070d1" stroke="black" cx="943" cy="-321.395" rx="57.7089" ry="18"/>
<ellipse fill="none" stroke="black" cx="943" cy="-321.395" rx="61.6995" ry="22"/>
<ellipse fill="none" stroke="black" cx="943" cy="-321.395" rx="65.6901" ry="26"/>
<text text-anchor="middle" x="943" y="-317.695" font-family="Times,serif" font-size="14.00">pathcoll_hset</text>
</a>
</g>
</g>
<!-- Decidable_collapsible_hprop -->
<g id="node4" class="node"><title>Decidable_collapsible_hprop</title>
<g id="a_node4"><a xlink:href="Decidable.html#collapsible_hprop" xlink:title="collapsible_hprop">
<ellipse fill="#f070d1" stroke="black" cx="912" cy="-218.395" rx="73.387" ry="18"/>
<text text-anchor="middle" x="912" y="-214.695" font-family="Times,serif" font-size="14.00">collapsible_hprop</text>
</a>
</g>
</g>
<!-- Decidable_pathcoll_hset&#45;&gt;Decidable_collapsible_hprop -->
<g id="edge5" class="edge"><title>Decidable_pathcoll_hset&#45;&gt;Decidable_collapsible_hprop</title>
<path fill="none" stroke="black" d="M935.177,-295.404C930.689,-280.49 925.051,-261.758 920.46,-246.503"/>
<polygon fill="black" stroke="black" points="923.709,-245.154 917.475,-236.587 917.006,-247.171 923.709,-245.154"/>
</g>
<!-- Decidable_PathCollapsible -->
<g id="node9" class="node"><title>Decidable_PathCollapsible</title>
<g id="a_node9"><a xlink:href="Decidable.html#PathCollapsible" xlink:title="PathCollapsible">
<ellipse fill="#f070d1" stroke="black" cx="1070" cy="-218.395" rx="66.0889" ry="18"/>
<text text-anchor="middle" x="1070" y="-214.695" font-family="Times,serif" font-size="14.00">PathCollapsible</text>
</a>
</g>
</g>
<!-- Decidable_pathcoll_hset&#45;&gt;Decidable_PathCollapsible -->
<g id="edge6" class="edge"><title>Decidable_pathcoll_hset&#45;&gt;Decidable_PathCollapsible</title>
<path fill="none" stroke="black" d="M972.136,-297.765C992.824,-280.986 1020.48,-258.56 1041.11,-241.826"/>
<polygon fill="black" stroke="black" points="1043.36,-244.507 1048.92,-235.49 1038.95,-239.071 1043.36,-244.507"/>
</g>
<!-- Decidable_Build_Collapsible -->
<g id="node15" class="node"><title>Decidable_Build_Collapsible</title>
<g id="a_node15"><a xlink:href="Decidable.html#Build_Collapsible" xlink:title="Build_Collapsible">
<ellipse fill="#7faaff" stroke="black" cx="750" cy="-124.395" rx="74.9875" ry="18"/>
<text text-anchor="middle" x="750" y="-120.695" font-family="Times,serif" font-size="14.00">Build_Collapsible</text>
</a>
</g>
</g>
<!-- Decidable_collapsible_hprop&#45;&gt;Decidable_Build_Collapsible -->
<g id="edge7" class="edge"><title>Decidable_collapsible_hprop&#45;&gt;Decidable_Build_Collapsible</title>
<path fill="none" stroke="black" d="M883.411,-201.806C856.739,-186.33 816.782,-163.145 787.55,-146.183"/>
<polygon fill="black" stroke="black" points="789.255,-143.126 778.849,-141.134 785.741,-149.18 789.255,-143.126"/>
</g>
<!-- Decidable_path_coll -->
<g id="node8" class="node"><title>Decidable_path_coll</title>
<g id="a_node8"><a xlink:href="Decidable.html#path_coll" xlink:title="path_coll">
<ellipse fill="#f070d1" stroke="black" cx="1070" cy="-321.395" rx="43.5923" ry="18"/>
<text text-anchor="middle" x="1070" y="-317.695" font-family="Times,serif" font-size="14.00">path_coll</text>
</a>
</g>
</g>
<!-- Decidable_hset_pathcoll&#45;&gt;Decidable_path_coll -->
<g id="edge8" class="edge"><title>Decidable_hset_pathcoll&#45;&gt;Decidable_path_coll</title>
<path fill="none" stroke="black" d="M1063.54,-397.271C1064.69,-383.746 1066.29,-365.014 1067.6,-349.546"/>
<polygon fill="black" stroke="black" points="1071.1,-349.724 1068.46,-339.463 1064.13,-349.13 1071.1,-349.724"/>
</g>
<!-- Decidable_wconst -->
<g id="node17" class="node"><title>Decidable_wconst</title>
<g id="a_node17"><a xlink:href="Decidable.html#wconst" xlink:title="wconst">
<ellipse fill="#f070d1" stroke="black" cx="1102" cy="-124.395" rx="35.9954" ry="18"/>
<text text-anchor="middle" x="1102" y="-120.695" font-family="Times,serif" font-size="14.00">wconst</text>
</a>
</g>
</g>
<!-- Decidable_hset_pathcoll&#45;&gt;Decidable_wconst -->
<g id="edge9" class="edge"><title>Decidable_hset_pathcoll&#45;&gt;Decidable_wconst</title>
<path fill="none" stroke="black" d="M1082.02,-398.351C1095.63,-385.664 1112.93,-367.182 1123,-347.395 1144.23,-305.677 1140.08,-290.946 1145,-244.395 1147.43,-221.411 1151.43,-214.593 1145,-192.395 1140.5,-176.849 1131.26,-161.444 1122.5,-149.238"/>
<polygon fill="black" stroke="black" points="1125.08,-146.851 1116.28,-140.959 1119.49,-151.056 1125.08,-146.851"/>
</g>
<!-- Decidable_collapsible_decidable -->
<g id="node7" class="node"><title>Decidable_collapsible_decidable</title>
<g id="a_node7"><a xlink:href="Decidable.html#collapsible_decidable" xlink:title="collapsible_decidable">
<ellipse fill="#f070d1" stroke="black" cx="733" cy="-218.395" rx="87.1846" ry="18"/>
<text text-anchor="middle" x="733" y="-214.695" font-family="Times,serif" font-size="14.00">collapsible_decidable</text>
</a>
</g>
</g>
<!-- Decidable_pathcoll_decpaths&#45;&gt;Decidable_collapsible_decidable -->
<g id="edge10" class="edge"><title>Decidable_pathcoll_decpaths&#45;&gt;Decidable_collapsible_decidable</title>
<path fill="none" stroke="black" d="M775.942,-303.454C767.864,-287.453 755.922,-263.797 746.68,-245.492"/>
<polygon fill="black" stroke="black" points="749.76,-243.826 742.128,-236.476 743.511,-246.98 749.76,-243.826"/>
</g>
<!-- Decidable_pathcoll_decpaths&#45;&gt;Decidable_PathCollapsible -->
<g id="edge11" class="edge"><title>Decidable_pathcoll_decpaths&#45;&gt;Decidable_PathCollapsible</title>
<path fill="none" stroke="black" d="M826.441,-306.418C877.852,-287.838 965.418,-256.191 1020.36,-236.335"/>
<polygon fill="black" stroke="black" points="1021.67,-239.581 1029.89,-232.891 1019.3,-232.998 1021.67,-239.581"/>
</g>
<!-- Decidable_dec_paths -->
<g id="node23" class="node"><title>Decidable_dec_paths</title>
<g id="a_node23"><a xlink:href="Decidable.html#dec_paths" xlink:title="dec_paths">
<ellipse fill="#f070d1" stroke="black" cx="582" cy="-218.395" rx="46.2923" ry="18"/>
<text text-anchor="middle" x="582" y="-214.695" font-family="Times,serif" font-size="14.00">dec_paths</text>
</a>
</g>
</g>
<!-- Decidable_pathcoll_decpaths&#45;&gt;Decidable_dec_paths -->
<g id="edge12" class="edge"><title>Decidable_pathcoll_decpaths&#45;&gt;Decidable_dec_paths</title>
<path fill="none" stroke="black" d="M752.834,-305.074C716.659,-286.719 657.975,-256.944 619.682,-237.514"/>
<polygon fill="black" stroke="black" points="620.914,-234.215 610.412,-232.811 617.747,-240.457 620.914,-234.215"/>
</g>
<!-- Decidable_collapsible_decidable&#45;&gt;Decidable_Build_Collapsible -->
<g id="edge13" class="edge"><title>Decidable_collapsible_decidable&#45;&gt;Decidable_Build_Collapsible</title>
<path fill="none" stroke="black" d="M736.278,-200.271C738.724,-186.746 742.111,-168.014 744.909,-152.546"/>
<polygon fill="black" stroke="black" points="748.397,-152.927 746.732,-142.463 741.508,-151.681 748.397,-152.927"/>
</g>
<!-- Decidable_Collapsible -->
<g id="node16" class="node"><title>Decidable_Collapsible</title>
<g id="a_node16"><a xlink:href="Decidable.html#Collapsible" xlink:title="Collapsible">
<ellipse fill="#e2cdfa" stroke="black" cx="963" cy="-124.395" rx="50.8918" ry="18"/>
<text text-anchor="middle" x="963" y="-120.695" font-family="Times,serif" font-size="14.00">Collapsible</text>
</a>
</g>
</g>
<!-- Decidable_collapsible_decidable&#45;&gt;Decidable_Collapsible -->
<g id="edge14" class="edge"><title>Decidable_collapsible_decidable&#45;&gt;Decidable_Collapsible</title>
<path fill="none" stroke="black" d="M772.538,-202.236C813.647,-185.435 877.79,-159.22 920.103,-141.927"/>
<polygon fill="black" stroke="black" points="921.64,-145.08 929.572,-138.057 918.991,-138.6 921.64,-145.08"/>
</g>
<!-- Decidable_dec -->
<g id="node25" class="node"><title>Decidable_dec</title>
<g id="a_node25"><a xlink:href="Decidable.html#dec" xlink:title="dec">
<ellipse fill="#f070d1" stroke="black" cx="598" cy="-124.395" rx="27" ry="18"/>
<text text-anchor="middle" x="598" y="-120.695" font-family="Times,serif" font-size="14.00">dec</text>
</a>
</g>
</g>
<!-- Decidable_collapsible_decidable&#45;&gt;Decidable_dec -->
<g id="edge15" class="edge"><title>Decidable_collapsible_decidable&#45;&gt;Decidable_dec</title>
<path fill="none" stroke="black" d="M707.924,-200.934C684.426,-184.573 649.394,-160.18 625.224,-143.351"/>
<polygon fill="black" stroke="black" points="627.059,-140.363 616.852,-137.521 623.059,-146.108 627.059,-140.363"/>
</g>
<!-- Decidable_path_coll&#45;&gt;Decidable_PathCollapsible -->
<g id="edge16" class="edge"><title>Decidable_path_coll&#45;&gt;Decidable_PathCollapsible</title>
<path fill="none" stroke="black" d="M1070,-302.98C1070,-287.382 1070,-264.76 1070,-246.835"/>
<polygon fill="black" stroke="black" points="1073.5,-246.65 1070,-236.65 1066.5,-246.65 1073.5,-246.65"/>
</g>
<!-- Decidable_PathCollapsible&#45;&gt;Decidable_Collapsible -->
<g id="edge17" class="edge"><title>Decidable_PathCollapsible&#45;&gt;Decidable_Collapsible</title>
<path fill="none" stroke="black" d="M1050.37,-201.154C1033.38,-186.22 1008.63,-164.478 989.805,-147.943"/>
<polygon fill="black" stroke="black" points="991.964,-145.181 982.141,-141.21 987.344,-150.44 991.964,-145.181"/>
</g>
<!-- Decidable_Collapsible_rec -->
<g id="node10" class="node"><title>Decidable_Collapsible_rec</title>
<g id="a_node10"><a xlink:href="Decidable.html#Collapsible_rec" xlink:title="Collapsible_rec">
<ellipse fill="#f070d1" stroke="black" cx="450" cy="-321.395" rx="65.7729" ry="18"/>
<ellipse fill="none" stroke="black" cx="450" cy="-321.395" rx="69.7808" ry="22"/>
<ellipse fill="none" stroke="black" cx="450" cy="-321.395" rx="73.7886" ry="26"/>
<text text-anchor="middle" x="450" y="-317.695" font-family="Times,serif" font-size="14.00">Collapsible_rec</text>
</a>
</g>
</g>
<!-- Decidable_Collapsible_rect -->
<g id="node12" class="node"><title>Decidable_Collapsible_rect</title>
<g id="a_node12"><a xlink:href="Decidable.html#Collapsible_rect" xlink:title="Collapsible_rect">
<ellipse fill="#f070d1" stroke="black" cx="450" cy="-218.395" rx="68.4888" ry="18"/>
<text text-anchor="middle" x="450" y="-214.695" font-family="Times,serif" font-size="14.00">Collapsible_rect</text>
</a>
</g>
</g>
<!-- Decidable_Collapsible_rec&#45;&gt;Decidable_Collapsible_rect -->
<g id="edge18" class="edge"><title>Decidable_Collapsible_rec&#45;&gt;Decidable_Collapsible_rect</title>
<path fill="none" stroke="black" d="M450,-295.137C450,-280.365 450,-261.912 450,-246.803"/>
<polygon fill="black" stroke="black" points="453.5,-246.493 450,-236.493 446.5,-246.493 453.5,-246.493"/>
</g>
<!-- Decidable_Collapsible_ind -->
<g id="node11" class="node"><title>Decidable_Collapsible_ind</title>
<g id="a_node11"><a xlink:href="Decidable.html#Collapsible_ind" xlink:title="Collapsible_ind">
<ellipse fill="#7fffd4" stroke="black" cx="616" cy="-321.395" rx="66.1109" ry="18"/>
<ellipse fill="none" stroke="black" cx="616" cy="-321.395" rx="70.0999" ry="22"/>
<ellipse fill="none" stroke="black" cx="616" cy="-321.395" rx="74.0888" ry="26"/>
<text text-anchor="middle" x="616" y="-317.695" font-family="Times,serif" font-size="14.00">Collapsible_ind</text>
</a>
</g>
</g>
<!-- Decidable_Collapsible_ind&#45;&gt;Decidable_Collapsible_rect -->
<g id="edge19" class="edge"><title>Decidable_Collapsible_ind&#45;&gt;Decidable_Collapsible_rect</title>
<path fill="none" stroke="black" d="M579.159,-298.536C551.234,-281.209 513.087,-257.539 485.497,-240.42"/>
<polygon fill="black" stroke="black" points="487.279,-237.407 476.936,-235.108 483.588,-243.355 487.279,-237.407"/>
</g>
<!-- Decidable_Collapsible_rect&#45;&gt;Decidable_Build_Collapsible -->
<g id="edge20" class="edge"><title>Decidable_Collapsible_rect&#45;&gt;Decidable_Build_Collapsible</title>
<path fill="none" stroke="black" d="M491.886,-204C503.257,-200.161 515.581,-196.063 527,-192.395 583.186,-174.347 647.707,-154.799 692.844,-141.315"/>
<polygon fill="black" stroke="black" points="693.874,-144.66 702.456,-138.447 691.872,-137.952 693.874,-144.66"/>
</g>
<!-- Decidable_wconst_collapse -->
<g id="node13" class="node"><title>Decidable_wconst_collapse</title>
<g id="a_node13"><a xlink:href="Decidable.html#wconst_collapse" xlink:title="wconst_collapse">
<ellipse fill="#f070d1" stroke="black" cx="540" cy="-509.395" rx="68.7989" ry="18"/>
<ellipse fill="none" stroke="black" cx="540" cy="-509.395" rx="72.7934" ry="22"/>
<ellipse fill="none" stroke="black" cx="540" cy="-509.395" rx="76.7879" ry="26"/>
<text text-anchor="middle" x="540" y="-505.695" font-family="Times,serif" font-size="14.00">wconst_collapse</text>
</a>
</g>
</g>
<!-- Decidable_collapse -->
<g id="node14" class="node"><title>Decidable_collapse</title>
<g id="a_node14"><a xlink:href="Decidable.html#collapse" xlink:title="collapse">
<ellipse fill="#f070d1" stroke="black" cx="190" cy="-509.395" rx="39.7687" ry="18"/>
<ellipse fill="none" stroke="black" cx="190" cy="-509.395" rx="43.7811" ry="22"/>
<ellipse fill="none" stroke="black" cx="190" cy="-509.395" rx="47.7934" ry="26"/>
<text text-anchor="middle" x="190" y="-505.695" font-family="Times,serif" font-size="14.00">collapse</text>
</a>
</g>
</g>
<!-- Decidable_WeaklyConstant -->
<g id="node18" class="node"><title>Decidable_WeaklyConstant</title>
<g id="a_node18"><a xlink:href="Decidable.html#WeaklyConstant" xlink:title="WeaklyConstant">
<ellipse fill="#f070d1" stroke="black" cx="963" cy="-40.3948" rx="69.5877" ry="18"/>
<text text-anchor="middle" x="963" y="-36.6948" font-family="Times,serif" font-size="14.00">WeaklyConstant</text>
</a>
</g>
</g>
<!-- Decidable_Build_Collapsible&#45;&gt;Decidable_WeaklyConstant -->
<g id="edge21" class="edge"><title>Decidable_Build_Collapsible&#45;&gt;Decidable_WeaklyConstant</title>
<path fill="none" stroke="black" d="M789.067,-108.988C824.608,-94.972 877.168,-74.244 915.202,-59.2448"/>
<polygon fill="black" stroke="black" points="916.52,-62.4872 924.539,-55.5625 913.952,-55.9753 916.52,-62.4872"/>
</g>
<!-- Decidable_Collapsible&#45;&gt;Decidable_WeaklyConstant -->
<g id="edge22" class="edge"><title>Decidable_Collapsible&#45;&gt;Decidable_WeaklyConstant</title>
<path fill="none" stroke="black" d="M963,-106.168C963,-95.2706 963,-81.1894 963,-68.8535"/>
<polygon fill="black" stroke="black" points="966.5,-68.5859 963,-58.586 959.5,-68.586 966.5,-68.5859"/>
</g>
<!-- Decidable_wconst&#45;&gt;Decidable_WeaklyConstant -->
<g id="edge23" class="edge"><title>Decidable_wconst&#45;&gt;Decidable_WeaklyConstant</title>
<path fill="none" stroke="black" d="M1079.05,-110.524C1057.39,-97.4352 1024.57,-77.6013 999.351,-62.3622"/>
<polygon fill="black" stroke="black" points="1001.15,-59.3587 990.779,-57.1821 997.527,-65.3498 1001.15,-59.3587"/>
</g>
<!-- Decidable_decidablepaths_equiv_ -->
<g id="node19" class="node"><title>Decidable_decidablepaths_equiv_</title>
<g id="a_node19"><a xlink:href="Decidable.html#decidablepaths_equiv'" xlink:title="decidablepaths_equiv&#39;">
<ellipse fill="#f070d1" stroke="black" cx="262" cy="-321.395" rx="88.2934" ry="18"/>
<ellipse fill="none" stroke="black" cx="262" cy="-321.395" rx="92.2889" ry="22"/>
<ellipse fill="none" stroke="black" cx="262" cy="-321.395" rx="96.2844" ry="26"/>
<text text-anchor="middle" x="262" y="-317.695" font-family="Times,serif" font-size="14.00">decidablepaths_equiv&#39;</text>
</a>
</g>
</g>
<!-- Decidable_decidablepaths_equiv -->
<g id="node20" class="node"><title>Decidable_decidablepaths_equiv</title>
<g id="a_node20"><a xlink:href="Decidable.html#decidablepaths_equiv" xlink:title="decidablepaths_equiv">
<ellipse fill="#f070d1" stroke="black" cx="277" cy="-218.395" rx="87.1846" ry="18"/>
<text text-anchor="middle" x="277" y="-214.695" font-family="Times,serif" font-size="14.00">decidablepaths_equiv</text>
</a>
</g>
</g>
<!-- Decidable_decidablepaths_equiv_&#45;&gt;Decidable_decidablepaths_equiv -->
<g id="edge24" class="edge"><title>Decidable_decidablepaths_equiv_&#45;&gt;Decidable_decidablepaths_equiv</title>
<path fill="none" stroke="black" d="M265.785,-295.404C267.957,-280.49 270.685,-261.758 272.907,-246.503"/>
<polygon fill="black" stroke="black" points="276.373,-246.987 274.351,-236.587 269.446,-245.978 276.373,-246.987"/>
</g>
<!-- Decidable_DecidablePaths -->
<g id="node24" class="node"><title>Decidable_DecidablePaths</title>
<g id="a_node24"><a xlink:href="Decidable.html#DecidablePaths" xlink:title="DecidablePaths">
<ellipse fill="#f070d1" stroke="black" cx="423" cy="-124.395" rx="65.7887" ry="18"/>
<text text-anchor="middle" x="423" y="-120.695" font-family="Times,serif" font-size="14.00">DecidablePaths</text>
</a>
</g>
</g>
<!-- Decidable_decidablepaths_equiv&#45;&gt;Decidable_DecidablePaths -->
<g id="edge25" class="edge"><title>Decidable_decidablepaths_equiv&#45;&gt;Decidable_DecidablePaths</title>
<path fill="none" stroke="black" d="M303.779,-201.154C327.594,-185.82 362.559,-163.309 388.471,-146.626"/>
<polygon fill="black" stroke="black" points="390.369,-149.567 396.882,-141.21 386.58,-143.681 390.369,-149.567"/>
</g>
<!-- Decidable_decidable_equiv_ -->
<g id="node21" class="node"><title>Decidable_decidable_equiv_</title>
<g id="a_node21"><a xlink:href="Decidable.html#decidable_equiv'" xlink:title="decidable_equiv&#39;">
<ellipse fill="#f070d1" stroke="black" cx="94" cy="-218.395" rx="69.5832" ry="18"/>
<ellipse fill="none" stroke="black" cx="94" cy="-218.395" rx="73.5854" ry="22"/>
<ellipse fill="none" stroke="black" cx="94" cy="-218.395" rx="77.5877" ry="26"/>
<text text-anchor="middle" x="94" y="-214.695" font-family="Times,serif" font-size="14.00">decidable_equiv&#39;</text>
</a>
</g>
</g>
<!-- Decidable_decidable_equiv -->
<g id="node22" class="node"><title>Decidable_decidable_equiv</title>
<g id="a_node22"><a xlink:href="Decidable.html#decidable_equiv" xlink:title="decidable_equiv">
<ellipse fill="#f070d1" stroke="black" cx="143" cy="-124.395" rx="68.4888" ry="18"/>
<text text-anchor="middle" x="143" y="-120.695" font-family="Times,serif" font-size="14.00">decidable_equiv</text>
</a>
</g>
</g>
<!-- Decidable_decidable_equiv_&#45;&gt;Decidable_decidable_equiv -->
<g id="edge26" class="edge"><title>Decidable_decidable_equiv_&#45;&gt;Decidable_decidable_equiv</title>
<path fill="none" stroke="black" d="M107.389,-192.709C114.093,-179.849 122.205,-164.288 128.992,-151.267"/>
<polygon fill="black" stroke="black" points="132.142,-152.796 133.661,-142.311 125.935,-149.56 132.142,-152.796"/>
</g>
<!-- Decidable_Decidable -->
<g id="node26" class="node"><title>Decidable_Decidable</title>
<g id="a_node26"><a xlink:href="Decidable.html#Decidable" xlink:title="Decidable">
<ellipse fill="#f070d1" stroke="black" cx="423" cy="-40.3948" rx="46.2923" ry="18"/>
<text text-anchor="middle" x="423" y="-36.6948" font-family="Times,serif" font-size="14.00">Decidable</text>
</a>
</g>
</g>
<!-- Decidable_decidable_equiv&#45;&gt;Decidable_Decidable -->
<g id="edge27" class="edge"><title>Decidable_decidable_equiv&#45;&gt;Decidable_Decidable</title>
<path fill="none" stroke="black" d="M188.298,-110.805C240.063,-95.276 324.345,-69.9913 376.576,-54.3221"/>
<polygon fill="black" stroke="black" points="377.685,-57.6434 386.258,-51.4175 375.674,-50.9386 377.685,-57.6434"/>
</g>
<!-- Decidable_dec_paths&#45;&gt;Decidable_DecidablePaths -->
<g id="edge28" class="edge"><title>Decidable_dec_paths&#45;&gt;Decidable_DecidablePaths</title>
<path fill="none" stroke="black" d="M556.454,-203.292C530.28,-187.818 489.334,-163.611 459.696,-146.09"/>
<polygon fill="black" stroke="black" points="461.28,-142.96 450.89,-140.883 457.717,-148.986 461.28,-142.96"/>
</g>
<!-- Decidable_DecidablePaths&#45;&gt;Decidable_Decidable -->
<g id="edge29" class="edge"><title>Decidable_DecidablePaths&#45;&gt;Decidable_Decidable</title>
<path fill="none" stroke="black" d="M423,-106.168C423,-95.2706 423,-81.1894 423,-68.8535"/>
<polygon fill="black" stroke="black" points="426.5,-68.5859 423,-58.586 419.5,-68.586 426.5,-68.5859"/>
</g>
<!-- Decidable_dec&#45;&gt;Decidable_Decidable -->
<g id="edge30" class="edge"><title>Decidable_dec&#45;&gt;Decidable_Decidable</title>
<path fill="none" stroke="black" d="M575.836,-113.756C547.169,-99.9957 496.762,-75.8008 461.71,-58.9757"/>
<polygon fill="black" stroke="black" points="462.792,-55.6125 452.262,-54.4405 459.762,-61.9232 462.792,-55.6125"/>
</g>
</g>
</svg>
