<?xml version="1.0" encoding="UTF-8" standalone="no"?>
<!DOCTYPE svg PUBLIC "-//W3C//DTD SVG 1.1//EN"
 "http://www.w3.org/Graphics/SVG/1.1/DTD/svg11.dtd">
<!-- Generated by graphviz version 2.26.3 (20100126.1600)
 -->
<!-- Title: HoTT_hit_unique_choice Pages: 1 -->
<svg width="676pt" height="342pt"
 viewBox="0.00 0.00 676.00 342.00" xmlns="http://www.w3.org/2000/svg" xmlns:xlink="http://www.w3.org/1999/xlink">
<g id="graph1" class="graph" transform="scale(1 1) rotate(0) translate(4 338)">
<title>HoTT_hit_unique_choice</title>
<polygon fill="white" stroke="white" points="-4,5 -4,-338 673,-338 673,5 -4,5"/>
<g id="graph2" class="cluster"><title>cluster_unique_choice</title>
<polygon fill="#ffffc3" stroke="black" points="15.4451,-8 15.4451,-326 652.555,-326 652.555,-8 15.4451,-8"/>
<text text-anchor="middle" x="72.4451" y="-309.4" font-family="Times Roman,serif" font-size="14.00">unique_choice</text>
</g>
<!-- unique_choice_unique_choice -->
<g id="node1" class="node"><title>unique_choice_unique_choice</title>
<a xlink:href="unique_choice.html#unique_choice" xlink:title="unique_choice">
<ellipse fill="#facdef" stroke="black" cx="466.792" cy="-265" rx="80.1547" ry="18.3848"/>
<ellipse fill="none" stroke="black" cx="466.792" cy="-265" rx="84.1321" ry="22.3848"/>
<ellipse fill="none" stroke="black" cx="466.792" cy="-265" rx="88.1096" ry="26.3848"/>
<text text-anchor="middle" x="466.792" y="-261.4" font-family="Times Roman,serif" font-size="14.00">unique_choice</text>
</a>
</g>
<!-- unique_choice_iota -->
<g id="node2" class="node"><title>unique_choice_iota</title>
<a xlink:href="unique_choice.html#iota" xlink:title="iota">
<ellipse fill="#facdef" stroke="black" cx="466.792" cy="-183" rx="29.9071" ry="18.3848"/>
<text text-anchor="middle" x="466.792" y="-179.4" font-family="Times Roman,serif" font-size="14.00">iota</text>
</a>
</g>
<!-- unique_choice_unique_choice&#45;&gt;unique_choice_iota -->
<g id="edge2" class="edge"><title>unique_choice_unique_choice&#45;&gt;unique_choice_iota</title>
<path fill="none" stroke="black" d="M466.792,-238.15C466.792,-229.743 466.792,-220.43 466.792,-211.889"/>
<polygon fill="black" stroke="black" points="470.292,-211.607 466.792,-201.607 463.292,-211.607 470.292,-211.607"/>
</g>
<!-- unique_choice_atmost -->
<g id="node3" class="node"><title>unique_choice_atmost</title>
<a xlink:href="unique_choice.html#atmost" xlink:title="atmost">
<ellipse fill="#facdef" stroke="black" cx="277.792" cy="-109" rx="45.9619" ry="18.3848"/>
<text text-anchor="middle" x="277.792" y="-105.4" font-family="Times Roman,serif" font-size="14.00">atmost</text>
</a>
</g>
<!-- unique_choice_iota&#45;&gt;unique_choice_atmost -->
<g id="edge4" class="edge"><title>unique_choice_iota&#45;&gt;unique_choice_atmost</title>
<path fill="none" stroke="black" d="M441.303,-173.02C410.317,-160.888 357.566,-140.234 320.374,-125.672"/>
<polygon fill="black" stroke="black" points="321.39,-122.312 310.803,-121.925 318.838,-128.83 321.39,-122.312"/>
</g>
<!-- unique_choice_hunique -->
<g id="node4" class="node"><title>unique_choice_hunique</title>
<a xlink:href="unique_choice.html#hunique" xlink:title="hunique">
<ellipse fill="#f070d1" stroke="black" cx="499.792" cy="-109" rx="51.1176" ry="18.3848"/>
<text text-anchor="middle" x="499.792" y="-105.4" font-family="Times Roman,serif" font-size="14.00">hunique</text>
</a>
</g>
<!-- unique_choice_iota&#45;&gt;unique_choice_hunique -->
<g id="edge6" class="edge"><title>unique_choice_iota&#45;&gt;unique_choice_hunique</title>
<path fill="none" stroke="black" d="M474.78,-165.087C478.546,-156.642 483.127,-146.371 487.333,-136.937"/>
<polygon fill="black" stroke="black" points="490.656,-138.08 491.532,-127.521 484.263,-135.229 490.656,-138.08"/>
</g>
<!-- unique_choice_atmost1P -->
<g id="node5" class="node"><title>unique_choice_atmost1P</title>
<a xlink:href="unique_choice.html#atmost1P" xlink:title="atmost1P">
<ellipse fill="#f070d1" stroke="black" cx="277.792" cy="-35" rx="58.1882" ry="18.3848"/>
<text text-anchor="middle" x="277.792" y="-31.4" font-family="Times Roman,serif" font-size="14.00">atmost1P</text>
</a>
</g>
<!-- unique_choice_atmost&#45;&gt;unique_choice_atmost1P -->
<g id="edge8" class="edge"><title>unique_choice_atmost&#45;&gt;unique_choice_atmost1P</title>
<path fill="none" stroke="black" d="M277.792,-90.3267C277.792,-82.2639 277.792,-72.6477 277.792,-63.7115"/>
<polygon fill="black" stroke="black" points="281.292,-63.6673 277.792,-53.6674 274.292,-63.6674 281.292,-63.6673"/>
</g>
<!-- unique_choice_hunique&#45;&gt;unique_choice_atmost1P -->
<g id="edge10" class="edge"><title>unique_choice_hunique&#45;&gt;unique_choice_atmost1P</title>
<path fill="none" stroke="black" d="M462.133,-96.4469C425.219,-84.1424 368.719,-65.309 328,-51.7362"/>
<polygon fill="black" stroke="black" points="328.864,-48.3347 318.27,-48.4927 326.65,-54.9755 328.864,-48.3347"/>
</g>
<!-- unique_choice_hexists -->
<g id="node7" class="node"><title>unique_choice_hexists</title>
<a xlink:href="unique_choice.html#hexists" xlink:title="hexists">
<ellipse fill="#f070d1" stroke="black" cx="513.792" cy="-35" rx="45.9619" ry="18.3848"/>
<text text-anchor="middle" x="513.792" y="-31.4" font-family="Times Roman,serif" font-size="14.00">hexists</text>
</a>
</g>
<!-- unique_choice_hunique&#45;&gt;unique_choice_hexists -->
<g id="edge12" class="edge"><title>unique_choice_hunique&#45;&gt;unique_choice_hexists</title>
<path fill="none" stroke="black" d="M503.325,-90.3267C504.85,-82.2639 506.669,-72.6477 508.36,-63.7115"/>
<polygon fill="black" stroke="black" points="511.84,-64.1437 510.26,-53.6674 504.962,-62.8424 511.84,-64.1437"/>
</g>
<!-- unique_choice_atmost1 -->
<g id="node6" class="node"><title>unique_choice_atmost1</title>
<a xlink:href="unique_choice.html#atmost1" xlink:title="atmost1">
<ellipse fill="#f070d1" stroke="black" cx="146.792" cy="-265" rx="51.8935" ry="18.3848"/>
<ellipse fill="none" stroke="black" cx="146.792" cy="-265" rx="55.8604" ry="22.3848"/>
<ellipse fill="none" stroke="black" cx="146.792" cy="-265" rx="59.8273" ry="26.3848"/>
<text text-anchor="middle" x="146.792" y="-261.4" font-family="Times Roman,serif" font-size="14.00">atmost1</text>
</a>
</g>
</g>
</svg>
