<?xml version="1.0" encoding="UTF-8" standalone="no"?>
<!DOCTYPE svg PUBLIC "-//W3C//DTD SVG 1.1//EN"
 "http://www.w3.org/Graphics/SVG/1.1/DTD/svg11.dtd">
<!-- Generated by graphviz version 2.26.3 (20100126.1600)
 -->
<!-- Title: HoTT_categories_Adjoint_UniversalMorphisms_FunctorialParts Pages: 1 -->
<svg width="380pt" height="194pt"
 viewBox="0.00 0.00 380.00 194.00" xmlns="http://www.w3.org/2000/svg" xmlns:xlink="http://www.w3.org/1999/xlink">
<g id="graph1" class="graph" transform="scale(1 1) rotate(0) translate(4 190)">
<title>HoTT_categories_Adjoint_UniversalMorphisms_FunctorialParts</title>
<polygon fill="white" stroke="white" points="-4,5 -4,-190 377,-190 377,5 -4,5"/>
<g id="graph2" class="cluster"><title>cluster_FunctorialParts</title>
<polygon fill="#ffffc3" stroke="black" points="10.3333,-8 10.3333,-178 361.667,-178 361.667,-8 10.3333,-8"/>
<text text-anchor="middle" x="70.3333" y="-161.4" font-family="Times Roman,serif" font-size="14.00">FunctorialParts</text>
</g>
<!-- FunctorialParts_terminal_morphism_of -->
<g id="node1" class="node"><title>FunctorialParts_terminal_morphism_of</title>
<a xlink:href="FunctorialParts.html#terminal_morphism_of" xlink:title="terminal_morphism_of">
<ellipse fill="#f070d1" stroke="black" cx="186.292" cy="-117" rx="120.208" ry="18.3848"/>
<ellipse fill="none" stroke="black" cx="186.292" cy="-117" rx="124.208" ry="22.3848"/>
<ellipse fill="none" stroke="black" cx="186.292" cy="-117" rx="128.208" ry="26.3848"/>
<text text-anchor="middle" x="186.292" y="-113.4" font-family="Times Roman,serif" font-size="14.00">terminal_morphism_of</text>
</a>
</g>
<!-- FunctorialParts_initial_morphism_of -->
<g id="node2" class="node"><title>FunctorialParts_initial_morphism_of</title>
<a xlink:href="FunctorialParts.html#initial_morphism_of" xlink:title="initial_morphism_of">
<ellipse fill="#f070d1" stroke="black" cx="186.292" cy="-35" rx="106.066" ry="18.3848"/>
<text text-anchor="middle" x="186.292" y="-31.4" font-family="Times Roman,serif" font-size="14.00">initial_morphism_of</text>
</a>
</g>
<!-- FunctorialParts_terminal_morphism_of&#45;&gt;FunctorialParts_initial_morphism_of -->
<g id="edge2" class="edge"><title>FunctorialParts_terminal_morphism_of&#45;&gt;FunctorialParts_initial_morphism_of</title>
<path fill="none" stroke="black" d="M186.292,-90.1501C186.292,-81.7426 186.292,-72.4303 186.292,-63.8885"/>
<polygon fill="black" stroke="black" points="189.792,-63.607 186.292,-53.6071 182.792,-63.6071 189.792,-63.607"/>
</g>
</g>
</svg>
