<?xml version="1.0" encoding="UTF-8" standalone="no"?>
<!DOCTYPE svg PUBLIC "-//W3C//DTD SVG 1.1//EN"
 "http://www.w3.org/Graphics/SVG/1.1/DTD/svg11.dtd">
<!-- Generated by graphviz version 2.26.3 (20100126.1600)
 -->
<!-- Title: HoTT_categories_Functor_Core Pages: 1 -->
<svg width="1184pt" height="596pt"
 viewBox="0.00 0.00 1184.00 596.00" xmlns="http://www.w3.org/2000/svg" xmlns:xlink="http://www.w3.org/1999/xlink">
<g id="graph1" class="graph" transform="scale(1 1) rotate(0) translate(4 592)">
<title>HoTT_categories_Functor_Core</title>
<polygon fill="white" stroke="white" points="-4,5 -4,-592 1181,-592 1181,5 -4,5"/>
<g id="graph2" class="cluster"><title>cluster_Core</title>
<polygon fill="#ffffc3" stroke="black" points="8,-18.0923 8,-569.908 1168,-569.908 1168,-18.0923 8,-18.0923"/>
<text text-anchor="middle" x="32.5" y="-553.308" font-family="Times Roman,serif" font-size="14.00">Core</text>
</g>
<!-- Core_Functor_rec -->
<g id="node1" class="node"><title>Core_Functor_rec</title>
<a xlink:href="Core.html#Functor_rec" xlink:title="Functor_rec">
<ellipse fill="#f070d1" stroke="black" cx="1083" cy="-432.092" rx="68.8494" ry="18.3848"/>
<ellipse fill="none" stroke="black" cx="1083" cy="-432.092" rx="72.8236" ry="22.3848"/>
<ellipse fill="none" stroke="black" cx="1083" cy="-432.092" rx="76.7978" ry="26.3848"/>
<text text-anchor="middle" x="1083" y="-428.492" font-family="Times Roman,serif" font-size="14.00">Functor_rec</text>
</a>
</g>
<!-- Core_Functor_rect -->
<g id="node3" class="node"><title>Core_Functor_rect</title>
<a xlink:href="Core.html#Functor_rect" xlink:title="Functor_rect">
<ellipse fill="#f070d1" stroke="black" cx="996" cy="-246.092" rx="73.0388" ry="18.3848"/>
<text text-anchor="middle" x="996" y="-242.492" font-family="Times Roman,serif" font-size="14.00">Functor_rect</text>
</a>
</g>
<!-- Core_Functor_rec&#45;&gt;Core_Functor_rect -->
<g id="edge2" class="edge"><title>Core_Functor_rec&#45;&gt;Core_Functor_rect</title>
<path fill="none" stroke="black" d="M1070.72,-405.838C1054.41,-370.963 1025.72,-309.624 1009.03,-273.957"/>
<polygon fill="black" stroke="black" points="1012.07,-272.196 1004.67,-264.621 1005.73,-275.162 1012.07,-272.196"/>
</g>
<!-- Core_Functor_ind -->
<g id="node2" class="node"><title>Core_Functor_ind</title>
<a xlink:href="Core.html#Functor_ind" xlink:title="Functor_ind">
<ellipse fill="#7fffd4" stroke="black" cx="911" cy="-432.092" rx="68.8494" ry="18.3848"/>
<ellipse fill="none" stroke="black" cx="911" cy="-432.092" rx="72.8236" ry="22.3848"/>
<ellipse fill="none" stroke="black" cx="911" cy="-432.092" rx="76.7978" ry="26.3848"/>
<text text-anchor="middle" x="911" y="-428.492" font-family="Times Roman,serif" font-size="14.00">Functor_ind</text>
</a>
</g>
<!-- Core_Functor_ind&#45;&gt;Core_Functor_rect -->
<g id="edge4" class="edge"><title>Core_Functor_ind&#45;&gt;Core_Functor_rect</title>
<path fill="none" stroke="black" d="M922.998,-405.838C938.935,-370.963 966.967,-309.624 983.266,-273.957"/>
<polygon fill="black" stroke="black" points="986.56,-275.171 987.533,-264.621 980.193,-272.261 986.56,-275.171"/>
</g>
<!-- Core_Build_Functor -->
<g id="node8" class="node"><title>Core_Build_Functor</title>
<a xlink:href="Core.html#Build_Functor" xlink:title="Build_Functor">
<ellipse fill="#7faaff" stroke="black" cx="996" cy="-79.0923" rx="77.9889" ry="18.3848"/>
<text text-anchor="middle" x="996" y="-75.4923" font-family="Times Roman,serif" font-size="14.00">Build_Functor</text>
</a>
</g>
<!-- Core_Functor_rect&#45;&gt;Core_Build_Functor -->
<g id="edge6" class="edge"><title>Core_Functor_rect&#45;&gt;Core_Build_Functor</title>
<path fill="none" stroke="black" d="M996,-227.582C996,-198.616 996,-142.344 996,-108.002"/>
<polygon fill="black" stroke="black" points="999.5,-107.685 996,-97.6852 992.5,-107.685 999.5,-107.685"/>
</g>
<!-- Core_identity_of -->
<g id="node4" class="node"><title>Core_identity_of</title>
<a xlink:href="Core.html#identity_of" xlink:title="identity_of">
<ellipse fill="#f070d1" stroke="black" cx="745" cy="-432.092" rx="63.1946" ry="18.3848"/>
<ellipse fill="none" stroke="black" cx="745" cy="-432.092" rx="67.1666" ry="22.3848"/>
<ellipse fill="none" stroke="black" cx="745" cy="-432.092" rx="71.1386" ry="26.3848"/>
<text text-anchor="middle" x="745" y="-428.492" font-family="Times Roman,serif" font-size="14.00">identity_of</text>
</a>
</g>
<!-- Core_composition_of -->
<g id="node5" class="node"><title>Core_composition_of</title>
<a xlink:href="Core.html#composition_of" xlink:title="composition_of">
<ellipse fill="#f070d1" stroke="black" cx="564" cy="-432.092" rx="84.1457" ry="18.3848"/>
<ellipse fill="none" stroke="black" cx="564" cy="-432.092" rx="88.1457" ry="22.3848"/>
<ellipse fill="none" stroke="black" cx="564" cy="-432.092" rx="92.1457" ry="26.3848"/>
<text text-anchor="middle" x="564" y="-428.492" font-family="Times Roman,serif" font-size="14.00">composition_of</text>
</a>
</g>
<!-- Core_morphism_of -->
<g id="node6" class="node"><title>Core_morphism_of</title>
<a xlink:href="Core.html#morphism_of" xlink:title="morphism_of">
<ellipse fill="#f070d1" stroke="black" cx="373" cy="-432.092" rx="73.0879" ry="18.3848"/>
<ellipse fill="none" stroke="black" cx="373" cy="-432.092" rx="77.0634" ry="22.3848"/>
<ellipse fill="none" stroke="black" cx="373" cy="-432.092" rx="81.0389" ry="26.3848"/>
<text text-anchor="middle" x="373" y="-428.492" font-family="Times Roman,serif" font-size="14.00">morphism_of</text>
</a>
</g>
<!-- Core_object_of -->
<g id="node7" class="node"><title>Core_object_of</title>
<a xlink:href="Core.html#object_of" xlink:title="object_of">
<ellipse fill="#f070d1" stroke="black" cx="211" cy="-432.092" rx="55.1543" ry="18.3848"/>
<ellipse fill="none" stroke="black" cx="211" cy="-432.092" rx="59.1543" ry="22.3848"/>
<ellipse fill="none" stroke="black" cx="211" cy="-432.092" rx="63.1543" ry="26.3848"/>
<text text-anchor="middle" x="211" y="-428.492" font-family="Times Roman,serif" font-size="14.00">object_of</text>
</a>
</g>
<!-- Core_Functor -->
<g id="node9" class="node"><title>Core_Functor</title>
<a xlink:href="Core.html#Functor" xlink:title="Functor">
<ellipse fill="#e2cdfa" stroke="black" cx="73" cy="-432.092" rx="48.7904" ry="18.3848"/>
<ellipse fill="none" stroke="black" cx="73" cy="-432.092" rx="52.7904" ry="22.3848"/>
<ellipse fill="none" stroke="black" cx="73" cy="-432.092" rx="56.7904" ry="26.3848"/>
<text text-anchor="middle" x="73" y="-428.492" font-family="Times Roman,serif" font-size="14.00">Functor</text>
</a>
</g>
</g>
</svg>
