<?xml version="1.0" encoding="UTF-8" standalone="no"?>
<!DOCTYPE svg PUBLIC "-//W3C//DTD SVG 1.1//EN"
 "http://www.w3.org/Graphics/SVG/1.1/DTD/svg11.dtd">
<!-- Generated by graphviz version 2.26.3 (20100126.1600)
 -->
<!-- Title: HoTT_Basics_Trunc Pages: 1 -->
<svg width="3562pt" height="1785pt"
 viewBox="0.00 0.00 3562.00 1785.00" xmlns="http://www.w3.org/2000/svg" xmlns:xlink="http://www.w3.org/1999/xlink">
<g id="graph1" class="graph" transform="scale(1 1) rotate(0) translate(4 1781)">
<title>HoTT_Basics_Trunc</title>
<polygon fill="white" stroke="white" points="-4,5 -4,-1781 3559,-1781 3559,5 -4,5"/>
<g id="graph2" class="cluster"><title>cluster_Trunc</title>
<polygon fill="#ffffc3" stroke="black" points="8,-26.8226 8,-1750.18 3546,-1750.18 3546,-26.8226 8,-26.8226"/>
<text text-anchor="middle" x="35" y="-1733.58" font-family="Times Roman,serif" font-size="14.00">Trunc</text>
</g>
<!-- Trunc_hset_decpaths -->
<g id="node1" class="node"><title>Trunc_hset_decpaths</title>
<a xlink:href="Trunc.html#hset_decpaths" xlink:title="hset_decpaths">
<ellipse fill="#f070d1" stroke="black" cx="3448" cy="-1545.82" rx="82.0244" ry="18.3848"/>
<ellipse fill="none" stroke="black" cx="3448" cy="-1545.82" rx="86.0244" ry="22.3848"/>
<ellipse fill="none" stroke="black" cx="3448" cy="-1545.82" rx="90.0244" ry="26.3848"/>
<text text-anchor="middle" x="3448" y="-1542.22" font-family="Times Roman,serif" font-size="14.00">hset_decpaths</text>
</a>
</g>
<!-- Trunc_hset_pathcoll -->
<g id="node4" class="node"><title>Trunc_hset_pathcoll</title>
<a xlink:href="Trunc.html#hset_pathcoll" xlink:title="hset_pathcoll">
<ellipse fill="#f070d1" stroke="black" cx="3195" cy="-1243.82" rx="75.8684" ry="18.3848"/>
<text text-anchor="middle" x="3195" y="-1240.22" font-family="Times Roman,serif" font-size="14.00">hset_pathcoll</text>
</a>
</g>
<!-- Trunc_hset_decpaths&#45;&gt;Trunc_hset_pathcoll -->
<g id="edge2" class="edge"><title>Trunc_hset_decpaths&#45;&gt;Trunc_hset_pathcoll</title>
<path fill="none" stroke="black" d="M3426.43,-1520.07C3378.82,-1463.25 3265.17,-1327.59 3217.09,-1270.19"/>
<polygon fill="black" stroke="black" points="3219.59,-1267.73 3210.49,-1262.31 3214.23,-1272.22 3219.59,-1267.73"/>
</g>
<!-- Trunc_pathcoll_decpaths -->
<g id="node5" class="node"><title>Trunc_pathcoll_decpaths</title>
<a xlink:href="Trunc.html#pathcoll_decpaths" xlink:title="pathcoll_decpaths">
<ellipse fill="#f070d1" stroke="black" cx="3439" cy="-941.823" rx="98.9949" ry="18.3848"/>
<text text-anchor="middle" x="3439" y="-938.223" font-family="Times Roman,serif" font-size="14.00">pathcoll_decpaths</text>
</a>
</g>
<!-- Trunc_hset_decpaths&#45;&gt;Trunc_pathcoll_decpaths -->
<g id="edge4" class="edge"><title>Trunc_hset_decpaths&#45;&gt;Trunc_pathcoll_decpaths</title>
<path fill="none" stroke="black" d="M3447.6,-1519.09C3446.12,-1419.85 3440.96,-1073.07 3439.43,-970.564"/>
<polygon fill="black" stroke="black" points="3442.92,-970.303 3439.28,-960.357 3435.93,-970.408 3442.92,-970.303"/>
</g>
<!-- Trunc_pathcoll_hset -->
<g id="node2" class="node"><title>Trunc_pathcoll_hset</title>
<a xlink:href="Trunc.html#pathcoll_hset" xlink:title="pathcoll_hset">
<ellipse fill="#f070d1" stroke="black" cx="2916" cy="-941.823" rx="75.9157" ry="18.3848"/>
<ellipse fill="none" stroke="black" cx="2916" cy="-941.823" rx="79.892" ry="22.3848"/>
<ellipse fill="none" stroke="black" cx="2916" cy="-941.823" rx="83.8683" ry="26.3848"/>
<text text-anchor="middle" x="2916" y="-938.223" font-family="Times Roman,serif" font-size="14.00">pathcoll_hset</text>
</a>
</g>
<!-- Trunc_collapsible_hprop -->
<g id="node3" class="node"><title>Trunc_collapsible_hprop</title>
<a xlink:href="Trunc.html#collapsible_hprop" xlink:title="collapsible_hprop">
<ellipse fill="#f070d1" stroke="black" cx="2743" cy="-640.823" rx="94.7523" ry="18.3848"/>
<text text-anchor="middle" x="2743" y="-637.223" font-family="Times Roman,serif" font-size="14.00">collapsible_hprop</text>
</a>
</g>
<!-- Trunc_pathcoll_hset&#45;&gt;Trunc_collapsible_hprop -->
<g id="edge6" class="edge"><title>Trunc_pathcoll_hset&#45;&gt;Trunc_collapsible_hprop</title>
<path fill="none" stroke="black" d="M2900.95,-915.637C2868.48,-859.139 2792.1,-726.243 2758.89,-668.461"/>
<polygon fill="black" stroke="black" points="2761.77,-666.461 2753.76,-659.535 2755.7,-669.949 2761.77,-666.461"/>
</g>
<!-- Trunc_PathCollapsible -->
<g id="node8" class="node"><title>Trunc_PathCollapsible</title>
<a xlink:href="Trunc.html#PathCollapsible" xlink:title="PathCollapsible">
<ellipse fill="#f070d1" stroke="black" cx="2941" cy="-640.823" rx="85.0596" ry="18.3848"/>
<text text-anchor="middle" x="2941" y="-637.223" font-family="Times Roman,serif" font-size="14.00">PathCollapsible</text>
</a>
</g>
<!-- Trunc_pathcoll_hset&#45;&gt;Trunc_PathCollapsible -->
<g id="edge8" class="edge"><title>Trunc_pathcoll_hset&#45;&gt;Trunc_PathCollapsible</title>
<path fill="none" stroke="black" d="M2918.22,-915.111C2922.9,-858.746 2933.75,-728.056 2938.6,-669.777"/>
<polygon fill="black" stroke="black" points="2942.11,-669.706 2939.45,-659.451 2935.14,-669.127 2942.11,-669.706"/>
</g>
<!-- Trunc_Build_Collapsible -->
<g id="node14" class="node"><title>Trunc_Build_Collapsible</title>
<a xlink:href="Trunc.html#Build_Collapsible" xlink:title="Build_Collapsible">
<ellipse fill="#7faaff" stroke="black" cx="2810" cy="-365.823" rx="92.1303" ry="18.3848"/>
<text text-anchor="middle" x="2810" y="-362.223" font-family="Times Roman,serif" font-size="14.00">Build_Collapsible</text>
</a>
</g>
<!-- Trunc_collapsible_hprop&#45;&gt;Trunc_Build_Collapsible -->
<g id="edge10" class="edge"><title>Trunc_collapsible_hprop&#45;&gt;Trunc_Build_Collapsible</title>
<path fill="none" stroke="black" d="M2747.61,-621.921C2759.13,-574.61 2789.28,-450.856 2803.01,-394.509"/>
<polygon fill="black" stroke="black" points="2806.48,-395.037 2805.45,-384.493 2799.68,-393.38 2806.48,-395.037"/>
</g>
<!-- Trunc_path_ishprop -->
<g id="node22" class="node"><title>Trunc_path_ishprop</title>
<a xlink:href="Trunc.html#path_ishprop" xlink:title="path_ishprop">
<ellipse fill="#f070d1" stroke="black" cx="2300" cy="-365.823" rx="74.9533" ry="18.3848"/>
<text text-anchor="middle" x="2300" y="-362.223" font-family="Times Roman,serif" font-size="14.00">path_ishprop</text>
</a>
</g>
<!-- Trunc_collapsible_hprop&#45;&gt;Trunc_path_ishprop -->
<g id="edge12" class="edge"><title>Trunc_collapsible_hprop&#45;&gt;Trunc_path_ishprop</title>
<path fill="none" stroke="black" d="M2714.27,-622.991C2636.59,-574.768 2422.43,-441.826 2336.44,-388.444"/>
<polygon fill="black" stroke="black" points="2338.15,-385.383 2327.8,-383.082 2334.45,-391.33 2338.15,-385.383"/>
</g>
<!-- Trunc_path_coll -->
<g id="node7" class="node"><title>Trunc_path_coll</title>
<a xlink:href="Trunc.html#path_coll" xlink:title="path_coll">
<ellipse fill="#f070d1" stroke="black" cx="3073" cy="-941.823" rx="55.1543" ry="18.3848"/>
<text text-anchor="middle" x="3073" y="-938.223" font-family="Times Roman,serif" font-size="14.00">path_coll</text>
</a>
</g>
<!-- Trunc_hset_pathcoll&#45;&gt;Trunc_path_coll -->
<g id="edge14" class="edge"><title>Trunc_hset_pathcoll&#45;&gt;Trunc_path_coll</title>
<path fill="none" stroke="black" d="M3187.55,-1225.39C3166.92,-1174.31 3108.93,-1030.77 3084.3,-969.788"/>
<polygon fill="black" stroke="black" points="3087.5,-968.363 3080.51,-960.402 3081.01,-970.985 3087.5,-968.363"/>
</g>
<!-- Trunc_wconst -->
<g id="node16" class="node"><title>Trunc_wconst</title>
<a xlink:href="Trunc.html#wconst" xlink:title="wconst">
<ellipse fill="#f070d1" stroke="black" cx="3230" cy="-365.823" rx="46.1672" ry="18.3848"/>
<text text-anchor="middle" x="3230" y="-362.223" font-family="Times Roman,serif" font-size="14.00">wconst</text>
</a>
</g>
<!-- Trunc_hset_pathcoll&#45;&gt;Trunc_wconst -->
<g id="edge16" class="edge"><title>Trunc_hset_pathcoll&#45;&gt;Trunc_wconst</title>
<path fill="none" stroke="black" d="M3191.53,-1225.24C3183.48,-1181.02 3163.68,-1065.95 3157,-968.823 3155.35,-944.879 3151.7,-938.229 3157,-914.823 3183.89,-796.169 3248.11,-786.476 3275,-667.823 3280.3,-644.416 3277.15,-637.726 3275,-613.823 3267.76,-533.361 3247.56,-439.971 3236.86,-394.147"/>
<polygon fill="black" stroke="black" points="3240.24,-393.261 3234.54,-384.333 3233.43,-394.87 3240.24,-393.261"/>
</g>
<!-- Trunc_hprop_allpath -->
<g id="node21" class="node"><title>Trunc_hprop_allpath</title>
<a xlink:href="Trunc.html#hprop_allpath" xlink:title="hprop_allpath">
<ellipse fill="#f070d1" stroke="black" cx="3244" cy="-941.823" rx="77.9889" ry="18.3848"/>
<text text-anchor="middle" x="3244" y="-938.223" font-family="Times Roman,serif" font-size="14.00">hprop_allpath</text>
</a>
</g>
<!-- Trunc_hset_pathcoll&#45;&gt;Trunc_hprop_allpath -->
<g id="edge18" class="edge"><title>Trunc_hset_pathcoll&#45;&gt;Trunc_hprop_allpath</title>
<path fill="none" stroke="black" d="M3198.07,-1224.93C3206.39,-1173.65 3229.44,-1031.58 3239.36,-970.424"/>
<polygon fill="black" stroke="black" points="3242.85,-970.753 3241,-960.321 3235.94,-969.632 3242.85,-970.753"/>
</g>
<!-- Trunc_collapsible_decidable -->
<g id="node6" class="node"><title>Trunc_collapsible_decidable</title>
<a xlink:href="Trunc.html#collapsible_decidable" xlink:title="collapsible_decidable">
<ellipse fill="#f070d1" stroke="black" cx="3155" cy="-640.823" rx="111.222" ry="18.3848"/>
<text text-anchor="middle" x="3155" y="-637.223" font-family="Times Roman,serif" font-size="14.00">collapsible_decidable</text>
</a>
</g>
<!-- Trunc_pathcoll_decpaths&#45;&gt;Trunc_collapsible_decidable -->
<g id="edge20" class="edge"><title>Trunc_pathcoll_decpaths&#45;&gt;Trunc_collapsible_decidable</title>
<path fill="none" stroke="black" d="M3421.66,-923.447C3373.14,-872.02 3235.85,-726.513 3179.55,-666.842"/>
<polygon fill="black" stroke="black" points="3181.88,-664.212 3172.47,-659.34 3176.79,-669.016 3181.88,-664.212"/>
</g>
<!-- Trunc_pathcoll_decpaths&#45;&gt;Trunc_PathCollapsible -->
<g id="edge22" class="edge"><title>Trunc_pathcoll_decpaths&#45;&gt;Trunc_PathCollapsible</title>
<path fill="none" stroke="black" d="M3409.71,-924.117C3324.07,-872.356 3074.18,-721.317 2978.69,-663.604"/>
<polygon fill="black" stroke="black" points="2980.31,-660.494 2969.94,-658.317 2976.69,-666.485 2980.31,-660.494"/>
</g>
<!-- Trunc_collapsible_decidable&#45;&gt;Trunc_Build_Collapsible -->
<g id="edge24" class="edge"><title>Trunc_collapsible_decidable&#45;&gt;Trunc_Build_Collapsible</title>
<path fill="none" stroke="black" d="M3132.1,-622.566C3071.79,-574.496 2908.59,-444.408 2840.49,-390.126"/>
<polygon fill="black" stroke="black" points="2842.67,-387.389 2832.67,-383.893 2838.31,-392.863 2842.67,-387.389"/>
</g>
<!-- Trunc_Collapsible -->
<g id="node15" class="node"><title>Trunc_Collapsible</title>
<a xlink:href="Trunc.html#Collapsible" xlink:title="Collapsible">
<ellipse fill="#e2cdfa" stroke="black" cx="2995" cy="-365.823" rx="62.9325" ry="18.3848"/>
<text text-anchor="middle" x="2995" y="-362.223" font-family="Times Roman,serif" font-size="14.00">Collapsible</text>
</a>
</g>
<!-- Trunc_collapsible_decidable&#45;&gt;Trunc_Collapsible -->
<g id="edge26" class="edge"><title>Trunc_collapsible_decidable&#45;&gt;Trunc_Collapsible</title>
<path fill="none" stroke="black" d="M3144.25,-622.352C3116.7,-574.994 3043.42,-449.051 3010.92,-393.178"/>
<polygon fill="black" stroke="black" points="3013.75,-391.096 3005.7,-384.213 3007.7,-394.616 3013.75,-391.096"/>
</g>
<!-- Trunc_path_coll&#45;&gt;Trunc_PathCollapsible -->
<g id="edge28" class="edge"><title>Trunc_path_coll&#45;&gt;Trunc_PathCollapsible</title>
<path fill="none" stroke="black" d="M3064.94,-923.447C3042.62,-872.544 2979.88,-729.472 2953.22,-668.696"/>
<polygon fill="black" stroke="black" points="2956.34,-667.093 2949.12,-659.34 2949.93,-669.904 2956.34,-667.093"/>
</g>
<!-- Trunc_PathCollapsible&#45;&gt;Trunc_Collapsible -->
<g id="edge30" class="edge"><title>Trunc_PathCollapsible&#45;&gt;Trunc_Collapsible</title>
<path fill="none" stroke="black" d="M2944.71,-621.921C2954,-574.61 2978.3,-450.856 2989.37,-394.509"/>
<polygon fill="black" stroke="black" points="2992.84,-394.98 2991.33,-384.493 2985.97,-393.631 2992.84,-394.98"/>
</g>
<!-- Trunc_Collapsible_rec -->
<g id="node9" class="node"><title>Trunc_Collapsible_rec</title>
<a xlink:href="Trunc.html#Collapsible_rec" xlink:title="Collapsible_rec">
<ellipse fill="#f070d1" stroke="black" cx="2523" cy="-941.823" rx="82.9827" ry="18.3848"/>
<ellipse fill="none" stroke="black" cx="2523" cy="-941.823" rx="86.9608" ry="22.3848"/>
<ellipse fill="none" stroke="black" cx="2523" cy="-941.823" rx="90.9389" ry="26.3848"/>
<text text-anchor="middle" x="2523" y="-938.223" font-family="Times Roman,serif" font-size="14.00">Collapsible_rec</text>
</a>
</g>
<!-- Trunc_Collapsible_rect -->
<g id="node11" class="node"><title>Trunc_Collapsible_rect</title>
<a xlink:href="Trunc.html#Collapsible_rect" xlink:title="Collapsible_rect">
<ellipse fill="#f070d1" stroke="black" cx="2543" cy="-640.823" rx="87.1802" ry="18.3848"/>
<text text-anchor="middle" x="2543" y="-637.223" font-family="Times Roman,serif" font-size="14.00">Collapsible_rect</text>
</a>
</g>
<!-- Trunc_Collapsible_rec&#45;&gt;Trunc_Collapsible_rect -->
<g id="edge32" class="edge"><title>Trunc_Collapsible_rec&#45;&gt;Trunc_Collapsible_rect</title>
<path fill="none" stroke="black" d="M2524.77,-915.111C2528.52,-858.746 2537.2,-728.056 2541.08,-669.777"/>
<polygon fill="black" stroke="black" points="2544.59,-669.661 2541.76,-659.451 2537.61,-669.197 2544.59,-669.661"/>
</g>
<!-- Trunc_Collapsible_ind -->
<g id="node10" class="node"><title>Trunc_Collapsible_ind</title>
<a xlink:href="Trunc.html#Collapsible_ind" xlink:title="Collapsible_ind">
<ellipse fill="#7fffd4" stroke="black" cx="2723" cy="-941.823" rx="82.9827" ry="18.3848"/>
<ellipse fill="none" stroke="black" cx="2723" cy="-941.823" rx="86.9608" ry="22.3848"/>
<ellipse fill="none" stroke="black" cx="2723" cy="-941.823" rx="90.9389" ry="26.3848"/>
<text text-anchor="middle" x="2723" y="-938.223" font-family="Times Roman,serif" font-size="14.00">Collapsible_ind</text>
</a>
</g>
<!-- Trunc_Collapsible_ind&#45;&gt;Trunc_Collapsible_rect -->
<g id="edge34" class="edge"><title>Trunc_Collapsible_ind&#45;&gt;Trunc_Collapsible_rect</title>
<path fill="none" stroke="black" d="M2707.34,-915.637C2673.55,-859.139 2594.08,-726.243 2559.53,-668.461"/>
<polygon fill="black" stroke="black" points="2562.33,-666.321 2554.19,-659.535 2556.32,-669.914 2562.33,-666.321"/>
</g>
<!-- Trunc_Collapsible_rect&#45;&gt;Trunc_Build_Collapsible -->
<g id="edge36" class="edge"><title>Trunc_Collapsible_rect&#45;&gt;Trunc_Build_Collapsible</title>
<path fill="none" stroke="black" d="M2560.93,-622.352C2607.39,-574.505 2731.73,-446.44 2785.1,-391.469"/>
<polygon fill="black" stroke="black" points="2787.69,-393.826 2792.14,-384.213 2782.67,-388.949 2787.69,-393.826"/>
</g>
<!-- Trunc_wconst_collapse -->
<g id="node12" class="node"><title>Trunc_wconst_collapse</title>
<a xlink:href="Trunc.html#wconst_collapse" xlink:title="wconst_collapse">
<ellipse fill="#f070d1" stroke="black" cx="3242" cy="-1545.82" rx="90.0502" ry="18.3848"/>
<ellipse fill="none" stroke="black" cx="3242" cy="-1545.82" rx="94.0299" ry="22.3848"/>
<ellipse fill="none" stroke="black" cx="3242" cy="-1545.82" rx="98.0096" ry="26.3848"/>
<text text-anchor="middle" x="3242" y="-1542.22" font-family="Times Roman,serif" font-size="14.00">wconst_collapse</text>
</a>
</g>
<!-- Trunc_collapse -->
<g id="node13" class="node"><title>Trunc_collapse</title>
<a xlink:href="Trunc.html#collapse" xlink:title="collapse">
<ellipse fill="#f070d1" stroke="black" cx="3068" cy="-1545.82" rx="50.2046" ry="18.3848"/>
<ellipse fill="none" stroke="black" cx="3068" cy="-1545.82" rx="54.2046" ry="22.3848"/>
<ellipse fill="none" stroke="black" cx="3068" cy="-1545.82" rx="58.2046" ry="26.3848"/>
<text text-anchor="middle" x="3068" y="-1542.22" font-family="Times Roman,serif" font-size="14.00">collapse</text>
</a>
</g>
<!-- Trunc_WeaklyConstant -->
<g id="node17" class="node"><title>Trunc_WeaklyConstant</title>
<a xlink:href="Trunc.html#WeaklyConstant" xlink:title="WeaklyConstant">
<ellipse fill="#f070d1" stroke="black" cx="2995" cy="-117.823" rx="92.1303" ry="18.3848"/>
<text text-anchor="middle" x="2995" y="-114.223" font-family="Times Roman,serif" font-size="14.00">WeaklyConstant</text>
</a>
</g>
<!-- Trunc_Build_Collapsible&#45;&gt;Trunc_WeaklyConstant -->
<g id="edge38" class="edge"><title>Trunc_Build_Collapsible&#45;&gt;Trunc_WeaklyConstant</title>
<path fill="none" stroke="black" d="M2823.91,-347.182C2856.39,-303.629 2937.38,-195.064 2975.09,-144.509"/>
<polygon fill="black" stroke="black" points="2978.01,-146.449 2981.19,-136.341 2972.4,-142.264 2978.01,-146.449"/>
</g>
<!-- Trunc_Collapsible&#45;&gt;Trunc_WeaklyConstant -->
<g id="edge40" class="edge"><title>Trunc_Collapsible&#45;&gt;Trunc_WeaklyConstant</title>
<path fill="none" stroke="black" d="M2995,-347.182C2995,-304.169 2995,-197.745 2995,-146.415"/>
<polygon fill="black" stroke="black" points="2998.5,-146.341 2995,-136.341 2991.5,-146.341 2998.5,-146.341"/>
</g>
<!-- Trunc_wconst&#45;&gt;Trunc_WeaklyConstant -->
<g id="edge42" class="edge"><title>Trunc_wconst&#45;&gt;Trunc_WeaklyConstant</title>
<path fill="none" stroke="black" d="M3213.48,-348.384C3172.73,-305.387 3067.31,-194.128 3019.37,-143.54"/>
<polygon fill="black" stroke="black" points="3021.88,-141.098 3012.46,-136.246 3016.8,-145.912 3021.88,-141.098"/>
</g>
<!-- Trunc_equiv_iff_hprop -->
<g id="node18" class="node"><title>Trunc_equiv_iff_hprop</title>
<a xlink:href="Trunc.html#equiv_iff_hprop" xlink:title="equiv_iff_hprop">
<ellipse fill="#f070d1" stroke="black" cx="2320" cy="-941.823" rx="85.8106" ry="18.3848"/>
<ellipse fill="none" stroke="black" cx="2320" cy="-941.823" rx="89.7894" ry="22.3848"/>
<ellipse fill="none" stroke="black" cx="2320" cy="-941.823" rx="93.7683" ry="26.3848"/>
<text text-anchor="middle" x="2320" y="-938.223" font-family="Times Roman,serif" font-size="14.00">equiv_iff_hprop</text>
</a>
</g>
<!-- Trunc_equiv_iff_hprop_uncurried -->
<g id="node19" class="node"><title>Trunc_equiv_iff_hprop_uncurried</title>
<a xlink:href="Trunc.html#equiv_iff_hprop_uncurried" xlink:title="equiv_iff_hprop_uncurried">
<ellipse fill="#f070d1" stroke="black" cx="2300" cy="-640.823" rx="138.093" ry="18.3848"/>
<text text-anchor="middle" x="2300" y="-637.223" font-family="Times Roman,serif" font-size="14.00">equiv_iff_hprop_uncurried</text>
</a>
</g>
<!-- Trunc_equiv_iff_hprop&#45;&gt;Trunc_equiv_iff_hprop_uncurried -->
<g id="edge44" class="edge"><title>Trunc_equiv_iff_hprop&#45;&gt;Trunc_equiv_iff_hprop_uncurried</title>
<path fill="none" stroke="black" d="M2318.23,-915.111C2314.48,-858.746 2305.8,-728.056 2301.92,-669.777"/>
<polygon fill="black" stroke="black" points="2305.39,-669.197 2301.24,-659.451 2298.41,-669.661 2305.39,-669.197"/>
</g>
<!-- Trunc_equiv_iff_hprop_uncurried&#45;&gt;Trunc_path_ishprop -->
<g id="edge46" class="edge"><title>Trunc_equiv_iff_hprop_uncurried&#45;&gt;Trunc_path_ishprop</title>
<path fill="none" stroke="black" d="M2300,-621.921C2300,-574.61 2300,-450.856 2300,-394.509"/>
<polygon fill="black" stroke="black" points="2303.5,-394.493 2300,-384.493 2296.5,-394.493 2303.5,-394.493"/>
</g>
<!-- Trunc_isequiv_iff_hprop -->
<g id="node20" class="node"><title>Trunc_isequiv_iff_hprop</title>
<a xlink:href="Trunc.html#isequiv_iff_hprop" xlink:title="isequiv_iff_hprop">
<ellipse fill="#f070d1" stroke="black" cx="2042" cy="-640.823" rx="94.0452" ry="18.3848"/>
<ellipse fill="none" stroke="black" cx="2042" cy="-640.823" rx="98.0452" ry="22.3848"/>
<ellipse fill="none" stroke="black" cx="2042" cy="-640.823" rx="102.045" ry="26.3848"/>
<text text-anchor="middle" x="2042" y="-637.223" font-family="Times Roman,serif" font-size="14.00">isequiv_iff_hprop</text>
</a>
</g>
<!-- Trunc_isequiv_iff_hprop&#45;&gt;Trunc_path_ishprop -->
<g id="edge48" class="edge"><title>Trunc_isequiv_iff_hprop&#45;&gt;Trunc_path_ishprop</title>
<path fill="none" stroke="black" d="M2066.27,-614.951C2115.55,-562.427 2226.8,-443.845 2275.92,-391.491"/>
<polygon fill="black" stroke="black" points="2278.68,-393.658 2282.97,-383.97 2273.58,-388.868 2278.68,-393.658"/>
</g>
<!-- Trunc_hprop_inhabited_contr -->
<g id="node23" class="node"><title>Trunc_hprop_inhabited_contr</title>
<a xlink:href="Trunc.html#hprop_inhabited_contr" xlink:title="hprop_inhabited_contr">
<ellipse fill="#f070d1" stroke="black" cx="2863" cy="-1545.82" rx="121.153" ry="18.3848"/>
<ellipse fill="none" stroke="black" cx="2863" cy="-1545.82" rx="125.137" ry="22.3848"/>
<ellipse fill="none" stroke="black" cx="2863" cy="-1545.82" rx="129.122" ry="26.3848"/>
<text text-anchor="middle" x="2863" y="-1542.22" font-family="Times Roman,serif" font-size="14.00">hprop_inhabited_contr</text>
</a>
</g>
<!-- Trunc_contr_inhabited_hprop -->
<g id="node24" class="node"><title>Trunc_contr_inhabited_hprop</title>
<a xlink:href="Trunc.html#contr_inhabited_hprop" xlink:title="contr_inhabited_hprop">
<ellipse fill="#f070d1" stroke="black" cx="2587" cy="-1545.82" rx="121.153" ry="18.3848"/>
<ellipse fill="none" stroke="black" cx="2587" cy="-1545.82" rx="125.137" ry="22.3848"/>
<ellipse fill="none" stroke="black" cx="2587" cy="-1545.82" rx="129.122" ry="26.3848"/>
<text text-anchor="middle" x="2587" y="-1542.22" font-family="Times Roman,serif" font-size="14.00">contr_inhabited_hprop</text>
</a>
</g>
<!-- Trunc_default_TruncType -->
<g id="node25" class="node"><title>Trunc_default_TruncType</title>
<a xlink:href="Trunc.html#default_TruncType" xlink:title="default_TruncType">
<ellipse fill="#f070d1" stroke="black" cx="2351" cy="-1243.82" rx="99.2383" ry="18.3848"/>
<ellipse fill="none" stroke="black" cx="2351" cy="-1243.82" rx="103.22" ry="22.3848"/>
<ellipse fill="none" stroke="black" cx="2351" cy="-1243.82" rx="107.201" ry="26.3848"/>
<text text-anchor="middle" x="2351" y="-1240.22" font-family="Times Roman,serif" font-size="14.00">default_TruncType</text>
</a>
</g>
<!-- Trunc_BuildTruncType -->
<g id="node31" class="node"><title>Trunc_BuildTruncType</title>
<a xlink:href="Trunc.html#BuildTruncType" xlink:title="BuildTruncType">
<ellipse fill="#7faaff" stroke="black" cx="2123" cy="-941.823" rx="84.8528" ry="18.3848"/>
<text text-anchor="middle" x="2123" y="-938.223" font-family="Times Roman,serif" font-size="14.00">BuildTruncType</text>
</a>
</g>
<!-- Trunc_default_TruncType&#45;&gt;Trunc_BuildTruncType -->
<g id="edge50" class="edge"><title>Trunc_default_TruncType&#45;&gt;Trunc_BuildTruncType</title>
<path fill="none" stroke="black" d="M2331.17,-1217.55C2288.09,-1160.49 2186.39,-1025.78 2143.08,-968.426"/>
<polygon fill="black" stroke="black" points="2145.71,-966.098 2136.89,-960.226 2140.13,-970.316 2145.71,-966.098"/>
</g>
<!-- Trunc_TruncType_rec -->
<g id="node26" class="node"><title>Trunc_TruncType_rec</title>
<a xlink:href="Trunc.html#TruncType_rec" xlink:title="TruncType_rec">
<ellipse fill="#f070d1" stroke="black" cx="2352" cy="-1545.82" rx="80.1547" ry="18.3848"/>
<ellipse fill="none" stroke="black" cx="2352" cy="-1545.82" rx="84.1321" ry="22.3848"/>
<ellipse fill="none" stroke="black" cx="2352" cy="-1545.82" rx="88.1096" ry="26.3848"/>
<text text-anchor="middle" x="2352" y="-1542.22" font-family="Times Roman,serif" font-size="14.00">TruncType_rec</text>
</a>
</g>
<!-- Trunc_TruncType_rect -->
<g id="node28" class="node"><title>Trunc_TruncType_rect</title>
<a xlink:href="Trunc.html#TruncType_rect" xlink:title="TruncType_rect">
<ellipse fill="#f070d1" stroke="black" cx="2141" cy="-1243.82" rx="84.8528" ry="18.3848"/>
<text text-anchor="middle" x="2141" y="-1240.22" font-family="Times Roman,serif" font-size="14.00">TruncType_rect</text>
</a>
</g>
<!-- Trunc_TruncType_rec&#45;&gt;Trunc_TruncType_rect -->
<g id="edge52" class="edge"><title>Trunc_TruncType_rec&#45;&gt;Trunc_TruncType_rect</title>
<path fill="none" stroke="black" d="M2333.83,-1519.81C2294.08,-1462.93 2199.79,-1327.96 2159.63,-1270.49"/>
<polygon fill="black" stroke="black" points="2162.48,-1268.46 2153.89,-1262.27 2156.75,-1272.47 2162.48,-1268.46"/>
</g>
<!-- Trunc_TruncType_ind -->
<g id="node27" class="node"><title>Trunc_TruncType_ind</title>
<a xlink:href="Trunc.html#TruncType_ind" xlink:title="TruncType_ind">
<ellipse fill="#7fffd4" stroke="black" cx="2158" cy="-1545.82" rx="80.1547" ry="18.3848"/>
<ellipse fill="none" stroke="black" cx="2158" cy="-1545.82" rx="84.1321" ry="22.3848"/>
<ellipse fill="none" stroke="black" cx="2158" cy="-1545.82" rx="88.1096" ry="26.3848"/>
<text text-anchor="middle" x="2158" y="-1542.22" font-family="Times Roman,serif" font-size="14.00">TruncType_ind</text>
</a>
</g>
<!-- Trunc_TruncType_ind&#45;&gt;Trunc_TruncType_rect -->
<g id="edge54" class="edge"><title>Trunc_TruncType_ind&#45;&gt;Trunc_TruncType_rect</title>
<path fill="none" stroke="black" d="M2156.51,-1519.29C2153.33,-1462.78 2145.91,-1330.99 2142.62,-1272.57"/>
<polygon fill="black" stroke="black" points="2146.11,-1272.34 2142.05,-1262.56 2139.12,-1272.74 2146.11,-1272.34"/>
</g>
<!-- Trunc_TruncType_rect&#45;&gt;Trunc_BuildTruncType -->
<g id="edge56" class="edge"><title>Trunc_TruncType_rect&#45;&gt;Trunc_BuildTruncType</title>
<path fill="none" stroke="black" d="M2139.87,-1224.93C2136.82,-1173.65 2128.35,-1031.58 2124.7,-970.424"/>
<polygon fill="black" stroke="black" points="2128.19,-970.095 2124.1,-960.321 2121.2,-970.512 2128.19,-970.095"/>
</g>
<!-- Trunc_istrunc_trunctype_type -->
<g id="node29" class="node"><title>Trunc_istrunc_trunctype_type</title>
<a xlink:href="Trunc.html#istrunc_trunctype_type" xlink:title="istrunc_trunctype_type">
<ellipse fill="#f070d1" stroke="black" cx="1919" cy="-1545.82" rx="125.158" ry="18.3848"/>
<ellipse fill="none" stroke="black" cx="1919" cy="-1545.82" rx="129.158" ry="22.3848"/>
<ellipse fill="none" stroke="black" cx="1919" cy="-1545.82" rx="133.158" ry="26.3848"/>
<text text-anchor="middle" x="1919" y="-1542.22" font-family="Times Roman,serif" font-size="14.00">istrunc_trunctype_type</text>
</a>
</g>
<!-- Trunc_trunctype_type -->
<g id="node30" class="node"><title>Trunc_trunctype_type</title>
<a xlink:href="Trunc.html#trunctype_type" xlink:title="trunctype_type">
<ellipse fill="#f070d1" stroke="black" cx="1674" cy="-1545.82" rx="85.8106" ry="18.3848"/>
<ellipse fill="none" stroke="black" cx="1674" cy="-1545.82" rx="89.7894" ry="22.3848"/>
<ellipse fill="none" stroke="black" cx="1674" cy="-1545.82" rx="93.7683" ry="26.3848"/>
<text text-anchor="middle" x="1674" y="-1542.22" font-family="Times Roman,serif" font-size="14.00">trunctype_type</text>
</a>
</g>
<!-- Trunc_TruncType -->
<g id="node32" class="node"><title>Trunc_TruncType</title>
<a xlink:href="Trunc.html#TruncType" xlink:title="TruncType">
<ellipse fill="#e2cdfa" stroke="black" cx="1493" cy="-1545.82" rx="60.8112" ry="18.3848"/>
<ellipse fill="none" stroke="black" cx="1493" cy="-1545.82" rx="64.8112" ry="22.3848"/>
<ellipse fill="none" stroke="black" cx="1493" cy="-1545.82" rx="68.8112" ry="26.3848"/>
<text text-anchor="middle" x="1493" y="-1542.22" font-family="Times Roman,serif" font-size="14.00">TruncType</text>
</a>
</g>
<!-- Trunc_istruncmap_fiber -->
<g id="node33" class="node"><title>Trunc_istruncmap_fiber</title>
<a xlink:href="Trunc.html#istruncmap_fiber" xlink:title="istruncmap_fiber">
<ellipse fill="#f070d1" stroke="black" cx="1306" cy="-1545.82" rx="92.1701" ry="18.3848"/>
<ellipse fill="none" stroke="black" cx="1306" cy="-1545.82" rx="96.1502" ry="22.3848"/>
<ellipse fill="none" stroke="black" cx="1306" cy="-1545.82" rx="100.13" ry="26.3848"/>
<text text-anchor="middle" x="1306" y="-1542.22" font-family="Times Roman,serif" font-size="14.00">istruncmap_fiber</text>
</a>
</g>
<!-- Trunc_IsTruncMap -->
<g id="node34" class="node"><title>Trunc_IsTruncMap</title>
<a xlink:href="Trunc.html#IsTruncMap" xlink:title="IsTruncMap">
<ellipse fill="#f070d1" stroke="black" cx="1306" cy="-1243.82" rx="65.9683" ry="18.3848"/>
<text text-anchor="middle" x="1306" y="-1240.22" font-family="Times Roman,serif" font-size="14.00">IsTruncMap</text>
</a>
</g>
<!-- Trunc_istruncmap_fiber&#45;&gt;Trunc_IsTruncMap -->
<g id="edge58" class="edge"><title>Trunc_istruncmap_fiber&#45;&gt;Trunc_IsTruncMap</title>
<path fill="none" stroke="black" d="M1306,-1519.29C1306,-1462.78 1306,-1330.99 1306,-1272.57"/>
<polygon fill="black" stroke="black" points="1309.5,-1272.56 1306,-1262.56 1302.5,-1272.56 1309.5,-1272.56"/>
</g>
<!-- Trunc_trunc_equiv_ -->
<g id="node35" class="node"><title>Trunc_trunc_equiv_</title>
<a xlink:href="Trunc.html#trunc_equiv&#39;" xlink:title="trunc_equiv&#39;">
<ellipse fill="#f070d1" stroke="black" cx="1109" cy="-1545.82" rx="70.9686" ry="18.3848"/>
<ellipse fill="none" stroke="black" cx="1109" cy="-1545.82" rx="74.9435" ry="22.3848"/>
<ellipse fill="none" stroke="black" cx="1109" cy="-1545.82" rx="78.9183" ry="26.3848"/>
<text text-anchor="middle" x="1109" y="-1542.22" font-family="Times Roman,serif" font-size="14.00">trunc_equiv&#39;</text>
</a>
</g>
<!-- Trunc_trunc_equiv -->
<g id="node36" class="node"><title>Trunc_trunc_equiv</title>
<a xlink:href="Trunc.html#trunc_equiv" xlink:title="trunc_equiv">
<ellipse fill="#facdef" stroke="black" cx="1109" cy="-1243.82" rx="68.7979" ry="18.3848"/>
<text text-anchor="middle" x="1109" y="-1240.22" font-family="Times Roman,serif" font-size="14.00">trunc_equiv</text>
</a>
</g>
<!-- Trunc_trunc_equiv_&#45;&gt;Trunc_trunc_equiv -->
<g id="edge60" class="edge"><title>Trunc_trunc_equiv_&#45;&gt;Trunc_trunc_equiv</title>
<path fill="none" stroke="black" d="M1109,-1519.29C1109,-1462.78 1109,-1330.99 1109,-1272.57"/>
<polygon fill="black" stroke="black" points="1112.5,-1272.56 1109,-1262.56 1105.5,-1272.56 1112.5,-1272.56"/>
</g>
<!-- Trunc_trunc_hset -->
<g id="node37" class="node"><title>Trunc_trunc_hset</title>
<a xlink:href="Trunc.html#trunc_hset" xlink:title="trunc_hset">
<ellipse fill="#f070d1" stroke="black" cx="594" cy="-1545.82" rx="63.9029" ry="18.3848"/>
<ellipse fill="none" stroke="black" cx="594" cy="-1545.82" rx="67.8754" ry="22.3848"/>
<ellipse fill="none" stroke="black" cx="594" cy="-1545.82" rx="71.8478" ry="26.3848"/>
<text text-anchor="middle" x="594" y="-1542.22" font-family="Times Roman,serif" font-size="14.00">trunc_hset</text>
</a>
</g>
<!-- Trunc_trunc_leq -->
<g id="node40" class="node"><title>Trunc_trunc_leq</title>
<a xlink:href="Trunc.html#trunc_leq" xlink:title="trunc_leq">
<ellipse fill="#f070d1" stroke="black" cx="760" cy="-1243.82" rx="56.7776" ry="18.3848"/>
<text text-anchor="middle" x="760" y="-1240.22" font-family="Times Roman,serif" font-size="14.00">trunc_leq</text>
</a>
</g>
<!-- Trunc_trunc_hset&#45;&gt;Trunc_trunc_leq -->
<g id="edge62" class="edge"><title>Trunc_trunc_hset&#45;&gt;Trunc_trunc_leq</title>
<path fill="none" stroke="black" d="M608.297,-1519.81C639.436,-1463.16 713.142,-1329.07 744.953,-1271.2"/>
<polygon fill="black" stroke="black" points="748.112,-1272.72 749.861,-1262.27 741.977,-1269.34 748.112,-1272.72"/>
</g>
<!-- Trunc_trunc_hprop -->
<g id="node38" class="node"><title>Trunc_trunc_hprop</title>
<a xlink:href="Trunc.html#trunc_hprop" xlink:title="trunc_hprop">
<ellipse fill="#f070d1" stroke="black" cx="933" cy="-1545.82" rx="70.9686" ry="18.3848"/>
<ellipse fill="none" stroke="black" cx="933" cy="-1545.82" rx="74.9435" ry="22.3848"/>
<ellipse fill="none" stroke="black" cx="933" cy="-1545.82" rx="78.9183" ry="26.3848"/>
<text text-anchor="middle" x="933" y="-1542.22" font-family="Times Roman,serif" font-size="14.00">trunc_hprop</text>
</a>
</g>
<!-- Trunc_trunc_hprop&#45;&gt;Trunc_trunc_leq -->
<g id="edge64" class="edge"><title>Trunc_trunc_hprop&#45;&gt;Trunc_trunc_leq</title>
<path fill="none" stroke="black" d="M917.95,-1519.55C885.4,-1462.73 808.729,-1328.89 775.647,-1271.14"/>
<polygon fill="black" stroke="black" points="778.55,-1269.16 770.542,-1262.23 772.476,-1272.64 778.55,-1269.16"/>
</g>
<!-- Trunc_trunc_contr -->
<g id="node39" class="node"><title>Trunc_trunc_contr</title>
<a xlink:href="Trunc.html#trunc_contr" xlink:title="trunc_contr">
<ellipse fill="#f070d1" stroke="black" cx="760" cy="-1545.82" rx="68.1411" ry="18.3848"/>
<ellipse fill="none" stroke="black" cx="760" cy="-1545.82" rx="72.1149" ry="22.3848"/>
<ellipse fill="none" stroke="black" cx="760" cy="-1545.82" rx="76.0888" ry="26.3848"/>
<text text-anchor="middle" x="760" y="-1542.22" font-family="Times Roman,serif" font-size="14.00">trunc_contr</text>
</a>
</g>
<!-- Trunc_trunc_contr&#45;&gt;Trunc_trunc_leq -->
<g id="edge66" class="edge"><title>Trunc_trunc_contr&#45;&gt;Trunc_trunc_leq</title>
<path fill="none" stroke="black" d="M760,-1519.29C760,-1462.78 760,-1330.99 760,-1272.57"/>
<polygon fill="black" stroke="black" points="763.5,-1272.56 760,-1262.56 756.5,-1272.56 763.5,-1272.56"/>
</g>
<!-- Trunc_trunc_succ -->
<g id="node41" class="node"><title>Trunc_trunc_succ</title>
<a xlink:href="Trunc.html#trunc_succ" xlink:title="trunc_succ">
<ellipse fill="#facdef" stroke="black" cx="845" cy="-941.823" rx="63.1385" ry="18.3848"/>
<text text-anchor="middle" x="845" y="-938.223" font-family="Times Roman,serif" font-size="14.00">trunc_succ</text>
</a>
</g>
<!-- Trunc_trunc_leq&#45;&gt;Trunc_trunc_succ -->
<g id="edge68" class="edge"><title>Trunc_trunc_leq&#45;&gt;Trunc_trunc_succ</title>
<path fill="none" stroke="black" d="M765.189,-1225.39C779.534,-1174.42 819.8,-1031.36 837.022,-970.166"/>
<polygon fill="black" stroke="black" points="840.43,-970.976 839.771,-960.402 833.692,-969.08 840.43,-970.976"/>
</g>
<!-- Trunc_trunc_index_leq -->
<g id="node43" class="node"><title>Trunc_trunc_index_leq</title>
<a xlink:href="Trunc.html#trunc_index_leq" xlink:title="trunc_index_leq">
<ellipse fill="#f070d1" stroke="black" cx="675" cy="-941.823" rx="89.0955" ry="18.3848"/>
<text text-anchor="middle" x="675" y="-938.223" font-family="Times Roman,serif" font-size="14.00">trunc_index_leq</text>
</a>
</g>
<!-- Trunc_trunc_leq&#45;&gt;Trunc_trunc_index_leq -->
<g id="edge70" class="edge"><title>Trunc_trunc_leq&#45;&gt;Trunc_trunc_index_leq</title>
<path fill="none" stroke="black" d="M754.811,-1225.39C740.466,-1174.42 700.2,-1031.36 682.978,-970.166"/>
<polygon fill="black" stroke="black" points="686.308,-969.08 680.229,-960.402 679.57,-970.976 686.308,-969.08"/>
</g>
<!-- Trunc_contr_trunc_minus_two -->
<g id="node42" class="node"><title>Trunc_contr_trunc_minus_two</title>
<a xlink:href="Trunc.html#contr_trunc_minus_two" xlink:title="contr_trunc_minus_two">
<ellipse fill="#f070d1" stroke="black" cx="369" cy="-1545.82" rx="126.81" ry="18.3848"/>
<ellipse fill="none" stroke="black" cx="369" cy="-1545.82" rx="130.795" ry="22.3848"/>
<ellipse fill="none" stroke="black" cx="369" cy="-1545.82" rx="134.78" ry="26.3848"/>
<text text-anchor="middle" x="369" y="-1542.22" font-family="Times Roman,serif" font-size="14.00">contr_trunc_minus_two</text>
</a>
</g>
<!-- Trunc_trunc_index_add -->
<g id="node44" class="node"><title>Trunc_trunc_index_add</title>
<a xlink:href="Trunc.html#trunc_index_add" xlink:title="trunc_index_add">
<ellipse fill="#f070d1" stroke="black" cx="116" cy="-1545.82" rx="92.1701" ry="18.3848"/>
<ellipse fill="none" stroke="black" cx="116" cy="-1545.82" rx="96.1502" ry="22.3848"/>
<ellipse fill="none" stroke="black" cx="116" cy="-1545.82" rx="100.13" ry="26.3848"/>
<text text-anchor="middle" x="116" y="-1542.22" font-family="Times Roman,serif" font-size="14.00">trunc_index_add</text>
</a>
</g>
</g>
</svg>
