<?xml version="1.0" encoding="UTF-8" standalone="no"?>
<!DOCTYPE svg PUBLIC "-//W3C//DTD SVG 1.1//EN"
 "http://www.w3.org/Graphics/SVG/1.1/DTD/svg11.dtd">
<!-- Generated by graphviz version 2.39.20141222.0545 (20141222.0545)
 -->
<!-- Title: HoTT_Spectra_Spectrum Pages: 1 -->
<svg width="1199pt" height="604pt"
 viewBox="0.00 0.00 1199.00 603.50" xmlns="http://www.w3.org/2000/svg" xmlns:xlink="http://www.w3.org/1999/xlink">
<g id="graph0" class="graph" transform="scale(1 1) rotate(0) translate(4 599.5)">
<title>HoTT_Spectra_Spectrum</title>
<polygon fill="white" stroke="transparent" points="-4,4 -4,-599.5 1195,-599.5 1195,4 -4,4"/>
<g id="clust1" class="cluster"><title>cluster_Spectrum</title>
<polygon fill="#ffffc3" stroke="black" points="8,-11.5912 8,-583.909 1183,-583.909 1183,-11.5912 8,-11.5912"/>
<text text-anchor="middle" x="42.5" y="-568.709" font-family="Times,serif" font-size="14.00">Spectrum</text>
</g>
<!-- Spectrum_strunc -->
<g id="node1" class="node"><title>Spectrum_strunc</title>
<g id="a_node1"><a xlink:href="Spectrum.html#strunc" xlink:title="strunc">
<ellipse fill="#f070d1" stroke="black" cx="776" cy="-373.591" rx="32.4948" ry="18"/>
<ellipse fill="none" stroke="black" cx="776" cy="-373.591" rx="36.4945" ry="22"/>
<ellipse fill="none" stroke="black" cx="776" cy="-373.591" rx="40.4942" ry="26"/>
<text text-anchor="middle" x="776" y="-369.891" font-family="Times,serif" font-size="14.00">strunc</text>
</a>
</g>
</g>
<!-- Spectrum_Build_Spectrum -->
<g id="node7" class="node"><title>Spectrum_Build_Spectrum</title>
<g id="a_node7"><a xlink:href="Spectrum.html#Build_Spectrum" xlink:title="Build_Spectrum">
<ellipse fill="#7faaff" stroke="black" cx="644" cy="-257.591" rx="68.7879" ry="18"/>
<text text-anchor="middle" x="644" y="-253.891" font-family="Times,serif" font-size="14.00">Build_Spectrum</text>
</a>
</g>
</g>
<!-- Spectrum_strunc&#45;&gt;Spectrum_Build_Spectrum -->
<g id="edge1" class="edge"><title>Spectrum_strunc&#45;&gt;Spectrum_Build_Spectrum</title>
<path fill="none" stroke="black" d="M752.096,-352.585C729.401,-332.641 695.309,-302.681 671.498,-281.757"/>
<polygon fill="black" stroke="black" points="673.671,-279.006 663.849,-275.034 669.05,-284.264 673.671,-279.006"/>
</g>
<!-- Spectrum_Spectrum -->
<g id="node8" class="node"><title>Spectrum_Spectrum</title>
<g id="a_node8"><a xlink:href="Spectrum.html#Spectrum" xlink:title="Spectrum">
<ellipse fill="#e2cdfa" stroke="black" cx="776" cy="-257.591" rx="44.6926" ry="18"/>
<text text-anchor="middle" x="776" y="-253.891" font-family="Times,serif" font-size="14.00">Spectrum</text>
</a>
</g>
</g>
<!-- Spectrum_strunc&#45;&gt;Spectrum_Spectrum -->
<g id="edge2" class="edge"><title>Spectrum_strunc&#45;&gt;Spectrum_Spectrum</title>
<path fill="none" stroke="black" d="M776,-347.559C776,-329.158 776,-304.514 776,-285.672"/>
<polygon fill="black" stroke="black" points="779.5,-285.609 776,-275.609 772.5,-285.609 779.5,-285.609"/>
</g>
<!-- Spectrum_Build_Prespectrum -->
<g id="node17" class="node"><title>Spectrum_Build_Prespectrum</title>
<g id="a_node17"><a xlink:href="Spectrum.html#Build_Prespectrum" xlink:title="Build_Prespectrum">
<ellipse fill="#7faaff" stroke="black" cx="918" cy="-257.591" rx="79.0865" ry="18"/>
<text text-anchor="middle" x="918" y="-253.891" font-family="Times,serif" font-size="14.00">Build_Prespectrum</text>
</a>
</g>
</g>
<!-- Spectrum_strunc&#45;&gt;Spectrum_Build_Prespectrum -->
<g id="edge3" class="edge"><title>Spectrum_strunc&#45;&gt;Spectrum_Build_Prespectrum</title>
<path fill="none" stroke="black" d="M801.06,-353.12C825.487,-333.165 862.628,-302.825 888.476,-281.71"/>
<polygon fill="black" stroke="black" points="890.91,-284.24 896.44,-275.203 886.482,-278.819 890.91,-284.24"/>
</g>
<!-- Spectrum_Spectrum_rec -->
<g id="node2" class="node"><title>Spectrum_Spectrum_rec</title>
<g id="a_node2"><a xlink:href="Spectrum.html#Spectrum_rec" xlink:title="Spectrum_rec">
<ellipse fill="#f070d1" stroke="black" cx="428" cy="-501.591" rx="59.6142" ry="18"/>
<ellipse fill="none" stroke="black" cx="428" cy="-501.591" rx="63.6021" ry="22"/>
<ellipse fill="none" stroke="black" cx="428" cy="-501.591" rx="67.59" ry="26"/>
<text text-anchor="middle" x="428" y="-497.891" font-family="Times,serif" font-size="14.00">Spectrum_rec</text>
</a>
</g>
</g>
<!-- Spectrum_Spectrum_rect -->
<g id="node4" class="node"><title>Spectrum_Spectrum_rect</title>
<g id="a_node4"><a xlink:href="Spectrum.html#Spectrum_rect" xlink:title="Spectrum_rect">
<ellipse fill="#f070d1" stroke="black" cx="428" cy="-373.591" rx="62.2891" ry="18"/>
<text text-anchor="middle" x="428" y="-369.891" font-family="Times,serif" font-size="14.00">Spectrum_rect</text>
</a>
</g>
</g>
<!-- Spectrum_Spectrum_rec&#45;&gt;Spectrum_Spectrum_rect -->
<g id="edge4" class="edge"><title>Spectrum_Spectrum_rec&#45;&gt;Spectrum_Spectrum_rect</title>
<path fill="none" stroke="black" d="M428,-475.38C428,-454.009 428,-423.88 428,-401.949"/>
<polygon fill="black" stroke="black" points="431.5,-401.916 428,-391.916 424.5,-401.916 431.5,-401.916"/>
</g>
<!-- Spectrum_Spectrum_ind -->
<g id="node3" class="node"><title>Spectrum_Spectrum_ind</title>
<g id="a_node3"><a xlink:href="Spectrum.html#Spectrum_ind" xlink:title="Spectrum_ind">
<ellipse fill="#7fffd4" stroke="black" cx="274" cy="-501.591" rx="60.3958" ry="18"/>
<ellipse fill="none" stroke="black" cx="274" cy="-501.591" rx="64.3926" ry="22"/>
<ellipse fill="none" stroke="black" cx="274" cy="-501.591" rx="68.3893" ry="26"/>
<text text-anchor="middle" x="274" y="-497.891" font-family="Times,serif" font-size="14.00">Spectrum_ind</text>
</a>
</g>
</g>
<!-- Spectrum_Spectrum_ind&#45;&gt;Spectrum_Spectrum_rect -->
<g id="edge5" class="edge"><title>Spectrum_Spectrum_ind&#45;&gt;Spectrum_Spectrum_rect</title>
<path fill="none" stroke="black" d="M302.605,-477.815C330.314,-454.784 372.084,-420.067 399.692,-397.12"/>
<polygon fill="black" stroke="black" points="401.974,-399.775 407.427,-390.691 397.499,-394.391 401.974,-399.775"/>
</g>
<!-- Spectrum_Spectrum_rect&#45;&gt;Spectrum_Build_Spectrum -->
<g id="edge6" class="edge"><title>Spectrum_Spectrum_rect&#45;&gt;Spectrum_Build_Spectrum</title>
<path fill="none" stroke="black" d="M457.581,-357.705C495.794,-337.183 562.425,-301.4 604.815,-278.635"/>
<polygon fill="black" stroke="black" points="606.58,-281.66 613.734,-273.845 603.268,-275.493 606.58,-281.66"/>
</g>
<!-- Spectrum_to_is_spectrum -->
<g id="node5" class="node"><title>Spectrum_to_is_spectrum</title>
<g id="a_node5"><a xlink:href="Spectrum.html#to_is_spectrum" xlink:title="to_is_spectrum">
<ellipse fill="#f070d1" stroke="black" cx="752" cy="-501.591" rx="64.9891" ry="18"/>
<ellipse fill="none" stroke="black" cx="752" cy="-501.591" rx="68.9888" ry="22"/>
<ellipse fill="none" stroke="black" cx="752" cy="-501.591" rx="72.9885" ry="26"/>
<text text-anchor="middle" x="752" y="-497.891" font-family="Times,serif" font-size="14.00">to_is_spectrum</text>
</a>
</g>
</g>
<!-- Spectrum_to_prespectrum -->
<g id="node6" class="node"><title>Spectrum_to_prespectrum</title>
<g id="a_node6"><a xlink:href="Spectrum.html#to_prespectrum" xlink:title="to_prespectrum">
<ellipse fill="#f070d1" stroke="black" cx="587" cy="-501.591" rx="65.7729" ry="18"/>
<ellipse fill="none" stroke="black" cx="587" cy="-501.591" rx="69.7808" ry="22"/>
<ellipse fill="none" stroke="black" cx="587" cy="-501.591" rx="73.7886" ry="26"/>
<text text-anchor="middle" x="587" y="-497.891" font-family="Times,serif" font-size="14.00">to_prespectrum</text>
</a>
</g>
</g>
<!-- Spectrum_IsSpectrum -->
<g id="node11" class="node"><title>Spectrum_IsSpectrum</title>
<g id="a_node11"><a xlink:href="Spectrum.html#IsSpectrum" xlink:title="IsSpectrum">
<ellipse fill="#f070d1" stroke="black" cx="776" cy="-153.591" rx="51.1914" ry="18"/>
<text text-anchor="middle" x="776" y="-149.891" font-family="Times,serif" font-size="14.00">IsSpectrum</text>
</a>
</g>
</g>
<!-- Spectrum_Build_Spectrum&#45;&gt;Spectrum_IsSpectrum -->
<g id="edge7" class="edge"><title>Spectrum_Build_Spectrum&#45;&gt;Spectrum_IsSpectrum</title>
<path fill="none" stroke="black" d="M665.797,-240.418C688.034,-222.898 722.66,-195.617 747.157,-176.316"/>
<polygon fill="black" stroke="black" points="749.354,-179.041 755.043,-170.103 745.022,-173.542 749.354,-179.041"/>
</g>
<!-- Spectrum_Spectrum&#45;&gt;Spectrum_IsSpectrum -->
<g id="edge8" class="edge"><title>Spectrum_Spectrum&#45;&gt;Spectrum_IsSpectrum</title>
<path fill="none" stroke="black" d="M776,-239.476C776,-223.616 776,-200.309 776,-181.974"/>
<polygon fill="black" stroke="black" points="779.5,-181.848 776,-171.848 772.5,-181.848 779.5,-181.848"/>
</g>
<!-- Spectrum_equiv_glue -->
<g id="node9" class="node"><title>Spectrum_equiv_glue</title>
<g id="a_node9"><a xlink:href="Spectrum.html#equiv_glue" xlink:title="equiv_glue">
<ellipse fill="#f070d1" stroke="black" cx="1075" cy="-373.591" rx="50.0849" ry="18"/>
<ellipse fill="none" stroke="black" cx="1075" cy="-373.591" rx="54.088" ry="22"/>
<ellipse fill="none" stroke="black" cx="1075" cy="-373.591" rx="58.0912" ry="26"/>
<text text-anchor="middle" x="1075" y="-369.891" font-family="Times,serif" font-size="14.00">equiv_glue</text>
</a>
</g>
</g>
<!-- Spectrum_is_equiv_glue -->
<g id="node10" class="node"><title>Spectrum_is_equiv_glue</title>
<g id="a_node10"><a xlink:href="Spectrum.html#is_equiv_glue" xlink:title="is_equiv_glue">
<ellipse fill="#f070d1" stroke="black" cx="1075" cy="-257.591" rx="59.5901" ry="18"/>
<text text-anchor="middle" x="1075" y="-253.891" font-family="Times,serif" font-size="14.00">is_equiv_glue</text>
</a>
</g>
</g>
<!-- Spectrum_equiv_glue&#45;&gt;Spectrum_is_equiv_glue -->
<g id="edge9" class="edge"><title>Spectrum_equiv_glue&#45;&gt;Spectrum_is_equiv_glue</title>
<path fill="none" stroke="black" d="M1075,-347.559C1075,-329.158 1075,-304.514 1075,-285.672"/>
<polygon fill="black" stroke="black" points="1078.5,-285.609 1075,-275.609 1071.5,-285.609 1078.5,-285.609"/>
</g>
<!-- Spectrum_is_equiv_glue&#45;&gt;Spectrum_IsSpectrum -->
<g id="edge10" class="edge"><title>Spectrum_is_equiv_glue&#45;&gt;Spectrum_IsSpectrum</title>
<path fill="none" stroke="black" d="M1035.6,-243.888C980.588,-224.752 880.936,-190.091 822.397,-169.729"/>
<polygon fill="black" stroke="black" points="823.262,-166.325 812.667,-166.345 820.962,-172.936 823.262,-166.325"/>
</g>
<!-- Spectrum_Prespectrum -->
<g id="node18" class="node"><title>Spectrum_Prespectrum</title>
<g id="a_node18"><a xlink:href="Spectrum.html#Prespectrum" xlink:title="Prespectrum">
<ellipse fill="#e2cdfa" stroke="black" cx="776" cy="-49.5912" rx="55.4913" ry="18"/>
<text text-anchor="middle" x="776" y="-45.8912" font-family="Times,serif" font-size="14.00">Prespectrum</text>
</a>
</g>
</g>
<!-- Spectrum_IsSpectrum&#45;&gt;Spectrum_Prespectrum -->
<g id="edge11" class="edge"><title>Spectrum_IsSpectrum&#45;&gt;Spectrum_Prespectrum</title>
<path fill="none" stroke="black" d="M776,-135.476C776,-119.616 776,-96.3086 776,-77.9743"/>
<polygon fill="black" stroke="black" points="779.5,-77.848 776,-67.848 772.5,-77.848 779.5,-77.848"/>
</g>
<!-- Spectrum_Prespectrum_rec -->
<g id="node12" class="node"><title>Spectrum_Prespectrum_rec</title>
<g id="a_node12"><a xlink:href="Spectrum.html#Prespectrum_rec" xlink:title="Prespectrum_rec">
<ellipse fill="#f070d1" stroke="black" cx="1097" cy="-501.591" rx="70.3682" ry="18"/>
<ellipse fill="none" stroke="black" cx="1097" cy="-501.591" rx="74.3781" ry="22"/>
<ellipse fill="none" stroke="black" cx="1097" cy="-501.591" rx="78.388" ry="26"/>
<text text-anchor="middle" x="1097" y="-497.891" font-family="Times,serif" font-size="14.00">Prespectrum_rec</text>
</a>
</g>
</g>
<!-- Spectrum_Prespectrum_rect -->
<g id="node14" class="node"><title>Spectrum_Prespectrum_rect</title>
<g id="a_node14"><a xlink:href="Spectrum.html#Prespectrum_rect" xlink:title="Prespectrum_rect">
<ellipse fill="#f070d1" stroke="black" cx="922" cy="-373.591" rx="72.5877" ry="18"/>
<text text-anchor="middle" x="922" y="-369.891" font-family="Times,serif" font-size="14.00">Prespectrum_rect</text>
</a>
</g>
</g>
<!-- Spectrum_Prespectrum_rec&#45;&gt;Spectrum_Prespectrum_rect -->
<g id="edge12" class="edge"><title>Spectrum_Prespectrum_rec&#45;&gt;Spectrum_Prespectrum_rect</title>
<path fill="none" stroke="black" d="M1064.49,-477.815C1032.87,-454.686 985.133,-419.768 953.765,-396.825"/>
<polygon fill="black" stroke="black" points="955.516,-393.77 945.379,-390.691 951.384,-399.42 955.516,-393.77"/>
</g>
<!-- Spectrum_Prespectrum_ind -->
<g id="node13" class="node"><title>Spectrum_Prespectrum_ind</title>
<g id="a_node13"><a xlink:href="Spectrum.html#Prespectrum_ind" xlink:title="Prespectrum_ind">
<ellipse fill="#7fffd4" stroke="black" cx="922" cy="-501.591" rx="70.7036" ry="18"/>
<ellipse fill="none" stroke="black" cx="922" cy="-501.591" rx="74.6957" ry="22"/>
<ellipse fill="none" stroke="black" cx="922" cy="-501.591" rx="78.6877" ry="26"/>
<text text-anchor="middle" x="922" y="-497.891" font-family="Times,serif" font-size="14.00">Prespectrum_ind</text>
</a>
</g>
</g>
<!-- Spectrum_Prespectrum_ind&#45;&gt;Spectrum_Prespectrum_rect -->
<g id="edge13" class="edge"><title>Spectrum_Prespectrum_ind&#45;&gt;Spectrum_Prespectrum_rect</title>
<path fill="none" stroke="black" d="M922,-475.38C922,-454.009 922,-423.88 922,-401.949"/>
<polygon fill="black" stroke="black" points="925.5,-401.916 922,-391.916 918.5,-401.916 925.5,-401.916"/>
</g>
<!-- Spectrum_Prespectrum_rect&#45;&gt;Spectrum_Build_Prespectrum -->
<g id="edge14" class="edge"><title>Spectrum_Prespectrum_rect&#45;&gt;Spectrum_Build_Prespectrum</title>
<path fill="none" stroke="black" d="M921.375,-355.466C920.736,-336.932 919.734,-307.87 918.987,-286.222"/>
<polygon fill="black" stroke="black" points="922.476,-285.845 918.634,-275.972 915.481,-286.086 922.476,-285.845"/>
</g>
<!-- Spectrum_glue -->
<g id="node15" class="node"><title>Spectrum_glue</title>
<g id="a_node15"><a xlink:href="Spectrum.html#glue" xlink:title="glue">
<ellipse fill="#f070d1" stroke="black" cx="153" cy="-501.591" rx="27" ry="18"/>
<ellipse fill="none" stroke="black" cx="153" cy="-501.591" rx="31" ry="22"/>
<ellipse fill="none" stroke="black" cx="153" cy="-501.591" rx="35" ry="26"/>
<text text-anchor="middle" x="153" y="-497.891" font-family="Times,serif" font-size="14.00">glue</text>
</a>
</g>
</g>
<!-- Spectrum_deloop -->
<g id="node16" class="node"><title>Spectrum_deloop</title>
<g id="a_node16"><a xlink:href="Spectrum.html#deloop" xlink:title="deloop">
<ellipse fill="#f070d1" stroke="black" cx="58" cy="-501.591" rx="34.4039" ry="18"/>
<ellipse fill="none" stroke="black" cx="58" cy="-501.591" rx="38.3989" ry="22"/>
<ellipse fill="none" stroke="black" cx="58" cy="-501.591" rx="42.394" ry="26"/>
<text text-anchor="middle" x="58" y="-497.891" font-family="Times,serif" font-size="14.00">deloop</text>
</a>
</g>
</g>
</g>
</svg>
