<?xml version="1.0" encoding="UTF-8" standalone="no"?>
<!DOCTYPE svg PUBLIC "-//W3C//DTD SVG 1.1//EN"
 "http://www.w3.org/Graphics/SVG/1.1/DTD/svg11.dtd">
<!-- Generated by graphviz version 2.39.20161220.0128 (20161220.0128)
 -->
<!-- Title: HoTT_PropResizing_PropResizing Pages: 1 -->
<svg width="424pt" height="216pt"
 viewBox="0.00 0.00 424.00 216.00" xmlns="http://www.w3.org/2000/svg" xmlns:xlink="http://www.w3.org/1999/xlink">
<g id="graph0" class="graph" transform="scale(1 1) rotate(0) translate(4 212)">
<title>HoTT_PropResizing_PropResizing</title>
<polygon fill="#ffffff" stroke="transparent" points="-4,4 -4,-212 420,-212 420,4 -4,4"/>
<g id="clust1" class="cluster">
<title>cluster_PropResizing</title>
<polygon fill="#ffffc3" stroke="#000000" points="8,-9.2961 8,-198.7039 408,-198.7039 408,-9.2961 8,-9.2961"/>
<text text-anchor="middle" x="52.5" y="-183.5039" font-family="Times,serif" font-size="14.00" fill="#000000">PropResizing</text>
</g>
<!-- PropResizing_ishprop_resize_hprop -->
<g id="node1" class="node">
<title>PropResizing_ishprop_resize_hprop</title>
<g id="a_node1"><a xlink:href="PropResizing.html#ishprop_resize_hprop" xlink:title="ishprop_resize_hprop">
<ellipse fill="#f070d1" stroke="#000000" cx="305" cy="-132.2961" rx="87.1769" ry="18"/>
<ellipse fill="none" stroke="#000000" cx="305" cy="-132.2961" rx="91.1807" ry="22"/>
<ellipse fill="none" stroke="#000000" cx="305" cy="-132.2961" rx="95.1846" ry="26"/>
<text text-anchor="middle" x="305" y="-128.5961" font-family="Times,serif" font-size="14.00" fill="#000000">ishprop_resize_hprop</text>
</a>
</g>
</g>
<!-- PropResizing_resize_hprop -->
<g id="node3" class="node">
<title>PropResizing_resize_hprop</title>
<g id="a_node3"><a xlink:href="PropResizing.html#resize_hprop" xlink:title="resize_hprop">
<ellipse fill="#facdef" stroke="#000000" cx="191" cy="-39.2961" rx="55.7903" ry="18"/>
<text text-anchor="middle" x="191" y="-35.5961" font-family="Times,serif" font-size="14.00" fill="#000000">resize_hprop</text>
</a>
</g>
</g>
<!-- PropResizing_ishprop_resize_hprop&#45;&gt;PropResizing_resize_hprop -->
<g id="edge1" class="edge">
<title>PropResizing_ishprop_resize_hprop&#45;&gt;PropResizing_resize_hprop</title>
<path fill="none" stroke="#000000" d="M274.7494,-107.618C257.6299,-93.6521 236.3471,-76.2898 219.5205,-62.5628"/>
<polygon fill="#000000" stroke="#000000" points="221.617,-59.7562 211.6559,-56.147 217.1921,-65.1803 221.617,-59.7562"/>
</g>
<!-- PropResizing_PropResizing -->
<g id="node4" class="node">
<title>PropResizing_PropResizing</title>
<g id="a_node4"><a xlink:href="PropResizing.html#PropResizing" xlink:title="PropResizing">
<ellipse fill="#facdef" stroke="#000000" cx="323" cy="-39.2961" rx="57.6901" ry="18"/>
<text text-anchor="middle" x="323" y="-35.5961" font-family="Times,serif" font-size="14.00" fill="#000000">PropResizing</text>
</a>
</g>
</g>
<!-- PropResizing_ishprop_resize_hprop&#45;&gt;PropResizing_PropResizing -->
<g id="edge2" class="edge">
<title>PropResizing_ishprop_resize_hprop&#45;&gt;PropResizing_PropResizing</title>
<path fill="none" stroke="#000000" d="M310.1099,-105.8948C312.4251,-93.9329 315.1656,-79.7737 317.5231,-67.5933"/>
<polygon fill="#000000" stroke="#000000" points="321.0119,-67.9864 319.476,-57.5035 314.1394,-66.6562 321.0119,-67.9864"/>
</g>
<!-- PropResizing_equiv_resize_hprop -->
<g id="node2" class="node">
<title>PropResizing_equiv_resize_hprop</title>
<g id="a_node2"><a xlink:href="PropResizing.html#equiv_resize_hprop" xlink:title="equiv_resize_hprop">
<ellipse fill="#facdef" stroke="#000000" cx="104" cy="-132.2961" rx="79.891" ry="18"/>
<ellipse fill="none" stroke="#000000" cx="104" cy="-132.2961" rx="83.8884" ry="22"/>
<ellipse fill="none" stroke="#000000" cx="104" cy="-132.2961" rx="87.8859" ry="26"/>
<text text-anchor="middle" x="104" y="-128.5961" font-family="Times,serif" font-size="14.00" fill="#000000">equiv_resize_hprop</text>
</a>
</g>
</g>
</g>
</svg>
