<?xml version="1.0" encoding="UTF-8" standalone="no"?>
<!DOCTYPE svg PUBLIC "-//W3C//DTD SVG 1.1//EN"
 "http://www.w3.org/Graphics/SVG/1.1/DTD/svg11.dtd">
<!-- Generated by graphviz version 2.39.20161220.0128 (20161220.0128)
 -->
<!-- Title: HoTT_HIT_Colimits_Diagram Pages: 1 -->
<svg width="2839pt" height="1424pt"
 viewBox="0.00 0.00 2839.00 1423.50" xmlns="http://www.w3.org/2000/svg" xmlns:xlink="http://www.w3.org/1999/xlink">
<g id="graph0" class="graph" transform="scale(1 1) rotate(0) translate(4 1419.5)">
<title>HoTT_HIT_Colimits_Diagram</title>
<polygon fill="#ffffff" stroke="transparent" points="-4,4 -4,-1419.5 2835,-1419.5 2835,4 -4,4"/>
<g id="clust1" class="cluster">
<title>cluster_Diagram</title>
<polygon fill="#ffffc3" stroke="#000000" points="8,-33.4041 8,-1382.0959 2823,-1382.0959 2823,-33.4041 8,-33.4041"/>
<text text-anchor="middle" x="40.5" y="-1366.8959" font-family="Times,serif" font-size="14.00" fill="#000000">Diagram</text>
</g>
<!-- Diagram_transitive_diagram_equiv -->
<g id="node1" class="node">
<title>Diagram_transitive_diagram_equiv</title>
<g id="a_node1"><a xlink:href="Diagram.html#transitive_diagram_equiv" xlink:title="transitive_diagram_equiv">
<ellipse fill="#f070d1" stroke="#000000" cx="2526" cy="-776.4041" rx="100.9649" ry="18"/>
<ellipse fill="none" stroke="#000000" cx="2526" cy="-776.4041" rx="104.9738" ry="22"/>
<ellipse fill="none" stroke="#000000" cx="2526" cy="-776.4041" rx="108.9827" ry="26"/>
<text text-anchor="middle" x="2526" y="-772.7041" font-family="Times,serif" font-size="14.00" fill="#000000">transitive_diagram_equiv</text>
</a>
</g>
</g>
<!-- Diagram_Build_diagram_equiv -->
<g id="node12" class="node">
<title>Diagram_Build_diagram_equiv</title>
<g id="a_node12"><a xlink:href="Diagram.html#Build_diagram_equiv" xlink:title="Build_diagram_equiv">
<ellipse fill="#7faaff" stroke="#000000" cx="2252" cy="-442.4041" rx="87.9851" ry="18"/>
<text text-anchor="middle" x="2252" y="-438.7041" font-family="Times,serif" font-size="14.00" fill="#000000">Build_diagram_equiv</text>
</a>
</g>
</g>
<!-- Diagram_transitive_diagram_equiv&#45;&gt;Diagram_Build_diagram_equiv -->
<g id="edge1" class="edge">
<title>Diagram_transitive_diagram_equiv&#45;&gt;Diagram_Build_diagram_equiv</title>
<path fill="none" stroke="#000000" d="M2504.9546,-750.7503C2453.9848,-688.6192 2324.3602,-530.6097 2273.2157,-468.2656"/>
<polygon fill="#000000" stroke="#000000" points="2275.8641,-465.9756 2266.8157,-460.4641 2270.4522,-470.4153 2275.8641,-465.9756"/>
</g>
<!-- Diagram_diagram_comp -->
<g id="node14" class="node">
<title>Diagram_diagram_comp</title>
<g id="a_node14"><a xlink:href="Diagram.html#diagram_comp" xlink:title="diagram_comp">
<ellipse fill="#f070d1" stroke="#000000" cx="2050" cy="-442.4041" rx="64.189" ry="18"/>
<text text-anchor="middle" x="2050" y="-438.7041" font-family="Times,serif" font-size="14.00" fill="#000000">diagram_comp</text>
</a>
</g>
</g>
<!-- Diagram_transitive_diagram_equiv&#45;&gt;Diagram_diagram_comp -->
<g id="edge2" class="edge">
<title>Diagram_transitive_diagram_equiv&#45;&gt;Diagram_diagram_comp</title>
<path fill="none" stroke="#000000" d="M2490.6115,-751.5727C2401.3535,-688.9421 2168.0758,-525.2556 2082.2744,-465.0504"/>
<polygon fill="#000000" stroke="#000000" points="2084.1641,-462.1008 2073.9679,-459.2219 2080.1434,-467.8309 2084.1641,-462.1008"/>
</g>
<!-- Diagram_symmetric_diagram_equiv -->
<g id="node2" class="node">
<title>Diagram_symmetric_diagram_equiv</title>
<g id="a_node2"><a xlink:href="Diagram.html#symmetric_diagram_equiv" xlink:title="symmetric_diagram_equiv">
<ellipse fill="#f070d1" stroke="#000000" cx="2285" cy="-776.4041" rx="106.6748" ry="18"/>
<ellipse fill="none" stroke="#000000" cx="2285" cy="-776.4041" rx="110.678" ry="22"/>
<ellipse fill="none" stroke="#000000" cx="2285" cy="-776.4041" rx="114.6812" ry="26"/>
<text text-anchor="middle" x="2285" y="-772.7041" font-family="Times,serif" font-size="14.00" fill="#000000">symmetric_diagram_equiv</text>
</a>
</g>
</g>
<!-- Diagram_diagram_equiv_inv -->
<g id="node6" class="node">
<title>Diagram_diagram_equiv_inv</title>
<g id="a_node6"><a xlink:href="Diagram.html#diagram_equiv_inv" xlink:title="diagram_equiv_inv">
<ellipse fill="#f070d1" stroke="#000000" cx="1888" cy="-442.4041" rx="79.0865" ry="18"/>
<text text-anchor="middle" x="1888" y="-438.7041" font-family="Times,serif" font-size="14.00" fill="#000000">diagram_equiv_inv</text>
</a>
</g>
</g>
<!-- Diagram_symmetric_diagram_equiv&#45;&gt;Diagram_diagram_equiv_inv -->
<g id="edge3" class="edge">
<title>Diagram_symmetric_diagram_equiv&#45;&gt;Diagram_diagram_equiv_inv</title>
<path fill="none" stroke="#000000" d="M2255.1605,-751.2998C2181.1923,-689.0697 1990.0823,-528.287 1917.0045,-466.8059"/>
<polygon fill="#000000" stroke="#000000" points="1919.0001,-463.9109 1909.0947,-460.1513 1914.4936,-469.2674 1919.0001,-463.9109"/>
</g>
<!-- Diagram_symmetric_diagram_equiv&#45;&gt;Diagram_Build_diagram_equiv -->
<g id="edge4" class="edge">
<title>Diagram_symmetric_diagram_equiv&#45;&gt;Diagram_Build_diagram_equiv</title>
<path fill="none" stroke="#000000" d="M2282.4105,-750.1957C2276.3205,-688.5572 2261.1289,-534.7995 2254.818,-470.9253"/>
<polygon fill="#000000" stroke="#000000" points="2258.2817,-470.3848 2253.8153,-460.7774 2251.3156,-471.0731 2258.2817,-470.3848"/>
</g>
<!-- Diagram_reflexive_diagram_equiv -->
<g id="node3" class="node">
<title>Diagram_reflexive_diagram_equiv</title>
<g id="a_node3"><a xlink:href="Diagram.html#reflexive_diagram_equiv" xlink:title="reflexive_diagram_equiv">
<ellipse fill="#f070d1" stroke="#000000" cx="2045" cy="-776.4041" rx="99.3868" ry="18"/>
<ellipse fill="none" stroke="#000000" cx="2045" cy="-776.4041" rx="103.3846" ry="22"/>
<ellipse fill="none" stroke="#000000" cx="2045" cy="-776.4041" rx="107.3824" ry="26"/>
<text text-anchor="middle" x="2045" y="-772.7041" font-family="Times,serif" font-size="14.00" fill="#000000">reflexive_diagram_equiv</text>
</a>
</g>
</g>
<!-- Diagram_reflexive_diagram_equiv&#45;&gt;Diagram_Build_diagram_equiv -->
<g id="edge5" class="edge">
<title>Diagram_reflexive_diagram_equiv&#45;&gt;Diagram_Build_diagram_equiv</title>
<path fill="none" stroke="#000000" d="M2061.0707,-750.4736C2099.5496,-688.3869 2196.6536,-531.707 2235.5323,-468.9752"/>
<polygon fill="#000000" stroke="#000000" points="2238.5391,-470.7676 2240.8321,-460.4238 2232.5891,-467.08 2238.5391,-470.7676"/>
</g>
<!-- Diagram_diagram_idmap -->
<g id="node15" class="node">
<title>Diagram_diagram_idmap</title>
<g id="a_node15"><a xlink:href="Diagram.html#diagram_idmap" xlink:title="diagram_idmap">
<ellipse fill="#f070d1" stroke="#000000" cx="1724" cy="-442.4041" rx="66.8882" ry="18"/>
<text text-anchor="middle" x="1724" y="-438.7041" font-family="Times,serif" font-size="14.00" fill="#000000">diagram_idmap</text>
</a>
</g>
</g>
<!-- Diagram_reflexive_diagram_equiv&#45;&gt;Diagram_diagram_idmap -->
<g id="edge6" class="edge">
<title>Diagram_reflexive_diagram_equiv&#45;&gt;Diagram_diagram_idmap</title>
<path fill="none" stroke="#000000" d="M2020.6094,-751.0257C1960.8382,-688.8339 1807.6134,-529.4038 1748.1227,-467.5037"/>
<polygon fill="#000000" stroke="#000000" points="1750.4714,-464.8966 1741.0185,-460.1118 1745.4244,-469.7471 1750.4714,-464.8966"/>
</g>
<!-- Diagram_diagram_inv_is_retraction -->
<g id="node4" class="node">
<title>Diagram_diagram_inv_is_retraction</title>
<g id="a_node4"><a xlink:href="Diagram.html#diagram_inv_is_retraction" xlink:title="diagram_inv_is_retraction">
<ellipse fill="#f070d1" stroke="#000000" cx="1808" cy="-776.4041" rx="103.9822" ry="18"/>
<ellipse fill="none" stroke="#000000" cx="1808" cy="-776.4041" rx="107.9819" ry="22"/>
<ellipse fill="none" stroke="#000000" cx="1808" cy="-776.4041" rx="111.9815" ry="26"/>
<text text-anchor="middle" x="1808" y="-772.7041" font-family="Times,serif" font-size="14.00" fill="#000000">diagram_inv_is_retraction</text>
</a>
</g>
</g>
<!-- Diagram_diagram_inv_is_retraction&#45;&gt;Diagram_diagram_equiv_inv -->
<g id="edge7" class="edge">
<title>Diagram_diagram_inv_is_retraction&#45;&gt;Diagram_diagram_equiv_inv</title>
<path fill="none" stroke="#000000" d="M1814.2775,-750.1957C1829.076,-688.4118 1866.0432,-534.0737 1881.2765,-470.4749"/>
<polygon fill="#000000" stroke="#000000" points="1884.7679,-470.9238 1883.6935,-460.3836 1877.9604,-469.2932 1884.7679,-470.9238"/>
</g>
<!-- Diagram_diagram_inv_is_retraction&#45;&gt;Diagram_Build_diagram_equiv -->
<g id="edge8" class="edge">
<title>Diagram_diagram_inv_is_retraction&#45;&gt;Diagram_Build_diagram_equiv</title>
<path fill="none" stroke="#000000" d="M1841.3722,-751.2998C1924.3624,-688.8703 2139.2035,-527.2555 2220.3434,-466.2179"/>
<polygon fill="#000000" stroke="#000000" points="2222.7802,-468.7646 2228.6675,-459.956 2218.5721,-463.1706 2222.7802,-468.7646"/>
</g>
<!-- Diagram_diagram_inv_is_retraction&#45;&gt;Diagram_diagram_comp -->
<g id="edge9" class="edge">
<title>Diagram_diagram_inv_is_retraction&#45;&gt;Diagram_diagram_comp</title>
<path fill="none" stroke="#000000" d="M1826.5875,-750.7503C1871.6185,-688.6001 1986.161,-530.5125 2031.3037,-468.2081"/>
<polygon fill="#000000" stroke="#000000" points="2034.1654,-470.2238 2037.1985,-460.0724 2028.4969,-466.1166 2034.1654,-470.2238"/>
</g>
<!-- Diagram_diagram_inv_is_retraction&#45;&gt;Diagram_diagram_idmap -->
<g id="edge10" class="edge">
<title>Diagram_diagram_inv_is_retraction&#45;&gt;Diagram_diagram_idmap</title>
<path fill="none" stroke="#000000" d="M1801.4087,-750.1957C1785.8381,-688.2842 1746.8941,-533.4355 1730.9609,-470.0818"/>
<polygon fill="#000000" stroke="#000000" points="1734.3552,-469.2279 1728.5218,-460.3836 1727.5666,-470.9353 1734.3552,-469.2279"/>
</g>
<!-- Diagram_path_diagram_map -->
<g id="node16" class="node">
<title>Diagram_path_diagram_map</title>
<g id="a_node16"><a xlink:href="Diagram.html#path_diagram_map" xlink:title="path_diagram_map">
<ellipse fill="#f070d1" stroke="#000000" cx="1560" cy="-442.4041" rx="79.0865" ry="18"/>
<text text-anchor="middle" x="1560" y="-438.7041" font-family="Times,serif" font-size="14.00" fill="#000000">path_diagram_map</text>
</a>
</g>
</g>
<!-- Diagram_diagram_inv_is_retraction&#45;&gt;Diagram_path_diagram_map -->
<g id="edge11" class="edge">
<title>Diagram_diagram_inv_is_retraction&#45;&gt;Diagram_path_diagram_map</title>
<path fill="none" stroke="#000000" d="M1788.9516,-750.7503C1742.9126,-688.746 1625.9725,-531.2542 1579.4868,-468.6485"/>
<polygon fill="#000000" stroke="#000000" points="1582.1814,-466.4063 1573.4098,-460.4641 1576.5612,-470.5794 1582.1814,-466.4063"/>
</g>
<!-- Diagram_diagram_inv_is_section -->
<g id="node5" class="node">
<title>Diagram_diagram_inv_is_section</title>
<g id="a_node5"><a xlink:href="Diagram.html#diagram_inv_is_section" xlink:title="diagram_inv_is_section">
<ellipse fill="#f070d1" stroke="#000000" cx="1575" cy="-776.4041" rx="94.7917" ry="18"/>
<ellipse fill="none" stroke="#000000" cx="1575" cy="-776.4041" rx="98.7875" ry="22"/>
<ellipse fill="none" stroke="#000000" cx="1575" cy="-776.4041" rx="102.7833" ry="26"/>
<text text-anchor="middle" x="1575" y="-772.7041" font-family="Times,serif" font-size="14.00" fill="#000000">diagram_inv_is_section</text>
</a>
</g>
</g>
<!-- Diagram_diagram_inv_is_section&#45;&gt;Diagram_diagram_equiv_inv -->
<g id="edge12" class="edge">
<title>Diagram_diagram_inv_is_section&#45;&gt;Diagram_diagram_equiv_inv</title>
<path fill="none" stroke="#000000" d="M1598.7828,-751.0257C1657.0643,-688.8339 1806.4704,-529.4038 1864.4785,-467.5037"/>
<polygon fill="#000000" stroke="#000000" points="1867.1215,-469.8019 1871.4057,-460.1118 1862.0138,-465.0153 1867.1215,-469.8019"/>
</g>
<!-- Diagram_diagram_inv_is_section&#45;&gt;Diagram_Build_diagram_equiv -->
<g id="edge13" class="edge">
<title>Diagram_diagram_inv_is_section&#45;&gt;Diagram_Build_diagram_equiv</title>
<path fill="none" stroke="#000000" d="M1622.0678,-753.1831C1747.462,-691.3195 2088.2392,-523.196 2208.9242,-463.6557"/>
<polygon fill="#000000" stroke="#000000" points="2210.8167,-466.6249 2218.2362,-459.0616 2207.7196,-460.3473 2210.8167,-466.6249"/>
</g>
<!-- Diagram_diagram_inv_is_section&#45;&gt;Diagram_diagram_comp -->
<g id="edge14" class="edge">
<title>Diagram_diagram_inv_is_section&#45;&gt;Diagram_diagram_comp</title>
<path fill="none" stroke="#000000" d="M1609.9279,-751.8443C1698.6853,-689.4339 1931.9193,-525.4335 2017.7223,-465.1004"/>
<polygon fill="#000000" stroke="#000000" points="2019.8622,-467.8745 2026.0292,-459.2594 2015.8358,-462.1483 2019.8622,-467.8745"/>
</g>
<!-- Diagram_diagram_inv_is_section&#45;&gt;Diagram_diagram_idmap -->
<g id="edge15" class="edge">
<title>Diagram_diagram_inv_is_section&#45;&gt;Diagram_diagram_idmap</title>
<path fill="none" stroke="#000000" d="M1586.5678,-750.4736C1614.1517,-688.6413 1683.5891,-532.9897 1711.8002,-469.7512"/>
<polygon fill="#000000" stroke="#000000" points="1715.0835,-470.9822 1715.9613,-460.4238 1708.6908,-468.1304 1715.0835,-470.9822"/>
</g>
<!-- Diagram_diagram_inv_is_section&#45;&gt;Diagram_path_diagram_map -->
<g id="edge16" class="edge">
<title>Diagram_diagram_inv_is_section&#45;&gt;Diagram_path_diagram_map</title>
<path fill="none" stroke="#000000" d="M1573.823,-750.1957C1571.0548,-688.5572 1564.1495,-534.7995 1561.2809,-470.9253"/>
<polygon fill="#000000" stroke="#000000" points="1564.7704,-470.6103 1560.8251,-460.7774 1557.7774,-470.9244 1564.7704,-470.6103"/>
</g>
<!-- Diagram_Build_diagram_map -->
<g id="node22" class="node">
<title>Diagram_Build_diagram_map</title>
<g id="a_node22"><a xlink:href="Diagram.html#Build_diagram_map" xlink:title="Build_diagram_map">
<ellipse fill="#7faaff" stroke="#000000" cx="1724" cy="-142.4041" rx="83.6854" ry="18"/>
<text text-anchor="middle" x="1724" y="-138.7041" font-family="Times,serif" font-size="14.00" fill="#000000">Build_diagram_map</text>
</a>
</g>
</g>
<!-- Diagram_diagram_equiv_inv&#45;&gt;Diagram_Build_diagram_map -->
<g id="edge17" class="edge">
<title>Diagram_diagram_equiv_inv&#45;&gt;Diagram_Build_diagram_map</title>
<path fill="none" stroke="#000000" d="M1878.2322,-424.5362C1850.6099,-374.0076 1771.8045,-229.8514 1738.811,-169.4975"/>
<polygon fill="#000000" stroke="#000000" points="1741.7918,-167.6534 1733.924,-160.5578 1735.6497,-171.0111 1741.7918,-167.6534"/>
</g>
<!-- Diagram_diagram_equiv_rec -->
<g id="node7" class="node">
<title>Diagram_diagram_equiv_rec</title>
<g id="a_node7"><a xlink:href="Diagram.html#diagram_equiv_rec" xlink:title="diagram_equiv_rec">
<ellipse fill="#f070d1" stroke="#000000" cx="2728" cy="-1144.4041" rx="79.1053" ry="18"/>
<ellipse fill="none" stroke="#000000" cx="2728" cy="-1144.4041" rx="83.0959" ry="22"/>
<ellipse fill="none" stroke="#000000" cx="2728" cy="-1144.4041" rx="87.0864" ry="26"/>
<text text-anchor="middle" x="2728" y="-1140.7041" font-family="Times,serif" font-size="14.00" fill="#000000">diagram_equiv_rec</text>
</a>
</g>
</g>
<!-- Diagram_diagram_equiv_rect -->
<g id="node9" class="node">
<title>Diagram_diagram_equiv_rect</title>
<g id="a_node9"><a xlink:href="Diagram.html#diagram_equiv_rect" xlink:title="diagram_equiv_rect">
<ellipse fill="#f070d1" stroke="#000000" cx="2734" cy="-776.4041" rx="81.4863" ry="18"/>
<text text-anchor="middle" x="2734" y="-772.7041" font-family="Times,serif" font-size="14.00" fill="#000000">diagram_equiv_rect</text>
</a>
</g>
</g>
<!-- Diagram_diagram_equiv_rec&#45;&gt;Diagram_diagram_equiv_rect -->
<g id="edge18" class="edge">
<title>Diagram_diagram_equiv_rec&#45;&gt;Diagram_diagram_equiv_rect</title>
<path fill="none" stroke="#000000" d="M2728.4267,-1118.2335C2729.5195,-1051.211 2732.4119,-873.809 2733.5401,-804.6097"/>
<polygon fill="#000000" stroke="#000000" points="2737.0419,-804.5219 2733.7055,-794.4661 2730.0429,-804.4077 2737.0419,-804.5219"/>
</g>
<!-- Diagram_diagram_equiv_ind -->
<g id="node8" class="node">
<title>Diagram_diagram_equiv_ind</title>
<g id="a_node8"><a xlink:href="Diagram.html#diagram_equiv_ind" xlink:title="diagram_equiv_ind">
<ellipse fill="#7fffd4" stroke="#000000" cx="2535" cy="-1144.4041" rx="79.1053" ry="18"/>
<ellipse fill="none" stroke="#000000" cx="2535" cy="-1144.4041" rx="83.0959" ry="22"/>
<ellipse fill="none" stroke="#000000" cx="2535" cy="-1144.4041" rx="87.0864" ry="26"/>
<text text-anchor="middle" x="2535" y="-1140.7041" font-family="Times,serif" font-size="14.00" fill="#000000">diagram_equiv_ind</text>
</a>
</g>
</g>
<!-- Diagram_diagram_equiv_ind&#45;&gt;Diagram_diagram_equiv_rect -->
<g id="edge19" class="edge">
<title>Diagram_diagram_equiv_ind&#45;&gt;Diagram_diagram_equiv_rect</title>
<path fill="none" stroke="#000000" d="M2548.9933,-1118.5271C2585.3265,-1051.3381 2682.4044,-871.8172 2719.4019,-803.3996"/>
<polygon fill="#000000" stroke="#000000" points="2722.5331,-804.9674 2724.2111,-794.5063 2716.3757,-801.6377 2722.5331,-804.9674"/>
</g>
<!-- Diagram_diagram_equiv_rect&#45;&gt;Diagram_Build_diagram_equiv -->
<g id="edge20" class="edge">
<title>Diagram_diagram_equiv_rect&#45;&gt;Diagram_Build_diagram_equiv</title>
<path fill="none" stroke="#000000" d="M2709.1006,-759.1502C2628.7983,-703.505 2376.5893,-528.7378 2285.3552,-465.5175"/>
<polygon fill="#000000" stroke="#000000" points="2287.2527,-462.5742 2277.0398,-459.7553 2283.2658,-468.3279 2287.2527,-462.5742"/>
</g>
<!-- Diagram_diag_equiv_isequiv -->
<g id="node10" class="node">
<title>Diagram_diag_equiv_isequiv</title>
<g id="a_node10"><a xlink:href="Diagram.html#diag_equiv_isequiv" xlink:title="diag_equiv_isequiv">
<ellipse fill="#f070d1" stroke="#000000" cx="2342" cy="-1144.4041" rx="79.1053" ry="18"/>
<ellipse fill="none" stroke="#000000" cx="2342" cy="-1144.4041" rx="83.0959" ry="22"/>
<ellipse fill="none" stroke="#000000" cx="2342" cy="-1144.4041" rx="87.0864" ry="26"/>
<text text-anchor="middle" x="2342" y="-1140.7041" font-family="Times,serif" font-size="14.00" fill="#000000">diag_equiv_isequiv</text>
</a>
</g>
</g>
<!-- Diagram_diag_equiv_map -->
<g id="node11" class="node">
<title>Diagram_diag_equiv_map</title>
<g id="a_node11"><a xlink:href="Diagram.html#diag_equiv_map" xlink:title="diag_equiv_map">
<ellipse fill="#f070d1" stroke="#000000" cx="2159" cy="-1144.4041" rx="69.5832" ry="18"/>
<ellipse fill="none" stroke="#000000" cx="2159" cy="-1144.4041" rx="73.5854" ry="22"/>
<ellipse fill="none" stroke="#000000" cx="2159" cy="-1144.4041" rx="77.5877" ry="26"/>
<text text-anchor="middle" x="2159" y="-1140.7041" font-family="Times,serif" font-size="14.00" fill="#000000">diag_equiv_map</text>
</a>
</g>
</g>
<!-- Diagram_diagram_equiv -->
<g id="node13" class="node">
<title>Diagram_diagram_equiv</title>
<g id="a_node13"><a xlink:href="Diagram.html#diagram_equiv" xlink:title="diagram_equiv">
<ellipse fill="#e2cdfa" stroke="#000000" cx="1992" cy="-1144.4041" rx="63.8675" ry="18"/>
<ellipse fill="none" stroke="#000000" cx="1992" cy="-1144.4041" rx="67.8784" ry="22"/>
<ellipse fill="none" stroke="#000000" cx="1992" cy="-1144.4041" rx="71.8892" ry="26"/>
<text text-anchor="middle" x="1992" y="-1140.7041" font-family="Times,serif" font-size="14.00" fill="#000000">diagram_equiv</text>
</a>
</g>
</g>
<!-- Diagram_diagram_comp&#45;&gt;Diagram_Build_diagram_map -->
<g id="edge21" class="edge">
<title>Diagram_diagram_comp&#45;&gt;Diagram_Build_diagram_map</title>
<path fill="none" stroke="#000000" d="M2031.0638,-424.9782C1975.9394,-374.2502 1815.4144,-226.5278 1751.1062,-167.3484"/>
<polygon fill="#000000" stroke="#000000" points="1753.1271,-164.4517 1743.3986,-160.2556 1748.387,-169.6026 1753.1271,-164.4517"/>
</g>
<!-- Diagram_diagram_idmap&#45;&gt;Diagram_Build_diagram_map -->
<g id="edge22" class="edge">
<title>Diagram_diagram_idmap&#45;&gt;Diagram_Build_diagram_map</title>
<path fill="none" stroke="#000000" d="M1724,-424.0894C1724,-373.4451 1724,-231.2606 1724,-170.5047"/>
<polygon fill="#000000" stroke="#000000" points="1727.5001,-170.4791 1724,-160.4792 1720.5001,-170.4792 1727.5001,-170.4791"/>
</g>
<!-- Diagram_path_diagram_map&#45;&gt;Diagram_Build_diagram_map -->
<g id="edge23" class="edge">
<title>Diagram_path_diagram_map&#45;&gt;Diagram_Build_diagram_map</title>
<path fill="none" stroke="#000000" d="M1569.7678,-424.5362C1597.3901,-374.0076 1676.1955,-229.8514 1709.189,-169.4975"/>
<polygon fill="#000000" stroke="#000000" points="1712.3503,-171.0111 1714.076,-160.5578 1706.2082,-167.6534 1712.3503,-171.0111"/>
</g>
<!-- Diagram_diagram_map_rec -->
<g id="node17" class="node">
<title>Diagram_diagram_map_rec</title>
<g id="a_node17"><a xlink:href="Diagram.html#diagram_map_rec" xlink:title="diagram_map_rec">
<ellipse fill="#f070d1" stroke="#000000" cx="1371" cy="-776.4041" rx="75.297" ry="18"/>
<ellipse fill="none" stroke="#000000" cx="1371" cy="-776.4041" rx="79.2919" ry="22"/>
<ellipse fill="none" stroke="#000000" cx="1371" cy="-776.4041" rx="83.2868" ry="26"/>
<text text-anchor="middle" x="1371" y="-772.7041" font-family="Times,serif" font-size="14.00" fill="#000000">diagram_map_rec</text>
</a>
</g>
</g>
<!-- Diagram_diagram_map_rect -->
<g id="node19" class="node">
<title>Diagram_diagram_map_rect</title>
<g id="a_node19"><a xlink:href="Diagram.html#diagram_map_rect" xlink:title="diagram_map_rect">
<ellipse fill="#f070d1" stroke="#000000" cx="1371" cy="-442.4041" rx="77.1866" ry="18"/>
<text text-anchor="middle" x="1371" y="-438.7041" font-family="Times,serif" font-size="14.00" fill="#000000">diagram_map_rect</text>
</a>
</g>
</g>
<!-- Diagram_diagram_map_rec&#45;&gt;Diagram_diagram_map_rect -->
<g id="edge24" class="edge">
<title>Diagram_diagram_map_rec&#45;&gt;Diagram_diagram_map_rect</title>
<path fill="none" stroke="#000000" d="M1371,-750.1957C1371,-688.5572 1371,-534.7995 1371,-470.9253"/>
<polygon fill="#000000" stroke="#000000" points="1374.5001,-470.7774 1371,-460.7774 1367.5001,-470.7774 1374.5001,-470.7774"/>
</g>
<!-- Diagram_diagram_map_ind -->
<g id="node18" class="node">
<title>Diagram_diagram_map_ind</title>
<g id="a_node18"><a xlink:href="Diagram.html#diagram_map_ind" xlink:title="diagram_map_ind">
<ellipse fill="#7fffd4" stroke="#000000" cx="1186" cy="-776.4041" rx="75.297" ry="18"/>
<ellipse fill="none" stroke="#000000" cx="1186" cy="-776.4041" rx="79.2919" ry="22"/>
<ellipse fill="none" stroke="#000000" cx="1186" cy="-776.4041" rx="83.2868" ry="26"/>
<text text-anchor="middle" x="1186" y="-772.7041" font-family="Times,serif" font-size="14.00" fill="#000000">diagram_map_ind</text>
</a>
</g>
</g>
<!-- Diagram_diagram_map_ind&#45;&gt;Diagram_diagram_map_rect -->
<g id="edge25" class="edge">
<title>Diagram_diagram_map_ind&#45;&gt;Diagram_diagram_map_rect</title>
<path fill="none" stroke="#000000" d="M1200.2095,-750.7503C1234.4127,-688.9996 1321.074,-532.5409 1356.0353,-469.4214"/>
<polygon fill="#000000" stroke="#000000" points="1359.2131,-470.9077 1360.9967,-460.4641 1353.0897,-467.516 1359.2131,-470.9077"/>
</g>
<!-- Diagram_diagram_map_rect&#45;&gt;Diagram_Build_diagram_map -->
<g id="edge26" class="edge">
<title>Diagram_diagram_map_rect&#45;&gt;Diagram_Build_diagram_map</title>
<path fill="none" stroke="#000000" d="M1391.5046,-424.9782C1451.4574,-374.0267 1626.5482,-225.2243 1695.5631,-166.5715"/>
<polygon fill="#000000" stroke="#000000" points="1698.0854,-169.0211 1703.4388,-159.8782 1693.5523,-163.6871 1698.0854,-169.0211"/>
</g>
<!-- Diagram_diagram_map_comm -->
<g id="node20" class="node">
<title>Diagram_diagram_map_comm</title>
<g id="a_node20"><a xlink:href="Diagram.html#diagram_map_comm" xlink:title="diagram_map_comm">
<ellipse fill="#f070d1" stroke="#000000" cx="1807" cy="-1144.4041" rx="87.1769" ry="18"/>
<ellipse fill="none" stroke="#000000" cx="1807" cy="-1144.4041" rx="91.1807" ry="22"/>
<ellipse fill="none" stroke="#000000" cx="1807" cy="-1144.4041" rx="95.1846" ry="26"/>
<text text-anchor="middle" x="1807" y="-1140.7041" font-family="Times,serif" font-size="14.00" fill="#000000">diagram_map_comm</text>
</a>
</g>
</g>
<!-- Diagram_diagram_map_obj -->
<g id="node21" class="node">
<title>Diagram_diagram_map_obj</title>
<g id="a_node21"><a xlink:href="Diagram.html#diagram_map_obj" xlink:title="diagram_map_obj">
<ellipse fill="#f070d1" stroke="#000000" cx="1611" cy="-1144.4041" rx="75.297" ry="18"/>
<ellipse fill="none" stroke="#000000" cx="1611" cy="-1144.4041" rx="79.2919" ry="22"/>
<ellipse fill="none" stroke="#000000" cx="1611" cy="-1144.4041" rx="83.2868" ry="26"/>
<text text-anchor="middle" x="1611" y="-1140.7041" font-family="Times,serif" font-size="14.00" fill="#000000">diagram_map_obj</text>
</a>
</g>
</g>
<!-- Diagram_diagram_map -->
<g id="node23" class="node">
<title>Diagram_diagram_map</title>
<g id="a_node23"><a xlink:href="Diagram.html#diagram_map" xlink:title="diagram_map">
<ellipse fill="#e2cdfa" stroke="#000000" cx="1442" cy="-1144.4041" rx="59.6142" ry="18"/>
<ellipse fill="none" stroke="#000000" cx="1442" cy="-1144.4041" rx="63.6021" ry="22"/>
<ellipse fill="none" stroke="#000000" cx="1442" cy="-1144.4041" rx="67.59" ry="26"/>
<text text-anchor="middle" x="1442" y="-1140.7041" font-family="Times,serif" font-size="14.00" fill="#000000">diagram_map</text>
</a>
</g>
</g>
<!-- Diagram_path_diagram -->
<g id="node24" class="node">
<title>Diagram_path_diagram</title>
<g id="a_node24"><a xlink:href="Diagram.html#path_diagram" xlink:title="path_diagram">
<ellipse fill="#f070d1" stroke="#000000" cx="1288" cy="-1144.4041" rx="59.6142" ry="18"/>
<ellipse fill="none" stroke="#000000" cx="1288" cy="-1144.4041" rx="63.6021" ry="22"/>
<ellipse fill="none" stroke="#000000" cx="1288" cy="-1144.4041" rx="67.59" ry="26"/>
<text text-anchor="middle" x="1288" y="-1140.7041" font-family="Times,serif" font-size="14.00" fill="#000000">path_diagram</text>
</a>
</g>
</g>
<!-- Diagram_path_diagram_naive -->
<g id="node25" class="node">
<title>Diagram_path_diagram_naive</title>
<g id="a_node25"><a xlink:href="Diagram.html#path_diagram_naive" xlink:title="path_diagram_naive">
<ellipse fill="#f070d1" stroke="#000000" cx="1001" cy="-776.4041" rx="83.3857" ry="18"/>
<text text-anchor="middle" x="1001" y="-772.7041" font-family="Times,serif" font-size="14.00" fill="#000000">path_diagram_naive</text>
</a>
</g>
</g>
<!-- Diagram_path_diagram&#45;&gt;Diagram_path_diagram_naive -->
<g id="edge27" class="edge">
<title>Diagram_path_diagram&#45;&gt;Diagram_path_diagram_naive</title>
<path fill="none" stroke="#000000" d="M1268.499,-1119.3993C1216.3525,-1052.5356 1074.0736,-870.1012 1021.1677,-802.2637"/>
<polygon fill="#000000" stroke="#000000" points="1023.7936,-799.9395 1014.8839,-794.2064 1018.2738,-804.2443 1023.7936,-799.9395"/>
</g>
<!-- Diagram_Build_diagram -->
<g id="node31" class="node">
<title>Diagram_Build_diagram</title>
<g id="a_node31"><a xlink:href="Diagram.html#Build_diagram" xlink:title="Build_diagram">
<ellipse fill="#7faaff" stroke="#000000" cx="922" cy="-442.4041" rx="63.8893" ry="18"/>
<text text-anchor="middle" x="922" y="-438.7041" font-family="Times,serif" font-size="14.00" fill="#000000">Build_diagram</text>
</a>
</g>
</g>
<!-- Diagram_path_diagram_naive&#45;&gt;Diagram_Build_diagram -->
<g id="edge28" class="edge">
<title>Diagram_path_diagram_naive&#45;&gt;Diagram_Build_diagram</title>
<path fill="none" stroke="#000000" d="M996.6401,-757.9711C983.4988,-702.4115 944.2173,-536.3356 928.5535,-470.1115"/>
<polygon fill="#000000" stroke="#000000" points="931.9579,-469.2984 926.25,-460.3725 925.1458,-470.9096 931.9579,-469.2984"/>
</g>
<!-- Diagram_diagram_rec -->
<g id="node26" class="node">
<title>Diagram_diagram_rec</title>
<g id="a_node26"><a xlink:href="Diagram.html#diagram_rec" xlink:title="diagram_rec">
<ellipse fill="#f070d1" stroke="#000000" cx="993" cy="-1144.4041" rx="55.46" ry="18"/>
<ellipse fill="none" stroke="#000000" cx="993" cy="-1144.4041" rx="59.4756" ry="22"/>
<ellipse fill="none" stroke="#000000" cx="993" cy="-1144.4041" rx="63.4911" ry="26"/>
<text text-anchor="middle" x="993" y="-1140.7041" font-family="Times,serif" font-size="14.00" fill="#000000">diagram_rec</text>
</a>
</g>
</g>
<!-- Diagram_diagram_rect -->
<g id="node28" class="node">
<title>Diagram_diagram_rect</title>
<g id="a_node28"><a xlink:href="Diagram.html#diagram_rect" xlink:title="diagram_rect">
<ellipse fill="#f070d1" stroke="#000000" cx="842" cy="-776.4041" rx="57.6901" ry="18"/>
<text text-anchor="middle" x="842" y="-772.7041" font-family="Times,serif" font-size="14.00" fill="#000000">diagram_rect</text>
</a>
</g>
</g>
<!-- Diagram_diagram_rec&#45;&gt;Diagram_diagram_rect -->
<g id="edge29" class="edge">
<title>Diagram_diagram_rec&#45;&gt;Diagram_diagram_rect</title>
<path fill="none" stroke="#000000" d="M982.382,-1118.5271C954.869,-1051.4755 881.4515,-872.5509 853.2498,-803.8208"/>
<polygon fill="#000000" stroke="#000000" points="856.462,-802.4291 849.4278,-794.5063 849.9859,-805.0864 856.462,-802.4291"/>
</g>
<!-- Diagram_diagram_ind -->
<g id="node27" class="node">
<title>Diagram_diagram_ind</title>
<g id="a_node27"><a xlink:href="Diagram.html#diagram_ind" xlink:title="diagram_ind">
<ellipse fill="#7fffd4" stroke="#000000" cx="1138" cy="-1144.4041" rx="55.8034" ry="18"/>
<ellipse fill="none" stroke="#000000" cx="1138" cy="-1144.4041" rx="59.7968" ry="22"/>
<ellipse fill="none" stroke="#000000" cx="1138" cy="-1144.4041" rx="63.7903" ry="26"/>
<text text-anchor="middle" x="1138" y="-1140.7041" font-family="Times,serif" font-size="14.00" fill="#000000">diagram_ind</text>
</a>
</g>
</g>
<!-- Diagram_diagram_ind&#45;&gt;Diagram_diagram_rect -->
<g id="edge30" class="edge">
<title>Diagram_diagram_ind&#45;&gt;Diagram_diagram_rect</title>
<path fill="none" stroke="#000000" d="M1118.119,-1119.6872C1064.543,-1053.0792 917.525,-870.3001 862.8455,-802.3202"/>
<polygon fill="#000000" stroke="#000000" points="865.3458,-799.8443 856.3509,-794.2458 859.8913,-804.2316 865.3458,-799.8443"/>
</g>
<!-- Diagram_diagram_rect&#45;&gt;Diagram_Build_diagram -->
<g id="edge31" class="edge">
<title>Diagram_diagram_rect&#45;&gt;Diagram_Build_diagram</title>
<path fill="none" stroke="#000000" d="M846.3011,-758.4468C859.4864,-703.3985 899.4087,-536.7229 915.3353,-470.2294"/>
<polygon fill="#000000" stroke="#000000" points="918.7519,-470.9904 917.6776,-460.4502 911.9445,-469.3598 918.7519,-470.9904"/>
</g>
<!-- Diagram_diagram1 -->
<g id="node29" class="node">
<title>Diagram_diagram1</title>
<g id="a_node29"><a xlink:href="Diagram.html#diagram1" xlink:title="diagram1">
<ellipse fill="#f070d1" stroke="#000000" cx="860" cy="-1144.4041" rx="44.3627" ry="18"/>
<ellipse fill="none" stroke="#000000" cx="860" cy="-1144.4041" rx="48.3778" ry="22"/>
<ellipse fill="none" stroke="#000000" cx="860" cy="-1144.4041" rx="52.3929" ry="26"/>
<text text-anchor="middle" x="860" y="-1140.7041" font-family="Times,serif" font-size="14.00" fill="#000000">diagram1</text>
</a>
</g>
</g>
<!-- Diagram_diagram0 -->
<g id="node30" class="node">
<title>Diagram_diagram0</title>
<g id="a_node30"><a xlink:href="Diagram.html#diagram0" xlink:title="diagram0">
<ellipse fill="#f070d1" stroke="#000000" cx="738" cy="-1144.4041" rx="44.3627" ry="18"/>
<ellipse fill="none" stroke="#000000" cx="738" cy="-1144.4041" rx="48.3778" ry="22"/>
<ellipse fill="none" stroke="#000000" cx="738" cy="-1144.4041" rx="52.3929" ry="26"/>
<text text-anchor="middle" x="738" y="-1140.7041" font-family="Times,serif" font-size="14.00" fill="#000000">diagram0</text>
</a>
</g>
</g>
<!-- Diagram_diagram -->
<g id="node32" class="node">
<title>Diagram_diagram</title>
<g id="a_node32"><a xlink:href="Diagram.html#diagram" xlink:title="diagram">
<ellipse fill="#e2cdfa" stroke="#000000" cx="620" cy="-1144.4041" rx="40.1273" ry="18"/>
<ellipse fill="none" stroke="#000000" cx="620" cy="-1144.4041" rx="44.1105" ry="22"/>
<ellipse fill="none" stroke="#000000" cx="620" cy="-1144.4041" rx="48.0937" ry="26"/>
<text text-anchor="middle" x="620" y="-1140.7041" font-family="Times,serif" font-size="14.00" fill="#000000">diagram</text>
</a>
</g>
</g>
<!-- Diagram_graph_rec -->
<g id="node33" class="node">
<title>Diagram_graph_rec</title>
<g id="a_node33"><a xlink:href="Diagram.html#graph_rec" xlink:title="graph_rec">
<ellipse fill="#f070d1" stroke="#000000" cx="500" cy="-1144.4041" rx="46.2706" ry="18"/>
<ellipse fill="none" stroke="#000000" cx="500" cy="-1144.4041" rx="50.2814" ry="22"/>
<ellipse fill="none" stroke="#000000" cx="500" cy="-1144.4041" rx="54.2922" ry="26"/>
<text text-anchor="middle" x="500" y="-1140.7041" font-family="Times,serif" font-size="14.00" fill="#000000">graph_rec</text>
</a>
</g>
</g>
<!-- Diagram_graph_rect -->
<g id="node35" class="node">
<title>Diagram_graph_rect</title>
<g id="a_node35"><a xlink:href="Diagram.html#graph_rect" xlink:title="graph_rect">
<ellipse fill="#f070d1" stroke="#000000" cx="437" cy="-776.4041" rx="48.1917" ry="18"/>
<text text-anchor="middle" x="437" y="-772.7041" font-family="Times,serif" font-size="14.00" fill="#000000">graph_rect</text>
</a>
</g>
</g>
<!-- Diagram_graph_rec&#45;&gt;Diagram_graph_rect -->
<g id="edge32" class="edge">
<title>Diagram_graph_rec&#45;&gt;Diagram_graph_rect</title>
<path fill="none" stroke="#000000" d="M495.5197,-1118.2335C484.0457,-1051.211 453.6753,-873.809 441.8287,-804.6097"/>
<polygon fill="#000000" stroke="#000000" points="445.2294,-803.7321 440.0921,-794.4661 438.3298,-804.9134 445.2294,-803.7321"/>
</g>
<!-- Diagram_graph_ind -->
<g id="node34" class="node">
<title>Diagram_graph_ind</title>
<g id="a_node34"><a xlink:href="Diagram.html#graph_ind" xlink:title="graph_ind">
<ellipse fill="#7fffd4" stroke="#000000" cx="374" cy="-1144.4041" rx="46.2706" ry="18"/>
<ellipse fill="none" stroke="#000000" cx="374" cy="-1144.4041" rx="50.2814" ry="22"/>
<ellipse fill="none" stroke="#000000" cx="374" cy="-1144.4041" rx="54.2922" ry="26"/>
<text text-anchor="middle" x="374" y="-1140.7041" font-family="Times,serif" font-size="14.00" fill="#000000">graph_ind</text>
</a>
</g>
</g>
<!-- Diagram_graph_ind&#45;&gt;Diagram_graph_rect -->
<g id="edge33" class="edge">
<title>Diagram_graph_ind&#45;&gt;Diagram_graph_rect</title>
<path fill="none" stroke="#000000" d="M378.4803,-1118.2335C389.9543,-1051.211 420.3247,-873.809 432.1713,-804.6097"/>
<polygon fill="#000000" stroke="#000000" points="435.6702,-804.9134 433.9079,-794.4661 428.7706,-803.7321 435.6702,-804.9134"/>
</g>
<!-- Diagram_Build_graph -->
<g id="node38" class="node">
<title>Diagram_Build_graph</title>
<g id="a_node38"><a xlink:href="Diagram.html#Build_graph" xlink:title="Build_graph">
<ellipse fill="#7faaff" stroke="#000000" cx="437" cy="-442.4041" rx="54.6905" ry="18"/>
<text text-anchor="middle" x="437" y="-438.7041" font-family="Times,serif" font-size="14.00" fill="#000000">Build_graph</text>
</a>
</g>
</g>
<!-- Diagram_graph_rect&#45;&gt;Diagram_Build_graph -->
<g id="edge34" class="edge">
<title>Diagram_graph_rect&#45;&gt;Diagram_Build_graph</title>
<path fill="none" stroke="#000000" d="M437,-757.9711C437,-702.6554 437,-537.7913 437,-470.9893"/>
<polygon fill="#000000" stroke="#000000" points="440.5001,-470.7802 437,-460.7802 433.5001,-470.7802 440.5001,-470.7802"/>
</g>
<!-- Diagram_graph1 -->
<g id="node36" class="node">
<title>Diagram_graph1</title>
<g id="a_node36"><a xlink:href="Diagram.html#graph1" xlink:title="graph1">
<ellipse fill="#f070d1" stroke="#000000" cx="259" cy="-1144.4041" rx="35.176" ry="18"/>
<ellipse fill="none" stroke="#000000" cx="259" cy="-1144.4041" rx="39.185" ry="22"/>
<ellipse fill="none" stroke="#000000" cx="259" cy="-1144.4041" rx="43.194" ry="26"/>
<text text-anchor="middle" x="259" y="-1140.7041" font-family="Times,serif" font-size="14.00" fill="#000000">graph1</text>
</a>
</g>
</g>
<!-- Diagram_graph0 -->
<g id="node37" class="node">
<title>Diagram_graph0</title>
<g id="a_node37"><a xlink:href="Diagram.html#graph0" xlink:title="graph0">
<ellipse fill="#f070d1" stroke="#000000" cx="155" cy="-1144.4041" rx="35.176" ry="18"/>
<ellipse fill="none" stroke="#000000" cx="155" cy="-1144.4041" rx="39.185" ry="22"/>
<ellipse fill="none" stroke="#000000" cx="155" cy="-1144.4041" rx="43.194" ry="26"/>
<text text-anchor="middle" x="155" y="-1140.7041" font-family="Times,serif" font-size="14.00" fill="#000000">graph0</text>
</a>
</g>
</g>
<!-- Diagram_graph -->
<g id="node39" class="node">
<title>Diagram_graph</title>
<g id="a_node39"><a xlink:href="Diagram.html#graph" xlink:title="graph">
<ellipse fill="#e2cdfa" stroke="#000000" cx="55" cy="-1144.4041" rx="30.5848" ry="18"/>
<ellipse fill="none" stroke="#000000" cx="55" cy="-1144.4041" rx="34.5897" ry="22"/>
<ellipse fill="none" stroke="#000000" cx="55" cy="-1144.4041" rx="38.5946" ry="26"/>
<text text-anchor="middle" x="55" y="-1140.7041" font-family="Times,serif" font-size="14.00" fill="#000000">graph</text>
</a>
</g>
</g>
</g>
</svg>
