<?xml version="1.0" encoding="UTF-8" standalone="no"?>
<!DOCTYPE svg PUBLIC "-//W3C//DTD SVG 1.1//EN"
 "http://www.w3.org/Graphics/SVG/1.1/DTD/svg11.dtd">
<!-- Generated by graphviz version 2.39.20161220.0128 (20161220.0128)
 -->
<!-- Title: HoTT_Categories_Adjoint_Functorial_Parts Pages: 1 -->
<svg width="542pt" height="275pt"
 viewBox="0.00 0.00 542.00 275.00" xmlns="http://www.w3.org/2000/svg" xmlns:xlink="http://www.w3.org/1999/xlink">
<g id="graph0" class="graph" transform="scale(1 1) rotate(0) translate(4 271)">
<title>HoTT_Categories_Adjoint_Functorial_Parts</title>
<polygon fill="#ffffff" stroke="transparent" points="-4,4 -4,-271 538,-271 538,4 -4,4"/>
<g id="clust1" class="cluster">
<title>cluster_Parts</title>
<polygon fill="#ffffc3" stroke="#000000" points="9.7982,-8 9.7982,-259 524.2018,-259 524.2018,-8 9.7982,-8"/>
<text text-anchor="middle" x="31.7982" y="-243.8" font-family="Times,serif" font-size="14.00" fill="#000000">Parts</text>
</g>
<!-- Parts_right_morphism_of_nondep -->
<g id="node1" class="node">
<title>Parts_right_morphism_of_nondep</title>
<g id="a_node1"><a xlink:href="Parts.html#right_morphism_of_nondep" xlink:title="right_morphism_of_nondep">
<ellipse fill="#f070d1" stroke="#000000" cx="369.8945" cy="-202" rx="110.4811" ry="18"/>
<ellipse fill="none" stroke="#000000" cx="369.8945" cy="-202" rx="114.4807" ry="22"/>
<ellipse fill="none" stroke="#000000" cx="369.8945" cy="-202" rx="118.4804" ry="26"/>
<text text-anchor="middle" x="369.8945" y="-198.3" font-family="Times,serif" font-size="14.00" fill="#000000">right_morphism_of_nondep</text>
</a>
</g>
</g>
<!-- Parts_left_morphism_of_nondep -->
<g id="node3" class="node">
<title>Parts_left_morphism_of_nondep</title>
<g id="a_node3"><a xlink:href="Parts.html#left_morphism_of_nondep" xlink:title="left_morphism_of_nondep">
<ellipse fill="#f070d1" stroke="#000000" cx="385.8945" cy="-114" rx="105.0817" ry="18"/>
<text text-anchor="middle" x="385.8945" y="-110.3" font-family="Times,serif" font-size="14.00" fill="#000000">left_morphism_of_nondep</text>
</a>
</g>
</g>
<!-- Parts_right_morphism_of_nondep&#45;&gt;Parts_left_morphism_of_nondep -->
<g id="edge1" class="edge">
<title>Parts_right_morphism_of_nondep&#45;&gt;Parts_left_morphism_of_nondep</title>
<path fill="none" stroke="#000000" d="M374.695,-175.5971C376.6142,-165.0414 378.8276,-152.868 380.7773,-142.1448"/>
<polygon fill="#000000" stroke="#000000" points="384.273,-142.4836 382.6183,-132.0188 377.3859,-141.2314 384.273,-142.4836"/>
</g>
<!-- Parts_right_morphism_of -->
<g id="node2" class="node">
<title>Parts_right_morphism_of</title>
<g id="a_node2"><a xlink:href="Parts.html#right_morphism_of" xlink:title="right_morphism_of">
<ellipse fill="#f070d1" stroke="#000000" cx="126.8945" cy="-114" rx="79.891" ry="18"/>
<ellipse fill="none" stroke="#000000" cx="126.8945" cy="-114" rx="83.8884" ry="22"/>
<ellipse fill="none" stroke="#000000" cx="126.8945" cy="-114" rx="87.8859" ry="26"/>
<text text-anchor="middle" x="126.8945" y="-110.3" font-family="Times,serif" font-size="14.00" fill="#000000">right_morphism_of</text>
</a>
</g>
</g>
<!-- Parts_left_morphism_of -->
<g id="node4" class="node">
<title>Parts_left_morphism_of</title>
<g id="a_node4"><a xlink:href="Parts.html#left_morphism_of" xlink:title="left_morphism_of">
<ellipse fill="#f070d1" stroke="#000000" cx="255.8945" cy="-34" rx="75.2868" ry="18"/>
<text text-anchor="middle" x="255.8945" y="-30.3" font-family="Times,serif" font-size="14.00" fill="#000000">left_morphism_of</text>
</a>
</g>
</g>
<!-- Parts_right_morphism_of&#45;&gt;Parts_left_morphism_of -->
<g id="edge2" class="edge">
<title>Parts_right_morphism_of&#45;&gt;Parts_left_morphism_of</title>
<path fill="none" stroke="#000000" d="M164.901,-90.4301C182.3685,-79.5975 202.9737,-66.8191 220.155,-56.164"/>
<polygon fill="#000000" stroke="#000000" points="222.1391,-59.052 228.7929,-50.8072 218.4498,-53.1031 222.1391,-59.052"/>
</g>
<!-- Parts_left_morphism_of_nondep&#45;&gt;Parts_left_morphism_of -->
<g id="edge3" class="edge">
<title>Parts_left_morphism_of_nondep&#45;&gt;Parts_left_morphism_of</title>
<path fill="none" stroke="#000000" d="M357.6864,-96.6412C338.4761,-84.8194 312.8728,-69.0635 292.1503,-56.3112"/>
<polygon fill="#000000" stroke="#000000" points="293.9519,-53.3103 283.6009,-51.0501 290.2831,-59.2719 293.9519,-53.3103"/>
</g>
</g>
</svg>
