<?xml version="1.0" encoding="UTF-8" standalone="no"?>
<!DOCTYPE svg PUBLIC "-//W3C//DTD SVG 1.1//EN"
 "http://www.w3.org/Graphics/SVG/1.1/DTD/svg11.dtd">
<!-- Generated by graphviz version 2.39.20141222.0545 (20141222.0545)
 -->
<!-- Title: HoTT_Categories_ExponentialLaws_Law1_Functors Pages: 1 -->
<svg width="620pt" height="314pt"
 viewBox="0.00 0.00 620.00 314.00" xmlns="http://www.w3.org/2000/svg" xmlns:xlink="http://www.w3.org/1999/xlink">
<g id="graph0" class="graph" transform="scale(1 1) rotate(0) translate(4 310)">
<title>HoTT_Categories_ExponentialLaws_Law1_Functors</title>
<polygon fill="white" stroke="transparent" points="-4,4 -4,-310 616,-310 616,4 -4,4"/>
<g id="clust1" class="cluster"><title>cluster_Functors</title>
<polygon fill="#ffffc3" stroke="black" points="8,-9.75299 8,-296.247 604,-296.247 604,-9.75299 8,-9.75299"/>
<text text-anchor="middle" x="40" y="-281.047" font-family="Times,serif" font-size="14.00">Functors</text>
</g>
<!-- Functors_law_ -->
<g id="node1" class="node"><title>Functors_law_</title>
<g id="a_node1"><a xlink:href="Functors.html#law'" xlink:title="law&#39;">
<ellipse fill="#f070d1" stroke="black" cx="561" cy="-226.753" rx="27" ry="18"/>
<ellipse fill="none" stroke="black" cx="561" cy="-226.753" rx="31" ry="22"/>
<ellipse fill="none" stroke="black" cx="561" cy="-226.753" rx="35" ry="26"/>
<text text-anchor="middle" x="561" y="-223.053" font-family="Times,serif" font-size="14.00">law&#39;</text>
</a>
</g>
</g>
<!-- Functors_inverse_ -->
<g id="node2" class="node"><title>Functors_inverse_</title>
<g id="a_node2"><a xlink:href="Functors.html#inverse'" xlink:title="inverse&#39;">
<ellipse fill="#f070d1" stroke="black" cx="462" cy="-226.753" rx="37.8596" ry="18"/>
<ellipse fill="none" stroke="black" cx="462" cy="-226.753" rx="41.8769" ry="22"/>
<ellipse fill="none" stroke="black" cx="462" cy="-226.753" rx="45.8942" ry="26"/>
<text text-anchor="middle" x="462" y="-223.053" font-family="Times,serif" font-size="14.00">inverse&#39;</text>
</a>
</g>
</g>
<!-- Functors_IsTerminalCategory_instance_0 -->
<g id="node4" class="node"><title>Functors_IsTerminalCategory_instance_0</title>
<g id="a_node4"><a xlink:href="Functors.html#IsTerminalCategory_instance_0" xlink:title="IsTerminalCategory_instance_0">
<ellipse fill="#7fffd4" stroke="black" cx="472" cy="-128.753" rx="124.278" ry="18"/>
<text text-anchor="middle" x="472" y="-125.053" font-family="Times,serif" font-size="14.00">IsTerminalCategory_instance_0</text>
</a>
</g>
</g>
<!-- Functors_inverse_&#45;&gt;Functors_IsTerminalCategory_instance_0 -->
<g id="edge1" class="edge"><title>Functors_inverse_&#45;&gt;Functors_IsTerminalCategory_instance_0</title>
<path fill="none" stroke="black" d="M464.654,-200.748C466.037,-187.192 467.73,-170.599 469.142,-156.761"/>
<polygon fill="black" stroke="black" points="472.624,-157.115 470.157,-146.812 465.66,-156.405 472.624,-157.115"/>
</g>
<!-- Functors_functor_ -->
<g id="node3" class="node"><title>Functors_functor_</title>
<g id="a_node3"><a xlink:href="Functors.html#functor'" xlink:title="functor&#39;">
<ellipse fill="#f070d1" stroke="black" cx="343" cy="-226.753" rx="37.8596" ry="18"/>
<ellipse fill="none" stroke="black" cx="343" cy="-226.753" rx="41.8769" ry="22"/>
<ellipse fill="none" stroke="black" cx="343" cy="-226.753" rx="45.8942" ry="26"/>
<text text-anchor="middle" x="343" y="-223.053" font-family="Times,serif" font-size="14.00">functor&#39;</text>
</a>
</g>
</g>
<!-- Functors_inverse -->
<g id="node5" class="node"><title>Functors_inverse</title>
<g id="a_node5"><a xlink:href="Functors.html#inverse" xlink:title="inverse">
<ellipse fill="#f070d1" stroke="black" cx="216" cy="-226.753" rx="36.3123" ry="18"/>
<ellipse fill="none" stroke="black" cx="216" cy="-226.753" rx="40.3031" ry="22"/>
<ellipse fill="none" stroke="black" cx="216" cy="-226.753" rx="44.2938" ry="26"/>
<text text-anchor="middle" x="216" y="-223.053" font-family="Times,serif" font-size="14.00">inverse</text>
</a>
</g>
</g>
<!-- Functors_inverse_subproof0 -->
<g id="node6" class="node"><title>Functors_inverse_subproof0</title>
<g id="a_node6"><a xlink:href="Functors.html#inverse_subproof0" xlink:title="inverse_subproof0">
<ellipse fill="#facdef" stroke="black" cx="92" cy="-128.753" rx="76.0865" ry="18"/>
<text text-anchor="middle" x="92" y="-125.053" font-family="Times,serif" font-size="14.00">inverse_subproof0</text>
</a>
</g>
</g>
<!-- Functors_inverse&#45;&gt;Functors_inverse_subproof0 -->
<g id="edge2" class="edge"><title>Functors_inverse&#45;&gt;Functors_inverse_subproof0</title>
<path fill="none" stroke="black" d="M189.399,-205.73C169.635,-190.109 142.653,-168.785 122.099,-152.541"/>
<polygon fill="black" stroke="black" points="124.022,-149.599 114.006,-146.145 119.681,-155.091 124.022,-149.599"/>
</g>
<!-- Functors_inverse_subproof -->
<g id="node7" class="node"><title>Functors_inverse_subproof</title>
<g id="a_node7"><a xlink:href="Functors.html#inverse_subproof" xlink:title="inverse_subproof">
<ellipse fill="#facdef" stroke="black" cx="258" cy="-128.753" rx="71.4873" ry="18"/>
<text text-anchor="middle" x="258" y="-125.053" font-family="Times,serif" font-size="14.00">inverse_subproof</text>
</a>
</g>
</g>
<!-- Functors_inverse&#45;&gt;Functors_inverse_subproof -->
<g id="edge3" class="edge"><title>Functors_inverse&#45;&gt;Functors_inverse_subproof</title>
<path fill="none" stroke="black" d="M226.816,-201.516C232.78,-187.6 240.19,-170.31 246.29,-156.077"/>
<polygon fill="black" stroke="black" points="249.548,-157.36 250.27,-146.79 243.114,-154.603 249.548,-157.36"/>
</g>
<!-- Functors_inverse_morphism_of -->
<g id="node8" class="node"><title>Functors_inverse_morphism_of</title>
<g id="a_node8"><a xlink:href="Functors.html#inverse_morphism_of" xlink:title="inverse_morphism_of">
<ellipse fill="#f070d1" stroke="black" cx="181" cy="-41.753" rx="89.0842" ry="18"/>
<text text-anchor="middle" x="181" y="-38.053" font-family="Times,serif" font-size="14.00">inverse_morphism_of</text>
</a>
</g>
</g>
<!-- Functors_inverse_subproof0&#45;&gt;Functors_inverse_morphism_of -->
<g id="edge4" class="edge"><title>Functors_inverse_subproof0&#45;&gt;Functors_inverse_morphism_of</title>
<path fill="none" stroke="black" d="M110.01,-111.147C123.073,-98.3782 140.923,-80.9289 155.456,-66.7226"/>
<polygon fill="black" stroke="black" points="158.006,-69.1243 162.711,-59.6312 153.113,-64.1186 158.006,-69.1243"/>
</g>
<!-- Functors_inverse_subproof&#45;&gt;Functors_inverse_morphism_of -->
<g id="edge5" class="edge"><title>Functors_inverse_subproof&#45;&gt;Functors_inverse_morphism_of</title>
<path fill="none" stroke="black" d="M242.418,-111.147C231.324,-98.6125 216.238,-81.5677 203.794,-67.5078"/>
<polygon fill="black" stroke="black" points="206.072,-64.7998 196.823,-59.6312 200.83,-69.4392 206.072,-64.7998"/>
</g>
<!-- Functors_functor -->
<g id="node9" class="node"><title>Functors_functor</title>
<g id="a_node9"><a xlink:href="Functors.html#functor" xlink:title="functor">
<ellipse fill="#f070d1" stroke="black" cx="70" cy="-226.753" rx="36.3123" ry="18"/>
<ellipse fill="none" stroke="black" cx="70" cy="-226.753" rx="40.3031" ry="22"/>
<ellipse fill="none" stroke="black" cx="70" cy="-226.753" rx="44.2938" ry="26"/>
<text text-anchor="middle" x="70" y="-223.053" font-family="Times,serif" font-size="14.00">functor</text>
</a>
</g>
</g>
</g>
</svg>
