<?xml version="1.0" encoding="UTF-8" standalone="no"?>
<!DOCTYPE svg PUBLIC "-//W3C//DTD SVG 1.1//EN"
 "http://www.w3.org/Graphics/SVG/1.1/DTD/svg11.dtd">
<!-- Generated by graphviz version 2.39.20161220.0128 (20161220.0128)
 -->
<!-- Title: HoTT_Basics_Contractible Pages: 1 -->
<svg width="923pt" height="466pt"
 viewBox="0.00 0.00 923.00 465.50" xmlns="http://www.w3.org/2000/svg" xmlns:xlink="http://www.w3.org/1999/xlink">
<g id="graph0" class="graph" transform="scale(1 1) rotate(0) translate(4 461.5)">
<title>HoTT_Basics_Contractible</title>
<polygon fill="#ffffff" stroke="transparent" points="-4,4 -4,-461.5 919,-461.5 919,4 -4,4"/>
<g id="clust1" class="cluster">
<title>cluster_Contractible</title>
<polygon fill="#ffffc3" stroke="#000000" points="8,-10.3099 8,-447.1901 907,-447.1901 907,-10.3099 8,-10.3099"/>
<text text-anchor="middle" x="49.5" y="-431.9901" font-family="Times,serif" font-size="14.00" fill="#000000">Contractible</text>
</g>
<!-- Contractible_contr_dom_equiv -->
<g id="node1" class="node">
<title>Contractible_contr_dom_equiv</title>
<g id="a_node1"><a xlink:href="Contractible.html#contr_dom_equiv" xlink:title="contr_dom_equiv">
<ellipse fill="#f070d1" stroke="#000000" cx="671" cy="-373.3099" rx="73.3926" ry="18"/>
<ellipse fill="none" stroke="#000000" cx="671" cy="-373.3099" rx="77.3898" ry="22"/>
<ellipse fill="none" stroke="#000000" cx="671" cy="-373.3099" rx="81.387" ry="26"/>
<text text-anchor="middle" x="671" y="-369.6099" font-family="Times,serif" font-size="14.00" fill="#000000">contr_dom_equiv</text>
</a>
</g>
</g>
<!-- Contractible_ap_pr1_path_basedpaths_ -->
<g id="node2" class="node">
<title>Contractible_ap_pr1_path_basedpaths_</title>
<g id="a_node2"><a xlink:href="Contractible.html#ap_pr1_path_basedpaths'" xlink:title="ap_pr1_path_basedpaths&#39;">
<ellipse fill="#f070d1" stroke="#000000" cx="792" cy="-147.3099" rx="98.5985" ry="18"/>
<ellipse fill="none" stroke="#000000" cx="792" cy="-147.3099" rx="102.5907" ry="22"/>
<ellipse fill="none" stroke="#000000" cx="792" cy="-147.3099" rx="106.5829" ry="26"/>
<text text-anchor="middle" x="792" y="-143.6099" font-family="Times,serif" font-size="14.00" fill="#000000">ap_pr1_path_basedpaths&#39;</text>
</a>
</g>
</g>
<!-- Contractible_path_basedpaths_ -->
<g id="node7" class="node">
<title>Contractible_path_basedpaths_</title>
<g id="a_node7"><a xlink:href="Contractible.html#path_basedpaths'" xlink:title="path_basedpaths&#39;">
<ellipse fill="#f070d1" stroke="#000000" cx="693" cy="-44.3099" rx="70.3881" ry="18"/>
<text text-anchor="middle" x="693" y="-40.6099" font-family="Times,serif" font-size="14.00" fill="#000000">path_basedpaths&#39;</text>
</a>
</g>
</g>
<!-- Contractible_ap_pr1_path_basedpaths_&#45;&gt;Contractible_path_basedpaths_ -->
<g id="edge1" class="edge">
<title>Contractible_ap_pr1_path_basedpaths_&#45;&gt;Contractible_path_basedpaths_</title>
<path fill="none" stroke="#000000" d="M767.5281,-121.8492C752.1754,-105.8762 732.4638,-85.3682 717.169,-69.4554"/>
<polygon fill="#000000" stroke="#000000" points="719.507,-66.8371 710.0539,-62.0528 714.4602,-71.6879 719.507,-66.8371"/>
</g>
<!-- Contractible_ap_pr1_path_basedpaths -->
<g id="node3" class="node">
<title>Contractible_ap_pr1_path_basedpaths</title>
<g id="a_node3"><a xlink:href="Contractible.html#ap_pr1_path_basedpaths" xlink:title="ap_pr1_path_basedpaths">
<ellipse fill="#f070d1" stroke="#000000" cx="397" cy="-147.3099" rx="97.4834" ry="18"/>
<ellipse fill="none" stroke="#000000" cx="397" cy="-147.3099" rx="101.483" ry="22"/>
<ellipse fill="none" stroke="#000000" cx="397" cy="-147.3099" rx="105.4827" ry="26"/>
<text text-anchor="middle" x="397" y="-143.6099" font-family="Times,serif" font-size="14.00" fill="#000000">ap_pr1_path_basedpaths</text>
</a>
</g>
</g>
<!-- Contractible_path_basedpaths -->
<g id="node9" class="node">
<title>Contractible_path_basedpaths</title>
<g id="a_node9"><a xlink:href="Contractible.html#path_basedpaths" xlink:title="path_basedpaths">
<ellipse fill="#f070d1" stroke="#000000" cx="242" cy="-44.3099" rx="68.7879" ry="18"/>
<text text-anchor="middle" x="242" y="-40.6099" font-family="Times,serif" font-size="14.00" fill="#000000">path_basedpaths</text>
</a>
</g>
</g>
<!-- Contractible_ap_pr1_path_basedpaths&#45;&gt;Contractible_path_basedpaths -->
<g id="edge2" class="edge">
<title>Contractible_ap_pr1_path_basedpaths&#45;&gt;Contractible_path_basedpaths</title>
<path fill="none" stroke="#000000" d="M360.2672,-122.9003C334.6413,-105.8715 300.7023,-83.3185 275.7555,-66.7409"/>
<polygon fill="#000000" stroke="#000000" points="277.6008,-63.7649 267.3349,-61.1453 273.7266,-69.595 277.6008,-63.7649"/>
</g>
<!-- Contractible_ap_pr1_path_contr_basedpaths_ -->
<g id="node4" class="node">
<title>Contractible_ap_pr1_path_contr_basedpaths_</title>
<g id="a_node4"><a xlink:href="Contractible.html#ap_pr1_path_contr_basedpaths'" xlink:title="ap_pr1_path_contr_basedpaths&#39;">
<ellipse fill="#f070d1" stroke="#000000" cx="568" cy="-260.3099" rx="121.576" ry="18"/>
<ellipse fill="none" stroke="#000000" cx="568" cy="-260.3099" rx="125.5772" ry="22"/>
<ellipse fill="none" stroke="#000000" cx="568" cy="-260.3099" rx="129.5784" ry="26"/>
<text text-anchor="middle" x="568" y="-256.6099" font-family="Times,serif" font-size="14.00" fill="#000000">ap_pr1_path_contr_basedpaths&#39;</text>
</a>
</g>
</g>
<!-- Contractible_contr_basedpaths_ -->
<g id="node6" class="node">
<title>Contractible_contr_basedpaths_</title>
<g id="a_node6"><a xlink:href="Contractible.html#contr_basedpaths'" xlink:title="contr_basedpaths&#39;">
<ellipse fill="#f070d1" stroke="#000000" cx="594" cy="-147.3099" rx="73.387" ry="18"/>
<text text-anchor="middle" x="594" y="-143.6099" font-family="Times,serif" font-size="14.00" fill="#000000">contr_basedpaths&#39;</text>
</a>
</g>
</g>
<!-- Contractible_ap_pr1_path_contr_basedpaths_&#45;&gt;Contractible_contr_basedpaths_ -->
<g id="edge3" class="edge">
<title>Contractible_ap_pr1_path_contr_basedpaths_&#45;&gt;Contractible_contr_basedpaths_</title>
<path fill="none" stroke="#000000" d="M574.0303,-234.1014C578.0682,-216.5519 583.3798,-193.4667 587.5099,-175.5168"/>
<polygon fill="#000000" stroke="#000000" points="590.955,-176.1525 589.7865,-165.6223 584.1333,-174.5828 590.955,-176.1525"/>
</g>
<!-- Contractible_path_contr -->
<g id="node12" class="node">
<title>Contractible_path_contr</title>
<g id="a_node12"><a xlink:href="Contractible.html#path_contr" xlink:title="path_contr">
<ellipse fill="#f070d1" stroke="#000000" cx="225" cy="-147.3099" rx="48.1917" ry="18"/>
<text text-anchor="middle" x="225" y="-143.6099" font-family="Times,serif" font-size="14.00" fill="#000000">path_contr</text>
</a>
</g>
</g>
<!-- Contractible_ap_pr1_path_contr_basedpaths_&#45;&gt;Contractible_path_contr -->
<g id="edge4" class="edge">
<title>Contractible_ap_pr1_path_contr_basedpaths_&#45;&gt;Contractible_path_contr</title>
<path fill="none" stroke="#000000" d="M490.3139,-239.4373C432.5118,-223.224 352.024,-199.2 283,-173.3099 276.8977,-171.0209 270.5239,-168.4042 264.3287,-165.7329"/>
<polygon fill="#000000" stroke="#000000" points="265.3668,-162.3654 254.805,-161.5292 262.5402,-168.7693 265.3668,-162.3654"/>
</g>
<!-- Contractible_ap_pr1_path_contr_basedpaths -->
<g id="node5" class="node">
<title>Contractible_ap_pr1_path_contr_basedpaths</title>
<g id="a_node5"><a xlink:href="Contractible.html#ap_pr1_path_contr_basedpaths" xlink:title="ap_pr1_path_contr_basedpaths">
<ellipse fill="#f070d1" stroke="#000000" cx="144" cy="-260.3099" rx="120.4642" ry="18"/>
<ellipse fill="none" stroke="#000000" cx="144" cy="-260.3099" rx="124.4716" ry="22"/>
<ellipse fill="none" stroke="#000000" cx="144" cy="-260.3099" rx="128.4791" ry="26"/>
<text text-anchor="middle" x="144" y="-256.6099" font-family="Times,serif" font-size="14.00" fill="#000000">ap_pr1_path_contr_basedpaths</text>
</a>
</g>
</g>
<!-- Contractible_contr_basedpaths -->
<g id="node8" class="node">
<title>Contractible_contr_basedpaths</title>
<g id="a_node8"><a xlink:href="Contractible.html#contr_basedpaths" xlink:title="contr_basedpaths">
<ellipse fill="#f070d1" stroke="#000000" cx="87" cy="-147.3099" rx="71.4873" ry="18"/>
<text text-anchor="middle" x="87" y="-143.6099" font-family="Times,serif" font-size="14.00" fill="#000000">contr_basedpaths</text>
</a>
</g>
</g>
<!-- Contractible_ap_pr1_path_contr_basedpaths&#45;&gt;Contractible_contr_basedpaths -->
<g id="edge5" class="edge">
<title>Contractible_ap_pr1_path_contr_basedpaths&#45;&gt;Contractible_contr_basedpaths</title>
<path fill="none" stroke="#000000" d="M130.923,-234.3854C121.8546,-216.4076 109.8049,-192.5196 100.6204,-174.3117"/>
<polygon fill="#000000" stroke="#000000" points="103.7384,-172.7214 96.1096,-165.3693 97.4885,-175.8741 103.7384,-172.7214"/>
</g>
<!-- Contractible_ap_pr1_path_contr_basedpaths&#45;&gt;Contractible_path_contr -->
<g id="edge6" class="edge">
<title>Contractible_ap_pr1_path_contr_basedpaths&#45;&gt;Contractible_path_contr</title>
<path fill="none" stroke="#000000" d="M162.583,-234.3854C175.6683,-216.1306 193.1216,-191.7822 206.2449,-173.4744"/>
<polygon fill="#000000" stroke="#000000" points="209.32,-175.192 212.3013,-165.0253 203.6306,-171.1138 209.32,-175.192"/>
</g>
<!-- Contractible_contr_basedpaths_&#45;&gt;Contractible_path_basedpaths_ -->
<g id="edge7" class="edge">
<title>Contractible_contr_basedpaths_&#45;&gt;Contractible_path_basedpaths_</title>
<path fill="none" stroke="#000000" d="M611.2445,-129.3686C627.1439,-112.8268 650.9072,-88.1033 668.7225,-69.5683"/>
<polygon fill="#000000" stroke="#000000" points="671.5468,-71.6806 675.9531,-62.0455 666.5,-66.8298 671.5468,-71.6806"/>
</g>
<!-- Contractible_contr_basedpaths&#45;&gt;Contractible_path_basedpaths -->
<g id="edge8" class="edge">
<title>Contractible_contr_basedpaths&#45;&gt;Contractible_path_basedpaths</title>
<path fill="none" stroke="#000000" d="M112.5951,-130.3015C138.6996,-112.9546 179.3449,-85.9452 208.1085,-66.8313"/>
<polygon fill="#000000" stroke="#000000" points="210.2328,-69.622 216.6245,-61.1723 206.3586,-63.7919 210.2328,-69.622"/>
</g>
<!-- Contractible_contr_paths_contr -->
<g id="node10" class="node">
<title>Contractible_contr_paths_contr</title>
<g id="a_node10"><a xlink:href="Contractible.html#contr_paths_contr" xlink:title="contr_paths_contr">
<ellipse fill="#f070d1" stroke="#000000" cx="343" cy="-373.3099" rx="74.1778" ry="18"/>
<ellipse fill="none" stroke="#000000" cx="343" cy="-373.3099" rx="78.1824" ry="22"/>
<ellipse fill="none" stroke="#000000" cx="343" cy="-373.3099" rx="82.187" ry="26"/>
<text text-anchor="middle" x="343" y="-369.6099" font-family="Times,serif" font-size="14.00" fill="#000000">contr_paths_contr</text>
</a>
</g>
</g>
<!-- Contractible_path2_contr -->
<g id="node11" class="node">
<title>Contractible_path2_contr</title>
<g id="a_node11"><a xlink:href="Contractible.html#path2_contr" xlink:title="path2_contr">
<ellipse fill="#f070d1" stroke="#000000" cx="343" cy="-260.3099" rx="52.7911" ry="18"/>
<text text-anchor="middle" x="343" y="-256.6099" font-family="Times,serif" font-size="14.00" fill="#000000">path2_contr</text>
</a>
</g>
</g>
<!-- Contractible_contr_paths_contr&#45;&gt;Contractible_path2_contr -->
<g id="edge9" class="edge">
<title>Contractible_contr_paths_contr&#45;&gt;Contractible_path2_contr</title>
<path fill="none" stroke="#000000" d="M343,-347.1014C343,-329.6339 343,-306.6824 343,-288.7688"/>
<polygon fill="#000000" stroke="#000000" points="346.5001,-288.6223 343,-278.6223 339.5001,-288.6223 346.5001,-288.6223"/>
</g>
<!-- Contractible_path2_contr&#45;&gt;Contractible_path_contr -->
<g id="edge10" class="edge">
<title>Contractible_path2_contr&#45;&gt;Contractible_path_contr</title>
<path fill="none" stroke="#000000" d="M325.0783,-243.1476C305.1235,-224.0383 272.7228,-193.0105 250.2155,-171.457"/>
<polygon fill="#000000" stroke="#000000" points="252.3469,-168.652 242.7037,-164.2634 247.5054,-173.7077 252.3469,-168.652"/>
</g>
</g>
</svg>
