<?xml version="1.0" encoding="UTF-8" standalone="no"?>
<!DOCTYPE svg PUBLIC "-//W3C//DTD SVG 1.1//EN"
 "http://www.w3.org/Graphics/SVG/1.1/DTD/svg11.dtd">
<!-- Generated by graphviz version 2.26.3 (20100126.1600)
 -->
<!-- Title: HoTT_categories_ProductLaws Pages: 1 -->
<svg width="1518pt" height="763pt"
 viewBox="0.00 0.00 1518.00 763.00" xmlns="http://www.w3.org/2000/svg" xmlns:xlink="http://www.w3.org/1999/xlink">
<g id="graph1" class="graph" transform="scale(1 1) rotate(0) translate(4 759)">
<title>HoTT_categories_ProductLaws</title>
<polygon fill="white" stroke="white" points="-4,5 -4,-759 1515,-759 1515,5 -4,5"/>
<g id="graph2" class="cluster"><title>cluster_ProductLaws</title>
<polygon fill="#ffffc3" stroke="black" points="8,-20 8,-735 1502,-735 1502,-20 8,-20"/>
<text text-anchor="middle" x="61" y="-718.4" font-family="Times Roman,serif" font-size="14.00">ProductLaws</text>
</g>
<g id="graph3" class="cluster"><title>cluster_ProductLaws_Law0</title>
<polygon fill="#ffffa3" stroke="black" points="868,-40 868,-650 1494,-650 1494,-40 868,-40"/>
<text text-anchor="middle" x="895.5" y="-633.4" font-family="Times Roman,serif" font-size="14.00">Law0</text>
</g>
<g id="graph4" class="cluster"><title>cluster_ProductLaws_Law1</title>
<polygon fill="#ffffa3" stroke="black" points="132,-225 132,-650 860,-650 860,-225 132,-225"/>
<text text-anchor="middle" x="159.5" y="-633.4" font-family="Times Roman,serif" font-size="14.00">Law1</text>
</g>
<g id="graph5" class="cluster"><title>cluster_ProductLaws_Swap</title>
<polygon fill="#ffffa3" stroke="black" points="16,-225 16,-650 124,-650 124,-225 16,-225"/>
<text text-anchor="middle" x="43.5" y="-633.4" font-family="Times Roman,serif" font-size="14.00">Swap</text>
</g>
<!-- ProductLaws_Swap_law -->
<g id="node1" class="node"><title>ProductLaws_Swap_law</title>
<a xlink:href="ProductLaws.html#Swap.law" xlink:title="law">
<ellipse fill="#facdef" stroke="black" cx="70" cy="-498" rx="28.9914" ry="18.3848"/>
<ellipse fill="none" stroke="black" cx="70" cy="-498" rx="32.9914" ry="22.3848"/>
<ellipse fill="none" stroke="black" cx="70" cy="-498" rx="36.9914" ry="26.3848"/>
<text text-anchor="middle" x="70" y="-494.4" font-family="Times Roman,serif" font-size="14.00">law</text>
</a>
</g>
<!-- ProductLaws_Swap_functor -->
<g id="node2" class="node"><title>ProductLaws_Swap_functor</title>
<a xlink:href="ProductLaws.html#Swap.functor" xlink:title="functor">
<ellipse fill="#f070d1" stroke="black" cx="70" cy="-293" rx="46.1672" ry="18.3848"/>
<text text-anchor="middle" x="70" y="-289.4" font-family="Times Roman,serif" font-size="14.00">functor</text>
</a>
</g>
<!-- ProductLaws_Swap_law&#45;&gt;ProductLaws_Swap_functor -->
<g id="edge2" class="edge"><title>ProductLaws_Swap_law&#45;&gt;ProductLaws_Swap_functor</title>
<path fill="none" stroke="black" d="M70,-471.2C70,-432.527 70,-361.371 70,-321.677"/>
<polygon fill="black" stroke="black" points="73.5001,-321.602 70,-311.602 66.5001,-321.602 73.5001,-321.602"/>
</g>
<!-- ProductLaws_Law1_law1_ -->
<g id="node3" class="node"><title>ProductLaws_Law1_law1_</title>
<a xlink:href="ProductLaws.html#Law1.law1&#39;" xlink:title="law1&#39;">
<ellipse fill="#facdef" stroke="black" cx="807" cy="-498" rx="37.0648" ry="18.3848"/>
<ellipse fill="none" stroke="black" cx="807" cy="-498" rx="41.0209" ry="22.3848"/>
<ellipse fill="none" stroke="black" cx="807" cy="-498" rx="44.9769" ry="26.3848"/>
<text text-anchor="middle" x="807" y="-494.4" font-family="Times Roman,serif" font-size="14.00">law1&#39;</text>
</a>
</g>
<!-- ProductLaws_Law1_law1__subproof -->
<g id="node4" class="node"><title>ProductLaws_Law1_law1__subproof</title>
<a xlink:href="ProductLaws.html#Law1.law1&#39;_subproof" xlink:title="law1&#39;_subproof">
<ellipse fill="#facdef" stroke="black" cx="767" cy="-293" rx="84.8528" ry="18.3848"/>
<text text-anchor="middle" x="767" y="-289.4" font-family="Times Roman,serif" font-size="14.00">law1&#39;_subproof</text>
</a>
</g>
<!-- ProductLaws_Law1_law1_&#45;&gt;ProductLaws_Law1_law1__subproof -->
<g id="edge4" class="edge"><title>ProductLaws_Law1_law1_&#45;&gt;ProductLaws_Law1_law1__subproof</title>
<path fill="none" stroke="black" d="M801.853,-471.62C794.318,-433.004 780.34,-361.368 772.572,-321.554"/>
<polygon fill="black" stroke="black" points="775.997,-320.834 770.647,-311.69 769.127,-322.175 775.997,-320.834"/>
</g>
<!-- ProductLaws_Law1_law1 -->
<g id="node5" class="node"><title>ProductLaws_Law1_law1</title>
<a xlink:href="ProductLaws.html#Law1.law1" xlink:title="law1">
<ellipse fill="#facdef" stroke="black" cx="701" cy="-498" rx="34.949" ry="18.3848"/>
<ellipse fill="none" stroke="black" cx="701" cy="-498" rx="38.903" ry="22.3848"/>
<ellipse fill="none" stroke="black" cx="701" cy="-498" rx="42.857" ry="26.3848"/>
<text text-anchor="middle" x="701" y="-494.4" font-family="Times Roman,serif" font-size="14.00">law1</text>
</a>
</g>
<!-- ProductLaws_Law1_law1_subproof -->
<g id="node6" class="node"><title>ProductLaws_Law1_law1_subproof</title>
<a xlink:href="ProductLaws.html#Law1.law1_subproof" xlink:title="law1_subproof">
<ellipse fill="#facdef" stroke="black" cx="582" cy="-293" rx="82.2301" ry="18.3848"/>
<text text-anchor="middle" x="582" y="-289.4" font-family="Times Roman,serif" font-size="14.00">law1_subproof</text>
</a>
</g>
<!-- ProductLaws_Law1_law1&#45;&gt;ProductLaws_Law1_law1_subproof -->
<g id="edge6" class="edge"><title>ProductLaws_Law1_law1&#45;&gt;ProductLaws_Law1_law1_subproof</title>
<path fill="none" stroke="black" d="M686.408,-472.863C663.895,-434.08 620.875,-359.969 597.706,-320.056"/>
<polygon fill="black" stroke="black" points="600.719,-318.275 592.672,-311.384 594.665,-321.79 600.719,-318.275"/>
</g>
<!-- ProductLaws_Law1_inverse_ -->
<g id="node7" class="node"><title>ProductLaws_Law1_inverse_</title>
<a xlink:href="ProductLaws.html#Law1.inverse&#39;" xlink:title="inverse&#39;">
<ellipse fill="#f070d1" stroke="black" cx="583" cy="-498" rx="49.0671" ry="18.3848"/>
<ellipse fill="none" stroke="black" cx="583" cy="-498" rx="53.0323" ry="22.3848"/>
<ellipse fill="none" stroke="black" cx="583" cy="-498" rx="56.9975" ry="26.3848"/>
<text text-anchor="middle" x="583" y="-494.4" font-family="Times Roman,serif" font-size="14.00">inverse&#39;</text>
</a>
</g>
<!-- ProductLaws_Law1_inverse -->
<g id="node8" class="node"><title>ProductLaws_Law1_inverse</title>
<a xlink:href="ProductLaws.html#Law1.inverse" xlink:title="inverse">
<ellipse fill="#f070d1" stroke="black" cx="453" cy="-498" rx="46.9493" ry="18.3848"/>
<ellipse fill="none" stroke="black" cx="453" cy="-498" rx="50.9133" ry="22.3848"/>
<ellipse fill="none" stroke="black" cx="453" cy="-498" rx="54.8773" ry="26.3848"/>
<text text-anchor="middle" x="453" y="-494.4" font-family="Times Roman,serif" font-size="14.00">inverse</text>
</a>
</g>
<!-- ProductLaws_Law1_functor_ -->
<g id="node9" class="node"><title>ProductLaws_Law1_functor_</title>
<a xlink:href="ProductLaws.html#Law1.functor&#39;" xlink:title="functor&#39;">
<ellipse fill="#f070d1" stroke="black" cx="323" cy="-498" rx="48.7904" ry="18.3848"/>
<ellipse fill="none" stroke="black" cx="323" cy="-498" rx="52.7904" ry="22.3848"/>
<ellipse fill="none" stroke="black" cx="323" cy="-498" rx="56.7904" ry="26.3848"/>
<text text-anchor="middle" x="323" y="-494.4" font-family="Times Roman,serif" font-size="14.00">functor&#39;</text>
</a>
</g>
<!-- ProductLaws_Law1_functor -->
<g id="node10" class="node"><title>ProductLaws_Law1_functor</title>
<a xlink:href="ProductLaws.html#Law1.functor" xlink:title="functor">
<ellipse fill="#f070d1" stroke="black" cx="194" cy="-498" rx="46.2409" ry="18.3848"/>
<ellipse fill="none" stroke="black" cx="194" cy="-498" rx="50.2042" ry="22.3848"/>
<ellipse fill="none" stroke="black" cx="194" cy="-498" rx="54.1675" ry="26.3848"/>
<text text-anchor="middle" x="194" y="-494.4" font-family="Times Roman,serif" font-size="14.00">functor</text>
</a>
</g>
<!-- ProductLaws_Law0_law_ -->
<g id="node11" class="node"><title>ProductLaws_Law0_law_</title>
<a xlink:href="ProductLaws.html#Law0.law&#39;" xlink:title="law&#39;">
<ellipse fill="#f070d1" stroke="black" cx="1279" cy="-498" rx="31.1127" ry="18.3848"/>
<ellipse fill="none" stroke="black" cx="1279" cy="-498" rx="35.1127" ry="22.3848"/>
<ellipse fill="none" stroke="black" cx="1279" cy="-498" rx="39.1127" ry="26.3848"/>
<text text-anchor="middle" x="1279" y="-494.4" font-family="Times Roman,serif" font-size="14.00">law&#39;</text>
</a>
</g>
<!-- ProductLaws_Law0_inverse_ -->
<g id="node13" class="node"><title>ProductLaws_Law0_inverse_</title>
<a xlink:href="ProductLaws.html#Law0.inverse&#39;" xlink:title="inverse&#39;">
<ellipse fill="#f070d1" stroke="black" cx="1221" cy="-293" rx="48.9975" ry="18.3848"/>
<text text-anchor="middle" x="1221" y="-289.4" font-family="Times Roman,serif" font-size="14.00">inverse&#39;</text>
</a>
</g>
<!-- ProductLaws_Law0_law_&#45;&gt;ProductLaws_Law0_inverse_ -->
<g id="edge8" class="edge"><title>ProductLaws_Law0_law_&#45;&gt;ProductLaws_Law0_inverse_</title>
<path fill="none" stroke="black" d="M1271.54,-471.62C1260.58,-432.905 1240.24,-360.999 1228.99,-321.248"/>
<polygon fill="black" stroke="black" points="1232.3,-320.078 1226.21,-311.408 1225.56,-321.983 1232.3,-320.078"/>
</g>
<!-- ProductLaws_Law0_functor_ -->
<g id="node15" class="node"><title>ProductLaws_Law0_functor_</title>
<a xlink:href="ProductLaws.html#Law0.functor&#39;" xlink:title="functor&#39;">
<ellipse fill="#f070d1" stroke="black" cx="1337" cy="-293" rx="48.7904" ry="18.3848"/>
<text text-anchor="middle" x="1337" y="-289.4" font-family="Times Roman,serif" font-size="14.00">functor&#39;</text>
</a>
</g>
<!-- ProductLaws_Law0_law_&#45;&gt;ProductLaws_Law0_functor_ -->
<g id="edge10" class="edge"><title>ProductLaws_Law0_law_&#45;&gt;ProductLaws_Law0_functor_</title>
<path fill="none" stroke="black" d="M1286.46,-471.62C1297.42,-432.905 1317.76,-360.999 1329.01,-321.248"/>
<polygon fill="black" stroke="black" points="1332.44,-321.983 1331.79,-311.408 1325.7,-320.078 1332.44,-321.983"/>
</g>
<!-- ProductLaws_Law0_law -->
<g id="node12" class="node"><title>ProductLaws_Law0_law</title>
<a xlink:href="ProductLaws.html#Law0.law" xlink:title="law">
<ellipse fill="#f070d1" stroke="black" cx="978" cy="-498" rx="28.9914" ry="18.3848"/>
<ellipse fill="none" stroke="black" cx="978" cy="-498" rx="32.9914" ry="22.3848"/>
<ellipse fill="none" stroke="black" cx="978" cy="-498" rx="36.9914" ry="26.3848"/>
<text text-anchor="middle" x="978" y="-494.4" font-family="Times Roman,serif" font-size="14.00">law</text>
</a>
</g>
<!-- ProductLaws_Law0_inverse -->
<g id="node14" class="node"><title>ProductLaws_Law0_inverse</title>
<a xlink:href="ProductLaws.html#Law0.inverse" xlink:title="inverse">
<ellipse fill="#f070d1" stroke="black" cx="923" cy="-293" rx="46.8775" ry="18.3848"/>
<text text-anchor="middle" x="923" y="-289.4" font-family="Times Roman,serif" font-size="14.00">inverse</text>
</a>
</g>
<!-- ProductLaws_Law0_law&#45;&gt;ProductLaws_Law0_inverse -->
<g id="edge12" class="edge"><title>ProductLaws_Law0_law&#45;&gt;ProductLaws_Law0_inverse</title>
<path fill="none" stroke="black" d="M970.922,-471.62C960.535,-432.905 941.244,-360.999 930.579,-321.248"/>
<polygon fill="black" stroke="black" points="933.911,-320.16 927.939,-311.408 927.15,-321.974 933.911,-320.16"/>
</g>
<!-- ProductLaws_Law0_functor -->
<g id="node16" class="node"><title>ProductLaws_Law0_functor</title>
<a xlink:href="ProductLaws.html#Law0.functor" xlink:title="functor">
<ellipse fill="#f070d1" stroke="black" cx="1034" cy="-293" rx="46.1672" ry="18.3848"/>
<text text-anchor="middle" x="1034" y="-289.4" font-family="Times Roman,serif" font-size="14.00">functor</text>
</a>
</g>
<!-- ProductLaws_Law0_law&#45;&gt;ProductLaws_Law0_functor -->
<g id="edge14" class="edge"><title>ProductLaws_Law0_law&#45;&gt;ProductLaws_Law0_functor</title>
<path fill="none" stroke="black" d="M985.206,-471.62C995.782,-432.905 1015.42,-360.999 1026.28,-321.248"/>
<polygon fill="black" stroke="black" points="1029.71,-321.977 1028.97,-311.408 1022.96,-320.132 1029.71,-321.977"/>
</g>
<!-- ProductLaws_Law0_is_initial_category__product_ -->
<g id="node17" class="node"><title>ProductLaws_Law0_is_initial_category__product_</title>
<a xlink:href="ProductLaws.html#Law0.is_initial_category__product&#39;" xlink:title="is_initial_category__product&#39;">
<ellipse fill="#f070d1" stroke="black" cx="1337" cy="-108" rx="149.2" ry="18.3848"/>
<text text-anchor="middle" x="1337" y="-104.4" font-family="Times Roman,serif" font-size="14.00">is_initial_category__product&#39;</text>
</a>
</g>
<!-- ProductLaws_Law0_functor_&#45;&gt;ProductLaws_Law0_is_initial_category__product_ -->
<g id="edge16" class="edge"><title>ProductLaws_Law0_functor_&#45;&gt;ProductLaws_Law0_is_initial_category__product_</title>
<path fill="none" stroke="black" d="M1337,-274.243C1337,-241.887 1337,-175.371 1337,-137.009"/>
<polygon fill="black" stroke="black" points="1340.5,-136.531 1337,-126.531 1333.5,-136.531 1340.5,-136.531"/>
</g>
<!-- ProductLaws_Law0_is_initial_category__product -->
<g id="node18" class="node"><title>ProductLaws_Law0_is_initial_category__product</title>
<a xlink:href="ProductLaws.html#Law0.is_initial_category__product" xlink:title="is_initial_category__product">
<ellipse fill="#f070d1" stroke="black" cx="1023" cy="-108" rx="147.078" ry="18.3848"/>
<text text-anchor="middle" x="1023" y="-104.4" font-family="Times Roman,serif" font-size="14.00">is_initial_category__product</text>
</a>
</g>
<!-- ProductLaws_Law0_functor&#45;&gt;ProductLaws_Law0_is_initial_category__product -->
<g id="edge18" class="edge"><title>ProductLaws_Law0_functor&#45;&gt;ProductLaws_Law0_is_initial_category__product</title>
<path fill="none" stroke="black" d="M1032.88,-274.243C1030.95,-241.748 1026.97,-174.799 1024.7,-136.517"/>
<polygon fill="black" stroke="black" points="1028.19,-136.306 1024.1,-126.531 1021.2,-136.722 1028.19,-136.306"/>
</g>
</g>
</svg>
