<?xml version="1.0" encoding="UTF-8" standalone="no"?>
<!DOCTYPE svg PUBLIC "-//W3C//DTD SVG 1.1//EN"
 "http://www.w3.org/Graphics/SVG/1.1/DTD/svg11.dtd">
<!-- Generated by graphviz version 2.26.3 (20100126.1600)
 -->
<!-- Title: HoTT_categories_Functor_Prod_Prod Pages: 1 -->
<svg width="1702pt" height="855pt"
 viewBox="0.00 0.00 1702.00 855.00" xmlns="http://www.w3.org/2000/svg" xmlns:xlink="http://www.w3.org/1999/xlink">
<g id="graph1" class="graph" transform="scale(1 1) rotate(0) translate(4 851)">
<title>HoTT_categories_Functor_Prod_Prod</title>
<polygon fill="white" stroke="white" points="-4,5 -4,-851 1699,-851 1699,5 -4,5"/>
<g id="graph2" class="cluster"><title>cluster_Prod</title>
<polygon fill="#ffffc3" stroke="black" points="8,-26.0615 8,-820.938 1686,-820.938 1686,-26.0615 8,-26.0615"/>
<text text-anchor="middle" x="32" y="-804.338" font-family="Times Roman,serif" font-size="14.00">Prod</text>
</g>
<!-- Prod_functor -->
<g id="node1" class="node"><title>Prod_functor</title>
<a xlink:href="Prod.html#functor" xlink:title="functor">
<ellipse fill="#f070d1" stroke="black" cx="1624" cy="-622.062" rx="46.2409" ry="18.3848"/>
<ellipse fill="none" stroke="black" cx="1624" cy="-622.062" rx="50.2042" ry="22.3848"/>
<ellipse fill="none" stroke="black" cx="1624" cy="-622.062" rx="54.1675" ry="26.3848"/>
<text text-anchor="middle" x="1624" y="-618.462" font-family="Times Roman,serif" font-size="14.00">functor</text>
</a>
</g>
<!-- Prod_functor_identity_of -->
<g id="node2" class="node"><title>Prod_functor_identity_of</title>
<a xlink:href="Prod.html#functor_identity_of" xlink:title="functor_identity_of">
<ellipse fill="#f070d1" stroke="black" cx="1062" cy="-355.062" rx="103.945" ry="18.3848"/>
<text text-anchor="middle" x="1062" y="-351.462" font-family="Times Roman,serif" font-size="14.00">functor_identity_of</text>
</a>
</g>
<!-- Prod_functor&#45;&gt;Prod_functor_identity_of -->
<g id="edge2" class="edge"><title>Prod_functor&#45;&gt;Prod_functor_identity_of</title>
<path fill="none" stroke="black" d="M1584.93,-603.499C1484.17,-555.629 1215.88,-428.168 1107.93,-376.884"/>
<polygon fill="black" stroke="black" points="1109.14,-373.583 1098.61,-372.453 1106.14,-379.906 1109.14,-373.583"/>
</g>
<!-- Prod_functor_composition_of -->
<g id="node4" class="node"><title>Prod_functor_composition_of</title>
<a xlink:href="Prod.html#functor_composition_of" xlink:title="functor_composition_of">
<ellipse fill="#f070d1" stroke="black" cx="1308" cy="-355.062" rx="123.951" ry="18.3848"/>
<text text-anchor="middle" x="1308" y="-351.462" font-family="Times Roman,serif" font-size="14.00">functor_composition_of</text>
</a>
</g>
<!-- Prod_functor&#45;&gt;Prod_functor_composition_of -->
<g id="edge4" class="edge"><title>Prod_functor&#45;&gt;Prod_functor_composition_of</title>
<path fill="none" stroke="black" d="M1596.78,-599.066C1537.76,-549.19 1398.37,-431.422 1337.41,-379.911"/>
<polygon fill="black" stroke="black" points="1339.58,-377.166 1329.69,-373.386 1335.07,-382.513 1339.58,-377.166"/>
</g>
<!-- Prod_functor_morphism_of -->
<g id="node6" class="node"><title>Prod_functor_morphism_of</title>
<a xlink:href="Prod.html#functor_morphism_of" xlink:title="functor_morphism_of">
<ellipse fill="#f070d1" stroke="black" cx="1564" cy="-355.062" rx="113.844" ry="18.3848"/>
<text text-anchor="middle" x="1564" y="-351.462" font-family="Times Roman,serif" font-size="14.00">functor_morphism_of</text>
</a>
</g>
<!-- Prod_functor&#45;&gt;Prod_functor_morphism_of -->
<g id="edge6" class="edge"><title>Prod_functor&#45;&gt;Prod_functor_morphism_of</title>
<path fill="none" stroke="black" d="M1618.03,-595.484C1606.69,-545.013 1582.12,-435.7 1570.43,-383.684"/>
<polygon fill="black" stroke="black" points="1573.82,-382.776 1568.21,-373.787 1566.99,-384.311 1573.82,-382.776"/>
</g>
<!-- Prod_functor_identity_of_subproof -->
<g id="node3" class="node"><title>Prod_functor_identity_of_subproof</title>
<a xlink:href="Prod.html#functor_identity_of_subproof" xlink:title="functor_identity_of_subproof">
<ellipse fill="#f070d1" stroke="black" cx="1393" cy="-622.062" rx="150.846" ry="18.3848"/>
<ellipse fill="none" stroke="black" cx="1393" cy="-622.062" rx="154.834" ry="22.3848"/>
<ellipse fill="none" stroke="black" cx="1393" cy="-622.062" rx="158.821" ry="26.3848"/>
<text text-anchor="middle" x="1393" y="-618.462" font-family="Times Roman,serif" font-size="14.00">functor_identity_of_subproof</text>
</a>
</g>
<!-- Prod_functor_composition_of_subproof -->
<g id="node5" class="node"><title>Prod_functor_composition_of_subproof</title>
<a xlink:href="Prod.html#functor_composition_of_subproof" xlink:title="functor_composition_of_subproof">
<ellipse fill="#f070d1" stroke="black" cx="1037" cy="-622.062" rx="171.12" ry="18.3848"/>
<ellipse fill="none" stroke="black" cx="1037" cy="-622.062" rx="175.12" ry="22.3848"/>
<ellipse fill="none" stroke="black" cx="1037" cy="-622.062" rx="179.12" ry="26.3848"/>
<text text-anchor="middle" x="1037" y="-618.462" font-family="Times Roman,serif" font-size="14.00">functor_composition_of_subproof</text>
</a>
</g>
<!-- Prod_path_prod -->
<g id="node7" class="node"><title>Prod_path_prod</title>
<a xlink:href="Prod.html#path_prod" xlink:title="path_prod">
<ellipse fill="#f070d1" stroke="black" cx="771" cy="-622.062" rx="60.8112" ry="18.3848"/>
<ellipse fill="none" stroke="black" cx="771" cy="-622.062" rx="64.8112" ry="22.3848"/>
<ellipse fill="none" stroke="black" cx="771" cy="-622.062" rx="68.8112" ry="26.3848"/>
<text text-anchor="middle" x="771" y="-618.462" font-family="Times Roman,serif" font-size="14.00">path_prod</text>
</a>
</g>
<!-- Prod_unique -->
<g id="node9" class="node"><title>Prod_unique</title>
<a xlink:href="Prod.html#unique" xlink:title="unique">
<ellipse fill="#f070d1" stroke="black" cx="771" cy="-355.062" rx="44.7575" ry="18.3848"/>
<text text-anchor="middle" x="771" y="-351.462" font-family="Times Roman,serif" font-size="14.00">unique</text>
</a>
</g>
<!-- Prod_path_prod&#45;&gt;Prod_unique -->
<g id="edge8" class="edge"><title>Prod_path_prod&#45;&gt;Prod_unique</title>
<path fill="none" stroke="black" d="M771,-595.484C771,-545.118 771,-436.156 771,-384.01"/>
<polygon fill="black" stroke="black" points="774.5,-383.787 771,-373.787 767.5,-383.787 774.5,-383.787"/>
</g>
<!-- Prod_contr_prod_type -->
<g id="node8" class="node"><title>Prod_contr_prod_type</title>
<a xlink:href="Prod.html#contr_prod_type" xlink:title="contr_prod_type">
<ellipse fill="#f070d1" stroke="black" cx="585" cy="-622.062" rx="91.2168" ry="18.3848"/>
<ellipse fill="none" stroke="black" cx="585" cy="-622.062" rx="95.2168" ry="22.3848"/>
<ellipse fill="none" stroke="black" cx="585" cy="-622.062" rx="99.2168" ry="26.3848"/>
<text text-anchor="middle" x="585" y="-618.462" font-family="Times Roman,serif" font-size="14.00">contr_prod_type</text>
</a>
</g>
<!-- Prod_unique_helper2 -->
<g id="node10" class="node"><title>Prod_unique_helper2</title>
<a xlink:href="Prod.html#unique_helper2" xlink:title="unique_helper2">
<ellipse fill="#f070d1" stroke="black" cx="678" cy="-114.062" rx="87.1802" ry="18.3848"/>
<text text-anchor="middle" x="678" y="-110.462" font-family="Times Roman,serif" font-size="14.00">unique_helper2</text>
</a>
</g>
<!-- Prod_unique&#45;&gt;Prod_unique_helper2 -->
<g id="edge10" class="edge"><title>Prod_unique&#45;&gt;Prod_unique_helper2</title>
<path fill="none" stroke="black" d="M763.857,-336.551C747.662,-294.582 708.07,-191.984 688.838,-142.147"/>
<polygon fill="black" stroke="black" points="692.033,-140.705 685.167,-132.635 685.502,-143.225 692.033,-140.705"/>
</g>
<!-- Prod_unique_helper -->
<g id="node11" class="node"><title>Prod_unique_helper</title>
<a xlink:href="Prod.html#unique_helper" xlink:title="unique_helper">
<ellipse fill="#f070d1" stroke="black" cx="864" cy="-114.062" rx="80.8184" ry="18.3848"/>
<text text-anchor="middle" x="864" y="-110.462" font-family="Times Roman,serif" font-size="14.00">unique_helper</text>
</a>
</g>
<!-- Prod_unique&#45;&gt;Prod_unique_helper -->
<g id="edge12" class="edge"><title>Prod_unique&#45;&gt;Prod_unique_helper</title>
<path fill="none" stroke="black" d="M778.143,-336.551C794.338,-294.582 833.93,-191.984 853.162,-142.147"/>
<polygon fill="black" stroke="black" points="856.498,-143.225 856.833,-132.635 849.967,-140.705 856.498,-143.225"/>
</g>
<!-- Prod_compose_snd_prod -->
<g id="node12" class="node"><title>Prod_compose_snd_prod</title>
<a xlink:href="Prod.html#compose_snd_prod" xlink:title="compose_snd_prod">
<ellipse fill="#f070d1" stroke="black" cx="357" cy="-622.062" rx="103.238" ry="18.3848"/>
<ellipse fill="none" stroke="black" cx="357" cy="-622.062" rx="107.238" ry="22.3848"/>
<ellipse fill="none" stroke="black" cx="357" cy="-622.062" rx="111.238" ry="26.3848"/>
<text text-anchor="middle" x="357" y="-618.462" font-family="Times Roman,serif" font-size="14.00">compose_snd_prod</text>
</a>
</g>
<!-- Prod_compose_fst_prod -->
<g id="node13" class="node"><title>Prod_compose_fst_prod</title>
<a xlink:href="Prod.html#compose_fst_prod" xlink:title="compose_fst_prod">
<ellipse fill="#f070d1" stroke="black" cx="122" cy="-622.062" rx="97.8264" ry="18.3848"/>
<ellipse fill="none" stroke="black" cx="122" cy="-622.062" rx="101.808" ry="22.3848"/>
<ellipse fill="none" stroke="black" cx="122" cy="-622.062" rx="105.789" ry="26.3848"/>
<text text-anchor="middle" x="122" y="-618.462" font-family="Times Roman,serif" font-size="14.00">compose_fst_prod</text>
</a>
</g>
</g>
</svg>
