<?xml version="1.0" encoding="UTF-8" standalone="no"?>
<!DOCTYPE svg PUBLIC "-//W3C//DTD SVG 1.1//EN"
 "http://www.w3.org/Graphics/SVG/1.1/DTD/svg11.dtd">
<!-- Generated by graphviz version 2.26.3 (20100126.1600)
 -->
<!-- Title: HoTT_TruncType Pages: 1 -->
<svg width="1300pt" height="654pt"
 viewBox="0.00 0.00 1300.00 654.00" xmlns="http://www.w3.org/2000/svg" xmlns:xlink="http://www.w3.org/1999/xlink">
<g id="graph1" class="graph" transform="scale(1 1) rotate(0) translate(4 650)">
<title>HoTT_TruncType</title>
<polygon fill="white" stroke="white" points="-4,5 -4,-650 1297,-650 1297,5 -4,5"/>
<g id="graph2" class="cluster"><title>cluster_TruncType</title>
<polygon fill="#ffffc3" stroke="black" points="21.9915,-8 21.9915,-638 1270.01,-638 1270.01,-8 21.9915,-8"/>
<text text-anchor="middle" x="64.9915" y="-621.4" font-family="Times Roman,serif" font-size="14.00">TruncType</text>
</g>
<!-- TruncType_hProp_is_hSet -->
<g id="node1" class="node"><title>TruncType_hProp_is_hSet</title>
<a xlink:href="TruncType.html#hProp_is_hSet" xlink:title="hProp_is_hSet">
<ellipse fill="#f070d1" stroke="black" cx="926.357" cy="-577" rx="80.863" ry="18.3848"/>
<ellipse fill="none" stroke="black" cx="926.357" cy="-577" rx="84.8406" ry="22.3848"/>
<ellipse fill="none" stroke="black" cx="926.357" cy="-577" rx="88.8183" ry="26.3848"/>
<text text-anchor="middle" x="926.357" y="-573.4" font-family="Times Roman,serif" font-size="14.00">hProp_is_hSet</text>
</a>
</g>
<!-- TruncType_Sn_trunctype -->
<g id="node2" class="node"><title>TruncType_Sn_trunctype</title>
<a xlink:href="TruncType.html#Sn_trunctype" xlink:title="Sn_trunctype">
<ellipse fill="#f070d1" stroke="black" cx="926.357" cy="-495" rx="77.7817" ry="18.3848"/>
<text text-anchor="middle" x="926.357" y="-491.4" font-family="Times Roman,serif" font-size="14.00">Sn_trunctype</text>
</a>
</g>
<!-- TruncType_hProp_is_hSet&#45;&gt;TruncType_Sn_trunctype -->
<g id="edge2" class="edge"><title>TruncType_hProp_is_hSet&#45;&gt;TruncType_Sn_trunctype</title>
<path fill="none" stroke="black" d="M926.357,-550.15C926.357,-541.743 926.357,-532.43 926.357,-523.889"/>
<polygon fill="black" stroke="black" points="929.858,-523.607 926.357,-513.607 922.858,-523.607 929.858,-523.607"/>
</g>
<!-- TruncType_istrunc_trunctype -->
<g id="node3" class="node"><title>TruncType_istrunc_trunctype</title>
<a xlink:href="TruncType.html#istrunc_trunctype" xlink:title="istrunc_trunctype">
<ellipse fill="#f070d1" stroke="black" cx="926.357" cy="-413" rx="97.7889" ry="18.3848"/>
<text text-anchor="middle" x="926.357" y="-409.4" font-family="Times Roman,serif" font-size="14.00">istrunc_trunctype</text>
</a>
</g>
<!-- TruncType_Sn_trunctype&#45;&gt;TruncType_istrunc_trunctype -->
<g id="edge4" class="edge"><title>TruncType_Sn_trunctype&#45;&gt;TruncType_istrunc_trunctype</title>
<path fill="none" stroke="black" d="M926.357,-476.393C926.357,-466.118 926.357,-453.137 926.357,-441.602"/>
<polygon fill="black" stroke="black" points="929.858,-441.533 926.357,-431.533 922.858,-441.533 929.858,-441.533"/>
</g>
<!-- TruncType_equiv_path_trunctype -->
<g id="node5" class="node"><title>TruncType_equiv_path_trunctype</title>
<a xlink:href="TruncType.html#equiv_path_trunctype" xlink:title="equiv_path_trunctype">
<ellipse fill="#f070d1" stroke="black" cx="654.357" cy="-331" rx="118.794" ry="18.3848"/>
<text text-anchor="middle" x="654.357" y="-327.4" font-family="Times Roman,serif" font-size="14.00">equiv_path_trunctype</text>
</a>
</g>
<!-- TruncType_istrunc_trunctype&#45;&gt;TruncType_equiv_path_trunctype -->
<g id="edge6" class="edge"><title>TruncType_istrunc_trunctype&#45;&gt;TruncType_equiv_path_trunctype</title>
<path fill="none" stroke="black" d="M874.235,-397.287C830.023,-383.958 766.408,-364.78 718.967,-350.478"/>
<polygon fill="black" stroke="black" points="719.687,-347.039 709.102,-347.504 717.666,-353.741 719.687,-347.039"/>
</g>
<!-- TruncType_path_trunctype -->
<g id="node4" class="node"><title>TruncType_path_trunctype</title>
<a xlink:href="TruncType.html#path_trunctype" xlink:title="path_trunctype">
<ellipse fill="#f070d1" stroke="black" cx="346.357" cy="-413" rx="86.9741" ry="18.3848"/>
<ellipse fill="none" stroke="black" cx="346.357" cy="-413" rx="90.9741" ry="22.3848"/>
<ellipse fill="none" stroke="black" cx="346.357" cy="-413" rx="94.9741" ry="26.3848"/>
<text text-anchor="middle" x="346.357" y="-409.4" font-family="Times Roman,serif" font-size="14.00">path_trunctype</text>
</a>
</g>
<!-- TruncType_path_trunctype&#45;&gt;TruncType_equiv_path_trunctype -->
<g id="edge8" class="edge"><title>TruncType_path_trunctype&#45;&gt;TruncType_equiv_path_trunctype</title>
<path fill="none" stroke="black" d="M415.095,-394.7C465.458,-381.291 533.585,-363.154 584.263,-349.661"/>
<polygon fill="black" stroke="black" points="585.393,-352.983 594.156,-347.028 583.592,-346.218 585.393,-352.983"/>
</g>
<!-- TruncType_issig_trunctype -->
<g id="node6" class="node"><title>TruncType_issig_trunctype</title>
<a xlink:href="TruncType.html#issig_trunctype" xlink:title="issig_trunctype">
<ellipse fill="#f070d1" stroke="black" cx="654.357" cy="-257" rx="85.0596" ry="18.3848"/>
<text text-anchor="middle" x="654.357" y="-253.4" font-family="Times Roman,serif" font-size="14.00">issig_trunctype</text>
</a>
</g>
<!-- TruncType_equiv_path_trunctype&#45;&gt;TruncType_issig_trunctype -->
<g id="edge10" class="edge"><title>TruncType_equiv_path_trunctype&#45;&gt;TruncType_issig_trunctype</title>
<path fill="none" stroke="black" d="M654.357,-312.327C654.357,-304.264 654.357,-294.648 654.357,-285.711"/>
<polygon fill="black" stroke="black" points="657.858,-285.667 654.357,-275.667 650.858,-285.667 657.858,-285.667"/>
</g>
<!-- TruncType_istrunc_trunctype_type -->
<g id="node7" class="node"><title>TruncType_istrunc_trunctype_type</title>
<a xlink:href="TruncType.html#istrunc_trunctype_type" xlink:title="istrunc_trunctype_type">
<ellipse fill="#f070d1" stroke="black" cx="387.357" cy="-183" rx="125.158" ry="18.3848"/>
<text text-anchor="middle" x="387.357" y="-179.4" font-family="Times Roman,serif" font-size="14.00">istrunc_trunctype_type</text>
</a>
</g>
<!-- TruncType_issig_trunctype&#45;&gt;TruncType_istrunc_trunctype_type -->
<g id="edge12" class="edge"><title>TruncType_issig_trunctype&#45;&gt;TruncType_istrunc_trunctype_type</title>
<path fill="none" stroke="black" d="M601.607,-242.38C559.98,-230.843 501.575,-214.656 456.257,-202.096"/>
<polygon fill="black" stroke="black" points="457.076,-198.691 446.505,-199.393 455.207,-205.437 457.076,-198.691"/>
</g>
<!-- TruncType_BuildTruncType -->
<g id="node9" class="node"><title>TruncType_BuildTruncType</title>
<a xlink:href="TruncType.html#BuildTruncType" xlink:title="BuildTruncType">
<ellipse fill="#7faaff" stroke="black" cx="1014.36" cy="-183" rx="84.8528" ry="18.3848"/>
<text text-anchor="middle" x="1014.36" y="-179.4" font-family="Times Roman,serif" font-size="14.00">BuildTruncType</text>
</a>
</g>
<!-- TruncType_issig_trunctype&#45;&gt;TruncType_BuildTruncType -->
<g id="edge14" class="edge"><title>TruncType_issig_trunctype&#45;&gt;TruncType_BuildTruncType</title>
<path fill="none" stroke="black" d="M716.244,-244.279C779.059,-231.367 876.233,-211.392 942.434,-197.784"/>
<polygon fill="black" stroke="black" points="943.286,-201.182 952.376,-195.741 941.876,-194.326 943.286,-201.182"/>
</g>
<!-- TruncType_trunctype_type -->
<g id="node8" class="node"><title>TruncType_trunctype_type</title>
<a xlink:href="TruncType.html#trunctype_type" xlink:title="trunctype_type">
<ellipse fill="#f070d1" stroke="black" cx="387.357" cy="-109" rx="85.7684" ry="18.3848"/>
<text text-anchor="middle" x="387.357" y="-105.4" font-family="Times Roman,serif" font-size="14.00">trunctype_type</text>
</a>
</g>
<!-- TruncType_istrunc_trunctype_type&#45;&gt;TruncType_trunctype_type -->
<g id="edge16" class="edge"><title>TruncType_istrunc_trunctype_type&#45;&gt;TruncType_trunctype_type</title>
<path fill="none" stroke="black" d="M387.357,-164.327C387.357,-156.264 387.357,-146.648 387.357,-137.711"/>
<polygon fill="black" stroke="black" points="390.858,-137.667 387.357,-127.667 383.858,-137.667 390.858,-137.667"/>
</g>
<!-- TruncType_TruncType -->
<g id="node10" class="node"><title>TruncType_TruncType</title>
<a xlink:href="TruncType.html#TruncType" xlink:title="TruncType">
<ellipse fill="#e2cdfa" stroke="black" cx="387.357" cy="-35" rx="60.8112" ry="18.3848"/>
<text text-anchor="middle" x="387.357" y="-31.4" font-family="Times Roman,serif" font-size="14.00">TruncType</text>
</a>
</g>
<!-- TruncType_trunctype_type&#45;&gt;TruncType_TruncType -->
<g id="edge18" class="edge"><title>TruncType_trunctype_type&#45;&gt;TruncType_TruncType</title>
<path fill="none" stroke="black" d="M387.357,-90.3267C387.357,-82.2639 387.357,-72.6477 387.357,-63.7115"/>
<polygon fill="black" stroke="black" points="390.858,-63.6673 387.357,-53.6674 383.858,-63.6674 390.858,-63.6673"/>
</g>
</g>
</svg>
