<?xml version="1.0" encoding="UTF-8" standalone="no"?>
<!DOCTYPE svg PUBLIC "-//W3C//DTD SVG 1.1//EN"
 "http://www.w3.org/Graphics/SVG/1.1/DTD/svg11.dtd">
<!-- Generated by graphviz version 2.26.3 (20100126.1600)
 -->
<!-- Title: HoTT_FunextVarieties Pages: 1 -->
<svg width="972pt" height="490pt"
 viewBox="0.00 0.00 972.00 490.00" xmlns="http://www.w3.org/2000/svg" xmlns:xlink="http://www.w3.org/1999/xlink">
<g id="graph1" class="graph" transform="scale(1 1) rotate(0) translate(4 486)">
<title>HoTT_FunextVarieties</title>
<polygon fill="white" stroke="white" points="-4,5 -4,-486 969,-486 969,5 -4,5"/>
<g id="graph2" class="cluster"><title>cluster_FunextVarieties</title>
<polygon fill="#ffffc3" stroke="black" points="10.862,-8 10.862,-474 953.138,-474 953.138,-8 10.862,-8"/>
<text text-anchor="middle" x="73.362" y="-457.4" font-family="Times Roman,serif" font-size="14.00">FunextVarieties</text>
</g>
<!-- FunextVarieties_Funext_downward_closed -->
<g id="node1" class="node"><title>FunextVarieties_Funext_downward_closed</title>
<a xlink:href="FunextVarieties.html#Funext_downward_closed" xlink:title="Funext_downward_closed">
<ellipse fill="#f070d1" stroke="black" cx="481.676" cy="-413" rx="137.886" ry="18.3848"/>
<ellipse fill="none" stroke="black" cx="481.676" cy="-413" rx="141.886" ry="22.3848"/>
<ellipse fill="none" stroke="black" cx="481.676" cy="-413" rx="145.886" ry="26.3848"/>
<text text-anchor="middle" x="481.676" y="-409.4" font-family="Times Roman,serif" font-size="14.00">Funext_downward_closed</text>
</a>
</g>
<!-- FunextVarieties_NaiveFunext_implies_Funext -->
<g id="node2" class="node"><title>FunextVarieties_NaiveFunext_implies_Funext</title>
<a xlink:href="FunextVarieties.html#NaiveFunext_implies_Funext" xlink:title="NaiveFunext_implies_Funext">
<ellipse fill="#f070d1" stroke="black" cx="264.676" cy="-331" rx="150.821" ry="18.3848"/>
<text text-anchor="middle" x="264.676" y="-327.4" font-family="Times Roman,serif" font-size="14.00">NaiveFunext_implies_Funext</text>
</a>
</g>
<!-- FunextVarieties_Funext_downward_closed&#45;&gt;FunextVarieties_NaiveFunext_implies_Funext -->
<g id="edge2" class="edge"><title>FunextVarieties_Funext_downward_closed&#45;&gt;FunextVarieties_NaiveFunext_implies_Funext</title>
<path fill="none" stroke="black" d="M418.327,-389.062C387.511,-377.417 350.779,-363.537 320.958,-352.268"/>
<polygon fill="black" stroke="black" points="322.127,-348.968 311.535,-348.707 319.653,-355.516 322.127,-348.968"/>
</g>
<!-- FunextVarieties_Funext_implies_NaiveFunext -->
<g id="node8" class="node"><title>FunextVarieties_Funext_implies_NaiveFunext</title>
<a xlink:href="FunextVarieties.html#Funext_implies_NaiveFunext" xlink:title="Funext_implies_NaiveFunext">
<ellipse fill="#f070d1" stroke="black" cx="699.676" cy="-331" rx="150.821" ry="18.3848"/>
<text text-anchor="middle" x="699.676" y="-327.4" font-family="Times Roman,serif" font-size="14.00">Funext_implies_NaiveFunext</text>
</a>
</g>
<!-- FunextVarieties_Funext_downward_closed&#45;&gt;FunextVarieties_Funext_implies_NaiveFunext -->
<g id="edge4" class="edge"><title>FunextVarieties_Funext_downward_closed&#45;&gt;FunextVarieties_Funext_implies_NaiveFunext</title>
<path fill="none" stroke="black" d="M545.317,-389.062C576.276,-377.417 613.176,-363.537 643.134,-352.268"/>
<polygon fill="black" stroke="black" points="644.473,-355.504 652.601,-348.707 642.009,-348.952 644.473,-355.504"/>
</g>
<!-- FunextVarieties_WeakFunext_implies_Funext -->
<g id="node3" class="node"><title>FunextVarieties_WeakFunext_implies_Funext</title>
<a xlink:href="FunextVarieties.html#WeakFunext_implies_Funext" xlink:title="WeakFunext_implies_Funext">
<ellipse fill="#f070d1" stroke="black" cx="226.676" cy="-257" rx="150.821" ry="18.3848"/>
<text text-anchor="middle" x="226.676" y="-253.4" font-family="Times Roman,serif" font-size="14.00">WeakFunext_implies_Funext</text>
</a>
</g>
<!-- FunextVarieties_NaiveFunext_implies_Funext&#45;&gt;FunextVarieties_WeakFunext_implies_Funext -->
<g id="edge6" class="edge"><title>FunextVarieties_NaiveFunext_implies_Funext&#45;&gt;FunextVarieties_WeakFunext_implies_Funext</title>
<path fill="none" stroke="black" d="M255.087,-312.327C250.812,-304.001 245.686,-294.019 240.972,-284.84"/>
<polygon fill="black" stroke="black" points="243.944,-282.964 236.262,-275.667 237.717,-286.162 243.944,-282.964"/>
</g>
<!-- FunextVarieties_NaiveFunext_implies_WeakFunext -->
<g id="node7" class="node"><title>FunextVarieties_NaiveFunext_implies_WeakFunext</title>
<a xlink:href="FunextVarieties.html#NaiveFunext_implies_WeakFunext" xlink:title="NaiveFunext_implies_WeakFunext">
<ellipse fill="#f070d1" stroke="black" cx="699.676" cy="-257" rx="178.898" ry="18.3848"/>
<text text-anchor="middle" x="699.676" y="-253.4" font-family="Times Roman,serif" font-size="14.00">NaiveFunext_implies_WeakFunext</text>
</a>
</g>
<!-- FunextVarieties_NaiveFunext_implies_Funext&#45;&gt;FunextVarieties_NaiveFunext_implies_WeakFunext -->
<g id="edge8" class="edge"><title>FunextVarieties_NaiveFunext_implies_Funext&#45;&gt;FunextVarieties_NaiveFunext_implies_WeakFunext</title>
<path fill="none" stroke="black" d="M352.967,-315.98C423.409,-303.997 522.217,-287.188 596.339,-274.579"/>
<polygon fill="black" stroke="black" points="597.357,-277.956 606.628,-272.829 596.183,-271.056 597.357,-277.956"/>
</g>
<!-- FunextVarieties_htpy_rect_beta -->
<g id="node4" class="node"><title>FunextVarieties_htpy_rect_beta</title>
<a xlink:href="FunextVarieties.html#htpy_rect_beta" xlink:title="htpy_rect_beta">
<ellipse fill="#f070d1" stroke="black" cx="184.676" cy="-183" rx="85.0596" ry="18.3848"/>
<text text-anchor="middle" x="184.676" y="-179.4" font-family="Times Roman,serif" font-size="14.00">htpy_rect_beta</text>
</a>
</g>
<!-- FunextVarieties_WeakFunext_implies_Funext&#45;&gt;FunextVarieties_htpy_rect_beta -->
<g id="edge10" class="edge"><title>FunextVarieties_WeakFunext_implies_Funext&#45;&gt;FunextVarieties_htpy_rect_beta</title>
<path fill="none" stroke="black" d="M216.078,-238.327C211.266,-229.849 205.48,-219.654 200.192,-210.338"/>
<polygon fill="black" stroke="black" points="203.106,-208.38 195.126,-201.411 197.018,-211.836 203.106,-208.38"/>
</g>
<!-- FunextVarieties_htpy_rect -->
<g id="node5" class="node"><title>FunextVarieties_htpy_rect</title>
<a xlink:href="FunextVarieties.html#htpy_rect" xlink:title="htpy_rect">
<ellipse fill="#f070d1" stroke="black" cx="403.676" cy="-183" rx="58.1882" ry="18.3848"/>
<text text-anchor="middle" x="403.676" y="-179.4" font-family="Times Roman,serif" font-size="14.00">htpy_rect</text>
</a>
</g>
<!-- FunextVarieties_WeakFunext_implies_Funext&#45;&gt;FunextVarieties_htpy_rect -->
<g id="edge12" class="edge"><title>FunextVarieties_WeakFunext_implies_Funext&#45;&gt;FunextVarieties_htpy_rect</title>
<path fill="none" stroke="black" d="M269.523,-239.087C296.613,-227.761 331.562,-213.149 358.997,-201.679"/>
<polygon fill="black" stroke="black" points="360.486,-204.85 368.362,-197.764 357.786,-198.392 360.486,-204.85"/>
</g>
<!-- FunextVarieties_contr_basedhtpy -->
<g id="node6" class="node"><title>FunextVarieties_contr_basedhtpy</title>
<a xlink:href="FunextVarieties.html#contr_basedhtpy" xlink:title="contr_basedhtpy">
<ellipse fill="#f070d1" stroke="black" cx="188.676" cy="-109" rx="92.1303" ry="18.3848"/>
<text text-anchor="middle" x="188.676" y="-105.4" font-family="Times Roman,serif" font-size="14.00">contr_basedhtpy</text>
</a>
</g>
<!-- FunextVarieties_htpy_rect_beta&#45;&gt;FunextVarieties_contr_basedhtpy -->
<g id="edge14" class="edge"><title>FunextVarieties_htpy_rect_beta&#45;&gt;FunextVarieties_contr_basedhtpy</title>
<path fill="none" stroke="black" d="M185.685,-164.327C186.121,-156.264 186.641,-146.648 187.124,-137.711"/>
<polygon fill="black" stroke="black" points="190.622,-137.842 187.667,-127.667 183.632,-137.464 190.622,-137.842"/>
</g>
<!-- FunextVarieties_htpy_rect&#45;&gt;FunextVarieties_contr_basedhtpy -->
<g id="edge16" class="edge"><title>FunextVarieties_htpy_rect&#45;&gt;FunextVarieties_contr_basedhtpy</title>
<path fill="none" stroke="black" d="M364.242,-169.427C330.857,-157.937 282.593,-141.325 245.115,-128.426"/>
<polygon fill="black" stroke="black" points="245.939,-125.008 235.344,-125.063 243.661,-131.627 245.939,-125.008"/>
</g>
<!-- FunextVarieties_WeakFunext -->
<g id="node9" class="node"><title>FunextVarieties_WeakFunext</title>
<a xlink:href="FunextVarieties.html#WeakFunext" xlink:title="WeakFunext">
<ellipse fill="#f070d1" stroke="black" cx="188.676" cy="-35" rx="73.0388" ry="18.3848"/>
<text text-anchor="middle" x="188.676" y="-31.4" font-family="Times Roman,serif" font-size="14.00">WeakFunext</text>
</a>
</g>
<!-- FunextVarieties_contr_basedhtpy&#45;&gt;FunextVarieties_WeakFunext -->
<g id="edge18" class="edge"><title>FunextVarieties_contr_basedhtpy&#45;&gt;FunextVarieties_WeakFunext</title>
<path fill="none" stroke="black" d="M188.676,-90.3267C188.676,-82.2639 188.676,-72.6477 188.676,-63.7115"/>
<polygon fill="black" stroke="black" points="192.176,-63.6673 188.676,-53.6674 185.176,-63.6674 192.176,-63.6673"/>
</g>
<!-- FunextVarieties_NaiveFunext -->
<g id="node10" class="node"><title>FunextVarieties_NaiveFunext</title>
<a xlink:href="FunextVarieties.html#NaiveFunext" xlink:title="NaiveFunext">
<ellipse fill="#f070d1" stroke="black" cx="699.676" cy="-183" rx="73.0388" ry="18.3848"/>
<text text-anchor="middle" x="699.676" y="-179.4" font-family="Times Roman,serif" font-size="14.00">NaiveFunext</text>
</a>
</g>
<!-- FunextVarieties_NaiveFunext_implies_WeakFunext&#45;&gt;FunextVarieties_NaiveFunext -->
<g id="edge20" class="edge"><title>FunextVarieties_NaiveFunext_implies_WeakFunext&#45;&gt;FunextVarieties_NaiveFunext</title>
<path fill="none" stroke="black" d="M699.676,-238.327C699.676,-230.264 699.676,-220.648 699.676,-211.711"/>
<polygon fill="black" stroke="black" points="703.176,-211.667 699.676,-201.667 696.176,-211.667 703.176,-211.667"/>
</g>
</g>
</svg>
