<?xml version="1.0" encoding="UTF-8" standalone="no"?>
<!DOCTYPE svg PUBLIC "-//W3C//DTD SVG 1.1//EN"
 "http://www.w3.org/Graphics/SVG/1.1/DTD/svg11.dtd">
<!-- Generated by graphviz version 2.39.20141222.0545 (20141222.0545)
 -->
<!-- Title: HoTT_Categories_Structure_Core Pages: 1 -->
<svg width="3030pt" height="1519pt"
 viewBox="0.00 0.00 3030.00 1519.00" xmlns="http://www.w3.org/2000/svg" xmlns:xlink="http://www.w3.org/1999/xlink">
<g id="graph0" class="graph" transform="scale(1 1) rotate(0) translate(4 1515)">
<title>HoTT_Categories_Structure_Core</title>
<polygon fill="white" stroke="transparent" points="-4,4 -4,-1515 3026,-1515 3026,4 -4,4"/>
<g id="clust1" class="cluster"><title>cluster_Core</title>
<polygon fill="#ffffc3" stroke="black" points="8,-34.5371 8,-1476.46 3014,-1476.46 3014,-34.5371 8,-34.5371"/>
<text text-anchor="middle" x="29.5" y="-1461.26" font-family="Times,serif" font-size="14.00">Core</text>
</g>
<g id="clust2" class="cluster"><title>cluster_Core_PreCategoryOfStructures</title>
<polygon fill="#ffffa3" stroke="black" points="2386,-69.0743 2386,-1083.6 3006,-1083.6 3006,-69.0743 2386,-69.0743"/>
<text text-anchor="middle" x="2462.5" y="-1068.4" font-family="Times,serif" font-size="14.00">PreCategoryOfStructures</text>
</g>
<!-- Core_PreCategoryOfStructures_path_morphism -->
<g id="node1" class="node"><title>Core_PreCategoryOfStructures_path_morphism</title>
<g id="a_node1"><a xlink:href="Core.html#PreCategoryOfStructures.path_morphism" xlink:title="path_morphism">
<ellipse fill="#f070d1" stroke="black" cx="2615" cy="-492.537" rx="66.8882" ry="18"/>
<text text-anchor="middle" x="2615" y="-488.837" font-family="Times,serif" font-size="14.00">path_morphism</text>
</a>
</g>
</g>
<!-- Core_PreCategoryOfStructures_Build_morphism -->
<g id="node8" class="node"><title>Core_PreCategoryOfStructures_Build_morphism</title>
<g id="a_node8"><a xlink:href="Core.html#PreCategoryOfStructures.Build_morphism" xlink:title="Build_morphism">
<ellipse fill="#7faaff" stroke="black" cx="2615" cy="-181.537" rx="71.4873" ry="18"/>
<text text-anchor="middle" x="2615" y="-177.837" font-family="Times,serif" font-size="14.00">Build_morphism</text>
</a>
</g>
</g>
<!-- Core_PreCategoryOfStructures_path_morphism&#45;&gt;Core_PreCategoryOfStructures_Build_morphism -->
<g id="edge1" class="edge"><title>Core_PreCategoryOfStructures_path_morphism&#45;&gt;Core_PreCategoryOfStructures_Build_morphism</title>
<path fill="none" stroke="black" d="M2615,-474.472C2615,-422.619 2615,-273.004 2615,-210.02"/>
<polygon fill="black" stroke="black" points="2618.5,-209.652 2615,-199.652 2611.5,-209.652 2618.5,-209.652"/>
</g>
<!-- Core_PreCategoryOfStructures_issig_morphism -->
<g id="node2" class="node"><title>Core_PreCategoryOfStructures_issig_morphism</title>
<g id="a_node2"><a xlink:href="Core.html#PreCategoryOfStructures.issig_morphism" xlink:title="issig_morphism">
<ellipse fill="#f070d1" stroke="black" cx="2462" cy="-492.537" rx="67.6881" ry="18"/>
<text text-anchor="middle" x="2462" y="-488.837" font-family="Times,serif" font-size="14.00">issig_morphism</text>
</a>
</g>
</g>
<!-- Core_PreCategoryOfStructures_issig_morphism&#45;&gt;Core_PreCategoryOfStructures_Build_morphism -->
<g id="edge2" class="edge"><title>Core_PreCategoryOfStructures_issig_morphism&#45;&gt;Core_PreCategoryOfStructures_Build_morphism</title>
<path fill="none" stroke="black" d="M2470.89,-474.472C2496.56,-422.297 2570.92,-271.141 2601.56,-208.856"/>
<polygon fill="black" stroke="black" points="2604.81,-210.17 2606.09,-199.652 2598.53,-207.08 2604.81,-210.17"/>
</g>
<!-- Core_PreCategoryOfStructures_morphism_rec -->
<g id="node3" class="node"><title>Core_PreCategoryOfStructures_morphism_rec</title>
<g id="a_node3"><a xlink:href="Core.html#PreCategoryOfStructures.morphism_rec" xlink:title="morphism_rec">
<ellipse fill="#f070d1" stroke="black" cx="2928" cy="-837.537" rx="62.3011" ry="18"/>
<ellipse fill="none" stroke="black" cx="2928" cy="-837.537" rx="66.2951" ry="22"/>
<ellipse fill="none" stroke="black" cx="2928" cy="-837.537" rx="70.2891" ry="26"/>
<text text-anchor="middle" x="2928" y="-833.837" font-family="Times,serif" font-size="14.00">morphism_rec</text>
</a>
</g>
</g>
<!-- Core_PreCategoryOfStructures_morphism_rect -->
<g id="node5" class="node"><title>Core_PreCategoryOfStructures_morphism_rect</title>
<g id="a_node5"><a xlink:href="Core.html#PreCategoryOfStructures.morphism_rect" xlink:title="morphism_rect">
<ellipse fill="#f070d1" stroke="black" cx="2769" cy="-492.537" rx="64.9885" ry="18"/>
<text text-anchor="middle" x="2769" y="-488.837" font-family="Times,serif" font-size="14.00">morphism_rect</text>
</a>
</g>
</g>
<!-- Core_PreCategoryOfStructures_morphism_rec&#45;&gt;Core_PreCategoryOfStructures_morphism_rect -->
<g id="edge3" class="edge"><title>Core_PreCategoryOfStructures_morphism_rec&#45;&gt;Core_PreCategoryOfStructures_morphism_rect</title>
<path fill="none" stroke="black" d="M2916.18,-811.888C2886.95,-748.463 2811.48,-584.707 2781.52,-519.709"/>
<polygon fill="black" stroke="black" points="2784.65,-518.123 2777.28,-510.506 2778.29,-521.053 2784.65,-518.123"/>
</g>
<!-- Core_PreCategoryOfStructures_morphism_ind -->
<g id="node4" class="node"><title>Core_PreCategoryOfStructures_morphism_ind</title>
<g id="a_node4"><a xlink:href="Core.html#PreCategoryOfStructures.morphism_ind" xlink:title="morphism_ind">
<ellipse fill="#7fffd4" stroke="black" cx="2769" cy="-837.537" rx="63.0838" ry="18"/>
<ellipse fill="none" stroke="black" cx="2769" cy="-837.537" rx="67.0863" ry="22"/>
<ellipse fill="none" stroke="black" cx="2769" cy="-837.537" rx="71.0888" ry="26"/>
<text text-anchor="middle" x="2769" y="-833.837" font-family="Times,serif" font-size="14.00">morphism_ind</text>
</a>
</g>
</g>
<!-- Core_PreCategoryOfStructures_morphism_ind&#45;&gt;Core_PreCategoryOfStructures_morphism_rect -->
<g id="edge4" class="edge"><title>Core_PreCategoryOfStructures_morphism_ind&#45;&gt;Core_PreCategoryOfStructures_morphism_rect</title>
<path fill="none" stroke="black" d="M2769,-811.323C2769,-747.868 2769,-586.412 2769,-520.852"/>
<polygon fill="black" stroke="black" points="2772.5,-520.828 2769,-510.828 2765.5,-520.828 2772.5,-520.828"/>
</g>
<!-- Core_PreCategoryOfStructures_morphism_rect&#45;&gt;Core_PreCategoryOfStructures_Build_morphism -->
<g id="edge5" class="edge"><title>Core_PreCategoryOfStructures_morphism_rect&#45;&gt;Core_PreCategoryOfStructures_Build_morphism</title>
<path fill="none" stroke="black" d="M2760.05,-474.472C2734.22,-422.297 2659.37,-271.141 2628.53,-208.856"/>
<polygon fill="black" stroke="black" points="2631.54,-207.06 2623.97,-199.652 2625.27,-210.167 2631.54,-207.06"/>
</g>
<!-- Core_PreCategoryOfStructures_h -->
<g id="node6" class="node"><title>Core_PreCategoryOfStructures_h</title>
<g id="a_node6"><a xlink:href="Core.html#PreCategoryOfStructures.h" xlink:title="h">
<ellipse fill="#f070d1" stroke="black" cx="2645" cy="-837.537" rx="27" ry="18"/>
<ellipse fill="none" stroke="black" cx="2645" cy="-837.537" rx="31" ry="22"/>
<ellipse fill="none" stroke="black" cx="2645" cy="-837.537" rx="35" ry="26"/>
<text text-anchor="middle" x="2645" y="-833.837" font-family="Times,serif" font-size="14.00">h</text>
</a>
</g>
</g>
<!-- Core_PreCategoryOfStructures_f -->
<g id="node7" class="node"><title>Core_PreCategoryOfStructures_f</title>
<g id="a_node7"><a xlink:href="Core.html#PreCategoryOfStructures.f" xlink:title="f">
<ellipse fill="#f070d1" stroke="black" cx="2557" cy="-837.537" rx="27" ry="18"/>
<ellipse fill="none" stroke="black" cx="2557" cy="-837.537" rx="31" ry="22"/>
<ellipse fill="none" stroke="black" cx="2557" cy="-837.537" rx="35" ry="26"/>
<text text-anchor="middle" x="2557" y="-833.837" font-family="Times,serif" font-size="14.00">f</text>
</a>
</g>
</g>
<!-- Core_PreCategoryOfStructures_morphism -->
<g id="node9" class="node"><title>Core_PreCategoryOfStructures_morphism</title>
<g id="a_node9"><a xlink:href="Core.html#PreCategoryOfStructures.morphism" xlink:title="morphism">
<ellipse fill="#e2cdfa" stroke="black" cx="2449" cy="-837.537" rx="47.3994" ry="18"/>
<ellipse fill="none" stroke="black" cx="2449" cy="-837.537" rx="51.3955" ry="22"/>
<ellipse fill="none" stroke="black" cx="2449" cy="-837.537" rx="55.3916" ry="26"/>
<text text-anchor="middle" x="2449" y="-833.837" font-family="Times,serif" font-size="14.00">morphism</text>
</a>
</g>
</g>
<!-- Core_precategory_of_structures -->
<g id="node10" class="node"><title>Core_precategory_of_structures</title>
<g id="a_node10"><a xlink:href="Core.html#precategory_of_structures" xlink:title="precategory_of_structures">
<ellipse fill="#f070d1" stroke="black" cx="2895" cy="-1230.54" rx="102.868" ry="18"/>
<ellipse fill="none" stroke="black" cx="2895" cy="-1230.54" rx="106.875" ry="22"/>
<ellipse fill="none" stroke="black" cx="2895" cy="-1230.54" rx="110.882" ry="26"/>
<text text-anchor="middle" x="2895" y="-1226.84" font-family="Times,serif" font-size="14.00">precategory_of_structures</text>
</a>
</g>
</g>
<!-- Core_precategory_of_structures&#45;&gt;Core_PreCategoryOfStructures_issig_morphism -->
<g id="edge6" class="edge"><title>Core_precategory_of_structures&#45;&gt;Core_PreCategoryOfStructures_issig_morphism</title>
<path fill="none" stroke="black" d="M2814.27,-1212.7C2518.1,-1147.08 1507.28,-921.483 1486,-894.537 1463.14,-865.585 1464.34,-841.4 1486,-811.537 1542.61,-733.484 2200.6,-559.525 2403.08,-507.508"/>
<polygon fill="black" stroke="black" points="2404.12,-510.854 2412.94,-504.979 2402.38,-504.074 2404.12,-510.854"/>
</g>
<!-- Core_precategory_of_structures_subproof1 -->
<g id="node11" class="node"><title>Core_precategory_of_structures_subproof1</title>
<g id="a_node11"><a xlink:href="Core.html#precategory_of_structures_subproof1" xlink:title="precategory_of_structures_subproof1">
<ellipse fill="#facdef" stroke="black" cx="1637" cy="-837.537" rx="142.175" ry="18"/>
<text text-anchor="middle" x="1637" y="-833.837" font-family="Times,serif" font-size="14.00">precategory_of_structures_subproof1</text>
</a>
</g>
</g>
<!-- Core_precategory_of_structures&#45;&gt;Core_precategory_of_structures_subproof1 -->
<g id="edge7" class="edge"><title>Core_precategory_of_structures&#45;&gt;Core_precategory_of_structures_subproof1</title>
<path fill="none" stroke="black" d="M2823.66,-1210.57C2647.09,-1160.8 2176,-1025.73 1789,-894.537 1755.91,-883.318 1719.22,-869.596 1690.17,-858.427"/>
<polygon fill="black" stroke="black" points="1691.22,-855.081 1680.63,-854.745 1688.7,-861.611 1691.22,-855.081"/>
</g>
<!-- Core_precategory_of_structures_subproof0 -->
<g id="node12" class="node"><title>Core_precategory_of_structures_subproof0</title>
<g id="a_node12"><a xlink:href="Core.html#precategory_of_structures_subproof0" xlink:title="precategory_of_structures_subproof0">
<ellipse fill="#facdef" stroke="black" cx="1940" cy="-837.537" rx="142.175" ry="18"/>
<text text-anchor="middle" x="1940" y="-833.837" font-family="Times,serif" font-size="14.00">precategory_of_structures_subproof0</text>
</a>
</g>
</g>
<!-- Core_precategory_of_structures&#45;&gt;Core_precategory_of_structures_subproof0 -->
<g id="edge8" class="edge"><title>Core_precategory_of_structures&#45;&gt;Core_precategory_of_structures_subproof0</title>
<path fill="none" stroke="black" d="M2839.88,-1207.85C2669.98,-1137.94 2155.92,-926.391 1991.3,-858.648"/>
<polygon fill="black" stroke="black" points="1992.46,-855.342 1981.88,-854.773 1989.8,-861.816 1992.46,-855.342"/>
</g>
<!-- Core_precategory_of_structures_subproof -->
<g id="node13" class="node"><title>Core_precategory_of_structures_subproof</title>
<g id="a_node13"><a xlink:href="Core.html#precategory_of_structures_subproof" xlink:title="precategory_of_structures_subproof">
<ellipse fill="#facdef" stroke="black" cx="2238" cy="-837.537" rx="137.576" ry="18"/>
<text text-anchor="middle" x="2238" y="-833.837" font-family="Times,serif" font-size="14.00">precategory_of_structures_subproof</text>
</a>
</g>
</g>
<!-- Core_precategory_of_structures&#45;&gt;Core_precategory_of_structures_subproof -->
<g id="edge9" class="edge"><title>Core_precategory_of_structures&#45;&gt;Core_precategory_of_structures_subproof</title>
<path fill="none" stroke="black" d="M2854.4,-1206.25C2736.04,-1135.45 2392.46,-929.929 2276.64,-860.649"/>
<polygon fill="black" stroke="black" points="2278.12,-857.455 2267.74,-855.325 2274.52,-863.463 2278.12,-857.455"/>
</g>
<!-- Core_precategory_of_structures_subproof1&#45;&gt;Core_PreCategoryOfStructures_path_morphism -->
<g id="edge10" class="edge"><title>Core_precategory_of_structures_subproof1&#45;&gt;Core_PreCategoryOfStructures_path_morphism</title>
<path fill="none" stroke="black" d="M1685.17,-820.546C1850.74,-762.137 2395.66,-569.91 2564.6,-510.315"/>
<polygon fill="black" stroke="black" points="2565.98,-513.541 2574.24,-506.914 2563.65,-506.94 2565.98,-513.541"/>
</g>
<!-- Core_precategory_of_structures_subproof0&#45;&gt;Core_PreCategoryOfStructures_path_morphism -->
<g id="edge11" class="edge"><title>Core_precategory_of_structures_subproof0&#45;&gt;Core_PreCategoryOfStructures_path_morphism</title>
<path fill="none" stroke="black" d="M1974.4,-819.954C2088.3,-761.74 2452.8,-575.441 2574.79,-513.089"/>
<polygon fill="black" stroke="black" points="2576.51,-516.14 2583.82,-508.473 2573.32,-509.907 2576.51,-516.14"/>
</g>
<!-- Core_precategory_of_structures_subproof&#45;&gt;Core_PreCategoryOfStructures_path_morphism -->
<g id="edge12" class="edge"><title>Core_precategory_of_structures_subproof&#45;&gt;Core_PreCategoryOfStructures_path_morphism</title>
<path fill="none" stroke="black" d="M2257.48,-819.715C2320.05,-762.452 2516.08,-583.062 2588.11,-517.149"/>
<polygon fill="black" stroke="black" points="2590.85,-519.38 2595.87,-510.047 2586.13,-514.216 2590.85,-519.38"/>
</g>
<!-- Core_istrunc_homomorphism_standard_notion_of_structure -->
<g id="node14" class="node"><title>Core_istrunc_homomorphism_standard_notion_of_structure</title>
<g id="a_node14"><a xlink:href="Core.html#istrunc_homomorphism_standard_notion_of_structure" xlink:title="istrunc_homomorphism_standard_notion_of_structure">
<ellipse fill="#f070d1" stroke="black" cx="2554" cy="-1230.54" rx="204.161" ry="18"/>
<ellipse fill="none" stroke="black" cx="2554" cy="-1230.54" rx="208.162" ry="22"/>
<ellipse fill="none" stroke="black" cx="2554" cy="-1230.54" rx="212.164" ry="26"/>
<text text-anchor="middle" x="2554" y="-1226.84" font-family="Times,serif" font-size="14.00">istrunc_homomorphism_standard_notion_of_structure</text>
</a>
</g>
</g>
<!-- Core_antisymmetry_structure -->
<g id="node15" class="node"><title>Core_antisymmetry_structure</title>
<g id="a_node15"><a xlink:href="Core.html#antisymmetry_structure" xlink:title="antisymmetry_structure">
<ellipse fill="#f070d1" stroke="black" cx="1362" cy="-837.537" rx="94.7833" ry="18"/>
<text text-anchor="middle" x="1362" y="-833.837" font-family="Times,serif" font-size="14.00">antisymmetry_structure</text>
</a>
</g>
</g>
<!-- Core_istrunc_homomorphism_standard_notion_of_structure&#45;&gt;Core_antisymmetry_structure -->
<g id="edge13" class="edge"><title>Core_istrunc_homomorphism_standard_notion_of_structure&#45;&gt;Core_antisymmetry_structure</title>
<path fill="none" stroke="black" d="M2458.91,-1207.24C2267.92,-1159.12 1825.63,-1040.86 1471,-894.537 1446.75,-884.533 1420.68,-871.008 1400.12,-859.643"/>
<polygon fill="black" stroke="black" points="1401.81,-856.58 1391.38,-854.758 1398.4,-862.69 1401.81,-856.58"/>
</g>
<!-- Core_IsStandardNotionOfStructure -->
<g id="node16" class="node"><title>Core_IsStandardNotionOfStructure</title>
<g id="a_node16"><a xlink:href="Core.html#IsStandardNotionOfStructure" xlink:title="IsStandardNotionOfStructure">
<ellipse fill="#f070d1" stroke="black" cx="1375" cy="-492.537" rx="114.28" ry="18"/>
<text text-anchor="middle" x="1375" y="-488.837" font-family="Times,serif" font-size="14.00">IsStandardNotionOfStructure</text>
</a>
</g>
</g>
<!-- Core_antisymmetry_structure&#45;&gt;Core_IsStandardNotionOfStructure -->
<g id="edge14" class="edge"><title>Core_antisymmetry_structure&#45;&gt;Core_IsStandardNotionOfStructure</title>
<path fill="none" stroke="black" d="M1362.68,-819.474C1364.81,-763.016 1371.34,-589.555 1373.93,-520.919"/>
<polygon fill="black" stroke="black" points="1377.43,-520.962 1374.31,-510.838 1370.44,-520.699 1377.43,-520.962"/>
</g>
<!-- Core_preorder_is_structure_homomorphism -->
<g id="node17" class="node"><title>Core_preorder_is_structure_homomorphism</title>
<g id="a_node17"><a xlink:href="Core.html#preorder_is_structure_homomorphism" xlink:title="preorder_is_structure_homomorphism">
<ellipse fill="#f070d1" stroke="black" cx="2168" cy="-1230.54" rx="147.572" ry="18"/>
<ellipse fill="none" stroke="black" cx="2168" cy="-1230.54" rx="151.573" ry="22"/>
<ellipse fill="none" stroke="black" cx="2168" cy="-1230.54" rx="155.574" ry="26"/>
<text text-anchor="middle" x="2168" y="-1226.84" font-family="Times,serif" font-size="14.00">preorder_is_structure_homomorphism</text>
</a>
</g>
</g>
<!-- Core_NotionOfStructure_rec -->
<g id="node18" class="node"><title>Core_NotionOfStructure_rec</title>
<g id="a_node18"><a xlink:href="Core.html#NotionOfStructure_rec" xlink:title="NotionOfStructure_rec">
<ellipse fill="#f070d1" stroke="black" cx="1895" cy="-1230.54" rx="91.7725" ry="18"/>
<ellipse fill="none" stroke="black" cx="1895" cy="-1230.54" rx="95.7782" ry="22"/>
<ellipse fill="none" stroke="black" cx="1895" cy="-1230.54" rx="99.7839" ry="26"/>
<text text-anchor="middle" x="1895" y="-1226.84" font-family="Times,serif" font-size="14.00">NotionOfStructure_rec</text>
</a>
</g>
</g>
<!-- Core_NotionOfStructure_rect -->
<g id="node20" class="node"><title>Core_NotionOfStructure_rect</title>
<g id="a_node20"><a xlink:href="Core.html#NotionOfStructure_rect" xlink:title="NotionOfStructure_rect">
<ellipse fill="#f070d1" stroke="black" cx="1155" cy="-837.537" rx="94.4839" ry="18"/>
<text text-anchor="middle" x="1155" y="-833.837" font-family="Times,serif" font-size="14.00">NotionOfStructure_rect</text>
</a>
</g>
</g>
<!-- Core_NotionOfStructure_rec&#45;&gt;Core_NotionOfStructure_rect -->
<g id="edge15" class="edge"><title>Core_NotionOfStructure_rec&#45;&gt;Core_NotionOfStructure_rect</title>
<path fill="none" stroke="black" d="M1850.04,-1207.22C1745.7,-1153.01 1479.1,-1014.01 1258,-894.537 1236.89,-883.13 1213.48,-870.197 1194.32,-859.537"/>
<polygon fill="black" stroke="black" points="1196,-856.467 1185.56,-854.659 1192.59,-862.583 1196,-856.467"/>
</g>
<!-- Core_NotionOfStructure_ind -->
<g id="node19" class="node"><title>Core_NotionOfStructure_ind</title>
<g id="a_node19"><a xlink:href="Core.html#NotionOfStructure_ind" xlink:title="NotionOfStructure_ind">
<ellipse fill="#7fffd4" stroke="black" cx="1677" cy="-1230.54" rx="92.1006" ry="18"/>
<ellipse fill="none" stroke="black" cx="1677" cy="-1230.54" rx="96.0923" ry="22"/>
<ellipse fill="none" stroke="black" cx="1677" cy="-1230.54" rx="100.084" ry="26"/>
<text text-anchor="middle" x="1677" y="-1226.84" font-family="Times,serif" font-size="14.00">NotionOfStructure_ind</text>
</a>
</g>
</g>
<!-- Core_NotionOfStructure_ind&#45;&gt;Core_NotionOfStructure_rect -->
<g id="edge16" class="edge"><title>Core_NotionOfStructure_ind&#45;&gt;Core_NotionOfStructure_rect</title>
<path fill="none" stroke="black" d="M1644.35,-1205.95C1550.19,-1135.07 1279.02,-930.908 1186.43,-861.196"/>
<polygon fill="black" stroke="black" points="1188.38,-858.287 1178.29,-855.069 1184.17,-863.88 1188.38,-858.287"/>
</g>
<!-- Core_Build_NotionOfStructure -->
<g id="node26" class="node"><title>Core_Build_NotionOfStructure</title>
<g id="a_node26"><a xlink:href="Core.html#Build_NotionOfStructure" xlink:title="Build_NotionOfStructure">
<ellipse fill="#7faaff" stroke="black" cx="1142" cy="-492.537" rx="100.983" ry="18"/>
<text text-anchor="middle" x="1142" y="-488.837" font-family="Times,serif" font-size="14.00">Build_NotionOfStructure</text>
</a>
</g>
</g>
<!-- Core_NotionOfStructure_rect&#45;&gt;Core_Build_NotionOfStructure -->
<g id="edge17" class="edge"><title>Core_NotionOfStructure_rect&#45;&gt;Core_Build_NotionOfStructure</title>
<path fill="none" stroke="black" d="M1154.32,-819.474C1152.19,-763.016 1145.66,-589.555 1143.07,-520.919"/>
<polygon fill="black" stroke="black" points="1146.56,-520.699 1142.69,-510.838 1139.57,-520.962 1146.56,-520.699"/>
</g>
<!-- Core_is_structure_homomorphism_composition -->
<g id="node21" class="node"><title>Core_is_structure_homomorphism_composition</title>
<g id="a_node21"><a xlink:href="Core.html#is_structure_homomorphism_composition" xlink:title="is_structure_homomorphism_composition">
<ellipse fill="#f070d1" stroke="black" cx="1390" cy="-1230.54" rx="161.363" ry="18"/>
<ellipse fill="none" stroke="black" cx="1390" cy="-1230.54" rx="165.367" ry="22"/>
<ellipse fill="none" stroke="black" cx="1390" cy="-1230.54" rx="169.372" ry="26"/>
<text text-anchor="middle" x="1390" y="-1226.84" font-family="Times,serif" font-size="14.00">is_structure_homomorphism_composition</text>
</a>
</g>
</g>
<!-- Core_is_structure_homomorphism_identity -->
<g id="node22" class="node"><title>Core_is_structure_homomorphism_identity</title>
<g id="a_node22"><a xlink:href="Core.html#is_structure_homomorphism_identity" xlink:title="is_structure_homomorphism_identity">
<ellipse fill="#f070d1" stroke="black" cx="1051" cy="-1230.54" rx="144.086" ry="18"/>
<ellipse fill="none" stroke="black" cx="1051" cy="-1230.54" rx="148.08" ry="22"/>
<ellipse fill="none" stroke="black" cx="1051" cy="-1230.54" rx="152.075" ry="26"/>
<text text-anchor="middle" x="1051" y="-1226.84" font-family="Times,serif" font-size="14.00">is_structure_homomorphism_identity</text>
</a>
</g>
</g>
<!-- Core_istrunc_is_structure_homomorphism -->
<g id="node23" class="node"><title>Core_istrunc_is_structure_homomorphism</title>
<g id="a_node23"><a xlink:href="Core.html#istrunc_is_structure_homomorphism" xlink:title="istrunc_is_structure_homomorphism">
<ellipse fill="#f070d1" stroke="black" cx="731" cy="-1230.54" rx="141.865" ry="18"/>
<ellipse fill="none" stroke="black" cx="731" cy="-1230.54" rx="145.87" ry="22"/>
<ellipse fill="none" stroke="black" cx="731" cy="-1230.54" rx="149.875" ry="26"/>
<text text-anchor="middle" x="731" y="-1226.84" font-family="Times,serif" font-size="14.00">istrunc_is_structure_homomorphism</text>
</a>
</g>
</g>
<!-- Core_is_structure_homomorphism -->
<g id="node24" class="node"><title>Core_is_structure_homomorphism</title>
<g id="a_node24"><a xlink:href="Core.html#is_structure_homomorphism" xlink:title="is_structure_homomorphism">
<ellipse fill="#f070d1" stroke="black" cx="442" cy="-1230.54" rx="113.174" ry="18"/>
<ellipse fill="none" stroke="black" cx="442" cy="-1230.54" rx="117.177" ry="22"/>
<ellipse fill="none" stroke="black" cx="442" cy="-1230.54" rx="121.18" ry="26"/>
<text text-anchor="middle" x="442" y="-1226.84" font-family="Times,serif" font-size="14.00">is_structure_homomorphism</text>
</a>
</g>
</g>
<!-- Core_structure -->
<g id="node25" class="node"><title>Core_structure</title>
<g id="a_node25"><a xlink:href="Core.html#structure" xlink:title="structure">
<ellipse fill="#f070d1" stroke="black" cx="253" cy="-1230.54" rx="41.6772" ry="18"/>
<ellipse fill="none" stroke="black" cx="253" cy="-1230.54" rx="45.685" ry="22"/>
<ellipse fill="none" stroke="black" cx="253" cy="-1230.54" rx="49.6928" ry="26"/>
<text text-anchor="middle" x="253" y="-1226.84" font-family="Times,serif" font-size="14.00">structure</text>
</a>
</g>
</g>
<!-- Core_NotionOfStructure -->
<g id="node27" class="node"><title>Core_NotionOfStructure</title>
<g id="a_node27"><a xlink:href="Core.html#NotionOfStructure" xlink:title="NotionOfStructure">
<ellipse fill="#e2cdfa" stroke="black" cx="101" cy="-1230.54" rx="76.8685" ry="18"/>
<ellipse fill="none" stroke="black" cx="101" cy="-1230.54" rx="80.8777" ry="22"/>
<ellipse fill="none" stroke="black" cx="101" cy="-1230.54" rx="84.8868" ry="26"/>
<text text-anchor="middle" x="101" y="-1226.84" font-family="Times,serif" font-size="14.00">NotionOfStructure</text>
</a>
</g>
</g>
</g>
</svg>
