<?xml version="1.0" encoding="UTF-8" standalone="no"?>
<!DOCTYPE svg PUBLIC "-//W3C//DTD SVG 1.1//EN"
 "http://www.w3.org/Graphics/SVG/1.1/DTD/svg11.dtd">
<!-- Generated by graphviz version 2.39.20141222.0545 (20141222.0545)
 -->
<!-- Title: HoTT_hit_quotient Pages: 1 -->
<svg width="1104pt" height="556pt"
 viewBox="0.00 0.00 1104.00 556.00" xmlns="http://www.w3.org/2000/svg" xmlns:xlink="http://www.w3.org/1999/xlink">
<g id="graph0" class="graph" transform="scale(1 1) rotate(0) translate(4 552)">
<title>HoTT_hit_quotient</title>
<polygon fill="white" stroke="transparent" points="-4,4 -4,-552 1100,-552 1100,4 -4,4"/>
<g id="clust1" class="cluster"><title>cluster_quotient</title>
<polygon fill="#ffffc3" stroke="black" points="8,-9.65639 8,-538.344 1088,-538.344 1088,-9.65639 8,-9.65639"/>
<text text-anchor="middle" x="38.5" y="-523.144" font-family="Times,serif" font-size="14.00">quotient</text>
</g>
<g id="clust2" class="cluster"><title>cluster_quotient_Quotient</title>
<polygon fill="#ffffa3" stroke="black" points="16,-19.3128 16,-216.062 736,-216.062 736,-19.3128 16,-19.3128"/>
<text text-anchor="middle" x="48" y="-200.862" font-family="Times,serif" font-size="14.00">Quotient</text>
</g>
<!-- quotient_Quotient_quotient_ind_compute_path -->
<g id="node1" class="node"><title>quotient_Quotient_quotient_ind_compute_path</title>
<g id="a_node1"><a xlink:href="quotient.html#Quotient.quotient_ind_compute_path" xlink:title="quotient_ind_compute_path">
<ellipse fill="#facdef" stroke="black" cx="610" cy="-147.656" rx="109.692" ry="18"/>
<ellipse fill="none" stroke="black" cx="610" cy="-147.656" rx="113.686" ry="22"/>
<ellipse fill="none" stroke="black" cx="610" cy="-147.656" rx="117.681" ry="26"/>
<text text-anchor="middle" x="610" y="-143.956" font-family="Times,serif" font-size="14.00">quotient_ind_compute_path</text>
</a>
</g>
</g>
<!-- quotient_Quotient_quotient_ind_compute -->
<g id="node2" class="node"><title>quotient_Quotient_quotient_ind_compute</title>
<g id="a_node2"><a xlink:href="quotient.html#Quotient.quotient_ind_compute" xlink:title="quotient_ind_compute">
<ellipse fill="#f070d1" stroke="black" cx="376" cy="-147.656" rx="90.1971" ry="18"/>
<ellipse fill="none" stroke="black" cx="376" cy="-147.656" rx="94.1906" ry="22"/>
<ellipse fill="none" stroke="black" cx="376" cy="-147.656" rx="98.1842" ry="26"/>
<text text-anchor="middle" x="376" y="-143.956" font-family="Times,serif" font-size="14.00">quotient_ind_compute</text>
</a>
</g>
</g>
<!-- quotient_Quotient_related_classes_eq -->
<g id="node5" class="node"><title>quotient_Quotient_related_classes_eq</title>
<g id="a_node5"><a xlink:href="quotient.html#Quotient.related_classes_eq" xlink:title="related_classes_eq">
<ellipse fill="#facdef" stroke="black" cx="396" cy="-50.6564" rx="76.0865" ry="18"/>
<text text-anchor="middle" x="396" y="-46.9564" font-family="Times,serif" font-size="14.00">related_classes_eq</text>
</a>
</g>
</g>
<!-- quotient_Quotient_quotient_ind_compute&#45;&gt;quotient_Quotient_related_classes_eq -->
<g id="edge1" class="edge"><title>quotient_Quotient_quotient_ind_compute&#45;&gt;quotient_Quotient_related_classes_eq</title>
<path fill="none" stroke="black" d="M381.36,-121.662C384.08,-108.466 387.39,-92.4148 390.174,-78.9136"/>
<polygon fill="black" stroke="black" points="393.681,-79.2369 392.272,-68.7361 386.825,-77.8233 393.681,-79.2369"/>
</g>
<!-- quotient_Quotient_class_of -->
<g id="node6" class="node"><title>quotient_Quotient_class_of</title>
<g id="a_node6"><a xlink:href="quotient.html#Quotient.class_of" xlink:title="class_of">
<ellipse fill="#7faaff" stroke="black" cx="551" cy="-50.6564" rx="39.7935" ry="18"/>
<text text-anchor="middle" x="551" y="-46.9564" font-family="Times,serif" font-size="14.00">class_of</text>
</a>
</g>
</g>
<!-- quotient_Quotient_quotient_ind_compute&#45;&gt;quotient_Quotient_class_of -->
<g id="edge2" class="edge"><title>quotient_Quotient_quotient_ind_compute&#45;&gt;quotient_Quotient_class_of</title>
<path fill="none" stroke="black" d="M418.363,-124.175C448.535,-107.451 488.569,-85.2609 516.734,-69.6497"/>
<polygon fill="black" stroke="black" points="518.749,-72.5343 525.799,-64.6251 515.356,-66.4119 518.749,-72.5343"/>
</g>
<!-- quotient_Quotient_quotient -->
<g id="node7" class="node"><title>quotient_Quotient_quotient</title>
<g id="a_node7"><a xlink:href="quotient.html#Quotient.quotient" xlink:title="quotient">
<ellipse fill="#e2cdfa" stroke="black" cx="688" cy="-50.6564" rx="39.7935" ry="18"/>
<text text-anchor="middle" x="688" y="-46.9564" font-family="Times,serif" font-size="14.00">quotient</text>
</a>
</g>
</g>
<!-- quotient_Quotient_quotient_ind_compute&#45;&gt;quotient_Quotient_quotient -->
<g id="edge3" class="edge"><title>quotient_Quotient_quotient_ind_compute&#45;&gt;quotient_Quotient_quotient</title>
<path fill="none" stroke="black" d="M439.891,-127.793C501.191,-108.735 592.053,-80.4859 645.126,-63.9857"/>
<polygon fill="black" stroke="black" points="646.389,-67.2585 654.899,-60.9474 644.311,-60.5741 646.389,-67.2585"/>
</g>
<!-- quotient_Quotient_quotient_ind -->
<g id="node3" class="node"><title>quotient_Quotient_quotient_ind</title>
<g id="a_node3"><a xlink:href="quotient.html#Quotient.quotient_ind" xlink:title="quotient_ind">
<ellipse fill="#f070d1" stroke="black" cx="79" cy="-147.656" rx="55.4913" ry="18"/>
<text text-anchor="middle" x="79" y="-143.956" font-family="Times,serif" font-size="14.00">quotient_ind</text>
</a>
</g>
</g>
<!-- quotient_Quotient_quotient_ind&#45;&gt;quotient_Quotient_related_classes_eq -->
<g id="edge4" class="edge"><title>quotient_Quotient_quotient_ind&#45;&gt;quotient_Quotient_related_classes_eq</title>
<path fill="none" stroke="black" d="M112.611,-133.176C122.332,-129.214 133.015,-125.074 143,-121.656 206.935,-99.7758 281.585,-79.4457 333.146,-66.1973"/>
<polygon fill="black" stroke="black" points="334.318,-69.5103 343.14,-63.6436 332.585,-62.7282 334.318,-69.5103"/>
</g>
<!-- quotient_Quotient_quotient_ind&#45;&gt;quotient_Quotient_class_of -->
<g id="edge5" class="edge"><title>quotient_Quotient_quotient_ind&#45;&gt;quotient_Quotient_class_of</title>
<path fill="none" stroke="black" d="M111.054,-132.949C121.112,-128.795 132.368,-124.607 143,-121.656 289.52,-80.9937 332.083,-99.404 481,-68.6564 489.479,-66.9056 498.473,-64.791 507.088,-62.6358"/>
<polygon fill="black" stroke="black" points="508.153,-65.9761 516.973,-60.1065 506.418,-59.1945 508.153,-65.9761"/>
</g>
<!-- quotient_Quotient_quotient_ind&#45;&gt;quotient_Quotient_quotient -->
<g id="edge6" class="edge"><title>quotient_Quotient_quotient_ind&#45;&gt;quotient_Quotient_quotient</title>
<path fill="none" stroke="black" d="M110.657,-132.822C120.794,-128.611 132.195,-124.423 143,-121.656 341.082,-70.9363 398.094,-100.952 600,-68.6564 613.743,-66.4581 628.599,-63.6048 642.123,-60.8204"/>
<polygon fill="black" stroke="black" points="643.094,-64.193 652.163,-58.7166 641.658,-57.3418 643.094,-64.193"/>
</g>
<!-- quotient_Quotient_quotient_set -->
<g id="node4" class="node"><title>quotient_Quotient_quotient_set</title>
<g id="a_node4"><a xlink:href="quotient.html#Quotient.quotient_set" xlink:title="quotient_set">
<ellipse fill="#facdef" stroke="black" cx="206" cy="-147.656" rx="53.8905" ry="18"/>
<text text-anchor="middle" x="206" y="-143.956" font-family="Times,serif" font-size="14.00">quotient_set</text>
</a>
</g>
</g>
<!-- quotient_quotient_kernel_factor -->
<g id="node8" class="node"><title>quotient_quotient_kernel_factor</title>
<g id="a_node8"><a xlink:href="quotient.html#quotient_kernel_factor" xlink:title="quotient_kernel_factor">
<ellipse fill="#f070d1" stroke="black" cx="294" cy="-469.656" rx="90.9845" ry="18"/>
<ellipse fill="none" stroke="black" cx="294" cy="-469.656" rx="94.9842" ry="22"/>
<ellipse fill="none" stroke="black" cx="294" cy="-469.656" rx="98.9839" ry="26"/>
<text text-anchor="middle" x="294" y="-465.956" font-family="Times,serif" font-size="14.00">quotient_kernel_factor</text>
</a>
</g>
</g>
<!-- quotient_quotient_kernel_factor&#45;&gt;quotient_Quotient_quotient_set -->
<g id="edge7" class="edge"><title>quotient_quotient_kernel_factor&#45;&gt;quotient_Quotient_quotient_set</title>
<path fill="none" stroke="black" d="M391.421,-464.836C511.23,-455.088 691.312,-425.741 627,-337.656 579.674,-272.837 513.364,-337.747 455,-282.656 436.993,-265.659 454.262,-246.217 435,-230.656 376.909,-183.729 336.392,-236.829 269,-204.656 253.058,-197.046 238.244,-184.081 226.991,-172.437"/>
<polygon fill="black" stroke="black" points="229.502,-169.997 220.135,-165.045 224.37,-174.757 229.502,-169.997"/>
</g>
<!-- quotient_quotient_surjective -->
<g id="node12" class="node"><title>quotient_quotient_surjective</title>
<g id="a_node12"><a xlink:href="quotient.html#quotient_surjective" xlink:title="quotient_surjective">
<ellipse fill="#f070d1" stroke="black" cx="94" cy="-363.656" rx="77.9862" ry="18"/>
<text text-anchor="middle" x="94" y="-359.956" font-family="Times,serif" font-size="14.00">quotient_surjective</text>
</a>
</g>
</g>
<!-- quotient_quotient_kernel_factor&#45;&gt;quotient_quotient_surjective -->
<g id="edge8" class="edge"><title>quotient_quotient_kernel_factor&#45;&gt;quotient_quotient_surjective</title>
<path fill="none" stroke="black" d="M249.614,-446.132C215.111,-427.845 167.657,-402.694 134.25,-384.989"/>
<polygon fill="black" stroke="black" points="135.697,-381.795 125.223,-380.204 132.419,-387.98 135.697,-381.795"/>
</g>
<!-- quotient_quotient_ump -->
<g id="node9" class="node"><title>quotient_quotient_ump</title>
<g id="a_node9"><a xlink:href="quotient.html#quotient_ump" xlink:title="quotient_ump">
<ellipse fill="#f070d1" stroke="black" cx="657" cy="-469.656" rx="59.6142" ry="18"/>
<ellipse fill="none" stroke="black" cx="657" cy="-469.656" rx="63.6021" ry="22"/>
<ellipse fill="none" stroke="black" cx="657" cy="-469.656" rx="67.59" ry="26"/>
<text text-anchor="middle" x="657" y="-465.956" font-family="Times,serif" font-size="14.00">quotient_ump</text>
</a>
</g>
</g>
<!-- quotient_quotient_ump__ -->
<g id="node10" class="node"><title>quotient_quotient_ump__</title>
<g id="a_node10"><a xlink:href="quotient.html#quotient_ump''" xlink:title="quotient_ump&#39;&#39;">
<ellipse fill="#f070d1" stroke="black" cx="253" cy="-363.656" rx="63.0888" ry="18"/>
<text text-anchor="middle" x="253" y="-359.956" font-family="Times,serif" font-size="14.00">quotient_ump&#39;&#39;</text>
</a>
</g>
</g>
<!-- quotient_quotient_ump&#45;&gt;quotient_quotient_ump__ -->
<g id="edge9" class="edge"><title>quotient_quotient_ump&#45;&gt;quotient_quotient_ump__</title>
<path fill="none" stroke="black" d="M597.098,-457.304C530.206,-443.029 418.983,-417.856 325,-389.656 316.949,-387.241 308.481,-384.431 300.293,-381.571"/>
<polygon fill="black" stroke="black" points="301.448,-378.267 290.853,-378.209 299.1,-384.861 301.448,-378.267"/>
</g>
<!-- quotient_quotient_ump_ -->
<g id="node11" class="node"><title>quotient_quotient_ump_</title>
<g id="a_node11"><a xlink:href="quotient.html#quotient_ump'" xlink:title="quotient_ump&#39;">
<ellipse fill="#f070d1" stroke="black" cx="828" cy="-147.656" rx="61.99" ry="18"/>
<text text-anchor="middle" x="828" y="-143.956" font-family="Times,serif" font-size="14.00">quotient_ump&#39;</text>
</a>
</g>
</g>
<!-- quotient_quotient_ump&#45;&gt;quotient_quotient_ump_ -->
<g id="edge10" class="edge"><title>quotient_quotient_ump&#45;&gt;quotient_quotient_ump_</title>
<path fill="none" stroke="black" d="M702.73,-450.206C760.971,-422.608 858.973,-365.997 900,-282.656 910.207,-261.922 908.082,-252.308 900,-230.656 891.4,-207.619 873.205,-186.737 857.259,-171.682"/>
<polygon fill="black" stroke="black" points="859.416,-168.913 849.663,-164.775 854.707,-174.092 859.416,-168.913"/>
</g>
<!-- quotient_quotient_ind_prop_ -->
<g id="node13" class="node"><title>quotient_quotient_ind_prop_</title>
<g id="a_node13"><a xlink:href="quotient.html#quotient_ind_prop'" xlink:title="quotient_ind_prop&#39;">
<ellipse fill="#f070d1" stroke="black" cx="541" cy="-256.656" rx="77.1866" ry="18"/>
<text text-anchor="middle" x="541" y="-252.956" font-family="Times,serif" font-size="14.00">quotient_ind_prop&#39;</text>
</a>
</g>
</g>
<!-- quotient_quotient_ump&#45;&gt;quotient_quotient_ind_prop_ -->
<g id="edge11" class="edge"><title>quotient_quotient_ump&#45;&gt;quotient_quotient_ind_prop_</title>
<path fill="none" stroke="black" d="M659.658,-443.599C661.285,-415.636 660.267,-370.778 642,-337.656 628.262,-312.746 603.421,-292.669 581.814,-278.734"/>
<polygon fill="black" stroke="black" points="583.447,-275.628 573.105,-273.327 579.755,-281.575 583.447,-275.628"/>
</g>
<!-- quotient_quotient_rec -->
<g id="node15" class="node"><title>quotient_quotient_rec</title>
<g id="a_node15"><a xlink:href="quotient.html#quotient_rec" xlink:title="quotient_rec">
<ellipse fill="#f070d1" stroke="black" cx="239" cy="-256.656" rx="54.6905" ry="18"/>
<text text-anchor="middle" x="239" y="-252.956" font-family="Times,serif" font-size="14.00">quotient_rec</text>
</a>
</g>
</g>
<!-- quotient_quotient_ump__&#45;&gt;quotient_quotient_rec -->
<g id="edge12" class="edge"><title>quotient_quotient_ump__&#45;&gt;quotient_quotient_rec</title>
<path fill="none" stroke="black" d="M250.625,-345.505C248.453,-328.904 245.205,-304.082 242.694,-284.891"/>
<polygon fill="black" stroke="black" points="246.154,-284.358 241.387,-274.897 239.214,-285.266 246.154,-284.358"/>
</g>
<!-- quotient_quotient_ump_&#45;&gt;quotient_Quotient_related_classes_eq -->
<g id="edge13" class="edge"><title>quotient_quotient_ump_&#45;&gt;quotient_Quotient_related_classes_eq</title>
<path fill="none" stroke="black" d="M789.643,-133.427C777.687,-129.292 764.388,-124.995 752,-121.656 699.119,-107.405 553.953,-79.7792 466.183,-63.5077"/>
<polygon fill="black" stroke="black" points="466.769,-60.0568 456.299,-61.6784 465.495,-66.9399 466.769,-60.0568"/>
</g>
<!-- quotient_quotient_ump_&#45;&gt;quotient_Quotient_class_of -->
<g id="edge14" class="edge"><title>quotient_quotient_ump_&#45;&gt;quotient_Quotient_class_of</title>
<path fill="none" stroke="black" d="M788.313,-133.759C736.173,-115.5 645.049,-83.5905 592.178,-65.0762"/>
<polygon fill="black" stroke="black" points="593.048,-61.6724 582.453,-61.6707 590.734,-68.2791 593.048,-61.6724"/>
</g>
<!-- quotient_quotient_ump_&#45;&gt;quotient_Quotient_quotient -->
<g id="edge15" class="edge"><title>quotient_quotient_ump_&#45;&gt;quotient_Quotient_quotient</title>
<path fill="none" stroke="black" d="M803.933,-130.981C780.192,-114.532 743.83,-89.3389 718.17,-71.5602"/>
<polygon fill="black" stroke="black" points="720.125,-68.6567 709.912,-65.8385 716.139,-74.4106 720.125,-68.6567"/>
</g>
<!-- quotient_quotient_ind_prop -->
<g id="node19" class="node"><title>quotient_quotient_ind_prop</title>
<g id="a_node19"><a xlink:href="quotient.html#quotient_ind_prop" xlink:title="quotient_ind_prop">
<ellipse fill="#f070d1" stroke="black" cx="91" cy="-256.656" rx="75.2868" ry="18"/>
<text text-anchor="middle" x="91" y="-252.956" font-family="Times,serif" font-size="14.00">quotient_ind_prop</text>
</a>
</g>
</g>
<!-- quotient_quotient_surjective&#45;&gt;quotient_quotient_ind_prop -->
<g id="edge16" class="edge"><title>quotient_quotient_surjective&#45;&gt;quotient_quotient_ind_prop</title>
<path fill="none" stroke="black" d="M93.4911,-345.505C93.0278,-328.981 92.3361,-304.312 91.7991,-285.158"/>
<polygon fill="black" stroke="black" points="95.2904,-284.794 91.5114,-274.897 88.2931,-284.991 95.2904,-284.794"/>
</g>
<!-- quotient_quotient_ind_prop_&#45;&gt;quotient_Quotient_quotient_ind -->
<g id="edge17" class="edge"><title>quotient_quotient_ind_prop_&#45;&gt;quotient_Quotient_quotient_ind</title>
<path fill="none" stroke="black" d="M491.176,-242.784C473.55,-238.317 453.505,-233.731 435,-230.656 306.471,-209.298 262.586,-256.378 143,-204.656 126.532,-197.534 111.378,-184.474 99.9542,-172.651"/>
<polygon fill="black" stroke="black" points="102.366,-170.105 93.0092,-165.135 97.2251,-174.855 102.366,-170.105"/>
</g>
<!-- quotient_quotient_rec2 -->
<g id="node14" class="node"><title>quotient_quotient_rec2</title>
<g id="a_node14"><a xlink:href="quotient.html#quotient_rec2" xlink:title="quotient_rec2">
<ellipse fill="#f070d1" stroke="black" cx="401" cy="-363.656" rx="59.2725" ry="18"/>
<ellipse fill="none" stroke="black" cx="401" cy="-363.656" rx="63.2812" ry="22"/>
<ellipse fill="none" stroke="black" cx="401" cy="-363.656" rx="67.2898" ry="26"/>
<text text-anchor="middle" x="401" y="-359.956" font-family="Times,serif" font-size="14.00">quotient_rec2</text>
</a>
</g>
</g>
<!-- quotient_quotient_rec2&#45;&gt;quotient_quotient_rec -->
<g id="edge18" class="edge"><title>quotient_quotient_rec2&#45;&gt;quotient_quotient_rec</title>
<path fill="none" stroke="black" d="M367.039,-341.226C339.077,-322.757 299.669,-296.728 271.979,-278.439"/>
<polygon fill="black" stroke="black" points="273.703,-275.383 263.43,-272.792 269.845,-281.224 273.703,-275.383"/>
</g>
<!-- quotient_quotient_rec&#45;&gt;quotient_Quotient_quotient_ind -->
<g id="edge19" class="edge"><title>quotient_quotient_rec&#45;&gt;quotient_Quotient_quotient_ind</title>
<path fill="none" stroke="black" d="M207.224,-241.774C187.985,-232.204 163.324,-218.922 143,-204.656 129.147,-194.933 114.969,-182.596 103.49,-171.889"/>
<polygon fill="black" stroke="black" points="105.673,-169.136 96.0112,-164.789 100.853,-174.212 105.673,-169.136"/>
</g>
<!-- quotient_sets_exact -->
<g id="node16" class="node"><title>quotient_sets_exact</title>
<g id="a_node16"><a xlink:href="quotient.html#sets_exact" xlink:title="sets_exact">
<ellipse fill="#f070d1" stroke="black" cx="836" cy="-256.656" rx="46.6221" ry="18"/>
<ellipse fill="none" stroke="black" cx="836" cy="-256.656" rx="50.6073" ry="22"/>
<ellipse fill="none" stroke="black" cx="836" cy="-256.656" rx="54.5925" ry="26"/>
<text text-anchor="middle" x="836" y="-252.956" font-family="Times,serif" font-size="14.00">sets_exact</text>
</a>
</g>
</g>
<!-- quotient_sets_exact&#45;&gt;quotient_Quotient_quotient_set -->
<g id="edge20" class="edge"><title>quotient_sets_exact&#45;&gt;quotient_Quotient_quotient_set</title>
<path fill="none" stroke="black" d="M797.013,-238.176C789.213,-235.165 780.965,-232.45 773,-230.656 663.59,-206.021 372.578,-247.656 269,-204.656 252.573,-197.837 237.643,-184.795 226.445,-172.906"/>
<polygon fill="black" stroke="black" points="228.933,-170.437 219.647,-165.336 223.725,-175.115 228.933,-170.437"/>
</g>
<!-- quotient_sets_exact&#45;&gt;quotient_Quotient_related_classes_eq -->
<g id="edge21" class="edge"><title>quotient_sets_exact&#45;&gt;quotient_Quotient_related_classes_eq</title>
<path fill="none" stroke="black" d="M796.315,-238.447C781.984,-230.045 766.913,-218.762 757,-204.656 735.183,-173.611 764.246,-148.066 737,-121.656 727.263,-112.218 563.708,-81.1401 466.703,-63.3872"/>
<polygon fill="black" stroke="black" points="467.131,-59.9074 456.664,-61.554 465.873,-66.7935 467.131,-59.9074"/>
</g>
<!-- quotient_classes_eq_related -->
<g id="node17" class="node"><title>quotient_classes_eq_related</title>
<g id="a_node17"><a xlink:href="quotient.html#classes_eq_related" xlink:title="classes_eq_related">
<ellipse fill="#f070d1" stroke="black" cx="1004" cy="-147.656" rx="76.0865" ry="18"/>
<text text-anchor="middle" x="1004" y="-143.956" font-family="Times,serif" font-size="14.00">classes_eq_related</text>
</a>
</g>
</g>
<!-- quotient_sets_exact&#45;&gt;quotient_classes_eq_related -->
<g id="edge22" class="edge"><title>quotient_sets_exact&#45;&gt;quotient_classes_eq_related</title>
<path fill="none" stroke="black" d="M868.392,-235.64C897.253,-216.915 939.385,-189.579 969.009,-170.359"/>
<polygon fill="black" stroke="black" points="971.289,-173.052 977.773,-164.673 967.479,-167.179 971.289,-173.052"/>
</g>
<!-- quotient_classes_eq_related&#45;&gt;quotient_Quotient_class_of -->
<g id="edge23" class="edge"><title>quotient_classes_eq_related&#45;&gt;quotient_Quotient_class_of</title>
<path fill="none" stroke="black" d="M952.297,-134.4C935.35,-130.176 916.403,-125.583 899,-121.656 783.96,-95.6999 754.548,-92.2507 639,-68.6564 625.485,-65.8968 610.804,-62.8952 597.376,-60.1484"/>
<polygon fill="black" stroke="black" points="597.89,-56.6812 587.391,-58.1058 596.487,-63.5392 597.89,-56.6812"/>
</g>
<!-- quotient_classes_eq_related&#45;&gt;quotient_Quotient_quotient -->
<g id="edge24" class="edge"><title>quotient_classes_eq_related&#45;&gt;quotient_Quotient_quotient</title>
<path fill="none" stroke="black" d="M955.631,-133.678C878.918,-111.499 737.405,-70.541 732,-68.6564 730.339,-68.0773 728.65,-67.4698 726.948,-66.8428"/>
<polygon fill="black" stroke="black" points="727.773,-63.4107 717.183,-63.0979 725.267,-69.9466 727.773,-63.4107"/>
</g>
<!-- quotient_in_class_pr -->
<g id="node20" class="node"><title>quotient_in_class_pr</title>
<g id="a_node20"><a xlink:href="quotient.html#in_class_pr" xlink:title="in_class_pr">
<ellipse fill="#f070d1" stroke="black" cx="1004" cy="-50.6564" rx="50.8918" ry="18"/>
<text text-anchor="middle" x="1004" y="-46.9564" font-family="Times,serif" font-size="14.00">in_class_pr</text>
</a>
</g>
</g>
<!-- quotient_classes_eq_related&#45;&gt;quotient_in_class_pr -->
<g id="edge25" class="edge"><title>quotient_classes_eq_related&#45;&gt;quotient_in_class_pr</title>
<path fill="none" stroke="black" d="M1004,-129.411C1004,-115.186 1004,-95.1774 1004,-78.8885"/>
<polygon fill="black" stroke="black" points="1007.5,-78.8195 1004,-68.8195 1000.5,-78.8196 1007.5,-78.8195"/>
</g>
<!-- quotient_class_of_repr -->
<g id="node18" class="node"><title>quotient_class_of_repr</title>
<g id="a_node18"><a xlink:href="quotient.html#class_of_repr" xlink:title="class_of_repr">
<ellipse fill="#f070d1" stroke="black" cx="552" cy="-363.656" rx="57.7089" ry="18"/>
<ellipse fill="none" stroke="black" cx="552" cy="-363.656" rx="61.6995" ry="22"/>
<ellipse fill="none" stroke="black" cx="552" cy="-363.656" rx="65.6901" ry="26"/>
<text text-anchor="middle" x="552" y="-359.956" font-family="Times,serif" font-size="14.00">class_of_repr</text>
</a>
</g>
</g>
<!-- quotient_class_of_repr&#45;&gt;quotient_Quotient_quotient_ind -->
<g id="edge26" class="edge"><title>quotient_class_of_repr&#45;&gt;quotient_Quotient_quotient_ind</title>
<path fill="none" stroke="black" d="M502.489,-346.429C435.666,-323.139 324.688,-284.299 323,-282.656 305.254,-265.387 322.217,-246.272 303,-230.656 247.088,-185.224 208.048,-235.626 143,-204.656 127.021,-197.049 112.074,-184.205 100.65,-172.634"/>
<polygon fill="black" stroke="black" points="103.097,-170.128 93.6759,-165.281 98.0184,-174.945 103.097,-170.128"/>
</g>
<!-- quotient_quotient_path2 -->
<g id="node22" class="node"><title>quotient_quotient_path2</title>
<g id="a_node22"><a xlink:href="quotient.html#quotient_path2" xlink:title="quotient_path2">
<ellipse fill="#f070d1" stroke="black" cx="700" cy="-256.656" rx="63.8893" ry="18"/>
<text text-anchor="middle" x="700" y="-252.956" font-family="Times,serif" font-size="14.00">quotient_path2</text>
</a>
</g>
</g>
<!-- quotient_class_of_repr&#45;&gt;quotient_quotient_path2 -->
<g id="edge27" class="edge"><title>quotient_class_of_repr&#45;&gt;quotient_quotient_path2</title>
<path fill="none" stroke="black" d="M583.75,-340.702C608.67,-322.685 643.205,-297.717 668.151,-279.682"/>
<polygon fill="black" stroke="black" points="670.491,-282.31 676.544,-273.615 666.389,-276.637 670.491,-282.31"/>
</g>
<!-- quotient_quotient_ind_prop&#45;&gt;quotient_Quotient_quotient_ind -->
<g id="edge28" class="edge"><title>quotient_quotient_ind_prop&#45;&gt;quotient_Quotient_quotient_ind</title>
<path fill="none" stroke="black" d="M89.0184,-238.657C87.1338,-221.538 84.2701,-195.526 82.0864,-175.691"/>
<polygon fill="black" stroke="black" points="85.5579,-175.239 80.9845,-165.682 78.5999,-176.005 85.5579,-175.239"/>
</g>
<!-- quotient_in_class -->
<g id="node21" class="node"><title>quotient_in_class</title>
<g id="a_node21"><a xlink:href="quotient.html#in_class" xlink:title="in_class">
<ellipse fill="#f070d1" stroke="black" cx="379" cy="-256.656" rx="38.9937" ry="18"/>
<ellipse fill="none" stroke="black" cx="379" cy="-256.656" rx="42.9934" ry="22"/>
<ellipse fill="none" stroke="black" cx="379" cy="-256.656" rx="46.9931" ry="26"/>
<text text-anchor="middle" x="379" y="-252.956" font-family="Times,serif" font-size="14.00">in_class</text>
</a>
</g>
</g>
<!-- quotient_in_class&#45;&gt;quotient_Quotient_quotient_ind -->
<g id="edge29" class="edge"><title>quotient_in_class&#45;&gt;quotient_Quotient_quotient_ind</title>
<path fill="none" stroke="black" d="M343.1,-239.562C334.985,-236.206 326.309,-233.003 318,-230.656 242.327,-209.289 214.224,-237.974 143,-204.656 126.859,-197.106 111.813,-184.144 100.37,-172.488"/>
<polygon fill="black" stroke="black" points="102.801,-169.964 93.3956,-165.086 97.7062,-174.764 102.801,-169.964"/>
</g>
<!-- quotient_quotient_path2&#45;&gt;quotient_Quotient_quotient_set -->
<g id="edge30" class="edge"><title>quotient_quotient_path2&#45;&gt;quotient_Quotient_quotient_set</title>
<path fill="none" stroke="black" d="M664.166,-241.726C652.505,-237.457 639.375,-233.26 627,-230.656 548.943,-214.237 342.345,-236.01 269,-204.656 252.645,-197.665 237.72,-184.613 226.506,-172.761"/>
<polygon fill="black" stroke="black" points="228.996,-170.296 219.695,-165.222 223.801,-174.989 228.996,-170.296"/>
</g>
<!-- quotient_quotient_path2&#45;&gt;quotient_Quotient_quotient -->
<g id="edge31" class="edge"><title>quotient_quotient_path2&#45;&gt;quotient_Quotient_quotient</title>
<path fill="none" stroke="black" d="M737.408,-241.988C748.442,-237.978 760.614,-233.86 772,-230.656 827.462,-215.054 862.574,-249.295 899,-204.656 922.322,-176.076 920.785,-151.426 899,-121.656 853.013,-58.815 805.208,-95.1981 732,-68.6564 730.346,-68.0568 728.663,-67.4324 726.967,-66.7913"/>
<polygon fill="black" stroke="black" points="727.808,-63.363 717.22,-62.9956 725.268,-69.8859 727.808,-63.363"/>
</g>
</g>
</svg>
