<?xml version="1.0" encoding="UTF-8" standalone="no"?>
<!DOCTYPE svg PUBLIC "-//W3C//DTD SVG 1.1//EN"
 "http://www.w3.org/Graphics/SVG/1.1/DTD/svg11.dtd">
<!-- Generated by graphviz version 2.39.20141222.0545 (20141222.0545)
 -->
<!-- Title: HoTT_Spaces_Nat Pages: 1 -->
<svg width="929pt" height="469pt"
 viewBox="0.00 0.00 929.00 468.50" xmlns="http://www.w3.org/2000/svg" xmlns:xlink="http://www.w3.org/1999/xlink">
<g id="graph0" class="graph" transform="scale(1 1) rotate(0) translate(4 464.5)">
<title>HoTT_Spaces_Nat</title>
<polygon fill="white" stroke="transparent" points="-4,4 -4,-464.5 925,-464.5 925,4 -4,4"/>
<g id="clust1" class="cluster"><title>cluster_Nat</title>
<polygon fill="#ffffc3" stroke="black" points="8,-20.581 8,-439.919 913,-439.919 913,-20.581 8,-20.581"/>
<text text-anchor="middle" x="26" y="-424.719" font-family="Times,serif" font-size="14.00">Nat</text>
</g>
<!-- Nat_leq_antisym -->
<g id="node1" class="node"><title>Nat_leq_antisym</title>
<g id="a_node1"><a xlink:href="Nat.html#leq_antisym" xlink:title="leq_antisym">
<ellipse fill="#f070d1" stroke="black" cx="723" cy="-293.581" rx="53.8975" ry="18"/>
<ellipse fill="none" stroke="black" cx="723" cy="-293.581" rx="57.894" ry="22"/>
<ellipse fill="none" stroke="black" cx="723" cy="-293.581" rx="61.8905" ry="26"/>
<text text-anchor="middle" x="723" y="-289.881" font-family="Times,serif" font-size="14.00">leq_antisym</text>
</a>
</g>
</g>
<!-- Nat_leq_antisymb -->
<g id="node2" class="node"><title>Nat_leq_antisymb</title>
<g id="a_node2"><a xlink:href="Nat.html#leq_antisymb" xlink:title="leq_antisymb">
<ellipse fill="#f070d1" stroke="black" cx="723" cy="-87.581" rx="58.4896" ry="18"/>
<text text-anchor="middle" x="723" y="-83.881" font-family="Times,serif" font-size="14.00">leq_antisymb</text>
</a>
</g>
</g>
<!-- Nat_leq_antisym&#45;&gt;Nat_leq_antisymb -->
<g id="edge1" class="edge"><title>Nat_leq_antisym&#45;&gt;Nat_leq_antisymb</title>
<path fill="none" stroke="black" d="M723,-267.491C723,-228.615 723,-155.779 723,-115.738"/>
<polygon fill="black" stroke="black" points="726.5,-115.603 723,-105.603 719.5,-115.603 726.5,-115.603"/>
</g>
<!-- Nat_path_nat -->
<g id="node11" class="node"><title>Nat_path_nat</title>
<g id="a_node11"><a xlink:href="Nat.html#path_nat" xlink:title="path_nat">
<ellipse fill="#f070d1" stroke="black" cx="582" cy="-87.581" rx="40.8928" ry="18"/>
<text text-anchor="middle" x="582" y="-83.881" font-family="Times,serif" font-size="14.00">path_nat</text>
</a>
</g>
</g>
<!-- Nat_leq_antisym&#45;&gt;Nat_path_nat -->
<g id="edge2" class="edge"><title>Nat_leq_antisym&#45;&gt;Nat_path_nat</title>
<path fill="none" stroke="black" d="M705.711,-268.321C678.706,-228.868 626.798,-153.031 599.602,-113.298"/>
<polygon fill="black" stroke="black" points="602.414,-111.209 593.877,-104.934 596.637,-115.163 602.414,-111.209"/>
</g>
<!-- Nat_leq_trans -->
<g id="node3" class="node"><title>Nat_leq_trans</title>
<g id="a_node3"><a xlink:href="Nat.html#leq_trans" xlink:title="leq_trans">
<ellipse fill="#f070d1" stroke="black" cx="854" cy="-293.581" rx="42.8089" ry="18"/>
<ellipse fill="none" stroke="black" cx="854" cy="-293.581" rx="46.8007" ry="22"/>
<ellipse fill="none" stroke="black" cx="854" cy="-293.581" rx="50.7926" ry="26"/>
<text text-anchor="middle" x="854" y="-289.881" font-family="Times,serif" font-size="14.00">leq_trans</text>
</a>
</g>
</g>
<!-- Nat_leq_transb -->
<g id="node5" class="node"><title>Nat_leq_transb</title>
<g id="a_node5"><a xlink:href="Nat.html#leq_transb" xlink:title="leq_transb">
<ellipse fill="#f070d1" stroke="black" cx="854" cy="-87.581" rx="47.3916" ry="18"/>
<text text-anchor="middle" x="854" y="-83.881" font-family="Times,serif" font-size="14.00">leq_transb</text>
</a>
</g>
</g>
<!-- Nat_leq_trans&#45;&gt;Nat_leq_transb -->
<g id="edge3" class="edge"><title>Nat_leq_trans&#45;&gt;Nat_leq_transb</title>
<path fill="none" stroke="black" d="M854,-267.491C854,-228.615 854,-155.779 854,-115.738"/>
<polygon fill="black" stroke="black" points="857.5,-115.603 854,-105.603 850.5,-115.603 857.5,-115.603"/>
</g>
<!-- Nat_implb_impl_ -->
<g id="node4" class="node"><title>Nat_implb_impl_</title>
<g id="a_node4"><a xlink:href="Nat.html#implb_impl'" xlink:title="implb_impl&#39;">
<ellipse fill="#f070d1" stroke="black" cx="581" cy="-293.581" rx="53.8975" ry="18"/>
<ellipse fill="none" stroke="black" cx="581" cy="-293.581" rx="57.894" ry="22"/>
<ellipse fill="none" stroke="black" cx="581" cy="-293.581" rx="61.8905" ry="26"/>
<text text-anchor="middle" x="581" y="-289.881" font-family="Times,serif" font-size="14.00">implb_impl&#39;</text>
</a>
</g>
</g>
<!-- Nat_leq_refl -->
<g id="node6" class="node"><title>Nat_leq_refl</title>
<g id="a_node6"><a xlink:href="Nat.html#leq_refl" xlink:title="leq_refl">
<ellipse fill="#f070d1" stroke="black" cx="195" cy="-293.581" rx="38.2201" ry="18"/>
<ellipse fill="none" stroke="black" cx="195" cy="-293.581" rx="42.2069" ry="22"/>
<ellipse fill="none" stroke="black" cx="195" cy="-293.581" rx="46.1937" ry="26"/>
<text text-anchor="middle" x="195" y="-289.881" font-family="Times,serif" font-size="14.00">leq_refl</text>
</a>
</g>
</g>
<!-- Nat_subnn -->
<g id="node7" class="node"><title>Nat_subnn</title>
<g id="a_node7"><a xlink:href="Nat.html#subnn" xlink:title="subnn">
<ellipse fill="#f070d1" stroke="black" cx="195" cy="-87.581" rx="31.6951" ry="18"/>
<text text-anchor="middle" x="195" y="-83.881" font-family="Times,serif" font-size="14.00">subnn</text>
</a>
</g>
</g>
<!-- Nat_leq_refl&#45;&gt;Nat_subnn -->
<g id="edge4" class="edge"><title>Nat_leq_refl&#45;&gt;Nat_subnn</title>
<path fill="none" stroke="black" d="M195,-267.491C195,-228.615 195,-155.779 195,-115.738"/>
<polygon fill="black" stroke="black" points="198.5,-115.603 195,-105.603 191.5,-115.603 198.5,-115.603"/>
</g>
<!-- Nat_leq0n -->
<g id="node8" class="node"><title>Nat_leq0n</title>
<g id="a_node8"><a xlink:href="Nat.html#leq0n" xlink:title="leq0n">
<ellipse fill="#f070d1" stroke="black" cx="298" cy="-293.581" rx="30.5848" ry="18"/>
<ellipse fill="none" stroke="black" cx="298" cy="-293.581" rx="34.5897" ry="22"/>
<ellipse fill="none" stroke="black" cx="298" cy="-293.581" rx="38.5946" ry="26"/>
<text text-anchor="middle" x="298" y="-289.881" font-family="Times,serif" font-size="14.00">leq0n</text>
</a>
</g>
</g>
<!-- Nat_equiv_path_nat -->
<g id="node9" class="node"><title>Nat_equiv_path_nat</title>
<g id="a_node9"><a xlink:href="Nat.html#equiv_path_nat" xlink:title="equiv_path_nat">
<ellipse fill="#f070d1" stroke="black" cx="428" cy="-293.581" rx="64.9891" ry="18"/>
<ellipse fill="none" stroke="black" cx="428" cy="-293.581" rx="68.9888" ry="22"/>
<ellipse fill="none" stroke="black" cx="428" cy="-293.581" rx="72.9885" ry="26"/>
<text text-anchor="middle" x="428" y="-289.881" font-family="Times,serif" font-size="14.00">equiv_path_nat</text>
</a>
</g>
</g>
<!-- Nat_isequiv_path_nat -->
<g id="node10" class="node"><title>Nat_isequiv_path_nat</title>
<g id="a_node10"><a xlink:href="Nat.html#isequiv_path_nat" xlink:title="isequiv_path_nat">
<ellipse fill="#f070d1" stroke="black" cx="428" cy="-87.581" rx="70.6878" ry="18"/>
<text text-anchor="middle" x="428" y="-83.881" font-family="Times,serif" font-size="14.00">isequiv_path_nat</text>
</a>
</g>
</g>
<!-- Nat_equiv_path_nat&#45;&gt;Nat_isequiv_path_nat -->
<g id="edge5" class="edge"><title>Nat_equiv_path_nat&#45;&gt;Nat_isequiv_path_nat</title>
<path fill="none" stroke="black" d="M428,-267.491C428,-228.615 428,-155.779 428,-115.738"/>
<polygon fill="black" stroke="black" points="431.5,-115.603 428,-105.603 424.5,-115.603 431.5,-115.603"/>
</g>
<!-- Nat_equiv_path_nat&#45;&gt;Nat_path_nat -->
<g id="edge6" class="edge"><title>Nat_equiv_path_nat&#45;&gt;Nat_path_nat</title>
<path fill="none" stroke="black" d="M446.883,-268.321C476.378,-228.868 533.072,-153.031 562.775,-113.298"/>
<polygon fill="black" stroke="black" points="565.843,-115.039 569.028,-104.934 560.237,-110.847 565.843,-115.039"/>
</g>
<!-- Nat_idcode_nat -->
<g id="node12" class="node"><title>Nat_idcode_nat</title>
<g id="a_node12"><a xlink:href="Nat.html#idcode_nat" xlink:title="idcode_nat">
<ellipse fill="#f070d1" stroke="black" cx="73" cy="-293.581" rx="49.3059" ry="18"/>
<ellipse fill="none" stroke="black" cx="73" cy="-293.581" rx="53.2987" ry="22"/>
<ellipse fill="none" stroke="black" cx="73" cy="-293.581" rx="57.2914" ry="26"/>
<text text-anchor="middle" x="73" y="-289.881" font-family="Times,serif" font-size="14.00">idcode_nat</text>
</a>
</g>
</g>
</g>
</svg>
