<?xml version="1.0" encoding="UTF-8" standalone="no"?>
<!DOCTYPE svg PUBLIC "-//W3C//DTD SVG 1.1//EN"
 "http://www.w3.org/Graphics/SVG/1.1/DTD/svg11.dtd">
<!-- Generated by graphviz version 2.39.20141222.0545 (20141222.0545)
 -->
<!-- Title: HoTT_Types_Equiv Pages: 1 -->
<svg width="937pt" height="473pt"
 viewBox="0.00 0.00 937.00 472.50" xmlns="http://www.w3.org/2000/svg" xmlns:xlink="http://www.w3.org/1999/xlink">
<g id="graph0" class="graph" transform="scale(1 1) rotate(0) translate(4 468.5)">
<title>HoTT_Types_Equiv</title>
<polygon fill="white" stroke="transparent" points="-4,4 -4,-468.5 933,-468.5 933,4 -4,4"/>
<g id="clust1" class="cluster"><title>cluster_Equiv</title>
<polygon fill="#ffffc3" stroke="black" points="8,-13.9176 8,-450.582 921,-450.582 921,-13.9176 8,-13.9176"/>
<text text-anchor="middle" x="32.5" y="-435.382" font-family="Times,serif" font-size="14.00">Equiv</text>
</g>
<!-- Equiv_equiv_functor_equiv -->
<g id="node1" class="node"><title>Equiv_equiv_functor_equiv</title>
<g id="a_node1"><a xlink:href="Equiv.html#equiv_functor_equiv" xlink:title="equiv_functor_equiv">
<ellipse fill="#f070d1" stroke="black" cx="821" cy="-351.918" rx="83.6991" ry="18"/>
<ellipse fill="none" stroke="black" cx="821" cy="-351.918" rx="87.6922" ry="22"/>
<ellipse fill="none" stroke="black" cx="821" cy="-351.918" rx="91.6854" ry="26"/>
<text text-anchor="middle" x="821" y="-348.218" font-family="Times,serif" font-size="14.00">equiv_functor_equiv</text>
</a>
</g>
</g>
<!-- Equiv_isequiv_functor_equiv -->
<g id="node2" class="node"><title>Equiv_isequiv_functor_equiv</title>
<g id="a_node2"><a xlink:href="Equiv.html#isequiv_functor_equiv" xlink:title="isequiv_functor_equiv">
<ellipse fill="#f070d1" stroke="black" cx="823" cy="-197.918" rx="89.8845" ry="18"/>
<text text-anchor="middle" x="823" y="-194.218" font-family="Times,serif" font-size="14.00">isequiv_functor_equiv</text>
</a>
</g>
</g>
<!-- Equiv_equiv_functor_equiv&#45;&gt;Equiv_isequiv_functor_equiv -->
<g id="edge1" class="edge"><title>Equiv_equiv_functor_equiv&#45;&gt;Equiv_isequiv_functor_equiv</title>
<path fill="none" stroke="black" d="M821.339,-325.794C821.699,-298.096 822.265,-254.501 822.635,-226.059"/>
<polygon fill="black" stroke="black" points="826.135,-226.01 822.766,-215.965 819.136,-225.919 826.135,-226.01"/>
</g>
<!-- Equiv_functor_equiv -->
<g id="node3" class="node"><title>Equiv_functor_equiv</title>
<g id="a_node3"><a xlink:href="Equiv.html#functor_equiv" xlink:title="functor_equiv">
<ellipse fill="#f070d1" stroke="black" cx="823" cy="-58.9176" rx="59.5901" ry="18"/>
<text text-anchor="middle" x="823" y="-55.2176" font-family="Times,serif" font-size="14.00">functor_equiv</text>
</a>
</g>
</g>
<!-- Equiv_isequiv_functor_equiv&#45;&gt;Equiv_functor_equiv -->
<g id="edge2" class="edge"><title>Equiv_isequiv_functor_equiv&#45;&gt;Equiv_functor_equiv</title>
<path fill="none" stroke="black" d="M823,-179.746C823,-156.228 823,-114.995 823,-87.3234"/>
<polygon fill="black" stroke="black" points="826.5,-87.0939 823,-77.0939 819.5,-87.0939 826.5,-87.0939"/>
</g>
<!-- Equiv_path_equiv -->
<g id="node8" class="node"><title>Equiv_path_equiv</title>
<g id="a_node8"><a xlink:href="Equiv.html#path_equiv" xlink:title="path_equiv">
<ellipse fill="#f070d1" stroke="black" cx="638" cy="-58.9176" rx="50.0912" ry="18"/>
<text text-anchor="middle" x="638" y="-55.2176" font-family="Times,serif" font-size="14.00">path_equiv</text>
</a>
</g>
</g>
<!-- Equiv_isequiv_functor_equiv&#45;&gt;Equiv_path_equiv -->
<g id="edge3" class="edge"><title>Equiv_isequiv_functor_equiv&#45;&gt;Equiv_path_equiv</title>
<path fill="none" stroke="black" d="M799.57,-180.313C766.175,-155.222 704.876,-109.165 668.139,-81.5627"/>
<polygon fill="black" stroke="black" points="669.902,-78.5091 659.804,-75.3003 665.697,-84.1054 669.902,-78.5091"/>
</g>
<!-- Equiv_contr_aut_hprop -->
<g id="node4" class="node"><title>Equiv_contr_aut_hprop</title>
<g id="a_node4"><a xlink:href="Equiv.html#contr_aut_hprop" xlink:title="contr_aut_hprop">
<ellipse fill="#f070d1" stroke="black" cx="638" cy="-197.918" rx="68.7989" ry="18"/>
<ellipse fill="none" stroke="black" cx="638" cy="-197.918" rx="72.7934" ry="22"/>
<ellipse fill="none" stroke="black" cx="638" cy="-197.918" rx="76.7879" ry="26"/>
<text text-anchor="middle" x="638" y="-194.218" font-family="Times,serif" font-size="14.00">contr_aut_hprop</text>
</a>
</g>
</g>
<!-- Equiv_contr_aut_hprop&#45;&gt;Equiv_path_equiv -->
<g id="edge4" class="edge"><title>Equiv_contr_aut_hprop&#45;&gt;Equiv_path_equiv</title>
<path fill="none" stroke="black" d="M638,-171.773C638,-147.659 638,-111.952 638,-87.1855"/>
<polygon fill="black" stroke="black" points="641.5,-86.9825 638,-76.9825 634.5,-86.9825 641.5,-86.9825"/>
</g>
<!-- Equiv_contr_equiv_contr_contr -->
<g id="node5" class="node"><title>Equiv_contr_equiv_contr_contr</title>
<g id="a_node5"><a xlink:href="Equiv.html#contr_equiv_contr_contr" xlink:title="contr_equiv_contr_contr">
<ellipse fill="#f070d1" stroke="black" cx="438" cy="-197.918" rx="97.4834" ry="18"/>
<ellipse fill="none" stroke="black" cx="438" cy="-197.918" rx="101.483" ry="22"/>
<ellipse fill="none" stroke="black" cx="438" cy="-197.918" rx="105.483" ry="26"/>
<text text-anchor="middle" x="438" y="-194.218" font-family="Times,serif" font-size="14.00">contr_equiv_contr_contr</text>
</a>
</g>
</g>
<!-- Equiv_contr_equiv_contr_contr&#45;&gt;Equiv_path_equiv -->
<g id="edge5" class="edge"><title>Equiv_contr_equiv_contr_contr&#45;&gt;Equiv_path_equiv</title>
<path fill="none" stroke="black" d="M473.296,-173.387C511.085,-147.123 570.479,-105.845 606.669,-80.693"/>
<polygon fill="black" stroke="black" points="608.688,-83.552 614.902,-74.9708 604.693,-77.8039 608.688,-83.552"/>
</g>
<!-- Equiv_istrunc_equiv -->
<g id="node6" class="node"><title>Equiv_istrunc_equiv</title>
<g id="a_node6"><a xlink:href="Equiv.html#istrunc_equiv" xlink:title="istrunc_equiv">
<ellipse fill="#f070d1" stroke="black" cx="263" cy="-351.918" rx="58.4902" ry="18"/>
<ellipse fill="none" stroke="black" cx="263" cy="-351.918" rx="62.4899" ry="22"/>
<ellipse fill="none" stroke="black" cx="263" cy="-351.918" rx="66.4896" ry="26"/>
<text text-anchor="middle" x="263" y="-348.218" font-family="Times,serif" font-size="14.00">istrunc_equiv</text>
</a>
</g>
</g>
<!-- Equiv_isequiv_path_equiv -->
<g id="node7" class="node"><title>Equiv_isequiv_path_equiv</title>
<g id="a_node7"><a xlink:href="Equiv.html#isequiv_path_equiv" xlink:title="isequiv_path_equiv">
<ellipse fill="#f070d1" stroke="black" cx="235" cy="-197.918" rx="79.0865" ry="18"/>
<text text-anchor="middle" x="235" y="-194.218" font-family="Times,serif" font-size="14.00">isequiv_path_equiv</text>
</a>
</g>
</g>
<!-- Equiv_istrunc_equiv&#45;&gt;Equiv_isequiv_path_equiv -->
<g id="edge6" class="edge"><title>Equiv_istrunc_equiv&#45;&gt;Equiv_isequiv_path_equiv</title>
<path fill="none" stroke="black" d="M258.25,-325.794C253.214,-298.096 245.288,-254.501 240.117,-226.059"/>
<polygon fill="black" stroke="black" points="243.514,-225.178 238.281,-215.965 236.627,-226.43 243.514,-225.178"/>
</g>
<!-- Equiv_equiv_path_equiv -->
<g id="node9" class="node"><title>Equiv_equiv_path_equiv</title>
<g id="a_node9"><a xlink:href="Equiv.html#equiv_path_equiv" xlink:title="equiv_path_equiv">
<ellipse fill="#f070d1" stroke="black" cx="97" cy="-351.918" rx="73.3926" ry="18"/>
<ellipse fill="none" stroke="black" cx="97" cy="-351.918" rx="77.3898" ry="22"/>
<ellipse fill="none" stroke="black" cx="97" cy="-351.918" rx="81.387" ry="26"/>
<text text-anchor="middle" x="97" y="-348.218" font-family="Times,serif" font-size="14.00">equiv_path_equiv</text>
</a>
</g>
</g>
<!-- Equiv_hprop_isequiv -->
<g id="node10" class="node"><title>Equiv_hprop_isequiv</title>
<g id="a_node10"><a xlink:href="Equiv.html#hprop_isequiv" xlink:title="hprop_isequiv">
<ellipse fill="#facdef" stroke="black" cx="77" cy="-197.918" rx="61.1893" ry="18"/>
<text text-anchor="middle" x="77" y="-194.218" font-family="Times,serif" font-size="14.00">hprop_isequiv</text>
</a>
</g>
</g>
<!-- Equiv_equiv_path_equiv&#45;&gt;Equiv_hprop_isequiv -->
<g id="edge7" class="edge"><title>Equiv_equiv_path_equiv&#45;&gt;Equiv_hprop_isequiv</title>
<path fill="none" stroke="black" d="M93.6073,-325.794C90.0101,-298.096 84.3485,-254.501 80.6547,-226.059"/>
<polygon fill="black" stroke="black" points="84.1027,-225.431 79.3438,-215.965 77.161,-226.333 84.1027,-225.431"/>
</g>
</g>
</svg>
