<?xml version="1.0" encoding="UTF-8" standalone="no"?>
<!DOCTYPE svg PUBLIC "-//W3C//DTD SVG 1.1//EN"
 "http://www.w3.org/Graphics/SVG/1.1/DTD/svg11.dtd">
<!-- Generated by graphviz version 2.26.3 (20100126.1600)
 -->
<!-- Title: HoTT_Trunc Pages: 1 -->
<svg width="852pt" height="430pt"
 viewBox="0.00 0.00 852.00 430.00" xmlns="http://www.w3.org/2000/svg" xmlns:xlink="http://www.w3.org/1999/xlink">
<g id="graph1" class="graph" transform="scale(1 1) rotate(0) translate(4 426)">
<title>HoTT_Trunc</title>
<polygon fill="white" stroke="white" points="-4,5 -4,-426 849,-426 849,5 -4,5"/>
<g id="graph2" class="cluster"><title>cluster_Trunc</title>
<polygon fill="#ffffc3" stroke="black" points="8,-18.1505 8,-403.849 836,-403.849 836,-18.1505 8,-18.1505"/>
<text text-anchor="middle" x="35" y="-387.249" font-family="Times Roman,serif" font-size="14.00">Trunc</text>
</g>
<!-- Trunc_trunc_equiv_ -->
<g id="node1" class="node"><title>Trunc_trunc_equiv_</title>
<a xlink:href="Trunc.html#trunc_equiv&#39;" xlink:title="trunc_equiv&#39;">
<ellipse fill="#f070d1" stroke="black" cx="749" cy="-265.151" rx="70.9686" ry="18.3848"/>
<ellipse fill="none" stroke="black" cx="749" cy="-265.151" rx="74.9435" ry="22.3848"/>
<ellipse fill="none" stroke="black" cx="749" cy="-265.151" rx="78.9183" ry="26.3848"/>
<text text-anchor="middle" x="749" y="-261.551" font-family="Times Roman,serif" font-size="14.00">trunc_equiv&#39;</text>
</a>
</g>
<!-- Trunc_trunc_equiv -->
<g id="node2" class="node"><title>Trunc_trunc_equiv</title>
<a xlink:href="Trunc.html#trunc_equiv" xlink:title="trunc_equiv">
<ellipse fill="#facdef" stroke="black" cx="759" cy="-79.1505" rx="68.7979" ry="18.3848"/>
<text text-anchor="middle" x="759" y="-75.5505" font-family="Times Roman,serif" font-size="14.00">trunc_equiv</text>
</a>
</g>
<!-- Trunc_trunc_equiv_&#45;&gt;Trunc_trunc_equiv -->
<g id="edge2" class="edge"><title>Trunc_trunc_equiv_&#45;&gt;Trunc_trunc_equiv</title>
<path fill="none" stroke="black" d="M750.433,-238.501C752.293,-203.909 755.526,-143.76 757.444,-108.084"/>
<polygon fill="black" stroke="black" points="760.953,-108.026 757.995,-97.8527 753.963,-107.65 760.953,-108.026"/>
</g>
<!-- Trunc_trunc_leq -->
<g id="node3" class="node"><title>Trunc_trunc_leq</title>
<a xlink:href="Trunc.html#trunc_leq" xlink:title="trunc_leq">
<ellipse fill="#facdef" stroke="black" cx="587" cy="-265.151" rx="56.8384" ry="18.3848"/>
<ellipse fill="none" stroke="black" cx="587" cy="-265.151" rx="60.8079" ry="22.3848"/>
<ellipse fill="none" stroke="black" cx="587" cy="-265.151" rx="64.7774" ry="26.3848"/>
<text text-anchor="middle" x="587" y="-261.551" font-family="Times Roman,serif" font-size="14.00">trunc_leq</text>
</a>
</g>
<!-- Trunc_trunc_succ -->
<g id="node4" class="node"><title>Trunc_trunc_succ</title>
<a xlink:href="Trunc.html#trunc_succ" xlink:title="trunc_succ">
<ellipse fill="#facdef" stroke="black" cx="413" cy="-79.1505" rx="63.1385" ry="18.3848"/>
<text text-anchor="middle" x="413" y="-75.5505" font-family="Times Roman,serif" font-size="14.00">trunc_succ</text>
</a>
</g>
<!-- Trunc_trunc_leq&#45;&gt;Trunc_trunc_succ -->
<g id="edge4" class="edge"><title>Trunc_trunc_leq&#45;&gt;Trunc_trunc_succ</title>
<path fill="none" stroke="black" d="M563.534,-240.066C530.417,-204.666 470.296,-140.398 436.93,-104.731"/>
<polygon fill="black" stroke="black" points="439.23,-102.066 429.842,-97.154 434.118,-106.848 439.23,-102.066"/>
</g>
<!-- Trunc_trunc_index_leq -->
<g id="node6" class="node"><title>Trunc_trunc_index_leq</title>
<a xlink:href="Trunc.html#trunc_index_leq" xlink:title="trunc_index_leq">
<ellipse fill="#f070d1" stroke="black" cx="583" cy="-79.1505" rx="89.0955" ry="18.3848"/>
<text text-anchor="middle" x="583" y="-75.5505" font-family="Times Roman,serif" font-size="14.00">trunc_index_leq</text>
</a>
</g>
<!-- Trunc_trunc_leq&#45;&gt;Trunc_trunc_index_leq -->
<g id="edge6" class="edge"><title>Trunc_trunc_leq&#45;&gt;Trunc_trunc_index_leq</title>
<path fill="none" stroke="black" d="M586.427,-238.501C585.683,-203.909 584.389,-143.76 583.622,-108.084"/>
<polygon fill="black" stroke="black" points="587.116,-107.775 583.402,-97.8527 580.118,-107.926 587.116,-107.775"/>
</g>
<!-- Trunc_contr_trunc_minus_two -->
<g id="node5" class="node"><title>Trunc_contr_trunc_minus_two</title>
<a xlink:href="Trunc.html#contr_trunc_minus_two" xlink:title="contr_trunc_minus_two">
<ellipse fill="#f070d1" stroke="black" cx="369" cy="-265.151" rx="126.81" ry="18.3848"/>
<ellipse fill="none" stroke="black" cx="369" cy="-265.151" rx="130.795" ry="22.3848"/>
<ellipse fill="none" stroke="black" cx="369" cy="-265.151" rx="134.78" ry="26.3848"/>
<text text-anchor="middle" x="369" y="-261.551" font-family="Times Roman,serif" font-size="14.00">contr_trunc_minus_two</text>
</a>
</g>
<!-- Trunc_trunc_index_add -->
<g id="node7" class="node"><title>Trunc_trunc_index_add</title>
<a xlink:href="Trunc.html#trunc_index_add" xlink:title="trunc_index_add">
<ellipse fill="#f070d1" stroke="black" cx="116" cy="-265.151" rx="92.1701" ry="18.3848"/>
<ellipse fill="none" stroke="black" cx="116" cy="-265.151" rx="96.1502" ry="22.3848"/>
<ellipse fill="none" stroke="black" cx="116" cy="-265.151" rx="100.13" ry="26.3848"/>
<text text-anchor="middle" x="116" y="-261.551" font-family="Times Roman,serif" font-size="14.00">trunc_index_add</text>
</a>
</g>
</g>
</svg>
