<?xml version="1.0" encoding="UTF-8" standalone="no"?>
<!DOCTYPE svg PUBLIC "-//W3C//DTD SVG 1.1//EN"
 "http://www.w3.org/Graphics/SVG/1.1/DTD/svg11.dtd">
<!-- Generated by graphviz version 2.26.3 (20100126.1600)
 -->
<!-- Title: HoTT_categories_Structure_Core Pages: 1 -->
<svg width="1948pt" height="978pt"
 viewBox="0.00 0.00 1948.00 978.00" xmlns="http://www.w3.org/2000/svg" xmlns:xlink="http://www.w3.org/1999/xlink">
<g id="graph1" class="graph" transform="scale(1 1) rotate(0) translate(4 974)">
<title>HoTT_categories_Structure_Core</title>
<polygon fill="white" stroke="white" points="-4,5 -4,-974 1945,-974 1945,5 -4,5"/>
<g id="graph2" class="cluster"><title>cluster_Core</title>
<polygon fill="#ffffc3" stroke="black" points="8,-10.9296 8,-959.07 1932,-959.07 1932,-10.9296 8,-10.9296"/>
<text text-anchor="middle" x="32.5" y="-942.47" font-family="Times Roman,serif" font-size="14.00">Core</text>
</g>
<g id="graph3" class="cluster"><title>cluster_Core_PreCategoryOfStructures</title>
<polygon fill="#ffffa3" stroke="black" points="1240,-314.225 1240,-726.817 1618,-726.817 1618,-314.225 1240,-314.225"/>
<text text-anchor="middle" x="1335.5" y="-710.217" font-family="Times Roman,serif" font-size="14.00">PreCategoryOfStructures</text>
</g>
<!-- Core_PreCategoryOfStructures_path_morphism -->
<g id="node1" class="node"><title>Core_PreCategoryOfStructures_path_morphism</title>
<a xlink:href="Core.html#PreCategoryOfStructures.path_morphism" xlink:title="path_morphism">
<ellipse fill="#f070d1" stroke="black" cx="1335" cy="-653.93" rx="86.9741" ry="18.3848"/>
<text text-anchor="middle" x="1335" y="-650.33" font-family="Times Roman,serif" font-size="14.00">path_morphism</text>
</a>
</g>
<!-- Core_PreCategoryOfStructures_f -->
<g id="node4" class="node"><title>Core_PreCategoryOfStructures_f</title>
<a xlink:href="Core.html#PreCategoryOfStructures.f" xlink:title="f">
<ellipse fill="#f070d1" stroke="black" cx="1307" cy="-451.93" rx="27" ry="18.3848"/>
<text text-anchor="middle" x="1307" y="-448.33" font-family="Times Roman,serif" font-size="14.00">f</text>
</a>
</g>
<!-- Core_PreCategoryOfStructures_path_morphism&#45;&gt;Core_PreCategoryOfStructures_f -->
<g id="edge2" class="edge"><title>Core_PreCategoryOfStructures_path_morphism&#45;&gt;Core_PreCategoryOfStructures_f</title>
<path fill="none" stroke="black" d="M1322.55,-635.347C1312.62,-619.324 1299.49,-595.166 1294,-571.93 1286.67,-540.879 1292.66,-504.317 1298.71,-479.783"/>
<polygon fill="black" stroke="black" points="1302.11,-480.617 1301.27,-470.055 1295.34,-478.835 1302.11,-480.617"/>
</g>
<!-- Core_PreCategoryOfStructures_Build_morphism -->
<g id="node5" class="node"><title>Core_PreCategoryOfStructures_Build_morphism</title>
<a xlink:href="Core.html#PreCategoryOfStructures.Build_morphism" xlink:title="Build_morphism">
<ellipse fill="#7faaff" stroke="black" cx="1464" cy="-552.93" rx="89.0955" ry="18.3848"/>
<text text-anchor="middle" x="1464" y="-549.33" font-family="Times Roman,serif" font-size="14.00">Build_morphism</text>
</a>
</g>
<!-- Core_PreCategoryOfStructures_path_morphism&#45;&gt;Core_PreCategoryOfStructures_Build_morphism -->
<g id="edge4" class="edge"><title>Core_PreCategoryOfStructures_path_morphism&#45;&gt;Core_PreCategoryOfStructures_Build_morphism</title>
<path fill="none" stroke="black" d="M1358.06,-635.873C1378.97,-619.5 1409.97,-595.236 1433.03,-577.177"/>
<polygon fill="black" stroke="black" points="1435.42,-579.751 1441.14,-570.83 1431.11,-574.239 1435.42,-579.751"/>
</g>
<!-- Core_istrunc_is_structure_homomorphism -->
<g id="node17" class="node"><title>Core_istrunc_is_structure_homomorphism</title>
<a xlink:href="Core.html#istrunc_is_structure_homomorphism" xlink:title="istrunc_is_structure_homomorphism">
<ellipse fill="#f070d1" stroke="black" cx="770" cy="-552.93" rx="188.09" ry="18.3848"/>
<text text-anchor="middle" x="770" y="-549.33" font-family="Times Roman,serif" font-size="14.00">istrunc_is_structure_homomorphism</text>
</a>
</g>
<!-- Core_PreCategoryOfStructures_path_morphism&#45;&gt;Core_istrunc_is_structure_homomorphism -->
<g id="edge6" class="edge"><title>Core_PreCategoryOfStructures_path_morphism&#45;&gt;Core_istrunc_is_structure_homomorphism</title>
<path fill="none" stroke="black" d="M1273.38,-640.764C1263.56,-638.753 1253.51,-636.745 1244,-634.93 1118.62,-611.003 973.994,-586.417 877.796,-570.488"/>
<polygon fill="black" stroke="black" points="878.205,-567.008 867.767,-568.83 877.063,-573.915 878.205,-567.008"/>
</g>
<!-- Core_PreCategoryOfStructures_issig_morphism -->
<g id="node2" class="node"><title>Core_PreCategoryOfStructures_issig_morphism</title>
<a xlink:href="Core.html#PreCategoryOfStructures.issig_morphism" xlink:title="issig_morphism">
<ellipse fill="#f070d1" stroke="black" cx="1525" cy="-653.93" rx="85.0596" ry="18.3848"/>
<text text-anchor="middle" x="1525" y="-650.33" font-family="Times Roman,serif" font-size="14.00">issig_morphism</text>
</a>
</g>
<!-- Core_PreCategoryOfStructures_h -->
<g id="node3" class="node"><title>Core_PreCategoryOfStructures_h</title>
<a xlink:href="Core.html#PreCategoryOfStructures.h" xlink:title="h">
<ellipse fill="#f070d1" stroke="black" cx="1330" cy="-552.93" rx="27" ry="18.3848"/>
<text text-anchor="middle" x="1330" y="-549.33" font-family="Times Roman,serif" font-size="14.00">h</text>
</a>
</g>
<!-- Core_PreCategoryOfStructures_issig_morphism&#45;&gt;Core_PreCategoryOfStructures_h -->
<g id="edge8" class="edge"><title>Core_PreCategoryOfStructures_issig_morphism&#45;&gt;Core_PreCategoryOfStructures_h</title>
<path fill="none" stroke="black" d="M1491.76,-636.902C1459.56,-620.38 1409.37,-594.557 1366,-571.93 1364.26,-571.022 1362.48,-570.089 1360.68,-569.145"/>
<polygon fill="black" stroke="black" points="1362.16,-565.973 1351.68,-564.417 1358.91,-572.169 1362.16,-565.973"/>
</g>
<!-- Core_PreCategoryOfStructures_issig_morphism&#45;&gt;Core_PreCategoryOfStructures_Build_morphism -->
<g id="edge10" class="edge"><title>Core_PreCategoryOfStructures_issig_morphism&#45;&gt;Core_PreCategoryOfStructures_Build_morphism</title>
<path fill="none" stroke="black" d="M1513.81,-635.405C1504.44,-619.886 1490.93,-597.524 1480.35,-579.999"/>
<polygon fill="black" stroke="black" points="1483.28,-578.088 1475.12,-571.337 1477.29,-581.707 1483.28,-578.088"/>
</g>
<!-- Core_PreCategoryOfStructures_h&#45;&gt;Core_PreCategoryOfStructures_f -->
<g id="edge12" class="edge"><title>Core_PreCategoryOfStructures_h&#45;&gt;Core_PreCategoryOfStructures_f</title>
<path fill="none" stroke="black" d="M1325.78,-534.405C1322.34,-519.313 1317.43,-497.75 1313.5,-480.457"/>
<polygon fill="black" stroke="black" points="1316.82,-479.31 1311.19,-470.337 1310,-480.865 1316.82,-479.31"/>
</g>
<!-- Core_PreCategoryOfStructures_morphism -->
<g id="node6" class="node"><title>Core_PreCategoryOfStructures_morphism</title>
<a xlink:href="Core.html#PreCategoryOfStructures.morphism" xlink:title="morphism">
<ellipse fill="#e2cdfa" stroke="black" cx="1307" cy="-350.93" rx="58.8978" ry="18.3848"/>
<text text-anchor="middle" x="1307" y="-347.33" font-family="Times Roman,serif" font-size="14.00">morphism</text>
</a>
</g>
<!-- Core_PreCategoryOfStructures_f&#45;&gt;Core_PreCategoryOfStructures_morphism -->
<g id="edge14" class="edge"><title>Core_PreCategoryOfStructures_f&#45;&gt;Core_PreCategoryOfStructures_morphism</title>
<path fill="none" stroke="black" d="M1307,-433.405C1307,-418.407 1307,-397.019 1307,-379.781"/>
<polygon fill="black" stroke="black" points="1310.5,-379.679 1307,-369.679 1303.5,-379.679 1310.5,-379.679"/>
</g>
<!-- Core_is_structure_homomorphism -->
<g id="node18" class="node"><title>Core_is_structure_homomorphism</title>
<a xlink:href="Core.html#is_structure_homomorphism" xlink:title="is_structure_homomorphism">
<ellipse fill="#f070d1" stroke="black" cx="925" cy="-249.93" rx="149.907" ry="18.3848"/>
<text text-anchor="middle" x="925" y="-246.33" font-family="Times Roman,serif" font-size="14.00">is_structure_homomorphism</text>
</a>
</g>
<!-- Core_PreCategoryOfStructures_Build_morphism&#45;&gt;Core_is_structure_homomorphism -->
<g id="edge16" class="edge"><title>Core_PreCategoryOfStructures_Build_morphism&#45;&gt;Core_is_structure_homomorphism</title>
<path fill="none" stroke="black" d="M1420.12,-536.7C1380.36,-521.436 1320.6,-497.072 1271,-470.93 1151.7,-408.05 1019.76,-317.405 959.017,-274.378"/>
<polygon fill="black" stroke="black" points="960.761,-271.324 950.582,-268.384 956.706,-277.03 960.761,-271.324"/>
</g>
<!-- Core_PreCategoryOfStructures_morphism&#45;&gt;Core_is_structure_homomorphism -->
<g id="edge18" class="edge"><title>Core_PreCategoryOfStructures_morphism&#45;&gt;Core_is_structure_homomorphism</title>
<path fill="none" stroke="black" d="M1274.07,-335.517C1264.51,-331.397 1253.95,-327.188 1244,-323.93 1169.89,-299.665 1083.62,-280.159 1019.49,-267.277"/>
<polygon fill="black" stroke="black" points="1019.89,-263.787 1009.4,-265.267 1018.52,-270.652 1019.89,-263.787"/>
</g>
<!-- Core_precategory_of_structures -->
<g id="node7" class="node"><title>Core_precategory_of_structures</title>
<a xlink:href="Core.html#precategory_of_structures" xlink:title="precategory_of_structures">
<ellipse fill="#f070d1" stroke="black" cx="1519" cy="-875.93" rx="138.828" ry="18.3848"/>
<ellipse fill="none" stroke="black" cx="1519" cy="-875.93" rx="142.814" ry="22.3848"/>
<ellipse fill="none" stroke="black" cx="1519" cy="-875.93" rx="146.801" ry="26.3848"/>
<text text-anchor="middle" x="1519" y="-872.33" font-family="Times Roman,serif" font-size="14.00">precategory_of_structures</text>
</a>
</g>
<!-- Core_precategory_of_structures&#45;&gt;Core_PreCategoryOfStructures_issig_morphism -->
<g id="edge20" class="edge"><title>Core_precategory_of_structures&#45;&gt;Core_PreCategoryOfStructures_issig_morphism</title>
<path fill="none" stroke="black" d="M1646.85,-862.827C1748.91,-849.418 1880.07,-824.538 1913,-782.93 1923.48,-769.686 1923.49,-758.165 1913,-744.93 1876.4,-698.751 1716.74,-673.738 1613.98,-662.168"/>
<polygon fill="black" stroke="black" points="1614.23,-658.674 1603.91,-661.056 1613.47,-665.632 1614.23,-658.674"/>
</g>
<!-- Core_precategory_of_structures_subproof1 -->
<g id="node8" class="node"><title>Core_precategory_of_structures_subproof1</title>
<a xlink:href="Core.html#precategory_of_structures_subproof1" xlink:title="precategory_of_structures_subproof1">
<ellipse fill="#facdef" stroke="black" cx="917" cy="-763.93" rx="193.04" ry="18.3848"/>
<text text-anchor="middle" x="917" y="-760.33" font-family="Times Roman,serif" font-size="14.00">precategory_of_structures_subproof1</text>
</a>
</g>
<!-- Core_precategory_of_structures&#45;&gt;Core_precategory_of_structures_subproof1 -->
<g id="edge22" class="edge"><title>Core_precategory_of_structures&#45;&gt;Core_precategory_of_structures_subproof1</title>
<path fill="none" stroke="black" d="M1416.54,-856.867C1304.57,-836.036 1126.45,-802.898 1015.91,-782.332"/>
<polygon fill="black" stroke="black" points="1016.23,-778.832 1005.76,-780.443 1014.95,-785.713 1016.23,-778.832"/>
</g>
<!-- Core_precategory_of_structures_subproof0 -->
<g id="node9" class="node"><title>Core_precategory_of_structures_subproof0</title>
<a xlink:href="Core.html#precategory_of_structures_subproof0" xlink:title="precategory_of_structures_subproof0">
<ellipse fill="#facdef" stroke="black" cx="1321" cy="-763.93" rx="193.04" ry="18.3848"/>
<text text-anchor="middle" x="1321" y="-760.33" font-family="Times Roman,serif" font-size="14.00">precategory_of_structures_subproof0</text>
</a>
</g>
<!-- Core_precategory_of_structures&#45;&gt;Core_precategory_of_structures_subproof0 -->
<g id="edge24" class="edge"><title>Core_precategory_of_structures&#45;&gt;Core_precategory_of_structures_subproof0</title>
<path fill="none" stroke="black" d="M1474.07,-850.515C1440.49,-831.519 1394.93,-805.75 1362.27,-787.272"/>
<polygon fill="black" stroke="black" points="1363.84,-784.143 1353.42,-782.265 1360.4,-790.235 1363.84,-784.143"/>
</g>
<!-- Core_precategory_of_structures_subproof -->
<g id="node10" class="node"><title>Core_precategory_of_structures_subproof</title>
<a xlink:href="Core.html#precategory_of_structures_subproof" xlink:title="precategory_of_structures_subproof">
<ellipse fill="#facdef" stroke="black" cx="1718" cy="-763.93" rx="186.176" ry="18.3848"/>
<text text-anchor="middle" x="1718" y="-760.33" font-family="Times Roman,serif" font-size="14.00">precategory_of_structures_subproof</text>
</a>
</g>
<!-- Core_precategory_of_structures&#45;&gt;Core_precategory_of_structures_subproof -->
<g id="edge26" class="edge"><title>Core_precategory_of_structures&#45;&gt;Core_precategory_of_structures_subproof</title>
<path fill="none" stroke="black" d="M1564.16,-850.515C1597.91,-831.519 1643.69,-805.75 1676.53,-787.272"/>
<polygon fill="black" stroke="black" points="1678.42,-790.22 1685.42,-782.265 1674.99,-784.12 1678.42,-790.22"/>
</g>
<!-- Core_precategory_of_structures_subproof1&#45;&gt;Core_PreCategoryOfStructures_path_morphism -->
<g id="edge28" class="edge"><title>Core_precategory_of_structures_subproof1&#45;&gt;Core_PreCategoryOfStructures_path_morphism</title>
<path fill="none" stroke="black" d="M1054.65,-750.951C1114.14,-742.553 1183.78,-728.912 1244,-706.93 1264,-699.63 1284.63,-688.007 1301.18,-677.502"/>
<polygon fill="black" stroke="black" points="1303.45,-680.201 1309.93,-671.816 1299.64,-674.333 1303.45,-680.201"/>
</g>
<!-- Core_precategory_of_structures_subproof1&#45;&gt;Core_PreCategoryOfStructures_h -->
<g id="edge30" class="edge"><title>Core_precategory_of_structures_subproof1&#45;&gt;Core_PreCategoryOfStructures_h</title>
<path fill="none" stroke="black" d="M1048.11,-750.303C1110.39,-741.329 1176.17,-727.385 1199,-706.93 1224.02,-684.514 1202.61,-662.362 1222,-634.93 1233.04,-619.317 1273.54,-590.507 1301.68,-571.531"/>
<polygon fill="black" stroke="black" points="1303.96,-574.215 1310.33,-565.745 1300.07,-568.397 1303.96,-574.215"/>
</g>
<!-- Core_is_structure_homomorphism_composition -->
<g id="node15" class="node"><title>Core_is_structure_homomorphism_composition</title>
<a xlink:href="Core.html#is_structure_homomorphism_composition" xlink:title="is_structure_homomorphism_composition">
<ellipse fill="#f070d1" stroke="black" cx="977" cy="-653.93" rx="212.839" ry="18.3848"/>
<text text-anchor="middle" x="977" y="-650.33" font-family="Times Roman,serif" font-size="14.00">is_structure_homomorphism_composition</text>
</a>
</g>
<!-- Core_precategory_of_structures_subproof1&#45;&gt;Core_is_structure_homomorphism_composition -->
<g id="edge32" class="edge"><title>Core_precategory_of_structures_subproof1&#45;&gt;Core_is_structure_homomorphism_composition</title>
<path fill="none" stroke="black" d="M927.178,-745.27C936.703,-727.807 951.053,-701.499 961.91,-681.595"/>
<polygon fill="black" stroke="black" points="965.056,-683.136 966.772,-672.681 958.911,-679.784 965.056,-683.136"/>
</g>
<!-- Core_is_structure_homomorphism_identity -->
<g id="node16" class="node"><title>Core_is_structure_homomorphism_identity</title>
<a xlink:href="Core.html#is_structure_homomorphism_identity" xlink:title="is_structure_homomorphism_identity">
<ellipse fill="#f070d1" stroke="black" cx="554" cy="-653.93" rx="191.833" ry="18.3848"/>
<text text-anchor="middle" x="554" y="-650.33" font-family="Times Roman,serif" font-size="14.00">is_structure_homomorphism_identity</text>
</a>
</g>
<!-- Core_precategory_of_structures_subproof1&#45;&gt;Core_is_structure_homomorphism_identity -->
<g id="edge34" class="edge"><title>Core_precategory_of_structures_subproof1&#45;&gt;Core_is_structure_homomorphism_identity</title>
<path fill="none" stroke="black" d="M858.678,-746.256C794.209,-726.72 690.482,-695.288 622.275,-674.619"/>
<polygon fill="black" stroke="black" points="623.063,-671.201 612.478,-671.65 621.033,-677.9 623.063,-671.201"/>
</g>
<!-- Core_precategory_of_structures_subproof0&#45;&gt;Core_PreCategoryOfStructures_path_morphism -->
<g id="edge36" class="edge"><title>Core_precategory_of_structures_subproof0&#45;&gt;Core_PreCategoryOfStructures_path_morphism</title>
<path fill="none" stroke="black" d="M1323.37,-745.27C1325.56,-728.123 1328.82,-702.449 1331.34,-682.682"/>
<polygon fill="black" stroke="black" points="1334.82,-683.043 1332.61,-672.681 1327.88,-682.159 1334.82,-683.043"/>
</g>
<!-- Core_precategory_of_structures_subproof0&#45;&gt;Core_PreCategoryOfStructures_h -->
<g id="edge38" class="edge"><title>Core_precategory_of_structures_subproof0&#45;&gt;Core_PreCategoryOfStructures_h</title>
<path fill="none" stroke="black" d="M1473.42,-752.558C1536.52,-744.385 1599.53,-730.474 1619,-706.93 1639.39,-682.268 1638.7,-660.143 1619,-634.93 1547.64,-543.627 1474.25,-613.274 1366,-571.93 1364.12,-571.211 1362.21,-570.417 1360.3,-569.573"/>
<polygon fill="black" stroke="black" points="1361.45,-566.242 1350.92,-565.058 1358.42,-572.549 1361.45,-566.242"/>
</g>
<!-- Core_precategory_of_structures_subproof0&#45;&gt;Core_is_structure_homomorphism_composition -->
<g id="edge40" class="edge"><title>Core_precategory_of_structures_subproof0&#45;&gt;Core_is_structure_homomorphism_composition</title>
<path fill="none" stroke="black" d="M1265.35,-746.134C1204.49,-726.672 1107.03,-695.51 1042.52,-674.881"/>
<polygon fill="black" stroke="black" points="1043.45,-671.503 1032.86,-671.791 1041.32,-678.17 1043.45,-671.503"/>
</g>
<!-- Core_precategory_of_structures_subproof0&#45;&gt;Core_is_structure_homomorphism_identity -->
<g id="edge42" class="edge"><title>Core_precategory_of_structures_subproof0&#45;&gt;Core_is_structure_homomorphism_identity</title>
<path fill="none" stroke="black" d="M1184.92,-750.768C1024.21,-735.143 775.894,-710.712 755,-706.93 709.823,-698.751 659.909,-685.612 621.122,-674.463"/>
<polygon fill="black" stroke="black" points="622.09,-671.1 611.511,-671.676 620.14,-677.823 622.09,-671.1"/>
</g>
<!-- Core_precategory_of_structures_subproof&#45;&gt;Core_PreCategoryOfStructures_path_morphism -->
<g id="edge44" class="edge"><title>Core_precategory_of_structures_subproof&#45;&gt;Core_PreCategoryOfStructures_path_morphism</title>
<path fill="none" stroke="black" d="M1602.65,-749.346C1549.36,-740.513 1485.87,-726.975 1431,-706.93 1409.99,-699.253 1388.04,-687.456 1370.44,-676.939"/>
<polygon fill="black" stroke="black" points="1372.02,-673.804 1361.66,-671.584 1368.37,-679.78 1372.02,-673.804"/>
</g>
<!-- Core_precategory_of_structures_subproof&#45;&gt;Core_PreCategoryOfStructures_h -->
<g id="edge46" class="edge"><title>Core_precategory_of_structures_subproof&#45;&gt;Core_PreCategoryOfStructures_h</title>
<path fill="none" stroke="black" d="M1588.56,-750.619C1448.69,-735.931 1244.83,-713.495 1239,-706.93 1217.75,-683.003 1225.99,-664.166 1239,-634.93 1245.84,-619.548 1279.03,-591.826 1303.36,-572.912"/>
<polygon fill="black" stroke="black" points="1305.74,-575.494 1311.54,-566.624 1301.48,-569.945 1305.74,-575.494"/>
</g>
<!-- Core_precategory_of_structures_subproof&#45;&gt;Core_is_structure_homomorphism_composition -->
<g id="edge48" class="edge"><title>Core_precategory_of_structures_subproof&#45;&gt;Core_is_structure_homomorphism_composition</title>
<path fill="none" stroke="black" d="M1589.58,-750.535C1467.26,-737.516 1291.99,-718.12 1224,-706.93 1168.75,-697.836 1107.18,-684.631 1059.33,-673.677"/>
<polygon fill="black" stroke="black" points="1059.86,-670.209 1049.33,-671.376 1058.29,-677.03 1059.86,-670.209"/>
</g>
<!-- Core_istrunc_homomorphism_standard_notion_of_structure -->
<g id="node11" class="node"><title>Core_istrunc_homomorphism_standard_notion_of_structure</title>
<a xlink:href="Core.html#istrunc_homomorphism_standard_notion_of_structure" xlink:title="istrunc_homomorphism_standard_notion_of_structure">
<ellipse fill="#f070d1" stroke="black" cx="595" cy="-875.93" rx="275.065" ry="18.3848"/>
<ellipse fill="none" stroke="black" cx="595" cy="-875.93" rx="279.065" ry="22.3848"/>
<ellipse fill="none" stroke="black" cx="595" cy="-875.93" rx="283.065" ry="26.3848"/>
<text text-anchor="middle" x="595" y="-872.33" font-family="Times Roman,serif" font-size="14.00">istrunc_homomorphism_standard_notion_of_structure</text>
</a>
</g>
<!-- Core_antisymmetry_structure -->
<g id="node12" class="node"><title>Core_antisymmetry_structure</title>
<a xlink:href="Core.html#antisymmetry_structure" xlink:title="antisymmetry_structure">
<ellipse fill="#f070d1" stroke="black" cx="146" cy="-763.93" rx="130.108" ry="18.3848"/>
<text text-anchor="middle" x="146" y="-760.33" font-family="Times Roman,serif" font-size="14.00">antisymmetry_structure</text>
</a>
</g>
<!-- Core_istrunc_homomorphism_standard_notion_of_structure&#45;&gt;Core_antisymmetry_structure -->
<g id="edge50" class="edge"><title>Core_istrunc_homomorphism_standard_notion_of_structure&#45;&gt;Core_antisymmetry_structure</title>
<path fill="none" stroke="black" d="M495.352,-851.073C412.274,-830.35 295.749,-801.283 220.56,-782.528"/>
<polygon fill="black" stroke="black" points="221.239,-779.09 210.689,-780.066 219.545,-785.882 221.239,-779.09"/>
</g>
<!-- Core_preorder_is_structure_homomorphism -->
<g id="node14" class="node"><title>Core_preorder_is_structure_homomorphism</title>
<a xlink:href="Core.html#preorder_is_structure_homomorphism" xlink:title="preorder_is_structure_homomorphism">
<ellipse fill="#f070d1" stroke="black" cx="510" cy="-763.93" rx="196.075" ry="18.3848"/>
<text text-anchor="middle" x="510" y="-760.33" font-family="Times Roman,serif" font-size="14.00">preorder_is_structure_homomorphism</text>
</a>
</g>
<!-- Core_istrunc_homomorphism_standard_notion_of_structure&#45;&gt;Core_preorder_is_structure_homomorphism -->
<g id="edge52" class="edge"><title>Core_istrunc_homomorphism_standard_notion_of_structure&#45;&gt;Core_preorder_is_structure_homomorphism</title>
<path fill="none" stroke="black" d="M574.856,-849.387C561.44,-831.709 543.869,-808.556 530.4,-790.81"/>
<polygon fill="black" stroke="black" points="532.987,-788.429 524.154,-782.579 527.411,-792.661 532.987,-788.429"/>
</g>
<!-- Core_istrunc_homomorphism_standard_notion_of_structure&#45;&gt;Core_istrunc_is_structure_homomorphism -->
<g id="edge54" class="edge"><title>Core_istrunc_homomorphism_standard_notion_of_structure&#45;&gt;Core_istrunc_is_structure_homomorphism</title>
<path fill="none" stroke="black" d="M473.235,-851.918C403.478,-835.418 325.76,-811.389 305,-782.93 295.047,-769.285 299.727,-760.974 305,-744.93 311.55,-725 323.819,-725.792 333,-706.93 347.535,-677.068 328.632,-657.495 353,-634.93 391.278,-599.483 514.515,-578.176 617.166,-566.203"/>
<polygon fill="black" stroke="black" points="617.811,-569.652 627.348,-565.038 617.015,-562.698 617.811,-569.652"/>
</g>
<!-- Core_IsStandardNotionOfStructure -->
<g id="node13" class="node"><title>Core_IsStandardNotionOfStructure</title>
<a xlink:href="Core.html#IsStandardNotionOfStructure" xlink:title="IsStandardNotionOfStructure">
<ellipse fill="#f070d1" stroke="black" cx="170" cy="-653.93" rx="154.149" ry="18.3848"/>
<text text-anchor="middle" x="170" y="-650.33" font-family="Times Roman,serif" font-size="14.00">IsStandardNotionOfStructure</text>
</a>
</g>
<!-- Core_antisymmetry_structure&#45;&gt;Core_IsStandardNotionOfStructure -->
<g id="edge56" class="edge"><title>Core_antisymmetry_structure&#45;&gt;Core_IsStandardNotionOfStructure</title>
<path fill="none" stroke="black" d="M150.071,-745.27C153.812,-728.123 159.414,-702.449 163.727,-682.682"/>
<polygon fill="black" stroke="black" points="167.197,-683.197 165.909,-672.681 160.357,-681.705 167.197,-683.197"/>
</g>
<!-- Core_IsStandardNotionOfStructure&#45;&gt;Core_is_structure_homomorphism -->
<g id="edge58" class="edge"><title>Core_IsStandardNotionOfStructure&#45;&gt;Core_is_structure_homomorphism</title>
<path fill="none" stroke="black" d="M196.803,-635.64C275.428,-582.52 513.317,-425.575 726,-323.93 769.781,-303.005 821.159,-284.033 860.742,-270.537"/>
<polygon fill="black" stroke="black" points="861.929,-273.831 870.282,-267.313 859.687,-267.199 861.929,-273.831"/>
</g>
<!-- Core_preorder_is_structure_homomorphism&#45;&gt;Core_is_structure_homomorphism_composition -->
<g id="edge60" class="edge"><title>Core_preorder_is_structure_homomorphism&#45;&gt;Core_is_structure_homomorphism_composition</title>
<path fill="none" stroke="black" d="M584.273,-746.767C632.863,-735.51 697.723,-720.429 755,-706.93 801.239,-696.031 852.858,-683.717 894.677,-673.703"/>
<polygon fill="black" stroke="black" points="895.628,-677.074 904.537,-671.341 893.997,-670.267 895.628,-677.074"/>
</g>
<!-- Core_preorder_is_structure_homomorphism&#45;&gt;Core_is_structure_homomorphism_identity -->
<g id="edge62" class="edge"><title>Core_preorder_is_structure_homomorphism&#45;&gt;Core_is_structure_homomorphism_identity</title>
<path fill="none" stroke="black" d="M517.464,-745.27C524.386,-727.965 534.782,-701.975 542.717,-682.137"/>
<polygon fill="black" stroke="black" points="546.035,-683.266 546.499,-672.681 539.536,-680.666 546.035,-683.266"/>
</g>
<!-- Core_is_structure_homomorphism_composition&#45;&gt;Core_is_structure_homomorphism -->
<g id="edge64" class="edge"><title>Core_is_structure_homomorphism_composition&#45;&gt;Core_is_structure_homomorphism</title>
<path fill="none" stroke="black" d="M975.809,-635.186C974.221,-611.541 971.125,-569.65 967,-533.93 956.163,-440.093 938.353,-329.544 929.834,-278.455"/>
<polygon fill="black" stroke="black" points="933.267,-277.767 928.163,-268.483 926.363,-278.924 933.267,-277.767"/>
</g>
<!-- Core_is_structure_homomorphism_identity&#45;&gt;Core_is_structure_homomorphism -->
<g id="edge66" class="edge"><title>Core_is_structure_homomorphism_identity&#45;&gt;Core_is_structure_homomorphism</title>
<path fill="none" stroke="black" d="M552.951,-635.087C552.424,-610.225 554.516,-565.881 573,-533.93 646.773,-406.407 801.485,-313.258 878.868,-272.596"/>
<polygon fill="black" stroke="black" points="880.65,-275.615 887.911,-267.899 877.423,-269.403 880.65,-275.615"/>
</g>
<!-- Core_istrunc_is_structure_homomorphism&#45;&gt;Core_is_structure_homomorphism -->
<g id="edge68" class="edge"><title>Core_istrunc_is_structure_homomorphism&#45;&gt;Core_is_structure_homomorphism</title>
<path fill="none" stroke="black" d="M779.463,-534.432C805.729,-483.085 879.654,-338.574 910.84,-277.61"/>
<polygon fill="black" stroke="black" points="914.026,-279.067 915.464,-268.57 907.794,-275.879 914.026,-279.067"/>
</g>
<!-- Core_structure -->
<g id="node19" class="node"><title>Core_structure</title>
<a xlink:href="Core.html#structure" xlink:title="structure">
<ellipse fill="#f070d1" stroke="black" cx="925" cy="-148.93" rx="56.0679" ry="18.3848"/>
<text text-anchor="middle" x="925" y="-145.33" font-family="Times Roman,serif" font-size="14.00">structure</text>
</a>
</g>
<!-- Core_is_structure_homomorphism&#45;&gt;Core_structure -->
<g id="edge70" class="edge"><title>Core_is_structure_homomorphism&#45;&gt;Core_structure</title>
<path fill="none" stroke="black" d="M925,-231.405C925,-216.407 925,-195.019 925,-177.781"/>
<polygon fill="black" stroke="black" points="928.5,-177.679 925,-167.679 921.5,-177.679 928.5,-177.679"/>
</g>
<!-- Core_NotionOfStructure -->
<g id="node21" class="node"><title>Core_NotionOfStructure</title>
<a xlink:href="Core.html#NotionOfStructure" xlink:title="NotionOfStructure">
<ellipse fill="#e2cdfa" stroke="black" cx="925" cy="-47.9296" rx="101.823" ry="18.3848"/>
<text text-anchor="middle" x="925" y="-44.3296" font-family="Times Roman,serif" font-size="14.00">NotionOfStructure</text>
</a>
</g>
<!-- Core_structure&#45;&gt;Core_NotionOfStructure -->
<g id="edge72" class="edge"><title>Core_structure&#45;&gt;Core_NotionOfStructure</title>
<path fill="none" stroke="black" d="M925,-130.405C925,-115.407 925,-94.019 925,-76.7814"/>
<polygon fill="black" stroke="black" points="928.5,-76.6791 925,-66.6791 921.5,-76.6792 928.5,-76.6791"/>
</g>
<!-- Core_Build_NotionOfStructure -->
<g id="node20" class="node"><title>Core_Build_NotionOfStructure</title>
<a xlink:href="Core.html#Build_NotionOfStructure" xlink:title="Build_NotionOfStructure">
<ellipse fill="#7faaff" stroke="black" cx="155" cy="-875.93" rx="131.05" ry="18.3848"/>
<ellipse fill="none" stroke="black" cx="155" cy="-875.93" rx="135.036" ry="22.3848"/>
<ellipse fill="none" stroke="black" cx="155" cy="-875.93" rx="139.022" ry="26.3848"/>
<text text-anchor="middle" x="155" y="-872.33" font-family="Times Roman,serif" font-size="14.00">Build_NotionOfStructure</text>
</a>
</g>
</g>
</svg>
