<?xml version="1.0" encoding="UTF-8" standalone="no"?>
<!DOCTYPE svg PUBLIC "-//W3C//DTD SVG 1.1//EN"
 "http://www.w3.org/Graphics/SVG/1.1/DTD/svg11.dtd">
<!-- Generated by graphviz version 2.39.20141222.0545 (20141222.0545)
 -->
<!-- Title: HoTT_categories_Functor_Sum Pages: 1 -->
<svg width="654pt" height="331pt"
 viewBox="0.00 0.00 654.00 331.00" xmlns="http://www.w3.org/2000/svg" xmlns:xlink="http://www.w3.org/1999/xlink">
<g id="graph0" class="graph" transform="scale(1 1) rotate(0) translate(4 327)">
<title>HoTT_categories_Functor_Sum</title>
<polygon fill="white" stroke="transparent" points="-4,4 -4,-327 650,-327 650,4 -4,4"/>
<g id="clust1" class="cluster"><title>cluster_Sum</title>
<polygon fill="#ffffc3" stroke="black" points="16.9443,-8 16.9443,-315 629.056,-315 629.056,-8 16.9443,-8"/>
<text text-anchor="middle" x="37.9443" y="-299.8" font-family="Times,serif" font-size="14.00">Sum</text>
</g>
<!-- Sum_swap_involutive -->
<g id="node1" class="node"><title>Sum_swap_involutive</title>
<g id="a_node1"><a xlink:href="Sum.html#swap_involutive" xlink:title="swap_involutive">
<ellipse fill="#facdef" stroke="black" cx="340.954" cy="-258" rx="68.7989" ry="18"/>
<ellipse fill="none" stroke="black" cx="340.954" cy="-258" rx="72.7934" ry="22"/>
<ellipse fill="none" stroke="black" cx="340.954" cy="-258" rx="76.7879" ry="26"/>
<text text-anchor="middle" x="340.954" y="-254.3" font-family="Times,serif" font-size="14.00">swap_involutive</text>
</a>
</g>
</g>
<!-- Sum_swap_involutive_helper -->
<g id="node2" class="node"><title>Sum_swap_involutive_helper</title>
<g id="a_node2"><a xlink:href="Sum.html#swap_involutive_helper" xlink:title="swap_involutive_helper">
<ellipse fill="#f070d1" stroke="black" cx="234.954" cy="-178" rx="94.7833" ry="18"/>
<text text-anchor="middle" x="234.954" y="-174.3" font-family="Times,serif" font-size="14.00">swap_involutive_helper</text>
</a>
</g>
</g>
<!-- Sum_swap_involutive&#45;&gt;Sum_swap_involutive_helper -->
<g id="edge1" class="edge"><title>Sum_swap_involutive&#45;&gt;Sum_swap_involutive_helper</title>
<path fill="none" stroke="black" d="M309.438,-234.214C295.792,-223.916 279.86,-211.891 266.241,-201.612"/>
<polygon fill="black" stroke="black" points="268.191,-198.699 258.101,-195.469 263.974,-204.287 268.191,-198.699"/>
</g>
<!-- Sum_swap -->
<g id="node3" class="node"><title>Sum_swap</title>
<g id="a_node3"><a xlink:href="Sum.html#swap" xlink:title="swap">
<ellipse fill="#f070d1" stroke="black" cx="533.954" cy="-178" rx="28.6953" ry="18"/>
<text text-anchor="middle" x="533.954" y="-174.3" font-family="Times,serif" font-size="14.00">swap</text>
</a>
</g>
</g>
<!-- Sum_swap_involutive&#45;&gt;Sum_swap -->
<g id="edge2" class="edge"><title>Sum_swap_involutive&#45;&gt;Sum_swap</title>
<path fill="none" stroke="black" d="M389.656,-237.813C424.319,-223.445 469.99,-204.514 500.58,-191.834"/>
<polygon fill="black" stroke="black" points="502.052,-195.013 509.949,-187.95 499.371,-188.546 502.052,-195.013"/>
</g>
<!-- Sum_sum -->
<g id="node4" class="node"><title>Sum_sum</title>
<g id="a_node4"><a xlink:href="Sum.html#sum" xlink:title="sum">
<ellipse fill="#f070d1" stroke="black" cx="249.954" cy="-106" rx="27" ry="18"/>
<text text-anchor="middle" x="249.954" y="-102.3" font-family="Times,serif" font-size="14.00">sum</text>
</a>
</g>
</g>
<!-- Sum_swap&#45;&gt;Sum_sum -->
<g id="edge3" class="edge"><title>Sum_swap&#45;&gt;Sum_sum</title>
<path fill="none" stroke="black" d="M507.236,-171.226C455.783,-158.182 342.948,-129.576 285.331,-114.969"/>
<polygon fill="black" stroke="black" points="286.128,-111.56 275.575,-112.495 284.408,-118.346 286.128,-111.56"/>
</g>
<!-- Sum_inr -->
<g id="node7" class="node"><title>Sum_inr</title>
<g id="a_node7"><a xlink:href="Sum.html#inr" xlink:title="inr">
<ellipse fill="#f070d1" stroke="black" cx="401.954" cy="-106" rx="27" ry="18"/>
<text text-anchor="middle" x="401.954" y="-102.3" font-family="Times,serif" font-size="14.00">inr</text>
</a>
</g>
</g>
<!-- Sum_swap&#45;&gt;Sum_inr -->
<g id="edge4" class="edge"><title>Sum_swap&#45;&gt;Sum_inr</title>
<path fill="none" stroke="black" d="M512.157,-166.111C490.21,-154.14 456.195,-135.586 431.761,-122.258"/>
<polygon fill="black" stroke="black" points="433.366,-119.147 422.911,-117.431 430.014,-125.292 433.366,-119.147"/>
</g>
<!-- Sum_inl -->
<g id="node8" class="node"><title>Sum_inl</title>
<g id="a_node8"><a xlink:href="Sum.html#inl" xlink:title="inl">
<ellipse fill="#f070d1" stroke="black" cx="554.954" cy="-106" rx="27" ry="18"/>
<text text-anchor="middle" x="554.954" y="-102.3" font-family="Times,serif" font-size="14.00">inl</text>
</a>
</g>
</g>
<!-- Sum_swap&#45;&gt;Sum_inl -->
<g id="edge5" class="edge"><title>Sum_swap&#45;&gt;Sum_inl</title>
<path fill="none" stroke="black" d="M539.145,-160.202C541.492,-152.154 544.32,-142.459 546.931,-133.507"/>
<polygon fill="black" stroke="black" points="550.31,-134.423 549.75,-123.843 543.59,-132.463 550.31,-134.423"/>
</g>
<!-- Sum_sum_subproof0 -->
<g id="node5" class="node"><title>Sum_sum_subproof0</title>
<g id="a_node5"><a xlink:href="Sum.html#sum_subproof0" xlink:title="sum_subproof0">
<ellipse fill="#facdef" stroke="black" cx="173.954" cy="-34" rx="65.7887" ry="18"/>
<text text-anchor="middle" x="173.954" y="-30.3" font-family="Times,serif" font-size="14.00">sum_subproof0</text>
</a>
</g>
</g>
<!-- Sum_sum&#45;&gt;Sum_sum_subproof0 -->
<g id="edge6" class="edge"><title>Sum_sum&#45;&gt;Sum_sum_subproof0</title>
<path fill="none" stroke="black" d="M234.207,-91.0816C224.316,-81.7108 211.318,-69.3978 199.928,-58.6072"/>
<polygon fill="black" stroke="black" points="202.024,-55.7716 192.358,-51.4349 197.21,-60.8533 202.024,-55.7716"/>
</g>
<!-- Sum_sum_subproof -->
<g id="node6" class="node"><title>Sum_sum_subproof</title>
<g id="a_node6"><a xlink:href="Sum.html#sum_subproof" xlink:title="sum_subproof">
<ellipse fill="#facdef" stroke="black" cx="480.954" cy="-34" rx="61.99" ry="18"/>
<text text-anchor="middle" x="480.954" y="-30.3" font-family="Times,serif" font-size="14.00">sum_subproof</text>
</a>
</g>
</g>
<!-- Sum_sum&#45;&gt;Sum_sum_subproof -->
<g id="edge7" class="edge"><title>Sum_sum&#45;&gt;Sum_sum_subproof</title>
<path fill="none" stroke="black" d="M274.675,-98.2947C311.262,-86.8912 380.678,-65.255 428.821,-50.2493"/>
<polygon fill="black" stroke="black" points="429.945,-53.5651 438.451,-47.2478 427.862,-46.8821 429.945,-53.5651"/>
</g>
</g>
</svg>
