<?xml version="1.0" encoding="UTF-8" standalone="no"?>
<!DOCTYPE svg PUBLIC "-//W3C//DTD SVG 1.1//EN"
 "http://www.w3.org/Graphics/SVG/1.1/DTD/svg11.dtd">
<!-- Generated by graphviz version 2.26.3 (20100126.1600)
 -->
<!-- Title: HoTT_Functorish Pages: 1 -->
<svg width="708pt" height="358pt"
 viewBox="0.00 0.00 708.00 358.00" xmlns="http://www.w3.org/2000/svg" xmlns:xlink="http://www.w3.org/1999/xlink">
<g id="graph1" class="graph" transform="scale(1 1) rotate(0) translate(4 354)">
<title>HoTT_Functorish</title>
<polygon fill="white" stroke="white" points="-4,5 -4,-354 705,-354 705,5 -4,5"/>
<g id="graph2" class="cluster"><title>cluster_Functorish</title>
<polygon fill="#ffffc3" stroke="black" points="9.85915,-8 9.85915,-342 690.141,-342 690.141,-8 9.85915,-8"/>
<text text-anchor="middle" x="54.3592" y="-325.4" font-family="Times Roman,serif" font-size="14.00">Functorish</text>
</g>
<!-- Functorish_fmap_agrees_with_univalence -->
<g id="node1" class="node"><title>Functorish_fmap_agrees_with_univalence</title>
<a xlink:href="Functorish.html#fmap_agrees_with_univalence" xlink:title="fmap_agrees_with_univalence">
<ellipse fill="#f070d1" stroke="black" cx="475.824" cy="-281" rx="157.916" ry="18.3848"/>
<ellipse fill="none" stroke="black" cx="475.824" cy="-281" rx="161.904" ry="22.3848"/>
<ellipse fill="none" stroke="black" cx="475.824" cy="-281" rx="165.892" ry="26.3848"/>
<text text-anchor="middle" x="475.824" y="-277.4" font-family="Times Roman,serif" font-size="14.00">fmap_agrees_with_univalence</text>
</a>
</g>
<!-- Functorish_fmap_idmap -->
<g id="node3" class="node"><title>Functorish_fmap_idmap</title>
<a xlink:href="Functorish.html#fmap_idmap" xlink:title="fmap_idmap">
<ellipse fill="#f070d1" stroke="black" cx="593.824" cy="-191" rx="70.0036" ry="18.3848"/>
<text text-anchor="middle" x="593.824" y="-187.4" font-family="Times Roman,serif" font-size="14.00">fmap_idmap</text>
</a>
</g>
<!-- Functorish_fmap_agrees_with_univalence&#45;&gt;Functorish_fmap_idmap -->
<g id="edge2" class="edge"><title>Functorish_fmap_agrees_with_univalence&#45;&gt;Functorish_fmap_idmap</title>
<path fill="none" stroke="black" d="M509.954,-254.968C526.532,-242.325 546.315,-227.235 562.504,-214.888"/>
<polygon fill="black" stroke="black" points="564.777,-217.556 570.606,-208.709 560.532,-211.991 564.777,-217.556"/>
</g>
<!-- Functorish_isequiv_fmap -->
<g id="node2" class="node"><title>Functorish_isequiv_fmap</title>
<a xlink:href="Functorish.html#isequiv_fmap" xlink:title="isequiv_fmap">
<ellipse fill="#f070d1" stroke="black" cx="146.824" cy="-281" rx="74.9533" ry="18.3848"/>
<ellipse fill="none" stroke="black" cx="146.824" cy="-281" rx="78.9533" ry="22.3848"/>
<ellipse fill="none" stroke="black" cx="146.824" cy="-281" rx="82.9533" ry="26.3848"/>
<text text-anchor="middle" x="146.824" y="-277.4" font-family="Times Roman,serif" font-size="14.00">isequiv_fmap</text>
</a>
</g>
<!-- Functorish_isequiv_fmap&#45;&gt;Functorish_fmap_idmap -->
<g id="edge4" class="edge"><title>Functorish_isequiv_fmap&#45;&gt;Functorish_fmap_idmap</title>
<path fill="none" stroke="black" d="M219.039,-267.752C285.384,-255.422 386.385,-236.255 473.824,-218 492.517,-214.097 512.794,-209.626 531.267,-205.461"/>
<polygon fill="black" stroke="black" points="532.052,-208.871 541.032,-203.249 530.506,-202.044 532.052,-208.871"/>
</g>
<!-- Functorish_fmap -->
<g id="node4" class="node"><title>Functorish_fmap</title>
<a xlink:href="Functorish.html#fmap" xlink:title="fmap">
<ellipse fill="#f070d1" stroke="black" cx="591.824" cy="-109" rx="34.8574" ry="18.3848"/>
<text text-anchor="middle" x="591.824" y="-105.4" font-family="Times Roman,serif" font-size="14.00">fmap</text>
</a>
</g>
<!-- Functorish_fmap_idmap&#45;&gt;Functorish_fmap -->
<g id="edge6" class="edge"><title>Functorish_fmap_idmap&#45;&gt;Functorish_fmap</title>
<path fill="none" stroke="black" d="M593.37,-172.393C593.12,-162.118 592.803,-149.137 592.522,-137.602"/>
<polygon fill="black" stroke="black" points="596.019,-137.445 592.276,-127.533 589.021,-137.616 596.019,-137.445"/>
</g>
<!-- Functorish_Functorish -->
<g id="node9" class="node"><title>Functorish_Functorish</title>
<a xlink:href="Functorish.html#Functorish" xlink:title="Functorish">
<ellipse fill="#e2cdfa" stroke="black" cx="588.824" cy="-35" rx="62.9325" ry="18.3848"/>
<text text-anchor="middle" x="588.824" y="-31.4" font-family="Times Roman,serif" font-size="14.00">Functorish</text>
</a>
</g>
<!-- Functorish_fmap&#45;&gt;Functorish_Functorish -->
<g id="edge8" class="edge"><title>Functorish_fmap&#45;&gt;Functorish_Functorish</title>
<path fill="none" stroke="black" d="M591.067,-90.3267C590.74,-82.2639 590.35,-72.6477 589.988,-63.7115"/>
<polygon fill="black" stroke="black" points="593.483,-63.5173 589.581,-53.6674 586.489,-63.801 593.483,-63.5173"/>
</g>
<!-- Functorish_Functorish_rec -->
<g id="node5" class="node"><title>Functorish_Functorish_rec</title>
<a xlink:href="Functorish.html#Functorish_rec" xlink:title="Functorish_rec">
<ellipse fill="#f070d1" stroke="black" cx="374.824" cy="-191" rx="82.2744" ry="18.3848"/>
<ellipse fill="none" stroke="black" cx="374.824" cy="-191" rx="86.2523" ry="22.3848"/>
<ellipse fill="none" stroke="black" cx="374.824" cy="-191" rx="90.2302" ry="26.3848"/>
<text text-anchor="middle" x="374.824" y="-187.4" font-family="Times Roman,serif" font-size="14.00">Functorish_rec</text>
</a>
</g>
<!-- Functorish_Functorish_rect -->
<g id="node7" class="node"><title>Functorish_Functorish_rect</title>
<a xlink:href="Functorish.html#Functorish_rect" xlink:title="Functorish_rect">
<ellipse fill="#f070d1" stroke="black" cx="374.824" cy="-109" rx="86.9741" ry="18.3848"/>
<text text-anchor="middle" x="374.824" y="-105.4" font-family="Times Roman,serif" font-size="14.00">Functorish_rect</text>
</a>
</g>
<!-- Functorish_Functorish_rec&#45;&gt;Functorish_Functorish_rect -->
<g id="edge10" class="edge"><title>Functorish_Functorish_rec&#45;&gt;Functorish_Functorish_rect</title>
<path fill="none" stroke="black" d="M374.824,-164.15C374.824,-155.743 374.824,-146.43 374.824,-137.889"/>
<polygon fill="black" stroke="black" points="378.324,-137.607 374.824,-127.607 371.324,-137.607 378.324,-137.607"/>
</g>
<!-- Functorish_Functorish_ind -->
<g id="node6" class="node"><title>Functorish_Functorish_ind</title>
<a xlink:href="Functorish.html#Functorish_ind" xlink:title="Functorish_ind">
<ellipse fill="#7fffd4" stroke="black" cx="130.824" cy="-191" rx="82.2744" ry="18.3848"/>
<ellipse fill="none" stroke="black" cx="130.824" cy="-191" rx="86.2523" ry="22.3848"/>
<ellipse fill="none" stroke="black" cx="130.824" cy="-191" rx="90.2302" ry="26.3848"/>
<text text-anchor="middle" x="130.824" y="-187.4" font-family="Times Roman,serif" font-size="14.00">Functorish_ind</text>
</a>
</g>
<!-- Functorish_Functorish_ind&#45;&gt;Functorish_Functorish_rect -->
<g id="edge12" class="edge"><title>Functorish_Functorish_ind&#45;&gt;Functorish_Functorish_rect</title>
<path fill="none" stroke="black" d="M190.201,-171.045C229.344,-157.891 280.287,-140.771 318.742,-127.847"/>
<polygon fill="black" stroke="black" points="319.871,-131.16 328.235,-124.657 317.641,-124.525 319.871,-131.16"/>
</g>
<!-- Functorish_Build_Functorish -->
<g id="node8" class="node"><title>Functorish_Build_Functorish</title>
<a xlink:href="Functorish.html#Build_Functorish" xlink:title="Build_Functorish">
<ellipse fill="#7faaff" stroke="black" cx="374.824" cy="-35" rx="92.1303" ry="18.3848"/>
<text text-anchor="middle" x="374.824" y="-31.4" font-family="Times Roman,serif" font-size="14.00">Build_Functorish</text>
</a>
</g>
<!-- Functorish_Functorish_rect&#45;&gt;Functorish_Build_Functorish -->
<g id="edge14" class="edge"><title>Functorish_Functorish_rect&#45;&gt;Functorish_Build_Functorish</title>
<path fill="none" stroke="black" d="M374.824,-90.3267C374.824,-82.2639 374.824,-72.6477 374.824,-63.7115"/>
<polygon fill="black" stroke="black" points="378.324,-63.6673 374.824,-53.6674 371.324,-63.6674 378.324,-63.6673"/>
</g>
<!-- Functorish_Functorish_rect&#45;&gt;Functorish_Functorish -->
<g id="edge16" class="edge"><title>Functorish_Functorish_rect&#45;&gt;Functorish_Functorish</title>
<path fill="none" stroke="black" d="M420.47,-93.2159C455.029,-81.2657 502.484,-64.8558 538.205,-52.5038"/>
<polygon fill="black" stroke="black" points="539.641,-55.7106 547.948,-49.1346 537.353,-49.0949 539.641,-55.7106"/>
</g>
</g>
</svg>
