<?xml version="1.0" encoding="UTF-8" standalone="no"?>
<!DOCTYPE svg PUBLIC "-//W3C//DTD SVG 1.1//EN"
 "http://www.w3.org/Graphics/SVG/1.1/DTD/svg11.dtd">
<!-- Generated by graphviz version 2.39.20141222.0545 (20141222.0545)
 -->
<!-- Title: HoTT_Types_Nat Pages: 1 -->
<svg width="631pt" height="320pt"
 viewBox="0.00 0.00 631.00 319.50" xmlns="http://www.w3.org/2000/svg" xmlns:xlink="http://www.w3.org/1999/xlink">
<g id="graph0" class="graph" transform="scale(1 1) rotate(0) translate(4 315.5)">
<title>HoTT_Types_Nat</title>
<polygon fill="white" stroke="transparent" points="-4,4 -4,-315.5 627,-315.5 627,4 -4,4"/>
<g id="clust1" class="cluster"><title>cluster_Nat</title>
<polygon fill="#ffffc3" stroke="black" points="8,-13.9218 8,-297.578 615,-297.578 615,-13.9218 8,-13.9218"/>
<text text-anchor="middle" x="26" y="-282.378" font-family="Times,serif" font-size="14.00">Nat</text>
</g>
<!-- Nat_factorial -->
<g id="node1" class="node"><title>Nat_factorial</title>
<g id="a_node1"><a xlink:href="Nat.html#factorial" xlink:title="factorial">
<ellipse fill="#f070d1" stroke="black" cx="559" cy="-197.922" rx="40.1273" ry="18"/>
<ellipse fill="none" stroke="black" cx="559" cy="-197.922" rx="44.1105" ry="22"/>
<ellipse fill="none" stroke="black" cx="559" cy="-197.922" rx="48.0937" ry="26"/>
<text text-anchor="middle" x="559" y="-194.222" font-family="Times,serif" font-size="14.00">factorial</text>
</a>
</g>
</g>
<!-- Nat_nat_exp -->
<g id="node2" class="node"><title>Nat_nat_exp</title>
<g id="a_node2"><a xlink:href="Nat.html#nat_exp" xlink:title="nat_exp">
<ellipse fill="#f070d1" stroke="black" cx="446" cy="-197.922" rx="38.2201" ry="18"/>
<ellipse fill="none" stroke="black" cx="446" cy="-197.922" rx="42.2069" ry="22"/>
<ellipse fill="none" stroke="black" cx="446" cy="-197.922" rx="46.1937" ry="26"/>
<text text-anchor="middle" x="446" y="-194.222" font-family="Times,serif" font-size="14.00">nat_exp</text>
</a>
</g>
</g>
<!-- Nat_nat_plus_comm -->
<g id="node3" class="node"><title>Nat_nat_plus_comm</title>
<g id="a_node3"><a xlink:href="Nat.html#nat_plus_comm" xlink:title="nat_plus_comm">
<ellipse fill="#facdef" stroke="black" cx="306" cy="-197.922" rx="67.6782" ry="18"/>
<ellipse fill="none" stroke="black" cx="306" cy="-197.922" rx="71.6831" ry="22"/>
<ellipse fill="none" stroke="black" cx="306" cy="-197.922" rx="75.6881" ry="26"/>
<text text-anchor="middle" x="306" y="-194.222" font-family="Times,serif" font-size="14.00">nat_plus_comm</text>
</a>
</g>
</g>
<!-- Nat_nat_plus_n_Sm -->
<g id="node4" class="node"><title>Nat_nat_plus_n_Sm</title>
<g id="a_node4"><a xlink:href="Nat.html#nat_plus_n_Sm" xlink:title="nat_plus_n_Sm">
<ellipse fill="#facdef" stroke="black" cx="234" cy="-58.9218" rx="65.7887" ry="18"/>
<text text-anchor="middle" x="234" y="-55.2218" font-family="Times,serif" font-size="14.00">nat_plus_n_Sm</text>
</a>
</g>
</g>
<!-- Nat_nat_plus_comm&#45;&gt;Nat_nat_plus_n_Sm -->
<g id="edge1" class="edge"><title>Nat_nat_plus_comm&#45;&gt;Nat_nat_plus_n_Sm</title>
<path fill="none" stroke="black" d="M292.626,-172.103C279.933,-147.597 260.928,-110.908 248.024,-85.9966"/>
<polygon fill="black" stroke="black" points="251.111,-84.3454 243.404,-77.0758 244.895,-87.5651 251.111,-84.3454"/>
</g>
<!-- Nat_nat_plus_n_O -->
<g id="node5" class="node"><title>Nat_nat_plus_n_O</title>
<g id="a_node5"><a xlink:href="Nat.html#nat_plus_n_O" xlink:title="nat_plus_n_O">
<ellipse fill="#facdef" stroke="black" cx="377" cy="-58.9218" rx="59.5901" ry="18"/>
<text text-anchor="middle" x="377" y="-55.2218" font-family="Times,serif" font-size="14.00">nat_plus_n_O</text>
</a>
</g>
</g>
<!-- Nat_nat_plus_comm&#45;&gt;Nat_nat_plus_n_O -->
<g id="edge2" class="edge"><title>Nat_nat_plus_comm&#45;&gt;Nat_nat_plus_n_O</title>
<path fill="none" stroke="black" d="M319.188,-172.103C331.705,-147.597 350.446,-110.908 363.17,-85.9966"/>
<polygon fill="black" stroke="black" points="366.295,-87.5734 367.727,-77.0758 360.061,-84.3892 366.295,-87.5734"/>
</g>
<!-- Nat_nat_rec -->
<g id="node6" class="node"><title>Nat_nat_rec</title>
<g id="a_node6"><a xlink:href="Nat.html#nat_rec" xlink:title="nat_rec">
<ellipse fill="#f070d1" stroke="black" cx="168" cy="-197.922" rx="36.3123" ry="18"/>
<ellipse fill="none" stroke="black" cx="168" cy="-197.922" rx="40.3031" ry="22"/>
<ellipse fill="none" stroke="black" cx="168" cy="-197.922" rx="44.2938" ry="26"/>
<text text-anchor="middle" x="168" y="-194.222" font-family="Times,serif" font-size="14.00">nat_rec</text>
</a>
</g>
</g>
<!-- Nat_nat_ind -->
<g id="node7" class="node"><title>Nat_nat_ind</title>
<g id="a_node7"><a xlink:href="Nat.html#nat_ind" xlink:title="nat_ind">
<ellipse fill="#f070d1" stroke="black" cx="61" cy="-197.922" rx="37.0852" ry="18"/>
<ellipse fill="none" stroke="black" cx="61" cy="-197.922" rx="41.0893" ry="22"/>
<ellipse fill="none" stroke="black" cx="61" cy="-197.922" rx="45.0935" ry="26"/>
<text text-anchor="middle" x="61" y="-194.222" font-family="Times,serif" font-size="14.00">nat_ind</text>
</a>
</g>
</g>
</g>
</svg>
