<?xml version="1.0" encoding="UTF-8" standalone="no"?>
<!DOCTYPE svg PUBLIC "-//W3C//DTD SVG 1.1//EN"
 "http://www.w3.org/Graphics/SVG/1.1/DTD/svg11.dtd">
<!-- Generated by graphviz version 2.39.20141222.0545 (20141222.0545)
 -->
<!-- Title: HoTT_categories_Grothendieck Pages: 1 -->
<svg width="3311pt" height="1660pt"
 viewBox="0.00 0.00 3311.00 1659.50" xmlns="http://www.w3.org/2000/svg" xmlns:xlink="http://www.w3.org/1999/xlink">
<g id="graph0" class="graph" transform="scale(1 1) rotate(0) translate(4 1655.5)">
<title>HoTT_categories_Grothendieck</title>
<polygon fill="white" stroke="transparent" points="-4,4 -4,-1655.5 3307,-1655.5 3307,4 -4,4"/>
<g id="clust1" class="cluster"><title>cluster_PseudofunctorToCat</title>
<polygon fill="#ffffc3" stroke="black" points="2318,-255.551 2318,-1236.23 3295,-1236.23 3295,-255.551 2318,-255.551"/>
<text text-anchor="middle" x="2382" y="-1221.03" font-family="Times,serif" font-size="14.00">PseudofunctorToCat</text>
</g>
<g id="clust2" class="cluster"><title>cluster_Univalent</title>
<polygon fill="#ffffc3" stroke="black" points="8,-971.095 8,-1552.47 321,-1552.47 321,-971.095 8,-971.095"/>
<text text-anchor="middle" x="43" y="-1537.27" font-family="Times,serif" font-size="14.00">Univalent</text>
</g>
<g id="clust3" class="cluster"><title>cluster_ToCat</title>
<polygon fill="#ffffc3" stroke="black" points="2835,-1261.78 2835,-1552.47 3037,-1552.47 3037,-1261.78 2835,-1261.78"/>
<text text-anchor="middle" x="2860" y="-1537.27" font-family="Times,serif" font-size="14.00">ToCat</text>
</g>
<g id="clust4" class="cluster"><title>cluster_ToSet</title>
<polygon fill="#ffffc3" stroke="black" points="1469,-485.547 1469,-1625.94 2310,-1625.94 2310,-485.547 1469,-485.547"/>
<text text-anchor="middle" x="1493.5" y="-1610.74" font-family="Times,serif" font-size="14.00">ToSet</text>
</g>
<g id="clust5" class="cluster"><title>cluster_ToSet_Core</title>
<polygon fill="#ffffa3" stroke="black" points="1733,-1287.34 1733,-1526.92 1833,-1526.92 1833,-1287.34 1733,-1287.34"/>
<text text-anchor="middle" x="1754.5" y="-1511.72" font-family="Times,serif" font-size="14.00">Core</text>
</g>
<g id="clust6" class="cluster"><title>cluster_Morphisms</title>
<polygon fill="#ffffc3" stroke="black" points="329,-971.095 329,-1210.67 641,-1210.67 641,-971.095 329,-971.095"/>
<text text-anchor="middle" x="369" y="-1195.47" font-family="Times,serif" font-size="14.00">Morphisms</text>
</g>
<g id="clust7" class="cluster"><title>cluster_Core</title>
<polygon fill="#ffffc3" stroke="black" points="649,-25.5551 649,-1236.23 1353,-1236.23 1353,-25.5551 649,-25.5551"/>
<text text-anchor="middle" x="670.5" y="-1221.03" font-family="Times,serif" font-size="14.00">Core</text>
</g>
<!-- Univalent_preservation -->
<g id="node1" class="node"><title>Univalent_preservation</title>
<g id="a_node1"><a xlink:href="Univalent.html#preservation" xlink:title="preservation">
<ellipse fill="#f070d1" stroke="black" cx="78" cy="-1370.56" rx="53.8975" ry="18"/>
<ellipse fill="none" stroke="black" cx="78" cy="-1370.56" rx="57.894" ry="22"/>
<ellipse fill="none" stroke="black" cx="78" cy="-1370.56" rx="61.8905" ry="26"/>
<text text-anchor="middle" x="78" y="-1366.86" font-family="Times,serif" font-size="14.00">preservation</text>
</a>
</g>
</g>
<!-- Core_category -->
<g id="node42" class="node"><title>Core_category</title>
<g id="a_node42"><a xlink:href="Core.html#category" xlink:title="category">
<ellipse fill="#f070d1" stroke="black" cx="1077" cy="-798.555" rx="40.8928" ry="18"/>
<text text-anchor="middle" x="1077" y="-794.855" font-family="Times,serif" font-size="14.00">category</text>
</a>
</g>
</g>
<!-- Univalent_preservation&#45;&gt;Core_category -->
<g id="edge1" class="edge"><title>Univalent_preservation&#45;&gt;Core_category</title>
<path fill="none" stroke="black" d="M71.4956,-1344.36C57.5407,-1281.3 32.1083,-1119.6 112,-1028.56 385.335,-717.07 620.343,-926.142 1020,-816.555 1024.64,-815.284 1029.46,-813.884 1034.25,-812.443"/>
<polygon fill="black" stroke="black" points="1035.44,-815.739 1043.97,-809.456 1033.39,-809.047 1035.44,-815.739"/>
</g>
<!-- Univalent_category_isotoid -->
<g id="node2" class="node"><title>Univalent_category_isotoid</title>
<g id="a_node2"><a xlink:href="Univalent.html#category_isotoid" xlink:title="category_isotoid">
<ellipse fill="#f070d1" stroke="black" cx="235" cy="-1370.56" rx="69.5832" ry="18"/>
<ellipse fill="none" stroke="black" cx="235" cy="-1370.56" rx="73.5854" ry="22"/>
<ellipse fill="none" stroke="black" cx="235" cy="-1370.56" rx="77.5877" ry="26"/>
<text text-anchor="middle" x="235" y="-1366.86" font-family="Times,serif" font-size="14.00">category_isotoid</text>
</a>
</g>
</g>
<!-- Univalent_category_isotoid_helper -->
<g id="node3" class="node"><title>Univalent_category_isotoid_helper</title>
<g id="a_node3"><a xlink:href="Univalent.html#category_isotoid_helper" xlink:title="category_isotoid_helper">
<ellipse fill="#f070d1" stroke="black" cx="217" cy="-1054.56" rx="95.5831" ry="18"/>
<text text-anchor="middle" x="217" y="-1050.86" font-family="Times,serif" font-size="14.00">category_isotoid_helper</text>
</a>
</g>
</g>
<!-- Univalent_category_isotoid&#45;&gt;Univalent_category_isotoid_helper -->
<g id="edge2" class="edge"><title>Univalent_category_isotoid&#45;&gt;Univalent_category_isotoid_helper</title>
<path fill="none" stroke="black" d="M233.512,-1344.43C230.166,-1285.7 222.076,-1143.67 218.615,-1082.9"/>
<polygon fill="black" stroke="black" points="222.106,-1082.66 218.043,-1072.87 215.118,-1083.05 222.106,-1082.66"/>
</g>
<!-- Morphisms_isequiv_sigma_category_isomorphism -->
<g id="node40" class="node"><title>Morphisms_isequiv_sigma_category_isomorphism</title>
<g id="a_node40"><a xlink:href="Morphisms.html#isequiv_sigma_category_isomorphism" xlink:title="isequiv_sigma_category_isomorphism">
<ellipse fill="#f070d1" stroke="black" cx="485" cy="-1054.56" rx="147.574" ry="18"/>
<text text-anchor="middle" x="485" y="-1050.86" font-family="Times,serif" font-size="14.00">isequiv_sigma_category_isomorphism</text>
</a>
</g>
</g>
<!-- Univalent_category_isotoid&#45;&gt;Morphisms_isequiv_sigma_category_isomorphism -->
<g id="edge3" class="edge"><title>Univalent_category_isotoid&#45;&gt;Morphisms_isequiv_sigma_category_isomorphism</title>
<path fill="none" stroke="black" d="M255.036,-1345.23C301.64,-1286.32 416.942,-1140.58 464.244,-1080.79"/>
<polygon fill="black" stroke="black" points="467.254,-1082.63 470.714,-1072.61 461.764,-1078.28 467.254,-1082.63"/>
</g>
<!-- Core_issig_pair -->
<g id="node50" class="node"><title>Core_issig_pair</title>
<g id="a_node50"><a xlink:href="Core.html#issig_pair" xlink:title="issig_pair">
<ellipse fill="#f070d1" stroke="black" cx="718" cy="-798.555" rx="44.6926" ry="18"/>
<text text-anchor="middle" x="718" y="-794.855" font-family="Times,serif" font-size="14.00">issig_pair</text>
</a>
</g>
</g>
<!-- Univalent_category_isotoid&#45;&gt;Core_issig_pair -->
<g id="edge4" class="edge"><title>Univalent_category_isotoid&#45;&gt;Core_issig_pair</title>
<path fill="none" stroke="black" d="M211.227,-1345.33C158.042,-1285.75 39.6085,-1133.46 112,-1028.56 178.417,-932.307 536.414,-840.743 668.772,-809.695"/>
<polygon fill="black" stroke="black" points="669.704,-813.072 678.648,-807.393 668.114,-806.255 669.704,-813.072"/>
</g>
<!-- ToSet_pr1 -->
<g id="node4" class="node"><title>ToSet_pr1</title>
<g id="a_node4"><a xlink:href="ToSet.html#pr1" xlink:title="pr1">
<ellipse fill="#f070d1" stroke="black" cx="2108" cy="-1370.56" rx="27" ry="18"/>
<ellipse fill="none" stroke="black" cx="2108" cy="-1370.56" rx="31" ry="22"/>
<ellipse fill="none" stroke="black" cx="2108" cy="-1370.56" rx="35" ry="26"/>
<text text-anchor="middle" x="2108" y="-1366.86" font-family="Times,serif" font-size="14.00">pr1</text>
</a>
</g>
</g>
<!-- ToSet_category -->
<g id="node5" class="node"><title>ToSet_category</title>
<g id="a_node5"><a xlink:href="ToSet.html#category" xlink:title="category">
<ellipse fill="#f070d1" stroke="black" cx="2066" cy="-1054.56" rx="40.8928" ry="18"/>
<text text-anchor="middle" x="2066" y="-1050.86" font-family="Times,serif" font-size="14.00">category</text>
</a>
</g>
</g>
<!-- ToSet_pr1&#45;&gt;ToSet_category -->
<g id="edge5" class="edge"><title>ToSet_pr1&#45;&gt;ToSet_category</title>
<path fill="none" stroke="black" d="M2104.53,-1344.43C2096.72,-1285.7 2077.84,-1143.67 2069.77,-1082.9"/>
<polygon fill="black" stroke="black" points="2073.22,-1082.32 2068.43,-1072.87 2066.28,-1083.25 2073.22,-1082.32"/>
</g>
<!-- ToSet_category_subproof1 -->
<g id="node6" class="node"><title>ToSet_category_subproof1</title>
<g id="a_node6"><a xlink:href="ToSet.html#category_subproof1" xlink:title="category_subproof1">
<ellipse fill="#f070d1" stroke="black" cx="1845" cy="-798.555" rx="81.4863" ry="18"/>
<text text-anchor="middle" x="1845" y="-794.855" font-family="Times,serif" font-size="14.00">category_subproof1</text>
</a>
</g>
</g>
<!-- ToSet_category&#45;&gt;ToSet_category_subproof1 -->
<g id="edge6" class="edge"><title>ToSet_category&#45;&gt;ToSet_category_subproof1</title>
<path fill="none" stroke="black" d="M2051.16,-1037.36C2013.12,-993.306 1912.03,-876.196 1867.08,-824.129"/>
<polygon fill="black" stroke="black" points="1869.55,-821.634 1860.36,-816.352 1864.25,-826.208 1869.55,-821.634"/>
</g>
<!-- ToSet_category_subproof0 -->
<g id="node7" class="node"><title>ToSet_category_subproof0</title>
<g id="a_node7"><a xlink:href="ToSet.html#category_subproof0" xlink:title="category_subproof0">
<ellipse fill="#f070d1" stroke="black" cx="2025" cy="-798.555" rx="81.4863" ry="18"/>
<text text-anchor="middle" x="2025" y="-794.855" font-family="Times,serif" font-size="14.00">category_subproof0</text>
</a>
</g>
</g>
<!-- ToSet_category&#45;&gt;ToSet_category_subproof0 -->
<g id="edge7" class="edge"><title>ToSet_category&#45;&gt;ToSet_category_subproof0</title>
<path fill="none" stroke="black" d="M2063.12,-1036.55C2056.09,-992.686 2038.04,-879.984 2029.55,-826.949"/>
<polygon fill="black" stroke="black" points="2032.97,-826.2 2027.93,-816.879 2026.06,-827.307 2032.97,-826.2"/>
</g>
<!-- ToSet_category_subproof -->
<g id="node8" class="node"><title>ToSet_category_subproof</title>
<g id="a_node8"><a xlink:href="ToSet.html#category_subproof" xlink:title="category_subproof">
<ellipse fill="#f070d1" stroke="black" cx="1669" cy="-798.555" rx="76.8869" ry="18"/>
<text text-anchor="middle" x="1669" y="-794.855" font-family="Times,serif" font-size="14.00">category_subproof</text>
</a>
</g>
</g>
<!-- ToSet_category&#45;&gt;ToSet_category_subproof -->
<g id="edge8" class="edge"><title>ToSet_category&#45;&gt;ToSet_category_subproof</title>
<path fill="none" stroke="black" d="M2042.65,-1039.5C1975.83,-996.411 1783.59,-872.446 1704.07,-821.172"/>
<polygon fill="black" stroke="black" points="1705.7,-818.054 1695.4,-815.576 1701.9,-823.937 1705.7,-818.054"/>
</g>
<!-- ToSet_identity -->
<g id="node9" class="node"><title>ToSet_identity</title>
<g id="a_node9"><a xlink:href="ToSet.html#identity" xlink:title="identity">
<ellipse fill="#f070d1" stroke="black" cx="2264" cy="-798.555" rx="37.8943" ry="18"/>
<text text-anchor="middle" x="2264" y="-794.855" font-family="Times,serif" font-size="14.00">identity</text>
</a>
</g>
</g>
<!-- ToSet_category&#45;&gt;ToSet_identity -->
<g id="edge9" class="edge"><title>ToSet_category&#45;&gt;ToSet_identity</title>
<path fill="none" stroke="black" d="M2079.3,-1037.36C2113.47,-993.184 2204.45,-875.548 2244.55,-823.698"/>
<polygon fill="black" stroke="black" points="2247.41,-825.726 2250.76,-815.675 2241.87,-821.444 2247.41,-825.726"/>
</g>
<!-- ToSet_compose -->
<g id="node11" class="node"><title>ToSet_compose</title>
<g id="a_node11"><a xlink:href="ToSet.html#compose" xlink:title="compose">
<ellipse fill="#f070d1" stroke="black" cx="2166" cy="-798.555" rx="42.4939" ry="18"/>
<text text-anchor="middle" x="2166" y="-794.855" font-family="Times,serif" font-size="14.00">compose</text>
</a>
</g>
</g>
<!-- ToSet_category&#45;&gt;ToSet_compose -->
<g id="edge10" class="edge"><title>ToSet_category&#45;&gt;ToSet_compose</title>
<path fill="none" stroke="black" d="M2073.03,-1036.55C2090.28,-992.396 2134.78,-878.49 2155.32,-825.905"/>
<polygon fill="black" stroke="black" points="2158.6,-827.125 2158.98,-816.537 2152.08,-824.578 2158.6,-827.125"/>
</g>
<!-- Core_category_subproof1 -->
<g id="node43" class="node"><title>Core_category_subproof1</title>
<g id="a_node43"><a xlink:href="Core.html#category_subproof1" xlink:title="category_subproof1">
<ellipse fill="#facdef" stroke="black" cx="1084" cy="-568.555" rx="81.4863" ry="18"/>
<text text-anchor="middle" x="1084" y="-564.855" font-family="Times,serif" font-size="14.00">category_subproof1</text>
</a>
</g>
</g>
<!-- ToSet_category_subproof1&#45;&gt;Core_category_subproof1 -->
<g id="edge11" class="edge"><title>ToSet_category_subproof1&#45;&gt;Core_category_subproof1</title>
<path fill="none" stroke="black" d="M1796.82,-783.993C1663,-743.547 1287.1,-629.94 1142.09,-586.111"/>
<polygon fill="black" stroke="black" points="1143.05,-582.744 1132.46,-583.202 1141.02,-589.445 1143.05,-582.744"/>
</g>
<!-- Core_category_subproof0 -->
<g id="node44" class="node"><title>Core_category_subproof0</title>
<g id="a_node44"><a xlink:href="Core.html#category_subproof0" xlink:title="category_subproof0">
<ellipse fill="#facdef" stroke="black" cx="1264" cy="-568.555" rx="81.4863" ry="18"/>
<text text-anchor="middle" x="1264" y="-564.855" font-family="Times,serif" font-size="14.00">category_subproof0</text>
</a>
</g>
</g>
<!-- ToSet_category_subproof0&#45;&gt;Core_category_subproof0 -->
<g id="edge12" class="edge"><title>ToSet_category_subproof0&#45;&gt;Core_category_subproof0</title>
<path fill="none" stroke="black" d="M1976.82,-783.993C1843,-743.547 1467.1,-629.94 1322.09,-586.111"/>
<polygon fill="black" stroke="black" points="1323.05,-582.744 1312.46,-583.202 1321.02,-589.445 1323.05,-582.744"/>
</g>
<!-- Core_category_subproof -->
<g id="node45" class="node"><title>Core_category_subproof</title>
<g id="a_node45"><a xlink:href="Core.html#category_subproof" xlink:title="category_subproof">
<ellipse fill="#facdef" stroke="black" cx="908" cy="-568.555" rx="76.8869" ry="18"/>
<text text-anchor="middle" x="908" y="-564.855" font-family="Times,serif" font-size="14.00">category_subproof</text>
</a>
</g>
</g>
<!-- ToSet_category_subproof&#45;&gt;Core_category_subproof -->
<g id="edge13" class="edge"><title>ToSet_category_subproof&#45;&gt;Core_category_subproof</title>
<path fill="none" stroke="black" d="M1621.68,-784.254C1488.34,-743.953 1109.8,-629.546 965.154,-585.829"/>
<polygon fill="black" stroke="black" points="965.735,-582.348 955.15,-582.806 963.71,-589.049 965.735,-582.348"/>
</g>
<!-- ToSet_identity_H -->
<g id="node10" class="node"><title>ToSet_identity_H</title>
<g id="a_node10"><a xlink:href="ToSet.html#identity_H" xlink:title="identity_H">
<ellipse fill="#f070d1" stroke="black" cx="2254" cy="-568.555" rx="48.1917" ry="18"/>
<text text-anchor="middle" x="2254" y="-564.855" font-family="Times,serif" font-size="14.00">identity_H</text>
</a>
</g>
</g>
<!-- ToSet_identity&#45;&gt;ToSet_identity_H -->
<g id="edge14" class="edge"><title>ToSet_identity&#45;&gt;ToSet_identity_H</title>
<path fill="none" stroke="black" d="M2263.22,-780.507C2261.48,-740.634 2257.31,-644.78 2255.23,-596.846"/>
<polygon fill="black" stroke="black" points="2258.73,-596.676 2254.79,-586.837 2251.73,-596.98 2258.73,-596.676"/>
</g>
<!-- ToSet_compose_H -->
<g id="node12" class="node"><title>ToSet_compose_H</title>
<g id="a_node12"><a xlink:href="ToSet.html#compose_H" xlink:title="compose_H">
<ellipse fill="#f070d1" stroke="black" cx="2135" cy="-568.555" rx="53.0913" ry="18"/>
<text text-anchor="middle" x="2135" y="-564.855" font-family="Times,serif" font-size="14.00">compose_H</text>
</a>
</g>
</g>
<!-- ToSet_compose&#45;&gt;ToSet_compose_H -->
<g id="edge15" class="edge"><title>ToSet_compose&#45;&gt;ToSet_compose_H</title>
<path fill="none" stroke="black" d="M2163.57,-780.507C2158.19,-740.634 2145.27,-644.78 2138.81,-596.846"/>
<polygon fill="black" stroke="black" points="2142.27,-596.28 2137.46,-586.837 2135.33,-597.215 2142.27,-596.28"/>
</g>
<!-- ToSet_issig_pair -->
<g id="node13" class="node"><title>ToSet_issig_pair</title>
<g id="a_node13"><a xlink:href="ToSet.html#issig_pair" xlink:title="issig_pair">
<ellipse fill="#f070d1" stroke="black" cx="1817" cy="-1054.56" rx="44.7157" ry="18"/>
<ellipse fill="none" stroke="black" cx="1817" cy="-1054.56" rx="48.7041" ry="22"/>
<ellipse fill="none" stroke="black" cx="1817" cy="-1054.56" rx="52.6925" ry="26"/>
<text text-anchor="middle" x="1817" y="-1050.86" font-family="Times,serif" font-size="14.00">issig_pair</text>
</a>
</g>
</g>
<!-- ToSet_Build_Pair -->
<g id="node19" class="node"><title>ToSet_Build_Pair</title>
<g id="a_node19"><a xlink:href="ToSet.html#Build_Pair" xlink:title="Build_Pair">
<ellipse fill="#7faaff" stroke="black" cx="1526" cy="-798.555" rx="48.9926" ry="18"/>
<text text-anchor="middle" x="1526" y="-794.855" font-family="Times,serif" font-size="14.00">Build_Pair</text>
</a>
</g>
</g>
<!-- ToSet_issig_pair&#45;&gt;ToSet_Build_Pair -->
<g id="edge16" class="edge"><title>ToSet_issig_pair&#45;&gt;ToSet_Build_Pair</title>
<path fill="none" stroke="black" d="M1791.18,-1031.84C1736.29,-983.551 1608.5,-871.131 1552.78,-822.112"/>
<polygon fill="black" stroke="black" points="1554.92,-819.332 1545.1,-815.355 1550.29,-824.588 1554.92,-819.332"/>
</g>
<!-- ToSet_Pair_rec -->
<g id="node14" class="node"><title>ToSet_Pair_rec</title>
<g id="a_node14"><a xlink:href="ToSet.html#Pair_rec" xlink:title="Pair_rec">
<ellipse fill="#f070d1" stroke="black" cx="2007" cy="-1370.56" rx="40.1273" ry="18"/>
<ellipse fill="none" stroke="black" cx="2007" cy="-1370.56" rx="44.1105" ry="22"/>
<ellipse fill="none" stroke="black" cx="2007" cy="-1370.56" rx="48.0937" ry="26"/>
<text text-anchor="middle" x="2007" y="-1366.86" font-family="Times,serif" font-size="14.00">Pair_rec</text>
</a>
</g>
</g>
<!-- ToSet_Pair_rect -->
<g id="node16" class="node"><title>ToSet_Pair_rect</title>
<g id="a_node16"><a xlink:href="ToSet.html#Pair_rect" xlink:title="Pair_rect">
<ellipse fill="#f070d1" stroke="black" cx="1704" cy="-1054.56" rx="42.4939" ry="18"/>
<text text-anchor="middle" x="1704" y="-1050.86" font-family="Times,serif" font-size="14.00">Pair_rect</text>
</a>
</g>
</g>
<!-- ToSet_Pair_rec&#45;&gt;ToSet_Pair_rect -->
<g id="edge17" class="edge"><title>ToSet_Pair_rec&#45;&gt;ToSet_Pair_rect</title>
<path fill="none" stroke="black" d="M1984.08,-1347.65C1939.41,-1302.87 1837.82,-1200.31 1755,-1111.56 1745.28,-1101.14 1734.75,-1089.44 1725.79,-1079.36"/>
<polygon fill="black" stroke="black" points="1728.24,-1076.85 1718.99,-1071.68 1723,-1081.49 1728.24,-1076.85"/>
</g>
<!-- ToSet_Pair_ind -->
<g id="node15" class="node"><title>ToSet_Pair_ind</title>
<g id="a_node15"><a xlink:href="ToSet.html#Pair_ind" xlink:title="Pair_ind">
<ellipse fill="#7fffd4" stroke="black" cx="1892" cy="-1370.56" rx="40.1273" ry="18"/>
<ellipse fill="none" stroke="black" cx="1892" cy="-1370.56" rx="44.1105" ry="22"/>
<ellipse fill="none" stroke="black" cx="1892" cy="-1370.56" rx="48.0937" ry="26"/>
<text text-anchor="middle" x="1892" y="-1366.86" font-family="Times,serif" font-size="14.00">Pair_ind</text>
</a>
</g>
</g>
<!-- ToSet_Pair_ind&#45;&gt;ToSet_Pair_rect -->
<g id="edge18" class="edge"><title>ToSet_Pair_ind&#45;&gt;ToSet_Pair_rect</title>
<path fill="none" stroke="black" d="M1877.25,-1345.76C1842.49,-1287.34 1755.7,-1141.46 1719.86,-1081.22"/>
<polygon fill="black" stroke="black" points="1722.69,-1079.12 1714.57,-1072.31 1716.67,-1082.7 1722.69,-1079.12"/>
</g>
<!-- ToSet_Pair_rect&#45;&gt;ToSet_Build_Pair -->
<g id="edge19" class="edge"><title>ToSet_Pair_rect&#45;&gt;ToSet_Build_Pair</title>
<path fill="none" stroke="black" d="M1691.77,-1036.96C1661.03,-992.75 1580.43,-876.834 1544.15,-824.662"/>
<polygon fill="black" stroke="black" points="1546.9,-822.486 1538.32,-816.274 1541.16,-826.483 1546.9,-822.486"/>
</g>
<!-- ToSet_x -->
<g id="node17" class="node"><title>ToSet_x</title>
<g id="a_node17"><a xlink:href="ToSet.html#x" xlink:title="x">
<ellipse fill="#f070d1" stroke="black" cx="1688" cy="-1370.56" rx="27" ry="18"/>
<ellipse fill="none" stroke="black" cx="1688" cy="-1370.56" rx="31" ry="22"/>
<ellipse fill="none" stroke="black" cx="1688" cy="-1370.56" rx="35" ry="26"/>
<text text-anchor="middle" x="1688" y="-1366.86" font-family="Times,serif" font-size="14.00">x</text>
</a>
</g>
</g>
<!-- ToSet_c -->
<g id="node18" class="node"><title>ToSet_c</title>
<g id="a_node18"><a xlink:href="ToSet.html#c" xlink:title="c">
<ellipse fill="#f070d1" stroke="black" cx="1600" cy="-1370.56" rx="27" ry="18"/>
<ellipse fill="none" stroke="black" cx="1600" cy="-1370.56" rx="31" ry="22"/>
<ellipse fill="none" stroke="black" cx="1600" cy="-1370.56" rx="35" ry="26"/>
<text text-anchor="middle" x="1600" y="-1366.86" font-family="Times,serif" font-size="14.00">c</text>
</a>
</g>
</g>
<!-- ToSet_Pair -->
<g id="node20" class="node"><title>ToSet_Pair</title>
<g id="a_node20"><a xlink:href="ToSet.html#Pair" xlink:title="Pair">
<ellipse fill="#e2cdfa" stroke="black" cx="1512" cy="-1370.56" rx="27" ry="18"/>
<ellipse fill="none" stroke="black" cx="1512" cy="-1370.56" rx="31" ry="22"/>
<ellipse fill="none" stroke="black" cx="1512" cy="-1370.56" rx="35" ry="26"/>
<text text-anchor="middle" x="1512" y="-1366.86" font-family="Times,serif" font-size="14.00">Pair</text>
</a>
</g>
</g>
<!-- ToCat_pr1 -->
<g id="node21" class="node"><title>ToCat_pr1</title>
<g id="a_node21"><a xlink:href="ToCat.html#pr1" xlink:title="pr1">
<ellipse fill="#f070d1" stroke="black" cx="2878" cy="-1370.56" rx="27" ry="18"/>
<ellipse fill="none" stroke="black" cx="2878" cy="-1370.56" rx="31" ry="22"/>
<ellipse fill="none" stroke="black" cx="2878" cy="-1370.56" rx="35" ry="26"/>
<text text-anchor="middle" x="2878" y="-1366.86" font-family="Times,serif" font-size="14.00">pr1</text>
</a>
</g>
</g>
<!-- PseudofunctorToCat_pr1 -->
<g id="node23" class="node"><title>PseudofunctorToCat_pr1</title>
<g id="a_node23"><a xlink:href="PseudofunctorToCat.html#pr1" xlink:title="pr1">
<ellipse fill="#f070d1" stroke="black" cx="2890" cy="-1054.56" rx="27" ry="18"/>
<text text-anchor="middle" x="2890" y="-1050.86" font-family="Times,serif" font-size="14.00">pr1</text>
</a>
</g>
</g>
<!-- ToCat_pr1&#45;&gt;PseudofunctorToCat_pr1 -->
<g id="edge20" class="edge"><title>ToCat_pr1&#45;&gt;PseudofunctorToCat_pr1</title>
<path fill="none" stroke="black" d="M2878.99,-1344.43C2881.22,-1285.7 2886.62,-1143.67 2888.92,-1082.9"/>
<polygon fill="black" stroke="black" points="2892.42,-1083 2889.3,-1072.87 2885.43,-1082.73 2892.42,-1083"/>
</g>
<!-- ToCat_category -->
<g id="node22" class="node"><title>ToCat_category</title>
<g id="a_node22"><a xlink:href="ToCat.html#category" xlink:title="category">
<ellipse fill="#f070d1" stroke="black" cx="2980" cy="-1370.56" rx="40.9015" ry="18"/>
<ellipse fill="none" stroke="black" cx="2980" cy="-1370.56" rx="44.8972" ry="22"/>
<ellipse fill="none" stroke="black" cx="2980" cy="-1370.56" rx="48.8928" ry="26"/>
<text text-anchor="middle" x="2980" y="-1366.86" font-family="Times,serif" font-size="14.00">category</text>
</a>
</g>
</g>
<!-- PseudofunctorToCat_category -->
<g id="node24" class="node"><title>PseudofunctorToCat_category</title>
<g id="a_node24"><a xlink:href="PseudofunctorToCat.html#category" xlink:title="category">
<ellipse fill="#f070d1" stroke="black" cx="2908" cy="-798.555" rx="40.8928" ry="18"/>
<text text-anchor="middle" x="2908" y="-794.855" font-family="Times,serif" font-size="14.00">category</text>
</a>
</g>
</g>
<!-- ToCat_category&#45;&gt;PseudofunctorToCat_category -->
<g id="edge21" class="edge"><title>ToCat_category&#45;&gt;PseudofunctorToCat_category</title>
<path fill="none" stroke="black" d="M2976.72,-1344.49C2964.8,-1249.8 2923.85,-924.439 2911.53,-826.602"/>
<polygon fill="black" stroke="black" points="2914.99,-826.067 2910.27,-816.583 2908.05,-826.941 2914.99,-826.067"/>
</g>
<!-- PseudofunctorToCat_pr1&#45;&gt;PseudofunctorToCat_category -->
<g id="edge22" class="edge"><title>PseudofunctorToCat_pr1&#45;&gt;PseudofunctorToCat_category</title>
<path fill="none" stroke="black" d="M2891.27,-1036.55C2894.35,-992.686 2902.27,-879.984 2906,-826.949"/>
<polygon fill="black" stroke="black" points="2909.5,-827.1 2906.71,-816.879 2902.52,-826.609 2909.5,-827.1"/>
</g>
<!-- PseudofunctorToCat_category_subproof1 -->
<g id="node25" class="node"><title>PseudofunctorToCat_category_subproof1</title>
<g id="a_node25"><a xlink:href="PseudofunctorToCat.html#category_subproof1" xlink:title="category_subproof1">
<ellipse fill="#facdef" stroke="black" cx="3147" cy="-568.555" rx="81.4863" ry="18"/>
<text text-anchor="middle" x="3147" y="-564.855" font-family="Times,serif" font-size="14.00">category_subproof1</text>
</a>
</g>
</g>
<!-- PseudofunctorToCat_category&#45;&gt;PseudofunctorToCat_category_subproof1 -->
<g id="edge23" class="edge"><title>PseudofunctorToCat_category&#45;&gt;PseudofunctorToCat_category_subproof1</title>
<path fill="none" stroke="black" d="M2925.19,-782.014C2966.64,-742.123 3072.29,-640.449 3121.31,-593.281"/>
<polygon fill="black" stroke="black" points="3123.89,-595.653 3128.67,-586.197 3119.04,-590.609 3123.89,-595.653"/>
</g>
<!-- PseudofunctorToCat_category_subproof0 -->
<g id="node26" class="node"><title>PseudofunctorToCat_category_subproof0</title>
<g id="a_node26"><a xlink:href="PseudofunctorToCat.html#category_subproof0" xlink:title="category_subproof0">
<ellipse fill="#facdef" stroke="black" cx="2600" cy="-568.555" rx="81.4863" ry="18"/>
<text text-anchor="middle" x="2600" y="-564.855" font-family="Times,serif" font-size="14.00">category_subproof0</text>
</a>
</g>
</g>
<!-- PseudofunctorToCat_category&#45;&gt;PseudofunctorToCat_category_subproof0 -->
<g id="edge24" class="edge"><title>PseudofunctorToCat_category&#45;&gt;PseudofunctorToCat_category_subproof0</title>
<path fill="none" stroke="black" d="M2886.83,-782.746C2833.74,-743.101 2694.7,-639.273 2631.76,-592.275"/>
<polygon fill="black" stroke="black" points="2633.51,-589.212 2623.4,-586.033 2629.32,-594.821 2633.51,-589.212"/>
</g>
<!-- PseudofunctorToCat_category_subproof -->
<g id="node27" class="node"><title>PseudofunctorToCat_category_subproof</title>
<g id="a_node27"><a xlink:href="PseudofunctorToCat.html#category_subproof" xlink:title="category_subproof">
<ellipse fill="#facdef" stroke="black" cx="2776" cy="-568.555" rx="76.8869" ry="18"/>
<text text-anchor="middle" x="2776" y="-564.855" font-family="Times,serif" font-size="14.00">category_subproof</text>
</a>
</g>
</g>
<!-- PseudofunctorToCat_category&#45;&gt;PseudofunctorToCat_category_subproof -->
<g id="edge25" class="edge"><title>PseudofunctorToCat_category&#45;&gt;PseudofunctorToCat_category_subproof</title>
<path fill="none" stroke="black" d="M2897.86,-780.889C2874.88,-740.851 2818.72,-642.995 2791.41,-595.412"/>
<polygon fill="black" stroke="black" points="2794.37,-593.529 2786.36,-586.598 2788.3,-597.014 2794.37,-593.529"/>
</g>
<!-- PseudofunctorToCat_identity -->
<g id="node31" class="node"><title>PseudofunctorToCat_identity</title>
<g id="a_node31"><a xlink:href="PseudofunctorToCat.html#identity" xlink:title="identity">
<ellipse fill="#f070d1" stroke="black" cx="2908" cy="-568.555" rx="37.8943" ry="18"/>
<text text-anchor="middle" x="2908" y="-564.855" font-family="Times,serif" font-size="14.00">identity</text>
</a>
</g>
</g>
<!-- PseudofunctorToCat_category&#45;&gt;PseudofunctorToCat_identity -->
<g id="edge26" class="edge"><title>PseudofunctorToCat_category&#45;&gt;PseudofunctorToCat_identity</title>
<path fill="none" stroke="black" d="M2908,-780.507C2908,-740.634 2908,-644.78 2908,-596.846"/>
<polygon fill="black" stroke="black" points="2911.5,-596.837 2908,-586.837 2904.5,-596.837 2911.5,-596.837"/>
</g>
<!-- PseudofunctorToCat_compose -->
<g id="node32" class="node"><title>PseudofunctorToCat_compose</title>
<g id="a_node32"><a xlink:href="PseudofunctorToCat.html#compose" xlink:title="compose">
<ellipse fill="#f070d1" stroke="black" cx="3006" cy="-568.555" rx="42.4939" ry="18"/>
<text text-anchor="middle" x="3006" y="-564.855" font-family="Times,serif" font-size="14.00">compose</text>
</a>
</g>
</g>
<!-- PseudofunctorToCat_category&#45;&gt;PseudofunctorToCat_compose -->
<g id="edge27" class="edge"><title>PseudofunctorToCat_category&#45;&gt;PseudofunctorToCat_compose</title>
<path fill="none" stroke="black" d="M2915.69,-780.507C2932.79,-740.368 2974.07,-643.497 2994.35,-595.892"/>
<polygon fill="black" stroke="black" points="2997.65,-597.091 2998.35,-586.519 2991.21,-594.347 2997.65,-597.091"/>
</g>
<!-- PseudofunctorToCat_pseudofunctor_to_cat_right_identity_helper -->
<g id="node28" class="node"><title>PseudofunctorToCat_pseudofunctor_to_cat_right_identity_helper</title>
<g id="a_node28"><a xlink:href="PseudofunctorToCat.html#pseudofunctor_to_cat_right_identity_helper" xlink:title="pseudofunctor_to_cat_right_identity_helper">
<ellipse fill="#facdef" stroke="black" cx="3122" cy="-338.555" rx="165.171" ry="18"/>
<text text-anchor="middle" x="3122" y="-334.855" font-family="Times,serif" font-size="14.00">pseudofunctor_to_cat_right_identity_helper</text>
</a>
</g>
</g>
<!-- PseudofunctorToCat_category_subproof1&#45;&gt;PseudofunctorToCat_pseudofunctor_to_cat_right_identity_helper -->
<g id="edge28" class="edge"><title>PseudofunctorToCat_category_subproof1&#45;&gt;PseudofunctorToCat_pseudofunctor_to_cat_right_identity_helper</title>
<path fill="none" stroke="black" d="M3145.04,-550.507C3140.7,-510.634 3130.29,-414.78 3125.08,-366.846"/>
<polygon fill="black" stroke="black" points="3128.55,-366.4 3123.99,-356.837 3121.59,-367.157 3128.55,-366.4"/>
</g>
<!-- PseudofunctorToCat_pseudofunctor_to_cat_left_identity_helper -->
<g id="node29" class="node"><title>PseudofunctorToCat_pseudofunctor_to_cat_left_identity_helper</title>
<g id="a_node29"><a xlink:href="PseudofunctorToCat.html#pseudofunctor_to_cat_left_identity_helper" xlink:title="pseudofunctor_to_cat_left_identity_helper">
<ellipse fill="#facdef" stroke="black" cx="2487" cy="-338.555" rx="160.572" ry="18"/>
<text text-anchor="middle" x="2487" y="-334.855" font-family="Times,serif" font-size="14.00">pseudofunctor_to_cat_left_identity_helper</text>
</a>
</g>
</g>
<!-- PseudofunctorToCat_category_subproof0&#45;&gt;PseudofunctorToCat_pseudofunctor_to_cat_left_identity_helper -->
<g id="edge29" class="edge"><title>PseudofunctorToCat_category_subproof0&#45;&gt;PseudofunctorToCat_pseudofunctor_to_cat_left_identity_helper</title>
<path fill="none" stroke="black" d="M2591.13,-550.507C2571.42,-510.383 2523.86,-413.57 2500.46,-365.945"/>
<polygon fill="black" stroke="black" points="2503.53,-364.269 2495.98,-356.837 2497.25,-367.356 2503.53,-364.269"/>
</g>
<!-- PseudofunctorToCat_pseudofunctor_to_cat_assoc_helper -->
<g id="node30" class="node"><title>PseudofunctorToCat_pseudofunctor_to_cat_assoc_helper</title>
<g id="a_node30"><a xlink:href="PseudofunctorToCat.html#pseudofunctor_to_cat_assoc_helper" xlink:title="pseudofunctor_to_cat_assoc_helper">
<ellipse fill="#facdef" stroke="black" cx="2802" cy="-338.555" rx="136.476" ry="18"/>
<text text-anchor="middle" x="2802" y="-334.855" font-family="Times,serif" font-size="14.00">pseudofunctor_to_cat_assoc_helper</text>
</a>
</g>
</g>
<!-- PseudofunctorToCat_category_subproof&#45;&gt;PseudofunctorToCat_pseudofunctor_to_cat_assoc_helper -->
<g id="edge30" class="edge"><title>PseudofunctorToCat_category_subproof&#45;&gt;PseudofunctorToCat_pseudofunctor_to_cat_assoc_helper</title>
<path fill="none" stroke="black" d="M2778.04,-550.507C2782.55,-510.634 2793.38,-414.78 2798.8,-366.846"/>
<polygon fill="black" stroke="black" points="2802.29,-367.167 2799.93,-356.837 2795.33,-366.381 2802.29,-367.167"/>
</g>
<!-- PseudofunctorToCat_Pair_rec -->
<g id="node33" class="node"><title>PseudofunctorToCat_Pair_rec</title>
<g id="a_node33"><a xlink:href="PseudofunctorToCat.html#Pair_rec" xlink:title="Pair_rec">
<ellipse fill="#f070d1" stroke="black" cx="2753" cy="-1054.56" rx="40.1273" ry="18"/>
<ellipse fill="none" stroke="black" cx="2753" cy="-1054.56" rx="44.1105" ry="22"/>
<ellipse fill="none" stroke="black" cx="2753" cy="-1054.56" rx="48.0937" ry="26"/>
<text text-anchor="middle" x="2753" y="-1050.86" font-family="Times,serif" font-size="14.00">Pair_rec</text>
</a>
</g>
</g>
<!-- PseudofunctorToCat_Pair_rect -->
<g id="node35" class="node"><title>PseudofunctorToCat_Pair_rect</title>
<g id="a_node35"><a xlink:href="PseudofunctorToCat.html#Pair_rect" xlink:title="Pair_rect">
<ellipse fill="#f070d1" stroke="black" cx="2638" cy="-798.555" rx="42.4939" ry="18"/>
<text text-anchor="middle" x="2638" y="-794.855" font-family="Times,serif" font-size="14.00">Pair_rect</text>
</a>
</g>
</g>
<!-- PseudofunctorToCat_Pair_rec&#45;&gt;PseudofunctorToCat_Pair_rect -->
<g id="edge31" class="edge"><title>PseudofunctorToCat_Pair_rec&#45;&gt;PseudofunctorToCat_Pair_rect</title>
<path fill="none" stroke="black" d="M2741.55,-1029.07C2719.77,-980.58 2672.54,-875.433 2650.19,-825.686"/>
<polygon fill="black" stroke="black" points="2653.36,-824.196 2646.07,-816.509 2646.97,-827.065 2653.36,-824.196"/>
</g>
<!-- PseudofunctorToCat_Pair_ind -->
<g id="node34" class="node"><title>PseudofunctorToCat_Pair_ind</title>
<g id="a_node34"><a xlink:href="PseudofunctorToCat.html#Pair_ind" xlink:title="Pair_ind">
<ellipse fill="#7fffd4" stroke="black" cx="2638" cy="-1054.56" rx="40.1273" ry="18"/>
<ellipse fill="none" stroke="black" cx="2638" cy="-1054.56" rx="44.1105" ry="22"/>
<ellipse fill="none" stroke="black" cx="2638" cy="-1054.56" rx="48.0937" ry="26"/>
<text text-anchor="middle" x="2638" y="-1050.86" font-family="Times,serif" font-size="14.00">Pair_ind</text>
</a>
</g>
</g>
<!-- PseudofunctorToCat_Pair_ind&#45;&gt;PseudofunctorToCat_Pair_rect -->
<g id="edge32" class="edge"><title>PseudofunctorToCat_Pair_ind&#45;&gt;PseudofunctorToCat_Pair_rect</title>
<path fill="none" stroke="black" d="M2638,-1028.12C2638,-979.564 2638,-876.577 2638,-826.741"/>
<polygon fill="black" stroke="black" points="2641.5,-826.671 2638,-816.671 2634.5,-826.671 2641.5,-826.671"/>
</g>
<!-- PseudofunctorToCat_Build_Pair -->
<g id="node38" class="node"><title>PseudofunctorToCat_Build_Pair</title>
<g id="a_node38"><a xlink:href="PseudofunctorToCat.html#Build_Pair" xlink:title="Build_Pair">
<ellipse fill="#7faaff" stroke="black" cx="2452" cy="-568.555" rx="48.9926" ry="18"/>
<text text-anchor="middle" x="2452" y="-564.855" font-family="Times,serif" font-size="14.00">Build_Pair</text>
</a>
</g>
</g>
<!-- PseudofunctorToCat_Pair_rect&#45;&gt;PseudofunctorToCat_Build_Pair -->
<g id="edge33" class="edge"><title>PseudofunctorToCat_Pair_rect&#45;&gt;PseudofunctorToCat_Build_Pair</title>
<path fill="none" stroke="black" d="M2624.02,-781.268C2591.5,-741.058 2510.66,-641.096 2472.53,-593.941"/>
<polygon fill="black" stroke="black" points="2475.15,-591.618 2466.14,-586.043 2469.71,-596.02 2475.15,-591.618"/>
</g>
<!-- PseudofunctorToCat_x -->
<g id="node36" class="node"><title>PseudofunctorToCat_x</title>
<g id="a_node36"><a xlink:href="PseudofunctorToCat.html#x" xlink:title="x">
<ellipse fill="#f070d1" stroke="black" cx="2537" cy="-1054.56" rx="27" ry="18"/>
<ellipse fill="none" stroke="black" cx="2537" cy="-1054.56" rx="31" ry="22"/>
<ellipse fill="none" stroke="black" cx="2537" cy="-1054.56" rx="35" ry="26"/>
<text text-anchor="middle" x="2537" y="-1050.86" font-family="Times,serif" font-size="14.00">x</text>
</a>
</g>
</g>
<!-- PseudofunctorToCat_c -->
<g id="node37" class="node"><title>PseudofunctorToCat_c</title>
<g id="a_node37"><a xlink:href="PseudofunctorToCat.html#c" xlink:title="c">
<ellipse fill="#f070d1" stroke="black" cx="2449" cy="-1054.56" rx="27" ry="18"/>
<ellipse fill="none" stroke="black" cx="2449" cy="-1054.56" rx="31" ry="22"/>
<ellipse fill="none" stroke="black" cx="2449" cy="-1054.56" rx="35" ry="26"/>
<text text-anchor="middle" x="2449" y="-1050.86" font-family="Times,serif" font-size="14.00">c</text>
</a>
</g>
</g>
<!-- PseudofunctorToCat_Pair -->
<g id="node39" class="node"><title>PseudofunctorToCat_Pair</title>
<g id="a_node39"><a xlink:href="PseudofunctorToCat.html#Pair" xlink:title="Pair">
<ellipse fill="#e2cdfa" stroke="black" cx="2361" cy="-1054.56" rx="27" ry="18"/>
<ellipse fill="none" stroke="black" cx="2361" cy="-1054.56" rx="31" ry="22"/>
<ellipse fill="none" stroke="black" cx="2361" cy="-1054.56" rx="35" ry="26"/>
<text text-anchor="middle" x="2361" y="-1050.86" font-family="Times,serif" font-size="14.00">Pair</text>
</a>
</g>
</g>
<!-- Morphisms_isequiv_sigma_category_isomorphism&#45;&gt;Core_category -->
<g id="edge34" class="edge"><title>Morphisms_isequiv_sigma_category_isomorphism&#45;&gt;Core_category</title>
<path fill="none" stroke="black" d="M525.225,-1037.16C633.741,-990.235 931.482,-861.482 1038.26,-815.31"/>
<polygon fill="black" stroke="black" points="1039.9,-818.413 1047.69,-811.232 1037.12,-811.988 1039.9,-818.413"/>
</g>
<!-- Core_pr1 -->
<g id="node41" class="node"><title>Core_pr1</title>
<g id="a_node41"><a xlink:href="Core.html#pr1" xlink:title="pr1">
<ellipse fill="#f070d1" stroke="black" cx="1310" cy="-1054.56" rx="27" ry="18"/>
<ellipse fill="none" stroke="black" cx="1310" cy="-1054.56" rx="31" ry="22"/>
<ellipse fill="none" stroke="black" cx="1310" cy="-1054.56" rx="35" ry="26"/>
<text text-anchor="middle" x="1310" y="-1050.86" font-family="Times,serif" font-size="14.00">pr1</text>
</a>
</g>
</g>
<!-- Core_pr1&#45;&gt;Core_category -->
<g id="edge35" class="edge"><title>Core_pr1&#45;&gt;Core_category</title>
<path fill="none" stroke="black" d="M1290.13,-1032.73C1246.89,-985.212 1144.47,-872.684 1099.19,-822.933"/>
<polygon fill="black" stroke="black" points="1101.75,-820.546 1092.43,-815.507 1096.57,-825.258 1101.75,-820.546"/>
</g>
<!-- Core_category&#45;&gt;Core_category_subproof1 -->
<g id="edge36" class="edge"><title>Core_category&#45;&gt;Core_category_subproof1</title>
<path fill="none" stroke="black" d="M1077.55,-780.507C1078.76,-740.634 1081.68,-644.78 1083.14,-596.846"/>
<polygon fill="black" stroke="black" points="1086.64,-596.939 1083.44,-586.837 1079.64,-596.726 1086.64,-596.939"/>
</g>
<!-- Core_category&#45;&gt;Core_category_subproof0 -->
<g id="edge37" class="edge"><title>Core_category&#45;&gt;Core_category_subproof0</title>
<path fill="none" stroke="black" d="M1091.06,-781.268C1123.67,-741.156 1204.62,-641.586 1243.08,-594.289"/>
<polygon fill="black" stroke="black" points="1245.93,-596.326 1249.52,-586.359 1240.5,-591.91 1245.93,-596.326"/>
</g>
<!-- Core_category&#45;&gt;Core_category_subproof -->
<g id="edge38" class="edge"><title>Core_category&#45;&gt;Core_category_subproof</title>
<path fill="none" stroke="black" d="M1064.3,-781.268C1034.89,-741.239 961.964,-641.998 927.125,-594.583"/>
<polygon fill="black" stroke="black" points="929.824,-592.345 921.082,-586.359 924.183,-596.49 929.824,-592.345"/>
</g>
<!-- Core_identity -->
<g id="node46" class="node"><title>Core_identity</title>
<g id="a_node46"><a xlink:href="Core.html#identity" xlink:title="identity">
<ellipse fill="#f070d1" stroke="black" cx="1174" cy="-338.555" rx="37.8943" ry="18"/>
<text text-anchor="middle" x="1174" y="-334.855" font-family="Times,serif" font-size="14.00">identity</text>
</a>
</g>
</g>
<!-- Core_category_subproof1&#45;&gt;Core_identity -->
<g id="edge39" class="edge"><title>Core_category_subproof1&#45;&gt;Core_identity</title>
<path fill="none" stroke="black" d="M1091.06,-550.507C1106.77,-510.368 1144.67,-413.497 1163.3,-365.892"/>
<polygon fill="black" stroke="black" points="1166.59,-367.107 1166.97,-356.519 1160.07,-364.556 1166.59,-367.107"/>
</g>
<!-- ToSet_Core_compose -->
<g id="node48" class="node"><title>ToSet_Core_compose</title>
<g id="a_node48"><a xlink:href="ToSet.html#Core.compose" xlink:title="compose">
<ellipse fill="#f070d1" stroke="black" cx="1783" cy="-1370.56" rx="42.4939" ry="18"/>
<text text-anchor="middle" x="1783" y="-1366.86" font-family="Times,serif" font-size="14.00">compose</text>
</a>
</g>
</g>
<!-- Core_category_subproof1&#45;&gt;ToSet_Core_compose -->
<g id="edge40" class="edge"><title>Core_category_subproof1&#45;&gt;ToSet_Core_compose</title>
<path fill="none" stroke="black" d="M1124.75,-584.272C1191.81,-612.46 1324.26,-678.383 1387,-780.555 1464.75,-907.177 1358.03,-983.86 1434,-1111.56 1434.63,-1112.62 1669.7,-1286.68 1753.64,-1348.82"/>
<polygon fill="black" stroke="black" points="1751.62,-1351.68 1761.74,-1354.82 1755.78,-1346.06 1751.62,-1351.68"/>
</g>
<!-- Core_category_subproof0&#45;&gt;Core_identity -->
<g id="edge41" class="edge"><title>Core_category_subproof0&#45;&gt;Core_identity</title>
<path fill="none" stroke="black" d="M1256.94,-550.507C1241.23,-510.368 1203.33,-413.497 1184.7,-365.892"/>
<polygon fill="black" stroke="black" points="1187.93,-364.556 1181.03,-356.519 1181.41,-367.107 1187.93,-364.556"/>
</g>
<!-- Core_category_subproof0&#45;&gt;ToSet_Core_compose -->
<g id="edge42" class="edge"><title>Core_category_subproof0&#45;&gt;ToSet_Core_compose</title>
<path fill="none" stroke="black" d="M1282.91,-586.26C1317.78,-620.184 1391.68,-698.312 1425,-780.555 1480.64,-917.896 1393.47,-981.783 1465,-1111.56 1482.71,-1143.68 1677.94,-1291.89 1753.44,-1348.5"/>
<polygon fill="black" stroke="black" points="1751.51,-1351.43 1761.62,-1354.62 1755.71,-1345.83 1751.51,-1351.43"/>
</g>
<!-- Core_category_subproof&#45;&gt;ToSet_Core_compose -->
<g id="edge43" class="edge"><title>Core_category_subproof&#45;&gt;ToSet_Core_compose</title>
<path fill="none" stroke="black" d="M926.828,-586.053C965.191,-621.862 1054.88,-706.388 1127,-780.555 1231.17,-887.68 1265.09,-908.459 1354,-1028.56 1379.49,-1062.98 1373.62,-1080.38 1403,-1111.56 1525.74,-1241.83 1590.78,-1233.34 1737,-1336.56 1742.43,-1340.39 1748.17,-1344.54 1753.68,-1348.59"/>
<polygon fill="black" stroke="black" points="1751.95,-1351.66 1762.07,-1354.79 1756.11,-1346.03 1751.95,-1351.66"/>
</g>
<!-- Core_identity_H -->
<g id="node47" class="node"><title>Core_identity_H</title>
<g id="a_node47"><a xlink:href="Core.html#identity_H" xlink:title="identity_H">
<ellipse fill="#f070d1" stroke="black" cx="1174" cy="-108.555" rx="48.1917" ry="18"/>
<text text-anchor="middle" x="1174" y="-104.855" font-family="Times,serif" font-size="14.00">identity_H</text>
</a>
</g>
</g>
<!-- Core_identity&#45;&gt;Core_identity_H -->
<g id="edge44" class="edge"><title>Core_identity&#45;&gt;Core_identity_H</title>
<path fill="none" stroke="black" d="M1174,-320.507C1174,-280.634 1174,-184.78 1174,-136.846"/>
<polygon fill="black" stroke="black" points="1177.5,-136.837 1174,-126.837 1170.5,-136.837 1177.5,-136.837"/>
</g>
<!-- Core_compose_H -->
<g id="node49" class="node"><title>Core_compose_H</title>
<g id="a_node49"><a xlink:href="Core.html#compose_H" xlink:title="compose_H">
<ellipse fill="#f070d1" stroke="black" cx="1204" cy="-1054.56" rx="53.0913" ry="18"/>
<text text-anchor="middle" x="1204" y="-1050.86" font-family="Times,serif" font-size="14.00">compose_H</text>
</a>
</g>
</g>
<!-- ToSet_Core_compose&#45;&gt;Core_compose_H -->
<g id="edge45" class="edge"><title>ToSet_Core_compose&#45;&gt;Core_compose_H</title>
<path fill="none" stroke="black" d="M1762.97,-1354.46C1755.1,-1348.48 1745.85,-1341.87 1737,-1336.56 1538.15,-1217.06 1458.19,-1241.5 1266,-1111.56 1252.12,-1102.17 1238.25,-1089.77 1227.16,-1078.93"/>
<polygon fill="black" stroke="black" points="1229.5,-1076.33 1219.95,-1071.74 1224.55,-1081.28 1229.5,-1076.33"/>
</g>
<!-- Core_Build_Pair -->
<g id="node56" class="node"><title>Core_Build_Pair</title>
<g id="a_node56"><a xlink:href="Core.html#Build_Pair" xlink:title="Build_Pair">
<ellipse fill="#7faaff" stroke="black" cx="749" cy="-568.555" rx="48.9926" ry="18"/>
<text text-anchor="middle" x="749" y="-564.855" font-family="Times,serif" font-size="14.00">Build_Pair</text>
</a>
</g>
</g>
<!-- Core_issig_pair&#45;&gt;Core_Build_Pair -->
<g id="edge46" class="edge"><title>Core_issig_pair&#45;&gt;Core_Build_Pair</title>
<path fill="none" stroke="black" d="M720.433,-780.507C725.807,-740.634 738.726,-644.78 745.187,-596.846"/>
<polygon fill="black" stroke="black" points="748.669,-597.215 746.536,-586.837 741.731,-596.28 748.669,-597.215"/>
</g>
<!-- Core_Pair_rec -->
<g id="node51" class="node"><title>Core_Pair_rec</title>
<g id="a_node51"><a xlink:href="Core.html#Pair_rec" xlink:title="Pair_rec">
<ellipse fill="#f070d1" stroke="black" cx="1084" cy="-1054.56" rx="40.1273" ry="18"/>
<ellipse fill="none" stroke="black" cx="1084" cy="-1054.56" rx="44.1105" ry="22"/>
<ellipse fill="none" stroke="black" cx="1084" cy="-1054.56" rx="48.0937" ry="26"/>
<text text-anchor="middle" x="1084" y="-1050.86" font-family="Times,serif" font-size="14.00">Pair_rec</text>
</a>
</g>
</g>
<!-- Core_Pair_rect -->
<g id="node53" class="node"><title>Core_Pair_rect</title>
<g id="a_node53"><a xlink:href="Core.html#Pair_rect" xlink:title="Pair_rect">
<ellipse fill="#f070d1" stroke="black" cx="969" cy="-798.555" rx="42.4939" ry="18"/>
<text text-anchor="middle" x="969" y="-794.855" font-family="Times,serif" font-size="14.00">Pair_rect</text>
</a>
</g>
</g>
<!-- Core_Pair_rec&#45;&gt;Core_Pair_rect -->
<g id="edge47" class="edge"><title>Core_Pair_rec&#45;&gt;Core_Pair_rect</title>
<path fill="none" stroke="black" d="M1072.55,-1029.07C1050.77,-980.58 1003.54,-875.433 981.188,-825.686"/>
<polygon fill="black" stroke="black" points="984.356,-824.196 977.065,-816.509 977.97,-827.065 984.356,-824.196"/>
</g>
<!-- Core_Pair_ind -->
<g id="node52" class="node"><title>Core_Pair_ind</title>
<g id="a_node52"><a xlink:href="Core.html#Pair_ind" xlink:title="Pair_ind">
<ellipse fill="#7fffd4" stroke="black" cx="969" cy="-1054.56" rx="40.1273" ry="18"/>
<ellipse fill="none" stroke="black" cx="969" cy="-1054.56" rx="44.1105" ry="22"/>
<ellipse fill="none" stroke="black" cx="969" cy="-1054.56" rx="48.0937" ry="26"/>
<text text-anchor="middle" x="969" y="-1050.86" font-family="Times,serif" font-size="14.00">Pair_ind</text>
</a>
</g>
</g>
<!-- Core_Pair_ind&#45;&gt;Core_Pair_rect -->
<g id="edge48" class="edge"><title>Core_Pair_ind&#45;&gt;Core_Pair_rect</title>
<path fill="none" stroke="black" d="M969,-1028.12C969,-979.564 969,-876.577 969,-826.741"/>
<polygon fill="black" stroke="black" points="972.5,-826.671 969,-816.671 965.5,-826.671 972.5,-826.671"/>
</g>
<!-- Core_Pair_rect&#45;&gt;Core_Build_Pair -->
<g id="edge49" class="edge"><title>Core_Pair_rect&#45;&gt;Core_Build_Pair</title>
<path fill="none" stroke="black" d="M952.823,-781.643C914.378,-741.45 817.407,-640.071 772.497,-593.12"/>
<polygon fill="black" stroke="black" points="774.941,-590.612 765.5,-585.805 769.883,-595.451 774.941,-590.612"/>
</g>
<!-- Core_x -->
<g id="node54" class="node"><title>Core_x</title>
<g id="a_node54"><a xlink:href="Core.html#x" xlink:title="x">
<ellipse fill="#f070d1" stroke="black" cx="868" cy="-1054.56" rx="27" ry="18"/>
<ellipse fill="none" stroke="black" cx="868" cy="-1054.56" rx="31" ry="22"/>
<ellipse fill="none" stroke="black" cx="868" cy="-1054.56" rx="35" ry="26"/>
<text text-anchor="middle" x="868" y="-1050.86" font-family="Times,serif" font-size="14.00">x</text>
</a>
</g>
</g>
<!-- Core_c -->
<g id="node55" class="node"><title>Core_c</title>
<g id="a_node55"><a xlink:href="Core.html#c" xlink:title="c">
<ellipse fill="#f070d1" stroke="black" cx="780" cy="-1054.56" rx="27" ry="18"/>
<ellipse fill="none" stroke="black" cx="780" cy="-1054.56" rx="31" ry="22"/>
<ellipse fill="none" stroke="black" cx="780" cy="-1054.56" rx="35" ry="26"/>
<text text-anchor="middle" x="780" y="-1050.86" font-family="Times,serif" font-size="14.00">c</text>
</a>
</g>
</g>
<!-- Core_Pair -->
<g id="node57" class="node"><title>Core_Pair</title>
<g id="a_node57"><a xlink:href="Core.html#Pair" xlink:title="Pair">
<ellipse fill="#e2cdfa" stroke="black" cx="692" cy="-1054.56" rx="27" ry="18"/>
<ellipse fill="none" stroke="black" cx="692" cy="-1054.56" rx="31" ry="22"/>
<ellipse fill="none" stroke="black" cx="692" cy="-1054.56" rx="35" ry="26"/>
<text text-anchor="middle" x="692" y="-1050.86" font-family="Times,serif" font-size="14.00">Pair</text>
</a>
</g>
</g>
</g>
</svg>
