<?xml version="1.0" encoding="UTF-8" standalone="no"?>
<!DOCTYPE svg PUBLIC "-//W3C//DTD SVG 1.1//EN"
 "http://www.w3.org/Graphics/SVG/1.1/DTD/svg11.dtd">
<!-- Generated by graphviz version 2.39.20141222.0545 (20141222.0545)
 -->
<!-- Title: HoTT_Types_Unit Pages: 1 -->
<svg width="966pt" height="487pt"
 viewBox="0.00 0.00 966.00 487.00" xmlns="http://www.w3.org/2000/svg" xmlns:xlink="http://www.w3.org/1999/xlink">
<g id="graph0" class="graph" transform="scale(1 1) rotate(0) translate(4 483)">
<title>HoTT_Types_Unit</title>
<polygon fill="white" stroke="transparent" points="-4,4 -4,-483 962,-483 962,4 -4,4"/>
<g id="clust1" class="cluster"><title>cluster_Unit</title>
<polygon fill="#ffffc3" stroke="black" points="8,-11.3038 8,-467.696 950,-467.696 950,-11.3038 8,-11.3038"/>
<text text-anchor="middle" x="28.5" y="-452.496" font-family="Times,serif" font-size="14.00">Unit</text>
</g>
<!-- Unit_contr_equiv_unit -->
<g id="node1" class="node"><title>Unit_contr_equiv_unit</title>
<g id="a_node1"><a xlink:href="Unit.html#contr_equiv_unit" xlink:title="contr_equiv_unit">
<ellipse fill="#f070d1" stroke="black" cx="863" cy="-387.304" rx="70.7036" ry="18"/>
<ellipse fill="none" stroke="black" cx="863" cy="-387.304" rx="74.6957" ry="22"/>
<ellipse fill="none" stroke="black" cx="863" cy="-387.304" rx="78.6877" ry="26"/>
<text text-anchor="middle" x="863" y="-383.604" font-family="Times,serif" font-size="14.00">contr_equiv_unit</text>
</a>
</g>
</g>
<!-- Unit_equiv_contr_unit -->
<g id="node2" class="node"><title>Unit_equiv_contr_unit</title>
<g id="a_node2"><a xlink:href="Unit.html#equiv_contr_unit" xlink:title="equiv_contr_unit">
<ellipse fill="#f070d1" stroke="black" cx="687" cy="-387.304" rx="70.7036" ry="18"/>
<ellipse fill="none" stroke="black" cx="687" cy="-387.304" rx="74.6957" ry="22"/>
<ellipse fill="none" stroke="black" cx="687" cy="-387.304" rx="78.6877" ry="26"/>
<text text-anchor="middle" x="687" y="-383.604" font-family="Times,serif" font-size="14.00">equiv_contr_unit</text>
</a>
</g>
</g>
<!-- Unit_contr_unit -->
<g id="node3" class="node"><title>Unit_contr_unit</title>
<g id="a_node3"><a xlink:href="Unit.html#contr_unit" xlink:title="contr_unit">
<ellipse fill="#f070d1" stroke="black" cx="535" cy="-387.304" rx="46.6221" ry="18"/>
<ellipse fill="none" stroke="black" cx="535" cy="-387.304" rx="50.6073" ry="22"/>
<ellipse fill="none" stroke="black" cx="535" cy="-387.304" rx="54.5925" ry="26"/>
<text text-anchor="middle" x="535" y="-383.604" font-family="Times,serif" font-size="14.00">contr_unit</text>
</a>
</g>
</g>
<!-- Unit_equiv_unit_coind -->
<g id="node4" class="node"><title>Unit_equiv_unit_coind</title>
<g id="a_node4"><a xlink:href="Unit.html#equiv_unit_coind" xlink:title="equiv_unit_coind">
<ellipse fill="#f070d1" stroke="black" cx="382" cy="-387.304" rx="72.2731" ry="18"/>
<ellipse fill="none" stroke="black" cx="382" cy="-387.304" rx="76.2803" ry="22"/>
<ellipse fill="none" stroke="black" cx="382" cy="-387.304" rx="80.2875" ry="26"/>
<text text-anchor="middle" x="382" y="-383.604" font-family="Times,serif" font-size="14.00">equiv_unit_coind</text>
</a>
</g>
</g>
<!-- Unit_isequiv_unit_coind -->
<g id="node5" class="node"><title>Unit_isequiv_unit_coind</title>
<g id="a_node5"><a xlink:href="Unit.html#isequiv_unit_coind" xlink:title="isequiv_unit_coind">
<ellipse fill="#f070d1" stroke="black" cx="762" cy="-263.304" rx="77.9862" ry="18"/>
<text text-anchor="middle" x="762" y="-259.604" font-family="Times,serif" font-size="14.00">isequiv_unit_coind</text>
</a>
</g>
</g>
<!-- Unit_equiv_unit_coind&#45;&gt;Unit_isequiv_unit_coind -->
<g id="edge1" class="edge"><title>Unit_equiv_unit_coind&#45;&gt;Unit_isequiv_unit_coind</title>
<path fill="none" stroke="black" d="M438.89,-368.74C511.363,-345.091 635.762,-304.497 707.214,-281.181"/>
<polygon fill="black" stroke="black" points="708.513,-284.439 716.934,-278.01 706.341,-277.785 708.513,-284.439"/>
</g>
<!-- Unit_unit_coind -->
<g id="node6" class="node"><title>Unit_unit_coind</title>
<g id="a_node6"><a xlink:href="Unit.html#unit_coind" xlink:title="unit_coind">
<ellipse fill="#f070d1" stroke="black" cx="762" cy="-149.304" rx="48.1917" ry="18"/>
<text text-anchor="middle" x="762" y="-145.604" font-family="Times,serif" font-size="14.00">unit_coind</text>
</a>
</g>
</g>
<!-- Unit_isequiv_unit_coind&#45;&gt;Unit_unit_coind -->
<g id="edge2" class="edge"><title>Unit_isequiv_unit_coind&#45;&gt;Unit_unit_coind</title>
<path fill="none" stroke="black" d="M762,-245.24C762,-227.087 762,-198.84 762,-177.69"/>
<polygon fill="black" stroke="black" points="765.5,-177.66 762,-167.66 758.5,-177.66 765.5,-177.66"/>
</g>
<!-- Unit_path_unit -->
<g id="node13" class="node"><title>Unit_path_unit</title>
<g id="a_node13"><a xlink:href="Unit.html#path_unit" xlink:title="path_unit">
<ellipse fill="#f070d1" stroke="black" cx="416" cy="-149.304" rx="44.393" ry="18"/>
<text text-anchor="middle" x="416" y="-145.604" font-family="Times,serif" font-size="14.00">path_unit</text>
</a>
</g>
</g>
<!-- Unit_isequiv_unit_coind&#45;&gt;Unit_path_unit -->
<g id="edge3" class="edge"><title>Unit_isequiv_unit_coind&#45;&gt;Unit_path_unit</title>
<path fill="none" stroke="black" d="M717.121,-248.517C650.509,-226.57 526.243,-185.627 460.089,-163.83"/>
<polygon fill="black" stroke="black" points="460.97,-160.435 450.377,-160.63 458.779,-167.084 460.97,-160.435"/>
</g>
<!-- Unit_isequiv_unit_name -->
<g id="node7" class="node"><title>Unit_isequiv_unit_name</title>
<g id="a_node7"><a xlink:href="Unit.html#isequiv_unit_name" xlink:title="isequiv_unit_name">
<ellipse fill="#f070d1" stroke="black" cx="580" cy="-263.304" rx="77.9868" ry="18"/>
<ellipse fill="none" stroke="black" cx="580" cy="-263.304" rx="81.9865" ry="22"/>
<ellipse fill="none" stroke="black" cx="580" cy="-263.304" rx="85.9862" ry="26"/>
<text text-anchor="middle" x="580" y="-259.604" font-family="Times,serif" font-size="14.00">isequiv_unit_name</text>
</a>
</g>
</g>
<!-- Unit_isequiv_unit_name&#45;&gt;Unit_path_unit -->
<g id="edge4" class="edge"><title>Unit_isequiv_unit_name&#45;&gt;Unit_path_unit</title>
<path fill="none" stroke="black" d="M545.62,-239.406C516.509,-219.17 475.144,-190.416 447.028,-170.872"/>
<polygon fill="black" stroke="black" points="448.965,-167.956 438.756,-165.122 444.97,-173.704 448.965,-167.956"/>
</g>
<!-- Unit_isequiv_unit_rec -->
<g id="node8" class="node"><title>Unit_isequiv_unit_rec</title>
<g id="a_node8"><a xlink:href="Unit.html#isequiv_unit_rec" xlink:title="isequiv_unit_rec">
<ellipse fill="#f070d1" stroke="black" cx="206" cy="-387.304" rx="69.5832" ry="18"/>
<ellipse fill="none" stroke="black" cx="206" cy="-387.304" rx="73.5854" ry="22"/>
<ellipse fill="none" stroke="black" cx="206" cy="-387.304" rx="77.5877" ry="26"/>
<text text-anchor="middle" x="206" y="-383.604" font-family="Times,serif" font-size="14.00">isequiv_unit_rec</text>
</a>
</g>
</g>
<!-- Unit_isequiv_unit_ind -->
<g id="node9" class="node"><title>Unit_isequiv_unit_ind</title>
<g id="a_node9"><a xlink:href="Unit.html#isequiv_unit_ind" xlink:title="isequiv_unit_ind">
<ellipse fill="#f070d1" stroke="black" cx="406" cy="-263.304" rx="69.5877" ry="18"/>
<text text-anchor="middle" x="406" y="-259.604" font-family="Times,serif" font-size="14.00">isequiv_unit_ind</text>
</a>
</g>
</g>
<!-- Unit_isequiv_unit_rec&#45;&gt;Unit_isequiv_unit_ind -->
<g id="edge5" class="edge"><title>Unit_isequiv_unit_rec&#45;&gt;Unit_isequiv_unit_ind</title>
<path fill="none" stroke="black" d="M243.15,-364.271C279.495,-341.737 334.467,-307.654 370.305,-285.435"/>
<polygon fill="black" stroke="black" points="372.326,-288.3 378.981,-280.056 368.637,-282.351 372.326,-288.3"/>
</g>
<!-- Unit_equiv_path_unit -->
<g id="node10" class="node"><title>Unit_equiv_path_unit</title>
<g id="a_node10"><a xlink:href="Unit.html#equiv_path_unit" xlink:title="equiv_path_unit">
<ellipse fill="#f070d1" stroke="black" cx="92" cy="-263.304" rx="67.6782" ry="18"/>
<ellipse fill="none" stroke="black" cx="92" cy="-263.304" rx="71.6831" ry="22"/>
<ellipse fill="none" stroke="black" cx="92" cy="-263.304" rx="75.6881" ry="26"/>
<text text-anchor="middle" x="92" y="-259.604" font-family="Times,serif" font-size="14.00">equiv_path_unit</text>
</a>
</g>
</g>
<!-- Unit_isequiv_path_unit -->
<g id="node11" class="node"><title>Unit_isequiv_path_unit</title>
<g id="a_node11"><a xlink:href="Unit.html#isequiv_path_unit" xlink:title="isequiv_path_unit">
<ellipse fill="#f070d1" stroke="black" cx="95" cy="-149.304" rx="73.387" ry="18"/>
<text text-anchor="middle" x="95" y="-145.604" font-family="Times,serif" font-size="14.00">isequiv_path_unit</text>
</a>
</g>
</g>
<!-- Unit_equiv_path_unit&#45;&gt;Unit_isequiv_path_unit -->
<g id="edge6" class="edge"><title>Unit_equiv_path_unit&#45;&gt;Unit_isequiv_path_unit</title>
<path fill="none" stroke="black" d="M92.6883,-237.15C93.1568,-219.346 93.7765,-195.796 94.2564,-177.561"/>
<polygon fill="black" stroke="black" points="97.7562,-177.612 94.5205,-167.523 90.7586,-177.428 97.7562,-177.612"/>
</g>
<!-- Unit_path_unit_uncurried -->
<g id="node14" class="node"><title>Unit_path_unit_uncurried</title>
<g id="a_node14"><a xlink:href="Unit.html#path_unit_uncurried" xlink:title="path_unit_uncurried">
<ellipse fill="#f070d1" stroke="black" cx="257" cy="-48.3038" rx="81.7856" ry="18"/>
<text text-anchor="middle" x="257" y="-44.6038" font-family="Times,serif" font-size="14.00">path_unit_uncurried</text>
</a>
</g>
</g>
<!-- Unit_isequiv_path_unit&#45;&gt;Unit_path_unit_uncurried -->
<g id="edge7" class="edge"><title>Unit_isequiv_path_unit&#45;&gt;Unit_path_unit_uncurried</title>
<path fill="none" stroke="black" d="M122.115,-132.399C149.134,-115.553 190.793,-89.581 220.663,-70.9583"/>
<polygon fill="black" stroke="black" points="222.891,-73.6938 229.525,-65.4331 219.188,-67.7536 222.891,-73.6938"/>
</g>
<!-- Unit_eta_path_unit -->
<g id="node12" class="node"><title>Unit_eta_path_unit</title>
<g id="a_node12"><a xlink:href="Unit.html#eta_path_unit" xlink:title="eta_path_unit">
<ellipse fill="#f070d1" stroke="black" cx="252" cy="-263.304" rx="58.4902" ry="18"/>
<ellipse fill="none" stroke="black" cx="252" cy="-263.304" rx="62.4899" ry="22"/>
<ellipse fill="none" stroke="black" cx="252" cy="-263.304" rx="66.4896" ry="26"/>
<text text-anchor="middle" x="252" y="-259.604" font-family="Times,serif" font-size="14.00">eta_path_unit</text>
</a>
</g>
</g>
<!-- Unit_eta_path_unit&#45;&gt;Unit_path_unit -->
<g id="edge8" class="edge"><title>Unit_eta_path_unit&#45;&gt;Unit_path_unit</title>
<path fill="none" stroke="black" d="M284.794,-240.508C313.935,-220.252 356.232,-190.85 384.861,-170.949"/>
<polygon fill="black" stroke="black" points="387.064,-173.681 393.277,-165.099 383.068,-167.933 387.064,-173.681"/>
</g>
<!-- Unit_path_unit&#45;&gt;Unit_path_unit_uncurried -->
<g id="edge9" class="edge"><title>Unit_path_unit&#45;&gt;Unit_path_unit_uncurried</title>
<path fill="none" stroke="black" d="M391.851,-133.964C365.442,-117.188 322.855,-90.1363 292.611,-70.9245"/>
<polygon fill="black" stroke="black" points="294.36,-67.8894 284.043,-65.4818 290.607,-73.7981 294.36,-67.8894"/>
</g>
<!-- Unit_eta_unit -->
<g id="node15" class="node"><title>Unit_eta_unit</title>
<g id="a_node15"><a xlink:href="Unit.html#eta_unit" xlink:title="eta_unit">
<ellipse fill="#f070d1" stroke="black" cx="63" cy="-387.304" rx="38.9937" ry="18"/>
<ellipse fill="none" stroke="black" cx="63" cy="-387.304" rx="42.9934" ry="22"/>
<ellipse fill="none" stroke="black" cx="63" cy="-387.304" rx="46.9931" ry="26"/>
<text text-anchor="middle" x="63" y="-383.604" font-family="Times,serif" font-size="14.00">eta_unit</text>
</a>
</g>
</g>
</g>
</svg>
