<?xml version="1.0" encoding="UTF-8" standalone="no"?>
<!DOCTYPE svg PUBLIC "-//W3C//DTD SVG 1.1//EN"
 "http://www.w3.org/Graphics/SVG/1.1/DTD/svg11.dtd">
<!-- Generated by graphviz version 2.39.20141222.0545 (20141222.0545)
 -->
<!-- Title: HoTT_Types_Forall Pages: 1 -->
<svg width="1887pt" height="947pt"
 viewBox="0.00 0.00 1887.00 947.50" xmlns="http://www.w3.org/2000/svg" xmlns:xlink="http://www.w3.org/1999/xlink">
<g id="graph0" class="graph" transform="scale(1 1) rotate(0) translate(4 943.5)">
<title>HoTT_Types_Forall</title>
<polygon fill="white" stroke="transparent" points="-4,4 -4,-943.5 1883,-943.5 1883,4 -4,4"/>
<g id="clust1" class="cluster"><title>cluster_Forall</title>
<polygon fill="#ffffc3" stroke="black" points="8,-14.5942 8,-924.906 1871,-924.906 1871,-14.5942 8,-14.5942"/>
<text text-anchor="middle" x="32.5" y="-909.706" font-family="Times,serif" font-size="14.00">Forall</text>
</g>
<!-- Forall_equiv_flip -->
<g id="node1" class="node"><title>Forall_equiv_flip</title>
<g id="a_node1"><a xlink:href="Forall.html#equiv_flip" xlink:title="equiv_flip">
<ellipse fill="#f070d1" stroke="black" cx="1808" cy="-820.594" rx="46.6221" ry="18"/>
<ellipse fill="none" stroke="black" cx="1808" cy="-820.594" rx="50.6073" ry="22"/>
<ellipse fill="none" stroke="black" cx="1808" cy="-820.594" rx="54.5925" ry="26"/>
<text text-anchor="middle" x="1808" y="-816.894" font-family="Times,serif" font-size="14.00">equiv_flip</text>
</a>
</g>
</g>
<!-- Forall_isequiv_flip -->
<g id="node2" class="node"><title>Forall_isequiv_flip</title>
<g id="a_node2"><a xlink:href="Forall.html#isequiv_flip" xlink:title="isequiv_flip">
<ellipse fill="#f070d1" stroke="black" cx="1808" cy="-660.594" rx="52.7911" ry="18"/>
<text text-anchor="middle" x="1808" y="-656.894" font-family="Times,serif" font-size="14.00">isequiv_flip</text>
</a>
</g>
</g>
<!-- Forall_equiv_flip&#45;&gt;Forall_isequiv_flip -->
<g id="edge1" class="edge"><title>Forall_equiv_flip&#45;&gt;Forall_isequiv_flip</title>
<path fill="none" stroke="black" d="M1808,-794.531C1808,-765.509 1808,-718.759 1808,-688.87"/>
<polygon fill="black" stroke="black" points="1811.5,-688.686 1808,-678.686 1804.5,-688.686 1811.5,-688.686"/>
</g>
<!-- Forall_flip -->
<g id="node3" class="node"><title>Forall_flip</title>
<g id="a_node3"><a xlink:href="Forall.html#flip" xlink:title="flip">
<ellipse fill="#f070d1" stroke="black" cx="1808" cy="-514.594" rx="27" ry="18"/>
<text text-anchor="middle" x="1808" y="-510.894" font-family="Times,serif" font-size="14.00">flip</text>
</a>
</g>
</g>
<!-- Forall_isequiv_flip&#45;&gt;Forall_flip -->
<g id="edge2" class="edge"><title>Forall_isequiv_flip&#45;&gt;Forall_flip</title>
<path fill="none" stroke="black" d="M1808,-642.398C1808,-617.481 1808,-572.488 1808,-543.082"/>
<polygon fill="black" stroke="black" points="1811.5,-543.019 1808,-533.019 1804.5,-543.019 1811.5,-543.019"/>
</g>
<!-- Forall_equiv_contr_forall -->
<g id="node4" class="node"><title>Forall_equiv_contr_forall</title>
<g id="a_node4"><a xlink:href="Forall.html#equiv_contr_forall" xlink:title="equiv_contr_forall">
<ellipse fill="#f070d1" stroke="black" cx="1651" cy="-820.594" rx="76.0824" ry="18"/>
<ellipse fill="none" stroke="black" cx="1651" cy="-820.594" rx="80.0845" ry="22"/>
<ellipse fill="none" stroke="black" cx="1651" cy="-820.594" rx="84.0865" ry="26"/>
<text text-anchor="middle" x="1651" y="-816.894" font-family="Times,serif" font-size="14.00">equiv_contr_forall</text>
</a>
</g>
</g>
<!-- Forall_trunc_forall -->
<g id="node5" class="node"><title>Forall_trunc_forall</title>
<g id="a_node5"><a xlink:href="Forall.html#trunc_forall" xlink:title="trunc_forall">
<ellipse fill="#f070d1" stroke="black" cx="1090" cy="-660.594" rx="51.9914" ry="18"/>
<ellipse fill="none" stroke="black" cx="1090" cy="-660.594" rx="55.9911" ry="22"/>
<ellipse fill="none" stroke="black" cx="1090" cy="-660.594" rx="59.9908" ry="26"/>
<text text-anchor="middle" x="1090" y="-656.894" font-family="Times,serif" font-size="14.00">trunc_forall</text>
</a>
</g>
</g>
<!-- Forall_contr_forall -->
<g id="node6" class="node"><title>Forall_contr_forall</title>
<g id="a_node6"><a xlink:href="Forall.html#contr_forall" xlink:title="contr_forall">
<ellipse fill="#f070d1" stroke="black" cx="1090" cy="-514.594" rx="51.9908" ry="18"/>
<text text-anchor="middle" x="1090" y="-510.894" font-family="Times,serif" font-size="14.00">contr_forall</text>
</a>
</g>
</g>
<!-- Forall_trunc_forall&#45;&gt;Forall_contr_forall -->
<g id="edge3" class="edge"><title>Forall_trunc_forall&#45;&gt;Forall_contr_forall</title>
<path fill="none" stroke="black" d="M1090,-634.492C1090,-608.685 1090,-569.315 1090,-542.8"/>
<polygon fill="black" stroke="black" points="1093.5,-542.641 1090,-532.641 1086.5,-542.641 1093.5,-542.641"/>
</g>
<!-- Forall_isequiv_path_forall -->
<g id="node23" class="node"><title>Forall_isequiv_path_forall</title>
<g id="a_node23"><a xlink:href="Forall.html#isequiv_path_forall" xlink:title="isequiv_path_forall">
<ellipse fill="#f070d1" stroke="black" cx="940" cy="-514.594" rx="79.0865" ry="18"/>
<text text-anchor="middle" x="940" y="-510.894" font-family="Times,serif" font-size="14.00">isequiv_path_forall</text>
</a>
</g>
</g>
<!-- Forall_trunc_forall&#45;&gt;Forall_isequiv_path_forall -->
<g id="edge4" class="edge"><title>Forall_trunc_forall&#45;&gt;Forall_isequiv_path_forall</title>
<path fill="none" stroke="black" d="M1065.57,-636.812C1038.1,-610.075 993.688,-566.851 965.708,-539.616"/>
<polygon fill="black" stroke="black" points="967.886,-536.853 958.279,-532.386 963.004,-541.869 967.886,-536.853"/>
</g>
<!-- Forall_equiv_functor_forall_id -->
<g id="node7" class="node"><title>Forall_equiv_functor_forall_id</title>
<g id="a_node7"><a xlink:href="Forall.html#equiv_functor_forall_id" xlink:title="equiv_functor_forall_id">
<ellipse fill="#f070d1" stroke="black" cx="1446" cy="-820.594" rx="94.7917" ry="18"/>
<ellipse fill="none" stroke="black" cx="1446" cy="-820.594" rx="98.7875" ry="22"/>
<ellipse fill="none" stroke="black" cx="1446" cy="-820.594" rx="102.783" ry="26"/>
<text text-anchor="middle" x="1446" y="-816.894" font-family="Times,serif" font-size="14.00">equiv_functor_forall_id</text>
</a>
</g>
</g>
<!-- Forall_equiv_functor_forall -->
<g id="node9" class="node"><title>Forall_equiv_functor_forall</title>
<g id="a_node9"><a xlink:href="Forall.html#equiv_functor_forall" xlink:title="equiv_functor_forall">
<ellipse fill="#f070d1" stroke="black" cx="1392" cy="-660.594" rx="83.3857" ry="18"/>
<text text-anchor="middle" x="1392" y="-656.894" font-family="Times,serif" font-size="14.00">equiv_functor_forall</text>
</a>
</g>
</g>
<!-- Forall_equiv_functor_forall_id&#45;&gt;Forall_equiv_functor_forall -->
<g id="edge5" class="edge"><title>Forall_equiv_functor_forall_id&#45;&gt;Forall_equiv_functor_forall</title>
<path fill="none" stroke="black" d="M1437.2,-794.531C1427.37,-765.382 1411.49,-718.349 1401.41,-688.478"/>
<polygon fill="black" stroke="black" points="1404.62,-687.041 1398.11,-678.686 1397.99,-689.28 1404.62,-687.041"/>
</g>
<!-- Forall_equiv_functor_forall_ -->
<g id="node8" class="node"><title>Forall_equiv_functor_forall_</title>
<g id="a_node8"><a xlink:href="Forall.html#equiv_functor_forall'" xlink:title="equiv_functor_forall&#39;">
<ellipse fill="#f070d1" stroke="black" cx="1232" cy="-820.594" rx="85.2729" ry="18"/>
<ellipse fill="none" stroke="black" cx="1232" cy="-820.594" rx="89.279" ry="22"/>
<ellipse fill="none" stroke="black" cx="1232" cy="-820.594" rx="93.2851" ry="26"/>
<text text-anchor="middle" x="1232" y="-816.894" font-family="Times,serif" font-size="14.00">equiv_functor_forall&#39;</text>
</a>
</g>
</g>
<!-- Forall_equiv_functor_forall_&#45;&gt;Forall_equiv_functor_forall -->
<g id="edge6" class="edge"><title>Forall_equiv_functor_forall_&#45;&gt;Forall_equiv_functor_forall</title>
<path fill="none" stroke="black" d="M1257.35,-795.242C1287.41,-765.186 1337.18,-715.417 1367.05,-685.54"/>
<polygon fill="black" stroke="black" points="1369.6,-687.943 1374.2,-678.397 1364.65,-682.993 1369.6,-687.943"/>
</g>
<!-- Forall_isequiv_functor_forall -->
<g id="node10" class="node"><title>Forall_isequiv_functor_forall</title>
<g id="a_node10"><a xlink:href="Forall.html#isequiv_functor_forall" xlink:title="isequiv_functor_forall">
<ellipse fill="#f070d1" stroke="black" cx="1392" cy="-514.594" rx="89.0842" ry="18"/>
<text text-anchor="middle" x="1392" y="-510.894" font-family="Times,serif" font-size="14.00">isequiv_functor_forall</text>
</a>
</g>
</g>
<!-- Forall_equiv_functor_forall&#45;&gt;Forall_isequiv_functor_forall -->
<g id="edge7" class="edge"><title>Forall_equiv_functor_forall&#45;&gt;Forall_isequiv_functor_forall</title>
<path fill="none" stroke="black" d="M1392,-642.398C1392,-617.481 1392,-572.488 1392,-543.082"/>
<polygon fill="black" stroke="black" points="1395.5,-543.019 1392,-533.019 1388.5,-543.019 1395.5,-543.019"/>
</g>
<!-- Forall_isequiv_functor_forall_subproof0 -->
<g id="node11" class="node"><title>Forall_isequiv_functor_forall_subproof0</title>
<g id="a_node11"><a xlink:href="Forall.html#isequiv_functor_forall_subproof0" xlink:title="isequiv_functor_forall_subproof0">
<ellipse fill="#facdef" stroke="black" cx="1256" cy="-368.594" rx="129.177" ry="18"/>
<text text-anchor="middle" x="1256" y="-364.894" font-family="Times,serif" font-size="14.00">isequiv_functor_forall_subproof0</text>
</a>
</g>
</g>
<!-- Forall_isequiv_functor_forall&#45;&gt;Forall_isequiv_functor_forall_subproof0 -->
<g id="edge8" class="edge"><title>Forall_isequiv_functor_forall&#45;&gt;Forall_isequiv_functor_forall_subproof0</title>
<path fill="none" stroke="black" d="M1375.32,-496.692C1351.36,-470.969 1307.08,-423.426 1279.72,-394.053"/>
<polygon fill="black" stroke="black" points="1282.19,-391.575 1272.81,-386.643 1277.07,-396.346 1282.19,-391.575"/>
</g>
<!-- Forall_isequiv_functor_forall_subproof -->
<g id="node12" class="node"><title>Forall_isequiv_functor_forall_subproof</title>
<g id="a_node12"><a xlink:href="Forall.html#isequiv_functor_forall_subproof" xlink:title="isequiv_functor_forall_subproof">
<ellipse fill="#facdef" stroke="black" cx="1528" cy="-368.594" rx="124.578" ry="18"/>
<text text-anchor="middle" x="1528" y="-364.894" font-family="Times,serif" font-size="14.00">isequiv_functor_forall_subproof</text>
</a>
</g>
</g>
<!-- Forall_isequiv_functor_forall&#45;&gt;Forall_isequiv_functor_forall_subproof -->
<g id="edge9" class="edge"><title>Forall_isequiv_functor_forall&#45;&gt;Forall_isequiv_functor_forall_subproof</title>
<path fill="none" stroke="black" d="M1408.68,-496.692C1432.64,-470.969 1476.92,-423.426 1504.28,-394.053"/>
<polygon fill="black" stroke="black" points="1506.93,-396.346 1511.19,-386.643 1501.81,-391.575 1506.93,-396.346"/>
</g>
<!-- Forall_functor_forall -->
<g id="node14" class="node"><title>Forall_functor_forall</title>
<g id="a_node14"><a xlink:href="Forall.html#functor_forall" xlink:title="functor_forall">
<ellipse fill="#f070d1" stroke="black" cx="1256" cy="-207.594" rx="59.5901" ry="18"/>
<text text-anchor="middle" x="1256" y="-203.894" font-family="Times,serif" font-size="14.00">functor_forall</text>
</a>
</g>
</g>
<!-- Forall_isequiv_functor_forall_subproof0&#45;&gt;Forall_functor_forall -->
<g id="edge10" class="edge"><title>Forall_isequiv_functor_forall_subproof0&#45;&gt;Forall_functor_forall</title>
<path fill="none" stroke="black" d="M1256,-350.438C1256,-322.658 1256,-269.352 1256,-236.298"/>
<polygon fill="black" stroke="black" points="1259.5,-235.931 1256,-225.931 1252.5,-235.931 1259.5,-235.931"/>
</g>
<!-- Forall_isequiv_functor_forall_subproof&#45;&gt;Forall_functor_forall -->
<g id="edge11" class="edge"><title>Forall_isequiv_functor_forall_subproof&#45;&gt;Forall_functor_forall</title>
<path fill="none" stroke="black" d="M1498.37,-351.058C1448.13,-321.32 1346.4,-261.102 1292.09,-228.954"/>
<polygon fill="black" stroke="black" points="1293.54,-225.749 1283.16,-223.668 1289.98,-231.773 1293.54,-225.749"/>
</g>
<!-- Forall_ap_functor_forall -->
<g id="node13" class="node"><title>Forall_ap_functor_forall</title>
<g id="a_node13"><a xlink:href="Forall.html#ap_functor_forall" xlink:title="ap_functor_forall">
<ellipse fill="#f070d1" stroke="black" cx="1029" cy="-368.594" rx="72.2731" ry="18"/>
<ellipse fill="none" stroke="black" cx="1029" cy="-368.594" rx="76.2803" ry="22"/>
<ellipse fill="none" stroke="black" cx="1029" cy="-368.594" rx="80.2875" ry="26"/>
<text text-anchor="middle" x="1029" y="-364.894" font-family="Times,serif" font-size="14.00">ap_functor_forall</text>
</a>
</g>
</g>
<!-- Forall_ap_functor_forall&#45;&gt;Forall_functor_forall -->
<g id="edge12" class="edge"><title>Forall_ap_functor_forall&#45;&gt;Forall_functor_forall</title>
<path fill="none" stroke="black" d="M1062.49,-344.838C1105.99,-313.987 1181.39,-260.513 1224.09,-230.224"/>
<polygon fill="black" stroke="black" points="1226.3,-232.949 1232.43,-224.309 1222.25,-227.24 1226.3,-232.949"/>
</g>
<!-- Forall_path_forall_1 -->
<g id="node25" class="node"><title>Forall_path_forall_1</title>
<g id="a_node25"><a xlink:href="Forall.html#path_forall_1" xlink:title="path_forall_1">
<ellipse fill="#f070d1" stroke="black" cx="914" cy="-207.594" rx="57.6901" ry="18"/>
<text text-anchor="middle" x="914" y="-203.894" font-family="Times,serif" font-size="14.00">path_forall_1</text>
</a>
</g>
</g>
<!-- Forall_ap_functor_forall&#45;&gt;Forall_path_forall_1 -->
<g id="edge13" class="edge"><title>Forall_ap_functor_forall&#45;&gt;Forall_path_forall_1</title>
<path fill="none" stroke="black" d="M1010.78,-343.083C989.45,-313.224 954.311,-264.03 932.756,-233.852"/>
<polygon fill="black" stroke="black" points="935.456,-231.611 926.796,-225.508 929.76,-235.68 935.456,-231.611"/>
</g>
<!-- Forall_dpath_forall_constant -->
<g id="node15" class="node"><title>Forall_dpath_forall_constant</title>
<g id="a_node15"><a xlink:href="Forall.html#dpath_forall_constant" xlink:title="dpath_forall_constant">
<ellipse fill="#f070d1" stroke="black" cx="1026" cy="-820.594" rx="87.1769" ry="18"/>
<ellipse fill="none" stroke="black" cx="1026" cy="-820.594" rx="91.1807" ry="22"/>
<ellipse fill="none" stroke="black" cx="1026" cy="-820.594" rx="95.1846" ry="26"/>
<text text-anchor="middle" x="1026" y="-816.894" font-family="Times,serif" font-size="14.00">dpath_forall_constant</text>
</a>
</g>
</g>
<!-- Forall_equiv_path_forall -->
<g id="node22" class="node"><title>Forall_equiv_path_forall</title>
<g id="a_node22"><a xlink:href="Forall.html#equiv_path_forall" xlink:title="equiv_path_forall">
<ellipse fill="#f070d1" stroke="black" cx="939" cy="-660.594" rx="73.387" ry="18"/>
<text text-anchor="middle" x="939" y="-656.894" font-family="Times,serif" font-size="14.00">equiv_path_forall</text>
</a>
</g>
</g>
<!-- Forall_dpath_forall_constant&#45;&gt;Forall_equiv_path_forall -->
<g id="edge14" class="edge"><title>Forall_dpath_forall_constant&#45;&gt;Forall_equiv_path_forall</title>
<path fill="none" stroke="black" d="M1011.83,-794.531C995.84,-765.127 969.956,-717.526 953.738,-687.699"/>
<polygon fill="black" stroke="black" points="956.689,-685.799 948.837,-678.686 950.539,-689.143 956.689,-685.799"/>
</g>
<!-- Forall_dpath_forall -->
<g id="node16" class="node"><title>Forall_dpath_forall</title>
<g id="a_node16"><a xlink:href="Forall.html#dpath_forall" xlink:title="dpath_forall">
<ellipse fill="#f070d1" stroke="black" cx="851" cy="-820.594" rx="53.8975" ry="18"/>
<ellipse fill="none" stroke="black" cx="851" cy="-820.594" rx="57.894" ry="22"/>
<ellipse fill="none" stroke="black" cx="851" cy="-820.594" rx="61.8905" ry="26"/>
<text text-anchor="middle" x="851" y="-816.894" font-family="Times,serif" font-size="14.00">dpath_forall</text>
</a>
</g>
</g>
<!-- Forall_dpath_forall&#45;&gt;Forall_equiv_path_forall -->
<g id="edge15" class="edge"><title>Forall_dpath_forall&#45;&gt;Forall_equiv_path_forall</title>
<path fill="none" stroke="black" d="M864.944,-795.242C881.037,-765.982 907.406,-718.039 923.952,-687.954"/>
<polygon fill="black" stroke="black" points="927.201,-689.309 928.954,-678.861 921.068,-685.936 927.201,-689.309"/>
</g>
<!-- Forall_ap_lambdaD -->
<g id="node17" class="node"><title>Forall_ap_lambdaD</title>
<g id="a_node17"><a xlink:href="Forall.html#ap_lambdaD" xlink:title="ap_lambdaD">
<ellipse fill="#f070d1" stroke="black" cx="867" cy="-368.594" rx="55.8034" ry="18"/>
<ellipse fill="none" stroke="black" cx="867" cy="-368.594" rx="59.7968" ry="22"/>
<ellipse fill="none" stroke="black" cx="867" cy="-368.594" rx="63.7903" ry="26"/>
<text text-anchor="middle" x="867" y="-364.894" font-family="Times,serif" font-size="14.00">ap_lambdaD</text>
</a>
</g>
</g>
<!-- Forall_ap_lambdaD&#45;&gt;Forall_path_forall_1 -->
<g id="edge16" class="edge"><title>Forall_ap_lambdaD&#45;&gt;Forall_path_forall_1</title>
<path fill="none" stroke="black" d="M874.551,-342.727C883.093,-313.466 896.959,-265.97 905.771,-235.784"/>
<polygon fill="black" stroke="black" points="909.217,-236.467 908.66,-225.887 902.498,-234.505 909.217,-236.467"/>
</g>
<!-- Forall_apD_transport_forall_constant -->
<g id="node18" class="node"><title>Forall_apD_transport_forall_constant</title>
<g id="a_node18"><a xlink:href="Forall.html#apD_transport_forall_constant" xlink:title="apD_transport_forall_constant">
<ellipse fill="#f070d1" stroke="black" cx="645" cy="-820.594" rx="118.093" ry="18"/>
<ellipse fill="none" stroke="black" cx="645" cy="-820.594" rx="122.086" ry="22"/>
<ellipse fill="none" stroke="black" cx="645" cy="-820.594" rx="126.079" ry="26"/>
<text text-anchor="middle" x="645" y="-816.894" font-family="Times,serif" font-size="14.00">apD_transport_forall_constant</text>
</a>
</g>
</g>
<!-- Forall_transport_forall_constant -->
<g id="node19" class="node"><title>Forall_transport_forall_constant</title>
<g id="a_node19"><a xlink:href="Forall.html#transport_forall_constant" xlink:title="transport_forall_constant">
<ellipse fill="#f070d1" stroke="black" cx="645" cy="-660.594" rx="98.5829" ry="18"/>
<text text-anchor="middle" x="645" y="-656.894" font-family="Times,serif" font-size="14.00">transport_forall_constant</text>
</a>
</g>
</g>
<!-- Forall_apD_transport_forall_constant&#45;&gt;Forall_transport_forall_constant -->
<g id="edge17" class="edge"><title>Forall_apD_transport_forall_constant&#45;&gt;Forall_transport_forall_constant</title>
<path fill="none" stroke="black" d="M645,-794.531C645,-765.509 645,-718.759 645,-688.87"/>
<polygon fill="black" stroke="black" points="648.5,-688.686 645,-678.686 641.5,-688.686 648.5,-688.686"/>
</g>
<!-- Forall_transport_forall -->
<g id="node20" class="node"><title>Forall_transport_forall</title>
<g id="a_node20"><a xlink:href="Forall.html#transport_forall" xlink:title="transport_forall">
<ellipse fill="#f070d1" stroke="black" cx="427" cy="-820.594" rx="65.7729" ry="18"/>
<ellipse fill="none" stroke="black" cx="427" cy="-820.594" rx="69.7808" ry="22"/>
<ellipse fill="none" stroke="black" cx="427" cy="-820.594" rx="73.7886" ry="26"/>
<text text-anchor="middle" x="427" y="-816.894" font-family="Times,serif" font-size="14.00">transport_forall</text>
</a>
</g>
</g>
<!-- Forall_path_forall_pp -->
<g id="node21" class="node"><title>Forall_path_forall_pp</title>
<g id="a_node21"><a xlink:href="Forall.html#path_forall_pp" xlink:title="path_forall_pp">
<ellipse fill="#f070d1" stroke="black" cx="1060" cy="-207.594" rx="62.3011" ry="18"/>
<ellipse fill="none" stroke="black" cx="1060" cy="-207.594" rx="66.2951" ry="22"/>
<ellipse fill="none" stroke="black" cx="1060" cy="-207.594" rx="70.2891" ry="26"/>
<text text-anchor="middle" x="1060" y="-203.894" font-family="Times,serif" font-size="14.00">path_forall_pp</text>
</a>
</g>
</g>
<!-- Forall_eta_path_forall -->
<g id="node26" class="node"><title>Forall_eta_path_forall</title>
<g id="a_node26"><a xlink:href="Forall.html#eta_path_forall" xlink:title="eta_path_forall">
<ellipse fill="#f070d1" stroke="black" cx="987" cy="-61.5942" rx="63.8893" ry="18"/>
<text text-anchor="middle" x="987" y="-57.8942" font-family="Times,serif" font-size="14.00">eta_path_forall</text>
</a>
</g>
</g>
<!-- Forall_path_forall_pp&#45;&gt;Forall_eta_path_forall -->
<g id="edge18" class="edge"><title>Forall_path_forall_pp&#45;&gt;Forall_eta_path_forall</title>
<path fill="none" stroke="black" d="M1047.12,-181.828C1034.07,-155.727 1013.96,-115.507 1000.64,-88.8748"/>
<polygon fill="black" stroke="black" points="1003.67,-87.1081 996.067,-79.7291 997.409,-90.2386 1003.67,-87.1081"/>
</g>
<!-- Forall_equiv_path_forall&#45;&gt;Forall_isequiv_path_forall -->
<g id="edge19" class="edge"><title>Forall_equiv_path_forall&#45;&gt;Forall_isequiv_path_forall</title>
<path fill="none" stroke="black" d="M939.125,-642.398C939.295,-617.481 939.603,-572.488 939.805,-543.082"/>
<polygon fill="black" stroke="black" points="943.305,-543.043 939.874,-533.019 936.305,-542.995 943.305,-543.043"/>
</g>
<!-- Forall_equiv_apD10 -->
<g id="node24" class="node"><title>Forall_equiv_apD10</title>
<g id="a_node24"><a xlink:href="Forall.html#equiv_apD10" xlink:title="equiv_apD10">
<ellipse fill="#f070d1" stroke="black" cx="270" cy="-820.594" rx="57.7089" ry="18"/>
<ellipse fill="none" stroke="black" cx="270" cy="-820.594" rx="61.6995" ry="22"/>
<ellipse fill="none" stroke="black" cx="270" cy="-820.594" rx="65.6901" ry="26"/>
<text text-anchor="middle" x="270" y="-816.894" font-family="Times,serif" font-size="14.00">equiv_apD10</text>
</a>
</g>
</g>
<!-- Forall_path_forall_1&#45;&gt;Forall_eta_path_forall -->
<g id="edge20" class="edge"><title>Forall_path_forall_1&#45;&gt;Forall_eta_path_forall</title>
<path fill="none" stroke="black" d="M922.951,-189.692C935.539,-164.516 958.578,-118.439 973.321,-88.9526"/>
<polygon fill="black" stroke="black" points="976.634,-90.1526 977.976,-79.6431 970.373,-87.0221 976.634,-90.1526"/>
</g>
<!-- Forall_apD10_path_forall -->
<g id="node27" class="node"><title>Forall_apD10_path_forall</title>
<g id="a_node27"><a xlink:href="Forall.html#apD10_path_forall" xlink:title="apD10_path_forall">
<ellipse fill="#f070d1" stroke="black" cx="101" cy="-820.594" rx="77.2012" ry="18"/>
<ellipse fill="none" stroke="black" cx="101" cy="-820.594" rx="81.1939" ry="22"/>
<ellipse fill="none" stroke="black" cx="101" cy="-820.594" rx="85.1866" ry="26"/>
<text text-anchor="middle" x="101" y="-816.894" font-family="Times,serif" font-size="14.00">apD10_path_forall</text>
</a>
</g>
</g>
</g>
</svg>
