<?xml version="1.0" encoding="UTF-8" standalone="no"?>
<!DOCTYPE svg PUBLIC "-//W3C//DTD SVG 1.1//EN"
 "http://www.w3.org/Graphics/SVG/1.1/DTD/svg11.dtd">
<!-- Generated by graphviz version 2.26.3 (20100126.1600)
 -->
<!-- Title: HoTT_categories_NaturalTransformation_Identity Pages: 1 -->
<svg width="774pt" height="391pt"
 viewBox="0.00 0.00 774.00 391.00" xmlns="http://www.w3.org/2000/svg" xmlns:xlink="http://www.w3.org/1999/xlink">
<g id="graph1" class="graph" transform="scale(1 1) rotate(0) translate(4 387)">
<title>HoTT_categories_NaturalTransformation_Identity</title>
<polygon fill="white" stroke="white" points="-4,5 -4,-387 771,-387 771,5 -4,5"/>
<g id="graph2" class="cluster"><title>cluster_Identity</title>
<polygon fill="#ffffc3" stroke="black" points="8,-11.7846 8,-371.215 758,-371.215 758,-11.7846 8,-11.7846"/>
<text text-anchor="middle" x="43.5" y="-354.615" font-family="Times Roman,serif" font-size="14.00">Identity</text>
</g>
<!-- Identity_identity -->
<g id="node1" class="node"><title>Identity_identity</title>
<a xlink:href="Identity.html#identity" xlink:title="identity">
<ellipse fill="#f070d1" stroke="black" cx="620" cy="-281.785" rx="49.0671" ry="18.3848"/>
<ellipse fill="none" stroke="black" cx="620" cy="-281.785" rx="53.0323" ry="22.3848"/>
<ellipse fill="none" stroke="black" cx="620" cy="-281.785" rx="56.9975" ry="26.3848"/>
<text text-anchor="middle" x="620" y="-278.185" font-family="Times Roman,serif" font-size="14.00">identity</text>
</a>
</g>
<!-- Identity_generalized_identity_ -->
<g id="node2" class="node"><title>Identity_generalized_identity_</title>
<a xlink:href="Identity.html#generalized_identity&#39;" xlink:title="generalized_identity&#39;">
<ellipse fill="#f070d1" stroke="black" cx="279" cy="-281.785" rx="113.844" ry="18.3848"/>
<ellipse fill="none" stroke="black" cx="279" cy="-281.785" rx="117.844" ry="22.3848"/>
<ellipse fill="none" stroke="black" cx="279" cy="-281.785" rx="121.844" ry="26.3848"/>
<text text-anchor="middle" x="279" y="-278.185" font-family="Times Roman,serif" font-size="14.00">generalized_identity&#39;</text>
</a>
</g>
<!-- Identity_generalized_identity -->
<g id="node3" class="node"><title>Identity_generalized_identity</title>
<a xlink:href="Identity.html#generalized_identity" xlink:title="generalized_identity">
<ellipse fill="#f070d1" stroke="black" cx="279" cy="-160.785" rx="111.222" ry="18.3848"/>
<text text-anchor="middle" x="279" y="-157.185" font-family="Times Roman,serif" font-size="14.00">generalized_identity</text>
</a>
</g>
<!-- Identity_generalized_identity_&#45;&gt;Identity_generalized_identity -->
<g id="edge2" class="edge"><title>Identity_generalized_identity_&#45;&gt;Identity_generalized_identity</title>
<path fill="none" stroke="black" d="M279,-255.231C279,-235.771 279,-209.383 279,-189.447"/>
<polygon fill="black" stroke="black" points="282.5,-189.4 279,-179.4 275.5,-189.4 282.5,-189.4"/>
</g>
<!-- Identity_generalized_identity_commutes_sym -->
<g id="node4" class="node"><title>Identity_generalized_identity_commutes_sym</title>
<a xlink:href="Identity.html#generalized_identity_commutes_sym" xlink:title="generalized_identity_commutes_sym">
<ellipse fill="#f070d1" stroke="black" cx="207" cy="-51.7846" rx="191.126" ry="18.3848"/>
<text text-anchor="middle" x="207" y="-48.1846" font-family="Times Roman,serif" font-size="14.00">generalized_identity_commutes_sym</text>
</a>
</g>
<!-- Identity_generalized_identity&#45;&gt;Identity_generalized_identity_commutes_sym -->
<g id="edge4" class="edge"><title>Identity_generalized_identity&#45;&gt;Identity_generalized_identity_commutes_sym</title>
<path fill="none" stroke="black" d="M266.786,-142.294C255.305,-124.913 237.981,-98.6857 224.932,-78.9315"/>
<polygon fill="black" stroke="black" points="227.706,-76.7806 219.274,-70.3657 221.865,-80.6388 227.706,-76.7806"/>
</g>
<!-- Identity_generalized_identity_commutes -->
<g id="node5" class="node"><title>Identity_generalized_identity_commutes</title>
<a xlink:href="Identity.html#generalized_identity_commutes" xlink:title="generalized_identity_commutes">
<ellipse fill="#f070d1" stroke="black" cx="583" cy="-51.7846" rx="166.877" ry="18.3848"/>
<text text-anchor="middle" x="583" y="-48.1846" font-family="Times Roman,serif" font-size="14.00">generalized_identity_commutes</text>
</a>
</g>
<!-- Identity_generalized_identity&#45;&gt;Identity_generalized_identity_commutes -->
<g id="edge6" class="edge"><title>Identity_generalized_identity&#45;&gt;Identity_generalized_identity_commutes</title>
<path fill="none" stroke="black" d="M325.834,-143.992C379.05,-124.912 465.998,-93.736 523.853,-72.9921"/>
<polygon fill="black" stroke="black" points="525.357,-76.1708 533.589,-69.501 522.995,-69.5816 525.357,-76.1708"/>
</g>
</g>
</svg>
