<?xml version="1.0" encoding="UTF-8" standalone="no"?>
<!DOCTYPE svg PUBLIC "-//W3C//DTD SVG 1.1//EN"
 "http://www.w3.org/Graphics/SVG/1.1/DTD/svg11.dtd">
<!-- Generated by graphviz version 2.26.3 (20100126.1600)
 -->
<!-- Title: HoTT_hit_Join Pages: 1 -->
<svg width="380pt" height="194pt"
 viewBox="0.00 0.00 380.00 194.00" xmlns="http://www.w3.org/2000/svg" xmlns:xlink="http://www.w3.org/1999/xlink">
<g id="graph1" class="graph" transform="scale(1 1) rotate(0) translate(4 190)">
<title>HoTT_hit_Join</title>
<polygon fill="white" stroke="white" points="-4,5 -4,-190 377,-190 377,5 -4,5"/>
<g id="graph2" class="cluster"><title>cluster_Join</title>
<polygon fill="#ffffc3" stroke="black" points="15.6632,-8 15.6632,-178 356.337,-178 356.337,-8 15.6632,-8"/>
<text text-anchor="middle" x="36.6632" y="-161.4" font-family="Times Roman,serif" font-size="14.00">Join</text>
</g>
<!-- Join_contr_join -->
<g id="node1" class="node"><title>Join_contr_join</title>
<a xlink:href="Join.html#contr_join" xlink:title="contr_join">
<ellipse fill="#f070d1" stroke="black" cx="185.505" cy="-117" rx="60.1041" ry="18.3848"/>
<ellipse fill="none" stroke="black" cx="185.505" cy="-117" rx="64.1041" ry="22.3848"/>
<ellipse fill="none" stroke="black" cx="185.505" cy="-117" rx="68.1041" ry="26.3848"/>
<text text-anchor="middle" x="185.505" y="-113.4" font-family="Times Roman,serif" font-size="14.00">contr_join</text>
</a>
</g>
<!-- Join_joinpp -->
<g id="node2" class="node"><title>Join_joinpp</title>
<a xlink:href="Join.html#joinpp" xlink:title="joinpp">
<ellipse fill="#f070d1" stroke="black" cx="111.505" cy="-35" rx="41.0122" ry="18.3848"/>
<text text-anchor="middle" x="111.505" y="-31.4" font-family="Times Roman,serif" font-size="14.00">joinpp</text>
</a>
</g>
<!-- Join_contr_join&#45;&gt;Join_joinpp -->
<g id="edge2" class="edge"><title>Join_contr_join&#45;&gt;Join_joinpp</title>
<path fill="none" stroke="black" d="M162.901,-91.9517C153.688,-81.743 143.065,-69.9711 133.876,-59.7891"/>
<polygon fill="black" stroke="black" points="136.474,-57.4441 127.176,-52.365 131.277,-62.1339 136.474,-57.4441"/>
</g>
<!-- Join_join -->
<g id="node3" class="node"><title>Join_join</title>
<a xlink:href="Join.html#join" xlink:title="join">
<ellipse fill="#f070d1" stroke="black" cx="283.505" cy="-35" rx="28.9914" ry="18.3848"/>
<text text-anchor="middle" x="283.505" y="-31.4" font-family="Times Roman,serif" font-size="14.00">join</text>
</a>
</g>
<!-- Join_contr_join&#45;&gt;Join_join -->
<g id="edge4" class="edge"><title>Join_contr_join&#45;&gt;Join_join</title>
<path fill="none" stroke="black" d="M214.378,-92.8408C228.218,-81.2606 244.651,-67.5109 258.021,-56.3234"/>
<polygon fill="black" stroke="black" points="260.477,-58.8325 265.9,-49.731 255.985,-53.4639 260.477,-58.8325"/>
</g>
</g>
</svg>
