<?xml version="1.0" encoding="UTF-8" standalone="no"?>
<!DOCTYPE svg PUBLIC "-//W3C//DTD SVG 1.1//EN"
 "http://www.w3.org/Graphics/SVG/1.1/DTD/svg11.dtd">
<!-- Generated by graphviz version 2.26.3 (20100126.1600)
 -->
<!-- Title: HoTT_categories_FunctorCategory_Dual Pages: 1 -->
<svg width="380pt" height="194pt"
 viewBox="0.00 0.00 380.00 194.00" xmlns="http://www.w3.org/2000/svg" xmlns:xlink="http://www.w3.org/1999/xlink">
<g id="graph1" class="graph" transform="scale(1 1) rotate(0) translate(4 190)">
<title>HoTT_categories_FunctorCategory_Dual</title>
<polygon fill="white" stroke="white" points="-4,5 -4,-190 377,-190 377,5 -4,5"/>
<g id="graph2" class="cluster"><title>cluster_Dual</title>
<polygon fill="#ffffc3" stroke="black" points="10.6286,-8 10.6286,-178 361.371,-178 361.371,-8 10.6286,-8"/>
<text text-anchor="middle" x="35.1286" y="-161.4" font-family="Times Roman,serif" font-size="14.00">Dual</text>
</g>
<!-- Dual_opposite_functor_law -->
<g id="node1" class="node"><title>Dual_opposite_functor_law</title>
<a xlink:href="Dual.html#opposite_functor_law" xlink:title="opposite_functor_law">
<ellipse fill="#facdef" stroke="black" cx="186.157" cy="-117" rx="115.966" ry="18.3848"/>
<ellipse fill="none" stroke="black" cx="186.157" cy="-117" rx="119.966" ry="22.3848"/>
<ellipse fill="none" stroke="black" cx="186.157" cy="-117" rx="123.966" ry="26.3848"/>
<text text-anchor="middle" x="186.157" y="-113.4" font-family="Times Roman,serif" font-size="14.00">opposite_functor_law</text>
</a>
</g>
<!-- Dual_opposite_functor -->
<g id="node2" class="node"><title>Dual_opposite_functor</title>
<a xlink:href="Dual.html#opposite_functor" xlink:title="opposite_functor">
<ellipse fill="#f070d1" stroke="black" cx="186.157" cy="-35" rx="92.1303" ry="18.3848"/>
<text text-anchor="middle" x="186.157" y="-31.4" font-family="Times Roman,serif" font-size="14.00">opposite_functor</text>
</a>
</g>
<!-- Dual_opposite_functor_law&#45;&gt;Dual_opposite_functor -->
<g id="edge2" class="edge"><title>Dual_opposite_functor_law&#45;&gt;Dual_opposite_functor</title>
<path fill="none" stroke="black" d="M186.157,-90.1501C186.157,-81.7426 186.157,-72.4303 186.157,-63.8885"/>
<polygon fill="black" stroke="black" points="189.657,-63.607 186.157,-53.6071 182.657,-63.6071 189.657,-63.607"/>
</g>
</g>
</svg>
