<?xml version="1.0" encoding="UTF-8" standalone="no"?>
<!DOCTYPE svg PUBLIC "-//W3C//DTD SVG 1.1//EN"
 "http://www.w3.org/Graphics/SVG/1.1/DTD/svg11.dtd">
<!-- Generated by graphviz version 2.26.3 (20100126.1600)
 -->
<!-- Title: HoTT_types_Universe Pages: 1 -->
<svg width="1332pt" height="670pt"
 viewBox="0.00 0.00 1332.00 670.00" xmlns="http://www.w3.org/2000/svg" xmlns:xlink="http://www.w3.org/1999/xlink">
<g id="graph1" class="graph" transform="scale(1 1) rotate(0) translate(4 666)">
<title>HoTT_types_Universe</title>
<polygon fill="white" stroke="white" points="-4,5 -4,-666 1329,-666 1329,5 -4,5"/>
<g id="graph2" class="cluster"><title>cluster_Universe</title>
<polygon fill="#ffffc3" stroke="black" points="12.345,-8 12.345,-654 1311.66,-654 1311.66,-8 12.345,-8"/>
<text text-anchor="middle" x="50.845" y="-637.4" font-family="Times Roman,serif" font-size="14.00">Universe</text>
</g>
<!-- Universe_isset_hProp -->
<g id="node1" class="node"><title>Universe_isset_hProp</title>
<a xlink:href="Universe.html#isset_hProp" xlink:title="isset_hProp">
<ellipse fill="#facdef" stroke="black" cx="656.998" cy="-593" rx="67.8823" ry="18.3848"/>
<ellipse fill="none" stroke="black" cx="656.998" cy="-593" rx="71.8823" ry="22.3848"/>
<ellipse fill="none" stroke="black" cx="656.998" cy="-593" rx="75.8823" ry="26.3848"/>
<text text-anchor="middle" x="656.998" y="-589.4" font-family="Times Roman,serif" font-size="14.00">isset_hProp</text>
</a>
</g>
<!-- Universe_trunc_path_IsHProp -->
<g id="node2" class="node"><title>Universe_trunc_path_IsHProp</title>
<a xlink:href="Universe.html#trunc_path_IsHProp" xlink:title="trunc_path_IsHProp">
<ellipse fill="#facdef" stroke="black" cx="656.998" cy="-503" rx="108.187" ry="18.3848"/>
<text text-anchor="middle" x="656.998" y="-499.4" font-family="Times Roman,serif" font-size="14.00">trunc_path_IsHProp</text>
</a>
</g>
<!-- Universe_isset_hProp&#45;&gt;Universe_trunc_path_IsHProp -->
<g id="edge2" class="edge"><title>Universe_isset_hProp&#45;&gt;Universe_trunc_path_IsHProp</title>
<path fill="none" stroke="black" d="M656.998,-566.484C656.998,-555.56 656.998,-542.878 656.998,-531.734"/>
<polygon fill="black" stroke="black" points="660.498,-531.628 656.998,-521.628 653.498,-531.628 660.498,-531.628"/>
</g>
<!-- Universe_eta_path_universe -->
<g id="node7" class="node"><title>Universe_eta_path_universe</title>
<a xlink:href="Universe.html#eta_path_universe" xlink:title="eta_path_universe">
<ellipse fill="#f070d1" stroke="black" cx="712.998" cy="-347" rx="102.03" ry="18.3848"/>
<text text-anchor="middle" x="712.998" y="-343.4" font-family="Times Roman,serif" font-size="14.00">eta_path_universe</text>
</a>
</g>
<!-- Universe_trunc_path_IsHProp&#45;&gt;Universe_eta_path_universe -->
<g id="edge4" class="edge"><title>Universe_trunc_path_IsHProp&#45;&gt;Universe_eta_path_universe</title>
<path fill="none" stroke="black" d="M663.642,-484.492C673.367,-457.401 691.554,-406.735 702.928,-375.05"/>
<polygon fill="black" stroke="black" points="706.278,-376.078 706.362,-365.484 699.69,-373.713 706.278,-376.078"/>
</g>
<!-- Universe_path_universe -->
<g id="node10" class="node"><title>Universe_path_universe</title>
<a xlink:href="Universe.html#path_universe" xlink:title="path_universe">
<ellipse fill="#f070d1" stroke="black" cx="584.998" cy="-421" rx="80.8184" ry="18.3848"/>
<text text-anchor="middle" x="584.998" y="-417.4" font-family="Times Roman,serif" font-size="14.00">path_universe</text>
</a>
</g>
<!-- Universe_trunc_path_IsHProp&#45;&gt;Universe_path_universe -->
<g id="edge6" class="edge"><title>Universe_trunc_path_IsHProp&#45;&gt;Universe_path_universe</title>
<path fill="none" stroke="black" d="M640.66,-484.393C630.926,-473.307 618.425,-459.07 607.737,-446.898"/>
<polygon fill="black" stroke="black" points="610.251,-444.456 601.023,-439.251 604.991,-449.075 610.251,-444.456"/>
</g>
<!-- Universe_path_universe_V -->
<g id="node3" class="node"><title>Universe_path_universe_V</title>
<a xlink:href="Universe.html#path_universe_V" xlink:title="path_universe_V">
<ellipse fill="#f070d1" stroke="black" cx="1076" cy="-593" rx="92.8783" ry="18.3848"/>
<ellipse fill="none" stroke="black" cx="1076" cy="-593" rx="96.8586" ry="22.3848"/>
<ellipse fill="none" stroke="black" cx="1076" cy="-593" rx="100.839" ry="26.3848"/>
<text text-anchor="middle" x="1076" y="-589.4" font-family="Times Roman,serif" font-size="14.00">path_universe_V</text>
</a>
</g>
<!-- Universe_path_universe_V_uncurried -->
<g id="node4" class="node"><title>Universe_path_universe_V_uncurried</title>
<a xlink:href="Universe.html#path_universe_V_uncurried" xlink:title="path_universe_V_uncurried">
<ellipse fill="#f070d1" stroke="black" cx="1076" cy="-503" rx="145.163" ry="18.3848"/>
<text text-anchor="middle" x="1076" y="-499.4" font-family="Times Roman,serif" font-size="14.00">path_universe_V_uncurried</text>
</a>
</g>
<!-- Universe_path_universe_V&#45;&gt;Universe_path_universe_V_uncurried -->
<g id="edge8" class="edge"><title>Universe_path_universe_V&#45;&gt;Universe_path_universe_V_uncurried</title>
<path fill="none" stroke="black" d="M1076,-566.484C1076,-555.56 1076,-542.878 1076,-531.734"/>
<polygon fill="black" stroke="black" points="1079.5,-531.628 1076,-521.628 1072.5,-531.628 1079.5,-531.628"/>
</g>
<!-- Universe_equiv_path_universe -->
<g id="node5" class="node"><title>Universe_equiv_path_universe</title>
<a xlink:href="Universe.html#equiv_path_universe" xlink:title="equiv_path_universe">
<ellipse fill="#f070d1" stroke="black" cx="1076" cy="-421" rx="113.137" ry="18.3848"/>
<text text-anchor="middle" x="1076" y="-417.4" font-family="Times Roman,serif" font-size="14.00">equiv_path_universe</text>
</a>
</g>
<!-- Universe_path_universe_V_uncurried&#45;&gt;Universe_equiv_path_universe -->
<g id="edge10" class="edge"><title>Universe_path_universe_V_uncurried&#45;&gt;Universe_equiv_path_universe</title>
<path fill="none" stroke="black" d="M1076,-484.393C1076,-474.118 1076,-461.137 1076,-449.602"/>
<polygon fill="black" stroke="black" points="1079.5,-449.533 1076,-439.533 1072.5,-449.533 1079.5,-449.533"/>
</g>
<!-- Universe_equiv_path_V -->
<g id="node15" class="node"><title>Universe_equiv_path_V</title>
<a xlink:href="Universe.html#equiv_path_V" xlink:title="equiv_path_V">
<ellipse fill="#f070d1" stroke="black" cx="1100" cy="-273" rx="77.7817" ry="18.3848"/>
<text text-anchor="middle" x="1100" y="-269.4" font-family="Times Roman,serif" font-size="14.00">equiv_path_V</text>
</a>
</g>
<!-- Universe_path_universe_V_uncurried&#45;&gt;Universe_equiv_path_V -->
<g id="edge12" class="edge"><title>Universe_path_universe_V_uncurried&#45;&gt;Universe_equiv_path_V</title>
<path fill="none" stroke="black" d="M1133.23,-485.943C1156.7,-476.14 1182.04,-461.406 1198,-440 1218,-413.163 1208.87,-399.326 1212,-366 1213.57,-349.185 1220.93,-342.335 1212,-328 1201.12,-310.541 1182.9,-298.467 1164.29,-290.185"/>
<polygon fill="black" stroke="black" points="1165.43,-286.871 1154.85,-286.304 1162.77,-293.344 1165.43,-286.871"/>
</g>
<!-- Universe_isequiv_path_universe -->
<g id="node6" class="node"><title>Universe_isequiv_path_universe</title>
<a xlink:href="Universe.html#isequiv_path_universe" xlink:title="isequiv_path_universe">
<ellipse fill="#f070d1" stroke="black" cx="1083" cy="-347" rx="120.208" ry="18.3848"/>
<text text-anchor="middle" x="1083" y="-343.4" font-family="Times Roman,serif" font-size="14.00">isequiv_path_universe</text>
</a>
</g>
<!-- Universe_equiv_path_universe&#45;&gt;Universe_isequiv_path_universe -->
<g id="edge14" class="edge"><title>Universe_equiv_path_universe&#45;&gt;Universe_isequiv_path_universe</title>
<path fill="none" stroke="black" d="M1077.76,-402.327C1078.53,-394.264 1079.44,-384.648 1080.28,-375.711"/>
<polygon fill="black" stroke="black" points="1083.77,-375.953 1081.23,-365.667 1076.81,-375.293 1083.77,-375.953"/>
</g>
<!-- Universe_path_universe_uncurried -->
<g id="node11" class="node"><title>Universe_path_universe_uncurried</title>
<a xlink:href="Universe.html#path_universe_uncurried" xlink:title="path_universe_uncurried">
<ellipse fill="#f070d1" stroke="black" cx="322.998" cy="-347" rx="132.936" ry="18.3848"/>
<text text-anchor="middle" x="322.998" y="-343.4" font-family="Times Roman,serif" font-size="14.00">path_universe_uncurried</text>
</a>
</g>
<!-- Universe_equiv_path_universe&#45;&gt;Universe_path_universe_uncurried -->
<g id="edge16" class="edge"><title>Universe_equiv_path_universe&#45;&gt;Universe_path_universe_uncurried</title>
<path fill="none" stroke="black" d="M979.098,-411.477C841.642,-397.969 590.28,-373.267 441.776,-358.673"/>
<polygon fill="black" stroke="black" points="441.999,-355.178 431.705,-357.683 441.315,-362.144 441.999,-355.178"/>
</g>
<!-- Universe_isequiv_equiv_path -->
<g id="node12" class="node"><title>Universe_isequiv_equiv_path</title>
<a xlink:href="Universe.html#isequiv_equiv_path" xlink:title="isequiv_equiv_path">
<ellipse fill="#f070d1" stroke="black" cx="712.998" cy="-273" rx="104.86" ry="18.3848"/>
<text text-anchor="middle" x="712.998" y="-269.4" font-family="Times Roman,serif" font-size="14.00">isequiv_equiv_path</text>
</a>
</g>
<!-- Universe_isequiv_path_universe&#45;&gt;Universe_isequiv_equiv_path -->
<g id="edge18" class="edge"><title>Universe_isequiv_path_universe&#45;&gt;Universe_isequiv_equiv_path</title>
<path fill="none" stroke="black" d="M1009.46,-332.292C946.841,-319.769 857.069,-301.814 792.741,-288.949"/>
<polygon fill="black" stroke="black" points="793.136,-285.458 782.644,-286.929 791.763,-292.322 793.136,-285.458"/>
</g>
<!-- Universe_eta_path_universe&#45;&gt;Universe_isequiv_equiv_path -->
<g id="edge20" class="edge"><title>Universe_eta_path_universe&#45;&gt;Universe_isequiv_equiv_path</title>
<path fill="none" stroke="black" d="M712.998,-328.327C712.998,-320.264 712.998,-310.648 712.998,-301.711"/>
<polygon fill="black" stroke="black" points="716.498,-301.667 712.998,-291.667 709.498,-301.667 716.498,-301.667"/>
</g>
<!-- Universe_transport_path_universe_ -->
<g id="node8" class="node"><title>Universe_transport_path_universe_</title>
<a xlink:href="Universe.html#transport_path_universe&#39;" xlink:title="transport_path_universe&#39;">
<ellipse fill="#f070d1" stroke="black" cx="243.998" cy="-503" rx="133.879" ry="18.3848"/>
<ellipse fill="none" stroke="black" cx="243.998" cy="-503" rx="137.865" ry="22.3848"/>
<ellipse fill="none" stroke="black" cx="243.998" cy="-503" rx="141.851" ry="26.3848"/>
<text text-anchor="middle" x="243.998" y="-499.4" font-family="Times Roman,serif" font-size="14.00">transport_path_universe&#39;</text>
</a>
</g>
<!-- Universe_transport_path_universe -->
<g id="node9" class="node"><title>Universe_transport_path_universe</title>
<a xlink:href="Universe.html#transport_path_universe" xlink:title="transport_path_universe">
<ellipse fill="#f070d1" stroke="black" cx="227.998" cy="-421" rx="132.229" ry="18.3848"/>
<text text-anchor="middle" x="227.998" y="-417.4" font-family="Times Roman,serif" font-size="14.00">transport_path_universe</text>
</a>
</g>
<!-- Universe_transport_path_universe_&#45;&gt;Universe_transport_path_universe -->
<g id="edge22" class="edge"><title>Universe_transport_path_universe_&#45;&gt;Universe_transport_path_universe</title>
<path fill="none" stroke="black" d="M238.759,-476.15C237.1,-467.649 235.261,-458.223 233.579,-449.604"/>
<polygon fill="black" stroke="black" points="236.979,-448.752 231.628,-439.607 230.108,-450.092 236.979,-448.752"/>
</g>
<!-- Universe_transport_path_universe_&#45;&gt;Universe_path_universe -->
<g id="edge24" class="edge"><title>Universe_transport_path_universe_&#45;&gt;Universe_path_universe</title>
<path fill="none" stroke="black" d="M331.371,-481.989C389.859,-467.925 465.627,-449.705 519.067,-436.854"/>
<polygon fill="black" stroke="black" points="520.206,-440.18 529.11,-434.439 518.569,-433.374 520.206,-440.18"/>
</g>
<!-- Universe_transport_path_universe&#45;&gt;Universe_isequiv_equiv_path -->
<g id="edge26" class="edge"><title>Universe_transport_path_universe&#45;&gt;Universe_isequiv_equiv_path</title>
<path fill="none" stroke="black" d="M206.825,-402.503C186.309,-382.392 161.006,-350.165 180.998,-328 208.487,-297.522 451.784,-282.908 599.67,-276.783"/>
<polygon fill="black" stroke="black" points="599.86,-280.278 609.709,-276.374 599.575,-273.284 599.86,-280.278"/>
</g>
<!-- Universe_path_universe&#45;&gt;Universe_path_universe_uncurried -->
<g id="edge28" class="edge"><title>Universe_path_universe&#45;&gt;Universe_path_universe_uncurried</title>
<path fill="none" stroke="black" d="M533.859,-406.556C493.294,-395.099 436.207,-378.975 391.661,-366.393"/>
<polygon fill="black" stroke="black" points="392.356,-362.953 381.782,-363.603 390.454,-369.689 392.356,-362.953"/>
</g>
<!-- Universe_path_universe_uncurried&#45;&gt;Universe_isequiv_equiv_path -->
<g id="edge30" class="edge"><title>Universe_path_universe_uncurried&#45;&gt;Universe_isequiv_equiv_path</title>
<path fill="none" stroke="black" d="M401.92,-332.025C468.608,-319.371 563.774,-301.314 631.251,-288.511"/>
<polygon fill="black" stroke="black" points="632.244,-291.885 641.416,-286.582 630.939,-285.008 632.244,-291.885"/>
</g>
<!-- Universe_Univalence -->
<g id="node14" class="node"><title>Universe_Univalence</title>
<a xlink:href="Universe.html#Univalence" xlink:title="Univalence">
<ellipse fill="#e2cdfa" stroke="black" cx="840.998" cy="-191" rx="65.0538" ry="18.3848"/>
<text text-anchor="middle" x="840.998" y="-187.4" font-family="Times Roman,serif" font-size="14.00">Univalence</text>
</a>
</g>
<!-- Universe_isequiv_equiv_path&#45;&gt;Universe_Univalence -->
<g id="edge32" class="edge"><title>Universe_isequiv_equiv_path&#45;&gt;Universe_Univalence</title>
<path fill="none" stroke="black" d="M741.088,-255.005C760.063,-242.849 785.265,-226.704 805.61,-213.671"/>
<polygon fill="black" stroke="black" points="807.754,-216.453 814.286,-208.112 803.978,-210.559 807.754,-216.453"/>
</g>
<!-- Universe_Build_Univalence -->
<g id="node13" class="node"><title>Universe_Build_Univalence</title>
<a xlink:href="Universe.html#Build_Univalence" xlink:title="Build_Univalence">
<ellipse fill="#7faaff" stroke="black" cx="553.998" cy="-191" rx="94.7523" ry="18.3848"/>
<ellipse fill="none" stroke="black" cx="553.998" cy="-191" rx="98.7523" ry="22.3848"/>
<ellipse fill="none" stroke="black" cx="553.998" cy="-191" rx="102.752" ry="26.3848"/>
<text text-anchor="middle" x="553.998" y="-187.4" font-family="Times Roman,serif" font-size="14.00">Build_Univalence</text>
</a>
</g>
<!-- Universe_equiv_path -->
<g id="node16" class="node"><title>Universe_equiv_path</title>
<a xlink:href="Universe.html#equiv_path" xlink:title="equiv_path">
<ellipse fill="#f070d1" stroke="black" cx="840.998" cy="-109" rx="65.7609" ry="18.3848"/>
<text text-anchor="middle" x="840.998" y="-105.4" font-family="Times Roman,serif" font-size="14.00">equiv_path</text>
</a>
</g>
<!-- Universe_Build_Univalence&#45;&gt;Universe_equiv_path -->
<g id="edge34" class="edge"><title>Universe_Build_Univalence&#45;&gt;Universe_equiv_path</title>
<path fill="none" stroke="black" d="M623.107,-171.255C672.555,-157.126 738.293,-138.344 784.585,-125.118"/>
<polygon fill="black" stroke="black" points="785.794,-128.413 794.447,-122.3 783.871,-121.682 785.794,-128.413"/>
</g>
<!-- Universe_Univalence&#45;&gt;Universe_equiv_path -->
<g id="edge36" class="edge"><title>Universe_Univalence&#45;&gt;Universe_equiv_path</title>
<path fill="none" stroke="black" d="M840.998,-172.393C840.998,-162.118 840.998,-149.137 840.998,-137.602"/>
<polygon fill="black" stroke="black" points="844.498,-137.533 840.998,-127.533 837.498,-137.533 844.498,-137.533"/>
</g>
<!-- Universe_equiv_path_V&#45;&gt;Universe_equiv_path -->
<g id="edge38" class="edge"><title>Universe_equiv_path_V&#45;&gt;Universe_equiv_path</title>
<path fill="none" stroke="black" d="M1072.28,-255.449C1024.91,-225.454 928.453,-164.377 876.324,-131.369"/>
<polygon fill="black" stroke="black" points="878.061,-128.326 867.74,-125.933 874.316,-134.24 878.061,-128.326"/>
</g>
<!-- Universe_isequiv_path -->
<g id="node17" class="node"><title>Universe_isequiv_path</title>
<a xlink:href="Universe.html#isequiv_path" xlink:title="isequiv_path">
<ellipse fill="#f070d1" stroke="black" cx="840.998" cy="-35" rx="73.0388" ry="18.3848"/>
<text text-anchor="middle" x="840.998" y="-31.4" font-family="Times Roman,serif" font-size="14.00">isequiv_path</text>
</a>
</g>
<!-- Universe_equiv_path&#45;&gt;Universe_isequiv_path -->
<g id="edge40" class="edge"><title>Universe_equiv_path&#45;&gt;Universe_isequiv_path</title>
<path fill="none" stroke="black" d="M840.998,-90.3267C840.998,-82.2639 840.998,-72.6477 840.998,-63.7115"/>
<polygon fill="black" stroke="black" points="844.498,-63.6673 840.998,-53.6674 837.498,-63.6674 844.498,-63.6673"/>
</g>
</g>
</svg>
