<?xml version="1.0" encoding="UTF-8" standalone="no"?>
<!DOCTYPE svg PUBLIC "-//W3C//DTD SVG 1.1//EN"
 "http://www.w3.org/Graphics/SVG/1.1/DTD/svg11.dtd">
<!-- Generated by graphviz version 2.39.20161220.0128 (20161220.0128)
 -->
<!-- Title: HoTT_Categories_Category_Sigma_Univalent Pages: 1 -->
<svg width="1020pt" height="514pt"
 viewBox="0.00 0.00 1020.00 514.00" xmlns="http://www.w3.org/2000/svg" xmlns:xlink="http://www.w3.org/1999/xlink">
<g id="graph0" class="graph" transform="scale(1 1) rotate(0) translate(4 510)">
<title>HoTT_Categories_Category_Sigma_Univalent</title>
<polygon fill="#ffffff" stroke="transparent" points="-4,4 -4,-510 1016,-510 1016,4 -4,4"/>
<g id="clust1" class="cluster">
<title>cluster_Univalent</title>
<polygon fill="#ffffc3" stroke="#000000" points="8,-9.4801 8,-496.5199 1004,-496.5199 1004,-9.4801 8,-9.4801"/>
<text text-anchor="middle" x="43" y="-481.3199" font-family="Times,serif" font-size="14.00" fill="#000000">Univalent</text>
</g>
<!-- Univalent_iscategory_sigT -->
<g id="node1" class="node">
<title>Univalent_iscategory_sigT</title>
<g id="a_node1"><a xlink:href="Univalent.html#iscategory_sigT" xlink:title="iscategory_sigT">
<ellipse fill="#f070d1" stroke="#000000" cx="921" cy="-220.4801" rx="66.8941" ry="18"/>
<ellipse fill="none" stroke="#000000" cx="921" cy="-220.4801" rx="70.8911" ry="22"/>
<ellipse fill="none" stroke="#000000" cx="921" cy="-220.4801" rx="74.8882" ry="26"/>
<text text-anchor="middle" x="921" y="-216.7801" font-family="Times,serif" font-size="14.00" fill="#000000">iscategory_sigT</text>
</a>
</g>
</g>
<!-- Univalent_Pidtoiso -->
<g id="node9" class="node">
<title>Univalent_Pidtoiso</title>
<g id="a_node9"><a xlink:href="Univalent.html#Pidtoiso" xlink:title="Pidtoiso">
<ellipse fill="#f070d1" stroke="#000000" cx="921" cy="-125.4801" rx="39.7935" ry="18"/>
<text text-anchor="middle" x="921" y="-121.7801" font-family="Times,serif" font-size="14.00" fill="#000000">Pidtoiso</text>
</a>
</g>
</g>
<!-- Univalent_iscategory_sigT&#45;&gt;Univalent_Pidtoiso -->
<g id="edge1" class="edge">
<title>Univalent_iscategory_sigT&#45;&gt;Univalent_Pidtoiso</title>
<path fill="none" stroke="#000000" d="M921,-194.2694C921,-181.6548 921,-166.5144 921,-153.6531"/>
<polygon fill="#000000" stroke="#000000" points="924.5001,-153.4911 921,-143.4911 917.5001,-153.4912 924.5001,-153.4911"/>
</g>
<!-- Univalent_Pmor_iso_T -->
<g id="node11" class="node">
<title>Univalent_Pmor_iso_T</title>
<g id="a_node11"><a xlink:href="Univalent.html#Pmor_iso_T" xlink:title="Pmor_iso_T">
<ellipse fill="#f070d1" stroke="#000000" cx="693" cy="-125.4801" rx="54.6905" ry="18"/>
<text text-anchor="middle" x="693" y="-121.7801" font-family="Times,serif" font-size="14.00" fill="#000000">Pmor_iso_T</text>
</a>
</g>
</g>
<!-- Univalent_iscategory_sigT&#45;&gt;Univalent_Pmor_iso_T -->
<g id="edge2" class="edge">
<title>Univalent_iscategory_sigT&#45;&gt;Univalent_Pmor_iso_T</title>
<path fill="none" stroke="#000000" d="M872.9257,-200.4491C832.5774,-183.6373 775.442,-159.8309 736.4506,-143.5845"/>
<polygon fill="#000000" stroke="#000000" points="737.5266,-140.2412 726.9497,-139.6258 734.8343,-146.7028 737.5266,-140.2412"/>
</g>
<!-- Univalent_equiv_iso_A_ -->
<g id="node2" class="node">
<title>Univalent_equiv_iso_A_</title>
<g id="a_node2"><a xlink:href="Univalent.html#equiv_iso_A'" xlink:title="equiv_iso_A&#39;">
<ellipse fill="#f070d1" stroke="#000000" cx="914" cy="-428.4801" rx="57.3664" ry="18"/>
<ellipse fill="none" stroke="#000000" cx="914" cy="-428.4801" rx="61.3784" ry="22"/>
<ellipse fill="none" stroke="#000000" cx="914" cy="-428.4801" rx="65.3904" ry="26"/>
<text text-anchor="middle" x="914" y="-424.7801" font-family="Times,serif" font-size="14.00" fill="#000000">equiv_iso_A&#39;</text>
</a>
</g>
</g>
<!-- Univalent_equiv_iso_A__eisretr_helper -->
<g id="node3" class="node">
<title>Univalent_equiv_iso_A__eisretr_helper</title>
<g id="a_node3"><a xlink:href="Univalent.html#equiv_iso_A'_eisretr_helper" xlink:title="equiv_iso_A&#39;_eisretr_helper">
<ellipse fill="#facdef" stroke="#000000" cx="724" cy="-324.4801" rx="109.6807" ry="18"/>
<text text-anchor="middle" x="724" y="-320.7801" font-family="Times,serif" font-size="14.00" fill="#000000">equiv_iso_A&#39;_eisretr_helper</text>
</a>
</g>
</g>
<!-- Univalent_equiv_iso_A_&#45;&gt;Univalent_equiv_iso_A__eisretr_helper -->
<g id="edge3" class="edge">
<title>Univalent_equiv_iso_A_&#45;&gt;Univalent_equiv_iso_A__eisretr_helper</title>
<path fill="none" stroke="#000000" d="M875.5507,-407.4341C843.3379,-389.8019 797.4863,-364.7042 764.6672,-346.7401"/>
<polygon fill="#000000" stroke="#000000" points="766.2307,-343.6059 755.7783,-341.8745 762.8697,-349.7462 766.2307,-343.6059"/>
</g>
<!-- Univalent_iso_A__decode -->
<g id="node4" class="node">
<title>Univalent_iso_A__decode</title>
<g id="a_node4"><a xlink:href="Univalent.html#iso_A'_decode" xlink:title="iso_A&#39;_decode">
<ellipse fill="#f070d1" stroke="#000000" cx="914" cy="-324.4801" rx="62.2891" ry="18"/>
<text text-anchor="middle" x="914" y="-320.7801" font-family="Times,serif" font-size="14.00" fill="#000000">iso_A&#39;_decode</text>
</a>
</g>
</g>
<!-- Univalent_equiv_iso_A_&#45;&gt;Univalent_iso_A__decode -->
<g id="edge4" class="edge">
<title>Univalent_equiv_iso_A_&#45;&gt;Univalent_iso_A__decode</title>
<path fill="none" stroke="#000000" d="M914,-402.2365C914,-387.0801 914,-368.0182 914,-352.5614"/>
<polygon fill="#000000" stroke="#000000" points="917.5001,-352.5287 914,-342.5287 910.5001,-352.5287 917.5001,-352.5287"/>
</g>
<!-- Univalent_iso_A__code -->
<g id="node6" class="node">
<title>Univalent_iso_A__code</title>
<g id="a_node6"><a xlink:href="Univalent.html#iso_A'_code" xlink:title="iso_A&#39;_code">
<ellipse fill="#f070d1" stroke="#000000" cx="774" cy="-220.4801" rx="53.8905" ry="18"/>
<text text-anchor="middle" x="774" y="-216.7801" font-family="Times,serif" font-size="14.00" fill="#000000">iso_A&#39;_code</text>
</a>
</g>
</g>
<!-- Univalent_equiv_iso_A_&#45;&gt;Univalent_iso_A__code -->
<g id="edge5" class="edge">
<title>Univalent_equiv_iso_A_&#45;&gt;Univalent_iso_A__code</title>
<path fill="none" stroke="#000000" d="M942.7804,-404.9735C972.0498,-378.1663 1009.8292,-333.521 985,-298.4801 944.6916,-241.5936 902.1358,-271.3432 837,-246.4801 830.5384,-244.0136 823.743,-241.318 817.1032,-238.6264"/>
<polygon fill="#000000" stroke="#000000" points="818.1239,-235.2624 807.5433,-234.713 815.4719,-241.7406 818.1239,-235.2624"/>
</g>
<!-- Univalent_ishset_pmor -->
<g id="node8" class="node">
<title>Univalent_ishset_pmor</title>
<g id="a_node8"><a xlink:href="Univalent.html#ishset_pmor" xlink:title="ishset_pmor">
<ellipse fill="#f070d1" stroke="#000000" cx="432" cy="-220.4801" rx="53.8905" ry="18"/>
<text text-anchor="middle" x="432" y="-216.7801" font-family="Times,serif" font-size="14.00" fill="#000000">ishset_pmor</text>
</a>
</g>
</g>
<!-- Univalent_equiv_iso_A__eisretr_helper&#45;&gt;Univalent_ishset_pmor -->
<g id="edge6" class="edge">
<title>Univalent_equiv_iso_A__eisretr_helper&#45;&gt;Univalent_ishset_pmor</title>
<path fill="none" stroke="#000000" d="M675.786,-308.1602C630.3216,-292.6602 560.3417,-268.5163 500,-246.4801 492.4871,-243.7365 484.5334,-240.7605 476.8159,-237.8348"/>
<polygon fill="#000000" stroke="#000000" points="477.8085,-234.4676 467.2177,-234.177 475.3157,-241.0087 477.8085,-234.4676"/>
</g>
<!-- Univalent_equiv_iso_A__eisretr_helper&#45;&gt;Univalent_Pmor_iso_T -->
<g id="edge7" class="edge">
<title>Univalent_equiv_iso_A__eisretr_helper&#45;&gt;Univalent_Pmor_iso_T</title>
<path fill="none" stroke="#000000" d="M661.6566,-309.5728C606.5416,-294.9827 532.2816,-271.3755 515,-246.4801 501.8211,-227.4948 501.941,-213.5481 515,-194.4801 529.5992,-173.1632 592.4379,-152.2185 639.3431,-139.0993"/>
<polygon fill="#000000" stroke="#000000" points="640.3723,-142.4463 649.0872,-136.4213 638.5172,-135.6966 640.3723,-142.4463"/>
</g>
<!-- Univalent_iso_A__decode_helper -->
<g id="node5" class="node">
<title>Univalent_iso_A__decode_helper</title>
<g id="a_node5"><a xlink:href="Univalent.html#iso_A'_decode_helper" xlink:title="iso_A&#39;_decode_helper">
<ellipse fill="#f070d1" stroke="#000000" cx="613" cy="-220.4801" rx="89.0842" ry="18"/>
<text text-anchor="middle" x="613" y="-216.7801" font-family="Times,serif" font-size="14.00" fill="#000000">iso_A&#39;_decode_helper</text>
</a>
</g>
</g>
<!-- Univalent_iso_A__decode&#45;&gt;Univalent_iso_A__decode_helper -->
<g id="edge8" class="edge">
<title>Univalent_iso_A__decode&#45;&gt;Univalent_iso_A__decode_helper</title>
<path fill="none" stroke="#000000" d="M875.3696,-310.1423C864.8852,-306.3034 853.5229,-302.1905 843,-298.4801 783.9728,-277.6667 716.0675,-254.765 669.4266,-239.1948"/>
<polygon fill="#000000" stroke="#000000" points="670.4012,-235.8304 659.8075,-235.987 668.1866,-242.4709 670.4012,-235.8304"/>
</g>
<!-- Univalent_iso_A__decode_helper&#45;&gt;Univalent_Pmor_iso_T -->
<g id="edge9" class="edge">
<title>Univalent_iso_A__decode_helper&#45;&gt;Univalent_Pmor_iso_T</title>
<path fill="none" stroke="#000000" d="M628.0474,-202.6113C640.3041,-188.0564 657.7652,-167.3214 671.4969,-151.015"/>
<polygon fill="#000000" stroke="#000000" points="674.5262,-152.8514 678.2904,-142.9478 669.1718,-148.3424 674.5262,-152.8514"/>
</g>
<!-- Univalent_iso_A__code&#45;&gt;Univalent_Pmor_iso_T -->
<g id="edge10" class="edge">
<title>Univalent_iso_A__code&#45;&gt;Univalent_Pmor_iso_T</title>
<path fill="none" stroke="#000000" d="M759.1434,-203.0556C746.6621,-188.4171 728.6609,-167.3046 714.5882,-150.7996"/>
<polygon fill="#000000" stroke="#000000" points="717.1882,-148.4545 708.0368,-143.1158 711.8616,-152.9962 717.1882,-148.4545"/>
</g>
<!-- Univalent_Pmor_iso_adjust -->
<g id="node7" class="node">
<title>Univalent_Pmor_iso_adjust</title>
<g id="a_node7"><a xlink:href="Univalent.html#Pmor_iso_adjust" xlink:title="Pmor_iso_adjust">
<ellipse fill="#f070d1" stroke="#000000" cx="518" cy="-324.4801" rx="70.3682" ry="18"/>
<ellipse fill="none" stroke="#000000" cx="518" cy="-324.4801" rx="74.3781" ry="22"/>
<ellipse fill="none" stroke="#000000" cx="518" cy="-324.4801" rx="78.388" ry="26"/>
<text text-anchor="middle" x="518" y="-320.7801" font-family="Times,serif" font-size="14.00" fill="#000000">Pmor_iso_adjust</text>
</a>
</g>
</g>
<!-- Univalent_Pmor_iso_adjust&#45;&gt;Univalent_ishset_pmor -->
<g id="edge11" class="edge">
<title>Univalent_Pmor_iso_adjust&#45;&gt;Univalent_ishset_pmor</title>
<path fill="none" stroke="#000000" d="M497.1818,-299.3046C483.8049,-283.1279 466.4841,-262.1818 453.0601,-245.9481"/>
<polygon fill="#000000" stroke="#000000" points="455.5068,-243.4147 446.4369,-237.9386 450.1123,-247.8756 455.5068,-243.4147"/>
</g>
<!-- Univalent_Pmor_iso_T_ -->
<g id="node10" class="node">
<title>Univalent_Pmor_iso_T_</title>
<g id="a_node10"><a xlink:href="Univalent.html#Pmor_iso_T'" xlink:title="Pmor_iso_T&#39;">
<ellipse fill="#f070d1" stroke="#000000" cx="921" cy="-40.4801" rx="55.7903" ry="18"/>
<text text-anchor="middle" x="921" y="-36.7801" font-family="Times,serif" font-size="14.00" fill="#000000">Pmor_iso_T&#39;</text>
</a>
</g>
</g>
<!-- Univalent_Pidtoiso&#45;&gt;Univalent_Pmor_iso_T_ -->
<g id="edge12" class="edge">
<title>Univalent_Pidtoiso&#45;&gt;Univalent_Pmor_iso_T_</title>
<path fill="none" stroke="#000000" d="M921,-107.4538C921,-96.1844 921,-81.4325 921,-68.6428"/>
<polygon fill="#000000" stroke="#000000" points="924.5001,-68.4804 921,-58.4804 917.5001,-68.4805 924.5001,-68.4804"/>
</g>
<!-- Univalent_isequiv_iscategory_sigT_mor -->
<g id="node12" class="node">
<title>Univalent_isequiv_iscategory_sigT_mor</title>
<g id="a_node12"><a xlink:href="Univalent.html#isequiv_iscategory_sigT_mor" xlink:title="isequiv_iscategory_sigT_mor">
<ellipse fill="#f070d1" stroke="#000000" cx="339" cy="-428.4801" rx="115.8675" ry="18"/>
<ellipse fill="none" stroke="#000000" cx="339" cy="-428.4801" rx="119.8736" ry="22"/>
<ellipse fill="none" stroke="#000000" cx="339" cy="-428.4801" rx="123.8798" ry="26"/>
<text text-anchor="middle" x="339" y="-424.7801" font-family="Times,serif" font-size="14.00" fill="#000000">isequiv_iscategory_sigT_mor</text>
</a>
</g>
</g>
<!-- Univalent_iscategory_from_sigT_mor -->
<g id="node13" class="node">
<title>Univalent_iscategory_from_sigT_mor</title>
<g id="a_node13"><a xlink:href="Univalent.html#iscategory_from_sigT_mor" xlink:title="iscategory_from_sigT_mor">
<ellipse fill="#f070d1" stroke="#000000" cx="124" cy="-324.4801" rx="107.781" ry="18"/>
<text text-anchor="middle" x="124" y="-320.7801" font-family="Times,serif" font-size="14.00" fill="#000000">iscategory_from_sigT_mor</text>
</a>
</g>
</g>
<!-- Univalent_isequiv_iscategory_sigT_mor&#45;&gt;Univalent_iscategory_from_sigT_mor -->
<g id="edge13" class="edge">
<title>Univalent_isequiv_iscategory_sigT_mor&#45;&gt;Univalent_iscategory_from_sigT_mor</title>
<path fill="none" stroke="#000000" d="M289.6747,-404.6204C253.1431,-386.9493 203.7851,-363.0738 168.4648,-345.9886"/>
<polygon fill="#000000" stroke="#000000" points="169.8776,-342.7841 159.3514,-341.5803 166.8294,-349.0856 169.8776,-342.7841"/>
</g>
<!-- Univalent_iscategory_sigT_mor -->
<g id="node14" class="node">
<title>Univalent_iscategory_sigT_mor</title>
<g id="a_node14"><a xlink:href="Univalent.html#iscategory_sigT_mor" xlink:title="iscategory_sigT_mor">
<ellipse fill="#f070d1" stroke="#000000" cx="336" cy="-324.4801" rx="85.5853" ry="18"/>
<text text-anchor="middle" x="336" y="-320.7801" font-family="Times,serif" font-size="14.00" fill="#000000">iscategory_sigT_mor</text>
</a>
</g>
</g>
<!-- Univalent_isequiv_iscategory_sigT_mor&#45;&gt;Univalent_iscategory_sigT_mor -->
<g id="edge14" class="edge">
<title>Univalent_isequiv_iscategory_sigT_mor&#45;&gt;Univalent_iscategory_sigT_mor</title>
<path fill="none" stroke="#000000" d="M338.243,-402.2365C337.8058,-387.0801 337.2559,-368.0182 336.81,-352.5614"/>
<polygon fill="#000000" stroke="#000000" points="340.3076,-352.4236 336.5206,-342.5287 333.3105,-352.6255 340.3076,-352.4236"/>
</g>
<!-- Univalent_isequiv_iscategory_sigT_mor_helper -->
<g id="node15" class="node">
<title>Univalent_isequiv_iscategory_sigT_mor_helper</title>
<g id="a_node15"><a xlink:href="Univalent.html#isequiv_iscategory_sigT_mor_helper" xlink:title="isequiv_iscategory_sigT_mor_helper">
<ellipse fill="#f070d1" stroke="#000000" cx="188" cy="-220.4801" rx="141.8751" ry="18"/>
<text text-anchor="middle" x="188" y="-216.7801" font-family="Times,serif" font-size="14.00" fill="#000000">isequiv_iscategory_sigT_mor_helper</text>
</a>
</g>
</g>
<!-- Univalent_iscategory_from_sigT_mor&#45;&gt;Univalent_isequiv_iscategory_sigT_mor_helper -->
<g id="edge15" class="edge">
<title>Univalent_iscategory_from_sigT_mor&#45;&gt;Univalent_isequiv_iscategory_sigT_mor_helper</title>
<path fill="none" stroke="#000000" d="M135.1479,-306.3647C145.1813,-290.0605 160.0588,-265.8846 171.4751,-247.3331"/>
<polygon fill="#000000" stroke="#000000" points="174.5049,-249.0878 176.7651,-238.7369 168.5432,-245.4191 174.5049,-249.0878"/>
</g>
<!-- Univalent_iscategory_sigT_mor&#45;&gt;Univalent_isequiv_iscategory_sigT_mor_helper -->
<g id="edge16" class="edge">
<title>Univalent_iscategory_sigT_mor&#45;&gt;Univalent_isequiv_iscategory_sigT_mor_helper</title>
<path fill="none" stroke="#000000" d="M311.2281,-307.0728C286.7246,-289.8542 249.0417,-263.3743 221.7975,-244.2297"/>
<polygon fill="#000000" stroke="#000000" points="223.543,-241.1786 213.3488,-238.2927 219.5184,-246.9059 223.543,-241.1786"/>
</g>
<!-- Univalent_iscategory_sigT_mor_helper -->
<g id="node16" class="node">
<title>Univalent_iscategory_sigT_mor_helper</title>
<g id="a_node16"><a xlink:href="Univalent.html#iscategory_sigT_mor_helper" xlink:title="iscategory_sigT_mor_helper">
<ellipse fill="#f070d1" stroke="#000000" cx="188" cy="-125.4801" rx="112.3801" ry="18"/>
<text text-anchor="middle" x="188" y="-121.7801" font-family="Times,serif" font-size="14.00" fill="#000000">iscategory_sigT_mor_helper</text>
</a>
</g>
</g>
<!-- Univalent_isequiv_iscategory_sigT_mor_helper&#45;&gt;Univalent_iscategory_sigT_mor_helper -->
<g id="edge17" class="edge">
<title>Univalent_isequiv_iscategory_sigT_mor_helper&#45;&gt;Univalent_iscategory_sigT_mor_helper</title>
<path fill="none" stroke="#000000" d="M188,-202.1631C188,-188.495 188,-169.5633 188,-153.9309"/>
<polygon fill="#000000" stroke="#000000" points="191.5001,-153.7408 188,-143.7408 184.5001,-153.7409 191.5001,-153.7408"/>
</g>
<!-- Univalent_iscategory_sigT_obj -->
<g id="node17" class="node">
<title>Univalent_iscategory_sigT_obj</title>
<g id="a_node17"><a xlink:href="Univalent.html#iscategory_sigT_obj" xlink:title="iscategory_sigT_obj">
<ellipse fill="#f070d1" stroke="#000000" cx="107" cy="-428.4801" rx="82.5816" ry="18"/>
<ellipse fill="none" stroke="#000000" cx="107" cy="-428.4801" rx="86.5835" ry="22"/>
<ellipse fill="none" stroke="#000000" cx="107" cy="-428.4801" rx="90.5854" ry="26"/>
<text text-anchor="middle" x="107" y="-424.7801" font-family="Times,serif" font-size="14.00" fill="#000000">iscategory_sigT_obj</text>
</a>
</g>
</g>
</g>
</svg>
