<?xml version="1.0" encoding="UTF-8" standalone="no"?>
<!DOCTYPE svg PUBLIC "-//W3C//DTD SVG 1.1//EN"
 "http://www.w3.org/Graphics/SVG/1.1/DTD/svg11.dtd">
<!-- Generated by graphviz version 2.39.20161220.0128 (20161220.0128)
 -->
<!-- Title: HoTT_Categories_Functor_Composition_Functorial_Core Pages: 1 -->
<svg width="798pt" height="403pt"
 viewBox="0.00 0.00 798.00 403.00" xmlns="http://www.w3.org/2000/svg" xmlns:xlink="http://www.w3.org/1999/xlink">
<g id="graph0" class="graph" transform="scale(1 1) rotate(0) translate(4 399)">
<title>HoTT_Categories_Functor_Composition_Functorial_Core</title>
<polygon fill="#ffffff" stroke="transparent" points="-4,4 -4,-399 794,-399 794,4 -4,4"/>
<g id="clust1" class="cluster">
<title>cluster_Core</title>
<polygon fill="#ffffc3" stroke="#000000" points="12.898,-8 12.898,-387 777.102,-387 777.102,-8 12.898,-8"/>
<text text-anchor="middle" x="34.398" y="-371.8" font-family="Times,serif" font-size="14.00" fill="#000000">Core</text>
</g>
<!-- Core_compose_functor_ -->
<g id="node1" class="node">
<title>Core_compose_functor_</title>
<g id="a_node1"><a xlink:href="Core.html#compose_functor'" xlink:title="compose_functor&#39;">
<ellipse fill="#f070d1" stroke="#000000" cx="396.7755" cy="-330" rx="73.3926" ry="18"/>
<ellipse fill="none" stroke="#000000" cx="396.7755" cy="-330" rx="77.3898" ry="22"/>
<ellipse fill="none" stroke="#000000" cx="396.7755" cy="-330" rx="81.387" ry="26"/>
<text text-anchor="middle" x="396.7755" y="-326.3" font-family="Times,serif" font-size="14.00" fill="#000000">compose_functor&#39;</text>
</a>
</g>
</g>
<!-- Core_compose_functor_uncurried -->
<g id="node2" class="node">
<title>Core_compose_functor_uncurried</title>
<g id="a_node2"><a xlink:href="Core.html#compose_functor_uncurried" xlink:title="compose_functor_uncurried">
<ellipse fill="#f070d1" stroke="#000000" cx="396.7755" cy="-250" rx="110.4804" ry="18"/>
<text text-anchor="middle" x="396.7755" y="-246.3" font-family="Times,serif" font-size="14.00" fill="#000000">compose_functor_uncurried</text>
</a>
</g>
</g>
<!-- Core_compose_functor_&#45;&gt;Core_compose_functor_uncurried -->
<g id="edge1" class="edge">
<title>Core_compose_functor_&#45;&gt;Core_compose_functor_uncurried</title>
<path fill="none" stroke="#000000" d="M396.7755,-303.805C396.7755,-295.6026 396.7755,-286.5174 396.7755,-278.1839"/>
<polygon fill="#000000" stroke="#000000" points="400.2756,-278.1532 396.7755,-268.1532 393.2756,-278.1533 400.2756,-278.1532"/>
</g>
<!-- Core_compose_functor -->
<g id="node3" class="node">
<title>Core_compose_functor</title>
<g id="a_node3"><a xlink:href="Core.html#compose_functor" xlink:title="compose_functor">
<ellipse fill="#f070d1" stroke="#000000" cx="396.7755" cy="-178" rx="72.2875" ry="18"/>
<text text-anchor="middle" x="396.7755" y="-174.3" font-family="Times,serif" font-size="14.00" fill="#000000">compose_functor</text>
</a>
</g>
</g>
<!-- Core_compose_functor_uncurried&#45;&gt;Core_compose_functor -->
<g id="edge2" class="edge">
<title>Core_compose_functor_uncurried&#45;&gt;Core_compose_functor</title>
<path fill="none" stroke="#000000" d="M396.7755,-231.8314C396.7755,-224.131 396.7755,-214.9743 396.7755,-206.4166"/>
<polygon fill="#000000" stroke="#000000" points="400.2756,-206.4132 396.7755,-196.4133 393.2756,-206.4133 400.2756,-206.4132"/>
</g>
<!-- Core_compose_functor_subproof0 -->
<g id="node4" class="node">
<title>Core_compose_functor_subproof0</title>
<g id="a_node4"><a xlink:href="Core.html#compose_functor_subproof0" xlink:title="compose_functor_subproof0">
<ellipse fill="#facdef" stroke="#000000" cx="206.7755" cy="-106" rx="112.3801" ry="18"/>
<text text-anchor="middle" x="206.7755" y="-102.3" font-family="Times,serif" font-size="14.00" fill="#000000">compose_functor_subproof0</text>
</a>
</g>
</g>
<!-- Core_compose_functor&#45;&gt;Core_compose_functor_subproof0 -->
<g id="edge3" class="edge">
<title>Core_compose_functor&#45;&gt;Core_compose_functor_subproof0</title>
<path fill="none" stroke="#000000" d="M356.9453,-162.9064C328.9611,-152.3019 291.203,-137.9936 260.5495,-126.3775"/>
<polygon fill="#000000" stroke="#000000" points="261.4595,-122.9795 250.8681,-122.7088 258.979,-129.5253 261.4595,-122.9795"/>
</g>
<!-- Core_compose_functor_subproof -->
<g id="node5" class="node">
<title>Core_compose_functor_subproof</title>
<g id="a_node5"><a xlink:href="Core.html#compose_functor_subproof" xlink:title="compose_functor_subproof">
<ellipse fill="#facdef" stroke="#000000" cx="589.7755" cy="-106" rx="107.781" ry="18"/>
<text text-anchor="middle" x="589.7755" y="-102.3" font-family="Times,serif" font-size="14.00" fill="#000000">compose_functor_subproof</text>
</a>
</g>
</g>
<!-- Core_compose_functor&#45;&gt;Core_compose_functor_subproof -->
<g id="edge4" class="edge">
<title>Core_compose_functor&#45;&gt;Core_compose_functor_subproof</title>
<path fill="none" stroke="#000000" d="M437.2346,-162.9064C465.984,-152.1813 504.8889,-137.6675 536.2124,-125.9821"/>
<polygon fill="#000000" stroke="#000000" points="537.5245,-129.2283 545.6704,-122.4537 535.0778,-122.6698 537.5245,-129.2283"/>
</g>
<!-- Core_compose_functor_morphism_of -->
<g id="node6" class="node">
<title>Core_compose_functor_morphism_of</title>
<g id="a_node6"><a xlink:href="Core.html#compose_functor_morphism_of" xlink:title="compose_functor_morphism_of">
<ellipse fill="#f070d1" stroke="#000000" cx="394.7755" cy="-34" rx="124.5782" ry="18"/>
<text text-anchor="middle" x="394.7755" y="-30.3" font-family="Times,serif" font-size="14.00" fill="#000000">compose_functor_morphism_of</text>
</a>
</g>
</g>
<!-- Core_compose_functor_subproof0&#45;&gt;Core_compose_functor_morphism_of -->
<g id="edge5" class="edge">
<title>Core_compose_functor_subproof0&#45;&gt;Core_compose_functor_morphism_of</title>
<path fill="none" stroke="#000000" d="M250.379,-89.3008C277.4713,-78.925 312.4934,-65.5123 341.2614,-54.4948"/>
<polygon fill="#000000" stroke="#000000" points="342.6704,-57.7031 350.7572,-50.8581 340.1669,-51.1661 342.6704,-57.7031"/>
</g>
<!-- Core_compose_functor_subproof&#45;&gt;Core_compose_functor_morphism_of -->
<g id="edge6" class="edge">
<title>Core_compose_functor_subproof&#45;&gt;Core_compose_functor_morphism_of</title>
<path fill="none" stroke="#000000" d="M545.0386,-89.4817C516.7307,-79.0296 479.9312,-65.4421 449.8351,-54.3297"/>
<polygon fill="#000000" stroke="#000000" points="450.9117,-50.9963 440.3184,-50.8158 448.487,-57.563 450.9117,-50.9963"/>
</g>
</g>
</svg>
