<?xml version="1.0" encoding="UTF-8" standalone="no"?>
<!DOCTYPE svg PUBLIC "-//W3C//DTD SVG 1.1//EN"
 "http://www.w3.org/Graphics/SVG/1.1/DTD/svg11.dtd">
<!-- Generated by graphviz version 2.39.20161220.0128 (20161220.0128)
 -->
<!-- Title: HoTT_Categories_GroupoidCategory Pages: 1 -->
<svg width="3173pt" height="1580pt"
 viewBox="0.00 0.00 3173.29 1579.50" xmlns="http://www.w3.org/2000/svg" xmlns:xlink="http://www.w3.org/1999/xlink">
<g id="graph0" class="graph" transform="scale(1 1) rotate(0) translate(4 1575.5)">
<title>HoTT_Categories_GroupoidCategory</title>
<polygon fill="#ffffff" stroke="transparent" points="-4,4 -4,-1575.5 3169.2852,-1575.5 3169.2852,4 -4,4"/>
<g id="clust1" class="cluster">
<title>cluster_Morphisms</title>
<polygon fill="#ffffc3" stroke="#000000" points="1869,-565.74 1869,-1114.9379 2121,-1114.9379 2121,-565.74 1869,-565.74"/>
<text text-anchor="middle" x="1909" y="-1099.7379" font-family="Times,serif" font-size="14.00" fill="#000000">Morphisms</text>
</g>
<g id="clust2" class="cluster">
<title>cluster_Dual</title>
<polygon fill="#ffffc3" stroke="#000000" points="2129,-565.74 2129,-813.8716 2307,-813.8716 2307,-565.74 2129,-565.74"/>
<text text-anchor="middle" x="2150.5" y="-798.6716" font-family="Times,serif" font-size="14.00" fill="#000000">Dual</text>
</g>
<g id="clust3" class="cluster">
<title>cluster_Core</title>
<polygon fill="#ffffc3" stroke="#000000" points="2315,-26.4674 2315,-840.3389 3135,-840.3389 3135,-26.4674 2315,-26.4674"/>
<text text-anchor="middle" x="2336.5" y="-825.1389" font-family="Times,serif" font-size="14.00" fill="#000000">Core</text>
</g>
<g id="clust4" class="cluster">
<title>cluster_Core_GroupoidCategoryInternals</title>
<polygon fill="#ffffa3" stroke="#000000" points="2349,-52.9347 2349,-301.0663 2543,-301.0663 2543,-52.9347 2349,-52.9347"/>
<text text-anchor="middle" x="2431.5" y="-285.8663" font-family="Times,serif" font-size="14.00" fill="#000000">GroupoidCategoryInternals</text>
</g>
<g id="clust5" class="cluster">
<title>cluster_GroupoidCategory</title>
<polygon fill="#ffffc3" stroke="#000000" points="8,-866.8063 8,-1545.0326 1861,-1545.0326 1861,-866.8063 8,-866.8063"/>
<text text-anchor="middle" x="67" y="-1529.8326" font-family="Times,serif" font-size="14.00" fill="#000000">GroupoidCategory</text>
</g>
<g id="clust6" class="cluster">
<title>cluster_GroupoidCategory_GroupoidCategoryInternals</title>
<polygon fill="#ffffa3" stroke="#000000" points="1627,-1141.4053 1627,-1442.4716 1853,-1442.4716 1853,-1141.4053 1627,-1141.4053"/>
<text text-anchor="middle" x="1709.5" y="-1427.2716" font-family="Times,serif" font-size="14.00" fill="#000000">GroupoidCategoryInternals</text>
</g>
<!-- GroupoidCategory_GroupoidCategoryInternals_identity -->
<g id="node1" class="node">
<title>GroupoidCategory_GroupoidCategoryInternals_identity</title>
<g id="a_node1"><a xlink:href="GroupoidCategory.html#GroupoidCategoryInternals.identity" xlink:title="identity">
<ellipse fill="#f070d1" stroke="#000000" cx="1799" cy="-1253.4674" rx="37.8596" ry="18"/>
<ellipse fill="none" stroke="#000000" cx="1799" cy="-1253.4674" rx="41.8769" ry="22"/>
<ellipse fill="none" stroke="#000000" cx="1799" cy="-1253.4674" rx="45.8942" ry="26"/>
<text text-anchor="middle" x="1799" y="-1249.7674" font-family="Times,serif" font-size="14.00" fill="#000000">identity</text>
</a>
</g>
</g>
<!-- GroupoidCategory_GroupoidCategoryInternals_compose -->
<g id="node2" class="node">
<title>GroupoidCategory_GroupoidCategoryInternals_compose</title>
<g id="a_node2"><a xlink:href="GroupoidCategory.html#GroupoidCategoryInternals.compose" xlink:title="compose">
<ellipse fill="#f070d1" stroke="#000000" cx="1685" cy="-1253.4674" rx="42.4543" ry="18"/>
<ellipse fill="none" stroke="#000000" cx="1685" cy="-1253.4674" rx="46.474" ry="22"/>
<ellipse fill="none" stroke="#000000" cx="1685" cy="-1253.4674" rx="50.4937" ry="26"/>
<text text-anchor="middle" x="1685" y="-1249.7674" font-family="Times,serif" font-size="14.00" fill="#000000">compose</text>
</a>
</g>
</g>
<!-- Core_GroupoidCategoryInternals_identity -->
<g id="node3" class="node">
<title>Core_GroupoidCategoryInternals_identity</title>
<g id="a_node3"><a xlink:href="Core.html#GroupoidCategoryInternals.identity" xlink:title="identity">
<ellipse fill="#f070d1" stroke="#000000" cx="2497" cy="-138.4674" rx="37.8943" ry="18"/>
<text text-anchor="middle" x="2497" y="-134.7674" font-family="Times,serif" font-size="14.00" fill="#000000">identity</text>
</a>
</g>
</g>
<!-- Core_GroupoidCategoryInternals_compose -->
<g id="node4" class="node">
<title>Core_GroupoidCategoryInternals_compose</title>
<g id="a_node4"><a xlink:href="Core.html#GroupoidCategoryInternals.compose" xlink:title="compose">
<ellipse fill="#f070d1" stroke="#000000" cx="2399" cy="-138.4674" rx="42.4939" ry="18"/>
<text text-anchor="middle" x="2399" y="-134.7674" font-family="Times,serif" font-size="14.00" fill="#000000">compose</text>
</a>
</g>
</g>
<!-- Morphisms_iscategory_groupoid_category -->
<g id="node5" class="node">
<title>Morphisms_iscategory_groupoid_category</title>
<g id="a_node5"><a xlink:href="Morphisms.html#iscategory_groupoid_category" xlink:title="iscategory_groupoid_category">
<ellipse fill="#facdef" stroke="#000000" cx="1995" cy="-952.4674" rx="117.7793" ry="18"/>
<text text-anchor="middle" x="1995" y="-948.7674" font-family="Times,serif" font-size="14.00" fill="#000000">iscategory_groupoid_category</text>
</a>
</g>
</g>
<!-- Morphisms_isotoid -->
<g id="node6" class="node">
<title>Morphisms_isotoid</title>
<g id="a_node6"><a xlink:href="Morphisms.html#isotoid" xlink:title="isotoid">
<ellipse fill="#f070d1" stroke="#000000" cx="2037" cy="-651.4674" rx="34.394" ry="18"/>
<text text-anchor="middle" x="2037" y="-647.7674" font-family="Times,serif" font-size="14.00" fill="#000000">isotoid</text>
</a>
</g>
</g>
<!-- Morphisms_iscategory_groupoid_category&#45;&gt;Morphisms_isotoid -->
<g id="edge1" class="edge">
<title>Morphisms_iscategory_groupoid_category&#45;&gt;Morphisms_isotoid</title>
<path fill="none" stroke="#000000" d="M1997.5641,-934.0916C2004.6543,-883.2785 2024.5601,-740.62 2033.0659,-679.6616"/>
<polygon fill="#000000" stroke="#000000" points="2036.5539,-679.9904 2034.4695,-669.6027 2029.621,-679.023 2036.5539,-679.9904"/>
</g>
<!-- Core_groupoid_category -->
<g id="node21" class="node">
<title>Core_groupoid_category</title>
<g id="a_node21"><a xlink:href="Core.html#groupoid_category" xlink:title="groupoid_category">
<ellipse fill="#f070d1" stroke="#000000" cx="2425" cy="-387.4674" rx="77.1866" ry="18"/>
<text text-anchor="middle" x="2425" y="-383.7674" font-family="Times,serif" font-size="14.00" fill="#000000">groupoid_category</text>
</a>
</g>
</g>
<!-- Morphisms_isotoid&#45;&gt;Core_groupoid_category -->
<g id="edge2" class="edge">
<title>Morphisms_isotoid&#45;&gt;Core_groupoid_category</title>
<path fill="none" stroke="#000000" d="M2058.1361,-637.0861C2122.0134,-593.6232 2313.4416,-463.3731 2391.4051,-410.3258"/>
<polygon fill="#000000" stroke="#000000" points="2393.6009,-413.0651 2399.8997,-404.5459 2389.6631,-407.2777 2393.6009,-413.0651"/>
</g>
<!-- GroupoidCategory_path_groupoid_dual -->
<g id="node7" class="node">
<title>GroupoidCategory_path_groupoid_dual</title>
<g id="a_node7"><a xlink:href="GroupoidCategory.html#path_groupoid_dual" xlink:title="path_groupoid_dual">
<ellipse fill="#f070d1" stroke="#000000" cx="1424" cy="-1253.4674" rx="81.4644" ry="18"/>
<ellipse fill="none" stroke="#000000" cx="1424" cy="-1253.4674" rx="85.4753" ry="22"/>
<ellipse fill="none" stroke="#000000" cx="1424" cy="-1253.4674" rx="89.4862" ry="26"/>
<text text-anchor="middle" x="1424" y="-1249.7674" font-family="Times,serif" font-size="14.00" fill="#000000">path_groupoid_dual</text>
</a>
</g>
</g>
<!-- Dual_path_groupoid_dual -->
<g id="node18" class="node">
<title>Dual_path_groupoid_dual</title>
<g id="a_node18"><a xlink:href="Dual.html#path_groupoid_dual" xlink:title="path_groupoid_dual">
<ellipse fill="#facdef" stroke="#000000" cx="2218" cy="-651.4674" rx="81.4863" ry="18"/>
<text text-anchor="middle" x="2218" y="-647.7674" font-family="Times,serif" font-size="14.00" fill="#000000">path_groupoid_dual</text>
</a>
</g>
</g>
<!-- GroupoidCategory_path_groupoid_dual&#45;&gt;Dual_path_groupoid_dual -->
<g id="edge3" class="edge">
<title>GroupoidCategory_path_groupoid_dual&#45;&gt;Dual_path_groupoid_dual</title>
<path fill="none" stroke="#000000" d="M1481.7658,-1233.501C1647.503,-1176.1124 2113.5002,-1013.9935 2125,-1001.4674 2210.4127,-908.4314 2219.0443,-745.8982 2218.8014,-680.2193"/>
<polygon fill="#000000" stroke="#000000" points="2222.2968,-679.7847 2218.6834,-669.8251 2215.2973,-679.8643 2222.2968,-679.7847"/>
</g>
<!-- GroupoidCategory_iscategory_groupoid_category -->
<g id="node8" class="node">
<title>GroupoidCategory_iscategory_groupoid_category</title>
<g id="a_node8"><a xlink:href="GroupoidCategory.html#iscategory_groupoid_category" xlink:title="iscategory_groupoid_category">
<ellipse fill="#f070d1" stroke="#000000" cx="1191" cy="-1253.4674" rx="117.7704" ry="18"/>
<ellipse fill="none" stroke="#000000" cx="1191" cy="-1253.4674" rx="121.7748" ry="22"/>
<ellipse fill="none" stroke="#000000" cx="1191" cy="-1253.4674" rx="125.7793" ry="26"/>
<text text-anchor="middle" x="1191" y="-1249.7674" font-family="Times,serif" font-size="14.00" fill="#000000">iscategory_groupoid_category</text>
</a>
</g>
</g>
<!-- GroupoidCategory_iscategory_groupoid_category&#45;&gt;Morphisms_iscategory_groupoid_category -->
<g id="edge4" class="edge">
<title>GroupoidCategory_iscategory_groupoid_category&#45;&gt;Morphisms_iscategory_groupoid_category</title>
<path fill="none" stroke="#000000" d="M1252.3551,-1230.5897C1370.8168,-1186.4047 1639.2757,-1086.2053 1865,-1001.4674 1890.1056,-992.0426 1917.9249,-981.5619 1941.3652,-972.7202"/>
<polygon fill="#000000" stroke="#000000" points="1942.6652,-975.9706 1950.786,-969.1659 1940.1942,-969.4212 1942.6652,-975.9706"/>
</g>
<!-- GroupoidCategory_isotoid -->
<g id="node9" class="node">
<title>GroupoidCategory_isotoid</title>
<g id="a_node9"><a xlink:href="GroupoidCategory.html#isotoid" xlink:title="isotoid">
<ellipse fill="#f070d1" stroke="#000000" cx="1574" cy="-1253.4674" rx="34.4039" ry="18"/>
<ellipse fill="none" stroke="#000000" cx="1574" cy="-1253.4674" rx="38.3989" ry="22"/>
<ellipse fill="none" stroke="#000000" cx="1574" cy="-1253.4674" rx="42.394" ry="26"/>
<text text-anchor="middle" x="1574" y="-1249.7674" font-family="Times,serif" font-size="14.00" fill="#000000">isotoid</text>
</a>
</g>
</g>
<!-- GroupoidCategory_isotoid&#45;&gt;Core_groupoid_category -->
<g id="edge5" class="edge">
<title>GroupoidCategory_isotoid&#45;&gt;Core_groupoid_category</title>
<path fill="none" stroke="#000000" d="M1600.6268,-1232.9867C1607.6623,-1228.1433 1615.4154,-1223.2835 1623,-1219.4674 2257.0309,-900.4598 2722.1363,-1285.0763 3136,-708.4674 3299.7365,-480.3441 2731.8831,-411.1789 2510.0662,-393.1261"/>
<polygon fill="#000000" stroke="#000000" points="2510.016,-389.6111 2499.7693,-392.3047 2509.4593,-396.5889 2510.016,-389.6111"/>
</g>
<!-- GroupoidCategory_identity -->
<g id="node10" class="node">
<title>GroupoidCategory_identity</title>
<g id="a_node10"><a xlink:href="GroupoidCategory.html#identity" xlink:title="identity">
<ellipse fill="#f070d1" stroke="#000000" cx="1002" cy="-1253.4674" rx="37.8596" ry="18"/>
<ellipse fill="none" stroke="#000000" cx="1002" cy="-1253.4674" rx="41.8769" ry="22"/>
<ellipse fill="none" stroke="#000000" cx="1002" cy="-1253.4674" rx="45.8942" ry="26"/>
<text text-anchor="middle" x="1002" y="-1249.7674" font-family="Times,serif" font-size="14.00" fill="#000000">identity</text>
</a>
</g>
</g>
<!-- GroupoidCategory_compose -->
<g id="node11" class="node">
<title>GroupoidCategory_compose</title>
<g id="a_node11"><a xlink:href="GroupoidCategory.html#compose" xlink:title="compose">
<ellipse fill="#f070d1" stroke="#000000" cx="888" cy="-1253.4674" rx="42.4543" ry="18"/>
<ellipse fill="none" stroke="#000000" cx="888" cy="-1253.4674" rx="46.474" ry="22"/>
<ellipse fill="none" stroke="#000000" cx="888" cy="-1253.4674" rx="50.4937" ry="26"/>
<text text-anchor="middle" x="888" y="-1249.7674" font-family="Times,serif" font-size="14.00" fill="#000000">compose</text>
</a>
</g>
</g>
<!-- GroupoidCategory_isstrict_groupoid_category -->
<g id="node12" class="node">
<title>GroupoidCategory_isstrict_groupoid_category</title>
<g id="a_node12"><a xlink:href="GroupoidCategory.html#isstrict_groupoid_category" xlink:title="isstrict_groupoid_category">
<ellipse fill="#f070d1" stroke="#000000" cx="707" cy="-1253.4674" rx="104.7716" ry="18"/>
<ellipse fill="none" stroke="#000000" cx="707" cy="-1253.4674" rx="108.7766" ry="22"/>
<ellipse fill="none" stroke="#000000" cx="707" cy="-1253.4674" rx="112.7816" ry="26"/>
<text text-anchor="middle" x="707" y="-1249.7674" font-family="Times,serif" font-size="14.00" fill="#000000">isstrict_groupoid_category</text>
</a>
</g>
</g>
<!-- GroupoidCategory_isgroupoid_groupoid_category -->
<g id="node13" class="node">
<title>GroupoidCategory_isgroupoid_groupoid_category</title>
<g id="a_node13"><a xlink:href="GroupoidCategory.html#isgroupoid_groupoid_category" xlink:title="isgroupoid_groupoid_category">
<ellipse fill="#f070d1" stroke="#000000" cx="449" cy="-1253.4674" rx="118.8827" ry="18"/>
<ellipse fill="none" stroke="#000000" cx="449" cy="-1253.4674" rx="122.8808" ry="22"/>
<ellipse fill="none" stroke="#000000" cx="449" cy="-1253.4674" rx="126.8789" ry="26"/>
<text text-anchor="middle" x="449" y="-1249.7674" font-family="Times,serif" font-size="14.00" fill="#000000">isgroupoid_groupoid_category</text>
</a>
</g>
</g>
<!-- GroupoidCategory_groupoid_category -->
<g id="node14" class="node">
<title>GroupoidCategory_groupoid_category</title>
<g id="a_node14"><a xlink:href="GroupoidCategory.html#groupoid_category" xlink:title="groupoid_category">
<ellipse fill="#f070d1" stroke="#000000" cx="449" cy="-952.4674" rx="77.1866" ry="18"/>
<text text-anchor="middle" x="449" y="-948.7674" font-family="Times,serif" font-size="14.00" fill="#000000">groupoid_category</text>
</a>
</g>
</g>
<!-- GroupoidCategory_isgroupoid_groupoid_category&#45;&gt;GroupoidCategory_groupoid_category -->
<g id="edge6" class="edge">
<title>GroupoidCategory_isgroupoid_groupoid_category&#45;&gt;GroupoidCategory_groupoid_category</title>
<path fill="none" stroke="#000000" d="M449,-1227.2821C449,-1171.1154 449,-1039.4456 449,-981.1308"/>
<polygon fill="#000000" stroke="#000000" points="452.5001,-980.8097 449,-970.8097 445.5001,-980.8098 452.5001,-980.8097"/>
</g>
<!-- GroupoidCategory_IsGroupoid -->
<g id="node17" class="node">
<title>GroupoidCategory_IsGroupoid</title>
<g id="a_node17"><a xlink:href="GroupoidCategory.html#IsGroupoid" xlink:title="IsGroupoid">
<ellipse fill="#f070d1" stroke="#000000" cx="187" cy="-952.4674" rx="50.8918" ry="18"/>
<text text-anchor="middle" x="187" y="-948.7674" font-family="Times,serif" font-size="14.00" fill="#000000">IsGroupoid</text>
</a>
</g>
</g>
<!-- GroupoidCategory_isgroupoid_groupoid_category&#45;&gt;GroupoidCategory_IsGroupoid -->
<g id="edge7" class="edge">
<title>GroupoidCategory_isgroupoid_groupoid_category&#45;&gt;GroupoidCategory_IsGroupoid</title>
<path fill="none" stroke="#000000" d="M426.662,-1227.8043C377.0062,-1170.757 257.9779,-1034.0107 208.8142,-977.5287"/>
<polygon fill="#000000" stroke="#000000" points="211.2895,-975.0416 202.084,-969.7967 206.0095,-979.6375 211.2895,-975.0416"/>
</g>
<!-- GroupoidCategory_trunc_isgroupoid -->
<g id="node15" class="node">
<title>GroupoidCategory_trunc_isgroupoid</title>
<g id="a_node15"><a xlink:href="GroupoidCategory.html#trunc_isgroupoid" xlink:title="trunc_isgroupoid">
<ellipse fill="#f070d1" stroke="#000000" cx="225" cy="-1253.4674" rx="70.7036" ry="18"/>
<ellipse fill="none" stroke="#000000" cx="225" cy="-1253.4674" rx="74.6957" ry="22"/>
<ellipse fill="none" stroke="#000000" cx="225" cy="-1253.4674" rx="78.6877" ry="26"/>
<text text-anchor="middle" x="225" y="-1249.7674" font-family="Times,serif" font-size="14.00" fill="#000000">trunc_isgroupoid</text>
</a>
</g>
</g>
<!-- GroupoidCategory_isgroupoid -->
<g id="node16" class="node">
<title>GroupoidCategory_isgroupoid</title>
<g id="a_node16"><a xlink:href="GroupoidCategory.html#isgroupoid" xlink:title="isgroupoid">
<ellipse fill="#f070d1" stroke="#000000" cx="72" cy="-1253.4674" rx="48.178" ry="18"/>
<ellipse fill="none" stroke="#000000" cx="72" cy="-1253.4674" rx="52.1848" ry="22"/>
<ellipse fill="none" stroke="#000000" cx="72" cy="-1253.4674" rx="56.1916" ry="26"/>
<text text-anchor="middle" x="72" y="-1249.7674" font-family="Times,serif" font-size="14.00" fill="#000000">isgroupoid</text>
</a>
</g>
</g>
<!-- GroupoidCategory_isgroupoid&#45;&gt;GroupoidCategory_IsGroupoid -->
<g id="edge8" class="edge">
<title>GroupoidCategory_isgroupoid&#45;&gt;GroupoidCategory_IsGroupoid</title>
<path fill="none" stroke="#000000" d="M81.8048,-1227.8043C103.2745,-1171.6097 154.2905,-1038.081 176.437,-980.1148"/>
<polygon fill="#000000" stroke="#000000" points="179.8018,-981.1146 180.1013,-970.524 173.2628,-978.6162 179.8018,-981.1146"/>
</g>
<!-- Dual_path_groupoid_dual&#45;&gt;Core_groupoid_category -->
<g id="edge9" class="edge">
<title>Dual_path_groupoid_dual&#45;&gt;Core_groupoid_category</title>
<path fill="none" stroke="#000000" d="M2232.2279,-633.3216C2268.21,-587.4315 2362.9363,-466.6211 2404.713,-413.3406"/>
<polygon fill="#000000" stroke="#000000" points="2407.5301,-415.4201 2410.9462,-405.3911 2402.0216,-411.1008 2407.5301,-415.4201"/>
</g>
<!-- Core_isstrict_groupoid_category -->
<g id="node19" class="node">
<title>Core_isstrict_groupoid_category</title>
<g id="a_node19"><a xlink:href="Core.html#isstrict_groupoid_category" xlink:title="isstrict_groupoid_category">
<ellipse fill="#f070d1" stroke="#000000" cx="3014" cy="-651.4674" rx="104.7716" ry="18"/>
<ellipse fill="none" stroke="#000000" cx="3014" cy="-651.4674" rx="108.7766" ry="22"/>
<ellipse fill="none" stroke="#000000" cx="3014" cy="-651.4674" rx="112.7816" ry="26"/>
<text text-anchor="middle" x="3014" y="-647.7674" font-family="Times,serif" font-size="14.00" fill="#000000">isstrict_groupoid_category</text>
</a>
</g>
</g>
<!-- Core_isgroupoid_groupoid_category -->
<g id="node20" class="node">
<title>Core_isgroupoid_groupoid_category</title>
<g id="a_node20"><a xlink:href="Core.html#isgroupoid_groupoid_category" xlink:title="isgroupoid_groupoid_category">
<ellipse fill="#f070d1" stroke="#000000" cx="2450" cy="-651.4674" rx="118.8827" ry="18"/>
<ellipse fill="none" stroke="#000000" cx="2450" cy="-651.4674" rx="122.8808" ry="22"/>
<ellipse fill="none" stroke="#000000" cx="2450" cy="-651.4674" rx="126.8789" ry="26"/>
<text text-anchor="middle" x="2450" y="-647.7674" font-family="Times,serif" font-size="14.00" fill="#000000">isgroupoid_groupoid_category</text>
</a>
</g>
</g>
<!-- Core_isgroupoid_groupoid_category&#45;&gt;Core_groupoid_category -->
<g id="edge10" class="edge">
<title>Core_isgroupoid_groupoid_category&#45;&gt;Core_groupoid_category</title>
<path fill="none" stroke="#000000" d="M2447.5115,-625.1889C2442.7841,-575.2671 2432.5432,-467.1233 2427.6748,-415.7135"/>
<polygon fill="#000000" stroke="#000000" points="2431.1487,-415.2711 2426.7214,-405.6457 2424.1799,-415.9311 2431.1487,-415.2711"/>
</g>
<!-- Core_IsGroupoid -->
<g id="node24" class="node">
<title>Core_IsGroupoid</title>
<g id="a_node24"><a xlink:href="Core.html#IsGroupoid" xlink:title="IsGroupoid">
<ellipse fill="#f070d1" stroke="#000000" cx="2699" cy="-387.4674" rx="50.8918" ry="18"/>
<text text-anchor="middle" x="2699" y="-383.7674" font-family="Times,serif" font-size="14.00" fill="#000000">IsGroupoid</text>
</a>
</g>
</g>
<!-- Core_isgroupoid_groupoid_category&#45;&gt;Core_IsGroupoid -->
<g id="edge11" class="edge">
<title>Core_isgroupoid_groupoid_category&#45;&gt;Core_IsGroupoid</title>
<path fill="none" stroke="#000000" d="M2474.3285,-625.6733C2522.302,-574.8098 2628.5276,-462.1851 2675.6755,-412.197"/>
<polygon fill="#000000" stroke="#000000" points="2678.402,-414.4073 2682.7172,-404.731 2673.3097,-409.6043 2678.402,-414.4073"/>
</g>
<!-- Core_groupoid_category&#45;&gt;Core_GroupoidCategoryInternals_identity -->
<g id="edge12" class="edge">
<title>Core_groupoid_category&#45;&gt;Core_GroupoidCategoryInternals_identity</title>
<path fill="none" stroke="#000000" d="M2430.2943,-369.1578C2442.7815,-325.9729 2474.1347,-217.5432 2488.9746,-166.2219"/>
<polygon fill="#000000" stroke="#000000" points="2492.3794,-167.0467 2491.795,-156.468 2485.6549,-165.1022 2492.3794,-167.0467"/>
</g>
<!-- Core_groupoid_category&#45;&gt;Core_GroupoidCategoryInternals_compose -->
<g id="edge13" class="edge">
<title>Core_groupoid_category&#45;&gt;Core_GroupoidCategoryInternals_compose</title>
<path fill="none" stroke="#000000" d="M2423.0882,-369.1578C2418.5883,-326.0631 2407.3042,-217.9957 2401.9317,-166.5441"/>
<polygon fill="#000000" stroke="#000000" points="2405.3993,-166.0504 2400.8796,-156.468 2398.4371,-166.7774 2405.3993,-166.0504"/>
</g>
<!-- Core_trunc_isgroupoid -->
<g id="node22" class="node">
<title>Core_trunc_isgroupoid</title>
<g id="a_node22"><a xlink:href="Core.html#trunc_isgroupoid" xlink:title="trunc_isgroupoid">
<ellipse fill="#f070d1" stroke="#000000" cx="2674" cy="-651.4674" rx="70.7036" ry="18"/>
<ellipse fill="none" stroke="#000000" cx="2674" cy="-651.4674" rx="74.6957" ry="22"/>
<ellipse fill="none" stroke="#000000" cx="2674" cy="-651.4674" rx="78.6877" ry="26"/>
<text text-anchor="middle" x="2674" y="-647.7674" font-family="Times,serif" font-size="14.00" fill="#000000">trunc_isgroupoid</text>
</a>
</g>
</g>
<!-- Core_isgroupoid -->
<g id="node23" class="node">
<title>Core_isgroupoid</title>
<g id="a_node23"><a xlink:href="Core.html#isgroupoid" xlink:title="isgroupoid">
<ellipse fill="#f070d1" stroke="#000000" cx="2827" cy="-651.4674" rx="48.178" ry="18"/>
<ellipse fill="none" stroke="#000000" cx="2827" cy="-651.4674" rx="52.1848" ry="22"/>
<ellipse fill="none" stroke="#000000" cx="2827" cy="-651.4674" rx="56.1916" ry="26"/>
<text text-anchor="middle" x="2827" y="-647.7674" font-family="Times,serif" font-size="14.00" fill="#000000">isgroupoid</text>
</a>
</g>
</g>
<!-- Core_isgroupoid&#45;&gt;Core_IsGroupoid -->
<g id="edge14" class="edge">
<title>Core_isgroupoid&#45;&gt;Core_IsGroupoid</title>
<path fill="none" stroke="#000000" d="M2814.4938,-625.6733C2790.2046,-575.5769 2736.867,-465.568 2712.1071,-414.5009"/>
<polygon fill="#000000" stroke="#000000" points="2715.2036,-412.8647 2707.6914,-405.3935 2708.9049,-415.9186 2715.2036,-412.8647"/>
</g>
</g>
</svg>
