<?xml version="1.0" encoding="UTF-8" standalone="no"?>
<!DOCTYPE svg PUBLIC "-//W3C//DTD SVG 1.1//EN"
 "http://www.w3.org/Graphics/SVG/1.1/DTD/svg11.dtd">
<!-- Generated by graphviz version 2.39.20141222.0545 (20141222.0545)
 -->
<!-- Title: HoTT_Functorish Pages: 1 -->
<svg width="1135pt" height="572pt"
 viewBox="0.00 0.00 1135.00 571.50" xmlns="http://www.w3.org/2000/svg" xmlns:xlink="http://www.w3.org/1999/xlink">
<g id="graph0" class="graph" transform="scale(1 1) rotate(0) translate(4 567.5)">
<title>HoTT_Functorish</title>
<polygon fill="white" stroke="transparent" points="-4,4 -4,-567.5 1131,-567.5 1131,4 -4,4"/>
<g id="clust1" class="cluster"><title>cluster_Functorish</title>
<polygon fill="#ffffc3" stroke="black" points="8,-17.9602 8,-545.54 1119,-545.54 1119,-17.9602 8,-17.9602"/>
<text text-anchor="middle" x="45" y="-530.34" font-family="Times,serif" font-size="14.00">Functorish</text>
</g>
<!-- Functorish_fmap_agrees_with_univalence -->
<g id="node1" class="node"><title>Functorish_fmap_agrees_with_univalence</title>
<g id="a_node1"><a xlink:href="Functorish.html#fmap_agrees_with_univalence" xlink:title="fmap_agrees_with_univalence">
<ellipse fill="#f070d1" stroke="black" cx="985" cy="-417.96" rx="118.093" ry="18"/>
<ellipse fill="none" stroke="black" cx="985" cy="-417.96" rx="122.086" ry="22"/>
<ellipse fill="none" stroke="black" cx="985" cy="-417.96" rx="126.079" ry="26"/>
<text text-anchor="middle" x="985" y="-414.26" font-family="Times,serif" font-size="14.00">fmap_agrees_with_univalence</text>
</a>
</g>
</g>
<!-- Functorish_isequiv_fmap -->
<g id="node2" class="node"><title>Functorish_isequiv_fmap</title>
<g id="a_node2"><a xlink:href="Functorish.html#isequiv_fmap" xlink:title="isequiv_fmap">
<ellipse fill="#f070d1" stroke="black" cx="774" cy="-417.96" rx="59.2725" ry="18"/>
<ellipse fill="none" stroke="black" cx="774" cy="-417.96" rx="63.2812" ry="22"/>
<ellipse fill="none" stroke="black" cx="774" cy="-417.96" rx="67.2898" ry="26"/>
<text text-anchor="middle" x="774" y="-414.26" font-family="Times,serif" font-size="14.00">isequiv_fmap</text>
</a>
</g>
</g>
<!-- Functorish_Functorish_rec -->
<g id="node3" class="node"><title>Functorish_Functorish_rec</title>
<g id="a_node3"><a xlink:href="Functorish.html#Functorish_rec" xlink:title="Functorish_rec">
<ellipse fill="#f070d1" stroke="black" cx="617" cy="-417.96" rx="63.8675" ry="18"/>
<ellipse fill="none" stroke="black" cx="617" cy="-417.96" rx="67.8784" ry="22"/>
<ellipse fill="none" stroke="black" cx="617" cy="-417.96" rx="71.8892" ry="26"/>
<text text-anchor="middle" x="617" y="-414.26" font-family="Times,serif" font-size="14.00">Functorish_rec</text>
</a>
</g>
</g>
<!-- Functorish_Functorish_rect -->
<g id="node5" class="node"><title>Functorish_Functorish_rect</title>
<g id="a_node5"><a xlink:href="Functorish.html#Functorish_rect" xlink:title="Functorish_rect">
<ellipse fill="#f070d1" stroke="black" cx="536" cy="-237.96" rx="65.7887" ry="18"/>
<text text-anchor="middle" x="536" y="-234.26" font-family="Times,serif" font-size="14.00">Functorish_rect</text>
</a>
</g>
</g>
<!-- Functorish_Functorish_rec&#45;&gt;Functorish_Functorish_rect -->
<g id="edge1" class="edge"><title>Functorish_Functorish_rec&#45;&gt;Functorish_Functorish_rect</title>
<path fill="none" stroke="black" d="M605.395,-392.171C590.265,-358.549 563.91,-299.983 548.4,-265.515"/>
<polygon fill="black" stroke="black" points="551.44,-263.742 544.144,-256.059 545.056,-266.615 551.44,-263.742"/>
</g>
<!-- Functorish_Functorish_ind -->
<g id="node4" class="node"><title>Functorish_Functorish_ind</title>
<g id="a_node4"><a xlink:href="Functorish.html#Functorish_ind" xlink:title="Functorish_ind">
<ellipse fill="#7fffd4" stroke="black" cx="456" cy="-417.96" rx="63.8675" ry="18"/>
<ellipse fill="none" stroke="black" cx="456" cy="-417.96" rx="67.8784" ry="22"/>
<ellipse fill="none" stroke="black" cx="456" cy="-417.96" rx="71.8892" ry="26"/>
<text text-anchor="middle" x="456" y="-414.26" font-family="Times,serif" font-size="14.00">Functorish_ind</text>
</a>
</g>
</g>
<!-- Functorish_Functorish_ind&#45;&gt;Functorish_Functorish_rect -->
<g id="edge2" class="edge"><title>Functorish_Functorish_ind&#45;&gt;Functorish_Functorish_rect</title>
<path fill="none" stroke="black" d="M467.462,-392.171C482.405,-358.549 508.434,-299.983 523.753,-265.515"/>
<polygon fill="black" stroke="black" points="527.093,-266.619 527.956,-256.059 520.696,-263.776 527.093,-266.619"/>
</g>
<!-- Functorish_Build_Functorish -->
<g id="node8" class="node"><title>Functorish_Build_Functorish</title>
<g id="a_node8"><a xlink:href="Functorish.html#Build_Functorish" xlink:title="Build_Functorish">
<ellipse fill="#7faaff" stroke="black" cx="536" cy="-75.9602" rx="72.2875" ry="18"/>
<text text-anchor="middle" x="536" y="-72.2602" font-family="Times,serif" font-size="14.00">Build_Functorish</text>
</a>
</g>
</g>
<!-- Functorish_Functorish_rect&#45;&gt;Functorish_Build_Functorish -->
<g id="edge3" class="edge"><title>Functorish_Functorish_rect&#45;&gt;Functorish_Build_Functorish</title>
<path fill="none" stroke="black" d="M536,-219.692C536,-191.738 536,-138.102 536,-104.842"/>
<polygon fill="black" stroke="black" points="539.5,-104.41 536,-94.4105 532.5,-104.411 539.5,-104.41"/>
</g>
<!-- Functorish_fmap_idmap -->
<g id="node6" class="node"><title>Functorish_fmap_idmap</title>
<g id="a_node6"><a xlink:href="Functorish.html#fmap_idmap" xlink:title="fmap_idmap">
<ellipse fill="#f070d1" stroke="black" cx="302" cy="-417.96" rx="55.8034" ry="18"/>
<ellipse fill="none" stroke="black" cx="302" cy="-417.96" rx="59.7968" ry="22"/>
<ellipse fill="none" stroke="black" cx="302" cy="-417.96" rx="63.7903" ry="26"/>
<text text-anchor="middle" x="302" y="-414.26" font-family="Times,serif" font-size="14.00">fmap_idmap</text>
</a>
</g>
</g>
<!-- Functorish_fmap -->
<g id="node7" class="node"><title>Functorish_fmap</title>
<g id="a_node7"><a xlink:href="Functorish.html#fmap" xlink:title="fmap">
<ellipse fill="#f070d1" stroke="black" cx="183" cy="-417.96" rx="29.443" ry="18"/>
<ellipse fill="none" stroke="black" cx="183" cy="-417.96" rx="33.4697" ry="22"/>
<ellipse fill="none" stroke="black" cx="183" cy="-417.96" rx="37.4965" ry="26"/>
<text text-anchor="middle" x="183" y="-414.26" font-family="Times,serif" font-size="14.00">fmap</text>
</a>
</g>
</g>
<!-- Functorish_Functorish -->
<g id="node9" class="node"><title>Functorish_Functorish</title>
<g id="a_node9"><a xlink:href="Functorish.html#Functorish" xlink:title="Functorish">
<ellipse fill="#e2cdfa" stroke="black" cx="72" cy="-417.96" rx="48.178" ry="18"/>
<ellipse fill="none" stroke="black" cx="72" cy="-417.96" rx="52.1848" ry="22"/>
<ellipse fill="none" stroke="black" cx="72" cy="-417.96" rx="56.1916" ry="26"/>
<text text-anchor="middle" x="72" y="-414.26" font-family="Times,serif" font-size="14.00">Functorish</text>
</a>
</g>
</g>
</g>
</svg>
