<?xml version="1.0" encoding="UTF-8" standalone="no"?>
<!DOCTYPE svg PUBLIC "-//W3C//DTD SVG 1.1//EN"
 "http://www.w3.org/Graphics/SVG/1.1/DTD/svg11.dtd">
<!-- Generated by graphviz version 2.26.3 (20100126.1600)
 -->
<!-- Title: HoTT_Conjugation Pages: 1 -->
<svg width="560pt" height="284pt"
 viewBox="0.00 0.00 560.00 284.00" xmlns="http://www.w3.org/2000/svg" xmlns:xlink="http://www.w3.org/1999/xlink">
<g id="graph1" class="graph" transform="scale(1 1) rotate(0) translate(4 280)">
<title>HoTT_Conjugation</title>
<polygon fill="white" stroke="white" points="-4,5 -4,-280 557,-280 557,5 -4,5"/>
<g id="graph2" class="cluster"><title>cluster_Conjugation</title>
<polygon fill="#ffffc3" stroke="black" points="11.6211,-8 11.6211,-268 540.379,-268 540.379,-8 11.6211,-8"/>
<text text-anchor="middle" x="61.6211" y="-251.4" font-family="Times Roman,serif" font-size="14.00">Conjugation</text>
</g>
<!-- Conjugation_ap1_to_conjp -->
<g id="node1" class="node"><title>Conjugation_ap1_to_conjp</title>
<a xlink:href="Conjugation.html#ap1_to_conjp" xlink:title="ap1_to_conjp">
<ellipse fill="#f070d1" stroke="black" cx="408.295" cy="-207" rx="75.2074" ry="18.3848"/>
<ellipse fill="none" stroke="black" cx="408.295" cy="-207" rx="79.1834" ry="22.3848"/>
<ellipse fill="none" stroke="black" cx="408.295" cy="-207" rx="83.1595" ry="26.3848"/>
<text text-anchor="middle" x="408.295" y="-203.4" font-family="Times Roman,serif" font-size="14.00">ap1_to_conjp</text>
</a>
</g>
<!-- Conjugation_ap_to_conjp -->
<g id="node3" class="node"><title>Conjugation_ap_to_conjp</title>
<a xlink:href="Conjugation.html#ap_to_conjp" xlink:title="ap_to_conjp">
<ellipse fill="#facdef" stroke="black" cx="408.295" cy="-117" rx="68.7979" ry="18.3848"/>
<text text-anchor="middle" x="408.295" y="-113.4" font-family="Times Roman,serif" font-size="14.00">ap_to_conjp</text>
</a>
</g>
<!-- Conjugation_ap1_to_conjp&#45;&gt;Conjugation_ap_to_conjp -->
<g id="edge2" class="edge"><title>Conjugation_ap1_to_conjp&#45;&gt;Conjugation_ap_to_conjp</title>
<path fill="none" stroke="black" d="M408.295,-180.484C408.295,-169.56 408.295,-156.878 408.295,-145.734"/>
<polygon fill="black" stroke="black" points="411.795,-145.628 408.295,-135.628 404.795,-145.628 411.795,-145.628"/>
</g>
<!-- Conjugation_conjp_ap -->
<g id="node2" class="node"><title>Conjugation_conjp_ap</title>
<a xlink:href="Conjugation.html#conjp_ap" xlink:title="conjp_ap">
<ellipse fill="#facdef" stroke="black" cx="191.295" cy="-117" rx="54.0116" ry="18.3848"/>
<ellipse fill="none" stroke="black" cx="191.295" cy="-117" rx="57.9796" ry="22.3848"/>
<ellipse fill="none" stroke="black" cx="191.295" cy="-117" rx="61.9476" ry="26.3848"/>
<text text-anchor="middle" x="191.295" y="-113.4" font-family="Times Roman,serif" font-size="14.00">conjp_ap</text>
</a>
</g>
<!-- Conjugation_conjp -->
<g id="node5" class="node"><title>Conjugation_conjp</title>
<a xlink:href="Conjugation.html#conjp" xlink:title="conjp">
<ellipse fill="#f070d1" stroke="black" cx="299.295" cy="-35" rx="36.977" ry="18.3848"/>
<text text-anchor="middle" x="299.295" y="-31.4" font-family="Times Roman,serif" font-size="14.00">conjp</text>
</a>
</g>
<!-- Conjugation_conjp_ap&#45;&gt;Conjugation_conjp -->
<g id="edge4" class="edge"><title>Conjugation_conjp_ap&#45;&gt;Conjugation_conjp</title>
<path fill="none" stroke="black" d="M221.954,-93.7214C237.177,-82.1638 255.463,-68.2797 270.432,-56.9143"/>
<polygon fill="black" stroke="black" points="272.966,-59.3848 278.814,-50.5501 268.733,-53.8097 272.966,-59.3848"/>
</g>
<!-- Conjugation_ap_to_conjp&#45;&gt;Conjugation_conjp -->
<g id="edge6" class="edge"><title>Conjugation_ap_to_conjp&#45;&gt;Conjugation_conjp</title>
<path fill="none" stroke="black" d="M384.912,-99.4089C368.354,-86.953 346.034,-70.162 328.335,-56.8471"/>
<polygon fill="black" stroke="black" points="330.159,-53.839 320.063,-50.6241 325.951,-59.4328 330.159,-53.839"/>
</g>
<!-- Conjugation_conjp_concat -->
<g id="node4" class="node"><title>Conjugation_conjp_concat</title>
<a xlink:href="Conjugation.html#conjp_concat" xlink:title="conjp_concat">
<ellipse fill="#facdef" stroke="black" cx="142.295" cy="-207" rx="74.2462" ry="18.3848"/>
<ellipse fill="none" stroke="black" cx="142.295" cy="-207" rx="78.2462" ry="22.3848"/>
<ellipse fill="none" stroke="black" cx="142.295" cy="-207" rx="82.2462" ry="26.3848"/>
<text text-anchor="middle" x="142.295" y="-203.4" font-family="Times Roman,serif" font-size="14.00">conjp_concat</text>
</a>
</g>
</g>
</svg>
