<?xml version="1.0" encoding="UTF-8" standalone="no"?>
<!DOCTYPE svg PUBLIC "-//W3C//DTD SVG 1.1//EN"
 "http://www.w3.org/Graphics/SVG/1.1/DTD/svg11.dtd">
<!-- Generated by graphviz version 2.26.3 (20100126.1600)
 -->
<!-- Title: HoTT_categories_Comma_Dual Pages: 1 -->
<svg width="828pt" height="120pt"
 viewBox="0.00 0.00 828.00 120.00" xmlns="http://www.w3.org/2000/svg" xmlns:xlink="http://www.w3.org/1999/xlink">
<g id="graph1" class="graph" transform="scale(1 1) rotate(0) translate(4 116)">
<title>HoTT_categories_Comma_Dual</title>
<polygon fill="white" stroke="white" points="-4,5 -4,-116 825,-116 825,5 -4,5"/>
<g id="graph2" class="cluster"><title>cluster_Dual</title>
<polygon fill="#ffffc3" stroke="black" points="8,-8 8,-104 812,-104 812,-8 8,-8"/>
<text text-anchor="middle" x="32.5" y="-87.4" font-family="Times Roman,serif" font-size="14.00">Dual</text>
</g>
<!-- Dual_dual_functor_inv_ -->
<g id="node1" class="node"><title>Dual_dual_functor_inv_</title>
<a xlink:href="Dual.html#dual_functor_inv&#39;" xlink:title="dual_functor_inv&#39;">
<ellipse fill="#f070d1" stroke="black" cx="701" cy="-43" rx="94.7523" ry="18.3848"/>
<ellipse fill="none" stroke="black" cx="701" cy="-43" rx="98.7523" ry="22.3848"/>
<ellipse fill="none" stroke="black" cx="701" cy="-43" rx="102.752" ry="26.3848"/>
<text text-anchor="middle" x="701" y="-39.4" font-family="Times Roman,serif" font-size="14.00">dual_functor_inv&#39;</text>
</a>
</g>
<!-- Dual_dual_functor_ -->
<g id="node2" class="node"><title>Dual_dual_functor_</title>
<a xlink:href="Dual.html#dual_functor&#39;" xlink:title="dual_functor&#39;">
<ellipse fill="#f070d1" stroke="black" cx="497" cy="-43" rx="74.9533" ry="18.3848"/>
<ellipse fill="none" stroke="black" cx="497" cy="-43" rx="78.9533" ry="22.3848"/>
<ellipse fill="none" stroke="black" cx="497" cy="-43" rx="82.9533" ry="26.3848"/>
<text text-anchor="middle" x="497" y="-39.4" font-family="Times Roman,serif" font-size="14.00">dual_functor&#39;</text>
</a>
</g>
<!-- Dual_dual_functor_inv -->
<g id="node3" class="node"><title>Dual_dual_functor_inv</title>
<a xlink:href="Dual.html#dual_functor_inv" xlink:title="dual_functor_inv">
<ellipse fill="#f070d1" stroke="black" cx="296" cy="-43" rx="92.1701" ry="18.3848"/>
<ellipse fill="none" stroke="black" cx="296" cy="-43" rx="96.1502" ry="22.3848"/>
<ellipse fill="none" stroke="black" cx="296" cy="-43" rx="100.13" ry="26.3848"/>
<text text-anchor="middle" x="296" y="-39.4" font-family="Times Roman,serif" font-size="14.00">dual_functor_inv</text>
</a>
</g>
<!-- Dual_dual_functor -->
<g id="node4" class="node"><title>Dual_dual_functor</title>
<a xlink:href="Dual.html#dual_functor" xlink:title="dual_functor">
<ellipse fill="#f070d1" stroke="black" cx="97" cy="-43" rx="72.832" ry="18.3848"/>
<ellipse fill="none" stroke="black" cx="97" cy="-43" rx="76.832" ry="22.3848"/>
<ellipse fill="none" stroke="black" cx="97" cy="-43" rx="80.832" ry="26.3848"/>
<text text-anchor="middle" x="97" y="-39.4" font-family="Times Roman,serif" font-size="14.00">dual_functor</text>
</a>
</g>
</g>
</svg>
