<?xml version="1.0" encoding="UTF-8" standalone="no"?>
<!DOCTYPE svg PUBLIC "-//W3C//DTD SVG 1.1//EN"
 "http://www.w3.org/Graphics/SVG/1.1/DTD/svg11.dtd">
<!-- Generated by graphviz version 2.39.20141222.0545 (20141222.0545)
 -->
<!-- Title: HoTT_Categories_Functor_Composition_Functorial_Core Pages: 1 -->
<svg width="798pt" height="403pt"
 viewBox="0.00 0.00 798.00 403.00" xmlns="http://www.w3.org/2000/svg" xmlns:xlink="http://www.w3.org/1999/xlink">
<g id="graph0" class="graph" transform="scale(1 1) rotate(0) translate(4 399)">
<title>HoTT_Categories_Functor_Composition_Functorial_Core</title>
<polygon fill="white" stroke="transparent" points="-4,4 -4,-399 794,-399 794,4 -4,4"/>
<g id="clust1" class="cluster"><title>cluster_Core</title>
<polygon fill="#ffffc3" stroke="black" points="12.898,-8 12.898,-387 777.102,-387 777.102,-8 12.898,-8"/>
<text text-anchor="middle" x="34.398" y="-371.8" font-family="Times,serif" font-size="14.00">Core</text>
</g>
<!-- Core_compose_functor_ -->
<g id="node1" class="node"><title>Core_compose_functor_</title>
<g id="a_node1"><a xlink:href="Core.html#compose_functor'" xlink:title="compose_functor&#39;">
<ellipse fill="#f070d1" stroke="black" cx="396.714" cy="-330" rx="73.3926" ry="18"/>
<ellipse fill="none" stroke="black" cx="396.714" cy="-330" rx="77.3898" ry="22"/>
<ellipse fill="none" stroke="black" cx="396.714" cy="-330" rx="81.387" ry="26"/>
<text text-anchor="middle" x="396.714" y="-326.3" font-family="Times,serif" font-size="14.00">compose_functor&#39;</text>
</a>
</g>
</g>
<!-- Core_compose_functor_uncurried -->
<g id="node2" class="node"><title>Core_compose_functor_uncurried</title>
<g id="a_node2"><a xlink:href="Core.html#compose_functor_uncurried" xlink:title="compose_functor_uncurried">
<ellipse fill="#f070d1" stroke="black" cx="396.714" cy="-250" rx="110.48" ry="18"/>
<text text-anchor="middle" x="396.714" y="-246.3" font-family="Times,serif" font-size="14.00">compose_functor_uncurried</text>
</a>
</g>
</g>
<!-- Core_compose_functor_&#45;&gt;Core_compose_functor_uncurried -->
<g id="edge1" class="edge"><title>Core_compose_functor_&#45;&gt;Core_compose_functor_uncurried</title>
<path fill="none" stroke="black" d="M396.714,-303.805C396.714,-295.603 396.714,-286.517 396.714,-278.184"/>
<polygon fill="black" stroke="black" points="400.214,-278.153 396.714,-268.153 393.214,-278.153 400.214,-278.153"/>
</g>
<!-- Core_compose_functor -->
<g id="node3" class="node"><title>Core_compose_functor</title>
<g id="a_node3"><a xlink:href="Core.html#compose_functor" xlink:title="compose_functor">
<ellipse fill="#f070d1" stroke="black" cx="396.714" cy="-178" rx="72.2875" ry="18"/>
<text text-anchor="middle" x="396.714" y="-174.3" font-family="Times,serif" font-size="14.00">compose_functor</text>
</a>
</g>
</g>
<!-- Core_compose_functor_uncurried&#45;&gt;Core_compose_functor -->
<g id="edge2" class="edge"><title>Core_compose_functor_uncurried&#45;&gt;Core_compose_functor</title>
<path fill="none" stroke="black" d="M396.714,-231.831C396.714,-224.131 396.714,-214.974 396.714,-206.417"/>
<polygon fill="black" stroke="black" points="400.214,-206.413 396.714,-196.413 393.214,-206.413 400.214,-206.413"/>
</g>
<!-- Core_compose_functor_subproof0 -->
<g id="node4" class="node"><title>Core_compose_functor_subproof0</title>
<g id="a_node4"><a xlink:href="Core.html#compose_functor_subproof0" xlink:title="compose_functor_subproof0">
<ellipse fill="#facdef" stroke="black" cx="206.714" cy="-106" rx="112.38" ry="18"/>
<text text-anchor="middle" x="206.714" y="-102.3" font-family="Times,serif" font-size="14.00">compose_functor_subproof0</text>
</a>
</g>
</g>
<!-- Core_compose_functor&#45;&gt;Core_compose_functor_subproof0 -->
<g id="edge3" class="edge"><title>Core_compose_functor&#45;&gt;Core_compose_functor_subproof0</title>
<path fill="none" stroke="black" d="M356.884,-162.906C328.9,-152.302 291.142,-137.994 260.488,-126.378"/>
<polygon fill="black" stroke="black" points="261.398,-122.98 250.807,-122.709 258.918,-129.525 261.398,-122.98"/>
</g>
<!-- Core_compose_functor_subproof -->
<g id="node5" class="node"><title>Core_compose_functor_subproof</title>
<g id="a_node5"><a xlink:href="Core.html#compose_functor_subproof" xlink:title="compose_functor_subproof">
<ellipse fill="#facdef" stroke="black" cx="589.714" cy="-106" rx="107.781" ry="18"/>
<text text-anchor="middle" x="589.714" y="-102.3" font-family="Times,serif" font-size="14.00">compose_functor_subproof</text>
</a>
</g>
</g>
<!-- Core_compose_functor&#45;&gt;Core_compose_functor_subproof -->
<g id="edge4" class="edge"><title>Core_compose_functor&#45;&gt;Core_compose_functor_subproof</title>
<path fill="none" stroke="black" d="M437.173,-162.906C465.923,-152.181 504.828,-137.668 536.151,-125.982"/>
<polygon fill="black" stroke="black" points="537.463,-129.228 545.609,-122.454 535.017,-122.67 537.463,-129.228"/>
</g>
<!-- Core_compose_functor_morphism_of -->
<g id="node6" class="node"><title>Core_compose_functor_morphism_of</title>
<g id="a_node6"><a xlink:href="Core.html#compose_functor_morphism_of" xlink:title="compose_functor_morphism_of">
<ellipse fill="#f070d1" stroke="black" cx="394.714" cy="-34" rx="124.578" ry="18"/>
<text text-anchor="middle" x="394.714" y="-30.3" font-family="Times,serif" font-size="14.00">compose_functor_morphism_of</text>
</a>
</g>
</g>
<!-- Core_compose_functor_subproof0&#45;&gt;Core_compose_functor_morphism_of -->
<g id="edge5" class="edge"><title>Core_compose_functor_subproof0&#45;&gt;Core_compose_functor_morphism_of</title>
<path fill="none" stroke="black" d="M250.318,-89.3008C277.41,-78.925 312.432,-65.5123 341.2,-54.4948"/>
<polygon fill="black" stroke="black" points="342.609,-57.7031 350.696,-50.8581 340.106,-51.1661 342.609,-57.7031"/>
</g>
<!-- Core_compose_functor_subproof&#45;&gt;Core_compose_functor_morphism_of -->
<g id="edge6" class="edge"><title>Core_compose_functor_subproof&#45;&gt;Core_compose_functor_morphism_of</title>
<path fill="none" stroke="black" d="M544.977,-89.4817C516.669,-79.0296 479.87,-65.4421 449.774,-54.3297"/>
<polygon fill="black" stroke="black" points="450.85,-50.9963 440.257,-50.8158 448.426,-57.563 450.85,-50.9963"/>
</g>
</g>
</svg>
