<?xml version="1.0" encoding="UTF-8" standalone="no"?>
<!DOCTYPE svg PUBLIC "-//W3C//DTD SVG 1.1//EN"
 "http://www.w3.org/Graphics/SVG/1.1/DTD/svg11.dtd">
<!-- Generated by graphviz version 2.39.20141222.0545 (20141222.0545)
 -->
<!-- Title: HoTT_Types_Bool Pages: 1 -->
<svg width="1103pt" height="555pt"
 viewBox="0.00 0.00 1103.00 555.50" xmlns="http://www.w3.org/2000/svg" xmlns:xlink="http://www.w3.org/1999/xlink">
<g id="graph0" class="graph" transform="scale(1 1) rotate(0) translate(4 551.5)">
<title>HoTT_Types_Bool</title>
<polygon fill="white" stroke="transparent" points="-4,4 -4,-551.5 1099,-551.5 1099,4 -4,4"/>
<g id="clust1" class="cluster"><title>cluster_Bool</title>
<polygon fill="#ffffc3" stroke="black" points="8,-9.88713 8,-537.613 1087,-537.613 1087,-9.88713 8,-9.88713"/>
<text text-anchor="middle" x="29.5" y="-522.413" font-family="Times,serif" font-size="14.00">Bool</text>
</g>
<!-- Bool_equiv_bool_equiv_bool_bool -->
<g id="node1" class="node"><title>Bool_equiv_bool_equiv_bool_bool</title>
<g id="a_node1"><a xlink:href="Bool.html#equiv_bool_equiv_bool_bool" xlink:title="equiv_bool_equiv_bool_bool">
<ellipse fill="#f070d1" stroke="black" cx="908" cy="-466.887" rx="114.287" ry="18"/>
<ellipse fill="none" stroke="black" cx="908" cy="-466.887" rx="118.283" ry="22"/>
<ellipse fill="none" stroke="black" cx="908" cy="-466.887" rx="122.28" ry="26"/>
<text text-anchor="middle" x="908" y="-463.187" font-family="Times,serif" font-size="14.00">equiv_bool_equiv_bool_bool</text>
</a>
</g>
</g>
<!-- Bool_eval_bool_isequiv -->
<g id="node2" class="node"><title>Bool_eval_bool_isequiv</title>
<g id="a_node2"><a xlink:href="Bool.html#eval_bool_isequiv" xlink:title="eval_bool_isequiv">
<ellipse fill="#f070d1" stroke="black" cx="1004" cy="-358.887" rx="75.2868" ry="18"/>
<text text-anchor="middle" x="1004" y="-355.187" font-family="Times,serif" font-size="14.00">eval_bool_isequiv</text>
</a>
</g>
</g>
<!-- Bool_equiv_bool_equiv_bool_bool&#45;&gt;Bool_eval_bool_isequiv -->
<g id="edge1" class="edge"><title>Bool_equiv_bool_equiv_bool_bool&#45;&gt;Bool_eval_bool_isequiv</title>
<path fill="none" stroke="black" d="M930.751,-441.293C946.137,-423.983 966.362,-401.23 981.661,-384.018"/>
<polygon fill="black" stroke="black" points="984.281,-386.339 988.309,-376.54 979.049,-381.689 984.281,-386.339"/>
</g>
<!-- Bool_equiv_negb -->
<g id="node3" class="node"><title>Bool_equiv_negb</title>
<g id="a_node3"><a xlink:href="Bool.html#equiv_negb" xlink:title="equiv_negb">
<ellipse fill="#f070d1" stroke="black" cx="859" cy="-358.887" rx="51.9908" ry="18"/>
<text text-anchor="middle" x="859" y="-355.187" font-family="Times,serif" font-size="14.00">equiv_negb</text>
</a>
</g>
</g>
<!-- Bool_equiv_bool_equiv_bool_bool&#45;&gt;Bool_equiv_negb -->
<g id="edge2" class="edge"><title>Bool_equiv_bool_equiv_bool_bool&#45;&gt;Bool_equiv_negb</title>
<path fill="none" stroke="black" d="M896.138,-440.743C888.609,-424.148 878.887,-402.72 871.279,-385.951"/>
<polygon fill="black" stroke="black" points="874.395,-384.348 867.076,-376.687 868.02,-387.24 874.395,-384.348"/>
</g>
<!-- Bool_negb -->
<g id="node15" class="node"><title>Bool_negb</title>
<g id="a_node15"><a xlink:href="Bool.html#negb" xlink:title="negb">
<ellipse fill="#f070d1" stroke="black" cx="1051" cy="-140.887" rx="27.8951" ry="18"/>
<text text-anchor="middle" x="1051" y="-137.187" font-family="Times,serif" font-size="14.00">negb</text>
</a>
</g>
</g>
<!-- Bool_eval_bool_isequiv&#45;&gt;Bool_negb -->
<g id="edge3" class="edge"><title>Bool_eval_bool_isequiv&#45;&gt;Bool_negb</title>
<path fill="none" stroke="black" d="M1014.29,-340.759C1023.04,-324.37 1035.11,-299.295 1041,-275.887 1050.07,-239.873 1051.75,-196.881 1051.71,-169.248"/>
<polygon fill="black" stroke="black" points="1055.21,-169.075 1051.62,-159.108 1048.21,-169.14 1055.21,-169.075"/>
</g>
<!-- Bool_isequiv_negb -->
<g id="node4" class="node"><title>Bool_isequiv_negb</title>
<g id="a_node4"><a xlink:href="Bool.html#isequiv_negb" xlink:title="isequiv_negb">
<ellipse fill="#f070d1" stroke="black" cx="974" cy="-249.887" rx="57.6901" ry="18"/>
<text text-anchor="middle" x="974" y="-246.187" font-family="Times,serif" font-size="14.00">isequiv_negb</text>
</a>
</g>
</g>
<!-- Bool_equiv_negb&#45;&gt;Bool_isequiv_negb -->
<g id="edge4" class="edge"><title>Bool_equiv_negb&#45;&gt;Bool_isequiv_negb</title>
<path fill="none" stroke="black" d="M876.969,-341.856C896.182,-323.645 926.808,-294.617 948.508,-274.049"/>
<polygon fill="black" stroke="black" points="950.928,-276.578 955.778,-267.159 946.112,-271.497 950.928,-276.578"/>
</g>
<!-- Bool_isequiv_negb&#45;&gt;Bool_negb -->
<g id="edge5" class="edge"><title>Bool_isequiv_negb&#45;&gt;Bool_negb</title>
<path fill="none" stroke="black" d="M986.715,-231.888C999.44,-213.874 1019.12,-186.014 1033.36,-165.864"/>
<polygon fill="black" stroke="black" points="1036.37,-167.67 1039.28,-157.483 1030.65,-163.631 1036.37,-167.67"/>
</g>
<!-- Bool_equiv_bool_forall_prod -->
<g id="node5" class="node"><title>Bool_equiv_bool_forall_prod</title>
<g id="a_node5"><a xlink:href="Bool.html#equiv_bool_forall_prod" xlink:title="equiv_bool_forall_prod">
<ellipse fill="#f070d1" stroke="black" cx="518" cy="-140.887" rx="94.4649" ry="18"/>
<ellipse fill="none" stroke="black" cx="518" cy="-140.887" rx="98.4744" ry="22"/>
<ellipse fill="none" stroke="black" cx="518" cy="-140.887" rx="102.484" ry="26"/>
<text text-anchor="middle" x="518" y="-137.187" font-family="Times,serif" font-size="14.00">equiv_bool_forall_prod</text>
</a>
</g>
</g>
<!-- Bool_false -->
<g id="node20" class="node"><title>Bool_false</title>
<g id="a_node20"><a xlink:href="Bool.html#false" xlink:title="false">
<ellipse fill="#7faaff" stroke="black" cx="913" cy="-41.8871" rx="27.0966" ry="18"/>
<text text-anchor="middle" x="913" y="-38.1871" font-family="Times,serif" font-size="14.00">false</text>
</a>
</g>
</g>
<!-- Bool_equiv_bool_forall_prod&#45;&gt;Bool_false -->
<g id="edge6" class="edge"><title>Bool_equiv_bool_forall_prod&#45;&gt;Bool_false</title>
<path fill="none" stroke="black" d="M590.909,-122.614C675.796,-101.338 812.583,-67.0549 877.112,-50.8818"/>
<polygon fill="black" stroke="black" points="878.347,-54.1806 887.196,-48.3544 876.645,-47.3907 878.347,-54.1806"/>
</g>
<!-- Bool_true -->
<g id="node21" class="node"><title>Bool_true</title>
<g id="a_node21"><a xlink:href="Bool.html#true" xlink:title="true">
<ellipse fill="#7faaff" stroke="black" cx="644" cy="-41.8871" rx="27" ry="18"/>
<text text-anchor="middle" x="644" y="-38.1871" font-family="Times,serif" font-size="14.00">true</text>
</a>
</g>
</g>
<!-- Bool_equiv_bool_forall_prod&#45;&gt;Bool_true -->
<g id="edge7" class="edge"><title>Bool_equiv_bool_forall_prod&#45;&gt;Bool_true</title>
<path fill="none" stroke="black" d="M549.795,-115.905C570.974,-99.2651 598.446,-77.6795 618.253,-62.1172"/>
<polygon fill="black" stroke="black" points="620.53,-64.7787 626.231,-55.8484 616.206,-59.2745 620.53,-64.7787"/>
</g>
<!-- Bool_Bool -->
<g id="node22" class="node"><title>Bool_Bool</title>
<g id="a_node22"><a xlink:href="Bool.html#Bool" xlink:title="Bool">
<ellipse fill="#e2cdfa" stroke="black" cx="518" cy="-41.8871" rx="27.8951" ry="18"/>
<text text-anchor="middle" x="518" y="-38.1871" font-family="Times,serif" font-size="14.00">Bool</text>
</a>
</g>
</g>
<!-- Bool_equiv_bool_forall_prod&#45;&gt;Bool_Bool -->
<g id="edge8" class="edge"><title>Bool_equiv_bool_forall_prod&#45;&gt;Bool_Bool</title>
<path fill="none" stroke="black" d="M518,-114.876C518,-101.089 518,-84.1373 518,-70.0418"/>
<polygon fill="black" stroke="black" points="521.5,-69.9193 518,-59.9194 514.5,-69.9194 521.5,-69.9193"/>
</g>
<!-- Bool_not_fixed_negb -->
<g id="node6" class="node"><title>Bool_not_fixed_negb</title>
<g id="a_node6"><a xlink:href="Bool.html#not_fixed_negb" xlink:title="not_fixed_negb">
<ellipse fill="#f070d1" stroke="black" cx="715" cy="-358.887" rx="65.7729" ry="18"/>
<ellipse fill="none" stroke="black" cx="715" cy="-358.887" rx="69.7808" ry="22"/>
<ellipse fill="none" stroke="black" cx="715" cy="-358.887" rx="73.7886" ry="26"/>
<text text-anchor="middle" x="715" y="-355.187" font-family="Times,serif" font-size="14.00">not_fixed_negb</text>
</a>
</g>
</g>
<!-- Bool_true_ne_false -->
<g id="node9" class="node"><title>Bool_true_ne_false</title>
<g id="a_node9"><a xlink:href="Bool.html#true_ne_false" xlink:title="true_ne_false">
<ellipse fill="#f070d1" stroke="black" cx="546" cy="-249.887" rx="57.6901" ry="18"/>
<text text-anchor="middle" x="546" y="-246.187" font-family="Times,serif" font-size="14.00">true_ne_false</text>
</a>
</g>
</g>
<!-- Bool_not_fixed_negb&#45;&gt;Bool_true_ne_false -->
<g id="edge9" class="edge"><title>Bool_not_fixed_negb&#45;&gt;Bool_true_ne_false</title>
<path fill="none" stroke="black" d="M679.572,-336.037C650.187,-317.085 608.687,-290.318 579.77,-271.668"/>
<polygon fill="black" stroke="black" points="581.528,-268.637 571.228,-266.158 577.734,-274.52 581.528,-268.637"/>
</g>
<!-- Bool_not_fixed_negb&#45;&gt;Bool_negb -->
<g id="edge10" class="edge"><title>Bool_not_fixed_negb&#45;&gt;Bool_negb</title>
<path fill="none" stroke="black" d="M764.787,-339.668C809.059,-321.742 869.426,-294.973 887,-275.887 903.773,-257.672 890.906,-242.705 907,-223.887 915.269,-214.219 980.487,-178.48 1020.26,-157.18"/>
<polygon fill="black" stroke="black" points="1022.12,-160.154 1029.3,-152.356 1018.83,-153.979 1022.12,-160.154"/>
</g>
<!-- Bool_hset_bool -->
<g id="node7" class="node"><title>Bool_hset_bool</title>
<g id="a_node7"><a xlink:href="Bool.html#hset_bool" xlink:title="hset_bool">
<ellipse fill="#f070d1" stroke="black" cx="536" cy="-466.887" rx="44.7157" ry="18"/>
<ellipse fill="none" stroke="black" cx="536" cy="-466.887" rx="48.7041" ry="22"/>
<ellipse fill="none" stroke="black" cx="536" cy="-466.887" rx="52.6925" ry="26"/>
<text text-anchor="middle" x="536" y="-463.187" font-family="Times,serif" font-size="14.00">hset_bool</text>
</a>
</g>
</g>
<!-- Bool_decidable_paths_bool -->
<g id="node8" class="node"><title>Bool_decidable_paths_bool</title>
<g id="a_node8"><a xlink:href="Bool.html#decidable_paths_bool" xlink:title="decidable_paths_bool">
<ellipse fill="#f070d1" stroke="black" cx="536" cy="-358.887" rx="87.1846" ry="18"/>
<text text-anchor="middle" x="536" y="-355.187" font-family="Times,serif" font-size="14.00">decidable_paths_bool</text>
</a>
</g>
</g>
<!-- Bool_hset_bool&#45;&gt;Bool_decidable_paths_bool -->
<g id="edge11" class="edge"><title>Bool_hset_bool&#45;&gt;Bool_decidable_paths_bool</title>
<path fill="none" stroke="black" d="M536,-440.743C536,-424.561 536,-403.783 536,-387.21"/>
<polygon fill="black" stroke="black" points="539.5,-387.017 536,-377.017 532.5,-387.017 539.5,-387.017"/>
</g>
<!-- Bool_decidable_paths_bool&#45;&gt;Bool_true_ne_false -->
<g id="edge12" class="edge"><title>Bool_decidable_paths_bool&#45;&gt;Bool_true_ne_false</title>
<path fill="none" stroke="black" d="M537.651,-340.888C539.222,-323.769 541.608,-297.757 543.428,-277.922"/>
<polygon fill="black" stroke="black" points="546.918,-278.191 544.346,-267.913 539.947,-277.551 546.918,-278.191"/>
</g>
<!-- Bool_false_ne_true -->
<g id="node10" class="node"><title>Bool_false_ne_true</title>
<g id="a_node10"><a xlink:href="Bool.html#false_ne_true" xlink:title="false_ne_true">
<ellipse fill="#f070d1" stroke="black" cx="696" cy="-140.887" rx="57.6901" ry="18"/>
<text text-anchor="middle" x="696" y="-137.187" font-family="Times,serif" font-size="14.00">false_ne_true</text>
</a>
</g>
</g>
<!-- Bool_true_ne_false&#45;&gt;Bool_false_ne_true -->
<g id="edge13" class="edge"><title>Bool_true_ne_false&#45;&gt;Bool_false_ne_true</title>
<path fill="none" stroke="black" d="M568.782,-233.332C594.332,-214.766 635.933,-184.536 664.566,-163.729"/>
<polygon fill="black" stroke="black" points="666.972,-166.308 673.004,-157.598 662.857,-160.645 666.972,-166.308"/>
</g>
<!-- Bool_false_ne_true&#45;&gt;Bool_false -->
<g id="edge14" class="edge"><title>Bool_false_ne_true&#45;&gt;Bool_false</title>
<path fill="none" stroke="black" d="M728.958,-125.851C770.229,-107.022 840.451,-74.9856 881.181,-56.4035"/>
<polygon fill="black" stroke="black" points="882.733,-59.5425 890.379,-52.2075 879.828,-53.174 882.733,-59.5425"/>
</g>
<!-- Bool_false_ne_true&#45;&gt;Bool_true -->
<g id="edge15" class="edge"><title>Bool_false_ne_true&#45;&gt;Bool_true</title>
<path fill="none" stroke="black" d="M686.462,-122.729C678.398,-107.375 666.743,-85.1856 657.683,-67.937"/>
<polygon fill="black" stroke="black" points="660.704,-66.163 652.956,-58.9375 654.507,-69.4181 660.704,-66.163"/>
</g>
<!-- Bool_false_ne_true&#45;&gt;Bool_Bool -->
<g id="edge16" class="edge"><title>Bool_false_ne_true&#45;&gt;Bool_Bool</title>
<path fill="none" stroke="black" d="M667.401,-124.981C634.703,-106.795 581.411,-77.1552 548.099,-58.6275"/>
<polygon fill="black" stroke="black" points="549.707,-55.5171 539.267,-53.7152 546.305,-61.6346 549.707,-55.5171"/>
</g>
<!-- Bool_trunc_if -->
<g id="node11" class="node"><title>Bool_trunc_if</title>
<g id="a_node11"><a xlink:href="Bool.html#trunc_if" xlink:title="trunc_if">
<ellipse fill="#f070d1" stroke="black" cx="182" cy="-140.887" rx="38.2201" ry="18"/>
<ellipse fill="none" stroke="black" cx="182" cy="-140.887" rx="42.2069" ry="22"/>
<ellipse fill="none" stroke="black" cx="182" cy="-140.887" rx="46.1937" ry="26"/>
<text text-anchor="middle" x="182" y="-137.187" font-family="Times,serif" font-size="14.00">trunc_if</text>
</a>
</g>
</g>
<!-- Bool_trunc_if&#45;&gt;Bool_Bool -->
<g id="edge17" class="edge"><title>Bool_trunc_if&#45;&gt;Bool_Bool</title>
<path fill="none" stroke="black" d="M216.496,-123.377C223.203,-120.318 230.248,-117.336 237,-114.887 322.47,-83.8932 426.999,-60.3347 481.298,-49.1206"/>
<polygon fill="black" stroke="black" points="482.055,-52.5383 491.152,-47.1075 480.654,-45.6799 482.055,-52.5383"/>
</g>
<!-- Bool_implb_impl -->
<g id="node12" class="node"><title>Bool_implb_impl</title>
<g id="a_node12"><a xlink:href="Bool.html#implb_impl" xlink:title="implb_impl">
<ellipse fill="#f070d1" stroke="black" cx="817" cy="-249.887" rx="52.7718" ry="18"/>
<ellipse fill="none" stroke="black" cx="817" cy="-249.887" rx="56.7814" ry="22"/>
<ellipse fill="none" stroke="black" cx="817" cy="-249.887" rx="60.791" ry="26"/>
<text text-anchor="middle" x="817" y="-246.187" font-family="Times,serif" font-size="14.00">implb_impl</text>
</a>
</g>
</g>
<!-- Bool_implb -->
<g id="node14" class="node"><title>Bool_implb</title>
<g id="a_node14"><a xlink:href="Bool.html#implb" xlink:title="implb">
<ellipse fill="#f070d1" stroke="black" cx="366" cy="-140.887" rx="31.6951" ry="18"/>
<text text-anchor="middle" x="366" y="-137.187" font-family="Times,serif" font-size="14.00">implb</text>
</a>
</g>
</g>
<!-- Bool_implb_impl&#45;&gt;Bool_implb -->
<g id="edge18" class="edge"><title>Bool_implb_impl&#45;&gt;Bool_implb</title>
<path fill="none" stroke="black" d="M772.597,-231.961C764.186,-228.976 755.392,-226.127 747,-223.887 598.964,-184.369 550.092,-221.668 407,-166.887 402.631,-165.215 398.23,-163.045 394.015,-160.673"/>
<polygon fill="black" stroke="black" points="395.53,-157.497 385.172,-155.27 391.881,-163.471 395.53,-157.497"/>
</g>
<!-- Bool_implb_impl&#45;&gt;Bool_false -->
<g id="edge19" class="edge"><title>Bool_implb_impl&#45;&gt;Bool_false</title>
<path fill="none" stroke="black" d="M864.616,-233.419C910.437,-216.493 974.809,-189.492 989,-166.887 1001.29,-147.313 998.059,-136.149 989,-114.887 979.325,-92.1781 958.737,-73.129 941.428,-60.1898"/>
<polygon fill="black" stroke="black" points="943.424,-57.3147 933.256,-54.3394 939.349,-63.0064 943.424,-57.3147"/>
</g>
<!-- Bool_implb_true -->
<g id="node13" class="node"><title>Bool_implb_true</title>
<g id="a_node13"><a xlink:href="Bool.html#implb_true" xlink:title="implb_true">
<ellipse fill="#f070d1" stroke="black" cx="680" cy="-249.887" rx="50.0849" ry="18"/>
<ellipse fill="none" stroke="black" cx="680" cy="-249.887" rx="54.088" ry="22"/>
<ellipse fill="none" stroke="black" cx="680" cy="-249.887" rx="58.0912" ry="26"/>
<text text-anchor="middle" x="680" y="-246.187" font-family="Times,serif" font-size="14.00">implb_true</text>
</a>
</g>
</g>
<!-- Bool_implb_true&#45;&gt;Bool_implb -->
<g id="edge20" class="edge"><title>Bool_implb_true&#45;&gt;Bool_implb</title>
<path fill="none" stroke="black" d="M636.621,-232.326C628.807,-229.371 620.698,-226.439 613,-223.887 522.828,-193.999 493.834,-205.41 407,-166.887 402.813,-165.03 398.556,-162.789 394.448,-160.412"/>
<polygon fill="black" stroke="black" points="396.128,-157.337 385.775,-155.085 392.464,-163.301 396.128,-157.337"/>
</g>
<!-- Bool_implb_true&#45;&gt;Bool_false -->
<g id="edge21" class="edge"><title>Bool_implb_true&#45;&gt;Bool_false</title>
<path fill="none" stroke="black" d="M722.969,-232.307C730.899,-229.322 739.153,-226.384 747,-223.887 846.123,-192.344 910.027,-248.91 974,-166.887 999.276,-134.48 963.98,-89.9121 937.481,-63.6781"/>
<polygon fill="black" stroke="black" points="939.602,-60.8624 929.958,-56.4745 934.76,-65.9184 939.602,-60.8624"/>
</g>
<!-- Bool_implb&#45;&gt;Bool_true -->
<g id="edge22" class="edge"><title>Bool_implb&#45;&gt;Bool_true</title>
<path fill="none" stroke="black" d="M386.25,-126.544C392.682,-122.405 399.958,-118.134 407,-114.887 475.481,-83.3168 561.194,-60.7748 608.505,-49.6851"/>
<polygon fill="black" stroke="black" points="609.32,-53.0891 618.277,-47.43 607.746,-46.2684 609.32,-53.0891"/>
</g>
<!-- Bool_implb&#45;&gt;Bool_Bool -->
<g id="edge23" class="edge"><title>Bool_implb&#45;&gt;Bool_Bool</title>
<path fill="none" stroke="black" d="M387.135,-127.122C413.748,-109.788 459.581,-79.9366 489.333,-60.5583"/>
<polygon fill="black" stroke="black" points="491.542,-63.2964 498.011,-54.906 487.722,-57.4309 491.542,-63.2964"/>
</g>
<!-- Bool_negb&#45;&gt;Bool_false -->
<g id="edge24" class="edge"><title>Bool_negb&#45;&gt;Bool_false</title>
<path fill="none" stroke="black" d="M1032.1,-127.329C1008.25,-110.222 967.088,-80.6893 939.949,-61.2203"/>
<polygon fill="black" stroke="black" points="941.836,-58.2666 931.671,-55.2813 937.756,-63.9543 941.836,-58.2666"/>
</g>
<!-- Bool_negb&#45;&gt;Bool_true -->
<g id="edge25" class="edge"><title>Bool_negb&#45;&gt;Bool_true</title>
<path fill="none" stroke="black" d="M1026.59,-131.892C1011.55,-126.539 991.806,-119.847 974,-114.887 868.469,-85.4903 741.347,-60.1449 680.256,-48.5768"/>
<polygon fill="black" stroke="black" points="680.808,-45.1193 670.333,-46.7093 679.513,-51.9985 680.808,-45.1193"/>
</g>
<!-- Bool_negb&#45;&gt;Bool_Bool -->
<g id="edge26" class="edge"><title>Bool_negb&#45;&gt;Bool_Bool</title>
<path fill="none" stroke="black" d="M1027.05,-131.579C1012.01,-126.043 992.102,-119.267 974,-114.887 814.12,-76.2024 770.03,-88.2475 608,-59.8871 590.489,-56.8222 571.148,-53.0102 554.898,-49.6843"/>
<polygon fill="black" stroke="black" points="555.217,-46.1763 544.716,-47.5816 553.801,-53.0317 555.217,-46.1763"/>
</g>
<!-- Bool_orb -->
<g id="node16" class="node"><title>Bool_orb</title>
<g id="a_node16"><a xlink:href="Bool.html#orb" xlink:title="orb">
<ellipse fill="#f070d1" stroke="black" cx="281" cy="-140.887" rx="27" ry="18"/>
<ellipse fill="none" stroke="black" cx="281" cy="-140.887" rx="31" ry="22"/>
<ellipse fill="none" stroke="black" cx="281" cy="-140.887" rx="35" ry="26"/>
<text text-anchor="middle" x="281" y="-137.187" font-family="Times,serif" font-size="14.00">orb</text>
</a>
</g>
</g>
<!-- Bool_orb&#45;&gt;Bool_true -->
<g id="edge27" class="edge"><title>Bool_orb&#45;&gt;Bool_true</title>
<path fill="none" stroke="black" d="M307.319,-123.567C312.989,-120.344 319.066,-117.253 325,-114.887 351.358,-104.38 530.852,-65.8142 608.417,-49.3824"/>
<polygon fill="black" stroke="black" points="609.166,-52.8015 618.225,-47.3076 607.717,-45.9531 609.166,-52.8015"/>
</g>
<!-- Bool_orb&#45;&gt;Bool_Bool -->
<g id="edge28" class="edge"><title>Bool_orb&#45;&gt;Bool_Bool</title>
<path fill="none" stroke="black" d="M308.063,-123.914C313.574,-120.738 319.401,-117.576 325,-114.887 378.622,-89.1393 443.88,-66.081 483.12,-53.0556"/>
<polygon fill="black" stroke="black" points="484.346,-56.3369 492.751,-49.8869 482.158,-49.6875 484.346,-56.3369"/>
</g>
<!-- Bool_andb -->
<g id="node17" class="node"><title>Bool_andb</title>
<g id="a_node17"><a xlink:href="Bool.html#andb" xlink:title="andb">
<ellipse fill="#f070d1" stroke="black" cx="808" cy="-140.887" rx="27.9068" ry="18"/>
<ellipse fill="none" stroke="black" cx="808" cy="-140.887" rx="31.9009" ry="22"/>
<ellipse fill="none" stroke="black" cx="808" cy="-140.887" rx="35.8951" ry="26"/>
<text text-anchor="middle" x="808" y="-137.187" font-family="Times,serif" font-size="14.00">andb</text>
</a>
</g>
</g>
<!-- Bool_andb&#45;&gt;Bool_false -->
<g id="edge29" class="edge"><title>Bool_andb&#45;&gt;Bool_false</title>
<path fill="none" stroke="black" d="M830.011,-120.133C847.429,-103.711 871.698,-80.8286 889.493,-64.0506"/>
<polygon fill="black" stroke="black" points="892.291,-66.2232 897.166,-56.8165 887.489,-61.13 892.291,-66.2232"/>
</g>
<!-- Bool_andb&#45;&gt;Bool_Bool -->
<g id="edge30" class="edge"><title>Bool_andb&#45;&gt;Bool_Bool</title>
<path fill="none" stroke="black" d="M780.44,-123.613C774.794,-120.462 768.801,-117.386 763,-114.887 691.647,-84.1503 603.322,-61.3162 554.597,-49.9487"/>
<polygon fill="black" stroke="black" points="555.351,-46.5309 544.821,-47.6983 553.781,-53.3525 555.351,-46.5309"/>
</g>
<!-- Bool_Bool_rec -->
<g id="node18" class="node"><title>Bool_Bool_rec</title>
<g id="a_node18"><a xlink:href="Bool.html#Bool_rec" xlink:title="Bool_rec">
<ellipse fill="#f070d1" stroke="black" cx="67" cy="-140.887" rx="42.8089" ry="18"/>
<ellipse fill="none" stroke="black" cx="67" cy="-140.887" rx="46.8007" ry="22"/>
<ellipse fill="none" stroke="black" cx="67" cy="-140.887" rx="50.7926" ry="26"/>
<text text-anchor="middle" x="67" y="-137.187" font-family="Times,serif" font-size="14.00">Bool_rec</text>
</a>
</g>
</g>
<!-- Bool_Bool_rec&#45;&gt;Bool_Bool -->
<g id="edge31" class="edge"><title>Bool_Bool_rec&#45;&gt;Bool_Bool</title>
<path fill="none" stroke="black" d="M104.605,-123.068C111.924,-120.037 119.618,-117.144 127,-114.887 253.253,-76.2828 409.005,-54.6245 479.78,-46.1321"/>
<polygon fill="black" stroke="black" points="480.471,-49.5749 489.992,-44.9278 479.651,-42.6231 480.471,-49.5749"/>
</g>
<!-- Bool_Bool_ind -->
<g id="node19" class="node"><title>Bool_Bool_ind</title>
<g id="a_node19"><a xlink:href="Bool.html#Bool_ind" xlink:title="Bool_ind">
<ellipse fill="#f070d1" stroke="black" cx="913" cy="-140.887" rx="43.5851" ry="18"/>
<ellipse fill="none" stroke="black" cx="913" cy="-140.887" rx="47.5887" ry="22"/>
<ellipse fill="none" stroke="black" cx="913" cy="-140.887" rx="51.5923" ry="26"/>
<text text-anchor="middle" x="913" y="-137.187" font-family="Times,serif" font-size="14.00">Bool_ind</text>
</a>
</g>
</g>
<!-- Bool_Bool_ind&#45;&gt;Bool_false -->
<g id="edge32" class="edge"><title>Bool_Bool_ind&#45;&gt;Bool_false</title>
<path fill="none" stroke="black" d="M913,-114.876C913,-101.089 913,-84.1373 913,-70.0418"/>
<polygon fill="black" stroke="black" points="916.5,-69.9193 913,-59.9194 909.5,-69.9194 916.5,-69.9193"/>
</g>
<!-- Bool_Bool_ind&#45;&gt;Bool_true -->
<g id="edge33" class="edge"><title>Bool_Bool_ind&#45;&gt;Bool_true</title>
<path fill="none" stroke="black" d="M874.118,-123.549C867.124,-120.57 859.873,-117.573 853,-114.887 791.982,-91.0468 719.567,-66.5918 677.981,-52.909"/>
<polygon fill="black" stroke="black" points="678.939,-49.54 668.346,-49.7506 676.758,-56.1917 678.939,-49.54"/>
</g>
<!-- Bool_Bool_ind&#45;&gt;Bool_Bool -->
<g id="edge34" class="edge"><title>Bool_Bool_ind&#45;&gt;Bool_Bool</title>
<path fill="none" stroke="black" d="M875.016,-123.112C867.8,-120.113 860.24,-117.22 853,-114.887 824.669,-105.758 636.102,-66.3301 554.987,-49.523"/>
<polygon fill="black" stroke="black" points="555.238,-46.0007 544.736,-47.4008 553.818,-52.8554 555.238,-46.0007"/>
</g>
</g>
</svg>
