<?xml version="1.0" encoding="UTF-8" standalone="no"?>
<!DOCTYPE svg PUBLIC "-//W3C//DTD SVG 1.1//EN"
 "http://www.w3.org/Graphics/SVG/1.1/DTD/svg11.dtd">
<!-- Generated by graphviz version 2.26.3 (20100126.1600)
 -->
<!-- Title: HoTT_hit_iso Pages: 1 -->
<svg width="380pt" height="194pt"
 viewBox="0.00 0.00 380.00 194.00" xmlns="http://www.w3.org/2000/svg" xmlns:xlink="http://www.w3.org/1999/xlink">
<g id="graph1" class="graph" transform="scale(1 1) rotate(0) translate(4 190)">
<title>HoTT_hit_iso</title>
<polygon fill="white" stroke="white" points="-4,5 -4,-190 377,-190 377,5 -4,5"/>
<g id="graph2" class="cluster"><title>cluster_iso</title>
<polygon fill="#ffffc3" stroke="black" points="10.9412,-8 10.9412,-178 361.059,-178 361.059,-8 10.9412,-8"/>
<text text-anchor="middle" x="28.4412" y="-161.4" font-family="Times Roman,serif" font-size="14.00">iso</text>
</g>
<!-- iso_isequiv_isepi_ismono -->
<g id="node1" class="node"><title>iso_isequiv_isepi_ismono</title>
<a xlink:href="iso.html#isequiv_isepi_ismono" xlink:title="isequiv_isepi_ismono">
<ellipse fill="#f070d1" stroke="black" cx="185.662" cy="-117" rx="111.963" ry="18.3848"/>
<ellipse fill="none" stroke="black" cx="185.662" cy="-117" rx="115.947" ry="22.3848"/>
<ellipse fill="none" stroke="black" cx="185.662" cy="-117" rx="119.93" ry="26.3848"/>
<text text-anchor="middle" x="185.662" y="-113.4" font-family="Times Roman,serif" font-size="14.00">isequiv_isepi_ismono</text>
</a>
</g>
<!-- iso_atmost1P_isinj -->
<g id="node2" class="node"><title>iso_atmost1P_isinj</title>
<a xlink:href="iso.html#atmost1P_isinj" xlink:title="atmost1P_isinj">
<ellipse fill="#f070d1" stroke="black" cx="185.662" cy="-35" rx="82.2301" ry="18.3848"/>
<text text-anchor="middle" x="185.662" y="-31.4" font-family="Times Roman,serif" font-size="14.00">atmost1P_isinj</text>
</a>
</g>
<!-- iso_isequiv_isepi_ismono&#45;&gt;iso_atmost1P_isinj -->
<g id="edge2" class="edge"><title>iso_isequiv_isepi_ismono&#45;&gt;iso_atmost1P_isinj</title>
<path fill="none" stroke="black" d="M185.662,-90.1501C185.662,-81.7426 185.662,-72.4303 185.662,-63.8885"/>
<polygon fill="black" stroke="black" points="189.162,-63.607 185.662,-53.6071 182.162,-63.6071 189.162,-63.607"/>
</g>
</g>
</svg>
