<?xml version="1.0" encoding="UTF-8" standalone="no"?>
<!DOCTYPE svg PUBLIC "-//W3C//DTD SVG 1.1//EN"
 "http://www.w3.org/Graphics/SVG/1.1/DTD/svg11.dtd">
<!-- Generated by graphviz version 2.39.20141222.0545 (20141222.0545)
 -->
<!-- Title: HoTT_HSet Pages: 1 -->
<svg width="1258pt" height="633pt"
 viewBox="0.00 0.00 1258.00 633.00" xmlns="http://www.w3.org/2000/svg" xmlns:xlink="http://www.w3.org/1999/xlink">
<g id="graph0" class="graph" transform="scale(1 1) rotate(0) translate(4 629)">
<title>HoTT_HSet</title>
<polygon fill="white" stroke="transparent" points="-4,4 -4,-629 1254,-629 1254,4 -4,4"/>
<g id="clust1" class="cluster"><title>cluster_HSet</title>
<polygon fill="#ffffc3" stroke="black" points="8,-14.0845 8,-610.915 1242,-610.915 1242,-14.0845 8,-14.0845"/>
<text text-anchor="middle" x="30" y="-595.715" font-family="Times,serif" font-size="14.00">HSet</text>
</g>
<!-- HSet_ismono_isequiv -->
<g id="node1" class="node"><title>HSet_ismono_isequiv</title>
<g id="a_node1"><a xlink:href="HSet.html#ismono_isequiv" xlink:title="ismono_isequiv">
<ellipse fill="#facdef" stroke="black" cx="1159" cy="-510.085" rx="66.8941" ry="18"/>
<ellipse fill="none" stroke="black" cx="1159" cy="-510.085" rx="70.8911" ry="22"/>
<ellipse fill="none" stroke="black" cx="1159" cy="-510.085" rx="74.8882" ry="26"/>
<text text-anchor="middle" x="1159" y="-506.385" font-family="Times,serif" font-size="14.00">ismono_isequiv</text>
</a>
</g>
</g>
<!-- HSet_ismono -->
<g id="node7" class="node"><title>HSet_ismono</title>
<g id="a_node7"><a xlink:href="HSet.html#ismono" xlink:title="ismono">
<ellipse fill="#f070d1" stroke="black" cx="1002" cy="-356.085" rx="37.0935" ry="18"/>
<text text-anchor="middle" x="1002" y="-352.385" font-family="Times,serif" font-size="14.00">ismono</text>
</a>
</g>
</g>
<!-- HSet_ismono_isequiv&#45;&gt;HSet_ismono -->
<g id="edge1" class="edge"><title>HSet_ismono_isequiv&#45;&gt;HSet_ismono</title>
<path fill="none" stroke="black" d="M1133.78,-485.342C1104.02,-456.151 1054.92,-407.99 1025.79,-379.424"/>
<polygon fill="black" stroke="black" points="1028.08,-376.767 1018.49,-372.263 1023.18,-381.764 1028.08,-376.767"/>
</g>
<!-- HSet_ismono_isinj -->
<g id="node2" class="node"><title>HSet_ismono_isinj</title>
<g id="a_node2"><a xlink:href="HSet.html#ismono_isinj" xlink:title="ismono_isinj">
<ellipse fill="#f070d1" stroke="black" cx="1002" cy="-510.085" rx="56.5844" ry="18"/>
<ellipse fill="none" stroke="black" cx="1002" cy="-510.085" rx="60.5872" ry="22"/>
<ellipse fill="none" stroke="black" cx="1002" cy="-510.085" rx="64.59" ry="26"/>
<text text-anchor="middle" x="1002" y="-506.385" font-family="Times,serif" font-size="14.00">ismono_isinj</text>
</a>
</g>
</g>
<!-- HSet_ismono_isinj&#45;&gt;HSet_ismono -->
<g id="edge2" class="edge"><title>HSet_ismono_isinj&#45;&gt;HSet_ismono</title>
<path fill="none" stroke="black" d="M1002,-483.961C1002,-456.263 1002,-412.668 1002,-384.226"/>
<polygon fill="black" stroke="black" points="1005.5,-384.132 1002,-374.132 998.5,-384.132 1005.5,-384.132"/>
</g>
<!-- HSet_isinj_ismono -->
<g id="node3" class="node"><title>HSet_isinj_ismono</title>
<g id="a_node3"><a xlink:href="HSet.html#isinj_ismono" xlink:title="isinj_ismono">
<ellipse fill="#facdef" stroke="black" cx="855" cy="-510.085" rx="56.5844" ry="18"/>
<ellipse fill="none" stroke="black" cx="855" cy="-510.085" rx="60.5872" ry="22"/>
<ellipse fill="none" stroke="black" cx="855" cy="-510.085" rx="64.59" ry="26"/>
<text text-anchor="middle" x="855" y="-506.385" font-family="Times,serif" font-size="14.00">isinj_ismono</text>
</a>
</g>
</g>
<!-- HSet_isinj -->
<g id="node6" class="node"><title>HSet_isinj</title>
<g id="a_node6"><a xlink:href="HSet.html#isinj" xlink:title="isinj">
<ellipse fill="#f070d1" stroke="black" cx="670" cy="-356.085" rx="27" ry="18"/>
<text text-anchor="middle" x="670" y="-352.385" font-family="Times,serif" font-size="14.00">isinj</text>
</a>
</g>
</g>
<!-- HSet_isinj_ismono&#45;&gt;HSet_isinj -->
<g id="edge3" class="edge"><title>HSet_isinj_ismono&#45;&gt;HSet_isinj</title>
<path fill="none" stroke="black" d="M826.499,-486.36C790.619,-456.492 729.541,-405.649 695.262,-377.113"/>
<polygon fill="black" stroke="black" points="697.08,-374.073 687.155,-370.365 692.602,-379.453 697.08,-374.073"/>
</g>
<!-- HSet_isinj_ismono&#45;&gt;HSet_ismono -->
<g id="edge4" class="edge"><title>HSet_isinj_ismono&#45;&gt;HSet_ismono</title>
<path fill="none" stroke="black" d="M878.293,-485.683C905.821,-456.844 951.347,-409.15 978.824,-380.364"/>
<polygon fill="black" stroke="black" points="981.692,-382.428 986.065,-372.778 976.629,-377.595 981.692,-382.428"/>
</g>
<!-- HSet_isembedding_isinj_hset -->
<g id="node4" class="node"><title>HSet_isembedding_isinj_hset</title>
<g id="a_node4"><a xlink:href="HSet.html#isembedding_isinj_hset" xlink:title="isembedding_isinj_hset">
<ellipse fill="#f070d1" stroke="black" cx="670" cy="-510.085" rx="94.4649" ry="18"/>
<ellipse fill="none" stroke="black" cx="670" cy="-510.085" rx="98.4744" ry="22"/>
<ellipse fill="none" stroke="black" cx="670" cy="-510.085" rx="102.484" ry="26"/>
<text text-anchor="middle" x="670" y="-506.385" font-family="Times,serif" font-size="14.00">isembedding_isinj_hset</text>
</a>
</g>
</g>
<!-- HSet_isembedding_isinj_hset&#45;&gt;HSet_isinj -->
<g id="edge5" class="edge"><title>HSet_isembedding_isinj_hset&#45;&gt;HSet_isinj</title>
<path fill="none" stroke="black" d="M670,-483.961C670,-456.263 670,-412.668 670,-384.226"/>
<polygon fill="black" stroke="black" points="673.5,-384.132 670,-374.132 666.5,-384.132 673.5,-384.132"/>
</g>
<!-- HSet_isinj_embedding -->
<g id="node5" class="node"><title>HSet_isinj_embedding</title>
<g id="a_node5"><a xlink:href="HSet.html#isinj_embedding" xlink:title="isinj_embedding">
<ellipse fill="#f070d1" stroke="black" cx="472" cy="-510.085" rx="69.5832" ry="18"/>
<ellipse fill="none" stroke="black" cx="472" cy="-510.085" rx="73.5854" ry="22"/>
<ellipse fill="none" stroke="black" cx="472" cy="-510.085" rx="77.5877" ry="26"/>
<text text-anchor="middle" x="472" y="-506.385" font-family="Times,serif" font-size="14.00">isinj_embedding</text>
</a>
</g>
</g>
<!-- HSet_isinj_embedding&#45;&gt;HSet_isinj -->
<g id="edge6" class="edge"><title>HSet_isinj_embedding&#45;&gt;HSet_isinj</title>
<path fill="none" stroke="black" d="M502.938,-486.022C541.805,-455.792 607.799,-404.463 644.121,-376.213"/>
<polygon fill="black" stroke="black" points="646.51,-378.789 652.255,-369.887 642.212,-373.263 646.51,-378.789"/>
</g>
<!-- HSet_isequiv_hrel_subpaths -->
<g id="node8" class="node"><title>HSet_isequiv_hrel_subpaths</title>
<g id="a_node8"><a xlink:href="HSet.html#isequiv_hrel_subpaths" xlink:title="isequiv_hrel_subpaths">
<ellipse fill="#f070d1" stroke="black" cx="279" cy="-510.085" rx="89.0807" ry="18"/>
<ellipse fill="none" stroke="black" cx="279" cy="-510.085" rx="93.0825" ry="22"/>
<ellipse fill="none" stroke="black" cx="279" cy="-510.085" rx="97.0842" ry="26"/>
<text text-anchor="middle" x="279" y="-506.385" font-family="Times,serif" font-size="14.00">isequiv_hrel_subpaths</text>
</a>
</g>
</g>
<!-- HSet_isset_hrel_subpaths -->
<g id="node9" class="node"><title>HSet_isset_hrel_subpaths</title>
<g id="a_node9"><a xlink:href="HSet.html#isset_hrel_subpaths" xlink:title="isset_hrel_subpaths">
<ellipse fill="#f070d1" stroke="black" cx="419" cy="-356.085" rx="79.0865" ry="18"/>
<text text-anchor="middle" x="419" y="-352.385" font-family="Times,serif" font-size="14.00">isset_hrel_subpaths</text>
</a>
</g>
</g>
<!-- HSet_isequiv_hrel_subpaths&#45;&gt;HSet_isset_hrel_subpaths -->
<g id="edge7" class="edge"><title>HSet_isequiv_hrel_subpaths&#45;&gt;HSet_isset_hrel_subpaths</title>
<path fill="none" stroke="black" d="M302.118,-484.655C328.1,-456.074 370.031,-409.951 395.975,-381.412"/>
<polygon fill="black" stroke="black" points="398.705,-383.612 402.842,-373.858 393.525,-378.903 398.705,-383.612"/>
</g>
<!-- HSet_hset_axiomK -->
<g id="node14" class="node"><title>HSet_hset_axiomK</title>
<g id="a_node14"><a xlink:href="HSet.html#hset_axiomK" xlink:title="hset_axiomK">
<ellipse fill="#f070d1" stroke="black" cx="321" cy="-201.085" rx="57.6901" ry="18"/>
<text text-anchor="middle" x="321" y="-197.385" font-family="Times,serif" font-size="14.00">hset_axiomK</text>
</a>
</g>
</g>
<!-- HSet_isset_hrel_subpaths&#45;&gt;HSet_hset_axiomK -->
<g id="edge8" class="edge"><title>HSet_isset_hrel_subpaths&#45;&gt;HSet_hset_axiomK</title>
<path fill="none" stroke="black" d="M407.566,-338.001C390.379,-310.817 357.782,-259.26 337.862,-227.754"/>
<polygon fill="black" stroke="black" points="340.663,-225.635 332.361,-219.053 334.747,-229.376 340.663,-225.635"/>
</g>
<!-- HSet_axiomK_idpath -->
<g id="node10" class="node"><title>HSet_axiomK_idpath</title>
<g id="a_node10"><a xlink:href="HSet.html#axiomK_idpath" xlink:title="axiomK_idpath">
<ellipse fill="#f070d1" stroke="black" cx="90" cy="-510.085" rx="65.7729" ry="18"/>
<ellipse fill="none" stroke="black" cx="90" cy="-510.085" rx="69.7808" ry="22"/>
<ellipse fill="none" stroke="black" cx="90" cy="-510.085" rx="73.7886" ry="26"/>
<text text-anchor="middle" x="90" y="-506.385" font-family="Times,serif" font-size="14.00">axiomK_idpath</text>
</a>
</g>
</g>
<!-- HSet_set_path2 -->
<g id="node11" class="node"><title>HSet_set_path2</title>
<g id="a_node11"><a xlink:href="HSet.html#set_path2" xlink:title="set_path2">
<ellipse fill="#f070d1" stroke="black" cx="60" cy="-356.085" rx="44.393" ry="18"/>
<text text-anchor="middle" x="60" y="-352.385" font-family="Times,serif" font-size="14.00">set_path2</text>
</a>
</g>
</g>
<!-- HSet_axiomK_idpath&#45;&gt;HSet_set_path2 -->
<g id="edge9" class="edge"><title>HSet_axiomK_idpath&#45;&gt;HSet_set_path2</title>
<path fill="none" stroke="black" d="M84.9109,-483.961C79.5152,-456.263 71.0227,-412.668 65.4821,-384.226"/>
<polygon fill="black" stroke="black" points="68.8634,-383.278 63.5158,-374.132 61.9925,-384.617 68.8634,-383.278"/>
</g>
<!-- HSet_axiomK_idpath&#45;&gt;HSet_hset_axiomK -->
<g id="edge10" class="edge"><title>HSet_axiomK_idpath&#45;&gt;HSet_hset_axiomK</title>
<path fill="none" stroke="black" d="M136.278,-489.681C194.884,-462.823 290.705,-415.149 311,-382.085 339.92,-334.969 333.86,-267.292 327.208,-229.454"/>
<polygon fill="black" stroke="black" points="330.559,-228.34 325.254,-219.169 323.682,-229.647 330.559,-228.34"/>
</g>
<!-- HSet_axiomK_hset -->
<g id="node15" class="node"><title>HSet_axiomK_hset</title>
<g id="a_node15"><a xlink:href="HSet.html#axiomK_hset" xlink:title="axiomK_hset">
<ellipse fill="#f070d1" stroke="black" cx="187" cy="-201.085" rx="57.6901" ry="18"/>
<text text-anchor="middle" x="187" y="-197.385" font-family="Times,serif" font-size="14.00">axiomK_hset</text>
</a>
</g>
</g>
<!-- HSet_set_path2&#45;&gt;HSet_axiomK_hset -->
<g id="edge11" class="edge"><title>HSet_set_path2&#45;&gt;HSet_axiomK_hset</title>
<path fill="none" stroke="black" d="M74.0765,-338.905C96.3674,-311.699 139.923,-258.541 165.943,-226.785"/>
<polygon fill="black" stroke="black" points="168.84,-228.771 172.47,-218.818 163.425,-224.335 168.84,-228.771"/>
</g>
<!-- HSet_axiomK_isprop -->
<g id="node12" class="node"><title>HSet_axiomK_isprop</title>
<g id="a_node12"><a xlink:href="HSet.html#axiomK_isprop" xlink:title="axiomK_isprop">
<ellipse fill="#f070d1" stroke="black" cx="470" cy="-201.085" rx="65.7729" ry="18"/>
<ellipse fill="none" stroke="black" cx="470" cy="-201.085" rx="69.7808" ry="22"/>
<ellipse fill="none" stroke="black" cx="470" cy="-201.085" rx="73.7886" ry="26"/>
<text text-anchor="middle" x="470" y="-197.385" font-family="Times,serif" font-size="14.00">axiomK_isprop</text>
</a>
</g>
</g>
<!-- HSet_axiomK -->
<g id="node16" class="node"><title>HSet_axiomK</title>
<g id="a_node16"><a xlink:href="HSet.html#axiomK" xlink:title="axiomK">
<ellipse fill="#f070d1" stroke="black" cx="321" cy="-60.0845" rx="39.7935" ry="18"/>
<text text-anchor="middle" x="321" y="-56.3845" font-family="Times,serif" font-size="14.00">axiomK</text>
</a>
</g>
</g>
<!-- HSet_axiomK_isprop&#45;&gt;HSet_axiomK -->
<g id="edge12" class="edge"><title>HSet_axiomK_isprop&#45;&gt;HSet_axiomK</title>
<path fill="none" stroke="black" d="M444.046,-176.524C416.423,-150.384 373.03,-109.321 345.84,-83.5907"/>
<polygon fill="black" stroke="black" points="347.962,-80.7797 338.292,-76.4485 343.15,-85.8641 347.962,-80.7797"/>
</g>
<!-- HSet_equiv_hset_axiomK -->
<g id="node13" class="node"><title>HSet_equiv_hset_axiomK</title>
<g id="a_node13"><a xlink:href="HSet.html#equiv_hset_axiomK" xlink:title="equiv_hset_axiomK">
<ellipse fill="#f070d1" stroke="black" cx="212" cy="-356.085" rx="81.7951" ry="18"/>
<ellipse fill="none" stroke="black" cx="212" cy="-356.085" rx="85.7904" ry="22"/>
<ellipse fill="none" stroke="black" cx="212" cy="-356.085" rx="89.7856" ry="26"/>
<text text-anchor="middle" x="212" y="-352.385" font-family="Times,serif" font-size="14.00">equiv_hset_axiomK</text>
</a>
</g>
</g>
<!-- HSet_equiv_hset_axiomK&#45;&gt;HSet_hset_axiomK -->
<g id="edge13" class="edge"><title>HSet_equiv_hset_axiomK&#45;&gt;HSet_hset_axiomK</title>
<path fill="none" stroke="black" d="M229.999,-330.489C250.055,-301.969 282.317,-256.093 302.553,-227.317"/>
<polygon fill="black" stroke="black" points="305.53,-229.167 308.42,-218.974 299.804,-225.14 305.53,-229.167"/>
</g>
<!-- HSet_equiv_hset_axiomK&#45;&gt;HSet_axiomK_hset -->
<g id="edge14" class="edge"><title>HSet_equiv_hset_axiomK&#45;&gt;HSet_axiomK_hset</title>
<path fill="none" stroke="black" d="M207.759,-329.791C203.263,-301.913 196.186,-258.035 191.568,-229.409"/>
<polygon fill="black" stroke="black" points="194.978,-228.564 189.93,-219.249 188.067,-229.679 194.978,-228.564"/>
</g>
<!-- HSet_hset_axiomK&#45;&gt;HSet_axiomK -->
<g id="edge15" class="edge"><title>HSet_hset_axiomK&#45;&gt;HSet_axiomK</title>
<path fill="none" stroke="black" d="M321,-182.94C321,-158.933 321,-116.371 321,-88.188"/>
<polygon fill="black" stroke="black" points="324.5,-88.1595 321,-78.1595 317.5,-88.1595 324.5,-88.1595"/>
</g>
<!-- HSet_axiomK_hset&#45;&gt;HSet_axiomK -->
<g id="edge16" class="edge"><title>HSet_axiomK_hset&#45;&gt;HSet_axiomK</title>
<path fill="none" stroke="black" d="M203.431,-183.795C227.195,-158.79 271.249,-112.434 298.162,-84.1153"/>
<polygon fill="black" stroke="black" points="300.916,-86.2988 305.267,-76.6389 295.842,-81.4765 300.916,-86.2988"/>
</g>
</g>
</svg>
