<?xml version="1.0" encoding="UTF-8" standalone="no"?>
<!DOCTYPE svg PUBLIC "-//W3C//DTD SVG 1.1//EN"
 "http://www.w3.org/Graphics/SVG/1.1/DTD/svg11.dtd">
<!-- Generated by graphviz version 2.39.20161220.0128 (20161220.0128)
 -->
<!-- Title: HoTT_Basics_FunextVarieties Pages: 1 -->
<svg width="974pt" height="491pt"
 viewBox="0.00 0.00 974.00 491.00" xmlns="http://www.w3.org/2000/svg" xmlns:xlink="http://www.w3.org/1999/xlink">
<g id="graph0" class="graph" transform="scale(1 1) rotate(0) translate(4 487)">
<title>HoTT_Basics_FunextVarieties</title>
<polygon fill="#ffffff" stroke="transparent" points="-4,4 -4,-487 970,-487 970,4 -4,4"/>
<g id="clust1" class="cluster">
<title>cluster_FunextVarieties</title>
<polygon fill="#ffffc3" stroke="#000000" points="9.39,-8 9.39,-475 956.61,-475 956.61,-8 9.39,-8"/>
<text text-anchor="middle" x="60.89" y="-459.8" font-family="Times,serif" font-size="14.00" fill="#000000">FunextVarieties</text>
</g>
<!-- FunextVarieties_contr_basedhomotopy -->
<g id="node1" class="node">
<title>FunextVarieties_contr_basedhomotopy</title>
<g id="a_node1"><a xlink:href="FunextVarieties.html#contr_basedhomotopy" xlink:title="contr_basedhomotopy">
<ellipse fill="#f070d1" stroke="#000000" cx="166.8931" cy="-330" rx="89.0807" ry="18"/>
<ellipse fill="none" stroke="#000000" cx="166.8931" cy="-330" rx="93.0825" ry="22"/>
<ellipse fill="none" stroke="#000000" cx="166.8931" cy="-330" rx="97.0842" ry="26"/>
<text text-anchor="middle" x="166.8931" y="-326.3" font-family="Times,serif" font-size="14.00" fill="#000000">contr_basedhomotopy</text>
</a>
</g>
</g>
<!-- FunextVarieties_contr_basedhtpy -->
<g id="node7" class="node">
<title>FunextVarieties_contr_basedhtpy</title>
<g id="a_node7"><a xlink:href="FunextVarieties.html#contr_basedhtpy" xlink:title="contr_basedhtpy">
<ellipse fill="#f070d1" stroke="#000000" cx="504.8931" cy="-106" rx="68.7879" ry="18"/>
<text text-anchor="middle" x="504.8931" y="-102.3" font-family="Times,serif" font-size="14.00" fill="#000000">contr_basedhtpy</text>
</a>
</g>
</g>
<!-- FunextVarieties_contr_basedhomotopy&#45;&gt;FunextVarieties_contr_basedhtpy -->
<g id="edge1" class="edge">
<title>FunextVarieties_contr_basedhomotopy&#45;&gt;FunextVarieties_contr_basedhtpy</title>
<path fill="none" stroke="#000000" d="M112.1884,-308.4871C74.5919,-290.394 35.0848,-262.6269 56.8931,-232 100.508,-170.7485 317.5326,-131.9572 432.7449,-115.3457"/>
<polygon fill="#000000" stroke="#000000" points="433.4835,-118.7759 442.8908,-113.9022 432.4975,-111.8457 433.4835,-118.7759"/>
</g>
<!-- FunextVarieties_NaiveFunext_implies_WeakFunext -->
<g id="node8" class="node">
<title>FunextVarieties_NaiveFunext_implies_WeakFunext</title>
<g id="a_node8"><a xlink:href="FunextVarieties.html#NaiveFunext_implies_WeakFunext" xlink:title="NaiveFunext_implies_WeakFunext">
<ellipse fill="#f070d1" stroke="#000000" cx="201.8931" cy="-250" rx="136.4758" ry="18"/>
<text text-anchor="middle" x="201.8931" y="-246.3" font-family="Times,serif" font-size="14.00" fill="#000000">NaiveFunext_implies_WeakFunext</text>
</a>
</g>
</g>
<!-- FunextVarieties_contr_basedhomotopy&#45;&gt;FunextVarieties_NaiveFunext_implies_WeakFunext -->
<g id="edge2" class="edge">
<title>FunextVarieties_contr_basedhomotopy&#45;&gt;FunextVarieties_NaiveFunext_implies_WeakFunext</title>
<path fill="none" stroke="#000000" d="M178.3534,-303.805C182.0616,-295.3292 186.1821,-285.9107 189.9261,-277.3531"/>
<polygon fill="#000000" stroke="#000000" points="193.1493,-278.7177 193.951,-268.1532 186.7362,-275.9119 193.1493,-278.7177"/>
</g>
<!-- FunextVarieties_Funext_implies_NaiveFunext -->
<g id="node9" class="node">
<title>FunextVarieties_Funext_implies_NaiveFunext</title>
<g id="a_node9"><a xlink:href="FunextVarieties.html#Funext_implies_NaiveFunext" xlink:title="Funext_implies_NaiveFunext">
<ellipse fill="#f070d1" stroke="#000000" cx="518.8931" cy="-250" rx="115.8798" ry="18"/>
<text text-anchor="middle" x="518.8931" y="-246.3" font-family="Times,serif" font-size="14.00" fill="#000000">Funext_implies_NaiveFunext</text>
</a>
</g>
</g>
<!-- FunextVarieties_contr_basedhomotopy&#45;&gt;FunextVarieties_Funext_implies_NaiveFunext -->
<g id="edge3" class="edge">
<title>FunextVarieties_contr_basedhomotopy&#45;&gt;FunextVarieties_Funext_implies_NaiveFunext</title>
<path fill="none" stroke="#000000" d="M241.1131,-313.1318C300.6308,-299.6051 383.8081,-280.7011 443.6062,-267.1107"/>
<polygon fill="#000000" stroke="#000000" points="444.392,-270.5214 453.3676,-264.8922 442.8406,-263.6955 444.392,-270.5214"/>
</g>
<!-- FunextVarieties_Funext_downward_closed -->
<g id="node2" class="node">
<title>FunextVarieties_Funext_downward_closed</title>
<g id="a_node2"><a xlink:href="FunextVarieties.html#Funext_downward_closed" xlink:title="Funext_downward_closed">
<ellipse fill="#f070d1" stroke="#000000" cx="516.8931" cy="-418" rx="103.1933" ry="18"/>
<ellipse fill="none" stroke="#000000" cx="516.8931" cy="-418" rx="107.1876" ry="22"/>
<ellipse fill="none" stroke="#000000" cx="516.8931" cy="-418" rx="111.1819" ry="26"/>
<text text-anchor="middle" x="516.8931" y="-414.3" font-family="Times,serif" font-size="14.00" fill="#000000">Funext_downward_closed</text>
</a>
</g>
</g>
<!-- FunextVarieties_NaiveFunext_implies_Funext -->
<g id="node3" class="node">
<title>FunextVarieties_NaiveFunext_implies_Funext</title>
<g id="a_node3"><a xlink:href="FunextVarieties.html#NaiveFunext_implies_Funext" xlink:title="NaiveFunext_implies_Funext">
<ellipse fill="#f070d1" stroke="#000000" cx="437.8931" cy="-330" rx="115.8798" ry="18"/>
<text text-anchor="middle" x="437.8931" y="-326.3" font-family="Times,serif" font-size="14.00" fill="#000000">NaiveFunext_implies_Funext</text>
</a>
</g>
</g>
<!-- FunextVarieties_Funext_downward_closed&#45;&gt;FunextVarieties_NaiveFunext_implies_Funext -->
<g id="edge4" class="edge">
<title>FunextVarieties_Funext_downward_closed&#45;&gt;FunextVarieties_NaiveFunext_implies_Funext</title>
<path fill="none" stroke="#000000" d="M494.043,-392.5468C483.6018,-380.9161 471.2609,-367.1692 460.8114,-355.5293"/>
<polygon fill="#000000" stroke="#000000" points="463.2108,-352.9627 453.926,-347.8595 458.0019,-357.6389 463.2108,-352.9627"/>
</g>
<!-- FunextVarieties_Funext_downward_closed&#45;&gt;FunextVarieties_Funext_implies_NaiveFunext -->
<g id="edge5" class="edge">
<title>FunextVarieties_Funext_downward_closed&#45;&gt;FunextVarieties_Funext_implies_NaiveFunext</title>
<path fill="none" stroke="#000000" d="M541.6604,-392.3811C550.1076,-381.9492 558.5194,-369.2351 562.8931,-356 570.1446,-334.056 570.6407,-325.7738 562.8931,-304 559.2064,-293.6392 552.5869,-283.8252 545.5832,-275.477"/>
<polygon fill="#000000" stroke="#000000" points="548.1165,-273.0595 538.8339,-267.9521 542.9055,-277.7334 548.1165,-273.0595"/>
</g>
<!-- FunextVarieties_WeakFunext_implies_Funext -->
<g id="node4" class="node">
<title>FunextVarieties_WeakFunext_implies_Funext</title>
<g id="a_node4"><a xlink:href="FunextVarieties.html#WeakFunext_implies_Funext" xlink:title="WeakFunext_implies_Funext">
<ellipse fill="#f070d1" stroke="#000000" cx="810.8931" cy="-250" rx="115.8798" ry="18"/>
<text text-anchor="middle" x="810.8931" y="-246.3" font-family="Times,serif" font-size="14.00" fill="#000000">WeakFunext_implies_Funext</text>
</a>
</g>
</g>
<!-- FunextVarieties_NaiveFunext_implies_Funext&#45;&gt;FunextVarieties_WeakFunext_implies_Funext -->
<g id="edge6" class="edge">
<title>FunextVarieties_NaiveFunext_implies_Funext&#45;&gt;FunextVarieties_WeakFunext_implies_Funext</title>
<path fill="none" stroke="#000000" d="M505.8733,-315.4198C569.8313,-301.7023 665.5423,-281.1744 732.6498,-266.7814"/>
<polygon fill="#000000" stroke="#000000" points="733.7067,-270.1344 742.7503,-264.6151 732.2387,-263.2901 733.7067,-270.1344"/>
</g>
<!-- FunextVarieties_NaiveFunext_implies_Funext&#45;&gt;FunextVarieties_NaiveFunext_implies_WeakFunext -->
<g id="edge7" class="edge">
<title>FunextVarieties_NaiveFunext_implies_Funext&#45;&gt;FunextVarieties_NaiveFunext_implies_WeakFunext</title>
<path fill="none" stroke="#000000" d="M389.5655,-313.6178C352.4402,-301.0329 300.9798,-283.5887 261.3337,-270.1494"/>
<polygon fill="#000000" stroke="#000000" points="262.3769,-266.8074 251.7826,-266.9117 260.1296,-273.4369 262.3769,-266.8074"/>
</g>
<!-- FunextVarieties_htpy_ind_beta -->
<g id="node5" class="node">
<title>FunextVarieties_htpy_ind_beta</title>
<g id="a_node5"><a xlink:href="FunextVarieties.html#htpy_ind_beta" xlink:title="htpy_ind_beta">
<ellipse fill="#f070d1" stroke="#000000" cx="672.8931" cy="-178" rx="61.1893" ry="18"/>
<text text-anchor="middle" x="672.8931" y="-174.3" font-family="Times,serif" font-size="14.00" fill="#000000">htpy_ind_beta</text>
</a>
</g>
</g>
<!-- FunextVarieties_WeakFunext_implies_Funext&#45;&gt;FunextVarieties_htpy_ind_beta -->
<g id="edge8" class="edge">
<title>FunextVarieties_WeakFunext_implies_Funext&#45;&gt;FunextVarieties_htpy_ind_beta</title>
<path fill="none" stroke="#000000" d="M777.4871,-232.5708C757.8416,-222.321 732.895,-209.3054 712.2927,-198.5563"/>
<polygon fill="#000000" stroke="#000000" points="713.652,-195.3178 703.1671,-193.7951 710.414,-201.5239 713.652,-195.3178"/>
</g>
<!-- FunextVarieties_htpy_ind -->
<g id="node6" class="node">
<title>FunextVarieties_htpy_ind</title>
<g id="a_node6"><a xlink:href="FunextVarieties.html#htpy_ind" xlink:title="htpy_ind">
<ellipse fill="#f070d1" stroke="#000000" cx="814.8931" cy="-178" rx="42.4939" ry="18"/>
<text text-anchor="middle" x="814.8931" y="-174.3" font-family="Times,serif" font-size="14.00" fill="#000000">htpy_ind</text>
</a>
</g>
</g>
<!-- FunextVarieties_WeakFunext_implies_Funext&#45;&gt;FunextVarieties_htpy_ind -->
<g id="edge9" class="edge">
<title>FunextVarieties_WeakFunext_implies_Funext&#45;&gt;FunextVarieties_htpy_ind</title>
<path fill="none" stroke="#000000" d="M811.9024,-231.8314C812.3302,-224.131 812.8389,-214.9743 813.3144,-206.4166"/>
<polygon fill="#000000" stroke="#000000" points="816.8099,-206.592 813.8701,-196.4133 809.8207,-206.2037 816.8099,-206.592"/>
</g>
<!-- FunextVarieties_Funext_type -->
<g id="node10" class="node">
<title>FunextVarieties_Funext_type</title>
<g id="a_node10"><a xlink:href="FunextVarieties.html#Funext_type" xlink:title="Funext_type">
<ellipse fill="#f070d1" stroke="#000000" cx="514.8931" cy="-178" rx="54.6905" ry="18"/>
<text text-anchor="middle" x="514.8931" y="-174.3" font-family="Times,serif" font-size="14.00" fill="#000000">Funext_type</text>
</a>
</g>
</g>
<!-- FunextVarieties_WeakFunext_implies_Funext&#45;&gt;FunextVarieties_Funext_type -->
<g id="edge10" class="edge">
<title>FunextVarieties_WeakFunext_implies_Funext&#45;&gt;FunextVarieties_Funext_type</title>
<path fill="none" stroke="#000000" d="M748.4808,-234.8186C695.211,-221.8611 619.4024,-203.4212 568.7492,-191.1001"/>
<polygon fill="#000000" stroke="#000000" points="569.512,-187.6837 558.9681,-188.721 567.8575,-194.4854 569.512,-187.6837"/>
</g>
<!-- FunextVarieties_htpy_ind_beta&#45;&gt;FunextVarieties_contr_basedhtpy -->
<g id="edge11" class="edge">
<title>FunextVarieties_htpy_ind_beta&#45;&gt;FunextVarieties_contr_basedhtpy</title>
<path fill="none" stroke="#000000" d="M638.0834,-163.0816C612.6353,-152.1752 577.8871,-137.2832 550.2639,-125.4446"/>
<polygon fill="#000000" stroke="#000000" points="551.3875,-122.1184 540.8173,-121.3961 548.6301,-128.5524 551.3875,-122.1184"/>
</g>
<!-- FunextVarieties_htpy_ind&#45;&gt;FunextVarieties_contr_basedhtpy -->
<g id="edge12" class="edge">
<title>FunextVarieties_htpy_ind&#45;&gt;FunextVarieties_contr_basedhtpy</title>
<path fill="none" stroke="#000000" d="M778.3027,-168.6879C766.9657,-165.847 754.4238,-162.7491 742.8931,-160 683.6376,-145.8726 615.8717,-130.5813 567.8445,-119.8894"/>
<polygon fill="#000000" stroke="#000000" points="568.427,-116.4335 557.9057,-117.6797 566.9078,-123.2667 568.427,-116.4335"/>
</g>
<!-- FunextVarieties_WeakFunext -->
<g id="node11" class="node">
<title>FunextVarieties_WeakFunext</title>
<g id="a_node11"><a xlink:href="FunextVarieties.html#WeakFunext" xlink:title="WeakFunext">
<ellipse fill="#f070d1" stroke="#000000" cx="270.8931" cy="-34" rx="55.7903" ry="18"/>
<text text-anchor="middle" x="270.8931" y="-30.3" font-family="Times,serif" font-size="14.00" fill="#000000">WeakFunext</text>
</a>
</g>
</g>
<!-- FunextVarieties_contr_basedhtpy&#45;&gt;FunextVarieties_WeakFunext -->
<g id="edge13" class="edge">
<title>FunextVarieties_contr_basedhtpy&#45;&gt;FunextVarieties_WeakFunext</title>
<path fill="none" stroke="#000000" d="M460.0524,-92.2029C420.3695,-79.9927 362.5169,-62.192 321.2541,-49.4957"/>
<polygon fill="#000000" stroke="#000000" points="322.255,-46.1418 311.6679,-46.5461 320.1964,-52.8323 322.255,-46.1418"/>
</g>
<!-- FunextVarieties_NaiveFunext_implies_WeakFunext&#45;&gt;FunextVarieties_WeakFunext -->
<g id="edge14" class="edge">
<title>FunextVarieties_NaiveFunext_implies_WeakFunext&#45;&gt;FunextVarieties_WeakFunext</title>
<path fill="none" stroke="#000000" d="M207.6573,-231.9555C219.7069,-194.235 247.6315,-106.8188 261.9998,-61.8399"/>
<polygon fill="#000000" stroke="#000000" points="265.3877,-62.7359 265.0967,-52.1451 258.7197,-60.6058 265.3877,-62.7359"/>
</g>
<!-- FunextVarieties_NaiveFunext -->
<g id="node12" class="node">
<title>FunextVarieties_NaiveFunext</title>
<g id="a_node12"><a xlink:href="FunextVarieties.html#NaiveFunext" xlink:title="NaiveFunext">
<ellipse fill="#f070d1" stroke="#000000" cx="329.8931" cy="-178" rx="55.7903" ry="18"/>
<text text-anchor="middle" x="329.8931" y="-174.3" font-family="Times,serif" font-size="14.00" fill="#000000">NaiveFunext</text>
</a>
</g>
</g>
<!-- FunextVarieties_NaiveFunext_implies_WeakFunext&#45;&gt;FunextVarieties_NaiveFunext -->
<g id="edge15" class="edge">
<title>FunextVarieties_NaiveFunext_implies_WeakFunext&#45;&gt;FunextVarieties_NaiveFunext</title>
<path fill="none" stroke="#000000" d="M233.2054,-232.3868C251.269,-222.226 274.0815,-209.394 293.0108,-198.7463"/>
<polygon fill="#000000" stroke="#000000" points="294.9539,-201.6691 301.9537,-193.7159 291.522,-195.568 294.9539,-201.6691"/>
</g>
<!-- FunextVarieties_Funext_implies_NaiveFunext&#45;&gt;FunextVarieties_Funext_type -->
<g id="edge16" class="edge">
<title>FunextVarieties_Funext_implies_NaiveFunext&#45;&gt;FunextVarieties_Funext_type</title>
<path fill="none" stroke="#000000" d="M517.8837,-231.8314C517.4559,-224.131 516.9472,-214.9743 516.4718,-206.4166"/>
<polygon fill="#000000" stroke="#000000" points="519.9654,-206.2037 515.916,-196.4133 512.9762,-206.592 519.9654,-206.2037"/>
</g>
<!-- FunextVarieties_Funext_implies_NaiveFunext&#45;&gt;FunextVarieties_NaiveFunext -->
<g id="edge17" class="edge">
<title>FunextVarieties_Funext_implies_NaiveFunext&#45;&gt;FunextVarieties_NaiveFunext</title>
<path fill="none" stroke="#000000" d="M475.0576,-233.3008C445.2428,-221.9428 405.8753,-206.9456 375.6594,-195.4348"/>
<polygon fill="#000000" stroke="#000000" points="376.7852,-192.1184 366.1944,-191.8291 374.2932,-198.6598 376.7852,-192.1184"/>
</g>
</g>
</svg>
