<?xml version="1.0" encoding="UTF-8" standalone="no"?>
<!DOCTYPE svg PUBLIC "-//W3C//DTD SVG 1.1//EN"
 "http://www.w3.org/Graphics/SVG/1.1/DTD/svg11.dtd">
<!-- Generated by graphviz version 2.39.20141222.0545 (20141222.0545)
 -->
<!-- Title: HoTT_Types_Empty Pages: 1 -->
<svg width="753pt" height="380pt"
 viewBox="0.00 0.00 753.00 380.50" xmlns="http://www.w3.org/2000/svg" xmlns:xlink="http://www.w3.org/1999/xlink">
<g id="graph0" class="graph" transform="scale(1 1) rotate(0) translate(4 376.5)">
<title>HoTT_Types_Empty</title>
<polygon fill="white" stroke="transparent" points="-4,4 -4,-376.5 749,-376.5 749,4 -4,4"/>
<g id="clust1" class="cluster"><title>cluster_Empty</title>
<polygon fill="#ffffc3" stroke="black" points="8,-16.648 8,-355.852 737,-355.852 737,-16.648 8,-16.648"/>
<text text-anchor="middle" x="34.5" y="-340.652" font-family="Times,serif" font-size="14.00">Empty</text>
</g>
<!-- Empty_decidable_empty -->
<g id="node1" class="node"><title>Empty_decidable_empty</title>
<g id="a_node1"><a xlink:href="Empty.html#decidable_empty" xlink:title="decidable_empty">
<ellipse fill="#f070d1" stroke="black" cx="650" cy="-237.648" rx="71.488" ry="18"/>
<ellipse fill="none" stroke="black" cx="650" cy="-237.648" rx="75.4876" ry="22"/>
<ellipse fill="none" stroke="black" cx="650" cy="-237.648" rx="79.4873" ry="26"/>
<text text-anchor="middle" x="650" y="-233.948" font-family="Times,serif" font-size="14.00">decidable_empty</text>
</a>
</g>
</g>
<!-- Empty_all_to_empty_isequiv -->
<g id="node2" class="node"><title>Empty_all_to_empty_isequiv</title>
<g id="a_node2"><a xlink:href="Empty.html#all_to_empty_isequiv" xlink:title="all_to_empty_isequiv">
<ellipse fill="#f070d1" stroke="black" cx="457" cy="-237.648" rx="87.1769" ry="18"/>
<ellipse fill="none" stroke="black" cx="457" cy="-237.648" rx="91.1807" ry="22"/>
<ellipse fill="none" stroke="black" cx="457" cy="-237.648" rx="95.1846" ry="26"/>
<text text-anchor="middle" x="457" y="-233.948" font-family="Times,serif" font-size="14.00">all_to_empty_isequiv</text>
</a>
</g>
</g>
<!-- Empty_Empty_rec -->
<g id="node3" class="node"><title>Empty_Empty_rec</title>
<g id="a_node3"><a xlink:href="Empty.html#Empty_rec" xlink:title="Empty_rec">
<ellipse fill="#f070d1" stroke="black" cx="457" cy="-70.648" rx="50.0912" ry="18"/>
<text text-anchor="middle" x="457" y="-66.948" font-family="Times,serif" font-size="14.00">Empty_rec</text>
</a>
</g>
</g>
<!-- Empty_all_to_empty_isequiv&#45;&gt;Empty_Empty_rec -->
<g id="edge1" class="edge"><title>Empty_all_to_empty_isequiv&#45;&gt;Empty_Empty_rec</title>
<path fill="none" stroke="black" d="M457,-211.554C457,-181.028 457,-130.661 457,-99.1385"/>
<polygon fill="black" stroke="black" points="460.5,-98.8378 457,-88.8379 453.5,-98.8379 460.5,-98.8378"/>
</g>
<!-- Empty_hprop_Empty -->
<g id="node4" class="node"><title>Empty_hprop_Empty</title>
<g id="a_node4"><a xlink:href="Empty.html#hprop_Empty" xlink:title="hprop_Empty">
<ellipse fill="#f070d1" stroke="black" cx="276" cy="-237.648" rx="59.6142" ry="18"/>
<ellipse fill="none" stroke="black" cx="276" cy="-237.648" rx="63.6021" ry="22"/>
<ellipse fill="none" stroke="black" cx="276" cy="-237.648" rx="67.59" ry="26"/>
<text text-anchor="middle" x="276" y="-233.948" font-family="Times,serif" font-size="14.00">hprop_Empty</text>
</a>
</g>
</g>
<!-- Empty_contr_from_Empty -->
<g id="node5" class="node"><title>Empty_contr_from_Empty</title>
<g id="a_node5"><a xlink:href="Empty.html#contr_from_Empty" xlink:title="contr_from_Empty">
<ellipse fill="#f070d1" stroke="black" cx="103" cy="-237.648" rx="79.1053" ry="18"/>
<ellipse fill="none" stroke="black" cx="103" cy="-237.648" rx="83.0959" ry="22"/>
<ellipse fill="none" stroke="black" cx="103" cy="-237.648" rx="87.0864" ry="26"/>
<text text-anchor="middle" x="103" y="-233.948" font-family="Times,serif" font-size="14.00">contr_from_Empty</text>
</a>
</g>
</g>
</g>
</svg>
