<?xml version="1.0" encoding="UTF-8" standalone="no"?>
<!DOCTYPE svg PUBLIC "-//W3C//DTD SVG 1.1//EN"
 "http://www.w3.org/Graphics/SVG/1.1/DTD/svg11.dtd">
<!-- Generated by graphviz version 2.26.3 (20100126.1600)
 -->
<!-- Title: HoTT_ObjectClassifier Pages: 1 -->
<svg width="1042pt" height="525pt"
 viewBox="0.00 0.00 1042.00 525.00" xmlns="http://www.w3.org/2000/svg" xmlns:xlink="http://www.w3.org/1999/xlink">
<g id="graph1" class="graph" transform="scale(1 1) rotate(0) translate(4 521)">
<title>HoTT_ObjectClassifier</title>
<polygon fill="white" stroke="white" points="-4,5 -4,-521 1039,-521 1039,5 -4,5"/>
<g id="graph2" class="cluster"><title>cluster_ObjectClassifier</title>
<polygon fill="#ffffc3" stroke="black" points="8,-10.1373 8,-506.863 1026,-506.863 1026,-10.1373 8,-10.1373"/>
<text text-anchor="middle" x="69" y="-490.263" font-family="Times Roman,serif" font-size="14.00">ObjectClassifier</text>
</g>
<!-- ObjectClassifier_PowisoPFam -->
<g id="node1" class="node"><title>ObjectClassifier_PowisoPFam</title>
<a xlink:href="ObjectClassifier.html#PowisoPFam" xlink:title="PowisoPFam">
<ellipse fill="#f070d1" stroke="black" cx="939" cy="-429.137" rx="70.9686" ry="18.3848"/>
<ellipse fill="none" stroke="black" cx="939" cy="-429.137" rx="74.9435" ry="22.3848"/>
<ellipse fill="none" stroke="black" cx="939" cy="-429.137" rx="78.9183" ry="26.3848"/>
<text text-anchor="middle" x="939" y="-425.537" font-family="Times Roman,serif" font-size="14.00">PowisoPFam</text>
</a>
</g>
<!-- ObjectClassifier_Pfam2pow -->
<g id="node2" class="node"><title>ObjectClassifier_Pfam2pow</title>
<a xlink:href="ObjectClassifier.html#Pfam2pow" xlink:title="Pfam2pow">
<ellipse fill="#f070d1" stroke="black" cx="915" cy="-326.137" rx="62.9325" ry="18.3848"/>
<text text-anchor="middle" x="915" y="-322.537" font-family="Times Roman,serif" font-size="14.00">Pfam2pow</text>
</a>
</g>
<!-- ObjectClassifier_PowisoPFam&#45;&gt;ObjectClassifier_Pfam2pow -->
<g id="edge2" class="edge"><title>ObjectClassifier_PowisoPFam&#45;&gt;ObjectClassifier_Pfam2pow</title>
<path fill="none" stroke="black" d="M932.819,-402.612C929.389,-387.89 925.121,-369.574 921.622,-354.558"/>
<polygon fill="black" stroke="black" points="925.021,-353.72 919.343,-344.775 918.203,-355.308 925.021,-353.72"/>
</g>
<!-- ObjectClassifier_pow2Pfam -->
<g id="node4" class="node"><title>ObjectClassifier_pow2Pfam</title>
<a xlink:href="ObjectClassifier.html#pow2Pfam" xlink:title="pow2Pfam">
<ellipse fill="#f070d1" stroke="black" cx="933" cy="-232.137" rx="62.9325" ry="18.3848"/>
<text text-anchor="middle" x="933" y="-228.537" font-family="Times Roman,serif" font-size="14.00">pow2Pfam</text>
</a>
</g>
<!-- ObjectClassifier_PowisoPFam&#45;&gt;ObjectClassifier_pow2Pfam -->
<g id="edge4" class="edge"><title>ObjectClassifier_PowisoPFam&#45;&gt;ObjectClassifier_pow2Pfam</title>
<path fill="none" stroke="black" d="M966.079,-404.156C988.823,-379.991 1015.6,-342.005 1002,-307.137 994.297,-287.388 978.691,-269.696 964.266,-256.463"/>
<polygon fill="black" stroke="black" points="966.255,-253.552 956.431,-249.585 961.637,-258.812 966.255,-253.552"/>
</g>
<!-- ObjectClassifier_FamequivPow -->
<g id="node12" class="node"><title>ObjectClassifier_FamequivPow</title>
<a xlink:href="ObjectClassifier.html#FamequivPow" xlink:title="FamequivPow">
<ellipse fill="#f070d1" stroke="black" cx="759" cy="-232.137" rx="77.9889" ry="18.3848"/>
<text text-anchor="middle" x="759" y="-228.537" font-family="Times Roman,serif" font-size="14.00">FamequivPow</text>
</a>
</g>
<!-- ObjectClassifier_PowisoPFam&#45;&gt;ObjectClassifier_FamequivPow -->
<g id="edge6" class="edge"><title>ObjectClassifier_PowisoPFam&#45;&gt;ObjectClassifier_FamequivPow</title>
<path fill="none" stroke="black" d="M962.801,-403.469C983.961,-377.423 1008.49,-336.823 987,-307.137 968.167,-281.117 889.33,-259.236 829.589,-245.946"/>
<polygon fill="black" stroke="black" points="830.32,-242.523 819.803,-243.807 828.825,-249.362 830.32,-242.523"/>
</g>
<!-- ObjectClassifier_Pfam2pow_pf -->
<g id="node3" class="node"><title>ObjectClassifier_Pfam2pow_pf</title>
<a xlink:href="ObjectClassifier.html#Pfam2pow_pf" xlink:title="Pfam2pow_pf">
<ellipse fill="#facdef" stroke="black" cx="555" cy="-232.137" rx="77.7817" ry="18.3848"/>
<text text-anchor="middle" x="555" y="-228.537" font-family="Times Roman,serif" font-size="14.00">Pfam2pow_pf</text>
</a>
</g>
<!-- ObjectClassifier_Pfam2pow&#45;&gt;ObjectClassifier_Pfam2pow_pf -->
<g id="edge8" class="edge"><title>ObjectClassifier_Pfam2pow&#45;&gt;ObjectClassifier_Pfam2pow_pf</title>
<path fill="none" stroke="black" d="M868.142,-313.748C859.771,-311.542 851.128,-309.268 843,-307.137 765.399,-286.794 675.987,-263.538 617.637,-248.386"/>
<polygon fill="black" stroke="black" points="618.389,-244.966 607.83,-245.84 616.63,-251.741 618.389,-244.966"/>
</g>
<!-- ObjectClassifier_PFam -->
<g id="node6" class="node"><title>ObjectClassifier_PFam</title>
<a xlink:href="ObjectClassifier.html#PFam" xlink:title="PFam">
<ellipse fill="#f070d1" stroke="black" cx="465" cy="-138.137" rx="36.977" ry="18.3848"/>
<text text-anchor="middle" x="465" y="-134.537" font-family="Times Roman,serif" font-size="14.00">PFam</text>
</a>
</g>
<!-- ObjectClassifier_Pfam2pow_pf&#45;&gt;ObjectClassifier_PFam -->
<g id="edge10" class="edge"><title>ObjectClassifier_Pfam2pow_pf&#45;&gt;ObjectClassifier_PFam</title>
<path fill="none" stroke="black" d="M537.647,-214.013C523.6,-199.342 503.685,-178.542 488.258,-162.429"/>
<polygon fill="black" stroke="black" points="490.534,-159.745 481.09,-154.943 485.478,-164.586 490.534,-159.745"/>
</g>
<!-- ObjectClassifier_f2p -->
<g id="node14" class="node"><title>ObjectClassifier_f2p</title>
<a xlink:href="ObjectClassifier.html#f2p" xlink:title="f2p">
<ellipse fill="#f070d1" stroke="black" cx="547" cy="-138.137" rx="27" ry="18.3848"/>
<text text-anchor="middle" x="547" y="-134.537" font-family="Times Roman,serif" font-size="14.00">f2p</text>
</a>
</g>
<!-- ObjectClassifier_Pfam2pow_pf&#45;&gt;ObjectClassifier_f2p -->
<g id="edge12" class="edge"><title>ObjectClassifier_Pfam2pow_pf&#45;&gt;ObjectClassifier_f2p</title>
<path fill="none" stroke="black" d="M553.419,-213.566C552.291,-200.305 550.751,-182.208 549.462,-167.064"/>
<polygon fill="black" stroke="black" points="552.913,-166.337 548.577,-156.67 545.938,-166.931 552.913,-166.337"/>
</g>
<!-- ObjectClassifier_pow2Pfam_pf -->
<g id="node5" class="node"><title>ObjectClassifier_pow2Pfam_pf</title>
<a xlink:href="ObjectClassifier.html#pow2Pfam_pf" xlink:title="pow2Pfam_pf">
<ellipse fill="#facdef" stroke="black" cx="940" cy="-138.137" rx="77.7817" ry="18.3848"/>
<text text-anchor="middle" x="940" y="-134.537" font-family="Times Roman,serif" font-size="14.00">pow2Pfam_pf</text>
</a>
</g>
<!-- ObjectClassifier_pow2Pfam&#45;&gt;ObjectClassifier_pow2Pfam_pf -->
<g id="edge14" class="edge"><title>ObjectClassifier_pow2Pfam&#45;&gt;ObjectClassifier_pow2Pfam_pf</title>
<path fill="none" stroke="black" d="M934.383,-213.566C935.37,-200.305 936.718,-182.208 937.846,-167.064"/>
<polygon fill="black" stroke="black" points="941.368,-166.902 938.62,-156.67 934.387,-166.382 941.368,-166.902"/>
</g>
<!-- ObjectClassifier_p2f -->
<g id="node15" class="node"><title>ObjectClassifier_p2f</title>
<a xlink:href="ObjectClassifier.html#p2f" xlink:title="p2f">
<ellipse fill="#f070d1" stroke="black" cx="797" cy="-138.137" rx="27" ry="18.3848"/>
<text text-anchor="middle" x="797" y="-134.537" font-family="Times Roman,serif" font-size="14.00">p2f</text>
</a>
</g>
<!-- ObjectClassifier_pow2Pfam&#45;&gt;ObjectClassifier_p2f -->
<g id="edge16" class="edge"><title>ObjectClassifier_pow2Pfam&#45;&gt;ObjectClassifier_p2f</title>
<path fill="none" stroke="black" d="M908.056,-214.896C884.425,-198.563 849.01,-174.085 824.556,-157.183"/>
<polygon fill="black" stroke="black" points="826.301,-154.135 816.085,-151.328 822.321,-159.893 826.301,-154.135"/>
</g>
<!-- ObjectClassifier_Fam -->
<g id="node16" class="node"><title>ObjectClassifier_Fam</title>
<a xlink:href="ObjectClassifier.html#Fam" xlink:title="Fam">
<ellipse fill="#f070d1" stroke="black" cx="547" cy="-44.1373" rx="31.1127" ry="18.3848"/>
<text text-anchor="middle" x="547" y="-40.5373" font-family="Times Roman,serif" font-size="14.00">Fam</text>
</a>
</g>
<!-- ObjectClassifier_pow2Pfam&#45;&gt;ObjectClassifier_Fam -->
<g id="edge18" class="edge"><title>ObjectClassifier_pow2Pfam&#45;&gt;ObjectClassifier_Fam</title>
<path fill="none" stroke="black" d="M910.712,-214.742C893.497,-200.532 869.845,-179.247 853,-157.137 841.434,-141.956 847.943,-131.01 833,-119.137 794.963,-88.9161 656.82,-62.3832 587.399,-50.6062"/>
<polygon fill="black" stroke="black" points="587.715,-47.1104 577.275,-48.9106 586.559,-54.0143 587.715,-47.1104"/>
</g>
<!-- ObjectClassifier_IsPfibered -->
<g id="node7" class="node"><title>ObjectClassifier_IsPfibered</title>
<a xlink:href="ObjectClassifier.html#IsPfibered" xlink:title="IsPfibered">
<ellipse fill="#f070d1" stroke="black" cx="797" cy="-44.1373" rx="58.8978" ry="18.3848"/>
<text text-anchor="middle" x="797" y="-40.5373" font-family="Times Roman,serif" font-size="14.00">IsPfibered</text>
</a>
</g>
<!-- ObjectClassifier_pow2Pfam_pf&#45;&gt;ObjectClassifier_IsPfibered -->
<g id="edge20" class="edge"><title>ObjectClassifier_pow2Pfam_pf&#45;&gt;ObjectClassifier_IsPfibered</title>
<path fill="none" stroke="black" d="M913.438,-120.677C890.173,-105.384 856.233,-83.0735 830.992,-66.4817"/>
<polygon fill="black" stroke="black" points="832.737,-63.4406 822.459,-60.8723 828.892,-69.29 832.737,-63.4406"/>
</g>
<!-- ObjectClassifier_PFam&#45;&gt;ObjectClassifier_IsPfibered -->
<g id="edge22" class="edge"><title>ObjectClassifier_PFam&#45;&gt;ObjectClassifier_IsPfibered</title>
<path fill="none" stroke="black" d="M492.991,-125.871C498.884,-123.488 505.103,-121.118 511,-119.137 588.622,-93.0619 680.558,-70.3614 738.83,-56.9546"/>
<polygon fill="black" stroke="black" points="739.627,-60.3627 748.595,-54.7223 738.067,-53.5387 739.627,-60.3627"/>
</g>
<!-- ObjectClassifier_PFam&#45;&gt;ObjectClassifier_Fam -->
<g id="edge24" class="edge"><title>ObjectClassifier_PFam&#45;&gt;ObjectClassifier_Fam</title>
<path fill="none" stroke="black" d="M480.04,-120.896C492.914,-106.138 511.588,-84.731 525.947,-68.2708"/>
<polygon fill="black" stroke="black" points="528.669,-70.4751 532.605,-60.6386 523.394,-65.8735 528.669,-70.4751"/>
</g>
<!-- ObjectClassifier_objclasspb_is_fibrantreplacement -->
<g id="node8" class="node"><title>ObjectClassifier_objclasspb_is_fibrantreplacement</title>
<a xlink:href="ObjectClassifier.html#objclasspb_is_fibrantreplacement" xlink:title="objclasspb_is_fibrantreplacement">
<ellipse fill="#facdef" stroke="black" cx="478" cy="-429.137" rx="171.12" ry="18.3848"/>
<ellipse fill="none" stroke="black" cx="478" cy="-429.137" rx="175.12" ry="22.3848"/>
<ellipse fill="none" stroke="black" cx="478" cy="-429.137" rx="179.12" ry="26.3848"/>
<text text-anchor="middle" x="478" y="-425.537" font-family="Times Roman,serif" font-size="14.00">objclasspb_is_fibrantreplacement</text>
</a>
</g>
<!-- ObjectClassifier_help_objclasspb_is_fibrantreplacement2 -->
<g id="node9" class="node"><title>ObjectClassifier_help_objclasspb_is_fibrantreplacement2</title>
<a xlink:href="ObjectClassifier.html#help_objclasspb_is_fibrantreplacement2" xlink:title="help_objclasspb_is_fibrantreplacement2">
<ellipse fill="#f070d1" stroke="black" cx="631" cy="-326.137" rx="203.146" ry="18.3848"/>
<text text-anchor="middle" x="631" y="-322.537" font-family="Times Roman,serif" font-size="14.00">help_objclasspb_is_fibrantreplacement2</text>
</a>
</g>
<!-- ObjectClassifier_objclasspb_is_fibrantreplacement&#45;&gt;ObjectClassifier_help_objclasspb_is_fibrantreplacement2 -->
<g id="edge26" class="edge"><title>ObjectClassifier_objclasspb_is_fibrantreplacement&#45;&gt;ObjectClassifier_help_objclasspb_is_fibrantreplacement2</title>
<path fill="none" stroke="black" d="M516.608,-403.146C540.734,-386.904 571.587,-366.134 595.17,-350.258"/>
<polygon fill="black" stroke="black" points="597.162,-353.136 603.503,-344.648 593.253,-347.329 597.162,-353.136"/>
</g>
<!-- ObjectClassifier_help_objclasspb_is_fibrantreplacement -->
<g id="node10" class="node"><title>ObjectClassifier_help_objclasspb_is_fibrantreplacement</title>
<a xlink:href="ObjectClassifier.html#help_objclasspb_is_fibrantreplacement" xlink:title="help_objclasspb_is_fibrantreplacement">
<ellipse fill="#f070d1" stroke="black" cx="213" cy="-326.137" rx="196.783" ry="18.3848"/>
<text text-anchor="middle" x="213" y="-322.537" font-family="Times Roman,serif" font-size="14.00">help_objclasspb_is_fibrantreplacement</text>
</a>
</g>
<!-- ObjectClassifier_objclasspb_is_fibrantreplacement&#45;&gt;ObjectClassifier_help_objclasspb_is_fibrantreplacement -->
<g id="edge28" class="edge"><title>ObjectClassifier_objclasspb_is_fibrantreplacement&#45;&gt;ObjectClassifier_help_objclasspb_is_fibrantreplacement</title>
<path fill="none" stroke="black" d="M414.189,-404.335C369.908,-387.124 311.48,-364.414 269.004,-347.905"/>
<polygon fill="black" stroke="black" points="270.242,-344.631 259.653,-344.27 267.706,-351.155 270.242,-344.631"/>
</g>
<!-- ObjectClassifier_pullback -->
<g id="node17" class="node"><title>ObjectClassifier_pullback</title>
<a xlink:href="ObjectClassifier.html#pullback" xlink:title="pullback">
<ellipse fill="#f070d1" stroke="black" cx="408" cy="-232.137" rx="51.1176" ry="18.3848"/>
<text text-anchor="middle" x="408" y="-228.537" font-family="Times Roman,serif" font-size="14.00">pullback</text>
</a>
</g>
<!-- ObjectClassifier_help_objclasspb_is_fibrantreplacement2&#45;&gt;ObjectClassifier_pullback -->
<g id="edge30" class="edge"><title>ObjectClassifier_help_objclasspb_is_fibrantreplacement2&#45;&gt;ObjectClassifier_pullback</title>
<path fill="none" stroke="black" d="M588.003,-308.013C548.567,-291.39 490.463,-266.897 451.019,-250.271"/>
<polygon fill="black" stroke="black" points="451.99,-246.882 441.415,-246.223 449.271,-253.332 451.99,-246.882"/>
</g>
<!-- ObjectClassifier_topmap -->
<g id="node11" class="node"><title>ObjectClassifier_topmap</title>
<a xlink:href="ObjectClassifier.html#topmap" xlink:title="topmap">
<ellipse fill="#f070d1" stroke="black" cx="149" cy="-429.137" rx="48.0833" ry="18.3848"/>
<ellipse fill="none" stroke="black" cx="149" cy="-429.137" rx="52.0833" ry="22.3848"/>
<ellipse fill="none" stroke="black" cx="149" cy="-429.137" rx="56.0833" ry="26.3848"/>
<text text-anchor="middle" x="149" y="-425.537" font-family="Times Roman,serif" font-size="14.00">topmap</text>
</a>
</g>
<!-- ObjectClassifier_transport_exp -->
<g id="node13" class="node"><title>ObjectClassifier_transport_exp</title>
<a xlink:href="ObjectClassifier.html#transport_exp" xlink:title="transport_exp">
<ellipse fill="#facdef" stroke="black" cx="672" cy="-138.137" rx="79.9031" ry="18.3848"/>
<text text-anchor="middle" x="672" y="-134.537" font-family="Times Roman,serif" font-size="14.00">transport_exp</text>
</a>
</g>
<!-- ObjectClassifier_FamequivPow&#45;&gt;ObjectClassifier_transport_exp -->
<g id="edge32" class="edge"><title>ObjectClassifier_FamequivPow&#45;&gt;ObjectClassifier_transport_exp</title>
<path fill="none" stroke="black" d="M742.226,-214.013C729.071,-199.8 710.593,-179.836 695.893,-163.953"/>
<polygon fill="black" stroke="black" points="698.381,-161.488 689.02,-156.526 693.244,-166.243 698.381,-161.488"/>
</g>
<!-- ObjectClassifier_FamequivPow&#45;&gt;ObjectClassifier_f2p -->
<g id="edge34" class="edge"><title>ObjectClassifier_FamequivPow&#45;&gt;ObjectClassifier_f2p</title>
<path fill="none" stroke="black" d="M719.089,-216.233C683.142,-201.648 629.035,-179.048 583,-157.137 581.181,-156.272 579.321,-155.363 577.452,-154.432"/>
<polygon fill="black" stroke="black" points="578.669,-151.124 568.173,-149.684 575.481,-157.355 578.669,-151.124"/>
</g>
<!-- ObjectClassifier_FamequivPow&#45;&gt;ObjectClassifier_p2f -->
<g id="edge36" class="edge"><title>ObjectClassifier_FamequivPow&#45;&gt;ObjectClassifier_p2f</title>
<path fill="none" stroke="black" d="M766.508,-213.566C772.043,-199.872 779.664,-181.021 785.902,-165.59"/>
<polygon fill="black" stroke="black" points="789.263,-166.615 789.766,-156.032 782.773,-163.992 789.263,-166.615"/>
</g>
<!-- ObjectClassifier_f2p&#45;&gt;ObjectClassifier_Fam -->
<g id="edge38" class="edge"><title>ObjectClassifier_f2p&#45;&gt;ObjectClassifier_Fam</title>
<path fill="none" stroke="black" d="M547,-119.566C547,-106.305 547,-88.2078 547,-73.0639"/>
<polygon fill="black" stroke="black" points="550.5,-72.67 547,-62.6701 543.5,-72.6701 550.5,-72.67"/>
</g>
</g>
</svg>
