<?xml version="1.0" encoding="UTF-8" standalone="no"?>
<!DOCTYPE svg PUBLIC "-//W3C//DTD SVG 1.1//EN"
 "http://www.w3.org/Graphics/SVG/1.1/DTD/svg11.dtd">
<!-- Generated by graphviz version 2.39.20161220.0128 (20161220.0128)
 -->
<!-- Title: HoTT_Categories_Grothendieck_ToSet Pages: 1 -->
<svg width="2160pt" height="1084pt"
 viewBox="0.00 0.00 2160.00 1084.00" xmlns="http://www.w3.org/2000/svg" xmlns:xlink="http://www.w3.org/1999/xlink">
<g id="graph0" class="graph" transform="scale(1 1) rotate(0) translate(4 1080)">
<title>HoTT_Categories_Grothendieck_ToSet</title>
<polygon fill="#ffffff" stroke="transparent" points="-4,4 -4,-1080 2156,-1080 2156,4 -4,4"/>
<g id="clust1" class="cluster">
<title>cluster_ToSet</title>
<polygon fill="#ffffc3" stroke="#000000" points="1303,-336.5267 1303,-1058.2881 2144,-1058.2881 2144,-336.5267 1303,-336.5267"/>
<text text-anchor="middle" x="1327.5" y="-1043.0881" font-family="Times,serif" font-size="14.00" fill="#000000">ToSet</text>
</g>
<g id="clust2" class="cluster">
<title>cluster_Univalent</title>
<polygon fill="#ffffc3" stroke="#000000" points="8,-673.0535 8,-1058.2881 321,-1058.2881 321,-673.0535 8,-673.0535"/>
<text text-anchor="middle" x="43" y="-1043.0881" font-family="Times,serif" font-size="14.00" fill="#000000">Univalent</text>
</g>
<g id="clust3" class="cluster">
<title>cluster_Morphisms</title>
<polygon fill="#ffffc3" stroke="#000000" points="329,-673.0535 329,-839.1029 641,-839.1029 641,-673.0535 329,-673.0535"/>
<text text-anchor="middle" x="369" y="-823.9029" font-family="Times,serif" font-size="14.00" fill="#000000">Morphisms</text>
</g>
<g id="clust4" class="cluster">
<title>cluster_Core</title>
<polygon fill="#ffffc3" stroke="#000000" points="649,-17.7119 649,-856.8148 1295,-856.8148 1295,-17.7119 649,-17.7119"/>
<text text-anchor="middle" x="670.5" y="-841.6148" font-family="Times,serif" font-size="14.00" fill="#000000">Core</text>
</g>
<!-- Univalent_preservation -->
<g id="node1" class="node">
<title>Univalent_preservation</title>
<g id="a_node1"><a xlink:href="Univalent.html#preservation" xlink:title="preservation">
<ellipse fill="#f070d1" stroke="#000000" cx="78" cy="-931.7119" rx="53.8975" ry="18"/>
<ellipse fill="none" stroke="#000000" cx="78" cy="-931.7119" rx="57.894" ry="22"/>
<ellipse fill="none" stroke="#000000" cx="78" cy="-931.7119" rx="61.8905" ry="26"/>
<text text-anchor="middle" x="78" y="-928.0119" font-family="Times,serif" font-size="14.00" fill="#000000">preservation</text>
</a>
</g>
</g>
<!-- Core_category -->
<g id="node23" class="node">
<title>Core_category</title>
<g id="a_node23"><a xlink:href="Core.html#category" xlink:title="category">
<ellipse fill="#f070d1" stroke="#000000" cx="921" cy="-553.7119" rx="40.8928" ry="18"/>
<text text-anchor="middle" x="921" y="-550.0119" font-family="Times,serif" font-size="14.00" fill="#000000">category</text>
</a>
</g>
</g>
<!-- Univalent_preservation&#45;&gt;Core_category -->
<g id="edge1" class="edge">
<title>Univalent_preservation&#45;&gt;Core_category</title>
<path fill="none" stroke="#000000" d="M119.9749,-912.4371C167.0324,-888.949 242.8981,-845.1789 290,-787.7119 315.3783,-756.7489 294.6376,-730.8058 325,-704.7119 408.464,-632.9817 744.1552,-578.8374 871.5938,-560.4873"/>
<polygon fill="#000000" stroke="#000000" points="872.4327,-563.9031 881.8377,-559.025 871.4434,-556.9734 872.4327,-563.9031"/>
</g>
<!-- Univalent_category_isotoid -->
<g id="node2" class="node">
<title>Univalent_category_isotoid</title>
<g id="a_node2"><a xlink:href="Univalent.html#category_isotoid" xlink:title="category_isotoid">
<ellipse fill="#f070d1" stroke="#000000" cx="235" cy="-931.7119" rx="69.5832" ry="18"/>
<ellipse fill="none" stroke="#000000" cx="235" cy="-931.7119" rx="73.5854" ry="22"/>
<ellipse fill="none" stroke="#000000" cx="235" cy="-931.7119" rx="77.5877" ry="26"/>
<text text-anchor="middle" x="235" y="-928.0119" font-family="Times,serif" font-size="14.00" fill="#000000">category_isotoid</text>
</a>
</g>
</g>
<!-- Univalent_category_isotoid_helper -->
<g id="node3" class="node">
<title>Univalent_category_isotoid_helper</title>
<g id="a_node3"><a xlink:href="Univalent.html#category_isotoid_helper" xlink:title="category_isotoid_helper">
<ellipse fill="#f070d1" stroke="#000000" cx="185" cy="-730.7119" rx="95.5831" ry="18"/>
<text text-anchor="middle" x="185" y="-727.0119" font-family="Times,serif" font-size="14.00" fill="#000000">category_isotoid_helper</text>
</a>
</g>
</g>
<!-- Univalent_category_isotoid&#45;&gt;Univalent_category_isotoid_helper -->
<g id="edge2" class="edge">
<title>Univalent_category_isotoid&#45;&gt;Univalent_category_isotoid_helper</title>
<path fill="none" stroke="#000000" d="M228.4634,-905.4347C219.0511,-867.5974 201.7499,-798.0465 192.0565,-759.0792"/>
<polygon fill="#000000" stroke="#000000" points="195.3477,-757.8105 189.5371,-748.9512 188.5547,-759.5003 195.3477,-757.8105"/>
</g>
<!-- Morphisms_isequiv_sigma_category_isomorphism -->
<g id="node21" class="node">
<title>Morphisms_isequiv_sigma_category_isomorphism</title>
<g id="a_node21"><a xlink:href="Morphisms.html#isequiv_sigma_category_isomorphism" xlink:title="isequiv_sigma_category_isomorphism">
<ellipse fill="#f070d1" stroke="#000000" cx="485" cy="-730.7119" rx="147.5738" ry="18"/>
<text text-anchor="middle" x="485" y="-727.0119" font-family="Times,serif" font-size="14.00" fill="#000000">isequiv_sigma_category_isomorphism</text>
</a>
</g>
</g>
<!-- Univalent_category_isotoid&#45;&gt;Morphisms_isequiv_sigma_category_isomorphism -->
<g id="edge3" class="edge">
<title>Univalent_category_isotoid&#45;&gt;Morphisms_isequiv_sigma_category_isomorphism</title>
<path fill="none" stroke="#000000" d="M265.1558,-907.4666C313.28,-868.7748 406.903,-793.5019 454.9564,-754.867"/>
<polygon fill="#000000" stroke="#000000" points="457.2206,-757.5375 462.821,-748.5438 452.8345,-752.0821 457.2206,-757.5375"/>
</g>
<!-- Core_issig_pair -->
<g id="node31" class="node">
<title>Core_issig_pair</title>
<g id="a_node31"><a xlink:href="Core.html#issig_pair" xlink:title="issig_pair">
<ellipse fill="#f070d1" stroke="#000000" cx="704" cy="-553.7119" rx="44.6926" ry="18"/>
<text text-anchor="middle" x="704" y="-550.0119" font-family="Times,serif" font-size="14.00" fill="#000000">issig_pair</text>
</a>
</g>
</g>
<!-- Univalent_category_isotoid&#45;&gt;Core_issig_pair -->
<g id="edge4" class="edge">
<title>Univalent_category_isotoid&#45;&gt;Core_issig_pair</title>
<path fill="none" stroke="#000000" d="M311.0051,-926.2316C403.3993,-915.4136 557.7561,-883.2577 645,-787.7119 672.5444,-757.5466 692.3593,-637.5658 700.2385,-582.1002"/>
<polygon fill="#000000" stroke="#000000" points="703.7443,-582.2996 701.6539,-571.9131 696.8109,-581.3362 703.7443,-582.2996"/>
</g>
<!-- ToSet_pr1 -->
<g id="node4" class="node">
<title>ToSet_pr1</title>
<g id="a_node4"><a xlink:href="ToSet.html#pr1" xlink:title="pr1">
<ellipse fill="#f070d1" stroke="#000000" cx="1864" cy="-931.7119" rx="27" ry="18"/>
<ellipse fill="none" stroke="#000000" cx="1864" cy="-931.7119" rx="31" ry="22"/>
<ellipse fill="none" stroke="#000000" cx="1864" cy="-931.7119" rx="35" ry="26"/>
<text text-anchor="middle" x="1864" y="-928.0119" font-family="Times,serif" font-size="14.00" fill="#000000">pr1</text>
</a>
</g>
</g>
<!-- ToSet_category -->
<g id="node5" class="node">
<title>ToSet_category</title>
<g id="a_node5"><a xlink:href="ToSet.html#category" xlink:title="category">
<ellipse fill="#f070d1" stroke="#000000" cx="1864" cy="-730.7119" rx="40.8928" ry="18"/>
<text text-anchor="middle" x="1864" y="-727.0119" font-family="Times,serif" font-size="14.00" fill="#000000">category</text>
</a>
</g>
</g>
<!-- ToSet_pr1&#45;&gt;ToSet_category -->
<g id="edge5" class="edge">
<title>ToSet_pr1&#45;&gt;ToSet_category</title>
<path fill="none" stroke="#000000" d="M1864,-905.4347C1864,-867.5974 1864,-798.0465 1864,-759.0792"/>
<polygon fill="#000000" stroke="#000000" points="1867.5001,-758.9511 1864,-748.9512 1860.5001,-758.9512 1867.5001,-758.9511"/>
</g>
<!-- ToSet_category_subproof1 -->
<g id="node6" class="node">
<title>ToSet_category_subproof1</title>
<g id="a_node6"><a xlink:href="ToSet.html#category_subproof1" xlink:title="category_subproof1">
<ellipse fill="#f070d1" stroke="#000000" cx="1508" cy="-553.7119" rx="81.4863" ry="18"/>
<text text-anchor="middle" x="1508" y="-550.0119" font-family="Times,serif" font-size="14.00" fill="#000000">category_subproof1</text>
</a>
</g>
</g>
<!-- ToSet_category&#45;&gt;ToSet_category_subproof1 -->
<g id="edge6" class="edge">
<title>ToSet_category&#45;&gt;ToSet_category_subproof1</title>
<path fill="none" stroke="#000000" d="M1836.6564,-717.1169C1774.9038,-686.4141 1624.2903,-611.5304 1550.3551,-574.7705"/>
<polygon fill="#000000" stroke="#000000" points="1551.8148,-571.5876 1541.3023,-570.2695 1548.6984,-577.8556 1551.8148,-571.5876"/>
</g>
<!-- ToSet_category_subproof0 -->
<g id="node7" class="node">
<title>ToSet_category_subproof0</title>
<g id="a_node7"><a xlink:href="ToSet.html#category_subproof0" xlink:title="category_subproof0">
<ellipse fill="#f070d1" stroke="#000000" cx="1688" cy="-553.7119" rx="81.4863" ry="18"/>
<text text-anchor="middle" x="1688" y="-550.0119" font-family="Times,serif" font-size="14.00" fill="#000000">category_subproof0</text>
</a>
</g>
</g>
<!-- ToSet_category&#45;&gt;ToSet_category_subproof0 -->
<g id="edge7" class="edge">
<title>ToSet_category&#45;&gt;ToSet_category_subproof0</title>
<path fill="none" stroke="#000000" d="M1847.4423,-714.0602C1816.4453,-682.887 1749.501,-615.5624 1712.9893,-578.8432"/>
<polygon fill="#000000" stroke="#000000" points="1715.2168,-576.1196 1705.6839,-571.4963 1710.2531,-581.0553 1715.2168,-576.1196"/>
</g>
<!-- ToSet_category_subproof -->
<g id="node8" class="node">
<title>ToSet_category_subproof</title>
<g id="a_node8"><a xlink:href="ToSet.html#category_subproof" xlink:title="category_subproof">
<ellipse fill="#f070d1" stroke="#000000" cx="1864" cy="-553.7119" rx="76.8869" ry="18"/>
<text text-anchor="middle" x="1864" y="-550.0119" font-family="Times,serif" font-size="14.00" fill="#000000">category_subproof</text>
</a>
</g>
</g>
<!-- ToSet_category&#45;&gt;ToSet_category_subproof -->
<g id="edge8" class="edge">
<title>ToSet_category&#45;&gt;ToSet_category_subproof</title>
<path fill="none" stroke="#000000" d="M1864,-712.4365C1864,-681.486 1864,-618.5542 1864,-581.9139"/>
<polygon fill="#000000" stroke="#000000" points="1867.5001,-581.8879 1864,-571.888 1860.5001,-581.888 1867.5001,-581.8879"/>
</g>
<!-- ToSet_identity -->
<g id="node9" class="node">
<title>ToSet_identity</title>
<g id="a_node9"><a xlink:href="ToSet.html#identity" xlink:title="identity">
<ellipse fill="#f070d1" stroke="#000000" cx="1996" cy="-553.7119" rx="37.8943" ry="18"/>
<text text-anchor="middle" x="1996" y="-550.0119" font-family="Times,serif" font-size="14.00" fill="#000000">identity</text>
</a>
</g>
</g>
<!-- ToSet_category&#45;&gt;ToSet_identity -->
<g id="edge9" class="edge">
<title>ToSet_category&#45;&gt;ToSet_identity</title>
<path fill="none" stroke="#000000" d="M1876.8971,-713.4182C1900.3195,-682.0108 1949.9358,-615.4798 1977.1553,-578.9809"/>
<polygon fill="#000000" stroke="#000000" points="1980.0724,-580.924 1983.2449,-570.8153 1974.461,-576.7392 1980.0724,-580.924"/>
</g>
<!-- ToSet_compose -->
<g id="node11" class="node">
<title>ToSet_compose</title>
<g id="a_node11"><a xlink:href="ToSet.html#compose" xlink:title="compose">
<ellipse fill="#f070d1" stroke="#000000" cx="2094" cy="-553.7119" rx="42.4939" ry="18"/>
<text text-anchor="middle" x="2094" y="-550.0119" font-family="Times,serif" font-size="14.00" fill="#000000">compose</text>
</a>
</g>
</g>
<!-- ToSet_category&#45;&gt;ToSet_compose -->
<g id="edge10" class="edge">
<title>ToSet_category&#45;&gt;ToSet_compose</title>
<path fill="none" stroke="#000000" d="M1884.411,-715.0044C1925.4815,-683.3979 2018.1962,-612.0479 2065.3285,-575.7765"/>
<polygon fill="#000000" stroke="#000000" points="2067.5138,-578.5113 2073.3042,-569.6387 2063.2446,-572.9638 2067.5138,-578.5113"/>
</g>
<!-- Core_category_subproof1 -->
<g id="node24" class="node">
<title>Core_category_subproof1</title>
<g id="a_node24"><a xlink:href="Core.html#category_subproof1" xlink:title="category_subproof1">
<ellipse fill="#facdef" stroke="#000000" cx="854" cy="-393.7119" rx="81.4863" ry="18"/>
<text text-anchor="middle" x="854" y="-390.0119" font-family="Times,serif" font-size="14.00" fill="#000000">category_subproof1</text>
</a>
</g>
</g>
<!-- ToSet_category_subproof1&#45;&gt;Core_category_subproof1 -->
<g id="edge11" class="edge">
<title>ToSet_category_subproof1&#45;&gt;Core_category_subproof1</title>
<path fill="none" stroke="#000000" d="M1453.3652,-540.3456C1333.3853,-510.9927 1047.3489,-441.0144 918.6702,-409.5334"/>
<polygon fill="#000000" stroke="#000000" points="919.4845,-406.1295 908.9392,-407.1527 917.821,-412.9289 919.4845,-406.1295"/>
</g>
<!-- Core_category_subproof0 -->
<g id="node25" class="node">
<title>Core_category_subproof0</title>
<g id="a_node25"><a xlink:href="Core.html#category_subproof0" xlink:title="category_subproof0">
<ellipse fill="#facdef" stroke="#000000" cx="1034" cy="-393.7119" rx="81.4863" ry="18"/>
<text text-anchor="middle" x="1034" y="-390.0119" font-family="Times,serif" font-size="14.00" fill="#000000">category_subproof0</text>
</a>
</g>
</g>
<!-- ToSet_category_subproof0&#45;&gt;Core_category_subproof0 -->
<g id="edge12" class="edge">
<title>ToSet_category_subproof0&#45;&gt;Core_category_subproof0</title>
<path fill="none" stroke="#000000" d="M1633.3652,-540.3456C1513.3853,-510.9927 1227.3489,-441.0144 1098.6702,-409.5334"/>
<polygon fill="#000000" stroke="#000000" points="1099.4845,-406.1295 1088.9392,-407.1527 1097.821,-412.9289 1099.4845,-406.1295"/>
</g>
<!-- Core_category_subproof -->
<g id="node26" class="node">
<title>Core_category_subproof</title>
<g id="a_node26"><a xlink:href="Core.html#category_subproof" xlink:title="category_subproof">
<ellipse fill="#facdef" stroke="#000000" cx="1210" cy="-393.7119" rx="76.8869" ry="18"/>
<text text-anchor="middle" x="1210" y="-390.0119" font-family="Times,serif" font-size="14.00" fill="#000000">category_subproof</text>
</a>
</g>
</g>
<!-- ToSet_category_subproof&#45;&gt;Core_category_subproof -->
<g id="edge13" class="edge">
<title>ToSet_category_subproof&#45;&gt;Core_category_subproof</title>
<path fill="none" stroke="#000000" d="M1810.7577,-540.6863C1691.2484,-511.4485 1402.0868,-440.7057 1273.4888,-409.2444"/>
<polygon fill="#000000" stroke="#000000" points="1273.9462,-405.7531 1263.4009,-406.7764 1272.2827,-412.5526 1273.9462,-405.7531"/>
</g>
<!-- ToSet_identity_H -->
<g id="node10" class="node">
<title>ToSet_identity_H</title>
<g id="a_node10"><a xlink:href="ToSet.html#identity_H" xlink:title="identity_H">
<ellipse fill="#f070d1" stroke="#000000" cx="1964" cy="-393.7119" rx="48.1917" ry="18"/>
<text text-anchor="middle" x="1964" y="-390.0119" font-family="Times,serif" font-size="14.00" fill="#000000">identity_H</text>
</a>
</g>
</g>
<!-- ToSet_identity&#45;&gt;ToSet_identity_H -->
<g id="edge14" class="edge">
<title>ToSet_identity&#45;&gt;ToSet_identity_H</title>
<path fill="none" stroke="#000000" d="M1992.3914,-535.6689C1986.8457,-507.9406 1976.1827,-454.6254 1969.6196,-421.8101"/>
<polygon fill="#000000" stroke="#000000" points="1973.0378,-421.0539 1967.6445,-411.9345 1966.1737,-422.4267 1973.0378,-421.0539"/>
</g>
<!-- ToSet_compose_H -->
<g id="node12" class="node">
<title>ToSet_compose_H</title>
<g id="a_node12"><a xlink:href="ToSet.html#compose_H" xlink:title="compose_H">
<ellipse fill="#f070d1" stroke="#000000" cx="2083" cy="-393.7119" rx="53.0913" ry="18"/>
<text text-anchor="middle" x="2083" y="-390.0119" font-family="Times,serif" font-size="14.00" fill="#000000">compose_H</text>
</a>
</g>
</g>
<!-- ToSet_compose&#45;&gt;ToSet_compose_H -->
<g id="edge15" class="edge">
<title>ToSet_compose&#45;&gt;ToSet_compose_H</title>
<path fill="none" stroke="#000000" d="M2092.7595,-535.6689C2090.8615,-508.0606 2087.2195,-455.0866 2084.9611,-422.2374"/>
<polygon fill="#000000" stroke="#000000" points="2088.4305,-421.6709 2084.2528,-411.9345 2081.447,-422.151 2088.4305,-421.6709"/>
</g>
<!-- ToSet_issig_pair -->
<g id="node13" class="node">
<title>ToSet_issig_pair</title>
<g id="a_node13"><a xlink:href="ToSet.html#issig_pair" xlink:title="issig_pair">
<ellipse fill="#f070d1" stroke="#000000" cx="1604" cy="-730.7119" rx="44.7157" ry="18"/>
<ellipse fill="none" stroke="#000000" cx="1604" cy="-730.7119" rx="48.7041" ry="22"/>
<ellipse fill="none" stroke="#000000" cx="1604" cy="-730.7119" rx="52.6925" ry="26"/>
<text text-anchor="middle" x="1604" y="-727.0119" font-family="Times,serif" font-size="14.00" fill="#000000">issig_pair</text>
</a>
</g>
</g>
<!-- ToSet_Build_Pair -->
<g id="node19" class="node">
<title>ToSet_Build_Pair</title>
<g id="a_node19"><a xlink:href="ToSet.html#Build_Pair" xlink:title="Build_Pair">
<ellipse fill="#7faaff" stroke="#000000" cx="1360" cy="-553.7119" rx="48.9926" ry="18"/>
<text text-anchor="middle" x="1360" y="-550.0119" font-family="Times,serif" font-size="14.00" fill="#000000">Build_Pair</text>
</a>
</g>
</g>
<!-- ToSet_issig_pair&#45;&gt;ToSet_Build_Pair -->
<g id="edge16" class="edge">
<title>ToSet_issig_pair&#45;&gt;ToSet_Build_Pair</title>
<path fill="none" stroke="#000000" d="M1574.0808,-709.0083C1527.359,-675.1158 1437.5611,-609.9755 1390.4907,-575.8302"/>
<polygon fill="#000000" stroke="#000000" points="1392.3686,-572.8686 1382.2189,-569.8298 1388.2583,-578.5347 1392.3686,-572.8686"/>
</g>
<!-- ToSet_Pair_rec -->
<g id="node14" class="node">
<title>ToSet_Pair_rec</title>
<g id="a_node14"><a xlink:href="ToSet.html#Pair_rec" xlink:title="Pair_rec">
<ellipse fill="#f070d1" stroke="#000000" cx="1738" cy="-931.7119" rx="40.1273" ry="18"/>
<ellipse fill="none" stroke="#000000" cx="1738" cy="-931.7119" rx="44.1105" ry="22"/>
<ellipse fill="none" stroke="#000000" cx="1738" cy="-931.7119" rx="48.0937" ry="26"/>
<text text-anchor="middle" x="1738" y="-928.0119" font-family="Times,serif" font-size="14.00" fill="#000000">Pair_rec</text>
</a>
</g>
</g>
<!-- ToSet_Pair_rect -->
<g id="node16" class="node">
<title>ToSet_Pair_rect</title>
<g id="a_node16"><a xlink:href="ToSet.html#Pair_rect" xlink:title="Pair_rect">
<ellipse fill="#f070d1" stroke="#000000" cx="1491" cy="-730.7119" rx="42.4939" ry="18"/>
<text text-anchor="middle" x="1491" y="-727.0119" font-family="Times,serif" font-size="14.00" fill="#000000">Pair_rect</text>
</a>
</g>
</g>
<!-- ToSet_Pair_rec&#45;&gt;ToSet_Pair_rect -->
<g id="edge17" class="edge">
<title>ToSet_Pair_rec&#45;&gt;ToSet_Pair_rect</title>
<path fill="none" stroke="#000000" d="M1706.6043,-911.6027C1666.5757,-885.3171 1596.0782,-836.8196 1542,-787.7119 1531.2181,-777.921 1520.3135,-766.0569 1511.3704,-755.6932"/>
<polygon fill="#000000" stroke="#000000" points="1513.7934,-753.1387 1504.6586,-747.7717 1508.4527,-757.6639 1513.7934,-753.1387"/>
</g>
<!-- ToSet_Pair_ind -->
<g id="node15" class="node">
<title>ToSet_Pair_ind</title>
<g id="a_node15"><a xlink:href="ToSet.html#Pair_ind" xlink:title="Pair_ind">
<ellipse fill="#7fffd4" stroke="#000000" cx="1623" cy="-931.7119" rx="40.1273" ry="18"/>
<ellipse fill="none" stroke="#000000" cx="1623" cy="-931.7119" rx="44.1105" ry="22"/>
<ellipse fill="none" stroke="#000000" cx="1623" cy="-931.7119" rx="48.0937" ry="26"/>
<text text-anchor="middle" x="1623" y="-928.0119" font-family="Times,serif" font-size="14.00" fill="#000000">Pair_ind</text>
</a>
</g>
</g>
<!-- ToSet_Pair_ind&#45;&gt;ToSet_Pair_rect -->
<g id="edge18" class="edge">
<title>ToSet_Pair_ind&#45;&gt;ToSet_Pair_rect</title>
<path fill="none" stroke="#000000" d="M1606.8142,-907.0654C1581.7668,-868.925 1533.835,-795.938 1508.1907,-756.8886"/>
<polygon fill="#000000" stroke="#000000" points="1510.8909,-754.6242 1502.476,-748.1868 1505.0398,-758.4668 1510.8909,-754.6242"/>
</g>
<!-- ToSet_Pair_rect&#45;&gt;ToSet_Build_Pair -->
<g id="edge19" class="edge">
<title>ToSet_Pair_rect&#45;&gt;ToSet_Build_Pair</title>
<path fill="none" stroke="#000000" d="M1478.2006,-713.4182C1455.0152,-682.0913 1405.9675,-615.8207 1378.9101,-579.2623"/>
<polygon fill="#000000" stroke="#000000" points="1381.6137,-577.0317 1372.8513,-571.0759 1375.9871,-581.1961 1381.6137,-577.0317"/>
</g>
<!-- ToSet_x -->
<g id="node17" class="node">
<title>ToSet_x</title>
<g id="a_node17"><a xlink:href="ToSet.html#x" xlink:title="x">
<ellipse fill="#f070d1" stroke="#000000" cx="1522" cy="-931.7119" rx="27" ry="18"/>
<ellipse fill="none" stroke="#000000" cx="1522" cy="-931.7119" rx="31" ry="22"/>
<ellipse fill="none" stroke="#000000" cx="1522" cy="-931.7119" rx="35" ry="26"/>
<text text-anchor="middle" x="1522" y="-928.0119" font-family="Times,serif" font-size="14.00" fill="#000000">x</text>
</a>
</g>
</g>
<!-- ToSet_c -->
<g id="node18" class="node">
<title>ToSet_c</title>
<g id="a_node18"><a xlink:href="ToSet.html#c" xlink:title="c">
<ellipse fill="#f070d1" stroke="#000000" cx="1434" cy="-931.7119" rx="27" ry="18"/>
<ellipse fill="none" stroke="#000000" cx="1434" cy="-931.7119" rx="31" ry="22"/>
<ellipse fill="none" stroke="#000000" cx="1434" cy="-931.7119" rx="35" ry="26"/>
<text text-anchor="middle" x="1434" y="-928.0119" font-family="Times,serif" font-size="14.00" fill="#000000">c</text>
</a>
</g>
</g>
<!-- ToSet_Pair -->
<g id="node20" class="node">
<title>ToSet_Pair</title>
<g id="a_node20"><a xlink:href="ToSet.html#Pair" xlink:title="Pair">
<ellipse fill="#e2cdfa" stroke="#000000" cx="1346" cy="-931.7119" rx="27" ry="18"/>
<ellipse fill="none" stroke="#000000" cx="1346" cy="-931.7119" rx="31" ry="22"/>
<ellipse fill="none" stroke="#000000" cx="1346" cy="-931.7119" rx="35" ry="26"/>
<text text-anchor="middle" x="1346" y="-928.0119" font-family="Times,serif" font-size="14.00" fill="#000000">Pair</text>
</a>
</g>
</g>
<!-- Morphisms_isequiv_sigma_category_isomorphism&#45;&gt;Core_category -->
<g id="edge20" class="edge">
<title>Morphisms_isequiv_sigma_category_isomorphism&#45;&gt;Core_category</title>
<path fill="none" stroke="#000000" d="M527.5994,-713.4182C612.0204,-679.1463 799.4622,-603.0518 881.3873,-569.7932"/>
<polygon fill="#000000" stroke="#000000" points="882.892,-572.9599 890.8411,-565.9553 880.2589,-566.4739 882.892,-572.9599"/>
</g>
<!-- Core_pr1 -->
<g id="node22" class="node">
<title>Core_pr1</title>
<g id="a_node22"><a xlink:href="Core.html#pr1" xlink:title="pr1">
<ellipse fill="#f070d1" stroke="#000000" cx="988" cy="-730.7119" rx="27" ry="18"/>
<ellipse fill="none" stroke="#000000" cx="988" cy="-730.7119" rx="31" ry="22"/>
<ellipse fill="none" stroke="#000000" cx="988" cy="-730.7119" rx="35" ry="26"/>
<text text-anchor="middle" x="988" y="-727.0119" font-family="Times,serif" font-size="14.00" fill="#000000">pr1</text>
</a>
</g>
</g>
<!-- Core_pr1&#45;&gt;Core_category -->
<g id="edge21" class="edge">
<title>Core_pr1&#45;&gt;Core_category</title>
<path fill="none" stroke="#000000" d="M978.4005,-705.3521C965.9397,-672.4333 944.2733,-615.1953 931.4221,-581.245"/>
<polygon fill="#000000" stroke="#000000" points="934.5504,-579.6224 927.7368,-571.5091 928.0037,-582.1006 934.5504,-579.6224"/>
</g>
<!-- Core_category&#45;&gt;Core_category_subproof1 -->
<g id="edge22" class="edge">
<title>Core_category&#45;&gt;Core_category_subproof1</title>
<path fill="none" stroke="#000000" d="M913.5738,-535.9778C901.9642,-508.2533 879.4208,-454.4183 865.6393,-421.5072"/>
<polygon fill="#000000" stroke="#000000" points="868.7563,-419.8893 861.6653,-412.0172 862.2995,-422.5931 868.7563,-419.8893"/>
</g>
<!-- Core_category&#45;&gt;Core_category_subproof0 -->
<g id="edge23" class="edge">
<title>Core_category&#45;&gt;Core_category_subproof0</title>
<path fill="none" stroke="#000000" d="M933.3081,-536.2845C953.1565,-508.1806 992.3498,-452.6857 1015.5506,-419.8349"/>
<polygon fill="#000000" stroke="#000000" points="1018.4521,-421.7937 1021.3621,-411.6063 1012.7343,-417.7554 1018.4521,-421.7937"/>
</g>
<!-- Core_category&#45;&gt;Core_category_subproof -->
<g id="edge24" class="edge">
<title>Core_category&#45;&gt;Core_category_subproof</title>
<path fill="none" stroke="#000000" d="M946.6468,-539.513C997.3663,-511.433 1110.7671,-448.6506 1170.8712,-415.375"/>
<polygon fill="#000000" stroke="#000000" points="1172.637,-418.398 1179.6904,-410.4923 1169.2464,-412.2739 1172.637,-418.398"/>
</g>
<!-- Core_identity -->
<g id="node27" class="node">
<title>Core_identity</title>
<g id="a_node27"><a xlink:href="Core.html#identity" xlink:title="identity">
<ellipse fill="#f070d1" stroke="#000000" cx="884" cy="-234.7119" rx="37.8943" ry="18"/>
<text text-anchor="middle" x="884" y="-231.0119" font-family="Times,serif" font-size="14.00" fill="#000000">identity</text>
</a>
</g>
</g>
<!-- Core_category_subproof1&#45;&gt;Core_identity -->
<g id="edge25" class="edge">
<title>Core_category_subproof1&#45;&gt;Core_identity</title>
<path fill="none" stroke="#000000" d="M857.4414,-375.4726C862.6405,-347.917 872.5406,-295.4469 878.675,-262.9345"/>
<polygon fill="#000000" stroke="#000000" points="882.1839,-263.2141 880.5988,-252.7385 875.3053,-261.9162 882.1839,-263.2141"/>
</g>
<!-- Core_compose -->
<g id="node29" class="node">
<title>Core_compose</title>
<g id="a_node29"><a xlink:href="Core.html#compose" xlink:title="compose">
<ellipse fill="#f070d1" stroke="#000000" cx="1034" cy="-234.7119" rx="42.4939" ry="18"/>
<text text-anchor="middle" x="1034" y="-231.0119" font-family="Times,serif" font-size="14.00" fill="#000000">compose</text>
</a>
</g>
</g>
<!-- Core_category_subproof1&#45;&gt;Core_compose -->
<g id="edge26" class="edge">
<title>Core_category_subproof1&#45;&gt;Core_compose</title>
<path fill="none" stroke="#000000" d="M873.9509,-376.0886C906.6284,-347.2235 971.5487,-289.8773 1007.861,-257.8014"/>
<polygon fill="#000000" stroke="#000000" points="1010.4051,-260.2241 1015.5827,-250.9805 1005.7709,-254.9777 1010.4051,-260.2241"/>
</g>
<!-- Core_category_subproof0&#45;&gt;Core_identity -->
<g id="edge27" class="edge">
<title>Core_category_subproof0&#45;&gt;Core_identity</title>
<path fill="none" stroke="#000000" d="M1017.3743,-376.0886C990.5125,-347.6152 937.5059,-291.4282 907.0272,-259.1208"/>
<polygon fill="#000000" stroke="#000000" points="909.2015,-256.3251 899.7934,-251.4529 904.1098,-261.1287 909.2015,-256.3251"/>
</g>
<!-- Core_category_subproof0&#45;&gt;Core_compose -->
<g id="edge28" class="edge">
<title>Core_category_subproof0&#45;&gt;Core_compose</title>
<path fill="none" stroke="#000000" d="M1034,-375.4726C1034,-347.917 1034,-295.4469 1034,-262.9345"/>
<polygon fill="#000000" stroke="#000000" points="1037.5001,-262.7385 1034,-252.7385 1030.5001,-262.7386 1037.5001,-262.7385"/>
</g>
<!-- Core_category_subproof&#45;&gt;Core_compose -->
<g id="edge29" class="edge">
<title>Core_category_subproof&#45;&gt;Core_compose</title>
<path fill="none" stroke="#000000" d="M1190.4925,-376.0886C1158.6243,-347.2987 1095.3939,-290.1758 1059.8361,-258.0525"/>
<polygon fill="#000000" stroke="#000000" points="1062.0353,-255.3226 1052.2687,-251.216 1057.3428,-260.5168 1062.0353,-255.3226"/>
</g>
<!-- Core_identity_H -->
<g id="node28" class="node">
<title>Core_identity_H</title>
<g id="a_node28"><a xlink:href="Core.html#identity_H" xlink:title="identity_H">
<ellipse fill="#f070d1" stroke="#000000" cx="884" cy="-75.7119" rx="48.1917" ry="18"/>
<text text-anchor="middle" x="884" y="-72.0119" font-family="Times,serif" font-size="14.00" fill="#000000">identity_H</text>
</a>
</g>
</g>
<!-- Core_identity&#45;&gt;Core_identity_H -->
<g id="edge30" class="edge">
<title>Core_identity&#45;&gt;Core_identity_H</title>
<path fill="none" stroke="#000000" d="M884,-216.4726C884,-188.917 884,-136.4469 884,-103.9345"/>
<polygon fill="#000000" stroke="#000000" points="887.5001,-103.7385 884,-93.7385 880.5001,-103.7386 887.5001,-103.7385"/>
</g>
<!-- Core_compose_H -->
<g id="node30" class="node">
<title>Core_compose_H</title>
<g id="a_node30"><a xlink:href="Core.html#compose_H" xlink:title="compose_H">
<ellipse fill="#f070d1" stroke="#000000" cx="1034" cy="-75.7119" rx="53.0913" ry="18"/>
<text text-anchor="middle" x="1034" y="-72.0119" font-family="Times,serif" font-size="14.00" fill="#000000">compose_H</text>
</a>
</g>
</g>
<!-- Core_compose&#45;&gt;Core_compose_H -->
<g id="edge31" class="edge">
<title>Core_compose&#45;&gt;Core_compose_H</title>
<path fill="none" stroke="#000000" d="M1034,-216.4726C1034,-188.917 1034,-136.4469 1034,-103.9345"/>
<polygon fill="#000000" stroke="#000000" points="1037.5001,-103.7385 1034,-93.7385 1030.5001,-103.7386 1037.5001,-103.7385"/>
</g>
<!-- Core_Build_Pair -->
<g id="node37" class="node">
<title>Core_Build_Pair</title>
<g id="a_node37"><a xlink:href="Core.html#Build_Pair" xlink:title="Build_Pair">
<ellipse fill="#7faaff" stroke="#000000" cx="706" cy="-393.7119" rx="48.9926" ry="18"/>
<text text-anchor="middle" x="706" y="-390.0119" font-family="Times,serif" font-size="14.00" fill="#000000">Build_Pair</text>
</a>
</g>
</g>
<!-- Core_issig_pair&#45;&gt;Core_Build_Pair -->
<g id="edge32" class="edge">
<title>Core_issig_pair&#45;&gt;Core_Build_Pair</title>
<path fill="none" stroke="#000000" d="M704.2255,-535.6689C704.5706,-508.0606 705.2328,-455.0866 705.6434,-422.2374"/>
<polygon fill="#000000" stroke="#000000" points="709.1469,-421.9775 705.7722,-411.9345 702.1474,-421.8899 709.1469,-421.9775"/>
</g>
<!-- Core_Pair_rec -->
<g id="node32" class="node">
<title>Core_Pair_rec</title>
<g id="a_node32"><a xlink:href="Core.html#Pair_rec" xlink:title="Pair_rec">
<ellipse fill="#f070d1" stroke="#000000" cx="1204" cy="-730.7119" rx="40.1273" ry="18"/>
<ellipse fill="none" stroke="#000000" cx="1204" cy="-730.7119" rx="44.1105" ry="22"/>
<ellipse fill="none" stroke="#000000" cx="1204" cy="-730.7119" rx="48.0937" ry="26"/>
<text text-anchor="middle" x="1204" y="-727.0119" font-family="Times,serif" font-size="14.00" fill="#000000">Pair_rec</text>
</a>
</g>
</g>
<!-- Core_Pair_rect -->
<g id="node34" class="node">
<title>Core_Pair_rect</title>
<g id="a_node34"><a xlink:href="Core.html#Pair_rect" xlink:title="Pair_rect">
<ellipse fill="#f070d1" stroke="#000000" cx="1089" cy="-553.7119" rx="42.4939" ry="18"/>
<text text-anchor="middle" x="1089" y="-550.0119" font-family="Times,serif" font-size="14.00" fill="#000000">Pair_rect</text>
</a>
</g>
</g>
<!-- Core_Pair_rec&#45;&gt;Core_Pair_rect -->
<g id="edge33" class="edge">
<title>Core_Pair_rec&#45;&gt;Core_Pair_rect</title>
<path fill="none" stroke="#000000" d="M1188.0097,-706.1008C1166.368,-672.7913 1127.9277,-613.6267 1105.8508,-579.6475"/>
<polygon fill="#000000" stroke="#000000" points="1108.7312,-577.6566 1100.348,-571.1779 1102.8613,-581.4704 1108.7312,-577.6566"/>
</g>
<!-- Core_Pair_ind -->
<g id="node33" class="node">
<title>Core_Pair_ind</title>
<g id="a_node33"><a xlink:href="Core.html#Pair_ind" xlink:title="Pair_ind">
<ellipse fill="#7fffd4" stroke="#000000" cx="1089" cy="-730.7119" rx="40.1273" ry="18"/>
<ellipse fill="none" stroke="#000000" cx="1089" cy="-730.7119" rx="44.1105" ry="22"/>
<ellipse fill="none" stroke="#000000" cx="1089" cy="-730.7119" rx="48.0937" ry="26"/>
<text text-anchor="middle" x="1089" y="-727.0119" font-family="Times,serif" font-size="14.00" fill="#000000">Pair_ind</text>
</a>
</g>
</g>
<!-- Core_Pair_ind&#45;&gt;Core_Pair_rect -->
<g id="edge34" class="edge">
<title>Core_Pair_ind&#45;&gt;Core_Pair_rect</title>
<path fill="none" stroke="#000000" d="M1089,-704.595C1089,-671.7951 1089,-615.7347 1089,-581.962"/>
<polygon fill="#000000" stroke="#000000" points="1092.5001,-581.8377 1089,-571.8377 1085.5001,-581.8377 1092.5001,-581.8377"/>
</g>
<!-- Core_Pair_rect&#45;&gt;Core_Build_Pair -->
<g id="edge35" class="edge">
<title>Core_Pair_rect&#45;&gt;Core_Build_Pair</title>
<path fill="none" stroke="#000000" d="M1058.6265,-541.0233C990.588,-512.5999 825.8303,-443.7716 748.023,-411.2672"/>
<polygon fill="#000000" stroke="#000000" points="749.1074,-407.9272 738.5311,-407.3019 746.4091,-414.3862 749.1074,-407.9272"/>
</g>
<!-- Core_x -->
<g id="node35" class="node">
<title>Core_x</title>
<g id="a_node35"><a xlink:href="Core.html#x" xlink:title="x">
<ellipse fill="#f070d1" stroke="#000000" cx="900" cy="-730.7119" rx="27" ry="18"/>
<ellipse fill="none" stroke="#000000" cx="900" cy="-730.7119" rx="31" ry="22"/>
<ellipse fill="none" stroke="#000000" cx="900" cy="-730.7119" rx="35" ry="26"/>
<text text-anchor="middle" x="900" y="-727.0119" font-family="Times,serif" font-size="14.00" fill="#000000">x</text>
</a>
</g>
</g>
<!-- Core_c -->
<g id="node36" class="node">
<title>Core_c</title>
<g id="a_node36"><a xlink:href="Core.html#c" xlink:title="c">
<ellipse fill="#f070d1" stroke="#000000" cx="812" cy="-730.7119" rx="27" ry="18"/>
<ellipse fill="none" stroke="#000000" cx="812" cy="-730.7119" rx="31" ry="22"/>
<ellipse fill="none" stroke="#000000" cx="812" cy="-730.7119" rx="35" ry="26"/>
<text text-anchor="middle" x="812" y="-727.0119" font-family="Times,serif" font-size="14.00" fill="#000000">c</text>
</a>
</g>
</g>
<!-- Core_Pair -->
<g id="node38" class="node">
<title>Core_Pair</title>
<g id="a_node38"><a xlink:href="Core.html#Pair" xlink:title="Pair">
<ellipse fill="#e2cdfa" stroke="#000000" cx="724" cy="-730.7119" rx="27" ry="18"/>
<ellipse fill="none" stroke="#000000" cx="724" cy="-730.7119" rx="31" ry="22"/>
<ellipse fill="none" stroke="#000000" cx="724" cy="-730.7119" rx="35" ry="26"/>
<text text-anchor="middle" x="724" y="-727.0119" font-family="Times,serif" font-size="14.00" fill="#000000">Pair</text>
</a>
</g>
</g>
</g>
</svg>
