<?xml version="1.0" encoding="UTF-8" standalone="no"?>
<!DOCTYPE svg PUBLIC "-//W3C//DTD SVG 1.1//EN"
 "http://www.w3.org/Graphics/SVG/1.1/DTD/svg11.dtd">
<!-- Generated by graphviz version 2.26.3 (20100126.1600)
 -->
<!-- Title: HoTT_categories_Grothendieck_ToSet Pages: 1 -->
<svg width="844pt" height="426pt"
 viewBox="0.00 0.00 844.00 426.00" xmlns="http://www.w3.org/2000/svg" xmlns:xlink="http://www.w3.org/1999/xlink">
<g id="graph1" class="graph" transform="scale(1 1) rotate(0) translate(4 422)">
<title>HoTT_categories_Grothendieck_ToSet</title>
<polygon fill="white" stroke="white" points="-4,5 -4,-422 841,-422 841,5 -4,5"/>
<g id="graph2" class="cluster"><title>cluster_ToSet</title>
<polygon fill="#ffffc3" stroke="black" points="8,-8.19608 8,-409.804 828,-409.804 828,-8.19608 8,-8.19608"/>
<text text-anchor="middle" x="35.5" y="-393.204" font-family="Times Roman,serif" font-size="14.00">ToSet</text>
</g>
<!-- ToSet_pr1 -->
<g id="node1" class="node"><title>ToSet_pr1</title>
<a xlink:href="ToSet.html#pr1" xlink:title="pr1">
<ellipse fill="#f070d1" stroke="black" cx="590" cy="-347.196" rx="27.8968" ry="18.3848"/>
<ellipse fill="none" stroke="black" cx="590" cy="-347.196" rx="31.842" ry="22.3848"/>
<ellipse fill="none" stroke="black" cx="590" cy="-347.196" rx="35.7872" ry="26.3848"/>
<text text-anchor="middle" x="590" y="-343.596" font-family="Times Roman,serif" font-size="14.00">pr1</text>
</a>
</g>
<!-- ToSet_category -->
<g id="node2" class="node"><title>ToSet_category</title>
<a xlink:href="ToSet.html#category" xlink:title="category">
<ellipse fill="#f070d1" stroke="black" cx="541" cy="-263.196" rx="53.9477" ry="18.3848"/>
<text text-anchor="middle" x="541" y="-259.596" font-family="Times Roman,serif" font-size="14.00">category</text>
</a>
</g>
<!-- ToSet_pr1&#45;&gt;ToSet_category -->
<g id="edge2" class="edge"><title>ToSet_pr1&#45;&gt;ToSet_category</title>
<path fill="none" stroke="black" d="M575.563,-322.448C569.625,-312.267 562.731,-300.449 556.669,-290.058"/>
<polygon fill="black" stroke="black" points="559.664,-288.245 551.602,-281.371 553.618,-291.772 559.664,-288.245"/>
</g>
<!-- ToSet_category_subproof1 -->
<g id="node3" class="node"><title>ToSet_category_subproof1</title>
<a xlink:href="ToSet.html#category_subproof1" xlink:title="category_subproof1">
<ellipse fill="#facdef" stroke="black" cx="261" cy="-187.196" rx="106.98" ry="18.3848"/>
<text text-anchor="middle" x="261" y="-183.596" font-family="Times Roman,serif" font-size="14.00">category_subproof1</text>
</a>
</g>
<!-- ToSet_category&#45;&gt;ToSet_category_subproof1 -->
<g id="edge4" class="edge"><title>ToSet_category&#45;&gt;ToSet_category_subproof1</title>
<path fill="none" stroke="black" d="M498.474,-251.653C453.345,-239.404 381.389,-219.873 328.499,-205.517"/>
<polygon fill="black" stroke="black" points="329.091,-202.051 318.523,-202.809 327.257,-208.807 329.091,-202.051"/>
</g>
<!-- ToSet_category_subproof0 -->
<g id="node4" class="node"><title>ToSet_category_subproof0</title>
<a xlink:href="ToSet.html#category_subproof0" xlink:title="category_subproof0">
<ellipse fill="#facdef" stroke="black" cx="493" cy="-187.196" rx="106.98" ry="18.3848"/>
<text text-anchor="middle" x="493" y="-183.596" font-family="Times Roman,serif" font-size="14.00">category_subproof0</text>
</a>
</g>
<!-- ToSet_category&#45;&gt;ToSet_category_subproof0 -->
<g id="edge6" class="edge"><title>ToSet_category&#45;&gt;ToSet_category_subproof0</title>
<path fill="none" stroke="black" d="M529.381,-244.799C523.586,-235.625 516.467,-224.352 510.067,-214.218"/>
<polygon fill="black" stroke="black" points="512.978,-212.273 504.679,-205.688 507.06,-216.011 512.978,-212.273"/>
</g>
<!-- ToSet_category_subproof -->
<g id="node5" class="node"><title>ToSet_category_subproof</title>
<a xlink:href="ToSet.html#category_subproof" xlink:title="category_subproof">
<ellipse fill="#facdef" stroke="black" cx="719" cy="-187.196" rx="101.116" ry="18.3848"/>
<text text-anchor="middle" x="719" y="-183.596" font-family="Times Roman,serif" font-size="14.00">category_subproof</text>
</a>
</g>
<!-- ToSet_category&#45;&gt;ToSet_category_subproof -->
<g id="edge8" class="edge"><title>ToSet_category&#45;&gt;ToSet_category_subproof</title>
<path fill="none" stroke="black" d="M574.899,-248.722C601.659,-237.297 639.375,-221.193 669.509,-208.327"/>
<polygon fill="black" stroke="black" points="671.181,-211.419 679.003,-204.273 668.432,-204.981 671.181,-211.419"/>
</g>
<!-- ToSet_identity -->
<g id="node6" class="node"><title>ToSet_identity</title>
<a xlink:href="ToSet.html#identity" xlink:title="identity">
<ellipse fill="#f070d1" stroke="black" cx="304" cy="-111.196" rx="48.9975" ry="18.3848"/>
<text text-anchor="middle" x="304" y="-107.596" font-family="Times Roman,serif" font-size="14.00">identity</text>
</a>
</g>
<!-- ToSet_category_subproof1&#45;&gt;ToSet_identity -->
<g id="edge10" class="edge"><title>ToSet_category_subproof1&#45;&gt;ToSet_identity</title>
<path fill="none" stroke="black" d="M271.629,-168.41C276.77,-159.323 283.037,-148.247 288.682,-138.27"/>
<polygon fill="black" stroke="black" points="291.763,-139.931 293.641,-129.504 285.671,-136.484 291.763,-139.931"/>
</g>
<!-- ToSet_compose -->
<g id="node8" class="node"><title>ToSet_compose</title>
<a xlink:href="ToSet.html#compose" xlink:title="compose">
<ellipse fill="#f070d1" stroke="black" cx="493" cy="-111.196" rx="53.2379" ry="18.3848"/>
<text text-anchor="middle" x="493" y="-107.596" font-family="Times Roman,serif" font-size="14.00">compose</text>
</a>
</g>
<!-- ToSet_category_subproof1&#45;&gt;ToSet_compose -->
<g id="edge12" class="edge"><title>ToSet_category_subproof1&#45;&gt;ToSet_compose</title>
<path fill="none" stroke="black" d="M311.055,-170.799C350.596,-157.846 405.446,-139.878 444.562,-127.064"/>
<polygon fill="black" stroke="black" points="445.736,-130.362 454.149,-123.923 443.556,-123.71 445.736,-130.362"/>
</g>
<!-- ToSet_category_subproof0&#45;&gt;ToSet_identity -->
<g id="edge14" class="edge"><title>ToSet_category_subproof0&#45;&gt;ToSet_identity</title>
<path fill="none" stroke="black" d="M450.585,-170.14C419.846,-157.78 378.415,-141.12 347.442,-128.665"/>
<polygon fill="black" stroke="black" points="348.364,-125.263 337.78,-124.78 345.752,-131.758 348.364,-125.263"/>
</g>
<!-- ToSet_category_subproof0&#45;&gt;ToSet_compose -->
<g id="edge16" class="edge"><title>ToSet_category_subproof0&#45;&gt;ToSet_compose</title>
<path fill="none" stroke="black" d="M493,-168.41C493,-159.85 493,-149.526 493,-140.018"/>
<polygon fill="black" stroke="black" points="496.5,-139.766 493,-129.766 489.5,-139.767 496.5,-139.766"/>
</g>
<!-- ToSet_category_subproof&#45;&gt;ToSet_compose -->
<g id="edge18" class="edge"><title>ToSet_category_subproof&#45;&gt;ToSet_compose</title>
<path fill="none" stroke="black" d="M670.517,-170.892C632.299,-158.04 579.273,-140.208 541.143,-127.386"/>
<polygon fill="black" stroke="black" points="541.893,-123.945 531.299,-124.075 539.662,-130.58 541.893,-123.945"/>
</g>
<!-- ToSet_identity_H -->
<g id="node7" class="node"><title>ToSet_identity_H</title>
<a xlink:href="ToSet.html#identity_H" xlink:title="identity_H">
<ellipse fill="#f070d1" stroke="black" cx="304" cy="-36.1961" rx="62.2254" ry="18.3848"/>
<text text-anchor="middle" x="304" y="-32.5961" font-family="Times Roman,serif" font-size="14.00">identity_H</text>
</a>
</g>
<!-- ToSet_identity&#45;&gt;ToSet_identity_H -->
<g id="edge20" class="edge"><title>ToSet_identity&#45;&gt;ToSet_identity_H</title>
<path fill="none" stroke="black" d="M304,-92.6567C304,-84.2732 304,-74.174 304,-64.8488"/>
<polygon fill="black" stroke="black" points="307.5,-64.782 304,-54.7821 300.5,-64.7821 307.5,-64.782"/>
</g>
<!-- ToSet_compose_H -->
<g id="node9" class="node"><title>ToSet_compose_H</title>
<a xlink:href="ToSet.html#compose_H" xlink:title="compose_H">
<ellipse fill="#f070d1" stroke="black" cx="493" cy="-36.1961" rx="65.9683" ry="18.3848"/>
<text text-anchor="middle" x="493" y="-32.5961" font-family="Times Roman,serif" font-size="14.00">compose_H</text>
</a>
</g>
<!-- ToSet_compose&#45;&gt;ToSet_compose_H -->
<g id="edge22" class="edge"><title>ToSet_compose&#45;&gt;ToSet_compose_H</title>
<path fill="none" stroke="black" d="M493,-92.6567C493,-84.2732 493,-74.174 493,-64.8488"/>
<polygon fill="black" stroke="black" points="496.5,-64.782 493,-54.7821 489.5,-64.7821 496.5,-64.782"/>
</g>
<!-- ToSet_Pair_rec -->
<g id="node10" class="node"><title>ToSet_Pair_rec</title>
<a xlink:href="ToSet.html#Pair_rec" xlink:title="Pair_rec">
<ellipse fill="#f070d1" stroke="black" cx="478" cy="-347.196" rx="50.2046" ry="18.3848"/>
<ellipse fill="none" stroke="black" cx="478" cy="-347.196" rx="54.2046" ry="22.3848"/>
<ellipse fill="none" stroke="black" cx="478" cy="-347.196" rx="58.2046" ry="26.3848"/>
<text text-anchor="middle" x="478" y="-343.596" font-family="Times Roman,serif" font-size="14.00">Pair_rec</text>
</a>
</g>
<!-- ToSet_Pair_rect -->
<g id="node12" class="node"><title>ToSet_Pair_rect</title>
<a xlink:href="ToSet.html#Pair_rect" xlink:title="Pair_rect">
<ellipse fill="#f070d1" stroke="black" cx="344" cy="-263.196" rx="53.9477" ry="18.3848"/>
<text text-anchor="middle" x="344" y="-259.596" font-family="Times Roman,serif" font-size="14.00">Pair_rect</text>
</a>
</g>
<!-- ToSet_Pair_rec&#45;&gt;ToSet_Pair_rect -->
<g id="edge24" class="edge"><title>ToSet_Pair_rec&#45;&gt;ToSet_Pair_rect</title>
<path fill="none" stroke="black" d="M443.492,-325.564C423.497,-313.03 398.409,-297.303 378.428,-284.778"/>
<polygon fill="black" stroke="black" points="380.258,-281.794 369.926,-279.448 376.54,-287.725 380.258,-281.794"/>
</g>
<!-- ToSet_Pair_ind -->
<g id="node11" class="node"><title>ToSet_Pair_ind</title>
<a xlink:href="ToSet.html#Pair_ind" xlink:title="Pair_ind">
<ellipse fill="#7fffd4" stroke="black" cx="344" cy="-347.196" rx="50.2046" ry="18.3848"/>
<ellipse fill="none" stroke="black" cx="344" cy="-347.196" rx="54.2046" ry="22.3848"/>
<ellipse fill="none" stroke="black" cx="344" cy="-347.196" rx="58.2046" ry="26.3848"/>
<text text-anchor="middle" x="344" y="-343.596" font-family="Times Roman,serif" font-size="14.00">Pair_ind</text>
</a>
</g>
<!-- ToSet_Pair_ind&#45;&gt;ToSet_Pair_rect -->
<g id="edge26" class="edge"><title>ToSet_Pair_ind&#45;&gt;ToSet_Pair_rect</title>
<path fill="none" stroke="black" d="M344,-320.618C344,-311.567 344,-301.406 344,-292.176"/>
<polygon fill="black" stroke="black" points="347.5,-291.891 344,-281.891 340.5,-291.891 347.5,-291.891"/>
</g>
<!-- ToSet_Build_Pair -->
<g id="node15" class="node"><title>ToSet_Build_Pair</title>
<a xlink:href="ToSet.html#Build_Pair" xlink:title="Build_Pair">
<ellipse fill="#7faaff" stroke="black" cx="76" cy="-187.196" rx="60.1041" ry="18.3848"/>
<text text-anchor="middle" x="76" y="-183.596" font-family="Times Roman,serif" font-size="14.00">Build_Pair</text>
</a>
</g>
<!-- ToSet_Pair_rect&#45;&gt;ToSet_Build_Pair -->
<g id="edge28" class="edge"><title>ToSet_Pair_rect&#45;&gt;ToSet_Build_Pair</title>
<path fill="none" stroke="black" d="M302.125,-251.321C255.752,-238.17 180.848,-216.929 130.073,-202.53"/>
<polygon fill="black" stroke="black" points="130.83,-199.107 120.255,-199.746 128.92,-205.841 130.83,-199.107"/>
</g>
<!-- ToSet_x -->
<g id="node13" class="node"><title>ToSet_x</title>
<a xlink:href="ToSet.html#x" xlink:title="x">
<ellipse fill="#f070d1" stroke="black" cx="233" cy="-347.196" rx="27" ry="18.3848"/>
<ellipse fill="none" stroke="black" cx="233" cy="-347.196" rx="31" ry="22.3848"/>
<ellipse fill="none" stroke="black" cx="233" cy="-347.196" rx="35" ry="26.3848"/>
<text text-anchor="middle" x="233" y="-343.596" font-family="Times Roman,serif" font-size="14.00">x</text>
</a>
</g>
<!-- ToSet_c -->
<g id="node14" class="node"><title>ToSet_c</title>
<a xlink:href="ToSet.html#c" xlink:title="c">
<ellipse fill="#f070d1" stroke="black" cx="145" cy="-347.196" rx="27" ry="18.3848"/>
<ellipse fill="none" stroke="black" cx="145" cy="-347.196" rx="31" ry="22.3848"/>
<ellipse fill="none" stroke="black" cx="145" cy="-347.196" rx="35" ry="26.3848"/>
<text text-anchor="middle" x="145" y="-343.596" font-family="Times Roman,serif" font-size="14.00">c</text>
</a>
</g>
<!-- ToSet_Pair -->
<g id="node16" class="node"><title>ToSet_Pair</title>
<a xlink:href="ToSet.html#Pair" xlink:title="Pair">
<ellipse fill="#e2cdfa" stroke="black" cx="54" cy="-347.196" rx="30.0107" ry="18.3848"/>
<ellipse fill="none" stroke="black" cx="54" cy="-347.196" rx="33.9588" ry="22.3848"/>
<ellipse fill="none" stroke="black" cx="54" cy="-347.196" rx="37.9068" ry="26.3848"/>
<text text-anchor="middle" x="54" y="-343.596" font-family="Times Roman,serif" font-size="14.00">Pair</text>
</a>
</g>
</g>
</svg>
