<?xml version="1.0" encoding="UTF-8" standalone="no"?>
<!DOCTYPE svg PUBLIC "-//W3C//DTD SVG 1.1//EN"
 "http://www.w3.org/Graphics/SVG/1.1/DTD/svg11.dtd">
<!-- Generated by graphviz version 2.39.20161220.0128 (20161220.0128)
 -->
<!-- Title: HoTT_Categories_Adjoint_Functorial_Laws Pages: 1 -->
<svg width="910pt" height="459pt"
 viewBox="0.00 0.00 910.00 459.00" xmlns="http://www.w3.org/2000/svg" xmlns:xlink="http://www.w3.org/1999/xlink">
<g id="graph0" class="graph" transform="scale(1 1) rotate(0) translate(4 455)">
<title>HoTT_Categories_Adjoint_Functorial_Laws</title>
<polygon fill="#ffffff" stroke="transparent" points="-4,4 -4,-455 906,-455 906,4 -4,4"/>
<g id="clust1" class="cluster">
<title>cluster_Laws</title>
<polygon fill="#ffffc3" stroke="#000000" points="8,-20.1564 8,-430.8436 894,-430.8436 894,-20.1564 8,-20.1564"/>
<text text-anchor="middle" x="31" y="-415.6436" font-family="Times,serif" font-size="14.00" fill="#000000">Laws</text>
</g>
<!-- Laws_right_composition_of_nondep -->
<g id="node1" class="node">
<title>Laws_right_composition_of_nondep</title>
<g id="a_node1"><a xlink:href="Laws.html#right_composition_of_nondep" xlink:title="right_composition_of_nondep">
<ellipse fill="#f070d1" stroke="#000000" cx="760" cy="-287.1564" rx="117.7704" ry="18"/>
<ellipse fill="none" stroke="#000000" cx="760" cy="-287.1564" rx="121.7748" ry="22"/>
<ellipse fill="none" stroke="#000000" cx="760" cy="-287.1564" rx="125.7793" ry="26"/>
<text text-anchor="middle" x="760" y="-283.4564" font-family="Times,serif" font-size="14.00" fill="#000000">right_composition_of_nondep</text>
</a>
</g>
</g>
<!-- Laws_left_composition_of_nondep -->
<g id="node5" class="node">
<title>Laws_left_composition_of_nondep</title>
<g id="a_node5"><a xlink:href="Laws.html#left_composition_of_nondep" xlink:title="left_composition_of_nondep">
<ellipse fill="#facdef" stroke="#000000" cx="760" cy="-86.1564" rx="112.3801" ry="18"/>
<text text-anchor="middle" x="760" y="-82.4564" font-family="Times,serif" font-size="14.00" fill="#000000">left_composition_of_nondep</text>
</a>
</g>
</g>
<!-- Laws_right_composition_of_nondep&#45;&gt;Laws_left_composition_of_nondep -->
<g id="edge1" class="edge">
<title>Laws_right_composition_of_nondep&#45;&gt;Laws_left_composition_of_nondep</title>
<path fill="none" stroke="#000000" d="M760,-260.8792C760,-223.0419 760,-153.491 760,-114.5237"/>
<polygon fill="#000000" stroke="#000000" points="763.5001,-114.3956 760,-104.3956 756.5001,-114.3957 763.5001,-114.3956"/>
</g>
<!-- Laws_right_composition_of -->
<g id="node2" class="node">
<title>Laws_right_composition_of</title>
<g id="a_node2"><a xlink:href="Laws.html#right_composition_of" xlink:title="right_composition_of">
<ellipse fill="#f070d1" stroke="#000000" cx="521" cy="-287.1564" rx="87.1769" ry="18"/>
<ellipse fill="none" stroke="#000000" cx="521" cy="-287.1564" rx="91.1807" ry="22"/>
<ellipse fill="none" stroke="#000000" cx="521" cy="-287.1564" rx="95.1846" ry="26"/>
<text text-anchor="middle" x="521" y="-283.4564" font-family="Times,serif" font-size="14.00" fill="#000000">right_composition_of</text>
</a>
</g>
</g>
<!-- Laws_left_composition_of -->
<g id="node6" class="node">
<title>Laws_left_composition_of</title>
<g id="a_node6"><a xlink:href="Laws.html#left_composition_of" xlink:title="left_composition_of">
<ellipse fill="#facdef" stroke="#000000" cx="521" cy="-86.1564" rx="82.5854" ry="18"/>
<text text-anchor="middle" x="521" y="-82.4564" font-family="Times,serif" font-size="14.00" fill="#000000">left_composition_of</text>
</a>
</g>
</g>
<!-- Laws_right_composition_of&#45;&gt;Laws_left_composition_of -->
<g id="edge2" class="edge">
<title>Laws_right_composition_of&#45;&gt;Laws_left_composition_of</title>
<path fill="none" stroke="#000000" d="M521,-260.8792C521,-223.0419 521,-153.491 521,-114.5237"/>
<polygon fill="#000000" stroke="#000000" points="524.5001,-114.3956 521,-104.3956 517.5001,-114.3957 524.5001,-114.3956"/>
</g>
<!-- Laws_right_identity_of_nondep -->
<g id="node3" class="node">
<title>Laws_right_identity_of_nondep</title>
<g id="a_node3"><a xlink:href="Laws.html#right_identity_of_nondep" xlink:title="right_identity_of_nondep">
<ellipse fill="#f070d1" stroke="#000000" cx="299" cy="-287.1564" rx="100.9649" ry="18"/>
<ellipse fill="none" stroke="#000000" cx="299" cy="-287.1564" rx="104.9738" ry="22"/>
<ellipse fill="none" stroke="#000000" cx="299" cy="-287.1564" rx="108.9827" ry="26"/>
<text text-anchor="middle" x="299" y="-283.4564" font-family="Times,serif" font-size="14.00" fill="#000000">right_identity_of_nondep</text>
</a>
</g>
</g>
<!-- Laws_left_identity_of_nondep -->
<g id="node7" class="node">
<title>Laws_left_identity_of_nondep</title>
<g id="a_node7"><a xlink:href="Laws.html#left_identity_of_nondep" xlink:title="left_identity_of_nondep">
<ellipse fill="#facdef" stroke="#000000" cx="299" cy="-86.1564" rx="95.5831" ry="18"/>
<text text-anchor="middle" x="299" y="-82.4564" font-family="Times,serif" font-size="14.00" fill="#000000">left_identity_of_nondep</text>
</a>
</g>
</g>
<!-- Laws_right_identity_of_nondep&#45;&gt;Laws_left_identity_of_nondep -->
<g id="edge3" class="edge">
<title>Laws_right_identity_of_nondep&#45;&gt;Laws_left_identity_of_nondep</title>
<path fill="none" stroke="#000000" d="M299,-260.8792C299,-223.0419 299,-153.491 299,-114.5237"/>
<polygon fill="#000000" stroke="#000000" points="302.5001,-114.3956 299,-104.3956 295.5001,-114.3957 302.5001,-114.3956"/>
</g>
<!-- Laws_right_identity_of -->
<g id="node4" class="node">
<title>Laws_right_identity_of</title>
<g id="a_node4"><a xlink:href="Laws.html#right_identity_of" xlink:title="right_identity_of">
<ellipse fill="#f070d1" stroke="#000000" cx="94" cy="-287.1564" rx="70.3682" ry="18"/>
<ellipse fill="none" stroke="#000000" cx="94" cy="-287.1564" rx="74.3781" ry="22"/>
<ellipse fill="none" stroke="#000000" cx="94" cy="-287.1564" rx="78.388" ry="26"/>
<text text-anchor="middle" x="94" y="-283.4564" font-family="Times,serif" font-size="14.00" fill="#000000">right_identity_of</text>
</a>
</g>
</g>
<!-- Laws_left_identity_of -->
<g id="node8" class="node">
<title>Laws_left_identity_of</title>
<g id="a_node8"><a xlink:href="Laws.html#left_identity_of" xlink:title="left_identity_of">
<ellipse fill="#facdef" stroke="#000000" cx="94" cy="-86.1564" rx="65.7887" ry="18"/>
<text text-anchor="middle" x="94" y="-82.4564" font-family="Times,serif" font-size="14.00" fill="#000000">left_identity_of</text>
</a>
</g>
</g>
<!-- Laws_right_identity_of&#45;&gt;Laws_left_identity_of -->
<g id="edge4" class="edge">
<title>Laws_right_identity_of&#45;&gt;Laws_left_identity_of</title>
<path fill="none" stroke="#000000" d="M94,-260.8792C94,-223.0419 94,-153.491 94,-114.5237"/>
<polygon fill="#000000" stroke="#000000" points="97.5001,-114.3956 94,-104.3956 90.5001,-114.3957 97.5001,-114.3956"/>
</g>
</g>
</svg>
