<?xml version="1.0" encoding="UTF-8" standalone="no"?>
<!DOCTYPE svg PUBLIC "-//W3C//DTD SVG 1.1//EN"
 "http://www.w3.org/Graphics/SVG/1.1/DTD/svg11.dtd">
<!-- Generated by graphviz version 2.39.20141222.0545 (20141222.0545)
 -->
<!-- Title: HoTT_categories_Functor_Pointwise_Properties Pages: 1 -->
<svg width="1130pt" height="569pt"
 viewBox="0.00 0.00 1130.00 569.00" xmlns="http://www.w3.org/2000/svg" xmlns:xlink="http://www.w3.org/1999/xlink">
<g id="graph0" class="graph" transform="scale(1 1) rotate(0) translate(4 565)">
<title>HoTT_categories_Functor_Pointwise_Properties</title>
<polygon fill="white" stroke="transparent" points="-4,4 -4,-565 1126,-565 1126,4 -4,4"/>
<g id="clust1" class="cluster"><title>cluster_Properties</title>
<polygon fill="#ffffc3" stroke="black" points="8,-17.8805 8,-543.12 1114,-543.12 1114,-17.8805 8,-17.8805"/>
<text text-anchor="middle" x="43.5" y="-527.92" font-family="Times,serif" font-size="14.00">Properties</text>
</g>
<!-- Properties_composition_of -->
<g id="node1" class="node"><title>Properties_composition_of</title>
<g id="a_node1"><a xlink:href="Properties.html#composition_of" xlink:title="composition_of">
<ellipse fill="#f070d1" stroke="black" cx="880" cy="-415.88" rx="66.1109" ry="18"/>
<ellipse fill="none" stroke="black" cx="880" cy="-415.88" rx="70.0999" ry="22"/>
<ellipse fill="none" stroke="black" cx="880" cy="-415.88" rx="74.0888" ry="26"/>
<text text-anchor="middle" x="880" y="-412.18" font-family="Times,serif" font-size="14.00">composition_of</text>
</a>
</g>
</g>
<!-- Properties_composition_of_subproof -->
<g id="node2" class="node"><title>Properties_composition_of_subproof</title>
<g id="a_node2"><a xlink:href="Properties.html#composition_of_subproof" xlink:title="composition_of_subproof">
<ellipse fill="#facdef" stroke="black" cx="774" cy="-236.88" rx="102.082" ry="18"/>
<text text-anchor="middle" x="774" y="-233.18" font-family="Times,serif" font-size="14.00">composition_of_subproof</text>
</a>
</g>
</g>
<!-- Properties_composition_of&#45;&gt;Properties_composition_of_subproof -->
<g id="edge1" class="edge"><title>Properties_composition_of&#45;&gt;Properties_composition_of_subproof</title>
<path fill="none" stroke="black" d="M864.813,-390.234C844.929,-356.656 810.228,-298.059 789.966,-263.842"/>
<polygon fill="black" stroke="black" points="792.765,-261.7 784.658,-254.879 786.742,-265.267 792.765,-261.7"/>
</g>
<!-- Properties_composition_of_helper -->
<g id="node3" class="node"><title>Properties_composition_of_helper</title>
<g id="a_node3"><a xlink:href="Properties.html#composition_of_helper" xlink:title="composition_of_helper">
<ellipse fill="#f070d1" stroke="black" cx="987" cy="-236.88" rx="92.8835" ry="18"/>
<text text-anchor="middle" x="987" y="-233.18" font-family="Times,serif" font-size="14.00">composition_of_helper</text>
</a>
</g>
</g>
<!-- Properties_composition_of&#45;&gt;Properties_composition_of_helper -->
<g id="edge2" class="edge"><title>Properties_composition_of&#45;&gt;Properties_composition_of_helper</title>
<path fill="none" stroke="black" d="M895.33,-390.234C915.402,-356.656 950.43,-298.059 970.883,-263.842"/>
<polygon fill="black" stroke="black" points="974.115,-265.258 976.241,-254.879 968.106,-261.666 974.115,-265.258"/>
</g>
<!-- Properties_composition_of_helper_helper_object_of -->
<g id="node4" class="node"><title>Properties_composition_of_helper_helper_object_of</title>
<g id="a_node4"><a xlink:href="Properties.html#composition_of_helper_helper_object_of" xlink:title="composition_of_helper_helper_object_of">
<ellipse fill="#f070d1" stroke="black" cx="693" cy="-75.8805" rx="156.772" ry="18"/>
<text text-anchor="middle" x="693" y="-72.1805" font-family="Times,serif" font-size="14.00">composition_of_helper_helper_object_of</text>
</a>
</g>
</g>
<!-- Properties_composition_of_subproof&#45;&gt;Properties_composition_of_helper_helper_object_of -->
<g id="edge3" class="edge"><title>Properties_composition_of_subproof&#45;&gt;Properties_composition_of_helper_helper_object_of</title>
<path fill="none" stroke="black" d="M764.866,-218.725C750.707,-190.581 723.369,-136.244 706.796,-103.301"/>
<polygon fill="black" stroke="black" points="709.846,-101.577 702.225,-94.2169 703.593,-104.723 709.846,-101.577"/>
</g>
<!-- Properties_composition_of_helper_helper -->
<g id="node5" class="node"><title>Properties_composition_of_helper_helper</title>
<g id="a_node5"><a xlink:href="Properties.html#composition_of_helper_helper" xlink:title="composition_of_helper_helper">
<ellipse fill="#f070d1" stroke="black" cx="987" cy="-75.8805" rx="118.879" ry="18"/>
<text text-anchor="middle" x="987" y="-72.1805" font-family="Times,serif" font-size="14.00">composition_of_helper_helper</text>
</a>
</g>
</g>
<!-- Properties_composition_of_subproof&#45;&gt;Properties_composition_of_helper_helper -->
<g id="edge4" class="edge"><title>Properties_composition_of_subproof&#45;&gt;Properties_composition_of_helper_helper</title>
<path fill="none" stroke="black" d="M797.2,-219.344C835.511,-190.386 912.055,-132.529 955.317,-99.8288"/>
<polygon fill="black" stroke="black" points="957.637,-102.462 963.504,-93.6402 953.416,-96.8781 957.637,-102.462"/>
</g>
<!-- Properties_composition_of_helper&#45;&gt;Properties_composition_of_helper_helper -->
<g id="edge5" class="edge"><title>Properties_composition_of_helper&#45;&gt;Properties_composition_of_helper_helper</title>
<path fill="none" stroke="black" d="M987,-218.725C987,-190.944 987,-137.639 987,-104.584"/>
<polygon fill="black" stroke="black" points="990.5,-104.217 987,-94.2169 983.5,-104.217 990.5,-104.217"/>
</g>
<!-- Properties_identity_of -->
<g id="node6" class="node"><title>Properties_identity_of</title>
<g id="a_node6"><a xlink:href="Properties.html#identity_of" xlink:title="identity_of">
<ellipse fill="#f070d1" stroke="black" cx="326" cy="-415.88" rx="49.3059" ry="18"/>
<ellipse fill="none" stroke="black" cx="326" cy="-415.88" rx="53.2987" ry="22"/>
<ellipse fill="none" stroke="black" cx="326" cy="-415.88" rx="57.2914" ry="26"/>
<text text-anchor="middle" x="326" y="-412.18" font-family="Times,serif" font-size="14.00">identity_of</text>
</a>
</g>
</g>
<!-- Properties_identity_of_subproof -->
<g id="node7" class="node"><title>Properties_identity_of_subproof</title>
<g id="a_node7"><a xlink:href="Properties.html#identity_of_subproof" xlink:title="identity_of_subproof">
<ellipse fill="#facdef" stroke="black" cx="237" cy="-236.88" rx="85.2851" ry="18"/>
<text text-anchor="middle" x="237" y="-233.18" font-family="Times,serif" font-size="14.00">identity_of_subproof</text>
</a>
</g>
</g>
<!-- Properties_identity_of&#45;&gt;Properties_identity_of_subproof -->
<g id="edge6" class="edge"><title>Properties_identity_of&#45;&gt;Properties_identity_of_subproof</title>
<path fill="none" stroke="black" d="M313.248,-390.234C296.553,-356.656 267.418,-298.059 250.405,-263.842"/>
<polygon fill="black" stroke="black" points="253.535,-262.275 245.949,-254.879 247.267,-265.391 253.535,-262.275"/>
</g>
<!-- Properties_identity_of_helper -->
<g id="node8" class="node"><title>Properties_identity_of_helper</title>
<g id="a_node8"><a xlink:href="Properties.html#identity_of_helper" xlink:title="identity_of_helper">
<ellipse fill="#f070d1" stroke="black" cx="416" cy="-236.88" rx="75.2868" ry="18"/>
<text text-anchor="middle" x="416" y="-233.18" font-family="Times,serif" font-size="14.00">identity_of_helper</text>
</a>
</g>
</g>
<!-- Properties_identity_of&#45;&gt;Properties_identity_of_helper -->
<g id="edge7" class="edge"><title>Properties_identity_of&#45;&gt;Properties_identity_of_helper</title>
<path fill="none" stroke="black" d="M338.895,-390.234C355.777,-356.656 385.24,-298.059 402.444,-263.842"/>
<polygon fill="black" stroke="black" points="405.585,-265.385 406.951,-254.879 399.331,-262.241 405.585,-265.385"/>
</g>
<!-- Properties_identity_of_helper_helper_object_of -->
<g id="node9" class="node"><title>Properties_identity_of_helper_helper_object_of</title>
<g id="a_node9"><a xlink:href="Properties.html#identity_of_helper_helper_object_of" xlink:title="identity_of_helper_helper_object_of">
<ellipse fill="#f070d1" stroke="black" cx="156" cy="-75.8805" rx="139.976" ry="18"/>
<text text-anchor="middle" x="156" y="-72.1805" font-family="Times,serif" font-size="14.00">identity_of_helper_helper_object_of</text>
</a>
</g>
</g>
<!-- Properties_identity_of_subproof&#45;&gt;Properties_identity_of_helper_helper_object_of -->
<g id="edge8" class="edge"><title>Properties_identity_of_subproof&#45;&gt;Properties_identity_of_helper_helper_object_of</title>
<path fill="none" stroke="black" d="M227.866,-218.725C213.707,-190.581 186.369,-136.244 169.796,-103.301"/>
<polygon fill="black" stroke="black" points="172.846,-101.577 165.225,-94.2169 166.593,-104.723 172.846,-101.577"/>
</g>
<!-- Properties_identity_of_helper_helper -->
<g id="node10" class="node"><title>Properties_identity_of_helper_helper</title>
<g id="a_node10"><a xlink:href="Properties.html#identity_of_helper_helper" xlink:title="identity_of_helper_helper">
<ellipse fill="#f070d1" stroke="black" cx="416" cy="-75.8805" rx="102.082" ry="18"/>
<text text-anchor="middle" x="416" y="-72.1805" font-family="Times,serif" font-size="14.00">identity_of_helper_helper</text>
</a>
</g>
</g>
<!-- Properties_identity_of_subproof&#45;&gt;Properties_identity_of_helper_helper -->
<g id="edge9" class="edge"><title>Properties_identity_of_subproof&#45;&gt;Properties_identity_of_helper_helper</title>
<path fill="none" stroke="black" d="M256.497,-219.344C288.424,-190.628 351.948,-133.491 388.46,-100.652"/>
<polygon fill="black" stroke="black" points="391.16,-102.93 396.255,-93.6402 386.479,-97.7253 391.16,-102.93"/>
</g>
<!-- Properties_identity_of_helper&#45;&gt;Properties_identity_of_helper_helper -->
<g id="edge10" class="edge"><title>Properties_identity_of_helper&#45;&gt;Properties_identity_of_helper_helper</title>
<path fill="none" stroke="black" d="M416,-218.725C416,-190.944 416,-137.639 416,-104.584"/>
<polygon fill="black" stroke="black" points="419.5,-104.217 416,-94.2169 412.5,-104.217 419.5,-104.217"/>
</g>
</g>
</svg>
