<?xml version="1.0" encoding="UTF-8" standalone="no"?>
<!DOCTYPE svg PUBLIC "-//W3C//DTD SVG 1.1//EN"
 "http://www.w3.org/Graphics/SVG/1.1/DTD/svg11.dtd">
<!-- Generated by graphviz version 2.39.20141222.0545 (20141222.0545)
 -->
<!-- Title: HoTT_Types_Bool Pages: 1 -->
<svg width="1079pt" height="543pt"
 viewBox="0.00 0.00 1079.00 543.50" xmlns="http://www.w3.org/2000/svg" xmlns:xlink="http://www.w3.org/1999/xlink">
<g id="graph0" class="graph" transform="scale(1 1) rotate(0) translate(4 539.5)">
<title>HoTT_Types_Bool</title>
<polygon fill="white" stroke="transparent" points="-4,4 -4,-539.5 1075,-539.5 1075,4 -4,4"/>
<g id="clust1" class="cluster"><title>cluster_Bool</title>
<polygon fill="#ffffc3" stroke="black" points="8,-10.0328 8,-525.467 1063,-525.467 1063,-10.0328 8,-10.0328"/>
<text text-anchor="middle" x="29.5" y="-510.267" font-family="Times,serif" font-size="14.00">Bool</text>
</g>
<!-- Bool_equiv_bool_equiv_bool_bool -->
<g id="node1" class="node"><title>Bool_equiv_bool_equiv_bool_bool</title>
<g id="a_node1"><a xlink:href="Bool.html#equiv_bool_equiv_bool_bool" xlink:title="equiv_bool_equiv_bool_bool">
<ellipse fill="#f070d1" stroke="black" cx="340" cy="-454.033" rx="114.287" ry="18"/>
<ellipse fill="none" stroke="black" cx="340" cy="-454.033" rx="118.283" ry="22"/>
<ellipse fill="none" stroke="black" cx="340" cy="-454.033" rx="122.28" ry="26"/>
<text text-anchor="middle" x="340" y="-450.333" font-family="Times,serif" font-size="14.00">equiv_bool_equiv_bool_bool</text>
</a>
</g>
</g>
<!-- Bool_eval_bool_isequiv -->
<g id="node2" class="node"><title>Bool_eval_bool_isequiv</title>
<g id="a_node2"><a xlink:href="Bool.html#eval_bool_isequiv" xlink:title="eval_bool_isequiv">
<ellipse fill="#f070d1" stroke="black" cx="426" cy="-243.033" rx="75.2868" ry="18"/>
<text text-anchor="middle" x="426" y="-239.333" font-family="Times,serif" font-size="14.00">eval_bool_isequiv</text>
</a>
</g>
</g>
<!-- Bool_equiv_bool_equiv_bool_bool&#45;&gt;Bool_eval_bool_isequiv -->
<g id="edge1" class="edge"><title>Bool_equiv_bool_equiv_bool_bool&#45;&gt;Bool_eval_bool_isequiv</title>
<path fill="none" stroke="black" d="M350.718,-427.736C367.107,-387.525 398.241,-311.138 414.872,-270.334"/>
<polygon fill="black" stroke="black" points="418.141,-271.588 418.674,-261.007 411.659,-268.946 418.141,-271.588"/>
</g>
<!-- Bool_equiv_negb -->
<g id="node3" class="node"><title>Bool_equiv_negb</title>
<g id="a_node3"><a xlink:href="Bool.html#equiv_negb" xlink:title="equiv_negb">
<ellipse fill="#f070d1" stroke="black" cx="295" cy="-344.033" rx="51.9908" ry="18"/>
<text text-anchor="middle" x="295" y="-340.333" font-family="Times,serif" font-size="14.00">equiv_negb</text>
</a>
</g>
</g>
<!-- Bool_equiv_bool_equiv_bool_bool&#45;&gt;Bool_equiv_negb -->
<g id="edge2" class="edge"><title>Bool_equiv_bool_equiv_bool_bool&#45;&gt;Bool_equiv_negb</title>
<path fill="none" stroke="black" d="M329.336,-427.964C322.383,-410.969 313.323,-388.822 306.255,-371.546"/>
<polygon fill="black" stroke="black" points="309.381,-369.943 302.355,-362.012 302.902,-372.593 309.381,-369.943"/>
</g>
<!-- Bool_negb -->
<g id="node13" class="node"><title>Bool_negb</title>
<g id="a_node13"><a xlink:href="Bool.html#negb" xlink:title="negb">
<ellipse fill="#f070d1" stroke="black" cx="460" cy="-143.033" rx="27.8951" ry="18"/>
<text text-anchor="middle" x="460" y="-139.333" font-family="Times,serif" font-size="14.00">negb</text>
</a>
</g>
</g>
<!-- Bool_eval_bool_isequiv&#45;&gt;Bool_negb -->
<g id="edge3" class="edge"><title>Bool_eval_bool_isequiv&#45;&gt;Bool_negb</title>
<path fill="none" stroke="black" d="M432.236,-224.691C437.396,-209.514 444.804,-187.725 450.671,-170.472"/>
<polygon fill="black" stroke="black" points="454.012,-171.516 453.918,-160.922 447.385,-169.263 454.012,-171.516"/>
</g>
<!-- Bool_isequiv_negb -->
<g id="node4" class="node"><title>Bool_isequiv_negb</title>
<g id="a_node4"><a xlink:href="Bool.html#isequiv_negb" xlink:title="isequiv_negb">
<ellipse fill="#f070d1" stroke="black" cx="275" cy="-243.033" rx="57.6901" ry="18"/>
<text text-anchor="middle" x="275" y="-239.333" font-family="Times,serif" font-size="14.00">isequiv_negb</text>
</a>
</g>
</g>
<!-- Bool_equiv_negb&#45;&gt;Bool_isequiv_negb -->
<g id="edge4" class="edge"><title>Bool_equiv_negb&#45;&gt;Bool_isequiv_negb</title>
<path fill="none" stroke="black" d="M291.424,-325.976C288.428,-310.846 284.098,-288.978 280.636,-271.494"/>
<polygon fill="black" stroke="black" points="283.988,-270.403 278.612,-261.274 277.121,-271.763 283.988,-270.403"/>
</g>
<!-- Bool_isequiv_negb&#45;&gt;Bool_negb -->
<g id="edge5" class="edge"><title>Bool_isequiv_negb&#45;&gt;Bool_negb</title>
<path fill="none" stroke="black" d="M308.079,-228.222C338.575,-214.167 384.765,-191.853 423,-169.033 426.392,-167.008 429.88,-164.775 433.295,-162.494"/>
<polygon fill="black" stroke="black" points="435.288,-165.371 441.537,-156.815 431.317,-159.607 435.288,-165.371"/>
</g>
<!-- Bool_equiv_bool_forall_prod -->
<g id="node5" class="node"><title>Bool_equiv_bool_forall_prod</title>
<g id="a_node5"><a xlink:href="Bool.html#equiv_bool_forall_prod" xlink:title="equiv_bool_forall_prod">
<ellipse fill="#f070d1" stroke="black" cx="742" cy="-143.033" rx="94.4649" ry="18"/>
<ellipse fill="none" stroke="black" cx="742" cy="-143.033" rx="98.4744" ry="22"/>
<ellipse fill="none" stroke="black" cx="742" cy="-143.033" rx="102.484" ry="26"/>
<text text-anchor="middle" x="742" y="-139.333" font-family="Times,serif" font-size="14.00">equiv_bool_forall_prod</text>
</a>
</g>
</g>
<!-- Bool_false -->
<g id="node18" class="node"><title>Bool_false</title>
<g id="a_node18"><a xlink:href="Bool.html#false" xlink:title="false">
<ellipse fill="#7faaff" stroke="black" cx="742" cy="-43.0328" rx="27.0966" ry="18"/>
<text text-anchor="middle" x="742" y="-39.3328" font-family="Times,serif" font-size="14.00">false</text>
</a>
</g>
</g>
<!-- Bool_equiv_bool_forall_prod&#45;&gt;Bool_false -->
<g id="edge6" class="edge"><title>Bool_equiv_bool_forall_prod&#45;&gt;Bool_false</title>
<path fill="none" stroke="black" d="M742,-117.02C742,-103.001 742,-85.6848 742,-71.3299"/>
<polygon fill="black" stroke="black" points="745.5,-71.0335 742,-61.0335 738.5,-71.0335 745.5,-71.0335"/>
</g>
<!-- Bool_true -->
<g id="node19" class="node"><title>Bool_true</title>
<g id="a_node19"><a xlink:href="Bool.html#true" xlink:title="true">
<ellipse fill="#7faaff" stroke="black" cx="549" cy="-43.0328" rx="27" ry="18"/>
<text text-anchor="middle" x="549" y="-39.3328" font-family="Times,serif" font-size="14.00">true</text>
</a>
</g>
</g>
<!-- Bool_equiv_bool_forall_prod&#45;&gt;Bool_true -->
<g id="edge7" class="edge"><title>Bool_equiv_bool_forall_prod&#45;&gt;Bool_true</title>
<path fill="none" stroke="black" d="M696.75,-119.587C660.704,-100.91 611.217,-75.2694 579.668,-58.9232"/>
<polygon fill="black" stroke="black" points="580.977,-55.6595 570.488,-54.1666 577.757,-61.8748 580.977,-55.6595"/>
</g>
<!-- Bool_Bool -->
<g id="node20" class="node"><title>Bool_Bool</title>
<g id="a_node20"><a xlink:href="Bool.html#Bool" xlink:title="Bool">
<ellipse fill="#e2cdfa" stroke="black" cx="460" cy="-43.0328" rx="27.8951" ry="18"/>
<text text-anchor="middle" x="460" y="-39.3328" font-family="Times,serif" font-size="14.00">Bool</text>
</a>
</g>
</g>
<!-- Bool_equiv_bool_forall_prod&#45;&gt;Bool_Bool -->
<g id="edge8" class="edge"><title>Bool_equiv_bool_forall_prod&#45;&gt;Bool_Bool</title>
<path fill="none" stroke="black" d="M682.195,-121.825C625.108,-101.582 541.085,-71.7863 494.428,-55.2412"/>
<polygon fill="black" stroke="black" points="495.381,-51.8657 484.786,-51.8222 493.041,-58.4632 495.381,-51.8657"/>
</g>
<!-- Bool_not_fixed_negb -->
<g id="node6" class="node"><title>Bool_not_fixed_negb</title>
<g id="a_node6"><a xlink:href="Bool.html#not_fixed_negb" xlink:title="not_fixed_negb">
<ellipse fill="#f070d1" stroke="black" cx="520" cy="-344.033" rx="65.7729" ry="18"/>
<ellipse fill="none" stroke="black" cx="520" cy="-344.033" rx="69.7808" ry="22"/>
<ellipse fill="none" stroke="black" cx="520" cy="-344.033" rx="73.7886" ry="26"/>
<text text-anchor="middle" x="520" y="-340.333" font-family="Times,serif" font-size="14.00">not_fixed_negb</text>
</a>
</g>
</g>
<!-- Bool_true_ne_false -->
<g id="node9" class="node"><title>Bool_true_ne_false</title>
<g id="a_node9"><a xlink:href="Bool.html#true_ne_false" xlink:title="true_ne_false">
<ellipse fill="#f070d1" stroke="black" cx="597" cy="-243.033" rx="57.6901" ry="18"/>
<text text-anchor="middle" x="597" y="-239.333" font-family="Times,serif" font-size="14.00">true_ne_false</text>
</a>
</g>
</g>
<!-- Bool_not_fixed_negb&#45;&gt;Bool_true_ne_false -->
<g id="edge9" class="edge"><title>Bool_not_fixed_negb&#45;&gt;Bool_true_ne_false</title>
<path fill="none" stroke="black" d="M539.232,-318.807C550.883,-303.524 565.706,-284.08 577.42,-268.716"/>
<polygon fill="black" stroke="black" points="580.288,-270.726 583.568,-260.652 574.721,-266.482 580.288,-270.726"/>
</g>
<!-- Bool_not_fixed_negb&#45;&gt;Bool_negb -->
<g id="edge10" class="edge"><title>Bool_not_fixed_negb&#45;&gt;Bool_negb</title>
<path fill="none" stroke="black" d="M521.211,-317.818C521.559,-293.241 520.042,-255.777 510,-225.033 503.206,-204.231 490.237,-183.206 479.209,-167.654"/>
<polygon fill="black" stroke="black" points="481.733,-165.176 473.003,-159.173 476.084,-169.31 481.733,-165.176"/>
</g>
<!-- Bool_hset_bool -->
<g id="node7" class="node"><title>Bool_hset_bool</title>
<g id="a_node7"><a xlink:href="Bool.html#hset_bool" xlink:title="hset_bool">
<ellipse fill="#f070d1" stroke="black" cx="699" cy="-454.033" rx="44.7157" ry="18"/>
<ellipse fill="none" stroke="black" cx="699" cy="-454.033" rx="48.7041" ry="22"/>
<ellipse fill="none" stroke="black" cx="699" cy="-454.033" rx="52.6925" ry="26"/>
<text text-anchor="middle" x="699" y="-450.333" font-family="Times,serif" font-size="14.00">hset_bool</text>
</a>
</g>
</g>
<!-- Bool_decidable_paths_bool -->
<g id="node8" class="node"><title>Bool_decidable_paths_bool</title>
<g id="a_node8"><a xlink:href="Bool.html#decidable_paths_bool" xlink:title="decidable_paths_bool">
<ellipse fill="#f070d1" stroke="black" cx="699" cy="-344.033" rx="87.1846" ry="18"/>
<text text-anchor="middle" x="699" y="-340.333" font-family="Times,serif" font-size="14.00">decidable_paths_bool</text>
</a>
</g>
</g>
<!-- Bool_hset_bool&#45;&gt;Bool_decidable_paths_bool -->
<g id="edge11" class="edge"><title>Bool_hset_bool&#45;&gt;Bool_decidable_paths_bool</title>
<path fill="none" stroke="black" d="M699,-427.964C699,-411.234 699,-389.509 699,-372.355"/>
<polygon fill="black" stroke="black" points="702.5,-372.349 699,-362.35 695.5,-372.35 702.5,-372.349"/>
</g>
<!-- Bool_decidable_paths_bool&#45;&gt;Bool_true_ne_false -->
<g id="edge12" class="edge"><title>Bool_decidable_paths_bool&#45;&gt;Bool_true_ne_false</title>
<path fill="none" stroke="black" d="M680.764,-325.976C664.319,-309.691 639.99,-285.602 621.784,-267.574"/>
<polygon fill="black" stroke="black" points="623.965,-264.808 614.397,-260.259 619.04,-269.782 623.965,-264.808"/>
</g>
<!-- Bool_false_ne_true -->
<g id="node10" class="node"><title>Bool_false_ne_true</title>
<g id="a_node10"><a xlink:href="Bool.html#false_ne_true" xlink:title="false_ne_true">
<ellipse fill="#f070d1" stroke="black" cx="564" cy="-143.033" rx="57.6901" ry="18"/>
<text text-anchor="middle" x="564" y="-139.333" font-family="Times,serif" font-size="14.00">false_ne_true</text>
</a>
</g>
</g>
<!-- Bool_true_ne_false&#45;&gt;Bool_false_ne_true -->
<g id="edge13" class="edge"><title>Bool_true_ne_false&#45;&gt;Bool_false_ne_true</title>
<path fill="none" stroke="black" d="M590.947,-224.691C585.97,-209.608 578.838,-187.996 573.161,-170.794"/>
<polygon fill="black" stroke="black" points="576.472,-169.657 570.014,-161.258 569.824,-171.851 576.472,-169.657"/>
</g>
<!-- Bool_false_ne_true&#45;&gt;Bool_false -->
<g id="edge14" class="edge"><title>Bool_false_ne_true&#45;&gt;Bool_false</title>
<path fill="none" stroke="black" d="M592.205,-127.187C625,-108.763 678.892,-78.4865 712.31,-59.7127"/>
<polygon fill="black" stroke="black" points="714.154,-62.6914 721.158,-54.742 710.725,-56.5886 714.154,-62.6914"/>
</g>
<!-- Bool_false_ne_true&#45;&gt;Bool_true -->
<g id="edge15" class="edge"><title>Bool_false_ne_true&#45;&gt;Bool_true</title>
<path fill="none" stroke="black" d="M561.249,-124.691C559.007,-109.749 555.805,-88.3993 553.237,-71.2774"/>
<polygon fill="black" stroke="black" points="556.679,-70.6282 551.734,-61.2581 549.756,-71.6666 556.679,-70.6282"/>
</g>
<!-- Bool_false_ne_true&#45;&gt;Bool_Bool -->
<g id="edge16" class="edge"><title>Bool_false_ne_true&#45;&gt;Bool_Bool</title>
<path fill="none" stroke="black" d="M545.885,-125.614C528.494,-108.892 502.147,-83.5587 483.223,-65.3622"/>
<polygon fill="black" stroke="black" points="485.5,-62.6968 475.866,-58.2886 480.649,-67.7427 485.5,-62.6968"/>
</g>
<!-- Bool_trunc_if -->
<g id="node11" class="node"><title>Bool_trunc_if</title>
<g id="a_node11"><a xlink:href="Bool.html#trunc_if" xlink:title="trunc_if">
<ellipse fill="#f070d1" stroke="black" cx="182" cy="-143.033" rx="38.2201" ry="18"/>
<ellipse fill="none" stroke="black" cx="182" cy="-143.033" rx="42.2069" ry="22"/>
<ellipse fill="none" stroke="black" cx="182" cy="-143.033" rx="46.1937" ry="26"/>
<text text-anchor="middle" x="182" y="-139.333" font-family="Times,serif" font-size="14.00">trunc_if</text>
</a>
</g>
</g>
<!-- Bool_trunc_if&#45;&gt;Bool_Bool -->
<g id="edge17" class="edge"><title>Bool_trunc_if&#45;&gt;Bool_Bool</title>
<path fill="none" stroke="black" d="M216.929,-125.746C223.533,-122.699 230.431,-119.664 237,-117.033 301.99,-90.9996 380.071,-66.6119 424.478,-53.3647"/>
<polygon fill="black" stroke="black" points="425.628,-56.6745 434.221,-50.4763 423.638,-49.9633 425.628,-56.6745"/>
</g>
<!-- Bool_implb -->
<g id="node12" class="node"><title>Bool_implb</title>
<g id="a_node12"><a xlink:href="Bool.html#implb" xlink:title="implb">
<ellipse fill="#f070d1" stroke="black" cx="286" cy="-143.033" rx="31.7255" ry="18"/>
<ellipse fill="none" stroke="black" cx="286" cy="-143.033" rx="35.7102" ry="22"/>
<ellipse fill="none" stroke="black" cx="286" cy="-143.033" rx="39.6949" ry="26"/>
<text text-anchor="middle" x="286" y="-139.333" font-family="Times,serif" font-size="14.00">implb</text>
</a>
</g>
</g>
<!-- Bool_implb&#45;&gt;Bool_true -->
<g id="edge18" class="edge"><title>Bool_implb&#45;&gt;Bool_true</title>
<path fill="none" stroke="black" d="M316.223,-126.06C322.354,-122.884 328.818,-119.722 335,-117.033 404.857,-86.6436 425.005,-85.9369 497,-61.0328 502.842,-59.0121 509.052,-56.8629 515.072,-54.7794"/>
<polygon fill="black" stroke="black" points="516.619,-57.9477 524.924,-51.3692 514.329,-51.3328 516.619,-57.9477"/>
</g>
<!-- Bool_implb&#45;&gt;Bool_Bool -->
<g id="edge19" class="edge"><title>Bool_implb&#45;&gt;Bool_Bool</title>
<path fill="none" stroke="black" d="M315.912,-125.842C347.837,-107.494 398.126,-78.5926 430.062,-60.2387"/>
<polygon fill="black" stroke="black" points="432.021,-63.1495 438.947,-55.1321 428.533,-57.0804 432.021,-63.1495"/>
</g>
<!-- Bool_negb&#45;&gt;Bool_false -->
<g id="edge20" class="edge"><title>Bool_negb&#45;&gt;Bool_false</title>
<path fill="none" stroke="black" d="M477.726,-128.855C483.613,-124.626 490.364,-120.262 497,-117.033 567.309,-82.815 656.73,-60.6724 705.762,-50.1733"/>
<polygon fill="black" stroke="black" points="706.523,-53.5899 715.59,-48.1094 705.084,-46.7393 706.523,-53.5899"/>
</g>
<!-- Bool_negb&#45;&gt;Bool_true -->
<g id="edge21" class="edge"><title>Bool_negb&#45;&gt;Bool_true</title>
<path fill="none" stroke="black" d="M473.906,-127.408C488.536,-110.969 511.717,-84.9235 528.456,-66.1161"/>
<polygon fill="black" stroke="black" points="531.158,-68.345 535.191,-58.5481 525.929,-63.6912 531.158,-68.345"/>
</g>
<!-- Bool_negb&#45;&gt;Bool_Bool -->
<g id="edge22" class="edge"><title>Bool_negb&#45;&gt;Bool_Bool</title>
<path fill="none" stroke="black" d="M460,-124.691C460,-109.749 460,-88.3993 460,-71.2774"/>
<polygon fill="black" stroke="black" points="463.5,-71.258 460,-61.2581 456.5,-71.2581 463.5,-71.258"/>
</g>
<!-- Bool_orb -->
<g id="node14" class="node"><title>Bool_orb</title>
<g id="a_node14"><a xlink:href="Bool.html#orb" xlink:title="orb">
<ellipse fill="#f070d1" stroke="black" cx="379" cy="-143.033" rx="27" ry="18"/>
<ellipse fill="none" stroke="black" cx="379" cy="-143.033" rx="31" ry="22"/>
<ellipse fill="none" stroke="black" cx="379" cy="-143.033" rx="35" ry="26"/>
<text text-anchor="middle" x="379" y="-139.333" font-family="Times,serif" font-size="14.00">orb</text>
</a>
</g>
</g>
<!-- Bool_orb&#45;&gt;Bool_true -->
<g id="edge23" class="edge"><title>Bool_orb&#45;&gt;Bool_true</title>
<path fill="none" stroke="black" d="M406.455,-126.794C411.934,-123.558 417.649,-120.185 423,-117.033 456.094,-97.537 494.116,-75.2175 519.661,-60.2339"/>
<polygon fill="black" stroke="black" points="521.62,-63.1424 528.475,-55.0643 518.079,-57.1042 521.62,-63.1424"/>
</g>
<!-- Bool_orb&#45;&gt;Bool_Bool -->
<g id="edge24" class="edge"><title>Bool_orb&#45;&gt;Bool_Bool</title>
<path fill="none" stroke="black" d="M397.38,-120.341C410.259,-104.442 427.441,-83.2287 440.55,-67.0455"/>
<polygon fill="black" stroke="black" points="443.414,-69.0697 446.989,-59.096 437.975,-64.6637 443.414,-69.0697"/>
</g>
<!-- Bool_andb -->
<g id="node15" class="node"><title>Bool_andb</title>
<g id="a_node15"><a xlink:href="Bool.html#andb" xlink:title="andb">
<ellipse fill="#f070d1" stroke="black" cx="1019" cy="-143.033" rx="27.9068" ry="18"/>
<ellipse fill="none" stroke="black" cx="1019" cy="-143.033" rx="31.9009" ry="22"/>
<ellipse fill="none" stroke="black" cx="1019" cy="-143.033" rx="35.8951" ry="26"/>
<text text-anchor="middle" x="1019" y="-139.333" font-family="Times,serif" font-size="14.00">andb</text>
</a>
</g>
</g>
<!-- Bool_andb&#45;&gt;Bool_false -->
<g id="edge25" class="edge"><title>Bool_andb&#45;&gt;Bool_false</title>
<path fill="none" stroke="black" d="M992.049,-125.818C986.528,-122.662 980.67,-119.569 975,-117.033 907.644,-86.904 824.316,-63.5687 777.772,-51.6949"/>
<polygon fill="black" stroke="black" points="778.418,-48.2483 767.866,-49.1996 776.708,-55.0363 778.418,-48.2483"/>
</g>
<!-- Bool_andb&#45;&gt;Bool_Bool -->
<g id="edge26" class="edge"><title>Bool_andb&#45;&gt;Bool_Bool</title>
<path fill="none" stroke="black" d="M992.385,-124.963C986.836,-121.877 980.882,-119.029 975,-117.033 779.135,-50.5638 714.668,-106.98 513,-61.0328 506.658,-59.5878 500.009,-57.6678 493.647,-55.6201"/>
<polygon fill="black" stroke="black" points="494.566,-52.2361 483.971,-52.3468 492.322,-58.8669 494.566,-52.2361"/>
</g>
<!-- Bool_Bool_rec -->
<g id="node16" class="node"><title>Bool_Bool_rec</title>
<g id="a_node16"><a xlink:href="Bool.html#Bool_rec" xlink:title="Bool_rec">
<ellipse fill="#f070d1" stroke="black" cx="67" cy="-143.033" rx="42.8089" ry="18"/>
<ellipse fill="none" stroke="black" cx="67" cy="-143.033" rx="46.8007" ry="22"/>
<ellipse fill="none" stroke="black" cx="67" cy="-143.033" rx="50.7926" ry="26"/>
<text text-anchor="middle" x="67" y="-139.333" font-family="Times,serif" font-size="14.00">Bool_rec</text>
</a>
</g>
</g>
<!-- Bool_Bool_rec&#45;&gt;Bool_Bool -->
<g id="edge27" class="edge"><title>Bool_Bool_rec&#45;&gt;Bool_Bool</title>
<path fill="none" stroke="black" d="M104.669,-125.417C111.982,-122.367 119.657,-119.416 127,-117.033 231.903,-82.9907 360.4,-59.3169 422.652,-48.9411"/>
<polygon fill="black" stroke="black" points="423.475,-52.3528 432.773,-47.2744 422.337,-45.4458 423.475,-52.3528"/>
</g>
<!-- Bool_Bool_ind -->
<g id="node17" class="node"><title>Bool_Bool_ind</title>
<g id="a_node17"><a xlink:href="Bool.html#Bool_ind" xlink:title="Bool_ind">
<ellipse fill="#f070d1" stroke="black" cx="914" cy="-143.033" rx="43.5851" ry="18"/>
<ellipse fill="none" stroke="black" cx="914" cy="-143.033" rx="47.5887" ry="22"/>
<ellipse fill="none" stroke="black" cx="914" cy="-143.033" rx="51.5923" ry="26"/>
<text text-anchor="middle" x="914" y="-139.333" font-family="Times,serif" font-size="14.00">Bool_ind</text>
</a>
</g>
</g>
<!-- Bool_Bool_ind&#45;&gt;Bool_false -->
<g id="edge28" class="edge"><title>Bool_Bool_ind&#45;&gt;Bool_false</title>
<path fill="none" stroke="black" d="M880.018,-123.276C848.433,-104.912 801.851,-77.8301 771.714,-60.3085"/>
<polygon fill="black" stroke="black" points="773.328,-57.1984 762.924,-55.1979 769.81,-63.2499 773.328,-57.1984"/>
</g>
<!-- Bool_Bool_ind&#45;&gt;Bool_true -->
<g id="edge29" class="edge"><title>Bool_Bool_ind&#45;&gt;Bool_true</title>
<path fill="none" stroke="black" d="M875.645,-125.556C868.215,-122.493 860.429,-119.502 853,-117.033 758.13,-85.5051 642.546,-61.0623 585.065,-49.8126"/>
<polygon fill="black" stroke="black" points="585.509,-46.3338 575.026,-47.8669 584.177,-53.2059 585.509,-46.3338"/>
</g>
<!-- Bool_Bool_ind&#45;&gt;Bool_Bool -->
<g id="edge30" class="edge"><title>Bool_Bool_ind&#45;&gt;Bool_Bool</title>
<path fill="none" stroke="black" d="M876.115,-125.233C868.574,-122.163 860.627,-119.251 853,-117.033 705.948,-74.2572 661.562,-98.2272 513,-61.0328 506.752,-59.4685 500.186,-57.5076 493.887,-55.4603"/>
<polygon fill="black" stroke="black" points="494.884,-52.1029 484.29,-52.2167 492.642,-58.7344 494.884,-52.1029"/>
</g>
</g>
</svg>
