<?xml version="1.0" encoding="UTF-8" standalone="no"?>
<!DOCTYPE svg PUBLIC "-//W3C//DTD SVG 1.1//EN"
 "http://www.w3.org/Graphics/SVG/1.1/DTD/svg11.dtd">
<!-- Generated by graphviz version 2.26.3 (20100126.1600)
 -->
<!-- Title: HoTT_categories_DualFunctor Pages: 1 -->
<svg width="380pt" height="194pt"
 viewBox="0.00 0.00 380.00 194.00" xmlns="http://www.w3.org/2000/svg" xmlns:xlink="http://www.w3.org/1999/xlink">
<g id="graph1" class="graph" transform="scale(1 1) rotate(0) translate(4 190)">
<title>HoTT_categories_DualFunctor</title>
<polygon fill="white" stroke="white" points="-4,5 -4,-190 377,-190 377,5 -4,5"/>
<g id="graph2" class="cluster"><title>cluster_DualFunctor</title>
<polygon fill="#ffffc3" stroke="black" points="8.75294,-8 8.75294,-178 363.247,-178 363.247,-8 8.75294,-8"/>
<text text-anchor="middle" x="59.2529" y="-161.4" font-family="Times Roman,serif" font-size="14.00">DualFunctor</text>
</g>
<!-- DualFunctor_opposite_functor_involutive -->
<g id="node1" class="node"><title>DualFunctor_opposite_functor_involutive</title>
<a xlink:href="DualFunctor.html#opposite_functor_involutive" xlink:title="opposite_functor_involutive">
<ellipse fill="#facdef" stroke="black" cx="186.071" cy="-117" rx="145.897" ry="18.3848"/>
<ellipse fill="none" stroke="black" cx="186.071" cy="-117" rx="149.884" ry="22.3848"/>
<ellipse fill="none" stroke="black" cx="186.071" cy="-117" rx="153.872" ry="26.3848"/>
<text text-anchor="middle" x="186.071" y="-113.4" font-family="Times Roman,serif" font-size="14.00">opposite_functor_involutive</text>
</a>
</g>
<!-- DualFunctor_opposite_functor -->
<g id="node2" class="node"><title>DualFunctor_opposite_functor</title>
<a xlink:href="DualFunctor.html#opposite_functor" xlink:title="opposite_functor">
<ellipse fill="#f070d1" stroke="black" cx="186.071" cy="-35" rx="92.1303" ry="18.3848"/>
<text text-anchor="middle" x="186.071" y="-31.4" font-family="Times Roman,serif" font-size="14.00">opposite_functor</text>
</a>
</g>
<!-- DualFunctor_opposite_functor_involutive&#45;&gt;DualFunctor_opposite_functor -->
<g id="edge2" class="edge"><title>DualFunctor_opposite_functor_involutive&#45;&gt;DualFunctor_opposite_functor</title>
<path fill="none" stroke="black" d="M186.071,-90.1501C186.071,-81.7426 186.071,-72.4303 186.071,-63.8885"/>
<polygon fill="black" stroke="black" points="189.571,-63.607 186.071,-53.6071 182.571,-63.6071 189.571,-63.607"/>
</g>
</g>
</svg>
