<?xml version="1.0" encoding="UTF-8" standalone="no"?>
<!DOCTYPE svg PUBLIC "-//W3C//DTD SVG 1.1//EN"
 "http://www.w3.org/Graphics/SVG/1.1/DTD/svg11.dtd">
<!-- Generated by graphviz version 2.26.3 (20100126.1600)
 -->
<!-- Title: HoTT_categories_Structure_Core Pages: 1 -->
<svg width="3906pt" height="1957pt"
 viewBox="0.00 0.00 3906.00 1957.00" xmlns="http://www.w3.org/2000/svg" xmlns:xlink="http://www.w3.org/1999/xlink">
<g id="graph1" class="graph" transform="scale(1 1) rotate(0) translate(4 1953)">
<title>HoTT_categories_Structure_Core</title>
<polygon fill="white" stroke="white" points="-4,5 -4,-1953 3903,-1953 3903,5 -4,5"/>
<g id="graph2" class="cluster"><title>cluster_Core</title>
<polygon fill="#ffffc3" stroke="black" points="8,-42.8352 8,-1906.16 3890,-1906.16 3890,-42.8352 8,-42.8352"/>
<text text-anchor="middle" x="32.5" y="-1889.56" font-family="Times Roman,serif" font-size="14.00">Core</text>
</g>
<g id="graph3" class="cluster"><title>cluster_Core_PreCategoryOfStructures</title>
<polygon fill="#ffffa3" stroke="black" points="3168,-85.6703 3168,-1392.14 3882,-1392.14 3882,-85.6703 3168,-85.6703"/>
<text text-anchor="middle" x="3263.5" y="-1375.54" font-family="Times Roman,serif" font-size="14.00">PreCategoryOfStructures</text>
</g>
<!-- Core_PreCategoryOfStructures_path_morphism -->
<g id="node1" class="node"><title>Core_PreCategoryOfStructures_path_morphism</title>
<a xlink:href="Core.html#PreCategoryOfStructures.path_morphism" xlink:title="path_morphism">
<ellipse fill="#f070d1" stroke="black" cx="3451" cy="-626.835" rx="86.9741" ry="18.3848"/>
<text text-anchor="middle" x="3451" y="-623.235" font-family="Times Roman,serif" font-size="14.00">path_morphism</text>
</a>
</g>
<!-- Core_PreCategoryOfStructures_Build_morphism -->
<g id="node8" class="node"><title>Core_PreCategoryOfStructures_Build_morphism</title>
<a xlink:href="Core.html#PreCategoryOfStructures.Build_morphism" xlink:title="Build_morphism">
<ellipse fill="#7faaff" stroke="black" cx="3451" cy="-229.835" rx="89.0955" ry="18.3848"/>
<text text-anchor="middle" x="3451" y="-226.235" font-family="Times Roman,serif" font-size="14.00">Build_morphism</text>
</a>
</g>
<!-- Core_PreCategoryOfStructures_path_morphism&#45;&gt;Core_PreCategoryOfStructures_Build_morphism -->
<g id="edge2" class="edge"><title>Core_PreCategoryOfStructures_path_morphism&#45;&gt;Core_PreCategoryOfStructures_Build_morphism</title>
<path fill="none" stroke="black" d="M3451,-608.22C3451,-544.661 3451,-335.914 3451,-258.8"/>
<polygon fill="black" stroke="black" points="3454.5,-258.41 3451,-248.411 3447.5,-258.411 3454.5,-258.41"/>
</g>
<!-- Core_PreCategoryOfStructures_issig_morphism -->
<g id="node2" class="node"><title>Core_PreCategoryOfStructures_issig_morphism</title>
<a xlink:href="Core.html#PreCategoryOfStructures.issig_morphism" xlink:title="issig_morphism">
<ellipse fill="#f070d1" stroke="black" cx="3261" cy="-626.835" rx="85.0596" ry="18.3848"/>
<text text-anchor="middle" x="3261" y="-623.235" font-family="Times Roman,serif" font-size="14.00">issig_morphism</text>
</a>
</g>
<!-- Core_PreCategoryOfStructures_issig_morphism&#45;&gt;Core_PreCategoryOfStructures_Build_morphism -->
<g id="edge4" class="edge"><title>Core_PreCategoryOfStructures_issig_morphism&#45;&gt;Core_PreCategoryOfStructures_Build_morphism</title>
<path fill="none" stroke="black" d="M3269.91,-608.22C3300.45,-544.4 3401.05,-334.201 3437.59,-257.859"/>
<polygon fill="black" stroke="black" points="3440.95,-258.942 3442.11,-248.411 3434.64,-255.92 3440.95,-258.942"/>
</g>
<!-- Core_PreCategoryOfStructures_morphism_rec -->
<g id="node3" class="node"><title>Core_PreCategoryOfStructures_morphism_rec</title>
<a xlink:href="Core.html#PreCategoryOfStructures.morphism_rec" xlink:title="morphism_rec">
<ellipse fill="#f070d1" stroke="black" cx="3786" cy="-1065.84" rx="79.9031" ry="18.3848"/>
<ellipse fill="none" stroke="black" cx="3786" cy="-1065.84" rx="83.9031" ry="22.3848"/>
<ellipse fill="none" stroke="black" cx="3786" cy="-1065.84" rx="87.9031" ry="26.3848"/>
<text text-anchor="middle" x="3786" y="-1062.24" font-family="Times Roman,serif" font-size="14.00">morphism_rec</text>
</a>
</g>
<!-- Core_PreCategoryOfStructures_morphism_rect -->
<g id="node5" class="node"><title>Core_PreCategoryOfStructures_morphism_rect</title>
<a xlink:href="Core.html#PreCategoryOfStructures.morphism_rect" xlink:title="morphism_rect">
<ellipse fill="#f070d1" stroke="black" cx="3640" cy="-626.835" rx="84.1457" ry="18.3848"/>
<text text-anchor="middle" x="3640" y="-623.235" font-family="Times Roman,serif" font-size="14.00">morphism_rect</text>
</a>
</g>
<!-- Core_PreCategoryOfStructures_morphism_rec&#45;&gt;Core_PreCategoryOfStructures_morphism_rect -->
<g id="edge6" class="edge"><title>Core_PreCategoryOfStructures_morphism_rec&#45;&gt;Core_PreCategoryOfStructures_morphism_rect</title>
<path fill="none" stroke="black" d="M3777.2,-1039.36C3751.41,-961.834 3676.21,-735.712 3649.53,-655.48"/>
<polygon fill="black" stroke="black" points="3652.71,-653.967 3646.23,-645.583 3646.07,-656.176 3652.71,-653.967"/>
</g>
<!-- Core_PreCategoryOfStructures_morphism_ind -->
<g id="node4" class="node"><title>Core_PreCategoryOfStructures_morphism_ind</title>
<a xlink:href="Core.html#PreCategoryOfStructures.morphism_ind" xlink:title="morphism_ind">
<ellipse fill="#7fffd4" stroke="black" cx="3592" cy="-1065.84" rx="79.9031" ry="18.3848"/>
<ellipse fill="none" stroke="black" cx="3592" cy="-1065.84" rx="83.9031" ry="22.3848"/>
<ellipse fill="none" stroke="black" cx="3592" cy="-1065.84" rx="87.9031" ry="26.3848"/>
<text text-anchor="middle" x="3592" y="-1062.24" font-family="Times Roman,serif" font-size="14.00">morphism_ind</text>
</a>
</g>
<!-- Core_PreCategoryOfStructures_morphism_ind&#45;&gt;Core_PreCategoryOfStructures_morphism_rect -->
<g id="edge8" class="edge"><title>Core_PreCategoryOfStructures_morphism_ind&#45;&gt;Core_PreCategoryOfStructures_morphism_rect</title>
<path fill="none" stroke="black" d="M3594.93,-1039.03C3603.43,-961.338 3628.02,-736.404 3636.82,-655.911"/>
<polygon fill="black" stroke="black" points="3640.35,-655.863 3637.95,-645.542 3633.39,-655.102 3640.35,-655.863"/>
</g>
<!-- Core_PreCategoryOfStructures_morphism_rect&#45;&gt;Core_PreCategoryOfStructures_Build_morphism -->
<g id="edge10" class="edge"><title>Core_PreCategoryOfStructures_morphism_rect&#45;&gt;Core_PreCategoryOfStructures_Build_morphism</title>
<path fill="none" stroke="black" d="M3631.14,-608.22C3600.76,-544.4 3500.69,-334.201 3464.34,-257.859"/>
<polygon fill="black" stroke="black" points="3467.3,-255.935 3459.84,-248.411 3460.98,-258.944 3467.3,-255.935"/>
</g>
<!-- Core_PreCategoryOfStructures_h -->
<g id="node6" class="node"><title>Core_PreCategoryOfStructures_h</title>
<a xlink:href="Core.html#PreCategoryOfStructures.h" xlink:title="h">
<ellipse fill="#f070d1" stroke="black" cx="3451" cy="-1065.84" rx="27" ry="18.3848"/>
<ellipse fill="none" stroke="black" cx="3451" cy="-1065.84" rx="31" ry="22.3848"/>
<ellipse fill="none" stroke="black" cx="3451" cy="-1065.84" rx="35" ry="26.3848"/>
<text text-anchor="middle" x="3451" y="-1062.24" font-family="Times Roman,serif" font-size="14.00">h</text>
</a>
</g>
<!-- Core_PreCategoryOfStructures_f -->
<g id="node7" class="node"><title>Core_PreCategoryOfStructures_f</title>
<a xlink:href="Core.html#PreCategoryOfStructures.f" xlink:title="f">
<ellipse fill="#f070d1" stroke="black" cx="3363" cy="-1065.84" rx="27" ry="18.3848"/>
<ellipse fill="none" stroke="black" cx="3363" cy="-1065.84" rx="31" ry="22.3848"/>
<ellipse fill="none" stroke="black" cx="3363" cy="-1065.84" rx="35" ry="26.3848"/>
<text text-anchor="middle" x="3363" y="-1062.24" font-family="Times Roman,serif" font-size="14.00">f</text>
</a>
</g>
<!-- Core_PreCategoryOfStructures_morphism -->
<g id="node9" class="node"><title>Core_PreCategoryOfStructures_morphism</title>
<a xlink:href="Core.html#PreCategoryOfStructures.morphism" xlink:title="morphism">
<ellipse fill="#e2cdfa" stroke="black" cx="3243" cy="-1065.84" rx="58.957" ry="18.3848"/>
<ellipse fill="none" stroke="black" cx="3243" cy="-1065.84" rx="62.9274" ry="22.3848"/>
<ellipse fill="none" stroke="black" cx="3243" cy="-1065.84" rx="66.8977" ry="26.3848"/>
<text text-anchor="middle" x="3243" y="-1062.24" font-family="Times Roman,serif" font-size="14.00">morphism</text>
</a>
</g>
<!-- Core_precategory_of_structures -->
<g id="node10" class="node"><title>Core_precategory_of_structures</title>
<a xlink:href="Core.html#precategory_of_structures" xlink:title="precategory_of_structures">
<ellipse fill="#f070d1" stroke="black" cx="3735" cy="-1579.84" rx="138.828" ry="18.3848"/>
<ellipse fill="none" stroke="black" cx="3735" cy="-1579.84" rx="142.814" ry="22.3848"/>
<ellipse fill="none" stroke="black" cx="3735" cy="-1579.84" rx="146.801" ry="26.3848"/>
<text text-anchor="middle" x="3735" y="-1576.24" font-family="Times Roman,serif" font-size="14.00">precategory_of_structures</text>
</a>
</g>
<!-- Core_precategory_of_structures&#45;&gt;Core_PreCategoryOfStructures_issig_morphism -->
<g id="edge12" class="edge"><title>Core_precategory_of_structures&#45;&gt;Core_PreCategoryOfStructures_issig_morphism</title>
<path fill="none" stroke="black" d="M3631.86,-1560.94C3269.98,-1493.66 2074.26,-1262.5 1969,-1126.84 1945.02,-1095.93 1945.92,-1070.41 1969,-1038.84 2045.25,-934.491 2941.12,-706.06 3194.58,-643.154"/>
<polygon fill="black" stroke="black" points="3195.52,-646.525 3204.39,-640.722 3193.84,-639.731 3195.52,-646.525"/>
</g>
<!-- Core_precategory_of_structures_subproof1 -->
<g id="node11" class="node"><title>Core_precategory_of_structures_subproof1</title>
<a xlink:href="Core.html#precategory_of_structures_subproof1" xlink:title="precategory_of_structures_subproof1">
<ellipse fill="#facdef" stroke="black" cx="2171" cy="-1065.84" rx="193.04" ry="18.3848"/>
<text text-anchor="middle" x="2171" y="-1062.24" font-family="Times Roman,serif" font-size="14.00">precategory_of_structures_subproof1</text>
</a>
</g>
<!-- Core_precategory_of_structures&#45;&gt;Core_precategory_of_structures_subproof1 -->
<g id="edge14" class="edge"><title>Core_precategory_of_structures&#45;&gt;Core_precategory_of_structures_subproof1</title>
<path fill="none" stroke="black" d="M3664.25,-1556.58C3401.79,-1470.33 2486.17,-1169.41 2235.1,-1086.9"/>
<polygon fill="black" stroke="black" points="2235.99,-1083.51 2225.39,-1083.71 2233.8,-1090.16 2235.99,-1083.51"/>
</g>
<!-- Core_precategory_of_structures_subproof0 -->
<g id="node12" class="node"><title>Core_precategory_of_structures_subproof0</title>
<a xlink:href="Core.html#precategory_of_structures_subproof0" xlink:title="precategory_of_structures_subproof0">
<ellipse fill="#facdef" stroke="black" cx="2575" cy="-1065.84" rx="193.04" ry="18.3848"/>
<text text-anchor="middle" x="2575" y="-1062.24" font-family="Times Roman,serif" font-size="14.00">precategory_of_structures_subproof0</text>
</a>
</g>
<!-- Core_precategory_of_structures&#45;&gt;Core_precategory_of_structures_subproof0 -->
<g id="edge16" class="edge"><title>Core_precategory_of_structures&#45;&gt;Core_precategory_of_structures_subproof0</title>
<path fill="none" stroke="black" d="M3679.44,-1555.22C3481.77,-1467.63 2814.37,-1171.9 2625.3,-1088.12"/>
<polygon fill="black" stroke="black" points="2626.44,-1084.8 2615.88,-1083.95 2623.6,-1091.2 2626.44,-1084.8"/>
</g>
<!-- Core_precategory_of_structures_subproof -->
<g id="node13" class="node"><title>Core_precategory_of_structures_subproof</title>
<a xlink:href="Core.html#precategory_of_structures_subproof" xlink:title="precategory_of_structures_subproof">
<ellipse fill="#facdef" stroke="black" cx="2972" cy="-1065.84" rx="186.176" ry="18.3848"/>
<text text-anchor="middle" x="2972" y="-1062.24" font-family="Times Roman,serif" font-size="14.00">precategory_of_structures_subproof</text>
</a>
</g>
<!-- Core_precategory_of_structures&#45;&gt;Core_precategory_of_structures_subproof -->
<g id="edge18" class="edge"><title>Core_precategory_of_structures&#45;&gt;Core_precategory_of_structures_subproof</title>
<path fill="none" stroke="black" d="M3696.9,-1554.17C3566.05,-1466.02 3136.02,-1176.33 3008.16,-1090.2"/>
<polygon fill="black" stroke="black" points="3009.74,-1087.04 2999.49,-1084.35 3005.83,-1092.84 3009.74,-1087.04"/>
</g>
<!-- Core_precategory_of_structures_subproof1&#45;&gt;Core_PreCategoryOfStructures_path_morphism -->
<g id="edge20" class="edge"><title>Core_precategory_of_structures_subproof1&#45;&gt;Core_PreCategoryOfStructures_path_morphism</title>
<path fill="none" stroke="black" d="M2223.16,-1047.95C2428.99,-977.354 3183.82,-718.471 3395.49,-645.875"/>
<polygon fill="black" stroke="black" points="3396.83,-649.115 3405.15,-642.56 3394.55,-642.494 3396.83,-649.115"/>
</g>
<!-- Core_precategory_of_structures_subproof0&#45;&gt;Core_PreCategoryOfStructures_path_morphism -->
<g id="edge22" class="edge"><title>Core_precategory_of_structures_subproof0&#45;&gt;Core_PreCategoryOfStructures_path_morphism</title>
<path fill="none" stroke="black" d="M2611.53,-1047.53C2751.87,-977.197 3256.19,-724.465 3407.67,-648.549"/>
<polygon fill="black" stroke="black" points="3409.34,-651.626 3416.72,-644.017 3406.21,-645.368 3409.34,-651.626"/>
</g>
<!-- Core_precategory_of_structures_subproof&#45;&gt;Core_PreCategoryOfStructures_path_morphism -->
<g id="edge24" class="edge"><title>Core_precategory_of_structures_subproof&#45;&gt;Core_PreCategoryOfStructures_path_morphism</title>
<path fill="none" stroke="black" d="M2992.28,-1047.25C3068.34,-977.54 3336.79,-731.512 3423.66,-651.896"/>
<polygon fill="black" stroke="black" points="3426.24,-654.273 3431.25,-644.936 3421.51,-649.112 3426.24,-654.273"/>
</g>
<!-- Core_istrunc_homomorphism_standard_notion_of_structure -->
<g id="node14" class="node"><title>Core_istrunc_homomorphism_standard_notion_of_structure</title>
<a xlink:href="Core.html#istrunc_homomorphism_standard_notion_of_structure" xlink:title="istrunc_homomorphism_standard_notion_of_structure">
<ellipse fill="#f070d1" stroke="black" cx="3287" cy="-1579.84" rx="275.065" ry="18.3848"/>
<ellipse fill="none" stroke="black" cx="3287" cy="-1579.84" rx="279.065" ry="22.3848"/>
<ellipse fill="none" stroke="black" cx="3287" cy="-1579.84" rx="283.065" ry="26.3848"/>
<text text-anchor="middle" x="3287" y="-1576.24" font-family="Times Roman,serif" font-size="14.00">istrunc_homomorphism_standard_notion_of_structure</text>
</a>
</g>
<!-- Core_antisymmetry_structure -->
<g id="node15" class="node"><title>Core_antisymmetry_structure</title>
<a xlink:href="Core.html#antisymmetry_structure" xlink:title="antisymmetry_structure">
<ellipse fill="#f070d1" stroke="black" cx="1810" cy="-1065.84" rx="130.108" ry="18.3848"/>
<text text-anchor="middle" x="1810" y="-1062.24" font-family="Times Roman,serif" font-size="14.00">antisymmetry_structure</text>
</a>
</g>
<!-- Core_istrunc_homomorphism_standard_notion_of_structure&#45;&gt;Core_antisymmetry_structure -->
<g id="edge26" class="edge"><title>Core_istrunc_homomorphism_standard_notion_of_structure&#45;&gt;Core_antisymmetry_structure</title>
<path fill="none" stroke="black" d="M3205.5,-1554.43C2996.04,-1488.65 2422.5,-1305.4 1954,-1126.84 1922.11,-1114.68 1886.83,-1099.76 1859.17,-1087.72"/>
<polygon fill="black" stroke="black" points="1860.28,-1084.38 1849.72,-1083.59 1857.48,-1090.8 1860.28,-1084.38"/>
</g>
<!-- Core_IsStandardNotionOfStructure -->
<g id="node16" class="node"><title>Core_IsStandardNotionOfStructure</title>
<a xlink:href="Core.html#IsStandardNotionOfStructure" xlink:title="IsStandardNotionOfStructure">
<ellipse fill="#f070d1" stroke="black" cx="1824" cy="-626.835" rx="154.149" ry="18.3848"/>
<text text-anchor="middle" x="1824" y="-623.235" font-family="Times Roman,serif" font-size="14.00">IsStandardNotionOfStructure</text>
</a>
</g>
<!-- Core_antisymmetry_structure&#45;&gt;Core_IsStandardNotionOfStructure -->
<g id="edge28" class="edge"><title>Core_antisymmetry_structure&#45;&gt;Core_IsStandardNotionOfStructure</title>
<path fill="none" stroke="black" d="M1810.59,-1047.25C1812.78,-978.617 1820.42,-739.072 1823.08,-655.703"/>
<polygon fill="black" stroke="black" points="1826.58,-655.775 1823.4,-645.668 1819.58,-655.552 1826.58,-655.775"/>
</g>
<!-- Core_preorder_is_structure_homomorphism -->
<g id="node17" class="node"><title>Core_preorder_is_structure_homomorphism</title>
<a xlink:href="Core.html#preorder_is_structure_homomorphism" xlink:title="preorder_is_structure_homomorphism">
<ellipse fill="#f070d1" stroke="black" cx="2782" cy="-1579.84" rx="196.095" ry="18.3848"/>
<ellipse fill="none" stroke="black" cx="2782" cy="-1579.84" rx="200.085" ry="22.3848"/>
<ellipse fill="none" stroke="black" cx="2782" cy="-1579.84" rx="204.076" ry="26.3848"/>
<text text-anchor="middle" x="2782" y="-1576.24" font-family="Times Roman,serif" font-size="14.00">preorder_is_structure_homomorphism</text>
</a>
</g>
<!-- Core_NotionOfStructure_rec -->
<g id="node18" class="node"><title>Core_NotionOfStructure_rec</title>
<a xlink:href="Core.html#NotionOfStructure_rec" xlink:title="NotionOfStructure_rec">
<ellipse fill="#f070d1" stroke="black" cx="2430" cy="-1579.84" rx="121.861" ry="18.3848"/>
<ellipse fill="none" stroke="black" cx="2430" cy="-1579.84" rx="125.845" ry="22.3848"/>
<ellipse fill="none" stroke="black" cx="2430" cy="-1579.84" rx="129.83" ry="26.3848"/>
<text text-anchor="middle" x="2430" y="-1576.24" font-family="Times Roman,serif" font-size="14.00">NotionOfStructure_rec</text>
</a>
</g>
<!-- Core_NotionOfStructure_rect -->
<g id="node20" class="node"><title>Core_NotionOfStructure_rect</title>
<a xlink:href="Core.html#NotionOfStructure_rect" xlink:title="NotionOfStructure_rect">
<ellipse fill="#f070d1" stroke="black" cx="1536" cy="-1065.84" rx="126.072" ry="18.3848"/>
<text text-anchor="middle" x="1536" y="-1062.24" font-family="Times Roman,serif" font-size="14.00">NotionOfStructure_rect</text>
</a>
</g>
<!-- Core_NotionOfStructure_rec&#45;&gt;Core_NotionOfStructure_rect -->
<g id="edge30" class="edge"><title>Core_NotionOfStructure_rec&#45;&gt;Core_NotionOfStructure_rect</title>
<path fill="none" stroke="black" d="M2386.28,-1554.7C2233.3,-1466.75 1723.47,-1173.62 1576.17,-1088.93"/>
<polygon fill="black" stroke="black" points="1577.82,-1085.84 1567.4,-1083.89 1574.33,-1091.91 1577.82,-1085.84"/>
</g>
<!-- Core_NotionOfStructure_ind -->
<g id="node19" class="node"><title>Core_NotionOfStructure_ind</title>
<a xlink:href="Core.html#NotionOfStructure_ind" xlink:title="NotionOfStructure_ind">
<ellipse fill="#7fffd4" stroke="black" cx="2152" cy="-1579.84" rx="121.861" ry="18.3848"/>
<ellipse fill="none" stroke="black" cx="2152" cy="-1579.84" rx="125.845" ry="22.3848"/>
<ellipse fill="none" stroke="black" cx="2152" cy="-1579.84" rx="129.83" ry="26.3848"/>
<text text-anchor="middle" x="2152" y="-1576.24" font-family="Times Roman,serif" font-size="14.00">NotionOfStructure_ind</text>
</a>
</g>
<!-- Core_NotionOfStructure_ind&#45;&gt;Core_NotionOfStructure_rect -->
<g id="edge32" class="edge"><title>Core_NotionOfStructure_ind&#45;&gt;Core_NotionOfStructure_rect</title>
<path fill="none" stroke="black" d="M2121.03,-1553.99C2015.32,-1465.79 1669.58,-1177.3 1565.75,-1090.66"/>
<polygon fill="black" stroke="black" points="1567.78,-1087.79 1557.86,-1084.07 1563.29,-1093.17 1567.78,-1087.79"/>
</g>
<!-- Core_Build_NotionOfStructure -->
<g id="node26" class="node"><title>Core_Build_NotionOfStructure</title>
<a xlink:href="Core.html#Build_NotionOfStructure" xlink:title="Build_NotionOfStructure">
<ellipse fill="#7faaff" stroke="black" cx="1521" cy="-626.835" rx="131.022" ry="18.3848"/>
<text text-anchor="middle" x="1521" y="-623.235" font-family="Times Roman,serif" font-size="14.00">Build_NotionOfStructure</text>
</a>
</g>
<!-- Core_NotionOfStructure_rect&#45;&gt;Core_Build_NotionOfStructure -->
<g id="edge34" class="edge"><title>Core_NotionOfStructure_rect&#45;&gt;Core_Build_NotionOfStructure</title>
<path fill="none" stroke="black" d="M1535.37,-1047.25C1533.02,-978.617 1524.83,-739.072 1521.99,-655.703"/>
<polygon fill="black" stroke="black" points="1525.48,-655.543 1521.64,-645.668 1518.49,-655.782 1525.48,-655.543"/>
</g>
<!-- Core_is_structure_homomorphism_composition -->
<g id="node21" class="node"><title>Core_is_structure_homomorphism_composition</title>
<a xlink:href="Core.html#is_structure_homomorphism_composition" xlink:title="is_structure_homomorphism_composition">
<ellipse fill="#f070d1" stroke="black" cx="1783" cy="-1579.84" rx="212.839" ry="18.3848"/>
<ellipse fill="none" stroke="black" cx="1783" cy="-1579.84" rx="216.839" ry="22.3848"/>
<ellipse fill="none" stroke="black" cx="1783" cy="-1579.84" rx="220.839" ry="26.3848"/>
<text text-anchor="middle" x="1783" y="-1576.24" font-family="Times Roman,serif" font-size="14.00">is_structure_homomorphism_composition</text>
</a>
</g>
<!-- Core_is_structure_homomorphism_identity -->
<g id="node22" class="node"><title>Core_is_structure_homomorphism_identity</title>
<a xlink:href="Core.html#is_structure_homomorphism_identity" xlink:title="is_structure_homomorphism_identity">
<ellipse fill="#f070d1" stroke="black" cx="1344" cy="-1579.84" rx="191.853" ry="18.3848"/>
<ellipse fill="none" stroke="black" cx="1344" cy="-1579.84" rx="195.843" ry="22.3848"/>
<ellipse fill="none" stroke="black" cx="1344" cy="-1579.84" rx="199.833" ry="26.3848"/>
<text text-anchor="middle" x="1344" y="-1576.24" font-family="Times Roman,serif" font-size="14.00">is_structure_homomorphism_identity</text>
</a>
</g>
<!-- Core_istrunc_is_structure_homomorphism -->
<g id="node23" class="node"><title>Core_istrunc_is_structure_homomorphism</title>
<a xlink:href="Core.html#istrunc_is_structure_homomorphism" xlink:title="istrunc_is_structure_homomorphism">
<ellipse fill="#f070d1" stroke="black" cx="930" cy="-1579.84" rx="188.09" ry="18.3848"/>
<ellipse fill="none" stroke="black" cx="930" cy="-1579.84" rx="192.09" ry="22.3848"/>
<ellipse fill="none" stroke="black" cx="930" cy="-1579.84" rx="196.09" ry="26.3848"/>
<text text-anchor="middle" x="930" y="-1576.24" font-family="Times Roman,serif" font-size="14.00">istrunc_is_structure_homomorphism</text>
</a>
</g>
<!-- Core_is_structure_homomorphism -->
<g id="node24" class="node"><title>Core_is_structure_homomorphism</title>
<a xlink:href="Core.html#is_structure_homomorphism" xlink:title="is_structure_homomorphism">
<ellipse fill="#f070d1" stroke="black" cx="558" cy="-1579.84" rx="149.907" ry="18.3848"/>
<ellipse fill="none" stroke="black" cx="558" cy="-1579.84" rx="153.907" ry="22.3848"/>
<ellipse fill="none" stroke="black" cx="558" cy="-1579.84" rx="157.907" ry="26.3848"/>
<text text-anchor="middle" x="558" y="-1576.24" font-family="Times Roman,serif" font-size="14.00">is_structure_homomorphism</text>
</a>
</g>
<!-- Core_structure -->
<g id="node25" class="node"><title>Core_structure</title>
<a xlink:href="Core.html#structure" xlink:title="structure">
<ellipse fill="#f070d1" stroke="black" cx="318" cy="-1579.84" rx="56.13" ry="18.3848"/>
<ellipse fill="none" stroke="black" cx="318" cy="-1579.84" rx="60.099" ry="22.3848"/>
<ellipse fill="none" stroke="black" cx="318" cy="-1579.84" rx="64.068" ry="26.3848"/>
<text text-anchor="middle" x="318" y="-1576.24" font-family="Times Roman,serif" font-size="14.00">structure</text>
</a>
</g>
<!-- Core_NotionOfStructure -->
<g id="node27" class="node"><title>Core_NotionOfStructure</title>
<a xlink:href="Core.html#NotionOfStructure" xlink:title="NotionOfStructure">
<ellipse fill="#e2cdfa" stroke="black" cx="126" cy="-1579.84" rx="101.823" ry="18.3848"/>
<ellipse fill="none" stroke="black" cx="126" cy="-1579.84" rx="105.823" ry="22.3848"/>
<ellipse fill="none" stroke="black" cx="126" cy="-1579.84" rx="109.823" ry="26.3848"/>
<text text-anchor="middle" x="126" y="-1576.24" font-family="Times Roman,serif" font-size="14.00">NotionOfStructure</text>
</a>
</g>
</g>
</svg>
