<?xml version="1.0" encoding="UTF-8" standalone="no"?>
<!DOCTYPE svg PUBLIC "-//W3C//DTD SVG 1.1//EN"
 "http://www.w3.org/Graphics/SVG/1.1/DTD/svg11.dtd">
<!-- Generated by graphviz version 2.39.20141222.0545 (20141222.0545)
 -->
<!-- Title: HoTT_categories_Grothendieck Pages: 1 -->
<svg width="3298pt" height="1653pt"
 viewBox="0.00 0.00 3298.00 1653.00" xmlns="http://www.w3.org/2000/svg" xmlns:xlink="http://www.w3.org/1999/xlink">
<g id="graph0" class="graph" transform="scale(1 1) rotate(0) translate(4 1649)">
<title>HoTT_categories_Grothendieck</title>
<polygon fill="white" stroke="transparent" points="-4,4 -4,-1649 3294,-1649 3294,4 -4,4"/>
<g id="clust1" class="cluster"><title>cluster_PseudofunctorToCat</title>
<polygon fill="#ffffc3" stroke="black" points="2306,-254.545 2306,-1231.36 3282,-1231.36 3282,-254.545 2306,-254.545"/>
<text text-anchor="middle" x="2370" y="-1216.16" font-family="Times,serif" font-size="14.00">PseudofunctorToCat</text>
</g>
<g id="clust2" class="cluster"><title>cluster_Univalent</title>
<polygon fill="#ffffc3" stroke="black" points="8,-967.273 8,-1546.36 321,-1546.36 321,-967.273 8,-967.273"/>
<text text-anchor="middle" x="43" y="-1531.16" font-family="Times,serif" font-size="14.00">Univalent</text>
</g>
<g id="clust3" class="cluster"><title>cluster_ToCat</title>
<polygon fill="#ffffc3" stroke="black" points="2826,-1256.82 2826,-1546.36 3028,-1546.36 3028,-1256.82 2826,-1256.82"/>
<text text-anchor="middle" x="2851" y="-1531.16" font-family="Times,serif" font-size="14.00">ToCat</text>
</g>
<g id="clust4" class="cluster"><title>cluster_ToSet</title>
<polygon fill="#ffffc3" stroke="black" points="1361,-483.636 1361,-1619.55 2298,-1619.55 2298,-483.636 1361,-483.636"/>
<text text-anchor="middle" x="1385.5" y="-1604.35" font-family="Times,serif" font-size="14.00">ToSet</text>
</g>
<g id="clust5" class="cluster"><title>cluster_ToSet_Core</title>
<polygon fill="#ffffa3" stroke="black" points="1757,-1282.27 1757,-1520.91 1857,-1520.91 1857,-1282.27 1757,-1282.27"/>
<text text-anchor="middle" x="1778.5" y="-1505.71" font-family="Times,serif" font-size="14.00">Core</text>
</g>
<g id="clust6" class="cluster"><title>cluster_Morphisms</title>
<polygon fill="#ffffc3" stroke="black" points="329,-967.273 329,-1205.91 641,-1205.91 641,-967.273 329,-967.273"/>
<text text-anchor="middle" x="369" y="-1190.71" font-family="Times,serif" font-size="14.00">Morphisms</text>
</g>
<g id="clust7" class="cluster"><title>cluster_Core</title>
<polygon fill="#ffffc3" stroke="black" points="649,-25.4545 649,-1231.36 1353,-1231.36 1353,-25.4545 649,-25.4545"/>
<text text-anchor="middle" x="670.5" y="-1216.16" font-family="Times,serif" font-size="14.00">Core</text>
</g>
<!-- Univalent_preservation -->
<g id="node1" class="node"><title>Univalent_preservation</title>
<g id="a_node1"><a xlink:href="Univalent.html#preservation" xlink:title="preservation">
<ellipse fill="#f070d1" stroke="black" cx="78" cy="-1365.45" rx="53.8975" ry="18"/>
<ellipse fill="none" stroke="black" cx="78" cy="-1365.45" rx="57.894" ry="22"/>
<ellipse fill="none" stroke="black" cx="78" cy="-1365.45" rx="61.8905" ry="26"/>
<text text-anchor="middle" x="78" y="-1361.75" font-family="Times,serif" font-size="14.00">preservation</text>
</a>
</g>
</g>
<!-- Core_category -->
<g id="node42" class="node"><title>Core_category</title>
<g id="a_node42"><a xlink:href="Core.html#category" xlink:title="category">
<ellipse fill="#f070d1" stroke="black" cx="1077" cy="-795.455" rx="40.8928" ry="18"/>
<text text-anchor="middle" x="1077" y="-791.755" font-family="Times,serif" font-size="14.00">category</text>
</a>
</g>
</g>
<!-- Univalent_preservation&#45;&gt;Core_category -->
<g id="edge1" class="edge"><title>Univalent_preservation&#45;&gt;Core_category</title>
<path fill="none" stroke="black" d="M71.5175,-1339.32C57.6114,-1276.44 32.2791,-1115.18 112,-1024.45 385.476,-713.228 620.383,-922.806 1020,-813.455 1024.64,-812.186 1029.46,-810.787 1034.25,-809.347"/>
<polygon fill="black" stroke="black" points="1035.44,-812.643 1043.97,-806.361 1033.39,-805.952 1035.44,-812.643"/>
</g>
<!-- Univalent_category_isotoid -->
<g id="node2" class="node"><title>Univalent_category_isotoid</title>
<g id="a_node2"><a xlink:href="Univalent.html#category_isotoid" xlink:title="category_isotoid">
<ellipse fill="#f070d1" stroke="black" cx="235" cy="-1365.45" rx="69.5832" ry="18"/>
<ellipse fill="none" stroke="black" cx="235" cy="-1365.45" rx="73.5854" ry="22"/>
<ellipse fill="none" stroke="black" cx="235" cy="-1365.45" rx="77.5877" ry="26"/>
<text text-anchor="middle" x="235" y="-1361.75" font-family="Times,serif" font-size="14.00">category_isotoid</text>
</a>
</g>
</g>
<!-- Univalent_category_isotoid_helper -->
<g id="node3" class="node"><title>Univalent_category_isotoid_helper</title>
<g id="a_node3"><a xlink:href="Univalent.html#category_isotoid_helper" xlink:title="category_isotoid_helper">
<ellipse fill="#f070d1" stroke="black" cx="217" cy="-1050.45" rx="95.5831" ry="18"/>
<text text-anchor="middle" x="217" y="-1046.75" font-family="Times,serif" font-size="14.00">category_isotoid_helper</text>
</a>
</g>
</g>
<!-- Univalent_category_isotoid&#45;&gt;Univalent_category_isotoid_helper -->
<g id="edge2" class="edge"><title>Univalent_category_isotoid&#45;&gt;Univalent_category_isotoid_helper</title>
<path fill="none" stroke="black" d="M233.512,-1339.41C230.166,-1280.87 222.076,-1139.28 218.615,-1078.71"/>
<polygon fill="black" stroke="black" points="222.108,-1078.5 218.043,-1068.71 215.12,-1078.9 222.108,-1078.5"/>
</g>
<!-- Morphisms_isequiv_sigma_category_isomorphism -->
<g id="node40" class="node"><title>Morphisms_isequiv_sigma_category_isomorphism</title>
<g id="a_node40"><a xlink:href="Morphisms.html#isequiv_sigma_category_isomorphism" xlink:title="isequiv_sigma_category_isomorphism">
<ellipse fill="#f070d1" stroke="black" cx="485" cy="-1050.45" rx="147.574" ry="18"/>
<text text-anchor="middle" x="485" y="-1046.75" font-family="Times,serif" font-size="14.00">isequiv_sigma_category_isomorphism</text>
</a>
</g>
</g>
<!-- Univalent_category_isotoid&#45;&gt;Morphisms_isequiv_sigma_category_isomorphism -->
<g id="edge3" class="edge"><title>Univalent_category_isotoid&#45;&gt;Morphisms_isequiv_sigma_category_isomorphism</title>
<path fill="none" stroke="black" d="M255.036,-1340.21C301.64,-1281.49 416.942,-1136.21 464.244,-1076.61"/>
<polygon fill="black" stroke="black" points="467.238,-1078.46 470.714,-1068.46 461.755,-1074.11 467.238,-1078.46"/>
</g>
<!-- Core_issig_pair -->
<g id="node50" class="node"><title>Core_issig_pair</title>
<g id="a_node50"><a xlink:href="Core.html#issig_pair" xlink:title="issig_pair">
<ellipse fill="#f070d1" stroke="black" cx="718" cy="-795.455" rx="44.6926" ry="18"/>
<text text-anchor="middle" x="718" y="-791.755" font-family="Times,serif" font-size="14.00">issig_pair</text>
</a>
</g>
</g>
<!-- Univalent_category_isotoid&#45;&gt;Core_issig_pair -->
<g id="edge4" class="edge"><title>Univalent_category_isotoid&#45;&gt;Core_issig_pair</title>
<path fill="none" stroke="black" d="M211.242,-1340.3C158.089,-1280.89 39.7204,-1129.04 112,-1024.45 178.45,-928.307 536.426,-837.339 668.775,-806.512"/>
<polygon fill="black" stroke="black" points="669.697,-809.892 678.651,-804.227 668.119,-803.072 669.697,-809.892"/>
</g>
<!-- ToSet_pr1 -->
<g id="node4" class="node"><title>ToSet_pr1</title>
<g id="a_node4"><a xlink:href="ToSet.html#pr1" xlink:title="pr1">
<ellipse fill="#f070d1" stroke="black" cx="2255" cy="-1365.45" rx="27" ry="18"/>
<ellipse fill="none" stroke="black" cx="2255" cy="-1365.45" rx="31" ry="22"/>
<ellipse fill="none" stroke="black" cx="2255" cy="-1365.45" rx="35" ry="26"/>
<text text-anchor="middle" x="2255" y="-1361.75" font-family="Times,serif" font-size="14.00">pr1</text>
</a>
</g>
</g>
<!-- ToSet_category -->
<g id="node5" class="node"><title>ToSet_category</title>
<g id="a_node5"><a xlink:href="ToSet.html#category" xlink:title="category">
<ellipse fill="#f070d1" stroke="black" cx="2039" cy="-1050.45" rx="40.8928" ry="18"/>
<text text-anchor="middle" x="2039" y="-1046.75" font-family="Times,serif" font-size="14.00">category</text>
</a>
</g>
</g>
<!-- ToSet_pr1&#45;&gt;ToSet_category -->
<g id="edge5" class="edge"><title>ToSet_pr1&#45;&gt;ToSet_category</title>
<path fill="none" stroke="black" d="M2238.94,-1342.04C2199.51,-1284.53 2098.14,-1136.71 2056.88,-1076.53"/>
<polygon fill="black" stroke="black" points="2059.56,-1074.24 2051.02,-1067.98 2053.78,-1078.2 2059.56,-1074.24"/>
</g>
<!-- ToSet_category_subproof1 -->
<g id="node6" class="node"><title>ToSet_category_subproof1</title>
<g id="a_node6"><a xlink:href="ToSet.html#category_subproof1" xlink:title="category_subproof1">
<ellipse fill="#f070d1" stroke="black" cx="1730" cy="-795.455" rx="81.4863" ry="18"/>
<text text-anchor="middle" x="1730" y="-791.755" font-family="Times,serif" font-size="14.00">category_subproof1</text>
</a>
</g>
</g>
<!-- ToSet_category&#45;&gt;ToSet_category_subproof1 -->
<g id="edge6" class="edge"><title>ToSet_category&#45;&gt;ToSet_category_subproof1</title>
<path fill="none" stroke="black" d="M2019.67,-1034.5C1967.2,-991.198 1821.83,-871.233 1759.26,-819.6"/>
<polygon fill="black" stroke="black" points="1761.29,-816.737 1751.35,-813.071 1756.83,-822.136 1761.29,-816.737"/>
</g>
<!-- ToSet_category_subproof0 -->
<g id="node7" class="node"><title>ToSet_category_subproof0</title>
<g id="a_node7"><a xlink:href="ToSet.html#category_subproof0" xlink:title="category_subproof0">
<ellipse fill="#f070d1" stroke="black" cx="1910" cy="-795.455" rx="81.4863" ry="18"/>
<text text-anchor="middle" x="1910" y="-791.755" font-family="Times,serif" font-size="14.00">category_subproof0</text>
</a>
</g>
</g>
<!-- ToSet_category&#45;&gt;ToSet_category_subproof0 -->
<g id="edge7" class="edge"><title>ToSet_category&#45;&gt;ToSet_category_subproof0</title>
<path fill="none" stroke="black" d="M2029.93,-1032.52C2007.63,-988.447 1950.04,-874.605 1923.62,-822.371"/>
<polygon fill="black" stroke="black" points="1926.7,-820.709 1919.06,-813.366 1920.45,-823.869 1926.7,-820.709"/>
</g>
<!-- ToSet_category_subproof -->
<g id="node8" class="node"><title>ToSet_category_subproof</title>
<g id="a_node8"><a xlink:href="ToSet.html#category_subproof" xlink:title="category_subproof">
<ellipse fill="#f070d1" stroke="black" cx="1554" cy="-795.455" rx="76.8869" ry="18"/>
<text text-anchor="middle" x="1554" y="-791.755" font-family="Times,serif" font-size="14.00">category_subproof</text>
</a>
</g>
</g>
<!-- ToSet_category&#45;&gt;ToSet_category_subproof -->
<g id="edge8" class="edge"><title>ToSet_category&#45;&gt;ToSet_category_subproof</title>
<path fill="none" stroke="black" d="M2012.58,-1036.56C1932.25,-994.327 1690.53,-867.238 1594.23,-816.607"/>
<polygon fill="black" stroke="black" points="1595.86,-813.507 1585.38,-811.951 1592.6,-819.703 1595.86,-813.507"/>
</g>
<!-- ToSet_identity -->
<g id="node9" class="node"><title>ToSet_identity</title>
<g id="a_node9"><a xlink:href="ToSet.html#identity" xlink:title="identity">
<ellipse fill="#f070d1" stroke="black" cx="2047" cy="-795.455" rx="37.8943" ry="18"/>
<text text-anchor="middle" x="2047" y="-791.755" font-family="Times,serif" font-size="14.00">identity</text>
</a>
</g>
</g>
<!-- ToSet_category&#45;&gt;ToSet_identity -->
<g id="edge9" class="edge"><title>ToSet_category&#45;&gt;ToSet_identity</title>
<path fill="none" stroke="black" d="M2039.58,-1032.12C2040.95,-988.191 2044.45,-876.697 2046.11,-823.947"/>
<polygon fill="black" stroke="black" points="2049.61,-823.732 2046.43,-813.627 2042.62,-823.513 2049.61,-823.732"/>
</g>
<!-- ToSet_compose -->
<g id="node11" class="node"><title>ToSet_compose</title>
<g id="a_node11"><a xlink:href="ToSet.html#compose" xlink:title="compose">
<ellipse fill="#f070d1" stroke="black" cx="2155" cy="-795.455" rx="42.4939" ry="18"/>
<text text-anchor="middle" x="2155" y="-791.755" font-family="Times,serif" font-size="14.00">compose</text>
</a>
</g>
</g>
<!-- ToSet_category&#45;&gt;ToSet_compose -->
<g id="edge10" class="edge"><title>ToSet_category&#45;&gt;ToSet_compose</title>
<path fill="none" stroke="black" d="M2047.16,-1032.52C2067.17,-988.538 2118.78,-875.077 2142.61,-822.697"/>
<polygon fill="black" stroke="black" points="2145.9,-823.918 2146.85,-813.366 2139.53,-821.019 2145.9,-823.918"/>
</g>
<!-- Core_category_subproof1 -->
<g id="node43" class="node"><title>Core_category_subproof1</title>
<g id="a_node43"><a xlink:href="Core.html#category_subproof1" xlink:title="category_subproof1">
<ellipse fill="#facdef" stroke="black" cx="1084" cy="-566.455" rx="81.4863" ry="18"/>
<text text-anchor="middle" x="1084" y="-562.755" font-family="Times,serif" font-size="14.00">category_subproof1</text>
</a>
</g>
</g>
<!-- ToSet_category_subproof1&#45;&gt;Core_category_subproof1 -->
<g id="edge11" class="edge"><title>ToSet_category_subproof1&#45;&gt;Core_category_subproof1</title>
<path fill="none" stroke="black" d="M1686.86,-780.163C1572.5,-739.624 1261.81,-629.485 1136.97,-585.233"/>
<polygon fill="black" stroke="black" points="1137.84,-581.828 1127.25,-581.785 1135.5,-588.425 1137.84,-581.828"/>
</g>
<!-- Core_category_subproof0 -->
<g id="node44" class="node"><title>Core_category_subproof0</title>
<g id="a_node44"><a xlink:href="Core.html#category_subproof0" xlink:title="category_subproof0">
<ellipse fill="#facdef" stroke="black" cx="1264" cy="-566.455" rx="81.4863" ry="18"/>
<text text-anchor="middle" x="1264" y="-562.755" font-family="Times,serif" font-size="14.00">category_subproof0</text>
</a>
</g>
</g>
<!-- ToSet_category_subproof0&#45;&gt;Core_category_subproof0 -->
<g id="edge12" class="edge"><title>ToSet_category_subproof0&#45;&gt;Core_category_subproof0</title>
<path fill="none" stroke="black" d="M1866.86,-780.163C1752.5,-739.624 1441.81,-629.485 1316.97,-585.233"/>
<polygon fill="black" stroke="black" points="1317.84,-581.828 1307.25,-581.785 1315.5,-588.425 1317.84,-581.828"/>
</g>
<!-- Core_category_subproof -->
<g id="node45" class="node"><title>Core_category_subproof</title>
<g id="a_node45"><a xlink:href="Core.html#category_subproof" xlink:title="category_subproof">
<ellipse fill="#facdef" stroke="black" cx="908" cy="-566.455" rx="76.8869" ry="18"/>
<text text-anchor="middle" x="908" y="-562.755" font-family="Times,serif" font-size="14.00">category_subproof</text>
</a>
</g>
</g>
<!-- ToSet_category_subproof&#45;&gt;Core_category_subproof -->
<g id="edge13" class="edge"><title>ToSet_category_subproof&#45;&gt;Core_category_subproof</title>
<path fill="none" stroke="black" d="M1511.61,-780.429C1397.65,-740.03 1084.87,-629.152 960.245,-584.975"/>
<polygon fill="black" stroke="black" points="961.137,-581.578 950.542,-581.535 958.798,-588.175 961.137,-581.578"/>
</g>
<!-- ToSet_identity_H -->
<g id="node10" class="node"><title>ToSet_identity_H</title>
<g id="a_node10"><a xlink:href="ToSet.html#identity_H" xlink:title="identity_H">
<ellipse fill="#f070d1" stroke="black" cx="2041" cy="-566.455" rx="48.1917" ry="18"/>
<text text-anchor="middle" x="2041" y="-562.755" font-family="Times,serif" font-size="14.00">identity_H</text>
</a>
</g>
</g>
<!-- ToSet_identity&#45;&gt;ToSet_identity_H -->
<g id="edge14" class="edge"><title>ToSet_identity&#45;&gt;ToSet_identity_H</title>
<path fill="none" stroke="black" d="M2046.52,-777.102C2045.47,-737.223 2042.99,-642.433 2041.74,-594.801"/>
<polygon fill="black" stroke="black" points="2045.24,-594.482 2041.47,-584.577 2038.24,-594.665 2045.24,-594.482"/>
</g>
<!-- ToSet_compose_H -->
<g id="node12" class="node"><title>ToSet_compose_H</title>
<g id="a_node12"><a xlink:href="ToSet.html#compose_H" xlink:title="compose_H">
<ellipse fill="#f070d1" stroke="black" cx="2160" cy="-566.455" rx="53.0913" ry="18"/>
<text text-anchor="middle" x="2160" y="-562.755" font-family="Times,serif" font-size="14.00">compose_H</text>
</a>
</g>
</g>
<!-- ToSet_compose&#45;&gt;ToSet_compose_H -->
<g id="edge15" class="edge"><title>ToSet_compose&#45;&gt;ToSet_compose_H</title>
<path fill="none" stroke="black" d="M2155.4,-777.102C2156.27,-737.223 2158.34,-642.433 2159.38,-594.801"/>
<polygon fill="black" stroke="black" points="2162.89,-594.651 2159.6,-584.577 2155.89,-594.498 2162.89,-594.651"/>
</g>
<!-- ToSet_issig_pair -->
<g id="node13" class="node"><title>ToSet_issig_pair</title>
<g id="a_node13"><a xlink:href="ToSet.html#issig_pair" xlink:title="issig_pair">
<ellipse fill="#f070d1" stroke="black" cx="2035" cy="-1365.45" rx="44.7157" ry="18"/>
<ellipse fill="none" stroke="black" cx="2035" cy="-1365.45" rx="48.7041" ry="22"/>
<ellipse fill="none" stroke="black" cx="2035" cy="-1365.45" rx="52.6925" ry="26"/>
<text text-anchor="middle" x="2035" y="-1361.75" font-family="Times,serif" font-size="14.00">issig_pair</text>
</a>
</g>
</g>
<!-- ToSet_Pair_rec -->
<g id="node14" class="node"><title>ToSet_Pair_rec</title>
<g id="a_node14"><a xlink:href="ToSet.html#Pair_rec" xlink:title="Pair_rec">
<ellipse fill="#f070d1" stroke="black" cx="1916" cy="-1365.45" rx="40.1273" ry="18"/>
<ellipse fill="none" stroke="black" cx="1916" cy="-1365.45" rx="44.1105" ry="22"/>
<ellipse fill="none" stroke="black" cx="1916" cy="-1365.45" rx="48.0937" ry="26"/>
<text text-anchor="middle" x="1916" y="-1361.75" font-family="Times,serif" font-size="14.00">Pair_rec</text>
</a>
</g>
</g>
<!-- ToSet_Pair_rect -->
<g id="node16" class="node"><title>ToSet_Pair_rect</title>
<g id="a_node16"><a xlink:href="ToSet.html#Pair_rect" xlink:title="Pair_rect">
<ellipse fill="#f070d1" stroke="black" cx="1923" cy="-1050.45" rx="42.4939" ry="18"/>
<text text-anchor="middle" x="1923" y="-1046.75" font-family="Times,serif" font-size="14.00">Pair_rect</text>
</a>
</g>
</g>
<!-- ToSet_Pair_rec&#45;&gt;ToSet_Pair_rect -->
<g id="edge16" class="edge"><title>ToSet_Pair_rec&#45;&gt;ToSet_Pair_rect</title>
<path fill="none" stroke="black" d="M1916.58,-1339.41C1917.88,-1280.87 1921.03,-1139.28 1922.37,-1078.71"/>
<polygon fill="black" stroke="black" points="1925.87,-1078.79 1922.59,-1068.71 1918.87,-1078.63 1925.87,-1078.79"/>
</g>
<!-- ToSet_Pair_ind -->
<g id="node15" class="node"><title>ToSet_Pair_ind</title>
<g id="a_node15"><a xlink:href="ToSet.html#Pair_ind" xlink:title="Pair_ind">
<ellipse fill="#7fffd4" stroke="black" cx="2154" cy="-1365.45" rx="40.1273" ry="18"/>
<ellipse fill="none" stroke="black" cx="2154" cy="-1365.45" rx="44.1105" ry="22"/>
<ellipse fill="none" stroke="black" cx="2154" cy="-1365.45" rx="48.0937" ry="26"/>
<text text-anchor="middle" x="2154" y="-1361.75" font-family="Times,serif" font-size="14.00">Pair_ind</text>
</a>
</g>
</g>
<!-- ToSet_Pair_ind&#45;&gt;ToSet_Pair_rect -->
<g id="edge17" class="edge"><title>ToSet_Pair_ind&#45;&gt;ToSet_Pair_rect</title>
<path fill="none" stroke="black" d="M2136.26,-1341.26C2093.56,-1283.04 1985.41,-1135.55 1941.73,-1075.99"/>
<polygon fill="black" stroke="black" points="1944.5,-1073.85 1935.76,-1067.86 1938.86,-1077.99 1944.5,-1073.85"/>
</g>
<!-- ToSet_x -->
<g id="node17" class="node"><title>ToSet_x</title>
<g id="a_node17"><a xlink:href="ToSet.html#x" xlink:title="x">
<ellipse fill="#f070d1" stroke="black" cx="1712" cy="-1365.45" rx="27" ry="18"/>
<ellipse fill="none" stroke="black" cx="1712" cy="-1365.45" rx="31" ry="22"/>
<ellipse fill="none" stroke="black" cx="1712" cy="-1365.45" rx="35" ry="26"/>
<text text-anchor="middle" x="1712" y="-1361.75" font-family="Times,serif" font-size="14.00">x</text>
</a>
</g>
</g>
<!-- ToSet_c -->
<g id="node18" class="node"><title>ToSet_c</title>
<g id="a_node18"><a xlink:href="ToSet.html#c" xlink:title="c">
<ellipse fill="#f070d1" stroke="black" cx="1624" cy="-1365.45" rx="27" ry="18"/>
<ellipse fill="none" stroke="black" cx="1624" cy="-1365.45" rx="31" ry="22"/>
<ellipse fill="none" stroke="black" cx="1624" cy="-1365.45" rx="35" ry="26"/>
<text text-anchor="middle" x="1624" y="-1361.75" font-family="Times,serif" font-size="14.00">c</text>
</a>
</g>
</g>
<!-- ToSet_Build_Pair -->
<g id="node19" class="node"><title>ToSet_Build_Pair</title>
<g id="a_node19"><a xlink:href="ToSet.html#Build_Pair" xlink:title="Build_Pair">
<ellipse fill="#7faaff" stroke="black" cx="1514" cy="-1365.45" rx="48.9576" ry="18"/>
<ellipse fill="none" stroke="black" cx="1514" cy="-1365.45" rx="52.975" ry="22"/>
<ellipse fill="none" stroke="black" cx="1514" cy="-1365.45" rx="56.9924" ry="26"/>
<text text-anchor="middle" x="1514" y="-1361.75" font-family="Times,serif" font-size="14.00">Build_Pair</text>
</a>
</g>
</g>
<!-- ToSet_Pair -->
<g id="node20" class="node"><title>ToSet_Pair</title>
<g id="a_node20"><a xlink:href="ToSet.html#Pair" xlink:title="Pair">
<ellipse fill="#e2cdfa" stroke="black" cx="1404" cy="-1365.45" rx="27" ry="18"/>
<ellipse fill="none" stroke="black" cx="1404" cy="-1365.45" rx="31" ry="22"/>
<ellipse fill="none" stroke="black" cx="1404" cy="-1365.45" rx="35" ry="26"/>
<text text-anchor="middle" x="1404" y="-1361.75" font-family="Times,serif" font-size="14.00">Pair</text>
</a>
</g>
</g>
<!-- ToCat_pr1 -->
<g id="node21" class="node"><title>ToCat_pr1</title>
<g id="a_node21"><a xlink:href="ToCat.html#pr1" xlink:title="pr1">
<ellipse fill="#f070d1" stroke="black" cx="2869" cy="-1365.45" rx="27" ry="18"/>
<ellipse fill="none" stroke="black" cx="2869" cy="-1365.45" rx="31" ry="22"/>
<ellipse fill="none" stroke="black" cx="2869" cy="-1365.45" rx="35" ry="26"/>
<text text-anchor="middle" x="2869" y="-1361.75" font-family="Times,serif" font-size="14.00">pr1</text>
</a>
</g>
</g>
<!-- PseudofunctorToCat_pr1 -->
<g id="node23" class="node"><title>PseudofunctorToCat_pr1</title>
<g id="a_node23"><a xlink:href="PseudofunctorToCat.html#pr1" xlink:title="pr1">
<ellipse fill="#f070d1" stroke="black" cx="2881" cy="-1050.45" rx="27" ry="18"/>
<text text-anchor="middle" x="2881" y="-1046.75" font-family="Times,serif" font-size="14.00">pr1</text>
</a>
</g>
</g>
<!-- ToCat_pr1&#45;&gt;PseudofunctorToCat_pr1 -->
<g id="edge18" class="edge"><title>ToCat_pr1&#45;&gt;PseudofunctorToCat_pr1</title>
<path fill="none" stroke="black" d="M2869.99,-1339.41C2872.22,-1280.87 2877.62,-1139.28 2879.92,-1078.71"/>
<polygon fill="black" stroke="black" points="2883.42,-1078.84 2880.3,-1068.71 2876.43,-1078.57 2883.42,-1078.84"/>
</g>
<!-- ToCat_category -->
<g id="node22" class="node"><title>ToCat_category</title>
<g id="a_node22"><a xlink:href="ToCat.html#category" xlink:title="category">
<ellipse fill="#f070d1" stroke="black" cx="2971" cy="-1365.45" rx="40.9015" ry="18"/>
<ellipse fill="none" stroke="black" cx="2971" cy="-1365.45" rx="44.8972" ry="22"/>
<ellipse fill="none" stroke="black" cx="2971" cy="-1365.45" rx="48.8928" ry="26"/>
<text text-anchor="middle" x="2971" y="-1361.75" font-family="Times,serif" font-size="14.00">category</text>
</a>
</g>
</g>
<!-- PseudofunctorToCat_category -->
<g id="node24" class="node"><title>PseudofunctorToCat_category</title>
<g id="a_node24"><a xlink:href="PseudofunctorToCat.html#category" xlink:title="category">
<ellipse fill="#f070d1" stroke="black" cx="2904" cy="-795.455" rx="40.8928" ry="18"/>
<text text-anchor="middle" x="2904" y="-791.755" font-family="Times,serif" font-size="14.00">category</text>
</a>
</g>
</g>
<!-- ToCat_category&#45;&gt;PseudofunctorToCat_category -->
<g id="edge19" class="edge"><title>ToCat_category&#45;&gt;PseudofunctorToCat_category</title>
<path fill="none" stroke="black" d="M2967.95,-1339.48C2956.87,-1245.23 2918.83,-921.619 2907.32,-823.73"/>
<polygon fill="black" stroke="black" points="2910.79,-823.219 2906.14,-813.696 2903.84,-824.037 2910.79,-823.219"/>
</g>
<!-- PseudofunctorToCat_pr1&#45;&gt;PseudofunctorToCat_category -->
<g id="edge20" class="edge"><title>PseudofunctorToCat_pr1&#45;&gt;PseudofunctorToCat_category</title>
<path fill="none" stroke="black" d="M2882.65,-1032.12C2886.62,-988.099 2896.71,-876.23 2901.46,-823.616"/>
<polygon fill="black" stroke="black" points="2904.95,-823.901 2902.36,-813.627 2897.98,-823.272 2904.95,-823.901"/>
</g>
<!-- PseudofunctorToCat_category_subproof1 -->
<g id="node25" class="node"><title>PseudofunctorToCat_category_subproof1</title>
<g id="a_node25"><a xlink:href="PseudofunctorToCat.html#category_subproof1" xlink:title="category_subproof1">
<ellipse fill="#facdef" stroke="black" cx="2724" cy="-566.455" rx="81.4863" ry="18"/>
<text text-anchor="middle" x="2724" y="-562.755" font-family="Times,serif" font-size="14.00">category_subproof1</text>
</a>
</g>
</g>
<!-- PseudofunctorToCat_category&#45;&gt;PseudofunctorToCat_category_subproof1 -->
<g id="edge21" class="edge"><title>PseudofunctorToCat_category&#45;&gt;PseudofunctorToCat_category_subproof1</title>
<path fill="none" stroke="black" d="M2890.47,-778.242C2859.16,-738.404 2781.54,-639.655 2744.41,-592.425"/>
<polygon fill="black" stroke="black" points="2747.11,-590.198 2738.18,-584.498 2741.61,-594.523 2747.11,-590.198"/>
</g>
<!-- PseudofunctorToCat_category_subproof0 -->
<g id="node26" class="node"><title>PseudofunctorToCat_category_subproof0</title>
<g id="a_node26"><a xlink:href="PseudofunctorToCat.html#category_subproof0" xlink:title="category_subproof0">
<ellipse fill="#facdef" stroke="black" cx="2904" cy="-566.455" rx="81.4863" ry="18"/>
<text text-anchor="middle" x="2904" y="-562.755" font-family="Times,serif" font-size="14.00">category_subproof0</text>
</a>
</g>
</g>
<!-- PseudofunctorToCat_category&#45;&gt;PseudofunctorToCat_category_subproof0 -->
<g id="edge22" class="edge"><title>PseudofunctorToCat_category&#45;&gt;PseudofunctorToCat_category_subproof0</title>
<path fill="none" stroke="black" d="M2904,-777.102C2904,-737.223 2904,-642.433 2904,-594.801"/>
<polygon fill="black" stroke="black" points="2907.5,-594.577 2904,-584.577 2900.5,-594.577 2907.5,-594.577"/>
</g>
<!-- PseudofunctorToCat_category_subproof -->
<g id="node27" class="node"><title>PseudofunctorToCat_category_subproof</title>
<g id="a_node27"><a xlink:href="PseudofunctorToCat.html#category_subproof" xlink:title="category_subproof">
<ellipse fill="#facdef" stroke="black" cx="3080" cy="-566.455" rx="76.8869" ry="18"/>
<text text-anchor="middle" x="3080" y="-562.755" font-family="Times,serif" font-size="14.00">category_subproof</text>
</a>
</g>
</g>
<!-- PseudofunctorToCat_category&#45;&gt;PseudofunctorToCat_category_subproof -->
<g id="edge23" class="edge"><title>PseudofunctorToCat_category&#45;&gt;PseudofunctorToCat_category_subproof</title>
<path fill="none" stroke="black" d="M2917.23,-778.242C2947.86,-738.388 3023.8,-639.578 3060.08,-592.37"/>
<polygon fill="black" stroke="black" points="3063.06,-594.243 3066.38,-584.181 3057.51,-589.977 3063.06,-594.243"/>
</g>
<!-- PseudofunctorToCat_identity -->
<g id="node31" class="node"><title>PseudofunctorToCat_identity</title>
<g id="a_node31"><a xlink:href="PseudofunctorToCat.html#identity" xlink:title="identity">
<ellipse fill="#f070d1" stroke="black" cx="3212" cy="-566.455" rx="37.8943" ry="18"/>
<text text-anchor="middle" x="3212" y="-562.755" font-family="Times,serif" font-size="14.00">identity</text>
</a>
</g>
</g>
<!-- PseudofunctorToCat_category&#45;&gt;PseudofunctorToCat_identity -->
<g id="edge24" class="edge"><title>PseudofunctorToCat_category&#45;&gt;PseudofunctorToCat_identity</title>
<path fill="none" stroke="black" d="M2925.17,-779.714C2979.17,-739.566 3122.08,-633.308 3183.4,-587.719"/>
<polygon fill="black" stroke="black" points="3185.56,-590.477 3191.49,-581.702 3181.38,-584.86 3185.56,-590.477"/>
</g>
<!-- PseudofunctorToCat_compose -->
<g id="node32" class="node"><title>PseudofunctorToCat_compose</title>
<g id="a_node32"><a xlink:href="PseudofunctorToCat.html#compose" xlink:title="compose">
<ellipse fill="#f070d1" stroke="black" cx="2583" cy="-566.455" rx="42.4939" ry="18"/>
<text text-anchor="middle" x="2583" y="-562.755" font-family="Times,serif" font-size="14.00">compose</text>
</a>
</g>
</g>
<!-- PseudofunctorToCat_category&#45;&gt;PseudofunctorToCat_compose -->
<g id="edge25" class="edge"><title>PseudofunctorToCat_category&#45;&gt;PseudofunctorToCat_compose</title>
<path fill="none" stroke="black" d="M2882.44,-780.074C2826.72,-740.326 2677.82,-634.1 2613.4,-588.142"/>
<polygon fill="black" stroke="black" points="2615.06,-585.028 2604.89,-582.07 2611,-590.727 2615.06,-585.028"/>
</g>
<!-- PseudofunctorToCat_pseudofunctor_to_cat_right_identity_helper -->
<g id="node28" class="node"><title>PseudofunctorToCat_pseudofunctor_to_cat_right_identity_helper</title>
<g id="a_node28"><a xlink:href="PseudofunctorToCat.html#pseudofunctor_to_cat_right_identity_helper" xlink:title="pseudofunctor_to_cat_right_identity_helper">
<ellipse fill="#facdef" stroke="black" cx="2479" cy="-337.455" rx="165.171" ry="18"/>
<text text-anchor="middle" x="2479" y="-333.755" font-family="Times,serif" font-size="14.00">pseudofunctor_to_cat_right_identity_helper</text>
</a>
</g>
</g>
<!-- PseudofunctorToCat_category_subproof1&#45;&gt;PseudofunctorToCat_pseudofunctor_to_cat_right_identity_helper -->
<g id="edge26" class="edge"><title>PseudofunctorToCat_category_subproof1&#45;&gt;PseudofunctorToCat_pseudofunctor_to_cat_right_identity_helper</title>
<path fill="none" stroke="black" d="M2705.18,-548.866C2662,-508.503 2555.68,-409.126 2505.73,-362.442"/>
<polygon fill="black" stroke="black" points="2507.92,-359.691 2498.22,-355.419 2503.14,-364.805 2507.92,-359.691"/>
</g>
<!-- PseudofunctorToCat_pseudofunctor_to_cat_left_identity_helper -->
<g id="node29" class="node"><title>PseudofunctorToCat_pseudofunctor_to_cat_left_identity_helper</title>
<g id="a_node29"><a xlink:href="PseudofunctorToCat.html#pseudofunctor_to_cat_left_identity_helper" xlink:title="pseudofunctor_to_cat_left_identity_helper">
<ellipse fill="#facdef" stroke="black" cx="2823" cy="-337.455" rx="160.572" ry="18"/>
<text text-anchor="middle" x="2823" y="-333.755" font-family="Times,serif" font-size="14.00">pseudofunctor_to_cat_left_identity_helper</text>
</a>
</g>
</g>
<!-- PseudofunctorToCat_category_subproof0&#45;&gt;PseudofunctorToCat_pseudofunctor_to_cat_left_identity_helper -->
<g id="edge27" class="edge"><title>PseudofunctorToCat_category_subproof0&#45;&gt;PseudofunctorToCat_pseudofunctor_to_cat_left_identity_helper</title>
<path fill="none" stroke="black" d="M2897.64,-548.485C2883.57,-508.702 2849.7,-412.947 2832.86,-365.322"/>
<polygon fill="black" stroke="black" points="2836.07,-363.918 2829.44,-355.657 2829.47,-366.252 2836.07,-363.918"/>
</g>
<!-- PseudofunctorToCat_pseudofunctor_to_cat_assoc_helper -->
<g id="node30" class="node"><title>PseudofunctorToCat_pseudofunctor_to_cat_assoc_helper</title>
<g id="a_node30"><a xlink:href="PseudofunctorToCat.html#pseudofunctor_to_cat_assoc_helper" xlink:title="pseudofunctor_to_cat_assoc_helper">
<ellipse fill="#facdef" stroke="black" cx="3138" cy="-337.455" rx="136.476" ry="18"/>
<text text-anchor="middle" x="3138" y="-333.755" font-family="Times,serif" font-size="14.00">pseudofunctor_to_cat_assoc_helper</text>
</a>
</g>
</g>
<!-- PseudofunctorToCat_category_subproof&#45;&gt;PseudofunctorToCat_pseudofunctor_to_cat_assoc_helper -->
<g id="edge28" class="edge"><title>PseudofunctorToCat_category_subproof&#45;&gt;PseudofunctorToCat_pseudofunctor_to_cat_assoc_helper</title>
<path fill="none" stroke="black" d="M3084.55,-548.485C3094.61,-508.785 3118.78,-413.348 3130.87,-365.622"/>
<polygon fill="black" stroke="black" points="3134.33,-366.21 3133.39,-355.657 3127.54,-364.492 3134.33,-366.21"/>
</g>
<!-- PseudofunctorToCat_Pair_rec -->
<g id="node33" class="node"><title>PseudofunctorToCat_Pair_rec</title>
<g id="a_node33"><a xlink:href="PseudofunctorToCat.html#Pair_rec" xlink:title="Pair_rec">
<ellipse fill="#f070d1" stroke="black" cx="2741" cy="-1050.45" rx="40.1273" ry="18"/>
<ellipse fill="none" stroke="black" cx="2741" cy="-1050.45" rx="44.1105" ry="22"/>
<ellipse fill="none" stroke="black" cx="2741" cy="-1050.45" rx="48.0937" ry="26"/>
<text text-anchor="middle" x="2741" y="-1046.75" font-family="Times,serif" font-size="14.00">Pair_rec</text>
</a>
</g>
</g>
<!-- PseudofunctorToCat_Pair_rect -->
<g id="node35" class="node"><title>PseudofunctorToCat_Pair_rect</title>
<g id="a_node35"><a xlink:href="PseudofunctorToCat.html#Pair_rect" xlink:title="Pair_rect">
<ellipse fill="#f070d1" stroke="black" cx="2626" cy="-795.455" rx="42.4939" ry="18"/>
<text text-anchor="middle" x="2626" y="-791.755" font-family="Times,serif" font-size="14.00">Pair_rect</text>
</a>
</g>
</g>
<!-- PseudofunctorToCat_Pair_rec&#45;&gt;PseudofunctorToCat_Pair_rect -->
<g id="edge29" class="edge"><title>PseudofunctorToCat_Pair_rec&#45;&gt;PseudofunctorToCat_Pair_rect</title>
<path fill="none" stroke="black" d="M2729.55,-1025.07C2707.77,-976.768 2660.54,-872.032 2638.19,-822.48"/>
<polygon fill="black" stroke="black" points="2641.37,-821.015 2634.07,-813.338 2634.99,-823.893 2641.37,-821.015"/>
</g>
<!-- PseudofunctorToCat_Pair_ind -->
<g id="node34" class="node"><title>PseudofunctorToCat_Pair_ind</title>
<g id="a_node34"><a xlink:href="PseudofunctorToCat.html#Pair_ind" xlink:title="Pair_ind">
<ellipse fill="#7fffd4" stroke="black" cx="2626" cy="-1050.45" rx="40.1273" ry="18"/>
<ellipse fill="none" stroke="black" cx="2626" cy="-1050.45" rx="44.1105" ry="22"/>
<ellipse fill="none" stroke="black" cx="2626" cy="-1050.45" rx="48.0937" ry="26"/>
<text text-anchor="middle" x="2626" y="-1046.75" font-family="Times,serif" font-size="14.00">Pair_ind</text>
</a>
</g>
</g>
<!-- PseudofunctorToCat_Pair_ind&#45;&gt;PseudofunctorToCat_Pair_rect -->
<g id="edge30" class="edge"><title>PseudofunctorToCat_Pair_ind&#45;&gt;PseudofunctorToCat_Pair_rect</title>
<path fill="none" stroke="black" d="M2626,-1024.13C2626,-975.757 2626,-873.172 2626,-823.53"/>
<polygon fill="black" stroke="black" points="2629.5,-823.5 2626,-813.5 2622.5,-823.5 2629.5,-823.5"/>
</g>
<!-- PseudofunctorToCat_Build_Pair -->
<g id="node38" class="node"><title>PseudofunctorToCat_Build_Pair</title>
<g id="a_node38"><a xlink:href="PseudofunctorToCat.html#Build_Pair" xlink:title="Build_Pair">
<ellipse fill="#7faaff" stroke="black" cx="2474" cy="-566.455" rx="48.9926" ry="18"/>
<text text-anchor="middle" x="2474" y="-562.755" font-family="Times,serif" font-size="14.00">Build_Pair</text>
</a>
</g>
</g>
<!-- PseudofunctorToCat_Pair_rect&#45;&gt;PseudofunctorToCat_Build_Pair -->
<g id="edge31" class="edge"><title>PseudofunctorToCat_Pair_rect&#45;&gt;PseudofunctorToCat_Build_Pair</title>
<path fill="none" stroke="black" d="M2614.33,-777.866C2587.74,-737.82 2522.61,-639.682 2491.32,-592.551"/>
<polygon fill="black" stroke="black" points="2494.16,-590.5 2485.71,-584.103 2488.33,-594.371 2494.16,-590.5"/>
</g>
<!-- PseudofunctorToCat_x -->
<g id="node36" class="node"><title>PseudofunctorToCat_x</title>
<g id="a_node36"><a xlink:href="PseudofunctorToCat.html#x" xlink:title="x">
<ellipse fill="#f070d1" stroke="black" cx="2525" cy="-1050.45" rx="27" ry="18"/>
<ellipse fill="none" stroke="black" cx="2525" cy="-1050.45" rx="31" ry="22"/>
<ellipse fill="none" stroke="black" cx="2525" cy="-1050.45" rx="35" ry="26"/>
<text text-anchor="middle" x="2525" y="-1046.75" font-family="Times,serif" font-size="14.00">x</text>
</a>
</g>
</g>
<!-- PseudofunctorToCat_c -->
<g id="node37" class="node"><title>PseudofunctorToCat_c</title>
<g id="a_node37"><a xlink:href="PseudofunctorToCat.html#c" xlink:title="c">
<ellipse fill="#f070d1" stroke="black" cx="2437" cy="-1050.45" rx="27" ry="18"/>
<ellipse fill="none" stroke="black" cx="2437" cy="-1050.45" rx="31" ry="22"/>
<ellipse fill="none" stroke="black" cx="2437" cy="-1050.45" rx="35" ry="26"/>
<text text-anchor="middle" x="2437" y="-1046.75" font-family="Times,serif" font-size="14.00">c</text>
</a>
</g>
</g>
<!-- PseudofunctorToCat_Pair -->
<g id="node39" class="node"><title>PseudofunctorToCat_Pair</title>
<g id="a_node39"><a xlink:href="PseudofunctorToCat.html#Pair" xlink:title="Pair">
<ellipse fill="#e2cdfa" stroke="black" cx="2349" cy="-1050.45" rx="27" ry="18"/>
<ellipse fill="none" stroke="black" cx="2349" cy="-1050.45" rx="31" ry="22"/>
<ellipse fill="none" stroke="black" cx="2349" cy="-1050.45" rx="35" ry="26"/>
<text text-anchor="middle" x="2349" y="-1046.75" font-family="Times,serif" font-size="14.00">Pair</text>
</a>
</g>
</g>
<!-- Morphisms_isequiv_sigma_category_isomorphism&#45;&gt;Core_category -->
<g id="edge32" class="edge"><title>Morphisms_isequiv_sigma_category_isomorphism&#45;&gt;Core_category</title>
<path fill="none" stroke="black" d="M525.225,-1033.13C633.741,-986.385 931.482,-858.135 1038.26,-812.144"/>
<polygon fill="black" stroke="black" points="1039.89,-815.252 1047.69,-808.082 1037.12,-808.823 1039.89,-815.252"/>
</g>
<!-- Core_pr1 -->
<g id="node41" class="node"><title>Core_pr1</title>
<g id="a_node41"><a xlink:href="Core.html#pr1" xlink:title="pr1">
<ellipse fill="#f070d1" stroke="black" cx="1310" cy="-1050.45" rx="27" ry="18"/>
<ellipse fill="none" stroke="black" cx="1310" cy="-1050.45" rx="31" ry="22"/>
<ellipse fill="none" stroke="black" cx="1310" cy="-1050.45" rx="35" ry="26"/>
<text text-anchor="middle" x="1310" y="-1046.75" font-family="Times,serif" font-size="14.00">pr1</text>
</a>
</g>
</g>
<!-- Core_pr1&#45;&gt;Core_category -->
<g id="edge33" class="edge"><title>Core_pr1&#45;&gt;Core_category</title>
<path fill="none" stroke="black" d="M1290.13,-1028.71C1246.89,-981.383 1144.47,-869.293 1099.19,-819.737"/>
<polygon fill="black" stroke="black" points="1101.76,-817.361 1092.43,-812.34 1096.59,-822.083 1101.76,-817.361"/>
</g>
<!-- Core_category&#45;&gt;Core_category_subproof1 -->
<g id="edge34" class="edge"><title>Core_category&#45;&gt;Core_category_subproof1</title>
<path fill="none" stroke="black" d="M1077.56,-777.102C1078.78,-737.223 1081.68,-642.433 1083.13,-594.801"/>
<polygon fill="black" stroke="black" points="1086.64,-594.679 1083.45,-584.577 1079.64,-594.465 1086.64,-594.679"/>
</g>
<!-- Core_category&#45;&gt;Core_category_subproof0 -->
<g id="edge35" class="edge"><title>Core_category&#45;&gt;Core_category_subproof0</title>
<path fill="none" stroke="black" d="M1091.06,-778.242C1123.67,-738.305 1204.62,-639.168 1243.08,-592.077"/>
<polygon fill="black" stroke="black" points="1245.91,-594.141 1249.52,-584.181 1240.49,-589.713 1245.91,-594.141"/>
</g>
<!-- Core_category&#45;&gt;Core_category_subproof -->
<g id="edge36" class="edge"><title>Core_category&#45;&gt;Core_category_subproof</title>
<path fill="none" stroke="black" d="M1064.3,-778.242C1034.96,-738.486 962.323,-640.063 927.383,-592.719"/>
<polygon fill="black" stroke="black" points="930.07,-590.466 921.316,-584.498 924.438,-594.623 930.07,-590.466"/>
</g>
<!-- Core_identity -->
<g id="node46" class="node"><title>Core_identity</title>
<g id="a_node46"><a xlink:href="Core.html#identity" xlink:title="identity">
<ellipse fill="#f070d1" stroke="black" cx="1174" cy="-337.455" rx="37.8943" ry="18"/>
<text text-anchor="middle" x="1174" y="-333.755" font-family="Times,serif" font-size="14.00">identity</text>
</a>
</g>
</g>
<!-- Core_category_subproof1&#45;&gt;Core_identity -->
<g id="edge37" class="edge"><title>Core_category_subproof1&#45;&gt;Core_identity</title>
<path fill="none" stroke="black" d="M1091.06,-548.485C1106.77,-508.52 1144.67,-412.071 1163.3,-364.672"/>
<polygon fill="black" stroke="black" points="1166.57,-365.928 1166.97,-355.34 1160.06,-363.367 1166.57,-365.928"/>
</g>
<!-- ToSet_Core_compose -->
<g id="node48" class="node"><title>ToSet_Core_compose</title>
<g id="a_node48"><a xlink:href="ToSet.html#Core.compose" xlink:title="compose">
<ellipse fill="#f070d1" stroke="black" cx="1807" cy="-1365.45" rx="42.4939" ry="18"/>
<text text-anchor="middle" x="1807" y="-1361.75" font-family="Times,serif" font-size="14.00">compose</text>
</a>
</g>
</g>
<!-- Core_category_subproof1&#45;&gt;ToSet_Core_compose -->
<g id="edge38" class="edge"><title>Core_category_subproof1&#45;&gt;ToSet_Core_compose</title>
<path fill="none" stroke="black" d="M1125.11,-582.095C1192.4,-610.047 1324.76,-675.381 1387,-777.455 1464.03,-903.789 1353.22,-981.583 1431,-1107.45 1524.18,-1258.25 1616.36,-1228.97 1761,-1331.45 1766.42,-1335.3 1772.16,-1339.46 1777.67,-1343.5"/>
<polygon fill="black" stroke="black" points="1775.94,-1346.58 1786.06,-1349.7 1780.1,-1340.95 1775.94,-1346.58"/>
</g>
<!-- Core_category_subproof0&#45;&gt;Core_identity -->
<g id="edge39" class="edge"><title>Core_category_subproof0&#45;&gt;Core_identity</title>
<path fill="none" stroke="black" d="M1256.94,-548.485C1241.23,-508.52 1203.33,-412.071 1184.7,-364.672"/>
<polygon fill="black" stroke="black" points="1187.94,-363.367 1181.03,-355.34 1181.43,-365.928 1187.94,-363.367"/>
</g>
<!-- Core_category_subproof0&#45;&gt;ToSet_Core_compose -->
<g id="edge40" class="edge"><title>Core_category_subproof0&#45;&gt;ToSet_Core_compose</title>
<path fill="none" stroke="black" d="M1282.95,-584.038C1317.9,-617.741 1391.92,-695.402 1425,-777.455 1480.2,-914.382 1389.52,-979.405 1463,-1107.45 1465.44,-1111.7 1694.97,-1282.31 1777.7,-1343.72"/>
<polygon fill="black" stroke="black" points="1775.8,-1346.66 1785.91,-1349.81 1779.97,-1341.04 1775.8,-1346.66"/>
</g>
<!-- Core_category_subproof&#45;&gt;ToSet_Core_compose -->
<g id="edge41" class="edge"><title>Core_category_subproof&#45;&gt;ToSet_Core_compose</title>
<path fill="none" stroke="black" d="M927.124,-584.14C965.651,-619.929 1055.06,-703.803 1127,-777.455 1231.18,-884.117 1267.37,-903.11 1354,-1024.45 1378.38,-1058.61 1370.19,-1076.95 1399,-1107.45 1528.9,-1245.02 1604.35,-1225.36 1761,-1331.45 1766.5,-1335.18 1772.27,-1339.29 1777.8,-1343.31"/>
<polygon fill="black" stroke="black" points="1776.07,-1346.39 1786.19,-1349.51 1780.23,-1340.76 1776.07,-1346.39"/>
</g>
<!-- Core_identity_H -->
<g id="node47" class="node"><title>Core_identity_H</title>
<g id="a_node47"><a xlink:href="Core.html#identity_H" xlink:title="identity_H">
<ellipse fill="#f070d1" stroke="black" cx="1174" cy="-108.455" rx="48.1917" ry="18"/>
<text text-anchor="middle" x="1174" y="-104.755" font-family="Times,serif" font-size="14.00">identity_H</text>
</a>
</g>
</g>
<!-- Core_identity&#45;&gt;Core_identity_H -->
<g id="edge42" class="edge"><title>Core_identity&#45;&gt;Core_identity_H</title>
<path fill="none" stroke="black" d="M1174,-319.102C1174,-279.223 1174,-184.433 1174,-136.801"/>
<polygon fill="black" stroke="black" points="1177.5,-136.577 1174,-126.577 1170.5,-136.577 1177.5,-136.577"/>
</g>
<!-- Core_compose_H -->
<g id="node49" class="node"><title>Core_compose_H</title>
<g id="a_node49"><a xlink:href="Core.html#compose_H" xlink:title="compose_H">
<ellipse fill="#f070d1" stroke="black" cx="1204" cy="-1050.45" rx="53.0913" ry="18"/>
<text text-anchor="middle" x="1204" y="-1046.75" font-family="Times,serif" font-size="14.00">compose_H</text>
</a>
</g>
</g>
<!-- ToSet_Core_compose&#45;&gt;Core_compose_H -->
<g id="edge43" class="edge"><title>ToSet_Core_compose&#45;&gt;Core_compose_H</title>
<path fill="none" stroke="black" d="M1787.03,-1349.26C1779.17,-1343.27 1769.91,-1336.68 1761,-1331.45 1552.74,-1209.23 1467.43,-1240.63 1266,-1107.45 1252.03,-1098.22 1238.14,-1085.83 1227.07,-1074.97"/>
<polygon fill="black" stroke="black" points="1229.42,-1072.36 1219.88,-1067.74 1224.45,-1077.3 1229.42,-1072.36"/>
</g>
<!-- Core_Build_Pair -->
<g id="node56" class="node"><title>Core_Build_Pair</title>
<g id="a_node56"><a xlink:href="Core.html#Build_Pair" xlink:title="Build_Pair">
<ellipse fill="#7faaff" stroke="black" cx="749" cy="-566.455" rx="48.9926" ry="18"/>
<text text-anchor="middle" x="749" y="-562.755" font-family="Times,serif" font-size="14.00">Build_Pair</text>
</a>
</g>
</g>
<!-- Core_issig_pair&#45;&gt;Core_Build_Pair -->
<g id="edge44" class="edge"><title>Core_issig_pair&#45;&gt;Core_Build_Pair</title>
<path fill="none" stroke="black" d="M720.484,-777.102C725.894,-737.14 738.769,-642.034 745.203,-594.501"/>
<polygon fill="black" stroke="black" points="748.674,-594.956 746.547,-584.577 741.737,-594.017 748.674,-594.956"/>
</g>
<!-- Core_Pair_rec -->
<g id="node51" class="node"><title>Core_Pair_rec</title>
<g id="a_node51"><a xlink:href="Core.html#Pair_rec" xlink:title="Pair_rec">
<ellipse fill="#f070d1" stroke="black" cx="1084" cy="-1050.45" rx="40.1273" ry="18"/>
<ellipse fill="none" stroke="black" cx="1084" cy="-1050.45" rx="44.1105" ry="22"/>
<ellipse fill="none" stroke="black" cx="1084" cy="-1050.45" rx="48.0937" ry="26"/>
<text text-anchor="middle" x="1084" y="-1046.75" font-family="Times,serif" font-size="14.00">Pair_rec</text>
</a>
</g>
</g>
<!-- Core_Pair_rect -->
<g id="node53" class="node"><title>Core_Pair_rect</title>
<g id="a_node53"><a xlink:href="Core.html#Pair_rect" xlink:title="Pair_rect">
<ellipse fill="#f070d1" stroke="black" cx="969" cy="-795.455" rx="42.4939" ry="18"/>
<text text-anchor="middle" x="969" y="-791.755" font-family="Times,serif" font-size="14.00">Pair_rect</text>
</a>
</g>
</g>
<!-- Core_Pair_rec&#45;&gt;Core_Pair_rect -->
<g id="edge45" class="edge"><title>Core_Pair_rec&#45;&gt;Core_Pair_rect</title>
<path fill="none" stroke="black" d="M1072.55,-1025.07C1050.77,-976.768 1003.54,-872.032 981.188,-822.48"/>
<polygon fill="black" stroke="black" points="984.367,-821.015 977.065,-813.338 977.986,-823.893 984.367,-821.015"/>
</g>
<!-- Core_Pair_ind -->
<g id="node52" class="node"><title>Core_Pair_ind</title>
<g id="a_node52"><a xlink:href="Core.html#Pair_ind" xlink:title="Pair_ind">
<ellipse fill="#7fffd4" stroke="black" cx="969" cy="-1050.45" rx="40.1273" ry="18"/>
<ellipse fill="none" stroke="black" cx="969" cy="-1050.45" rx="44.1105" ry="22"/>
<ellipse fill="none" stroke="black" cx="969" cy="-1050.45" rx="48.0937" ry="26"/>
<text text-anchor="middle" x="969" y="-1046.75" font-family="Times,serif" font-size="14.00">Pair_ind</text>
</a>
</g>
</g>
<!-- Core_Pair_ind&#45;&gt;Core_Pair_rect -->
<g id="edge46" class="edge"><title>Core_Pair_ind&#45;&gt;Core_Pair_rect</title>
<path fill="none" stroke="black" d="M969,-1024.13C969,-975.757 969,-873.172 969,-823.53"/>
<polygon fill="black" stroke="black" points="972.5,-823.5 969,-813.5 965.5,-823.5 972.5,-823.5"/>
</g>
<!-- Core_Pair_rect&#45;&gt;Core_Build_Pair -->
<g id="edge47" class="edge"><title>Core_Pair_rect&#45;&gt;Core_Build_Pair</title>
<path fill="none" stroke="black" d="M952.823,-778.616C914.378,-738.598 817.407,-637.66 772.497,-590.913"/>
<polygon fill="black" stroke="black" points="774.952,-588.416 765.5,-583.629 769.904,-593.266 774.952,-588.416"/>
</g>
<!-- Core_x -->
<g id="node54" class="node"><title>Core_x</title>
<g id="a_node54"><a xlink:href="Core.html#x" xlink:title="x">
<ellipse fill="#f070d1" stroke="black" cx="868" cy="-1050.45" rx="27" ry="18"/>
<ellipse fill="none" stroke="black" cx="868" cy="-1050.45" rx="31" ry="22"/>
<ellipse fill="none" stroke="black" cx="868" cy="-1050.45" rx="35" ry="26"/>
<text text-anchor="middle" x="868" y="-1046.75" font-family="Times,serif" font-size="14.00">x</text>
</a>
</g>
</g>
<!-- Core_c -->
<g id="node55" class="node"><title>Core_c</title>
<g id="a_node55"><a xlink:href="Core.html#c" xlink:title="c">
<ellipse fill="#f070d1" stroke="black" cx="780" cy="-1050.45" rx="27" ry="18"/>
<ellipse fill="none" stroke="black" cx="780" cy="-1050.45" rx="31" ry="22"/>
<ellipse fill="none" stroke="black" cx="780" cy="-1050.45" rx="35" ry="26"/>
<text text-anchor="middle" x="780" y="-1046.75" font-family="Times,serif" font-size="14.00">c</text>
</a>
</g>
</g>
<!-- Core_Pair -->
<g id="node57" class="node"><title>Core_Pair</title>
<g id="a_node57"><a xlink:href="Core.html#Pair" xlink:title="Pair">
<ellipse fill="#e2cdfa" stroke="black" cx="692" cy="-1050.45" rx="27" ry="18"/>
<ellipse fill="none" stroke="black" cx="692" cy="-1050.45" rx="31" ry="22"/>
<ellipse fill="none" stroke="black" cx="692" cy="-1050.45" rx="35" ry="26"/>
<text text-anchor="middle" x="692" y="-1046.75" font-family="Times,serif" font-size="14.00">Pair</text>
</a>
</g>
</g>
</g>
</svg>
