<?xml version="1.0" encoding="UTF-8" standalone="no"?>
<!DOCTYPE svg PUBLIC "-//W3C//DTD SVG 1.1//EN"
 "http://www.w3.org/Graphics/SVG/1.1/DTD/svg11.dtd">
<!-- Generated by graphviz version 2.26.3 (20100126.1600)
 -->
<!-- Title: HoTT_Types_Prod Pages: 1 -->
<svg width="1694pt" height="851pt"
 viewBox="0.00 0.00 1694.00 851.00" xmlns="http://www.w3.org/2000/svg" xmlns:xlink="http://www.w3.org/1999/xlink">
<g id="graph1" class="graph" transform="scale(1 1) rotate(0) translate(4 847)">
<title>HoTT_Types_Prod</title>
<polygon fill="white" stroke="white" points="-4,5 -4,-847 1691,-847 1691,5 -4,5"/>
<g id="graph2" class="cluster"><title>cluster_Prod</title>
<polygon fill="#ffffc3" stroke="black" points="8,-11.1656 8,-831.834 1678,-831.834 1678,-11.1656 8,-11.1656"/>
<text text-anchor="middle" x="32" y="-815.234" font-family="Times Roman,serif" font-size="14.00">Prod</text>
</g>
<!-- Prod_contr_prod -->
<g id="node1" class="node"><title>Prod_contr_prod</title>
<a xlink:href="Prod.html#contr_prod" xlink:title="contr_prod">
<ellipse fill="#f070d1" stroke="black" cx="1598" cy="-747.166" rx="63.9029" ry="18.3848"/>
<ellipse fill="none" stroke="black" cx="1598" cy="-747.166" rx="67.8754" ry="22.3848"/>
<ellipse fill="none" stroke="black" cx="1598" cy="-747.166" rx="71.8478" ry="26.3848"/>
<text text-anchor="middle" x="1598" y="-743.566" font-family="Times Roman,serif" font-size="14.00">contr_prod</text>
</a>
</g>
<!-- Prod_trunc_prod -->
<g id="node2" class="node"><title>Prod_trunc_prod</title>
<a xlink:href="Prod.html#trunc_prod" xlink:title="trunc_prod">
<ellipse fill="#f070d1" stroke="black" cx="1598" cy="-621.166" rx="65.0538" ry="18.3848"/>
<text text-anchor="middle" x="1598" y="-617.566" font-family="Times Roman,serif" font-size="14.00">trunc_prod</text>
</a>
</g>
<!-- Prod_contr_prod&#45;&gt;Prod_trunc_prod -->
<g id="edge2" class="edge"><title>Prod_contr_prod&#45;&gt;Prod_trunc_prod</title>
<path fill="none" stroke="black" d="M1598,-720.444C1598,-699.68 1598,-670.94 1598,-649.724"/>
<polygon fill="black" stroke="black" points="1601.5,-649.69 1598,-639.69 1594.5,-649.69 1601.5,-649.69"/>
</g>
<!-- Prod_equiv_path_prod -->
<g id="node20" class="node"><title>Prod_equiv_path_prod</title>
<a xlink:href="Prod.html#equiv_path_prod" xlink:title="equiv_path_prod">
<ellipse fill="#f070d1" stroke="black" cx="1578" cy="-495.166" rx="92.1303" ry="18.3848"/>
<text text-anchor="middle" x="1578" y="-491.566" font-family="Times Roman,serif" font-size="14.00">equiv_path_prod</text>
</a>
</g>
<!-- Prod_trunc_prod&#45;&gt;Prod_equiv_path_prod -->
<g id="edge4" class="edge"><title>Prod_trunc_prod&#45;&gt;Prod_equiv_path_prod</title>
<path fill="none" stroke="black" d="M1595.05,-602.574C1591.76,-581.822 1586.39,-547.992 1582.55,-523.844"/>
<polygon fill="black" stroke="black" points="1585.99,-523.161 1580.96,-513.834 1579.07,-524.259 1585.99,-523.161"/>
</g>
<!-- Prod_equiv_prod_coind -->
<g id="node3" class="node"><title>Prod_equiv_prod_coind</title>
<a xlink:href="Prod.html#equiv_prod_coind" xlink:title="equiv_prod_coind">
<ellipse fill="#f070d1" stroke="black" cx="1404" cy="-747.166" rx="96.1665" ry="18.3848"/>
<ellipse fill="none" stroke="black" cx="1404" cy="-747.166" rx="100.167" ry="22.3848"/>
<ellipse fill="none" stroke="black" cx="1404" cy="-747.166" rx="104.167" ry="26.3848"/>
<text text-anchor="middle" x="1404" y="-743.566" font-family="Times Roman,serif" font-size="14.00">equiv_prod_coind</text>
</a>
</g>
<!-- Prod_isequiv_prod_coind -->
<g id="node4" class="node"><title>Prod_isequiv_prod_coind</title>
<a xlink:href="Prod.html#isequiv_prod_coind" xlink:title="isequiv_prod_coind">
<ellipse fill="#f070d1" stroke="black" cx="1412" cy="-621.166" rx="103.238" ry="18.3848"/>
<text text-anchor="middle" x="1412" y="-617.566" font-family="Times Roman,serif" font-size="14.00">isequiv_prod_coind</text>
</a>
</g>
<!-- Prod_equiv_prod_coind&#45;&gt;Prod_isequiv_prod_coind -->
<g id="edge6" class="edge"><title>Prod_equiv_prod_coind&#45;&gt;Prod_isequiv_prod_coind</title>
<path fill="none" stroke="black" d="M1405.7,-720.444C1407.01,-699.68 1408.84,-670.94 1410.19,-649.724"/>
<polygon fill="black" stroke="black" points="1413.68,-649.891 1410.82,-639.69 1406.7,-649.448 1413.68,-649.891"/>
</g>
<!-- Prod_prod_coind_uncurried -->
<g id="node6" class="node"><title>Prod_prod_coind_uncurried</title>
<a xlink:href="Prod.html#prod_coind_uncurried" xlink:title="prod_coind_uncurried">
<ellipse fill="#f070d1" stroke="black" cx="1352" cy="-495.166" rx="115.966" ry="18.3848"/>
<text text-anchor="middle" x="1352" y="-491.566" font-family="Times Roman,serif" font-size="14.00">prod_coind_uncurried</text>
</a>
</g>
<!-- Prod_isequiv_prod_coind&#45;&gt;Prod_prod_coind_uncurried -->
<g id="edge8" class="edge"><title>Prod_isequiv_prod_coind&#45;&gt;Prod_prod_coind_uncurried</title>
<path fill="none" stroke="black" d="M1403.15,-602.574C1393.13,-581.543 1376.72,-547.079 1365.19,-522.875"/>
<polygon fill="black" stroke="black" points="1368.35,-521.357 1360.89,-513.834 1362.03,-524.367 1368.35,-521.357"/>
</g>
<!-- Prod_prod_coind -->
<g id="node5" class="node"><title>Prod_prod_coind</title>
<a xlink:href="Prod.html#prod_coind" xlink:title="prod_coind">
<ellipse fill="#f070d1" stroke="black" cx="1219" cy="-621.166" rx="63.9029" ry="18.3848"/>
<ellipse fill="none" stroke="black" cx="1219" cy="-621.166" rx="67.8754" ry="22.3848"/>
<ellipse fill="none" stroke="black" cx="1219" cy="-621.166" rx="71.8478" ry="26.3848"/>
<text text-anchor="middle" x="1219" y="-617.566" font-family="Times Roman,serif" font-size="14.00">prod_coind</text>
</a>
</g>
<!-- Prod_prod_coind&#45;&gt;Prod_prod_coind_uncurried -->
<g id="edge10" class="edge"><title>Prod_prod_coind&#45;&gt;Prod_prod_coind_uncurried</title>
<path fill="none" stroke="black" d="M1245.28,-596.272C1268.4,-574.364 1301.92,-542.608 1325.2,-520.554"/>
<polygon fill="black" stroke="black" points="1327.82,-522.893 1332.67,-513.474 1323.01,-517.811 1327.82,-522.893"/>
</g>
<!-- Prod_equiv_uncurry -->
<g id="node7" class="node"><title>Prod_equiv_uncurry</title>
<a xlink:href="Prod.html#equiv_uncurry" xlink:title="equiv_uncurry">
<ellipse fill="#f070d1" stroke="black" cx="1104" cy="-747.166" rx="82.0244" ry="18.3848"/>
<ellipse fill="none" stroke="black" cx="1104" cy="-747.166" rx="86.0244" ry="22.3848"/>
<ellipse fill="none" stroke="black" cx="1104" cy="-747.166" rx="90.0244" ry="26.3848"/>
<text text-anchor="middle" x="1104" y="-743.566" font-family="Times Roman,serif" font-size="14.00">equiv_uncurry</text>
</a>
</g>
<!-- Prod_equiv_prod_ind -->
<g id="node8" class="node"><title>Prod_equiv_prod_ind</title>
<a xlink:href="Prod.html#equiv_prod_ind" xlink:title="equiv_prod_ind">
<ellipse fill="#f070d1" stroke="black" cx="1044" cy="-621.166" rx="85.0596" ry="18.3848"/>
<text text-anchor="middle" x="1044" y="-617.566" font-family="Times Roman,serif" font-size="14.00">equiv_prod_ind</text>
</a>
</g>
<!-- Prod_equiv_uncurry&#45;&gt;Prod_equiv_prod_ind -->
<g id="edge12" class="edge"><title>Prod_equiv_uncurry&#45;&gt;Prod_equiv_prod_ind</title>
<path fill="none" stroke="black" d="M1091.42,-720.752C1081.41,-699.725 1067.43,-670.378 1057.25,-648.991"/>
<polygon fill="black" stroke="black" points="1060.32,-647.307 1052.87,-639.783 1054,-650.316 1060.32,-647.307"/>
</g>
<!-- Prod_isequiv_prod_ind -->
<g id="node9" class="node"><title>Prod_isequiv_prod_ind</title>
<a xlink:href="Prod.html#isequiv_prod_ind" xlink:title="isequiv_prod_ind">
<ellipse fill="#f070d1" stroke="black" cx="1126" cy="-495.166" rx="92.1303" ry="18.3848"/>
<text text-anchor="middle" x="1126" y="-491.566" font-family="Times Roman,serif" font-size="14.00">isequiv_prod_ind</text>
</a>
</g>
<!-- Prod_equiv_prod_ind&#45;&gt;Prod_isequiv_prod_ind -->
<g id="edge14" class="edge"><title>Prod_equiv_prod_ind&#45;&gt;Prod_isequiv_prod_ind</title>
<path fill="none" stroke="black" d="M1055.92,-602.844C1069.77,-581.568 1092.73,-546.286 1108.58,-521.938"/>
<polygon fill="black" stroke="black" points="1111.54,-523.8 1114.06,-513.509 1105.67,-519.981 1111.54,-523.8"/>
</g>
<!-- Prod_prod_ind -->
<g id="node34" class="node"><title>Prod_prod_ind</title>
<a xlink:href="Prod.html#prod_ind" xlink:title="prod_ind">
<ellipse fill="#f070d1" stroke="black" cx="1126" cy="-370.166" rx="53.2379" ry="18.3848"/>
<text text-anchor="middle" x="1126" y="-366.566" font-family="Times Roman,serif" font-size="14.00">prod_ind</text>
</a>
</g>
<!-- Prod_isequiv_prod_ind&#45;&gt;Prod_prod_ind -->
<g id="edge16" class="edge"><title>Prod_isequiv_prod_ind&#45;&gt;Prod_prod_ind</title>
<path fill="none" stroke="black" d="M1126,-476.452C1126,-456.016 1126,-423.031 1126,-399.222"/>
<polygon fill="black" stroke="black" points="1129.5,-399.007 1126,-389.007 1122.5,-399.007 1129.5,-399.007"/>
</g>
<!-- Prod_equiv_prod_assoc -->
<g id="node10" class="node"><title>Prod_equiv_prod_assoc</title>
<a xlink:href="Prod.html#equiv_prod_assoc" xlink:title="equiv_prod_assoc">
<ellipse fill="#f070d1" stroke="black" cx="891" cy="-747.166" rx="96.8736" ry="18.3848"/>
<ellipse fill="none" stroke="black" cx="891" cy="-747.166" rx="100.874" ry="22.3848"/>
<ellipse fill="none" stroke="black" cx="891" cy="-747.166" rx="104.874" ry="26.3848"/>
<text text-anchor="middle" x="891" y="-743.566" font-family="Times Roman,serif" font-size="14.00">equiv_prod_assoc</text>
</a>
</g>
<!-- Prod_equiv_prod_symm -->
<g id="node11" class="node"><title>Prod_equiv_prod_symm</title>
<a xlink:href="Prod.html#equiv_prod_symm" xlink:title="equiv_prod_symm">
<ellipse fill="#f070d1" stroke="black" cx="661" cy="-747.166" rx="98.9949" ry="18.3848"/>
<ellipse fill="none" stroke="black" cx="661" cy="-747.166" rx="102.995" ry="22.3848"/>
<ellipse fill="none" stroke="black" cx="661" cy="-747.166" rx="106.995" ry="26.3848"/>
<text text-anchor="middle" x="661" y="-743.566" font-family="Times Roman,serif" font-size="14.00">equiv_prod_symm</text>
</a>
</g>
<!-- Prod_equiv_functor_prod_r -->
<g id="node12" class="node"><title>Prod_equiv_functor_prod_r</title>
<a xlink:href="Prod.html#equiv_functor_prod_r" xlink:title="equiv_functor_prod_r">
<ellipse fill="#f070d1" stroke="black" cx="893" cy="-495.166" rx="114.792" ry="18.3848"/>
<ellipse fill="none" stroke="black" cx="893" cy="-495.166" rx="118.776" ry="22.3848"/>
<ellipse fill="none" stroke="black" cx="893" cy="-495.166" rx="122.759" ry="26.3848"/>
<text text-anchor="middle" x="893" y="-491.566" font-family="Times Roman,serif" font-size="14.00">equiv_functor_prod_r</text>
</a>
</g>
<!-- Prod_isequiv_functor_prod -->
<g id="node16" class="node"><title>Prod_isequiv_functor_prod</title>
<a xlink:href="Prod.html#isequiv_functor_prod" xlink:title="isequiv_functor_prod">
<ellipse fill="#f070d1" stroke="black" cx="630" cy="-370.166" rx="113.137" ry="18.3848"/>
<text text-anchor="middle" x="630" y="-366.566" font-family="Times Roman,serif" font-size="14.00">isequiv_functor_prod</text>
</a>
</g>
<!-- Prod_equiv_functor_prod_r&#45;&gt;Prod_isequiv_functor_prod -->
<g id="edge18" class="edge"><title>Prod_equiv_functor_prod_r&#45;&gt;Prod_isequiv_functor_prod</title>
<path fill="none" stroke="black" d="M841.979,-470.916C793.905,-448.067 722.514,-414.136 676.112,-392.082"/>
<polygon fill="black" stroke="black" points="677.428,-388.832 666.894,-387.701 674.423,-395.154 677.428,-388.832"/>
</g>
<!-- Prod_equiv_functor_prod_l -->
<g id="node13" class="node"><title>Prod_equiv_functor_prod_l</title>
<a xlink:href="Prod.html#equiv_functor_prod_l" xlink:title="equiv_functor_prod_l">
<ellipse fill="#f070d1" stroke="black" cx="630" cy="-495.166" rx="113.844" ry="18.3848"/>
<ellipse fill="none" stroke="black" cx="630" cy="-495.166" rx="117.844" ry="22.3848"/>
<ellipse fill="none" stroke="black" cx="630" cy="-495.166" rx="121.844" ry="26.3848"/>
<text text-anchor="middle" x="630" y="-491.566" font-family="Times Roman,serif" font-size="14.00">equiv_functor_prod_l</text>
</a>
</g>
<!-- Prod_equiv_functor_prod_l&#45;&gt;Prod_isequiv_functor_prod -->
<g id="edge20" class="edge"><title>Prod_equiv_functor_prod_l&#45;&gt;Prod_isequiv_functor_prod</title>
<path fill="none" stroke="black" d="M630,-468.656C630,-448.273 630,-420.143 630,-399.162"/>
<polygon fill="black" stroke="black" points="633.5,-398.922 630,-388.922 626.5,-398.922 633.5,-398.922"/>
</g>
<!-- Prod_equiv_functor_prod_ -->
<g id="node14" class="node"><title>Prod_equiv_functor_prod_</title>
<a xlink:href="Prod.html#equiv_functor_prod&#39;" xlink:title="equiv_functor_prod&#39;">
<ellipse fill="#f070d1" stroke="black" cx="375" cy="-495.166" rx="107.015" ry="18.3848"/>
<ellipse fill="none" stroke="black" cx="375" cy="-495.166" rx="110.998" ry="22.3848"/>
<ellipse fill="none" stroke="black" cx="375" cy="-495.166" rx="114.98" ry="26.3848"/>
<text text-anchor="middle" x="375" y="-491.566" font-family="Times Roman,serif" font-size="14.00">equiv_functor_prod&#39;</text>
</a>
</g>
<!-- Prod_equiv_functor_prod_&#45;&gt;Prod_isequiv_functor_prod -->
<g id="edge22" class="edge"><title>Prod_equiv_functor_prod_&#45;&gt;Prod_isequiv_functor_prod</title>
<path fill="none" stroke="black" d="M424.167,-471.064C470.646,-448.28 539.802,-414.38 584.899,-392.274"/>
<polygon fill="black" stroke="black" points="586.702,-395.288 594.14,-387.744 583.621,-389.003 586.702,-395.288"/>
</g>
<!-- Prod_equiv_functor_prod -->
<g id="node15" class="node"><title>Prod_equiv_functor_prod</title>
<a xlink:href="Prod.html#equiv_functor_prod" xlink:title="equiv_functor_prod">
<ellipse fill="#f070d1" stroke="black" cx="129" cy="-495.166" rx="104.895" ry="18.3848"/>
<ellipse fill="none" stroke="black" cx="129" cy="-495.166" rx="108.877" ry="22.3848"/>
<ellipse fill="none" stroke="black" cx="129" cy="-495.166" rx="112.86" ry="26.3848"/>
<text text-anchor="middle" x="129" y="-491.566" font-family="Times Roman,serif" font-size="14.00">equiv_functor_prod</text>
</a>
</g>
<!-- Prod_equiv_functor_prod&#45;&gt;Prod_isequiv_functor_prod -->
<g id="edge24" class="edge"><title>Prod_equiv_functor_prod&#45;&gt;Prod_isequiv_functor_prod</title>
<path fill="none" stroke="black" d="M206.457,-475.84C302.39,-451.904 464.538,-411.448 557.917,-388.15"/>
<polygon fill="black" stroke="black" points="558.988,-391.49 567.844,-385.674 557.294,-384.699 558.988,-391.49"/>
</g>
<!-- Prod_ap_functor_prod -->
<g id="node17" class="node"><title>Prod_ap_functor_prod</title>
<a xlink:href="Prod.html#ap_functor_prod" xlink:title="ap_functor_prod">
<ellipse fill="#f070d1" stroke="black" cx="618" cy="-255.166" rx="90.0096" ry="18.3848"/>
<text text-anchor="middle" x="618" y="-251.566" font-family="Times Roman,serif" font-size="14.00">ap_functor_prod</text>
</a>
</g>
<!-- Prod_isequiv_functor_prod&#45;&gt;Prod_ap_functor_prod -->
<g id="edge26" class="edge"><title>Prod_isequiv_functor_prod&#45;&gt;Prod_ap_functor_prod</title>
<path fill="none" stroke="black" d="M628.045,-351.433C626.136,-333.139 623.205,-305.045 621,-283.92"/>
<polygon fill="black" stroke="black" points="624.473,-283.473 619.954,-273.89 617.511,-284.2 624.473,-283.473"/>
</g>
<!-- Prod_path_prod_ -->
<g id="node28" class="node"><title>Prod_path_prod_</title>
<a xlink:href="Prod.html#path_prod&#39;" xlink:title="path_prod&#39;">
<ellipse fill="#f070d1" stroke="black" cx="915" cy="-255.166" rx="62.9325" ry="18.3848"/>
<text text-anchor="middle" x="915" y="-251.566" font-family="Times Roman,serif" font-size="14.00">path_prod&#39;</text>
</a>
</g>
<!-- Prod_isequiv_functor_prod&#45;&gt;Prod_path_prod_ -->
<g id="edge28" class="edge"><title>Prod_isequiv_functor_prod&#45;&gt;Prod_path_prod_</title>
<path fill="none" stroke="black" d="M672.667,-352.949C725.11,-331.788 813.806,-295.998 868.111,-274.086"/>
<polygon fill="black" stroke="black" points="869.542,-277.283 877.505,-270.295 866.922,-270.791 869.542,-277.283"/>
</g>
<!-- Prod_eta_prod -->
<g id="node31" class="node"><title>Prod_eta_prod</title>
<a xlink:href="Prod.html#eta_prod" xlink:title="eta_prod">
<ellipse fill="#f070d1" stroke="black" cx="780" cy="-255.166" rx="53.9477" ry="18.3848"/>
<text text-anchor="middle" x="780" y="-251.566" font-family="Times Roman,serif" font-size="14.00">eta_prod</text>
</a>
</g>
<!-- Prod_isequiv_functor_prod&#45;&gt;Prod_eta_prod -->
<g id="edge30" class="edge"><title>Prod_isequiv_functor_prod&#45;&gt;Prod_eta_prod</title>
<path fill="none" stroke="black" d="M653.768,-351.943C679.783,-331.999 721.55,-299.977 749.851,-278.28"/>
<polygon fill="black" stroke="black" points="752.004,-281.04 757.81,-272.178 747.745,-275.484 752.004,-281.04"/>
</g>
<!-- Prod_functor_prod -->
<g id="node18" class="node"><title>Prod_functor_prod</title>
<a xlink:href="Prod.html#functor_prod" xlink:title="functor_prod">
<ellipse fill="#f070d1" stroke="black" cx="625" cy="-152.166" rx="73.0388" ry="18.3848"/>
<text text-anchor="middle" x="625" y="-148.566" font-family="Times Roman,serif" font-size="14.00">functor_prod</text>
</a>
</g>
<!-- Prod_ap_functor_prod&#45;&gt;Prod_functor_prod -->
<g id="edge32" class="edge"><title>Prod_ap_functor_prod&#45;&gt;Prod_functor_prod</title>
<path fill="none" stroke="black" d="M619.284,-236.274C620.33,-220.883 621.824,-198.893 623.023,-181.257"/>
<polygon fill="black" stroke="black" points="626.538,-181.152 623.724,-170.938 619.554,-180.677 626.538,-181.152"/>
</g>
<!-- Prod_path_prod -->
<g id="node29" class="node"><title>Prod_path_prod</title>
<a xlink:href="Prod.html#path_prod" xlink:title="path_prod">
<ellipse fill="#f070d1" stroke="black" cx="1005" cy="-152.166" rx="60.8112" ry="18.3848"/>
<text text-anchor="middle" x="1005" y="-148.566" font-family="Times Roman,serif" font-size="14.00">path_prod</text>
</a>
</g>
<!-- Prod_ap_functor_prod&#45;&gt;Prod_path_prod -->
<g id="edge34" class="edge"><title>Prod_ap_functor_prod&#45;&gt;Prod_path_prod</title>
<path fill="none" stroke="black" d="M673.037,-240.518C746.281,-221.024 875.11,-186.736 948.892,-167.099"/>
<polygon fill="black" stroke="black" points="950.163,-170.382 958.926,-164.428 948.362,-163.618 950.163,-170.382"/>
</g>
<!-- Prod_transport_prod -->
<g id="node19" class="node"><title>Prod_transport_prod</title>
<a xlink:href="Prod.html#transport_prod" xlink:title="transport_prod">
<ellipse fill="#f070d1" stroke="black" cx="444" cy="-747.166" rx="84.1457" ry="18.3848"/>
<ellipse fill="none" stroke="black" cx="444" cy="-747.166" rx="88.1457" ry="22.3848"/>
<ellipse fill="none" stroke="black" cx="444" cy="-747.166" rx="92.1457" ry="26.3848"/>
<text text-anchor="middle" x="444" y="-743.566" font-family="Times Roman,serif" font-size="14.00">transport_prod</text>
</a>
</g>
<!-- Prod_isequiv_path_prod -->
<g id="node21" class="node"><title>Prod_isequiv_path_prod</title>
<a xlink:href="Prod.html#isequiv_path_prod" xlink:title="isequiv_path_prod">
<ellipse fill="#f070d1" stroke="black" cx="1309" cy="-370.166" rx="99.9096" ry="18.3848"/>
<text text-anchor="middle" x="1309" y="-366.566" font-family="Times Roman,serif" font-size="14.00">isequiv_path_prod</text>
</a>
</g>
<!-- Prod_equiv_path_prod&#45;&gt;Prod_isequiv_path_prod -->
<g id="edge36" class="edge"><title>Prod_equiv_path_prod&#45;&gt;Prod_isequiv_path_prod</title>
<path fill="none" stroke="black" d="M1541.44,-478.177C1493.2,-455.76 1408.24,-416.279 1355.48,-391.765"/>
<polygon fill="black" stroke="black" points="1356.89,-388.559 1346.34,-387.519 1353.94,-394.907 1356.89,-388.559"/>
</g>
<!-- Prod_eta_path_prod -->
<g id="node25" class="node"><title>Prod_eta_path_prod</title>
<a xlink:href="Prod.html#eta_path_prod" xlink:title="eta_path_prod">
<ellipse fill="#f070d1" stroke="black" cx="1504" cy="-255.166" rx="82.0244" ry="18.3848"/>
<text text-anchor="middle" x="1504" y="-251.566" font-family="Times Roman,serif" font-size="14.00">eta_path_prod</text>
</a>
</g>
<!-- Prod_isequiv_path_prod&#45;&gt;Prod_eta_path_prod -->
<g id="edge38" class="edge"><title>Prod_isequiv_path_prod&#45;&gt;Prod_eta_path_prod</title>
<path fill="none" stroke="black" d="M1339.04,-352.449C1373.02,-332.41 1428.44,-299.728 1465.55,-277.843"/>
<polygon fill="black" stroke="black" points="1467.73,-280.62 1474.56,-272.526 1464.17,-274.591 1467.73,-280.62"/>
</g>
<!-- Prod_ap_snd_path_prod -->
<g id="node26" class="node"><title>Prod_ap_snd_path_prod</title>
<a xlink:href="Prod.html#ap_snd_path_prod" xlink:title="ap_snd_path_prod">
<ellipse fill="#f070d1" stroke="black" cx="1096" cy="-255.166" rx="99.9096" ry="18.3848"/>
<text text-anchor="middle" x="1096" y="-251.566" font-family="Times Roman,serif" font-size="14.00">ap_snd_path_prod</text>
</a>
</g>
<!-- Prod_isequiv_path_prod&#45;&gt;Prod_ap_snd_path_prod -->
<g id="edge40" class="edge"><title>Prod_isequiv_path_prod&#45;&gt;Prod_ap_snd_path_prod</title>
<path fill="none" stroke="black" d="M1276.19,-352.449C1238.86,-332.299 1177.87,-299.365 1137.33,-277.479"/>
<polygon fill="black" stroke="black" points="1138.96,-274.385 1128.5,-272.714 1135.64,-280.544 1138.96,-274.385"/>
</g>
<!-- Prod_ap_fst_path_prod -->
<g id="node27" class="node"><title>Prod_ap_fst_path_prod</title>
<a xlink:href="Prod.html#ap_fst_path_prod" xlink:title="ap_fst_path_prod">
<ellipse fill="#f070d1" stroke="black" cx="1309" cy="-255.166" rx="94.9596" ry="18.3848"/>
<text text-anchor="middle" x="1309" y="-251.566" font-family="Times Roman,serif" font-size="14.00">ap_fst_path_prod</text>
</a>
</g>
<!-- Prod_isequiv_path_prod&#45;&gt;Prod_ap_fst_path_prod -->
<g id="edge42" class="edge"><title>Prod_isequiv_path_prod&#45;&gt;Prod_ap_fst_path_prod</title>
<path fill="none" stroke="black" d="M1309,-351.433C1309,-333.139 1309,-305.045 1309,-283.92"/>
<polygon fill="black" stroke="black" points="1312.5,-283.89 1309,-273.89 1305.5,-283.89 1312.5,-283.89"/>
</g>
<!-- Prod_isequiv_path_prod&#45;&gt;Prod_path_prod_ -->
<g id="edge44" class="edge"><title>Prod_isequiv_path_prod&#45;&gt;Prod_path_prod_</title>
<path fill="none" stroke="black" d="M1255.45,-354.536C1180.55,-332.673 1045.2,-293.169 969.687,-271.127"/>
<polygon fill="black" stroke="black" points="970.468,-267.71 959.888,-268.267 968.507,-274.429 970.468,-267.71"/>
</g>
<!-- Prod_transport_path_prod_ -->
<g id="node22" class="node"><title>Prod_transport_path_prod_</title>
<a xlink:href="Prod.html#transport_path_prod&#39;" xlink:title="transport_path_prod&#39;">
<ellipse fill="#f070d1" stroke="black" cx="370" cy="-370.166" rx="113.844" ry="18.3848"/>
<ellipse fill="none" stroke="black" cx="370" cy="-370.166" rx="117.844" ry="22.3848"/>
<ellipse fill="none" stroke="black" cx="370" cy="-370.166" rx="121.844" ry="26.3848"/>
<text text-anchor="middle" x="370" y="-366.566" font-family="Times Roman,serif" font-size="14.00">transport_path_prod&#39;</text>
</a>
</g>
<!-- Prod_transport_path_prod -->
<g id="node23" class="node"><title>Prod_transport_path_prod</title>
<a xlink:href="Prod.html#transport_path_prod" xlink:title="transport_path_prod">
<ellipse fill="#f070d1" stroke="black" cx="370" cy="-255.166" rx="111.222" ry="18.3848"/>
<text text-anchor="middle" x="370" y="-251.566" font-family="Times Roman,serif" font-size="14.00">transport_path_prod</text>
</a>
</g>
<!-- Prod_transport_path_prod_&#45;&gt;Prod_transport_path_prod -->
<g id="edge46" class="edge"><title>Prod_transport_path_prod_&#45;&gt;Prod_transport_path_prod</title>
<path fill="none" stroke="black" d="M370,-343.493C370,-325.633 370,-302.139 370,-283.872"/>
<polygon fill="black" stroke="black" points="373.5,-283.802 370,-273.802 366.5,-283.802 373.5,-283.802"/>
</g>
<!-- Prod_transport_path_prod_uncurried -->
<g id="node24" class="node"><title>Prod_transport_path_prod_uncurried</title>
<a xlink:href="Prod.html#transport_path_prod_uncurried" xlink:title="transport_path_prod_uncurried">
<ellipse fill="#f070d1" stroke="black" cx="370" cy="-152.166" rx="164.049" ry="18.3848"/>
<text text-anchor="middle" x="370" y="-148.566" font-family="Times Roman,serif" font-size="14.00">transport_path_prod_uncurried</text>
</a>
</g>
<!-- Prod_transport_path_prod&#45;&gt;Prod_transport_path_prod_uncurried -->
<g id="edge48" class="edge"><title>Prod_transport_path_prod&#45;&gt;Prod_transport_path_prod_uncurried</title>
<path fill="none" stroke="black" d="M370,-236.274C370,-220.883 370,-198.893 370,-181.257"/>
<polygon fill="black" stroke="black" points="373.5,-180.938 370,-170.938 366.5,-180.938 373.5,-180.938"/>
</g>
<!-- Prod_path_prod_uncurried -->
<g id="node30" class="node"><title>Prod_path_prod_uncurried</title>
<a xlink:href="Prod.html#path_prod_uncurried" xlink:title="path_prod_uncurried">
<ellipse fill="#f070d1" stroke="black" cx="687" cy="-49.1656" rx="113.137" ry="18.3848"/>
<text text-anchor="middle" x="687" y="-45.5656" font-family="Times Roman,serif" font-size="14.00">path_prod_uncurried</text>
</a>
</g>
<!-- Prod_transport_path_prod_uncurried&#45;&gt;Prod_path_prod_uncurried -->
<g id="edge50" class="edge"><title>Prod_transport_path_prod_uncurried&#45;&gt;Prod_path_prod_uncurried</title>
<path fill="none" stroke="black" d="M424.134,-134.576C480.217,-116.354 567.683,-87.9342 626.133,-68.9426"/>
<polygon fill="black" stroke="black" points="627.545,-72.164 635.974,-65.745 625.382,-65.5066 627.545,-72.164"/>
</g>
<!-- Prod_eta_path_prod&#45;&gt;Prod_path_prod -->
<g id="edge52" class="edge"><title>Prod_eta_path_prod&#45;&gt;Prod_path_prod</title>
<path fill="none" stroke="black" d="M1443.8,-242.571C1433.52,-240.429 1422.96,-238.23 1413,-236.166 1289.58,-210.575 1145.09,-180.893 1065.43,-164.553"/>
<polygon fill="black" stroke="black" points="1066.08,-161.112 1055.58,-162.531 1064.67,-167.969 1066.08,-161.112"/>
</g>
<!-- Prod_ap_snd_path_prod&#45;&gt;Prod_path_prod -->
<g id="edge54" class="edge"><title>Prod_ap_snd_path_prod&#45;&gt;Prod_path_prod</title>
<path fill="none" stroke="black" d="M1079.73,-236.751C1065.28,-220.393 1044,-196.311 1027.84,-178.022"/>
<polygon fill="black" stroke="black" points="1030.07,-175.252 1020.82,-170.076 1024.82,-179.887 1030.07,-175.252"/>
</g>
<!-- Prod_ap_fst_path_prod&#45;&gt;Prod_path_prod -->
<g id="edge56" class="edge"><title>Prod_ap_fst_path_prod&#45;&gt;Prod_path_prod</title>
<path fill="none" stroke="black" d="M1261.5,-239.072C1205.46,-220.084 1112.69,-188.652 1055.41,-169.246"/>
<polygon fill="black" stroke="black" points="1056.44,-165.897 1045.84,-166.003 1054.19,-172.527 1056.44,-165.897"/>
</g>
<!-- Prod_path_prod_&#45;&gt;Prod_path_prod -->
<g id="edge58" class="edge"><title>Prod_path_prod_&#45;&gt;Prod_path_prod</title>
<path fill="none" stroke="black" d="M930.677,-237.224C944.914,-220.93 966.089,-196.698 982.198,-178.261"/>
<polygon fill="black" stroke="black" points="985.257,-180.08 989.201,-170.247 979.985,-175.474 985.257,-180.08"/>
</g>
<!-- Prod_path_prod&#45;&gt;Prod_path_prod_uncurried -->
<g id="edge60" class="edge"><title>Prod_path_prod&#45;&gt;Prod_path_prod_uncurried</title>
<path fill="none" stroke="black" d="M963.1,-138.594C908.109,-120.783 811.185,-89.3891 748.038,-68.9358"/>
<polygon fill="black" stroke="black" points="748.797,-65.5026 738.205,-65.7508 746.64,-72.162 748.797,-65.5026"/>
</g>
<!-- Prod_pack_prod -->
<g id="node32" class="node"><title>Prod_pack_prod</title>
<a xlink:href="Prod.html#pack_prod" xlink:title="pack_prod">
<ellipse fill="#f070d1" stroke="black" cx="265" cy="-747.166" rx="60.8112" ry="18.3848"/>
<ellipse fill="none" stroke="black" cx="265" cy="-747.166" rx="64.8112" ry="22.3848"/>
<ellipse fill="none" stroke="black" cx="265" cy="-747.166" rx="68.8112" ry="26.3848"/>
<text text-anchor="middle" x="265" y="-743.566" font-family="Times Roman,serif" font-size="14.00">pack_prod</text>
</a>
</g>
<!-- Prod_unpack_prod -->
<g id="node33" class="node"><title>Prod_unpack_prod</title>
<a xlink:href="Prod.html#unpack_prod" xlink:title="unpack_prod">
<ellipse fill="#f070d1" stroke="black" cx="97" cy="-747.166" rx="73.0879" ry="18.3848"/>
<ellipse fill="none" stroke="black" cx="97" cy="-747.166" rx="77.0634" ry="22.3848"/>
<ellipse fill="none" stroke="black" cx="97" cy="-747.166" rx="81.0389" ry="26.3848"/>
<text text-anchor="middle" x="97" y="-743.566" font-family="Times Roman,serif" font-size="14.00">unpack_prod</text>
</a>
</g>
</g>
</svg>
