<?xml version="1.0" encoding="UTF-8" standalone="no"?>
<!DOCTYPE svg PUBLIC "-//W3C//DTD SVG 1.1//EN"
 "http://www.w3.org/Graphics/SVG/1.1/DTD/svg11.dtd">
<!-- Generated by graphviz version 2.39.20161220.0128 (20161220.0128)
 -->
<!-- Title: HoTT_HIT_Colimits_Flattening Pages: 1 -->
<svg width="1518pt" height="763pt"
 viewBox="0.00 0.00 1518.00 763.00" xmlns="http://www.w3.org/2000/svg" xmlns:xlink="http://www.w3.org/1999/xlink">
<g id="graph0" class="graph" transform="scale(1 1) rotate(0) translate(4 759)">
<title>HoTT_HIT_Colimits_Flattening</title>
<polygon fill="#ffffff" stroke="transparent" points="-4,4 -4,-759 1514,-759 1514,4 -4,4"/>
<g id="clust1" class="cluster">
<title>cluster_Flattening</title>
<polygon fill="#ffffc3" stroke="#000000" points="38.5942,-8 38.5942,-747 1471.4058,-747 1471.4058,-8 38.5942,-8"/>
<text text-anchor="middle" x="74.0942" y="-731.8" font-family="Times,serif" font-size="14.00" fill="#000000">Flattening</text>
</g>
<!-- Flattening_PO_flattening -->
<g id="node1" class="node">
<title>Flattening_PO_flattening</title>
<g id="a_node1"><a xlink:href="Flattening.html#PO_flattening" xlink:title="PO_flattening">
<ellipse fill="#f070d1" stroke="#000000" cx="405.4153" cy="-690" rx="59.6142" ry="18"/>
<ellipse fill="none" stroke="#000000" cx="405.4153" cy="-690" rx="63.6021" ry="22"/>
<ellipse fill="none" stroke="#000000" cx="405.4153" cy="-690" rx="67.59" ry="26"/>
<text text-anchor="middle" x="405.4153" y="-686.3" font-family="Times,serif" font-size="14.00" fill="#000000">PO_flattening</text>
</a>
</g>
</g>
<!-- Flattening_POCase_HE -->
<g id="node2" class="node">
<title>Flattening_POCase_HE</title>
<g id="a_node2"><a xlink:href="Flattening.html#POCase_HE" xlink:title="POCase_HE">
<ellipse fill="#f070d1" stroke="#000000" cx="342.4153" cy="-250" rx="55.4913" ry="18"/>
<text text-anchor="middle" x="342.4153" y="-246.3" font-family="Times,serif" font-size="14.00" fill="#000000">POCase_HE</text>
</a>
</g>
</g>
<!-- Flattening_PO_flattening&#45;&gt;Flattening_POCase_HE -->
<g id="edge1" class="edge">
<title>Flattening_PO_flattening&#45;&gt;Flattening_POCase_HE</title>
<path fill="none" stroke="#000000" d="M348.4129,-675.6553C255.686,-650.6327 82.4153,-596.1018 82.4153,-538 82.4153,-538 82.4153,-538 82.4153,-394 82.4153,-304.124 202.7771,-269.8875 279.7148,-257.1837"/>
<polygon fill="#000000" stroke="#000000" points="280.4646,-260.6089 289.8005,-255.5997 279.3785,-253.6937 280.4646,-260.6089"/>
</g>
<!-- Flattening_POCase_P -->
<g id="node4" class="node">
<title>Flattening_POCase_P</title>
<g id="a_node4"><a xlink:href="Flattening.html#POCase_P" xlink:title="POCase_P">
<ellipse fill="#f070d1" stroke="#000000" cx="405.4153" cy="-610" rx="48.1917" ry="18"/>
<text text-anchor="middle" x="405.4153" y="-606.3" font-family="Times,serif" font-size="14.00" fill="#000000">POCase_P</text>
</a>
</g>
</g>
<!-- Flattening_PO_flattening&#45;&gt;Flattening_POCase_P -->
<g id="edge2" class="edge">
<title>Flattening_PO_flattening&#45;&gt;Flattening_POCase_P</title>
<path fill="none" stroke="#000000" d="M405.4153,-663.805C405.4153,-655.6026 405.4153,-646.5174 405.4153,-638.1839"/>
<polygon fill="#000000" stroke="#000000" points="408.9154,-638.1532 405.4153,-628.1532 401.9154,-638.1533 408.9154,-638.1532"/>
</g>
<!-- Flattening_flattening_lemma -->
<g id="node5" class="node">
<title>Flattening_flattening_lemma</title>
<g id="a_node5"><a xlink:href="Flattening.html#flattening_lemma" xlink:title="flattening_lemma">
<ellipse fill="#f070d1" stroke="#000000" cx="1080.4153" cy="-610" rx="73.387" ry="18"/>
<text text-anchor="middle" x="1080.4153" y="-606.3" font-family="Times,serif" font-size="14.00" fill="#000000">flattening_lemma</text>
</a>
</g>
</g>
<!-- Flattening_PO_flattening&#45;&gt;Flattening_flattening_lemma -->
<g id="edge3" class="edge">
<title>Flattening_PO_flattening&#45;&gt;Flattening_flattening_lemma</title>
<path fill="none" stroke="#000000" d="M470.4435,-682.293C595.7123,-667.4463 869.9136,-634.9484 1003.8007,-619.0803"/>
<polygon fill="#000000" stroke="#000000" points="1004.4554,-622.5272 1013.974,-617.8745 1003.6315,-615.5759 1004.4554,-622.5272"/>
</g>
<!-- Flattening_POCase_E -->
<g id="node3" class="node">
<title>Flattening_POCase_E</title>
<g id="a_node3"><a xlink:href="Flattening.html#POCase_E" xlink:title="POCase_E">
<ellipse fill="#f070d1" stroke="#000000" cx="313.4153" cy="-106" rx="48.9926" ry="18"/>
<text text-anchor="middle" x="313.4153" y="-102.3" font-family="Times,serif" font-size="14.00" fill="#000000">POCase_E</text>
</a>
</g>
</g>
<!-- Flattening_POCase_HE&#45;&gt;Flattening_POCase_E -->
<g id="edge4" class="edge">
<title>Flattening_POCase_HE&#45;&gt;Flattening_POCase_E</title>
<path fill="none" stroke="#000000" d="M338.7425,-231.7623C333.7743,-207.0928 324.8663,-162.8598 319.0488,-133.9731"/>
<polygon fill="#000000" stroke="#000000" points="322.4638,-133.2018 317.0584,-124.0896 315.6016,-134.5838 322.4638,-133.2018"/>
</g>
<!-- Flattening_equifibered -->
<g id="node12" class="node">
<title>Flattening_equifibered</title>
<g id="a_node12"><a xlink:href="Flattening.html#equifibered" xlink:title="equifibered">
<ellipse fill="#f070d1" stroke="#000000" cx="468.4153" cy="-178" rx="50.8918" ry="18"/>
<text text-anchor="middle" x="468.4153" y="-174.3" font-family="Times,serif" font-size="14.00" fill="#000000">equifibered</text>
</a>
</g>
</g>
<!-- Flattening_POCase_HE&#45;&gt;Flattening_equifibered -->
<g id="edge5" class="edge">
<title>Flattening_POCase_HE&#45;&gt;Flattening_equifibered</title>
<path fill="none" stroke="#000000" d="M370.0666,-234.1993C388.4102,-223.7172 412.6653,-209.8572 432.4979,-198.5243"/>
<polygon fill="#000000" stroke="#000000" points="434.3159,-201.5166 441.2618,-193.5163 430.8429,-195.4389 434.3159,-201.5166"/>
</g>
<!-- Flattening_integral -->
<g id="node15" class="node">
<title>Flattening_integral</title>
<g id="a_node15"><a xlink:href="Flattening.html#integral" xlink:title="integral">
<ellipse fill="#f070d1" stroke="#000000" cx="612.4153" cy="-34" rx="37.8943" ry="18"/>
<text text-anchor="middle" x="612.4153" y="-30.3" font-family="Times,serif" font-size="14.00" fill="#000000">integral</text>
</a>
</g>
</g>
<!-- Flattening_POCase_E&#45;&gt;Flattening_integral -->
<g id="edge6" class="edge">
<title>Flattening_POCase_E&#45;&gt;Flattening_integral</title>
<path fill="none" stroke="#000000" d="M354.3631,-96.1397C410.4903,-82.6241 510.9067,-58.4436 568.532,-44.5672"/>
<polygon fill="#000000" stroke="#000000" points="569.5274,-47.9277 578.43,-42.1838 567.8885,-41.1222 569.5274,-47.9277"/>
</g>
<!-- Flattening_is_universal_cocone_E_ -->
<g id="node6" class="node">
<title>Flattening_is_universal_cocone_E_</title>
<g id="a_node6"><a xlink:href="Flattening.html#is_universal_cocone_E'" xlink:title="is_universal_cocone_E&#39;">
<ellipse fill="#f070d1" stroke="#000000" cx="979.4153" cy="-538" rx="93.6835" ry="18"/>
<text text-anchor="middle" x="979.4153" y="-534.3" font-family="Times,serif" font-size="14.00" fill="#000000">is_universal_cocone_E&#39;</text>
</a>
</g>
</g>
<!-- Flattening_flattening_lemma&#45;&gt;Flattening_is_universal_cocone_E_ -->
<g id="edge7" class="edge">
<title>Flattening_flattening_lemma&#45;&gt;Flattening_is_universal_cocone_E_</title>
<path fill="none" stroke="#000000" d="M1056.4797,-592.937C1043.216,-583.4817 1026.5345,-571.5899 1012.0866,-561.2904"/>
<polygon fill="#000000" stroke="#000000" points="1014.0552,-558.3955 1003.8807,-555.4407 1009.9918,-564.0954 1014.0552,-558.3955"/>
</g>
<!-- Flattening_cocone_E_ -->
<g id="node7" class="node">
<title>Flattening_cocone_E_</title>
<g id="a_node7"><a xlink:href="Flattening.html#cocone_E'" xlink:title="cocone_E&#39;">
<ellipse fill="#f070d1" stroke="#000000" cx="1143.4153" cy="-394" rx="46.5926" ry="18"/>
<text text-anchor="middle" x="1143.4153" y="-390.3" font-family="Times,serif" font-size="14.00" fill="#000000">cocone_E&#39;</text>
</a>
</g>
</g>
<!-- Flattening_is_universal_cocone_E_&#45;&gt;Flattening_cocone_E_ -->
<g id="edge8" class="edge">
<title>Flattening_is_universal_cocone_E_&#45;&gt;Flattening_cocone_E_</title>
<path fill="none" stroke="#000000" d="M999.525,-520.3428C1028.9362,-494.5183 1083.7435,-446.3947 1116.5691,-417.5723"/>
<polygon fill="#000000" stroke="#000000" points="1119.207,-419.9138 1124.4121,-410.6857 1114.5884,-414.6537 1119.207,-419.9138"/>
</g>
<!-- Flattening_transport_E__V_E_ -->
<g id="node8" class="node">
<title>Flattening_transport_E__V_E_</title>
<g id="a_node8"><a xlink:href="Flattening.html#transport_E'_V_E'" xlink:title="transport_E&#39;_V_E&#39;">
<ellipse fill="#f070d1" stroke="#000000" cx="598.4153" cy="-466" rx="75.2868" ry="18"/>
<text text-anchor="middle" x="598.4153" y="-462.3" font-family="Times,serif" font-size="14.00" fill="#000000">transport_E&#39;_V_E&#39;</text>
</a>
</g>
</g>
<!-- Flattening_is_universal_cocone_E_&#45;&gt;Flattening_transport_E__V_E_ -->
<g id="edge9" class="edge">
<title>Flattening_is_universal_cocone_E_&#45;&gt;Flattening_transport_E__V_E_</title>
<path fill="none" stroke="#000000" d="M912.6142,-525.3762C843.8608,-512.3834 737.2347,-492.2336 667.6158,-479.0772"/>
<polygon fill="#000000" stroke="#000000" points="668.0976,-475.6064 657.6215,-477.1886 666.7977,-482.4847 668.0976,-475.6064"/>
</g>
<!-- Flattening_transport_E_ -->
<g id="node10" class="node">
<title>Flattening_transport_E_</title>
<g id="a_node10"><a xlink:href="Flattening.html#transport_E'" xlink:title="transport_E&#39;">
<ellipse fill="#f070d1" stroke="#000000" cx="796.4153" cy="-322" rx="53.0913" ry="18"/>
<text text-anchor="middle" x="796.4153" y="-318.3" font-family="Times,serif" font-size="14.00" fill="#000000">transport_E&#39;</text>
</a>
</g>
</g>
<!-- Flattening_cocone_E_&#45;&gt;Flattening_transport_E_ -->
<g id="edge10" class="edge">
<title>Flattening_cocone_E_&#45;&gt;Flattening_transport_E_</title>
<path fill="none" stroke="#000000" d="M1101.9037,-385.3866C1039.578,-372.4545 921.7191,-347.9996 852.0224,-333.5381"/>
<polygon fill="#000000" stroke="#000000" points="852.6037,-330.0842 842.1011,-331.4795 851.1814,-336.9382 852.6037,-330.0842"/>
</g>
<!-- Flattening_sigma_diagram -->
<g id="node13" class="node">
<title>Flattening_sigma_diagram</title>
<g id="a_node13"><a xlink:href="Flattening.html#sigma_diagram" xlink:title="sigma_diagram">
<ellipse fill="#f070d1" stroke="#000000" cx="1114.4153" cy="-178" rx="65.7887" ry="18"/>
<text text-anchor="middle" x="1114.4153" y="-174.3" font-family="Times,serif" font-size="14.00" fill="#000000">sigma_diagram</text>
</a>
</g>
</g>
<!-- Flattening_cocone_E_&#45;&gt;Flattening_sigma_diagram -->
<g id="edge11" class="edge">
<title>Flattening_cocone_E_&#45;&gt;Flattening_sigma_diagram</title>
<path fill="none" stroke="#000000" d="M1140.9927,-375.9555C1135.939,-338.3144 1124.2413,-251.1867 1118.1913,-206.1246"/>
<polygon fill="#000000" stroke="#000000" points="1121.6511,-205.5904 1116.8515,-196.1451 1114.7133,-206.5219 1121.6511,-205.5904"/>
</g>
<!-- Flattening_transport_E__V -->
<g id="node9" class="node">
<title>Flattening_transport_E__V</title>
<g id="a_node9"><a xlink:href="Flattening.html#transport_E'_V" xlink:title="transport_E&#39;_V">
<ellipse fill="#f070d1" stroke="#000000" cx="525.4153" cy="-394" rx="63.8893" ry="18"/>
<text text-anchor="middle" x="525.4153" y="-390.3" font-family="Times,serif" font-size="14.00" fill="#000000">transport_E&#39;_V</text>
</a>
</g>
</g>
<!-- Flattening_transport_E__V_E_&#45;&gt;Flattening_transport_E__V -->
<g id="edge12" class="edge">
<title>Flattening_transport_E__V_E_&#45;&gt;Flattening_transport_E__V</title>
<path fill="none" stroke="#000000" d="M580.3704,-448.2022C571.2862,-439.2425 560.1323,-428.2414 550.2523,-418.4968"/>
<polygon fill="#000000" stroke="#000000" points="552.5783,-415.8749 543.0008,-411.3446 547.6628,-420.8586 552.5783,-415.8749"/>
</g>
<!-- Flattening_transport_E__V&#45;&gt;Flattening_transport_E_ -->
<g id="edge13" class="edge">
<title>Flattening_transport_E__V&#45;&gt;Flattening_transport_E_</title>
<path fill="none" stroke="#000000" d="M572.0019,-381.6228C619.9975,-368.8712 694.64,-349.0399 744.5016,-335.7926"/>
<polygon fill="#000000" stroke="#000000" points="745.6714,-339.1033 754.4373,-333.1528 743.8739,-332.338 745.6714,-339.1033"/>
</g>
<!-- Flattening_E_ -->
<g id="node11" class="node">
<title>Flattening_E_</title>
<g id="a_node11"><a xlink:href="Flattening.html#E'" xlink:title="E&#39;">
<ellipse fill="#f070d1" stroke="#000000" cx="825.4153" cy="-250" rx="27" ry="18"/>
<text text-anchor="middle" x="825.4153" y="-246.3" font-family="Times,serif" font-size="14.00" fill="#000000">E&#39;</text>
</a>
</g>
</g>
<!-- Flattening_transport_E_&#45;&gt;Flattening_E_ -->
<g id="edge14" class="edge">
<title>Flattening_transport_E_&#45;&gt;Flattening_E_</title>
<path fill="none" stroke="#000000" d="M803.7333,-303.8314C807.0356,-295.6323 811.003,-285.7824 814.636,-276.7624"/>
<polygon fill="#000000" stroke="#000000" points="817.9102,-278.0012 818.3999,-267.4177 811.4171,-275.3859 817.9102,-278.0012"/>
</g>
<!-- Flattening_E_&#45;&gt;Flattening_equifibered -->
<g id="edge15" class="edge">
<title>Flattening_E_&#45;&gt;Flattening_equifibered</title>
<path fill="none" stroke="#000000" d="M799.4532,-244.7639C741.5617,-233.0883 600.8722,-204.714 522.8266,-188.9737"/>
<polygon fill="#000000" stroke="#000000" points="523.2009,-185.4788 512.7063,-186.9326 521.817,-192.3406 523.2009,-185.4788"/>
</g>
<!-- Flattening_dep_diagram -->
<g id="node14" class="node">
<title>Flattening_dep_diagram</title>
<g id="a_node14"><a xlink:href="Flattening.html#dep_diagram" xlink:title="dep_diagram">
<ellipse fill="#f070d1" stroke="#000000" cx="911.4153" cy="-106" rx="57.3905" ry="18"/>
<text text-anchor="middle" x="911.4153" y="-102.3" font-family="Times,serif" font-size="14.00" fill="#000000">dep_diagram</text>
</a>
</g>
</g>
<!-- Flattening_equifibered&#45;&gt;Flattening_dep_diagram -->
<g id="edge16" class="edge">
<title>Flattening_equifibered&#45;&gt;Flattening_dep_diagram</title>
<path fill="none" stroke="#000000" d="M514.5704,-170.4985C594.9096,-157.4411 760.4379,-130.5381 850.2385,-115.943"/>
<polygon fill="#000000" stroke="#000000" points="850.9655,-119.3708 860.2744,-114.3118 849.8424,-112.4615 850.9655,-119.3708"/>
</g>
<!-- Flattening_sigma_diagram&#45;&gt;Flattening_dep_diagram -->
<g id="edge17" class="edge">
<title>Flattening_sigma_diagram&#45;&gt;Flattening_dep_diagram</title>
<path fill="none" stroke="#000000" d="M1073.8232,-163.6028C1040.72,-151.8617 993.9008,-135.2559 959.0308,-122.8882"/>
<polygon fill="#000000" stroke="#000000" points="960.1286,-119.564 949.5338,-119.5199 957.7886,-126.1614 960.1286,-119.564"/>
</g>
<!-- Flattening_dep_diagram&#45;&gt;Flattening_integral -->
<g id="edge18" class="edge">
<title>Flattening_dep_diagram&#45;&gt;Flattening_integral</title>
<path fill="none" stroke="#000000" d="M865.6782,-94.9864C808.696,-81.2649 712.0286,-57.9871 656.0456,-44.5063"/>
<polygon fill="#000000" stroke="#000000" points="656.6261,-41.0461 646.0846,-42.1076 654.9873,-47.8516 656.6261,-41.0461"/>
</g>
</g>
</svg>
