<?xml version="1.0" encoding="UTF-8" standalone="no"?>
<!DOCTYPE svg PUBLIC "-//W3C//DTD SVG 1.1//EN"
 "http://www.w3.org/Graphics/SVG/1.1/DTD/svg11.dtd">
<!-- Generated by graphviz version 2.26.3 (20100126.1600)
 -->
<!-- Title: HoTT_categories_Functor_Composition_Functorial Pages: 1 -->
<svg width="2556pt" height="1282pt"
 viewBox="0.00 0.00 2556.00 1282.00" xmlns="http://www.w3.org/2000/svg" xmlns:xlink="http://www.w3.org/1999/xlink">
<g id="graph1" class="graph" transform="scale(1 1) rotate(0) translate(4 1278)">
<title>HoTT_categories_Functor_Composition_Functorial</title>
<polygon fill="white" stroke="white" points="-4,5 -4,-1278 2553,-1278 2553,5 -4,5"/>
<g id="graph2" class="cluster"><title>cluster_Attributes</title>
<polygon fill="#ffffc3" stroke="black" points="1348,-581.389 1348,-990.889 1920,-990.889 1920,-581.389 1348,-581.389"/>
<text text-anchor="middle" x="1391" y="-974.289" font-family="Times Roman,serif" font-size="14.00">Attributes</text>
</g>
<g id="graph3" class="cluster"><title>cluster_Functorial</title>
<polygon fill="#ffffc3" stroke="black" points="8,-394.333 8,-1253.78 1340,-1253.78 1340,-394.333 8,-394.333"/>
<text text-anchor="middle" x="50.5" y="-1237.18" font-family="Times Roman,serif" font-size="14.00">Functorial</text>
</g>
<g id="graph4" class="cluster"><title>cluster_Core</title>
<polygon fill="#ffffc3" stroke="black" points="1928,-20.2222 1928,-1011.11 2540,-1011.11 2540,-20.2222 1928,-20.2222"/>
<text text-anchor="middle" x="1952.5" y="-994.511" font-family="Times Roman,serif" font-size="14.00">Core</text>
</g>
<!-- Functorial_isfaithful_precomposition_essentially_surjective -->
<g id="node1" class="node"><title>Functorial_isfaithful_precomposition_essentially_surjective</title>
<a xlink:href="Functorial.html#isfaithful_precomposition_essentially_surjective" xlink:title="isfaithful_precomposition_essentially_surjective">
<ellipse fill="#f070d1" stroke="black" cx="492" cy="-1099.22" rx="241.831" ry="18.3848"/>
<ellipse fill="none" stroke="black" cx="492" cy="-1099.22" rx="245.831" ry="22.3848"/>
<ellipse fill="none" stroke="black" cx="492" cy="-1099.22" rx="249.831" ry="26.3848"/>
<text text-anchor="middle" x="492" y="-1095.62" font-family="Times Roman,serif" font-size="14.00">isfaithful_precomposition_essentially_surjective</text>
</a>
</g>
<!-- Attributes_isfaithful_precomposition_essentially_surjective -->
<g id="node15" class="node"><title>Attributes_isfaithful_precomposition_essentially_surjective</title>
<a xlink:href="Attributes.html#isfaithful_precomposition_essentially_surjective" xlink:title="isfaithful_precomposition_essentially_surjective">
<ellipse fill="#facdef" stroke="black" cx="1598" cy="-857.222" rx="241.831" ry="18.3848"/>
<text text-anchor="middle" x="1598" y="-853.622" font-family="Times Roman,serif" font-size="14.00">isfaithful_precomposition_essentially_surjective</text>
</a>
</g>
<!-- Functorial_isfaithful_precomposition_essentially_surjective&#45;&gt;Attributes_isfaithful_precomposition_essentially_surjective -->
<g id="edge2" class="edge"><title>Functorial_isfaithful_precomposition_essentially_surjective&#45;&gt;Attributes_isfaithful_precomposition_essentially_surjective</title>
<path fill="none" stroke="black" d="M607.625,-1075.67C771.678,-1042.02 1081.28,-977.664 1344,-918.222 1401.85,-905.134 1466.88,-889.498 1516.66,-877.334"/>
<polygon fill="black" stroke="black" points="1517.52,-880.726 1526.41,-874.949 1515.86,-873.926 1517.52,-880.726"/>
</g>
<!-- Functorial_isfaithful_precomposition_essentially_surjective_helper -->
<g id="node2" class="node"><title>Functorial_isfaithful_precomposition_essentially_surjective_helper</title>
<a xlink:href="Functorial.html#isfaithful_precomposition_essentially_surjective_helper" xlink:title="isfaithful_precomposition_essentially_surjective_helper">
<ellipse fill="#f070d1" stroke="black" cx="1046" cy="-1099.22" rx="277.893" ry="18.3848"/>
<ellipse fill="none" stroke="black" cx="1046" cy="-1099.22" rx="281.893" ry="22.3848"/>
<ellipse fill="none" stroke="black" cx="1046" cy="-1099.22" rx="285.893" ry="26.3848"/>
<text text-anchor="middle" x="1046" y="-1095.62" font-family="Times Roman,serif" font-size="14.00">isfaithful_precomposition_essentially_surjective_helper</text>
</a>
</g>
<!-- Attributes_isfaithful_precomposition_essentially_surjective_helper -->
<g id="node16" class="node"><title>Attributes_isfaithful_precomposition_essentially_surjective_helper</title>
<a xlink:href="Attributes.html#isfaithful_precomposition_essentially_surjective_helper" xlink:title="isfaithful_precomposition_essentially_surjective_helper">
<ellipse fill="#facdef" stroke="black" cx="1634" cy="-649.222" rx="277.893" ry="18.3848"/>
<text text-anchor="middle" x="1634" y="-645.622" font-family="Times Roman,serif" font-size="14.00">isfaithful_precomposition_essentially_surjective_helper</text>
</a>
</g>
<!-- Functorial_isfaithful_precomposition_essentially_surjective_helper&#45;&gt;Attributes_isfaithful_precomposition_essentially_surjective_helper -->
<g id="edge4" class="edge"><title>Functorial_isfaithful_precomposition_essentially_surjective_helper&#45;&gt;Attributes_isfaithful_precomposition_essentially_surjective_helper</title>
<path fill="none" stroke="black" d="M1255.69,-1081.2C1468.26,-1058.06 1775.98,-1009.53 1849,-918.222 1921.54,-827.518 1760.18,-719.573 1678.14,-672.784"/>
<polygon fill="black" stroke="black" points="1679.45,-669.509 1669.02,-667.652 1676.02,-675.608 1679.45,-669.509"/>
</g>
<!-- Functorial_compose_functor_ -->
<g id="node3" class="node"><title>Functorial_compose_functor_</title>
<a xlink:href="Functorial.html#compose_functor&#39;" xlink:title="compose_functor&#39;">
<ellipse fill="#f070d1" stroke="black" cx="120" cy="-1099.22" rx="96.1665" ry="18.3848"/>
<ellipse fill="none" stroke="black" cx="120" cy="-1099.22" rx="100.167" ry="22.3848"/>
<ellipse fill="none" stroke="black" cx="120" cy="-1099.22" rx="104.167" ry="26.3848"/>
<text text-anchor="middle" x="120" y="-1095.62" font-family="Times Roman,serif" font-size="14.00">compose_functor&#39;</text>
</a>
</g>
<!-- Functorial_compose_functor_uncurried -->
<g id="node4" class="node"><title>Functorial_compose_functor_uncurried</title>
<a xlink:href="Functorial.html#compose_functor_uncurried" xlink:title="compose_functor_uncurried">
<ellipse fill="#f070d1" stroke="black" cx="441" cy="-857.222" rx="145.163" ry="18.3848"/>
<text text-anchor="middle" x="441" y="-853.622" font-family="Times Roman,serif" font-size="14.00">compose_functor_uncurried</text>
</a>
</g>
<!-- Functorial_compose_functor_&#45;&gt;Functorial_compose_functor_uncurried -->
<g id="edge6" class="edge"><title>Functorial_compose_functor_&#45;&gt;Functorial_compose_functor_uncurried</title>
<path fill="none" stroke="black" d="M153.444,-1074.01C215.404,-1027.3 347.29,-927.87 408.517,-881.711"/>
<polygon fill="black" stroke="black" points="410.795,-884.377 416.673,-875.562 406.581,-878.787 410.795,-884.377"/>
</g>
<!-- Functorial_compose_functor -->
<g id="node5" class="node"><title>Functorial_compose_functor</title>
<a xlink:href="Functorial.html#compose_functor" xlink:title="compose_functor">
<ellipse fill="#f070d1" stroke="black" cx="720" cy="-649.222" rx="94.0452" ry="18.3848"/>
<text text-anchor="middle" x="720" y="-645.622" font-family="Times Roman,serif" font-size="14.00">compose_functor</text>
</a>
</g>
<!-- Functorial_compose_functor_uncurried&#45;&gt;Functorial_compose_functor -->
<g id="edge8" class="edge"><title>Functorial_compose_functor_uncurried&#45;&gt;Functorial_compose_functor</title>
<path fill="none" stroke="black" d="M465.759,-838.764C516.246,-801.125 631.066,-715.524 687.484,-673.463"/>
<polygon fill="black" stroke="black" points="689.769,-676.126 695.694,-667.342 685.585,-670.513 689.769,-676.126"/>
</g>
<!-- Functorial_compose_functor_subproof0 -->
<g id="node6" class="node"><title>Functorial_compose_functor_subproof0</title>
<a xlink:href="Functorial.html#compose_functor_subproof0" xlink:title="compose_functor_subproof0">
<ellipse fill="#f070d1" stroke="black" cx="884" cy="-462.222" rx="147.785" ry="18.3848"/>
<text text-anchor="middle" x="884" y="-458.622" font-family="Times Roman,serif" font-size="14.00">compose_functor_subproof0</text>
</a>
</g>
<!-- Functorial_compose_functor&#45;&gt;Functorial_compose_functor_subproof0 -->
<g id="edge10" class="edge"><title>Functorial_compose_functor&#45;&gt;Functorial_compose_functor_subproof0</title>
<path fill="none" stroke="black" d="M736.024,-630.951C765.219,-597.661 827.172,-527.02 860.918,-488.542"/>
<polygon fill="black" stroke="black" points="863.706,-490.67 867.668,-480.844 858.443,-486.055 863.706,-490.67"/>
</g>
<!-- Functorial_compose_functor_subproof -->
<g id="node7" class="node"><title>Functorial_compose_functor_subproof</title>
<a xlink:href="Functorial.html#compose_functor_subproof" xlink:title="compose_functor_subproof">
<ellipse fill="#f070d1" stroke="black" cx="1191" cy="-462.222" rx="140.922" ry="18.3848"/>
<text text-anchor="middle" x="1191" y="-458.622" font-family="Times Roman,serif" font-size="14.00">compose_functor_subproof</text>
</a>
</g>
<!-- Functorial_compose_functor&#45;&gt;Functorial_compose_functor_subproof -->
<g id="edge12" class="edge"><title>Functorial_compose_functor&#45;&gt;Functorial_compose_functor_subproof</title>
<path fill="none" stroke="black" d="M761.798,-632.627C847.34,-598.665 1042.28,-521.267 1137.15,-483.603"/>
<polygon fill="black" stroke="black" points="1138.56,-486.809 1146.56,-479.866 1135.97,-480.303 1138.56,-486.809"/>
</g>
<!-- Functorial_compose_functor_morphism_of -->
<g id="node8" class="node"><title>Functorial_compose_functor_morphism_of</title>
<a xlink:href="Functorial.html#compose_functor_morphism_of" xlink:title="compose_functor_morphism_of">
<ellipse fill="#f070d1" stroke="black" cx="557" cy="-462.222" rx="161.22" ry="18.3848"/>
<text text-anchor="middle" x="557" y="-458.622" font-family="Times Roman,serif" font-size="14.00">compose_functor_morphism_of</text>
</a>
</g>
<!-- Functorial_compose_functor&#45;&gt;Functorial_compose_functor_morphism_of -->
<g id="edge14" class="edge"><title>Functorial_compose_functor&#45;&gt;Functorial_compose_functor_morphism_of</title>
<path fill="none" stroke="black" d="M704.074,-630.951C675.056,-597.661 613.482,-527.02 579.942,-488.542"/>
<polygon fill="black" stroke="black" points="582.441,-486.083 573.232,-480.844 577.164,-490.682 582.441,-486.083"/>
</g>
<!-- Core_compose_functor_subproof0 -->
<g id="node12" class="node"><title>Core_compose_functor_subproof0</title>
<a xlink:href="Core.html#compose_functor_subproof0" xlink:title="compose_functor_subproof0">
<ellipse fill="#facdef" stroke="black" cx="2084" cy="-275.222" rx="147.785" ry="18.3848"/>
<text text-anchor="middle" x="2084" y="-271.622" font-family="Times Roman,serif" font-size="14.00">compose_functor_subproof0</text>
</a>
</g>
<!-- Functorial_compose_functor_subproof0&#45;&gt;Core_compose_functor_subproof0 -->
<g id="edge16" class="edge"><title>Functorial_compose_functor_subproof0&#45;&gt;Core_compose_functor_subproof0</title>
<path fill="none" stroke="black" d="M969.919,-447.158C992.988,-443.192 1017.93,-438.975 1041,-435.222 1383.18,-379.558 1789.41,-318.759 1978.01,-290.834"/>
<polygon fill="black" stroke="black" points="1978.54,-294.293 1987.92,-289.367 1977.52,-287.369 1978.54,-294.293"/>
</g>
<!-- Core_compose_functor_subproof -->
<g id="node13" class="node"><title>Core_compose_functor_subproof</title>
<a xlink:href="Core.html#compose_functor_subproof" xlink:title="compose_functor_subproof">
<ellipse fill="#facdef" stroke="black" cx="2391" cy="-275.222" rx="140.922" ry="18.3848"/>
<text text-anchor="middle" x="2391" y="-271.622" font-family="Times Roman,serif" font-size="14.00">compose_functor_subproof</text>
</a>
</g>
<!-- Functorial_compose_functor_subproof&#45;&gt;Core_compose_functor_subproof -->
<g id="edge18" class="edge"><title>Functorial_compose_functor_subproof&#45;&gt;Core_compose_functor_subproof</title>
<path fill="none" stroke="black" d="M1282.18,-448.013C1502.07,-413.748 2060.28,-326.76 2289.94,-290.971"/>
<polygon fill="black" stroke="black" points="2290.62,-294.408 2299.96,-289.409 2289.54,-287.491 2290.62,-294.408"/>
</g>
<!-- Core_compose_functor_ -->
<g id="node9" class="node"><title>Core_compose_functor_</title>
<a xlink:href="Core.html#compose_functor&#39;" xlink:title="compose_functor&#39;">
<ellipse fill="#f070d1" stroke="black" cx="2235" cy="-857.222" rx="96.1665" ry="18.3848"/>
<ellipse fill="none" stroke="black" cx="2235" cy="-857.222" rx="100.167" ry="22.3848"/>
<ellipse fill="none" stroke="black" cx="2235" cy="-857.222" rx="104.167" ry="26.3848"/>
<text text-anchor="middle" x="2235" y="-853.622" font-family="Times Roman,serif" font-size="14.00">compose_functor&#39;</text>
</a>
</g>
<!-- Core_compose_functor_uncurried -->
<g id="node10" class="node"><title>Core_compose_functor_uncurried</title>
<a xlink:href="Core.html#compose_functor_uncurried" xlink:title="compose_functor_uncurried">
<ellipse fill="#f070d1" stroke="black" cx="2235" cy="-649.222" rx="145.163" ry="18.3848"/>
<text text-anchor="middle" x="2235" y="-645.622" font-family="Times Roman,serif" font-size="14.00">compose_functor_uncurried</text>
</a>
</g>
<!-- Core_compose_functor_&#45;&gt;Core_compose_functor_uncurried -->
<g id="edge20" class="edge"><title>Core_compose_functor_&#45;&gt;Core_compose_functor_uncurried</title>
<path fill="none" stroke="black" d="M2235,-830.456C2235,-791.258 2235,-718.527 2235,-678.141"/>
<polygon fill="black" stroke="black" points="2238.5,-677.9 2235,-667.9 2231.5,-677.9 2238.5,-677.9"/>
</g>
<!-- Core_compose_functor -->
<g id="node11" class="node"><title>Core_compose_functor</title>
<a xlink:href="Core.html#compose_functor" xlink:title="compose_functor">
<ellipse fill="#f070d1" stroke="black" cx="2235" cy="-462.222" rx="94.0452" ry="18.3848"/>
<text text-anchor="middle" x="2235" y="-458.622" font-family="Times Roman,serif" font-size="14.00">compose_functor</text>
</a>
</g>
<!-- Core_compose_functor_uncurried&#45;&gt;Core_compose_functor -->
<g id="edge22" class="edge"><title>Core_compose_functor_uncurried&#45;&gt;Core_compose_functor</title>
<path fill="none" stroke="black" d="M2235,-630.608C2235,-597.845 2235,-529.676 2235,-490.873"/>
<polygon fill="black" stroke="black" points="2238.5,-490.761 2235,-480.761 2231.5,-490.761 2238.5,-490.761"/>
</g>
<!-- Core_compose_functor&#45;&gt;Core_compose_functor_subproof0 -->
<g id="edge24" class="edge"><title>Core_compose_functor&#45;&gt;Core_compose_functor_subproof0</title>
<path fill="none" stroke="black" d="M2220.25,-443.951C2193.48,-410.8 2136.8,-340.611 2105.64,-302.027"/>
<polygon fill="black" stroke="black" points="2108.04,-299.426 2099.04,-293.844 2102.6,-303.823 2108.04,-299.426"/>
</g>
<!-- Core_compose_functor&#45;&gt;Core_compose_functor_subproof -->
<g id="edge26" class="edge"><title>Core_compose_functor&#45;&gt;Core_compose_functor_subproof</title>
<path fill="none" stroke="black" d="M2250.24,-443.951C2278.01,-410.661 2336.94,-340.02 2369.04,-301.542"/>
<polygon fill="black" stroke="black" points="2371.75,-303.765 2375.47,-293.844 2366.37,-299.281 2371.75,-303.765"/>
</g>
<!-- Core_compose_functor_morphism_of -->
<g id="node14" class="node"><title>Core_compose_functor_morphism_of</title>
<a xlink:href="Core.html#compose_functor_morphism_of" xlink:title="compose_functor_morphism_of">
<ellipse fill="#f070d1" stroke="black" cx="2234" cy="-88.2222" rx="161.22" ry="18.3848"/>
<text text-anchor="middle" x="2234" y="-84.6222" font-family="Times Roman,serif" font-size="14.00">compose_functor_morphism_of</text>
</a>
</g>
<!-- Core_compose_functor_subproof0&#45;&gt;Core_compose_functor_morphism_of -->
<g id="edge28" class="edge"><title>Core_compose_functor_subproof0&#45;&gt;Core_compose_functor_morphism_of</title>
<path fill="none" stroke="black" d="M2098.93,-256.608C2125.66,-223.284 2181.77,-153.336 2212.59,-114.909"/>
<polygon fill="black" stroke="black" points="2215.6,-116.751 2219.13,-106.761 2210.14,-112.371 2215.6,-116.751"/>
</g>
<!-- Core_compose_functor_subproof&#45;&gt;Core_compose_functor_morphism_of -->
<g id="edge30" class="edge"><title>Core_compose_functor_subproof&#45;&gt;Core_compose_functor_morphism_of</title>
<path fill="none" stroke="black" d="M2375.37,-256.608C2347.28,-223.144 2288.17,-152.747 2256,-114.426"/>
<polygon fill="black" stroke="black" points="2258.68,-112.169 2249.56,-106.761 2253.31,-116.67 2258.68,-112.169"/>
</g>
<!-- Attributes_isfaithful_precomposition_essentially_surjective&#45;&gt;Attributes_isfaithful_precomposition_essentially_surjective_helper -->
<g id="edge32" class="edge"><title>Attributes_isfaithful_precomposition_essentially_surjective&#45;&gt;Attributes_isfaithful_precomposition_essentially_surjective_helper</title>
<path fill="none" stroke="black" d="M1601.26,-838.397C1607.59,-801.812 1621.59,-720.927 1629.07,-677.727"/>
<polygon fill="black" stroke="black" points="1632.52,-678.306 1630.78,-667.855 1625.62,-677.112 1632.52,-678.306"/>
</g>
</g>
</svg>
