<?xml version="1.0" encoding="UTF-8" standalone="no"?>
<!DOCTYPE svg PUBLIC "-//W3C//DTD SVG 1.1//EN"
 "http://www.w3.org/Graphics/SVG/1.1/DTD/svg11.dtd">
<!-- Generated by graphviz version 2.39.20161220.0128 (20161220.0128)
 -->
<!-- Title: HoTT_Categories_Category_Sum Pages: 1 -->
<svg width="654pt" height="331pt"
 viewBox="0.00 0.00 654.00 331.00" xmlns="http://www.w3.org/2000/svg" xmlns:xlink="http://www.w3.org/1999/xlink">
<g id="graph0" class="graph" transform="scale(1 1) rotate(0) translate(4 327)">
<title>HoTT_Categories_Category_Sum</title>
<polygon fill="#ffffff" stroke="transparent" points="-4,4 -4,-327 650,-327 650,4 -4,4"/>
<g id="clust1" class="cluster">
<title>cluster_Sum</title>
<polygon fill="#ffffc3" stroke="#000000" points="10.903,-8 10.903,-315 635.097,-315 635.097,-8 10.903,-8"/>
<text text-anchor="middle" x="31.903" y="-299.8" font-family="Times,serif" font-size="14.00" fill="#000000">Sum</text>
</g>
<!-- Sum_sum -->
<g id="node1" class="node">
<title>Sum_sum</title>
<g id="a_node1"><a xlink:href="Sum.html#sum" xlink:title="sum">
<ellipse fill="#f070d1" stroke="#000000" cx="240.1435" cy="-258" rx="27" ry="18"/>
<ellipse fill="none" stroke="#000000" cx="240.1435" cy="-258" rx="31" ry="22"/>
<ellipse fill="none" stroke="#000000" cx="240.1435" cy="-258" rx="35" ry="26"/>
<text text-anchor="middle" x="240.1435" y="-254.3" font-family="Times,serif" font-size="14.00" fill="#000000">sum</text>
</a>
</g>
</g>
<!-- Sum_sum_subproof2 -->
<g id="node2" class="node">
<title>Sum_sum_subproof2</title>
<g id="a_node2"><a xlink:href="Sum.html#sum_subproof2" xlink:title="sum_subproof2">
<ellipse fill="#facdef" stroke="#000000" cx="112.1435" cy="-106" rx="65.7887" ry="18"/>
<text text-anchor="middle" x="112.1435" y="-102.3" font-family="Times,serif" font-size="14.00" fill="#000000">sum_subproof2</text>
</a>
</g>
</g>
<!-- Sum_sum&#45;&gt;Sum_sum_subproof2 -->
<g id="edge1" class="edge">
<title>Sum_sum&#45;&gt;Sum_sum_subproof2</title>
<path fill="none" stroke="#000000" d="M206.1129,-250.882C159.8264,-240.4311 80.8501,-219.5982 64.1435,-196 49.4603,-175.26 66.3206,-149.4923 83.9748,-130.8503"/>
<polygon fill="#000000" stroke="#000000" points="86.899,-132.8762 91.4998,-123.3325 81.9516,-127.9241 86.899,-132.8762"/>
</g>
<!-- Sum_sum_subproof1 -->
<g id="node3" class="node">
<title>Sum_sum_subproof1</title>
<g id="a_node3"><a xlink:href="Sum.html#sum_subproof1" xlink:title="sum_subproof1">
<ellipse fill="#facdef" stroke="#000000" cx="139.1435" cy="-178" rx="65.7887" ry="18"/>
<text text-anchor="middle" x="139.1435" y="-174.3" font-family="Times,serif" font-size="14.00" fill="#000000">sum_subproof1</text>
</a>
</g>
</g>
<!-- Sum_sum&#45;&gt;Sum_sum_subproof1 -->
<g id="edge2" class="edge">
<title>Sum_sum&#45;&gt;Sum_sum_subproof1</title>
<path fill="none" stroke="#000000" d="M215.9514,-238.838C201.7701,-227.6053 183.7487,-213.3309 168.7266,-201.4322"/>
<polygon fill="#000000" stroke="#000000" points="170.7451,-198.5661 160.733,-195.1007 166.3988,-204.0533 170.7451,-198.5661"/>
</g>
<!-- Sum_sum_subproof0 -->
<g id="node4" class="node">
<title>Sum_sum_subproof0</title>
<g id="a_node4"><a xlink:href="Sum.html#sum_subproof0" xlink:title="sum_subproof0">
<ellipse fill="#facdef" stroke="#000000" cx="342.1435" cy="-178" rx="65.7887" ry="18"/>
<text text-anchor="middle" x="342.1435" y="-174.3" font-family="Times,serif" font-size="14.00" fill="#000000">sum_subproof0</text>
</a>
</g>
</g>
<!-- Sum_sum&#45;&gt;Sum_sum_subproof0 -->
<g id="edge3" class="edge">
<title>Sum_sum&#45;&gt;Sum_sum_subproof0</title>
<path fill="none" stroke="#000000" d="M264.316,-239.0411C278.6316,-227.8132 296.8895,-213.4933 312.1229,-201.5455"/>
<polygon fill="#000000" stroke="#000000" points="314.522,-204.112 320.2306,-195.1866 310.202,-198.604 314.522,-204.112"/>
</g>
<!-- Sum_sum_subproof -->
<g id="node5" class="node">
<title>Sum_sum_subproof</title>
<g id="a_node5"><a xlink:href="Sum.html#sum_subproof" xlink:title="sum_subproof">
<ellipse fill="#facdef" stroke="#000000" cx="540.1435" cy="-178" rx="61.99" ry="18"/>
<text text-anchor="middle" x="540.1435" y="-174.3" font-family="Times,serif" font-size="14.00" fill="#000000">sum_subproof</text>
</a>
</g>
</g>
<!-- Sum_sum&#45;&gt;Sum_sum_subproof -->
<g id="edge4" class="edge">
<title>Sum_sum&#45;&gt;Sum_sum_subproof</title>
<path fill="none" stroke="#000000" d="M273.1069,-249.2098C324.0038,-235.6372 422.3197,-209.4197 484.4071,-192.863"/>
<polygon fill="#000000" stroke="#000000" points="485.6645,-196.1501 494.425,-190.1916 483.8608,-189.3865 485.6645,-196.1501"/>
</g>
<!-- Sum_sum_morphism -->
<g id="node8" class="node">
<title>Sum_sum_morphism</title>
<g id="a_node8"><a xlink:href="Sum.html#sum_morphism" xlink:title="sum_morphism">
<ellipse fill="#f070d1" stroke="#000000" cx="304.1435" cy="-34" rx="66.8882" ry="18"/>
<text text-anchor="middle" x="304.1435" y="-30.3" font-family="Times,serif" font-size="14.00" fill="#000000">sum_morphism</text>
</a>
</g>
</g>
<!-- Sum_sum_subproof2&#45;&gt;Sum_sum_morphism -->
<g id="edge5" class="edge">
<title>Sum_sum_subproof2&#45;&gt;Sum_sum_morphism</title>
<path fill="none" stroke="#000000" d="M150.9975,-91.4297C181.0864,-80.1464 222.9511,-64.4471 255.3059,-52.3141"/>
<polygon fill="#000000" stroke="#000000" points="256.8838,-55.4604 265.0181,-48.672 254.4259,-48.9061 256.8838,-55.4604"/>
</g>
<!-- Sum_sum_compose -->
<g id="node6" class="node">
<title>Sum_sum_compose</title>
<g id="a_node6"><a xlink:href="Sum.html#sum_compose" xlink:title="sum_compose">
<ellipse fill="#f070d1" stroke="#000000" cx="490.1435" cy="-106" rx="61.99" ry="18"/>
<text text-anchor="middle" x="490.1435" y="-102.3" font-family="Times,serif" font-size="14.00" fill="#000000">sum_compose</text>
</a>
</g>
</g>
<!-- Sum_sum_subproof1&#45;&gt;Sum_sum_compose -->
<g id="edge6" class="edge">
<title>Sum_sum_subproof1&#45;&gt;Sum_sum_compose</title>
<path fill="none" stroke="#000000" d="M192.0717,-167.1429C255.8286,-154.0646 362.6928,-132.1437 429.6511,-118.4087"/>
<polygon fill="#000000" stroke="#000000" points="430.5436,-121.7986 439.6363,-116.3604 429.1369,-114.9414 430.5436,-121.7986"/>
</g>
<!-- Sum_sum_identity -->
<g id="node7" class="node">
<title>Sum_sum_identity</title>
<g id="a_node7"><a xlink:href="Sum.html#sum_identity" xlink:title="sum_identity">
<ellipse fill="#f070d1" stroke="#000000" cx="304.1435" cy="-106" rx="57.3905" ry="18"/>
<text text-anchor="middle" x="304.1435" y="-102.3" font-family="Times,serif" font-size="14.00" fill="#000000">sum_identity</text>
</a>
</g>
</g>
<!-- Sum_sum_subproof1&#45;&gt;Sum_sum_identity -->
<g id="edge7" class="edge">
<title>Sum_sum_subproof1&#45;&gt;Sum_sum_identity</title>
<path fill="none" stroke="#000000" d="M174.1357,-162.7307C199.6066,-151.6161 234.2424,-136.5023 261.3596,-124.6693"/>
<polygon fill="#000000" stroke="#000000" points="262.8448,-127.84 270.6103,-120.6326 260.0451,-121.4242 262.8448,-127.84"/>
</g>
<!-- Sum_sum_subproof0&#45;&gt;Sum_sum_compose -->
<g id="edge8" class="edge">
<title>Sum_sum_subproof0&#45;&gt;Sum_sum_compose</title>
<path fill="none" stroke="#000000" d="M374.6227,-162.1993C396.5574,-151.5284 425.6882,-137.3566 449.2088,-125.9142"/>
<polygon fill="#000000" stroke="#000000" points="450.7876,-129.0383 458.2488,-121.5163 447.7253,-122.7437 450.7876,-129.0383"/>
</g>
<!-- Sum_sum_subproof0&#45;&gt;Sum_sum_identity -->
<g id="edge9" class="edge">
<title>Sum_sum_subproof0&#45;&gt;Sum_sum_identity</title>
<path fill="none" stroke="#000000" d="M332.5545,-159.8314C328.2464,-151.6688 323.0748,-141.87 318.3316,-132.8827"/>
<polygon fill="#000000" stroke="#000000" points="321.3607,-131.1236 313.5978,-123.9134 315.17,-134.3909 321.3607,-131.1236"/>
</g>
<!-- Sum_sum_subproof&#45;&gt;Sum_sum_compose -->
<g id="edge10" class="edge">
<title>Sum_sum_subproof&#45;&gt;Sum_sum_compose</title>
<path fill="none" stroke="#000000" d="M527.7839,-160.2022C521.8944,-151.7214 514.7348,-141.4115 508.2473,-132.0696"/>
<polygon fill="#000000" stroke="#000000" points="511.1129,-130.0599 502.5341,-123.8425 505.3633,-134.0527 511.1129,-130.0599"/>
</g>
<!-- Sum_sum_compose&#45;&gt;Sum_sum_morphism -->
<g id="edge11" class="edge">
<title>Sum_sum_compose&#45;&gt;Sum_sum_morphism</title>
<path fill="none" stroke="#000000" d="M452.9506,-91.6028C423.9357,-80.3712 383.4204,-64.6878 351.9903,-52.5213"/>
<polygon fill="#000000" stroke="#000000" points="353.1398,-49.2133 342.5506,-48.8673 350.6128,-55.7413 353.1398,-49.2133"/>
</g>
<!-- Sum_sum_identity&#45;&gt;Sum_sum_morphism -->
<g id="edge12" class="edge">
<title>Sum_sum_identity&#45;&gt;Sum_sum_morphism</title>
<path fill="none" stroke="#000000" d="M304.1435,-87.8314C304.1435,-80.131 304.1435,-70.9743 304.1435,-62.4166"/>
<polygon fill="#000000" stroke="#000000" points="307.6436,-62.4132 304.1435,-52.4133 300.6436,-62.4133 307.6436,-62.4132"/>
</g>
</g>
</svg>
