<?xml version="1.0" encoding="UTF-8" standalone="no"?>
<!DOCTYPE svg PUBLIC "-//W3C//DTD SVG 1.1//EN"
 "http://www.w3.org/Graphics/SVG/1.1/DTD/svg11.dtd">
<!-- Generated by graphviz version 2.26.3 (20100126.1600)
 -->
<!-- Title: HoTT_hit_minus1Trunc Pages: 1 -->
<svg width="2554pt" height="1281pt"
 viewBox="0.00 0.00 2554.00 1281.00" xmlns="http://www.w3.org/2000/svg" xmlns:xlink="http://www.w3.org/1999/xlink">
<g id="graph1" class="graph" transform="scale(1 1) rotate(0) translate(4 1277)">
<title>HoTT_hit_minus1Trunc</title>
<polygon fill="white" stroke="white" points="-4,5 -4,-1277 2551,-1277 2551,5 -4,5"/>
<g id="graph2" class="cluster"><title>cluster_minus1Trunc</title>
<polygon fill="#ffffc3" stroke="black" points="8,-21.6681 8,-1251.33 2538,-1251.33 2538,-21.6681 8,-21.6681"/>
<text text-anchor="middle" x="60" y="-1234.73" font-family="Times Roman,serif" font-size="14.00">minus1Trunc</text>
</g>
<g id="graph3" class="cluster"><title>cluster_minus1Trunc_minus1Trunc</title>
<polygon fill="#ffffa3" stroke="black" points="1242,-43.3362 1242,-503.783 2102,-503.783 2102,-43.3362 1242,-43.3362"/>
<text text-anchor="middle" x="1294" y="-487.183" font-family="Times Roman,serif" font-size="14.00">minus1Trunc</text>
</g>
<!-- minus1Trunc_minus1Trunc_minus1Trunc_compute_path -->
<g id="node1" class="node"><title>minus1Trunc_minus1Trunc_minus1Trunc_compute_path</title>
<a xlink:href="minus1Trunc.html#minus1Trunc.minus1Trunc_compute_path" xlink:title="minus1Trunc_compute_path">
<ellipse fill="#facdef" stroke="black" cx="1938" cy="-338.668" rx="148.018" ry="18.3848"/>
<ellipse fill="none" stroke="black" cx="1938" cy="-338.668" rx="152.005" ry="22.3848"/>
<ellipse fill="none" stroke="black" cx="1938" cy="-338.668" rx="155.992" ry="26.3848"/>
<text text-anchor="middle" x="1938" y="-335.068" font-family="Times Roman,serif" font-size="14.00">minus1Trunc_compute_path</text>
</a>
</g>
<!-- minus1Trunc_minus1Trunc_minus1Trunc_compute_min1 -->
<g id="node2" class="node"><title>minus1Trunc_minus1Trunc_minus1Trunc_compute_min1</title>
<a xlink:href="minus1Trunc.html#minus1Trunc.minus1Trunc_compute_min1" xlink:title="minus1Trunc_compute_min1">
<ellipse fill="#f070d1" stroke="black" cx="1614" cy="-338.668" rx="150.113" ry="18.3848"/>
<text text-anchor="middle" x="1614" y="-335.068" font-family="Times Roman,serif" font-size="14.00">minus1Trunc_compute_min1</text>
</a>
</g>
<!-- minus1Trunc_minus1Trunc_min1_path -->
<g id="node4" class="node"><title>minus1Trunc_minus1Trunc_min1_path</title>
<a xlink:href="minus1Trunc.html#minus1Trunc.min1_path" xlink:title="min1_path">
<ellipse fill="#facdef" stroke="black" cx="1672" cy="-116.668" rx="63.1385" ry="18.3848"/>
<text text-anchor="middle" x="1672" y="-113.068" font-family="Times Roman,serif" font-size="14.00">min1_path</text>
</a>
</g>
<!-- minus1Trunc_minus1Trunc_minus1Trunc_compute_min1&#45;&gt;minus1Trunc_minus1Trunc_min1_path -->
<g id="edge2" class="edge"><title>minus1Trunc_minus1Trunc_minus1Trunc_compute_min1&#45;&gt;minus1Trunc_minus1Trunc_min1_path</title>
<path fill="none" stroke="black" d="M1618.85,-320.122C1628.97,-281.354 1652.45,-191.51 1664.52,-145.281"/>
<polygon fill="black" stroke="black" points="1667.99,-145.877 1667.13,-135.317 1661.21,-144.108 1667.99,-145.877"/>
</g>
<!-- minus1Trunc_minus1Trunc_min1 -->
<g id="node5" class="node"><title>minus1Trunc_minus1Trunc_min1</title>
<a xlink:href="minus1Trunc.html#minus1Trunc.min1" xlink:title="min1">
<ellipse fill="#7faaff" stroke="black" cx="1555" cy="-116.668" rx="36.0624" ry="18.3848"/>
<text text-anchor="middle" x="1555" y="-113.068" font-family="Times Roman,serif" font-size="14.00">min1</text>
</a>
</g>
<!-- minus1Trunc_minus1Trunc_minus1Trunc_compute_min1&#45;&gt;minus1Trunc_minus1Trunc_min1 -->
<g id="edge4" class="edge"><title>minus1Trunc_minus1Trunc_minus1Trunc_compute_min1&#45;&gt;minus1Trunc_minus1Trunc_min1</title>
<path fill="none" stroke="black" d="M1609.07,-320.122C1598.74,-281.257 1574.77,-191.061 1562.51,-144.936"/>
<polygon fill="black" stroke="black" points="1565.82,-143.77 1559.87,-135.005 1559.06,-145.568 1565.82,-143.77"/>
</g>
<!-- minus1Trunc_minus1Trunc_minus1Trunc -->
<g id="node6" class="node"><title>minus1Trunc_minus1Trunc_minus1Trunc</title>
<a xlink:href="minus1Trunc.html#minus1Trunc.minus1Trunc" xlink:title="minus1Trunc">
<ellipse fill="#e2cdfa" stroke="black" cx="2021" cy="-116.668" rx="73.0388" ry="18.3848"/>
<text text-anchor="middle" x="2021" y="-113.068" font-family="Times Roman,serif" font-size="14.00">minus1Trunc</text>
</a>
</g>
<!-- minus1Trunc_minus1Trunc_minus1Trunc_compute_min1&#45;&gt;minus1Trunc_minus1Trunc_minus1Trunc -->
<g id="edge6" class="edge"><title>minus1Trunc_minus1Trunc_minus1Trunc_compute_min1&#45;&gt;minus1Trunc_minus1Trunc_minus1Trunc</title>
<path fill="none" stroke="black" d="M1647.31,-320.501C1721.71,-279.918 1901.15,-182.041 1981.24,-138.355"/>
<polygon fill="black" stroke="black" points="1982.94,-141.413 1990.05,-133.552 1979.59,-135.268 1982.94,-141.413"/>
</g>
<!-- minus1Trunc_minus1Trunc_minus1Trunc_rect -->
<g id="node3" class="node"><title>minus1Trunc_minus1Trunc_minus1Trunc_rect</title>
<a xlink:href="minus1Trunc.html#minus1Trunc.minus1Trunc_rect" xlink:title="minus1Trunc_rect">
<ellipse fill="#f070d1" stroke="black" cx="1348" cy="-338.668" rx="97.7889" ry="18.3848"/>
<text text-anchor="middle" x="1348" y="-335.068" font-family="Times Roman,serif" font-size="14.00">minus1Trunc_rect</text>
</a>
</g>
<!-- minus1Trunc_minus1Trunc_minus1Trunc_rect&#45;&gt;minus1Trunc_minus1Trunc_min1_path -->
<g id="edge8" class="edge"><title>minus1Trunc_minus1Trunc_minus1Trunc_rect&#45;&gt;minus1Trunc_minus1Trunc_min1_path</title>
<path fill="none" stroke="black" d="M1374.24,-320.689C1432.66,-280.663 1573.38,-184.243 1638.23,-139.806"/>
<polygon fill="black" stroke="black" points="1640.59,-142.432 1646.86,-133.893 1636.63,-136.658 1640.59,-142.432"/>
</g>
<!-- minus1Trunc_minus1Trunc_minus1Trunc_rect&#45;&gt;minus1Trunc_minus1Trunc_min1 -->
<g id="edge10" class="edge"><title>minus1Trunc_minus1Trunc_minus1Trunc_rect&#45;&gt;minus1Trunc_minus1Trunc_min1</title>
<path fill="none" stroke="black" d="M1365.29,-320.122C1402.6,-280.111 1490.64,-185.697 1532.34,-140.973"/>
<polygon fill="black" stroke="black" points="1535.07,-143.178 1539.33,-133.477 1529.95,-138.404 1535.07,-143.178"/>
</g>
<!-- minus1Trunc_minus1Trunc_minus1Trunc_rect&#45;&gt;minus1Trunc_minus1Trunc_minus1Trunc -->
<g id="edge12" class="edge"><title>minus1Trunc_minus1Trunc_minus1Trunc_rect&#45;&gt;minus1Trunc_minus1Trunc_minus1Trunc</title>
<path fill="none" stroke="black" d="M1396.94,-322.524C1519.43,-282.119 1838.54,-176.854 1966.63,-134.603"/>
<polygon fill="black" stroke="black" points="1967.84,-137.888 1976.24,-131.431 1965.65,-131.24 1967.84,-137.888"/>
</g>
<!-- minus1Trunc_hexists -->
<g id="node7" class="node"><title>minus1Trunc_hexists</title>
<a xlink:href="minus1Trunc.html#hexists" xlink:title="hexists">
<ellipse fill="#f070d1" stroke="black" cx="2468" cy="-338.668" rx="45.9619" ry="18.3848"/>
<ellipse fill="none" stroke="black" cx="2468" cy="-338.668" rx="49.9619" ry="22.3848"/>
<ellipse fill="none" stroke="black" cx="2468" cy="-338.668" rx="53.9619" ry="26.3848"/>
<text text-anchor="middle" x="2468" y="-335.068" font-family="Times Roman,serif" font-size="14.00">hexists</text>
</a>
</g>
<!-- minus1Trunc_hexists&#45;&gt;minus1Trunc_minus1Trunc_minus1Trunc -->
<g id="edge14" class="edge"><title>minus1Trunc_hexists&#45;&gt;minus1Trunc_minus1Trunc_minus1Trunc</title>
<path fill="none" stroke="black" d="M2429.89,-319.74C2346.88,-278.514 2150.24,-180.853 2063.44,-137.743"/>
<polygon fill="black" stroke="black" points="2064.91,-134.567 2054.39,-133.253 2061.79,-140.836 2064.91,-134.567"/>
</g>
<!-- minus1Trunc_strength_pentagon_2 -->
<g id="node8" class="node"><title>minus1Trunc_strength_pentagon_2</title>
<a xlink:href="minus1Trunc.html#strength_pentagon_2" xlink:title="strength_pentagon_2">
<ellipse fill="#facdef" stroke="black" cx="1348" cy="-1085.67" rx="116.204" ry="18.3848"/>
<ellipse fill="none" stroke="black" cx="1348" cy="-1085.67" rx="120.188" ry="22.3848"/>
<ellipse fill="none" stroke="black" cx="1348" cy="-1085.67" rx="124.172" ry="26.3848"/>
<text text-anchor="middle" x="1348" y="-1082.07" font-family="Times Roman,serif" font-size="14.00">strength_pentagon_2</text>
</a>
</g>
<!-- minus1Trunc_t -->
<g id="node14" class="node"><title>minus1Trunc_t</title>
<a xlink:href="minus1Trunc.html#t" xlink:title="t">
<ellipse fill="#f070d1" stroke="black" cx="1201" cy="-842.668" rx="27" ry="18.3848"/>
<text text-anchor="middle" x="1201" y="-839.068" font-family="Times Roman,serif" font-size="14.00">t</text>
</a>
</g>
<!-- minus1Trunc_strength_pentagon_2&#45;&gt;minus1Trunc_t -->
<g id="edge16" class="edge"><title>minus1Trunc_strength_pentagon_2&#45;&gt;minus1Trunc_t</title>
<path fill="none" stroke="black" d="M1331.99,-1059.2C1303.6,-1012.26 1244.77,-915.028 1216.64,-868.53"/>
<polygon fill="black" stroke="black" points="1219.62,-866.681 1211.45,-859.936 1213.63,-870.304 1219.62,-866.681"/>
</g>
<!-- minus1Trunc_mu -->
<g id="node19" class="node"><title>minus1Trunc_mu</title>
<a xlink:href="minus1Trunc.html#mu" xlink:title="mu">
<ellipse fill="#f070d1" stroke="black" cx="1495" cy="-842.668" rx="27" ry="18.3848"/>
<text text-anchor="middle" x="1495" y="-839.068" font-family="Times Roman,serif" font-size="14.00">mu</text>
</a>
</g>
<!-- minus1Trunc_strength_pentagon_2&#45;&gt;minus1Trunc_mu -->
<g id="edge18" class="edge"><title>minus1Trunc_strength_pentagon_2&#45;&gt;minus1Trunc_mu</title>
<path fill="none" stroke="black" d="M1364.01,-1059.2C1392.4,-1012.26 1451.23,-915.028 1479.36,-868.53"/>
<polygon fill="black" stroke="black" points="1482.37,-870.304 1484.55,-859.936 1476.38,-866.681 1482.37,-870.304"/>
</g>
<!-- minus1Trunc_minus1Trunc_map -->
<g id="node24" class="node"><title>minus1Trunc_minus1Trunc_map</title>
<a xlink:href="minus1Trunc.html#minus1Trunc_map" xlink:title="minus1Trunc_map">
<ellipse fill="#f070d1" stroke="black" cx="881" cy="-842.668" rx="99.201" ry="18.3848"/>
<text text-anchor="middle" x="881" y="-839.068" font-family="Times Roman,serif" font-size="14.00">minus1Trunc_map</text>
</a>
</g>
<!-- minus1Trunc_strength_pentagon_2&#45;&gt;minus1Trunc_minus1Trunc_map -->
<g id="edge20" class="edge"><title>minus1Trunc_strength_pentagon_2&#45;&gt;minus1Trunc_minus1Trunc_map</title>
<path fill="none" stroke="black" d="M1300.65,-1061.03C1209.48,-1013.59 1010.87,-910.243 923.586,-864.828"/>
<polygon fill="black" stroke="black" points="924.986,-861.611 914.5,-860.099 921.755,-867.82 924.986,-861.611"/>
</g>
<!-- minus1Trunc_strength_pentagon_1 -->
<g id="node9" class="node"><title>minus1Trunc_strength_pentagon_1</title>
<a xlink:href="minus1Trunc.html#strength_pentagon_1" xlink:title="strength_pentagon_1">
<ellipse fill="#facdef" stroke="black" cx="1614" cy="-1085.67" rx="116.204" ry="18.3848"/>
<ellipse fill="none" stroke="black" cx="1614" cy="-1085.67" rx="120.188" ry="22.3848"/>
<ellipse fill="none" stroke="black" cx="1614" cy="-1085.67" rx="124.172" ry="26.3848"/>
<text text-anchor="middle" x="1614" y="-1082.07" font-family="Times Roman,serif" font-size="14.00">strength_pentagon_1</text>
</a>
</g>
<!-- minus1Trunc_alpha -->
<g id="node10" class="node"><title>minus1Trunc_alpha</title>
<a xlink:href="minus1Trunc.html#alpha" xlink:title="alpha">
<ellipse fill="#f070d1" stroke="black" cx="1578" cy="-842.668" rx="38.1838" ry="18.3848"/>
<text text-anchor="middle" x="1578" y="-839.068" font-family="Times Roman,serif" font-size="14.00">alpha</text>
</a>
</g>
<!-- minus1Trunc_strength_pentagon_1&#45;&gt;minus1Trunc_alpha -->
<g id="edge22" class="edge"><title>minus1Trunc_strength_pentagon_1&#45;&gt;minus1Trunc_alpha</title>
<path fill="none" stroke="black" d="M1610.01,-1058.73C1603.17,-1012.55 1589.26,-918.665 1582.25,-871.325"/>
<polygon fill="black" stroke="black" points="1585.71,-870.803 1580.78,-861.423 1578.78,-871.828 1585.71,-870.803"/>
</g>
<!-- minus1Trunc_strength_pentagon_1&#45;&gt;minus1Trunc_t -->
<g id="edge24" class="edge"><title>minus1Trunc_strength_pentagon_1&#45;&gt;minus1Trunc_t</title>
<path fill="none" stroke="black" d="M1566.76,-1061.03C1494.25,-1022.68 1351.85,-945.226 1237,-869.668 1233.81,-867.569 1230.53,-865.288 1227.3,-862.97"/>
<polygon fill="black" stroke="black" points="1229.13,-859.968 1219,-856.85 1224.97,-865.602 1229.13,-859.968"/>
</g>
<!-- minus1Trunc_strength_pentagon_1&#45;&gt;minus1Trunc_minus1Trunc_map -->
<g id="edge26" class="edge"><title>minus1Trunc_strength_pentagon_1&#45;&gt;minus1Trunc_minus1Trunc_map</title>
<path fill="none" stroke="black" d="M1546.68,-1063.35C1404.08,-1016.08 1073.67,-906.542 939.355,-862.014"/>
<polygon fill="black" stroke="black" points="940.239,-858.619 929.646,-858.795 938.036,-865.264 940.239,-858.619"/>
</g>
<!-- minus1Trunc_strength_eta -->
<g id="node11" class="node"><title>minus1Trunc_strength_eta</title>
<a xlink:href="minus1Trunc.html#strength_eta" xlink:title="strength_eta">
<ellipse fill="#facdef" stroke="black" cx="2121" cy="-1085.67" rx="74.9533" ry="18.3848"/>
<ellipse fill="none" stroke="black" cx="2121" cy="-1085.67" rx="78.9533" ry="22.3848"/>
<ellipse fill="none" stroke="black" cx="2121" cy="-1085.67" rx="82.9533" ry="26.3848"/>
<text text-anchor="middle" x="2121" y="-1082.07" font-family="Times Roman,serif" font-size="14.00">strength_eta</text>
</a>
</g>
<!-- minus1Trunc_strength_eta&#45;&gt;minus1Trunc_t -->
<g id="edge28" class="edge"><title>minus1Trunc_strength_eta&#45;&gt;minus1Trunc_t</title>
<path fill="none" stroke="black" d="M2060.25,-1067.36C2049.85,-1064.37 2039.13,-1061.36 2029,-1058.67 1679.27,-965.684 1564.59,-1023.44 1237,-869.668 1233.29,-867.925 1229.58,-865.762 1226.04,-863.423"/>
<polygon fill="black" stroke="black" points="1227.82,-860.388 1217.65,-857.39 1223.73,-866.071 1227.82,-860.388"/>
</g>
<!-- minus1Trunc_eta -->
<g id="node21" class="node"><title>minus1Trunc_eta</title>
<a xlink:href="minus1Trunc.html#eta" xlink:title="eta">
<ellipse fill="#f070d1" stroke="black" cx="2075" cy="-842.668" rx="27.0758" ry="18.3848"/>
<text text-anchor="middle" x="2075" y="-839.068" font-family="Times Roman,serif" font-size="14.00">eta</text>
</a>
</g>
<!-- minus1Trunc_strength_eta&#45;&gt;minus1Trunc_eta -->
<g id="edge30" class="edge"><title>minus1Trunc_strength_eta&#45;&gt;minus1Trunc_eta</title>
<path fill="none" stroke="black" d="M2115.99,-1059.2C2107.27,-1013.11 2089.36,-918.527 2080.38,-871.101"/>
<polygon fill="black" stroke="black" points="2083.81,-870.365 2078.51,-861.191 2076.93,-871.667 2083.81,-870.365"/>
</g>
<!-- minus1Trunc_strength_unit -->
<g id="node12" class="node"><title>minus1Trunc_strength_unit</title>
<a xlink:href="minus1Trunc.html#strength_unit" xlink:title="strength_unit">
<ellipse fill="#facdef" stroke="black" cx="838" cy="-1085.67" rx="78.0352" ry="18.3848"/>
<ellipse fill="none" stroke="black" cx="838" cy="-1085.67" rx="82.012" ry="22.3848"/>
<ellipse fill="none" stroke="black" cx="838" cy="-1085.67" rx="85.9889" ry="26.3848"/>
<text text-anchor="middle" x="838" y="-1082.07" font-family="Times Roman,serif" font-size="14.00">strength_unit</text>
</a>
</g>
<!-- minus1Trunc_strength_unit&#45;&gt;minus1Trunc_t -->
<g id="edge32" class="edge"><title>minus1Trunc_strength_unit&#45;&gt;minus1Trunc_t</title>
<path fill="none" stroke="black" d="M875.759,-1061.77C937.149,-1022.67 1062.09,-942.149 1165,-869.668 1168.12,-867.469 1171.36,-865.126 1174.57,-862.773"/>
<polygon fill="black" stroke="black" points="1176.91,-865.394 1182.84,-856.617 1172.73,-859.778 1176.91,-865.394"/>
</g>
<!-- minus1Trunc_strength_unit&#45;&gt;minus1Trunc_minus1Trunc_map -->
<g id="edge34" class="edge"><title>minus1Trunc_strength_unit&#45;&gt;minus1Trunc_minus1Trunc_map</title>
<path fill="none" stroke="black" d="M842.684,-1059.2C850.839,-1013.11 867.576,-918.527 875.969,-871.101"/>
<polygon fill="black" stroke="black" points="879.426,-871.648 877.722,-861.191 872.533,-870.428 879.426,-871.648"/>
</g>
<!-- minus1Trunc_t_natural -->
<g id="node13" class="node"><title>minus1Trunc_t_natural</title>
<a xlink:href="minus1Trunc.html#t_natural" xlink:title="t_natural">
<ellipse fill="#facdef" stroke="black" cx="670" cy="-1085.67" rx="56.13" ry="18.3848"/>
<ellipse fill="none" stroke="black" cx="670" cy="-1085.67" rx="60.099" ry="22.3848"/>
<ellipse fill="none" stroke="black" cx="670" cy="-1085.67" rx="64.068" ry="26.3848"/>
<text text-anchor="middle" x="670" y="-1082.07" font-family="Times Roman,serif" font-size="14.00">t_natural</text>
</a>
</g>
<!-- minus1Trunc_t_natural&#45;&gt;minus1Trunc_t -->
<g id="edge36" class="edge"><title>minus1Trunc_t_natural&#45;&gt;minus1Trunc_t</title>
<path fill="none" stroke="black" d="M716.256,-1067.09C822.927,-1024 1083.27,-917.277 1165,-869.668 1168.47,-867.647 1172,-865.348 1175.42,-862.966"/>
<polygon fill="black" stroke="black" points="1177.61,-865.703 1183.62,-856.98 1173.48,-860.05 1177.61,-865.703"/>
</g>
<!-- minus1Trunc_t_natural&#45;&gt;minus1Trunc_minus1Trunc_map -->
<g id="edge38" class="edge"><title>minus1Trunc_t_natural&#45;&gt;minus1Trunc_minus1Trunc_map</title>
<path fill="none" stroke="black" d="M691.786,-1060.58C731.998,-1014.27 817.496,-915.803 858.349,-868.755"/>
<polygon fill="black" stroke="black" points="861.059,-870.971 864.973,-861.126 855.774,-866.382 861.059,-870.971"/>
</g>
<!-- minus1Trunc_minus1Trunc_rect_nondep -->
<g id="node35" class="node"><title>minus1Trunc_minus1Trunc_rect_nondep</title>
<a xlink:href="minus1Trunc.html#minus1Trunc_rect_nondep" xlink:title="minus1Trunc_rect_nondep">
<ellipse fill="#f070d1" stroke="black" cx="1348" cy="-598.668" rx="138.801" ry="18.3848"/>
<text text-anchor="middle" x="1348" y="-595.068" font-family="Times Roman,serif" font-size="14.00">minus1Trunc_rect_nondep</text>
</a>
</g>
<!-- minus1Trunc_t&#45;&gt;minus1Trunc_minus1Trunc_rect_nondep -->
<g id="edge40" class="edge"><title>minus1Trunc_t&#45;&gt;minus1Trunc_minus1Trunc_rect_nondep</title>
<path fill="none" stroke="black" d="M1211.34,-825.51C1236.5,-783.744 1301.1,-676.508 1331.6,-625.892"/>
<polygon fill="black" stroke="black" points="1334.72,-627.501 1336.88,-617.129 1328.72,-623.888 1334.72,-627.501"/>
</g>
<!-- minus1Trunc_mu_1 -->
<g id="node15" class="node"><title>minus1Trunc_mu_1</title>
<a xlink:href="minus1Trunc.html#mu_1" xlink:title="mu_1">
<ellipse fill="#facdef" stroke="black" cx="989" cy="-1085.67" rx="38.8909" ry="18.3848"/>
<ellipse fill="none" stroke="black" cx="989" cy="-1085.67" rx="42.8909" ry="22.3848"/>
<ellipse fill="none" stroke="black" cx="989" cy="-1085.67" rx="46.8909" ry="26.3848"/>
<text text-anchor="middle" x="989" y="-1082.07" font-family="Times Roman,serif" font-size="14.00">mu_1</text>
</a>
</g>
<!-- minus1Trunc_mu_1&#45;&gt;minus1Trunc_mu -->
<g id="edge42" class="edge"><title>minus1Trunc_mu_1&#45;&gt;minus1Trunc_mu</title>
<path fill="none" stroke="black" d="M1024.8,-1068.27C1031.5,-1065.05 1038.45,-1061.74 1045,-1058.67 1228.11,-972.741 1285.09,-972.946 1459,-869.668 1462.45,-867.617 1465.97,-865.302 1469.39,-862.91"/>
<polygon fill="black" stroke="black" points="1471.58,-865.645 1477.58,-856.916 1467.45,-859.995 1471.58,-865.645"/>
</g>
<!-- minus1Trunc_mu_1&#45;&gt;minus1Trunc_minus1Trunc_map -->
<g id="edge44" class="edge"><title>minus1Trunc_mu_1&#45;&gt;minus1Trunc_minus1Trunc_map</title>
<path fill="none" stroke="black" d="M977.442,-1059.66C956.969,-1013.6 914.507,-918.058 893.428,-870.631"/>
<polygon fill="black" stroke="black" points="896.53,-868.993 889.27,-861.276 890.133,-871.836 896.53,-868.993"/>
</g>
<!-- minus1Trunc_eta_2 -->
<g id="node16" class="node"><title>minus1Trunc_eta_2</title>
<a xlink:href="minus1Trunc.html#eta_2" xlink:title="eta_2">
<ellipse fill="#facdef" stroke="black" cx="1803" cy="-1085.67" rx="39.1812" ry="18.3848"/>
<ellipse fill="none" stroke="black" cx="1803" cy="-1085.67" rx="43.1391" ry="22.3848"/>
<ellipse fill="none" stroke="black" cx="1803" cy="-1085.67" rx="47.0969" ry="26.3848"/>
<text text-anchor="middle" x="1803" y="-1082.07" font-family="Times Roman,serif" font-size="14.00">eta_2</text>
</a>
</g>
<!-- minus1Trunc_eta_2&#45;&gt;minus1Trunc_mu -->
<g id="edge46" class="edge"><title>minus1Trunc_eta_2&#45;&gt;minus1Trunc_mu</title>
<path fill="none" stroke="black" d="M1775.67,-1064.1C1716.73,-1017.61 1578.38,-908.453 1520.83,-863.044"/>
<polygon fill="black" stroke="black" points="1522.96,-860.268 1512.94,-856.822 1518.62,-865.764 1522.96,-860.268"/>
</g>
<!-- minus1Trunc_eta_2&#45;&gt;minus1Trunc_eta -->
<g id="edge48" class="edge"><title>minus1Trunc_eta_2&#45;&gt;minus1Trunc_eta</title>
<path fill="none" stroke="black" d="M1828.1,-1063.24C1880.16,-1016.74 1999.29,-910.306 2050.67,-864.401"/>
<polygon fill="black" stroke="black" points="2053.19,-866.844 2058.32,-857.571 2048.53,-861.624 2053.19,-866.844"/>
</g>
<!-- minus1Trunc_eta_2&#45;&gt;minus1Trunc_minus1Trunc_map -->
<g id="edge50" class="edge"><title>minus1Trunc_eta_2&#45;&gt;minus1Trunc_minus1Trunc_map</title>
<path fill="none" stroke="black" d="M1768.22,-1067.55C1761.3,-1064.33 1754,-1061.2 1747,-1058.67 1420.47,-940.654 1325.86,-953.773 989,-869.668 976.448,-866.534 963.077,-863.193 950.172,-859.968"/>
<polygon fill="black" stroke="black" points="950.966,-856.559 940.416,-857.529 949.269,-863.35 950.966,-856.559"/>
</g>
<!-- minus1Trunc_eta_1 -->
<g id="node17" class="node"><title>minus1Trunc_eta_1</title>
<a xlink:href="minus1Trunc.html#eta_1" xlink:title="eta_1">
<ellipse fill="#facdef" stroke="black" cx="2269" cy="-1085.67" rx="39.1812" ry="18.3848"/>
<ellipse fill="none" stroke="black" cx="2269" cy="-1085.67" rx="43.1391" ry="22.3848"/>
<ellipse fill="none" stroke="black" cx="2269" cy="-1085.67" rx="47.0969" ry="26.3848"/>
<text text-anchor="middle" x="2269" y="-1082.07" font-family="Times Roman,serif" font-size="14.00">eta_1</text>
</a>
</g>
<!-- minus1Trunc_eta_1&#45;&gt;minus1Trunc_mu -->
<g id="edge52" class="edge"><title>minus1Trunc_eta_1&#45;&gt;minus1Trunc_mu</title>
<path fill="none" stroke="black" d="M2234.17,-1067.69C2227.25,-1064.46 2219.97,-1061.29 2213,-1058.67 1918.61,-947.924 1813.27,-1008.44 1531,-869.668 1527.32,-867.859 1523.63,-865.656 1520.1,-863.297"/>
<polygon fill="black" stroke="black" points="1521.88,-860.263 1511.72,-857.247 1517.78,-865.939 1521.88,-860.263"/>
</g>
<!-- minus1Trunc_eta_1&#45;&gt;minus1Trunc_eta -->
<g id="edge54" class="edge"><title>minus1Trunc_eta_1&#45;&gt;minus1Trunc_eta</title>
<path fill="none" stroke="black" d="M2249.69,-1061.48C2212.61,-1015.03 2131.81,-913.826 2094.54,-867.149"/>
<polygon fill="black" stroke="black" points="2097.09,-864.724 2088.11,-859.093 2091.62,-869.092 2097.09,-864.724"/>
</g>
<!-- minus1Trunc_mu_natural -->
<g id="node18" class="node"><title>minus1Trunc_mu_natural</title>
<a xlink:href="minus1Trunc.html#mu_natural" xlink:title="mu_natural">
<ellipse fill="#facdef" stroke="black" cx="1130" cy="-1085.67" rx="67.8823" ry="18.3848"/>
<ellipse fill="none" stroke="black" cx="1130" cy="-1085.67" rx="71.8823" ry="22.3848"/>
<ellipse fill="none" stroke="black" cx="1130" cy="-1085.67" rx="75.8823" ry="26.3848"/>
<text text-anchor="middle" x="1130" y="-1082.07" font-family="Times Roman,serif" font-size="14.00">mu_natural</text>
</a>
</g>
<!-- minus1Trunc_mu_natural&#45;&gt;minus1Trunc_mu -->
<g id="edge56" class="edge"><title>minus1Trunc_mu_natural&#45;&gt;minus1Trunc_mu</title>
<path fill="none" stroke="black" d="M1167.01,-1062.43C1228.44,-1023.64 1354.99,-942.706 1459,-869.668 1462.12,-867.474 1465.37,-865.133 1468.57,-862.782"/>
<polygon fill="black" stroke="black" points="1470.91,-865.403 1476.85,-856.628 1466.74,-859.786 1470.91,-865.403"/>
</g>
<!-- minus1Trunc_mu_natural&#45;&gt;minus1Trunc_minus1Trunc_map -->
<g id="edge58" class="edge"><title>minus1Trunc_mu_natural&#45;&gt;minus1Trunc_minus1Trunc_map</title>
<path fill="none" stroke="black" d="M1104.29,-1060.58C1056.64,-1014.08 955.106,-914.988 907.136,-868.174"/>
<polygon fill="black" stroke="black" points="909.515,-865.605 899.913,-861.126 904.626,-870.615 909.515,-865.605"/>
</g>
<!-- minus1Trunc_mu&#45;&gt;minus1Trunc_minus1Trunc_rect_nondep -->
<g id="edge60" class="edge"><title>minus1Trunc_mu&#45;&gt;minus1Trunc_minus1Trunc_rect_nondep</title>
<path fill="none" stroke="black" d="M1484.66,-825.51C1459.5,-783.744 1394.9,-676.508 1364.4,-625.892"/>
<polygon fill="black" stroke="black" points="1367.28,-623.888 1359.12,-617.129 1361.28,-627.501 1367.28,-623.888"/>
</g>
<!-- minus1Trunc_eta_natural -->
<g id="node20" class="node"><title>minus1Trunc_eta_natural</title>
<a xlink:href="minus1Trunc.html#eta_natural" xlink:title="eta_natural">
<ellipse fill="#f070d1" stroke="black" cx="1944" cy="-1085.67" rx="68.1411" ry="18.3848"/>
<ellipse fill="none" stroke="black" cx="1944" cy="-1085.67" rx="72.1149" ry="22.3848"/>
<ellipse fill="none" stroke="black" cx="1944" cy="-1085.67" rx="76.0888" ry="26.3848"/>
<text text-anchor="middle" x="1944" y="-1082.07" font-family="Times Roman,serif" font-size="14.00">eta_natural</text>
</a>
</g>
<!-- minus1Trunc_eta_natural&#45;&gt;minus1Trunc_eta -->
<g id="edge62" class="edge"><title>minus1Trunc_eta_natural&#45;&gt;minus1Trunc_eta</title>
<path fill="none" stroke="black" d="M1958.27,-1059.2C1983.46,-1012.48 2035.52,-915.909 2060.72,-869.165"/>
<polygon fill="black" stroke="black" points="2063.86,-870.71 2065.52,-860.246 2057.7,-867.388 2063.86,-870.71"/>
</g>
<!-- minus1Trunc_eta_natural&#45;&gt;minus1Trunc_minus1Trunc_map -->
<g id="edge64" class="edge"><title>minus1Trunc_eta_natural&#45;&gt;minus1Trunc_minus1Trunc_map</title>
<path fill="none" stroke="black" d="M1888.9,-1067.34C1878.99,-1064.28 1868.72,-1061.26 1859,-1058.67 1476.69,-956.661 1374.32,-959.663 989,-869.668 976.177,-866.673 962.53,-863.36 949.405,-860.11"/>
<polygon fill="black" stroke="black" points="950.042,-856.662 939.493,-857.643 948.352,-863.455 950.042,-856.662"/>
</g>
<!-- minus1Trunc_eta&#45;&gt;minus1Trunc_minus1Trunc_min1 -->
<g id="edge66" class="edge"><title>minus1Trunc_eta&#45;&gt;minus1Trunc_minus1Trunc_min1</title>
<path fill="none" stroke="black" d="M2077.34,-823.957C2088.35,-734.634 2133.15,-354.159 2103,-311.668 1965.94,-118.507 1820.98,-220.885 1600,-135.668 1597.49,-134.7 1594.91,-133.681 1592.32,-132.637"/>
<polygon fill="black" stroke="black" points="1593.55,-129.36 1582.97,-128.801 1590.9,-135.836 1593.55,-129.36"/>
</g>
<!-- minus1Trunc_minus1Trunc_map_compose -->
<g id="node22" class="node"><title>minus1Trunc_minus1Trunc_map_compose</title>
<a xlink:href="minus1Trunc.html#minus1Trunc_map_compose" xlink:title="minus1Trunc_map_compose">
<ellipse fill="#f070d1" stroke="black" cx="171" cy="-1085.67" rx="147.078" ry="18.3848"/>
<ellipse fill="none" stroke="black" cx="171" cy="-1085.67" rx="151.078" ry="22.3848"/>
<ellipse fill="none" stroke="black" cx="171" cy="-1085.67" rx="155.078" ry="26.3848"/>
<text text-anchor="middle" x="171" y="-1082.07" font-family="Times Roman,serif" font-size="14.00">minus1Trunc_map_compose</text>
</a>
</g>
<!-- minus1Trunc_minus1Trunc_map_compose&#45;&gt;minus1Trunc_minus1Trunc_map -->
<g id="edge68" class="edge"><title>minus1Trunc_minus1Trunc_map_compose&#45;&gt;minus1Trunc_minus1Trunc_map</title>
<path fill="none" stroke="black" d="M240.371,-1061.93C380.311,-1014.03 694.088,-906.639 823.505,-862.346"/>
<polygon fill="black" stroke="black" points="824.91,-865.565 833.238,-859.015 822.643,-858.942 824.91,-865.565"/>
</g>
<!-- minus1Trunc_minus1Trunc_map_id -->
<g id="node23" class="node"><title>minus1Trunc_minus1Trunc_map_id</title>
<a xlink:href="minus1Trunc.html#minus1Trunc_map_id" xlink:title="minus1Trunc_map_id">
<ellipse fill="#f070d1" stroke="black" cx="466" cy="-1085.67" rx="113.844" ry="18.3848"/>
<ellipse fill="none" stroke="black" cx="466" cy="-1085.67" rx="117.844" ry="22.3848"/>
<ellipse fill="none" stroke="black" cx="466" cy="-1085.67" rx="121.844" ry="26.3848"/>
<text text-anchor="middle" x="466" y="-1082.07" font-family="Times Roman,serif" font-size="14.00">minus1Trunc_map_id</text>
</a>
</g>
<!-- minus1Trunc_minus1Trunc_map_id&#45;&gt;minus1Trunc_minus1Trunc_map -->
<g id="edge70" class="edge"><title>minus1Trunc_minus1Trunc_map_id&#45;&gt;minus1Trunc_minus1Trunc_map</title>
<path fill="none" stroke="black" d="M508.462,-1060.8C589.157,-1013.55 763.564,-911.432 841.721,-865.668"/>
<polygon fill="black" stroke="black" points="843.902,-868.447 850.763,-860.373 840.365,-862.406 843.902,-868.447"/>
</g>
<!-- minus1Trunc_minus1Trunc_map_dep -->
<g id="node25" class="node"><title>minus1Trunc_minus1Trunc_map_dep</title>
<a xlink:href="minus1Trunc.html#minus1Trunc_map_dep" xlink:title="minus1Trunc_map_dep">
<ellipse fill="#f070d1" stroke="black" cx="975" cy="-598.668" rx="121.83" ry="18.3848"/>
<text text-anchor="middle" x="975" y="-595.068" font-family="Times Roman,serif" font-size="14.00">minus1Trunc_map_dep</text>
</a>
</g>
<!-- minus1Trunc_minus1Trunc_map&#45;&gt;minus1Trunc_minus1Trunc_map_dep -->
<g id="edge72" class="edge"><title>minus1Trunc_minus1Trunc_map&#45;&gt;minus1Trunc_minus1Trunc_map_dep</title>
<path fill="none" stroke="black" d="M888.22,-823.927C904.63,-781.332 944.804,-677.05 964.188,-626.733"/>
<polygon fill="black" stroke="black" points="967.555,-627.729 967.884,-617.139 961.023,-625.212 967.555,-627.729"/>
</g>
<!-- minus1Trunc_minus1Trunc_map_dep&#45;&gt;minus1Trunc_minus1Trunc_minus1Trunc_rect -->
<g id="edge74" class="edge"><title>minus1Trunc_minus1Trunc_map_dep&#45;&gt;minus1Trunc_minus1Trunc_minus1Trunc_rect</title>
<path fill="none" stroke="black" d="M1001.23,-580.385C1067.2,-534.401 1240.01,-413.942 1313.8,-362.506"/>
<polygon fill="black" stroke="black" points="1316.09,-365.175 1322.3,-356.585 1312.09,-359.433 1316.09,-365.175"/>
</g>
<!-- minus1Trunc_epi_mono_equiv -->
<g id="node26" class="node"><title>minus1Trunc_epi_mono_equiv</title>
<a xlink:href="minus1Trunc.html#epi_mono_equiv" xlink:title="epi_mono_equiv">
<ellipse fill="#f070d1" stroke="black" cx="2432" cy="-1085.67" rx="90.0502" ry="18.3848"/>
<ellipse fill="none" stroke="black" cx="2432" cy="-1085.67" rx="94.0299" ry="22.3848"/>
<ellipse fill="none" stroke="black" cx="2432" cy="-1085.67" rx="98.0096" ry="26.3848"/>
<text text-anchor="middle" x="2432" y="-1082.07" font-family="Times Roman,serif" font-size="14.00">epi_mono_equiv</text>
</a>
</g>
<!-- minus1Trunc_is_mono -->
<g id="node27" class="node"><title>minus1Trunc_is_mono</title>
<a xlink:href="minus1Trunc.html#is_mono" xlink:title="is_mono">
<ellipse fill="#f070d1" stroke="black" cx="2171" cy="-842.668" rx="51.1176" ry="18.3848"/>
<text text-anchor="middle" x="2171" y="-839.068" font-family="Times Roman,serif" font-size="14.00">is_mono</text>
</a>
</g>
<!-- minus1Trunc_epi_mono_equiv&#45;&gt;minus1Trunc_is_mono -->
<g id="edge76" class="edge"><title>minus1Trunc_epi_mono_equiv&#45;&gt;minus1Trunc_is_mono</title>
<path fill="none" stroke="black" d="M2404.56,-1060.12C2354,-1013.05 2246.76,-913.205 2197.17,-867.03"/>
<polygon fill="black" stroke="black" points="2199.42,-864.349 2189.72,-860.096 2194.65,-869.472 2199.42,-864.349"/>
</g>
<!-- minus1Trunc_is_epi -->
<g id="node28" class="node"><title>minus1Trunc_is_epi</title>
<a xlink:href="minus1Trunc.html#is_epi" xlink:title="is_epi">
<ellipse fill="#f070d1" stroke="black" cx="2491" cy="-842.668" rx="38.8909" ry="18.3848"/>
<text text-anchor="middle" x="2491" y="-839.068" font-family="Times Roman,serif" font-size="14.00">is_epi</text>
</a>
</g>
<!-- minus1Trunc_epi_mono_equiv&#45;&gt;minus1Trunc_is_epi -->
<g id="edge78" class="edge"><title>minus1Trunc_epi_mono_equiv&#45;&gt;minus1Trunc_is_epi</title>
<path fill="none" stroke="black" d="M2438.43,-1059.2C2449.62,-1013.11 2472.58,-918.527 2484.1,-871.101"/>
<polygon fill="black" stroke="black" points="2487.54,-871.734 2486.5,-861.191 2480.74,-870.082 2487.54,-871.734"/>
</g>
<!-- minus1Trunc_inhab_prop_contr -->
<g id="node29" class="node"><title>minus1Trunc_inhab_prop_contr</title>
<a xlink:href="minus1Trunc.html#inhab_prop_contr" xlink:title="inhab_prop_contr">
<ellipse fill="#f070d1" stroke="black" cx="2337" cy="-842.668" rx="96.8736" ry="18.3848"/>
<text text-anchor="middle" x="2337" y="-839.068" font-family="Times Roman,serif" font-size="14.00">inhab_prop_contr</text>
</a>
</g>
<!-- minus1Trunc_epi_mono_equiv&#45;&gt;minus1Trunc_inhab_prop_contr -->
<g id="edge80" class="edge"><title>minus1Trunc_epi_mono_equiv&#45;&gt;minus1Trunc_inhab_prop_contr</title>
<path fill="none" stroke="black" d="M2421.65,-1059.2C2403.56,-1012.92 2366.35,-917.732 2347.88,-870.505"/>
<polygon fill="black" stroke="black" points="2351.14,-869.23 2344.24,-861.191 2344.62,-871.779 2351.14,-869.23"/>
</g>
<!-- minus1Trunc_is_epi&#45;&gt;minus1Trunc_minus1Trunc_minus1Trunc -->
<g id="edge82" class="edge"><title>minus1Trunc_is_epi&#45;&gt;minus1Trunc_minus1Trunc_minus1Trunc</title>
<path fill="none" stroke="black" d="M2487.38,-823.976C2469.24,-730.391 2388.97,-317.025 2385,-311.668 2309.91,-210.398 2166.23,-156.244 2083.62,-132.262"/>
<polygon fill="black" stroke="black" points="2084.43,-128.854 2073.85,-129.486 2082.51,-135.587 2084.43,-128.854"/>
</g>
<!-- minus1Trunc_inhab_prop_contr&#45;&gt;minus1Trunc_minus1Trunc_rect_nondep -->
<g id="edge84" class="edge"><title>minus1Trunc_inhab_prop_contr&#45;&gt;minus1Trunc_minus1Trunc_rect_nondep</title>
<path fill="none" stroke="black" d="M2278.98,-827.796C2263.41,-823.829 2246.57,-819.563 2231,-815.668 1933.18,-741.144 1578.26,-654.614 1424.87,-617.329"/>
<polygon fill="black" stroke="black" points="1425.61,-613.906 1415.06,-614.945 1423.95,-620.708 1425.61,-613.906"/>
</g>
<!-- minus1Trunc_IsEquivmin1 -->
<g id="node30" class="node"><title>minus1Trunc_IsEquivmin1</title>
<a xlink:href="minus1Trunc.html#IsEquivmin1" xlink:title="IsEquivmin1">
<ellipse fill="#f070d1" stroke="black" cx="1077" cy="-842.668" rx="70.9686" ry="18.3848"/>
<ellipse fill="none" stroke="black" cx="1077" cy="-842.668" rx="74.9435" ry="22.3848"/>
<ellipse fill="none" stroke="black" cx="1077" cy="-842.668" rx="78.9183" ry="26.3848"/>
<text text-anchor="middle" x="1077" y="-839.068" font-family="Times Roman,serif" font-size="14.00">IsEquivmin1</text>
</a>
</g>
<!-- minus1Trunc_IsEquivmin1&#45;&gt;minus1Trunc_minus1Trunc_rect_nondep -->
<g id="edge86" class="edge"><title>minus1Trunc_IsEquivmin1&#45;&gt;minus1Trunc_minus1Trunc_rect_nondep</title>
<path fill="none" stroke="black" d="M1104.73,-817.702C1156.57,-771.029 1267.63,-671.033 1319.81,-624.047"/>
<polygon fill="black" stroke="black" points="1322.28,-626.536 1327.37,-617.244 1317.59,-621.334 1322.28,-626.536"/>
</g>
<!-- minus1Trunc_minus1Trunc_ind -->
<g id="node31" class="node"><title>minus1Trunc_minus1Trunc_ind</title>
<a xlink:href="minus1Trunc.html#minus1Trunc_ind" xlink:title="minus1Trunc_ind">
<ellipse fill="#f070d1" stroke="black" cx="1348" cy="-842.668" rx="94.0452" ry="18.3848"/>
<ellipse fill="none" stroke="black" cx="1348" cy="-842.668" rx="98.0452" ry="22.3848"/>
<ellipse fill="none" stroke="black" cx="1348" cy="-842.668" rx="102.045" ry="26.3848"/>
<text text-anchor="middle" x="1348" y="-839.068" font-family="Times Roman,serif" font-size="14.00">minus1Trunc_ind</text>
</a>
</g>
<!-- minus1Trunc_minus1Trunc_ind&#45;&gt;minus1Trunc_minus1Trunc_rect_nondep -->
<g id="edge88" class="edge"><title>minus1Trunc_minus1Trunc_ind&#45;&gt;minus1Trunc_minus1Trunc_rect_nondep</title>
<path fill="none" stroke="black" d="M1348,-816.091C1348,-769.912 1348,-675.238 1348,-627.518"/>
<polygon fill="black" stroke="black" points="1351.5,-627.267 1348,-617.267 1344.5,-627.267 1351.5,-627.267"/>
</g>
<!-- minus1Trunc_minus1Trunc_is_prop -->
<g id="node32" class="node"><title>minus1Trunc_minus1Trunc_is_prop</title>
<a xlink:href="minus1Trunc.html#minus1Trunc_is_prop" xlink:title="minus1Trunc_is_prop">
<ellipse fill="#f070d1" stroke="black" cx="2254" cy="-338.668" rx="113.844" ry="18.3848"/>
<ellipse fill="none" stroke="black" cx="2254" cy="-338.668" rx="117.844" ry="22.3848"/>
<ellipse fill="none" stroke="black" cx="2254" cy="-338.668" rx="121.844" ry="26.3848"/>
<text text-anchor="middle" x="2254" y="-335.068" font-family="Times Roman,serif" font-size="14.00">minus1Trunc_is_prop</text>
</a>
</g>
<!-- minus1Trunc_minus1Trunc_is_prop&#45;&gt;minus1Trunc_minus1Trunc_min1_path -->
<g id="edge90" class="edge"><title>minus1Trunc_minus1Trunc_is_prop&#45;&gt;minus1Trunc_minus1Trunc_min1_path</title>
<path fill="none" stroke="black" d="M2193.36,-315.538C2077.18,-271.223 1825.41,-175.184 1719.97,-134.965"/>
<polygon fill="black" stroke="black" points="1721.12,-131.659 1710.53,-131.365 1718.63,-138.199 1721.12,-131.659"/>
</g>
<!-- minus1Trunc_minus1Trunc_is_prop&#45;&gt;minus1Trunc_minus1Trunc_minus1Trunc -->
<g id="edge92" class="edge"><title>minus1Trunc_minus1Trunc_is_prop&#45;&gt;minus1Trunc_minus1Trunc_minus1Trunc</title>
<path fill="none" stroke="black" d="M2226.82,-312.767C2181.65,-269.735 2091.73,-184.056 2047.21,-141.644"/>
<polygon fill="black" stroke="black" points="2049.62,-139.098 2039.96,-134.734 2044.79,-144.166 2049.62,-139.098"/>
</g>
<!-- minus1Trunc_minus1Trunc_compute_path_nondep -->
<g id="node33" class="node"><title>minus1Trunc_minus1Trunc_compute_path_nondep</title>
<a xlink:href="minus1Trunc.html#minus1Trunc_compute_path_nondep" xlink:title="minus1Trunc_compute_path_nondep">
<ellipse fill="#f070d1" stroke="black" cx="1832" cy="-842.668" rx="190.212" ry="18.3848"/>
<ellipse fill="none" stroke="black" cx="1832" cy="-842.668" rx="194.212" ry="22.3848"/>
<ellipse fill="none" stroke="black" cx="1832" cy="-842.668" rx="198.212" ry="26.3848"/>
<text text-anchor="middle" x="1832" y="-839.068" font-family="Times Roman,serif" font-size="14.00">minus1Trunc_compute_path_nondep</text>
</a>
</g>
<!-- minus1Trunc_minus1Trunc_compute_path_nondep&#45;&gt;minus1Trunc_minus1Trunc_rect_nondep -->
<g id="edge94" class="edge"><title>minus1Trunc_minus1Trunc_compute_path_nondep&#45;&gt;minus1Trunc_minus1Trunc_rect_nondep</title>
<path fill="none" stroke="black" d="M1781.12,-817.017C1686.07,-769.098 1483.01,-666.73 1392.79,-621.25"/>
<polygon fill="black" stroke="black" points="1394.15,-618.016 1383.65,-616.64 1391,-624.267 1394.15,-618.016"/>
</g>
<!-- minus1Trunc_minus1Trunc_compute_min1_nondep -->
<g id="node34" class="node"><title>minus1Trunc_minus1Trunc_compute_min1_nondep</title>
<a xlink:href="minus1Trunc.html#minus1Trunc_compute_min1_nondep" xlink:title="minus1Trunc_compute_min1_nondep">
<ellipse fill="#f070d1" stroke="black" cx="1705" cy="-598.668" rx="191.853" ry="18.3848"/>
<ellipse fill="none" stroke="black" cx="1705" cy="-598.668" rx="195.843" ry="22.3848"/>
<ellipse fill="none" stroke="black" cx="1705" cy="-598.668" rx="199.833" ry="26.3848"/>
<text text-anchor="middle" x="1705" y="-595.068" font-family="Times Roman,serif" font-size="14.00">minus1Trunc_compute_min1_nondep</text>
</a>
</g>
<!-- minus1Trunc_minus1Trunc_compute_min1_nondep&#45;&gt;minus1Trunc_minus1Trunc_minus1Trunc_compute_min1 -->
<g id="edge96" class="edge"><title>minus1Trunc_minus1Trunc_compute_min1_nondep&#45;&gt;minus1Trunc_minus1Trunc_minus1Trunc_compute_min1</title>
<path fill="none" stroke="black" d="M1695.6,-571.823C1678.31,-522.42 1641.61,-417.547 1623.93,-367.032"/>
<polygon fill="black" stroke="black" points="1627.16,-365.683 1620.56,-357.401 1620.56,-367.996 1627.16,-365.683"/>
</g>
<!-- minus1Trunc_minus1Trunc_rect_nondep&#45;&gt;minus1Trunc_minus1Trunc_minus1Trunc_rect -->
<g id="edge98" class="edge"><title>minus1Trunc_minus1Trunc_rect_nondep&#45;&gt;minus1Trunc_minus1Trunc_minus1Trunc_rect</title>
<path fill="none" stroke="black" d="M1348,-579.97C1348,-535.09 1348,-421.027 1348,-367.382"/>
<polygon fill="black" stroke="black" points="1351.5,-367.197 1348,-357.197 1344.5,-367.197 1351.5,-367.197"/>
</g>
</g>
</svg>
