<?xml version="1.0" encoding="UTF-8" standalone="no"?>
<!DOCTYPE svg PUBLIC "-//W3C//DTD SVG 1.1//EN"
 "http://www.w3.org/Graphics/SVG/1.1/DTD/svg11.dtd">
<!-- Generated by graphviz version 2.39.20141222.0545 (20141222.0545)
 -->
<!-- Title: HoTT_categories_Functor_Composition_Laws Pages: 1 -->
<svg width="715pt" height="361pt"
 viewBox="0.00 0.00 715.00 361.50" xmlns="http://www.w3.org/2000/svg" xmlns:xlink="http://www.w3.org/1999/xlink">
<g id="graph0" class="graph" transform="scale(1 1) rotate(0) translate(4 357.5)">
<title>HoTT_categories_Functor_Composition_Laws</title>
<polygon fill="white" stroke="transparent" points="-4,4 -4,-357.5 711,-357.5 711,4 -4,4"/>
<g id="clust1" class="cluster"><title>cluster_Laws</title>
<polygon fill="#ffffc3" stroke="black" points="8,-15.7989 8,-337.701 699,-337.701 699,-15.7989 8,-15.7989"/>
<text text-anchor="middle" x="31" y="-322.501" font-family="Times,serif" font-size="14.00">Laws</text>
</g>
<!-- Laws_pentagon -->
<g id="node1" class="node"><title>Laws_pentagon</title>
<g id="a_node1"><a xlink:href="Laws.html#pentagon" xlink:title="pentagon">
<ellipse fill="#facdef" stroke="black" cx="553" cy="-224.799" rx="42.8089" ry="18"/>
<ellipse fill="none" stroke="black" cx="553" cy="-224.799" rx="46.8007" ry="22"/>
<ellipse fill="none" stroke="black" cx="553" cy="-224.799" rx="50.7926" ry="26"/>
<text text-anchor="middle" x="553" y="-221.099" font-family="Times,serif" font-size="14.00">pentagon</text>
</a>
</g>
</g>
<!-- Laws_associativity_fst -->
<g id="node3" class="node"><title>Laws_associativity_fst</title>
<g id="a_node3"><a xlink:href="Laws.html#associativity_fst" xlink:title="associativity_fst">
<ellipse fill="#f070d1" stroke="black" cx="623" cy="-66.7989" rx="67.6881" ry="18"/>
<text text-anchor="middle" x="623" y="-63.0989" font-family="Times,serif" font-size="14.00">associativity_fst</text>
</a>
</g>
</g>
<!-- Laws_pentagon&#45;&gt;Laws_associativity_fst -->
<g id="edge1" class="edge"><title>Laws_pentagon&#45;&gt;Laws_associativity_fst</title>
<path fill="none" stroke="black" d="M564.247,-199.413C577.024,-170.572 597.8,-123.68 610.915,-94.0762"/>
<polygon fill="black" stroke="black" points="614.196,-95.3111 615.047,-84.7505 607.796,-92.4756 614.196,-95.3111"/>
</g>
<!-- Laws_associativity -->
<g id="node4" class="node"><title>Laws_associativity</title>
<g id="a_node4"><a xlink:href="Laws.html#associativity" xlink:title="associativity">
<ellipse fill="#f070d1" stroke="black" cx="483" cy="-66.7989" rx="54.6905" ry="18"/>
<text text-anchor="middle" x="483" y="-63.0989" font-family="Times,serif" font-size="14.00">associativity</text>
</a>
</g>
</g>
<!-- Laws_pentagon&#45;&gt;Laws_associativity -->
<g id="edge2" class="edge"><title>Laws_pentagon&#45;&gt;Laws_associativity</title>
<path fill="none" stroke="black" d="M541.753,-199.413C528.976,-170.572 508.2,-123.68 495.085,-94.0762"/>
<polygon fill="black" stroke="black" points="498.204,-92.4756 490.953,-84.7505 491.804,-95.3111 498.204,-92.4756"/>
</g>
<!-- Laws_triangle -->
<g id="node2" class="node"><title>Laws_triangle</title>
<g id="a_node2"><a xlink:href="Laws.html#triangle" xlink:title="triangle">
<ellipse fill="#facdef" stroke="black" cx="352" cy="-224.799" rx="37.8596" ry="18"/>
<ellipse fill="none" stroke="black" cx="352" cy="-224.799" rx="41.8769" ry="22"/>
<ellipse fill="none" stroke="black" cx="352" cy="-224.799" rx="45.8942" ry="26"/>
<text text-anchor="middle" x="352" y="-221.099" font-family="Times,serif" font-size="14.00">triangle</text>
</a>
</g>
</g>
<!-- Laws_triangle&#45;&gt;Laws_associativity_fst -->
<g id="edge3" class="edge"><title>Laws_triangle&#45;&gt;Laws_associativity_fst</title>
<path fill="none" stroke="black" d="M384.151,-206.054C434.648,-176.613 532.292,-119.684 585.765,-88.5079"/>
<polygon fill="black" stroke="black" points="587.708,-91.4265 594.584,-83.366 584.182,-85.3792 587.708,-91.4265"/>
</g>
<!-- Laws_triangle&#45;&gt;Laws_associativity -->
<g id="edge4" class="edge"><title>Laws_triangle&#45;&gt;Laws_associativity</title>
<path fill="none" stroke="black" d="M371.612,-201.145C395.882,-171.872 437.044,-122.226 461.957,-92.1788"/>
<polygon fill="black" stroke="black" points="464.837,-94.1889 468.525,-84.2567 459.448,-89.721 464.837,-94.1889"/>
</g>
<!-- Laws_left_identity_fst -->
<g id="node6" class="node"><title>Laws_left_identity_fst</title>
<g id="a_node6"><a xlink:href="Laws.html#left_identity_fst" xlink:title="left_identity_fst">
<ellipse fill="#f070d1" stroke="black" cx="209" cy="-66.7989" rx="66.8882" ry="18"/>
<text text-anchor="middle" x="209" y="-63.0989" font-family="Times,serif" font-size="14.00">left_identity_fst</text>
</a>
</g>
</g>
<!-- Laws_triangle&#45;&gt;Laws_left_identity_fst -->
<g id="edge5" class="edge"><title>Laws_triangle&#45;&gt;Laws_left_identity_fst</title>
<path fill="none" stroke="black" d="M330.9,-201.485C304.37,-172.172 259.003,-122.047 231.728,-91.9109"/>
<polygon fill="black" stroke="black" points="234.181,-89.4055 224.876,-84.3398 228.991,-94.1027 234.181,-89.4055"/>
</g>
<!-- Laws_right_identity -->
<g id="node7" class="node"><title>Laws_right_identity</title>
<g id="a_node7"><a xlink:href="Laws.html#right_identity" xlink:title="right_identity">
<ellipse fill="#f070d1" stroke="black" cx="352" cy="-66.7989" rx="58.4896" ry="18"/>
<text text-anchor="middle" x="352" y="-63.0989" font-family="Times,serif" font-size="14.00">right_identity</text>
</a>
</g>
</g>
<!-- Laws_triangle&#45;&gt;Laws_right_identity -->
<g id="edge6" class="edge"><title>Laws_triangle&#45;&gt;Laws_right_identity</title>
<path fill="none" stroke="black" d="M352,-198.708C352,-170.137 352,-124.479 352,-95.0717"/>
<polygon fill="black" stroke="black" points="355.5,-95.0343 352,-85.0344 348.5,-95.0344 355.5,-95.0343"/>
</g>
<!-- Laws_left_identity -->
<g id="node8" class="node"><title>Laws_left_identity</title>
<g id="a_node8"><a xlink:href="Laws.html#left_identity" xlink:title="left_identity">
<ellipse fill="#f070d1" stroke="black" cx="70" cy="-66.7989" rx="53.8905" ry="18"/>
<text text-anchor="middle" x="70" y="-63.0989" font-family="Times,serif" font-size="14.00">left_identity</text>
</a>
</g>
</g>
<!-- Laws_triangle&#45;&gt;Laws_left_identity -->
<g id="edge7" class="edge"><title>Laws_triangle&#45;&gt;Laws_left_identity</title>
<path fill="none" stroke="black" d="M319.376,-206.52C266.363,-176.818 161.885,-118.28 106.486,-87.2411"/>
<polygon fill="black" stroke="black" points="108.142,-84.1572 97.707,-82.3227 104.72,-90.264 108.142,-84.1572"/>
</g>
<!-- Laws_right_identity_fst -->
<g id="node5" class="node"><title>Laws_right_identity_fst</title>
<g id="a_node5"><a xlink:href="Laws.html#right_identity_fst" xlink:title="right_identity_fst">
<ellipse fill="#f070d1" stroke="black" cx="152" cy="-224.799" rx="71.488" ry="18"/>
<ellipse fill="none" stroke="black" cx="152" cy="-224.799" rx="75.4876" ry="22"/>
<ellipse fill="none" stroke="black" cx="152" cy="-224.799" rx="79.4873" ry="26"/>
<text text-anchor="middle" x="152" y="-221.099" font-family="Times,serif" font-size="14.00">right_identity_fst</text>
</a>
</g>
</g>
</g>
</svg>
