<?xml version="1.0" encoding="UTF-8" standalone="no"?>
<!DOCTYPE svg PUBLIC "-//W3C//DTD SVG 1.1//EN"
 "http://www.w3.org/Graphics/SVG/1.1/DTD/svg11.dtd">
<!-- Generated by graphviz version 2.26.3 (20100126.1600)
 -->
<!-- Title: HoTT_categories_Functor_Composition_Functorial Pages: 1 -->
<svg width="1596pt" height="802pt"
 viewBox="0.00 0.00 1596.00 802.00" xmlns="http://www.w3.org/2000/svg" xmlns:xlink="http://www.w3.org/1999/xlink">
<g id="graph1" class="graph" transform="scale(1 1) rotate(0) translate(4 798)">
<title>HoTT_categories_Functor_Composition_Functorial</title>
<polygon fill="white" stroke="white" points="-4,5 -4,-798 1593,-798 1593,5 -4,5"/>
<g id="graph2" class="cluster"><title>cluster_Functorial</title>
<polygon fill="#ffffc3" stroke="black" points="8,-245.762 8,-781.397 960,-781.397 960,-245.762 8,-245.762"/>
<text text-anchor="middle" x="50.5" y="-764.797" font-family="Times Roman,serif" font-size="14.00">Functorial</text>
</g>
<g id="graph3" class="cluster"><title>cluster_Core</title>
<polygon fill="#ffffc3" stroke="black" points="968,-12.6032 968,-630.159 1580,-630.159 1580,-12.6032 968,-12.6032"/>
<text text-anchor="middle" x="992.5" y="-613.559" font-family="Times Roman,serif" font-size="14.00">Core</text>
</g>
<!-- Functorial_compose_functor_ -->
<g id="node1" class="node"><title>Functorial_compose_functor_</title>
<a xlink:href="Functorial.html#compose_functor&#39;" xlink:title="compose_functor&#39;">
<ellipse fill="#f070d1" stroke="black" cx="504" cy="-685.603" rx="96.1665" ry="18.3848"/>
<ellipse fill="none" stroke="black" cx="504" cy="-685.603" rx="100.167" ry="22.3848"/>
<ellipse fill="none" stroke="black" cx="504" cy="-685.603" rx="104.167" ry="26.3848"/>
<text text-anchor="middle" x="504" y="-682.003" font-family="Times Roman,serif" font-size="14.00">compose_functor&#39;</text>
</a>
</g>
<!-- Functorial_compose_functor_uncurried -->
<g id="node2" class="node"><title>Functorial_compose_functor_uncurried</title>
<a xlink:href="Functorial.html#compose_functor_uncurried" xlink:title="compose_functor_uncurried">
<ellipse fill="#f070d1" stroke="black" cx="504" cy="-533.603" rx="145.163" ry="18.3848"/>
<text text-anchor="middle" x="504" y="-530.003" font-family="Times Roman,serif" font-size="14.00">compose_functor_uncurried</text>
</a>
</g>
<!-- Functorial_compose_functor_&#45;&gt;Functorial_compose_functor_uncurried -->
<g id="edge2" class="edge"><title>Functorial_compose_functor_&#45;&gt;Functorial_compose_functor_uncurried</title>
<path fill="none" stroke="black" d="M504,-658.779C504,-631.843 504,-590.465 504,-562.738"/>
<polygon fill="black" stroke="black" points="507.5,-562.483 504,-552.483 500.5,-562.483 507.5,-562.483"/>
</g>
<!-- Functorial_compose_functor -->
<g id="node3" class="node"><title>Functorial_compose_functor</title>
<a xlink:href="Functorial.html#compose_functor" xlink:title="compose_functor">
<ellipse fill="#f070d1" stroke="black" cx="504" cy="-404.603" rx="94.0452" ry="18.3848"/>
<text text-anchor="middle" x="504" y="-401.003" font-family="Times Roman,serif" font-size="14.00">compose_functor</text>
</a>
</g>
<!-- Functorial_compose_functor_uncurried&#45;&gt;Functorial_compose_functor -->
<g id="edge4" class="edge"><title>Functorial_compose_functor_uncurried&#45;&gt;Functorial_compose_functor</title>
<path fill="none" stroke="black" d="M504,-514.845C504,-493.541 504,-458.518 504,-433.669"/>
<polygon fill="black" stroke="black" points="507.5,-433.383 504,-423.384 500.5,-433.384 507.5,-433.383"/>
</g>
<!-- Functorial_compose_functor_subproof0 -->
<g id="node4" class="node"><title>Functorial_compose_functor_subproof0</title>
<a xlink:href="Functorial.html#compose_functor_subproof0" xlink:title="compose_functor_subproof0">
<ellipse fill="#f070d1" stroke="black" cx="504" cy="-288.603" rx="147.785" ry="18.3848"/>
<text text-anchor="middle" x="504" y="-285.003" font-family="Times Roman,serif" font-size="14.00">compose_functor_subproof0</text>
</a>
</g>
<!-- Functorial_compose_functor&#45;&gt;Functorial_compose_functor_subproof0 -->
<g id="edge6" class="edge"><title>Functorial_compose_functor&#45;&gt;Functorial_compose_functor_subproof0</title>
<path fill="none" stroke="black" d="M504,-385.966C504,-367.448 504,-338.793 504,-317.357"/>
<polygon fill="black" stroke="black" points="507.5,-317.194 504,-307.194 500.5,-317.194 507.5,-317.194"/>
</g>
<!-- Functorial_compose_functor_subproof -->
<g id="node5" class="node"><title>Functorial_compose_functor_subproof</title>
<a xlink:href="Functorial.html#compose_functor_subproof" xlink:title="compose_functor_subproof">
<ellipse fill="#f070d1" stroke="black" cx="811" cy="-288.603" rx="140.922" ry="18.3848"/>
<text text-anchor="middle" x="811" y="-285.003" font-family="Times Roman,serif" font-size="14.00">compose_functor_subproof</text>
</a>
</g>
<!-- Functorial_compose_functor&#45;&gt;Functorial_compose_functor_subproof -->
<g id="edge8" class="edge"><title>Functorial_compose_functor&#45;&gt;Functorial_compose_functor_subproof</title>
<path fill="none" stroke="black" d="M547.66,-388.106C602.152,-367.517 695.426,-332.273 755.091,-309.728"/>
<polygon fill="black" stroke="black" points="756.614,-312.895 764.731,-306.086 754.139,-306.347 756.614,-312.895"/>
</g>
<!-- Functorial_compose_functor_morphism_of -->
<g id="node6" class="node"><title>Functorial_compose_functor_morphism_of</title>
<a xlink:href="Functorial.html#compose_functor_morphism_of" xlink:title="compose_functor_morphism_of">
<ellipse fill="#f070d1" stroke="black" cx="177" cy="-288.603" rx="161.22" ry="18.3848"/>
<text text-anchor="middle" x="177" y="-285.003" font-family="Times Roman,serif" font-size="14.00">compose_functor_morphism_of</text>
</a>
</g>
<!-- Functorial_compose_functor&#45;&gt;Functorial_compose_functor_morphism_of -->
<g id="edge10" class="edge"><title>Functorial_compose_functor&#45;&gt;Functorial_compose_functor_morphism_of</title>
<path fill="none" stroke="black" d="M458.188,-388.352C400.173,-367.772 300.105,-332.273 236.31,-309.643"/>
<polygon fill="black" stroke="black" points="237.378,-306.308 226.783,-306.263 235.037,-312.905 237.378,-306.308"/>
</g>
<!-- Core_compose_functor_subproof0 -->
<g id="node10" class="node"><title>Core_compose_functor_subproof0</title>
<a xlink:href="Core.html#compose_functor_subproof0" xlink:title="compose_functor_subproof0">
<ellipse fill="#facdef" stroke="black" cx="1124" cy="-171.603" rx="147.785" ry="18.3848"/>
<text text-anchor="middle" x="1124" y="-168.003" font-family="Times Roman,serif" font-size="14.00">compose_functor_subproof0</text>
</a>
</g>
<!-- Functorial_compose_functor_subproof0&#45;&gt;Core_compose_functor_subproof0 -->
<g id="edge12" class="edge"><title>Functorial_compose_functor_subproof0&#45;&gt;Core_compose_functor_subproof0</title>
<path fill="none" stroke="black" d="M586.011,-273.127C701.572,-251.319 911.656,-211.674 1032.27,-188.914"/>
<polygon fill="black" stroke="black" points="1033.04,-192.329 1042.22,-187.036 1031.75,-185.451 1033.04,-192.329"/>
</g>
<!-- Core_compose_functor_subproof -->
<g id="node11" class="node"><title>Core_compose_functor_subproof</title>
<a xlink:href="Core.html#compose_functor_subproof" xlink:title="compose_functor_subproof">
<ellipse fill="#facdef" stroke="black" cx="1431" cy="-171.603" rx="140.922" ry="18.3848"/>
<text text-anchor="middle" x="1431" y="-168.003" font-family="Times Roman,serif" font-size="14.00">compose_functor_subproof</text>
</a>
</g>
<!-- Functorial_compose_functor_subproof&#45;&gt;Core_compose_functor_subproof -->
<g id="edge14" class="edge"><title>Functorial_compose_functor_subproof&#45;&gt;Core_compose_functor_subproof</title>
<path fill="none" stroke="black" d="M891.736,-273.367C1007.37,-251.547 1219.48,-211.519 1340.35,-188.709"/>
<polygon fill="black" stroke="black" points="1341.15,-192.121 1350.33,-186.827 1339.85,-185.242 1341.15,-192.121"/>
</g>
<!-- Core_compose_functor_ -->
<g id="node7" class="node"><title>Core_compose_functor_</title>
<a xlink:href="Core.html#compose_functor&#39;" xlink:title="compose_functor&#39;">
<ellipse fill="#f070d1" stroke="black" cx="1275" cy="-533.603" rx="96.1665" ry="18.3848"/>
<ellipse fill="none" stroke="black" cx="1275" cy="-533.603" rx="100.167" ry="22.3848"/>
<ellipse fill="none" stroke="black" cx="1275" cy="-533.603" rx="104.167" ry="26.3848"/>
<text text-anchor="middle" x="1275" y="-530.003" font-family="Times Roman,serif" font-size="14.00">compose_functor&#39;</text>
</a>
</g>
<!-- Core_compose_functor_uncurried -->
<g id="node8" class="node"><title>Core_compose_functor_uncurried</title>
<a xlink:href="Core.html#compose_functor_uncurried" xlink:title="compose_functor_uncurried">
<ellipse fill="#f070d1" stroke="black" cx="1275" cy="-404.603" rx="145.163" ry="18.3848"/>
<text text-anchor="middle" x="1275" y="-401.003" font-family="Times Roman,serif" font-size="14.00">compose_functor_uncurried</text>
</a>
</g>
<!-- Core_compose_functor_&#45;&gt;Core_compose_functor_uncurried -->
<g id="edge16" class="edge"><title>Core_compose_functor_&#45;&gt;Core_compose_functor_uncurried</title>
<path fill="none" stroke="black" d="M1275,-506.874C1275,-485.438 1275,-455.408 1275,-433.434"/>
<polygon fill="black" stroke="black" points="1278.5,-433.367 1275,-423.367 1271.5,-433.367 1278.5,-433.367"/>
</g>
<!-- Core_compose_functor -->
<g id="node9" class="node"><title>Core_compose_functor</title>
<a xlink:href="Core.html#compose_functor" xlink:title="compose_functor">
<ellipse fill="#f070d1" stroke="black" cx="1275" cy="-288.603" rx="94.0452" ry="18.3848"/>
<text text-anchor="middle" x="1275" y="-285.003" font-family="Times Roman,serif" font-size="14.00">compose_functor</text>
</a>
</g>
<!-- Core_compose_functor_uncurried&#45;&gt;Core_compose_functor -->
<g id="edge18" class="edge"><title>Core_compose_functor_uncurried&#45;&gt;Core_compose_functor</title>
<path fill="none" stroke="black" d="M1275,-385.966C1275,-367.448 1275,-338.793 1275,-317.357"/>
<polygon fill="black" stroke="black" points="1278.5,-317.194 1275,-307.194 1271.5,-317.194 1278.5,-317.194"/>
</g>
<!-- Core_compose_functor&#45;&gt;Core_compose_functor_subproof0 -->
<g id="edge20" class="edge"><title>Core_compose_functor&#45;&gt;Core_compose_functor_subproof0</title>
<path fill="none" stroke="black" d="M1251.74,-270.578C1226.06,-250.684 1184.58,-218.54 1155.88,-196.308"/>
<polygon fill="black" stroke="black" points="1157.84,-193.393 1147.79,-190.035 1153.55,-198.926 1157.84,-193.393"/>
</g>
<!-- Core_compose_functor&#45;&gt;Core_compose_functor_subproof -->
<g id="edge22" class="edge"><title>Core_compose_functor&#45;&gt;Core_compose_functor_subproof</title>
<path fill="none" stroke="black" d="M1299.03,-270.578C1325.64,-250.626 1368.67,-218.351 1398.32,-196.112"/>
<polygon fill="black" stroke="black" points="1400.78,-198.641 1406.68,-189.841 1396.58,-193.041 1400.78,-198.641"/>
</g>
<!-- Core_compose_functor_morphism_of -->
<g id="node12" class="node"><title>Core_compose_functor_morphism_of</title>
<a xlink:href="Core.html#compose_functor_morphism_of" xlink:title="compose_functor_morphism_of">
<ellipse fill="#f070d1" stroke="black" cx="1274" cy="-55.6032" rx="161.22" ry="18.3848"/>
<text text-anchor="middle" x="1274" y="-52.0032" font-family="Times Roman,serif" font-size="14.00">compose_functor_morphism_of</text>
</a>
</g>
<!-- Core_compose_functor_subproof0&#45;&gt;Core_compose_functor_morphism_of -->
<g id="edge24" class="edge"><title>Core_compose_functor_subproof0&#45;&gt;Core_compose_functor_morphism_of</title>
<path fill="none" stroke="black" d="M1147.77,-153.223C1173.18,-133.57 1213.63,-102.291 1241.87,-80.4528"/>
<polygon fill="black" stroke="black" points="1244.08,-83.168 1249.85,-74.2818 1239.79,-77.6307 1244.08,-83.168"/>
</g>
<!-- Core_compose_functor_subproof&#45;&gt;Core_compose_functor_morphism_of -->
<g id="edge26" class="edge"><title>Core_compose_functor_subproof&#45;&gt;Core_compose_functor_morphism_of</title>
<path fill="none" stroke="black" d="M1406.12,-153.223C1379.37,-133.453 1336.69,-101.921 1307.11,-80.0662"/>
<polygon fill="black" stroke="black" points="1308.88,-77.0252 1298.76,-73.8977 1304.72,-82.6552 1308.88,-77.0252"/>
</g>
</g>
</svg>
