<?xml version="1.0" encoding="UTF-8" standalone="no"?>
<!DOCTYPE svg PUBLIC "-//W3C//DTD SVG 1.1//EN"
 "http://www.w3.org/Graphics/SVG/1.1/DTD/svg11.dtd">
<!-- Generated by graphviz version 2.39.20141222.0545 (20141222.0545)
 -->
<!-- Title: HoTT_Categories_Limits Pages: 1 -->
<svg width="3641pt" height="1825pt"
 viewBox="0.00 0.00 3641.00 1824.50" xmlns="http://www.w3.org/2000/svg" xmlns:xlink="http://www.w3.org/1999/xlink">
<g id="graph0" class="graph" transform="scale(1 1) rotate(0) translate(4 1820.5)">
<title>HoTT_Categories_Limits</title>
<polygon fill="white" stroke="transparent" points="-4,4 -4,-1820.5 3637,-1820.5 3637,4 -4,4"/>
<g id="clust1" class="cluster"><title>cluster_Limits</title>
<polygon fill="#ffffc3" stroke="black" points="8,-575.007 8,-1764.23 2064,-1764.23 2064,-575.007 8,-575.007"/>
<text text-anchor="middle" x="34.5" y="-1749.03" font-family="Times,serif" font-size="14.00">Limits</text>
</g>
<g id="clust2" class="cluster"><title>cluster_Core</title>
<polygon fill="#ffffc3" stroke="black" points="2072,-52.2734 2072,-1117.34 3388,-1117.34 3388,-52.2734 2072,-52.2734"/>
<text text-anchor="middle" x="2093.5" y="-1102.14" font-family="Times,serif" font-size="14.00">Core</text>
</g>
<g id="clust3" class="cluster"><title>cluster_Functors</title>
<polygon fill="#ffffc3" stroke="black" points="2950,-1169.62 2950,-1764.23 3625,-1764.23 3625,-1169.62 2950,-1169.62"/>
<text text-anchor="middle" x="2982" y="-1749.03" font-family="Times,serif" font-size="14.00">Functors</text>
</g>
<!-- Limits_limit_adjunction -->
<g id="node1" class="node"><title>Limits_limit_adjunction</title>
<g id="a_node1"><a xlink:href="Limits.html#limit_adjunction" xlink:title="limit_adjunction">
<ellipse fill="#f070d1" stroke="black" cx="1978" cy="-1392.27" rx="69.5832" ry="18"/>
<ellipse fill="none" stroke="black" cx="1978" cy="-1392.27" rx="73.5854" ry="22"/>
<ellipse fill="none" stroke="black" cx="1978" cy="-1392.27" rx="77.5877" ry="26"/>
<text text-anchor="middle" x="1978" y="-1388.57" font-family="Times,serif" font-size="14.00">limit_adjunction</text>
</a>
</g>
</g>
<!-- Core_IsLimit -->
<g id="node17" class="node"><title>Core_IsLimit</title>
<g id="a_node17"><a xlink:href="Core.html#IsLimit" xlink:title="IsLimit">
<ellipse fill="#f070d1" stroke="black" cx="3343" cy="-745.273" rx="37.0935" ry="18"/>
<text text-anchor="middle" x="3343" y="-741.573" font-family="Times,serif" font-size="14.00">IsLimit</text>
</a>
</g>
</g>
<!-- Limits_limit_adjunction&#45;&gt;Core_IsLimit -->
<g id="edge1" class="edge"><title>Limits_limit_adjunction&#45;&gt;Core_IsLimit</title>
<path fill="none" stroke="black" d="M2039.21,-1376.1C2237.21,-1321.58 2872.15,-1129.42 3297,-802.273 3308.29,-793.58 3318.51,-781.578 3326.43,-770.828"/>
<polygon fill="black" stroke="black" points="3329.36,-772.749 3332.27,-762.562 3323.64,-768.711 3329.36,-772.749"/>
</g>
<!-- Limits_limit_functor -->
<g id="node2" class="node"><title>Limits_limit_functor</title>
<g id="a_node2"><a xlink:href="Limits.html#limit_functor" xlink:title="limit_functor">
<ellipse fill="#f070d1" stroke="black" cx="1817" cy="-1392.27" rx="57.7089" ry="18"/>
<ellipse fill="none" stroke="black" cx="1817" cy="-1392.27" rx="61.6995" ry="22"/>
<ellipse fill="none" stroke="black" cx="1817" cy="-1392.27" rx="65.6901" ry="26"/>
<text text-anchor="middle" x="1817" y="-1388.57" font-family="Times,serif" font-size="14.00">limit_functor</text>
</a>
</g>
</g>
<!-- Limits_limit_functor&#45;&gt;Core_IsLimit -->
<g id="edge2" class="edge"><title>Limits_limit_functor&#45;&gt;Core_IsLimit</title>
<path fill="none" stroke="black" d="M1859.48,-1372.28C1869.75,-1367.58 1880.73,-1362.66 1891,-1358.27 2508.97,-1094.35 2755.69,-1200.43 3297,-802.273 3308.48,-793.831 3318.72,-781.859 3326.61,-771.065"/>
<polygon fill="black" stroke="black" points="3329.56,-772.955 3332.41,-762.751 3323.82,-768.949 3329.56,-772.955"/>
</g>
<!-- Limits_colimit_adjunction -->
<g id="node3" class="node"><title>Limits_colimit_adjunction</title>
<g id="a_node3"><a xlink:href="Limits.html#colimit_adjunction" xlink:title="colimit_adjunction">
<ellipse fill="#f070d1" stroke="black" cx="1648" cy="-1392.27" rx="77.2012" ry="18"/>
<ellipse fill="none" stroke="black" cx="1648" cy="-1392.27" rx="81.1939" ry="22"/>
<ellipse fill="none" stroke="black" cx="1648" cy="-1392.27" rx="85.1866" ry="26"/>
<text text-anchor="middle" x="1648" y="-1388.57" font-family="Times,serif" font-size="14.00">colimit_adjunction</text>
</a>
</g>
</g>
<!-- Core_IsColimit -->
<g id="node16" class="node"><title>Core_IsColimit</title>
<g id="a_node16"><a xlink:href="Core.html#IsColimit" xlink:title="IsColimit">
<ellipse fill="#f070d1" stroke="black" cx="3244" cy="-745.273" rx="44.393" ry="18"/>
<text text-anchor="middle" x="3244" y="-741.573" font-family="Times,serif" font-size="14.00">IsColimit</text>
</a>
</g>
</g>
<!-- Limits_colimit_adjunction&#45;&gt;Core_IsColimit -->
<g id="edge3" class="edge"><title>Limits_colimit_adjunction&#45;&gt;Core_IsColimit</title>
<path fill="none" stroke="black" d="M1702.46,-1372.21C1968.63,-1274.05 3122.55,-847.327 3190,-802.273 3202.83,-793.705 3214.86,-781.575 3224.3,-770.706"/>
<polygon fill="black" stroke="black" points="3227.25,-772.635 3230.99,-762.72 3221.89,-768.143 3227.25,-772.635"/>
</g>
<!-- Limits_colimit_functor -->
<g id="node4" class="node"><title>Limits_colimit_functor</title>
<g id="a_node4"><a xlink:href="Limits.html#colimit_functor" xlink:title="colimit_functor">
<ellipse fill="#f070d1" stroke="black" cx="1471" cy="-1392.27" rx="65.7729" ry="18"/>
<ellipse fill="none" stroke="black" cx="1471" cy="-1392.27" rx="69.7808" ry="22"/>
<ellipse fill="none" stroke="black" cx="1471" cy="-1392.27" rx="73.7886" ry="26"/>
<text text-anchor="middle" x="1471" y="-1388.57" font-family="Times,serif" font-size="14.00">colimit_functor</text>
</a>
</g>
</g>
<!-- Limits_colimit_functor&#45;&gt;Core_IsColimit -->
<g id="edge4" class="edge"><title>Limits_colimit_functor&#45;&gt;Core_IsColimit</title>
<path fill="none" stroke="black" d="M1518.64,-1372.17C1530.16,-1367.48 1542.48,-1362.59 1554,-1358.27 2273.21,-1089.04 2543.46,-1216.69 3190,-802.273 3203.21,-793.809 3215.45,-781.437 3224.93,-770.381"/>
<polygon fill="black" stroke="black" points="3227.65,-772.579 3231.32,-762.638 3222.25,-768.125 3227.65,-772.579"/>
</g>
<!-- Limits_IsColimit -->
<g id="node5" class="node"><title>Limits_IsColimit</title>
<g id="a_node5"><a xlink:href="Limits.html#IsColimit" xlink:title="IsColimit">
<ellipse fill="#f070d1" stroke="black" cx="1327" cy="-1392.27" rx="44.3627" ry="18"/>
<ellipse fill="none" stroke="black" cx="1327" cy="-1392.27" rx="48.3778" ry="22"/>
<ellipse fill="none" stroke="black" cx="1327" cy="-1392.27" rx="52.3929" ry="26"/>
<text text-anchor="middle" x="1327" y="-1388.57" font-family="Times,serif" font-size="14.00">IsColimit</text>
</a>
</g>
</g>
<!-- Limits_IsLimit -->
<g id="node6" class="node"><title>Limits_IsLimit</title>
<g id="a_node6"><a xlink:href="Limits.html#IsLimit" xlink:title="IsLimit">
<ellipse fill="#f070d1" stroke="black" cx="1212" cy="-1392.27" rx="37.0852" ry="18"/>
<ellipse fill="none" stroke="black" cx="1212" cy="-1392.27" rx="41.0893" ry="22"/>
<ellipse fill="none" stroke="black" cx="1212" cy="-1392.27" rx="45.0935" ry="26"/>
<text text-anchor="middle" x="1212" y="-1388.57" font-family="Times,serif" font-size="14.00">IsLimit</text>
</a>
</g>
</g>
<!-- Limits_compose_diagonal_functor_natural_transformation -->
<g id="node7" class="node"><title>Limits_compose_diagonal_functor_natural_transformation</title>
<g id="a_node7"><a xlink:href="Limits.html#compose_diagonal_functor_natural_transformation" xlink:title="compose_diagonal_functor_natural_transformation">
<ellipse fill="#f070d1" stroke="black" cx="949" cy="-1392.27" rx="192.271" ry="18"/>
<ellipse fill="none" stroke="black" cx="949" cy="-1392.27" rx="196.268" ry="22"/>
<ellipse fill="none" stroke="black" cx="949" cy="-1392.27" rx="200.266" ry="26"/>
<text text-anchor="middle" x="949" y="-1388.57" font-family="Times,serif" font-size="14.00">compose_diagonal_functor_natural_transformation</text>
</a>
</g>
</g>
<!-- Limits_compose_diagonal_functor -->
<g id="node8" class="node"><title>Limits_compose_diagonal_functor</title>
<g id="a_node8"><a xlink:href="Limits.html#compose_diagonal_functor" xlink:title="compose_diagonal_functor">
<ellipse fill="#f070d1" stroke="black" cx="616" cy="-1392.27" rx="106.675" ry="18"/>
<ellipse fill="none" stroke="black" cx="616" cy="-1392.27" rx="110.678" ry="22"/>
<ellipse fill="none" stroke="black" cx="616" cy="-1392.27" rx="114.681" ry="26"/>
<text text-anchor="middle" x="616" y="-1388.57" font-family="Times,serif" font-size="14.00">compose_diagonal_functor</text>
</a>
</g>
</g>
<!-- Core_compose_diagonal_functor -->
<g id="node19" class="node"><title>Core_compose_diagonal_functor</title>
<g id="a_node19"><a xlink:href="Core.html#compose_diagonal_functor" xlink:title="compose_diagonal_functor">
<ellipse fill="#facdef" stroke="black" cx="2656" cy="-745.273" rx="106.681" ry="18"/>
<text text-anchor="middle" x="2656" y="-741.573" font-family="Times,serif" font-size="14.00">compose_diagonal_functor</text>
</a>
</g>
</g>
<!-- Limits_compose_diagonal_functor&#45;&gt;Core_compose_diagonal_functor -->
<g id="edge5" class="edge"><title>Limits_compose_diagonal_functor&#45;&gt;Core_compose_diagonal_functor</title>
<path fill="none" stroke="black" d="M687.653,-1371.96C992.023,-1285.42 2178.63,-945.411 2540,-802.273 2565.56,-792.151 2593.22,-778.664 2615.11,-767.351"/>
<polygon fill="black" stroke="black" points="2616.88,-770.379 2624.12,-762.651 2613.64,-764.173 2616.88,-770.379"/>
</g>
<!-- Limits_diagonal_functor_diagonal_functor_ -->
<g id="node9" class="node"><title>Limits_diagonal_functor_diagonal_functor_</title>
<g id="a_node9"><a xlink:href="Limits.html#diagonal_functor_diagonal_functor'" xlink:title="diagonal_functor_diagonal_functor&#39;">
<ellipse fill="#f070d1" stroke="black" cx="339" cy="-1392.27" rx="136.476" ry="18"/>
<ellipse fill="none" stroke="black" cx="339" cy="-1392.27" rx="140.476" ry="22"/>
<ellipse fill="none" stroke="black" cx="339" cy="-1392.27" rx="144.476" ry="26"/>
<text text-anchor="middle" x="339" y="-1388.57" font-family="Times,serif" font-size="14.00">diagonal_functor_diagonal_functor&#39;</text>
</a>
</g>
</g>
<!-- Core_diagonal_functor_diagonal_functor_ -->
<g id="node20" class="node"><title>Core_diagonal_functor_diagonal_functor_</title>
<g id="a_node20"><a xlink:href="Core.html#diagonal_functor_diagonal_functor'" xlink:title="diagonal_functor_diagonal_functor&#39;">
<ellipse fill="#facdef" stroke="black" cx="2395" cy="-745.273" rx="136.476" ry="18"/>
<text text-anchor="middle" x="2395" y="-741.573" font-family="Times,serif" font-size="14.00">diagonal_functor_diagonal_functor&#39;</text>
</a>
</g>
</g>
<!-- Limits_diagonal_functor_diagonal_functor_&#45;&gt;Core_diagonal_functor_diagonal_functor_ -->
<g id="edge6" class="edge"><title>Limits_diagonal_functor_diagonal_functor_&#45;&gt;Core_diagonal_functor_diagonal_functor_</title>
<path fill="none" stroke="black" d="M417.439,-1370.26C679.183,-1296.34 1545.76,-1047.8 2249,-802.273 2280.83,-791.161 2316.04,-777.454 2343.91,-766.267"/>
<polygon fill="black" stroke="black" points="2345.48,-769.409 2353.45,-762.423 2342.87,-762.916 2345.48,-769.409"/>
</g>
<!-- Limits_diagonal_functor_ -->
<g id="node10" class="node"><title>Limits_diagonal_functor_</title>
<g id="a_node10"><a xlink:href="Limits.html#diagonal_functor'" xlink:title="diagonal_functor&#39;">
<ellipse fill="#f070d1" stroke="black" cx="96" cy="-1392.27" rx="72.2731" ry="18"/>
<ellipse fill="none" stroke="black" cx="96" cy="-1392.27" rx="76.2803" ry="22"/>
<ellipse fill="none" stroke="black" cx="96" cy="-1392.27" rx="80.2875" ry="26"/>
<text text-anchor="middle" x="96" y="-1388.57" font-family="Times,serif" font-size="14.00">diagonal_functor&#39;</text>
</a>
</g>
</g>
<!-- Limits_diagonal_functor -->
<g id="node11" class="node"><title>Limits_diagonal_functor</title>
<g id="a_node11"><a xlink:href="Limits.html#diagonal_functor" xlink:title="diagonal_functor">
<ellipse fill="#f070d1" stroke="black" cx="96" cy="-745.273" rx="70.6878" ry="18"/>
<text text-anchor="middle" x="96" y="-741.573" font-family="Times,serif" font-size="14.00">diagonal_functor</text>
</a>
</g>
</g>
<!-- Limits_diagonal_functor_&#45;&gt;Limits_diagonal_functor -->
<g id="edge7" class="edge"><title>Limits_diagonal_functor_&#45;&gt;Limits_diagonal_functor</title>
<path fill="none" stroke="black" d="M96,-1366.11C96,-1262.46 96,-881.063 96,-773.616"/>
<polygon fill="black" stroke="black" points="99.5001,-773.537 96,-763.537 92.5001,-773.537 99.5001,-773.537"/>
</g>
<!-- Functors_limit_adjunction -->
<g id="node12" class="node"><title>Functors_limit_adjunction</title>
<g id="a_node12"><a xlink:href="Functors.html#limit_adjunction" xlink:title="limit_adjunction">
<ellipse fill="#f070d1" stroke="black" cx="3539" cy="-1392.27" rx="69.5832" ry="18"/>
<ellipse fill="none" stroke="black" cx="3539" cy="-1392.27" rx="73.5854" ry="22"/>
<ellipse fill="none" stroke="black" cx="3539" cy="-1392.27" rx="77.5877" ry="26"/>
<text text-anchor="middle" x="3539" y="-1388.57" font-family="Times,serif" font-size="14.00">limit_adjunction</text>
</a>
</g>
</g>
<!-- Functors_limit_adjunction&#45;&gt;Core_IsLimit -->
<g id="edge8" class="edge"><title>Functors_limit_adjunction&#45;&gt;Core_IsLimit</title>
<path fill="none" stroke="black" d="M3531.07,-1366.11C3499.61,-1262.24 3383.65,-879.45 3351.38,-772.938"/>
<polygon fill="black" stroke="black" points="3354.69,-771.793 3348.44,-763.237 3347.99,-773.822 3354.69,-771.793"/>
</g>
<!-- Functors_limit_functor -->
<g id="node13" class="node"><title>Functors_limit_functor</title>
<g id="a_node13"><a xlink:href="Functors.html#limit_functor" xlink:title="limit_functor">
<ellipse fill="#f070d1" stroke="black" cx="3378" cy="-1392.27" rx="57.7089" ry="18"/>
<ellipse fill="none" stroke="black" cx="3378" cy="-1392.27" rx="61.6995" ry="22"/>
<ellipse fill="none" stroke="black" cx="3378" cy="-1392.27" rx="65.6901" ry="26"/>
<text text-anchor="middle" x="3378" y="-1388.57" font-family="Times,serif" font-size="14.00">limit_functor</text>
</a>
</g>
</g>
<!-- Functors_limit_functor&#45;&gt;Core_IsLimit -->
<g id="edge9" class="edge"><title>Functors_limit_functor&#45;&gt;Core_IsLimit</title>
<path fill="none" stroke="black" d="M3376.58,-1366.11C3370.98,-1262.46 3350.35,-881.063 3344.53,-773.616"/>
<polygon fill="black" stroke="black" points="3348.02,-773.333 3343.99,-763.537 3341.03,-773.712 3348.02,-773.333"/>
</g>
<!-- Functors_colimit_adjunction -->
<g id="node14" class="node"><title>Functors_colimit_adjunction</title>
<g id="a_node14"><a xlink:href="Functors.html#colimit_adjunction" xlink:title="colimit_adjunction">
<ellipse fill="#f070d1" stroke="black" cx="3209" cy="-1392.27" rx="77.2012" ry="18"/>
<ellipse fill="none" stroke="black" cx="3209" cy="-1392.27" rx="81.1939" ry="22"/>
<ellipse fill="none" stroke="black" cx="3209" cy="-1392.27" rx="85.1866" ry="26"/>
<text text-anchor="middle" x="3209" y="-1388.57" font-family="Times,serif" font-size="14.00">colimit_adjunction</text>
</a>
</g>
</g>
<!-- Functors_colimit_adjunction&#45;&gt;Core_IsColimit -->
<g id="edge10" class="edge"><title>Functors_colimit_adjunction&#45;&gt;Core_IsColimit</title>
<path fill="none" stroke="black" d="M3210.42,-1366.11C3216.02,-1262.46 3236.65,-881.063 3242.47,-773.616"/>
<polygon fill="black" stroke="black" points="3245.97,-773.712 3243.01,-763.537 3238.98,-773.333 3245.97,-773.712"/>
</g>
<!-- Functors_colimit_functor -->
<g id="node15" class="node"><title>Functors_colimit_functor</title>
<g id="a_node15"><a xlink:href="Functors.html#colimit_functor" xlink:title="colimit_functor">
<ellipse fill="#f070d1" stroke="black" cx="3032" cy="-1392.27" rx="65.7729" ry="18"/>
<ellipse fill="none" stroke="black" cx="3032" cy="-1392.27" rx="69.7808" ry="22"/>
<ellipse fill="none" stroke="black" cx="3032" cy="-1392.27" rx="73.7886" ry="26"/>
<text text-anchor="middle" x="3032" y="-1388.57" font-family="Times,serif" font-size="14.00">colimit_functor</text>
</a>
</g>
</g>
<!-- Functors_colimit_functor&#45;&gt;Core_IsColimit -->
<g id="edge11" class="edge"><title>Functors_colimit_functor&#45;&gt;Core_IsColimit</title>
<path fill="none" stroke="black" d="M3040.57,-1366.11C3074.61,-1262.24 3200.03,-879.45 3234.94,-772.938"/>
<polygon fill="black" stroke="black" points="3238.33,-773.83 3238.11,-763.237 3231.67,-771.65 3238.33,-773.83"/>
</g>
<!-- Core_compose_diagonal_functor_natural_transformation -->
<g id="node18" class="node"><title>Core_compose_diagonal_functor_natural_transformation</title>
<g id="a_node18"><a xlink:href="Core.html#compose_diagonal_functor_natural_transformation" xlink:title="compose_diagonal_functor_natural_transformation">
<ellipse fill="#f070d1" stroke="black" cx="2981" cy="-745.273" rx="192.271" ry="18"/>
<ellipse fill="none" stroke="black" cx="2981" cy="-745.273" rx="196.268" ry="22"/>
<ellipse fill="none" stroke="black" cx="2981" cy="-745.273" rx="200.266" ry="26"/>
<text text-anchor="middle" x="2981" y="-741.573" font-family="Times,serif" font-size="14.00">compose_diagonal_functor_natural_transformation</text>
</a>
</g>
</g>
<!-- Core_diagonal_functor_ -->
<g id="node21" class="node"><title>Core_diagonal_functor_</title>
<g id="a_node21"><a xlink:href="Core.html#diagonal_functor'" xlink:title="diagonal_functor&#39;">
<ellipse fill="#f070d1" stroke="black" cx="2160" cy="-745.273" rx="72.2731" ry="18"/>
<ellipse fill="none" stroke="black" cx="2160" cy="-745.273" rx="76.2803" ry="22"/>
<ellipse fill="none" stroke="black" cx="2160" cy="-745.273" rx="80.2875" ry="26"/>
<text text-anchor="middle" x="2160" y="-741.573" font-family="Times,serif" font-size="14.00">diagonal_functor&#39;</text>
</a>
</g>
</g>
<!-- Core_diagonal_functor -->
<g id="node22" class="node"><title>Core_diagonal_functor</title>
<g id="a_node22"><a xlink:href="Core.html#diagonal_functor" xlink:title="diagonal_functor">
<ellipse fill="#f070d1" stroke="black" cx="2160" cy="-222.273" rx="70.6878" ry="18"/>
<text text-anchor="middle" x="2160" y="-218.573" font-family="Times,serif" font-size="14.00">diagonal_functor</text>
</a>
</g>
</g>
<!-- Core_diagonal_functor_&#45;&gt;Core_diagonal_functor -->
<g id="edge12" class="edge"><title>Core_diagonal_functor_&#45;&gt;Core_diagonal_functor</title>
<path fill="none" stroke="black" d="M2160,-718.979C2160,-630.204 2160,-342.018 2160,-250.465"/>
<polygon fill="black" stroke="black" points="2163.5,-250.301 2160,-240.301 2156.5,-250.301 2163.5,-250.301"/>
</g>
</g>
</svg>
