<?xml version="1.0" encoding="UTF-8" standalone="no"?>
<!DOCTYPE svg PUBLIC "-//W3C//DTD SVG 1.1//EN"
 "http://www.w3.org/Graphics/SVG/1.1/DTD/svg11.dtd">
<!-- Generated by graphviz version 2.39.20141222.0545 (20141222.0545)
 -->
<!-- Title: HoTT_Categories_NaturalTransformation_Prod Pages: 1 -->
<svg width="414pt" height="211pt"
 viewBox="0.00 0.00 414.00 211.00" xmlns="http://www.w3.org/2000/svg" xmlns:xlink="http://www.w3.org/1999/xlink">
<g id="graph0" class="graph" transform="scale(1 1) rotate(0) translate(4 207)">
<title>HoTT_Categories_NaturalTransformation_Prod</title>
<polygon fill="white" stroke="transparent" points="-4,4 -4,-207 410,-207 410,4 -4,4"/>
<g id="clust1" class="cluster"><title>cluster_Prod</title>
<polygon fill="#ffffc3" stroke="black" points="8,-9.07263 8,-193.927 398,-193.927 398,-9.07263 8,-9.07263"/>
<text text-anchor="middle" x="29" y="-178.727" font-family="Times,serif" font-size="14.00">Prod</text>
</g>
<!-- Prod_induced_snd -->
<g id="node1" class="node"><title>Prod_induced_snd</title>
<g id="a_node1"><a xlink:href="Prod.html#induced_snd" xlink:title="induced_snd">
<ellipse fill="#f070d1" stroke="black" cx="305" cy="-129.073" rx="55.46" ry="18"/>
<ellipse fill="none" stroke="black" cx="305" cy="-129.073" rx="59.4756" ry="22"/>
<ellipse fill="none" stroke="black" cx="305" cy="-129.073" rx="63.4911" ry="26"/>
<text text-anchor="middle" x="305" y="-125.373" font-family="Times,serif" font-size="14.00">induced_snd</text>
</a>
</g>
</g>
<!-- Prod_induced_snd_subproof -->
<g id="node2" class="node"><title>Prod_induced_snd_subproof</title>
<g id="a_node2"><a xlink:href="Prod.html#induced_snd_subproof" xlink:title="induced_snd_subproof">
<ellipse fill="#facdef" stroke="black" cx="299" cy="-38.0726" rx="90.9839" ry="18"/>
<text text-anchor="middle" x="299" y="-34.3726" font-family="Times,serif" font-size="14.00">induced_snd_subproof</text>
</a>
</g>
</g>
<!-- Prod_induced_snd&#45;&gt;Prod_induced_snd_subproof -->
<g id="edge1" class="edge"><title>Prod_induced_snd&#45;&gt;Prod_induced_snd_subproof</title>
<path fill="none" stroke="black" d="M303.265,-102.752C302.512,-91.338 301.63,-77.9535 300.863,-66.3306"/>
<polygon fill="black" stroke="black" points="304.35,-66.0069 300.199,-56.2589 297.365,-66.4675 304.35,-66.0069"/>
</g>
<!-- Prod_induced_fst -->
<g id="node3" class="node"><title>Prod_induced_fst</title>
<g id="a_node3"><a xlink:href="Prod.html#induced_fst" xlink:title="induced_fst">
<ellipse fill="#f070d1" stroke="black" cx="164" cy="-129.073" rx="51.9914" ry="18"/>
<ellipse fill="none" stroke="black" cx="164" cy="-129.073" rx="55.9911" ry="22"/>
<ellipse fill="none" stroke="black" cx="164" cy="-129.073" rx="59.9908" ry="26"/>
<text text-anchor="middle" x="164" y="-125.373" font-family="Times,serif" font-size="14.00">induced_fst</text>
</a>
</g>
</g>
<!-- Prod_induced_fst_subproof -->
<g id="node4" class="node"><title>Prod_induced_fst_subproof</title>
<g id="a_node4"><a xlink:href="Prod.html#induced_fst_subproof" xlink:title="induced_fst_subproof">
<ellipse fill="#facdef" stroke="black" cx="103" cy="-38.0726" rx="87.1846" ry="18"/>
<text text-anchor="middle" x="103" y="-34.3726" font-family="Times,serif" font-size="14.00">induced_fst_subproof</text>
</a>
</g>
</g>
<!-- Prod_induced_fst&#45;&gt;Prod_induced_fst_subproof -->
<g id="edge2" class="edge"><title>Prod_induced_fst&#45;&gt;Prod_induced_fst_subproof</title>
<path fill="none" stroke="black" d="M147.008,-103.724C138.838,-91.5363 129.048,-76.9311 120.778,-64.594"/>
<polygon fill="black" stroke="black" points="123.545,-62.4361 115.07,-56.0785 117.731,-66.3338 123.545,-62.4361"/>
</g>
<!-- Prod_prod -->
<g id="node5" class="node"><title>Prod_prod</title>
<g id="a_node5"><a xlink:href="Prod.html#prod" xlink:title="prod">
<ellipse fill="#f070d1" stroke="black" cx="51" cy="-129.073" rx="27" ry="18"/>
<ellipse fill="none" stroke="black" cx="51" cy="-129.073" rx="31" ry="22"/>
<ellipse fill="none" stroke="black" cx="51" cy="-129.073" rx="35" ry="26"/>
<text text-anchor="middle" x="51" y="-125.373" font-family="Times,serif" font-size="14.00">prod</text>
</a>
</g>
</g>
</g>
</svg>
