<?xml version="1.0" encoding="UTF-8" standalone="no"?>
<!DOCTYPE svg PUBLIC "-//W3C//DTD SVG 1.1//EN"
 "http://www.w3.org/Graphics/SVG/1.1/DTD/svg11.dtd">
<!-- Generated by graphviz version 2.26.3 (20100126.1600)
 -->
<!-- Title: HoTT_categories_PseudonaturalTransformation_Core Pages: 1 -->
<svg width="1178pt" height="593pt"
 viewBox="0.00 0.00 1178.00 593.00" xmlns="http://www.w3.org/2000/svg" xmlns:xlink="http://www.w3.org/1999/xlink">
<g id="graph1" class="graph" transform="scale(1 1) rotate(0) translate(4 589)">
<title>HoTT_categories_PseudonaturalTransformation_Core</title>
<polygon fill="white" stroke="white" points="-4,5 -4,-589 1175,-589 1175,5 -4,5"/>
<g id="graph2" class="cluster"><title>cluster_Core</title>
<polygon fill="#ffffc3" stroke="black" points="8,-14.012 8,-570.988 1162,-570.988 1162,-14.012 8,-14.012"/>
<text text-anchor="middle" x="32.5" y="-554.388" font-family="Times Roman,serif" font-size="14.00">Core</text>
</g>
<!-- Core_p_commutes_respects_composition -->
<g id="node1" class="node"><title>Core_p_commutes_respects_composition</title>
<a xlink:href="Core.html#p_commutes_respects_composition" xlink:title="p_commutes_respects_composition">
<ellipse fill="#f070d1" stroke="black" cx="965" cy="-464.012" rx="181.247" ry="18.3848"/>
<ellipse fill="none" stroke="black" cx="965" cy="-464.012" rx="185.236" ry="22.3848"/>
<ellipse fill="none" stroke="black" cx="965" cy="-464.012" rx="189.226" ry="26.3848"/>
<text text-anchor="middle" x="965" y="-460.412" font-family="Times Roman,serif" font-size="14.00">p_commutes_respects_composition</text>
</a>
</g>
<!-- Core_p_commutes -->
<g id="node3" class="node"><title>Core_p_commutes</title>
<a xlink:href="Core.html#p_commutes" xlink:title="p_commutes">
<ellipse fill="#f070d1" stroke="black" cx="777" cy="-321.012" rx="72.832" ry="18.3848"/>
<text text-anchor="middle" x="777" y="-317.412" font-family="Times Roman,serif" font-size="14.00">p_commutes</text>
</a>
</g>
<!-- Core_p_commutes_respects_composition&#45;&gt;Core_p_commutes -->
<g id="edge2" class="edge"><title>Core_p_commutes_respects_composition&#45;&gt;Core_p_commutes</title>
<path fill="none" stroke="black" d="M930.518,-437.784C895.631,-411.247 842.163,-370.578 808.417,-344.909"/>
<polygon fill="black" stroke="black" points="810.363,-341.992 800.285,-338.724 806.126,-347.563 810.363,-341.992"/>
</g>
<!-- Core_p_commutes_respects_identity -->
<g id="node2" class="node"><title>Core_p_commutes_respects_identity</title>
<a xlink:href="Core.html#p_commutes_respects_identity" xlink:title="p_commutes_respects_identity">
<ellipse fill="#f070d1" stroke="black" cx="589" cy="-464.012" rx="161.22" ry="18.3848"/>
<ellipse fill="none" stroke="black" cx="589" cy="-464.012" rx="165.22" ry="22.3848"/>
<ellipse fill="none" stroke="black" cx="589" cy="-464.012" rx="169.22" ry="26.3848"/>
<text text-anchor="middle" x="589" y="-460.412" font-family="Times Roman,serif" font-size="14.00">p_commutes_respects_identity</text>
</a>
</g>
<!-- Core_p_commutes_respects_identity&#45;&gt;Core_p_commutes -->
<g id="edge4" class="edge"><title>Core_p_commutes_respects_identity&#45;&gt;Core_p_commutes</title>
<path fill="none" stroke="black" d="M623.482,-437.784C658.369,-411.247 711.837,-370.578 745.583,-344.909"/>
<polygon fill="black" stroke="black" points="747.874,-347.563 753.715,-338.724 743.637,-341.992 747.874,-347.563"/>
</g>
<!-- Core_p_components_of -->
<g id="node4" class="node"><title>Core_p_components_of</title>
<a xlink:href="Core.html#p_components_of" xlink:title="p_components_of">
<ellipse fill="#f070d1" stroke="black" cx="777" cy="-191.012" rx="96.1665" ry="18.3848"/>
<text text-anchor="middle" x="777" y="-187.412" font-family="Times Roman,serif" font-size="14.00">p_components_of</text>
</a>
</g>
<!-- Core_p_commutes&#45;&gt;Core_p_components_of -->
<g id="edge6" class="edge"><title>Core_p_commutes&#45;&gt;Core_p_components_of</title>
<path fill="none" stroke="black" d="M777,-302.386C777,-280.762 777,-244.851 777,-219.667"/>
<polygon fill="black" stroke="black" points="780.5,-219.603 777,-209.603 773.5,-219.603 780.5,-219.603"/>
</g>
<!-- Core_PseudonaturalTransformation -->
<g id="node6" class="node"><title>Core_PseudonaturalTransformation</title>
<a xlink:href="Core.html#PseudonaturalTransformation" xlink:title="PseudonaturalTransformation">
<ellipse fill="#e2cdfa" stroke="black" cx="777" cy="-61.012" rx="155.063" ry="18.3848"/>
<text text-anchor="middle" x="777" y="-57.412" font-family="Times Roman,serif" font-size="14.00">PseudonaturalTransformation</text>
</a>
</g>
<!-- Core_p_components_of&#45;&gt;Core_PseudonaturalTransformation -->
<g id="edge8" class="edge"><title>Core_p_components_of&#45;&gt;Core_PseudonaturalTransformation</title>
<path fill="none" stroke="black" d="M777,-172.386C777,-150.762 777,-114.851 777,-89.6667"/>
<polygon fill="black" stroke="black" points="780.5,-89.6032 777,-79.6033 773.5,-89.6033 780.5,-89.6032"/>
</g>
<!-- Core_Build_PseudonaturalTransformation -->
<g id="node5" class="node"><title>Core_Build_PseudonaturalTransformation</title>
<a xlink:href="Core.html#Build_PseudonaturalTransformation" xlink:title="Build_PseudonaturalTransformation">
<ellipse fill="#7faaff" stroke="black" cx="209" cy="-464.012" rx="184.783" ry="18.3848"/>
<ellipse fill="none" stroke="black" cx="209" cy="-464.012" rx="188.773" ry="22.3848"/>
<ellipse fill="none" stroke="black" cx="209" cy="-464.012" rx="192.763" ry="26.3848"/>
<text text-anchor="middle" x="209" y="-460.412" font-family="Times Roman,serif" font-size="14.00">Build_PseudonaturalTransformation</text>
</a>
</g>
</g>
</svg>
