<?xml version="1.0" encoding="UTF-8" standalone="no"?>
<!DOCTYPE svg PUBLIC "-//W3C//DTD SVG 1.1//EN"
 "http://www.w3.org/Graphics/SVG/1.1/DTD/svg11.dtd">
<!-- Generated by graphviz version 2.39.20141222.0545 (20141222.0545)
 -->
<!-- Title: HoTT_Categories_KanExtensions_Core Pages: 1 -->
<svg width="738pt" height="373pt"
 viewBox="0.00 0.00 738.00 373.00" xmlns="http://www.w3.org/2000/svg" xmlns:xlink="http://www.w3.org/1999/xlink">
<g id="graph0" class="graph" transform="scale(1 1) rotate(0) translate(4 369)">
<title>HoTT_Categories_KanExtensions_Core</title>
<polygon fill="white" stroke="transparent" points="-4,4 -4,-369 734,-369 734,4 -4,4"/>
<g id="clust1" class="cluster"><title>cluster_Core</title>
<polygon fill="#ffffc3" stroke="black" points="8,-16.3128 8,-348.687 722,-348.687 722,-16.3128 8,-16.3128"/>
<text text-anchor="middle" x="29.5" y="-333.487" font-family="Times,serif" font-size="14.00">Core</text>
</g>
<!-- Core_IsRightKanExtensionAlong -->
<g id="node1" class="node"><title>Core_IsRightKanExtensionAlong</title>
<g id="a_node1"><a xlink:href="Core.html#IsRightKanExtensionAlong" xlink:title="IsRightKanExtensionAlong">
<ellipse fill="#f070d1" stroke="black" cx="597" cy="-232.313" rx="108.578" ry="18"/>
<ellipse fill="none" stroke="black" cx="597" cy="-232.313" rx="112.579" ry="22"/>
<ellipse fill="none" stroke="black" cx="597" cy="-232.313" rx="116.581" ry="26"/>
<text text-anchor="middle" x="597" y="-228.613" font-family="Times,serif" font-size="14.00">IsRightKanExtensionAlong</text>
</a>
</g>
</g>
<!-- Core_pullback_along -->
<g id="node3" class="node"><title>Core_pullback_along</title>
<g id="a_node3"><a xlink:href="Core.html#pullback_along" xlink:title="pullback_along">
<ellipse fill="#f070d1" stroke="black" cx="474" cy="-69.3128" rx="64.9885" ry="18"/>
<text text-anchor="middle" x="474" y="-65.6128" font-family="Times,serif" font-size="14.00">pullback_along</text>
</a>
</g>
</g>
<!-- Core_IsRightKanExtensionAlong&#45;&gt;Core_pullback_along -->
<g id="edge1" class="edge"><title>Core_IsRightKanExtensionAlong&#45;&gt;Core_pullback_along</title>
<path fill="none" stroke="black" d="M577.51,-206.485C554.477,-175.961 516.383,-125.479 493.392,-95.0114"/>
<polygon fill="black" stroke="black" points="496.15,-92.8561 487.333,-86.9819 490.563,-97.0725 496.15,-92.8561"/>
</g>
<!-- Core_IsLeftKanExtensionAlong -->
<g id="node2" class="node"><title>Core_IsLeftKanExtensionAlong</title>
<g id="a_node2"><a xlink:href="Core.html#IsLeftKanExtensionAlong" xlink:title="IsLeftKanExtensionAlong">
<ellipse fill="#f070d1" stroke="black" cx="351" cy="-232.313" rx="103.193" ry="18"/>
<ellipse fill="none" stroke="black" cx="351" cy="-232.313" rx="107.188" ry="22"/>
<ellipse fill="none" stroke="black" cx="351" cy="-232.313" rx="111.182" ry="26"/>
<text text-anchor="middle" x="351" y="-228.613" font-family="Times,serif" font-size="14.00">IsLeftKanExtensionAlong</text>
</a>
</g>
</g>
<!-- Core_IsLeftKanExtensionAlong&#45;&gt;Core_pullback_along -->
<g id="edge2" class="edge"><title>Core_IsLeftKanExtensionAlong&#45;&gt;Core_pullback_along</title>
<path fill="none" stroke="black" d="M370.49,-206.485C393.523,-175.961 431.617,-125.479 454.608,-95.0114"/>
<polygon fill="black" stroke="black" points="457.437,-97.0725 460.667,-86.9819 451.85,-92.8561 457.437,-97.0725"/>
</g>
<!-- Core_pullback_along_functor -->
<g id="node4" class="node"><title>Core_pullback_along_functor</title>
<g id="a_node4"><a xlink:href="Core.html#pullback_along_functor" xlink:title="pullback_along_functor">
<ellipse fill="#f070d1" stroke="black" cx="119" cy="-232.313" rx="94.7917" ry="18"/>
<ellipse fill="none" stroke="black" cx="119" cy="-232.313" rx="98.7875" ry="22"/>
<ellipse fill="none" stroke="black" cx="119" cy="-232.313" rx="102.783" ry="26"/>
<text text-anchor="middle" x="119" y="-228.613" font-family="Times,serif" font-size="14.00">pullback_along_functor</text>
</a>
</g>
</g>
</g>
</svg>
