<?xml version="1.0" encoding="UTF-8" standalone="no"?>
<!DOCTYPE svg PUBLIC "-//W3C//DTD SVG 1.1//EN"
 "http://www.w3.org/Graphics/SVG/1.1/DTD/svg11.dtd">
<!-- Generated by graphviz version 2.39.20141222.0545 (20141222.0545)
 -->
<!-- Title: HoTT_hit_Pushout Pages: 1 -->
<svg width="846pt" height="427pt"
 viewBox="0.00 0.00 846.00 427.00" xmlns="http://www.w3.org/2000/svg" xmlns:xlink="http://www.w3.org/1999/xlink">
<g id="graph0" class="graph" transform="scale(1 1) rotate(0) translate(4 423)">
<title>HoTT_hit_Pushout</title>
<polygon fill="white" stroke="transparent" points="-4,4 -4,-423 842,-423 842,4 -4,4"/>
<g id="clust1" class="cluster"><title>cluster_Pushout</title>
<polygon fill="#ffffc3" stroke="black" points="8.70649,-8 8.70649,-411 829.294,-411 829.294,-8 8.70649,-8"/>
<text text-anchor="middle" x="38.7065" y="-395.8" font-family="Times,serif" font-size="14.00">Pushout</text>
</g>
<g id="clust2" class="cluster"><title>cluster_Pushout_Pushout</title>
<polygon fill="#ffffa3" stroke="black" points="17.413,-16 17.413,-243 366.761,-243 366.761,-16 17.413,-16"/>
<text text-anchor="middle" x="47.413" y="-227.8" font-family="Times,serif" font-size="14.00">Pushout</text>
</g>
<!-- Pushout_Pushout_pushout_ind_beta_pp -->
<g id="node1" class="node"><title>Pushout_Pushout_pushout_ind_beta_pp</title>
<g id="a_node1"><a xlink:href="Pushout.html#Pushout.pushout_ind_beta_pp" xlink:title="pushout_ind_beta_pp">
<ellipse fill="#facdef" stroke="black" cx="119.644" cy="-194" rx="86.3847" ry="18"/>
<text text-anchor="middle" x="119.644" y="-190.3" font-family="Times,serif" font-size="14.00">pushout_ind_beta_pp</text>
</a>
</g>
</g>
<!-- Pushout_Pushout_pushout_ind -->
<g id="node2" class="node"><title>Pushout_Pushout_pushout_ind</title>
<g id="a_node2"><a xlink:href="Pushout.html#Pushout.pushout_ind" xlink:title="pushout_ind">
<ellipse fill="#f070d1" stroke="black" cx="291.644" cy="-194" rx="53.8905" ry="18"/>
<text text-anchor="middle" x="291.644" y="-190.3" font-family="Times,serif" font-size="14.00">pushout_ind</text>
</a>
</g>
</g>
<!-- Pushout_Pushout_pp -->
<g id="node3" class="node"><title>Pushout_Pushout_pp</title>
<g id="a_node3"><a xlink:href="Pushout.html#Pushout.pp" xlink:title="pp">
<ellipse fill="#facdef" stroke="black" cx="226.644" cy="-114" rx="27" ry="18"/>
<text text-anchor="middle" x="226.644" y="-110.3" font-family="Times,serif" font-size="14.00">pp</text>
</a>
</g>
</g>
<!-- Pushout_Pushout_pushout_ind&#45;&gt;Pushout_Pushout_pp -->
<g id="edge1" class="edge"><title>Pushout_Pushout_pushout_ind&#45;&gt;Pushout_Pushout_pp</title>
<path fill="none" stroke="black" d="M277.219,-176.245C268.102,-165.025 256.203,-150.38 246.238,-138.115"/>
<polygon fill="black" stroke="black" points="248.727,-135.629 239.705,-130.075 243.295,-140.043 248.727,-135.629"/>
</g>
<!-- Pushout_Pushout_pushr -->
<g id="node4" class="node"><title>Pushout_Pushout_pushr</title>
<g id="a_node4"><a xlink:href="Pushout.html#Pushout.pushr" xlink:title="pushr">
<ellipse fill="#f070d1" stroke="black" cx="59.6442" cy="-114" rx="30.5947" ry="18"/>
<text text-anchor="middle" x="59.6442" y="-110.3" font-family="Times,serif" font-size="14.00">pushr</text>
</a>
</g>
</g>
<!-- Pushout_Pushout_pushout_ind&#45;&gt;Pushout_Pushout_pushr -->
<g id="edge2" class="edge"><title>Pushout_Pushout_pushout_ind&#45;&gt;Pushout_Pushout_pushr</title>
<path fill="none" stroke="black" d="M253.671,-181.122C241.239,-176.921 227.358,-172.246 214.644,-168 166.253,-151.839 153.639,-149.302 105.644,-132 102.13,-130.733 98.4794,-129.376 94.8411,-127.996"/>
<polygon fill="black" stroke="black" points="95.9302,-124.665 85.3404,-124.338 93.4144,-131.198 95.9302,-124.665"/>
</g>
<!-- Pushout_Pushout_pushl -->
<g id="node5" class="node"><title>Pushout_Pushout_pushl</title>
<g id="a_node5"><a xlink:href="Pushout.html#Pushout.pushl" xlink:title="pushl">
<ellipse fill="#f070d1" stroke="black" cx="144.644" cy="-114" rx="29.795" ry="18"/>
<text text-anchor="middle" x="144.644" y="-110.3" font-family="Times,serif" font-size="14.00">pushl</text>
</a>
</g>
</g>
<!-- Pushout_Pushout_pushout_ind&#45;&gt;Pushout_Pushout_pushl -->
<g id="edge3" class="edge"><title>Pushout_Pushout_pushout_ind&#45;&gt;Pushout_Pushout_pushl</title>
<path fill="none" stroke="black" d="M263.301,-178.575C238.334,-164.988 202.018,-145.224 176.148,-131.145"/>
<polygon fill="black" stroke="black" points="177.587,-127.943 167.13,-126.237 174.241,-134.092 177.587,-127.943"/>
</g>
<!-- Pushout_Pushout_pushout -->
<g id="node7" class="node"><title>Pushout_Pushout_pushout</title>
<g id="a_node7"><a xlink:href="Pushout.html#Pushout.pushout" xlink:title="pushout">
<ellipse fill="#e2cdfa" stroke="black" cx="316.644" cy="-114" rx="38.1938" ry="18"/>
<text text-anchor="middle" x="316.644" y="-110.3" font-family="Times,serif" font-size="14.00">pushout</text>
</a>
</g>
</g>
<!-- Pushout_Pushout_pushout_ind&#45;&gt;Pushout_Pushout_pushout -->
<g id="edge4" class="edge"><title>Pushout_Pushout_pushout_ind&#45;&gt;Pushout_Pushout_pushout</title>
<path fill="none" stroke="black" d="M297.317,-175.847C300.45,-165.823 304.407,-153.158 307.924,-141.904"/>
<polygon fill="black" stroke="black" points="311.352,-142.67 310.994,-132.081 304.67,-140.582 311.352,-142.67"/>
</g>
<!-- Pushout_Pushout_push -->
<g id="node6" class="node"><title>Pushout_Pushout_push</title>
<g id="a_node6"><a xlink:href="Pushout.html#Pushout.push" xlink:title="push">
<ellipse fill="#7faaff" stroke="black" cx="144.644" cy="-42" rx="27.0966" ry="18"/>
<text text-anchor="middle" x="144.644" y="-38.3" font-family="Times,serif" font-size="14.00">push</text>
</a>
</g>
</g>
<!-- Pushout_Pushout_pushr&#45;&gt;Pushout_Pushout_push -->
<g id="edge5" class="edge"><title>Pushout_Pushout_pushr&#45;&gt;Pushout_Pushout_push</title>
<path fill="none" stroke="black" d="M77.2562,-99.0816C89.6135,-88.6142 106.305,-74.4754 119.984,-62.8884"/>
<polygon fill="black" stroke="black" points="122.266,-65.5422 127.635,-56.408 117.742,-60.2008 122.266,-65.5422"/>
</g>
<!-- Pushout_Pushout_pushl&#45;&gt;Pushout_Pushout_push -->
<g id="edge6" class="edge"><title>Pushout_Pushout_pushl&#45;&gt;Pushout_Pushout_push</title>
<path fill="none" stroke="black" d="M144.644,-95.8314C144.644,-88.131 144.644,-78.9743 144.644,-70.4166"/>
<polygon fill="black" stroke="black" points="148.144,-70.4132 144.644,-60.4133 141.144,-70.4133 148.144,-70.4132"/>
</g>
<!-- Pushout_setcone_point -->
<g id="node8" class="node"><title>Pushout_setcone_point</title>
<g id="a_node8"><a xlink:href="Pushout.html#setcone_point" xlink:title="setcone_point">
<ellipse fill="#f070d1" stroke="black" cx="746.644" cy="-194" rx="59.6142" ry="18"/>
<ellipse fill="none" stroke="black" cx="746.644" cy="-194" rx="63.6021" ry="22"/>
<ellipse fill="none" stroke="black" cx="746.644" cy="-194" rx="67.59" ry="26"/>
<text text-anchor="middle" x="746.644" y="-190.3" font-family="Times,serif" font-size="14.00">setcone_point</text>
</a>
</g>
</g>
<!-- Pushout_setcone_point&#45;&gt;Pushout_Pushout_push -->
<g id="edge7" class="edge"><title>Pushout_setcone_point&#45;&gt;Pushout_Pushout_push</title>
<path fill="none" stroke="black" d="M692.964,-178.112C681.032,-174.687 668.428,-171.151 656.644,-168 478.58,-120.39 263.883,-69.7259 180.335,-50.2651"/>
<polygon fill="black" stroke="black" points="181.11,-46.8521 170.577,-47.9954 179.524,-53.6701 181.11,-46.8521"/>
</g>
<!-- Pushout_setcone_point&#45;&gt;Pushout_Pushout_pushout -->
<g id="edge8" class="edge"><title>Pushout_setcone_point&#45;&gt;Pushout_Pushout_pushout</title>
<path fill="none" stroke="black" d="M694.172,-177.304C681.948,-173.844 668.916,-170.497 656.644,-168 525.915,-141.401 487.48,-166.626 358.644,-132 356.959,-131.547 355.253,-131.039 353.542,-130.489"/>
<polygon fill="black" stroke="black" points="354.402,-127.078 343.808,-126.964 352.018,-133.659 354.402,-127.078"/>
</g>
<!-- Pushout_istrunc_setcone -->
<g id="node9" class="node"><title>Pushout_istrunc_setcone</title>
<g id="a_node9"><a xlink:href="Pushout.html#istrunc_setcone" xlink:title="istrunc_setcone">
<ellipse fill="#f070d1" stroke="black" cx="573.644" cy="-194" rx="65.7729" ry="18"/>
<ellipse fill="none" stroke="black" cx="573.644" cy="-194" rx="69.7808" ry="22"/>
<ellipse fill="none" stroke="black" cx="573.644" cy="-194" rx="73.7886" ry="26"/>
<text text-anchor="middle" x="573.644" y="-190.3" font-family="Times,serif" font-size="14.00">istrunc_setcone</text>
</a>
</g>
</g>
<!-- Pushout_istrunc_setcone&#45;&gt;Pushout_Pushout_pushout -->
<g id="edge9" class="edge"><title>Pushout_istrunc_setcone&#45;&gt;Pushout_Pushout_pushout</title>
<path fill="none" stroke="black" d="M515.192,-178.024C461.959,-163.314 387.411,-142.267 358.644,-132 357.052,-131.432 355.433,-130.833 353.805,-130.214"/>
<polygon fill="black" stroke="black" points="355.052,-126.943 344.466,-126.496 352.462,-133.446 355.052,-126.943"/>
</g>
<!-- Pushout_setcone -->
<g id="node10" class="node"><title>Pushout_setcone</title>
<g id="a_node10"><a xlink:href="Pushout.html#setcone" xlink:title="setcone">
<ellipse fill="#f070d1" stroke="black" cx="424.644" cy="-194" rx="37.0852" ry="18"/>
<ellipse fill="none" stroke="black" cx="424.644" cy="-194" rx="41.0893" ry="22"/>
<ellipse fill="none" stroke="black" cx="424.644" cy="-194" rx="45.0935" ry="26"/>
<text text-anchor="middle" x="424.644" y="-190.3" font-family="Times,serif" font-size="14.00">setcone</text>
</a>
</g>
</g>
<!-- Pushout_setcone&#45;&gt;Pushout_Pushout_pushout -->
<g id="edge10" class="edge"><title>Pushout_setcone&#45;&gt;Pushout_Pushout_pushout</title>
<path fill="none" stroke="black" d="M396.831,-173.398C381.117,-161.758 361.498,-147.225 345.6,-135.449"/>
<polygon fill="black" stroke="black" points="347.317,-132.365 337.198,-129.225 343.151,-137.99 347.317,-132.365"/>
</g>
<!-- Pushout_pushout_rec_beta_pp -->
<g id="node11" class="node"><title>Pushout_pushout_rec_beta_pp</title>
<g id="a_node11"><a xlink:href="Pushout.html#pushout_rec_beta_pp" xlink:title="pushout_rec_beta_pp">
<ellipse fill="#f070d1" stroke="black" cx="205.644" cy="-354" rx="85.6029" ry="18"/>
<ellipse fill="none" stroke="black" cx="205.644" cy="-354" rx="89.5941" ry="22"/>
<ellipse fill="none" stroke="black" cx="205.644" cy="-354" rx="93.5852" ry="26"/>
<text text-anchor="middle" x="205.644" y="-350.3" font-family="Times,serif" font-size="14.00">pushout_rec_beta_pp</text>
</a>
</g>
</g>
<!-- Pushout_pushout_rec_beta_pp&#45;&gt;Pushout_Pushout_pushout_ind_beta_pp -->
<g id="edge11" class="edge"><title>Pushout_pushout_rec_beta_pp&#45;&gt;Pushout_Pushout_pushout_ind_beta_pp</title>
<path fill="none" stroke="black" d="M191.635,-327.937C175.831,-298.533 150.245,-250.931 134.213,-221.105"/>
<polygon fill="black" stroke="black" points="137.186,-219.243 129.368,-212.091 131.02,-222.557 137.186,-219.243"/>
</g>
<!-- Pushout_pushout_rec -->
<g id="node12" class="node"><title>Pushout_pushout_rec</title>
<g id="a_node12"><a xlink:href="Pushout.html#pushout_rec" xlink:title="pushout_rec">
<ellipse fill="#f070d1" stroke="black" cx="267.644" cy="-274" rx="53.8905" ry="18"/>
<text text-anchor="middle" x="267.644" y="-270.3" font-family="Times,serif" font-size="14.00">pushout_rec</text>
</a>
</g>
</g>
<!-- Pushout_pushout_rec_beta_pp&#45;&gt;Pushout_pushout_rec -->
<g id="edge12" class="edge"><title>Pushout_pushout_rec_beta_pp&#45;&gt;Pushout_pushout_rec</title>
<path fill="none" stroke="black" d="M225.603,-328.247C232.649,-319.155 240.572,-308.932 247.624,-299.833"/>
<polygon fill="black" stroke="black" points="250.446,-301.905 253.805,-291.857 244.913,-297.617 250.446,-301.905"/>
</g>
<!-- Pushout_pushout_rec&#45;&gt;Pushout_Pushout_pushout_ind -->
<g id="edge13" class="edge"><title>Pushout_pushout_rec&#45;&gt;Pushout_Pushout_pushout_ind</title>
<path fill="none" stroke="black" d="M273.09,-255.847C276.097,-245.823 279.897,-233.158 283.273,-221.904"/>
<polygon fill="black" stroke="black" points="286.699,-222.665 286.22,-212.081 279.994,-220.654 286.699,-222.665"/>
</g>
</g>
</svg>
