<?xml version="1.0" encoding="UTF-8" standalone="no"?>
<!DOCTYPE svg PUBLIC "-//W3C//DTD SVG 1.1//EN"
 "http://www.w3.org/Graphics/SVG/1.1/DTD/svg11.dtd">
<!-- Generated by graphviz version 2.39.20141222.0545 (20141222.0545)
 -->
<!-- Title: HoTT_HProp Pages: 1 -->
<svg width="1131pt" height="570pt"
 viewBox="0.00 0.00 1131.00 569.50" xmlns="http://www.w3.org/2000/svg" xmlns:xlink="http://www.w3.org/1999/xlink">
<g id="graph0" class="graph" transform="scale(1 1) rotate(0) translate(4 565.5)">
<title>HoTT_HProp</title>
<polygon fill="white" stroke="transparent" points="-4,4 -4,-565.5 1127,-565.5 1127,4 -4,4"/>
<g id="clust1" class="cluster"><title>cluster_HProp</title>
<polygon fill="#ffffc3" stroke="black" points="8,-12.6535 8,-548.846 1115,-548.846 1115,-12.6535 8,-12.6535"/>
<text text-anchor="middle" x="34" y="-533.646" font-family="Times,serif" font-size="14.00">HProp</text>
</g>
<!-- HProp_if_not_hprop_then_equiv_Empty -->
<g id="node1" class="node"><title>HProp_if_not_hprop_then_equiv_Empty</title>
<g id="a_node1"><a xlink:href="HProp.html#if_not_hprop_then_equiv_Empty" xlink:title="if_not_hprop_then_equiv_Empty">
<ellipse fill="#f070d1" stroke="black" cx="971" cy="-458.654" rx="128.075" ry="18"/>
<ellipse fill="none" stroke="black" cx="971" cy="-458.654" rx="132.076" ry="22"/>
<ellipse fill="none" stroke="black" cx="971" cy="-458.654" rx="136.077" ry="26"/>
<text text-anchor="middle" x="971" y="-454.954" font-family="Times,serif" font-size="14.00">if_not_hprop_then_equiv_Empty</text>
</a>
</g>
</g>
<!-- HProp_if_hprop_then_equiv_Unit -->
<g id="node2" class="node"><title>HProp_if_hprop_then_equiv_Unit</title>
<g id="a_node2"><a xlink:href="HProp.html#if_hprop_then_equiv_Unit" xlink:title="if_hprop_then_equiv_Unit">
<ellipse fill="#f070d1" stroke="black" cx="704" cy="-458.654" rx="104.772" ry="18"/>
<ellipse fill="none" stroke="black" cx="704" cy="-458.654" rx="108.777" ry="22"/>
<ellipse fill="none" stroke="black" cx="704" cy="-458.654" rx="112.782" ry="26"/>
<text text-anchor="middle" x="704" y="-454.954" font-family="Times,serif" font-size="14.00">if_hprop_then_equiv_Unit</text>
</a>
</g>
</g>
<!-- HProp_isequiv_equiv_iff_hprop_uncurried -->
<g id="node3" class="node"><title>HProp_isequiv_equiv_iff_hprop_uncurried</title>
<g id="a_node3"><a xlink:href="HProp.html#isequiv_equiv_iff_hprop_uncurried" xlink:title="isequiv_equiv_iff_hprop_uncurried">
<ellipse fill="#f070d1" stroke="black" cx="430" cy="-458.654" rx="135.685" ry="18"/>
<ellipse fill="none" stroke="black" cx="430" cy="-458.654" rx="139.681" ry="22"/>
<ellipse fill="none" stroke="black" cx="430" cy="-458.654" rx="143.676" ry="26"/>
<text text-anchor="middle" x="430" y="-454.954" font-family="Times,serif" font-size="14.00">isequiv_equiv_iff_hprop_uncurried</text>
</a>
</g>
</g>
<!-- HProp_equiv_contr_inhabited_allpath -->
<g id="node4" class="node"><title>HProp_equiv_contr_inhabited_allpath</title>
<g id="a_node4"><a xlink:href="HProp.html#equiv_contr_inhabited_allpath" xlink:title="equiv_contr_inhabited_allpath">
<ellipse fill="#f070d1" stroke="black" cx="142" cy="-458.654" rx="118.093" ry="18"/>
<ellipse fill="none" stroke="black" cx="142" cy="-458.654" rx="122.086" ry="22"/>
<ellipse fill="none" stroke="black" cx="142" cy="-458.654" rx="126.079" ry="26"/>
<text text-anchor="middle" x="142" y="-454.954" font-family="Times,serif" font-size="14.00">equiv_contr_inhabited_allpath</text>
</a>
</g>
</g>
<!-- HProp_equiv_contr_inhabited_hprop -->
<g id="node5" class="node"><title>HProp_equiv_contr_inhabited_hprop</title>
<g id="a_node5"><a xlink:href="HProp.html#equiv_contr_inhabited_hprop" xlink:title="equiv_contr_inhabited_hprop">
<ellipse fill="#f070d1" stroke="black" cx="318" cy="-319.654" rx="114.28" ry="18"/>
<text text-anchor="middle" x="318" y="-315.954" font-family="Times,serif" font-size="14.00">equiv_contr_inhabited_hprop</text>
</a>
</g>
</g>
<!-- HProp_equiv_contr_inhabited_allpath&#45;&gt;HProp_equiv_contr_inhabited_hprop -->
<g id="edge1" class="edge"><title>HProp_equiv_contr_inhabited_allpath&#45;&gt;HProp_equiv_contr_inhabited_hprop</title>
<path fill="none" stroke="black" d="M173.872,-433.482C206.154,-407.987 255.729,-368.833 287.507,-343.736"/>
<polygon fill="black" stroke="black" points="289.896,-346.309 295.575,-337.364 285.558,-340.816 289.896,-346.309"/>
</g>
<!-- HProp_equiv_hprop_allpath -->
<g id="node7" class="node"><title>HProp_equiv_hprop_allpath</title>
<g id="a_node7"><a xlink:href="HProp.html#equiv_hprop_allpath" xlink:title="equiv_hprop_allpath">
<ellipse fill="#f070d1" stroke="black" cx="519" cy="-180.654" rx="83.3857" ry="18"/>
<text text-anchor="middle" x="519" y="-176.954" font-family="Times,serif" font-size="14.00">equiv_hprop_allpath</text>
</a>
</g>
</g>
<!-- HProp_equiv_contr_inhabited_allpath&#45;&gt;HProp_equiv_hprop_allpath -->
<g id="edge2" class="edge"><title>HProp_equiv_contr_inhabited_allpath&#45;&gt;HProp_equiv_hprop_allpath</title>
<path fill="none" stroke="black" d="M238.493,-441.779C302.53,-426.263 384.823,-397.494 441,-345.654 481.692,-308.103 503.175,-244.933 512.713,-208.618"/>
<polygon fill="black" stroke="black" points="516.163,-209.25 515.195,-198.699 509.372,-207.55 516.163,-209.25"/>
</g>
<!-- HProp_hprop_trunc -->
<g id="node9" class="node"><title>HProp_hprop_trunc</title>
<g id="a_node9"><a xlink:href="HProp.html#hprop_trunc" xlink:title="hprop_trunc">
<ellipse fill="#facdef" stroke="black" cx="101" cy="-180.654" rx="53.8905" ry="18"/>
<text text-anchor="middle" x="101" y="-176.954" font-family="Times,serif" font-size="14.00">hprop_trunc</text>
</a>
</g>
</g>
<!-- HProp_equiv_contr_inhabited_hprop&#45;&gt;HProp_hprop_trunc -->
<g id="edge3" class="edge"><title>HProp_equiv_contr_inhabited_hprop&#45;&gt;HProp_hprop_trunc</title>
<path fill="none" stroke="black" d="M290.517,-302.049C250.909,-276.678 177.836,-229.871 134.921,-202.382"/>
<polygon fill="black" stroke="black" points="136.553,-199.27 126.244,-196.824 132.777,-205.165 136.553,-199.27"/>
</g>
<!-- HProp_equiv_hprop_inhabited_contr -->
<g id="node6" class="node"><title>HProp_equiv_hprop_inhabited_contr</title>
<g id="a_node6"><a xlink:href="HProp.html#equiv_hprop_inhabited_contr" xlink:title="equiv_hprop_inhabited_contr">
<ellipse fill="#f070d1" stroke="black" cx="295" cy="-180.654" rx="114.287" ry="18"/>
<ellipse fill="none" stroke="black" cx="295" cy="-180.654" rx="118.283" ry="22"/>
<ellipse fill="none" stroke="black" cx="295" cy="-180.654" rx="122.28" ry="26"/>
<text text-anchor="middle" x="295" y="-176.954" font-family="Times,serif" font-size="14.00">equiv_hprop_inhabited_contr</text>
</a>
</g>
</g>
<!-- HProp_contr_contr -->
<g id="node10" class="node"><title>HProp_contr_contr</title>
<g id="a_node10"><a xlink:href="HProp.html#contr_contr" xlink:title="contr_contr">
<ellipse fill="#facdef" stroke="black" cx="295" cy="-53.6535" rx="51.1914" ry="18"/>
<text text-anchor="middle" x="295" y="-49.9535" font-family="Times,serif" font-size="14.00">contr_contr</text>
</a>
</g>
</g>
<!-- HProp_equiv_hprop_inhabited_contr&#45;&gt;HProp_contr_contr -->
<g id="edge4" class="edge"><title>HProp_equiv_hprop_inhabited_contr&#45;&gt;HProp_contr_contr</title>
<path fill="none" stroke="black" d="M295,-154.647C295,-133.539 295,-103.821 295,-82.0869"/>
<polygon fill="black" stroke="black" points="298.5,-81.8347 295,-71.8348 291.5,-81.8348 298.5,-81.8347"/>
</g>
<!-- HProp_equiv_hprop_allpath&#45;&gt;HProp_contr_contr -->
<g id="edge5" class="edge"><title>HProp_equiv_hprop_allpath&#45;&gt;HProp_contr_contr</title>
<path fill="none" stroke="black" d="M489.255,-163.789C448.368,-140.608 374.886,-98.946 330.963,-74.0433"/>
<polygon fill="black" stroke="black" points="332.487,-70.8838 322.061,-68.9964 329.034,-76.9732 332.487,-70.8838"/>
</g>
<!-- HProp_isprop_istruncmap -->
<g id="node8" class="node"><title>HProp_isprop_istruncmap</title>
<g id="a_node8"><a xlink:href="HProp.html#isprop_istruncmap" xlink:title="isprop_istruncmap">
<ellipse fill="#f070d1" stroke="black" cx="101" cy="-319.654" rx="76.8685" ry="18"/>
<ellipse fill="none" stroke="black" cx="101" cy="-319.654" rx="80.8777" ry="22"/>
<ellipse fill="none" stroke="black" cx="101" cy="-319.654" rx="84.8868" ry="26"/>
<text text-anchor="middle" x="101" y="-315.954" font-family="Times,serif" font-size="14.00">isprop_istruncmap</text>
</a>
</g>
</g>
<!-- HProp_isprop_istruncmap&#45;&gt;HProp_hprop_trunc -->
<g id="edge6" class="edge"><title>HProp_isprop_istruncmap&#45;&gt;HProp_hprop_trunc</title>
<path fill="none" stroke="black" d="M101,-293.509C101,-269.395 101,-233.688 101,-208.921"/>
<polygon fill="black" stroke="black" points="104.5,-208.718 101,-198.718 97.5001,-208.718 104.5,-208.718"/>
</g>
<!-- HProp_hprop_trunc&#45;&gt;HProp_contr_contr -->
<g id="edge7" class="edge"><title>HProp_hprop_trunc&#45;&gt;HProp_contr_contr</title>
<path fill="none" stroke="black" d="M125.57,-164.569C160.117,-141.953 223.143,-100.694 261.823,-75.3724"/>
<polygon fill="black" stroke="black" points="264.18,-78.0131 270.629,-69.6076 260.346,-72.1564 264.18,-78.0131"/>
</g>
</g>
</svg>
