<?xml version="1.0" encoding="UTF-8" standalone="no"?>
<!DOCTYPE svg PUBLIC "-//W3C//DTD SVG 1.1//EN"
 "http://www.w3.org/Graphics/SVG/1.1/DTD/svg11.dtd">
<!-- Generated by graphviz version 2.26.3 (20100126.1600)
 -->
<!-- Title: HoTT_categories_Adjoint_UniversalMorphisms_FunctorialParts Pages: 1 -->
<svg width="610pt" height="309pt"
 viewBox="0.00 0.00 610.00 309.00" xmlns="http://www.w3.org/2000/svg" xmlns:xlink="http://www.w3.org/1999/xlink">
<g id="graph1" class="graph" transform="scale(1 1) rotate(0) translate(4 305)">
<title>HoTT_categories_Adjoint_UniversalMorphisms_FunctorialParts</title>
<polygon fill="white" stroke="white" points="-4,5 -4,-305 607,-305 607,5 -4,5"/>
<g id="graph2" class="cluster"><title>cluster_FunctorialParts</title>
<polygon fill="#ffffc3" stroke="black" points="8,-8.72464 8,-292.275 594,-292.275 594,-8.72464 8,-8.72464"/>
<text text-anchor="middle" x="68" y="-275.675" font-family="Times Roman,serif" font-size="14.00">FunctorialParts</text>
</g>
<!-- FunctorialParts_terminal_morphism_of_nondep -->
<g id="node1" class="node"><title>FunctorialParts_terminal_morphism_of_nondep</title>
<a xlink:href="FunctorialParts.html#terminal_morphism_of_nondep" xlink:title="terminal_morphism_of_nondep">
<ellipse fill="#f070d1" stroke="black" cx="417" cy="-225.725" rx="161.22" ry="18.3848"/>
<ellipse fill="none" stroke="black" cx="417" cy="-225.725" rx="165.22" ry="22.3848"/>
<ellipse fill="none" stroke="black" cx="417" cy="-225.725" rx="169.22" ry="26.3848"/>
<text text-anchor="middle" x="417" y="-222.125" font-family="Times Roman,serif" font-size="14.00">terminal_morphism_of_nondep</text>
</a>
</g>
<!-- FunctorialParts_initial_morphism_of_nondep -->
<g id="node3" class="node"><title>FunctorialParts_initial_morphism_of_nondep</title>
<a xlink:href="FunctorialParts.html#initial_morphism_of_nondep" xlink:title="initial_morphism_of_nondep">
<ellipse fill="#f070d1" stroke="black" cx="438" cy="-127.725" rx="147.785" ry="18.3848"/>
<text text-anchor="middle" x="438" y="-124.125" font-family="Times Roman,serif" font-size="14.00">initial_morphism_of_nondep</text>
</a>
</g>
<!-- FunctorialParts_terminal_morphism_of_nondep&#45;&gt;FunctorialParts_initial_morphism_of_nondep -->
<g id="edge2" class="edge"><title>FunctorialParts_terminal_morphism_of_nondep&#45;&gt;FunctorialParts_initial_morphism_of_nondep</title>
<path fill="none" stroke="black" d="M422.683,-199.204C425.529,-185.924 428.977,-169.831 431.881,-156.28"/>
<polygon fill="black" stroke="black" points="435.303,-157.013 433.976,-146.501 428.459,-155.546 435.303,-157.013"/>
</g>
<!-- FunctorialParts_terminal_morphism_of -->
<g id="node2" class="node"><title>FunctorialParts_terminal_morphism_of</title>
<a xlink:href="FunctorialParts.html#terminal_morphism_of" xlink:title="terminal_morphism_of">
<ellipse fill="#f070d1" stroke="black" cx="144" cy="-127.725" rx="120.208" ry="18.3848"/>
<ellipse fill="none" stroke="black" cx="144" cy="-127.725" rx="124.208" ry="22.3848"/>
<ellipse fill="none" stroke="black" cx="144" cy="-127.725" rx="128.208" ry="26.3848"/>
<text text-anchor="middle" x="144" y="-124.125" font-family="Times Roman,serif" font-size="14.00">terminal_morphism_of</text>
</a>
</g>
<!-- FunctorialParts_initial_morphism_of -->
<g id="node4" class="node"><title>FunctorialParts_initial_morphism_of</title>
<a xlink:href="FunctorialParts.html#initial_morphism_of" xlink:title="initial_morphism_of">
<ellipse fill="#f070d1" stroke="black" cx="291" cy="-37.7246" rx="106.066" ry="18.3848"/>
<text text-anchor="middle" x="291" y="-34.1246" font-family="Times Roman,serif" font-size="14.00">initial_morphism_of</text>
</a>
</g>
<!-- FunctorialParts_terminal_morphism_of&#45;&gt;FunctorialParts_initial_morphism_of -->
<g id="edge4" class="edge"><title>FunctorialParts_terminal_morphism_of&#45;&gt;FunctorialParts_initial_morphism_of</title>
<path fill="none" stroke="black" d="M185.339,-102.415C206.59,-89.4042 232.309,-73.6577 253.052,-60.958"/>
<polygon fill="black" stroke="black" points="254.909,-63.9252 261.61,-55.7186 251.254,-57.9552 254.909,-63.9252"/>
</g>
<!-- FunctorialParts_initial_morphism_of_nondep&#45;&gt;FunctorialParts_initial_morphism_of -->
<g id="edge6" class="edge"><title>FunctorialParts_initial_morphism_of_nondep&#45;&gt;FunctorialParts_initial_morphism_of</title>
<path fill="none" stroke="black" d="M408.252,-109.512C385.389,-95.5136 353.644,-76.078 328.951,-60.9597"/>
<polygon fill="black" stroke="black" points="330.558,-57.8399 320.202,-55.6032 326.903,-63.8098 330.558,-57.8399"/>
</g>
</g>
</svg>
