<?xml version="1.0" encoding="UTF-8" standalone="no"?>
<!DOCTYPE svg PUBLIC "-//W3C//DTD SVG 1.1//EN"
 "http://www.w3.org/Graphics/SVG/1.1/DTD/svg11.dtd">
<!-- Generated by graphviz version 2.39.20161220.0128 (20161220.0128)
 -->
<!-- Title: HoTT_HIT_Join Pages: 1 -->
<svg width="686pt" height="347pt"
 viewBox="0.00 0.00 686.00 347.00" xmlns="http://www.w3.org/2000/svg" xmlns:xlink="http://www.w3.org/1999/xlink">
<g id="graph0" class="graph" transform="scale(1 1) rotate(0) translate(4 343)">
<title>HoTT_HIT_Join</title>
<polygon fill="#ffffff" stroke="transparent" points="-4,4 -4,-343 682,-343 682,4 -4,4"/>
<g id="clust1" class="cluster">
<title>cluster_Join</title>
<polygon fill="#ffffc3" stroke="#000000" points="21.871,-8 21.871,-331 656.129,-331 656.129,-8 21.871,-8"/>
<text text-anchor="middle" x="41.371" y="-315.8" font-family="Times,serif" font-size="14.00" fill="#000000">Join</text>
</g>
<!-- Join_equiv_join_hor -->
<g id="node1" class="node">
<title>Join_equiv_join_hor</title>
<g id="a_node1"><a xlink:href="Join.html#equiv_join_hor" xlink:title="equiv_join_hor">
<ellipse fill="#f070d1" stroke="#000000" cx="437.371" cy="-274" rx="64.2061" ry="18"/>
<ellipse fill="none" stroke="#000000" cx="437.371" cy="-274" rx="68.1975" ry="22"/>
<ellipse fill="none" stroke="#000000" cx="437.371" cy="-274" rx="72.1889" ry="26"/>
<text text-anchor="middle" x="437.371" y="-270.3" font-family="Times,serif" font-size="14.00" fill="#000000">equiv_join_hor</text>
</a>
</g>
</g>
<!-- Join_ishprop_join -->
<g id="node2" class="node">
<title>Join_ishprop_join</title>
<g id="a_node2"><a xlink:href="Join.html#ishprop_join" xlink:title="ishprop_join">
<ellipse fill="#f070d1" stroke="#000000" cx="459.371" cy="-194" rx="55.4913" ry="18"/>
<text text-anchor="middle" x="459.371" y="-190.3" font-family="Times,serif" font-size="14.00" fill="#000000">ishprop_join</text>
</a>
</g>
</g>
<!-- Join_equiv_join_hor&#45;&gt;Join_ishprop_join -->
<g id="edge1" class="edge">
<title>Join_equiv_join_hor&#45;&gt;Join_ishprop_join</title>
<path fill="none" stroke="#000000" d="M444.5746,-247.805C446.8553,-239.5114 449.3842,-230.3154 451.6967,-221.9064"/>
<polygon fill="#000000" stroke="#000000" points="455.1019,-222.7234 454.3788,-212.1532 448.3525,-220.8672 455.1019,-222.7234"/>
</g>
<!-- Join_contr_join -->
<g id="node4" class="node">
<title>Join_contr_join</title>
<g id="a_node4"><a xlink:href="Join.html#contr_join" xlink:title="contr_join">
<ellipse fill="#f070d1" stroke="#000000" cx="505.371" cy="-114" rx="46.5926" ry="18"/>
<text text-anchor="middle" x="505.371" y="-110.3" font-family="Times,serif" font-size="14.00" fill="#000000">contr_join</text>
</a>
</g>
</g>
<!-- Join_ishprop_join&#45;&gt;Join_contr_join -->
<g id="edge2" class="edge">
<title>Join_ishprop_join&#45;&gt;Join_contr_join</title>
<path fill="none" stroke="#000000" d="M469.5799,-176.2454C475.5949,-165.7845 483.3213,-152.3473 490.0549,-140.6367"/>
<polygon fill="#000000" stroke="#000000" points="493.24,-142.1187 495.1906,-131.705 487.1717,-138.6294 493.24,-142.1187"/>
</g>
<!-- Join_join_sym -->
<g id="node3" class="node">
<title>Join_join_sym</title>
<g id="a_node3"><a xlink:href="Join.html#join_sym" xlink:title="join_sym">
<ellipse fill="#f070d1" stroke="#000000" cx="186.371" cy="-114" rx="44.3627" ry="18"/>
<ellipse fill="none" stroke="#000000" cx="186.371" cy="-114" rx="48.3778" ry="22"/>
<ellipse fill="none" stroke="#000000" cx="186.371" cy="-114" rx="52.3929" ry="26"/>
<text text-anchor="middle" x="186.371" y="-110.3" font-family="Times,serif" font-size="14.00" fill="#000000">join_sym</text>
</a>
</g>
</g>
<!-- Join_join -->
<g id="node6" class="node">
<title>Join_join</title>
<g id="a_node6"><a xlink:href="Join.html#join" xlink:title="join">
<ellipse fill="#f070d1" stroke="#000000" cx="237.371" cy="-34" rx="27" ry="18"/>
<text text-anchor="middle" x="237.371" y="-30.3" font-family="Times,serif" font-size="14.00" fill="#000000">join</text>
</a>
</g>
</g>
<!-- Join_join_sym&#45;&gt;Join_join -->
<g id="edge3" class="edge">
<title>Join_join_sym&#45;&gt;Join_join</title>
<path fill="none" stroke="#000000" d="M202.2281,-89.126C208.2553,-79.6716 215.1254,-68.895 221.1829,-59.3931"/>
<polygon fill="#000000" stroke="#000000" points="224.2631,-61.0722 226.6875,-50.7584 218.3605,-57.3093 224.2631,-61.0722"/>
</g>
<!-- Join_joinpp -->
<g id="node5" class="node">
<title>Join_joinpp</title>
<g id="a_node5"><a xlink:href="Join.html#joinpp" xlink:title="joinpp">
<ellipse fill="#f070d1" stroke="#000000" cx="505.371" cy="-34" rx="33.2948" ry="18"/>
<text text-anchor="middle" x="505.371" y="-30.3" font-family="Times,serif" font-size="14.00" fill="#000000">joinpp</text>
</a>
</g>
</g>
<!-- Join_contr_join&#45;&gt;Join_joinpp -->
<g id="edge4" class="edge">
<title>Join_contr_join&#45;&gt;Join_joinpp</title>
<path fill="none" stroke="#000000" d="M505.371,-95.8468C505.371,-85.9251 505.371,-73.4167 505.371,-62.2492"/>
<polygon fill="#000000" stroke="#000000" points="508.8711,-62.0814 505.371,-52.0814 501.8711,-62.0814 508.8711,-62.0814"/>
</g>
<!-- Join_contr_join&#45;&gt;Join_join -->
<g id="edge5" class="edge">
<title>Join_contr_join&#45;&gt;Join_join</title>
<path fill="none" stroke="#000000" d="M468.3881,-102.9603C416.3994,-87.4413 322.4175,-59.387 271.8295,-44.2861"/>
<polygon fill="#000000" stroke="#000000" points="272.6032,-40.8645 262.0198,-41.3579 270.6009,-47.5721 272.6032,-40.8645"/>
</g>
</g>
</svg>
