<?xml version="1.0" encoding="UTF-8" standalone="no"?>
<!DOCTYPE svg PUBLIC "-//W3C//DTD SVG 1.1//EN"
 "http://www.w3.org/Graphics/SVG/1.1/DTD/svg11.dtd">
<!-- Generated by graphviz version 2.39.20161220.0128 (20161220.0128)
 -->
<!-- Title: HoTT_Types_Prod Pages: 1 -->
<svg width="2470pt" height="1239pt"
 viewBox="0.00 0.00 2470.00 1239.00" xmlns="http://www.w3.org/2000/svg" xmlns:xlink="http://www.w3.org/1999/xlink">
<g id="graph0" class="graph" transform="scale(1 1) rotate(0) translate(4 1235)">
<title>HoTT_Types_Prod</title>
<polygon fill="#ffffff" stroke="transparent" points="-4,4 -4,-1235 2466,-1235 2466,4 -4,4"/>
<g id="clust1" class="cluster">
<title>cluster_Prod</title>
<polygon fill="#ffffc3" stroke="#000000" points="8,-19.1223 8,-1211.8777 2454,-1211.8777 2454,-19.1223 8,-19.1223"/>
<text text-anchor="middle" x="29" y="-1196.6777" font-family="Times,serif" font-size="14.00" fill="#000000">Prod</text>
</g>
<!-- Prod_decidable_prod -->
<g id="node1" class="node">
<title>Prod_decidable_prod</title>
<g id="a_node1"><a xlink:href="Prod.html#decidable_prod" xlink:title="decidable_prod">
<ellipse fill="#f070d1" stroke="#000000" cx="2373" cy="-1076.1223" rx="64.9891" ry="18"/>
<ellipse fill="none" stroke="#000000" cx="2373" cy="-1076.1223" rx="68.9888" ry="22"/>
<ellipse fill="none" stroke="#000000" cx="2373" cy="-1076.1223" rx="72.9885" ry="26"/>
<text text-anchor="middle" x="2373" y="-1072.4223" font-family="Times,serif" font-size="14.00" fill="#000000">decidable_prod</text>
</a>
</g>
</g>
<!-- Prod_contr_prod -->
<g id="node2" class="node">
<title>Prod_contr_prod</title>
<g id="a_node2"><a xlink:href="Prod.html#contr_prod" xlink:title="contr_prod">
<ellipse fill="#f070d1" stroke="#000000" cx="1884" cy="-1076.1223" rx="49.3059" ry="18"/>
<ellipse fill="none" stroke="#000000" cx="1884" cy="-1076.1223" rx="53.2987" ry="22"/>
<ellipse fill="none" stroke="#000000" cx="1884" cy="-1076.1223" rx="57.2914" ry="26"/>
<text text-anchor="middle" x="1884" y="-1072.4223" font-family="Times,serif" font-size="14.00" fill="#000000">contr_prod</text>
</a>
</g>
</g>
<!-- Prod_trunc_prod -->
<g id="node3" class="node">
<title>Prod_trunc_prod</title>
<g id="a_node3"><a xlink:href="Prod.html#trunc_prod" xlink:title="trunc_prod">
<ellipse fill="#f070d1" stroke="#000000" cx="1638" cy="-865.1223" rx="49.2915" ry="18"/>
<text text-anchor="middle" x="1638" y="-861.4223" font-family="Times,serif" font-size="14.00" fill="#000000">trunc_prod</text>
</a>
</g>
</g>
<!-- Prod_contr_prod&#45;&gt;Prod_trunc_prod -->
<g id="edge1" class="edge">
<title>Prod_contr_prod&#45;&gt;Prod_trunc_prod</title>
<path fill="none" stroke="#000000" d="M1856.7338,-1052.7355C1809.4319,-1012.1635 1712.6956,-929.1905 1665.3414,-888.5737"/>
<polygon fill="#000000" stroke="#000000" points="1667.5069,-885.82 1657.6378,-881.9661 1662.9496,-891.1333 1667.5069,-885.82"/>
</g>
<!-- Prod_isequiv_path_prod -->
<g id="node28" class="node">
<title>Prod_isequiv_path_prod</title>
<g id="a_node28"><a xlink:href="Prod.html#isequiv_path_prod" xlink:title="isequiv_path_prod">
<ellipse fill="#f070d1" stroke="#000000" cx="1283" cy="-655.1223" rx="76.0865" ry="18"/>
<text text-anchor="middle" x="1283" y="-651.4223" font-family="Times,serif" font-size="14.00" fill="#000000">isequiv_path_prod</text>
</a>
</g>
</g>
<!-- Prod_trunc_prod&#45;&gt;Prod_isequiv_path_prod -->
<g id="edge2" class="edge">
<title>Prod_trunc_prod&#45;&gt;Prod_isequiv_path_prod</title>
<path fill="none" stroke="#000000" d="M1611.896,-849.6805C1549.7061,-812.8921 1392.6103,-719.9622 1320.3804,-677.2347"/>
<polygon fill="#000000" stroke="#000000" points="1321.9813,-674.1152 1311.5924,-672.0361 1318.4173,-680.14 1321.9813,-674.1152"/>
</g>
<!-- Prod_equiv_prod_coind -->
<g id="node4" class="node">
<title>Prod_equiv_prod_coind</title>
<g id="a_node4"><a xlink:href="Prod.html#equiv_prod_coind" xlink:title="equiv_prod_coind">
<ellipse fill="#f070d1" stroke="#000000" cx="2199" cy="-1076.1223" rx="74.9639" ry="18"/>
<ellipse fill="none" stroke="#000000" cx="2199" cy="-1076.1223" rx="78.9757" ry="22"/>
<ellipse fill="none" stroke="#000000" cx="2199" cy="-1076.1223" rx="82.9875" ry="26"/>
<text text-anchor="middle" x="2199" y="-1072.4223" font-family="Times,serif" font-size="14.00" fill="#000000">equiv_prod_coind</text>
</a>
</g>
</g>
<!-- Prod_isequiv_prod_coind -->
<g id="node5" class="node">
<title>Prod_isequiv_prod_coind</title>
<g id="a_node5"><a xlink:href="Prod.html#isequiv_prod_coind" xlink:title="isequiv_prod_coind">
<ellipse fill="#f070d1" stroke="#000000" cx="2199" cy="-865.1223" rx="80.6858" ry="18"/>
<text text-anchor="middle" x="2199" y="-861.4223" font-family="Times,serif" font-size="14.00" fill="#000000">isequiv_prod_coind</text>
</a>
</g>
</g>
<!-- Prod_equiv_prod_coind&#45;&gt;Prod_isequiv_prod_coind -->
<g id="edge3" class="edge">
<title>Prod_equiv_prod_coind&#45;&gt;Prod_isequiv_prod_coind</title>
<path fill="none" stroke="#000000" d="M2199,-1049.8257C2199,-1009.9712 2199,-934.5793 2199,-893.5171"/>
<polygon fill="#000000" stroke="#000000" points="2202.5001,-893.3812 2199,-883.3813 2195.5001,-893.3813 2202.5001,-893.3812"/>
</g>
<!-- Prod_prod_coind_uncurried -->
<g id="node7" class="node">
<title>Prod_prod_coind_uncurried</title>
<g id="a_node7"><a xlink:href="Prod.html#prod_coind_uncurried" xlink:title="prod_coind_uncurried">
<ellipse fill="#f070d1" stroke="#000000" cx="2300" cy="-655.1223" rx="89.0842" ry="18"/>
<text text-anchor="middle" x="2300" y="-651.4223" font-family="Times,serif" font-size="14.00" fill="#000000">prod_coind_uncurried</text>
</a>
</g>
</g>
<!-- Prod_isequiv_prod_coind&#45;&gt;Prod_prod_coind_uncurried -->
<g id="edge4" class="edge">
<title>Prod_isequiv_prod_coind&#45;&gt;Prod_prod_coind_uncurried</title>
<path fill="none" stroke="#000000" d="M2207.6112,-847.2178C2225.3069,-810.4248 2265.8567,-726.1134 2286.8563,-682.4508"/>
<polygon fill="#000000" stroke="#000000" points="2290.087,-683.8087 2291.2671,-673.2798 2283.7786,-680.7746 2290.087,-683.8087"/>
</g>
<!-- Prod_prod_coind -->
<g id="node6" class="node">
<title>Prod_prod_coind</title>
<g id="a_node6"><a xlink:href="Prod.html#prod_coind" xlink:title="prod_coind">
<ellipse fill="#f070d1" stroke="#000000" cx="2356" cy="-865.1223" rx="50.8649" ry="18"/>
<ellipse fill="none" stroke="#000000" cx="2356" cy="-865.1223" rx="54.8783" ry="22"/>
<ellipse fill="none" stroke="#000000" cx="2356" cy="-865.1223" rx="58.8917" ry="26"/>
<text text-anchor="middle" x="2356" y="-861.4223" font-family="Times,serif" font-size="14.00" fill="#000000">prod_coind</text>
</a>
</g>
</g>
<!-- Prod_prod_coind&#45;&gt;Prod_prod_coind_uncurried -->
<g id="edge5" class="edge">
<title>Prod_prod_coind&#45;&gt;Prod_prod_coind_uncurried</title>
<path fill="none" stroke="#000000" d="M2349.0208,-838.9503C2338.4208,-799.2003 2318.3489,-723.9307 2307.4666,-683.1222"/>
<polygon fill="#000000" stroke="#000000" points="2310.8045,-682.0553 2304.846,-673.2947 2304.0409,-683.8589 2310.8045,-682.0553"/>
</g>
<!-- Prod_equiv_uncurry -->
<g id="node8" class="node">
<title>Prod_equiv_uncurry</title>
<g id="a_node8"><a xlink:href="Prod.html#equiv_uncurry" xlink:title="equiv_uncurry">
<ellipse fill="#f070d1" stroke="#000000" cx="2029" cy="-1076.1223" rx="61.9618" ry="18"/>
<ellipse fill="none" stroke="#000000" cx="2029" cy="-1076.1223" rx="65.9758" ry="22"/>
<ellipse fill="none" stroke="#000000" cx="2029" cy="-1076.1223" rx="69.9899" ry="26"/>
<text text-anchor="middle" x="2029" y="-1072.4223" font-family="Times,serif" font-size="14.00" fill="#000000">equiv_uncurry</text>
</a>
</g>
</g>
<!-- Prod_equiv_prod_ind -->
<g id="node9" class="node">
<title>Prod_equiv_prod_ind</title>
<g id="a_node9"><a xlink:href="Prod.html#equiv_prod_ind" xlink:title="equiv_prod_ind">
<ellipse fill="#f070d1" stroke="#000000" cx="2031" cy="-865.1223" rx="66.0889" ry="18"/>
<text text-anchor="middle" x="2031" y="-861.4223" font-family="Times,serif" font-size="14.00" fill="#000000">equiv_prod_ind</text>
</a>
</g>
</g>
<!-- Prod_equiv_uncurry&#45;&gt;Prod_equiv_prod_ind -->
<g id="edge6" class="edge">
<title>Prod_equiv_uncurry&#45;&gt;Prod_equiv_prod_ind</title>
<path fill="none" stroke="#000000" d="M2029.2493,-1049.8257C2029.627,-1009.9712 2030.3416,-934.5793 2030.7309,-893.5171"/>
<polygon fill="#000000" stroke="#000000" points="2034.2319,-893.414 2030.8269,-883.3813 2027.2322,-893.3476 2034.2319,-893.414"/>
</g>
<!-- Prod_isequiv_prod_ind -->
<g id="node10" class="node">
<title>Prod_isequiv_prod_ind</title>
<g id="a_node10"><a xlink:href="Prod.html#isequiv_prod_ind" xlink:title="isequiv_prod_ind">
<ellipse fill="#f070d1" stroke="#000000" cx="2066" cy="-655.1223" rx="72.2875" ry="18"/>
<text text-anchor="middle" x="2066" y="-651.4223" font-family="Times,serif" font-size="14.00" fill="#000000">isequiv_prod_ind</text>
</a>
</g>
</g>
<!-- Prod_equiv_prod_ind&#45;&gt;Prod_isequiv_prod_ind -->
<g id="edge7" class="edge">
<title>Prod_equiv_prod_ind&#45;&gt;Prod_isequiv_prod_ind</title>
<path fill="none" stroke="#000000" d="M2034.0448,-846.8536C2040.1753,-810.0708 2054.0413,-726.8746 2061.3272,-683.1593"/>
<polygon fill="#000000" stroke="#000000" points="2064.7955,-683.6387 2062.9872,-673.1993 2057.8907,-682.4878 2064.7955,-683.6387"/>
</g>
<!-- Prod_prod_ind -->
<g id="node42" class="node">
<title>Prod_prod_ind</title>
<g id="a_node42"><a xlink:href="Prod.html#prod_ind" xlink:title="prod_ind">
<ellipse fill="#f070d1" stroke="#000000" cx="2066" cy="-444.1223" rx="42.4939" ry="18"/>
<text text-anchor="middle" x="2066" y="-440.4223" font-family="Times,serif" font-size="14.00" fill="#000000">prod_ind</text>
</a>
</g>
</g>
<!-- Prod_isequiv_prod_ind&#45;&gt;Prod_prod_ind -->
<g id="edge8" class="edge">
<title>Prod_isequiv_prod_ind&#45;&gt;Prod_prod_ind</title>
<path fill="none" stroke="#000000" d="M2066,-636.7666C2066,-599.8086 2066,-516.2163 2066,-472.2928"/>
<polygon fill="#000000" stroke="#000000" points="2069.5001,-472.2854 2066,-462.2854 2062.5001,-472.2854 2069.5001,-472.2854"/>
</g>
<!-- Prod_prod_unit_l -->
<g id="node11" class="node">
<title>Prod_prod_unit_l</title>
<g id="a_node11"><a xlink:href="Prod.html#prod_unit_l" xlink:title="prod_unit_l">
<ellipse fill="#f070d1" stroke="#000000" cx="1749" cy="-1076.1223" rx="51.9914" ry="18"/>
<ellipse fill="none" stroke="#000000" cx="1749" cy="-1076.1223" rx="55.9911" ry="22"/>
<ellipse fill="none" stroke="#000000" cx="1749" cy="-1076.1223" rx="59.9908" ry="26"/>
<text text-anchor="middle" x="1749" y="-1072.4223" font-family="Times,serif" font-size="14.00" fill="#000000">prod_unit_l</text>
</a>
</g>
</g>
<!-- Prod_prod_unit_r -->
<g id="node12" class="node">
<title>Prod_prod_unit_r</title>
<g id="a_node12"><a xlink:href="Prod.html#prod_unit_r" xlink:title="prod_unit_r">
<ellipse fill="#f070d1" stroke="#000000" cx="1611" cy="-1076.1223" rx="51.9914" ry="18"/>
<ellipse fill="none" stroke="#000000" cx="1611" cy="-1076.1223" rx="55.9911" ry="22"/>
<ellipse fill="none" stroke="#000000" cx="1611" cy="-1076.1223" rx="59.9908" ry="26"/>
<text text-anchor="middle" x="1611" y="-1072.4223" font-family="Times,serif" font-size="14.00" fill="#000000">prod_unit_r</text>
</a>
</g>
</g>
<!-- Prod_prod_empty_l -->
<g id="node13" class="node">
<title>Prod_prod_empty_l</title>
<g id="a_node13"><a xlink:href="Prod.html#prod_empty_l" xlink:title="prod_empty_l">
<ellipse fill="#f070d1" stroke="#000000" cx="1465" cy="-1076.1223" rx="60.3958" ry="18"/>
<ellipse fill="none" stroke="#000000" cx="1465" cy="-1076.1223" rx="64.3926" ry="22"/>
<ellipse fill="none" stroke="#000000" cx="1465" cy="-1076.1223" rx="68.3893" ry="26"/>
<text text-anchor="middle" x="1465" y="-1072.4223" font-family="Times,serif" font-size="14.00" fill="#000000">prod_empty_l</text>
</a>
</g>
</g>
<!-- Prod_prod_empty_r -->
<g id="node14" class="node">
<title>Prod_prod_empty_r</title>
<g id="a_node14"><a xlink:href="Prod.html#prod_empty_r" xlink:title="prod_empty_r">
<ellipse fill="#f070d1" stroke="#000000" cx="1309" cy="-1076.1223" rx="61.1783" ry="18"/>
<ellipse fill="none" stroke="#000000" cx="1309" cy="-1076.1223" rx="65.1838" ry="22"/>
<ellipse fill="none" stroke="#000000" cx="1309" cy="-1076.1223" rx="69.1893" ry="26"/>
<text text-anchor="middle" x="1309" y="-1072.4223" font-family="Times,serif" font-size="14.00" fill="#000000">prod_empty_r</text>
</a>
</g>
</g>
<!-- Prod_equiv_prod_assoc -->
<g id="node15" class="node">
<title>Prod_equiv_prod_assoc</title>
<g id="a_node15"><a xlink:href="Prod.html#equiv_prod_assoc" xlink:title="equiv_prod_assoc">
<ellipse fill="#f070d1" stroke="#000000" cx="1140" cy="-1076.1223" rx="74.1778" ry="18"/>
<ellipse fill="none" stroke="#000000" cx="1140" cy="-1076.1223" rx="78.1824" ry="22"/>
<ellipse fill="none" stroke="#000000" cx="1140" cy="-1076.1223" rx="82.187" ry="26"/>
<text text-anchor="middle" x="1140" y="-1072.4223" font-family="Times,serif" font-size="14.00" fill="#000000">equiv_prod_assoc</text>
</a>
</g>
</g>
<!-- Prod_equiv_prod_symm -->
<g id="node16" class="node">
<title>Prod_equiv_prod_symm</title>
<g id="a_node16"><a xlink:href="Prod.html#equiv_prod_symm" xlink:title="equiv_prod_symm">
<ellipse fill="#f070d1" stroke="#000000" cx="955" cy="-1076.1223" rx="77.2012" ry="18"/>
<ellipse fill="none" stroke="#000000" cx="955" cy="-1076.1223" rx="81.1939" ry="22"/>
<ellipse fill="none" stroke="#000000" cx="955" cy="-1076.1223" rx="85.1866" ry="26"/>
<text text-anchor="middle" x="955" y="-1072.4223" font-family="Times,serif" font-size="14.00" fill="#000000">equiv_prod_symm</text>
</a>
</g>
</g>
<!-- Prod_equiv_functor_prod_r -->
<g id="node17" class="node">
<title>Prod_equiv_functor_prod_r</title>
<g id="a_node17"><a xlink:href="Prod.html#equiv_functor_prod_r" xlink:title="equiv_functor_prod_r">
<ellipse fill="#f070d1" stroke="#000000" cx="548" cy="-1076.1223" rx="87.9648" ry="18"/>
<ellipse fill="none" stroke="#000000" cx="548" cy="-1076.1223" rx="91.9749" ry="22"/>
<ellipse fill="none" stroke="#000000" cx="548" cy="-1076.1223" rx="95.985" ry="26"/>
<text text-anchor="middle" x="548" y="-1072.4223" font-family="Times,serif" font-size="14.00" fill="#000000">equiv_functor_prod_r</text>
</a>
</g>
</g>
<!-- Prod_equiv_functor_prod_ -->
<g id="node19" class="node">
<title>Prod_equiv_functor_prod_</title>
<g id="a_node19"><a xlink:href="Prod.html#equiv_functor_prod'" xlink:title="equiv_functor_prod&#39;">
<ellipse fill="#f070d1" stroke="#000000" cx="723" cy="-865.1223" rx="81.7856" ry="18"/>
<text text-anchor="middle" x="723" y="-861.4223" font-family="Times,serif" font-size="14.00" fill="#000000">equiv_functor_prod&#39;</text>
</a>
</g>
</g>
<!-- Prod_equiv_functor_prod_r&#45;&gt;Prod_equiv_functor_prod_ -->
<g id="edge9" class="edge">
<title>Prod_equiv_functor_prod_r&#45;&gt;Prod_equiv_functor_prod_</title>
<path fill="none" stroke="#000000" d="M569.1091,-1050.6708C602.7032,-1010.166 667.971,-931.4715 701.6906,-890.8154"/>
<polygon fill="#000000" stroke="#000000" points="704.4999,-892.9107 708.1898,-882.9792 699.1119,-888.442 704.4999,-892.9107"/>
</g>
<!-- Prod_equiv_functor_prod_l -->
<g id="node18" class="node">
<title>Prod_equiv_functor_prod_l</title>
<g id="a_node18"><a xlink:href="Prod.html#equiv_functor_prod_l" xlink:title="equiv_functor_prod_l">
<ellipse fill="#f070d1" stroke="#000000" cx="757" cy="-1076.1223" rx="87.1769" ry="18"/>
<ellipse fill="none" stroke="#000000" cx="757" cy="-1076.1223" rx="91.1807" ry="22"/>
<ellipse fill="none" stroke="#000000" cx="757" cy="-1076.1223" rx="95.1846" ry="26"/>
<text text-anchor="middle" x="757" y="-1072.4223" font-family="Times,serif" font-size="14.00" fill="#000000">equiv_functor_prod_l</text>
</a>
</g>
</g>
<!-- Prod_equiv_functor_prod_l&#45;&gt;Prod_equiv_functor_prod_ -->
<g id="edge10" class="edge">
<title>Prod_equiv_functor_prod_l&#45;&gt;Prod_equiv_functor_prod_</title>
<path fill="none" stroke="#000000" d="M752.7626,-1049.8257C746.3269,-1009.8864 734.1404,-934.2583 727.5333,-893.2555"/>
<polygon fill="#000000" stroke="#000000" points="730.9886,-892.6971 725.9422,-883.3813 724.0777,-893.8108 730.9886,-892.6971"/>
</g>
<!-- Prod_isequiv_functor_prod -->
<g id="node21" class="node">
<title>Prod_isequiv_functor_prod</title>
<g id="a_node21"><a xlink:href="Prod.html#isequiv_functor_prod" xlink:title="isequiv_functor_prod">
<ellipse fill="#f070d1" stroke="#000000" cx="840" cy="-655.1223" rx="86.3847" ry="18"/>
<text text-anchor="middle" x="840" y="-651.4223" font-family="Times,serif" font-size="14.00" fill="#000000">isequiv_functor_prod</text>
</a>
</g>
</g>
<!-- Prod_equiv_functor_prod_&#45;&gt;Prod_isequiv_functor_prod -->
<g id="edge11" class="edge">
<title>Prod_equiv_functor_prod_&#45;&gt;Prod_isequiv_functor_prod</title>
<path fill="none" stroke="#000000" d="M732.9754,-847.2178C753.5174,-810.3475 800.6453,-725.7589 824.9272,-682.1761"/>
<polygon fill="#000000" stroke="#000000" points="828.0741,-683.7189 829.8837,-673.2798 821.9591,-680.312 828.0741,-683.7189"/>
</g>
<!-- Prod_equiv_functor_prod -->
<g id="node20" class="node">
<title>Prod_equiv_functor_prod</title>
<g id="a_node20"><a xlink:href="Prod.html#equiv_functor_prod" xlink:title="equiv_functor_prod">
<ellipse fill="#f070d1" stroke="#000000" cx="911" cy="-865.1223" rx="80.6774" ry="18"/>
<ellipse fill="none" stroke="#000000" cx="911" cy="-865.1223" rx="84.6816" ry="22"/>
<ellipse fill="none" stroke="#000000" cx="911" cy="-865.1223" rx="88.6858" ry="26"/>
<text text-anchor="middle" x="911" y="-861.4223" font-family="Times,serif" font-size="14.00" fill="#000000">equiv_functor_prod</text>
</a>
</g>
</g>
<!-- Prod_equiv_functor_prod&#45;&gt;Prod_isequiv_functor_prod -->
<g id="edge12" class="edge">
<title>Prod_equiv_functor_prod&#45;&gt;Prod_isequiv_functor_prod</title>
<path fill="none" stroke="#000000" d="M902.1514,-838.9503C888.6835,-799.1159 863.1557,-723.6109 849.3789,-682.8627"/>
<polygon fill="#000000" stroke="#000000" points="852.6625,-681.6469 846.144,-673.2947 846.0313,-683.889 852.6625,-681.6469"/>
</g>
<!-- Prod_ap_functor_prod -->
<g id="node22" class="node">
<title>Prod_ap_functor_prod</title>
<g id="a_node22"><a xlink:href="Prod.html#ap_functor_prod" xlink:title="ap_functor_prod">
<ellipse fill="#f070d1" stroke="#000000" cx="840" cy="-444.1223" rx="69.5877" ry="18"/>
<text text-anchor="middle" x="840" y="-440.4223" font-family="Times,serif" font-size="14.00" fill="#000000">ap_functor_prod</text>
</a>
</g>
</g>
<!-- Prod_isequiv_functor_prod&#45;&gt;Prod_ap_functor_prod -->
<g id="edge13" class="edge">
<title>Prod_isequiv_functor_prod&#45;&gt;Prod_ap_functor_prod</title>
<path fill="none" stroke="#000000" d="M840,-636.7666C840,-599.8086 840,-516.2163 840,-472.2928"/>
<polygon fill="#000000" stroke="#000000" points="843.5001,-472.2854 840,-462.2854 836.5001,-472.2854 843.5001,-472.2854"/>
</g>
<!-- Prod_path_prod_ -->
<g id="node36" class="node">
<title>Prod_path_prod_</title>
<g id="a_node36"><a xlink:href="Prod.html#path_prod'" xlink:title="path_prod&#39;">
<ellipse fill="#f070d1" stroke="#000000" cx="976" cy="-444.1223" rx="48.1917" ry="18"/>
<text text-anchor="middle" x="976" y="-440.4223" font-family="Times,serif" font-size="14.00" fill="#000000">path_prod&#39;</text>
</a>
</g>
</g>
<!-- Prod_isequiv_functor_prod&#45;&gt;Prod_path_prod_ -->
<g id="edge14" class="edge">
<title>Prod_isequiv_functor_prod&#45;&gt;Prod_path_prod_</title>
<path fill="none" stroke="#000000" d="M851.5953,-637.1326C875.6432,-599.8229 931.036,-513.8827 959.0782,-470.3759"/>
<polygon fill="#000000" stroke="#000000" points="962.1501,-472.0704 964.6259,-461.7689 956.2663,-468.2781 962.1501,-472.0704"/>
</g>
<!-- Prod_eta_prod -->
<g id="node39" class="node">
<title>Prod_eta_prod</title>
<g id="a_node39"><a xlink:href="Prod.html#eta_prod" xlink:title="eta_prod">
<ellipse fill="#f070d1" stroke="#000000" cx="711" cy="-444.1223" rx="41.6928" ry="18"/>
<text text-anchor="middle" x="711" y="-440.4223" font-family="Times,serif" font-size="14.00" fill="#000000">eta_prod</text>
</a>
</g>
</g>
<!-- Prod_isequiv_functor_prod&#45;&gt;Prod_eta_prod -->
<g id="edge15" class="edge">
<title>Prod_isequiv_functor_prod&#45;&gt;Prod_eta_prod</title>
<path fill="none" stroke="#000000" d="M829.0015,-637.1326C806.1914,-599.8229 753.6497,-513.8827 727.0508,-470.3759"/>
<polygon fill="#000000" stroke="#000000" points="729.991,-468.4751 721.7887,-461.7689 724.0187,-472.1264 729.991,-468.4751"/>
</g>
<!-- Prod_functor_prod -->
<g id="node23" class="node">
<title>Prod_functor_prod</title>
<g id="a_node23"><a xlink:href="Prod.html#functor_prod" xlink:title="functor_prod">
<ellipse fill="#f070d1" stroke="#000000" cx="840" cy="-253.1223" rx="56.59" ry="18"/>
<text text-anchor="middle" x="840" y="-249.4223" font-family="Times,serif" font-size="14.00" fill="#000000">functor_prod</text>
</a>
</g>
</g>
<!-- Prod_ap_functor_prod&#45;&gt;Prod_functor_prod -->
<g id="edge16" class="edge">
<title>Prod_ap_functor_prod&#45;&gt;Prod_functor_prod</title>
<path fill="none" stroke="#000000" d="M840,-425.8084C840,-392.3666 840,-321.2084 840,-281.4664"/>
<polygon fill="#000000" stroke="#000000" points="843.5001,-281.3807 840,-271.3808 836.5001,-281.3808 843.5001,-281.3807"/>
</g>
<!-- Prod_path_prod -->
<g id="node37" class="node">
<title>Prod_path_prod</title>
<g id="a_node37"><a xlink:href="Prod.html#path_prod" xlink:title="path_prod">
<ellipse fill="#f070d1" stroke="#000000" cx="1361" cy="-253.1223" rx="46.2923" ry="18"/>
<text text-anchor="middle" x="1361" y="-249.4223" font-family="Times,serif" font-size="14.00" fill="#000000">path_prod</text>
</a>
</g>
</g>
<!-- Prod_ap_functor_prod&#45;&gt;Prod_path_prod -->
<g id="edge17" class="edge">
<title>Prod_ap_functor_prod&#45;&gt;Prod_path_prod</title>
<path fill="none" stroke="#000000" d="M880.4485,-429.2938C976.7024,-394.0069 1218.7058,-305.2878 1317.7354,-268.9833"/>
<polygon fill="#000000" stroke="#000000" points="1318.9578,-272.263 1327.1421,-265.5347 1316.5484,-265.6907 1318.9578,-272.263"/>
</g>
<!-- Prod_transport_prod -->
<g id="node24" class="node">
<title>Prod_transport_prod</title>
<g id="a_node24"><a xlink:href="Prod.html#transport_prod" xlink:title="transport_prod">
<ellipse fill="#f070d1" stroke="#000000" cx="364" cy="-1076.1223" rx="62.3011" ry="18"/>
<ellipse fill="none" stroke="#000000" cx="364" cy="-1076.1223" rx="66.2951" ry="22"/>
<ellipse fill="none" stroke="#000000" cx="364" cy="-1076.1223" rx="70.2891" ry="26"/>
<text text-anchor="middle" x="364" y="-1072.4223" font-family="Times,serif" font-size="14.00" fill="#000000">transport_prod</text>
</a>
</g>
</g>
<!-- Prod_path_prod_pp_p -->
<g id="node25" class="node">
<title>Prod_path_prod_pp_p</title>
<g id="a_node25"><a xlink:href="Prod.html#path_prod_pp_p" xlink:title="path_prod_pp_p">
<ellipse fill="#f070d1" stroke="#000000" cx="1700" cy="-655.1223" rx="68.463" ry="18"/>
<ellipse fill="none" stroke="#000000" cx="1700" cy="-655.1223" rx="72.4758" ry="22"/>
<ellipse fill="none" stroke="#000000" cx="1700" cy="-655.1223" rx="76.4887" ry="26"/>
<text text-anchor="middle" x="1700" y="-651.4223" font-family="Times,serif" font-size="14.00" fill="#000000">path_prod_pp_p</text>
</a>
</g>
</g>
<!-- Prod_path_prod_pp -->
<g id="node26" class="node">
<title>Prod_path_prod_pp</title>
<g id="a_node26"><a xlink:href="Prod.html#path_prod_pp" xlink:title="path_prod_pp">
<ellipse fill="#f070d1" stroke="#000000" cx="1725" cy="-444.1223" rx="59.5901" ry="18"/>
<text text-anchor="middle" x="1725" y="-440.4223" font-family="Times,serif" font-size="14.00" fill="#000000">path_prod_pp</text>
</a>
</g>
</g>
<!-- Prod_path_prod_pp_p&#45;&gt;Prod_path_prod_pp -->
<g id="edge18" class="edge">
<title>Prod_path_prod_pp_p&#45;&gt;Prod_path_prod_pp</title>
<path fill="none" stroke="#000000" d="M1703.1157,-628.8257C1707.8378,-588.9712 1716.7705,-513.5793 1721.6357,-472.5171"/>
<polygon fill="#000000" stroke="#000000" points="1725.1356,-472.7237 1722.8366,-462.3813 1718.1842,-471.9 1725.1356,-472.7237"/>
</g>
<!-- Prod_path_prod_pp&#45;&gt;Prod_path_prod -->
<g id="edge19" class="edge">
<title>Prod_path_prod_pp&#45;&gt;Prod_path_prod</title>
<path fill="none" stroke="#000000" d="M1695.2124,-428.492C1629.0761,-393.7886 1470.1382,-310.3899 1397.8765,-272.4723"/>
<polygon fill="#000000" stroke="#000000" points="1399.1649,-269.1959 1388.6837,-267.6486 1395.9124,-275.3944 1399.1649,-269.1959"/>
</g>
<!-- Prod_equiv_path_prod -->
<g id="node27" class="node">
<title>Prod_equiv_path_prod</title>
<g id="a_node27"><a xlink:href="Prod.html#equiv_path_prod" xlink:title="equiv_path_prod">
<ellipse fill="#f070d1" stroke="#000000" cx="1283" cy="-865.1223" rx="70.3682" ry="18"/>
<ellipse fill="none" stroke="#000000" cx="1283" cy="-865.1223" rx="74.3781" ry="22"/>
<ellipse fill="none" stroke="#000000" cx="1283" cy="-865.1223" rx="78.388" ry="26"/>
<text text-anchor="middle" x="1283" y="-861.4223" font-family="Times,serif" font-size="14.00" fill="#000000">equiv_path_prod</text>
</a>
</g>
</g>
<!-- Prod_equiv_path_prod&#45;&gt;Prod_isequiv_path_prod -->
<g id="edge20" class="edge">
<title>Prod_equiv_path_prod&#45;&gt;Prod_isequiv_path_prod</title>
<path fill="none" stroke="#000000" d="M1283,-838.9503C1283,-799.2847 1283,-724.2501 1283,-683.3826"/>
<polygon fill="#000000" stroke="#000000" points="1286.5001,-683.2947 1283,-673.2947 1279.5001,-683.2948 1286.5001,-683.2947"/>
</g>
<!-- Prod_eta_path_prod -->
<g id="node33" class="node">
<title>Prod_eta_path_prod</title>
<g id="a_node33"><a xlink:href="Prod.html#eta_path_prod" xlink:title="eta_path_prod">
<ellipse fill="#f070d1" stroke="#000000" cx="1586" cy="-444.1223" rx="61.1893" ry="18"/>
<text text-anchor="middle" x="1586" y="-440.4223" font-family="Times,serif" font-size="14.00" fill="#000000">eta_path_prod</text>
</a>
</g>
</g>
<!-- Prod_isequiv_path_prod&#45;&gt;Prod_eta_path_prod -->
<g id="edge21" class="edge">
<title>Prod_isequiv_path_prod&#45;&gt;Prod_eta_path_prod</title>
<path fill="none" stroke="#000000" d="M1307.5391,-638.034C1361.9235,-600.1624 1492.586,-509.173 1553.5957,-466.6877"/>
<polygon fill="#000000" stroke="#000000" points="1555.8682,-469.3703 1562.0744,-460.7834 1551.8679,-463.6259 1555.8682,-469.3703"/>
</g>
<!-- Prod_ap_snd_path_prod -->
<g id="node34" class="node">
<title>Prod_ap_snd_path_prod</title>
<g id="a_node34"><a xlink:href="Prod.html#ap_snd_path_prod" xlink:title="ap_snd_path_prod">
<ellipse fill="#f070d1" stroke="#000000" cx="1117" cy="-444.1223" rx="75.2868" ry="18"/>
<text text-anchor="middle" x="1117" y="-440.4223" font-family="Times,serif" font-size="14.00" fill="#000000">ap_snd_path_prod</text>
</a>
</g>
</g>
<!-- Prod_isequiv_path_prod&#45;&gt;Prod_ap_snd_path_prod -->
<g id="edge22" class="edge">
<title>Prod_isequiv_path_prod&#45;&gt;Prod_ap_snd_path_prod</title>
<path fill="none" stroke="#000000" d="M1268.8469,-637.1326C1239.445,-599.7602 1171.6553,-513.5938 1137.4823,-470.157"/>
<polygon fill="#000000" stroke="#000000" points="1140.0512,-467.7617 1131.1172,-462.0665 1134.5497,-472.09 1140.0512,-467.7617"/>
</g>
<!-- Prod_ap_fst_path_prod -->
<g id="node35" class="node">
<title>Prod_ap_fst_path_prod</title>
<g id="a_node35"><a xlink:href="Prod.html#ap_fst_path_prod" xlink:title="ap_fst_path_prod">
<ellipse fill="#f070d1" stroke="#000000" cx="1283" cy="-444.1223" rx="72.2875" ry="18"/>
<text text-anchor="middle" x="1283" y="-440.4223" font-family="Times,serif" font-size="14.00" fill="#000000">ap_fst_path_prod</text>
</a>
</g>
</g>
<!-- Prod_isequiv_path_prod&#45;&gt;Prod_ap_fst_path_prod -->
<g id="edge23" class="edge">
<title>Prod_isequiv_path_prod&#45;&gt;Prod_ap_fst_path_prod</title>
<path fill="none" stroke="#000000" d="M1283,-636.7666C1283,-599.8086 1283,-516.2163 1283,-472.2928"/>
<polygon fill="#000000" stroke="#000000" points="1286.5001,-472.2854 1283,-462.2854 1279.5001,-472.2854 1286.5001,-472.2854"/>
</g>
<!-- Prod_isequiv_path_prod&#45;&gt;Prod_path_prod_ -->
<g id="edge24" class="edge">
<title>Prod_isequiv_path_prod&#45;&gt;Prod_path_prod_</title>
<path fill="none" stroke="#000000" d="M1258.1369,-638.034C1202.7625,-599.9754 1069.3378,-508.273 1007.9215,-466.0619"/>
<polygon fill="#000000" stroke="#000000" points="1009.6241,-462.9851 999.4004,-460.2054 1005.6592,-468.754 1009.6241,-462.9851"/>
</g>
<!-- Prod_transport_path_prod_ -->
<g id="node29" class="node">
<title>Prod_transport_path_prod_</title>
<g id="a_node29"><a xlink:href="Prod.html#transport_path_prod'" xlink:title="transport_path_prod&#39;">
<ellipse fill="#f070d1" stroke="#000000" cx="1885" cy="-655.1223" rx="83.3687" ry="18"/>
<ellipse fill="none" stroke="#000000" cx="1885" cy="-655.1223" rx="87.3772" ry="22"/>
<ellipse fill="none" stroke="#000000" cx="1885" cy="-655.1223" rx="91.3856" ry="26"/>
<text text-anchor="middle" x="1885" y="-651.4223" font-family="Times,serif" font-size="14.00" fill="#000000">transport_path_prod&#39;</text>
</a>
</g>
</g>
<!-- Prod_transport_path_prod -->
<g id="node30" class="node">
<title>Prod_transport_path_prod</title>
<g id="a_node30"><a xlink:href="Prod.html#transport_path_prod" xlink:title="transport_path_prod">
<ellipse fill="#f070d1" stroke="#000000" cx="1885" cy="-444.1223" rx="81.7856" ry="18"/>
<text text-anchor="middle" x="1885" y="-440.4223" font-family="Times,serif" font-size="14.00" fill="#000000">transport_path_prod</text>
</a>
</g>
</g>
<!-- Prod_transport_path_prod_&#45;&gt;Prod_transport_path_prod -->
<g id="edge25" class="edge">
<title>Prod_transport_path_prod_&#45;&gt;Prod_transport_path_prod</title>
<path fill="none" stroke="#000000" d="M1885,-628.8257C1885,-588.9712 1885,-513.5793 1885,-472.5171"/>
<polygon fill="#000000" stroke="#000000" points="1888.5001,-472.3812 1885,-462.3813 1881.5001,-472.3813 1888.5001,-472.3812"/>
</g>
<!-- Prod_transport_path_prod_uncurried -->
<g id="node31" class="node">
<title>Prod_transport_path_prod_uncurried</title>
<g id="a_node31"><a xlink:href="Prod.html#transport_path_prod_uncurried" xlink:title="transport_path_prod_uncurried">
<ellipse fill="#f070d1" stroke="#000000" cx="1754" cy="-253.1223" rx="120.4791" ry="18"/>
<text text-anchor="middle" x="1754" y="-249.4223" font-family="Times,serif" font-size="14.00" fill="#000000">transport_path_prod_uncurried</text>
</a>
</g>
</g>
<!-- Prod_transport_path_prod&#45;&gt;Prod_transport_path_prod_uncurried -->
<g id="edge26" class="edge">
<title>Prod_transport_path_prod&#45;&gt;Prod_transport_path_prod_uncurried</title>
<path fill="none" stroke="#000000" d="M1872.6758,-426.1535C1849.4638,-392.3101 1799.1692,-318.9797 1772.1067,-279.5221"/>
<polygon fill="#000000" stroke="#000000" points="1774.9294,-277.4496 1766.3868,-271.1825 1769.1567,-281.4089 1774.9294,-277.4496"/>
</g>
<!-- Prod_path_prod_uncurried -->
<g id="node38" class="node">
<title>Prod_path_prod_uncurried</title>
<g id="a_node38"><a xlink:href="Prod.html#path_prod_uncurried" xlink:title="path_prod_uncurried">
<ellipse fill="#f070d1" stroke="#000000" cx="1557" cy="-81.1223" rx="84.485" ry="18"/>
<text text-anchor="middle" x="1557" y="-77.4223" font-family="Times,serif" font-size="14.00" fill="#000000">path_prod_uncurried</text>
</a>
</g>
</g>
<!-- Prod_transport_path_prod_uncurried&#45;&gt;Prod_path_prod_uncurried -->
<g id="edge27" class="edge">
<title>Prod_transport_path_prod_uncurried&#45;&gt;Prod_path_prod_uncurried</title>
<path fill="none" stroke="#000000" d="M1733.6595,-235.3631C1698.1769,-204.3833 1624.9284,-140.4304 1584.7941,-105.3893"/>
<polygon fill="#000000" stroke="#000000" points="1587.0646,-102.7254 1577.2298,-98.7849 1582.4608,-107.9984 1587.0646,-102.7254"/>
</g>
<!-- Prod_ap_path_prod -->
<g id="node32" class="node">
<title>Prod_ap_path_prod</title>
<g id="a_node32"><a xlink:href="Prod.html#ap_path_prod" xlink:title="ap_path_prod">
<ellipse fill="#f070d1" stroke="#000000" cx="1440" cy="-444.1223" rx="59.2725" ry="18"/>
<ellipse fill="none" stroke="#000000" cx="1440" cy="-444.1223" rx="63.2812" ry="22"/>
<ellipse fill="none" stroke="#000000" cx="1440" cy="-444.1223" rx="67.2898" ry="26"/>
<text text-anchor="middle" x="1440" y="-440.4223" font-family="Times,serif" font-size="14.00" fill="#000000">ap_path_prod</text>
</a>
</g>
</g>
<!-- Prod_ap_path_prod&#45;&gt;Prod_path_prod -->
<g id="edge28" class="edge">
<title>Prod_ap_path_prod&#45;&gt;Prod_path_prod</title>
<path fill="none" stroke="#000000" d="M1429.3457,-418.3632C1414.4858,-382.4362 1387.6502,-317.555 1372.4008,-280.6864"/>
<polygon fill="#000000" stroke="#000000" points="1375.483,-278.9807 1368.4266,-271.0777 1369.0145,-281.6562 1375.483,-278.9807"/>
</g>
<!-- Prod_eta_path_prod&#45;&gt;Prod_path_prod -->
<g id="edge29" class="edge">
<title>Prod_eta_path_prod&#45;&gt;Prod_path_prod</title>
<path fill="none" stroke="#000000" d="M1565.6359,-426.8355C1525.0207,-392.3577 1433.9299,-315.0318 1388.2334,-276.2404"/>
<polygon fill="#000000" stroke="#000000" points="1390.4027,-273.4909 1380.514,-269.6875 1385.8725,-278.8274 1390.4027,-273.4909"/>
</g>
<!-- Prod_ap_snd_path_prod&#45;&gt;Prod_path_prod -->
<g id="edge30" class="edge">
<title>Prod_ap_snd_path_prod&#45;&gt;Prod_path_prod</title>
<path fill="none" stroke="#000000" d="M1139.0837,-426.8355C1183.3307,-392.1995 1282.8191,-314.3213 1332.1459,-275.7089"/>
<polygon fill="#000000" stroke="#000000" points="1334.4657,-278.3379 1340.1827,-269.4178 1330.1509,-272.8258 1334.4657,-278.3379"/>
</g>
<!-- Prod_ap_fst_path_prod&#45;&gt;Prod_path_prod -->
<g id="edge31" class="edge">
<title>Prod_ap_fst_path_prod&#45;&gt;Prod_path_prod</title>
<path fill="none" stroke="#000000" d="M1290.3381,-426.1535C1304.0778,-392.5089 1333.7541,-319.8398 1349.9336,-280.2209"/>
<polygon fill="#000000" stroke="#000000" points="1353.1978,-281.4853 1353.7383,-270.9043 1346.7173,-278.8388 1353.1978,-281.4853"/>
</g>
<!-- Prod_path_prod_&#45;&gt;Prod_path_prod -->
<g id="edge32" class="edge">
<title>Prod_path_prod_&#45;&gt;Prod_path_prod</title>
<path fill="none" stroke="#000000" d="M1005.2536,-429.6095C1074.0809,-395.464 1246.2271,-310.0616 1323.0029,-271.9729"/>
<polygon fill="#000000" stroke="#000000" points="1324.9123,-274.9327 1332.315,-267.3531 1321.8013,-268.6619 1324.9123,-274.9327"/>
</g>
<!-- Prod_path_prod&#45;&gt;Prod_path_prod_uncurried -->
<g id="edge33" class="edge">
<title>Prod_path_prod&#45;&gt;Prod_path_prod_uncurried</title>
<path fill="none" stroke="#000000" d="M1379.7933,-236.6302C1414.4663,-206.2029 1488.6497,-141.1032 1529.1718,-105.543"/>
<polygon fill="#000000" stroke="#000000" points="1531.598,-108.0705 1536.8057,-98.8439 1526.9808,-102.8091 1531.598,-108.0705"/>
</g>
<!-- Prod_pack_prod -->
<g id="node40" class="node">
<title>Prod_pack_prod</title>
<g id="a_node40"><a xlink:href="Prod.html#pack_prod" xlink:title="pack_prod">
<ellipse fill="#f070d1" stroke="#000000" cx="220" cy="-1076.1223" rx="48.178" ry="18"/>
<ellipse fill="none" stroke="#000000" cx="220" cy="-1076.1223" rx="52.1848" ry="22"/>
<ellipse fill="none" stroke="#000000" cx="220" cy="-1076.1223" rx="56.1916" ry="26"/>
<text text-anchor="middle" x="220" y="-1072.4223" font-family="Times,serif" font-size="14.00" fill="#000000">pack_prod</text>
</a>
</g>
</g>
<!-- Prod_unpack_prod -->
<g id="node41" class="node">
<title>Prod_unpack_prod</title>
<g id="a_node41"><a xlink:href="Prod.html#unpack_prod" xlink:title="unpack_prod">
<ellipse fill="#f070d1" stroke="#000000" cx="81" cy="-1076.1223" rx="56.5844" ry="18"/>
<ellipse fill="none" stroke="#000000" cx="81" cy="-1076.1223" rx="60.5872" ry="22"/>
<ellipse fill="none" stroke="#000000" cx="81" cy="-1076.1223" rx="64.59" ry="26"/>
<text text-anchor="middle" x="81" y="-1072.4223" font-family="Times,serif" font-size="14.00" fill="#000000">unpack_prod</text>
</a>
</g>
</g>
</g>
</svg>
