<?xml version="1.0" encoding="UTF-8" standalone="no"?>
<!DOCTYPE svg PUBLIC "-//W3C//DTD SVG 1.1//EN"
 "http://www.w3.org/Graphics/SVG/1.1/DTD/svg11.dtd">
<!-- Generated by graphviz version 2.26.3 (20100126.1600)
 -->
<!-- Title: HoTT_FunextVarieties Pages: 1 -->
<svg width="1004pt" height="506pt"
 viewBox="0.00 0.00 1004.00 506.00" xmlns="http://www.w3.org/2000/svg" xmlns:xlink="http://www.w3.org/1999/xlink">
<g id="graph1" class="graph" transform="scale(1 1) rotate(0) translate(4 502)">
<title>HoTT_FunextVarieties</title>
<polygon fill="white" stroke="white" points="-4,5 -4,-502 1001,-502 1001,5 -4,5"/>
<g id="graph2" class="cluster"><title>cluster_FunextVarieties</title>
<polygon fill="#ffffc3" stroke="black" points="8,-9.76471 8,-488.235 988,-488.235 988,-9.76471 8,-9.76471"/>
<text text-anchor="middle" x="70.5" y="-471.635" font-family="Times Roman,serif" font-size="14.00">FunextVarieties</text>
</g>
<!-- FunextVarieties_Funext_downward_closed -->
<g id="node1" class="node"><title>FunextVarieties_Funext_downward_closed</title>
<a xlink:href="FunextVarieties.html#Funext_downward_closed" xlink:title="Funext_downward_closed">
<ellipse fill="#f070d1" stroke="black" cx="834" cy="-413.765" rx="137.886" ry="18.3848"/>
<ellipse fill="none" stroke="black" cx="834" cy="-413.765" rx="141.886" ry="22.3848"/>
<ellipse fill="none" stroke="black" cx="834" cy="-413.765" rx="145.886" ry="26.3848"/>
<text text-anchor="middle" x="834" y="-410.165" font-family="Times Roman,serif" font-size="14.00">Funext_downward_closed</text>
</a>
</g>
<!-- FunextVarieties_NaiveFunext_implies_Funext -->
<g id="node2" class="node"><title>FunextVarieties_NaiveFunext_implies_Funext</title>
<a xlink:href="FunextVarieties.html#NaiveFunext_implies_Funext" xlink:title="NaiveFunext_implies_Funext">
<ellipse fill="#f070d1" stroke="black" cx="511" cy="-413.765" rx="150.846" ry="18.3848"/>
<ellipse fill="none" stroke="black" cx="511" cy="-413.765" rx="154.834" ry="22.3848"/>
<ellipse fill="none" stroke="black" cx="511" cy="-413.765" rx="158.821" ry="26.3848"/>
<text text-anchor="middle" x="511" y="-410.165" font-family="Times Roman,serif" font-size="14.00">NaiveFunext_implies_Funext</text>
</a>
</g>
<!-- FunextVarieties_WeakFunext_implies_Funext -->
<g id="node3" class="node"><title>FunextVarieties_WeakFunext_implies_Funext</title>
<a xlink:href="FunextVarieties.html#WeakFunext_implies_Funext" xlink:title="WeakFunext_implies_Funext">
<ellipse fill="#f070d1" stroke="black" cx="218" cy="-313.765" rx="150.821" ry="18.3848"/>
<text text-anchor="middle" x="218" y="-310.165" font-family="Times Roman,serif" font-size="14.00">WeakFunext_implies_Funext</text>
</a>
</g>
<!-- FunextVarieties_NaiveFunext_implies_Funext&#45;&gt;FunextVarieties_WeakFunext_implies_Funext -->
<g id="edge2" class="edge"><title>FunextVarieties_NaiveFunext_implies_Funext&#45;&gt;FunextVarieties_WeakFunext_implies_Funext</title>
<path fill="none" stroke="black" d="M441.191,-389.939C391.785,-373.077 326.171,-350.683 278.888,-334.546"/>
<polygon fill="black" stroke="black" points="279.982,-331.221 269.388,-331.303 277.721,-337.846 279.982,-331.221"/>
</g>
<!-- FunextVarieties_NaiveFunext_implies_WeakFunext -->
<g id="node7" class="node"><title>FunextVarieties_NaiveFunext_implies_WeakFunext</title>
<a xlink:href="FunextVarieties.html#NaiveFunext_implies_WeakFunext" xlink:title="NaiveFunext_implies_WeakFunext">
<ellipse fill="#f070d1" stroke="black" cx="566" cy="-313.765" rx="178.898" ry="18.3848"/>
<text text-anchor="middle" x="566" y="-310.165" font-family="Times Roman,serif" font-size="14.00">NaiveFunext_implies_WeakFunext</text>
</a>
</g>
<!-- FunextVarieties_NaiveFunext_implies_Funext&#45;&gt;FunextVarieties_NaiveFunext_implies_WeakFunext -->
<g id="edge4" class="edge"><title>FunextVarieties_NaiveFunext_implies_Funext&#45;&gt;FunextVarieties_NaiveFunext_implies_WeakFunext</title>
<path fill="none" stroke="black" d="M525.595,-387.229C533.374,-373.084 542.936,-355.7 550.804,-341.393"/>
<polygon fill="black" stroke="black" points="553.942,-342.95 555.695,-332.502 547.809,-339.577 553.942,-342.95"/>
</g>
<!-- FunextVarieties_htpy_rect_beta -->
<g id="node4" class="node"><title>FunextVarieties_htpy_rect_beta</title>
<a xlink:href="FunextVarieties.html#htpy_rect_beta" xlink:title="htpy_rect_beta">
<ellipse fill="#f070d1" stroke="black" cx="161" cy="-223.765" rx="85.0596" ry="18.3848"/>
<text text-anchor="middle" x="161" y="-220.165" font-family="Times Roman,serif" font-size="14.00">htpy_rect_beta</text>
</a>
</g>
<!-- FunextVarieties_WeakFunext_implies_Funext&#45;&gt;FunextVarieties_htpy_rect_beta -->
<g id="edge6" class="edge"><title>FunextVarieties_WeakFunext_implies_Funext&#45;&gt;FunextVarieties_htpy_rect_beta</title>
<path fill="none" stroke="black" d="M206.19,-295.117C198.088,-282.325 187.209,-265.148 178.156,-250.852"/>
<polygon fill="black" stroke="black" points="181.103,-248.964 172.795,-242.389 175.189,-252.71 181.103,-248.964"/>
</g>
<!-- FunextVarieties_htpy_rect -->
<g id="node5" class="node"><title>FunextVarieties_htpy_rect</title>
<a xlink:href="FunextVarieties.html#htpy_rect" xlink:title="htpy_rect">
<ellipse fill="#f070d1" stroke="black" cx="322" cy="-223.765" rx="58.1882" ry="18.3848"/>
<text text-anchor="middle" x="322" y="-220.165" font-family="Times Roman,serif" font-size="14.00">htpy_rect</text>
</a>
</g>
<!-- FunextVarieties_WeakFunext_implies_Funext&#45;&gt;FunextVarieties_htpy_rect -->
<g id="edge8" class="edge"><title>FunextVarieties_WeakFunext_implies_Funext&#45;&gt;FunextVarieties_htpy_rect</title>
<path fill="none" stroke="black" d="M239.297,-295.335C255.169,-281.599 276.988,-262.717 294.23,-247.797"/>
<polygon fill="black" stroke="black" points="296.52,-250.443 301.792,-241.253 291.94,-245.15 296.52,-250.443"/>
</g>
<!-- FunextVarieties_contr_basedhtpy -->
<g id="node6" class="node"><title>FunextVarieties_contr_basedhtpy</title>
<a xlink:href="FunextVarieties.html#contr_basedhtpy" xlink:title="contr_basedhtpy">
<ellipse fill="#f070d1" stroke="black" cx="164" cy="-132.765" rx="92.1303" ry="18.3848"/>
<text text-anchor="middle" x="164" y="-129.165" font-family="Times Roman,serif" font-size="14.00">contr_basedhtpy</text>
</a>
</g>
<!-- FunextVarieties_htpy_rect_beta&#45;&gt;FunextVarieties_contr_basedhtpy -->
<g id="edge10" class="edge"><title>FunextVarieties_htpy_rect_beta&#45;&gt;FunextVarieties_contr_basedhtpy</title>
<path fill="none" stroke="black" d="M161.622,-204.909C162.035,-192.381 162.585,-175.691 163.052,-161.52"/>
<polygon fill="black" stroke="black" points="166.558,-161.394 163.389,-151.284 159.562,-161.164 166.558,-161.394"/>
</g>
<!-- FunextVarieties_htpy_rect&#45;&gt;FunextVarieties_contr_basedhtpy -->
<g id="edge12" class="edge"><title>FunextVarieties_htpy_rect&#45;&gt;FunextVarieties_contr_basedhtpy</title>
<path fill="none" stroke="black" d="M293.753,-207.496C268.523,-192.965 231.317,-171.536 203.208,-155.346"/>
<polygon fill="black" stroke="black" points="204.84,-152.247 194.427,-150.289 201.346,-158.313 204.84,-152.247"/>
</g>
<!-- FunextVarieties_WeakFunext -->
<g id="node9" class="node"><title>FunextVarieties_WeakFunext</title>
<a xlink:href="FunextVarieties.html#WeakFunext" xlink:title="WeakFunext">
<ellipse fill="#f070d1" stroke="black" cx="164" cy="-42.7647" rx="73.0388" ry="18.3848"/>
<text text-anchor="middle" x="164" y="-39.1647" font-family="Times Roman,serif" font-size="14.00">WeakFunext</text>
</a>
</g>
<!-- FunextVarieties_contr_basedhtpy&#45;&gt;FunextVarieties_WeakFunext -->
<g id="edge14" class="edge"><title>FunextVarieties_contr_basedhtpy&#45;&gt;FunextVarieties_WeakFunext</title>
<path fill="none" stroke="black" d="M164,-114.117C164,-101.808 164,-85.4379 164,-71.4826"/>
<polygon fill="black" stroke="black" points="167.5,-71.3888 164,-61.3889 160.5,-71.3889 167.5,-71.3888"/>
</g>
<!-- FunextVarieties_NaiveFunext -->
<g id="node10" class="node"><title>FunextVarieties_NaiveFunext</title>
<a xlink:href="FunextVarieties.html#NaiveFunext" xlink:title="NaiveFunext">
<ellipse fill="#f070d1" stroke="black" cx="566" cy="-223.765" rx="73.0388" ry="18.3848"/>
<text text-anchor="middle" x="566" y="-220.165" font-family="Times Roman,serif" font-size="14.00">NaiveFunext</text>
</a>
</g>
<!-- FunextVarieties_NaiveFunext_implies_WeakFunext&#45;&gt;FunextVarieties_NaiveFunext -->
<g id="edge16" class="edge"><title>FunextVarieties_NaiveFunext_implies_WeakFunext&#45;&gt;FunextVarieties_NaiveFunext</title>
<path fill="none" stroke="black" d="M566,-295.117C566,-282.808 566,-266.438 566,-252.483"/>
<polygon fill="black" stroke="black" points="569.5,-252.389 566,-242.389 562.5,-252.389 569.5,-252.389"/>
</g>
<!-- FunextVarieties_Funext_implies_NaiveFunext -->
<g id="node8" class="node"><title>FunextVarieties_Funext_implies_NaiveFunext</title>
<a xlink:href="FunextVarieties.html#Funext_implies_NaiveFunext" xlink:title="Funext_implies_NaiveFunext">
<ellipse fill="#f070d1" stroke="black" cx="175" cy="-413.765" rx="150.846" ry="18.3848"/>
<ellipse fill="none" stroke="black" cx="175" cy="-413.765" rx="154.834" ry="22.3848"/>
<ellipse fill="none" stroke="black" cx="175" cy="-413.765" rx="158.821" ry="26.3848"/>
<text text-anchor="middle" x="175" y="-410.165" font-family="Times Roman,serif" font-size="14.00">Funext_implies_NaiveFunext</text>
</a>
</g>
</g>
</svg>
