<?xml version="1.0" encoding="UTF-8" standalone="no"?>
<!DOCTYPE svg PUBLIC "-//W3C//DTD SVG 1.1//EN"
 "http://www.w3.org/Graphics/SVG/1.1/DTD/svg11.dtd">
<!-- Generated by graphviz version 2.26.3 (20100126.1600)
 -->
<!-- Title: HoTT_categories_Functor_Pointwise Pages: 1 -->
<svg width="2846pt" height="1427pt"
 viewBox="0.00 0.00 2846.00 1427.00" xmlns="http://www.w3.org/2000/svg" xmlns:xlink="http://www.w3.org/1999/xlink">
<g id="graph1" class="graph" transform="scale(1 1) rotate(0) translate(4 1423)">
<title>HoTT_categories_Functor_Pointwise</title>
<polygon fill="white" stroke="white" points="-4,5 -4,-1423 2843,-1423 2843,5 -4,5"/>
<g id="graph2" class="cluster"><title>cluster_Pointwise</title>
<polygon fill="#ffffc3" stroke="black" points="8,-61.0323 8,-1357.97 2830,-1357.97 2830,-61.0323 8,-61.0323"/>
<text text-anchor="middle" x="49.5" y="-1341.37" font-family="Times Roman,serif" font-size="14.00">Pointwise</text>
</g>
<!-- Pointwise_pointwise_whiskerR -->
<g id="node1" class="node"><title>Pointwise_pointwise_whiskerR</title>
<a xlink:href="Pointwise.html#pointwise_whiskerR" xlink:title="pointwise_whiskerR">
<ellipse fill="#f070d1" stroke="black" cx="2294" cy="-893.032" rx="109.135" ry="18.3848"/>
<ellipse fill="none" stroke="black" cx="2294" cy="-893.032" rx="113.118" ry="22.3848"/>
<ellipse fill="none" stroke="black" cx="2294" cy="-893.032" rx="117.101" ry="26.3848"/>
<text text-anchor="middle" x="2294" y="-889.432" font-family="Times Roman,serif" font-size="14.00">pointwise_whiskerR</text>
</a>
</g>
<!-- Pointwise_pointwise_whiskerR_subproof0 -->
<g id="node2" class="node"><title>Pointwise_pointwise_whiskerR_subproof0</title>
<a xlink:href="Pointwise.html#pointwise_whiskerR_subproof0" xlink:title="pointwise_whiskerR_subproof0">
<ellipse fill="#facdef" stroke="black" cx="1958" cy="-267.032" rx="162.134" ry="18.3848"/>
<text text-anchor="middle" x="1958" y="-263.432" font-family="Times Roman,serif" font-size="14.00">pointwise_whiskerR_subproof0</text>
</a>
</g>
<!-- Pointwise_pointwise_whiskerR&#45;&gt;Pointwise_pointwise_whiskerR_subproof0 -->
<g id="edge2" class="edge"><title>Pointwise_pointwise_whiskerR&#45;&gt;Pointwise_pointwise_whiskerR_subproof0</title>
<path fill="none" stroke="black" d="M2279.78,-866.534C2225.09,-764.644 2028.63,-398.62 1972.86,-294.714"/>
<polygon fill="black" stroke="black" points="1975.87,-292.921 1968.05,-285.765 1969.7,-296.231 1975.87,-292.921"/>
</g>
<!-- Pointwise_pointwise_whiskerR_subproof -->
<g id="node3" class="node"><title>Pointwise_pointwise_whiskerR_subproof</title>
<a xlink:href="Pointwise.html#pointwise_whiskerR_subproof" xlink:title="pointwise_whiskerR_subproof">
<ellipse fill="#facdef" stroke="black" cx="2294" cy="-267.032" rx="155.771" ry="18.3848"/>
<text text-anchor="middle" x="2294" y="-263.432" font-family="Times Roman,serif" font-size="14.00">pointwise_whiskerR_subproof</text>
</a>
</g>
<!-- Pointwise_pointwise_whiskerR&#45;&gt;Pointwise_pointwise_whiskerR_subproof -->
<g id="edge4" class="edge"><title>Pointwise_pointwise_whiskerR&#45;&gt;Pointwise_pointwise_whiskerR_subproof</title>
<path fill="none" stroke="black" d="M2294,-866.134C2294,-764.083 2294,-401.286 2294,-295.921"/>
<polygon fill="black" stroke="black" points="2297.5,-295.725 2294,-285.725 2290.5,-295.725 2297.5,-295.725"/>
</g>
<!-- Pointwise_pointwise_whiskerR_morphism_of -->
<g id="node10" class="node"><title>Pointwise_pointwise_whiskerR_morphism_of</title>
<a xlink:href="Pointwise.html#pointwise_whiskerR_morphism_of" xlink:title="pointwise_whiskerR_morphism_of">
<ellipse fill="#f070d1" stroke="black" cx="2645" cy="-267.032" rx="176.777" ry="18.3848"/>
<text text-anchor="middle" x="2645" y="-263.432" font-family="Times Roman,serif" font-size="14.00">pointwise_whiskerR_morphism_of</text>
</a>
</g>
<!-- Pointwise_pointwise_whiskerR&#45;&gt;Pointwise_pointwise_whiskerR_morphism_of -->
<g id="edge6" class="edge"><title>Pointwise_pointwise_whiskerR&#45;&gt;Pointwise_pointwise_whiskerR_morphism_of</title>
<path fill="none" stroke="black" d="M2308.86,-866.534C2365.99,-764.644 2571.22,-398.62 2629.48,-294.714"/>
<polygon fill="black" stroke="black" points="2632.66,-296.199 2634.5,-285.765 2626.55,-292.776 2632.66,-296.199"/>
</g>
<!-- Pointwise_pointwise_whiskerL -->
<g id="node4" class="node"><title>Pointwise_pointwise_whiskerL</title>
<a xlink:href="Pointwise.html#pointwise_whiskerL" xlink:title="pointwise_whiskerL">
<ellipse fill="#f070d1" stroke="black" cx="1255" cy="-893.032" rx="108.187" ry="18.3848"/>
<ellipse fill="none" stroke="black" cx="1255" cy="-893.032" rx="112.187" ry="22.3848"/>
<ellipse fill="none" stroke="black" cx="1255" cy="-893.032" rx="116.187" ry="26.3848"/>
<text text-anchor="middle" x="1255" y="-889.432" font-family="Times Roman,serif" font-size="14.00">pointwise_whiskerL</text>
</a>
</g>
<!-- Pointwise_pointwise_whiskerL_subproof0 -->
<g id="node5" class="node"><title>Pointwise_pointwise_whiskerL_subproof0</title>
<a xlink:href="Pointwise.html#pointwise_whiskerL_subproof0" xlink:title="pointwise_whiskerL_subproof0">
<ellipse fill="#facdef" stroke="black" cx="920" cy="-267.032" rx="161.927" ry="18.3848"/>
<text text-anchor="middle" x="920" y="-263.432" font-family="Times Roman,serif" font-size="14.00">pointwise_whiskerL_subproof0</text>
</a>
</g>
<!-- Pointwise_pointwise_whiskerL&#45;&gt;Pointwise_pointwise_whiskerL_subproof0 -->
<g id="edge8" class="edge"><title>Pointwise_pointwise_whiskerL&#45;&gt;Pointwise_pointwise_whiskerL_subproof0</title>
<path fill="none" stroke="black" d="M1240.82,-866.534C1186.29,-764.644 990.419,-398.62 934.814,-294.714"/>
<polygon fill="black" stroke="black" points="937.829,-292.93 930.025,-285.765 931.657,-296.233 937.829,-292.93"/>
</g>
<!-- Pointwise_pointwise_whiskerL_subproof -->
<g id="node6" class="node"><title>Pointwise_pointwise_whiskerL_subproof</title>
<a xlink:href="Pointwise.html#pointwise_whiskerL_subproof" xlink:title="pointwise_whiskerL_subproof">
<ellipse fill="#facdef" stroke="black" cx="1255" cy="-267.032" rx="155.063" ry="18.3848"/>
<text text-anchor="middle" x="1255" y="-263.432" font-family="Times Roman,serif" font-size="14.00">pointwise_whiskerL_subproof</text>
</a>
</g>
<!-- Pointwise_pointwise_whiskerL&#45;&gt;Pointwise_pointwise_whiskerL_subproof -->
<g id="edge10" class="edge"><title>Pointwise_pointwise_whiskerL&#45;&gt;Pointwise_pointwise_whiskerL_subproof</title>
<path fill="none" stroke="black" d="M1255,-866.134C1255,-764.083 1255,-401.286 1255,-295.921"/>
<polygon fill="black" stroke="black" points="1258.5,-295.725 1255,-285.725 1251.5,-295.725 1258.5,-295.725"/>
</g>
<!-- Pointwise_pointwise_whiskerL_morphism_of -->
<g id="node11" class="node"><title>Pointwise_pointwise_whiskerL_morphism_of</title>
<a xlink:href="Pointwise.html#pointwise_whiskerL_morphism_of" xlink:title="pointwise_whiskerL_morphism_of">
<ellipse fill="#f070d1" stroke="black" cx="1603" cy="-267.032" rx="174.863" ry="18.3848"/>
<text text-anchor="middle" x="1603" y="-263.432" font-family="Times Roman,serif" font-size="14.00">pointwise_whiskerL_morphism_of</text>
</a>
</g>
<!-- Pointwise_pointwise_whiskerL&#45;&gt;Pointwise_pointwise_whiskerL_morphism_of -->
<g id="edge12" class="edge"><title>Pointwise_pointwise_whiskerL&#45;&gt;Pointwise_pointwise_whiskerL_morphism_of</title>
<path fill="none" stroke="black" d="M1269.73,-866.534C1326.37,-764.644 1529.85,-398.62 1587.61,-294.714"/>
<polygon fill="black" stroke="black" points="1590.79,-296.206 1592.59,-285.765 1584.67,-292.805 1590.79,-296.206"/>
</g>
<!-- Pointwise_pointwise -->
<g id="node7" class="node"><title>Pointwise_pointwise</title>
<a xlink:href="Pointwise.html#pointwise" xlink:title="pointwise">
<ellipse fill="#f070d1" stroke="black" cx="364" cy="-893.032" rx="58.2486" ry="18.3848"/>
<ellipse fill="none" stroke="black" cx="364" cy="-893.032" rx="62.2185" ry="22.3848"/>
<ellipse fill="none" stroke="black" cx="364" cy="-893.032" rx="66.1884" ry="26.3848"/>
<text text-anchor="middle" x="364" y="-889.432" font-family="Times Roman,serif" font-size="14.00">pointwise</text>
</a>
</g>
<!-- Pointwise_pointwise_subproof0 -->
<g id="node8" class="node"><title>Pointwise_pointwise_subproof0</title>
<a xlink:href="Pointwise.html#pointwise_subproof0" xlink:title="pointwise_subproof0">
<ellipse fill="#facdef" stroke="black" cx="128" cy="-267.032" rx="111.93" ry="18.3848"/>
<text text-anchor="middle" x="128" y="-263.432" font-family="Times Roman,serif" font-size="14.00">pointwise_subproof0</text>
</a>
</g>
<!-- Pointwise_pointwise&#45;&gt;Pointwise_pointwise_subproof0 -->
<g id="edge14" class="edge"><title>Pointwise_pointwise&#45;&gt;Pointwise_pointwise_subproof0</title>
<path fill="none" stroke="black" d="M354.01,-866.534C315.675,-764.849 178.164,-400.094 138.674,-295.345"/>
<polygon fill="black" stroke="black" points="141.865,-293.887 135.062,-285.765 135.315,-296.357 141.865,-293.887"/>
</g>
<!-- Pointwise_pointwise_subproof -->
<g id="node9" class="node"><title>Pointwise_pointwise_subproof</title>
<a xlink:href="Pointwise.html#pointwise_subproof" xlink:title="pointwise_subproof">
<ellipse fill="#facdef" stroke="black" cx="364" cy="-267.032" rx="106.066" ry="18.3848"/>
<text text-anchor="middle" x="364" y="-263.432" font-family="Times Roman,serif" font-size="14.00">pointwise_subproof</text>
</a>
</g>
<!-- Pointwise_pointwise&#45;&gt;Pointwise_pointwise_subproof -->
<g id="edge16" class="edge"><title>Pointwise_pointwise&#45;&gt;Pointwise_pointwise_subproof</title>
<path fill="none" stroke="black" d="M364,-866.134C364,-764.083 364,-401.286 364,-295.921"/>
<polygon fill="black" stroke="black" points="367.5,-295.725 364,-285.725 360.5,-295.725 367.5,-295.725"/>
</g>
<!-- Pointwise_pointwise_morphism_of -->
<g id="node12" class="node"><title>Pointwise_pointwise_morphism_of</title>
<a xlink:href="Pointwise.html#pointwise_morphism_of" xlink:title="pointwise_morphism_of">
<ellipse fill="#f070d1" stroke="black" cx="614" cy="-267.032" rx="126.072" ry="18.3848"/>
<text text-anchor="middle" x="614" y="-263.432" font-family="Times Roman,serif" font-size="14.00">pointwise_morphism_of</text>
</a>
</g>
<!-- Pointwise_pointwise&#45;&gt;Pointwise_pointwise_morphism_of -->
<g id="edge18" class="edge"><title>Pointwise_pointwise&#45;&gt;Pointwise_pointwise_morphism_of</title>
<path fill="none" stroke="black" d="M374.583,-866.534C415.191,-764.849 560.86,-400.094 602.693,-295.345"/>
<polygon fill="black" stroke="black" points="606.06,-296.35 606.519,-285.765 599.56,-293.754 606.06,-296.35"/>
</g>
</g>
</svg>
