<?xml version="1.0" encoding="UTF-8" standalone="no"?>
<!DOCTYPE svg PUBLIC "-//W3C//DTD SVG 1.1//EN"
 "http://www.w3.org/Graphics/SVG/1.1/DTD/svg11.dtd">
<!-- Generated by graphviz version 2.26.3 (20100126.1600)
 -->
<!-- Title: HoTT_types_Bool Pages: 1 -->
<svg width="1122pt" height="565pt"
 viewBox="0.00 0.00 1122.00 565.00" xmlns="http://www.w3.org/2000/svg" xmlns:xlink="http://www.w3.org/1999/xlink">
<g id="graph1" class="graph" transform="scale(1 1) rotate(0) translate(4 561)">
<title>HoTT_types_Bool</title>
<polygon fill="white" stroke="white" points="-4,5 -4,-561 1119,-561 1119,5 -4,5"/>
<g id="graph2" class="cluster"><title>cluster_Bool</title>
<polygon fill="#ffffc3" stroke="black" points="8,-9.77193 8,-547.228 1106,-547.228 1106,-9.77193 8,-9.77193"/>
<text text-anchor="middle" x="31.5" y="-530.628" font-family="Times Roman,serif" font-size="14.00">Bool</text>
</g>
<!-- Bool_equiv_bool_equiv_bool_bool_helper -->
<g id="node1" class="node"><title>Bool_equiv_bool_equiv_bool_bool_helper</title>
<a xlink:href="Bool.html#equiv_bool_equiv_bool_bool_helper" xlink:title="equiv_bool_equiv_bool_bool_helper">
<ellipse fill="#f070d1" stroke="black" cx="480" cy="-362.772" rx="181.955" ry="18.3848"/>
<ellipse fill="none" stroke="black" cx="480" cy="-362.772" rx="185.944" ry="22.3848"/>
<ellipse fill="none" stroke="black" cx="480" cy="-362.772" rx="189.934" ry="26.3848"/>
<text text-anchor="middle" x="480" y="-359.172" font-family="Times Roman,serif" font-size="14.00">equiv_bool_equiv_bool_bool_helper</text>
</a>
</g>
<!-- Bool_eval_bool_isequiv -->
<g id="node2" class="node"><title>Bool_eval_bool_isequiv</title>
<a xlink:href="Bool.html#eval_bool_isequiv" xlink:title="eval_bool_isequiv">
<ellipse fill="#f070d1" stroke="black" cx="321" cy="-252.772" rx="96.8736" ry="18.3848"/>
<text text-anchor="middle" x="321" y="-249.172" font-family="Times Roman,serif" font-size="14.00">eval_bool_isequiv</text>
</a>
</g>
<!-- Bool_equiv_bool_equiv_bool_bool_helper&#45;&gt;Bool_eval_bool_isequiv -->
<g id="edge2" class="edge"><title>Bool_equiv_bool_equiv_bool_bool_helper&#45;&gt;Bool_eval_bool_isequiv</title>
<path fill="none" stroke="black" d="M442.319,-336.703C415.917,-318.438 380.913,-294.221 355.292,-276.496"/>
<polygon fill="black" stroke="black" points="357.204,-273.563 346.989,-270.752 353.221,-279.319 357.204,-273.563"/>
</g>
<!-- Bool_isequiv_negb -->
<g id="node3" class="node"><title>Bool_isequiv_negb</title>
<a xlink:href="Bool.html#isequiv_negb" xlink:title="isequiv_negb">
<ellipse fill="#f070d1" stroke="black" cx="511" cy="-252.772" rx="74.9533" ry="18.3848"/>
<text text-anchor="middle" x="511" y="-249.172" font-family="Times Roman,serif" font-size="14.00">isequiv_negb</text>
</a>
</g>
<!-- Bool_equiv_bool_equiv_bool_bool_helper&#45;&gt;Bool_isequiv_negb -->
<g id="edge4" class="edge"><title>Bool_equiv_bool_equiv_bool_bool_helper&#45;&gt;Bool_isequiv_negb</title>
<path fill="none" stroke="black" d="M487.504,-336.144C492.193,-319.505 498.227,-298.095 503.006,-281.138"/>
<polygon fill="black" stroke="black" points="506.452,-281.812 505.796,-271.238 499.715,-279.913 506.452,-281.812"/>
</g>
<!-- Bool_negb -->
<g id="node11" class="node"><title>Bool_negb</title>
<a xlink:href="Bool.html#negb" xlink:title="negb">
<ellipse fill="#f070d1" stroke="black" cx="421" cy="-142.772" rx="34.8574" ry="18.3848"/>
<text text-anchor="middle" x="421" y="-139.172" font-family="Times Roman,serif" font-size="14.00">negb</text>
</a>
</g>
<!-- Bool_eval_bool_isequiv&#45;&gt;Bool_negb -->
<g id="edge6" class="edge"><title>Bool_eval_bool_isequiv&#45;&gt;Bool_negb</title>
<path fill="none" stroke="black" d="M337.964,-234.112C354.689,-215.714 380.342,-187.495 398.707,-167.294"/>
<polygon fill="black" stroke="black" points="401.461,-169.468 405.598,-159.715 396.281,-164.76 401.461,-169.468"/>
</g>
<!-- Bool_isequiv_negb&#45;&gt;Bool_negb -->
<g id="edge8" class="edge"><title>Bool_isequiv_negb&#45;&gt;Bool_negb</title>
<path fill="none" stroke="black" d="M496.138,-234.608C481.219,-216.373 458.119,-188.14 441.47,-167.791"/>
<polygon fill="black" stroke="black" points="444.036,-165.4 434.995,-159.876 438.618,-169.832 444.036,-165.4"/>
</g>
<!-- Bool_equiv_bool_forall_prod -->
<g id="node4" class="node"><title>Bool_equiv_bool_forall_prod</title>
<a xlink:href="Bool.html#equiv_bool_forall_prod" xlink:title="equiv_bool_forall_prod">
<ellipse fill="#f070d1" stroke="black" cx="866" cy="-142.772" rx="120.208" ry="18.3848"/>
<ellipse fill="none" stroke="black" cx="866" cy="-142.772" rx="124.208" ry="22.3848"/>
<ellipse fill="none" stroke="black" cx="866" cy="-142.772" rx="128.208" ry="26.3848"/>
<text text-anchor="middle" x="866" y="-139.172" font-family="Times Roman,serif" font-size="14.00">equiv_bool_forall_prod</text>
</a>
</g>
<!-- Bool_false -->
<g id="node17" class="node"><title>Bool_false</title>
<a xlink:href="Bool.html#false" xlink:title="false">
<ellipse fill="#7faaff" stroke="black" cx="663" cy="-42.7719" rx="33.9411" ry="18.3848"/>
<text text-anchor="middle" x="663" y="-39.1719" font-family="Times Roman,serif" font-size="14.00">false</text>
</a>
</g>
<!-- Bool_equiv_bool_forall_prod&#45;&gt;Bool_false -->
<g id="edge10" class="edge"><title>Bool_equiv_bool_forall_prod&#45;&gt;Bool_false</title>
<path fill="none" stroke="black" d="M816.341,-118.309C779.483,-100.153 730.159,-75.8554 697.523,-59.7783"/>
<polygon fill="black" stroke="black" points="698.891,-56.5508 688.374,-55.2714 695.798,-62.8302 698.891,-56.5508"/>
</g>
<!-- Bool_true -->
<g id="node18" class="node"><title>Bool_true</title>
<a xlink:href="Bool.html#true" xlink:title="true">
<ellipse fill="#7faaff" stroke="black" cx="341" cy="-42.7719" rx="32.0265" ry="18.3848"/>
<text text-anchor="middle" x="341" y="-39.1719" font-family="Times Roman,serif" font-size="14.00">true</text>
</a>
</g>
<!-- Bool_equiv_bool_forall_prod&#45;&gt;Bool_true -->
<g id="edge12" class="edge"><title>Bool_equiv_bool_forall_prod&#45;&gt;Bool_true</title>
<path fill="none" stroke="black" d="M773.547,-124.374C758.659,-121.462 743.409,-118.51 729,-115.772 598.054,-90.8849 564.858,-87.1133 434,-61.7719 416.583,-58.399 397.367,-54.5028 380.947,-51.1199"/>
<polygon fill="black" stroke="black" points="381.627,-47.6865 371.125,-49.0892 380.209,-54.5415 381.627,-47.6865"/>
</g>
<!-- Bool_Bool -->
<g id="node19" class="node"><title>Bool_Bool</title>
<a xlink:href="Bool.html#Bool" xlink:title="Bool">
<ellipse fill="#e2cdfa" stroke="black" cx="476" cy="-42.7719" rx="33.234" ry="18.3848"/>
<text text-anchor="middle" x="476" y="-39.1719" font-family="Times Roman,serif" font-size="14.00">Bool</text>
</a>
</g>
<!-- Bool_equiv_bool_forall_prod&#45;&gt;Bool_Bool -->
<g id="edge14" class="edge"><title>Bool_equiv_bool_forall_prod&#45;&gt;Bool_Bool</title>
<path fill="none" stroke="black" d="M785.192,-122.052C703.189,-101.026 579.589,-69.3331 516.369,-53.1229"/>
<polygon fill="black" stroke="black" points="516.945,-49.6576 506.39,-50.5641 515.207,-56.4383 516.945,-49.6576"/>
</g>
<!-- Bool_trunc_bool -->
<g id="node5" class="node"><title>Bool_trunc_bool</title>
<a xlink:href="Bool.html#trunc_bool" xlink:title="trunc_bool">
<ellipse fill="#f070d1" stroke="black" cx="130" cy="-472.772" rx="62.9325" ry="18.3848"/>
<ellipse fill="none" stroke="black" cx="130" cy="-472.772" rx="66.9325" ry="22.3848"/>
<ellipse fill="none" stroke="black" cx="130" cy="-472.772" rx="70.9325" ry="26.3848"/>
<text text-anchor="middle" x="130" y="-469.172" font-family="Times Roman,serif" font-size="14.00">trunc_bool</text>
</a>
</g>
<!-- Bool_decidable_paths_bool -->
<g id="node6" class="node"><title>Bool_decidable_paths_bool</title>
<a xlink:href="Bool.html#decidable_paths_bool" xlink:title="decidable_paths_bool">
<ellipse fill="#f070d1" stroke="black" cx="130" cy="-362.772" rx="114.051" ry="18.3848"/>
<text text-anchor="middle" x="130" y="-359.172" font-family="Times Roman,serif" font-size="14.00">decidable_paths_bool</text>
</a>
</g>
<!-- Bool_trunc_bool&#45;&gt;Bool_decidable_paths_bool -->
<g id="edge16" class="edge"><title>Bool_trunc_bool&#45;&gt;Bool_decidable_paths_bool</title>
<path fill="none" stroke="black" d="M130,-446.144C130,-429.766 130,-408.766 130,-391.94"/>
<polygon fill="black" stroke="black" points="133.5,-391.576 130,-381.576 126.5,-391.576 133.5,-391.576"/>
</g>
<!-- Bool_true_ne_false -->
<g id="node7" class="node"><title>Bool_true_ne_false</title>
<a xlink:href="Bool.html#true_ne_false" xlink:title="true_ne_false">
<ellipse fill="#f070d1" stroke="black" cx="128" cy="-252.772" rx="77.7817" ry="18.3848"/>
<text text-anchor="middle" x="128" y="-249.172" font-family="Times Roman,serif" font-size="14.00">true_ne_false</text>
</a>
</g>
<!-- Bool_decidable_paths_bool&#45;&gt;Bool_true_ne_false -->
<g id="edge18" class="edge"><title>Bool_decidable_paths_bool&#45;&gt;Bool_true_ne_false</title>
<path fill="none" stroke="black" d="M129.661,-344.112C129.349,-326.966 128.882,-301.291 128.523,-281.525"/>
<polygon fill="black" stroke="black" points="132.022,-281.458 128.341,-271.523 125.023,-281.585 132.022,-281.458"/>
</g>
<!-- Bool_false_ne_true -->
<g id="node8" class="node"><title>Bool_false_ne_true</title>
<a xlink:href="Bool.html#false_ne_true" xlink:title="false_ne_true">
<ellipse fill="#f070d1" stroke="black" cx="290" cy="-142.772" rx="77.7817" ry="18.3848"/>
<text text-anchor="middle" x="290" y="-139.172" font-family="Times Roman,serif" font-size="14.00">false_ne_true</text>
</a>
</g>
<!-- Bool_true_ne_false&#45;&gt;Bool_false_ne_true -->
<g id="edge20" class="edge"><title>Bool_true_ne_false&#45;&gt;Bool_false_ne_true</title>
<path fill="none" stroke="black" d="M154.028,-235.099C181.543,-216.416 225.081,-186.852 255.455,-166.229"/>
<polygon fill="black" stroke="black" points="257.73,-168.915 264.036,-160.401 253.797,-163.123 257.73,-168.915"/>
</g>
<!-- Bool_false_ne_true&#45;&gt;Bool_false -->
<g id="edge22" class="edge"><title>Bool_false_ne_true&#45;&gt;Bool_false</title>
<path fill="none" stroke="black" d="M336.827,-127.759C349.799,-123.731 363.912,-119.471 377,-115.772 463.581,-91.3046 565.926,-66.0617 621.688,-52.6155"/>
<polygon fill="black" stroke="black" points="622.639,-55.9866 631.543,-50.2449 621.002,-49.1807 622.639,-55.9866"/>
</g>
<!-- Bool_false_ne_true&#45;&gt;Bool_true -->
<g id="edge24" class="edge"><title>Bool_false_ne_true&#45;&gt;Bool_true</title>
<path fill="none" stroke="black" d="M299.593,-123.963C307.383,-108.687 318.472,-86.9438 327.214,-69.8025"/>
<polygon fill="black" stroke="black" points="330.368,-71.3218 331.794,-60.8233 324.133,-68.1415 330.368,-71.3218"/>
</g>
<!-- Bool_false_ne_true&#45;&gt;Bool_Bool -->
<g id="edge26" class="edge"><title>Bool_false_ne_true&#45;&gt;Bool_Bool</title>
<path fill="none" stroke="black" d="M321.552,-125.808C355.279,-107.676 408.522,-79.0503 442.85,-60.5943"/>
<polygon fill="black" stroke="black" points="444.849,-63.4937 451.999,-55.6756 441.534,-57.3282 444.849,-63.4937"/>
</g>
<!-- Bool_trunc_if -->
<g id="node9" class="node"><title>Bool_trunc_if</title>
<a xlink:href="Bool.html#trunc_if" xlink:title="trunc_if">
<ellipse fill="#f070d1" stroke="black" cx="531" cy="-142.772" rx="48.7904" ry="18.3848"/>
<ellipse fill="none" stroke="black" cx="531" cy="-142.772" rx="52.7904" ry="22.3848"/>
<ellipse fill="none" stroke="black" cx="531" cy="-142.772" rx="56.7904" ry="26.3848"/>
<text text-anchor="middle" x="531" y="-139.172" font-family="Times Roman,serif" font-size="14.00">trunc_if</text>
</a>
</g>
<!-- Bool_trunc_if&#45;&gt;Bool_Bool -->
<g id="edge28" class="edge"><title>Bool_trunc_if&#45;&gt;Bool_Bool</title>
<path fill="none" stroke="black" d="M516.836,-117.019C508.847,-102.493 498.876,-84.3643 490.787,-69.6567"/>
<polygon fill="black" stroke="black" points="493.668,-67.6335 485.782,-60.5581 487.535,-71.007 493.668,-67.6335"/>
</g>
<!-- Bool_implb -->
<g id="node10" class="node"><title>Bool_implb</title>
<a xlink:href="Bool.html#implb" xlink:title="implb">
<ellipse fill="#f070d1" stroke="black" cx="61" cy="-142.772" rx="37.0648" ry="18.3848"/>
<ellipse fill="none" stroke="black" cx="61" cy="-142.772" rx="41.0209" ry="22.3848"/>
<ellipse fill="none" stroke="black" cx="61" cy="-142.772" rx="44.9769" ry="26.3848"/>
<text text-anchor="middle" x="61" y="-139.172" font-family="Times Roman,serif" font-size="14.00">implb</text>
</a>
</g>
<!-- Bool_implb&#45;&gt;Bool_true -->
<g id="edge30" class="edge"><title>Bool_implb&#45;&gt;Bool_true</title>
<path fill="none" stroke="black" d="M94.6295,-124.979C101.297,-121.731 108.305,-118.508 115,-115.772 179.224,-89.5193 256.664,-66.2384 302.197,-53.3654"/>
<polygon fill="black" stroke="black" points="303.278,-56.6974 311.961,-50.6265 301.387,-49.9576 303.278,-56.6974"/>
</g>
<!-- Bool_implb&#45;&gt;Bool_Bool -->
<g id="edge32" class="edge"><title>Bool_implb&#45;&gt;Bool_Bool</title>
<path fill="none" stroke="black" d="M94.1089,-124.507C100.882,-121.262 108.063,-118.16 115,-115.772 115.239,-115.69 340.247,-70.2091 434.861,-51.0864"/>
<polygon fill="black" stroke="black" points="435.825,-54.4625 444.933,-49.0507 434.438,-47.6012 435.825,-54.4625"/>
</g>
<!-- Bool_negb&#45;&gt;Bool_false -->
<g id="edge34" class="edge"><title>Bool_negb&#45;&gt;Bool_false</title>
<path fill="none" stroke="black" d="M442.903,-128.159C449.813,-123.871 457.582,-119.372 465,-115.772 518.135,-89.9862 582.866,-67.7282 623.518,-54.7801"/>
<polygon fill="black" stroke="black" points="624.578,-58.1158 633.062,-51.7704 622.473,-51.4399 624.578,-58.1158"/>
</g>
<!-- Bool_negb&#45;&gt;Bool_true -->
<g id="edge36" class="edge"><title>Bool_negb&#45;&gt;Bool_true</title>
<path fill="none" stroke="black" d="M407.065,-125.353C394.37,-109.484 375.469,-85.8585 361.133,-67.9379"/>
<polygon fill="black" stroke="black" points="363.489,-65.2801 354.509,-59.6578 358.023,-69.6529 363.489,-65.2801"/>
</g>
<!-- Bool_negb&#45;&gt;Bool_Bool -->
<g id="edge38" class="edge"><title>Bool_negb&#45;&gt;Bool_Bool</title>
<path fill="none" stroke="black" d="M430.833,-124.894C439.28,-109.536 451.583,-87.1665 461.216,-69.6511"/>
<polygon fill="black" stroke="black" points="464.5,-70.9441 466.252,-60.4951 458.366,-67.5706 464.5,-70.9441"/>
</g>
<!-- Bool_orb -->
<g id="node12" class="node"><title>Bool_orb</title>
<a xlink:href="Bool.html#orb" xlink:title="orb">
<ellipse fill="#f070d1" stroke="black" cx="159" cy="-142.772" rx="27.1888" ry="18.3848"/>
<ellipse fill="none" stroke="black" cx="159" cy="-142.772" rx="31.1324" ry="22.3848"/>
<ellipse fill="none" stroke="black" cx="159" cy="-142.772" rx="35.0761" ry="26.3848"/>
<text text-anchor="middle" x="159" y="-139.172" font-family="Times Roman,serif" font-size="14.00">orb</text>
</a>
</g>
<!-- Bool_orb&#45;&gt;Bool_true -->
<g id="edge40" class="edge"><title>Bool_orb&#45;&gt;Bool_true</title>
<path fill="none" stroke="black" d="M186.3,-125.648C191.792,-122.308 197.551,-118.881 203,-115.772 238.322,-95.6194 279.643,-74.0136 307.799,-59.5805"/>
<polygon fill="black" stroke="black" points="309.503,-62.6404 316.815,-54.9733 306.317,-56.4071 309.503,-62.6404"/>
</g>
<!-- Bool_orb&#45;&gt;Bool_Bool -->
<g id="edge42" class="edge"><title>Bool_orb&#45;&gt;Bool_Bool</title>
<path fill="none" stroke="black" d="M185.328,-124.926C190.997,-121.57 197.071,-118.319 203,-115.772 244.931,-97.7545 370.103,-67.3696 435.38,-52.1094"/>
<polygon fill="black" stroke="black" points="436.375,-55.4714 445.32,-49.7942 434.787,-48.6539 436.375,-55.4714"/>
</g>
<!-- Bool_andb -->
<g id="node13" class="node"><title>Bool_andb</title>
<a xlink:href="Bool.html#andb" xlink:title="andb">
<ellipse fill="#f070d1" stroke="black" cx="1055" cy="-142.772" rx="34.949" ry="18.3848"/>
<ellipse fill="none" stroke="black" cx="1055" cy="-142.772" rx="38.903" ry="22.3848"/>
<ellipse fill="none" stroke="black" cx="1055" cy="-142.772" rx="42.857" ry="26.3848"/>
<text text-anchor="middle" x="1055" y="-139.172" font-family="Times Roman,serif" font-size="14.00">andb</text>
</a>
</g>
<!-- Bool_andb&#45;&gt;Bool_false -->
<g id="edge44" class="edge"><title>Bool_andb&#45;&gt;Bool_false</title>
<path fill="none" stroke="black" d="M1023.43,-124.679C1016.82,-121.381 1009.8,-118.216 1003,-115.772 899.731,-78.636 771.693,-57.432 706.128,-48.2581"/>
<polygon fill="black" stroke="black" points="706.538,-44.7817 696.155,-46.8884 705.586,-51.7166 706.538,-44.7817"/>
</g>
<!-- Bool_andb&#45;&gt;Bool_Bool -->
<g id="edge46" class="edge"><title>Bool_andb&#45;&gt;Bool_Bool</title>
<path fill="none" stroke="black" d="M1023.84,-124.422C1017.15,-121.102 1009.98,-117.994 1003,-115.772 991.401,-112.079 641.392,-64.9461 518.305,-48.4374"/>
<polygon fill="black" stroke="black" points="518.512,-44.9338 508.135,-47.0738 517.581,-51.8717 518.512,-44.9338"/>
</g>
<!-- Bool_Bool_rec -->
<g id="node14" class="node"><title>Bool_Bool_rec</title>
<a xlink:href="Bool.html#Bool_rec" xlink:title="Bool_rec">
<ellipse fill="#f070d1" stroke="black" cx="805" cy="-252.772" rx="53.033" ry="18.3848"/>
<ellipse fill="none" stroke="black" cx="805" cy="-252.772" rx="57.033" ry="22.3848"/>
<ellipse fill="none" stroke="black" cx="805" cy="-252.772" rx="61.033" ry="26.3848"/>
<text text-anchor="middle" x="805" y="-249.172" font-family="Times Roman,serif" font-size="14.00">Bool_rec</text>
</a>
</g>
<!-- Bool_Bool_rect -->
<g id="node16" class="node"><title>Bool_Bool_rect</title>
<a xlink:href="Bool.html#Bool_rect" xlink:title="Bool_rect">
<ellipse fill="#f070d1" stroke="black" cx="663" cy="-142.772" rx="56.7776" ry="18.3848"/>
<text text-anchor="middle" x="663" y="-139.172" font-family="Times Roman,serif" font-size="14.00">Bool_rect</text>
</a>
</g>
<!-- Bool_Bool_rec&#45;&gt;Bool_Bool_rect -->
<g id="edge48" class="edge"><title>Bool_Bool_rec&#45;&gt;Bool_Bool_rect</title>
<path fill="none" stroke="black" d="M774.885,-229.444C750.853,-210.827 717.34,-184.867 693.268,-166.219"/>
<polygon fill="black" stroke="black" points="695.227,-163.309 685.178,-159.952 690.94,-168.843 695.227,-163.309"/>
</g>
<!-- Bool_Bool_ind -->
<g id="node15" class="node"><title>Bool_Bool_ind</title>
<a xlink:href="Bool.html#Bool_ind" xlink:title="Bool_ind">
<ellipse fill="#7fffd4" stroke="black" cx="665" cy="-252.772" rx="53.033" ry="18.3848"/>
<ellipse fill="none" stroke="black" cx="665" cy="-252.772" rx="57.033" ry="22.3848"/>
<ellipse fill="none" stroke="black" cx="665" cy="-252.772" rx="61.033" ry="26.3848"/>
<text text-anchor="middle" x="665" y="-249.172" font-family="Times Roman,serif" font-size="14.00">Bool_ind</text>
</a>
</g>
<!-- Bool_Bool_ind&#45;&gt;Bool_Bool_rect -->
<g id="edge50" class="edge"><title>Bool_Bool_ind&#45;&gt;Bool_Bool_rect</title>
<path fill="none" stroke="black" d="M664.516,-226.144C664.218,-209.766 663.836,-188.766 663.53,-171.94"/>
<polygon fill="black" stroke="black" points="667.023,-171.511 663.342,-161.576 660.024,-171.638 667.023,-171.511"/>
</g>
<!-- Bool_Bool_rect&#45;&gt;Bool_false -->
<g id="edge52" class="edge"><title>Bool_Bool_rect&#45;&gt;Bool_false</title>
<path fill="none" stroke="black" d="M663,-123.963C663,-109.297 663,-88.6699 663,-71.8772"/>
<polygon fill="black" stroke="black" points="666.5,-71.4968 663,-61.4968 659.5,-71.4969 666.5,-71.4968"/>
</g>
<!-- Bool_Bool_rect&#45;&gt;Bool_true -->
<g id="edge54" class="edge"><title>Bool_Bool_rect&#45;&gt;Bool_true</title>
<path fill="none" stroke="black" d="M628.678,-127.892C618.563,-123.735 607.413,-119.374 597,-115.772 521.406,-89.6213 431.014,-65.4634 380.386,-52.5568"/>
<polygon fill="black" stroke="black" points="381.059,-49.1169 370.506,-50.0524 379.339,-55.9023 381.059,-49.1169"/>
</g>
<!-- Bool_Bool_rect&#45;&gt;Bool_Bool -->
<g id="edge56" class="edge"><title>Bool_Bool_rect&#45;&gt;Bool_Bool</title>
<path fill="none" stroke="black" d="M633.369,-126.927C599.525,-108.828 544.293,-79.2924 509.073,-60.4582"/>
<polygon fill="black" stroke="black" points="510.609,-57.3105 500.14,-55.6811 507.308,-63.4833 510.609,-57.3105"/>
</g>
</g>
</svg>
