<?xml version="1.0" encoding="UTF-8" standalone="no"?>
<!DOCTYPE svg PUBLIC "-//W3C//DTD SVG 1.1//EN"
 "http://www.w3.org/Graphics/SVG/1.1/DTD/svg11.dtd">
<!-- Generated by graphviz version 2.39.20161220.0128 (20161220.0128)
 -->
<!-- Title: HoTT_Categories_Functor_Prod_Core Pages: 1 -->
<svg width="1040pt" height="524pt"
 viewBox="0.00 0.00 1040.00 524.00" xmlns="http://www.w3.org/2000/svg" xmlns:xlink="http://www.w3.org/1999/xlink">
<g id="graph0" class="graph" transform="scale(1 1) rotate(0) translate(4 520)">
<title>HoTT_Categories_Functor_Prod_Core</title>
<polygon fill="#ffffff" stroke="transparent" points="-4,4 -4,-520 1036,-520 1036,4 -4,4"/>
<g id="clust1" class="cluster">
<title>cluster_Core</title>
<polygon fill="#ffffc3" stroke="#000000" points="8,-23.0615 8,-492.9385 1024,-492.9385 1024,-23.0615 8,-23.0615"/>
<text text-anchor="middle" x="29.5" y="-477.7385" font-family="Times,serif" font-size="14.00" fill="#000000">Core</text>
</g>
<!-- Core_induced_snd -->
<g id="node1" class="node">
<title>Core_induced_snd</title>
<g id="a_node1"><a xlink:href="Core.html#induced_snd" xlink:title="induced_snd">
<ellipse fill="#f070d1" stroke="#000000" cx="823" cy="-329.0615" rx="55.46" ry="18"/>
<ellipse fill="none" stroke="#000000" cx="823" cy="-329.0615" rx="59.4756" ry="22"/>
<ellipse fill="none" stroke="#000000" cx="823" cy="-329.0615" rx="63.4911" ry="26"/>
<text text-anchor="middle" x="823" y="-325.3615" font-family="Times,serif" font-size="14.00" fill="#000000">induced_snd</text>
</a>
</g>
</g>
<!-- Core_induced_snd_subproof0 -->
<g id="node2" class="node">
<title>Core_induced_snd_subproof0</title>
<g id="a_node2"><a xlink:href="Core.html#induced_snd_subproof0" xlink:title="induced_snd_subproof0">
<ellipse fill="#facdef" stroke="#000000" cx="721" cy="-98.0615" rx="94.7833" ry="18"/>
<text text-anchor="middle" x="721" y="-94.3615" font-family="Times,serif" font-size="14.00" fill="#000000">induced_snd_subproof0</text>
</a>
</g>
</g>
<!-- Core_induced_snd&#45;&gt;Core_induced_snd_subproof0 -->
<g id="edge1" class="edge">
<title>Core_induced_snd&#45;&gt;Core_induced_snd_subproof0</title>
<path fill="none" stroke="#000000" d="M811.6945,-303.4578C792.3168,-259.5731 752.9309,-170.3756 733.0522,-125.3562"/>
<polygon fill="#000000" stroke="#000000" points="736.2482,-123.9293 729.0071,-116.1952 729.8447,-126.7568 736.2482,-123.9293"/>
</g>
<!-- Core_induced_snd_subproof -->
<g id="node3" class="node">
<title>Core_induced_snd_subproof</title>
<g id="a_node3"><a xlink:href="Core.html#induced_snd_subproof" xlink:title="induced_snd_subproof">
<ellipse fill="#facdef" stroke="#000000" cx="925" cy="-98.0615" rx="90.9839" ry="18"/>
<text text-anchor="middle" x="925" y="-94.3615" font-family="Times,serif" font-size="14.00" fill="#000000">induced_snd_subproof</text>
</a>
</g>
</g>
<!-- Core_induced_snd&#45;&gt;Core_induced_snd_subproof -->
<g id="edge2" class="edge">
<title>Core_induced_snd&#45;&gt;Core_induced_snd_subproof</title>
<path fill="none" stroke="#000000" d="M834.3055,-303.4578C853.6832,-259.5731 893.0691,-170.3756 912.9478,-125.3562"/>
<polygon fill="#000000" stroke="#000000" points="916.1553,-126.7568 916.9929,-116.1952 909.7518,-123.9293 916.1553,-126.7568"/>
</g>
<!-- Core_induced_fst -->
<g id="node4" class="node">
<title>Core_induced_fst</title>
<g id="a_node4"><a xlink:href="Core.html#induced_fst" xlink:title="induced_fst">
<ellipse fill="#f070d1" stroke="#000000" cx="422" cy="-329.0615" rx="51.9914" ry="18"/>
<ellipse fill="none" stroke="#000000" cx="422" cy="-329.0615" rx="55.9911" ry="22"/>
<ellipse fill="none" stroke="#000000" cx="422" cy="-329.0615" rx="59.9908" ry="26"/>
<text text-anchor="middle" x="422" y="-325.3615" font-family="Times,serif" font-size="14.00" fill="#000000">induced_fst</text>
</a>
</g>
</g>
<!-- Core_induced_fst_subproof0 -->
<g id="node5" class="node">
<title>Core_induced_fst_subproof0</title>
<g id="a_node5"><a xlink:href="Core.html#induced_fst_subproof0" xlink:title="induced_fst_subproof0">
<ellipse fill="#facdef" stroke="#000000" cx="324" cy="-98.0615" rx="91.784" ry="18"/>
<text text-anchor="middle" x="324" y="-94.3615" font-family="Times,serif" font-size="14.00" fill="#000000">induced_fst_subproof0</text>
</a>
</g>
</g>
<!-- Core_induced_fst&#45;&gt;Core_induced_fst_subproof0 -->
<g id="edge3" class="edge">
<title>Core_induced_fst&#45;&gt;Core_induced_fst_subproof0</title>
<path fill="none" stroke="#000000" d="M411.1378,-303.4578C392.5591,-259.6651 354.8373,-170.7494 335.7,-125.6399"/>
<polygon fill="#000000" stroke="#000000" points="338.8207,-124.034 331.6931,-116.1952 332.3766,-126.7679 338.8207,-124.034"/>
</g>
<!-- Core_induced_fst_subproof -->
<g id="node6" class="node">
<title>Core_induced_fst_subproof</title>
<g id="a_node6"><a xlink:href="Core.html#induced_fst_subproof" xlink:title="induced_fst_subproof">
<ellipse fill="#facdef" stroke="#000000" cx="521" cy="-98.0615" rx="87.1846" ry="18"/>
<text text-anchor="middle" x="521" y="-94.3615" font-family="Times,serif" font-size="14.00" fill="#000000">induced_fst_subproof</text>
</a>
</g>
</g>
<!-- Core_induced_fst&#45;&gt;Core_induced_fst_subproof -->
<g id="edge4" class="edge">
<title>Core_induced_fst&#45;&gt;Core_induced_fst_subproof</title>
<path fill="none" stroke="#000000" d="M432.973,-303.4578C451.7413,-259.6651 489.848,-170.7494 509.1807,-125.6399"/>
<polygon fill="#000000" stroke="#000000" points="512.5062,-126.7654 513.2284,-116.1952 506.0721,-124.0079 512.5062,-126.7654"/>
</g>
<!-- Core_pair -->
<g id="node7" class="node">
<title>Core_pair</title>
<g id="a_node7"><a xlink:href="Core.html#pair" xlink:title="pair">
<ellipse fill="#f070d1" stroke="#000000" cx="115" cy="-329.0615" rx="27" ry="18"/>
<ellipse fill="none" stroke="#000000" cx="115" cy="-329.0615" rx="31" ry="22"/>
<ellipse fill="none" stroke="#000000" cx="115" cy="-329.0615" rx="35" ry="26"/>
<text text-anchor="middle" x="115" y="-325.3615" font-family="Times,serif" font-size="14.00" fill="#000000">pair</text>
</a>
</g>
</g>
<!-- Core_prod -->
<g id="node8" class="node">
<title>Core_prod</title>
<g id="a_node8"><a xlink:href="Core.html#prod" xlink:title="prod">
<ellipse fill="#f070d1" stroke="#000000" cx="43" cy="-98.0615" rx="27" ry="18"/>
<text text-anchor="middle" x="43" y="-94.3615" font-family="Times,serif" font-size="14.00" fill="#000000">prod</text>
</a>
</g>
</g>
<!-- Core_pair&#45;&gt;Core_prod -->
<g id="edge5" class="edge">
<title>Core_pair&#45;&gt;Core_prod</title>
<path fill="none" stroke="#000000" d="M107.0196,-303.4578C93.3647,-259.6482 65.6345,-170.6805 51.5795,-125.5875"/>
<polygon fill="#000000" stroke="#000000" points="54.8744,-124.3962 48.5572,-115.8907 48.1915,-126.4792 54.8744,-124.3962"/>
</g>
<!-- Core_snd -->
<g id="node9" class="node">
<title>Core_snd</title>
<g id="a_node9"><a xlink:href="Core.html#snd" xlink:title="snd">
<ellipse fill="#f070d1" stroke="#000000" cx="115" cy="-98.0615" rx="27" ry="18"/>
<text text-anchor="middle" x="115" y="-94.3615" font-family="Times,serif" font-size="14.00" fill="#000000">snd</text>
</a>
</g>
</g>
<!-- Core_pair&#45;&gt;Core_snd -->
<g id="edge6" class="edge">
<title>Core_pair&#45;&gt;Core_snd</title>
<path fill="none" stroke="#000000" d="M115,-303.0118C115,-259.3008 115,-171.5485 115,-126.37"/>
<polygon fill="#000000" stroke="#000000" points="118.5001,-126.1117 115,-116.1117 111.5001,-126.1117 118.5001,-126.1117"/>
</g>
<!-- Core_fst -->
<g id="node10" class="node">
<title>Core_fst</title>
<g id="a_node10"><a xlink:href="Core.html#fst" xlink:title="fst">
<ellipse fill="#f070d1" stroke="#000000" cx="187" cy="-98.0615" rx="27" ry="18"/>
<text text-anchor="middle" x="187" y="-94.3615" font-family="Times,serif" font-size="14.00" fill="#000000">fst</text>
</a>
</g>
</g>
<!-- Core_pair&#45;&gt;Core_fst -->
<g id="edge7" class="edge">
<title>Core_pair&#45;&gt;Core_fst</title>
<path fill="none" stroke="#000000" d="M122.9804,-303.4578C136.6353,-259.6482 164.3655,-170.6805 178.4205,-125.5875"/>
<polygon fill="#000000" stroke="#000000" points="181.8085,-126.4792 181.4428,-115.8907 175.1256,-124.3962 181.8085,-126.4792"/>
</g>
</g>
</svg>
