<?xml version="1.0" encoding="UTF-8" standalone="no"?>
<!DOCTYPE svg PUBLIC "-//W3C//DTD SVG 1.1//EN"
 "http://www.w3.org/Graphics/SVG/1.1/DTD/svg11.dtd">
<!-- Generated by graphviz version 2.39.20141222.0545 (20141222.0545)
 -->
<!-- Title: HoTT_categories_Functor_Pointwise Pages: 1 -->
<svg width="5591pt" height="2800pt"
 viewBox="0.00 0.00 5591.00 2799.50" xmlns="http://www.w3.org/2000/svg" xmlns:xlink="http://www.w3.org/1999/xlink">
<g id="graph0" class="graph" transform="scale(1 1) rotate(0) translate(4 2795.5)">
<title>HoTT_categories_Functor_Pointwise</title>
<polygon fill="white" stroke="transparent" points="-4,4 -4,-2795.5 5587,-2795.5 5587,4 -4,4"/>
<g id="clust1" class="cluster"><title>cluster_Pointwise</title>
<polygon fill="#ffffc3" stroke="black" points="2600,-1031.5 2600,-2739.92 5575,-2739.92 5575,-1031.5 2600,-1031.5"/>
<text text-anchor="middle" x="2635" y="-2724.72" font-family="Times,serif" font-size="14.00">Pointwise</text>
</g>
<g id="clust2" class="cluster"><title>cluster_Core</title>
<polygon fill="#ffffc3" stroke="black" points="1192,-51.5751 1192,-1566.59 2592,-1566.59 2592,-51.5751 1192,-51.5751"/>
<text text-anchor="middle" x="1213.5" y="-1551.39" font-family="Times,serif" font-size="14.00">Core</text>
</g>
<g id="clust3" class="cluster"><title>cluster_Properties</title>
<polygon fill="#ffffc3" stroke="black" points="8,-515.751 8,-2153.26 1114,-2153.26 1114,-515.751 8,-515.751"/>
<text text-anchor="middle" x="43.5" y="-2138.06" font-family="Times,serif" font-size="14.00">Properties</text>
</g>
<!-- Properties_composition_of -->
<g id="node1" class="node"><title>Properties_composition_of</title>
<g id="a_node1"><a xlink:href="Properties.html#composition_of" xlink:title="composition_of">
<ellipse fill="#f070d1" stroke="black" cx="976" cy="-1785.58" rx="66.1109" ry="18"/>
<ellipse fill="none" stroke="black" cx="976" cy="-1785.58" rx="70.0999" ry="22"/>
<ellipse fill="none" stroke="black" cx="976" cy="-1785.58" rx="74.0888" ry="26"/>
<text text-anchor="middle" x="976" y="-1781.88" font-family="Times,serif" font-size="14.00">composition_of</text>
</a>
</g>
</g>
<!-- Properties_composition_of_subproof -->
<g id="node2" class="node"><title>Properties_composition_of_subproof</title>
<g id="a_node2"><a xlink:href="Properties.html#composition_of_subproof" xlink:title="composition_of_subproof">
<ellipse fill="#facdef" stroke="black" cx="976" cy="-1199.58" rx="102.082" ry="18"/>
<text text-anchor="middle" x="976" y="-1195.88" font-family="Times,serif" font-size="14.00">composition_of_subproof</text>
</a>
</g>
</g>
<!-- Properties_composition_of&#45;&gt;Properties_composition_of_subproof -->
<g id="edge1" class="edge"><title>Properties_composition_of&#45;&gt;Properties_composition_of_subproof</title>
<path fill="none" stroke="black" d="M976,-1759.26C976,-1662.66 976,-1328.07 976,-1228.04"/>
<polygon fill="black" stroke="black" points="979.5,-1227.8 976,-1217.8 972.5,-1227.8 979.5,-1227.8"/>
</g>
<!-- Properties_composition_of_helper -->
<g id="node3" class="node"><title>Properties_composition_of_helper</title>
<g id="a_node3"><a xlink:href="Properties.html#composition_of_helper" xlink:title="composition_of_helper">
<ellipse fill="#f070d1" stroke="black" cx="733" cy="-1199.58" rx="92.8835" ry="18"/>
<text text-anchor="middle" x="733" y="-1195.88" font-family="Times,serif" font-size="14.00">composition_of_helper</text>
</a>
</g>
</g>
<!-- Properties_composition_of&#45;&gt;Properties_composition_of_helper -->
<g id="edge2" class="edge"><title>Properties_composition_of&#45;&gt;Properties_composition_of_helper</title>
<path fill="none" stroke="black" d="M965.245,-1759.64C925.24,-1663.17 785.236,-1325.54 744.314,-1226.86"/>
<polygon fill="black" stroke="black" points="747.52,-1225.45 740.457,-1217.56 741.054,-1228.13 747.52,-1225.45"/>
</g>
<!-- Core_pointwise -->
<g id="node39" class="node"><title>Core_pointwise</title>
<g id="a_node39"><a xlink:href="Core.html#pointwise" xlink:title="pointwise">
<ellipse fill="#f070d1" stroke="black" cx="1373" cy="-1199.58" rx="44.6926" ry="18"/>
<text text-anchor="middle" x="1373" y="-1195.88" font-family="Times,serif" font-size="14.00">pointwise</text>
</a>
</g>
</g>
<!-- Properties_composition_of&#45;&gt;Core_pointwise -->
<g id="edge3" class="edge"><title>Properties_composition_of&#45;&gt;Core_pointwise</title>
<path fill="none" stroke="black" d="M993.314,-1760.02C1058.66,-1663.57 1289.9,-1322.24 1355.52,-1225.38"/>
<polygon fill="black" stroke="black" points="1358.46,-1227.28 1361.17,-1217.04 1352.66,-1223.35 1358.46,-1227.28"/>
</g>
<!-- Properties_composition_of_helper_helper_object_of -->
<g id="node4" class="node"><title>Properties_composition_of_helper_helper_object_of</title>
<g id="a_node4"><a xlink:href="Properties.html#composition_of_helper_helper_object_of" xlink:title="composition_of_helper_helper_object_of">
<ellipse fill="#f070d1" stroke="black" cx="949" cy="-683.575" rx="156.772" ry="18"/>
<text text-anchor="middle" x="949" y="-679.875" font-family="Times,serif" font-size="14.00">composition_of_helper_helper_object_of</text>
</a>
</g>
</g>
<!-- Properties_composition_of_subproof&#45;&gt;Properties_composition_of_helper_helper_object_of -->
<g id="edge4" class="edge"><title>Properties_composition_of_subproof&#45;&gt;Properties_composition_of_helper_helper_object_of</title>
<path fill="none" stroke="black" d="M975.055,-1181.51C971.042,-1104.82 955.394,-805.764 950.483,-711.914"/>
<polygon fill="black" stroke="black" points="953.969,-711.561 949.951,-701.758 946.979,-711.927 953.969,-711.561"/>
</g>
<!-- Properties_composition_of_helper_helper -->
<g id="node5" class="node"><title>Properties_composition_of_helper_helper</title>
<g id="a_node5"><a xlink:href="Properties.html#composition_of_helper_helper" xlink:title="composition_of_helper_helper">
<ellipse fill="#f070d1" stroke="black" cx="655" cy="-683.575" rx="118.879" ry="18"/>
<text text-anchor="middle" x="655" y="-679.875" font-family="Times,serif" font-size="14.00">composition_of_helper_helper</text>
</a>
</g>
</g>
<!-- Properties_composition_of_subproof&#45;&gt;Properties_composition_of_helper_helper -->
<g id="edge5" class="edge"><title>Properties_composition_of_subproof&#45;&gt;Properties_composition_of_helper_helper</title>
<path fill="none" stroke="black" d="M964.764,-1181.51C916.809,-1104.43 729.121,-802.722 671.75,-710.501"/>
<polygon fill="black" stroke="black" points="674.566,-708.4 666.312,-701.758 668.622,-712.098 674.566,-708.4"/>
</g>
<!-- Core_pointwise_morphism_of -->
<g id="node44" class="node"><title>Core_pointwise_morphism_of</title>
<g id="a_node44"><a xlink:href="Core.html#pointwise_morphism_of" xlink:title="pointwise_morphism_of">
<ellipse fill="#f070d1" stroke="black" cx="1297" cy="-219.575" rx="97.4827" ry="18"/>
<text text-anchor="middle" x="1297" y="-215.875" font-family="Times,serif" font-size="14.00">pointwise_morphism_of</text>
</a>
</g>
</g>
<!-- Properties_composition_of_subproof&#45;&gt;Core_pointwise_morphism_of -->
<g id="edge6" class="edge"><title>Properties_composition_of_subproof&#45;&gt;Core_pointwise_morphism_of</title>
<path fill="none" stroke="black" d="M982.462,-1181.56C1005.61,-1116.88 1086.28,-890.225 1148,-701.575 1204.2,-529.796 1266.61,-321.774 1288.7,-247.548"/>
<polygon fill="black" stroke="black" points="1292.17,-248.17 1291.66,-237.587 1285.46,-246.175 1292.17,-248.17"/>
</g>
<!-- Properties_composition_of_helper&#45;&gt;Properties_composition_of_helper_helper -->
<g id="edge7" class="edge"><title>Properties_composition_of_helper&#45;&gt;Properties_composition_of_helper_helper</title>
<path fill="none" stroke="black" d="M730.27,-1181.51C718.676,-1104.82 673.47,-805.764 659.284,-711.914"/>
<polygon fill="black" stroke="black" points="662.704,-711.123 657.749,-701.758 655.783,-712.169 662.704,-711.123"/>
</g>
<!-- Properties_identity_of -->
<g id="node6" class="node"><title>Properties_identity_of</title>
<g id="a_node6"><a xlink:href="Properties.html#identity_of" xlink:title="identity_of">
<ellipse fill="#f070d1" stroke="black" cx="476" cy="-1785.58" rx="49.3059" ry="18"/>
<ellipse fill="none" stroke="black" cx="476" cy="-1785.58" rx="53.2987" ry="22"/>
<ellipse fill="none" stroke="black" cx="476" cy="-1785.58" rx="57.2914" ry="26"/>
<text text-anchor="middle" x="476" y="-1781.88" font-family="Times,serif" font-size="14.00">identity_of</text>
</a>
</g>
</g>
<!-- Properties_identity_of_subproof -->
<g id="node7" class="node"><title>Properties_identity_of_subproof</title>
<g id="a_node7"><a xlink:href="Properties.html#identity_of_subproof" xlink:title="identity_of_subproof">
<ellipse fill="#facdef" stroke="black" cx="476" cy="-1199.58" rx="85.2851" ry="18"/>
<text text-anchor="middle" x="476" y="-1195.88" font-family="Times,serif" font-size="14.00">identity_of_subproof</text>
</a>
</g>
</g>
<!-- Properties_identity_of&#45;&gt;Properties_identity_of_subproof -->
<g id="edge8" class="edge"><title>Properties_identity_of&#45;&gt;Properties_identity_of_subproof</title>
<path fill="none" stroke="black" d="M476,-1759.26C476,-1662.66 476,-1328.07 476,-1228.04"/>
<polygon fill="black" stroke="black" points="479.5,-1227.8 476,-1217.8 472.5,-1227.8 479.5,-1227.8"/>
</g>
<!-- Properties_identity_of_helper -->
<g id="node8" class="node"><title>Properties_identity_of_helper</title>
<g id="a_node8"><a xlink:href="Properties.html#identity_of_helper" xlink:title="identity_of_helper">
<ellipse fill="#f070d1" stroke="black" cx="176" cy="-1199.58" rx="75.2868" ry="18"/>
<text text-anchor="middle" x="176" y="-1195.88" font-family="Times,serif" font-size="14.00">identity_of_helper</text>
</a>
</g>
</g>
<!-- Properties_identity_of&#45;&gt;Properties_identity_of_helper -->
<g id="edge9" class="edge"><title>Properties_identity_of&#45;&gt;Properties_identity_of_helper</title>
<path fill="none" stroke="black" d="M462.916,-1760.02C413.748,-1663.98 240.273,-1325.12 189.845,-1226.62"/>
<polygon fill="black" stroke="black" points="192.898,-1224.9 185.225,-1217.6 186.667,-1228.09 192.898,-1224.9"/>
</g>
<!-- Properties_identity_of&#45;&gt;Core_pointwise -->
<g id="edge10" class="edge"><title>Properties_identity_of&#45;&gt;Core_pointwise</title>
<path fill="none" stroke="black" d="M508.721,-1764.2C649.312,-1672.35 1201.27,-1311.76 1340.81,-1220.6"/>
<polygon fill="black" stroke="black" points="1342.94,-1223.39 1349.4,-1214.99 1339.11,-1217.53 1342.94,-1223.39"/>
</g>
<!-- Properties_identity_of_helper_helper_object_of -->
<g id="node9" class="node"><title>Properties_identity_of_helper_helper_object_of</title>
<g id="a_node9"><a xlink:href="Properties.html#identity_of_helper_helper_object_of" xlink:title="identity_of_helper_helper_object_of">
<ellipse fill="#f070d1" stroke="black" cx="378" cy="-683.575" rx="139.976" ry="18"/>
<text text-anchor="middle" x="378" y="-679.875" font-family="Times,serif" font-size="14.00">identity_of_helper_helper_object_of</text>
</a>
</g>
</g>
<!-- Properties_identity_of_subproof&#45;&gt;Properties_identity_of_helper_helper_object_of -->
<g id="edge11" class="edge"><title>Properties_identity_of_subproof&#45;&gt;Properties_identity_of_helper_helper_object_of</title>
<path fill="none" stroke="black" d="M472.57,-1181.51C457.988,-1104.74 401.091,-805.157 383.328,-711.629"/>
<polygon fill="black" stroke="black" points="386.758,-710.929 381.453,-701.758 379.881,-712.236 386.758,-710.929"/>
</g>
<!-- Properties_identity_of_helper_helper -->
<g id="node10" class="node"><title>Properties_identity_of_helper_helper</title>
<g id="a_node10"><a xlink:href="Properties.html#identity_of_helper_helper" xlink:title="identity_of_helper_helper">
<ellipse fill="#f070d1" stroke="black" cx="118" cy="-683.575" rx="102.082" ry="18"/>
<text text-anchor="middle" x="118" y="-679.875" font-family="Times,serif" font-size="14.00">identity_of_helper_helper</text>
</a>
</g>
</g>
<!-- Properties_identity_of_subproof&#45;&gt;Properties_identity_of_helper_helper -->
<g id="edge12" class="edge"><title>Properties_identity_of_subproof&#45;&gt;Properties_identity_of_helper_helper</title>
<path fill="none" stroke="black" d="M463.469,-1181.51C409.872,-1104.26 199.772,-801.436 136.274,-709.914"/>
<polygon fill="black" stroke="black" points="139.006,-707.712 130.43,-701.491 133.255,-711.702 139.006,-707.712"/>
</g>
<!-- Properties_identity_of_subproof&#45;&gt;Core_pointwise_morphism_of -->
<g id="edge13" class="edge"><title>Properties_identity_of_subproof&#45;&gt;Core_pointwise_morphism_of</title>
<path fill="none" stroke="black" d="M508.624,-1182.75C612.183,-1127.79 937.107,-943.06 1115,-701.575 1225.46,-551.632 1276.63,-326.76 1291.89,-248.023"/>
<polygon fill="black" stroke="black" points="1295.38,-248.382 1293.8,-237.905 1288.5,-247.079 1295.38,-248.382"/>
</g>
<!-- Properties_identity_of_helper&#45;&gt;Properties_identity_of_helper_helper -->
<g id="edge14" class="edge"><title>Properties_identity_of_helper&#45;&gt;Properties_identity_of_helper_helper</title>
<path fill="none" stroke="black" d="M173.97,-1181.51C165.349,-1104.82 131.734,-805.764 121.185,-711.914"/>
<polygon fill="black" stroke="black" points="124.639,-711.305 120.044,-701.758 117.683,-712.086 124.639,-711.305"/>
</g>
<!-- Pointwise_composition_of -->
<g id="node11" class="node"><title>Pointwise_composition_of</title>
<g id="a_node11"><a xlink:href="Pointwise.html#composition_of" xlink:title="composition_of">
<ellipse fill="#f070d1" stroke="black" cx="3067" cy="-2372.58" rx="66.1109" ry="18"/>
<ellipse fill="none" stroke="black" cx="3067" cy="-2372.58" rx="70.0999" ry="22"/>
<ellipse fill="none" stroke="black" cx="3067" cy="-2372.58" rx="74.0888" ry="26"/>
<text text-anchor="middle" x="3067" y="-2368.88" font-family="Times,serif" font-size="14.00">composition_of</text>
</a>
</g>
</g>
<!-- Pointwise_composition_of_subproof -->
<g id="node12" class="node"><title>Pointwise_composition_of_subproof</title>
<g id="a_node12"><a xlink:href="Pointwise.html#composition_of_subproof" xlink:title="composition_of_subproof">
<ellipse fill="#f070d1" stroke="black" cx="3067" cy="-1785.58" rx="102.082" ry="18"/>
<text text-anchor="middle" x="3067" y="-1781.88" font-family="Times,serif" font-size="14.00">composition_of_subproof</text>
</a>
</g>
</g>
<!-- Pointwise_composition_of&#45;&gt;Pointwise_composition_of_subproof -->
<g id="edge15" class="edge"><title>Pointwise_composition_of&#45;&gt;Pointwise_composition_of_subproof</title>
<path fill="none" stroke="black" d="M3067,-2346.21C3067,-2249.45 3067,-1914.28 3067,-1814.08"/>
<polygon fill="black" stroke="black" points="3070.5,-1813.83 3067,-1803.83 3063.5,-1813.83 3070.5,-1813.83"/>
</g>
<!-- Pointwise_composition_of_helper -->
<g id="node13" class="node"><title>Pointwise_composition_of_helper</title>
<g id="a_node13"><a xlink:href="Pointwise.html#composition_of_helper" xlink:title="composition_of_helper">
<ellipse fill="#f070d1" stroke="black" cx="3280" cy="-1785.58" rx="92.8835" ry="18"/>
<text text-anchor="middle" x="3280" y="-1781.88" font-family="Times,serif" font-size="14.00">composition_of_helper</text>
</a>
</g>
</g>
<!-- Pointwise_composition_of&#45;&gt;Pointwise_composition_of_helper -->
<g id="edge16" class="edge"><title>Pointwise_composition_of&#45;&gt;Pointwise_composition_of_helper</title>
<path fill="none" stroke="black" d="M3076.43,-2346.59C3111.46,-2250.05 3233.96,-1912.44 3269.97,-1813.21"/>
<polygon fill="black" stroke="black" points="3273.34,-1814.18 3273.46,-1803.59 3266.76,-1811.79 3273.34,-1814.18"/>
</g>
<!-- Pointwise_composition_of&#45;&gt;Core_pointwise -->
<g id="edge17" class="edge"><title>Pointwise_composition_of&#45;&gt;Core_pointwise</title>
<path fill="none" stroke="black" d="M3033.16,-2349.14C2815.37,-2198.34 1613.51,-1366.11 1404.12,-1221.12"/>
<polygon fill="black" stroke="black" points="1405.93,-1218.12 1395.71,-1215.3 1401.94,-1223.87 1405.93,-1218.12"/>
</g>
<!-- Pointwise_composition_of_subproof&#45;&gt;Properties_composition_of_subproof -->
<g id="edge18" class="edge"><title>Pointwise_composition_of_subproof&#45;&gt;Properties_composition_of_subproof</title>
<path fill="none" stroke="black" d="M3012.41,-1770.28C2721.52,-1688.75 1355.15,-1305.83 1040.66,-1217.7"/>
<polygon fill="black" stroke="black" points="1041.36,-1214.26 1030.79,-1214.93 1039.48,-1221 1041.36,-1214.26"/>
</g>
<!-- Pointwise_composition_of_helper_helper -->
<g id="node15" class="node"><title>Pointwise_composition_of_helper_helper</title>
<g id="a_node15"><a xlink:href="Pointwise.html#composition_of_helper_helper" xlink:title="composition_of_helper_helper">
<ellipse fill="#f070d1" stroke="black" cx="3280" cy="-1199.58" rx="118.879" ry="18"/>
<text text-anchor="middle" x="3280" y="-1195.88" font-family="Times,serif" font-size="14.00">composition_of_helper_helper</text>
</a>
</g>
</g>
<!-- Pointwise_composition_of_helper&#45;&gt;Pointwise_composition_of_helper_helper -->
<g id="edge19" class="edge"><title>Pointwise_composition_of_helper&#45;&gt;Pointwise_composition_of_helper_helper</title>
<path fill="none" stroke="black" d="M3280,-1767.39C3280,-1683.24 3280,-1331.23 3280,-1228.09"/>
<polygon fill="black" stroke="black" points="3283.5,-1227.83 3280,-1217.83 3276.5,-1227.83 3283.5,-1227.83"/>
</g>
<!-- Pointwise_composition_of_helper_helper_object_of -->
<g id="node14" class="node"><title>Pointwise_composition_of_helper_helper_object_of</title>
<g id="a_node14"><a xlink:href="Pointwise.html#composition_of_helper_helper_object_of" xlink:title="composition_of_helper_helper_object_of">
<ellipse fill="#f070d1" stroke="black" cx="4766" cy="-2372.58" rx="156.766" ry="18"/>
<ellipse fill="none" stroke="black" cx="4766" cy="-2372.58" rx="160.769" ry="22"/>
<ellipse fill="none" stroke="black" cx="4766" cy="-2372.58" rx="164.772" ry="26"/>
<text text-anchor="middle" x="4766" y="-2368.88" font-family="Times,serif" font-size="14.00">composition_of_helper_helper_object_of</text>
</a>
</g>
</g>
<!-- Pointwise_identity_of -->
<g id="node16" class="node"><title>Pointwise_identity_of</title>
<g id="a_node16"><a xlink:href="Pointwise.html#identity_of" xlink:title="identity_of">
<ellipse fill="#f070d1" stroke="black" cx="2693" cy="-2372.58" rx="49.3059" ry="18"/>
<ellipse fill="none" stroke="black" cx="2693" cy="-2372.58" rx="53.2987" ry="22"/>
<ellipse fill="none" stroke="black" cx="2693" cy="-2372.58" rx="57.2914" ry="26"/>
<text text-anchor="middle" x="2693" y="-2368.88" font-family="Times,serif" font-size="14.00">identity_of</text>
</a>
</g>
</g>
<!-- Pointwise_identity_of_subproof -->
<g id="node17" class="node"><title>Pointwise_identity_of_subproof</title>
<g id="a_node17"><a xlink:href="Pointwise.html#identity_of_subproof" xlink:title="identity_of_subproof">
<ellipse fill="#f070d1" stroke="black" cx="2693" cy="-1785.58" rx="85.2851" ry="18"/>
<text text-anchor="middle" x="2693" y="-1781.88" font-family="Times,serif" font-size="14.00">identity_of_subproof</text>
</a>
</g>
</g>
<!-- Pointwise_identity_of&#45;&gt;Pointwise_identity_of_subproof -->
<g id="edge20" class="edge"><title>Pointwise_identity_of&#45;&gt;Pointwise_identity_of_subproof</title>
<path fill="none" stroke="black" d="M2693,-2346.21C2693,-2249.45 2693,-1914.28 2693,-1814.08"/>
<polygon fill="black" stroke="black" points="2696.5,-1813.83 2693,-1803.83 2689.5,-1813.83 2696.5,-1813.83"/>
</g>
<!-- Pointwise_identity_of_helper -->
<g id="node18" class="node"><title>Pointwise_identity_of_helper</title>
<g id="a_node18"><a xlink:href="Pointwise.html#identity_of_helper" xlink:title="identity_of_helper">
<ellipse fill="#f070d1" stroke="black" cx="2872" cy="-1785.58" rx="75.2868" ry="18"/>
<text text-anchor="middle" x="2872" y="-1781.88" font-family="Times,serif" font-size="14.00">identity_of_helper</text>
</a>
</g>
</g>
<!-- Pointwise_identity_of&#45;&gt;Pointwise_identity_of_helper -->
<g id="edge21" class="edge"><title>Pointwise_identity_of&#45;&gt;Pointwise_identity_of_helper</title>
<path fill="none" stroke="black" d="M2700.92,-2346.59C2730.36,-2250.05 2833.31,-1912.44 2863.57,-1813.21"/>
<polygon fill="black" stroke="black" points="2866.94,-1814.17 2866.51,-1803.59 2860.24,-1812.13 2866.94,-1814.17"/>
</g>
<!-- Pointwise_identity_of&#45;&gt;Core_pointwise -->
<g id="edge22" class="edge"><title>Pointwise_identity_of&#45;&gt;Core_pointwise</title>
<path fill="none" stroke="black" d="M2666.93,-2349.41C2498.81,-2200.01 1569.23,-1373.96 1399.58,-1223.2"/>
<polygon fill="black" stroke="black" points="1401.66,-1220.37 1391.86,-1216.34 1397.01,-1225.6 1401.66,-1220.37"/>
</g>
<!-- Pointwise_identity_of_subproof&#45;&gt;Properties_identity_of_subproof -->
<g id="edge23" class="edge"><title>Pointwise_identity_of_subproof&#45;&gt;Properties_identity_of_subproof</title>
<path fill="none" stroke="black" d="M2633.33,-1772.6C2385.35,-1718.18 1412.63,-1499.87 631,-1256.58 595.305,-1245.46 555.761,-1230.88 525.549,-1219.25"/>
<polygon fill="black" stroke="black" points="526.674,-1215.93 516.085,-1215.59 524.146,-1222.46 526.674,-1215.93"/>
</g>
<!-- Pointwise_identity_of_helper_helper -->
<g id="node20" class="node"><title>Pointwise_identity_of_helper_helper</title>
<g id="a_node20"><a xlink:href="Pointwise.html#identity_of_helper_helper" xlink:title="identity_of_helper_helper">
<ellipse fill="#f070d1" stroke="black" cx="2872" cy="-1199.58" rx="102.082" ry="18"/>
<text text-anchor="middle" x="2872" y="-1195.88" font-family="Times,serif" font-size="14.00">identity_of_helper_helper</text>
</a>
</g>
</g>
<!-- Pointwise_identity_of_helper&#45;&gt;Pointwise_identity_of_helper_helper -->
<g id="edge24" class="edge"><title>Pointwise_identity_of_helper&#45;&gt;Pointwise_identity_of_helper_helper</title>
<path fill="none" stroke="black" d="M2872,-1767.39C2872,-1683.24 2872,-1331.23 2872,-1228.09"/>
<polygon fill="black" stroke="black" points="2875.5,-1227.83 2872,-1217.83 2868.5,-1227.83 2875.5,-1227.83"/>
</g>
<!-- Pointwise_identity_of_helper_helper_object_of -->
<g id="node19" class="node"><title>Pointwise_identity_of_helper_helper_object_of</title>
<g id="a_node19"><a xlink:href="Pointwise.html#identity_of_helper_helper_object_of" xlink:title="identity_of_helper_helper_object_of">
<ellipse fill="#f070d1" stroke="black" cx="3999" cy="-2372.58" rx="139.963" ry="18"/>
<ellipse fill="none" stroke="black" cx="3999" cy="-2372.58" rx="143.969" ry="22"/>
<ellipse fill="none" stroke="black" cx="3999" cy="-2372.58" rx="147.976" ry="26"/>
<text text-anchor="middle" x="3999" y="-2368.88" font-family="Times,serif" font-size="14.00">identity_of_helper_helper_object_of</text>
</a>
</g>
</g>
<!-- Pointwise_pointwise_whiskerR -->
<g id="node21" class="node"><title>Pointwise_pointwise_whiskerR</title>
<g id="a_node21"><a xlink:href="Pointwise.html#pointwise_whiskerR" xlink:title="pointwise_whiskerR">
<ellipse fill="#f070d1" stroke="black" cx="5154" cy="-2372.58" rx="83.3687" ry="18"/>
<ellipse fill="none" stroke="black" cx="5154" cy="-2372.58" rx="87.3772" ry="22"/>
<ellipse fill="none" stroke="black" cx="5154" cy="-2372.58" rx="91.3856" ry="26"/>
<text text-anchor="middle" x="5154" y="-2368.88" font-family="Times,serif" font-size="14.00">pointwise_whiskerR</text>
</a>
</g>
</g>
<!-- Pointwise_pointwise_whiskerR_subproof0 -->
<g id="node22" class="node"><title>Pointwise_pointwise_whiskerR_subproof0</title>
<g id="a_node22"><a xlink:href="Pointwise.html#pointwise_whiskerR_subproof0" xlink:title="pointwise_whiskerR_subproof0">
<ellipse fill="#f070d1" stroke="black" cx="5154" cy="-1785.58" rx="122.678" ry="18"/>
<text text-anchor="middle" x="5154" y="-1781.88" font-family="Times,serif" font-size="14.00">pointwise_whiskerR_subproof0</text>
</a>
</g>
</g>
<!-- Pointwise_pointwise_whiskerR&#45;&gt;Pointwise_pointwise_whiskerR_subproof0 -->
<g id="edge25" class="edge"><title>Pointwise_pointwise_whiskerR&#45;&gt;Pointwise_pointwise_whiskerR_subproof0</title>
<path fill="none" stroke="black" d="M5154,-2346.21C5154,-2249.45 5154,-1914.28 5154,-1814.08"/>
<polygon fill="black" stroke="black" points="5157.5,-1813.83 5154,-1803.83 5150.5,-1813.83 5157.5,-1813.83"/>
</g>
<!-- Pointwise_pointwise_whiskerR_subproof -->
<g id="node23" class="node"><title>Pointwise_pointwise_whiskerR_subproof</title>
<g id="a_node23"><a xlink:href="Pointwise.html#pointwise_whiskerR_subproof" xlink:title="pointwise_whiskerR_subproof">
<ellipse fill="#f070d1" stroke="black" cx="4895" cy="-1785.58" rx="118.079" ry="18"/>
<text text-anchor="middle" x="4895" y="-1781.88" font-family="Times,serif" font-size="14.00">pointwise_whiskerR_subproof</text>
</a>
</g>
</g>
<!-- Pointwise_pointwise_whiskerR&#45;&gt;Pointwise_pointwise_whiskerR_subproof -->
<g id="edge26" class="edge"><title>Pointwise_pointwise_whiskerR&#45;&gt;Pointwise_pointwise_whiskerR_subproof</title>
<path fill="none" stroke="black" d="M5142.54,-2346.59C5099.9,-2249.96 4950.68,-1911.76 4907.06,-1812.91"/>
<polygon fill="black" stroke="black" points="4910.19,-1811.32 4902.95,-1803.59 4903.78,-1814.15 4910.19,-1811.32"/>
</g>
<!-- Pointwise_pointwise_whiskerR_morphism_of -->
<g id="node30" class="node"><title>Pointwise_pointwise_whiskerR_morphism_of</title>
<g id="a_node30"><a xlink:href="Pointwise.html#pointwise_whiskerR_morphism_of" xlink:title="pointwise_whiskerR_morphism_of">
<ellipse fill="#f070d1" stroke="black" cx="5431" cy="-1785.58" rx="135.676" ry="18"/>
<text text-anchor="middle" x="5431" y="-1781.88" font-family="Times,serif" font-size="14.00">pointwise_whiskerR_morphism_of</text>
</a>
</g>
</g>
<!-- Pointwise_pointwise_whiskerR&#45;&gt;Pointwise_pointwise_whiskerR_morphism_of -->
<g id="edge27" class="edge"><title>Pointwise_pointwise_whiskerR&#45;&gt;Pointwise_pointwise_whiskerR_morphism_of</title>
<path fill="none" stroke="black" d="M5166.26,-2346.59C5211.86,-2249.96 5371.46,-1911.76 5418.1,-1812.91"/>
<polygon fill="black" stroke="black" points="5421.4,-1814.12 5422.5,-1803.59 5415.07,-1811.14 5421.4,-1814.12"/>
</g>
<!-- Core_pointwise_whiskerR_subproof0 -->
<g id="node34" class="node"><title>Core_pointwise_whiskerR_subproof0</title>
<g id="a_node34"><a xlink:href="Core.html#pointwise_whiskerR_subproof0" xlink:title="pointwise_whiskerR_subproof0">
<ellipse fill="#facdef" stroke="black" cx="2461" cy="-683.575" rx="122.678" ry="18"/>
<text text-anchor="middle" x="2461" y="-679.875" font-family="Times,serif" font-size="14.00">pointwise_whiskerR_subproof0</text>
</a>
</g>
</g>
<!-- Pointwise_pointwise_whiskerR_subproof0&#45;&gt;Core_pointwise_whiskerR_subproof0 -->
<g id="edge28" class="edge"><title>Pointwise_pointwise_whiskerR_subproof0&#45;&gt;Core_pointwise_whiskerR_subproof0</title>
<path fill="none" stroke="black" d="M5140.58,-1767.58C5077.97,-1685 4804.58,-1339.25 4496,-1173.58 3833.71,-817.984 2913.04,-717.122 2583.96,-691.502"/>
<polygon fill="black" stroke="black" points="2584.17,-688.007 2573.93,-690.729 2583.63,-694.986 2584.17,-688.007"/>
</g>
<!-- Core_pointwise_whiskerR_subproof -->
<g id="node35" class="node"><title>Core_pointwise_whiskerR_subproof</title>
<g id="a_node35"><a xlink:href="Core.html#pointwise_whiskerR_subproof" xlink:title="pointwise_whiskerR_subproof">
<ellipse fill="#facdef" stroke="black" cx="2202" cy="-683.575" rx="118.079" ry="18"/>
<text text-anchor="middle" x="2202" y="-679.875" font-family="Times,serif" font-size="14.00">pointwise_whiskerR_subproof</text>
</a>
</g>
</g>
<!-- Pointwise_pointwise_whiskerR_subproof&#45;&gt;Core_pointwise_whiskerR_subproof -->
<g id="edge29" class="edge"><title>Pointwise_pointwise_whiskerR_subproof&#45;&gt;Core_pointwise_whiskerR_subproof</title>
<path fill="none" stroke="black" d="M4876.06,-1767.71C4788.82,-1686.43 4414.28,-1347.92 4046,-1173.58 3716.48,-1017.58 2590.26,-767.564 2281.08,-700.556"/>
<polygon fill="black" stroke="black" points="2281.37,-697.039 2270.86,-698.344 2279.89,-703.881 2281.37,-697.039"/>
</g>
<!-- Pointwise_pointwise_whiskerL -->
<g id="node24" class="node"><title>Pointwise_pointwise_whiskerL</title>
<g id="a_node24"><a xlink:href="Pointwise.html#pointwise_whiskerL" xlink:title="pointwise_whiskerL">
<ellipse fill="#f070d1" stroke="black" cx="4379" cy="-2372.58" rx="82.5816" ry="18"/>
<ellipse fill="none" stroke="black" cx="4379" cy="-2372.58" rx="86.5835" ry="22"/>
<ellipse fill="none" stroke="black" cx="4379" cy="-2372.58" rx="90.5854" ry="26"/>
<text text-anchor="middle" x="4379" y="-2368.88" font-family="Times,serif" font-size="14.00">pointwise_whiskerL</text>
</a>
</g>
</g>
<!-- Pointwise_pointwise_whiskerL_subproof0 -->
<g id="node25" class="node"><title>Pointwise_pointwise_whiskerL_subproof0</title>
<g id="a_node25"><a xlink:href="Pointwise.html#pointwise_whiskerL_subproof0" xlink:title="pointwise_whiskerL_subproof0">
<ellipse fill="#f070d1" stroke="black" cx="4637" cy="-1785.58" rx="122.379" ry="18"/>
<text text-anchor="middle" x="4637" y="-1781.88" font-family="Times,serif" font-size="14.00">pointwise_whiskerL_subproof0</text>
</a>
</g>
</g>
<!-- Pointwise_pointwise_whiskerL&#45;&gt;Pointwise_pointwise_whiskerL_subproof0 -->
<g id="edge30" class="edge"><title>Pointwise_pointwise_whiskerL&#45;&gt;Pointwise_pointwise_whiskerL_subproof0</title>
<path fill="none" stroke="black" d="M4390.42,-2346.59C4432.89,-2249.96 4581.54,-1911.76 4624.99,-1812.91"/>
<polygon fill="black" stroke="black" points="4628.26,-1814.15 4629.08,-1803.59 4621.86,-1811.33 4628.26,-1814.15"/>
</g>
<!-- Pointwise_pointwise_whiskerL_subproof -->
<g id="node26" class="node"><title>Pointwise_pointwise_whiskerL_subproof</title>
<g id="a_node26"><a xlink:href="Pointwise.html#pointwise_whiskerL_subproof" xlink:title="pointwise_whiskerL_subproof">
<ellipse fill="#f070d1" stroke="black" cx="4379" cy="-1785.58" rx="118.079" ry="18"/>
<text text-anchor="middle" x="4379" y="-1781.88" font-family="Times,serif" font-size="14.00">pointwise_whiskerL_subproof</text>
</a>
</g>
</g>
<!-- Pointwise_pointwise_whiskerL&#45;&gt;Pointwise_pointwise_whiskerL_subproof -->
<g id="edge31" class="edge"><title>Pointwise_pointwise_whiskerL&#45;&gt;Pointwise_pointwise_whiskerL_subproof</title>
<path fill="none" stroke="black" d="M4379,-2346.21C4379,-2249.45 4379,-1914.28 4379,-1814.08"/>
<polygon fill="black" stroke="black" points="4382.5,-1813.83 4379,-1803.83 4375.5,-1813.83 4382.5,-1813.83"/>
</g>
<!-- Pointwise_pointwise_whiskerL_morphism_of -->
<g id="node31" class="node"><title>Pointwise_pointwise_whiskerL_morphism_of</title>
<g id="a_node31"><a xlink:href="Pointwise.html#pointwise_whiskerL_morphism_of" xlink:title="pointwise_whiskerL_morphism_of">
<ellipse fill="#f070d1" stroke="black" cx="4108" cy="-1785.58" rx="135.376" ry="18"/>
<text text-anchor="middle" x="4108" y="-1781.88" font-family="Times,serif" font-size="14.00">pointwise_whiskerL_morphism_of</text>
</a>
</g>
</g>
<!-- Pointwise_pointwise_whiskerL&#45;&gt;Pointwise_pointwise_whiskerL_morphism_of -->
<g id="edge32" class="edge"><title>Pointwise_pointwise_whiskerL&#45;&gt;Pointwise_pointwise_whiskerL_morphism_of</title>
<path fill="none" stroke="black" d="M4367.01,-2346.59C4322.39,-2249.96 4166.26,-1911.76 4120.62,-1812.91"/>
<polygon fill="black" stroke="black" points="4123.69,-1811.2 4116.32,-1803.59 4117.33,-1814.13 4123.69,-1811.2"/>
</g>
<!-- Core_pointwise_whiskerL_subproof0 -->
<g id="node37" class="node"><title>Core_pointwise_whiskerL_subproof0</title>
<g id="a_node37"><a xlink:href="Core.html#pointwise_whiskerL_subproof0" xlink:title="pointwise_whiskerL_subproof0">
<ellipse fill="#facdef" stroke="black" cx="1944" cy="-683.575" rx="122.379" ry="18"/>
<text text-anchor="middle" x="1944" y="-679.875" font-family="Times,serif" font-size="14.00">pointwise_whiskerL_subproof0</text>
</a>
</g>
</g>
<!-- Pointwise_pointwise_whiskerL_subproof0&#45;&gt;Core_pointwise_whiskerL_subproof0 -->
<g id="edge33" class="edge"><title>Pointwise_pointwise_whiskerL_subproof0&#45;&gt;Core_pointwise_whiskerL_subproof0</title>
<path fill="none" stroke="black" d="M4605.94,-1768.08C4468.46,-1691.08 3899.67,-1377.12 3408,-1173.58 2881.71,-955.701 2220.3,-761.879 2010.81,-702.324"/>
<polygon fill="black" stroke="black" points="2011.45,-698.87 2000.88,-699.506 2009.54,-705.604 2011.45,-698.87"/>
</g>
<!-- Core_pointwise_whiskerL_subproof -->
<g id="node38" class="node"><title>Core_pointwise_whiskerL_subproof</title>
<g id="a_node38"><a xlink:href="Core.html#pointwise_whiskerL_subproof" xlink:title="pointwise_whiskerL_subproof">
<ellipse fill="#facdef" stroke="black" cx="1686" cy="-683.575" rx="118.079" ry="18"/>
<text text-anchor="middle" x="1686" y="-679.875" font-family="Times,serif" font-size="14.00">pointwise_whiskerL_subproof</text>
</a>
</g>
</g>
<!-- Pointwise_pointwise_whiskerL_subproof&#45;&gt;Core_pointwise_whiskerL_subproof -->
<g id="edge34" class="edge"><title>Pointwise_pointwise_whiskerL_subproof&#45;&gt;Core_pointwise_whiskerL_subproof</title>
<path fill="none" stroke="black" d="M4315.81,-1770.26C4095.44,-1715.76 3342.75,-1520.27 2761,-1256.58 2695.12,-1226.71 2684.17,-1208.82 2621,-1173.58 2282.24,-984.563 1864.46,-773.123 1729.93,-705.563"/>
<polygon fill="black" stroke="black" points="1731.24,-702.307 1720.73,-700.949 1728.1,-708.563 1731.24,-702.307"/>
</g>
<!-- Pointwise_pointwise -->
<g id="node27" class="node"><title>Pointwise_pointwise</title>
<g id="a_node27"><a xlink:href="Pointwise.html#pointwise" xlink:title="pointwise">
<ellipse fill="#f070d1" stroke="black" cx="3656" cy="-2372.58" rx="44.7157" ry="18"/>
<ellipse fill="none" stroke="black" cx="3656" cy="-2372.58" rx="48.7041" ry="22"/>
<ellipse fill="none" stroke="black" cx="3656" cy="-2372.58" rx="52.6925" ry="26"/>
<text text-anchor="middle" x="3656" y="-2368.88" font-family="Times,serif" font-size="14.00">pointwise</text>
</a>
</g>
</g>
<!-- Pointwise_pointwise_subproof0 -->
<g id="node28" class="node"><title>Pointwise_pointwise_subproof0</title>
<g id="a_node28"><a xlink:href="Pointwise.html#pointwise_subproof0" xlink:title="pointwise_subproof0">
<ellipse fill="#f070d1" stroke="black" cx="3656" cy="-1785.58" rx="85.2851" ry="18"/>
<text text-anchor="middle" x="3656" y="-1781.88" font-family="Times,serif" font-size="14.00">pointwise_subproof0</text>
</a>
</g>
</g>
<!-- Pointwise_pointwise&#45;&gt;Pointwise_pointwise_subproof0 -->
<g id="edge35" class="edge"><title>Pointwise_pointwise&#45;&gt;Pointwise_pointwise_subproof0</title>
<path fill="none" stroke="black" d="M3656,-2346.21C3656,-2249.45 3656,-1914.28 3656,-1814.08"/>
<polygon fill="black" stroke="black" points="3659.5,-1813.83 3656,-1803.83 3652.5,-1813.83 3659.5,-1813.83"/>
</g>
<!-- Pointwise_pointwise_subproof -->
<g id="node29" class="node"><title>Pointwise_pointwise_subproof</title>
<g id="a_node29"><a xlink:href="Pointwise.html#pointwise_subproof" xlink:title="pointwise_subproof">
<ellipse fill="#f070d1" stroke="black" cx="3472" cy="-1785.58" rx="80.6858" ry="18"/>
<text text-anchor="middle" x="3472" y="-1781.88" font-family="Times,serif" font-size="14.00">pointwise_subproof</text>
</a>
</g>
</g>
<!-- Pointwise_pointwise&#45;&gt;Pointwise_pointwise_subproof -->
<g id="edge36" class="edge"><title>Pointwise_pointwise&#45;&gt;Pointwise_pointwise_subproof</title>
<path fill="none" stroke="black" d="M3647.86,-2346.59C3617.6,-2250.05 3511.77,-1912.44 3480.66,-1813.21"/>
<polygon fill="black" stroke="black" points="3483.98,-1812.08 3477.65,-1803.59 3477.3,-1814.18 3483.98,-1812.08"/>
</g>
<!-- Pointwise_pointwise_morphism_of -->
<g id="node32" class="node"><title>Pointwise_pointwise_morphism_of</title>
<g id="a_node32"><a xlink:href="Pointwise.html#pointwise_morphism_of" xlink:title="pointwise_morphism_of">
<ellipse fill="#f070d1" stroke="black" cx="3857" cy="-1785.58" rx="97.4827" ry="18"/>
<text text-anchor="middle" x="3857" y="-1781.88" font-family="Times,serif" font-size="14.00">pointwise_morphism_of</text>
</a>
</g>
</g>
<!-- Pointwise_pointwise&#45;&gt;Pointwise_pointwise_morphism_of -->
<g id="edge37" class="edge"><title>Pointwise_pointwise&#45;&gt;Pointwise_pointwise_morphism_of</title>
<path fill="none" stroke="black" d="M3664.9,-2346.59C3697.95,-2250.05 3813.56,-1912.44 3847.54,-1813.21"/>
<polygon fill="black" stroke="black" points="3850.9,-1814.18 3850.83,-1803.59 3844.28,-1811.91 3850.9,-1814.18"/>
</g>
<!-- Core_pointwise_subproof0 -->
<g id="node40" class="node"><title>Core_pointwise_subproof0</title>
<g id="a_node40"><a xlink:href="Core.html#pointwise_subproof0" xlink:title="pointwise_subproof0">
<ellipse fill="#facdef" stroke="black" cx="1465" cy="-683.575" rx="85.2851" ry="18"/>
<text text-anchor="middle" x="1465" y="-679.875" font-family="Times,serif" font-size="14.00">pointwise_subproof0</text>
</a>
</g>
</g>
<!-- Pointwise_pointwise_subproof0&#45;&gt;Core_pointwise_subproof0 -->
<g id="edge38" class="edge"><title>Pointwise_pointwise_subproof0&#45;&gt;Core_pointwise_subproof0</title>
<path fill="none" stroke="black" d="M3626.34,-1768.53C3497.43,-1694.64 2972.39,-1395.76 2529,-1173.58 2141.59,-979.447 1662,-769.025 1512.04,-703.913"/>
<polygon fill="black" stroke="black" points="1513.21,-700.606 1502.65,-699.836 1510.43,-707.028 1513.21,-700.606"/>
</g>
<!-- Core_pointwise_subproof -->
<g id="node41" class="node"><title>Core_pointwise_subproof</title>
<g id="a_node41"><a xlink:href="Core.html#pointwise_subproof" xlink:title="pointwise_subproof">
<ellipse fill="#facdef" stroke="black" cx="1281" cy="-683.575" rx="80.6858" ry="18"/>
<text text-anchor="middle" x="1281" y="-679.875" font-family="Times,serif" font-size="14.00">pointwise_subproof</text>
</a>
</g>
</g>
<!-- Pointwise_pointwise_subproof&#45;&gt;Core_pointwise_subproof -->
<g id="edge39" class="edge"><title>Pointwise_pointwise_subproof&#45;&gt;Core_pointwise_subproof</title>
<path fill="none" stroke="black" d="M3441.7,-1768.69C3310,-1695.47 2773.8,-1398.94 2324,-1173.58 1942.45,-982.398 1472.57,-769.6 1326.5,-703.954"/>
<polygon fill="black" stroke="black" points="1327.9,-700.749 1317.35,-699.845 1325.03,-707.135 1327.9,-700.749"/>
</g>
<!-- Core_pointwise_whiskerR -->
<g id="node33" class="node"><title>Core_pointwise_whiskerR</title>
<g id="a_node33"><a xlink:href="Core.html#pointwise_whiskerR" xlink:title="pointwise_whiskerR">
<ellipse fill="#f070d1" stroke="black" cx="2224" cy="-1199.58" rx="83.3687" ry="18"/>
<ellipse fill="none" stroke="black" cx="2224" cy="-1199.58" rx="87.3772" ry="22"/>
<ellipse fill="none" stroke="black" cx="2224" cy="-1199.58" rx="91.3856" ry="26"/>
<text text-anchor="middle" x="2224" y="-1195.88" font-family="Times,serif" font-size="14.00">pointwise_whiskerR</text>
</a>
</g>
</g>
<!-- Core_pointwise_whiskerR&#45;&gt;Core_pointwise_whiskerR_subproof0 -->
<g id="edge40" class="edge"><title>Core_pointwise_whiskerR&#45;&gt;Core_pointwise_whiskerR_subproof0</title>
<path fill="none" stroke="black" d="M2235.92,-1173.63C2276.22,-1085.88 2407.24,-800.622 2448.46,-710.87"/>
<polygon fill="black" stroke="black" points="2451.72,-712.169 2452.71,-701.621 2445.36,-709.247 2451.72,-712.169"/>
</g>
<!-- Core_pointwise_whiskerR&#45;&gt;Core_pointwise_whiskerR_subproof -->
<g id="edge41" class="edge"><title>Core_pointwise_whiskerR&#45;&gt;Core_pointwise_whiskerR_subproof</title>
<path fill="none" stroke="black" d="M2222.88,-1173.28C2219.13,-1085.36 2207.05,-802.106 2203.2,-711.633"/>
<polygon fill="black" stroke="black" points="2206.69,-711.424 2202.77,-701.582 2199.7,-711.722 2206.69,-711.424"/>
</g>
<!-- Core_pointwise_whiskerR_morphism_of -->
<g id="node42" class="node"><title>Core_pointwise_whiskerR_morphism_of</title>
<g id="a_node42"><a xlink:href="Core.html#pointwise_whiskerR_morphism_of" xlink:title="pointwise_whiskerR_morphism_of">
<ellipse fill="#f070d1" stroke="black" cx="2325" cy="-219.575" rx="135.676" ry="18"/>
<text text-anchor="middle" x="2325" y="-215.875" font-family="Times,serif" font-size="14.00">pointwise_whiskerR_morphism_of</text>
</a>
</g>
</g>
<!-- Core_pointwise_whiskerR_subproof0&#45;&gt;Core_pointwise_whiskerR_morphism_of -->
<g id="edge42" class="edge"><title>Core_pointwise_whiskerR_subproof0&#45;&gt;Core_pointwise_whiskerR_morphism_of</title>
<path fill="none" stroke="black" d="M2455.67,-665.386C2434.78,-594.132 2358.45,-333.687 2333.18,-247.489"/>
<polygon fill="black" stroke="black" points="2336.47,-246.25 2330.29,-237.639 2329.75,-248.219 2336.47,-246.25"/>
</g>
<!-- Core_pointwise_whiskerR_subproof&#45;&gt;Core_pointwise_whiskerR_morphism_of -->
<g id="edge43" class="edge"><title>Core_pointwise_whiskerR_subproof&#45;&gt;Core_pointwise_whiskerR_morphism_of</title>
<path fill="none" stroke="black" d="M2206.82,-665.386C2225.71,-594.132 2294.75,-333.687 2317.6,-247.489"/>
<polygon fill="black" stroke="black" points="2321.03,-248.202 2320.21,-237.639 2314.27,-246.408 2321.03,-248.202"/>
</g>
<!-- Core_pointwise_whiskerL -->
<g id="node36" class="node"><title>Core_pointwise_whiskerL</title>
<g id="a_node36"><a xlink:href="Core.html#pointwise_whiskerL" xlink:title="pointwise_whiskerL">
<ellipse fill="#f070d1" stroke="black" cx="1815" cy="-1199.58" rx="82.5816" ry="18"/>
<ellipse fill="none" stroke="black" cx="1815" cy="-1199.58" rx="86.5835" ry="22"/>
<ellipse fill="none" stroke="black" cx="1815" cy="-1199.58" rx="90.5854" ry="26"/>
<text text-anchor="middle" x="1815" y="-1195.88" font-family="Times,serif" font-size="14.00">pointwise_whiskerL</text>
</a>
</g>
</g>
<!-- Core_pointwise_whiskerL&#45;&gt;Core_pointwise_whiskerL_subproof0 -->
<g id="edge44" class="edge"><title>Core_pointwise_whiskerL&#45;&gt;Core_pointwise_whiskerL_subproof0</title>
<path fill="none" stroke="black" d="M1821.49,-1173.63C1843.38,-1086.05 1914.45,-801.777 1937.04,-711.418"/>
<polygon fill="black" stroke="black" points="1940.46,-712.171 1939.49,-701.621 1933.67,-710.474 1940.46,-712.171"/>
</g>
<!-- Core_pointwise_whiskerL&#45;&gt;Core_pointwise_whiskerL_subproof -->
<g id="edge45" class="edge"><title>Core_pointwise_whiskerL&#45;&gt;Core_pointwise_whiskerL_subproof</title>
<path fill="none" stroke="black" d="M1808.51,-1173.63C1786.62,-1086.05 1715.55,-801.777 1692.96,-711.418"/>
<polygon fill="black" stroke="black" points="1696.33,-710.474 1690.51,-701.621 1689.54,-712.171 1696.33,-710.474"/>
</g>
<!-- Core_pointwise_whiskerL_morphism_of -->
<g id="node43" class="node"><title>Core_pointwise_whiskerL_morphism_of</title>
<g id="a_node43"><a xlink:href="Core.html#pointwise_whiskerL_morphism_of" xlink:title="pointwise_whiskerL_morphism_of">
<ellipse fill="#f070d1" stroke="black" cx="1815" cy="-219.575" rx="135.376" ry="18"/>
<text text-anchor="middle" x="1815" y="-215.875" font-family="Times,serif" font-size="14.00">pointwise_whiskerL_morphism_of</text>
</a>
</g>
</g>
<!-- Core_pointwise_whiskerL_subproof0&#45;&gt;Core_pointwise_whiskerL_morphism_of -->
<g id="edge46" class="edge"><title>Core_pointwise_whiskerL_subproof0&#45;&gt;Core_pointwise_whiskerL_morphism_of</title>
<path fill="none" stroke="black" d="M1938.94,-665.386C1919.13,-594.132 1846.73,-333.687 1822.76,-247.489"/>
<polygon fill="black" stroke="black" points="1826.07,-246.336 1820.02,-237.639 1819.33,-248.211 1826.07,-246.336"/>
</g>
<!-- Core_pointwise_whiskerL_subproof&#45;&gt;Core_pointwise_whiskerL_morphism_of -->
<g id="edge47" class="edge"><title>Core_pointwise_whiskerL_subproof&#45;&gt;Core_pointwise_whiskerL_morphism_of</title>
<path fill="none" stroke="black" d="M1691.06,-665.386C1710.87,-594.132 1783.27,-333.687 1807.24,-247.489"/>
<polygon fill="black" stroke="black" points="1810.67,-248.211 1809.98,-237.639 1803.93,-246.336 1810.67,-248.211"/>
</g>
<!-- Core_pointwise&#45;&gt;Core_pointwise_subproof0 -->
<g id="edge48" class="edge"><title>Core_pointwise&#45;&gt;Core_pointwise_subproof0</title>
<path fill="none" stroke="black" d="M1376.22,-1181.51C1389.91,-1104.74 1443.32,-805.157 1460,-711.629"/>
<polygon fill="black" stroke="black" points="1463.45,-712.217 1461.76,-701.758 1456.56,-710.988 1463.45,-712.217"/>
</g>
<!-- Core_pointwise&#45;&gt;Core_pointwise_subproof -->
<g id="edge49" class="edge"><title>Core_pointwise&#45;&gt;Core_pointwise_subproof</title>
<path fill="none" stroke="black" d="M1369.78,-1181.51C1356.09,-1104.74 1302.68,-805.157 1286,-711.629"/>
<polygon fill="black" stroke="black" points="1289.44,-710.988 1284.24,-701.758 1282.55,-712.217 1289.44,-710.988"/>
</g>
<!-- Core_pointwise_subproof0&#45;&gt;Core_pointwise_morphism_of -->
<g id="edge50" class="edge"><title>Core_pointwise_subproof0&#45;&gt;Core_pointwise_morphism_of</title>
<path fill="none" stroke="black" d="M1458.41,-665.386C1432.59,-594.059 1338.12,-333.157 1307.01,-247.226"/>
<polygon fill="black" stroke="black" points="1310.24,-245.85 1303.54,-237.639 1303.65,-248.233 1310.24,-245.85"/>
</g>
<!-- Core_pointwise_subproof&#45;&gt;Core_pointwise_morphism_of -->
<g id="edge51" class="edge"><title>Core_pointwise_subproof&#45;&gt;Core_pointwise_morphism_of</title>
<path fill="none" stroke="black" d="M1281.63,-665.386C1284.08,-594.204 1293.05,-334.217 1296.03,-247.752"/>
<polygon fill="black" stroke="black" points="1299.53,-247.753 1296.38,-237.639 1292.53,-247.512 1299.53,-247.753"/>
</g>
</g>
</svg>
