<?xml version="1.0" encoding="UTF-8" standalone="no"?>
<!DOCTYPE svg PUBLIC "-//W3C//DTD SVG 1.1//EN"
 "http://www.w3.org/Graphics/SVG/1.1/DTD/svg11.dtd">
<!-- Generated by graphviz version 2.26.3 (20100126.1600)
 -->
<!-- Title: HoTT_categories_Cat Pages: 1 -->
<svg width="3154pt" height="1581pt"
 viewBox="0.00 0.00 3154.00 1581.00" xmlns="http://www.w3.org/2000/svg" xmlns:xlink="http://www.w3.org/1999/xlink">
<g id="graph1" class="graph" transform="scale(1 1) rotate(0) translate(4 1577)">
<title>HoTT_categories_Cat</title>
<polygon fill="white" stroke="white" points="-4,5 -4,-1577 3151,-1577 3151,5 -4,5"/>
<g id="graph2" class="cluster"><title>cluster_Cat</title>
<polygon fill="#ffffc3" stroke="black" points="8,-65.5417 8,-1507.46 1582,-1507.46 1582,-65.5417 8,-65.5417"/>
<text text-anchor="middle" x="28.5" y="-1490.86" font-family="Times Roman,serif" font-size="14.00">Cat</text>
</g>
<g id="graph3" class="cluster"><title>cluster_Morphisms</title>
<polygon fill="#ffffc3" stroke="black" points="1590,-65.5417 1590,-720.958 2128,-720.958 2128,-65.5417 1590,-65.5417"/>
<text text-anchor="middle" x="1635" y="-704.358" font-family="Times Roman,serif" font-size="14.00">Morphisms</text>
</g>
<g id="graph4" class="cluster"><title>cluster_Core</title>
<polygon fill="#ffffc3" stroke="black" points="2136,-65.5417 2136,-1507.46 3138,-1507.46 3138,-65.5417 2136,-65.5417"/>
<text text-anchor="middle" x="2160.5" y="-1490.86" font-family="Times Roman,serif" font-size="14.00">Core</text>
</g>
<!-- Morphisms_transport_cF_to_idtoiso -->
<g id="node1" class="node"><title>Morphisms_transport_cF_to_idtoiso</title>
<a xlink:href="Morphisms.html#transport_cF_to_idtoiso" xlink:title="transport_cF_to_idtoiso">
<ellipse fill="#facdef" stroke="black" cx="1994" cy="-286.542" rx="125.865" ry="18.3848"/>
<text text-anchor="middle" x="1994" y="-282.942" font-family="Times Roman,serif" font-size="14.00">transport_cF_to_idtoiso</text>
</a>
</g>
<!-- Morphisms_transport_Fc_to_idtoiso -->
<g id="node2" class="node"><title>Morphisms_transport_Fc_to_idtoiso</title>
<a xlink:href="Morphisms.html#transport_Fc_to_idtoiso" xlink:title="transport_Fc_to_idtoiso">
<ellipse fill="#facdef" stroke="black" cx="1724" cy="-286.542" rx="125.865" ry="18.3848"/>
<text text-anchor="middle" x="1724" y="-282.942" font-family="Times Roman,serif" font-size="14.00">transport_Fc_to_idtoiso</text>
</a>
</g>
<!-- Core_is_initial_object__is_initial_category -->
<g id="node3" class="node"><title>Core_is_initial_object__is_initial_category</title>
<a xlink:href="Core.html#is_initial_object__is_initial_category" xlink:title="is_initial_object__is_initial_category">
<ellipse fill="#f070d1" stroke="black" cx="2938" cy="-1007.54" rx="183.848" ry="18.3848"/>
<ellipse fill="none" stroke="black" cx="2938" cy="-1007.54" rx="187.848" ry="22.3848"/>
<ellipse fill="none" stroke="black" cx="2938" cy="-1007.54" rx="191.848" ry="26.3848"/>
<text text-anchor="middle" x="2938" y="-1003.94" font-family="Times Roman,serif" font-size="14.00">is_initial_object__is_initial_category</text>
</a>
</g>
<!-- Core_is_terminal_object__is_terminal_category -->
<g id="node4" class="node"><title>Core_is_terminal_object__is_terminal_category</title>
<a xlink:href="Core.html#is_terminal_object__is_terminal_category" xlink:title="is_terminal_object__is_terminal_category">
<ellipse fill="#f070d1" stroke="black" cx="2509" cy="-1007.54" rx="210.943" ry="18.3848"/>
<ellipse fill="none" stroke="black" cx="2509" cy="-1007.54" rx="214.934" ry="22.3848"/>
<ellipse fill="none" stroke="black" cx="2509" cy="-1007.54" rx="218.925" ry="26.3848"/>
<text text-anchor="middle" x="2509" y="-1003.94" font-family="Times Roman,serif" font-size="14.00">is_terminal_object__is_terminal_category</text>
</a>
</g>
<!-- Core_strict_cat -->
<g id="node5" class="node"><title>Core_strict_cat</title>
<a xlink:href="Core.html#strict_cat" xlink:title="strict_cat">
<ellipse fill="#f070d1" stroke="black" cx="2208" cy="-1007.54" rx="56.13" ry="18.3848"/>
<ellipse fill="none" stroke="black" cx="2208" cy="-1007.54" rx="60.099" ry="22.3848"/>
<ellipse fill="none" stroke="black" cx="2208" cy="-1007.54" rx="64.068" ry="26.3848"/>
<text text-anchor="middle" x="2208" y="-1003.94" font-family="Times Roman,serif" font-size="14.00">strict_cat</text>
</a>
</g>
<!-- Core_sub_pre_cat -->
<g id="node6" class="node"><title>Core_sub_pre_cat</title>
<a xlink:href="Core.html#sub_pre_cat" xlink:title="sub_pre_cat">
<ellipse fill="#f070d1" stroke="black" cx="2214" cy="-286.542" rx="70.0036" ry="18.3848"/>
<text text-anchor="middle" x="2214" y="-282.942" font-family="Times Roman,serif" font-size="14.00">sub_pre_cat</text>
</a>
</g>
<!-- Core_strict_cat&#45;&gt;Core_sub_pre_cat -->
<g id="edge2" class="edge"><title>Core_strict_cat&#45;&gt;Core_sub_pre_cat</title>
<path fill="none" stroke="black" d="M2208.22,-981.026C2209.16,-868.672 2212.79,-432.291 2213.76,-315.453"/>
<polygon fill="black" stroke="black" points="2217.26,-315.194 2213.85,-305.165 2210.26,-315.136 2217.26,-315.194"/>
</g>
<!-- Cat_transport_cF_to_idtoiso -->
<g id="node7" class="node"><title>Cat_transport_cF_to_idtoiso</title>
<a xlink:href="Cat.html#transport_cF_to_idtoiso" xlink:title="transport_cF_to_idtoiso">
<ellipse fill="#f070d1" stroke="black" cx="1440" cy="-1007.54" rx="125.865" ry="18.3848"/>
<ellipse fill="none" stroke="black" cx="1440" cy="-1007.54" rx="129.865" ry="22.3848"/>
<ellipse fill="none" stroke="black" cx="1440" cy="-1007.54" rx="133.865" ry="26.3848"/>
<text text-anchor="middle" x="1440" y="-1003.94" font-family="Times Roman,serif" font-size="14.00">transport_cF_to_idtoiso</text>
</a>
</g>
<!-- Cat_transport_cF_to_idtoiso&#45;&gt;Morphisms_transport_cF_to_idtoiso -->
<g id="edge4" class="edge"><title>Cat_transport_cF_to_idtoiso&#45;&gt;Morphisms_transport_cF_to_idtoiso</title>
<path fill="none" stroke="black" d="M1460.37,-981.026C1547.23,-867.993 1886.08,-427 1973.39,-313.368"/>
<polygon fill="black" stroke="black" points="1976.37,-315.227 1979.69,-305.165 1970.82,-310.962 1976.37,-315.227"/>
</g>
<!-- Cat_transport_Fc_to_idtoiso -->
<g id="node8" class="node"><title>Cat_transport_Fc_to_idtoiso</title>
<a xlink:href="Cat.html#transport_Fc_to_idtoiso" xlink:title="transport_Fc_to_idtoiso">
<ellipse fill="#f070d1" stroke="black" cx="1154" cy="-1007.54" rx="125.865" ry="18.3848"/>
<ellipse fill="none" stroke="black" cx="1154" cy="-1007.54" rx="129.865" ry="22.3848"/>
<ellipse fill="none" stroke="black" cx="1154" cy="-1007.54" rx="133.865" ry="26.3848"/>
<text text-anchor="middle" x="1154" y="-1003.94" font-family="Times Roman,serif" font-size="14.00">transport_Fc_to_idtoiso</text>
</a>
</g>
<!-- Cat_transport_Fc_to_idtoiso&#45;&gt;Morphisms_transport_Fc_to_idtoiso -->
<g id="edge6" class="edge"><title>Cat_transport_Fc_to_idtoiso&#45;&gt;Morphisms_transport_Fc_to_idtoiso</title>
<path fill="none" stroke="black" d="M1174.96,-981.026C1264.41,-867.88 1613.66,-426.116 1703.06,-313.028"/>
<polygon fill="black" stroke="black" points="1705.82,-315.181 1709.28,-305.165 1700.33,-310.839 1705.82,-315.181"/>
</g>
<!-- Cat_is_initial_object__is_initial_category -->
<g id="node9" class="node"><title>Cat_is_initial_object__is_initial_category</title>
<a xlink:href="Cat.html#is_initial_object__is_initial_category" xlink:title="is_initial_object__is_initial_category">
<ellipse fill="#f070d1" stroke="black" cx="810" cy="-1007.54" rx="183.848" ry="18.3848"/>
<ellipse fill="none" stroke="black" cx="810" cy="-1007.54" rx="187.848" ry="22.3848"/>
<ellipse fill="none" stroke="black" cx="810" cy="-1007.54" rx="191.848" ry="26.3848"/>
<text text-anchor="middle" x="810" y="-1003.94" font-family="Times Roman,serif" font-size="14.00">is_initial_object__is_initial_category</text>
</a>
</g>
<!-- Cat_is_terminal_object__is_terminal_category -->
<g id="node10" class="node"><title>Cat_is_terminal_object__is_terminal_category</title>
<a xlink:href="Cat.html#is_terminal_object__is_terminal_category" xlink:title="is_terminal_object__is_terminal_category">
<ellipse fill="#f070d1" stroke="black" cx="381" cy="-1007.54" rx="210.943" ry="18.3848"/>
<ellipse fill="none" stroke="black" cx="381" cy="-1007.54" rx="214.934" ry="22.3848"/>
<ellipse fill="none" stroke="black" cx="381" cy="-1007.54" rx="218.925" ry="26.3848"/>
<text text-anchor="middle" x="381" y="-1003.94" font-family="Times Roman,serif" font-size="14.00">is_terminal_object__is_terminal_category</text>
</a>
</g>
<!-- Cat_strict_cat -->
<g id="node11" class="node"><title>Cat_strict_cat</title>
<a xlink:href="Cat.html#strict_cat" xlink:title="strict_cat">
<ellipse fill="#f070d1" stroke="black" cx="80" cy="-1007.54" rx="56.13" ry="18.3848"/>
<ellipse fill="none" stroke="black" cx="80" cy="-1007.54" rx="60.099" ry="22.3848"/>
<ellipse fill="none" stroke="black" cx="80" cy="-1007.54" rx="64.068" ry="26.3848"/>
<text text-anchor="middle" x="80" y="-1003.94" font-family="Times Roman,serif" font-size="14.00">strict_cat</text>
</a>
</g>
<!-- Cat_sub_pre_cat -->
<g id="node12" class="node"><title>Cat_sub_pre_cat</title>
<a xlink:href="Cat.html#sub_pre_cat" xlink:title="sub_pre_cat">
<ellipse fill="#f070d1" stroke="black" cx="86" cy="-286.542" rx="70.0036" ry="18.3848"/>
<text text-anchor="middle" x="86" y="-282.942" font-family="Times Roman,serif" font-size="14.00">sub_pre_cat</text>
</a>
</g>
<!-- Cat_strict_cat&#45;&gt;Cat_sub_pre_cat -->
<g id="edge8" class="edge"><title>Cat_strict_cat&#45;&gt;Cat_sub_pre_cat</title>
<path fill="none" stroke="black" d="M80.2207,-981.026C81.1556,-868.672 84.7871,-432.291 85.7594,-315.453"/>
<polygon fill="black" stroke="black" points="89.2616,-315.194 85.845,-305.165 82.2618,-315.136 89.2616,-315.194"/>
</g>
</g>
</svg>
