<?xml version="1.0" encoding="UTF-8" standalone="no"?>
<!DOCTYPE svg PUBLIC "-//W3C//DTD SVG 1.1//EN"
 "http://www.w3.org/Graphics/SVG/1.1/DTD/svg11.dtd">
<!-- Generated by graphviz version 2.39.20141222.0545 (20141222.0545)
 -->
<!-- Title: HoTT_categories_Functor_Composition_Laws Pages: 1 -->
<svg width="875pt" height="442pt"
 viewBox="0.00 0.00 875.00 441.50" xmlns="http://www.w3.org/2000/svg" xmlns:xlink="http://www.w3.org/1999/xlink">
<g id="graph0" class="graph" transform="scale(1 1) rotate(0) translate(4 437.5)">
<title>HoTT_categories_Functor_Composition_Laws</title>
<polygon fill="white" stroke="transparent" points="-4,4 -4,-437.5 871,-437.5 871,4 -4,4"/>
<g id="clust1" class="cluster"><title>cluster_Laws</title>
<polygon fill="#ffffc3" stroke="black" points="8,-19.3743 8,-414.126 859,-414.126 859,-19.3743 8,-19.3743"/>
<text text-anchor="middle" x="31" y="-398.926" font-family="Times,serif" font-size="14.00">Laws</text>
</g>
<!-- Laws_pentagon -->
<g id="node1" class="node"><title>Laws_pentagon</title>
<g id="a_node1"><a xlink:href="Laws.html#pentagon" xlink:title="pentagon">
<ellipse fill="#facdef" stroke="black" cx="726" cy="-276.374" rx="42.8089" ry="18"/>
<ellipse fill="none" stroke="black" cx="726" cy="-276.374" rx="46.8007" ry="22"/>
<ellipse fill="none" stroke="black" cx="726" cy="-276.374" rx="50.7926" ry="26"/>
<text text-anchor="middle" x="726" y="-272.674" font-family="Times,serif" font-size="14.00">pentagon</text>
</a>
</g>
</g>
<!-- Laws_associativity_fst -->
<g id="node3" class="node"><title>Laws_associativity_fst</title>
<g id="a_node3"><a xlink:href="Laws.html#associativity_fst" xlink:title="associativity_fst">
<ellipse fill="#f070d1" stroke="black" cx="656" cy="-82.3743" rx="67.6881" ry="18"/>
<text text-anchor="middle" x="656" y="-78.6743" font-family="Times,serif" font-size="14.00">associativity_fst</text>
</a>
</g>
</g>
<!-- Laws_pentagon&#45;&gt;Laws_associativity_fst -->
<g id="edge1" class="edge"><title>Laws_pentagon&#45;&gt;Laws_associativity_fst</title>
<path fill="none" stroke="black" d="M716.705,-250.613C703.549,-214.152 679.595,-147.765 666.043,-110.208"/>
<polygon fill="black" stroke="black" points="669.201,-108.647 662.514,-100.429 662.616,-111.023 669.201,-108.647"/>
</g>
<!-- Laws_associativity -->
<g id="node4" class="node"><title>Laws_associativity</title>
<g id="a_node4"><a xlink:href="Laws.html#associativity" xlink:title="associativity">
<ellipse fill="#f070d1" stroke="black" cx="796" cy="-82.3743" rx="54.6905" ry="18"/>
<text text-anchor="middle" x="796" y="-78.6743" font-family="Times,serif" font-size="14.00">associativity</text>
</a>
</g>
</g>
<!-- Laws_pentagon&#45;&gt;Laws_associativity -->
<g id="edge2" class="edge"><title>Laws_pentagon&#45;&gt;Laws_associativity</title>
<path fill="none" stroke="black" d="M735.295,-250.613C748.451,-214.152 772.405,-147.765 785.957,-110.208"/>
<polygon fill="black" stroke="black" points="789.384,-111.023 789.486,-100.429 782.799,-108.647 789.384,-111.023"/>
</g>
<!-- Laws_triangle -->
<g id="node2" class="node"><title>Laws_triangle</title>
<g id="a_node2"><a xlink:href="Laws.html#triangle" xlink:title="triangle">
<ellipse fill="#facdef" stroke="black" cx="451" cy="-276.374" rx="37.8596" ry="18"/>
<ellipse fill="none" stroke="black" cx="451" cy="-276.374" rx="41.8769" ry="22"/>
<ellipse fill="none" stroke="black" cx="451" cy="-276.374" rx="45.8942" ry="26"/>
<text text-anchor="middle" x="451" y="-272.674" font-family="Times,serif" font-size="14.00">triangle</text>
</a>
</g>
</g>
<!-- Laws_triangle&#45;&gt;Laws_associativity_fst -->
<g id="edge3" class="edge"><title>Laws_triangle&#45;&gt;Laws_associativity_fst</title>
<path fill="none" stroke="black" d="M474.917,-253.74C513.732,-217.008 590.12,-144.719 630.146,-106.841"/>
<polygon fill="black" stroke="black" points="632.787,-109.161 637.644,-99.7452 627.975,-104.077 632.787,-109.161"/>
</g>
<!-- Laws_triangle&#45;&gt;Laws_associativity -->
<g id="edge4" class="edge"><title>Laws_triangle&#45;&gt;Laws_associativity</title>
<path fill="none" stroke="black" d="M483.768,-257.948C548.346,-221.635 691.649,-141.053 759.293,-103.015"/>
<polygon fill="black" stroke="black" points="761.319,-105.892 768.32,-97.9394 757.888,-99.7901 761.319,-105.892"/>
</g>
<!-- Laws_right_identity_fst -->
<g id="node5" class="node"><title>Laws_right_identity_fst</title>
<g id="a_node5"><a xlink:href="Laws.html#right_identity_fst" xlink:title="right_identity_fst">
<ellipse fill="#f070d1" stroke="black" cx="87" cy="-82.3743" rx="71.4873" ry="18"/>
<text text-anchor="middle" x="87" y="-78.6743" font-family="Times,serif" font-size="14.00">right_identity_fst</text>
</a>
</g>
</g>
<!-- Laws_triangle&#45;&gt;Laws_right_identity_fst -->
<g id="edge5" class="edge"><title>Laws_triangle&#45;&gt;Laws_right_identity_fst</title>
<path fill="none" stroke="black" d="M417.408,-258.471C350.118,-222.607 199.08,-142.109 126.894,-103.636"/>
<polygon fill="black" stroke="black" points="128.133,-100.331 117.662,-98.7162 124.841,-106.508 128.133,-100.331"/>
</g>
<!-- Laws_left_identity_fst -->
<g id="node6" class="node"><title>Laws_left_identity_fst</title>
<g id="a_node6"><a xlink:href="Laws.html#left_identity_fst" xlink:title="left_identity_fst">
<ellipse fill="#f070d1" stroke="black" cx="243" cy="-82.3743" rx="66.8882" ry="18"/>
<text text-anchor="middle" x="243" y="-78.6743" font-family="Times,serif" font-size="14.00">left_identity_fst</text>
</a>
</g>
</g>
<!-- Laws_triangle&#45;&gt;Laws_left_identity_fst -->
<g id="edge6" class="edge"><title>Laws_triangle&#45;&gt;Laws_left_identity_fst</title>
<path fill="none" stroke="black" d="M427.14,-254.12C387.843,-217.468 309.812,-144.689 269.097,-106.715"/>
<polygon fill="black" stroke="black" points="271.411,-104.087 261.711,-99.8254 266.636,-109.206 271.411,-104.087"/>
</g>
<!-- Laws_right_identity -->
<g id="node7" class="node"><title>Laws_right_identity</title>
<g id="a_node7"><a xlink:href="Laws.html#right_identity" xlink:title="right_identity">
<ellipse fill="#f070d1" stroke="black" cx="386" cy="-82.3743" rx="58.4896" ry="18"/>
<text text-anchor="middle" x="386" y="-78.6743" font-family="Times,serif" font-size="14.00">right_identity</text>
</a>
</g>
</g>
<!-- Laws_triangle&#45;&gt;Laws_right_identity -->
<g id="edge7" class="edge"><title>Laws_triangle&#45;&gt;Laws_right_identity</title>
<path fill="none" stroke="black" d="M442.369,-250.613C430.152,-214.152 407.909,-147.765 395.326,-110.208"/>
<polygon fill="black" stroke="black" points="398.545,-108.799 392.049,-100.429 391.907,-111.023 398.545,-108.799"/>
</g>
<!-- Laws_left_identity -->
<g id="node8" class="node"><title>Laws_left_identity</title>
<g id="a_node8"><a xlink:href="Laws.html#left_identity" xlink:title="left_identity">
<ellipse fill="#f070d1" stroke="black" cx="516" cy="-82.3743" rx="53.8905" ry="18"/>
<text text-anchor="middle" x="516" y="-78.6743" font-family="Times,serif" font-size="14.00">left_identity</text>
</a>
</g>
</g>
<!-- Laws_triangle&#45;&gt;Laws_left_identity -->
<g id="edge8" class="edge"><title>Laws_triangle&#45;&gt;Laws_left_identity</title>
<path fill="none" stroke="black" d="M459.631,-250.613C471.848,-214.152 494.091,-147.765 506.674,-110.208"/>
<polygon fill="black" stroke="black" points="510.093,-111.023 509.951,-100.429 503.455,-108.799 510.093,-111.023"/>
</g>
</g>
</svg>
