<?xml version="1.0" encoding="UTF-8" standalone="no"?>
<!DOCTYPE svg PUBLIC "-//W3C//DTD SVG 1.1//EN"
 "http://www.w3.org/Graphics/SVG/1.1/DTD/svg11.dtd">
<!-- Generated by graphviz version 2.39.20161220.0128 (20161220.0128)
 -->
<!-- Title: HoTT_Categories_Functor_Prod_Functorial Pages: 1 -->
<svg width="510pt" height="259pt"
 viewBox="0.00 0.00 510.00 259.00" xmlns="http://www.w3.org/2000/svg" xmlns:xlink="http://www.w3.org/1999/xlink">
<g id="graph0" class="graph" transform="scale(1 1) rotate(0) translate(4 255)">
<title>HoTT_Categories_Functor_Prod_Functorial</title>
<polygon fill="#ffffff" stroke="transparent" points="-4,4 -4,-255 506,-255 506,4 -4,4"/>
<g id="clust1" class="cluster">
<title>cluster_Functorial</title>
<polygon fill="#ffffc3" stroke="#000000" points="10.04,-8 10.04,-243 491.96,-243 491.96,-8 10.04,-8"/>
<text text-anchor="middle" x="46.04" y="-227.8" font-family="Times,serif" font-size="14.00" fill="#000000">Functorial</text>
</g>
<!-- Functorial_functor -->
<g id="node1" class="node">
<title>Functorial_functor</title>
<g id="a_node1"><a xlink:href="Functorial.html#functor" xlink:title="functor">
<ellipse fill="#f070d1" stroke="#000000" cx="240.045" cy="-186" rx="36.3123" ry="18"/>
<ellipse fill="none" stroke="#000000" cx="240.045" cy="-186" rx="40.3031" ry="22"/>
<ellipse fill="none" stroke="#000000" cx="240.045" cy="-186" rx="44.2938" ry="26"/>
<text text-anchor="middle" x="240.045" y="-182.3" font-family="Times,serif" font-size="14.00" fill="#000000">functor</text>
</a>
</g>
</g>
<!-- Functorial_functor_identity_of -->
<g id="node2" class="node">
<title>Functorial_functor_identity_of</title>
<g id="a_node2"><a xlink:href="Functorial.html#functor_identity_of" xlink:title="functor_identity_of">
<ellipse fill="#facdef" stroke="#000000" cx="119.045" cy="-106" rx="79.0865" ry="18"/>
<text text-anchor="middle" x="119.045" y="-102.3" font-family="Times,serif" font-size="14.00" fill="#000000">functor_identity_of</text>
</a>
</g>
</g>
<!-- Functorial_functor&#45;&gt;Functorial_functor_identity_of -->
<g id="edge1" class="edge">
<title>Functorial_functor&#45;&gt;Functorial_functor_identity_of</title>
<path fill="none" stroke="#000000" d="M210.4451,-166.4298C193.2491,-155.0605 171.5005,-140.6813 153.5327,-128.8018"/>
<polygon fill="#000000" stroke="#000000" points="155.3244,-125.7906 145.0525,-123.195 151.4638,-131.6298 155.3244,-125.7906"/>
</g>
<!-- Functorial_functor_composition_of -->
<g id="node3" class="node">
<title>Functorial_functor_composition_of</title>
<g id="a_node3"><a xlink:href="Functorial.html#functor_composition_of" xlink:title="functor_composition_of">
<ellipse fill="#facdef" stroke="#000000" cx="361.045" cy="-106" rx="96.3833" ry="18"/>
<text text-anchor="middle" x="361.045" y="-102.3" font-family="Times,serif" font-size="14.00" fill="#000000">functor_composition_of</text>
</a>
</g>
</g>
<!-- Functorial_functor&#45;&gt;Functorial_functor_composition_of -->
<g id="edge2" class="edge">
<title>Functorial_functor&#45;&gt;Functorial_functor_composition_of</title>
<path fill="none" stroke="#000000" d="M269.6449,-166.4298C286.7207,-155.1401 308.2856,-140.8823 326.1798,-129.0514"/>
<polygon fill="#000000" stroke="#000000" points="328.2222,-131.8969 334.6336,-123.4621 324.3616,-126.0577 328.2222,-131.8969"/>
</g>
<!-- Functorial_functor_morphism_of -->
<g id="node4" class="node">
<title>Functorial_functor_morphism_of</title>
<g id="a_node4"><a xlink:href="Functorial.html#functor_morphism_of" xlink:title="functor_morphism_of">
<ellipse fill="#f070d1" stroke="#000000" cx="246.045" cy="-34" rx="89.0842" ry="18"/>
<text text-anchor="middle" x="246.045" y="-30.3" font-family="Times,serif" font-size="14.00" fill="#000000">functor_morphism_of</text>
</a>
</g>
</g>
<!-- Functorial_functor_identity_of&#45;&gt;Functorial_functor_morphism_of -->
<g id="edge3" class="edge">
<title>Functorial_functor_identity_of&#45;&gt;Functorial_functor_morphism_of</title>
<path fill="none" stroke="#000000" d="M148.8209,-89.1192C166.2103,-79.2606 188.3532,-66.7072 207.1134,-56.0714"/>
<polygon fill="#000000" stroke="#000000" points="209.0426,-59.0012 216.0157,-51.0245 205.5902,-52.9117 209.0426,-59.0012"/>
</g>
<!-- Functorial_functor_composition_of&#45;&gt;Functorial_functor_morphism_of -->
<g id="edge4" class="edge">
<title>Functorial_functor_composition_of&#45;&gt;Functorial_functor_morphism_of</title>
<path fill="none" stroke="#000000" d="M333.2067,-88.5708C317.951,-79.0194 298.8591,-67.0662 282.4354,-56.7836"/>
<polygon fill="#000000" stroke="#000000" points="283.9601,-53.6088 273.6269,-51.2687 280.2455,-59.5419 283.9601,-53.6088"/>
</g>
</g>
</svg>
