<?xml version="1.0" encoding="UTF-8" standalone="no"?>
<!DOCTYPE svg PUBLIC "-//W3C//DTD SVG 1.1//EN"
 "http://www.w3.org/Graphics/SVG/1.1/DTD/svg11.dtd">
<!-- Generated by graphviz version 2.26.3 (20100126.1600)
 -->
<!-- Title: HoTT_HProp Pages: 1 -->
<svg width="1942pt" height="975pt"
 viewBox="0.00 0.00 1942.00 975.00" xmlns="http://www.w3.org/2000/svg" xmlns:xlink="http://www.w3.org/1999/xlink">
<g id="graph1" class="graph" transform="scale(1 1) rotate(0) translate(4 971)">
<title>HoTT_HProp</title>
<polygon fill="white" stroke="white" points="-4,5 -4,-971 1939,-971 1939,5 -4,5"/>
<g id="graph2" class="cluster"><title>cluster_HProp</title>
<polygon fill="#ffffc3" stroke="black" points="8,-15.0506 8,-951.949 1926,-951.949 1926,-15.0506 8,-15.0506"/>
<text text-anchor="middle" x="37.5" y="-935.349" font-family="Times Roman,serif" font-size="14.00">HProp</text>
</g>
<!-- HProp_path_hprop -->
<g id="node1" class="node"><title>HProp_path_hprop</title>
<a xlink:href="HProp.html#path_hprop" xlink:title="path_hprop">
<ellipse fill="#f070d1" stroke="black" cx="1152" cy="-837.051" rx="67.1751" ry="18.3848"/>
<ellipse fill="none" stroke="black" cx="1152" cy="-837.051" rx="71.1751" ry="22.3848"/>
<ellipse fill="none" stroke="black" cx="1152" cy="-837.051" rx="75.1751" ry="26.3848"/>
<text text-anchor="middle" x="1152" y="-833.451" font-family="Times Roman,serif" font-size="14.00">path_hprop</text>
</a>
</g>
<!-- HProp_isequiv_ap_hproptype -->
<g id="node2" class="node"><title>HProp_isequiv_ap_hproptype</title>
<a xlink:href="HProp.html#isequiv_ap_hproptype" xlink:title="isequiv_ap_hproptype">
<ellipse fill="#f070d1" stroke="black" cx="1152" cy="-668.051" rx="118.087" ry="18.3848"/>
<text text-anchor="middle" x="1152" y="-664.451" font-family="Times Roman,serif" font-size="14.00">isequiv_ap_hproptype</text>
</a>
</g>
<!-- HProp_path_hprop&#45;&gt;HProp_isequiv_ap_hproptype -->
<g id="edge2" class="edge"><title>HProp_path_hprop&#45;&gt;HProp_isequiv_ap_hproptype</title>
<path fill="none" stroke="black" d="M1152,-810.272C1152,-779.467 1152,-729.057 1152,-697.262"/>
<polygon fill="black" stroke="black" points="1155.5,-696.855 1152,-686.855 1148.5,-696.855 1155.5,-696.855"/>
</g>
<!-- HProp_issig_hProp -->
<g id="node3" class="node"><title>HProp_issig_hProp</title>
<a xlink:href="HProp.html#issig_hProp" xlink:title="issig_hProp">
<ellipse fill="#f070d1" stroke="black" cx="1060" cy="-498.051" rx="65.9683" ry="18.3848"/>
<text text-anchor="middle" x="1060" y="-494.451" font-family="Times Roman,serif" font-size="14.00">issig_hProp</text>
</a>
</g>
<!-- HProp_isequiv_ap_hproptype&#45;&gt;HProp_issig_hProp -->
<g id="edge4" class="edge"><title>HProp_isequiv_ap_hproptype&#45;&gt;HProp_issig_hProp</title>
<path fill="none" stroke="black" d="M1141.98,-649.534C1125.8,-619.643 1093.85,-560.591 1074.96,-525.7"/>
<polygon fill="black" stroke="black" points="1077.85,-523.673 1070.01,-516.544 1071.69,-527.005 1077.85,-523.673"/>
</g>
<!-- HProp_isequiv_path_sigma_hprop -->
<g id="node11" class="node"><title>HProp_isequiv_path_sigma_hprop</title>
<a xlink:href="HProp.html#isequiv_path_sigma_hprop" xlink:title="isequiv_path_sigma_hprop">
<ellipse fill="#f070d1" stroke="black" cx="1778" cy="-498.051" rx="140.007" ry="18.3848"/>
<text text-anchor="middle" x="1778" y="-494.451" font-family="Times Roman,serif" font-size="14.00">isequiv_path_sigma_hprop</text>
</a>
</g>
<!-- HProp_isequiv_ap_hproptype&#45;&gt;HProp_isequiv_path_sigma_hprop -->
<g id="edge6" class="edge"><title>HProp_isequiv_ap_hproptype&#45;&gt;HProp_isequiv_path_sigma_hprop</title>
<path fill="none" stroke="black" d="M1211.17,-651.981C1326.76,-620.593 1582.09,-551.254 1706.74,-517.403"/>
<polygon fill="black" stroke="black" points="1707.84,-520.731 1716.57,-514.733 1706,-513.976 1707.84,-520.731"/>
</g>
<!-- HProp_path_sigma_hprop -->
<g id="node12" class="node"><title>HProp_path_sigma_hprop</title>
<a xlink:href="HProp.html#path_sigma_hprop" xlink:title="path_sigma_hprop">
<ellipse fill="#f070d1" stroke="black" cx="1245" cy="-498.051" rx="101.116" ry="18.3848"/>
<text text-anchor="middle" x="1245" y="-494.451" font-family="Times Roman,serif" font-size="14.00">path_sigma_hprop</text>
</a>
</g>
<!-- HProp_isequiv_ap_hproptype&#45;&gt;HProp_path_sigma_hprop -->
<g id="edge8" class="edge"><title>HProp_isequiv_ap_hproptype&#45;&gt;HProp_path_sigma_hprop</title>
<path fill="none" stroke="black" d="M1162.13,-649.534C1178.48,-619.643 1210.79,-560.591 1229.87,-525.7"/>
<polygon fill="black" stroke="black" points="1233.15,-526.997 1234.88,-516.544 1227.01,-523.638 1233.15,-526.997"/>
</g>
<!-- HProp_HProp_HProp -->
<g id="node16" class="node"><title>HProp_HProp_HProp</title>
<a xlink:href="HProp.html#HProp_HProp" xlink:title="HProp_HProp">
<ellipse fill="#f070d1" stroke="black" cx="900" cy="-498.051" rx="75.8684" ry="18.3848"/>
<text text-anchor="middle" x="900" y="-494.451" font-family="Times Roman,serif" font-size="14.00">HProp_HProp</text>
</a>
</g>
<!-- HProp_isequiv_ap_hproptype&#45;&gt;HProp_HProp_HProp -->
<g id="edge10" class="edge"><title>HProp_isequiv_ap_hproptype&#45;&gt;HProp_HProp_HProp</title>
<path fill="none" stroke="black" d="M1125.03,-649.858C1078.94,-618.765 985.091,-555.454 934.371,-521.238"/>
<polygon fill="black" stroke="black" points="936.267,-518.294 926.019,-515.603 932.352,-524.097 936.267,-518.294"/>
</g>
<!-- HProp_isp -->
<g id="node6" class="node"><title>HProp_isp</title>
<a xlink:href="HProp.html#isp" xlink:title="isp">
<ellipse fill="#f070d1" stroke="black" cx="1060" cy="-344.051" rx="27" ry="18.3848"/>
<text text-anchor="middle" x="1060" y="-340.451" font-family="Times Roman,serif" font-size="14.00">isp</text>
</a>
</g>
<!-- HProp_issig_hProp&#45;&gt;HProp_isp -->
<g id="edge12" class="edge"><title>HProp_issig_hProp&#45;&gt;HProp_isp</title>
<path fill="none" stroke="black" d="M1060,-479.475C1060,-452.997 1060,-404.16 1060,-372.937"/>
<polygon fill="black" stroke="black" points="1063.5,-372.692 1060,-362.692 1056.5,-372.692 1063.5,-372.692"/>
</g>
<!-- HProp_hp -->
<g id="node8" class="node"><title>HProp_hp</title>
<a xlink:href="HProp.html#hp" xlink:title="hp">
<ellipse fill="#7faaff" stroke="black" cx="1425" cy="-344.051" rx="27" ry="18.3848"/>
<text text-anchor="middle" x="1425" y="-340.451" font-family="Times Roman,serif" font-size="14.00">hp</text>
</a>
</g>
<!-- HProp_issig_hProp&#45;&gt;HProp_hp -->
<g id="edge14" class="edge"><title>HProp_issig_hProp&#45;&gt;HProp_hp</title>
<path fill="none" stroke="black" d="M1096.67,-482.579C1168,-452.482 1324.4,-386.495 1392.38,-357.815"/>
<polygon fill="black" stroke="black" points="1393.89,-360.975 1401.74,-353.863 1391.17,-354.525 1393.89,-360.975"/>
</g>
<!-- HProp_False_hp -->
<g id="node4" class="node"><title>HProp_False_hp</title>
<a xlink:href="HProp.html#False_hp" xlink:title="False_hp">
<ellipse fill="#f070d1" stroke="black" cx="1425" cy="-498.051" rx="53.033" ry="18.3848"/>
<ellipse fill="none" stroke="black" cx="1425" cy="-498.051" rx="57.033" ry="22.3848"/>
<ellipse fill="none" stroke="black" cx="1425" cy="-498.051" rx="61.033" ry="26.3848"/>
<text text-anchor="middle" x="1425" y="-494.451" font-family="Times Roman,serif" font-size="14.00">False_hp</text>
</a>
</g>
<!-- HProp_False_hp&#45;&gt;HProp_hp -->
<g id="edge16" class="edge"><title>HProp_False_hp&#45;&gt;HProp_hp</title>
<path fill="none" stroke="black" d="M1425,-471.226C1425,-443.717 1425,-401.075 1425,-372.863"/>
<polygon fill="black" stroke="black" points="1428.5,-372.818 1425,-362.818 1421.5,-372.819 1428.5,-372.818"/>
</g>
<!-- HProp_Unit_hp -->
<g id="node5" class="node"><title>HProp_Unit_hp</title>
<a xlink:href="HProp.html#Unit_hp" xlink:title="Unit_hp">
<ellipse fill="#f070d1" stroke="black" cx="1562" cy="-498.051" rx="50.2046" ry="18.3848"/>
<ellipse fill="none" stroke="black" cx="1562" cy="-498.051" rx="54.2046" ry="22.3848"/>
<ellipse fill="none" stroke="black" cx="1562" cy="-498.051" rx="58.2046" ry="26.3848"/>
<text text-anchor="middle" x="1562" y="-494.451" font-family="Times Roman,serif" font-size="14.00">Unit_hp</text>
</a>
</g>
<!-- HProp_Unit_hp&#45;&gt;HProp_hp -->
<g id="edge18" class="edge"><title>HProp_Unit_hp&#45;&gt;HProp_hp</title>
<path fill="none" stroke="black" d="M1539.99,-473.308C1514.13,-444.242 1471.54,-396.365 1446.09,-367.756"/>
<polygon fill="black" stroke="black" points="1448.65,-365.374 1439.39,-360.229 1443.42,-370.027 1448.65,-365.374"/>
</g>
<!-- HProp_hproptype -->
<g id="node7" class="node"><title>HProp_hproptype</title>
<a xlink:href="HProp.html#hproptype" xlink:title="hproptype">
<ellipse fill="#f070d1" stroke="black" cx="1060" cy="-205.051" rx="61.0181" ry="18.3848"/>
<text text-anchor="middle" x="1060" y="-201.451" font-family="Times Roman,serif" font-size="14.00">hproptype</text>
</a>
</g>
<!-- HProp_isp&#45;&gt;HProp_hproptype -->
<g id="edge20" class="edge"><title>HProp_isp&#45;&gt;HProp_hproptype</title>
<path fill="none" stroke="black" d="M1060,-325.304C1060,-301.884 1060,-261.557 1060,-234.119"/>
<polygon fill="black" stroke="black" points="1063.5,-233.944 1060,-223.944 1056.5,-233.944 1063.5,-233.944"/>
</g>
<!-- HProp_hProp -->
<g id="node9" class="node"><title>HProp_hProp</title>
<a xlink:href="HProp.html#hProp" xlink:title="hProp">
<ellipse fill="#e2cdfa" stroke="black" cx="1060" cy="-66.0506" rx="39.8075" ry="18.3848"/>
<text text-anchor="middle" x="1060" y="-62.4506" font-family="Times Roman,serif" font-size="14.00">hProp</text>
</a>
</g>
<!-- HProp_hproptype&#45;&gt;HProp_hProp -->
<g id="edge22" class="edge"><title>HProp_hproptype&#45;&gt;HProp_hProp</title>
<path fill="none" stroke="black" d="M1060,-186.304C1060,-162.884 1060,-122.557 1060,-95.1191"/>
<polygon fill="black" stroke="black" points="1063.5,-94.9436 1060,-84.9437 1056.5,-94.9437 1063.5,-94.9436"/>
</g>
<!-- HProp_equiv_path_sigma_hprop -->
<g id="node10" class="node"><title>HProp_equiv_path_sigma_hprop</title>
<a xlink:href="HProp.html#equiv_path_sigma_hprop" xlink:title="equiv_path_sigma_hprop">
<ellipse fill="#f070d1" stroke="black" cx="1649" cy="-668.051" rx="132.936" ry="18.3848"/>
<ellipse fill="none" stroke="black" cx="1649" cy="-668.051" rx="136.936" ry="22.3848"/>
<ellipse fill="none" stroke="black" cx="1649" cy="-668.051" rx="140.936" ry="26.3848"/>
<text text-anchor="middle" x="1649" y="-664.451" font-family="Times Roman,serif" font-size="14.00">equiv_path_sigma_hprop</text>
</a>
</g>
<!-- HProp_equiv_path_sigma_hprop&#45;&gt;HProp_isequiv_path_sigma_hprop -->
<g id="edge24" class="edge"><title>HProp_equiv_path_sigma_hprop&#45;&gt;HProp_isequiv_path_sigma_hprop</title>
<path fill="none" stroke="black" d="M1669.16,-641.488C1693.35,-609.599 1733.69,-556.441 1757.88,-524.571"/>
<polygon fill="black" stroke="black" points="1760.69,-526.649 1763.95,-516.567 1755.12,-522.418 1760.69,-526.649"/>
</g>
<!-- HProp_equiv_path_sigma_hprop&#45;&gt;HProp_path_sigma_hprop -->
<g id="edge26" class="edge"><title>HProp_equiv_path_sigma_hprop&#45;&gt;HProp_path_sigma_hprop</title>
<path fill="none" stroke="black" d="M1591.12,-643.694C1511.5,-610.193 1369.57,-550.468 1294.58,-518.914"/>
<polygon fill="black" stroke="black" points="1295.91,-515.677 1285.34,-515.024 1293.2,-522.129 1295.91,-515.677"/>
</g>
<!-- HProp_equiv_contr_inhabited_allpath -->
<g id="node13" class="node"><title>HProp_equiv_contr_inhabited_allpath</title>
<a xlink:href="HProp.html#equiv_contr_inhabited_allpath" xlink:title="equiv_contr_inhabited_allpath">
<ellipse fill="#f070d1" stroke="black" cx="589" cy="-837.051" rx="157.916" ry="18.3848"/>
<ellipse fill="none" stroke="black" cx="589" cy="-837.051" rx="161.904" ry="22.3848"/>
<ellipse fill="none" stroke="black" cx="589" cy="-837.051" rx="165.892" ry="26.3848"/>
<text text-anchor="middle" x="589" y="-833.451" font-family="Times Roman,serif" font-size="14.00">equiv_contr_inhabited_allpath</text>
</a>
</g>
<!-- HProp_equiv_contr_inhabited_hprop -->
<g id="node14" class="node"><title>HProp_equiv_contr_inhabited_hprop</title>
<a xlink:href="HProp.html#equiv_contr_inhabited_hprop" xlink:title="equiv_contr_inhabited_hprop">
<ellipse fill="#f070d1" stroke="black" cx="482" cy="-668.051" rx="152.942" ry="18.3848"/>
<text text-anchor="middle" x="482" y="-664.451" font-family="Times Roman,serif" font-size="14.00">equiv_contr_inhabited_hprop</text>
</a>
</g>
<!-- HProp_equiv_contr_inhabited_allpath&#45;&gt;HProp_equiv_contr_inhabited_hprop -->
<g id="edge28" class="edge"><title>HProp_equiv_contr_inhabited_allpath&#45;&gt;HProp_equiv_contr_inhabited_hprop</title>
<path fill="none" stroke="black" d="M572.281,-810.644C552.488,-779.382 519.675,-727.556 499.533,-695.742"/>
<polygon fill="black" stroke="black" points="502.269,-693.522 493.963,-686.945 496.355,-697.266 502.269,-693.522"/>
</g>
<!-- HProp_equiv_hprop_allpath -->
<g id="node19" class="node"><title>HProp_equiv_hprop_allpath</title>
<a xlink:href="HProp.html#equiv_hprop_allpath" xlink:title="equiv_hprop_allpath">
<ellipse fill="#f070d1" stroke="black" cx="696" cy="-498.051" rx="109.81" ry="18.3848"/>
<text text-anchor="middle" x="696" y="-494.451" font-family="Times Roman,serif" font-size="14.00">equiv_hprop_allpath</text>
</a>
</g>
<!-- HProp_equiv_contr_inhabited_allpath&#45;&gt;HProp_equiv_hprop_allpath -->
<g id="edge30" class="edge"><title>HProp_equiv_contr_inhabited_allpath&#45;&gt;HProp_equiv_hprop_allpath</title>
<path fill="none" stroke="black" d="M600.344,-810.413C612.152,-782.115 630.739,-735.913 644,-695.051 663.162,-636.003 680.49,-565.33 689.493,-526.722"/>
<polygon fill="black" stroke="black" points="692.963,-527.251 691.806,-516.719 686.143,-525.674 692.963,-527.251"/>
</g>
<!-- HProp_equiv_contr_inhabited_hprop&#45;&gt;HProp_HProp_HProp -->
<g id="edge32" class="edge"><title>HProp_equiv_contr_inhabited_hprop&#45;&gt;HProp_HProp_HProp</title>
<path fill="none" stroke="black" d="M525.943,-650.179C604.699,-618.149 769.304,-551.204 851.348,-517.837"/>
<polygon fill="black" stroke="black" points="852.988,-520.949 860.932,-513.939 850.351,-514.465 852.988,-520.949"/>
</g>
<!-- HProp_hprop_contr -->
<g id="node17" class="node"><title>HProp_hprop_contr</title>
<a xlink:href="HProp.html#hprop_contr" xlink:title="hprop_contr">
<ellipse fill="#f070d1" stroke="black" cx="86" cy="-344.051" rx="70.2092" ry="18.3848"/>
<text text-anchor="middle" x="86" y="-340.451" font-family="Times Roman,serif" font-size="14.00">hprop_contr</text>
</a>
</g>
<!-- HProp_equiv_contr_inhabited_hprop&#45;&gt;HProp_hprop_contr -->
<g id="edge34" class="edge"><title>HProp_equiv_contr_inhabited_hprop&#45;&gt;HProp_hprop_contr</title>
<path fill="none" stroke="black" d="M393.416,-652.908C273.83,-630.453 70.6341,-584.503 27,-525.051 -8.08857,-477.242 34.994,-407.534 63.9053,-370.111"/>
<polygon fill="black" stroke="black" points="66.7098,-372.207 70.1819,-362.197 61.2255,-367.857 66.7098,-372.207"/>
</g>
<!-- HProp_equiv_iff_hprop -->
<g id="node18" class="node"><title>HProp_equiv_iff_hprop</title>
<a xlink:href="HProp.html#equiv_iff_hprop" xlink:title="equiv_iff_hprop">
<ellipse fill="#f070d1" stroke="black" cx="482" cy="-498.051" rx="85.7684" ry="18.3848"/>
<text text-anchor="middle" x="482" y="-494.451" font-family="Times Roman,serif" font-size="14.00">equiv_iff_hprop</text>
</a>
</g>
<!-- HProp_equiv_contr_inhabited_hprop&#45;&gt;HProp_equiv_iff_hprop -->
<g id="edge36" class="edge"><title>HProp_equiv_contr_inhabited_hprop&#45;&gt;HProp_equiv_iff_hprop</title>
<path fill="none" stroke="black" d="M482,-649.534C482,-619.977 482,-561.905 482,-526.877"/>
<polygon fill="black" stroke="black" points="485.5,-526.803 482,-516.803 478.5,-526.803 485.5,-526.803"/>
</g>
<!-- HProp_contr_inhabited_hprop -->
<g id="node25" class="node"><title>HProp_contr_inhabited_hprop</title>
<a xlink:href="HProp.html#contr_inhabited_hprop" xlink:title="contr_inhabited_hprop">
<ellipse fill="#f070d1" stroke="black" cx="335" cy="-344.051" rx="121.122" ry="18.3848"/>
<text text-anchor="middle" x="335" y="-340.451" font-family="Times Roman,serif" font-size="14.00">contr_inhabited_hprop</text>
</a>
</g>
<!-- HProp_equiv_contr_inhabited_hprop&#45;&gt;HProp_contr_inhabited_hprop -->
<g id="edge38" class="edge"><title>HProp_equiv_contr_inhabited_hprop&#45;&gt;HProp_contr_inhabited_hprop</title>
<path fill="none" stroke="black" d="M466.768,-649.282C446.078,-622.965 409.14,-572.936 387,-525.051 374.361,-497.714 352.983,-415.984 341.989,-372.306"/>
<polygon fill="black" stroke="black" points="345.379,-371.434 339.555,-362.583 338.588,-373.133 345.379,-371.434"/>
</g>
<!-- HProp_equiv_hprop_inhabited_contr -->
<g id="node15" class="node"><title>HProp_equiv_hprop_inhabited_contr</title>
<a xlink:href="HProp.html#equiv_hprop_inhabited_contr" xlink:title="equiv_hprop_inhabited_contr">
<ellipse fill="#f070d1" stroke="black" cx="197" cy="-498.051" rx="152.967" ry="18.3848"/>
<ellipse fill="none" stroke="black" cx="197" cy="-498.051" rx="156.955" ry="22.3848"/>
<ellipse fill="none" stroke="black" cx="197" cy="-498.051" rx="160.942" ry="26.3848"/>
<text text-anchor="middle" x="197" y="-494.451" font-family="Times Roman,serif" font-size="14.00">equiv_hprop_inhabited_contr</text>
</a>
</g>
<!-- HProp_contr_contr -->
<g id="node23" class="node"><title>HProp_contr_contr</title>
<a xlink:href="HProp.html#contr_contr" xlink:title="contr_contr">
<ellipse fill="#facdef" stroke="black" cx="603" cy="-205.051" rx="67.8823" ry="18.3848"/>
<text text-anchor="middle" x="603" y="-201.451" font-family="Times Roman,serif" font-size="14.00">contr_contr</text>
</a>
</g>
<!-- HProp_equiv_hprop_inhabited_contr&#45;&gt;HProp_contr_contr -->
<g id="edge40" class="edge"><title>HProp_equiv_hprop_inhabited_contr&#45;&gt;HProp_contr_contr</title>
<path fill="none" stroke="black" d="M194.612,-471.267C191.376,-428.437 187.81,-347.105 205,-325.051 245.576,-272.994 431.346,-234.066 534.118,-216.08"/>
<polygon fill="black" stroke="black" points="534.843,-219.507 544.1,-214.354 533.65,-212.609 534.843,-219.507"/>
</g>
<!-- HProp_hprop_inhabited_contr -->
<g id="node24" class="node"><title>HProp_hprop_inhabited_contr</title>
<a xlink:href="HProp.html#hprop_inhabited_contr" xlink:title="hprop_inhabited_contr">
<ellipse fill="#f070d1" stroke="black" cx="175" cy="-205.051" rx="121.122" ry="18.3848"/>
<text text-anchor="middle" x="175" y="-201.451" font-family="Times Roman,serif" font-size="14.00">hprop_inhabited_contr</text>
</a>
</g>
<!-- HProp_equiv_hprop_inhabited_contr&#45;&gt;HProp_hprop_inhabited_contr -->
<g id="edge42" class="edge"><title>HProp_equiv_hprop_inhabited_contr&#45;&gt;HProp_hprop_inhabited_contr</title>
<path fill="none" stroke="black" d="M195.009,-471.532C190.885,-416.611 181.44,-290.816 177.168,-233.929"/>
<polygon fill="black" stroke="black" points="180.649,-233.535 176.41,-223.826 173.668,-234.06 180.649,-233.535"/>
</g>
<!-- HProp_equiv_hprop_inhabited_contr&#45;&gt;HProp_contr_inhabited_hprop -->
<g id="edge44" class="edge"><title>HProp_equiv_hprop_inhabited_contr&#45;&gt;HProp_contr_inhabited_hprop</title>
<path fill="none" stroke="black" d="M220.723,-471.577C246.222,-443.121 286.492,-398.182 311.791,-369.95"/>
<polygon fill="black" stroke="black" points="314.438,-372.241 318.505,-362.458 309.225,-367.57 314.438,-372.241"/>
</g>
<!-- HProp_hprop_trunc -->
<g id="node22" class="node"><title>HProp_hprop_trunc</title>
<a xlink:href="HProp.html#hprop_trunc" xlink:title="hprop_trunc">
<ellipse fill="#facdef" stroke="black" cx="913" cy="-344.051" rx="70.9184" ry="18.3848"/>
<text text-anchor="middle" x="913" y="-340.451" font-family="Times Roman,serif" font-size="14.00">hprop_trunc</text>
</a>
</g>
<!-- HProp_HProp_HProp&#45;&gt;HProp_hprop_trunc -->
<g id="edge46" class="edge"><title>HProp_HProp_HProp&#45;&gt;HProp_hprop_trunc</title>
<path fill="none" stroke="black" d="M901.568,-479.475C903.803,-452.997 907.926,-404.16 910.562,-372.937"/>
<polygon fill="black" stroke="black" points="914.073,-372.951 911.426,-362.692 907.097,-372.363 914.073,-372.951"/>
</g>
<!-- HProp_hprop_contr&#45;&gt;HProp_contr_contr -->
<g id="edge48" class="edge"><title>HProp_hprop_contr&#45;&gt;HProp_contr_contr</title>
<path fill="none" stroke="black" d="M135.104,-330.848C230.847,-305.107 442.062,-248.32 544.715,-220.721"/>
<polygon fill="black" stroke="black" points="545.852,-224.04 554.6,-218.063 544.034,-217.28 545.852,-224.04"/>
</g>
<!-- HProp_hprop_contr&#45;&gt;HProp_hprop_inhabited_contr -->
<g id="edge50" class="edge"><title>HProp_hprop_contr&#45;&gt;HProp_hprop_inhabited_contr</title>
<path fill="none" stroke="black" d="M97.8185,-325.592C113.112,-301.707 139.884,-259.895 157.528,-232.338"/>
<polygon fill="black" stroke="black" points="160.688,-233.894 163.133,-223.585 154.793,-230.119 160.688,-233.894"/>
</g>
<!-- HProp_allpath_hprop -->
<g id="node21" class="node"><title>HProp_allpath_hprop</title>
<a xlink:href="HProp.html#allpath_hprop" xlink:title="allpath_hprop">
<ellipse fill="#f070d1" stroke="black" cx="552" cy="-344.051" rx="77.9889" ry="18.3848"/>
<text text-anchor="middle" x="552" y="-340.451" font-family="Times Roman,serif" font-size="14.00">allpath_hprop</text>
</a>
</g>
<!-- HProp_equiv_iff_hprop&#45;&gt;HProp_allpath_hprop -->
<g id="edge52" class="edge"><title>HProp_equiv_iff_hprop&#45;&gt;HProp_allpath_hprop</title>
<path fill="none" stroke="black" d="M490.444,-479.475C502.584,-452.766 525.066,-403.306 539.24,-372.123"/>
<polygon fill="black" stroke="black" points="542.575,-373.244 543.526,-362.692 536.202,-370.348 542.575,-373.244"/>
</g>
<!-- HProp_hprop_allpath -->
<g id="node20" class="node"><title>HProp_hprop_allpath</title>
<a xlink:href="HProp.html#hprop_allpath" xlink:title="hprop_allpath">
<ellipse fill="#f070d1" stroke="black" cx="726" cy="-344.051" rx="77.9889" ry="18.3848"/>
<text text-anchor="middle" x="726" y="-340.451" font-family="Times Roman,serif" font-size="14.00">hprop_allpath</text>
</a>
</g>
<!-- HProp_equiv_hprop_allpath&#45;&gt;HProp_hprop_allpath -->
<g id="edge54" class="edge"><title>HProp_equiv_hprop_allpath&#45;&gt;HProp_hprop_allpath</title>
<path fill="none" stroke="black" d="M699.619,-479.475C704.799,-452.881 714.373,-403.733 720.452,-372.529"/>
<polygon fill="black" stroke="black" points="723.892,-373.177 722.368,-362.692 717.021,-371.839 723.892,-373.177"/>
</g>
<!-- HProp_equiv_hprop_allpath&#45;&gt;HProp_allpath_hprop -->
<g id="edge56" class="edge"><title>HProp_equiv_hprop_allpath&#45;&gt;HProp_allpath_hprop</title>
<path fill="none" stroke="black" d="M678.63,-479.475C652.977,-452.04 604.879,-400.601 575.911,-369.622"/>
<polygon fill="black" stroke="black" points="578.371,-367.128 568.984,-362.214 573.258,-371.909 578.371,-367.128"/>
</g>
<!-- HProp_equiv_hprop_allpath&#45;&gt;HProp_contr_contr -->
<g id="edge58" class="edge"><title>HProp_equiv_hprop_allpath&#45;&gt;HProp_contr_contr</title>
<path fill="none" stroke="black" d="M723.977,-480.15C768.498,-449.323 847.123,-383.851 813,-325.051 780.891,-269.722 712.63,-237.748 662.614,-220.927"/>
<polygon fill="black" stroke="black" points="663.463,-217.522 652.871,-217.762 661.3,-224.18 663.463,-217.522"/>
</g>
<!-- HProp_equiv_hprop_allpath&#45;&gt;HProp_contr_inhabited_hprop -->
<g id="edge60" class="edge"><title>HProp_equiv_hprop_allpath&#45;&gt;HProp_contr_inhabited_hprop</title>
<path fill="none" stroke="black" d="M655.64,-480.833C589.345,-452.552 457.557,-396.333 385.292,-365.505"/>
<polygon fill="black" stroke="black" points="386.501,-362.216 375.93,-361.511 383.755,-368.654 386.501,-362.216"/>
</g>
<!-- HProp_hprop_trunc&#45;&gt;HProp_contr_contr -->
<g id="edge62" class="edge"><title>HProp_hprop_trunc&#45;&gt;HProp_contr_contr</title>
<path fill="none" stroke="black" d="M877.136,-327.97C820.288,-302.48 709.6,-252.849 647.678,-225.084"/>
<polygon fill="black" stroke="black" points="649.098,-221.885 638.541,-220.987 646.234,-228.272 649.098,-221.885"/>
</g>
<!-- HProp_hprop_trunc&#45;&gt;HProp_hprop_inhabited_contr -->
<g id="edge64" class="edge"><title>HProp_hprop_trunc&#45;&gt;HProp_hprop_inhabited_contr</title>
<path fill="none" stroke="black" d="M855.628,-333.131C841.679,-330.481 826.804,-327.66 813,-325.051 615.879,-287.786 384.44,-244.329 261.701,-221.305"/>
<polygon fill="black" stroke="black" points="262.084,-217.816 251.61,-219.413 260.794,-224.696 262.084,-217.816"/>
</g>
</g>
</svg>
