<?xml version="1.0" encoding="UTF-8" standalone="no"?>
<!DOCTYPE svg PUBLIC "-//W3C//DTD SVG 1.1//EN"
 "http://www.w3.org/Graphics/SVG/1.1/DTD/svg11.dtd">
<!-- Generated by graphviz version 2.26.3 (20100126.1600)
 -->
<!-- Title: HoTT_categories_FunctorCategory_Functorial Pages: 1 -->
<svg width="380pt" height="194pt"
 viewBox="0.00 0.00 380.00 194.00" xmlns="http://www.w3.org/2000/svg" xmlns:xlink="http://www.w3.org/1999/xlink">
<g id="graph1" class="graph" transform="scale(1 1) rotate(0) translate(4 190)">
<title>HoTT_categories_FunctorCategory_Functorial</title>
<polygon fill="white" stroke="white" points="-4,5 -4,-190 377,-190 377,5 -4,5"/>
<g id="graph2" class="cluster"><title>cluster_Functorial</title>
<polygon fill="#ffffc3" stroke="black" points="12.9391,-8 12.9391,-178 359.061,-178 359.061,-8 12.9391,-8"/>
<text text-anchor="middle" x="55.4391" y="-161.4" font-family="Times Roman,serif" font-size="14.00">Functorial</text>
</g>
<!-- Functorial_functor -->
<g id="node1" class="node"><title>Functorial_functor</title>
<a xlink:href="Functorial.html#functor" xlink:title="functor">
<ellipse fill="#f070d1" stroke="black" cx="185.6" cy="-117" rx="46.2409" ry="18.3848"/>
<ellipse fill="none" stroke="black" cx="185.6" cy="-117" rx="50.2042" ry="22.3848"/>
<ellipse fill="none" stroke="black" cx="185.6" cy="-117" rx="54.1675" ry="26.3848"/>
<text text-anchor="middle" x="185.6" y="-113.4" font-family="Times Roman,serif" font-size="14.00">functor</text>
</a>
</g>
<!-- Functorial_functor_uncurried -->
<g id="node2" class="node"><title>Functorial_functor_uncurried</title>
<a xlink:href="Functorial.html#functor_uncurried" xlink:title="functor_uncurried">
<ellipse fill="#f070d1" stroke="black" cx="185.6" cy="-35" rx="98.9949" ry="18.3848"/>
<text text-anchor="middle" x="185.6" y="-31.4" font-family="Times Roman,serif" font-size="14.00">functor_uncurried</text>
</a>
</g>
<!-- Functorial_functor&#45;&gt;Functorial_functor_uncurried -->
<g id="edge2" class="edge"><title>Functorial_functor&#45;&gt;Functorial_functor_uncurried</title>
<path fill="none" stroke="black" d="M185.6,-90.1501C185.6,-81.7426 185.6,-72.4303 185.6,-63.8885"/>
<polygon fill="black" stroke="black" points="189.1,-63.607 185.6,-53.6071 182.1,-63.6071 189.1,-63.607"/>
</g>
</g>
</svg>
