<?xml version="1.0" encoding="UTF-8" standalone="no"?>
<!DOCTYPE svg PUBLIC "-//W3C//DTD SVG 1.1//EN"
 "http://www.w3.org/Graphics/SVG/1.1/DTD/svg11.dtd">
<!-- Generated by graphviz version 2.26.3 (20100126.1600)
 -->
<!-- Title: HoTT_categories_Functor_Core Pages: 1 -->
<svg width="676pt" height="342pt"
 viewBox="0.00 0.00 676.00 342.00" xmlns="http://www.w3.org/2000/svg" xmlns:xlink="http://www.w3.org/1999/xlink">
<g id="graph1" class="graph" transform="scale(1 1) rotate(0) translate(4 338)">
<title>HoTT_categories_Functor_Core</title>
<polygon fill="white" stroke="white" points="-4,5 -4,-338 673,-338 673,5 -4,5"/>
<g id="graph2" class="cluster"><title>cluster_Core</title>
<polygon fill="#ffffc3" stroke="black" points="9.4417,-8 9.4417,-326 658.558,-326 658.558,-8 9.4417,-8"/>
<text text-anchor="middle" x="33.9417" y="-309.4" font-family="Times Roman,serif" font-size="14.00">Core</text>
</g>
<!-- Core_identity_of -->
<g id="node1" class="node"><title>Core_identity_of</title>
<a xlink:href="Core.html#identity_of" xlink:title="identity_of">
<ellipse fill="#f070d1" stroke="black" cx="564.859" cy="-265" rx="63.1946" ry="18.3848"/>
<ellipse fill="none" stroke="black" cx="564.859" cy="-265" rx="67.1666" ry="22.3848"/>
<ellipse fill="none" stroke="black" cx="564.859" cy="-265" rx="71.1386" ry="26.3848"/>
<text text-anchor="middle" x="564.859" y="-261.4" font-family="Times Roman,serif" font-size="14.00">identity_of</text>
</a>
</g>
<!-- Core_morphism_of -->
<g id="node3" class="node"><title>Core_morphism_of</title>
<a xlink:href="Core.html#morphism_of" xlink:title="morphism_of">
<ellipse fill="#f070d1" stroke="black" cx="456.859" cy="-183" rx="73.0388" ry="18.3848"/>
<text text-anchor="middle" x="456.859" y="-179.4" font-family="Times Roman,serif" font-size="14.00">morphism_of</text>
</a>
</g>
<!-- Core_identity_of&#45;&gt;Core_morphism_of -->
<g id="edge2" class="edge"><title>Core_identity_of&#45;&gt;Core_morphism_of</title>
<path fill="none" stroke="black" d="M533.33,-241.062C519.07,-230.234 502.264,-217.474 488.044,-206.678"/>
<polygon fill="black" stroke="black" points="490.091,-203.837 480.01,-200.578 485.858,-209.412 490.091,-203.837"/>
</g>
<!-- Core_composition_of -->
<g id="node2" class="node"><title>Core_composition_of</title>
<a xlink:href="Core.html#composition_of" xlink:title="composition_of">
<ellipse fill="#f070d1" stroke="black" cx="351.859" cy="-265" rx="84.1457" ry="18.3848"/>
<ellipse fill="none" stroke="black" cx="351.859" cy="-265" rx="88.1457" ry="22.3848"/>
<ellipse fill="none" stroke="black" cx="351.859" cy="-265" rx="92.1457" ry="26.3848"/>
<text text-anchor="middle" x="351.859" y="-261.4" font-family="Times Roman,serif" font-size="14.00">composition_of</text>
</a>
</g>
<!-- Core_composition_of&#45;&gt;Core_morphism_of -->
<g id="edge4" class="edge"><title>Core_composition_of&#45;&gt;Core_morphism_of</title>
<path fill="none" stroke="black" d="M383.933,-239.952C397.418,-229.421 413.032,-217.226 426.345,-206.83"/>
<polygon fill="black" stroke="black" points="428.57,-209.533 434.297,-200.619 424.262,-204.016 428.57,-209.533"/>
</g>
<!-- Core_object_of -->
<g id="node4" class="node"><title>Core_object_of</title>
<a xlink:href="Core.html#object_of" xlink:title="object_of">
<ellipse fill="#f070d1" stroke="black" cx="456.859" cy="-109" rx="55.1543" ry="18.3848"/>
<text text-anchor="middle" x="456.859" y="-105.4" font-family="Times Roman,serif" font-size="14.00">object_of</text>
</a>
</g>
<!-- Core_morphism_of&#45;&gt;Core_object_of -->
<g id="edge6" class="edge"><title>Core_morphism_of&#45;&gt;Core_object_of</title>
<path fill="none" stroke="black" d="M456.859,-164.327C456.859,-156.264 456.859,-146.648 456.859,-137.711"/>
<polygon fill="black" stroke="black" points="460.359,-137.667 456.859,-127.667 453.359,-137.667 460.359,-137.667"/>
</g>
<!-- Core_Functor -->
<g id="node6" class="node"><title>Core_Functor</title>
<a xlink:href="Core.html#Functor" xlink:title="Functor">
<ellipse fill="#e2cdfa" stroke="black" cx="456.859" cy="-35" rx="48.7904" ry="18.3848"/>
<text text-anchor="middle" x="456.859" y="-31.4" font-family="Times Roman,serif" font-size="14.00">Functor</text>
</a>
</g>
<!-- Core_object_of&#45;&gt;Core_Functor -->
<g id="edge8" class="edge"><title>Core_object_of&#45;&gt;Core_Functor</title>
<path fill="none" stroke="black" d="M456.859,-90.3267C456.859,-82.2639 456.859,-72.6477 456.859,-63.7115"/>
<polygon fill="black" stroke="black" points="460.359,-63.6673 456.859,-53.6674 453.359,-63.6674 460.359,-63.6673"/>
</g>
<!-- Core_Build_Functor -->
<g id="node5" class="node"><title>Core_Build_Functor</title>
<a xlink:href="Core.html#Build_Functor" xlink:title="Build_Functor">
<ellipse fill="#7faaff" stroke="black" cx="120.859" cy="-265" rx="78.0352" ry="18.3848"/>
<ellipse fill="none" stroke="black" cx="120.859" cy="-265" rx="82.012" ry="22.3848"/>
<ellipse fill="none" stroke="black" cx="120.859" cy="-265" rx="85.9889" ry="26.3848"/>
<text text-anchor="middle" x="120.859" y="-261.4" font-family="Times Roman,serif" font-size="14.00">Build_Functor</text>
</a>
</g>
</g>
</svg>
