<?xml version="1.0" encoding="UTF-8" standalone="no"?>
<!DOCTYPE svg PUBLIC "-//W3C//DTD SVG 1.1//EN"
 "http://www.w3.org/Graphics/SVG/1.1/DTD/svg11.dtd">
<!-- Generated by graphviz version 2.26.3 (20100126.1600)
 -->
<!-- Title: HoTT_categories_Pseudofunctor_Core Pages: 1 -->
<svg width="1260pt" height="634pt"
 viewBox="0.00 0.00 1260.00 634.00" xmlns="http://www.w3.org/2000/svg" xmlns:xlink="http://www.w3.org/1999/xlink">
<g id="graph1" class="graph" transform="scale(1 1) rotate(0) translate(4 630)">
<title>HoTT_categories_Pseudofunctor_Core</title>
<polygon fill="white" stroke="white" points="-4,5 -4,-630 1257,-630 1257,5 -4,5"/>
<g id="graph2" class="cluster"><title>cluster_Core</title>
<polygon fill="#ffffc3" stroke="black" points="8,-12.2745 8,-613.725 1244,-613.725 1244,-12.2745 8,-12.2745"/>
<text text-anchor="middle" x="32.5" y="-597.125" font-family="Times Roman,serif" font-size="14.00">Core</text>
</g>
<!-- Core_p_right_identity_of_coherent -->
<g id="node1" class="node"><title>Core_p_right_identity_of_coherent</title>
<a xlink:href="Core.html#p_right_identity_of_coherent" xlink:title="p_right_identity_of_coherent">
<ellipse fill="#f070d1" stroke="black" cx="1076" cy="-520.275" rx="152.028" ry="18.3848"/>
<ellipse fill="none" stroke="black" cx="1076" cy="-520.275" rx="156.028" ry="22.3848"/>
<ellipse fill="none" stroke="black" cx="1076" cy="-520.275" rx="160.028" ry="26.3848"/>
<text text-anchor="middle" x="1076" y="-516.675" font-family="Times Roman,serif" font-size="14.00">p_right_identity_of_coherent</text>
</a>
</g>
<!-- Core_p_identity_of -->
<g id="node4" class="node"><title>Core_p_identity_of</title>
<a xlink:href="Core.html#p_identity_of" xlink:title="p_identity_of">
<ellipse fill="#f070d1" stroke="black" cx="933" cy="-394.275" rx="74.9533" ry="18.3848"/>
<text text-anchor="middle" x="933" y="-390.675" font-family="Times Roman,serif" font-size="14.00">p_identity_of</text>
</a>
</g>
<!-- Core_p_right_identity_of_coherent&#45;&gt;Core_p_identity_of -->
<g id="edge2" class="edge"><title>Core_p_right_identity_of_coherent&#45;&gt;Core_p_identity_of</title>
<path fill="none" stroke="black" d="M1046.37,-494.167C1021.27,-472.053 985.546,-440.574 960.94,-418.893"/>
<polygon fill="black" stroke="black" points="963.187,-416.208 953.37,-412.223 958.559,-421.46 963.187,-416.208"/>
</g>
<!-- Core_p_composition_of -->
<g id="node5" class="node"><title>Core_p_composition_of</title>
<a xlink:href="Core.html#p_composition_of" xlink:title="p_composition_of">
<ellipse fill="#f070d1" stroke="black" cx="745" cy="-394.275" rx="94.7523" ry="18.3848"/>
<text text-anchor="middle" x="745" y="-390.675" font-family="Times Roman,serif" font-size="14.00">p_composition_of</text>
</a>
</g>
<!-- Core_p_right_identity_of_coherent&#45;&gt;Core_p_composition_of -->
<g id="edge4" class="edge"><title>Core_p_right_identity_of_coherent&#45;&gt;Core_p_composition_of</title>
<path fill="none" stroke="black" d="M1011.79,-495.831C949.457,-472.104 855.982,-436.522 797.834,-414.387"/>
<polygon fill="black" stroke="black" points="799.053,-411.106 788.462,-410.819 796.563,-417.648 799.053,-411.106"/>
</g>
<!-- Core_p_left_identity_of_coherent -->
<g id="node2" class="node"><title>Core_p_left_identity_of_coherent</title>
<a xlink:href="Core.html#p_left_identity_of_coherent" xlink:title="p_left_identity_of_coherent">
<ellipse fill="#f070d1" stroke="black" cx="745" cy="-520.275" rx="144.957" ry="18.3848"/>
<ellipse fill="none" stroke="black" cx="745" cy="-520.275" rx="148.957" ry="22.3848"/>
<ellipse fill="none" stroke="black" cx="745" cy="-520.275" rx="152.957" ry="26.3848"/>
<text text-anchor="middle" x="745" y="-516.675" font-family="Times Roman,serif" font-size="14.00">p_left_identity_of_coherent</text>
</a>
</g>
<!-- Core_p_left_identity_of_coherent&#45;&gt;Core_p_identity_of -->
<g id="edge6" class="edge"><title>Core_p_left_identity_of_coherent&#45;&gt;Core_p_identity_of</title>
<path fill="none" stroke="black" d="M783.498,-494.472C817.323,-471.803 866.085,-439.122 898.62,-417.316"/>
<polygon fill="black" stroke="black" points="900.573,-420.221 906.931,-411.746 896.676,-414.406 900.573,-420.221"/>
</g>
<!-- Core_p_left_identity_of_coherent&#45;&gt;Core_p_composition_of -->
<g id="edge8" class="edge"><title>Core_p_left_identity_of_coherent&#45;&gt;Core_p_composition_of</title>
<path fill="none" stroke="black" d="M745,-493.553C745,-472.789 745,-444.049 745,-422.833"/>
<polygon fill="black" stroke="black" points="748.5,-422.799 745,-412.799 741.5,-422.799 748.5,-422.799"/>
</g>
<!-- Core_p_composition_of_coherent -->
<g id="node3" class="node"><title>Core_p_composition_of_coherent</title>
<a xlink:href="Core.html#p_composition_of_coherent" xlink:title="p_composition_of_coherent">
<ellipse fill="#f070d1" stroke="black" cx="423" cy="-520.275" rx="143.069" ry="18.3848"/>
<ellipse fill="none" stroke="black" cx="423" cy="-520.275" rx="147.056" ry="22.3848"/>
<ellipse fill="none" stroke="black" cx="423" cy="-520.275" rx="151.043" ry="26.3848"/>
<text text-anchor="middle" x="423" y="-516.675" font-family="Times Roman,serif" font-size="14.00">p_composition_of_coherent</text>
</a>
</g>
<!-- Core_p_composition_of_coherent&#45;&gt;Core_p_composition_of -->
<g id="edge10" class="edge"><title>Core_p_composition_of_coherent&#45;&gt;Core_p_composition_of</title>
<path fill="none" stroke="black" d="M485.085,-495.98C545.55,-472.32 636.406,-436.768 693.126,-414.573"/>
<polygon fill="black" stroke="black" points="694.577,-417.764 702.614,-410.86 692.027,-411.245 694.577,-417.764"/>
</g>
<!-- Core_p_morphism_of -->
<g id="node6" class="node"><title>Core_p_morphism_of</title>
<a xlink:href="Core.html#p_morphism_of" xlink:title="p_morphism_of">
<ellipse fill="#f070d1" stroke="black" cx="839" cy="-281.275" rx="84.8528" ry="18.3848"/>
<text text-anchor="middle" x="839" y="-277.675" font-family="Times Roman,serif" font-size="14.00">p_morphism_of</text>
</a>
</g>
<!-- Core_p_identity_of&#45;&gt;Core_p_morphism_of -->
<g id="edge12" class="edge"><title>Core_p_identity_of&#45;&gt;Core_p_morphism_of</title>
<path fill="none" stroke="black" d="M917.897,-376.119C902.503,-357.613 878.465,-328.716 860.965,-307.68"/>
<polygon fill="black" stroke="black" points="863.463,-305.21 854.378,-299.76 858.082,-309.686 863.463,-305.21"/>
</g>
<!-- Core_p_composition_of&#45;&gt;Core_p_morphism_of -->
<g id="edge14" class="edge"><title>Core_p_composition_of&#45;&gt;Core_p_morphism_of</title>
<path fill="none" stroke="black" d="M760.312,-375.868C775.743,-357.317 799.706,-328.511 817.134,-307.56"/>
<polygon fill="black" stroke="black" points="819.99,-309.6 823.695,-299.674 814.609,-305.123 819.99,-309.6"/>
</g>
<!-- Core_p_object_of -->
<g id="node7" class="node"><title>Core_p_object_of</title>
<a xlink:href="Core.html#p_object_of" xlink:title="p_object_of">
<ellipse fill="#f070d1" stroke="black" cx="839" cy="-167.275" rx="65.9683" ry="18.3848"/>
<text text-anchor="middle" x="839" y="-163.675" font-family="Times Roman,serif" font-size="14.00">p_object_of</text>
</a>
</g>
<!-- Core_p_morphism_of&#45;&gt;Core_p_object_of -->
<g id="edge16" class="edge"><title>Core_p_morphism_of&#45;&gt;Core_p_object_of</title>
<path fill="none" stroke="black" d="M839,-262.705C839,-244.652 839,-216.974 839,-196.066"/>
<polygon fill="black" stroke="black" points="842.5,-195.836 839,-185.836 835.5,-195.836 842.5,-195.836"/>
</g>
<!-- Core_Pseudofunctor -->
<g id="node9" class="node"><title>Core_Pseudofunctor</title>
<a xlink:href="Core.html#Pseudofunctor" xlink:title="Pseudofunctor">
<ellipse fill="#e2cdfa" stroke="black" cx="839" cy="-53.2745" rx="82.0244" ry="18.3848"/>
<text text-anchor="middle" x="839" y="-49.6745" font-family="Times Roman,serif" font-size="14.00">Pseudofunctor</text>
</a>
</g>
<!-- Core_p_object_of&#45;&gt;Core_Pseudofunctor -->
<g id="edge18" class="edge"><title>Core_p_object_of&#45;&gt;Core_Pseudofunctor</title>
<path fill="none" stroke="black" d="M839,-148.705C839,-130.652 839,-102.974 839,-82.0659"/>
<polygon fill="black" stroke="black" points="842.5,-81.8363 839,-71.8364 835.5,-81.8364 842.5,-81.8363"/>
</g>
<!-- Core_Build_Pseudofunctor -->
<g id="node8" class="node"><title>Core_Build_Pseudofunctor</title>
<a xlink:href="Core.html#Build_Pseudofunctor" xlink:title="Build_Pseudofunctor">
<ellipse fill="#7faaff" stroke="black" cx="135" cy="-520.275" rx="111.255" ry="18.3848"/>
<ellipse fill="none" stroke="black" cx="135" cy="-520.275" rx="115.239" ry="22.3848"/>
<ellipse fill="none" stroke="black" cx="135" cy="-520.275" rx="119.222" ry="26.3848"/>
<text text-anchor="middle" x="135" y="-516.675" font-family="Times Roman,serif" font-size="14.00">Build_Pseudofunctor</text>
</a>
</g>
</g>
</svg>
