<?xml version="1.0" encoding="UTF-8" standalone="no"?>
<!DOCTYPE svg PUBLIC "-//W3C//DTD SVG 1.1//EN"
 "http://www.w3.org/Graphics/SVG/1.1/DTD/svg11.dtd">
<!-- Generated by graphviz version 2.39.20161220.0128 (20161220.0128)
 -->
<!-- Title: HoTT_Categories_Functor_Paths Pages: 1 -->
<svg width="922pt" height="465pt"
 viewBox="0.00 0.00 922.00 465.00" xmlns="http://www.w3.org/2000/svg" xmlns:xlink="http://www.w3.org/1999/xlink">
<g id="graph0" class="graph" transform="scale(1 1) rotate(0) translate(4 461)">
<title>HoTT_Categories_Functor_Paths</title>
<polygon fill="#ffffff" stroke="transparent" points="-4,4 -4,-461 918,-461 918,4 -4,4"/>
<g id="clust1" class="cluster">
<title>cluster_Paths</title>
<polygon fill="#ffffc3" stroke="#000000" points="8,-8.8954 8,-448.1046 906,-448.1046 906,-8.8954 8,-8.8954"/>
<text text-anchor="middle" x="31" y="-432.9046" font-family="Times,serif" font-size="14.00" fill="#000000">Paths</text>
</g>
<!-- Paths_trunc_functor -->
<g id="node1" class="node">
<title>Paths_trunc_functor</title>
<g id="a_node1"><a xlink:href="Paths.html#trunc_functor" xlink:title="trunc_functor">
<ellipse fill="#facdef" stroke="#000000" cx="827" cy="-384.8954" rx="58.4902" ry="18"/>
<ellipse fill="none" stroke="#000000" cx="827" cy="-384.8954" rx="62.4899" ry="22"/>
<ellipse fill="none" stroke="#000000" cx="827" cy="-384.8954" rx="66.4896" ry="26"/>
<text text-anchor="middle" x="827" y="-381.1954" font-family="Times,serif" font-size="14.00" fill="#000000">trunc_functor</text>
</a>
</g>
</g>
<!-- Paths_equiv_sig_functor -->
<g id="node14" class="node">
<title>Paths_equiv_sig_functor</title>
<g id="a_node14"><a xlink:href="Paths.html#equiv_sig_functor" xlink:title="equiv_sig_functor">
<ellipse fill="#f070d1" stroke="#000000" cx="823" cy="-286.8954" rx="74.9875" ry="18"/>
<text text-anchor="middle" x="823" y="-283.1954" font-family="Times,serif" font-size="14.00" fill="#000000">equiv_sig_functor</text>
</a>
</g>
</g>
<!-- Paths_trunc_functor&#45;&gt;Paths_equiv_sig_functor -->
<g id="edge1" class="edge">
<title>Paths_trunc_functor&#45;&gt;Paths_equiv_sig_functor</title>
<path fill="none" stroke="#000000" d="M825.9386,-358.8905C825.3907,-345.4673 824.7213,-329.0667 824.1598,-315.3111"/>
<polygon fill="#000000" stroke="#000000" points="827.6421,-314.8028 823.7371,-304.9539 820.6479,-315.0884 827.6421,-314.8028"/>
</g>
<!-- Paths_isequiv_path_path_functor_uncurried -->
<g id="node2" class="node">
<title>Paths_isequiv_path_path_functor_uncurried</title>
<g id="a_node2"><a xlink:href="Paths.html#isequiv_path_path_functor_uncurried" xlink:title="isequiv_path_path_functor_uncurried">
<ellipse fill="#f070d1" stroke="#000000" cx="592" cy="-384.8954" rx="142.9753" ry="18"/>
<ellipse fill="none" stroke="#000000" cx="592" cy="-384.8954" rx="146.975" ry="22"/>
<ellipse fill="none" stroke="#000000" cx="592" cy="-384.8954" rx="150.9746" ry="26"/>
<text text-anchor="middle" x="592" y="-381.1954" font-family="Times,serif" font-size="14.00" fill="#000000">isequiv_path_path_functor_uncurried</text>
</a>
</g>
</g>
<!-- Paths_path_path_functor_uncurried -->
<g id="node3" class="node">
<title>Paths_path_path_functor_uncurried</title>
<g id="a_node3"><a xlink:href="Paths.html#path_path_functor_uncurried" xlink:title="path_path_functor_uncurried">
<ellipse fill="#f070d1" stroke="#000000" cx="617" cy="-286.8954" rx="113.18" ry="18"/>
<text text-anchor="middle" x="617" y="-283.1954" font-family="Times,serif" font-size="14.00" fill="#000000">path_path_functor_uncurried</text>
</a>
</g>
</g>
<!-- Paths_isequiv_path_path_functor_uncurried&#45;&gt;Paths_path_path_functor_uncurried -->
<g id="edge2" class="edge">
<title>Paths_isequiv_path_path_functor_uncurried&#45;&gt;Paths_path_path_functor_uncurried</title>
<path fill="none" stroke="#000000" d="M598.6339,-358.8905C602.0921,-345.3344 606.3249,-328.7416 609.8551,-314.9033"/>
<polygon fill="#000000" stroke="#000000" points="613.3127,-315.5088 612.3932,-304.9539 606.5299,-313.7784 613.3127,-315.5088"/>
</g>
<!-- Paths_isequiv_path_functor_uncurried -->
<g id="node5" class="node">
<title>Paths_isequiv_path_functor_uncurried</title>
<g id="a_node5"><a xlink:href="Paths.html#isequiv_path_functor_uncurried" xlink:title="isequiv_path_functor_uncurried">
<ellipse fill="#f070d1" stroke="#000000" cx="362" cy="-286.8954" rx="123.4781" ry="18"/>
<text text-anchor="middle" x="362" y="-283.1954" font-family="Times,serif" font-size="14.00" fill="#000000">isequiv_path_functor_uncurried</text>
</a>
</g>
</g>
<!-- Paths_isequiv_path_path_functor_uncurried&#45;&gt;Paths_isequiv_path_functor_uncurried -->
<g id="edge3" class="edge">
<title>Paths_isequiv_path_path_functor_uncurried&#45;&gt;Paths_isequiv_path_functor_uncurried</title>
<path fill="none" stroke="#000000" d="M535.1461,-360.6707C497.1685,-344.4889 447.71,-323.4153 411.3816,-307.9363"/>
<polygon fill="#000000" stroke="#000000" points="412.5464,-304.6281 401.9747,-303.9281 409.8024,-311.0679 412.5464,-304.6281"/>
</g>
<!-- Paths_equiv_path_functor_uncurried -->
<g id="node4" class="node">
<title>Paths_equiv_path_functor_uncurried</title>
<g id="a_node4"><a xlink:href="Paths.html#equiv_path_functor_uncurried" xlink:title="equiv_path_functor_uncurried">
<ellipse fill="#f070d1" stroke="#000000" cx="297" cy="-384.8954" rx="117.7704" ry="18"/>
<ellipse fill="none" stroke="#000000" cx="297" cy="-384.8954" rx="121.7748" ry="22"/>
<ellipse fill="none" stroke="#000000" cx="297" cy="-384.8954" rx="125.7793" ry="26"/>
<text text-anchor="middle" x="297" y="-381.1954" font-family="Times,serif" font-size="14.00" fill="#000000">equiv_path_functor_uncurried</text>
</a>
</g>
</g>
<!-- Paths_equiv_path_functor_uncurried&#45;&gt;Paths_isequiv_path_functor_uncurried -->
<g id="edge4" class="edge">
<title>Paths_equiv_path_functor_uncurried&#45;&gt;Paths_isequiv_path_functor_uncurried</title>
<path fill="none" stroke="#000000" d="M314.2482,-358.8905C323.592,-344.8028 335.1111,-327.4356 344.4945,-313.2884"/>
<polygon fill="#000000" stroke="#000000" points="347.4117,-315.2221 350.0224,-304.9539 341.5782,-311.3529 347.4117,-315.2221"/>
</g>
<!-- Paths_path_functor_uncurried_inv -->
<g id="node8" class="node">
<title>Paths_path_functor_uncurried_inv</title>
<g id="a_node8"><a xlink:href="Paths.html#path_functor_uncurried_inv" xlink:title="path_functor_uncurried_inv">
<ellipse fill="#f070d1" stroke="#000000" cx="277" cy="-197.8954" rx="109.381" ry="18"/>
<text text-anchor="middle" x="277" y="-194.1954" font-family="Times,serif" font-size="14.00" fill="#000000">path_functor_uncurried_inv</text>
</a>
</g>
</g>
<!-- Paths_isequiv_path_functor_uncurried&#45;&gt;Paths_path_functor_uncurried_inv -->
<g id="edge5" class="edge">
<title>Paths_isequiv_path_functor_uncurried&#45;&gt;Paths_path_functor_uncurried_inv</title>
<path fill="none" stroke="#000000" d="M344.799,-268.8849C332.2409,-255.7358 315.0493,-237.7353 301.1202,-223.1507"/>
<polygon fill="#000000" stroke="#000000" points="303.6133,-220.6935 294.1754,-215.8791 298.551,-225.5282 303.6133,-220.6935"/>
</g>
<!-- Paths_path_functor_uncurried_idpath -->
<g id="node9" class="node">
<title>Paths_path_functor_uncurried_idpath</title>
<g id="a_node9"><a xlink:href="Paths.html#path_functor_uncurried_idpath" xlink:title="path_functor_uncurried_idpath">
<ellipse fill="#facdef" stroke="#000000" cx="524" cy="-197.8954" rx="120.4791" ry="18"/>
<text text-anchor="middle" x="524" y="-194.1954" font-family="Times,serif" font-size="14.00" fill="#000000">path_functor_uncurried_idpath</text>
</a>
</g>
</g>
<!-- Paths_isequiv_path_functor_uncurried&#45;&gt;Paths_path_functor_uncurried_idpath -->
<g id="edge6" class="edge">
<title>Paths_isequiv_path_functor_uncurried&#45;&gt;Paths_path_functor_uncurried_idpath</title>
<path fill="none" stroke="#000000" d="M394.006,-269.3118C419.6052,-255.2481 455.6623,-235.4389 483.31,-220.2498"/>
<polygon fill="#000000" stroke="#000000" points="485.2574,-223.1734 492.3365,-215.2907 481.8868,-217.0383 485.2574,-223.1734"/>
</g>
<!-- Paths_path_functor_uncurried_fst -->
<g id="node10" class="node">
<title>Paths_path_functor_uncurried_fst</title>
<g id="a_node10"><a xlink:href="Paths.html#path_functor_uncurried_fst" xlink:title="path_functor_uncurried_fst">
<ellipse fill="#facdef" stroke="#000000" cx="769" cy="-197.8954" rx="106.6812" ry="18"/>
<text text-anchor="middle" x="769" y="-194.1954" font-family="Times,serif" font-size="14.00" fill="#000000">path_functor_uncurried_fst</text>
</a>
</g>
</g>
<!-- Paths_isequiv_path_functor_uncurried&#45;&gt;Paths_path_functor_uncurried_fst -->
<g id="edge7" class="edge">
<title>Paths_isequiv_path_functor_uncurried&#45;&gt;Paths_path_functor_uncurried_fst</title>
<path fill="none" stroke="#000000" d="M430.5818,-271.8984C503.5391,-255.9446 618.6044,-230.7829 693.9434,-214.3083"/>
<polygon fill="#000000" stroke="#000000" points="694.822,-217.6989 703.8434,-212.1434 693.3265,-210.8605 694.822,-217.6989"/>
</g>
<!-- Paths_path_functor_pointwise -->
<g id="node6" class="node">
<title>Paths_path_functor_pointwise</title>
<g id="a_node6"><a xlink:href="Paths.html#path_functor_pointwise" xlink:title="path_functor_pointwise">
<ellipse fill="#f070d1" stroke="#000000" cx="118" cy="-286.8954" rx="94.4649" ry="18"/>
<ellipse fill="none" stroke="#000000" cx="118" cy="-286.8954" rx="98.4744" ry="22"/>
<ellipse fill="none" stroke="#000000" cx="118" cy="-286.8954" rx="102.4838" ry="26"/>
<text text-anchor="middle" x="118" y="-283.1954" font-family="Times,serif" font-size="14.00" fill="#000000">path_functor_pointwise</text>
</a>
</g>
</g>
<!-- Paths_path_functor -->
<g id="node7" class="node">
<title>Paths_path_functor</title>
<g id="a_node7"><a xlink:href="Paths.html#path_functor" xlink:title="path_functor">
<ellipse fill="#f070d1" stroke="#000000" cx="94" cy="-197.8954" rx="55.7903" ry="18"/>
<text text-anchor="middle" x="94" y="-194.1954" font-family="Times,serif" font-size="14.00" fill="#000000">path_functor</text>
</a>
</g>
</g>
<!-- Paths_path_functor_pointwise&#45;&gt;Paths_path_functor -->
<g id="edge8" class="edge">
<title>Paths_path_functor_pointwise&#45;&gt;Paths_path_functor</title>
<path fill="none" stroke="#000000" d="M110.929,-260.6738C107.9649,-249.6817 104.5151,-236.8887 101.5059,-225.7299"/>
<polygon fill="#000000" stroke="#000000" points="104.8759,-224.7838 98.8929,-216.04 98.1173,-226.6064 104.8759,-224.7838"/>
</g>
<!-- Paths_path_functor_uncurried -->
<g id="node11" class="node">
<title>Paths_path_functor_uncurried</title>
<g id="a_node11"><a xlink:href="Paths.html#path_functor_uncurried" xlink:title="path_functor_uncurried">
<ellipse fill="#f070d1" stroke="#000000" cx="524" cy="-117.8954" rx="93.6835" ry="18"/>
<text text-anchor="middle" x="524" y="-114.1954" font-family="Times,serif" font-size="14.00" fill="#000000">path_functor_uncurried</text>
</a>
</g>
</g>
<!-- Paths_path_functor&#45;&gt;Paths_path_functor_uncurried -->
<g id="edge9" class="edge">
<title>Paths_path_functor&#45;&gt;Paths_path_functor_uncurried</title>
<path fill="none" stroke="#000000" d="M135.4521,-185.7384C143.2408,-183.6473 151.3424,-181.6014 159,-179.8954 253.6726,-158.8037 363.5584,-141.0347 437.8266,-129.9997"/>
<polygon fill="#000000" stroke="#000000" points="438.6832,-133.4113 448.0645,-128.4877 437.6604,-126.4864 438.6832,-133.4113"/>
</g>
<!-- Paths_path_functor_uncurried_idpath&#45;&gt;Paths_path_functor_uncurried -->
<g id="edge10" class="edge">
<title>Paths_path_functor_uncurried_idpath&#45;&gt;Paths_path_functor_uncurried</title>
<path fill="none" stroke="#000000" d="M524,-179.7421C524,-169.8205 524,-157.312 524,-146.1446"/>
<polygon fill="#000000" stroke="#000000" points="527.5001,-145.9767 524,-135.9768 520.5001,-145.9768 527.5001,-145.9767"/>
</g>
<!-- Paths_path_functor_uncurried_fst&#45;&gt;Paths_path_functor_uncurried -->
<g id="edge11" class="edge">
<title>Paths_path_functor_uncurried_fst&#45;&gt;Paths_path_functor_uncurried</title>
<path fill="none" stroke="#000000" d="M720.0094,-181.8985C679.978,-168.827 623.3268,-150.3286 581.2163,-136.5782"/>
<polygon fill="#000000" stroke="#000000" points="582.2476,-133.2332 571.6551,-133.4562 580.0747,-139.8874 582.2476,-133.2332"/>
</g>
<!-- Paths_path_functor_uncurried_subproof0 -->
<g id="node12" class="node">
<title>Paths_path_functor_uncurried_subproof0</title>
<g id="a_node12"><a xlink:href="Paths.html#path_functor_uncurried_subproof0" xlink:title="path_functor_uncurried_subproof0">
<ellipse fill="#facdef" stroke="#000000" cx="366" cy="-37.8954" rx="133.7763" ry="18"/>
<text text-anchor="middle" x="366" y="-34.1954" font-family="Times,serif" font-size="14.00" fill="#000000">path_functor_uncurried_subproof0</text>
</a>
</g>
</g>
<!-- Paths_path_functor_uncurried&#45;&gt;Paths_path_functor_uncurried_subproof0 -->
<g id="edge12" class="edge">
<title>Paths_path_functor_uncurried&#45;&gt;Paths_path_functor_uncurried_subproof0</title>
<path fill="none" stroke="#000000" d="M490.4923,-100.9294C466.9345,-89.0015 435.1897,-72.9281 409.6526,-59.9979"/>
<polygon fill="#000000" stroke="#000000" points="411.0543,-56.7847 400.5517,-55.3899 407.8922,-63.0298 411.0543,-56.7847"/>
</g>
<!-- Paths_path_functor_uncurried_subproof -->
<g id="node13" class="node">
<title>Paths_path_functor_uncurried_subproof</title>
<g id="a_node13"><a xlink:href="Paths.html#path_functor_uncurried_subproof" xlink:title="path_functor_uncurried_subproof">
<ellipse fill="#facdef" stroke="#000000" cx="647" cy="-37.8954" rx="129.1772" ry="18"/>
<text text-anchor="middle" x="647" y="-34.1954" font-family="Times,serif" font-size="14.00" fill="#000000">path_functor_uncurried_subproof</text>
</a>
</g>
</g>
<!-- Paths_path_functor_uncurried&#45;&gt;Paths_path_functor_uncurried_subproof -->
<g id="edge13" class="edge">
<title>Paths_path_functor_uncurried&#45;&gt;Paths_path_functor_uncurried_subproof</title>
<path fill="none" stroke="#000000" d="M550.6892,-100.5366C568.3352,-89.0595 591.6824,-73.8743 610.9701,-61.3295"/>
<polygon fill="#000000" stroke="#000000" points="613.0367,-64.1606 619.5112,-55.7742 609.22,-58.2926 613.0367,-64.1606"/>
</g>
</g>
</svg>
