<?xml version="1.0" encoding="UTF-8" standalone="no"?>
<!DOCTYPE svg PUBLIC "-//W3C//DTD SVG 1.1//EN"
 "http://www.w3.org/Graphics/SVG/1.1/DTD/svg11.dtd">
<!-- Generated by graphviz version 2.39.20141222.0545 (20141222.0545)
 -->
<!-- Title: HoTT_Categories_Grothendieck_ToSet_Core Pages: 1 -->
<svg width="830pt" height="419pt"
 viewBox="0.00 0.00 830.00 419.00" xmlns="http://www.w3.org/2000/svg" xmlns:xlink="http://www.w3.org/1999/xlink">
<g id="graph0" class="graph" transform="scale(1 1) rotate(0) translate(4 415)">
<title>HoTT_Categories_Grothendieck_ToSet_Core</title>
<polygon fill="white" stroke="transparent" points="-4,4 -4,-415 826,-415 826,4 -4,4"/>
<g id="clust1" class="cluster"><title>cluster_Core</title>
<polygon fill="#ffffc3" stroke="black" points="9.93353,-8 9.93353,-403 812.066,-403 812.066,-8 9.93353,-8"/>
<text text-anchor="middle" x="31.4335" y="-387.8" font-family="Times,serif" font-size="14.00">Core</text>
</g>
<!-- Core_pr1 -->
<g id="node1" class="node"><title>Core_pr1</title>
<g id="a_node1"><a xlink:href="Core.html#pr1" xlink:title="pr1">
<ellipse fill="#f070d1" stroke="black" cx="675.157" cy="-346" rx="27" ry="18"/>
<ellipse fill="none" stroke="black" cx="675.157" cy="-346" rx="31" ry="22"/>
<ellipse fill="none" stroke="black" cx="675.157" cy="-346" rx="35" ry="26"/>
<text text-anchor="middle" x="675.157" y="-342.3" font-family="Times,serif" font-size="14.00">pr1</text>
</a>
</g>
</g>
<!-- Core_category -->
<g id="node2" class="node"><title>Core_category</title>
<g id="a_node2"><a xlink:href="Core.html#category" xlink:title="category">
<ellipse fill="#f070d1" stroke="black" cx="581.157" cy="-258" rx="40.8928" ry="18"/>
<text text-anchor="middle" x="581.157" y="-254.3" font-family="Times,serif" font-size="14.00">category</text>
</a>
</g>
</g>
<!-- Core_pr1&#45;&gt;Core_category -->
<g id="edge1" class="edge"><title>Core_pr1&#45;&gt;Core_category</title>
<path fill="none" stroke="black" d="M653.355,-325.59C639.223,-312.359 620.775,-295.089 606.064,-281.317"/>
<polygon fill="black" stroke="black" points="608.447,-278.754 598.755,-274.475 603.663,-283.864 608.447,-278.754"/>
</g>
<!-- Core_category_subproof1 -->
<g id="node3" class="node"><title>Core_category_subproof1</title>
<g id="a_node3"><a xlink:href="Core.html#category_subproof1" xlink:title="category_subproof1">
<ellipse fill="#facdef" stroke="black" cx="264.157" cy="-178" rx="81.4863" ry="18"/>
<text text-anchor="middle" x="264.157" y="-174.3" font-family="Times,serif" font-size="14.00">category_subproof1</text>
</a>
</g>
</g>
<!-- Core_category&#45;&gt;Core_category_subproof1 -->
<g id="edge2" class="edge"><title>Core_category&#45;&gt;Core_category_subproof1</title>
<path fill="none" stroke="black" d="M545.409,-248.978C492.659,-235.666 393.171,-210.559 327.778,-194.056"/>
<polygon fill="black" stroke="black" points="328.54,-190.638 317.987,-191.585 326.827,-197.426 328.54,-190.638"/>
</g>
<!-- Core_category_subproof0 -->
<g id="node4" class="node"><title>Core_category_subproof0</title>
<g id="a_node4"><a xlink:href="Core.html#category_subproof0" xlink:title="category_subproof0">
<ellipse fill="#facdef" stroke="black" cx="488.157" cy="-178" rx="81.4863" ry="18"/>
<text text-anchor="middle" x="488.157" y="-174.3" font-family="Times,serif" font-size="14.00">category_subproof0</text>
</a>
</g>
</g>
<!-- Core_category&#45;&gt;Core_category_subproof0 -->
<g id="edge3" class="edge"><title>Core_category&#45;&gt;Core_category_subproof0</title>
<path fill="none" stroke="black" d="M562.337,-241.811C549.171,-230.485 531.35,-215.155 516.475,-202.36"/>
<polygon fill="black" stroke="black" points="518.426,-199.421 508.563,-195.553 513.861,-204.728 518.426,-199.421"/>
</g>
<!-- Core_category_subproof -->
<g id="node5" class="node"><title>Core_category_subproof</title>
<g id="a_node5"><a xlink:href="Core.html#category_subproof" xlink:title="category_subproof">
<ellipse fill="#facdef" stroke="black" cx="706.157" cy="-178" rx="76.8869" ry="18"/>
<text text-anchor="middle" x="706.157" y="-174.3" font-family="Times,serif" font-size="14.00">category_subproof</text>
</a>
</g>
</g>
<!-- Core_category&#45;&gt;Core_category_subproof -->
<g id="edge4" class="edge"><title>Core_category&#45;&gt;Core_category_subproof</title>
<path fill="none" stroke="black" d="M604.376,-243.14C623.116,-231.146 649.78,-214.081 671.116,-200.426"/>
<polygon fill="black" stroke="black" points="673.06,-203.337 679.596,-194.999 669.287,-197.441 673.06,-203.337"/>
</g>
<!-- Core_identity -->
<g id="node6" class="node"><title>Core_identity</title>
<g id="a_node6"><a xlink:href="Core.html#identity" xlink:title="identity">
<ellipse fill="#f070d1" stroke="black" cx="303.157" cy="-106" rx="37.8943" ry="18"/>
<text text-anchor="middle" x="303.157" y="-102.3" font-family="Times,serif" font-size="14.00">identity</text>
</a>
</g>
</g>
<!-- Core_category_subproof1&#45;&gt;Core_identity -->
<g id="edge5" class="edge"><title>Core_category_subproof1&#45;&gt;Core_identity</title>
<path fill="none" stroke="black" d="M273.998,-159.831C278.42,-151.669 283.728,-141.87 288.596,-132.883"/>
<polygon fill="black" stroke="black" points="291.769,-134.373 293.454,-123.913 285.614,-131.039 291.769,-134.373"/>
</g>
<!-- Core_compose -->
<g id="node8" class="node"><title>Core_compose</title>
<g id="a_node8"><a xlink:href="Core.html#compose" xlink:title="compose">
<ellipse fill="#f070d1" stroke="black" cx="488.157" cy="-106" rx="42.4939" ry="18"/>
<text text-anchor="middle" x="488.157" y="-102.3" font-family="Times,serif" font-size="14.00">compose</text>
</a>
</g>
</g>
<!-- Core_category_subproof1&#45;&gt;Core_compose -->
<g id="edge6" class="edge"><title>Core_category_subproof1&#45;&gt;Core_compose</title>
<path fill="none" stroke="black" d="M310.298,-163.169C349.566,-150.547 405.584,-132.541 444.21,-120.126"/>
<polygon fill="black" stroke="black" points="445.675,-123.331 454.124,-116.939 443.533,-116.667 445.675,-123.331"/>
</g>
<!-- Core_category_subproof0&#45;&gt;Core_identity -->
<g id="edge7" class="edge"><title>Core_category_subproof0&#45;&gt;Core_identity</title>
<path fill="none" stroke="black" d="M447.558,-162.199C416.174,-149.985 373.004,-133.184 342.057,-121.139"/>
<polygon fill="black" stroke="black" points="343.057,-117.773 332.469,-117.408 340.518,-124.296 343.057,-117.773"/>
</g>
<!-- Core_category_subproof0&#45;&gt;Core_compose -->
<g id="edge8" class="edge"><title>Core_category_subproof0&#45;&gt;Core_compose</title>
<path fill="none" stroke="black" d="M488.157,-159.831C488.157,-152.131 488.157,-142.974 488.157,-134.417"/>
<polygon fill="black" stroke="black" points="491.657,-134.413 488.157,-124.413 484.657,-134.413 491.657,-134.413"/>
</g>
<!-- Core_category_subproof&#45;&gt;Core_compose -->
<g id="edge9" class="edge"><title>Core_category_subproof&#45;&gt;Core_compose</title>
<path fill="none" stroke="black" d="M661.515,-163.256C623.437,-150.68 569.033,-132.711 531.37,-120.272"/>
<polygon fill="black" stroke="black" points="532.291,-116.891 521.698,-117.078 530.096,-123.537 532.291,-116.891"/>
</g>
<!-- Core_identity_H -->
<g id="node7" class="node"><title>Core_identity_H</title>
<g id="a_node7"><a xlink:href="Core.html#identity_H" xlink:title="identity_H">
<ellipse fill="#f070d1" stroke="black" cx="303.157" cy="-34" rx="48.1917" ry="18"/>
<text text-anchor="middle" x="303.157" y="-30.3" font-family="Times,serif" font-size="14.00">identity_H</text>
</a>
</g>
</g>
<!-- Core_identity&#45;&gt;Core_identity_H -->
<g id="edge10" class="edge"><title>Core_identity&#45;&gt;Core_identity_H</title>
<path fill="none" stroke="black" d="M303.157,-87.8314C303.157,-80.131 303.157,-70.9743 303.157,-62.4166"/>
<polygon fill="black" stroke="black" points="306.657,-62.4132 303.157,-52.4133 299.657,-62.4133 306.657,-62.4132"/>
</g>
<!-- Core_compose_H -->
<g id="node9" class="node"><title>Core_compose_H</title>
<g id="a_node9"><a xlink:href="Core.html#compose_H" xlink:title="compose_H">
<ellipse fill="#f070d1" stroke="black" cx="488.157" cy="-34" rx="53.0913" ry="18"/>
<text text-anchor="middle" x="488.157" y="-30.3" font-family="Times,serif" font-size="14.00">compose_H</text>
</a>
</g>
</g>
<!-- Core_compose&#45;&gt;Core_compose_H -->
<g id="edge11" class="edge"><title>Core_compose&#45;&gt;Core_compose_H</title>
<path fill="none" stroke="black" d="M488.157,-87.8314C488.157,-80.131 488.157,-70.9743 488.157,-62.4166"/>
<polygon fill="black" stroke="black" points="491.657,-62.4132 488.157,-52.4133 484.657,-62.4133 491.657,-62.4132"/>
</g>
<!-- Core_issig_pair -->
<g id="node10" class="node"><title>Core_issig_pair</title>
<g id="a_node10"><a xlink:href="Core.html#issig_pair" xlink:title="issig_pair">
<ellipse fill="#f070d1" stroke="black" cx="331.157" cy="-258" rx="44.7157" ry="18"/>
<ellipse fill="none" stroke="black" cx="331.157" cy="-258" rx="48.7041" ry="22"/>
<ellipse fill="none" stroke="black" cx="331.157" cy="-258" rx="52.6925" ry="26"/>
<text text-anchor="middle" x="331.157" y="-254.3" font-family="Times,serif" font-size="14.00">issig_pair</text>
</a>
</g>
</g>
<!-- Core_Build_Pair -->
<g id="node16" class="node"><title>Core_Build_Pair</title>
<g id="a_node16"><a xlink:href="Core.html#Build_Pair" xlink:title="Build_Pair">
<ellipse fill="#7faaff" stroke="black" cx="81.1571" cy="-178" rx="48.9926" ry="18"/>
<text text-anchor="middle" x="81.1571" y="-174.3" font-family="Times,serif" font-size="14.00">Build_Pair</text>
</a>
</g>
</g>
<!-- Core_issig_pair&#45;&gt;Core_Build_Pair -->
<g id="edge12" class="edge"><title>Core_issig_pair&#45;&gt;Core_Build_Pair</title>
<path fill="none" stroke="black" d="M286.75,-243.79C242.044,-229.484 173.36,-207.505 127.855,-192.943"/>
<polygon fill="black" stroke="black" points="128.823,-189.578 118.232,-189.864 126.689,-196.245 128.823,-189.578"/>
</g>
<!-- Core_Pair_rec -->
<g id="node11" class="node"><title>Core_Pair_rec</title>
<g id="a_node11"><a xlink:href="Core.html#Pair_rec" xlink:title="Pair_rec">
<ellipse fill="#f070d1" stroke="black" cx="550.157" cy="-346" rx="40.1273" ry="18"/>
<ellipse fill="none" stroke="black" cx="550.157" cy="-346" rx="44.1105" ry="22"/>
<ellipse fill="none" stroke="black" cx="550.157" cy="-346" rx="48.0937" ry="26"/>
<text text-anchor="middle" x="550.157" y="-342.3" font-family="Times,serif" font-size="14.00">Pair_rec</text>
</a>
</g>
</g>
<!-- Core_Pair_rect -->
<g id="node13" class="node"><title>Core_Pair_rect</title>
<g id="a_node13"><a xlink:href="Core.html#Pair_rect" xlink:title="Pair_rect">
<ellipse fill="#f070d1" stroke="black" cx="191.157" cy="-258" rx="42.4939" ry="18"/>
<text text-anchor="middle" x="191.157" y="-254.3" font-family="Times,serif" font-size="14.00">Pair_rect</text>
</a>
</g>
</g>
<!-- Core_Pair_rec&#45;&gt;Core_Pair_rect -->
<g id="edge13" class="edge"><title>Core_Pair_rec&#45;&gt;Core_Pair_rect</title>
<path fill="none" stroke="black" d="M508.857,-332.499C494.768,-328.165 478.86,-323.568 464.157,-320 378.512,-299.216 354.501,-305.988 269.157,-284 257.278,-280.94 244.585,-277.004 232.962,-273.126"/>
<polygon fill="black" stroke="black" points="234.087,-269.811 223.493,-269.902 231.831,-276.438 234.087,-269.811"/>
</g>
<!-- Core_Pair_ind -->
<g id="node12" class="node"><title>Core_Pair_ind</title>
<g id="a_node12"><a xlink:href="Core.html#Pair_ind" xlink:title="Pair_ind">
<ellipse fill="#7fffd4" stroke="black" cx="407.157" cy="-346" rx="40.1273" ry="18"/>
<ellipse fill="none" stroke="black" cx="407.157" cy="-346" rx="44.1105" ry="22"/>
<ellipse fill="none" stroke="black" cx="407.157" cy="-346" rx="48.0937" ry="26"/>
<text text-anchor="middle" x="407.157" y="-342.3" font-family="Times,serif" font-size="14.00">Pair_ind</text>
</a>
</g>
</g>
<!-- Core_Pair_ind&#45;&gt;Core_Pair_rect -->
<g id="edge14" class="edge"><title>Core_Pair_ind&#45;&gt;Core_Pair_rect</title>
<path fill="none" stroke="black" d="M368.541,-330.267C329.835,-314.498 270.511,-290.329 231.28,-274.347"/>
<polygon fill="black" stroke="black" points="232.346,-271.001 221.764,-270.47 229.705,-277.484 232.346,-271.001"/>
</g>
<!-- Core_Pair_rect&#45;&gt;Core_Build_Pair -->
<g id="edge15" class="edge"><title>Core_Pair_rect&#45;&gt;Core_Build_Pair</title>
<path fill="none" stroke="black" d="M169.687,-242.385C153.096,-230.319 129.922,-213.465 111.445,-200.028"/>
<polygon fill="black" stroke="black" points="113.473,-197.175 103.327,-194.124 109.356,-202.836 113.473,-197.175"/>
</g>
<!-- Core_x -->
<g id="node14" class="node"><title>Core_x</title>
<g id="a_node14"><a xlink:href="Core.html#x" xlink:title="x">
<ellipse fill="#f070d1" stroke="black" cx="282.157" cy="-346" rx="27" ry="18"/>
<ellipse fill="none" stroke="black" cx="282.157" cy="-346" rx="31" ry="22"/>
<ellipse fill="none" stroke="black" cx="282.157" cy="-346" rx="35" ry="26"/>
<text text-anchor="middle" x="282.157" y="-342.3" font-family="Times,serif" font-size="14.00">x</text>
</a>
</g>
</g>
<!-- Core_c -->
<g id="node15" class="node"><title>Core_c</title>
<g id="a_node15"><a xlink:href="Core.html#c" xlink:title="c">
<ellipse fill="#f070d1" stroke="black" cx="172.157" cy="-346" rx="27" ry="18"/>
<ellipse fill="none" stroke="black" cx="172.157" cy="-346" rx="31" ry="22"/>
<ellipse fill="none" stroke="black" cx="172.157" cy="-346" rx="35" ry="26"/>
<text text-anchor="middle" x="172.157" y="-342.3" font-family="Times,serif" font-size="14.00">c</text>
</a>
</g>
</g>
<!-- Core_Pair -->
<g id="node17" class="node"><title>Core_Pair</title>
<g id="a_node17"><a xlink:href="Core.html#Pair" xlink:title="Pair">
<ellipse fill="#e2cdfa" stroke="black" cx="63.1571" cy="-346" rx="27" ry="18"/>
<ellipse fill="none" stroke="black" cx="63.1571" cy="-346" rx="31" ry="22"/>
<ellipse fill="none" stroke="black" cx="63.1571" cy="-346" rx="35" ry="26"/>
<text text-anchor="middle" x="63.1571" y="-342.3" font-family="Times,serif" font-size="14.00">Pair</text>
</a>
</g>
</g>
</g>
</svg>
