<?xml version="1.0" encoding="UTF-8" standalone="no"?>
<!DOCTYPE svg PUBLIC "-//W3C//DTD SVG 1.1//EN"
 "http://www.w3.org/Graphics/SVG/1.1/DTD/svg11.dtd">
<!-- Generated by graphviz version 2.26.3 (20100126.1600)
 -->
<!-- Title: HoTT_categories_ExponentialLaws_Law0 Pages: 1 -->
<svg width="788pt" height="398pt"
 viewBox="0.00 0.00 788.00 398.00" xmlns="http://www.w3.org/2000/svg" xmlns:xlink="http://www.w3.org/1999/xlink">
<g id="graph1" class="graph" transform="scale(1 1) rotate(0) translate(4 394)">
<title>HoTT_categories_ExponentialLaws_Law0</title>
<polygon fill="white" stroke="white" points="-4,5 -4,-394 785,-394 785,5 -4,5"/>
<g id="graph2" class="cluster"><title>cluster_Law0</title>
<polygon fill="#ffffc3" stroke="black" points="8,-11.3043 8,-378.696 772,-378.696 772,-11.3043 8,-11.3043"/>
<text text-anchor="middle" x="35.5" y="-362.096" font-family="Times Roman,serif" font-size="14.00">Law0</text>
</g>
<!-- Law0_law00 -->
<g id="node1" class="node"><title>Law0_law00</title>
<a xlink:href="Law0.html#law00" xlink:title="law00">
<ellipse fill="#f070d1" stroke="black" cx="615" cy="-292.304" rx="41.2979" ry="18.3848"/>
<ellipse fill="none" stroke="black" cx="615" cy="-292.304" rx="45.2575" ry="22.3848"/>
<ellipse fill="none" stroke="black" cx="615" cy="-292.304" rx="49.2171" ry="26.3848"/>
<text text-anchor="middle" x="615" y="-288.704" font-family="Times Roman,serif" font-size="14.00">law00</text>
</a>
</g>
<!-- Law0_law -->
<g id="node8" class="node"><title>Law0_law</title>
<a xlink:href="Law0.html#law" xlink:title="law">
<ellipse fill="#f070d1" stroke="black" cx="581" cy="-165.304" rx="28.9914" ry="18.3848"/>
<text text-anchor="middle" x="581" y="-161.704" font-family="Times Roman,serif" font-size="14.00">law</text>
</a>
</g>
<!-- Law0_law00&#45;&gt;Law0_law -->
<g id="edge2" class="edge"><title>Law0_law00&#45;&gt;Law0_law</title>
<path fill="none" stroke="black" d="M607.955,-265.99C602.305,-244.886 594.39,-215.321 588.599,-193.688"/>
<polygon fill="black" stroke="black" points="591.913,-192.532 585.946,-183.778 585.151,-194.343 591.913,-192.532"/>
</g>
<!-- Law0_inverse00 -->
<g id="node2" class="node"><title>Law0_inverse00</title>
<a xlink:href="Law0.html#inverse00" xlink:title="inverse00">
<ellipse fill="#f070d1" stroke="black" cx="696" cy="-165.304" rx="60.1041" ry="18.3848"/>
<ellipse fill="none" stroke="black" cx="696" cy="-165.304" rx="64.1041" ry="22.3848"/>
<ellipse fill="none" stroke="black" cx="696" cy="-165.304" rx="68.1041" ry="26.3848"/>
<text text-anchor="middle" x="696" y="-161.704" font-family="Times Roman,serif" font-size="14.00">inverse00</text>
</a>
</g>
<!-- Law0_inverse -->
<g id="node9" class="node"><title>Law0_inverse</title>
<a xlink:href="Law0.html#inverse" xlink:title="inverse">
<ellipse fill="#f070d1" stroke="black" cx="717" cy="-49.3043" rx="46.8775" ry="18.3848"/>
<text text-anchor="middle" x="717" y="-45.7043" font-family="Times Roman,serif" font-size="14.00">inverse</text>
</a>
</g>
<!-- Law0_inverse00&#45;&gt;Law0_inverse -->
<g id="edge4" class="edge"><title>Law0_inverse00&#45;&gt;Law0_inverse</title>
<path fill="none" stroke="black" d="M700.818,-138.692C704.113,-120.49 708.476,-96.3881 711.842,-77.798"/>
<polygon fill="black" stroke="black" points="715.306,-78.3068 713.644,-67.8433 708.418,-77.0598 715.306,-78.3068"/>
</g>
<!-- Law0_functor00 -->
<g id="node3" class="node"><title>Law0_functor00</title>
<a xlink:href="Law0.html#functor00" xlink:title="functor00">
<ellipse fill="#f070d1" stroke="black" cx="467" cy="-165.304" rx="58.957" ry="18.3848"/>
<ellipse fill="none" stroke="black" cx="467" cy="-165.304" rx="62.9274" ry="22.3848"/>
<ellipse fill="none" stroke="black" cx="467" cy="-165.304" rx="66.8977" ry="26.3848"/>
<text text-anchor="middle" x="467" y="-161.704" font-family="Times Roman,serif" font-size="14.00">functor00</text>
</a>
</g>
<!-- Law0_functor -->
<g id="node10" class="node"><title>Law0_functor</title>
<a xlink:href="Law0.html#functor" xlink:title="functor">
<ellipse fill="#f070d1" stroke="black" cx="606" cy="-49.3043" rx="46.1672" ry="18.3848"/>
<text text-anchor="middle" x="606" y="-45.7043" font-family="Times Roman,serif" font-size="14.00">functor</text>
</a>
</g>
<!-- Law0_functor00&#45;&gt;Law0_functor -->
<g id="edge6" class="edge"><title>Law0_functor00&#45;&gt;Law0_functor</title>
<path fill="none" stroke="black" d="M495.801,-141.269C519.844,-121.205 553.92,-92.7669 577.795,-72.8424"/>
<polygon fill="black" stroke="black" points="580.346,-75.2721 585.781,-66.1776 575.861,-69.8977 580.346,-75.2721"/>
</g>
<!-- Law0_law_ -->
<g id="node4" class="node"><title>Law0_law_</title>
<a xlink:href="Law0.html#law&#39;" xlink:title="law&#39;">
<ellipse fill="#f070d1" stroke="black" cx="509" cy="-292.304" rx="31.1127" ry="18.3848"/>
<ellipse fill="none" stroke="black" cx="509" cy="-292.304" rx="35.1127" ry="22.3848"/>
<ellipse fill="none" stroke="black" cx="509" cy="-292.304" rx="39.1127" ry="26.3848"/>
<text text-anchor="middle" x="509" y="-288.704" font-family="Times Roman,serif" font-size="14.00">law&#39;</text>
</a>
</g>
<!-- Law0_inverse_ -->
<g id="node5" class="node"><title>Law0_inverse_</title>
<a xlink:href="Law0.html#inverse&#39;" xlink:title="inverse&#39;">
<ellipse fill="#f070d1" stroke="black" cx="333" cy="-165.304" rx="48.9975" ry="18.3848"/>
<text text-anchor="middle" x="333" y="-161.704" font-family="Times Roman,serif" font-size="14.00">inverse&#39;</text>
</a>
</g>
<!-- Law0_law_&#45;&gt;Law0_inverse_ -->
<g id="edge8" class="edge"><title>Law0_law_&#45;&gt;Law0_inverse_</title>
<path fill="none" stroke="black" d="M481.886,-272.739C450.197,-249.873 397.849,-212.099 364.418,-187.975"/>
<polygon fill="black" stroke="black" points="366.094,-184.869 355.937,-181.855 361.998,-190.545 366.094,-184.869"/>
</g>
<!-- Law0_functor_ -->
<g id="node6" class="node"><title>Law0_functor_</title>
<a xlink:href="Law0.html#functor&#39;" xlink:title="functor&#39;">
<ellipse fill="#f070d1" stroke="black" cx="217" cy="-165.304" rx="48.7904" ry="18.3848"/>
<text text-anchor="middle" x="217" y="-161.704" font-family="Times Roman,serif" font-size="14.00">functor&#39;</text>
</a>
</g>
<!-- Law0_law_&#45;&gt;Law0_functor_ -->
<g id="edge10" class="edge"><title>Law0_law_&#45;&gt;Law0_functor_</title>
<path fill="none" stroke="black" d="M479.379,-274.802C473.375,-271.494 467.046,-268.174 461,-265.304 380.774,-227.222 356.627,-227.282 275,-192.304 269.104,-189.778 262.917,-187.017 256.87,-184.257"/>
<polygon fill="black" stroke="black" points="258.09,-180.965 247.544,-179.953 255.157,-187.321 258.09,-180.965"/>
</g>
<!-- Law0_IsInitialCategory_functors_to_initial_from_inhabited -->
<g id="node7" class="node"><title>Law0_IsInitialCategory_functors_to_initial_from_inhabited</title>
<a xlink:href="Law0.html#IsInitialCategory_functors_to_initial_from_inhabited" xlink:title="IsInitialCategory_functors_to_initial_from_inhabited">
<ellipse fill="#f070d1" stroke="black" cx="279" cy="-49.3043" rx="263.044" ry="18.3848"/>
<text text-anchor="middle" x="279" y="-45.7043" font-family="Times Roman,serif" font-size="14.00">IsInitialCategory_functors_to_initial_from_inhabited</text>
</a>
</g>
<!-- Law0_functor_&#45;&gt;Law0_IsInitialCategory_functors_to_initial_from_inhabited -->
<g id="edge12" class="edge"><title>Law0_functor_&#45;&gt;Law0_IsInitialCategory_functors_to_initial_from_inhabited</title>
<path fill="none" stroke="black" d="M226.824,-146.924C236.877,-128.114 252.622,-98.656 264.188,-77.0163"/>
<polygon fill="black" stroke="black" points="267.39,-78.4522 269.017,-67.983 261.216,-75.1525 267.39,-78.4522"/>
</g>
<!-- Law0_law&#45;&gt;Law0_inverse -->
<g id="edge14" class="edge"><title>Law0_law&#45;&gt;Law0_inverse</title>
<path fill="none" stroke="black" d="M598.501,-150.377C621.485,-130.773 662.103,-96.1285 689.287,-72.9421"/>
<polygon fill="black" stroke="black" points="691.577,-75.5886 696.914,-66.4361 687.035,-70.2627 691.577,-75.5886"/>
</g>
<!-- Law0_law&#45;&gt;Law0_functor -->
<g id="edge16" class="edge"><title>Law0_law&#45;&gt;Law0_functor</title>
<path fill="none" stroke="black" d="M584.961,-146.924C588.961,-128.367 595.193,-99.4467 599.838,-77.8939"/>
<polygon fill="black" stroke="black" points="603.289,-78.496 601.974,-67.983 596.446,-77.0212 603.289,-78.496"/>
</g>
<!-- Law0_IsTerminalCategory_functors_from_initial -->
<g id="node11" class="node"><title>Law0_IsTerminalCategory_functors_from_initial</title>
<a xlink:href="Law0.html#IsTerminalCategory_functors_from_initial" xlink:title="IsTerminalCategory_functors_from_initial">
<ellipse fill="#f070d1" stroke="black" cx="234" cy="-292.304" rx="210.236" ry="18.3848"/>
<ellipse fill="none" stroke="black" cx="234" cy="-292.304" rx="214.226" ry="22.3848"/>
<ellipse fill="none" stroke="black" cx="234" cy="-292.304" rx="218.217" ry="26.3848"/>
<text text-anchor="middle" x="234" y="-288.704" font-family="Times Roman,serif" font-size="14.00">IsTerminalCategory_functors_from_initial</text>
</a>
</g>
</g>
</svg>
