<?xml version="1.0" encoding="UTF-8" standalone="no"?>
<!DOCTYPE svg PUBLIC "-//W3C//DTD SVG 1.1//EN"
 "http://www.w3.org/Graphics/SVG/1.1/DTD/svg11.dtd">
<!-- Generated by graphviz version 2.26.3 (20100126.1600)
 -->
<!-- Title: HoTT_categories_NaturalTransformation_Sum Pages: 1 -->
<svg width="380pt" height="194pt"
 viewBox="0.00 0.00 380.00 194.00" xmlns="http://www.w3.org/2000/svg" xmlns:xlink="http://www.w3.org/1999/xlink">
<g id="graph1" class="graph" transform="scale(1 1) rotate(0) translate(4 190)">
<title>HoTT_categories_NaturalTransformation_Sum</title>
<polygon fill="white" stroke="white" points="-4,5 -4,-190 377,-190 377,5 -4,5"/>
<g id="graph2" class="cluster"><title>cluster_Sum</title>
<polygon fill="#ffffc3" stroke="black" points="15.6632,-8 15.6632,-178 356.337,-178 356.337,-8 15.6632,-8"/>
<text text-anchor="middle" x="39.1632" y="-161.4" font-family="Times Roman,serif" font-size="14.00">Sum</text>
</g>
<!-- Sum_sum -->
<g id="node1" class="node"><title>Sum_sum</title>
<a xlink:href="Sum.html#sum" xlink:title="sum">
<ellipse fill="#f070d1" stroke="black" cx="185.684" cy="-117" rx="31.8198" ry="18.3848"/>
<ellipse fill="none" stroke="black" cx="185.684" cy="-117" rx="35.8198" ry="22.3848"/>
<ellipse fill="none" stroke="black" cx="185.684" cy="-117" rx="39.8198" ry="26.3848"/>
<text text-anchor="middle" x="185.684" y="-113.4" font-family="Times Roman,serif" font-size="14.00">sum</text>
</a>
</g>
<!-- Sum_sum_subproof -->
<g id="node2" class="node"><title>Sum_sum_subproof</title>
<a xlink:href="Sum.html#sum_subproof" xlink:title="sum_subproof">
<ellipse fill="#facdef" stroke="black" cx="185.684" cy="-35" rx="79.196" ry="18.3848"/>
<text text-anchor="middle" x="185.684" y="-31.4" font-family="Times Roman,serif" font-size="14.00">sum_subproof</text>
</a>
</g>
<!-- Sum_sum&#45;&gt;Sum_sum_subproof -->
<g id="edge2" class="edge"><title>Sum_sum&#45;&gt;Sum_sum_subproof</title>
<path fill="none" stroke="black" d="M185.684,-90.1501C185.684,-81.7426 185.684,-72.4303 185.684,-63.8885"/>
<polygon fill="black" stroke="black" points="189.184,-63.607 185.684,-53.6071 182.184,-63.6071 189.184,-63.607"/>
</g>
</g>
</svg>
