<?xml version="1.0" encoding="UTF-8" standalone="no"?>
<!DOCTYPE svg PUBLIC "-//W3C//DTD SVG 1.1//EN"
 "http://www.w3.org/Graphics/SVG/1.1/DTD/svg11.dtd">
<!-- Generated by graphviz version 2.26.3 (20100126.1600)
 -->
<!-- Title: HoTT_hit_Flattening Pages: 1 -->
<svg width="990pt" height="499pt"
 viewBox="0.00 0.00 990.00 499.00" xmlns="http://www.w3.org/2000/svg" xmlns:xlink="http://www.w3.org/1999/xlink">
<g id="graph1" class="graph" transform="scale(1 1) rotate(0) translate(4 495)">
<title>HoTT_hit_Flattening</title>
<polygon fill="white" stroke="white" points="-4,5 -4,-495 987,-495 987,5 -4,5"/>
<g id="graph2" class="cluster"><title>cluster_Flattening</title>
<polygon fill="#ffffc3" stroke="black" points="8,-9.17757 8,-481.822 974,-481.822 974,-9.17757 8,-9.17757"/>
<text text-anchor="middle" x="51.5" y="-465.222" font-family="Times Roman,serif" font-size="14.00">Flattening</text>
</g>
<g id="graph3" class="cluster"><title>cluster_Flattening_BaseHIT</title>
<polygon fill="#ffffa3" stroke="black" points="100,-18.3551 100,-195.023 406,-195.023 406,-18.3551 100,-18.3551"/>
<text text-anchor="middle" x="137" y="-178.423" font-family="Times Roman,serif" font-size="14.00">BaseHIT</text>
</g>
<g id="graph4" class="cluster"><title>cluster_Flattening_FlattenedHIT</title>
<polygon fill="#ffffa3" stroke="black" points="584,-103.248 584,-286.799 938,-286.799 938,-103.248 584,-103.248"/>
<text text-anchor="middle" x="637.5" y="-270.199" font-family="Times Roman,serif" font-size="14.00">FlattenedHIT</text>
</g>
<!-- Flattening_FlattenedHIT_Wtil_rect_beta_ppt -->
<g id="node1" class="node"><title>Flattening_FlattenedHIT_Wtil_rect_beta_ppt</title>
<a xlink:href="Flattening.html#FlattenedHIT.Wtil_rect_beta_ppt" xlink:title="Wtil_rect_beta_ppt">
<ellipse fill="#facdef" stroke="black" cx="696" cy="-226.178" rx="104.151" ry="18.3848"/>
<text text-anchor="middle" x="696" y="-222.578" font-family="Times Roman,serif" font-size="14.00">Wtil_rect_beta_ppt</text>
</a>
</g>
<!-- Flattening_FlattenedHIT_Wtil_rect -->
<g id="node2" class="node"><title>Flattening_FlattenedHIT_Wtil_rect</title>
<a xlink:href="Flattening.html#FlattenedHIT.Wtil_rect" xlink:title="Wtil_rect">
<ellipse fill="#f070d1" stroke="black" cx="874" cy="-226.178" rx="56.0679" ry="18.3848"/>
<text text-anchor="middle" x="874" y="-222.578" font-family="Times Roman,serif" font-size="14.00">Wtil_rect</text>
</a>
</g>
<!-- Flattening_FlattenedHIT_ppt -->
<g id="node3" class="node"><title>Flattening_FlattenedHIT_ppt</title>
<a xlink:href="Flattening.html#FlattenedHIT.ppt" xlink:title="ppt">
<ellipse fill="#facdef" stroke="black" cx="903" cy="-134.178" rx="27.0758" ry="18.3848"/>
<text text-anchor="middle" x="903" y="-130.578" font-family="Times Roman,serif" font-size="14.00">ppt</text>
</a>
</g>
<!-- Flattening_FlattenedHIT_Wtil_rect&#45;&gt;Flattening_FlattenedHIT_ppt -->
<g id="edge2" class="edge"><title>Flattening_FlattenedHIT_Wtil_rect&#45;&gt;Flattening_FlattenedHIT_ppt</title>
<path fill="none" stroke="black" d="M879.869,-207.56C883.983,-194.506 889.556,-176.826 894.201,-162.091"/>
<polygon fill="black" stroke="black" points="897.571,-163.043 897.239,-152.453 890.895,-160.939 897.571,-163.043"/>
</g>
<!-- Flattening_FlattenedHIT_cct -->
<g id="node4" class="node"><title>Flattening_FlattenedHIT_cct</title>
<a xlink:href="Flattening.html#FlattenedHIT.cct" xlink:title="cct">
<ellipse fill="#7faaff" stroke="black" cx="749" cy="-134.178" rx="27" ry="18.3848"/>
<text text-anchor="middle" x="749" y="-130.578" font-family="Times Roman,serif" font-size="14.00">cct</text>
</a>
</g>
<!-- Flattening_FlattenedHIT_Wtil_rect&#45;&gt;Flattening_FlattenedHIT_cct -->
<g id="edge4" class="edge"><title>Flattening_FlattenedHIT_Wtil_rect&#45;&gt;Flattening_FlattenedHIT_cct</title>
<path fill="none" stroke="black" d="M832.753,-213.649C816.706,-207.424 798.88,-198.717 785,-187.178 776.185,-179.849 768.632,-169.831 762.755,-160.477"/>
<polygon fill="black" stroke="black" points="765.744,-158.655 757.647,-151.822 759.715,-162.213 765.744,-158.655"/>
</g>
<!-- Flattening_FlattenedHIT_Wtil -->
<g id="node5" class="node"><title>Flattening_FlattenedHIT_Wtil</title>
<a xlink:href="Flattening.html#FlattenedHIT.Wtil" xlink:title="Wtil">
<ellipse fill="#e2cdfa" stroke="black" cx="826" cy="-134.178" rx="31.8198" ry="18.3848"/>
<text text-anchor="middle" x="826" y="-130.578" font-family="Times Roman,serif" font-size="14.00">Wtil</text>
</a>
</g>
<!-- Flattening_FlattenedHIT_Wtil_rect&#45;&gt;Flattening_FlattenedHIT_Wtil -->
<g id="edge6" class="edge"><title>Flattening_FlattenedHIT_Wtil_rect&#45;&gt;Flattening_FlattenedHIT_Wtil</title>
<path fill="none" stroke="black" d="M864.286,-207.56C857.365,-194.294 847.952,-176.251 840.191,-161.377"/>
<polygon fill="black" stroke="black" points="843.101,-159.388 835.372,-152.141 836.895,-162.626 843.101,-159.388"/>
</g>
<!-- Flattening_BaseHIT_W_rect_beta_pp -->
<g id="node6" class="node"><title>Flattening_BaseHIT_W_rect_beta_pp</title>
<a xlink:href="Flattening.html#BaseHIT.W_rect_beta_pp" xlink:title="W_rect_beta_pp">
<ellipse fill="#facdef" stroke="black" cx="198" cy="-134.178" rx="90.0096" ry="18.3848"/>
<text text-anchor="middle" x="198" y="-130.578" font-family="Times Roman,serif" font-size="14.00">W_rect_beta_pp</text>
</a>
</g>
<!-- Flattening_BaseHIT_W_rect -->
<g id="node7" class="node"><title>Flattening_BaseHIT_W_rect</title>
<a xlink:href="Flattening.html#BaseHIT.W_rect" xlink:title="W_rect">
<ellipse fill="#f070d1" stroke="black" cx="352" cy="-134.178" rx="46.1672" ry="18.3848"/>
<text text-anchor="middle" x="352" y="-130.578" font-family="Times Roman,serif" font-size="14.00">W_rect</text>
</a>
</g>
<!-- Flattening_BaseHIT_pp -->
<g id="node8" class="node"><title>Flattening_BaseHIT_pp</title>
<a xlink:href="Flattening.html#BaseHIT.pp" xlink:title="pp">
<ellipse fill="#facdef" stroke="black" cx="227" cy="-49.1776" rx="27" ry="18.3848"/>
<text text-anchor="middle" x="227" y="-45.5776" font-family="Times Roman,serif" font-size="14.00">pp</text>
</a>
</g>
<!-- Flattening_BaseHIT_W_rect&#45;&gt;Flattening_BaseHIT_pp -->
<g id="edge8" class="edge"><title>Flattening_BaseHIT_W_rect&#45;&gt;Flattening_BaseHIT_pp</title>
<path fill="none" stroke="black" d="M328.488,-118.19C307.511,-103.925 276.776,-83.0252 254.631,-67.9663"/>
<polygon fill="black" stroke="black" points="256.546,-65.0363 246.309,-62.3074 252.61,-70.8248 256.546,-65.0363"/>
</g>
<!-- Flattening_BaseHIT_cc -->
<g id="node9" class="node"><title>Flattening_BaseHIT_cc</title>
<a xlink:href="Flattening.html#BaseHIT.cc" xlink:title="cc">
<ellipse fill="#7faaff" stroke="black" cx="299" cy="-49.1776" rx="27" ry="18.3848"/>
<text text-anchor="middle" x="299" y="-45.5776" font-family="Times Roman,serif" font-size="14.00">cc</text>
</a>
</g>
<!-- Flattening_BaseHIT_W_rect&#45;&gt;Flattening_BaseHIT_cc -->
<g id="edge10" class="edge"><title>Flattening_BaseHIT_W_rect&#45;&gt;Flattening_BaseHIT_cc</title>
<path fill="none" stroke="black" d="M340.76,-116.151C333.304,-104.194 323.403,-88.3148 315.113,-75.0198"/>
<polygon fill="black" stroke="black" points="317.943,-72.942 309.681,-66.3083 312.003,-76.6457 317.943,-72.942"/>
</g>
<!-- Flattening_BaseHIT_W -->
<g id="node10" class="node"><title>Flattening_BaseHIT_W</title>
<a xlink:href="Flattening.html#BaseHIT.W" xlink:title="W">
<ellipse fill="#e2cdfa" stroke="black" cx="371" cy="-49.1776" rx="27" ry="18.3848"/>
<text text-anchor="middle" x="371" y="-45.5776" font-family="Times Roman,serif" font-size="14.00">W</text>
</a>
</g>
<!-- Flattening_BaseHIT_W_rect&#45;&gt;Flattening_BaseHIT_W -->
<g id="edge12" class="edge"><title>Flattening_BaseHIT_W_rect&#45;&gt;Flattening_BaseHIT_W</title>
<path fill="none" stroke="black" d="M356.123,-115.734C358.613,-104.595 361.837,-90.1696 364.647,-77.5973"/>
<polygon fill="black" stroke="black" points="368.12,-78.108 366.885,-67.5853 361.288,-76.5809 368.12,-78.108"/>
</g>
<!-- Flattening_equiv_flattening -->
<g id="node11" class="node"><title>Flattening_equiv_flattening</title>
<a xlink:href="Flattening.html#equiv_flattening" xlink:title="equiv_flattening">
<ellipse fill="#f070d1" stroke="black" cx="489" cy="-412.178" rx="91.2168" ry="18.3848"/>
<ellipse fill="none" stroke="black" cx="489" cy="-412.178" rx="95.2168" ry="22.3848"/>
<ellipse fill="none" stroke="black" cx="489" cy="-412.178" rx="99.2168" ry="26.3848"/>
<text text-anchor="middle" x="489" y="-408.578" font-family="Times Roman,serif" font-size="14.00">equiv_flattening</text>
</a>
</g>
<!-- Flattening_sWtil_rectnd_beta_ppt -->
<g id="node12" class="node"><title>Flattening_sWtil_rectnd_beta_ppt</title>
<a xlink:href="Flattening.html#sWtil_rectnd_beta_ppt" xlink:title="sWtil_rectnd_beta_ppt">
<ellipse fill="#facdef" stroke="black" cx="277" cy="-318.178" rx="121.122" ry="18.3848"/>
<text text-anchor="middle" x="277" y="-314.578" font-family="Times Roman,serif" font-size="14.00">sWtil_rectnd_beta_ppt</text>
</a>
</g>
<!-- Flattening_equiv_flattening&#45;&gt;Flattening_sWtil_rectnd_beta_ppt -->
<g id="edge14" class="edge"><title>Flattening_equiv_flattening&#45;&gt;Flattening_sWtil_rectnd_beta_ppt</title>
<path fill="none" stroke="black" d="M437.681,-389.423C403.629,-374.324 359.21,-354.629 325.707,-339.774"/>
<polygon fill="black" stroke="black" points="327.125,-336.574 316.565,-335.72 324.288,-342.973 327.125,-336.574"/>
</g>
<!-- Flattening_sWtil_rectnd -->
<g id="node13" class="node"><title>Flattening_sWtil_rectnd</title>
<a xlink:href="Flattening.html#sWtil_rectnd" xlink:title="sWtil_rectnd">
<ellipse fill="#f070d1" stroke="black" cx="489" cy="-318.178" rx="73.0388" ry="18.3848"/>
<text text-anchor="middle" x="489" y="-314.578" font-family="Times Roman,serif" font-size="14.00">sWtil_rectnd</text>
</a>
</g>
<!-- Flattening_equiv_flattening&#45;&gt;Flattening_sWtil_rectnd -->
<g id="edge16" class="edge"><title>Flattening_equiv_flattening&#45;&gt;Flattening_sWtil_rectnd</title>
<path fill="none" stroke="black" d="M489,-385.492C489,-373.486 489,-359.289 489,-347.036"/>
<polygon fill="black" stroke="black" points="492.5,-346.872 489,-336.872 485.5,-346.872 492.5,-346.872"/>
</g>
<!-- Flattening_sWtil_rect -->
<g id="node15" class="node"><title>Flattening_sWtil_rect</title>
<a xlink:href="Flattening.html#sWtil_rect" xlink:title="sWtil_rect">
<ellipse fill="#f070d1" stroke="black" cx="77" cy="-318.178" rx="60.8112" ry="18.3848"/>
<text text-anchor="middle" x="77" y="-314.578" font-family="Times Roman,serif" font-size="14.00">sWtil_rect</text>
</a>
</g>
<!-- Flattening_equiv_flattening&#45;&gt;Flattening_sWtil_rect -->
<g id="edge18" class="edge"><title>Flattening_equiv_flattening&#45;&gt;Flattening_sWtil_rect</title>
<path fill="none" stroke="black" d="M410.303,-396.067C340.82,-381.57 236.884,-359.218 147,-337.178 142.081,-335.971 136.98,-334.675 131.876,-333.347"/>
<polygon fill="black" stroke="black" points="132.664,-329.936 122.102,-330.769 130.878,-336.704 132.664,-329.936"/>
</g>
<!-- Flattening_Wtil_rectnd_beta_ppt -->
<g id="node16" class="node"><title>Flattening_Wtil_rectnd_beta_ppt</title>
<a xlink:href="Flattening.html#Wtil_rectnd_beta_ppt" xlink:title="Wtil_rectnd_beta_ppt">
<ellipse fill="#f070d1" stroke="black" cx="696" cy="-318.178" rx="116.172" ry="18.3848"/>
<text text-anchor="middle" x="696" y="-314.578" font-family="Times Roman,serif" font-size="14.00">Wtil_rectnd_beta_ppt</text>
</a>
</g>
<!-- Flattening_equiv_flattening&#45;&gt;Flattening_Wtil_rectnd_beta_ppt -->
<g id="edge20" class="edge"><title>Flattening_equiv_flattening&#45;&gt;Flattening_Wtil_rectnd_beta_ppt</title>
<path fill="none" stroke="black" d="M539.373,-389.303C572.485,-374.266 615.55,-354.71 648.141,-339.911"/>
<polygon fill="black" stroke="black" points="649.809,-342.997 657.467,-335.676 646.914,-336.624 649.809,-342.997"/>
</g>
<!-- Flattening_Wtil_rectnd -->
<g id="node17" class="node"><title>Flattening_Wtil_rectnd</title>
<a xlink:href="Flattening.html#Wtil_rectnd" xlink:title="Wtil_rectnd">
<ellipse fill="#f070d1" stroke="black" cx="898" cy="-318.178" rx="68.0887" ry="18.3848"/>
<text text-anchor="middle" x="898" y="-314.578" font-family="Times Roman,serif" font-size="14.00">Wtil_rectnd</text>
</a>
</g>
<!-- Flattening_equiv_flattening&#45;&gt;Flattening_Wtil_rectnd -->
<g id="edge22" class="edge"><title>Flattening_equiv_flattening&#45;&gt;Flattening_Wtil_rectnd</title>
<path fill="none" stroke="black" d="M565.581,-395.328C632.935,-380.401 733.589,-357.833 821,-337.178 826.36,-335.911 831.925,-334.576 837.5,-333.226"/>
<polygon fill="black" stroke="black" points="838.616,-336.556 847.503,-330.789 836.959,-329.755 838.616,-336.556"/>
</g>
<!-- Flattening_W_rectnd_beta_pp -->
<g id="node18" class="node"><title>Flattening_W_rectnd_beta_pp</title>
<a xlink:href="Flattening.html#W_rectnd_beta_pp" xlink:title="W_rectnd_beta_pp">
<ellipse fill="#f070d1" stroke="black" cx="198" cy="-226.178" rx="103.238" ry="18.3848"/>
<text text-anchor="middle" x="198" y="-222.578" font-family="Times Roman,serif" font-size="14.00">W_rectnd_beta_pp</text>
</a>
</g>
<!-- Flattening_sWtil_rectnd_beta_ppt&#45;&gt;Flattening_W_rectnd_beta_pp -->
<g id="edge24" class="edge"><title>Flattening_sWtil_rectnd_beta_ppt&#45;&gt;Flattening_W_rectnd_beta_pp</title>
<path fill="none" stroke="black" d="M261.013,-299.56C249.449,-286.092 233.656,-267.701 220.775,-252.7"/>
<polygon fill="black" stroke="black" points="223.133,-250.074 213.963,-244.767 217.822,-254.634 223.133,-250.074"/>
</g>
<!-- Flattening_W_rectnd -->
<g id="node19" class="node"><title>Flattening_W_rectnd</title>
<a xlink:href="Flattening.html#W_rectnd" xlink:title="W_rectnd">
<ellipse fill="#f070d1" stroke="black" cx="377" cy="-226.178" rx="58.1882" ry="18.3848"/>
<text text-anchor="middle" x="377" y="-222.578" font-family="Times Roman,serif" font-size="14.00">W_rectnd</text>
</a>
</g>
<!-- Flattening_sWtil_rectnd_beta_ppt&#45;&gt;Flattening_W_rectnd -->
<g id="edge26" class="edge"><title>Flattening_sWtil_rectnd_beta_ppt&#45;&gt;Flattening_W_rectnd</title>
<path fill="none" stroke="black" d="M297.236,-299.56C312.441,-285.572 333.417,-266.273 350.043,-250.978"/>
<polygon fill="black" stroke="black" points="352.822,-253.177 357.811,-243.831 348.082,-248.026 352.822,-253.177"/>
</g>
<!-- Flattening_sWtil_rectnd&#45;&gt;Flattening_W_rectnd_beta_pp -->
<g id="edge28" class="edge"><title>Flattening_sWtil_rectnd&#45;&gt;Flattening_W_rectnd_beta_pp</title>
<path fill="none" stroke="black" d="M435.23,-305.521C425.829,-303.365 416.136,-301.178 407,-299.178 364,-289.764 351.746,-293.135 310,-279.178 285.762,-271.074 259.899,-259.077 239.14,-248.546"/>
<polygon fill="black" stroke="black" points="240.478,-245.298 229.985,-243.829 237.272,-251.521 240.478,-245.298"/>
</g>
<!-- Flattening_sWtil_rectnd&#45;&gt;Flattening_W_rectnd -->
<g id="edge30" class="edge"><title>Flattening_sWtil_rectnd&#45;&gt;Flattening_W_rectnd</title>
<path fill="none" stroke="black" d="M467.405,-300.439C449.94,-286.093 425.186,-265.759 405.995,-249.995"/>
<polygon fill="black" stroke="black" points="408.097,-247.193 398.149,-243.55 403.654,-252.602 408.097,-247.193"/>
</g>
<!-- Flattening_sWtil_rect_beta_cct -->
<g id="node14" class="node"><title>Flattening_sWtil_rect_beta_cct</title>
<a xlink:href="Flattening.html#sWtil_rect_beta_cct" xlink:title="sWtil_rect_beta_cct">
<ellipse fill="#f070d1" stroke="black" cx="131" cy="-412.178" rx="107.015" ry="18.3848"/>
<ellipse fill="none" stroke="black" cx="131" cy="-412.178" rx="110.998" ry="22.3848"/>
<ellipse fill="none" stroke="black" cx="131" cy="-412.178" rx="114.98" ry="26.3848"/>
<text text-anchor="middle" x="131" y="-408.578" font-family="Times Roman,serif" font-size="14.00">sWtil_rect_beta_cct</text>
</a>
</g>
<!-- Flattening_sWtil_rect_beta_cct&#45;&gt;Flattening_sWtil_rect -->
<g id="edge32" class="edge"><title>Flattening_sWtil_rect_beta_cct&#45;&gt;Flattening_sWtil_rect</title>
<path fill="none" stroke="black" d="M115.814,-385.743C108.585,-373.159 99.9477,-358.124 92.6585,-345.435"/>
<polygon fill="black" stroke="black" points="95.6445,-343.606 87.6284,-336.679 89.5748,-347.093 95.6445,-343.606"/>
</g>
<!-- Flattening_sWtil_rect&#45;&gt;Flattening_W_rectnd_beta_pp -->
<g id="edge34" class="edge"><title>Flattening_sWtil_rect&#45;&gt;Flattening_W_rectnd_beta_pp</title>
<path fill="none" stroke="black" d="M99.7592,-300.873C118.494,-286.628 145.269,-266.27 166.136,-250.405"/>
<polygon fill="black" stroke="black" points="168.259,-253.187 174.101,-244.349 164.022,-247.615 168.259,-253.187"/>
</g>
<!-- Flattening_sWtil_rect&#45;&gt;Flattening_W_rectnd -->
<g id="edge36" class="edge"><title>Flattening_sWtil_rect&#45;&gt;Flattening_W_rectnd</title>
<path fill="none" stroke="black" d="M120.836,-305.25C129.458,-303 138.473,-300.849 147,-299.178 218.625,-285.138 242.651,-307.309 310,-279.178 325.567,-272.675 340.528,-261.487 352.349,-251.061"/>
<polygon fill="black" stroke="black" points="355.003,-253.375 359.999,-244.032 350.267,-248.221 355.003,-253.375"/>
</g>
<!-- Flattening_Wtil_rectnd_beta_ppt&#45;&gt;Flattening_FlattenedHIT_Wtil_rect_beta_ppt -->
<g id="edge38" class="edge"><title>Flattening_Wtil_rectnd_beta_ppt&#45;&gt;Flattening_FlattenedHIT_Wtil_rect_beta_ppt</title>
<path fill="none" stroke="black" d="M696,-299.56C696,-286.716 696,-269.394 696,-254.805"/>
<polygon fill="black" stroke="black" points="699.5,-254.767 696,-244.767 692.5,-254.767 699.5,-254.767"/>
</g>
<!-- Flattening_Wtil_rectnd_beta_ppt&#45;&gt;Flattening_FlattenedHIT_Wtil_rect -->
<g id="edge40" class="edge"><title>Flattening_Wtil_rectnd_beta_ppt&#45;&gt;Flattening_FlattenedHIT_Wtil_rect</title>
<path fill="none" stroke="black" d="M754.879,-302.204C772.825,-296.201 792.229,-288.519 809,-279.178 822.921,-271.424 836.818,-260.614 848.168,-250.777"/>
<polygon fill="black" stroke="black" points="850.81,-253.111 855.947,-243.845 846.153,-247.886 850.81,-253.111"/>
</g>
<!-- Flattening_Wtil_rectnd&#45;&gt;Flattening_FlattenedHIT_Wtil_rect -->
<g id="edge42" class="edge"><title>Flattening_Wtil_rectnd&#45;&gt;Flattening_FlattenedHIT_Wtil_rect</title>
<path fill="none" stroke="black" d="M893.143,-299.56C889.793,-286.716 885.274,-269.394 881.468,-254.805"/>
<polygon fill="black" stroke="black" points="884.76,-253.56 878.85,-244.767 877.987,-255.327 884.76,-253.56"/>
</g>
<!-- Flattening_W_rectnd_beta_pp&#45;&gt;Flattening_BaseHIT_W_rect_beta_pp -->
<g id="edge44" class="edge"><title>Flattening_W_rectnd_beta_pp&#45;&gt;Flattening_BaseHIT_W_rect_beta_pp</title>
<path fill="none" stroke="black" d="M198,-207.56C198,-194.716 198,-177.394 198,-162.805"/>
<polygon fill="black" stroke="black" points="201.5,-162.767 198,-152.767 194.5,-162.767 201.5,-162.767"/>
</g>
<!-- Flattening_W_rectnd_beta_pp&#45;&gt;Flattening_BaseHIT_W_rect -->
<g id="edge46" class="edge"><title>Flattening_W_rectnd_beta_pp&#45;&gt;Flattening_BaseHIT_W_rect</title>
<path fill="none" stroke="black" d="M249.718,-210.173C265.529,-204.15 282.546,-196.464 297,-187.178 308.972,-179.486 320.572,-168.929 330.007,-159.262"/>
<polygon fill="black" stroke="black" points="332.759,-161.446 337.076,-151.771 327.667,-156.641 332.759,-161.446"/>
</g>
<!-- Flattening_W_rectnd&#45;&gt;Flattening_BaseHIT_W_rect -->
<g id="edge48" class="edge"><title>Flattening_W_rectnd&#45;&gt;Flattening_BaseHIT_W_rect</title>
<path fill="none" stroke="black" d="M371.941,-207.56C368.451,-194.716 363.744,-177.394 359.779,-162.805"/>
<polygon fill="black" stroke="black" points="363.051,-161.5 357.052,-152.767 356.296,-163.335 363.051,-161.5"/>
</g>
</g>
</svg>
