<?xml version="1.0" encoding="UTF-8" standalone="no"?>
<!DOCTYPE svg PUBLIC "-//W3C//DTD SVG 1.1//EN"
 "http://www.w3.org/Graphics/SVG/1.1/DTD/svg11.dtd">
<!-- Generated by graphviz version 2.39.20141222.0545 (20141222.0545)
 -->
<!-- Title: HoTT_Types_Sum Pages: 1 -->
<svg width="2111pt" height="1060pt"
 viewBox="0.00 0.00 2111.00 1059.50" xmlns="http://www.w3.org/2000/svg" xmlns:xlink="http://www.w3.org/1999/xlink">
<g id="graph0" class="graph" transform="scale(1 1) rotate(0) translate(4 1055.5)">
<title>HoTT_Types_Sum</title>
<polygon fill="white" stroke="transparent" points="-4,4 -4,-1055.5 2107,-1055.5 2107,4 -4,4"/>
<g id="clust1" class="cluster"><title>cluster_Sum</title>
<polygon fill="#ffffc3" stroke="black" points="8,-17.4161 8,-1034.08 2095,-1034.08 2095,-17.4161 8,-17.4161"/>
<text text-anchor="middle" x="29" y="-1018.88" font-family="Times,serif" font-size="14.00">Sum</text>
</g>
<!-- Sum_is_inl_or_is_inr -->
<g id="node1" class="node"><title>Sum_is_inl_or_is_inr</title>
<g id="a_node1"><a xlink:href="Sum.html#is_inl_or_is_inr" xlink:title="is_inl_or_is_inr">
<ellipse fill="#f070d1" stroke="black" cx="2013" cy="-910.416" rx="66.1109" ry="18"/>
<ellipse fill="none" stroke="black" cx="2013" cy="-910.416" rx="70.0999" ry="22"/>
<ellipse fill="none" stroke="black" cx="2013" cy="-910.416" rx="74.0888" ry="26"/>
<text text-anchor="middle" x="2013" y="-906.716" font-family="Times,serif" font-size="14.00">is_inl_or_is_inr</text>
</a>
</g>
</g>
<!-- Sum_is_inr -->
<g id="node4" class="node"><title>Sum_is_inr</title>
<g id="a_node4"><a xlink:href="Sum.html#is_inr" xlink:title="is_inr">
<ellipse fill="#f070d1" stroke="black" cx="1977" cy="-735.416" rx="30.5947" ry="18"/>
<text text-anchor="middle" x="1977" y="-731.716" font-family="Times,serif" font-size="14.00">is_inr</text>
</a>
</g>
</g>
<!-- Sum_is_inl_or_is_inr&#45;&gt;Sum_is_inr -->
<g id="edge1" class="edge"><title>Sum_is_inl_or_is_inr&#45;&gt;Sum_is_inr</title>
<path fill="none" stroke="black" d="M2007.61,-884.217C2000.96,-851.866 1989.68,-797.05 1982.83,-763.747"/>
<polygon fill="black" stroke="black" points="1986.21,-762.836 1980.77,-753.747 1979.36,-764.247 1986.21,-762.836"/>
</g>
<!-- Sum_is_inl -->
<g id="node5" class="node"><title>Sum_is_inl</title>
<g id="a_node5"><a xlink:href="Sum.html#is_inl" xlink:title="is_inl">
<ellipse fill="#f070d1" stroke="black" cx="2056" cy="-735.416" rx="30.5947" ry="18"/>
<text text-anchor="middle" x="2056" y="-731.716" font-family="Times,serif" font-size="14.00">is_inl</text>
</a>
</g>
</g>
<!-- Sum_is_inl_or_is_inr&#45;&gt;Sum_is_inl -->
<g id="edge2" class="edge"><title>Sum_is_inl_or_is_inr&#45;&gt;Sum_is_inl</title>
<path fill="none" stroke="black" d="M2019.44,-884.217C2027.43,-851.694 2041,-796.466 2049.17,-763.218"/>
<polygon fill="black" stroke="black" points="2052.63,-763.798 2051.62,-753.252 2045.83,-762.128 2052.63,-763.798"/>
</g>
<!-- Sum_not_is_inl_and_inr_ -->
<g id="node2" class="node"><title>Sum_not_is_inl_and_inr_</title>
<g id="a_node2"><a xlink:href="Sum.html#not_is_inl_and_inr'" xlink:title="not_is_inl_and_inr&#39;">
<ellipse fill="#f070d1" stroke="black" cx="1834" cy="-910.416" rx="78.7731" ry="18"/>
<ellipse fill="none" stroke="black" cx="1834" cy="-910.416" rx="82.7797" ry="22"/>
<ellipse fill="none" stroke="black" cx="1834" cy="-910.416" rx="86.7863" ry="26"/>
<text text-anchor="middle" x="1834" y="-906.716" font-family="Times,serif" font-size="14.00">not_is_inl_and_inr&#39;</text>
</a>
</g>
</g>
<!-- Sum_not_is_inl_and_inr -->
<g id="node3" class="node"><title>Sum_not_is_inl_and_inr</title>
<g id="a_node3"><a xlink:href="Sum.html#not_is_inl_and_inr" xlink:title="not_is_inl_and_inr">
<ellipse fill="#f070d1" stroke="black" cx="1851" cy="-735.416" rx="77.1866" ry="18"/>
<text text-anchor="middle" x="1851" y="-731.716" font-family="Times,serif" font-size="14.00">not_is_inl_and_inr</text>
</a>
</g>
</g>
<!-- Sum_not_is_inl_and_inr_&#45;&gt;Sum_not_is_inl_and_inr -->
<g id="edge3" class="edge"><title>Sum_not_is_inl_and_inr_&#45;&gt;Sum_not_is_inl_and_inr</title>
<path fill="none" stroke="black" d="M1836.55,-884.217C1839.69,-851.866 1845.01,-797.05 1848.25,-763.747"/>
<polygon fill="black" stroke="black" points="1851.74,-764.038 1849.22,-753.747 1844.77,-763.361 1851.74,-764.038"/>
</g>
<!-- Sum_is_inr_and -->
<g id="node6" class="node"><title>Sum_is_inr_and</title>
<g id="a_node6"><a xlink:href="Sum.html#is_inr_and" xlink:title="is_inr_and">
<ellipse fill="#f070d1" stroke="black" cx="1888" cy="-579.416" rx="48.1917" ry="18"/>
<text text-anchor="middle" x="1888" y="-575.716" font-family="Times,serif" font-size="14.00">is_inr_and</text>
</a>
</g>
</g>
<!-- Sum_not_is_inl_and_inr&#45;&gt;Sum_is_inr_and -->
<g id="edge4" class="edge"><title>Sum_not_is_inl_and_inr&#45;&gt;Sum_is_inr_and</title>
<path fill="none" stroke="black" d="M1855.32,-717.216C1861.72,-690.209 1873.8,-639.299 1881.34,-607.493"/>
<polygon fill="black" stroke="black" points="1884.81,-608.039 1883.71,-597.501 1878,-606.423 1884.81,-608.039"/>
</g>
<!-- Sum_is_inl_and -->
<g id="node7" class="node"><title>Sum_is_inl_and</title>
<g id="a_node7"><a xlink:href="Sum.html#is_inl_and" xlink:title="is_inl_and">
<ellipse fill="#f070d1" stroke="black" cx="2021" cy="-579.416" rx="47.3916" ry="18"/>
<text text-anchor="middle" x="2021" y="-575.716" font-family="Times,serif" font-size="14.00">is_inl_and</text>
</a>
</g>
</g>
<!-- Sum_not_is_inl_and_inr&#45;&gt;Sum_is_inl_and -->
<g id="edge5" class="edge"><title>Sum_not_is_inl_and_inr&#45;&gt;Sum_is_inl_and</title>
<path fill="none" stroke="black" d="M1870.17,-717.824C1900.72,-689.792 1960.5,-634.938 1994.91,-603.355"/>
<polygon fill="black" stroke="black" points="1997.67,-605.574 2002.67,-596.234 1992.94,-600.416 1997.67,-605.574"/>
</g>
<!-- Sum_is_inr&#45;&gt;Sum_is_inr_and -->
<g id="edge6" class="edge"><title>Sum_is_inr&#45;&gt;Sum_is_inr_and</title>
<path fill="none" stroke="black" d="M1967.14,-718.125C1951.65,-690.977 1921.51,-638.152 1903.23,-606.103"/>
<polygon fill="black" stroke="black" points="1906.18,-604.215 1898.18,-597.264 1900.1,-607.684 1906.18,-604.215"/>
</g>
<!-- Sum_is_inl&#45;&gt;Sum_is_inl_and -->
<g id="edge7" class="edge"><title>Sum_is_inl&#45;&gt;Sum_is_inl_and</title>
<path fill="none" stroke="black" d="M2051.99,-717.521C2045.95,-690.629 2034.49,-639.552 2027.33,-607.617"/>
<polygon fill="black" stroke="black" points="2030.68,-606.574 2025.08,-597.583 2023.85,-608.107 2030.68,-606.574"/>
</g>
<!-- Sum_trunc_sum_ -->
<g id="node8" class="node"><title>Sum_trunc_sum_</title>
<g id="a_node8"><a xlink:href="Sum.html#trunc_sum'" xlink:title="trunc_sum&#39;">
<ellipse fill="#f070d1" stroke="black" cx="1671" cy="-910.416" rx="50.0849" ry="18"/>
<ellipse fill="none" stroke="black" cx="1671" cy="-910.416" rx="54.088" ry="22"/>
<ellipse fill="none" stroke="black" cx="1671" cy="-910.416" rx="58.0912" ry="26"/>
<text text-anchor="middle" x="1671" y="-906.716" font-family="Times,serif" font-size="14.00">trunc_sum&#39;</text>
</a>
</g>
</g>
<!-- Sum_isequiv_sum_of_sigT -->
<g id="node9" class="node"><title>Sum_isequiv_sum_of_sigT</title>
<g id="a_node9"><a xlink:href="Sum.html#isequiv_sum_of_sigT" xlink:title="isequiv_sum_of_sigT">
<ellipse fill="#f070d1" stroke="black" cx="1669" cy="-735.416" rx="87.1846" ry="18"/>
<text text-anchor="middle" x="1669" y="-731.716" font-family="Times,serif" font-size="14.00">isequiv_sum_of_sigT</text>
</a>
</g>
</g>
<!-- Sum_trunc_sum_&#45;&gt;Sum_isequiv_sum_of_sigT -->
<g id="edge8" class="edge"><title>Sum_trunc_sum_&#45;&gt;Sum_isequiv_sum_of_sigT</title>
<path fill="none" stroke="black" d="M1670.7,-884.217C1670.33,-851.866 1669.7,-797.05 1669.32,-763.747"/>
<polygon fill="black" stroke="black" points="1672.82,-763.706 1669.21,-753.747 1665.82,-763.786 1672.82,-763.706"/>
</g>
<!-- Sum_isequiv_sigT_of_sum -->
<g id="node10" class="node"><title>Sum_isequiv_sigT_of_sum</title>
<g id="a_node10"><a xlink:href="Sum.html#isequiv_sigT_of_sum" xlink:title="isequiv_sigT_of_sum">
<ellipse fill="#f070d1" stroke="black" cx="1691" cy="-579.416" rx="87.1846" ry="18"/>
<text text-anchor="middle" x="1691" y="-575.716" font-family="Times,serif" font-size="14.00">isequiv_sigT_of_sum</text>
</a>
</g>
</g>
<!-- Sum_isequiv_sum_of_sigT&#45;&gt;Sum_isequiv_sigT_of_sum -->
<g id="edge9" class="edge"><title>Sum_isequiv_sum_of_sigT&#45;&gt;Sum_isequiv_sigT_of_sum</title>
<path fill="none" stroke="black" d="M1671.57,-717.216C1675.38,-690.209 1682.55,-639.299 1687.04,-607.493"/>
<polygon fill="black" stroke="black" points="1690.52,-607.892 1688.45,-597.501 1683.59,-606.914 1690.52,-607.892"/>
</g>
<!-- Sum_sum_of_sigT -->
<g id="node11" class="node"><title>Sum_sum_of_sigT</title>
<g id="a_node11"><a xlink:href="Sum.html#sum_of_sigT" xlink:title="sum_of_sigT">
<ellipse fill="#f070d1" stroke="black" cx="1682" cy="-422.416" rx="57.6901" ry="18"/>
<text text-anchor="middle" x="1682" y="-418.716" font-family="Times,serif" font-size="14.00">sum_of_sigT</text>
</a>
</g>
</g>
<!-- Sum_isequiv_sigT_of_sum&#45;&gt;Sum_sum_of_sigT -->
<g id="edge10" class="edge"><title>Sum_isequiv_sigT_of_sum&#45;&gt;Sum_sum_of_sigT</title>
<path fill="none" stroke="black" d="M1689.97,-561.406C1688.42,-534.342 1685.47,-482.938 1683.63,-450.798"/>
<polygon fill="black" stroke="black" points="1687.11,-450.483 1683.05,-440.7 1680.13,-450.884 1687.11,-450.483"/>
</g>
<!-- Sum_sigT_of_sum -->
<g id="node12" class="node"><title>Sum_sigT_of_sum</title>
<g id="a_node12"><a xlink:href="Sum.html#sigT_of_sum" xlink:title="sigT_of_sum">
<ellipse fill="#f070d1" stroke="black" cx="1816" cy="-422.416" rx="57.6901" ry="18"/>
<text text-anchor="middle" x="1816" y="-418.716" font-family="Times,serif" font-size="14.00">sigT_of_sum</text>
</a>
</g>
</g>
<!-- Sum_isequiv_sigT_of_sum&#45;&gt;Sum_sigT_of_sum -->
<g id="edge11" class="edge"><title>Sum_isequiv_sigT_of_sum&#45;&gt;Sum_sigT_of_sum</title>
<path fill="none" stroke="black" d="M1705.34,-561.406C1727.47,-533.606 1770.06,-480.123 1795.46,-448.218"/>
<polygon fill="black" stroke="black" points="1798.34,-450.219 1801.83,-440.216 1792.86,-445.859 1798.34,-450.219"/>
</g>
<!-- Sum_hset_sum -->
<g id="node13" class="node"><title>Sum_hset_sum</title>
<g id="a_node13"><a xlink:href="Sum.html#hset_sum" xlink:title="hset_sum">
<ellipse fill="#f070d1" stroke="black" cx="1543" cy="-910.416" rx="44.3627" ry="18"/>
<ellipse fill="none" stroke="black" cx="1543" cy="-910.416" rx="48.3778" ry="22"/>
<ellipse fill="none" stroke="black" cx="1543" cy="-910.416" rx="52.3929" ry="26"/>
<text text-anchor="middle" x="1543" y="-906.716" font-family="Times,serif" font-size="14.00">hset_sum</text>
</a>
</g>
</g>
<!-- Sum_trunc_sum -->
<g id="node14" class="node"><title>Sum_trunc_sum</title>
<g id="a_node14"><a xlink:href="Sum.html#trunc_sum" xlink:title="trunc_sum">
<ellipse fill="#f070d1" stroke="black" cx="1516" cy="-735.416" rx="48.1917" ry="18"/>
<text text-anchor="middle" x="1516" y="-731.716" font-family="Times,serif" font-size="14.00">trunc_sum</text>
</a>
</g>
</g>
<!-- Sum_hset_sum&#45;&gt;Sum_trunc_sum -->
<g id="edge12" class="edge"><title>Sum_hset_sum&#45;&gt;Sum_trunc_sum</title>
<path fill="none" stroke="black" d="M1538.96,-884.217C1533.97,-851.866 1525.51,-797.05 1520.37,-763.747"/>
<polygon fill="black" stroke="black" points="1523.81,-763.096 1518.83,-753.747 1516.89,-764.163 1523.81,-763.096"/>
</g>
<!-- Sum_equiv_path_sum -->
<g id="node28" class="node"><title>Sum_equiv_path_sum</title>
<g id="a_node28"><a xlink:href="Sum.html#equiv_path_sum" xlink:title="equiv_path_sum">
<ellipse fill="#f070d1" stroke="black" cx="1516" cy="-579.416" rx="69.5877" ry="18"/>
<text text-anchor="middle" x="1516" y="-575.716" font-family="Times,serif" font-size="14.00">equiv_path_sum</text>
</a>
</g>
</g>
<!-- Sum_trunc_sum&#45;&gt;Sum_equiv_path_sum -->
<g id="edge13" class="edge"><title>Sum_trunc_sum&#45;&gt;Sum_equiv_path_sum</title>
<path fill="none" stroke="black" d="M1516,-717.216C1516,-690.326 1516,-639.742 1516,-607.909"/>
<polygon fill="black" stroke="black" points="1519.5,-607.501 1516,-597.501 1512.5,-607.501 1519.5,-607.501"/>
</g>
<!-- Sum_equiv_sum_distributive -->
<g id="node15" class="node"><title>Sum_equiv_sum_distributive</title>
<g id="a_node15"><a xlink:href="Sum.html#equiv_sum_distributive" xlink:title="equiv_sum_distributive">
<ellipse fill="#f070d1" stroke="black" cx="1371" cy="-910.416" rx="94.4649" ry="18"/>
<ellipse fill="none" stroke="black" cx="1371" cy="-910.416" rx="98.4744" ry="22"/>
<ellipse fill="none" stroke="black" cx="1371" cy="-910.416" rx="102.484" ry="26"/>
<text text-anchor="middle" x="1371" y="-906.716" font-family="Times,serif" font-size="14.00">equiv_sum_distributive</text>
</a>
</g>
</g>
<!-- Sum_equiv_sum_ind -->
<g id="node16" class="node"><title>Sum_equiv_sum_ind</title>
<g id="a_node16"><a xlink:href="Sum.html#equiv_sum_ind" xlink:title="equiv_sum_ind">
<ellipse fill="#f070d1" stroke="black" cx="1364" cy="-735.416" rx="65.7887" ry="18"/>
<text text-anchor="middle" x="1364" y="-731.716" font-family="Times,serif" font-size="14.00">equiv_sum_ind</text>
</a>
</g>
</g>
<!-- Sum_equiv_sum_distributive&#45;&gt;Sum_equiv_sum_ind -->
<g id="edge14" class="edge"><title>Sum_equiv_sum_distributive&#45;&gt;Sum_equiv_sum_ind</title>
<path fill="none" stroke="black" d="M1369.95,-884.217C1368.66,-851.866 1366.47,-797.05 1365.13,-763.747"/>
<polygon fill="black" stroke="black" points="1368.63,-763.599 1364.73,-753.747 1361.64,-763.878 1368.63,-763.599"/>
</g>
<!-- Sum_isequiv_sum_ind -->
<g id="node17" class="node"><title>Sum_isequiv_sum_ind</title>
<g id="a_node17"><a xlink:href="Sum.html#isequiv_sum_ind" xlink:title="isequiv_sum_ind">
<ellipse fill="#f070d1" stroke="black" cx="1350" cy="-579.416" rx="71.4873" ry="18"/>
<text text-anchor="middle" x="1350" y="-575.716" font-family="Times,serif" font-size="14.00">isequiv_sum_ind</text>
</a>
</g>
</g>
<!-- Sum_equiv_sum_ind&#45;&gt;Sum_isequiv_sum_ind -->
<g id="edge15" class="edge"><title>Sum_equiv_sum_ind&#45;&gt;Sum_isequiv_sum_ind</title>
<path fill="none" stroke="black" d="M1362.37,-717.216C1359.94,-690.209 1355.37,-639.299 1352.52,-607.493"/>
<polygon fill="black" stroke="black" points="1356,-607.148 1351.62,-597.501 1349.03,-607.774 1356,-607.148"/>
</g>
<!-- Sum_sum_ind_uncurried -->
<g id="node18" class="node"><title>Sum_sum_ind_uncurried</title>
<g id="a_node18"><a xlink:href="Sum.html#sum_ind_uncurried" xlink:title="sum_ind_uncurried">
<ellipse fill="#f070d1" stroke="black" cx="1346" cy="-422.416" rx="79.0865" ry="18"/>
<text text-anchor="middle" x="1346" y="-418.716" font-family="Times,serif" font-size="14.00">sum_ind_uncurried</text>
</a>
</g>
</g>
<!-- Sum_isequiv_sum_ind&#45;&gt;Sum_sum_ind_uncurried -->
<g id="edge16" class="edge"><title>Sum_isequiv_sum_ind&#45;&gt;Sum_sum_ind_uncurried</title>
<path fill="none" stroke="black" d="M1349.54,-561.406C1348.85,-534.342 1347.54,-482.938 1346.72,-450.798"/>
<polygon fill="black" stroke="black" points="1350.22,-450.607 1346.47,-440.7 1343.22,-450.786 1350.22,-450.607"/>
</g>
<!-- Sum_sum_ind -->
<g id="node38" class="node"><title>Sum_sum_ind</title>
<g id="a_node38"><a xlink:href="Sum.html#sum_ind" xlink:title="sum_ind">
<ellipse fill="#f070d1" stroke="black" cx="1346" cy="-248.416" rx="41.6928" ry="18"/>
<text text-anchor="middle" x="1346" y="-244.716" font-family="Times,serif" font-size="14.00">sum_ind</text>
</a>
</g>
</g>
<!-- Sum_sum_ind_uncurried&#45;&gt;Sum_sum_ind -->
<g id="edge17" class="edge"><title>Sum_sum_ind_uncurried&#45;&gt;Sum_sum_ind</title>
<path fill="none" stroke="black" d="M1346,-404.124C1346,-373.76 1346,-312.739 1346,-276.763"/>
<polygon fill="black" stroke="black" points="1349.5,-276.463 1346,-266.463 1342.5,-276.463 1349.5,-276.463"/>
</g>
<!-- Sum_equiv_sum_assoc -->
<g id="node19" class="node"><title>Sum_equiv_sum_assoc</title>
<g id="a_node19"><a xlink:href="Sum.html#equiv_sum_assoc" xlink:title="equiv_sum_assoc">
<ellipse fill="#f070d1" stroke="black" cx="1169" cy="-910.416" rx="73.3926" ry="18"/>
<ellipse fill="none" stroke="black" cx="1169" cy="-910.416" rx="77.3898" ry="22"/>
<ellipse fill="none" stroke="black" cx="1169" cy="-910.416" rx="81.387" ry="26"/>
<text text-anchor="middle" x="1169" y="-906.716" font-family="Times,serif" font-size="14.00">equiv_sum_assoc</text>
</a>
</g>
</g>
<!-- Sum_equiv_sum_symm -->
<g id="node20" class="node"><title>Sum_equiv_sum_symm</title>
<g id="a_node20"><a xlink:href="Sum.html#equiv_sum_symm" xlink:title="equiv_sum_symm">
<ellipse fill="#f070d1" stroke="black" cx="985" cy="-910.416" rx="76.8685" ry="18"/>
<ellipse fill="none" stroke="black" cx="985" cy="-910.416" rx="80.8777" ry="22"/>
<ellipse fill="none" stroke="black" cx="985" cy="-910.416" rx="84.8868" ry="26"/>
<text text-anchor="middle" x="985" y="-906.716" font-family="Times,serif" font-size="14.00">equiv_sum_symm</text>
</a>
</g>
</g>
<!-- Sum_equiv_functor_sum_r -->
<g id="node21" class="node"><title>Sum_equiv_functor_sum_r</title>
<g id="a_node21"><a xlink:href="Sum.html#equiv_functor_sum_r" xlink:title="equiv_functor_sum_r">
<ellipse fill="#f070d1" stroke="black" cx="787" cy="-910.416" rx="87.1769" ry="18"/>
<ellipse fill="none" stroke="black" cx="787" cy="-910.416" rx="91.1807" ry="22"/>
<ellipse fill="none" stroke="black" cx="787" cy="-910.416" rx="95.1846" ry="26"/>
<text text-anchor="middle" x="787" y="-906.716" font-family="Times,serif" font-size="14.00">equiv_functor_sum_r</text>
</a>
</g>
</g>
<!-- Sum_equiv_functor_sum -->
<g id="node24" class="node"><title>Sum_equiv_functor_sum</title>
<g id="a_node24"><a xlink:href="Sum.html#equiv_functor_sum" xlink:title="equiv_functor_sum">
<ellipse fill="#f070d1" stroke="black" cx="579" cy="-735.416" rx="79.0865" ry="18"/>
<text text-anchor="middle" x="579" y="-731.716" font-family="Times,serif" font-size="14.00">equiv_functor_sum</text>
</a>
</g>
</g>
<!-- Sum_equiv_functor_sum_r&#45;&gt;Sum_equiv_functor_sum -->
<g id="edge18" class="edge"><title>Sum_equiv_functor_sum_r&#45;&gt;Sum_equiv_functor_sum</title>
<path fill="none" stroke="black" d="M757.199,-885.343C717.347,-851.814 647.167,-792.768 607.82,-759.664"/>
<polygon fill="black" stroke="black" points="609.819,-756.772 599.914,-753.012 605.313,-762.128 609.819,-756.772"/>
</g>
<!-- Sum_equiv_functor_sum_l -->
<g id="node22" class="node"><title>Sum_equiv_functor_sum_l</title>
<g id="a_node22"><a xlink:href="Sum.html#equiv_functor_sum_l" xlink:title="equiv_functor_sum_l">
<ellipse fill="#f070d1" stroke="black" cx="579" cy="-910.416" rx="86.3896" ry="18"/>
<ellipse fill="none" stroke="black" cx="579" cy="-910.416" rx="90.3871" ry="22"/>
<ellipse fill="none" stroke="black" cx="579" cy="-910.416" rx="94.3847" ry="26"/>
<text text-anchor="middle" x="579" y="-906.716" font-family="Times,serif" font-size="14.00">equiv_functor_sum_l</text>
</a>
</g>
</g>
<!-- Sum_equiv_functor_sum_l&#45;&gt;Sum_equiv_functor_sum -->
<g id="edge19" class="edge"><title>Sum_equiv_functor_sum_l&#45;&gt;Sum_equiv_functor_sum</title>
<path fill="none" stroke="black" d="M579,-884.217C579,-851.866 579,-797.05 579,-763.747"/>
<polygon fill="black" stroke="black" points="582.5,-763.747 579,-753.747 575.5,-763.747 582.5,-763.747"/>
</g>
<!-- Sum_equiv_functor_sum_ -->
<g id="node23" class="node"><title>Sum_equiv_functor_sum_</title>
<g id="a_node23"><a xlink:href="Sum.html#equiv_functor_sum'" xlink:title="equiv_functor_sum&#39;">
<ellipse fill="#f070d1" stroke="black" cx="377" cy="-910.416" rx="81.4644" ry="18"/>
<ellipse fill="none" stroke="black" cx="377" cy="-910.416" rx="85.4753" ry="22"/>
<ellipse fill="none" stroke="black" cx="377" cy="-910.416" rx="89.4862" ry="26"/>
<text text-anchor="middle" x="377" y="-906.716" font-family="Times,serif" font-size="14.00">equiv_functor_sum&#39;</text>
</a>
</g>
</g>
<!-- Sum_equiv_functor_sum_&#45;&gt;Sum_equiv_functor_sum -->
<g id="edge20" class="edge"><title>Sum_equiv_functor_sum_&#45;&gt;Sum_equiv_functor_sum</title>
<path fill="none" stroke="black" d="M405.513,-885.714C444.197,-852.201 512.863,-792.713 551.183,-759.515"/>
<polygon fill="black" stroke="black" points="553.611,-762.042 558.878,-752.849 549.028,-756.751 553.611,-762.042"/>
</g>
<!-- Sum_isequiv_functor_sum -->
<g id="node25" class="node"><title>Sum_isequiv_functor_sum</title>
<g id="a_node25"><a xlink:href="Sum.html#isequiv_functor_sum" xlink:title="isequiv_functor_sum">
<ellipse fill="#f070d1" stroke="black" cx="579" cy="-579.416" rx="85.2851" ry="18"/>
<text text-anchor="middle" x="579" y="-575.716" font-family="Times,serif" font-size="14.00">isequiv_functor_sum</text>
</a>
</g>
</g>
<!-- Sum_equiv_functor_sum&#45;&gt;Sum_isequiv_functor_sum -->
<g id="edge21" class="edge"><title>Sum_equiv_functor_sum&#45;&gt;Sum_isequiv_functor_sum</title>
<path fill="none" stroke="black" d="M579,-717.216C579,-690.326 579,-639.742 579,-607.909"/>
<polygon fill="black" stroke="black" points="582.5,-607.501 579,-597.501 575.5,-607.501 582.5,-607.501"/>
</g>
<!-- Sum_functor_sum -->
<g id="node26" class="node"><title>Sum_functor_sum</title>
<g id="a_node26"><a xlink:href="Sum.html#functor_sum" xlink:title="functor_sum">
<ellipse fill="#f070d1" stroke="black" cx="579" cy="-422.416" rx="55.7903" ry="18"/>
<text text-anchor="middle" x="579" y="-418.716" font-family="Times,serif" font-size="14.00">functor_sum</text>
</a>
</g>
</g>
<!-- Sum_isequiv_functor_sum&#45;&gt;Sum_functor_sum -->
<g id="edge22" class="edge"><title>Sum_isequiv_functor_sum&#45;&gt;Sum_functor_sum</title>
<path fill="none" stroke="black" d="M579,-561.406C579,-534.342 579,-482.938 579,-450.798"/>
<polygon fill="black" stroke="black" points="582.5,-450.7 579,-440.7 575.5,-450.7 582.5,-450.7"/>
</g>
<!-- Sum_transport_sum -->
<g id="node27" class="node"><title>Sum_transport_sum</title>
<g id="a_node27"><a xlink:href="Sum.html#transport_sum" xlink:title="transport_sum">
<ellipse fill="#f070d1" stroke="black" cx="200" cy="-910.416" rx="61.9618" ry="18"/>
<ellipse fill="none" stroke="black" cx="200" cy="-910.416" rx="65.9758" ry="22"/>
<ellipse fill="none" stroke="black" cx="200" cy="-910.416" rx="69.9899" ry="26"/>
<text text-anchor="middle" x="200" y="-906.716" font-family="Times,serif" font-size="14.00">transport_sum</text>
</a>
</g>
</g>
<!-- Sum_isequiv_path_sum -->
<g id="node29" class="node"><title>Sum_isequiv_path_sum</title>
<g id="a_node29"><a xlink:href="Sum.html#isequiv_path_sum" xlink:title="isequiv_path_sum">
<ellipse fill="#f070d1" stroke="black" cx="1519" cy="-422.416" rx="75.2868" ry="18"/>
<text text-anchor="middle" x="1519" y="-418.716" font-family="Times,serif" font-size="14.00">isequiv_path_sum</text>
</a>
</g>
</g>
<!-- Sum_equiv_path_sum&#45;&gt;Sum_isequiv_path_sum -->
<g id="edge23" class="edge"><title>Sum_equiv_path_sum&#45;&gt;Sum_isequiv_path_sum</title>
<path fill="none" stroke="black" d="M1516.34,-561.406C1516.86,-534.342 1517.84,-482.938 1518.46,-450.798"/>
<polygon fill="black" stroke="black" points="1521.96,-450.765 1518.65,-440.7 1514.96,-450.631 1521.96,-450.765"/>
</g>
<!-- Sum_eissect_path_sum -->
<g id="node30" class="node"><title>Sum_eissect_path_sum</title>
<g id="a_node30"><a xlink:href="Sum.html#eissect_path_sum" xlink:title="eissect_path_sum">
<ellipse fill="#f070d1" stroke="black" cx="1479" cy="-248.416" rx="73.387" ry="18"/>
<text text-anchor="middle" x="1479" y="-244.716" font-family="Times,serif" font-size="14.00">eissect_path_sum</text>
</a>
</g>
</g>
<!-- Sum_isequiv_path_sum&#45;&gt;Sum_eissect_path_sum -->
<g id="edge24" class="edge"><title>Sum_isequiv_path_sum&#45;&gt;Sum_eissect_path_sum</title>
<path fill="none" stroke="black" d="M1514.79,-404.124C1507.78,-373.629 1493.67,-312.212 1485.41,-276.299"/>
<polygon fill="black" stroke="black" points="1488.8,-275.425 1483.15,-266.463 1481.98,-276.993 1488.8,-275.425"/>
</g>
<!-- Sum_eisretr_path_sum -->
<g id="node31" class="node"><title>Sum_eisretr_path_sum</title>
<g id="a_node31"><a xlink:href="Sum.html#eisretr_path_sum" xlink:title="eisretr_path_sum">
<ellipse fill="#f070d1" stroke="black" cx="1642" cy="-248.416" rx="71.4873" ry="18"/>
<text text-anchor="middle" x="1642" y="-244.716" font-family="Times,serif" font-size="14.00">eisretr_path_sum</text>
</a>
</g>
</g>
<!-- Sum_isequiv_path_sum&#45;&gt;Sum_eisretr_path_sum -->
<g id="edge25" class="edge"><title>Sum_isequiv_path_sum&#45;&gt;Sum_eisretr_path_sum</title>
<path fill="none" stroke="black" d="M1531.7,-404.45C1553.48,-373.633 1598.07,-310.561 1623.38,-274.762"/>
<polygon fill="black" stroke="black" points="1626.45,-276.47 1629.37,-266.284 1620.74,-272.43 1626.45,-276.47"/>
</g>
<!-- Sum_path_sum_inv -->
<g id="node35" class="node"><title>Sum_path_sum_inv</title>
<g id="a_node35"><a xlink:href="Sum.html#path_sum_inv" xlink:title="path_sum_inv">
<ellipse fill="#f070d1" stroke="black" cx="1219" cy="-74.4161" rx="61.1893" ry="18"/>
<text text-anchor="middle" x="1219" y="-70.7161" font-family="Times,serif" font-size="14.00">path_sum_inv</text>
</a>
</g>
</g>
<!-- Sum_eissect_path_sum&#45;&gt;Sum_path_sum_inv -->
<g id="edge26" class="edge"><title>Sum_eissect_path_sum&#45;&gt;Sum_path_sum_inv</title>
<path fill="none" stroke="black" d="M1453.6,-231.415C1406.37,-199.808 1305.07,-132.016 1252.38,-96.7548"/>
<polygon fill="black" stroke="black" points="1254,-93.6281 1243.74,-90.9751 1250.11,-99.4456 1254,-93.6281"/>
</g>
<!-- Sum_path_sum -->
<g id="node36" class="node"><title>Sum_path_sum</title>
<g id="a_node36"><a xlink:href="Sum.html#path_sum" xlink:title="path_sum">
<ellipse fill="#f070d1" stroke="black" cx="1560" cy="-74.4161" rx="45.4919" ry="18"/>
<text text-anchor="middle" x="1560" y="-70.7161" font-family="Times,serif" font-size="14.00">path_sum</text>
</a>
</g>
</g>
<!-- Sum_eissect_path_sum&#45;&gt;Sum_path_sum -->
<g id="edge27" class="edge"><title>Sum_eissect_path_sum&#45;&gt;Sum_path_sum</title>
<path fill="none" stroke="black" d="M1487.36,-230.45C1501.59,-199.894 1530.57,-137.628 1547.31,-101.678"/>
<polygon fill="black" stroke="black" points="1550.63,-102.827 1551.68,-92.2841 1544.29,-99.8728 1550.63,-102.827"/>
</g>
<!-- Sum_eisretr_path_sum&#45;&gt;Sum_path_sum_inv -->
<g id="edge28" class="edge"><title>Sum_eisretr_path_sum&#45;&gt;Sum_path_sum_inv</title>
<path fill="none" stroke="black" d="M1604.46,-232.975C1526.58,-200.94 1347.75,-127.375 1263.91,-92.8909"/>
<polygon fill="black" stroke="black" points="1265.23,-89.65 1254.65,-89.0826 1262.57,-96.1237 1265.23,-89.65"/>
</g>
<!-- Sum_eisretr_path_sum&#45;&gt;Sum_path_sum -->
<g id="edge29" class="edge"><title>Sum_eisretr_path_sum&#45;&gt;Sum_path_sum</title>
<path fill="none" stroke="black" d="M1633.53,-230.45C1619.13,-199.894 1589.79,-137.628 1572.85,-101.678"/>
<polygon fill="black" stroke="black" points="1575.85,-99.8379 1568.42,-92.2841 1569.52,-102.822 1575.85,-99.8379"/>
</g>
<!-- Sum_path_sum_inr -->
<g id="node32" class="node"><title>Sum_path_sum_inr</title>
<g id="a_node32"><a xlink:href="Sum.html#path_sum_inr" xlink:title="path_sum_inr">
<ellipse fill="#f070d1" stroke="black" cx="1219" cy="-248.416" rx="59.6142" ry="18"/>
<ellipse fill="none" stroke="black" cx="1219" cy="-248.416" rx="63.6021" ry="22"/>
<ellipse fill="none" stroke="black" cx="1219" cy="-248.416" rx="67.59" ry="26"/>
<text text-anchor="middle" x="1219" y="-244.716" font-family="Times,serif" font-size="14.00">path_sum_inr</text>
</a>
</g>
</g>
<!-- Sum_path_sum_inr&#45;&gt;Sum_path_sum_inv -->
<g id="edge30" class="edge"><title>Sum_path_sum_inr&#45;&gt;Sum_path_sum_inv</title>
<path fill="none" stroke="black" d="M1219,-222.367C1219,-190.34 1219,-136.169 1219,-103.017"/>
<polygon fill="black" stroke="black" points="1222.5,-102.642 1219,-92.6418 1215.5,-102.642 1222.5,-102.642"/>
</g>
<!-- Sum_path_sum_inl -->
<g id="node33" class="node"><title>Sum_path_sum_inl</title>
<g id="a_node33"><a xlink:href="Sum.html#path_sum_inl" xlink:title="path_sum_inl">
<ellipse fill="#f070d1" stroke="black" cx="1066" cy="-248.416" rx="59.2725" ry="18"/>
<ellipse fill="none" stroke="black" cx="1066" cy="-248.416" rx="63.2812" ry="22"/>
<ellipse fill="none" stroke="black" cx="1066" cy="-248.416" rx="67.2898" ry="26"/>
<text text-anchor="middle" x="1066" y="-244.716" font-family="Times,serif" font-size="14.00">path_sum_inl</text>
</a>
</g>
</g>
<!-- Sum_path_sum_inl&#45;&gt;Sum_path_sum_inv -->
<g id="edge31" class="edge"><title>Sum_path_sum_inl&#45;&gt;Sum_path_sum_inv</title>
<path fill="none" stroke="black" d="M1087.92,-223.486C1116.87,-190.567 1167.57,-132.91 1196.7,-99.777"/>
<polygon fill="black" stroke="black" points="1199.64,-101.733 1203.62,-91.9117 1194.38,-97.1102 1199.64,-101.733"/>
</g>
<!-- Sum_inl_ne_inr -->
<g id="node34" class="node"><title>Sum_inl_ne_inr</title>
<g id="a_node34"><a xlink:href="Sum.html#inl_ne_inr" xlink:title="inl_ne_inr">
<ellipse fill="#f070d1" stroke="black" cx="926" cy="-248.416" rx="46.6221" ry="18"/>
<ellipse fill="none" stroke="black" cx="926" cy="-248.416" rx="50.6073" ry="22"/>
<ellipse fill="none" stroke="black" cx="926" cy="-248.416" rx="54.5925" ry="26"/>
<text text-anchor="middle" x="926" y="-244.716" font-family="Times,serif" font-size="14.00">inl_ne_inr</text>
</a>
</g>
</g>
<!-- Sum_inl_ne_inr&#45;&gt;Sum_path_sum_inv -->
<g id="edge32" class="edge"><title>Sum_inl_ne_inr&#45;&gt;Sum_path_sum_inv</title>
<path fill="none" stroke="black" d="M960.472,-227.944C1016.33,-194.773 1126.08,-129.596 1182.94,-95.8299"/>
<polygon fill="black" stroke="black" points="1184.79,-98.8055 1191.6,-90.6901 1181.21,-92.7868 1184.79,-98.8055"/>
</g>
<!-- Sum_eta_sum -->
<g id="node37" class="node"><title>Sum_eta_sum</title>
<g id="a_node37"><a xlink:href="Sum.html#eta_sum" xlink:title="eta_sum">
<ellipse fill="#f070d1" stroke="black" cx="64" cy="-910.416" rx="40.1273" ry="18"/>
<ellipse fill="none" stroke="black" cx="64" cy="-910.416" rx="44.1105" ry="22"/>
<ellipse fill="none" stroke="black" cx="64" cy="-910.416" rx="48.0937" ry="26"/>
<text text-anchor="middle" x="64" y="-906.716" font-family="Times,serif" font-size="14.00">eta_sum</text>
</a>
</g>
</g>
</g>
</svg>
