<?xml version="1.0" encoding="UTF-8" standalone="no"?>
<!DOCTYPE svg PUBLIC "-//W3C//DTD SVG 1.1//EN"
 "http://www.w3.org/Graphics/SVG/1.1/DTD/svg11.dtd">
<!-- Generated by graphviz version 2.39.20141222.0545 (20141222.0545)
 -->
<!-- Title: HoTT_categories_Comma_Dual Pages: 1 -->
<svg width="366pt" height="187pt"
 viewBox="0.00 0.00 366.00 187.00" xmlns="http://www.w3.org/2000/svg" xmlns:xlink="http://www.w3.org/1999/xlink">
<g id="graph0" class="graph" transform="scale(1 1) rotate(0) translate(4 183)">
<title>HoTT_categories_Comma_Dual</title>
<polygon fill="white" stroke="transparent" points="-4,4 -4,-183 362,-183 362,4 -4,4"/>
<g id="clust1" class="cluster"><title>cluster_Dual</title>
<polygon fill="#ffffc3" stroke="black" points="11.9333,-8 11.9333,-171 346.067,-171 346.067,-8 11.9333,-8"/>
<text text-anchor="middle" x="33.4333" y="-155.8" font-family="Times,serif" font-size="14.00">Dual</text>
</g>
<!-- Dual_dual_functor_involutive -->
<g id="node1" class="node"><title>Dual_dual_functor_involutive</title>
<g id="a_node1"><a xlink:href="Dual.html#dual_functor_involutive" xlink:title="dual_functor_involutive">
<ellipse fill="#f070d1" stroke="black" cx="178.908" cy="-114" rx="95.5799" ry="18"/>
<ellipse fill="none" stroke="black" cx="178.908" cy="-114" rx="99.5815" ry="22"/>
<ellipse fill="none" stroke="black" cx="178.908" cy="-114" rx="103.583" ry="26"/>
<text text-anchor="middle" x="178.908" y="-110.3" font-family="Times,serif" font-size="14.00">dual_functor_involutive</text>
</a>
</g>
</g>
<!-- Dual_dual_functor -->
<g id="node2" class="node"><title>Dual_dual_functor</title>
<g id="a_node2"><a xlink:href="Dual.html#dual_functor" xlink:title="dual_functor">
<ellipse fill="#f070d1" stroke="black" cx="178.908" cy="-34" rx="55.7903" ry="18"/>
<text text-anchor="middle" x="178.908" y="-30.3" font-family="Times,serif" font-size="14.00">dual_functor</text>
</a>
</g>
</g>
<!-- Dual_dual_functor_involutive&#45;&gt;Dual_dual_functor -->
<g id="edge1" class="edge"><title>Dual_dual_functor_involutive&#45;&gt;Dual_dual_functor</title>
<path fill="none" stroke="black" d="M178.908,-87.805C178.908,-79.6026 178.908,-70.5174 178.908,-62.1839"/>
<polygon fill="black" stroke="black" points="182.408,-62.1532 178.908,-52.1532 175.408,-62.1533 182.408,-62.1532"/>
</g>
</g>
</svg>
