<?xml version="1.0" encoding="UTF-8" standalone="no"?>
<!DOCTYPE svg PUBLIC "-//W3C//DTD SVG 1.1//EN"
 "http://www.w3.org/Graphics/SVG/1.1/DTD/svg11.dtd">
<!-- Generated by graphviz version 2.39.20161220.0128 (20161220.0128)
 -->
<!-- Title: HoTT_Tactics_EvalIn Pages: 1 -->
<svg width="510pt" height="259pt"
 viewBox="0.00 0.00 510.00 259.00" xmlns="http://www.w3.org/2000/svg" xmlns:xlink="http://www.w3.org/1999/xlink">
<g id="graph0" class="graph" transform="scale(1 1) rotate(0) translate(4 255)">
<title>HoTT_Tactics_EvalIn</title>
<polygon fill="#ffffff" stroke="transparent" points="-4,4 -4,-255 506,-255 506,4 -4,4"/>
<g id="clust1" class="cluster">
<title>cluster_EvalIn</title>
<polygon fill="#ffffc3" stroke="#000000" points="13.4765,-8 13.4765,-243 488.5235,-243 488.5235,-8 13.4765,-8"/>
<text text-anchor="middle" x="39.9765" y="-227.8" font-family="Times,serif" font-size="14.00" fill="#000000">EvalIn</text>
</g>
<!-- EvalIn_dummy_rec -->
<g id="node1" class="node">
<title>EvalIn_dummy_rec</title>
<g id="a_node1"><a xlink:href="EvalIn.html#dummy_rec" xlink:title="dummy_rec">
<ellipse fill="#f070d1" stroke="#000000" cx="370.604" cy="-186" rx="53.8975" ry="18"/>
<ellipse fill="none" stroke="#000000" cx="370.604" cy="-186" rx="57.894" ry="22"/>
<ellipse fill="none" stroke="#000000" cx="370.604" cy="-186" rx="61.8905" ry="26"/>
<text text-anchor="middle" x="370.604" y="-182.3" font-family="Times,serif" font-size="14.00" fill="#000000">dummy_rec</text>
</a>
</g>
</g>
<!-- EvalIn_dummy_rect -->
<g id="node3" class="node">
<title>EvalIn_dummy_rect</title>
<g id="a_node3"><a xlink:href="EvalIn.html#dummy_rect" xlink:title="dummy_rect">
<ellipse fill="#f070d1" stroke="#000000" cx="205.604" cy="-106" rx="55.7903" ry="18"/>
<text text-anchor="middle" x="205.604" y="-102.3" font-family="Times,serif" font-size="14.00" fill="#000000">dummy_rect</text>
</a>
</g>
</g>
<!-- EvalIn_dummy_rec&#45;&gt;EvalIn_dummy_rect -->
<g id="edge1" class="edge">
<title>EvalIn_dummy_rec&#45;&gt;EvalIn_dummy_rect</title>
<path fill="none" stroke="#000000" d="M329.8175,-166.2247C304.1493,-153.7795 271.1702,-137.7897 245.6453,-125.4139"/>
<polygon fill="#000000" stroke="#000000" points="247.1311,-122.2447 236.606,-121.0312 244.0771,-128.5434 247.1311,-122.2447"/>
</g>
<!-- EvalIn_dummy_ind -->
<g id="node2" class="node">
<title>EvalIn_dummy_ind</title>
<g id="a_node2"><a xlink:href="EvalIn.html#dummy_ind" xlink:title="dummy_ind">
<ellipse fill="#7fffd4" stroke="#000000" cx="131.604" cy="-186" rx="53.8975" ry="18"/>
<ellipse fill="none" stroke="#000000" cx="131.604" cy="-186" rx="57.894" ry="22"/>
<ellipse fill="none" stroke="#000000" cx="131.604" cy="-186" rx="61.8905" ry="26"/>
<text text-anchor="middle" x="131.604" y="-182.3" font-family="Times,serif" font-size="14.00" fill="#000000">dummy_ind</text>
</a>
</g>
</g>
<!-- EvalIn_dummy_ind&#45;&gt;EvalIn_dummy_rect -->
<g id="edge2" class="edge">
<title>EvalIn_dummy_ind&#45;&gt;EvalIn_dummy_rect</title>
<path fill="none" stroke="#000000" d="M154.2086,-161.5627C163.1968,-151.8456 173.5279,-140.6769 182.5592,-130.9133"/>
<polygon fill="#000000" stroke="#000000" points="185.2519,-133.1566 189.473,-123.439 180.1132,-128.4033 185.2519,-133.1566"/>
</g>
<!-- EvalIn_adummy -->
<g id="node4" class="node">
<title>EvalIn_adummy</title>
<g id="a_node4"><a xlink:href="EvalIn.html#adummy" xlink:title="adummy">
<ellipse fill="#7faaff" stroke="#000000" cx="114.604" cy="-34" rx="42.4939" ry="18"/>
<text text-anchor="middle" x="114.604" y="-30.3" font-family="Times,serif" font-size="14.00" fill="#000000">adummy</text>
</a>
</g>
</g>
<!-- EvalIn_dummy_rect&#45;&gt;EvalIn_adummy -->
<g id="edge3" class="edge">
<title>EvalIn_dummy_rect&#45;&gt;EvalIn_adummy</title>
<path fill="none" stroke="#000000" d="M184.4981,-89.3008C172.0627,-79.4618 156.1759,-66.892 142.6918,-56.2233"/>
<polygon fill="#000000" stroke="#000000" points="144.6728,-53.3276 134.6588,-49.8675 140.3294,-58.8172 144.6728,-53.3276"/>
</g>
<!-- EvalIn_dummy -->
<g id="node5" class="node">
<title>EvalIn_dummy</title>
<g id="a_node5"><a xlink:href="EvalIn.html#dummy" xlink:title="dummy">
<ellipse fill="#e2cdfa" stroke="#000000" cx="281.604" cy="-34" rx="38.1938" ry="18"/>
<text text-anchor="middle" x="281.604" y="-30.3" font-family="Times,serif" font-size="14.00" fill="#000000">dummy</text>
</a>
</g>
</g>
<!-- EvalIn_dummy_rect&#45;&gt;EvalIn_dummy -->
<g id="edge4" class="edge">
<title>EvalIn_dummy_rect&#45;&gt;EvalIn_dummy</title>
<path fill="none" stroke="#000000" d="M223.615,-88.937C233.5757,-79.5005 246.098,-67.6373 256.9547,-57.352"/>
<polygon fill="#000000" stroke="#000000" points="259.6528,-59.6172 264.5052,-50.1989 254.8386,-54.5355 259.6528,-59.6172"/>
</g>
</g>
</svg>
