<?xml version="1.0" encoding="UTF-8" standalone="no"?>
<!DOCTYPE svg PUBLIC "-//W3C//DTD SVG 1.1//EN"
 "http://www.w3.org/Graphics/SVG/1.1/DTD/svg11.dtd">
<!-- Generated by graphviz version 2.26.3 (20100126.1600)
 -->
<!-- Title: HoTT_categories_SetCategory_SetCategory Pages: 1 -->
<svg width="3222pt" height="1615pt"
 viewBox="0.00 0.00 3222.00 1615.00" xmlns="http://www.w3.org/2000/svg" xmlns:xlink="http://www.w3.org/1999/xlink">
<g id="graph1" class="graph" transform="scale(1 1) rotate(0) translate(4 1611)">
<title>HoTT_categories_SetCategory_SetCategory</title>
<polygon fill="white" stroke="white" points="-4,5 -4,-1611 3219,-1611 3219,5 -4,5"/>
<g id="graph2" class="cluster"><title>cluster_SetCategory</title>
<polygon fill="#ffffc3" stroke="black" points="8,-43.7279 8,-1563.27 3206,-1563.27 3206,-43.7279 8,-43.7279"/>
<text text-anchor="middle" x="59.5" y="-1546.67" font-family="Times Roman,serif" font-size="14.00">SetCategory</text>
</g>
<g id="graph3" class="cluster"><title>cluster_SetCategory_Functors</title>
<polygon fill="#ffffa3" stroke="black" points="2168,-448.211 2168,-1377.43 3198,-1377.43 3198,-448.211 2168,-448.211"/>
<text text-anchor="middle" x="2206" y="-1360.83" font-family="Times Roman,serif" font-size="14.00">Functors</text>
</g>
<!-- SetCategory_Functors_from_set2prop -->
<g id="node1" class="node"><title>SetCategory_Functors_from_set2prop</title>
<a xlink:href="SetCategory.html#Functors.from_set2prop" xlink:title="from_set2prop">
<ellipse fill="#f070d1" stroke="black" cx="3100" cy="-1043.73" rx="82.0244" ry="18.3848"/>
<ellipse fill="none" stroke="black" cx="3100" cy="-1043.73" rx="86.0244" ry="22.3848"/>
<ellipse fill="none" stroke="black" cx="3100" cy="-1043.73" rx="90.0244" ry="26.3848"/>
<text text-anchor="middle" x="3100" y="-1040.13" font-family="Times Roman,serif" font-size="14.00">from_set2prop</text>
</a>
</g>
<!-- SetCategory_Functors_from_set -->
<g id="node7" class="node"><title>SetCategory_Functors_from_set</title>
<a xlink:href="SetCategory.html#Functors.from_set" xlink:title="from_set">
<ellipse fill="#f070d1" stroke="black" cx="3008" cy="-595.728" rx="53.9477" ry="18.3848"/>
<text text-anchor="middle" x="3008" y="-592.128" font-family="Times Roman,serif" font-size="14.00">from_set</text>
</a>
</g>
<!-- SetCategory_Functors_from_set2prop&#45;&gt;SetCategory_Functors_from_set -->
<g id="edge2" class="edge"><title>SetCategory_Functors_from_set2prop&#45;&gt;SetCategory_Functors_from_set</title>
<path fill="none" stroke="black" d="M3094.52,-1017.05C3078.31,-938.084 3030.65,-706.012 3013.9,-624.463"/>
<polygon fill="black" stroke="black" points="3017.28,-623.508 3011.84,-614.416 3010.42,-624.916 3017.28,-623.508"/>
</g>
<!-- SetCategory_Functors_to_prop2set -->
<g id="node2" class="node"><title>SetCategory_Functors_to_prop2set</title>
<a xlink:href="SetCategory.html#Functors.to_prop2set" xlink:title="to_prop2set">
<ellipse fill="#f070d1" stroke="black" cx="2560" cy="-1043.73" rx="70.0036" ry="18.3848"/>
<ellipse fill="none" stroke="black" cx="2560" cy="-1043.73" rx="74.0036" ry="22.3848"/>
<ellipse fill="none" stroke="black" cx="2560" cy="-1043.73" rx="78.0036" ry="26.3848"/>
<text text-anchor="middle" x="2560" y="-1040.13" font-family="Times Roman,serif" font-size="14.00">to_prop2set</text>
</a>
</g>
<!-- SetCategory_Functors_to_prop -->
<g id="node10" class="node"><title>SetCategory_Functors_to_prop</title>
<a xlink:href="SetCategory.html#Functors.to_prop" xlink:title="to_prop">
<ellipse fill="#f070d1" stroke="black" cx="2476" cy="-595.728" rx="48.7904" ry="18.3848"/>
<text text-anchor="middle" x="2476" y="-592.128" font-family="Times Roman,serif" font-size="14.00">to_prop</text>
</a>
</g>
<!-- SetCategory_Functors_to_prop2set&#45;&gt;SetCategory_Functors_to_prop -->
<g id="edge4" class="edge"><title>SetCategory_Functors_to_prop2set&#45;&gt;SetCategory_Functors_to_prop</title>
<path fill="none" stroke="black" d="M2555,-1017.05C2540.19,-938.084 2496.68,-706.012 2481.39,-624.463"/>
<polygon fill="black" stroke="black" points="2484.79,-623.6 2479.5,-614.416 2477.91,-624.89 2484.79,-623.6"/>
</g>
<!-- SetCategory_Functors_from_set_id -->
<g id="node3" class="node"><title>SetCategory_Functors_from_set_id</title>
<a xlink:href="SetCategory.html#Functors.from_set_id" xlink:title="from_set_id">
<ellipse fill="#f070d1" stroke="black" cx="2916" cy="-1043.73" rx="67.8823" ry="18.3848"/>
<ellipse fill="none" stroke="black" cx="2916" cy="-1043.73" rx="71.8823" ry="22.3848"/>
<ellipse fill="none" stroke="black" cx="2916" cy="-1043.73" rx="75.8823" ry="26.3848"/>
<text text-anchor="middle" x="2916" y="-1040.13" font-family="Times Roman,serif" font-size="14.00">from_set_id</text>
</a>
</g>
<!-- SetCategory_Functors_from_set_id&#45;&gt;SetCategory_Functors_from_set -->
<g id="edge6" class="edge"><title>SetCategory_Functors_from_set_id&#45;&gt;SetCategory_Functors_from_set</title>
<path fill="none" stroke="black" d="M2921.48,-1017.05C2937.69,-938.084 2985.35,-706.012 3002.1,-624.463"/>
<polygon fill="black" stroke="black" points="3005.58,-624.916 3004.16,-614.416 2998.72,-623.508 3005.58,-624.916"/>
</g>
<!-- SetCategory_Functors_from_prop_id -->
<g id="node4" class="node"><title>SetCategory_Functors_from_prop_id</title>
<a xlink:href="SetCategory.html#Functors.from_prop_id" xlink:title="from_prop_id">
<ellipse fill="#f070d1" stroke="black" cx="2739" cy="-1043.73" rx="74.9533" ry="18.3848"/>
<ellipse fill="none" stroke="black" cx="2739" cy="-1043.73" rx="78.9533" ry="22.3848"/>
<ellipse fill="none" stroke="black" cx="2739" cy="-1043.73" rx="82.9533" ry="26.3848"/>
<text text-anchor="middle" x="2739" y="-1040.13" font-family="Times Roman,serif" font-size="14.00">from_prop_id</text>
</a>
</g>
<!-- SetCategory_Functors_from_prop -->
<g id="node8" class="node"><title>SetCategory_Functors_from_prop</title>
<a xlink:href="SetCategory.html#Functors.from_prop" xlink:title="from_prop">
<ellipse fill="#f070d1" stroke="black" cx="2739" cy="-595.728" rx="60.8112" ry="18.3848"/>
<text text-anchor="middle" x="2739" y="-592.128" font-family="Times Roman,serif" font-size="14.00">from_prop</text>
</a>
</g>
<!-- SetCategory_Functors_from_prop_id&#45;&gt;SetCategory_Functors_from_prop -->
<g id="edge8" class="edge"><title>SetCategory_Functors_from_prop_id&#45;&gt;SetCategory_Functors_from_prop</title>
<path fill="none" stroke="black" d="M2739,-1017.05C2739,-938.084 2739,-706.012 2739,-624.463"/>
<polygon fill="black" stroke="black" points="2742.5,-624.416 2739,-614.416 2735.5,-624.416 2742.5,-624.416"/>
</g>
<!-- SetCategory_Functors_to_set_id -->
<g id="node5" class="node"><title>SetCategory_Functors_to_set_id</title>
<a xlink:href="SetCategory.html#Functors.to_set_id" xlink:title="to_set_id">
<ellipse fill="#f070d1" stroke="black" cx="2240" cy="-1043.73" rx="55.8614" ry="18.3848"/>
<ellipse fill="none" stroke="black" cx="2240" cy="-1043.73" rx="59.8614" ry="22.3848"/>
<ellipse fill="none" stroke="black" cx="2240" cy="-1043.73" rx="63.8614" ry="26.3848"/>
<text text-anchor="middle" x="2240" y="-1040.13" font-family="Times Roman,serif" font-size="14.00">to_set_id</text>
</a>
</g>
<!-- SetCategory_Functors_to_set -->
<g id="node9" class="node"><title>SetCategory_Functors_to_set</title>
<a xlink:href="SetCategory.html#Functors.to_set" xlink:title="to_set">
<ellipse fill="#f070d1" stroke="black" cx="2240" cy="-595.728" rx="41.2167" ry="18.3848"/>
<text text-anchor="middle" x="2240" y="-592.128" font-family="Times Roman,serif" font-size="14.00">to_set</text>
</a>
</g>
<!-- SetCategory_Functors_to_set_id&#45;&gt;SetCategory_Functors_to_set -->
<g id="edge10" class="edge"><title>SetCategory_Functors_to_set_id&#45;&gt;SetCategory_Functors_to_set</title>
<path fill="none" stroke="black" d="M2240,-1017.05C2240,-938.084 2240,-706.012 2240,-624.463"/>
<polygon fill="black" stroke="black" points="2243.5,-624.416 2240,-614.416 2236.5,-624.416 2243.5,-624.416"/>
</g>
<!-- SetCategory_Functors_to_prop_id -->
<g id="node6" class="node"><title>SetCategory_Functors_to_prop_id</title>
<a xlink:href="SetCategory.html#Functors.to_prop_id" xlink:title="to_prop_id">
<ellipse fill="#f070d1" stroke="black" cx="2393" cy="-1043.73" rx="62.9325" ry="18.3848"/>
<ellipse fill="none" stroke="black" cx="2393" cy="-1043.73" rx="66.9325" ry="22.3848"/>
<ellipse fill="none" stroke="black" cx="2393" cy="-1043.73" rx="70.9325" ry="26.3848"/>
<text text-anchor="middle" x="2393" y="-1040.13" font-family="Times Roman,serif" font-size="14.00">to_prop_id</text>
</a>
</g>
<!-- SetCategory_Functors_to_prop_id&#45;&gt;SetCategory_Functors_to_prop -->
<g id="edge12" class="edge"><title>SetCategory_Functors_to_prop_id&#45;&gt;SetCategory_Functors_to_prop</title>
<path fill="none" stroke="black" d="M2397.94,-1017.05C2412.57,-938.084 2455.57,-706.012 2470.68,-624.463"/>
<polygon fill="black" stroke="black" points="2474.16,-624.887 2472.54,-614.416 2467.27,-623.611 2474.16,-624.887"/>
</g>
<!-- SetCategory_isequiv_isiso_isequiv_prop -->
<g id="node11" class="node"><title>SetCategory_isequiv_isiso_isequiv_prop</title>
<a xlink:href="SetCategory.html#isequiv_isiso_isequiv_prop" xlink:title="isequiv_isiso_isequiv_prop">
<ellipse fill="#f070d1" stroke="black" cx="1716" cy="-1043.73" rx="137.886" ry="18.3848"/>
<ellipse fill="none" stroke="black" cx="1716" cy="-1043.73" rx="141.886" ry="22.3848"/>
<ellipse fill="none" stroke="black" cx="1716" cy="-1043.73" rx="145.886" ry="26.3848"/>
<text text-anchor="middle" x="1716" y="-1040.13" font-family="Times Roman,serif" font-size="14.00">isequiv_isiso_isequiv_prop</text>
</a>
</g>
<!-- SetCategory_isequiv_isiso_isequiv_prop_subproof0 -->
<g id="node12" class="node"><title>SetCategory_isequiv_isiso_isequiv_prop_subproof0</title>
<a xlink:href="SetCategory.html#isequiv_isiso_isequiv_prop_subproof0" xlink:title="isequiv_isiso_isequiv_prop_subproof0">
<ellipse fill="#f070d1" stroke="black" cx="1179" cy="-595.728" rx="191.126" ry="18.3848"/>
<text text-anchor="middle" x="1179" y="-592.128" font-family="Times Roman,serif" font-size="14.00">isequiv_isiso_isequiv_prop_subproof0</text>
</a>
</g>
<!-- SetCategory_isequiv_isiso_isequiv_prop&#45;&gt;SetCategory_isequiv_isiso_isequiv_prop_subproof0 -->
<g id="edge14" class="edge"><title>SetCategory_isequiv_isiso_isequiv_prop&#45;&gt;SetCategory_isequiv_isiso_isequiv_prop_subproof0</title>
<path fill="none" stroke="black" d="M1684.81,-1017.71C1589.43,-938.136 1302.5,-698.764 1208.89,-620.666"/>
<polygon fill="black" stroke="black" points="1211.13,-617.975 1201.21,-614.257 1206.65,-623.35 1211.13,-617.975"/>
</g>
<!-- SetCategory_isequiv_isiso_isequiv_prop_subproof -->
<g id="node13" class="node"><title>SetCategory_isequiv_isiso_isequiv_prop_subproof</title>
<a xlink:href="SetCategory.html#isequiv_isiso_isequiv_prop_subproof" xlink:title="isequiv_isiso_isequiv_prop_subproof">
<ellipse fill="#f070d1" stroke="black" cx="1573" cy="-595.728" rx="184.763" ry="18.3848"/>
<text text-anchor="middle" x="1573" y="-592.128" font-family="Times Roman,serif" font-size="14.00">isequiv_isiso_isequiv_prop_subproof</text>
</a>
</g>
<!-- SetCategory_isequiv_isiso_isequiv_prop&#45;&gt;SetCategory_isequiv_isiso_isequiv_prop_subproof -->
<g id="edge16" class="edge"><title>SetCategory_isequiv_isiso_isequiv_prop&#45;&gt;SetCategory_isequiv_isiso_isequiv_prop_subproof</title>
<path fill="none" stroke="black" d="M1707.48,-1017.05C1682.23,-937.923 1607.9,-705.064 1582.01,-623.965"/>
<polygon fill="black" stroke="black" points="1585.34,-622.879 1578.97,-614.416 1578.67,-625.007 1585.34,-622.879"/>
</g>
<!-- SetCategory_iso_equiv_prop -->
<g id="node14" class="node"><title>SetCategory_iso_equiv_prop</title>
<a xlink:href="SetCategory.html#iso_equiv_prop" xlink:title="iso_equiv_prop">
<ellipse fill="#f070d1" stroke="black" cx="1860" cy="-595.728" rx="84.1457" ry="18.3848"/>
<text text-anchor="middle" x="1860" y="-592.128" font-family="Times Roman,serif" font-size="14.00">iso_equiv_prop</text>
</a>
</g>
<!-- SetCategory_isequiv_isiso_isequiv_prop&#45;&gt;SetCategory_iso_equiv_prop -->
<g id="edge18" class="edge"><title>SetCategory_isequiv_isiso_isequiv_prop&#45;&gt;SetCategory_iso_equiv_prop</title>
<path fill="none" stroke="black" d="M1724.58,-1017.05C1750.01,-937.923 1824.86,-705.064 1850.92,-623.965"/>
<polygon fill="black" stroke="black" points="1854.26,-625.008 1853.99,-614.416 1847.6,-622.866 1854.26,-625.008"/>
</g>
<!-- SetCategory_isequiv_isiso_prop -->
<g id="node15" class="node"><title>SetCategory_isequiv_isiso_prop</title>
<a xlink:href="SetCategory.html#isequiv_isiso_prop" xlink:title="isequiv_isiso_prop">
<ellipse fill="#f070d1" stroke="black" cx="2061" cy="-595.728" rx="98.9949" ry="18.3848"/>
<text text-anchor="middle" x="2061" y="-592.128" font-family="Times Roman,serif" font-size="14.00">isequiv_isiso_prop</text>
</a>
</g>
<!-- SetCategory_isequiv_isiso_isequiv_prop&#45;&gt;SetCategory_isequiv_isiso_prop -->
<g id="edge20" class="edge"><title>SetCategory_isequiv_isiso_isequiv_prop&#45;&gt;SetCategory_isequiv_isiso_prop</title>
<path fill="none" stroke="black" d="M1736.29,-1017.38C1797.33,-938.112 1978.82,-702.438 2040.34,-622.554"/>
<polygon fill="black" stroke="black" points="2043.25,-624.516 2046.58,-614.457 2037.7,-620.245 2043.25,-624.516"/>
</g>
<!-- SetCategory_isiso_isequiv_prop -->
<g id="node16" class="node"><title>SetCategory_isiso_isequiv_prop</title>
<a xlink:href="SetCategory.html#isiso_isequiv_prop" xlink:title="isiso_isequiv_prop">
<ellipse fill="#f070d1" stroke="black" cx="1860" cy="-191.728" rx="98.9949" ry="18.3848"/>
<text text-anchor="middle" x="1860" y="-188.128" font-family="Times Roman,serif" font-size="14.00">isiso_isequiv_prop</text>
</a>
</g>
<!-- SetCategory_iso_equiv_prop&#45;&gt;SetCategory_isiso_isequiv_prop -->
<g id="edge22" class="edge"><title>SetCategory_iso_equiv_prop&#45;&gt;SetCategory_isiso_isequiv_prop</title>
<path fill="none" stroke="black" d="M1860,-577.052C1860,-512.58 1860,-299.026 1860,-220.784"/>
<polygon fill="black" stroke="black" points="1863.5,-220.671 1860,-210.671 1856.5,-220.671 1863.5,-220.671"/>
</g>
<!-- SetCategory_isequiv_isiso_isequiv -->
<g id="node17" class="node"><title>SetCategory_isequiv_isiso_isequiv</title>
<a xlink:href="SetCategory.html#isequiv_isiso_isequiv" xlink:title="isequiv_isiso_isequiv">
<ellipse fill="#f070d1" stroke="black" cx="686" cy="-1043.73" rx="111.016" ry="18.3848"/>
<ellipse fill="none" stroke="black" cx="686" cy="-1043.73" rx="115.016" ry="22.3848"/>
<ellipse fill="none" stroke="black" cx="686" cy="-1043.73" rx="119.016" ry="26.3848"/>
<text text-anchor="middle" x="686" y="-1040.13" font-family="Times Roman,serif" font-size="14.00">isequiv_isiso_isequiv</text>
</a>
</g>
<!-- SetCategory_isequiv_isiso_isequiv_subproof0 -->
<g id="node18" class="node"><title>SetCategory_isequiv_isiso_isequiv_subproof0</title>
<a xlink:href="SetCategory.html#isequiv_isiso_isequiv_subproof0" xlink:title="isequiv_isiso_isequiv_subproof0">
<ellipse fill="#f070d1" stroke="black" cx="181" cy="-595.728" rx="164.756" ry="18.3848"/>
<text text-anchor="middle" x="181" y="-592.128" font-family="Times Roman,serif" font-size="14.00">isequiv_isiso_isequiv_subproof0</text>
</a>
</g>
<!-- SetCategory_isequiv_isiso_isequiv&#45;&gt;SetCategory_isequiv_isiso_isequiv_subproof0 -->
<g id="edge24" class="edge"><title>SetCategory_isequiv_isiso_isequiv&#45;&gt;SetCategory_isequiv_isiso_isequiv_subproof0</title>
<path fill="none" stroke="black" d="M656.666,-1017.71C567.063,-938.216 297.687,-699.245 209.377,-620.902"/>
<polygon fill="black" stroke="black" points="211.69,-618.275 201.886,-614.257 207.044,-623.511 211.69,-618.275"/>
</g>
<!-- SetCategory_isequiv_isiso_isequiv_subproof -->
<g id="node19" class="node"><title>SetCategory_isequiv_isiso_isequiv_subproof</title>
<a xlink:href="SetCategory.html#isequiv_isiso_isequiv_subproof" xlink:title="isequiv_isiso_isequiv_subproof">
<ellipse fill="#f070d1" stroke="black" cx="522" cy="-595.728" rx="157.892" ry="18.3848"/>
<text text-anchor="middle" x="522" y="-592.128" font-family="Times Roman,serif" font-size="14.00">isequiv_isiso_isequiv_subproof</text>
</a>
</g>
<!-- SetCategory_isequiv_isiso_isequiv&#45;&gt;SetCategory_isequiv_isiso_isequiv_subproof -->
<g id="edge26" class="edge"><title>SetCategory_isequiv_isiso_isequiv&#45;&gt;SetCategory_isequiv_isiso_isequiv_subproof</title>
<path fill="none" stroke="black" d="M676.232,-1017.05C647.268,-937.923 562.025,-705.064 532.337,-623.965"/>
<polygon fill="black" stroke="black" points="535.566,-622.604 528.841,-614.416 528.992,-625.01 535.566,-622.604"/>
</g>
<!-- SetCategory_iso_equiv -->
<g id="node20" class="node"><title>SetCategory_iso_equiv</title>
<a xlink:href="SetCategory.html#iso_equiv" xlink:title="iso_equiv">
<ellipse fill="#f070d1" stroke="black" cx="754" cy="-595.728" rx="56.0679" ry="18.3848"/>
<text text-anchor="middle" x="754" y="-592.128" font-family="Times Roman,serif" font-size="14.00">iso_equiv</text>
</a>
</g>
<!-- SetCategory_isequiv_isiso_isequiv&#45;&gt;SetCategory_iso_equiv -->
<g id="edge28" class="edge"><title>SetCategory_isequiv_isiso_isequiv&#45;&gt;SetCategory_iso_equiv</title>
<path fill="none" stroke="black" d="M690.05,-1017.05C702.035,-938.084 737.26,-706.012 749.638,-624.463"/>
<polygon fill="black" stroke="black" points="753.123,-624.828 751.163,-614.416 746.202,-623.778 753.123,-624.828"/>
</g>
<!-- SetCategory_isequiv_isiso -->
<g id="node21" class="node"><title>SetCategory_isequiv_isiso</title>
<a xlink:href="SetCategory.html#isequiv_isiso" xlink:title="isequiv_isiso">
<ellipse fill="#f070d1" stroke="black" cx="899" cy="-595.728" rx="70.9184" ry="18.3848"/>
<text text-anchor="middle" x="899" y="-592.128" font-family="Times Roman,serif" font-size="14.00">isequiv_isiso</text>
</a>
</g>
<!-- SetCategory_isequiv_isiso_isequiv&#45;&gt;SetCategory_isequiv_isiso -->
<g id="edge30" class="edge"><title>SetCategory_isequiv_isiso_isequiv&#45;&gt;SetCategory_isequiv_isiso</title>
<path fill="none" stroke="black" d="M698.686,-1017.05C736.381,-937.761 847.468,-704.115 885.809,-623.472"/>
<polygon fill="black" stroke="black" points="888.982,-624.95 890.115,-614.416 882.66,-621.945 888.982,-624.95"/>
</g>
<!-- SetCategory_isiso_isequiv -->
<g id="node22" class="node"><title>SetCategory_isiso_isequiv</title>
<a xlink:href="SetCategory.html#isiso_isequiv" xlink:title="isiso_isequiv">
<ellipse fill="#f070d1" stroke="black" cx="754" cy="-191.728" rx="70.9184" ry="18.3848"/>
<text text-anchor="middle" x="754" y="-188.128" font-family="Times Roman,serif" font-size="14.00">isiso_isequiv</text>
</a>
</g>
<!-- SetCategory_iso_equiv&#45;&gt;SetCategory_isiso_isequiv -->
<g id="edge32" class="edge"><title>SetCategory_iso_equiv&#45;&gt;SetCategory_isiso_isequiv</title>
<path fill="none" stroke="black" d="M754,-577.052C754,-512.58 754,-299.026 754,-220.784"/>
<polygon fill="black" stroke="black" points="757.5,-220.671 754,-210.671 750.5,-220.671 757.5,-220.671"/>
</g>
<!-- SetCategory_isstrict_prop_cat -->
<g id="node23" class="node"><title>SetCategory_isstrict_prop_cat</title>
<a xlink:href="SetCategory.html#isstrict_prop_cat" xlink:title="isstrict_prop_cat">
<ellipse fill="#f070d1" stroke="black" cx="441" cy="-1043.73" rx="91.2168" ry="18.3848"/>
<ellipse fill="none" stroke="black" cx="441" cy="-1043.73" rx="95.2168" ry="22.3848"/>
<ellipse fill="none" stroke="black" cx="441" cy="-1043.73" rx="99.2168" ry="26.3848"/>
<text text-anchor="middle" x="441" y="-1040.13" font-family="Times Roman,serif" font-size="14.00">isstrict_prop_cat</text>
</a>
</g>
<!-- SetCategory_set_cat -->
<g id="node24" class="node"><title>SetCategory_set_cat</title>
<a xlink:href="SetCategory.html#set_cat" xlink:title="set_cat">
<ellipse fill="#f070d1" stroke="black" cx="253" cy="-1043.73" rx="46.2409" ry="18.3848"/>
<ellipse fill="none" stroke="black" cx="253" cy="-1043.73" rx="50.2042" ry="22.3848"/>
<ellipse fill="none" stroke="black" cx="253" cy="-1043.73" rx="54.1675" ry="26.3848"/>
<text text-anchor="middle" x="253" y="-1040.13" font-family="Times Roman,serif" font-size="14.00">set_cat</text>
</a>
</g>
<!-- SetCategory_prop_cat -->
<g id="node25" class="node"><title>SetCategory_prop_cat</title>
<a xlink:href="SetCategory.html#prop_cat" xlink:title="prop_cat">
<ellipse fill="#f070d1" stroke="black" cx="86" cy="-1043.73" rx="53.3032" ry="18.3848"/>
<ellipse fill="none" stroke="black" cx="86" cy="-1043.73" rx="57.2707" ry="22.3848"/>
<ellipse fill="none" stroke="black" cx="86" cy="-1043.73" rx="61.2382" ry="26.3848"/>
<text text-anchor="middle" x="86" y="-1040.13" font-family="Times Roman,serif" font-size="14.00">prop_cat</text>
</a>
</g>
</g>
</svg>
