<?xml version="1.0" encoding="UTF-8" standalone="no"?>
<!DOCTYPE svg PUBLIC "-//W3C//DTD SVG 1.1//EN"
 "http://www.w3.org/Graphics/SVG/1.1/DTD/svg11.dtd">
<!-- Generated by graphviz version 2.39.20141222.0545 (20141222.0545)
 -->
<!-- Title: HoTT_categories_Grothendieck Pages: 1 -->
<svg width="1655pt" height="832pt"
 viewBox="0.00 0.00 1655.00 831.50" xmlns="http://www.w3.org/2000/svg" xmlns:xlink="http://www.w3.org/1999/xlink">
<g id="graph0" class="graph" transform="scale(1 1) rotate(0) translate(4 827.5)">
<title>HoTT_categories_Grothendieck</title>
<polygon fill="white" stroke="transparent" points="-4,4 -4,-827.5 1651,-827.5 1651,4 -4,4"/>
<g id="clust1" class="cluster"><title>cluster_PseudofunctorToCat</title>
<polygon fill="#ffffc3" stroke="black" points="662,-15.6114 662,-614.698 1639,-614.698 1639,-15.6114 662,-15.6114"/>
<text text-anchor="middle" x="726" y="-599.498" font-family="Times,serif" font-size="14.00">PseudofunctorToCat</text>
</g>
<g id="clust2" class="cluster"><title>cluster_ToCat</title>
<polygon fill="#ffffc3" stroke="black" points="1179,-630.309 1179,-807.889 1381,-807.889 1381,-630.309 1179,-630.309"/>
<text text-anchor="middle" x="1204" y="-792.689" font-family="Times,serif" font-size="14.00">ToCat</text>
</g>
<g id="clust3" class="cluster"><title>cluster_ToSet</title>
<polygon fill="#ffffc3" stroke="black" points="8,-15.6114 8,-807.889 654,-807.889 654,-15.6114 8,-15.6114"/>
<text text-anchor="middle" x="32.5" y="-792.689" font-family="Times,serif" font-size="14.00">ToSet</text>
</g>
<!-- ToSet_pr1 -->
<g id="node1" class="node"><title>ToSet_pr1</title>
<g id="a_node1"><a xlink:href="ToSet.html#pr1" xlink:title="pr1">
<ellipse fill="#f070d1" stroke="black" cx="544" cy="-696.611" rx="27" ry="18"/>
<ellipse fill="none" stroke="black" cx="544" cy="-696.611" rx="31" ry="22"/>
<ellipse fill="none" stroke="black" cx="544" cy="-696.611" rx="35" ry="26"/>
<text text-anchor="middle" x="544" y="-692.911" font-family="Times,serif" font-size="14.00">pr1</text>
</a>
</g>
</g>
<!-- ToSet_category -->
<g id="node2" class="node"><title>ToSet_category</title>
<g id="a_node2"><a xlink:href="ToSet.html#category" xlink:title="category">
<ellipse fill="#f070d1" stroke="black" cx="486" cy="-503.611" rx="40.8928" ry="18"/>
<text text-anchor="middle" x="486" y="-499.911" font-family="Times,serif" font-size="14.00">category</text>
</a>
</g>
</g>
<!-- ToSet_pr1&#45;&gt;ToSet_category -->
<g id="edge1" class="edge"><title>ToSet_pr1&#45;&gt;ToSet_category</title>
<path fill="none" stroke="black" d="M536.298,-670.982C525.398,-634.71 505.55,-568.665 494.322,-531.302"/>
<polygon fill="black" stroke="black" points="497.628,-530.142 491.398,-521.573 490.924,-532.157 497.628,-530.142"/>
</g>
<!-- ToSet_category_subproof1 -->
<g id="node3" class="node"><title>ToSet_category_subproof1</title>
<g id="a_node3"><a xlink:href="ToSet.html#category_subproof1" xlink:title="category_subproof1">
<ellipse fill="#facdef" stroke="black" cx="213" cy="-347.611" rx="81.4863" ry="18"/>
<text text-anchor="middle" x="213" y="-343.911" font-family="Times,serif" font-size="14.00">category_subproof1</text>
</a>
</g>
</g>
<!-- ToSet_category&#45;&gt;ToSet_category_subproof1 -->
<g id="edge2" class="edge"><title>ToSet_category&#45;&gt;ToSet_category_subproof1</title>
<path fill="none" stroke="black" d="M460.806,-489.215C412.917,-461.849 308.469,-402.165 251.664,-369.705"/>
<polygon fill="black" stroke="black" points="253.057,-366.47 242.638,-364.547 249.584,-372.548 253.057,-366.47"/>
</g>
<!-- ToSet_category_subproof0 -->
<g id="node4" class="node"><title>ToSet_category_subproof0</title>
<g id="a_node4"><a xlink:href="ToSet.html#category_subproof0" xlink:title="category_subproof0">
<ellipse fill="#facdef" stroke="black" cx="393" cy="-347.611" rx="81.4863" ry="18"/>
<text text-anchor="middle" x="393" y="-343.911" font-family="Times,serif" font-size="14.00">category_subproof0</text>
</a>
</g>
</g>
<!-- ToSet_category&#45;&gt;ToSet_category_subproof0 -->
<g id="edge3" class="edge"><title>ToSet_category&#45;&gt;ToSet_category_subproof0</title>
<path fill="none" stroke="black" d="M475.512,-486.019C459.342,-458.895 428.202,-406.659 409.144,-374.692"/>
<polygon fill="black" stroke="black" points="412.007,-372.658 403.88,-365.861 405.994,-376.243 412.007,-372.658"/>
</g>
<!-- ToSet_category_subproof -->
<g id="node5" class="node"><title>ToSet_category_subproof</title>
<g id="a_node5"><a xlink:href="ToSet.html#category_subproof" xlink:title="category_subproof">
<ellipse fill="#facdef" stroke="black" cx="569" cy="-347.611" rx="76.8869" ry="18"/>
<text text-anchor="middle" x="569" y="-343.911" font-family="Times,serif" font-size="14.00">category_subproof</text>
</a>
</g>
</g>
<!-- ToSet_category&#45;&gt;ToSet_category_subproof -->
<g id="edge4" class="edge"><title>ToSet_category&#45;&gt;ToSet_category_subproof</title>
<path fill="none" stroke="black" d="M495.36,-486.019C509.791,-458.895 537.583,-406.659 554.592,-374.692"/>
<polygon fill="black" stroke="black" points="557.683,-376.333 559.29,-365.861 551.503,-373.045 557.683,-376.333"/>
</g>
<!-- ToSet_identity -->
<g id="node6" class="node"><title>ToSet_identity</title>
<g id="a_node6"><a xlink:href="ToSet.html#identity" xlink:title="identity">
<ellipse fill="#f070d1" stroke="black" cx="244" cy="-206.611" rx="37.8943" ry="18"/>
<text text-anchor="middle" x="244" y="-202.911" font-family="Times,serif" font-size="14.00">identity</text>
</a>
</g>
</g>
<!-- ToSet_category_subproof1&#45;&gt;ToSet_identity -->
<g id="edge5" class="edge"><title>ToSet_category_subproof1&#45;&gt;ToSet_identity</title>
<path fill="none" stroke="black" d="M216.989,-329.467C222.267,-305.46 231.625,-262.897 237.821,-234.715"/>
<polygon fill="black" stroke="black" points="241.297,-235.205 240.026,-224.686 234.46,-233.702 241.297,-235.205"/>
</g>
<!-- ToSet_compose -->
<g id="node8" class="node"><title>ToSet_compose</title>
<g id="a_node8"><a xlink:href="ToSet.html#compose" xlink:title="compose">
<ellipse fill="#f070d1" stroke="black" cx="393" cy="-206.611" rx="42.4939" ry="18"/>
<text text-anchor="middle" x="393" y="-202.911" font-family="Times,serif" font-size="14.00">compose</text>
</a>
</g>
</g>
<!-- ToSet_category_subproof1&#45;&gt;ToSet_compose -->
<g id="edge6" class="edge"><title>ToSet_category_subproof1&#45;&gt;ToSet_compose</title>
<path fill="none" stroke="black" d="M235.433,-330.039C268.151,-304.41 328.944,-256.789 364.696,-228.783"/>
<polygon fill="black" stroke="black" points="367.07,-231.369 372.784,-222.447 362.753,-225.859 367.07,-231.369"/>
</g>
<!-- ToSet_category_subproof0&#45;&gt;ToSet_identity -->
<g id="edge7" class="edge"><title>ToSet_category_subproof0&#45;&gt;ToSet_identity</title>
<path fill="none" stroke="black" d="M374.43,-330.039C347.79,-304.829 298.666,-258.342 268.9,-230.174"/>
<polygon fill="black" stroke="black" points="271.083,-227.421 261.414,-223.09 266.271,-232.506 271.083,-227.421"/>
</g>
<!-- ToSet_category_subproof0&#45;&gt;ToSet_compose -->
<g id="edge8" class="edge"><title>ToSet_category_subproof0&#45;&gt;ToSet_compose</title>
<path fill="none" stroke="black" d="M393,-329.467C393,-305.46 393,-262.897 393,-234.715"/>
<polygon fill="black" stroke="black" points="396.5,-234.686 393,-224.686 389.5,-234.686 396.5,-234.686"/>
</g>
<!-- ToSet_category_subproof&#45;&gt;ToSet_compose -->
<g id="edge9" class="edge"><title>ToSet_category_subproof&#45;&gt;ToSet_compose</title>
<path fill="none" stroke="black" d="M547.419,-330.322C515.552,-304.792 455.904,-257.006 420.8,-228.883"/>
<polygon fill="black" stroke="black" points="422.851,-226.041 412.858,-222.52 418.474,-231.504 422.851,-226.041"/>
</g>
<!-- ToSet_identity_H -->
<g id="node7" class="node"><title>ToSet_identity_H</title>
<g id="a_node7"><a xlink:href="ToSet.html#identity_H" xlink:title="identity_H">
<ellipse fill="#f070d1" stroke="black" cx="244" cy="-66.6114" rx="48.1917" ry="18"/>
<text text-anchor="middle" x="244" y="-62.9114" font-family="Times,serif" font-size="14.00">identity_H</text>
</a>
</g>
</g>
<!-- ToSet_identity&#45;&gt;ToSet_identity_H -->
<g id="edge10" class="edge"><title>ToSet_identity&#45;&gt;ToSet_identity_H</title>
<path fill="none" stroke="black" d="M244,-188.595C244,-164.994 244,-123.331 244,-95.3487"/>
<polygon fill="black" stroke="black" points="247.5,-95.0027 244,-85.0027 240.5,-95.0028 247.5,-95.0027"/>
</g>
<!-- ToSet_compose_H -->
<g id="node9" class="node"><title>ToSet_compose_H</title>
<g id="a_node9"><a xlink:href="ToSet.html#compose_H" xlink:title="compose_H">
<ellipse fill="#f070d1" stroke="black" cx="393" cy="-66.6114" rx="53.0913" ry="18"/>
<text text-anchor="middle" x="393" y="-62.9114" font-family="Times,serif" font-size="14.00">compose_H</text>
</a>
</g>
</g>
<!-- ToSet_compose&#45;&gt;ToSet_compose_H -->
<g id="edge11" class="edge"><title>ToSet_compose&#45;&gt;ToSet_compose_H</title>
<path fill="none" stroke="black" d="M393,-188.595C393,-164.994 393,-123.331 393,-95.3487"/>
<polygon fill="black" stroke="black" points="396.5,-95.0027 393,-85.0027 389.5,-95.0028 396.5,-95.0027"/>
</g>
<!-- ToSet_Pair_rec -->
<g id="node10" class="node"><title>ToSet_Pair_rec</title>
<g id="a_node10"><a xlink:href="ToSet.html#Pair_rec" xlink:title="Pair_rec">
<ellipse fill="#f070d1" stroke="black" cx="443" cy="-696.611" rx="40.1273" ry="18"/>
<ellipse fill="none" stroke="black" cx="443" cy="-696.611" rx="44.1105" ry="22"/>
<ellipse fill="none" stroke="black" cx="443" cy="-696.611" rx="48.0937" ry="26"/>
<text text-anchor="middle" x="443" y="-692.911" font-family="Times,serif" font-size="14.00">Pair_rec</text>
</a>
</g>
</g>
<!-- ToSet_Pair_rect -->
<g id="node12" class="node"><title>ToSet_Pair_rect</title>
<g id="a_node12"><a xlink:href="ToSet.html#Pair_rect" xlink:title="Pair_rect">
<ellipse fill="#f070d1" stroke="black" cx="328" cy="-503.611" rx="42.4939" ry="18"/>
<text text-anchor="middle" x="328" y="-499.911" font-family="Times,serif" font-size="14.00">Pair_rect</text>
</a>
</g>
</g>
<!-- ToSet_Pair_rec&#45;&gt;ToSet_Pair_rect -->
<g id="edge12" class="edge"><title>ToSet_Pair_rec&#45;&gt;ToSet_Pair_rect</title>
<path fill="none" stroke="black" d="M428.201,-671.775C406.447,-635.265 366.01,-567.403 343.734,-530.017"/>
<polygon fill="black" stroke="black" points="346.61,-528.006 338.484,-521.207 340.596,-531.589 346.61,-528.006"/>
</g>
<!-- ToSet_Pair_ind -->
<g id="node11" class="node"><title>ToSet_Pair_ind</title>
<g id="a_node11"><a xlink:href="ToSet.html#Pair_ind" xlink:title="Pair_ind">
<ellipse fill="#7fffd4" stroke="black" cx="328" cy="-696.611" rx="40.1273" ry="18"/>
<ellipse fill="none" stroke="black" cx="328" cy="-696.611" rx="44.1105" ry="22"/>
<ellipse fill="none" stroke="black" cx="328" cy="-696.611" rx="48.0937" ry="26"/>
<text text-anchor="middle" x="328" y="-692.911" font-family="Times,serif" font-size="14.00">Pair_ind</text>
</a>
</g>
</g>
<!-- ToSet_Pair_ind&#45;&gt;ToSet_Pair_rect -->
<g id="edge13" class="edge"><title>ToSet_Pair_ind&#45;&gt;ToSet_Pair_rect</title>
<path fill="none" stroke="black" d="M328,-670.583C328,-634.434 328,-569.279 328,-531.943"/>
<polygon fill="black" stroke="black" points="331.5,-531.755 328,-521.755 324.5,-531.755 331.5,-531.755"/>
</g>
<!-- ToSet_Build_Pair -->
<g id="node15" class="node"><title>ToSet_Build_Pair</title>
<g id="a_node15"><a xlink:href="ToSet.html#Build_Pair" xlink:title="Build_Pair">
<ellipse fill="#7faaff" stroke="black" cx="65" cy="-347.611" rx="48.9926" ry="18"/>
<text text-anchor="middle" x="65" y="-343.911" font-family="Times,serif" font-size="14.00">Build_Pair</text>
</a>
</g>
</g>
<!-- ToSet_Pair_rect&#45;&gt;ToSet_Build_Pair -->
<g id="edge14" class="edge"><title>ToSet_Pair_rect&#45;&gt;ToSet_Build_Pair</title>
<path fill="none" stroke="black" d="M303.258,-488.935C256.236,-461.044 153.856,-400.317 99.892,-368.308"/>
<polygon fill="black" stroke="black" points="101.419,-365.144 91.0325,-363.053 97.8477,-371.165 101.419,-365.144"/>
</g>
<!-- ToSet_x -->
<g id="node13" class="node"><title>ToSet_x</title>
<g id="a_node13"><a xlink:href="ToSet.html#x" xlink:title="x">
<ellipse fill="#f070d1" stroke="black" cx="227" cy="-696.611" rx="27" ry="18"/>
<ellipse fill="none" stroke="black" cx="227" cy="-696.611" rx="31" ry="22"/>
<ellipse fill="none" stroke="black" cx="227" cy="-696.611" rx="35" ry="26"/>
<text text-anchor="middle" x="227" y="-692.911" font-family="Times,serif" font-size="14.00">x</text>
</a>
</g>
</g>
<!-- ToSet_c -->
<g id="node14" class="node"><title>ToSet_c</title>
<g id="a_node14"><a xlink:href="ToSet.html#c" xlink:title="c">
<ellipse fill="#f070d1" stroke="black" cx="139" cy="-696.611" rx="27" ry="18"/>
<ellipse fill="none" stroke="black" cx="139" cy="-696.611" rx="31" ry="22"/>
<ellipse fill="none" stroke="black" cx="139" cy="-696.611" rx="35" ry="26"/>
<text text-anchor="middle" x="139" y="-692.911" font-family="Times,serif" font-size="14.00">c</text>
</a>
</g>
</g>
<!-- ToSet_Pair -->
<g id="node16" class="node"><title>ToSet_Pair</title>
<g id="a_node16"><a xlink:href="ToSet.html#Pair" xlink:title="Pair">
<ellipse fill="#e2cdfa" stroke="black" cx="51" cy="-696.611" rx="27" ry="18"/>
<ellipse fill="none" stroke="black" cx="51" cy="-696.611" rx="31" ry="22"/>
<ellipse fill="none" stroke="black" cx="51" cy="-696.611" rx="35" ry="26"/>
<text text-anchor="middle" x="51" y="-692.911" font-family="Times,serif" font-size="14.00">Pair</text>
</a>
</g>
</g>
<!-- ToCat_pr1 -->
<g id="node17" class="node"><title>ToCat_pr1</title>
<g id="a_node17"><a xlink:href="ToCat.html#pr1" xlink:title="pr1">
<ellipse fill="#f070d1" stroke="black" cx="1222" cy="-696.611" rx="27" ry="18"/>
<ellipse fill="none" stroke="black" cx="1222" cy="-696.611" rx="31" ry="22"/>
<ellipse fill="none" stroke="black" cx="1222" cy="-696.611" rx="35" ry="26"/>
<text text-anchor="middle" x="1222" y="-692.911" font-family="Times,serif" font-size="14.00">pr1</text>
</a>
</g>
</g>
<!-- PseudofunctorToCat_pr1 -->
<g id="node19" class="node"><title>PseudofunctorToCat_pr1</title>
<g id="a_node19"><a xlink:href="PseudofunctorToCat.html#pr1" xlink:title="pr1">
<ellipse fill="#f070d1" stroke="black" cx="1234" cy="-503.611" rx="27" ry="18"/>
<text text-anchor="middle" x="1234" y="-499.911" font-family="Times,serif" font-size="14.00">pr1</text>
</a>
</g>
</g>
<!-- ToCat_pr1&#45;&gt;PseudofunctorToCat_pr1 -->
<g id="edge15" class="edge"><title>ToCat_pr1&#45;&gt;PseudofunctorToCat_pr1</title>
<path fill="none" stroke="black" d="M1223.62,-670.583C1225.87,-634.434 1229.92,-569.279 1232.24,-531.943"/>
<polygon fill="black" stroke="black" points="1235.74,-531.953 1232.87,-521.755 1228.76,-531.518 1235.74,-531.953"/>
</g>
<!-- ToCat_category -->
<g id="node18" class="node"><title>ToCat_category</title>
<g id="a_node18"><a xlink:href="ToCat.html#category" xlink:title="category">
<ellipse fill="#f070d1" stroke="black" cx="1324" cy="-696.611" rx="40.9015" ry="18"/>
<ellipse fill="none" stroke="black" cx="1324" cy="-696.611" rx="44.8972" ry="22"/>
<ellipse fill="none" stroke="black" cx="1324" cy="-696.611" rx="48.8928" ry="26"/>
<text text-anchor="middle" x="1324" y="-692.911" font-family="Times,serif" font-size="14.00">category</text>
</a>
</g>
</g>
<!-- PseudofunctorToCat_category -->
<g id="node20" class="node"><title>PseudofunctorToCat_category</title>
<g id="a_node20"><a xlink:href="PseudofunctorToCat.html#category" xlink:title="category">
<ellipse fill="#f070d1" stroke="black" cx="1252" cy="-347.611" rx="40.8928" ry="18"/>
<text text-anchor="middle" x="1252" y="-343.911" font-family="Times,serif" font-size="14.00">category</text>
</a>
</g>
</g>
<!-- ToCat_category&#45;&gt;PseudofunctorToCat_category -->
<g id="edge16" class="edge"><title>ToCat_category&#45;&gt;PseudofunctorToCat_category</title>
<path fill="none" stroke="black" d="M1318.65,-670.665C1305.46,-606.768 1271.52,-442.209 1257.84,-375.913"/>
<polygon fill="black" stroke="black" points="1261.2,-374.875 1255.75,-365.789 1254.34,-376.29 1261.2,-374.875"/>
</g>
<!-- PseudofunctorToCat_pr1&#45;&gt;PseudofunctorToCat_category -->
<g id="edge17" class="edge"><title>PseudofunctorToCat_pr1&#45;&gt;PseudofunctorToCat_category</title>
<path fill="none" stroke="black" d="M1236.1,-485.411C1239.22,-458.404 1245.09,-407.495 1248.76,-375.688"/>
<polygon fill="black" stroke="black" points="1252.24,-376.031 1249.91,-365.696 1245.29,-375.229 1252.24,-376.031"/>
</g>
<!-- PseudofunctorToCat_category_subproof1 -->
<g id="node21" class="node"><title>PseudofunctorToCat_category_subproof1</title>
<g id="a_node21"><a xlink:href="PseudofunctorToCat.html#category_subproof1" xlink:title="category_subproof1">
<ellipse fill="#facdef" stroke="black" cx="1491" cy="-206.611" rx="81.4863" ry="18"/>
<text text-anchor="middle" x="1491" y="-202.911" font-family="Times,serif" font-size="14.00">category_subproof1</text>
</a>
</g>
</g>
<!-- PseudofunctorToCat_category&#45;&gt;PseudofunctorToCat_category_subproof1 -->
<g id="edge18" class="edge"><title>PseudofunctorToCat_category&#45;&gt;PseudofunctorToCat_category_subproof1</title>
<path fill="none" stroke="black" d="M1276.68,-333.053C1318.67,-308.28 1404.26,-257.785 1453.63,-228.66"/>
<polygon fill="black" stroke="black" points="1455.57,-231.577 1462.4,-223.481 1452.01,-225.548 1455.57,-231.577"/>
</g>
<!-- PseudofunctorToCat_category_subproof0 -->
<g id="node22" class="node"><title>PseudofunctorToCat_category_subproof0</title>
<g id="a_node22"><a xlink:href="PseudofunctorToCat.html#category_subproof0" xlink:title="category_subproof0">
<ellipse fill="#facdef" stroke="black" cx="944" cy="-206.611" rx="81.4863" ry="18"/>
<text text-anchor="middle" x="944" y="-202.911" font-family="Times,serif" font-size="14.00">category_subproof0</text>
</a>
</g>
</g>
<!-- PseudofunctorToCat_category&#45;&gt;PseudofunctorToCat_category_subproof0 -->
<g id="edge19" class="edge"><title>PseudofunctorToCat_category&#45;&gt;PseudofunctorToCat_category_subproof0</title>
<path fill="none" stroke="black" d="M1223.58,-334.599C1169.92,-310.037 1053.34,-256.668 988.965,-227.196"/>
<polygon fill="black" stroke="black" points="990.408,-224.007 979.859,-223.027 987.494,-230.372 990.408,-224.007"/>
</g>
<!-- PseudofunctorToCat_category_subproof -->
<g id="node23" class="node"><title>PseudofunctorToCat_category_subproof</title>
<g id="a_node23"><a xlink:href="PseudofunctorToCat.html#category_subproof" xlink:title="category_subproof">
<ellipse fill="#facdef" stroke="black" cx="1120" cy="-206.611" rx="76.8869" ry="18"/>
<text text-anchor="middle" x="1120" y="-202.911" font-family="Times,serif" font-size="14.00">category_subproof</text>
</a>
</g>
</g>
<!-- PseudofunctorToCat_category&#45;&gt;PseudofunctorToCat_category_subproof -->
<g id="edge20" class="edge"><title>PseudofunctorToCat_category&#45;&gt;PseudofunctorToCat_category_subproof</title>
<path fill="none" stroke="black" d="M1236.34,-330.883C1213.37,-306.345 1170.36,-260.41 1143.57,-231.785"/>
<polygon fill="black" stroke="black" points="1145.86,-229.11 1136.47,-224.202 1140.75,-233.894 1145.86,-229.11"/>
</g>
<!-- PseudofunctorToCat_identity -->
<g id="node27" class="node"><title>PseudofunctorToCat_identity</title>
<g id="a_node27"><a xlink:href="PseudofunctorToCat.html#identity" xlink:title="identity">
<ellipse fill="#f070d1" stroke="black" cx="1252" cy="-206.611" rx="37.8943" ry="18"/>
<text text-anchor="middle" x="1252" y="-202.911" font-family="Times,serif" font-size="14.00">identity</text>
</a>
</g>
</g>
<!-- PseudofunctorToCat_category&#45;&gt;PseudofunctorToCat_identity -->
<g id="edge21" class="edge"><title>PseudofunctorToCat_category&#45;&gt;PseudofunctorToCat_identity</title>
<path fill="none" stroke="black" d="M1252,-329.467C1252,-305.46 1252,-262.897 1252,-234.715"/>
<polygon fill="black" stroke="black" points="1255.5,-234.686 1252,-224.686 1248.5,-234.686 1255.5,-234.686"/>
</g>
<!-- PseudofunctorToCat_compose -->
<g id="node28" class="node"><title>PseudofunctorToCat_compose</title>
<g id="a_node28"><a xlink:href="PseudofunctorToCat.html#compose" xlink:title="compose">
<ellipse fill="#f070d1" stroke="black" cx="1350" cy="-206.611" rx="42.4939" ry="18"/>
<text text-anchor="middle" x="1350" y="-202.911" font-family="Times,serif" font-size="14.00">compose</text>
</a>
</g>
</g>
<!-- PseudofunctorToCat_category&#45;&gt;PseudofunctorToCat_compose -->
<g id="edge22" class="edge"><title>PseudofunctorToCat_category&#45;&gt;PseudofunctorToCat_compose</title>
<path fill="none" stroke="black" d="M1264.02,-330.322C1281.06,-305.797 1312.38,-260.734 1332.15,-232.294"/>
<polygon fill="black" stroke="black" points="1335.05,-234.251 1337.88,-224.042 1329.3,-230.256 1335.05,-234.251"/>
</g>
<!-- PseudofunctorToCat_pseudofunctor_to_cat_right_identity_helper -->
<g id="node24" class="node"><title>PseudofunctorToCat_pseudofunctor_to_cat_right_identity_helper</title>
<g id="a_node24"><a xlink:href="PseudofunctorToCat.html#pseudofunctor_to_cat_right_identity_helper" xlink:title="pseudofunctor_to_cat_right_identity_helper">
<ellipse fill="#facdef" stroke="black" cx="1466" cy="-66.6114" rx="165.171" ry="18"/>
<text text-anchor="middle" x="1466" y="-62.9114" font-family="Times,serif" font-size="14.00">pseudofunctor_to_cat_right_identity_helper</text>
</a>
</g>
</g>
<!-- PseudofunctorToCat_category_subproof1&#45;&gt;PseudofunctorToCat_pseudofunctor_to_cat_right_identity_helper -->
<g id="edge23" class="edge"><title>PseudofunctorToCat_category_subproof1&#45;&gt;PseudofunctorToCat_pseudofunctor_to_cat_right_identity_helper</title>
<path fill="none" stroke="black" d="M1487.78,-188.595C1483.55,-164.89 1476.06,-122.962 1471.07,-94.9781"/>
<polygon fill="black" stroke="black" points="1474.49,-94.2317 1469.28,-85.0027 1467.6,-95.4623 1474.49,-94.2317"/>
</g>
<!-- PseudofunctorToCat_pseudofunctor_to_cat_left_identity_helper -->
<g id="node25" class="node"><title>PseudofunctorToCat_pseudofunctor_to_cat_left_identity_helper</title>
<g id="a_node25"><a xlink:href="PseudofunctorToCat.html#pseudofunctor_to_cat_left_identity_helper" xlink:title="pseudofunctor_to_cat_left_identity_helper">
<ellipse fill="#facdef" stroke="black" cx="831" cy="-66.6114" rx="160.572" ry="18"/>
<text text-anchor="middle" x="831" y="-62.9114" font-family="Times,serif" font-size="14.00">pseudofunctor_to_cat_left_identity_helper</text>
</a>
</g>
</g>
<!-- PseudofunctorToCat_category_subproof0&#45;&gt;PseudofunctorToCat_pseudofunctor_to_cat_left_identity_helper -->
<g id="edge24" class="edge"><title>PseudofunctorToCat_category_subproof0&#45;&gt;PseudofunctorToCat_pseudofunctor_to_cat_left_identity_helper</title>
<path fill="none" stroke="black" d="M929.688,-188.88C910.013,-164.504 874.48,-120.481 851.849,-92.4424"/>
<polygon fill="black" stroke="black" points="854.557,-90.2239 845.552,-84.6407 849.11,-94.6205 854.557,-90.2239"/>
</g>
<!-- PseudofunctorToCat_pseudofunctor_to_cat_assoc_helper -->
<g id="node26" class="node"><title>PseudofunctorToCat_pseudofunctor_to_cat_assoc_helper</title>
<g id="a_node26"><a xlink:href="PseudofunctorToCat.html#pseudofunctor_to_cat_assoc_helper" xlink:title="pseudofunctor_to_cat_assoc_helper">
<ellipse fill="#facdef" stroke="black" cx="1146" cy="-66.6114" rx="136.476" ry="18"/>
<text text-anchor="middle" x="1146" y="-62.9114" font-family="Times,serif" font-size="14.00">pseudofunctor_to_cat_assoc_helper</text>
</a>
</g>
</g>
<!-- PseudofunctorToCat_category_subproof&#45;&gt;PseudofunctorToCat_pseudofunctor_to_cat_assoc_helper -->
<g id="edge25" class="edge"><title>PseudofunctorToCat_category_subproof&#45;&gt;PseudofunctorToCat_pseudofunctor_to_cat_assoc_helper</title>
<path fill="none" stroke="black" d="M1123.35,-188.595C1127.75,-164.89 1135.53,-122.962 1140.73,-94.9781"/>
<polygon fill="black" stroke="black" points="1144.2,-95.4737 1142.58,-85.0027 1137.32,-94.1955 1144.2,-95.4737"/>
</g>
<!-- PseudofunctorToCat_Pair_rec -->
<g id="node29" class="node"><title>PseudofunctorToCat_Pair_rec</title>
<g id="a_node29"><a xlink:href="PseudofunctorToCat.html#Pair_rec" xlink:title="Pair_rec">
<ellipse fill="#f070d1" stroke="black" cx="1097" cy="-503.611" rx="40.1273" ry="18"/>
<ellipse fill="none" stroke="black" cx="1097" cy="-503.611" rx="44.1105" ry="22"/>
<ellipse fill="none" stroke="black" cx="1097" cy="-503.611" rx="48.0937" ry="26"/>
<text text-anchor="middle" x="1097" y="-499.911" font-family="Times,serif" font-size="14.00">Pair_rec</text>
</a>
</g>
</g>
<!-- PseudofunctorToCat_Pair_rect -->
<g id="node31" class="node"><title>PseudofunctorToCat_Pair_rect</title>
<g id="a_node31"><a xlink:href="PseudofunctorToCat.html#Pair_rect" xlink:title="Pair_rect">
<ellipse fill="#f070d1" stroke="black" cx="982" cy="-347.611" rx="42.4939" ry="18"/>
<text text-anchor="middle" x="982" y="-343.911" font-family="Times,serif" font-size="14.00">Pair_rect</text>
</a>
</g>
</g>
<!-- PseudofunctorToCat_Pair_rec&#45;&gt;PseudofunctorToCat_Pair_rect -->
<g id="edge26" class="edge"><title>PseudofunctorToCat_Pair_rec&#45;&gt;PseudofunctorToCat_Pair_rect</title>
<path fill="none" stroke="black" d="M1079.03,-479.236C1057.76,-450.378 1022.49,-402.54 1000.84,-373.173"/>
<polygon fill="black" stroke="black" points="1003.61,-371.025 994.857,-365.052 997.974,-375.179 1003.61,-371.025"/>
</g>
<!-- PseudofunctorToCat_Pair_ind -->
<g id="node30" class="node"><title>PseudofunctorToCat_Pair_ind</title>
<g id="a_node30"><a xlink:href="PseudofunctorToCat.html#Pair_ind" xlink:title="Pair_ind">
<ellipse fill="#7fffd4" stroke="black" cx="982" cy="-503.611" rx="40.1273" ry="18"/>
<ellipse fill="none" stroke="black" cx="982" cy="-503.611" rx="44.1105" ry="22"/>
<ellipse fill="none" stroke="black" cx="982" cy="-503.611" rx="48.0937" ry="26"/>
<text text-anchor="middle" x="982" y="-499.911" font-family="Times,serif" font-size="14.00">Pair_ind</text>
</a>
</g>
</g>
<!-- PseudofunctorToCat_Pair_ind&#45;&gt;PseudofunctorToCat_Pair_rect -->
<g id="edge27" class="edge"><title>PseudofunctorToCat_Pair_ind&#45;&gt;PseudofunctorToCat_Pair_rect</title>
<path fill="none" stroke="black" d="M982,-477.5C982,-449.505 982,-405.187 982,-376.252"/>
<polygon fill="black" stroke="black" points="985.5,-375.982 982,-365.982 978.5,-375.982 985.5,-375.982"/>
</g>
<!-- PseudofunctorToCat_Build_Pair -->
<g id="node34" class="node"><title>PseudofunctorToCat_Build_Pair</title>
<g id="a_node34"><a xlink:href="PseudofunctorToCat.html#Build_Pair" xlink:title="Build_Pair">
<ellipse fill="#7faaff" stroke="black" cx="796" cy="-206.611" rx="48.9926" ry="18"/>
<text text-anchor="middle" x="796" y="-202.911" font-family="Times,serif" font-size="14.00">Build_Pair</text>
</a>
</g>
</g>
<!-- PseudofunctorToCat_Pair_rect&#45;&gt;PseudofunctorToCat_Build_Pair -->
<g id="edge28" class="edge"><title>PseudofunctorToCat_Pair_rect&#45;&gt;PseudofunctorToCat_Build_Pair</title>
<path fill="none" stroke="black" d="M961.025,-331.711C927.902,-306.602 863.373,-257.684 825.565,-229.024"/>
<polygon fill="black" stroke="black" points="827.554,-226.139 817.471,-222.888 823.325,-231.718 827.554,-226.139"/>
</g>
<!-- PseudofunctorToCat_x -->
<g id="node32" class="node"><title>PseudofunctorToCat_x</title>
<g id="a_node32"><a xlink:href="PseudofunctorToCat.html#x" xlink:title="x">
<ellipse fill="#f070d1" stroke="black" cx="881" cy="-503.611" rx="27" ry="18"/>
<ellipse fill="none" stroke="black" cx="881" cy="-503.611" rx="31" ry="22"/>
<ellipse fill="none" stroke="black" cx="881" cy="-503.611" rx="35" ry="26"/>
<text text-anchor="middle" x="881" y="-499.911" font-family="Times,serif" font-size="14.00">x</text>
</a>
</g>
</g>
<!-- PseudofunctorToCat_c -->
<g id="node33" class="node"><title>PseudofunctorToCat_c</title>
<g id="a_node33"><a xlink:href="PseudofunctorToCat.html#c" xlink:title="c">
<ellipse fill="#f070d1" stroke="black" cx="793" cy="-503.611" rx="27" ry="18"/>
<ellipse fill="none" stroke="black" cx="793" cy="-503.611" rx="31" ry="22"/>
<ellipse fill="none" stroke="black" cx="793" cy="-503.611" rx="35" ry="26"/>
<text text-anchor="middle" x="793" y="-499.911" font-family="Times,serif" font-size="14.00">c</text>
</a>
</g>
</g>
<!-- PseudofunctorToCat_Pair -->
<g id="node35" class="node"><title>PseudofunctorToCat_Pair</title>
<g id="a_node35"><a xlink:href="PseudofunctorToCat.html#Pair" xlink:title="Pair">
<ellipse fill="#e2cdfa" stroke="black" cx="705" cy="-503.611" rx="27" ry="18"/>
<ellipse fill="none" stroke="black" cx="705" cy="-503.611" rx="31" ry="22"/>
<ellipse fill="none" stroke="black" cx="705" cy="-503.611" rx="35" ry="26"/>
<text text-anchor="middle" x="705" y="-499.911" font-family="Times,serif" font-size="14.00">Pair</text>
</a>
</g>
</g>
</g>
</svg>
