<?xml version="1.0" encoding="UTF-8" standalone="no"?>
<!DOCTYPE svg PUBLIC "-//W3C//DTD SVG 1.1//EN"
 "http://www.w3.org/Graphics/SVG/1.1/DTD/svg11.dtd">
<!-- Generated by graphviz version 2.26.3 (20100126.1600)
 -->
<!-- Title: HoTT_categories_Limits_Limits Pages: 1 -->
<svg width="2596pt" height="1302pt"
 viewBox="0.00 0.00 2596.00 1302.00" xmlns="http://www.w3.org/2000/svg" xmlns:xlink="http://www.w3.org/1999/xlink">
<g id="graph1" class="graph" transform="scale(1 1) rotate(0) translate(4 1298)">
<title>HoTT_categories_Limits_Limits</title>
<polygon fill="white" stroke="white" points="-4,5 -4,-1298 2593,-1298 2593,5 -4,5"/>
<g id="graph2" class="cluster"><title>cluster_Limits</title>
<polygon fill="#ffffc3" stroke="black" points="8,-55.6559 8,-1238.34 2580,-1238.34 2580,-55.6559 8,-55.6559"/>
<text text-anchor="middle" x="37" y="-1221.74" font-family="Times Roman,serif" font-size="14.00">Limits</text>
</g>
<!-- Limits_limit_adjunction -->
<g id="node1" class="node"><title>Limits_limit_adjunction</title>
<a xlink:href="Limits.html#limit_adjunction" xlink:title="limit_adjunction">
<ellipse fill="#f070d1" stroke="black" cx="2475" cy="-813.656" rx="89.0955" ry="18.3848"/>
<ellipse fill="none" stroke="black" cx="2475" cy="-813.656" rx="93.0955" ry="22.3848"/>
<ellipse fill="none" stroke="black" cx="2475" cy="-813.656" rx="97.0955" ry="26.3848"/>
<text text-anchor="middle" x="2475" y="-810.056" font-family="Times Roman,serif" font-size="14.00">limit_adjunction</text>
</a>
</g>
<!-- Limits_limit_functor -->
<g id="node2" class="node"><title>Limits_limit_functor</title>
<a xlink:href="Limits.html#limit_functor" xlink:title="limit_functor">
<ellipse fill="#f070d1" stroke="black" cx="2279" cy="-813.656" rx="73.0879" ry="18.3848"/>
<ellipse fill="none" stroke="black" cx="2279" cy="-813.656" rx="77.0634" ry="22.3848"/>
<ellipse fill="none" stroke="black" cx="2279" cy="-813.656" rx="81.0389" ry="26.3848"/>
<text text-anchor="middle" x="2279" y="-810.056" font-family="Times Roman,serif" font-size="14.00">limit_functor</text>
</a>
</g>
<!-- Limits_colimit_adjunction -->
<g id="node3" class="node"><title>Limits_colimit_adjunction</title>
<a xlink:href="Limits.html#colimit_adjunction" xlink:title="colimit_adjunction">
<ellipse fill="#f070d1" stroke="black" cx="2073" cy="-813.656" rx="99.2383" ry="18.3848"/>
<ellipse fill="none" stroke="black" cx="2073" cy="-813.656" rx="103.22" ry="22.3848"/>
<ellipse fill="none" stroke="black" cx="2073" cy="-813.656" rx="107.201" ry="26.3848"/>
<text text-anchor="middle" x="2073" y="-810.056" font-family="Times Roman,serif" font-size="14.00">colimit_adjunction</text>
</a>
</g>
<!-- Limits_colimit_functor -->
<g id="node4" class="node"><title>Limits_colimit_functor</title>
<a xlink:href="Limits.html#colimit_functor" xlink:title="colimit_functor">
<ellipse fill="#f070d1" stroke="black" cx="1856" cy="-813.656" rx="84.1457" ry="18.3848"/>
<ellipse fill="none" stroke="black" cx="1856" cy="-813.656" rx="88.1457" ry="22.3848"/>
<ellipse fill="none" stroke="black" cx="1856" cy="-813.656" rx="92.1457" ry="26.3848"/>
<text text-anchor="middle" x="1856" y="-810.056" font-family="Times Roman,serif" font-size="14.00">colimit_functor</text>
</a>
</g>
<!-- Limits_IsColimit -->
<g id="node5" class="node"><title>Limits_IsColimit</title>
<a xlink:href="Limits.html#IsColimit" xlink:title="IsColimit">
<ellipse fill="#f070d1" stroke="black" cx="1685" cy="-813.656" rx="53.3032" ry="18.3848"/>
<ellipse fill="none" stroke="black" cx="1685" cy="-813.656" rx="57.2707" ry="22.3848"/>
<ellipse fill="none" stroke="black" cx="1685" cy="-813.656" rx="61.2382" ry="26.3848"/>
<text text-anchor="middle" x="1685" y="-810.056" font-family="Times Roman,serif" font-size="14.00">IsColimit</text>
</a>
</g>
<!-- Limits_IsLimit -->
<g id="node6" class="node"><title>Limits_IsLimit</title>
<a xlink:href="Limits.html#IsLimit" xlink:title="IsLimit">
<ellipse fill="#f070d1" stroke="black" cx="1554" cy="-813.656" rx="43.8406" ry="18.3848"/>
<ellipse fill="none" stroke="black" cx="1554" cy="-813.656" rx="47.8406" ry="22.3848"/>
<ellipse fill="none" stroke="black" cx="1554" cy="-813.656" rx="51.8406" ry="26.3848"/>
<text text-anchor="middle" x="1554" y="-810.056" font-family="Times Roman,serif" font-size="14.00">IsLimit</text>
</a>
</g>
<!-- Limits_compose_diagonal_functor_natural_transformation -->
<g id="node7" class="node"><title>Limits_compose_diagonal_functor_natural_transformation</title>
<a xlink:href="Limits.html#compose_diagonal_functor_natural_transformation" xlink:title="compose_diagonal_functor_natural_transformation">
<ellipse fill="#f070d1" stroke="black" cx="1217" cy="-813.656" rx="258.801" ry="18.3848"/>
<ellipse fill="none" stroke="black" cx="1217" cy="-813.656" rx="262.801" ry="22.3848"/>
<ellipse fill="none" stroke="black" cx="1217" cy="-813.656" rx="266.801" ry="26.3848"/>
<text text-anchor="middle" x="1217" y="-810.056" font-family="Times Roman,serif" font-size="14.00">compose_diagonal_functor_natural_transformation</text>
</a>
</g>
<!-- Limits_diagonal_functor -->
<g id="node11" class="node"><title>Limits_diagonal_functor</title>
<a xlink:href="Limits.html#diagonal_functor" xlink:title="diagonal_functor">
<ellipse fill="#f070d1" stroke="black" cx="668" cy="-243.656" rx="92.1303" ry="18.3848"/>
<text text-anchor="middle" x="668" y="-240.056" font-family="Times Roman,serif" font-size="14.00">diagonal_functor</text>
</a>
</g>
<!-- Limits_compose_diagonal_functor_natural_transformation&#45;&gt;Limits_diagonal_functor -->
<g id="edge2" class="edge"><title>Limits_compose_diagonal_functor_natural_transformation&#45;&gt;Limits_diagonal_functor</title>
<path fill="none" stroke="black" d="M1191.26,-786.928C1098.68,-690.806 783.33,-363.397 692.603,-269.2"/>
<polygon fill="black" stroke="black" points="694.952,-266.594 685.494,-261.819 689.91,-271.45 694.952,-266.594"/>
</g>
<!-- Limits_compose_diagonal_functor -->
<g id="node8" class="node"><title>Limits_compose_diagonal_functor</title>
<a xlink:href="Limits.html#compose_diagonal_functor" xlink:title="compose_diagonal_functor">
<ellipse fill="#f070d1" stroke="black" cx="784" cy="-813.656" rx="140.007" ry="18.3848"/>
<ellipse fill="none" stroke="black" cx="784" cy="-813.656" rx="144.007" ry="22.3848"/>
<ellipse fill="none" stroke="black" cx="784" cy="-813.656" rx="148.007" ry="26.3848"/>
<text text-anchor="middle" x="784" y="-810.056" font-family="Times Roman,serif" font-size="14.00">compose_diagonal_functor</text>
</a>
</g>
<!-- Limits_diagonal_functor_diagonal_functor_ -->
<g id="node9" class="node"><title>Limits_diagonal_functor_diagonal_functor_</title>
<a xlink:href="Limits.html#diagonal_functor_diagonal_functor&#39;" xlink:title="diagonal_functor_diagonal_functor&#39;">
<ellipse fill="#f070d1" stroke="black" cx="429" cy="-813.656" rx="181.247" ry="18.3848"/>
<ellipse fill="none" stroke="black" cx="429" cy="-813.656" rx="185.236" ry="22.3848"/>
<ellipse fill="none" stroke="black" cx="429" cy="-813.656" rx="189.226" ry="26.3848"/>
<text text-anchor="middle" x="429" y="-810.056" font-family="Times Roman,serif" font-size="14.00">diagonal_functor_diagonal_functor&#39;</text>
</a>
</g>
<!-- Limits_diagonal_functor_ -->
<g id="node10" class="node"><title>Limits_diagonal_functor_</title>
<a xlink:href="Limits.html#diagonal_functor&#39;" xlink:title="diagonal_functor&#39;">
<ellipse fill="#f070d1" stroke="black" cx="119" cy="-813.656" rx="94.7523" ry="18.3848"/>
<ellipse fill="none" stroke="black" cx="119" cy="-813.656" rx="98.7523" ry="22.3848"/>
<ellipse fill="none" stroke="black" cx="119" cy="-813.656" rx="102.752" ry="26.3848"/>
<text text-anchor="middle" x="119" y="-810.056" font-family="Times Roman,serif" font-size="14.00">diagonal_functor&#39;</text>
</a>
</g>
<!-- Limits_diagonal_functor_&#45;&gt;Limits_diagonal_functor -->
<g id="edge4" class="edge"><title>Limits_diagonal_functor_&#45;&gt;Limits_diagonal_functor</title>
<path fill="none" stroke="black" d="M144.016,-787.683C235.626,-692.569 552.186,-363.9 643.291,-269.31"/>
<polygon fill="black" stroke="black" points="646.014,-271.528 650.43,-261.898 640.972,-266.672 646.014,-271.528"/>
</g>
</g>
</svg>
