<?xml version="1.0" encoding="UTF-8" standalone="no"?>
<!DOCTYPE svg PUBLIC "-//W3C//DTD SVG 1.1//EN"
 "http://www.w3.org/Graphics/SVG/1.1/DTD/svg11.dtd">
<!-- Generated by graphviz version 2.39.20161220.0128 (20161220.0128)
 -->
<!-- Title: HoTT_Categories_Functor_Core Pages: 1 -->
<svg width="988pt" height="498pt"
 viewBox="0.00 0.00 988.00 498.00" xmlns="http://www.w3.org/2000/svg" xmlns:xlink="http://www.w3.org/1999/xlink">
<g id="graph0" class="graph" transform="scale(1 1) rotate(0) translate(4 494)">
<title>HoTT_Categories_Functor_Core</title>
<polygon fill="#ffffff" stroke="transparent" points="-4,4 -4,-494 984,-494 984,4 -4,4"/>
<g id="clust1" class="cluster">
<title>cluster_Core</title>
<polygon fill="#ffffc3" stroke="#000000" points="8,-15.6175 8,-474.3825 972,-474.3825 972,-15.6175 8,-15.6175"/>
<text text-anchor="middle" x="29.5" y="-459.1825" font-family="Times,serif" font-size="14.00" fill="#000000">Core</text>
</g>
<!-- Core_Functor_rec -->
<g id="node1" class="node">
<title>Core_Functor_rec</title>
<g id="a_node1"><a xlink:href="Core.html#Functor_rec" xlink:title="Functor_rec">
<ellipse fill="#f070d1" stroke="#000000" cx="903" cy="-362.6175" rx="53.1179" ry="18"/>
<ellipse fill="none" stroke="#000000" cx="903" cy="-362.6175" rx="57.1045" ry="22"/>
<ellipse fill="none" stroke="#000000" cx="903" cy="-362.6175" rx="61.0912" ry="26"/>
<text text-anchor="middle" x="903" y="-358.9175" font-family="Times,serif" font-size="14.00" fill="#000000">Functor_rec</text>
</a>
</g>
</g>
<!-- Core_Functor_rect -->
<g id="node3" class="node">
<title>Core_Functor_rect</title>
<g id="a_node3"><a xlink:href="Core.html#Functor_rect" xlink:title="Functor_rect">
<ellipse fill="#f070d1" stroke="#000000" cx="832" cy="-206.6175" rx="55.7903" ry="18"/>
<text text-anchor="middle" x="832" y="-202.9175" font-family="Times,serif" font-size="14.00" fill="#000000">Functor_rect</text>
</a>
</g>
</g>
<!-- Core_Functor_rec&#45;&gt;Core_Functor_rect -->
<g id="edge1" class="edge">
<title>Core_Functor_rec&#45;&gt;Core_Functor_rect</title>
<path fill="none" stroke="#000000" d="M891.2758,-336.8573C878.3243,-308.4006 857.559,-262.7754 844.3588,-233.7721"/>
<polygon fill="#000000" stroke="#000000" points="847.5225,-232.274 840.1944,-224.6222 841.1513,-235.1737 847.5225,-232.274"/>
</g>
<!-- Core_Functor_ind -->
<g id="node2" class="node">
<title>Core_Functor_ind</title>
<g id="a_node2"><a xlink:href="Core.html#Functor_ind" xlink:title="Functor_ind">
<ellipse fill="#7fffd4" stroke="#000000" cx="762" cy="-362.6175" rx="53.8975" ry="18"/>
<ellipse fill="none" stroke="#000000" cx="762" cy="-362.6175" rx="57.894" ry="22"/>
<ellipse fill="none" stroke="#000000" cx="762" cy="-362.6175" rx="61.8905" ry="26"/>
<text text-anchor="middle" x="762" y="-358.9175" font-family="Times,serif" font-size="14.00" fill="#000000">Functor_ind</text>
</a>
</g>
</g>
<!-- Core_Functor_ind&#45;&gt;Core_Functor_rect -->
<g id="edge2" class="edge">
<title>Core_Functor_ind&#45;&gt;Core_Functor_rect</title>
<path fill="none" stroke="#000000" d="M773.5591,-336.8573C786.3281,-308.4006 806.801,-262.7754 819.8153,-233.7721"/>
<polygon fill="#000000" stroke="#000000" points="823.0203,-235.1787 823.921,-224.6222 816.6337,-232.3129 823.0203,-235.1787"/>
</g>
<!-- Core_Build_Functor -->
<g id="node8" class="node">
<title>Core_Build_Functor</title>
<g id="a_node8"><a xlink:href="Core.html#Build_Functor" xlink:title="Build_Functor">
<ellipse fill="#7faaff" stroke="#000000" cx="832" cy="-66.6175" rx="61.99" ry="18"/>
<text text-anchor="middle" x="832" y="-62.9175" font-family="Times,serif" font-size="14.00" fill="#000000">Build_Functor</text>
</a>
</g>
</g>
<!-- Core_Functor_rect&#45;&gt;Core_Build_Functor -->
<g id="edge3" class="edge">
<title>Core_Functor_rect&#45;&gt;Core_Build_Functor</title>
<path fill="none" stroke="#000000" d="M832,-188.6016C832,-165.0004 832,-123.3373 832,-95.3549"/>
<polygon fill="#000000" stroke="#000000" points="835.5001,-95.0089 832,-85.0089 828.5001,-95.0089 835.5001,-95.0089"/>
</g>
<!-- Core_identity_of -->
<g id="node4" class="node">
<title>Core_identity_of</title>
<g id="a_node4"><a xlink:href="Core.html#identity_of" xlink:title="identity_of">
<ellipse fill="#f070d1" stroke="#000000" cx="625" cy="-362.6175" rx="49.3059" ry="18"/>
<ellipse fill="none" stroke="#000000" cx="625" cy="-362.6175" rx="53.2987" ry="22"/>
<ellipse fill="none" stroke="#000000" cx="625" cy="-362.6175" rx="57.2914" ry="26"/>
<text text-anchor="middle" x="625" y="-358.9175" font-family="Times,serif" font-size="14.00" fill="#000000">identity_of</text>
</a>
</g>
</g>
<!-- Core_composition_of -->
<g id="node5" class="node">
<title>Core_composition_of</title>
<g id="a_node5"><a xlink:href="Core.html#composition_of" xlink:title="composition_of">
<ellipse fill="#f070d1" stroke="#000000" cx="475" cy="-362.6175" rx="66.1109" ry="18"/>
<ellipse fill="none" stroke="#000000" cx="475" cy="-362.6175" rx="70.0999" ry="22"/>
<ellipse fill="none" stroke="#000000" cx="475" cy="-362.6175" rx="74.0888" ry="26"/>
<text text-anchor="middle" x="475" y="-358.9175" font-family="Times,serif" font-size="14.00" fill="#000000">composition_of</text>
</a>
</g>
</g>
<!-- Core_morphism_of -->
<g id="node6" class="node">
<title>Core_morphism_of</title>
<g id="a_node6"><a xlink:href="Core.html#morphism_of" xlink:title="morphism_of">
<ellipse fill="#f070d1" stroke="#000000" cx="316" cy="-362.6175" rx="59.2725" ry="18"/>
<ellipse fill="none" stroke="#000000" cx="316" cy="-362.6175" rx="63.2812" ry="22"/>
<ellipse fill="none" stroke="#000000" cx="316" cy="-362.6175" rx="67.2898" ry="26"/>
<text text-anchor="middle" x="316" y="-358.9175" font-family="Times,serif" font-size="14.00" fill="#000000">morphism_of</text>
</a>
</g>
</g>
<!-- Core_object_of -->
<g id="node7" class="node">
<title>Core_object_of</title>
<g id="a_node7"><a xlink:href="Core.html#object_of" xlink:title="object_of">
<ellipse fill="#f070d1" stroke="#000000" cx="179" cy="-362.6175" rx="44.3627" ry="18"/>
<ellipse fill="none" stroke="#000000" cx="179" cy="-362.6175" rx="48.3778" ry="22"/>
<ellipse fill="none" stroke="#000000" cx="179" cy="-362.6175" rx="52.3929" ry="26"/>
<text text-anchor="middle" x="179" y="-358.9175" font-family="Times,serif" font-size="14.00" fill="#000000">object_of</text>
</a>
</g>
</g>
<!-- Core_Functor -->
<g id="node9" class="node">
<title>Core_Functor</title>
<g id="a_node9"><a xlink:href="Core.html#Functor" xlink:title="Functor">
<ellipse fill="#e2cdfa" stroke="#000000" cx="62" cy="-362.6175" rx="38.2201" ry="18"/>
<ellipse fill="none" stroke="#000000" cx="62" cy="-362.6175" rx="42.2069" ry="22"/>
<ellipse fill="none" stroke="#000000" cx="62" cy="-362.6175" rx="46.1937" ry="26"/>
<text text-anchor="middle" x="62" y="-358.9175" font-family="Times,serif" font-size="14.00" fill="#000000">Functor</text>
</a>
</g>
</g>
</g>
</svg>
