<?xml version="1.0" encoding="UTF-8" standalone="no"?>
<!DOCTYPE svg PUBLIC "-//W3C//DTD SVG 1.1//EN"
 "http://www.w3.org/Graphics/SVG/1.1/DTD/svg11.dtd">
<!-- Generated by graphviz version 2.39.20141222.0545 (20141222.0545)
 -->
<!-- Title: HoTT_categories_Functor_Composition_Functorial Pages: 1 -->
<svg width="1972pt" height="990pt"
 viewBox="0.00 0.00 1972.00 990.00" xmlns="http://www.w3.org/2000/svg" xmlns:xlink="http://www.w3.org/1999/xlink">
<g id="graph0" class="graph" transform="scale(1 1) rotate(0) translate(4 986)">
<title>HoTT_categories_Functor_Composition_Functorial</title>
<polygon fill="white" stroke="transparent" points="-4,4 -4,-986 1968,-986 1968,4 -4,4"/>
<g id="clust1" class="cluster"><title>cluster_Attributes</title>
<polygon fill="#ffffc3" stroke="black" points="1042,-452.609 1042,-765.798 1474,-765.798 1474,-452.609 1042,-452.609"/>
<text text-anchor="middle" x="1077.5" y="-750.598" font-family="Times,serif" font-size="14.00">Attributes</text>
</g>
<g id="clust2" class="cluster"><title>cluster_Functorial</title>
<polygon fill="#ffffc3" stroke="black" points="8,-307.128 8,-965.835 1034,-965.835 1034,-307.128 8,-307.128"/>
<text text-anchor="middle" x="44" y="-950.635" font-family="Times,serif" font-size="14.00">Functorial</text>
</g>
<g id="clust3" class="cluster"><title>cluster_Core</title>
<polygon fill="#ffffc3" stroke="black" points="1482,-16.1646 1482,-781.963 1956,-781.963 1956,-16.1646 1482,-16.1646"/>
<text text-anchor="middle" x="1503.5" y="-766.763" font-family="Times,serif" font-size="14.00">Core</text>
</g>
<!-- Functorial_isfaithful_precomposition_essentially_surjective -->
<g id="node1" class="node"><title>Functorial_isfaithful_precomposition_essentially_surjective</title>
<g id="a_node1"><a xlink:href="Functorial.html#isfaithful_precomposition_essentially_surjective" xlink:title="isfaithful_precomposition_essentially_surjective">
<ellipse fill="#f070d1" stroke="black" cx="386" cy="-850.165" rx="181.968" ry="18"/>
<ellipse fill="none" stroke="black" cx="386" cy="-850.165" rx="185.968" ry="22"/>
<ellipse fill="none" stroke="black" cx="386" cy="-850.165" rx="189.968" ry="26"/>
<text text-anchor="middle" x="386" y="-846.465" font-family="Times,serif" font-size="14.00">isfaithful_precomposition_essentially_surjective</text>
</a>
</g>
</g>
<!-- Attributes_isfaithful_precomposition_essentially_surjective -->
<g id="node15" class="node"><title>Attributes_isfaithful_precomposition_essentially_surjective</title>
<g id="a_node15"><a xlink:href="Attributes.html#isfaithful_precomposition_essentially_surjective" xlink:title="isfaithful_precomposition_essentially_surjective">
<ellipse fill="#facdef" stroke="black" cx="1232" cy="-667.165" rx="181.968" ry="18"/>
<text text-anchor="middle" x="1232" y="-663.465" font-family="Times,serif" font-size="14.00">isfaithful_precomposition_essentially_surjective</text>
</a>
</g>
</g>
<!-- Functorial_isfaithful_precomposition_essentially_surjective&#45;&gt;Attributes_isfaithful_precomposition_essentially_surjective -->
<g id="edge1" class="edge"><title>Functorial_isfaithful_precomposition_essentially_surjective&#45;&gt;Attributes_isfaithful_precomposition_essentially_surjective</title>
<path fill="none" stroke="black" d="M507.812,-830.183C639.351,-807.779 854.691,-768.7 1038,-724.165 1082,-713.476 1130.9,-699.089 1168.6,-687.444"/>
<polygon fill="black" stroke="black" points="1169.92,-690.701 1178.43,-684.392 1167.84,-684.015 1169.92,-690.701"/>
</g>
<!-- Functorial_isfaithful_precomposition_essentially_surjective_helper -->
<g id="node2" class="node"><title>Functorial_isfaithful_precomposition_essentially_surjective_helper</title>
<g id="a_node2"><a xlink:href="Functorial.html#isfaithful_precomposition_essentially_surjective_helper" xlink:title="isfaithful_precomposition_essentially_surjective_helper">
<ellipse fill="#f070d1" stroke="black" cx="810" cy="-850.165" rx="207.964" ry="18"/>
<ellipse fill="none" stroke="black" cx="810" cy="-850.165" rx="211.963" ry="22"/>
<ellipse fill="none" stroke="black" cx="810" cy="-850.165" rx="215.963" ry="26"/>
<text text-anchor="middle" x="810" y="-846.465" font-family="Times,serif" font-size="14.00">isfaithful_precomposition_essentially_surjective_helper</text>
</a>
</g>
</g>
<!-- Attributes_isfaithful_precomposition_essentially_surjective_helper -->
<g id="node16" class="node"><title>Attributes_isfaithful_precomposition_essentially_surjective_helper</title>
<g id="a_node16"><a xlink:href="Attributes.html#isfaithful_precomposition_essentially_surjective_helper" xlink:title="isfaithful_precomposition_essentially_surjective_helper">
<ellipse fill="#facdef" stroke="black" cx="1258" cy="-505.165" rx="207.963" ry="18"/>
<text text-anchor="middle" x="1258" y="-501.465" font-family="Times,serif" font-size="14.00">isfaithful_precomposition_essentially_surjective_helper</text>
</a>
</g>
</g>
<!-- Functorial_isfaithful_precomposition_essentially_surjective_helper&#45;&gt;Attributes_isfaithful_precomposition_essentially_surjective_helper -->
<g id="edge2" class="edge"><title>Functorial_isfaithful_precomposition_essentially_surjective_helper&#45;&gt;Attributes_isfaithful_precomposition_essentially_surjective_helper</title>
<path fill="none" stroke="black" d="M997.276,-837.164C1157.33,-821.692 1369.92,-789.266 1423,-724.165 1479.6,-654.747 1363.87,-569.071 1298.56,-528.532"/>
<polygon fill="black" stroke="black" points="1300.05,-525.346 1289.7,-523.118 1296.4,-531.319 1300.05,-525.346"/>
</g>
<!-- Functorial_compose_functor_ -->
<g id="node3" class="node"><title>Functorial_compose_functor_</title>
<g id="a_node3"><a xlink:href="Functorial.html#compose_functor'" xlink:title="compose_functor&#39;">
<ellipse fill="#f070d1" stroke="black" cx="97" cy="-850.165" rx="73.3926" ry="18"/>
<ellipse fill="none" stroke="black" cx="97" cy="-850.165" rx="77.3898" ry="22"/>
<ellipse fill="none" stroke="black" cx="97" cy="-850.165" rx="81.387" ry="26"/>
<text text-anchor="middle" x="97" y="-846.465" font-family="Times,serif" font-size="14.00">compose_functor&#39;</text>
</a>
</g>
</g>
<!-- Functorial_compose_functor_uncurried -->
<g id="node4" class="node"><title>Functorial_compose_functor_uncurried</title>
<g id="a_node4"><a xlink:href="Functorial.html#compose_functor_uncurried" xlink:title="compose_functor_uncurried">
<ellipse fill="#f070d1" stroke="black" cx="339" cy="-667.165" rx="110.48" ry="18"/>
<text text-anchor="middle" x="339" y="-663.465" font-family="Times,serif" font-size="14.00">compose_functor_uncurried</text>
</a>
</g>
</g>
<!-- Functorial_compose_functor_&#45;&gt;Functorial_compose_functor_uncurried -->
<g id="edge3" class="edge"><title>Functorial_compose_functor_&#45;&gt;Functorial_compose_functor_uncurried</title>
<path fill="none" stroke="black" d="M128.886,-826.052C175.283,-790.967 260.907,-726.218 307.236,-691.185"/>
<polygon fill="black" stroke="black" points="309.546,-693.826 315.411,-685.003 305.323,-688.243 309.546,-693.826"/>
</g>
<!-- Functorial_compose_functor -->
<g id="node5" class="node"><title>Functorial_compose_functor</title>
<g id="a_node5"><a xlink:href="Functorial.html#compose_functor" xlink:title="compose_functor">
<ellipse fill="#f070d1" stroke="black" cx="552" cy="-505.165" rx="72.2875" ry="18"/>
<text text-anchor="middle" x="552" y="-501.465" font-family="Times,serif" font-size="14.00">compose_functor</text>
</a>
</g>
</g>
<!-- Functorial_compose_functor_uncurried&#45;&gt;Functorial_compose_functor -->
<g id="edge4" class="edge"><title>Functorial_compose_functor_uncurried&#45;&gt;Functorial_compose_functor</title>
<path fill="none" stroke="black" d="M362.2,-649.519C400.814,-620.151 478.269,-561.242 521.338,-528.485"/>
<polygon fill="black" stroke="black" points="523.631,-531.139 529.471,-522.299 519.393,-525.567 523.631,-531.139"/>
</g>
<!-- Functorial_compose_functor_subproof0 -->
<g id="node6" class="node"><title>Functorial_compose_functor_subproof0</title>
<g id="a_node6"><a xlink:href="Functorial.html#compose_functor_subproof0" xlink:title="compose_functor_subproof0">
<ellipse fill="#f070d1" stroke="black" cx="680" cy="-359.165" rx="112.38" ry="18"/>
<text text-anchor="middle" x="680" y="-355.465" font-family="Times,serif" font-size="14.00">compose_functor_subproof0</text>
</a>
</g>
</g>
<!-- Functorial_compose_functor&#45;&gt;Functorial_compose_functor_subproof0 -->
<g id="edge5" class="edge"><title>Functorial_compose_functor&#45;&gt;Functorial_compose_functor_subproof0</title>
<path fill="none" stroke="black" d="M567.44,-487.554C589.806,-462.042 631.368,-414.636 657.249,-385.115"/>
<polygon fill="black" stroke="black" points="660.143,-387.123 664.104,-377.296 654.88,-382.508 660.143,-387.123"/>
</g>
<!-- Functorial_compose_functor_subproof -->
<g id="node7" class="node"><title>Functorial_compose_functor_subproof</title>
<g id="a_node7"><a xlink:href="Functorial.html#compose_functor_subproof" xlink:title="compose_functor_subproof">
<ellipse fill="#f070d1" stroke="black" cx="918" cy="-359.165" rx="107.781" ry="18"/>
<text text-anchor="middle" x="918" y="-355.465" font-family="Times,serif" font-size="14.00">compose_functor_subproof</text>
</a>
</g>
</g>
<!-- Functorial_compose_functor&#45;&gt;Functorial_compose_functor_subproof -->
<g id="edge6" class="edge"><title>Functorial_compose_functor&#45;&gt;Functorial_compose_functor_subproof</title>
<path fill="none" stroke="black" d="M590.477,-489.816C656.696,-463.401 792.231,-409.335 866.506,-379.706"/>
<polygon fill="black" stroke="black" points="868.137,-382.824 876.128,-375.868 865.543,-376.322 868.137,-382.824"/>
</g>
<!-- Functorial_compose_functor_morphism_of -->
<g id="node8" class="node"><title>Functorial_compose_functor_morphism_of</title>
<g id="a_node8"><a xlink:href="Functorial.html#compose_functor_morphism_of" xlink:title="compose_functor_morphism_of">
<ellipse fill="#f070d1" stroke="black" cx="425" cy="-359.165" rx="124.578" ry="18"/>
<text text-anchor="middle" x="425" y="-355.465" font-family="Times,serif" font-size="14.00">compose_functor_morphism_of</text>
</a>
</g>
</g>
<!-- Functorial_compose_functor&#45;&gt;Functorial_compose_functor_morphism_of -->
<g id="edge7" class="edge"><title>Functorial_compose_functor&#45;&gt;Functorial_compose_functor_morphism_of</title>
<path fill="none" stroke="black" d="M536.681,-487.554C514.489,-462.042 473.252,-414.636 447.573,-385.115"/>
<polygon fill="black" stroke="black" points="449.976,-382.544 440.772,-377.296 444.694,-387.138 449.976,-382.544"/>
</g>
<!-- Core_compose_functor_subproof0 -->
<g id="node12" class="node"><title>Core_compose_functor_subproof0</title>
<g id="a_node12"><a xlink:href="Core.html#compose_functor_subproof0" xlink:title="compose_functor_subproof0">
<ellipse fill="#facdef" stroke="black" cx="1602" cy="-214.165" rx="112.38" ry="18"/>
<text text-anchor="middle" x="1602" y="-210.465" font-family="Times,serif" font-size="14.00">compose_functor_subproof0</text>
</a>
</g>
</g>
<!-- Functorial_compose_functor_subproof0&#45;&gt;Core_compose_functor_subproof0 -->
<g id="edge8" class="edge"><title>Functorial_compose_functor_subproof0&#45;&gt;Core_compose_functor_subproof0</title>
<path fill="none" stroke="black" d="M744.842,-344.43C762.97,-340.529 782.713,-336.484 801,-333.165 1053.02,-287.416 1352.02,-246.513 1503.49,-226.729"/>
<polygon fill="black" stroke="black" points="1504.23,-230.162 1513.69,-225.398 1503.32,-223.22 1504.23,-230.162"/>
</g>
<!-- Core_compose_functor_subproof -->
<g id="node13" class="node"><title>Core_compose_functor_subproof</title>
<g id="a_node13"><a xlink:href="Core.html#compose_functor_subproof" xlink:title="compose_functor_subproof">
<ellipse fill="#facdef" stroke="black" cx="1840" cy="-214.165" rx="107.781" ry="18"/>
<text text-anchor="middle" x="1840" y="-210.465" font-family="Times,serif" font-size="14.00">compose_functor_subproof</text>
</a>
</g>
</g>
<!-- Functorial_compose_functor_subproof&#45;&gt;Core_compose_functor_subproof -->
<g id="edge9" class="edge"><title>Functorial_compose_functor_subproof&#45;&gt;Core_compose_functor_subproof</title>
<path fill="none" stroke="black" d="M996.609,-346.802C1167.46,-319.933 1571.69,-256.36 1751.32,-228.111"/>
<polygon fill="black" stroke="black" points="1751.93,-231.558 1761.26,-226.547 1750.84,-224.643 1751.93,-231.558"/>
</g>
<!-- Core_compose_functor_ -->
<g id="node9" class="node"><title>Core_compose_functor_</title>
<g id="a_node9"><a xlink:href="Core.html#compose_functor'" xlink:title="compose_functor&#39;">
<ellipse fill="#f070d1" stroke="black" cx="1720" cy="-667.165" rx="73.3926" ry="18"/>
<ellipse fill="none" stroke="black" cx="1720" cy="-667.165" rx="77.3898" ry="22"/>
<ellipse fill="none" stroke="black" cx="1720" cy="-667.165" rx="81.387" ry="26"/>
<text text-anchor="middle" x="1720" y="-663.465" font-family="Times,serif" font-size="14.00">compose_functor&#39;</text>
</a>
</g>
</g>
<!-- Core_compose_functor_uncurried -->
<g id="node10" class="node"><title>Core_compose_functor_uncurried</title>
<g id="a_node10"><a xlink:href="Core.html#compose_functor_uncurried" xlink:title="compose_functor_uncurried">
<ellipse fill="#f070d1" stroke="black" cx="1720" cy="-505.165" rx="110.48" ry="18"/>
<text text-anchor="middle" x="1720" y="-501.465" font-family="Times,serif" font-size="14.00">compose_functor_uncurried</text>
</a>
</g>
</g>
<!-- Core_compose_functor_&#45;&gt;Core_compose_functor_uncurried -->
<g id="edge10" class="edge"><title>Core_compose_functor_&#45;&gt;Core_compose_functor_uncurried</title>
<path fill="none" stroke="black" d="M1720,-641.137C1720,-611.822 1720,-564.32 1720,-533.928"/>
<polygon fill="black" stroke="black" points="1723.5,-533.571 1720,-523.571 1716.5,-533.571 1723.5,-533.571"/>
</g>
<!-- Core_compose_functor -->
<g id="node11" class="node"><title>Core_compose_functor</title>
<g id="a_node11"><a xlink:href="Core.html#compose_functor" xlink:title="compose_functor">
<ellipse fill="#f070d1" stroke="black" cx="1720" cy="-359.165" rx="72.2875" ry="18"/>
<text text-anchor="middle" x="1720" y="-355.465" font-family="Times,serif" font-size="14.00">compose_functor</text>
</a>
</g>
</g>
<!-- Core_compose_functor_uncurried&#45;&gt;Core_compose_functor -->
<g id="edge11" class="edge"><title>Core_compose_functor_uncurried&#45;&gt;Core_compose_functor</title>
<path fill="none" stroke="black" d="M1720,-486.969C1720,-462.051 1720,-417.058 1720,-387.652"/>
<polygon fill="black" stroke="black" points="1723.5,-387.59 1720,-377.59 1716.5,-387.59 1723.5,-387.59"/>
</g>
<!-- Core_compose_functor&#45;&gt;Core_compose_functor_subproof0 -->
<g id="edge12" class="edge"><title>Core_compose_functor&#45;&gt;Core_compose_functor_subproof0</title>
<path fill="none" stroke="black" d="M1705.53,-341.385C1684.92,-316.056 1646.97,-269.423 1623.19,-240.198"/>
<polygon fill="black" stroke="black" points="1625.61,-237.637 1616.59,-232.09 1620.18,-242.055 1625.61,-237.637"/>
</g>
<!-- Core_compose_functor&#45;&gt;Core_compose_functor_subproof -->
<g id="edge13" class="edge"><title>Core_compose_functor&#45;&gt;Core_compose_functor_subproof</title>
<path fill="none" stroke="black" d="M1734.71,-341.385C1755.77,-315.947 1794.6,-269.022 1818.77,-239.823"/>
<polygon fill="black" stroke="black" points="1821.49,-242.025 1825.17,-232.09 1816.09,-237.562 1821.49,-242.025"/>
</g>
<!-- Core_compose_functor_morphism_of -->
<g id="node14" class="node"><title>Core_compose_functor_morphism_of</title>
<g id="a_node14"><a xlink:href="Core.html#compose_functor_morphism_of" xlink:title="compose_functor_morphism_of">
<ellipse fill="#f070d1" stroke="black" cx="1719" cy="-69.1646" rx="124.578" ry="18"/>
<text text-anchor="middle" x="1719" y="-65.4646" font-family="Times,serif" font-size="14.00">compose_functor_morphism_of</text>
</a>
</g>
</g>
<!-- Core_compose_functor_subproof0&#45;&gt;Core_compose_functor_morphism_of -->
<g id="edge14" class="edge"><title>Core_compose_functor_subproof0&#45;&gt;Core_compose_functor_morphism_of</title>
<path fill="none" stroke="black" d="M1616.58,-196.093C1636.99,-170.804 1674.19,-124.692 1697.7,-95.5585"/>
<polygon fill="black" stroke="black" points="1700.68,-97.4439 1704.23,-87.4635 1695.23,-93.0481 1700.68,-97.4439"/>
</g>
<!-- Core_compose_functor_subproof&#45;&gt;Core_compose_functor_morphism_of -->
<g id="edge15" class="edge"><title>Core_compose_functor_subproof&#45;&gt;Core_compose_functor_morphism_of</title>
<path fill="none" stroke="black" d="M1824.92,-196.093C1803.73,-170.695 1765.01,-124.296 1740.71,-95.1843"/>
<polygon fill="black" stroke="black" points="1743.36,-92.8989 1734.27,-87.4635 1737.99,-97.3839 1743.36,-92.8989"/>
</g>
<!-- Attributes_isfaithful_precomposition_essentially_surjective&#45;&gt;Attributes_isfaithful_precomposition_essentially_surjective_helper -->
<g id="edge16" class="edge"><title>Attributes_isfaithful_precomposition_essentially_surjective&#45;&gt;Attributes_isfaithful_precomposition_essentially_surjective_helper</title>
<path fill="none" stroke="black" d="M1234.93,-648.896C1239.44,-620.821 1248.1,-566.84 1253.43,-533.614"/>
<polygon fill="black" stroke="black" points="1256.91,-534.043 1255.04,-523.615 1250,-532.934 1256.91,-534.043"/>
</g>
</g>
</svg>
