<?xml version="1.0" encoding="UTF-8" standalone="no"?>
<!DOCTYPE svg PUBLIC "-//W3C//DTD SVG 1.1//EN"
 "http://www.w3.org/Graphics/SVG/1.1/DTD/svg11.dtd">
<!-- Generated by graphviz version 2.26.3 (20100126.1600)
 -->
<!-- Title: HoTT_categories_FunctorCategory_Morphisms Pages: 1 -->
<svg width="1494pt" height="751pt"
 viewBox="0.00 0.00 1494.00 751.00" xmlns="http://www.w3.org/2000/svg" xmlns:xlink="http://www.w3.org/1999/xlink">
<g id="graph1" class="graph" transform="scale(1 1) rotate(0) translate(4 747)">
<title>HoTT_categories_FunctorCategory_Morphisms</title>
<polygon fill="white" stroke="white" points="-4,5 -4,-747 1491,-747 1491,5 -4,5"/>
<g id="graph2" class="cluster"><title>cluster_Morphisms</title>
<polygon fill="#ffffc3" stroke="black" points="8,-17.7964 8,-725.204 1478,-725.204 1478,-17.7964 8,-17.7964"/>
<text text-anchor="middle" x="53" y="-708.604" font-family="Times Roman,serif" font-size="14.00">Morphisms</text>
</g>
<!-- Morphisms_eta_idtoiso -->
<g id="node1" class="node"><title>Morphisms_eta_idtoiso</title>
<a xlink:href="Morphisms.html#eta_idtoiso" xlink:title="eta_idtoiso">
<ellipse fill="#facdef" stroke="black" cx="1397" cy="-589.796" rx="65.0538" ry="18.3848"/>
<ellipse fill="none" stroke="black" cx="1397" cy="-589.796" rx="69.0538" ry="22.3848"/>
<ellipse fill="none" stroke="black" cx="1397" cy="-589.796" rx="73.0538" ry="26.3848"/>
<text text-anchor="middle" x="1397" y="-586.196" font-family="Times Roman,serif" font-size="14.00">eta_idtoiso</text>
</a>
</g>
<!-- Morphisms_idtoiso -->
<g id="node2" class="node"><title>Morphisms_idtoiso</title>
<a xlink:href="Morphisms.html#idtoiso" xlink:title="idtoiso">
<ellipse fill="#f070d1" stroke="black" cx="1403" cy="-406.796" rx="43.8406" ry="18.3848"/>
<text text-anchor="middle" x="1403" y="-403.196" font-family="Times Roman,serif" font-size="14.00">idtoiso</text>
</a>
</g>
<!-- Morphisms_eta_idtoiso&#45;&gt;Morphisms_idtoiso -->
<g id="edge2" class="edge"><title>Morphisms_eta_idtoiso&#45;&gt;Morphisms_idtoiso</title>
<path fill="none" stroke="black" d="M1397.87,-563.187C1398.99,-529.139 1400.91,-470.393 1402.06,-435.408"/>
<polygon fill="black" stroke="black" points="1405.56,-435.476 1402.39,-425.367 1398.57,-435.247 1405.56,-435.476"/>
</g>
<!-- Morphisms_idtoiso_subproof0 -->
<g id="node3" class="node"><title>Morphisms_idtoiso_subproof0</title>
<a xlink:href="Morphisms.html#idtoiso_subproof0" xlink:title="idtoiso_subproof0">
<ellipse fill="#facdef" stroke="black" cx="1175" cy="-242.796" rx="96.8736" ry="18.3848"/>
<text text-anchor="middle" x="1175" y="-239.196" font-family="Times Roman,serif" font-size="14.00">idtoiso_subproof0</text>
</a>
</g>
<!-- Morphisms_idtoiso&#45;&gt;Morphisms_idtoiso_subproof0 -->
<g id="edge4" class="edge"><title>Morphisms_idtoiso&#45;&gt;Morphisms_idtoiso_subproof0</title>
<path fill="none" stroke="black" d="M1380.72,-390.773C1340.53,-361.864 1255.69,-300.839 1208.48,-266.882"/>
<polygon fill="black" stroke="black" points="1210.29,-263.868 1200.13,-260.87 1206.2,-269.551 1210.29,-263.868"/>
</g>
<!-- Morphisms_idtoiso_subproof -->
<g id="node4" class="node"><title>Morphisms_idtoiso_subproof</title>
<a xlink:href="Morphisms.html#idtoiso_subproof" xlink:title="idtoiso_subproof">
<ellipse fill="#facdef" stroke="black" cx="1380" cy="-242.796" rx="90.0096" ry="18.3848"/>
<text text-anchor="middle" x="1380" y="-239.196" font-family="Times Roman,serif" font-size="14.00">idtoiso_subproof</text>
</a>
</g>
<!-- Morphisms_idtoiso&#45;&gt;Morphisms_idtoiso_subproof -->
<g id="edge6" class="edge"><title>Morphisms_idtoiso&#45;&gt;Morphisms_idtoiso_subproof</title>
<path fill="none" stroke="black" d="M1400.41,-388.302C1396.42,-359.881 1388.76,-305.233 1384.04,-271.597"/>
<polygon fill="black" stroke="black" points="1387.47,-270.891 1382.62,-261.475 1380.54,-271.864 1387.47,-270.891"/>
</g>
<!-- Morphisms_idtoiso_natural_transformation -->
<g id="node5" class="node"><title>Morphisms_idtoiso_natural_transformation</title>
<a xlink:href="Morphisms.html#idtoiso_natural_transformation" xlink:title="idtoiso_natural_transformation">
<ellipse fill="#f070d1" stroke="black" cx="1241" cy="-77.7964" rx="162.134" ry="18.3848"/>
<text text-anchor="middle" x="1241" y="-74.1964" font-family="Times Roman,serif" font-size="14.00">idtoiso_natural_transformation</text>
</a>
</g>
<!-- Morphisms_idtoiso_subproof0&#45;&gt;Morphisms_idtoiso_natural_transformation -->
<g id="edge8" class="edge"><title>Morphisms_idtoiso_subproof0&#45;&gt;Morphisms_idtoiso_natural_transformation</title>
<path fill="none" stroke="black" d="M1182.44,-224.19C1193.98,-195.347 1216.25,-139.659 1229.76,-105.898"/>
<polygon fill="black" stroke="black" points="1233.02,-107.173 1233.48,-96.5884 1226.52,-104.573 1233.02,-107.173"/>
</g>
<!-- Morphisms_idtoiso_subproof&#45;&gt;Morphisms_idtoiso_natural_transformation -->
<g id="edge10" class="edge"><title>Morphisms_idtoiso_subproof&#45;&gt;Morphisms_idtoiso_natural_transformation</title>
<path fill="none" stroke="black" d="M1364.59,-224.508C1340.03,-195.347 1291.86,-138.174 1263.46,-104.455"/>
<polygon fill="black" stroke="black" points="1265.81,-101.812 1256.69,-96.4195 1260.45,-106.322 1265.81,-101.812"/>
</g>
<!-- Morphisms_isisomorphism_natural_transformation -->
<g id="node6" class="node"><title>Morphisms_isisomorphism_natural_transformation</title>
<a xlink:href="Morphisms.html#isisomorphism_natural_transformation" xlink:title="isisomorphism_natural_transformation">
<ellipse fill="#f070d1" stroke="black" cx="1100" cy="-589.796" rx="198.216" ry="18.3848"/>
<ellipse fill="none" stroke="black" cx="1100" cy="-589.796" rx="202.206" ry="22.3848"/>
<ellipse fill="none" stroke="black" cx="1100" cy="-589.796" rx="206.197" ry="26.3848"/>
<text text-anchor="middle" x="1100" y="-586.196" font-family="Times Roman,serif" font-size="14.00">isisomorphism_natural_transformation</text>
</a>
</g>
<!-- Morphisms_isisomorphism_natural_transformation_subproof0 -->
<g id="node7" class="node"><title>Morphisms_isisomorphism_natural_transformation_subproof0</title>
<a xlink:href="Morphisms.html#isisomorphism_natural_transformation_subproof0" xlink:title="isisomorphism_natural_transformation_subproof0">
<ellipse fill="#facdef" stroke="black" cx="579" cy="-406.796" rx="251.937" ry="18.3848"/>
<text text-anchor="middle" x="579" y="-403.196" font-family="Times Roman,serif" font-size="14.00">isisomorphism_natural_transformation_subproof0</text>
</a>
</g>
<!-- Morphisms_isisomorphism_natural_transformation&#45;&gt;Morphisms_isisomorphism_natural_transformation_subproof0 -->
<g id="edge12" class="edge"><title>Morphisms_isisomorphism_natural_transformation&#45;&gt;Morphisms_isisomorphism_natural_transformation_subproof0</title>
<path fill="none" stroke="black" d="M1028.92,-564.83C926.083,-528.708 737.507,-462.472 640.39,-428.36"/>
<polygon fill="black" stroke="black" points="641.31,-424.973 630.715,-424.961 638.99,-431.577 641.31,-424.973"/>
</g>
<!-- Morphisms_isisomorphism_natural_transformation_subproof -->
<g id="node8" class="node"><title>Morphisms_isisomorphism_natural_transformation_subproof</title>
<a xlink:href="Morphisms.html#isisomorphism_natural_transformation_subproof" xlink:title="isisomorphism_natural_transformation_subproof">
<ellipse fill="#facdef" stroke="black" cx="1095" cy="-406.796" rx="246.073" ry="18.3848"/>
<text text-anchor="middle" x="1095" y="-403.196" font-family="Times Roman,serif" font-size="14.00">isisomorphism_natural_transformation_subproof</text>
</a>
</g>
<!-- Morphisms_isisomorphism_natural_transformation&#45;&gt;Morphisms_isisomorphism_natural_transformation_subproof -->
<g id="edge14" class="edge"><title>Morphisms_isisomorphism_natural_transformation&#45;&gt;Morphisms_isisomorphism_natural_transformation_subproof</title>
<path fill="none" stroke="black" d="M1099.27,-563.187C1098.34,-529.139 1096.74,-470.393 1095.78,-435.408"/>
<polygon fill="black" stroke="black" points="1099.28,-435.268 1095.51,-425.367 1092.28,-435.459 1099.28,-435.268"/>
</g>
<!-- Morphisms_inverse -->
<g id="node9" class="node"><title>Morphisms_inverse</title>
<a xlink:href="Morphisms.html#inverse" xlink:title="inverse">
<ellipse fill="#f070d1" stroke="black" cx="719" cy="-242.796" rx="46.8775" ry="18.3848"/>
<text text-anchor="middle" x="719" y="-239.196" font-family="Times Roman,serif" font-size="14.00">inverse</text>
</a>
</g>
<!-- Morphisms_isisomorphism_natural_transformation_subproof0&#45;&gt;Morphisms_inverse -->
<g id="edge16" class="edge"><title>Morphisms_isisomorphism_natural_transformation_subproof0&#45;&gt;Morphisms_inverse</title>
<path fill="none" stroke="black" d="M594.788,-388.302C619.839,-358.957 668.758,-301.651 697.157,-268.384"/>
<polygon fill="black" stroke="black" points="700.077,-270.354 703.907,-260.476 694.753,-265.81 700.077,-270.354"/>
</g>
<!-- Morphisms_isisomorphism_natural_transformation_subproof&#45;&gt;Morphisms_inverse -->
<g id="edge18" class="edge"><title>Morphisms_isisomorphism_natural_transformation_subproof&#45;&gt;Morphisms_inverse</title>
<path fill="none" stroke="black" d="M1052.96,-388.461C980.245,-356.744 831.874,-292.029 759.932,-260.65"/>
<polygon fill="black" stroke="black" points="761.283,-257.42 750.717,-256.631 758.484,-263.837 761.283,-257.42"/>
</g>
<!-- Morphisms_inverse_subproof0 -->
<g id="node10" class="node"><title>Morphisms_inverse_subproof0</title>
<a xlink:href="Morphisms.html#inverse_subproof0" xlink:title="inverse_subproof0">
<ellipse fill="#facdef" stroke="black" cx="612" cy="-77.7964" rx="101.116" ry="18.3848"/>
<text text-anchor="middle" x="612" y="-74.1964" font-family="Times Roman,serif" font-size="14.00">inverse_subproof0</text>
</a>
</g>
<!-- Morphisms_inverse&#45;&gt;Morphisms_inverse_subproof0 -->
<g id="edge20" class="edge"><title>Morphisms_inverse&#45;&gt;Morphisms_inverse_subproof0</title>
<path fill="none" stroke="black" d="M707.345,-224.824C688.551,-195.842 651.439,-138.613 629.47,-104.736"/>
<polygon fill="black" stroke="black" points="632.344,-102.736 623.967,-96.2499 626.471,-106.545 632.344,-102.736"/>
</g>
<!-- Morphisms_inverse_subproof -->
<g id="node11" class="node"><title>Morphisms_inverse_subproof</title>
<a xlink:href="Morphisms.html#inverse_subproof" xlink:title="inverse_subproof">
<ellipse fill="#facdef" stroke="black" cx="826" cy="-77.7964" rx="94.7523" ry="18.3848"/>
<text text-anchor="middle" x="826" y="-74.1964" font-family="Times Roman,serif" font-size="14.00">inverse_subproof</text>
</a>
</g>
<!-- Morphisms_inverse&#45;&gt;Morphisms_inverse_subproof -->
<g id="edge22" class="edge"><title>Morphisms_inverse&#45;&gt;Morphisms_inverse_subproof</title>
<path fill="none" stroke="black" d="M730.655,-224.824C749.449,-195.842 786.561,-138.613 808.53,-104.736"/>
<polygon fill="black" stroke="black" points="811.529,-106.545 814.033,-96.2499 805.656,-102.736 811.529,-106.545"/>
</g>
<!-- Morphisms_isisomorphism_components_of -->
<g id="node12" class="node"><title>Morphisms_isisomorphism_components_of</title>
<a xlink:href="Morphisms.html#isisomorphism_components_of" xlink:title="isisomorphism_components_of">
<ellipse fill="#f070d1" stroke="black" cx="710" cy="-589.796" rx="157.916" ry="18.3848"/>
<ellipse fill="none" stroke="black" cx="710" cy="-589.796" rx="161.904" ry="22.3848"/>
<ellipse fill="none" stroke="black" cx="710" cy="-589.796" rx="165.892" ry="26.3848"/>
<text text-anchor="middle" x="710" y="-586.196" font-family="Times Roman,serif" font-size="14.00">isisomorphism_components_of</text>
</a>
</g>
<!-- Morphisms_natural_transformation_of_natural_isomorphism -->
<g id="node13" class="node"><title>Morphisms_natural_transformation_of_natural_isomorphism</title>
<a xlink:href="Morphisms.html#natural_transformation_of_natural_isomorphism" xlink:title="natural_transformation_of_natural_isomorphism">
<ellipse fill="#f070d1" stroke="black" cx="271" cy="-589.796" rx="246.78" ry="18.3848"/>
<ellipse fill="none" stroke="black" cx="271" cy="-589.796" rx="250.78" ry="22.3848"/>
<ellipse fill="none" stroke="black" cx="271" cy="-589.796" rx="254.78" ry="26.3848"/>
<text text-anchor="middle" x="271" y="-586.196" font-family="Times Roman,serif" font-size="14.00">natural_transformation_of_natural_isomorphism</text>
</a>
</g>
<!-- Morphisms_NaturalIsomorphism -->
<g id="node14" class="node"><title>Morphisms_NaturalIsomorphism</title>
<a xlink:href="Morphisms.html#NaturalIsomorphism" xlink:title="NaturalIsomorphism">
<ellipse fill="#f070d1" stroke="black" cx="200" cy="-406.796" rx="109.101" ry="18.3848"/>
<text text-anchor="middle" x="200" y="-403.196" font-family="Times Roman,serif" font-size="14.00">NaturalIsomorphism</text>
</a>
</g>
<!-- Morphisms_natural_transformation_of_natural_isomorphism&#45;&gt;Morphisms_NaturalIsomorphism -->
<g id="edge24" class="edge"><title>Morphisms_natural_transformation_of_natural_isomorphism&#45;&gt;Morphisms_NaturalIsomorphism</title>
<path fill="none" stroke="black" d="M260.676,-563.187C247.409,-528.992 224.477,-469.886 210.926,-434.957"/>
<polygon fill="black" stroke="black" points="214.085,-433.424 207.205,-425.367 207.559,-435.956 214.085,-433.424"/>
</g>
</g>
</svg>
