<?xml version="1.0" encoding="UTF-8" standalone="no"?>
<!DOCTYPE svg PUBLIC "-//W3C//DTD SVG 1.1//EN"
 "http://www.w3.org/Graphics/SVG/1.1/DTD/svg11.dtd">
<!-- Generated by graphviz version 2.26.3 (20100126.1600)
 -->
<!-- Title: HoTT_categories_Grothendieck Pages: 1 -->
<svg width="2154pt" height="1081pt"
 viewBox="0.00 0.00 2154.00 1081.00" xmlns="http://www.w3.org/2000/svg" xmlns:xlink="http://www.w3.org/1999/xlink">
<g id="graph1" class="graph" transform="scale(1 1) rotate(0) translate(4 1077)">
<title>HoTT_categories_Grothendieck</title>
<polygon fill="white" stroke="white" points="-4,5 -4,-1077 2151,-1077 2151,5 -4,5"/>
<g id="graph2" class="cluster"><title>cluster_PseudofunctorToCat</title>
<polygon fill="#ffffc3" stroke="black" points="836,-19.5982 836,-798.626 2138,-798.626 2138,-19.5982 836,-19.5982"/>
<text text-anchor="middle" x="913.5" y="-782.026" font-family="Times Roman,serif" font-size="14.00">PseudofunctorToCat</text>
</g>
<g id="graph3" class="cluster"><title>cluster_ToCat</title>
<polygon fill="#ffffc3" stroke="black" points="1526,-818.224 1526,-1053.4 1756,-1053.4 1756,-818.224 1526,-818.224"/>
<text text-anchor="middle" x="1554" y="-1036.8" font-family="Times Roman,serif" font-size="14.00">ToCat</text>
</g>
<g id="graph4" class="cluster"><title>cluster_ToSet</title>
<polygon fill="#ffffc3" stroke="black" points="8,-19.5982 8,-1053.4 828,-1053.4 828,-19.5982 8,-19.5982"/>
<text text-anchor="middle" x="35.5" y="-1036.8" font-family="Times Roman,serif" font-size="14.00">ToSet</text>
</g>
<!-- ToSet_pr1 -->
<g id="node1" class="node"><title>ToSet_pr1</title>
<a xlink:href="ToSet.html#pr1" xlink:title="pr1">
<ellipse fill="#f070d1" stroke="black" cx="590" cy="-903.598" rx="27.8968" ry="18.3848"/>
<ellipse fill="none" stroke="black" cx="590" cy="-903.598" rx="31.842" ry="22.3848"/>
<ellipse fill="none" stroke="black" cx="590" cy="-903.598" rx="35.7872" ry="26.3848"/>
<text text-anchor="middle" x="590" y="-899.998" font-family="Times Roman,serif" font-size="14.00">pr1</text>
</a>
</g>
<!-- ToSet_category -->
<g id="node2" class="node"><title>ToSet_category</title>
<a xlink:href="ToSet.html#category" xlink:title="category">
<ellipse fill="#f070d1" stroke="black" cx="541" cy="-649.598" rx="53.9477" ry="18.3848"/>
<text text-anchor="middle" x="541" y="-645.998" font-family="Times Roman,serif" font-size="14.00">category</text>
</a>
</g>
<!-- ToSet_pr1&#45;&gt;ToSet_category -->
<g id="edge2" class="edge"><title>ToSet_pr1&#45;&gt;ToSet_category</title>
<path fill="none" stroke="black" d="M584.849,-876.896C575.555,-828.719 556.062,-727.672 546.511,-678.166"/>
<polygon fill="black" stroke="black" points="549.908,-677.298 544.577,-668.142 543.035,-678.624 549.908,-677.298"/>
</g>
<!-- ToSet_category_subproof1 -->
<g id="node3" class="node"><title>ToSet_category_subproof1</title>
<a xlink:href="ToSet.html#category_subproof1" xlink:title="category_subproof1">
<ellipse fill="#facdef" stroke="black" cx="261" cy="-448.598" rx="106.98" ry="18.3848"/>
<text text-anchor="middle" x="261" y="-444.998" font-family="Times Roman,serif" font-size="14.00">category_subproof1</text>
</a>
</g>
<!-- ToSet_category&#45;&gt;ToSet_category_subproof1 -->
<g id="edge4" class="edge"><title>ToSet_category&#45;&gt;ToSet_category_subproof1</title>
<path fill="none" stroke="black" d="M517.609,-632.807C467.977,-597.178 351.973,-513.903 294.496,-472.644"/>
<polygon fill="black" stroke="black" points="296.289,-469.622 286.124,-466.634 292.207,-475.309 296.289,-469.622"/>
</g>
<!-- ToSet_category_subproof0 -->
<g id="node4" class="node"><title>ToSet_category_subproof0</title>
<a xlink:href="ToSet.html#category_subproof0" xlink:title="category_subproof0">
<ellipse fill="#facdef" stroke="black" cx="493" cy="-448.598" rx="106.98" ry="18.3848"/>
<text text-anchor="middle" x="493" y="-444.998" font-family="Times Roman,serif" font-size="14.00">category_subproof0</text>
</a>
</g>
<!-- ToSet_category&#45;&gt;ToSet_category_subproof0 -->
<g id="edge6" class="edge"><title>ToSet_category&#45;&gt;ToSet_category_subproof0</title>
<path fill="none" stroke="black" d="M536.57,-631.049C528.141,-595.749 509.744,-518.712 499.764,-476.921"/>
<polygon fill="black" stroke="black" points="503.146,-476.016 497.419,-467.103 496.338,-477.642 503.146,-476.016"/>
</g>
<!-- ToSet_category_subproof -->
<g id="node5" class="node"><title>ToSet_category_subproof</title>
<a xlink:href="ToSet.html#category_subproof" xlink:title="category_subproof">
<ellipse fill="#facdef" stroke="black" cx="719" cy="-448.598" rx="101.116" ry="18.3848"/>
<text text-anchor="middle" x="719" y="-444.998" font-family="Times Roman,serif" font-size="14.00">category_subproof</text>
</a>
</g>
<!-- ToSet_category&#45;&gt;ToSet_category_subproof -->
<g id="edge8" class="edge"><title>ToSet_category&#45;&gt;ToSet_category_subproof</title>
<path fill="none" stroke="black" d="M556.796,-631.761C588.37,-596.108 659.381,-515.921 696.078,-474.482"/>
<polygon fill="black" stroke="black" points="698.716,-476.782 702.726,-466.975 693.476,-472.141 698.716,-476.782"/>
</g>
<!-- ToSet_identity -->
<g id="node6" class="node"><title>ToSet_identity</title>
<a xlink:href="ToSet.html#identity" xlink:title="identity">
<ellipse fill="#f070d1" stroke="black" cx="304" cy="-266.598" rx="48.9975" ry="18.3848"/>
<text text-anchor="middle" x="304" y="-262.998" font-family="Times Roman,serif" font-size="14.00">identity</text>
</a>
</g>
<!-- ToSet_category_subproof1&#45;&gt;ToSet_identity -->
<g id="edge10" class="edge"><title>ToSet_category_subproof1&#45;&gt;ToSet_identity</title>
<path fill="none" stroke="black" d="M265.44,-429.806C272.991,-397.845 288.379,-332.716 297.263,-295.113"/>
<polygon fill="black" stroke="black" points="300.691,-295.825 299.584,-285.288 293.879,-294.215 300.691,-295.825"/>
</g>
<!-- ToSet_compose -->
<g id="node8" class="node"><title>ToSet_compose</title>
<a xlink:href="ToSet.html#compose" xlink:title="compose">
<ellipse fill="#f070d1" stroke="black" cx="493" cy="-266.598" rx="53.2379" ry="18.3848"/>
<text text-anchor="middle" x="493" y="-262.998" font-family="Times Roman,serif" font-size="14.00">compose</text>
</a>
</g>
<!-- ToSet_category_subproof1&#45;&gt;ToSet_compose -->
<g id="edge12" class="edge"><title>ToSet_category_subproof1&#45;&gt;ToSet_compose</title>
<path fill="none" stroke="black" d="M284.093,-430.482C326.477,-397.233 416.614,-326.521 463.415,-289.807"/>
<polygon fill="black" stroke="black" points="465.649,-292.503 471.356,-283.577 461.328,-286.996 465.649,-292.503"/>
</g>
<!-- ToSet_category_subproof0&#45;&gt;ToSet_identity -->
<g id="edge14" class="edge"><title>ToSet_category_subproof0&#45;&gt;ToSet_identity</title>
<path fill="none" stroke="black" d="M473.838,-430.145C439.668,-397.241 368.208,-328.428 329.774,-291.418"/>
<polygon fill="black" stroke="black" points="331.73,-288.442 322.099,-284.027 326.875,-293.485 331.73,-288.442"/>
</g>
<!-- ToSet_category_subproof0&#45;&gt;ToSet_compose -->
<g id="edge16" class="edge"><title>ToSet_category_subproof0&#45;&gt;ToSet_compose</title>
<path fill="none" stroke="black" d="M493,-429.806C493,-397.982 493,-333.272 493,-295.597"/>
<polygon fill="black" stroke="black" points="496.5,-295.288 493,-285.288 489.5,-295.288 496.5,-295.288"/>
</g>
<!-- ToSet_category_subproof&#45;&gt;ToSet_compose -->
<g id="edge18" class="edge"><title>ToSet_category_subproof&#45;&gt;ToSet_compose</title>
<path fill="none" stroke="black" d="M696.504,-430.482C655.302,-397.302 567.773,-326.814 522.104,-290.036"/>
<polygon fill="black" stroke="black" points="524.068,-287.123 514.084,-283.577 519.677,-292.575 524.068,-287.123"/>
</g>
<!-- ToSet_identity_H -->
<g id="node7" class="node"><title>ToSet_identity_H</title>
<a xlink:href="ToSet.html#identity_H" xlink:title="identity_H">
<ellipse fill="#f070d1" stroke="black" cx="304" cy="-85.5982" rx="62.2254" ry="18.3848"/>
<text text-anchor="middle" x="304" y="-81.9982" font-family="Times Roman,serif" font-size="14.00">identity_H</text>
</a>
</g>
<!-- ToSet_identity&#45;&gt;ToSet_identity_H -->
<g id="edge20" class="edge"><title>ToSet_identity&#45;&gt;ToSet_identity_H</title>
<path fill="none" stroke="black" d="M304,-247.91C304,-216.26 304,-151.906 304,-114.437"/>
<polygon fill="black" stroke="black" points="307.5,-114.185 304,-104.185 300.5,-114.185 307.5,-114.185"/>
</g>
<!-- ToSet_compose_H -->
<g id="node9" class="node"><title>ToSet_compose_H</title>
<a xlink:href="ToSet.html#compose_H" xlink:title="compose_H">
<ellipse fill="#f070d1" stroke="black" cx="493" cy="-85.5982" rx="65.9683" ry="18.3848"/>
<text text-anchor="middle" x="493" y="-81.9982" font-family="Times Roman,serif" font-size="14.00">compose_H</text>
</a>
</g>
<!-- ToSet_compose&#45;&gt;ToSet_compose_H -->
<g id="edge22" class="edge"><title>ToSet_compose&#45;&gt;ToSet_compose_H</title>
<path fill="none" stroke="black" d="M493,-247.91C493,-216.26 493,-151.906 493,-114.437"/>
<polygon fill="black" stroke="black" points="496.5,-114.185 493,-104.185 489.5,-114.185 496.5,-114.185"/>
</g>
<!-- ToSet_Pair_rec -->
<g id="node10" class="node"><title>ToSet_Pair_rec</title>
<a xlink:href="ToSet.html#Pair_rec" xlink:title="Pair_rec">
<ellipse fill="#f070d1" stroke="black" cx="478" cy="-903.598" rx="50.2046" ry="18.3848"/>
<ellipse fill="none" stroke="black" cx="478" cy="-903.598" rx="54.2046" ry="22.3848"/>
<ellipse fill="none" stroke="black" cx="478" cy="-903.598" rx="58.2046" ry="26.3848"/>
<text text-anchor="middle" x="478" y="-899.998" font-family="Times Roman,serif" font-size="14.00">Pair_rec</text>
</a>
</g>
<!-- ToSet_Pair_rect -->
<g id="node12" class="node"><title>ToSet_Pair_rect</title>
<a xlink:href="ToSet.html#Pair_rect" xlink:title="Pair_rect">
<ellipse fill="#f070d1" stroke="black" cx="344" cy="-649.598" rx="53.9477" ry="18.3848"/>
<text text-anchor="middle" x="344" y="-645.998" font-family="Times Roman,serif" font-size="14.00">Pair_rect</text>
</a>
</g>
<!-- ToSet_Pair_rec&#45;&gt;ToSet_Pair_rect -->
<g id="edge24" class="edge"><title>ToSet_Pair_rec&#45;&gt;ToSet_Pair_rect</title>
<path fill="none" stroke="black" d="M464.164,-877.372C438.65,-829.009 384.427,-726.229 358.455,-676.999"/>
<polygon fill="black" stroke="black" points="361.416,-675.11 353.655,-667.899 355.225,-678.377 361.416,-675.11"/>
</g>
<!-- ToSet_Pair_ind -->
<g id="node11" class="node"><title>ToSet_Pair_ind</title>
<a xlink:href="ToSet.html#Pair_ind" xlink:title="Pair_ind">
<ellipse fill="#7fffd4" stroke="black" cx="344" cy="-903.598" rx="50.2046" ry="18.3848"/>
<ellipse fill="none" stroke="black" cx="344" cy="-903.598" rx="54.2046" ry="22.3848"/>
<ellipse fill="none" stroke="black" cx="344" cy="-903.598" rx="58.2046" ry="26.3848"/>
<text text-anchor="middle" x="344" y="-899.998" font-family="Times Roman,serif" font-size="14.00">Pair_ind</text>
</a>
</g>
<!-- ToSet_Pair_ind&#45;&gt;ToSet_Pair_rect -->
<g id="edge26" class="edge"><title>ToSet_Pair_ind&#45;&gt;ToSet_Pair_rect</title>
<path fill="none" stroke="black" d="M344,-876.896C344,-828.719 344,-727.672 344,-678.166"/>
<polygon fill="black" stroke="black" points="347.5,-678.142 344,-668.142 340.5,-678.142 347.5,-678.142"/>
</g>
<!-- ToSet_Build_Pair -->
<g id="node15" class="node"><title>ToSet_Build_Pair</title>
<a xlink:href="ToSet.html#Build_Pair" xlink:title="Build_Pair">
<ellipse fill="#7faaff" stroke="black" cx="76" cy="-448.598" rx="60.1041" ry="18.3848"/>
<text text-anchor="middle" x="76" y="-444.998" font-family="Times Roman,serif" font-size="14.00">Build_Pair</text>
</a>
</g>
<!-- ToSet_Pair_rect&#45;&gt;ToSet_Build_Pair -->
<g id="edge28" class="edge"><title>ToSet_Pair_rect&#45;&gt;ToSet_Build_Pair</title>
<path fill="none" stroke="black" d="M321.15,-632.461C273.209,-596.505 162.05,-513.136 107.434,-472.174"/>
<polygon fill="black" stroke="black" points="109.272,-469.177 99.1724,-465.977 105.072,-474.777 109.272,-469.177"/>
</g>
<!-- ToSet_x -->
<g id="node13" class="node"><title>ToSet_x</title>
<a xlink:href="ToSet.html#x" xlink:title="x">
<ellipse fill="#f070d1" stroke="black" cx="233" cy="-903.598" rx="27" ry="18.3848"/>
<ellipse fill="none" stroke="black" cx="233" cy="-903.598" rx="31" ry="22.3848"/>
<ellipse fill="none" stroke="black" cx="233" cy="-903.598" rx="35" ry="26.3848"/>
<text text-anchor="middle" x="233" y="-899.998" font-family="Times Roman,serif" font-size="14.00">x</text>
</a>
</g>
<!-- ToSet_c -->
<g id="node14" class="node"><title>ToSet_c</title>
<a xlink:href="ToSet.html#c" xlink:title="c">
<ellipse fill="#f070d1" stroke="black" cx="145" cy="-903.598" rx="27" ry="18.3848"/>
<ellipse fill="none" stroke="black" cx="145" cy="-903.598" rx="31" ry="22.3848"/>
<ellipse fill="none" stroke="black" cx="145" cy="-903.598" rx="35" ry="26.3848"/>
<text text-anchor="middle" x="145" y="-899.998" font-family="Times Roman,serif" font-size="14.00">c</text>
</a>
</g>
<!-- ToSet_Pair -->
<g id="node16" class="node"><title>ToSet_Pair</title>
<a xlink:href="ToSet.html#Pair" xlink:title="Pair">
<ellipse fill="#e2cdfa" stroke="black" cx="54" cy="-903.598" rx="30.0107" ry="18.3848"/>
<ellipse fill="none" stroke="black" cx="54" cy="-903.598" rx="33.9588" ry="22.3848"/>
<ellipse fill="none" stroke="black" cx="54" cy="-903.598" rx="37.9068" ry="26.3848"/>
<text text-anchor="middle" x="54" y="-899.998" font-family="Times Roman,serif" font-size="14.00">Pair</text>
</a>
</g>
<!-- ToCat_pr1 -->
<g id="node17" class="node"><title>ToCat_pr1</title>
<a xlink:href="ToCat.html#pr1" xlink:title="pr1">
<ellipse fill="#f070d1" stroke="black" cx="1570" cy="-903.598" rx="27.8968" ry="18.3848"/>
<ellipse fill="none" stroke="black" cx="1570" cy="-903.598" rx="31.842" ry="22.3848"/>
<ellipse fill="none" stroke="black" cx="1570" cy="-903.598" rx="35.7872" ry="26.3848"/>
<text text-anchor="middle" x="1570" y="-899.998" font-family="Times Roman,serif" font-size="14.00">pr1</text>
</a>
</g>
<!-- PseudofunctorToCat_pr1 -->
<g id="node19" class="node"><title>PseudofunctorToCat_pr1</title>
<a xlink:href="PseudofunctorToCat.html#pr1" xlink:title="pr1">
<ellipse fill="#f070d1" stroke="black" cx="1585" cy="-649.598" rx="27.7881" ry="18.3848"/>
<text text-anchor="middle" x="1585" y="-645.998" font-family="Times Roman,serif" font-size="14.00">pr1</text>
</a>
</g>
<!-- ToCat_pr1&#45;&gt;PseudofunctorToCat_pr1 -->
<g id="edge30" class="edge"><title>ToCat_pr1&#45;&gt;PseudofunctorToCat_pr1</title>
<path fill="none" stroke="black" d="M1571.58,-876.896C1574.42,-828.719 1580.39,-727.672 1583.31,-678.166"/>
<polygon fill="black" stroke="black" points="1586.81,-678.331 1583.9,-668.142 1579.82,-677.918 1586.81,-678.331"/>
</g>
<!-- ToCat_category -->
<g id="node18" class="node"><title>ToCat_category</title>
<a xlink:href="ToCat.html#category" xlink:title="category">
<ellipse fill="#f070d1" stroke="black" cx="1686" cy="-903.598" rx="54.0116" ry="18.3848"/>
<ellipse fill="none" stroke="black" cx="1686" cy="-903.598" rx="57.9796" ry="22.3848"/>
<ellipse fill="none" stroke="black" cx="1686" cy="-903.598" rx="61.9476" ry="26.3848"/>
<text text-anchor="middle" x="1686" y="-899.998" font-family="Times Roman,serif" font-size="14.00">category</text>
</a>
</g>
<!-- PseudofunctorToCat_category -->
<g id="node20" class="node"><title>PseudofunctorToCat_category</title>
<a xlink:href="PseudofunctorToCat.html#category" xlink:title="category">
<ellipse fill="#f070d1" stroke="black" cx="1628" cy="-448.598" rx="53.9477" ry="18.3848"/>
<text text-anchor="middle" x="1628" y="-444.998" font-family="Times Roman,serif" font-size="14.00">category</text>
</a>
</g>
<!-- ToCat_category&#45;&gt;PseudofunctorToCat_category -->
<g id="edge32" class="edge"><title>ToCat_category&#45;&gt;PseudofunctorToCat_category</title>
<path fill="none" stroke="black" d="M1682.59,-876.835C1672.39,-796.802 1642.17,-559.762 1631.66,-477.279"/>
<polygon fill="black" stroke="black" points="1635.1,-476.609 1630.36,-467.132 1628.16,-477.494 1635.1,-476.609"/>
</g>
<!-- PseudofunctorToCat_pr1&#45;&gt;PseudofunctorToCat_category -->
<g id="edge34" class="edge"><title>PseudofunctorToCat_pr1&#45;&gt;PseudofunctorToCat_category</title>
<path fill="none" stroke="black" d="M1588.97,-631.049C1596.52,-595.749 1613,-518.712 1621.94,-476.921"/>
<polygon fill="black" stroke="black" points="1625.37,-477.614 1624.04,-467.103 1618.53,-476.149 1625.37,-477.614"/>
</g>
<!-- PseudofunctorToCat_category_subproof1 -->
<g id="node21" class="node"><title>PseudofunctorToCat_category_subproof1</title>
<a xlink:href="PseudofunctorToCat.html#category_subproof1" xlink:title="category_subproof1">
<ellipse fill="#facdef" stroke="black" cx="1926" cy="-266.598" rx="106.98" ry="18.3848"/>
<text text-anchor="middle" x="1926" y="-262.998" font-family="Times Roman,serif" font-size="14.00">category_subproof1</text>
</a>
</g>
<!-- PseudofunctorToCat_category&#45;&gt;PseudofunctorToCat_category_subproof1 -->
<g id="edge36" class="edge"><title>PseudofunctorToCat_category&#45;&gt;PseudofunctorToCat_category_subproof1</title>
<path fill="none" stroke="black" d="M1654.45,-432.447C1707.39,-400.109 1826.6,-327.308 1887.94,-289.843"/>
<polygon fill="black" stroke="black" points="1889.85,-292.78 1896.56,-284.581 1886.2,-286.806 1889.85,-292.78"/>
</g>
<!-- PseudofunctorToCat_category_subproof0 -->
<g id="node22" class="node"><title>PseudofunctorToCat_category_subproof0</title>
<a xlink:href="PseudofunctorToCat.html#category_subproof0" xlink:title="category_subproof0">
<ellipse fill="#facdef" stroke="black" cx="1234" cy="-266.598" rx="106.98" ry="18.3848"/>
<text text-anchor="middle" x="1234" y="-262.998" font-family="Times Roman,serif" font-size="14.00">category_subproof0</text>
</a>
</g>
<!-- PseudofunctorToCat_category&#45;&gt;PseudofunctorToCat_category_subproof0 -->
<g id="edge38" class="edge"><title>PseudofunctorToCat_category&#45;&gt;PseudofunctorToCat_category_subproof0</title>
<path fill="none" stroke="black" d="M1595.76,-433.704C1526.26,-401.603 1362.1,-325.772 1281.01,-288.313"/>
<polygon fill="black" stroke="black" points="1282.09,-284.956 1271.54,-283.94 1279.15,-291.311 1282.09,-284.956"/>
</g>
<!-- PseudofunctorToCat_category_subproof -->
<g id="node23" class="node"><title>PseudofunctorToCat_category_subproof</title>
<a xlink:href="PseudofunctorToCat.html#category_subproof" xlink:title="category_subproof">
<ellipse fill="#facdef" stroke="black" cx="1460" cy="-266.598" rx="101.116" ry="18.3848"/>
<text text-anchor="middle" x="1460" y="-262.998" font-family="Times Roman,serif" font-size="14.00">category_subproof</text>
</a>
</g>
<!-- PseudofunctorToCat_category&#45;&gt;PseudofunctorToCat_category_subproof -->
<g id="edge40" class="edge"><title>PseudofunctorToCat_category&#45;&gt;PseudofunctorToCat_category_subproof</title>
<path fill="none" stroke="black" d="M1611.59,-430.816C1581.75,-398.499 1518.54,-330.018 1483.91,-292.504"/>
<polygon fill="black" stroke="black" points="1486.33,-289.968 1476.98,-284.994 1481.19,-294.716 1486.33,-289.968"/>
</g>
<!-- PseudofunctorToCat_identity -->
<g id="node27" class="node"><title>PseudofunctorToCat_identity</title>
<a xlink:href="PseudofunctorToCat.html#identity" xlink:title="identity">
<ellipse fill="#f070d1" stroke="black" cx="1628" cy="-266.598" rx="48.9975" ry="18.3848"/>
<text text-anchor="middle" x="1628" y="-262.998" font-family="Times Roman,serif" font-size="14.00">identity</text>
</a>
</g>
<!-- PseudofunctorToCat_category&#45;&gt;PseudofunctorToCat_identity -->
<g id="edge42" class="edge"><title>PseudofunctorToCat_category&#45;&gt;PseudofunctorToCat_identity</title>
<path fill="none" stroke="black" d="M1628,-429.806C1628,-397.982 1628,-333.272 1628,-295.597"/>
<polygon fill="black" stroke="black" points="1631.5,-295.288 1628,-285.288 1624.5,-295.288 1631.5,-295.288"/>
</g>
<!-- PseudofunctorToCat_compose -->
<g id="node28" class="node"><title>PseudofunctorToCat_compose</title>
<a xlink:href="PseudofunctorToCat.html#compose" xlink:title="compose">
<ellipse fill="#f070d1" stroke="black" cx="1748" cy="-266.598" rx="53.2379" ry="18.3848"/>
<text text-anchor="middle" x="1748" y="-262.998" font-family="Times Roman,serif" font-size="14.00">compose</text>
</a>
</g>
<!-- PseudofunctorToCat_category&#45;&gt;PseudofunctorToCat_compose -->
<g id="edge44" class="edge"><title>PseudofunctorToCat_category&#45;&gt;PseudofunctorToCat_compose</title>
<path fill="none" stroke="black" d="M1639.94,-430.482C1661.24,-398.185 1705.84,-330.542 1730.56,-293.045"/>
<polygon fill="black" stroke="black" points="1733.52,-294.916 1736.1,-284.641 1727.68,-291.063 1733.52,-294.916"/>
</g>
<!-- PseudofunctorToCat_pseudofunctor_to_cat_right_identity_helper -->
<g id="node24" class="node"><title>PseudofunctorToCat_pseudofunctor_to_cat_right_identity_helper</title>
<a xlink:href="PseudofunctorToCat.html#pseudofunctor_to_cat_right_identity_helper" xlink:title="pseudofunctor_to_cat_right_identity_helper">
<ellipse fill="#facdef" stroke="black" cx="1906" cy="-85.5982" rx="224.153" ry="18.3848"/>
<text text-anchor="middle" x="1906" y="-81.9982" font-family="Times Roman,serif" font-size="14.00">pseudofunctor_to_cat_right_identity_helper</text>
</a>
</g>
<!-- PseudofunctorToCat_category_subproof1&#45;&gt;PseudofunctorToCat_pseudofunctor_to_cat_right_identity_helper -->
<g id="edge46" class="edge"><title>PseudofunctorToCat_category_subproof1&#45;&gt;PseudofunctorToCat_pseudofunctor_to_cat_right_identity_helper</title>
<path fill="none" stroke="black" d="M1923.93,-247.91C1920.44,-216.26 1913.33,-151.906 1909.19,-114.437"/>
<polygon fill="black" stroke="black" points="1912.63,-113.74 1908.05,-104.185 1905.67,-114.509 1912.63,-113.74"/>
</g>
<!-- PseudofunctorToCat_pseudofunctor_to_cat_left_identity_helper -->
<g id="node25" class="node"><title>PseudofunctorToCat_pseudofunctor_to_cat_left_identity_helper</title>
<a xlink:href="PseudofunctorToCat.html#pseudofunctor_to_cat_left_identity_helper" xlink:title="pseudofunctor_to_cat_left_identity_helper">
<ellipse fill="#facdef" stroke="black" cx="1061" cy="-85.5982" rx="217.082" ry="18.3848"/>
<text text-anchor="middle" x="1061" y="-81.9982" font-family="Times Roman,serif" font-size="14.00">pseudofunctor_to_cat_left_identity_helper</text>
</a>
</g>
<!-- PseudofunctorToCat_category_subproof0&#45;&gt;PseudofunctorToCat_pseudofunctor_to_cat_left_identity_helper -->
<g id="edge48" class="edge"><title>PseudofunctorToCat_category_subproof0&#45;&gt;PseudofunctorToCat_pseudofunctor_to_cat_left_identity_helper</title>
<path fill="none" stroke="black" d="M1216.46,-248.247C1185.58,-215.943 1121.44,-148.837 1085.96,-111.712"/>
<polygon fill="black" stroke="black" points="1088.29,-109.079 1078.85,-104.269 1083.22,-113.916 1088.29,-109.079"/>
</g>
<!-- PseudofunctorToCat_pseudofunctor_to_cat_assoc_helper -->
<g id="node26" class="node"><title>PseudofunctorToCat_pseudofunctor_to_cat_assoc_helper</title>
<a xlink:href="PseudofunctorToCat.html#pseudofunctor_to_cat_assoc_helper" xlink:title="pseudofunctor_to_cat_assoc_helper">
<ellipse fill="#facdef" stroke="black" cx="1480" cy="-85.5982" rx="183.848" ry="18.3848"/>
<text text-anchor="middle" x="1480" y="-81.9982" font-family="Times Roman,serif" font-size="14.00">pseudofunctor_to_cat_assoc_helper</text>
</a>
</g>
<!-- PseudofunctorToCat_category_subproof&#45;&gt;PseudofunctorToCat_pseudofunctor_to_cat_assoc_helper -->
<g id="edge50" class="edge"><title>PseudofunctorToCat_category_subproof&#45;&gt;PseudofunctorToCat_pseudofunctor_to_cat_assoc_helper</title>
<path fill="none" stroke="black" d="M1462.07,-247.91C1465.56,-216.26 1472.67,-151.906 1476.81,-114.437"/>
<polygon fill="black" stroke="black" points="1480.33,-114.509 1477.95,-104.185 1473.37,-113.74 1480.33,-114.509"/>
</g>
<!-- PseudofunctorToCat_Pair_rec -->
<g id="node29" class="node"><title>PseudofunctorToCat_Pair_rec</title>
<a xlink:href="PseudofunctorToCat.html#Pair_rec" xlink:title="Pair_rec">
<ellipse fill="#f070d1" stroke="black" cx="1306" cy="-649.598" rx="50.2046" ry="18.3848"/>
<ellipse fill="none" stroke="black" cx="1306" cy="-649.598" rx="54.2046" ry="22.3848"/>
<ellipse fill="none" stroke="black" cx="1306" cy="-649.598" rx="58.2046" ry="26.3848"/>
<text text-anchor="middle" x="1306" y="-645.998" font-family="Times Roman,serif" font-size="14.00">Pair_rec</text>
</a>
</g>
<!-- PseudofunctorToCat_Pair_rect -->
<g id="node31" class="node"><title>PseudofunctorToCat_Pair_rect</title>
<a xlink:href="PseudofunctorToCat.html#Pair_rect" xlink:title="Pair_rect">
<ellipse fill="#f070d1" stroke="black" cx="1172" cy="-448.598" rx="53.9477" ry="18.3848"/>
<text text-anchor="middle" x="1172" y="-444.998" font-family="Times Roman,serif" font-size="14.00">Pair_rect</text>
</a>
</g>
<!-- PseudofunctorToCat_Pair_rec&#45;&gt;PseudofunctorToCat_Pair_rect -->
<g id="edge52" class="edge"><title>PseudofunctorToCat_Pair_rec&#45;&gt;PseudofunctorToCat_Pair_rect</title>
<path fill="none" stroke="black" d="M1289.03,-624.141C1263.6,-586.001 1215.84,-514.357 1189.89,-475.429"/>
<polygon fill="black" stroke="black" points="1192.55,-473.111 1184.09,-466.732 1186.72,-476.994 1192.55,-473.111"/>
</g>
<!-- PseudofunctorToCat_Pair_ind -->
<g id="node30" class="node"><title>PseudofunctorToCat_Pair_ind</title>
<a xlink:href="PseudofunctorToCat.html#Pair_ind" xlink:title="Pair_ind">
<ellipse fill="#7fffd4" stroke="black" cx="1172" cy="-649.598" rx="50.2046" ry="18.3848"/>
<ellipse fill="none" stroke="black" cx="1172" cy="-649.598" rx="54.2046" ry="22.3848"/>
<ellipse fill="none" stroke="black" cx="1172" cy="-649.598" rx="58.2046" ry="26.3848"/>
<text text-anchor="middle" x="1172" y="-645.998" font-family="Times Roman,serif" font-size="14.00">Pair_ind</text>
</a>
</g>
<!-- PseudofunctorToCat_Pair_ind&#45;&gt;PseudofunctorToCat_Pair_rect -->
<g id="edge54" class="edge"><title>PseudofunctorToCat_Pair_ind&#45;&gt;PseudofunctorToCat_Pair_rect</title>
<path fill="none" stroke="black" d="M1172,-622.907C1172,-585.131 1172,-516.348 1172,-477.437"/>
<polygon fill="black" stroke="black" points="1175.5,-477.304 1172,-467.304 1168.5,-477.304 1175.5,-477.304"/>
</g>
<!-- PseudofunctorToCat_Build_Pair -->
<g id="node34" class="node"><title>PseudofunctorToCat_Build_Pair</title>
<a xlink:href="PseudofunctorToCat.html#Build_Pair" xlink:title="Build_Pair">
<ellipse fill="#7faaff" stroke="black" cx="1049" cy="-266.598" rx="60.1041" ry="18.3848"/>
<text text-anchor="middle" x="1049" y="-262.998" font-family="Times Roman,serif" font-size="14.00">Build_Pair</text>
</a>
</g>
<!-- PseudofunctorToCat_Pair_rect&#45;&gt;PseudofunctorToCat_Build_Pair -->
<g id="edge56" class="edge"><title>PseudofunctorToCat_Pair_rect&#45;&gt;PseudofunctorToCat_Build_Pair</title>
<path fill="none" stroke="black" d="M1159.76,-430.482C1137.99,-398.269 1092.45,-330.89 1067.07,-293.335"/>
<polygon fill="black" stroke="black" points="1069.88,-291.237 1061.38,-284.911 1064.08,-295.156 1069.88,-291.237"/>
</g>
<!-- PseudofunctorToCat_x -->
<g id="node32" class="node"><title>PseudofunctorToCat_x</title>
<a xlink:href="PseudofunctorToCat.html#x" xlink:title="x">
<ellipse fill="#f070d1" stroke="black" cx="1061" cy="-649.598" rx="27" ry="18.3848"/>
<ellipse fill="none" stroke="black" cx="1061" cy="-649.598" rx="31" ry="22.3848"/>
<ellipse fill="none" stroke="black" cx="1061" cy="-649.598" rx="35" ry="26.3848"/>
<text text-anchor="middle" x="1061" y="-645.998" font-family="Times Roman,serif" font-size="14.00">x</text>
</a>
</g>
<!-- PseudofunctorToCat_c -->
<g id="node33" class="node"><title>PseudofunctorToCat_c</title>
<a xlink:href="PseudofunctorToCat.html#c" xlink:title="c">
<ellipse fill="#f070d1" stroke="black" cx="973" cy="-649.598" rx="27" ry="18.3848"/>
<ellipse fill="none" stroke="black" cx="973" cy="-649.598" rx="31" ry="22.3848"/>
<ellipse fill="none" stroke="black" cx="973" cy="-649.598" rx="35" ry="26.3848"/>
<text text-anchor="middle" x="973" y="-645.998" font-family="Times Roman,serif" font-size="14.00">c</text>
</a>
</g>
<!-- PseudofunctorToCat_Pair -->
<g id="node35" class="node"><title>PseudofunctorToCat_Pair</title>
<a xlink:href="PseudofunctorToCat.html#Pair" xlink:title="Pair">
<ellipse fill="#e2cdfa" stroke="black" cx="882" cy="-649.598" rx="30.0107" ry="18.3848"/>
<ellipse fill="none" stroke="black" cx="882" cy="-649.598" rx="33.9588" ry="22.3848"/>
<ellipse fill="none" stroke="black" cx="882" cy="-649.598" rx="37.9068" ry="26.3848"/>
<text text-anchor="middle" x="882" y="-645.998" font-family="Times Roman,serif" font-size="14.00">Pair</text>
</a>
</g>
</g>
</svg>
