<?xml version="1.0" encoding="UTF-8" standalone="no"?>
<!DOCTYPE svg PUBLIC "-//W3C//DTD SVG 1.1//EN"
 "http://www.w3.org/Graphics/SVG/1.1/DTD/svg11.dtd">
<!-- Generated by graphviz version 2.39.20141222.0545 (20141222.0545)
 -->
<!-- Title: HoTT_hit_Coeq Pages: 1 -->
<svg width="1636pt" height="822pt"
 viewBox="0.00 0.00 1636.00 822.00" xmlns="http://www.w3.org/2000/svg" xmlns:xlink="http://www.w3.org/1999/xlink">
<g id="graph0" class="graph" transform="scale(1 1) rotate(0) translate(4 818)">
<title>HoTT_hit_Coeq</title>
<polygon fill="white" stroke="transparent" points="-4,4 -4,-818 1632,-818 1632,4 -4,4"/>
<g id="clust1" class="cluster"><title>cluster_Coeq</title>
<polygon fill="#ffffc3" stroke="black" points="12.7561,-8 12.7561,-806 1615.24,-806 1615.24,-8 12.7561,-8"/>
<text text-anchor="middle" x="35.2561" y="-790.8" font-family="Times,serif" font-size="14.00">Coeq</text>
</g>
<g id="clust2" class="cluster"><title>cluster_Coeq_Coeq</title>
<polygon fill="#ffffa3" stroke="black" points="425.736,-16 425.736,-163 869.011,-163 869.011,-16 425.736,-16"/>
<text text-anchor="middle" x="448.236" y="-147.8" font-family="Times,serif" font-size="14.00">Coeq</text>
</g>
<!-- Coeq_Coeq_Coeq_ind_beta_cp -->
<g id="node1" class="node"><title>Coeq_Coeq_Coeq_ind_beta_cp</title>
<g id="a_node1"><a xlink:href="Coeq.html#Coeq.Coeq_ind_beta_cp" xlink:title="Coeq_ind_beta_cp">
<ellipse fill="#facdef" stroke="black" cx="733.953" cy="-114" rx="76.8869" ry="18"/>
<text text-anchor="middle" x="733.953" y="-110.3" font-family="Times,serif" font-size="14.00">Coeq_ind_beta_cp</text>
</a>
</g>
</g>
<!-- Coeq_Coeq_Coeq_ind -->
<g id="node2" class="node"><title>Coeq_Coeq_Coeq_ind</title>
<g id="a_node2"><a xlink:href="Coeq.html#Coeq.Coeq_ind" xlink:title="Coeq_ind">
<ellipse fill="#f070d1" stroke="black" cx="509.953" cy="-114" rx="44.6926" ry="18"/>
<text text-anchor="middle" x="509.953" y="-110.3" font-family="Times,serif" font-size="14.00">Coeq_ind</text>
</a>
</g>
</g>
<!-- Coeq_Coeq_cp -->
<g id="node3" class="node"><title>Coeq_Coeq_cp</title>
<g id="a_node3"><a xlink:href="Coeq.html#Coeq.cp" xlink:title="cp">
<ellipse fill="#facdef" stroke="black" cx="481.953" cy="-42" rx="27" ry="18"/>
<text text-anchor="middle" x="481.953" y="-38.3" font-family="Times,serif" font-size="14.00">cp</text>
</a>
</g>
</g>
<!-- Coeq_Coeq_Coeq_ind&#45;&gt;Coeq_Coeq_cp -->
<g id="edge1" class="edge"><title>Coeq_Coeq_Coeq_ind&#45;&gt;Coeq_Coeq_cp</title>
<path fill="none" stroke="black" d="M503.032,-96.2022C499.844,-88.0064 495.993,-78.1024 492.459,-69.0145"/>
<polygon fill="black" stroke="black" points="495.681,-67.6445 488.795,-59.593 489.157,-70.1817 495.681,-67.6445"/>
</g>
<!-- Coeq_Coeq_coeq -->
<g id="node4" class="node"><title>Coeq_Coeq_coeq</title>
<g id="a_node4"><a xlink:href="Coeq.html#Coeq.coeq" xlink:title="coeq">
<ellipse fill="#7faaff" stroke="black" cx="595.953" cy="-42" rx="27.0966" ry="18"/>
<text text-anchor="middle" x="595.953" y="-38.3" font-family="Times,serif" font-size="14.00">coeq</text>
</a>
</g>
</g>
<!-- Coeq_Coeq_Coeq_ind&#45;&gt;Coeq_Coeq_coeq -->
<g id="edge2" class="edge"><title>Coeq_Coeq_Coeq_ind&#45;&gt;Coeq_Coeq_coeq</title>
<path fill="none" stroke="black" d="M529.468,-97.6621C541.78,-87.3543 557.797,-73.9443 571.025,-62.8696"/>
<polygon fill="black" stroke="black" points="573.422,-65.4275 578.843,-56.3244 568.929,-60.0602 573.422,-65.4275"/>
</g>
<!-- Coeq_Coeq_Coeq -->
<g id="node5" class="node"><title>Coeq_Coeq_Coeq</title>
<g id="a_node5"><a xlink:href="Coeq.html#Coeq.Coeq" xlink:title="Coeq">
<ellipse fill="#e2cdfa" stroke="black" cx="715.953" cy="-42" rx="29.4969" ry="18"/>
<text text-anchor="middle" x="715.953" y="-38.3" font-family="Times,serif" font-size="14.00">Coeq</text>
</a>
</g>
</g>
<!-- Coeq_Coeq_Coeq_ind&#45;&gt;Coeq_Coeq_Coeq -->
<g id="edge3" class="edge"><title>Coeq_Coeq_Coeq_ind&#45;&gt;Coeq_Coeq_Coeq</title>
<path fill="none" stroke="black" d="M543.97,-102.111C581.735,-88.9113 642.398,-67.7087 680.667,-54.3331"/>
<polygon fill="black" stroke="black" points="682.072,-57.5496 690.357,-50.9461 679.762,-50.9416 682.072,-57.5496"/>
</g>
<!-- Coeq_Coeq_ind2 -->
<g id="node6" class="node"><title>Coeq_Coeq_ind2</title>
<g id="a_node6"><a xlink:href="Coeq.html#Coeq_ind2" xlink:title="Coeq_ind2">
<ellipse fill="#facdef" stroke="black" cx="656.953" cy="-197" rx="49.3059" ry="18"/>
<ellipse fill="none" stroke="black" cx="656.953" cy="-197" rx="53.2987" ry="22"/>
<ellipse fill="none" stroke="black" cx="656.953" cy="-197" rx="57.2914" ry="26"/>
<text text-anchor="middle" x="656.953" y="-193.3" font-family="Times,serif" font-size="14.00">Coeq_ind2</text>
</a>
</g>
</g>
<!-- Coeq_Coeq_ind2&#45;&gt;Coeq_Coeq_Coeq_ind_beta_cp -->
<g id="edge4" class="edge"><title>Coeq_Coeq_ind2&#45;&gt;Coeq_Coeq_Coeq_ind_beta_cp</title>
<path fill="none" stroke="black" d="M679.225,-172.993C689.089,-162.36 700.693,-149.851 710.672,-139.095"/>
<polygon fill="black" stroke="black" points="713.367,-141.336 717.603,-131.624 708.236,-136.575 713.367,-141.336"/>
</g>
<!-- Coeq_Coeq_ind2&#45;&gt;Coeq_Coeq_Coeq_ind -->
<g id="edge5" class="edge"><title>Coeq_Coeq_ind2&#45;&gt;Coeq_Coeq_Coeq_ind</title>
<path fill="none" stroke="black" d="M620.993,-176.696C597.881,-163.647 568,-146.775 545.058,-133.821"/>
<polygon fill="black" stroke="black" points="546.75,-130.757 536.321,-128.888 543.308,-136.853 546.75,-130.757"/>
</g>
<!-- Coeq_Coeq_rec2_beta_cpr -->
<g id="node7" class="node"><title>Coeq_Coeq_rec2_beta_cpr</title>
<g id="a_node7"><a xlink:href="Coeq.html#Coeq_rec2_beta_cpr" xlink:title="Coeq_rec2_beta_cpr">
<ellipse fill="#f070d1" stroke="black" cx="1456.95" cy="-445" rx="83.3687" ry="18"/>
<ellipse fill="none" stroke="black" cx="1456.95" cy="-445" rx="87.3772" ry="22"/>
<ellipse fill="none" stroke="black" cx="1456.95" cy="-445" rx="91.3856" ry="26"/>
<text text-anchor="middle" x="1456.95" y="-441.3" font-family="Times,serif" font-size="14.00">Coeq_rec2_beta_cpr</text>
</a>
</g>
</g>
<!-- Coeq_Coeq_rec2 -->
<g id="node10" class="node"><title>Coeq_Coeq_rec2</title>
<g id="a_node10"><a xlink:href="Coeq.html#Coeq_rec2" xlink:title="Coeq_rec2">
<ellipse fill="#f070d1" stroke="black" cx="1161.95" cy="-357" rx="48.9926" ry="18"/>
<text text-anchor="middle" x="1161.95" y="-353.3" font-family="Times,serif" font-size="14.00">Coeq_rec2</text>
</a>
</g>
</g>
<!-- Coeq_Coeq_rec2_beta_cpr&#45;&gt;Coeq_Coeq_rec2 -->
<g id="edge6" class="edge"><title>Coeq_Coeq_rec2_beta_cpr&#45;&gt;Coeq_Coeq_rec2</title>
<path fill="none" stroke="black" d="M1393.67,-426.122C1338.43,-409.645 1259.51,-386.101 1209.51,-371.186"/>
<polygon fill="black" stroke="black" points="1210.49,-367.828 1199.91,-368.323 1208.49,-374.536 1210.49,-367.828"/>
</g>
<!-- Coeq_Coeq_rec2_beta_cpl -->
<g id="node8" class="node"><title>Coeq_Coeq_rec2_beta_cpl</title>
<g id="a_node8"><a xlink:href="Coeq.html#Coeq_rec2_beta_cpl" xlink:title="Coeq_rec2_beta_cpl">
<ellipse fill="#f070d1" stroke="black" cx="528.953" cy="-357" rx="83.3687" ry="18"/>
<ellipse fill="none" stroke="black" cx="528.953" cy="-357" rx="87.3772" ry="22"/>
<ellipse fill="none" stroke="black" cx="528.953" cy="-357" rx="91.3856" ry="26"/>
<text text-anchor="middle" x="528.953" y="-353.3" font-family="Times,serif" font-size="14.00">Coeq_rec2_beta_cpl</text>
</a>
</g>
</g>
<!-- Coeq_Coeq_rec_beta_cp -->
<g id="node22" class="node"><title>Coeq_Coeq_rec_beta_cp</title>
<g id="a_node22"><a xlink:href="Coeq.html#Coeq_rec_beta_cp" xlink:title="Coeq_rec_beta_cp">
<ellipse fill="#f070d1" stroke="black" cx="777.953" cy="-277" rx="76.0865" ry="18"/>
<text text-anchor="middle" x="777.953" y="-273.3" font-family="Times,serif" font-size="14.00">Coeq_rec_beta_cp</text>
</a>
</g>
</g>
<!-- Coeq_Coeq_rec2_beta_cpl&#45;&gt;Coeq_Coeq_rec_beta_cp -->
<g id="edge7" class="edge"><title>Coeq_Coeq_rec2_beta_cpl&#45;&gt;Coeq_Coeq_rec_beta_cp</title>
<path fill="none" stroke="black" d="M589.547,-337.532C630.288,-324.443 683.556,-307.328 723.054,-294.638"/>
<polygon fill="black" stroke="black" points="724.333,-297.904 732.783,-291.513 722.191,-291.239 724.333,-297.904"/>
</g>
<!-- Coeq_Coeq_rec2_beta -->
<g id="node9" class="node"><title>Coeq_Coeq_rec2_beta</title>
<g id="a_node9"><a xlink:href="Coeq.html#Coeq_rec2_beta" xlink:title="Coeq_rec2_beta">
<ellipse fill="#f070d1" stroke="black" cx="1161.95" cy="-445" rx="67.6782" ry="18"/>
<ellipse fill="none" stroke="black" cx="1161.95" cy="-445" rx="71.6831" ry="22"/>
<ellipse fill="none" stroke="black" cx="1161.95" cy="-445" rx="75.6881" ry="26"/>
<text text-anchor="middle" x="1161.95" y="-441.3" font-family="Times,serif" font-size="14.00">Coeq_rec2_beta</text>
</a>
</g>
</g>
<!-- Coeq_Coeq_rec2_beta&#45;&gt;Coeq_Coeq_rec2 -->
<g id="edge8" class="edge"><title>Coeq_Coeq_rec2_beta&#45;&gt;Coeq_Coeq_rec2</title>
<path fill="none" stroke="black" d="M1161.95,-418.597C1161.95,-408.041 1161.95,-395.868 1161.95,-385.145"/>
<polygon fill="black" stroke="black" points="1165.45,-385.019 1161.95,-375.019 1158.45,-385.019 1165.45,-385.019"/>
</g>
<!-- Coeq_Coeq_rec2&#45;&gt;Coeq_Coeq_rec_beta_cp -->
<g id="edge9" class="edge"><title>Coeq_Coeq_rec2&#45;&gt;Coeq_Coeq_rec_beta_cp</title>
<path fill="none" stroke="black" d="M1119.39,-348.133C1053.01,-334.303 924.247,-307.478 845.212,-291.012"/>
<polygon fill="black" stroke="black" points="845.856,-287.571 835.352,-288.958 844.428,-294.424 845.856,-287.571"/>
</g>
<!-- Coeq_equiv_functor_coeq_ -->
<g id="node11" class="node"><title>Coeq_equiv_functor_coeq_</title>
<g id="a_node11"><a xlink:href="Coeq.html#equiv_functor_coeq'" xlink:title="equiv_functor_coeq&#39;">
<ellipse fill="#f070d1" stroke="black" cx="595.953" cy="-749" rx="82.5816" ry="18"/>
<ellipse fill="none" stroke="black" cx="595.953" cy="-749" rx="86.5835" ry="22"/>
<ellipse fill="none" stroke="black" cx="595.953" cy="-749" rx="90.5854" ry="26"/>
<text text-anchor="middle" x="595.953" y="-745.3" font-family="Times,serif" font-size="14.00">equiv_functor_coeq&#39;</text>
</a>
</g>
</g>
<!-- Coeq_equiv_functor_coeq -->
<g id="node12" class="node"><title>Coeq_equiv_functor_coeq</title>
<g id="a_node12"><a xlink:href="Coeq.html#equiv_functor_coeq" xlink:title="equiv_functor_coeq">
<ellipse fill="#f070d1" stroke="black" cx="595.953" cy="-669" rx="81.4863" ry="18"/>
<text text-anchor="middle" x="595.953" y="-665.3" font-family="Times,serif" font-size="14.00">equiv_functor_coeq</text>
</a>
</g>
</g>
<!-- Coeq_equiv_functor_coeq_&#45;&gt;Coeq_equiv_functor_coeq -->
<g id="edge10" class="edge"><title>Coeq_equiv_functor_coeq_&#45;&gt;Coeq_equiv_functor_coeq</title>
<path fill="none" stroke="black" d="M595.953,-722.805C595.953,-714.603 595.953,-705.517 595.953,-697.184"/>
<polygon fill="black" stroke="black" points="599.453,-697.153 595.953,-687.153 592.453,-697.153 599.453,-697.153"/>
</g>
<!-- Coeq_isequiv_functor_coeq -->
<g id="node13" class="node"><title>Coeq_isequiv_functor_coeq</title>
<g id="a_node13"><a xlink:href="Coeq.html#isequiv_functor_coeq" xlink:title="isequiv_functor_coeq">
<ellipse fill="#f070d1" stroke="black" cx="595.953" cy="-597" rx="87.1846" ry="18"/>
<text text-anchor="middle" x="595.953" y="-593.3" font-family="Times,serif" font-size="14.00">isequiv_functor_coeq</text>
</a>
</g>
</g>
<!-- Coeq_equiv_functor_coeq&#45;&gt;Coeq_isequiv_functor_coeq -->
<g id="edge11" class="edge"><title>Coeq_equiv_functor_coeq&#45;&gt;Coeq_isequiv_functor_coeq</title>
<path fill="none" stroke="black" d="M595.953,-650.831C595.953,-643.131 595.953,-633.974 595.953,-625.417"/>
<polygon fill="black" stroke="black" points="599.453,-625.413 595.953,-615.413 592.453,-625.413 599.453,-625.413"/>
</g>
<!-- Coeq_functor_coeq_eisretr -->
<g id="node14" class="node"><title>Coeq_functor_coeq_eisretr</title>
<g id="a_node14"><a xlink:href="Coeq.html#functor_coeq_eisretr" xlink:title="functor_coeq_eisretr">
<ellipse fill="#facdef" stroke="black" cx="892.953" cy="-525" rx="83.3857" ry="18"/>
<text text-anchor="middle" x="892.953" y="-521.3" font-family="Times,serif" font-size="14.00">functor_coeq_eisretr</text>
</a>
</g>
</g>
<!-- Coeq_isequiv_functor_coeq&#45;&gt;Coeq_functor_coeq_eisretr -->
<g id="edge12" class="edge"><title>Coeq_isequiv_functor_coeq&#45;&gt;Coeq_functor_coeq_eisretr</title>
<path fill="none" stroke="black" d="M652.515,-583.288C702.4,-571.195 775.106,-553.569 827.492,-540.869"/>
<polygon fill="black" stroke="black" points="828.462,-544.236 837.356,-538.478 826.813,-537.433 828.462,-544.236"/>
</g>
<!-- Coeq_functor_coeq_eissect -->
<g id="node15" class="node"><title>Coeq_functor_coeq_eissect</title>
<g id="a_node15"><a xlink:href="Coeq.html#functor_coeq_eissect" xlink:title="functor_coeq_eissect">
<ellipse fill="#facdef" stroke="black" cx="595.953" cy="-525" rx="85.2851" ry="18"/>
<text text-anchor="middle" x="595.953" y="-521.3" font-family="Times,serif" font-size="14.00">functor_coeq_eissect</text>
</a>
</g>
</g>
<!-- Coeq_isequiv_functor_coeq&#45;&gt;Coeq_functor_coeq_eissect -->
<g id="edge13" class="edge"><title>Coeq_isequiv_functor_coeq&#45;&gt;Coeq_functor_coeq_eissect</title>
<path fill="none" stroke="black" d="M595.953,-578.831C595.953,-571.131 595.953,-561.974 595.953,-553.417"/>
<polygon fill="black" stroke="black" points="599.453,-553.413 595.953,-543.413 592.453,-553.413 599.453,-553.413"/>
</g>
<!-- Coeq_functor_coeq_inverse -->
<g id="node16" class="node"><title>Coeq_functor_coeq_inverse</title>
<g id="a_node16"><a xlink:href="Coeq.html#functor_coeq_inverse" xlink:title="functor_coeq_inverse">
<ellipse fill="#f070d1" stroke="black" cx="229.953" cy="-525" rx="87.1846" ry="18"/>
<text text-anchor="middle" x="229.953" y="-521.3" font-family="Times,serif" font-size="14.00">functor_coeq_inverse</text>
</a>
</g>
</g>
<!-- Coeq_isequiv_functor_coeq&#45;&gt;Coeq_functor_coeq_inverse -->
<g id="edge14" class="edge"><title>Coeq_isequiv_functor_coeq&#45;&gt;Coeq_functor_coeq_inverse</title>
<path fill="none" stroke="black" d="M532.618,-584.541C468.787,-571.984 370.367,-552.622 303.211,-539.411"/>
<polygon fill="black" stroke="black" points="303.612,-535.923 293.125,-537.427 302.261,-542.792 303.612,-535.923"/>
</g>
<!-- Coeq_functor_coeq_sect -->
<g id="node17" class="node"><title>Coeq_functor_coeq_sect</title>
<g id="a_node17"><a xlink:href="Coeq.html#functor_coeq_sect" xlink:title="functor_coeq_sect">
<ellipse fill="#facdef" stroke="black" cx="892.953" cy="-445" rx="75.2868" ry="18"/>
<text text-anchor="middle" x="892.953" y="-441.3" font-family="Times,serif" font-size="14.00">functor_coeq_sect</text>
</a>
</g>
</g>
<!-- Coeq_functor_coeq_eisretr&#45;&gt;Coeq_functor_coeq_sect -->
<g id="edge15" class="edge"><title>Coeq_functor_coeq_eisretr&#45;&gt;Coeq_functor_coeq_sect</title>
<path fill="none" stroke="black" d="M892.953,-506.847C892.953,-496.925 892.953,-484.417 892.953,-473.249"/>
<polygon fill="black" stroke="black" points="896.453,-473.081 892.953,-463.081 889.453,-473.081 896.453,-473.081"/>
</g>
<!-- Coeq_functor_coeq_eissect&#45;&gt;Coeq_functor_coeq_sect -->
<g id="edge16" class="edge"><title>Coeq_functor_coeq_eissect&#45;&gt;Coeq_functor_coeq_sect</title>
<path fill="none" stroke="black" d="M648.708,-510.79C700.336,-496.883 778.88,-475.727 832.883,-461.18"/>
<polygon fill="black" stroke="black" points="833.923,-464.525 842.669,-458.545 832.103,-457.766 833.923,-464.525"/>
</g>
<!-- Coeq_functor_coeq -->
<g id="node21" class="node"><title>Coeq_functor_coeq</title>
<g id="a_node21"><a xlink:href="Coeq.html#functor_coeq" xlink:title="functor_coeq">
<ellipse fill="#f070d1" stroke="black" cx="264.953" cy="-357" rx="57.3905" ry="18"/>
<text text-anchor="middle" x="264.953" y="-353.3" font-family="Times,serif" font-size="14.00">functor_coeq</text>
</a>
</g>
</g>
<!-- Coeq_functor_coeq_inverse&#45;&gt;Coeq_functor_coeq -->
<g id="edge17" class="edge"><title>Coeq_functor_coeq_inverse&#45;&gt;Coeq_functor_coeq</title>
<path fill="none" stroke="black" d="M167.497,-512.413C144.786,-504.492 121.411,-491.674 107.953,-471 95.3447,-451.631 94.9542,-438.109 107.953,-419 120.097,-401.148 170.275,-383.306 210.681,-371.377"/>
<polygon fill="black" stroke="black" points="211.816,-374.692 220.449,-368.55 209.87,-367.968 211.816,-374.692"/>
</g>
<!-- Coeq_functor_coeq_beta_cp -->
<g id="node20" class="node"><title>Coeq_functor_coeq_beta_cp</title>
<g id="a_node20"><a xlink:href="Coeq.html#functor_coeq_beta_cp" xlink:title="functor_coeq_beta_cp">
<ellipse fill="#f070d1" stroke="black" cx="844.953" cy="-357" rx="89.0842" ry="18"/>
<text text-anchor="middle" x="844.953" y="-353.3" font-family="Times,serif" font-size="14.00">functor_coeq_beta_cp</text>
</a>
</g>
</g>
<!-- Coeq_functor_coeq_sect&#45;&gt;Coeq_functor_coeq_beta_cp -->
<g id="edge18" class="edge"><title>Coeq_functor_coeq_sect&#45;&gt;Coeq_functor_coeq_beta_cp</title>
<path fill="none" stroke="black" d="M883.007,-426.766C876.269,-414.413 867.249,-397.877 859.682,-384.004"/>
<polygon fill="black" stroke="black" points="862.583,-382.012 854.722,-374.909 856.438,-385.364 862.583,-382.012"/>
</g>
<!-- Coeq_functor_coeq_sect&#45;&gt;Coeq_functor_coeq -->
<g id="edge19" class="edge"><title>Coeq_functor_coeq_sect&#45;&gt;Coeq_functor_coeq</title>
<path fill="none" stroke="black" d="M826.032,-436.579C735.781,-425.102 570.087,-403.614 428.953,-383 394.868,-378.022 356.871,-372.026 326.041,-367.048"/>
<polygon fill="black" stroke="black" points="326.307,-363.545 315.876,-365.401 325.188,-370.455 326.307,-363.545"/>
</g>
<!-- Coeq_functor_coeq_homotopy -->
<g id="node18" class="node"><title>Coeq_functor_coeq_homotopy</title>
<g id="a_node18"><a xlink:href="Coeq.html#functor_coeq_homotopy" xlink:title="functor_coeq_homotopy">
<ellipse fill="#facdef" stroke="black" cx="575.953" cy="-445" rx="97.4834" ry="18"/>
<ellipse fill="none" stroke="black" cx="575.953" cy="-445" rx="101.483" ry="22"/>
<ellipse fill="none" stroke="black" cx="575.953" cy="-445" rx="105.483" ry="26"/>
<text text-anchor="middle" x="575.953" y="-441.3" font-family="Times,serif" font-size="14.00">functor_coeq_homotopy</text>
</a>
</g>
</g>
<!-- Coeq_functor_coeq_homotopy&#45;&gt;Coeq_functor_coeq_beta_cp -->
<g id="edge20" class="edge"><title>Coeq_functor_coeq_homotopy&#45;&gt;Coeq_functor_coeq_beta_cp</title>
<path fill="none" stroke="black" d="M639.702,-424.145C684.912,-409.355 745.032,-389.688 788.51,-375.465"/>
<polygon fill="black" stroke="black" points="789.659,-378.771 798.075,-372.336 787.483,-372.118 789.659,-378.771"/>
</g>
<!-- Coeq_functor_coeq_homotopy&#45;&gt;Coeq_functor_coeq -->
<g id="edge21" class="edge"><title>Coeq_functor_coeq_homotopy&#45;&gt;Coeq_functor_coeq</title>
<path fill="none" stroke="black" d="M506.546,-425.361C449.364,-409.181 369.502,-386.583 317.512,-371.872"/>
<polygon fill="black" stroke="black" points="318.396,-368.485 307.821,-369.13 316.491,-375.22 318.396,-368.485"/>
</g>
<!-- Coeq_functor_coeq_compose -->
<g id="node19" class="node"><title>Coeq_functor_coeq_compose</title>
<g id="a_node19"><a xlink:href="Coeq.html#functor_coeq_compose" xlink:title="functor_coeq_compose">
<ellipse fill="#facdef" stroke="black" cx="217.953" cy="-445" rx="92.8882" ry="18"/>
<ellipse fill="none" stroke="black" cx="217.953" cy="-445" rx="96.8858" ry="22"/>
<ellipse fill="none" stroke="black" cx="217.953" cy="-445" rx="100.884" ry="26"/>
<text text-anchor="middle" x="217.953" y="-441.3" font-family="Times,serif" font-size="14.00">functor_coeq_compose</text>
</a>
</g>
</g>
<!-- Coeq_functor_coeq_compose&#45;&gt;Coeq_functor_coeq_beta_cp -->
<g id="edge22" class="edge"><title>Coeq_functor_coeq_compose&#45;&gt;Coeq_functor_coeq_beta_cp</title>
<path fill="none" stroke="black" d="M306.789,-432.532C427.917,-415.531 643.316,-385.3 761.549,-368.706"/>
<polygon fill="black" stroke="black" points="762.218,-372.146 771.634,-367.29 761.245,-365.214 762.218,-372.146"/>
</g>
<!-- Coeq_functor_coeq_compose&#45;&gt;Coeq_functor_coeq -->
<g id="edge23" class="edge"><title>Coeq_functor_coeq_compose&#45;&gt;Coeq_functor_coeq</title>
<path fill="none" stroke="black" d="M231.8,-419.073C237.724,-407.983 244.637,-395.038 250.614,-383.848"/>
<polygon fill="black" stroke="black" points="253.747,-385.41 255.371,-374.941 247.573,-382.113 253.747,-385.41"/>
</g>
<!-- Coeq_functor_coeq_beta_cp&#45;&gt;Coeq_Coeq_rec_beta_cp -->
<g id="edge24" class="edge"><title>Coeq_functor_coeq_beta_cp&#45;&gt;Coeq_Coeq_rec_beta_cp</title>
<path fill="none" stroke="black" d="M830.084,-339.245C821.062,-328.474 809.398,-314.546 799.391,-302.598"/>
<polygon fill="black" stroke="black" points="801.885,-300.124 792.781,-294.705 796.518,-304.619 801.885,-300.124"/>
</g>
<!-- Coeq_Coeq_rec -->
<g id="node23" class="node"><title>Coeq_Coeq_rec</title>
<g id="a_node23"><a xlink:href="Coeq.html#Coeq_rec" xlink:title="Coeq_rec">
<ellipse fill="#f070d1" stroke="black" cx="465.953" cy="-197" rx="44.393" ry="18"/>
<text text-anchor="middle" x="465.953" y="-193.3" font-family="Times,serif" font-size="14.00">Coeq_rec</text>
</a>
</g>
</g>
<!-- Coeq_functor_coeq&#45;&gt;Coeq_Coeq_rec -->
<g id="edge25" class="edge"><title>Coeq_functor_coeq&#45;&gt;Coeq_Coeq_rec</title>
<path fill="none" stroke="black" d="M286.084,-340.18C322.482,-311.206 397.015,-251.876 437.782,-219.425"/>
<polygon fill="black" stroke="black" points="440.059,-222.085 445.703,-213.119 435.7,-216.609 440.059,-222.085"/>
</g>
<!-- Coeq_Coeq_rec_beta_cp&#45;&gt;Coeq_Coeq_Coeq_ind_beta_cp -->
<g id="edge26" class="edge"><title>Coeq_Coeq_rec_beta_cp&#45;&gt;Coeq_Coeq_Coeq_ind_beta_cp</title>
<path fill="none" stroke="black" d="M773.076,-258.933C765.444,-230.661 750.618,-175.736 741.57,-142.217"/>
<polygon fill="black" stroke="black" points="744.837,-140.89 738.852,-132.148 738.079,-142.714 744.837,-140.89"/>
</g>
<!-- Coeq_Coeq_rec_beta_cp&#45;&gt;Coeq_Coeq_rec -->
<g id="edge27" class="edge"><title>Coeq_Coeq_rec_beta_cp&#45;&gt;Coeq_Coeq_rec</title>
<path fill="none" stroke="black" d="M726.082,-263.7C666.908,-248.527 570.947,-223.922 513.597,-209.216"/>
<polygon fill="black" stroke="black" points="514.256,-205.772 503.7,-206.679 512.518,-212.553 514.256,-205.772"/>
</g>
<!-- Coeq_Coeq_rec&#45;&gt;Coeq_Coeq_Coeq_ind -->
<g id="edge28" class="edge"><title>Coeq_Coeq_rec&#45;&gt;Coeq_Coeq_Coeq_ind</title>
<path fill="none" stroke="black" d="M475.284,-179.398C481.194,-168.249 488.955,-153.611 495.634,-141.01"/>
<polygon fill="black" stroke="black" points="498.892,-142.338 500.483,-131.863 492.707,-139.059 498.892,-142.338"/>
</g>
</g>
</svg>
