<?xml version="1.0" encoding="UTF-8" standalone="no"?>
<!DOCTYPE svg PUBLIC "-//W3C//DTD SVG 1.1//EN"
 "http://www.w3.org/Graphics/SVG/1.1/DTD/svg11.dtd">
<!-- Generated by graphviz version 2.26.3 (20100126.1600)
 -->
<!-- Title: HoTT_Extensions Pages: 1 -->
<svg width="3660pt" height="1834pt"
 viewBox="0.00 0.00 3660.00 1834.00" xmlns="http://www.w3.org/2000/svg" xmlns:xlink="http://www.w3.org/1999/xlink">
<g id="graph1" class="graph" transform="scale(1 1) rotate(0) translate(4 1830)">
<title>HoTT_Extensions</title>
<polygon fill="white" stroke="white" points="-4,5 -4,-1830 3657,-1830 3657,5 -4,5"/>
<g id="graph2" class="cluster"><title>cluster_Extensions</title>
<polygon fill="#ffffc3" stroke="black" points="8,-33.2 8,-1792.8 3644,-1792.8 3644,-33.2 8,-33.2"/>
<text text-anchor="middle" x="54" y="-1776.2" font-family="Times Roman,serif" font-size="14.00">Extensions</text>
</g>
<!-- Extensions_ooextendable_isnull_fibers -->
<g id="node1" class="node"><title>Extensions_ooextendable_isnull_fibers</title>
<a xlink:href="Extensions.html#ooextendable_isnull_fibers" xlink:title="ooextendable_isnull_fibers">
<ellipse fill="#f070d1" stroke="black" cx="2487" cy="-1539.2" rx="140.007" ry="18.3848"/>
<ellipse fill="none" stroke="black" cx="2487" cy="-1539.2" rx="144.007" ry="22.3848"/>
<ellipse fill="none" stroke="black" cx="2487" cy="-1539.2" rx="148.007" ry="26.3848"/>
<text text-anchor="middle" x="2487" y="-1535.6" font-family="Times Roman,serif" font-size="14.00">ooextendable_isnull_fibers</text>
</a>
</g>
<!-- Extensions_ooextendable_homotopy -->
<g id="node2" class="node"><title>Extensions_ooextendable_homotopy</title>
<a xlink:href="Extensions.html#ooextendable_homotopy" xlink:title="ooextendable_homotopy">
<ellipse fill="#f070d1" stroke="black" cx="2487" cy="-1166.2" rx="131.022" ry="18.3848"/>
<text text-anchor="middle" x="2487" y="-1162.6" font-family="Times Roman,serif" font-size="14.00">ooextendable_homotopy</text>
</a>
</g>
<!-- Extensions_ooextendable_isnull_fibers&#45;&gt;Extensions_ooextendable_homotopy -->
<g id="edge2" class="edge"><title>Extensions_ooextendable_isnull_fibers&#45;&gt;Extensions_ooextendable_homotopy</title>
<path fill="none" stroke="black" d="M2487,-1512.67C2487,-1444.9 2487,-1265.76 2487,-1195.28"/>
<polygon fill="black" stroke="black" points="2490.5,-1194.93 2487,-1184.93 2483.5,-1194.93 2490.5,-1194.93"/>
</g>
<!-- Extensions_ooExtendableAlong -->
<g id="node14" class="node"><title>Extensions_ooExtendableAlong</title>
<a xlink:href="Extensions.html#ooExtendableAlong" xlink:title="ooExtendableAlong">
<ellipse fill="#f070d1" stroke="black" cx="1725" cy="-826.2" rx="104.86" ry="18.3848"/>
<text text-anchor="middle" x="1725" y="-822.6" font-family="Times Roman,serif" font-size="14.00">ooExtendableAlong</text>
</a>
</g>
<!-- Extensions_ooextendable_homotopy&#45;&gt;Extensions_ooExtendableAlong -->
<g id="edge4" class="edge"><title>Extensions_ooextendable_homotopy&#45;&gt;Extensions_ooExtendableAlong</title>
<path fill="none" stroke="black" d="M2447.37,-1148.52C2318.66,-1091.09 1912.63,-909.918 1772.84,-847.546"/>
<polygon fill="black" stroke="black" points="1774.19,-844.316 1763.63,-843.437 1771.34,-850.709 1774.19,-844.316"/>
</g>
<!-- Extensions_extendable_homotopy -->
<g id="node15" class="node"><title>Extensions_extendable_homotopy</title>
<a xlink:href="Extensions.html#extendable_homotopy" xlink:title="extendable_homotopy">
<ellipse fill="#f070d1" stroke="black" cx="2465" cy="-826.2" rx="120.208" ry="18.3848"/>
<text text-anchor="middle" x="2465" y="-822.6" font-family="Times Roman,serif" font-size="14.00">extendable_homotopy</text>
</a>
</g>
<!-- Extensions_ooextendable_homotopy&#45;&gt;Extensions_extendable_homotopy -->
<g id="edge6" class="edge"><title>Extensions_ooextendable_homotopy&#45;&gt;Extensions_extendable_homotopy</title>
<path fill="none" stroke="black" d="M2485.79,-1147.44C2482.14,-1091.13 2471.28,-923.301 2466.88,-855.299"/>
<polygon fill="black" stroke="black" points="2470.35,-854.659 2466.21,-844.906 2463.36,-855.111 2470.35,-854.659"/>
</g>
<!-- Extensions_ooextendable_contr -->
<g id="node3" class="node"><title>Extensions_ooextendable_contr</title>
<a xlink:href="Extensions.html#ooextendable_contr" xlink:title="ooextendable_contr">
<ellipse fill="#f070d1" stroke="black" cx="3520" cy="-1166.2" rx="108.187" ry="18.3848"/>
<ellipse fill="none" stroke="black" cx="3520" cy="-1166.2" rx="112.187" ry="22.3848"/>
<ellipse fill="none" stroke="black" cx="3520" cy="-1166.2" rx="116.187" ry="26.3848"/>
<text text-anchor="middle" x="3520" y="-1162.6" font-family="Times Roman,serif" font-size="14.00">ooextendable_contr</text>
</a>
</g>
<!-- Extensions_extendable_contr -->
<g id="node16" class="node"><title>Extensions_extendable_contr</title>
<a xlink:href="Extensions.html#extendable_contr" xlink:title="extendable_contr">
<ellipse fill="#f070d1" stroke="black" cx="3431" cy="-826.2" rx="96.8736" ry="18.3848"/>
<text text-anchor="middle" x="3431" y="-822.6" font-family="Times Roman,serif" font-size="14.00">extendable_contr</text>
</a>
</g>
<!-- Extensions_ooextendable_contr&#45;&gt;Extensions_extendable_contr -->
<g id="edge8" class="edge"><title>Extensions_ooextendable_contr&#45;&gt;Extensions_extendable_contr</title>
<path fill="none" stroke="black" d="M3513.02,-1139.52C3496.56,-1076.65 3455.45,-919.608 3438.49,-854.832"/>
<polygon fill="black" stroke="black" points="3441.81,-853.691 3435.9,-844.903 3435.04,-855.464 3441.81,-853.691"/>
</g>
<!-- Extensions_ooextendable_equiv -->
<g id="node4" class="node"><title>Extensions_ooextendable_equiv</title>
<a xlink:href="Extensions.html#ooextendable_equiv" xlink:title="ooextendable_equiv">
<ellipse fill="#f070d1" stroke="black" cx="3269" cy="-1166.2" rx="109.135" ry="18.3848"/>
<ellipse fill="none" stroke="black" cx="3269" cy="-1166.2" rx="113.118" ry="22.3848"/>
<ellipse fill="none" stroke="black" cx="3269" cy="-1166.2" rx="117.101" ry="26.3848"/>
<text text-anchor="middle" x="3269" y="-1162.6" font-family="Times Roman,serif" font-size="14.00">ooextendable_equiv</text>
</a>
</g>
<!-- Extensions_extendable_equiv -->
<g id="node17" class="node"><title>Extensions_extendable_equiv</title>
<a xlink:href="Extensions.html#extendable_equiv" xlink:title="extendable_equiv">
<ellipse fill="#f070d1" stroke="black" cx="3131" cy="-826.2" rx="97.0803" ry="18.3848"/>
<text text-anchor="middle" x="3131" y="-822.6" font-family="Times Roman,serif" font-size="14.00">extendable_equiv</text>
</a>
</g>
<!-- Extensions_ooextendable_equiv&#45;&gt;Extensions_extendable_equiv -->
<g id="edge10" class="edge"><title>Extensions_ooextendable_equiv&#45;&gt;Extensions_extendable_equiv</title>
<path fill="none" stroke="black" d="M3258.29,-1139.8C3232.8,-1077.01 3168.73,-919.158 3142.48,-854.494"/>
<polygon fill="black" stroke="black" points="3145.61,-852.895 3138.61,-844.945 3139.13,-855.527 3145.61,-852.895"/>
</g>
<!-- Extensions_ooextendable_homotopic -->
<g id="node5" class="node"><title>Extensions_ooextendable_homotopic</title>
<a xlink:href="Extensions.html#ooextendable_homotopic" xlink:title="ooextendable_homotopic">
<ellipse fill="#f070d1" stroke="black" cx="2197" cy="-1166.2" rx="132.936" ry="18.3848"/>
<ellipse fill="none" stroke="black" cx="2197" cy="-1166.2" rx="136.936" ry="22.3848"/>
<ellipse fill="none" stroke="black" cx="2197" cy="-1166.2" rx="140.936" ry="26.3848"/>
<text text-anchor="middle" x="2197" y="-1162.6" font-family="Times Roman,serif" font-size="14.00">ooextendable_homotopic</text>
</a>
</g>
<!-- Extensions_ooextendable_homotopic&#45;&gt;Extensions_ooExtendableAlong -->
<g id="edge12" class="edge"><title>Extensions_ooextendable_homotopic&#45;&gt;Extensions_ooExtendableAlong</title>
<path fill="none" stroke="black" d="M2161.14,-1140.37C2072.53,-1076.54 1844.27,-912.112 1758.36,-850.23"/>
<polygon fill="black" stroke="black" points="1760.18,-847.231 1750.02,-844.226 1756.09,-852.911 1760.18,-847.231"/>
</g>
<!-- Extensions_extendable_homotopic -->
<g id="node18" class="node"><title>Extensions_extendable_homotopic</title>
<a xlink:href="Extensions.html#extendable_homotopic" xlink:title="extendable_homotopic">
<ellipse fill="#f070d1" stroke="black" cx="2203" cy="-826.2" rx="121.122" ry="18.3848"/>
<text text-anchor="middle" x="2203" y="-822.6" font-family="Times Roman,serif" font-size="14.00">extendable_homotopic</text>
</a>
</g>
<!-- Extensions_ooextendable_homotopic&#45;&gt;Extensions_extendable_homotopic -->
<g id="edge14" class="edge"><title>Extensions_ooextendable_homotopic&#45;&gt;Extensions_extendable_homotopic</title>
<path fill="none" stroke="black" d="M2197.47,-1139.52C2198.58,-1076.77 2201.34,-920.255 2202.49,-855.234"/>
<polygon fill="black" stroke="black" points="2205.99,-854.964 2202.67,-844.903 2198.99,-854.84 2205.99,-854.964"/>
</g>
<!-- Extensions_cancelR_ooextendable -->
<g id="node6" class="node"><title>Extensions_cancelR_ooextendable</title>
<a xlink:href="Extensions.html#cancelR_ooextendable" xlink:title="cancelR_ooextendable">
<ellipse fill="#f070d1" stroke="black" cx="1910" cy="-1166.2" rx="120.208" ry="18.3848"/>
<ellipse fill="none" stroke="black" cx="1910" cy="-1166.2" rx="124.208" ry="22.3848"/>
<ellipse fill="none" stroke="black" cx="1910" cy="-1166.2" rx="128.208" ry="26.3848"/>
<text text-anchor="middle" x="1910" y="-1162.6" font-family="Times Roman,serif" font-size="14.00">cancelR_ooextendable</text>
</a>
</g>
<!-- Extensions_cancelR_ooextendable&#45;&gt;Extensions_ooExtendableAlong -->
<g id="edge16" class="edge"><title>Extensions_cancelR_ooextendable&#45;&gt;Extensions_ooExtendableAlong</title>
<path fill="none" stroke="black" d="M1895.64,-1139.8C1861.4,-1076.88 1775.23,-918.508 1740.18,-854.096"/>
<polygon fill="black" stroke="black" points="1743.05,-852.056 1735.2,-844.945 1736.9,-855.402 1743.05,-852.056"/>
</g>
<!-- Extensions_cancelR_extendable -->
<g id="node19" class="node"><title>Extensions_cancelR_extendable</title>
<a xlink:href="Extensions.html#cancelR_extendable" xlink:title="cancelR_extendable">
<ellipse fill="#f070d1" stroke="black" cx="1956" cy="-826.2" rx="108.187" ry="18.3848"/>
<text text-anchor="middle" x="1956" y="-822.6" font-family="Times Roman,serif" font-size="14.00">cancelR_extendable</text>
</a>
</g>
<!-- Extensions_cancelR_ooextendable&#45;&gt;Extensions_cancelR_extendable -->
<g id="edge18" class="edge"><title>Extensions_cancelR_ooextendable&#45;&gt;Extensions_cancelR_extendable</title>
<path fill="none" stroke="black" d="M1913.61,-1139.52C1922.12,-1076.65 1943.36,-919.608 1952.13,-854.832"/>
<polygon fill="black" stroke="black" points="1955.6,-855.282 1953.47,-844.903 1948.66,-854.344 1955.6,-855.282"/>
</g>
<!-- Extensions_cancelL_ooextendable -->
<g id="node7" class="node"><title>Extensions_cancelL_ooextendable</title>
<a xlink:href="Extensions.html#cancelL_ooextendable" xlink:title="cancelL_ooextendable">
<ellipse fill="#f070d1" stroke="black" cx="1968" cy="-1539.2" rx="118.794" ry="18.3848"/>
<ellipse fill="none" stroke="black" cx="1968" cy="-1539.2" rx="122.794" ry="22.3848"/>
<ellipse fill="none" stroke="black" cx="1968" cy="-1539.2" rx="126.794" ry="26.3848"/>
<text text-anchor="middle" x="1968" y="-1535.6" font-family="Times Roman,serif" font-size="14.00">cancelL_ooextendable</text>
</a>
</g>
<!-- Extensions_cancelL_ooextendable&#45;&gt;Extensions_ooExtendableAlong -->
<g id="edge20" class="edge"><title>Extensions_cancelL_ooextendable&#45;&gt;Extensions_ooExtendableAlong</title>
<path fill="none" stroke="black" d="M1946.23,-1513.07C1901.77,-1458.03 1801.12,-1324.37 1758,-1193.2 1718.33,-1072.52 1720.35,-918.237 1723.25,-855.096"/>
<polygon fill="black" stroke="black" points="1726.76,-854.899 1723.77,-844.735 1719.77,-854.546 1726.76,-854.899"/>
</g>
<!-- Extensions_cancelL_extendable -->
<g id="node20" class="node"><title>Extensions_cancelL_extendable</title>
<a xlink:href="Extensions.html#cancelL_extendable" xlink:title="cancelL_extendable">
<ellipse fill="#f070d1" stroke="black" cx="2743" cy="-1166.2" rx="106.98" ry="18.3848"/>
<text text-anchor="middle" x="2743" y="-1162.6" font-family="Times Roman,serif" font-size="14.00">cancelL_extendable</text>
</a>
</g>
<!-- Extensions_cancelL_ooextendable&#45;&gt;Extensions_cancelL_extendable -->
<g id="edge22" class="edge"><title>Extensions_cancelL_ooextendable&#45;&gt;Extensions_cancelL_extendable</title>
<path fill="none" stroke="black" d="M2018.55,-1514.87C2160.5,-1446.55 2561.25,-1253.68 2697.21,-1188.24"/>
<polygon fill="black" stroke="black" points="2699.05,-1191.24 2706.54,-1183.75 2696.01,-1184.93 2699.05,-1191.24"/>
</g>
<!-- Extensions_ooextendable_compose -->
<g id="node8" class="node"><title>Extensions_ooextendable_compose</title>
<a xlink:href="Extensions.html#ooextendable_compose" xlink:title="ooextendable_compose">
<ellipse fill="#f070d1" stroke="black" cx="1302" cy="-1166.2" rx="123.981" ry="18.3848"/>
<ellipse fill="none" stroke="black" cx="1302" cy="-1166.2" rx="127.966" ry="22.3848"/>
<ellipse fill="none" stroke="black" cx="1302" cy="-1166.2" rx="131.951" ry="26.3848"/>
<text text-anchor="middle" x="1302" y="-1162.6" font-family="Times Roman,serif" font-size="14.00">ooextendable_compose</text>
</a>
</g>
<!-- Extensions_ooextendable_compose&#45;&gt;Extensions_ooExtendableAlong -->
<g id="edge24" class="edge"><title>Extensions_ooextendable_compose&#45;&gt;Extensions_ooExtendableAlong</title>
<path fill="none" stroke="black" d="M1334.14,-1140.37C1413.2,-1076.82 1616.33,-913.544 1694.09,-851.046"/>
<polygon fill="black" stroke="black" points="1696.48,-853.618 1702.08,-844.625 1692.09,-848.162 1696.48,-853.618"/>
</g>
<!-- Extensions_extendable_compose -->
<g id="node21" class="node"><title>Extensions_extendable_compose</title>
<a xlink:href="Extensions.html#extendable_compose" xlink:title="extendable_compose">
<ellipse fill="#f070d1" stroke="black" cx="1433" cy="-826.2" rx="113.137" ry="18.3848"/>
<text text-anchor="middle" x="1433" y="-822.6" font-family="Times Roman,serif" font-size="14.00">extendable_compose</text>
</a>
</g>
<!-- Extensions_ooextendable_compose&#45;&gt;Extensions_extendable_compose -->
<g id="edge26" class="edge"><title>Extensions_ooextendable_compose&#45;&gt;Extensions_extendable_compose</title>
<path fill="none" stroke="black" d="M1312.28,-1139.52C1336.55,-1076.52 1397.26,-918.96 1422.12,-854.432"/>
<polygon fill="black" stroke="black" points="1425.46,-855.493 1425.79,-844.903 1418.93,-852.976 1425.46,-855.493"/>
</g>
<!-- Extensions_ooextendable_postcompose -->
<g id="node9" class="node"><title>Extensions_ooextendable_postcompose</title>
<a xlink:href="Extensions.html#ooextendable_postcompose" xlink:title="ooextendable_postcompose">
<ellipse fill="#f070d1" stroke="black" cx="2903" cy="-1539.2" rx="145.19" ry="18.3848"/>
<ellipse fill="none" stroke="black" cx="2903" cy="-1539.2" rx="149.176" ry="22.3848"/>
<ellipse fill="none" stroke="black" cx="2903" cy="-1539.2" rx="153.163" ry="26.3848"/>
<text text-anchor="middle" x="2903" y="-1535.6" font-family="Times Roman,serif" font-size="14.00">ooextendable_postcompose</text>
</a>
</g>
<!-- Extensions_ooextendable_postcompose&#45;&gt;Extensions_ooExtendableAlong -->
<g id="edge28" class="edge"><title>Extensions_ooextendable_postcompose&#45;&gt;Extensions_ooExtendableAlong</title>
<path fill="none" stroke="black" d="M2792.19,-1520.8C2534.55,-1475.69 1906.96,-1351.64 1773,-1193.2 1751.21,-1167.43 1732.86,-936.833 1726.98,-854.915"/>
<polygon fill="black" stroke="black" points="1730.46,-854.539 1726.26,-844.812 1723.48,-855.035 1730.46,-854.539"/>
</g>
<!-- Extensions_extendable_postcompose -->
<g id="node22" class="node"><title>Extensions_extendable_postcompose</title>
<a xlink:href="Extensions.html#extendable_postcompose" xlink:title="extendable_postcompose">
<ellipse fill="#f070d1" stroke="black" cx="3001" cy="-1166.2" rx="133.143" ry="18.3848"/>
<text text-anchor="middle" x="3001" y="-1162.6" font-family="Times Roman,serif" font-size="14.00">extendable_postcompose</text>
</a>
</g>
<!-- Extensions_ooextendable_postcompose&#45;&gt;Extensions_extendable_postcompose -->
<g id="edge30" class="edge"><title>Extensions_ooextendable_postcompose&#45;&gt;Extensions_extendable_postcompose</title>
<path fill="none" stroke="black" d="M2909.97,-1512.67C2927.81,-1444.76 2975.03,-1265.03 2993.47,-1194.85"/>
<polygon fill="black" stroke="black" points="2996.92,-1195.5 2996.08,-1184.93 2990.15,-1193.72 2996.92,-1195.5"/>
</g>
<!-- Extensions_equiv_ooextendable_isequiv -->
<g id="node10" class="node"><title>Extensions_equiv_ooextendable_isequiv</title>
<a xlink:href="Extensions.html#equiv_ooextendable_isequiv" xlink:title="equiv_ooextendable_isequiv">
<ellipse fill="#f070d1" stroke="black" cx="920" cy="-1539.2" rx="148.018" ry="18.3848"/>
<ellipse fill="none" stroke="black" cx="920" cy="-1539.2" rx="152.005" ry="22.3848"/>
<ellipse fill="none" stroke="black" cx="920" cy="-1539.2" rx="155.992" ry="26.3848"/>
<text text-anchor="middle" x="920" y="-1535.6" font-family="Times Roman,serif" font-size="14.00">equiv_ooextendable_isequiv</text>
</a>
</g>
<!-- Extensions_equiv_ooextendable_pathsplit -->
<g id="node12" class="node"><title>Extensions_equiv_ooextendable_pathsplit</title>
<a xlink:href="Extensions.html#equiv_ooextendable_pathsplit" xlink:title="equiv_ooextendable_pathsplit">
<ellipse fill="#f070d1" stroke="black" cx="173" cy="-1166.2" rx="156.978" ry="18.3848"/>
<text text-anchor="middle" x="173" y="-1162.6" font-family="Times Roman,serif" font-size="14.00">equiv_ooextendable_pathsplit</text>
</a>
</g>
<!-- Extensions_equiv_ooextendable_isequiv&#45;&gt;Extensions_equiv_ooextendable_pathsplit -->
<g id="edge32" class="edge"><title>Extensions_equiv_ooextendable_isequiv&#45;&gt;Extensions_equiv_ooextendable_pathsplit</title>
<path fill="none" stroke="black" d="M869.535,-1514C731.585,-1445.12 349.729,-1254.45 218.207,-1188.77"/>
<polygon fill="black" stroke="black" points="219.687,-1185.6 209.177,-1184.26 216.56,-1191.86 219.687,-1185.6"/>
</g>
<!-- Extensions_equiv_ooextendable_isequiv&#45;&gt;Extensions_ooExtendableAlong -->
<g id="edge34" class="edge"><title>Extensions_equiv_ooextendable_isequiv&#45;&gt;Extensions_ooExtendableAlong</title>
<path fill="none" stroke="black" d="M1050.34,-1524.63C1233.58,-1496.44 1561.85,-1416.02 1713,-1193.2 1785.18,-1086.78 1751.07,-920.22 1733.35,-854.359"/>
<polygon fill="black" stroke="black" points="1736.71,-853.379 1730.67,-844.678 1729.96,-855.249 1736.71,-853.379"/>
</g>
<!-- Extensions_ishprop_ooextendable -->
<g id="node11" class="node"><title>Extensions_ishprop_ooextendable</title>
<a xlink:href="Extensions.html#ishprop_ooextendable" xlink:title="ishprop_ooextendable">
<ellipse fill="#f070d1" stroke="black" cx="1578" cy="-1166.2" rx="118.087" ry="18.3848"/>
<ellipse fill="none" stroke="black" cx="1578" cy="-1166.2" rx="122.087" ry="22.3848"/>
<ellipse fill="none" stroke="black" cx="1578" cy="-1166.2" rx="126.087" ry="26.3848"/>
<text text-anchor="middle" x="1578" y="-1162.6" font-family="Times Roman,serif" font-size="14.00">ishprop_ooextendable</text>
</a>
</g>
<!-- Extensions_ishprop_ooextendable&#45;&gt;Extensions_ooExtendableAlong -->
<g id="edge36" class="edge"><title>Extensions_ishprop_ooextendable&#45;&gt;Extensions_ooExtendableAlong</title>
<path fill="none" stroke="black" d="M1589.41,-1139.8C1616.56,-1077.01 1684.81,-919.158 1712.77,-854.494"/>
<polygon fill="black" stroke="black" points="1716.14,-855.513 1716.9,-844.945 1709.71,-852.735 1716.14,-855.513"/>
</g>
<!-- Extensions_equiv_extendable_pathsplit -->
<g id="node27" class="node"><title>Extensions_equiv_extendable_pathsplit</title>
<a xlink:href="Extensions.html#equiv_extendable_pathsplit" xlink:title="equiv_extendable_pathsplit">
<ellipse fill="#f070d1" stroke="black" cx="602" cy="-826.2" rx="145.163" ry="18.3848"/>
<text text-anchor="middle" x="602" y="-822.6" font-family="Times Roman,serif" font-size="14.00">equiv_extendable_pathsplit</text>
</a>
</g>
<!-- Extensions_equiv_ooextendable_pathsplit&#45;&gt;Extensions_equiv_extendable_pathsplit -->
<g id="edge38" class="edge"><title>Extensions_equiv_ooextendable_pathsplit&#45;&gt;Extensions_equiv_extendable_pathsplit</title>
<path fill="none" stroke="black" d="M196.37,-1147.68C268.72,-1090.34 489.067,-915.704 570.937,-850.818"/>
<polygon fill="black" stroke="black" points="573.208,-853.485 578.871,-844.531 568.86,-847.999 573.208,-853.485"/>
</g>
<!-- Extensions_isequiv_ooextendable -->
<g id="node13" class="node"><title>Extensions_isequiv_ooextendable</title>
<a xlink:href="Extensions.html#isequiv_ooextendable" xlink:title="isequiv_ooextendable">
<ellipse fill="#f070d1" stroke="black" cx="1028" cy="-1166.2" rx="116.204" ry="18.3848"/>
<ellipse fill="none" stroke="black" cx="1028" cy="-1166.2" rx="120.188" ry="22.3848"/>
<ellipse fill="none" stroke="black" cx="1028" cy="-1166.2" rx="124.172" ry="26.3848"/>
<text text-anchor="middle" x="1028" y="-1162.6" font-family="Times Roman,serif" font-size="14.00">isequiv_ooextendable</text>
</a>
</g>
<!-- Extensions_isequiv_ooextendable&#45;&gt;Extensions_ooExtendableAlong -->
<g id="edge40" class="edge"><title>Extensions_isequiv_ooextendable&#45;&gt;Extensions_ooExtendableAlong</title>
<path fill="none" stroke="black" d="M1077.85,-1141.88C1207.81,-1078.49 1555.56,-908.853 1679.97,-848.168"/>
<polygon fill="black" stroke="black" points="1681.77,-851.18 1689.23,-843.65 1678.7,-844.889 1681.77,-851.18"/>
</g>
<!-- Extensions_isequiv_extendable -->
<g id="node26" class="node"><title>Extensions_isequiv_extendable</title>
<a xlink:href="Extensions.html#isequiv_extendable" xlink:title="isequiv_extendable">
<ellipse fill="#f070d1" stroke="black" cx="1086" cy="-826.2" rx="104.86" ry="18.3848"/>
<text text-anchor="middle" x="1086" y="-822.6" font-family="Times Roman,serif" font-size="14.00">isequiv_extendable</text>
</a>
</g>
<!-- Extensions_isequiv_ooextendable&#45;&gt;Extensions_isequiv_extendable -->
<g id="edge42" class="edge"><title>Extensions_isequiv_ooextendable&#45;&gt;Extensions_isequiv_extendable</title>
<path fill="none" stroke="black" d="M1032.55,-1139.52C1043.28,-1076.65 1070.07,-919.608 1081.12,-854.832"/>
<polygon fill="black" stroke="black" points="1084.58,-855.35 1082.81,-844.903 1077.68,-854.172 1084.58,-855.35"/>
</g>
<!-- Extensions_ExtendableAlong -->
<g id="node28" class="node"><title>Extensions_ExtendableAlong</title>
<a xlink:href="Extensions.html#ExtendableAlong" xlink:title="ExtendableAlong">
<ellipse fill="#f070d1" stroke="black" cx="2079" cy="-485.2" rx="94.0452" ry="18.3848"/>
<text text-anchor="middle" x="2079" y="-481.6" font-family="Times Roman,serif" font-size="14.00">ExtendableAlong</text>
</a>
</g>
<!-- Extensions_ooExtendableAlong&#45;&gt;Extensions_ExtendableAlong -->
<g id="edge44" class="edge"><title>Extensions_ooExtendableAlong&#45;&gt;Extensions_ExtendableAlong</title>
<path fill="none" stroke="black" d="M1744.03,-807.866C1803.22,-750.855 1984.15,-576.57 2052.49,-510.739"/>
<polygon fill="black" stroke="black" points="2055.1,-513.083 2059.87,-503.624 2050.24,-508.041 2055.1,-513.083"/>
</g>
<!-- Extensions_extendable_homotopy&#45;&gt;Extensions_ExtendableAlong -->
<g id="edge46" class="edge"><title>Extensions_extendable_homotopy&#45;&gt;Extensions_ExtendableAlong</title>
<path fill="none" stroke="black" d="M2444.25,-807.866C2379.58,-750.739 2181.63,-575.862 2107.46,-510.34"/>
<polygon fill="black" stroke="black" points="2109.67,-507.622 2099.86,-503.624 2105.03,-512.868 2109.67,-507.622"/>
</g>
<!-- Extensions_extendable_contr&#45;&gt;Extensions_ExtendableAlong -->
<g id="edge48" class="edge"><title>Extensions_extendable_contr&#45;&gt;Extensions_ExtendableAlong</title>
<path fill="none" stroke="black" d="M3372.47,-811.438C3153.24,-756.145 2381.29,-561.444 2146.96,-502.34"/>
<polygon fill="black" stroke="black" points="2147.75,-498.93 2137.19,-499.878 2146.03,-505.717 2147.75,-498.93"/>
</g>
<!-- Extensions_extendable_equiv&#45;&gt;Extensions_ExtendableAlong -->
<g id="edge50" class="edge"><title>Extensions_extendable_equiv&#45;&gt;Extensions_ExtendableAlong</title>
<path fill="none" stroke="black" d="M3081.67,-810.21C2907.97,-753.907 2325.06,-564.958 2137.6,-504.194"/>
<polygon fill="black" stroke="black" points="2138.51,-500.811 2127.92,-501.057 2136.35,-507.47 2138.51,-500.811"/>
</g>
<!-- Extensions_extendable_homotopic&#45;&gt;Extensions_ExtendableAlong -->
<g id="edge52" class="edge"><title>Extensions_extendable_homotopic&#45;&gt;Extensions_ExtendableAlong</title>
<path fill="none" stroke="black" d="M2196.16,-807.381C2175.54,-750.673 2113.91,-581.196 2089.31,-513.546"/>
<polygon fill="black" stroke="black" points="2092.53,-512.163 2085.82,-503.961 2085.95,-514.555 2092.53,-512.163"/>
</g>
<!-- Extensions_cancelR_extendable&#45;&gt;Extensions_ExtendableAlong -->
<g id="edge54" class="edge"><title>Extensions_cancelR_extendable&#45;&gt;Extensions_ExtendableAlong</title>
<path fill="none" stroke="black" d="M1962.79,-807.381C1983.24,-750.673 2044.37,-581.196 2068.78,-513.546"/>
<polygon fill="black" stroke="black" points="2072.13,-514.556 2072.23,-503.961 2065.55,-512.18 2072.13,-514.556"/>
</g>
<!-- Extensions_extendable_postcompose_ -->
<g id="node23" class="node"><title>Extensions_extendable_postcompose_</title>
<a xlink:href="Extensions.html#extendable_postcompose&#39;" xlink:title="extendable_postcompose&#39;">
<ellipse fill="#f070d1" stroke="black" cx="2743" cy="-826.2" rx="135.765" ry="18.3848"/>
<text text-anchor="middle" x="2743" y="-822.6" font-family="Times Roman,serif" font-size="14.00">extendable_postcompose&#39;</text>
</a>
</g>
<!-- Extensions_cancelL_extendable&#45;&gt;Extensions_extendable_postcompose_ -->
<g id="edge56" class="edge"><title>Extensions_cancelL_extendable&#45;&gt;Extensions_extendable_postcompose_</title>
<path fill="none" stroke="black" d="M2743,-1147.44C2743,-1091.13 2743,-923.301 2743,-855.299"/>
<polygon fill="black" stroke="black" points="2746.5,-854.906 2743,-844.906 2739.5,-854.906 2746.5,-854.906"/>
</g>
<!-- Extensions_extendable_compose&#45;&gt;Extensions_ExtendableAlong -->
<g id="edge58" class="edge"><title>Extensions_extendable_compose&#45;&gt;Extensions_ExtendableAlong</title>
<path fill="none" stroke="black" d="M1466.82,-808.346C1575.75,-750.85 1917.25,-570.583 2037,-507.371"/>
<polygon fill="black" stroke="black" points="2038.69,-510.436 2045.9,-502.673 2035.42,-504.246 2038.69,-510.436"/>
</g>
<!-- Extensions_extendable_postcompose&#45;&gt;Extensions_extendable_postcompose_ -->
<g id="edge60" class="edge"><title>Extensions_extendable_postcompose&#45;&gt;Extensions_extendable_postcompose_</title>
<path fill="none" stroke="black" d="M2986.76,-1147.44C2943.59,-1090.55 2814.05,-919.829 2763.51,-853.228"/>
<polygon fill="black" stroke="black" points="2766.03,-850.757 2757.19,-844.906 2760.45,-854.988 2766.03,-850.757"/>
</g>
<!-- Extensions_extendable_postcompose_&#45;&gt;Extensions_ExtendableAlong -->
<g id="edge62" class="edge"><title>Extensions_extendable_postcompose_&#45;&gt;Extensions_ExtendableAlong</title>
<path fill="none" stroke="black" d="M2707.77,-808.107C2595.28,-750.337 2244.91,-570.406 2122.08,-507.323"/>
<polygon fill="black" stroke="black" points="2123.44,-504.09 2112.95,-502.635 2120.25,-510.317 2123.44,-504.09"/>
</g>
<!-- Extensions_equiv_extendable_isequiv -->
<g id="node24" class="node"><title>Extensions_equiv_extendable_isequiv</title>
<a xlink:href="Extensions.html#equiv_extendable_isequiv" xlink:title="equiv_extendable_isequiv">
<ellipse fill="#f070d1" stroke="black" cx="741" cy="-1166.2" rx="137.179" ry="18.3848"/>
<ellipse fill="none" stroke="black" cx="741" cy="-1166.2" rx="141.179" ry="22.3848"/>
<ellipse fill="none" stroke="black" cx="741" cy="-1166.2" rx="145.179" ry="26.3848"/>
<text text-anchor="middle" x="741" y="-1162.6" font-family="Times Roman,serif" font-size="14.00">equiv_extendable_isequiv</text>
</a>
</g>
<!-- Extensions_equiv_extendable_isequiv&#45;&gt;Extensions_equiv_extendable_pathsplit -->
<g id="edge64" class="edge"><title>Extensions_equiv_extendable_isequiv&#45;&gt;Extensions_equiv_extendable_pathsplit</title>
<path fill="none" stroke="black" d="M730.093,-1139.52C704.335,-1076.52 639.922,-918.96 613.542,-854.432"/>
<polygon fill="black" stroke="black" points="616.67,-852.835 609.646,-844.903 610.191,-855.484 616.67,-852.835"/>
</g>
<!-- Extensions_ishprop_extendable -->
<g id="node25" class="node"><title>Extensions_ishprop_extendable</title>
<a xlink:href="Extensions.html#ishprop_extendable" xlink:title="ishprop_extendable">
<ellipse fill="#f070d1" stroke="black" cx="463" cy="-1166.2" rx="106.773" ry="18.3848"/>
<ellipse fill="none" stroke="black" cx="463" cy="-1166.2" rx="110.773" ry="22.3848"/>
<ellipse fill="none" stroke="black" cx="463" cy="-1166.2" rx="114.773" ry="26.3848"/>
<text text-anchor="middle" x="463" y="-1162.6" font-family="Times Roman,serif" font-size="14.00">ishprop_extendable</text>
</a>
</g>
<!-- Extensions_ishprop_extendable&#45;&gt;Extensions_equiv_extendable_pathsplit -->
<g id="edge66" class="edge"><title>Extensions_ishprop_extendable&#45;&gt;Extensions_equiv_extendable_pathsplit</title>
<path fill="none" stroke="black" d="M473.791,-1139.8C499.463,-1077.01 563.997,-919.158 590.433,-854.494"/>
<polygon fill="black" stroke="black" points="593.792,-855.526 594.337,-844.945 587.313,-852.877 593.792,-855.526"/>
</g>
<!-- Extensions_isequiv_extendable&#45;&gt;Extensions_ExtendableAlong -->
<g id="edge68" class="edge"><title>Extensions_isequiv_extendable&#45;&gt;Extensions_ExtendableAlong</title>
<path fill="none" stroke="black" d="M1134.23,-809.638C1299.86,-752.76 1844.97,-565.565 2022.54,-504.588"/>
<polygon fill="black" stroke="black" points="2023.89,-507.825 2032.21,-501.267 2021.62,-501.204 2023.89,-507.825"/>
</g>
<!-- Extensions_equiv_extendable_pathsplit&#45;&gt;Extensions_ExtendableAlong -->
<g id="edge70" class="edge"><title>Extensions_equiv_extendable_pathsplit&#45;&gt;Extensions_ExtendableAlong</title>
<path fill="none" stroke="black" d="M675.551,-810.252C881.423,-765.427 1480.8,-633.656 1976,-512.2 1988.11,-509.229 2000.99,-505.949 2013.4,-502.729"/>
<polygon fill="black" stroke="black" points="2014.43,-506.078 2023.22,-500.166 2012.66,-499.304 2014.43,-506.078"/>
</g>
<!-- Extensions_ExtensionAlong -->
<g id="node31" class="node"><title>Extensions_ExtensionAlong</title>
<a xlink:href="Extensions.html#ExtensionAlong" xlink:title="ExtensionAlong">
<ellipse fill="#f070d1" stroke="black" cx="1833" cy="-145.2" rx="87.1802" ry="18.3848"/>
<text text-anchor="middle" x="1833" y="-141.6" font-family="Times Roman,serif" font-size="14.00">ExtensionAlong</text>
</a>
</g>
<!-- Extensions_ExtendableAlong&#45;&gt;Extensions_ExtensionAlong -->
<g id="edge72" class="edge"><title>Extensions_ExtendableAlong&#45;&gt;Extensions_ExtensionAlong</title>
<path fill="none" stroke="black" d="M2065.42,-466.436C2024.17,-409.413 1900.16,-238.028 1852.22,-171.761"/>
<polygon fill="black" stroke="black" points="1854.93,-169.541 1846.23,-163.491 1849.26,-173.645 1854.93,-169.541"/>
</g>
<!-- Extensions_isequiv_path_extension -->
<g id="node29" class="node"><title>Extensions_isequiv_path_extension</title>
<a xlink:href="Extensions.html#isequiv_path_extension" xlink:title="isequiv_path_extension">
<ellipse fill="#facdef" stroke="black" cx="1833" cy="-485.2" rx="126.102" ry="18.3848"/>
<ellipse fill="none" stroke="black" cx="1833" cy="-485.2" rx="130.087" ry="22.3848"/>
<ellipse fill="none" stroke="black" cx="1833" cy="-485.2" rx="134.072" ry="26.3848"/>
<text text-anchor="middle" x="1833" y="-481.6" font-family="Times Roman,serif" font-size="14.00">isequiv_path_extension</text>
</a>
</g>
<!-- Extensions_isequiv_path_extension&#45;&gt;Extensions_ExtensionAlong -->
<g id="edge74" class="edge"><title>Extensions_isequiv_path_extension&#45;&gt;Extensions_ExtensionAlong</title>
<path fill="none" stroke="black" d="M1833,-458.521C1833,-395.775 1833,-239.255 1833,-174.234"/>
<polygon fill="black" stroke="black" points="1836.5,-173.903 1833,-163.903 1829.5,-173.903 1836.5,-173.903"/>
</g>
<!-- Extensions_path_extension -->
<g id="node30" class="node"><title>Extensions_path_extension</title>
<a xlink:href="Extensions.html#path_extension" xlink:title="path_extension">
<ellipse fill="#f070d1" stroke="black" cx="1586" cy="-485.2" rx="86.9741" ry="18.3848"/>
<ellipse fill="none" stroke="black" cx="1586" cy="-485.2" rx="90.9741" ry="22.3848"/>
<ellipse fill="none" stroke="black" cx="1586" cy="-485.2" rx="94.9741" ry="26.3848"/>
<text text-anchor="middle" x="1586" y="-481.6" font-family="Times Roman,serif" font-size="14.00">path_extension</text>
</a>
</g>
<!-- Extensions_path_extension&#45;&gt;Extensions_ExtensionAlong -->
<g id="edge76" class="edge"><title>Extensions_path_extension&#45;&gt;Extensions_ExtensionAlong</title>
<path fill="none" stroke="black" d="M1604.97,-459.085C1650.82,-395.967 1767.29,-235.646 1813.59,-171.916"/>
<polygon fill="black" stroke="black" points="1816.6,-173.732 1819.64,-163.584 1810.94,-169.618 1816.6,-173.732"/>
</g>
</g>
</svg>
