<?xml version="1.0" encoding="UTF-8" standalone="no"?>
<!DOCTYPE svg PUBLIC "-//W3C//DTD SVG 1.1//EN"
 "http://www.w3.org/Graphics/SVG/1.1/DTD/svg11.dtd">
<!-- Generated by graphviz version 2.26.3 (20100126.1600)
 -->
<!-- Title: HoTT_Types_Equiv Pages: 1 -->
<svg width="856pt" height="432pt"
 viewBox="0.00 0.00 856.00 432.00" xmlns="http://www.w3.org/2000/svg" xmlns:xlink="http://www.w3.org/1999/xlink">
<g id="graph1" class="graph" transform="scale(1 1) rotate(0) translate(4 428)">
<title>HoTT_Types_Equiv</title>
<polygon fill="white" stroke="white" points="-4,5 -4,-428 853,-428 853,5 -4,5"/>
<g id="graph2" class="cluster"><title>cluster_Equiv</title>
<polygon fill="#ffffc3" stroke="black" points="9.02128,-8 9.02128,-416 838.979,-416 838.979,-8 9.02128,-8"/>
<text text-anchor="middle" x="36.5213" y="-399.4" font-family="Times Roman,serif" font-size="14.00">Equiv</text>
</g>
<!-- Equiv_equiv_functor_equiv -->
<g id="node1" class="node"><title>Equiv_equiv_functor_equiv</title>
<a xlink:href="Equiv.html#equiv_functor_equiv" xlink:title="equiv_functor_equiv">
<ellipse fill="#f070d1" stroke="black" cx="697.128" cy="-355" rx="109.843" ry="18.3848"/>
<ellipse fill="none" stroke="black" cx="697.128" cy="-355" rx="113.826" ry="22.3848"/>
<ellipse fill="none" stroke="black" cx="697.128" cy="-355" rx="117.809" ry="26.3848"/>
<text text-anchor="middle" x="697.128" y="-351.4" font-family="Times Roman,serif" font-size="14.00">equiv_functor_equiv</text>
</a>
</g>
<!-- Equiv_isequiv_functor_equiv -->
<g id="node2" class="node"><title>Equiv_isequiv_functor_equiv</title>
<a xlink:href="Equiv.html#isequiv_functor_equiv" xlink:title="isequiv_functor_equiv">
<ellipse fill="#f070d1" stroke="black" cx="697.128" cy="-265" rx="118.087" ry="18.3848"/>
<text text-anchor="middle" x="697.128" y="-261.4" font-family="Times Roman,serif" font-size="14.00">isequiv_functor_equiv</text>
</a>
</g>
<!-- Equiv_equiv_functor_equiv&#45;&gt;Equiv_isequiv_functor_equiv -->
<g id="edge2" class="edge"><title>Equiv_equiv_functor_equiv&#45;&gt;Equiv_isequiv_functor_equiv</title>
<path fill="none" stroke="black" d="M697.128,-328.484C697.128,-317.56 697.128,-304.878 697.128,-293.734"/>
<polygon fill="black" stroke="black" points="700.628,-293.628 697.128,-283.628 693.628,-293.628 700.628,-293.628"/>
</g>
<!-- Equiv_functor_equiv -->
<g id="node3" class="node"><title>Equiv_functor_equiv</title>
<a xlink:href="Equiv.html#functor_equiv" xlink:title="functor_equiv">
<ellipse fill="#f070d1" stroke="black" cx="697.128" cy="-183" rx="77.9889" ry="18.3848"/>
<text text-anchor="middle" x="697.128" y="-179.4" font-family="Times Roman,serif" font-size="14.00">functor_equiv</text>
</a>
</g>
<!-- Equiv_isequiv_functor_equiv&#45;&gt;Equiv_functor_equiv -->
<g id="edge4" class="edge"><title>Equiv_isequiv_functor_equiv&#45;&gt;Equiv_functor_equiv</title>
<path fill="none" stroke="black" d="M697.128,-246.393C697.128,-236.118 697.128,-223.137 697.128,-211.602"/>
<polygon fill="black" stroke="black" points="700.628,-211.533 697.128,-201.533 693.628,-211.533 700.628,-211.533"/>
</g>
<!-- Equiv_path_equiv -->
<g id="node7" class="node"><title>Equiv_path_equiv</title>
<a xlink:href="Equiv.html#path_equiv" xlink:title="path_equiv">
<ellipse fill="#f070d1" stroke="black" cx="387.128" cy="-183" rx="65.7609" ry="18.3848"/>
<text text-anchor="middle" x="387.128" y="-179.4" font-family="Times Roman,serif" font-size="14.00">path_equiv</text>
</a>
</g>
<!-- Equiv_isequiv_functor_equiv&#45;&gt;Equiv_path_equiv -->
<g id="edge6" class="edge"><title>Equiv_isequiv_functor_equiv&#45;&gt;Equiv_path_equiv</title>
<path fill="none" stroke="black" d="M636.621,-248.995C581.217,-234.34 499.768,-212.795 445.158,-198.35"/>
<polygon fill="black" stroke="black" points="445.849,-194.912 435.286,-195.739 444.059,-201.68 445.849,-194.912"/>
</g>
<!-- Equiv_contr_equiv_contr_contr -->
<g id="node4" class="node"><title>Equiv_contr_equiv_contr_contr</title>
<a xlink:href="Equiv.html#contr_equiv_contr_contr" xlink:title="contr_equiv_contr_contr">
<ellipse fill="#f070d1" stroke="black" cx="387.128" cy="-265" rx="130.815" ry="18.3848"/>
<ellipse fill="none" stroke="black" cx="387.128" cy="-265" rx="134.815" ry="22.3848"/>
<ellipse fill="none" stroke="black" cx="387.128" cy="-265" rx="138.815" ry="26.3848"/>
<text text-anchor="middle" x="387.128" y="-261.4" font-family="Times Roman,serif" font-size="14.00">contr_equiv_contr_contr</text>
</a>
</g>
<!-- Equiv_contr_equiv_contr_contr&#45;&gt;Equiv_path_equiv -->
<g id="edge8" class="edge"><title>Equiv_contr_equiv_contr_contr&#45;&gt;Equiv_path_equiv</title>
<path fill="none" stroke="black" d="M387.128,-238.15C387.128,-229.743 387.128,-220.43 387.128,-211.889"/>
<polygon fill="black" stroke="black" points="390.628,-211.607 387.128,-201.607 383.628,-211.607 390.628,-211.607"/>
</g>
<!-- Equiv_istrunc_equiv -->
<g id="node5" class="node"><title>Equiv_istrunc_equiv</title>
<a xlink:href="Equiv.html#istrunc_equiv" xlink:title="istrunc_equiv">
<ellipse fill="#f070d1" stroke="black" cx="114.128" cy="-265" rx="77.0746" ry="18.3848"/>
<ellipse fill="none" stroke="black" cx="114.128" cy="-265" rx="81.0746" ry="22.3848"/>
<ellipse fill="none" stroke="black" cx="114.128" cy="-265" rx="85.0746" ry="26.3848"/>
<text text-anchor="middle" x="114.128" y="-261.4" font-family="Times Roman,serif" font-size="14.00">istrunc_equiv</text>
</a>
</g>
<!-- Equiv_isequiv_path_equiv -->
<g id="node6" class="node"><title>Equiv_isequiv_path_equiv</title>
<a xlink:href="Equiv.html#isequiv_path_equiv" xlink:title="isequiv_path_equiv">
<ellipse fill="#f070d1" stroke="black" cx="154.128" cy="-183" rx="104.86" ry="18.3848"/>
<text text-anchor="middle" x="154.128" y="-179.4" font-family="Times Roman,serif" font-size="14.00">isequiv_path_equiv</text>
</a>
</g>
<!-- Equiv_istrunc_equiv&#45;&gt;Equiv_isequiv_path_equiv -->
<g id="edge10" class="edge"><title>Equiv_istrunc_equiv&#45;&gt;Equiv_isequiv_path_equiv</title>
<path fill="none" stroke="black" d="M127.004,-238.603C131.377,-229.638 136.273,-219.602 140.689,-210.549"/>
<polygon fill="black" stroke="black" points="143.837,-212.08 145.075,-201.557 137.545,-209.011 143.837,-212.08"/>
</g>
<!-- Equiv_equiv_path_equiv -->
<g id="node8" class="node"><title>Equiv_equiv_path_equiv</title>
<a xlink:href="Equiv.html#equiv_path_equiv" xlink:title="equiv_path_equiv">
<ellipse fill="#f070d1" stroke="black" cx="271.128" cy="-109" rx="97.0803" ry="18.3848"/>
<text text-anchor="middle" x="271.128" y="-105.4" font-family="Times Roman,serif" font-size="14.00">equiv_path_equiv</text>
</a>
</g>
<!-- Equiv_isequiv_path_equiv&#45;&gt;Equiv_equiv_path_equiv -->
<g id="edge12" class="edge"><title>Equiv_isequiv_path_equiv&#45;&gt;Equiv_equiv_path_equiv</title>
<path fill="none" stroke="black" d="M182.45,-165.087C198.115,-155.179 217.755,-142.757 234.568,-132.123"/>
<polygon fill="black" stroke="black" points="236.485,-135.052 243.066,-126.748 232.744,-129.136 236.485,-135.052"/>
</g>
<!-- Equiv_path_equiv&#45;&gt;Equiv_equiv_path_equiv -->
<g id="edge14" class="edge"><title>Equiv_path_equiv&#45;&gt;Equiv_equiv_path_equiv</title>
<path fill="none" stroke="black" d="M360.515,-166.023C344.908,-156.067 324.962,-143.342 307.873,-132.441"/>
<polygon fill="black" stroke="black" points="309.548,-129.358 299.235,-126.93 305.783,-135.259 309.548,-129.358"/>
</g>
<!-- Equiv_hprop_isequiv -->
<g id="node9" class="node"><title>Equiv_hprop_isequiv</title>
<a xlink:href="Equiv.html#hprop_isequiv" xlink:title="hprop_isequiv">
<ellipse fill="#facdef" stroke="black" cx="271.128" cy="-35" rx="79.196" ry="18.3848"/>
<text text-anchor="middle" x="271.128" y="-31.4" font-family="Times Roman,serif" font-size="14.00">hprop_isequiv</text>
</a>
</g>
<!-- Equiv_equiv_path_equiv&#45;&gt;Equiv_hprop_isequiv -->
<g id="edge16" class="edge"><title>Equiv_equiv_path_equiv&#45;&gt;Equiv_hprop_isequiv</title>
<path fill="none" stroke="black" d="M271.128,-90.3267C271.128,-82.2639 271.128,-72.6477 271.128,-63.7115"/>
<polygon fill="black" stroke="black" points="274.628,-63.6673 271.128,-53.6674 267.628,-63.6674 274.628,-63.6673"/>
</g>
</g>
</svg>
