<?xml version="1.0" encoding="UTF-8" standalone="no"?>
<!DOCTYPE svg PUBLIC "-//W3C//DTD SVG 1.1//EN"
 "http://www.w3.org/Graphics/SVG/1.1/DTD/svg11.dtd">
<!-- Generated by graphviz version 2.39.20141222.0545 (20141222.0545)
 -->
<!-- Title: HoTT_categories_CategoryOfSections Pages: 1 -->
<svg width="2981pt" height="1495pt"
 viewBox="0.00 0.00 2981.00 1494.50" xmlns="http://www.w3.org/2000/svg" xmlns:xlink="http://www.w3.org/1999/xlink">
<g id="graph0" class="graph" transform="scale(1 1) rotate(0) translate(4 1490.5)">
<title>HoTT_categories_CategoryOfSections</title>
<polygon fill="white" stroke="transparent" points="-4,4 -4,-1490.5 2977,-1490.5 2977,4 -4,4"/>
<g id="clust1" class="cluster"><title>cluster_CategoryOfSections</title>
<polygon fill="#ffffc3" stroke="black" points="8,-365.397 8,-1453.28 1581,-1453.28 1581,-365.397 8,-365.397"/>
<text text-anchor="middle" x="71" y="-1438.08" font-family="Times,serif" font-size="14.00">CategoryOfSections</text>
</g>
<g id="clust2" class="cluster"><title>cluster_Core</title>
<polygon fill="#ffffc3" stroke="black" points="1589,-33.2179 1589,-1075.43 2965,-1075.43 2965,-33.2179 1589,-33.2179"/>
<text text-anchor="middle" x="1610.5" y="-1060.23" font-family="Times,serif" font-size="14.00">Core</text>
</g>
<!-- Core_isstrict_category_of_sections -->
<g id="node1" class="node"><title>Core_isstrict_category_of_sections</title>
<g id="a_node1"><a xlink:href="Core.html#isstrict_category_of_sections" xlink:title="isstrict_category_of_sections">
<ellipse fill="#facdef" stroke="black" cx="2844" cy="-839.218" rx="113.18" ry="18"/>
<text text-anchor="middle" x="2844" y="-835.518" font-family="Times,serif" font-size="14.00">isstrict_category_of_sections</text>
</a>
</g>
</g>
<!-- Core_SectionOfFunctor -->
<g id="node13" class="node"><title>Core_SectionOfFunctor</title>
<g id="a_node13"><a xlink:href="Core.html#SectionOfFunctor" xlink:title="SectionOfFunctor">
<ellipse fill="#e2cdfa" stroke="black" cx="2884" cy="-473.218" rx="73.387" ry="18"/>
<text text-anchor="middle" x="2884" y="-469.518" font-family="Times,serif" font-size="14.00">SectionOfFunctor</text>
</a>
</g>
</g>
<!-- Core_isstrict_category_of_sections&#45;&gt;Core_SectionOfFunctor -->
<g id="edge1" class="edge"><title>Core_isstrict_category_of_sections&#45;&gt;Core_SectionOfFunctor</title>
<path fill="none" stroke="black" d="M2845.98,-821.068C2852.46,-761.798 2873.03,-573.616 2880.9,-501.614"/>
<polygon fill="black" stroke="black" points="2884.4,-501.799 2882,-491.477 2877.44,-501.038 2884.4,-501.799"/>
</g>
<!-- Core_category_of_sections -->
<g id="node2" class="node"><title>Core_category_of_sections</title>
<g id="a_node2"><a xlink:href="Core.html#category_of_sections" xlink:title="category_of_sections">
<ellipse fill="#f070d1" stroke="black" cx="2196" cy="-839.218" rx="85.2729" ry="18"/>
<ellipse fill="none" stroke="black" cx="2196" cy="-839.218" rx="89.279" ry="22"/>
<ellipse fill="none" stroke="black" cx="2196" cy="-839.218" rx="93.2851" ry="26"/>
<text text-anchor="middle" x="2196" y="-835.518" font-family="Times,serif" font-size="14.00">category_of_sections</text>
</a>
</g>
</g>
<!-- Core_category_of_sections_subproof1 -->
<g id="node3" class="node"><title>Core_category_of_sections_subproof1</title>
<g id="a_node3"><a xlink:href="Core.html#category_of_sections_subproof1" xlink:title="category_of_sections_subproof1">
<ellipse fill="#facdef" stroke="black" cx="1722" cy="-473.218" rx="125.378" ry="18"/>
<text text-anchor="middle" x="1722" y="-469.518" font-family="Times,serif" font-size="14.00">category_of_sections_subproof1</text>
</a>
</g>
</g>
<!-- Core_category_of_sections&#45;&gt;Core_category_of_sections_subproof1 -->
<g id="edge2" class="edge"><title>Core_category_of_sections&#45;&gt;Core_category_of_sections_subproof1</title>
<path fill="none" stroke="black" d="M2164.16,-814.635C2077.58,-747.782 1838.61,-563.262 1753.01,-497.163"/>
<polygon fill="black" stroke="black" points="1755.04,-494.304 1744.98,-490.963 1750.76,-499.845 1755.04,-494.304"/>
</g>
<!-- Core_category_of_sections_subproof0 -->
<g id="node4" class="node"><title>Core_category_of_sections_subproof0</title>
<g id="a_node4"><a xlink:href="Core.html#category_of_sections_subproof0" xlink:title="category_of_sections_subproof0">
<ellipse fill="#facdef" stroke="black" cx="2208" cy="-473.218" rx="125.378" ry="18"/>
<text text-anchor="middle" x="2208" y="-469.518" font-family="Times,serif" font-size="14.00">category_of_sections_subproof0</text>
</a>
</g>
</g>
<!-- Core_category_of_sections&#45;&gt;Core_category_of_sections_subproof0 -->
<g id="edge3" class="edge"><title>Core_category_of_sections&#45;&gt;Core_category_of_sections_subproof0</title>
<path fill="none" stroke="black" d="M2196.85,-813.189C2199.03,-746.686 2204.8,-570.913 2207.06,-501.752"/>
<polygon fill="black" stroke="black" points="2210.57,-501.71 2207.4,-491.601 2203.57,-501.48 2210.57,-501.71"/>
</g>
<!-- Core_category_of_sections_subproof -->
<g id="node5" class="node"><title>Core_category_of_sections_subproof</title>
<g id="a_node5"><a xlink:href="Core.html#category_of_sections_subproof" xlink:title="category_of_sections_subproof">
<ellipse fill="#facdef" stroke="black" cx="2472" cy="-473.218" rx="120.779" ry="18"/>
<text text-anchor="middle" x="2472" y="-469.518" font-family="Times,serif" font-size="14.00">category_of_sections_subproof</text>
</a>
</g>
</g>
<!-- Core_category_of_sections&#45;&gt;Core_category_of_sections_subproof -->
<g id="edge4" class="edge"><title>Core_category_of_sections&#45;&gt;Core_category_of_sections_subproof</title>
<path fill="none" stroke="black" d="M2215.19,-813.772C2265.6,-746.924 2401.39,-566.849 2452.34,-499.294"/>
<polygon fill="black" stroke="black" points="2455.17,-501.353 2458.39,-491.262 2449.58,-497.138 2455.17,-501.353"/>
</g>
<!-- Core_section_of_functor_sig -->
<g id="node6" class="node"><title>Core_section_of_functor_sig</title>
<g id="a_node6"><a xlink:href="Core.html#section_of_functor_sig" xlink:title="section_of_functor_sig">
<ellipse fill="#f070d1" stroke="black" cx="1965" cy="-473.218" rx="91.7725" ry="18"/>
<ellipse fill="none" stroke="black" cx="1965" cy="-473.218" rx="95.7782" ry="22"/>
<ellipse fill="none" stroke="black" cx="1965" cy="-473.218" rx="99.7839" ry="26"/>
<text text-anchor="middle" x="1965" y="-469.518" font-family="Times,serif" font-size="14.00">section_of_functor_sig</text>
</a>
</g>
</g>
<!-- Core_Build_SectionOfFunctor -->
<g id="node12" class="node"><title>Core_Build_SectionOfFunctor</title>
<g id="a_node12"><a xlink:href="Core.html#Build_SectionOfFunctor" xlink:title="Build_SectionOfFunctor">
<ellipse fill="#7faaff" stroke="black" cx="2333" cy="-141.218" rx="97.4827" ry="18"/>
<text text-anchor="middle" x="2333" y="-137.518" font-family="Times,serif" font-size="14.00">Build_SectionOfFunctor</text>
</a>
</g>
</g>
<!-- Core_section_of_functor_sig&#45;&gt;Core_Build_SectionOfFunctor -->
<g id="edge5" class="edge"><title>Core_section_of_functor_sig&#45;&gt;Core_Build_SectionOfFunctor</title>
<path fill="none" stroke="black" d="M1992.96,-447.991C2061.46,-386.192 2237.03,-227.797 2305.28,-166.225"/>
<polygon fill="black" stroke="black" points="2307.98,-168.507 2313.06,-159.21 2303.29,-163.31 2307.98,-168.507"/>
</g>
<!-- Core_SectionOfFunctor_rec -->
<g id="node7" class="node"><title>Core_SectionOfFunctor_rec</title>
<g id="a_node7"><a xlink:href="Core.html#SectionOfFunctor_rec" xlink:title="SectionOfFunctor_rec">
<ellipse fill="#f070d1" stroke="black" cx="2616" cy="-839.218" rx="89.0807" ry="18"/>
<ellipse fill="none" stroke="black" cx="2616" cy="-839.218" rx="93.0825" ry="22"/>
<ellipse fill="none" stroke="black" cx="2616" cy="-839.218" rx="97.0842" ry="26"/>
<text text-anchor="middle" x="2616" y="-835.518" font-family="Times,serif" font-size="14.00">SectionOfFunctor_rec</text>
</a>
</g>
</g>
<!-- Core_SectionOfFunctor_rect -->
<g id="node9" class="node"><title>Core_SectionOfFunctor_rect</title>
<g id="a_node9"><a xlink:href="Core.html#SectionOfFunctor_rect" xlink:title="SectionOfFunctor_rect">
<ellipse fill="#f070d1" stroke="black" cx="2702" cy="-473.218" rx="90.9839" ry="18"/>
<text text-anchor="middle" x="2702" y="-469.518" font-family="Times,serif" font-size="14.00">SectionOfFunctor_rect</text>
</a>
</g>
</g>
<!-- Core_SectionOfFunctor_rec&#45;&gt;Core_SectionOfFunctor_rect -->
<g id="edge6" class="edge"><title>Core_SectionOfFunctor_rec&#45;&gt;Core_SectionOfFunctor_rect</title>
<path fill="none" stroke="black" d="M2622.12,-813.189C2637.74,-746.686 2679.04,-570.913 2695.3,-501.752"/>
<polygon fill="black" stroke="black" points="2698.8,-502.136 2697.68,-491.601 2691.99,-500.535 2698.8,-502.136"/>
</g>
<!-- Core_SectionOfFunctor_ind -->
<g id="node8" class="node"><title>Core_SectionOfFunctor_ind</title>
<g id="a_node8"><a xlink:href="Core.html#SectionOfFunctor_ind" xlink:title="SectionOfFunctor_ind">
<ellipse fill="#7fffd4" stroke="black" cx="2404" cy="-839.218" rx="89.0807" ry="18"/>
<ellipse fill="none" stroke="black" cx="2404" cy="-839.218" rx="93.0825" ry="22"/>
<ellipse fill="none" stroke="black" cx="2404" cy="-839.218" rx="97.0842" ry="26"/>
<text text-anchor="middle" x="2404" y="-835.518" font-family="Times,serif" font-size="14.00">SectionOfFunctor_ind</text>
</a>
</g>
</g>
<!-- Core_SectionOfFunctor_ind&#45;&gt;Core_SectionOfFunctor_rect -->
<g id="edge7" class="edge"><title>Core_SectionOfFunctor_ind&#45;&gt;Core_SectionOfFunctor_rect</title>
<path fill="none" stroke="black" d="M2424.72,-813.772C2479.15,-746.924 2625.76,-566.849 2680.77,-499.294"/>
<polygon fill="black" stroke="black" points="2683.71,-501.226 2687.31,-491.262 2678.28,-496.806 2683.71,-501.226"/>
</g>
<!-- Core_SectionOfFunctor_rect&#45;&gt;Core_Build_SectionOfFunctor -->
<g id="edge8" class="edge"><title>Core_SectionOfFunctor_rect&#45;&gt;Core_Build_SectionOfFunctor</title>
<path fill="none" stroke="black" d="M2682.42,-455.603C2621.02,-400.356 2432.08,-230.36 2360.7,-166.136"/>
<polygon fill="black" stroke="black" points="2362.76,-163.281 2352.98,-159.195 2358.07,-168.485 2362.76,-163.281"/>
</g>
<!-- Core_section_of_functor_issect -->
<g id="node10" class="node"><title>Core_section_of_functor_issect</title>
<g id="a_node10"><a xlink:href="Core.html#section_of_functor_issect" xlink:title="section_of_functor_issect">
<ellipse fill="#f070d1" stroke="black" cx="1976" cy="-839.218" rx="100.965" ry="18"/>
<ellipse fill="none" stroke="black" cx="1976" cy="-839.218" rx="104.974" ry="22"/>
<ellipse fill="none" stroke="black" cx="1976" cy="-839.218" rx="108.983" ry="26"/>
<text text-anchor="middle" x="1976" y="-835.518" font-family="Times,serif" font-size="14.00">section_of_functor_issect</text>
</a>
</g>
</g>
<!-- Core_section_of_functor_morphism -->
<g id="node11" class="node"><title>Core_section_of_functor_morphism</title>
<g id="a_node11"><a xlink:href="Core.html#section_of_functor_morphism" xlink:title="section_of_functor_morphism">
<ellipse fill="#f070d1" stroke="black" cx="1723" cy="-839.218" rx="118.093" ry="18"/>
<ellipse fill="none" stroke="black" cx="1723" cy="-839.218" rx="122.086" ry="22"/>
<ellipse fill="none" stroke="black" cx="1723" cy="-839.218" rx="126.079" ry="26"/>
<text text-anchor="middle" x="1723" y="-835.518" font-family="Times,serif" font-size="14.00">section_of_functor_morphism</text>
</a>
</g>
</g>
<!-- CategoryOfSections_isstrict_category_of_sections -->
<g id="node14" class="node"><title>CategoryOfSections_isstrict_category_of_sections</title>
<g id="a_node14"><a xlink:href="CategoryOfSections.html#isstrict_category_of_sections" xlink:title="isstrict_category_of_sections">
<ellipse fill="#f070d1" stroke="black" cx="1452" cy="-1216.22" rx="113.174" ry="18"/>
<ellipse fill="none" stroke="black" cx="1452" cy="-1216.22" rx="117.177" ry="22"/>
<ellipse fill="none" stroke="black" cx="1452" cy="-1216.22" rx="121.18" ry="26"/>
<text text-anchor="middle" x="1452" y="-1212.52" font-family="Times,serif" font-size="14.00">isstrict_category_of_sections</text>
</a>
</g>
</g>
<!-- CategoryOfSections_isstrict_category_of_sections&#45;&gt;Core_isstrict_category_of_sections -->
<g id="edge9" class="edge"><title>CategoryOfSections_isstrict_category_of_sections&#45;&gt;Core_isstrict_category_of_sections</title>
<path fill="none" stroke="black" d="M1544.24,-1199.25C1756.08,-1158.93 2292.24,-1049.19 2722,-896.218 2749.39,-886.468 2778.96,-872.739 2802.13,-861.198"/>
<polygon fill="black" stroke="black" points="2803.96,-864.194 2811.32,-856.569 2800.81,-857.942 2803.96,-864.194"/>
</g>
<!-- CategoryOfSections_category_of_sections -->
<g id="node15" class="node"><title>CategoryOfSections_category_of_sections</title>
<g id="a_node15"><a xlink:href="CategoryOfSections.html#category_of_sections" xlink:title="category_of_sections">
<ellipse fill="#f070d1" stroke="black" cx="1220" cy="-1216.22" rx="85.2729" ry="18"/>
<ellipse fill="none" stroke="black" cx="1220" cy="-1216.22" rx="89.279" ry="22"/>
<ellipse fill="none" stroke="black" cx="1220" cy="-1216.22" rx="93.2851" ry="26"/>
<text text-anchor="middle" x="1220" y="-1212.52" font-family="Times,serif" font-size="14.00">category_of_sections</text>
</a>
</g>
</g>
<!-- CategoryOfSections_category_of_sections_subproof1 -->
<g id="node16" class="node"><title>CategoryOfSections_category_of_sections_subproof1</title>
<g id="a_node16"><a xlink:href="CategoryOfSections.html#category_of_sections_subproof1" xlink:title="category_of_sections_subproof1">
<ellipse fill="#f070d1" stroke="black" cx="919" cy="-839.218" rx="125.378" ry="18"/>
<text text-anchor="middle" x="919" y="-835.518" font-family="Times,serif" font-size="14.00">category_of_sections_subproof1</text>
</a>
</g>
</g>
<!-- CategoryOfSections_category_of_sections&#45;&gt;CategoryOfSections_category_of_sections_subproof1 -->
<g id="edge10" class="edge"><title>CategoryOfSections_category_of_sections&#45;&gt;CategoryOfSections_category_of_sections_subproof1</title>
<path fill="none" stroke="black" d="M1199.55,-1190.6C1144.75,-1121.96 995.03,-934.445 939.814,-865.287"/>
<polygon fill="black" stroke="black" points="942.536,-863.087 933.561,-857.456 937.065,-867.454 942.536,-863.087"/>
</g>
<!-- CategoryOfSections_category_of_sections_subproof0 -->
<g id="node17" class="node"><title>CategoryOfSections_category_of_sections_subproof0</title>
<g id="a_node17"><a xlink:href="CategoryOfSections.html#category_of_sections_subproof0" xlink:title="category_of_sections_subproof0">
<ellipse fill="#f070d1" stroke="black" cx="1188" cy="-839.218" rx="125.378" ry="18"/>
<text text-anchor="middle" x="1188" y="-835.518" font-family="Times,serif" font-size="14.00">category_of_sections_subproof0</text>
</a>
</g>
</g>
<!-- CategoryOfSections_category_of_sections&#45;&gt;CategoryOfSections_category_of_sections_subproof0 -->
<g id="edge11" class="edge"><title>CategoryOfSections_category_of_sections&#45;&gt;CategoryOfSections_category_of_sections_subproof0</title>
<path fill="none" stroke="black" d="M1217.78,-1190.01C1211.98,-1121.69 1196.43,-938.579 1190.42,-867.745"/>
<polygon fill="black" stroke="black" points="1193.87,-867.043 1189.54,-857.375 1186.9,-867.635 1193.87,-867.043"/>
</g>
<!-- CategoryOfSections_category_of_sections_subproof -->
<g id="node18" class="node"><title>CategoryOfSections_category_of_sections_subproof</title>
<g id="a_node18"><a xlink:href="CategoryOfSections.html#category_of_sections_subproof" xlink:title="category_of_sections_subproof">
<ellipse fill="#f070d1" stroke="black" cx="1452" cy="-839.218" rx="120.779" ry="18"/>
<text text-anchor="middle" x="1452" y="-835.518" font-family="Times,serif" font-size="14.00">category_of_sections_subproof</text>
</a>
</g>
</g>
<!-- CategoryOfSections_category_of_sections&#45;&gt;CategoryOfSections_category_of_sections_subproof -->
<g id="edge12" class="edge"><title>CategoryOfSections_category_of_sections&#45;&gt;CategoryOfSections_category_of_sections_subproof</title>
<path fill="none" stroke="black" d="M1235.95,-1190.31C1278.17,-1121.69 1392.59,-935.762 1435.47,-866.077"/>
<polygon fill="black" stroke="black" points="1438.54,-867.766 1440.8,-857.415 1432.58,-864.098 1438.54,-867.766"/>
</g>
<!-- CategoryOfSections_category_of_sections_subproof1&#45;&gt;Core_category_of_sections_subproof1 -->
<g id="edge13" class="edge"><title>CategoryOfSections_category_of_sections_subproof1&#45;&gt;Core_category_of_sections_subproof1</title>
<path fill="none" stroke="black" d="M956.921,-821.934C1089.1,-761.69 1529.33,-561.037 1674.85,-494.708"/>
<polygon fill="black" stroke="black" points="1676.36,-497.869 1684,-490.537 1673.45,-491.499 1676.36,-497.869"/>
</g>
<!-- CategoryOfSections_category_of_sections_subproof0&#45;&gt;Core_category_of_sections_subproof0 -->
<g id="edge14" class="edge"><title>CategoryOfSections_category_of_sections_subproof0&#45;&gt;Core_category_of_sections_subproof0</title>
<path fill="none" stroke="black" d="M1234.81,-822.42C1402.11,-762.39 1970.07,-558.592 2151.67,-493.429"/>
<polygon fill="black" stroke="black" points="2153.07,-496.647 2161.3,-489.975 2150.7,-490.058 2153.07,-496.647"/>
</g>
<!-- CategoryOfSections_category_of_sections_subproof&#45;&gt;Core_category_of_sections_subproof -->
<g id="edge15" class="edge"><title>CategoryOfSections_category_of_sections_subproof&#45;&gt;Core_category_of_sections_subproof</title>
<path fill="none" stroke="black" d="M1498.48,-822.541C1665.43,-762.636 2234.48,-558.446 2415.93,-493.339"/>
<polygon fill="black" stroke="black" points="2417.31,-496.56 2425.54,-489.888 2414.95,-489.971 2417.31,-496.56"/>
</g>
<!-- CategoryOfSections_section_of_functor_sig -->
<g id="node19" class="node"><title>CategoryOfSections_section_of_functor_sig</title>
<g id="a_node19"><a xlink:href="CategoryOfSections.html#section_of_functor_sig" xlink:title="section_of_functor_sig">
<ellipse fill="#f070d1" stroke="black" cx="676" cy="-839.218" rx="91.7725" ry="18"/>
<ellipse fill="none" stroke="black" cx="676" cy="-839.218" rx="95.7782" ry="22"/>
<ellipse fill="none" stroke="black" cx="676" cy="-839.218" rx="99.7839" ry="26"/>
<text text-anchor="middle" x="676" y="-835.518" font-family="Times,serif" font-size="14.00">section_of_functor_sig</text>
</a>
</g>
</g>
<!-- CategoryOfSections_Build_SectionOfFunctor -->
<g id="node25" class="node"><title>CategoryOfSections_Build_SectionOfFunctor</title>
<g id="a_node25"><a xlink:href="CategoryOfSections.html#Build_SectionOfFunctor" xlink:title="Build_SectionOfFunctor">
<ellipse fill="#7faaff" stroke="black" cx="571" cy="-473.218" rx="97.4827" ry="18"/>
<text text-anchor="middle" x="571" y="-469.518" font-family="Times,serif" font-size="14.00">Build_SectionOfFunctor</text>
</a>
</g>
</g>
<!-- CategoryOfSections_section_of_functor_sig&#45;&gt;CategoryOfSections_Build_SectionOfFunctor -->
<g id="edge16" class="edge"><title>CategoryOfSections_section_of_functor_sig&#45;&gt;CategoryOfSections_Build_SectionOfFunctor</title>
<path fill="none" stroke="black" d="M668.533,-813.189C649.415,-746.549 598.82,-570.19 579.064,-501.326"/>
<polygon fill="black" stroke="black" points="582.396,-500.248 576.274,-491.601 575.667,-502.178 582.396,-500.248"/>
</g>
<!-- CategoryOfSections_SectionOfFunctor_rec -->
<g id="node20" class="node"><title>CategoryOfSections_SectionOfFunctor_rec</title>
<g id="a_node20"><a xlink:href="CategoryOfSections.html#SectionOfFunctor_rec" xlink:title="SectionOfFunctor_rec">
<ellipse fill="#f070d1" stroke="black" cx="1012" cy="-1216.22" rx="89.0807" ry="18"/>
<ellipse fill="none" stroke="black" cx="1012" cy="-1216.22" rx="93.0825" ry="22"/>
<ellipse fill="none" stroke="black" cx="1012" cy="-1216.22" rx="97.0842" ry="26"/>
<text text-anchor="middle" x="1012" y="-1212.52" font-family="Times,serif" font-size="14.00">SectionOfFunctor_rec</text>
</a>
</g>
</g>
<!-- CategoryOfSections_SectionOfFunctor_rect -->
<g id="node22" class="node"><title>CategoryOfSections_SectionOfFunctor_rect</title>
<g id="a_node22"><a xlink:href="CategoryOfSections.html#SectionOfFunctor_rect" xlink:title="SectionOfFunctor_rect">
<ellipse fill="#f070d1" stroke="black" cx="467" cy="-839.218" rx="90.9839" ry="18"/>
<text text-anchor="middle" x="467" y="-835.518" font-family="Times,serif" font-size="14.00">SectionOfFunctor_rect</text>
</a>
</g>
</g>
<!-- CategoryOfSections_SectionOfFunctor_rec&#45;&gt;CategoryOfSections_SectionOfFunctor_rect -->
<g id="edge17" class="edge"><title>CategoryOfSections_SectionOfFunctor_rec&#45;&gt;CategoryOfSections_SectionOfFunctor_rect</title>
<path fill="none" stroke="black" d="M976.661,-1191.77C877.404,-1123.11 597.036,-929.169 500.304,-862.256"/>
<polygon fill="black" stroke="black" points="502.272,-859.362 492.057,-856.551 498.29,-865.118 502.272,-859.362"/>
</g>
<!-- CategoryOfSections_SectionOfFunctor_ind -->
<g id="node21" class="node"><title>CategoryOfSections_SectionOfFunctor_ind</title>
<g id="a_node21"><a xlink:href="CategoryOfSections.html#SectionOfFunctor_ind" xlink:title="SectionOfFunctor_ind">
<ellipse fill="#7fffd4" stroke="black" cx="800" cy="-1216.22" rx="89.0807" ry="18"/>
<ellipse fill="none" stroke="black" cx="800" cy="-1216.22" rx="93.0825" ry="22"/>
<ellipse fill="none" stroke="black" cx="800" cy="-1216.22" rx="97.0842" ry="26"/>
<text text-anchor="middle" x="800" y="-1212.52" font-family="Times,serif" font-size="14.00">SectionOfFunctor_ind</text>
</a>
</g>
</g>
<!-- CategoryOfSections_SectionOfFunctor_ind&#45;&gt;CategoryOfSections_SectionOfFunctor_rect -->
<g id="edge18" class="edge"><title>CategoryOfSections_SectionOfFunctor_ind&#45;&gt;CategoryOfSections_SectionOfFunctor_rect</title>
<path fill="none" stroke="black" d="M777.634,-1190.9C717.098,-1122.36 550.521,-933.775 489.652,-864.863"/>
<polygon fill="black" stroke="black" points="492.011,-862.247 482.768,-857.069 486.765,-866.881 492.011,-862.247"/>
</g>
<!-- CategoryOfSections_SectionOfFunctor_rect&#45;&gt;CategoryOfSections_Build_SectionOfFunctor -->
<g id="edge19" class="edge"><title>CategoryOfSections_SectionOfFunctor_rect&#45;&gt;CategoryOfSections_Build_SectionOfFunctor</title>
<path fill="none" stroke="black" d="M472.157,-821.068C489.034,-761.677 542.691,-572.843 563.057,-501.172"/>
<polygon fill="black" stroke="black" points="566.445,-502.053 565.811,-491.477 559.711,-500.14 566.445,-502.053"/>
</g>
<!-- CategoryOfSections_section_of_functor_issect -->
<g id="node23" class="node"><title>CategoryOfSections_section_of_functor_issect</title>
<g id="a_node23"><a xlink:href="CategoryOfSections.html#section_of_functor_issect" xlink:title="section_of_functor_issect">
<ellipse fill="#f070d1" stroke="black" cx="576" cy="-1216.22" rx="100.965" ry="18"/>
<ellipse fill="none" stroke="black" cx="576" cy="-1216.22" rx="104.974" ry="22"/>
<ellipse fill="none" stroke="black" cx="576" cy="-1216.22" rx="108.983" ry="26"/>
<text text-anchor="middle" x="576" y="-1212.52" font-family="Times,serif" font-size="14.00">section_of_functor_issect</text>
</a>
</g>
</g>
<!-- CategoryOfSections_section_of_functor_morphism -->
<g id="node24" class="node"><title>CategoryOfSections_section_of_functor_morphism</title>
<g id="a_node24"><a xlink:href="CategoryOfSections.html#section_of_functor_morphism" xlink:title="section_of_functor_morphism">
<ellipse fill="#f070d1" stroke="black" cx="323" cy="-1216.22" rx="118.093" ry="18"/>
<ellipse fill="none" stroke="black" cx="323" cy="-1216.22" rx="122.086" ry="22"/>
<ellipse fill="none" stroke="black" cx="323" cy="-1216.22" rx="126.079" ry="26"/>
<text text-anchor="middle" x="323" y="-1212.52" font-family="Times,serif" font-size="14.00">section_of_functor_morphism</text>
</a>
</g>
</g>
<!-- CategoryOfSections_SectionOfFunctor -->
<g id="node26" class="node"><title>CategoryOfSections_SectionOfFunctor</title>
<g id="a_node26"><a xlink:href="CategoryOfSections.html#SectionOfFunctor" xlink:title="SectionOfFunctor">
<ellipse fill="#e2cdfa" stroke="black" cx="97" cy="-1216.22" rx="73.3926" ry="18"/>
<ellipse fill="none" stroke="black" cx="97" cy="-1216.22" rx="77.3898" ry="22"/>
<ellipse fill="none" stroke="black" cx="97" cy="-1216.22" rx="81.387" ry="26"/>
<text text-anchor="middle" x="97" y="-1212.52" font-family="Times,serif" font-size="14.00">SectionOfFunctor</text>
</a>
</g>
</g>
</g>
</svg>
