<?xml version="1.0" encoding="UTF-8" standalone="no"?>
<!DOCTYPE svg PUBLIC "-//W3C//DTD SVG 1.1//EN"
 "http://www.w3.org/Graphics/SVG/1.1/DTD/svg11.dtd">
<!-- Generated by graphviz version 2.39.20161220.0128 (20161220.0128)
 -->
<!-- Title: HoTT_Types_Forall Pages: 1 -->
<svg width="1887pt" height="947pt"
 viewBox="0.00 0.00 1887.00 947.50" xmlns="http://www.w3.org/2000/svg" xmlns:xlink="http://www.w3.org/1999/xlink">
<g id="graph0" class="graph" transform="scale(1 1) rotate(0) translate(4 943.5)">
<title>HoTT_Types_Forall</title>
<polygon fill="#ffffff" stroke="transparent" points="-4,4 -4,-943.5 1883,-943.5 1883,4 -4,4"/>
<g id="clust1" class="cluster">
<title>cluster_Forall</title>
<polygon fill="#ffffc3" stroke="#000000" points="8,-14.5942 8,-924.9058 1871,-924.9058 1871,-14.5942 8,-14.5942"/>
<text text-anchor="middle" x="32.5" y="-909.7058" font-family="Times,serif" font-size="14.00" fill="#000000">Forall</text>
</g>
<!-- Forall_equiv_flip -->
<g id="node1" class="node">
<title>Forall_equiv_flip</title>
<g id="a_node1"><a xlink:href="Forall.html#equiv_flip" xlink:title="equiv_flip">
<ellipse fill="#f070d1" stroke="#000000" cx="1808" cy="-820.5942" rx="46.6221" ry="18"/>
<ellipse fill="none" stroke="#000000" cx="1808" cy="-820.5942" rx="50.6073" ry="22"/>
<ellipse fill="none" stroke="#000000" cx="1808" cy="-820.5942" rx="54.5925" ry="26"/>
<text text-anchor="middle" x="1808" y="-816.8942" font-family="Times,serif" font-size="14.00" fill="#000000">equiv_flip</text>
</a>
</g>
</g>
<!-- Forall_isequiv_flip -->
<g id="node2" class="node">
<title>Forall_isequiv_flip</title>
<g id="a_node2"><a xlink:href="Forall.html#isequiv_flip" xlink:title="isequiv_flip">
<ellipse fill="#f070d1" stroke="#000000" cx="1808" cy="-660.5942" rx="52.7911" ry="18"/>
<text text-anchor="middle" x="1808" y="-656.8942" font-family="Times,serif" font-size="14.00" fill="#000000">isequiv_flip</text>
</a>
</g>
</g>
<!-- Forall_equiv_flip&#45;&gt;Forall_isequiv_flip -->
<g id="edge1" class="edge">
<title>Forall_equiv_flip&#45;&gt;Forall_isequiv_flip</title>
<path fill="none" stroke="#000000" d="M1808,-794.5313C1808,-765.5089 1808,-718.759 1808,-688.8703"/>
<polygon fill="#000000" stroke="#000000" points="1811.5001,-688.6856 1808,-678.6856 1804.5001,-688.6857 1811.5001,-688.6856"/>
</g>
<!-- Forall_flip -->
<g id="node3" class="node">
<title>Forall_flip</title>
<g id="a_node3"><a xlink:href="Forall.html#flip" xlink:title="flip">
<ellipse fill="#f070d1" stroke="#000000" cx="1808" cy="-514.5942" rx="27" ry="18"/>
<text text-anchor="middle" x="1808" y="-510.8942" font-family="Times,serif" font-size="14.00" fill="#000000">flip</text>
</a>
</g>
</g>
<!-- Forall_isequiv_flip&#45;&gt;Forall_flip -->
<g id="edge2" class="edge">
<title>Forall_isequiv_flip&#45;&gt;Forall_flip</title>
<path fill="none" stroke="#000000" d="M1808,-642.3984C1808,-617.4809 1808,-572.488 1808,-543.0819"/>
<polygon fill="#000000" stroke="#000000" points="1811.5001,-543.0193 1808,-533.0193 1804.5001,-543.0193 1811.5001,-543.0193"/>
</g>
<!-- Forall_equiv_contr_forall -->
<g id="node4" class="node">
<title>Forall_equiv_contr_forall</title>
<g id="a_node4"><a xlink:href="Forall.html#equiv_contr_forall" xlink:title="equiv_contr_forall">
<ellipse fill="#f070d1" stroke="#000000" cx="1651" cy="-820.5942" rx="76.0824" ry="18"/>
<ellipse fill="none" stroke="#000000" cx="1651" cy="-820.5942" rx="80.0845" ry="22"/>
<ellipse fill="none" stroke="#000000" cx="1651" cy="-820.5942" rx="84.0865" ry="26"/>
<text text-anchor="middle" x="1651" y="-816.8942" font-family="Times,serif" font-size="14.00" fill="#000000">equiv_contr_forall</text>
</a>
</g>
</g>
<!-- Forall_trunc_forall -->
<g id="node5" class="node">
<title>Forall_trunc_forall</title>
<g id="a_node5"><a xlink:href="Forall.html#trunc_forall" xlink:title="trunc_forall">
<ellipse fill="#f070d1" stroke="#000000" cx="1107" cy="-660.5942" rx="51.9914" ry="18"/>
<ellipse fill="none" stroke="#000000" cx="1107" cy="-660.5942" rx="55.9911" ry="22"/>
<ellipse fill="none" stroke="#000000" cx="1107" cy="-660.5942" rx="59.9908" ry="26"/>
<text text-anchor="middle" x="1107" y="-656.8942" font-family="Times,serif" font-size="14.00" fill="#000000">trunc_forall</text>
</a>
</g>
</g>
<!-- Forall_contr_forall -->
<g id="node6" class="node">
<title>Forall_contr_forall</title>
<g id="a_node6"><a xlink:href="Forall.html#contr_forall" xlink:title="contr_forall">
<ellipse fill="#f070d1" stroke="#000000" cx="1107" cy="-514.5942" rx="51.9908" ry="18"/>
<text text-anchor="middle" x="1107" y="-510.8942" font-family="Times,serif" font-size="14.00" fill="#000000">contr_forall</text>
</a>
</g>
</g>
<!-- Forall_trunc_forall&#45;&gt;Forall_contr_forall -->
<g id="edge3" class="edge">
<title>Forall_trunc_forall&#45;&gt;Forall_contr_forall</title>
<path fill="none" stroke="#000000" d="M1107,-634.4923C1107,-608.6845 1107,-569.3152 1107,-542.7995"/>
<polygon fill="#000000" stroke="#000000" points="1110.5001,-542.6407 1107,-532.6408 1103.5001,-542.6408 1110.5001,-542.6407"/>
</g>
<!-- Forall_isequiv_path_forall -->
<g id="node23" class="node">
<title>Forall_isequiv_path_forall</title>
<g id="a_node23"><a xlink:href="Forall.html#isequiv_path_forall" xlink:title="isequiv_path_forall">
<ellipse fill="#f070d1" stroke="#000000" cx="957" cy="-514.5942" rx="79.0865" ry="18"/>
<text text-anchor="middle" x="957" y="-510.8942" font-family="Times,serif" font-size="14.00" fill="#000000">isequiv_path_forall</text>
</a>
</g>
</g>
<!-- Forall_trunc_forall&#45;&gt;Forall_isequiv_path_forall -->
<g id="edge4" class="edge">
<title>Forall_trunc_forall&#45;&gt;Forall_isequiv_path_forall</title>
<path fill="none" stroke="#000000" d="M1082.5661,-636.8118C1055.0968,-610.0751 1010.688,-566.8505 982.7078,-539.6164"/>
<polygon fill="#000000" stroke="#000000" points="984.8865,-536.8528 975.2793,-532.386 980.004,-541.869 984.8865,-536.8528"/>
</g>
<!-- Forall_equiv_functor_forall_id -->
<g id="node7" class="node">
<title>Forall_equiv_functor_forall_id</title>
<g id="a_node7"><a xlink:href="Forall.html#equiv_functor_forall_id" xlink:title="equiv_functor_forall_id">
<ellipse fill="#f070d1" stroke="#000000" cx="1446" cy="-820.5942" rx="94.7917" ry="18"/>
<ellipse fill="none" stroke="#000000" cx="1446" cy="-820.5942" rx="98.7875" ry="22"/>
<ellipse fill="none" stroke="#000000" cx="1446" cy="-820.5942" rx="102.7833" ry="26"/>
<text text-anchor="middle" x="1446" y="-816.8942" font-family="Times,serif" font-size="14.00" fill="#000000">equiv_functor_forall_id</text>
</a>
</g>
</g>
<!-- Forall_equiv_functor_forall -->
<g id="node9" class="node">
<title>Forall_equiv_functor_forall</title>
<g id="a_node9"><a xlink:href="Forall.html#equiv_functor_forall" xlink:title="equiv_functor_forall">
<ellipse fill="#f070d1" stroke="#000000" cx="1302" cy="-660.5942" rx="83.3857" ry="18"/>
<text text-anchor="middle" x="1302" y="-656.8942" font-family="Times,serif" font-size="14.00" fill="#000000">equiv_functor_forall</text>
</a>
</g>
</g>
<!-- Forall_equiv_functor_forall_id&#45;&gt;Forall_equiv_functor_forall -->
<g id="edge5" class="edge">
<title>Forall_equiv_functor_forall_id&#45;&gt;Forall_equiv_functor_forall</title>
<path fill="none" stroke="#000000" d="M1422.8639,-794.8874C1395.8609,-764.8841 1351.4959,-715.5896 1324.6871,-685.8021"/>
<polygon fill="#000000" stroke="#000000" points="1327.2368,-683.4031 1317.9456,-678.3115 1322.0337,-688.0858 1327.2368,-683.4031"/>
</g>
<!-- Forall_equiv_functor_forall_ -->
<g id="node8" class="node">
<title>Forall_equiv_functor_forall_</title>
<g id="a_node8"><a xlink:href="Forall.html#equiv_functor_forall'" xlink:title="equiv_functor_forall&#39;">
<ellipse fill="#f070d1" stroke="#000000" cx="1232" cy="-820.5942" rx="85.2729" ry="18"/>
<ellipse fill="none" stroke="#000000" cx="1232" cy="-820.5942" rx="89.279" ry="22"/>
<ellipse fill="none" stroke="#000000" cx="1232" cy="-820.5942" rx="93.2851" ry="26"/>
<text text-anchor="middle" x="1232" y="-816.8942" font-family="Times,serif" font-size="14.00" fill="#000000">equiv_functor_forall&#39;</text>
</a>
</g>
</g>
<!-- Forall_equiv_functor_forall_&#45;&gt;Forall_equiv_functor_forall -->
<g id="edge6" class="edge">
<title>Forall_equiv_functor_forall_&#45;&gt;Forall_equiv_functor_forall</title>
<path fill="none" stroke="#000000" d="M1243.4025,-794.5313C1256.2112,-765.2543 1276.9123,-717.9375 1289.9716,-688.0877"/>
<polygon fill="#000000" stroke="#000000" points="1293.2833,-689.2501 1294.085,-678.6856 1286.8702,-686.4443 1293.2833,-689.2501"/>
</g>
<!-- Forall_isequiv_functor_forall -->
<g id="node10" class="node">
<title>Forall_isequiv_functor_forall</title>
<g id="a_node10"><a xlink:href="Forall.html#isequiv_functor_forall" xlink:title="isequiv_functor_forall">
<ellipse fill="#f070d1" stroke="#000000" cx="1302" cy="-514.5942" rx="89.0842" ry="18"/>
<text text-anchor="middle" x="1302" y="-510.8942" font-family="Times,serif" font-size="14.00" fill="#000000">isequiv_functor_forall</text>
</a>
</g>
</g>
<!-- Forall_equiv_functor_forall&#45;&gt;Forall_isequiv_functor_forall -->
<g id="edge7" class="edge">
<title>Forall_equiv_functor_forall&#45;&gt;Forall_isequiv_functor_forall</title>
<path fill="none" stroke="#000000" d="M1302,-642.3984C1302,-617.4809 1302,-572.488 1302,-543.0819"/>
<polygon fill="#000000" stroke="#000000" points="1305.5001,-543.0193 1302,-533.0193 1298.5001,-543.0193 1305.5001,-543.0193"/>
</g>
<!-- Forall_isequiv_functor_forall_subproof0 -->
<g id="node11" class="node">
<title>Forall_isequiv_functor_forall_subproof0</title>
<g id="a_node11"><a xlink:href="Forall.html#isequiv_functor_forall_subproof0" xlink:title="isequiv_functor_forall_subproof0">
<ellipse fill="#facdef" stroke="#000000" cx="1166" cy="-368.5942" rx="129.1772" ry="18"/>
<text text-anchor="middle" x="1166" y="-364.8942" font-family="Times,serif" font-size="14.00" fill="#000000">isequiv_functor_forall_subproof0</text>
</a>
</g>
</g>
<!-- Forall_isequiv_functor_forall&#45;&gt;Forall_isequiv_functor_forall_subproof0 -->
<g id="edge8" class="edge">
<title>Forall_isequiv_functor_forall&#45;&gt;Forall_isequiv_functor_forall_subproof0</title>
<path fill="none" stroke="#000000" d="M1285.3237,-496.6917C1261.3628,-470.969 1217.0759,-423.4257 1189.7155,-394.0535"/>
<polygon fill="#000000" stroke="#000000" points="1192.1898,-391.5747 1182.8127,-386.6431 1187.0677,-396.3459 1192.1898,-391.5747"/>
</g>
<!-- Forall_isequiv_functor_forall_subproof -->
<g id="node12" class="node">
<title>Forall_isequiv_functor_forall_subproof</title>
<g id="a_node12"><a xlink:href="Forall.html#isequiv_functor_forall_subproof" xlink:title="isequiv_functor_forall_subproof">
<ellipse fill="#facdef" stroke="#000000" cx="1438" cy="-368.5942" rx="124.5782" ry="18"/>
<text text-anchor="middle" x="1438" y="-364.8942" font-family="Times,serif" font-size="14.00" fill="#000000">isequiv_functor_forall_subproof</text>
</a>
</g>
</g>
<!-- Forall_isequiv_functor_forall&#45;&gt;Forall_isequiv_functor_forall_subproof -->
<g id="edge9" class="edge">
<title>Forall_isequiv_functor_forall&#45;&gt;Forall_isequiv_functor_forall_subproof</title>
<path fill="none" stroke="#000000" d="M1318.6763,-496.6917C1342.6372,-470.969 1386.9241,-423.4257 1414.2845,-394.0535"/>
<polygon fill="#000000" stroke="#000000" points="1416.9323,-396.3459 1421.1873,-386.6431 1411.8102,-391.5747 1416.9323,-396.3459"/>
</g>
<!-- Forall_functor_forall -->
<g id="node14" class="node">
<title>Forall_functor_forall</title>
<g id="a_node14"><a xlink:href="Forall.html#functor_forall" xlink:title="functor_forall">
<ellipse fill="#f070d1" stroke="#000000" cx="1166" cy="-207.5942" rx="59.5901" ry="18"/>
<text text-anchor="middle" x="1166" y="-203.8942" font-family="Times,serif" font-size="14.00" fill="#000000">functor_forall</text>
</a>
</g>
</g>
<!-- Forall_isequiv_functor_forall_subproof0&#45;&gt;Forall_functor_forall -->
<g id="edge10" class="edge">
<title>Forall_isequiv_functor_forall_subproof0&#45;&gt;Forall_functor_forall</title>
<path fill="none" stroke="#000000" d="M1166,-350.4384C1166,-322.6575 1166,-269.3524 1166,-236.2979"/>
<polygon fill="#000000" stroke="#000000" points="1169.5001,-235.9306 1166,-225.9306 1162.5001,-235.9307 1169.5001,-235.9306"/>
</g>
<!-- Forall_isequiv_functor_forall_subproof&#45;&gt;Forall_functor_forall -->
<g id="edge11" class="edge">
<title>Forall_isequiv_functor_forall_subproof&#45;&gt;Forall_functor_forall</title>
<path fill="none" stroke="#000000" d="M1408.3734,-351.0579C1358.1323,-321.3195 1256.399,-261.1024 1202.086,-228.9539"/>
<polygon fill="#000000" stroke="#000000" points="1203.5434,-225.7494 1193.1551,-223.6676 1199.9778,-231.7733 1203.5434,-225.7494"/>
</g>
<!-- Forall_ap_functor_forall -->
<g id="node13" class="node">
<title>Forall_ap_functor_forall</title>
<g id="a_node13"><a xlink:href="Forall.html#ap_functor_forall" xlink:title="ap_functor_forall">
<ellipse fill="#f070d1" stroke="#000000" cx="939" cy="-368.5942" rx="72.2731" ry="18"/>
<ellipse fill="none" stroke="#000000" cx="939" cy="-368.5942" rx="76.2803" ry="22"/>
<ellipse fill="none" stroke="#000000" cx="939" cy="-368.5942" rx="80.2875" ry="26"/>
<text text-anchor="middle" x="939" y="-364.8942" font-family="Times,serif" font-size="14.00" fill="#000000">ap_functor_forall</text>
</a>
</g>
</g>
<!-- Forall_ap_functor_forall&#45;&gt;Forall_functor_forall -->
<g id="edge12" class="edge">
<title>Forall_ap_functor_forall&#45;&gt;Forall_functor_forall</title>
<path fill="none" stroke="#000000" d="M972.4946,-344.8381C1015.9925,-313.9872 1091.3879,-260.5129 1134.0929,-230.2243"/>
<polygon fill="#000000" stroke="#000000" points="1136.3006,-232.9495 1142.4326,-224.3094 1132.251,-227.2398 1136.3006,-232.9495"/>
</g>
<!-- Forall_path_forall_1 -->
<g id="node25" class="node">
<title>Forall_path_forall_1</title>
<g id="a_node25"><a xlink:href="Forall.html#path_forall_1" xlink:title="path_forall_1">
<ellipse fill="#f070d1" stroke="#000000" cx="824" cy="-207.5942" rx="57.6901" ry="18"/>
<text text-anchor="middle" x="824" y="-203.8942" font-family="Times,serif" font-size="14.00" fill="#000000">path_forall_1</text>
</a>
</g>
</g>
<!-- Forall_ap_functor_forall&#45;&gt;Forall_path_forall_1 -->
<g id="edge13" class="edge">
<title>Forall_ap_functor_forall&#45;&gt;Forall_path_forall_1</title>
<path fill="none" stroke="#000000" d="M920.7779,-343.0832C899.4498,-313.2239 864.311,-264.0295 842.7556,-233.852"/>
<polygon fill="#000000" stroke="#000000" points="845.4562,-231.6112 836.7957,-225.5082 839.7601,-235.6799 845.4562,-231.6112"/>
</g>
<!-- Forall_dpath_forall_constant -->
<g id="node15" class="node">
<title>Forall_dpath_forall_constant</title>
<g id="a_node15"><a xlink:href="Forall.html#dpath_forall_constant" xlink:title="dpath_forall_constant">
<ellipse fill="#f070d1" stroke="#000000" cx="1026" cy="-820.5942" rx="87.1769" ry="18"/>
<ellipse fill="none" stroke="#000000" cx="1026" cy="-820.5942" rx="91.1807" ry="22"/>
<ellipse fill="none" stroke="#000000" cx="1026" cy="-820.5942" rx="95.1846" ry="26"/>
<text text-anchor="middle" x="1026" y="-816.8942" font-family="Times,serif" font-size="14.00" fill="#000000">dpath_forall_constant</text>
</a>
</g>
</g>
<!-- Forall_equiv_path_forall -->
<g id="node22" class="node">
<title>Forall_equiv_path_forall</title>
<g id="a_node22"><a xlink:href="Forall.html#equiv_path_forall" xlink:title="equiv_path_forall">
<ellipse fill="#f070d1" stroke="#000000" cx="956" cy="-660.5942" rx="73.387" ry="18"/>
<text text-anchor="middle" x="956" y="-656.8942" font-family="Times,serif" font-size="14.00" fill="#000000">equiv_path_forall</text>
</a>
</g>
</g>
<!-- Forall_dpath_forall_constant&#45;&gt;Forall_equiv_path_forall -->
<g id="edge14" class="edge">
<title>Forall_dpath_forall_constant&#45;&gt;Forall_equiv_path_forall</title>
<path fill="none" stroke="#000000" d="M1014.5975,-794.5313C1001.7888,-765.2543 981.0877,-717.9375 968.0284,-688.0877"/>
<polygon fill="#000000" stroke="#000000" points="971.1298,-686.4443 963.915,-678.6856 964.7167,-689.2501 971.1298,-686.4443"/>
</g>
<!-- Forall_dpath_forall -->
<g id="node16" class="node">
<title>Forall_dpath_forall</title>
<g id="a_node16"><a xlink:href="Forall.html#dpath_forall" xlink:title="dpath_forall">
<ellipse fill="#f070d1" stroke="#000000" cx="851" cy="-820.5942" rx="53.8975" ry="18"/>
<ellipse fill="none" stroke="#000000" cx="851" cy="-820.5942" rx="57.894" ry="22"/>
<ellipse fill="none" stroke="#000000" cx="851" cy="-820.5942" rx="61.8905" ry="26"/>
<text text-anchor="middle" x="851" y="-816.8942" font-family="Times,serif" font-size="14.00" fill="#000000">dpath_forall</text>
</a>
</g>
</g>
<!-- Forall_dpath_forall&#45;&gt;Forall_equiv_path_forall -->
<g id="edge15" class="edge">
<title>Forall_dpath_forall&#45;&gt;Forall_equiv_path_forall</title>
<path fill="none" stroke="#000000" d="M867.6376,-795.2417C887.0275,-765.6951 918.9192,-717.0983 938.6212,-687.0761"/>
<polygon fill="#000000" stroke="#000000" points="941.7565,-688.6777 944.317,-678.3969 935.9042,-684.8371 941.7565,-688.6777"/>
</g>
<!-- Forall_ap_lambdaD -->
<g id="node17" class="node">
<title>Forall_ap_lambdaD</title>
<g id="a_node17"><a xlink:href="Forall.html#ap_lambdaD" xlink:title="ap_lambdaD">
<ellipse fill="#f070d1" stroke="#000000" cx="777" cy="-368.5942" rx="55.8034" ry="18"/>
<ellipse fill="none" stroke="#000000" cx="777" cy="-368.5942" rx="59.7968" ry="22"/>
<ellipse fill="none" stroke="#000000" cx="777" cy="-368.5942" rx="63.7903" ry="26"/>
<text text-anchor="middle" x="777" y="-364.8942" font-family="Times,serif" font-size="14.00" fill="#000000">ap_lambdaD</text>
</a>
</g>
</g>
<!-- Forall_ap_lambdaD&#45;&gt;Forall_path_forall_1 -->
<g id="edge16" class="edge">
<title>Forall_ap_lambdaD&#45;&gt;Forall_path_forall_1</title>
<path fill="none" stroke="#000000" d="M784.5514,-342.7267C793.0934,-313.4657 806.9585,-265.9704 815.7707,-235.7838"/>
<polygon fill="#000000" stroke="#000000" points="819.2174,-236.4668 818.66,-225.8866 812.4978,-234.5051 819.2174,-236.4668"/>
</g>
<!-- Forall_apD_transport_forall_constant -->
<g id="node18" class="node">
<title>Forall_apD_transport_forall_constant</title>
<g id="a_node18"><a xlink:href="Forall.html#apD_transport_forall_constant" xlink:title="apD_transport_forall_constant">
<ellipse fill="#f070d1" stroke="#000000" cx="645" cy="-820.5942" rx="118.0927" ry="18"/>
<ellipse fill="none" stroke="#000000" cx="645" cy="-820.5942" rx="122.086" ry="22"/>
<ellipse fill="none" stroke="#000000" cx="645" cy="-820.5942" rx="126.0794" ry="26"/>
<text text-anchor="middle" x="645" y="-816.8942" font-family="Times,serif" font-size="14.00" fill="#000000">apD_transport_forall_constant</text>
</a>
</g>
</g>
<!-- Forall_transport_forall_constant -->
<g id="node19" class="node">
<title>Forall_transport_forall_constant</title>
<g id="a_node19"><a xlink:href="Forall.html#transport_forall_constant" xlink:title="transport_forall_constant">
<ellipse fill="#f070d1" stroke="#000000" cx="645" cy="-660.5942" rx="98.5829" ry="18"/>
<text text-anchor="middle" x="645" y="-656.8942" font-family="Times,serif" font-size="14.00" fill="#000000">transport_forall_constant</text>
</a>
</g>
</g>
<!-- Forall_apD_transport_forall_constant&#45;&gt;Forall_transport_forall_constant -->
<g id="edge17" class="edge">
<title>Forall_apD_transport_forall_constant&#45;&gt;Forall_transport_forall_constant</title>
<path fill="none" stroke="#000000" d="M645,-794.5313C645,-765.5089 645,-718.759 645,-688.8703"/>
<polygon fill="#000000" stroke="#000000" points="648.5001,-688.6856 645,-678.6856 641.5001,-688.6857 648.5001,-688.6856"/>
</g>
<!-- Forall_transport_forall -->
<g id="node20" class="node">
<title>Forall_transport_forall</title>
<g id="a_node20"><a xlink:href="Forall.html#transport_forall" xlink:title="transport_forall">
<ellipse fill="#f070d1" stroke="#000000" cx="427" cy="-820.5942" rx="65.7729" ry="18"/>
<ellipse fill="none" stroke="#000000" cx="427" cy="-820.5942" rx="69.7808" ry="22"/>
<ellipse fill="none" stroke="#000000" cx="427" cy="-820.5942" rx="73.7886" ry="26"/>
<text text-anchor="middle" x="427" y="-816.8942" font-family="Times,serif" font-size="14.00" fill="#000000">transport_forall</text>
</a>
</g>
</g>
<!-- Forall_path_forall_pp -->
<g id="node21" class="node">
<title>Forall_path_forall_pp</title>
<g id="a_node21"><a xlink:href="Forall.html#path_forall_pp" xlink:title="path_forall_pp">
<ellipse fill="#f070d1" stroke="#000000" cx="970" cy="-207.5942" rx="62.3011" ry="18"/>
<ellipse fill="none" stroke="#000000" cx="970" cy="-207.5942" rx="66.2951" ry="22"/>
<ellipse fill="none" stroke="#000000" cx="970" cy="-207.5942" rx="70.2891" ry="26"/>
<text text-anchor="middle" x="970" y="-203.8942" font-family="Times,serif" font-size="14.00" fill="#000000">path_forall_pp</text>
</a>
</g>
</g>
<!-- Forall_eta_path_forall -->
<g id="node26" class="node">
<title>Forall_eta_path_forall</title>
<g id="a_node26"><a xlink:href="Forall.html#eta_path_forall" xlink:title="eta_path_forall">
<ellipse fill="#f070d1" stroke="#000000" cx="897" cy="-61.5942" rx="63.8893" ry="18"/>
<text text-anchor="middle" x="897" y="-57.8942" font-family="Times,serif" font-size="14.00" fill="#000000">eta_path_forall</text>
</a>
</g>
</g>
<!-- Forall_path_forall_pp&#45;&gt;Forall_eta_path_forall -->
<g id="edge18" class="edge">
<title>Forall_path_forall_pp&#45;&gt;Forall_eta_path_forall</title>
<path fill="none" stroke="#000000" d="M957.1171,-181.8284C944.0664,-155.727 923.9563,-115.5067 910.6403,-88.8748"/>
<polygon fill="#000000" stroke="#000000" points="913.6701,-87.1081 906.0675,-79.7291 907.4091,-90.2386 913.6701,-87.1081"/>
</g>
<!-- Forall_equiv_path_forall&#45;&gt;Forall_isequiv_path_forall -->
<g id="edge19" class="edge">
<title>Forall_equiv_path_forall&#45;&gt;Forall_isequiv_path_forall</title>
<path fill="none" stroke="#000000" d="M956.1246,-642.3984C956.2953,-617.4809 956.6035,-572.488 956.8049,-543.0819"/>
<polygon fill="#000000" stroke="#000000" points="960.3051,-543.0431 956.8738,-533.0193 953.3053,-542.995 960.3051,-543.0431"/>
</g>
<!-- Forall_equiv_apD10 -->
<g id="node24" class="node">
<title>Forall_equiv_apD10</title>
<g id="a_node24"><a xlink:href="Forall.html#equiv_apD10" xlink:title="equiv_apD10">
<ellipse fill="#f070d1" stroke="#000000" cx="270" cy="-820.5942" rx="57.7089" ry="18"/>
<ellipse fill="none" stroke="#000000" cx="270" cy="-820.5942" rx="61.6995" ry="22"/>
<ellipse fill="none" stroke="#000000" cx="270" cy="-820.5942" rx="65.6901" ry="26"/>
<text text-anchor="middle" x="270" y="-816.8942" font-family="Times,serif" font-size="14.00" fill="#000000">equiv_apD10</text>
</a>
</g>
</g>
<!-- Forall_path_forall_1&#45;&gt;Forall_eta_path_forall -->
<g id="edge20" class="edge">
<title>Forall_path_forall_1&#45;&gt;Forall_eta_path_forall</title>
<path fill="none" stroke="#000000" d="M832.9512,-189.6917C845.5389,-164.5163 868.5776,-118.4389 883.3208,-88.9526"/>
<polygon fill="#000000" stroke="#000000" points="886.6339,-90.1526 887.9756,-79.6431 880.3729,-87.0221 886.6339,-90.1526"/>
</g>
<!-- Forall_apD10_path_forall -->
<g id="node27" class="node">
<title>Forall_apD10_path_forall</title>
<g id="a_node27"><a xlink:href="Forall.html#apD10_path_forall" xlink:title="apD10_path_forall">
<ellipse fill="#f070d1" stroke="#000000" cx="101" cy="-820.5942" rx="77.2012" ry="18"/>
<ellipse fill="none" stroke="#000000" cx="101" cy="-820.5942" rx="81.1939" ry="22"/>
<ellipse fill="none" stroke="#000000" cx="101" cy="-820.5942" rx="85.1866" ry="26"/>
<text text-anchor="middle" x="101" y="-816.8942" font-family="Times,serif" font-size="14.00" fill="#000000">apD10_path_forall</text>
</a>
</g>
</g>
</g>
</svg>
