<?xml version="1.0" encoding="UTF-8" standalone="no"?>
<!DOCTYPE svg PUBLIC "-//W3C//DTD SVG 1.1//EN"
 "http://www.w3.org/Graphics/SVG/1.1/DTD/svg11.dtd">
<!-- Generated by graphviz version 2.39.20141222.0545 (20141222.0545)
 -->
<!-- Title: HoTT_HIT_Spheres Pages: 1 -->
<svg width="1011pt" height="509pt"
 viewBox="0.00 0.00 1011.00 509.50" xmlns="http://www.w3.org/2000/svg" xmlns:xlink="http://www.w3.org/1999/xlink">
<g id="graph0" class="graph" transform="scale(1 1) rotate(0) translate(4 505.5)">
<title>HoTT_HIT_Spheres</title>
<polygon fill="white" stroke="transparent" points="-4,4 -4,-505.5 1007,-505.5 1007,4 -4,4"/>
<g id="clust1" class="cluster"><title>cluster_Spheres</title>
<polygon fill="#ffffc3" stroke="black" points="8,-11.3014 8,-490.199 995,-490.199 995,-11.3014 8,-11.3014"/>
<text text-anchor="middle" x="37.5" y="-474.999" font-family="Times,serif" font-size="14.00">Spheres</text>
</g>
<!-- Spheres_trunc_allnullhomot -->
<g id="node1" class="node"><title>Spheres_trunc_allnullhomot</title>
<g id="a_node1"><a xlink:href="Spheres.html#trunc_allnullhomot" xlink:title="trunc_allnullhomot">
<ellipse fill="#f070d1" stroke="black" cx="229" cy="-285.301" rx="78.7731" ry="18"/>
<ellipse fill="none" stroke="black" cx="229" cy="-285.301" rx="82.7797" ry="22"/>
<ellipse fill="none" stroke="black" cx="229" cy="-285.301" rx="86.7863" ry="26"/>
<text text-anchor="middle" x="229" y="-281.601" font-family="Times,serif" font-size="14.00">trunc_allnullhomot</text>
</a>
</g>
</g>
<!-- Spheres_Sph0_to_Bool -->
<g id="node13" class="node"><title>Spheres_Sph0_to_Bool</title>
<g id="a_node13"><a xlink:href="Spheres.html#Sph0_to_Bool" xlink:title="Sph0_to_Bool">
<ellipse fill="#f070d1" stroke="black" cx="410" cy="-161.301" rx="61.99" ry="18"/>
<text text-anchor="middle" x="410" y="-157.601" font-family="Times,serif" font-size="14.00">Sph0_to_Bool</text>
</a>
</g>
</g>
<!-- Spheres_trunc_allnullhomot&#45;&gt;Spheres_Sph0_to_Bool -->
<g id="edge1" class="edge"><title>Spheres_trunc_allnullhomot&#45;&gt;Spheres_Sph0_to_Bool</title>
<path fill="none" stroke="black" d="M263.899,-261.393C296.576,-239.007 345.043,-205.803 377.067,-183.863"/>
<polygon fill="black" stroke="black" points="379.365,-186.532 385.637,-177.992 375.409,-180.757 379.365,-186.532"/>
</g>
<!-- Spheres_allnullhomot_trunc -->
<g id="node2" class="node"><title>Spheres_allnullhomot_trunc</title>
<g id="a_node2"><a xlink:href="Spheres.html#allnullhomot_trunc" xlink:title="allnullhomot_trunc">
<ellipse fill="#f070d1" stroke="black" cx="244" cy="-161.301" rx="78.7731" ry="18"/>
<ellipse fill="none" stroke="black" cx="244" cy="-161.301" rx="82.7797" ry="22"/>
<ellipse fill="none" stroke="black" cx="244" cy="-161.301" rx="86.7863" ry="26"/>
<text text-anchor="middle" x="244" y="-157.601" font-family="Times,serif" font-size="14.00">allnullhomot_trunc</text>
</a>
</g>
</g>
<!-- Spheres_Sphere -->
<g id="node14" class="node"><title>Spheres_Sphere</title>
<g id="a_node14"><a xlink:href="Spheres.html#Sphere" xlink:title="Sphere">
<ellipse fill="#f070d1" stroke="black" cx="480" cy="-48.3014" rx="35.194" ry="18"/>
<text text-anchor="middle" x="480" y="-44.6014" font-family="Times,serif" font-size="14.00">Sphere</text>
</a>
</g>
</g>
<!-- Spheres_allnullhomot_trunc&#45;&gt;Spheres_Sphere -->
<g id="edge2" class="edge"><title>Spheres_allnullhomot_trunc&#45;&gt;Spheres_Sphere</title>
<path fill="none" stroke="black" d="M290.063,-139.246C335.487,-117.496 403.908,-84.7355 445.037,-65.0421"/>
<polygon fill="black" stroke="black" points="446.62,-68.1648 454.128,-60.6893 443.597,-61.8512 446.62,-68.1648"/>
</g>
<!-- Spheres_isequiv_Sph2_to_S2 -->
<g id="node3" class="node"><title>Spheres_isequiv_Sph2_to_S2</title>
<g id="a_node3"><a xlink:href="Spheres.html#isequiv_Sph2_to_S2" xlink:title="isequiv_Sph2_to_S2">
<ellipse fill="#f070d1" stroke="black" cx="816" cy="-409.301" rx="83.3687" ry="18"/>
<ellipse fill="none" stroke="black" cx="816" cy="-409.301" rx="87.3772" ry="22"/>
<ellipse fill="none" stroke="black" cx="816" cy="-409.301" rx="91.3856" ry="26"/>
<text text-anchor="middle" x="816" y="-405.601" font-family="Times,serif" font-size="14.00">isequiv_Sph2_to_S2</text>
</a>
</g>
</g>
<!-- Spheres_issect_Sph2_to_S2 -->
<g id="node4" class="node"><title>Spheres_issect_Sph2_to_S2</title>
<g id="a_node4"><a xlink:href="Spheres.html#issect_Sph2_to_S2" xlink:title="issect_Sph2_to_S2">
<ellipse fill="#f070d1" stroke="black" cx="737" cy="-285.301" rx="77.1866" ry="18"/>
<text text-anchor="middle" x="737" y="-281.601" font-family="Times,serif" font-size="14.00">issect_Sph2_to_S2</text>
</a>
</g>
</g>
<!-- Spheres_isequiv_Sph2_to_S2&#45;&gt;Spheres_issect_Sph2_to_S2 -->
<g id="edge3" class="edge"><title>Spheres_isequiv_Sph2_to_S2&#45;&gt;Spheres_issect_Sph2_to_S2</title>
<path fill="none" stroke="black" d="M799.631,-383.609C786.265,-362.629 767.443,-333.085 753.927,-311.871"/>
<polygon fill="black" stroke="black" points="756.816,-309.891 748.491,-303.338 750.913,-313.653 756.816,-309.891"/>
</g>
<!-- Spheres_issect_S2_to_Sph2 -->
<g id="node5" class="node"><title>Spheres_issect_S2_to_Sph2</title>
<g id="a_node5"><a xlink:href="Spheres.html#issect_S2_to_Sph2" xlink:title="issect_S2_to_Sph2">
<ellipse fill="#f070d1" stroke="black" cx="910" cy="-285.301" rx="77.1866" ry="18"/>
<text text-anchor="middle" x="910" y="-281.601" font-family="Times,serif" font-size="14.00">issect_S2_to_Sph2</text>
</a>
</g>
</g>
<!-- Spheres_isequiv_Sph2_to_S2&#45;&gt;Spheres_issect_S2_to_Sph2 -->
<g id="edge4" class="edge"><title>Spheres_isequiv_Sph2_to_S2&#45;&gt;Spheres_issect_S2_to_Sph2</title>
<path fill="none" stroke="black" d="M835.477,-383.609C851.452,-362.535 873.977,-332.821 890.074,-311.587"/>
<polygon fill="black" stroke="black" points="893.075,-313.422 896.327,-303.338 887.497,-309.193 893.075,-313.422"/>
</g>
<!-- Spheres_S2_to_Sph2 -->
<g id="node6" class="node"><title>Spheres_S2_to_Sph2</title>
<g id="a_node6"><a xlink:href="Spheres.html#S2_to_Sph2" xlink:title="S2_to_Sph2">
<ellipse fill="#f070d1" stroke="black" cx="863" cy="-161.301" rx="53.8905" ry="18"/>
<text text-anchor="middle" x="863" y="-157.601" font-family="Times,serif" font-size="14.00">S2_to_Sph2</text>
</a>
</g>
</g>
<!-- Spheres_issect_Sph2_to_S2&#45;&gt;Spheres_S2_to_Sph2 -->
<g id="edge5" class="edge"><title>Spheres_issect_Sph2_to_S2&#45;&gt;Spheres_S2_to_Sph2</title>
<path fill="none" stroke="black" d="M755.053,-267.535C776.883,-246.051 813.738,-209.782 838.217,-185.691"/>
<polygon fill="black" stroke="black" points="840.715,-188.144 845.387,-178.635 835.805,-183.155 840.715,-188.144"/>
</g>
<!-- Spheres_Sph2_to_S2 -->
<g id="node7" class="node"><title>Spheres_Sph2_to_S2</title>
<g id="a_node7"><a xlink:href="Spheres.html#Sph2_to_S2" xlink:title="Sph2_to_S2">
<ellipse fill="#f070d1" stroke="black" cx="737" cy="-161.301" rx="53.8905" ry="18"/>
<text text-anchor="middle" x="737" y="-157.601" font-family="Times,serif" font-size="14.00">Sph2_to_S2</text>
</a>
</g>
</g>
<!-- Spheres_issect_Sph2_to_S2&#45;&gt;Spheres_Sph2_to_S2 -->
<g id="edge6" class="edge"><title>Spheres_issect_Sph2_to_S2&#45;&gt;Spheres_Sph2_to_S2</title>
<path fill="none" stroke="black" d="M737,-267.271C737,-246.884 737,-213.428 737,-189.563"/>
<polygon fill="black" stroke="black" points="740.5,-189.354 737,-179.354 733.5,-189.354 740.5,-189.354"/>
</g>
<!-- Spheres_issect_S2_to_Sph2&#45;&gt;Spheres_S2_to_Sph2 -->
<g id="edge7" class="edge"><title>Spheres_issect_S2_to_Sph2&#45;&gt;Spheres_S2_to_Sph2</title>
<path fill="none" stroke="black" d="M903.166,-267.271C895.369,-246.7 882.529,-212.824 873.468,-188.92"/>
<polygon fill="black" stroke="black" points="876.66,-187.464 869.842,-179.354 870.114,-189.945 876.66,-187.464"/>
</g>
<!-- Spheres_issect_S2_to_Sph2&#45;&gt;Spheres_Sph2_to_S2 -->
<g id="edge8" class="edge"><title>Spheres_issect_S2_to_Sph2&#45;&gt;Spheres_Sph2_to_S2</title>
<path fill="none" stroke="black" d="M885.945,-268.06C855.218,-246.036 801.982,-207.878 768.174,-183.646"/>
<polygon fill="black" stroke="black" points="770.19,-180.785 760.023,-177.804 766.112,-186.474 770.19,-180.785"/>
</g>
<!-- Spheres_S2_to_Sph2&#45;&gt;Spheres_Sphere -->
<g id="edge9" class="edge"><title>Spheres_S2_to_Sph2&#45;&gt;Spheres_Sphere</title>
<path fill="none" stroke="black" d="M830.275,-146.88C820.619,-142.876 809.968,-138.698 800,-135.301 701.92,-101.878 583.581,-72.4492 521.948,-57.9184"/>
<polygon fill="black" stroke="black" points="522.73,-54.5069 512.195,-55.632 521.133,-61.3222 522.73,-54.5069"/>
</g>
<!-- Spheres_isequiv_Sph1_to_S1 -->
<g id="node8" class="node"><title>Spheres_isequiv_Sph1_to_S1</title>
<g id="a_node8"><a xlink:href="Spheres.html#isequiv_Sph1_to_S1" xlink:title="isequiv_Sph1_to_S1">
<ellipse fill="#f070d1" stroke="black" cx="388" cy="-409.301" rx="83.3687" ry="18"/>
<ellipse fill="none" stroke="black" cx="388" cy="-409.301" rx="87.3772" ry="22"/>
<ellipse fill="none" stroke="black" cx="388" cy="-409.301" rx="91.3856" ry="26"/>
<text text-anchor="middle" x="388" y="-405.601" font-family="Times,serif" font-size="14.00">isequiv_Sph1_to_S1</text>
</a>
</g>
</g>
<!-- Spheres_S1_to_Sph1 -->
<g id="node9" class="node"><title>Spheres_S1_to_Sph1</title>
<g id="a_node9"><a xlink:href="Spheres.html#S1_to_Sph1" xlink:title="S1_to_Sph1">
<ellipse fill="#f070d1" stroke="black" cx="70" cy="-285.301" rx="53.8905" ry="18"/>
<text text-anchor="middle" x="70" y="-281.601" font-family="Times,serif" font-size="14.00">S1_to_Sph1</text>
</a>
</g>
</g>
<!-- Spheres_isequiv_Sph1_to_S1&#45;&gt;Spheres_S1_to_Sph1 -->
<g id="edge10" class="edge"><title>Spheres_isequiv_Sph1_to_S1&#45;&gt;Spheres_S1_to_Sph1</title>
<path fill="none" stroke="black" d="M332.883,-388.565C281.133,-368.99 201.622,-338.643 133,-311.301 126.649,-308.771 119.955,-306.058 113.397,-303.374"/>
<polygon fill="black" stroke="black" points="114.521,-300.052 103.942,-299.487 111.86,-306.527 114.521,-300.052"/>
</g>
<!-- Spheres_Sph1_to_S1 -->
<g id="node10" class="node"><title>Spheres_Sph1_to_S1</title>
<g id="a_node10"><a xlink:href="Spheres.html#Sph1_to_S1" xlink:title="Sph1_to_S1">
<ellipse fill="#f070d1" stroke="black" cx="388" cy="-285.301" rx="53.8905" ry="18"/>
<text text-anchor="middle" x="388" y="-281.601" font-family="Times,serif" font-size="14.00">Sph1_to_S1</text>
</a>
</g>
</g>
<!-- Spheres_isequiv_Sph1_to_S1&#45;&gt;Spheres_Sph1_to_S1 -->
<g id="edge11" class="edge"><title>Spheres_isequiv_Sph1_to_S1&#45;&gt;Spheres_Sph1_to_S1</title>
<path fill="none" stroke="black" d="M388,-383.004C388,-362.663 388,-334.544 388,-313.693"/>
<polygon fill="black" stroke="black" points="391.5,-313.531 388,-303.531 384.5,-313.531 391.5,-313.531"/>
</g>
<!-- Spheres_isequiv_Sph0_to_Bool -->
<g id="node11" class="node"><title>Spheres_isequiv_Sph0_to_Bool</title>
<g id="a_node11"><a xlink:href="Spheres.html#isequiv_Sph0_to_Bool" xlink:title="isequiv_Sph0_to_Bool">
<ellipse fill="#f070d1" stroke="black" cx="551" cy="-285.301" rx="90.9839" ry="18"/>
<text text-anchor="middle" x="551" y="-281.601" font-family="Times,serif" font-size="14.00">isequiv_Sph0_to_Bool</text>
</a>
</g>
</g>
<!-- Spheres_isequiv_Sph1_to_S1&#45;&gt;Spheres_isequiv_Sph0_to_Bool -->
<g id="edge12" class="edge"><title>Spheres_isequiv_Sph1_to_S1&#45;&gt;Spheres_isequiv_Sph0_to_Bool</title>
<path fill="none" stroke="black" d="M420.204,-384.803C449.083,-362.833 491.192,-330.8 519.769,-309.06"/>
<polygon fill="black" stroke="black" points="521.971,-311.782 527.811,-302.942 517.733,-306.211 521.971,-311.782"/>
</g>
<!-- Spheres_Sph1_to_S1&#45;&gt;Spheres_Sph0_to_Bool -->
<g id="edge13" class="edge"><title>Spheres_Sph1_to_S1&#45;&gt;Spheres_Sph0_to_Bool</title>
<path fill="none" stroke="black" d="M391.199,-267.271C394.832,-246.792 400.805,-213.127 405.043,-189.241"/>
<polygon fill="black" stroke="black" points="408.496,-189.812 406.797,-179.354 401.604,-188.589 408.496,-189.812"/>
</g>
<!-- Spheres_Bool_to_Sph0 -->
<g id="node12" class="node"><title>Spheres_Bool_to_Sph0</title>
<g id="a_node12"><a xlink:href="Spheres.html#Bool_to_Sph0" xlink:title="Bool_to_Sph0">
<ellipse fill="#f070d1" stroke="black" cx="551" cy="-161.301" rx="61.99" ry="18"/>
<text text-anchor="middle" x="551" y="-157.601" font-family="Times,serif" font-size="14.00">Bool_to_Sph0</text>
</a>
</g>
</g>
<!-- Spheres_isequiv_Sph0_to_Bool&#45;&gt;Spheres_Bool_to_Sph0 -->
<g id="edge14" class="edge"><title>Spheres_isequiv_Sph0_to_Bool&#45;&gt;Spheres_Bool_to_Sph0</title>
<path fill="none" stroke="black" d="M551,-267.271C551,-246.884 551,-213.428 551,-189.563"/>
<polygon fill="black" stroke="black" points="554.5,-189.354 551,-179.354 547.5,-189.354 554.5,-189.354"/>
</g>
<!-- Spheres_isequiv_Sph0_to_Bool&#45;&gt;Spheres_Sph0_to_Bool -->
<g id="edge15" class="edge"><title>Spheres_isequiv_Sph0_to_Bool&#45;&gt;Spheres_Sph0_to_Bool</title>
<path fill="none" stroke="black" d="M530.798,-267.535C506.264,-245.959 464.771,-209.469 437.379,-185.38"/>
<polygon fill="black" stroke="black" points="439.53,-182.611 429.71,-178.635 434.908,-187.867 439.53,-182.611"/>
</g>
<!-- Spheres_Bool_to_Sph0&#45;&gt;Spheres_Sphere -->
<g id="edge16" class="edge"><title>Spheres_Bool_to_Sph0&#45;&gt;Spheres_Sphere</title>
<path fill="none" stroke="black" d="M539.75,-143.396C528.049,-124.773 509.614,-95.4343 496.315,-74.2676"/>
<polygon fill="black" stroke="black" points="499.248,-72.3568 490.964,-65.7515 493.321,-76.0809 499.248,-72.3568"/>
</g>
<!-- Spheres_Sph0_to_Bool&#45;&gt;Spheres_Sphere -->
<g id="edge17" class="edge"><title>Spheres_Sph0_to_Bool&#45;&gt;Spheres_Sphere</title>
<path fill="none" stroke="black" d="M421.092,-143.396C432.628,-124.773 450.803,-95.4343 463.915,-74.2676"/>
<polygon fill="black" stroke="black" points="466.899,-76.0957 469.19,-65.7515 460.949,-72.4094 466.899,-76.0957"/>
</g>
</g>
</svg>
