<?xml version="1.0" encoding="UTF-8" standalone="no"?>
<!DOCTYPE svg PUBLIC "-//W3C//DTD SVG 1.1//EN"
 "http://www.w3.org/Graphics/SVG/1.1/DTD/svg11.dtd">
<!-- Generated by graphviz version 2.39.20141222.0545 (20141222.0545)
 -->
<!-- Title: HoTT_HIT_Pushout Pages: 1 -->
<svg width="862pt" height="435pt"
 viewBox="0.00 0.00 862.00 435.00" xmlns="http://www.w3.org/2000/svg" xmlns:xlink="http://www.w3.org/1999/xlink">
<g id="graph0" class="graph" transform="scale(1 1) rotate(0) translate(4 431)">
<title>HoTT_HIT_Pushout</title>
<polygon fill="white" stroke="transparent" points="-4,4 -4,-431 858,-431 858,4 -4,4"/>
<g id="clust1" class="cluster"><title>cluster_Pushout</title>
<polygon fill="#ffffc3" stroke="black" points="11.3113,-8 11.3113,-419 842.689,-419 842.689,-8 11.3113,-8"/>
<text text-anchor="middle" x="41.3113" y="-403.8" font-family="Times,serif" font-size="14.00">Pushout</text>
</g>
<!-- Pushout_setcone_point -->
<g id="node1" class="node"><title>Pushout_setcone_point</title>
<g id="a_node1"><a xlink:href="Pushout.html#setcone_point" xlink:title="setcone_point">
<ellipse fill="#f070d1" stroke="black" cx="118.464" cy="-114" rx="59.6142" ry="18"/>
<ellipse fill="none" stroke="black" cx="118.464" cy="-114" rx="63.6021" ry="22"/>
<ellipse fill="none" stroke="black" cx="118.464" cy="-114" rx="67.59" ry="26"/>
<text text-anchor="middle" x="118.464" y="-110.3" font-family="Times,serif" font-size="14.00">setcone_point</text>
</a>
</g>
</g>
<!-- Pushout_push -->
<g id="node11" class="node"><title>Pushout_push</title>
<g id="a_node11"><a xlink:href="Pushout.html#push" xlink:title="push">
<ellipse fill="#f070d1" stroke="black" cx="386.464" cy="-34" rx="27.0966" ry="18"/>
<text text-anchor="middle" x="386.464" y="-30.3" font-family="Times,serif" font-size="14.00">push</text>
</a>
</g>
</g>
<!-- Pushout_setcone_point&#45;&gt;Pushout_push -->
<g id="edge1" class="edge"><title>Pushout_setcone_point&#45;&gt;Pushout_push</title>
<path fill="none" stroke="black" d="M172.053,-98.0031C225.45,-82.0638 305.878,-58.0553 351.537,-44.4258"/>
<polygon fill="black" stroke="black" points="352.692,-47.7337 361.273,-41.5195 350.69,-41.0261 352.692,-47.7337"/>
</g>
<!-- Pushout_istrunc_setcone -->
<g id="node2" class="node"><title>Pushout_istrunc_setcone</title>
<g id="a_node2"><a xlink:href="Pushout.html#istrunc_setcone" xlink:title="istrunc_setcone">
<ellipse fill="#f070d1" stroke="black" cx="726.464" cy="-202" rx="65.7729" ry="18"/>
<ellipse fill="none" stroke="black" cx="726.464" cy="-202" rx="69.7808" ry="22"/>
<ellipse fill="none" stroke="black" cx="726.464" cy="-202" rx="73.7886" ry="26"/>
<text text-anchor="middle" x="726.464" y="-198.3" font-family="Times,serif" font-size="14.00">istrunc_setcone</text>
</a>
</g>
</g>
<!-- Pushout_pushout -->
<g id="node12" class="node"><title>Pushout_pushout</title>
<g id="a_node12"><a xlink:href="Pushout.html#pushout" xlink:title="pushout">
<ellipse fill="#f070d1" stroke="black" cx="617.464" cy="-114" rx="38.1938" ry="18"/>
<text text-anchor="middle" x="617.464" y="-110.3" font-family="Times,serif" font-size="14.00">pushout</text>
</a>
</g>
</g>
<!-- Pushout_istrunc_setcone&#45;&gt;Pushout_pushout -->
<g id="edge2" class="edge"><title>Pushout_istrunc_setcone&#45;&gt;Pushout_pushout</title>
<path fill="none" stroke="black" d="M696.679,-177.954C680.469,-164.866 660.557,-148.791 644.753,-136.031"/>
<polygon fill="black" stroke="black" points="646.883,-133.253 636.903,-129.695 642.486,-138.7 646.883,-133.253"/>
</g>
<!-- Pushout_setcone -->
<g id="node3" class="node"><title>Pushout_setcone</title>
<g id="a_node3"><a xlink:href="Pushout.html#setcone" xlink:title="setcone">
<ellipse fill="#f070d1" stroke="black" cx="533.464" cy="-202" rx="37.0852" ry="18"/>
<ellipse fill="none" stroke="black" cx="533.464" cy="-202" rx="41.0893" ry="22"/>
<ellipse fill="none" stroke="black" cx="533.464" cy="-202" rx="45.0935" ry="26"/>
<text text-anchor="middle" x="533.464" y="-198.3" font-family="Times,serif" font-size="14.00">setcone</text>
</a>
</g>
</g>
<!-- Pushout_setcone&#45;&gt;Pushout_pushout -->
<g id="edge3" class="edge"><title>Pushout_setcone&#45;&gt;Pushout_pushout</title>
<path fill="none" stroke="black" d="M555.534,-178.879C567.529,-166.312 582.349,-150.787 594.483,-138.075"/>
<polygon fill="black" stroke="black" points="597.269,-140.225 601.642,-130.575 592.206,-135.392 597.269,-140.225"/>
</g>
<!-- Pushout_pushout_rec_beta_pp -->
<g id="node4" class="node"><title>Pushout_pushout_rec_beta_pp</title>
<g id="a_node4"><a xlink:href="Pushout.html#pushout_rec_beta_pp" xlink:title="pushout_rec_beta_pp">
<ellipse fill="#f070d1" stroke="black" cx="222.464" cy="-362" rx="85.6029" ry="18"/>
<ellipse fill="none" stroke="black" cx="222.464" cy="-362" rx="89.5941" ry="22"/>
<ellipse fill="none" stroke="black" cx="222.464" cy="-362" rx="93.5852" ry="26"/>
<text text-anchor="middle" x="222.464" y="-358.3" font-family="Times,serif" font-size="14.00">pushout_rec_beta_pp</text>
</a>
</g>
</g>
<!-- Pushout_pushout_rec -->
<g id="node5" class="node"><title>Pushout_pushout_rec</title>
<g id="a_node5"><a xlink:href="Pushout.html#pushout_rec" xlink:title="pushout_rec">
<ellipse fill="#f070d1" stroke="black" cx="127.464" cy="-282" rx="53.8905" ry="18"/>
<text text-anchor="middle" x="127.464" y="-278.3" font-family="Times,serif" font-size="14.00">pushout_rec</text>
</a>
</g>
</g>
<!-- Pushout_pushout_rec_beta_pp&#45;&gt;Pushout_pushout_rec -->
<g id="edge4" class="edge"><title>Pushout_pushout_rec_beta_pp&#45;&gt;Pushout_pushout_rec</title>
<path fill="none" stroke="black" d="M192.926,-337.126C180.888,-326.989 167.046,-315.333 155.2,-305.357"/>
<polygon fill="black" stroke="black" points="157.268,-302.523 147.364,-298.758 152.759,-307.877 157.268,-302.523"/>
</g>
<!-- Pushout_pushout_ind_beta_pp -->
<g id="node6" class="node"><title>Pushout_pushout_ind_beta_pp</title>
<g id="a_node6"><a xlink:href="Pushout.html#pushout_ind_beta_pp" xlink:title="pushout_ind_beta_pp">
<ellipse fill="#f070d1" stroke="black" cx="322.464" cy="-202" rx="86.3847" ry="18"/>
<text text-anchor="middle" x="322.464" y="-198.3" font-family="Times,serif" font-size="14.00">pushout_ind_beta_pp</text>
</a>
</g>
</g>
<!-- Pushout_pushout_rec_beta_pp&#45;&gt;Pushout_pushout_ind_beta_pp -->
<g id="edge5" class="edge"><title>Pushout_pushout_rec_beta_pp&#45;&gt;Pushout_pushout_ind_beta_pp</title>
<path fill="none" stroke="black" d="M238.53,-336.293C256.943,-306.833 286.98,-258.774 305.686,-228.845"/>
<polygon fill="black" stroke="black" points="308.77,-230.514 311.102,-220.179 302.834,-226.804 308.77,-230.514"/>
</g>
<!-- Pushout_pushout_ind -->
<g id="node7" class="node"><title>Pushout_pushout_ind</title>
<g id="a_node7"><a xlink:href="Pushout.html#pushout_ind" xlink:title="pushout_ind">
<ellipse fill="#f070d1" stroke="black" cx="99.4636" cy="-202" rx="53.8905" ry="18"/>
<text text-anchor="middle" x="99.4636" y="-198.3" font-family="Times,serif" font-size="14.00">pushout_ind</text>
</a>
</g>
</g>
<!-- Pushout_pushout_rec&#45;&gt;Pushout_pushout_ind -->
<g id="edge6" class="edge"><title>Pushout_pushout_rec&#45;&gt;Pushout_pushout_ind</title>
<path fill="none" stroke="black" d="M121.11,-263.847C117.566,-253.721 113.078,-240.9 109.11,-229.56"/>
<polygon fill="black" stroke="black" points="112.399,-228.364 105.792,-220.081 105.792,-230.676 112.399,-228.364"/>
</g>
<!-- Pushout_pp -->
<g id="node8" class="node"><title>Pushout_pp</title>
<g id="a_node8"><a xlink:href="Pushout.html#pp" xlink:title="pp">
<ellipse fill="#f070d1" stroke="black" cx="278.464" cy="-114" rx="27" ry="18"/>
<text text-anchor="middle" x="278.464" y="-110.3" font-family="Times,serif" font-size="14.00">pp</text>
</a>
</g>
</g>
<!-- Pushout_pushout_ind_beta_pp&#45;&gt;Pushout_pp -->
<g id="edge7" class="edge"><title>Pushout_pushout_ind_beta_pp&#45;&gt;Pushout_pp</title>
<path fill="none" stroke="black" d="M313.347,-183.766C307.088,-171.25 298.683,-154.438 291.691,-140.454"/>
<polygon fill="black" stroke="black" points="294.722,-138.691 287.12,-131.312 288.461,-141.822 294.722,-138.691"/>
</g>
<!-- Pushout_pushr -->
<g id="node9" class="node"><title>Pushout_pushr</title>
<g id="a_node9"><a xlink:href="Pushout.html#pushr" xlink:title="pushr">
<ellipse fill="#f070d1" stroke="black" cx="386.464" cy="-114" rx="30.5947" ry="18"/>
<text text-anchor="middle" x="386.464" y="-110.3" font-family="Times,serif" font-size="14.00">pushr</text>
</a>
</g>
</g>
<!-- Pushout_pushout_ind_beta_pp&#45;&gt;Pushout_pushr -->
<g id="edge8" class="edge"><title>Pushout_pushout_ind_beta_pp&#45;&gt;Pushout_pushr</title>
<path fill="none" stroke="black" d="M335.415,-184.192C344.852,-171.216 357.765,-153.461 368.242,-139.055"/>
<polygon fill="black" stroke="black" points="371.346,-140.737 374.397,-130.591 365.685,-136.62 371.346,-140.737"/>
</g>
<!-- Pushout_pushl -->
<g id="node10" class="node"><title>Pushout_pushl</title>
<g id="a_node10"><a xlink:href="Pushout.html#pushl" xlink:title="pushl">
<ellipse fill="#f070d1" stroke="black" cx="496.464" cy="-114" rx="29.795" ry="18"/>
<text text-anchor="middle" x="496.464" y="-110.3" font-family="Times,serif" font-size="14.00">pushl</text>
</a>
</g>
</g>
<!-- Pushout_pushout_ind_beta_pp&#45;&gt;Pushout_pushl -->
<g id="edge9" class="edge"><title>Pushout_pushout_ind_beta_pp&#45;&gt;Pushout_pushl</title>
<path fill="none" stroke="black" d="M355.601,-185.241C386.877,-169.423 433.463,-145.862 464.386,-130.223"/>
<polygon fill="black" stroke="black" points="466.102,-133.277 473.446,-125.641 462.943,-127.031 466.102,-133.277"/>
</g>
<!-- Pushout_pushout_ind_beta_pp&#45;&gt;Pushout_pushout -->
<g id="edge10" class="edge"><title>Pushout_pushout_ind_beta_pp&#45;&gt;Pushout_pushout</title>
<path fill="none" stroke="black" d="M373.781,-187.433C416.987,-175.08 480.375,-156.749 535.464,-140 548.672,-135.984 563.033,-131.479 575.992,-127.361"/>
<polygon fill="black" stroke="black" points="577.122,-130.674 585.586,-124.301 574.996,-124.005 577.122,-130.674"/>
</g>
<!-- Pushout_pushout_ind&#45;&gt;Pushout_pp -->
<g id="edge11" class="edge"><title>Pushout_pushout_ind&#45;&gt;Pushout_pp</title>
<path fill="none" stroke="black" d="M129.828,-187.072C162.601,-170.96 214.522,-145.435 247.519,-129.213"/>
<polygon fill="black" stroke="black" points="249.271,-132.252 256.701,-124.699 246.182,-125.97 249.271,-132.252"/>
</g>
<!-- Pushout_pushout_ind&#45;&gt;Pushout_pushr -->
<g id="edge12" class="edge"><title>Pushout_pushout_ind&#45;&gt;Pushout_pushr</title>
<path fill="none" stroke="black" d="M141.734,-190.695C185.271,-178.844 254.971,-159.297 314.464,-140 326.513,-136.092 339.57,-131.49 351.215,-127.252"/>
<polygon fill="black" stroke="black" points="352.431,-130.534 360.611,-123.802 350.018,-123.963 352.431,-130.534"/>
</g>
<!-- Pushout_pushout_ind&#45;&gt;Pushout_pushl -->
<g id="edge13" class="edge"><title>Pushout_pushout_ind&#45;&gt;Pushout_pushl</title>
<path fill="none" stroke="black" d="M145.33,-192.436C169.702,-187.416 200.184,-181.238 227.464,-176 315.732,-159.053 339.775,-163.74 426.464,-140 438.359,-136.742 451.08,-132.316 462.37,-128.038"/>
<polygon fill="black" stroke="black" points="463.812,-131.233 471.867,-124.351 461.278,-124.708 463.812,-131.233"/>
</g>
<!-- Pushout_pushout_ind&#45;&gt;Pushout_pushout -->
<g id="edge14" class="edge"><title>Pushout_pushout_ind&#45;&gt;Pushout_pushout</title>
<path fill="none" stroke="black" d="M144.316,-191.928C168.798,-186.673 199.697,-180.435 227.464,-176 363.559,-154.264 400.72,-168.959 535.464,-140 549.31,-137.024 564.149,-132.685 577.347,-128.402"/>
<polygon fill="black" stroke="black" points="578.694,-131.642 587.075,-125.16 576.481,-125.001 578.694,-131.642"/>
</g>
<!-- Pushout_pushr&#45;&gt;Pushout_push -->
<g id="edge15" class="edge"><title>Pushout_pushr&#45;&gt;Pushout_push</title>
<path fill="none" stroke="black" d="M386.464,-95.8468C386.464,-85.9251 386.464,-73.4167 386.464,-62.2492"/>
<polygon fill="black" stroke="black" points="389.964,-62.0814 386.464,-52.0814 382.964,-62.0814 389.964,-62.0814"/>
</g>
<!-- Pushout_pushl&#45;&gt;Pushout_push -->
<g id="edge16" class="edge"><title>Pushout_pushl&#45;&gt;Pushout_push</title>
<path fill="none" stroke="black" d="M477.303,-100.065C459.609,-87.1964 433.148,-67.9527 413.343,-53.5489"/>
<polygon fill="black" stroke="black" points="415.184,-50.5599 405.038,-47.5087 411.067,-56.221 415.184,-50.5599"/>
</g>
</g>
</svg>
