<?xml version="1.0" encoding="UTF-8" standalone="no"?>
<!DOCTYPE svg PUBLIC "-//W3C//DTD SVG 1.1//EN"
 "http://www.w3.org/Graphics/SVG/1.1/DTD/svg11.dtd">
<!-- Generated by graphviz version 2.39.20141222.0545 (20141222.0545)
 -->
<!-- Title: HoTT_categories_NaturalTransformation_Sum Pages: 1 -->
<svg width="366pt" height="187pt"
 viewBox="0.00 0.00 366.00 187.00" xmlns="http://www.w3.org/2000/svg" xmlns:xlink="http://www.w3.org/1999/xlink">
<g id="graph0" class="graph" transform="scale(1 1) rotate(0) translate(4 183)">
<title>HoTT_categories_NaturalTransformation_Sum</title>
<polygon fill="white" stroke="transparent" points="-4,4 -4,-183 362,-183 362,4 -4,4"/>
<g id="clust1" class="cluster"><title>cluster_Sum</title>
<polygon fill="#ffffc3" stroke="black" points="18.359,-8 18.359,-171 339.641,-171 339.641,-8 18.359,-8"/>
<text text-anchor="middle" x="39.359" y="-155.8" font-family="Times,serif" font-size="14.00">Sum</text>
</g>
<!-- Sum_sum -->
<g id="node1" class="node"><title>Sum_sum</title>
<g id="a_node1"><a xlink:href="Sum.html#sum" xlink:title="sum">
<ellipse fill="#f070d1" stroke="black" cx="178.744" cy="-114" rx="27" ry="18"/>
<ellipse fill="none" stroke="black" cx="178.744" cy="-114" rx="31" ry="22"/>
<ellipse fill="none" stroke="black" cx="178.744" cy="-114" rx="35" ry="26"/>
<text text-anchor="middle" x="178.744" y="-110.3" font-family="Times,serif" font-size="14.00">sum</text>
</a>
</g>
</g>
<!-- Sum_sum_subproof -->
<g id="node2" class="node"><title>Sum_sum_subproof</title>
<g id="a_node2"><a xlink:href="Sum.html#sum_subproof" xlink:title="sum_subproof">
<ellipse fill="#facdef" stroke="black" cx="178.744" cy="-34" rx="61.99" ry="18"/>
<text text-anchor="middle" x="178.744" y="-30.3" font-family="Times,serif" font-size="14.00">sum_subproof</text>
</a>
</g>
</g>
<!-- Sum_sum&#45;&gt;Sum_sum_subproof -->
<g id="edge1" class="edge"><title>Sum_sum&#45;&gt;Sum_sum_subproof</title>
<path fill="none" stroke="black" d="M178.744,-87.805C178.744,-79.6026 178.744,-70.5174 178.744,-62.1839"/>
<polygon fill="black" stroke="black" points="182.244,-62.1532 178.744,-52.1532 175.244,-62.1533 182.244,-62.1532"/>
</g>
</g>
</svg>
