<?xml version="1.0" encoding="UTF-8" standalone="no"?>
<!DOCTYPE svg PUBLIC "-//W3C//DTD SVG 1.1//EN"
 "http://www.w3.org/Graphics/SVG/1.1/DTD/svg11.dtd">
<!-- Generated by graphviz version 2.39.20141222.0545 (20141222.0545)
 -->
<!-- Title: HoTT_categories_NaturalTransformation_Core Pages: 1 -->
<svg width="1557pt" height="783pt"
 viewBox="0.00 0.00 1557.00 782.50" xmlns="http://www.w3.org/2000/svg" xmlns:xlink="http://www.w3.org/1999/xlink">
<g id="graph0" class="graph" transform="scale(1 1) rotate(0) translate(4 778.5)">
<title>HoTT_categories_NaturalTransformation_Core</title>
<polygon fill="white" stroke="transparent" points="-4,4 -4,-778.5 1553,-778.5 1553,4 -4,4"/>
<g id="clust1" class="cluster"><title>cluster_Core</title>
<polygon fill="#ffffc3" stroke="black" points="8,-23.206 8,-751.294 1541,-751.294 1541,-23.206 8,-23.206"/>
<text text-anchor="middle" x="29.5" y="-736.094" font-family="Times,serif" font-size="14.00">Core</text>
</g>
<!-- Core_commutes_T_Fp -->
<g id="node1" class="node"><title>Core_commutes_T_Fp</title>
<g id="a_node1"><a xlink:href="Core.html#commutes_T_Fp" xlink:title="commutes_T_Fp">
<ellipse fill="#f070d1" stroke="black" cx="1454" cy="-586.206" rx="71.488" ry="18"/>
<ellipse fill="none" stroke="black" cx="1454" cy="-586.206" rx="75.4876" ry="22"/>
<ellipse fill="none" stroke="black" cx="1454" cy="-586.206" rx="79.4873" ry="26"/>
<text text-anchor="middle" x="1454" y="-582.506" font-family="Times,serif" font-size="14.00">commutes_T_Fp</text>
</a>
</g>
</g>
<!-- Core_commutes_pT_F -->
<g id="node2" class="node"><title>Core_commutes_pT_F</title>
<g id="a_node2"><a xlink:href="Core.html#commutes_pT_F" xlink:title="commutes_pT_F">
<ellipse fill="#f070d1" stroke="black" cx="1277" cy="-586.206" rx="71.488" ry="18"/>
<ellipse fill="none" stroke="black" cx="1277" cy="-586.206" rx="75.4876" ry="22"/>
<ellipse fill="none" stroke="black" cx="1277" cy="-586.206" rx="79.4873" ry="26"/>
<text text-anchor="middle" x="1277" y="-582.506" font-family="Times,serif" font-size="14.00">commutes_pT_F</text>
</a>
</g>
</g>
<!-- Core_Build_NaturalTransformation -->
<g id="node3" class="node"><title>Core_Build_NaturalTransformation</title>
<g id="a_node3"><a xlink:href="Core.html#Build_NaturalTransformation" xlink:title="Build_NaturalTransformation">
<ellipse fill="#f070d1" stroke="black" cx="1191" cy="-330.206" rx="116.19" ry="18"/>
<ellipse fill="none" stroke="black" cx="1191" cy="-330.206" rx="120.185" ry="22"/>
<ellipse fill="none" stroke="black" cx="1191" cy="-330.206" rx="124.18" ry="26"/>
<text text-anchor="middle" x="1191" y="-326.506" font-family="Times,serif" font-size="14.00">Build_NaturalTransformation</text>
</a>
</g>
</g>
<!-- Core_Build_NaturalTransformation_ -->
<g id="node10" class="node"><title>Core_Build_NaturalTransformation_</title>
<g id="a_node10"><a xlink:href="Core.html#Build_NaturalTransformation'" xlink:title="Build_NaturalTransformation&#39;">
<ellipse fill="#7faaff" stroke="black" cx="1065" cy="-98.206" rx="117.779" ry="18"/>
<text text-anchor="middle" x="1065" y="-94.506" font-family="Times,serif" font-size="14.00">Build_NaturalTransformation&#39;</text>
</a>
</g>
</g>
<!-- Core_Build_NaturalTransformation&#45;&gt;Core_Build_NaturalTransformation_ -->
<g id="edge1" class="edge"><title>Core_Build_NaturalTransformation&#45;&gt;Core_Build_NaturalTransformation_</title>
<path fill="none" stroke="black" d="M1176.79,-304.044C1152.7,-259.679 1104.07,-170.143 1079.67,-125.213"/>
<polygon fill="black" stroke="black" points="1082.69,-123.452 1074.85,-116.334 1076.54,-126.792 1082.69,-123.452"/>
</g>
<!-- Core_NaturalTransformation_rec -->
<g id="node4" class="node"><title>Core_NaturalTransformation_rec</title>
<g id="a_node4"><a xlink:href="Core.html#NaturalTransformation_rec" xlink:title="NaturalTransformation_rec">
<ellipse fill="#f070d1" stroke="black" cx="1064" cy="-586.206" rx="107.465" ry="18"/>
<ellipse fill="none" stroke="black" cx="1064" cy="-586.206" rx="111.473" ry="22"/>
<ellipse fill="none" stroke="black" cx="1064" cy="-586.206" rx="115.481" ry="26"/>
<text text-anchor="middle" x="1064" y="-582.506" font-family="Times,serif" font-size="14.00">NaturalTransformation_rec</text>
</a>
</g>
</g>
<!-- Core_NaturalTransformation_rect -->
<g id="node6" class="node"><title>Core_NaturalTransformation_rect</title>
<g id="a_node6"><a xlink:href="Core.html#NaturalTransformation_rect" xlink:title="NaturalTransformation_rect">
<ellipse fill="#f070d1" stroke="black" cx="939" cy="-330.206" rx="109.681" ry="18"/>
<text text-anchor="middle" x="939" y="-326.506" font-family="Times,serif" font-size="14.00">NaturalTransformation_rect</text>
</a>
</g>
</g>
<!-- Core_NaturalTransformation_rec&#45;&gt;Core_NaturalTransformation_rect -->
<g id="edge2" class="edge"><title>Core_NaturalTransformation_rec&#45;&gt;Core_NaturalTransformation_rect</title>
<path fill="none" stroke="black" d="M1051.33,-560.251C1027.59,-511.629 976.626,-407.264 952.366,-357.58"/>
<polygon fill="black" stroke="black" points="955.419,-355.856 947.886,-348.405 949.129,-358.927 955.419,-355.856"/>
</g>
<!-- Core_NaturalTransformation_ind -->
<g id="node5" class="node"><title>Core_NaturalTransformation_ind</title>
<g id="a_node5"><a xlink:href="Core.html#NaturalTransformation_ind" xlink:title="NaturalTransformation_ind">
<ellipse fill="#7fffd4" stroke="black" cx="815" cy="-586.206" rx="107.789" ry="18"/>
<ellipse fill="none" stroke="black" cx="815" cy="-586.206" rx="111.785" ry="22"/>
<ellipse fill="none" stroke="black" cx="815" cy="-586.206" rx="115.781" ry="26"/>
<text text-anchor="middle" x="815" y="-582.506" font-family="Times,serif" font-size="14.00">NaturalTransformation_ind</text>
</a>
</g>
</g>
<!-- Core_NaturalTransformation_ind&#45;&gt;Core_NaturalTransformation_rect -->
<g id="edge3" class="edge"><title>Core_NaturalTransformation_ind&#45;&gt;Core_NaturalTransformation_rect</title>
<path fill="none" stroke="black" d="M827.572,-560.251C851.123,-511.629 901.675,-407.264 925.741,-357.58"/>
<polygon fill="black" stroke="black" points="928.975,-358.931 930.185,-348.405 922.675,-355.879 928.975,-358.931"/>
</g>
<!-- Core_NaturalTransformation_rect&#45;&gt;Core_Build_NaturalTransformation_ -->
<g id="edge4" class="edge"><title>Core_NaturalTransformation_rect&#45;&gt;Core_Build_NaturalTransformation_</title>
<path fill="none" stroke="black" d="M948.887,-312.001C970.969,-271.343 1024.39,-172.981 1050.35,-125.18"/>
<polygon fill="black" stroke="black" points="1053.46,-126.784 1055.16,-116.326 1047.31,-123.443 1053.46,-126.784"/>
</g>
<!-- Core_commutes_sym -->
<g id="node7" class="node"><title>Core_commutes_sym</title>
<g id="a_node7"><a xlink:href="Core.html#commutes_sym" xlink:title="commutes_sym">
<ellipse fill="#f070d1" stroke="black" cx="606" cy="-586.206" rx="67.6782" ry="18"/>
<ellipse fill="none" stroke="black" cx="606" cy="-586.206" rx="71.6831" ry="22"/>
<ellipse fill="none" stroke="black" cx="606" cy="-586.206" rx="75.6881" ry="26"/>
<text text-anchor="middle" x="606" y="-582.506" font-family="Times,serif" font-size="14.00">commutes_sym</text>
</a>
</g>
</g>
<!-- Core_commutes -->
<g id="node8" class="node"><title>Core_commutes</title>
<g id="a_node8"><a xlink:href="Core.html#commutes" xlink:title="commutes">
<ellipse fill="#f070d1" stroke="black" cx="456" cy="-586.206" rx="48.178" ry="18"/>
<ellipse fill="none" stroke="black" cx="456" cy="-586.206" rx="52.1848" ry="22"/>
<ellipse fill="none" stroke="black" cx="456" cy="-586.206" rx="56.1916" ry="26"/>
<text text-anchor="middle" x="456" y="-582.506" font-family="Times,serif" font-size="14.00">commutes</text>
</a>
</g>
</g>
<!-- Core_components_of -->
<g id="node9" class="node"><title>Core_components_of</title>
<g id="a_node9"><a xlink:href="Core.html#components_of" xlink:title="components_of">
<ellipse fill="#f070d1" stroke="black" cx="308" cy="-586.206" rx="65.7729" ry="18"/>
<ellipse fill="none" stroke="black" cx="308" cy="-586.206" rx="69.7808" ry="22"/>
<ellipse fill="none" stroke="black" cx="308" cy="-586.206" rx="73.7886" ry="26"/>
<text text-anchor="middle" x="308" y="-582.506" font-family="Times,serif" font-size="14.00">components_of</text>
</a>
</g>
</g>
<!-- Core_NaturalTransformation -->
<g id="node11" class="node"><title>Core_NaturalTransformation</title>
<g id="a_node11"><a xlink:href="Core.html#NaturalTransformation" xlink:title="NaturalTransformation">
<ellipse fill="#e2cdfa" stroke="black" cx="116" cy="-586.206" rx="92.1006" ry="18"/>
<ellipse fill="none" stroke="black" cx="116" cy="-586.206" rx="96.0923" ry="22"/>
<ellipse fill="none" stroke="black" cx="116" cy="-586.206" rx="100.084" ry="26"/>
<text text-anchor="middle" x="116" y="-582.506" font-family="Times,serif" font-size="14.00">NaturalTransformation</text>
</a>
</g>
</g>
</g>
</svg>
