<?xml version="1.0" encoding="UTF-8" standalone="no"?>
<!DOCTYPE svg PUBLIC "-//W3C//DTD SVG 1.1//EN"
 "http://www.w3.org/Graphics/SVG/1.1/DTD/svg11.dtd">
<!-- Generated by graphviz version 2.39.20141222.0545 (20141222.0545)
 -->
<!-- Title: HoTT_categories_NaturalTransformation_Identity Pages: 1 -->
<svg width="594pt" height="301pt"
 viewBox="0.00 0.00 594.00 301.00" xmlns="http://www.w3.org/2000/svg" xmlns:xlink="http://www.w3.org/1999/xlink">
<g id="graph0" class="graph" transform="scale(1 1) rotate(0) translate(4 297)">
<title>HoTT_categories_NaturalTransformation_Identity</title>
<polygon fill="white" stroke="transparent" points="-4,4 -4,-297 590,-297 590,4 -4,4"/>
<g id="clust1" class="cluster"><title>cluster_Identity</title>
<polygon fill="#ffffc3" stroke="black" points="8,-9.33865 8,-283.661 578,-283.661 578,-9.33865 8,-9.33865"/>
<text text-anchor="middle" x="37.5" y="-268.461" font-family="Times,serif" font-size="14.00">Identity</text>
</g>
<!-- Identity_identity -->
<g id="node1" class="node"><title>Identity_identity</title>
<g id="a_node1"><a xlink:href="Identity.html#identity" xlink:title="identity">
<ellipse fill="#f070d1" stroke="black" cx="472" cy="-217.339" rx="37.8596" ry="18"/>
<ellipse fill="none" stroke="black" cx="472" cy="-217.339" rx="41.8769" ry="22"/>
<ellipse fill="none" stroke="black" cx="472" cy="-217.339" rx="45.8942" ry="26"/>
<text text-anchor="middle" x="472" y="-213.639" font-family="Times,serif" font-size="14.00">identity</text>
</a>
</g>
</g>
<!-- Identity_generalized_identity_ -->
<g id="node2" class="node"><title>Identity_generalized_identity_</title>
<g id="a_node2"><a xlink:href="Identity.html#generalized_identity'" xlink:title="generalized_identity&#39;">
<ellipse fill="#f070d1" stroke="black" cx="212" cy="-217.339" rx="83.6991" ry="18"/>
<ellipse fill="none" stroke="black" cx="212" cy="-217.339" rx="87.6922" ry="22"/>
<ellipse fill="none" stroke="black" cx="212" cy="-217.339" rx="91.6854" ry="26"/>
<text text-anchor="middle" x="212" y="-213.639" font-family="Times,serif" font-size="14.00">generalized_identity&#39;</text>
</a>
</g>
</g>
<!-- Identity_generalized_identity -->
<g id="node3" class="node"><title>Identity_generalized_identity</title>
<g id="a_node3"><a xlink:href="Identity.html#generalized_identity" xlink:title="generalized_identity">
<ellipse fill="#f070d1" stroke="black" cx="212" cy="-123.339" rx="82.5854" ry="18"/>
<text text-anchor="middle" x="212" y="-119.639" font-family="Times,serif" font-size="14.00">generalized_identity</text>
</a>
</g>
</g>
<!-- Identity_generalized_identity_&#45;&gt;Identity_generalized_identity -->
<g id="edge1" class="edge"><title>Identity_generalized_identity_&#45;&gt;Identity_generalized_identity</title>
<path fill="none" stroke="black" d="M212,-191.154C212,-178.886 212,-164.246 212,-151.713"/>
<polygon fill="black" stroke="black" points="215.5,-151.355 212,-141.355 208.5,-151.355 215.5,-151.355"/>
</g>
<!-- Identity_generalized_identity_commutes_sym -->
<g id="node4" class="node"><title>Identity_generalized_identity_commutes_sym</title>
<g id="a_node4"><a xlink:href="Identity.html#generalized_identity_commutes_sym" xlink:title="generalized_identity_commutes_sym">
<ellipse fill="#f070d1" stroke="black" cx="160" cy="-39.3386" rx="143.775" ry="18"/>
<text text-anchor="middle" x="160" y="-35.6386" font-family="Times,serif" font-size="14.00">generalized_identity_commutes_sym</text>
</a>
</g>
</g>
<!-- Identity_generalized_identity&#45;&gt;Identity_generalized_identity_commutes_sym -->
<g id="edge2" class="edge"><title>Identity_generalized_identity&#45;&gt;Identity_generalized_identity_commutes_sym</title>
<path fill="none" stroke="black" d="M200.717,-105.112C193.698,-93.7742 184.546,-78.9902 176.697,-66.3109"/>
<polygon fill="black" stroke="black" points="179.501,-64.1902 171.261,-57.5298 173.549,-67.8747 179.501,-64.1902"/>
</g>
<!-- Identity_generalized_identity_commutes -->
<g id="node5" class="node"><title>Identity_generalized_identity_commutes</title>
<g id="a_node5"><a xlink:href="Identity.html#generalized_identity_commutes" xlink:title="generalized_identity_commutes">
<ellipse fill="#f070d1" stroke="black" cx="446" cy="-39.3386" rx="124.278" ry="18"/>
<text text-anchor="middle" x="446" y="-35.6386" font-family="Times,serif" font-size="14.00">generalized_identity_commutes</text>
</a>
</g>
</g>
<!-- Identity_generalized_identity&#45;&gt;Identity_generalized_identity_commutes -->
<g id="edge3" class="edge"><title>Identity_generalized_identity&#45;&gt;Identity_generalized_identity_commutes</title>
<path fill="none" stroke="black" d="M254.919,-107.932C292.865,-94.3101 348.472,-74.3487 389.926,-59.4678"/>
<polygon fill="black" stroke="black" points="391.111,-62.7611 399.34,-56.0882 388.746,-56.1727 391.111,-62.7611"/>
</g>
</g>
</svg>
