<?xml version="1.0" encoding="UTF-8" standalone="no"?>
<!DOCTYPE svg PUBLIC "-//W3C//DTD SVG 1.1//EN"
 "http://www.w3.org/Graphics/SVG/1.1/DTD/svg11.dtd">
<!-- Generated by graphviz version 2.39.20141222.0545 (20141222.0545)
 -->
<!-- Title: HoTT_categories_SimplicialSets Pages: 1 -->
<svg width="588pt" height="298pt"
 viewBox="0.00 0.00 588.00 298.00" xmlns="http://www.w3.org/2000/svg" xmlns:xlink="http://www.w3.org/1999/xlink">
<g id="graph0" class="graph" transform="scale(1 1) rotate(0) translate(4 294)">
<title>HoTT_categories_SimplicialSets</title>
<polygon fill="white" stroke="transparent" points="-4,4 -4,-294 584,-294 584,4 -4,4"/>
<g id="clust1" class="cluster"><title>cluster_SimplicialSets</title>
<polygon fill="#ffffc3" stroke="black" points="13.2571,-8 13.2571,-282 566.743,-282 566.743,-8 13.2571,-8"/>
<text text-anchor="middle" x="60.7571" y="-266.8" font-family="Times,serif" font-size="14.00">SimplicialSets</text>
</g>
<g id="clust2" class="cluster"><title>cluster_SimplicialSets_Core</title>
<polygon fill="#ffffa3" stroke="black" points="26.5143,-16 26.5143,-251 553.486,-251 553.486,-16 26.5143,-16"/>
<text text-anchor="middle" x="48.0143" y="-235.8" font-family="Times,serif" font-size="14.00">Core</text>
</g>
<!-- SimplicialSets_Core_simplicial_prop -->
<g id="node1" class="node"><title>SimplicialSets_Core_simplicial_prop</title>
<g id="a_node1"><a xlink:href="SimplicialSets.html#Core.simplicial_prop" xlink:title="simplicial_prop">
<ellipse fill="#f070d1" stroke="black" cx="417.343" cy="-194" rx="66.1109" ry="18"/>
<ellipse fill="none" stroke="black" cx="417.343" cy="-194" rx="70.0999" ry="22"/>
<ellipse fill="none" stroke="black" cx="417.343" cy="-194" rx="74.0888" ry="26"/>
<text text-anchor="middle" x="417.343" y="-190.3" font-family="Times,serif" font-size="14.00">simplicial_prop</text>
</a>
</g>
</g>
<!-- SimplicialSets_Core_simplicial_category -->
<g id="node3" class="node"><title>SimplicialSets_Core_simplicial_category</title>
<g id="a_node3"><a xlink:href="SimplicialSets.html#Core.simplicial_category" xlink:title="simplicial_category">
<ellipse fill="#f070d1" stroke="black" cx="290.343" cy="-114" rx="80.6858" ry="18"/>
<text text-anchor="middle" x="290.343" y="-110.3" font-family="Times,serif" font-size="14.00">simplicial_category</text>
</a>
</g>
</g>
<!-- SimplicialSets_Core_simplicial_prop&#45;&gt;SimplicialSets_Core_simplicial_category -->
<g id="edge1" class="edge"><title>SimplicialSets_Core_simplicial_prop&#45;&gt;SimplicialSets_Core_simplicial_category</title>
<path fill="none" stroke="black" d="M380.95,-171.075C363.723,-160.223 343.219,-147.308 326.076,-136.509"/>
<polygon fill="black" stroke="black" points="327.78,-133.446 317.454,-131.078 324.049,-139.369 327.78,-133.446"/>
</g>
<!-- SimplicialSets_Core_simplicial_set -->
<g id="node2" class="node"><title>SimplicialSets_Core_simplicial_set</title>
<g id="a_node2"><a xlink:href="SimplicialSets.html#Core.simplicial_set" xlink:title="simplicial_set">
<ellipse fill="#f070d1" stroke="black" cx="152.343" cy="-194" rx="59.6142" ry="18"/>
<ellipse fill="none" stroke="black" cx="152.343" cy="-194" rx="63.6021" ry="22"/>
<ellipse fill="none" stroke="black" cx="152.343" cy="-194" rx="67.59" ry="26"/>
<text text-anchor="middle" x="152.343" y="-190.3" font-family="Times,serif" font-size="14.00">simplicial_set</text>
</a>
</g>
</g>
<!-- SimplicialSets_Core_simplicial_set&#45;&gt;SimplicialSets_Core_simplicial_category -->
<g id="edge2" class="edge"><title>SimplicialSets_Core_simplicial_set&#45;&gt;SimplicialSets_Core_simplicial_category</title>
<path fill="none" stroke="black" d="M190.052,-172.14C209.342,-160.957 232.771,-147.375 252.132,-136.151"/>
<polygon fill="black" stroke="black" points="254.096,-139.058 260.992,-131.015 250.585,-133.002 254.096,-139.058"/>
</g>
<!-- SimplicialSets_Core_simplex_category -->
<g id="node4" class="node"><title>SimplicialSets_Core_simplex_category</title>
<g id="a_node4"><a xlink:href="SimplicialSets.html#Core.simplex_category" xlink:title="simplex_category">
<ellipse fill="#f070d1" stroke="black" cx="290.343" cy="-42" rx="73.387" ry="18"/>
<text text-anchor="middle" x="290.343" y="-38.3" font-family="Times,serif" font-size="14.00">simplex_category</text>
</a>
</g>
</g>
<!-- SimplicialSets_Core_simplicial_category&#45;&gt;SimplicialSets_Core_simplex_category -->
<g id="edge3" class="edge"><title>SimplicialSets_Core_simplicial_category&#45;&gt;SimplicialSets_Core_simplex_category</title>
<path fill="none" stroke="black" d="M290.343,-95.8314C290.343,-88.131 290.343,-78.9743 290.343,-70.4166"/>
<polygon fill="black" stroke="black" points="293.843,-70.4132 290.343,-60.4133 286.843,-70.4133 293.843,-70.4132"/>
</g>
</g>
</svg>
