<?xml version="1.0" encoding="UTF-8" standalone="no"?>
<!DOCTYPE svg PUBLIC "-//W3C//DTD SVG 1.1//EN"
 "http://www.w3.org/Graphics/SVG/1.1/DTD/svg11.dtd">
<!-- Generated by graphviz version 2.39.20161220.0128 (20161220.0128)
 -->
<!-- Title: HoTT_Categories_ExponentialLaws_Law1_Functors Pages: 1 -->
<svg width="620pt" height="314pt"
 viewBox="0.00 0.00 620.00 314.00" xmlns="http://www.w3.org/2000/svg" xmlns:xlink="http://www.w3.org/1999/xlink">
<g id="graph0" class="graph" transform="scale(1 1) rotate(0) translate(4 310)">
<title>HoTT_Categories_ExponentialLaws_Law1_Functors</title>
<polygon fill="#ffffff" stroke="transparent" points="-4,4 -4,-310 616,-310 616,4 -4,4"/>
<g id="clust1" class="cluster">
<title>cluster_Functors</title>
<polygon fill="#ffffc3" stroke="#000000" points="8,-9.753 8,-296.247 604,-296.247 604,-9.753 8,-9.753"/>
<text text-anchor="middle" x="40" y="-281.047" font-family="Times,serif" font-size="14.00" fill="#000000">Functors</text>
</g>
<!-- Functors_law_ -->
<g id="node1" class="node">
<title>Functors_law_</title>
<g id="a_node1"><a xlink:href="Functors.html#law'" xlink:title="law&#39;">
<ellipse fill="#f070d1" stroke="#000000" cx="561" cy="-226.753" rx="27" ry="18"/>
<ellipse fill="none" stroke="#000000" cx="561" cy="-226.753" rx="31" ry="22"/>
<ellipse fill="none" stroke="#000000" cx="561" cy="-226.753" rx="35" ry="26"/>
<text text-anchor="middle" x="561" y="-223.053" font-family="Times,serif" font-size="14.00" fill="#000000">law&#39;</text>
</a>
</g>
</g>
<!-- Functors_inverse_ -->
<g id="node2" class="node">
<title>Functors_inverse_</title>
<g id="a_node2"><a xlink:href="Functors.html#inverse'" xlink:title="inverse&#39;">
<ellipse fill="#f070d1" stroke="#000000" cx="462" cy="-226.753" rx="37.8596" ry="18"/>
<ellipse fill="none" stroke="#000000" cx="462" cy="-226.753" rx="41.8769" ry="22"/>
<ellipse fill="none" stroke="#000000" cx="462" cy="-226.753" rx="45.8942" ry="26"/>
<text text-anchor="middle" x="462" y="-223.053" font-family="Times,serif" font-size="14.00" fill="#000000">inverse&#39;</text>
</a>
</g>
</g>
<!-- Functors_IsTerminalCategory_instance_0 -->
<g id="node4" class="node">
<title>Functors_IsTerminalCategory_instance_0</title>
<g id="a_node4"><a xlink:href="Functors.html#IsTerminalCategory_instance_0" xlink:title="IsTerminalCategory_instance_0">
<ellipse fill="#7fffd4" stroke="#000000" cx="472" cy="-128.753" rx="124.2781" ry="18"/>
<text text-anchor="middle" x="472" y="-125.053" font-family="Times,serif" font-size="14.00" fill="#000000">IsTerminalCategory_instance_0</text>
</a>
</g>
</g>
<!-- Functors_inverse_&#45;&gt;Functors_IsTerminalCategory_instance_0 -->
<g id="edge1" class="edge">
<title>Functors_inverse_&#45;&gt;Functors_IsTerminalCategory_instance_0</title>
<path fill="none" stroke="#000000" d="M464.6536,-200.7481C466.0368,-187.192 467.73,-170.5992 469.142,-156.7609"/>
<polygon fill="#000000" stroke="#000000" points="472.624,-157.1152 470.1573,-146.8115 465.6601,-156.4046 472.624,-157.1152"/>
</g>
<!-- Functors_functor_ -->
<g id="node3" class="node">
<title>Functors_functor_</title>
<g id="a_node3"><a xlink:href="Functors.html#functor'" xlink:title="functor&#39;">
<ellipse fill="#f070d1" stroke="#000000" cx="343" cy="-226.753" rx="37.8596" ry="18"/>
<ellipse fill="none" stroke="#000000" cx="343" cy="-226.753" rx="41.8769" ry="22"/>
<ellipse fill="none" stroke="#000000" cx="343" cy="-226.753" rx="45.8942" ry="26"/>
<text text-anchor="middle" x="343" y="-223.053" font-family="Times,serif" font-size="14.00" fill="#000000">functor&#39;</text>
</a>
</g>
</g>
<!-- Functors_inverse -->
<g id="node5" class="node">
<title>Functors_inverse</title>
<g id="a_node5"><a xlink:href="Functors.html#inverse" xlink:title="inverse">
<ellipse fill="#f070d1" stroke="#000000" cx="216" cy="-226.753" rx="36.3123" ry="18"/>
<ellipse fill="none" stroke="#000000" cx="216" cy="-226.753" rx="40.3031" ry="22"/>
<ellipse fill="none" stroke="#000000" cx="216" cy="-226.753" rx="44.2938" ry="26"/>
<text text-anchor="middle" x="216" y="-223.053" font-family="Times,serif" font-size="14.00" fill="#000000">inverse</text>
</a>
</g>
</g>
<!-- Functors_inverse_subproof0 -->
<g id="node6" class="node">
<title>Functors_inverse_subproof0</title>
<g id="a_node6"><a xlink:href="Functors.html#inverse_subproof0" xlink:title="inverse_subproof0">
<ellipse fill="#facdef" stroke="#000000" cx="92" cy="-128.753" rx="76.0865" ry="18"/>
<text text-anchor="middle" x="92" y="-125.053" font-family="Times,serif" font-size="14.00" fill="#000000">inverse_subproof0</text>
</a>
</g>
</g>
<!-- Functors_inverse&#45;&gt;Functors_inverse_subproof0 -->
<g id="edge2" class="edge">
<title>Functors_inverse&#45;&gt;Functors_inverse_subproof0</title>
<path fill="none" stroke="#000000" d="M189.3989,-205.7295C169.6346,-190.1093 142.6527,-168.785 122.0994,-152.5412"/>
<polygon fill="#000000" stroke="#000000" points="124.0216,-149.5993 114.0058,-146.1446 119.6812,-155.0912 124.0216,-149.5993"/>
</g>
<!-- Functors_inverse_subproof -->
<g id="node7" class="node">
<title>Functors_inverse_subproof</title>
<g id="a_node7"><a xlink:href="Functors.html#inverse_subproof" xlink:title="inverse_subproof">
<ellipse fill="#facdef" stroke="#000000" cx="258" cy="-128.753" rx="71.4873" ry="18"/>
<text text-anchor="middle" x="258" y="-125.053" font-family="Times,serif" font-size="14.00" fill="#000000">inverse_subproof</text>
</a>
</g>
</g>
<!-- Functors_inverse&#45;&gt;Functors_inverse_subproof -->
<g id="edge3" class="edge">
<title>Functors_inverse&#45;&gt;Functors_inverse_subproof</title>
<path fill="none" stroke="#000000" d="M226.816,-201.5156C232.78,-187.5998 240.1898,-170.3102 246.2898,-156.0768"/>
<polygon fill="#000000" stroke="#000000" points="249.5476,-157.3603 250.2698,-146.7901 243.1135,-154.6028 249.5476,-157.3603"/>
</g>
<!-- Functors_inverse_morphism_of -->
<g id="node8" class="node">
<title>Functors_inverse_morphism_of</title>
<g id="a_node8"><a xlink:href="Functors.html#inverse_morphism_of" xlink:title="inverse_morphism_of">
<ellipse fill="#f070d1" stroke="#000000" cx="181" cy="-41.753" rx="89.0842" ry="18"/>
<text text-anchor="middle" x="181" y="-38.053" font-family="Times,serif" font-size="14.00" fill="#000000">inverse_morphism_of</text>
</a>
</g>
</g>
<!-- Functors_inverse_subproof0&#45;&gt;Functors_inverse_morphism_of -->
<g id="edge4" class="edge">
<title>Functors_inverse_subproof0&#45;&gt;Functors_inverse_morphism_of</title>
<path fill="none" stroke="#000000" d="M110.0105,-111.1472C123.073,-98.3782 140.9235,-80.9289 155.4564,-66.7226"/>
<polygon fill="#000000" stroke="#000000" points="158.0065,-69.1243 162.7108,-59.6312 153.1132,-64.1186 158.0065,-69.1243"/>
</g>
<!-- Functors_inverse_subproof&#45;&gt;Functors_inverse_morphism_of -->
<g id="edge5" class="edge">
<title>Functors_inverse_subproof&#45;&gt;Functors_inverse_morphism_of</title>
<path fill="none" stroke="#000000" d="M242.4179,-111.1472C231.324,-98.6125 216.2383,-81.5677 203.7945,-67.5078"/>
<polygon fill="#000000" stroke="#000000" points="206.0718,-64.7998 196.8232,-59.6312 200.8299,-69.4392 206.0718,-64.7998"/>
</g>
<!-- Functors_functor -->
<g id="node9" class="node">
<title>Functors_functor</title>
<g id="a_node9"><a xlink:href="Functors.html#functor" xlink:title="functor">
<ellipse fill="#f070d1" stroke="#000000" cx="70" cy="-226.753" rx="36.3123" ry="18"/>
<ellipse fill="none" stroke="#000000" cx="70" cy="-226.753" rx="40.3031" ry="22"/>
<ellipse fill="none" stroke="#000000" cx="70" cy="-226.753" rx="44.2938" ry="26"/>
<text text-anchor="middle" x="70" y="-223.053" font-family="Times,serif" font-size="14.00" fill="#000000">functor</text>
</a>
</g>
</g>
</g>
</svg>
