<?xml version="1.0" encoding="UTF-8" standalone="no"?>
<!DOCTYPE svg PUBLIC "-//W3C//DTD SVG 1.1//EN"
 "http://www.w3.org/Graphics/SVG/1.1/DTD/svg11.dtd">
<!-- Generated by graphviz version 2.26.3 (20100126.1600)
 -->
<!-- Title: HoTT_categories_ExponentialLaws_Law4_Functors Pages: 1 -->
<svg width="1564pt" height="786pt"
 viewBox="0.00 0.00 1564.00 786.00" xmlns="http://www.w3.org/2000/svg" xmlns:xlink="http://www.w3.org/1999/xlink">
<g id="graph1" class="graph" transform="scale(1 1) rotate(0) translate(4 782)">
<title>HoTT_categories_ExponentialLaws_Law4_Functors</title>
<polygon fill="white" stroke="white" points="-4,5 -4,-782 1561,-782 1561,5 -4,5"/>
<g id="graph2" class="cluster"><title>cluster_Functors</title>
<polygon fill="#ffffc3" stroke="black" points="11.9923,-8 11.9923,-770 1544.01,-770 1544.01,-8 11.9923,-8"/>
<text text-anchor="middle" x="49.9923" y="-753.4" font-family="Times Roman,serif" font-size="14.00">Functors</text>
</g>
<!-- Functors_inverse -->
<g id="node1" class="node"><title>Functors_inverse</title>
<a xlink:href="Functors.html#inverse" xlink:title="inverse">
<ellipse fill="#f070d1" stroke="black" cx="1155.8" cy="-709" rx="46.9493" ry="18.3848"/>
<ellipse fill="none" stroke="black" cx="1155.8" cy="-709" rx="50.9133" ry="22.3848"/>
<ellipse fill="none" stroke="black" cx="1155.8" cy="-709" rx="54.8773" ry="26.3848"/>
<text text-anchor="middle" x="1155.8" y="-705.4" font-family="Times Roman,serif" font-size="14.00">inverse</text>
</a>
</g>
<!-- Functors_inverse_subproof0 -->
<g id="node2" class="node"><title>Functors_inverse_subproof0</title>
<a xlink:href="Functors.html#inverse_subproof0" xlink:title="inverse_subproof0">
<ellipse fill="#facdef" stroke="black" cx="995.802" cy="-627" rx="101.116" ry="18.3848"/>
<text text-anchor="middle" x="995.802" y="-623.4" font-family="Times Roman,serif" font-size="14.00">inverse_subproof0</text>
</a>
</g>
<!-- Functors_inverse&#45;&gt;Functors_inverse_subproof0 -->
<g id="edge2" class="edge"><title>Functors_inverse&#45;&gt;Functors_inverse_subproof0</title>
<path fill="none" stroke="black" d="M1117.88,-689.567C1094.2,-677.43 1063.64,-661.769 1039.02,-649.152"/>
<polygon fill="black" stroke="black" points="1040.4,-645.925 1029.91,-644.479 1037.21,-652.154 1040.4,-645.925"/>
</g>
<!-- Functors_inverse_subproof -->
<g id="node3" class="node"><title>Functors_inverse_subproof</title>
<a xlink:href="Functors.html#inverse_subproof" xlink:title="inverse_subproof">
<ellipse fill="#facdef" stroke="black" cx="1315.8" cy="-627" rx="94.7523" ry="18.3848"/>
<text text-anchor="middle" x="1315.8" y="-623.4" font-family="Times Roman,serif" font-size="14.00">inverse_subproof</text>
</a>
</g>
<!-- Functors_inverse&#45;&gt;Functors_inverse_subproof -->
<g id="edge4" class="edge"><title>Functors_inverse&#45;&gt;Functors_inverse_subproof</title>
<path fill="none" stroke="black" d="M1193.72,-689.567C1217.48,-677.388 1248.17,-661.661 1272.83,-649.021"/>
<polygon fill="black" stroke="black" points="1274.66,-652.017 1281.96,-644.342 1271.47,-645.788 1274.66,-652.017"/>
</g>
<!-- Functors_inverse_morphism_of -->
<g id="node4" class="node"><title>Functors_inverse_morphism_of</title>
<a xlink:href="Functors.html#inverse_morphism_of" xlink:title="inverse_morphism_of">
<ellipse fill="#f070d1" stroke="black" cx="1242.8" cy="-553" rx="114.051" ry="18.3848"/>
<text text-anchor="middle" x="1242.8" y="-549.4" font-family="Times Roman,serif" font-size="14.00">inverse_morphism_of</text>
</a>
</g>
<!-- Functors_inverse_subproof0&#45;&gt;Functors_inverse_morphism_of -->
<g id="edge6" class="edge"><title>Functors_inverse_subproof0&#45;&gt;Functors_inverse_morphism_of</title>
<path fill="none" stroke="black" d="M1048.49,-611.216C1086.58,-599.805 1138.24,-584.327 1178.72,-572.199"/>
<polygon fill="black" stroke="black" points="1179.91,-575.494 1188.49,-569.272 1177.91,-568.789 1179.91,-575.494"/>
</g>
<!-- Functors_inverse_subproof&#45;&gt;Functors_inverse_morphism_of -->
<g id="edge8" class="edge"><title>Functors_inverse_subproof&#45;&gt;Functors_inverse_morphism_of</title>
<path fill="none" stroke="black" d="M1297.76,-608.708C1288.81,-599.636 1277.85,-588.527 1268.08,-578.623"/>
<polygon fill="black" stroke="black" points="1270.41,-575.999 1260.89,-571.338 1265.42,-580.915 1270.41,-575.999"/>
</g>
<!-- Functors_inverse_morphism_of_subproof -->
<g id="node5" class="node"><title>Functors_inverse_morphism_of_subproof</title>
<a xlink:href="Functors.html#inverse_morphism_of_subproof" xlink:title="inverse_morphism_of_subproof">
<ellipse fill="#facdef" stroke="black" cx="1242.8" cy="-479" rx="161.927" ry="18.3848"/>
<text text-anchor="middle" x="1242.8" y="-475.4" font-family="Times Roman,serif" font-size="14.00">inverse_morphism_of_subproof</text>
</a>
</g>
<!-- Functors_inverse_morphism_of&#45;&gt;Functors_inverse_morphism_of_subproof -->
<g id="edge10" class="edge"><title>Functors_inverse_morphism_of&#45;&gt;Functors_inverse_morphism_of_subproof</title>
<path fill="none" stroke="black" d="M1242.8,-534.327C1242.8,-526.264 1242.8,-516.648 1242.8,-507.711"/>
<polygon fill="black" stroke="black" points="1246.3,-507.667 1242.8,-497.667 1239.3,-507.667 1246.3,-507.667"/>
</g>
<!-- Functors_inverse_morphism_of_components_of -->
<g id="node6" class="node"><title>Functors_inverse_morphism_of_components_of</title>
<a xlink:href="Functors.html#inverse_morphism_of_components_of" xlink:title="inverse_morphism_of_components_of">
<ellipse fill="#f070d1" stroke="black" cx="1242.8" cy="-405" rx="193.04" ry="18.3848"/>
<text text-anchor="middle" x="1242.8" y="-401.4" font-family="Times Roman,serif" font-size="14.00">inverse_morphism_of_components_of</text>
</a>
</g>
<!-- Functors_inverse_morphism_of_subproof&#45;&gt;Functors_inverse_morphism_of_components_of -->
<g id="edge12" class="edge"><title>Functors_inverse_morphism_of_subproof&#45;&gt;Functors_inverse_morphism_of_components_of</title>
<path fill="none" stroke="black" d="M1242.8,-460.327C1242.8,-452.264 1242.8,-442.648 1242.8,-433.711"/>
<polygon fill="black" stroke="black" points="1246.3,-433.667 1242.8,-423.667 1239.3,-433.667 1246.3,-433.667"/>
</g>
<!-- Functors_inverse_morphism_of_components_of_subproof -->
<g id="node7" class="node"><title>Functors_inverse_morphism_of_components_of_subproof</title>
<a xlink:href="Functors.html#inverse_morphism_of_components_of_subproof" xlink:title="inverse_morphism_of_components_of_subproof">
<ellipse fill="#facdef" stroke="black" cx="749.802" cy="-331" rx="239.916" ry="18.3848"/>
<text text-anchor="middle" x="749.802" y="-327.4" font-family="Times Roman,serif" font-size="14.00">inverse_morphism_of_components_of_subproof</text>
</a>
</g>
<!-- Functors_inverse_morphism_of_components_of&#45;&gt;Functors_inverse_morphism_of_components_of_subproof -->
<g id="edge14" class="edge"><title>Functors_inverse_morphism_of_components_of&#45;&gt;Functors_inverse_morphism_of_components_of_subproof</title>
<path fill="none" stroke="black" d="M1138.85,-389.397C1060.13,-377.58 951.845,-361.327 869.504,-348.967"/>
<polygon fill="black" stroke="black" points="870.003,-345.503 859.595,-347.48 868.964,-352.426 870.003,-345.503"/>
</g>
<!-- Functors_inverse_object_of -->
<g id="node8" class="node"><title>Functors_inverse_object_of</title>
<a xlink:href="Functors.html#inverse_object_of" xlink:title="inverse_object_of">
<ellipse fill="#f070d1" stroke="black" cx="1279.8" cy="-331" rx="96.1665" ry="18.3848"/>
<text text-anchor="middle" x="1279.8" y="-327.4" font-family="Times Roman,serif" font-size="14.00">inverse_object_of</text>
</a>
</g>
<!-- Functors_inverse_morphism_of_components_of&#45;&gt;Functors_inverse_object_of -->
<g id="edge16" class="edge"><title>Functors_inverse_morphism_of_components_of&#45;&gt;Functors_inverse_object_of</title>
<path fill="none" stroke="black" d="M1252.14,-386.327C1256.3,-378.001 1261.29,-368.019 1265.88,-358.84"/>
<polygon fill="black" stroke="black" points="1269.13,-360.177 1270.47,-349.667 1262.87,-357.046 1269.13,-360.177"/>
</g>
<!-- Functors_inverse_object_of_subproof0 -->
<g id="node9" class="node"><title>Functors_inverse_object_of_subproof0</title>
<a xlink:href="Functors.html#inverse_object_of_subproof0" xlink:title="inverse_object_of_subproof0">
<ellipse fill="#facdef" stroke="black" cx="831.802" cy="-257" rx="149.907" ry="18.3848"/>
<text text-anchor="middle" x="831.802" y="-253.4" font-family="Times Roman,serif" font-size="14.00">inverse_object_of_subproof0</text>
</a>
</g>
<!-- Functors_inverse_object_of&#45;&gt;Functors_inverse_object_of_subproof0 -->
<g id="edge18" class="edge"><title>Functors_inverse_object_of&#45;&gt;Functors_inverse_object_of_subproof0</title>
<path fill="none" stroke="black" d="M1206.83,-318.946C1132.01,-306.589 1015.13,-287.282 931.747,-273.509"/>
<polygon fill="black" stroke="black" points="932.186,-270.034 921.75,-271.858 931.046,-276.941 932.186,-270.034"/>
</g>
<!-- Functors_inverse_object_of_subproof -->
<g id="node10" class="node"><title>Functors_inverse_object_of_subproof</title>
<a xlink:href="Functors.html#inverse_object_of_subproof" xlink:title="inverse_object_of_subproof">
<ellipse fill="#facdef" stroke="black" cx="1297.8" cy="-257" rx="143.043" ry="18.3848"/>
<text text-anchor="middle" x="1297.8" y="-253.4" font-family="Times Roman,serif" font-size="14.00">inverse_object_of_subproof</text>
</a>
</g>
<!-- Functors_inverse_object_of&#45;&gt;Functors_inverse_object_of_subproof -->
<g id="edge20" class="edge"><title>Functors_inverse_object_of&#45;&gt;Functors_inverse_object_of_subproof</title>
<path fill="none" stroke="black" d="M1284.34,-312.327C1286.33,-304.176 1288.69,-294.438 1290.89,-285.42"/>
<polygon fill="black" stroke="black" points="1294.3,-286.211 1293.26,-275.667 1287.5,-284.557 1294.3,-286.211"/>
</g>
<!-- Functors_inverse_object_of_morphism_of -->
<g id="node11" class="node"><title>Functors_inverse_object_of_morphism_of</title>
<a xlink:href="Functors.html#inverse_object_of_morphism_of" xlink:title="inverse_object_of_morphism_of">
<ellipse fill="#f070d1" stroke="black" cx="873.802" cy="-183" rx="162.842" ry="18.3848"/>
<text text-anchor="middle" x="873.802" y="-179.4" font-family="Times Roman,serif" font-size="14.00">inverse_object_of_morphism_of</text>
</a>
</g>
<!-- Functors_inverse_object_of_subproof0&#45;&gt;Functors_inverse_object_of_morphism_of -->
<g id="edge22" class="edge"><title>Functors_inverse_object_of_subproof0&#45;&gt;Functors_inverse_object_of_morphism_of</title>
<path fill="none" stroke="black" d="M842.4,-238.327C847.175,-229.913 852.91,-219.809 858.165,-210.55"/>
<polygon fill="black" stroke="black" points="861.314,-212.092 863.207,-201.667 855.227,-208.637 861.314,-212.092"/>
</g>
<!-- Functors_inverse_object_of_subproof&#45;&gt;Functors_inverse_object_of_morphism_of -->
<g id="edge24" class="edge"><title>Functors_inverse_object_of_subproof&#45;&gt;Functors_inverse_object_of_morphism_of</title>
<path fill="none" stroke="black" d="M1212.51,-242.114C1143.34,-230.041 1045.73,-213.007 973.061,-200.324"/>
<polygon fill="black" stroke="black" points="973.43,-196.835 962.977,-198.564 972.226,-203.731 973.43,-196.835"/>
</g>
<!-- Functors_inverse_object_of_morphism_of_subproof -->
<g id="node12" class="node"><title>Functors_inverse_object_of_morphism_of_subproof</title>
<a xlink:href="Functors.html#inverse_object_of_morphism_of_subproof" xlink:title="inverse_object_of_morphism_of_subproof">
<ellipse fill="#facdef" stroke="black" cx="354.802" cy="-109" rx="210.217" ry="18.3848"/>
<text text-anchor="middle" x="354.802" y="-105.4" font-family="Times Roman,serif" font-size="14.00">inverse_object_of_morphism_of_subproof</text>
</a>
</g>
<!-- Functors_inverse_object_of_morphism_of&#45;&gt;Functors_inverse_object_of_morphism_of_subproof -->
<g id="edge26" class="edge"><title>Functors_inverse_object_of_morphism_of&#45;&gt;Functors_inverse_object_of_morphism_of_subproof</title>
<path fill="none" stroke="black" d="M772.192,-168.512C687.145,-156.386 565.596,-139.055 475.584,-126.221"/>
<polygon fill="black" stroke="black" points="475.991,-122.744 465.597,-124.797 475.003,-129.674 475.991,-122.744"/>
</g>
<!-- Functors_inverse_object_of_object_of -->
<g id="node13" class="node"><title>Functors_inverse_object_of_object_of</title>
<a xlink:href="Functors.html#inverse_object_of_object_of" xlink:title="inverse_object_of_object_of">
<ellipse fill="#f070d1" stroke="black" cx="914.802" cy="-109" rx="144.957" ry="18.3848"/>
<text text-anchor="middle" x="914.802" y="-105.4" font-family="Times Roman,serif" font-size="14.00">inverse_object_of_object_of</text>
</a>
</g>
<!-- Functors_inverse_object_of_morphism_of&#45;&gt;Functors_inverse_object_of_object_of -->
<g id="edge28" class="edge"><title>Functors_inverse_object_of_morphism_of&#45;&gt;Functors_inverse_object_of_object_of</title>
<path fill="none" stroke="black" d="M884.148,-164.327C888.809,-155.913 894.408,-145.809 899.537,-136.55"/>
<polygon fill="black" stroke="black" points="902.674,-138.111 904.459,-127.667 896.551,-134.718 902.674,-138.111"/>
</g>
<!-- Functors_inverse_object_of_object_of_subproof0 -->
<g id="node14" class="node"><title>Functors_inverse_object_of_object_of_subproof0</title>
<a xlink:href="Functors.html#inverse_object_of_object_of_subproof0" xlink:title="inverse_object_of_object_of_subproof0">
<ellipse fill="#facdef" stroke="black" cx="476.802" cy="-35" rx="198.197" ry="18.3848"/>
<text text-anchor="middle" x="476.802" y="-31.4" font-family="Times Roman,serif" font-size="14.00">inverse_object_of_object_of_subproof0</text>
</a>
</g>
<!-- Functors_inverse_object_of_object_of&#45;&gt;Functors_inverse_object_of_object_of_subproof0 -->
<g id="edge30" class="edge"><title>Functors_inverse_object_of_object_of&#45;&gt;Functors_inverse_object_of_object_of_subproof0</title>
<path fill="none" stroke="black" d="M827.218,-94.2028C756.856,-82.3152 657.774,-65.5752 582.913,-52.9275"/>
<polygon fill="black" stroke="black" points="583.424,-49.4643 572.981,-51.2494 582.258,-56.3665 583.424,-49.4643"/>
</g>
<!-- Functors_inverse_object_of_object_of_subproof -->
<g id="node15" class="node"><title>Functors_inverse_object_of_object_of_subproof</title>
<a xlink:href="Functors.html#inverse_object_of_object_of_subproof" xlink:title="inverse_object_of_object_of_subproof">
<ellipse fill="#facdef" stroke="black" cx="1087.8" cy="-35" rx="191.833" ry="18.3848"/>
<text text-anchor="middle" x="1087.8" y="-31.4" font-family="Times Roman,serif" font-size="14.00">inverse_object_of_object_of_subproof</text>
</a>
</g>
<!-- Functors_inverse_object_of_object_of&#45;&gt;Functors_inverse_object_of_object_of_subproof -->
<g id="edge32" class="edge"><title>Functors_inverse_object_of_object_of&#45;&gt;Functors_inverse_object_of_object_of_subproof</title>
<path fill="none" stroke="black" d="M956.68,-91.0867C980.533,-80.8838 1010.62,-68.0145 1035.95,-57.1776"/>
<polygon fill="black" stroke="black" points="1037.59,-60.2843 1045.41,-53.1335 1034.84,-53.8484 1037.59,-60.2843"/>
</g>
<!-- Functors_functor -->
<g id="node16" class="node"><title>Functors_functor</title>
<a xlink:href="Functors.html#functor" xlink:title="functor">
<ellipse fill="#f070d1" stroke="black" cx="438.802" cy="-709" rx="46.2409" ry="18.3848"/>
<ellipse fill="none" stroke="black" cx="438.802" cy="-709" rx="50.2042" ry="22.3848"/>
<ellipse fill="none" stroke="black" cx="438.802" cy="-709" rx="54.1675" ry="26.3848"/>
<text text-anchor="middle" x="438.802" y="-705.4" font-family="Times Roman,serif" font-size="14.00">functor</text>
</a>
</g>
<!-- Functors_functor_subproof0 -->
<g id="node17" class="node"><title>Functors_functor_subproof0</title>
<a xlink:href="Functors.html#functor_subproof0" xlink:title="functor_subproof0">
<ellipse fill="#facdef" stroke="black" cx="280.802" cy="-627" rx="99.9096" ry="18.3848"/>
<text text-anchor="middle" x="280.802" y="-623.4" font-family="Times Roman,serif" font-size="14.00">functor_subproof0</text>
</a>
</g>
<!-- Functors_functor&#45;&gt;Functors_functor_subproof0 -->
<g id="edge34" class="edge"><title>Functors_functor&#45;&gt;Functors_functor_subproof0</title>
<path fill="none" stroke="black" d="M401.358,-689.567C377.972,-677.43 347.796,-661.769 323.484,-649.152"/>
<polygon fill="black" stroke="black" points="324.968,-645.979 314.48,-644.479 321.744,-652.192 324.968,-645.979"/>
</g>
<!-- Functors_functor_subproof -->
<g id="node18" class="node"><title>Functors_functor_subproof</title>
<a xlink:href="Functors.html#functor_subproof" xlink:title="functor_subproof">
<ellipse fill="#facdef" stroke="black" cx="597.802" cy="-627" rx="94.0452" ry="18.3848"/>
<text text-anchor="middle" x="597.802" y="-623.4" font-family="Times Roman,serif" font-size="14.00">functor_subproof</text>
</a>
</g>
<!-- Functors_functor&#45;&gt;Functors_functor_subproof -->
<g id="edge36" class="edge"><title>Functors_functor&#45;&gt;Functors_functor_subproof</title>
<path fill="none" stroke="black" d="M476.08,-689.775C499.765,-677.56 530.492,-661.713 555.149,-648.997"/>
<polygon fill="black" stroke="black" points="556.99,-651.985 564.274,-644.291 553.782,-645.764 556.99,-651.985"/>
</g>
<!-- Functors_functor_morphism_of -->
<g id="node19" class="node"><title>Functors_functor_morphism_of</title>
<a xlink:href="Functors.html#functor_morphism_of" xlink:title="functor_morphism_of">
<ellipse fill="#f070d1" stroke="black" cx="342.802" cy="-553" rx="113.844" ry="18.3848"/>
<text text-anchor="middle" x="342.802" y="-549.4" font-family="Times Roman,serif" font-size="14.00">functor_morphism_of</text>
</a>
</g>
<!-- Functors_functor_subproof0&#45;&gt;Functors_functor_morphism_of -->
<g id="edge38" class="edge"><title>Functors_functor_subproof0&#45;&gt;Functors_functor_morphism_of</title>
<path fill="none" stroke="black" d="M296.127,-608.708C303.579,-599.814 312.671,-588.962 320.844,-579.207"/>
<polygon fill="black" stroke="black" points="323.698,-581.251 327.437,-571.338 318.332,-576.756 323.698,-581.251"/>
</g>
<!-- Functors_functor_subproof&#45;&gt;Functors_functor_morphism_of -->
<g id="edge40" class="edge"><title>Functors_functor_subproof&#45;&gt;Functors_functor_morphism_of</title>
<path fill="none" stroke="black" d="M544.965,-611.667C505.311,-600.16 450.779,-584.335 408.345,-572.02"/>
<polygon fill="black" stroke="black" points="409.241,-568.636 398.661,-569.21 407.29,-575.359 409.241,-568.636"/>
</g>
<!-- Functors_functor_morphism_of_subproof -->
<g id="node20" class="node"><title>Functors_functor_morphism_of_subproof</title>
<a xlink:href="Functors.html#functor_morphism_of_subproof" xlink:title="functor_morphism_of_subproof">
<ellipse fill="#facdef" stroke="black" cx="283.802" cy="-479" rx="161.22" ry="18.3848"/>
<text text-anchor="middle" x="283.802" y="-475.4" font-family="Times Roman,serif" font-size="14.00">functor_morphism_of_subproof</text>
</a>
</g>
<!-- Functors_functor_morphism_of&#45;&gt;Functors_functor_morphism_of_subproof -->
<g id="edge42" class="edge"><title>Functors_functor_morphism_of&#45;&gt;Functors_functor_morphism_of_subproof</title>
<path fill="none" stroke="black" d="M327.913,-534.327C320.996,-525.65 312.644,-515.175 305.077,-505.684"/>
<polygon fill="black" stroke="black" points="307.656,-503.304 298.685,-497.667 302.182,-507.668 307.656,-503.304"/>
</g>
<!-- Functors_functor_object_of -->
<g id="node21" class="node"><title>Functors_functor_object_of</title>
<a xlink:href="Functors.html#functor_object_of" xlink:title="functor_object_of">
<ellipse fill="#f070d1" stroke="black" cx="693.802" cy="-479" rx="94.9596" ry="18.3848"/>
<text text-anchor="middle" x="693.802" y="-475.4" font-family="Times Roman,serif" font-size="14.00">functor_object_of</text>
</a>
</g>
<!-- Functors_functor_morphism_of&#45;&gt;Functors_functor_object_of -->
<g id="edge44" class="edge"><title>Functors_functor_morphism_of&#45;&gt;Functors_functor_object_of</title>
<path fill="none" stroke="black" d="M412.568,-538.292C472.318,-525.695 558.137,-507.602 619.233,-494.721"/>
<polygon fill="black" stroke="black" points="620.135,-498.108 629.198,-492.62 618.691,-491.258 620.135,-498.108"/>
</g>
<!-- Functors_functor_object_of_subproof0 -->
<g id="node22" class="node"><title>Functors_functor_object_of_subproof0</title>
<a xlink:href="Functors.html#functor_object_of_subproof0" xlink:title="functor_object_of_subproof0">
<ellipse fill="#facdef" stroke="black" cx="247.802" cy="-405" rx="149.2" ry="18.3848"/>
<text text-anchor="middle" x="247.802" y="-401.4" font-family="Times Roman,serif" font-size="14.00">functor_object_of_subproof0</text>
</a>
</g>
<!-- Functors_functor_object_of&#45;&gt;Functors_functor_object_of_subproof0 -->
<g id="edge46" class="edge"><title>Functors_functor_object_of&#45;&gt;Functors_functor_object_of_subproof0</title>
<path fill="none" stroke="black" d="M621.151,-466.946C546.673,-454.589 430.313,-435.282 347.301,-421.509"/>
<polygon fill="black" stroke="black" points="347.786,-418.042 337.348,-419.858 346.64,-424.947 347.786,-418.042"/>
</g>
<!-- Functors_functor_object_of_subproof -->
<g id="node23" class="node"><title>Functors_functor_object_of_subproof</title>
<a xlink:href="Functors.html#functor_object_of_subproof" xlink:title="functor_object_of_subproof">
<ellipse fill="#facdef" stroke="black" cx="711.802" cy="-405" rx="142.836" ry="18.3848"/>
<text text-anchor="middle" x="711.802" y="-401.4" font-family="Times Roman,serif" font-size="14.00">functor_object_of_subproof</text>
</a>
</g>
<!-- Functors_functor_object_of&#45;&gt;Functors_functor_object_of_subproof -->
<g id="edge48" class="edge"><title>Functors_functor_object_of&#45;&gt;Functors_functor_object_of_subproof</title>
<path fill="none" stroke="black" d="M698.344,-460.327C700.326,-452.176 702.695,-442.438 704.888,-433.42"/>
<polygon fill="black" stroke="black" points="708.298,-434.211 707.261,-423.667 701.496,-432.557 708.298,-434.211"/>
</g>
</g>
</svg>
