<?xml version="1.0" encoding="UTF-8" standalone="no"?>
<!DOCTYPE svg PUBLIC "-//W3C//DTD SVG 1.1//EN"
 "http://www.w3.org/Graphics/SVG/1.1/DTD/svg11.dtd">
<!-- Generated by graphviz version 2.39.20141222.0545 (20141222.0545)
 -->
<!-- Title: HoTT_categories_GroupoidCategory Pages: 1 -->
<svg width="3004pt" height="1502pt"
 viewBox="0.00 0.00 3003.94 1501.50" xmlns="http://www.w3.org/2000/svg" xmlns:xlink="http://www.w3.org/1999/xlink">
<g id="graph0" class="graph" transform="scale(1 1) rotate(0) translate(4 1497.5)">
<title>HoTT_categories_GroupoidCategory</title>
<polygon fill="white" stroke="transparent" points="-4,4 -4,-1497.5 2999.94,-1497.5 2999.94,4 -4,4"/>
<g id="clust1" class="cluster"><title>cluster_GroupoidCategory</title>
<polygon fill="#ffffc3" stroke="black" points="8,-823.783 8,-1468.35 1861,-1468.35 1861,-823.783 8,-823.783"/>
<text text-anchor="middle" x="67" y="-1453.15" font-family="Times,serif" font-size="14.00">GroupoidCategory</text>
</g>
<g id="clust2" class="cluster"><title>cluster_GroupoidCategory_GroupoidCategoryInternals</title>
<polygon fill="#ffffa3" stroke="black" points="1627,-1084.75 1627,-1370.88 1853,-1370.88 1853,-1084.75 1627,-1084.75"/>
<text text-anchor="middle" x="1709.5" y="-1355.68" font-family="Times,serif" font-size="14.00">GroupoidCategoryInternals</text>
</g>
<g id="clust3" class="cluster"><title>cluster_Morphisms</title>
<polygon fill="#ffffc3" stroke="black" points="1869,-537.66 1869,-1059.6 2121,-1059.6 2121,-537.66 1869,-537.66"/>
<text text-anchor="middle" x="1909" y="-1044.4" font-family="Times,serif" font-size="14.00">Morphisms</text>
</g>
<g id="clust4" class="cluster"><title>cluster_Core</title>
<polygon fill="#ffffc3" stroke="black" points="2159,-25.1537 2159,-798.629 2979,-798.629 2979,-25.1537 2159,-25.1537"/>
<text text-anchor="middle" x="2180.5" y="-783.429" font-family="Times,serif" font-size="14.00">Core</text>
</g>
<g id="clust5" class="cluster"><title>cluster_Core_GroupoidCategoryInternals</title>
<polygon fill="#ffffa3" stroke="black" points="2193,-50.3074 2193,-286.123 2387,-286.123 2387,-50.3074 2193,-50.3074"/>
<text text-anchor="middle" x="2275.5" y="-270.923" font-family="Times,serif" font-size="14.00">GroupoidCategoryInternals</text>
</g>
<g id="clust6" class="cluster"><title>cluster_Dual</title>
<polygon fill="#ffffc3" stroke="black" points="2129,-823.783 2129,-1059.6 2307,-1059.6 2307,-823.783 2129,-823.783"/>
<text text-anchor="middle" x="2150.5" y="-1044.4" font-family="Times,serif" font-size="14.00">Dual</text>
</g>
<!-- GroupoidCategory_GroupoidCategoryInternals_identity -->
<g id="node1" class="node"><title>GroupoidCategory_GroupoidCategoryInternals_identity</title>
<g id="a_node1"><a xlink:href="GroupoidCategory.html#GroupoidCategoryInternals.identity" xlink:title="identity">
<ellipse fill="#f070d1" stroke="black" cx="1799" cy="-1192.15" rx="37.8596" ry="18"/>
<ellipse fill="none" stroke="black" cx="1799" cy="-1192.15" rx="41.8769" ry="22"/>
<ellipse fill="none" stroke="black" cx="1799" cy="-1192.15" rx="45.8942" ry="26"/>
<text text-anchor="middle" x="1799" y="-1188.45" font-family="Times,serif" font-size="14.00">identity</text>
</a>
</g>
</g>
<!-- GroupoidCategory_GroupoidCategoryInternals_compose -->
<g id="node2" class="node"><title>GroupoidCategory_GroupoidCategoryInternals_compose</title>
<g id="a_node2"><a xlink:href="GroupoidCategory.html#GroupoidCategoryInternals.compose" xlink:title="compose">
<ellipse fill="#f070d1" stroke="black" cx="1685" cy="-1192.15" rx="42.4543" ry="18"/>
<ellipse fill="none" stroke="black" cx="1685" cy="-1192.15" rx="46.474" ry="22"/>
<ellipse fill="none" stroke="black" cx="1685" cy="-1192.15" rx="50.4937" ry="26"/>
<text text-anchor="middle" x="1685" y="-1188.45" font-family="Times,serif" font-size="14.00">compose</text>
</a>
</g>
</g>
<!-- Core_GroupoidCategoryInternals_identity -->
<g id="node3" class="node"><title>Core_GroupoidCategoryInternals_identity</title>
<g id="a_node3"><a xlink:href="Core.html#GroupoidCategoryInternals.identity" xlink:title="identity">
<ellipse fill="#f070d1" stroke="black" cx="2341" cy="-132.154" rx="37.8943" ry="18"/>
<text text-anchor="middle" x="2341" y="-128.454" font-family="Times,serif" font-size="14.00">identity</text>
</a>
</g>
</g>
<!-- Core_GroupoidCategoryInternals_compose -->
<g id="node4" class="node"><title>Core_GroupoidCategoryInternals_compose</title>
<g id="a_node4"><a xlink:href="Core.html#GroupoidCategoryInternals.compose" xlink:title="compose">
<ellipse fill="#f070d1" stroke="black" cx="2243" cy="-132.154" rx="42.4939" ry="18"/>
<text text-anchor="middle" x="2243" y="-128.454" font-family="Times,serif" font-size="14.00">compose</text>
</a>
</g>
</g>
<!-- Morphisms_iscategory_groupoid_category -->
<g id="node5" class="node"><title>Morphisms_iscategory_groupoid_category</title>
<g id="a_node5"><a xlink:href="Morphisms.html#iscategory_groupoid_category" xlink:title="iscategory_groupoid_category">
<ellipse fill="#facdef" stroke="black" cx="1995" cy="-905.154" rx="117.779" ry="18"/>
<text text-anchor="middle" x="1995" y="-901.454" font-family="Times,serif" font-size="14.00">iscategory_groupoid_category</text>
</a>
</g>
</g>
<!-- Morphisms_isotoid -->
<g id="node6" class="node"><title>Morphisms_isotoid</title>
<g id="a_node6"><a xlink:href="Morphisms.html#isotoid" xlink:title="isotoid">
<ellipse fill="#f070d1" stroke="black" cx="2036" cy="-619.154" rx="34.394" ry="18"/>
<text text-anchor="middle" x="2036" y="-615.454" font-family="Times,serif" font-size="14.00">isotoid</text>
</a>
</g>
</g>
<!-- Morphisms_iscategory_groupoid_category&#45;&gt;Morphisms_isotoid -->
<g id="edge1" class="edge"><title>Morphisms_iscategory_groupoid_category&#45;&gt;Morphisms_isotoid</title>
<path fill="none" stroke="black" d="M1997.63,-886.828C2004.6,-838.197 2023.6,-705.625 2031.96,-647.314"/>
<polygon fill="black" stroke="black" points="2035.44,-647.722 2033.39,-637.327 2028.51,-646.729 2035.44,-647.722"/>
</g>
<!-- Core_groupoid_category -->
<g id="node21" class="node"><title>Core_groupoid_category</title>
<g id="a_node21"><a xlink:href="Core.html#groupoid_category" xlink:title="groupoid_category">
<ellipse fill="#f070d1" stroke="black" cx="2269" cy="-368.154" rx="77.1866" ry="18"/>
<text text-anchor="middle" x="2269" y="-364.454" font-family="Times,serif" font-size="14.00">groupoid_category</text>
</a>
</g>
</g>
<!-- Morphisms_isotoid&#45;&gt;Core_groupoid_category -->
<g id="edge2" class="edge"><title>Morphisms_isotoid&#45;&gt;Core_groupoid_category</title>
<path fill="none" stroke="black" d="M2051.29,-602.685C2091.06,-559.841 2197.96,-444.678 2245.57,-393.391"/>
<polygon fill="black" stroke="black" points="2248.18,-395.727 2252.42,-386.016 2243.05,-390.964 2248.18,-395.727"/>
</g>
<!-- GroupoidCategory_path_groupoid_dual -->
<g id="node7" class="node"><title>GroupoidCategory_path_groupoid_dual</title>
<g id="a_node7"><a xlink:href="GroupoidCategory.html#path_groupoid_dual" xlink:title="path_groupoid_dual">
<ellipse fill="#f070d1" stroke="black" cx="1424" cy="-1192.15" rx="81.4644" ry="18"/>
<ellipse fill="none" stroke="black" cx="1424" cy="-1192.15" rx="85.4753" ry="22"/>
<ellipse fill="none" stroke="black" cx="1424" cy="-1192.15" rx="89.4862" ry="26"/>
<text text-anchor="middle" x="1424" y="-1188.45" font-family="Times,serif" font-size="14.00">path_groupoid_dual</text>
</a>
</g>
</g>
<!-- Dual_path_groupoid_dual -->
<g id="node18" class="node"><title>Dual_path_groupoid_dual</title>
<g id="a_node18"><a xlink:href="Dual.html#path_groupoid_dual" xlink:title="path_groupoid_dual">
<ellipse fill="#facdef" stroke="black" cx="2218" cy="-905.154" rx="81.4863" ry="18"/>
<text text-anchor="middle" x="2218" y="-901.454" font-family="Times,serif" font-size="14.00">path_groupoid_dual</text>
</a>
</g>
</g>
<!-- GroupoidCategory_path_groupoid_dual&#45;&gt;Dual_path_groupoid_dual -->
<g id="edge3" class="edge"><title>GroupoidCategory_path_groupoid_dual&#45;&gt;Dual_path_groupoid_dual</title>
<path fill="none" stroke="black" d="M1481.83,-1172.25C1495.34,-1167.61 1509.67,-1162.7 1523,-1158.15 1790.37,-1066.94 1865.45,-1065.68 2125,-954.154 2143.53,-946.19 2163.4,-935.969 2179.99,-926.924"/>
<polygon fill="black" stroke="black" points="2181.78,-929.936 2188.85,-922.042 2178.4,-923.806 2181.78,-929.936"/>
</g>
<!-- GroupoidCategory_iscategory_groupoid_category -->
<g id="node8" class="node"><title>GroupoidCategory_iscategory_groupoid_category</title>
<g id="a_node8"><a xlink:href="GroupoidCategory.html#iscategory_groupoid_category" xlink:title="iscategory_groupoid_category">
<ellipse fill="#f070d1" stroke="black" cx="1191" cy="-1192.15" rx="117.77" ry="18"/>
<ellipse fill="none" stroke="black" cx="1191" cy="-1192.15" rx="121.775" ry="22"/>
<ellipse fill="none" stroke="black" cx="1191" cy="-1192.15" rx="125.779" ry="26"/>
<text text-anchor="middle" x="1191" y="-1188.45" font-family="Times,serif" font-size="14.00">iscategory_groupoid_category</text>
</a>
</g>
</g>
<!-- GroupoidCategory_iscategory_groupoid_category&#45;&gt;Morphisms_iscategory_groupoid_category -->
<g id="edge4" class="edge"><title>GroupoidCategory_iscategory_groupoid_category&#45;&gt;Morphisms_iscategory_groupoid_category</title>
<path fill="none" stroke="black" d="M1255.75,-1169.8C1376.05,-1128.15 1642.05,-1035.52 1865,-954.154 1890.29,-944.923 1918.24,-934.427 1941.72,-925.523"/>
<polygon fill="black" stroke="black" points="1943.05,-928.763 1951.16,-921.941 1940.57,-922.219 1943.05,-928.763"/>
</g>
<!-- GroupoidCategory_isotoid -->
<g id="node9" class="node"><title>GroupoidCategory_isotoid</title>
<g id="a_node9"><a xlink:href="GroupoidCategory.html#isotoid" xlink:title="isotoid">
<ellipse fill="#f070d1" stroke="black" cx="1574" cy="-1192.15" rx="34.4039" ry="18"/>
<ellipse fill="none" stroke="black" cx="1574" cy="-1192.15" rx="38.3989" ry="22"/>
<ellipse fill="none" stroke="black" cx="1574" cy="-1192.15" rx="42.394" ry="26"/>
<text text-anchor="middle" x="1574" y="-1188.45" font-family="Times,serif" font-size="14.00">isotoid</text>
</a>
</g>
</g>
<!-- GroupoidCategory_isotoid&#45;&gt;Core_groupoid_category -->
<g id="edge5" class="edge"><title>GroupoidCategory_isotoid&#45;&gt;Core_groupoid_category</title>
<path fill="none" stroke="black" d="M1600.27,-1171.65C1607.38,-1166.75 1615.25,-1161.87 1623,-1158.15 2200.02,-881.247 2624.72,-1208.52 2980,-676.154 3000.48,-645.47 3001.8,-622.914 2980,-593.154 2903.1,-488.159 2508.49,-409.31 2342.61,-380.294"/>
<polygon fill="black" stroke="black" points="2342.94,-376.8 2332.49,-378.537 2341.75,-383.697 2342.94,-376.8"/>
</g>
<!-- GroupoidCategory_identity -->
<g id="node10" class="node"><title>GroupoidCategory_identity</title>
<g id="a_node10"><a xlink:href="GroupoidCategory.html#identity" xlink:title="identity">
<ellipse fill="#f070d1" stroke="black" cx="1002" cy="-1192.15" rx="37.8596" ry="18"/>
<ellipse fill="none" stroke="black" cx="1002" cy="-1192.15" rx="41.8769" ry="22"/>
<ellipse fill="none" stroke="black" cx="1002" cy="-1192.15" rx="45.8942" ry="26"/>
<text text-anchor="middle" x="1002" y="-1188.45" font-family="Times,serif" font-size="14.00">identity</text>
</a>
</g>
</g>
<!-- GroupoidCategory_compose -->
<g id="node11" class="node"><title>GroupoidCategory_compose</title>
<g id="a_node11"><a xlink:href="GroupoidCategory.html#compose" xlink:title="compose">
<ellipse fill="#f070d1" stroke="black" cx="888" cy="-1192.15" rx="42.4543" ry="18"/>
<ellipse fill="none" stroke="black" cx="888" cy="-1192.15" rx="46.474" ry="22"/>
<ellipse fill="none" stroke="black" cx="888" cy="-1192.15" rx="50.4937" ry="26"/>
<text text-anchor="middle" x="888" y="-1188.45" font-family="Times,serif" font-size="14.00">compose</text>
</a>
</g>
</g>
<!-- GroupoidCategory_isstrict_groupoid_category -->
<g id="node12" class="node"><title>GroupoidCategory_isstrict_groupoid_category</title>
<g id="a_node12"><a xlink:href="GroupoidCategory.html#isstrict_groupoid_category" xlink:title="isstrict_groupoid_category">
<ellipse fill="#f070d1" stroke="black" cx="707" cy="-1192.15" rx="104.772" ry="18"/>
<ellipse fill="none" stroke="black" cx="707" cy="-1192.15" rx="108.777" ry="22"/>
<ellipse fill="none" stroke="black" cx="707" cy="-1192.15" rx="112.782" ry="26"/>
<text text-anchor="middle" x="707" y="-1188.45" font-family="Times,serif" font-size="14.00">isstrict_groupoid_category</text>
</a>
</g>
</g>
<!-- GroupoidCategory_isgroupoid_groupoid_category -->
<g id="node13" class="node"><title>GroupoidCategory_isgroupoid_groupoid_category</title>
<g id="a_node13"><a xlink:href="GroupoidCategory.html#isgroupoid_groupoid_category" xlink:title="isgroupoid_groupoid_category">
<ellipse fill="#f070d1" stroke="black" cx="449" cy="-1192.15" rx="118.883" ry="18"/>
<ellipse fill="none" stroke="black" cx="449" cy="-1192.15" rx="122.881" ry="22"/>
<ellipse fill="none" stroke="black" cx="449" cy="-1192.15" rx="126.879" ry="26"/>
<text text-anchor="middle" x="449" y="-1188.45" font-family="Times,serif" font-size="14.00">isgroupoid_groupoid_category</text>
</a>
</g>
</g>
<!-- GroupoidCategory_groupoid_category -->
<g id="node14" class="node"><title>GroupoidCategory_groupoid_category</title>
<g id="a_node14"><a xlink:href="GroupoidCategory.html#groupoid_category" xlink:title="groupoid_category">
<ellipse fill="#f070d1" stroke="black" cx="449" cy="-905.154" rx="77.1866" ry="18"/>
<text text-anchor="middle" x="449" y="-901.454" font-family="Times,serif" font-size="14.00">groupoid_category</text>
</a>
</g>
</g>
<!-- GroupoidCategory_isgroupoid_groupoid_category&#45;&gt;GroupoidCategory_groupoid_category -->
<g id="edge6" class="edge"><title>GroupoidCategory_isgroupoid_groupoid_category&#45;&gt;GroupoidCategory_groupoid_category</title>
<path fill="none" stroke="black" d="M449,-1165.92C449,-1112.09 449,-989.493 449,-933.725"/>
<polygon fill="black" stroke="black" points="452.5,-933.503 449,-923.503 445.5,-933.503 452.5,-933.503"/>
</g>
<!-- GroupoidCategory_IsGroupoid -->
<g id="node17" class="node"><title>GroupoidCategory_IsGroupoid</title>
<g id="a_node17"><a xlink:href="GroupoidCategory.html#IsGroupoid" xlink:title="IsGroupoid">
<ellipse fill="#f070d1" stroke="black" cx="187" cy="-905.154" rx="50.8918" ry="18"/>
<text text-anchor="middle" x="187" y="-901.454" font-family="Times,serif" font-size="14.00">IsGroupoid</text>
</a>
</g>
</g>
<!-- GroupoidCategory_isgroupoid_groupoid_category&#45;&gt;GroupoidCategory_IsGroupoid -->
<g id="edge7" class="edge"><title>GroupoidCategory_isgroupoid_groupoid_category&#45;&gt;GroupoidCategory_IsGroupoid</title>
<path fill="none" stroke="black" d="M425.519,-1166.43C375.478,-1111.62 258.892,-983.906 209.623,-929.935"/>
<polygon fill="black" stroke="black" points="212.185,-927.551 202.858,-922.525 207.015,-932.27 212.185,-927.551"/>
</g>
<!-- GroupoidCategory_trunc_isgroupoid -->
<g id="node15" class="node"><title>GroupoidCategory_trunc_isgroupoid</title>
<g id="a_node15"><a xlink:href="GroupoidCategory.html#trunc_isgroupoid" xlink:title="trunc_isgroupoid">
<ellipse fill="#f070d1" stroke="black" cx="225" cy="-1192.15" rx="70.7036" ry="18"/>
<ellipse fill="none" stroke="black" cx="225" cy="-1192.15" rx="74.6957" ry="22"/>
<ellipse fill="none" stroke="black" cx="225" cy="-1192.15" rx="78.6877" ry="26"/>
<text text-anchor="middle" x="225" y="-1188.45" font-family="Times,serif" font-size="14.00">trunc_isgroupoid</text>
</a>
</g>
</g>
<!-- GroupoidCategory_isgroupoid -->
<g id="node16" class="node"><title>GroupoidCategory_isgroupoid</title>
<g id="a_node16"><a xlink:href="GroupoidCategory.html#isgroupoid" xlink:title="isgroupoid">
<ellipse fill="#f070d1" stroke="black" cx="72" cy="-1192.15" rx="48.178" ry="18"/>
<ellipse fill="none" stroke="black" cx="72" cy="-1192.15" rx="52.1848" ry="22"/>
<ellipse fill="none" stroke="black" cx="72" cy="-1192.15" rx="56.1916" ry="26"/>
<text text-anchor="middle" x="72" y="-1188.45" font-family="Times,serif" font-size="14.00">isgroupoid</text>
</a>
</g>
</g>
<!-- GroupoidCategory_isgroupoid&#45;&gt;GroupoidCategory_IsGroupoid -->
<g id="edge8" class="edge"><title>GroupoidCategory_isgroupoid&#45;&gt;GroupoidCategory_IsGroupoid</title>
<path fill="none" stroke="black" d="M82.3067,-1166.43C103.897,-1112.55 153.711,-988.232 175.94,-932.754"/>
<polygon fill="black" stroke="black" points="179.287,-933.814 179.757,-923.229 172.789,-931.21 179.287,-933.814"/>
</g>
<!-- Dual_path_groupoid_dual&#45;&gt;Core_groupoid_category -->
<g id="edge9" class="edge"><title>Dual_path_groupoid_dual&#45;&gt;Core_groupoid_category</title>
<path fill="none" stroke="black" d="M2209.24,-887.112C2187.03,-839.06 2132.13,-704.08 2158,-593.154 2175.98,-516.056 2224.38,-435.018 2250.94,-394.498"/>
<polygon fill="black" stroke="black" points="2253.96,-396.286 2256.57,-386.019 2248.13,-392.414 2253.96,-396.286"/>
</g>
<!-- Core_isstrict_groupoid_category -->
<g id="node19" class="node"><title>Core_isstrict_groupoid_category</title>
<g id="a_node19"><a xlink:href="Core.html#isstrict_groupoid_category" xlink:title="isstrict_groupoid_category">
<ellipse fill="#f070d1" stroke="black" cx="2858" cy="-619.154" rx="104.772" ry="18"/>
<ellipse fill="none" stroke="black" cx="2858" cy="-619.154" rx="108.777" ry="22"/>
<ellipse fill="none" stroke="black" cx="2858" cy="-619.154" rx="112.782" ry="26"/>
<text text-anchor="middle" x="2858" y="-615.454" font-family="Times,serif" font-size="14.00">isstrict_groupoid_category</text>
</a>
</g>
</g>
<!-- Core_isgroupoid_groupoid_category -->
<g id="node20" class="node"><title>Core_isgroupoid_groupoid_category</title>
<g id="a_node20"><a xlink:href="Core.html#isgroupoid_groupoid_category" xlink:title="isgroupoid_groupoid_category">
<ellipse fill="#f070d1" stroke="black" cx="2294" cy="-619.154" rx="118.883" ry="18"/>
<ellipse fill="none" stroke="black" cx="2294" cy="-619.154" rx="122.881" ry="22"/>
<ellipse fill="none" stroke="black" cx="2294" cy="-619.154" rx="126.879" ry="26"/>
<text text-anchor="middle" x="2294" y="-615.454" font-family="Times,serif" font-size="14.00">isgroupoid_groupoid_category</text>
</a>
</g>
</g>
<!-- Core_isgroupoid_groupoid_category&#45;&gt;Core_groupoid_category -->
<g id="edge10" class="edge"><title>Core_isgroupoid_groupoid_category&#45;&gt;Core_groupoid_category</title>
<path fill="none" stroke="black" d="M2291.37,-592.767C2286.63,-545.141 2276.68,-445.233 2271.81,-396.331"/>
<polygon fill="black" stroke="black" points="2275.27,-395.759 2270.79,-386.155 2268.3,-396.453 2275.27,-395.759"/>
</g>
<!-- Core_IsGroupoid -->
<g id="node24" class="node"><title>Core_IsGroupoid</title>
<g id="a_node24"><a xlink:href="Core.html#IsGroupoid" xlink:title="IsGroupoid">
<ellipse fill="#f070d1" stroke="black" cx="2543" cy="-368.154" rx="50.8918" ry="18"/>
<text text-anchor="middle" x="2543" y="-364.454" font-family="Times,serif" font-size="14.00">IsGroupoid</text>
</a>
</g>
</g>
<!-- Core_isgroupoid_groupoid_category&#45;&gt;Core_IsGroupoid -->
<g id="edge11" class="edge"><title>Core_isgroupoid_groupoid_category&#45;&gt;Core_IsGroupoid</title>
<path fill="none" stroke="black" d="M2319.71,-593.238C2368.07,-544.491 2471.92,-439.802 2518.97,-392.381"/>
<polygon fill="black" stroke="black" points="2521.45,-394.844 2526.01,-385.279 2516.48,-389.914 2521.45,-394.844"/>
</g>
<!-- Core_groupoid_category&#45;&gt;Core_GroupoidCategoryInternals_identity -->
<g id="edge12" class="edge"><title>Core_groupoid_category&#45;&gt;Core_GroupoidCategoryInternals_identity</title>
<path fill="none" stroke="black" d="M2274.53,-350.027C2287.07,-308.914 2317.74,-208.387 2332.63,-159.603"/>
<polygon fill="black" stroke="black" points="2335.98,-160.605 2335.55,-150.019 2329.28,-158.562 2335.98,-160.605"/>
</g>
<!-- Core_groupoid_category&#45;&gt;Core_GroupoidCategoryInternals_compose -->
<g id="edge13" class="edge"><title>Core_groupoid_category&#45;&gt;Core_GroupoidCategoryInternals_compose</title>
<path fill="none" stroke="black" d="M2267,-350.027C2262.5,-309.187 2251.55,-209.716 2246.13,-160.58"/>
<polygon fill="black" stroke="black" points="2249.58,-159.899 2245,-150.342 2242.62,-160.665 2249.58,-159.899"/>
</g>
<!-- Core_trunc_isgroupoid -->
<g id="node22" class="node"><title>Core_trunc_isgroupoid</title>
<g id="a_node22"><a xlink:href="Core.html#trunc_isgroupoid" xlink:title="trunc_isgroupoid">
<ellipse fill="#f070d1" stroke="black" cx="2518" cy="-619.154" rx="70.7036" ry="18"/>
<ellipse fill="none" stroke="black" cx="2518" cy="-619.154" rx="74.6957" ry="22"/>
<ellipse fill="none" stroke="black" cx="2518" cy="-619.154" rx="78.6877" ry="26"/>
<text text-anchor="middle" x="2518" y="-615.454" font-family="Times,serif" font-size="14.00">trunc_isgroupoid</text>
</a>
</g>
</g>
<!-- Core_isgroupoid -->
<g id="node23" class="node"><title>Core_isgroupoid</title>
<g id="a_node23"><a xlink:href="Core.html#isgroupoid" xlink:title="isgroupoid">
<ellipse fill="#f070d1" stroke="black" cx="2671" cy="-619.154" rx="48.178" ry="18"/>
<ellipse fill="none" stroke="black" cx="2671" cy="-619.154" rx="52.1848" ry="22"/>
<ellipse fill="none" stroke="black" cx="2671" cy="-619.154" rx="56.1916" ry="26"/>
<text text-anchor="middle" x="2671" y="-615.454" font-family="Times,serif" font-size="14.00">isgroupoid</text>
</a>
</g>
</g>
<!-- Core_isgroupoid&#45;&gt;Core_IsGroupoid -->
<g id="edge14" class="edge"><title>Core_isgroupoid&#45;&gt;Core_IsGroupoid</title>
<path fill="none" stroke="black" d="M2658.02,-593.705C2633.71,-546.034 2581.53,-443.707 2556.69,-394.993"/>
<polygon fill="black" stroke="black" points="2559.76,-393.316 2552.1,-385.997 2553.52,-396.496 2559.76,-393.316"/>
</g>
</g>
</svg>
