<?xml version="1.0" encoding="UTF-8" standalone="no"?>
<!DOCTYPE svg PUBLIC "-//W3C//DTD SVG 1.1//EN"
 "http://www.w3.org/Graphics/SVG/1.1/DTD/svg11.dtd">
<!-- Generated by graphviz version 2.26.3 (20100126.1600)
 -->
<!-- Title: HoTT_categories_Category_Core Pages: 1 -->
<svg width="1412pt" height="710pt"
 viewBox="0.00 0.00 1412.00 710.00" xmlns="http://www.w3.org/2000/svg" xmlns:xlink="http://www.w3.org/1999/xlink">
<g id="graph1" class="graph" transform="scale(1 1) rotate(0) translate(4 706)">
<title>HoTT_categories_Category_Core</title>
<polygon fill="white" stroke="white" points="-4,5 -4,-706 1409,-706 1409,5 -4,5"/>
<g id="graph2" class="cluster"><title>cluster_Core</title>
<polygon fill="#ffffc3" stroke="black" points="8,-10.9261 8,-691.074 1396,-691.074 1396,-10.9261 8,-10.9261"/>
<text text-anchor="middle" x="32.5" y="-674.474" font-family="Times Roman,serif" font-size="14.00">Core</text>
</g>
<!-- Core_concat_right_identity -->
<g id="node1" class="node"><title>Core_concat_right_identity</title>
<a xlink:href="Core.html#concat_right_identity" xlink:title="concat_right_identity">
<ellipse fill="#f070d1" stroke="black" cx="1265" cy="-607.926" rx="114.792" ry="18.3848"/>
<ellipse fill="none" stroke="black" cx="1265" cy="-607.926" rx="118.776" ry="22.3848"/>
<ellipse fill="none" stroke="black" cx="1265" cy="-607.926" rx="122.759" ry="26.3848"/>
<text text-anchor="middle" x="1265" y="-604.326" font-family="Times Roman,serif" font-size="14.00">concat_right_identity</text>
</a>
</g>
<!-- Core_right_identity -->
<g id="node7" class="node"><title>Core_right_identity</title>
<a xlink:href="Core.html#right_identity" xlink:title="right_identity">
<ellipse fill="#f070d1" stroke="black" cx="1310" cy="-484.926" rx="77.7817" ry="18.3848"/>
<text text-anchor="middle" x="1310" y="-481.326" font-family="Times Roman,serif" font-size="14.00">right_identity</text>
</a>
</g>
<!-- Core_concat_right_identity&#45;&gt;Core_right_identity -->
<g id="edge2" class="edge"><title>Core_concat_right_identity&#45;&gt;Core_right_identity</title>
<path fill="none" stroke="black" d="M1274.76,-581.237C1282.14,-561.078 1292.24,-533.479 1299.73,-512.992"/>
<polygon fill="black" stroke="black" points="1303.03,-514.163 1303.18,-503.57 1296.46,-511.758 1303.03,-514.163"/>
</g>
<!-- Core_concat_left_identity -->
<g id="node2" class="node"><title>Core_concat_left_identity</title>
<a xlink:href="Core.html#concat_left_identity" xlink:title="concat_left_identity">
<ellipse fill="#f070d1" stroke="black" cx="951" cy="-607.926" rx="107.015" ry="18.3848"/>
<ellipse fill="none" stroke="black" cx="951" cy="-607.926" rx="110.998" ry="22.3848"/>
<ellipse fill="none" stroke="black" cx="951" cy="-607.926" rx="114.98" ry="26.3848"/>
<text text-anchor="middle" x="951" y="-604.326" font-family="Times Roman,serif" font-size="14.00">concat_left_identity</text>
</a>
</g>
<!-- Core_left_identity -->
<g id="node8" class="node"><title>Core_left_identity</title>
<a xlink:href="Core.html#left_identity" xlink:title="left_identity">
<ellipse fill="#f070d1" stroke="black" cx="926" cy="-484.926" rx="70.2092" ry="18.3848"/>
<text text-anchor="middle" x="926" y="-481.326" font-family="Times Roman,serif" font-size="14.00">left_identity</text>
</a>
</g>
<!-- Core_concat_left_identity&#45;&gt;Core_left_identity -->
<g id="edge4" class="edge"><title>Core_concat_left_identity&#45;&gt;Core_left_identity</title>
<path fill="none" stroke="black" d="M945.575,-581.237C941.515,-561.261 935.97,-533.98 931.818,-513.552"/>
<polygon fill="black" stroke="black" points="935.211,-512.672 929.789,-503.57 928.351,-514.066 935.211,-512.672"/>
</g>
<!-- Core_identity_unique -->
<g id="node3" class="node"><title>Core_identity_unique</title>
<a xlink:href="Core.html#identity_unique" xlink:title="identity_unique">
<ellipse fill="#facdef" stroke="black" cx="288" cy="-484.926" rx="87.9304" ry="18.3848"/>
<ellipse fill="none" stroke="black" cx="288" cy="-484.926" rx="91.9097" ry="22.3848"/>
<ellipse fill="none" stroke="black" cx="288" cy="-484.926" rx="95.8889" ry="26.3848"/>
<text text-anchor="middle" x="288" y="-481.326" font-family="Times Roman,serif" font-size="14.00">identity_unique</text>
</a>
</g>
<!-- Core_compose -->
<g id="node11" class="node"><title>Core_compose</title>
<a xlink:href="Core.html#compose" xlink:title="compose">
<ellipse fill="#f070d1" stroke="black" cx="926" cy="-361.926" rx="53.2379" ry="18.3848"/>
<text text-anchor="middle" x="926" y="-358.326" font-family="Times Roman,serif" font-size="14.00">compose</text>
</a>
</g>
<!-- Core_identity_unique&#45;&gt;Core_compose -->
<g id="edge6" class="edge"><title>Core_identity_unique&#45;&gt;Core_compose</title>
<path fill="none" stroke="black" d="M357.016,-466.41C368.978,-463.421 381.323,-460.475 393,-457.926 564.23,-420.543 768.69,-386.702 867.205,-371.065"/>
<polygon fill="black" stroke="black" points="867.93,-374.494 877.26,-369.474 866.836,-367.58 867.93,-374.494"/>
</g>
<!-- Core_Build_PreCategory -->
<g id="node4" class="node"><title>Core_Build_PreCategory</title>
<a xlink:href="Core.html#Build_PreCategory" xlink:title="Build_PreCategory">
<ellipse fill="#f070d1" stroke="black" cx="708" cy="-607.926" rx="102.067" ry="18.3848"/>
<ellipse fill="none" stroke="black" cx="708" cy="-607.926" rx="106.048" ry="22.3848"/>
<ellipse fill="none" stroke="black" cx="708" cy="-607.926" rx="110.03" ry="26.3848"/>
<text text-anchor="middle" x="708" y="-604.326" font-family="Times Roman,serif" font-size="14.00">Build_PreCategory</text>
</a>
</g>
<!-- Core_Build_PreCategory_ -->
<g id="node15" class="node"><title>Core_Build_PreCategory_</title>
<a xlink:href="Core.html#Build_PreCategory&#39;" xlink:title="Build_PreCategory&#39;">
<ellipse fill="#7faaff" stroke="black" cx="734" cy="-484.926" rx="104.151" ry="18.3848"/>
<text text-anchor="middle" x="734" y="-481.326" font-family="Times Roman,serif" font-size="14.00">Build_PreCategory&#39;</text>
</a>
</g>
<!-- Core_Build_PreCategory&#45;&gt;Core_Build_PreCategory_ -->
<g id="edge8" class="edge"><title>Core_Build_PreCategory&#45;&gt;Core_Build_PreCategory_</title>
<path fill="none" stroke="black" d="M713.642,-581.237C717.864,-561.261 723.631,-533.98 727.949,-513.552"/>
<polygon fill="black" stroke="black" points="731.415,-514.077 730.059,-503.57 724.567,-512.629 731.415,-514.077"/>
</g>
<!-- Core_trunc_morphism -->
<g id="node5" class="node"><title>Core_trunc_morphism</title>
<a xlink:href="Core.html#trunc_morphism" xlink:title="trunc_morphism">
<ellipse fill="#f070d1" stroke="black" cx="1245" cy="-361.926" rx="90.0502" ry="18.3848"/>
<ellipse fill="none" stroke="black" cx="1245" cy="-361.926" rx="94.0299" ry="22.3848"/>
<ellipse fill="none" stroke="black" cx="1245" cy="-361.926" rx="98.0096" ry="26.3848"/>
<text text-anchor="middle" x="1245" y="-358.326" font-family="Times Roman,serif" font-size="14.00">trunc_morphism</text>
</a>
</g>
<!-- Core_morphism -->
<g id="node13" class="node"><title>Core_morphism</title>
<a xlink:href="Core.html#morphism" xlink:title="morphism">
<ellipse fill="#f070d1" stroke="black" cx="1080" cy="-249.926" rx="58.8978" ry="18.3848"/>
<text text-anchor="middle" x="1080" y="-246.326" font-family="Times Roman,serif" font-size="14.00">morphism</text>
</a>
</g>
<!-- Core_trunc_morphism&#45;&gt;Core_morphism -->
<g id="edge10" class="edge"><title>Core_trunc_morphism&#45;&gt;Core_morphism</title>
<path fill="none" stroke="black" d="M1208.38,-337.07C1179.94,-317.763 1140.83,-291.215 1113.27,-272.51"/>
<polygon fill="black" stroke="black" points="1115,-269.452 1104.76,-266.731 1111.07,-275.244 1115,-269.452"/>
</g>
<!-- Core_identity_identity -->
<g id="node6" class="node"><title>Core_identity_identity</title>
<a xlink:href="Core.html#identity_identity" xlink:title="identity_identity">
<ellipse fill="#f070d1" stroke="black" cx="1114" cy="-484.926" rx="92.1701" ry="18.3848"/>
<ellipse fill="none" stroke="black" cx="1114" cy="-484.926" rx="96.1502" ry="22.3848"/>
<ellipse fill="none" stroke="black" cx="1114" cy="-484.926" rx="100.13" ry="26.3848"/>
<text text-anchor="middle" x="1114" y="-481.326" font-family="Times Roman,serif" font-size="14.00">identity_identity</text>
</a>
</g>
<!-- Core_identity_identity&#45;&gt;Core_compose -->
<g id="edge12" class="edge"><title>Core_identity_identity&#45;&gt;Core_compose</title>
<path fill="none" stroke="black" d="M1076.41,-460.331C1042.42,-438.094 992.821,-405.644 959.996,-384.168"/>
<polygon fill="black" stroke="black" points="961.493,-380.965 951.209,-378.419 957.661,-386.823 961.493,-380.965"/>
</g>
<!-- Core_identity -->
<g id="node12" class="node"><title>Core_identity</title>
<a xlink:href="Core.html#identity" xlink:title="identity">
<ellipse fill="#f070d1" stroke="black" cx="1080" cy="-361.926" rx="48.9975" ry="18.3848"/>
<text text-anchor="middle" x="1080" y="-358.326" font-family="Times Roman,serif" font-size="14.00">identity</text>
</a>
</g>
<!-- Core_identity_identity&#45;&gt;Core_identity -->
<g id="edge14" class="edge"><title>Core_identity_identity&#45;&gt;Core_identity</title>
<path fill="none" stroke="black" d="M1106.62,-458.237C1101.08,-438.17 1093.49,-410.73 1087.84,-390.272"/>
<polygon fill="black" stroke="black" points="1091.19,-389.276 1085.15,-380.57 1084.44,-391.141 1091.19,-389.276"/>
</g>
<!-- Core_right_identity&#45;&gt;Core_compose -->
<g id="edge16" class="edge"><title>Core_right_identity&#45;&gt;Core_compose</title>
<path fill="none" stroke="black" d="M1263.3,-469.967C1190.13,-446.53 1049.17,-401.378 974.754,-377.543"/>
<polygon fill="black" stroke="black" points="975.737,-374.182 965.146,-374.465 973.602,-380.849 975.737,-374.182"/>
</g>
<!-- Core_right_identity&#45;&gt;Core_identity -->
<g id="edge18" class="edge"><title>Core_right_identity&#45;&gt;Core_identity</title>
<path fill="none" stroke="black" d="M1278.02,-467.823C1235.96,-445.33 1162.17,-405.869 1117.52,-381.991"/>
<polygon fill="black" stroke="black" points="1118.92,-378.773 1108.45,-377.143 1115.62,-384.945 1118.92,-378.773"/>
</g>
<!-- Core_left_identity&#45;&gt;Core_compose -->
<g id="edge20" class="edge"><title>Core_left_identity&#45;&gt;Core_compose</title>
<path fill="none" stroke="black" d="M926,-466.245C926,-446.197 926,-414.097 926,-390.795"/>
<polygon fill="black" stroke="black" points="929.5,-390.783 926,-380.783 922.5,-390.783 929.5,-390.783"/>
</g>
<!-- Core_left_identity&#45;&gt;Core_identity -->
<g id="edge22" class="edge"><title>Core_left_identity&#45;&gt;Core_identity</title>
<path fill="none" stroke="black" d="M948.064,-467.303C975.128,-445.687 1021.08,-408.982 1050.99,-385.1"/>
<polygon fill="black" stroke="black" points="1053.34,-387.702 1058.97,-378.727 1048.97,-382.233 1053.34,-387.702"/>
</g>
<!-- Core_associativity_sym -->
<g id="node9" class="node"><title>Core_associativity_sym</title>
<a xlink:href="Core.html#associativity_sym" xlink:title="associativity_sym">
<ellipse fill="#f070d1" stroke="black" cx="507" cy="-484.926" rx="96.8736" ry="18.3848"/>
<ellipse fill="none" stroke="black" cx="507" cy="-484.926" rx="100.874" ry="22.3848"/>
<ellipse fill="none" stroke="black" cx="507" cy="-484.926" rx="104.874" ry="26.3848"/>
<text text-anchor="middle" x="507" y="-481.326" font-family="Times Roman,serif" font-size="14.00">associativity_sym</text>
</a>
</g>
<!-- Core_associativity_sym&#45;&gt;Core_compose -->
<g id="edge24" class="edge"><title>Core_associativity_sym&#45;&gt;Core_compose</title>
<path fill="none" stroke="black" d="M575.72,-464.753C659.93,-440.032 800.622,-398.732 875.506,-376.749"/>
<polygon fill="black" stroke="black" points="876.574,-380.083 885.183,-373.908 874.602,-373.366 876.574,-380.083"/>
</g>
<!-- Core_associativity -->
<g id="node10" class="node"><title>Core_associativity</title>
<a xlink:href="Core.html#associativity" xlink:title="associativity">
<ellipse fill="#f070d1" stroke="black" cx="95" cy="-484.926" rx="70.9686" ry="18.3848"/>
<ellipse fill="none" stroke="black" cx="95" cy="-484.926" rx="74.9435" ry="22.3848"/>
<ellipse fill="none" stroke="black" cx="95" cy="-484.926" rx="78.9183" ry="26.3848"/>
<text text-anchor="middle" x="95" y="-481.326" font-family="Times Roman,serif" font-size="14.00">associativity</text>
</a>
</g>
<!-- Core_associativity&#45;&gt;Core_compose -->
<g id="edge26" class="edge"><title>Core_associativity&#45;&gt;Core_compose</title>
<path fill="none" stroke="black" d="M150.96,-466.209C161.52,-463.119 172.535,-460.19 183,-457.926 432.09,-404.027 735.153,-376.396 863.639,-366.398"/>
<polygon fill="black" stroke="black" points="863.987,-369.882 873.689,-365.625 863.45,-362.903 863.987,-369.882"/>
</g>
<!-- Core_compose&#45;&gt;Core_morphism -->
<g id="edge28" class="edge"><title>Core_compose&#45;&gt;Core_morphism</title>
<path fill="none" stroke="black" d="M949.055,-345.159C975.403,-325.997 1018.68,-294.519 1048.22,-273.039"/>
<polygon fill="black" stroke="black" points="1050.51,-275.704 1056.53,-266.992 1046.39,-270.043 1050.51,-275.704"/>
</g>
<!-- Core_identity&#45;&gt;Core_morphism -->
<g id="edge30" class="edge"><title>Core_identity&#45;&gt;Core_morphism</title>
<path fill="none" stroke="black" d="M1080,-343.18C1080,-325.655 1080,-299.222 1080,-278.968"/>
<polygon fill="black" stroke="black" points="1083.5,-278.733 1080,-268.734 1076.5,-278.734 1083.5,-278.733"/>
</g>
<!-- Core_object -->
<g id="node14" class="node"><title>Core_object</title>
<a xlink:href="Core.html#object" xlink:title="object">
<ellipse fill="#f070d1" stroke="black" cx="1080" cy="-148.926" rx="41.0122" ry="18.3848"/>
<text text-anchor="middle" x="1080" y="-145.326" font-family="Times Roman,serif" font-size="14.00">object</text>
</a>
</g>
<!-- Core_morphism&#45;&gt;Core_object -->
<g id="edge32" class="edge"><title>Core_morphism&#45;&gt;Core_object</title>
<path fill="none" stroke="black" d="M1080,-231.401C1080,-216.404 1080,-195.015 1080,-177.778"/>
<polygon fill="black" stroke="black" points="1083.5,-177.676 1080,-167.676 1076.5,-177.676 1083.5,-177.676"/>
</g>
<!-- Core_PreCategory -->
<g id="node16" class="node"><title>Core_PreCategory</title>
<a xlink:href="Core.html#PreCategory" xlink:title="PreCategory">
<ellipse fill="#e2cdfa" stroke="black" cx="1080" cy="-47.9261" rx="72.832" ry="18.3848"/>
<text text-anchor="middle" x="1080" y="-44.3261" font-family="Times Roman,serif" font-size="14.00">PreCategory</text>
</a>
</g>
<!-- Core_object&#45;&gt;Core_PreCategory -->
<g id="edge34" class="edge"><title>Core_object&#45;&gt;Core_PreCategory</title>
<path fill="none" stroke="black" d="M1080,-130.401C1080,-115.404 1080,-94.0155 1080,-76.7778"/>
<polygon fill="black" stroke="black" points="1083.5,-76.6756 1080,-66.6756 1076.5,-76.6757 1083.5,-76.6756"/>
</g>
</g>
</svg>
