<?xml version="1.0" encoding="UTF-8" standalone="no"?>
<!DOCTYPE svg PUBLIC "-//W3C//DTD SVG 1.1//EN"
 "http://www.w3.org/Graphics/SVG/1.1/DTD/svg11.dtd">
<!-- Generated by graphviz version 2.39.20161220.0128 (20161220.0128)
 -->
<!-- Title: HoTT_Categories_GroupoidCategory_Core Pages: 1 -->
<svg width="844pt" height="426pt"
 viewBox="0.00 0.00 844.00 426.00" xmlns="http://www.w3.org/2000/svg" xmlns:xlink="http://www.w3.org/1999/xlink">
<g id="graph0" class="graph" transform="scale(1 1) rotate(0) translate(4 422)">
<title>HoTT_Categories_GroupoidCategory_Core</title>
<polygon fill="#ffffff" stroke="transparent" points="-4,4 -4,-422 840,-422 840,4 -4,4"/>
<g id="clust1" class="cluster">
<title>cluster_Core</title>
<polygon fill="#ffffc3" stroke="#000000" points="8,-12.7634 8,-405.2366 828,-405.2366 828,-12.7634 8,-12.7634"/>
<text text-anchor="middle" x="29.5" y="-390.0366" font-family="Times,serif" font-size="14.00" fill="#000000">Core</text>
</g>
<g id="clust2" class="cluster">
<title>cluster_Core_GroupoidCategoryInternals</title>
<polygon fill="#ffffa3" stroke="#000000" points="350,-25.5267 350,-145.1832 544,-145.1832 544,-25.5267 350,-25.5267"/>
<text text-anchor="middle" x="432.5" y="-129.9832" font-family="Times,serif" font-size="14.00" fill="#000000">GroupoidCategoryInternals</text>
</g>
<!-- Core_GroupoidCategoryInternals_identity -->
<g id="node1" class="node">
<title>Core_GroupoidCategoryInternals_identity</title>
<g id="a_node1"><a xlink:href="Core.html#GroupoidCategoryInternals.identity" xlink:title="identity">
<ellipse fill="#f070d1" stroke="#000000" cx="498" cy="-66.7634" rx="37.8943" ry="18"/>
<text text-anchor="middle" x="498" y="-63.0634" font-family="Times,serif" font-size="14.00" fill="#000000">identity</text>
</a>
</g>
</g>
<!-- Core_GroupoidCategoryInternals_compose -->
<g id="node2" class="node">
<title>Core_GroupoidCategoryInternals_compose</title>
<g id="a_node2"><a xlink:href="Core.html#GroupoidCategoryInternals.compose" xlink:title="compose">
<ellipse fill="#f070d1" stroke="#000000" cx="400" cy="-66.7634" rx="42.4939" ry="18"/>
<text text-anchor="middle" x="400" y="-63.0634" font-family="Times,serif" font-size="14.00" fill="#000000">compose</text>
</a>
</g>
</g>
<!-- Core_isstrict_groupoid_category -->
<g id="node3" class="node">
<title>Core_isstrict_groupoid_category</title>
<g id="a_node3"><a xlink:href="Core.html#isstrict_groupoid_category" xlink:title="isstrict_groupoid_category">
<ellipse fill="#f070d1" stroke="#000000" cx="707" cy="-314.7634" rx="104.7716" ry="18"/>
<ellipse fill="none" stroke="#000000" cx="707" cy="-314.7634" rx="108.7766" ry="22"/>
<ellipse fill="none" stroke="#000000" cx="707" cy="-314.7634" rx="112.7816" ry="26"/>
<text text-anchor="middle" x="707" y="-311.0634" font-family="Times,serif" font-size="14.00" fill="#000000">isstrict_groupoid_category</text>
</a>
</g>
</g>
<!-- Core_isgroupoid_groupoid_category -->
<g id="node4" class="node">
<title>Core_isgroupoid_groupoid_category</title>
<g id="a_node4"><a xlink:href="Core.html#isgroupoid_groupoid_category" xlink:title="isgroupoid_groupoid_category">
<ellipse fill="#f070d1" stroke="#000000" cx="449" cy="-314.7634" rx="118.8827" ry="18"/>
<ellipse fill="none" stroke="#000000" cx="449" cy="-314.7634" rx="122.8808" ry="22"/>
<ellipse fill="none" stroke="#000000" cx="449" cy="-314.7634" rx="126.8789" ry="26"/>
<text text-anchor="middle" x="449" y="-311.0634" font-family="Times,serif" font-size="14.00" fill="#000000">isgroupoid_groupoid_category</text>
</a>
</g>
</g>
<!-- Core_groupoid_category -->
<g id="node5" class="node">
<title>Core_groupoid_category</title>
<g id="a_node5"><a xlink:href="Core.html#groupoid_category" xlink:title="groupoid_category">
<ellipse fill="#f070d1" stroke="#000000" cx="449" cy="-186.7634" rx="77.1866" ry="18"/>
<text text-anchor="middle" x="449" y="-183.0634" font-family="Times,serif" font-size="14.00" fill="#000000">groupoid_category</text>
</a>
</g>
</g>
<!-- Core_isgroupoid_groupoid_category&#45;&gt;Core_groupoid_category -->
<g id="edge1" class="edge">
<title>Core_isgroupoid_groupoid_category&#45;&gt;Core_groupoid_category</title>
<path fill="none" stroke="#000000" d="M449,-288.5518C449,-267.181 449,-237.052 449,-215.121"/>
<polygon fill="#000000" stroke="#000000" points="452.5001,-215.0877 449,-205.0878 445.5001,-215.0878 452.5001,-215.0877"/>
</g>
<!-- Core_IsGroupoid -->
<g id="node8" class="node">
<title>Core_IsGroupoid</title>
<g id="a_node8"><a xlink:href="Core.html#IsGroupoid" xlink:title="IsGroupoid">
<ellipse fill="#f070d1" stroke="#000000" cx="187" cy="-186.7634" rx="50.8918" ry="18"/>
<text text-anchor="middle" x="187" y="-183.0634" font-family="Times,serif" font-size="14.00" fill="#000000">IsGroupoid</text>
</a>
</g>
</g>
<!-- Core_isgroupoid_groupoid_category&#45;&gt;Core_IsGroupoid -->
<g id="edge2" class="edge">
<title>Core_isgroupoid_groupoid_category&#45;&gt;Core_IsGroupoid</title>
<path fill="none" stroke="#000000" d="M399.7198,-290.6875C349.3795,-266.0938 272.2332,-228.404 225.9883,-205.8111"/>
<polygon fill="#000000" stroke="#000000" points="227.4107,-202.6107 216.8892,-201.3657 224.3379,-208.9002 227.4107,-202.6107"/>
</g>
<!-- Core_groupoid_category&#45;&gt;Core_GroupoidCategoryInternals_identity -->
<g id="edge3" class="edge">
<title>Core_groupoid_category&#45;&gt;Core_GroupoidCategoryInternals_identity</title>
<path fill="none" stroke="#000000" d="M456.3358,-168.7981C464.429,-148.978 477.5441,-116.8596 486.8973,-93.9537"/>
<polygon fill="#000000" stroke="#000000" points="490.2339,-95.0408 490.774,-84.4597 483.7533,-92.3945 490.2339,-95.0408"/>
</g>
<!-- Core_groupoid_category&#45;&gt;Core_GroupoidCategoryInternals_compose -->
<g id="edge4" class="edge">
<title>Core_groupoid_category&#45;&gt;Core_GroupoidCategoryInternals_compose</title>
<path fill="none" stroke="#000000" d="M441.6642,-168.7981C433.6175,-149.0919 420.6065,-117.2283 411.2644,-94.3496"/>
<polygon fill="#000000" stroke="#000000" points="414.4066,-92.7862 407.3859,-84.8514 407.926,-95.4324 414.4066,-92.7862"/>
</g>
<!-- Core_trunc_isgroupoid -->
<g id="node6" class="node">
<title>Core_trunc_isgroupoid</title>
<g id="a_node6"><a xlink:href="Core.html#trunc_isgroupoid" xlink:title="trunc_isgroupoid">
<ellipse fill="#f070d1" stroke="#000000" cx="225" cy="-314.7634" rx="70.7036" ry="18"/>
<ellipse fill="none" stroke="#000000" cx="225" cy="-314.7634" rx="74.6957" ry="22"/>
<ellipse fill="none" stroke="#000000" cx="225" cy="-314.7634" rx="78.6877" ry="26"/>
<text text-anchor="middle" x="225" y="-311.0634" font-family="Times,serif" font-size="14.00" fill="#000000">trunc_isgroupoid</text>
</a>
</g>
</g>
<!-- Core_isgroupoid -->
<g id="node7" class="node">
<title>Core_isgroupoid</title>
<g id="a_node7"><a xlink:href="Core.html#isgroupoid" xlink:title="isgroupoid">
<ellipse fill="#f070d1" stroke="#000000" cx="72" cy="-314.7634" rx="48.178" ry="18"/>
<ellipse fill="none" stroke="#000000" cx="72" cy="-314.7634" rx="52.1848" ry="22"/>
<ellipse fill="none" stroke="#000000" cx="72" cy="-314.7634" rx="56.1916" ry="26"/>
<text text-anchor="middle" x="72" y="-311.0634" font-family="Times,serif" font-size="14.00" fill="#000000">isgroupoid</text>
</a>
</g>
</g>
<!-- Core_isgroupoid&#45;&gt;Core_IsGroupoid -->
<g id="edge5" class="edge">
<title>Core_isgroupoid&#45;&gt;Core_IsGroupoid</title>
<path fill="none" stroke="#000000" d="M93.6306,-290.6875C113.8848,-268.1438 144.0253,-234.5961 164.5431,-211.7589"/>
<polygon fill="#000000" stroke="#000000" points="167.2875,-213.9413 171.3672,-204.1634 162.0803,-209.263 167.2875,-213.9413"/>
</g>
</g>
</svg>
