<?xml version="1.0" encoding="UTF-8" standalone="no"?>
<!DOCTYPE svg PUBLIC "-//W3C//DTD SVG 1.1//EN"
 "http://www.w3.org/Graphics/SVG/1.1/DTD/svg11.dtd">
<!-- Generated by graphviz version 2.26.3 (20100126.1600)
 -->
<!-- Title: HoTT_categories_NaturalTransformation_Composition Pages: 1 -->
<svg width="8432pt" height="4220pt"
 viewBox="0.00 0.00 8432.00 4220.00" xmlns="http://www.w3.org/2000/svg" xmlns:xlink="http://www.w3.org/1999/xlink">
<g id="graph1" class="graph" transform="scale(1 1) rotate(0) translate(4 4216)">
<title>HoTT_categories_NaturalTransformation_Composition</title>
<polygon fill="white" stroke="white" points="-4,5 -4,-4216 8429,-4216 8429,5 -4,5"/>
<g id="graph2" class="cluster"><title>cluster_Laws</title>
<polygon fill="#ffffc3" stroke="black" points="8,-933.47 8,-2937.02 2794,-2937.02 2794,-933.47 8,-933.47"/>
<text text-anchor="middle" x="34.5" y="-2920.42" font-family="Times Roman,serif" font-size="14.00">Laws</text>
</g>
<g id="graph3" class="cluster"><title>cluster_Functorial</title>
<polygon fill="#ffffc3" stroke="black" points="1023,-3028.09 1023,-4120.93 1475,-4120.93 1475,-3028.09 1023,-3028.09"/>
<text text-anchor="middle" x="1065.5" y="-4104.33" font-family="Times Roman,serif" font-size="14.00">Functorial</text>
</g>
<g id="graph4" class="cluster"><title>cluster_Composition</title>
<polygon fill="#ffffc3" stroke="black" points="2802,-1935.24 2802,-4120.93 8416,-4120.93 8416,-1935.24 2802,-1935.24"/>
<text text-anchor="middle" x="2852.5" y="-4104.33" font-family="Times Roman,serif" font-size="14.00">Composition</text>
</g>
<g id="graph5" class="cluster"><title>cluster_Core</title>
<polygon fill="#ffffc3" stroke="black" points="2802,-91.0703 2802,-1844.17 4400,-1844.17 4400,-91.0703 2802,-91.0703"/>
<text text-anchor="middle" x="2826.5" y="-1827.57" font-family="Times Roman,serif" font-size="14.00">Core</text>
</g>
<!-- Laws_right_identity_isomorphism -->
<g id="node1" class="node"><title>Laws_right_identity_isomorphism</title>
<a xlink:href="Laws.html#right_identity_isomorphism" xlink:title="right_identity_isomorphism">
<ellipse fill="#facdef" stroke="black" cx="452" cy="-2243.07" rx="144.25" ry="18.3848"/>
<text text-anchor="middle" x="452" y="-2239.47" font-family="Times Roman,serif" font-size="14.00">right_identity_isomorphism</text>
</a>
</g>
<!-- Laws_right_identity_natural_transformation_2 -->
<g id="node2" class="node"><title>Laws_right_identity_natural_transformation_2</title>
<a xlink:href="Laws.html#right_identity_natural_transformation_2" xlink:title="right_identity_natural_transformation_2">
<ellipse fill="#f070d1" stroke="black" cx="1498" cy="-1241.07" rx="208.096" ry="18.3848"/>
<text text-anchor="middle" x="1498" y="-1237.47" font-family="Times Roman,serif" font-size="14.00">right_identity_natural_transformation_2</text>
</a>
</g>
<!-- Laws_right_identity_isomorphism&#45;&gt;Laws_right_identity_natural_transformation_2 -->
<g id="edge2" class="edge"><title>Laws_right_identity_isomorphism&#45;&gt;Laws_right_identity_natural_transformation_2</title>
<path fill="none" stroke="black" d="M471.502,-2224.39C599.813,-2101.47 1322.4,-1409.28 1471.2,-1266.74"/>
<polygon fill="black" stroke="black" points="1473.83,-1269.07 1478.63,-1259.62 1468.99,-1264.01 1473.83,-1269.07"/>
</g>
<!-- Laws_right_identity_natural_transformation_1 -->
<g id="node3" class="node"><title>Laws_right_identity_natural_transformation_1</title>
<a xlink:href="Laws.html#right_identity_natural_transformation_1" xlink:title="right_identity_natural_transformation_1">
<ellipse fill="#f070d1" stroke="black" cx="1064" cy="-1241.07" rx="208.096" ry="18.3848"/>
<text text-anchor="middle" x="1064" y="-1237.47" font-family="Times Roman,serif" font-size="14.00">right_identity_natural_transformation_1</text>
</a>
</g>
<!-- Laws_right_identity_isomorphism&#45;&gt;Laws_right_identity_natural_transformation_1 -->
<g id="edge4" class="edge"><title>Laws_right_identity_isomorphism&#45;&gt;Laws_right_identity_natural_transformation_1</title>
<path fill="none" stroke="black" d="M463.41,-2224.39C538.185,-2101.96 957.903,-1414.78 1047.27,-1268.47"/>
<polygon fill="black" stroke="black" points="1050.44,-1269.98 1052.67,-1259.62 1044.47,-1266.33 1050.44,-1269.98"/>
</g>
<!-- Core_compose -->
<g id="node25" class="node"><title>Core_compose</title>
<a xlink:href="Core.html#compose" xlink:title="compose">
<ellipse fill="#f070d1" stroke="black" cx="2997" cy="-1241.07" rx="53.2379" ry="18.3848"/>
<text text-anchor="middle" x="2997" y="-1237.47" font-family="Times Roman,serif" font-size="14.00">compose</text>
</a>
</g>
<!-- Laws_right_identity_isomorphism&#45;&gt;Core_compose -->
<g id="edge6" class="edge"><title>Laws_right_identity_isomorphism&#45;&gt;Core_compose</title>
<path fill="none" stroke="black" d="M519.023,-2226.55C817.296,-2151.19 2048.32,-1820.98 2935,-1294.07 2948.32,-1286.15 2961.58,-1275.32 2972.4,-1265.51"/>
<polygon fill="black" stroke="black" points="2974.89,-1267.98 2979.82,-1258.6 2970.11,-1262.86 2974.89,-1267.98"/>
</g>
<!-- Laws_left_identity_isomorphism -->
<g id="node4" class="node"><title>Laws_left_identity_isomorphism</title>
<a xlink:href="Laws.html#left_identity_isomorphism" xlink:title="left_identity_isomorphism">
<ellipse fill="#facdef" stroke="black" cx="153" cy="-2243.07" rx="137.179" ry="18.3848"/>
<text text-anchor="middle" x="153" y="-2239.47" font-family="Times Roman,serif" font-size="14.00">left_identity_isomorphism</text>
</a>
</g>
<!-- Laws_left_identity_natural_transformation_2 -->
<g id="node5" class="node"><title>Laws_left_identity_natural_transformation_2</title>
<a xlink:href="Laws.html#left_identity_natural_transformation_2" xlink:title="left_identity_natural_transformation_2">
<ellipse fill="#f070d1" stroke="black" cx="637" cy="-1241.07" rx="200.818" ry="18.3848"/>
<text text-anchor="middle" x="637" y="-1237.47" font-family="Times Roman,serif" font-size="14.00">left_identity_natural_transformation_2</text>
</a>
</g>
<!-- Laws_left_identity_isomorphism&#45;&gt;Laws_left_identity_natural_transformation_2 -->
<g id="edge8" class="edge"><title>Laws_left_identity_isomorphism&#45;&gt;Laws_left_identity_natural_transformation_2</title>
<path fill="none" stroke="black" d="M162.024,-2224.39C221.1,-2102.09 552.431,-1416.15 623.554,-1268.91"/>
<polygon fill="black" stroke="black" points="626.84,-1270.15 628.038,-1259.62 620.537,-1267.11 626.84,-1270.15"/>
</g>
<!-- Laws_left_identity_natural_transformation_1 -->
<g id="node6" class="node"><title>Laws_left_identity_natural_transformation_1</title>
<a xlink:href="Laws.html#left_identity_natural_transformation_1" xlink:title="left_identity_natural_transformation_1">
<ellipse fill="#f070d1" stroke="black" cx="217" cy="-1241.07" rx="200.818" ry="18.3848"/>
<text text-anchor="middle" x="217" y="-1237.47" font-family="Times Roman,serif" font-size="14.00">left_identity_natural_transformation_1</text>
</a>
</g>
<!-- Laws_left_identity_isomorphism&#45;&gt;Laws_left_identity_natural_transformation_1 -->
<g id="edge10" class="edge"><title>Laws_left_identity_isomorphism&#45;&gt;Laws_left_identity_natural_transformation_1</title>
<path fill="none" stroke="black" d="M154.193,-2224.39C161.989,-2102.33 205.642,-1418.89 215.165,-1269.8"/>
<polygon fill="black" stroke="black" points="218.67,-1269.83 215.815,-1259.62 211.685,-1269.38 218.67,-1269.83"/>
</g>
<!-- Laws_left_identity_isomorphism&#45;&gt;Core_compose -->
<g id="edge12" class="edge"><title>Laws_left_identity_isomorphism&#45;&gt;Core_compose</title>
<path fill="none" stroke="black" d="M231.049,-2227.8C570.652,-2159.11 1946.86,-1857.25 2935,-1294.07 2948.46,-1286.4 2961.75,-1275.6 2972.54,-1265.75"/>
<polygon fill="black" stroke="black" points="2975.04,-1268.2 2979.93,-1258.8 2970.25,-1263.1 2975.04,-1268.2"/>
</g>
<!-- Laws_associativity -->
<g id="node7" class="node"><title>Laws_associativity</title>
<a xlink:href="Laws.html#associativity" xlink:title="associativity">
<ellipse fill="#facdef" stroke="black" cx="2715" cy="-2243.07" rx="70.9184" ry="18.3848"/>
<text text-anchor="middle" x="2715" y="-2239.47" font-family="Times Roman,serif" font-size="14.00">associativity</text>
</a>
</g>
<!-- Laws_associativity&#45;&gt;Core_compose -->
<g id="edge14" class="edge"><title>Laws_associativity&#45;&gt;Core_compose</title>
<path fill="none" stroke="black" d="M2720.26,-2224.39C2754.64,-2102.21 2947.34,-1417.52 2989.04,-1269.35"/>
<polygon fill="black" stroke="black" points="2992.44,-1270.2 2991.78,-1259.62 2985.7,-1268.3 2992.44,-1270.2"/>
</g>
<!-- Laws_associator_2 -->
<g id="node8" class="node"><title>Laws_associator_2</title>
<a xlink:href="Laws.html#associator_2" xlink:title="associator_2">
<ellipse fill="#f070d1" stroke="black" cx="2150" cy="-2243.07" rx="72.1249" ry="18.3848"/>
<ellipse fill="none" stroke="black" cx="2150" cy="-2243.07" rx="76.1249" ry="22.3848"/>
<ellipse fill="none" stroke="black" cx="2150" cy="-2243.07" rx="80.1249" ry="26.3848"/>
<text text-anchor="middle" x="2150" y="-2239.47" font-family="Times Roman,serif" font-size="14.00">associator_2</text>
</a>
</g>
<!-- Laws_associator_1 -->
<g id="node9" class="node"><title>Laws_associator_1</title>
<a xlink:href="Laws.html#associator_1" xlink:title="associator_1">
<ellipse fill="#f070d1" stroke="black" cx="1972" cy="-2243.07" rx="72.1249" ry="18.3848"/>
<ellipse fill="none" stroke="black" cx="1972" cy="-2243.07" rx="76.1249" ry="22.3848"/>
<ellipse fill="none" stroke="black" cx="1972" cy="-2243.07" rx="80.1249" ry="26.3848"/>
<text text-anchor="middle" x="1972" y="-2239.47" font-family="Times Roman,serif" font-size="14.00">associator_1</text>
</a>
</g>
<!-- Laws_composition_of_whisker_r -->
<g id="node10" class="node"><title>Laws_composition_of_whisker_r</title>
<a xlink:href="Laws.html#composition_of_whisker_r" xlink:title="composition_of_whisker_r">
<ellipse fill="#facdef" stroke="black" cx="1473" cy="-2243.07" rx="137.179" ry="18.3848"/>
<text text-anchor="middle" x="1473" y="-2239.47" font-family="Times Roman,serif" font-size="14.00">composition_of_whisker_r</text>
</a>
</g>
<!-- Core_whisker_r -->
<g id="node19" class="node"><title>Core_whisker_r</title>
<a xlink:href="Core.html#whisker_r" xlink:title="whisker_r">
<ellipse fill="#f070d1" stroke="black" cx="3127" cy="-1241.07" rx="58.8978" ry="18.3848"/>
<text text-anchor="middle" x="3127" y="-1237.47" font-family="Times Roman,serif" font-size="14.00">whisker_r</text>
</a>
</g>
<!-- Laws_composition_of_whisker_r&#45;&gt;Core_whisker_r -->
<g id="edge16" class="edge"><title>Laws_composition_of_whisker_r&#45;&gt;Core_whisker_r</title>
<path fill="none" stroke="black" d="M1506.59,-2224.99C1676.7,-2133.04 2458.43,-1705.5 3059,-1294.07 3072.24,-1285 3086.33,-1274.22 3098.22,-1264.77"/>
<polygon fill="black" stroke="black" points="3100.46,-1267.46 3106.07,-1258.47 3096.08,-1262 3100.46,-1267.46"/>
</g>
<!-- Laws_composition_of_whisker_r&#45;&gt;Core_compose -->
<g id="edge18" class="edge"><title>Laws_composition_of_whisker_r&#45;&gt;Core_compose</title>
<path fill="none" stroke="black" d="M1504.11,-2224.97C1661.58,-2132.9 2384.96,-1704.9 2935,-1294.07 2946.93,-1285.16 2959.53,-1274.62 2970.23,-1265.3"/>
<polygon fill="black" stroke="black" points="2972.8,-1267.69 2977.99,-1258.46 2968.18,-1262.44 2972.8,-1267.69"/>
</g>
<!-- Laws_composition_of_whisker_l -->
<g id="node11" class="node"><title>Laws_composition_of_whisker_l</title>
<a xlink:href="Laws.html#composition_of_whisker_l" xlink:title="composition_of_whisker_l">
<ellipse fill="#facdef" stroke="black" cx="1025" cy="-2243.07" rx="135.057" ry="18.3848"/>
<text text-anchor="middle" x="1025" y="-2239.47" font-family="Times Roman,serif" font-size="14.00">composition_of_whisker_l</text>
</a>
</g>
<!-- Core_whisker_l -->
<g id="node22" class="node"><title>Core_whisker_l</title>
<a xlink:href="Core.html#whisker_l" xlink:title="whisker_l">
<ellipse fill="#f070d1" stroke="black" cx="2868" cy="-1241.07" rx="57.9828" ry="18.3848"/>
<text text-anchor="middle" x="2868" y="-1237.47" font-family="Times Roman,serif" font-size="14.00">whisker_l</text>
</a>
</g>
<!-- Laws_composition_of_whisker_l&#45;&gt;Core_whisker_l -->
<g id="edge20" class="edge"><title>Laws_composition_of_whisker_l&#45;&gt;Core_whisker_l</title>
<path fill="none" stroke="black" d="M1063.36,-2225.31C1255.65,-2135.73 2131.76,-1720.87 2798,-1294.07 2811.87,-1285.18 2826.5,-1274.36 2838.78,-1264.81"/>
<polygon fill="black" stroke="black" points="2841.18,-1267.38 2846.87,-1258.44 2836.85,-1261.88 2841.18,-1267.38"/>
</g>
<!-- Laws_composition_of_whisker_l&#45;&gt;Core_compose -->
<g id="edge22" class="edge"><title>Laws_composition_of_whisker_l&#45;&gt;Core_compose</title>
<path fill="none" stroke="black" d="M1069.86,-2225.62C1285.99,-2140.57 2238.13,-1754.84 2935,-1294.07 2947.74,-1285.65 2960.74,-1274.92 2971.53,-1265.32"/>
<polygon fill="black" stroke="black" points="2973.91,-1267.89 2978.96,-1258.58 2969.2,-1262.71 2973.91,-1267.89"/>
</g>
<!-- Laws_exchange_whisker -->
<g id="node12" class="node"><title>Laws_exchange_whisker</title>
<a xlink:href="Laws.html#exchange_whisker" xlink:title="exchange_whisker">
<ellipse fill="#facdef" stroke="black" cx="2524" cy="-2243.07" rx="101.823" ry="18.3848"/>
<text text-anchor="middle" x="2524" y="-2239.47" font-family="Times Roman,serif" font-size="14.00">exchange_whisker</text>
</a>
</g>
<!-- Laws_exchange_whisker&#45;&gt;Core_whisker_r -->
<g id="edge24" class="edge"><title>Laws_exchange_whisker&#45;&gt;Core_whisker_r</title>
<path fill="none" stroke="black" d="M2535.24,-2224.39C2608.92,-2101.96 3022.46,-1414.78 3110.51,-1268.47"/>
<polygon fill="black" stroke="black" points="3113.68,-1270 3115.83,-1259.62 3107.68,-1266.39 3113.68,-1270"/>
</g>
<!-- Laws_exchange_whisker&#45;&gt;Core_whisker_l -->
<g id="edge26" class="edge"><title>Laws_exchange_whisker&#45;&gt;Core_whisker_l</title>
<path fill="none" stroke="black" d="M2530.41,-2224.39C2572.36,-2102.21 2807.42,-1417.52 2858.29,-1269.35"/>
<polygon fill="black" stroke="black" points="2861.69,-1270.22 2861.63,-1259.62 2855.07,-1267.94 2861.69,-1270.22"/>
</g>
<!-- Laws_exchange_whisker&#45;&gt;Core_compose -->
<g id="edge28" class="edge"><title>Laws_exchange_whisker&#45;&gt;Core_compose</title>
<path fill="none" stroke="black" d="M2532.82,-2224.39C2590.55,-2102.09 2914.35,-1416.15 2983.86,-1268.91"/>
<polygon fill="black" stroke="black" points="2987.14,-1270.16 2988.24,-1259.62 2980.81,-1267.17 2987.14,-1270.16"/>
</g>
<!-- Laws_whisker_l_right_identity -->
<g id="node13" class="node"><title>Laws_whisker_l_right_identity</title>
<a xlink:href="Laws.html#whisker_l_right_identity" xlink:title="whisker_l_right_identity">
<ellipse fill="#facdef" stroke="black" cx="743" cy="-2243.07" rx="128.901" ry="18.3848"/>
<text text-anchor="middle" x="743" y="-2239.47" font-family="Times Roman,serif" font-size="14.00">whisker_l_right_identity</text>
</a>
</g>
<!-- Laws_whisker_l_right_identity&#45;&gt;Core_whisker_l -->
<g id="edge30" class="edge"><title>Laws_whisker_l_right_identity&#45;&gt;Core_whisker_l</title>
<path fill="none" stroke="black" d="M790.052,-2225.71C1019.05,-2140.33 2036.82,-1750.69 2798,-1294.07 2812.23,-1285.53 2827.02,-1274.67 2839.32,-1265.01"/>
<polygon fill="black" stroke="black" points="2841.77,-1267.53 2847.39,-1258.55 2837.4,-1262.06 2841.77,-1267.53"/>
</g>
<!-- Laws_whisker_r_left_identity -->
<g id="node14" class="node"><title>Laws_whisker_r_left_identity</title>
<a xlink:href="Laws.html#whisker_r_left_identity" xlink:title="whisker_r_left_identity">
<ellipse fill="#facdef" stroke="black" cx="1751" cy="-2243.07" rx="123.243" ry="18.3848"/>
<text text-anchor="middle" x="1751" y="-2239.47" font-family="Times Roman,serif" font-size="14.00">whisker_r_left_identity</text>
</a>
</g>
<!-- Laws_whisker_r_left_identity&#45;&gt;Core_whisker_r -->
<g id="edge32" class="edge"><title>Laws_whisker_r_left_identity&#45;&gt;Core_whisker_r</title>
<path fill="none" stroke="black" d="M1777.06,-2224.67C1912.45,-2128.95 2548.91,-1677.72 3059,-1294.07 3071.51,-1284.66 3085.15,-1274.09 3096.91,-1264.88"/>
<polygon fill="black" stroke="black" points="3099.4,-1267.38 3105.1,-1258.45 3095.07,-1261.87 3099.4,-1267.38"/>
</g>
<!-- Laws_right_identity -->
<g id="node15" class="node"><title>Laws_right_identity</title>
<a xlink:href="Laws.html#right_identity" xlink:title="right_identity">
<ellipse fill="#facdef" stroke="black" cx="2326" cy="-2243.07" rx="77.7817" ry="18.3848"/>
<text text-anchor="middle" x="2326" y="-2239.47" font-family="Times Roman,serif" font-size="14.00">right_identity</text>
</a>
</g>
<!-- Laws_right_identity&#45;&gt;Core_compose -->
<g id="edge34" class="edge"><title>Laws_right_identity&#45;&gt;Core_compose</title>
<path fill="none" stroke="black" d="M2338.51,-2224.39C2420.66,-2101.71 2882.58,-1411.93 2979.26,-1267.57"/>
<polygon fill="black" stroke="black" points="2982.19,-1269.48 2984.84,-1259.22 2976.37,-1265.59 2982.19,-1269.48"/>
</g>
<!-- Laws_left_identity -->
<g id="node16" class="node"><title>Laws_left_identity</title>
<a xlink:href="Laws.html#left_identity" xlink:title="left_identity">
<ellipse fill="#facdef" stroke="black" cx="1248" cy="-2243.07" rx="70.2092" ry="18.3848"/>
<text text-anchor="middle" x="1248" y="-2239.47" font-family="Times Roman,serif" font-size="14.00">left_identity</text>
</a>
</g>
<!-- Laws_left_identity&#45;&gt;Core_compose -->
<g id="edge36" class="edge"><title>Laws_left_identity&#45;&gt;Core_compose</title>
<path fill="none" stroke="black" d="M1282.47,-2226.83C1462.25,-2141.47 2307.97,-1732.18 2935,-1294.07 2947.3,-1285.47 2960.05,-1274.91 2970.75,-1265.48"/>
<polygon fill="black" stroke="black" points="2973.39,-1267.82 2978.51,-1258.55 2968.72,-1262.61 2973.39,-1267.82"/>
</g>
<!-- Functorial_whiskerR_functor -->
<g id="node17" class="node"><title>Functorial_whiskerR_functor</title>
<a xlink:href="Functorial.html#whiskerR_functor" xlink:title="whiskerR_functor">
<ellipse fill="#f070d1" stroke="black" cx="1362" cy="-3426.07" rx="96.8736" ry="18.3848"/>
<ellipse fill="none" stroke="black" cx="1362" cy="-3426.07" rx="100.874" ry="22.3848"/>
<ellipse fill="none" stroke="black" cx="1362" cy="-3426.07" rx="104.874" ry="26.3848"/>
<text text-anchor="middle" x="1362" y="-3422.47" font-family="Times Roman,serif" font-size="14.00">whiskerR_functor</text>
</a>
</g>
<!-- Functorial_whiskerR_functor&#45;&gt;Laws_composition_of_whisker_r -->
<g id="edge38" class="edge"><title>Functorial_whiskerR_functor&#45;&gt;Laws_composition_of_whisker_r</title>
<path fill="none" stroke="black" d="M1364.5,-3399.42C1379.26,-3242.1 1454.9,-2435.99 1470.27,-2272.15"/>
<polygon fill="black" stroke="black" points="1473.78,-2272.17 1471.23,-2261.89 1466.82,-2271.52 1473.78,-2272.17"/>
</g>
<!-- Functorial_whiskerR_functor&#45;&gt;Laws_whisker_r_left_identity -->
<g id="edge40" class="edge"><title>Functorial_whiskerR_functor&#45;&gt;Laws_whisker_r_left_identity</title>
<path fill="none" stroke="black" d="M1370.76,-3399.42C1422.55,-3241.94 1688.09,-2434.37 1741.6,-2271.66"/>
<polygon fill="black" stroke="black" points="1745.01,-2272.48 1744.81,-2261.89 1738.36,-2270.29 1745.01,-2272.48"/>
</g>
<!-- Functorial_whiskerL_functor -->
<g id="node18" class="node"><title>Functorial_whiskerL_functor</title>
<a xlink:href="Functorial.html#whiskerL_functor" xlink:title="whiskerL_functor">
<ellipse fill="#f070d1" stroke="black" cx="1135" cy="-3426.07" rx="96.1665" ry="18.3848"/>
<ellipse fill="none" stroke="black" cx="1135" cy="-3426.07" rx="100.167" ry="22.3848"/>
<ellipse fill="none" stroke="black" cx="1135" cy="-3426.07" rx="104.167" ry="26.3848"/>
<text text-anchor="middle" x="1135" y="-3422.47" font-family="Times Roman,serif" font-size="14.00">whiskerL_functor</text>
</a>
</g>
<!-- Functorial_whiskerL_functor&#45;&gt;Laws_composition_of_whisker_l -->
<g id="edge42" class="edge"><title>Functorial_whiskerL_functor&#45;&gt;Laws_composition_of_whisker_l</title>
<path fill="none" stroke="black" d="M1132.52,-3399.42C1117.89,-3242.1 1042.94,-2435.99 1027.7,-2272.15"/>
<polygon fill="black" stroke="black" points="1031.16,-2271.52 1026.75,-2261.89 1024.19,-2272.17 1031.16,-2271.52"/>
</g>
<!-- Functorial_whiskerL_functor&#45;&gt;Laws_whisker_l_right_identity -->
<g id="edge44" class="edge"><title>Functorial_whiskerL_functor&#45;&gt;Laws_whisker_l_right_identity</title>
<path fill="none" stroke="black" d="M1126.17,-3399.42C1073.99,-3241.94 806.391,-2434.37 752.473,-2271.66"/>
<polygon fill="black" stroke="black" points="755.703,-2270.28 749.236,-2261.89 749.059,-2272.48 755.703,-2270.28"/>
</g>
<!-- Core_whisker_r_commutes_sym -->
<g id="node20" class="node"><title>Core_whisker_r_commutes_sym</title>
<a xlink:href="Core.html#whisker_r_commutes_sym" xlink:title="whisker_r_commutes_sym">
<ellipse fill="#f070d1" stroke="black" cx="4007" cy="-398.07" rx="138.801" ry="18.3848"/>
<text text-anchor="middle" x="4007" y="-394.47" font-family="Times Roman,serif" font-size="14.00">whisker_r_commutes_sym</text>
</a>
</g>
<!-- Core_whisker_r&#45;&gt;Core_whisker_r_commutes_sym -->
<g id="edge46" class="edge"><title>Core_whisker_r&#45;&gt;Core_whisker_r_commutes_sym</title>
<path fill="none" stroke="black" d="M3145.38,-1223.46C3257.3,-1116.25 3846.85,-551.49 3980.18,-423.763"/>
<polygon fill="black" stroke="black" points="3982.8,-426.102 3987.6,-416.657 3977.96,-421.047 3982.8,-426.102"/>
</g>
<!-- Core_whisker_r_commutes -->
<g id="node21" class="node"><title>Core_whisker_r_commutes</title>
<a xlink:href="Core.html#whisker_r_commutes" xlink:title="whisker_r_commutes">
<ellipse fill="#f070d1" stroke="black" cx="4278" cy="-398.07" rx="114.051" ry="18.3848"/>
<text text-anchor="middle" x="4278" y="-394.47" font-family="Times Roman,serif" font-size="14.00">whisker_r_commutes</text>
</a>
</g>
<!-- Core_whisker_r&#45;&gt;Core_whisker_r_commutes -->
<g id="edge48" class="edge"><title>Core_whisker_r&#45;&gt;Core_whisker_r_commutes</title>
<path fill="none" stroke="black" d="M3150.25,-1224.04C3295.2,-1117.88 4074.2,-547.335 4244.92,-422.299"/>
<polygon fill="black" stroke="black" points="4247.04,-425.084 4253.04,-416.351 4242.9,-419.437 4247.04,-425.084"/>
</g>
<!-- Core_whisker_l_commutes_sym -->
<g id="node23" class="node"><title>Core_whisker_l_commutes_sym</title>
<a xlink:href="Core.html#whisker_l_commutes_sym" xlink:title="whisker_l_commutes_sym">
<ellipse fill="#f070d1" stroke="black" cx="2948" cy="-398.07" rx="137.886" ry="18.3848"/>
<text text-anchor="middle" x="2948" y="-394.47" font-family="Times Roman,serif" font-size="14.00">whisker_l_commutes_sym</text>
</a>
</g>
<!-- Core_whisker_l&#45;&gt;Core_whisker_l_commutes_sym -->
<g id="edge50" class="edge"><title>Core_whisker_l&#45;&gt;Core_whisker_l_commutes_sym</title>
<path fill="none" stroke="black" d="M2869.78,-1222.28C2880.14,-1113.11 2932.57,-560.678 2945.24,-427.154"/>
<polygon fill="black" stroke="black" points="2948.75,-427.191 2946.21,-416.905 2941.78,-426.529 2948.75,-427.191"/>
</g>
<!-- Core_whisker_l_commutes -->
<g id="node24" class="node"><title>Core_whisker_l_commutes</title>
<a xlink:href="Core.html#whisker_l_commutes" xlink:title="whisker_l_commutes">
<ellipse fill="#f070d1" stroke="black" cx="3217" cy="-398.07" rx="113.137" ry="18.3848"/>
<text text-anchor="middle" x="3217" y="-394.47" font-family="Times Roman,serif" font-size="14.00">whisker_l_commutes</text>
</a>
</g>
<!-- Core_whisker_l&#45;&gt;Core_whisker_l_commutes -->
<g id="edge52" class="edge"><title>Core_whisker_l&#45;&gt;Core_whisker_l_commutes</title>
<path fill="none" stroke="black" d="M2875.61,-1222.68C2920.55,-1114.14 3150.96,-557.579 3205.44,-425.984"/>
<polygon fill="black" stroke="black" points="3208.75,-427.158 3209.34,-416.58 3202.28,-424.481 3208.75,-427.158"/>
</g>
<!-- Core_compose_commutes_sym -->
<g id="node26" class="node"><title>Core_compose_commutes_sym</title>
<a xlink:href="Core.html#compose_commutes_sym" xlink:title="compose_commutes_sym">
<ellipse fill="#f070d1" stroke="black" cx="3481" cy="-398.07" rx="133.143" ry="18.3848"/>
<text text-anchor="middle" x="3481" y="-394.47" font-family="Times Roman,serif" font-size="14.00">compose_commutes_sym</text>
</a>
</g>
<!-- Core_compose&#45;&gt;Core_compose_commutes_sym -->
<g id="edge54" class="edge"><title>Core_compose&#45;&gt;Core_compose_commutes_sym</title>
<path fill="none" stroke="black" d="M3007.56,-1222.68C3069.94,-1114.04 3390.06,-556.463 3465.2,-425.59"/>
<polygon fill="black" stroke="black" points="3468.43,-426.995 3470.37,-416.58 3462.36,-423.51 3468.43,-426.995"/>
</g>
<!-- Core_compose_commutes -->
<g id="node27" class="node"><title>Core_compose_commutes</title>
<a xlink:href="Core.html#compose_commutes" xlink:title="compose_commutes">
<ellipse fill="#f070d1" stroke="black" cx="3741" cy="-398.07" rx="108.894" ry="18.3848"/>
<text text-anchor="middle" x="3741" y="-394.47" font-family="Times Roman,serif" font-size="14.00">compose_commutes</text>
</a>
</g>
<!-- Core_compose&#45;&gt;Core_compose_commutes -->
<g id="edge56" class="edge"><title>Core_compose&#45;&gt;Core_compose_commutes</title>
<path fill="none" stroke="black" d="M3012.88,-1223.07C3108.19,-1115.08 3603.89,-553.424 3717.69,-424.477"/>
<polygon fill="black" stroke="black" points="3720.64,-426.432 3724.63,-416.618 3715.39,-421.8 3720.64,-426.432"/>
</g>
<!-- Composition_right_identity_isomorphism -->
<g id="node28" class="node"><title>Composition_right_identity_isomorphism</title>
<a xlink:href="Composition.html#right_identity_isomorphism" xlink:title="right_identity_isomorphism">
<ellipse fill="#f070d1" stroke="black" cx="3270" cy="-3426.07" rx="144.25" ry="18.3848"/>
<ellipse fill="none" stroke="black" cx="3270" cy="-3426.07" rx="148.25" ry="22.3848"/>
<ellipse fill="none" stroke="black" cx="3270" cy="-3426.07" rx="152.25" ry="26.3848"/>
<text text-anchor="middle" x="3270" y="-3422.47" font-family="Times Roman,serif" font-size="14.00">right_identity_isomorphism</text>
</a>
</g>
<!-- Composition_right_identity_isomorphism&#45;&gt;Laws_right_identity_isomorphism -->
<g id="edge58" class="edge"><title>Composition_right_identity_isomorphism&#45;&gt;Laws_right_identity_isomorphism</title>
<path fill="none" stroke="black" d="M3211.47,-3401.5C2843.21,-3246.9 850.998,-2410.57 503.663,-2264.76"/>
<polygon fill="black" stroke="black" points="504.917,-2261.49 494.341,-2260.85 502.207,-2267.94 504.917,-2261.49"/>
</g>
<!-- Composition_right_identity_natural_transformation_2 -->
<g id="node29" class="node"><title>Composition_right_identity_natural_transformation_2</title>
<a xlink:href="Composition.html#right_identity_natural_transformation_2" xlink:title="right_identity_natural_transformation_2">
<ellipse fill="#f070d1" stroke="black" cx="8040" cy="-3426.07" rx="208.115" ry="18.3848"/>
<ellipse fill="none" stroke="black" cx="8040" cy="-3426.07" rx="212.106" ry="22.3848"/>
<ellipse fill="none" stroke="black" cx="8040" cy="-3426.07" rx="216.096" ry="26.3848"/>
<text text-anchor="middle" x="8040" y="-3422.47" font-family="Times Roman,serif" font-size="14.00">right_identity_natural_transformation_2</text>
</a>
</g>
<!-- Composition_right_identity_natural_transformation_1 -->
<g id="node30" class="node"><title>Composition_right_identity_natural_transformation_1</title>
<a xlink:href="Composition.html#right_identity_natural_transformation_1" xlink:title="right_identity_natural_transformation_1">
<ellipse fill="#f070d1" stroke="black" cx="7590" cy="-3426.07" rx="208.115" ry="18.3848"/>
<ellipse fill="none" stroke="black" cx="7590" cy="-3426.07" rx="212.106" ry="22.3848"/>
<ellipse fill="none" stroke="black" cx="7590" cy="-3426.07" rx="216.096" ry="26.3848"/>
<text text-anchor="middle" x="7590" y="-3422.47" font-family="Times Roman,serif" font-size="14.00">right_identity_natural_transformation_1</text>
</a>
</g>
<!-- Composition_left_identity_isomorphism -->
<g id="node31" class="node"><title>Composition_left_identity_isomorphism</title>
<a xlink:href="Composition.html#left_identity_isomorphism" xlink:title="left_identity_isomorphism">
<ellipse fill="#f070d1" stroke="black" cx="2955" cy="-3426.07" rx="137.179" ry="18.3848"/>
<ellipse fill="none" stroke="black" cx="2955" cy="-3426.07" rx="141.179" ry="22.3848"/>
<ellipse fill="none" stroke="black" cx="2955" cy="-3426.07" rx="145.179" ry="26.3848"/>
<text text-anchor="middle" x="2955" y="-3422.47" font-family="Times Roman,serif" font-size="14.00">left_identity_isomorphism</text>
</a>
</g>
<!-- Composition_left_identity_isomorphism&#45;&gt;Laws_left_identity_isomorphism -->
<g id="edge60" class="edge"><title>Composition_left_identity_isomorphism&#45;&gt;Laws_left_identity_isomorphism</title>
<path fill="none" stroke="black" d="M2897.12,-3401.63C2531.7,-3247.36 548.884,-2410.21 204.122,-2264.65"/>
<polygon fill="black" stroke="black" points="205.444,-2261.41 194.87,-2260.75 202.722,-2267.86 205.444,-2261.41"/>
</g>
<!-- Composition_left_identity_natural_transformation_2 -->
<g id="node32" class="node"><title>Composition_left_identity_natural_transformation_2</title>
<a xlink:href="Composition.html#left_identity_natural_transformation_2" xlink:title="left_identity_natural_transformation_2">
<ellipse fill="#f070d1" stroke="black" cx="6997" cy="-3426.07" rx="200.818" ry="18.3848"/>
<ellipse fill="none" stroke="black" cx="6997" cy="-3426.07" rx="204.818" ry="22.3848"/>
<ellipse fill="none" stroke="black" cx="6997" cy="-3426.07" rx="208.818" ry="26.3848"/>
<text text-anchor="middle" x="6997" y="-3422.47" font-family="Times Roman,serif" font-size="14.00">left_identity_natural_transformation_2</text>
</a>
</g>
<!-- Composition_left_identity_natural_transformation_1 -->
<g id="node33" class="node"><title>Composition_left_identity_natural_transformation_1</title>
<a xlink:href="Composition.html#left_identity_natural_transformation_1" xlink:title="left_identity_natural_transformation_1">
<ellipse fill="#f070d1" stroke="black" cx="6561" cy="-3426.07" rx="200.818" ry="18.3848"/>
<ellipse fill="none" stroke="black" cx="6561" cy="-3426.07" rx="204.818" ry="22.3848"/>
<ellipse fill="none" stroke="black" cx="6561" cy="-3426.07" rx="208.818" ry="26.3848"/>
<text text-anchor="middle" x="6561" y="-3422.47" font-family="Times Roman,serif" font-size="14.00">left_identity_natural_transformation_1</text>
</a>
</g>
<!-- Composition_associativity -->
<g id="node34" class="node"><title>Composition_associativity</title>
<a xlink:href="Composition.html#associativity" xlink:title="associativity">
<ellipse fill="#f070d1" stroke="black" cx="5759" cy="-3426.07" rx="70.9686" ry="18.3848"/>
<ellipse fill="none" stroke="black" cx="5759" cy="-3426.07" rx="74.9435" ry="22.3848"/>
<ellipse fill="none" stroke="black" cx="5759" cy="-3426.07" rx="78.9183" ry="26.3848"/>
<text text-anchor="middle" x="5759" y="-3422.47" font-family="Times Roman,serif" font-size="14.00">associativity</text>
</a>
</g>
<!-- Composition_associativity&#45;&gt;Laws_associativity -->
<g id="edge62" class="edge"><title>Composition_associativity&#45;&gt;Laws_associativity</title>
<path fill="none" stroke="black" d="M5707.87,-3405.57C5695.8,-3400.77 5682.96,-3395.71 5671,-3391.07 4398.22,-2897.22 3997.57,-2955.9 2798,-2304.07 2778.91,-2293.7 2759.24,-2279.43 2743.85,-2267.3"/>
<polygon fill="black" stroke="black" points="2745.76,-2264.35 2735.77,-2260.82 2741.38,-2269.81 2745.76,-2264.35"/>
</g>
<!-- Composition_associator_2 -->
<g id="node35" class="node"><title>Composition_associator_2</title>
<a xlink:href="Composition.html#associator_2" xlink:title="associator_2">
<ellipse fill="#f070d1" stroke="black" cx="6114" cy="-3426.07" rx="72.1249" ry="18.3848"/>
<ellipse fill="none" stroke="black" cx="6114" cy="-3426.07" rx="76.1249" ry="22.3848"/>
<ellipse fill="none" stroke="black" cx="6114" cy="-3426.07" rx="80.1249" ry="26.3848"/>
<text text-anchor="middle" x="6114" y="-3422.47" font-family="Times Roman,serif" font-size="14.00">associator_2</text>
</a>
</g>
<!-- Composition_associator_1 -->
<g id="node36" class="node"><title>Composition_associator_1</title>
<a xlink:href="Composition.html#associator_1" xlink:title="associator_1">
<ellipse fill="#f070d1" stroke="black" cx="5936" cy="-3426.07" rx="72.1249" ry="18.3848"/>
<ellipse fill="none" stroke="black" cx="5936" cy="-3426.07" rx="76.1249" ry="22.3848"/>
<ellipse fill="none" stroke="black" cx="5936" cy="-3426.07" rx="80.1249" ry="26.3848"/>
<text text-anchor="middle" x="5936" y="-3422.47" font-family="Times Roman,serif" font-size="14.00">associator_1</text>
</a>
</g>
<!-- Composition_composition_of_whisker_r -->
<g id="node37" class="node"><title>Composition_composition_of_whisker_r</title>
<a xlink:href="Composition.html#composition_of_whisker_r" xlink:title="composition_of_whisker_r">
<ellipse fill="#f070d1" stroke="black" cx="4581" cy="-3426.07" rx="137.179" ry="18.3848"/>
<ellipse fill="none" stroke="black" cx="4581" cy="-3426.07" rx="141.179" ry="22.3848"/>
<ellipse fill="none" stroke="black" cx="4581" cy="-3426.07" rx="145.179" ry="26.3848"/>
<text text-anchor="middle" x="4581" y="-3422.47" font-family="Times Roman,serif" font-size="14.00">composition_of_whisker_r</text>
</a>
</g>
<!-- Composition_composition_of_whisker_r&#45;&gt;Laws_composition_of_whisker_r -->
<g id="edge64" class="edge"><title>Composition_composition_of_whisker_r&#45;&gt;Laws_composition_of_whisker_r</title>
<path fill="none" stroke="black" d="M4515.81,-3402.3C4197.28,-3285.97 2773.28,-2763.67 1619,-2304.07 1587.27,-2291.43 1551.92,-2276.68 1523.95,-2264.85"/>
<polygon fill="black" stroke="black" points="1524.96,-2261.48 1514.38,-2260.8 1522.22,-2267.92 1524.96,-2261.48"/>
</g>
<!-- Composition_composition_of_whisker_l -->
<g id="node38" class="node"><title>Composition_composition_of_whisker_l</title>
<a xlink:href="Composition.html#composition_of_whisker_l" xlink:title="composition_of_whisker_l">
<ellipse fill="#f070d1" stroke="black" cx="4101" cy="-3426.07" rx="135.057" ry="18.3848"/>
<ellipse fill="none" stroke="black" cx="4101" cy="-3426.07" rx="139.057" ry="22.3848"/>
<ellipse fill="none" stroke="black" cx="4101" cy="-3426.07" rx="143.057" ry="26.3848"/>
<text text-anchor="middle" x="4101" y="-3422.47" font-family="Times Roman,serif" font-size="14.00">composition_of_whisker_l</text>
</a>
</g>
<!-- Composition_composition_of_whisker_l&#45;&gt;Laws_composition_of_whisker_l -->
<g id="edge66" class="edge"><title>Composition_composition_of_whisker_l&#45;&gt;Laws_composition_of_whisker_l</title>
<path fill="none" stroke="black" d="M4036.45,-3402.33C3721.06,-3286.13 2311.16,-2764.36 1169,-2304.07 1137.69,-2291.45 1102.82,-2276.7 1075.24,-2264.87"/>
<polygon fill="black" stroke="black" points="1076.38,-2261.54 1065.81,-2260.81 1073.61,-2267.97 1076.38,-2261.54"/>
</g>
<!-- Composition_exchange_whisker -->
<g id="node39" class="node"><title>Composition_exchange_whisker</title>
<a xlink:href="Composition.html#exchange_whisker" xlink:title="exchange_whisker">
<ellipse fill="#f070d1" stroke="black" cx="5552" cy="-3426.07" rx="101.823" ry="18.3848"/>
<ellipse fill="none" stroke="black" cx="5552" cy="-3426.07" rx="105.823" ry="22.3848"/>
<ellipse fill="none" stroke="black" cx="5552" cy="-3426.07" rx="109.823" ry="26.3848"/>
<text text-anchor="middle" x="5552" y="-3422.47" font-family="Times Roman,serif" font-size="14.00">exchange_whisker</text>
</a>
</g>
<!-- Composition_exchange_whisker&#45;&gt;Laws_exchange_whisker -->
<g id="edge68" class="edge"><title>Composition_exchange_whisker&#45;&gt;Laws_exchange_whisker</title>
<path fill="none" stroke="black" d="M5486.77,-3404.65C5168.26,-3299.32 3746.83,-2820.52 2635,-2304.07 2610.51,-2292.69 2583.96,-2278.19 2562.98,-2266.18"/>
<polygon fill="black" stroke="black" points="2564.46,-2263 2554.05,-2261.03 2560.96,-2269.06 2564.46,-2263"/>
</g>
<!-- Composition_whisker_l_right_identity -->
<g id="node40" class="node"><title>Composition_whisker_l_right_identity</title>
<a xlink:href="Composition.html#whisker_l_right_identity" xlink:title="whisker_l_right_identity">
<ellipse fill="#f070d1" stroke="black" cx="3577" cy="-3426.07" rx="128.93" ry="18.3848"/>
<ellipse fill="none" stroke="black" cx="3577" cy="-3426.07" rx="132.915" ry="22.3848"/>
<ellipse fill="none" stroke="black" cx="3577" cy="-3426.07" rx="136.901" ry="26.3848"/>
<text text-anchor="middle" x="3577" y="-3422.47" font-family="Times Roman,serif" font-size="14.00">whisker_l_right_identity</text>
</a>
</g>
<!-- Composition_whisker_l_right_identity&#45;&gt;Laws_whisker_l_right_identity -->
<g id="edge70" class="edge"><title>Composition_whisker_l_right_identity&#45;&gt;Laws_whisker_l_right_identity</title>
<path fill="none" stroke="black" d="M3517.99,-3402.07C3228.93,-3284.39 1933.94,-2755.82 881,-2304.07 851.306,-2291.33 818.188,-2276.71 791.84,-2264.97"/>
<polygon fill="black" stroke="black" points="793.016,-2261.66 782.458,-2260.79 790.165,-2268.05 793.016,-2261.66"/>
</g>
<!-- Composition_whisker_r_left_identity -->
<g id="node41" class="node"><title>Composition_whisker_r_left_identity</title>
<a xlink:href="Composition.html#whisker_r_left_identity" xlink:title="whisker_r_left_identity">
<ellipse fill="#f070d1" stroke="black" cx="5103" cy="-3426.07" rx="123.273" ry="18.3848"/>
<ellipse fill="none" stroke="black" cx="5103" cy="-3426.07" rx="127.258" ry="22.3848"/>
<ellipse fill="none" stroke="black" cx="5103" cy="-3426.07" rx="131.243" ry="26.3848"/>
<text text-anchor="middle" x="5103" y="-3422.47" font-family="Times Roman,serif" font-size="14.00">whisker_r_left_identity</text>
</a>
</g>
<!-- Composition_whisker_r_left_identity&#45;&gt;Laws_whisker_r_left_identity -->
<g id="edge72" class="edge"><title>Composition_whisker_r_left_identity&#45;&gt;Laws_whisker_r_left_identity</title>
<path fill="none" stroke="black" d="M5030.94,-3403.84C4680.67,-3295.2 3122.4,-2804.99 1883,-2304.07 1853.74,-2292.24 1821.57,-2277.42 1796.32,-2265.35"/>
<polygon fill="black" stroke="black" points="1797.53,-2262.04 1787,-2260.86 1794.5,-2268.35 1797.53,-2262.04"/>
</g>
<!-- Composition_right_identity -->
<g id="node42" class="node"><title>Composition_right_identity</title>
<a xlink:href="Composition.html#right_identity" xlink:title="right_identity">
<ellipse fill="#f070d1" stroke="black" cx="5338" cy="-3426.07" rx="77.7817" ry="18.3848"/>
<ellipse fill="none" stroke="black" cx="5338" cy="-3426.07" rx="81.7817" ry="22.3848"/>
<ellipse fill="none" stroke="black" cx="5338" cy="-3426.07" rx="85.7817" ry="26.3848"/>
<text text-anchor="middle" x="5338" y="-3422.47" font-family="Times Roman,serif" font-size="14.00">right_identity</text>
</a>
</g>
<!-- Composition_right_identity&#45;&gt;Laws_right_identity -->
<g id="edge74" class="edge"><title>Composition_right_identity&#45;&gt;Laws_right_identity</title>
<path fill="none" stroke="black" d="M5283.17,-3405.48C4893.46,-3259.04 2553.83,-2378.98 2413,-2304.07 2393.17,-2293.52 2372.52,-2279.2 2356.32,-2267.09"/>
<polygon fill="black" stroke="black" points="2358.36,-2264.25 2348.28,-2260.99 2354.13,-2269.83 2358.36,-2264.25"/>
</g>
<!-- Composition_left_identity -->
<g id="node43" class="node"><title>Composition_left_identity</title>
<a xlink:href="Composition.html#left_identity" xlink:title="left_identity">
<ellipse fill="#f070d1" stroke="black" cx="4340" cy="-3426.07" rx="70.2603" ry="18.3848"/>
<ellipse fill="none" stroke="black" cx="4340" cy="-3426.07" rx="74.2348" ry="22.3848"/>
<ellipse fill="none" stroke="black" cx="4340" cy="-3426.07" rx="78.2093" ry="26.3848"/>
<text text-anchor="middle" x="4340" y="-3422.47" font-family="Times Roman,serif" font-size="14.00">left_identity</text>
</a>
</g>
<!-- Composition_left_identity&#45;&gt;Laws_left_identity -->
<g id="edge76" class="edge"><title>Composition_left_identity&#45;&gt;Laws_left_identity</title>
<path fill="none" stroke="black" d="M4289.94,-3405.67C4277.87,-3400.82 4265,-3395.71 4253,-3391.07 2959.14,-2890.58 2540.03,-2977.2 1327,-2304.07 1308.59,-2293.85 1289.86,-2279.6 1275.26,-2267.43"/>
<polygon fill="black" stroke="black" points="1277.49,-2264.73 1267.6,-2260.93 1272.96,-2270.07 1277.49,-2264.73"/>
</g>
<!-- Composition_whiskerR_functor -->
<g id="node44" class="node"><title>Composition_whiskerR_functor</title>
<a xlink:href="Composition.html#whiskerR_functor" xlink:title="whiskerR_functor">
<ellipse fill="#f070d1" stroke="black" cx="4849" cy="-3426.07" rx="96.8736" ry="18.3848"/>
<ellipse fill="none" stroke="black" cx="4849" cy="-3426.07" rx="100.874" ry="22.3848"/>
<ellipse fill="none" stroke="black" cx="4849" cy="-3426.07" rx="104.874" ry="26.3848"/>
<text text-anchor="middle" x="4849" y="-3422.47" font-family="Times Roman,serif" font-size="14.00">whiskerR_functor</text>
</a>
</g>
<!-- Composition_whiskerR_functor&#45;&gt;Laws_composition_of_whisker_r -->
<g id="edge78" class="edge"><title>Composition_whiskerR_functor&#45;&gt;Laws_composition_of_whisker_r</title>
<path fill="none" stroke="black" d="M4784.17,-3405.2C4449.01,-3296.94 2879.83,-2785.93 1619,-2304.07 1586.72,-2291.74 1550.92,-2276.8 1522.84,-2264.79"/>
<polygon fill="black" stroke="black" points="1524.21,-2261.56 1513.64,-2260.84 1521.45,-2268 1524.21,-2261.56"/>
</g>
<!-- Composition_whiskerR_functor&#45;&gt;Laws_whisker_r_left_identity -->
<g id="edge80" class="edge"><title>Composition_whiskerR_functor&#45;&gt;Laws_whisker_r_left_identity</title>
<path fill="none" stroke="black" d="M4787.29,-3404.57C4474.58,-3295.25 3034.77,-2787.33 1883,-2304.07 1854.1,-2291.94 1822.19,-2277.24 1796.98,-2265.3"/>
<polygon fill="black" stroke="black" points="1798.21,-2262 1787.67,-2260.87 1795.2,-2268.33 1798.21,-2262"/>
</g>
<!-- Composition_whiskerL_functor -->
<g id="node45" class="node"><title>Composition_whiskerL_functor</title>
<a xlink:href="Composition.html#whiskerL_functor" xlink:title="whiskerL_functor">
<ellipse fill="#f070d1" stroke="black" cx="3836" cy="-3426.07" rx="96.1665" ry="18.3848"/>
<ellipse fill="none" stroke="black" cx="3836" cy="-3426.07" rx="100.167" ry="22.3848"/>
<ellipse fill="none" stroke="black" cx="3836" cy="-3426.07" rx="104.167" ry="26.3848"/>
<text text-anchor="middle" x="3836" y="-3422.47" font-family="Times Roman,serif" font-size="14.00">whiskerL_functor</text>
</a>
</g>
<!-- Composition_whiskerL_functor&#45;&gt;Laws_composition_of_whisker_l -->
<g id="edge82" class="edge"><title>Composition_whiskerL_functor&#45;&gt;Laws_composition_of_whisker_l</title>
<path fill="none" stroke="black" d="M3781.98,-3403.4C3505.4,-3287.33 2220.09,-2747.79 1169,-2304.07 1138.12,-2291.04 1103.54,-2276.39 1076.01,-2264.71"/>
<polygon fill="black" stroke="black" points="1077.15,-2261.4 1066.58,-2260.72 1074.42,-2267.84 1077.15,-2261.4"/>
</g>
<!-- Composition_whiskerL_functor&#45;&gt;Laws_whisker_l_right_identity -->
<g id="edge84" class="edge"><title>Composition_whiskerL_functor&#45;&gt;Laws_whisker_l_right_identity</title>
<path fill="none" stroke="black" d="M3775.45,-3404.44C3466.3,-3293.73 2033.67,-2777.27 881,-2304.07 850.893,-2291.71 817.506,-2276.98 791.113,-2265.09"/>
<polygon fill="black" stroke="black" points="792.278,-2261.78 781.724,-2260.85 789.396,-2268.16 792.278,-2261.78"/>
</g>
<!-- Composition_whisker_r -->
<g id="node46" class="node"><title>Composition_whisker_r</title>
<a xlink:href="Composition.html#whisker_r" xlink:title="whisker_r">
<ellipse fill="#f070d1" stroke="black" cx="8341" cy="-3426.07" rx="58.957" ry="18.3848"/>
<ellipse fill="none" stroke="black" cx="8341" cy="-3426.07" rx="62.9274" ry="22.3848"/>
<ellipse fill="none" stroke="black" cx="8341" cy="-3426.07" rx="66.8977" ry="26.3848"/>
<text text-anchor="middle" x="8341" y="-3422.47" font-family="Times Roman,serif" font-size="14.00">whisker_r</text>
</a>
</g>
<!-- Composition_whisker_r_commutes_sym -->
<g id="node47" class="node"><title>Composition_whisker_r_commutes_sym</title>
<a xlink:href="Composition.html#whisker_r_commutes_sym" xlink:title="whisker_r_commutes_sym">
<ellipse fill="#f070d1" stroke="black" cx="8023" cy="-2243.07" rx="138.801" ry="18.3848"/>
<text text-anchor="middle" x="8023" y="-2239.47" font-family="Times Roman,serif" font-size="14.00">whisker_r_commutes_sym</text>
</a>
</g>
<!-- Composition_whisker_r&#45;&gt;Composition_whisker_r_commutes_sym -->
<g id="edge86" class="edge"><title>Composition_whisker_r&#45;&gt;Composition_whisker_r_commutes_sym</title>
<path fill="none" stroke="black" d="M8333.91,-3399.7C8291.77,-3242.91 8074.48,-2434.57 8030.69,-2271.69"/>
<polygon fill="black" stroke="black" points="8034.04,-2270.66 8028.06,-2261.91 8027.28,-2272.47 8034.04,-2270.66"/>
</g>
<!-- Composition_whisker_r_commutes -->
<g id="node48" class="node"><title>Composition_whisker_r_commutes</title>
<a xlink:href="Composition.html#whisker_r_commutes" xlink:title="whisker_r_commutes">
<ellipse fill="#f070d1" stroke="black" cx="8294" cy="-2243.07" rx="114.051" ry="18.3848"/>
<text text-anchor="middle" x="8294" y="-2239.47" font-family="Times Roman,serif" font-size="14.00">whisker_r_commutes</text>
</a>
</g>
<!-- Composition_whisker_r&#45;&gt;Composition_whisker_r_commutes -->
<g id="edge88" class="edge"><title>Composition_whisker_r&#45;&gt;Composition_whisker_r_commutes</title>
<path fill="none" stroke="black" d="M8339.94,-3399.42C8333.69,-3242.1 8301.66,-2435.99 8295.16,-2272.15"/>
<polygon fill="black" stroke="black" points="8298.64,-2271.74 8294.75,-2261.89 8291.65,-2272.02 8298.64,-2271.74"/>
</g>
<!-- Composition_whisker_l -->
<g id="node49" class="node"><title>Composition_whisker_l</title>
<a xlink:href="Composition.html#whisker_l" xlink:title="whisker_l">
<ellipse fill="#f070d1" stroke="black" cx="7290" cy="-3426.07" rx="57.9828" ry="18.3848"/>
<ellipse fill="none" stroke="black" cx="7290" cy="-3426.07" rx="61.9828" ry="22.3848"/>
<ellipse fill="none" stroke="black" cx="7290" cy="-3426.07" rx="65.9828" ry="26.3848"/>
<text text-anchor="middle" x="7290" y="-3422.47" font-family="Times Roman,serif" font-size="14.00">whisker_l</text>
</a>
</g>
<!-- Composition_whisker_l_commutes_sym -->
<g id="node50" class="node"><title>Composition_whisker_l_commutes_sym</title>
<a xlink:href="Composition.html#whisker_l_commutes_sym" xlink:title="whisker_l_commutes_sym">
<ellipse fill="#f070d1" stroke="black" cx="7155" cy="-2243.07" rx="137.886" ry="18.3848"/>
<text text-anchor="middle" x="7155" y="-2239.47" font-family="Times Roman,serif" font-size="14.00">whisker_l_commutes_sym</text>
</a>
</g>
<!-- Composition_whisker_l&#45;&gt;Composition_whisker_l_commutes_sym -->
<g id="edge90" class="edge"><title>Composition_whisker_l&#45;&gt;Composition_whisker_l_commutes_sym</title>
<path fill="none" stroke="black" d="M7286.96,-3399.42C7269.01,-3242.1 7177.01,-2435.99 7158.32,-2272.15"/>
<polygon fill="black" stroke="black" points="7161.76,-2271.43 7157.15,-2261.89 7154.8,-2272.22 7161.76,-2271.43"/>
</g>
<!-- Composition_whisker_l_commutes -->
<g id="node51" class="node"><title>Composition_whisker_l_commutes</title>
<a xlink:href="Composition.html#whisker_l_commutes" xlink:title="whisker_l_commutes">
<ellipse fill="#f070d1" stroke="black" cx="7424" cy="-2243.07" rx="113.137" ry="18.3848"/>
<text text-anchor="middle" x="7424" y="-2239.47" font-family="Times Roman,serif" font-size="14.00">whisker_l_commutes</text>
</a>
</g>
<!-- Composition_whisker_l&#45;&gt;Composition_whisker_l_commutes -->
<g id="edge92" class="edge"><title>Composition_whisker_l&#45;&gt;Composition_whisker_l_commutes</title>
<path fill="none" stroke="black" d="M7293.02,-3399.42C7310.84,-3242.1 7402.15,-2435.99 7420.71,-2272.15"/>
<polygon fill="black" stroke="black" points="7424.22,-2272.22 7421.87,-2261.89 7417.27,-2271.43 7424.22,-2272.22"/>
</g>
<!-- Composition_compose -->
<g id="node52" class="node"><title>Composition_compose</title>
<a xlink:href="Composition.html#compose" xlink:title="compose">
<ellipse fill="#f070d1" stroke="black" cx="6273" cy="-3426.07" rx="53.3032" ry="18.3848"/>
<ellipse fill="none" stroke="black" cx="6273" cy="-3426.07" rx="57.2707" ry="22.3848"/>
<ellipse fill="none" stroke="black" cx="6273" cy="-3426.07" rx="61.2382" ry="26.3848"/>
<text text-anchor="middle" x="6273" y="-3422.47" font-family="Times Roman,serif" font-size="14.00">compose</text>
</a>
</g>
<!-- Composition_compose_commutes_sym -->
<g id="node53" class="node"><title>Composition_compose_commutes_sym</title>
<a xlink:href="Composition.html#compose_commutes_sym" xlink:title="compose_commutes_sym">
<ellipse fill="#f070d1" stroke="black" cx="6143" cy="-2243.07" rx="133.143" ry="18.3848"/>
<text text-anchor="middle" x="6143" y="-2239.47" font-family="Times Roman,serif" font-size="14.00">compose_commutes_sym</text>
</a>
</g>
<!-- Composition_compose&#45;&gt;Composition_compose_commutes_sym -->
<g id="edge94" class="edge"><title>Composition_compose&#45;&gt;Composition_compose_commutes_sym</title>
<path fill="none" stroke="black" d="M6270.07,-3399.42C6252.78,-3242.1 6164.2,-2435.99 6146.2,-2272.15"/>
<polygon fill="black" stroke="black" points="6149.64,-2271.45 6145.07,-2261.89 6142.68,-2272.21 6149.64,-2271.45"/>
</g>
<!-- Composition_compose_commutes -->
<g id="node54" class="node"><title>Composition_compose_commutes</title>
<a xlink:href="Composition.html#compose_commutes" xlink:title="compose_commutes">
<ellipse fill="#f070d1" stroke="black" cx="6403" cy="-2243.07" rx="108.894" ry="18.3848"/>
<text text-anchor="middle" x="6403" y="-2239.47" font-family="Times Roman,serif" font-size="14.00">compose_commutes</text>
</a>
</g>
<!-- Composition_compose&#45;&gt;Composition_compose_commutes -->
<g id="edge96" class="edge"><title>Composition_compose&#45;&gt;Composition_compose_commutes</title>
<path fill="none" stroke="black" d="M6275.93,-3399.42C6293.22,-3242.1 6381.8,-2435.99 6399.8,-2272.15"/>
<polygon fill="black" stroke="black" points="6403.32,-2272.21 6400.93,-2261.89 6396.36,-2271.45 6403.32,-2272.21"/>
</g>
</g>
</svg>
