<?xml version="1.0" encoding="UTF-8" standalone="no"?>
<!DOCTYPE svg PUBLIC "-//W3C//DTD SVG 1.1//EN"
 "http://www.w3.org/Graphics/SVG/1.1/DTD/svg11.dtd">
<!-- Generated by graphviz version 2.26.3 (20100126.1600)
 -->
<!-- Title: HoTT_categories_NatCategory Pages: 1 -->
<svg width="612pt" height="310pt"
 viewBox="0.00 0.00 612.00 310.00" xmlns="http://www.w3.org/2000/svg" xmlns:xlink="http://www.w3.org/1999/xlink">
<g id="graph1" class="graph" transform="scale(1 1) rotate(0) translate(4 306)">
<title>HoTT_categories_NatCategory</title>
<polygon fill="white" stroke="white" points="-4,5 -4,-306 609,-306 609,5 -4,5"/>
<g id="graph2" class="cluster"><title>cluster_NatCategory</title>
<polygon fill="#ffffc3" stroke="black" points="12.3897,-8 12.3897,-294 591.61,-294 591.61,-8 12.3897,-8"/>
<text text-anchor="middle" x="64.3897" y="-277.4" font-family="Times Roman,serif" font-size="14.00">NatCategory</text>
</g>
<g id="graph3" class="cluster"><title>cluster_NatCategory_Core</title>
<polygon fill="#ffffa3" stroke="black" points="24.7795,-16 24.7795,-260 579.221,-260 579.221,-16 24.7795,-16"/>
<text text-anchor="middle" x="49.2795" y="-243.4" font-family="Times Roman,serif" font-size="14.00">Core</text>
</g>
<!-- NatCategory_Core_nat_category -->
<g id="node1" class="node"><title>NatCategory_Core_nat_category</title>
<a xlink:href="NatCategory.html#Core.nat_category" xlink:title="nat_category">
<ellipse fill="#f070d1" stroke="black" cx="302.344" cy="-199" rx="75.2074" ry="18.3848"/>
<ellipse fill="none" stroke="black" cx="302.344" cy="-199" rx="79.1834" ry="22.3848"/>
<ellipse fill="none" stroke="black" cx="302.344" cy="-199" rx="83.1595" ry="26.3848"/>
<text text-anchor="middle" x="302.344" y="-195.4" font-family="Times Roman,serif" font-size="14.00">nat_category</text>
</a>
</g>
<!-- NatCategory_Core_trunc_cardinality_representative -->
<g id="node2" class="node"><title>NatCategory_Core_trunc_cardinality_representative</title>
<a xlink:href="NatCategory.html#Core.trunc_cardinality_representative" xlink:title="trunc_cardinality_representative">
<ellipse fill="#ffb57f" stroke="black" cx="302.344" cy="-117" rx="171.12" ry="18.3848"/>
<text text-anchor="middle" x="302.344" y="-113.4" font-family="Times Roman,serif" font-size="14.00">trunc_cardinality_representative</text>
</a>
</g>
<!-- NatCategory_Core_nat_category&#45;&gt;NatCategory_Core_trunc_cardinality_representative -->
<g id="edge2" class="edge"><title>NatCategory_Core_nat_category&#45;&gt;NatCategory_Core_trunc_cardinality_representative</title>
<path fill="none" stroke="black" d="M302.344,-172.15C302.344,-163.743 302.344,-154.43 302.344,-145.889"/>
<polygon fill="black" stroke="black" points="305.844,-145.607 302.344,-135.607 298.844,-145.607 305.844,-145.607"/>
</g>
<!-- NatCategory_Core_CardinalityRepresentative -->
<g id="node3" class="node"><title>NatCategory_Core_CardinalityRepresentative</title>
<a xlink:href="NatCategory.html#Core.CardinalityRepresentative" xlink:title="CardinalityRepresentative">
<ellipse fill="#f070d1" stroke="black" cx="302.344" cy="-43" rx="138.093" ry="18.3848"/>
<text text-anchor="middle" x="302.344" y="-39.4" font-family="Times Roman,serif" font-size="14.00">CardinalityRepresentative</text>
</a>
</g>
<!-- NatCategory_Core_trunc_cardinality_representative&#45;&gt;NatCategory_Core_CardinalityRepresentative -->
<g id="edge4" class="edge"><title>NatCategory_Core_trunc_cardinality_representative&#45;&gt;NatCategory_Core_CardinalityRepresentative</title>
<path fill="none" stroke="black" d="M302.344,-98.3267C302.344,-90.2639 302.344,-80.6477 302.344,-71.7115"/>
<polygon fill="black" stroke="black" points="305.844,-71.6673 302.344,-61.6674 298.844,-71.6674 305.844,-71.6673"/>
</g>
</g>
</svg>
