<?xml version="1.0" encoding="UTF-8" standalone="no"?>
<!DOCTYPE svg PUBLIC "-//W3C//DTD SVG 1.1//EN"
 "http://www.w3.org/Graphics/SVG/1.1/DTD/svg11.dtd">
<!-- Generated by graphviz version 2.39.20141222.0545 (20141222.0545)
 -->
<!-- Title: HoTT_Categories_ProductLaws Pages: 1 -->
<svg width="1303pt" height="655pt"
 viewBox="0.00 0.00 1303.00 655.50" xmlns="http://www.w3.org/2000/svg" xmlns:xlink="http://www.w3.org/1999/xlink">
<g id="graph0" class="graph" transform="scale(1 1) rotate(0) translate(4 651.5)">
<title>HoTT_Categories_ProductLaws</title>
<polygon fill="white" stroke="transparent" points="-4,4 -4,-651.5 1299,-651.5 1299,4 -4,4"/>
<g id="clust1" class="cluster"><title>cluster_ProductLaws</title>
<polygon fill="#ffffc3" stroke="black" points="8,-23.7615 8,-623.739 1287,-623.739 1287,-23.7615 8,-23.7615"/>
<text text-anchor="middle" x="52" y="-608.539" font-family="Times,serif" font-size="14.00">ProductLaws</text>
</g>
<g id="clust2" class="cluster"><title>cluster_ProductLaws_Associativity</title>
<polygon fill="#ffffa3" stroke="black" points="1100,-47.5229 1100,-531.663 1279,-531.663 1279,-47.5229 1100,-47.5229"/>
<text text-anchor="middle" x="1144" y="-516.463" font-family="Times,serif" font-size="14.00">Associativity</text>
</g>
<g id="clust3" class="cluster"><title>cluster_ProductLaws_Law0</title>
<polygon fill="#ffffa3" stroke="black" points="486,-47.5229 486,-531.663 1092,-531.663 1092,-47.5229 486,-47.5229"/>
<text text-anchor="middle" x="509.5" y="-516.463" font-family="Times,serif" font-size="14.00">Law0</text>
</g>
<g id="clust4" class="cluster"><title>cluster_ProductLaws_Law1</title>
<polygon fill="#ffffa3" stroke="black" points="112,-47.5229 112,-531.663 478,-531.663 478,-47.5229 112,-47.5229"/>
<text text-anchor="middle" x="135.5" y="-516.463" font-family="Times,serif" font-size="14.00">Law1</text>
</g>
<g id="clust5" class="cluster"><title>cluster_ProductLaws_Swap</title>
<polygon fill="#ffffa3" stroke="black" points="16,-47.5229 16,-531.663 104,-531.663 104,-47.5229 16,-47.5229"/>
<text text-anchor="middle" x="39.5" y="-516.463" font-family="Times,serif" font-size="14.00">Swap</text>
</g>
<!-- ProductLaws_Swap_law -->
<g id="node1" class="node"><title>ProductLaws_Swap_law</title>
<g id="a_node1"><a xlink:href="ProductLaws.html#Swap.law" xlink:title="law">
<ellipse fill="#f070d1" stroke="black" cx="60" cy="-362.761" rx="27" ry="18"/>
<ellipse fill="none" stroke="black" cx="60" cy="-362.761" rx="31" ry="22"/>
<ellipse fill="none" stroke="black" cx="60" cy="-362.761" rx="35" ry="26"/>
<text text-anchor="middle" x="60" y="-359.061" font-family="Times,serif" font-size="14.00">law</text>
</a>
</g>
</g>
<!-- ProductLaws_Swap_functor -->
<g id="node2" class="node"><title>ProductLaws_Swap_functor</title>
<g id="a_node2"><a xlink:href="ProductLaws.html#Swap.functor" xlink:title="functor">
<ellipse fill="#f070d1" stroke="black" cx="60" cy="-124.761" rx="36.2938" ry="18"/>
<text text-anchor="middle" x="60" y="-121.061" font-family="Times,serif" font-size="14.00">functor</text>
</a>
</g>
</g>
<!-- ProductLaws_Swap_law&#45;&gt;ProductLaws_Swap_functor -->
<g id="edge1" class="edge"><title>ProductLaws_Swap_law&#45;&gt;ProductLaws_Swap_functor</title>
<path fill="none" stroke="black" d="M60,-336.382C60,-291.228 60,-199.512 60,-153.069"/>
<polygon fill="black" stroke="black" points="63.5001,-152.819 60,-142.819 56.5001,-152.82 63.5001,-152.819"/>
</g>
<!-- ProductLaws_Law1_law1_ -->
<g id="node3" class="node"><title>ProductLaws_Law1_law1_</title>
<g id="a_node3"><a xlink:href="ProductLaws.html#Law1.law1'" xlink:title="law1&#39;">
<ellipse fill="#facdef" stroke="black" cx="385" cy="-362.761" rx="29.443" ry="18"/>
<ellipse fill="none" stroke="black" cx="385" cy="-362.761" rx="33.4697" ry="22"/>
<ellipse fill="none" stroke="black" cx="385" cy="-362.761" rx="37.4965" ry="26"/>
<text text-anchor="middle" x="385" y="-359.061" font-family="Times,serif" font-size="14.00">law1&#39;</text>
</a>
</g>
</g>
<!-- ProductLaws_Law1_inverse_ -->
<g id="node5" class="node"><title>ProductLaws_Law1_inverse_</title>
<g id="a_node5"><a xlink:href="ProductLaws.html#Law1.inverse'" xlink:title="inverse&#39;">
<ellipse fill="#f070d1" stroke="black" cx="339" cy="-124.761" rx="37.8943" ry="18"/>
<text text-anchor="middle" x="339" y="-121.061" font-family="Times,serif" font-size="14.00">inverse&#39;</text>
</a>
</g>
</g>
<!-- ProductLaws_Law1_law1_&#45;&gt;ProductLaws_Law1_inverse_ -->
<g id="edge2" class="edge"><title>ProductLaws_Law1_law1_&#45;&gt;ProductLaws_Law1_inverse_</title>
<path fill="none" stroke="black" d="M379.99,-336.838C371.284,-291.795 353.435,-199.449 344.439,-152.902"/>
<polygon fill="black" stroke="black" points="347.84,-152.057 342.506,-142.903 340.968,-153.385 347.84,-152.057"/>
</g>
<!-- ProductLaws_Law1_functor_ -->
<g id="node7" class="node"><title>ProductLaws_Law1_functor_</title>
<g id="a_node7"><a xlink:href="ProductLaws.html#Law1.functor'" xlink:title="functor&#39;">
<ellipse fill="#f070d1" stroke="black" cx="432" cy="-124.761" rx="37.8943" ry="18"/>
<text text-anchor="middle" x="432" y="-121.061" font-family="Times,serif" font-size="14.00">functor&#39;</text>
</a>
</g>
</g>
<!-- ProductLaws_Law1_law1_&#45;&gt;ProductLaws_Law1_functor_ -->
<g id="edge3" class="edge"><title>ProductLaws_Law1_law1_&#45;&gt;ProductLaws_Law1_functor_</title>
<path fill="none" stroke="black" d="M390.119,-336.838C399.014,-291.795 417.251,-199.449 426.443,-152.902"/>
<polygon fill="black" stroke="black" points="429.914,-153.392 428.417,-142.903 423.046,-152.035 429.914,-153.392"/>
</g>
<!-- ProductLaws_Law1_law1 -->
<g id="node4" class="node"><title>ProductLaws_Law1_law1</title>
<g id="a_node4"><a xlink:href="ProductLaws.html#Law1.law1" xlink:title="law1">
<ellipse fill="#facdef" stroke="black" cx="201" cy="-362.761" rx="27.9068" ry="18"/>
<ellipse fill="none" stroke="black" cx="201" cy="-362.761" rx="31.9009" ry="22"/>
<ellipse fill="none" stroke="black" cx="201" cy="-362.761" rx="35.8951" ry="26"/>
<text text-anchor="middle" x="201" y="-359.061" font-family="Times,serif" font-size="14.00">law1</text>
</a>
</g>
</g>
<!-- ProductLaws_Law1_inverse -->
<g id="node6" class="node"><title>ProductLaws_Law1_inverse</title>
<g id="a_node6"><a xlink:href="ProductLaws.html#Law1.inverse" xlink:title="inverse">
<ellipse fill="#f070d1" stroke="black" cx="156" cy="-124.761" rx="36.2938" ry="18"/>
<text text-anchor="middle" x="156" y="-121.061" font-family="Times,serif" font-size="14.00">inverse</text>
</a>
</g>
</g>
<!-- ProductLaws_Law1_law1&#45;&gt;ProductLaws_Law1_inverse -->
<g id="edge4" class="edge"><title>ProductLaws_Law1_law1&#45;&gt;ProductLaws_Law1_inverse</title>
<path fill="none" stroke="black" d="M196.099,-336.838C187.582,-291.795 170.122,-199.449 161.321,-152.902"/>
<polygon fill="black" stroke="black" points="164.727,-152.079 159.43,-142.903 157.849,-153.379 164.727,-152.079"/>
</g>
<!-- ProductLaws_Law1_functor -->
<g id="node8" class="node"><title>ProductLaws_Law1_functor</title>
<g id="a_node8"><a xlink:href="ProductLaws.html#Law1.functor" xlink:title="functor">
<ellipse fill="#f070d1" stroke="black" cx="247" cy="-124.761" rx="36.2938" ry="18"/>
<text text-anchor="middle" x="247" y="-121.061" font-family="Times,serif" font-size="14.00">functor</text>
</a>
</g>
</g>
<!-- ProductLaws_Law1_law1&#45;&gt;ProductLaws_Law1_functor -->
<g id="edge5" class="edge"><title>ProductLaws_Law1_law1&#45;&gt;ProductLaws_Law1_functor</title>
<path fill="none" stroke="black" d="M206.01,-336.838C214.716,-291.795 232.565,-199.449 241.561,-152.902"/>
<polygon fill="black" stroke="black" points="245.032,-153.385 243.494,-142.903 238.16,-152.057 245.032,-153.385"/>
</g>
<!-- ProductLaws_Law0_law_ -->
<g id="node9" class="node"><title>ProductLaws_Law0_law_</title>
<g id="a_node9"><a xlink:href="ProductLaws.html#Law0.law'" xlink:title="law&#39;">
<ellipse fill="#f070d1" stroke="black" cx="1049" cy="-362.761" rx="27" ry="18"/>
<ellipse fill="none" stroke="black" cx="1049" cy="-362.761" rx="31" ry="22"/>
<ellipse fill="none" stroke="black" cx="1049" cy="-362.761" rx="35" ry="26"/>
<text text-anchor="middle" x="1049" y="-359.061" font-family="Times,serif" font-size="14.00">law&#39;</text>
</a>
</g>
</g>
<!-- ProductLaws_Law0_law -->
<g id="node10" class="node"><title>ProductLaws_Law0_law</title>
<g id="a_node10"><a xlink:href="ProductLaws.html#Law0.law" xlink:title="law">
<ellipse fill="#f070d1" stroke="black" cx="961" cy="-362.761" rx="27" ry="18"/>
<ellipse fill="none" stroke="black" cx="961" cy="-362.761" rx="31" ry="22"/>
<ellipse fill="none" stroke="black" cx="961" cy="-362.761" rx="35" ry="26"/>
<text text-anchor="middle" x="961" y="-359.061" font-family="Times,serif" font-size="14.00">law</text>
</a>
</g>
</g>
<!-- ProductLaws_Law0_inverse_ -->
<g id="node11" class="node"><title>ProductLaws_Law0_inverse_</title>
<g id="a_node11"><a xlink:href="ProductLaws.html#Law0.inverse'" xlink:title="inverse&#39;">
<ellipse fill="#f070d1" stroke="black" cx="862" cy="-362.761" rx="37.8596" ry="18"/>
<ellipse fill="none" stroke="black" cx="862" cy="-362.761" rx="41.8769" ry="22"/>
<ellipse fill="none" stroke="black" cx="862" cy="-362.761" rx="45.8942" ry="26"/>
<text text-anchor="middle" x="862" y="-359.061" font-family="Times,serif" font-size="14.00">inverse&#39;</text>
</a>
</g>
</g>
<!-- ProductLaws_Law0_inverse -->
<g id="node12" class="node"><title>ProductLaws_Law0_inverse</title>
<g id="a_node12"><a xlink:href="ProductLaws.html#Law0.inverse" xlink:title="inverse">
<ellipse fill="#f070d1" stroke="black" cx="754" cy="-362.761" rx="36.3123" ry="18"/>
<ellipse fill="none" stroke="black" cx="754" cy="-362.761" rx="40.3031" ry="22"/>
<ellipse fill="none" stroke="black" cx="754" cy="-362.761" rx="44.2938" ry="26"/>
<text text-anchor="middle" x="754" y="-359.061" font-family="Times,serif" font-size="14.00">inverse</text>
</a>
</g>
</g>
<!-- ProductLaws_Law0_functor_ -->
<g id="node13" class="node"><title>ProductLaws_Law0_functor_</title>
<g id="a_node13"><a xlink:href="ProductLaws.html#Law0.functor'" xlink:title="functor&#39;">
<ellipse fill="#f070d1" stroke="black" cx="646" cy="-362.761" rx="37.8596" ry="18"/>
<ellipse fill="none" stroke="black" cx="646" cy="-362.761" rx="41.8769" ry="22"/>
<ellipse fill="none" stroke="black" cx="646" cy="-362.761" rx="45.8942" ry="26"/>
<text text-anchor="middle" x="646" y="-359.061" font-family="Times,serif" font-size="14.00">functor&#39;</text>
</a>
</g>
</g>
<!-- ProductLaws_Law0_is_initial_category__product_ -->
<g id="node15" class="node"><title>ProductLaws_Law0_is_initial_category__product_</title>
<g id="a_node15"><a xlink:href="ProductLaws.html#Law0.is_initial_category__product'" xlink:title="is_initial_category__product&#39;">
<ellipse fill="#f070d1" stroke="black" cx="849" cy="-124.761" rx="113.18" ry="18"/>
<text text-anchor="middle" x="849" y="-121.061" font-family="Times,serif" font-size="14.00">is_initial_category__product&#39;</text>
</a>
</g>
</g>
<!-- ProductLaws_Law0_functor_&#45;&gt;ProductLaws_Law0_is_initial_category__product_ -->
<g id="edge6" class="edge"><title>ProductLaws_Law0_functor_&#45;&gt;ProductLaws_Law0_is_initial_category__product_</title>
<path fill="none" stroke="black" d="M666.207,-339.071C704.522,-294.15 787.44,-196.935 827.059,-150.485"/>
<polygon fill="black" stroke="black" points="829.882,-152.569 833.708,-142.69 824.556,-148.027 829.882,-152.569"/>
</g>
<!-- ProductLaws_Law0_functor -->
<g id="node14" class="node"><title>ProductLaws_Law0_functor</title>
<g id="a_node14"><a xlink:href="ProductLaws.html#Law0.functor" xlink:title="functor">
<ellipse fill="#f070d1" stroke="black" cx="538" cy="-362.761" rx="36.3123" ry="18"/>
<ellipse fill="none" stroke="black" cx="538" cy="-362.761" rx="40.3031" ry="22"/>
<ellipse fill="none" stroke="black" cx="538" cy="-362.761" rx="44.2938" ry="26"/>
<text text-anchor="middle" x="538" y="-359.061" font-family="Times,serif" font-size="14.00">functor</text>
</a>
</g>
</g>
<!-- ProductLaws_Law0_is_initial_category__product -->
<g id="node16" class="node"><title>ProductLaws_Law0_is_initial_category__product</title>
<g id="a_node16"><a xlink:href="ProductLaws.html#Law0.is_initial_category__product" xlink:title="is_initial_category__product">
<ellipse fill="#f070d1" stroke="black" cx="606" cy="-124.761" rx="111.581" ry="18"/>
<text text-anchor="middle" x="606" y="-121.061" font-family="Times,serif" font-size="14.00">is_initial_category__product</text>
</a>
</g>
</g>
<!-- ProductLaws_Law0_functor&#45;&gt;ProductLaws_Law0_is_initial_category__product -->
<g id="edge7" class="edge"><title>ProductLaws_Law0_functor&#45;&gt;ProductLaws_Law0_is_initial_category__product</title>
<path fill="none" stroke="black" d="M545.407,-336.838C558.303,-291.7 584.772,-199.06 598.044,-152.609"/>
<polygon fill="black" stroke="black" points="601.435,-153.48 600.817,-142.903 594.704,-151.557 601.435,-153.48"/>
</g>
<!-- ProductLaws_Associativity_law -->
<g id="node17" class="node"><title>ProductLaws_Associativity_law</title>
<g id="a_node17"><a xlink:href="ProductLaws.html#Associativity.law" xlink:title="law">
<ellipse fill="#f070d1" stroke="black" cx="1189" cy="-362.761" rx="27" ry="18"/>
<ellipse fill="none" stroke="black" cx="1189" cy="-362.761" rx="31" ry="22"/>
<ellipse fill="none" stroke="black" cx="1189" cy="-362.761" rx="35" ry="26"/>
<text text-anchor="middle" x="1189" y="-359.061" font-family="Times,serif" font-size="14.00">law</text>
</a>
</g>
</g>
<!-- ProductLaws_Associativity_inverse -->
<g id="node18" class="node"><title>ProductLaws_Associativity_inverse</title>
<g id="a_node18"><a xlink:href="ProductLaws.html#Associativity.inverse" xlink:title="inverse">
<ellipse fill="#f070d1" stroke="black" cx="1144" cy="-124.761" rx="36.2938" ry="18"/>
<text text-anchor="middle" x="1144" y="-121.061" font-family="Times,serif" font-size="14.00">inverse</text>
</a>
</g>
</g>
<!-- ProductLaws_Associativity_law&#45;&gt;ProductLaws_Associativity_inverse -->
<g id="edge8" class="edge"><title>ProductLaws_Associativity_law&#45;&gt;ProductLaws_Associativity_inverse</title>
<path fill="none" stroke="black" d="M1184.1,-336.838C1175.58,-291.795 1158.12,-199.449 1149.32,-152.902"/>
<polygon fill="black" stroke="black" points="1152.73,-152.079 1147.43,-142.903 1145.85,-153.379 1152.73,-152.079"/>
</g>
<!-- ProductLaws_Associativity_functor -->
<g id="node19" class="node"><title>ProductLaws_Associativity_functor</title>
<g id="a_node19"><a xlink:href="ProductLaws.html#Associativity.functor" xlink:title="functor">
<ellipse fill="#f070d1" stroke="black" cx="1235" cy="-124.761" rx="36.2938" ry="18"/>
<text text-anchor="middle" x="1235" y="-121.061" font-family="Times,serif" font-size="14.00">functor</text>
</a>
</g>
</g>
<!-- ProductLaws_Associativity_law&#45;&gt;ProductLaws_Associativity_functor -->
<g id="edge9" class="edge"><title>ProductLaws_Associativity_law&#45;&gt;ProductLaws_Associativity_functor</title>
<path fill="none" stroke="black" d="M1194.01,-336.838C1202.72,-291.795 1220.56,-199.449 1229.56,-152.902"/>
<polygon fill="black" stroke="black" points="1233.03,-153.385 1231.49,-142.903 1226.16,-152.057 1233.03,-153.385"/>
</g>
</g>
</svg>
